<?xml version="1.0" encoding="UTF-8"?>
<!DOCTYPE svg PUBLIC "-//W3C//DTD SVG 1.1//EN" "http://www.w3.org/Graphics/SVG/1.1/DTD/svg11.dtd">
<svg xmlns="http://www.w3.org/2000/svg" version="1.1" width="512px" height="512px" style="shape-rendering:geometricPrecision; text-rendering:geometricPrecision; image-rendering:optimizeQuality; fill-rule:evenodd; clip-rule:evenodd" xmlns:xlink="http://www.w3.org/1999/xlink">
<g><path fill="#87b1d3" fill-opacity="0.549" d="M 244.1,26.18 c -1.32,1.03 -3.27,2.99 -5.01,2.86 c 0,-0.37 0.12,-0.69 0.38,-0.96 c 1.56,-0.64 2.77,-2.49 4.63,-1.9 Z M 343.86,67.86 c 0.04,0.45 0.08,0.89 0.11,1.33 c -0.49,0.99 -1.28,1.49 -2.38,1.5 c -0.48,-0.65 1.96,-2.23 2.27,-2.83 Z M 400.91,128.01 c 0.78,-1.4 1.92,-2.33 3.43,-2.78 c 1.24,1.24 -2.64,2.63 -3.43,2.78 Z M 462.69,223.17 c 0.15,0.38 0.31,0.76 0.46,1.15 c -0.38,0.53 -2.28,1.96 -2.69,1.1 c 0.6,-0.89 1.34,-1.64 2.23,-2.25 Z M 393.87,376.91 c -0.05,0.73 -0.45,1.01 -1.2,0.84 c 0.29,-0.43 0.69,-0.71 1.2,-0.84 Z M 226.1,484.02 c 0.38,0.09 0.76,0.18 1.14,0.26 c -0.37,0.39 -0.78,0.73 -1.22,1.04 c 0.03,-0.43 0.06,-0.87 0.08,-1.3 Z"/></g>
<g><path fill="#545a74" fill-opacity="0.255" stroke="#545a74" stroke-width="0.5" stroke-opacity="0.255" d="M 202.01,381.1 c -0.15,0.56 -0.46,1.01 -0.94,1.36 c -3.95,2.41 -7.84,4.89 -11.68,7.44 c -0.34,-0.61 -0.84,-1.04 -1.49,-1.31 c 4.08,-2.29 8.12,-4.65 12.12,-7.08 c 0.61,-0.37 1.28,-0.51 1.99,-0.41 Z"/></g>
<g><path fill="#88b1d3" fill-opacity="0.298" d="M 274.31,28.28 c -0.39,0.31 -0.81,0.56 -1.27,0.75 c 0.14,-0.69 0.56,-0.94 1.27,-0.75 Z M 255.24,39.21 c -0.41,0.28 -0.84,0.52 -1.28,0.73 c 0.2,-0.61 0.63,-0.85 1.28,-0.73 Z M 229.26,54.25 c -0.4,0.27 -0.82,0.53 -1.25,0.76 c 0.15,-0.67 0.57,-0.92 1.25,-0.76 Z M 120.26,74.17 c 0.38,-0.02 0.75,-0.03 1.13,-0.05 c -0.42,0.43 -0.94,0.66 -1.55,0.69 c 0.14,-0.21 0.28,-0.43 0.42,-0.64 Z M 433.86,206.89 c 0.45,0.13 0.89,0.26 1.34,0.39 c -0.3,0.29 -0.62,0.55 -0.97,0.78 c -0.13,-0.39 -0.25,-0.78 -0.37,-1.17 Z M 423.98,360 c -0.18,0.66 -0.61,0.89 -1.28,0.7 c 0.41,-0.25 0.84,-0.49 1.28,-0.7 Z M 397.98,374.99 c -0.15,0.7 -0.58,0.94 -1.28,0.73 c 0.41,-0.27 0.83,-0.52 1.28,-0.73 Z M 311.9,438.9 c -0.09,0.65 -0.47,0.94 -1.14,0.86 c 0.36,-0.31 0.74,-0.6 1.14,-0.86 Z M 307.91,441.92 c -0.09,0.66 -0.47,0.94 -1.15,0.85 c 0.36,-0.32 0.74,-0.6 1.15,-0.85 Z M 295.66,451.02 c 0.23,0.69 0.7,1.13 1.41,1.31 c -1.74,0.88 -3.42,1.86 -5.04,2.95 c -0.61,0.41 -1.23,0.49 -1.87,0.26 c 0.35,-1.18 4.43,-3.48 5.5,-4.52 Z"/></g>
<g><path fill="#87b1d3" fill-opacity="0.482" stroke="#87b1d3" stroke-width="0.5" stroke-opacity="0.482" d="M 265.14,14.06 c -0.46,0.68 -1.11,1 -1.94,0.95 c -0.19,-1.1 1.24,-1.09 1.94,-0.95 Z M 253.14,21.17 c -0.6,0.57 -1.31,0.82 -2.13,0.74 c 0.5,-0.77 1.21,-1.02 2.13,-0.74 Z M 251.01,21.91 c -0.24,0.89 -0.83,1.28 -1.78,1.16 c 0.19,-0.91 0.79,-1.3 1.78,-1.16 Z M 239.09,29.04 c -0.37,0.73 -0.98,1.05 -1.81,0.93 c -0.33,-1.05 1.19,-1.04 1.81,-0.93 Z M 234.01,32.15 c -0.48,0.68 -1.14,0.96 -1.99,0.86 c 0.4,-0.84 1.07,-1.13 1.99,-0.86 Z M 232.02,33.01 c -0.36,0.85 -1.02,1.17 -1.97,0.96 c 0.44,-0.74 1.09,-1.06 1.97,-0.96 Z M 162.07,83.96 c 0.27,-0.77 0.78,-1.32 1.54,-1.65 c 1.5,-0.23 1.66,0.2 0.5,1.3 c -0.64,0.34 -1.32,0.45 -2.04,0.35 Z M 151.28,430.72 c 0.3,-0.48 0.69,-0.88 1.16,-1.21 c 0.67,0.74 -0.53,1.1 -1.16,1.21 Z"/></g>
<g><path fill="#88b1d3" fill-opacity="0.427" d="M 251.23,35.16 c -0.36,0.52 -0.87,0.77 -1.53,0.74 c 0.45,-0.36 0.96,-0.61 1.53,-0.74 Z M 250.33,42.07 c -0.41,0.33 -0.87,0.58 -1.37,0.74 c 0.27,-0.54 0.73,-0.79 1.37,-0.74 Z M 231.28,53.08 c -0.41,0.29 -0.86,0.53 -1.33,0.71 c 0.26,-0.55 0.7,-0.79 1.33,-0.71 Z M 224.25,57.05 c -0.37,0.3 -0.77,0.54 -1.21,0.72 c 0.22,-0.51 0.62,-0.75 1.21,-0.72 Z M 185.75,59.19 c 0.45,0.03 0.91,0.06 1.36,0.09 c -0.27,0.28 -0.57,0.52 -0.9,0.74 c -0.16,-0.28 -0.31,-0.56 -0.46,-0.83 Z M 205.31,68.11 c -0.42,0.35 -0.9,0.55 -1.45,0.58 c 0.28,-0.59 0.77,-0.79 1.45,-0.58 Z M 441.12,248.1 c -0.24,0.05 -0.49,0.09 -0.73,0.14 c -0.01,-0.41 -0.01,-0.82 -0.02,-1.23 c 1.09,-0.54 2.19,-1.06 3.3,-1.54 c 1.35,-0.18 1.46,0.16 0.33,1.04 c -0.9,0.65 -1.86,1.18 -2.88,1.59 Z M 439.83,265.91 c 0.5,0.01 1,0.02 1.5,0.02 c -0.31,0.45 -0.7,0.8 -1.17,1.06 c -0.11,-0.36 -0.22,-0.72 -0.33,-1.08 Z M 429,357.23 c -0.24,0.57 -0.68,0.77 -1.32,0.63 c 0.41,-0.28 0.84,-0.49 1.32,-0.63 Z M 387.28,400.11 c -0.39,0.23 -0.78,0.47 -1.15,0.74 c 0.14,-0.57 0.53,-0.82 1.15,-0.74 Z M 335.37,430.11 c -0.41,0.27 -0.84,0.48 -1.31,0.63 c 0.29,-0.48 0.72,-0.69 1.31,-0.63 Z M 309.33,445.13 c -0.43,0.25 -0.85,0.49 -1.29,0.71 c 0.2,-0.6 0.63,-0.83 1.29,-0.71 Z"/></g>
<g><path fill="#87b1d4" fill-opacity="0.498" stroke="#87b1d4" stroke-width="0.5" stroke-opacity="0.498" d="M 265.03,12.98 c 0.66,-0.03 1.3,0.06 1.92,0.25 c -0.49,0.53 -1.09,0.8 -1.81,0.83 c -0.04,-0.36 -0.07,-0.72 -0.11,-1.08 Z M 230.05,33.97 c 0.25,1.75 -1.89,1.89 -3.11,1.99 c 0.61,-1.32 1.64,-1.98 3.11,-1.99 Z M 189.03,77.09 c 0.04,1.14 -2.19,2.29 -3,1.55 c 0.59,-1.24 1.59,-1.76 3,-1.55 Z M 410.07,94.86 c 0.09,1.4 -1.7,2.4 -2.7,1.64 c 0.6,-1.03 1.5,-1.58 2.7,-1.64 Z M 319.02,449.93 c 0.23,-1.41 1.08,-2.06 2.54,-1.96 c 1.49,0.91 -2.04,1.79 -2.54,1.96 Z"/></g>
<g><path fill="#789ab8" d="M 333.08,415.04 c -0.21,0.67 -0.65,1.1 -1.34,1.3 c -3.16,1.51 -6.4,2.82 -9.72,3.93 c 0.01,-0.47 0.18,-0.88 0.52,-1.22 c 3.38,-1.56 6.51,-5.05 10.54,-4.01 Z"/></g>
<g><path fill="#87b1d4" fill-opacity="0.341" stroke="#87b1d4" stroke-width="0.5" stroke-opacity="0.341" d="M 265.78,24.95 c 0.02,0.7 -0.32,1.05 -1.05,1.07 c 0.31,-0.39 0.66,-0.75 1.05,-1.07 Z M 194.03,73.77 c -1.16,1.87 -2.83,2.98 -5,3.32 c 1.21,-1.78 2.88,-2.88 5,-3.32 Z M 162.07,83.96 c -0.68,1.32 -1.77,2.04 -3.27,2.16 c 0.61,-1.44 1.7,-2.16 3.27,-2.16 Z M 347.3,423.1 c -0.36,0.24 -0.72,0.49 -1.08,0.74 c 0.07,-0.61 0.43,-0.86 1.08,-0.74 Z M 321.35,438.12 c -0.42,0.25 -0.87,0.45 -1.33,0.62 c 0.29,-0.47 0.74,-0.68 1.33,-0.62 Z M 319.02,449.93 c -0.27,0.97 -0.94,1.35 -1.99,1.14 c 0.36,-0.88 1.02,-1.26 1.99,-1.14 Z"/></g>
<g><path fill="#87b1d2" fill-opacity="0.4" d="M 268.77,23 c -0.04,0.71 -0.42,1.01 -1.16,0.9 c 0.38,-0.31 0.77,-0.61 1.16,-0.9 Z M 259.69,29.05 c 0.11,0.69 -0.2,1 -0.92,0.94 c 0.3,-0.31 0.61,-0.62 0.92,-0.94 Z M 257.3,31.29 c -0.42,0.44 -0.93,0.69 -1.54,0.74 c 0.4,-0.47 0.91,-0.72 1.54,-0.74 Z M 269.32,31.04 c -0.35,0.4 -0.79,0.64 -1.32,0.7 c 0.23,-0.56 0.68,-0.8 1.32,-0.7 Z M 254.27,33.22 c -0.44,0.48 -0.99,0.71 -1.66,0.71 c 0.52,-0.33 1.07,-0.56 1.66,-0.71 Z M 217.32,61.06 c -0.36,0.3 -0.75,0.56 -1.17,0.78 c 0.08,-0.64 0.48,-0.9 1.17,-0.78 Z M 107.05,86.81 c -0.29,0.81 -1.86,2.92 -2.73,1.76 c 0.59,-1.06 1.5,-1.65 2.73,-1.76 Z M 433.67,305.89 c 0.54,0.04 1.08,0.09 1.62,0.13 c -0.31,0.35 -0.67,0.65 -1.07,0.9 c -0.18,-0.35 -0.36,-0.69 -0.55,-1.03 Z M 409.9,368.17 c -0.13,0.6 -0.52,0.86 -1.17,0.8 c 0.32,-0.38 0.71,-0.64 1.17,-0.8 Z M 403.09,372.29 c -0.34,0.42 -0.78,0.61 -1.34,0.59 c 0.39,-0.33 0.84,-0.53 1.34,-0.59 Z M 406.26,389.06 c -0.35,0.39 -0.78,0.64 -1.29,0.74 c 0.24,-0.54 0.67,-0.79 1.29,-0.74 Z M 380.23,404 c -0.32,0.37 -0.69,0.65 -1.13,0.86 c 0.13,-0.59 0.5,-0.87 1.13,-0.86 Z"/></g>
<g><path fill="#88b0d3" fill-opacity="0.361" d="M 281.32,24.13 c -0.43,0.39 -0.95,0.6 -1.54,0.62 c 0.4,-0.46 0.92,-0.67 1.54,-0.62 Z M 262.67,26.98 c 0.01,0.69 -0.34,1.02 -1.05,0.99 c 0.35,-0.33 0.7,-0.66 1.05,-0.99 Z M 262.35,35.02 c -0.44,0.37 -0.94,0.64 -1.49,0.82 c 0.31,-0.57 0.81,-0.84 1.49,-0.82 Z M 243.28,46.12 c -0.34,0.32 -0.72,0.56 -1.16,0.71 c 0.14,-0.58 0.52,-0.82 1.16,-0.71 Z M 299.08,52.06 c 0.41,0 0.81,-0.01 1.21,-0.02 c -0.32,0.43 -0.74,0.66 -1.27,0.7 c 0.02,-0.23 0.04,-0.45 0.06,-0.68 Z M 210.29,64.98 c -0.31,0.31 -0.67,0.56 -1.06,0.76 c 0.07,-0.59 0.42,-0.84 1.06,-0.76 Z M 436.03,353.17 c -0.2,0.6 -0.63,0.88 -1.31,0.83 c 0.39,-0.35 0.83,-0.63 1.31,-0.83 Z M 416.72,364.08 c 0.02,0.64 -0.31,0.93 -1,0.88 c 0.34,-0.29 0.67,-0.59 1,-0.88 Z M 425.29,378.02 c -0.34,0.37 -0.76,0.62 -1.24,0.74 c 0.22,-0.53 0.64,-0.77 1.24,-0.74 Z M 399.31,393.03 c -0.39,0.31 -0.82,0.59 -1.27,0.82 c 0.17,-0.62 0.6,-0.89 1.27,-0.82 Z M 373.25,408.1 c -0.31,0.39 -0.71,0.58 -1.21,0.56 c 0.23,-0.5 0.63,-0.69 1.21,-0.56 Z M 264.83,463.21 c 0.46,-1.29 1.36,-2.04 2.69,-2.26 c 1.07,1.19 -2.06,1.81 -2.69,2.26 Z"/></g>
<g><path fill="#7496b6" fill-opacity="0.157" stroke="#7496b6" stroke-width="0.5" stroke-opacity="0.157" d="M 201.71,68.32 c 0.11,0.77 0.58,1.13 1.39,1.08 c -2.4,1.29 -4.76,2.65 -7.08,4.08 c -0.63,0.35 -1.29,0.45 -1.99,0.29 c 1.08,-1.7 5.74,-4.42 7.68,-5.45 Z"/></g>
<g><path fill="#575d7a" fill-opacity="0.435" stroke="#575d7a" stroke-width="0.5" stroke-opacity="0.435" d="M 301.01,342.05 c -0.37,0.93 -2.08,2.79 -2.99,1.59 c 0.71,-1 1.71,-1.53 2.99,-1.59 Z M 281.82,398.18 c 0.43,-1.33 1.35,-2.05 2.76,-2.16 c 1.4,1.12 -2.16,1.71 -2.76,2.16 Z M 357.43,410.82 c 0.87,0.68 0.94,2.82 -0.09,3.36 c -0.18,-1.12 -0.15,-2.24 0.09,-3.36 Z M 347.88,420.15 c -0.12,0.64 -0.53,0.89 -1.22,0.73 c 0.38,-0.28 0.79,-0.53 1.22,-0.73 Z M 321.91,435.22 c -0.17,0.53 -0.55,0.77 -1.15,0.72 c 0.37,-0.25 0.76,-0.49 1.15,-0.72 Z"/></g>
<g><path fill="#575d7a" fill-opacity="0.396" stroke="#575d7a" stroke-width="0.5" stroke-opacity="0.396" d="M 259.12,183.82 c -0.37,0.86 -2.11,3.22 -3.01,1.85 c 0.73,-1.02 1.73,-1.63 3.01,-1.85 Z M 292.09,211.87 c -0.4,0.8 -0.99,1.4 -1.77,1.83 c -1.55,0.23 -1.69,-0.16 -0.41,-1.18 c 0.7,-0.32 1.42,-0.54 2.18,-0.65 Z M 270.03,315.01 c -0.61,1.24 -1.61,1.9 -2.99,1.99 c 0.51,-1.33 1.51,-2 2.99,-1.99 Z M 328.85,431.16 c -0.06,0.64 -0.44,0.92 -1.13,0.84 c 0.31,-0.36 0.69,-0.64 1.13,-0.84 Z"/></g>
<g><path fill="#575d7a" fill-opacity="0.369" stroke="#575d7a" stroke-width="0.5" stroke-opacity="0.369" d="M 249.86,247.19 c 0.12,-0.79 1.35,-1.86 2.01,-0.93 c -0.51,0.64 -1.17,0.95 -2.01,0.93 Z M 298.14,328.73 c -0.09,2.05 -2.49,1.95 -3.74,3.16 c -0.44,0.15 -0.89,0.2 -1.35,0.16 c 0.29,-1.42 3.76,-2.98 5.09,-3.32 Z M 271.89,329.88 c 0.22,0.94 -1.24,1.89 -1.84,0.85 c 0.43,-0.67 1.04,-0.95 1.84,-0.85 Z M 342.78,423.08 c -0.08,0.64 -0.46,0.93 -1.12,0.87 c 0.34,-0.33 0.71,-0.63 1.12,-0.87 Z"/></g>
<g><path fill="#575d79" fill-opacity="0.412" stroke="#575d79" stroke-width="0.5" stroke-opacity="0.412" d="M 215.31,269.05 c -0.29,0.56 -0.74,0.94 -1.33,1.16 c 0.1,-0.75 0.55,-1.13 1.33,-1.16 Z M 200.85,321.25 c 0.4,-1.58 4.74,-4.4 6.09,-3.76 c -1.41,1.53 -3.92,3.51 -6.09,3.76 Z M 299.85,406.24 c 0.07,-0.83 1.35,-1.93 2.02,-0.98 c -0.52,0.63 -1.19,0.96 -2.02,0.98 Z"/></g>
<g><path fill="#88b2d3" fill-opacity="0.467" stroke="#88b2d3" stroke-width="0.5" stroke-opacity="0.467" d="M 260.07,17.35 c -0.67,0.43 -1.4,0.62 -2.19,0.57 c 0.58,-0.74 1.3,-0.93 2.19,-0.57 Z M 226.94,35.96 c -0.4,0.79 -1.06,1.12 -1.96,0.99 c 0.41,-0.79 1.06,-1.12 1.96,-0.99 Z M 451.83,292.09 c 0.67,-1 1.56,-1.68 2.67,-2.06 c 0.77,1.37 -1.9,1.44 -2.67,2.06 Z M 215.77,458.02 c 0.78,-0.55 1.65,-0.85 2.6,-0.9 c 0.13,1.48 -2.41,2.95 -2.6,0.9 Z"/></g>
<g><path fill="#87b1d3" fill-opacity="0.992" stroke="#87b1d3" stroke-width="0.5" stroke-opacity="0.992" d="M 265.03,12.98 c 0.04,0.36 0.07,0.72 0.11,1.08 c -0.7,-0.14 -2.13,-0.15 -1.94,0.95 c -0.61,1.36 -1.65,2.14 -3.13,2.34 c -0.89,-0.36 -1.61,-0.17 -2.19,0.57 c -0.94,-0.13 -1.51,0.25 -1.71,1.13 c -0.63,1.25 -1.64,1.95 -3.03,2.12 c -0.92,-0.28 -1.63,-0.03 -2.13,0.74 c -0.99,-0.14 -1.59,0.25 -1.78,1.16 c -0.99,1.73 -3.28,2.64 -5.13,3.11 c -1.86,-0.59 -3.07,1.26 -4.63,1.9 c -0.26,0.27 -0.38,0.59 -0.38,0.96 c -0.62,-0.11 -2.14,-0.12 -1.81,0.93 c -0.65,1.4 -1.74,2.12 -3.27,2.18 c -0.92,-0.27 -1.59,0.02 -1.99,0.86 c -0.88,-0.1 -1.53,0.22 -1.97,0.96 c -1.47,0.01 -2.5,0.67 -3.11,1.99 c -0.9,-0.13 -1.55,0.2 -1.96,0.99 c -0.34,0.02 -0.67,0.05 -1.01,0.07 c -0.55,0.12 -0.99,0.42 -1.29,0.9 c -0.26,0.03 -0.51,0.05 -0.76,0.08 c 2.31,-10.53 6.25,-22.25 18.05,-25.07 c -0.12,1.08 -5.32,6.77 -6.39,8.03 c -0.26,0.33 -0.24,0.62 0.06,0.89 c 5.22,-2.95 10.4,-5.99 15.55,-9.1 c 2.75,-0.61 12.36,0.24 15.84,0.23 Z M 131.84,120.85 c 0.06,0.67 0.41,1.04 1.06,1.12 c -0.17,0.6 -0.48,1.11 -0.93,1.53 c -21.97,20.32 -36.96,43.24 -48.76,70.54 c -2.65,-0.65 -25.35,13.7 -29.24,16.03 c 3.91,-17.79 10.11,-34.73 18.6,-50.82 c 0.69,0.59 1.41,0.64 2.15,0.15 c 18.01,-11.75 35.98,-23.54 53.92,-35.38 c 0.49,-0.56 0.53,-1.12 0.12,-1.69 c 0.95,-0.67 1.97,-1.16 3.08,-1.48 Z"/></g>
<g><path fill="#575d7a" fill-opacity="0.337" stroke="#575d7a" stroke-width="0.5" stroke-opacity="0.337" d="M 190.04,356.94 c -0.63,1.31 -1.65,2.08 -3.08,2.31 c 0.52,-1.42 1.55,-2.19 3.08,-2.31 Z M 297.04,360.76 c -0.27,0.92 -1.95,3.2 -2.88,1.89 c 0.68,-1.03 1.64,-1.66 2.88,-1.89 Z M 314.08,438.15 c 0.88,-0.1 1.77,-0.13 2.66,-0.1 c 0.26,1.5 -2.57,1.35 -2.66,0.1 Z"/></g>
<g><path fill="#87b3d2" fill-opacity="0.341" stroke="#87b3d2" stroke-width="0.5" stroke-opacity="0.341" d="M 444.8,314.08 c 0.53,-0.7 2.08,-2.84 3.01,-1.73 c -0.66,1.11 -1.66,1.69 -3.01,1.73 Z M 433,383.96 c 0.09,0.38 0.19,0.76 0.28,1.14 c -0.63,0.67 -1.41,0.99 -2.35,0.95 c 0.46,-0.93 1.15,-1.63 2.07,-2.09 Z M 80.91,411.18 c 0.39,-1.28 1.24,-2.01 2.56,-2.19 c 0.93,1.18 -1.88,1.89 -2.56,2.19 Z"/></g>
<g><path fill="#87b1d3" fill-opacity="0.843" d="M 241.68,78.95 c 2.56,-0.33 5.11,-0.3 7.66,0.06 c -0.48,0.4 -1,0.74 -1.56,1 c -0.32,0.17 -0.65,0.34 -0.97,0.51 c -2.11,0.8 -3.81,0.28 -5.13,-1.57 Z"/></g>
<g><path fill="#66859c" fill-opacity="0.224" stroke="#66859c" stroke-width="0.5" stroke-opacity="0.224" d="M 441.65,105.08 c 0.05,0.96 0.1,1.91 0.15,2.87 c -1.31,0.38 -2.49,0.99 -3.57,1.83 c -0.45,0.23 -0.85,0.2 -1.21,-0.09 c 1.37,-1.7 2.92,-3.24 4.63,-4.61 Z"/></g>
<g><path fill="#79a0be" fill-opacity="0.263" stroke="#79a0be" stroke-width="0.5" stroke-opacity="0.263" d="M 444.75,337.17 c 0.42,0.09 0.83,0.18 1.25,0.27 c 0.03,0.11 0.06,0.22 0.09,0.34 c -1.83,0.31 -5.05,3.63 -6.62,3.17 c -0.08,-0.12 -0.17,-0.24 -0.25,-0.36 c 1.23,-1.03 2.46,-2.08 3.7,-3.15 c 0.56,-0.41 1.18,-0.5 1.83,-0.27 Z"/></g>
<g><path fill="#87b1d3" fill-opacity="0.384" d="M 223.97,37.02 c 0.34,-0.02 0.67,-0.05 1.01,-0.07 c -0.34,0.92 -0.67,0.95 -1.01,0.07 Z M 105.07,69.82 c 0.46,-0.01 0.92,-0.02 1.37,-0.03 c -0.45,0.49 -0.99,0.83 -1.63,1 c 0.09,-0.32 0.17,-0.64 0.26,-0.97 Z M 33.15,240.83 c -0.09,-0.38 -0.19,-0.76 -0.28,-1.14 c 0.73,-0.52 2.01,-1.97 2.93,-1.34 c -0.58,1.16 -1.46,1.99 -2.65,2.48 Z M 354.36,418.99 c -0.4,0.4 -0.88,0.63 -1.44,0.7 c 0.32,-0.53 0.8,-0.76 1.44,-0.7 Z M 328.28,433.99 c -0.34,0.34 -0.73,0.59 -1.18,0.74 c 0.14,-0.58 0.53,-0.83 1.18,-0.74 Z M 302.31,449.11 c -0.39,0.3 -0.82,0.54 -1.27,0.73 c 0.2,-0.58 0.62,-0.82 1.27,-0.73 Z"/></g>
<g><path fill="#86b1d3" fill-opacity="0.522" d="M 435.2,207.28 c -0.11,-0.5 -0.22,-0.99 -0.33,-1.48 c 0.58,-0.97 1.42,-1.47 2.54,-1.49 c -0.72,0.93 -1.46,1.92 -2.21,2.97 Z M 199.68,435.13 c 0.28,0.56 0.71,0.95 1.3,1.18 c -0.82,0.44 -1.64,0.87 -2.47,1.27 c -1,-0.62 0.75,-1.95 1.17,-2.45 Z"/></g>
<g><path fill="#7394af" fill-opacity="0.71" d="M 271.76,79.98 c 1.49,0.3 4.49,-0.12 5.58,1.1 c -0.14,0.32 -0.39,0.54 -0.75,0.65 c -2.12,0.76 -3.73,0.17 -4.83,-1.75 Z"/></g>
<g><path fill="#50677a" fill-opacity="0.114" stroke="#50677a" stroke-width="0.5" stroke-opacity="0.114" d="M 21.75,276.26 c 0.1,1.36 -3.12,2.9 -4.05,3.64 c -0.49,-0.42 -0.71,-0.96 -0.65,-1.62 c 1.05,-0.9 3.25,-2.76 4.7,-2.02 Z"/></g>
<g><path fill="#87b1d4" fill-opacity="0.302" d="M 419.78,170.05 c 0.42,0.04 0.83,0.09 1.25,0.13 c -0.18,0.37 -0.41,0.7 -0.7,1 c -0.18,-0.37 -0.37,-0.75 -0.55,-1.13 Z M 386.7,421.98 c 0.12,0.29 0.23,0.57 0.34,0.86 c -0.99,0.75 -1.99,1.47 -3,2.18 c -0.02,-0.41 -0.04,-0.83 -0.06,-1.25 c 0.69,-0.93 1.6,-1.53 2.72,-1.79 Z M 340.3,427.28 c -0.39,0.31 -0.81,0.58 -1.27,0.78 c 0.13,-0.7 0.55,-0.96 1.27,-0.78 Z M 314.32,442.25 c -0.39,0.33 -0.81,0.58 -1.28,0.77 c 0.17,-0.66 0.6,-0.92 1.28,-0.77 Z M 303.91,444.92 c -0.09,0.67 -0.48,0.95 -1.15,0.85 c 0.36,-0.32 0.74,-0.6 1.15,-0.85 Z"/></g>
<g><path fill="#7da2c1" fill-opacity="0.494" stroke="#7da2c1" stroke-width="0.5" stroke-opacity="0.494" d="M 457.73,210.92 c 0.21,0.35 0.41,0.7 0.62,1.06 c -0.54,-0.03 -1.07,-0.05 -1.61,-0.07 c 0.34,-0.33 0.67,-0.66 0.99,-0.99 Z M 456.74,211.91 c 0.27,0.7 0.76,1.18 1.47,1.43 c -1.16,0.67 -2.38,1.12 -3.67,1.35 c 0.62,-0.96 1.36,-1.89 2.2,-2.78 Z M 458.35,211.98 c 0.22,0.25 0.33,0.54 0.33,0.88 c -0.16,0.16 -0.31,0.32 -0.47,0.48 c 0.04,-0.46 0.09,-0.91 0.14,-1.36 Z"/></g>
<g><path fill="#7aa0bd" fill-opacity="0.451" stroke="#7aa0bd" stroke-width="0.5" stroke-opacity="0.451" d="M 431.69,148.07 c 0.87,0.16 1.22,0.66 1.07,1.53 c -0.17,0.18 -0.35,0.36 -0.52,0.55 c -0.15,-0.79 -0.61,-1.28 -1.39,-1.47 c 0.28,-0.21 0.56,-0.41 0.84,-0.61 Z M 430.85,148.68 c 0.14,0.8 0.6,1.28 1.39,1.47 c -1.03,0.34 -2.01,0.75 -2.94,1.22 c 0.27,-1.02 0.79,-1.92 1.55,-2.69 Z"/></g>
<g><path fill="#91b3cf" fill-opacity="0.235" stroke="#91b3cf" stroke-width="0.5" stroke-opacity="0.235" d="M 135.91,118.86 c -0.24,1.09 -0.88,1.81 -1.91,2.16 c -0.5,0.16 -0.87,0.47 -1.1,0.95 c -0.65,-0.08 -1,-0.45 -1.06,-1.12 c 0.53,-0.77 3.35,-3.54 4.07,-1.99 Z"/></g>
<g><path fill="#7094af" fill-opacity="0.184" stroke="#7094af" stroke-width="0.5" stroke-opacity="0.184" d="M 400.91,128.01 c -0.44,1.28 -1.31,2.15 -2.6,2.62 c -0.3,-0.66 -0.82,-0.87 -1.54,-0.64 c 1.1,-1.26 2.48,-1.92 4.14,-1.98 Z"/></g>
<g><path fill="#7da3c2" fill-opacity="0.843" d="M 309.2,466.95 c -0.37,0.4 -0.81,0.73 -1.3,0.99 c -0.44,0.3 -0.83,0.65 -1.17,1.07 c -0.66,0.35 -1.3,0.74 -1.91,1.17 c 0.39,-3.01 1.47,-3.35 4.38,-3.23 Z"/></g>
<g><path fill="#88b2d5" fill-opacity="0.255" stroke="#88b2d5" stroke-width="0.5" stroke-opacity="0.255" d="M 267.32,32.27 c -0.39,0.31 -0.81,0.57 -1.26,0.78 c 0.09,-0.73 0.51,-0.99 1.26,-0.78 Z M 317.03,451.07 c -0.35,0.95 -2.2,2.68 -3.05,1.56 c 0.69,-1.11 1.71,-1.63 3.05,-1.56 Z M 307.9,467.94 c -0.05,0.71 -0.44,1.07 -1.17,1.07 c 0.34,-0.42 0.73,-0.77 1.17,-1.07 Z"/></g>
<g><path fill="#5d739a" fill-opacity="0.11" stroke="#5d739a" stroke-width="0.5" stroke-opacity="0.11" d="M 100.94,358.19 c 0.82,-0.24 0.76,1.08 0.8,1.53 c -0.57,0.26 -1.13,0.55 -1.67,0.86 c -1.47,0.05 -1.72,-0.5 -0.76,-1.65 c 0.51,-0.32 1.06,-0.56 1.63,-0.74 Z"/></g>
<g><path fill="#59617e" fill-opacity="0.863" d="M 275.21,436.14 c 1.3,-0.31 2.59,-0.3 3.89,0.02 c 0.07,1.05 -3.05,1.56 -3.89,1.98 c -0.02,-0.66 -0.02,-1.33 0,-2 Z"/></g>
<g><path fill="#85b2d5" fill-opacity="0.22" stroke="#85b2d5" stroke-width="0.5" stroke-opacity="0.22" d="M 104.81,70.79 c 0.08,0.5 0.17,1 0.26,1.51 c -0.57,0.61 -2.16,2.42 -2.92,1.38 c 0.71,-1.11 1.59,-2.07 2.66,-2.89 Z"/></g>
<g><path fill="#516172" fill-opacity="0.486" d="M 228.79,428.11 c -0.16,1.87 3.67,0.04 3.51,2.1 c -1.19,-0.32 -3.93,0.07 -4.33,-1.47 c 0.13,-0.4 0.4,-0.61 0.82,-0.63 Z"/></g>
<g><path fill="#81a8c9" fill-opacity="0.502" stroke="#81a8c9" stroke-width="0.5" stroke-opacity="0.502" d="M 454.07,197.96 c -0.08,0.59 0.15,0.91 0.7,0.98 c -0.04,0.33 -0.08,0.67 -0.12,1 c -0.78,-0.01 -1.51,0.21 -2.18,0.67 c -0.92,-0.74 1.02,-2.21 1.6,-2.65 Z"/></g>
<g><path fill="#87b1d3" fill-opacity="0.643" d="M 387.04,422.84 c -0.11,-0.29 -0.22,-0.57 -0.34,-0.86 c 0.69,-0.93 1.57,-1.55 2.66,-1.83 c 0.75,1.13 -1.38,2.36 -2.32,2.69 Z"/></g>
<g><path fill="#565d79" fill-opacity="0.243" stroke="#565d79" stroke-width="0.5" stroke-opacity="0.243" d="M 212.96,389.07 c -0.57,1.39 -1.61,2.02 -3.1,1.89 c 0.66,-1.25 1.7,-1.88 3.1,-1.89 Z M 330.94,429.95 c -0.15,0.69 -0.58,0.95 -1.28,0.77 c 0.4,-0.3 0.82,-0.56 1.28,-0.77 Z"/></g>
<g><path fill="#546777" fill-opacity="0.231" stroke="#546777" stroke-width="0.5" stroke-opacity="0.231" d="M 440.83,407.29 c -0.05,0.88 -0.11,1.69 -0.17,2.43 c -0.57,-0.36 -1.14,-0.74 -1.7,-1.13 c 0.47,-0.67 1.1,-1.1 1.87,-1.3 Z"/></g>
<g><path fill="#87b0d3" fill-opacity="0.318" d="M 277.97,16.99 c -0.15,0.62 -0.55,0.88 -1.2,0.78 c 0.39,-0.28 0.79,-0.54 1.2,-0.78 Z M 274.96,18.97 c -0.1,0.69 -0.51,0.95 -1.21,0.78 c 0.38,-0.3 0.78,-0.56 1.21,-0.78 Z M 392.31,397.27 c -0.39,0.32 -0.81,0.56 -1.28,0.74 c 0.15,-0.7 0.57,-0.95 1.28,-0.74 Z M 366.31,412.28 c -0.39,0.31 -0.81,0.56 -1.27,0.74 c 0.15,-0.68 0.58,-0.93 1.27,-0.74 Z"/></g>
<g><path fill="#7ca0be" fill-opacity="0.506" stroke="#7ca0be" stroke-width="0.5" stroke-opacity="0.506" d="M 431.88,130.93 c 0.16,0.9 -0.14,1.6 -0.89,2.08 c -1.25,-0.69 0.16,-1.73 0.89,-2.08 Z"/></g>
<g><path fill="#89afd5" fill-opacity="0.212" d="M 208.35,66.27 c -0.39,0.32 -0.82,0.57 -1.29,0.75 c 0.08,-0.77 0.51,-1.02 1.29,-0.75 Z M 247.78,80.01 c -0.01,0.63 -0.34,0.8 -0.97,0.51 c 0.32,-0.17 0.65,-0.34 0.97,-0.51 Z M 397.34,394.3 c -0.4,0.3 -0.82,0.55 -1.26,0.77 c 0.09,-0.75 0.51,-1 1.26,-0.77 Z"/></g>
<g><path fill="#86b0d3" fill-opacity="0.459" d="M 257.88,17.92 c -0.19,0.88 -0.76,1.26 -1.71,1.13 c 0.2,-0.88 0.77,-1.26 1.71,-1.13 Z M 316.33,441.08 c -0.42,0.23 -0.85,0.46 -1.29,0.68 c 0.22,-0.56 0.65,-0.79 1.29,-0.68 Z"/></g>
<g><path fill="#87b1d5" fill-opacity="0.278" stroke="#87b1d5" stroke-width="0.5" stroke-opacity="0.278" d="M 427.79,388.11 c 0.01,-0.5 0.26,-0.82 0.74,-0.96 c 1.04,0.5 -0.43,0.89 -0.74,0.96 Z M 385.33,401.26 c -0.39,0.32 -0.82,0.58 -1.28,0.77 c 0.15,-0.69 0.58,-0.95 1.28,-0.77 Z M 292.26,468.08 c -0.2,0.27 -0.39,0.54 -0.59,0.81 c -0.11,0.01 -0.23,0.02 -0.34,0.03 c -0.07,-0.64 0.24,-0.92 0.93,-0.84 Z"/></g>
<g><path fill="#83aacb" fill-opacity="0.624" d="M 139.17,126.99 c 0.19,0.04 0.37,0.08 0.55,0.12 c -0.09,0.81 -0.56,1.25 -1.4,1.32 c -0.16,-0.76 0.12,-1.24 0.85,-1.44 Z M 138.32,128.43 c -0.53,0.23 -1.09,0.36 -1.67,0.39 c 0.48,-0.44 1.03,-0.57 1.67,-0.39 Z"/></g>
<g><path fill="#86b1d4" fill-opacity="0.231" d="M 207.92,63.93 c -0.09,0.7 -0.49,0.97 -1.22,0.8 c 0.39,-0.3 0.79,-0.57 1.22,-0.8 Z M 411.94,366.95 c -0.11,0.74 -0.53,1 -1.28,0.76 c 0.4,-0.3 0.82,-0.56 1.28,-0.76 Z M 326.35,435.28 c -0.4,0.3 -0.83,0.56 -1.28,0.77 c 0.13,-0.72 0.55,-0.98 1.28,-0.77 Z"/></g>
<g><path fill="#7193ac" fill-opacity="0.655" d="M 119.69,437.96 c 0.01,0.3 0.03,0.6 0.04,0.89 c 0.27,1.05 -1.13,1.3 -1.85,1.41 c 0.22,-1.07 0.82,-1.84 1.81,-2.3 Z"/></g>
<g><path fill="#b3cde5" fill-opacity="0.067" stroke="#b3cde5" stroke-width="0.5" stroke-opacity="0.067" d="M 437.16,219.28 c 0.75,-0.23 1.26,-0.86 1.8,0.02 c -0.31,0.95 -0.93,1.58 -1.88,1.88 c -0.04,-0.64 -0.02,-1.27 0.08,-1.9 Z"/></g>
<g><path fill="#6a879f" fill-opacity="0.78" d="M 476.33,301.11 c -0.63,0.79 -1.42,1.39 -2.35,1.81 c 0.08,-0.3 0.16,-0.6 0.24,-0.89 c -0.03,-1.01 1.45,-0.96 2.11,-0.92 Z"/></g>
<g><path fill="#597082" fill-opacity="0.682" d="M 291.92,84.14 c 1.21,-0.31 2.26,-0.05 3.14,0.79 c -0.6,0.01 -3.47,0.26 -3.14,-0.79 Z"/></g>
<g><path fill="#59768e" fill-opacity="0.169" d="M 352.42,81.27 c 0.19,0.68 0.62,1.12 1.3,1.32 c -0.76,1.38 -2.89,-0.06 -1.3,-1.32 Z"/></g>
<g><path fill="#86b0d5" fill-opacity="0.216" d="M 213.89,59.9 c -0.08,0.72 -0.48,1 -1.2,0.82 c 0.39,-0.3 0.79,-0.57 1.2,-0.82 Z M 423.34,379.29 c -0.39,0.3 -0.82,0.56 -1.27,0.78 c 0.11,-0.72 0.54,-0.98 1.27,-0.78 Z M 378.34,405.29 c -0.4,0.3 -0.83,0.56 -1.28,0.77 c 0.15,-0.68 0.58,-0.93 1.28,-0.77 Z"/></g>
<g><path fill="#89b1d3" fill-opacity="0.271" d="M 107.92,69.9 c 0.34,0.1 0.68,0.2 1.02,0.3 c -0.15,0.42 -0.45,0.72 -0.87,0.89 c -0.05,-0.4 -0.1,-0.8 -0.15,-1.19 Z M 333.34,431.26 c -0.4,0.31 -0.83,0.57 -1.29,0.77 c 0.16,-0.67 0.59,-0.93 1.29,-0.77 Z"/></g>
<g><path fill="#87b2d2" fill-opacity="0.243" d="M 430.95,355.96 c -0.12,0.72 -0.54,0.98 -1.28,0.76 c 0.39,-0.31 0.82,-0.56 1.28,-0.76 Z M 404.33,390.28 c -0.4,0.3 -0.82,0.56 -1.27,0.77 c 0.12,-0.72 0.55,-0.97 1.27,-0.77 Z"/></g>
<g><path fill="#566e7f" fill-opacity="0.176" stroke="#566e7f" stroke-width="0.5" stroke-opacity="0.176" d="M 283.6,20.88 c 0.21,0.59 0.29,1.19 0.24,1.81 c -0.21,0.12 -0.42,0.23 -0.63,0.34 c 0.08,-0.72 0.21,-1.44 0.39,-2.15 Z"/></g>
<g><path fill="#86b3d2" fill-opacity="0.224" d="M 210.9,61.9 c -0.11,0.69 -0.51,0.96 -1.2,0.82 c 0.38,-0.3 0.78,-0.57 1.2,-0.82 Z M 438.03,351.91 c -0.21,0.66 -0.67,0.93 -1.37,0.8 c 0.42,-0.33 0.88,-0.6 1.37,-0.8 Z"/></g>
<g><path fill="#86b2d3" fill-opacity="0.451" d="M 467.33,218.13 c 0.35,-0.03 0.7,-0.05 1.06,-0.07 c -0.41,0.58 -0.97,0.87 -1.68,0.87 c 0.2,-0.27 0.41,-0.54 0.62,-0.8 Z M 395.89,376.23 c -0.12,0.54 -0.48,0.74 -1.08,0.62 c 0.31,-0.29 0.67,-0.5 1.08,-0.62 Z"/></g>
<g><path fill="#566c7d" fill-opacity="0.173" stroke="#566c7d" stroke-width="0.5" stroke-opacity="0.173" d="M 439.97,351.04 c -0.03,0.2 0.11,1.96 -0.33,1.66 c -0.1,-0.33 -0.2,-0.65 -0.29,-0.97 c -0.03,-0.42 0.17,-0.65 0.62,-0.69 Z"/></g>
<g><path fill="#86b0d1" fill-opacity="0.239" d="M 204.93,65.97 c -0.06,0.77 -0.47,1.02 -1.23,0.76 c 0.38,-0.31 0.78,-0.56 1.23,-0.76 Z M 352.33,420.28 c -0.39,0.31 -0.81,0.57 -1.27,0.77 c 0.15,-0.68 0.57,-0.94 1.27,-0.77 Z"/></g>
<g><path fill="#86b0d5" fill-opacity="0.329" d="M 418.3,382.27 c -0.39,0.32 -0.81,0.57 -1.27,0.75 c 0.15,-0.66 0.57,-0.91 1.27,-0.75 Z M 438.28,414.87 c -0.13,0.31 -0.26,0.63 -0.39,0.94 c -0.24,0.05 -0.47,0.1 -0.7,0.15 c 0.02,-0.69 0.38,-1.06 1.09,-1.09 Z"/></g>
<g><path fill="#88b1d6" fill-opacity="0.165" stroke="#88b1d6" stroke-width="0.5" stroke-opacity="0.165" d="M 107.04,59.96 c -0.69,0 -1.38,0.01 -2.07,0.02 c 0.19,-1.38 2.02,-1.13 2.07,-0.02 Z"/></g>
<g><path fill="#85b1d4" fill-opacity="0.255" d="M 241.33,47.27 c -0.39,0.31 -0.81,0.57 -1.26,0.79 c 0.12,-0.71 0.54,-0.98 1.26,-0.79 Z M 404.94,370.95 c -0.12,0.72 -0.54,0.98 -1.27,0.78 c 0.39,-0.31 0.82,-0.57 1.27,-0.78 Z"/></g>
<g><path fill="#586c7c" fill-opacity="0.22" stroke="#586c7c" stroke-width="0.5" stroke-opacity="0.22" d="M 160.77,438.95 c -0.04,0.7 0,1.39 0.13,2.07 c -0.48,-0.24 -0.7,-0.62 -0.66,-1.16 c -0.04,-0.43 0.14,-0.73 0.53,-0.91 Z"/></g>
<g><path fill="#87afd2" fill-opacity="0.2" d="M 222.89,53.9 c -0.06,0.73 -0.46,1 -1.19,0.81 c 0.38,-0.29 0.77,-0.57 1.19,-0.81 Z M 319.35,439.3 c -0.4,0.3 -0.82,0.56 -1.27,0.78 c 0.12,-0.69 0.54,-0.95 1.27,-0.78 Z"/></g>
<g><path fill="#89b1d3" fill-opacity="0.204" d="M 219.89,55.89 c -0.09,0.69 -0.49,0.97 -1.19,0.83 c 0.38,-0.3 0.78,-0.58 1.19,-0.83 Z M 345.37,424.32 c -0.42,0.28 -0.84,0.54 -1.29,0.76 c 0.14,-0.69 0.57,-0.95 1.29,-0.76 Z"/></g>
<g><path fill="#87b2d4" fill-opacity="0.208" d="M 216.89,57.9 c -0.08,0.7 -0.48,0.97 -1.19,0.82 c 0.38,-0.3 0.78,-0.57 1.19,-0.82 Z M 371.35,409.29 c -0.4,0.3 -0.82,0.56 -1.27,0.78 c 0.1,-0.75 0.52,-1.01 1.27,-0.78 Z"/></g>
<g><path fill="#576d7d" fill-opacity="0.388" stroke="#576d7d" stroke-width="0.5" stroke-opacity="0.388" d="M 184.84,59.26 c -0.02,0.33 -0.05,0.65 -0.07,0.98 c -0.09,0.23 -0.25,0.37 -0.49,0.41 c -0.18,-0.2 -0.35,-0.39 -0.53,-0.58 c 0.27,-0.39 0.64,-0.66 1.09,-0.81 Z"/></g>
<g><path fill="#576c7d" fill-opacity="0.945" d="M 74.46,222.79 c 0.32,0.57 0.19,0.83 -0.38,0.8 c 0.06,-0.3 0.18,-0.56 0.38,-0.8 Z"/></g>
<g><path fill="#586e7d" fill-opacity="0.408" d="M 311.06,465.83 c -0.07,0.71 -0.47,1.06 -1.18,1.05 c 0.15,-0.61 0.55,-0.96 1.18,-1.05 Z"/></g>
<g><path fill="#555c75" fill-opacity="0.282" stroke="#555c75" stroke-width="0.5" stroke-opacity="0.282" d="M 213.26,270.03 c -0.33,0.45 -0.75,0.77 -1.28,0.96 c 0.16,-0.65 0.59,-0.97 1.28,-0.96 Z"/></g>
<g><path fill="#565e7a" fill-opacity="0.384" d="M 222.73,266.29 c 0.72,-0.12 1.21,0.14 1.48,0.78 c -0.55,-0.16 -1.04,-0.42 -1.48,-0.78 Z"/></g>
<g><path fill="#658196" fill-opacity="0.878" d="M 446,337.44 c 0.25,-0.2 0.5,-0.39 0.74,-0.59 c 0.11,0.56 -0.11,0.87 -0.65,0.93 c -0.03,-0.12 -0.06,-0.23 -0.09,-0.34 Z"/></g>
<g><path fill="#88b3d5" fill-opacity="0.235" stroke="#88b3d5" stroke-width="0.5" stroke-opacity="0.235" d="M 497.2,254.93 c -0.07,0.33 -0.15,0.66 -0.23,0.99 c -0.31,0.05 -0.62,0.09 -0.93,0.13 c 0.2,-0.57 0.58,-0.95 1.16,-1.12 Z"/></g>
<g><path fill="#607580" fill-opacity="0.094" stroke="#607580" stroke-width="0.5" stroke-opacity="0.094" d="M 440.39,248.24 c 0.24,-0.05 0.49,-0.09 0.73,-0.14 c -0.15,0.41 -0.43,0.68 -0.84,0.81 c 0.04,-0.22 0.07,-0.45 0.11,-0.67 Z"/></g>
<g><path fill="#769dba" fill-opacity="0.204" stroke="#769dba" stroke-width="0.5" stroke-opacity="0.204" d="M 8.41,227.05 c -0.39,0.41 -0.77,0.84 -1.14,1.27 c -0.1,-0.83 0.28,-1.25 1.14,-1.27 Z"/></g>
<g><path fill="#566a7c" fill-opacity="0.396" stroke="#566a7c" stroke-width="0.5" stroke-opacity="0.396" d="M 9.2,226.16 c -0.25,0.31 -0.51,0.6 -0.79,0.89 c -0.17,-0.66 0.1,-0.96 0.79,-0.89 Z"/></g>
<g><path fill="#585c79" fill-opacity="0.306" stroke="#585c79" stroke-width="0.5" stroke-opacity="0.306" d="M 207.04,224.12 c 0.31,-0.05 0.63,-0.09 0.94,-0.14 c -0.17,0.55 -0.49,1 -0.95,1.35 c 0,-0.4 0,-0.81 0.01,-1.21 Z"/></g>
<g><path fill="#597083" fill-opacity="0.796" d="M 36.23,220.15 c -0.26,0.32 -0.57,0.6 -0.91,0.84 c -0.02,-0.6 0.29,-0.88 0.91,-0.84 Z"/></g>
<g><path fill="#7999b8" fill-opacity="0.463" stroke="#7999b8" stroke-width="0.5" stroke-opacity="0.463" d="M 471.01,218.87 c 0.35,0.16 0.7,0.32 1.05,0.47 c -0.36,0.37 -0.8,0.51 -1.32,0.44 c 0.09,-0.3 0.18,-0.6 0.27,-0.91 Z"/></g>
<g><path fill="#87b1d5" fill-opacity="0.192" stroke="#87b1d5" stroke-width="0.5" stroke-opacity="0.192" d="M 80.35,202.1 c -0.15,0.28 -0.31,0.55 -0.46,0.82 c -0.27,0.05 -0.53,0.11 -0.8,0.16 c 0.1,-0.73 0.51,-1.06 1.26,-0.98 Z"/></g>
<g><path fill="#80a5c7" fill-opacity="0.267" stroke="#80a5c7" stroke-width="0.5" stroke-opacity="0.267" d="M 76.18,152.08 c 0.2,-0.01 0.4,-0.02 0.6,-0.02 c -0.01,0.64 -0.34,0.93 -1.01,0.89 c 0.14,-0.29 0.27,-0.58 0.41,-0.87 Z"/></g>
<g><path fill="#6f7799" fill-opacity="0.118" stroke="#6f7799" stroke-width="0.5" stroke-opacity="0.118" d="M 433,383.96 c 0.48,0.22 0.83,0.56 1.06,1.02 c -0.26,0.04 -0.52,0.08 -0.78,0.12 c -0.09,-0.38 -0.19,-0.76 -0.28,-1.14 Z"/></g>
<g><path fill="#87b0d2" fill-opacity="0.443" d="M 413.24,385 c -0.36,0.35 -0.79,0.61 -1.27,0.75 c 0.21,-0.57 0.63,-0.82 1.27,-0.75 Z"/></g>
<g><path fill="#86b0d5" fill-opacity="0.165" d="M 273.92,492.96 c -0.14,0.64 -0.52,0.81 -1.13,0.53 c 0.37,-0.19 0.75,-0.37 1.13,-0.53 Z"/></g>
<g><path fill="#546878" fill-opacity="0.584" stroke="#546878" stroke-width="0.5" stroke-opacity="0.584" d="M 432.81,129.77 c 0,0.65 -0.31,1.04 -0.93,1.16 c 0.17,-0.5 0.48,-0.88 0.93,-1.16 Z"/></g>
<g><path fill="#7699b6" fill-opacity="0.314" stroke="#7699b6" stroke-width="0.5" stroke-opacity="0.314" d="M 136.65,128.82 c 0.14,0.78 -0.19,1.19 -0.99,1.21 c 0.27,-0.46 0.6,-0.86 0.99,-1.21 Z"/></g>
<g><path fill="#7597b2" fill-opacity="0.91" d="M 134,121.02 c -0.2,0.51 -0.57,0.82 -1.1,0.95 c 0.23,-0.48 0.6,-0.79 1.1,-0.95 Z"/></g>
<g><path fill="#80aaca" fill-opacity="0.094" stroke="#80aaca" stroke-width="0.5" stroke-opacity="0.094" d="M 138.07,116.76 c -0.02,0.6 -0.31,0.98 -0.88,1.13 c 0.15,-0.49 0.45,-0.87 0.88,-1.13 Z"/></g>
<g><path fill="#5d7185" fill-opacity="0.443" stroke="#5d7185" stroke-width="0.5" stroke-opacity="0.443" d="M 140.9,115.35 c -0.25,0.19 -0.53,0.36 -0.82,0.51 c 0.24,-0.22 0.52,-0.39 0.82,-0.51 Z"/></g>
<g><path fill="#86b0d3" fill-opacity="0.431" d="M 361.34,415.14 c -0.41,0.27 -0.84,0.5 -1.29,0.71 c 0.22,-0.56 0.65,-0.8 1.29,-0.71 Z"/></g>
<g><path fill="#585d79" fill-opacity="0.388" d="M 355.13,416.28 c -0.32,0.52 -0.8,0.73 -1.44,0.64 c 0.43,-0.34 0.91,-0.55 1.44,-0.64 Z"/></g>
<g><path fill="#87b3d3" fill-opacity="0.275" d="M 359.31,416.27 c -0.38,0.32 -0.8,0.58 -1.26,0.78 c 0.13,-0.68 0.55,-0.94 1.26,-0.78 Z"/></g>
<g><path fill="#575f78" fill-opacity="0.275" d="M 349.95,418.96 c -0.11,0.73 -0.54,0.99 -1.28,0.77 c 0.39,-0.31 0.82,-0.57 1.28,-0.77 Z"/></g>
<g><path fill="#80acc9" fill-opacity="0.204" stroke="#80acc9" stroke-width="0.5" stroke-opacity="0.204" d="M 330.86,87.01 c 0.01,0.42 0.02,0.84 0.03,1.26 c -0.35,-0.2 -0.7,-0.41 -1.05,-0.61 c 0.33,-0.24 0.67,-0.46 1.02,-0.65 Z"/></g>
<g><path fill="#4d606d" fill-opacity="0.596" d="M 204.32,86.09 c -0.34,0.58 -0.85,0.84 -1.54,0.76 c 0.38,-0.51 0.9,-0.77 1.54,-0.76 Z"/></g>
<g><path fill="#575b78" fill-opacity="0.208" d="M 337.92,425.93 c -0.16,0.69 -0.59,0.94 -1.29,0.76 c 0.41,-0.29 0.84,-0.54 1.29,-0.76 Z"/></g>
<g><path fill="#575c7b" fill-opacity="0.357" d="M 335.81,427.1 c -0.08,0.63 -0.46,0.93 -1.13,0.88 c 0.37,-0.3 0.75,-0.59 1.13,-0.88 Z"/></g>
<g><path fill="#83a7c8" fill-opacity="0.42" stroke="#83a7c8" stroke-width="0.5" stroke-opacity="0.42" d="M 356.12,74.1 c 0.41,-0.01 0.81,-0.02 1.22,-0.02 c -0.29,0.43 -0.64,0.79 -1.06,1.08 c -0.05,-0.35 -0.11,-0.71 -0.16,-1.06 Z"/></g>
<g><path fill="#85b4d1" fill-opacity="0.173" d="M 338.35,428.35 c -0.4,0.27 -0.81,0.51 -1.24,0.73 c 0.09,-0.74 0.51,-0.98 1.24,-0.73 Z"/></g>
<g><path fill="#4d606f" fill-opacity="0.208" stroke="#4d606f" stroke-width="0.5" stroke-opacity="0.208" d="M 93.12,434.26 c 0.41,0.08 0.58,0.33 0.51,0.74 c -0.24,-0.19 -0.41,-0.44 -0.51,-0.74 Z"/></g>
<g><path fill="#5e7689" fill-opacity="0.467" stroke="#5e7689" stroke-width="0.5" stroke-opacity="0.467" d="M 345.07,67.91 c 0.39,0.18 0.69,0.46 0.88,0.84 c -0.19,-0.03 -0.38,-0.06 -0.57,-0.09 c -0.1,-0.25 -0.21,-0.5 -0.31,-0.75 Z"/></g>
<g><path fill="#87afd3" fill-opacity="0.251" d="M 215.33,62.27 c -0.39,0.31 -0.81,0.57 -1.25,0.8 c 0.08,-0.76 0.5,-1.02 1.25,-0.8 Z"/></g>
<g><path fill="#87b1d2" fill-opacity="0.333" d="M 236.36,50.06 c -0.44,0.39 -0.95,0.6 -1.54,0.64 c 0.42,-0.42 0.93,-0.64 1.54,-0.64 Z"/></g>
<g><path fill="#86b3d2" fill-opacity="0.314" d="M 299.95,447.96 c -0.07,0.66 -0.45,0.94 -1.13,0.83 c 0.36,-0.29 0.74,-0.57 1.13,-0.83 Z"/></g>
<g><path fill="#88b0d3" fill-opacity="0.227" d="M 300.33,450.27 c -0.38,0.32 -0.81,0.57 -1.28,0.74 c 0.12,-0.74 0.55,-0.98 1.28,-0.74 Z"/></g>
<g><path fill="#7293af" fill-opacity="0.361" stroke="#7293af" stroke-width="0.5" stroke-opacity="0.361" d="M 289.69,38.98 c 0.14,0.33 0.27,0.66 0.41,0.99 c -0.38,-0.11 -0.75,-0.23 -1.12,-0.34 c 0.18,-0.27 0.42,-0.49 0.71,-0.65 Z"/></g>
<g><path fill="#87b2d4" fill-opacity="0.325" d="M 271.97,20.98 c -0.11,0.69 -0.52,0.95 -1.2,0.78 c 0.38,-0.28 0.79,-0.54 1.2,-0.78 Z"/></g>
<g><path fill="#575c7a" fill-opacity="0.196" stroke="#575c7a" stroke-width="0.5" stroke-opacity="0.196" d="M 182.37,287.97 c -0.43,0.51 -0.9,0.97 -1.41,1.4 c 0.22,-0.72 0.69,-1.19 1.41,-1.4 Z"/></g>
<g><path fill="#87b1d3" fill-opacity="0.996" stroke="#87b1d3" stroke-width="0.5" stroke-opacity="0.996" d="M 266.95,13.23 c 4.46,-0.72 8.62,0.52 12.38,2.9 c -0.46,0.28 -0.91,0.56 -1.36,0.86 c -0.41,0.24 -0.81,0.5 -1.2,0.78 c -0.58,0.43 -1.19,0.83 -1.81,1.2 c -0.43,0.22 -0.83,0.48 -1.21,0.78 c -0.57,0.44 -1.16,0.85 -1.78,1.23 c -0.41,0.24 -0.82,0.5 -1.2,0.78 c -0.62,0.49 -1.29,0.9 -2,1.24 c -0.39,0.29 -0.78,0.59 -1.16,0.9 c -0.56,0.43 -1.17,0.79 -1.83,1.05 c -0.39,0.32 -0.74,0.68 -1.05,1.07 c -0.67,0.35 -1.36,0.67 -2.06,0.96 c -0.35,0.33 -0.7,0.66 -1.05,0.99 c -0.61,0.43 -1.25,0.79 -1.93,1.08 c -0.31,0.32 -0.62,0.63 -0.92,0.94 c -0.62,0.29 -1.11,0.72 -1.47,1.3 c -0.63,0.02 -1.14,0.27 -1.54,0.74 c -0.6,0.27 -1.09,0.67 -1.49,1.19 c -0.59,0.15 -1.14,0.38 -1.66,0.71 c -0.47,0.4 -0.93,0.81 -1.38,1.23 c -0.57,0.13 -1.08,0.38 -1.53,0.74 c -8.91,6.04 -17.85,12.04 -26.81,18 c -0.42,0.24 -0.81,0.52 -1.19,0.81 c -0.59,0.42 -1.19,0.82 -1.81,1.18 c -0.41,0.25 -0.81,0.53 -1.19,0.83 c -0.59,0.41 -1.19,0.81 -1.81,1.18 c -0.41,0.25 -0.81,0.52 -1.19,0.82 c -0.59,0.42 -1.19,0.81 -1.81,1.18 c -0.41,0.25 -0.81,0.52 -1.2,0.82 c -0.58,0.42 -1.18,0.82 -1.79,1.18 c -0.42,0.25 -0.82,0.52 -1.2,0.82 c -0.55,0.47 -1.15,0.87 -1.78,1.21 c -0.43,0.23 -0.83,0.5 -1.22,0.8 c -0.54,0.49 -1.13,0.91 -1.77,1.24 c -0.45,0.2 -0.85,0.45 -1.23,0.76 c -0.64,0.56 -1.3,1.09 -1.99,1.59 c -1.94,1.03 -6.6,3.75 -7.68,5.45 c -2.12,0.44 -3.79,1.54 -5,3.32 c -1.41,-0.21 -2.41,0.31 -3,1.55 c 0.81,0.74 3.04,-0.41 3,-1.55 c 2.17,-0.34 3.84,-1.45 5,-3.32 c 0.7,0.16 1.36,0.06 1.99,-0.29 c 2.32,-1.43 4.68,-2.79 7.08,-4.08 c 0.26,-0.24 0.51,-0.47 0.76,-0.71 c 0.55,-0.03 1.03,-0.23 1.45,-0.58 c 0.52,-0.47 1.1,-0.83 1.75,-1.09 c 0.47,-0.18 0.9,-0.43 1.29,-0.75 c 0.29,-0.18 0.59,-0.35 0.88,-0.53 c 0.39,-0.2 0.75,-0.45 1.06,-0.76 c 1.3,-0.56 2.56,-1.2 3.79,-1.91 c 0.44,-0.23 0.86,-0.49 1.25,-0.8 c 0.27,-0.14 0.55,-0.28 0.82,-0.43 c 0.42,-0.22 0.81,-0.48 1.17,-0.78 c 1.25,-0.68 2.49,-1.35 3.72,-2.04 c 0.47,-0.19 0.9,-0.44 1.29,-0.76 c 0.24,-0.16 0.48,-0.32 0.71,-0.49 c 0.44,-0.18 0.84,-0.42 1.21,-0.72 c 1.27,-0.64 2.53,-1.32 3.76,-2.04 c 0.43,-0.23 0.85,-0.49 1.25,-0.76 c 0.23,-0.15 0.46,-0.31 0.69,-0.46 c 0.47,-0.18 0.92,-0.42 1.33,-0.71 c 1.31,-0.61 2.49,-1.4 3.54,-2.38 c 0.59,-0.04 1.1,-0.25 1.54,-0.64 c 1.25,-0.64 2.49,-1.31 3.71,-2 c 0.45,-0.22 0.87,-0.48 1.26,-0.79 c 0.27,-0.14 0.53,-0.29 0.79,-0.44 c 0.44,-0.15 0.82,-0.39 1.16,-0.71 c 1.25,-0.7 2.5,-1.4 3.76,-2.08 c 0.46,-0.2 0.88,-0.46 1.27,-0.77 c 0.22,-0.15 0.43,-0.3 0.65,-0.46 c 0.5,-0.16 0.96,-0.41 1.37,-0.74 c 1.23,-0.68 2.44,-1.39 3.63,-2.13 c 0.44,-0.21 0.87,-0.45 1.28,-0.73 c 1.94,-1.02 3.81,-2.14 5.62,-3.37 c 0.55,-0.18 1.05,-0.45 1.49,-0.82 c 1.25,-0.62 2.49,-1.28 3.71,-1.97 c 0.45,-0.21 0.87,-0.47 1.26,-0.78 c 0.23,-0.17 0.45,-0.35 0.68,-0.53 c 0.53,-0.06 0.97,-0.3 1.32,-0.7 c 1.25,-0.67 2.48,-1.34 3.72,-2.01 c 0.46,-0.19 0.88,-0.44 1.27,-0.75 c 1.91,-1.05 3.73,-2.23 5.47,-3.53 c 0.59,-0.02 1.11,-0.23 1.54,-0.62 c 0.65,-0.34 1.28,-0.7 1.89,-1.1 c 0.21,-0.11 0.42,-0.22 0.63,-0.34 c 2.73,4.21 4.13,11.44 5.85,16.29 c -0.29,0.16 -0.53,0.38 -0.71,0.65 c -4.61,4.56 -9.16,9.13 -13.67,13.72 c 0.76,0.24 1.48,0.12 2.16,-0.36 c 4.86,-2.72 9.67,-5.5 14.45,-8.35 c 1.85,2.99 4.24,5.47 7.16,7.42 c -0.02,0.23 -0.04,0.45 -0.06,0.68 c -1.95,2.89 -4.05,5.67 -6.3,8.34 c -0.45,0.48 -0.6,1.01 -0.44,1.6 c 0.48,-0.44 0.97,-0.87 1.45,-1.31 c 3.84,-1.83 7.59,-3.85 11.23,-6.07 c 0.54,-0.37 0.81,-0.88 0.82,-1.54 c 2.38,0.26 12.44,2.68 13.52,4.41 c -1.41,1.33 -2.72,2.74 -3.92,4.23 c 0.27,0.21 0.57,0.23 0.9,0.06 c 1.46,-1.02 4.91,-2.07 5.58,-3.68 c 1.08,0.12 2.13,0.36 3.15,0.71 c 6.22,2.34 12.36,4.86 18.42,7.58 c 0.33,0.17 0.47,0.44 0.43,0.79 c -0.31,0.6 -2.75,2.18 -2.27,2.83 c 1.1,-0.01 1.89,-0.51 2.38,-1.5 c 0.47,-0.18 0.94,-0.35 1.41,-0.53 c 0.19,0.03 0.38,0.06 0.57,0.09 c 3.55,1.01 7.37,3.01 10.17,5.35 c 0.05,0.35 0.11,0.71 0.16,1.06 c -1.42,1.95 -2.71,3.99 -3.86,6.11 c -1.59,1.26 0.54,2.7 1.3,1.32 c 2.84,-1.56 5.63,-3.22 8.35,-4.97 c 4.23,2.15 8.69,2.83 13.39,2.05 c 7.05,-1.64 29.28,-15.53 34.94,-8.49 c -5.65,5.46 -11.32,10.85 -17.01,16.18 c 0.47,0.39 1,0.46 1.59,0.23 c 3.75,-2.94 18.67,-10.28 20.99,-12.75 c 2.58,1.06 5.52,5.15 7.39,7.28 c -2.3,2.35 -12.38,10.53 -13.29,12.74 c -1.2,0.06 -2.1,0.61 -2.7,1.64 c 1,0.76 2.79,-0.24 2.7,-1.64 c 2.89,-0.7 15.49,-7.91 16.93,-9.7 c 2.84,2.35 5.54,4.85 8.1,7.51 c -0.78,0.14 -1.48,0.46 -2.1,0.93 c -4.25,3.93 -8.47,7.84 -12.68,11.74 c -3.29,3.06 18.7,-9.45 16.77,-9.31 c 2.64,1.85 4.89,5.77 4.56,9.05 c -1.71,1.37 -3.26,2.91 -4.63,4.61 c 0.36,0.29 0.76,0.32 1.21,0.09 c 1.08,-0.84 2.26,-1.45 3.57,-1.83 c -1.59,7.93 -5.34,14.7 -8.99,21.82 c -0.45,0.28 -0.76,0.66 -0.93,1.16 c -0.73,0.35 -2.14,1.39 -0.89,2.08 c -0.67,2.82 -1.26,5.66 -1.78,8.5 c -0.3,2.07 3.07,5.25 2.48,6.56 c -0.28,0.2 -0.56,0.4 -0.84,0.61 c -0.76,0.77 -1.28,1.67 -1.55,2.69 c 0.93,-0.47 1.91,-0.88 2.94,-1.22 c 0.17,-0.19 0.35,-0.37 0.52,-0.55 c 2.42,1.21 5.34,7.81 6.47,10.39 c -1.13,0.37 -4.57,4.82 -3.7,5.73 c 0.73,-0.42 1.39,-0.94 1.98,-1.55 c 1.17,-0.36 2.28,-0.85 3.34,-1.45 c 1.92,3.69 3.59,7.48 5.01,11.38 c -1.76,0.9 -2.75,3.54 -4.14,4.97 c -0.49,0.46 -0.64,0.99 -0.47,1.58 c 1.94,-1.25 3.93,-2.43 5.97,-3.52 c 1.22,1.19 6.84,18.12 6.85,20.83 c -0.58,0.44 -2.52,1.91 -1.6,2.65 c 0.67,-0.46 1.4,-0.68 2.18,-0.67 c 0.83,3.72 1.86,7.38 3.08,10.98 c -0.32,0.33 -0.65,0.66 -0.99,0.99 c -0.84,0.89 -1.58,1.82 -2.2,2.78 c 1.29,-0.23 2.51,-0.68 3.67,-1.35 c 0.16,-0.16 0.31,-0.32 0.47,-0.48 c 2.05,3.56 7.41,3.23 8.65,5.27 c -0.21,0.26 -0.42,0.53 -0.62,0.8 c -0.51,0.91 -2.79,3.26 -2.45,4.33 c -0.52,-0.03 -1.05,-0.06 -1.57,-0.09 c -0.89,0.61 -1.63,1.36 -2.23,2.25 c 0.41,0.86 2.31,-0.57 2.69,-1.1 c 0.39,-0.22 0.78,-0.43 1.17,-0.65 c 2.23,-1.14 4.37,-2.44 6.42,-3.89 c 0.52,0.07 0.96,-0.07 1.32,-0.44 c 3.78,1.3 7.51,2.75 11.19,4.35 c -2.76,1.06 -5.33,3.66 -7.07,6.01 c -1.48,0.84 -3.09,0.99 -3.83,2.7 c 0.85,0.98 1.69,-0.78 2.29,-1.19 c 3.08,-1.5 6.1,-3.11 9.07,-4.84 c 0.66,-0.32 1.05,-0.83 1.15,-1.55 c 3.62,1.5 6.98,3.77 8.9,7.28 c -0.89,0.42 -1.69,0.96 -2.43,1.61 c -6.04,5.24 -12.05,10.46 -18.04,15.67 c 0.56,0.32 1.12,0.3 1.7,-0.06 c 7.03,-4.17 14.08,-8.33 21.12,-12.49 c 0.97,4.07 1.33,8.2 1.06,12.39 c -0.66,0.01 -1.28,0.19 -1.84,0.56 c -7.34,6.24 -14.7,12.44 -22.07,18.59 c 0.57,0.33 1.16,0.34 1.77,0 c 6.93,-4.22 13.93,-8.33 21.01,-12.32 c 0.31,-0.04 0.62,-0.08 0.93,-0.13 c 0.17,4.12 0.13,8.24 -0.11,12.36 c -0.58,-0.17 -1.1,-0.06 -1.57,0.34 c -5.58,4.51 -11.17,9 -16.77,13.46 c -0.71,0.69 -1.39,1.4 -2.05,2.13 c -1.26,0.46 -2.32,1.17 -3.19,2.13 c 0.56,0.35 1.14,0.37 1.74,0.06 c 7.15,-4.39 14.4,-8.57 21.77,-12.56 c -4.59,21.5 -33.48,14.45 -38.9,29.46 c -2.5,10.6 -5.87,20.92 -10.09,30.95 c -0.82,0.47 -1.59,1.03 -2.32,1.68 c -0.4,0.33 -0.64,0.74 -0.73,1.24 c -0.65,-0.23 -1.27,-0.14 -1.83,0.27 c -1.24,1.07 -2.47,2.12 -3.7,3.15 c 0.08,0.12 0.17,0.24 0.25,0.36 c 1.57,0.46 4.79,-2.86 6.62,-3.17 c -0.35,3.42 -3.62,8.9 -5.14,12.19 c -0.4,0.29 -0.73,0.64 -0.98,1.07 c -0.45,0.04 -0.65,0.27 -0.62,0.69 c -0.44,0.06 -0.88,0.12 -1.32,0.18 c -0.49,0.2 -0.95,0.47 -1.37,0.8 c -0.21,0.15 -0.42,0.3 -0.63,0.46 c -0.48,0.2 -0.92,0.48 -1.31,0.83 c -1.29,0.59 -2.55,1.24 -3.77,1.96 c -0.46,0.2 -0.89,0.45 -1.28,0.76 c -0.23,0.17 -0.45,0.34 -0.67,0.51 c -0.48,0.14 -0.91,0.35 -1.32,0.63 c -1.21,0.75 -2.45,1.46 -3.7,2.14 c -0.44,0.21 -0.87,0.45 -1.28,0.7 c -1.94,1.24 -3.93,2.36 -5.98,3.38 c -0.33,0.29 -0.66,0.59 -1,0.88 c -1.29,0.6 -2.55,1.26 -3.78,1.99 c -0.46,0.2 -0.88,0.46 -1.28,0.76 c -0.25,0.15 -0.5,0.3 -0.76,0.46 c -0.46,0.16 -0.85,0.42 -1.17,0.8 c -1.28,0.62 -2.54,1.28 -3.79,1.98 c -0.45,0.21 -0.88,0.47 -1.27,0.78 c -0.19,0.19 -0.39,0.38 -0.58,0.56 c -0.5,0.06 -0.95,0.26 -1.34,0.59 c -1.25,0.7 -2.51,1.41 -3.77,2.11 c -0.45,0.21 -0.87,0.46 -1.28,0.73 c -0.27,0.17 -0.54,0.34 -0.81,0.51 c -0.41,0.12 -0.77,0.33 -1.08,0.62 c -0.31,0.02 -0.63,0.04 -0.94,0.06 c 0.2,-0.64 0.51,-1.22 0.94,-1.73 c 12.67,-13.85 21.91,-28.58 30.17,-45.36 c 2.66,-0.82 18.29,-13.34 19.82,-15.74 c 1.35,-0.04 2.35,-0.62 3.01,-1.73 c -0.93,-1.11 -2.48,1.03 -3.01,1.73 c -4.02,1.3 -12.74,6.89 -16.83,9.28 c 1.46,-5.03 3.02,-10.05 4.67,-15.05 c 0.25,-0.78 0.78,-1.24 1.58,-1.39 c 0.4,-0.25 0.76,-0.55 1.07,-0.9 c 4.98,-4.51 12.15,-9.28 16.54,-13.93 c 0.77,-0.62 3.44,-0.69 2.67,-2.06 c -1.11,0.38 -2,1.06 -2.67,2.06 c -3.06,0.66 -13.36,7.16 -16.83,9.13 c 0.89,-5.08 1.84,-10.15 2.84,-15.22 c 0.78,0 1.49,-0.23 2.12,-0.69 c 6.57,-5.6 13.13,-11.19 19.69,-16.76 c -1.14,-0.35 -1.95,0.05 -2.42,1.2 c -6.46,2.72 -12.4,6.98 -18.49,10.22 c 0.34,-4.34 0.81,-8.67 1.42,-12.98 c 0.47,-0.26 0.86,-0.61 1.17,-1.06 c 5.08,-4.52 10.19,-8.94 15.33,-13.27 c -0.98,-1.04 -2.02,0.08 -2.48,0.99 c -4.76,2.4 -9.45,4.93 -14.07,7.57 c -0.05,-4.1 0.01,-8.21 0.17,-12.31 c 0.41,-0.13 0.69,-0.4 0.84,-0.81 c 1.02,-0.41 1.98,-0.94 2.88,-1.59 c 1.13,-0.88 1.02,-1.22 -0.33,-1.04 c -1.11,0.48 -2.21,1 -3.3,1.54 c -0.52,-3.13 -1.36,-8.92 -1.01,-11.91 c 0.29,-0.42 0.26,-0.81 -0.08,-1.19 c -1.19,-3.13 -1.62,-9.15 -2.2,-12.73 c 0.95,-0.3 1.57,-0.93 1.88,-1.88 c -0.54,-0.88 -1.05,-0.25 -1.8,-0.02 c -1.35,-1.17 -2.56,-9.08 -2.93,-11.22 c 0.35,-0.23 0.67,-0.49 0.97,-0.78 c 0.75,-1.05 1.49,-2.04 2.21,-2.97 c -1.12,0.02 -1.96,0.52 -2.54,1.49 c -0.4,0.15 -0.81,0.31 -1.22,0.47 c -2.21,-7.13 -4.65,-14.19 -7.32,-21.16 c 0.49,-0.23 0.91,-0.55 1.26,-0.97 c 1.32,-1.86 2.67,-3.69 4.06,-5.48 c -1.4,-0.8 -4.93,2.4 -6.5,2.76 c -1.9,-3.28 -3.51,-6.69 -4.82,-10.24 c 0.29,-0.3 0.52,-0.63 0.7,-1 c 1.08,-1.7 2.25,-3.33 3.51,-4.89 c 0.19,-0.31 0.18,-0.59 -0.02,-0.85 c -2.02,0.92 -3.89,2.07 -5.62,3.47 c -1.13,-0.07 -5.05,-8.59 -6.18,-9.8 c 0.6,-0.35 1.12,-0.8 1.55,-1.35 c 1.65,-2 3.16,-4.1 4.5,-6.3 c -0.29,-0.33 -0.65,-0.38 -1.07,-0.17 c -1.52,1.29 -6.28,2.99 -6.84,4.78 c -2.09,-2.99 -4.08,-6.05 -5.97,-9.16 c 5.29,-5.06 10.52,-10.14 15.71,-15.26 c -0.2,-0.31 -0.49,-0.42 -0.87,-0.31 c -6.33,3.55 -12.6,7.21 -18.79,11 c -1.81,-2.34 -3.64,-4.65 -5.49,-6.94 c -0.58,-1.77 1.29,-3.48 2.86,-3.77 c 1.29,-0.47 2.16,-1.34 2.6,-2.62 c 0.79,-0.15 4.67,-1.54 3.43,-2.78 c -1.51,0.45 -2.65,1.38 -3.43,2.78 c -1.66,0.06 -3.04,0.72 -4.14,1.98 c -0.95,0.69 -2.68,2.24 -3.9,1.63 c -2.36,-2.51 -4.74,-4.98 -7.17,-7.42 c 2.85,-0.3 12.33,-10.23 14.96,-12.67 c -1.04,-0.33 -1.85,-0.01 -2.43,0.97 c -5.25,2.72 -10.35,5.67 -15.33,8.86 c -2.84,-2.3 -5.52,-4.76 -8.05,-7.38 c 0.69,-0.03 1.31,-0.26 1.84,-0.7 c 4.61,-4.33 9.28,-8.54 14,-12.65 c -0.54,-0.42 -1.12,-0.45 -1.73,-0.08 c -0.65,1.14 -1.64,1.8 -2.96,1.96 c -5.1,2.87 -10.14,5.85 -15.11,8.93 c -1.94,-2.15 -6.83,-4.49 -8.18,-6.65 c 5.72,-5.34 11.38,-10.72 16.97,-16.15 c -0.52,-0.38 -1.05,-0.38 -1.6,0 c -4.88,3.22 -17.48,9.53 -21.16,12.77 c -6.59,-3.78 -13.31,-7.31 -20.15,-10.59 c 1.71,-2.82 3.38,-5.66 5.02,-8.52 c 0.25,-0.49 0.16,-0.88 -0.27,-1.17 c -3.63,1.8 -7.19,3.76 -10.66,5.88 c -0.35,0.19 -0.69,0.41 -1.02,0.65 c -3.5,-1.16 -7,-2.36 -10.48,-3.59 c -0.7,-0.63 -0.77,-1.35 -0.2,-2.16 c 1.43,-0.1 2.32,-0.84 2.66,-2.21 c -1.41,-0.49 -2.26,1.07 -2.66,2.21 c -3.81,2.26 -22.1,-4.79 -27.45,-4.99 c 1.35,-2.16 2.97,-4.09 4.86,-5.79 c 0.22,-0.39 0.14,-0.69 -0.27,-0.89 c -2.66,1.47 -5.33,2.96 -8,4.47 c -0.57,0.24 -0.9,0.66 -0.99,1.26 c -2.8,-0.37 -13.06,-0.76 -14.69,-2.17 c 2.26,-2.96 7.23,-10.97 9.79,-12.74 c 0.25,-0.34 0.2,-0.62 -0.12,-0.86 c -6.89,3.96 -13.8,7.93 -20.73,11.9 c -0.78,0.32 -1.24,0.88 -1.39,1.69 c -6.19,0.09 -12.38,0.21 -18.58,0.36 c 7.34,-7.22 14.69,-14.38 22.07,-21.5 c -0.23,-0.33 -0.54,-0.44 -0.93,-0.32 c -1.13,0.87 -2.38,1.54 -3.73,2 c -12.31,7.12 -24.62,14.24 -36.94,21.36 c -0.4,0.33 -0.68,0.74 -0.86,1.22 c -30.61,7.33 -55.66,18.79 -80.3,38.44 c -0.3,0.12 -0.58,0.29 -0.82,0.51 c -0.76,0.11 -1.43,0.41 -2.01,0.9 c -0.43,0.26 -0.73,0.64 -0.88,1.13 c -0.29,0.5 -0.72,0.82 -1.28,0.97 c -0.72,-1.55 -3.54,1.22 -4.07,1.99 c -1.11,0.32 -2.13,0.81 -3.08,1.48 c -17.36,9.81 -34.69,19.72 -51.98,29.73 c -0.2,0 -0.4,0.01 -0.6,0.02 c 1.87,-4.88 7.6,-9.68 6.02,-15.25 c 0.63,0.3 1.24,0.26 1.83,-0.1 c 21.6,-14.45 43.1,-28.99 64.53,-43.62 c 3.04,-1.78 8.04,-4.41 10.24,-6.99 c 1.5,-0.12 2.59,-0.84 3.27,-2.16 c 0.72,0.1 1.4,-0.01 2.04,-0.35 c 1.16,-1.1 1,-1.53 -0.5,-1.3 c -0.76,0.33 -1.27,0.88 -1.54,1.65 c -1.57,0 -2.66,0.72 -3.27,2.16 c -5.3,1.59 -9.57,5.38 -14.49,7.65 c -19.21,11.15 -38.45,22.25 -57.71,33.3 c -2.06,1.08 -3.99,2.34 -5.79,3.78 c -0.68,-0.2 -4.08,-8.8 -4.04,-10.08 c 4.39,-2.91 13.4,-11.3 17.82,-15.18 c -1.7,-0.99 -3.81,1.44 -5.06,2.35 c -2.6,0.98 -13.68,6.89 -15.31,9.18 c -1.53,-3.68 -3.59,-7.31 -3.28,-11.44 c 0.58,-0.12 1.11,-0.34 1.6,-0.68 c 2.63,-2.5 5.28,-4.98 7.94,-7.43 c -1.37,-0.82 -7.82,4.1 -9.46,4.63 c 3.02,-9.94 23.64,-31.29 34.05,-32.38 c -0.09,0.33 -0.17,0.65 -0.26,0.97 c -1.07,0.82 -1.95,1.78 -2.66,2.89 c 0.76,1.04 2.35,-0.77 2.92,-1.38 c 1.06,-0.25 2.06,-0.65 3,-1.21 c 0.42,-0.17 0.72,-0.47 0.87,-0.89 c 2.59,-0.75 9.96,1.82 11.32,3.97 c -0.14,0.21 -0.28,0.43 -0.42,0.64 c -2.01,2.28 -12.16,10.01 -12.79,12 c -1.23,0.11 -2.14,0.7 -2.73,1.76 c 0.87,1.16 2.44,-0.95 2.73,-1.76 c 4.05,-0.79 14.56,-8.08 18.98,-10.19 c 3.67,1.08 7.38,3.32 11.23,3.56 c -7.68,6.71 -15.31,13.45 -22.89,20.23 c 1.28,-0.05 2.47,-0.45 3.56,-1.2 c 21.53,-12.4 43.02,-24.88 64.46,-37.44 c 0.68,-0.29 1.3,-0.67 1.89,-1.12 c 0.24,-0.04 0.4,-0.18 0.49,-0.41 c 0.48,-0.08 0.96,-0.15 1.44,-0.22 c 0.33,-0.22 0.63,-0.46 0.9,-0.74 c 1.61,-1.11 3.37,-1.91 5.28,-2.41 c 15.01,-5.79 22.65,-2.13 29.53,-18.87 c 0.4,0.94 0.66,0.92 0.76,-0.08 c 0.3,-0.48 0.74,-0.78 1.29,-0.9 c 0.34,0.88 0.67,0.85 1.01,-0.07 c 0.9,0.13 1.56,-0.2 1.96,-0.99 c 1.22,-0.1 3.36,-0.24 3.11,-1.99 c 0.95,0.21 1.61,-0.11 1.97,-0.96 c 0.85,0.1 1.51,-0.18 1.99,-0.86 c 1.53,-0.06 2.62,-0.78 3.27,-2.18 c 0.83,0.12 1.44,-0.2 1.81,-0.93 c 1.74,0.13 3.69,-1.83 5.01,-2.86 c 1.85,-0.47 4.14,-1.38 5.13,-3.11 c 0.95,0.12 1.54,-0.27 1.78,-1.16 c 0.82,0.08 1.53,-0.17 2.13,-0.74 c 1.39,-0.17 2.4,-0.87 3.03,-2.12 c 0.95,0.13 1.52,-0.25 1.71,-1.13 c 0.79,0.05 1.52,-0.14 2.19,-0.57 c 1.48,-0.2 2.52,-0.98 3.13,-2.34 c 0.83,0.05 1.48,-0.27 1.94,-0.95 c 0.72,-0.03 1.32,-0.3 1.81,-0.83 Z M 198.28,88.98 c -0.35,0.52 -0.8,0.94 -1.33,1.28 c -19.14,12.18 -38.22,24.46 -57.23,36.85 c -0.18,-0.04 -0.36,-0.08 -0.55,-0.12 c -0.02,-0.64 0.22,-1.18 0.72,-1.6 c 16.11,-15.41 34.48,-27.33 55.1,-35.78 c 1.06,-0.41 2.15,-0.62 3.29,-0.63 Z M 79.09,203.08 c 0.27,-0.05 0.53,-0.11 0.8,-0.16 c -1.35,5.39 -2.88,10.73 -4.6,16.02 c -0.86,-0.14 -1.65,0.03 -2.37,0.53 c -4.86,4.02 -9.74,7.98 -14.63,11.88 c 0.51,0.4 1.09,0.5 1.73,0.28 c 4.53,-2.95 9.22,-5.63 14.06,-8.04 c -2.32,13.94 -3.41,27.42 -3.98,41.51 c -0.64,0.11 -1.2,0.39 -1.68,0.83 c -1.47,1.39 -2.82,2.87 -4.06,4.43 c 1.36,1.28 5.04,-1.97 6.42,-2.55 c -0.57,4.18 1.94,12.78 0.15,16.19 c -0.42,-0.01 -0.69,0.19 -0.82,0.59 c 0.52,0.71 0.83,-0.15 0.82,-0.59 c 0.82,0.04 1.28,0.46 1.4,1.29 c 0.6,3.73 1.22,7.47 1.85,11.2 c 0.73,2.67 -2.69,3.48 -1.73,5.1 c 1.16,-0.93 2.16,-2.82 3.06,-0.18 c 2.95,11.65 7.06,22.89 12.31,33.71 c -0.33,0.03 -0.56,0.2 -0.71,0.51 c -0.69,1.24 -1.34,2.46 -1.97,3.66 c 0.73,0.38 3.2,-1.24 3.93,-1.76 c 3.72,7.03 7.67,13.92 11.87,20.66 c -0.57,0.18 -1.12,0.42 -1.63,0.74 c -0.96,1.15 -0.71,1.7 0.76,1.65 c 0.54,-0.31 1.1,-0.6 1.67,-0.86 c 3,2.2 9.86,11.7 12.57,15.18 c -4.23,3.73 -8.36,7.56 -12.4,11.51 c -1.13,2.78 -3.58,1.62 -4.52,3.98 c 0.24,0.28 0.53,0.34 0.88,0.17 c 4.5,-4.05 14.2,-8.12 19.81,-11.91 c 2.42,2.38 4.77,4.83 7.04,7.33 c -2.74,2 -5.35,4.13 -7.83,6.4 c 0.26,0.32 0.59,0.39 0.99,0.23 c 2.8,-1.5 5.51,-3.15 8.11,-4.96 c 1.55,0.77 7.48,5.64 7.67,7.25 c -3.09,2.43 -6.08,5 -8.95,7.71 c -1.7,1.49 -3.26,3.07 -4.69,4.76 c 0.5,0.24 1.02,0.21 1.55,-0.07 c 3.93,-2.45 11.91,-6.33 16.16,-9.6 c 5.38,4.29 11,8.22 16.87,11.8 c 0.61,0.36 0.94,0.9 1.01,1.6 c -0.54,0.25 -1.02,0.58 -1.43,1.01 c -3.32,3.83 -6.7,7.58 -10.15,11.26 c 0.5,0.38 1.05,0.43 1.65,0.14 c 1.34,-1.7 8.87,-5.23 11.28,-6.69 c 1.2,-0.86 3.26,-1.41 3.73,-2.93 c 3.64,1.41 7.12,3.14 10.45,5.17 c 1.89,2.3 -3.58,2.1 -1,3.77 c 2.1,0.03 2.96,-2.78 4.84,-1.92 c 1.97,0.89 10.19,3.35 10.86,5.13 c -1.46,0.03 -2.63,3.05 -3.63,4.01 c -0.88,1.76 1.15,2.22 2.36,1.39 c 3.26,-1.72 5.04,-3.8 9,-3.68 c 2.72,0.87 5.45,1.72 8.18,2.55 c 3.49,1.31 2.53,0.95 1.15,3.22 c 0.28,0.23 0.61,0.3 0.98,0.2 c 1.47,-0.63 2.4,-1.82 4.2,-1.5 c 14.7,2.8 27.71,5.09 42.82,4.92 c -2.71,2.69 -5.36,5.44 -7.96,8.23 c 0.54,0.22 1.07,0.17 1.57,-0.16 c 2.71,-1.83 11.28,-5.86 12.96,-8 c 5.8,-0.15 11.58,-0.51 17.34,-1.08 c -0.02,0.67 -0.02,1.34 0,2 c -8.21,5.75 -15.25,15.44 -23.18,20.37 c -1.36,0.93 -0.16,1.63 0.97,1.13 c 8.97,-5.46 18.03,-10.78 27.19,-15.95 c 1.51,-0.71 0.7,-2.55 1.47,-3.74 c -0.27,1.38 0.27,2 1.62,1.88 c 5.62,-3.17 11.19,-6.44 16.7,-9.79 c 11.61,-3.66 23.12,-7.06 34.12,-12.37 c 1.01,0.96 0.95,1.89 -0.19,2.8 c -6.27,4.78 -12.58,9.51 -18.93,14.19 c -0.55,0.35 -0.85,0.84 -0.9,1.49 c -0.79,0.06 -1.52,0.31 -2.18,0.75 c -0.4,0.26 -0.78,0.55 -1.14,0.86 c -0.87,0.82 -1.83,1.54 -2.85,2.16 c -0.41,0.25 -0.79,0.53 -1.15,0.85 c -0.87,0.82 -1.82,1.54 -2.85,2.15 c -0.41,0.25 -0.79,0.53 -1.15,0.85 c -0.88,0.8 -1.82,1.53 -2.81,2.19 c -0.39,0.26 -0.77,0.54 -1.13,0.83 c -1.15,0.64 -1.72,2.34 -3.16,2.23 c -1.07,1.04 -5.15,3.34 -5.5,4.52 c 0.64,0.23 1.26,0.15 1.87,-0.26 c 1.62,-1.09 3.3,-2.07 5.04,-2.95 c 0.57,-0.57 1.23,-1.01 1.98,-1.32 c 0.47,-0.17 0.9,-0.42 1.28,-0.74 c 0.24,-0.14 0.47,-0.29 0.71,-0.43 c 0.45,-0.19 0.88,-0.43 1.27,-0.73 c 1.24,-0.7 2.49,-1.38 3.74,-2.07 c 0.46,-0.2 0.88,-0.46 1.27,-0.77 c 0.24,-0.14 0.48,-0.29 0.72,-0.43 c 0.44,-0.22 0.86,-0.46 1.29,-0.71 c 1.2,-0.75 2.44,-1.46 3.71,-2.11 c 0.47,-0.19 0.89,-0.44 1.28,-0.77 c 0.24,-0.16 0.48,-0.33 0.72,-0.49 c 0.44,-0.22 0.87,-0.45 1.29,-0.68 c 0.58,-0.35 1.16,-0.68 1.75,-1 c 0.45,-0.22 0.87,-0.48 1.27,-0.78 c 0.22,-0.19 0.44,-0.37 0.67,-0.56 c 0.46,-0.17 0.91,-0.37 1.33,-0.62 c 1.24,-0.7 2.48,-1.39 3.72,-2.07 c 0.45,-0.21 0.88,-0.47 1.28,-0.77 c 0.25,-0.18 0.5,-0.36 0.75,-0.55 c 0.45,-0.15 0.84,-0.4 1.18,-0.74 c 1.28,-0.59 2.54,-1.24 3.77,-1.96 c 0.46,-0.2 0.89,-0.46 1.29,-0.77 c 0.24,-0.17 0.48,-0.35 0.72,-0.52 c 0.47,-0.15 0.9,-0.36 1.31,-0.63 c 0.56,-0.38 1.14,-0.72 1.74,-1.03 c 0.43,-0.22 0.84,-0.46 1.24,-0.73 c 0.23,-0.09 0.45,-0.19 0.68,-0.29 c 0.46,-0.2 0.88,-0.47 1.27,-0.78 c 1.23,-0.8 2.48,-1.53 3.78,-2.2 c 0.45,-0.22 0.87,-0.48 1.29,-0.76 c 0.28,-0.16 0.57,-0.32 0.85,-0.48 c 0.36,-0.25 0.72,-0.5 1.08,-0.74 c 1.26,-0.67 2.52,-1.35 3.76,-2.05 c 0.46,-0.2 0.88,-0.46 1.27,-0.77 c 0.2,-0.2 0.39,-0.39 0.59,-0.59 c 0.56,-0.07 1.04,-0.3 1.44,-0.7 c 1.24,-0.62 2.47,-1.27 3.69,-1.94 c 0.46,-0.2 0.88,-0.46 1.26,-0.78 c 0.25,-0.14 0.5,-0.28 0.74,-0.42 c 0.45,-0.21 0.88,-0.44 1.29,-0.71 c 1.19,-0.78 2.42,-1.48 3.7,-2.12 c 0.46,-0.18 0.88,-0.43 1.27,-0.74 c 1.23,-0.79 2.48,-1.53 3.77,-2.21 c 0.45,-0.22 0.87,-0.48 1.27,-0.78 c 0.23,-0.21 0.46,-0.42 0.69,-0.63 c 0.5,0.02 0.9,-0.17 1.21,-0.56 c 1.29,-0.65 2.56,-1.33 3.81,-2.04 c 0.45,-0.21 0.88,-0.47 1.28,-0.77 c 0.26,-0.14 0.51,-0.29 0.76,-0.43 c 0.44,-0.21 0.81,-0.49 1.13,-0.86 c 1.31,-0.59 2.58,-1.24 3.82,-1.97 c 0.46,-0.19 0.89,-0.45 1.28,-0.77 c 0.27,-0.14 0.53,-0.27 0.8,-0.41 c 0.37,-0.27 0.76,-0.51 1.15,-0.74 c 1.23,-0.74 2.48,-1.44 3.75,-2.1 c 0.47,-0.18 0.89,-0.42 1.28,-0.74 c 1.22,-0.79 2.48,-1.52 3.77,-2.2 c 0.44,-0.22 0.86,-0.47 1.26,-0.77 c 0.23,-0.15 0.47,-0.3 0.7,-0.45 c 0.45,-0.23 0.88,-0.51 1.27,-0.82 c 1.28,-0.61 2.53,-1.27 3.75,-1.98 c 0.45,-0.21 0.87,-0.47 1.27,-0.77 c 0.21,-0.16 0.42,-0.32 0.64,-0.48 c 0.51,-0.1 0.94,-0.35 1.29,-0.74 c 1.27,-0.65 2.54,-1.33 3.79,-2.03 c 0.46,-0.2 0.88,-0.45 1.27,-0.76 c 0.22,-0.17 0.43,-0.34 0.65,-0.52 c 0.48,-0.14 0.91,-0.4 1.27,-0.75 c 1.28,-0.63 2.54,-1.29 3.79,-1.98 c 0.46,-0.18 0.88,-0.43 1.27,-0.75 c 1.22,-0.79 2.48,-1.52 3.77,-2.2 c 0.45,-0.22 0.88,-0.48 1.27,-0.78 c 0.24,-0.18 0.47,-0.35 0.71,-0.53 c 0.48,-0.12 0.9,-0.37 1.24,-0.74 c 1.53,-0.78 3.06,-1.55 4.6,-2.31 c 0.4,2.43 3.48,5.97 3.11,8.25 c -0.92,0.46 -1.61,1.16 -2.07,2.09 c -0.79,0.66 -0.79,0.66 0,0 c 0.94,0.04 1.72,-0.28 2.35,-0.95 c 0.26,-0.04 0.52,-0.08 0.78,-0.12 c 1.5,2.4 3.78,6.38 4.06,9.16 c -0.75,-0.03 -1.43,0.18 -2.04,0.62 c -1.91,1.57 -3.83,3.09 -5.76,4.56 c 0.5,0.42 1.06,0.52 1.69,0.31 c 2.14,-1.73 4.49,-3.06 7.07,-4 c 1.56,3.75 2.15,7.63 1.75,11.66 c -0.77,0.2 -1.4,0.63 -1.87,1.3 c -3.64,3.64 -7.32,7.25 -11.03,10.83 c -0.88,0.84 -0.75,1.35 0.39,1.51 c 2.93,-1.71 5.88,-3.36 8.87,-4.97 c 0.23,-0.05 0.46,-0.1 0.7,-0.15 c -3.21,6.61 -14.46,15.87 -19.91,21.36 c -0.56,0.05 -0.91,0.34 -1.05,0.88 c -2.02,0.14 -3.6,1.05 -4.75,2.71 c -3.86,2.3 -14.02,0.97 -17.18,-1.58 c 6.89,-6.51 13.75,-13.02 20.58,-19.53 c -0.2,-0.32 -0.49,-0.44 -0.87,-0.34 c -7.49,4.46 -21.25,11.76 -27.75,16.35 c -1.77,-0.79 -9.77,-3.66 -10.37,-4.81 c 1.64,-1.65 3.44,-3.1 5.41,-4.33 c 0.55,-0.5 0.75,-1.12 0.62,-1.85 c 0.48,0.12 0.95,0.24 1.42,0.35 c 1.01,-0.71 2.01,-1.43 3,-2.18 c 0.94,-0.33 3.07,-1.56 2.32,-2.69 c -1.09,0.28 -1.97,0.9 -2.66,1.83 c -1.12,0.26 -2.03,0.86 -2.72,1.79 c -0.39,0.17 -0.78,0.34 -1.17,0.52 c -2.64,1.35 -5.24,2.81 -7.8,4.37 c -0.64,0.68 -2.75,1.36 -2.78,2.32 c -6.13,1.45 -17.14,9.41 -23.6,12.21 c -13.59,6.99 -29.64,13.01 -44.58,16.07 c -1.12,-0.55 -1.76,-0.25 -1.91,0.92 c -1.06,-0.38 -1.79,-0.06 -2.17,0.95 c -0.94,-0.21 -1.59,0.12 -1.96,1 c -1.52,-0.18 -2.43,0.46 -2.72,1.93 c -0.8,-0.07 -1.57,0.06 -2.31,0.36 c -18.17,10.54 -36.35,21.04 -54.56,31.5 c -0.57,0.28 -0.96,0.72 -1.16,1.32 c -3.69,-0.18 -7.49,-3.84 -8.48,-7.3 c 2.05,0.2 30.14,-21.76 34.13,-24.75 c 0.72,-0.59 1.36,-1.25 1.92,-1.98 c 0.63,-0.45 3.76,-1.07 2.69,-2.26 c -1.33,0.22 -2.23,0.97 -2.69,2.26 c -4.34,1.08 -31.46,17.57 -37.59,21.07 c -0.38,-0.08 -0.76,-0.17 -1.14,-0.26 c -1.32,-1 -2.79,-7.18 -3.58,-8.98 c 5.35,-5.18 10.72,-10.31 16.11,-15.39 c -0.5,-0.28 -1.02,-0.27 -1.55,0.04 c -3.53,2 -14.96,7.6 -16.71,10.45 c -1.55,-3.08 -3.17,-6.12 -4.86,-9.13 c -0.19,-0.49 -0.53,-0.83 -1.03,-1.01 c -9.83,-0.59 -44.01,-13.09 -50.73,-18.21 c 1.46,-1.99 2.94,-3.97 4.44,-5.93 c 0.44,-0.46 0.56,-0.95 0.34,-1.48 c -0.32,0.49 -0.71,0.91 -1.18,1.27 c -2.3,0.87 -4.49,1.97 -6.58,3.3 c -0.39,0.18 -0.57,0.48 -0.53,0.91 c -2.18,0.09 -9.63,-4.21 -10.55,-6.18 c 0.79,-0.85 1.31,-1.84 1.59,-2.96 c 0.63,-0.11 1.83,-0.47 1.16,-1.21 c -0.47,0.33 -0.86,0.73 -1.16,1.21 c -1.41,0.38 -3.35,0.58 -3.19,2.49 c -11.62,-5.51 -18.48,3.83 -28.36,5.64 c -0.01,-0.29 -0.03,-0.59 -0.04,-0.89 c 4.07,-4.14 7.98,-8.44 11.73,-12.88 c 0.21,-0.69 -0.03,-1.01 -0.74,-0.96 c -8.92,5.13 -17.84,10.27 -26.77,15.4 c -0.59,0.4 -0.83,0.95 -0.74,1.66 c -4.16,-0.31 -7.1,-3.03 -9.54,-6.18 c 0.07,-0.41 -0.1,-0.66 -0.51,-0.74 c -2.89,-2.28 -5.62,-4.72 -8.2,-7.33 c 0.68,0.09 1.27,-0.11 1.76,-0.6 c 4.6,-4.33 9.26,-8.55 13.98,-12.66 c -0.23,-0.33 -0.53,-0.43 -0.92,-0.29 c -0.77,0.72 -1.66,1.21 -2.68,1.47 c -4.57,2.64 -9.15,5.27 -13.74,7.88 c -0.64,0.3 -1.01,0.8 -1.12,1.48 c -2.95,-1.79 -5.74,-5.05 -7.57,-7.96 c 2.6,-1.06 4.7,-2.75 6.28,-5.07 c 0.68,-0.3 3.49,-1.01 2.56,-2.19 c -1.32,0.18 -2.17,0.91 -2.56,2.19 c -1.4,-0.24 -6.62,2.46 -6.8,3.89 c -2.5,-1.36 -4.52,-8.54 -3.92,-11.37 c 0.86,-0.43 1.66,-0.97 2.38,-1.62 c 3.4,-3.16 6.78,-6.31 10.12,-9.46 c -0.24,-0.31 -0.54,-0.37 -0.91,-0.2 c -3.44,1.76 -6.85,3.58 -10.25,5.45 c 1.8,-6.61 10.13,-21.97 11.13,-27.31 c -3.33,-8.95 -10.04,-16.66 -13.46,-25.69 c 1.34,-0.64 2.17,-1.69 2.5,-3.13 c -0.62,-1.5 -2.55,0.3 -3.45,0.57 c -4.11,-3.21 -10.11,-30.04 -12.5,-36.45 c 1.78,0.37 3.72,-3.51 4.9,-4.56 c -0.77,-0.93 -2.11,0.38 -2.48,1.15 c -1.16,0.44 -2.24,1.05 -3.23,1.81 c -0.92,-2.18 -1.98,-4.29 -3.18,-6.32 c -0.94,-0.99 -1.84,-1.97 -2.71,-2.94 c 2.64,-2.69 5.13,-5.52 7.48,-8.47 c -0.51,-0.21 -1,-0.15 -1.49,0.17 c -3.7,2.21 -7.4,4.45 -11.08,6.71 c -3.83,-1.3 -7.59,-2.76 -11.29,-4.38 c 5.28,-5.19 10.56,-10.36 15.84,-15.52 c -1.55,-0.76 -1.8,1.1 -2.91,1.71 c -5.68,2.86 -11.26,5.94 -16.73,9.23 c -0.57,0.76 -1.25,1.41 -2.04,1.93 c -3.6,-1.4 -6.64,-3.55 -9.13,-6.48 c 0.93,-0.74 4.15,-2.28 4.05,-3.64 c 0.63,-0.31 3.81,-1.16 2.76,-2.32 c -1.54,0.06 -2.46,0.83 -2.76,2.32 c -1.45,-0.74 -3.65,1.12 -4.7,2.02 c -0.7,-0.25 -1.12,-0.75 -1.26,-1.49 c -1.5,-5.6 -2.16,-16.74 -0.75,-22.04 c 0.58,-0.04 1.12,-0.22 1.6,-0.55 c 1.76,-1.94 15.45,-11.54 15.09,-13.21 c 0.47,-0.06 0.95,-0.11 1.42,-0.16 c 1.19,-0.49 2.07,-1.32 2.65,-2.48 c -0.92,-0.63 -2.2,0.82 -2.93,1.34 c -0.42,0.23 -0.84,0.45 -1.26,0.68 c -5.64,3.19 -11.24,6.44 -16.82,9.74 c -0.21,-17.82 2.22,-24.62 20.53,-29.12 c -2.76,3.78 -5.65,7.47 -8.66,11.06 c -0.31,0.38 -0.47,0.81 -0.49,1.29 c 0.28,0.23 0.56,0.21 0.84,-0.04 c 17.3,-10.18 34.66,-20.25 52.08,-30.22 Z M 474.22,302.03 c -0.08,0.29 -0.16,0.59 -0.24,0.89 c -1.38,0.98 -2.65,2.1 -3.81,3.34 c -0.26,-0.06 -0.53,-0.12 -0.8,-0.17 c 0.2,-3.01 1.82,-4.37 4.85,-4.06 Z M 71.91,340.07 c 0.1,0.72 0.42,0.88 0.97,0.49 c -0.17,-0.43 -0.5,-0.6 -0.97,-0.49 Z M 96.82,362.15 c 0.27,-0.09 1.84,-0.56 0.82,-1.07 c -0.48,0.2 -0.75,0.55 -0.82,1.07 Z M 427.79,388.11 c 0.31,-0.07 1.78,-0.46 0.74,-0.96 c -0.48,0.14 -0.73,0.46 -0.74,0.96 Z M 94.28,433.06 c 0.71,1.58 3.08,0.02 2.21,-1.16 c -0.85,0.16 -1.59,0.55 -2.21,1.16 Z M 200.98,436.31 c 0.03,-0.89 -0.4,-1.28 -1.3,-1.18 c -0.42,0.5 -2.17,1.83 -1.17,2.45 c 0.83,-0.4 1.65,-0.83 2.47,-1.27 Z M 319.02,449.93 c -0.97,-0.12 -1.63,0.26 -1.99,1.14 c -1.34,-0.07 -2.36,0.45 -3.05,1.56 c 0.85,1.12 2.7,-0.61 3.05,-1.56 c 1.05,0.21 1.72,-0.17 1.99,-1.14 c 0.5,-0.17 4.03,-1.05 2.54,-1.96 c -1.46,-0.1 -2.31,0.55 -2.54,1.96 Z M 215.77,458.02 c 0.19,2.05 2.73,0.58 2.6,-0.9 c -0.95,0.05 -1.82,0.35 -2.6,0.9 Z M 291.33,468.92 c 0.11,-0.01 0.23,-0.02 0.34,-0.03 c -4.62,11.56 -4.89,27.18 -19.7,30.21 c 1.89,-2.47 3.8,-4.95 5.72,-7.46 c -0.87,-0.82 -2.92,0.97 -3.77,1.32 c -0.38,0.16 -0.76,0.34 -1.13,0.53 c -1.42,1.34 -8.41,4.09 -8.53,5.77 c -5.59,0.03 -11.18,0.19 -16.76,0.47 c -0.68,0.15 -1.13,-0.07 -1.35,-0.67 c 15.05,-10.06 30.11,-20.1 45.18,-30.14 Z"/></g>
<g><path fill="#87b1d4" fill-opacity="0.537" d="M 94.28,433.06 c 0.62,-0.61 1.36,-1 2.21,-1.16 c 0.87,1.18 -1.5,2.74 -2.21,1.16 Z"/></g>
<g><path fill="#8aafd0" fill-opacity="0.275" stroke="#8aafd0" stroke-width="0.5" stroke-opacity="0.275" d="M 430.93,386.05 c -0.79,0.66 -0.79,0.66 0,0 Z"/></g>
<g><path fill="#87afcf" fill-opacity="0.125" stroke="#87afcf" stroke-width="0.5" stroke-opacity="0.125" d="M 96.82,362.15 c 0.07,-0.52 0.34,-0.87 0.82,-1.07 c 1.02,0.51 -0.55,0.98 -0.82,1.07 Z"/></g>
<g><path fill="#85add6" fill-opacity="0.098" stroke="#85add6" stroke-width="0.5" stroke-opacity="0.098" d="M 71.91,340.07 c 0.47,-0.11 0.8,0.06 0.97,0.49 c -0.55,0.39 -0.87,0.23 -0.97,-0.49 Z"/></g>
<g><path fill="#8cabd1" fill-opacity="0.251" stroke="#8cabd1" stroke-width="0.5" stroke-opacity="0.251" d="M 21.75,276.26 c 0.3,-1.49 1.22,-2.26 2.76,-2.32 c 1.05,1.16 -2.13,2.01 -2.76,2.32 Z"/></g>
<g><path fill="#8bacd1" fill-opacity="0.439" d="M 319.16,81.91 c 0.4,-1.14 1.25,-2.7 2.66,-2.21 c -0.34,1.37 -1.23,2.11 -2.66,2.21 Z"/></g>
<g><path fill="#627c90" fill-opacity="0.588" d="M 469.37,306.09 c 0.27,0.05 0.54,0.11 0.8,0.17 c -0.3,0.33 -0.61,0.65 -0.93,0.95 c 0.04,-0.37 0.09,-0.75 0.13,-1.12 Z M 440.95,349.97 c -0.12,0.55 -0.45,0.91 -0.98,1.07 c 0.25,-0.43 0.58,-0.78 0.98,-1.07 Z"/></g>
<g><path fill="#8baed1" fill-opacity="0.086" stroke="#8baed1" stroke-width="0.5" stroke-opacity="0.086" d="M 439.28,233.91 c 0.34,0.38 0.37,0.77 0.08,1.19 c -0.02,-0.4 -0.05,-0.79 -0.08,-1.19 Z"/></g>
<g><path fill="#87b0d2" fill-opacity="0.267" d="M 248.31,43.27 c -0.39,0.31 -0.81,0.57 -1.27,0.77 c 0.15,-0.68 0.57,-0.93 1.27,-0.77 Z M 222.33,58.26 c -0.39,0.32 -0.82,0.57 -1.29,0.76 c 0.16,-0.7 0.59,-0.95 1.29,-0.76 Z M 411.32,386.27 c -0.39,0.31 -0.81,0.56 -1.27,0.76 c 0.12,-0.72 0.54,-0.97 1.27,-0.76 Z M 307.32,446.27 c -0.39,0.31 -0.81,0.57 -1.27,0.77 c 0.13,-0.7 0.56,-0.96 1.27,-0.77 Z"/></g>
<g><path fill="#8aaed2" fill-opacity="0.333" stroke="#8aaed2" stroke-width="0.5" stroke-opacity="0.333" d="M 221.92,38 c 0.25,-0.03 0.5,-0.05 0.76,-0.08 c -0.1,1 -0.36,1.02 -0.76,0.08 Z"/></g>
<g><path fill="#262626" fill-opacity="0.996" stroke="#262626" stroke-width="0.5" stroke-opacity="0.996" d="M 409.73,60.27 c 1.01,0.63 2.11,0.94 3.31,0.94 c 7.68,0.05 20.29,12.4 24.83,18.42 c 8.85,7.72 18.69,16.63 15.81,29.69 c -0.93,7.14 -11.59,25.52 -11.59,30.04 c 12.52,20.69 21.77,42.74 27.73,66.17 c -0.08,0.82 -0.12,1.62 -0.15,2.39 c 13,7.55 36.35,7.95 39.21,26.58 c 0.32,15.98 4.65,34.72 -4.06,49.2 c -0.49,0.28 -0.84,0.69 -1.04,1.23 c -6.38,8.89 -17.53,12.71 -27.45,16.18 c -0.66,-0.04 -2.14,-0.09 -2.11,0.92 c -3.03,-0.31 -4.65,1.05 -4.85,4.06 c -0.04,0.37 -0.09,0.75 -0.13,1.12 c -6.39,23.14 -15.04,43.73 -27.17,64.41 c -0.5,3.75 10.36,19.61 10.81,25.91 c 6.73,21.46 -18.14,35.17 -30.53,48.21 c -14.93,12.85 -35.19,3.15 -49.94,-4.76 c -0.62,-0.21 -1.25,-0.24 -1.89,-0.09 c -18.54,10.62 -38.58,20.08 -59.46,24.94 c -0.63,0.09 -1.03,0.44 -1.18,1.05 c -0.23,0.02 -0.45,0.04 -0.68,0.07 c -2.91,-0.12 -3.99,0.22 -4.38,3.23 c -5.07,17.67 -12.16,36.08 -33.33,37.62 c -13.4,-1.05 -36.93,3.79 -48.08,-4.56 c -9.03,-7.26 -14.17,-31.2 -18.08,-35.09 c -24.2,-5.91 -45.37,-15.06 -66.82,-27.47 c -2.93,0.41 -16.36,7.61 -20.86,8.51 c -23.4,8.39 -32.21,-6.51 -47.35,-19.99 c -21.21,-19.76 -9.1,-31.84 -0.73,-54.16 c 1.76,-3.69 -0.94,-4.79 -2.65,-7.48 c -8.9,-14.36 -23.6,-46.83 -24.14,-62.88 c -0.2,-0.5 -0.54,-0.86 -1.04,-1.07 c -14.9,-5.93 -38.22,-9.63 -39.24,-29.32 c 0.04,-14.97 -3.16,-32.36 4.77,-45.97 c 0.37,-0.43 0.75,-0.86 1.14,-1.27 c 0.28,-0.29 0.54,-0.58 0.79,-0.89 c 5.21,-6.62 12.61,-10.19 20.31,-13.13 c 3.99,-1.38 7.99,-2.71 11.99,-4.01 c 1.81,-6.16 3.68,-12.33 5.6,-18.48 c 5.67,-17.34 13.21,-33.83 22.61,-49.47 c 0.38,-1.04 0.37,-2.08 -0.04,-3.12 c -10.46,-20.36 -19.35,-33.93 -0.29,-53.07 c 10.62,-8.19 21.31,-24.25 35.59,-24.9 c 0.69,-0.01 1.38,-0.02 2.07,-0.02 c 6.86,0.29 13.42,1.87 19.68,4.73 c 2.77,0.77 12.64,7.07 14.76,6.42 c 21.01,-12.06 41.24,-20.15 64.56,-26.64 c 1.86,-5.37 3.75,-10.76 5.66,-16.15 c 5.68,-13.94 13.24,-22.47 28.8,-24.12 c 17.1,1.55 47.02,-7.17 54.87,13.86 c 1.51,3.52 9.7,24.73 11.29,25.79 c 23.36,5.71 45.34,14.77 65.93,27.17 c 0.62,0.19 1.24,0.2 1.87,0.02 c 10.23,-5.33 23.41,-12.27 35.27,-10.77 Z M 239.97,12.93 c -11.8,2.82 -15.74,14.54 -18.05,25.07 c -6.88,16.74 -14.52,13.08 -29.53,18.87 c -1.91,0.5 -3.67,1.3 -5.28,2.41 c -0.45,-0.03 -0.91,-0.06 -1.36,-0.09 c -0.31,0.02 -0.61,0.05 -0.91,0.07 c -0.45,0.15 -0.82,0.42 -1.09,0.81 c -0.73,-0.04 -1.39,0.14 -2,0.53 c -13.01,4.74 -24.71,11.23 -36.73,17.97 c -2.44,1.22 -5.03,1.75 -7.76,1.61 c -3.85,-0.24 -7.56,-2.48 -11.23,-3.56 c -1.53,-0.86 -3.08,-1.69 -4.64,-2.5 c -0.38,0.02 -0.75,0.03 -1.13,0.05 c -1.36,-2.15 -8.73,-4.72 -11.32,-3.97 c -0.34,-0.1 -0.68,-0.2 -1.02,-0.3 c -0.03,-1 -0.95,0.14 -1.48,-0.11 c -0.38,-0.42 -1.38,-1 -1.37,0.03 c -10.41,1.09 -31.03,22.44 -34.05,32.38 c -0.14,1.16 -0.17,2.32 -0.08,3.48 c -0.31,4.13 1.75,7.76 3.28,11.44 c 0.76,0.73 1.46,3.76 2.55,3.65 c -0.04,1.28 3.36,9.88 4.04,10.08 c 0.16,2.06 0.62,4.06 1.39,5.98 c 1.58,5.57 -4.15,10.37 -6.02,15.25 c -0.14,0.29 -0.27,0.58 -0.41,0.87 c -1.36,1.95 -2.43,4.05 -3.2,6.3 c -8.49,16.09 -14.69,33.03 -18.6,50.82 c -2.76,6.26 -12.14,7.49 -17.74,10.08 c -0.62,-0.04 -0.93,0.24 -0.91,0.84 c -18.31,4.5 -20.74,11.3 -20.53,29.12 c -0.18,1.57 -0.09,3.12 0.25,4.64 c -1.41,5.3 -0.75,16.44 0.75,22.04 c 0.14,0.74 0.56,1.24 1.26,1.49 c -0.06,0.66 0.16,1.2 0.65,1.62 c 2.49,2.93 5.53,5.08 9.13,6.48 c 1.94,0.9 3.89,1.78 5.84,2.65 c 3.7,1.62 7.46,3.08 11.29,4.38 c 1.5,1.21 3.2,1.74 5.09,1.59 c 0.87,0.97 1.77,1.95 2.71,2.94 c 1.2,2.03 2.26,4.14 3.18,6.32 c 0.17,0.58 0.44,1.12 0.81,1.6 c 2.39,6.41 8.39,33.24 12.5,36.45 c -0.08,0.98 0.23,1.84 0.95,2.56 c 3.42,9.03 10.13,16.74 13.46,25.69 c -1,5.34 -9.33,20.7 -11.13,27.31 c -0.74,1.87 -1.19,3.82 -1.34,5.83 c -0.6,2.83 1.42,10.01 3.92,11.37 c 0.06,0.45 0.23,0.84 0.52,1.18 c 1.83,2.91 4.62,6.17 7.57,7.96 c 0.59,1.2 1.5,2.11 2.72,2.72 c 2.58,2.61 5.31,5.05 8.2,7.33 c 0.1,0.3 0.27,0.55 0.51,0.74 c 2.44,3.15 5.38,5.87 9.54,6.18 c 0.23,0.57 0.67,0.84 1.32,0.82 c 4.61,0.54 9.07,-0.04 13.39,-1.74 c 0.72,-0.11 2.12,-0.36 1.85,-1.41 c 9.88,-1.81 16.74,-11.15 28.36,-5.64 c 0.43,0.48 0.96,0.63 1.6,0.47 c 0.92,1.97 8.37,6.27 10.55,6.18 c -0.04,0.54 0.18,0.92 0.66,1.16 c 0.89,0.49 1.84,0.75 2.85,0.77 c 6.72,5.12 40.9,17.62 50.73,18.21 c 0.5,0.18 0.84,0.52 1.03,1.01 c 1.69,3.01 3.31,6.05 4.86,9.13 c 0.77,1.61 1.49,3.24 2.15,4.9 c 0.79,1.8 2.26,7.98 3.58,8.98 c -0.02,0.43 -0.05,0.87 -0.08,1.3 c 0.79,1.15 1.4,4.19 2.76,4.62 c 0.99,3.46 4.79,7.12 8.48,7.3 c -0.21,1.62 7.7,2.28 8.89,1.82 c 0.22,0.6 0.67,0.82 1.35,0.67 c 5.58,-0.28 11.17,-0.44 16.76,-0.47 c -0.01,0.11 -0.02,0.21 -0.02,0.32 c 2.58,0.16 5.16,0.01 7.73,-0.48 c 14.81,-3.03 15.08,-18.65 19.7,-30.21 c 0.2,-0.27 0.39,-0.54 0.59,-0.81 c 1,-1.35 2.02,-2.69 3.03,-4.02 c 1.19,-0.24 2.1,-0.88 2.72,-1.93 c 0.78,-0.1 1.44,-0.43 1.96,-1 c 0.76,-0.24 1.48,-0.55 2.17,-0.95 c 0.77,-0.06 1.41,-0.36 1.91,-0.92 c 14.94,-3.06 30.99,-9.08 44.58,-16.07 c 6.46,-2.8 17.47,-10.76 23.6,-12.21 c 1.48,0.2 2.93,0.15 4.36,-0.13 c 0.6,1.15 8.6,4.02 10.37,4.81 c 2.58,1.4 5.26,2.58 8.04,3.52 c 3.16,2.55 13.32,3.88 17.18,1.58 c 1.12,0.15 4.45,-1.59 4.75,-2.71 c 0.48,-0.14 0.83,-0.43 1.05,-0.88 c 5.45,-5.49 16.7,-14.75 19.91,-21.36 c 0.13,-0.31 0.26,-0.63 0.39,-0.94 c 1.31,-1.46 2.11,-3.18 2.38,-5.15 c 0.06,-0.74 0.12,-1.55 0.17,-2.43 c 0.4,-4.03 -0.19,-7.91 -1.75,-11.66 c -0.15,-0.61 -0.47,-1.11 -0.96,-1.49 c -0.28,-2.78 -2.56,-6.76 -4.06,-9.16 c -0.23,-0.46 -0.58,-0.8 -1.06,-1.02 c 0.37,-2.28 -2.71,-5.82 -3.11,-8.25 c -3.18,-4.46 8.45,-17.92 9.75,-23.01 c 0.44,0.3 0.3,-1.46 0.33,-1.66 c 0.53,-0.16 0.86,-0.52 0.98,-1.07 c 1.52,-3.29 4.79,-8.77 5.14,-12.19 c 0.54,-0.06 0.76,-0.37 0.65,-0.93 c 0.6,-0.77 0.96,-1.64 1.06,-2.6 c 4.22,-10.03 7.59,-20.35 10.09,-30.95 c 5.42,-15.01 34.31,-7.96 38.9,-29.46 c 0.07,-1.85 0.09,-3.71 0.07,-5.56 c 0.24,-4.12 0.28,-8.24 0.11,-12.36 c 0.08,-0.33 0.16,-0.66 0.23,-0.99 c 0.15,-1.9 0.13,-3.81 -0.03,-5.71 c 0.27,-4.19 -0.09,-8.32 -1.06,-12.39 c -0.41,-1.76 -1.2,-3.34 -2.35,-4.73 c -1.92,-3.51 -5.28,-5.78 -8.9,-7.28 c -0.51,-0.42 -1.05,-0.79 -1.61,-1.13 c -3.68,-1.6 -7.41,-3.05 -11.19,-4.35 c -0.35,-0.15 -0.7,-0.31 -1.05,-0.47 c -0.86,-0.33 -1.73,-0.6 -2.62,-0.81 c -0.36,0.02 -0.71,0.04 -1.06,0.07 c -1.24,-2.04 -6.6,-1.71 -8.65,-5.27 c 0,-0.34 -0.11,-0.63 -0.33,-0.88 c -0.21,-0.36 -0.41,-0.71 -0.62,-1.06 c -1.22,-3.6 -2.25,-7.26 -3.08,-10.98 c 0.04,-0.33 0.08,-0.67 0.12,-1 c -0.12,-0.41 -0.36,-0.73 -0.7,-0.98 c -0.01,-2.71 -5.63,-19.64 -6.85,-20.83 c -0.27,-1.09 -0.72,-2.1 -1.36,-3.03 c -1.42,-3.9 -3.09,-7.69 -5.01,-11.38 c -0.51,-0.93 -1.05,-1.84 -1.62,-2.73 c -1.13,-2.58 -4.05,-9.18 -6.47,-10.39 c 0.15,-0.87 -0.2,-1.37 -1.07,-1.53 c 0.59,-1.31 -2.78,-4.49 -2.48,-6.56 c 0.52,-2.84 1.11,-5.68 1.78,-8.5 c 0.75,-0.48 1.05,-1.18 0.89,-2.08 c 0.62,-0.12 0.93,-0.51 0.93,-1.16 c 3.65,-7.12 7.4,-13.89 8.99,-21.82 c -0.05,-0.96 -0.1,-1.91 -0.15,-2.87 c 0.33,-3.28 -1.92,-7.2 -4.56,-9.05 c -0.4,-1.27 -1.07,-2.39 -1.99,-3.36 c -2.56,-2.66 -5.26,-5.16 -8.1,-7.51 c -1.01,-1.26 -2.23,-2.27 -3.64,-3.04 c -1.87,-2.13 -4.81,-6.22 -7.39,-7.28 c -0.77,-1.68 -3.73,-3.91 -5.57,-3.66 c -5.66,-7.04 -27.89,6.85 -34.94,8.49 c -4.7,0.78 -9.16,0.1 -13.39,-2.05 c -1.73,-0.98 -3.31,-2.16 -4.73,-3.54 c -0.41,0 -0.81,0.01 -1.22,0.02 c -2.8,-2.34 -6.62,-4.34 -10.17,-5.35 c -0.19,-0.38 -0.49,-0.66 -0.88,-0.84 c -0.4,-0.02 -0.8,-0.03 -1.21,-0.05 c 0.04,-0.35 -0.1,-0.62 -0.43,-0.79 c -6.06,-2.72 -12.2,-5.24 -18.42,-7.58 c -1.02,-0.35 -2.07,-0.59 -3.15,-0.71 c -0.69,-0.81 -1.54,-1.01 -2.56,-0.61 c -1.08,-1.73 -11.14,-4.15 -13.52,-4.41 c -0.23,-0.78 -4.51,-1.34 -5.49,-1.72 c -0.4,0.01 -0.8,0.02 -1.21,0.02 c -2.92,-1.95 -5.31,-4.43 -7.16,-7.42 c -0.64,-1.55 -1.24,-3.1 -1.82,-4.67 c -0.14,-0.33 -0.27,-0.66 -0.41,-0.99 c -1.72,-4.85 -3.12,-12.08 -5.85,-16.29 c 0.05,-0.62 -0.03,-1.22 -0.24,-1.81 c -1.12,-1.85 -2.55,-3.44 -4.27,-4.75 c -3.76,-2.38 -7.92,-3.62 -12.38,-2.9 c -0.62,-0.19 -1.26,-0.28 -1.92,-0.25 c -3.48,0.01 -13.09,-0.84 -15.84,-0.23 c -1.99,-1.41 -6.81,0.25 -9.22,0.18 Z M 241.59,74.15 c 6.2,-0.15 12.39,-0.27 18.58,-0.36 c 2.33,0.08 10.92,0.88 12.45,0.01 c 1.63,1.41 11.89,1.8 14.69,2.17 c 1.43,0.52 2.89,0.84 4.4,0.95 c 5.35,0.2 23.64,7.25 27.45,4.99 c -0.57,0.81 -0.5,1.53 0.2,2.16 c 3.48,1.23 6.98,2.43 10.48,3.59 c 0.35,0.2 0.7,0.41 1.05,0.61 c 1.98,0.81 3.94,1.66 5.88,2.55 c 6.84,3.28 13.56,6.81 20.15,10.59 c 1.34,0.86 4.33,3.39 5.79,3.38 c 1.35,2.16 6.24,4.5 8.18,6.65 c 1.25,0.97 2.57,1.82 3.96,2.54 c 2.53,2.62 5.21,5.08 8.05,7.38 c 0.92,0.96 1.85,1.91 2.8,2.84 c 2.43,2.44 4.81,4.91 7.17,7.42 c 1.22,0.61 2.95,-0.94 3.9,-1.63 c 0.72,-0.23 1.24,-0.02 1.54,0.64 c -1.57,0.29 -3.44,2 -2.86,3.77 c 1.85,2.29 3.68,4.6 5.49,6.94 c 1.27,1.57 2.59,3.09 3.95,4.57 c 1.89,3.11 3.88,6.17 5.97,9.16 c 0.62,1.02 1.23,2.03 1.86,3.04 c 1.13,1.21 5.05,9.73 6.18,9.8 c -0.05,0.87 0.24,1.59 0.88,2.14 c 0.18,0.38 0.37,0.76 0.55,1.13 c 1.31,3.55 2.92,6.96 4.82,10.24 c 0.21,1.28 0.61,2.51 1.18,3.69 c 2.67,6.97 5.11,14.03 7.32,21.16 c 0.07,0.21 0.14,0.41 0.21,0.62 c 0.12,0.39 0.24,0.78 0.37,1.17 c 0.37,2.14 1.58,10.05 2.93,11.22 c -0.1,0.63 -0.12,1.26 -0.08,1.9 c 0.58,3.58 1.01,9.6 2.2,12.73 c 0.03,0.4 0.06,0.79 0.08,1.19 c -0.35,2.99 0.49,8.78 1.01,11.91 c 0.01,0.41 0.01,0.82 0.02,1.23 c -0.04,0.22 -0.07,0.45 -0.11,0.67 c -0.16,4.1 -0.22,8.21 -0.17,12.31 c 0.02,1.57 -0.07,3.14 -0.28,4.69 c 0.11,0.36 0.22,0.72 0.33,1.08 c -0.61,4.31 -1.08,8.64 -1.42,12.98 c -0.38,2 -0.68,4.01 -0.9,6.03 c -1,5.07 -1.95,10.14 -2.84,15.22 c -0.82,1.45 -1.26,3.01 -1.33,4.67 c 0.19,0.34 0.37,0.68 0.55,1.03 c -0.8,0.15 -1.33,0.61 -1.58,1.39 c -1.65,5 -3.21,10.02 -4.67,15.05 c -1.4,1.97 -2.39,4.12 -2.99,6.46 c -8.26,16.78 -17.5,31.51 -30.17,45.36 c -0.43,0.51 -0.74,1.09 -0.94,1.73 c -0.51,0.13 -0.91,0.41 -1.2,0.84 c -6,6.1 -15.01,13.05 -20.6,18.83 c -4.25,2.68 -8.26,5.68 -12.05,8.99 c -0.31,0.27 -0.66,0.32 -1.03,0.15 c -0.48,0.37 -0.9,0.78 -1.28,1.24 c -0.41,0.43 -0.86,0.8 -1.37,1.11 c -7.31,4.08 -14.72,7.94 -22.24,11.6 c -11,5.31 -22.51,8.71 -34.12,12.37 c -4.83,0.6 -9.57,1.6 -14.24,2.98 c -2.33,-0.29 -4.54,0.09 -6.64,1.14 c -1.3,-0.32 -2.59,-0.33 -3.89,-0.02 c -5.76,0.57 -11.54,0.93 -17.34,1.08 c -2.19,-0.09 -4.38,-0.11 -6.57,-0.07 c -15.11,0.17 -28.12,-2.12 -42.82,-4.92 c -1.8,-0.32 -2.73,0.87 -4.2,1.5 c -0.37,0.1 -0.7,0.03 -0.98,-0.2 c 1.38,-2.27 2.34,-1.91 -1.15,-3.22 c -2.73,-0.83 -5.46,-1.68 -8.18,-2.55 c -1.69,-0.82 -5.99,-2.26 -7.73,-1.72 c -0.67,-1.78 -8.89,-4.24 -10.86,-5.13 c -1.88,-0.86 -2.74,1.95 -4.84,1.92 c -2.58,-1.67 2.89,-1.47 1,-3.77 c -3.33,-2.03 -6.81,-3.76 -10.45,-5.17 c -0.53,-1.41 -2.89,-1.93 -4.05,-2.81 c -0.35,0 -0.69,0.01 -1.03,0.02 c -0.07,-0.7 -0.4,-1.24 -1.01,-1.6 c -5.87,-3.58 -11.49,-7.51 -16.87,-11.8 c -1.04,-1.42 -2.4,-2.35 -4.07,-2.8 c -0.19,-1.61 -6.12,-6.48 -7.67,-7.25 c -0.23,-0.7 -0.65,-1.26 -1.27,-1.67 c -2.27,-2.5 -4.62,-4.95 -7.04,-7.33 c -1.11,-1.4 -2.37,-2.65 -3.77,-3.75 c -2.71,-3.48 -9.57,-12.98 -12.57,-15.18 c -0.04,-0.45 0.02,-1.77 -0.8,-1.53 c -4.2,-6.74 -8.15,-13.63 -11.87,-20.66 c -0.44,-0.79 -0.86,-1.59 -1.25,-2.41 c -5.25,-10.82 -9.36,-22.06 -12.31,-33.71 c -0.9,-2.64 -1.9,-0.75 -3.06,0.18 c -0.96,-1.62 2.46,-2.43 1.73,-5.1 c -0.63,-3.73 -1.25,-7.47 -1.85,-11.2 c -0.12,-0.83 -0.58,-1.25 -1.4,-1.29 c 1.79,-3.41 -0.72,-12.01 -0.15,-16.19 c 0.13,-1.02 -0.1,-1.92 -0.68,-2.71 c 0.57,-14.09 1.66,-27.57 3.98,-41.51 c 0.57,0.03 0.7,-0.23 0.38,-0.8 c 0.51,-1.23 0.79,-2.51 0.83,-3.85 c 1.72,-5.29 3.25,-10.63 4.6,-16.02 c 0.15,-0.27 0.31,-0.54 0.46,-0.82 c 1.16,-2.62 2.11,-5.3 2.86,-8.06 c 11.8,-27.3 26.79,-50.22 48.76,-70.54 c 0.45,-0.42 0.76,-0.93 0.93,-1.53 c 0.53,-0.13 0.9,-0.44 1.1,-0.95 c 1.03,-0.35 1.67,-1.07 1.91,-2.16 c 0.56,-0.15 0.99,-0.47 1.28,-0.97 c 0.57,-0.15 0.86,-0.53 0.88,-1.13 c 0.58,-0.49 1.25,-0.79 2.01,-0.9 c 0.29,-0.15 0.57,-0.32 0.82,-0.51 c 24.64,-19.65 49.69,-31.11 80.3,-38.44 c 6.8,-0.88 13.6,-1.8 20.39,-2.76 Z M 204.32,86.09 c -0.64,-0.01 -1.16,0.25 -1.54,0.76 c -0.18,0.04 -0.36,0.08 -0.54,0.12 c -0.62,0.05 -2.46,0.13 -1.98,1.22 c -0.53,-0.21 -2.56,-0.35 -1.98,0.79 c -1.14,0.01 -2.23,0.22 -3.29,0.63 c -20.62,8.45 -38.99,20.37 -55.1,35.78 c -0.5,0.42 -0.74,0.96 -0.72,1.6 c -0.73,0.2 -1.01,0.68 -0.85,1.44 c -0.64,-0.18 -1.19,-0.05 -1.67,0.39 c -0.39,0.35 -0.72,0.75 -0.99,1.21 c -35.2,32.98 -52.72,78.54 -52.37,126.47 c 0.33,46.48 21.03,95.34 55.18,127.03 c 0.37,-0.2 0.55,-0.52 0.52,-0.98 c -0.09,-38.83 13.78,-67.29 41.97,-93.18 c 0.51,-0.43 0.98,-0.89 1.41,-1.4 c 9.64,-6.38 18.95,-12.39 29.61,-16.98 c 0.53,-0.19 0.95,-0.51 1.28,-0.96 c 0.24,0.06 0.48,0.12 0.72,0.18 c 0.59,-0.22 1.04,-0.6 1.33,-1.16 c 1.14,-0.78 2.34,-1.4 3.59,-1.86 c 0.64,-0.05 1.12,-0.34 1.44,-0.87 c 0.8,-0.44 1.59,-0.45 2.39,-0.03 c 0.44,0.36 0.93,0.62 1.48,0.78 c 1.23,-0.56 7.49,-1.15 7.54,-2.44 c -2.43,-1.18 -4.91,-2.3 -7.43,-3.39 c -36.16,-19.32 -44.07,-68.89 -25.67,-103.18 c 9.45,-16.97 21.8,-24.24 39.35,-31.05 c 0.51,-0.2 0.96,-0.49 1.35,-0.88 c 18.4,-2.68 31.66,-4.27 48.69,5.27 c 44.01,27.1 49.01,94.84 4.46,124.59 c -4.33,2.72 -8.77,5.18 -13.33,7.39 c 1.45,1.54 3.98,-0.51 5.44,0.95 c 0.42,0.33 0.87,0.61 1.36,0.84 c 2.88,0.37 5.72,1.02 8.49,1.93 c 50.17,15.51 81.97,65.63 78.7,117.42 c 0.04,1.28 0.52,1.47 1.44,0.56 c 19.55,-20.13 34.43,-43.26 44.63,-69.39 c 37.04,-96.92 -27.82,-203.77 -124.17,-230.76 c -0.88,-0.84 -1.93,-1.1 -3.14,-0.79 c -4.07,-1.43 -10.41,-2.89 -14.58,-3.06 c -1.09,-1.22 -4.09,-0.8 -5.58,-1.1 c -6.9,-0.87 -15.59,-1.66 -22.42,-0.97 c -2.55,-0.36 -5.1,-0.39 -7.66,-0.06 c -12.75,0.78 -25.2,3.16 -37.36,7.14 Z M 203.33,207.38 c -1.22,1.42 -0.03,4.84 0.28,6.55 c 0.65,2.39 1.65,8.64 3.43,10.19 c -0.01,0.4 -0.01,0.81 -0.01,1.21 c 0.59,1.29 1.68,4.93 2.95,5.47 c 0.55,1.77 4.78,11.75 7.22,6.95 c 0.99,-0.23 2.64,-2.27 3.6,-1.21 c -1.18,1.13 -2.5,2.06 -3.98,2.78 c -0.68,0.89 -0.68,1.8 0,2.71 c 1.72,1.78 3.43,3.57 5.13,5.35 c 1.23,1.04 2.57,1.91 4,2.61 c 2.21,2.43 5.82,4.65 9.1,5.34 c 0.88,0.6 1.79,1.14 2.74,1.62 c 3.23,1.14 6.52,2.06 9.87,2.79 c 1.17,0.25 2.28,0.1 3.34,-0.44 c 1.1,0.81 2.35,1.28 3.74,1.41 c 34,1.46 53.94,-27.48 55.25,-58.77 c 0.32,-1.24 0.34,-2.48 0.06,-3.72 c 0.3,-7.09 -0.37,-14.09 -2,-20.99 c -0.12,-0.8 -0.55,-1.24 -1.31,-1.33 c 1.05,-1.25 -0.46,-6.32 -1.72,-6.71 c -0.08,-2.96 -2.25,-6.87 -3.97,-9.28 c -0.6,-1.73 -2.32,-4.9 -3.98,-5.74 c -3.71,-7.62 -15.94,-15.6 -23.97,-18.24 c -1.26,-0.83 -2.64,-1.2 -4.15,-1.1 c -1.1,-2.26 -12.42,-3.13 -14.86,-3.03 c -2.74,-0.87 -6.27,0.17 -9.14,0.14 c -19.39,4.17 -32.54,19.19 -38.52,37.56 c 0.62,1.99 2.1,-1.1 3.38,0.01 c -9.86,7.89 -7.22,24.68 -7.46,35.9 c -0.01,0.83 0.32,1.49 0.98,1.97 Z M 231.8,270.92 c -2.23,-0.06 -4.36,0.4 -6.39,1.37 c -36.57,9.67 -61.79,38.44 -70.52,74.76 c -0.8,2.83 -1.4,5.71 -1.81,8.62 c -1.45,7.75 -2.06,15.56 -1.81,23.43 c -0.33,0.95 -0.92,3.78 0.65,3.91 c -1.75,1.7 -1.04,9.01 -0.24,11.01 c -0.53,1.38 2.3,2.6 3.25,3.07 c 2,2.11 5.96,5.19 8.77,5.93 c -0.66,1.33 2.24,1.85 3.14,1.7 c 0.39,2.28 6.31,4.53 8.27,5.61 c 1.09,1.05 2.38,1.62 3.88,1.72 c 0.54,1.74 8.76,4.95 10.66,4.97 c -0.21,0.64 0.05,1.01 0.79,1.09 c 1.45,0.81 3,1.17 4.64,1.1 c -0.16,1.48 10.46,4.44 12.15,4.83 c 1.83,0.69 4.77,2.04 6.71,1.65 c 3.09,1.85 10.63,3.42 14.03,3.05 c 0.4,1.54 3.14,1.15 4.33,1.47 c 1.51,0 3,0.21 4.46,0.65 c 6.51,0.73 12.73,1.34 19.32,1.34 c 3.02,-0.25 8.04,0.51 10.73,-0.69 c 1.82,1.83 15.1,-0.96 18.18,-1.1 c 4.42,-0.83 36.42,-7.45 37.03,-10.14 c 3.32,-1.11 6.56,-2.42 9.72,-3.93 c 0.69,-0.2 1.13,-0.63 1.34,-1.3 c 7.05,-2.53 18.88,-10.45 25.01,-15.36 c 2.9,-1.84 2.77,-3.54 3.01,-6.73 c 0,-0.62 0.01,-1.24 0.04,-1.86 c -0.05,-4.04 -0.05,-8.08 -0.01,-12.13 c -0.16,-2.26 -0.29,-4.53 -0.39,-6.81 c -0.92,-2.46 -0.1,-8.77 -2.06,-10.29 c 0.49,-2.27 0.24,-4.47 -0.72,-6.6 c -0.24,-1.61 -1.58,-9.72 -2.83,-10.26 c -0.1,-1.77 -0.44,-3.5 -1.04,-5.18 c -1.3,-1.59 -2.49,-8.09 -4.19,-8.9 c -0.21,-1.71 -0.84,-3.25 -1.9,-4.63 c -0.75,-1.68 -3.37,-7.75 -4.96,-8.32 c -0.12,-1.34 -0.78,-2.29 -1.99,-2.84 c -0.56,-2.54 -3.15,-5.86 -5.24,-7.43 c -0.33,-1.06 -0.92,-1.94 -1.8,-2.64 c -2,-2.66 -4.29,-5.03 -6.87,-7.13 c -0.82,-1.2 -1.85,-2.2 -3.08,-2.99 c -1.92,-1.86 -5.63,-5.62 -8.29,-5.96 c -0.25,-1.71 -2.11,-2.09 -3.37,-2.87 c -6.05,-4.15 -12.51,-7.53 -19.36,-10.15 c -2.3,-1.08 -7.54,-3.49 -9.93,-2.77 c -0.23,-0.68 -0.7,-1.08 -1.43,-1.2 c -3.31,-0.46 -8.01,-2.53 -11.22,-1.44 c -6.11,-3.59 -31.13,-2.34 -38.66,0.37 Z"/></g>
<g><path fill="#575d7b" fill-opacity="0.29" stroke="#575d7b" stroke-width="0.5" stroke-opacity="0.29" d="M 239.35,126.13 c -0.39,0.39 -0.84,0.68 -1.35,0.88 c 0.18,-0.68 0.63,-0.97 1.35,-0.88 Z M 220.34,266.32 c -0.32,0.53 -0.8,0.82 -1.44,0.87 c 0.21,-0.73 0.69,-1.02 1.44,-0.87 Z M 275.01,327.85 c -0.2,1.66 -1.87,1.61 -3.12,2.03 c 0.57,-1.35 1.61,-2.03 3.12,-2.03 Z M 303.16,340.84 c -0.4,0.94 -1.12,1.34 -2.15,1.21 c 0.42,-0.88 1.14,-1.28 2.15,-1.21 Z M 203.97,363.99 c -0.26,1.53 -3.53,2.98 -4.78,3.87 c -0.09,-0.4 -0.18,-0.8 -0.28,-1.2 c 1.46,-1.33 3.14,-2.22 5.06,-2.67 Z M 323.96,433.97 c -0.18,0.65 -0.6,0.9 -1.29,0.77 c 0.39,-0.32 0.82,-0.58 1.29,-0.77 Z"/></g>
<g><path fill="#7599b4" fill-opacity="0.835" d="M 202.24,86.97 c -0.41,0.8 -1.07,1.21 -1.98,1.22 c -0.48,-1.09 1.36,-1.17 1.98,-1.22 Z M 200.26,88.19 c -0.52,0.62 -1.17,0.88 -1.98,0.79 c -0.58,-1.14 1.45,-1 1.98,-0.79 Z"/></g>
<g><path fill="#586d7f" d="M 106.44,69.79 c -0.45,0.01 -0.91,0.02 -1.37,0.03 c -0.01,-1.03 0.99,-0.45 1.37,-0.03 Z"/></g>
<g><path fill="#575d7a" fill-opacity="0.996" stroke="#575d7a" stroke-width="0.5" stroke-opacity="0.996" d="M 244.95,131.94 c 0.05,0.45 -0.1,0.81 -0.46,1.09 c -4.59,3.9 -8.97,8.02 -13.15,12.36 c 0.54,0.15 1.06,0.07 1.55,-0.24 c 6.76,-3.84 13.51,-7.71 20.24,-11.61 c 0.61,-0.42 0.93,-1 0.96,-1.74 c 2.44,-0.1 13.76,0.77 14.86,3.03 c -4.17,3.01 -8.23,6.17 -12.18,9.48 c -1.23,0.48 -2.13,1.33 -2.7,2.54 c -1.31,0.11 -2.28,0.73 -2.91,1.84 c 0.92,1.23 2.53,-1.02 2.91,-1.84 c 1.5,0.05 2.83,-0.41 4.01,-1.4 c 2.66,-2.31 13.65,-7 15.02,-9.52 c 8.03,2.64 20.26,10.62 23.97,18.24 c -12.38,9.48 -24.75,18.96 -37.11,28.44 c -0.46,0.29 -0.73,0.69 -0.84,1.21 c -1.28,0.22 -2.28,0.83 -3.01,1.85 c 0.9,1.37 2.64,-0.99 3.01,-1.85 c 0.89,-0.03 1.72,-0.25 2.5,-0.65 c 5.39,-3.44 37.25,-20.92 39.43,-23.26 c 1.72,2.41 3.89,6.32 3.97,9.28 c -12.19,9.27 -24.39,18.5 -36.62,27.7 c -0.25,0.28 -0.3,0.58 -0.15,0.92 c -0.86,-0.05 -1.57,0.24 -2.11,0.89 c 0.68,0.99 1.9,-0.1 2.11,-0.89 c 1.17,-0.42 2.3,-0.95 3.39,-1.57 c 11.72,-6.73 23.42,-13.52 35.1,-20.34 c 0.76,0.09 1.19,0.53 1.31,1.33 c 1.63,6.9 2.3,13.9 2,20.99 c -5.75,4 -11.45,8.07 -17.11,12.21 c -0.51,0.35 -0.79,0.83 -0.85,1.44 c -0.76,0.11 -1.48,0.33 -2.18,0.65 c -1.28,1.02 -1.14,1.41 0.41,1.18 c 0.78,-0.43 1.37,-1.03 1.77,-1.83 c 0.88,-0.12 1.71,-0.39 2.49,-0.81 c 5.21,-2.93 10.35,-5.96 15.41,-9.12 c -1.31,31.29 -21.25,60.23 -55.25,58.77 c 2.62,-1.77 5.15,-3.66 7.59,-5.67 c 1.12,-0.77 1.99,-1.74 2.64,-2.93 c 0.69,-0.26 3.47,-0.95 2.53,-2.13 c -1.42,0.07 -2.27,0.78 -2.53,2.13 c -1.52,0 -2.87,0.49 -4.06,1.46 c -3.23,2.02 -6.54,3.93 -9.91,5.73 c -1.06,0.54 -2.17,0.69 -3.34,0.44 c -3.35,-0.73 -6.64,-1.65 -9.87,-2.79 c 0.08,-0.41 0.32,-0.71 0.7,-0.9 c 3.76,-2.57 7.48,-5.21 11.16,-7.93 c 0.25,-0.27 0.32,-0.58 0.21,-0.93 c 0.84,0.02 1.5,-0.29 2.01,-0.93 c -0.66,-0.93 -1.89,0.14 -2.01,0.93 c -0.62,0.16 -1.23,0.37 -1.82,0.62 c -4.32,2.51 -8.65,5.02 -12.99,7.52 c -3.28,-0.69 -6.89,-2.91 -9.1,-5.34 c 6.44,-4.64 16.41,-11.74 21.94,-16.78 c 0.8,-0.01 3.72,-1.21 2.68,-2.25 c -1.43,0.13 -2.32,0.88 -2.68,2.25 c -3.5,0.34 -21.34,11.9 -25.94,14.17 c -1.7,-1.78 -3.41,-3.57 -5.13,-5.35 c -0.68,-0.91 -0.68,-1.82 0,-2.71 c 1.48,-0.72 2.8,-1.65 3.98,-2.78 c -0.96,-1.06 -2.61,0.98 -3.6,1.21 c -2.44,4.8 -6.67,-5.18 -7.22,-6.95 c 13.27,-10.1 26.52,-20.13 39.77,-30.11 c -1.42,-1.32 -4.18,1.98 -5.39,2.45 c -12.13,6.93 -24.26,13.88 -36.38,20.84 c -0.31,0.05 -0.63,0.09 -0.94,0.14 c -1.78,-1.55 -2.78,-7.8 -3.43,-10.19 c 0.89,0.29 1.73,0.18 2.51,-0.33 c 12.52,-9.68 25.02,-19.37 37.52,-29.06 c -1.94,-0.41 -4.1,1.82 -5.47,2.98 c -11.68,6.49 -23.3,13.11 -34.84,19.86 c -0.66,-0.48 -0.99,-1.14 -0.98,-1.97 c 0.24,-11.22 -2.4,-28.01 7.46,-35.9 c -1.28,-1.11 -2.76,1.98 -3.38,-0.01 c 5.98,-18.37 19.13,-33.39 38.52,-37.56 Z M 302.08,191.02 c -0.83,-0.2 -1.49,0.04 -1.98,0.71 c 0.58,1 1.93,0.17 1.98,-0.71 c 0.67,-0.37 3.67,-0.89 2.5,-2.1 c -1.44,0.01 -2.28,0.71 -2.5,2.1 Z M 225.81,233.19 c 0.64,-0.17 4.11,-1.08 2.74,-2.15 c -1.44,0.07 -2.36,0.78 -2.74,2.15 Z M 283.11,273.19 c -18.7,13.41 -37.34,26.89 -55.91,40.46 c -1.06,0.44 -2.04,1.01 -2.91,1.71 c 0.49,0.48 1.07,0.61 1.74,0.38 c 2.83,-1.89 5.71,-3.74 8.63,-5.55 c 19.16,-10.83 38.26,-21.78 57.29,-32.85 c 0.46,-0.38 0.82,-0.84 1.09,-1.38 c 6.85,2.62 13.31,6 19.36,10.15 c -9.89,6.74 -19.8,13.46 -29.72,20.15 c -2.1,1.22 -6.66,3.51 -7.67,5.68 c -1.6,-0.05 -4.49,1.58 -4.98,3.07 c -1.48,-0.01 -2.48,0.66 -2.99,1.99 c -0.8,-0.13 -1.44,0.12 -1.92,0.75 c 0.59,0.95 1.83,0.04 1.92,-0.75 c 1.38,-0.09 2.38,-0.75 2.99,-1.99 c 2.15,-0.24 3.81,-1.27 4.98,-3.07 c 2.02,0.24 7.04,-3.21 8.7,-4.31 c 10.75,-6.11 21.44,-12.33 32.06,-18.65 c 2.66,0.34 6.37,4.1 8.29,5.96 c -0.64,0.1 -1.23,0.34 -1.76,0.71 c -13.21,8.84 -26.41,17.71 -39.59,26.59 c -1.49,0.93 -7.4,4.16 -7.7,5.61 c -1.51,0 -2.55,0.68 -3.12,2.03 c -0.8,-0.1 -1.41,0.18 -1.84,0.85 c 0.6,1.04 2.06,0.09 1.84,-0.85 c 1.25,-0.42 2.92,-0.37 3.12,-2.03 c 0.7,0.1 1.36,-0.02 1.99,-0.35 c 2.32,-1.43 4.69,-2.77 7.1,-4.02 c 0.44,-0.49 0.94,-0.9 1.5,-1.24 c 13.41,-7.54 26.77,-15.17 40.09,-22.88 c 0.63,-0.33 1.11,-0.81 1.45,-1.43 c 2.58,2.1 4.87,4.47 6.87,7.13 c -0.6,0.12 -1.16,0.35 -1.68,0.68 c -10.47,6.84 -20.84,13.8 -31.12,20.88 c -0.91,0.67 -3.06,0.67 -3.07,2.11 c -1.33,0.34 -4.8,1.9 -5.09,3.32 c -0.97,0.18 -2.7,0.46 -3.02,1.57 c 1,1.36 2.41,-0.87 3.02,-1.57 c 0.46,0.04 0.91,-0.01 1.35,-0.16 c 1.25,-1.21 3.65,-1.11 3.74,-3.16 c 0.65,0.12 1.3,0.13 1.95,0.02 c 11.3,-7.44 24.13,-13.83 35.72,-21.05 c 2.09,1.57 4.68,4.89 5.24,7.43 c -12.33,8.23 -24.72,16.34 -37.18,24.34 c -0.55,0.3 -0.78,0.76 -0.71,1.37 c -1.01,-0.07 -1.73,0.33 -2.15,1.21 c -1.28,0.06 -2.28,0.59 -2.99,1.59 c 0.91,1.2 2.62,-0.66 2.99,-1.59 c 1.03,0.13 1.75,-0.27 2.15,-1.21 c 0.63,-0.04 1.24,-0.16 1.83,-0.34 c 12.12,-7.24 24.33,-14.35 36.63,-21.33 c 0.55,-0.31 1.02,-0.71 1.42,-1.2 c 1.59,0.57 4.21,6.64 4.96,8.32 c -0.55,0.16 -1.07,0.37 -1.57,0.61 c -15.52,10.48 -30.94,21.06 -46.29,31.74 c -0.99,0.79 -2.81,0.67 -3.1,2.12 c -1.24,0.23 -2.2,0.86 -2.88,1.89 c 0.93,1.31 2.61,-0.97 2.88,-1.89 c 0.68,0.07 1.36,0.06 2.03,-0.05 c 16.92,-9.95 33.86,-19.88 50.83,-29.79 c 1.7,0.81 2.89,7.31 4.19,8.9 c -0.95,0.19 -1.82,0.58 -2.6,1.16 c -12.65,8.71 -25.24,17.48 -37.78,26.33 c -2.32,1.31 -4.57,2.74 -6.75,4.3 c -0.5,0.31 -0.78,0.76 -0.84,1.34 c -1.51,-0.01 -2.56,0.66 -3.16,1.99 c -1.4,-0.18 -2.36,0.36 -2.87,1.63 c 1.22,0.59 2.49,-0.46 2.87,-1.63 c 1.45,-0.01 2.5,-0.67 3.16,-1.99 c 1.88,0.2 6.93,-3.32 8.6,-4.34 c 13.57,-7.72 27.04,-15.59 40.41,-23.61 c 1.25,0.54 2.59,8.65 2.83,10.26 c -0.61,-0.1 -1.16,0.04 -1.65,0.41 c -14.83,10.54 -29.57,21.2 -44.2,31.98 c -1.02,0.79 -2.93,0.63 -2.98,2.24 c -0.75,0.18 -1.46,0.43 -2.16,0.74 c -1.29,0.94 -1.16,1.33 0.37,1.18 c 0.77,-0.48 1.36,-1.12 1.79,-1.92 c 0.64,-0.04 1.27,-0.12 1.9,-0.24 c 15.81,-9.37 31.7,-18.64 47.65,-27.79 c 1.96,1.52 1.14,7.83 2.06,10.29 c -11.96,8.75 -23.89,17.52 -35.8,26.33 c -0.53,0.26 -0.77,0.68 -0.74,1.26 c -1.16,0.21 -3.01,0.31 -3.19,1.82 c 1.43,0.7 2.58,-0.64 3.19,-1.82 c 1,-0.15 1.95,-0.46 2.86,-0.93 c 11.28,-6.72 22.64,-13.34 34.07,-19.85 c -0.04,4.05 -0.04,8.09 0.01,12.13 c -0.76,-0.01 -1.46,0.19 -2.1,0.61 c -2.58,2.08 -5.27,4 -8.09,5.75 c -0.39,0.2 -0.62,0.51 -0.7,0.93 c 1.47,1.02 3.43,-1.5 4.62,-2.15 c 2.06,-1.11 4.14,-2.2 6.23,-3.28 c -0.24,3.19 -0.11,4.89 -3.01,6.73 c -6.13,4.91 -17.96,12.83 -25.01,15.36 c -4.03,-1.04 -7.16,2.45 -10.54,4.01 c -0.34,0.34 -0.51,0.75 -0.52,1.22 c -0.61,2.69 -32.61,9.31 -37.03,10.14 c -3.08,0.14 -16.36,2.93 -18.18,1.1 c 10.17,-7.62 20.34,-15.24 30.5,-22.86 c 0.92,-0.78 1.76,-1.58 2.54,-2.41 c 0.83,-0.02 1.5,-0.35 2.02,-0.98 c -0.67,-0.95 -1.95,0.15 -2.02,0.98 c -0.83,0.13 -1.65,0.34 -2.44,0.62 c -13.42,8.01 -26.92,15.89 -40.51,23.64 c -0.57,0.42 -0.84,0.99 -0.82,1.7 c -6.59,0 -12.81,-0.61 -19.32,-1.34 c 13.9,-9.91 27.81,-19.88 41.71,-29.9 c 0.88,-0.92 3.57,-1.24 3.35,-2.78 c 0.6,-0.45 4.16,-1.04 2.76,-2.16 c -1.41,0.11 -2.33,0.83 -2.76,2.16 c -0.62,0.03 -1.24,0.1 -1.85,0.21 c -16.97,10.05 -34.03,19.95 -51.18,29.72 c -0.42,0.02 -0.69,0.23 -0.82,0.63 c -3.4,0.37 -10.94,-1.2 -14.03,-3.05 c 13.81,-9.57 27.64,-19.16 41.5,-28.77 c 0.79,-0.86 3.71,-1.2 3.31,-2.68 c 2.04,-0.54 3.62,-1.35 4.97,-2.86 c -0.64,-1.18 -4.62,1.69 -4.97,2.86 c -2.16,-0.32 -3.04,1.19 -4.62,2.32 c -15.33,8.6 -30.6,17.3 -45.82,26.1 c -0.62,0.27 -0.98,0.73 -1.08,1.38 c -1.69,-0.39 -12.31,-3.35 -12.15,-4.83 c 12.92,-8.57 25.76,-17.27 38.51,-26.1 c 2.41,-1.7 4.91,-3.25 7.5,-4.65 c 0.54,-0.26 0.81,-0.68 0.83,-1.27 c 0.9,0.17 4.06,-1.07 2.52,-2.1 c -1.31,0.16 -2.15,0.86 -2.52,2.1 c -1.96,0.06 -3.56,0.87 -4.81,2.43 c -16.01,8.83 -31.83,17.96 -47.46,27.4 c -1.9,-0.02 -10.12,-3.23 -10.66,-4.97 c 8.84,-5.73 17.64,-11.51 26.42,-17.32 c 1.43,-0.93 3.98,-2 4.45,-3.77 c 1.49,0.13 2.53,-0.5 3.1,-1.89 c 0.94,0.08 1.63,-0.28 2.05,-1.1 c 0.79,0.12 4.01,-0.98 2.63,-1.99 c -1.34,0.09 -2.21,0.76 -2.63,1.99 c -1,-0.18 -1.69,0.18 -2.05,1.1 c -1.4,0.01 -2.44,0.64 -3.1,1.89 c -1.9,-0.11 -4.25,1.92 -5.9,2.8 c -9.58,5.59 -19.19,11.12 -28.85,16.57 c -1.96,-1.08 -7.88,-3.33 -8.27,-5.61 c 7.48,-5.01 15,-9.95 22.55,-14.82 c 3.84,-2.55 7.73,-5.03 11.68,-7.44 c 0.48,-0.35 0.79,-0.8 0.94,-1.36 c 0.51,0.11 2.57,-0.5 1.49,-1.24 c -0.74,0.13 -1.24,0.54 -1.49,1.24 c -0.71,-0.1 -1.38,0.04 -1.99,0.41 c -4,2.43 -8.04,4.79 -12.12,7.08 c -8.11,4.75 -16.18,9.56 -24.2,14.43 c -2.81,-0.74 -6.77,-3.82 -8.77,-5.93 c 14.09,-9.13 28.1,-18.4 42.02,-27.8 c 0.5,-0.4 0.75,-0.91 0.76,-1.55 c 0.49,0.04 0.99,0.08 1.48,0.12 c 1.25,-0.89 4.52,-2.34 4.78,-3.87 c 0.71,0.07 2.08,0.14 2.04,-0.93 c 0.67,-0.18 3.76,-1.07 2.6,-2.08 c -1.58,-0.15 -2.44,0.55 -2.6,2.08 c -0.97,-0.27 -1.65,0.04 -2.04,0.93 c -1.92,0.45 -3.6,1.34 -5.06,2.67 c -0.42,0.24 -0.83,0.48 -1.25,0.72 c -15.46,8.66 -30.79,17.54 -45.98,26.64 c -0.8,-2 -1.51,-9.31 0.24,-11.01 c 11.29,-7.67 22.69,-15.18 34.19,-22.52 c 0.53,-0.25 0.81,-0.67 0.85,-1.24 c 1.43,-0.23 2.45,-1 3.08,-2.31 c 0.6,0.13 2.84,-0.15 1.54,-1.04 c -0.83,-0.08 -1.34,0.27 -1.54,1.04 c -1.53,0.12 -2.56,0.89 -3.08,2.31 c -1.94,-0.02 -3.55,0.73 -4.82,2.25 c -10.35,5.77 -20.64,11.64 -30.87,17.6 c -0.25,-7.87 0.36,-15.68 1.81,-23.43 c 0.96,-0.25 1.83,-0.7 2.61,-1.33 c 14.41,-10.37 28.82,-20.75 43.24,-31.11 c 0.76,-0.55 1.4,-1.21 1.92,-1.98 c 2.17,-0.25 4.68,-2.23 6.09,-3.76 c -1.35,-0.64 -5.69,2.18 -6.09,3.76 c -1.17,0.04 -2.24,0.38 -3.21,1.03 c -14.3,8.2 -28.55,16.46 -42.75,24.77 c 8.73,-36.32 33.95,-65.09 70.52,-74.76 c -0.04,2.06 -3.52,2.24 -4.35,4.5 c -1.25,0.2 -2.2,0.83 -2.87,1.87 c 0.41,1.2 3.1,-0.46 2.87,-1.87 c 1.43,-0.04 2.74,-0.45 3.94,-1.25 c 1.05,-0.91 6.77,-3.45 6.8,-4.62 c 7.53,-2.71 32.55,-3.96 38.66,-0.37 c 3.21,-1.09 7.91,0.98 11.22,1.44 c 0.73,0.12 1.2,0.52 1.43,1.2 Z M 356.34,408.07 c -0.05,1.06 0.31,1.98 1.09,2.75 c -0.24,1.12 -0.27,2.24 -0.09,3.36 c -0.76,0.68 -1.49,1.38 -2.21,2.1 c -0.53,0.09 -1.01,0.3 -1.44,0.64 c -1.22,0.73 -2.47,1.41 -3.74,2.04 c -0.46,0.2 -0.89,0.46 -1.28,0.77 c -0.26,0.14 -0.52,0.28 -0.79,0.42 c -0.43,0.2 -0.84,0.45 -1.22,0.73 c -1.26,0.8 -2.55,1.53 -3.88,2.2 c -0.41,0.24 -0.78,0.54 -1.12,0.87 c -1.22,0.72 -2.47,1.37 -3.74,1.98 c -0.45,0.22 -0.88,0.47 -1.29,0.76 c -0.28,0.14 -0.55,0.27 -0.82,0.41 c -0.38,0.29 -0.76,0.58 -1.13,0.88 c -1.25,0.65 -2.5,1.3 -3.74,1.97 c -0.46,0.21 -0.88,0.47 -1.28,0.77 c -0.27,0.15 -0.54,0.3 -0.81,0.44 c -0.44,0.2 -0.82,0.48 -1.13,0.84 c -1.28,0.61 -2.53,1.27 -3.76,1.97 c -0.47,0.19 -0.9,0.45 -1.29,0.77 c -0.25,0.16 -0.51,0.32 -0.76,0.48 c -0.39,0.23 -0.78,0.47 -1.15,0.72 c -1.32,0.75 -2.66,1.45 -4.02,2.11 c -0.89,-0.03 -1.78,0 -2.66,0.1 c 0.05,-0.65 0.35,-1.14 0.9,-1.49 c 6.35,-4.68 12.66,-9.41 18.93,-14.19 c 1.14,-0.91 1.2,-1.84 0.19,-2.8 c 7.52,-3.66 14.93,-7.52 22.24,-11.6 Z M 157.04,411.08 c 1.16,0.88 3.52,1.4 4.05,2.81 c -0.47,1.52 -2.53,2.07 -3.73,2.93 c -0.95,-1.87 -1.06,-3.78 -0.32,-5.74 Z M 301,423.96 c -1.04,0.13 -2.79,0.42 -2.97,1.71 c 0.84,1.43 2.83,-0.62 2.97,-1.71 c 0.77,0.12 3.68,-0.9 2.46,-1.89 c -1.22,0.13 -2.04,0.75 -2.46,1.89 Z M 186.24,426.04 c 1.74,-0.54 6.04,0.9 7.73,1.72 c -3.96,-0.12 -5.74,1.96 -9,3.68 c -1.21,0.83 -3.24,0.37 -2.36,-1.39 c 1,-0.96 2.17,-3.98 3.63,-4.01 Z M 299.98,432.04 c -5.51,3.35 -11.08,6.62 -16.7,9.79 c -1.35,0.12 -1.89,-0.5 -1.62,-1.88 c 0.4,-1.98 4.35,-3.35 4.08,-4.93 c 4.67,-1.38 9.41,-2.38 14.24,-2.98 Z"/></g>
<g><path fill="#555e7c" fill-opacity="0.239" stroke="#555e7c" stroke-width="0.5" stroke-opacity="0.239" d="M 301,423.96 c -0.14,1.09 -2.13,3.14 -2.97,1.71 c 0.18,-1.29 1.93,-1.58 2.97,-1.71 Z"/></g>
<g><path fill="#565d7a" fill-opacity="0.306" stroke="#565d7a" stroke-width="0.5" stroke-opacity="0.306" d="M 215.01,387.97 c -0.42,0.82 -1.11,1.18 -2.05,1.1 c 0.36,-0.92 1.05,-1.28 2.05,-1.1 Z"/></g>
<g><path fill="#575d7a" fill-opacity="0.404" stroke="#575d7a" stroke-width="0.5" stroke-opacity="0.404" d="M 202.01,381.1 c 0.25,-0.7 0.75,-1.11 1.49,-1.24 c 1.08,0.74 -0.98,1.35 -1.49,1.24 Z M 241.92,387.19 c 0.37,-1.24 1.21,-1.94 2.52,-2.1 c 1.54,1.03 -1.62,2.27 -2.52,2.1 Z"/></g>
<g><path fill="#575d7a" fill-opacity="0.475" stroke="#575d7a" stroke-width="0.5" stroke-opacity="0.475" d="M 302.96,374.94 c -0.38,1.17 -1.65,2.22 -2.87,1.63 c 0.51,-1.27 1.47,-1.81 2.87,-1.63 Z M 309.13,389.89 c -0.43,0.8 -1.02,1.44 -1.79,1.92 c -1.53,0.15 -1.66,-0.24 -0.37,-1.18 c 0.7,-0.31 1.41,-0.56 2.16,-0.74 Z"/></g>
<g><path fill="#585c7c" fill-opacity="0.286" stroke="#585c7c" stroke-width="0.5" stroke-opacity="0.286" d="M 306.12,372.95 c -0.66,1.32 -1.71,1.98 -3.16,1.99 c 0.6,-1.33 1.65,-2 3.16,-1.99 Z"/></g>
<g><path fill="#575d7a" fill-opacity="0.506" stroke="#575d7a" stroke-width="0.5" stroke-opacity="0.506" d="M 267.04,317 c -0.09,0.79 -1.33,1.7 -1.92,0.75 c 0.48,-0.63 1.12,-0.88 1.92,-0.75 Z M 293.05,332.05 c -0.61,0.7 -2.02,2.93 -3.02,1.57 c 0.32,-1.11 2.05,-1.39 3.02,-1.57 Z M 206.01,363.06 c 0.16,-1.53 1.02,-2.23 2.6,-2.08 c 1.16,1.01 -1.93,1.9 -2.6,2.08 Z M 258.75,394.24 c 0.35,-1.17 4.33,-4.04 4.97,-2.86 c -1.35,1.51 -2.93,2.32 -4.97,2.86 Z M 301,423.96 c 0.42,-1.14 1.24,-1.76 2.46,-1.89 c 1.22,0.99 -1.69,2.01 -2.46,1.89 Z"/></g>
<g><path fill="#585c7c" fill-opacity="0.267" stroke="#585c7c" stroke-width="0.5" stroke-opacity="0.267" d="M 275.01,311.94 c -1.17,1.8 -2.83,2.83 -4.98,3.07 c 0.49,-1.49 3.38,-3.12 4.98,-3.07 Z"/></g>
<g><path fill="#545f7c" fill-opacity="0.282" stroke="#545f7c" stroke-width="0.5" stroke-opacity="0.282" d="M 221.06,276.79 c 0.23,1.41 -2.46,3.07 -2.87,1.87 c 0.67,-1.04 1.62,-1.67 2.87,-1.87 Z"/></g>
<g><path fill="#585d7b" fill-opacity="0.345" stroke="#585d7b" stroke-width="0.5" stroke-opacity="0.345" d="M 264.97,252.11 c 0.26,-1.35 1.11,-2.06 2.53,-2.13 c 0.94,1.18 -1.84,1.87 -2.53,2.13 Z M 206.01,363.06 c 0.04,1.07 -1.33,1 -2.04,0.93 c 0.39,-0.89 1.07,-1.2 2.04,-0.93 Z"/></g>
<g><path fill="#575e7a" fill-opacity="0.486" stroke="#575e7a" stroke-width="0.5" stroke-opacity="0.486" d="M 225.81,233.19 c 0.38,-1.37 1.3,-2.08 2.74,-2.15 c 1.37,1.07 -2.1,1.98 -2.74,2.15 Z M 324.2,399.74 c -0.61,1.18 -1.76,2.52 -3.19,1.82 c 0.18,-1.51 2.03,-1.61 3.19,-1.82 Z"/></g>
<g><path fill="#575d7a" fill-opacity="0.447" stroke="#575d7a" stroke-width="0.5" stroke-opacity="0.447" d="M 302.08,191.02 c -0.05,0.88 -1.4,1.71 -1.98,0.71 c 0.49,-0.67 1.15,-0.91 1.98,-0.71 Z M 268.25,197.81 c -0.21,0.79 -1.43,1.88 -2.11,0.89 c 0.54,-0.65 1.25,-0.94 2.11,-0.89 Z M 215.01,387.97 c 0.42,-1.23 1.29,-1.9 2.63,-1.99 c 1.38,1.01 -1.84,2.11 -2.63,1.99 Z"/></g>
<g><path fill="#585d7a" fill-opacity="0.318" stroke="#585d7a" stroke-width="0.5" stroke-opacity="0.318" d="M 254.07,146.85 c -0.38,0.82 -1.99,3.07 -2.91,1.84 c 0.63,-1.11 1.6,-1.73 2.91,-1.84 Z M 302.08,191.02 c 0.22,-1.39 1.06,-2.09 2.5,-2.1 c 1.17,1.21 -1.83,1.73 -2.5,2.1 Z M 247.89,233.21 c 0.36,-1.37 1.25,-2.12 2.68,-2.25 c 1.04,1.04 -1.88,2.24 -2.68,2.25 Z"/></g>
<g><path fill="#585c7b" fill-opacity="0.412" stroke="#585c7b" stroke-width="0.5" stroke-opacity="0.412" d="M 190.04,356.94 c 0.2,-0.77 0.71,-1.12 1.54,-1.04 c 1.3,0.89 -0.94,1.17 -1.54,1.04 Z"/></g>
<g><path fill="#444c63" fill-opacity="0.141" stroke="#444c63" stroke-width="0.5" stroke-opacity="0.141" d="M 282.68,306.26 c 0.06,0.67 0.41,1.13 1.03,1.37 c -1.66,1.1 -6.68,4.55 -8.7,4.31 c 1.01,-2.17 5.57,-4.46 7.67,-5.68 Z"/></g>
<g><path fill="#454b62" fill-opacity="0.165" stroke="#454b62" stroke-width="0.5" stroke-opacity="0.165" d="M 313.71,367.31 c 0.06,0.65 0.4,1.08 1.01,1.3 c -1.67,1.02 -6.72,4.54 -8.6,4.34 c 0.06,-0.58 0.34,-1.03 0.84,-1.34 c 2.18,-1.56 4.43,-2.99 6.75,-4.3 Z"/></g>
<g><path fill="#4b5268" fill-opacity="0.169" stroke="#4b5268" stroke-width="0.5" stroke-opacity="0.169" d="M 282.71,322.24 c 0.09,0.8 0.56,1.21 1.39,1.24 c -2.41,1.25 -4.78,2.59 -7.1,4.02 c -0.63,0.33 -1.29,0.45 -1.99,0.35 c 0.3,-1.45 6.21,-4.68 7.7,-5.61 Z"/></g>
<g><path fill="#4d526b" fill-opacity="0.216" stroke="#4d526b" stroke-width="0.5" stroke-opacity="0.216" d="M 209.86,390.96 c -0.47,1.77 -3.02,2.84 -4.45,3.77 c -0.39,-0.45 -0.88,-0.78 -1.45,-0.97 c 1.65,-0.88 4,-2.91 5.9,-2.8 Z"/></g>
<g><path fill="#495663" fill-opacity="0.341" stroke="#495663" stroke-width="0.5" stroke-opacity="0.341" d="M 416.93,438.05 c -0.3,1.12 -3.63,2.86 -4.75,2.71 c 1.15,-1.66 2.73,-2.57 4.75,-2.71 Z"/></g>
<g><path fill="#474e68" fill-opacity="0.176" stroke="#474e68" stroke-width="0.5" stroke-opacity="0.176" d="M 256.77,144.31 c 0.08,0.77 0.51,1.15 1.31,1.14 c -1.18,0.99 -2.51,1.45 -4.01,1.4 c 0.57,-1.21 1.47,-2.06 2.7,-2.54 Z"/></g>
<g><path fill="#484d66" fill-opacity="0.153" stroke="#484d66" stroke-width="0.5" stroke-opacity="0.153" d="M 264.97,252.11 c -0.65,1.19 -1.52,2.16 -2.64,2.93 c 0.17,-1.11 -0.3,-1.6 -1.42,-1.47 c 1.19,-0.97 2.54,-1.46 4.06,-1.46 Z"/></g>
<g><path fill="#232b32" fill-opacity="0.122" stroke="#232b32" stroke-width="0.5" stroke-opacity="0.122" d="M 107.92,69.9 c 0.05,0.39 0.1,0.79 0.15,1.19 c -0.94,0.56 -1.94,0.96 -3,1.21 c -0.09,-0.51 -0.18,-1.01 -0.26,-1.51 c 0.64,-0.17 1.18,-0.51 1.63,-1 c 0.53,0.25 1.45,-0.89 1.48,0.11 Z"/></g>
<g><path fill="#4d5154" fill-opacity="0.122" stroke="#4d5154" stroke-width="0.5" stroke-opacity="0.122" d="M 447.8,334.25 c -0.1,0.96 -0.46,1.83 -1.06,2.6 c -0.24,0.2 -0.49,0.39 -0.74,0.59 c -0.42,-0.09 -0.83,-0.18 -1.25,-0.27 c 0.09,-0.5 0.33,-0.91 0.73,-1.24 c 0.73,-0.65 1.5,-1.21 2.32,-1.68 Z"/></g>
<g><path fill="#4a5a67" fill-opacity="0.455" stroke="#4a5a67" stroke-width="0.5" stroke-opacity="0.455" d="M 298.01,462.13 c -0.62,1.05 -1.53,1.69 -2.72,1.93 c 0.29,-1.47 1.2,-2.11 2.72,-1.93 Z"/></g>
<g><path fill="#3b4955" fill-opacity="0.141" stroke="#3b4955" stroke-width="0.5" stroke-opacity="0.141" d="M 183.75,60.07 c 0.18,0.19 0.35,0.38 0.53,0.58 c -0.59,0.45 -1.21,0.83 -1.89,1.12 c -0.21,-0.39 -0.43,-0.78 -0.64,-1.17 c 0.61,-0.39 1.27,-0.57 2,-0.53 Z"/></g>
<g><path fill="#495864" fill-opacity="0.616" d="M 409.73,60.27 c 0.91,-0.23 3.63,-0.84 3.31,0.94 c -1.2,0 -2.3,-0.31 -3.31,-0.94 Z"/></g>
<g><path fill="#353b40" fill-opacity="0.459" stroke="#353b40" stroke-width="0.5" stroke-opacity="0.459" d="M 302.14,460.18 c -0.69,0.4 -1.41,0.71 -2.17,0.95 c 0.38,-1.01 1.11,-1.33 2.17,-0.95 Z"/></g>
<g><path fill="#3f4951" fill-opacity="0.561" stroke="#3f4951" stroke-width="0.5" stroke-opacity="0.561" d="M 299.97,461.13 c -0.52,0.57 -1.18,0.9 -1.96,1 c 0.37,-0.88 1.02,-1.21 1.96,-1 Z"/></g>
<g><path fill="#45535a" fill-opacity="0.153" stroke="#45535a" stroke-width="0.5" stroke-opacity="0.153" d="M 304.05,459.26 c -0.5,0.56 -1.14,0.86 -1.91,0.92 c 0.15,-1.17 0.79,-1.47 1.91,-0.92 Z"/></g>
<g><path fill="#404c55" fill-opacity="0.329" stroke="#404c55" stroke-width="0.5" stroke-opacity="0.329" d="M 504.82,283.7 c 0.07,0.77 -0.27,1.18 -1.04,1.23 c 0.2,-0.54 0.55,-0.95 1.04,-1.23 Z"/></g>
<g><path fill="#424555" fill-opacity="0.365" d="M 284.61,264.33 c 0.77,-0.19 1.22,0.1 1.36,0.84 c -0.49,-0.23 -0.94,-0.51 -1.36,-0.84 Z"/></g>
<g><path fill="#262626" fill-opacity="0.42" d="M 454.07,197.96 c 0.34,0.25 0.58,0.57 0.7,0.98 c -0.55,-0.07 -0.78,-0.39 -0.7,-0.98 Z"/></g>
<g><path fill="#4f526b" fill-opacity="0.318" stroke="#4f526b" stroke-width="0.5" stroke-opacity="0.318" d="M 358.99,405.72 c -0.06,0.79 -0.48,1.21 -1.28,1.24 c 0.38,-0.46 0.8,-0.87 1.28,-1.24 Z"/></g>
<g><path fill="#44565e" fill-opacity="0.267" stroke="#44565e" stroke-width="0.5" stroke-opacity="0.267" d="M 417.98,437.17 c -0.22,0.45 -0.57,0.74 -1.05,0.88 c 0.14,-0.54 0.49,-0.83 1.05,-0.88 Z"/></g>
<g><path fill="#333a3a" fill-opacity="0.137" stroke="#333a3a" stroke-width="0.5" stroke-opacity="0.137" d="M 184.84,59.26 c 0.3,-0.02 0.6,-0.05 0.91,-0.07 c 0.15,0.27 0.3,0.55 0.46,0.83 c -0.48,0.07 -0.96,0.14 -1.44,0.22 c 0.02,-0.33 0.05,-0.65 0.07,-0.98 Z"/></g>
</svg>
