<svg xmlns="http://www.w3.org/2000/svg" style="shape-rendering:geometricPrecision;text-rendering:geometricPrecision;image-rendering:optimizeQuality;fill-rule:evenodd;clip-rule:evenodd" viewBox="0 0 512 512"><path fill="#e4e4f9" fill-opacity=".9" d="m294.8 278.5 1.1.3c1.4.4 2 2.8 2.7 4-4 .8-9.7 4.9-13.3 7q-.6 0-1-.3c2.5-3.6 6.2-9.5 10.4-11m-201.4 2.3q1 2 1.6 4c-1.2 1.1-6.3 4.5-8.3 4.2-.4-2.6 5-7.2 6.7-8.2M310 373l.2-2.3q.6-.2.4-.9 2.2-.4 4.1-1.7 6-3 11.2-7 1-.2 1.8.4-8 5.3-15.8 10.8-.9.6-2 .7m-130 23.6a12 12 0 0 1-8-1.6q7-4.7 14.6-8.7.3.8-.2 1.5z"/><path fill="#e0e1f3" fill-opacity=".9" d="M429 132.6a40 40 0 0 1-7.2 0v-.7c2.9.2 1.2-1.3 3.3-2.4 3.4-1 3.5-.4 5.6-3.2.5-.3 3.9-2.2 3 0q-2.2 3.3-4.8 6.3M377 425q0 .6-.6 1-13.2 9-26.6 17.8.6-1.8.8-3.6.6-.8 1.4-1.5c8.6-3.6 16.6-10.7 25-13.7"/><path fill="#dcdff6" d="M385.2 303.9c-.8 1.6-24.4 14.7-27.9 16.7q-2 .3-.4-1.2 8.1-6.3 16-13.1 6-2.1 12.3-2.4"/><path fill="#e7e6fd" fill-opacity=".3" d="M392 142q-.2 1-1.2.8zm48 5c.1-.7 1.3-1.6 1.9-.7a2 2 0 0 1-1.9.7m-56 0q-.2 1.1-1.3.7zm-23 1c-.7 1.6-3.2 3-5 3q2-2.5 5-3m11.3 13.3-1.3.7q.3-1.1 1.3-.7M52 165.2a3 3 0 0 1 2.7-2.2c1.1 1.1-2 2-2.7 2.2M85 199c-.6 1.4-3.6 3-5.2 3.2.9-1.5 3.5-3.5 5.2-3.2m-49 4q-.9 1.9-3 2.1.8-2.1 3-2.1m-18 10q-.1 1-1.3.8zm81.3 13.3-1.3.7q.3-1.1 1.3-.7M90 229q-.3 1-1.3.8zm245 9c-.5 1.5-3.5 3-5.1 3q2-2.7 5-3m78.3 1.3-1.3.7q.3-1 1.3-.7M371 261q-.3 1-1.2.8zm-352 9q-.3 1-1.3.7zm96 3c-.3 1.2-4.4 4-5 2.7.5-1.2 3.6-2.7 5-2.7m-1 28q-.3 1.1-1.3.7zm-4.7 7.3-1.2.7q0-1.1 1.2-.7m-8 5-1.3.7q.2-1 1.2-.8M128 338a8 8 0 0 1-5 3c.8-1.8 3.1-3 5-3m-85 4q-.3.8-1.3.7zm123.4 4.6 1 .3-.4.9-1 .4zm278.4 25.2h1q.5 1.4-1 1.1zM201 409a7 7 0 0 1-5 3 6 6 0 0 1 5-3M72 430q-.2 1-1.2.7z"/><path fill="#e7e6fc" fill-opacity=".4" d="M405.3 142.1q-.5.6-1.3.7.3-.9 1.3-.7M351 153.9q-.6 1.5-2 1 .5-1 2-1m-180 18q-.5 1.5-2 1c-.1-1 1.4-1 2-1m-33 3.1q-.9 1.9-3 2a3 3 0 0 1 3-2m192.8 5q0 1-1.1 1zm3.6 3-1.4.8q.5-.8 1.4-.7m-11.6 2q-.2 1-1.2 1zm25.2 4a8 8 0 0 1-5 3c.9-1.8 3-3 5-3m-226 22a8 8 0 0 1-5 3q1.9-2.5 5-3m324.3 9-.5.9-.8-.1q.4-.9 1.3-.8m-115.4 5q-.8 2-3 2a3 3 0 0 1 3-2m-234.6 3-1 1q0-1 1-1m231.8 14c-.6 1.3-3.7 3.2-5 3 .4-1.5 3.6-2.6 5-3m-271.2 6.2q-.3 1-1.2.8zm318.5 12.9-1.3.7q.3-.9 1.3-.7m-342 8-1.2.8q0-1 1.1-.8m47.5 51.1q-.1 1-1.2.8zm54.2 13.8a2 2 0 0 1-2.1 1q.5-1.3 2-1m-80 1.2q-.6.9-1.5.7.6-.6 1.4-.7m-1.9 7.8-.9 1q0-1.1 1-1m-7.8 5.1-1.2 1q0-1.1 1.2-1m396.5 26 1-.1q.3 1.4-1.2 1.1zm-297.7 17-.9.9q0-1 1-1m-20.9 13-1.1 1q0-1.2 1.1-1m-13.2 4.2q-.5.8-1.5.6zm-7.8 8.8-1 .8q0-1 1-.8m-21 12.9-1 1q0-1 1-1m15.8 2q-1 2-3 2a4 4 0 0 1 3-2"/><path fill="#e7e7fd" fill-opacity=".3" d="m365.3 165.3-1.2.7q0-1.1 1.2-.7M97 225q-.2 1-1.2.8zm155 5a7 7 0 0 1-5 3 7 7 0 0 1 5-3m92.1 47.8h.9q-.4.9-1 1.5l-9 5.4q-1 .3-2 .2.3-.7 1-1.2zm-202.8 10.5-1.2.8q0-1.1 1.2-.8M105 326q-.3.8-1 1.3L93 334l-.3-1.1 2-1.7c2.3-1 8-5.5 10.3-5.2m30 23c-1 1.7-3 3.1-5 3a8 8 0 0 1 5-3M24.2 361.3l-1.2.8q0-1.1 1.2-.8M17.1 391q-.6 1-2 .8.6-1.1 2-.8"/><path fill="#e7e6fc" fill-opacity=".4" d="m132.3 127-.3 1.2-1.2-.3q.5-1 1.5-1M435 150q-1 1.5-3 2a3 3 0 0 1 3-2m-86 4.8q-.8 2-3 2a4 4 0 0 1 3-2m-.7 20.1-1.2.7q.3-.7 1.2-.7m-26 15q-.6.6-1.3.7.4-.7 1.2-.7m15.7 5q-.6 1.2-2 1 .5-1.2 2-1m99 25.2q-.3.8-1.3.7zM90.4 232l-1.6.7q.6-.9 1.6-.7m325.6 1q-.4 1-1.3.8zm-174 3a4 4 0 0 1-3 1.9q.9-2 3-2m-173 5.3q-.4.8-1.4.7.6-.6 1.3-.7m1.3 3.7q-.7.6-1.6.7a2 2 0 0 1 1.6-.7m324.6 1.2q-.2.8-1.2.7zm-5.6 7q-.6.5-1.4.5.5-.7 1.4-.6M43 256q-.5.7-1.5.7.8-.5 1.5-.7m330.8 3q-.2.9-1.1.8zm-7.9 5.1q-.5.8-1.3.6zm-228 22.9q-.3.9-1.2.7zm190 .9q-1.1 1.6-3.1 1.8 1-1.9 3.2-1.8M98.4 315a3 3 0 0 1-1.4.8q.4-.9 1.4-.8m-8 5q-.6.6-1.4.7.4-.9 1.4-.7m-8 5q-.6.6-1.4.7.5-.7 1.4-.6M67 328.4q-.4.8-1.4.6zm71 3.6q-.9 2-3 2.1.8-2.3 3-2m-90 7.3q-.4.8-1.3.8.6-.6 1.3-.8m99 2.7q-.5 1.3-2 1.1a2 2 0 0 1 2-1M27 385a8 8 0 0 1-5 3c1-1.5 3.1-3.2 5-3m217 12c.3-.7 1.4-1.6 2-.7q-.8.9-2 .7m-229 5.3h1.2l-1.4.8zm71.9 7.7q1.5-1.2 0 0m9 6.2q-.3 1-1.2.8zM238 433c0-.8 1.4-1.6 2-.7a2 2 0 0 1-2 .7"/><path fill="#e8e8fd" fill-opacity=".2" d="M117 214c-.8 1.8-3.5 3-5 4l-.3-1a8 8 0 0 1 5.2-3m-38 6q-.3.8-1 1.3l-9 5.7v-1.3c1-1.3 8.3-5.7 10-5.7m44 121q-.7 1-1.6 1.7L111 349l-.1-1.4q4.8-3.3 10-6.2 1-.4 2.1-.3m-1.3 15.2.2 1.1a12 12 0 0 1-3.8 2.7l-.1-1.2q1.5-1.7 3.6-2.6"/><path fill="#e7e6fc" fill-opacity=".4" d="M440 147c-.6 1.4-3.6 3.2-5 3.1.6-1.6 3.4-3 5-3m-84 4a3 3 0 0 1-1 1.3 6 6 0 0 1-4 1.6 8 8 0 0 1 5-3m4.3 17.1q-.6.6-1.3.6.4-.7 1.3-.6m-13 2q-.6 1-1.7.8.7-.6 1.6-.7m-8.5 4.9q0 1-1.1 1zM38 202q-.5 1.3-2 1 .6-1.2 2-1m64.1 20.2q-.3.9-1.3.7.6-.6 1.3-.7m327 3.1q-.5.7-1.4.6a3 3 0 0 1 1.5-.6M328 227c.2 1-1.2 1-1.9 1q.6-1.3 2-1m99.4 4-1.3.7q.4-.7 1.3-.6m-19.2 7.2q-.4.8-1.5.8.8-.6 1.5-.8m-8.4 4.8q.1 1-1 1zm1.6 3q-.6.7-1.3.7.4-.6 1.3-.6m-14.1 5.3q-.6.6-1.5.7.7-.6 1.5-.7M53.3 256l-1 1q0-1.1 1-1m93 29-1.6.7q.7-.7 1.5-.7m-20.2 9.1q-.5.8-1.4.7zm4.2 1-1.5.5a2 2 0 0 1 1.5-.6m2.8 40a7 7 0 0 1-5 3 7 7 0 0 1 5-3M28.9 350.2q-.3 1-1.2.8.5-.6 1.1-.8m8.4 2.8-1 1q0-1 1-1m-8 5.1-1.5.7q.6-.7 1.4-.7m185.7 17c-.4.7-2.1 2.8-3 1.5.3-1.1 2-1.2 3-1.6m-78.7 21-1.4.7q.4-.8 1.4-.8M84 423.3q-.5.8-1.4.5.6-.5 1.4-.5m-19 10.9q-.4.8-1.3.8zm-7 4q-.3 1-1.3.8.6-.6 1.2-.8"/><path fill="#9494a0" fill-opacity=".1" d="M91.6 247.2v1q.2.7-.6 1-4.3 3-9 5.3c-2.5 1.9-4.8 4-8 5v.4l-.8.2q-1.3 0-1.1 1.1-.7 0-1.5.4-1.5 0-2.6 1.2l-.1-1.9q11.9-6.7 23.7-13.7"/><path fill="#e7e6fc" fill-opacity=".3" d="m386.3 153.3-1.3.7q.3-1 1.3-.7m-7 4-1.3.7q.2-1.1 1.3-.7m-26 15-1.3.8q.3-1 1.3-.8M315 190q-.2 1-1.2.8zm28 2q-.6 1.3-2 1 .5-1.3 2-1m99 25q-.2 1-1.2.8zm-21 13q-.3 1-1.3.7zm-338 3q-.3 1.1-1.3.7zm337.3 2.3-1.3.7q.2-1.1 1.3-.7m-344 5.9-1.3.8q.1-1 1.2-.8m-3 2-1.3.8q.2-1 1.2-.8M379 256q-.3 1-1.2.8zm-341 3q-.3 1-1.3.7zm320 10q0 1.2-1.2.7zm-28 18q-.5 1.2-2 1 .6-1.2 2-1m-223 18q-.2 1.1-1.3.7zm3 18c-.7 1.7-3.4 2.7-5 3 1-1.5 3-3.2 5-3m-40.8 10.2-1.2.8q.1-1 1.2-.8m-8 5-1.2.8q.2-1 1.2-.8M142 345q-.6 1.3-2 1 .6-1.2 2-1m-106 1q-.3 1-1.3.8zm100 47q-.2 1-1.2.8zM17.1 416h.9q-.3.8-1 1.3zm56 2.1a8 8 0 0 1-5 3 6 6 0 0 1 5-3m21 15.8a8 8 0 0 1-4.7 3c-1.7-.7 3.7-3.2 4.6-3"/><path fill="#e8e7fc" fill-opacity=".3" d="M368 157q-.3 1.1-1.3.7zm-16 10q-.3 1-1.3.8zm-171.7 19.3-1.3.7q.1-1.2 1.3-.7m256.8 22.8-12 7.6q-1.2.5-2.2 0l13-8.1q.9-.3 1.2.6M336 222c-1 1.7-3.3 3-5.2 3 .6-1.3 3.6-2.9 5.1-3m-6.2 19q-.3 1.3-1.8 1 .5-1.2 1.8-1m-229.8 2a7 7 0 0 1-5.1 3c.7-1.7 3.3-3 5-3M59 252.3l-1.2.8q.1-1 1.2-.8m386.9 31.5-.4 1.2h-.8q.3-.8 1.2-1.2M125 298.3l-1.2.8q.1-1 1.2-.8"/><path fill="#c9c8db" fill-opacity=".2" d="m354.8 226.3 1.4-.2q-6.3 4-12.8 7.7l-.2-.8q0-.9.8-1.3l8.9-5.4q.9-.6 1.9 0m-302.1 203v.9q-.3 1-1.3 1.5L41 438q0-1.2-1.2-1 .5-.8 1.4-1.2z"/><path fill="#e7e6fc" fill-opacity=".5" d="M125 267a5 5 0 0 1-3 2q.9-2 3-2m-86 38c.1-.7 1.3-1.7 2-.7q-.9.9-2 .8m81 12c-.5 1.5-3.5 2.7-5 3 .8-1.6 3.2-3 5-3m76 12c.5-1 4-4.1 5-2.7a8 8 0 0 1-5 2.7m21 45q.8-1.7 2.6-2c1.4 1.3-1.8 2.2-2.7 2M29 384c.3-1 4.3-3.9 4.9-2.7-.7 1.2-3.7 2.3-5 2.7m57.9 26c.2 1-1.3 1-2 1q.5-1.3 2-1m12 21c.5-1.4 6.4-4.8 6.9-3.7A17 17 0 0 1 99 431"/><path fill="#e7e6fc" fill-opacity=".4" d="M363.2 160.2q-.5.8-1.4.8zm-8 5q-.6.8-1.6.7zM15 185l1 .4-1.3.8zm300.2 9q-.6.5-1.3.8.3-1 1.3-.8m-222 36q-.7.6-1.5.8.6-.9 1.6-.7m345.6 5q.6-1 1.7-1.1c1.3.8-1.2 1.3-1.7 1.1M76 237.2q-.4 1-1.3.8zm44 32.9a7 7 0 0 1-5 2.9 7 7 0 0 1 5-3m18.4 20q-.7.4-1.6.6a2 2 0 0 1 1.6-.7M36 307q-.8 1-2 .8.5-1.2 2-.8m38 17.1q-.5.8-1.5.7zm122 4.9a7 7 0 0 1-5.1 3q2-2.6 5-3M21.3 363q-.7.6-1.6.7.7-.6 1.6-.7M129 397.2q-.4.9-1.3.7zM80 414c-.6 1.3-3.6 2.8-5 3q.3-.9 1-1.4c1.5-.3 2.3-2 4-1.6m158 19a3 3 0 0 1-3 1.9q1-1.6 3-1.9"/><path fill="#e7e6fd" fill-opacity=".5" d="M325 141.1q-1.2 1.5-3 1.9c.8-1 1.4-2.6 3-1.9m75.3 4-1.2.6q.3-.8 1.2-.7m31.8 7q-.5 1.2-2 1 .5-1.5 2-1m-86 4.8c-.3.8-1.4 1.7-2 .8a2 2 0 0 1 2-.8m28.2 3.2q-.6.5-1.3.7.3-.8 1.3-.7m67 63-1.2.7q.2-.8 1.2-.7M326 228a4 4 0 0 1-3 2q.9-2 3-2m-238 2.3q-.5.7-1.4.7zM323 245c-.5 1-4.2 3.8-5 2.7a8 8 0 0 1 5-2.7m123.2 25-.5 1-.9-.4q.6-.5 1.4-.6M17 271.2q-.1 1-1.2.8zm10.4 1.9-1.5.7q.5-.8 1.4-.7m297.6 16.8c.2 1-1.3 1.8-2 .8q.9-1.1 2-.7m-213 12.3q-.2.9-1.1.7zm-26.8 15 1.2-.3q-.5 1-1.5 1zM74.4 330q-.8.5-1.5.7.5-.7 1.5-.7m63.7 2c.1-.7 1.2-1.7 1.8-.8q-.7 1-1.8.7m-71.7 3-1.3.8q.3-.9 1.3-.7m82.9 53.1q-.6.6-1.3.7.3-.9 1.3-.7m-8.3 2.1q-.3.9-1.2.8zM128.3 401q-.6.6-1.2.7.3-.8 1.2-.7m-21 13q-.6.5-1.2.7.3-.7 1.1-.6m-21 13q-.5.6-1.3.8.3-1 1.4-.8"/><path fill="#e7e6fb" fill-opacity=".4" d="M371.2 155.2q-.6.7-1.5.8.7-.6 1.5-.8m-29.8 24-1.4.6q.4-.9 1.4-.7M83.9 217c-.3 1.4-3.5 3-5 3 1.1-1.4 3.3-3.2 5-3m21 23a8 8 0 0 1-4.9 3 6 6 0 0 1 5-3m-54.8 12.3q-.5.8-1.4.6zm332.2 4.8a2 2 0 0 1-1.3.6q.3-.7 1.3-.6m-260.4 12c.2 1-1.2 1-1.9 1q.6-1.3 2-1m23.2 14.2q-.5.8-1.4.6.5-.4 1.4-.6m-23 16.7q-.7.6-1.6.7.7-.6 1.6-.7M34 308c-.5 1.6-3.4 2.8-5 3 .7-1.7 3.4-2.7 5-3m172 98a9 9 0 0 1-5 3c.9-1.6 3.1-3.3 5-3m-103 6.2q-.4.9-1.3.7a2 2 0 0 1 1.3-.7M73.3 435q-.7.5-1.6.7.7-.7 1.6-.7"/><path fill="#e7e6fc" fill-opacity=".4" d="M147.1 141.1v.6q-2.2 2-4.8 3.3-.9.3-1.3-.3l4.2-3.1q.8-.6 2-.5m231.8 9.2q-.3.8-1.3.6.6-.4 1.3-.6M367.3 164l-1.2.6q.2-.8 1.1-.6m-26.3 29a3 3 0 0 1-3 2 4 4 0 0 1 3-2M95 226.2q-.3.8-1.4.7zm339.4.9-1.3.6q.3-.7 1.3-.6M50.3 258l-1.5.7q.4-.7 1.5-.7M24 267q-.4 1-1.4.8zm95 31.1q-.4.9-1.3.8.5-.5 1.2-.8m-4.7 6.9q-.7.5-1.5.7.5-.8 1.5-.7m.7 15a8 8 0 0 1-5 2.8c.9-1.5 3.2-3.1 5-2.8m30 22.9a4 4 0 0 1-3 2q.8-2 3-2M22 354.2q-.4.9-1.3.7zm126.2 32q-.6.9-1.5.8.6-.6 1.5-.8m59.7 18.7q-.3 1.5-1.8 1.2.3-1.4 1.8-1.2"/><path fill="#e6e5fc" fill-opacity=".2" d="M143 172a7 7 0 0 1-5 3l.5-1a8 8 0 0 1 4.5-2m193 5q-.3 1.1-1.3.7zm-8 5q-.3 1.1-1.3.7zm118.3 10-.4 1h-.9q.4-1 1.3-1m-134.5 2.9 1.3.7-.8.4zm114.1 32q0 1-1.2.8zm-84.1 6.1.2 1.2a30 30 0 0 1-5 3.3q-1 .6-2 .4c.9-2 5-3.4 6.8-4.9m-259.5 4.3-1.2.8q.1-1 1.2-.8m322.6 2.6q-.2 1-1.2.8zM52 251q0 1.1-1.2.8zm332 2q0 1.1-1.2.8zm-3.6 5.4-1.2.7q.2-1.1 1.2-.7m-341 7-1.2.8q.1-1 1.2-.8m-20 13-1.2.8q.2-1 1.2-.8M76 323q-.3 1.1-1.3.7zm-27.7 23.3-1.2.8q0-1.1 1.2-.8m-8 5-1.2.8q0-1 1.2-.8m90.6 44.6q0 1.1-1.2.8zm-26 15q0 1.1-1.2.8z"/><path fill="#e8e8fd" fill-opacity=".2" d="m360 181 .2 1c-1.5 1.5-5.1 4-7.2 4 .8-2 5.3-3.6 7-5M47 328.4 35 336l-.4-1q.6-.8 1.4-1.3l9-5.3q1-.4 2 0m90 19.6q-.8 1.2-2 1 .6-1.2 2-1"/><path fill="#e2e6f6" fill-opacity=".3" d="M20.8 143.1q0-.6.6-.8.3.8-.6.8m382.6.2q-.6.5-1.3.8.1-1 1.3-.8m-19 11-1.3.8q0-1.2 1.3-.7m-26 15q-.6.6-1.3.8.1-1 1.3-.8m-26 15q-.6.6-1.3.8 0-1.2 1.3-.8m-247 51-1 .7q0-1.1 1-.7m311.4 9.6q0 1.1-1.2.8.5-.5 1.2-.8m-338 2q0 1.1-1.2.8zm340.6.4-1.3.8q.1-1.2 1.3-.8M375.7 258q0 1.1-1 .7zm-342.8 3.9q-.1 1-1.3.8zm340.4 0-.3 1.2h-1q0-1 1.3-1.1m-245.4 31q0 1.1-1.3.8.6-.5 1.3-.8m-45 26q-.2 1-1.3.8.6-.6 1.3-.8m-2.5 7.4q-.6.6-1.3.8.1-1.1 1.3-.8m-8 5q-.6.6-1.3.8 0-1 1.2-.8M56.8 334q-.1 1-1.3.8.6-.5 1.3-.8m7.4 2.4q-.5.5-1.2.8 0-1 1.2-.8M436 377.8l1 .1.2 1.2q-.5 1.4-2 1.5-1-.6-1.1.3-.6 1.1-1.9 1 0-.4-.3-.7c.5-1.7 2.7-2.4 4.1-3.4M112 407q-.2 1-1.3.8.6-.5 1.3-.8m-26 15q-.1 1.1-1.3.8.6-.5 1.3-.8m-1.6 6.4q-.4.5-1.2.8.1-1 1.2-.8"/><path fill="#cce2e3" fill-opacity=".8" d="m360.2 270-.2 1h-1q0-1 1.2-1m71.7 111.2.3.7c-.5 1.8-4 2.7-5.5 4.1l-4.2 2c-.8.4-4.4 3.6-5.2 2.4q6.3-4.5 12.7-8.7.9-.6 2-.5"/><path fill="#e7e6fc" fill-opacity=".5" d="M322 143q-.5 1.3-2 1 .6-1.2 2-1m-200 68c.5-.9 2-2.7 3-1.6q-1 1.8-3 1.5m201 19q-.5 1.3-2 1 .7-1.3 2-1m116 5c-.7 1.6-3.1 2.7-4.6 3.1-1.3-1.1 3.9-2.8 4.5-3M239 238c0 1-1.4 1.8-2 .8a2 2 0 0 1 2-.8m-177 7.3q-.3.7-1.2.7.5-.5 1.2-.7M47.3 260q-.6.5-1.2.7.3-.7 1.2-.7M39 305a4 4 0 0 1-3 2.1q.6-2.4 3-2m21 27.2q-.4 1-1.3.8zm392 34.6 1.2.3q-.7.6-1.5.6zm-369 45q-1 2-3.1 2a4 4 0 0 1 3-2"/><path fill="#e13958" fill-opacity=".9" d="M383 89c-1.7-.3-4.7-1.1-5-3l8.5-4.7q.5.7-.1 1.6c-1.5 2-3.4 3.4-3.4 6"/><path fill="#e8e5fc" fill-opacity=".3" d="m398.3 146.3-1.3.7q.3-1.1 1.3-.7m-71 41-1.3.7q.3-1 1.3-.7M64 244q-.1 1-1.3.8zm-27.7 23.3-1.3.7q.3-1 1.3-.7M333 284.9q-.7 2-3 2 .9-2 3-2M29 311c-.7 1-4 4-5 2.7.6-1.2 3.6-2.8 5-2.7m64.3 7.3-1.2.7q.1-.9 1.2-.7m-8 5-1.2.7q0-1.1 1.2-.7M22 388q-.6 1.3-2 1 .6-1.2 2-1m109.3 11.3-1.3.7q.1-1.1 1.2-.7M117 404q-.3 1-1.3.7zm-6.8 8.2-1.2.8q.1-1 1.2-.8M75 417q-.6 1.2-2 1.2.6-1.4 2-1.2m14.3 8.4-1.2.7q.1-1 1.2-.7m-21 13-1.3.7q.3-1 1.3-.7m140 1.8-.4.6-1 .6q.2-1.3 1.4-1.3"/><path fill="#e7e6fc" stroke="#e7e6fc" stroke-width=".5" d="M375.3 117q0 2.6.7 5-1.2 1.6-2.7 2.7c-.3-.1-1.3-.8-1.2 0q-1.8.5-2.8 2c-2.5.1-4.3 2.2-6.4 3.2l-1 .6q-1.7 1-2.8 2.3a96 96 0 0 1-11.2-.1c.9-1.6 24.4-14.8 27.4-15.7ZM268.9 219.4a9 9 0 0 1-2-2.2c2.8-2.8 6.4-4.2 9.8-6.2q.6-.3.9.5c0 1.3-7.3 7.6-8.7 7.9Zm176 51.2.8.3q.5 5.3.3 10.4a3 3 0 0 0-2.1.6l-1 .6c-5.2 3.7-18 10.6-21.8 14.3-1.4-.5-5.4-.2-6-1.4q0-4.8 1.2-9.3c2-1.9 3.9-2.8 6.3-4a2 2 0 0 0 2.5.2q10-5.7 19.7-11.7Zm-394 4.2c-4.4 12.8-7.9 21.8.4 34.3l-36.5 21.2q0-16.8.2-33.5c5-2 29-18.5 36-22Zm-31.2 30.5c.6 0 2.9-.5 1.7-1.4q-1.4 0-1.7 1.4ZM39 305q-2.4-.4-3 2-1.2-.4-2 .8c-1.6.3-4.3 1.4-5 3.1-1.3 0-4.4 1.5-5 2.7 1 1.3 4.3-1.8 5-2.7 1.6-.3 4.5-1.4 5-3q1.4 0 2-.9 2-.5 3-2 1.1 0 2-.8c-.7-1-1.9 0-2 .8Z"/><path fill="#e9e9fd" fill-opacity=".2" d="M130 352c-.9 2.1-5.1 3.6-7 5v-1c1.6-1.7 4.8-3.7 7-4m66 60c-.7 1.8-5.4 3.9-7 5l.1-1.2q2-2.2 4.9-3.4 1-.4 2-.3"/><path fill="#dfdef1" fill-opacity=".2" d="M184.2 163.3q0 1 1 1.1-.9 0-1.6.5-5.4 3.7-11.3 7h-1.2l.9-1.2q5.3-3.2 10.4-6.8.7-.4 1.8-.6"/><path fill="#e7e7fc" fill-opacity=".4" d="M387 145.2q-.4 1-1.3.8.4-.6 1.2-.8m6.3 4a2 2 0 0 1-1.3.5q.3-.7 1.3-.6m-317 9.6q-.9 1.8-2.8 2.2c-1.8-1 2.3-1.8 2.7-2.2m-58.5 13.5q.5-2.1 2.8-2.3c1.3 1-2.2 2.1-2.8 2.3M85 199q.6-1.9 2.6-2c1.3 1-1.8 2-2.6 2m263 104q.4-1.2 1.6-1.1.9.4 0 1-.7.2-1.6 0M106.3 310l-1.2.7q.3-.9 1.2-.7m-77.4 74c.2 1-1.2 1-1.9 1q.5-1.4 2-1m93 17.2q-.3.8-1.3.6z"/><path fill="#e5e3f8" fill-opacity=".3" d="m372 140.3 1-.2.2 1.5-10.2 6q-.9.4-2 .4.6-1.2 1.6-1.7a93 93 0 0 0 9.4-6"/><path fill="#c8c7d7" fill-opacity=".2" d="M354.6 271.3q.6.8 1.5 1l-9 5.3q-1 .5-2.1.2h-.9q5.1-3.5 10.5-6.5"/><path fill="#cecde1" fill-opacity=".7" d="m405 227 .8.3c-.5 1.5-8.9 5.4-10.6 6.4q-1.3.6-1-.8l5.5-2.9q2.1-1.2 4-2.8.6-.3 1.2-.2"/><path fill="#dddcf1" fill-opacity=".2" d="M186 335.1q-.7 1-1.6 1.6L174 343v-1.3q.6-.8 1.5-1.5l8.4-4.8a3 3 0 0 1 2-.3"/><path fill="#deddef" fill-opacity=".2" d="M33 205.1q-.3.8-1 1.2l-8.9 5.8q-.3-1.2-1.4-1.4l9.3-5.3q1-.4 2-.3m129.2 145.1-.1.7-.9.2q-.2-1.1 1-.9"/><path fill="#e6e5fc" fill-opacity=".3" d="m277.2 130-.3 1.1h-.9q0-1 1.2-1.2m75.8 56a7 7 0 0 1-5 3 7 7 0 0 1 5-3m-32.7 5.3-1.3.7q.3-1.1 1.3-.7m67 63-1.3.7q.3-1.1 1.3-.7M69 327q-.2 1-1.3.8zm121.9 5c-.9 1.8-3.2 2.8-5 3.1a7 7 0 0 1 5-3m-93 83q0 1.1-1.2.7z"/><path fill="#c2c2d3" fill-opacity=".2" d="m92.7 332.9.3 1-10 6q.3-1.2-.7-.5 0-1.2 1-1.6l7.6-4.4z"/><path fill="#d1d0e1" fill-opacity=".2" d="m34.6 335 .4 1-10 6q0-1-1-1.3l9-5.3q.7-.4 1.6-.5"/><path fill="#4fb269" fill-opacity=".9" d="m436 499.3-.3.7-7.4 4q-1.7.5-3.3.1 0-1 1-1.5 4.5-1.4 8.7-3.2z"/><path fill="#3d9053" fill-opacity=".1" stroke="#3d9053" stroke-opacity=".1" stroke-width=".5" d="M473.7 339.3q.6-.2 1 .4c-1 1.7-7.9 4.8-9.7 6.3l.2-1c.1-2 5.3-4 6.7-5.4q.9-.7 1.8-.3Z"/><path fill="#c2e1da" d="M443 373v1h-1q.2-.8 1-1m-74 39.9q.6-1.6-1.1-1.3l7.1-4.2c.7-.2 2.2-1 2.6 0q-4.1 3-8.5 5.5"/><path fill="#e8e7fd" fill-opacity=".2" d="m253.9 228 .2 1.3q-.8 1-2 .7.5-1.2 1.8-2M63 424q-.6 1-1.6 1.7-3.6 2.3-7.2 4.3l-.4-1.1c2-1.5 7-4.9 9.2-5"/><path fill="#e7e5fd" fill-opacity=".3" d="m394.3 250.3-1.3.7q.3-1.1 1.3-.7m-338.1 3.9-1.2.8q.2-1 1.2-.8M133 290q-.3 1-1.3.7zm-55.8 38.2-1.2.8q.2-1 1.2-.8M62 331q-.3 1-1.3.7zm-42 58a4 4 0 0 1-3 2q.9-2 3-2m71 30q-.3 1-1.3.7zm144 15.9c-.4 1.6-3.6 2.9-5 3.2.7-1.7 3.1-3.2 5-3.2"/><path fill="#dadaee" fill-opacity=".2" d="M236 402q-.7 1-1.6 1.7L226 409q0-.7-.9-.6a2 2 0 0 1 1.2-1.5l7.7-4.4q1-.4 2-.3"/><path fill="#e1a9c1" d="M206 126.9c-.1 1.8-5.9 4-7 5.8q-1.6.2-3.2 0 4-2.7 8.2-5.1 1-.6 2-.7"/><path fill="#91919f" fill-opacity=".1" d="M24 340.7q1 .3 1 1.3l-9.8 5.8q-.1-.8.1-1.4l1.3-1.3q3.6-2.4 7.3-4.4"/><path fill="#eb3a56" fill-opacity=".3" stroke="#eb3a56" stroke-opacity=".3" stroke-width=".5" d="M330 55v1a8 8 0 0 1-5 3c.3-1.7 3.6-3.2 5-4.1Zm-199 51c-.6 1.3-3.6 3.3-5 4v-1.4q2-2.3 5-2.6Z"/><path fill="#e7e6fc" fill-opacity=".5" d="M430 153c0 .8-1.2 1.6-1.8.7a2 2 0 0 1 1.9-.7m-261 20q-.7 1.9-2.5 2.1c-1.8-1 2.1-2 2.6-2.1m-64 67a3 3 0 0 1 2.6-2c1.6 1.3-1.7 2.1-2.6 2m-85.3 65.3q.3-1.4 1.7-1.4c1.2.9-1.1 1.3-1.7 1.4M34 347q-.1 1-1.2 1zm51 64q-.5 1.3-1.8 1c-.2-1 1.2-1 1.8-1"/><path fill="#b5b5ca" fill-opacity=".1" d="M150.7 166.3q0 1 1 1.4c-1.8 1-6.6 4.5-8.7 4.3q.3-.9 1-1.4 3.1-2.4 6.7-4.3"/><path fill="#bbbaca" fill-opacity=".1" d="M111.7 217q0 .6.3 1l-7.7 4.8q0-1.2-1.3-1.4c2-.7 6.8-4.5 8.7-4.4"/><path fill="#da3355" fill-opacity=".2" stroke="#da3355" stroke-opacity=".2" stroke-width=".5" d="M361 110q-.4.8-1 1.3-3.5 2.3-6.7 5l-1.4-1.7c2-.8 7-4.7 9-4.6Z"/><path fill="#dec3da" fill-opacity=".9" d="m310.3 126.9.7.1q-.3.7-1.1 1zm-1.4 1.2 1-.1q-.8 1.2-2.2.6zm-1.2.5q.3.8-.2 1.4l-3.6 2.8h-3.2q.5-.6 1.3-.5.9-.5 1.3-1.3z"/><path fill="#e5e5fd" fill-opacity=".3" d="m344.8 216.1.2 1.1a39 39 0 0 1-7 4.4 3 3 0 0 1-2 .4q.3-.9 1-1.3z"/><path fill="#db3153" fill-opacity=".2" stroke="#db3153" stroke-opacity=".2" stroke-width=".5" d="M39 108c-.8 1.6-6.2 4.7-7.9 6q-.3-1-1.4-1.3c2.1-.8 7.4-4.9 9.3-4.6Z"/><path fill="#e7e7fb" fill-opacity=".2" d="M104.2 124v1l-1.1.2q0-1.2 1-1.3m239.7 48q-.2 1-1.2.7zm-4.6 8.3-1.2.8q0-1.1 1.2-.8M180 183.8q0 1.3-1.2 1zM18.3 215.4l-1.2.8q0-1.2 1.2-.8m84 9-1.2.7q0-1.2 1.2-.7m304 19-1.2.7q0-1.1 1.2-.7M147 282q-.3 1.1-1.3.7zm2.3 1q-.6.6-1.3 1 .1-1 1.3-1m-99.4 55q0 1-1.2.7zm-17.6 18.3-1.2.8q0-1.1 1.2-.8M448 370h1q0 1-1.1 1zM79 426q0 1.1-1.2.7zm-2.6 7.3-1.2.8q0-1.1 1.2-.8"/><path fill="#ea3a57" fill-opacity=".5" stroke="#ea3a57" stroke-opacity=".5" stroke-width=".5" d="M38.6 56q.7 1 1.8 1-1.8 1.2-3.7 1.8c-.9-.8 1.5-2.1 1.9-2.7ZM15.7 98.3c.2-.7 1.6-2 2.1-1 0 .9-1.8 2.3-2 1Zm23.3 9.9q.6-2 2.6-2c1.4 1-2 1.6-2.6 2Z"/><path fill="#c7364f" fill-opacity=".8" d="M247.2 48.8q-4.2.1-8.5-.2 2.2-1.2 4.8-1.5c1 .3 3.2.5 3.7 1.7"/><path fill="#57ce78" fill-opacity=".2" stroke="#57ce78" stroke-opacity=".2" stroke-width=".5" d="m465.2 345-.2 1-6.8 3.8c-1.3.7-1.4-.7-.2-1.2 2.1-.8 4.8-4.2 7.2-3.6Z"/><path fill="#d4344f" fill-opacity=".2" stroke="#d4344f" stroke-opacity=".2" stroke-width=".5" d="M171.6 98.1q.2.9-.6 1.3-2.6 1.4-4.7 3.4 0-1-1-1.4c1-.6 5.2-3.5 6.3-3.3Z"/><path fill="#ce3750" fill-opacity=".8" d="M219.3 48.7a37 37 0 0 1-7.7 0c2.6-1.7 5.1-2.4 7.7 0"/><path fill="#e7e6fc" fill-opacity=".6" stroke="#e7e6fc" stroke-opacity=".6" stroke-width=".5" d="m449.2 368.9 1 .4q-.6.4-1.3.6zM208 446.7q2.7.4 5.4.3c-.4 1.2-5.4 1.9-5.4-.3Zm19.7.3 5.3-.2c.5 2-5.2 1.5-5.3.1Z"/><path fill="#d2d1e6" fill-opacity=".2" d="M95.9 127.3q-.1 1 .8 1.4l-2.3 1c-.9.7-3 2.6-4 2q-.2-.7.5-1.1a23 23 0 0 0 5-3.3"/><path fill="#e7e6fc" stroke="#e7e6fc" stroke-width=".5" d="m101 126 .3 1a70 70 0 0 1-7.3 5.7h-4.2l.6-1c1 .6 3.1-1.3 4-2l2.3-1zm158 14.2h16q1.5 1 3.4 1.1l-3 1.6-43.5 27.5q-1.8 1.2 0 2.2c-8.6 5.1-17.7 7.7-26 14.1-3.6-3-7-6.2-11.2-8.8l62.6-36a7 7 0 0 0 1.7-1.7ZM445 193h.8q.5 5-.1 10-1.9 1-3.1 2.7c-3.4-.9-3.7 1.7-5.5 3.5q-.3-.9-1.1-.6-6.7 4-13.1 8.2c-3.4 1-14.6 9-16.8 9.4 3-5.5 7-10.1 8-16.5a2 2 0 0 0 2 0zM54 311.7c3 3 6.5 3.9 10 5.7-.3 2.3-14.2 9.5-17 11q-1-.4-2 0l-9 5.3-1.4 1.2q-.9 0-1.6.5l-9 5.3q-3.9 2-7.4 4.4l-1.3 1.3c-1.1-3-.2-8.1-.6-11.4a5 5 0 0 0 2.3-.7q18.4-11.5 37-22.6Z"/><path fill="#e7e6fc" fill-opacity=".6" d="m84.6 447 5.5-.1c.3 1.8-5.3 1.4-5.5 0m91.4-.2 5.4.2c-.4 1.4-2.8 1-3.9 1q-1.4 0-1.5-1.2"/><path fill="#e6e6fa" fill-opacity=".2" d="M101 122.8h.9q0 1.2-1.1 1.3 0-.7.2-1.3m276.3 35.6-1.2.7q0-1.1 1.2-.7m61.6 60.5q-.2 1-1.2.8zm5.5 2.4-1.3.8q.1-1 1.3-.8M84.9 232q0 1.2-1.3.7zm333 0q-.2 1-1.2.8zM42.3 263.3l-1.2.8q0-1 1.2-.8m46 58-1.2.8q.1-1 1.2-.8M455.2 365l1-.3q-.6 1-1.6 1.4zm-317.3 27q0 1-1.2.7z"/><path fill="#e7e6fc" fill-opacity=".6" d="M128.8 446.8q2.8.3 5.5.2c-.2 1.3-5.2 1.9-5.5-.2m23 .1q2.5.2 5.4 0c.1 1.7-5.5 1.5-5.5 0"/><path fill="#dbd0e5" fill-opacity=".8" d="M129 129.3v.8l-3 2.7q-1.7.1-3.2 0l.5-.9c2.2-.6 3.2-2.5 5.7-2.6"/><path fill="#e7e6fc" fill-opacity=".5" d="m15.2 145 1 .2q-.7.7-1.5 1zm431 13.9q0 .5-.4 1l-1-.1a2 2 0 0 1 1.5-.9M38 202q.5-2 2.6-2c1.5.8-2.1 1.8-2.6 2m310 101q-.7 1.8-2.6 2c-1.6-.8 2-1.9 2.6-2"/><path fill="#e9e4fa" fill-opacity=".2" d="M388.9 143.9q0 1-1.2.8zm-37.5 29.4-1.3.8q.2-1.1 1.3-.7m67 63-1.3.8q0-1.1 1.2-.8M65.8 243q-.2 1.1-1.3.7zm-26 15q-.2 1.1-1.3.7zm5.4 3.4-1.2.8q.2-1 1.2-.8m89.6 27.6q-.1 1.2-1.3.7zm-30.6 22.4-1.2.8q0-1 1.2-.8M38 344.9q-.1 1.1-1.3.7zm29 88q0 1.1-1.3.8z"/><path fill="#ea3957" fill-opacity=".5" d="M330.2 48.1q-2.6.3-5.3 0c-.2-1.8 5.5-1.6 5.3 0m-78.5 42.1q.8-2 3-2.2c1.3 1.2-2.3 2-3 2.2"/><path fill="#e93957" fill-opacity=".5" d="M350 48.2q-2.4.2-5 0c0-2.2 5.4-1.6 5 0m11 61.8q.5-2 2.6-2c1.4 1.1-2 1.7-2.7 2"/><path fill="#e8e4fb" fill-opacity=".3" d="m130.3 128-.1 1-1.2.3q0-1.2 1.2-1.4m261 22.3-1.2.8q0-1 1.2-.8M360 162q-.3 1.1-1.3.7zM71 240q-.3 1.1-1.3.7zm292 26q0 1.2-1.3.7zm-1.8 3.1v.8l-1 .2q-.3-1.3 1-1m-227.9 24.2-1.2.8q0-1 1.2-.8m6 101-1.2.8q0-1.2 1.2-.8M124 400q-.3 1-1.3.8z"/><path fill="#75737e" fill-opacity=".1" d="M366.7 177q.8.3 1.3.9-1 0-1 .8l-2 .5V178zM118 358.8v1.2l-1.7 1q-2.3 0-.4-1.5z"/><path fill="#aaa9b5" fill-opacity=".1" d="m295.4 277.8.5 1q-.6 0-1.1-.3zM185 418.2q.7.2 1 .8-1.8.8-3.4 2-.9-.1-1.6-1 1.8-1.3 4-1.8"/><path fill="#ededfd" fill-opacity=".2" d="M365 178v1.2c-.6 1.6-3.3 2.5-4.8 2.9l-.2-1.1q2.6-1.4 5-3"/><path fill="#747280" fill-opacity=".1" d="M69 225.7v1.3l-1.4 1q-1 0-1.6-1 1.4-.9 3-1.3m105.1 116v1.3a6 6 0 0 1-3 1.2l-.1-1.2q1.5-.9 3.1-1.2"/><path fill="#e7e6fc" fill-opacity=".6" stroke="#e7e6fc" stroke-opacity=".6" stroke-width=".5" d="M99 124q.6 0 1.1.3-.4.6-1.3.7 0-.6.3-1Zm316.3 79 1 .3-1.4.6q0-.5.4-.9ZM446 371l1 .4q-.6.5-1.3.6zm-185.4 76q2.7.1 5.5-.1c.1 1.9-5.4 1.6-5.5.2Z"/><path fill="#e6e6fd" fill-opacity=".4" d="m106.2 123-.4 1.2-1-.2q.3-1 1.4-1m302.1 119-1.3.7q.4-.7 1.3-.6M31 263.3q-.3.8-1.2.7.5-.5 1.2-.7m-.7 7.8q-.5.6-1.4.7.5-.7 1.4-.7m85 137.9-1.5.7q.6-.8 1.5-.7m-21 13q-.7.5-1.6.5a2 2 0 0 1 1.6-.5M77 427q-.4 1-1.4.8z"/><path fill="#acacb5" fill-opacity=".1" d="M104.8 350.8q1.1 0 1.3 1.2c-1.6.6-3.3 3-5 1.4q1.8-1.5 3.7-2.6"/><path fill="#e6e6fd" fill-opacity=".4" d="M135 177c0 .9-1.3 1.6-2 .7q.8-.9 2-.7m280.3 61.1q-.6.4-1.3.6.4-.7 1.3-.6m-226.5 20.2q.3-1.4 1.7-1.4c1.2.9-1.1 1.3-1.7 1.4M41 343.2q-.4.9-1.3.8.6-.6 1.3-.8m29 88q-.3.9-1.3.8z"/><path fill="#e9e4fb" fill-opacity=".2" d="m446.3 173.9-.6 1.1h-.7q.3-.8 1.3-1.1m-126.4 13q-.2 1-1.2.8zM21.3 213.3l-1.2.7q0-1.1 1.2-.7M78 236q-.2 1-1.2.8zm-15.6 14.4-1.2.8q0-1 1.2-.8M15 291l1-.2q-.4 1-1.3 1.1zm41.3 50.2-1.2.8q0-1.1 1.2-.8"/><path fill="#a8a8b5" fill-opacity=".1" d="M225.1 408.3q.9-.2.9.6c-1.1.5-3 2.2-4.2 1.8a1 1 0 0 1-.8-.6q1.9-1.5 4.1-1.8"/><path fill="#b63b63" d="m65.9 71-.2-3.1q1.5-.2 3-.8c1.1 1-2 3.5-2.9 4"/><path fill="#b6d8cd" d="M316.8 353q1.3-.4 2.2.4a8 8 0 0 1-4 2.6l1-2q.6-.3.8-1"/><path fill="#e8e8fa" fill-opacity=".2" d="m425.3 232.3-1.2.8q.2-1 1.2-.8M31 348.9q0 1.1-1.2.8zm116.4 40.4-1.2.8q0-1.1 1.2-.8m-21 13-1.2.8q0-1 1.2-.8m-21 13-1.2.8q.1-1 1.2-.8M60 436.9q0 1.1-1.2.8z"/><path fill="#ad7486" fill-opacity=".7" d="m147.2 140.4 4.9-.2q0 .6-.6.6-2.3 0-4.4.9z"/><path fill="#824855" fill-opacity=".5" d="M402.8 140.1q3-.1 6 .2-1.2.7-2.9.8c-1-.1-2.7.1-3.1-1"/><path fill="#e4e4fa" fill-opacity=".2" d="m65.3 248.3-1.2.8q.2-1 1.2-.8m-43 28-1.2.8q0-1 1.2-.8M109 304q0 1.2-1.3.7zm-12.6 12.4-1.2.8q.1-1 1.2-.8M450.8 368l1-.2q0 1-1 1z"/><path fill="#e5e3fd" fill-opacity=".2" d="M230 438.1a4 4 0 0 1-2.9 2.1l-1.4-.4a6 6 0 0 1 4.3-1.7"/><path fill="#e3e2fd" fill-opacity=".2" d="M108 349v1.2q-.6 1.2-2 1.8 0-1.2-1.2-1.3z"/><path fill="#aa7485" fill-opacity=".9" d="M275 140.3q2.6-.5 5.3-.2-.6 1-1.9 1.2-1.8-.2-3.5-1"/><path fill="#f1f0fd" fill-opacity=".2" d="m171 343 .2 1.2q-.5 1.4-2 1.7-.4-1-1.4-1.1 1.4-1 3.2-1.8"/><path fill="#62a474" fill-opacity=".1" d="M424 340h2.2q-2 1.6-4.3 2.4.3-2 2.1-2.5"/><path fill="#e7e5fd" fill-opacity=".6" d="M289.7 447q2.7 0 5.3-.3c.5 1.8-5.3 1.8-5.3.3"/><path fill="#ebebfd" fill-opacity=".3" d="M188 416v1.3q-.8 1-2 1.6l-1-.7q1.4-1.2 3-2.2"/><path fill="#e8e8fb" fill-opacity=".3" d="M303.3 131q-.4.8-1.3 1.2 0-1.2 1.3-1.2m129 97.3-1.2.7q0-1.1 1.2-.7M24 353q-.3 1-1.3.8zm94.3 54.3-1.2.8q0-1.1 1.2-.8m-21 13-1.2.8q.2-1 1.2-.8"/><path fill="#868590" fill-opacity=".7" d="M23 441.8c.6 0 2.1.3 1.6 1.4q-1.5 0-1.7-1.4m1.6 1.4q1.6-.4 2.4.8-1.4.1-2.4-.8"/><path fill="#7f7f8b" fill-opacity=".6" d="M38 446.8q2.3 0 4.2 1c-1 .1-4.5.9-4.2-1"/><path fill="#9b4454" fill-opacity=".4" stroke="#9b4454" stroke-opacity=".4" stroke-width=".5" d="M421.8 131.9v.7a6 6 0 0 1-2.7 0c.6-.1 2.2-1.8 2.7-.7Z"/><path fill="#e7e7fd" fill-opacity=".6" stroke="#e7e7fd" stroke-opacity=".6" stroke-width=".5" d="M65.7 447h4.6c-.2 1.3-4 1.6-4.6 0Z"/><path fill="#9797a3" fill-opacity=".8" d="M363.3 268.1q-.4.8-1 1.3-.3-1.2 1-1.3m-2 1 1 .3q-.5.4-1.2.5zm-1.1 1 1-.2q-.4 1-1.2 1zm-1.2 1 1-.1q-.3.6-1 1z"/><path fill="#bee0d6" fill-opacity=".9" d="M439 376.2q-.5 1.2-2 1.7h-1q1-1.7 3-1.7"/><path fill="#e7e7fb" fill-opacity=".7" d="M111.7 447h4.6c0 1.2-2 1-2.9 1q-1.2 0-1.7-1"/><path fill="#b8b8d6" fill-opacity=".9" d="m73.2 260.1.7-.1q.4.7 0 1.7h-3.3q.8-.4 1.5-.5.8-.2 1-1.1"/><path fill="#e8e8fc" fill-opacity=".3" d="m310.3 126.9-.4 1-1 .2q.3-1 1.4-1.2m129 97.4-1.3.7q.3-1 1.3-.8M17 357q-.2 1-1.1.8.3-.6 1-.8m126 32q-.2 1-1.2.8z"/><path fill="#797988" fill-opacity=".1" stroke="#797988" stroke-opacity=".1" stroke-width=".5" d="M39.9 437q1.2-.2 1.2 1-.8.3-1.5 1l-1.3-.3-.3-.8q1 0 1.9-.9Z"/><path fill="#cac9dc" fill-opacity=".9" d="M370.8 177c.4 1.1-1.5 1-2.1.8q.7-1.1 2-.9m-2.8.9.7-.1q0 1.8-1.7 1 0-.9 1-.9"/><path fill="#737380" fill-opacity=".1" d="m110.9 347.6.1 1.4q-1.4.9-3 1.2V349q1.4-.9 2.9-1.4"/><path fill="#e5e5ff" fill-opacity=".2" d="m109.1 121 .1.9-1 .2q-.2-1 1-1m253.8 9q0 1-1 .5zm62.2 166.3-.3.7-1-.2q.4-.6 1.3-.5M176.3 440l-.3 1-1.1.3q0-1.3 1.4-1.3"/><path fill="#438755" fill-opacity=".7" d="M466 482.3q-.8.8-2 1.1.5-1.5 2-1.1m-2 1.1q-.1.6-.8.7 0-.9.9-.7m-.8.7q-.5 1-1.6.8.6-.6 1.6-.8"/><path fill="#ce3650" fill-opacity=".6" d="M14.9 59.5c-.1 1-.8 2.7-2.1 2.2q.4-1.7 2-2.2m-2.1 2.2q.3 1-.7 1.5 0-.8.7-1.5"/><path fill="#e9b6cf" fill-opacity=".9" d="m106.2 123 .6-.1q0 .9-1 1.3zm-2 1h.6l1 .1q-.4 1-1.6 1z"/><path fill="#e8a7c0" fill-opacity=".9" d="m102 122.2-.1.6h-1zm-1 .6-.2 1.3-.7.2-1-.4q.6-1 1.9-1.1"/><path fill="#acacb3" fill-opacity=".1" stroke="#acacb3" stroke-opacity=".1" stroke-width=".5" d="m67.9 260.9.1 1.9-1.8-.1c-.4-1 1.2-1.3 1.7-1.8Z"/><path fill="#458e59" fill-opacity=".8" d="m424.7 496.1.2 1q-.9.9-2.2.6a4 4 0 0 1 2-1.6"/><path fill="#e89eb8" fill-opacity=".9" d="m279.3 128.8.8.3a2 2 0 0 1-1.1.9zm-2.1 1.1h1.8q-.8 1.3-2 1.2z"/><path fill="#47955c" d="m367.9 300 3 .2c-.5 1-2.7 1.3-3-.2"/><path fill="#e5e5fc" fill-opacity=".2" d="M95 246q-.6 1.3-1.8 1.9l-.3-1.1a2 2 0 0 1 2-.8"/><path fill="#e8afc8" fill-opacity=".9" d="m132.3 127 .8.1q-.5.7-1.1 1zm-2 1h.5l1.2.2q-.7 1-1.8.8z"/><path fill="#e7e6fc" fill-opacity=".7" d="m103 125.2-.2.8-1-.3q.4-.6 1.3-.5M443 373l1.1.4-1.1.6z"/><path fill="#407e51" fill-opacity=".2" stroke="#407e51" stroke-opacity=".2" stroke-width=".5" d="m358.9 490.6 2-.5-.2.7z"/><path fill="#ea3859" fill-opacity=".2" stroke="#ea3859" stroke-opacity=".2" stroke-width=".5" d="M38 48h-2.3c.3-1.2 2.3-1 2.3 0Z"/><path fill="#d5d5e9" fill-opacity=".6" stroke="#d5d5e9" stroke-opacity=".6" stroke-width=".5" d="m372 263.2.1.7-1.3.2q.2-1 1.2-1ZM161.2 351q-.5.7-1.4 1 .3-1.1 1.4-1Z"/><path fill="#878692" fill-opacity=".8" d="M370.8 264.1q-.5 1.1-2 .7c.1-1 1.4-.8 2-.7"/><path fill="#45905a" fill-opacity=".9" d="M497.2 446q.3 1.9-1.5 1.9.2-1.4 1.5-2"/><path fill="#e7e7f9" fill-opacity=".2" d="M380.9 148.9q-.1 1-1.2.8zm-13 114q0 1.4-1.2.8.5-.5 1.2-.8"/><path fill="#89899f" fill-opacity=".9" d="M54 271.7q-.2 1-1.2.9zm-1.2.9q.1 1-.8 1.1.2-.6.8-1.1"/><path fill="#b7b1c2" fill-opacity=".8" d="M273.9 132.1h1.1l.1.7-2.4.1q.4-.7 1.2-.8"/><path fill="#e7c9e0" fill-opacity=".8" d="M275.2 131.2h1.8q-.7 1-2 .9z"/><path fill="#eae3ff" fill-opacity=".1" d="m275.2 131.2-.2.9h-1q.2-1 1.3-.9M444 282q0 1.1-1 .6z"/><path fill="#e890aa" fill-opacity=".5" d="m195.8 115 .6.6H195zm88.6 10.8q-.4 1-1.5 1.2.3-1 1.5-1.2"/><path fill="#e6e2f9" fill-opacity=".5" stroke="#e6e2f9" stroke-opacity=".5" stroke-width=".5" d="M101 307.8q.4 0 .8.3-.3 1.5-1.8 1 0-1 1-1.3Z"/><path fill="#d0e3e7" fill-opacity=".9" d="m441 375-.7 1.3-1.3-.1q.5-1.5 2-1.1"/><path fill="#bbe0d4" d="M444.8 371.9v1.1l-.7.4-1-.4q.6-1 1.7-1.1"/><path fill="#c0e1d8" fill-opacity=".9" d="m447.9 370-.1 1-.7.3-1-.4q.6-1 1.8-.9"/><path fill="#c4e1dc" fill-opacity=".9" d="M450.8 368v.8l-.7.5-1-.5q.6-1 1.7-.8"/><path fill="#c9e2e0" fill-opacity=".9" d="M454 366q-.3.8-.7 1.2l-1.2-.3q.7-1 1.9-.8"/><path fill="#5cb776" d="M399.9 356q-.6 1.2-2 .9a2 2 0 0 1 2-.9"/><path fill="#e7cae2" d="m99 124-.2 1h-.7q0-1 1-1m4 1.2 1.2-.1q-.5.7-1.4 1 0-.5.3-1"/><path fill="#e7c3da" d="M101 126q.5 0 .8-.3.6 0 1 .3-.3 1.1-1.5 1z"/><path fill="#e1e1ff" fill-opacity=".2" d="M73.2 260.1q-.3 1-1.1 1.1-.2-1.2 1-1.1"/><path fill="#b1b1c1" fill-opacity=".9" d="m167.3 347 .6.2q0 .7-.9.6z"/><path fill="#ead5ea" fill-opacity=".2" stroke="#ead5ea" stroke-opacity=".2" stroke-width=".5" d="M135.2 125.1q-.3.8-1 1 0-1 1-1Z"/><path fill="#9d9caa" fill-opacity=".8" d="M166 348.3a2 2 0 0 1-.9.9q0-1 1-.9"/><path fill="#e6c4dd" fill-opacity=".6" d="M134.2 126q-.5.8-1.1 1.1 0-1 1-1"/><path fill="#b3b1c1" fill-opacity=".5" stroke="#b3b1c1" stroke-opacity=".5" stroke-width=".5" d="M164.3 348.9q-.4.9-1.2 1.4 0-1.2 1.2-1.4Z"/><path fill="#84838e" fill-opacity=".9" d="m162.2 350.2 1 .1-1.1.6z"/><path fill="#edc8ed" fill-opacity=".1" stroke="#edc8ed" stroke-opacity=".1" stroke-width=".5" d="M373.3 124.7h-1.2c-.1-.8.9-.1 1.2 0Z"/><path fill="#e89ab1" fill-opacity=".3" stroke="#e89ab1" stroke-opacity=".3" stroke-width=".5" d="M315.3 124q-.5.6-1.3 1.1.2-1 1.3-1.2Z"/><path fill="#e789a5" fill-opacity=".5" d="M137.4 123.8q-.5 1-1.5 1.3.3-1.2 1.5-1.3"/><path fill="#c8c8da" fill-opacity=".9" d="M159.8 352q0 .9-1 1a2 2 0 0 1 1-1"/><path fill="#58b471" d="M316.8 353q-.1.6-.8 1 .2-.6.8-1"/><path fill="#e8d2e8" fill-opacity=".5" stroke="#e8d2e8" stroke-opacity=".5" stroke-width=".5" d="M312.2 125.8q-.3.9-1.2 1.2.2-1 1.2-1.2Z"/><path fill="#acacbb" fill-opacity=".9" d="M52 358.8q0 .8-1 1a2 2 0 0 1 1-1"/><path fill="#e7d3e9" fill-opacity=".6" d="M108.1 122.1q-.5.7-1.2.8.2-1 1.2-.8"/><path fill="#d6e4ec" fill-opacity=".9" d="m455.2 365-.6 1h-.6q.2-1 1.2-1"/><path fill="#ebd1e6" fill-opacity=".2" stroke="#ebd1e6" stroke-opacity=".2" stroke-width=".5" d="M282.2 127.1q-.3 1-1 1-.2-1 1-1Z"/><path fill="#d2e4e9" d="m452.1 366.9-.4.9-.9.2q.4-1 1.3-1.1"/><path fill="#e7dbef" fill-opacity=".3" stroke="#e7dbef" stroke-opacity=".3" stroke-width=".5" d="m102 122.2 1.2-.4q-.3 1-1.3 1z"/><path fill="#e6b9d0" fill-opacity=".6" d="M281.1 128.2q-.4.6-1 1 0-1.1 1-1"/><path fill="#cee3e5" d="m449.2 368.9-.3 1-1 .1q.3-1 1.3-1.1"/><path fill="#e998b2" fill-opacity=".8" d="m109.1 121 .9.1q-.2.6-.8.8z"/><path fill="#6ca07f" d="M310.6 370q.2.5-.4.9z"/><path fill="#e8cce2" d="m129 129.3 1.2-.3q-.4.9-1.3 1.1z"/><path fill="#c8e2e0" d="m446 371-.2.9h-1a2 2 0 0 1 1.3-1"/><path fill="#e6e4fa" fill-opacity=".4" d="m279.3 128.8-.3 1.2-1.2-.1q.4-1 1.5-1"/><path fill="#e5a8c3" fill-opacity=".4" d="M111.3 119.8q-.5.9-1.3 1.3.2-1.1 1.3-1.3"/><path fill="#bbe0d5" fill-opacity=".5" d="M448.4 373q-.6.8-1.5 1 .3-1 1.5-1"/><path fill="#7aa18b" d="M331.1 321a2 2 0 0 1-1.2 1q.4-.7 1.2-1"/><path fill="#dee6f2" fill-opacity=".9" d="m442 374-.3 1.1h-.7q0-1 1-1"/><path fill="#cae0e3" fill-opacity=".3" d="M446.2 374q-.4 1-1.4 1.3.2-1.2 1.4-1.2"/><path fill="#d5d5e9" fill-opacity=".4" stroke="#d5d5e9" stroke-opacity=".4" stroke-width=".5" d="M100 309.2q-.3.8-1.3.7.4-.8 1.3-.7Z"/><path fill="#b8b7c7" fill-opacity=".9" d="m444.9 303 1.2-.2c-.1 1-1.2 1.3-1.2.2"/><path fill="#53c371" fill-opacity=".3" stroke="#53c371" stroke-opacity=".3" stroke-width=".5" d="m436 499.3 1.2-.4q-.4 1-1.5 1z"/><path fill="#b1dfca" fill-opacity=".7" d="M443.1 376q-.4.9-1.3.7.5-.7 1.3-.7"/><path fill="#707079" fill-opacity=".8" d="m15 377.3-.3 1q-.4-.8.3-1"/><path fill="#c4e0dc" fill-opacity=".5" d="m440.3 376.7.9.5q-.4.7-1 .8z"/><path fill="#e6e6ff" fill-opacity=".1" d="m435.1 380.6-1 .3q.3-.9 1-.3"/><path fill="#e9e9ff" fill-opacity=".1" d="M46 384.9q-.3 1-1.2.5z"/><path fill="#7b7b84" fill-opacity=".2" stroke="#7b7b84" stroke-opacity=".2" stroke-width=".5" d="m14.2 392.2 1-.3q-.2.7-1 1z"/><path fill="none" d="M327.1 393q-.5.6-1.1 1 .2-.9 1.1-1"/><path fill="#428a57" fill-opacity=".2" stroke="#428a57" stroke-opacity=".2" stroke-width=".5" d="M439 498q-.1 1.1-1.2.7.4-.4 1.2-.7Z"/><path fill="#59d47b" fill-opacity=".3" stroke="#59d47b" stroke-opacity=".3" stroke-width=".5" d="m495.1 412.9-.4 1.1h-.7q.3-.9 1.1-1.1Z"/><path fill="#868690" fill-opacity=".4" d="m123.3 132-.5.7-1 .2q.6-.7 1.5-1"/><path fill="#d5d3e7" fill-opacity=".8" d="M52 273.7q0 1-1 1 .4-.6 1-1"/><path fill="#d63a5b" d="m190.2 74 .2.8q-1.9-.3-.2-.8"/><path fill="#c0c5d1" fill-opacity=".7" stroke="#c0c5d1" stroke-opacity=".7" stroke-width=".5" d="M394.3 431.7q.6.4.6 1.2l-1.2-.3z"/><path fill="#c3e2dc" fill-opacity=".8" d="M393.7 432.6q.1 1-1 1.1.3-.7 1-1"/><path fill="#a2dbbe" fill-opacity=".2" d="M391.3 435q-.6.8-1.3 1.3 0-1.2 1.3-1.4"/><path fill="#80d99b" fill-opacity=".5" d="m390 436.3-.8.6q0-.7.8-.6"/><path fill="#e0def5" fill-opacity=".4" stroke="#e0def5" stroke-opacity=".4" stroke-width=".5" d="m407.8 268.4 1.5-.3-.5.8q-.6 0-1-.5Z"/><path fill="#be3b61" d="M396 64.9V66c-1.2.4-1.2-1 0-1.1"/><path fill="#6f6f77" fill-opacity=".8" d="M365 267.4q-.2.5-.9.8-.1-1.1 1-.8"/><path fill="#d53551" fill-opacity=".4" d="m360 58-.4 1-.9-.4q.6-.4 1.3-.6"/><path fill="#81818c" fill-opacity=".3" stroke="#81818c" stroke-opacity=".3" stroke-width=".5" d="m366.3 266.2-1.3 1.2q0-1.2 1.3-1.2Z"/><path fill="#83838c" fill-opacity=".4" stroke="#83838c" stroke-opacity=".4" stroke-width=".5" d="m368.2 265.3-1.2.9q.2-1 1.2-1Z"/><path fill="#ec3a59" fill-opacity=".3" d="m331 55 1.3.3q-.6.5-1.2.7z"/><path fill="#ce3852" fill-opacity=".4" d="m350 54.4 1.4-.1q-.7.7-1.7.8z"/><path fill="#9b9aa7" d="m372 263.2 1-.1q-.1.6-.9.8z"/><path fill="#55c273" fill-opacity=".2" stroke="#55c273" stroke-opacity=".2" stroke-width=".5" d="M496.2 448.6q-.5 1-1.5 1.4.4-.9 1.5-1.4Z"/><path fill="#e3e2f7" d="m406 226.2-.2 1q-.5 0-.9-.2.3-.9 1.2-.8"/><path fill="#e791ab" fill-opacity=".8" d="M314 125.1q-.3.8-1.1.5.4-.5 1-.5"/><path fill="#59d379" stroke="#59d379" stroke-width=".5" d="M406 302.3a312 312 0 0 1-16 11.1q-2 1.4.3 1.4 8.7-5.4 17.6-10.3 1-.6 1.3-1.7c5 .2 10 .7 14.7 2.4l-19.5 13.6q-3.7 2.6-7.5 4.7-.6.3-.7 1 .9.5 1.8 0l28.3-16.6q1.2-.7 2-1.7 6 1.7 11.6 4.4-1.5.4-2.6 1a415 415 0 0 1-22.4 14.9q-.6.3-.8 1a2 2 0 0 0 2 0q12-7.3 24.5-14.4.8-.4 1.5-1.2a28 28 0 0 1 8.9 5q-.4.9-1.3 1.4L392 358.5q-.9.6-1 1.6-2-.2-2.8 1.5c.8.7 3-.4 2.7-1.5 2.3.4 4.4-3 7.2-3.2-6.6 9-2.2 26.9-3 37.6q0 .9-.6 1.5-14.3-.2-28.4.5c-1.6.2-16.2 2.2-12 6 11 5.6 28.2 3 40.4 3.6q.6.6.5 1.4v21.9q0 1.4-1.2 2l-62.5 36-5.5-7.5q12.3-7.6 24.1-16.1l26.6-17.8q.6-.4.6-1c.9.2 3.8-1 2.6-2q-2 .2-2.6 2c-8.4 3-16.4 10.1-25 13.7l-1.4 1.4c-2 .9-26 13.9-27.2 16.1-1.1-2.7-4.3-6.6-4.5-9.4 1.4.1 13-8.2 14-9.5a15 15 0 0 0 6.2-4.7 303 303 0 0 0 30-19.7q4.5-2.5 8.5-5.5c-.4-1-1.9-.2-2.6 0l-7.1 4.2c-16.3 9.4-35.4 21.2-51.9 29.5a45 45 0 0 1-2.9-8.2l11.2-7.2q1.2-.6 1.8-1.8c.9.2 3.7-.8 2.5-2q-2 .2-2.5 2l-2.2.3q-5.4 3.8-11.1 6.8c-1.3-.6-2.6-8-3-9.9q1.2 0 2.1-.6 19.6-12.9 38.8-26c-.4-.8-1.8-.4-2.5 0-11.9 8-24.9 14.6-37.2 22l-1.8.6q-1.5-5.1-1.1-10.4c3.5-1.5 12-8.5 16-11q1.1-.5 1.9-1.6l1.1-1.1q11.6-7.4 23-15.2c1.7-1.8 9.5-6 10-7.9 1 .4 3.8-1 2.5-1.8q-1.9 0-2.4 1.8-1.2 0-2.2.6L307.4 400c-.3-3.3-.5-8.7.4-11.9l2.2-.8 12.8-8.8q-.8-.8-1.8-.2a140 140 0 0 1-13 7.7q0-6.6 2-12.9 1-.2 2-.7 7.7-5.5 15.7-10.8-.7-.6-1.8-.4-5.3 4-11.2 7-2 1.3-4 1.7 1.5-7.1 4.4-13.9 2.4-.6 4-2.6-1-.8-2.3-.5a82 82 0 0 1 56-46.6q-7.7 6.7-15.9 13.1-1.6 1.5.4 1.1a330 330 0 0 0 28-16.6c6.8-1.5 13.7-1.5 20.7-1.6Zm52 19.4 7.3 6.5c-3.3 1.8-6.2 3.3-9.1 6l-2.2 1.1q-18 12-35.8 24.2.9.5 1.8.1l22.6-13.6 4.7-2.3 1.8-2.1 7-3.5q5.2-2.4 10-5.4 1.2-.8 1-2c1.6 1.5 6.7 6.4 6.6 8.6q-.9-.4-1.8.3c-1.4 1.4-6.6 3.3-6.7 5.4-2.4-.6-5 2.8-7.2 3.6-1.2.5-1.2 1.9.2 1.2l6.8-3.8c1.8-1.5 8.8-4.6 9.6-6.4 2 2.3 4.5 5.8 5.5 8.6-1.9-.2-20.2 13.2-23.2 15.2q-.8.4-.8 1.3l-1 .3q-1 0-1.1 1-1.2 0-1.9.9a2 2 0 0 0-1.3 1.1q-1.1 0-1.6.8a2 2 0 0 0-1.3 1.2q-1.2-.1-1.8 1a2 2 0 0 0-1.3.9q-1.2 0-1.8 1-.8.3-1 1.2-1 0-1 1-1.5-.4-2 1-2 .2-3 1.7c-1.4 1-3.6 1.7-4 3.4q-1.1 0-2 .5-6.4 4.2-12.7 8.7c.8 1.2 4.4-2 5.2-2.5l4.2-1.9c1.4-1.4 5-2.3 5.5-4.1q1.3.1 1.9-1l1-.3q1.6 0 2.1-1.5 1.5-.3 3-1 .6-.2 1-.9l.7-.5q.9.1 1.2-.7.8-.6 1.7-.7 1-.3 1.4-1.2h.7q.9-.3 1.5-1.1c10.7-6 24.9-13 34.4-20.3q2.5 4.5 4.1 9.4c-2.8.9-26.3 17.6-31 20.5q-.6.5-.6 1.2-1.5.3-2.9 1-7 5.2-14.5 9.7-1 .6-1 1.6-13.8.2-27.4.1-2.2.4-2.3-1.7 0-18.6-.2-37c-.2-2-5.8-1-7.1-1.5a58 58 0 0 1 13.4-8.3c2-2.3 2-2.4 5.1-3q1.5-1.5 3.5-2.3 2.4-.8 4.3-2.3a1439 1439 0 0 0 31.9-18.4Zm-6.2 31.5c.8 0 5.6-2 4-3q-2.6.7-4 3Zm36.8 12.5q1.8 5.3 3.1 10.5c-2 0-32 21.9-36.2 24.8q-1.2.6-1.6 1.8c-3.3.6-19.4 13.6-24 15.7q-.7.6-.9 1.6-2-.3-2.9 1.6c.7 1.1 2.7-.6 3-1.6 3.9-1.3 22.1-12.3 27.1-15.4q18.5-10.2 36.5-21 1.2.5 1.2 1.8l1.1 8.4c-3.6 1-21.2 14-25.5 17q-3.9 2.1-7.6 4.5-.8.5-.7 1.5c-.9 0-5.7 2.4-3.9 2.8q2.6-.7 3.9-2.8c2.1-.2 3.6-1.8 5.5-2.5l28.4-16.6q.7 6 .2 12.1-1.3-.2-2.4.4l-26.8 18.5q-1.1 1.5-3.2 1.8-.8.4-.8 1.2l-2.2.6q-2 1.6.4 1.3 1.2-.6 1.8-1.9l2-.2c9.6-6.5 20-11.6 30-17.6h.6c-.1 8.6-2 18.3-5.6 26.2q-1-.1-1.8.5-6 4.5-12.2 8.8-.7.5-.9 1.4-2 0-3.1 1.7c1 1.2 2.6-1 3.1-1.7 3-.4 10.5-5.8 13.7-7.2a86 86 0 0 1-63 53.3l-.2-.9 21-17.5q-.8-.4-1.6.2l-32.2 18.6c-.4.9-3.2 1.4-2.7 2.3q-9.3.8-18.5.1l30.1-21.6q1.3-.9 2-2.1c.5.1 2.7-.4 1.7-1.2a3 3 0 0 0-1.7 1.2q-1.7 0-2.6 1.6-16.4 8.9-32.6 18.4-2 1-3.5 2.5c-4.5-.6-20.9-4.3-23.4-7.8l.2-.7 2-.8c12.7-8.5 25.9-18.3 38.7-26.2q.3-.4.3-1l2.3-.5q1.8-1.6-.5-1.4-1.2.7-1.8 2c-1-.3-7.5 4.1-8.9 4.5l-34.7 20a4 4 0 0 0-2.2 2 31 31 0 0 1-8.5-5.9l42.7-28.9q.5-.3.5-.7c.4-.4 4.4-1.3 2.8-2.2q-2 .3-2.8 2.2c-2.4-.3-2.6.6-4.4 2-13 7.8-30.7 16.5-42.4 25.2-1.5-1.7-7-5.4-7-7.6l1.6-.6 51.4-35.9q.8-.6 1.3-1.4l1.5-1.2q1 0 1-1l1.1.2q0 6.2.4 12.3.4.6 1.3.6 4.3 1 7.9-1.9c5.4-6.9 2.7-28 2.7-37.3q.4-.7 1.3-.6c5.6 0 40.5 1.5 40.7-4.5-.6-3.7-7-5.9-10.3-5.5q.3-1 1.3-1.5 7.3-4 14.5-8.2a2 2 0 0 0 1.2-1.6q1.2.1 2.1-.3c6-4 27.1-14.6 30.6-18.7ZM454.8 421q.7 0 1-.5-.7-.4-1 .5Zm23.1 49.8a6 6 0 0 1-1.4 5.3l-10.5 6.3q0-1.2.9-1.9 6-4.2 11-9.7Zm-105 23.6c.5 0 2.7-.6 1.6-1.4q-1.2.1-1.7 1.4Z"/><path fill="#262626" stroke="#262626" stroke-width=".5" d="M497.2 446q-1.3.5-1.5 1.9l.5.7q-1 .5-1.5 1.4a129 129 0 0 1-27.8 30.4q-.7.7-.9 1.9-1.5-.5-2 1.1-.8-.2-.8.7-1 0-1.6.9a159 159 0 0 1-23.8 13.8l-.6.1-1.2.4h-1.3q-4.2 1.9-8.7 3.3-1 .4-1 1.5c-3.2-1-13.4 2.6-17.5 2.7-47.2 5.3-82-19.6-104.5-59.3-1.4-1-6 0-8-.8q-2.6.5-5.3.3-11.8 0-23.5-.2-2.8.3-5.5.2a1064 1064 0 0 1-33 0h-14.3a27 27 0 0 1-5.4-.3 654 654 0 0 1-32 0q-9.5.6-18.8.1a218 218 0 0 1-40.8.2h-4.7a864 864 0 0 1-27 0h-19q-11.7 1.8-23.5.7-2-.9-4.2-.9-5.6-.9-11-2.8-.7-1.2-2.4-.8c.5-1-1-1.3-1.7-1.4-15-8.6-19.5-18.7-21.7-35.3a6956 6956 0 0 0 0-303q1.1-12.7 3.9-25.3.7-.6.7-1.5a110 110 0 0 1 7-15c1.3.5 2-1.1 2-2.2a50 50 0 0 1 21-11.4L38 48q7.2-1 14.4-.2l.6-.4q0-5.4-.5-10.7a41 41 0 0 1 6.5-22C59.3 13 70.5 6.6 72.8 6q3.3 0 6.5-.6c19.9 5.5 25.1 20.7 21 40.3q-.2.9.3 1.3l48.9.3c1.3-.3 5.8.6 6.3-.9-2.8-18 1.8-37.2 22-41.4h2.5c21.2 2.2 26.2 23.7 22.6 41.6q-.6 2.3 1.6 2.4l7.1-.1q4 .3 7.7-.1 9.8.4 19.4 0 4.3.3 8.5 0 4.7.3 9.3.2.8 0 1.4-.5 0-4.5-.7-8.9c-.6-15.3 5.7-31.6 22.5-34.5q1.8 0 3.6-.3C304.2 7.2 308.5 29 305 46.5q-.3.9.5 1.5a266 266 0 0 0 24.6.1q7.5.3 14.8 0 2.6.4 5 .1h8.5q1.3 0 2-.8-1.5-9.4-.3-18.9c6-35.2 49.9-31.2 48.2 7.5l-.5 10.5.7.4c23.4-2.4 48.6 10 49.9 35.8 1 75.2.2 150.6 0 225.8a4 4 0 0 0 1 2.5 138 138 0 0 1 36.7 37.4c20 32.4 18.5 64.6 1 97.6ZM66.2 49.2v3.6q.3 7.5-.4 15.1V71c.5 7 2.3 16 9.3 19.2a5 5 0 0 0 3.4.7c4.2.2 5.5-2.8 6.7-6.3l.2.1A56 56 0 0 0 88 62.5c-.2-.7 1-2.3 0-2.5-.1-2.5.6-12-1.2-13.5q.5-.5.5-1.2.1-1.8-.1-3.4c-.6-8.4 2.2-18.1-3.5-25.2-1-1.2-3.1-3.8-4.8-3.5-.9-2-5-1.9-6.6-.4-10.6 7.6-6.6 25.3-6.1 36.4Zm103 30q.4 2 1.6 4c7.1 14.7 18.6 2.7 19.6-8.4l-.2-.8c1 0 .7-1.4.7-2-1-8 .6-50-4.3-54a7 7 0 0 0-5.3-4.7c-10-6.4-14.2 12.9-13.5 19.2.5 13 1.1 25.9.5 38.9q.2 4 .9 7.7ZM275.9 87a4 4 0 0 0 3.2 2c12 5.5 15.7-20 14.4-27.2-3.2-12.3 3.4-41-8.6-48.2-8.5-5.3-13.8 6.5-14.5 13.2 1.4 10.2-2.7 55 5.5 60.2Zm97.2-13 .2 2.1c.5 2.3 2 9.2 4.7 10 .3 1.8 3.4 2.7 5 2.9 9 1.3 14-16 13-23v-1c-1.7-9.9-.2-38.4-3.6-45.8a3 3 0 0 0-2.4-1.3c1.2-1.7-2.6-4-4-4-.3-1.1-4.3-.6-5.2-.4-11.7 7.4-8 27.5-7.2 39.3q-.5 10.6-.5 21.2ZM15 81.2v3.5a970 970 0 0 0-.2 40.3q-.2 3.6.3 7.3c1 1 5.4.3 6.8.2q7.5.5 15 .1 8.7.3 17.1 0 6.4.3 13 0 8.4.3 17 0 3 .3 5.8 0H94c5.7.2 12.5.5 18.2-.2q4.8.6 9.6.4l1-.2q1.5.3 3.2 0a275 275 0 0 0 22 0q9 .3 18 0 6 .3 12 0 9 .4 17.8 0 1.5.2 3.1 0 8.5.4 17 0 7.5.4 15.2 0 18.5.3 37 0a39 39 0 0 0 7 0q9.2.4 18.2-.1a45 45 0 0 0 10.6.2q8.6.3 17-.2 4.5.6 9 0 9 .5 18 0a96 96 0 0 0 14.7 0 197 197 0 0 0 22.2 0 686 686 0 0 0 37 0q3.5.3 7.1 0l15.6.3q.8 0 1.3-.6c.6-15.4 1.8-31.2-.8-46.6q-.3-3.3-1.2-6.4-1.3-5.7-4.2-10.6c-.5-.6-1.3-2.9-2.3-2.6-.4-2.3-5.3-6.8-7.5-6.8-.8-1.7-4-2.8-6-2.2q.3-.6-.4-1a38 38 0 0 0-16.1-.7q0 .3.4.5.5 6.2.6 12.4-.3 1.6-.2 3.4c-5 33.4-42 35.2-47.8 3.6q-1.2-8.1-.7-16.4l.4-1c-.1-.6 1-3.2.2-3.6q-4.5-.6-8.8 0H350c-4.4-.6-12.6-.2-17.4-.2h-27c-1.1.6-.7 4.7.2 4.6.7 19.1-5 39-27.8 39q-1-.7-2-.6c-18.2-5.8-20.6-24.6-18.2-41q.6-2-1.3-2.4-5.1-.1-10.2.2a94 94 0 0 0-17.6.2c-2.6-.7-6.8-.6-9.5-.2q-8-.3-15.7 0-.9.6-.7 1.5l1 9.9c.2.5-1 3.5-.1 3.4-3.4 18.3-11.5 29.6-31.6 28.2-8.7-4.2-11.4-7.4-15.9-16.2q0-.8-.4-1.4-1.1-7.1-1.2-14.5l.9-9.5h-.3a214 214 0 0 0-18.5 0q-3.2-.5-6.4.1h-1.2q-14.2-.4-28.5-.2-.6.4-.5 1.3 1.2 9.7-.2 19.5-1 .7-.9 1.9Q95.3 88.4 85.5 94a1 1 0 0 0-.4.8C63.9 100.5 52.7 87.5 52 67v-3l1-7.6q.5-2.1-1.6-2.3-4-.2-7.7 0a9 9 0 0 0-3.8.1c-14 3-23.8 12.5-25 27.1Zm.2 63.6-.5 1.3.2 2.6q-.3 18 .2 36.2l-.3 1.2.1 6.6c.1 6-.5 17.1.4 22.5q-.5.8 0 1.4a367 367 0 0 0-.5 28.2V280q-.1 5.6.2 11 0 .6-.3 1l.3 4.8a1139 1139 0 0 0-.3 38.1c.4 3.4-.5 8.5.6 11.5q-.3.6-.1 1.4-.3 5.2-.1 10.4 0 3.9-.3 7.8l.2 11.3q-.7.2-.3 1-.5 1.7-.5 3.5v11.1c0 2.4-.5 7.4.8 9.4l-.2.8v4c.6 2.2 1 7.2 2.3 9v1.2l1.5 3.9q1.5 4.2 4.3 8c1.5 1.1 3 3.7 5 3.9 1.8 2.8 5.8 4.6 9 5q.6.5 1.4.6l1.3.3a41 41 0 0 0 15.2 1.4c2.7.3 8 1 10.3-.4q.3.9 1.4.7l44.1.6 40-.2 24.3.2 1.1-.4q8.7.3 17.3.1l13.6.2 1-.5a114 114 0 0 0 18.8 0c5.3 0 13.2.5 18.1-.4 1.5 1.2 12.6.1 15.2.5h17.9c3.2-.5 9 .3 11.8-.9q.6 1 1.7.8 4 0 8-.7 0-.3.2-.5-1.1-2.8-1.8-5.6-.7-2-1.7-3.8a366 366 0 0 1-2.9-17l-.4-8.5q0-.9-.5-1.3l-9 1.4c-6.5.4-12 .2-18.2-2-1-.5-2.6-2-3.8-1.5l-5-6c-16-24.4 9.1-62.7 39.3-46.4l8.7 4.8 6.5-10.3a133 133 0 0 1 20.3-22.3q11.1-8.7 23.7-14.7.7-.2 1-1a93 93 0 0 1-3.3-11.1c-1.4-8.8.7-15.6 6.5-22.3q.7-.2 1-1 .8 0 1.1-1 .8 0 1.2-.5l1-1.3h.8q.6 0 1-.7l1.2-1.2h.7l1.2-1 .7-.4q1.2.3 2-.7l1.2-.2q.8-.1.9-.8c13.3-3.1 22-2.2 34 4q0 .8.8 1.3.4.5 1 .5a34 34 0 0 1 6.6 16.5q.2.6.9.7-1.4 4.5-1.2 9.3c.6 1.2 4.6 1 6 1.4l3.7.2c.9 1 11.3 2.9 13.4 3.8 2 .7 4.5 2.3 6.7 2.2 0 1 1 .8 1.2-.3v-6.6q0-5.6-.3-11l.4-1.3-.2-2.5q.2-5.3-.3-10.4l.5-1V247q-.3-2.4-.2-4.7l-.2-21.4.5-1q-.4-2.2-.3-4.6.1-6.3-.3-12.4.6-5 .2-10l.4-1q-.4-3.3-.3-6.7.1-5.1-.3-10.2l.6-1.1a9 9 0 0 1 0-4l-.5-10 .5-1-.5-18.2q-.6-.6-1.3-.5-5.7 0-11.4.5a5 5 0 0 0-3.5-.5h-2.4l-18.3.1q-3-.3-6.1-.2H395l-7 .2q-1.5-.5-3.2 0a165 165 0 0 0-11.9-.2l-1 .2h-4.8q-1.6-.4-3.2-.1h-17.8l-12 .1a7 7 0 0 0-3.4 0q-2-.2-3.7.3-1-.4-2-.3a332 332 0 0 0-21.3 0 430 430 0 0 0-23.5-.2q-2.7-.3-5.4.2a303 303 0 0 0-20.5 0 10 10 0 0 0-4.7-.1H226c-2 .1-5.3-.6-7 .8q0-.5-.6-.7-8.1-.3-16.2 0-2.2-.6-4.4-.2a245 245 0 0 1-15.6.2 271 271 0 0 0-52.1 0 10 10 0 0 0-4.2 0c-4.8.2-13.3-.6-17.6.5-2-1.2-5.9-.4-8-.6H98a8 8 0 0 0-4.1.2 640 640 0 0 0-27.1 0q-12.8-.3-25.7 0-2-.6-4.3-.2H15.7c-1.5.6-.6 3.6-.5 4.7ZM192 177q1.2.9 2.6 1c4.2 2.6 7.6 5.7 11.3 8.8 21 45.3-43.1 64.7-55.3 30.3-7.3-26.8 13.8-49 41.4-40.1Zm97.7-1.6a3 3 0 0 0 2.1.6q.2.6.7.8 13.3 3.7 18.4 16.6l.8 1.6.5 1c7.3 43.4-58 53.4-60.7 13.3-1-15.7 8.9-31.4 25-34q6.6-.3 13.1.1Zm113.2 5 2.8 1.8c2.2 2.6 4.8 5 6.2 8.2l1.3 2.7q1.6 5 1.9 10.1l-.4 1q.3 2.9-.6 5.6c-1.2 6.4-5.1 11-8.1 16.5q-.9 0-1.2.8l-1.2.2q-1.9 1.5-4 2.8L394 233q-10.5 1.8-21.2 1c-.4-1-2.7-1-3.5-1.2q-5.5-3-10-7.6-2.1-.8-3.2 1l-1.4.2q0-.8.5-1.3 1.4-.6 2.3-1.8-2.4-5.7-4.4-11.7c.7-13.3 2.8-22.5 13.4-31.5l.4-1.3q1.8 1 1.7-1c.6.3 2.5.5 2-.8 12-3.2 21.3-2.6 32.3 3.4ZM161 210l1.7 4.1a24 24 0 0 0 10.2 10.3c17.8 7 30.6-9.9 23.5-26.7q-.9-2-2.1-4a24 24 0 0 0-9.2-8.8l-2-.8q-1.1-.2-2.2.2c.2-2.5-6.9-.8-8.3-.3a21.4 21.4 0 0 0-11.6 26Zm106 7q.8 1.4 2 2.3c17 19.5 43.7-4.7 25.4-28.7l-2-2.1c-18.9-16.8-38.8 9.5-25.5 28.6Zm105.7 4.2q2 1.8 4.2 3c24.8 11 36.2-23.8 13.1-39.1a20 20 0 0 0-3.7-1.7c-20-3.8-29.1 24.2-13.6 37.8ZM150.1 283l.1-1.8c18.4-42.9 76.6-14.8 56 23.5-13.3 23-52.5 21.2-56.8-7.4a48 48 0 0 1 .7-14.3Zm158.2-12h.4c-1 2 2.2 6.3 2.6 8.4 12.6 41.8-53.6 58.3-59.6 16.5-3-32.7 32.8-47.6 55.2-25.1q.6.3 1.4.2ZM101 307.8q-1 .3-1 1.4-.9-.1-1.3.7-5.6 4.5-12.4 7l-1.2.3c-7 1-14 1-21 .1-3.6-1.7-7.1-2.7-10-5.6q-1.6-1.2-2.7-2.6c-8.4-12.5-5-21.5-.4-34.3q1-.1 1-1.1 1 0 .8-1.1 1 .2 1.1-1c.8-1.3 3-2.2 3.3-3.8q4-3.4 9-5.1H68q1-1 2.6-1H74c29.7-1.7 42.8 20.7 27 46Zm-41.5-10.6L61 301a24 24 0 0 0 10.7 10.5c17 6.8 27.4-11.9 23.2-26.6a26 26 0 0 0-8.8-13 21 21 0 0 0-9-4.2c-16.6-1.5-22.4 16.3-17.7 29.7Zm100.8-6.2.7 3a28 28 0 0 0 8.7 13.3c17.8 13.4 36.6-10.2 25-28.5q-1.5-2.3-3.4-4.1c-13.6-12.4-33.2-2.2-31 16.3Zm102.4 2q.4 2.1 1.2 4 2.5 6.5 7.9 10.6 2.3 1.8 5 2.8c17.6 4.6 28.8-11.5 21.8-27.7-.7-1-1.3-3.5-2.7-3.8l-.5-1a20 20 0 0 0-10.2-8.4q-2.5-.8-5.2-.8c-11.8 1-19.4 13.1-17.3 24.4Zm105.2 7c.3 1.5 2.5 1.3 3 .2q6.3-1.7 12.8-3l18.7-2.4q.5-.6.4-1.3c.4-8.5-2-17-9.7-21.5a19 19 0 0 0-10-2.3c-17 1.6-22 15.9-15.2 30.3Zm17.3 3.9q-6.3.3-12.3 2.4a82 82 0 0 0-56.1 46.6 2 2 0 0 0-.8 1.2l-1 2a76 76 0 0 0-5 17 49 49 0 0 0-2.2 15 37 37 0 0 0-.4 12c0 1-.5 3 .3 3.8q-.2 1.5.4 2.8-.4 5.3 1 10.4 0 2 .8 4c.3 1.8 1.6 9.3 2.9 10l.3 1.8q1 4.2 3 8.3.6 2 1.6 4.1.3 1 1.2 1.5c.2 2.8 3.4 6.7 4.5 9.4l2.3 3.7q2.7 3.9 5.5 7.4c1.3 1.2 4 5.6 5.8 5.5 0 2.2 5.5 5.9 7 7.6a14 14 0 0 0 3.6 2.4c1.7 2.1 6 4.6 8.5 6q1.5.7 2.8 1.7.9.5 1.8.3c2.5 3.5 18.9 7.2 23.4 7.8q3.1.9 6.6 1.2a111 111 0 0 0 32-2q1.3.2 2.2-.8a86 86 0 0 0 63-53.3q1.2-1.5 1.2-3.5a69 69 0 0 0 5.6-26.2l.4-1.1q.2-1.5.1-3 .6-6 0-12.1l-.2-3.9-1-8.4q-.1-1.2-1.3-1.9c1.2-1.6-.6-5.5-1-7.4a85 85 0 0 0-4.8-14 56 56 0 0 0-6.8-14c-1-2.7-3.6-6.3-5.5-8.5q-.3-.6-.9-.4c.1-2.2-5-7-6.5-8.7l-1.9-2.4q-3.7-3.2-7.2-6.5a27 27 0 0 1-3.8-2.8q-1.5-1.3-3.3-2c-2.5-2.1-5.8-4-9-5q-.9-.9-2.1-1.3a65 65 0 0 0-16-5.4 51 51 0 0 0-14.7-2.4l-3.2-.5c-7 .1-14 .1-20.8 1.6ZM168 403.9q-.9 0-1.6-.3a29 29 0 0 1-16.1-16v-1.7c-3-13.3 1-22.5 8.6-33q1 0 1-.9.8 0 1.4-1h.9l1-.7q.8-.6 1.1-1.4l1 .3a2 2 0 0 0 .9-.9l1-.5q.6 0 .8-.6c42.4-11.9 59 41 22.3 55.5a46 46 0 0 1-22.4 1.2Zm-94.3-58c22 .5 36.2 9.8 34.2 33.4l-1.6 4.5c-5.5 14.5-16.7 19.5-31.4 20.7l-2.8 1.4c-.3-2.8-4.3-1.9-6.2-2.1.2-1-3.6-1.2-4.3-1.8l-6.7-3.4q-.3-1.2-1.4-1.9a22 22 0 0 1-5.5-9q-.9-1.2-.9-2.7c-2.1-9.7.2-16.5 4-25.2q1-.2 1-1l3-3.6q6.3-5.7 14.3-8.5 2.3 0 4.3-.7Zm-1.8 50.4q2.5.8 5 1.2c23.5.9 24.5-33.3 5.4-42.8q-1.5-.7-3-1c-24.7-3.8-29 32.2-7.4 42.6Zm194.9-7q2.3 3.4 6 5.2a25 25 0 0 0 15.5.1c7-1.5 5-6 6.4-11.5l.1-1c.5-3.7 3.8-12 3.4-15.3-2-4-7.2-8.4-10.8-11q-3-1.6-6.1-2.2c-16.8-.6-21.6 23.8-14.5 35.8Zm-94.8 5.8a12 12 0 0 0 8.1 1.6c21.4 2.1 26.3-35.1 1.3-42.5-23.8-3.3-28 29.3-9.4 40.9ZM400 356c1.3.4 7-.5 7 1.5q.4 18.4.3 37 0 2.1 2.3 1.7l29.4-.2c3.4-.4 9.7 1.8 10.3 5.5-.2 6-35 4.5-40.7 4.5q-.9 0-1.3.6c0 9.3 2.7 30.4-2.7 37.3a10 10 0 0 1-8 2q-.7 0-1.2-.7-.4-6-.4-12.3 0-.7-.6-1.2l-.6-.2q1.1-.7 1.1-2.1l.1-21.9q0-.9-.5-1.4c-12.2-.6-29.4 2-40.4-3.6-4.2-3.8 10.4-5.8 12-6q14.3-.6 28.4-.5.8-.6.6-1.5c.8-10.7-3.6-28.6 3-37.6q1.3.4 1.9-.9Z"/><path fill="#9695a1" fill-opacity=".1" d="M82.3 339.4q1.1-.6.7.6l-7.9 4.6-1.5 1.4q-2 .7-4.3.7.4-1 1.3-1.5 4-2.1 7.7-4.5c1-.4 2.9-1.8 4-1.3"/><path fill="#a3395d" d="M190.9 72c0 .6.3 2-.7 2q-.3-1.2.7-2"/><path fill="#59d379" fill-opacity=".5" stroke="#59d379" stroke-opacity=".5" stroke-width=".5" d="M401.9 462.2q.6-1.3 1.8-2 2.4-.3.5 1.4zm20.9 13.9q.6-.9 1.7-1.2c1 .8-1.2 1.3-1.7 1.2Zm-50 18.2q.5-1.3 1.7-1.4c1.1.8-1.1 1.3-1.7 1.4Z"/><path fill="#5ad478" fill-opacity=".3" stroke="#5ad478" stroke-opacity=".3" stroke-width=".5" d="M474.2 450.9c-.5.8-2.1 2.9-3.1 1.7a3 3 0 0 1 3.1-1.7Z"/><path fill="#59d479" fill-opacity=".4" stroke="#59d479" stroke-opacity=".4" stroke-width=".5" d="M390.8 453.2q.7-2 2.8-2.2c1.6 1-2.4 1.8-2.8 2.2Z"/><path fill="#59d379" fill-opacity=".5" stroke="#59d379" stroke-opacity=".5" stroke-width=".5" d="M462 431.8q-.5 1.3-1.7 2-2.4.2-.4-1.4z"/><path fill="#bae0d2" d="M326 424q.6-2 2.6-2c1.2 1-1.6 2.1-2.5 2m51 1q.6-1.8 2.6-2c1.2 1-1.7 2.2-2.6 2"/><path fill="#58d379" fill-opacity=".4" stroke="#58d379" stroke-opacity=".4" stroke-width=".5" d="M461.2 416.9a7 7 0 0 1-3.9 2.8c-1.8-.4 3-2.8 3.9-2.8Z"/><path fill="#b6dfcf" d="M360.2 369.9q.5-1.6 2.4-1.8c1.3.8-1.5 2.2-2.4 1.8"/><path fill="#b2dfcc" d="M390.8 360.1c.3 1.1-2 2.2-2.7 1.5q.9-1.7 2.7-1.5m38.2 60c-.2 1-2.2 2.7-2.9 1.6q.8-2 3-1.6"/><path fill="#a8ddc2" d="M451.8 353.2q1.4-2.3 4-3c1.6 1-3.2 3-4 3"/><path fill="#5ad47a" fill-opacity=".3" stroke="#5ad47a" stroke-opacity=".3" stroke-width=".5" d="M454.8 421q.3-1 1-.6-.4.6-1 .5Z"/><path fill="#eceffa" fill-opacity=".2" d="m439 376.2 1.3.1v.4l-.2 1.3a8 8 0 0 1-2.9 1.1l-.2-1.2q1.4-.5 2-1.7"/><path fill="#ea3957" stroke="#ea3957" stroke-width=".5" d="M219.3 54q-7.5 5.7-15.4 11.3l-1-9.9q-.2-.9.7-1.5 7.8-.3 15.6 0Zm93.3.2q9.3-.3 18.6 0l-.2.8h-1c-1.4 1-4.7 2.4-5 4-1.8-.1-3.8 1.5-5 2.7.9 1.4 4.5-1.6 5-2.6q3-.6 5-3h1l1.3-.8q.6-.5.4-1.2c4.8 0 13-.5 17.3.3l-.3.7q-24 17.6-47.5 35.6l-2.9 1.6c1.4 1.5 2.5-.3 3.5-1.1l53.9-31a7 7 0 0 0 2-1.6l1 .3q-.6 8.3.6 16.4c5.7 31.6 42.9 29.8 47.8-3.6 1.4.2 21.3-11.1 21.7-12.4 2.2 0 7.1 4.5 7.5 6.8a503 503 0 0 0-21.9 16.1 34 34 0 0 1-5 3.2c1.2 1.4 2.4-.4 3.4-1.2 5.5-3.3 22.1-11.8 25.8-15.5q3 5 4.2 10.6-.8-.5-1.5.3l-25 20.4q-1 .8-2.3 1.5c-1.4.9-.2 1.6 1 1.1q14.3-8.7 29-16.9c2.5 15.4 1.4 31.2.8 46.6q-.5.6-1.3.6l-15.6-.3q2.5-3 4.9-6.3c.8-2.2-2.6-.3-3.1 0-2 2.8-2.2 2.2-5.6 3.2-2.1 1.1-.4 2.6-3.3 2.4-.5-1-2 .6-2.7.8q-17.1.3-34.3-.1a54 54 0 0 1 5.2-4.1q.8-.7 1.2-1.6 1 .3 1.6-.6c-.4-.9-1.8-.2-1.6.6q-2 .5-4 1.7a22 22 0 0 1-5.8 3.4l-.4.7q-9.3.5-18.4 0 1-1 2.4-1.3c1.2-1.3 4.1-2.9 4.3-4.7q1-1.5 2.8-2h1.2q1.6-1.2 2.7-2.7c4.5-3 17.8-13.7 21.8-17.9.6-.4 4-1 2.7-2.1a4 4 0 0 0-2.7 2.1 135 135 0 0 0-22.5 12.9c-3 1-26.5 14-27.4 15.7q-9 .5-18 0l23.4-16.5 6.7-5q.6-.3 1-1.2c.6-.3 4-.9 2.6-2q-2.1 0-2.7 2c-2-.1-7 3.8-9 4.6l-31 18q-8.4.5-17 .2 1.8-1.6 3.6-2.8.4-.6.2-1.4 1.3.6 2.2-.6.8-.3 1.1-1 .9-.3 1.2-1.2l1.8-.7q.8-.5 1.3-1.2c7.6-4.8 21.2-14.5 27.5-19.7.4-.4 4.3-1.3 2.8-2.2a3 3 0 0 0-2.8 2.2h-1.9L295.4 131a5 5 0 0 0-2 1.7q-9.1.5-18.3.2v-.7q1.2 0 1.8-1 1.4 0 2-1.1a2 2 0 0 0 1.2-.9q.6-.3 1-1 1 0 1-1h.8q1-.3 1.5-1.3c3.7-2.3 20.6-13.7 22.4-15.7.4-.3 4.3-1.1 2.7-2q-2 0-2.7 2c-3.4.3-7.4 3.8-10.3 5.7q-13.6 7.4-27 15.3-1 .4-1.4 1.6-18.5.3-37 0l17-12.8q13.5-9.8 26.9-20a3 3 0 0 0 1.8-1.7l1.3-.5c22.7 0 28.5-19.9 27.8-39q3.3-1.3 6.2-3.2 1-.4.5-1.3Zm-175.8 1a214 214 0 0 1 18.5 0A4147 4147 0 0 1 109 89.6q-.8.4-.8 1.3a4 4 0 0 0-3 1.8c1 1.2 2.5-1 3-1.8 4-.1 40-22.3 46.5-26q0 7.4 1.2 14.5c-1.5 0-7.3 4.2-7.7 5.6q-2.3 0-3.2 2-2.1 0-3 1.7c1.3.7 2.6-.5 3-1.7a3 3 0 0 0 3.2-2c2.5-.1 5.9-3 8.1-4.2 4.5 8.8 7.2 12 16 16.2l-.7 1.2c-1-.1-5.3 2.7-6.3 3.3l-51 29.4q-1.2.6-2.1 1.7c-5.7.7-12.5.4-18.2.2a70 70 0 0 0 7.3-5.7q1.2.1 1.5-1 .8-.1 1.4-1 1.2 0 1.6-.8 1-.4 1-1.3.9 0 1.3-.8l1.1-.2q.6-.2.8-.8.8-.4 1.3-1.3A171 171 0 0 0 126 110c1.4-.7 4.4-2.7 5-4 .6-.2 4-1.1 2.6-2q-2.2-.1-2.5 2-3 .2-5.2 2.7-1.5.4-2.9 1.4-10.1 5.5-19.9 11.7l-1.2.4-1 .6q-1 .3-1.8 1.1-1 .3-1 1-1 0-2 .6L84 132.8H67l18.5-14q12.9-8.9 25.3-18.2c-1.7-1-1.9 1-3.2 1.5q-11.3 6-22.2 12.5-1 .4-1 1.3c-7.2 2.6-22.7 12.6-30.3 16.8q-8.4.3-17 0c2.9-2.8 17.7-12.6 18.9-15 2.5-.3 20.4-14.8 24.1-17.2q1.2-.8 0-1.3c.8-1.9 3.6-2.1 5.3-2.5q2.6-1.1-.1-1.8 0-.5.4-.8 9.8-5.5 13.5-16.2 1.4-.6.9-1.9c1.3-1 4.2 0 4.8-1.4L136.5 56q.3-.4.3-.8Zm272 0q7.5-1 14.6 1 .6.3.5.9-8 5.4-15.6 11.2l-.6-12.4q.8 0 1-.7ZM88 60c1 .2-.2 1.8 0 2.5l-3.6 1.3q0-.8.6-1.2zm82.7 23.2q-1.2-2-1.6-4l6.5-3.9q.7-.3 1.2.2c-.5 1.6-4.6 6.5-6.1 7.7ZM279 89.1a4 4 0 0 1-3.2-2q3-2.4 6.5-4 .5.4.1 1a20 20 0 0 0-3.4 5ZM85.2 84.6c-1.2 3.5-2.5 6.6-6.7 6.3a5 5 0 0 1-3.4-.7c2.9-2 6.8-4.6 10.1-5.6Zm164.5 47.7c.5 0 3-.6 1.7-1.4a2 2 0 0 0-1.7 1.4Z"/><path fill="#e7e6fc" stroke="#e7e6fc" stroke-width=".5" d="M53.2 115a7 7 0 0 0 2.7 2.8c-1.2 2.3-16 12-19 15q-7.5.3-15-.2c9-5.5 21.9-13.5 31.3-17.6Zm298.7-.4 1.4 1.6-23.3 16.4q-4.5.6-9 0zm-326.7 1.2q-.3 1.2 1 1.2c-3.3 3-7.5 6-11.4 8l.1-4zm59.1 0q-.2 1.8 1 3l-18.3 14H54c7.6-4.3 23-14.3 30.3-17Zm110.8-.2h1.3q.6 1.3 1.9 2.3a317 317 0 0 1-20.2 14.8q-6 .3-12.2 0c.5-1.3 25.8-15.2 29.2-17Zm50.1 0a10 10 0 0 1 3 4.3L231 132.7q-7.7.5-15.2 0 14.4-9 29.3-17.1Zm-76 2.3a5 5 0 0 1-2 1.9 645 645 0 0 0-19.1 13H143a865 865 0 0 0 24-14.4q1-.5 2.2-.5Zm-71.1 7q-.8 1.5-2.2 2.3a23 23 0 0 1-5 3.4q-.6.4-.6 1.2l-.5 1H84l12.2-7.4q1-.4 2-.4Zm293.1 2q-.4 1-1.2 1.6a54 54 0 0 0-5.2 4.1 12 12 0 0 1-3.8 0q0-.3.4-.6 3.2-1.2 5.9-3.4 1.8-1.2 4-1.7ZM36.8 140.2c.8 1.5 3.1.9 4.3.1h25.7q1.8 1.5 3.5 0h23.6q2.1 1.5 4.1 0l2.2-.1q-.3.8-1 1.3l-22.2 16q-.8.4-.8 1.3c-.4.4-4.5 1.2-2.7 2.2q2-.3 2.7-2.2l1.8-.2 30.3-17.8c4.3-1 12.8-.3 17.6-.5.8 1.3 3.1.8 4.2 0q8.6-.2 17 0v.8q-1 0-2 .5l-4.1 3.1q.4.6 1.3.3 2.6-1.4 4.8-3.3 2.1-.8 4.4-.9.5 0 .6-.6h26.7q1.7 1.6 3.4 0h8q-20 12.8-39.5 26.1a61 61 0 0 0-6.7 4.3l-1 1.4a8 8 0 0 0-4.5 2q-.4.5-.4 1a3 3 0 0 0-3.1 2q-1.2-.2-2 .7c.7.9 2 .2 2-.7q2.1-.1 3-2a7 7 0 0 0 5-3c2 .2 7-3.3 8.7-4.3l46.3-26.8c1.4 0 3.2.4 4.2-.7l16.2.1q.6.2.6.7a483 483 0 0 0-34.8 22.3q-1 .2-1.8.6-5.1 3.6-10.4 6.8l-1 1.3c-.6 0-2.1-.1-2 1-.4.2-4.3 1.2-2.5 2.1q1.8-.3 2.6-2.1 1.4.3 2-1l1.2-.2q5.9-3.2 11.4-7l1.4-.4 39-22.6 1.9-1.6h5.7c.7 1.1 2.9 1.2 3.4 0h12.2l-54.4 35.3a2 2 0 0 0-.8 1.4c-27.6-9-48.7 13.3-41.4 40 12.2 34.5 76.3 15 55.3-30.2 8.2-6.4 17.3-9 25.9-14.1q26.6-15.6 53.3-30.8l1.8-1.6 16.8.2q2.2 1.4 4.3-.2l17 .1-.1.8c-1.6-.7-2.2.9-3 1.9q-1.4-.2-2 1-1.1-.2-1.9.7c.6 1 1.9.2 2-.7q1.5.3 1.8-1 2-.4 3-1.9 1.2 0 2.2-.5 1.8-.6 3.7-.3 1.6 1.5 3.3 0 6-.3 12.1 0L294 172.6c-.6.9-3 1.5-2.6 2.5l-1.6.2q-6.6-.5-13.2 0c-16.1 2.5-26 18.2-25 33.9 2.6 40 68 30.1 60.7-13.2l.8-.4 1-.8q.6-.2 1.2-.8l5-2.7.7-.6q.8-.1 1.2-.7a59 59 0 0 0 9-4.9q.6-.2 1.2-.8l.6-.5 1.4-.7 5-2.8.6-.5 1.4-.7 5-2.8.7-.6q.6-.2 1.2-.7l3-1.6.7-.3 1.3-.8a35 35 0 0 1 5-3l.7-.6q.8 0 1.3-.6l5-2.8.8-.6q.6 0 1.2-.6l5-2.8.7-.5q.7-.2 1.3-.7l3-1.7.7-.4 1.3-.7a34 34 0 0 1 5-3q.4 0 .7-.3l1.3-.7 5-3 .7-.6 6.3-3.4.8-.6 1.2-.7 1.8-.9q.7-.2 1.3-.8l.6-.5q.8 0 1.3-.7.6-.3.6-1 1.5 0 3-.8 9.1-.2 18.3-.1L366.7 177l-1.7 1q-2.4 1.6-5 3c-1.7 1.4-6.3 3-7 5a7 7 0 0 0-5 3c-2 0-4.2 1.2-5 3q-1.5-.2-2 1-2.1.2-3 2-1.5-.2-2 1-1 0-2.1.4-2 1.7.4 1.2 1.2-.5 1.7-1.6 1.4.2 2-1a3 3 0 0 0 3-2q1.4.3 2-1 3.1-.5 5-3a7 7 0 0 0 5-3c2 0 5.7-2.5 7.2-4 1.5-.3 4.2-1.2 4.8-2.8l2-.5q0 .7-.4 1.3c-10.6 9-12.7 18.2-13.4 31.5q2 6 4.4 11.7-1 1.2-2.3 1.8a2 2 0 0 0-.5 1.3q-1-.6-2 0l-8.8 5.4q-.8.4-.8 1.3h-1.4c-1.8 1.5-6 3-6.9 5q-3 .3-5 3-1.3-.1-1.8 1c-1.4.4-4.6 1.5-5 3a8 8 0 0 0-5 2.7c.7 1.2 4.4-1.7 5-2.7 1.3.2 4.4-1.7 5-3q1.5.3 1.8-1c1.6 0 4.6-1.5 5-3q1 0 2.1-.5 2.7-1.4 5-3.3l1.3-.4q6.6-3.6 12.8-7.7 1.2-1.8 3.2-1 4.6 4.5 10 7.6-1.2.3-2.3 1l-56.7 35q-.9.5-1 1.4-1 0-1 .8-.8 0-1.5-.2c-22.3-22.5-58-7.6-55 25.1 5.9 41.9 72 25.3 59.5-16.5-.4-2.1-3.7-6.4-2.6-8.4h1.3l61.7-35.5a2 2 0 0 0 1.1-1.6q10.8.9 21.3-.9-.2 1.4 1 .8c1.8-1 10.2-5 10.7-6.4q0-.6.3-1.1c2.2-.4 13.4-8.3 16.8-9.4q1 .3 2.2-.1l12-7.5c1.8-1.8 2.1-4.4 5.5-3.5q1.3-1.6 3-2.8.6 6.2.4 12.4c-1.3-.5-2.9 1.2-4 1.7l-1.2.8-3.8 2.4-1.3.7-3 1.8q-2 1-3.5 2.6a3 3 0 0 0-1.5.6l-1.8 1-1.2.8-5 3-1.8 1.2-1.9 1.3-1.4.7-2.9 1.9-3.6 2.4-1.5.8-3 1.7q-1.8 1.4-3.9 2.3l-1 1-3 1.7-.8.5-1.2.7-1.7 1.1-1.3.7q-2 1-3.5 2.6-.8 0-1.5.7a44 44 0 0 0-6.7 4l-1.2.8-3.2 1.9-.7.5-1.1.8-1.8 1-1.3.8-3 2-.7.5-1.4.6-1.7 1-1.2.8q-1.6 1.5-3.7 2.3l-1.3.7q-1 .9-2.1 1.6-5.4 3-10.5 6.5-5.1 2.7-10.1 6-.7.3-1 1.1-2.1 0-3 2-1.5 0-2 1.2-2 0-3.1 1.9-1.2-.3-2 .7c.7 1 2.2.2 2-.7q2-.3 3.2-2 1.3.2 2-1 2.1-.2 3-2 1 0 2-.3l8.9-5.3q.6-.7 1-1.6 1 .3 2-.2l12-6.6v1a26 26 0 0 0-6.5 22.2q1.3 5.7 3.3 11.1-.3.8-1 1a126 126 0 0 0-25 15.7 133 133 0 0 0-25.5 31.6l-8.7-4.8c-30.2-16.3-55.3 22-39.3 46.5q2.6 2.8 5 6a6245 6245 0 0 0-66.4 38 3 3 0 0 0-1.6 1.7H176l.3-1q22.2-13.7 44.3-27.8 1-.4 1.2-1.5c1.1.4 3-1.3 4.2-1.7l8.4-5.3q.9-.6 1.6-1.6c1.3-.3 4.7-1.6 5-3.2q2 0 3-2 1.2.3 2-.6c-.6-.9-1.8 0-2 .7q-2 .3-3 2a6 6 0 0 0-5 3q-1-.1-2 .4l-7.7 4.4a2 2 0 0 0-1.2 1.5q-2.2.3-4 1.8c-16.6 9.4-34.4 19.7-51.2 29.4a2 2 0 0 0-.8 1.8l-18.5-.1q.2-.6.8-1c10.6-6 20.7-13.2 31.2-19.1q1.6-1.4 3.4-2.1 1.2-.6 2-1.7l1-.3c1.6-1.1 6.3-3.2 7-5q3-.3 5-2.9 3-.6 5-3 1.5.3 2-1.2c1-.6 2.5-.3 3-1.5-1-1.4-2.7.4-3 1.5q-1.5-.1-2 1.2c-1.9-.3-4.1 1.4-5 3a6 6 0 0 0-5 3q-1-.2-2 .3-2.8 1.3-4.9 3.4l-1.1.2q-1.7 1-3 2.2-2.2.5-4 1.9c-3.4 2.2-7.6 4.5-11 6.3l-23 13.3q-.6.5-.7 1.4l-35.7.2q.5-1 1.4-1.6l55-34.2q.8-.6.8-1.6 11.4 2.2 22.4-1.2c36.6-14.4 20-67.4-22.3-55.5q0-1.2 1.3-1.3 1.4-.3 2-1.7 1.5-.2 2.9-1.2 5.2-3 10.3-6.3 1-.5 1.5-1.6c1.8-.3 4.1-1.3 5-3a7 7 0 0 0 5-3.1 8 8 0 0 0 5-2.7c-.8-1.4-4.4 1.6-5 2.7a7 7 0 0 0-5 3 7 7 0 0 0-5 3.1 3 3 0 0 0-2 .3l-8.3 4.8q-.9.6-1.5 1.6-1.7.2-3.1 1.2-1.7.8-3.2 1.8l-1.8 1.5q-2.5.7-4.5 2.6l-53.7 30.4c2-23.6-12.3-32.9-34.2-33.3q.7-.9 1.5-1.4A312 312 0 0 0 93 334l11-6.7q.7-.5 1-1.3c1.6-.3 4.3-1.3 5-3q3-.5 5-3c1.5-.2 4.5-1.5 5-3q1 0 1.8-.8c-.6-.8-1.7 0-1.8.7a7 7 0 0 0-5 3.2c-1.8-.3-4.1 1.3-5 2.8-2-.1-4 1.6-5 3-2.2-.2-8 4.3-10.3 5.3q-1 .7-2 1.7l-1.8.5-7.6 4.4q-1 .4-1 1.6c-1.1-.5-3 .9-4 1.3q-3.7 2.4-7.7 4.5-.8.5-1.4 1.5a42 42 0 0 0-14.3 8.5q-1-.3-2 .2l-38 21.9-.1-11.3c2 .7 3.7-1 5-2.3q.7 0 1.5-.7l3-1.7q1.9-1.1 3.5-2.5l1.4-.6 3.1-2q1.9-1.2 4-2.2l1-1 3-1.7a23 23 0 0 1 4-2.3l1-.8 1.8-1.1 1.2-.8 4-2.4 1-.9a14 14 0 0 0 3-1.7 65 65 0 0 1 6.8-4.2q.8-.3 1.2-.8l.8-.5 1.3-.7L68 334l1.2-.8 3.1-1.9.6-.6q.8-.2 1.5-.7l2.8-1.8 2-1 1.2-.9.5-.6q.8 0 1.4-.6.8-.6 1.8-1l1.2-.8L87 322l1.2-.8.6-.6q.8-.1 1.4-.7l1.7-1q.8-.3 1.3-.7L95 317l1.2-.8.6-.5a3 3 0 0 0 1.4-.8l1.7-1 1.2-.8 3.1-2q.4 0 .8-.4l1.2-.7 1.8-1 1.2-.8 3.5-2.5q.8-.2 1.5-.7l1.8-1 1.2-.8q2-1 3.4-2.6.9-.1 1.6-.7a31 31 0 0 0 6.5-4.3l1.5-.6 1.8-1 1.2-.8q1.9-1.1 3.5-2.5l1.6-.8 3-1.7q1.7-1 3.3-2.5l1.5-.7 1.8-1 1.2-1 .9-.2a48 48 0 0 0-.7 14.3c4.2 28.6 43.5 30.3 56.8 7.4 20.6-38.3-37.6-66.4-56-23.5q-1.8-.3-3.3.9-.6.2-1.2.8l-.6.5q-.8 0-1.5.6l-4.9 2.8-.7.5-1.2.7-3.2 1.7-.6.4-1.3.7-5 3-.6.5-1.4.7-3.7 2-1.3.8-.8.5q-.7.3-1.2.8l-5 2.7-.8.5-1.1.7-3.2 1.7-.6.4-1.3.7-4 2.4-.7-.3c15.7-25.4 2.7-47.8-27-46.1q.3-1 0-1.7v-.5c3.2-1 5.5-3.1 8-5q4.7-2.3 9-5.2.7-.4.7-1.2l1.5-.2q1.2-.6 1.8-1.9a7 7 0 0 0 5-3 8 8 0 0 0 5-3c1 .1 4.2-.7 2.6-2q-1.8.3-2.6 2a6 6 0 0 0-5 3c-1.7 0-4.3 1.3-5 3a2 2 0 0 0-2.1.8l-1.3.4L68 261c-.6.5-2.1.9-1.7 1.8a30 30 0 0 0-9 5.1C51 270 24 286.8 16 291h-1q-.3-5.4-.3-11 2 .4 3.4-1 .6-.2 1.2-.7l3-2 3.5-2.5 1.4-.7q1-.6 1.6-1.4.9 0 1.4-.7a14 14 0 0 0 3.1-1.9l3-1.8q.8-.7 1.8-1.2l1.2-.8 3-2 3-2 .8-.6q.6-.1 1.2-.7l1.5-1.2 1.5-.7 2-1 1-1L55 255l1.2-.8 3-2 1.9-1.1 1.2-.8 3-2q2-1 3.4-2.6.9 0 1.6-.7a30 30 0 0 0 4.7-3l1.2-.8 3-2 3-2 3.1-1.9q1.9-1.1 3.5-2.5l1.6-.7 1.4-1.3q.8-.2 1.6-.7.8-.7 2-1.1l1-1a38 38 0 0 0 4.7-3l1.2-.7q.8-.8 2-1.5l7.7-4.8c1.5-1 4.2-2.2 5-4a8 8 0 0 0 5-3q2 .1 3-1.6c-1-1.1-2.5.7-3 1.5a8 8 0 0 0-5 3.1 8 8 0 0 0-5.3 3c-1.9-.1-6.6 3.7-8.8 4.5l-.8.7q-.8 0-1.3.7l-5 2.9-.8.4a37 37 0 0 0-5 2.8l-1.3.8-.7.5-1.4.7-1.7 1-1.3.6-.6.4-1.3.7-5 3-.7.5-1.3.8a34 34 0 0 0-5 2.7l-.8.6q-.7.2-1.3.7l-3 1.6-.6.4-1.3.8-.8.5q-.7.2-1.2.7l-1.8.9-1.3.8-.7.5-1.2.8a31 31 0 0 0-5 2.7l-.6.6-1.4.6-10 5.7-.7.4-1.3.7L33 262l-1.3.8-.7.5q-.7.2-1.2.7l-7 4-5 2.8-.8.5-1.2.8-1 .1V261c2.8.5 46.4-29.6 52.9-33q.6-.6 1.5-1l9-5.7q.6-.5.9-1.3c1.4 0 4.6-1.6 5-3q1.1.1 2.2-.4 2-1.6-.6-1.3A3 3 0 0 0 84 217c-1.8-.2-3.9 1.6-5 3-1.6 0-8.8 4.4-10 5.7q-1.5.3-2.9 1.3-25.5 14.8-51.2 29.3v-11.4q1.2.2 2.3-.4l60-39.8a8 8 0 0 0 2.7-2.5c1.6-.2 4.6-1.8 5.2-3.2.7 0 3.9-1 2.6-2q-2 .1-2.6 2c-1.7-.3-4.4 1.7-5.2 3.2q-1.3 0-2.5.6L14.8 239q-.2-11.1.4-22.2a3 3 0 0 0 2-.7l1.1-.8q.8-.8 1.8-1.2l1.2-.8 1.8-1.2 9-5.8q.6-.4 1-1.2 2-.2 3-2.1 1.3.3 1.9-1c.5-.2 4-1.2 2.6-2q-2.1 0-2.6 2-1.5-.2-2 1-2.2 0-3 2.1-1-.1-2 .3l-9.3 5.3q-1.6 1.5-3.7 2.3l-1.3.8q-1 .5-1.4 1.5c-.9-5.4-.3-16.5-.4-22.5q1-.2 1.7-.6C22 188 50 168.9 52 165.2c.6-.3 3.8-1 2.7-2.2a3 3 0 0 0-2.7 2.2c-5 1.4-27 15.1-33.6 18.5a9 9 0 0 0-2.2 1.7l-1-.4q-.5-18-.2-36.2c2.1-.7 4.5-4 6-5.7q.8 0 .5-.8-.6.3-.6.8a10 10 0 0 0-4.6 2.1l-1-.2c-.1-1.2-1-4.2.5-4.7zm316.3 0h10.8c.5 1.2 2.7 1.1 3.3 0h4.8a93 93 0 0 1-9.4 6q-1 .7-1.5 1.8-3.2.5-5.1 3a8 8 0 0 0-5 3q-1.5-.2-2 .9a4 4 0 0 0-3 2 2 2 0 0 0-2 .7c.7 1 1.8 0 2-.7q2.3 0 3-2 1.5.5 2-1 2.3 0 4-1.6a3 3 0 0 0 1-1.4c1.8.1 4.3-1.3 5-3q1.1.2 2-.3l10.2-6q1.2-.3 1.7-1.4h10c.6 1.1 2.7 1.2 3.3 0h6.9q-1.3 1.4-3.1 1.8l-1.2.7-3.1 2-.8.5q-.7.3-1.2.8l-1.7 1-3.1 1.9-1.3.8-.7.6q-.7 0-1.3.6t-1.6 1l-1.3.8a23 23 0 0 0-3.5 2.5q-.7.2-1.5.8l-1.7 1-1.3.7a17 17 0 0 0-3.5 2.5l-1.4.8q-1 .4-1.8 1l-1.3.7q-1.8 1.1-3.6 2.5l-1.5.7-1.6 1.1-1.3.7q-1.8 1-3.5 2.5-.8.1-1.6.7l-1.7 1-1.2.8q-1.8 1.4-4 2.3l-1 1-3 1.7a22 22 0 0 1-4 2.3l-1 1-3 1.7q-2 1.3-3.9 2.3l-1.2 1-1.7 1q-.6.2-1.2.7l-5 3q-1.6 1-2.7 2.6-5-12.9-18.4-16.6-.5-.2-.7-.8 29.4-16.6 58.8-33.6zm80 .5q5.7-.5 11.3-.5.9-.1 1.4.5l.4 14.4q-1.2-.2-2.2.3a2086 2086 0 0 1-41 24.9c-11-6-20.3-6.6-32.2-3.4q.3-.9 1.1-1.4l57.8-33.1a2 2 0 0 0 1-1zm7 6.4c-1.7 0-4.5 1.4-5 3q-2.1 0-3 2-1.5-.5-2 1a2 2 0 0 0-1.9.6c.6.9 1.8.1 1.9-.7q1.5.3 2-1 1.8-.3 3-1.9c1.3 0 4.3-1.7 5-3a2 2 0 0 0 1.8-.8c-.6-1-1.8 0-1.9.7Zm4.6 12.7h1.1l.5 10.2q-1.2 0-2.4.6-16 9.7-31.9 19.7c-1.4-3.3-4-5.6-6.2-8.2q1-.2 2-.8zm-427 12.5c.7-.2 4.2-1.3 2.9-2.3q-2.3.1-2.8 2.3Zm427.3 2.8.7-.1q.4 5.1.3 10.2c-2.7 0-25.8 15.6-29.8 18.2l-1-.3q-.3-5.1-1.9-10.1 1.2-.4 2.2-1zm-262 9 2 .9q.4 1.2-.6 1.8-6.1 3.4-12 7-1.4.4-.9-.9 2.3-2.4 4.5-5 1.6 0 3-.9l1.3-.7q1.6-.9 2.7-2.1Zm203.2-.6q2 .7 3.7 1.7c-.5 1.5-10.7 8-12.3 7.7q-.7-.4-.4-1.2c2.7-3 4.3-8.1 9-8.2Zm-93.8 5.1 2 2.1q-.7 1-1.7 1.6a63 63 0 0 1-7 3.7q-.6-.9.2-1.6c2-1.8 4-4.8 6.5-5.8Zm-98.2 5.2q1.2 2 2.1 4-5.7 3.4-11.6 6.2-.4-.9.3-1.6c2.6-2 6.2-7.7 9.2-8.6Zm-31.6 20.4-1.7-4.1q4.5-3 9-5.5 1-.7 1.9 0-3.4 4.3-7.3 8.4-.8.8-1.9 1.2Zm214.2 10q-2.2-1-4.2-2.9c.3-2.6 9.2-6 11.3-7.8q1-.7 1.9 0c-1.9 3.4-6.4 7.6-9 10.8ZM336 222c-1.5.1-4.5 1.7-5 3a3 3 0 0 0-3 2q-1.5-.3-2 1-2.1 0-3 2-1.2-.3-2 1a2 2 0 0 0-1.8.7c.6 1 1.8 0 1.8-.8q1.5.4 2-.9 2.1-.4 3-2c.7 0 2.1 0 2-1q2 0 3-2c1.8 0 4.1-1.3 5-3a3 3 0 0 0 2-.4q3.7-1.9 7-4.4 1.6-1-.2-1l-7.8 4.5a2 2 0 0 0-1 1.3Zm-163.2 2.5q-1.5-.7-2.8-1.6c1.3-2 5-3.2 7-4.5q.9-.8 1.8 0c-.6 1.5-4.3 5.5-6 6.1Zm271.6-3.2.7-.5h.7q.3 10.8.2 21.5c-2.6.4-33 20.3-38.1 23.2q-.8.6-.9 1.5c-12-6.1-20.7-7-34-4l.3-1 .7-.2a41 41 0 0 0 5-2.8q.8-.3 1.3-.7l.7-.6q.8 0 1.3-.6a172 172 0 0 0 12-6.8q1.8-1.2 3.8-2.2l1.3-.8.6-.6q.8 0 1.3-.6l5-2.8.7-.6 1.3-.6 5-2.8.7-.6q.8-.1 1.3-.6l1.8-1 1.2-.8q.4 0 .7-.3.8-.3 1.3-.7l5-3 .7-.6 1.3-.6 5-2.8.8-.6 1.3-.6 5.7-3.3 1.2-.7 1.8-1zM252 230.1q-3 .3-5 2.8a7 7 0 0 0-5 3q-2.1 0-3 2a2 2 0 0 0-2 .8c.6 1 2 .2 2-.8q2-.2 3-2 2.3 0 4-1.6.7-.6 1-1.4 3.2-.3 5-2.8 1.3 0 2.1-.8 2-1.2-.2-1.3-1.3.8-1.9 2Zm187 5c-.7.2-6 1.9-4.6 3 1.5-.4 3.9-1.5 4.5-3 .6.1 3-.4 1.7-1.2q-1 .1-1.7 1.1Zm7.2 11.9v21q-1.2 0-2.2.6L422.6 282c-2.4 1.3-4.4 2.2-6.3 4a1 1 0 0 1-1-.6 34 34 0 0 0-6.5-16.4l.6-.9q18.3-10.7 36.8-21.1Zm-257.4 11.3c.6-.1 2.9-.5 1.7-1.4q-1.4 0-1.7 1.4ZM125 267q-2.1 0-3 2-1.4-.2-2 1a7 7 0 0 0-5 3c-1.4 0-4.5 1.5-5 2.7.6 1.4 4.7-1.5 5-2.7q3-.5 5-3c.7 0 2 0 2-1q2-.3 3-2c.5.2 2.6-.4 1.6-1.1q-1 .2-1.6 1Zm-47.9.6q5 1 9.1 4.2c-3.1 3.2-12.9 7.8-17.2 10.6q-2.3 1.3-1.3-1.1zm203 1q2.5 0 5.1 1-.3 1.2-1.5 1.8a48 48 0 0 1-7 3.5c-1-1.1 2-3 2.5-4q.8-1 .8-2.2Zm103 1q5.2 0 10 2.4c-.6 2.2-15.4 9.5-18 11.3q-.6.4-1 0c0-1.4 7.8-11.6 9-13.6Zm-191.8 5q1.8 2 3.3 4.2-5.4 2.7-10.6 6-2.4.7-1.2-1.5c2.6-2.5 5.5-6.7 8.5-8.6ZM445 285h.8l.3 11.1c-1.6-.9-7.6 3.4-8 4.7-2-.9-12.4-2.8-13.3-3.8q0-.4.3-.7zm-284 9-.7-3q3-2.5 6.4-4c3.8-1-4.5 6.9-5.7 7Zm102.9 3q-.7-1.9-1.2-4l9.2-5.4c1.6-1 3-.1 1.5 1.4-3 3.7-5.3 5.8-9.5 8ZM61 301l-1.6-3.8 9.2-5q.8-.4 1.3.3c0 1.5-5.8 6.7-7 8.1a2 2 0 0 1-2 .3Zm108.6 6.3-3-3 11.3-6.8c.7-.6 2.1-.5 1.4.6-2.4 2-6.8 9-9.7 9.2Zm107.1 3q-2.7-.9-5-2.7 5.3-4 11.1-7 1-.7 1.9 0c0 1.2-6.9 8.2-8 9.8ZM348 303c-.5.2-4.2 1.3-2.6 2.2q1.9-.4 2.6-2.2.7.2 1.6 0 .9-.6 0-1-1.2-.1-1.6 1Zm58-.6 3.2.5q-.3 1-1.3 1.7-9 5-17.6 10.2-2.3.2-.4-1.3a312 312 0 0 0 16-11Zm-334.2 9.1q-1.5-.7-2.7-1.5.5-.8 1.2-1.2 3.3-2.1 7-3.6.6.8-.2 1.4zm352-6.2q2.4 0 4.6 1-.9 1-2.1 1.7-14.3 8-28.3 16.6-.9.5-1.8-.1 0-.6.7-1 3.8-2.1 7.5-4.7zm16 5.4q1.4.4 2.3 1.3-.7.8-1.5 1.2-12.4 7-24.6 14.5a2 2 0 0 1-2-.1q.3-.7.9-1 11.4-7 22.4-14.8 1.2-.8 2.6-1.1Zm-375.7 6.8q10.5 1.3 21-.2l-.3.8q-.8.6-2 .9l-1.2.8-.7.5-1.2.8a29 29 0 0 0-5 2.7l-.6.5-1.5.7-4.9 2.9-.7.4-1.4.7-4.9 2.8-.8.5-1.2.8-1.8.9q-.7.3-1.3.8l-.6.5q-.8.1-1.4.7l-5 2.8-.6.5q-.8.3-1.3.8l-5 2.8-.7.4q-.7.2-1.3.8l-3 1.6-.7.4-1.3.8-.8.3-1.2 1-1.8.8-1.3.8-.8.5q-.6.2-1.1.8a29 29 0 0 0-5 2.8l-.8.4-1.2.7-4.8 3q-.5 0-.8.3v-10.4a815 815 0 0 0 32-19.5c2.7-1.4 16.6-8.6 17-11ZM451 317q1.8.7 3.3 2L424 340q-1.9.6-2.1 2.5-1.9.8-3.5 2.2c-3.2.7-3 .8-5.1 3a58 58 0 0 0-13.4 8.4 2 2 0 0 0-2 .9c-2.6.2-4.7 3.7-7 3.2q.1-1 1-1.6l57.9-40.2q.8-.5 1.2-1.4Zm-313 15q-2.2 0-3 2.1-1.4-.3-2 1a7 7 0 0 0-5 3c-1.9 0-4.2 1.3-5 3q-1-.1-2 .4-5.3 3-10.1 6.2-1.5.5-3 1.4-1.5 1-3.1 1.7-2 1.2-3.6 2.7c1.6 1.6 3.3-.8 4.9-1.4q1.2-.6 2-1.8 1.5-.3 3-1.2l10.3-6.3q1-.6 1.6-1.6 3.1-.6 5-3 3-.6 5-3a2 2 0 0 0 2-1q2.1-.3 3-2.2 1.2.3 1.9-.7c-.6-.8-1.7 0-1.8.8Zm318.2 2.4c0 1.2-1 2.7-.1 3.8l-7 3.5-1.8 2-4.7 2.4-22.6 13.6q-.9.4-1.8-.1l35.8-24.2q1-.6 2.2-1ZM146.9 342a2 2 0 0 0-2 1.1q-2 0-2.9 2-1.4-.2-2 1a3 3 0 0 0-3 2q-1.5-.2-2 1-3.2.5-5 3c-2.2.2-5.4 2.2-7 3.9l-1.3.3a10 10 0 0 0-3.7 2.6l-2.1.7q-1.9 1.5.4 1.4l1.8-.9a12 12 0 0 0 3.8-2.7q.5 0 1.1-.3c1.9-1.4 6.1-2.9 7-5 2 .1 4-1.3 5-3q1.3.2 2-1 2 0 3-2 1.4.3 2-1 2-.3 3-2 1.4.2 2-1c.8.3 4.3-.8 2.6-2q-1.8.3-2.7 2Zm11.9 11c-7.5 10.5-11.6 19.7-8.7 33q-1-.2-2 .3-.8.2-1.4.8a36 36 0 0 0-5 2.8l-.7.4-1.2.8-1.9 1-1.2.6-.7.4-1.2.8-5.1 3q-.4 0-.7.4-.8.3-1.3.7l-5 2.9-.8.5-1.3.6-4.9 2.8a34 34 0 0 1-5 3l-.7.6-1.4.6-5 2.8-.6.6a2 2 0 0 0-1.3.7 36 36 0 0 0-5 2.7l-.7.5-1.3.8a163 163 0 0 0-10 5.7l-.7.6q-.8 0-1.4.5l-5 3q-.3 0-.6.4l-1.4.7-4.8 2.9-.8.4-1.3.8-1.8 1q-.7.2-1.3.7l-.6.5-1.3.8-5 2.7-.8.5q-.6.2-1.1.8a7 7 0 0 1-2 1.3 41 41 0 0 1-15.2-1.3q.6-.7 1.4-1l10.4-6.3q1-.4 1.3-1.5l1.5-.2 7.2-4.3q1-.6 1.6-1.8c1.8.2 4-1.4 5-2.8q3.1-.6 5-3 1.5 0 2-1.2c1.4 0 4.4-1.6 5-3q2.1 0 3-2 1.5.5 2-1c.6.1 2.1.2 1.9-1q1.5-1 0 0-1.5-.1-2 1c-.6 0-2 0-1.8 1q-2.2.3-3.1 2c-1.7-.3-2.5 1.4-4 1.7q-.7.6-1 1.3-1.4-.2-2 1.2a6 6 0 0 0-5 3q-3.2.1-5 2.8c-2.3.1-7.3 3.5-9.2 5q-.6 0-1.1.3l-11.4 6.5a4 4 0 0 0-1.5 1.3q-.7.8-1.9.9l-1 .1c-3.2-.4-7.3-2.2-9-5l2-.7q21.3-13 42.1-26.4 1.3-.9 2.8-1.4c14.7-1.2 25.9-6.2 31.4-20.7.5 1 1.3.3 2.1 0l47.3-29.6zm-79.6.7 3 1c-.7 1.3-9.3 6.6-10.6 6.3q-.6-.4-.2-1c2.6-2.6 3.5-6.5 7.7-6.3Zm202 0q3.3.4 6 2.2c-.8 1.3-10.2 7-11.7 7q-.7-.3-.3-1.1zm-230.2 6c-3.9 8.8-6.2 15.6-4.1 25.3l-1-.1-1.2.5q-14.4 8.3-28.6 17l-1.2-.1c-1.3-2-.9-7-.7-9.4q.7-.3.9-1 1.2.3 1.9-.8 2-.2 3-2 1.4.1 1.9-1.1 3-.5 5-3c.7 0 2 0 2-1 1.2-.4 4.2-1.5 4.9-2.7-.6-1.2-4.6 1.6-5 2.7q-1.3-.2-1.9 1c-1.9-.2-4 1.5-5 3q-1.4-.2-2 1-2.1 0-3 2-1.2-.2-1.8.9l-1 .3v-10.4q18.3-11.2 36.9-22ZM360 370c-.5 1.9-8.3 6.1-10 7.9a508 508 0 0 1-23 15.2q-1 .1-1.1 1-.9 1.2-2 1.8-.3-1.1-1.3-.7-7.6 4.2-15 8.8c-.8-.8-.3-2.7-.3-3.9l50.6-29.5q1-.6 2.2-.6Zm-143.2 4q-1.4-.3-2 1.1c-.8.4-2.6.5-2.8 1.6.8 1.3 2.5-.7 2.9-1.6q1.4.3 2-1c.8.2 4-.7 2.6-2q-1.7.3-2.7 2Zm90.9 14.2.1-2q6.8-3.6 13-7.8 1.1-.6 2 .2l-13 8.8zm-35 6.4a15 15 0 0 1-6.1-5.1q7.3-3.7 14.3-8 1-.6 2 0c-1.2 3.3-7.8 10-10.3 13.1Zm182.5-10.7q0 .7.6 1a2 2 0 0 1-1.2 1.5l-14.5 8.3q-.9.3-1.3 1.4l-2 .1q0-1 1-1.6 7.5-4.5 14.5-9.6 1.3-.9 2.9-1Zm-407.4 4q1.7 5 5.5 9c-5.5.8-28.5 16-35.4 19.2H17c-1.4-1.7-1.7-6.7-2.2-9 3.6-.2 28-16.3 33-19.3Zm101.4.3.9-.5a29 29 0 0 0 16 16l-3.2 1.1-60.1 34.8q-1 .6-.9 1.8l-35.5-.6q-1 .2-1.4-.7l2-1 1.2-.7q1.9-1 3.4-2.5.9-.2 1.6-.7l3-1.8q2-1.4 4-2.3l1-1 3-1.7.7-.5q.8-.2 1.4-.8l1.6-1q.8-.3 1.3-.7 2-1 3.4-2.7.9 0 1.6-.5l1.8-1 1.2-.8q2-1.4 4-2.4l1-.8 3-1.8.8-.6q.6-.1 1.1-.6l3-1.9a15 15 0 0 0 3.6-2.4l1.5-.7 1.8-1 1.2-.8q1.8-1.3 3.9-2.3l1.1-1 1.8-1q.6-.2 1.2-.7l.7-.6q.8 0 1.3-.7l1.7-1 1.2-.7 3.7-2.5q.8-.2 1.4-.7l1.8-1 1.2-.8q2-1.4 4-2.3l1-1 3-1.7.8-.5q.7-.1 1.2-.7Zm-72.5 9.4q-2.5-.4-5-1.3.7-.9 1.6-1.4 4.4-2.7 9-4.8.5.4.1 1-3 3.2-5.7 6.5Zm233 23.6q-.6-2-.6-4 .9 0 1.8-.6c12.3-7.4 25.3-14 37.2-22 .7-.4 2-.8 2.6 0l-38.9 26q-1 .6-2 .7Zm-255-22.5 6.7 3.4c.7.6 4.5.9 4.3 1.8-14.1 8.5-29.4 16-42.9 25.4a38 38 0 0 1-4.3-8zm210.3 4a42 42 0 0 0 18.2 2l9-1.3q.6.4.5 1.3l.4 8.5q-1.1-.3-2.3.2-23.1 13.3-46.1 27c-5 .9-12.8.3-18 .4l.3-.5q2-.5 2.9-2c1.4-.4 4.6-1.7 5-3.3q2.1 0 3-1.9a2 2 0 0 0 2-.7c-.6-1-2 0-2 .7q-2 .4-3 1.9c-1.9 0-4.3 1.5-5 3.2q-2.4 0-4.3 1.7a1 1 0 0 0-.4.9c-5.3.3-12.3.5-17.4 0l.4-.6q28.5-18.6 56.8-37.5Zm188.8.2 2.3 1.9c-5 3.1-23.2 14-27.2 15.5q.1-1 1-1.7c4.5-2.1 20.6-15.1 23.9-15.7Zm-86 8.8q1.6-.3 1.2 1.3c-9.7 7-19.6 14-30 19.8a16 16 0 0 1-6.2 4.6q-1-.3-2 .1l-13.2 8-1.6-4.5c16.5-8.3 35.6-20 51.9-29.5Zm-74 6 2.2 12.5c-2 .1-16.7 9-18.2 10.6l-18 .1zM326 424q-.6 1.3-1.8 1.9l-11.2 7q-.3-.8-.3-1.8 5.7-3 11.1-6.8zm-227 7c-.7 0-2.1 0-2 1a4 4 0 0 0-3 2c-.9-.3-6.3 2.2-4.6 3a8 8 0 0 0 4.6-3q2.2 0 3-2 1.5.3 2-1c2.3-.5 5-2.1 6.8-3.7-.5-1-6.4 2.3-6.8 3.7Zm198.8 2.9q.7 2.9 1.7 5.6l-.2.5q-3.9.7-7.9.7-1 0-1.7-.8c2.9-2 5.8-3.2 8.1-6Z"/><path fill="#e9e8fe" fill-opacity=".3" d="M68 421c-1 1.5-3.2 3.1-5 3a6 6 0 0 1 5-3"/><path fill="#e6e5fb" fill-opacity=".4" d="M244 397q-1 1.8-3 2a4 4 0 0 1 3-2"/><path fill="#e8e6fd" fill-opacity=".4" d="M217 374q-.5 1.2-2 1 .5-1.4 2-1"/><path fill="#e8e7fd" fill-opacity=".3" d="M140 346a4 4 0 0 1-3 2 3 3 0 0 1 3-2m101 53c-.3 1.5-3.7 2.8-5 3a6 6 0 0 1 5-3"/><path fill="#e8e5fd" fill-opacity=".4" d="m247 233-1 1.3a6 6 0 0 1-4 1.7q2-2.6 5-3M99 431q-.5 1.3-2 1c-.1-1 1.3-1 2-1"/><path fill="#e7e6fc" fill-opacity=".5" d="M320 144c0 .9-1.3 1.7-1.9.7q.7-.9 2-.7m16 52q-.5 1.1-1.7 1.6-2.5.4-.4-1.2zM84 217a3 3 0 0 1 1.6-1.7q2.6-.3.6 1.3-1 .5-2.3.4m237 14c0 .8-1.2 1.6-1.8.7a2 2 0 0 1 1.8-.8m-196 36q.6-1 1.6-1.1c1 .7-1 1.3-1.6 1m-5 50c.1-.7 1.2-1.7 1.8-.8q-.7 1-1.8.7m27 25q.8-1.7 2.6-2c1.7 1.2-1.8 2.3-2.7 2m61 63c.3-1.2 2-3 3-1.6-.5 1.2-2 1-3 1.5"/><path fill="#e6e6fb" fill-opacity=".3" d="M376 152q-.3 1.1-1.3.7zm-29.7 24.3-1.3.7q.2-1.1 1.3-.7M434 222q-.3 1-1.3.7zm-21 13q-.3 1-1.2.8zm-333.7 4.2-1.3.8q.2-1 1.3-.8M392 248q-.3 1-1.3.7zm-347 7q-.1 1-1.3.8zm-19 11q-.3 1-1.3.8zm114 20q-.3 1.1-1.3.7zm-19 11q-.3 1-1.3.7zm-3.7 6.3-1.2.8q0-1 1.2-.8"/><path fill="#b57488" d="M364 140.2q1.5-.3 3.2 0c-.6 1.2-2.8 1.2-3.3 0m20.9 0q1.6-.3 3.3 0c-.6 1.2-2.8 1.1-3.3 0"/><path fill="#b47184" d="M330.8 140.3a7 7 0 0 1 3.3 0q-1.6 1.5-3.4 0"/><path fill="#878792" fill-opacity=".5" stroke="#878792" stroke-opacity=".5" stroke-width=".5" d="M325 140.3q1.1-.2 2 .3-1 .5-2 .5z"/><path fill="#b37285" d="M303.8 140.4q2.1-.6 4.3-.2-2 1.5-4.3.2"/><path fill="#b56b7f" d="M231.7 140.3q1.6-.4 3.4-.1c-.5 1.2-2.7 1.1-3.4 0"/><path fill="#ae6476" fill-opacity=".9" d="M197.8 140q2.3-.2 4.4.3c-1 1-2.8.5-4.2.6z"/><path fill="#b56e82" d="M125.9 140.3q2.1-.5 4.2 0c-1 .8-3.4 1.3-4.2 0"/><path fill="#b55e72" d="M66.8 140.3q1.8-.5 3.5 0-1.7 1.5-3.5 0"/><path fill="#b5687b" d="M36.8 140.2q2.2-.3 4.3.1c-1.2.7-3.5 1.4-4.3 0m57 .2q2.1-.7 4.2-.1-2 1.5-4.1 0m85-.2q1.7-.3 3.4 0-1.8 1.6-3.4 0"/><path fill="#e895af" d="M249.7 132.3a2 2 0 0 1 1.7-1.4c1.3.8-1.2 1.4-1.7 1.4"/><path fill="#eb3a57" fill-opacity=".4" stroke="#eb3a57" stroke-opacity=".4" stroke-width=".5" d="M397.8 104.1a4 4 0 0 1 2.7-2.1c1.3 1.2-2 1.6-2.7 2.1Z"/><path fill="#ea3a58" fill-opacity=".4" stroke="#ea3a58" stroke-opacity=".4" stroke-width=".5" d="M342.8 104.2a3 3 0 0 1 2.8-2.2c1.5 1-2.4 1.8-2.8 2.2Z"/><path fill="#ea3957" fill-opacity=".4" stroke="#ea3957" stroke-opacity=".4" stroke-width=".5" d="M108.2 90.8c-.5.8-2 3-3 1.8a4 4 0 0 1 3-1.8Z"/><path fill="#ea3957" fill-opacity=".5" stroke="#ea3957" stroke-opacity=".5" stroke-width=".5" d="M145 87c-.4 1-1.7 2.3-3 1.6q1-1.8 3-1.7Zm161.9 23q.8-2 2.7-2c1.6.9-2.3 1.7-2.7 2Z"/><path fill="#eb3a55" fill-opacity=".3" stroke="#eb3a55" stroke-opacity=".3" stroke-width=".5" d="M148.2 84.9a3 3 0 0 1-3.2 2q1-2 3.2-2Z"/><path fill="#ea3956" fill-opacity=".4" stroke="#ea3956" stroke-opacity=".4" stroke-width=".5" d="M325 59c-.5 1.1-4.1 4-5 2.7 1.2-1.2 3.2-2.9 5-2.6Zm-194 47q.4-2.1 2.6-2c1.3.8-2 1.8-2.5 2Z"/><path fill="#e8a0b9" d="M391.2 127c-.2-.9 1.2-1.6 1.6-.7q-.5.8-1.6.6"/><path fill="#cbcbf4" stroke="#cbcbf4" stroke-width=".5" d="m180.8 184.4-1-.6-1 1q-1.7 1.3-2.8 3a55 55 0 0 1-4.5 5.1q-.4 1.2.8.9l12-7q1.1-.6.7-1.8 5.9 3.1 9.2 8.8c-3 .9-6.6 6.5-9.2 8.6q-.7.7-.3 1.6 6-2.9 11.6-6.1c7 16.7-5.7 33.5-23.5 26.6 1.7-.6 5.4-4.6 6-6q-.9-.9-1.8-.1c-2 1.3-5.7 2.6-7 4.5a24 24 0 0 1-7.4-8.7q1-.4 2-1.2 3.8-4.1 7.2-8.4-.9-.7-1.9 0-4.5 2.5-9 5.5a21.4 21.4 0 0 1 11.6-26c1.4-.5 8.5-2.2 8.3.3Zm111.6 4.2c-2.6 1-4.5 4-6.5 5.8q-.8.7-.3 1.6 3.7-1.6 7-3.7 1-.7 1.7-1.6c18.3 24-8.5 48.2-25.4 28.7 1.4-.3 8.6-6.6 8.7-7.9q-.1-.8-1-.5c-3.2 2-7 3.4-9.8 6.2-13.3-19 6.7-45.4 25.6-28.6Zm93.8-5c-4.7 0-6.3 5-9 8q-.3.9.4 1.3a35 35 0 0 0 12.3-7.7c23 15.3 11.7 50.2-13 39 2.5-3 7-7.2 8.9-10.7q-.9-.7-1.9 0c-2.1 1.8-11 5.2-11.3 7.8-15.5-13.6-6.3-41.6 13.6-37.8Zm-309 84-9.5 13.7q-1 2.4 1.3 1.1c4.3-2.8 14-7.4 17.2-10.6q4.6 3.8 7.2 9c-1.7 1-7 5.6-6.7 8.2q-1 0-1.9.4-1.7 1.6.6 1.2 1.1-.4 1.3-1.6c2 .3 7-3 8.2-4.2 4.3 14.7-6.2 33.3-23 26.6l5.2-4.9q.8-.7.2-1.5-3.7 1.6-7 3.7-.8.5-1.2 1.2a24 24 0 0 1-8-9 2 2 0 0 0 2-.3c1-1.4 7-6.6 7-8q-.6-.8-1.4-.5l-9.2 5.1c-4.7-13.3 1-31.1 17.6-29.6Zm114 7c-2.9 2-5.8 6.2-8.4 8.7q-1.2 2.3 1.2 1.4 5.2-3.2 10.6-6c11.7 18.4-7.1 42-24.9 28.6 2.9-.2 7.3-7.3 9.7-9.2.7-1-.7-1.2-1.4-.5q-5.7 3.3-11.3 6.8A28 28 0 0 1 161 294c1.2-.1 9.4-8 5.7-7a37 37 0 0 0-6.4 4c-2.2-18.5 17.4-28.7 31-16.3Zm88.8-6q0 1.3-.8 2.3c-.5 1-3.6 2.9-2.4 4q3.6-1.5 7-3.5 1-.6 1.4-1.9 6.5 2.5 10.1 8.3l-.6.7c-4.2 1.5-8 7.4-10.4 11q.4.5 1 .2c3.6-2 9.3-6 13.3-7 7 16.2-4.2 32.3-21.8 27.7 1.1-1.6 8-8.6 8-9.9q-.9-.6-1.9 0-5.8 3.3-11.1 7.1a24 24 0 0 1-8-10.5c4.3-2.3 6.6-4.4 9.6-8 1.4-1.6 0-2.6-1.4-1.5q-4.8 2.7-9.3 5.5c-2.2-11.3 5.5-23.5 17.3-24.4Zm103 1c-1.1 2.1-8.9 12.3-8.9 13.7q.4.4 1 0c2.6-1.8 17.4-9.1 18-11.3 7.7 4.5 10.1 13 9.7 21.5q.1.8-.4 1.3l-18.7 2.5q-6.5 1.2-12.8 2.9-1.5-.3-3-.2c-6.7-14.4-1.8-28.7 15.1-30.3Zm-303.8 84c-4.3-.2-5.2 3.7-7.8 6.3q-.4.6.2 1c1.3.3 10-5 10.6-6.2 19 9.5 18 43.7-5.4 42.8l5.7-6.5q.4-.6-.2-1-4.5 2.1-9 4.8-.8.5-1.5 1.4C50.3 386 54.5 350 79.1 353.6Zm202 0-6 8q-.4.9.3 1.3c1.5 0 11-5.8 11.8-7.1 3.6 2.7 8.9 7 10.8 11 .3 3.2-3 11.6-3.4 15.3q-.5.4 0 1c-1.5 5.5.4 10-6.5 11.5a25 25 0 0 1-15.5 0c2.5-3.2 9-10 10.2-13.2q-.9-.6-2 0-7 4.3-14.2 8c-7.1-12-2.2-36.4 14.5-35.8ZM180 396.7q3-4.5 6.4-8.8.5-.8.2-1.5-7.6 4-14.7 8.7c-18.5-11.6-14.4-44.2 9.4-40.9 25 7.4 20 44.6-1.3 42.5Z"/><path fill="#d3d3f7" fill-opacity=".5" d="M86.7 289q-.2 1.2-1.3 1.6-2.3.4-.6-1.2.9-.4 1.9-.4"/><path fill="#6e6e80" fill-opacity=".6" d="M294.7 382.2v.9q-.6-.6 0-1"/><path fill="#ea3957" stroke="#ea3957" stroke-width=".5" d="M40 54.2q.3 1.8-1.4 1.9c-.4.6-2.8 2-2 2.7q2-.6 3.8-1.7a7 7 0 0 1 3-2.2q.6-.2.4-.7 3.8-.4 7.7-.1 2.1.1 1.6 2.3l-1 7.6c-2.5 0-6.4 4.9-8 6.7q-1.6.6-2.8 1.7c1.4 1.4 2.4-.6 3.6-1.3l7.2-4c.6 20.4 11.8 33.4 33 27.8q3 .6.2 1.8c-1.7.4-4.5.6-5.3 2.5-8 3.5-18 10.2-26 14.5q-.7.4-.8 1.3c-9.4 4-22.2 12-31.3 17.6-1.4 0-5.9.9-6.8-.2q-.4-3.7-.3-7.3c3.9-2.1 8.1-5.1 11.4-8a29 29 0 0 0 4.9-3c1.7-1.4 7.1-4.5 8-6 .6-.4 3.9-1 2.5-2q-2 0-2.6 2c-2-.3-7.2 3.8-9.3 4.6l-4.5 3.1-10.3 5.2q-.2-18 .1-36.2l1.5-.8q3.9-4 8.2-7.4-.4-.5-1-.3-4.2 2.6-8.7 5c1.2-14.6 11-24.1 25-27Zm188.8 0a86 86 0 0 1 17.6-.3l-1.4 1.6c-14.8 10.6-30.3 22.6-45 33q-1 .4-.8 1.4-.6 0-1 .5.8.3 1-.5A1545 1545 0 0 0 258 56.1c-2.4 16.4 0 35.2 18.1 41l.8 1a3 3 0 0 1-1.8 1.9c.2-1.3-1.3-1.1-2-.6l-27.8 16.2q-15 8.1-29.4 17-8.4.5-16.9.2c1.2-1.9 7-4 7.1-6a1 1 0 0 0 1-.4q-.9-.3-1 .5-1 .1-2 .7l-8.2 5q-8.9.5-17.7.1 10.3-7 20.2-14.8a803 803 0 0 0 24.3-17.3c-.7-.7-3.9 1.1-4.4 2-7.1 3.2-15.4 8.7-22.4 12.5l-.7.5c-3.4 1.9-28.7 15.8-29.2 17.2h-18a645 645 0 0 1 19.3-13 5 5 0 0 0 1.9-1.9q2 .4 2.7-1.4c-1-.6-2.8.2-2.7 1.4q-1.2 0-2.2.5-12 7.4-24 14.3-8.6.3-17 0l4.2-3.7a2 2 0 0 0 1.8-.8q.7-.4 1-1 .8-.5 1.2-1.1.7-.2 1-1h.7q1-.3 1.5-1.3A1460 1460 0 0 0 171 99.4q.7-.4.6-1.3l.6-1.2c20 1.4 28.2-10 31.6-28.2 1.6.1 24.6-13.3 25-14.6Zm-99.6 1.1-.5.7L105 72.5q-1.4 1-.1 2c-.7 1.5-3.6.5-5 1.5q1.4-9.7.3-19.5-.2-.9.5-1.3 14.3-.2 28.5.1Zm123.5 17c.8-.5 2.7-.3 2.7-1.6q-2.1-.7-2.7 1.5Zm-1 18c.7-.3 4.3-1.1 3-2.3q-2.2.3-3 2.2Zm-56 1.8c.5 0 1.9-.4.8-1q-.8.2-.8 1Zm-180 6.1c.3 1.3 2-.1 2.1-1-.5-1-2 .3-2 1Zm192.1 27.9c.4 0 1.7-.4.8-1a1 1 0 0 0-.8 1Z"/><path fill="#e89db7" d="M207.8 126q.1-.7.8-.9c1 .6-.4 1-.8 1"/><path fill="#e992ac" d="M169.2 118c0-1.4 1.7-2 2.7-1.5q-.7 1.8-2.7 1.4"/><path fill="#eb3a57" fill-opacity=".3" stroke="#eb3a57" stroke-opacity=".3" stroke-width=".5" d="M195.8 92.1q0-.8.7-1c1 .6-.3 1-.8 1Z"/><path fill="#e93759" fill-opacity=".3" stroke="#e93759" stroke-opacity=".3" stroke-width=".5" d="M199.3 89.9q-.3.8-1 .5.3-.5 1-.5Z"/><path fill="#eb3957" fill-opacity=".6" stroke="#eb3957" stroke-opacity=".6" stroke-width=".5" d="M252.7 72.2q.6-2.2 2.7-1.5c0 1.3-1.9 1.1-2.7 1.5Z"/><path fill="#e8a5bd" d="M206 126.9q.2-1 1-.5a1 1 0 0 1-1 .5"/><path fill="#2b4082" stroke="#2b4082" stroke-width=".5" d="M79 13.2q-3 4.4-5.8 9.2l.3.3 10.3-6c5.7 7 3 16.8 3.5 25.2l-5 6q-1 .5-1.8 1.5.6.6 1.5.3 2.2-1.9 4.9-3.2c1.8 1.4 1 11 1.2 13.5l-3 2.6q-.6.4-.6 1.2l3.6-1.3a56 56 0 0 1-2.7 22.2h-.2c-3.3.9-7.2 3.5-10 5.5-7.2-3.2-9-12.3-9.5-19.2 1-.4 4-2.9 3-4q-1.5.8-3 .9.6-7.5.5-15 3-2.9 5.4-6.4-.8-.3-1.7.2-2 1-3.7 2.5c-.5-11.1-4.5-28.7 6-36.4 1.6-1.5 5.8-1.6 6.7.4Zm102.3 0c-1.4 2.8-5.5 8.5-6 11.2.5.4 9.8-5.5 11.3-6.4 4.9 4 3.4 46 4.3 54q-1.1.8-.7 2-1.6.5.2.8c-1 11.1-12.5 23-19.6 8.4 1.5-1.2 5.6-6.1 6-7.7q-.4-.6-1-.2l-6.6 3.8a49 49 0 0 1-.9-7.7c.6-13 0-25.9-.5-38.9-.7-6.3 3.5-25.6 13.5-19.2Zm97.8 75.9q1.3-2.8 3.4-5 .4-.6-.1-1-3.4 1.6-6.5 4c-8.2-5.3-4.1-50.1-5.5-60.3.7-6.7 6-18.5 14.5-13.2 12 7.1 5.4 35.9 8.6 48.2 1.3 7.2-2.4 32.7-14.4 27.3ZM386 13.9q-2.5 3.4-4.7 7c-.6.9-.5 2.3.7 1.6q4-2.2 8-4.8 1.5.2 2.4 1.4c3.4 7.4 1.9 36 3.6 45.8-1.2 0-1.2 1.5 0 1.1 1 7-4 24.3-13 23 0-2.7 2-4.1 3.4-6.1q.6-.7 0-1.6L378 86c-2.6-.7-4.3-7.6-4.7-9.9 1-.4 1-2.6-.2-2.2q0-10.5.5-21.2c-.9-11.8-4.5-32 7.2-39.3 1-.2 4.9-.7 5.2.5Zm-11.2 60a1 1 0 0 0 1-.5q-.9-.3-1 .6Z"/><path fill="#81232f" fill-opacity=".1" stroke="#81232f" stroke-opacity=".1" stroke-width=".5" d="M29.7 112.7q1.1.3 1.4 1.4a29 29 0 0 1-5 3q-1.1 0-.9-1.3z"/><path fill="#2b3e7c" fill-opacity=".7" d="M79.3 5.3q-3.2.8-6.5.6c1.2-2 4.7-1.6 6.5-.6"/><path fill="#77252f" fill-opacity=".1" stroke="#77252f" stroke-opacity=".1" stroke-width=".5" d="M40 54.2q1.9-.4 3.8 0 0 .4-.3.7a7 7 0 0 0-3.1 2.2 3 3 0 0 1-1.8-1q1.7 0 1.4-1.9Z"/><path fill="#933142" fill-opacity=".6" d="M249.7 140.2a10 10 0 0 1 4.7.2q-.3.5-1 .5-2 .5-3.7-.7"/><path fill="#741d2d" fill-opacity=".1" stroke="#741d2d" stroke-opacity=".1" stroke-width=".5" d="M126 108.7v1.3q-.8.3-1.4 1-.9-.2-1.6-1 1.4-.9 3-1.3Z"/><path fill="#97394a" fill-opacity=".6" d="M429.6 140.2q1.9-.4 3.5.5l-2.3.7z"/><path fill="#2b3a69" fill-opacity=".4" d="m283.3 4.7-3.6.3c.5-1.5 2.7-1.3 3.6-.4"/><path fill="none" d="m289.8 175.3 1.6-.2.5.8a3 3 0 0 1-2.1-.6"/><path fill="#432f2f" fill-opacity=".1" stroke="#432f2f" stroke-opacity=".1" stroke-width=".5" d="M331.2 54.2h1.5q.2.6-.4 1.1L331 55z"/><path fill="#692e38" fill-opacity=".5" stroke="#692e38" stroke-opacity=".5" stroke-width=".5" d="M408.8 55.2q-.3.7-1 .7l-.5-.5q.7-.5 1.5-.2Z"/><path fill="#2b3f82" fill-opacity=".4" d="M180.3 4.9h-2.5c.2-1.3 2-1 2.5 0"/><path fill="#595961" fill-opacity=".2" stroke="#595961" stroke-opacity=".2" stroke-width=".5" d="m225.7 439.8 1.4.4-.4.5h-1.4q-.1-.6.4-1Z"/><path fill="#47474a" fill-opacity=".3" stroke="#47474a" stroke-opacity=".3" stroke-width=".5" d="m373 140.1 2 .1q-.6 1-1.8 1.4z"/><path fill="#683148" fill-opacity=".5" stroke="#683148" stroke-opacity=".5" stroke-width=".5" d="M373.1 74c1.2-.5 1.3 1.7.2 2.1z"/><path fill="#732e3a" fill-opacity=".4" stroke="#732e3a" stroke-opacity=".4" stroke-width=".5" d="M276 97.1q1.2 0 2 .6l-1.2.5z"/><path fill="#2a3f7c" fill-opacity=".6" d="M59 14.7q-.2.8-.8 1.5 0-1 .8-1.5"/><path fill="#6e2c3a" fill-opacity=".5" d="M5.8 76.7q0 .9-.7 1.5 0-.9.7-1.5"/><path fill="#414143" fill-opacity=".4" d="m37 438 1-.1.3.8q-.8-.1-1.4-.7"/><path fill="#a13346" fill-opacity=".4" d="m129.2 55.3 1.2.1-1.7.6z"/><path fill="#862f3e" fill-opacity=".6" stroke="#862f3e" stroke-opacity=".6" stroke-width=".5" d="M100 76q.5 1.3-.9 1.9 0-1.2.9-1.9Z"/><path fill="#4d417a" fill-opacity=".3" stroke="#4d417a" stroke-opacity=".3" stroke-width=".5" d="M374.8 74q.1-.9 1-.6a1 1 0 0 1-1 .6Z"/></svg>