<svg xmlns="http://www.w3.org/2000/svg" style="shape-rendering:geometricPrecision;text-rendering:geometricPrecision;image-rendering:optimizeQuality;fill-rule:evenodd;clip-rule:evenodd" viewBox="0 0 512 512"><path fill="#61ddbc" fill-opacity=".3" stroke="#61ddbc" stroke-opacity=".3" stroke-width=".5" d="M122 76q-1 1.9-3.2 2.2a4 4 0 0 1 3.1-2.3Zm25 58c-.5 1.4-3.4 3-4.7 4l-.4-1.2a10 10 0 0 1 5-2.9Zm98 113a7 7 0 0 1-5 3c.8-1.7 3.2-3 5-3ZM62.8 274c.6-.7 2.1-2.9 3.2-1.7-.3 1.3-2.1 1.5-3.2 1.7ZM239 311.9a7 7 0 0 1-5 3 7 7 0 0 1 5-3Zm7 40q-1.5 3-5 3.2c.4-1.6 3.5-3 5-3.2Zm-8.7 25.4-1.3.7q.3-1 1.3-.7ZM216 386q-.2 1.1-1.3.7zm-4.7 6.3-1.3.7q.2-1.1 1.3-.7ZM57 401.9a7 7 0 0 1-5 3.2 7 7 0 0 1 5-3.2Zm89 19c-.4 1.6-3.5 3-5 3.2.6-1.4 3.6-3.4 5-3.1Zm-27 15q0 1-1.2.9.6-.6 1.3-.8Z"/><path fill="#61ddbc" fill-opacity=".4" d="M195.2 64.8c-.5 1-2 2.9-3.2 1.8.3-1.2 2.2-1.5 3.2-1.8M90 82.1c-.5.7-2 2.7-3 1.5q1-1.6 3-1.5m150 168q-1 1.5-3 1.8.8-2.1 3-1.9m-39 11a4 4 0 0 1-3 1.8q.8-2.1 3-1.8M83 297c.2-.6 1.3-1.6 1.8-.7a2 2 0 0 1-1.9.7m102 19.9c-.4 1.2-3.8 4.3-5 2.8a9 9 0 0 1 5-2.8m86.3 33.3q-.6.8-1.6.8a4 4 0 0 1 1.6-.8M250 395.9q-.3.9-1 1.4a6 6 0 0 1-4 1.6c.4-1.3 3.6-3 5-3m-53.8 3.4q-.5.8-1.4.6a2 2 0 0 1 1.4-.6m-13.3 8.7a3 3 0 0 1-3 2 3 3 0 0 1 3-2M87 441q-1 1.6-3 1.9.9-2 3-1.9m27.3 1q-.8.6-1.5.7.5-.7 1.5-.7m157.5 37 .3 1.1c-.6.6-1.9 2-2.7 1.3a4 4 0 0 1 2.4-2.4"/><path fill="#61ddbc" fill-opacity=".3" stroke="#61ddbc" stroke-opacity=".3" stroke-width=".5" d="M124 102a5 5 0 0 1-3.1 2.2q.8-2.2 3.2-2.1Zm-13 41c-.4 1-2 2.8-3 1.6a3 3 0 0 1 3-1.5Zm79 110.8a6 6 0 0 1-5 3.3c.4-1.6 3.6-3.2 5-3.3ZM65 324q-.5 1.4-1.9 1 .5-1.3 2-1Zm2 12a4 4 0 0 1-3.1 2 4 4 0 0 1 3.2-2Zm169 8c-.8 1.8-3.3 2.9-5 3q1.7-2.5 5-3Zm-116 4c-.5 1.5-3.7 3-5.3 3.2 1.1-1.6 3.4-3.4 5.3-3.2Zm147.8 4q0 1.1-1.2 1zm-49.5 36.1q-.7.5-1.5.7.5-.7 1.5-.7ZM109 398q-.9 2-3 2a4 4 0 0 1 3-2Zm3.2 42.4q-.6.6-1.5.7.7-.6 1.5-.7Zm5.1-.3-1.2.9q.3-.9 1.3-.9Zm17.8 54.1a4 4 0 0 1-3.1 1.8q.9-2 3.1-1.8Z"/><path fill="#61ddbc" fill-opacity=".4" d="M139.1 11q.6 0 1-.3a2 2 0 0 1-1.4 1.2zM117 332c-.4 1.5-3.7 3-5.2 3.1a8 8 0 0 1 5.2-3.1m153.3 26a2 2 0 0 1-1.4.7q.5-.7 1.4-.7m-25.6 9q0 1.1-1 1zm-3 2q0 1-1 1zm9.6.1q-.4.4-1.2.6.3-.7 1.2-.6M264 374c-.7 1.8-3.4 3-5 3.1q1.8-2.5 5-3m-38.7 10.2q-.6.5-1.3.6.4-.7 1.3-.6M85 398a3 3 0 0 1-3 1.8q.9-2 3-1.8m10 24q-.5 1.3-2 1 .5-1.5 2-1m-6.7 37q-.8.6-1.5.8a2 2 0 0 1 1.5-.7m26.7 12c-.5 1.3-3.6 3-5 3 1-1.5 3.1-3.3 5-3m-36 8a4 4 0 0 1-3 2q.7-2 3-2M216.2 97.8c-.5.8-2 2.9-3 1.8q1-1.6 3-1.8m-75 171c-.4 1-2 2.7-3 1.8a4 4 0 0 1 3-1.9M255 289a7 7 0 0 1-5 3c.9-1.5 3.2-3 5-3M67 336c.1-.7 1.3-1.6 1.9-.7q-.7.9-1.9.7m210.2 18q-.4.6-1.2.8.3-.9 1.2-.7M42.1 364q-.3.6-1 .5.4-.4 1-.5m216.8 13c.2 1-1.3 1-2 1q.5-1.3 2-1m-36.6 5.2q-.7.7-1.7.8.7-.6 1.7-.8m-3.4 1.8q-.1 1-1.2 1 .5-.6 1.2-1M85 398c0-.6 1.3-1.7 1.8-.8a2 2 0 0 1-1.8.9m24 0c.3-.7 1.4-1.6 2-.7q-.8.9-2 .6m-49 2q.3-1.2 1.6-1.1c1.3.8-1 1.3-1.6 1.1m74.2 29q-.6.6-1.4.7.5-.7 1.4-.6m-23 15q-.7.6-1.5.8.7-.7 1.5-.8m-49 32-1.4.8q.5-.7 1.4-.7m18.9 2a2 2 0 0 1-2.1 1q.6-1.2 2-1"/><path fill="#5be1c0" fill-opacity=".2" stroke="#5be1c0" stroke-opacity=".2" stroke-width=".5" d="M259.8 389.1q.3 1 1.3 1.1c-2.3 1-9 6-11.1 5.7q.7-1 1.6-1.7zm-149.8 85q-.4.8-1 1.2l-8.7 5.6q-.3-1-1.4-1.1l9.1-5.3q1-.5 2-.4Z"/><path fill="#61ddbc" fill-opacity=".5" d="M132.2 226h-4.6q1.7-1.6 4-.9.6.3.6.9M78 254a3 3 0 0 1-2.4 1.8c-.6-1.1 1.6-1.7 2.4-1.7m107 3c-.5.9-2 2.7-3 1.6q1-1.8 3-1.5m-65 91q.5-1.2 1.7-1.7 2.4-.3.5 1.3a5 5 0 0 1-2.2.4m-75 14q-.9 1.8-3 2 .8-2.3 3-2m168.2 29q-.4.5-1.2.8.3-.9 1.2-.8M180 410c0 .7-1.3 1.7-2 .7q.8-.9 2-.7m-63 27.3q-.5.8-1.4.7a2 2 0 0 1 1.4-.7m56 46.8q.6-2 2.6-2c1.5 1-1.7 2-2.6 2"/><path fill="#5bd6b6" fill-opacity=".2" stroke="#5bd6b6" stroke-opacity=".2" stroke-width=".5" d="M90 425a2 2 0 0 1-1 1.3L75.3 435q-.4-1-1.4-1.4l14.7-8.4z"/><path fill="#61ddbc" fill-opacity=".4" d="M125.8 101q0-.6.8-.9c1 .5-.5 1-.8 1m111.3 151c0 1-1.5 1.7-2.2.7a2 2 0 0 1 2.2-.8m12.8 40c.1.8-1.2 1.6-1.7.7q.6-.9 1.7-.7m35.2 23.9-.3 1-1-.1q.4-.7 1.3-1m-59.9 64.3q-.5.7-1.5.7.7-.6 1.5-.7m7.2 0-1.4.6q.4-.8 1.3-.7M199 397q-.3.9-1.4.6zm79.8 14.7c.5-.8 2.1-2.7 3-1.5q-1 1.6-3 1.5m-133 9c.4-1 2.1-2.6 3-1.6q-.9 1.7-3 1.7m-14.6 8.4q-.6.8-1.6.7.7-.6 1.6-.7m-26.2 15q-.3.8-1.2.7.5-.5 1.2-.7m3.3 2q-.6.4-1.4.6.5-.7 1.4-.7m-10.2 2q-.5.8-1.4.8zm-19.1 11q-.4.8-1.3.7.6-.5 1.3-.7m6.2 1.8q-.6.6-1.5.8a2 2 0 0 1 1.5-.8M72 463.2q-.4.8-1.4.7zm-19 11.1q-.4.8-1.3.6.6-.5 1.3-.6"/><path fill="#61dcbd" fill-opacity=".3" stroke="#61dcbd" stroke-opacity=".3" stroke-width=".5" d="M84 443q-.3.8-1 1.2L72 451l-.1-1.3q5.2-3.6 10.6-6.6.8-.3 1.5-.1Zm194 14c-.4.8-2 2.7-3 1.6a3 3 0 0 1 3-1.7ZM76 481a2 2 0 0 1-2 1q.5-1.2 2-1Z"/><path fill="#61debc" fill-opacity=".3" d="M63.9 338c-.2 1.6-3.4 2.8-5 3a7 7 0 0 1 5-3m198 18q0 1-1.2.7zm-26 17q0 1-1.2.7zm-31.6 23.3-1.2.7q0-1.2 1.2-.7M82 399.9q-.5 1.5-2 1 .6-1 2-1m24 0c-.4 1.7-3.7 3-5.2 3.3q2-2.7 5.1-3.2m17.3 36.4-1.2.8q.1-1 1.2-.8M219 488q-1 2-3.2 2 1-2 3.2-2"/><path fill="#57caaf" fill-opacity=".2" stroke="#57caaf" stroke-opacity=".2" stroke-width=".5" d="M197.7 308.1q0 1.2 1 1.5-5.7 3.5-11.7 6.8a3 3 0 0 1-2 .5q.7-1 1.6-1.6 5.7-3.4 11-7.2Z"/><path fill="#58d1b5" fill-opacity=".3" stroke="#58d1b5" stroke-opacity=".3" stroke-width=".5" d="M199.8 19q1.2 0 2 .7-.6 0-1 .2a202 202 0 0 1-11.5 7q-.8.3-1.2-.3a3 3 0 0 1 2.3-1.6l7.7-5.5q.8-.5 1.7-.5Z"/><path fill="#49b193" fill-opacity=".1" stroke="#49b193" stroke-opacity=".1" stroke-width=".5" d="M285.8 360.1q.5.8 0 1.5-4.8 3.2-9.7 6-1 .6-2.2.3l-.9-.2 10-6.3q1.5-.5 2.8-1.3Z"/><path fill="#61ddbc" fill-opacity=".4" d="m144 39.2.1 1q-1.7 1.6-3.8 2.7-.8.3-1.1-.3 2.1-2 4.7-3.4m89.8 34.1a3 3 0 0 1 2.8-2.2c1.6 1.2-2 2.1-2.8 2.2M198 263c0 .8-1.3 1.7-1.9.8a2 2 0 0 1 1.9-.8m53.2 100.4q-.5.6-1.4.7.6-.6 1.4-.7m7.2 1.8-1.3.8q.3-1 1.3-.8m-4.3 92c-.5.8-2 2.3-3 1.5q.9-1.8 3-1.6M46 478.2q-.5.7-1.5.7.8-.5 1.5-.7m13.2-.3q-.7.6-1.5.7a2 2 0 0 1 1.5-.7"/><path fill="#59d4b8" fill-opacity=".2" stroke="#59d4b8" stroke-opacity=".2" stroke-width=".5" d="M74 482q-.8 1.5-2.3 2.3a79 79 0 0 0-9 5.8l-1.8.6q-.3-.6-1-.5.5-1 1.4-1.5l10.7-6.1q1-.6 2-.5Z"/><path fill="#61ddbc" fill-opacity=".3" stroke="#61ddbc" stroke-opacity=".3" stroke-width=".5" d="M260 286a7 7 0 0 1-5 3 7 7 0 0 1 5-3ZM63.1 325q-1 2-3.2 2.2.8-2.2 3.2-2.2Zm149.8 63q0 1-1.2.7zm-25 16.9a6 6 0 0 1-5 3c1-1.6 3.2-2.8 5-3Zm-90.6 48.4-1.2.8q.1-1 1.2-.8ZM74 462q-.3 1-1.2.8z"/><path fill="#61ddbc" fill-opacity=".4" d="M222 108.8c-.3 1-1.9 3-3 1.9.3-1.3 2-1.5 3-1.9m-111 34.3c.2-.7 1.3-1.7 1.9-.8q-.8.8-2 .8M231 317c.1 1-1.5 1.6-2 .6a2 2 0 0 1 2-.6m43.2 31.3a2 2 0 0 1-1.5.7 3 3 0 0 1 1.5-.7M238 357c-.3.7-1.4 1.7-2 .7q.7-1 2-.7m10.1 8.3q-.5.7-1.4.7a3 3 0 0 1 1.4-.7m-41.8 29.8-1.2.6q.3-.7 1.2-.6m-82.5 38.2q0 .8-1 .6zM87.1 441q.3-1 1.4-1.2c1.2.7-1 1.3-1.5 1.2m132 47q.2-1 1.4-1.2c1 .7-1 1.3-1.4 1.2m-84 6q.3-1 1.4-1.2c1 .8-.9 1.3-1.4 1.2"/><path fill="#61ddbd" fill-opacity=".3" d="M184.2 89.9a5 5 0 0 1-3.1 2.1q.9-2 3.1-2.1m79 272.3-1.2.8q.2-1 1.2-.8M39 376h1q-.4.8-1.2 1.2zm54 47q-.9 2-3 2a4 4 0 0 1 3-2m-24.8 49.2-1.2.8q.2-1 1.2-.8m-3 2-1.2.8q.2-1 1.2-.8M41 481q-.3 1-1.2.8zm132 3a8 8 0 0 1-5 3.1c.8-1.6 3.2-3.2 5-3"/><path fill="#5de0bd" fill-opacity=".2" stroke="#5de0bd" stroke-opacity=".2" stroke-width=".5" d="M224.9 334.9q1 0 1.1 1l-11 6.6q-1 .5-2 .4c1.5-2.3 9.2-6.1 11.8-8Z"/><path fill="#56bba0" fill-opacity=".8" d="M100.7 510.1a35 35 0 0 1 5.6 0c-.5 1.2-5 1.6-5.6 0m20.9 0q3-.2 5.7 0c-.3 1.5-5.4 1.4-5.7 0m23.1 0q2.9-.3 5.7 0c-.6 1.5-5.3 1.4-5.7 0m54 0q2.9-.4 5.7 0c-.4 1.1-2 .9-2.9 1q-1.8.3-2.8-1"/><path fill="#4dad93" fill-opacity=".2" stroke="#4dad93" stroke-opacity=".2" stroke-width=".5" d="M274.6 275.9q0 1 .3 1.9c-1.9 1.3-7.8 5.5-9.9 5.1l-1-.2q5.4-3.2 10.6-6.8Z"/><path fill="#5cd1b2" fill-opacity=".2" stroke="#5cd1b2" stroke-opacity=".2" stroke-width=".5" d="M52 405.1q-.6 1-1.6 1.7l-8.4 5.1q-.4-.5-1-.6.4-1 1.3-1.5c2.3-.8 7.5-5.2 9.7-4.7Z"/><path fill="#5cd2ab" fill-opacity=".2" stroke="#5cd2ab" stroke-opacity=".2" stroke-width=".5" d="M256.2 345.3q.2.4.7.4 0 .6-.5 1l-8.4 4.9q-1 .4-2 .3.3-.8 1-1.2 3.8-2.2 7.4-4.7z"/><path fill="#5cdfbe" fill-opacity=".2" stroke="#5cdfbe" stroke-opacity=".2" stroke-width=".5" d="M245.7 337q.3 1 1.4 1.3-4.6 2.4-9 5.2a4 4 0 0 1-2.2.5q.3-.9 1-1.3z"/><path fill="#5ad3b0" fill-opacity=".2" stroke="#5ad3b0" stroke-opacity=".2" stroke-width=".5" d="M132 496q-.3.8-1 1.2l-9 5.8-1.4-1.3 9.8-5.7z"/><path fill="#5cd1af" fill-opacity=".2" stroke="#5cd1af" stroke-opacity=".2" stroke-width=".5" d="M248.7 305.2q.5 1 1.4 1.1l-9 5.3q-1 .4-2 .3a5 5 0 0 1 1.5-1.6z"/><path fill="#58c1a5" fill-opacity=".8" d="M95.3 230.8q-4 1.1-8 2.8l-2.7.3q1.5-1.5 3.5-1.7l1.2-1.2q1-.7 2.2-1c1 .2 3.4-.4 3.8.8"/><path fill="#62dcbc" fill-opacity=".3" d="M96 236q.6 0 1-.3 0 1-1 1.2zm110.2 21.8q-1.9 2.8-5.2 3.2c.4-1.6 3.7-3 5.2-3.2m76.1 93.5-1.2.7q0-1.1 1.2-.7m-26 15-1.3.7q.3-1 1.3-.7M239 371q-.3 1-1.3.7zm-25.1 103a3 3 0 0 1 2.7-2.1c1.1 1.2-2 1.8-2.7 2.1"/><path fill="#56c09c" fill-opacity=".1" stroke="#56c09c" stroke-opacity=".1" stroke-width=".5" d="M168 487.1c-1 2-5.8 4.5-7.7 5.6q0-1-1-1.2c1.7-1 6.7-4.6 8.6-4.4Z"/><path fill="#5cceae" fill-opacity=".2" stroke="#5cceae" stroke-opacity=".2" stroke-width=".5" d="m185 298.3.7 1.3c-2 .8-6.5 4.5-8.6 4.4.6-1.8 6.1-4.7 8-5.7Z"/><path fill="#61ddbc" fill-opacity=".4" d="M234 315a4 4 0 0 1-3 2q.8-2.2 3-2m-34.8 84.2q-.7.3-1.5.4.7-.6 1.5-.4M60 400q-.9 2-3 2a4 4 0 0 1 3-2m209 31.1a4 4 0 0 1-3 1.8q.9-2 3-1.8"/><path fill="#63e4b5" fill-opacity=".2" stroke="#63e4b5" stroke-opacity=".2" stroke-width=".5" d="m277.4 426-.5 1-5.8 3.7q-1 .4-2 .4.3-.8.9-1.4c2.2-1 4.8-4.2 7.4-3.8Z"/><path fill="#63ddbc" fill-opacity=".2" d="M285 340.9q-.2 1-1.3.8zm-9.7 14.4-1.2.8q0-1.2 1.2-.8M269 371c-.7 1.6-3.3 3-5 3a7 7 0 0 1 5-3m-168.7 80.3-1.2.8q.1-1 1.2-.8M81 457.9q0 1-1.2.8zm-6.6 10.4-1.2.8q0-1.1 1.2-.8"/><path fill="#51b29c" fill-opacity=".2" d="M230.7 331.3q0 1 1 1.3-2.9 1.5-5.6 3.4-.1-1-1.2-1.1z"/><path fill="#60debd" fill-opacity=".3" d="M177 304a4 4 0 0 1-3 2q.7-2 3-2m-51 128q0 1.2-1.3.7zm-26 15q-.3 1-1.2.8zm-28.8 23.2-1.2.8q.3-1 1.2-.8m215 1.8-.2 1h-1q.3-.8 1.2-1M48 477q-.3 1-1.3.8zm-2.7 10.3-1.2.7q0-1.1 1.2-.7"/><path fill="#61debc" fill-opacity=".4" d="M124 102q0-.6.6-.5zM47.3 282.3l1 .1q-.5.6-1.4.7zM174 306a2 2 0 0 1-2 1q.5-1.2 2-1m39 37q-.5 1.3-2 1c0-1.1 1.3-1 2-1m31.4 30.1-1.5.6q.4-.7 1.5-.6M86 455.2q-.3.9-1.4.8.6-.6 1.4-.8m5.1 1.9-1 .9q0-1 1-1m-31 13q-.5 1-1.6.8.7-.6 1.6-.7"/><path fill="#3a7e63" fill-opacity=".1" stroke="#3a7e63" stroke-opacity=".1" stroke-width=".5" d="M285.9 451.1q.4.7.2 1.5c-1.2 1.2-3.5 2.6-5.2 2.5.3-2 3.4-3.5 5-4Z"/><path fill="#57e2c2" fill-opacity=".2" stroke="#57e2c2" stroke-opacity=".2" stroke-width=".5" d="M140.9 424c-.7 1.7-3.2 3-4.8 3.7l-1.1-1c1.5-.7 4-3 5.9-2.6Z"/><path fill="#4bac90" fill-opacity=".2" d="M71 406.2h1a14 14 0 0 1-5 3.6q0-.9-.7-.4c-.2-1.9 3.3-2.7 4.7-3.2"/><path fill="#58c4a6" fill-opacity=".2" d="M59 341c-.8 1.7-3.4 3.3-5.2 3.7q0-.8-.9-1c1.8-.8 4-3 6-2.7"/><path fill="#55c4a8" fill-opacity=".2" stroke="#55c4a8" stroke-opacity=".2" stroke-width=".5" d="M192.6 401.3q.6.6 1.5 1c-1.7.7-4.3 3-6.1 2.6.9-1.7 3-2.6 4.6-3.6Z"/><path fill="#61ddbc" fill-opacity=".2" d="M80 299q-.6 1.2-1.8 1.9l-.2-1.2a2 2 0 0 1 2-.8m179 59q-.3 1-1.3.7zm-35.7 27.3-1.2.8q0-1.2 1.2-.8m-97 49-1.2.8q0-1.1 1.2-.8m-19.4 8.6q-.2 1-1.2.8zm-58.6 42.4-1.2.8q0-1 1.2-.8"/><path fill="#65d7bf" fill-opacity=".2" stroke="#65d7bf" stroke-opacity=".2" stroke-width=".5" d="M77 403a9 9 0 0 1-5 3.3l-1-.1c.7-1.2 4.4-3.5 6-3.2Z"/><path fill="#61ddbb" fill-opacity=".2" d="m268.3 359.3-1.2.8q.2-1 1.2-.8M233 374.9q0 1.1-1.2.8zm24.2 80q-.9 2-3 2.1.6-2.2 3-2.1M77.3 466.3l-1.2.8q.2-1 1.2-.8"/><path fill="#64e3b5" fill-opacity=".2" stroke="#64e3b5" stroke-opacity=".2" stroke-width=".5" d="m264 282.7 1 .2a6 6 0 0 1-5 3c.6-1.6 2.7-2.2 4-3.2Z"/><path fill="#4aa57e" fill-opacity=".1" stroke="#4aa57e" stroke-opacity=".1" stroke-width=".5" d="M41 411.3q.6 0 1 .6a23 23 0 0 0-3.8 2.4l-1.1-1q1.6-1.5 3.8-2Z"/><path fill="#53e3c3" fill-opacity=".2" stroke="#53e3c3" stroke-opacity=".2" stroke-width=".5" d="m273 367.7 1 .2q-1.7 3-5 3 1.5-2.1 4-3.3Z"/><path fill="#51e4c8" fill-opacity=".1" stroke="#51e4c8" stroke-opacity=".1" stroke-width=".5" d="M80.5 251q0 1.5 1.6 1.4A9 9 0 0 1 78 254a7 7 0 0 1 2.5-3Z"/><path fill="#54b49a" fill-opacity=".7" d="M81.7 510.2q3.3-.5 6.7 0c-.6 1.5-6 1.5-6.7 0"/><path fill="#51b49f" fill-opacity=".2" d="M259.7 452.3q.1 1 1.4 1.2a6 6 0 0 1-4 1.3 5 5 0 0 1 2.6-2.6"/><path fill="#56bca0" fill-opacity=".8" d="M174.6 510q3 0 5.8.2c-.8 1.2-5 1.8-5.8-.1"/><path fill="#4b916c" fill-opacity=".1" stroke="#4b916c" stroke-opacity=".1" stroke-width=".5" d="M120.7 501.7q.8.6 1.4 1.3-.9 0-1.5.6-1.2.4-2.5 0z"/><path fill="#316e5f" fill-opacity=".1" d="m71.9 449.7.1 1.3q-1.4 1.2-3 .6v-.5q1.5-1 2.9-1.4"/><path fill="#4c9985" fill-opacity=".8" d="M178.4 178.8c-.2 1.6-3.3 1.1-4.4 1.1.3-1.2 3.4-.8 4.4-1"/><path fill="#61dfba" fill-opacity=".2" d="m89.3 231-1.2 1.2q0-1.1 1.2-1.2m160 139.3-1.2.8q.1-1 1.2-.8M210 389.9q0 1-1.2.8z"/><path fill="#3f7467" fill-opacity=".4" stroke="#3f7467" stroke-opacity=".4" stroke-width=".5" d="m36.3 413.1.8.2 1.1 1q-.8.9-2 .4z"/><path fill="#62dcbd" fill-opacity=".3" d="M93 451q-.3 1-1.3.7zm1.2 4.2-1.2.8q.3-1 1.2-.8"/><path fill="#407567" fill-opacity=".5" stroke="#407567" stroke-opacity=".5" stroke-width=".5" d="M246.2 244.9a4 4 0 0 1 1.8.9l-1.3.4-.6-.5z"/><path fill="#262626" stroke="#262626" stroke-width=".5" d="M154 0h21q0 .5.6.6A91 91 0 0 1 237.3 36c42 56.9 8 129.5-59 142.8-.9.3-4 0-4.3 1.1a86 86 0 0 1-35.7-2q-.7-.7-1.6-.8l-10.4-3.3q-.6-.6-1.3-.8C45.6 138.6 54.7 33 133.8 4.7q1.5.4 2.2-.7 6-1.2 11.6-3c1.1-.3 6 .4 6.4-1Zm-13.9 10.7-1 .4C112.6 15.9 92 39.2 87 65.2a17 17 0 0 0-1.2 5.8 127 127 0 0 0 .2 30 109 109 0 0 0 5.1 18.6q.4.4 1 .6-.5 1.5.5 2.9 1.8 4.8 4.5 9.2l3.5 5.6q6 8.3 13.4 15.5a5 5 0 0 0 3 1.5c.4 2.1 6.2 5.1 8 6.5q1.5 1.4 3.6 1.3c3.9 5 31.7 12.2 38.8 10.2 1.8 0 7-4.3 8.2-3.4q-3.7 2.7.8 2.4c37.2-7 61-36 64.3-73.2l.1-2.4a74 74 0 0 0-.4-14.4 74 74 0 0 0-5-21.2q-.4-3-2.2-5.5c-.5-2-3.4-8.6-5.3-9.3q0-1.5-1.2-2.8a69 69 0 0 0-12.4-14.5l-4-3.7c-2.6-1.6-5.6-4.4-8.5-5.2q-.8-.8-2-.7 0-1-1-1.4c-2.8-1-7.5-4.6-10.5-3q0-1-.8-1.6l-6.2-1.9A121 121 0 0 0 147 9.3zm164 134.2c.6-3.5 5-5.8 8.4-6q38.8 0 77.6-.4.8-1.4.6-3v-79c.2-4.6 12-7.4 12.4-1l.1 82q0 .7.6 1.1 40.8.3 81.7.2a5 5 0 0 1 4 1.2c.8 3.5-5.7 6.5-8.5 6.4h-75.5q-2.2 0-2.4 2.1v80q0 2-1.8 3.1c-3 2-10.7 3.4-10.6-2v-81c.2-2-1.7-2.2-3.2-2.2H308q-2.3.2-3.9-1.5ZM264 512h-28q-.5-.8-1.4-.8l-36-1.1-18.2.1q-3-.4-5.8-.1H88.3q-3.3-.3-6.6.1a90 90 0 0 0-10.5 0c-1.5 0-4.7-1-5.5.6-2.3 0-18-.5-21.4-.9q-.4-1-1.4-1a21 21 0 0 1-15.8-15.4c-9-33.6-.9-70.6-1-105 .7-52.1-12.1-99.5 31.7-138.7q1 0 1-1 .3-.9 1.2-.7.8-.5 1.3-1.1 9.2-6.5 19.3-11.1.9 0 1.5-.7l.7-.1q.9 0 1.3-.9.3 0 .5-.3l2.7-.3q4-1.6 8-2.8a130 130 0 0 1 37-4.8c28.3-.6 56.9-3.7 85.2.1 53.7 8 78.6 44 81.4 96.4q.3 80.5 0 161c-1.5 20.3-16 26.7-34.2 27.9a1 1 0 0 0-.7.6ZM163.4 231q-9.4-.2-18.7 1c-2.3-.6-7.8.1-10.4 0l-1.3.2q-9.5 0-19 .7-8.7.6-17 2.8l-1 .4a66 66 0 0 0-48.5 44q-.3 1-.3 2.1l-.4.8q-1.4 2.1-1.7 4.7a67 67 0 0 0-3.1 14.7q-1 3-1 6.4-1.2 6.2-1.1 12.5-.6 2.7-.6 5.5a100 100 0 0 0-.2 14l-.1 12.9V376l-.2 1.2a183 183 0 0 0-1 17.8q-.6 3.4-.5 6.8a159 159 0 0 1-1 13l-.4 14a58 58 0 0 0-.6 16 72 72 0 0 0 .3 14.3c.3 1.8 0 9.9 1.2 10.8v2.1c.3 2 1 9 2.1 10.3q.3 3.5 2 6.8 2 4.8 6.1 8.2.7 1 1.8 1.6a26 26 0 0 0 10.1 4.5q2.6 1 5.3.7.4.8 1.3.6c17.6.5 35-1 52.6-1q1.3.5 2.5 0c5.5.5 13 .2 18.6 0q2.3.4 4.6 0 9.2.5 18.5 0 5.6.4 11.3 0 9.3.4 18.7 0 2.7.4 5.4 0 9.3.4 18.4 0 7.8.3 15.6.2 9.3.2 18.6.1 5.8.3 11.6.2l1-.5c18.9-.2 24-14.1 23.1-30.7l.2-1a11 11 0 0 0 0-5c.2-2.5 1-13-.1-14.4q.1-.7-.2-1.5.6-1.3.6-2.8 0-5.2-.2-10.3a10 10 0 0 0-.1-4q.5-5.2.4-10.5.1-1.2-.9-1.8l.7-.7q.6-1-.2-2 .4-20.7.4-41.4a2 2 0 0 0-.7-1.9q.6-1.2.4-2.7.3-4.7.3-9.5a2 2 0 0 0-.8-1.8q.5-.8 0-1.6c1.6-2.3.4-8.3.4-11q.3-4.1 0-8.1a156 156 0 0 0-.3-13.9q.2-5.1-1.1-10.1 0-.5.3-1.1l-.3-2.7a219 219 0 0 0-2.4-14.3q-1-5.3-2.5-10.3l-.7-1.6c-.7-2-2.3-8.6-4.3-9.2q-.3-1-.3-1.9c-.7-1.8-3-7.2-4.8-7.8.2-1.5-1.6-3-2.3-4.2-1.9-2.3-5-7-7.7-8-.2-1.5-2.5-3.1-3.8-3.8-.4-1.3-6.7-5.2-8-6.3a4 4 0 0 0-1.8-1q-4.4-2.8-9.3-4.6l-2.6-1.3a64 64 0 0 0-15-4.8c-4.6-.9-10-2.3-14.6-2-3-1.3-7.3-1-10.4-1.1q-7.6-1-15.2-.4c-4.3-.6-11.3.2-15.8.3Z"/><path fill="#48927f" fill-opacity=".8" d="M71.2 510.3c-1 1.3-4 .4-5.5.5.8-1.6 4-.6 5.5-.5"/><path fill="#62ddbb" fill-opacity=".3" d="M67 466q-.3 1.1-1.3.7zm196.1 37-.2.7-1 .5q.3-1 1.2-1.1"/><path fill="#62debe" fill-opacity=".3" d="M265 354q-.3 1-1.2.8.4-.5 1.2-.8m-144.8 84.2-1.2.8q.3-1 1.2-.8"/><path fill="#4c9a85" fill-opacity=".5" d="M84.1 234.2q-.4.9-1.3.9.4-1 1.3-.9"/><path fill="#58bfa4" fill-opacity=".4" stroke="#58bfa4" stroke-opacity=".4" stroke-width=".5" d="m133 232.2 1.3-.1q-.6.9-1.7.9z"/><path fill="#60dbbb" fill-opacity=".3" d="M55 473q-.3 1-1.3.7z"/><path fill="#61debd" fill-opacity=".5" d="m284.4 350-1.4.9q.3-.9 1.4-1"/><path fill="#417368" fill-opacity=".3" stroke="#417368" stroke-opacity=".3" stroke-width=".5" d="M125 173q.8.2 1.3.8-1 .1-1.3-.8Z"/><path fill="#5fdcba" fill-opacity=".2" d="m51.3 483.3-1.2.8q.2-1 1.2-.8"/><path fill="#5fddba" fill-opacity=".3" d="m230.3 381.3-1.3.7q.3-1.1 1.3-.7"/><path fill="#53b59a" fill-opacity=".3" stroke="#53b59a" stroke-opacity=".3" stroke-width=".5" d="M43 508.8q.9.2 1.3 1.1-1 0-1.4-1Z"/><path fill="#3d6e61" fill-opacity=".9" d="M58.8 248.8q0 1-1 1 .4-.7 1-1"/><path fill="#61ddbc" stroke="#61ddbc" stroke-width=".5" d="M147 9.3c11.6-.6 22.9-.9 34.3 1.8Q164.5 23.5 148 36.4c-1 .8-2.8 1-2.7 2.7H144q-2.6 1.5-4.7 3.5.3.6 1 .3 2.1-1.2 4-2.7l1-.5q21.8-12.3 43.1-25c3-1.7 7.7 1.8 10.4 3q1 .3 1.1 1.3-1 0-1.7.5l-7.7 5.6a3 3 0 0 0-2.3 1.5q.4.6 1.2.3a202 202 0 0 0 11.4-7l1.1-.2c3 .8 6 3.6 8.5 5.2a2639 2639 0 0 0-39.1 27.9l-6 3.6q.5.6 1.1.4a19 19 0 0 0 3.3-2.5 25 25 0 0 0 4-2q20.6-11.5 40.7-23.7 7.2 6.4 12.5 14.5-15 9.7-29.3 20c-.8.4-2.5.4-2.3 1.7-1 .3-2.9.6-3.2 1.8 1.1 1 2.7-.8 3.2-1.8q2.4.3 3.6-1.7 1-.1 2-.7c8.1-5.4 17.3-10 25.9-15A2 2 0 0 0 228 46c2 .6 4.8 7.1 5.3 9.3q-1-.2-1.9.4L185 88.5q-1 .5-.8 1.4-2.2 0-3.1 2.1-1.2-.3-2 .7c.6 1 2 .2 2-.7q2-.4 3.1-2.1l1.8-.6q24.7-14 49.4-28.6 4 10.2 5 21.2-1.2-.1-2.5.4c-3.5 2.5-18.1 13.7-21 14.2q-.7.4-.7 1.3-2 .2-3 1.8c1 1.1 2.5-1 3-1.8l1.8-.2c6.2-4.5 17.2-9.3 22.7-13.8q.6 6.3.1 12.6a2 2 0 0 0-1.8.3q-6 4.4-12.4 8.6-.8.6-1.4 1.5c-.8 1-3.2.5-3.1 2-1 .4-2.8.6-3 1.9 1 1 2.6-1 3-1.9l2-.1 8.5-5.5a67 67 0 0 0 8.1-4.5c-3.2 37.3-27.1 66.3-64.3 73.3q-4.5.2-.8-2.5c-1.1-1-6.4 3.4-8.2 3.4-7.1 2-35-5.2-38.8-10.2q11.6-7.6 23-15.6c1.8-1.2 2-2.5 4.5-2.7q1.2-1-.4-1.1a5 5 0 0 1-2.7 1.4q-.7.9-1.5 1.3-13.5 7.3-26.6 15.4c-1.7-1.4-7.5-4.3-7.8-6.5q11.5-7.7 22.9-15.6.7-.4.7-1.2l1.6-.2c1.3-.9 4.2-2.4 4.6-4q1.2 0 2.2-.3 2-1.5-.5-1.3-1 .7-1.7 1.6a10 10 0 0 0-5 2.9l-1.2.6c-8.9 5.4-18.6 9.6-26.7 16q-7.4-7.2-13.4-15.5l51-36.2c-1.5-1.6-3.5.9-4.4 2-16.1 8.5-34.1 19.2-50 28.6q-2.8-4.5-4.6-9.2c2.7-.3 25.4-16.7 28.3-18.9q2-.4 3.2-2.1.3-.1.5-.6-.6-.2-.5.6-2.4-.2-3.2 2.1l-2 .1-26.7 16q-.7-.3-1-.7-3.4-9-5.2-18.6c3.4-.8 25.7-17.7 30.6-20.7l2.2-2.1q2.2-.3 3.1-2.3 1.2.2 2.2-.3 1.7-1.6-.5-1.2-1 .5-1.7 1.5-2.2.2-3 2.3c-2.6.1-30.6 16.8-33.6 18.9q-1-13 .5-26.1 1.3 0 2.2-.5l27.6-21q-.3-.3-.9-.2-1.4 1.2-3.2 1.7L87 65.2c4.9-26 25.6-49.3 52.1-54.1l-.4.9a24 24 0 0 0-3.5 3.7c-.7.7-2.7.5-2.8 1.6q.7.7 1.6.4 4.9-3.3 10.1-6.2zm86.8 64c.7 0 4.4-1 2.8-2.2a3 3 0 0 0-2.8 2.2ZM90 82.1q-2 0-3 1.5c1 1.2 2.5-.8 3-1.5a2 2 0 0 0 1.8-.8c-.6-.9-1.6.1-1.8.8Zm35.8 19c.3 0 1.8-.5.8-1a1 1 0 0 0-.8 1ZM111 143a3 3 0 0 0-2.8 1.5c.8 1.2 2.5-.6 2.8-1.5q1.2 0 2-.8c-.6-1-1.7.1-2 .8Zm34.9 21.2c.6-.2 4.2-1.2 2.8-2.3q-2.2.1-2.8 2.3Zm32.8 3c.7-.3 4.1-1.2 3-2.4q-2.4.2-3 2.3Zm15.7 63.7a6 6 0 0 1-2.8 3l-45.9 31.3c-1.4 1.3-1.4 1.7-3.7 2.2q-.7.4-.8 1.2a4 4 0 0 0-3 1.9c1 1 2.7-.9 3-1.9h2q30-18 60.6-35.4 1-.3 1-1.2c4.7-.3 10 1.1 14.7 2q-9.6 6.3-18.9 12.8a25 25 0 0 0-7.3 4.8c-1 .7-3.1.4-3.1 2.1-1.5.2-4.7 1.8-5.1 3.3q-2-.3-3 1.5c1 1 2.5-.7 3-1.5a6 6 0 0 0 5-3.3l2-.2a978 978 0 0 1 29.1-17q1-.6.9-1.7 6.3 1.4 12.3 4-.2.6-.7 1-8.9 5-17.1 11l-10 6q-.4.4-.3.9c-1.5.2-4.8 1.6-5.2 3.3q-2.2-.3-3 1.8a2 2 0 0 0-1.9.8c.6 1 1.9 0 1.9-.8q2-.2 3-1.8 3.4-.6 5.2-3.3l1.9-.1q13.8-8.3 27.9-16.4l1-1a46 46 0 0 1 9.2 4.6l-.1.8q-.9.4-1 1.2c-2 .2-4.3 1.4-5 3.1q-2.4-.3-3 2a2 2 0 0 0-2.2.7c.7 1 2.2.2 2.2-.8q1.8-.3 3-1.9a7 7 0 0 0 5-3c.4 0 2 0 1.6-.8l1.3-.4c1.3 1.1 7.6 5 8 6.3q-1-.1-1.7.5-34.8 22.8-69.3 45.7c-1.8 1-7.3 3.9-8 5.7q-2.2 0-3 2-1.4-.2-2 1c-.9.2-2.7.5-3 1.7 1 1.4 2.3-1 3-1.6a2 2 0 0 0 2-1.1q2-.3 3-2c2.2.1 6.7-3.5 8.7-4.4l73.3-42.3q.8-.5.8-1.4c2.7 1 5.8 5.7 7.7 8q-1.5-.2-2.6.4l-78.3 51q-1 .6-1.5 1.6a9 9 0 0 0-5 2.8c1 1.5 4.5-1.6 5-2.8a3 3 0 0 0 2-.4l11.6-6.8 70-40.4a2 2 0 0 0 1.1-1.2c1.8.6 4 6 4.8 7.8q-5.2 3.6-10.6 6.8c-1.3 1-3.4 1.6-4 3.3a7 7 0 0 0-5 3 7 7 0 0 0-5 3q-1.2-.2-1.9.7c.6 1 1.9.1 1.8-.7 1.7 0 4.2-1.5 5-3a7 7 0 0 0 5.1-3 6 6 0 0 0 5-3.1c2.1.4 8-3.8 9.9-5.1 2 .6 3.6 7.2 4.3 9.2-2.5-.6-21.4 12.7-24.7 14.9q-3 1.4-5.8 3.3l-8 5a5 5 0 0 0-1.7 1.7 7 7 0 0 0-5 3q-2.3 0-3 2a2 2 0 0 0-2 .7c.5 1 2.1.4 2-.6a4 4 0 0 0 3-2 7 7 0 0 0 5-3q1 .1 2-.4 4.6-2.5 9-5.3c9.2-5.9 21.3-11.6 30-17.7q1.4 5 2.3 10.3-1.2 0-2.3.7L224.8 335c-2.6 1.9-10.3 5.7-11.8 8-.7 0-2 0-2 1-1 .4-2.7.6-3 1.8 1 1 3.1-.2 3-1.8q1.5.5 2-1 1 .2 2-.4l16.7-10 51.6-29.5 1.5 10.2q-1-.1-1.8.4c-12.5 7.8-24.8 16-37.3 23.5q-4.4 2.7-8.7 5.6a3 3 0 0 0-1 1.3 7 7 0 0 0-5 3q-1.5-.3-2 1c-1 .3-2.7.6-3 1.7 1 1.2 3.2-.1 3-1.8.7.2 2 .2 2-.9 1.7-.2 4.2-1.2 5-3a4 4 0 0 0 2-.5q4.5-2.8 9-5.2l36.9-21.5.9.2q1.3 5 1 10.1-.9-.1-1.8.3l-27.8 18q-.9 0-1.8.6a89 89 0 0 1-7.4 4.6q-.7.5-1 1.3c-1.5.2-4.6 1.6-5 3.2a3 3 0 0 0-3 1.9q-1.3-.3-2 .7c.6 1 1.7 0 2-.7q2 0 3-2 3.4 0 5-3.1 1 .1 2-.3l8.4-4.9q.5-.4.5-1 .9.1 1.8-.3 13.4-8 27.2-15.7.4 5.6.4 11.3l-1.3-.1-1.3.8q-4.8 3.1-9.5 6.6a3 3 0 0 0-1.5.7q-.8.4-1.4 1.2a4 4 0 0 0-1.6.8l-2 1-1 1-6 3.7-1.8 1.2-1.2.8-6.5 4.5q-.8.3-1.4.8-1 .6-1.7 1.3a3 3 0 0 0-1.4.7l-2 1-1 1-2 1-1 1-3 1.7q-.8.8-1.8 1.2l-1.2.8-1.8 1.2-1.2.8-6.5 4.5q-.7.1-1.5.7l-1.4 1.3-1.7.7-1.7 1.1q-.7.4-1.2 1l-3 1.7q-.7.8-1.8 1.2l-1.2.8-1.8 1.2-1.2.8-9.6 6.5q-.8.2-1.4.6l-1.5 1.5a2 2 0 0 0-1.5.6l-2.1 1.4c-1.5 1-3.7 1.9-4.6 3.6a7 7 0 0 0-5 3q-2.2.2-3 2-1.2 0-2 .8c.7 1 2 0 2-.8q2.1 0 3-2 3.2-.2 5-3c1.8.5 4.4-1.9 6-2.6q2-1.2 3.7-2.7.8 0 1.5-.4 1.8-1.3 3.9-2.2l1.2-.7.8-.6 1.2-.6 5-2.8.7-.5 1.2-.8q2-.8 3.6-2.2.7-.2 1.5-.7l5-2.8.7-.6q.8-.2 1.3-.6l3.7-2 1.3-.8.7-.5 5-2.8 1.3-.7q3-1.6 5.6-3.6l1.5-.6 5-2.8.7-.6q.8 0 1.2-.6l5-2.8.8-.4 1.2-.8 3.7-2.1 1.2-.8 5.1-3 .6-.5q.9 0 1.4-.7a32 32 0 0 0 7-4l3.7-2q.8-.3 1.3-.7l.6-.4 1.5-1q.8-.7 1.8-.9c0 2.8 1.2 8.8-.4 11.1q-1.4.8-2.9 1.3l-9.9 6.3q-2.5 1-4 3.3a7 7 0 0 0-5 3q-3.2.5-5 3-1.5-.3-2 1c-1 .3-2.7.6-3 1.7 1 1.1 3.1-.1 3-1.7.6 0 2 0 2-1 1.6-.1 4.3-1.3 5-3 1.7 0 4.3-1.4 5-3a6 6 0 0 0 5-3.1q1 .2 2-.3 5-2.8 9.8-6 1 .7.8 2 .1 4.7-.4 9.4c-3.4.4-21.8 14-26.4 16.1l-8.2 5.1q-1 .7-1.6 1.7c-1.4 0-4.7 1.7-5 3q-1 0-2.2.5-2 1.6.5 1.2 1.2-.6 1.8-1.7 2.3 0 3.9-1.6.7-.5 1-1.4c2.2.3 8.8-4.7 11-5.7l24.9-14.5q.8.7.7 1.9 0 20.7-.4 41.4l-1.2.6a87 87 0 0 1-7 4.9q-.9.5-.6 1.4c-2.6-.4-5.2 2.8-7.4 3.8l-1 1.4q-2.1-.2-3 1.8-1.2 0-1.9.8c.6 1 1.8 0 1.9-.8q2 0 3-1.8 1 0 2-.4l6-3.8 8.7-5.2q1 .6.9 1.8.1 5.3-.4 10.5c-2.7-.2-22.8 15.6-26.5 18.3a5 5 0 0 0-2.6 2.5q-2.4 0-3 2.2-2.1-.2-3 1.6c1 .8 2.5-.7 3-1.6q2.1 0 3-2.1a6 6 0 0 0 4-1.4c3.5-2.8 23.8-13 25.2-15.5q.3 5 .2 10.3 0 1.6-.6 2.8c-1.6.5-4.7 2-5 4q-2.3-.4-2.8 1.8a3 3 0 0 0-3 1.7c1 1 2.5-.8 3-1.7q2.2.3 2.8-1.8c1.7.1 4-1.3 5.1-2.5a52 52 0 0 1 .2 14.3c-1.9 0-13.4 10.7-13 12.5l-1.4-.3a4 4 0 0 0-2.4 2.4c.8.8 2-.7 2.7-1.3l1.1-.6q6-3.2 11.8-6.6h1c1 16.6-4.2 30.5-23 30.7l.1-.6 10.6-13.4q-.3-.5-.8 0a4 4 0 0 1-3 2l-18.9 11q-.7.4-.7 1.3l-18.6-.1 20.8-18.9q2-1.7 3.4-3.8c.5-.3 3.3-1 2.5-2q-1.8.2-2.5 2a2 2 0 0 0-1.9.3 1578 1578 0 0 0-38 22.2q-9 .5-18.3 0l2.4-1.2 13.9-10.2 1.9-2.2q2.2 0 3.1-2c.6.1 2.6-.5 1.5-1.2q-1.2 0-1.5 1.2-2.2 0-3.1 2c-2.2.3-23.2 12.3-23.6 13.6q-9.3.4-18.7 0 19.2-13.5 38.3-27.5l2-2c.6-.4 3.8-1 2.7-2.2a3 3 0 0 0-2.7 2.1 9 9 0 0 0-5.4 2.7q-22.2 12.3-44 25.2-1.4.6-2.3 1.7-9.2.5-18.4 0c5.7-3.2 11-7.2 16.5-11 2-1.1 6.7-3.7 7.6-5.6 1.9-.3 4.2-1.4 5-3 1 0 4.2-1 2.7-2q-2 0-2.6 2c-1.8-.2-4.2 1.4-5 3-2-.2-7 3.3-8.8 4.3L140 502.7q-.7.4-.8 1.2c-5.6 0-13.1.4-18.6-.2q.6-.7 1.5-.6l8.9-5.8q.7-.4 1-1.3 2 0 3.1-1.8c.5 0 2.4-.5 1.4-1.2q-1 .2-1.4 1.2-2.2-.2-3.1 1.8l-1.5.2-9.8 5.6-2.6 2c-17.5 0-35 1.5-52.6 1q-.9.2-1.3-.6c12-7.8 23.9-16 36-23.1l8.8-5.7q.6-.5 1-1.2c1.4-.1 4.5-1.8 5-3q1.2 0 2.2-.5 2-1.6-.6-1.3a3 3 0 0 0-1.6 1.8c-1.9-.4-4 1.4-5 3q-1-.1-2 .4l-9 5.3c-12.5 7.5-25.4 14.5-38 22q-1.2.6-2 1.6a26 26 0 0 1-10.2-4.5q2.3-2 4.8-3.7a58 58 0 0 0 7.3-4.5l1.7-.6q4.5-3.1 9-5.8 1.5-.8 2.4-2.2a2 2 0 0 0 2-1q2.1-.3 3-2a2 2 0 0 0 2-1.1c.8 0 3.9-1 2.6-2q-2.2 0-2.5 2-1.5-.2-2.1 1-2.2 0-3 2-1.5-.2-2 1-1 0-2 .6l-10.7 6.1q-1 .6-1.3 1.5-1-.1-1.7.4L47 497.3q-4.1-3.4-6-8.2 1.6 0 3-1l1.3-.8q.8-.7 1.8-1.2l1.2-.8 1.8-1.2 1.2-.8a76 76 0 0 0 6.5-4.6q.8 0 1.5-.7l1.5-1.2 1.4-.7L64 475l1.2-.8L67 473l1.2-.8 4.9-3.1 1.2-.8 3-2q3.4-2.1 6.4-4.5.9-.2 1.5-.8.9-.5 1.5-1.2.9-.2 1.6-.7l1.8-1.1 1.1-1 3-1.8 1.9-1.1 1.2-.8L99 452l1.2-.8 6.6-4.5q.8-.1 1.4-.7l1.4-1.3q.8-.2 1.5-.8.9-.5 1.6-1.2.7-.1 1.5-.7l1.8-1.2 1.2-.9 1.7-1 1.2-.8 1.9-1.1 1.2-.8 1.8-1.2 1.2-.8 6.5-4.6q.8 0 1.4-.6l1.9-1.4c1.6-.7 4-2 4.8-3.6 1.5-.2 4.6-1.6 5-3.1q2.1 0 3-1.7c-.9-1-2.6.6-3 1.7-1.4-.3-4.4 1.7-5 3-1.8-.3-4.4 2-6 2.8l-3.6 2.5q-1 0-1.6.7-1.7 1.2-3.8 2l-1.2.7-.9.6q-.5.1-1 .6l-5 2.9-.8.5a2 2 0 0 0-1.4.7q-1.9.9-3.4 2.3-.8 0-1.5.7l-5 2.7-.7.5q-.7.2-1.3.7l-5 3-.7.2-1.3.9-3.7 2-1.3.7a72 72 0 0 0-7 4.3 40 40 0 0 0-5 2.7l-.7.5q-.8.2-1.3.7l-5 3-.7.3-1.4.7-4.9 2.8q-2.8 1.5-5.5 3.4-.9.2-1.6.8l-5 2.8-.6.6q-.7.1-1.3.6l-5 2.9-.6.5q-.8.2-1.5.7l-5.7 3.3c-1-1.3-1.8-8.3-2.1-10.3q1.1.3 2.3-.3l29-18.3q.8-.6.9-1.8 1.6.6 3-.6l11-6.8q.7-.4 1-1.2 2-.3 3-1.9c.5.1 2.7-.5 1.5-1.2q-1 .2-1.5 1.2-2.1-.1-3 1.9h-1.5q-5.5 3-10.6 6.7-1.5.4-2.8 1.4-16.3 9.1-32.3 18.8c-1.2-1-.9-9-1.3-10.8q1.4 0 2.6-.7c12.4-7.7 24.6-16 37.2-23.5l13.7-8.6a2 2 0 0 0 1-1.4q2.1 0 3-1.9 1.4.3 2-1c.9.3 4.2-.8 2.6-2q-1.8.3-2.7 2-1.5-.5-1.9 1-2 .1-3 2-.8 0-1.4.2L74 433.6q-.6.8-1.4 1.3-18.9 10.3-37.2 21.3-.4-5.7 0-11.5.9.4 1.7 0l61.6-39.5q1.3-1 2.2-2c1.5-.3 4.8-1.6 5.1-3.2q2.2-.1 3.1-2 1.2.1 2-.7c-.6-.9-1.7 0-2 .6a4 4 0 0 0-3 2 7 7 0 0 0-5.2 3.2q-1.3 0-2.4.7l-63.2 36.5q-.3-5.7.7-11.4c3 0 26.7-16.3 31-19.1q3-1.2 5-3.5a9 9 0 0 0 5-3.3 3 3 0 0 0 3-2q1.4.3 2-1 2.1-.1 3-2a2 2 0 0 0 1.8-.8c-.6-.9-1.7.2-1.8.9q-2.1-.2-3 1.8-1.4-.1-2 1a3 3 0 0 0-3 2.1c-1.6-.3-5.3 2-6 3.2-1.4.5-4.9 1.3-4.7 3.2-5.6 1.4-24 13.4-30.5 16.6l.4-11.3q1.2.5 2-.4l12.1-7.5q1.1-.7 1.7-1.7a7 7 0 0 0 5-3.2q2.1.2 3-1.9c.5.2 2.9-.3 1.6-1.1q-1.3 0-1.6 1.1-2.1.2-3 2a7 7 0 0 0-5 3.1c-2.2-.5-7.4 3.9-9.7 4.7q-.8.4-1.4 1.5-2.1.5-3.8 2l-.8-.2 1-11.3q1.1 0 2.1-.9c24.4-15.8 48.8-32 73.2-47.6q1.4-.9 2.1-2.2c1.6 0 4.8-1.6 5.3-3.1a5 5 0 0 0 2.2-.4q2-1.5-.5-1.3-1.2.6-1.7 1.7c-2-.2-4.2 1.6-5.3 3.1-1.6-.2-4.6 3.1-6.7 3.4L37.8 395q0-5.6.4-11.2c24.3-15.5 48.3-32.7 73-47.3q.8-.5.6-1.4c1.5 0 4.8-1.6 5.2-3.1q1.2.1 2.2-.4 1.8-1.7-.6-1.3-1.1.6-1.6 1.7a8 8 0 0 0-5.2 3.1C88 347.8 63.8 362.6 40 376h-1v-22.4q1.5 0 3-1l11.8-7.9c1.8-.4 4.4-2 5.2-3.7 1.5-.2 4.7-1.4 4.9-3q2.2-.2 3.1-2 1.2.2 1.9-.7c-.6-1-1.8 0-1.9.7q-2 0-3.1 2-3 .4-5 3c-2-.3-4.2 1.9-6 2.8q-6.9 4.5-14.1 8.2l.3-11.3q.8 0 1.5-.6a438 438 0 0 1 17-11q1.3-.7 2.3-1.9Q62 327 63 325q1.5.4 2-1c.4-.2 4-1.2 2.5-2q-1.7.2-2.6 2-1.5-.3-1.9 1-2.4 0-3.2 2.2h-2q-5.4 3.1-10.4 6.7-4.4 2-8.4 4.4-.2-5.7.2-11.5 1.7-.7 3.3-1.7L76 302.3q.6-.5.8-1.3l1.4-.1q1.3-.7 1.7-2 2.3 0 3-2a2 2 0 0 0 2-.6c-.6-.9-1.7 0-2 .7q-2 0-3 2a2 2 0 0 0-2 .7l-1.2.6-36.8 21q-.1-6.3 1.1-12.5l1.6-.6q18.5-13.5 37-26.6c-.5-.7-2.9 1-3.6 1-4.2 3-27.6 15.9-34 19.8q.7-7.6 3.1-14.7 1.8-.6 3.3-2 6.3-4.6 12.5-9.4 1.1-1 1.8-2.2c1.1-.3 3-.4 3.2-1.7-1-1.2-2.6 1-3.2 1.7q-1.5.3-3 1.2-5 3-10.1 5.8l-1.4 1.2-1-.1q0-1.1.3-2.2A66 66 0 0 1 96 236v1q-7.5 7.2-15.5 14-1.7 1.2-2.5 3c-.9.1-3 .6-2.4 1.8q1.8 0 2.4-1.8 2.3-.3 4.1-1.6l31-18q.8-.5.9-1.6 9.5-.6 19-.6l-.4.8c-3.8 3-29.7 21.8-30.4 23.8q-2.1 0-3 1.8c.9 1.4 2.6-1 3-1.8 4 0 36-19.9 41.9-23.4q.8-.5.6-1.4 9.3-1.2 18.6-1a7 7 0 0 1-2.8 3.1c-12.6 9.3-25.8 18-38 27.8q-5.5 4-11.2 7.5c1.5 1.5 2.7-1 4-1.6q31-17.6 61.7-35.5 1-1 2-1.7 7.6-.6 15.3.4ZM45 362q-2.2-.3-3 2-.5 0-.8.5.6 0 .9-.5 2-.2 3-2c.4.1 2.5-.3 1.4-1q-.9 0-1.5 1Zm234 50q-1.2-.2-1.9.7c.6 1 1.9 0 1.8-.8q2 0 3-1.5c-.9-1.2-2.5.7-3 1.5Z"/><path fill="#63debb" fill-opacity=".4" d="M255.9 481.2a3 3 0 0 1 2.5-2c.8 1-2 1.7-2.5 2"/><path fill="#66e6b0" fill-opacity=".1" stroke="#66e6b0" stroke-opacity=".1" stroke-width=".5" d="M281 455q-.7 2.1-3 2 .6-2.3 3-2Z"/><path fill="#62dcbe" fill-opacity=".2" stroke="#62dcbe" stroke-opacity=".2" stroke-width=".5" d="M80 401a3 3 0 0 1-3 2 3 3 0 0 1 3-2Z"/><path fill="#62debd" fill-opacity=".4" stroke="#62debd" stroke-opacity=".4" stroke-width=".5" d="M231 347c0 1.1-1.3 1-2 1q.5-1.3 2-1Zm10 8a3 3 0 0 1-3 2 3 3 0 0 1 3-2Z"/><path fill="#61ddba" fill-opacity=".3" stroke="#61ddba" stroke-opacity=".3" stroke-width=".5" d="M83 297q-.9 2-3 2a3 3 0 0 1 3-2Z"/><path fill="#60dfbe" fill-opacity=".3" stroke="#60dfbe" stroke-opacity=".3" stroke-width=".5" d="M102.2 256.8c-.4.7-2.1 3.2-3 1.8a4 4 0 0 1 3-1.8Z"/><path fill="#60debd" fill-opacity=".4" d="M178.6 167.2q.6-2.1 3-2.3c1.1 1.2-2.3 2.1-3 2.3"/><path fill="#61ddbc" fill-opacity=".5" d="M181 92c0 1-1.3 1.7-2 .7q1-1 2-.7m-34 42q.6-1.2 1.6-1.7 2.6-.3.5 1.3-1 .5-2.2.3m-1.2 30.3q.6-2.2 2.8-2.3c1.4 1-2.2 2-2.8 2.3M65 324a3 3 0 0 1 2.6-2c1.5.8-2 1.8-2.6 2m146 20c.2 1.5-2 2.8-3 1.6.3-1 2-1.3 3-1.7m18 4c.2 1.6-2 3-3 1.7.3-1.1 2-1.4 3-1.8m16 51q-.5 1.1-1.7 1.6-2.5.4-.4-1.2 1-.4 2.2-.5M95 422a3 3 0 0 1 2.6-2c1.6 1.2-1.7 2.3-2.6 2m171 11c0 .7-1.3 1.7-1.9.7q.7-1 1.9-.8m-151 38a3 3 0 0 1 1.6-1.7q2.7-.3.6 1.3-1 .5-2.2.5M90 82.1c.2-.7 1.2-1.7 1.8-.8a2 2 0 0 1-1.8.8M117 332q.5-1.2 1.6-1.7 2.6-.4.6 1.3-1 .5-2.2.4M81 478q.4-2 2.6-2c1.3 1-1.8 2-2.5 2M122 76q.5-1.2 1.6-1.6 2.1-.5.5 1.2-1 .6-2.2.3m50 231c-.7.7-2 3-3 1.6.3-1.1 2.1-1.4 3-1.5M45 362q.6-1 1.5-1c1.1.7-1 1.1-1.5 1m212 16c.1 1.6-2 2.8-3 1.7.3-1.1 2-1.4 3-1.7m22 34c0 .8-1.3 1.7-1.9.7q.7-.9 1.8-.8"/><path fill="#60dcba" fill-opacity=".2" stroke="#60dcba" stroke-opacity=".2" stroke-width=".5" d="m246 245.7.7.5c.3.8-1.2.8-1.6.7q.1-.8 1-1.2Z"/><path fill="#396459" fill-opacity=".5" d="M286.2 419q.9 1 .2 2-.6-.9-1.4-1.4z"/><path fill="#385e55" fill-opacity=".7" d="M136 4q-.7 1.2-2.2.7 1.1-.6 2.2-.7"/><path fill="#385b51" fill-opacity=".5" d="M82.1 235.2q-.5.8-1.5.7.6-.9 1.5-.7"/><path fill="#385d54" fill-opacity=".3" stroke="#385d54" stroke-opacity=".3" stroke-width=".5" d="M61.3 247q-.5.7-1.3 1 .2-1 1.3-1Z"/><path fill="#396158" fill-opacity=".5" d="M136.7 177.1q.9 0 1.6.8-1 0-1.6-.8"/></svg>