<svg xmlns="http://www.w3.org/2000/svg" style="shape-rendering:geometricPrecision;text-rendering:geometricPrecision;image-rendering:optimizeQuality;fill-rule:evenodd;clip-rule:evenodd" viewBox="0 0 512 512"><path fill="#e0e0f8" stroke="#e0e0f8" stroke-width=".5" d="M77.8 293.6q1.8.4 3.4.2 3.2-.3 6.3-.1 2.4.4.6 1.8-10 5.3-19.8 11.4c-1.6.7-1.7-1-.7-2 2.7-2.3 5.4-6 8.5-7.7l-.5-1.2q1.3-1 2.2-2.4Z"/><path fill="#e4e4fb" fill-opacity=".2" d="m281 163 .1 1.3-1.7 1.5-8.4 4.8q-.9.5-2 .4c.9-1.9 9.7-6.7 12-8m123.3 8.3-1.2.8q.2-1 1.2-.8M288 173.9q-.2 1-1.2.8zm71.5 23.4-1.4.8q.3-1 1.4-.8M37 210l-.2 1-.7.1q.1-.8.9-1.1m98.8 126 .3 1.2-8.7 5.9q-.5-.9-1.3-1.4 5-2.6 9.7-5.7M15 360h.9q-.3.8-1.2 1zm180.2 11.3-1.2.7q0-1.1 1.2-.7m-54.5.6.3 1.2q-4 3.1-8.6 5.6l-1.6-1q5-2.6 10-5.8m18.1 18q0 1-1.2.8zm-4.2 48.1v1q-5.8 3.5-11.7 6.7l-1.1-.7 11-6.6a3 3 0 0 1 1.8-.4m-66.4 41.3-1.2.8q.1-1 1.2-.8"/><path fill="#e2e2fa" fill-opacity=".3" d="m460.8 165 .4 1.3q-6.3 3.4-12.1 7.4l-1.9.4q0-.6.3-1 6.9-3.9 13.3-8.1m36 101 .2 2c-3.5.5-5.9 3.1-9 4.7q-1 .5-2 0c.2-.7 9.4-5.7 10.7-6.7M174.2 384.3l-1.2.8q0-1.1 1.2-.8M443 395v1.2c-1.5 1.3-5 4-7 3.8.2-1.6 5.7-3.8 7-5m-329 66q-.3 1.1-1.3.7zm135 0c-.6 1.8-5.1 3.8-6.7 5l-.4-1.1q2.4-2 5.1-3.4 1-.5 2-.5m59 24q-.3.8-1 1.3-3 1.7-6 3.7v-1.2c.9-1.2 5.4-4 7-3.9"/><path fill="#787883" fill-opacity=".1" d="m400 187.2 1 .1q-1 1.8-2.8 2.5-1 .3-.8 1.3l-4.6 2.2q-7.7 4.8-15.8 9.3a8 8 0 0 1-4.3 1.5q.3-1 1.2-1.6a708 708 0 0 0 24.4-15q.7-.5 1.7-.3M292 494q1-.2 1 1l-9.2 5.8q-1.3 0-2.5-.2-.3-.8.5-1.1 5-3 10.1-5.5"/><path fill="#e0e0f9" fill-opacity=".8" d="M442 252c-3.2.9-6.6 0-10 .2.3-1.6 15-9.3 17.5-10.8q.3.3.1.8c-2 2-2 4.2-5.3 5.4 1.2 1.5-1.7 3-2.2 4.3M162.7 506q4-.3 7.7 0-.7 1-2.2 1.3-2-.4-4-.3a2 2 0 0 1-1.5-1"/><path fill="#c1c1d4" fill-opacity=".1" d="M496.8 215.1q.3.8.1 1.7l-20.6 12-.1-1.2q.9-1 2.2-1.8 7.8-4.5 15.6-9.4 1.4-.8 2.8-1.3M384.2 236q.6.4.8 1l-12 7v-1.2q0-.5.5-.8 3.5-2 6.8-4.2l4-1.8"/><path fill="#e1e1f9" fill-opacity=".4" d="M52.7 150.3c0 .9-1-.5 0 0m169.4 4.8q-1.2 1.5-3 1.8.8-2 3-1.8m210.2 0a2 2 0 0 1-1.2.6q.3-.7 1.2-.7m61.8 3c.2-.7 1.2-1.6 1.7-.8a2 2 0 0 1-1.7.7m-82.9 5.2q-.4.7-1.5.7.7-.6 1.5-.7m-4.9 6.8q-.6.5-1.3.7.4-.9 1.3-.7m-119 8-1.3.6q.4-.7 1.3-.7m-20 9q-.6.8-1.6.8.8-.6 1.5-.7M143 188c0 .8-1.3 1.7-1.8.7q.6-1 1.8-.7m277 86c-.4 1.3-3.5 3.3-5 3 .7-1.7 3.3-2.8 5-3m-343 4.9c-.5 1.6-3.4 3.2-5 3q2-2.4 5-3m41 7.1q-1 2-3.2 2a4 4 0 0 1 3.2-2m83.9 79.3q-.3.9-1.3.6zm-45.1 25.8q-.3 1-1.2.8zm1.3 3q-.5.5-1.4.7.6-.8 1.4-.7m-32.5 59.8q.2 1.1-.9.9zM81 466l1.2-.2q-.1 1.3-1.5 1zm27.3 1-1.2.8q.1-.9 1.2-.7M93 473.4q-.4.7-1.5.7.8-.5 1.5-.7m28.9 20.8a7 7 0 0 1-5 2.9c.8-1.6 3.2-3 5-3m225.2 5.9-.2.9-1.2.2q.3-1 1.4-1.1M54 505.7l1 .4.2 1q-1.2-.2-1.3-1.4m40.9 1.6q1.5-.4 3.2 0c-.6 1-2.7 1.1-3.2 0m19 0q1.8-.3 3.8-.3c1 1.6-3.7 1.3-3.8.2m204.5-352a2 2 0 0 1-1.7.8q.7-.7 1.7-.8M122 164c0 .8-1.4 1.7-2 .7a2 2 0 0 1 2-.8m291.4 2a2 2 0 0 1-1.4.8q.3-1 1.4-.8M264 174c-1 1.5-3.2 3.3-5 3 1-1.5 3.2-3 5-3m30.3 0q-.5.7-1.3.8.3-.9 1.3-.7m93.1 7q-.5.8-1.4.6.5-.6 1.4-.5m-119 8q-.6.6-1.4.8.4-.9 1.3-.9m121.5 117q-.5 1.3-1.9 1 .6-1.1 2-1m-262 4c-.3 1.1-4.2 4-4.9 2.7a8 8 0 0 1 4.9-2.7m308 60q-.6 2-2.8 2a4 4 0 0 1 2.8-2m44 17a4 4 0 0 1-3 2 3 3 0 0 1 3-2M150 395.3q-.3.9-1.3.8zm-12.7 11.9q-.7.5-1.6.6.7-.7 1.6-.6m-9.4 33c-.4 1.2-3.6 2.8-5 2.9q.3-.9 1-1.4c1.6-.3 2.4-2.1 4-1.5m3.4 13q-.5.5-1.2.6.3-.7 1.2-.6m-19.4 9.1q-.3.9-1.3.8.6-.6 1.3-.8M128 479c-.8 1.3-5.4 4-7 4q.3-.8 1-1.2c1.4-.6 4.7-3.3 6-2.8m-60.7 13.1q-.7.5-1.4.6.5-.6 1.4-.6"/><path fill="#e1e1f9" fill-opacity=".5" d="M494 158c-1 1.4-3.2 3.3-5 3q2-2.5 5-3m-238 21c.1 1-1.4 1.7-2 .6q.7-.9 2-.6m-119 78.9c.3-.5 1.3-1.5 1.9-.7q-.8 1-2 .7m-55 18.2a7 7 0 0 1-5 2.8c1-1.3 3.2-3.1 5-2.8m41 7a3 3 0 0 1-3 2 4 4 0 0 1 3-2m10 23.9q-1 1.5-3 1.9.8-2.2 3-2m255 0c-.5 1.2-4.2 3.9-5 2.7a9 9 0 0 1 5-2.7M24 429q.2-1 1.5-1.1c1.1.7-1 1.3-1.6 1.2m104 11q.6-1.9 2.6-2c1.7 1.4-1.7 2-2.7 2m253 14.9q.6-1.1 1.8-1.6 2.4-.3.4 1.3-1.1.3-2.2.3m-168.5 45-.4.7-1 .5q0-1.2 1.3-1.2M489 161c0 .9-1.4 1.6-2 .7q.8-1 2-.7m-230 16q-1 1.7-3 2a4 4 0 0 1 3-2m-138 47c.2-.7 1.3-1.7 1.8-.7q-.6.9-1.9.6m366 37c-.6 1.2-3.3 3-4.6 3.1-1.4-1 4-3 4.6-3.2M357 377q-.9 2-3 2a4 4 0 0 1 3-2m79.9 7c-.2 1-1.9 2.6-2.8 1.6q1-1.5 2.8-1.7m40 5c.2 1-1.4 1.6-2 .6q.9-.9 2-.7M128 479c.4-1.1 4.2-3.8 4.9-2.7-.6 1.2-3.6 2.2-4.9 2.7m188 1a4 4 0 0 1-3 2q.9-2 3-2m-218 5c-.5 1.4-3.6 2.7-5 3.1q.3-.9 1-1.4c1.6-.3 2.4-2.1 4-1.7m139.3 15-.3.8-1.2.4q.3-1.2 1.5-1.2"/><path fill="#e0e0fa" fill-opacity=".3" d="M129 262.9q-.3.9-1 1.4-3.7 2.5-7.8 4.6l-.3-1q.1-.5.6-.8l7-4q.8-.3 1.5-.2m-57 19c-.5 1.2-4 4.2-5 2.7.5-1 3.7-2.7 5-2.7m43.9 204q-.3.8-.9 1.3l-12.6 7.8-.5-1.2q3.6-2.6 7.4-4.8c2-.7 4.7-3.1 6.6-3"/><path fill="#e1e1f9" fill-opacity=".3" d="m349 135 1-.2q0 1-1.2 1.2zm76.3 24.3-1.3.7q.3-1 1.3-.7m-112 4-1.3.7q.2-1 1.3-.7m-7 4-1.3.8q.3-1 1.3-.8M283 177q-.3 1-1.3.7zm-2.7 5.3-1.3.7q.3-1 1.3-.7M367 190q-.3 1.1-1.3.7zm-233 70q-.7 1.2-2 1 .5-1.2 2-1m230 113c-.7 1.6-3.4 2.9-5 3 .8-1.6 3.1-3 5-3m-184.7 8.3-1.3.7q.3-1 1.3-.8M138 402q-.3 1-1.3.7zm-17 42c-.4 1.3-1.8 2.2-3 1.5q1.1-1.3 3-1.6m133 14c-.4 1.6-3.5 3-5 3 .6-1.5 3.4-2.8 5-3m-132.8 1.2-1.2.8q.3-1 1.2-.8M100 469q-.3 1-1.3.7zm21 14a7 7 0 0 1-5.1 3 8 8 0 0 1 5-3m-47 1q-.3.9-1.3.7zm6.2.2-1.2.8q.2-1 1.2-.8"/><path fill="#e0e0f9" fill-opacity=".4" d="M424.2 155.3q-.5.6-1.5.6zm-31 19q-.6.7-1.5.6zm-134.2 18q-.3.8-1.2.5zm102.4 3.8a2 2 0 0 1-1.3.6q.4-.7 1.3-.6M120.9 224q-.4 1.3-1.6 2-2.5 0-.4-1.3zM494 257c.3-.8 1.3-2.1 2.3-1.5q-.4 1.6-2.2 1.5m-1.8 1c-1 1.3-3.4 3.3-5 3q1.9-2.4 5-3m-372.2 27q-.4 1.3-1.8 1 .3-1.4 1.8-1m270 21q.6-1.2 1.8-1.8 2.7-.3.4 1.2-1 .6-2.2.6m-214 74.3q-.3.8-1.3.6zM433 402q-.5 1.3-2 1 .6-1.2 2-1m10.2 22.9c-.5 1-4.3 4-5.1 2.8a7 7 0 0 1 5-2.8M19 432c-.3.8-1.4 1.7-2 .7q.7-1 2-.7m74 56.1a2 2 0 0 1-2 1q.5-1.4 2-1"/><path fill="#e1e1f8" fill-opacity=".3" d="M222.1 155.1c.5-1.7 3-2.9 4.5-3.2 1.3 1.2-3.5 3.1-4.5 3.2m103.2 1.2-1.3.7q.3-1.1 1.3-.7M299 167q-.3 1-1.2.8zm74.3 22.3-1.3.7q.3-1 1.3-.7m-119 8-1.2.7q0-1.2 1.2-.7M494 257q-.5 1.3-2 1 .6-1.2 2-1m-362 4q-.9 2-3 1.9a3 3 0 0 1 3-1.8m-17.1 27q-.6 1.8-2.7 2c-.5-1.7 1.6-2 2.7-2M35.3 322l-.3 1h-1q.3-1 1.3-1.1m462 13-.3 1-1 .1q.2-1 1.2-1.1M77 353.9q-.1 1.1-1.3.8zM190 372q-.3 1-1.3.8zM36 449.7v1.4h-1q0-1.2 1-1.4m62.3 23.6-1.2.7q0-1 1.2-.7M311 483a3 3 0 0 1-3.1 1.8 4 4 0 0 1 3-1.8M55 495.1q-.3.9-1.3.6zm2.3 3.2-1.3.7q.3-1 1.3-.7"/><path fill="#e2e2f9" fill-opacity=".3" d="M125 162.1a3 3 0 0 1-3 1.9q.8-2 3-1.9m144 8.9c-.7 1.6-3.2 3-5 3 1-1.7 3.2-2.9 5-3m-123 14.9q-.7 2.1-3 2 .9-1.8 3-2m351.2 179-.3 1-.9.1q.2-1 1.2-1m-59.2 4.2c.1-1.4 3.4-3.2 4.6-3.2 1.2 1.3-3.6 3-4.6 3.2m-331 96q-.1 1-1.2.7zM81 480q-.3 1-1.3.8zm36 17q-1.2 1.7-3 2.6-.9.7-1.8 0a7 7 0 0 1 4.7-2.6"/><path fill="#e0e0fb" fill-opacity=".2" d="m223.1 124.2-.1.8h-.9q0-1 1-.8M322 137l1-.3q0 1.2-1.2 1.3zm108.4 19.2-1.2.8q0-1.2 1.2-.8m-9.4.6q-.2 1-1.2.8zm-109.6 7.4-1.2.8q0-1.2 1.2-.8M390 176q0 1-1.2.8zm-110 3q0 1-1.2.8zm79 16q0 1.1-1.2.8zm93.2 180q0 1.1-1 1.6c-2.5 1-6.7 4.8-9.1 4.5q.3-.8 1-1.3 3.6-2 7-4.4 1-.5 2-.4m-274.2 4q0 1.1-1.2.8zm-16.7 13.2-.3.9h-.7q0-1 1-1M133 404.9q0 1.1-1.2.8zm-5.6 8.4-1.2.8q.1-1 1.2-.8m-16 52-1.2.8q0-1.1 1.2-.8M16 472l1-.1a2 2 0 0 1-1.2 1.2zm53 14.8q-.3 1.1-1.3.8zm74.8 19 1.2.1.1 1q-1 0-1.3-1.1m169.2-.2 1 .5.2.8q-1.2 0-1.2-1.3"/><path fill="#858592" fill-opacity=".1" d="M125.7 381q2.3.2.5 1.5a59 59 0 0 1-7.3 4 46 46 0 0 1-5.8 4q-1 .6-2 .1a2 2 0 0 1-2-.2q8.4-4.5 16.6-9.5"/><path fill="#ac547c" fill-opacity=".1" stroke="#ac547c" stroke-opacity=".1" stroke-width=".5" d="m422 128.8 1.3.5-16.2 9.3q-1.5.6-3 .5.3-.9 1.2-1.3l14.6-8.5q1-.4 2.2-.5Z"/><path fill="#dcdcf1" fill-opacity=".2" d="M440 261.3q1.5-.4 3-.1l-16 9.5q-1 .4-2 .2.3-.7 1-1.2z"/><path fill="#e2e2fb" fill-opacity=".2" d="M353.9 131.8h1q0 1-1.1 1zm2.4 6-.3 1-1 .3q0-1.2 1.3-1.4m51.6 27.1q0 1.2-1.2.8zm-122.5 14.4-1.3.8q0-1 1.3-.8m91.5 4.6q-.2 1-1.2.8zm1.5 2.4-1.3.8q.1-1 1.3-.8m-119 8q-.6.5-1.3.7 0-1.2 1.3-.7m114.4 173c-.6 1.7-6.1 3.9-7.8 5.1q-1 .6-2 .6c.4-1.8 6.5-4.4 7.9-5.8q.9-.4 1.9 0m-225.5 33-1.2.8q.2-1 1.2-.8M121 457q0 1.2-1.2.7zm-71 41q0 1.1-1.2.7zm137.4 2q0 .4-.3.8l-1 .2q.3-1 1.3-1"/><path fill="#ddddf1" fill-opacity=".2" d="m53.9 470 .3 1.3q-7 4-14 8.4l-1-1z"/><path fill="#e4e4fb" fill-opacity=".2" d="m39.1 259.3-12 7.8-.2-1.5q5-3 10-6.3a3 3 0 0 1 2.2 0"/><path fill="#8a8a97" fill-opacity=".1" d="M27 265.6v1.5q-4.5 2.6-9 5.5-1.2 1-2.8 1l-.4-1.5 1.4-.4q5.3-3.3 10.8-6"/><path fill="#e6e6fb" fill-opacity=".2" d="M144 316.3q-.7.8-1.6 1.4-4.7 3-9.4 5.7-.9.3-1-.7l1.6-1.5q4-2 7.7-4.4 1.3-.8 2.8-.5"/><path fill="#dfdff7" stroke="#dfdff7" stroke-width=".5" d="M154.9 309.9q0 8 .8 16c-5.9.9-13.2 7.3-18.6 10l-1.3.1q-4.8 3-9.7 5.7.8.6 1.3 1.4a99 99 0 0 1-8.2 4.7q-1.2.4-2.3-.2-1.2-8.3 0-16.4c.7-1.1 13.6-8.6 15.2-8.5q0 .9.9.7l9.4-5.7 1.7-1.4c3.3-1.9 7.8-4.3 10.8-6.4Z"/><path fill="#e1e1f9" fill-opacity=".7" d="M262.9 505.8h7.4c-.5 2.3-7 2.7-7.4 0m165-.1 7.4.3c-1.2 2.4-7.6 2.3-7.4-.3"/><path fill="#d5d5ee" fill-opacity=".2" d="M155.7 179.2q.5.8 1.4 1.2l-9 5.2q-1 .4-2.1.3.3-.8 1-1.2 4.2-3 8.6-5.5"/><path fill="#c8c8e0" fill-opacity=".2" d="m496.8 376.2.1 1.7-9.9 5.6q-.9.6-1.9.4 0-.9.9-1.3 5.3-3.4 10.8-6.4"/><path fill="#e1e1f9" fill-opacity=".3" d="M442 381a3 3 0 0 1-3 2 3 3 0 0 1 3-2m43.1 2.9c-.7 1.7-3.4 3-5.2 3.2q2-2.7 5.2-3.2m-49 16q-1 2-3 2.1.8-2 3-2m-313.2 43q-.5 1.3-2 1 .7-1 2-1m-34.8 48.2a2 2 0 0 1-2.1.8q.8-1 2-.8"/><path fill="#82828e" fill-opacity=".1" d="m35 483-9.8 5.7q-.5.3-.9.1-.8 0-1.3-.6l10-6c.7-.5 2.4-.7 2 .8"/><path fill="#6e6f7d" fill-opacity=".1" d="M84.8 245.8q1 .2 1.2 1.3-3 1.5-5.8 3.5-.8.6-1.5 1.4l-3.4-.4z"/><path fill="#a0a0b1" fill-opacity=".1" d="m393.8 230.2.2 1.6-9 5.2q-.2-.7-.8-1 .3-.9 1.1-1.2c3.1-1.2 5-3.7 8.5-4.6"/><path fill="#9a9aac" fill-opacity=".1" d="M431.8 280.3q0 1 1 1.4-3.9 1.8-7.2 4.2l-2.3-.1 3.3-2.6z"/><path fill="#e2e2fa" fill-opacity=".4" d="M439.3 151q-.6.6-1.4.7.4-.8 1.4-.7M219 157c-.2.8-1.3 1.8-2 .8a2 2 0 0 1 2-.8m-191 2.3q0-.6.3-.9.3.7-.4 1m292.3-.2q-.6.6-1.2.7.3-.7 1.2-.7m-10 1.3q-.7.6-1.6.6.7-.6 1.5-.6m187 11.6q-.3.5-.3 1l-1.2-.2q.5-.8 1.4-.8M19.7 191.3a3 3 0 0 1 2.8-2.3c1.5 1.1-2.2 2.1-2.8 2.3m250.1 11.6c.3-.6 1.4-1.5 2-.6q-.8.9-2 .6m72.9 58.2q0-.8.7-1c1 .6-.2 1-.7 1M194.9 369q-.2 1-1.1.8zM86.1 477.3q-.5.8-1.4.8.5-.6 1.4-.8"/><path fill="#d3d3e8" fill-opacity=".2" d="M100.8 494.3v.9q-.2.7-.8 1.1-2.7 1.4-5 3.3-1.4.5-2-1 3.7-2.4 7.7-4.3"/><path fill="#e1e1f9" fill-opacity=".8" d="m397.6 506 7.7-.1q-.5 1.2-2 1.4-2-.4-4.1-.4-1.1 0-1.6-1m57.1 0q3.7-.3 7.5-.1-.5 1.4-2 1.5a8 8 0 0 0-4-.3q-1-.2-1.5-1.2"/><path fill="#e0b2d5" d="M129.3 135.8q-.4 1-1.3 1.6-2.6 1.6-5 3.7l-3-.1a29 29 0 0 1 9.3-5.2"/><path fill="#e0e0f8" fill-opacity=".5" d="M352 133h1q-.2 1-1.3 1zm-24.6 22.1-1.4.7q.5-.8 1.4-.7m-41.5 20.2q-.3.8-1.3.7.6-.5 1.3-.7m-98 198q-.2.8-1.2.7zM163.3 391v1l-1.2.1q.2-1 1.2-1m-49.8 73.2-1.3.6q.3-.7 1.3-.6m-34.5 17q-.4.8-1.4.6.7-.5 1.4-.6m-6.6 7.7-1.4.8q.4-1 1.4-.8m72.9 11-.4.8q-.6 0-1 .3.2-1 1.4-1m140.8 7.3 3.6-.3c1 1.5-4 1.4-3.6.3"/><path fill="#e1e1f9" fill-opacity=".4" d="M294 170.3q-.5.8-1.3.6.6-.5 1.3-.6m7.3-.3q-.6.6-1.3.7.4-.7 1.3-.7m-182.1 13.8c-.5.9-2 2.9-3.2 1.8.3-1.2 2.2-1.4 3.2-1.8M15 205l1 .2-1.3.8zm400 71.8c-1 1.5-3.4 3.2-5.2 3.1.6-1.4 3.6-3 5.2-3M88 363.3l1.2-.3q-.5 1-1.5 1 0-.4.3-.7m109.1 6.8-1 .8q0-1 1-.8M433 372c-.1.8-1.4 1.6-2 .7q.7-.9 2-.7M78.9 385c.2 1-1.4 1.6-2 .6q.8-.9 2-.6m64 14.3q-.3.7-1.2.7.6-.5 1.2-.7M24 429c-.2.9-3.8 3.2-5 3q.4-.9 1-1.4c1.8 0 2.4-2.2 4-1.6m235 26q.5-1.2 1.7-1.2c1.2.8-1.1 1.3-1.6 1.2M105 466.3q-.3.7-1.3.7.6-.6 1.3-.7m61 31.7c.1-.8 1.3-1.6 1.9-.7a2 2 0 0 1-2 .7m-20 9.3q1.9-.5 3.8-.2c.6 1.3-4 1.2-3.7.2m18.2-.3q2 0 4 .3c-.3 1-2 .6-2.7.7q-1.3.2-1.3-1m23.6.4a8 8 0 0 1 4.2-.1c.1 1.1-3.9 1-4.2 0m50.3-.2 3.6-.2c.8 1.3-3.5 1.1-3.6.2m77 .2q1.8-.6 3.6-.3c.6 1.5-3 1-3.6.6zm33-.1q1.8-.4 3.6-.3c1 1.5-3.8 1.4-3.6.3m19 0a12 12 0 0 1 3.6-.3q0 1.1-1.2.9a4 4 0 0 1-2.5-.6m89-.2q2.1-.4 4 .3c-.1 1-2 .5-2.6.6q-1.2.2-1.3-.9M109 156c-.5 1.1-4 4.1-4.9 2.7 1-1.3 3-2.8 4.9-2.7m193 9.2q-.3.9-1.3.8.6-.6 1.4-.8m92.4 11.8q-.6.5-1.4.7.4-.8 1.4-.7m-119.2 8.1q-.5.4-1.1.6.2-.7 1.1-.6m99.7.1q-.2 1-1.2.8zm-6.5 7q-.6.5-1.3.5.3-.7 1.3-.6m-117.3 5q-.3 1-1.3.7.6-.6 1.3-.7M137 258q-.9 1.9-3 2.1.7-2 3-2.1m352.6 24.5c.4-1.6 3.7-2.9 5-3.4 1.2 1-4.1 3.3-5 3.4M410 280q-.5 1.3-2 1 .7-1.2 2-1M176.3 383q-.6.5-1.3.7.3-.7 1.3-.7m-7.4 1.2q-.1 1-1.1.8.4-.6 1.1-.8M150.5 399l-1.3.7q.3-.9 1.3-.7m-19.6 52.2c.5.8-.5.7-1 .7zm128.2 3.9a4 4 0 0 1-3 1.8 3 3 0 0 1 3-1.8M90.3 478l-1.2.7q.3-.9 1.2-.7m38.8 12a17 17 0 0 1-7.1 4c.5-1.4 5.8-4.4 7-4m-69.2 2.2q-.3.9-1.3.7.6-.6 1.3-.7m106 5.7c-.2 1-2 3.2-2.8 1.6.1-1.2 1.9-1.4 2.8-1.6m148.5 2-.5.8-1 .4q.3-1.2 1.5-1.2M213 507.4a12 12 0 0 1 3.8-.4q.3.6-.4.9-1.8.2-3.4-.5m186.2-.5q2 0 4 .4c0 1-4.1 1.4-4-.4"/><path fill="#70707b" fill-opacity=".1" d="M131.5 157q.7.3 1.5 1-1.5 1-3.4 1.4.5-1.7 1.9-2.4m152.5 5.3.3.3a7 7 0 0 1-3.2 1.7l-.2-1.3q1.5-1.2 3.1-.7M375.6 365q.8.3 1.4 1-1.4 1-3.2 1.2a3 3 0 0 1 1.8-2.2"/><path fill="#e1e1f9" fill-opacity=".5" d="m354.9 131.1 1.2-.3q-.3 1-1.2 1zm-108 7h1.3q-.7.9-1.7 1.2zM17.6 302.4q.4-1.5 1.8-1.5c1.2.8-1.2 1.4-1.8 1.5M431 403c-.7.6-2 2.9-3 1.5.3-1.1 2-1.4 3-1.5m-302 87q.6-2.2 2.6-2.1c1.4 1-1.8 1.9-2.5 2"/><path fill="#e4e4fc" fill-opacity=".2" d="M112.2 153.8a3 3 0 0 1-3.2 2.2 4 4 0 0 1 3.2-2.2M376 458c-1 1.8-3.2 2.7-5 3.9v-1.4a8 8 0 0 1 5-2.5"/><path fill="#e1e1f9" fill-opacity=".3" d="M315 157q-.1 1.1-1.3.7zm51.3 36.3q-.6.5-1.2.7 0-1 1.2-.7M477 207l1-.1q-.4.8-1.2 1zM187.3 376.3l-1.2.8q0-1.2 1.2-.8M81 495a7 7 0 0 1-5 3c.8-1.7 3.1-3 5-3"/><path fill="#e1e1fa" fill-opacity=".4" d="M326.1 150.2q-.5.8-1.4.8.6-.5 1.4-.8m36.1 43.1a2 2 0 0 1-1.5.6zm-157 171.8q-.5.6-1.3.5.4-.8 1.4-.5m-33.8 21-1.5.6q.4-.7 1.5-.6m-45 70-1.4.6c-.2-.9.9-.5 1.3-.6M85.1 481q-.5.5-1.3.7.4-.7 1.3-.7M67 488.2q-.6.8-1.5.7a3 3 0 0 1 1.5-.7m23.8.9a4 4 0 0 1-2.8 2q.6-2 2.8-2"/><path fill="#e1e1f9" fill-opacity=".3" d="m267.8 139.1 1.2-.2q0 1.2-1.3 1.2zm74 .7q0 .7.4 1.5l-1.4-.7zm-67 42.2q0 1-1.1 1zm105.5 3q-.4.6-1.2.8.3-.9 1.2-.7m-118.9 8q-.6.5-1.3.7.3-.9 1.3-.6M439 383q-.6 1.3-2.1 1 .8-1.2 2-1M48 499.2q-.1.9-1 .6zm8 8.1q1.5-.3 3 0v.3q-1.6.9-3-.3"/><path fill="#e0e0f9" fill-opacity=".4" d="m252 135.2 1-.3q-.1 1-1.3 1.1zm127.8 47q-.1.9-1.2.7zm-35 76.7q.8 0 1 .5-.7.7-1-.5M192.4 373l-1 1q-.2-1 1-1m305 20.8-.4 1.2-1-.2q.4-.9 1.3-1M119 458.3q-.5.8-1.4.6.6-.4 1.4-.6M103.3 470l-1.4.8q.4-1 1.4-.8m-41 25q-.7.6-1.5.7.5-.8 1.5-.7M75 507.3q1.5-.4 3-.1c.2 1.2-3.3 1.2-3 .1"/><path fill="#e1e1f9" fill-opacity=".9" d="M74 506q3-.4 6.3-.1-.7 1.2-2.2 1.3-1.5-.2-3 .1l-1-.3zm19.6 0q3.3-.3 6.6-.2-.5 1.5-2.1 1.4-1.6-.3-3.2.1z"/><path fill="#e1e1f8" fill-opacity=".3" d="M323 152q-.3 1-1.2.7zm114.3.3-1.2.7q.2-1 1.2-.7m-119 8q-.6.5-1.2.7.2-1 1.2-.7m100 3q-.6.5-1.3.7.3-1 1.3-.7M372 187q0 1.1-1.2.7zm-116 7q0 1.2-1.2.7zm241.4 219-.5 1.2h-.8q.3-1 1.3-1.2M412 454.2q-.5 1.2-1.8 1.8l-.1-1.1q.5-1.2 2-.7M62 491q0 1-1.2.8z"/><path fill="#e0e0f8" fill-opacity=".3" d="m429.3 124.7 1 .5-1.3.8zM416 160q-.3.9-1.3.7zm-109 2q-.1 1-1.2.8zm-7.7 9.3-1.3.7q.3-1.1 1.3-.7M385 179q-.3 1.1-1.3.7zM171 383q-.2 1.1-1.3.7zm-26 15q-.2 1-1.3.8zm-19 11q-.3 1-1.3.8zm7 41.8-1.1-.3q.8-.6 1.2.3m231.9 55 1 .4.3.9q-1-.3-1.3-1.3"/><path fill="#dfdffa" fill-opacity=".2" d="M379 140.2v.5l-1 .3q0-1 1-.8m-249.4 19.2q-.3 1-1.3 1.4l-.3-1q.4-1.2 1.6-.5m174.3 4.5q-.2 1-1.2.8zm.4 4.4-1.2.8q.2-1 1.2-.8M76 483q-.2 1-1.2.8zm-3 23 1 .1.3 1q-1 0-1.2-1m46.2.1h1q-.3.9-1 .7zm226.9 0h.9l.2 1q-1 0-1.1-1"/><path fill="#b2b9cf" fill-opacity=".2" d="M91 243c-.4 1.6-2.7 2.2-3.7 3.3l-1.3.7q-.1-.9-1.2-1.2c1.7-.8 4.3-3.2 6.2-2.7"/><path fill="#b3b3c4" fill-opacity=".1" d="M297 491.3q.7 0 1 .7-2.6 1.3-5 3 0-1.2-1-1 2-2.1 5-2.7"/><path fill="#9292a8" fill-opacity=".1" d="M486 150q-.3 1.3 1 1.6c-1.4.4-4.3 3.2-5.8 2.1q-.1-.9.7-1.2 2.2-1 4-2.5"/><path fill="#e0e0f9" fill-opacity=".3" d="m489.3 150.3-1 .7q-.1-1.1 1-.7M429 152q-.3 1.1-1.3.7zm-31 19q-.2 1-1.2.8zm-107 1q-.3 1-1.2.8zm108.3 2.3-1.3.7q.3-1 1.3-.7M164 387q-.3 1-1.3.7zm-31.7 23.3-1.3.7q.3-1 1.3-.7M442.8 466c1-1 1-1 0 0"/><path fill="#e0e0f7" fill-opacity=".3" d="M425 271c-.5 1.7-3.3 3.1-5 3q2-2.4 5-3m-224.7 97.3-1.2.7q0-1.2 1.2-.7m211-201-1.2.8q0-1.2 1.2-.8m-8.4.6q-.2 1-1.2.8zm-110.6 7.4-1.2.8q0-1.1 1.2-.8M264 188.9q0 1-1.2.8zm-67 179q0 1.4-1.2.8zM152 394q0 1-1.2.8zm-64 82q0 1-1.2.8.6-.6 1.3-.8m5.4.3-1.2.8q.2-1 1.2-.8"/><path fill="#e1b2d4" fill-opacity=".9" d="M354.9 131.1v.7h-1zm-1 .7-.1 1q-.4 0-.7.3H352q.6-1 1.9-1.3m-2 1.3-.2 1-1-.3q.4-.6 1.3-.8m-1.1.7q0 1-.8 1l-1 .2q.5-1.3 1.8-1.2M349 135l-.2 1-.7.3-1-.5q.7-1 2-.8"/><path fill="#acacbc" fill-opacity=".1" d="M475.7 157.2q-.1.8-.7 1.2a5 5 0 0 1-4.9 1.3c1.4-1 3.8-3.3 5.6-2.5"/><path fill="#e1e1f9" fill-opacity=".6" d="m497.3 230-.3 1-1.3-.2q.7-.8 1.6-.9M98.1 485c.3-1.1 4-3.9 5-2.7-1.2 1.2-3.3 2.7-5 2.7"/><path fill="#ab385c" fill-opacity=".1" stroke="#ab385c" stroke-opacity=".1" stroke-width=".5" d="m429.3 124.7-.3 1.3a13 13 0 0 1-5.4 2.2l-.7-.3q2.8-2.3 6.4-3.2Z"/><path fill="#c4c4d8" fill-opacity=".2" d="M465.5 491q-.3-1-1.2-1.8 1.8-.8 3.5-2 .6-.2 1.1.1-1.5 2-3.4 3.7"/><path fill="#e0e0fa" fill-opacity=".2" d="m330.4 153.3-1.3.8q.2-1 1.3-.8m-34.5 15.6q-.2 1-1.2.8zM185 375q0 1.1-1.3.8zm-2.6 4.4-1.2.8q.1-1 1.2-.8m-53 75q-.5.5-1.2.7 0-1.2 1.2-.7m-23 14-1.2.8q.2-1 1.2-.8m-41 25-1.2.8q0-1.1 1.2-.8"/><path fill="#9e9eb3" fill-opacity=".1" d="M455.4 372q.9.3 1.6 1c-1.5.6-3.3 2.5-5 1.9q0-.6.4-1 1.7-.7 3-2"/><path fill="none" d="M481.2 153.7c-.3 2.1-3.6 3.4-5.5 3.5.5-2 3.7-3.1 5.5-3.5"/><path fill="#e1c7e5" fill-opacity=".9" d="m343.9 138-.1.7-1.1 1-1 .1-1 .8-2 .4c.8-1.5 3.5-3 5.2-3"/><path fill="#e1e1f9" fill-opacity=".9" d="M112.7 506.1q3.2-.3 6.4 0v.6q-.8 0-1.4.3l-3.8.2z"/><path fill="#e0e0f8" fill-opacity=".3" d="m140.3 405.3-1.2.8q0-1.2 1.2-.8M33 505.9l3-.2c0 1.8-2.8 2-3 .2m160 .3 1-.4q0 1-1.2 1.2zm17.9-.4 1 .2.3 1q-1.2 0-1.3-1.2"/><path fill="#e3e3f8" fill-opacity=".3" d="m392.3 178.3-1.2.8q0-1.1 1.2-.8m-119 8-1.2.7q0-1.1 1.2-.7m-120 211-1.2.7q0-1.1 1.2-.7m-37 65-1.2.8q0-1 1.2-.8m-41 25-1.2.7q0-1.1 1.2-.7M60.1 506l1-.3q0 1.2-1.3 1.3z"/><path fill="#e0d8f3" fill-opacity=".7" d="m347 135.8 1.1.5c-1.6 1.6-2 2.2-4.3 2.4v-.7a6 6 0 0 1 3.3-2.2"/><path fill="#e2e2fb" fill-opacity=".2" d="m385.3 182.3-1.2.8q0-1.1 1.2-.8M272 183.9q-.2 1-1.2.8zm-5.6 6.4-1.2.8q.2-1 1.2-.8m-196 300-1.2.8q.1-1 1.2-.8m165.5 15.6 1.2.3.1.9q-1-.1-1.3-1.2"/><path fill="#8a8a97" d="M32 505q2.6 0 5 .7h-1l-3 .2-.7.2z"/><path fill="#dcdcf9" fill-opacity=".3" d="m299.7 489.2.3 1.1q-.8 1-2 1.7-.3-.6-1-.7 1.2-1.3 2.7-2.1"/><path fill="#bfc2e1" fill-opacity=".5" d="m51.3 310.9-.2-1.1q.6-1.6 2.3-1.5a11 11 0 0 1-2 2.6"/><path fill="#e1e1f9" d="M55 506.1q2.5-.4 5.1-.1l-.3 1-.9.3q-1.5-.4-2.9 0l-.8-.2z"/><path fill="#e1e0f8" fill-opacity=".5" d="m391.1 133.2.1 1.5-1.4.4-1-.4c.6-.6 1.4-1.8 2.3-1.5m106 187.6v1.2q-.7 0-1.2-.4.4-.6 1.3-.8"/><path fill="#af8a9f" fill-opacity=".1" stroke="#af8a9f" stroke-opacity=".1" stroke-width=".5" d="M246 138.8q.4.2.6.5.8.6 2 .8l-.8.8-2.5-.2v-.6q.6-.6.8-1.3Z"/><path fill="#db9bc8" fill-opacity=".2" stroke="#db9bc8" stroke-opacity=".2" stroke-width=".5" d="m256.8 132.2 1.4-.1v1.3l-2.4.9h-.6q0-1.2 1.1-1.6z"/><path fill="#dedefc" fill-opacity=".2" d="m118.7 268 .3 1.2q-.7 1.2-2 1.8v-1.3q.7-.9 1.7-1.6"/><path fill="#71717c" fill-opacity=".1" d="M117 269.7v1.3l-1.6 1q-.8-.2-1.4-1 1.4-.9 3-1.3"/><path fill="#e2e2fa" fill-opacity=".4" d="M36.2 336.9v1l-1.4-.1q.5-.7 1.4-1m94.7 69.3q-.3.8-1.2.7.5-.5 1.2-.7m-6.5 9-1.6.7q.7-.9 1.6-.8m-93.5 89.6 1.1.3.4 1q-1.4 0-1.5-1.3"/><path fill="#848491" fill-opacity=".7" d="m506.7 476.7.2 2.2-1-.1q.2-1.1.8-2m-.7 2.1-.2 1.3q0 .8-.7 1.2 0-1.5.9-2.5"/><path fill="#70707e" fill-opacity=".1" d="M371 460.6v1.4l-1.4 1q-1 0-1.6-1a10 10 0 0 1 3-1.4"/><path fill="#e084b1" fill-opacity=".8" d="M397 130.1q-.1 1-1 1 0-1 1-1m-1.8.8.8.2q-.2.5-.8.6zM327 134q-.2.6-.8.6.2-.4.8-.6"/><path fill="#e1a7cb" fill-opacity=".9" d="M391.1 133.2h1.8q-.5 1.2-1.7 1.5z"/><path fill="#e099c1" fill-opacity=".9" d="M40.3 129.7q-.4 1.6-2 2l-.1-.6c-.3-1.2 1.2-1.4 2-1.4"/><path fill="#de024b" stroke="#de024b" stroke-width=".5" d="M41 62q-7 9.4-14.6 18.4.7.6 1.7.1c6.4-6 19.5-9.3 25.5-15.7-.5 15-4.4 44.9 15.8 48.2 32.2 5 31.8-27 30.9-49.3q1.6 0 2.6-1.5h52.3c-.2 1-11 7.9-12.7 9l-1.4 1.4q-2.2 1.4-4.6 2.4-.4.3-.4.9c-1 .3-2.8.6-3 1.8.8 1 3-.5 3-1.8l3.8-1.6 18.4-10.6q1-.5 1.5-1.4 6.3-.3 12.5 0c1.3.6.5 3 .4 4q-.8-.2-1.4.4-16 11.5-32.4 22.8-.8.4-.8 1.3-2.1 0-3 1.8c1 1 2.6-1 3-1.8 3 .1 29.1-16.3 33.7-19.1q.5 0 .8.3.1 11.2.8 22.3c2 15 9.3 18.4 23 20.3C220 109.1 219.9 92.4 220 72q1.2.8 2.4 0c2.2-1.8 12.6-6.7 13.4-8.5h38.6q-12.4 8.3-24.7 16.9c-1.4 1.3-1.4 1.7-3.7 2.3q-.7.3-.7 1.2-1.2.3-2.3.8-2 1.5.4 1.2 1.2-.8 1.9-2l1.9-.1c6.6-5 29.2-16.2 33.6-20.4q4.5-.3 8.8-.2c3.9-.8 3.3 2.7 2.7 5.2l-1.7.7A476 476 0 0 1 272 81.6q-.7.5-1 1.2c-.9.4-2.7.7-3 1.8 1 1.3 2.7-.9 3-1.8l2-.1q9-5.5 18-10.6l1-.3c1 .9 0 12.4-.1 14.5q-4 2.4-7.8 5.3c-1 1.3-3.7 1.7-4 3.4q-2 .2-3 1.7c.9 1.4 2.5-.9 3-1.7 1.6 0 4.4-1.2 4.6-3 2.2.3 5.4-2.4 7.3-3.3 1.5 14 4.3 23.8 20.3 24.7l-1.8.5q-1 1.2-2.6 1.7-13.9 8.3-27.7 16.2-1 .3-1.5 1.3l-.6.2q-.7 0-1.1.5-1 .3-1.3 1.3l-.7-.1q-1 .2-1.3 1.1l-.8-.1q-.6.3-.5 1.1h-1.5q-.5.3-.7.8-.9 0-1.2 1l-1.2.2q-.6 0-1 .7-1.2 0-1.8 1.2l-17.2-.1.8-.8q3-2.4 6.5-4.6.7-.3.7-1.2l2.4-1c2-1.2 7.7-4.7 8.9-6.2.7-.1 3.7-1.2 2.5-2.2q-2.2 0-2.5 2.2a3 3 0 0 0-1.6 0l-6.4 3.6q-1 .3-.9 1.4h-1.4q-.6 0-.5.6-1.2.4-1 1.6h-1q-.9-.2-1.3.6l-1 .3q-.8 0-.8.8l-1.3.2q-.5.1-.8.5-1 .5-1 1.5l-1.2-.1q-.8 0-.8.7c-.6.1-2 .2-2 1.1l-1.4.3-.7.7q-8.7.3-17.3 0 7.4-5.5 15.3-10.5.8-.7.8-1.6l1.4.2a7 7 0 0 0 1.8-2q2.1 0 3-2l.6-.5q-.4 0-.6.5-2.3 0-3 2a2 2 0 0 0-2.1.7l-1.2.6-19.7 11.3q-.7.4-.7 1.3-9.1.3-18.3 0c.5-1.2 14.7-11 17-12.7q.5-.3.8-1 1-.2 1-1.3h1.3q.6-.1.9-1a2 2 0 0 0 1.3-1q7-4.5 13.7-9.5a2 2 0 0 0 .6-1.8l1.4.4c1.1-.6 4.4-2.6 4.8-3.7-.7-1.1-4.2 1.6-4.8 2.4l-1.4.6-47 27q-1 .5-1.4 1.5-9 .5-18.2 0 11.5-8 22.9-16.3-.5-.5-1.2-.3A438 438 0 0 0 165 141h-17c2.4-2.9 16-11.5 20-14.5q1-.7 1-1.9-.3-.4-.9-.1l-28 16.4-17 .2q2.3-2 5-3.7.8-.7 1.2-1.6c1.2.5 2.6-1 3-2q1 .4 1.6-.5c-.5-.9-2-.3-1.5.6-1 .3-3.3.5-3.1 1.9a29 29 0 0 0-9.3 5.2h-17c-.1-1 18.5-12.8 20.3-15 1.7-1 9.1-5.4 9.7-6.9.7 0 4-1 2.6-2q-2 0-2.6 2a3 3 0 0 0-2 .4l-9 5.1c-2.8 2.2-27 15-27 16.4H77q.1-.6.7-.8l23-15.8c-1.7-.9-3.1.7-4.7 1.3l-26 15.2q-8.4.3-17 0c4.3-4.5 17.1-11.7 21.2-16.1h.9l4.5-3.6 11-7.5c-1.5-1.6-3.2 1-4.5 1.9a124 124 0 0 0-14 8c-3.3 1.7-29.3 16.8-30 17.3q-8.6.3-17 .1c.6-1.4 9-6.4 10.8-7.8q.9-.7 1-1.6l1.3.1q1.8-.4 2-2 2 0 2.9-1.7.6 0 .7-.6-.8-.3-.7.6c-.7.1-3.2.7-2.8 1.7-.9 0-2.4.2-2.2 1.4l-1.3.2-14.7 8.3q-.8.5-1.2 1.3h-5.3q-.8-.4-.8-1.3l-.1-27.7q.8-.2 1.3-.8l3-2.1a6 6 0 0 0 3-3c.8.3 3.7-1 2.6-2a3 3 0 0 0-2.7 2q-2.4.3-4.3 1.9l-2.4 1.4q-.6-.8-.6-2C13.6 85.7 16 66.6 41 62Zm431.3 1.4-12.3 9q-.8-4.5-1.1-9 0-.8.7-1.2 6.4-.5 12.7 1.2Zm-244-.2-8.2 6c0-1.8-1.8-6.1 1.4-6.1zm124 1.2a64 64 0 0 0-13 8.8l-.2-7.7q0-.9.6-1.3 6.3 0 12.5.2Zm4.4-.1q9.3-.3 18.6 0l-17.4 11.3q-.7.4-.7 1.2-2.4 0-3.2 2.2-1.2-.3-2 .7c.6 1 2 0 2-.7a4 4 0 0 0 3.2-2.2q1.3 0 2.4-.7 8-5.1 16.4-9.5 1.8-.8 2.8-2.3 9.3-.4 18.5.1L362 89.5q-.6.6-.9 1.3-2.3 0-3.1 2.2a1 1 0 0 0-.9.3q.8.4.9-.3 2.2-.3 3.1-2.2c2.8-.3 6.2-3.2 8.9-4.4q19-10.8 37.7-22c1 0 3.3-.8 4 .4-1.7 16.3-2.1 34.8 10.8 47q-1 1.2-2.5 1.6a2 2 0 0 0-1.3-.2q-2.7 1.7-5.4 3.1L373 139.6a2 2 0 0 0-.8 1.3q-9 .3-18.3 0l-.3-1.2q1 .3 1.5-.6l1-.2q.5-.2.9-.7.8-.6 1.3-1.3.7-.5 1.6-.6 1-.5 1.4-1.5 17.3-12.2 34-25.1a4 4 0 0 0 2.7-2.8q2.3.2 3-1.9c.8.3 4-1 2.5-1.8a3 3 0 0 0-2.5 1.8q-2.2 0-3 1.9-2.1 0-3.7 1.5l-37.5 21.7q-.5.2-.7.7l-1.2.3-1 .7a3 3 0 0 0-2 1.2q-.8.2-1.1.8-1.4 0-1.8 1.2-1.1 0-2 .7a6 6 0 0 0-3.1 2.3c-1.7 0-4.4 1.5-5.2 3q-9 .1-18-.2 5.1-3.2 10.3-6.8c1.9-1.3 10.3-6.5 11-8 .5-.1 4-1.2 2.6-2q-2.1 0-2.6 2l-2 .2a90 90 0 0 1-8.9 5.5 2 2 0 0 0-1.2 1.5l-.8-.4q-1 .4-1.5 1.5l-.6-.2q-.6.2-.9.6l-1.3.5a1 1 0 0 0-.7.7q-.8.1-1.1.9-.6 0-1.1.3a1 1 0 0 0-.7 1h-1.3q-.6.3-.7 1-.9 0-1.4.6-1.3 0-2 1.2-8.8.3-17.7 0 6.6-5.1 13.9-9.6 1-.7 1.8-1.9-.9-.3-1.8.3-9.6 5.5-19 11.3-8.7.1-17.4-.2 16.8-11.9 33.3-24.2 3-1 5-3.3c23 0 26-21.1 25.5-39.4a81 81 0 0 0 17.3-9.6ZM18.3 65.9q-.4.9-1 1.3 0-1.2 1-1.3Zm-1 1.3q-.6.8-1.6.6.7-.7 1.5-.6Zm463.6-.6c2.4 1.6 7 4.6 7.3 7.7-3.5 1.4-23.3 17.1-28.2 20.3q-.9.6-1 1.7l-1.3-.3h-.4a87 87 0 0 0 2.6-17c2.9-.7 18.6-9.6 21-12.4ZM15.7 67.8c.4 1.7-2.7 4.3-3.8 5.5a6 6 0 0 1 3.8-5.5ZM243 71q-1 0-2.1.5-1.9 1.5.4 1.2A3 3 0 0 0 243 71c1.2.3 6-2.2 4.6-3.1a8 8 0 0 0-4.6 3Zm84.7 0v4c-1 0-3 1.9-3.6.7q1.6-2.4 3.6-4.5Zm75 9.3c.9 0 4.6-1 3-2.2q-2.3.2-3 2.2Zm24 16q-2-.7-1.8-3 2.5-.7 4.9-2.1.5-.2.8.1zm-118.9 3c-1.1-.3-1-2-1-3l4.5-2.3.3.4zm47-4.2c.2 0 2-.4.9-1q-.7.3-.9 1Zm-161 11.6a8 8 0 0 1-4-3.3l8.5-4.4.2.4q-2 3.9-4.6 7.3Zm-109-4.5c-1.4 3.8-4.6 7.5-9 5 .5-.9 8-5.2 9-5Zm238.4.6c-.5 3-2.3 5.7-5.7 5.2q-1 0-1.4-1 3.4-2.3 7-4.2Zm-218.5 18.5c.6-.1 4.2-1.3 3-2.3q-2.4.1-3 2.3Zm95.4-.3q-1.3-.3-2 .7c.6 1 2 .2 2-.7.6-.3 3.9-1.2 2.5-2q-2.3-.3-2.5 2Zm-25.2 0q-2 0-2.9 1.7c.7 1.5 2.9-.7 3-1.8.5.3 2.7-.3 1.5-1a2 2 0 0 0-1.5 1Zm74 3c.3 0 1.7-.4.7-.9q-.7.3-.7 1Zm70.1 2q-1.9 0-3 1.7c.9 1.4 2.6-1 3-1.8.7.3 2.7-.3 1.5-1q-1.2 0-1.5 1Zm-274 0q0 1 .9.4-.3-.6-1-.4Z"/><path fill="#e092bc" d="M132.4 133.9c-.5 1-2 2.4-3.1 1.9-.2-1.4 2.2-1.7 3-2"/><path fill="#e08ab5" fill-opacity=".9" d="M43 128a3 3 0 0 1-2.7 1.7c-.4-1 2.1-1.6 2.8-1.7"/><path fill="#63636b" fill-opacity=".5" stroke="#63636b" stroke-opacity=".5" stroke-width=".5" d="M490.7 490.3q-.5.9-1.5 1.4-.2-1.9 1.5-1.4Z"/><path fill="#e4e4f8" fill-opacity=".1" d="M47.9 386.9q-.2 1-1.1.5zm337 112q-.1 1.1-1.3.7zm-101 7 1 .2.3.8q-1 .1-1.2-1"/><path fill="#bfbfd3" fill-opacity=".8" d="m166.6 389 1.3.3q-1.8 1.3-3.9 2 .4-2.2 2.6-2.4m-3.4 2q.5 0 .8.3a1 1 0 0 1-.8.6z"/><path fill="#e0e0f8" fill-opacity=".4" d="M406 166.2q-.3.8-1.3.7zM184.3 378q-.6.5-1.4.7.5-.8 1.4-.7M124 410.2q-.2 1-1.1.8z"/><path fill="#e3e3f9" fill-opacity=".2" d="m126.8 160.2.2 1q-.5 1-2 .9a3 3 0 0 1 1.8-2"/><path fill="#df78a8" d="m242.7 140.2.2.7h-.9zm218.3.8h-2q.6-1 1.6-1 .7.3.4 1"/><path fill="#e1e1f8" fill-opacity=".1" d="M343.8 138.7q0 1.3-1.1 1zm-210 359.2q0 1.2-1 .5zm186.3 8.2 1-.2q0 1-1 1z"/><path fill="#e0c1e0" fill-opacity=".9" d="m267.8 139.1-.1 1-.9-.3q.4-.6 1-.7m-1 .7q0 .8.3 1.4l-2.1-.2q.6-1 1.8-1.2"/><path fill="#e07fad" d="M132.4 133.9c-.6-1 1-1.5 1.5-.6q-.6.9-1.5.6m117.5 2.3v.7l-.8-.2z"/><path fill="#dedef8" fill-opacity=".2" d="M506 478.8h.9q0 1.2-1.1 1.3zm-275.1 20.1q0 1.2-1.3.7z"/><path fill="#dfdffa" fill-opacity=".2" d="m190 465.2 1.4-.1q-.7.9-1.6 1 0-.5.3-.9M95 472q-.3 1-1.3.8z"/><path fill="#e0d0eb" fill-opacity=".7" stroke="#e0d0eb" stroke-opacity=".7" stroke-width=".5" d="M270.2 137.9q-.4.7-1.2 1 .3-1 1.2-1Zm49 1.1q-.5.8-1.4.8.6-.8 1.4-.8Z"/><path fill="#e0bddc" fill-opacity=".9" d="m246 138.8-.7 1.3-1.1-.2c-.1-1 1.3-1 1.9-1.1"/><path fill="#e0dcf6" fill-opacity=".7" d="m242.7 140.2 1.5-.3 1.1.2v.6q-1.2.3-2.4.2z"/><path fill="#d5d7f0" fill-opacity=".3" d="m53.8 438.2.2 1.1-.7 1-.4-1.6z"/><path fill="#e2d7f1" fill-opacity=".5" stroke="#e2d7f1" stroke-opacity=".5" stroke-width=".5" d="m249.1 136.7.8.2q-.2 1.5-1.7 1.3 0-1 1-1.5Z"/><path fill="#c76792" fill-opacity=".5" d="m52.9 149.2 2-.1c0 1-1.5 1-2.2 1.2z"/><path fill="#8c8d9c" fill-opacity=".9" d="M52 388.2h1.7c.4 1.2-1.4.7-2 .6z"/><path fill="#e1daf2" fill-opacity=".6" stroke="#e1daf2" stroke-opacity=".6" stroke-width=".5" d="m249.9 136.2 1.3-.2q-.5.7-1.3 1zm105.2 2.9q-.4.9-1.5.6.6-.6 1.5-.6Z"/><path fill="#272627" stroke="#272627" stroke-width=".5" d="M467 56.2c1.4 1.4 3.6 1 5.2.2a41 41 0 0 1 35.2 25.9 58 58 0 0 1 2.3 30.2v254c-2.5 26.3 2 54.7 1.6 81.3a123 123 0 0 1-5.3 31q-1 1.1-1 2.5c-7.4 17.8-24.3 25.2-42.8 24.6h-26.9l-7.4-.2a463 463 0 0 1-30.3.2l-25.3-.1q-3.2 0-6.4.4l-1-.3H354l-1 .2q-3.2-.5-6.2 0l-1-.1-24.8-.1-1 .2q-3-.5-6.1 0-.5 0-1-.4-10.5.4-21 .2l-1 .2q-3-.4-6 0l-1-.1a1255 1255 0 0 0-40.8 0 31 31 0 0 0-6.2.2l-1.2-.3h-17.6l-6.3.2-1-.3q-8.5.3-16.9 0-.4 0-1 .4-3-.4-6.3-.3h-24.1l-17.6.1-1.2-.1H121c-.8-1.6-5.1-.7-6.6-1q-1.6 0-2.6 1h-11.7q-3.3-.2-6.6 0L74 506h-1l-11.8-.3-1 .3q-2.5-.2-5.1.1l-1-.4q-8.5.3-17 0-2.4-.7-5-.6l-1.1-.3q-5.7-1.4-10.6-4.8-.4-1-1.5-.8a55 55 0 0 1-6.6-7.3l-1.2-1.2q0-.5.3-.8-.5-.7-1.1-1.2c-6-10.6-8.7-24-9.6-36q0-.6-.6-.7v-50q.8-.4.7-1.5c1-29.8 6.1-59.2 1.6-89v-174q0-6-1-12c-.6-19.6.3-35.1 10.6-52.2 1-1.2 4.2-3.8 3.8-5.5q1 .2 1.5-.6.8-.4 1.1-1.3c4.1-2.2 8-5.3 12.5-6.7l3.5-.5q2.6-.8 5-1.8l12.2.2q1 .2 1.7-.6l-.2-15A57 57 0 0 1 58.6 15c4.6-5.8 9.2-7.6 16-9.8q2 .1 3.9-.2 1 .6 2.1.8c13.7.8 19.3 9.8 19.6 22.7q-.2 14-.1 28 .4.6 1.3.7 5.7 0 11.2-.2 3.2.6 6.4.1 6 .3 11.7-.2 2.6.6 5.3 0l1 .1a191 191 0 0 0 17.3-.1q7.8.5 15.7.2c1.1.3 3.2.4 2.6-1.5.3-19.6-3.6-43.2 20.2-49.9 1.3 0 4.7.7 5.2-.7q.7.5 1.6.7c14 .8 19 9 20.2 21.8q0 13.8-.4 27.7c.5 1.6 4 .8 5.2.8h2.7q11.2.4 22.4 0l2.6-.1a167 167 0 0 0 20 0q9 .5 18.3.3.9 0 1.5-.7-.4-10.5 0-21c2-14.4 4.8-24.2 19.8-28.6q3.3.5 6.3-.4C346 8.9 338 31.9 339 52.5a3 3 0 0 0 .7 2.5q34.5.3 68.9.2a4 4 0 0 0 3.1-.8c-2.6-18.3-.5-48.1 23-51.1 21.2.4 26.8 26.2 25.3 43.2q-.6 5-.9 10c.9 1.3 6.4 0 8-.3ZM66 45c-1 3.5.2 10 0 14q-.2 1.5.8 2.5c-1.9 3.3-.8 32.6 1 36.8l.1.7c.9 3.9 4 7.5 8 8.2 4.3 2.6 7.4-1.1 8.8-5 5.3-15.4 4-32.2 4-48.3q.1-2-.3-3.8c0-5.4-2-29-4.4-32.5-8.3-8-15.8-6.9-17.5 5.3Q65 33 65.3 43.3q0 1 .7 1.6Zm119.4 6.5c-.1.7-.8 3.5.6 3.3.1 7.2-3.3 42.8 3.8 48.7q1.5 2.4 4 3.3 3 1.5 6.1.8c10.9-8 8.5-47.2 7.8-59.8q.2-1.8 0-3.6-1-13-3.5-25.7-.2-1.1-1.4-1.4a6 6 0 0 0-4.8-3q0-.5-.4-.8c-15.9-7.9-12.6 31.5-12.2 38.2ZM303.8 81l.2 3.1c0 3 .5 10.1 2.7 12.3 0 1 0 2.7 1.1 3 1.2 3.5 4.7 6.8 8.3 7.7q.5 1 1.4 1c3.4.5 5.2-2.3 5.7-5.2 3.6-7.7 3.9-19.4 4.5-28v-3.7c.1-17.2-.2-35.7-4-52.5q-.3-.5-.8-.7c.1-2.1-2.7-4.8-4.9-4.8-.3-2-5.6-1.2-6.9-.4-10.5 7-4.2 21-5.6 31.5Q304 62.6 303.9 81ZM425 93.3q-.2 2.2 1.8 3c-1.4 3.4 6 9.8 9.6 9.5 7.1-3.9 8.8-10.3 10.5-17.6v-2c1.7-20.1-3-40.3-1.1-60.6-.4-2.5-1.3-7-4-8 .3-1.3-1.3-2-2.3-2.6q-1.5-1.2-3 .1c-.2-1.3-2-1-2.8-1-14.4 2.5-7.2 20.4-8.8 30.3-.3 15.1-3.5 34.4.1 49Zm-409.7 16-.3 1c-.9 0-.6 1.3-.2 1.6l.1 27.7q0 .9.8 1.3H21q2.1.3 4.1.1h98.1l17-.1q3.9.3 7.9 0a538 538 0 0 0 24 0q9 .3 18.2 0 2.3.2 4.4.1 3.8.1 7.4-.1 9.1.3 18.3 0 2.2.3 4.4 0 8.7.3 17.3 0h1l2.3-.2q1.3 0 2.5.2 8.6.2 17.2 0l2 .3q4.4 0 8.6-.4a267 267 0 0 0 22.5.2 406 406 0 0 0 22.5-.2q9 .4 18.1.2 1 0 2-.4l1.5.7a126 126 0 0 1 11.8-.3 586 586 0 0 0 24 0l1-.3q2 .5 4.1.2a137 137 0 0 0 19.7-.2c2.6.8 7.2.2 10 .2q8.6.3 17.3 0 6 .3 12 .1H461l34.5.1q.9 0 1.5-.6c1-10.5.8-21.3.7-31.8 0-.8.3-3.1-.5-3.4q.3-6.4-1.3-12.5 0-2.5-1.2-4.6c-.3-2.5-1.5-8.6-4-9.5.9-1.4-1.2-4.6-2.5-4.4-.3-3.1-4.9-6.1-7.3-7.7a20 20 0 0 0-8.6-3.2q-6.2-1.6-12.6-1.2-.9.4-.8 1.3.4 4.4 1.1 8.9v6.5a87 87 0 0 1-2.7 17c-5 14.9-20 26.6-34.8 16C409.6 99.5 410 81 411.6 64.7c-.6-1.2-2.8-.4-3.9-.5q-5.1-.5-10.3.1a195 195 0 0 0-22.1-.1 266 266 0 0 0-23 0h-12.6q-.7.4-.6 1.2l.2 7.7v.7c.6 18.3-2.4 39.4-25.3 39.4h-1.7c-16-.8-18.8-10.5-20.3-24.6l-.1-2.4c0-2 1-13.6.1-14.5l.2-1c.5-.6 1-2.3 0-2.5.6-2.5 1.2-6-2.7-5.2q-4.5 0-8.8.2a22 22 0 0 0-6.4 0h-38.6q-3.7-.4-7.3 0-3.4-.2-6.9-.2c-3.2 0-1.4 4.3-1.4 6.2l-.2 2.6c-.1 20.5 0 37.2-23.4 42.7-13.8-1.9-21-5.3-23.1-20.3a446 446 0 0 1-.8-22.3l.4-1q.2-2.3-.2-4.7c0-1 .8-3.4-.5-4q-6.2-.3-12.5 0-2.2-.3-4.6 0-26.2-.2-52.3-.1c-1.2-.3-3.5-.4-2.6 1.5.9 22.4 1.3 54.3-31 49.3-20.1-3.3-16.2-33.3-15.7-48.2 0-1 .5-2.6-1.1-2.8Q46.8 61 41 62c-25 4.5-27.4 23.6-26.4 45.4q0 1 .6 2Zm-.2 57-.2 2.7q-.1 18 .3 36l-.3 1v3q-.1 5.6.2 11l-.2 1.2.2 3.6a267 267 0 0 0-.2 18.2v29q0 .8.4 1.6c-.8 3.4-.3 7.8-.5 11.4v6.8l.2 53.4q-.3 2.2 0 4.5a67 67 0 0 0 0 10.3l-.3 1v3a100 100 0 0 0 1 14q-.3 5.6 0 11.3-.6 2.8-.6 5.5-.3 5.1-.1 10.2l-.3 1q-.4 2.5-.5 5l-1 13-.6 22.1q0 2.4.3 4.7c0 2-.3 9 .7 10.4v1.8c.3 1.7 1 8.1 2.3 9.1l-.2 1c.5 1.5 1.5 6.4 3 6.7 0 3 2.6 6.1 4.2 8.4q.6.5 1.3.6c-.5 1.8 5.4 5.8 6.8 6.6q1.5 1.5 3.6 1.4c2 2.5 8 3.3 11.1 3.5q3.9 1.1 7.9.7a319 319 0 0 0 19-.3 1521 1521 0 0 0 39 0q9.3.4 18.6.4h13.5q.6 0 1-.3a1303 1303 0 0 0 41.2.2l1-.2a354 354 0 0 0 23.8.4l1-.5c3.8.9 12.8 0 17.2.4a49 49 0 0 1 6.8 0l1.2-.3 17.1.5q4.4-.4 8.9 0 9-.1 18.3-.7 1.2.3 2.5.2 9.2.3 18.5.3 5.3-.1 10.7.1l.9-.4a813 813 0 0 0 32 .3l1.1-.2a200 200 0 0 0 18 0q9 0 18.2.4 7.3-.4 14.5-.2a1729 1729 0 0 1 47.4.1c.8 1.2 7.3.6 8.9 1 7-.3 13.5-.3 20.2-2.4q1.2.3 1.7-.6l2-.5c2.8-.6 9-4 10.2-6.6l1.1-.4q1-.4 1.5-1.4c6-9.1 7.9-18.8 6.5-29.7v-4.5l.1-19q0-11.6-.5-23l.5-1.2v-7q0-5.4-.4-11l.3-1 .1-4.9a188 188 0 0 0-.5-12.8q.8-5.1 0-10.2l.4-1v-18.7q0-5.2-.2-10.3l.2-1.1v-2.6l-.2-10.3.2-1.2-.2-2.5a577 577 0 0 0 .1-29V268q0-1-.3-2 .6-10.7.5-21.3l.1-3.6q0-5-.3-10l.3-1.2-.2-2.6a74 74 0 0 0-.3-12.2q.6-5.2.3-10.3l.2-8.7a179 179 0 0 1 0-13.1q0-5-.3-10l.2-1.1v-4l-.2-18.3c-.8-1.1-5.8-.2-7.2-.5h-56.7a732 732 0 0 0-24.8 0q-.6 0-1 .2a634 634 0 0 0-24-.2l-1.2.1q-9.7-.2-19.3-.1l-5.5-.1-1.2.4a492 492 0 0 0-28-.4l-1 .3q-10.2-.3-20.4-.2l-3.5-.1-1 .3q-19.3-.4-38.4-.2h-10.4q-21.7.4-43.6 0H204l-2-.1h-31.6l-1.3.4a469 469 0 0 0-25.8-.4h-26l-101.7.1q-.8.4-.8 1.3 0 8 .2 15.9ZM306.3 181l1.1.6q-.8.3-.8 1 11.2 1 22.4 1.3c7 1.4 13.2-1.3 20 1.7h.7c.5 1.3 6.5 6.5 6.4 11.4l.5 1.1q.9 6.9.6 13.9c-1 11.8-2.2 23.2-1.7 35q-1.4 4.4-4.7 7.7l-1 .8c-16.3 10.4-47.2 2.6-66 3-13.4-5.5-8.3-32-8-43.2.2-24.8-.8-30 26.3-33q2.3-.3 4.2-1.3Zm-104 1.9a6 6 0 0 0 2.6.8c21.9.4 29.8-3.4 33.3 22.2-1 13.8-2.6 27.2-2 41-8.5 24.5-51.2 10.2-70.5 12.5-5.4-.7-10.5-11.1-10.4-16.1-.7-14.8 2-30 1-44.8 2-21.2 31.6-15.2 46-15.6ZM64.6 260c-.3-1-2.6-.7-3.4-.7-5.5-.7-14.5.3-19.5-1.5-1.5-3.2-4-5.7-5-9.3q-.4-.6-1-.8.7-1.8.1-3.7l-.3-1q-.4-7.2.3-14.1.2-2.4.1-4.7a47 47 0 0 0 .8-13.3l.2-1 .2-.9c-.8-5-.6-8.8-.2-13.8q.6-.3.6-1.1l.1-1.2c13.5-15.8 36-8 54-8.4 12.7-.6 23.2-1.1 26 14.3 1.7 16-2.4 31.7-1 47.6C111 266 80 260 64.8 260ZM434 182.8c9.8 2.9 23.5.4 32.9 2.5q1.6.7 2.8 2 1.7 1 2.9 2.6 1.7 2.7 3.1 5.5l.2 1.3q.8 5.3 1.1 10.4l-.2 1a122 122 0 0 1-1.4 18.6q0 .9.8 1l.1 1q-.8.2-1.1.9-.5 5.2-.2 10.7l-.2 1.6c3.7 16.7-20.9 19.2-31.7 19.3q-1.5-.2-3 0a298 298 0 0 0-38.3-2.4q-1-1.6-2.6-2.8c-5.5-7.6-5.2-15.3-5.2-24.2l-.2-1.6a164 164 0 0 0 1.6-17.4c-.2-7.6-1-14.8 2.3-21.8l.5-1.2a6 6 0 0 0 2.8-2.5 63 63 0 0 1 8.9-3.6q12-.7 24-.9ZM48 223v4c.2 6.9 0 17.2 3.8 23.2 1 2.6 4 2.1 6.2 2 4.9-.2 12.8.6 17.3-.6l3.4.4q2.7.5 5.3.2l17.5.1q1.5 0 2.1-1c-.7-14.2 5.2-42.4-.2-54.6a12 12 0 0 0-3.1-3q-6.3-3-13.3-2.8l-6-.1a602 602 0 0 0-30.1.7q-.7.3-.7 1A403 403 0 0 0 48 223Zm241.4 25.3.5.8c2.2 5 10.8 2.3 15 3h35.6q1.4.2 2.3-.8c.5-11.9 4.9-48.4-2.5-56.6l-2-1.3c-11-4-26.7-2-38.3-2.3l-5 .2-4.8.3q-1.3.5-1.3 1.9c-1 16.2-4 39.1.5 54.8ZM406.8 238q0 2 .3 4 .9 4.8 3.7 8.7c2.4 2.6 17.3 1 21.2 1.5 3.4-.3 6.8.7 10-.3l17.6.4q1.5.2 2.3-.9L464 213v-6q.5-6-2.8-11.2-1.2-1.5-3-1.7c-.9-2.4-10.9-3.2-13.2-3.1l-5-.1q-15 0-30.3.7-.6 0-1 .5c-1.5 14.7-3 31.1-2 46ZM168 213v3q.8 13 .3 26-.3 2.7.2 5.2c.8 6 7.1 4.5 11.5 4.6h41.5q.8 0 1.3-.5a398 398 0 0 0 2-38.5q0-10.5-4-20.1-1.2-.9-2.8-.7h-43c-1.2.3-5-.5-5.5.9q-1.7 10-1.5 20.1Zm41 149q-.5-.7-1.4-.5c-13.3 0-33.9 4.8-45.5-2.4-9.5-6.5-3.9-23.4-6.3-33.3q-.8-8-.8-15.9c.6-26 16.4-23 36.4-23.1 12.5-1.4 42.8-6 45 12.3-1.9 16.5 5 39-1.9 53.8-7.4 12-15.4 7-25.5 9.1ZM88.2 287h3.4c7.2.4 14.2-1 20.6 3 9.5 10.7 5.2 28.3 4.8 41.3q-1.3 8.3-.1 16.4c-2.2 10.7-14.8 14.5-24.2 15.4a9 9 0 0 0-3.4 0l-1.2.3-19.4-1.4q-2.4-.4-4.8 0-.5-.7-1.4-.6-9.4-.4-18.7-.3-1.2-1-2.8-1c-1.2-.5-5-8.5-5.1-8.3q.7-1.3.4-2.8l-.2-11 .1-1 .1-3q-.8-5.4-1.3-10.9 0-.6.3-1.1-.3-2.3-.3-4.6.1-6.3 1-12.7l1-2.3c5.3-20.9 34.8-16.3 51.2-15.4Zm259.9 1q.8.8 2 1.2c13.6 11.1 2.7 43 5.6 59.2-6.7 24.1-54 11-72 12.5-5.6-1.1-9.6-13.5-9.1-18.5 0-13.2 2-26 1-39.3.8-15.4 15.6-17.4 27.9-17.1q20 1 40 1.1 2.2.1 4.6 1Zm75.2-2.1 2.3.1q19.2 1.3 38.4.8c7.2 3 11.3 7.6 12.2 15.5q.6 2.7.7 5.5a352 352 0 0 1-2 25 149 149 0 0 0 .3 15.1c-4.7 15.8-24.3 15.3-37.5 14.8a369 369 0 0 0-35-2 9 9 0 0 1-6.7-6q-.4-.8-1-1.2c.2-12-1-23.9-1.5-35.9.6-23.7 6.7-29.9 29.8-31.7ZM51.7 351.3a5 5 0 0 0 3.2 1.6c1.5 2.3 14.3 3 17.1 3q1.7.1 3.2-.2 1.8.5 3.6 0a238 238 0 0 0 24.3-1q1-7.2 1.5-14.4c.5-10.8 3.8-38.7-4.8-46.5-2.7-.9-13.5-.4-17-.6q-1 0-1.6.6-1.6.3-3.4-.2-13-.4-26.2-.3-.8-.1-1.3.5c-.7 12.6-6 48.3 1.4 57.5Zm124.1-57.7c-1.4.3-6-.3-6.7 1q-1 18.7-1.5 37.3l-.1 1c.1 5 .2 10.5 2 15.3q1.5 2.8 4.3 4.4c4 2.3 8.4 2.5 13 2.9q7.5.5 15.2.1 10.4-.3 20.7-1.2l2.4-36.4q.3-7-.3-14l-.7-2a12 12 0 0 0-9-7.9q-2.7-.2-5.1-.8-13-.4-26-.2zM302 355q1.5 0 2.8.4l20.4.3c.4 0 1.8-1 2-.3q4.3-.4 8.8-.4c1.4-.4 6.2.8 6.2-1.5-.2-14 5.6-42.6 0-54.7l-1-1.2c-3.9-3.3-9.3-4-14.2-4.7h-6l-26 .4c-1.6.5-6.7-.3-6.7 2.2l-1 30c-.3 13-2.7 28.4 14.7 29.5Zm138 0h20.5q.9 0 1.3-.8c.6-12.4 6-49-2-57.4a28 28 0 0 0-13.8-4q-3.5-.3-7-.3-8.5 0-17 .3l-13.3.4q-.7.4-.6 1.2c.5 13.1-6 49.5 3 58.9 2.5 3 24.1 1.1 28.9 1.7ZM53.7 388c13.2-.3 26.1.5 39.3 1.3 5.2.5 11.4-1.2 16.2 1a2 2 0 0 0 2 .2q-.3.8.2 1.4c6.6 5.8 6.6 13 6.8 21.2l-.1 4.7c-.9 11.1-2.3 22.4-1.4 33.5-4.5 14-20.8 14.1-33 14.5l-1.5-.1-1.2.2a83 83 0 0 0-18-1.3q-.4-.9-1.5-.7c-5.8-.3-11.8-1-17.6-.1l-4.5-5a59 59 0 0 1-3.5-7.9l.1-1.3v-.6q-.8-5.6-.3-11.3l.3-4.5q1.1-10.9.9-21.9-.2-.6-.9-.8a93 93 0 0 1 2-13q.9 0 .9-.9c3.3-4.4 6.8-6.3 12-7.8l.9-.1c.5 0 2.3.6 1.9-.6Zm182.1 51q.1 1.5-.1 2.9c1 9.1 1 13.7-7 19.2-9.6 5.6-20.3 4.3-30.8 4.8-1.6-1-4.7-.8-6.5-1l-1.3.2c-4-1.5-25.9-1.1-27.4-2.5-7.3-5.5-7.6-15.5-8-23.7v-1q1.2-9 1.7-18.1c.6-11-2.6-17.4 4.5-27q1 0 1.1-.9l1.2-.1q.6 0 .8-.6 2-.7 4-2c16.8-3.3 38 .6 55.4-.2a14 14 0 0 1 10.1 5.7c7.7 11 2.7 31.5 2.3 44.3Zm79.4 27.7a2 2 0 0 0-.8-1.2q-10.6-1.6-21.4-2c-6-.4-11 1-14.8-5-6.4-11.5-2.5-28-2.2-40.6q-.3-6.5-.3-13c2.1-23.3 39.2-17 55.3-15.6 7.9.6 16.3-2.3 21.8 5.2 9 12.4.7 40.5 2.8 55.9-1.4 10.5-13.8 14.2-22.8 14.8-5 .8-13.2-.7-17.5 1.5ZM69 457q4.5.1 9-.2 11.9.3 23.6.2 1.3.1 1.8-1l2.2-36.8c.7-13.2 0-22.5-15.6-23.4l-1.8-.2q-18.3-.5-36.6.4-.9 0-1.3.6c-1.5 11.9-6.2 52.6 3.6 59.9q7.5.6 15 .5Zm237.8-61.6a233 233 0 0 1-17 .7q-.8.5-.8 1.3c-.7 12-6.1 50.8 3.1 58.8 2.8 1.6 19.7.6 23.9.9h7l18.5-.1q1-.4 1-1.4a1113 1113 0 0 1 2.1-36.5c.1-8 1.1-19.1-8.6-22a35 35 0 0 0-8.8-1.6q-10.2-.3-20.4 0Zm-139 47.5.3 4c1 3.6 1.8 8.5 5.9 10h6q21.2.1 42.4-.1.6-.5.6-1.4l2-37.5q.2-2.6.1-5 .5-5.4-1.6-10.2-1.2-2.5-3.4-4c-4-2.5-9.4-2.9-14-3l-5-.1q-8.6 0-17 .2l-8 .1-5.5.3q-1 .3-1 1.4c-1.2 14.7-3.1 30.6-1.7 45.3Z"/><path fill="#e1dcf5" fill-opacity=".7" d="M220.8 125.9q0 1-1 1.3l-1.1-.5q.8-1 2.1-.8"/><path fill="#72727d" fill-opacity=".1" stroke="#72727d" stroke-opacity=".1" stroke-width=".5" d="m112.2 499.6-.5 1.1q-.8.3-1.4 0c0-.8 1.3-.9 1.9-1Z"/><path fill="#e0cfec" fill-opacity=".6" stroke="#e0cfec" stroke-opacity=".6" stroke-width=".5" d="m317.8 139.8.5.9q-1.2.3-2.4.2.6-1.1 2-1.2Z"/><path fill="#e1d2ed" fill-opacity=".7" d="m353.6 139.7.3 1.3h-2.2q.6-1 1.9-1.3"/><path fill="#e0d4ef" fill-opacity=".5" stroke="#e0d4ef" stroke-opacity=".5" stroke-width=".5" d="M393.6 131.6q.4 1.2-.8 1.7h-.9a2 2 0 0 1 1.7-1.8Z"/><path fill="#84848f" fill-opacity=".2" d="m35.6 243 .3 1q-1 0-2-.6.8-.4 1.7-.5"/><path fill="#e18bb8" fill-opacity=".5" d="M356.8 130q0 .8-.7.8.2-.5.7-.7"/><path fill="#ac7d99" fill-opacity=".2" stroke="#ac7d99" stroke-opacity=".2" stroke-width=".5" d="M461 149h1q-.1.9-1 .8z"/><path fill="#e173a3" fill-opacity=".7" d="M278.1 133.3q-.5.5-1.1.5.4-.6 1.1-.5"/><path fill="#d2d2e7" fill-opacity=".9" d="M350.8 254.8q0 1-1 .8z"/><path fill="#e0a2c7" fill-opacity=".3" stroke="#e0a2c7" stroke-opacity=".3" stroke-width=".5" d="m331.1 131.7.2 1-1.4.5a2 2 0 0 1 1.2-1.5Z"/><path fill="#e172a4" fill-opacity=".4" stroke="#e172a4" stroke-opacity=".4" stroke-width=".5" d="M280.2 131.8q-.4 1.1-1.5 1.3.4-1 1.5-1.3Z"/><path fill="#df7eac" fill-opacity=".9" d="m256.8 132.2-.5.5q0-.6.5-.5"/><path fill="#e2ddf8" fill-opacity=".4" stroke="#e2ddf8" stroke-opacity=".4" stroke-width=".5" d="M395.2 130.9v.8l-1.6-.1z"/><path fill="#df8bb8" fill-opacity=".6" d="M259 130.7q0 .9-.8 1.4 0-1 .9-1.4"/><path fill="#e1daf3" d="m36.8 131.3 1.4-.2v.6l-1.3-.1z"/><path fill="#df95be" fill-opacity=".6" d="M329 132.9q-.2 1-1.4 1.4.4-1.1 1.5-1.5"/><path fill="#e1b6d8" fill-opacity=".8" d="m254.3 134.4-1.3.5q.4-.8 1.3-.5"/><path fill="#e0b9dc" fill-opacity=".2" stroke="#e0b9dc" stroke-opacity=".2" stroke-width=".5" d="M277 133.8q0 1.2-1.3 1.3.3-.9 1.3-1.3Z"/><path fill="#e49fc4" fill-opacity=".2" stroke="#e49fc4" stroke-opacity=".2" stroke-width=".5" d="m398.3 129.2-1.4 1q.3-1.1 1.4-1Z"/><path fill="#e1a0c6" fill-opacity=".9" d="m252 135.2-.3.8h-.5q0-.8.7-.8"/><path fill="#e1b2d6" fill-opacity=".5" stroke="#e1b2d6" stroke-opacity=".5" stroke-width=".5" d="M275 135q-.3 1-1.3 1.1.3-1 1.3-1.1Z"/><path fill="#c5c5da" fill-opacity=".4" stroke="#c5c5da" stroke-opacity=".4" stroke-width=".5" d="m382.1 149.2 1.3-.1a2 2 0 0 1-1.8.8z"/><path fill="#e187b2" fill-opacity=".7" stroke="#e187b2" stroke-opacity=".7" stroke-width=".5" d="M43 128q0-.9.8-.6 0 .6-.7.6Z"/><path fill="#ddddf5" fill-opacity=".2" stroke="#ddddf5" stroke-opacity=".2" stroke-width=".5" d="m398.2 189.8-.5 1.2h-.3q-.2-.9.8-1.2Z"/><path fill="#e16d9e" d="m324.8 135.2-.2 1-.5-.3q.1-.5.7-.7"/><path fill="#e075a5" fill-opacity=".8" d="M45 126.1q.6-.2.9.4-.7.6-1-.4"/><path fill="#e096be" d="M222.1 125h.9q-.3.7-1 1z"/><path fill="#ddddf2" fill-opacity=".1" stroke="#ddddf2" stroke-opacity=".1" stroke-width=".5" d="m410.1 183.2-.2.5-1 .2q.3-.8 1.2-.7Z"/><path fill="#e2caea" fill-opacity=".4" stroke="#e2caea" stroke-opacity=".4" stroke-width=".5" d="m324.8 135.2 1.3-.5q-.2 1.3-1.5 1.6z"/><path fill="#e1e1f9" fill-opacity=".6" d="M222.1 125v1l-1.3-.1q.3-.9 1.3-.9"/><path fill="#de3776" fill-opacity=".4" d="M361.3 134.8q-.4 1-1.4 1.5.2-1.2 1.4-1.5"/><path fill="#e1bede" fill-opacity=".8" d="m223.1 124.2 1.2-.2a2 2 0 0 1-1.3 1z"/><path fill="#e0b8dc" fill-opacity=".3" stroke="#e0b8dc" stroke-opacity=".3" stroke-width=".5" d="m74.1 124.2 1 .6h-1z"/><path fill="#e0a1c8" fill-opacity=".8" d="M272.9 136q0 .6-.5 1.1-.2-.8.5-1.1"/><path fill="#848493" fill-opacity=".2" stroke="#848493" stroke-opacity=".2" stroke-width=".5" d="m52 388.2-.2.6-.8.1q0-.9 1-.7Z"/><path fill="#e0b9da" fill-opacity=".6" stroke="#e0b9da" stroke-opacity=".6" stroke-width=".5" d="M324.1 136q-.3.6-1.1.8.3-.7 1.1-.9Z"/><path fill="#e0e0f9" fill-opacity=".2" stroke="#e0e0f9" stroke-opacity=".2" stroke-width=".5" d="M353 506.1q.6 0 1.1-.3 0 1-1 1z"/><path fill="#d2d2e8" fill-opacity=".8" d="M161.2 392h.8q-.2 1-1.1 1z"/><path fill="#9595a2" d="M38.9 396.7q0 1-1 1 .4-.7 1-1"/><path fill="#e1e1f8" fill-opacity=".6" d="M15 405q.7 0 1.2.3-.6.6-1.4.8 0-.6.3-1.1"/><path fill="#e07dab" d="m271 137.1-.2 1-.6-.3q.2-.4.7-.7"/><path fill="#e2dbf5" fill-opacity=".4" stroke="#e2dbf5" stroke-opacity=".4" stroke-width=".5" d="M271 137.1h1.4q-.6.7-1.6 1z"/><path fill="#e0a2c9" fill-opacity=".9" d="m321.9 137-.2 1.1h-.5q0-.8.7-1"/><path fill="#dea4cc" fill-opacity=".4" stroke="#dea4cc" stroke-opacity=".4" stroke-width=".5" d="M358.3 136.9q-.5.8-1.3 1.3.2-1.1 1.3-1.3Z"/><path fill="#e0b7d9" d="m246.9 138-.4 1.3-.4-.5q0-.7.8-.7"/><path fill="#df89b5" d="m319.9 138.1-.1 1h-.6q0-.7.7-1"/><path fill="#e0dcf6" fill-opacity=".5" stroke="#e0dcf6" stroke-opacity=".5" stroke-width=".5" d="M319.9 138.1h1.3q-.3 1-1.4 1z"/><path fill="#df91ba" fill-opacity=".8" d="m356.3 137.7.7.5q-.4.5-1 .7z"/><path fill="#c4c4d9" fill-opacity=".4" stroke="#c4c4d9" stroke-opacity=".4" stroke-width=".5" d="m169.1 149.4 1.3-.4q-.6 1-1.7 1z"/><path fill="#888894" fill-opacity=".7" d="M10.2 488.7q.6.4 1.1 1.2-1.2 0-1.1-1.2"/><path fill="#bebecd" fill-opacity=".3" stroke="#bebecd" stroke-opacity=".3" stroke-width=".5" d="m407.2 149.3 1-.3q-.4 1-1.6 1z"/><path fill="#8e8e9c" fill-opacity=".2" stroke="#8e8e9c" stroke-opacity=".2" stroke-width=".5" d="m11 490.7 1.2 1.2q-1-.3-1.2-1.2Z"/><path fill="#75757e" fill-opacity=".7" d="M18.8 499.2q1-.2 1.5.8-.9 0-1.5-.8"/><path fill="#cfcfe5" fill-opacity=".6" stroke="#cfcfe5" stroke-opacity=".6" stroke-width=".5" d="m302.1 149.3 1.1-.3q-.4 1-1.5 1z"/><path fill="#a8a8b7" fill-opacity=".2" stroke="#a8a8b7" stroke-opacity=".2" stroke-width=".5" d="m327.1 149.3 1-.3q-.4.7-1.2 1z"/><path fill="#b8b8cb" fill-opacity=".3" stroke="#b8b8cb" stroke-opacity=".3" stroke-width=".5" d="m433 149.2 1.2-.2q-.5 1-1.5 1z"/><path fill="#b6a9c0" fill-opacity=".3" stroke="#b6a9c0" stroke-opacity=".3" stroke-width=".5" d="m356.1 149.4 1.1-.4q-.3 1-1.4 1z"/><path fill="#e1e1f9" stroke="#e1e1f9" stroke-width=".5" d="m72.1 123.7 2 .4v.7c-4 4.4-16.8 11.6-21 16.1q-5.6.3-11 0c.7-.5 26.7-15.6 30-17.2Zm5 17.3h-7Q83 133.2 96 125.6c1.6-.6 3-2.2 4.8-1.3l-23.1 15.8q-.6.3-.6.8Zm70.9 0a60 60 0 0 1-8-.1l28.1-16.4q.6-.3 1 .1-.2 1.2-1.1 2c-4 3-17.6 11.5-20 14.4Zm24-.1q-3.4.3-7 0c.6-1 25.5-15 28.7-16.7q.8-.1 1.2.3-11.3 8.3-23 16.4Zm258.8-16.7 2.5-.4c-5.1 5.7-16 12-20.5 17.1-2.8 0-7.4.6-10-.2l.4-1q.3-.5.8-.6 1.5 0 3.1-.5l16.2-9.3q.6-.4.3-1 3-.6 5.4-2.3l1.4-.8q.4-.4.4-1Zm11.3 16.8-12-.1c.4-.8 24.9-14.6 27.9-16.4.7-.3 2.2-1 2.8-.2-4.4 4.2-15.4 12.8-18.7 16.7ZM122 124.6q.4.8 1.3 1.4c-1.8 2.2-20.4 14-20.3 15h-8c0-1.3 24.2-14.2 27-16.4Zm96.7 2.1 1 .5a2 2 0 0 1-.8 1c-2.2 1.6-16.4 11.5-16.9 12.7q-3.8.3-7.4.1 12-7 24-14.3ZM298 141h-5q9.3-5.8 18.9-11.3.9-.6 1.8-.3-.7 1.2-1.8 2-7.2 4.4-14 9.6Zm-261.3-9.7v.3q0 1-.9 1.6c-1.7 1.4-10.2 6.4-10.9 7.8h-4q.4-.9 1-1.4 7.6-4 14.8-8.4Zm352 3.4 1 .4q-.1.8-.8 1.2-3 2.1-5.9 4.6a13 13 0 0 1-4.2-.2l.2-.5q5-2.4 9.8-5.5Zm-336 14.5-.1 1.1c-1-.5 0 .9 0 0 .7-.2 2.3-.2 2.3-1.2h62.3a16 16 0 0 1-4.3 3.5 2 2 0 0 0-.8 1.2q-2.3 0-3.2 2.2c-1.8-.1-3.8 1.4-4.9 2.7.8 1.4 4.4-1.6 4.9-2.7q2.3 0 3.2-2.2a5 5 0 0 0 2.5-.5l5.7-3.4q.3-.3.2-.8h22.7l-11.8 7.9q-1.5.8-1.9 2.4-1.2-.8-1.6.4l-1.2.4a3 3 0 0 0-1.7 1.9q-2.3-.2-3.1 1.9a2 2 0 0 0-2 .7c.6 1 2 .1 2-.8q2.1 0 3-1.8 1.5.2 2-1l1.3-.2q1-.6 1.3-1.6 2-.3 3.4-1.3c1.9-1.6 14-7 14-8.9q11 0 22.1.3l-.4.7c-15.8 10.5-32 21.2-47.2 32.2-.8.4-2.4.1-2.3 1.5-1 .4-3 .6-3.2 1.8 1.2 1 2.7-.9 3.2-1.8l1.9-.1 8.3-5.6q2.3-.8 4.2-2 22.3-12.7 44.5-25.7.6-.4.7-1.3l22.5-.1-43.4 28.6a3 3 0 0 1-2.3 1.6q-4.4 2.6-8.6 5.5-.7.4-1 1.2-2.1.2-3 2-1.2 0-1.9.8c.6 1 1.9.1 2-.7q2.1 0 2.9-2.1 1 .1 2-.3 4.7-2.5 9-5.2.6-.7 1.4-1.2 25.2-14 50-28.5 1-.5 1.4-1.5 21.7.2 43.6-.2l-49.8 32.2q-1 .6-1.4 1.8c-14.3.4-44-5.6-46 15.6 1 14.9-1.6 30-.9 44.7-.1 5.1 5 15.5 10.4 16.1 19.3-2.2 62 12 70.5-12.3-.6-14 1-27.3 2-41.1q1.2 0 1.9-.8.9-.5 1-1.5c1-1.9 5.1-3 6.9-4.7.6 2.4 3.8-.7 5-1q.8-.3 1.3-.7 1.7-1.4 3.8-2.3.7-.2 1.2-.7l.8-.6 1.3-.6a40 40 0 0 1 5-2.8l.7-.5q.8-.2 1.2-.9l5-2.6.8-.6q.6-.2 1.1-.6l5.1-2.8 5-3 .7-.6q.8-.3 1.3-.7l5-2.7.7-.5q.8 0 1.3-.7l3.7-2 1.3-.8.7-.6q.8-.1 1.3-.7l3-1.7.7-.2 1.3-.8a51 51 0 0 1 7-4 40 40 0 0 1 5-3l.8-.6q.6-.1 1.2-.7l5-2.7.7-.5 1.4-.7 1.7-1 1.2-.8.7-.6q.8-.1 1.3-.7c1.1-.5 4-1.3 3.5-3q10.2 0 20.3.4l-.3.6q-1 0-1.8.6l-47.3 29.6q-.5.3-.4.9-2 1-4.2 1.4c-27.1 2.9-26.1 8.1-26.4 32.9-.2 11.2-5.3 37.7 8 43.2 19-.4 49.8 7.4 66-3q1.2.3 1.1-.8c2 .4 18-10 21-11.7q.3.8 1.2.9l21-12.2c0 9-.3 16.6 5.2 24.2q-1 .2-1.9.7l-47.7 29.5q-1.2.6-1.5 1.7a18 18 0 0 0-4.7-.9q-20 0-39.9-1.1c-12.3-.3-27.1 1.7-27.8 17 .9 13.4-1.2 26.2-1.1 39.4-.5 5 3.4 17.4 9 18.5 18.1-1.5 65.4 11.6 72.1-12.5-2.9-16.1 8-48-5.7-59.2q1-.2 2-.8 24.3-14.1 48.7-28 .9-.5 1.2-1.5 19.1 0 38.2 2.5l-14.1 8.4a2 2 0 0 0-1 1.2q-3 .8-5 3c-1.7.3-4.3 1.4-5 3-1.5 0-4.5 1.7-5 3.1q-1.5-.2-2 1l-2 .6q-2.2 1.5.3 1.3 1.2-.5 1.7-2 1.4.4 2-.9c1.7.1 4.1-1.6 5-3 1.5.3 4.6-1.7 5-3 1.7.1 4.5-1.4 5-3q1 0 2-.3l16-9.5c11 0 35.5-2.6 31.8-19.3 2.6.6 17.7-9.2 21-11.1l1.2.2.3 10q-1.2 0-2.3.4a6325 6325 0 0 0-63.2 39l-5.2 2.8-3.3 2.6c-23.1 1.8-29.1 8-29.8 31.7.5 12 1.7 23.8 1.5 35.8q-.9 0-1.6.5l-13.8 9.1q-2 .8-4 2a3 3 0 0 0-1.8 2.3q-1-.4-2 0c-1.3 1.4-7.4 4-7.8 5.8-1.9 0-4.2 1.3-5 3q-1.5 0-2 1-2.1.3-3 2-1.2-.2-1.9.7c.6 1 2 .1 1.8-.8q2.3.2 3-1.9c.7 0 2.1 0 2-1 1.7-.1 4.4-1.5 5.1-3q1 0 2-.6c1.7-1.2 7.2-3.3 7.8-5.2q1.8-.2 3.2-1.2l16.7-9.6q1.2-.7 2.3-1.7a9 9 0 0 0 6.7 6q17.6 0 35 2c13.2.4 32.8.9 37.5-14.9Q485.7 342 496 336h1q.4 5 .1 10.3c-3.2.5-35.7 22.6-41.7 25.6q-1.4 1.3-3 2-.3.4-.3 1-1.2-.1-2.2.4-3.3 2.4-7 4.4-.6.5-1 1.3a3 3 0 0 0-3 2q-1.2-.2-2 1-1.8 0-2.8 1.6c1 1 2.6-.7 2.8-1.7q1.5.5 2-1a3 3 0 0 0 3-1.9c2.5.3 6.7-3.6 9.1-4.5q1-.5 1-1.6c1.7.6 3.5-1.3 5-2q20.1-11.4 40.1-23.3l.1 11.5c-2.5-.2-39 24.1-44.3 27.5-1.4 2-8.7 4.3-8.7 6.6l-1.2-.2c-1.3 1.2-6.8 3.5-7 5q-2.1 0-3 2-1.4-.2-2 1c-1 .2-2.7.5-3 1.6 1 1.4 2.3-.9 3-1.5q1.5 0 2-1 2.1-.3 3-2.1c2 .2 5.5-2.5 7-3.8l1.2-.5q26-14.7 51.8-29.7h.9q.6 5.1-.1 10.2-5.6 3-10.8 6.4-.7.4-.9 1.3a8 8 0 0 0-5.2 3.2 3 3 0 0 0-3 1.9q-1.2-.3-2 .6c.6 1 2.2.4 2-.6q2.1-.2 3-2c1.8-.1 4.5-1.4 5.2-3.1q1 .1 1.9-.4 5-3 10-5.6l.3 11.1q-1.2 0-2.3.6-23.7 15.9-47.5 31.5c-1.5 1.7-1.1 1.8-3.7 2.3q-.7.5-.6 1.5c-2 0-4 1.3-5.1 2.8.7 1.1 4.6-1.7 5-2.8l2-.4 50.8-29.7 1 .2q.4 5.4.3 11-1.2 0-2.2.7c-16.8 12.1-35.1 24-51.4 36.5l-5.3 3.2c1.5 1.5 2.8-.9 4-1.6q27-15.2 53.7-30.8h.8q.5 11.5.5 23.1-1.4-.5-2.4.3l-32.6 25q.9.4 1.7 0l33.2-19.5V456q-1.2 0-2.2.6l-16.7 13.7c1.6 1.4 3.2-1.3 4.7-1.8l14.2-8c1.4 11-.6 20.6-6.5 29.7q-1.7-.5-1.5 1.4l-1 .4q-1.9-.4-3.3.8l-1.1.6-5.5 3.4q-.6.7-.5 1.8l-1.9.5q-1.2-.5-1.7.6c-6.7 2-13.3 2.1-20.2 2.4 0-1.5 10-9.5 11.5-11.2q2-1.6 3.4-3.7-.5-.4-1.1 0l-3.5 2-18 10.4a2 2 0 0 0-1.2 1.5q-8.6-.3-17.3-.1 0-.6.6-1c5-3.8 23.4-18.5 26.4-22 1-.5 3.8-1.3 4-2.6-1-1.3-3.6 1.7-4 2.7-3.6.4-32.1 18.2-37.9 21q-1.2.6-1.6 1.8l-17.6.1c.3-1.2 40.8-31 45.1-35 1-1 1-1 0 0q-3 1.2-5.7 2.7l-53.5 30.8q-.6.7-.5 1.7l-18-.4q-.5-1.3-1.1 0-8.5.3-17 0l.2-.9 60.8-42.7q.6-.4.8-1.2l1.3-.1q1.3-.6 1.9-2c.6-.2 3.6-.9 2.5-2q-2.1 0-2.5 2-1.4-.4-2 .8l-1.3.5-76.8 44.2a2 2 0 0 0-1 1.7q-8.4 0-17-.4l.5-.8a4955 4955 0 0 1 56.6-38c1.8-1.2 4-2.1 5-4 1.5 0 4.6-1.6 4.9-3.1q1.2 0 2.2-.3 2-1.6-.5-1.3-1 .5-1.7 1.6c-1.7 0-4.3 1.5-4.9 3.2a8 8 0 0 0-5 2.5q-1.5.5-3 1.5l-65 37.5q-.9.4-.7 1.5-9.3 0-18.5-.3L298 492q1.2-.6 2-1.7l1-.3q3-2 6-3.7.7-.5 1-1.4 2 0 3-1.8 1.5 0 2-1 2.1-.4 3-2c.6.1 2.7-.5 1.6-1.2q-1.2 0-1.5 1.2-2.3-.1-3 2-1.5-.4-2 1-2 0-3.1 1.8a15 15 0 0 0-7 4l-1.3.3q-1.6.9-2.7 2-3 .7-5 2.8-5.2 2.5-10.2 5.5-.8.3-.5 1.1-9 .6-18.3.6 0-.8.6-1.1 26-16.4 51.7-33.3c4.3-2.2 12.6-.7 17.5-1.5 9-.6 21.4-4.3 22.8-14.8-2.1-15.4 6.3-43.5-2.8-55.9-5.5-7.5-13.9-4.6-21.8-5.1-16.1-1.4-53.2-7.8-55.3 15.5q0 6.5.3 13l-3.9 2q-.6-1.6-2.1-.7l-34.2 19.8c.4-12.8 5.4-33.3-2.2-44.3a14 14 0 0 0-10.2-5.6c-17.5.7-38.6-3.2-55.5.2l-1.3-.4 3.3-2.2 1.5-.7 1.7-1 1.2-.8.7-.6q.8-.2 1.3-.7l4.8-2.9 1.2-.8.6-.5q.8-.2 1.4-.7l1.8-1 1.2-.8q1.8-1.4 4-2.3l1-1 1.8-1q.7-.2 1.2-.7l.8-.4q.7-.3 1.1-.8l1.9-1 1.2-.8 3.6-2.7q.8 0 1.4-.5.8-.7 2-1.2 1.3-.5 1.6-1.9c10.1-2.1 18 3 25.5-9 7-15 0-37.4 1.8-53.9-2.1-18.2-32.4-13.7-44.9-12.3-20 .2-35.8-3-36.4 23.1-3 2-7.5 4.5-10.8 6.4q-1.5-.3-2.8.5-3.6 2.5-7.7 4.4l-1.5 1.5a66 66 0 0 0-15.1 8.5c.4-13 4.7-30.6-4.8-41.3q2.1 0 2.7-2 2.2.2 3.2-1.9 1.5.3 1.8-1a3 3 0 0 0 3-2q1.6.4 2-1.1c2 .3 3.8-1.5 5.1-2.6-1-1.4-4.2 1.7-5 2.6q-1.6-.2-2 1.2-2.1.2-3 2-1.5-.5-1.9 1-2 .2-3.2 1.8c-1.1.1-3.2.4-2.7 2-6.4-4-13.4-2.6-20.6-3a694 694 0 0 1 25.4-16q1.3-.6 2-1.7l1.2-.3q4-2.1 7.8-4.6.7-.6 1-1.4 2.1.2 3-1.8 1.3 0 2-1 2.1-.4 3-2.2 1.1.3 1.9-.7c-.6-.8-1.6.2-2 .7q-2.1.2-3 2.1-1.3-.2-2 1a3 3 0 0 0-3 1.9l-1.3.1-7 4.1q-.6.3-.7.8l-1.2.2-1.7 1.6q-1.6.4-3 1.3-11.6 6.8-23.1 13.3-1 1.3-2.5 1.7-.5.3-.2.9c-16.4-1-45.9-5.5-51.2 15.4-6.2 2-15.7 9-22.2 12v-22.4q1.2.4 2.3-.2L64 261.4q.6-.6.7-1.4c15.2 0 46.2 6 52-13.6-1.4-16 2.7-31.5 1-47.6-2.8-15.4-13.3-15-26-14.2-18 .2-40.5-7.5-54 8.3q-.9.6 0 1.2 0 .8-.7 1.1l-2 .8c.2-1.4-1.4-1.1-2-.6l-17 9.9-1-.2q-.5-18-.3-36 1.2.2 2.3-.6 5.6-4.5 10.8-9.3.8-.1.5-.9a1 1 0 0 0-.5 1h-1.3l-11.6 7-.2-15.9q0-.9.8-1.3zm334.9-.1 19.5.2-.6.7-53.6 32.7c-.5 1.2-3.1 1.4-2.7 2.6q-.9-.3-1.2.5c-7-3-13-.4-20-1.8a54 54 0 0 1 9.9-6q23.8-13.9 47.8-27.6.9-.3.9-1.3Zm26 0H433l-.4.9q-2 .8-3.7 2a51 51 0 0 0-6.3 3.9l-1.8 1-1.2.8-5 3a15 15 0 0 0-3.5 2.6q-.8 0-1.5.7l-1.8 1-1.2.7-5 3-5 3-3.6 2.5-1.4.8a101 101 0 0 0-12 7.1l-1 .8-3 1.8-.9.5-1 .8-1.9 1-1.2.7-5 3q-1.9 1-3.5 2.6l-1.5.6-1.8 1-1.2.8-1.6 1.4c0-4.9-5.9-10-6.4-11.3l1.3.2 61.7-35.6q1-.4 1-1.3Zm28 0H461v.7q-1.2.1-2.2.7l-57.6 35.2a3 3 0 0 0-1.3 1.5q-1-.2-1.7.4a708 708 0 0 1-24.4 14.9q-.9.7-1.2 1.6c-1.5-.6-10.6 5.4-11.7 6.7q-1 .4-.9 1.4-1.4 1.3-2.9-.1a93 93 0 0 0-.6-13.9l1.4-.1 1.3-.8.8-.6q.8 0 1.3-.6l5-2.8.6-.6q.9 0 1.4-.6a40 40 0 0 1 5-2.8l5-3 .7-.5q.7-.2 1.2-.7l5-2.8.7-.7q.9 0 1.4-.5l5-2.8.6-.6q.8-.2 1.4-.7l4.9-2.7 5-3 .7-.5q.8-.2 1.3-.7l5-2.8.6-.5q.9-.2 1.5-.8l5-2.7 6.9-4 5-3 .8-.6q.8 0 1.2-.7l5-2.7.6-.6q.8-.1 1.4-.7c.7-.3 2.6-.9 2.4-2Zm26.2 0h19.4q-.4.9-1.4.9-1.9 1.5-4 2.4-.9.4-.7 1.3c-1.8.4-5 1.5-5.5 3.5-1.8-.8-4.3 1.5-5.6 2.5-2 0-6.6 3.5-8 5q-.7 0-1.3.3-6.5 4.2-13.3 8-.3.5-.3 1.1c-2.7 2.6-11.5 6.3-13.2 8.7q-12 0-24.1.9l.2-.5q28.7-16 57-32.6 1-.5.8-1.5Zm-245.8 6q-2.2-.1-3 1.8a2 2 0 0 0-2.1.8c.7 1 1.8 0 2-.8q2-.3 3.1-1.8c1 0 5.8-2 4.5-3.2-1.5.3-4 1.5-4.5 3.2Zm273.8 17.6 1 .2q.4 5 .4 10-1.3.1-2.4.7l-19.2 11.8-3.1-5.5q-1.2-1.6-2.9-2.6c7.2-2.6 19-10.4 26.1-14.6Zm1.3 12.3.1 11c-2.6-.4-16 9.5-19.4 11h-.9l-1-10.3q.8 0 1.7-.5 9.7-6 19.5-11.2Zm-477.4 6.3c.6-.2 4.3-1.2 2.8-2.3a3 3 0 0 0-2.8 2.3Zm36.2-.1 8-.2q-4.4 3.6-9.6 5.8-.4-.5-.3-1.1 1.1-2.2 2-4.5Zm25-.4 6 .1q-1.4 1.5-3.3 2.4a51 51 0 0 1-7.1 3.7c-1.8-1.2 4.4-4.3 4.4-6.2Zm214 .5 5-.2q-.2.8.5.9a4 4 0 0 1 2.4.6l-7.9 4.7q-1.4 1-2.9 1zm145-.5 5 .2q-1.4 1.3-3.3 2.4a60 60 0 0 1-7 3.7q-.5-1 .3-1.7zM175 192h10q0 1-.9 1.4-5.2 3.4-10.8 6.5-.6.2-1-.4 1.6-3.7 2.7-7.5Zm29 0h14c-3.1 3.7-21.8 13-27 16.6-1.4.8-2.7 0-1.2-1.3q7.3-7.4 14.2-15.3Zm208.1 4.8c.2-3.4 6.9-5.9 8.6-4.3-1.8 1-6.5 4.6-8.6 4.4Zm-311.8-3a12 12 0 0 1 3 2.9 82 82 0 0 1-16.7 10.2q-.6-.8.3-1.5 7-5.5 13.4-11.6Zm238-.4 2 1.3c-.5 2.3-6 4.7-8 6q-2.1.1-.5-1.4c1.9-1.6 5.7-3.4 6.4-5.9Zm119.8.7q2 .3 3.1 1.7-.5 1.5-1.6 2.2-6.4 4-13 7-.5-.8.4-1.5c2.1-1.7 10.5-7.5 11.1-9.4ZM270 203l-2 .6q-2 1.6.5 1.2 1.1-.6 1.5-1.8 1.2.3 2-.6c-.6-.9-1.7 0-2 .6Zm227.2 1.9a55 55 0 0 1-.3 10.3l-2.9 1.3-15.5 9.4q-1.4.7-2.2 1.8-1 0-.8-1 .5-5.9 1.2-11.6 1.4.7 2.7-.2 8.8-5.2 17.8-10Zm-33 2.2v6l-2 .6q-6.7 3.8-13.6 7.4-.5-.9.4-1.6 7.4-6.3 15.2-12.4Zm-296 9v-3q2.7-2 5.9-3.7 2.5-1 1.2 1.4c-2 1.2-4.6 6.1-7.2 5.3Zm-132-4.9.7-.2a47 47 0 0 1-.8 13.3A571 571 0 0 0 14.7 236q0-5.7.3-11.3c2.4-.5 17.6-11.7 21.1-13.7Zm460.8 5.7q.5 5.3.2 10.5c-3.8 1.3-17.6 10.4-22.1 13q-.3-5.4.2-10.7.3-.8 1.1-.9zM48 227v-4c2.1-.1 5.7-3 7.8-3.8q.8-.4 1.2.2c-1.3 2.5-6.6 6-9 7.6Zm73-3q-1 0-2 .6-2.1 1.4.4 1.2 1.2-.6 1.6-1.9 1.2.3 2-.6c-.6-1-1.7 0-2 .6Zm286.2 18-.3-4q8.1-4.5 16.1-9.4c1.6-1.1 2.8 0 1.3 1-5 3.4-9.8 8-14.4 11.8a3 3 0 0 1-2.7.6ZM35.9 229q-.6 7-.3 14-.9 0-1.6.5-9.4 5.7-19.2 11V243c2.9-.4 18.4-11.3 21.1-14.1Zm132.5 18.3q-.4-2.5 0-5.2l15-8q.6.5.1 1c-4.5 4-10 8.8-15 12.2Zm26.6 4.6h-15l26-15.2c.6-.2 1.3-1 1.8-.1zm125 .3h-15q.1-1 1.1-1.5 11.5-6.5 22.9-13.2 1-.6 1.9 0-5.2 7.5-11 14.7Zm-262 0c-2.2.2-5.2.7-6.2-1.9 1.2-.3 2.5-1.4 3.7-.5.3-2 2.2-1.8 3.5-2.3 2.3-3 5.6-4.5 8.7-6.2q.8-.5 1.2.3c-.5 2.4-10.9 8-11 10.7Zm232-3-.6-.8c.6-3.2 5.4-4 7.5-6 1.6-1.2 2.5.4 1.2 1.1l-6.4 5q-.7.6-1.8.7Zm207.2-4.4q0 10.6-.5 21.3c-1.3 1-10.5 6-10.7 6.8-3.3.4-5 1.6-6.1 4.6q-8 4.4-16 9.3-19 .4-38.3-.8 3.3-2.4 7.2-4.2 2-1 3.7-2.6 30.4-17 60.7-34.4ZM86 247l1.3-.8c1 1.8-2.7 4.3-3.3 6q-2.7 0-5.3-.3l1.5-1.4q2.8-1.9 5.8-3.5Zm408 9.9q-1.4-.2-2 1-3 .6-5 3c-.7.2-6 2-4.6 3.1 1.3-.2 4-1.9 4.6-3.2 1.7.4 4.2-1.6 5-2.9q1.5.3 2-1 1.8 0 2.2-1.5c-1-.6-2 .7-2.2 1.5Zm-452.2.8c5 1.8 14 .8 19.5 1.4q-2 1.1-4.3 1.3L14.7 285c.2-3.6-.3-8 .5-11.4q1.5-.2 2.9-1 4.5-3 9-5.6l12-7.8q1.6-.4 2.7-1.5Zm303 1.1q.3 1.2 1 .5-.1-.6-1-.5Zm-2 2.2c.5 0 1.6-.4.7-1q-.7.2-.7 1ZM81.9 276c-1.7-.3-3.9 1.5-5 2.8q-3 .7-5 3c-1.2 0-4.4 1.6-4.8 2.7 1 1.5 4.4-1.5 4.9-2.7 1.6.2 4.5-1.4 5-3q3-.3 5-2.8c.5 0 2.7-.5 1.5-1.2q-1.2 0-1.6 1.2Zm102 17 .8.7q1.6 0 3 .7-7 4.3-14.4 8.3-.8.3-1-.4a8 8 0 0 1 3.7-5q-1.8-1.8-.2-3.8zm26 .2q2.5.5 5.1.8.3 1.5-1 2.3l-21 12.2q-2.5 1.3-1.2-1.1c3-2.6 11.3-11.5 13.9-13q2.1-.4 4.2-1.1Zm85.2.1 5.9-.3q0 .8.7 1.4-3.6 2.7-7.7 4.9c-.4 0-1.3 1-1.5.2q1.5-3 2.6-6.2Zm26-.5 6 .1q0 1-.8 1.8l-14 8.3q-1 0-.8-1.2 5-4.2 9.5-9Zm94 .2 7-.2c-.5 1.4-8 6-9.5 6l-.2-.3a42 42 0 0 1 2.6-5.5Zm24-.5 7 .3c-.6 1.5-10.2 6.5-12.1 7.6-1.5 1-2.7.2-1.2-1.2 1.4-1.5 6-4.8 6.2-6.7Zm58 4v21.7c-2-.2-18.9 11.4-22 13q1.3-11.9 1.8-23.6c1.9.3 17.4-9.4 20.2-11Zm-155.9 1.1 1 1.2c-1.5 1.8-6 3.6-8 5-1.4.5-1.3-.9-.3-1.5 2.1-1.3 4.8-4.8 7.4-4.7Zm-323.6 4.7c.6-.1 3-.6 1.8-1.5q-1.4 0-1.8 1.5Zm206.5-.5.7 2.1q-.8 1.4-2 2.5l-10.2 5.4q-.5-.8.4-1.5 5.4-4.5 11.1-8.5ZM390 306q-1.3-.1-1.9 1a9 9 0 0 0-5 2.7c.8 1.2 4.5-1.6 5-2.7q1.4.3 2-1 1 0 2.1-.6 2.3-1.5-.4-1.2-1.2.6-1.8 1.8Zm-354-1.4a105 105 0 0 0-1 12.7c-1.7-.5-17.4 9.4-20 11l-.3-11.4c2.6.7 18.2-10.2 21.3-12.3Zm97 2.4q-2.2-.3-3 1.9-1.4 0-2.1 1a8 8 0 0 0-4.9 2.8c.6 1.3 4.6-1.6 4.9-2.7q1.6.3 2.1-1.1 2-.2 3-2 1.2.3 1.8-.6c-.5-.9-1.6 0-1.7.7Zm92 11-.2 5q-6.9 4.3-14.2 8-.4-.9.3-1.6c2.3-2 12-11.4 14.2-11.4Zm270.9 3.6 1.1.4.2 10.3c-2.4-.4-19 11-22.2 13q-.4-6.3-.1-12.6 1 .4 2.2 0zM34 323h.9l1.3 11c-2.7-.5-18 9.4-21.4 11.3l-.1-11.4c2.4.9 16-9.5 19.3-10.9Zm121.6 2.8c2.5 9.9-3.2 26.8 6.3 33.3-2 4.4-15.5 10.4-19.7 13.7q-.5-.8-1.5-1-4.8 3.2-10 6a451 451 0 0 1-21.6 12.6c-4.8-2.2-11-.5-16.2-1-13.2-.8-26.1-1.6-39.3-1.2q.1-.8.8-1.1L92 364.3q.6-.4.7-1.3c9.4-1 22-4.7 24.2-15.4q1.1.6 2.3.2 4.3-2.2 8.2-4.7l8.7-6q.9-.3 1-1.2c5.4-2.7 12.7-9.1 18.6-10Zm11.8 7 .1-.9c2.4.2 5.9-3 8.1-3.8q.8-.3 1.2.3c-1 2.2-6.2 5.6-8.4 7.2-1-.2-.6-2-1-2.8Zm6.3 19.8q-2.8-1.5-4.3-4.4.3-1.6 1.8-2.5l19.6-11.5q1.6-1 1.6.8-9 7.5-17.6 15.4-1 1-1.1 2.2Zm-139-14.8 1.3.1q.2 5.6.1 11c-3.5.6-16.1 9-20.3 11H15a67 67 0 0 1-.2-10.1c2.2 0 17-10.1 20-12ZM202 355.6q-7.7.4-15.2-.1c1.1-1.7 4.3-3.1 6-4.3q9.8-6 19.8-11 .6.9-.2 1.8-5.1 7-10.4 13.6Zm-120-3.2c-1.4-1-1.7.5-3 .5l-2 1-1.3.8q-.6.4-.5 1-1.5.3-3.2.3-1.3-.9-2.8-1.5 9.9-6 20.2-11.5.3.9-.4 1.6-3.6 3.7-7 7.8Zm222.8 3.1-2.8-.4q0-.6.5-1l17.1-10.2c3 .5-1.5 2.7-2 3.3q-3.6 3.8-7.4 7.5a23 23 0 0 1-5.4.8Zm145.2-.4h-10q0-.6.6-1l12.9-7q.6.5.2 1.2c-.8 1.9-3.8 4.7-3.7 6.8Zm-114 0q-4.5 0-8.8.4-.2-.9.4-1.4 5.3-2.7 10.3-6c2.9 0-1.7 6-2 7Zm-300.1-3.4c.2-.2 3.9 7.8 5.1 8.3-8.1 4.5-18.2 10-25.7 15.1a100 100 0 0 1-.6-11.2c2.8.2 17.9-10.1 21.2-12.2Zm7.9 9.3q9.3-.1 18.7.3 1 0 1.4.6l-1.8.7-46.3 26.7v-11.4q1.2.4 2.3 0l25-15.4q.7-.6.7-1.5Zm25 1 19.3 1.3-.3.7a5272 5272 0 0 0-71.6 41.3l-1.1-.3q-.1-5.1.1-10.2c4 0 45.6-27.1 52.6-31.4q.9-.5 1-1.5Zm369.2 7q-1.5-.4-2 1-2.1.2-3 2-1.1-.3-2 .7c.7.9 2 .2 2-.7q2.3 0 3-2 1.4.4 2-1c1 0 5.8-1.8 4.6-3.1-1.2 0-4.5 1.8-4.6 3.2ZM79 385q-1.3-.3-2 .6c.5 1 2 .4 2-.6 1.2-.4 4.2-1.5 4.8-2.6-.8-1.6-4.1 1.9-4.9 2.6Zm9.2 10.6 1.8.3c-1.3 2.4-16.7 10.2-20 12.4-1.5 1-2.8.3-1.3-1.2 2.1-1.9 9.6-11.2 12-11.2zm87.8.4h8q-.2.9-1 1.4-4.7 3-9.5 5.3-.7-.7-.1-1.7 1-2.6 2.6-5Zm25-.3h5q-.3 1.2-1.3 1.6a46 46 0 0 1-7 3.8c-1.5-1.6 3.6-3 3.3-5.4Zm94 .3q6 0 11.8-.5 0 1.2-1 1.7-6.6 3.9-13.3 7.5-.7-.7-.4-1.8 1.7-3.3 3-7Zm32.2-.4q4.5.2 8.8 1.5l-26 15.6c-1.1 1-2.3-.3-1-1.3 3.9-2.7 14-15.7 18.2-15.8Zm-289.2 2a93 93 0 0 0-2 13q-1.2 1.2-3 1.8-1-.6-2-.2-7.2 4.6-14.5 8.6l-3 1.1.8-11c3.4-.2 19-11.5 23.7-13.3Zm182.1 1.2a10 10 0 0 1 3.4 4c-4 .9-12.5 6.6-16.4 9-.8.7-2.2.3-1.6-.8q7.5-6 14.6-12.2ZM92 422.1c0-2.2 9.6-8.4 11.4-10.4q.8-1 1.6-.1.4 2.1-.7 4c-2.3 1.4-10 6.4-12.3 6.5Zm133.2-9.1v5c-3.2.7-9.6 5-12.8 6.8q-.7.2-1.2-.3a3 3 0 0 1 1.3-1.6q6.2-5.2 12.7-10Zm62.8 7c-.2-3.8 8.4-9 7.5-5.9-.2-.4-8.4 9-7.5 6Zm-119.8 27-.2-4c2.4 0 12-6.3 14.8-7.9q.7-.2 1 .4-6 5.5-12.7 10.9-1.3.6-2.9.5Zm-132.4-9.2q-.6 5.7.3 11.3c-1.8-.5-4.3 1.7-5.5 2.7a242 242 0 0 0-16.8 9.4 33 33 0 0 1-.7-10.4c2.7 0 18.8-11.4 22.7-13Zm119 1.2c.4 8.2.8 18.2 8 23.7 1.5 1.4 23.4 1 27.4 2.5l-.3.8q-1 .2-1.8.6l-55.2 31.8c-.9.8-2.9 1.2-2.5 2.7q-9.3.1-18.6-.4l.5-1q.9.6 1.8-.1a7 7 0 0 0 3-2.6q3-.5 5-3a17 17 0 0 0 7-4c.7-.1 4-1 2.6-2q-2.2 0-2.5 2c-1.4-.3-6.6 2.7-7.1 4a7 7 0 0 0-5 3q-3 .3-4.8 2.6c-.6.2-2 .3-1.9 1.2q-18.7.1-37.6-.1l.5-1q2.1.3 2.7-1.7a7 7 0 0 0 5-3c1.8-.1 4.5-1.3 5-3a2 2 0 0 0 2.2-1q2-.2 2.8-2a2 2 0 0 0 2.1-.9c1.3-.4 4.5-1.7 5-3.1 1.8 0 3.9-1.5 5-2.7-.9-1.2-4.6 1.6-5 2.7-1.6-.4-2.4 1.4-4 1.7q-.7.5-1 1.4-1.5-.4-2 1-2.2 0-3 2-1.3-.3-2 .8c-1.7.3-4.3 1.5-5 3-1.9.2-4.2 1.4-5 3.1-1.1-.1-3.3.2-2.8 1.7q-1.4 0-2 1.1-8.7.3-17.5.2.8-1.4 2.3-2l1.3-.7q1.8-1 3.5-2.6.8 0 1.4-.7l1.9-1q.6-.2 1.2-.7l.6-.6q.8-.2 1.4-.6l3-1.8 2-1.3 1.8-1 1.2-.7 5-3q2-1.2 3.6-2.6.8-.2 1.3-.7l1.9-1 1.2-.7.8-.5 1.2-.7 1.8-1 1.2-.8 5-3 3.6-2.5 1.4-.8 1.8-1q.6-.2 1.2-.7l.8-.5 1.2-.7 3-1.8a34 34 0 0 1 5-3 20 20 0 0 1 3.7-2.3l1.2-.8 3.8-2.5q.7-.2 1.3-.6.7-.7 1.8-1l1.2-.8.8-.6q.7-.1 1.2-.6.7-.7 1.8-1 5.1-3 9.9-6.4 6-3.2 11.8-6.7Zm-76.6 17.9q-4.5.3-9.1.2 0-.9 1-1.5l14-8.2q.9-.6 1.8 0a62 62 0 0 1-5.4 6.3c-.6 1.1-3.3 1.6-2.3 3.2Zm101.9.1h-6q0-.6.5-.9l12.2-7q1.2-.3.9 1c-1.4 1.2-7.5 5.2-7.6 7Zm143 .1h-7q0-.6.6-1c1.6-1 9.8-6 10.8-6 1.4 1.2-4.7 4.7-4.4 7Zm-288-6h1q1.3 3.9 3.4 7.8l-22.4 13-1 .2c-1.2-1-2-7.4-2.2-9.1 3.7-.5 16.5-10 21.2-12Zm46 15-.3.8-49.6 28.5c-1.4-.8-7.3-4.8-6.8-6.6q.5.1.9-.1l15-9q6.8-4.3 14-8.4.7-.5.7-1.5l8.2-5.1c5.7-.2 12.4.1 18 1.3Zm212-2.5q10.8.4 21.4 2l-2.4.8q-28.5 16.7-57.1 33-1 .7-.8 1.9l-17.1-.5.3-.8 48.7-31c2.1-1.7 6.7-2.2 7-5.3ZM128 479c-1.3-.5-4.6 2.2-6 2.8q-.7.4-1 1.2a8 8 0 0 0-5.1 3c-2-.1-4.6 2.3-6.5 3q-3.8 2.2-7.4 4.8l-1.2.5a70 70 0 0 0-7.7 4.4q.5 1.3 1.9.9 2.3-2 5-3.3.6-.4.8-1.1l1.6-.2 12.6-7.8q.6-.5.9-1.3a7 7 0 0 0 5-3c1.7 0 6.3-2.6 7.1-3.9 1.3-.5 4.3-1.5 4.9-2.7-.7-1.1-4.5 1.6-4.9 2.7Z"/><path fill="#dcdcfa" fill-opacity=".2" d="M76 498q-.7 2-2.8 1.7c-.5-1.5 1.7-1.8 2.7-1.7"/><path fill="#e2e2f9" fill-opacity=".4" d="M359 376c0 1-1.4 1-2 1q.5-1 2-1m-46 106q-.5 1.2-2 1.1.6-1.4 2-1"/><path fill="#e1e1fa" fill-opacity=".3" d="M438 369q-.6 1.4-2 1 .5-1.4 2-1"/><path fill="#e1e1f9" fill-opacity=".7" d="M125 281.9c.8-.9 4-4 5-2.6-1.3 1.1-3.2 3-5 2.6"/><path fill="#e1e1f9" fill-opacity=".5" d="M270 203q-.5 1-1.6 1.7-2.6.4-.5-1.2zM82 276q.3-1 1.5-1.1c1.2.7-1 1.3-1.6 1.2m326 5q-.5 1.3-1.7 1.9-2.5.2-.4-1.3zm-283 .9q-.5 1.4-2 1.2.4-1.4 2-1.2m8 25c.2-.6 1.3-1.5 1.8-.6q-.6.8-1.7.7m221 72c0 1-1.3 1.8-1.9.8q.6-1 1.8-.8M79 385c.7-.7 4-4.2 4.8-2.6-.6 1-3.6 2.2-4.9 2.6m375.8 93.2c.4-1 3-4 4-2.7-.2 1.3-3 2.1-4 2.7M316 480q.3-1 1.5-1.2c1 .7-1 1.3-1.5 1.2"/><path fill="#e0e0f9" fill-opacity=".4" d="M130 308.9q-.4 1.5-2.1 1 .7-1 2.1-1"/><path fill="#e1e1f9" stroke="#e1e1f9" stroke-width=".5" d="M263.8 149.1q19.2-.1 38.3.2l-.4.6-5.3 4-1.5.4-8.3 5.6q-2.4.3-2.6 2.4a3 3 0 0 0-3 .7c-2.3 1.3-11.1 6.1-12 8a7 7 0 0 0-5 3c-1.8 0-4 1.5-5 3q-2.1 0-3 2-1.3-.3-2 .6c.6 1 2.1.4 2-.6q2-.3 3-2c1.8.3 4-1.5 5-3 1.8 0 4.3-1.4 5-3q1.1.1 2-.4l8.4-4.8 1.7-1.5a7 7 0 0 0 3.2-1.7c2-1 5.4-2.6 6.7-4.1q7.3-4.2 14.8-8 .9-.5.9-1.4l20.4.2-.2.7-.8.2q-.8.3-1.4.8l-1.7 1-1.3.7q-1.8 1-3.4 2.5-1 .1-1.7.8l-1.7 1-1.2.7a18 18 0 0 0-3.5 2.6q-.8 0-1.5.6l-3 1.9-3 2q-.3 0-.6.4-.9.3-1.4.8l-3 1.8-3 2-.7.5q-.8.2-1.4.6L291 172l-1.2.8-3.1 2-.8.4-1.3.8-2.9 1.7q-.8.8-1.8 1.2l-1.2.8-3.9 2.3-1.1 1-1.8 1-1.2.7q-1.9 1-3.5 2.5-.7 0-1.5.7l-1.8 1-1.2.8a44 44 0 0 1-8 5 18 18 0 0 1-4.9 3.2L248 199c-1.8 1.8-5.9 2.8-7 4.7q-1 .5-.9 1.5-.7.9-1.9.8c-3.5-25.6-11.4-21.8-33.3-22.2l55.5-31.9c1-.8 3.2-1.3 3.4-2.8Zm99 0 19.3.1-.5.7-43.5 26.8q.1.8.9 1.2c-1.5.7-9.4 5.2-10 6q-11.3 0-22.4-1.2 0-.7.8-1 27-15.3 54-31 1-.4 1.4-1.6Zm34.6 42h.3c-3.4 7-2.5 14.1-2.3 21.7a164 164 0 0 1-1.6 17.4c-3.4.9-5.3 3.4-8.5 4.6q-.8.4-1 1.2-2 .7-4 1.8-3.3 2.3-6.8 4.2-.4.3-.5.8l-1.2.3c-3 1.8-19 12-21 11.7q3.3-3.3 4.7-7.6c-.5-12 .6-23.3 1.7-35.1 1 1 2 1 3 0q.8-.3.8-1.3c1-1.3 10.2-7.3 11.7-6.7q2.4 0 4.3-1.5 8-4.4 15.8-9.3zM37 195.2c-.4 5-.6 8.8.2 13.8q-1.2-.6-2.5.2c-4.4 3-15 8.2-18.5 11.1l-1.2-.2-.3-11c2.9 0 16.8-11.3 20.3-13.2zm-1.2 52.5q.6.2 1 .8c1 3.6 3.5 6.1 5 9.3q-1 1-2.7 1.5a3 3 0 0 0-2.2 0 379 379 0 0 1-20.7 12.4l-1.4.4V261c3-.2 17.5-10.9 21-13.3ZM162 359.1c11.6 7.2 32.2 2.4 45.5 2.4q.8-.2 1.4.5a2 2 0 0 0-2 .8q-2.7.7-5 2.5l-1.2.6q-1.7 1.4-3.8 2l-1.2.8-.8.5-1.1.7q-1.8 1.2-3.8 2.1l-1.3.8-.7.5-1.3.7-3 1.7-.8.5q-.7.2-1.2.8l-5 2.7-.8.6-1.3.6-4.9 2.8-.8.5q-.7.2-1.1.8l-5 2.7-5.1 3-.8.4-1.2.8-5 2.9-.7.4-1.3.8a28 28 0 0 0-5 2.8l-2 1.2-3.7 2-1.3.7-5 3-.8.5q-.7.2-1.2.7l-5 2.8-.8.5-1.1.8-4.6 2.2c-.2-8.1-.2-15.4-6.8-21.2q-.5-.6-.2-1.4 1 .6 1.9-.1 3-1.8 5.8-4 3.8-1.7 7.2-4 1.8-1.2-.4-1.6l5.2-3.2 1.6 1q4.6-2.4 8.6-5.6l1.2-.3c4.2-3.3 17.8-9.3 19.6-13.7Zm-1.8 34 .7-.1c-7 9.5-3.9 16-4.5 26.9q-.5 9-1.7 18.1a3 3 0 0 0-1.7.4l-11.1 6.6 1 .7q-4.7 3.4-9.8 6.3v-1.2q-.4-.9-1.3-.3l-1 .7-1 .7a16 16 0 0 1-4.1 2l-.9.9q-1.8 1.4-3.9 2.2-.7.2-1.2.7l-.7.6q-.8 0-1.4.6-1.7 1.2-3.6 2l-1.3.8-.8.5-1.3.7-4.8 2.9-.8.5q-.7.1-1.3.7a134 134 0 0 0-10 5.7l-.6.6q-.8.2-1.5.7a41 41 0 0 0-7 4l-4.9 2.8-.7.5q-.8.2-1.4.6l-1.7 1-1.3.8-.6.3-1.3.7-5 3-.6.5-6.4 3.6-.8.5q-.8 0-1.3.7l-4.9 2.7-5 3-.8.5-1 .6-1 .5c-3.2-.2-9.1-1-11.2-3.5l48.4-29.3q.8-.6.6-1.6c12.2-.4 28.5-.5 33-14.5-.9-11.1.5-22.4 1.4-33.5 1.7.8 3.4-1.1 4.7-2l1.6-.8 1.7-1 1.2-.8 3.7-2.3 1.3-.7q2-1 3.4-2.6.9 0 1.6-.6l1.8-1 1.2-.8 4-2.3 1-1 3-1.7.8-.6q.7-.2 1.3-.7l1.7-1q.6-.2 1.2-.7a21 21 0 0 0 3.5-2.5q.8-.2 1.4-.7 1-.8 2-1ZM276 418c-.3 12.6-4.2 29.1 2.2 40.7-2 .8-5.1 3-7 4.3q-.4-.9-1.5-1a31 31 0 0 0-7.8 4.8L205 499.6q-.7.6-.7 1.5-8.7 0-17.3-.3l.3-.8 34.7-21.6c2.3-2.5 18.5-10.2 18.7-12.3l1.6-.1c1.6-1.2 6-3.2 6.7-5 1.5 0 4.6-1.4 5-3q1.4.3 2-1 2-.3 3-2c.5.2 2.8-.3 1.6-1.1q-1.2 0-1.6 1.2a3 3 0 0 0-3 1.8q-1.5 0-2 1.1c-1.6.2-4.4 1.5-5 3q-1 0-2 .5-2.7 1.5-5.1 3.4l-1.2.4-59.6 34.4q-.6.6-.8 1.4-17.7 0-35.4-.3l.4-.8q25.7-16.5 51.6-32.7.7-.5 1-1.3c10.5-.5 21.2.8 30.7-4.8 8.1-5.5 8.2-10 7-19.2 3.5 0 31.2-19.1 36.5-22zm-148 22c-1.7-.5-2.5 1.3-4 1.6q-.9.5-1 1.4-1.4-.2-2 1-1.9 0-3 1.6c1.3.6 2.6-.3 3-1.7q1.3.3 2-1c1.3 0 4.5-1.6 5-2.8.9 0 4.3-.7 2.6-2q-2 0-2.7 2Zm38 58c-1 .2-2.8.4-3 1.6 1 1.6 2.7-.6 3-1.6a2 2 0 0 0 1.9-.7c-.6-.9-1.8 0-2 .7Z"/><path fill="#d5d5fe" fill-opacity=".1" d="M208.9 362q-.3 1.4-1.7 1.9 0-.6-.3-1.1a2 2 0 0 1 2-.8"/><path fill="#1b3f6b" stroke="#1b3f6b" stroke-width=".5" d="M88.4 50a46 46 0 0 1-6 6q-.3.4.2 1 1.3-.6 2.2-1.7 2-.9 4-1.5c0 16 1.2 32.9-4 48.4-1-.2-8.5 4.1-9 5-4-.8-7-4.4-7.9-8.3q1.9-.7-.1-.7c-1.8-4.2-2.9-33.5-1-36.8l3-4c-.7-1-2.9 1.2-3.8 1.4.2-3.9-1-10.4 0-14q.4 0 .5-.4-.6-.3-.5.5-.7-.6-.6-1.6-.5-10.3 1-20.5c1.8-12.2 9.3-13.3 17.6-5.3 2.4 3.6 4.4 27.1 4.4 32.5ZM198 14c-.8 1.3-5.5 7.5-4.5 8.6 2-1.1 8.1-4 9.3-5.6q1.1.3 1.4 1.4 2.5 12.7 3.4 25.7-.8.2-1.3.7l-4.9 5.6q.3.7 1 .4 2.4-1.7 5.3-3.1c.7 12.6 3 51.8-7.8 59.8q-3 .7-6-.8 2.5-3.4 4.6-7.3l-.2-.4-8.5 4.4c-7-5.9-3.7-41.5-3.8-48.7q2.9-3 5.6-6.2-.8-.3-1.6.2-2.2 1.6-4.6 2.7c-.4-6.7-3.7-46 12.1-38.2q.6.3.5.8Zm120-.9-5.4 8.9q-.6.9-.1 1.8 5.4-2.6 10.4-5.9l.8.7c3.8 16.8 4.1 35.3 4 52.5q-2 2.1-3.6 4.5c.7 1.2 2.5-.8 3.6-.7-.6 8.5-.9 20.2-4.5 27.9a65 65 0 0 0-7.1 4.2c-3.6-.9-7.1-4.2-8.3-7.8l3.8-4.8-.3-.4-4.6 2.3c-2.2-2.2-2.7-9.2-2.7-12.3.8 0 3.3-3 3.8-4q0-1.5-.5 0l-1.5.2q-.5 0-.5.5l-1.5.2q.1-18.3 1.8-36.7c1.3-10.4-5-24.6 5.5-31.5 1.3-.8 6.6-1.6 7 .4Zm118.3 2a57 57 0 0 0-3.8 5.9q-.7 1 0 1.7 4.6-2.3 9.2-5c2.7 1 3.6 5.4 4 7.9-2 20.4 2.8 40.5 1 60.6q-1.5.7-2.2 2.3c.4.8 1.7-.2 2.3-.3-1.7 7.3-3.4 13.7-10.5 17.6-3.5.3-11-6.1-9.6-9.5l4-5q-.4-.3-1-.1-2.2 1.3-4.8 2.2c-3.6-14.6-.4-33.9 0-49 1.5-10-5.7-27.8 8.7-30.2.9-.2 2.6-.4 2.7.9Z"/><path fill="#de024b" stroke="#de024b" stroke-width=".5" d="M490.6 78.7c2.6.9 3.8 7 4.1 9.5-1-.1-20.3 15-21.5 16.5q-1.6.6-2.8 1.7.3.3.8.2 12.4-6.7 24.7-13.8 1.6 6 1.3 12.5c-2.4-.5-8.5 7.2-11.2 8.4q-1 .6-1.1 1.7.6.6 1.1 0l1-.5 10.7-6.2c.1 10.5.4 21.3-.7 31.8q-.6.6-1.5.6H461q.3-.9-.4-1.2-1 0-1.5 1-8.5.2-17 .1c3.3-3.9 14.3-12.5 18.6-16.7-.5-.8-2-.2-2.7.2-3 1.8-27.5 15.6-28 16.4q-8.6.3-17.2 0c4.5-5 15.4-11.4 20.5-17 1.5-.5 4.8-2.3 4.3-4.2q.9 0 1.6.3l4.3-3.1q.6-1.3-.8-1l-3.8 2.8-1.2.6a63 63 0 0 0-8.4 5.4q-3.6.8-6.4 3.2-.7.1-.8 1-1.2 0-2.2.4l-14.6 8.5q-.9.3-1.3 1.3-.5 0-.8.6-1.2.1-2 1c-5.5.6-12.5.4-18 .2q2.7-2.5 5.8-4.6.6-.4.8-1.2l1.4-.4q1.2-.3 1.6-1.4 1.2-.6.8-1.8l1.6.2q.5 0 .8-.6.9 0 1-1l1.3-.9a316 316 0 0 0 15.8-11.5l6-4.3q1.4-.4 2.4-1.6c14.9 10.7 29.8-1 34.8-15.8h.4q.4 1.1 1.5.7 15.9-8.9 31.4-18Zm-7.8 38.3c.3 0 1.7-.2.8-.8a1 1 0 0 0-.8.8Z"/><path fill="#e1e1f9" stroke="#e1e1f9" stroke-width=".5" d="M489.8 149.1c1.4.3 6.4-.6 7.2.5q.3 9.1.3 18.4-1.4-.7-2.6.2l-27.8 17c-9.4-2-23.1.5-33-2.4 1.8-2.4 10.6-6 13.3-8.7q1 0 1.9-.4 5.9-4 12.1-7.3.8-.7.8-1.7c1.6-1.5 6.2-5 8.1-5q2.8.7 5-1.3.5-.4.6-1.2c1.9-.1 5.2-1.4 5.5-3.5 1.5 1 4.4-1.7 5.8-2.1l1.4-.6.9-.7q.6-.4.5-1.2Zm4.3 9a8 8 0 0 0-5.2 2.9q-1.1-.3-1.9.7c.6 1 2 .2 2-.7 1.8.2 4-1.6 5-3a2 2 0 0 0 1.8-.7c-.5-.8-1.5.1-1.7.7ZM497 268q.2 10.6.1 21.3c-2-.2-18.5 10.9-21 12.9-.8-7.9-4.9-12.6-12.1-15.5q7.8-5 15.9-9.3c1.2-3 2.8-4.2 6.1-4.6q1 .3 2 0c3.1-1.7 5.5-4.3 9-4.8Zm-7.4 14.4c.9-.1 6.2-2.4 5-3.4-1.3.5-4.6 1.8-5 3.4ZM55 352.9a5 5 0 0 1-3.2-1.6q.7-.8 1.7-1.5 4.5-2.7 9-4.8.6.4.2 1c-2.5 2.9-6.3 3.2-7.7 6.9Zm-19 57.7q.6.2.9.8.3 11-1 22c-1.6-.4-20.3 11-23.2 12.7l.5-22.1q1.3-.1 2.5-.8l16.3-9.8 1-1q1.8-.6 3-1.8ZM24 429c-1.7-.6-2.3 1.5-4 1.6q-.8.5-1 1.3-1.3-.3-2 .7c.6 1 1.7 0 2-.7 1 .3 4.7-2 5-3 .5.2 2.6-.4 1.5-1.1q-1.3 0-1.6 1.2Zm254.2 29.6c3.8 5.8 8.8 4.5 14.8 5-.3 3-4.9 3.6-7 5.2q-.2-1-1.3-.9l-55 31.6a2 2 0 0 0-.7 1.5c-4.4-.4-13.4.5-17.1-.4l.4-.7q24.7-15.8 49.8-31.5 1.6-1-.2-1.8 3.7-2.9 7.8-4.6.5.8 1.5 1c1.9-1.3 5-3.6 7-4.4Zm-215.1 6-8.2 5.1-1 .2-14.7 8.7 1 1A17 17 0 0 1 35 483c.4-1.5-1.3-1.3-2-.8l-10 6c-1.6-2.3-4.2-5.5-4.2-8.4q1-.1 1.8-.7C23.4 477 43.8 465.8 44 464c5.8-.9 11.8-.2 17.6 0q1 0 1.6.8Z"/><path fill="#bfc2e0" stroke="#bfc2e0" stroke-width=".5" d="M56 191.2q-.7 2.3-1.9 4.5-.1.7.3 1.1 5.3-2.2 9.6-5.8l17-.2c0 1.9-6.2 5-4.4 6.2a51 51 0 0 0 10.4-6q7-.2 13.3 2.8-6.5 6.1-13.4 11.6-.9.7-.3 1.5c1.6 0 15.5-8.6 16.8-10.2 5.3 12.2-.5 40.4.2 54.6q-.6 1-2 1H84c.6-1.7 4.3-4.2 3.3-6 1-1.1 3.3-1.7 3.7-3.2q.6-.2.3-.8-.3.3-.3.8c-2-.5-4.5 2-6.2 2.7l-9.5 5.8c-4.5 1.2-12.4.4-17.3.6 0-2.6 10.4-8.3 10.9-10.7q-.5-.7-1.2-.3c-3.1 1.8-6.4 3.3-8.7 6.2-1.3.5-3.2.4-3.5 2.3-1.2-1-2.5.2-3.7.5-3.8-6-3.6-16.3-3.9-23.2 2.5-1.6 7.7-5.1 9-7.6q-.5-.6-1.2-.2c-2 .8-5.7 3.7-7.7 3.8q.4-15.2 2.2-30.4 0-.8.7-1.1zm239 .1-2.9 7q1.5 0 2.9-1 4-2.2 7.9-4.7a4 4 0 0 0-2.4-.6q-.6-.2-.5-.9c11.6.4 27.3-1.7 38.2 2.3-.7 2.5-4.5 4.3-6.4 5.9q-1.7 1.5.5 1.4c2-1.3 7.5-3.7 8-6 7.4 8.2 3 44.7 2.5 56.6q-1 1-2.3.8H320q5.7-7.2 10.9-14.7-1-.6-2 0-11.2 6.8-22.8 13.2-1 .5-1.1 1.5c-4.3-.7-12.9 2-15-3q1 0 1.7-.8 3-2.5 6.4-4.9c1.3-.7.4-2.3-1.2-1.2-2.1 2-7 2.9-7.5 6-4.5-15.6-1.6-38.5-.5-54.7q0-1.4 1.2-2zm145-.5-5 4.6q-.7.7-.3 1.7A60 60 0 0 0 445 191c2.3 0 12.3.7 13.1 3.1-.6 2-9 7.7-11.1 9.4q-.9.7-.4 1.6 6.6-3.3 13-7 1.1-1 1.6-2.3 3.3 5.1 2.9 11.2l-15.2 12.4q-.9.7-.4 1.6 6.9-3.5 13.6-7.4l2-.6-2.2 38.4q-.9 1-2.3 1l-17.5-.5c.5-1.4 3.4-2.8 2.2-4.3 3.3-1.2 3.3-3.4 5.3-5.4v-.8c-2.5 1.5-17.3 9.2-17.6 10.8-4-.5-18.8 1.1-21.2-1.5a22 22 0 0 1-3.7-8.7 3 3 0 0 0 2.6-.6c4.7-3.8 9.6-8.4 14.5-11.7 1.5-1.2.3-2.3-1.3-1.1l-16.1 9.4c-1.1-14.8.4-31.2 1.9-46q.4-.4 1-.4 15.1-.7 30.3-.8ZM175 192q-1.2 3.8-2.7 7.5.4.6 1 .4 5.6-3 10.8-6.5 1-.5 1-1.4h19q-7 7.8-14.3 15.3c-1.5 1.4-.2 2.1 1.2 1.3 5.2-3.7 23.9-12.9 27-16.6q1.6-.2 2.8.7 4 9.6 4 20.1l-7 4.5q-2 1.8.5 2.4l6.6-3.6q-.3 17.7-2.1 35.2-.6.6-1.4.5H195l12.8-15.3c-.5-.9-1.2-.1-1.9 0l-26 15.3c-4.3-.1-10.6 1.4-11.5-4.6 5-3.4 10.6-8.3 15.1-12.2q.5-.6 0-1l-15.2 8q.5-13-.3-26c2.6.8 5.1-4.2 7.2-5.3q1.4-2.3-1.2-1.4-3.2 1.6-6 3.7-.2-10.1 1.5-20.1c.5-1.4 4.3-.6 5.5-.9Zm237.1 4.8c2 .3 6.8-3.3 8.6-4.3-1.7-1.5-8.4 1-8.6 4.4Zm-2.3 25.5c.8-.1 6-2.3 4.7-3.4-1 0-4.7 2-4.7 3.5Zm-332 71.3q-1 1.4-2.2 2.4.1.7.5 1.2c-3.1 1.7-5.8 5.4-8.5 7.8-1 .9-.9 2.6.7 1.9q9.7-6 19.8-11.4 1.8-1.4-.5-1.8h-6.4q.6-.5 1.5-.5c3.6.2 14.4-.3 17.1.6 8.6 7.8 5.3 35.7 4.8 46.5q-.4 7.2-1.5 14.3-5.4.7-11 1H78.8q1.8-1.3 3.3-3.3 3.3-4 7-7.7.6-.7.3-1.6-10.3 5.4-20.2 11.5 1.5.6 2.8 1.5c-2.8 0-15.6-.8-17-3.1 1.3-3.7 5.1-4 7.6-6.9q.4-.6-.2-1-4.5 2.1-9 4.8l-1.7 1.5c-7.3-9.2-2-44.9-1.4-57.5q.5-.6 1.3-.5 13.2-.2 26.2.3Zm106.2-.5q13-.1 26 .2-2.1.7-4.2 1c-2.6 1.6-11 10.5-13.9 13.1q-1.4 2.4 1.2 1.1l20.8-12.1q1.4-.8 1.1-2.3 6.7 1.5 9.1 7.8-5.7 4-11.1 8.5-1 .7-.4 1.5l10.2-5.4q1.2-1.2 2-2.5.6 7 .3 14c-2.1 0-12 9.5-14.2 11.4q-.7.7-.3 1.6 7.3-3.7 14.2-8l-2 31.4q-10.5.9-20.8 1.2 5.3-6.6 10.4-13.6.8-.9.2-1.8-10 5-19.7 11c-1.7 1.2-5 2.6-6.1 4.3-4.6-.4-9-.6-13-3q.3-1.1 1.1-2.1l17.6-15.4q0-1.7-1.5-.8l-19.7 11.5q-1.5.9-1.8 2.5c-1.8-4.8-1.9-10.3-2-15.4.4.8 0 2.6 1 2.8 2.2-1.6 7.3-5 8.4-7.2q-.4-.6-1.2-.3c-2.2.9-5.7 4-8 3.8q.4-18.6 1.5-37.2c.6-1.3 5.2-.8 6.6-1.1q-1.6 2 .2 3.8a8 8 0 0 0-3.8 5q.4.7 1.1.4 7.3-4 14.4-8.3-1.4-.6-3-.7zm111 .3-2.5 6.2c.2.8 1.1-.2 1.5-.2q4-2.2 7.7-5-.6-.5-.7-1.3l20-.2q-4.5 4.7-9.4 9-.4 1 .8 1.2l13.9-8.3q.7-.7.7-1.8c5 .7 10.3 1.4 14.3 4.7-2.6-.1-5.3 3.4-7.4 4.7-1 .6-1 2 .4 1.4 2-1.3 6.4-3.1 7.9-5 5.6 12.2-.2 40.8 0 54.8 0 2.3-4.8 1-6.2 1.5.2-1 4.8-7 2-7q-5.2 3.3-10.4 6-.6.6-.4 1.4c-.2-.8-1.6.4-2 .3l-20.4-.3a23 23 0 0 0 5.4-.8l7.5-7.5c.4-.6 5-2.8 2-3.3L302.4 354q-.5.5-.5 1.1c-17.4-1.1-15-16.4-14.7-29.5l1-30c0-2.6 5.1-1.8 6.7-2.2Zm120-.3a42 42 0 0 0-2.6 5.5l.2.3c1.5 0 9-4.6 9.4-6q8.5-.4 17-.3c-.3 1.9-4.8 5.2-6.2 6.7-1.5 1.4-.3 2.2 1.2 1.2 2-1.1 11.5-6.1 12-7.6q7.4 0 13.7 4c8 8.5 2.7 45 2 57.4q-.3.8-1.2.7H450c-.1-2 2.9-4.8 3.7-6.7q.4-.7-.2-1.1-6.5 3.4-12.9 7-.5.3-.6 1c-4.8-.7-26.4 1.2-29-1.8-9-9.4-2.4-45.8-2.9-58.9q0-.8.6-1.2zM51 309.8q-1.8 1 .3 1a11 11 0 0 0 2.2-2.5q-1.8 0-2.4 1.5Zm52.8 14.2a1 1 0 0 0 1.1-.5q-.8-.4-1 .5Zm-3 2.3c.7 0 3.3-1.2 1.8-1.9q-1.5.3-1.8 1.9Zm-12.6 69.3-7.6.3c-2.3 0-9.8 9.3-11.9 11.2-1.5 1.5-.2 2.3 1.3 1.2 3.3-2.2 18.7-10 20-12.4 15.5.9 16.3 10.2 15.6 23.4l-2.2 36.8q-.5 1-1.8 1-11.8 0-23.5-.2c-1-1.6 1.7-2 2.3-3.2q3-3 5.4-6.2-.9-.7-1.8 0l-14 8.1q-1 .6-1 1.5-7.6 0-15.1-.5c-9.8-7.3-5.1-48-3.6-59.9q.4-.6 1.3-.6 18.3-.9 36.6-.5Zm239 0c-4.2 0-14.3 13-18.3 15.8-1.2 1 0 2.2 1.1 1.3l26-15.6c9.7 3 8.7 14 8.6 22.1a1113 1113 0 0 0-2.2 36.6q0 .9-.8 1.3-9.3.2-18.6 0c-.3-2.3 5.8-5.7 4.4-7-1 0-9.2 5-10.8 6q-.6.4-.6 1c-4.2-.2-21.1.8-23.8-.8-9.3-8-3.8-46.8-3.1-58.8q0-.8.6-1.3l5.3-.2q-1.2 3.6-2.8 7-.4 1 .3 1.7 6.8-3.6 13.2-7.5 1-.6 1.1-1.7zM176 396q-1.5 2.4-2.6 5-.6 1 .1 1.7 4.8-2.4 9.5-5.3.8-.5 1-1.5 8.5-.3 17-.2c.3 2.4-4.8 3.8-3.3 5.4q3.6-1.6 7-3.8 1-.5 1.3-1.5c4.7.1 10 .5 14.1 3q-7.2 6.3-14.6 12.2c-.6 1.1.8 1.5 1.6.9 3.9-2.5 12.4-8.2 16.4-9.1q2 4.8 1.6 10.2-6.5 4.7-12.7 9.9-.9.6-1.3 1.6.4.6 1.2.3c3.2-1.7 9.6-6 12.8-6.8q-1.2 18.7-2 37.5 0 .9-.7 1.4-21.2.3-42.4.1c.1-1.7 6.2-5.7 7.6-7q.4-1.2-1-1l-12 7.1q-.6.3-.6 1c-4-1.6-4.8-6.5-5.9-10.2q1.5.2 2.9-.5 6.6-5.3 12.8-11-.5-.4-1.1-.3c-2.7 1.6-12.4 8-14.8 8-1.4-14.8.5-30.7 1.7-45.4q0-1 1-1.4zm-84 26c2.1 0 9.9-5 12.2-6.4q1.1-1.9.7-4-.7-.8-1.6 0c-1.8 2.1-11.3 8.3-11.4 10.5Zm195.9-2c-.9 3.1 7.3-6.3 7.5-5.9 1-3-7.7 2-7.5 6Zm-116 8a1 1 0 0 0 1-.6q-1-.4-1 .5Zm-2.2 1.2c.3 0 2-.5 1-1q-.9.2-1 1Zm-107.6 4.6q-1.5 0-2 1.1l-1.4.4c-.7.4-3.7 1.7-3.5 2.6l-1.4.3-1 .5q-.8.5-.8 1.4c-.6-.2-2-.3-2 .8q-2 .8.2 1.2c.6-.4 2-1 1.8-2l1.3.1q.4-.3.7-.9l1.3-.2q2.1-1.3 3.8-3l1-.1q1.5-.7 2-2.2l2-.2q2-1.6-.5-1.3-1 .4-1.5 1.5Z"/><path fill="#c5c8e5" fill-opacity=".4" d="M62.1 433.8q.4-1 1.5-1.5 2.4-.3.5 1.3z"/><path fill="#c5c7e5" fill-opacity=".4" d="M100.8 326.3q.3-1.5 1.8-1.9c1.5.7-1.1 2-1.8 1.9"/><path fill="#bfc2e0" fill-opacity=".4" d="M91 243q0-.3.3-.7.3.6-.3.8"/><path fill="#c9cee8" fill-opacity=".3" d="M409.8 222.4c0-1.6 3.6-3.6 4.7-3.5 1.3 1.1-3.9 3.3-4.7 3.5"/><path fill="#d9d9f4" fill-opacity=".2" d="M52 440c.2 1.1-1.1 1.7-1.8 2.1l-.2-1.3c0-1 1.4-.9 2-.7"/><path fill="#d6d7f3" fill-opacity=".3" d="m58.7 435.3.4.8a22 22 0 0 1-3.8 3l-.1-1.2c-.2-1 2.8-2.2 3.5-2.6"/><path fill="#d1d2ed" fill-opacity=".3" d="M62.1 433.8q-.5 1.5-2 2.2v-1q.5-1.2 2-1.2"/><path fill="#d3d5f1" fill-opacity=".4" d="M171.8 428q.3-1 1-.6a1 1 0 0 1-1 .5"/><path fill="#e2e2f9" fill-opacity=".2" d="M103.8 324q.3-1 1.1-.5a1 1 0 0 1-1 .5M79 353q0 1.1-1.2.4zm406 140q0 1-1.1.5zm-194 13 1-.1q-.2 1-1.1.8z"/><path fill="#e0e0f9" fill-opacity=".9" d="M224.8 212.8q.3 1.6 0 3.3l-6.5 3.6q-2.4-.6-.5-2.3zM145 506q3.1-.2 6.3-.1-.7.8-1.5 1.2a9 9 0 0 0-3.7.2l-1-.3zm41.7 0q3.2-.3 6.4.2l-.3.8q-.4 0-.8.3a8 8 0 0 0-4.2 0zm25.2 0 6.3-.2q-.3 1-1.4 1.2a12 12 0 0 0-3.8.4l-.8-.4zm25 .2q3.2-.4 6.3-.3a4 4 0 0 1-1.5 1.1l-3.6.2-1-.1zm48 0q3.1-.6 6.2-.1l-.1.6-1.3.3q-1.8 0-3.6.3l-.9-.4zm29.1 0q3-.6 6-.1v.7l-1.3.3q-1.8-.2-3.6.3l-1-.4zm32.9-.2q3-.3 6.2.1v.8l-1.4.1q-1.8-.1-3.6.3l-1-.3zm19 .2q3.2-.4 6.4-.4-.4 1-1.6 1.2a12 12 0 0 0-3.7.3l-.8-.2z"/><path fill="#e2e2f9" fill-opacity=".3" d="M332.3 152q-.6.6-1.3.7.3-.7 1.3-.7M15 220l1.2.3-1.4.9zm168 156.2q-.4.9-1.3.8.4-.6 1.2-.8M145.2 402l-1 .9q0-1.1 1-1m24.4 27.1q.1-.8 1-1c1 .5-.7 1-1 1M412 454.1q.3-2 2.5-2.1c1.1 1.1-1.9 1.8-2.6 2m-31.1.8c-.2 1.5-3.4 3.1-4.9 3.2.6-1.7 3.2-3.1 4.9-3.2m-124.9 2q-.6 1.4-2 1.1.5-1.2 2-1M86 492c-.6 1.8-3.3 3-5 3 .7-1.5 3.4-2.7 5-3"/><path fill="#7c304a" fill-opacity=".1" stroke="#7c304a" stroke-opacity=".1" stroke-width=".5" d="m329 132.9.9.3 1.4-.5-.3 1.3q-5.1 3.6-10.4 6.8-1.1.1-2.3-.1l-.5-1q.9 0 1.4-.7h.6q1 0 1.4-1l.5.1q1.2 0 1.3-1.3.8 0 1.1-.9l.5.4q1.3-.3 1.5-1.6.7 0 .9-.6l.6.2q1.2-.3 1.5-1.4Z"/><path fill="#c80447" fill-opacity=".2" stroke="#c80447" stroke-opacity=".2" stroke-width=".5" d="M342 126c-.7 1.5-9.1 6.7-11 8l.3-1.3-.2-1q4.6-2.5 8.8-5.5 1-.3 2-.1Z"/><path fill="#c8013d" fill-opacity=".2" stroke="#c8013d" stroke-opacity=".2" stroke-width=".5" d="M133 119.1c-.6 1.5-8 6-9.7 7q-.9-.7-1.3-1.5l9-5a3 3 0 0 1 2-.5Z"/><path fill="#d10148" fill-opacity=".2" stroke="#d10148" stroke-opacity=".2" stroke-width=".5" d="M267 127c-1 1.6-6.8 5-8.8 6.4V132q.9-.5.9-1.4l6.4-3.6a3 3 0 0 1 1.6 0Z"/><path fill="#bd0944" fill-opacity=".8" d="M39.3 56.9q-2.4 1-5 1.8l-3.5.5q.1-.7.9-1.2c2-.7 5.7-3.4 7.6-1.1"/><path fill="#923252" fill-opacity=".1" stroke="#923252" stroke-opacity=".1" stroke-width=".5" d="M254.3 134.4h1l.5-.1q0 .9-.7 1.2l-6.5 4.6q-1.2-.2-2-.8.9-.4 1.6-1.1 1.5.3 1.7-1.3.8-.2 1.3-.9h.5q1.2 0 1.3-1.1z"/><path fill="#de024b" fill-opacity=".4" stroke="#de024b" stroke-opacity=".4" stroke-width=".5" d="m173 71-.4 1-.8-.3q.6-.6 1.2-.7Zm98 11.8c-.3 1-2 3-3 1.8.3-1.1 2.1-1.4 3-1.8Zm-133 8c-.3.9-1.8 2.7-2.8 1.8q.8-1.8 2.9-1.8ZM267 127q.4-2.2 2.6-2.2c1.2 1-1.8 2-2.5 2.1Z"/><path fill="#de014c" fill-opacity=".3" stroke="#de014c" stroke-opacity=".3" stroke-width=".5" d="m439.3 120-.4-1.3 3.8-2.9q1.4-.2.8 1-2 1.7-4.3 3.2ZM319 126c-.4.7-2.1 3-3 1.7q1.1-1.5 3-1.8Z"/><path fill="#ca0144" fill-opacity=".2" stroke="#ca0144" stroke-opacity=".2" stroke-width=".5" d="M420 113.4q-3 2.3-6 4.3.3-1-.7-1.4l5.4-3q.6-.2 1.3 0Z"/><path fill="#4b4b52" fill-opacity=".1" stroke="#4b4b52" stroke-opacity=".1" stroke-width=".5" d="M82 352.4q-1.4 1.9-3.2 3.3-1.8.4-3.6 0 0-.6.5-1 1.2.3 1.3-.8l.7-.5q1 .7 1.2-.5c1.4 0 1.7-1.5 3.1-.6Z"/><path fill="#bd0741" fill-opacity=".3" stroke="#bd0741" stroke-opacity=".3" stroke-width=".5" d="M312.3 113.4h1.6q-2 2.1-5 3.2-.1-.7-1-1 1.5-.5 2.6-1.7z"/><path fill="#49494d" d="m121 505.9-1 .1h-.9q-3.2-.1-6.4.1l-.8-.2q1-1 2.6-1c1.5.3 5.8-.6 6.6 1"/><path fill="#df024c" fill-opacity=".3" stroke="#df024c" stroke-opacity=".3" stroke-width=".5" d="M240 113v-1.3c.6-.8 4-3.5 4.8-2.4-.4 1-3.7 3-4.8 3.7Z"/><path fill="#de024b" fill-opacity=".7" d="M119 57.1q-3.2.4-6.4 0 2.4-2.8 5.7-1.1.7.4.7 1.1"/><path fill="#b70e52" fill-opacity=".9" d="m305.8 80.3 1.5-.4.5.2c-.5.9-3 3.8-3.8 4l-.2-3.2 1.5-.2q.5 0 .5-.5"/><path fill="#1b3e69" fill-opacity=".8" d="M318.3 5.5q-3.1.9-6.4.4 0-.6.6-.7a6 6 0 0 1 5.8.3"/><path fill="#7d002d" fill-opacity=".1" stroke="#7d002d" stroke-opacity=".1" stroke-width=".5" d="M17.6 107.9q1 0 1.4 1.1l-3 2q-.6 0-1.1-.6 0-.6.3-1z"/><path fill="#c8094e" d="M66.8 61.4q-1-1-.8-2.6c.9-.2 3.1-2.5 3.8-1.3z"/><path fill="#d9014a" fill-opacity=".2" stroke="#d9014a" stroke-opacity=".2" stroke-width=".5" d="m284 91.6.7.3c-.2 2-3 3-4.7 3.1.4-1.7 3-2.1 4-3.4Z"/><path fill="#1c3a5f" fill-opacity=".8" d="M198 5c-.5 1.4-4 .7-5.2.7A5 5 0 0 1 198 5"/><path fill="#de014c" fill-opacity=".2" d="M135 56h-2.7c-.9-1.4 3-1.6 2.7 0m17.8 0h-2.6c-.3-1.6 2.9-1.7 2.6 0"/><path fill="#df024b" fill-opacity=".8" d="M150.2 56h2.6q.8.2 1.5.9-3 .6-6.3.3c-.3-1.3 1.4-1.2 2.2-1.1"/><path fill="#dd014b" fill-opacity=".2" stroke="#dd014b" stroke-opacity=".2" stroke-width=".5" d="M135.8 56.2q1 0 1.2.8l-1-.1zm156.4 14.6-.2 1-1 .3q.1-1.1 1.2-1.3ZM401 105q-.8 2-3 1.9.8-2 3-1.9Z"/><path fill="#e50155" fill-opacity=".2" stroke="#e50155" stroke-opacity=".2" stroke-width=".5" d="M22 106a6 6 0 0 1-3 3q-.3-1-1.4-1.1 1.9-1.6 4.4-1.9Z"/><path fill="#b4013d" fill-opacity=".1" stroke="#b4013d" stroke-opacity=".1" stroke-width=".5" d="M398 106.9a4 4 0 0 1-2.6 2.7q0-1-1.1-1.2 1.6-1.4 3.7-1.5Z"/><path fill="#3d3d3f" fill-opacity=".1" stroke="#3d3d3f" stroke-opacity=".1" stroke-width=".5" d="M487.3 149.1h2.5q0 .8-.5 1.2-1.1-.4-1 .7l-1.3.6q-1.2-.4-1-1.6.9 0 1.3-.9Z"/><path fill="#781636" fill-opacity=".9" d="m467 56.2 1-.2h3l1.2.4c-1.6.7-3.8 1.2-5.2-.2"/><path fill="#de024b" fill-opacity=".9" d="M132.3 56h2.7l.8.2.2.7q-2.7.6-5.3 0z"/><path fill="#622759" fill-opacity=".6" stroke="#622759" stroke-opacity=".6" stroke-width=".5" d="m446.7 86.2.1 2c-.6 0-2 1.1-2.3.3q.7-1.5 2.2-2.3Z"/><path fill="#4a202e" fill-opacity=".2" stroke="#4a202e" stroke-opacity=".2" stroke-width=".5" d="M102.9 62.2q-1 1.4-2.6 1.5c-1-1.9 1.4-1.8 2.6-1.5Z"/><path fill="#de014b" fill-opacity=".2" d="M227.3 56h-2.7c.5-1.3 2.7-1.3 2.7 0m25-.1-2.6.1c.3-1.2 2.1-1.2 2.6-.1"/><path fill="#1b3f6c" fill-opacity=".3" d="M78.5 5a14 14 0 0 1-3.9.2c.5-1.7 3.2-1.6 3.9-.2"/><path fill="#de004a" fill-opacity=".1" stroke="#de004a" stroke-opacity=".1" stroke-width=".5" d="M471 56h-3c0-1.6 3-1.6 3 0Z"/><path fill="#db034a" fill-opacity=".7" d="M172.6 55.6c.6 1.9-1.5 1.8-2.6 1.5-.2-1.3 1.8-1.2 2.6-1.5"/><path fill="#dc014d" fill-opacity=".2" stroke="#dc014d" stroke-opacity=".2" stroke-width=".5" d="M244 127a7 7 0 0 1-1.7 2l-.4-1.3a2 2 0 0 1 2-.6Z"/><path fill="#e0014c" fill-opacity=".3" stroke="#e0014c" stroke-opacity=".3" stroke-width=".5" d="M247 125q-.9 2-3 2 .7-2 3-2Z"/><path fill="#de014d" fill-opacity=".2" stroke="#de014d" stroke-opacity=".2" stroke-width=".5" d="M175 121c-.1 1-2.3 3.2-3 1.7a3 3 0 0 1 3-1.8Z"/><path fill="#de014c" fill-opacity=".5" stroke="#de014c" stroke-opacity=".5" stroke-width=".5" d="M200 121q.2-2.3 2.6-2c1.4.8-2 1.7-2.5 2Z"/><path fill="#e0014b" fill-opacity=".3" stroke="#e0014b" stroke-opacity=".3" stroke-width=".5" d="M22 106a3 3 0 0 1 2.6-2c1.1 1-1.8 2.3-2.7 2Z"/><path fill="#de024b" fill-opacity=".4" stroke="#de024b" stroke-opacity=".4" stroke-width=".5" d="M354.8 95.1q0-.7.9-1c1 .6-.7 1-.9 1Zm-74.8 0c-.4.7-2 3-2.9 1.6q1-1.5 3-1.7Zm121 10a3 3 0 0 1 2.5-2c1.4 1-1.7 2.2-2.5 2Zm-59 21q.5-2 2.6-2.1c1.5.8-2 1.9-2.6 2Zm60.8-45.8a3 3 0 0 1 2.8-2.2c1.7 1.2-2 2.2-2.8 2.2Zm-298.1 41q.6-2.1 3-2.3c1.2 1-2.4 2.2-3 2.3ZM319 126q.3-1 1.5-1c1.2.7-.8 1.3-1.5 1Z"/><path fill="#de014a" fill-opacity=".3" stroke="#de014a" stroke-opacity=".3" stroke-width=".5" d="M357.2 76.8A4 4 0 0 1 354 79a3 3 0 0 1 3.2-2.2Zm4 14q-1 2-3.2 2.2a3 3 0 0 1 3.1-2.2Z"/><path fill="#de024b" fill-opacity=".4" stroke="#de024b" stroke-opacity=".4" stroke-width=".5" d="M136.1 75.9c0 1.2-2.2 2.8-3 1.8.2-1.2 2-1.5 3-1.8Zm218 3.1c-.2.8-1.5 1.7-2 .7q.6-1 2-.7Zm-108.9 4.8q-.6 1.2-1.9 2-2.4.3-.4-1.2 1-.6 2.3-.8ZM133 119.1q.6-2 2.7-2c1.4 1-2 2-2.7 2Z"/><path fill="#df024b" fill-opacity=".5" stroke="#df024b" stroke-opacity=".5" stroke-width=".5" d="M243 71a3 3 0 0 1-1.7 1.7q-2.3.3-.4-1.2 1-.5 2.1-.5Z"/><path fill="#df024b" fill-opacity=".4" stroke="#df024b" stroke-opacity=".4" stroke-width=".5" d="M243 71a8 8 0 0 1 4.6-3.1c1.5.9-3.4 3.4-4.6 3Z"/><path fill="#631a33" fill-opacity=".5" stroke="#631a33" stroke-opacity=".5" stroke-width=".5" d="M14.9 110.4q.5.5 1.1.7-.6.5-1.3.8c-.4-.3-.7-1.6.1-1.5Z"/><path fill="#dd024a" fill-opacity=".3" stroke="#dd024a" stroke-opacity=".3" stroke-width=".5" d="M486 113.7v1.6q-.5.7-1.1 0 0-1 1.1-1.6Z"/><path fill="#de034c" fill-opacity=".3" stroke="#de034c" stroke-opacity=".3" stroke-width=".5" d="M175 121q.5-1 1.5-1.1c1.2.8-1 1.3-1.5 1Z"/><path fill="none" d="m403.3 139.7-.6 1a3 3 0 0 1-1.6 0q.9-.9 2.1-1"/><path fill="#dd034c" fill-opacity=".3" stroke="#dd034c" stroke-opacity=".3" stroke-width=".5" d="M200 121c0 .9-1.3 1.8-2 .7q.8-1.1 2-.7Z"/><path fill="#af0c44" fill-opacity=".3" d="M172 149h2c0 1.1-2 1.6-2 0"/><path fill="#ae0c43" fill-opacity=".2" d="M202 149h2c0 1.2-1.8 1.4-2 0"/><path fill="#49494e" fill-opacity=".2" stroke="#49494e" stroke-opacity=".2" stroke-width=".5" d="M476 499.2q-.7.9-1.8.6.6-1.2 1.7-.6Z"/><path fill="#de004d" fill-opacity=".2" d="m272.3 55.9-2.4.2c.1-1.7 2-1.4 2.4-.2"/><path fill="#df044a" fill-opacity=".3" stroke="#df044a" stroke-opacity=".3" stroke-width=".5" d="M247 125q0-.6.6-.5z"/><path fill="#dd034a" fill-opacity=".3" stroke="#dd034a" stroke-opacity=".3" stroke-width=".5" d="M248.9 124q0-.6.7-.9c1 .5-.4 1-.7 1Z"/><path fill="#be0c50" d="M67.8 98.2q2 0 .1.7z"/><path fill="#df034b" fill-opacity=".4" stroke="#df034b" stroke-opacity=".4" stroke-width=".5" d="M358 93q-.1.8-.9.3.3-.4.9-.3Z"/><path fill="#612b61" fill-opacity=".3" stroke="#612b61" stroke-opacity=".3" stroke-width=".5" d="M305.8 80.3q0 .3-.5.5 0-.6.5-.5Z"/><path fill="#aa0e55" fill-opacity=".3" stroke="#aa0e55" stroke-opacity=".3" stroke-width=".5" d="M307.8 80h-.5q.5-1.5.5 0Z"/><path fill="#1b406c" fill-opacity=".4" stroke="#1b406c" stroke-opacity=".4" stroke-width=".5" d="M66 44.9q0-.8.5-.5 0 .3-.5.5Z"/><path fill="#dc0049" fill-opacity=".2" stroke="#dc0049" stroke-opacity=".2" stroke-width=".5" d="M482.8 117q0-.6.8-.8c1 .6-.5.8-.8.8Z"/></svg>