<?xml version="1.0" encoding="UTF-8"?>
<!DOCTYPE svg PUBLIC "-//W3C//DTD SVG 1.1//EN" "http://www.w3.org/Graphics/SVG/1.1/DTD/svg11.dtd">
<svg xmlns="http://www.w3.org/2000/svg" version="1.1" width="512px" height="512px" style="shape-rendering:geometricPrecision; text-rendering:geometricPrecision; image-rendering:optimizeQuality; fill-rule:evenodd; clip-rule:evenodd" xmlns:xlink="http://www.w3.org/1999/xlink">
<g><path fill="#dc4752" fill-opacity="0.973" d="M 333.35,278.67 c 0.9,0.72 1.58,1.6 2.04,2.65 c -0.83,1.09 -3.1,2.03 -3.09,3.5 c -1.52,1.75 -3.4,2.99 -5.64,3.72 c -3.15,2.05 -6.34,4.03 -9.58,5.93 c -1.48,0.97 -3.07,0.1 -1.33,-1.19 c 5.98,-4.74 11.84,-9.61 17.6,-14.61 Z"/></g>
<g><path fill="#da4652" fill-opacity="0.894" d="M 451.85,397.59 c 0.62,0.2 1.15,0.54 1.57,1.03 c -0.24,0.46 -0.58,0.84 -1.02,1.13 c -7.42,4.29 -14.8,8.63 -22.14,13.05 c -1.55,0.88 -3.17,1.47 -4.86,1.77 c 2.39,-2.51 4.9,-4.94 7.54,-7.27 c 0.69,-0.42 1.44,-0.63 2.25,-0.61 c 0.88,0.11 1.69,-0.07 2.44,-0.54 c 4.89,-2.63 9.63,-5.49 14.22,-8.56 Z"/></g>
<g><path fill="#db4652" fill-opacity="0.922" d="M 382.96,438.04 c -0.09,-0.46 -0.19,-0.91 -0.29,-1.37 c 4.7,-3.75 9.29,-7.62 13.78,-11.6 c 0.19,-0.28 0.28,-0.58 0.3,-0.9 c 0.71,-1.52 1.89,-2.36 3.56,-2.5 c 1.48,-1.85 3.59,-2.01 5.48,-3.41 c 0.39,-0.12 0.72,-0.05 1,0.21 c -1.89,2.44 -4.14,4.46 -6.77,6.06 c -3.76,3.2 -7.45,6.47 -11.08,9.83 c -2.04,0.62 -3.89,4.21 -5.98,3.68 Z"/></g>
<g><path fill="#df4752" fill-opacity="0.235" stroke="#df4752" stroke-width="0.5" stroke-opacity="0.235" d="M 470.94,63.95 c -0.11,0.74 -0.54,1 -1.27,0.77 c 0.38,-0.33 0.81,-0.58 1.27,-0.77 Z M 480.33,76.28 c -0.39,0.32 -0.81,0.58 -1.26,0.78 c 0.12,-0.71 0.54,-0.97 1.26,-0.78 Z M 444.95,78.95 c -0.14,0.7 -0.56,0.95 -1.28,0.77 c 0.39,-0.32 0.81,-0.58 1.28,-0.77 Z M 410.95,88.07 c -0.57,1.26 -1.55,1.92 -2.93,1.98 c 0.44,-1.46 1.42,-2.12 2.93,-1.98 Z M 454.33,91.28 c -0.38,0.32 -0.8,0.58 -1.26,0.78 c 0.11,-0.71 0.53,-0.97 1.26,-0.78 Z M 399.93,104.94 c -0.1,0.72 -0.52,0.98 -1.26,0.77 c 0.38,-0.32 0.8,-0.58 1.26,-0.77 Z M 428.33,106.29 c -0.39,0.32 -0.81,0.58 -1.26,0.77 c 0.14,-0.67 0.56,-0.93 1.26,-0.77 Z M 373.94,119.96 c -0.13,0.7 -0.55,0.96 -1.27,0.75 c 0.39,-0.32 0.81,-0.57 1.27,-0.75 Z M 402.33,121.29 c -0.38,0.32 -0.8,0.58 -1.26,0.77 c 0.11,-0.71 0.53,-0.97 1.26,-0.77 Z M 347.94,134.96 c -0.09,0.75 -0.52,1 -1.27,0.76 c 0.38,-0.32 0.81,-0.58 1.27,-0.76 Z M 376.33,136.29 c -0.38,0.32 -0.8,0.58 -1.26,0.78 c 0.09,-0.75 0.51,-1.01 1.26,-0.78 Z M 302.94,160.95 c -0.13,0.69 -0.55,0.94 -1.27,0.77 c 0.38,-0.33 0.81,-0.58 1.27,-0.77 Z M 329.01,220.88 c -0.75,1.87 -3.02,2.95 -4.91,3.2 c 0.07,-1.62 3.48,-3.08 4.91,-3.2 Z M 246.07,222.09 c -0.81,1.74 -5.34,3.75 -7.03,4.96 c 0.01,-0.45 0.01,-0.9 0.01,-1.35 c 1.45,-1.48 4.93,-3.88 7.02,-3.61 Z M 86.03,409.94 c -0.27,1.34 -3.68,3.26 -5.04,3.13 c 1.16,-1.86 2.85,-2.91 5.04,-3.13 Z"/></g>
<g><path fill="#dd4852" fill-opacity="0.337" stroke="#dd4852" stroke-width="0.5" stroke-opacity="0.337" d="M 482.73,57.02 c 0.11,0.68 -0.2,1.02 -0.91,1 c 0.23,-0.4 0.53,-0.74 0.91,-1 Z M 476.23,61.23 c -0.36,0.58 -0.89,0.84 -1.59,0.79 c 0.47,-0.38 1,-0.64 1.59,-0.79 Z M 456.81,71.98 c -0.01,0.7 -0.36,1.03 -1.06,1.01 c 0.34,-0.35 0.7,-0.68 1.06,-1.01 Z M 411.75,98.09 c -0.01,0.67 -0.36,0.95 -1.05,0.84 c 0.33,-0.3 0.68,-0.58 1.05,-0.84 Z M 385.73,113.06 c -0.06,0.63 -0.42,0.9 -1.08,0.83 c 0.35,-0.3 0.71,-0.58 1.08,-0.83 Z M 314.67,154.02 c 0.08,0.67 -0.23,0.99 -0.94,0.97 c 0.3,-0.34 0.61,-0.66 0.94,-0.97 Z M 392,169.92 c -0.24,0.98 -0.89,1.35 -1.94,1.09 c 0.37,-0.82 1.02,-1.18 1.94,-1.09 Z M 293.3,184.1 c -0.38,0.42 -0.85,0.61 -1.42,0.57 c 0.34,-0.46 0.81,-0.65 1.42,-0.57 Z M 267.27,198.98 c -0.21,0.42 -0.52,0.74 -0.93,0.96 c -0.11,-0.69 0.2,-1.01 0.93,-0.96 Z M 324.1,224.08 c -1.32,1.63 -3.01,2.63 -5.07,2.98 c 0.19,-1.41 3.69,-3.27 5.07,-2.98 Z M 252.98,232.02 c -0.39,0.83 -1.05,1.14 -2,0.93 c 0.44,-0.77 1.1,-1.08 2,-0.93 Z M 167.98,309.98 c -0.49,1.51 -3.5,2.93 -5.02,2.95 c 0.87,-1.53 3.26,-3.03 5.02,-2.95 Z M 91.05,407.1 c -0.56,1.29 -3.6,2.75 -5.02,2.84 c 0.5,-1.41 3.47,-3.38 5.02,-2.84 Z M 88,446.94 c -0.59,1.38 -1.62,2.1 -3.09,2.17 c 0.62,-1.29 1.66,-2.01 3.09,-2.17 Z"/></g>
<g><path fill="#dd4752" fill-opacity="0.435" stroke="#dd4752" stroke-width="0.5" stroke-opacity="0.435" d="M 468.86,65.31 c -0.25,0.5 -0.67,0.72 -1.27,0.65 c 0.34,-0.37 0.77,-0.59 1.27,-0.65 Z M 489.36,71.08 c -0.39,0.27 -0.8,0.5 -1.22,0.72 c 0.15,-0.6 0.56,-0.84 1.22,-0.72 Z M 442.88,80.3 c -0.21,0.55 -0.63,0.77 -1.26,0.64 c 0.4,-0.25 0.82,-0.46 1.26,-0.64 Z M 406.04,91.1 c -0.68,0.65 -2,3.09 -3.02,1.59 c 0.71,-1.04 1.71,-1.57 3.02,-1.59 Z M 416.94,95.19 c -0.23,0.56 -0.67,0.8 -1.32,0.73 c 0.42,-0.28 0.86,-0.52 1.32,-0.73 Z M 390.94,110.28 c -0.21,0.57 -0.65,0.82 -1.3,0.73 c 0.41,-0.29 0.84,-0.54 1.3,-0.73 Z M 430.03,118.99 c -0.94,1.52 -3.23,3.1 -5.08,2.99 c 0.25,-1.23 3.78,-3.18 5.08,-2.99 Z M 372.05,121.27 c -0.33,0.48 -0.79,0.71 -1.39,0.68 c 0.43,-0.3 0.89,-0.53 1.39,-0.68 Z M 345.86,136.37 c -0.17,0.53 -0.55,0.76 -1.15,0.68 c 0.31,-0.35 0.7,-0.58 1.15,-0.68 Z M 117.01,145 c 0.35,-1.29 1.18,-1.96 2.5,-2.01 c 1.23,1.12 -1.86,1.66 -2.5,2.01 Z M 319.96,151.37 c -0.25,0.5 -0.67,0.69 -1.27,0.55 c 0.37,-0.32 0.79,-0.5 1.27,-0.55 Z M 316.09,228.98 c -0.05,0.92 -1.51,1.71 -2.11,0.71 c 0.54,-0.67 1.25,-0.91 2.11,-0.71 Z M 256.07,229.93 c -0.66,1.26 -1.69,1.96 -3.09,2.09 c 0.52,-1.37 1.55,-2.07 3.09,-2.09 Z M 170.96,307.94 c 0.27,-0.66 1.4,-1.58 1.97,-0.67 c -0.51,0.62 -1.17,0.84 -1.97,0.67 Z M 94.01,404.95 c -0.1,-0.92 1.36,-1.59 1.89,-0.64 c -0.49,0.6 -1.12,0.81 -1.89,0.64 Z M 88,446.94 c -0.07,-0.91 1.39,-1.56 1.91,-0.64 c -0.5,0.6 -1.13,0.81 -1.91,0.64 Z"/></g>
<g><path fill="#dd4752" fill-opacity="0.384" stroke="#dd4752" stroke-width="0.5" stroke-opacity="0.384" d="M 456.35,89.97 c -0.36,0.34 -0.78,0.56 -1.26,0.67 c 0.24,-0.49 0.67,-0.71 1.26,-0.67 Z M 430.38,105.03 c -0.39,0.35 -0.83,0.61 -1.32,0.79 c 0.21,-0.58 0.65,-0.84 1.32,-0.79 Z M 404.26,120.14 c -0.35,0.31 -0.76,0.52 -1.22,0.63 c 0.23,-0.49 0.64,-0.7 1.22,-0.63 Z M 378.29,134.99 c -0.33,0.38 -0.74,0.62 -1.24,0.7 c 0.21,-0.54 0.62,-0.78 1.24,-0.7 Z M 352.33,150.08 c -0.44,0.36 -0.94,0.55 -1.5,0.58 c 0.41,-0.4 0.91,-0.59 1.5,-0.58 Z M 326.26,165 c -0.36,0.45 -0.82,0.71 -1.39,0.78 c 0.27,-0.57 0.73,-0.83 1.39,-0.78 Z M 368.08,171.03 c -0.43,0.86 -1.14,1.2 -2.13,1.02 c 0.37,-0.95 1.08,-1.29 2.13,-1.02 Z M 255.93,215.97 c -0.4,1.52 -3.38,2.97 -4.9,3.07 c 0.43,-1.57 3.34,-3.03 4.9,-3.07 Z M 162.99,300.1 c -1.26,1.64 -2.92,2.59 -4.99,2.85 c 1.25,-1.68 2.91,-2.63 4.99,-2.85 Z M 62.03,400.96 c -0.62,1.22 -1.62,1.92 -2.98,2.09 c 0.32,-1.57 1.32,-2.27 2.98,-2.09 Z M 69.93,444.08 c -0.23,1.29 -3.63,2.91 -4.92,2.97 c 0.73,-1.53 3.2,-3.26 4.92,-2.97 Z"/></g>
<g><path fill="#dd4752" fill-opacity="0.42" stroke="#dd4752" stroke-width="0.5" stroke-opacity="0.42" d="M 488.2,54.22 c -0.36,0.49 -0.85,0.74 -1.48,0.74 c 0.46,-0.31 0.95,-0.56 1.48,-0.74 Z M 461.93,69.33 c -0.22,0.52 -0.63,0.7 -1.23,0.56 c 0.36,-0.31 0.77,-0.49 1.23,-0.56 Z M 135.12,107.87 c -0.33,0.77 -2.13,2.98 -2.9,1.74 c 0.67,-1.04 1.64,-1.62 2.9,-1.74 Z M 411.39,116.01 c -0.4,0.3 -0.84,0.56 -1.3,0.76 c 0.24,-0.54 0.67,-0.79 1.3,-0.76 Z M 364.86,125.18 c -0.16,0.58 -0.57,0.82 -1.22,0.7 c 0.38,-0.27 0.79,-0.51 1.22,-0.7 Z M 385.27,131.1 c -0.34,0.3 -0.73,0.52 -1.17,0.66 c 0.16,-0.54 0.55,-0.76 1.17,-0.66 Z M 359.37,146.05 c -0.39,0.32 -0.83,0.53 -1.32,0.63 c 0.26,-0.49 0.7,-0.71 1.32,-0.63 Z M 333.28,160.97 c -0.36,0.34 -0.77,0.61 -1.24,0.8 c 0.21,-0.55 0.62,-0.81 1.24,-0.8 Z M 293.84,166.21 c -0.17,0.57 -0.58,0.79 -1.23,0.67 c 0.4,-0.24 0.81,-0.47 1.23,-0.67 Z M 123.68,170.23 c 0.35,-0.8 0.96,-1.24 1.84,-1.31 c 1.11,0.89 -1.32,1.32 -1.84,1.31 Z M 390.06,171.01 c -0.74,1.12 -1.77,1.81 -3.11,2.05 c 0.42,-1.57 1.46,-2.25 3.11,-2.05 Z M 307.26,176.08 c -0.36,0.31 -0.77,0.5 -1.25,0.56 c 0.28,-0.43 0.7,-0.62 1.25,-0.56 Z M 281.36,191.05 c -0.35,0.39 -0.78,0.62 -1.29,0.7 c 0.21,-0.58 0.64,-0.82 1.29,-0.7 Z M 255.39,206.06 c -0.35,0.37 -0.77,0.58 -1.28,0.62 c 0.22,-0.54 0.64,-0.75 1.28,-0.62 Z M 236.72,213.9 c -0.02,0.56 -0.31,0.85 -0.88,0.85 c 0.27,-0.3 0.57,-0.59 0.88,-0.85 Z M 286,260.94 c -0.77,1.63 -3.16,3.09 -4.97,3.12 c 0.53,-1.53 3.38,-3.03 4.97,-3.12 Z M 64.06,400.02 c -0.35,0.91 -1.03,1.22 -2.03,0.94 c 0.39,-0.85 1.07,-1.16 2.03,-0.94 Z"/></g>
<g><path fill="#c94149" fill-opacity="0.176" stroke="#c94149" stroke-width="0.5" stroke-opacity="0.176" d="M 343.68,211.2 c 0,0.74 0.35,1.22 1.05,1.46 c -4.52,2.65 -9.08,5.3 -13.68,7.95 c -0.65,0.34 -1.33,0.43 -2.04,0.27 c 0.42,-0.67 0.96,-1.21 1.61,-1.64 c 4.27,-2.82 8.62,-5.5 13.06,-8.04 Z"/></g>
<g><path fill="#e0424c" fill-opacity="0.239" stroke="#e0424c" stroke-width="0.5" stroke-opacity="0.239" d="M 130.02,346.96 c -0.2,0.53 -0.54,0.95 -1.02,1.26 c -5.35,3.21 -10.66,6.48 -15.93,9.81 c -0.01,-0.46 -0.02,-0.91 -0.03,-1.37 c 0.44,-0.58 0.97,-1.07 1.58,-1.47 c 4.66,-2.69 9.31,-5.4 13.93,-8.13 c 0.48,-0.15 0.97,-0.18 1.47,-0.1 Z"/></g>
<g><path fill="#c23742" fill-opacity="0.161" stroke="#c23742" stroke-width="0.5" stroke-opacity="0.161" d="M 454.61,103.34 c 0.1,0.67 0.48,1.1 1.13,1.29 c -4.06,2.39 -8.17,4.75 -12.31,7.11 c -0.04,-0.27 -0.08,-0.54 -0.12,-0.81 c -0.06,-0.56 0.16,-0.96 0.67,-1.22 c 3.5,-2.21 7.04,-4.34 10.63,-6.37 Z"/></g>
<g><path fill="#dd4752" fill-opacity="0.361" stroke="#dd4752" stroke-width="0.5" stroke-opacity="0.361" d="M 450.09,76.22 c -0.27,0.59 -0.75,0.86 -1.43,0.8 c 0.4,-0.4 0.88,-0.66 1.43,-0.8 Z M 475.31,79.04 c -0.4,0.46 -0.91,0.67 -1.52,0.62 c 0.38,-0.47 0.89,-0.67 1.52,-0.62 Z M 405.17,102.26 c -0.34,0.48 -0.81,0.72 -1.43,0.73 c 0.37,-0.45 0.85,-0.69 1.43,-0.73 Z M 379.23,117.25 c -0.42,0.43 -0.95,0.63 -1.57,0.59 c 0.47,-0.34 0.99,-0.54 1.57,-0.59 Z M 333.75,143.1 c 0.01,0.71 -0.36,1.02 -1.1,0.91 c 0.35,-0.32 0.72,-0.62 1.1,-0.91 Z M 308.13,158.21 c -0.29,0.55 -0.76,0.8 -1.42,0.76 c 0.4,-0.39 0.87,-0.64 1.42,-0.76 Z M 373.05,168.01 c -1.27,1.63 -2.93,2.64 -4.97,3.02 c 0.73,-1.72 3.13,-3.04 4.97,-3.02 Z M 248.39,210.06 c -0.46,0.28 -0.93,0.53 -1.42,0.75 c 0.29,-0.55 0.76,-0.8 1.42,-0.75 Z M 210.97,224.06 c 0.43,-1.19 1.26,-1.88 2.49,-2.07 c 0.74,1.43 -1.55,1.72 -2.49,2.07 Z M 277.66,266.06 c 0.2,-0.71 0.6,-0.91 1.22,-0.61 c -0.29,0.42 -0.7,0.62 -1.22,0.61 Z M 294.03,268.98 c -0.61,1.34 -1.65,1.99 -3.12,1.93 c 0.67,-1.23 1.71,-1.88 3.12,-1.93 Z"/></g>
<g><path fill="#dd4752" fill-opacity="0.306" stroke="#dd4752" stroke-width="0.5" stroke-opacity="0.306" d="M 468.25,83.23 c -0.41,0.27 -0.83,0.51 -1.26,0.74 c 0.19,-0.6 0.61,-0.85 1.26,-0.74 Z M 48.87,95.98 c 0.39,-0.83 2.14,-2.76 2.97,-1.63 c -0.68,1.05 -1.67,1.59 -2.97,1.63 Z M 390.3,128.26 c -0.37,0.34 -0.79,0.6 -1.25,0.77 c 0.11,-0.7 0.52,-0.96 1.25,-0.77 Z M 364.3,143.26 c -0.37,0.34 -0.79,0.6 -1.25,0.78 c 0.12,-0.69 0.54,-0.95 1.25,-0.78 Z M 338.31,158.26 c -0.37,0.34 -0.79,0.6 -1.26,0.77 c 0.13,-0.71 0.55,-0.96 1.26,-0.77 Z M 288.98,169 c -0.16,0.65 -0.58,0.89 -1.26,0.72 c 0.41,-0.25 0.83,-0.49 1.26,-0.72 Z M 250.98,232.95 c -0.57,1.32 -1.58,2.03 -3.03,2.13 c 0.51,-1.4 1.52,-2.11 3.03,-2.13 Z M 291.01,257.93 c -0.61,1.66 -3.28,3.08 -5.01,3.01 c 1.27,-1.68 2.94,-2.68 5.01,-3.01 Z M 59.05,403.05 c -0.39,0.87 -1.08,1.17 -2.06,0.93 c 0.34,-0.96 1.03,-1.27 2.06,-0.93 Z"/></g>
<g><path fill="#c63e4c" fill-opacity="0.165" stroke="#c63e4c" stroke-width="0.5" stroke-opacity="0.165" d="M 157.82,316.06 c -0.01,0.58 -0.28,1.01 -0.8,1.28 c -3.54,2.17 -7.07,4.34 -10.6,6.52 c -0.39,-0.52 -0.88,-0.91 -1.47,-1.17 c 3.71,-2.02 7.37,-4.13 10.99,-6.34 c 0.6,-0.31 1.22,-0.41 1.88,-0.29 Z"/></g>
<g><path fill="#d44551" fill-opacity="0.278" stroke="#d44551" stroke-width="0.5" stroke-opacity="0.278" d="M 406.62,160.09 c 0.19,0.39 0.39,0.78 0.58,1.17 c -0.64,0.73 -1.39,1.32 -2.25,1.75 c -0.42,0.19 -0.76,0.48 -1.03,0.86 c -2.46,1.39 -4.94,2.74 -7.46,4.03 c -0.47,0.12 -0.93,0.13 -1.41,0.02 c 0.14,-0.52 0.45,-0.92 0.93,-1.18 c 3.6,-2.15 7.15,-4.37 10.64,-6.65 Z"/></g>
<g><path fill="#dd4852" fill-opacity="0.231" stroke="#dd4852" stroke-width="0.5" stroke-opacity="0.231" d="M 439.91,112.93 c -0.58,1.82 -3.21,3 -4.97,3.1 c 1.23,-1.72 2.88,-2.75 4.97,-3.1 Z M 246.33,211.3 c -0.38,0.32 -0.8,0.57 -1.26,0.77 c 0.16,-0.65 0.58,-0.91 1.26,-0.77 Z M 246.01,236.08 c -1.14,1.97 -4.77,3.66 -6.74,4.8 c -0.08,-0.39 -0.15,-0.78 -0.23,-1.16 c 1.53,-1.22 3.19,-2.29 4.96,-3.22 c 0.63,-0.33 1.3,-0.47 2.01,-0.42 Z"/></g>
<g><path fill="#dd4753" fill-opacity="0.322" stroke="#dd4753" stroke-width="0.5" stroke-opacity="0.322" d="M 494.28,68.26 c -0.36,0.34 -0.77,0.6 -1.24,0.77 c 0.13,-0.67 0.55,-0.92 1.24,-0.77 Z M 431.01,87.02 c -0.18,0.61 -0.59,0.86 -1.25,0.76 c 0.41,-0.27 0.83,-0.52 1.25,-0.76 Z M 355.09,114.04 c -0.5,0.75 -1.21,1.06 -2.11,0.93 c -0.13,-1.16 1.37,-1.09 2.11,-0.93 Z M 434.94,116.03 c -1.22,1.68 -2.85,2.67 -4.91,2.96 c 0.79,-1.58 3.15,-3.04 4.91,-2.96 Z M 395.05,167.92 c -0.58,1.34 -1.6,2 -3.05,2 c 0.6,-1.3 1.62,-1.96 3.05,-2 Z M 161.25,191 c -0.1,-0.42 -0.19,-0.84 -0.29,-1.25 c 0.3,-0.62 0.8,-0.91 1.5,-0.86 c 0.89,0.9 -0.63,1.59 -1.21,2.11 Z M 242.89,208.89 c -0.15,0.59 -0.52,0.9 -1.14,0.95 c 0.34,-0.37 0.72,-0.68 1.14,-0.95 Z"/></g>
<g><path fill="#dd4752" fill-opacity="0.463" stroke="#dd4752" stroke-width="0.5" stroke-opacity="0.463" d="M 114.01,72.9 c -0.56,1.08 -1.51,2.62 -2.86,1.69 c 0.24,-1.12 1.95,-1.43 2.86,-1.69 Z M 392.29,126.99 c -0.34,0.35 -0.74,0.61 -1.2,0.77 c 0.17,-0.55 0.57,-0.81 1.2,-0.77 Z M 366.37,141.98 c -0.38,0.36 -0.82,0.6 -1.32,0.72 c 0.21,-0.58 0.65,-0.82 1.32,-0.72 Z M 142.65,188.2 c 0.42,-1.43 1.39,-2.19 2.88,-2.27 c 1.34,1.18 -2.21,2.02 -2.88,2.27 Z M 262.68,212.16 c 0.06,-0.53 0.35,-0.87 0.87,-1.01 c 1.19,0.46 -0.71,0.94 -0.87,1.01 Z M 288.92,271.89 c -0.48,1.33 -1.44,2.06 -2.88,2.2 c 0.44,-1.35 1.4,-2.08 2.88,-2.2 Z M 138.01,341.91 c -0.58,1.34 -1.58,2.04 -2.99,2.09 c 0.11,-1.44 1.87,-1.76 2.99,-2.09 Z"/></g>
<g><path fill="#dd4752" fill-opacity="0.369" stroke="#dd4752" stroke-width="0.5" stroke-opacity="0.369" d="M 122.37,157.99 c -0.13,-0.45 -0.26,-0.9 -0.38,-1.35 c 0.8,-0.71 4.01,-3.57 4.8,-2.24 c -1.43,1.25 -2.9,2.44 -4.42,3.59 Z M 300.33,180.01 c -0.39,0.43 -0.87,0.69 -1.45,0.76 c 0.3,-0.55 0.78,-0.81 1.45,-0.76 Z M 274.29,194.97 c -0.45,0.37 -0.95,0.63 -1.51,0.8 c 0.36,-0.53 0.86,-0.8 1.51,-0.8 Z M 290.91,270.91 c -0.39,0.85 -1.05,1.18 -1.99,0.98 c 0.46,-0.73 1.12,-1.06 1.99,-0.98 Z M 135.02,344 c -0.43,0.78 -1.1,1.1 -2,0.96 c 0.44,-0.77 1.11,-1.09 2,-0.96 Z M 145.94,418.9 c 0.53,-1.14 1.41,-1.8 2.65,-1.98 c 1.44,1.41 -1.63,2.14 -2.65,1.98 Z"/></g>
<g><path fill="#df4250" fill-opacity="0.231" stroke="#df4250" stroke-width="0.5" stroke-opacity="0.231" d="M 65.01,447.05 c -0.87,1.97 -7.98,5.42 -9.92,7.01 c -0.11,-0.72 -0.53,-1.13 -1.26,-1.25 c 3.08,-1.74 6.13,-3.52 9.16,-5.34 c 0.63,-0.34 1.31,-0.47 2.02,-0.42 Z"/></g>
<g><path fill="#de4651" fill-opacity="0.302" stroke="#de4651" stroke-width="0.5" stroke-opacity="0.302" d="M 64.12,15.32 c 0.33,-0.16 0.66,-0.32 0.99,-0.48 c -0.15,0.73 -0.61,1.09 -1.37,1.09 c 0.13,-0.21 0.25,-0.41 0.38,-0.61 Z M 408.02,90.05 c -0.38,0.82 -1.04,1.17 -1.98,1.05 c 0.23,-1.05 0.88,-1.4 1.98,-1.05 Z M 340.97,138.99 c -0.13,0.71 -0.55,0.95 -1.26,0.73 c 0.42,-0.25 0.84,-0.49 1.26,-0.73 Z M 371.29,139.27 c -0.37,0.33 -0.79,0.58 -1.26,0.75 c 0.16,-0.65 0.58,-0.9 1.26,-0.75 Z M 345.29,154.27 c -0.37,0.33 -0.79,0.58 -1.25,0.75 c 0.13,-0.7 0.55,-0.95 1.25,-0.75 Z M 312.3,173.26 c -0.37,0.34 -0.78,0.6 -1.25,0.78 c 0.1,-0.72 0.52,-0.98 1.25,-0.78 Z M 286.3,188.27 c -0.37,0.33 -0.78,0.59 -1.25,0.76 c 0.11,-0.72 0.53,-0.97 1.25,-0.76 Z M 260.3,203.26 c -0.37,0.34 -0.78,0.6 -1.25,0.78 c 0.15,-0.66 0.57,-0.92 1.25,-0.78 Z M 241.29,214.27 c -0.37,0.33 -0.8,0.6 -1.26,0.79 c 0.13,-0.71 0.55,-0.98 1.26,-0.79 Z M 56.99,403.98 c -0.74,1.62 -3.17,2.99 -4.92,3.02 c 0.8,-1.72 3.1,-2.9 4.92,-3.02 Z"/></g>
<g><path fill="#b6383e" fill-opacity="0.18" stroke="#b6383e" stroke-width="0.5" stroke-opacity="0.18" d="M 121.31,66.97 c 0.99,0.12 1.48,0.67 1.48,1.65 c -2.1,0.83 -6.8,4.51 -8.78,4.28 c 0.22,-0.51 0.54,-0.94 0.96,-1.29 c 2.09,-1.58 4.2,-3.12 6.34,-4.64 Z"/></g>
<g><path fill="#ba333a" fill-opacity="0.157" stroke="#ba333a" stroke-width="0.5" stroke-opacity="0.157" d="M 66.9,489.02 c -0.07,1.25 -4.01,3.24 -4.86,4.41 c -0.89,0.82 -1.92,1.35 -3.08,1.59 c -0.36,-0.28 -0.6,-0.64 -0.73,-1.08 c 0.15,-0.56 0.5,-0.95 1.06,-1.19 c 1.76,-0.58 6.01,-3.99 7.61,-3.73 Z"/></g>
<g><path fill="#dd4852" fill-opacity="0.286" stroke="#dd4852" stroke-width="0.5" stroke-opacity="0.286" d="M 463.96,67.97 c -0.18,0.63 -0.61,0.89 -1.27,0.77 c 0.37,-0.33 0.8,-0.59 1.27,-0.77 Z M 295.97,268.08 c 0.47,-1.58 3.14,-3.04 4.58,-3.18 c 1.36,1.49 -3.55,3.09 -4.58,3.18 Z M 158,302.95 c -0.36,1.15 -4.28,4.12 -5.07,2.76 c 0.41,-1.37 3.67,-2.68 5.07,-2.76 Z M 70.87,472.19 c 0.41,-0.16 0.75,-0.09 1.03,0.21 c -0.48,0.48 -0.82,0.4 -1.03,-0.21 Z"/></g>
<g><path fill="#c23f46" fill-opacity="0.169" stroke="#c23f46" stroke-width="0.5" stroke-opacity="0.169" d="M 237.61,226.33 c 0.03,0.24 0.06,0.49 0.09,0.74 c 0.07,0.56 -0.16,0.95 -0.68,1.2 c -1.89,1.2 -3.8,2.34 -5.75,3.41 c -0.01,-0.69 -0.36,-1.12 -1.03,-1.29 c 2.45,-1.35 4.91,-2.7 7.37,-4.06 Z"/></g>
<g><path fill="#dd4752" fill-opacity="0.451" stroke="#dd4752" stroke-width="0.5" stroke-opacity="0.451" d="M 133.22,93.76 c -0.42,0.85 -2.15,3.12 -3.12,1.92 c 0.23,-1.26 2.12,-1.57 3.12,-1.92 Z M 355.09,114.04 c 0.3,-1.29 1.13,-1.97 2.51,-2.04 c 1.36,1.02 -1.76,2.05 -2.51,2.04 Z M 340.36,157.02 c -0.4,0.26 -0.82,0.5 -1.25,0.71 c 0.16,-0.59 0.57,-0.83 1.25,-0.71 Z M 314.27,172.06 c -0.36,0.27 -0.76,0.49 -1.17,0.67 c 0.17,-0.55 0.56,-0.77 1.17,-0.67 Z M 386.95,173.06 c 0.14,0.94 -1.44,1.59 -1.97,0.63 c 0.51,-0.65 1.17,-0.85 1.97,-0.63 Z M 262.35,202.1 c -0.42,0.3 -0.86,0.54 -1.34,0.72 c 0.25,-0.55 0.7,-0.79 1.34,-0.72 Z M 236.26,217.22 c -0.49,0.25 -1.01,0.43 -1.55,0.53 c 0.4,-0.48 0.91,-0.65 1.55,-0.53 Z"/></g>
<g><path fill="#dd4852" fill-opacity="0.4" stroke="#dd4852" stroke-width="0.5" stroke-opacity="0.4" d="M 482.37,75.13 c -0.39,0.34 -0.85,0.52 -1.37,0.52 c 0.33,-0.45 0.78,-0.62 1.37,-0.52 Z M 319.03,227.06 c -0.7,1.05 -1.67,1.69 -2.94,1.92 c 0.31,-1.58 1.29,-2.22 2.94,-1.92 Z M 170.96,307.94 c -0.59,1.29 -1.58,1.97 -2.98,2.04 c 0.61,-1.23 1.6,-1.91 2.98,-2.04 Z M 94.01,404.95 c -0.66,1.19 -1.65,1.91 -2.96,2.15 c 0.5,-1.34 1.49,-2.06 2.96,-2.15 Z"/></g>
<g><path fill="#b93b47" fill-opacity="0.165" stroke="#b93b47" stroke-width="0.5" stroke-opacity="0.165" d="M 238,240.02 c -0.09,0.41 -0.18,0.83 -0.27,1.24 c -0.72,1.58 -4.67,3.81 -6.4,4.37 c -0.39,-0.42 -0.85,-0.74 -1.38,-0.94 c 2.66,-1.57 5.34,-3.13 8.05,-4.67 Z"/></g>
<g><path fill="#dd4853" fill-opacity="0.212" stroke="#dd4853" stroke-width="0.5" stroke-opacity="0.212" d="M 241.75,209.84 c 0.09,0.7 -0.22,1.02 -0.93,0.97 c 0.31,-0.32 0.63,-0.65 0.93,-0.97 Z M 296.17,254.99 c -1.17,1.67 -3.07,3.03 -5.16,2.94 c 1.27,-1.79 2.99,-2.77 5.16,-2.94 Z M 80.99,413.07 c -0.42,0.73 -0.96,1.35 -1.63,1.86 c -0.12,-0.36 -0.25,-0.72 -0.38,-1.08 c 0.4,-0.81 1.07,-1.07 2.01,-0.78 Z"/></g>
<g><path fill="#db4652" fill-opacity="0.855" d="M 440.37,387.07 c -0.64,3.79 -17.32,9.81 -20.55,13.3 c -0.45,0.3 -0.9,0.32 -1.37,0.09 c 2.37,-2.54 6.7,-6.27 9.77,-7.72 c 1.47,-1.03 5.06,-4.28 6.82,-4.04 c 2.01,0.35 3.44,-1.28 5.33,-1.63 Z"/></g>
<g><path fill="#db4653" fill-opacity="0.278" stroke="#db4653" stroke-width="0.5" stroke-opacity="0.278" d="M 57.1,105.06 c -0.03,-0.48 -0.06,-0.96 -0.08,-1.44 c 0.77,-0.82 3.89,-3.49 4.81,-2.29 c -1.47,1.36 -3.05,2.6 -4.73,3.73 Z"/></g>
<g><path fill="#db4650" fill-opacity="0.18" stroke="#db4650" stroke-width="0.5" stroke-opacity="0.18" d="M 77.64,414.08 c 0.14,0.39 0.28,0.79 0.41,1.18 c -1.27,0.98 -2.61,1.89 -4.01,2.74 c -0.03,-0.43 -0.06,-0.87 -0.09,-1.31 c 1.07,-1.08 2.31,-1.95 3.69,-2.61 Z"/></g>
<g><path fill="#dd4652" fill-opacity="0.314" stroke="#dd4652" stroke-width="0.5" stroke-opacity="0.314" d="M 446.05,34.08 c -0.42,0.83 -2.1,2.66 -2.95,1.59 c 0.63,-1.16 1.62,-1.69 2.95,-1.59 Z M 442.29,98.28 c -0.37,0.33 -0.78,0.58 -1.25,0.75 c 0.12,-0.69 0.54,-0.94 1.25,-0.75 Z M 416.29,113.28 c -0.37,0.33 -0.78,0.58 -1.25,0.76 c 0.15,-0.66 0.56,-0.92 1.25,-0.76 Z M 359.97,127.98 c -0.18,0.62 -0.6,0.86 -1.26,0.73 c 0.41,-0.26 0.83,-0.5 1.26,-0.73 Z"/></g>
<g><path fill="#dd4650" fill-opacity="0.259" stroke="#dd4650" stroke-width="0.5" stroke-opacity="0.259" d="M 352.98,114.97 c -0.56,1.38 -1.56,2.04 -3.01,1.97 c 0.64,-1.21 1.64,-1.86 3.01,-1.97 Z M 253.32,207.27 c -0.38,0.33 -0.8,0.59 -1.26,0.78 c 0.16,-0.66 0.58,-0.92 1.26,-0.78 Z M 235.84,214.75 c 0.12,0.8 -0.22,1.15 -1.01,1.07 c 0.33,-0.36 0.67,-0.72 1.01,-1.07 Z M 69.04,473.93 c 0.13,-0.45 0.39,-0.54 0.79,-0.26 c -0.2,0.23 -0.47,0.32 -0.79,0.26 Z"/></g>
<g><path fill="#e23d43" fill-opacity="0.141" stroke="#e23d43" stroke-width="0.5" stroke-opacity="0.141" d="M 210.97,224.06 c -0.6,1.18 -1.43,2.18 -2.5,2.98 c 0.07,-1.1 -0.44,-1.56 -1.53,-1.4 c 1.19,-0.97 2.53,-1.5 4.03,-1.58 Z"/></g>
<g><path fill="#b83a45" fill-opacity="0.141" stroke="#b83a45" stroke-width="0.5" stroke-opacity="0.141" d="M 183.86,192.09 c 0.12,1.12 -1.78,2.2 -2.47,2.95 c 0.21,-0.98 -0.16,-1.54 -1.12,-1.66 c 1.03,-0.88 2.22,-1.31 3.59,-1.29 Z"/></g>
<g><path fill="#dd4652" fill-opacity="0.341" stroke="#dd4652" stroke-width="0.5" stroke-opacity="0.341" d="M 319.4,169.01 c -0.4,0.46 -0.9,0.7 -1.51,0.73 c 0.36,-0.49 0.86,-0.74 1.51,-0.73 Z M 255.77,198.05 c -0.05,0.69 -0.43,1.02 -1.15,0.97 c 0.34,-0.37 0.72,-0.7 1.15,-0.97 Z M 133.02,344.96 c -0.56,1.34 -1.56,2 -3,2 c 0.58,-1.28 1.58,-1.95 3,-2 Z"/></g>
<g><path fill="#e33b44" fill-opacity="0.208" stroke="#e33b44" stroke-width="0.5" stroke-opacity="0.208" d="M 48.87,95.98 c -0.55,1.37 -1.5,2.38 -2.85,3.03 c -0.05,-0.65 -0.39,-1.03 -1.03,-1.14 c 1.03,-1.17 2.32,-1.8 3.88,-1.89 Z"/></g>
<g><path fill="#dd4551" fill-opacity="0.196" stroke="#dd4551" stroke-width="0.5" stroke-opacity="0.196" d="M 412.73,86.1 c 0.1,0.38 0.19,0.76 0.29,1.14 c -0.48,0.71 -1.17,0.99 -2.07,0.83 c 0.34,-0.88 0.94,-1.54 1.78,-1.97 Z M 441.69,110.99 c 0.13,0.42 0.25,0.83 0.38,1.24 c -0.54,0.71 -1.26,0.94 -2.16,0.7 c 0.48,-0.75 1.07,-1.4 1.78,-1.94 Z"/></g>
<g><path fill="#df4853" fill-opacity="0.278" d="M 487.31,72.27 c -0.37,0.33 -0.79,0.59 -1.25,0.78 c 0.12,-0.71 0.54,-0.97 1.25,-0.78 Z M 437.95,82.97 c -0.1,0.74 -0.52,0.99 -1.26,0.74 c 0.38,-0.32 0.8,-0.57 1.26,-0.74 Z M 461.31,87.27 c -0.38,0.33 -0.79,0.59 -1.26,0.77 c 0.14,-0.68 0.55,-0.93 1.26,-0.77 Z M 418.94,93.95 c -0.13,0.7 -0.54,0.96 -1.25,0.78 c 0.37,-0.33 0.79,-0.59 1.25,-0.78 Z M 321.94,149.96 c -0.1,0.74 -0.52,1 -1.26,0.77 c 0.38,-0.33 0.8,-0.58 1.26,-0.77 Z"/></g>
<g><path fill="#dc4653" fill-opacity="0.396" d="M 397.89,106.19 c -0.16,0.6 -0.56,0.88 -1.22,0.84 c 0.4,-0.29 0.81,-0.57 1.22,-0.84 Z M 327.29,147.35 c -0.51,0.35 -1.07,0.55 -1.69,0.62 c 0.52,-0.35 1.08,-0.55 1.69,-0.62 Z M 300.83,162.25 c -0.14,0.6 -0.53,0.84 -1.19,0.72 c 0.37,-0.28 0.76,-0.52 1.19,-0.72 Z M 258.07,214.98 c -0.39,0.92 -1.1,1.25 -2.14,0.99 c 0.46,-0.85 1.17,-1.18 2.14,-0.99 Z"/></g>
<g><path fill="#dd4651" fill-opacity="0.22" stroke="#dd4651" stroke-width="0.5" stroke-opacity="0.22" d="M 447.75,31.98 c 0.1,0.45 0.21,0.9 0.31,1.34 c -0.52,0.6 -1.19,0.86 -2.01,0.76 c 0.35,-0.88 0.91,-1.58 1.7,-2.1 Z M 247.95,235.08 c -0.44,0.7 -1.09,1.03 -1.94,1 c 0.35,-0.88 1,-1.21 1.94,-1 Z"/></g>
<g><path fill="#dd4651" fill-opacity="0.408" stroke="#dd4651" stroke-width="0.5" stroke-opacity="0.408" d="M 183.86,192.09 c 0.52,-1.08 1.34,-1.78 2.47,-2.08 c 0.67,1.37 -1.63,1.64 -2.47,2.08 Z M 249.78,202.92 c -0.09,0.59 -0.44,0.91 -1.04,0.97 c 0.31,-0.36 0.66,-0.68 1.04,-0.97 Z"/></g>
<g><path fill="#db4552" fill-opacity="0.208" stroke="#db4552" stroke-width="0.5" stroke-opacity="0.208" d="M 346.64,118.18 c 0.11,0.35 0.22,0.71 0.33,1.06 c -0.48,0.77 -1.13,1.35 -1.93,1.76 c 0.02,-0.46 0.03,-0.91 0.05,-1.36 c 0.44,-0.57 0.95,-1.06 1.55,-1.46 Z"/></g>
<g><path fill="#dd4853" fill-opacity="0.349" d="M 449.39,94.03 c -0.51,0.3 -1.07,0.53 -1.65,0.67 c 0.44,-0.47 0.99,-0.69 1.65,-0.67 Z M 423.36,108.98 c -0.45,0.43 -0.99,0.69 -1.6,0.8 c 0.38,-0.54 0.92,-0.81 1.6,-0.8 Z M 397.4,124.08 c -0.45,0.43 -0.98,0.66 -1.61,0.69 c 0.39,-0.54 0.92,-0.77 1.61,-0.69 Z M 353.12,132.31 c -0.35,0.47 -0.84,0.69 -1.46,0.65 c 0.44,-0.33 0.93,-0.55 1.46,-0.65 Z"/></g>
<g><path fill="#de4651" fill-opacity="0.271" d="M 409.31,117.27 c -0.37,0.33 -0.79,0.59 -1.26,0.77 c 0.16,-0.66 0.58,-0.92 1.26,-0.77 Z M 366.96,123.97 c -0.15,0.68 -0.57,0.93 -1.27,0.76 c 0.37,-0.33 0.8,-0.58 1.27,-0.76 Z M 383.32,132.27 c -0.38,0.33 -0.8,0.59 -1.26,0.78 c 0.14,-0.68 0.56,-0.94 1.26,-0.78 Z M 248.74,203.89 c 0.15,0.75 -0.15,1.06 -0.91,0.93 c 0.29,-0.33 0.59,-0.64 0.91,-0.93 Z"/></g>
<g><path fill="#b7404a" fill-opacity="0.396" d="M 67.24,4.68 c -1.16,0.26 -2.33,0.35 -3.52,0.28 c 0.43,-1.44 2.85,-1.42 3.52,-0.28 Z"/></g>
<g><path fill="#de4551" fill-opacity="0.208" stroke="#de4551" stroke-width="0.5" stroke-opacity="0.208" d="M 379.76,163.04 c 0.08,0.44 0.17,0.88 0.25,1.31 c -0.53,0.57 -1.19,0.8 -1.99,0.7 c 0.31,-0.9 0.89,-1.57 1.74,-2.01 Z"/></g>
<g><path fill="#bf424b" fill-opacity="0.576" d="M 327.26,128.93 c 0.13,0.14 0.25,0.28 0.37,0.41 c 0.37,0.86 -0.78,0.94 -1.36,1.01 c -0.06,-0.76 0.27,-1.23 0.99,-1.42 Z M 326.27,130.35 c -0.45,0.36 -0.98,0.58 -1.57,0.66 c 0.39,-0.54 0.91,-0.76 1.57,-0.66 Z"/></g>
<g><path fill="#de4851" fill-opacity="0.212" stroke="#de4851" stroke-width="0.5" stroke-opacity="0.212" d="M 349.97,116.94 c -0.32,0.87 -0.88,1.51 -1.71,1.93 c -0.07,-0.38 -0.15,-0.75 -0.23,-1.13 c 0.46,-0.65 1.1,-0.91 1.94,-0.8 Z"/></g>
<g><path fill="#db4850" fill-opacity="0.216" stroke="#db4850" stroke-width="0.5" stroke-opacity="0.216" d="M 117.01,145 c -0.31,0.87 -0.87,1.55 -1.67,2.03 c -0.17,-0.4 -0.33,-0.81 -0.5,-1.21 c 0.54,-0.7 1.27,-0.98 2.17,-0.82 Z"/></g>
<g><path fill="#c9434c" fill-opacity="0.588" d="M 335.33,232.93 c -0.4,0.64 -0.98,0.9 -1.74,0.78 c 0.51,-0.4 1.09,-0.66 1.74,-0.78 Z M 333.59,233.71 c 0.18,0.78 -0.12,1.24 -0.9,1.39 c -0.16,-0.11 -0.32,-0.22 -0.48,-0.33 c 0.15,-0.71 0.61,-1.06 1.38,-1.06 Z"/></g>
<g><path fill="#e62e37" fill-opacity="0.106" stroke="#e62e37" stroke-width="0.5" stroke-opacity="0.106" d="M 43.79,410.8 c 0.33,-0.03 0.66,-0.07 0.98,-0.11 c 0.09,0.44 0.18,0.88 0.27,1.32 c -0.56,0.33 -1.15,0.55 -1.77,0.68 c -0.62,-0.89 -0.44,-1.52 0.52,-1.89 Z"/></g>
<g><path fill="#dd4852" fill-opacity="0.537" d="M 121.09,335.86 c 0.19,0.04 0.37,0.08 0.56,0.12 c -0.02,0.9 -0.5,1.33 -1.45,1.31 c -0.14,-0.76 0.16,-1.24 0.89,-1.43 Z M 120.2,337.29 c -0.32,0.5 -0.8,0.75 -1.43,0.76 c 0.24,-0.67 0.72,-0.92 1.43,-0.76 Z"/></g>
<g><path fill="#de4651" fill-opacity="0.455" d="M 481,58.33 c -0.28,0.55 -0.75,0.77 -1.41,0.66 c 0.41,-0.36 0.88,-0.58 1.41,-0.66 Z M 288.41,187.07 c -0.42,0.37 -0.9,0.61 -1.44,0.74 c 0.27,-0.59 0.75,-0.84 1.44,-0.74 Z"/></g>
<g><path fill="#dc4851" fill-opacity="0.431" d="M 463.28,86.08 c -0.39,0.34 -0.84,0.53 -1.35,0.56 c 0.34,-0.42 0.79,-0.61 1.35,-0.56 Z M 437.28,100.97 c -0.38,0.34 -0.81,0.57 -1.31,0.66 c 0.28,-0.49 0.71,-0.71 1.31,-0.66 Z"/></g>
<g><path fill="#ca444e" fill-opacity="0.525" d="M 476.05,92.81 c -0.19,0.61 -0.6,1 -1.22,1.16 c -0.2,-0.01 -0.39,-0.01 -0.59,-0.01 c -0.44,-1.04 1.19,-1.12 1.81,-1.15 Z"/></g>
<g><path fill="#b43f48" fill-opacity="0.584" d="M 80.25,375.24 c -0.44,0.47 -1,0.72 -1.66,0.74 c 0.43,-0.52 0.98,-0.77 1.66,-0.74 Z"/></g>
<g><path fill="#de4554" fill-opacity="0.275" d="M 435.32,102.27 c -0.38,0.33 -0.8,0.59 -1.27,0.77 c 0.16,-0.66 0.58,-0.92 1.27,-0.77 Z"/></g>
<g><path fill="#dc4650" fill-opacity="0.286" d="M 392.95,108.95 c -0.16,0.65 -0.58,0.91 -1.26,0.78 c 0.38,-0.33 0.8,-0.59 1.26,-0.78 Z"/></g>
<g><path fill="#df4550" fill-opacity="0.188" d="M 239.34,215.34 c -0.38,0.3 -0.79,0.54 -1.25,0.7 c 0.09,-0.75 0.5,-0.98 1.25,-0.7 Z"/></g>
<g><path fill="#b53f47" fill-opacity="0.714" d="M 369.9,197.93 c -0.12,0.57 -0.48,0.88 -1.07,0.92 c 0.16,-0.52 0.52,-0.83 1.07,-0.92 Z"/></g>
<g><path fill="#c3434c" fill-opacity="0.867" d="M 404.95,163.01 c -0.14,0.52 -0.48,0.81 -1.03,0.86 c 0.27,-0.38 0.61,-0.67 1.03,-0.86 Z"/></g>
<g><path fill="#262626" fill-opacity="0.996" stroke="#262626" stroke-width="0.5" stroke-opacity="0.996" d="M 63.72,4.96 c 1.19,0.07 2.36,-0.02 3.52,-0.28 c 6.68,0.84 12.39,3.65 17.14,8.43 c 14.48,14.19 28.91,28.43 43.28,42.73 c 42.91,43.12 85.89,86.14 128.93,129.08 c 0.55,0.08 1.03,-0.06 1.46,-0.41 c 58.03,-56.93 113.81,-116.23 172.46,-172.5 c 4,-3.95 8.76,-6.38 14.29,-7.31 c 1.48,0.29 2.97,0.31 4.45,0.06 c 16.1,2.88 27.88,19.56 38.82,30.49 c 11.45,9.05 30.28,26.81 16.44,41.77 c -58.06,59.6 -117.57,117.71 -176.52,176.44 c -1.15,1.03 -1.19,2.09 -0.12,3.18 c 56.41,55.69 111.91,113.11 169.01,167.98 c 9.51,9.58 18.24,22.55 6.81,34.7 c -13.53,11.31 -23.74,25.88 -36.61,37.46 c -5.34,5.06 -11.57,8.5 -18.69,10.3 c -1.28,-0.1 -2.55,-0.02 -3.81,0.26 c -6.6,-0.91 -12.25,-3.73 -16.97,-8.45 c -57.34,-56.65 -114.33,-113.66 -170.97,-171.01 c -1.09,-1.05 -2.15,-1.02 -3.18,0.11 c -58.06,56.96 -113.78,116.18 -172.49,172.48 c -21.59,19.21 -43.39,-8.43 -57.04,-23.71 c -11.25,-9.02 -29.89,-26.18 -16.93,-41.26 c 15.34,-15.66 30.71,-31.29 46.11,-46.89 c 43.97,-43.7 87.89,-87.45 131.76,-131.24 c 0.13,-0.8 -0.12,-1.47 -0.74,-2.02 c -56.55,-55.88 -112.23,-113.43 -169.5,-168.48 c -9.35,-9.53 -17.58,-22.28 -6.34,-34.21 c 13.52,-11.29 23.78,-25.9 36.62,-37.45 c 5.35,-5.13 11.62,-8.55 18.81,-10.25 Z M 361.98,93.62 c -0.5,0.32 -0.9,0.73 -1.21,1.23 c -10.9,10.92 -21.86,21.76 -32.89,32.55 c -0.48,0.4 -0.69,0.91 -0.62,1.53 c -0.72,0.19 -1.05,0.66 -0.99,1.42 c -0.66,-0.1 -1.18,0.12 -1.57,0.66 c -2.32,2.05 -4.45,4.26 -6.4,6.65 c -0.21,0.81 -0.72,1.35 -1.52,1.59 c -0.27,0.12 -0.51,0.29 -0.72,0.51 c -10.06,9.88 -20.12,19.75 -30.18,29.63 c -0.53,0.53 -0.76,1.16 -0.71,1.9 c -0.61,-0.08 -1.09,0.12 -1.45,0.6 c -0.37,0.37 -0.74,0.74 -1.12,1.11 c -7.22,6.52 -17.62,18.96 -25.2,23.94 c -5.6,1.07 -6.72,-1.39 -10.64,-4.36 c -0.54,-1.16 -1.37,-2.03 -2.51,-2.6 c -4.99,-5.25 -10.1,-10.38 -15.34,-15.38 c -0.93,-1.17 -3.35,-4.4 -4.89,-4.29 c -0.46,-2.02 -5.36,-6.4 -7.24,-7.63 c -0.5,-1.27 -1.4,-2.06 -2.71,-2.39 c -1.28,-2.57 -12.4,-12.73 -15.08,-15.7 c -0.67,-1.2 -1.65,-1.97 -2.93,-2.3 c -1.56,-2.93 -11.96,-12.82 -15.14,-15.55 c -0.21,-1 -0.81,-1.46 -1.8,-1.37 c -0.32,-1.9 -5.61,-6.95 -7.37,-7.68 c -0.35,-1.25 -1.14,-2.11 -2.38,-2.58 c -0.87,-1.51 -5.75,-7.08 -7.53,-7.07 c -0.02,-1.08 -0.53,-1.84 -1.53,-2.3 c -1.78,-2.09 -5.81,-7.06 -8.38,-7.65 c -0.01,-1.33 -0.69,-1.99 -2.02,-1.99 c 0.01,-1.91 -5.34,-6.8 -7.13,-7.41 c -0.03,-0.96 -0.53,-1.41 -1.51,-1.34 c -0.37,-1.7 -5.6,-7.65 -7.42,-7.24 c 0.29,-1.78 -2.24,-3.53 -3.56,-4.34 c -1.6,-2.29 -4.98,-6.06 -7.5,-7.15 c 0,-0.98 -0.49,-1.53 -1.48,-1.65 c -3.71,-4.85 -9.6,-9.46 -13.62,-14.21 c -0.53,-0.49 -1.15,-0.68 -1.86,-0.58 c 0.34,-1.69 -3.34,-5.02 -4.89,-5.11 c -0.39,-1.81 -12.25,-13.49 -14.22,-14.33 c -0.03,-0.99 -0.55,-1.5 -1.55,-1.52 c -2.04,-2.65 -13.31,-14.96 -17.32,-15.66 c -0.87,-0.39 -1.78,-0.63 -2.74,-0.72 c -0.33,0.16 -0.66,0.32 -0.99,0.48 c -9.77,-1.41 -23.06,18.52 -29.7,24.61 c -7.21,7.9 -24.26,18.63 -17.6,31.13 c 0.31,0.29 0.61,0.59 0.91,0.88 c 4.32,4.7 9.43,10.45 14.54,14.18 c -0.02,1.17 3.48,4.63 4.6,4.63 c 0.5,1.86 5.49,6.34 7.32,7.52 c 0.03,0.32 0.21,0.53 0.53,0.6 c 1.63,2.32 5.14,5.97 7.45,7.4 c 0.2,0.41 0.54,0.55 1.01,0.39 c -0.2,2.02 6.35,7.17 7.91,8.69 c 0.7,1.11 2.44,3.3 3.8,3.4 c 0.42,1.98 5.59,6.27 7.28,7.65 c 0.34,0.65 0.84,1.15 1.49,1.49 c 1.57,2.05 5.4,6.29 7.61,7.28 c 0.13,0.82 0.56,1.45 1.3,1.88 c 2.37,2.65 4.92,5.1 7.66,7.36 c 0.53,1.21 1.41,1.97 2.65,2.27 c 0.42,1.78 5.64,6.8 7.37,7.58 c 0.42,1.19 1.22,2.01 2.4,2.46 c 0.95,1.67 5.86,6.98 7.73,7.36 c -0.05,0.89 0.36,1.48 1.23,1.77 c 4.68,5.13 10.13,11.19 15.65,15.32 c 0.36,1.33 1.2,2.15 2.52,2.47 c 0.47,1.58 13.8,14.76 15.59,15.55 c 0.05,0.88 0.49,1.49 1.34,1.85 c 2.61,2.97 5.39,5.76 8.34,8.39 c 1.05,1.33 2.22,2.54 3.52,3.62 c 5.02,5.29 10.23,10.38 15.64,15.26 c 0.78,1.51 1.94,2.62 3.47,3.35 c 0.95,1.86 5.65,6.8 7.68,7.45 c -0.02,1.41 2.23,3.4 3.57,3.71 c 0.41,2.05 5.54,6.15 7.26,7.51 c 0.25,0.89 0.81,1.32 1.71,1.3 c 0.23,0.59 0.35,1.2 0.36,1.83 c -4.13,5.58 -8.61,10.88 -13.44,15.9 c -0.49,0.57 -0.7,1.23 -0.62,1.97 c -0.61,-0.09 -1.11,0.12 -1.47,0.62 c -1.93,2.32 -3.94,4.56 -6.02,6.74 c -0.37,0.3 -0.67,0.65 -0.91,1.05 c -17.49,18.9 -35.28,36.9 -54.02,54.54 c -0.48,0.42 -0.71,0.95 -0.69,1.58 c -0.73,0.19 -1.03,0.67 -0.89,1.43 c -0.71,-0.16 -1.19,0.09 -1.43,0.76 c -2.17,1.44 -4.19,3.08 -6.06,4.94 c -0.68,0.71 -2.46,1.68 -2.4,2.76 c -9.83,9.19 -19.65,18.4 -29.44,27.64 c -0.52,0.51 -0.72,1.13 -0.62,1.85 c -0.68,-0.03 -1.23,0.22 -1.66,0.74 c -1.96,1.83 -3.88,3.71 -5.77,5.62 c -0.44,0.28 -0.68,0.69 -0.7,1.21 c -3.41,2.49 -26.09,24.15 -26.1,26.26 c -1.37,-0.23 -2.11,0.35 -2.23,1.73 c -0.96,0.37 -1.14,1 -0.52,1.89 c -4.5,1.91 -26.04,24.1 -26.99,30 c -0.34,2.51 -0.29,5.02 0.12,7.52 c 0.43,0.91 0.83,1.84 1.2,2.79 c 3.02,4.69 8.89,11.41 13.64,14.2 c -0.08,0.36 0.04,0.62 0.36,0.78 c 1.48,1.61 6.44,6.97 8.5,6.98 c -0.23,1.36 1.54,2.29 2.06,3.44 c 2.21,2.43 4.52,4.75 6.95,6.95 c 0.23,1.06 0.89,1.54 1.97,1.44 c -0.06,2.03 5.17,7.31 7.15,7.15 c 0.13,0.44 0.37,0.8 0.73,1.08 c 3.04,2.79 8.92,4.81 12.42,1.77 c 27.71,-27.39 55.31,-54.9 82.78,-82.53 c 0.39,-0.32 0.71,-0.71 0.96,-1.16 c 12.19,-11.83 24.19,-23.85 36.01,-36.05 c 0.37,-0.16 0.63,-0.43 0.78,-0.8 c 38.22,-37.95 76.33,-76 114.34,-114.17 c 0.35,-0.22 0.58,-0.52 0.68,-0.92 c 1.52,-0.3 22.21,-21.73 25.12,-24.62 c 0.44,-0.39 0.66,-0.86 0.64,-1.44 c 0.78,-0.15 1.08,-0.61 0.9,-1.39 c 0.76,0.12 1.34,-0.14 1.74,-0.78 c 2.01,-1.78 3.92,-3.66 5.72,-5.64 c 8.98,-8.94 18.02,-17.84 27.09,-26.68 c 0.54,-0.47 0.77,-1.05 0.69,-1.76 c 0.59,-0.04 0.95,-0.35 1.07,-0.92 c 2.58,-2.02 4.99,-4.23 7.22,-6.64 c 8.2,-8.53 19.49,-18.61 26.8,-27.42 c 0.55,-0.05 0.89,-0.34 1.03,-0.86 c 0.86,-0.43 1.61,-1.02 2.25,-1.75 c 0.36,-0.31 0.66,-0.67 0.91,-1.07 c 4.45,-4.46 26.82,-25.31 28.72,-28.53 c 3.69,-2.27 7.18,-6.24 10.38,-9.3 c 0.36,-0.35 0.66,-0.74 0.91,-1.17 c 4.36,-4.24 24.85,-23.8 26.71,-27.22 c 0.62,-0.16 1.03,-0.55 1.22,-1.16 c 1.54,-1.07 2.96,-2.3 4.28,-3.68 c 1.03,-0.78 1.82,-1.73 2.39,-2.87 c 4.54,-5.67 12.84,-11.45 13.44,-19.2 c 0.43,-5.84 -2.87,-9.61 -5.88,-14.1 c -2,-1.6 -4.73,-5.53 -7.11,-6.22 c -0.97,-1.53 -2.23,-2.8 -3.78,-3.79 c -1.67,-1.43 -6.54,-7.04 -8.61,-6.93 c 0.67,-1.37 -1.87,-2.82 -2.4,-4.01 c -2.14,-2.44 -4.28,-4.88 -6.43,-7.32 c -0.54,-0.53 -1.1,-1.05 -1.67,-1.54 c -1.8,-1.94 -5.76,-6.27 -8.5,-6.18 c 0.02,-1.71 -3.17,-2.17 -4.42,-2.6 c -8.96,-2.73 -14.37,9.49 -20.35,14.14 c -21.69,21.69 -43.37,43.39 -65.03,65.11 Z M 264.7,316.69 c -0.94,1.8 -0.41,3.04 1.6,3.71 c 0.24,0.62 0.67,1.04 1.31,1.25 c 4.52,5.04 9.2,9.93 14.04,14.67 c 1.36,1.3 2.71,2.62 4.04,3.95 c 2.34,2.33 4.67,4.68 6.97,7.04 c 0.72,0.64 1.39,1.32 2.02,2.04 c 2.72,2.6 5.38,5.25 7.99,7.96 c 1.36,1.29 2.71,2.61 4.04,3.95 c 9.95,10.07 19.95,20.1 29.98,30.09 c 0.66,0.67 1.31,1.35 1.94,2.04 c 2.34,2.32 4.65,4.65 6.95,7.01 c 0.7,0.66 1.37,1.33 2.02,2.03 c 7.17,7.16 14.31,14.33 21.44,21.52 c 0.4,0.13 0.8,0.26 1.19,0.39 c 0.08,0.71 0.44,1.23 1.09,1.58 c -0.02,0.37 0.1,0.69 0.37,0.96 c 2.68,2.3 5.15,4.8 7.43,7.49 c 1.02,0.41 2.38,2.83 3.55,2.3 c 0.1,0.46 0.2,0.91 0.29,1.37 c 2.72,2.62 5.38,5.28 8.01,7.99 c 0.68,0.66 1.34,1.35 1.98,2.05 c 2.71,2.6 5.38,5.25 8,7.93 c 0.71,0.64 1.38,1.31 2.01,2.02 c 4.88,4.79 9.76,9.59 14.65,14.39 c 1.35,1.05 2.74,3.53 4.61,3.5 c 0.15,2.11 12.45,13.37 14.74,15.58 c 14.03,16.15 30.8,-8.68 39.61,-18.47 c 9.7,-9.37 28.61,-22.51 14.64,-37.2 c -1.17,-1.32 -2.49,-2.47 -3.96,-3.44 c -4.7,-4.51 -9.32,-9.09 -13.88,-13.74 c -1.02,-0.97 -2.03,-1.96 -3.02,-2.96 c -2.36,-2.32 -4.68,-4.67 -6.97,-7.04 c -1.03,-0.97 -2.05,-1.95 -3.04,-2.96 c -2.35,-2.31 -4.66,-4.67 -6.92,-7.07 c -0.42,-0.49 -0.95,-0.83 -1.57,-1.03 c -0.52,-1.3 -1.45,-2.04 -2.79,-2.22 c -0.31,-2.05 -6.24,-7.15 -7.95,-8.77 c -0.4,-0.73 -1,-1.23 -1.79,-1.48 c -7.19,-7.6 -14.5,-15.1 -21.94,-22.48 c -0.71,-0.63 -1.39,-1.3 -2.04,-1.99 c -2.35,-2.3 -4.68,-4.64 -6.97,-7 c -0.7,-0.63 -1.37,-1.28 -2.03,-1.96 c -9.99,-10.03 -19.99,-20.05 -30.01,-30.05 c -1.34,-1.32 -2.68,-2.66 -4,-4.01 c -2.35,-2.32 -4.69,-4.64 -7.03,-6.97 c -0.99,-1 -1.98,-2.01 -2.95,-3.03 c -2.37,-2.3 -4.71,-4.63 -7.02,-6.98 c -1.35,-1.32 -2.68,-2.66 -3.98,-4.02 c -4.72,-4.84 -9.6,-9.5 -14.65,-13.98 c -0.2,-0.66 -0.64,-1.1 -1.31,-1.33 c -0.46,-1.05 -1.14,-1.93 -2.04,-2.65 c -4.76,-4.73 -9.51,-9.47 -14.26,-14.21 c -0.72,-0.52 -1.46,-0.53 -2.19,-0.03 c -17.44,17.38 -34.84,34.8 -52.2,52.26 Z"/></g>
<g><path fill="#b9414a" fill-opacity="0.894" d="M 46.02,409.07 c -0.39,0.56 -0.8,1.1 -1.25,1.62 c -0.32,0.04 -0.65,0.08 -0.98,0.11 c 0.12,-1.38 0.86,-1.96 2.23,-1.73 Z"/></g>
<g><path fill="#de4653" fill-opacity="0.247" stroke="#de4653" stroke-width="0.5" stroke-opacity="0.247" d="M 52.07,407 c -0.3,0.5 -0.66,0.93 -1.09,1.32 c -2.07,1.09 -4.06,2.32 -5.94,3.69 c -0.09,-0.44 -0.18,-0.88 -0.27,-1.32 c 0.45,-0.52 0.86,-1.06 1.25,-1.62 c 2.36,0.08 3.99,-2.52 6.05,-2.07 Z"/></g>
<g><path fill="#dd4752" fill-opacity="0.996" stroke="#dd4752" stroke-width="0.5" stroke-opacity="0.996" d="M 447.36,14.37 c -5.79,4.94 -11.48,9.94 -17.09,15 c 0.82,0.36 1.59,0.24 2.32,-0.37 c 6.11,-3.59 12.24,-7.16 18.4,-10.68 c 0.51,-0.3 0.77,-0.76 0.79,-1.35 c 2.74,-0.09 6.7,4.24 8.5,6.18 c -3.4,2.56 -6.84,5.04 -10.33,7.43 c -0.48,0.37 -0.7,0.86 -0.65,1.48 c -0.52,-0.03 -1.04,-0.05 -1.55,-0.08 c -0.79,0.52 -1.35,1.22 -1.7,2.1 c -1.33,-0.1 -2.32,0.43 -2.95,1.59 c 0.85,1.07 2.53,-0.76 2.95,-1.59 c 0.82,0.1 1.49,-0.16 2.01,-0.76 c 0.43,-0.23 0.86,-0.46 1.29,-0.69 c 3.6,-2.01 7.19,-4.04 10.77,-6.09 c 0.59,-0.64 1.21,-1.25 1.83,-1.85 c 2.15,2.44 4.29,4.88 6.43,7.32 c -14.05,9.58 -28.02,19.31 -41.9,29.18 c -1.65,1.23 -3.39,2.28 -5.22,3.16 c 1.57,1.49 2.75,-0.79 4.03,-1.5 c 14.81,-8.47 29.62,-16.96 44.42,-25.48 c 0.62,-0.26 0.97,-0.71 1.07,-1.35 c 2.07,-0.11 6.94,5.5 8.61,6.93 c -0.88,-0.06 -1.71,0.12 -2.49,0.55 c -20.59,13.78 -41.22,27.51 -61.88,41.18 c -0.52,0.43 -0.79,0.99 -0.81,1.67 c -0.5,-0.08 -0.99,-0.16 -1.48,-0.25 c -0.84,0.43 -1.44,1.09 -1.78,1.97 c -1.51,-0.14 -2.49,0.52 -2.93,1.98 c -1.1,-0.35 -1.75,0 -1.98,1.05 c -1.31,0.02 -2.31,0.55 -3.02,1.59 c 1.02,1.5 2.34,-0.94 3.02,-1.59 c 0.94,0.12 1.6,-0.23 1.98,-1.05 c 1.38,-0.06 2.36,-0.72 2.93,-1.98 c 0.9,0.16 1.59,-0.12 2.07,-0.83 c 0.43,-0.21 0.86,-0.42 1.29,-0.62 c 23.12,-13 46.07,-26.3 68.86,-39.88 c 2.38,0.69 5.11,4.62 7.11,6.22 c -0.51,0.69 -1.2,1.11 -2.08,1.26 c -0.53,0.18 -1.02,0.43 -1.48,0.74 c -1.32,0.71 -2.64,1.4 -3.99,2.06 c -0.38,0.26 -0.68,0.6 -0.91,1 c -0.27,0.11 -0.55,0.21 -0.82,0.31 c -0.53,0.08 -1,0.3 -1.41,0.66 c -1.24,0.57 -2.36,1.32 -3.36,2.24 c -0.59,0.15 -1.12,0.41 -1.59,0.79 c -1.26,0.59 -2.49,1.24 -3.7,1.93 c -0.46,0.19 -0.89,0.44 -1.27,0.77 c -0.27,0.19 -0.54,0.39 -0.81,0.59 c -0.5,0.06 -0.93,0.28 -1.27,0.65 c -1.2,0.7 -2.41,1.36 -3.63,2.01 c -0.47,0.18 -0.9,0.44 -1.27,0.77 c -0.26,0.19 -0.51,0.39 -0.76,0.59 c -0.46,0.07 -0.87,0.25 -1.23,0.56 c -1.25,0.79 -2.54,1.49 -3.89,2.09 c -0.36,0.33 -0.72,0.66 -1.06,1.01 c -2.02,0.85 -3.9,1.93 -5.66,3.23 c -0.55,0.14 -1.03,0.4 -1.43,0.8 c -1.27,0.59 -2.5,1.23 -3.71,1.93 c -0.47,0.19 -0.89,0.45 -1.28,0.77 c -0.26,0.19 -0.53,0.39 -0.79,0.58 c -0.44,0.18 -0.86,0.39 -1.26,0.64 c -1.21,0.71 -2.43,1.38 -3.67,2.03 c -0.46,0.17 -0.88,0.42 -1.26,0.74 c -1.88,1.12 -3.78,2.22 -5.68,3.31 c -0.42,0.24 -0.84,0.49 -1.25,0.76 c -2.01,1 -3.88,2.19 -5.63,3.57 c -0.52,0.07 -1,0.24 -1.44,0.52 c -1.25,0.7 -2.5,1.39 -3.75,2.08 c -0.46,0.19 -0.88,0.45 -1.25,0.78 c -0.25,0.15 -0.5,0.31 -0.75,0.46 c -0.46,0.21 -0.9,0.45 -1.32,0.73 c -1.27,0.77 -2.56,1.5 -3.87,2.17 c -0.37,0.26 -0.72,0.54 -1.05,0.84 c -1.99,0.88 -3.83,1.99 -5.53,3.33 c -0.58,0.04 -1.06,0.28 -1.43,0.73 c -1.31,0.57 -2.58,1.22 -3.81,1.95 c -0.46,0.19 -0.88,0.45 -1.26,0.77 c -0.26,0.16 -0.52,0.32 -0.78,0.48 c -0.41,0.27 -0.82,0.55 -1.22,0.84 c -1.27,0.58 -2.51,1.22 -3.72,1.92 c -0.46,0.19 -0.88,0.45 -1.26,0.78 c -0.25,0.18 -0.5,0.37 -0.75,0.55 c -0.46,0.19 -0.89,0.44 -1.3,0.73 c -1.29,0.71 -2.59,1.39 -3.91,2.05 c -0.37,0.25 -0.73,0.53 -1.08,0.83 c -1.93,0.92 -3.74,2.04 -5.42,3.36 c -0.58,0.05 -1.1,0.25 -1.57,0.59 c -1.22,0.74 -2.46,1.45 -3.72,2.12 c -0.46,0.18 -0.88,0.43 -1.27,0.75 c -0.21,0.19 -0.41,0.37 -0.62,0.56 c -0.5,0.15 -0.96,0.38 -1.39,0.68 c -1.23,0.68 -2.46,1.36 -3.7,2.02 c -0.47,0.18 -0.9,0.43 -1.27,0.76 c -0.28,0.15 -0.56,0.3 -0.83,0.45 c -0.43,0.19 -0.84,0.43 -1.22,0.7 c -1.19,0.75 -2.42,1.45 -3.67,2.1 c -0.43,0.23 -0.85,0.47 -1.26,0.73 c -1.95,1.07 -3.81,2.27 -5.59,3.6 c -0.53,0.1 -1.02,0.32 -1.46,0.65 c -1.25,0.64 -2.49,1.31 -3.72,2 c -0.46,0.18 -0.89,0.44 -1.27,0.76 c -0.27,0.22 -0.54,0.43 -0.81,0.65 c -0.45,0.1 -0.84,0.33 -1.15,0.68 c -1.28,0.57 -2.53,1.22 -3.74,1.94 c -0.42,0.24 -0.84,0.48 -1.26,0.73 c -1.95,1.19 -3.93,2.32 -5.96,3.38 c -0.38,0.29 -0.75,0.59 -1.1,0.91 c -1.98,0.82 -3.76,1.93 -5.36,3.34 c -0.61,0.07 -1.17,0.27 -1.69,0.62 c -1.21,0.67 -2.43,1.33 -3.66,1.99 c -0.46,0.19 -0.88,0.44 -1.26,0.77 c -0.24,0.21 -0.48,0.42 -0.72,0.64 c -0.48,0.05 -0.9,0.23 -1.27,0.55 c -1.29,0.8 -2.63,1.5 -4.02,2.1 c -0.33,0.31 -0.64,0.63 -0.94,0.97 c -2,0.84 -3.86,1.91 -5.6,3.22 c -0.55,0.12 -1.02,0.37 -1.42,0.76 c -1.28,0.61 -2.53,1.27 -3.77,1.98 c -0.46,0.19 -0.89,0.44 -1.27,0.77 c -0.28,0.17 -0.56,0.35 -0.84,0.53 c -0.43,0.2 -0.82,0.44 -1.19,0.72 c -1.23,0.66 -2.47,1.32 -3.69,1.99 c -0.47,0.18 -0.89,0.44 -1.27,0.77 c -0.28,0.16 -0.56,0.32 -0.84,0.48 c -0.42,0.2 -0.83,0.43 -1.23,0.67 c -1.19,0.75 -2.4,1.46 -3.63,2.12 c -0.43,0.23 -0.85,0.47 -1.26,0.72 c -0.82,0.59 -1.67,1.11 -2.55,1.57 c -0.05,-0.74 0.18,-1.37 0.71,-1.9 c 10.06,-9.88 20.12,-19.75 30.18,-29.63 c 0.43,0.07 0.67,-0.1 0.72,-0.51 c 0.8,-0.24 1.31,-0.78 1.52,-1.59 c 0.58,0.34 1.14,0.31 1.69,-0.09 c 7.83,-5.2 15.67,-10.38 23.53,-15.52 c 0.44,-0.44 0.95,-0.8 1.52,-1.05 c 0.8,-0.41 1.45,-0.99 1.93,-1.76 c 0.43,-0.12 0.86,-0.25 1.29,-0.37 c 0.83,-0.42 1.39,-1.06 1.71,-1.93 c 1.45,0.07 2.45,-0.59 3.01,-1.97 c 0.9,0.13 1.61,-0.18 2.11,-0.93 c 0.75,0.01 3.87,-1.02 2.51,-2.04 c -1.38,0.07 -2.21,0.75 -2.51,2.04 c -0.74,-0.16 -2.24,-0.23 -2.11,0.93 c -1.37,0.11 -2.37,0.76 -3.01,1.97 c -0.84,-0.11 -1.48,0.15 -1.94,0.8 c -0.47,0.14 -0.93,0.29 -1.39,0.44 c -0.6,0.4 -1.11,0.89 -1.55,1.46 c -1.12,0.24 -2.14,0.7 -3.07,1.37 c -4.86,2.67 -9.65,5.45 -14.39,8.33 c -0.12,-0.13 -0.24,-0.27 -0.37,-0.41 c -0.07,-0.62 0.14,-1.13 0.62,-1.53 c 11.03,-10.79 21.99,-21.63 32.89,-32.55 c 0.76,-0.04 1.17,-0.45 1.21,-1.23 c 21.66,-21.72 43.34,-43.42 65.03,-65.11 c 5.98,-4.65 11.39,-16.87 20.35,-14.14 Z M 64.12,15.32 c -0.13,0.2 -0.25,0.4 -0.38,0.61 c -2.73,2.6 -5.55,5.07 -8.44,7.41 c 0.5,0.39 1.06,0.47 1.67,0.22 c 3.55,-2.19 7.12,-4.36 10.7,-6.49 c 0.24,-0.48 0.3,-0.98 0.18,-1.51 c 4.01,0.7 15.28,13.01 17.32,15.66 c -1.72,0.11 -9.81,7.05 -11.03,8.46 c -0.79,0.63 -2.72,0.47 -2.87,1.68 c 0.52,0.42 1.09,0.51 1.73,0.25 c 4.1,-2.64 8.3,-5.15 12.58,-7.52 c 0.58,-0.29 0.96,-0.74 1.14,-1.35 c 1.97,0.84 13.83,12.52 14.22,14.33 c -8.66,7.36 -17.19,14.79 -25.6,22.32 c 0.3,0.26 0.63,0.31 0.99,0.14 c 8.45,-3.15 20.15,-11.46 28.37,-16.17 c 0.56,-0.23 0.94,-0.62 1.13,-1.18 c 0.71,-0.1 1.33,0.09 1.86,0.58 c 4.02,4.75 9.91,9.36 13.62,14.21 c -2.14,1.52 -4.25,3.06 -6.34,4.64 c -0.42,0.35 -0.74,0.78 -0.96,1.29 c -0.91,0.26 -2.62,0.57 -2.86,1.69 c 1.35,0.93 2.3,-0.61 2.86,-1.69 c 1.98,0.23 6.68,-3.45 8.78,-4.28 c 2.52,1.09 5.9,4.86 7.5,7.15 c -0.75,0.1 -1.42,0.39 -2.01,0.86 c -7.67,6.6 -15.34,13.17 -23,19.7 c 0.81,0.4 1.58,0.29 2.32,-0.33 c 2.8,-2.17 26.18,-14.4 26.25,-15.89 c 1.82,-0.41 7.05,5.54 7.42,7.24 c -2.43,1.75 -4.88,3.47 -7.36,5.16 c -0.47,0.29 -0.7,0.71 -0.69,1.25 c -1,0.35 -2.89,0.66 -3.12,1.92 c 0.97,1.2 2.7,-1.07 3.12,-1.92 c 0.61,0.02 1.21,-0.04 1.8,-0.17 c 2.56,-1.68 5.15,-3.32 7.76,-4.9 c 1.79,0.61 7.14,5.5 7.13,7.41 c -1.69,0.04 -11.52,9.15 -13.91,10.38 c -0.52,0.33 -0.81,0.79 -0.88,1.39 c -1.26,0.12 -2.23,0.7 -2.9,1.74 c 0.77,1.24 2.57,-0.97 2.9,-1.74 c 3.6,-0.85 12.09,-6.57 15.9,-8.5 c 0.52,-0.28 0.82,-0.7 0.91,-1.28 c 2.57,0.59 6.6,5.56 8.38,7.65 c -0.88,0 -1.68,0.24 -2.4,0.74 c -4.95,3.92 -9.82,7.88 -14.61,11.88 c 0.53,0.37 1.07,0.37 1.63,-0.01 c 2.11,-1.65 16.56,-8.86 16.91,-10.31 c 1.78,-0.01 6.66,5.56 7.53,7.07 c -5.5,3.64 -10.81,9.37 -16.43,12.33 c -0.92,0.8 -0.79,1.2 0.39,1.18 c 3.49,-3.45 13.66,-7.99 18.42,-10.93 c 1.76,0.73 7.05,5.78 7.37,7.68 c -0.66,-0.3 -1.27,-0.22 -1.84,0.22 c -3.34,2.76 -6.79,5.38 -10.34,7.85 c -0.51,0.35 -0.75,0.84 -0.72,1.46 c -0.99,0.2 -2.83,0.48 -3.05,1.71 c 0.95,1.07 2.55,-0.96 3.05,-1.71 c 0.61,-0.04 1.2,-0.16 1.78,-0.35 c 4.29,-2.63 8.6,-5.23 12.92,-7.81 c 3.18,2.73 13.58,12.62 15.14,15.55 c -0.65,-0.23 -1.24,-0.11 -1.76,0.34 c -5.99,4.98 -12,9.89 -18.02,14.73 c 0.52,0.41 1.09,0.48 1.72,0.22 c 6.46,-3.95 12.99,-7.8 19.59,-11.54 c 0.59,-0.36 1.06,-0.85 1.4,-1.45 c 2.68,2.97 13.8,13.13 15.08,15.7 c -0.6,0.09 -1.13,0.32 -1.59,0.71 c -4.69,3.91 -9.45,7.7 -14.26,11.37 c 0.82,0.36 1.62,0.29 2.41,-0.2 c 4.86,-3.68 10.77,-6.59 16.15,-9.49 c 1.88,1.23 6.78,5.61 7.24,7.63 c -0.63,-0.13 -1.19,0.02 -1.69,0.42 c -8.31,7.28 -16.64,14.48 -25,21.6 c 0.55,0.36 1.12,0.39 1.71,0.08 c 9.99,-5.89 19.95,-11.83 29.87,-17.81 c 5.24,5 10.35,10.13 15.34,15.38 c -0.86,-0.19 -1.65,-0.04 -2.37,0.45 c -4.76,3.94 -9.55,7.83 -14.35,11.67 c -0.66,0.85 -1.4,1.61 -2.24,2.27 c 0.56,0.24 1.11,0.2 1.65,-0.12 c 6.68,-3.76 13.28,-7.65 19.82,-11.67 c 3.92,2.97 5.04,5.43 10.64,4.36 c -0.34,0.64 -0.89,1.01 -1.63,1.11 c -0.43,0.27 -0.81,0.6 -1.15,0.97 c -1.49,1.46 -3.11,2.76 -4.84,3.9 c -0.38,0.29 -0.73,0.61 -1.04,0.97 c -0.32,0.29 -0.62,0.6 -0.91,0.93 c -1.58,1.44 -3.23,2.79 -4.94,4.07 c -0.42,0.27 -0.8,0.58 -1.14,0.95 c -0.3,0.32 -0.62,0.65 -0.93,0.97 c -1.26,1.18 -2.62,2.21 -4.1,3.09 c -0.31,0.26 -0.61,0.55 -0.88,0.85 c -0.34,0.35 -0.68,0.71 -1.01,1.07 c -0.84,0.74 -1.65,1.52 -2.41,2.33 c -0.79,0.48 -3.06,1.11 -3.09,2.24 c 1.41,1.2 4.07,-2.07 5.38,-2.64 c 0.54,-0.1 1.06,-0.28 1.55,-0.53 c 0.54,-0.5 1.15,-0.9 1.83,-1.18 c 0.46,-0.16 0.87,-0.4 1.25,-0.7 c 0.23,-0.09 0.46,-0.19 0.69,-0.28 c 0.46,-0.19 0.89,-0.46 1.26,-0.79 c 1.24,-0.78 2.5,-1.51 3.78,-2.2 c 0.46,-0.2 0.88,-0.45 1.26,-0.77 c 0.21,-0.16 0.43,-0.33 0.64,-0.49 c 0.49,-0.22 0.96,-0.47 1.42,-0.75 c 1.22,-0.67 2.45,-1.34 3.67,-2.01 c 0.46,-0.19 0.88,-0.45 1.26,-0.78 c 0.27,-0.2 0.53,-0.39 0.79,-0.59 c 0.51,-0.04 0.93,-0.25 1.28,-0.62 c 1.2,-0.71 2.42,-1.38 3.66,-2.02 c 0.47,-0.18 0.88,-0.44 1.25,-0.78 c 0.24,-0.14 0.47,-0.29 0.71,-0.44 c 0.48,-0.18 0.92,-0.42 1.34,-0.72 c 1.26,-0.85 2.59,-1.57 3.99,-2.16 c 0.41,-0.22 0.72,-0.54 0.93,-0.96 c 1.99,-0.8 3.83,-1.87 5.51,-3.21 c 0.56,-0.17 1.06,-0.43 1.51,-0.8 c 1.29,-0.56 2.55,-1.21 3.77,-1.92 c 0.46,-0.19 0.88,-0.45 1.25,-0.77 c 0.25,-0.18 0.51,-0.36 0.76,-0.53 c 0.51,-0.08 0.94,-0.31 1.29,-0.7 c 1.22,-0.69 2.45,-1.36 3.69,-2.02 c 0.47,-0.17 0.88,-0.43 1.25,-0.76 c 0.22,-0.16 0.45,-0.31 0.67,-0.46 c 0.54,-0.13 1.02,-0.37 1.44,-0.74 c 1.28,-0.62 2.44,-1.42 3.47,-2.4 c 0.57,0.04 1.04,-0.15 1.42,-0.57 c 1.96,-0.95 3.82,-2.06 5.58,-3.33 c 0.58,-0.07 1.06,-0.33 1.45,-0.76 c 1.26,-0.61 2.51,-1.27 3.73,-1.96 c 0.46,-0.19 0.88,-0.45 1.26,-0.78 c 0.23,-0.21 0.46,-0.42 0.69,-0.63 c 0.48,-0.06 0.89,-0.25 1.25,-0.56 c 1.26,-0.69 2.52,-1.37 3.79,-2.04 c 0.47,-0.18 0.88,-0.44 1.25,-0.78 c 0.27,-0.18 0.53,-0.36 0.8,-0.53 c 0.41,-0.18 0.81,-0.4 1.17,-0.67 c 1.32,-0.6 2.52,-1.38 3.62,-2.32 c 0.61,-0.03 1.11,-0.27 1.51,-0.73 c 1.93,-0.9 3.75,-1.98 5.47,-3.23 c 0.57,-0.07 1.03,-0.33 1.39,-0.78 c 1.3,-0.58 2.56,-1.23 3.8,-1.95 c 0.46,-0.19 0.88,-0.45 1.25,-0.78 c 0.25,-0.16 0.49,-0.33 0.73,-0.5 c 0.47,-0.19 0.88,-0.46 1.24,-0.8 c 1.28,-0.6 2.54,-1.25 3.77,-1.94 c 0.47,-0.17 0.89,-0.43 1.26,-0.77 c 0.26,-0.18 0.53,-0.35 0.8,-0.53 c 0.43,-0.21 0.85,-0.45 1.25,-0.71 c 1.2,-0.71 2.43,-1.37 3.68,-2 c 0.46,-0.17 0.88,-0.42 1.25,-0.75 c 1.96,-1.05 3.8,-2.25 5.54,-3.61 c 0.56,-0.03 1.06,-0.22 1.5,-0.58 c 1.24,-0.68 2.48,-1.36 3.72,-2.03 c 0.47,-0.19 0.89,-0.45 1.27,-0.78 c 0.24,-0.2 0.49,-0.39 0.73,-0.59 c 0.49,-0.1 0.93,-0.31 1.32,-0.63 c 1.21,-0.7 2.44,-1.37 3.68,-2.01 c 0.46,-0.18 0.88,-0.44 1.25,-0.78 c 0.25,-0.19 0.5,-0.37 0.75,-0.56 c 0.5,-0.12 0.94,-0.36 1.32,-0.72 c 1.21,-0.67 2.43,-1.33 3.66,-1.96 c 0.47,-0.17 0.89,-0.42 1.26,-0.75 c 1.22,-0.8 2.48,-1.53 3.78,-2.2 c 0.46,-0.2 0.88,-0.46 1.26,-0.78 c 0.24,-0.2 0.48,-0.4 0.72,-0.6 c 0.5,-0.08 0.91,-0.32 1.24,-0.7 c 1.29,-0.59 2.54,-1.23 3.77,-1.94 c 0.46,-0.19 0.88,-0.45 1.26,-0.78 c 0.26,-0.17 0.52,-0.34 0.78,-0.51 c 0.44,-0.14 0.83,-0.36 1.17,-0.66 c 1.25,-0.72 2.5,-1.4 3.78,-2.07 c 0.46,-0.17 0.88,-0.43 1.25,-0.77 c 0.26,-0.17 0.53,-0.34 0.79,-0.5 c 0.46,-0.16 0.86,-0.42 1.2,-0.77 c 1.31,-0.51 2.48,-1.25 3.5,-2.22 c 0.63,-0.03 1.16,-0.26 1.61,-0.69 c 1.22,-0.67 2.45,-1.35 3.67,-2.02 c 0.46,-0.19 0.88,-0.45 1.26,-0.77 c 0.23,-0.17 0.47,-0.35 0.71,-0.52 c 0.46,-0.11 0.87,-0.32 1.22,-0.63 c 1.26,-0.71 2.52,-1.41 3.79,-2.1 c 0.47,-0.18 0.89,-0.44 1.26,-0.77 c 0.26,-0.17 0.52,-0.33 0.78,-0.5 c 0.46,-0.2 0.9,-0.46 1.3,-0.76 c 1.21,-0.68 2.43,-1.34 3.65,-1.97 c 0.47,-0.18 0.88,-0.43 1.25,-0.76 c 1.91,-1.04 3.74,-2.21 5.47,-3.5 c 0.61,-0.11 1.15,-0.37 1.6,-0.8 c 1.27,-0.58 2.5,-1.21 3.71,-1.92 c 0.45,-0.19 0.87,-0.45 1.26,-0.77 c 0.24,-0.16 0.49,-0.31 0.73,-0.47 c 0.49,-0.18 0.93,-0.44 1.32,-0.79 c 1.23,-0.66 2.45,-1.32 3.67,-1.99 c 0.47,-0.18 0.89,-0.44 1.27,-0.77 c 0.21,-0.21 0.43,-0.42 0.65,-0.64 c 0.5,-0.09 0.93,-0.32 1.31,-0.66 c 1.27,-0.61 2.53,-1.25 3.76,-1.94 c 0.47,-0.17 0.88,-0.42 1.25,-0.75 c 1.94,-1.03 3.76,-2.22 5.45,-3.58 c 0.58,-0.14 1.14,-0.37 1.65,-0.67 c 1.24,-0.63 2.46,-1.29 3.68,-1.97 c 0.46,-0.2 0.88,-0.46 1.26,-0.78 c 0.25,-0.21 0.5,-0.42 0.76,-0.64 c 0.48,-0.11 0.9,-0.33 1.26,-0.67 c 1.26,-0.6 2.49,-1.24 3.7,-1.93 c 0.47,-0.18 0.88,-0.44 1.26,-0.77 c 0.2,-0.21 0.41,-0.42 0.62,-0.63 c 0.51,-0.03 0.96,-0.22 1.35,-0.56 c 1.25,-0.68 2.49,-1.38 3.71,-2.11 c 0.43,-0.23 0.85,-0.47 1.26,-0.74 c 1.99,-0.98 3.84,-2.17 5.54,-3.57 c 0.61,0.05 1.12,-0.16 1.52,-0.62 c 1.27,-0.61 2.53,-1.27 3.76,-1.98 c 0.45,-0.2 0.87,-0.46 1.26,-0.78 c 0.22,-0.21 0.45,-0.42 0.67,-0.63 c 0.52,0 0.98,-0.18 1.37,-0.52 c 1.21,-0.72 2.45,-1.41 3.69,-2.08 c 0.46,-0.19 0.88,-0.45 1.25,-0.78 c 0.28,-0.16 0.56,-0.32 0.83,-0.47 c 0.42,-0.22 0.83,-0.45 1.22,-0.72 c 1.19,-0.74 2.42,-1.42 3.68,-2.05 c 0.47,-0.17 0.88,-0.43 1.24,-0.77 c 0.47,-0.67 1.09,-1.07 1.88,-1.2 c -0.6,7.75 -8.9,13.53 -13.44,19.2 c -1.28,-0.05 -2.19,0.52 -2.75,1.72 c -4.5,1.66 -20.1,12.23 -25.36,15.36 c -3.59,2.03 -7.13,4.16 -10.63,6.37 c -0.51,0.26 -0.73,0.66 -0.67,1.22 c -0.54,0.02 -1.08,0.04 -1.62,0.06 c -0.71,0.54 -1.3,1.19 -1.78,1.94 c -2.09,0.35 -3.74,1.38 -4.97,3.1 c -1.76,-0.08 -4.12,1.38 -4.91,2.96 c -1.3,-0.19 -4.83,1.76 -5.08,2.99 c -1.76,-0.18 -3.77,1.56 -4.93,2.64 c 0.84,1.32 4.57,-1.55 4.93,-2.64 c 1.85,0.11 4.14,-1.47 5.08,-2.99 c 2.06,-0.29 3.69,-1.28 4.91,-2.96 c 1.76,-0.1 4.39,-1.28 4.97,-3.1 c 0.9,0.24 1.62,0.01 2.16,-0.7 c 0.45,-0.16 0.91,-0.33 1.36,-0.49 c 4.14,-2.36 8.25,-4.72 12.31,-7.11 c 6.15,-3.61 12.32,-7.17 18.5,-10.67 c 0.2,0 0.39,0 0.59,0.01 c -1.86,3.42 -22.35,22.98 -26.71,27.22 c -0.45,0.07 -0.89,0.14 -1.34,0.2 c -21.62,13.41 -43.2,26.87 -64.76,40.37 c -0.45,0.3 -0.67,0.72 -0.67,1.26 c -0.53,0.01 -1.06,0.02 -1.59,0.02 c -0.85,0.44 -1.43,1.11 -1.74,2.01 c -1.84,-0.21 -4.21,1.3 -4.97,2.96 c -1.84,-0.02 -4.24,1.3 -4.97,3.02 c -1.05,-0.27 -1.76,0.07 -2.13,1.02 c -0.94,0.23 -2.66,0.52 -2.95,1.62 c 1.03,1.44 2.39,-0.84 2.95,-1.62 c 0.99,0.18 1.7,-0.16 2.13,-1.02 c 2.04,-0.38 3.7,-1.39 4.97,-3.02 c 2.05,-0.32 3.71,-1.3 4.97,-2.96 c 0.8,0.1 1.46,-0.13 1.99,-0.7 c 0.41,-0.24 0.81,-0.49 1.22,-0.73 c 18.6,-10.56 37.14,-21.22 55.6,-31.96 c -1.9,3.22 -24.27,24.07 -28.72,28.53 c -0.49,-0.03 -0.99,-0.07 -1.49,-0.1 c -3.49,2.28 -7.04,4.5 -10.64,6.65 c -0.48,0.26 -0.79,0.66 -0.93,1.18 c -1.43,0.04 -2.45,0.7 -3.05,2 c -0.92,-0.09 -1.57,0.27 -1.94,1.09 c -1.65,-0.2 -2.69,0.48 -3.11,2.05 c -0.8,-0.22 -1.46,-0.02 -1.97,0.63 c 0.53,0.96 2.11,0.31 1.97,-0.63 c 1.34,-0.24 2.37,-0.93 3.11,-2.05 c 1.05,0.26 1.7,-0.11 1.94,-1.09 c 1.45,0 2.47,-0.66 3.05,-2 c 0.48,0.11 0.94,0.1 1.41,-0.02 c 2.52,-1.29 5,-2.64 7.46,-4.03 c -7.31,8.81 -18.6,18.89 -26.8,27.42 c -0.74,0.03 -1.46,0.17 -2.15,0.44 c -10.43,6.49 -20.86,12.99 -31.29,19.47 c -4.44,2.54 -8.79,5.22 -13.06,8.04 c -0.65,0.43 -1.19,0.97 -1.61,1.64 c -1.43,0.12 -4.84,1.58 -4.91,3.2 c -1.38,-0.29 -4.88,1.57 -5.07,2.98 c -1.65,-0.3 -2.63,0.34 -2.94,1.92 c -0.86,-0.2 -1.57,0.04 -2.11,0.71 c 0.6,1 2.06,0.21 2.11,-0.71 c 1.27,-0.23 2.24,-0.87 2.94,-1.92 c 2.06,-0.35 3.75,-1.35 5.07,-2.98 c 1.89,-0.25 4.16,-1.33 4.91,-3.2 c 0.71,0.16 1.39,0.07 2.04,-0.27 c 4.6,-2.65 9.16,-5.3 13.68,-7.95 c 8.01,-4.68 16.04,-9.29 24.1,-13.81 c 0.08,0.71 -0.15,1.29 -0.69,1.76 c -9.07,8.84 -18.11,17.74 -27.09,26.68 c -0.71,-0.19 -1.38,-0.11 -2.03,0.24 c -9.52,5.83 -18.98,11.77 -28.37,17.81 c -4.58,2.72 -9.15,5.47 -13.71,8.24 c -0.54,0.32 -0.8,0.79 -0.77,1.41 c -2.17,0.17 -3.89,1.15 -5.16,2.94 c -2.07,0.33 -3.74,1.33 -5.01,3.01 c -1.59,0.09 -4.44,1.59 -4.97,3.12 c -0.99,0.63 -0.99,0.63 0,0 c 1.81,-0.03 4.2,-1.49 4.97,-3.12 c 1.73,0.07 4.4,-1.35 5.01,-3.01 c 2.09,0.09 3.99,-1.27 5.16,-2.94 c 0.66,0.07 1.29,-0.07 1.87,-0.4 c 4.61,-2.63 9.17,-5.27 13.68,-7.93 c 6.85,-3.93 13.68,-7.9 20.49,-11.89 c 0.16,0.11 0.32,0.22 0.48,0.33 c 0.02,0.58 -0.2,1.05 -0.64,1.44 c -2.91,2.89 -23.6,24.32 -25.12,24.62 c -0.48,0.11 -0.7,0.42 -0.68,0.92 c -38.01,38.17 -76.12,76.22 -114.34,114.17 c -0.41,0.11 -0.67,0.38 -0.78,0.8 c -11.82,12.2 -23.82,24.22 -36.01,36.05 c -0.74,0.03 -1.06,0.41 -0.96,1.16 c -27.47,27.63 -55.07,55.14 -82.78,82.53 c -3.5,3.04 -9.38,1.02 -12.42,-1.77 c 1.16,-0.24 2.19,-0.77 3.08,-1.59 c 0.85,-1.17 4.79,-3.16 4.86,-4.41 c 0.57,-0.39 3.82,-0.86 2.6,-1.94 c -1.36,0.02 -2.22,0.66 -2.6,1.94 c -1.6,-0.26 -5.85,3.15 -7.61,3.73 c -0.56,0.24 -0.91,0.63 -1.06,1.19 c -1.98,0.16 -7.21,-5.12 -7.15,-7.15 c 1.47,-0.03 14.28,-9.29 14.82,-10.69 c 1.55,0 2.6,-0.72 3.14,-2.17 c 0.32,0.06 0.59,-0.03 0.79,-0.26 c -0.4,-0.28 -0.66,-0.19 -0.79,0.26 c -1.5,0.06 -2.55,0.79 -3.14,2.17 c -2.36,-0.22 -14.15,7.56 -16.79,9.25 c -2.43,-2.2 -4.74,-4.52 -6.95,-6.95 c 0.86,-0.34 1.68,-0.76 2.46,-1.26 c 13.11,-8.89 26.09,-18.27 39.51,-26.61 c 0.56,-0.31 0.82,-0.79 0.78,-1.42 c 1.47,-0.07 2.5,-0.79 3.09,-2.17 c 0.78,0.17 1.41,-0.04 1.91,-0.64 c -0.52,-0.92 -1.98,-0.27 -1.91,0.64 c -1.43,0.16 -2.47,0.88 -3.09,2.17 c -1.91,0.73 -3.77,1.6 -5.59,2.59 c -12.65,7.33 -25.32,14.65 -38.02,21.94 c -0.6,0.27 -1,0.71 -1.2,1.32 c -2.06,-0.01 -7.02,-5.37 -8.5,-6.98 c 0.85,0.16 1.67,0.06 2.46,-0.31 c 6.47,-4.27 12.99,-8.47 19.54,-12.62 c 0.42,-0.43 0.92,-0.76 1.49,-0.99 c 1.94,-1.59 9.05,-5.04 9.92,-7.01 c 1.29,-0.06 4.69,-1.68 4.92,-2.97 c 0.91,0.31 4.55,-1.01 2.56,-1.98 c -1.26,0.15 -2.12,0.82 -2.56,1.98 c -1.72,-0.29 -4.19,1.44 -4.92,2.97 c -0.71,-0.05 -1.39,0.08 -2.02,0.42 c -3.03,1.82 -6.08,3.6 -9.16,5.34 c -0.58,0.43 -1.19,0.83 -1.81,1.19 c -6.7,3.84 -13.41,7.68 -20.11,11.53 c -0.59,0.41 -0.82,0.96 -0.67,1.67 c -4.75,-2.79 -10.62,-9.51 -13.64,-14.2 c 18.32,-11.26 36.6,-22.58 54.84,-33.96 c 0.48,-0.42 1.02,-0.77 1.6,-1.04 c 1.4,-0.85 2.74,-1.76 4.01,-2.74 c 0.44,-0.11 0.88,-0.22 1.31,-0.33 c 0.67,-0.51 1.21,-1.13 1.63,-1.86 c 1.36,0.13 4.77,-1.79 5.04,-3.13 c 1.42,-0.09 4.46,-1.55 5.02,-2.84 c 1.31,-0.24 2.3,-0.96 2.96,-2.15 c 0.77,0.17 1.4,-0.04 1.89,-0.64 c -0.53,-0.95 -1.99,-0.28 -1.89,0.64 c -1.47,0.09 -2.46,0.81 -2.96,2.15 c -1.55,-0.54 -4.52,1.43 -5.02,2.84 c -2.19,0.22 -3.88,1.27 -5.04,3.13 c -0.94,-0.29 -1.61,-0.03 -2.01,0.78 c -0.45,0.08 -0.89,0.15 -1.34,0.23 c -1.38,0.66 -2.62,1.53 -3.69,2.61 c -1.07,0.26 -2.04,0.71 -2.93,1.34 c -17.67,10.2 -35.35,20.4 -53.04,30.6 c -0.63,0.42 -1.15,0.95 -1.58,1.58 c -0.41,-2.5 -0.46,-5.01 -0.12,-7.52 c 0.95,-5.9 22.49,-28.09 26.99,-30 c 0.62,-0.13 1.21,-0.35 1.77,-0.68 c 1.88,-1.37 3.87,-2.6 5.94,-3.69 c 0.43,-0.39 0.79,-0.82 1.09,-1.32 c 1.75,-0.03 4.18,-1.4 4.92,-3.02 c 0.98,0.24 1.67,-0.06 2.06,-0.93 c 1.36,-0.17 2.36,-0.87 2.98,-2.09 c 1,0.28 1.68,-0.03 2.03,-0.94 c 0.86,0.04 4.1,-0.88 2.58,-2.09 c -1.48,-0.04 -2.34,0.66 -2.58,2.09 c -0.96,-0.22 -1.64,0.09 -2.03,0.94 c -1.66,-0.18 -2.66,0.52 -2.98,2.09 c -1.03,-0.34 -1.72,-0.03 -2.06,0.93 c -1.82,0.12 -4.12,1.3 -4.92,3.02 c -2.06,-0.45 -3.69,2.15 -6.05,2.07 c 0.01,-2.11 22.69,-23.77 26.1,-26.26 c 0.37,-0.08 0.74,-0.15 1.11,-0.23 c 12.75,-7.83 25.49,-15.68 38.21,-23.55 c 0.5,-0.4 1.05,-0.74 1.63,-1 c 5.27,-3.33 10.58,-6.6 15.93,-9.81 c 0.48,-0.31 0.82,-0.73 1.02,-1.26 c 1.44,0 2.44,-0.66 3,-2 c 0.9,0.14 1.57,-0.18 2,-0.96 c 1.41,-0.05 2.41,-0.75 2.99,-2.09 c 0.78,0.18 1.42,-0.04 1.92,-0.64 c -0.57,-0.84 -1.69,-0.01 -1.92,0.64 c -1.12,0.33 -2.88,0.65 -2.99,2.09 c -0.89,-0.13 -1.56,0.19 -2,0.96 c -1.42,0.05 -2.42,0.72 -3,2 c -0.5,-0.08 -0.99,-0.05 -1.47,0.1 c -4.62,2.73 -9.27,5.44 -13.93,8.13 c -0.61,0.4 -1.14,0.89 -1.58,1.47 c -1.11,0.23 -2.11,0.67 -3.02,1.33 c -9.97,5.7 -19.89,11.45 -29.77,17.25 c -0.1,-0.72 0.1,-1.34 0.62,-1.85 c 9.79,-9.24 19.61,-18.45 29.44,-27.64 c 1.14,0.12 1.96,-0.36 2.45,-1.42 c 0.99,-0.29 1.92,-0.71 2.79,-1.26 c 10.35,-6.36 20.5,-13.06 30.87,-19.21 c 3.53,-2.18 7.06,-4.35 10.6,-6.52 c 0.52,-0.27 0.79,-0.7 0.8,-1.28 c 1.52,-0.22 4.85,-1.43 5.14,-3.13 c 1.52,-0.02 4.53,-1.44 5.02,-2.95 c 1.4,-0.07 2.39,-0.75 2.98,-2.04 c 0.8,0.17 1.46,-0.05 1.97,-0.67 c -0.57,-0.91 -1.7,0.01 -1.97,0.67 c -1.38,0.13 -2.37,0.81 -2.98,2.04 c -1.76,-0.08 -4.15,1.42 -5.02,2.95 c -2.16,0.3 -3.87,1.34 -5.14,3.13 c -0.66,-0.12 -1.28,-0.02 -1.88,0.29 c -3.62,2.21 -7.28,4.32 -10.99,6.34 c -4.45,2.84 -8.98,5.55 -13.57,8.14 c -3.23,1.75 -6.47,3.46 -9.73,5.15 c -0.19,-0.04 -0.37,-0.08 -0.56,-0.12 c -0.02,-0.63 0.21,-1.16 0.69,-1.58 c 18.74,-17.64 36.53,-35.64 54.02,-54.54 c 0.47,-0.04 0.93,-0.07 1.4,-0.11 c 18.16,-11.19 36.2,-22.52 54.13,-34 c 1.73,-0.56 5.68,-2.79 6.4,-4.37 c 0.51,-0.13 1.02,-0.26 1.54,-0.38 c 1.97,-1.14 5.6,-2.83 6.74,-4.8 c 0.85,0.03 1.5,-0.3 1.94,-1 c 1.45,-0.1 2.46,-0.81 3.03,-2.13 c 0.95,0.21 1.61,-0.1 2,-0.93 c 1.4,-0.13 2.43,-0.83 3.09,-2.09 c 0.74,0.15 1.34,-0.08 1.78,-0.69 c -0.54,-0.86 -1.72,-0.02 -1.78,0.69 c -1.54,0.02 -2.57,0.72 -3.09,2.09 c -0.9,-0.15 -1.56,0.16 -2,0.93 c -1.51,0.02 -2.52,0.73 -3.03,2.13 c -0.94,-0.21 -1.59,0.12 -1.94,1 c -0.71,-0.05 -1.38,0.09 -2.01,0.42 c -1.77,0.93 -3.43,2 -4.96,3.22 c -0.35,0.1 -0.69,0.2 -1.04,0.3 c -2.71,1.54 -5.39,3.1 -8.05,4.67 c -15.28,8.83 -30.53,17.71 -45.75,26.64 c -0.08,-0.74 0.13,-1.4 0.62,-1.97 c 4.83,-5.02 9.31,-10.32 13.44,-15.9 c -0.01,-0.63 -0.13,-1.24 -0.36,-1.83 c 0.73,0.14 1.42,0.03 2.06,-0.34 c 10.46,-6.51 20.9,-13.04 31.31,-19.61 c 1.95,-1.07 3.86,-2.21 5.75,-3.41 c 0.52,-0.25 0.75,-0.64 0.68,-1.2 c 0.45,-0.01 0.9,-0.02 1.34,-0.02 c 1.69,-1.21 6.22,-3.22 7.03,-4.96 c 2.05,-0.38 3.7,-1.4 4.96,-3.05 c 1.52,-0.1 4.5,-1.55 4.9,-3.07 c 1.04,0.26 1.75,-0.07 2.14,-0.99 c 0.48,-0.28 4.22,-1.12 2.55,-2.08 c -1.47,-0.03 -2.31,0.66 -2.55,2.08 c -0.97,-0.19 -1.68,0.14 -2.14,0.99 c -1.56,0.04 -4.47,1.5 -4.9,3.07 c -1.72,0.08 -4.46,1.22 -4.96,3.05 c -2.09,-0.27 -5.57,2.13 -7.02,3.61 c -0.48,0.21 -0.96,0.42 -1.44,0.63 c -2.46,1.36 -4.92,2.71 -7.37,4.06 c -11.4,6.56 -22.75,13.2 -34.05,19.94 c -1.72,-1.36 -6.85,-5.46 -7.26,-7.51 c 2.53,-0.79 16.06,-13.46 19.54,-15.78 c 1.07,-0.8 1.9,-1.8 2.5,-2.98 c 0.94,-0.35 3.23,-0.64 2.49,-2.07 c -1.23,0.19 -2.06,0.88 -2.49,2.07 c -1.5,0.08 -2.84,0.61 -4.03,1.58 c -6.86,4.03 -13.76,8.02 -20.68,11.95 c -0.67,0.31 -0.97,0.81 -0.9,1.52 c -2.03,-0.65 -6.73,-5.59 -7.68,-7.45 c 6.66,-5.37 13.31,-10.7 19.96,-15.97 c -0.21,-0.34 -0.52,-0.48 -0.93,-0.42 c -7.55,4.22 -15.05,8.56 -22.5,13.04 c -5.41,-4.88 -10.62,-9.97 -15.64,-15.26 c 0.92,0.2 1.76,0.03 2.53,-0.5 c 6.71,-5.9 13.47,-11.74 20.29,-17.51 c 0.69,-0.75 2.59,-1.83 2.47,-2.95 c 0.84,-0.44 3.14,-0.71 2.47,-2.08 c -1.13,0.3 -1.95,1 -2.47,2.08 c -1.37,-0.02 -2.56,0.41 -3.59,1.29 c -8.1,4.75 -16.22,9.46 -24.38,14.11 c -0.63,0.49 -0.9,1.14 -0.84,1.94 c -2.95,-2.63 -5.73,-5.42 -8.34,-8.39 c 2.5,0.53 9.75,-7.22 12.27,-8.55 c 0.49,-0.35 0.74,-0.81 0.76,-1.39 c 0.5,-0.03 1,-0.07 1.51,-0.1 c 0.58,-0.52 2.1,-1.21 1.21,-2.11 c -0.7,-0.05 -1.2,0.24 -1.5,0.86 c -0.44,0.17 -0.89,0.35 -1.33,0.52 c -4.37,2.59 -8.78,5.14 -13.21,7.65 c -0.57,0.26 -0.91,0.68 -1.05,1.27 c -1.79,-0.79 -15.12,-13.97 -15.59,-15.55 c 2.43,-0.53 15.43,-12.54 18.79,-14.54 c 0.24,-0.28 0.33,-0.61 0.28,-0.97 c 0.57,-0.27 4.09,-0.95 2.6,-1.99 c -1.25,0.14 -2.12,0.8 -2.6,1.99 c -5.97,2.32 -14.8,8.32 -20.87,11.51 c -0.55,0.36 -0.79,0.87 -0.72,1.53 c -5.52,-4.13 -10.97,-10.19 -15.65,-15.32 c 2.91,-1.97 5.71,-4.07 8.43,-6.32 c 0.54,-0.48 0.75,-1.07 0.62,-1.78 c 0.57,0.08 1.14,0.16 1.71,0.24 c 1.52,-1.15 2.99,-2.34 4.42,-3.59 c -0.79,-1.33 -4,1.53 -4.8,2.24 c -0.43,0.22 -0.86,0.44 -1.3,0.65 c -3.17,1.73 -6.31,3.49 -9.43,5.3 c -0.67,0.3 -0.96,0.79 -0.88,1.49 c -1.87,-0.38 -6.78,-5.69 -7.73,-7.36 c 1.69,-1.4 11.22,-7.95 11.18,-9.6 c 0.5,-0.03 1,-0.06 1.51,-0.09 c 0.8,-0.48 1.36,-1.16 1.67,-2.03 c 0.64,-0.35 3.73,-0.89 2.5,-2.01 c -1.32,0.05 -2.15,0.72 -2.5,2.01 c -0.9,-0.16 -1.63,0.12 -2.17,0.82 c -0.38,0.17 -0.75,0.34 -1.13,0.51 c -4.56,2.51 -9.05,5.15 -13.46,7.93 c -1.73,-0.78 -6.95,-5.8 -7.37,-7.58 c 1.85,0.29 9.74,-7.18 11.66,-8.59 c 2.25,-1.81 4.6,-3.45 7.06,-4.93 c 0.36,-1.64 -2.07,-0.71 -2.41,0.51 c -6.41,3.4 -12.73,6.98 -18.96,10.74 c -2.74,-2.26 -5.29,-4.71 -7.66,-7.36 c 0.87,-0.01 1.68,-0.25 2.4,-0.74 c 4.85,-4.01 9.76,-7.88 14.73,-11.63 c -0.25,-0.36 -0.59,-0.49 -1.03,-0.4 c -1.85,1.12 -3.73,2.18 -5.66,3.2 c -3.54,2.1 -7.11,4.16 -10.7,6.18 c -0.66,0.3 -1,0.8 -1.04,1.51 c -2.21,-0.99 -6.04,-5.23 -7.61,-7.28 c 3.33,-2.39 6.63,-4.83 9.9,-7.31 c -0.4,-0.9 -3.75,1.49 -4.68,1.58 c -2.2,1.47 -4.44,2.89 -6.71,4.24 c -1.69,-1.38 -6.86,-5.67 -7.28,-7.65 c 0.65,0 1.22,-0.22 1.71,-0.66 c 8.03,-6.88 16.05,-13.69 24.07,-20.43 c -0.26,-0.32 -0.58,-0.4 -0.96,-0.25 c -9.27,5.37 -18.54,10.73 -27.84,16.06 c -0.61,0.47 -0.88,1.1 -0.78,1.88 c -1.56,-1.52 -8.11,-6.67 -7.91,-8.69 c 1.98,1.34 2.14,-1.58 3.92,-1.6 c 1.68,-1.13 3.26,-2.37 4.73,-3.73 c -0.92,-1.2 -4.04,1.47 -4.81,2.29 c -1.77,0.6 -3.39,1.48 -4.85,2.65 c -2.31,-1.43 -5.82,-5.08 -7.45,-7.4 c 0.43,0.05 0.87,0.1 1.3,0.14 c 1.35,-0.65 2.3,-1.66 2.85,-3.03 c 1.3,-0.04 2.29,-0.58 2.97,-1.63 c -0.83,-1.13 -2.58,0.8 -2.97,1.63 c -1.56,0.09 -2.85,0.72 -3.88,1.89 c -0.27,0.13 -0.54,0.27 -0.8,0.4 c -1.83,-1.18 -6.82,-5.66 -7.32,-7.52 c 0.62,-0.1 1.16,-0.35 1.63,-0.77 c 8.15,-7.07 16.22,-14.18 24.2,-21.34 c -0.57,-0.27 -1.13,-0.24 -1.69,0.11 c -9.21,5.33 -18.45,10.65 -27.7,15.96 c -0.62,0.28 -0.97,0.75 -1.04,1.41 c -5.11,-3.73 -10.22,-9.48 -14.54,-14.18 c 0.22,-1.09 1.73,-0.75 2.43,-1.36 c 3.76,-3.14 7.6,-6.11 11.53,-8.92 c -1.66,-1.64 -3.7,1.59 -5.24,2.23 c -2.9,1.44 -5.74,2.99 -8.51,4.66 c -0.72,0.66 -1.1,1.5 -1.12,2.51 c -6.66,-12.5 10.39,-23.23 17.6,-31.13 c 6.64,-6.09 19.93,-26.02 29.7,-24.61 Z M 369.8,89.22 c 0.62,-0.26 4.05,-1.2 2.81,-2.27 c -1.58,-0.03 -2.52,0.73 -2.81,2.27 Z M 197.82,158.33 c 0.68,-0.26 4.25,-1.2 2.81,-2.32 c -1.46,0.15 -2.4,0.92 -2.81,2.32 Z M 123.68,170.23 c 0.52,0.01 2.95,-0.42 1.84,-1.31 c -0.88,0.07 -1.49,0.51 -1.84,1.31 Z M 359.71,176.14 c 0.53,-0.08 0.95,-0.34 1.25,-0.78 c -0.64,-0.16 -1.06,0.1 -1.25,0.78 Z M 142.65,188.2 c 0.67,-0.25 4.22,-1.09 2.88,-2.27 c -1.49,0.08 -2.46,0.84 -2.88,2.27 Z M 262.68,212.16 c 0.16,-0.07 2.06,-0.55 0.87,-1.01 c -0.52,0.14 -0.81,0.48 -0.87,1.01 Z M 168.69,220.13 c 0.64,-0.21 4.07,-1.02 2.86,-2.14 c -1.53,-0.05 -2.48,0.66 -2.86,2.14 Z M 277.66,266.06 c 0.52,0.01 0.93,-0.19 1.22,-0.61 c -0.62,-0.3 -1.02,-0.1 -1.22,0.61 Z M 295.97,268.08 c -0.9,-0.2 -1.55,0.1 -1.94,0.9 c -1.41,0.05 -2.45,0.7 -3.12,1.93 c -0.87,-0.08 -1.53,0.25 -1.99,0.98 c -1.48,0.12 -2.44,0.85 -2.88,2.2 c -0.82,-0.23 -1.49,-0.02 -2.02,0.62 c 0.61,0.88 1.63,-0.04 2.02,-0.62 c 1.44,-0.14 2.4,-0.87 2.88,-2.2 c 0.94,0.2 1.6,-0.13 1.99,-0.98 c 1.47,0.06 2.51,-0.59 3.12,-1.93 c 0.92,0.2 1.56,-0.1 1.94,-0.9 c 1.03,-0.09 5.94,-1.69 4.58,-3.18 c -1.44,0.14 -4.11,1.6 -4.58,3.18 Z M 167.97,297 c -1.77,-0.07 -4.17,1.54 -4.98,3.1 c -2.08,0.22 -3.74,1.17 -4.99,2.85 c -1.4,0.08 -4.66,1.39 -5.07,2.76 c 0.79,1.36 4.71,-1.61 5.07,-2.76 c 2.07,-0.26 3.73,-1.21 4.99,-2.85 c 2.07,-0.39 3.73,-1.43 4.98,-3.1 c 0.78,0.1 1.41,-0.15 1.9,-0.74 c -0.58,-0.86 -1.74,0.03 -1.9,0.74 Z M 351.35,296.63 c 1.3,1.36 2.63,2.7 3.98,4.02 c -8.52,4.9 -16.94,9.95 -25.27,15.15 c -0.74,0.57 -2.29,0.17 -1.58,-0.86 c 7.61,-6.12 15.23,-12.23 22.87,-18.31 Z M 271.17,317.77 c -0.51,0.22 -1.02,0.44 -1.54,0.66 c -1.24,0.44 -2.35,1.1 -3.33,1.97 c -2.01,-0.67 -2.54,-1.91 -1.6,-3.71 c 2.37,0.79 16.81,-9.1 20.04,-10.49 c 0.46,-0.21 0.82,-0.11 1.08,0.3 c -0.17,1.23 -3.05,2.79 -3.93,3.68 c -1.69,1.71 -9.87,6.25 -10.72,7.59 Z M 362.35,307.63 c 0.97,1.02 1.96,2.03 2.95,3.03 c -6.25,3.43 -12.48,6.88 -18.7,10.32 c -0.36,-0.58 -0.25,-1.11 0.33,-1.57 c 5.06,-4.04 10.2,-7.97 15.42,-11.78 Z M 372.33,317.63 c 1.32,1.35 2.66,2.69 4,4.01 c -8.79,5.34 -17.69,10.46 -26.71,15.34 c -0.46,-0.6 -0.36,-1.12 0.3,-1.57 c 6.9,-5.43 13.69,-11.01 20.37,-16.73 c 0.62,-0.48 1.3,-0.82 2.04,-1.05 Z M 285.69,340.27 c -1.33,-1.33 -2.68,-2.65 -4.04,-3.95 c 5.16,-4.72 18.06,-10.41 24.29,-15.15 c 1.48,-0.96 2.4,0.62 1.18,1.34 c -7.38,5.52 -14.66,11.51 -21.43,17.76 Z M 294.68,349.35 c -0.63,-0.72 -1.3,-1.4 -2.02,-2.04 c 0.44,-0.67 1,-1.22 1.68,-1.64 c 5.67,-3.3 11.38,-6.5 17.12,-9.58 c 0.49,0.58 0.39,1.11 -0.29,1.57 c -3.95,1.82 -13.22,11.57 -16.49,11.69 Z M 306.71,361.26 c -1.33,-1.34 -2.68,-2.66 -4.04,-3.95 c 0.19,-0.76 0.62,-1.34 1.28,-1.75 c 8.08,-4.57 16.07,-9.27 23.98,-14.11 c 1.47,-1.15 2.56,0.32 1.18,1.16 c -7.2,5.27 -15.67,12.54 -22.4,18.65 Z M 406.34,351.69 c 0.66,0.68 1.33,1.33 2.03,1.96 c -0.53,0.58 -1.12,1.07 -1.79,1.48 c -2.99,1.72 -6,3.35 -9.04,4.9 c -0.33,-0.61 -0.18,-1.15 0.44,-1.6 c 1.85,-1.42 7.26,-5.04 8.36,-6.74 Z M 415.34,360.65 c 0.65,0.69 1.33,1.36 2.04,1.99 c -0.8,1.56 -12.05,8.3 -13.81,8.41 c -0.42,-0.64 -0.31,-1.2 0.32,-1.69 c 3.85,-2.86 7.66,-5.76 11.45,-8.71 Z M 338.63,393.39 c -0.63,-0.69 -1.28,-1.37 -1.94,-2.04 c 3.73,-1.98 7.41,-4.05 11.04,-6.22 c 0.47,-0.21 0.82,-0.11 1.06,0.32 c -0.5,0.7 -1.1,1.31 -1.8,1.82 c -2.75,2.09 -5.54,4.13 -8.36,6.12 Z M 347.6,402.43 c -0.65,-0.7 -1.32,-1.37 -2.02,-2.03 c 2.21,-1.41 14.16,-9.28 15.88,-9.25 c 0.52,0.56 0.44,1.08 -0.24,1.55 c -4.27,2.31 -9.55,7.96 -13.62,9.73 Z M 460.34,405.69 c 0.99,1.01 2.01,1.99 3.04,2.96 c -2.74,3.15 -15.13,8.49 -19.3,12.19 c -0.76,0.6 -2.29,0.16 -1.65,-0.93 c 6.17,-4.37 12.3,-9.2 17.91,-14.22 Z M 380,419.31 c -0.69,-0.09 -1.37,-0.08 -2.05,0 c -2.54,1.72 -5.11,3.39 -7.72,5.03 c -0.39,-0.13 -0.79,-0.26 -1.19,-0.39 c 0.15,-0.87 0.61,-1.52 1.38,-1.96 c 6.84,-3.76 13.59,-7.68 20.25,-11.75 c 1.41,-0.07 1.6,0.43 0.58,1.48 c -2.18,1.4 -4.24,2.94 -6.19,4.62 c -0.53,0.04 -1.05,0.01 -1.58,-0.1 c -1.67,1.25 -2.59,0.82 -3.48,3.07 Z M 470.35,415.69 c 0.99,1 2,1.99 3.02,2.96 c -1.99,2.97 -15.5,8.83 -19.25,12.28 c -0.84,0.68 -2.23,0.23 -1.64,-0.94 c 6.1,-4.59 12.06,-9.36 17.87,-14.3 Z M 145.94,418.9 c -0.77,-0.07 -1.36,0.21 -1.79,0.82 c 0.59,0.96 1.87,0.03 1.79,-0.82 c 1.02,0.16 4.09,-0.57 2.65,-1.98 c -1.24,0.18 -2.12,0.84 -2.65,1.98 Z M 487.25,432.39 c 1.47,0.97 2.79,2.12 3.96,3.44 c -2.06,3.7 -17.95,12.03 -22.23,14.63 c -1.43,1.05 -2.68,0.1 -1.15,-1.13 c 4.22,-3.78 16.73,-13.09 19.42,-16.94 Z M 392.95,448.08 c -0.64,-0.7 -1.3,-1.39 -1.98,-2.05 c 0.08,-0.64 0.41,-1.1 0.98,-1.4 c 2.44,-1.43 17.13,-10.56 18.56,-10.5 c 0.91,0.54 0.3,1.02 -0.28,1.58 c -3.25,1.38 -14.75,12.89 -17.28,12.37 Z M 402.96,458.03 c -0.63,-0.71 -1.3,-1.38 -2.01,-2.02 c 0.26,-0.87 0.79,-1.52 1.6,-1.93 c 5.89,-3.49 11.85,-6.82 17.88,-9.99 c 0.41,0.57 0.3,1.08 -0.3,1.54 c -3.44,2 -13.94,12.56 -17.17,12.4 Z M 422.22,475.92 c -1.87,0.03 -3.26,-2.45 -4.61,-3.5 c 8.5,-4.88 16.95,-9.86 25.34,-14.93 c 1.47,-1.17 2.6,0.22 1.18,1.14 c -7.3,5.82 -14.6,11.58 -21.91,17.29 Z M 70.87,472.19 c 0.21,0.61 0.55,0.69 1.03,0.21 c -0.28,-0.3 -0.62,-0.37 -1.03,-0.21 Z"/></g>
<g><path fill="#dd4a51" fill-opacity="0.22" stroke="#dd4a51" stroke-width="0.5" stroke-opacity="0.22" d="M 69.04,473.93 c -0.54,1.45 -1.59,2.17 -3.14,2.17 c 0.59,-1.38 1.64,-2.11 3.14,-2.17 Z"/></g>
<g><path fill="#dd4851" fill-opacity="0.275" stroke="#dd4851" stroke-width="0.5" stroke-opacity="0.275" d="M 251.03,219.04 c -1.26,1.65 -2.91,2.67 -4.96,3.05 c 0.5,-1.83 3.24,-2.97 4.96,-3.05 Z M 295.97,268.08 c -0.38,0.8 -1.02,1.1 -1.94,0.9 c 0.39,-0.8 1.04,-1.1 1.94,-0.9 Z"/></g>
<g><path fill="#de4752" fill-opacity="0.475" stroke="#de4752" stroke-width="0.5" stroke-opacity="0.475" d="M 359.71,176.14 c 0.19,-0.68 0.61,-0.94 1.25,-0.78 c -0.3,0.44 -0.72,0.7 -1.25,0.78 Z M 256.07,229.93 c 0.06,-0.71 1.24,-1.55 1.78,-0.69 c -0.44,0.61 -1.04,0.84 -1.78,0.69 Z"/></g>
<g><path fill="#dd4752" fill-opacity="0.51" stroke="#dd4752" stroke-width="0.5" stroke-opacity="0.51" d="M 148.85,168.13 c 0.48,-1.19 1.35,-1.85 2.6,-1.99 c 1.49,1.04 -2.03,1.72 -2.6,1.99 Z M 167.97,297 c 0.16,-0.71 1.32,-1.6 1.9,-0.74 c -0.49,0.59 -1.12,0.84 -1.9,0.74 Z M 64.06,400.02 c 0.24,-1.43 1.1,-2.13 2.58,-2.09 c 1.52,1.21 -1.72,2.13 -2.58,2.09 Z M 69.93,444.08 c 0.44,-1.16 1.3,-1.83 2.56,-1.98 c 1.99,0.97 -1.65,2.29 -2.56,1.98 Z M 66.9,489.02 c 0.38,-1.28 1.24,-1.92 2.6,-1.94 c 1.22,1.08 -2.03,1.55 -2.6,1.94 Z"/></g>
<g><path fill="#db4752" fill-opacity="0.251" stroke="#db4752" stroke-width="0.5" stroke-opacity="0.251" d="M 378.02,165.05 c -1.26,1.66 -2.92,2.64 -4.97,2.96 c 0.76,-1.66 3.13,-3.17 4.97,-2.96 Z M 162.96,312.93 c -0.29,1.7 -3.62,2.91 -5.14,3.13 c 1.27,-1.79 2.98,-2.83 5.14,-3.13 Z"/></g>
<g><path fill="#dd4752" fill-opacity="0.565" stroke="#dd4752" stroke-width="0.5" stroke-opacity="0.565" d="M 424.95,121.98 c -0.36,1.09 -4.09,3.96 -4.93,2.64 c 1.16,-1.08 3.17,-2.82 4.93,-2.64 Z"/></g>
<g><path fill="#dd4752" fill-opacity="0.49" stroke="#dd4752" stroke-width="0.5" stroke-opacity="0.49" d="M 369.8,89.22 c 0.29,-1.54 1.23,-2.3 2.81,-2.27 c 1.24,1.07 -2.19,2.01 -2.81,2.27 Z M 166.22,134.9 c -0.5,0.75 -2.1,2.78 -3.05,1.71 c 0.22,-1.23 2.06,-1.51 3.05,-1.71 Z M 197.82,158.33 c 0.41,-1.4 1.35,-2.17 2.81,-2.32 c 1.44,1.12 -2.13,2.06 -2.81,2.32 Z M 365.95,172.05 c -0.56,0.78 -1.92,3.06 -2.95,1.62 c 0.29,-1.1 2.01,-1.39 2.95,-1.62 Z M 258.07,214.98 c 0.24,-1.42 1.08,-2.11 2.55,-2.08 c 1.67,0.96 -2.07,1.8 -2.55,2.08 Z M 168.69,220.13 c 0.38,-1.48 1.33,-2.19 2.86,-2.14 c 1.21,1.12 -2.22,1.93 -2.86,2.14 Z M 286.04,274.09 c -0.39,0.58 -1.41,1.5 -2.02,0.62 c 0.53,-0.64 1.2,-0.85 2.02,-0.62 Z M 167.97,297 c -1.25,1.67 -2.91,2.71 -4.98,3.1 c 0.81,-1.56 3.21,-3.17 4.98,-3.1 Z M 138.01,341.91 c 0.23,-0.65 1.35,-1.48 1.92,-0.64 c -0.5,0.6 -1.14,0.82 -1.92,0.64 Z M 145.94,418.9 c 0.08,0.85 -1.2,1.78 -1.79,0.82 c 0.43,-0.61 1.02,-0.89 1.79,-0.82 Z"/></g>
<g><path fill="#dd4753" fill-opacity="0.263" d="M 357.32,147.27 c -0.38,0.33 -0.8,0.59 -1.27,0.78 c 0.17,-0.65 0.59,-0.91 1.27,-0.78 Z M 331.31,162.27 c -0.37,0.33 -0.79,0.59 -1.25,0.78 c 0.14,-0.68 0.56,-0.94 1.25,-0.78 Z M 295.95,164.96 c -0.14,0.68 -0.56,0.94 -1.27,0.77 c 0.38,-0.33 0.8,-0.59 1.27,-0.77 Z M 305.32,177.27 c -0.38,0.33 -0.8,0.59 -1.26,0.78 c 0.14,-0.67 0.56,-0.93 1.26,-0.78 Z M 279.31,192.28 c -0.37,0.32 -0.79,0.58 -1.25,0.77 c 0.09,-0.74 0.51,-1 1.25,-0.77 Z"/></g>
<g><path fill="#de4853" fill-opacity="0.361" stroke="#de4853" stroke-width="0.5" stroke-opacity="0.361" d="M 424.13,91.35 c -0.37,0.44 -0.84,0.61 -1.44,0.52 c 0.44,-0.28 0.92,-0.45 1.44,-0.52 Z M 281.03,264.06 c -0.99,0.63 -0.99,0.63 0,0 Z"/></g>
<g><path fill="#b5394e" stroke="#b5394e" stroke-width="0.5" d="M 333.35,278.67 c -5.76,5 -11.62,9.87 -17.6,14.61 c -1.74,1.29 -0.15,2.16 1.33,1.19 c 3.24,-1.9 6.43,-3.88 9.58,-5.93 c 2.24,-0.73 4.12,-1.97 5.64,-3.72 c 1.64,-0.35 3.11,-1.07 4.4,-2.17 c 5.05,4.48 9.93,9.14 14.65,13.98 c -7.64,6.08 -15.26,12.19 -22.87,18.31 c -0.71,1.03 0.84,1.43 1.58,0.86 c 8.33,-5.2 16.75,-10.25 25.27,-15.15 c 2.31,2.35 4.65,4.68 7.02,6.98 c -5.22,3.81 -10.36,7.74 -15.42,11.78 c -0.58,0.46 -0.69,0.99 -0.33,1.57 c 6.22,-3.44 12.45,-6.89 18.7,-10.32 c 2.34,2.33 4.68,4.65 7.03,6.97 c -0.74,0.23 -1.42,0.57 -2.04,1.05 c -6.68,5.72 -13.47,11.3 -20.37,16.73 c -0.66,0.45 -0.76,0.97 -0.3,1.57 c 9.02,-4.88 17.92,-10 26.71,-15.34 c 10.02,10 20.02,20.02 30.01,30.05 c -1.1,1.7 -6.51,5.32 -8.36,6.74 c -0.62,0.45 -0.77,0.99 -0.44,1.6 c 3.04,-1.55 6.05,-3.18 9.04,-4.9 c 0.67,-0.41 1.26,-0.9 1.79,-1.48 c 2.29,2.36 4.62,4.7 6.97,7 c -3.79,2.95 -7.6,5.85 -11.45,8.71 c -0.63,0.49 -0.74,1.05 -0.32,1.69 c 1.76,-0.11 13.01,-6.85 13.81,-8.41 c 7.44,7.38 14.75,14.88 21.94,22.48 c -0.77,0.74 -4.32,2.45 -4.28,3.58 c -1.76,-0.24 -5.35,3.01 -6.82,4.04 c -3.07,1.45 -7.4,5.18 -9.77,7.72 c 0.47,0.23 0.92,0.21 1.37,-0.09 c 3.23,-3.49 19.91,-9.51 20.55,-13.3 c 0.24,-0.15 0.49,-0.31 0.74,-0.47 c 1.71,1.62 7.64,6.72 7.95,8.77 c -0.64,-0.24 -1.22,-0.14 -1.72,0.33 c -1.74,1.86 -11.84,9.39 -12.15,10.99 c -0.81,-0.02 -1.56,0.19 -2.25,0.61 c -2.64,2.33 -5.15,4.76 -7.54,7.27 c 1.69,-0.3 3.31,-0.89 4.86,-1.77 c 7.34,-4.42 14.72,-8.76 22.14,-13.05 c 0.44,-0.29 0.78,-0.67 1.02,-1.13 c 2.26,2.4 4.57,4.76 6.92,7.07 c -5.61,5.02 -11.74,9.85 -17.91,14.22 c -0.64,1.09 0.89,1.53 1.65,0.93 c 4.17,-3.7 16.56,-9.04 19.3,-12.19 c 2.29,2.37 4.61,4.72 6.97,7.04 c -5.81,4.94 -11.77,9.71 -17.87,14.3 c -0.59,1.17 0.8,1.62 1.64,0.94 c 3.75,-3.45 17.26,-9.31 19.25,-12.28 c 4.56,4.65 9.18,9.23 13.88,13.74 c -2.69,3.85 -15.2,13.16 -19.42,16.94 c -1.53,1.23 -0.28,2.18 1.15,1.13 c 4.28,-2.6 20.17,-10.93 22.23,-14.63 c 13.97,14.69 -4.94,27.83 -14.64,37.2 c -8.81,9.79 -25.58,34.62 -39.61,18.47 c -2.29,-2.21 -14.59,-13.47 -14.74,-15.58 c 7.31,-5.71 14.61,-11.47 21.91,-17.29 c 1.42,-0.92 0.29,-2.31 -1.18,-1.14 c -8.39,5.07 -16.84,10.05 -25.34,14.93 c -4.89,-4.8 -9.77,-9.6 -14.65,-14.39 c 3.23,0.16 13.73,-10.4 17.17,-12.4 c 0.6,-0.46 0.71,-0.97 0.3,-1.54 c -6.03,3.17 -11.99,6.5 -17.88,9.99 c -0.81,0.41 -1.34,1.06 -1.6,1.93 c -2.62,-2.68 -5.29,-5.33 -8,-7.93 c 2.53,0.52 14.03,-10.99 17.28,-12.37 c 0.58,-0.56 1.19,-1.04 0.28,-1.58 c -1.43,-0.06 -16.12,9.07 -18.56,10.5 c -0.57,0.3 -0.9,0.76 -0.98,1.4 c -2.63,-2.71 -5.29,-5.37 -8.01,-7.99 c 2.09,0.53 3.94,-3.06 5.98,-3.68 c 3.63,-3.36 7.32,-6.63 11.08,-9.83 c 2.63,-1.6 4.88,-3.62 6.77,-6.06 c -0.28,-0.26 -0.61,-0.33 -1,-0.21 c -1.89,1.4 -4,1.56 -5.48,3.41 c -1.67,0.14 -2.85,0.98 -3.56,2.5 c -1.47,-0.18 -17.22,8.79 -17.63,10.2 c -2.28,-2.69 -4.75,-5.19 -7.43,-7.49 c -0.27,-0.27 -0.39,-0.59 -0.37,-0.96 c 2.86,-2.3 5.75,-4.5 8.68,-6.61 c 0.89,-2.25 1.81,-1.82 3.48,-3.07 c 0.53,0.11 1.05,0.14 1.58,0.1 c 1.95,-1.68 4.01,-3.22 6.19,-4.62 c 1.02,-1.05 0.83,-1.55 -0.58,-1.48 c -6.66,4.07 -13.41,7.99 -20.25,11.75 c -0.77,0.44 -1.23,1.09 -1.38,1.96 c -7.13,-7.19 -14.27,-14.36 -21.44,-21.52 c 4.07,-1.77 9.35,-7.42 13.62,-9.73 c 0.68,-0.47 0.76,-0.99 0.24,-1.55 c -1.72,-0.03 -13.67,7.84 -15.88,9.25 c -2.3,-2.36 -4.61,-4.69 -6.95,-7.01 c 2.82,-1.99 5.61,-4.03 8.36,-6.12 c 0.7,-0.51 1.3,-1.12 1.8,-1.82 c -0.24,-0.43 -0.59,-0.53 -1.06,-0.32 c -3.63,2.17 -7.31,4.24 -11.04,6.22 c -10.03,-9.99 -20.03,-20.02 -29.98,-30.09 c 6.73,-6.11 15.2,-13.38 22.4,-18.65 c 1.38,-0.84 0.29,-2.31 -1.18,-1.16 c -7.91,4.84 -15.9,9.54 -23.98,14.11 c -0.66,0.41 -1.09,0.99 -1.28,1.75 c -2.61,-2.71 -5.27,-5.36 -7.99,-7.96 c 3.27,-0.12 12.54,-9.87 16.49,-11.69 c 0.68,-0.46 0.78,-0.99 0.29,-1.57 c -5.74,3.08 -11.45,6.28 -17.12,9.58 c -0.68,0.42 -1.24,0.97 -1.68,1.64 c -2.3,-2.36 -4.63,-4.71 -6.97,-7.04 c 6.77,-6.25 14.05,-12.24 21.43,-17.76 c 1.22,-0.72 0.3,-2.3 -1.18,-1.34 c -6.23,4.74 -19.13,10.43 -24.29,15.15 c -4.84,-4.74 -9.52,-9.63 -14.04,-14.67 c 1.21,-0.67 2.03,-1.64 2.49,-2.93 c 0.65,0.04 1.01,-0.27 1.07,-0.95 c 0.85,-1.34 9.03,-5.88 10.72,-7.59 c 0.88,-0.89 3.76,-2.45 3.93,-3.68 c -0.26,-0.41 -0.62,-0.51 -1.08,-0.3 c -3.23,1.39 -17.67,11.28 -20.04,10.49 c 17.36,-17.46 34.76,-34.88 52.2,-52.26 c 0.73,-0.5 1.47,-0.49 2.19,0.03 c 4.75,4.74 9.5,9.48 14.26,14.21 Z M 317.75,277.25 c 0.63,-0.45 4.07,-1.04 2.84,-2.34 c -1.53,0.04 -2.47,0.82 -2.84,2.34 Z"/></g>
<g><path fill="#b9394e" fill-opacity="0.373" stroke="#b9394e" stroke-width="0.5" stroke-opacity="0.373" d="M 317.75,277.25 c 0.37,-1.52 1.31,-2.3 2.84,-2.34 c 1.23,1.3 -2.21,1.89 -2.84,2.34 Z"/></g>
<g><path fill="#a93541" fill-opacity="0.133" stroke="#a93541" stroke-width="0.5" stroke-opacity="0.133" d="M 310.65,245.34 c 0.06,0.68 0.41,1.12 1.07,1.32 c -4.51,2.66 -9.07,5.3 -13.68,7.93 c -0.58,0.33 -1.21,0.47 -1.87,0.4 c -0.03,-0.62 0.23,-1.09 0.77,-1.41 c 4.56,-2.77 9.13,-5.52 13.71,-8.24 Z"/></g>
<g><path fill="#8f3136" fill-opacity="0.125" stroke="#8f3136" stroke-width="0.5" stroke-opacity="0.125" d="M 439.32,385.12 c 0.79,0.25 1.39,0.75 1.79,1.48 c -0.25,0.16 -0.5,0.32 -0.74,0.47 c -1.89,0.35 -3.32,1.98 -5.33,1.63 c -0.04,-1.13 3.51,-2.84 4.28,-3.58 Z"/></g>
<g><path fill="#792733" fill-opacity="0.09" stroke="#792733" stroke-width="0.5" stroke-opacity="0.09" d="M 57.02,103.62 c 0.02,0.48 0.05,0.96 0.08,1.44 c -1.78,0.02 -1.94,2.94 -3.92,1.6 c -0.47,0.16 -0.81,0.02 -1.01,-0.39 c 1.46,-1.17 3.08,-2.05 4.85,-2.65 Z"/></g>
<g><path fill="#6f2428" fill-opacity="0.051" stroke="#6f2428" stroke-width="0.5" stroke-opacity="0.051" d="M 345.09,119.64 c -0.02,0.45 -0.03,0.9 -0.05,1.36 c -0.57,0.25 -1.08,0.61 -1.52,1.05 c -0.63,-0.18 -1.13,-0.52 -1.5,-1.04 c 0.93,-0.67 1.95,-1.13 3.07,-1.37 Z M 113.04,356.66 c 0.01,0.46 0.02,0.91 0.03,1.37 c -0.58,0.26 -1.13,0.6 -1.63,1 c -0.59,-0.19 -1.07,-0.53 -1.42,-1.04 c 0.91,-0.66 1.91,-1.1 3.02,-1.33 Z"/></g>
<g><path fill="#713437" fill-opacity="0.325" stroke="#713437" stroke-width="0.5" stroke-opacity="0.325" d="M 482.72,86.26 c -0.57,1.14 -1.36,2.09 -2.39,2.87 c -0.12,-0.38 -0.24,-0.77 -0.36,-1.15 c 0.56,-1.2 1.47,-1.77 2.75,-1.72 Z"/></g>
<g><path fill="#703438" fill-opacity="0.306" stroke="#703438" stroke-width="0.5" stroke-opacity="0.306" d="M 112.71,342.99 c 0.01,0.45 0.03,0.89 0.05,1.34 c -0.49,1.06 -1.31,1.54 -2.45,1.42 c -0.06,-1.08 1.72,-2.05 2.4,-2.76 Z"/></g>
<g><path fill="#6f222b" fill-opacity="0.043" stroke="#6f222b" stroke-width="0.5" stroke-opacity="0.043" d="M 53.83,452.81 c 0.73,0.12 1.15,0.53 1.26,1.25 c -0.57,0.23 -1.07,0.56 -1.49,0.99 c -0.65,-0.17 -1.18,-0.52 -1.58,-1.05 c 0.62,-0.36 1.23,-0.76 1.81,-1.19 Z"/></g>
<g><path fill="#6a3237" fill-opacity="0.471" d="M 449.25,4.76 c -1.48,0.25 -2.97,0.23 -4.45,-0.06 c 0.38,-0.6 0.93,-0.87 1.67,-0.78 c 1.08,-0.14 2.01,0.15 2.78,0.84 Z"/></g>
<g><path fill="#6d252b" fill-opacity="0.067" stroke="#6d252b" stroke-width="0.5" stroke-opacity="0.067" d="M 73.95,416.69 c 0.03,0.44 0.06,0.88 0.09,1.31 c -0.58,0.27 -1.12,0.62 -1.6,1.04 c -0.57,-0.2 -1.05,-0.54 -1.42,-1.01 c 0.89,-0.63 1.86,-1.08 2.93,-1.34 Z"/></g>
<g><path fill="#9a3446" fill-opacity="0.341" d="M 444.58,507.34 c 1.26,-0.28 2.53,-0.36 3.81,-0.26 c -0.67,1.23 -2.91,1.3 -3.81,0.26 Z"/></g>
<g><path fill="#983a3f" fill-opacity="0.506" d="M 285.17,171.29 c -0.35,0.48 -0.84,0.69 -1.45,0.6 c 0.36,-0.48 0.84,-0.68 1.45,-0.6 Z M 283.72,171.89 c 0.06,0.78 -0.32,1.15 -1.12,1.11 c 0.38,-0.37 0.75,-0.74 1.12,-1.11 Z"/></g>
<g><path fill="#3b1b20" fill-opacity="0.047" stroke="#3b1b20" stroke-width="0.5" stroke-opacity="0.047" d="M 44.19,98.27 c 0.26,-0.13 0.53,-0.27 0.8,-0.4 c 0.64,0.11 0.98,0.49 1.03,1.14 c -0.43,-0.04 -0.87,-0.09 -1.3,-0.14 c -0.32,-0.07 -0.5,-0.28 -0.53,-0.6 Z"/></g>
<g><path fill="#3c2d2d" fill-opacity="0.133" stroke="#3c2d2d" stroke-width="0.5" stroke-opacity="0.133" d="M 446.78,121.39 c 0.45,-0.06 0.89,-0.13 1.34,-0.2 c -0.25,0.43 -0.55,0.82 -0.91,1.17 c -0.15,-0.32 -0.29,-0.64 -0.43,-0.97 Z"/></g>
<g><path fill="#74383c" fill-opacity="0.251" stroke="#74383c" stroke-width="0.5" stroke-opacity="0.251" d="M 191.91,376.25 c -0.15,0.37 -0.41,0.64 -0.78,0.8 c 0.11,-0.42 0.37,-0.69 0.78,-0.8 Z"/></g>
<g><path fill="#462e2e" fill-opacity="0.043" stroke="#462e2e" stroke-width="0.5" stroke-opacity="0.043" d="M 72.82,381.6 c 0.14,0.32 0.28,0.65 0.41,0.98 c -0.37,0.08 -0.74,0.15 -1.11,0.23 c 0.02,-0.52 0.26,-0.93 0.7,-1.21 Z"/></g>
<g><path fill="#2c2727" fill-opacity="0.18" stroke="#2c2727" stroke-width="0.5" stroke-opacity="0.18" d="M 361.98,93.62 c -0.04,0.78 -0.45,1.19 -1.21,1.23 c 0.31,-0.5 0.71,-0.91 1.21,-1.23 Z"/></g>
<g><path fill="#3a2929" fill-opacity="0.122" stroke="#3a2929" stroke-width="0.5" stroke-opacity="0.122" d="M 176.71,278.69 c 0.16,0.31 0.33,0.62 0.49,0.94 c -0.47,0.04 -0.93,0.07 -1.4,0.11 c 0.24,-0.4 0.54,-0.75 0.91,-1.05 Z"/></g>
<g><path fill="#673034" fill-opacity="0.271" stroke="#673034" stroke-width="0.5" stroke-opacity="0.271" d="M 316.78,139.25 c -0.05,0.41 -0.29,0.58 -0.72,0.51 c 0.21,-0.22 0.45,-0.39 0.72,-0.51 Z"/></g>
<g><path fill="#9d3c42" fill-opacity="0.663" d="M 184.2,271.33 c -0.37,0.48 -0.86,0.68 -1.47,0.62 c 0.36,-0.5 0.86,-0.71 1.47,-0.62 Z"/></g>
<g><path fill="#583535" fill-opacity="0.114" stroke="#583535" stroke-width="0.5" stroke-opacity="0.114" d="M 306.93,261.16 c -0.1,0.4 -0.33,0.7 -0.68,0.92 c -0.02,-0.5 0.2,-0.81 0.68,-0.92 Z"/></g>
<g><path fill="#2d2626" fill-opacity="0.157" stroke="#2d2626" stroke-width="0.5" stroke-opacity="0.157" d="M 155.12,413.1 c -0.25,0.45 -0.57,0.84 -0.96,1.16 c -0.1,-0.75 0.22,-1.13 0.96,-1.16 Z"/></g>
<g><path fill="#402e2e" fill-opacity="0.11" stroke="#402e2e" stroke-width="0.5" stroke-opacity="0.11" d="M 406.62,160.09 c 0.5,0.03 1,0.07 1.49,0.1 c -0.25,0.4 -0.55,0.76 -0.91,1.07 c -0.19,-0.39 -0.39,-0.78 -0.58,-1.17 Z"/></g>
</svg>
