<svg xmlns="http://www.w3.org/2000/svg" style="shape-rendering:geometricPrecision;text-rendering:geometricPrecision;image-rendering:optimizeQuality;fill-rule:evenodd;clip-rule:evenodd" viewBox="0 0 512 512"><path fill="#b2de64" d="M454 173.9h1.1q0 .6-.3 1c.3 1-1.1 1-1.8 1.2l-1.3.7c-2.1 1.3-4.3 3.5-6.8 4q-.7.5-1.2 1.1c-1.4.5-5.7 4-6.9 3.8l-1 1.2A88 88 0 0 0 424 194l-1.1.8-15 9.1-1.2.8-5 3.1-8 5q-3.3 2.3-6.8 4.2l-1.1.8a70 70 0 0 1-6.9 4.3l-1.1.7-5 3q-.9.8-2 1.3l-1.1 1-3.5 2q-.8.3-1.3.8l-2.1 1.3q-.6.2-.8.7l-.9.3q-.8.2-1 .8l-3.2 2-2.1 1.3-2.9 1.6-1.7 1.3q-.9 0-1.3.8l-.7.2q-.8 0-1.2.8l-.4.2q-.5-1 0-2 2.2-1.5 4.6-2.5c8.2-6.2 18.2-12 27-17 3.7-3.6 8.6-5 12.4-8.5 6.2-2.8 11.2-7.2 17.1-10 1.7-3 6.7-2.7 8.8-6.2 1.8-1 6.7-3.4 7.8-5.2 2.8-.2 2-1 3.8-2.2 4 .7 2.1-3 5.8-3.2 1.6-1.6 1.3-2 4-1.8q2-2.2 4.5-3.7c.5-1.7 2.1-1.3 3.5-1.3 2.1-2.1 4.6-2.3 7-3.8q.9 0 1.2-.9m5 5.1.9-.1c.2 2-8.1 6.4-9.8 7.6q-38.4 22.1-76.6 44.4l-16 8-15.4 8.8c-1.4.5-1.2-.9-1.4-1.8h1.3q1-.1.8-1.1l1-.7q.8 1.7 1.4 0c1.9.3 9.1-4.8 11.2-5.8l.6-.3 1.2-.6q1.8-1.5 3.8-2.4.8-.3 1.3-.9l12-6.8.6-.7q.8.1 1.3-.3a36 36 0 0 1 5.2-3q2.7-1.7 5.6-3.2.9-.3 1.4-1a199 199 0 0 0 12-7 56 56 0 0 0 7-4l7-4 19-11zm-112.4 63.2q-.6.7-1.4 1 .5-1 1.4-1"/><path fill="#b6e067" d="M443 170c-.8 2.6-4.6 4.5-6.7 6l-86 49.6q-4.4 2.5-9 4.1-.9.3-1.2-.5l3.8-2.3q.8 0 1.2-.7l11-6.2q.8-.3 1.2-1a74 74 0 0 0 7-3.8l6.8-3.9 11-6.2q.8-.3 1.2-1a61 61 0 0 0 7-3.8l12-7.2a64 64 0 0 0 7-4l26-15zM245.2 293q1-2 3.3-2c1.5 1.7-1.9 2.8-3.3 2m5.2 15.9.6.6c0 1.7-21.5 16.7-23.8 18q-2.3-1-4.3-2.5 0-.7.4-1.1c7-4.2 20.2-12.1 27.1-15"/><path fill="#88bf43" fill-opacity=".8" d="m461 264.2.2 2q-8.2 5.2-16 10.6-1.4 0-2.4 1-.4 1 .6 1.1c1.3-.2 1-1.2 1.7-2.1q.5.6 1.3.3 1.8-1.4 4-2.4l2-1.9c2.2-.1 3.6-1.6 5.2-2.9a7 7 0 0 0 3.2-1c.3 2.4-1.2 1.7-3 2.6l-13.4 8.2q-1.7 1-3.6 1 1-.6 1.3-1.6c-1-.8-3 .9-3.9 1.5.5 1 1.9.2 2.6 0q0 .7-.4 1-3.7 2.4-7.7 4.3c-8.8 5.5-18.3 10.5-27 16.3a2 2 0 0 1-2.4.1q0-.5.6-.8c19.3-11.9 37.8-25.2 57-37.3M435 283c.7.3 2.5 0 1.7-1.1q-1.2 0-1.7 1.1m-5.1 3.1c.1 0 1.5-.3.7-.8q-.6.2-.7.8m-2 1.8q.6-.1.8-.7-.6 0-.7.7"/><path fill="#88bf43" fill-opacity=".9" d="M322.1 156.8c1.6-.4 2.9 1 1 1.9q-3 1.3-5.8 3.4c-2 .4-1.2-1.2-.4-2q2.2-2.2 5.2-3.3M258.3 369l-2.2-.8q1.2-1.3 3-1.6 13.5-8.1 27-15.8l8-5.3q1.3-.7 2.4-1 2.1-.3.7 1.1a727 727 0 0 0-36.8 23.1q-1 .6-2 .3"/><path fill="#9ccd52" fill-opacity=".9" d="M461.9 302.7q0 1-.5 2-3.2.6-5 3.2c-2.3 1.3-5 2.1-6.5 4.4-4 .8-6.8 3.2-10.5 4.7q-10 6-20 11.7-1 .3-2-.3l7.3-5.3c2.6-.6 1.3-.3 2.9-2.2l4.8-2.9c.2 1.7 2.3 0 3-.2z"/><path fill="#8ac044" fill-opacity=".9" d="M463 282.7v2.2q-2.2.5-4 1.5a23 23 0 0 1-4.6 3.1q-11.8 6.9-23.8 13.4l-8 5.2c-.9.2-3.7 2-4.3 1.2q12-7.8 23.7-15.8 1-.6 2-.6c1.9.5 4.6-1.9 6.1-2.8q.6-.3.7-1 1.2 0 2.2-.6 4.9-3 10-5.8"/><path fill="#aeda61" fill-opacity=".9" d="M459.9 323c.3 2.2-1.3 1.7-2.7 2.6l-1.4 1.7a9 9 0 0 1-3.1 1.5l-5.4 3.9c-3.7 1.6-7.6 2.6-11 5-.9.1-2 .2-1.7-1.1q1.6-1.3 3.6-2c1-1.8 1-1.8 3-2.6q0 1.1 1.2.9z"/><path fill="#9bcd52" d="M225.2 152.2q1.3-1 2.8-1.4 6-3.7 11.9-7.7c.9-.4 1.6-.9 2.1.2q0 .9-.9 1.2-5 3-10.1 5.8c-.8.8-5.5 4.4-5.8 1.9M119.8 225l-.7 1-.8-.2-.5-1q4.8-2.4 9.1-5.6c1.7-1 2.7.5 1.2 1.3-1.9.7-6.7 4.5-8.3 4.5m-36 134.3q0 .5-.7.5z"/><path fill="#7ab436" fill-opacity=".2" stroke="#7ab436" stroke-opacity=".2" stroke-width=".5" d="M413.5 116q1 0 1.5 1l-9.4 5-10.5 6.8q-1.2.3-2.2-.2z"/><path fill="#597834" d="M430 379.4c-1.3.8-4.9.5-6.5.6q-12.2.2-24.4-.3.3-.9 1.4-.7h27q1.3-.1 2.5.4"/><path fill="#71a039" fill-opacity=".7" d="M153.8 412.6q3-.6 6 0v.4a5 5 0 0 1-6-.4m44 0q3.2-.8 6.5 0a5 5 0 0 1-6.6 0m209 .1q3.1-.9 6.5 0a5.4 5.4 0 0 1-6.6 0"/><path fill="#79ab36" fill-opacity=".2" stroke="#79ab36" stroke-opacity=".2" stroke-width=".5" d="M152.8 395q0 .9-.8 1.4-8.1 4.5-15.8 9.7-.2-1.1-1.4-1.3l16.2-9.4q.7-.4 1.8-.4Z"/><path fill="#8ab648" fill-opacity=".2" stroke="#8ab648" stroke-opacity=".2" stroke-width=".5" d="M106.3 341q-8.4 4.6-16.2 10 0-1.3-1.4-1.3l14.9-8.6q1.3-.4 2.7-.1Z"/><path fill="#95c251" fill-opacity=".2" stroke="#95c251" stroke-opacity=".2" stroke-width=".5" d="M187 361.2q-1 1.2-2.3 2l-8 5-2.2.8q-1.1 1.2-2.5 2l-.6.1-1.2-.4q.3-.7.8-1l8.3-4.9c1.7-.5 6.2-4.2 7.7-3.6Z"/><path fill="#77b336" fill-opacity=".2" stroke="#77b336" stroke-opacity=".2" stroke-width=".5" d="m237.8 379.8 1.3-.1.1 1q-7.5 4.4-15 9.2-.2-1-1.3-1.3 7.5-4.2 15-8.8Z"/><path fill="#9ac449" fill-opacity=".2" stroke="#9ac449" stroke-opacity=".2" stroke-width=".5" d="M370.6 190.3q.4.9 1.5 1-7 4.1-14 7.8 0-1.4 1.4-2 5.5-3.6 11.1-6.8Z"/><path fill="#6e9b38" fill-opacity=".7" d="M84.8 412.5q3.6-.5 7.4-.1c-.8 1-3.5 1.3-4.7 1.4q-1.6-.3-2.7-1.3m291 .1c1.7-.8 5.4-.2 7.4-.2a6 6 0 0 1-7.4.2"/><path fill="#6a862e" fill-opacity=".1" stroke="#6a862e" stroke-opacity=".1" stroke-width=".5" d="M88.7 349.7q1.5 0 1.3 1.3-2.5 1.2-4.6 3-1 0-1.5.8l-1.6 1.1a2 2 0 0 0-1.5 1q-.7.1-1.5-.3v-.8q-.1-.4.2-.7z"/><path fill="#5b9b2b" fill-opacity=".2" stroke="#5b9b2b" stroke-opacity=".2" stroke-width=".5" d="M26 339.7v1.3l-9 5.5q-.7.5-1.7.3-.3-.7-.2-1.5 5.3-3 10.8-5.6Z"/><path fill="#afdb62" d="m306.8 201 .2.3q-.3 1.2-1.3 1.8-4.5 2.7-9.2 5.1-.6-1 .4-1.7c2.6-1 7.3-5.6 9.9-5.5"/><path fill="#84ab47" fill-opacity=".1" stroke="#84ab47" stroke-opacity=".1" stroke-width=".5" d="M354.8 237.3q.3 1.2 1.6 1c-2 1-9.3 6-11.2 5.8v-1q.8-.2 1.4-.9l.4-.2 1.2-.8.7-.2 1.3-.8 1.7-1.3q.8 0 1.3-.7zm-11 6.8h1.4q-.7 1.8-1.4 0Z"/><path fill="#bfe76e" d="M445.1 168c2.7 2.4 10.5 4 12.3 5.7l-1 .5-1.3-.2-1-.1q-1 0-1.3 1c-2.3 1.4-4.8 1.6-7 3.7-1.3 0-3-.4-3.4 1.3q-2.6 1.6-4.5 3.7c-2.7-.2-2.4.2-4 1.8-3.6.1-1.8 4-5.8 3.2-1.7 1.3-1 2-3.8 2.2-1 1.8-6 4.2-7.8 5.2-2.1 3.5-7 3.3-8.8 6.2-5.9 2.8-11 7.2-17 10-4 3.5-8.8 4.9-12.5 8.5-8.8 5-18.8 10.8-27 17q-2.4.9-4.5 2.5-.7 1 0 2-1 0-1.5 1v.9h-1.4l-1 .7q-.6.5-.8 1.1h-1.3q-1.2.9-2.5 1.2-1.1-8-2.6-15.8 2.4-.7 4.5-2.1.3.8 1.3.5 4.5-1.5 8.8-4 43-25 86-49.7c2.2-1.5 6-3.5 6.8-6q1.2-1 2.1-2m-21 26-1.2.8zm-21 13-1.3.8zm-32 4.3-1.1.7zm11 8.8-1.3.8q.6-.6 1.3-.8m-29.9 2q-.5.7-1.3.8zm22 3-1.4.8q.6-.6 1.3-.8m-29.1 1q-.4.7-1.2.8zm21 4-1.2.8q.5-.6 1.3-.7m-5 3q-.4.9-1 1 .2-.7 1-1m-2.9 2.1q-.6.6-1.3.8.6-.7 1.3-.8m-5 3q-.6.6-1.3.7.4-.7 1.3-.7m-3 2-1.3.8q.4-.8 1.3-.8m-2 1-1.2.8q.4-.7 1.2-.8"/><path fill="none" stroke="#bfe76e" stroke-width=".5" d="M445.1 168c2.7 2.4 10.5 4 12.3 5.7l-1 .5-1.3-.2-1-.1q-1 0-1.3 1c-2.3 1.4-4.8 1.6-7 3.7-1.3 0-3-.4-3.4 1.3q-2.6 1.6-4.5 3.7c-2.7-.2-2.4.2-4 1.8-3.6.1-1.8 4-5.8 3.2-1.7 1.3-1 2-3.8 2.2-1 1.8-6 4.2-7.8 5.2-2.1 3.5-7 3.3-8.8 6.2-5.9 2.8-11 7.2-17 10-4 3.5-8.8 4.9-12.5 8.5-8.8 5-18.8 10.8-27 17q-2.4.9-4.5 2.5-.7 1 0 2-1 0-1.5 1v.9h-1.4l-1 .7q-.6.5-.8 1.1h-1.3q-1.2.9-2.5 1.2-1.1-8-2.6-15.8 2.4-.7 4.5-2.1.3.8 1.3.5 4.5-1.5 8.8-4 43-25 86-49.7c2.2-1.5 6-3.5 6.8-6q1.2-1 2.1-2Zm-79 62.2-1.2.7q.5-.6 1.3-.7Zm-5 3q-.4.8-1 .9.2-.7 1-1Zm-2.9 2q-.6.6-1.3.8.6-.7 1.3-.8Zm-5 3q-.6.6-1.3.7.4-.7 1.3-.7Zm-3 2-1.3.8q.4-.8 1.3-.8Zm-2 1-1.2.8q.4-.7 1.2-.8Z"/><path fill="#80b93d" fill-opacity=".8" d="M76.3 100q-3 .8-6.3 0l.3-1c1.4-1 5.6-.7 6 1m77.4-1 .3.8q-3 .6-6.4.2 2.7-2.6 6-1"/><path fill="#9bc94d" fill-opacity=".2" stroke="#9bc94d" stroke-opacity=".2" stroke-width=".5" d="M178 316q-.5 1.1-1.6 1.9-4.2 2.6-8.5 4.9 0-.9-1-1.2 4.7-2.3 9-5.2 1-.5 2.2-.5Z"/><path fill="#96c44f" fill-opacity=".2" stroke="#96c44f" stroke-opacity=".2" stroke-width=".5" d="m432.7 221.4 1.3 1q-4.5 2.4-9 5.2a3 3 0 0 1-1.8.4q0-.8.8-1.4 4.2-2.8 8.7-5.2Z"/><path fill="#6f9d39" fill-opacity=".8" d="M135.7 412.7q3.3-1.2 6.5-.1c-2.4 1.1-4.1 1.7-6.5.1m87 0q3.3-1 6.6 0a5.5 5.5 0 0 1-6.6 0"/><path fill="#83b83e" fill-opacity=".3" stroke="#83b83e" stroke-opacity=".3" stroke-width=".5" d="M402.3 193.1q-.5.7-1.3 1 .3-1 1.3-1ZM213.8 382q0 1-.8 1.4l-9 5.4-1-.6q.4-.9 1.3-1.3 4-2 7.7-4.4.8-.5 1.8-.5Z"/><path fill="#81b93d" fill-opacity=".3" d="M435.4 174q-.5.7-1.4 1 .3-1 1.4-1m1.4 11.7q0 1.2-1 1.2zm-27.5 3.5q-.5.6-1.3.8.3-1 1.3-.9m25 3.9q-.4.7-1.3 1 .3-1.2 1.4-1m-51 11q-.4.7-1.3 1 .3-1 1.3-1m25 4a3 3 0 0 1-1.3 1q.3-1 1.3-1m-26 15.1q-.5.6-1.2.8.2-1 1.3-.8m-191 105-1.2.9q0-1 1.2-.8m-56 15q-.6.6-1.3.8.3-1.1 1.3-.7m-21 13q-.6.6-1.2.8 0-1.1 1.2-.7m-21 13q-.6.6-1.2.8 0-1 1.2-.7M101 396a6 6 0 0 1-5.1 3q2-2.4 5-3"/><path fill="#82bb3d" fill-opacity=".3" stroke="#82bb3d" stroke-opacity=".3" stroke-width=".5" d="m122.3 351.3-1.2.8q0-1 1.2-.8Zm-21 13-1.2.8q0-1.2 1.2-.8ZM96 398.9c-.6 1.5-10 7.6-10.7 5.9.7-1 9.2-6.1 10.7-5.9Z"/><path fill="#7dc039" fill-opacity=".2" stroke="#7dc039" stroke-opacity=".2" stroke-width=".5" d="M35.8 333.9v1.1l-9.7 6-.2-1.3 1.7-1.5q4-2.4 8.2-4.3Z"/><path fill="#acd95f" d="m185.9 270.8-.2-1.7c2.6-.5 5.6-3 8-4.3 1.4-.4 1.4 1 .3 1.6l-6 4q-1 .6-2.1.4"/><path fill="#82ac46" fill-opacity=".2" stroke="#82ac46" stroke-opacity=".2" stroke-width=".5" d="M425.4 140.3q.6.3.4 1 0 .3-.3.6-3.4 1.6-6.5 3.7a3 3 0 0 1-1.8.4q.1-.8.7-1.4 3.6-2.4 7.5-4.3Z"/><path fill="#80b93d" fill-opacity=".5" stroke="#80b93d" stroke-opacity=".5" stroke-width=".5" d="M222.3 99h-3.7c.6-1.5 3.1-1.5 3.7 0ZM29.8 133.3q.4-2.2 2.7-2.1c1 1.2-2.1 1.3-2.7 2ZM329.1 154c.2 1.6-2 2.5-3.2 1.6a3 3 0 0 1 3.2-1.6ZM112.9 389a3 3 0 0 1 2.8-2c1.6 1.2-1.9 2.3-2.8 2Z"/><path fill="#81b93d" fill-opacity=".5" stroke="#81b93d" stroke-opacity=".5" stroke-width=".5" d="M199 110q.5-2 2.6-2c1.3 1-1.8 2-2.6 2Zm-31.7 233q-.5.7-1.4.7.5-.7 1.4-.7Zm-54.4 46c-.4 1.3-3.5 2.8-4.9 3q0-1 1-1.4c1.6-.2 2.3-2.1 4-1.6Z"/><path fill="#81b93d" fill-opacity=".4" stroke="#81b93d" stroke-opacity=".4" stroke-width=".5" d="M476 287h.7q0 1-.9 1zm-327.7 48q-.3.6-1 1 0-1 1-1Zm6 16.1-1.4.6q.5-.7 1.5-.6ZM106 393c-.8 1.7-3.1 3.2-5 3q2-2.3 5-3Zm117.3 13-.4 1q-.5 0-1 .3.3-1.2 1.4-1.2Z"/><path fill="#7fb141" d="M132.7 263.2c.5.8 1.5-.1 2.1-.3q.3 1.7-.7 3a4 4 0 0 1-3 2z"/><path fill="#7fb63d" fill-opacity=".7" d="M42.3 100q-3.9 0-7.7-.3c2-1.8 5.9-2.1 7.7.3"/><path fill="#75a73a" fill-opacity=".7" d="M487.8 412.6q3-.4 6.3-.3l-.4.7q-3 1.7-6-.4"/><path fill="#73a43a" fill-opacity=".7" d="m22.2 99.4-6.2.5.4-.9c1.4-1.7 4.3-.6 5.8.4"/><path fill="#84bb3c" fill-opacity=".3" stroke="#84bb3c" stroke-opacity=".3" stroke-width=".5" d="M445.1 276.8c-.7.8-.4 1.9-1.7 2.1q-1-.2-.6-1.2 1-.7 2.3-1Zm-4.3 3.8c-.7.2-2 1-2.6 0 1-.6 3-2.3 4-1.5q-.4 1-1.4 1.5ZM435 283q.5-1 1.7-1.1c.8 1.1-1 1.4-1.7 1.1Z"/><path fill="#b2d767" d="m42.4 171.4-3.2 6.5-.4-1q.2-2 0-4 1 0 1.1-.8a3 3 0 0 1 2.5-.7"/><path fill="#78a93d" d="M463 334c-.2 2.7-3.4 4.7-5.9 5 1-1.8 4.2-3.6 5.8-5"/><path fill="#7baf3c" fill-opacity=".9" d="M82.3 356q-.4 1-1.5 1a2 2 0 0 1 1.5-1m-3 .6q.7.4 1.5.3.9 1.4 1.2 2.9-.5.8-1.2 1.2a8 8 0 0 1-1.5-4.4"/><path fill="#89b142" fill-opacity=".2" stroke="#89b142" stroke-opacity=".2" stroke-width=".5" d="M449 289q0 1 1.1 1c-1.5 1-4.2 3.3-6 2.9.8-1.9 3.4-2.4 4.9-3.9Z"/><path fill="#6b9638" fill-opacity=".7" d="M204.4 99.3c-.8.3-5.4 1-5.2-.3 1.3-.7 4.7-1.8 5.2.3"/><path fill="#72a139" fill-opacity=".8" d="M186 98.9c.4 1.6-5.5.8-6.4.7q3-2 6.4-.7"/><path fill="#80b93d" fill-opacity=".8" d="M136.4 100q-3.4.7-6.8 0 .2-.6.8-.9 3.3-2 6 .9"/><path fill="#709f39" fill-opacity=".8" d="M431.3 99.7c-1.2.1-6 1-6.2-.8 1.5-1 5.1-.6 6.2.8"/><path fill="#93c64d" d="m117.8 224.8.5 1-1.4 2.5-1.8-.6c-.7-1.4 2-2 2.7-2.9m2 .2-.7 1z"/><path fill="#83bb3f" d="m89 143.9-3.7 2.1q-.6 0-.9-.5c.3-1.3 3.8-3.3 4.6-1.6"/><path fill="#8abc48" d="m181.4 294.8 1.1 3-2 1.2q-.7-.8-1.6-1.3a4 4 0 0 0 2.5-2.9m-.9 4.2-1.6 1a2 2 0 0 1 1.6-1"/><path fill="#9fcd56" fill-opacity=".2" stroke="#9fcd56" stroke-opacity=".2" stroke-width=".5" d="M182.8 313.1q-.2.7-.8 1.3a6 6 0 0 1-4 1.5 6 6 0 0 1 4.8-2.8Z"/><path fill="#81b83c" fill-opacity=".4" d="M161.2 327.1q-.6.6-1.3.5.4-.6 1.3-.5m-21 12.9q-.5.6-1.3.7.4-.7 1.3-.7m6.1 16q-.6.5-1.4.7.5-.7 1.4-.7m342.5 16.3q.8-2 2.9-2.2c1.7 1.1-2.1 2.1-2.9 2.2"/><path fill="#9ed054" fill-opacity=".3" stroke="#9ed054" stroke-opacity=".3" stroke-width=".5" d="M411.9 149.3c-1.1 1.3-3.1 3-5 2.6a6 6 0 0 1 5-2.6Z"/><path fill="#80b83e" fill-opacity=".4" stroke="#80b83e" stroke-opacity=".4" stroke-width=".5" d="M453 176.1q-.3.8-1.3.7zm-116 228a3 3 0 0 1-2.4 2c-1.6-1.5 1.3-2.3 2.4-2Z"/><path fill="#bfe66f" fill-opacity=".4" d="M344.7 224q0 1-1 .8zM175.2 335.2q-.5.9-1.5.8.8-.6 1.5-.8m-52 12q-.6.9-1.6.8.7-.6 1.6-.8m26 3q-.7.8-1.6.7zm-19 11.2q-.6.5-1.4.6.6-.6 1.5-.6"/><path fill="#81bb3d" fill-opacity=".3" d="M428.4 178q-.5.7-1.4 1 .4-.9 1.4-1m.5 13q-.2.9-1.2.9.6-.7 1.2-1m-1.6 6.2q-.5.6-1.3.9.3-1 1.3-1m-19.4 6.8q-.2.9-1.2.7zM149.3 354.3l-1.2.8q0-1.2 1.2-.8"/><path fill="#81ba3c" fill-opacity=".3" d="m460.3 178-.4.9-.9.1q.3-1 1.3-1m-70 22.3q-.6.5-1.3.7.3-.9 1.3-.7m-27 33.8q-.5.6-1.3 1 .3-1.1 1.3-1m-201 112-1 1q-.1-1.1 1-1m-56 14.9-1 1q-.1-1 1-1"/><path fill="#a0cf56" fill-opacity=".4" d="M411.7 182q0 1-1 1zM120 332.2a3 3 0 0 1-3 1.9 3 3 0 0 1 3-1.9"/><path fill="#99da5f" fill-opacity=".2" stroke="#99da5f" stroke-opacity=".2" stroke-width=".5" d="M380.9 361.2a4 4 0 0 1-2.9 2l-1.1-.1q1.5-2 4-2Z"/><path fill="#86be42" d="M463 263v2.3l-1.8 1-.2-2q.6-1.3 2-1.3"/><path fill="#a0d055" fill-opacity=".2" stroke="#a0d055" stroke-opacity=".2" stroke-width=".5" d="M355.8 200.2c.3.9-1.1.5-1.6.6q.4-1.1 1.6-.7ZM112.2 336.9q-.3.7-1 1.3l-1-.5c-.1-1 1.5-.8 2-.8Z"/><path fill="#409d1f" fill-opacity=".1" stroke="#409d1f" stroke-opacity=".1" stroke-width=".5" d="M50.8 311.7q1 .3 1.5 1.2a5 5 0 0 1-3 .9v-.4q.5-1 1.5-1.7Z"/><path fill="#81ba3d" fill-opacity=".3" d="M153.7 99q1 0 1.4 1.1-.6 0-1-.3zM416 199q-.2 1-1.4.9zM156.3 330.3q-.6.5-1.3.7.1-1.1 1.3-.7m-15 29-1.3.7q.2-1.1 1.2-.7"/><path fill="#608c2e" fill-opacity=".1" stroke="#608c2e" stroke-opacity=".1" stroke-width=".5" d="M367.6 130.3q.4 1.1 1.5.7-.9 1-2.3 1l-.6-.4a2 2 0 0 1 1.4-1.3Z"/><path fill="#a2d054" fill-opacity=".3" stroke="#a2d054" stroke-opacity=".3" stroke-width=".5" d="M115 335q-.8 1.9-2.8 1.9.7-2 2.8-2Z"/><path fill="#a0d056" fill-opacity=".3" stroke="#a0d056" stroke-opacity=".3" stroke-width=".5" d="M407 152q-.3 1.5-1.7.7.6-1 1.7-.8ZM117 334q-.7 1.2-2 1 .5-1.2 2-1Z"/><path fill="#74a43c" fill-opacity=".5" d="M255.4 98.8q-2.4.3-4.6.1.4-1 1.6-1c.9 0 2.5-.2 3 .9"/><path fill="#5c6a3f" fill-opacity=".6" d="M185.3 131.9q2.2-.3 4 .8-2.2.5-4.5.2z"/><path fill="#9bcb51" fill-opacity=".5" d="M263.1 142.1a6 6 0 0 1-3 2q.6-2.5 3-2"/><path fill="#78a045" fill-opacity=".2" stroke="#78a045" stroke-opacity=".2" stroke-width=".5" d="M212.2 314.3q.3 0 .5.4a2 2 0 0 1-1.6 1.1 1 1 0 0 1-1-.6q1-.7 2-1Z"/><path fill="#95cf4e" fill-opacity=".2" stroke="#95cf4e" stroke-opacity=".2" stroke-width=".5" d="M417.2 146a4 4 0 0 1-3.2 2c0-1.8 1.7-2.1 3.2-2Z"/><path fill="#506b31" fill-opacity=".6" d="m241.1 379.6-1.8 1-.2-1c0-1 1.6-.3 2 0"/><path fill="#648a36" fill-opacity=".6" d="M388.4 98.8q-2 .3-3.7 0 1.8-1.6 3.7 0"/><path fill="#80b93e" fill-opacity=".5" d="M199 110c-.2.8-1.4 1.7-2 .7q.8-1 2-.6m-39.7 238-1.6.7q.7-.6 1.6-.6"/><path fill="#c0e66e" fill-opacity=".2" d="M196 323q-.3 1.1-1.3.7zm-52 12q-.3 1.1-1.3.7zm-19 29q-.2 1.1-1.3.7z"/><path fill="#bee86d" fill-opacity=".4" d="M194 324.2q-.3.9-1.2.8.4-.5 1.2-.8m-7 4.1q-.4.7-1.2.7.4-.6 1.2-.7m-52 11.9q-.3 1-1.3.8.5-.6 1.2-.8"/><path fill="#bfe76e" fill-opacity=".4" d="M161 325.2q-.3 1-1.4.8zm-71 41q-.3.9-1.3.7.6-.5 1.3-.6m26 3q-.3.9-1.2.7.5-.4 1.2-.6"/><path fill="#80b93d" fill-opacity=".5" d="M406.3 99h-3.7q1.9-2 3.7 0"/><path fill="#c0e66f" fill-opacity=".4" d="M161 343.3q-.6.8-1.4.6zm-52 11.9q-.3.8-1.4.7zm25.8 3q-.2.9-1.1.7z"/><path fill="#526e32" fill-opacity=".6" d="M217 379.2a2 2 0 0 1 2 .4c-.6.3-1.5 1.4-2 .5z"/><path fill="#9bce52" fill-opacity=".5" d="M399 157.2a2 2 0 0 1-1.8.8q.3-1.4 1.8-.8"/><path fill="#c0e76c" fill-opacity=".3" d="M163 324q-.1 1-1.3.8zm0 18q-.3 1-1.3.8z"/><path fill="#a0d156" fill-opacity=".4" d="M401.8 155.2c.2.9-1.1.9-1.7.8q.5-1.2 1.7-.8"/><path fill="#547232" fill-opacity=".5" d="m475.7 231.8 1.1.2q-.2.6-.9.9-.6-.5-.2-1.1"/><path fill="#a5d65b" fill-opacity=".3" stroke="#a5d65b" stroke-opacity=".3" stroke-width=".5" d="M304.9 370v1h-1.7q.5-1.1 1.7-1Z"/><path fill="#80b93e" fill-opacity=".3" d="M375.3 227.3q-.6.5-1.2.7.2-.9 1.2-.7m118.8 185 1-.5q-.2 1-1.4 1.2z"/><path fill="#81ba3e" fill-opacity=".4" d="M119.3 353q-.6.6-1.3.8.4-.9 1.3-.7m-21 13q-.6.6-1.4.8.5-.9 1.4-.7"/><path fill="#c0e76f" fill-opacity=".3" d="M342 226q-.2 1.1-1.3.7zM144 353q-.3 1.1-1.3.7.6-.5 1.2-.7"/><path fill="#80b93d" fill-opacity=".6" d="M429.9 286.1q0-.6.7-.8c.8.5-.6.7-.7.8m-2 1.8q.2-.7.8-.7-.2.6-.7.7"/><path fill="#bfe66d" fill-opacity=".4" d="M115.9 351.2q-.3.9-1.2.8.4-.6 1.2-.8m26 3q-.2 1-1.1.8z"/><path fill="#a0cf54" fill-opacity=".5" d="M260 144q-.6 1.2-1.8.8.6-1 1.9-.8"/><path fill="#a0d155" fill-opacity=".3" stroke="#a0d155" stroke-opacity=".3" stroke-width=".5" d="M350.9 203.2q-.4 1-1.5.5c-.3-.8 1-.7 1.5-.5Z"/><path fill="#81b93c" fill-opacity=".3" d="M357.4 219q-.5.7-1.4 1 .3-1 1.4-1M170.3 341.4l-1.2.7q0-1.1 1.2-.7"/><path fill="#547032" fill-opacity=".4" d="M247 131.4v1q-.7.4-.8-.4 0-.6.7-.6"/><path fill="#81b93c" fill-opacity=".4" d="M503.4 101.8q.6.7.7 1.6l-1-.4zM175.3 338q-.7.5-1.5.8.5-.9 1.5-.8"/><path fill="#80b93d" fill-opacity=".6" d="m110.3 337.7 1 .5-1.4.4zm-25 16.4-1.4.7q.4-.9 1.5-.8"/><path fill="#81b83d" fill-opacity=".3" d="M364.3 215.2q-.5.6-1.3.8.3-1 1.3-.8M476 271l1-.1q-.4.8-1.2 1z"/><path fill="#a1d156" fill-opacity=".5" d="M345.9 206c.2 1-1.4.8-1.9 1q.6-1.1 1.9-1"/><path fill="#bfe66d" fill-opacity=".3" d="M182 331q-.3 1-1.3.7zm-52 12q-.3 1.1-1.3.7z"/><path fill="#80b83c" fill-opacity=".3" d="M401.3 212q-.4.7-1.3 1 .3-1 1.3-1m-258 126.3-1.2.8q0-1 1.2-.8"/><path fill="#80b93c" fill-opacity=".4" d="M196.3 325q-.6.6-1.3.6.3-.7 1.3-.6m-71 44q-.6.6-1.4.7.5-.7 1.4-.7"/><path fill="#9ccd54" fill-opacity=".3" stroke="#9ccd54" stroke-opacity=".3" stroke-width=".5" d="M263.1 141a2 2 0 0 1 1.7.2q-.6 1-1.7 1z"/><path fill="#9cce54" fill-opacity=".5" d="m395 159.4-.7.4q0-.5.7-.4"/><path fill="#bfe86d" fill-opacity=".2" d="M350 221q-.1 1.1-1.3.7z"/><path fill="#b8e169" fill-opacity=".4" d="M364.2 212.3q-.5.6-1.5.6.7-.6 1.5-.6"/><path fill="#bde66a" fill-opacity=".3" d="M369 209q-.2 1-1.3.8.6-.6 1.2-.8"/><path fill="#99cb50" fill-opacity=".8" d="M141.8 319.2q0 .4-.5.6-.2-.6.5-.6"/><path fill="#9ed052" fill-opacity=".5" d="M129.9 326.2q-.3.5-.8.5z"/><path fill="#b8e066" fill-opacity=".4" d="M371.7 207q0 1-1 1z"/><path fill="#9ed055" fill-opacity=".9" d="M147 316q-.4.6-1.3.7z"/><path fill="#bee86e" fill-opacity=".3" d="M156 328q-.3 1-1.3.7z"/><path fill="#bce46b" fill-opacity=".3" d="M361 214q-.1 1.1-1.2.7z"/><path fill="#c0e86d" fill-opacity=".3" d="M149.1 332.3q-.5.8-1.4.6z"/><path fill="#72a23d" fill-opacity=".4" d="m287.1 105.2 1.3.1q-.6.8-1.6.7z"/><path fill="#71a23b" fill-opacity=".4" stroke="#71a23b" stroke-opacity=".4" stroke-width=".5" d="m106.1 105.3 1.2-.1q-.6.8-1.6.8z"/><path fill="#9acd52" fill-opacity=".4" d="M344 207q-.2.6-.8 1 0-1 .8-1"/><path fill="#b1dd64" fill-opacity=".9" d="M149.8 314.2q-.1.6-.8.6.3-.4.8-.6"/><path fill="#81b93c" fill-opacity=".5" d="M180.3 335.1q-.7.6-1.5.6.6-.6 1.5-.6"/><path fill="#bfe86e" fill-opacity=".4" d="M142 336.3q-.3.6-1.3.7.6-.6 1.4-.8"/><path fill="#a3d35a" fill-opacity=".9" d="M151.8 313.2q0 .4-.6.7 0-.6.6-.7"/><path fill="#bbe76d" fill-opacity=".5" d="M356.2 217.3q-.6.7-1.5.7.6-.6 1.5-.7"/><path fill="#8dbf46" fill-opacity=".3" d="M433 169q-.3.9-1.3.7.6-.5 1.2-.7"/><path fill="#b9e068" fill-opacity=".3" d="M377 204q-.3 1.1-1.3.7z"/><path fill="#80b93e" fill-opacity=".5" d="m466.3 100-.4.8-1.2.1q.5-1 1.6-1"/><path fill="#8ec147" fill-opacity=".3" d="M386.9 217q-.2 1-1.1.8z"/><path fill="#95c54c" fill-opacity=".3" d="M379 222q-.3 1-1.2.8z"/><path fill="#80b83d" fill-opacity=".2" stroke="#80b83d" stroke-opacity=".2" stroke-width=".5" d="m16.4 99-.4 1-1.1.1q.3-1.1 1.5-1Z"/><path fill="#a0d053" fill-opacity=".3" d="M370.8 227q-.1 1-1.1 1z"/><path fill="#bee76e" fill-opacity=".3" d="M111 354q-.3 1-1.3.7z"/><path fill="#b2dc67" fill-opacity=".4" d="M379.7 202.1q0 1-1 .9z"/><path fill="#bfe86f" fill-opacity=".3" d="M137 357q-.3 1-1.3.8z"/><path fill="#bee56c" fill-opacity=".2" d="M99 361q-.3 1-1.3.7z"/><path fill="#b1de63" fill-opacity=".2" d="M385 199q-.3 1-1.3.7z"/><path fill="#b0db63" fill-opacity=".4" d="M387.7 197q0 1-1 1z"/><path fill="#aed962" fill-opacity=".2" d="M393 194q-.3 1-1.3.7z"/><path fill="#bde86c" fill-opacity=".3" d="M92 365q-.3 1-1.3.7z"/><path fill="#c0e76e" fill-opacity=".4" d="M123 365.3q-.4.8-1.3.7.6-.5 1.3-.7"/><path fill="#bfe96d" fill-opacity=".3" d="M118 368q-.3 1.1-1.3.7.6-.5 1.2-.7"/><path fill="#a7d85d" fill-opacity=".4" d="M395.8 192q0 1-1.1 1z"/><path fill="#a5d55c" fill-opacity=".4" d="M362.8 232.2q0 .8-.8.7.2-.5.8-.7"/><path fill="#a6d55e" fill-opacity=".2" d="M401 189q-.3 1-1.3.7z"/><path fill="#a3d459" fill-opacity=".4" d="M403.9 187q-.2 1-1.2 1z"/><path fill="#9ece55" fill-opacity=".2" d="M409 184q-.3 1-1.3.7z"/><path fill="#80ba3e" fill-opacity=".3" d="M453.4 182.1q-.5.7-1.4 1 .3-1 1.4-1"/><path fill="#99cc52" fill-opacity=".3" d="M417 179q-.3 1-1.3.7z"/><path fill="#9acc52" fill-opacity=".4" d="M419.9 177.1q-.3 1-1.2 1z"/><path fill="#80b93e" fill-opacity=".6" d="m455.1 174 1.3.2q-.7.6-1.5.7z"/><path fill="#6c973a" fill-opacity=".3" stroke="#6c973a" stroke-opacity=".3" stroke-width=".5" d="m14.3 141.1.6-.1q0 .8-.6 1.3z"/><path fill="#80b83d" fill-opacity=".2" stroke="#80b83d" stroke-opacity=".2" stroke-width=".5" d="M133 406v1.2l-1-.5z"/><path fill="#72a23a" fill-opacity=".4" stroke="#72a23a" stroke-opacity=".4" stroke-width=".5" d="m487.7 406 .2.7h-1.1q.3-.5 1-.8Z"/><path fill="#9dcf54" d="M454 173.9q-.2 1-1.2 1 .3-1 1.3-1"/><path fill="#79ad3c" fill-opacity=".7" d="M503.1 407q-.4.9-1.5 1 .7-.9 1.5-1"/><path fill="#6a9937" fill-opacity=".3" stroke="#6a9937" stroke-opacity=".3" stroke-width=".5" d="M501.7 408q0 1-1.1 1z"/><path fill="#98cd51" fill-opacity=".3" stroke="#98cd51" stroke-opacity=".3" stroke-width=".5" d="M400.1 156q-.3.9-1.1 1.2.1-.9 1.1-1.2Z"/><path fill="#bbe66c" fill-opacity=".3" d="M353 219q-.2 1-1.2.7z"/><path fill="#91c64a" fill-opacity=".3" d="M425 174q-.3.9-1.3.7z"/><path fill="#9dcf57" fill-opacity=".4" stroke="#9dcf57" stroke-opacity=".4" stroke-width=".5" d="M40 172.1q-.3.8-1.1.8.4-.6 1-.8Z"/><path fill="none" d="M342.8 244.8q0 1-.8 1.1.2-.6.8-1.1"/><path fill="#85bf40" fill-opacity=".4" d="M394.9 212q-.2 1-1.1.9.4-.5 1-.8"/><path fill="#bee66e" fill-opacity=".3" d="M189 327q-.1 1-1.3.8zm-52 12q-.1 1.1-1.3.7z"/><path fill="#7cb63c" fill-opacity=".2" stroke="#7cb63c" stroke-opacity=".2" stroke-width=".5" d="M68.8 302q0 .8-.8 1.2l-8.4 4.9q-3.6 2.5-7.3 4.8-.5-.9-1.5-1.2l16.1-9.3q.9-.5 1.9-.5Z"/><path fill="#80b93d" stroke="#80b93d" stroke-width=".5" d="M497.1 157q.1 6-.4 12c-2.8 1.7-18.7 11.5-20.6 11-1.3-.4-.4-4.4-1-5.5q-.8-2.2-1-4.7c2.3-.5 19.4-11 23-12.9ZM59.7 202q0-1-1-.7-4.6 3-9.7 5-.2-1.6.2-3.3 17.9-10.2 35.5-21c1.5-.5 1.5 1 .4 1.6q-8 5-15 11-1.6.8-2.8 2l-1.7.8q-3 2.2-5.9 4.6Zm437.1-6q.4 11.4.4 23c-2 0-7 3.7-8.7 4.9l-12.7 7.1q-.4-10.8-.4-21.6.1-.6.6-1.1 10.2-6.6 20.8-12.4ZM97.1 284q3.6.4 7 1.1l-55 35.8q-.5-3.6.2-7.1a5 5 0 0 0 3-.9q3.7-2.3 7.3-4.8l8.4-4.9q.8-.3.8-1.3.7-1 1.8-1.8c7.4-3.7 14.2-9.6 22.3-11.7q1.8-2.6 4.2-4.4Z"/><path fill="#82ba3e" stroke="#82ba3e" stroke-width=".5" d="M236.2 299q6.3 2.3 13 2.3l.4.3a12 12 0 0 0 .8 7.2c-7 3-20 10.9-27 15q-.6.5-.5 1.1-5.2-3-10-6.8 1.8.4 3.1-.7l7-5 1.8-2.1c-.7-1.6-2.2.7-3 1.1l-8 5q-.7.6-.8 1.7a5 5 0 0 1-1.9-2.3 2 2 0 0 0 1.6-1.1q-.2-.4-.5-.4c0-1.4 4.6-2 5.3-3.8q.4.3 1 .3l1.4-1.5q2-1 4.3-1.5a79 79 0 0 1 7.2-4 5 5 0 0 0 1.9-2.2c1-.8 2.7-1 2.9-2.6Z"/><path fill="#b9e369" fill-opacity=".8" d="M236.2 299c-.1 1.7-1.8 1.8-3 2.6a5 5 0 0 1-1.8 2.1 79 79 0 0 0-7.2 4.1q-2.3.5-4.3 1.5l-1.5 1.5-1-.3c-.6 1.9-5.3 2.4-5.2 3.8q-1.2 0-2 1-.8-.3-1.3-.7 0-1.2 1.1-2 6-3.5 12.4-6.6c3-1.5 10.8-7.9 13.8-7"/><path fill="#88bf44" d="m378.5 257 .2 1q-.7.7-1.8 1-.4-.8-1-1.3 1.2-.7 2.6-.6m-1.6 2q-.1.6-.9 1 .3-.6 1-1"/><path fill="#bfe66e" fill-opacity=".4" d="M337 229.4q-.2.7-1.1.3.5-.3 1.2-.3m-169 110q-.5.6-1.4.6.6-.6 1.3-.7m-70.9 23q-.6.6-1.4.5.6-.5 1.4-.5"/><path fill="#80b83d" stroke="#80b83d" stroke-width=".5" d="M434.6 105.3q8.4-.6 16.7 0-.5.8-1.3 1.2L413 129l-2 1.6c-.6.2-2 .4-1.8 1.3q-1.3 0-2 .8H388l-.2-1q2.3-2.1 5-3 1.2.4 2.3.1l10.5-6.8 9.4-5zm-304.5 35h9.8q-3.7 2.3-7.8 4.4c-1.1-1.5-4.5-.1-6.2-1zm66 .3-6 3-4.1-1a7 7 0 0 0 2-1.8c1.4-.8 6.2-.4 8-.2Zm-63.9 103.7q1.5-.3 2.8 0l.9 1.3q-1.7.8-2.5 2.4-.4-2-1.2-3.7Zm365.5 56.5c-.3 7 .4 15.7-.6 22.4-3.2 1.3-10.7 7.2-14.2 9.2q-1.7 1.3.4 1.7c-1.8.6-7.4 5.2-8.9 4.8 2.5-8.2.5-17.6 1.6-26.1 2.5 0 18.3-10.1 21.7-12ZM400 368.2c1.5 2.2 3.2-1.2 4.9 1l-2 2.5h-8.8c0-.8 5-2.9 6-3.4ZM178.2 380c-6.8 5.8-19.4 9-25.4 15q-1 0-1.8.4l-16.2 9.4-1.9 1.1-.9.8-2 .7-15-.1q0-.9.6-1.3l42.5-26.3c3.1-.2 18.4-1.1 20.1.3Zm59.6-.2q-7.3 4.6-14.9 8.8c-3.4 2.1-30.1 17-30.7 18.3q-8.2.6-16.6.2.4-1 1.3-1.7l27-16.7 9.1-5.4q.8-.5.8-1.4.8-2.1 3.2-1.8c.5 1 1.5-.2 2-.5q8.7-.3 17.3-.3.9-.2 1.5.5Zm159.1 0c-2.3 1.3-13.2 6.8-14 8.5a393 393 0 0 0-31.7 18.4q-18.1 0-36.4.4.2-.6.8-1c4-2.8 36.9-24.4 37.1-25.9 9.2-1.6 32-.4 42.6-.8q.9-.1 1.6.4ZM337 404c-1-.2-4 .6-2.4 2q1.8-.2 2.4-2c.5.2 2.6-.4 1.4-1.1q-1 .2-1.4 1.1Z"/><path fill="#80b93d" fill-opacity=".5" stroke="#80b93d" stroke-opacity=".5" stroke-width=".5" d="M337 404q.5-1 1.4-1.1c1.2.7-.9 1.3-1.4 1.1Z"/><path fill="#80b93d" stroke="#80b93d" stroke-width=".5" d="M106.8 100.2q0 .4-.5.4-3.3-.4-6.8 0-.8.2-1.6-.3 2.7-1.3 5.5-1.8 2 .3 3.4 1.7Zm345.4.4q-3.9-.3-7.8-.1v-.3c2.3-2.5 5.7-2.3 7.8.4Zm23 1q-4.8.3-9.3-.8l.4-.8a7 7 0 0 1 5-1.4q2.3.9 3.8 3Zm28.2.2-.3 1.2q-5.3.2-10.4-.3c3.7-1.5 7-5 10.7-.9Zm-461 3.5-13.7 16.6q-.3.6 0 1 14-7.6 28-15.8 1.2-.6 2-1.8a178 178 0 0 1 17.5-.2l-25.9 22.3q.7.6 1.7.2 18-10.8 36-21.1.7-.6.7-1.3 8.7-.3 17.4 0l-.4.8q-16 12.5-32.4 24.6-1.2 1-2 2-1.6.7-3 1.7.7.7 1.7.4l6-4.1 42-24.1q.9-.4.7-1.3 18.3-.3 36.5 0L117 132.4c-16.8 2.6-34.9-7.2-45.7 10.3l-4 6c-.3-1-1.5-.2-2 .2l-18 16.5 1.5 1c-4.1.4-4.3 2-6.4 5a3 3 0 0 0-2.5.7q-.6.2-1 .8-12 6.5-23.8 13.4c-1.4-1.7-1-19.7-.3-22.7a2 2 0 0 0 1.8-.4q12-9.2 24-18 .3-.6.2-1c.7 0 4-1 2.7-2q-2 .2-2.7 2a272 272 0 0 0-26.4 15q-.5-6.7-.2-13.4 1 .3 1.8-.3c4.6-4.2 9.6-7.8 13.8-12.3.6-.8 3.6-1 2.7-2.1q-2.2-.1-2.7 2c-3.3.6-11.3 6.2-14.8 7.8l-.7.2q-.4-8.1-.4-16.2 1 .3 2-.6 1.6-2.5 3.7-4.7-.7-.4-1.6 0l-4.1 2.5-.3-15.7q0-.9 1-1.3zm127.4-.1q27.2-.2 54.4.1l-38.5 25.9q-.4.2-.4.7-1 0-1.4 1l-61-.2q22-12.5 44.1-25.3 1.6-1 2.8-2.2Zm69 .1c4.5-.5 12.6-.4 17.4 0q-19 12.8-38.3 25.2a5 5 0 0 1-2 1.7c-7.2 1-16.5.2-24 .4q21.5-11.9 42.8-24.4 2.3-1 4-2.9Zm30.9 0q8.7-.5 17.4 0l-.3.7-40.6 26c-5.6 1.4-14.6.3-20.7.8q-1.1 0-1.3-.8l2.3-1q21.6-12.3 43-25 .2-.3.2-.7Zm25-.1q8.8-.3 17.5 0L270 132.5l-20.4.2q-1 .1-1.7-.7 1.4 0 2.7-.8l43.7-25.4q.3-.2.4-.6Zm31 0q18-.3 35.7 0c-13.5 9-29.4 17.5-42.3 27.2q-18.3.4-36.6.4-1 .2-1.4-.8l44-25.5q.9-.4.7-1.3Zm46 0q18.3-.3 36.5.1l-40.6 25a2 2 0 0 0-1.4 1.3c-.6.2-2.2.2-2.1 1.1h-35.5q-1 .3-1.5-.7l44-25.5q.9-.4.6-1.3Zm42 0q8.8-.4 17.7.1l-18 10.7-20.5 12.6q-3 1-5 3-1.1.3-2 1l-19 .1v-.7q1.3 0 2.2-1 21-11.5 41.6-23.7 1.7-.9 3-2.2Zm43.1 0q8.8-.3 17.5 0L433 130.8q-.7.5-.6 1.4-11.2.8-22.5.7l.4-.9q.8-.3.7-1.3 1-1 2-1.6c0 1.2 1.4 1 2 .6q21-12 41.8-24.3Zm31 0c4.5-.8 8 1.5 8.9 6a3 3 0 0 0-1.6.5l-48.8 30a8 8 0 0 0-3 2.5 27 27 0 0 0-5.7-9.4l48-27.7q1.4-.6 2.1-1.8Zm-288.8 5q-1.2-.3-2 .6c.6 1 1.8 0 2-.6.8 0 3.9-1 2.6-2.1q-2.1 0-2.6 2Zm298.3 8.8q-.2 5.7-.1 11.2c-2.5-.2-39.5 23.6-44.8 26.8l-1.5 1.4a21 21 0 0 1-5.5-9.4zm-.4 19.8q.3 5.2 0 10.5c-4.8 2.2-21 13-27 16.4q-.6.4-.7 1.2c-2.6-.9-11.5-2.6-12.5-5zm-401.8 1.7L89 144c-.8-1.7-4.3.3-4.6 1.6q.3.5 1 .5l-4.2 2.1q-.1-3 .2-6c.7.8-.1 2.2 1.1 2.6 1-.6 5.4-3.4 2-4l-3.2-.3q6.8-.3 13.8 0Zm62 0 15 .2a2327 2327 0 0 0-56.4 32.5c-.9.3-2 1.6-2.7.5q0-.8.8-1.3 21.9-15.6 43.2-31.9Zm56 0 14 .1-77 45q-1 .8-2.1 0 0-.8.8-1.2 32.5-21.3 64.3-44Zm114.8.6q-.5.8-1.2 1.2l-46.4 26.6q-.9.3-1.3 1c-1.5.2-6.4-.7-7.4-1.5 10.6-8.4 29-18.4 40.5-27.3 1.3-.9 14.3-.6 15.8 0Zm60 0a4608 4608 0 0 1-78 45q-.8 0-1.2-.8l2.3-1.9 62-38.8q2.7-1.5 5-3.6c2.4-.8 7.4-.4 9.9 0Zm-123.1.2c3-1 7.9-.7 11.1-.4q-.4.9-1.3 1.3c-29.4 17.3-59.4 33.8-88.5 51.6q-1.2.8-2-.1.6-1.4 2-2 32.4-20.5 64.1-41.8c2.6-1.8 6.2-2.4 8-5q1.3.3 1.9-.8a6 6 0 0 0 3-1.9q1.1 0 1.7-1Zm161 0q2.6 0 3.2 2.5l-2 .8c-33 19.4-67.5 38.4-100 58.2q-1 .7-1.8-.2.6-1.3 2-2c21.2-12.3 42.8-25.5 62.9-38.8q2-1.2 4.2-1.9.4 0 .7-.4 1.3-.5 2.2-1.4a2 2 0 0 0 1.8-.8q.8-.3 1.1-1.2c.6 0 2 0 1.7-.8a4 4 0 0 0 3.5-2.5q1.4.7 1.7-.8c1.8.4 3.8-1.3 4.9-2.6q1.2-.3 2-1.3a4 4 0 0 0 3.3-2 3 3 0 0 0 1.8-.4q3-2.1 6.5-3.7.3-.3.3-.7ZM186 142.6l4 1q-.7.8-1.5 1.3c-11.3 6.6-22.6 12.7-33.4 19.9-1 .2-2 1.4-3 .7q0-.8.7-1.2 16.8-10.3 33.2-21.7Zm-60.1 1c1.7 1 5.1-.4 6.2 1-8.9 6-18.7 10.5-27.4 16.7q-1.2.9-2.4 0zm307.8 12q.8 1 1.2 2-1.2.2-2.3.6-49.6 28.8-99.3 57.4-2 .9-1.6 3c-.4.7-1-3.1-1.4-3.4l9.3-5.9 3.6-1.4q.6-.3.8-.9c.5-.2 2.1 0 1.9-1q2.4-.1 3.5-2.3 1 .6 1.5-.5 2.3-.4 3.3-2.4c.5 0 1.9.2 1.6-.7q1.3-.2 2.2-1 7.2-3.7 14-7.7zm63 13.4c.7 2.8.3 7.3.2 10.3-1.8-.1-18 10.8-21 12.5q-.5 0-.5-.5c.4-3-.6-8.7.7-11.2 1.9.4 17.8-9.4 20.6-11Zm-228.8 8.6c-6.9 2-24.8 19-32 23.8-.5.6-1.3 1-.4 1.7q19.2-10.6 38.4-21.7 1-.4 1-1.3c3.4.3 8.1 3 11 4.7-5.5 3.9-20.3 13.9-24.2 18-4.3-3.4-8.7-3.1-11.5 1.9q-.9 3.3-1.2 6.7c-13 2.2-27.8 7.1-31.7 21.3-2 12 6 18.4 15.7 23-8 2.4-33.7 19-43 23.8q-1.3.8-1.4 2.3a61 61 0 0 1-2.7-11q1 .2 2.1-.4l6-4c1.1-.5 1-2-.3-1.6-2.4 1.2-5.4 3.8-8 4.3-.5-3.1-1.5-22.4 0-24q.3 1.2 1.3.7c7.7-5.5 15.1-11.4 23.2-16.3 1.4-.9-.1-2.1-1.3-1.3-6.5 5-15.5 9.2-22.7 13.6.9-5 1.7-10.2 3.8-14.7l20-15.7c.5-.7 2.3-1.6 1.5-2.5q-8.3 4.5-16.6 9.4-1 .5-2 .6c6.9-19 25.3-39.1 46-42a157 157 0 0 1-14 12.5q-1.5 1.3.4 1.5l25.7-15.4a74 74 0 0 1 17 2.1ZM39 177q0 .6.3 1a165 165 0 0 0-5 38c-3.3.4-15.2 8.6-19.2 10.4-.7-10.6-.9-22.1 0-32.6A320 320 0 0 0 38.7 177Zm10 14q-.3-1.9 0-3.8l12.4-7 2.4-2c1.6-1 2.6.5 1.2 1.4zm447.9-5q.1 5-.2 10c-7 4-14 8-20.8 12.4-1.1-2-.3-8.7-.3-11.2q1.5.5 2.6-.4zm-206.7 1.4c3 1.8 6.2 4 8.6 6.5-1.3-1-6.5 3-6.9 3.9.7 1.2 7.4-2.8 7-3.9q4 3.3 7.8 7.2c-2.6 0-7.3 4.4-9.9 5.5q-1 .7-.4 1.7l9.2-5q1-.7 1.3-2c1.3 2 5.9 6.6 6.1 8.7-7 4.1-13.7 9.2-20.2 14-9-6.5-18.5-13.4-30.2-13.2l-.4-.3q.6-3.2-.1-6.4 14-8.2 28-16.7Zm172.5.9q.4 1.8.2 3.6-1 0-2 .6l-34.4 19.8L414 220c-1.4 1-3-.4-1.3-1.4l9.7-5.5 38.6-24.2zM49 241.9q-.2-3.4 0-6.9c18.4-10 37.1-20.5 55-31.8 1.6-1 2.8.3 1.2 1.4a2710 2710 0 0 0-52 35q-1.9 1.5-4.2 2.3Zm414-36.2a18 18 0 0 1-.1 4.2c-12.2 7.3-27.5 15.2-39 23q-1.7-1.2-3.1-2.8.1-2.2 2.4-2.1a3 3 0 0 0 1.8-.4q4.5-2.8 9-5.3 14.4-8.4 29-16.6ZM49 224v-3a142 142 0 0 0 22-12.8c1.5-1 2.6.5 1.1 1.3q-10.8 6.4-21.1 13.8-1 .6-2 .7Zm180 9c.5-10.4 8.2-15.2 17.7-16.7 1.2-.2 3.3-.7 3.1 1.3v32.9q0 2-2.2 1.4c-9.6-1.9-18.3-8.4-18.7-18.9Zm88-17q2.7 3.7 4 8-10 6.8-20.2 13.3c-.6.5-1.4 1.1-.4 1.7q3-.8 5.2-3 7.4-4 14.7-8.4.8-.5 1.8-.5a68 68 0 0 1 4.4 19.8 367 367 0 0 0-31.9 23.8q-1.5-3.2-3.7-6.2c-7.1-8.3-17.7-10-28-11.1q-.6-.3-.6-1-.2-17 0-33.9-.2-.7.3-1a32 32 0 0 1 20.3 14.4c-2.7.3-16 10.9-19.4 13.1q-1.3 2.5 1.2 1.2 9.7-5.8 19.6-11.4.3-.7-.2-1.5h5.4c4.1-.4 6-.8 6-5Q306.1 222 317 216Zm146 4.1v4.7c-5.8 2.2-25.2 14.3-32.2 18a2 2 0 0 1-.7-1.8q16.5-10.3 33-20.9Zm34 .5a64 64 0 0 1 0 10.8q-.9 0-1.6.5L478 242.6q-.8 1.4-2.3 1.3-.3-5.5.2-11 .7-.3 1-1 10-5.4 20.1-11.3Zm-463 1v12.6q-9.8 5.2-19.3 10.9c0-3.4-.5-8.1.4-11.4 2-.2 16-10.3 19-12Zm101.9 24-1-1.3c1.3-2 20-12 23.3-14.7 1.1-.3 4.7-2.7 5.4-2l-5.6 4.1q-11.3 6.6-22.1 13.9Zm-28-10.7a66 66 0 0 1-4.3 6q-.3 1.8 1.4.9c1-1.2 7-3.5 7.2-4.7 3.8.3 9.6 13 9.2 17 2.2 12-8.2 32.6-21.4 20q3-4.1 6.5-8 .3-.6-.2-1a99 99 0 0 0-9.4 5.8c-7.8-10.6-7.2-29.4 5.1-36.4 1.2-.5 5.3-.8 6 .4Zm389-1.2q.7 5.2 0 10.6c-2.2.3-17.8 11-21.2 12.8V245a4 4 0 0 0 2.3-.5 592 592 0 0 1 19-10.7Zm-93 43q1.4-1.3 2.4-2.7 1.7-2.8-1.3-1.5-2.4 1.2-4.3 3.1c-13.5-8.7-14.3-33.6 1-40.4 22.7-3.6 25.3 44.2 2.3 41.5Zm59-41.6q.3 2 0 3.9l-30 16.8.2-1.7q14.7-9.9 29.8-19ZM34.3 240q0 6.1.5 12.4c-2.2-.2-16.8 9.4-20 10.8 0-3.4-.6-8.1.3-11.4 2.1.3 16.3-10.3 19.2-11.8Zm99.8 26q1-1.3.7-3l26.3-15.1c3-2.5 6.5-4.2 9.9-6.2q1-.4 2 0-.1.7-.7 1-5.5 3.6-11.4 6.6-12.3 8.2-25 16zM82 246l-1.6 7q-1-1.2-2.3-.3c-8 5-21.3 14.7-29 18.4q-.4-3 0-6zm415.2 1.8q.4 5.6 0 11.3c-2.9 0-16.6 10.2-20.2 12h-1a48 48 0 0 1-.1-12c2.3.6 18.1-9.5 21.2-11.3Zm-34.3 1.4a8 8 0 0 1 0 3.7l-2 .5q-5.1 3-10.4 5.7l-9.4 6c-1.7 1-2.7-.8-1.2-1.4q11.7-6.9 23-14.5Zm-428.2 4.6q.4 6.3.3 12.6c-2.2-.5-16.9 9.6-20.3 10.7l-.1-10c4.6-3.4 16.6-9.6 20.1-13.3Zm292 1.3q-.5 5.7-.8 11.5 0 .8-.6 1.3-.9-.7-1.9 0c-8.2 5.8-16.1 12.3-24.6 17.6-1.4 1-.3 2.4 1.3 1.4 7.7-5.3 16.5-10 24.6-14.6a61 61 0 0 1-3.6 14.9l-25.8 20.2c1.7 1.6 3.8-1.4 5.3-2.2q8.6-5 17.4-9.8a58 58 0 0 1-7.4 14.7 57 57 0 0 1-37.5 25l8.9-8.5c-.6-1-1.3 0-2 .1q-7.7 4.5-15 9.3a36 36 0 0 1-16-1.1c1-2 18.9-15.9 22-18.2 1.6-1.1.5-2.5-1-1.2l-25 16.2q-1.4.9-2.3 2.1a135 135 0 0 1-15.5-6.3c2.3-1.2 23.8-16.2 23.8-17.9 6.3 5.3 12.6-1 11.4-8.1q0-.6.5-.8c15.7-2.1 33.1-10 32.2-28.4 9.7-4.2 23.1-13.7 31.6-17.2Zm-92.7 1.2q7 1.5 14.3 2.3 1.1 0 1.4 1.1.2 16.9 0 33.8c-.2 1.8-4.3.5-4.5-.4 1.4.8 4.8-.3 3.3-2q-2.3 0-3.3 2-11-3.7-17-13.7c-3-.8-13-1.5-11.5 4.6q-1 0-1.7.4-10 6-20 11.7a75 75 0 0 1-4.7-8.7c8.4-4 34.3-24.3 43.7-31Zm142 1.5 1 1.2q-.7.5-1 1.1a521 521 0 0 0-23 13.8 26 26 0 0 1-5.6 2.8q-.3-.8.3-1.4 14.3-8.5 28.3-17.5ZM262 283v-21.4c-.2-2.7 3.4-1.3 4.7-.9 22.6 5.7 21.3 33.7-3.3 35.2q-.8 0-1.2-.6zm235.2-20q.3 5.5.4 11.1c-3 0-17 11.2-21 13h-.7c-.7-3-.6-9.2 0-12.4 1.8.1 18.4-10 21.3-11.8ZM35 272.2q.8.4.7 1.4l.8 19.6q-11 5.9-21.7 12.2-.3-10.8-.2-21.4a3 3 0 0 0 2.4-.2zm48.2 1 3.6 4.7c-11.5 6.2-26.4 16.8-37.9 24q-.1-4.3 0-8.7 17.4-9.8 34.3-20ZM51 335.8c-2.3-.6-2.2-2.8-2.1-4.7q40.4-22.9 80.4-46.1l7.5-4.8c1.8-1.2 3 .4 1.3 1.4a119 119 0 0 0-9.6 5.5Q89.7 311.3 51 335.8Zm446.5-54v11.4c-3.1 1-17.6 11.8-21.6 14.1-.7-3.8-.6-9.7 0-13.6 2.4 0 18.3-10 21.6-12ZM217.1 285c5.5 6.3 11.8 10 19 14-3-1-10.7 5.4-13.7 6.9q-6.3 3-12.4 6.6-1 .8-1 2-7.4-7.5-13-16.4c4.6-1.3 17.3-11.9 21-13.1ZM73.7 349.6c-1 0-3.4-2.7-4-3.6q.5-.8 1.4-1.3c30.5-17.8 61.9-35.2 91.8-53.5 1.7-1 3 .5 1.3 1.4-30 17.7-60 37-89.9 55.3q-.9.6-.6 1.7Zm-37-51.8.3 22.4q-1.5.4-3 1.3l-19 10.9q-.4-10.7-.3-21.5c2.8.3 18.7-10.9 22-13Zm142.2-.1 1.6 1.3-97.4 60.8h-1q-.4-1.5-1.3-2.9 1.1 0 1.5-1l1.6-1 1.5-.8q2.2-2 4.6-3 8-5.5 16.2-10.1l3.7-2.4q.8 0 1.4-.4.6-.6.9-1.3 2 0 2.8-2 1.3.3 2-.9a3 3 0 0 0 3-1.9c3.4-1 6.2-3.6 9-5.4q.6 0 .9-.5c2.7-.8 8.3-5.2 11.4-6.4q.4-.2.5-.6 2.1-1 3.9-2.5.9 0 1.2-.8l3-1.7 1.3-.3q.4-.3.6-.7a928 928 0 0 0 27.1-15.5Zm9.4 11.4 1.6 2.8q-2.3.9-4.3 2.3l-89.3 56.4 1.6 1q-4.5.7-9.1.2L92 370q.8-.2 1.3-.7l3.6-2.5 1.4-.7 1.8-1 1.2-.8a26 26 0 0 1 4-2.4l1-1a128 128 0 0 0 13-7.8l3-1.8 4-2.4 1-.8 8-4.8q2-1.1 3.6-2.6.8-.1 1.3-.7l3.1-1.7q1.8-1.5 4-2.2l1-1a106 106 0 0 1 8-4.8q1.8-1.2 3.5-2.7.8 0 1.4-.5 3.4-2 6.7-4.3 4.3-2.3 8.5-5 1-.6 1.7-1.9 2.3 0 3.9-1.5.6-.6.8-1.3c2.4-.6 4.7-1.5 5.5-4ZM37.2 322c-.5 3.1.2 9.4-1.4 12a81 81 0 0 0-8.2 4.3l-1.7 1.5q-5.5 2.7-10.8 5.6-.6-5.2-.2-10.6c2.5.3 18.8-11.1 22.3-12.8Zm161.8 1a5 5 0 0 0 2 2 3865 3865 0 0 0-74 46.8q-3 0-6-.4 1.6-.4 2.9-1.6.8 0 1.4-.7l6.9-4 1-1a8 8 0 0 0 3.5-2.4q.9 0 1.6-.5l1.7-1.1 1.2-.7q2-1.2 3.7-2.6.8-.2 1.4-.7l3-1.7q2-1.1 3.6-2.6.8 0 1.4-.6a14 14 0 0 0 3.4-2.4l1.6-.6q1-.7 2-1l1-1q2-.9 3.6-2.4.9 0 1.4-.7l3-1.7q1.9-1.1 3.5-2.5.7-.2 1.5-.8 2-.8 3.5-2.3.7 0 1.5-.6t2-1.1q.6-.3 1-1 2-.8 3.6-2.3.9 0 1.3-.7l1.9-1 1.2-.7 3.7-2.7q.8 0 1.3-.5 1.4-1 2.7-2.3Zm298.7 2.9q0 11.3-.8 22.4c-3 2.2-26.5 19.4-26.7 20.5q-2 .5-3 2c.9 1.4 2.7-1.2 3-2h1.9q12.5-7.5 25.1-14.8-.3 26-1 51.7 0 .9-.8 1.3-3.8 0-7.5-.2l-.2-.8 5-9.4q-.4-.5-1-.2l-14.4 8.4q-1.6.5-2.1 2-9.3.5-18.5 0c4.4-3 8.4-7.5 12.3-11.2q1.3-1.1-.3-1.3-10.5 5.7-20.8 12c-5 1-12.8.3-18 .5q8.1-6 15.8-12.5 1.5-.6 2.8-1.7c-.5-.5-2.7 1.2-3.5 1.2-4.8 3.7-15.5 8.5-21.1 12.7q-9 .5-18.2.4 18.4-13.5 36-27.7 2.2-1.1 4-2.5-.7-.6-1.8-.3-3 2.7-6.5 4.5-21 11.8-42 24-1.4.6-2.1 1.8a895 895 0 0 1-35.6.1l24.2-16.4q1.1-.6 1.8-1.6a1 1 0 0 0-.8-.4c.8-1.7 11.6-7.2 14-8.5h2.2q12.2.3 24.4.2c1.6-.1 5.1.2 6.5-.6 8.7-1.8 9.9-7.8 13.7-14.3 4-1.6 17.7-15.1 22.2-18.6q1-.7.4-1.8c2.5-2 6-3.1 8.1-5.8 1.4.5 7-4.2 9-4.8q7-4.3 14.3-8.3Zm-287.4 6.5q1 .3 1.7 1.4a3953 3953 0 0 0-61.1 38q-3.4-.3-6.8 0c-.2-1 2-.8 2.5-1.4l56.4-32.7c1.1-1.5 7.2-3.6 7.3-5.3ZM35.8 335c1.1 3.3 1.4 6.2 4.6 8.1-7.9 4.3-17.4 10.6-25.4 14.2-.3-3.2-.7-7.5.3-10.5q1 .2 1.7-.3l9-5.5zm187.3 4q4.4 1.6 8.7 2.8c-4.9 0-42.4 25-47.9 29.6-.9.6-8.6-.1-10.3.2q-1 0-1.6-.6 1.5-.8 2.5-2l2.2-.8 8-5q1.2-.8 2.3-2c11.9-6.3 22.8-15.2 35-20.8q1-.4 1.1-1.4Zm90.7 32.2c-1.1.9-7.3 0-8.9-.2v-1q2-1.1 3.6-2.7 2.5-1.3 5.4-1.9a6 6 0 0 1 3.4-2.7l1.4-1.5c11.1-5.6 21.8-12.2 32.7-18.2q2.7-2 5.5-3.7c1.7-1.1 2.9.3 1.3 1.3-14.7 9-29 19.2-43.3 29q-1 .5-1.1 1.6ZM279.9 341q-.3.8-1 1.2c-8.4 5.4-36.6 26-44.2 27.2q-.6.6-.7 1.6c-2.3 1-4.6.4-7 0 1.6-2.7 40.5-23.9 46.4-27.3q.8-.6-.1-1c0-.6 5.7-1.9 6.7-1.7Zm97 30.7-10.8-.3 2-1q5.1-3.3 9.9-7.1 2-.4 2.9-2.1l4.5-2.4c3.3-5.3 20.4-11.8 26.5-16.7.9-.7 2.4-.3 1.7 1a1736 1736 0 0 0-34.6 26.6zM40.8 343.9l12.3 4.9q-19 10.6-38 21.6c-.3-2.8-.5-8 .1-10.6q.9 0 1.6-.5l23.2-14q.8-.5.8-1.4Zm205.5.3a16 16 0 0 1 4.7.1l-38.6 24.4q-1.8 1.1-3.2 2.5c-1 1-7.4 0-9 .5q0-.5.4-.7 21.8-12 43.2-24.6 1.5-.8 2.5-2.3Zm-188.2 7c3 .6 7 6.7 7.7 9.6q-1.5-.6-3 .3l-48.3 28 .5-11.3q1 .1 1.8-.4l40.4-25q.7-.3 1-1.2Zm346.9 18c-1.7-2.2-3.4 1.2-4.9-1q11-6.3 21.5-13c.6.6-.1 1.6-.6 2-4.4 2.8-12.1 10-16 12ZM67.3 365q1.8 5.4 4.7 10-1 0-2 .6l-48.7 28.1q-1.3.7-2.3 1.7c-3.2-.9-4.5-5.6-4-8.6q2.1-.6 4-2zm363.6.2q0 2-.7 3.7-.2-1-.8-1.6l-3.2 3.3c.5 1.4 2.4.7 3.5.7l.1.4a57 57 0 0 1-9.8 0q5.5-3.1 11-6.5Zm58 7.2c.7-.1 4.5-1 2.8-2.2q-2.1.1-2.9 2.2Zm-412 6.3q10.5 1 21.2 1l-2.5.7-43.8 25.1q-1 .6-.8 1.7H33q0-.6.5-1l42.2-26q1-.5 1.1-1.5Zm72.1.9c-15.6 8.2-30.6 17.5-46 26.2q-.6.4-.7 1.1-18.7 0-37.6.3.2-.6.7-1 20.3-12.3 40.3-25 .3-.5.2-1.2c13.8-.9 29.1-.4 43.1-.4Zm68-.3v1q-2.3-.4-3.2 1.7-1 0-1.8.5-3.7 2.4-7.7 4.4a3 3 0 0 0-1.3 1.3q-1 0-1.7.5-15.7 9-31 18.3-17.7.4-35.4.5.3-1 1.2-1.3 7.8-5.3 16-9.7.7-.5.7-1.4c6-6 18.6-9.2 25.4-15 11-1.2 27.2-.2 38.8-.8Zm43 1-44 25.3q-.9.6-.7 1.5-8.8.3-17.6 0a4 4 0 0 1 1.3-1.5 2289 2289 0 0 1 42.1-25.9l18.2-.2q.6.2.7.8Zm28.3-.4a15 15 0 0 0-4.8 1.1L241 405.5q-.7.6-.7 1.5-8.6.4-17.3-.2l.4-.8 38.8-24.5q.8-.6.6-1.5c5.6-.7 20.8-1 25.6-.2Zm27.8-.2c-3 .5-4.5.2-7.1 1.9l-42.4 24.6q-.5.3-.2.9h-17.7q1-1.3 2.7-2.2l36.6-23.4q.7-.5.7-1.2c8.1-1.2 19-.8 27.4-.6Zm28.7.4-44 25.4q-1 .6-.8 1.7h-18.3q.2-.7.8-1l37.4-24.8q.6-.5.8-1.2c7-1.2 16.4-.5 23.7-.7q.4.1.4.6Zm-231.9 9c-1.6-.5-2.3 1.4-4 1.6q-.7.5-.9 1.4-1.4-.2-2 1-3 .6-5 3a8 8 0 0 0-5 3c-1.5-.3-10 4.8-10.7 5.8.7 1.7 10.1-4.4 10.7-5.9a6 6 0 0 0 5-3c1.9.2 4.2-1.3 5-3q1.4.4 2-.9c1.4-.2 4.5-1.7 5-3 .8.3 4.3-.8 2.7-2a3 3 0 0 0-2.8 2ZM507 400q1.5 5.4-3.8 7 0-.8.2-1.4a19 19 0 0 0 2.8-5q.3-.6.8-.6Zm-353.7 6c1 1.2 4.4-1 3.3-2q-2 .5-3.3 2Z"/><path fill="#80b93d" fill-opacity=".5" d="M153.3 405.9q1.4-1.5 3.3-2c1 1-2.3 3.2-3.3 2"/><path fill="#b1dd63" d="M299 193.8c.4 1.1-6.3 5.1-7 3.9.4-.9 5.6-4.9 7-3.9"/><path fill="#262726" stroke="#262726" stroke-width=".5" d="M384.7 98.8q1.8.3 3.7 0a250 250 0 0 0 18 .2c4.2-.2 15.1 1.5 18.7-.1.1 1.7 5 1 6.2.8q6.5.5 13 .5v.3q4-.2 8 .1 6.1.6 12.4.3h1.2q4.5 1 9.2.7a858 858 0 0 0 28 1.4l1 .4c1 .4 3.1 0 3.7 1.3 2 20 2.5 39.7 2.4 59.8.3 32.5-2 65.7-.5 98-4 25.6 1.4 54.2 1.6 80q0 1 .7 1.5v5q-1.2.1-1.1 1.4.5 9.2 0 18.2c.2.6 0 1.8 1.1 1.4v4l-.6.6c-.1 9-2.1 17-4.5 25.5q-.6 0-.8.5a19 19 0 0 1-2.8 5q-.3.8-.2 1.5-.9 0-1.4.8l-1.1 1.1a25 25 0 0 1-5.4 2.8l-1.1.5q-3.1-.2-6.3.3c-2.8-.4-22.3-1.1-24.9.5.5-1.7-4.4-.8-5.2-.4a72 72 0 0 0-21.8.4c.4-1.8-5.2-.7-6.2-.8-3.8 0-13.3-.6-16.4.3q-3.3-.8-6.6.1c-3.3-1-19-.5-23.5-.3-2 0-5.6-.6-7.4.2-2.4-.6-9.6-1-11.8.5.4-1.7-5.4-.7-6.3-.7q-8.2-.3-16.4-.2h-4.9q-1.2-.2-1.4 1a23 23 0 0 0-14-.1c.5-1.8-5.3-.5-6.2-.8-5.4-.1-23-1.2-26.8.8.4-1.6-5.3-.9-6.2-.8a752 752 0 0 0-30.4-.2q-1.2-.2-1.3 1a72 72 0 0 0-20.9-.5q-3.2-.9-6.5 0a71 71 0 0 0-18.4 0q-3.3-.7-6.6 0c-2.3-.6-14.4-1-16.7.5.3-1.4-4.2-1-4.9-.5v.4a35 35 0 0 0-16.3 0v-.5q-3-.4-6 0a41 41 0 0 0-11.6 0 10 10 0 0 0-6.5.2c-2.5-.8-12-1-14.7.4.4-1.7-5.4-.8-6.3-.8q-11.2-.3-22.5 0-3.8-.3-7.4.2c-3.9-.3-10.4-1.2-13.9.6.5-1.9-5.3-.5-6.2-.9-6.7.4-20-1-25.7.8.3-1.6-3.6-.5-4.4-.8q-.6.2-.4.7c-8.1-3.7-30 6.3-31.8-12.4-2.1-90.4.7-180.6-.1-271q-1.1-7.9.1-15.8l2.7-7.2q0-.5.7-.7 1 0 1-1 3.4-3.2 8.1-4.7l1-.2q3.3-.1 6.3-.5c2.7.8 9.3.6 12.4.3q3.8.3 7.7.3 13.2.4 26.3 0H70q3.1.8 6.3 0 10.8.7 21.6.3.7.5 1.6.4 3.4-.6 6.8-.1.5 0 .5-.4 11.4.3 22.8-.2 3.4.7 6.8 0 5.6.5 11.2 0 3.3.4 6.4-.2l1 .3q12.5 0 24.6-.5c.9.1 6.8 1 6.4-.7 2.1 1.5 10.8 1.1 13.2 0-.2 1.4 4.4.7 5.2.4q7.2.5 14.2-.3h3.7a1080 1080 0 0 0 33-.2q13.3.1 26.5-.2 2.3.7 4.5-.2 1 .3 2.2.3c32-.7 64-.4 96.2.1ZM13.9 122.1v2.8q0 8.1.4 16.2v1.3a8 8 0 0 0 0 3.4q-.4 6.8 0 13.4c0 .7-.7 4.7.5 4.4-.6 3-1.1 21 .3 22.7a4 4 0 0 0-.7 2.2q-.1 2.7.2 5.2h.3c-.7 10.5-.6 22 0 32.6-.4 2-.8 5.7.2 7.4-1 3.3-.4 8-.4 11.4 0 1.9-.5 5 .4 6.6-.9 3.3-.4 8-.4 11.4l-.1 4 .1 9.9a372 372 0 0 0 .2 28.4q-.5 2.7-.2 5.5 0 10.8.3 21.5-.5 1.1-.1 2.3a55 55 0 0 0 .4 12.1c-1 3-.6 7.4-.3 10.5a4 4 0 0 0 .1 2.5c-.6 2.5-.4 7.8 0 10.6q-.6 3.6-.2 7.4-.1 5.6-.5 11.3c0 2-.7 6.1.6 7.6-.5 3 .8 7.7 4 8.6 1.8 3 10.8 1 14 1.9q9-.3 18-.1h13.7q18.7-.3 37.6-.3c2.1 1 9.8.2 12.6.5h15q2.6 1.5 5 .1 17.7 0 35.3-.5 2.7.7 5.4.2 8.2.4 16.6-.2 2.8.4 5.5.1 8.9.4 17.6 0 3.3.3 6.6.2l1-.4q8.7.5 17.4.2 4.2.3 8.4 0h33l33.1.1a1834 1834 0 0 1 43-.4q17.7.3 35.5-.1 6.2.5 12.4.2 9 .1 18.2-.4 3 .8 6 .3c5.2-.2 13 .5 18-.5 1.6 1.2 6.7.6 8.8.5q9.2.5 18.5 0 5.7.4 11.6 0h1.1l7.5.2q.8-.4.8-1.3.7-25.8 1-51.7.3-2.8-.3-5.7 1-11.3.8-22.4c-.2-.6.4-2.7-.6-2.6 1-6.7.3-15.4.6-22.4v-7.6l-.1-11.4.1-7.7q0-5.6-.4-11.2.3-2 0-4 .3-5.6-.1-11.2.3-1.8-.3-3.4.8-5.2 0-10.6.4-1.2 0-2.4a64 64 0 0 0 .1-10.7l.2-1.6q0-11.6-.4-23 .4-5.1.2-10.2a50 50 0 0 0-.1-6.5c0-3 .5-7.5-.2-10.3q.6-6 .4-12l-.1-7.8v-10.5l.2-8.6V119q.3-3.8-.5-7.7c-.9-4.5-4.4-6.8-9-6q-6.6-.3-13.4 0-8.7-.4-17.5 0a17 17 0 0 0-5.5 0 141 141 0 0 0-20 .1 205 205 0 0 0-23 0q-18.3-.4-36.6 0-5-.4-10.3-.1-17.8-.3-35.6 0-6.7-.3-13.6 0-8.7-.3-17.5 0-3.2-.4-6.3.1H287q-8.7-.5-17.4 0-6.7-.5-13.5 0c-4.8-.4-12.9-.5-17.4 0q-7.3-.7-14.6 0a2247 2247 0 0 0-69 0q-18.2-.4-36.5 0-5.7-.4-11.4-.1H106q-8.7-.3-17.4 0-6.2-.3-12.5 0a178 178 0 0 0-17.4.1q-8.3-.5-16.5 0l-27.7-.2q-1 .3-1 1.3zm103 10.3q3 .4 6 .3l61 .1h1q2.2.4 4.4 0l2.6-.2c7.5-.1 16.8.5 24-.4.3 1 7 .5 8.3-.2q.3 1 1.3.8c6-.5 15.1.6 20.7-.9q0 1 .8.5l.9-.4q.6.9 1.7.7 10.2 0 20.4-.3c3.7.3 7.5.7 11.1-.4q.3 1 1.4.8 18.3 0 36.6-.4c.1.7 6.8.3 8-.4q.4.9 1.5.7h78.5q1.5.5 2.8 0 11.3.2 22.5-.6 2.7 1 5.2 2.7 3.8 4.1 5.6 9.4.8 2.5 2.2 4.7 1.5 5.4 5.5 9.4c1.1 1.5 3.9 3.8 5.8 3.5 1 2.4 10 4.1 12.5 5 1 .9 3.5 3.3 5 3q0 2.4 1 4.7c.5 1.1-.4 5.1.9 5.6-1.3 2.5-.3 8.2-.7 11.2q0 .5.5.5a10 10 0 0 0-.2 5.3c0 2.5-.8 9.2.3 11.2l-.6 1.1q-.1 10.8.4 21.6l-.1.8q-.4.7.2 1-.6 5.5-.2 11.1v1a185 185 0 0 0 .2 14.1c-.3 3.3-.6 9 0 12l-.1 1q-.3 1.4.2 2.7c-.6 3.2-.7 9.4 0 12.4l-.2 1q-.5 2.8.2 5.6c-.5 4-.7 9.8 0 13.6a10 10 0 0 0 0 5.4c-1 8.6.9 18-1.6 26.2-2 2.6-5.6 3.9-8.1 5.8-11.4 4.4-19 7.6-22.6 20.4-3.8 6.5-5 12.5-13.7 14.3q-1.2-.5-2.5-.5l-27 .1q-1-.2-1.4.7l-2.2.1q-.6-.5-1.6-.4c-10.6.4-33.4-.8-42.6.8-1.3-1.6-6-.3-8-.2q.2-.5-.3-.6c-7.3.2-16.6-.5-23.7.7a7 7 0 0 0-4.6-.5c-8.4-.2-19.3-.6-27.4.5l-.4-.3c-4.8-.8-20-.5-25.6.2q-1.4-.5-2.7.1 0-.5-.7-.7l-18.2.2c-.4-.3-2-1-2 0l-1.3.2q-.6-.6-1.5-.5-8.7 0-17.3.3a2 2 0 0 0-2-.4c-11.6.6-27.7-.4-38.8.8-1.7-1.4-17-.5-20.2-.3l-9-.2c-14 0-29.3-.5-43.1.4-2-.9-5.6-.4-7.8-.2q-10.6-.3-21.3-1-2.8-1.4-4.8-3.8-3-4.7-4.7-10-.6-2.1-1.6-4.1c-.8-2.9-4.7-9-7.7-9.6a14 14 0 0 0-5-2.4l-12.3-4.9q0-.5-.3-.8c-3.2-1.9-3.5-4.8-4.6-8v-1.2c1.6-2.6.9-8.9 1.4-12l-.2-1.7a672 672 0 0 0-1.2-46.6q0-1-.7-1.4.7-3 0-6a126 126 0 0 0-.3-14 318 318 0 0 1-.8-18v-12.5l.2-5.7q.3-19.4 5-38l3.2-6.6c2-3 2.3-4.6 6.4-5a37 37 0 0 0 18.5-17.7l4-6c10.8-17.5 29-7.7 45.6-10.3Zm-35.6 8.3.1 1.4q-.4 3-.2 6c-6 16.2-20.2 18.8-31.6 29-1 1.5-.3 7.9-.6 10q-.1 2 .1 3.7-.4 6.1 0 12.2a8 8 0 0 0 0 3.3q0 1.4-.3 2.6a1218 1218 0 0 1 .2 33q-.1 11.7.1 23.2-.5 3 0 5.9a607 607 0 0 0-.1 31c0 3.3-.5 8.1.3 11.4v.4q-.8 3.5-.2 7.1-.3 5.1-.1 10.2c-.2 1.9-.2 4.1 2 4.7 1.1 1.2 16 8.4 18.7 10.2.5.9 3 3.7 4 3.7q2.3 2.8 4.4 5.9.5.5 1.1.2v.8q.2 2.5 1.6 4.4c0 3 .8 8 4 9.3q2 1.2 4 1.5 4.5.5 9-.1c5.5-.4 11 .3 16.3-.7q3.4 1 7 .3 3 .4 6 .4l1-.5c1 .9 13.6 0 16 .5q3.4-.3 6.8 0c4.7-.5 12.8.4 17-.5q1.8 1.5 3.5 0l.6-.2q.7.7 1.6.6c1.7-.3 9.4.4 10.4-.2l16 .3c1.7-.5 8.2.5 9-.5q4.2.4 8.3.3 4.8 0 9.7-.5c2.4.4 4.7 1 7 0 5.2.7 12.8.6 18 0q2 .5 4 0c5.9 0 15.5 1 20.8-.9.2 1.3 2.2 1.1 3.1 1 1.3 0 5 1.2 6 0 5 .5 12.5.7 17.3-.2h1.7c1.6.3 7.8 1.2 8.9.3q9.1.5 18.2 0h3.6c1.6 0 9.4.9 10.4 0 5.8.3 12.6.6 18.3-.3q.7.6 1.8.5a357 357 0 0 0 28 .3h8.8q8.6.3 17 0 1.8.3 3.6.2 3.1 0 6.3-.3v-.4l.4-2.4q.8-1.7.7-3.7c5-13.4 14-19.7 26.2-26 2.5-.4 5.7-2.4 5.8-5.2a694 694 0 0 0 .2-36.9l-.1-14.3V263a91 91 0 0 0-.2-10.2 8 8 0 0 0 .1-3.7 77 77 0 0 0 0-10.1q.3-2 0-3.9.3-5.1 0-10.3.3-2.3.1-4.7.1-5.1-.1-10.2a18 18 0 0 0 0-4.2q.2-1.7 0-3.4a118 118 0 0 0 0-14.1q.3-5 .1-9.7.1-1.2-.9-1.6-1.5-2.9-4.7-3.2c-1.7-1.7-9.6-3.3-12.3-5.7q-2-1.5-4-3.3a37 37 0 0 1-9.2-12.4q-.5-4.7-2.9-8.6-.6-2.5-3.2-2.5.2-.6-.4-.9l-37.5.7c-2.5-.5-7.5-.9-10-.1q-8.4-.6-17 0c-2.4-.5-14.3-.3-15.8-.1a99 99 0 0 0-17.2.2c-1.5-.6-14.5-.9-15.8 0q-18-.7-36.2-.2c-3.2-.3-8-.6-11.1.4a5414 5414 0 0 0-68.7-.6c-1.9-.2-6.6-.6-8.2.2-1.3-.9-13.4-.3-15.8-.2l-15-.2H81.2zm190.3 27.6c1 .8 5.9 1.7 7.4 1.6l14.2 5.2c.5 1 3.7 2.3 4.8 2.7l12 8.3c8.5 9.1 15 17.7 20.3 29.1.5.3 1 4.1 1.4 3.5q2.2 5.6 3.5 11.6l.4 1q1.4 7.8 2.6 15.8c.1 43-16.5 77.9-58.2 93.9-1-.2-6.8 1-6.7 1.7q-11.3 1.3-22.4 1.6a16 16 0 0 0-4.7-.2q-7.3-.9-14.4-2.4-4.4-1.1-8.7-2.7-5.7-2.5-11.1-5.3-.6-1-1.7-1.4A67 67 0 0 1 198 322a91 91 0 0 1-9.7-12.9 83 83 0 0 1-6.9-14.3c-11.3-31.7-7.3-68 12-95.8 20.9-27.5 44.7-34.2 78.2-30.7ZM239 177c-20.8 2.8-39.2 22.9-46 42a31 31 0 0 0-3 8.2 55 55 0 0 0-3.8 14.6l-.5 3.3c-1.4 1.6-.5 20.9 0 24l.2 1.7q.8 5.7 2.7 11l1.7 5.5q2.1 4.5 4.7 8.7.3 1.2 1 2.2 5.6 9 13 16.4.5.4 1.1.6.3.6 1 .6.6 1.4 1.9 2.3a73 73 0 0 0 14.2 9.3q2.8 1.8 6 2.9 4.5 1.8 9.5 3.4 3 1 6.3 1c4.3 2 11.4 1.7 16 1.2q4 .5 8-1a57 57 0 0 0 37.5-24.9 58 58 0 0 0 7.5-14.6c1.6-2 2.7-5.8 3.1-8.3a61 61 0 0 0 3.6-14.9q.6-2.2.6-4.4.6-.6.6-1.3.2-5.8.8-11.5.3-4.2-.2-8.2a68 68 0 0 0-4.4-19.7q0-1.8-1.1-3-1.3-4.5-4-8.1c-.6-2-2.1-4.9-3.9-6-.2-2.2-4.8-6.8-6.1-8.7l-.3-.3q-3.6-3.9-7.8-7.2a39 39 0 0 0-8.6-6.5q-2-1.5-4.3-2.5c-3-1.7-7.7-4.4-11-4.8-1.4-1.2-5.2-2-7-2.4a74 74 0 0 0-17-2c-3.4-.1-9 0-12 1.4Zm22.7 25.8.5 1.2q.6 3.2.2 6.4l.3.3c11.7-.2 21.3 6.7 30.2 13.3q1 2.3 2.5 4.2c.1 4.3-1.8 4.7-5.9 5.1h-5.3l-1.3-1.4a32 32 0 0 0-20.3-14.5q-.4.5-.4 1.1l.1 33.9q0 .7.7 1c10.3 1.1 20.8 2.8 27.9 11.1q2.3 3 3.7 6.2l.5 1.5c1 18.5-16.5 26.3-32.1 28.4q-.6.2-.6.8c1.2 7-5.1 13.4-11.4 8.1l-.6-.7a12 12 0 0 1-.8-7.2l-.3-.3q-6.8 0-13.1-2.3a61 61 0 0 1-19.1-14l-.4-1.1c-1.5-6.1 8.4-5.4 11.5-4.6q6 10 17 13.7c.2 1 4.3 2.2 4.6.4l-.1-33.8q-.2-1-1.4-1.2a112 112 0 0 1-15.3-2.6c-9.7-4.7-17.8-11-15.7-23.1 3.9-14.2 18.7-19.1 31.7-21.3q.4-3.4 1.2-6.7c2.8-5 7.2-5.3 11.5-2ZM229 233c.4 10.5 9.1 17 18.7 19q2 .5 2.2-1.5v-33c.2-2-2-1.4-3.1-1.2-9.5 1.5-17.2 6.3-17.8 16.7Zm191.9-2.9q1.4 1.5 3.1 2.8a47 47 0 0 1 6.2 8q0 1.2.7 1.9 1.4 5.6 2.3 11.3-.3.9-.2 1.7c-4.2 39.3-53.8 39.8-54.2 2.2l-.2-1c1.9-23.4 19.2-38.4 42.3-26.9ZM115 227.7l1.8.6q11.4 4.5 15.3 16 .8 1.8 1.2 3.7a33 33 0 0 1-2.4 19.9c-6 11.7-14.1 15.9-26.9 17.2q-3.4-.7-7-1.1a25 25 0 0 1-10.2-6l-3.6-4.8a39 39 0 0 1-2.9-20.4L82 246c6.7-14.8 16.4-21.4 33-18.3ZM96.9 271a6 6 0 0 0 3.1 3.2c13.2 12.6 23.6-8 21.4-20 .4-4-5.4-16.7-9.2-17a5 5 0 0 0-4.3-2.2c-.6-1.2-4.7-1-5.9-.4-12.3 7-13 25.9-5.1 36.4Zm303.8 4.7q1.5 1 3.3 1.1c23 2.7 20.4-45.1-2.4-41.5-15.2 6.8-14.4 31.7-1 40.4ZM262 283l.2 12.3q.4.6 1.2.6c24.6-1.5 26-29.5 3.3-35.2-1.3-.4-5-1.8-4.6.8z"/><path fill="#6e9c39" fill-opacity=".8" d="M357.7 412.4c.9 0 6.7-1 6.3.7q-3.4 1.5-6.3-.7"/><path fill="#6d9b38" fill-opacity=".8" d="M64.7 412.2c1 .4 6.7-1 6.2 1q-3.4 1.4-6.2-1m50 .1c1 0 6.7-1 6.3.8q-3.3 1.5-6.3-.8m141.5 0c-1.6 1.3-4.2 2-6.1.7q0-1 1.3-.9zm25.6 0c1 0 6.6-.8 6.2.8-2 1-4.7.8-6.2-.8m33 0c1 .3 6.7-1 6.2.7q-3.3 1.7-6.2-.7m26.5 0c-1 1.3-4.8 1.9-6.3.8q.2-1 1.4-1zm88.4 0c1 .1 6.6-1 6.2.8q-3.3 1.5-6.2-.8"/><path fill="#71a039" fill-opacity=".8" d="M39 413q-2.5 1.4-4.8 0-.2-.6.4-.8c.8.3 4.7-.8 4.4.8m142 0q-2.5 1.5-4.9 0v-.4c.8-.4 5.2-1 4.9.5m276.7-.3c.8-.4 5.7-1.3 5.2.4q-2.7 1.2-5.2-.4"/><path fill="#81ba3e" stroke="#81ba3e" stroke-width=".5" d="M346 371.2c-1 .9-8.8 0-10.4 0q.2-.7.7-1l12.3-8.1q.5-1-.7-1.3c4.5-2 11-7.6 15.6-8.2 1.8-1.6 3.7-1.9 5.1-4.3q12.6-6.2 24.3-13.8c.8-.4 1.5-1 2.1 0q-.1.8-.8 1.2c-16 10.5-31.5 22.7-47.2 34q-.7.6-1 1.5Zm-.9-230.4c1.4-.2 13.4-.4 15.9.1q-.4.9-1.3 1.2c-7.2 4.1-60.1 33-61.7 35.7-1.1-.4-4.3-1.6-4.7-2.7q11.4-8 23.6-15c-.8.8-1.6 2.4.4 2a24 24 0 0 1 5.9-3.4c1.8-1 .5-2.3-1.1-2a37 37 0 0 1 6-4.1 4 4 0 0 1 2-.6l-1 2q-2 0-3.2 1.6c1.2 1 3.4 0 3.2-1.6 1.5 0 6.3-2.3 7-4 1.7.1 3.9-1.4 4.9-2.7-.7-1.1-4.7 1.6-5 2.6q-2.9 1.2-5.9 2.1 0-.6.3-1l13.6-8.6q.8-.7 1.1-1.6ZM286 371c-1 1.1-4.7 0-6 0l1.2-1.5a84 84 0 0 0 7.7-5.3c-.4-.9-1-.2-1.7-.1 0-2.5 4.6-2.1 6.2-3.6 17-11.7 36.4-21 53.6-32.4 1.4-1 2.9.3 1.2 1.3-20.6 12.7-41.1 27.3-61.5 40.6q-.6.3-.6 1Z"/><path fill="#bfe76e" d="M95 140.4h35l-4.1 3.3-23.6 17.7q1.2.7 2.4 0c8.7-6.3 18.5-10.8 27.4-16.7q4-2.1 7.8-4.4 8.6.2 17.1.1a2322 2322 0 0 1-43.2 32q-.7.3-.9 1.2c.8 1 2-.2 2.8-.5a2327 2327 0 0 1 56.3-32.5c2.5 0 14.6-.7 16 .1a7 7 0 0 1-2 1.9q-16.4 11.3-33.2 21.7-.7.4-.7 1.2c1 .7 2-.5 3-.7 10.8-7.2 22.1-13.3 33.4-20l1.5-1.2q3-1.3 6-3l17.1-.2a2208 2208 0 0 1-64.3 44q-.7.3-.8 1.1 1 .8 2.1 0l77-45 36 .5v1.1q-2.4-.5-3 2-1.3-.4-1.9.7c-1.8 2.6-5.4 3.2-8 5a2968 2968 0 0 1-64 41.8q-1.5.6-2.1 2 .8.9 2 .1c29-17.8 59-34.3 88.5-51.6q.9-.4 1.3-1.3 18.1-.5 36.2.1c-11.6 9-30 19-40.5 27.4-33.5-3.5-57.3 3.2-78.2 30.6a107 107 0 0 0-12 96 4 4 0 0 1-2.5 2.8 928 928 0 0 1-27 15.5q-.7 0-.7.7l-1.4.3q-.5 0-.8.6l-3.3 2q-1.8 1.3-3.9 2.4-.6 0-.5.6c-3.1 1.2-8.7 5.6-11.4 6.4l-.8.5c-3 1.8-5.7 4.4-9.1 5.4a3 3 0 0 0-3 1.9q-1.5-.2-2 1-2.2 0-2.8 1.9c-.5 0-2.1-.1-2 .8l-.3 1-3.6 2.3q-1.4-.3-2.7 0l-24 14q-.4.4-.4.8-.6.1-1.1-.2l-4.4-6q-.3-1 .6-1.7c29.9-18.3 59.9-37.6 89.9-55.3 1.6-1 .4-2.5-1.3-1.4-30 18.3-61.3 35.7-91.8 53.5q-.8.5-1.4 1.3c-2.7-1.8-17.6-9-18.6-10.2q38.7-24.5 77.5-48.7 4.6-3 9.6-5.5c1.6-1 .5-2.6-1.3-1.4l-7.5 4.8q-40 23.2-80.4 46-.1-5 .1-10l55-35.9c12.8-1.3 20.9-5.5 27-17.2q2-.2 3-2l1.8-.7q12.7-7.9 25-16 5.8-3 11.4-6.6.6-.3.6-1-.8-.5-2 0c-3.3 2-6.7 3.7-9.8 6.2l-26.3 15.1c-.6.2-1.6 1-2 .3q2-7.5.6-15.2.9-1.6 2.5-2.4 10.8-7.4 22.1-13.9 2.7-2.3 5.6-4.1c-.7-.7-4.3 1.7-5.4 2-3.2 2.6-22 12.7-23.2 14.6h-2.8q-3.9-11.5-15.3-16l1.4-2.4q.4 0 .8.3.6-.5.7-1.1c1.6 0 6.4-3.8 8.3-4.5 1.6-.8.5-2.3-1.2-1.3q-4.4 3.2-9 5.6c-.7 1-3.5 1.5-2.8 3-16.7-3.2-26.4 3.4-33.1 18.2l-33 19q-.3-11.5-.1-23 2.4-.9 4.3-2.3 25.7-18 51.9-35.1c1.6-1 .4-2.5-1.3-1.4A964 964 0 0 1 49 235l.1-11q1 0 2-.7c7-4.7 13.9-9.6 21.1-13.8 1.5-.8.4-2.3-1.2-1.3A249 249 0 0 1 49 221v-12q1.1.2 2.2-.5l8.6-6.5 6-4.6 1.6-.7q1.2-1.4 2.8-2 7-6.2 15-11c1.1-.7 1-2.2-.4-1.7Q67 192.8 49.2 203q-.5-6 0-12.2l16-11.3c1.3-.9.3-2.4-1.3-1.3l-2.4 1.9-12.5 7c.3-2.1-.4-8.5.6-10 11.4-10.2 25.6-12.8 31.6-29l4.1-2 3.7-2.2zm330.4 0q-3.9 1.7-7.4 4.2-.7.6-.8 1.4c-1.5-.1-3.3.2-3.2 2q-.9 1-2.1 1.3-3.1.1-5 2.6-1.1 0-1.6.8a4 4 0 0 1-3.5 2.5q-1.2-.4-1.7.8-1 .3-1.1 1.2-1.5-.7-1.8.8-1 .8-2.2 1.4-.6 0-.7.4-2.2.7-4.2 1.9a1329 1329 0 0 1-62.9 38.8q-1.4.7-2 2 .8 1 1.9.2c32.4-19.8 66.8-38.8 99.9-58.2l2-.8q2.4 4 2.9 8.6-30.9 18.6-61.3 38l-11 6.7q-1.5.8-1.6 2.1-1 .8-2.2 1-1.2-.3-1.6.7-1 1.9-3.3 2.4c-.4-.2-1.8-.3-1.5.5a4 4 0 0 1-3.5 2.4q-1.3-.2-1.9 1-.8 0-.8.8l-3.6 1.4-9.2 6c-5.4-11.5-12-20-20.5-29.2q39.3-22.2 78-45.1zm-344.1.3h3.3c3.3.6-1 3.4-2 4-1.3-.4-.5-1.8-1.2-2.6zm246.6.3a99 99 0 0 1 17.2-.2q-.4.9-1.1 1.5l-13.6 8.7q-.3.4-.3 1a4 4 0 0 0-2 .6 37 37 0 0 0-6 4.2q-3 1-5.2 3.3-12.2 7-23.7 15L279 170q.4-.8 1.3-1.1l46.4-26.6q.8-.4 1.2-1.2m33 0q8.6-.8 17-.2a28 28 0 0 1-4.9 3.7l-62 38.8q-1.3.9-2.3 1.9l-10.7-7.4c1.5-2.7 54.5-31.6 61.7-35.7q.9-.3 1.3-1.2m-135.7 11.2c.3 2.5 5-1.1 5.7-1.9q5.3-2.8 10.2-5.8.7-.3 1-1.2c-.6-1-1.3-.6-2.2-.2l-11.9 7.7q-1.6.4-2.8 1.3m58.2-5.2c1 1.8 7.5-2.8 7.7-3.6-.9-1.5-6.4 3.1-7.7 3.6m-216.1 1.7c-4.3 8-10 14.3-18.5 17.8l-1.4-1 18-16.6c.4-.3 1.6-1.2 1.9-.2m367.6 9q2.7 3.9 6.3 7c-3.2.4-5.5 3-8.3 4.3q-.6.2-1.2.7A206 206 0 0 1 420 177l-1.2 1-3 1.6q-2 1.4-4 2.4l-1 1-3 1.6q-1.8 1.3-3.8 2.3l-1.2 1-3 1.7q-1.8 1.4-4 2.3l-1 1-3 1.7q-1.8 1.4-4 2.3l-1 1-3 1.7q-2 1.4-4 2.4l-1 .9-1.8 1q-.6.2-1.2.7a27 27 0 0 1-4 2.4q-.6.3-1 .9l-1.8 1-1.2.7q-1.8 1.2-3.5 2.6-.8 0-1.5.6l-1.7 1-1.3.8q-1.8 1.2-3.5 2.6-.9 0-1.6.7l-1.6 1-3 2q-.8.2-1.3.7-1.8 1.5-4 2.3l-1 .8q-.7.8-1.8 1.2l-1.2.7-3.7 2.7q-.5 0-1.1.3l-.8.6q-1.2-6-3.4-11.6-.4-2.3 1.6-3l99.3-57.5q1-.5 2.3-.5m-184 17.8L225.4 191q-1.8-.2-.4-1.5 2.6-1.8 5-4 4.8-4 9-8.4c3.1-1.3 8.7-1.5 12-1.5m211.2 1.4q1 .4 1 1.6 0 4.8-.3 9.7l-1.7.6-38.8 24.1-9.5 5.5c-1.9 1-.2 2.5 1.2 1.4l12.5-7.7 34.3-19.8 2-.6q.3 5.3 0 10.5-.8 0-1.6.4l-28.6 18.7q-4.5 2.4-8.7 5.2-.9.5-.8 1.4-2.2-.1-2.4 2.1c-23-11.5-40.5 3.5-42.3 27q-1.5-.2-2.5.6-14 9-28.3 17.5-.6.6-.3 1.4a26 26 0 0 0 5.7-2.8 521 521 0 0 1 23-13.8q.6-.4.8-1 1-.3 1.7-1c.5 37.6 50.1 37 54.3-2.2l30-16.8a77 77 0 0 1 0 10.1q-11.3 7.5-23 14.5c-1.5.6-.5 2.4 1.2 1.3q4.9-2.8 9.4-6 5.4-2.6 10.4-5.6l2-.5q.4 5.1.1 10.2-1.4 0-2 1.2c-19.3 12-37.8 25.4-57.1 37.3q-.6.3-.6.8a2 2 0 0 0 2.4 0c8.7-5.9 18.2-10.9 27-16.4q4-1.8 7.7-4.2.4-.4.4-1 2 0 3.6-1l13.5-8.2c1.7-1 3.2-.2 2.9-2.7q1-.8 2.3-1V280q-6 3.5-11.3 7.2-1.1.6-1 1.8l-1.8-.1c-1.5 1.5-4 2-5 3.9q-1 0-2 .6l-23.7 15.8c.6.8 3.4-1 4.3-1.2l8-5.2q12-6.5 23.8-13.4 2.4-1.3 4.5-3 2-1.1 4-1.6.2 6 .2 12.1c-3.8.3-26.2 17.6-30.7 21q-2.6 1.3-4.8 3c-1.6 1.8-.3 1.5-3 2.1l-7.2 5.3q1 .7 2 .3l20-11.7c3.7-1.5 6.5-3.8 10.4-4.7 1.6-2.3 4.3-3 6.6-4.4q1.8-2.7 5-3.2.6-1 .5-2 .5-.7 1.2-.8v15a137 137 0 0 0-22 15.1c-2 .8-1.9.8-2.9 2.6q-2 .7-3.7 2c-.2 1.3 1 1.2 1.9 1.2 3.3-2.5 7.1-3.5 10.9-5.1l5.4-3.9a9 9 0 0 0 3.1-1.5q.8-.7 1.3-1.7c1.5-.9 3-.4 2.8-2.7q1.5-1 3.3-1.9l-.3 13c-1.6 1.4-4.8 3.2-5.8 5-12.2 6.4-21.1 12.7-26.2 26.1q-5.3 3.3-11 6.5-8.4.4-17 .1l2-2.5c3.9-2 11.6-9.2 16-12 .5-.4 1.2-1.4.6-2q-10.5 6.7-21.5 13c-.8.6-6 2.7-6 3.5h-17l2-2q17-13.6 34.6-26.6c.7-1.2-.8-1.6-1.7-1-6.1 5-23.2 11.5-26.5 16.8l-4.5 2.4q-2.5 0-4 1.9-6 3-12 6.5-.6.4-.6 1.3c-5.7 1-12.5.6-18.3.3q.3-.9 1-1.6c15.7-11.2 31.2-23.4 47.2-34q.6-.3.8-1.1c-.6-1-1.3-.4-2 0q-11.8 7.6-24.4 13.8c-1.4 2.4-3.4 2.7-5.1 4.3-4.6.6-11.1 6.2-15.6 8.2l-15 8.6q-1 .6-.9 1.8-9 .4-18.2 0 .3-1 1.1-1.7c14.3-9.7 28.6-20 43.3-29 1.6-.9.4-2.3-1.3-1.2q-2.8 1.6-5.5 3.7c-10.9 6-21.6 12.6-32.7 18.2l-1.4 1.5a6 6 0 0 0-3.4 2.7q-2.8.5-5.4 2-1.7 1.5-3.6 2.7-1.2-.3-1.7.8c-4.9.9-12.3.7-17.3.2q.1-.6.7-1c20.3-13.3 41-28 61.5-40.6 1.7-1 .2-2.3-1.2-1.3-17.2 11.4-36.6 20.8-53.6 32.4-1.6 1.5-6.2 1-6.2 3.6l-10.3 6c-5.3 1.9-15 .9-20.7.8l2.2-2q1 .3 2-.3a727 727 0 0 1 36.9-23q1.4-1.5-.7-1.3l-2.3 1.1-8.1 5.3q-13.5 7.7-27 15.8-1.8.3-3 1.6c-1.2 1.3-3.4 1.1-4 2.9-5.4.5-13 .6-18 0q0-1 .6-1.7c7.6-1.3 35.7-21.8 44.2-27.2q.7-.5 1-1.2c41.8-16 58.4-50.8 58.2-94q1.4-.2 2.6-1.1c.2.9 0 2.3 1.4 1.9l15.3-8.9 16.1-8 76.6-44.4c1.6-1.1 10-5.6 9.8-7.6l.4-1q.8-.7 1.8-1m-194.2.7c1.9.5 5.7 1.2 7 2.5q0 .9-1 1.3l-38.4 21.8c-1-.7-.1-1.2.4-1.8 7.2-4.9 25.1-21.8 32-23.8m18 7.2q2.4 1.1 4.4 2.5L262.2 204l-.5-1.2c3.9-4.1 18.8-14.1 24.3-18m-95.8 42.3q.8-4.2 2.8-8.2 1 0 2-.6 8.2-4.8 16.6-9.3c.8.8-1 1.8-1.5 2.4zM313 210a13 13 0 0 1 4 6l-21.7 12.3q-1.6-2-2.5-4.2c6.5-5 13.2-10 20.2-14m149.8 0q.3 5.1.1 10.2l-33 20.9a47 47 0 0 0-6-8c11.4-8 26.7-15.8 38.9-23.1m-66.7 5.3q-.6.6-1.3.8zm-75.2 8.9q1 1.3 1 3-1 0-1.7.6l-14.7 8.4a11 11 0 0 1-5.2 2.9c-1-.6-.1-1.2.4-1.7zm142 .7v10q-15.2 9.1-30 19-.8-5.7-2.2-11.3c7-3.6 26.4-15.8 32.2-18m-85.8 1.5q-.5.4-1.3.3.6-.3 1.3-.3M185.7 245q0-1.6.5-3.3c7.2-4.4 16.2-8.6 22.7-13.6 1.2-.8 2.8.4 1.3 1.3-8.1 5-15.5 10.8-23.1 16.3q-1.1.5-1.4-.7M370 230.3q-.5.5-1.2.6zm-87.2 1.6 1.3 1.4q.4.8 0 1.5l-19.5 11.4q-2.5 1.3-1.2-1.2c3.3-2.2 16.7-12.8 19.4-13.1m-175 3q2.8 0 4.3 2.2c-.1 1.3-6.2 3.5-7.2 4.7q-1.7 1-1.4-1 2.3-2.7 4.4-6m250.3 2.5-1.2.6q.4-.7 1.2-.6M50.6 253a19 19 0 0 0 9.3-5.8c-.9-.3-9.3 4.3-9.3 5.8m276-6.2q.4 4 .1 8c-8.5 3.6-22 13-31.6 17.3l-.5-1.5c8.5-7.6 22.2-17 32-23.9m-246.2 6q-1.3 10.5 3 20.3-17 10.2-34.4 20l.2-22.2c7.6-3.7 21-13.5 28.9-18.4q1.2-.9 2.3.2m152.6 2.9 1 .4c-9.4 6.8-35.3 27-43.7 31l-1.7-5.3q0-1.6 1.4-2.4c9.3-4.8 35-21.4 43-23.7M100 274a6 6 0 0 1-3.1-3.2q4.5-3.3 9.4-5.9.5.5.2 1.1-3.5 3.9-6.5 8m225.3-6.3q0 2.3-.6 4.4c-8 4.7-17 9.3-24.6 14.6-1.6 1-2.7-.5-1.3-1.4 8.5-5.3 16.4-11.8 24.6-17.5q1-.8 2-.1m78.7 9a8 8 0 0 1-3.3-1.2q1.9-2 4.3-3 3-1.5 1.3 1.4-1 1.5-2.3 2.7M87 277.7q4.4 4.3 10.2 6.1-2.4 1.8-4.3 4.4c-8 2-14.8 8-22.3 11.7q-1 .8-1.7 1.8-1 0-1.9.5l-16.2 9.3q-.9.7-1.4 1.7c-.8-3.2-.3-8-.3-11.5 11.5-7.2 26.4-17.8 37.9-24m129.8 6 .4 1.2c-3.8 1.2-16.5 11.8-21 13.1q-1-1-1.1-2.2 10-5.7 20-11.7zM321 287c-.4 2.5-1.5 6.3-3.1 8.2q-8.8 4.8-17.4 9.8c-1.5.8-3.6 3.8-5.3 2.2zm-138.5 10.7a83 83 0 0 0 5.7 11.3c-.8 2.5-3.1 3.4-5.5 4q-3 .4-4.7 2.8-1.2 0-2.1.5-4.5 3-9 5.2-1.8 1.6-4 2.4-.7.3-1.2.8a47 47 0 0 1-5.8 3.2l-1.3.7q-3 1.5-5.6 3.6-.8.2-1.4.6l-3.8 2-1.2.8-.6.5q-.8.2-1.4.8l-5 2.7-.8.5q-.8.2-1.2.8a61 61 0 0 0-10.5 6.2q-.9.2-1.5.8l-5 2.7-.8.5q-.8.2-1.2.8l-5 2.7-.7.5-1.4.7a37 37 0 0 1-4.9 2.8l-5 3-.6.7q-.8 0-1.4.5l-5 2.8-.7.6q-.8.1-1.3.6c-1.3.8-3.9 1.5-3.8 3.4-3.3-1.3-4-6.3-4-9.3q.6-.4 1.1-1.2H83q.7 0 .7-.6L179 300l1.5-1zM213 318q0-1 .8-1.8l8-4.9c.8-.4 2.3-2.7 3-1.1q-.7 1-1.8 2l-7 5.1q-1.3 1.1-3 .7m-23-6.2a91 91 0 0 0 8 10.1l-2 1q-.8.2-1.3.7l-.7.5q-.7.3-1.2.8a26 26 0 0 0-5.8 3.3q-.8 0-1.2.7l-5 2.7a57 57 0 0 0-7 4.3 28 28 0 0 0-5.1 2.7l-.8.6q-.7 0-1.3.6l-4.9 2.9-.8.5-1.3.6-4.9 2.9a44 44 0 0 0-5.5 3.4q-.9.2-1.6.7l-5 2.8-.7.5-1.1.8a32 32 0 0 0-5 2.8l-1 .5-1.1.6q-2 .9-3.4 2.4-.9.1-1.6.7a39 39 0 0 0-5 2.7l-.7.6q-.7.2-1.3.7a37 37 0 0 0-5 2.7l-.7.6q-.8.2-1.2.6-.7.4-.7 1.1c-5.4 1-10.9.3-16.2.6l-1.6-1 89.3-56.4q2-1.4 4.3-2.3m59 22.9q-3.2 0-6.3-1 1-1.3 2.3-2.2l25-16.2c1.5-1.3 2.7 0 1 1.2a228 228 0 0 0-22 18.2m-48-10a67 67 0 0 0 9.3 7.5c-.1 1.7-6.2 3.8-7.3 5.3l-56.4 32.7c-.5.6-2.7.4-2.5 1.4-2.4-.5-15 .4-16-.5q36-23.6 72.8-46.4m72 10.2a19 19 0 0 1-8 .9q7.3-4.8 15-9.2c.7-.3 1.4-1.2 2-.2zm-61-1.3q5.4 2.8 11.1 5.3-.1 1-1.2 1.4c-12.1 5.6-23 14.5-34.9 20.8-1.5-.6-6 3.1-7.7 3.6l-8.3 4.9q-.5.3-.8 1l-2.2.5c-4.3 1-12.4 0-17.1.5q30.4-19.3 61-38m19.8 8q7 1.5 14.4 2.5-1 1.5-2.5 2.2-21.4 12.5-43.2 24.6-.4.2-.5.7l-16-.3c5.4-4.6 43-29.5 47.8-29.6m41.5 1q.9.4.1 1c-5.9 3.4-44.8 24.6-46.4 27.3a136 136 0 0 1-18 .2q1.5-1.5 3.3-2.5l38.6-24.4q11.3-.3 22.4-1.6m193 2q.6 1-.4 1.8c-4.5 3.5-18.2 17-22.2 18.6 3.5-12.8 11.2-16 22.6-20.4m-36 24q-.2 1.4-.6 2.5c-1 0-3 .7-3.5-.7l3.2-3.3q.6.6.8 1.6"/><path fill="none" stroke="#bfe76e" stroke-width=".5" d="M95 140.4h35l-4.1 3.3-23.6 17.7q1.2.7 2.4 0c8.7-6.3 18.5-10.8 27.4-16.7q4-2.1 7.8-4.4 8.6.2 17.1.1a2322 2322 0 0 1-43.2 32q-.7.3-.9 1.2c.8 1 2-.2 2.8-.5a2327 2327 0 0 1 56.3-32.5c2.5 0 14.6-.7 16 .1a7 7 0 0 1-2 1.9q-16.4 11.3-33.2 21.7-.7.4-.7 1.2c1 .7 2-.5 3-.7 10.8-7.2 22.1-13.3 33.4-20l1.5-1.2q3-1.3 6-3l17.1-.2a2208 2208 0 0 1-64.3 44q-.7.3-.8 1.1 1 .8 2.1 0l77-45 36 .5v1.1q-2.4-.5-3 2-1.3-.4-1.9.7c-1.8 2.6-5.4 3.2-8 5a2968 2968 0 0 1-64 41.8q-1.5.6-2.1 2 .8.9 2 .1c29-17.8 59-34.3 88.5-51.6q.9-.4 1.3-1.3 18.1-.5 36.2.1c-11.6 9-30 19-40.5 27.4-33.5-3.5-57.3 3.2-78.2 30.6a107 107 0 0 0-12 96 4 4 0 0 1-2.5 2.8 928 928 0 0 1-27 15.5q-.7 0-.7.7l-1.4.3q-.5 0-.8.6l-3.3 2q-1.8 1.3-3.9 2.4-.6 0-.5.6c-3.1 1.2-8.7 5.6-11.4 6.4l-.8.5c-3 1.8-5.7 4.4-9.1 5.4a3 3 0 0 0-3 1.9q-1.5-.2-2 1-2.2 0-2.8 1.9c-.5 0-2.1-.1-2 .8l-.3 1-3.6 2.3q-1.4-.3-2.7 0l-24 14q-.4.4-.4.8-.6.1-1.1-.2l-4.4-6q-.3-1 .6-1.7c29.9-18.3 59.9-37.6 89.9-55.3 1.6-1 .4-2.5-1.3-1.4-30 18.3-61.3 35.7-91.8 53.5q-.8.5-1.4 1.3c-2.7-1.8-17.6-9-18.6-10.2q38.7-24.5 77.5-48.7 4.6-3 9.6-5.5c1.6-1 .5-2.6-1.3-1.4l-7.5 4.8q-40 23.2-80.4 46-.1-5 .1-10l55-35.9c12.8-1.3 20.9-5.5 27-17.2q2-.2 3-2l1.8-.7q12.7-7.9 25-16 5.8-3 11.4-6.6.6-.3.6-1-.8-.5-2 0c-3.3 2-6.7 3.7-9.8 6.2l-26.3 15.1c-.6.2-1.6 1-2 .3q2-7.5.6-15.2.9-1.6 2.5-2.4 10.8-7.4 22.1-13.9 2.7-2.3 5.6-4.1c-.7-.7-4.3 1.7-5.4 2-3.2 2.6-22 12.7-23.2 14.6h-2.8q-3.9-11.5-15.3-16l1.4-2.4q.4 0 .8.3.6-.5.7-1.1c1.6 0 6.4-3.8 8.3-4.5 1.6-.8.5-2.3-1.2-1.3q-4.4 3.2-9 5.6c-.7 1-3.5 1.5-2.8 3-16.7-3.2-26.4 3.4-33.1 18.2l-33 19q-.3-11.5-.1-23 2.4-.9 4.3-2.3 25.7-18 51.9-35.1c1.6-1 .4-2.5-1.3-1.4A964 964 0 0 1 49 235l.1-11q1 0 2-.7c7-4.7 13.9-9.6 21.1-13.8 1.5-.8.4-2.3-1.2-1.3A249 249 0 0 1 49 221v-12q1.1.2 2.2-.5l8.6-6.5 6-4.6 1.6-.7q1.2-1.4 2.8-2 7-6.2 15-11c1.1-.7 1-2.2-.4-1.7Q67 192.8 49.2 203q-.5-6 0-12.2l16-11.3c1.3-.9.3-2.4-1.3-1.3l-2.4 1.9-12.5 7c.3-2.1-.4-8.5.6-10 11.4-10.2 25.6-12.8 31.6-29l4.1-2 3.7-2.2zm330.4 0q-3.9 1.7-7.4 4.2-.7.6-.8 1.4c-1.5-.1-3.3.2-3.2 2q-.9 1-2.1 1.3-3.1.1-5 2.6-1.1 0-1.6.8a4 4 0 0 1-3.5 2.5q-1.2-.4-1.7.8-1 .3-1.1 1.2-1.5-.7-1.8.8-1 .8-2.2 1.4-.6 0-.7.4-2.2.7-4.2 1.9a1329 1329 0 0 1-62.9 38.8q-1.4.7-2 2 .8 1 1.9.2c32.4-19.8 66.8-38.8 99.9-58.2l2-.8q2.4 4 2.9 8.6-30.9 18.6-61.3 38l-11 6.7q-1.5.8-1.6 2.1-1 .8-2.2 1-1.2-.3-1.6.7-1 1.9-3.3 2.4c-.4-.2-1.8-.3-1.5.5a4 4 0 0 1-3.5 2.4q-1.3-.2-1.9 1-.8 0-.8.8l-3.6 1.4-9.2 6c-5.4-11.5-12-20-20.5-29.2q39.3-22.2 78-45.1zm-344.1.3h3.3c3.3.6-1 3.4-2 4-1.3-.4-.5-1.8-1.2-2.6zm246.6.3a99 99 0 0 1 17.2-.2q-.4.9-1.1 1.5l-13.6 8.7q-.3.4-.3 1a4 4 0 0 0-2 .6 37 37 0 0 0-6 4.2q-3 1-5.2 3.3-12.2 7-23.7 15L279 170q.4-.8 1.3-1.1l46.4-26.6q.8-.4 1.2-1.2Zm33 0q8.6-.8 17-.2a28 28 0 0 1-4.9 3.7l-62 38.8q-1.3.9-2.3 1.9l-10.7-7.4c1.5-2.7 54.5-31.6 61.7-35.7q.9-.3 1.3-1.2Zm-135.7 11.2c.3 2.5 5-1.1 5.7-1.9q5.3-2.8 10.2-5.8.7-.3 1-1.2c-.6-1-1.3-.6-2.2-.2l-11.9 7.7q-1.6.4-2.8 1.3Zm58.2-5.2c1 1.8 7.5-2.8 7.7-3.6-.9-1.5-6.4 3.1-7.7 3.6Zm-216.1 1.7c-4.3 8-10 14.3-18.5 17.8l-1.4-1 18-16.6c.4-.3 1.6-1.2 1.9-.2Zm367.6 9q2.7 3.9 6.3 7c-3.2.4-5.5 3-8.3 4.3q-.6.2-1.2.7a206 206 0 0 1-11.8 7.4l-1.2 1-3 1.6q-2 1.4-4 2.4l-1 1-3 1.6q-1.8 1.3-3.8 2.3l-1.2 1-3 1.7q-1.8 1.4-4 2.3l-1 1-3 1.7q-1.8 1.4-4 2.3l-1 1-3 1.7q-2 1.4-4 2.4l-1 .9-1.8 1q-.6.2-1.2.7a27 27 0 0 1-4 2.4q-.6.3-1 .9l-1.8 1-1.2.7q-1.8 1.2-3.5 2.6-.8 0-1.5.6l-1.7 1-1.3.8q-1.8 1.2-3.5 2.6-.9 0-1.6.7l-1.6 1-3 2q-.8.2-1.3.7-1.8 1.5-4 2.3l-1 .8q-.7.8-1.8 1.2l-1.2.7-3.7 2.7q-.5 0-1.1.3l-.8.6q-1.2-6-3.4-11.6-.4-2.3 1.6-3l99.3-57.5q1-.5 2.3-.5Zm-184 17.8L225.4 191q-1.8-.2-.4-1.5 2.6-1.8 5-4 4.8-4 9-8.4c3.1-1.3 8.7-1.5 12-1.5Zm211.2 1.4q1 .4 1 1.6 0 4.8-.3 9.7l-1.7.6Q441.8 201 422.4 213l-9.5 5.5c-1.9 1-.2 2.5 1.2 1.4l12.5-7.7 34.3-19.8 2-.6q.3 5.3 0 10.5-.8 0-1.6.4l-28.6 18.7q-4.5 2.4-8.7 5.2-.9.5-.8 1.4-2.2-.1-2.4 2.1c-23-11.5-40.5 3.5-42.3 27q-1.5-.2-2.5.6-14 9-28.3 17.5-.6.6-.3 1.4a26 26 0 0 0 5.7-2.8 521 521 0 0 1 23-13.8q.6-.4.8-1 1-.3 1.7-1c.5 37.6 50.1 37 54.3-2.2l30-16.8a77 77 0 0 1 0 10.1q-11.3 7.5-23 14.5c-1.5.6-.5 2.4 1.2 1.3q4.9-2.8 9.4-6 5.4-2.6 10.4-5.6l2-.5q.4 5.1.1 10.2-1.4 0-2 1.2c-19.3 12-37.8 25.4-57.1 37.3q-.6.3-.6.8a2 2 0 0 0 2.4 0c8.7-5.9 18.2-10.9 27-16.4q4-1.8 7.7-4.2.4-.4.4-1 2 0 3.6-1l13.5-8.2c1.7-1 3.2-.2 2.9-2.7q1-.8 2.3-1V280q-6 3.5-11.3 7.2-1.1.6-1 1.8l-1.8-.1c-1.5 1.5-4 2-5 3.9q-1 0-2 .6l-23.7 15.8c.6.8 3.4-1 4.3-1.2l8-5.2q12-6.5 23.8-13.4 2.4-1.3 4.5-3 2-1.1 4-1.6.2 6 .2 12.1c-3.8.3-26.2 17.6-30.7 21q-2.6 1.3-4.8 3c-1.6 1.8-.3 1.5-3 2.1l-7.2 5.3q1 .7 2 .3l20-11.7c3.7-1.5 6.5-3.8 10.4-4.7 1.6-2.3 4.3-3 6.6-4.4q1.8-2.7 5-3.2.6-1 .5-2 .5-.7 1.2-.8v15a137 137 0 0 0-22 15.1c-2 .8-1.9.8-2.9 2.6q-2 .7-3.7 2c-.2 1.3 1 1.2 1.9 1.2 3.3-2.5 7.1-3.5 10.9-5.1l5.4-3.9a9 9 0 0 0 3.1-1.5q.8-.7 1.3-1.7c1.5-.9 3-.4 2.8-2.7q1.5-1 3.3-1.9l-.3 13c-1.6 1.4-4.8 3.2-5.8 5-12.2 6.4-21.1 12.7-26.2 26.1q-5.3 3.3-11 6.5-8.4.4-17 .1l2-2.5c3.9-2 11.6-9.2 16-12 .5-.4 1.2-1.4.6-2q-10.5 6.7-21.5 13c-.8.6-6 2.7-6 3.5h-17l2-2q17-13.6 34.6-26.6c.7-1.2-.8-1.6-1.7-1-6.1 5-23.2 11.5-26.5 16.8l-4.5 2.4q-2.5 0-4 1.9-6 3-12 6.5-.6.4-.6 1.3c-5.7 1-12.5.6-18.3.3q.3-.9 1-1.6c15.7-11.2 31.2-23.4 47.2-34q.6-.3.8-1.1c-.6-1-1.3-.4-2 0q-11.8 7.6-24.4 13.8c-1.4 2.4-3.4 2.7-5.1 4.3-4.6.6-11.1 6.2-15.6 8.2l-15 8.6q-1 .6-.9 1.8-9 .4-18.2 0 .3-1 1.1-1.7c14.3-9.7 28.6-20 43.3-29 1.6-.9.4-2.3-1.3-1.2q-2.8 1.6-5.5 3.7c-10.9 6-21.6 12.6-32.7 18.2l-1.4 1.5a6 6 0 0 0-3.4 2.7q-2.8.5-5.4 2-1.7 1.5-3.6 2.7-1.2-.3-1.7.8c-4.9.9-12.3.7-17.3.2q.1-.6.7-1c20.3-13.3 41-28 61.5-40.6 1.7-1 .2-2.3-1.2-1.3-17.2 11.4-36.6 20.8-53.6 32.4-1.6 1.5-6.2 1-6.2 3.6l-10.3 6c-5.3 1.9-15 .9-20.7.8l2.2-2q1 .3 2-.3a727 727 0 0 1 36.9-23q1.4-1.5-.7-1.3l-2.3 1.1-8.1 5.3q-13.5 7.7-27 15.8-1.8.3-3 1.6c-1.2 1.3-3.4 1.1-4 2.9-5.4.5-13 .6-18 0q0-1 .6-1.7c7.6-1.3 35.7-21.8 44.2-27.2q.7-.5 1-1.2c41.8-16 58.4-50.8 58.2-94q1.4-.2 2.6-1.1c.2.9 0 2.3 1.4 1.9l15.3-8.9 16.1-8 76.6-44.4c1.6-1.1 10-5.6 9.8-7.6l.4-1q.8-.7 1.8-1Zm-194.2.7c1.9.5 5.7 1.2 7 2.5q0 .9-1 1.3l-38.4 21.8c-1-.7-.1-1.2.4-1.8 7.2-4.9 25.1-21.8 32-23.8Zm18 7.2q2.4 1.1 4.4 2.5L262.2 204l-.5-1.2c3.9-4.1 18.8-14.1 24.3-18Zm-95.8 42.3q.8-4.2 2.8-8.2 1 0 2-.6 8.2-4.8 16.6-9.3c.8.8-1 1.8-1.5 2.4zM313 210a13 13 0 0 1 4 6l-21.7 12.3q-1.6-2-2.5-4.2c6.5-5 13.2-10 20.2-14Zm149.8 0q.3 5.1.1 10.2l-33 20.9a47 47 0 0 0-6-8c11.4-8 26.7-15.8 38.9-23.1Zm-142 14.2q1.2 1.3 1.2 3-1 0-1.8.6l-14.7 8.4a11 11 0 0 1-5.2 2.9c-1-.6-.1-1.2.4-1.7zm142 .7q.3 5.1 0 10.3-15 9.1-29.8 19-1-5.7-2.3-11.3c7-3.6 26.4-15.8 32.2-18Zm-85.7 1.5q-.5.4-1.3.3.6-.3 1.3-.3ZM185.7 245q0-1.6.5-3.3c7.2-4.4 16.2-8.6 22.7-13.6 1.2-.8 2.8.4 1.3 1.3-8.1 5-15.5 10.8-23.1 16.3q-1.1.5-1.4-.7Zm97.2-13.2 1.3 1.4q.4.8 0 1.5l-19.5 11.4q-2.5 1.3-1.2-1.2c3.3-2.2 16.7-12.8 19.4-13.1Zm-175 3q2.8 0 4.3 2.2c-.1 1.3-6.2 3.5-7.2 4.7q-1.7 1-1.4-1 2.3-2.7 4.4-6Zm250.3 2.5-1.2.6q.4-.7 1.2-.6ZM50.6 253a19 19 0 0 0 9.3-5.8c-.9-.3-9.3 4.3-9.3 5.8Zm276-6.2q.4 4 .1 8c-8.5 3.6-22 13-31.6 17.3l-.5-1.5c8.5-7.6 22.2-17 32-23.9Zm-246.2 6q-1.3 10.5 3 20.3-17 10.2-34.4 20l.2-22.2c7.6-3.7 21-13.5 28.9-18.4q1.2-.9 2.3.2Zm152.6 2.9 1 .4c-9.4 6.8-35.3 27-43.7 31l-1.7-5.3q0-1.6 1.4-2.4c9.3-4.8 35-21.4 43-23.7ZM100 274a6 6 0 0 1-3.1-3.2q4.5-3.3 9.4-5.9.5.5.2 1.1-3.5 3.9-6.5 8Zm225.3-6.3q0 2.3-.6 4.4c-8 4.7-17 9.3-24.6 14.6-1.6 1-2.7-.5-1.3-1.4 8.5-5.3 16.4-11.8 24.6-17.5q1-.8 2-.1Zm78.7 9a8 8 0 0 1-3.3-1.2q1.9-2 4.3-3 3-1.5 1.3 1.4-1 1.5-2.3 2.7Zm-317.1 1.1q4.4 4.3 10.2 6.1-2.4 1.8-4.3 4.4c-8 2-14.8 8-22.3 11.7q-1 .8-1.7 1.8-1 0-1.9.5l-16.2 9.3q-.9.7-1.4 1.7c-.8-3.2-.3-8-.3-11.5 11.5-7.2 26.4-17.8 37.9-24Zm129.8 6 .4 1.2c-3.8 1.2-16.5 11.8-21 13.1q-1-1-1.1-2.2 10-5.7 20-11.7zM321 287c-.4 2.5-1.5 6.3-3.1 8.2q-8.8 4.8-17.4 9.8c-1.5.8-3.6 3.8-5.3 2.2zm-138.5 10.7a83 83 0 0 0 5.7 11.3c-.8 2.5-3.1 3.4-5.5 4q-3 .4-4.7 2.8-1.2 0-2.1.5-4.5 3-9 5.2-1.8 1.6-4 2.4-.7.3-1.2.8a47 47 0 0 1-5.8 3.2l-1.3.7q-3 1.5-5.6 3.6-.8.2-1.4.6l-3.8 2-1.2.8-.6.5q-.8.2-1.4.8l-5 2.7-.8.5q-.8.2-1.2.8a61 61 0 0 0-10.5 6.2q-.9.2-1.5.8l-5 2.7-.8.5q-.8.2-1.2.8l-5 2.7-.7.5-1.4.7a37 37 0 0 1-4.9 2.8l-5 3-.6.7q-.8 0-1.4.5l-5 2.8-.7.6q-.8.1-1.3.6c-1.3.8-3.9 1.5-3.8 3.4-3.3-1.3-4-6.3-4-9.3q.6-.4 1.1-1.2H83q.7 0 .7-.6L179 300l1.5-1zM213 318q0-1 .8-1.8l8-4.9c.8-.4 2.3-2.7 3-1.1q-.7 1-1.8 2l-7 5.1q-1.3 1.1-3 .7Zm-23-6.2a91 91 0 0 0 8 10.1l-2 1q-.8.2-1.3.7l-.7.5q-.7.3-1.2.8a26 26 0 0 0-5.8 3.3q-.8 0-1.2.7l-5 2.7a57 57 0 0 0-7 4.3 28 28 0 0 0-5.1 2.7l-.8.6q-.7 0-1.3.6l-4.9 2.9-.8.5-1.3.6-4.9 2.9a44 44 0 0 0-5.5 3.4q-.9.2-1.6.7l-5 2.8-.7.5-1.1.8a32 32 0 0 0-5 2.8l-1 .5-1.1.6q-2 .9-3.4 2.4-.9.1-1.6.7a39 39 0 0 0-5 2.7l-.7.6q-.7.2-1.3.7a37 37 0 0 0-5 2.7l-.7.6q-.8.2-1.2.6-.7.4-.7 1.1c-5.4 1-10.9.3-16.2.6l-1.6-1 89.3-56.4q2-1.4 4.3-2.3Zm59 22.9q-3.2 0-6.3-1 1-1.3 2.3-2.2l25-16.2c1.5-1.3 2.7 0 1 1.2a228 228 0 0 0-22 18.2Zm-48-10a67 67 0 0 0 9.3 7.5c-.1 1.7-6.2 3.8-7.3 5.3l-56.4 32.7c-.5.6-2.7.4-2.5 1.4-2.4-.5-15 .4-16-.5q36-23.6 72.8-46.4Zm72 10.2a19 19 0 0 1-8 .9q7.3-4.8 15-9.2c.7-.3 1.4-1.2 2-.2zm-61-1.3q5.4 2.8 11.1 5.3-.1 1-1.2 1.4c-12.1 5.6-23 14.5-34.9 20.8-1.5-.6-6 3.1-7.7 3.6l-8.3 4.9q-.5.3-.8 1l-2.2.5c-4.3 1-12.4 0-17.1.5q30.4-19.3 61-38Zm19.8 8q7 1.5 14.4 2.5-1 1.5-2.5 2.2-21.4 12.5-43.2 24.6-.4.2-.5.7l-16-.3c5.4-4.6 43-29.5 47.8-29.6Zm41.5 1q.9.4.1 1c-5.9 3.4-44.8 24.6-46.4 27.3a136 136 0 0 1-18 .2q1.5-1.5 3.3-2.5l38.6-24.4q11.3-.3 22.4-1.6Zm193 2q.6 1-.4 1.8c-4.5 3.5-18.2 17-22.2 18.6 3.5-12.8 11.2-16 22.6-20.4Zm-36 24q-.2 1.4-.6 2.5c-1 0-3 .7-3.5-.7l3.2-3.3q.6.6.8 1.6Z"/><path fill="#a1d157" d="M50.6 253.1c0-1.5 8.4-6.1 9.3-5.8a19 19 0 0 1-9.3 5.8"/><path fill="#a7d55b" d="M283.4 147c1.3-.5 6.8-5 7.7-3.6-.2.8-6.6 5.4-7.7 3.6"/><path fill="#83bc3f" fill-opacity=".8" d="m256.1 368.2 2.2.8-2.2 2q-2 .5-4 0c.6-1.7 2.8-1.5 4-2.8"/><path fill="#7cbc3b" fill-opacity=".2" stroke="#7cbc3b" stroke-opacity=".2" stroke-width=".5" d="M287.1 364.2c.7-.1 1.3-.8 1.7.1a84 84 0 0 1-7.8 5.3l-1 1.4c-1 .2-3 .4-3.2-.9q5.3-2.8 10.3-6Z"/><path fill="#bfe76d" fill-opacity=".3" d="M156 346q-.1 1-1.2.8zm-52 12q-.3 1-1.3.7z"/><path fill="#bee76d" fill-opacity=".2" d="M170 338q-.3 1-1.3.7zm-52 12q-.3 1.1-1.3.7z"/><path fill="#81b93d" fill-opacity=".5" stroke="#81b93d" stroke-opacity=".5" stroke-width=".5" d="M40.8 144.2a3 3 0 0 1 2.7-2c1.4 1-2 2-2.7 2Zm295.3 5.7c-.7 1.7-5.5 4.2-7 4l1-1.9zM188.2 330q-.4.8-1.3.6.5-.6 1.3-.6Zm-50 31.1q-.6.6-1.5.5.7-.5 1.6-.5Zm332 7.6c-.3.8-2.1 3.4-3 2q1-1.5 3-2Z"/><path fill="#80b93d" fill-opacity=".3" d="m70.3 99-.3 1h-1.4q.6-1 1.7-1m265.8 51c.2-1 4.2-3.8 4.8-2.7-.9 1.3-3.1 2.8-4.8 2.6m108.8 30.7q-.1 1-1.2 1.2zm-29.5 23.5q-.5.6-1.4.9.3-1 1.4-1m-26 14.9q-.5.7-1.4 1 .3-1 1.4-1m-206 114q-.5.6-1.2.9 0-1 1.1-1m-56 15-1.1.8q0-1 1-.8m5.8 15.9-1 1q0-1 1-1M108 392q-.5 1.2-2 1 .7-1.2 2-1"/><path fill="#2b2e27" fill-opacity=".6" d="m130 407.4 2-.7 1 .5 2 .2q-2.6 1.3-5 0"/><path fill="#495f2f" fill-opacity=".7" d="M286.3 98.4q-2.2 1-4.5.2c.8-1.2 3.3-.6 4.5-.2"/><path fill="#405b1f" fill-opacity=".1" stroke="#405b1f" stroke-opacity=".1" stroke-width=".5" d="M411 130.6q0 1-.7 1.4h-1.1c-.1-1 1.2-1.2 1.8-1.4Z"/><path fill="#4c6330" fill-opacity=".9" d="M6.8 104.8q0 1-1 1z"/><path fill="#2b2d26" fill-opacity=".4" stroke="#2b2d26" stroke-opacity=".4" stroke-width=".5" d="m185.3 131.9-.5 1h-1q.6-1 1.5-1Z"/><path fill="#37432a" fill-opacity=".5" stroke="#37432a" stroke-opacity=".5" stroke-width=".5" d="M409.2 132h1l-.3.8q-1.5.3-2.8-.1.9-1 2-.8Z"/><path fill="#43562d" fill-opacity=".6" stroke="#43562d" stroke-opacity=".6" stroke-width=".5" d="m387.8 131.7.2 1a4 4 0 0 1-2-.1q.8-.7 1.8-1Z"/><path fill="#313829" fill-opacity=".5" stroke="#313829" stroke-opacity=".5" stroke-width=".5" d="m366.2 131.6.6.4.1.7a5 5 0 0 1-2.8 0c0-1 1.5-.9 2.1-1Z"/><path fill="#33382c" fill-opacity=".5" d="m168 371.2 2.2-.5 1.2.4q-1.7 1.7-3.5 0"/><path fill="#262626" fill-opacity=".8" d="M512 349v21c-1 .4-1-.8-1-1.4q.3-9-.1-18.2 0-1.2 1.1-1.4"/></svg>