<svg xmlns="http://www.w3.org/2000/svg" style="shape-rendering:geometricPrecision;text-rendering:geometricPrecision;image-rendering:optimizeQuality;fill-rule:evenodd;clip-rule:evenodd" viewBox="0 0 512 512"><path fill="#f9546c" stroke="#f9546c" stroke-width=".5" d="M264.9 134.7c-5.8 2.2-13.6 8.2-19.1 10.3l-.2-10.4q-.1-1.5 1-2.5c5.3-.7 14-1.5 18.3 2.6Zm1.2 2.3c1.6 3 1 8.6 1 12a52 52 0 0 0-10 8.6q.5.4 1.2 0l8.6-4.5c.2 2.8 6.2 3.8 8.3 4.7-2.8 4.7-10.3 11.1-12.4 15.5q-1.5-.3-1.6 1.1c.5.5 2-.6 1.6-1.1 7.6-3.2 17-9.4 24.4-13.6l1.8-.8c3.9.6 4 7 4 10q-6.2 4.9-12 10.1a6 6 0 0 0-3 3.2v1c-14.1 2.3-11 11.3-11.6 22.7.2 4-1.7 3.6-5 3.8h-8.5c.1-.8 1.4-1.6.3-2.3a4 4 0 0 0-3.1 1.6c-5-1-5.8-5.7-4.7-10q7.8-6.5 15.4-13.6-.5-.4-1.1-.1c-3.3 2-10.4 6.8-13.8 7.7-.6-4-1.4-7-4.9-9.3 2.9-3 7-6.8 9-10.3-.6-.9-1.3-.1-2 .1l-16.5 9.5q-.5.5-.6 1.1-7.5.6-10.8-6 7.5-6.2 14.6-12.5-.7-.6-1.7-.2l-12 7.2q-.8.4-2 .5 0-7.2 1.5-14.3c.4-1.8 4.1-.7 5.5-.9q.4 2 2.3.9.5-.3.6-.7c7.3 0 14.9-.7 16.4-9.3 4.7-2.7 16.7-10.2 20.8-11.8ZM254 207q.6 0 1-.5-.9-.4-1 .5Z"/><path fill="#fffefe" stroke="#fffefe" stroke-width=".5" d="M394.8 280.7V291q-13.4 8.7-27.2 17.3c-.9 1.2-4.8 2.4-4.4 4-1.8-.3-4.8 1-4.8 3-.8-.1-2.3-.3-2.1 1q-1 0-1 1c-.6-.1-2.4-.2-2 1-2.3 0-15.4 9.4-18.4 11.1q-11 .2-22-.4 1-.6 1-1.7a6 6 0 0 0 4-2.1l7-3.8q4.7-2.7 9.1-5.7 19.6-11 38.7-22.7c2.6-1 7.7-4.8 10.2-5.4q1.2-1 1.7-2.3 1.5-.2 2.9-.6c1.6-2.7 4.3-3.6 7.3-4Zm-244 67.1c2.3 2.5 5 5 8.4 5.5l-.4.8q-.9-.2-1.8.3a94 94 0 0 1-12.2 7.4L143 363q-1.6.6-3 1.7c-3 2-16.5 9.4-20.7 12l-2.2 1.5q-.1-5.3.2-10.4 1-1 2.2-1.7l23.6-14.6c2.2-.8 5.5-3.5 7.8-3.7Z"/><path fill="#be6d5d" fill-opacity=".8" d="M394.7 291v2.3q-3.3 1.5-6.3 3.5a61 61 0 0 0-6.1 4.2l-2 .8a81 81 0 0 0-8.1 5.7q-2.5 1.8-5.3 2.6c-1.3.8-2 2.3-3.7 2.3-.4-1.7 3.5-2.9 4.4-4.1zm0 4.8v2.1l-53.6 30.6a3 3 0 0 0-1.2 1.2l-5-.3c3-1.7 16-11.1 18.4-11.1v1.4q1.2-1.1 2.7-1.3a3 3 0 0 1 3-1.8 250 250 0 0 1 14-8.1l1.5-1.5q4-1.4 7-4l2.2-.8q5.4-3.3 11-6.4m-31.5 16.6a7 7 0 0 1-4.8 3c0-2 3-3.4 4.8-3m-4.8 3q-.9.8-2.1.9c-.2-1.3 1.3-1.1 2-1m-2.1.9q-.2.8-1 1 0-1 1-1m-1 1q-.5 1.2-2 1c-.4-1.2 1.4-1.1 2-1"/><path fill="#ca8779" fill-opacity=".9" d="m391.8 85.7.3 1-7.7 5-16 8.9q-7.7 4.3-15 9-12.4 6.7-24.7 13.8l-1.4 1.2q-3 .8-5 2.9l-5.6 2.7-1.4 1.4q-2 0-.4-1.1l19.4-11.8 31.8-18.9q.7 0 .7-.7a13 13 0 0 1 4-1.8 2 2 0 0 0 1.4-1.6q1.3.7 1.9-.6 2-.6 3.9-1.7l7.4-4.7z"/><path fill="#d39d93" d="m188.2 170.7-.1-.9q0-.5.3-.8 3.9-2.2 7.6-4.7c.7-.2 1.4-1 2 0a31 31 0 0 0-4 3zM394.7 194v1.9q-1 0-1.7.4-9 5.5-18.4 10.5l-5.6 3.8q-1 .5-1.9-.1l23.9-15a9 9 0 0 1 3.7-1.6m-41 12.3.3.3-12.9 8.2a20 20 0 0 0-3.7 2q-2.7.2-.5-1.4 7.7-4.3 15-9.1.9-.5 1.8 0M117.3 354.9l-.1-1.8 19.9-11.3q3.5-2.1 6.9-4.5a2 2 0 0 1 2 .3q-14.1 8.4-27.9 17.2-.3.2-.8.1"/><path fill="#c57b6c" fill-opacity=".9" d="m119.1 340.8-2 .5v-2l2-.7q7.2-4.4 14.6-8.4 20.3-11.7 40.3-23.8c.6-.3 2-.4 1.7.7q-2.6.9-4.8 2.2l-6.5 4.5-33.6 20.7c-2.1.8-3.9 2.7-6.2 2.7q-.7 1.2-1.7 2.3c-.6.6-4 .4-3.8 1.3"/><path fill="#d09488" d="M299.4 199q.9.2 1.6 1l-11 6.3c-.9.5-2.9 3-3.9 1.4q6.6-4.6 13.3-8.8m-115.3 47.3q-.1.7-.8.4c-.3-1.5-2.3 1.2-3.1 1.2q-.1-1-1.3-1.3 9.7-5.4 19-11.3c.8-.3 1.6-1 2 0q-1.3 1.3-2.9 2.3l-12 7zM333.9 314a3 3 0 0 0 .1 1.7l-9 5.7q-3.6 1.8-7.1 3.8a6 6 0 0 1-4 2 6 6 0 0 1 3-2.9q8.6-5 17-10.3M264 443q.7-1.5-.8-1.2.4-.8 1-1a278 278 0 0 0 13.8-8.3q1-.6 2 0-.2.7-.8 1z"/><path fill="#d29a8f" d="m371.8 181.2.2 1q0 .5-.4.9-7.5 4-14.6 8.7c-.6.2-1.5.9-1.9-.1l4.2-3zm-57 118q-.2.8.3 1.5l-18 11q-1.1.6-2-.1 9.6-6.5 19.7-12.5m79.9 24.9v1.8a230 230 0 0 0-18.6 10.8q-1.1.6-2-.1l9.6-6.4 9.3-5.6a3 3 0 0 1 1.7-.5M203 419.7v-.8q0-.9.9-1.3l8.6-5c.7-.2 1.6-1.2 2.3-.4l-3.5 2.6q-4 2.7-8.3 5"/><path fill="#be6d5d" fill-opacity=".9" d="M263.2 441.8q1.5-.3.8 1.2-9 5.7-17.6 11.7l-2.8.6a4 4 0 0 1-3.4 2.3q-1.1.5-1.5 1.6-.3 1-1.3 1.4-1.2-1-2.5-.3a69 69 0 0 1-7 4q-2.4.6-4.9.4l38-22.1z"/><path fill="#d6a298" fill-opacity=".8" d="m393 219-.3 1.7q-2.2 0-3 2-1.4 0-2 1-2.2.3-2.9 2.3-1.5-.4-2.2 1-2.2 0-2.8 2.1c-.2 1.5-2.5.2-3 2.2q-1.2-.7-1.8.5c-2.6 1.8-4.3 3.4-7.4 4.5q-5 2.8-9.6 6.3c-2.3 1.2-6.2 3-8 4.7q-.9-.3-.8.6-2.4.9-4.7 2.1a27 27 0 0 1-5.2 3.4q-.9.1-1.8.5c-1.3 1.5-.5 2.4-3.2 1.4 2-.5 1.5-.8 2.4-1.9 2.6-.2 4.3-2.6 6.4-3.8q4-1.8 7.6-4.2l29.5-18.9q6.5-3.6 12.8-7.5"/><path fill="#f7546b" stroke="#f7546b" stroke-width=".5" d="M292.7 174c-.2 1.6-.3 9-1.5 9.6q-6.6 0-13.2-.4v-1c1-.4 3-.6 3-2q6-3 11.7-6.2Z"/><path fill="#cf9286" d="m195.2 365-.2-2q9-5.1 18-10.7 1-.6 1.9 0l-2.8 2.4q-8.6 5-17 10.3m44 77.9q0-1.1-1-1.6 8.3-4.8 16.5-9.9c.6 0 1.5-1 2-.2q-1 1.4-2.6 2.3z"/><path fill="#bf958d" d="M228 73.3a9 9 0 0 0-3.4-.2l-12.8 7.2q0-.8.5-1.4 1.6-.7 2.8-1.5 0-1.2.7-1.9 3.5-1.5 7.3-2.6 8.3-4.9 16.7-9.4 0 .8-.5 1.3-5.7 4.1-11.2 8.5"/><path fill="#cd9387" fill-opacity=".8" d="M394.8 205.2v2.7l-34.6 20q-.6.2-1.1-.3 2.4-2.1 5.3-3.7l26.9-16z"/><path fill="#e6c9c3" d="M394.8 156v1l-6.8 4.4q-4.9 2.8-9.8 5.1a4 4 0 0 1 2.3-2.6q6.4-3.4 12.5-7.3.8-.5 1.8-.6M117 317v-2c5.5-2.4 10.5-5.8 15.6-8.8q2.2 0 .6 1.5-8.4 4.3-16.2 9.3"/><path fill="#becdd1" fill-opacity=".9" d="M318 83.3c.6 2-4.5 3.6-5.8 4.6-1-.2-6.4 2.4-6.9 1.4-1.4-3-1.8-2.2-4.3-3q8.6-1.4 17-3"/><path fill="#cb8c80" fill-opacity=".9" d="m117.3 200-.2-2.8q1.6 0 2.8-.8 10.5-6.7 21-13 1.2-.6 2 0c-.2 1.4-1.6 1-2.5 1.6z"/><path fill="#beb5b4" fill-opacity=".8" d="M310 42.7q-.7 1.5-1.8 3-4.3 2.6-9 5-2.1.2-4.3.7c-.4-1.6 2-2.9 3.2-3.4q0 1.2 1.1.8 3.3-2 6.8-3.8a3 3 0 0 0 1.3-1z"/><path fill="#be7060" fill-opacity=".9" d="M117.3 123q-.3-2 .1-3.8 5-3.3 10-6.3a3 3 0 0 1 2.4-.4z"/><path fill="#dbaea4" d="M318.9 170.4v.6q.2.6-.2 1l-8.4 5q-.9.3-1.3-.4 4.6-3.5 9.9-6.2M197 221l-1-.1 8.6-5.7c.8-.2 1.8-1 2.3 0-1.7 1.3-8 6.2-10 5.8"/><path fill="#d6a297" d="M205.2 401.8q-.2-1-1.1-1l16.8-10.5q1-.4 2 .2-1.3 1.3-2.9 2.2l-1.4.4q-6.6 4.6-13.4 8.7"/><path fill="#8d5447" fill-opacity=".2" stroke="#8d5447" stroke-opacity=".2" stroke-width=".5" d="M160.8 425.7q.8.6 1.2 1.3a83 83 0 0 1-8.2 4.4c-1.5 2-4.3 3.4-6.5 4.3l-1.1-.6q-.3-.9.7-.9t1.3-1q6.4-3.6 12.6-7.5ZM406.7 469l1.6.4v.2l-1.2.6z"/><path fill="#b65e50" fill-opacity=".2" stroke="#b65e50" stroke-opacity=".2" stroke-width=".5" d="M171 486q-.3.8-1 1.2a342 342 0 0 0-15.7 9.8 2 2 0 0 0-1.4-1.3l16.7-9.6z"/><path fill="#cd9b91" d="M216.8 332.2v1.6c.1 1.3-2.1 2.1-2.8 2.8q-6 3.4-11.8 7.2-.2-1-1-1l11.7-7.1 2.5-1.8q.5-1 1.3-1.7"/><path fill="#d09f95" d="M185 397.8a10 10 0 0 1 1.8-3.6c.2 1.4 2.4-1 3.2-.9q4-2.3 8-5 1-.5 2 .2a16 16 0 0 1-3 2.2c-3.7 1.5-8 5.3-12 7.1"/><path fill="#b76652" fill-opacity=".3" stroke="#b76652" stroke-opacity=".3" stroke-width=".5" d="M96.8 422.9q0 .9-.8 1.3-6.3 4-12.7 7.7a4 4 0 0 1 0-1.8l11.7-6.7q.8-.5 1.8-.5Z"/><path fill="#fff" fill-opacity=".2" d="M158.8 354.1q.2.6-.1 1l-5 3-7.6 5q-.3-1.2-1.3-1.3a94 94 0 0 0 12.2-7.3q.9-.6 1.8-.4"/><path fill="#a56252" fill-opacity=".2" stroke="#a56252" stroke-opacity=".2" stroke-width=".5" d="M428.7 381v1.7l-.6.8-7 4.3-4.8 2.3q0-1 .6-1.5 6-3.6 11.8-7.6Z"/><path fill="#b86453" fill-opacity=".3" stroke="#b86453" stroke-opacity=".3" stroke-width=".5" d="M428.7 231.1v1.9l-6.1 3c-1.5 1-3.7 3.4-5.6 2.7q.6-.9 1.6-1.5z"/><path fill="#a17a74" fill-opacity=".1" stroke="#a17a74" stroke-opacity=".1" stroke-width=".5" d="m394.7 309.2-.1.5q-.4 1.1-1.5 1.8a69 69 0 0 0-7 4l-2 .7c-.3-2 1.7-2 3-2.7q3-2 5.8-4.2a2 2 0 0 1 1.8-.1Z"/><path fill="#edd6d1" d="M389.8 98.3h1v.4q0 .6-.5 1-5.3 2.7-10.5 5.8-.6.5-1 0 .5-1.7 2-2.3z"/><path fill="#884e43" fill-opacity=".1" stroke="#884e43" stroke-opacity=".1" stroke-width=".5" d="M104.7 189.2v.5c-1 1.7-7.3 4.9-9.4 6.1q-.2-1.2-1.4-1.3l9-5.2a2 2 0 0 1 1.8-.1Z"/><path fill="#b36153" fill-opacity=".2" stroke="#b36153" stroke-opacity=".2" stroke-width=".5" d="M248.9 485q-.6 1-1.5 1.8L239 492q0-1-1.2-1.2c2.4-1 8.9-5.9 11-5.8Z"/><path fill="#bb6755" fill-opacity=".2" stroke="#bb6755" stroke-opacity=".2" stroke-width=".5" d="M93.8 267.9q0 .9-.8 1.5l-9.8 5.6v-2q.9 0 1.8-.5c2.3-1 6.6-4.3 8.8-4.6Z"/><path fill="#655958" fill-opacity=".1" d="M393 219h.9l.8.2.1 1.5-.8 1-1.3-1zm-.3 1.7.5 1.4q-1 .6-2 .9l-1.6-.3q1-2 3.1-2m-3 2 .2 1-.7.7-1.5-.7q.6-1 2-1m-2 1q0 .6.4 1.3-1.5 1-3.3 1a3 3 0 0 1 2.8-2.3m-2.9 2.3c.4 1.2-1.6 1.1-2.2 1q.7-1.5 2.2-1"/><path fill="#c07262" fill-opacity=".4" d="M171 420v1.2q-1.8 1.2-4.1 1.8c.3-1.5 2.8-2.4 4-3m-4.1 3q-.2.9-.8 1.4-2.4.9-4 2.6-.6-.8-1.3-1.3c1.6-.8 4.2-2.8 6.1-2.7"/><path fill="#adbbbf" fill-opacity=".7" d="m231.2 8-.2 1c-.2 1.3-3.2 2.2-4.3 1.8l2-1.9zm-4.5 2.8c.5 1.2-1.3 1.3-2 1a4 4 0 0 1 2-1m-2 1c.7 1.4-2.2 3.3-3.6 3-.1-1.5 2.6-2.1 3.5-3"/><path fill="#deb5ac" d="M312.8 158.9h1.2l-5.2 3.6-3.5 1.4-.1-.8c1.5-1 5.9-4.3 7.6-4.2"/><path fill="#b2c1c6" fill-opacity=".8" d="M306.2 30.5q3.1-1.2 5.2 1.6l-7.6-.2q.5-.8 1.4-.8z"/><path fill="#c37e70" d="m394.7 444.8.3 3q-2.3.8-4.5 2.1-.5-.9.4-1.6z"/><path fill="#a4b2b6" fill-opacity=".9" d="m280.4 7-6.6-1c1.4-2.2 5.4-1.2 6.6 1"/><path fill="#d9bcb6" fill-opacity=".9" d="M394.8 95.1v2l-4 1.6v-.5c.8-1.7 2.5-2.2 4-3"/><path fill="#d4aea6" d="m117.1 107 .1-2c.6-.5 3-2.2 3.6-1.5q-1.5 2-3.7 3.5"/><path fill="#cd493d" fill-opacity=".1" stroke="#cd493d" stroke-opacity=".1" stroke-width=".5" d="M412 150h.9c.3 1.4-2.8 2.2-3.6 3q-1.3 0-1.4-1.2z"/><path fill="#bea698" fill-opacity=".1" d="M382.6 227c.9 1.5-1.9 2.1-2.8 2.1q.6-2.1 2.8-2m-5.8 4.3q-.7.8-1.8.5.6-1.2 1.8-.5"/><path fill="#beced3" fill-opacity=".4" d="m198.4 33-.5.7-1.3.3q.6-1 1.8-1m113.5 22.2a5 5 0 0 1 2.8-2.9c2.3.7-2.2 3-2.8 3"/><path fill="#a26458" d="M165 270.8c-.8 1.8-2.4 3.9-4 1.4z"/><path fill="#b97062" d="m121 178-1 1.7q-1.6 0-2.8 1.3l.1-2z"/><path fill="#be6c5c" d="M372.4 80.4q2.3.1 4.5.5-.3.9-1.2 1.3-24.3 14.1-48.8 28l-6.9 4.4c-2.3.1-3.7 2.2-5.7 3.2q-.6.2-1-.4L348 95.5l23.1-13.9q.8-.6 1.3-1.3M117.3 186.9q-.3-3 0-5.9 1-1.2 2.6-1.3c2 .3 3.1-1 4.7-1.8q.6-1.5-1-1-1 1-2.6 1.1.3-.8 1.1-1.3 28.5-16.4 56.9-33.2.6-.3 1.4-.2.9.7-.3 1.2-1.5.5-2.7 1.4z"/><path fill="#fdb5bf" d="M281 179v1.3c0 1.3-2 1.5-3 2a6 6 0 0 1 3-3.3"/><path fill="#ac8782" fill-opacity=".3" stroke="#ac8782" stroke-opacity=".3" stroke-width=".5" d="M120 394.9c.3 1.3-2 2-2.7 3v-1.7a4 4 0 0 1 2.7-1.3Z"/><path fill="gray" fill-opacity=".1" d="M144.8 361.8q1 .2 1.3 1.2c-.8.4-3.1 2.1-3 0z"/><path fill="#bf6f5e" fill-opacity=".5" d="M179.9 415q-.3.7-.9 1 .2-.7.9-1m-.9 1a3 3 0 0 1-2 1.1q.6-1.5 2-1m-3 1.4 1-.3c-.2.3-1 1.2-1 .3"/><path fill="#cd4e3f" fill-opacity=".1" stroke="#cd4e3f" stroke-opacity=".1" stroke-width=".5" d="M132.6 68q1 0 1.4 1l-2 1h-.8q.2-1.5 1.4-2Z"/><path fill="#7d6966" fill-opacity=".2" stroke="#7d6966" stroke-opacity=".2" stroke-width=".5" d="m117.2 341.3 2-.5q-.3 1.7-2 2z"/><path fill="#875950" fill-opacity=".4" d="M129 444.2q0 2-2 1.8.6-1.3 2-1.9"/><path fill="#bfccd1" fill-opacity=".3" d="m275 47.2.3 1q-.9.9-2.2.9.4-1.5 1.9-1.9"/><path fill="#bcacaa" fill-opacity=".4" d="m256.7 42.4.2.8c.2.8-1.5 1.6-1.8.5q.4-1.1 1.6-1.4"/><path fill="#fdc7ce" d="m226 158 2.9.1q-.1.4-.6.7-1.9 1-2.4-.9"/><path fill="#d5bfc2" d="M287 158q1.3 0 2 1l-1.8.7q0-1-.2-1.7"/><path fill="#fdbac4" d="M262.8 173.3c.3.5-1.1 1.6-1.6 1.1q.2-1.5 1.6-1.1"/><path fill="#b2887e" fill-opacity=".4" d="M122 448.2q0 2-2 1.7a3 3 0 0 1 2-1.7"/><path fill="#ca9c93" d="m117.2 255 1.8-.3q-.2 1.5-1.7 1.4z"/><path fill="#deb3ab" fill-opacity=".4" d="M123.9 392.2q.5 1.4-1 1.8v-1.3z"/><path fill="#deb0a8" fill-opacity=".3" stroke="#deb0a8" stroke-opacity=".3" stroke-width=".5" d="M126.8 391q-.3 1.3-1.7 1 .5-1.2 1.7-1Z"/><path fill="#dcb1a7" fill-opacity=".4" d="M132 388q-.6 1.3-1.9 1 .5-1.1 1.8-1"/><path fill="#d29a8f" fill-opacity=".6" d="M134.9 386.1q-.6 1.1-1.9.6.9-.7 1.9-.6"/><path fill="#bc7c6e" fill-opacity=".9" d="M392 84.6q.9.4 1.2 1.5-.5.5-1.1.6l-.3-1q0-.6.3-1.1"/><path fill="#be6c5c" fill-opacity=".4" d="M174 419q-.5 1.2-1.8 1c-.3-1 1.2-1.1 1.8-1"/><path fill="#cd8e81" fill-opacity=".7" d="M141 437.3q-.1.6-.9.7.2-.7.9-.7m-.9.7q-.3 1-1.3.9.3-1 1.3-1"/><path fill="#b65" fill-opacity=".2" stroke="#b65" stroke-opacity=".2" stroke-width=".5" d="M83.3 153h.7q-.3.7-1 1z"/><path fill="#f4e6e4" fill-opacity=".9" d="m389.8 98.3-.7.5q.1-.5.7-.5"/><path fill="#bf6452" fill-opacity=".1" stroke="#bf6452" stroke-opacity=".1" stroke-width=".5" d="m256.7 42.4 1.7-.3-.1.6-1.4.5z"/><path fill="#995849" fill-opacity=".4" d="m428.8 355.7-.1 1.2-1-.2z"/><path fill="#bd6d5e" fill-opacity=".2" d="M312.3 40.8q-.4.9-1.2 1.3.3-.9 1.2-1.3"/><path fill="#cb877a" fill-opacity=".4" d="M133 386.7q0 1-1 1.3.2-.9 1-1.3"/><path fill="#b16353" fill-opacity=".4" d="m83.3 310 1 .3-1.1 1z"/><path fill="#bc776b" fill-opacity=".6" d="M264.2 39q-.5.8-1.5.8a2 2 0 0 1 1.5-.8"/><path fill="#bd7363" fill-opacity=".2" d="M128 389.7q0 1.1-1.2 1.3.5-.8 1.2-1.3"/><path fill="#fff" fill-opacity=".3" d="m387.7 223.7 1.5.7-1.1.6z"/><path fill="#bb6754" fill-opacity=".4" stroke="#bb6754" stroke-opacity=".4" stroke-width=".5" d="M435.8 62.9q1 .1 1.2 1.3-1-.3-1.2-1.3Z"/><path fill="#f9f1ef" fill-opacity=".8" d="M350 247.3q-.3.5-.8.6 0-.9.8-.6"/><path fill="#bc6953" fill-opacity=".1" d="M123 392.7v1.3q-.6 0-1-.3z"/><path fill="#817e7a" fill-opacity=".3" stroke="#817e7a" stroke-opacity=".3" stroke-width=".5" d="M117.3 241.2h.5q0 .6-.5.7z"/><path fill="#ae8076" d="m161.9 409.2 1.2-.2q-.4 1.3-1.2.2"/><path fill="#925448" fill-opacity=".6" d="M104.2 39.2a2 2 0 0 1-1.4.7q.5-.7 1.4-.7"/><path fill="#aa6052" fill-opacity=".4" stroke="#aa6052" stroke-opacity=".4" stroke-width=".5" d="M152.2 417.2q.6 0 .9.7h-1z"/><path fill="#bc6755" fill-opacity=".3" d="M174.9 418q-.2.7-.9 1 .2-.7.9-1"/><path fill="#fff" fill-opacity=".4" d="m389.6 222.7 1.7.3q-.5.6-1.4.7z"/><path fill="#8b979a" fill-opacity=".3" stroke="#8b979a" stroke-opacity=".3" stroke-width=".5" d="m288.3 36.3 1-.2q-.6.7-1.5 1z"/><path fill="#bd6855" fill-opacity=".2" stroke="#bd6855" stroke-opacity=".2" stroke-width=".5" d="M171 420h1.2a3 3 0 0 1-1.1 1.2z"/><path fill="#9d594c" fill-opacity=".5" d="M428.8 419.6v1.3l-.9-.2z"/><path fill="#7c8386" fill-opacity=".4" d="M196.2 34.2q-.3.8-1.2 1 0-1 1.2-1"/><path fill="#e2bdb3" fill-opacity=".3" stroke="#e2bdb3" stroke-opacity=".3" stroke-width=".5" d="M339.2 72.2v.7l-1.2.4q0-1.2 1.2-1.1Z"/><path fill="#d5a196" fill-opacity=".9" d="M148.2 433.2q-.3 1-1.3 1 .3-1 1.3-1"/><path fill="#d39d92" fill-opacity=".9" d="M127 434q-.3.6-1 .9 0-1 1-1"/><path fill="#c88172" fill-opacity=".7" d="M125.3 435q-.6.8-1.5 1 .3-1 1.5-1"/><path fill="#c88375" fill-opacity=".6" d="M145.3 435q-.4 1-1.4 1 .4-1 1.4-1"/><path fill="#d09488" fill-opacity=".7" d="M143 436q-.2 1-1.1 1 .2-.8 1-1"/><path fill="#cb897b" fill-opacity=".9" d="M122.1 436.8q-.3 1-1.4 1 .6-.6 1.4-1"/><path fill="#fff" fill-opacity=".2" d="m392.7 220.7 1.3 1-.8.4z"/><path fill="#cf9588" fill-opacity=".9" d="M119 439q-.3 1-1.2.8.2-.8 1.1-.9"/><path fill="#cb887c" fill-opacity=".6" d="M138.3 439.2q-.6.8-1.5.9.5-1 1.5-.9"/><path fill="#d39d91" fill-opacity=".8" d="M136 440.1q-.2 1-1.2 1 .3-.9 1.1-1"/><path fill="#c77e72" fill-opacity=".5" d="M133.3 442.2q-.7.6-1.6.8.7-.8 1.6-.8"/><path fill="#bed1d1" fill-opacity=".2" d="m306.2 30.5-1 .6q0-1 1-.6"/><path fill="#ce8d81" fill-opacity=".7" d="M131 443q-.3 1-1.2 1 .3-.9 1.2-1"/><path fill="#b6c7cc" fill-opacity=".4" stroke="#b6c7cc" stroke-opacity=".4" stroke-width=".5" d="M221.1 14.9a2 2 0 0 1-1 1.5q0-1.2 1-1.5Z"/><path fill="#c68070" fill-opacity=".5" d="M126.3 446q-.5 1-1.4 1 .3-1 1.4-1"/><path fill="#ce9082" fill-opacity=".7" d="M124 447.1q-.4 1-1.3 1 .5-.9 1.4-1"/><path fill="#a56050" fill-opacity=".2" stroke="#a56050" stroke-opacity=".2" stroke-width=".5" d="M439 76q1.2.3.2 1z"/><path fill="#c88475" fill-opacity=".6" d="M119.3 450.2q-.6.6-1.4.8.4-1 1.4-.8"/><path fill="#a37166" fill-opacity=".9" d="M394.8 218v1.2l-1-.2q.3-.8 1-1"/><path fill="#fedfe4" d="M253.9 207q.1-1 1-.5-.4.6-1 .5"/><path fill="#efe3e2" fill-opacity=".7" d="M110.8 468.7q1 .3 1.4 1.2l-1.5.3z"/><path fill="#bfcdd3" fill-opacity=".4" d="M240.6 5q1.2 0 1.6 1.1h-1z"/><path fill="#b66355" fill-opacity=".4" stroke="#b66355" stroke-opacity=".4" stroke-width=".5" d="M112.9 470.9q.7 0 1 1l-1-.2z"/><path fill="#a15b4e" fill-opacity=".4" d="m352.1 474.3 1.2-.1q-.6.7-1.6.8z"/><path fill="#b97567" fill-opacity=".3" d="M307.3 44a3 3 0 0 1-1.3 1q.3-1 1.3-1"/><path fill="#beced3" stroke="#beced3" stroke-width=".5" d="m240.6 5 .6 1A87 87 0 0 1 231 9l.2-1c3.2-1 5.7-4.2 9.4-3Zm42.7 17.9c-2.7-.6-20.6 15.5-24.3 17.6q-.9.6-.6 1.6l-1.7.2q-1.2.3-1.6 1.4c.3 1 2 .3 1.8-.5l1.4-.5q2-1.8 4.4-2.9 1 0 1.5-.8c6.8-2.8 13.6-7.6 20-11q.3 3.6 0 7.3c.9 1.1 2.9.5 4.1 1l-.5.8c-1.9 1.3-11.7 8-11.6 10l-1.2.1q-1.5.4-2 1.9l-2 .6q-1.7 1.2.3 1.2 1.2-.6 1.8-1.8 1.3 0 2.2-1l1-.5c3.7-2.5 16.5-8.7 18.7-11.4 2 .2 13.5 1.1 14 2.6L298 48c-1.1.5-3.5 1.8-3 3.4l4.3-.8q4.5-2.3 8.9-5 1-1.2 1.7-2.9.3-.7 1.2-.6.8-.4 1.2-1.3c8 5.4 9.4 31 1.6 37.6-10 8.6-35.7 3.7-48.2 4.3 1-2.5 10-7.8 10.2-9.2q-.5-.6-1.2-.1c-2.3 1.3-15.1 8-15.7 9.5l-16.8.5c0-2.5 9.7-7.5 9.8-9.6 0-1 3.3-1.7 4-2.5q2.3-2.2 5-3.7 1.5-1.4-.4-1.1a12 12 0 0 0-4.1 2.6L231 83.7q-7 .3-14-.7c.9-2.3 9-7.5 11-9.7q5.6-4.5 11.3-8.5.5-.5.5-1.3-8.4 4.5-16.7 9.4-3.8 1-7.4 2.6-.5.7-.6 1.8l-2.8 1.6q-.4.6-.5 1.4L211 82c-4.2-1.2-9-2.6-12-6q14.1-10.5 28.1-21.4.8-.4.9-1.1a2 2 0 0 0-2 .2q-15.4 9-31 17.6-2.7-6-2.4-12.5c1.6-11.7 1.4-23.7 16.6-22.6l-1.8 1.7c-.1.6-3.1 4-1.7 4q0 .4-.3.7a5 5 0 0 0-3 3.1q-.4 1.3 1 1c1.6-1.3 12.3-6.8 12.5-7.9q2.3 0 2-2.1c11.8 0 10-7.6 10.8-16.5 1.5-8.8 5.6-9.7 13.6-9.4q-1.5 2.8-3.8 5.2-.5.5 0 1 4.5-2.2 8.5-4.6.6-.6.7-1.5c11.7-1.1 30.6-1.4 35.6 12ZM208 32.3l-10.1 1.4.5-.6c1-1.6 9.3-5 9.6-.8Zm103.9 23c.6 0 5.1-2.3 2.8-3a5 5 0 0 0-2.8 3Z"/><path fill="#bb6756" stroke="#bb6756" stroke-width=".5" d="m345 50-11.7 7.3c-.6-5.7 5.6-6.4 9.5-8.1q1.5-.6 2.2.8Zm86 77.7c0 3.4.4 8.4-1 11.5a22 22 0 0 0-5 2.5l-13 8.2-4.7 2.3V141c3.6-1 19.4-10.8 23.8-13.3Zm-2 93q0 5.3-.3 10.4l-10 6q-1 .7-1.7 1.6c-2.9.5-4 2-6.4 3.4-1.1 1-1.2 3.4-3.3 2.8v-12c3.8-1.2 17.3-9.6 21.6-12.2Zm-324.3 29.1c-.3 2.6 1 10.3-.8 12a27 27 0 0 0-10 6.1c-2.3.3-6.6 3.5-9 4.6q-.8.5-1.7.6-.4-5.3-.2-10.4c2.3.2 18.7-11 21.7-12.9Zm-.7 65.5q.9.3.7 1.2c-.3 2.6 1 8.6-1 10.5q-1.6 0-2.7 1.5l-17.8 9.8q-.4-5.3 0-10.6c1.6.3 18.3-10.8 20.9-12.4Z"/><path fill="#262626" stroke="#262626" stroke-width=".5" d="m273.8 6 6.5 1a33 33 0 0 1 11.2 6c7 5 3.8 17.7 5.3 18.6q3.4.5 7 .3l7.6.2q8.2 1.2 15.1 5.8c33.4 4 75.7-11 104.1 12 2.4 1.8 4 10 5.2 13q.2 1 1.2 1.3l-.1.8q-.2 1.6.3 3.3l2 8.8c11 60.2-3.3 121.7 2.3 182.5v172.9c3.9 31.3-1 73.9-41 75.7h-255c-30 3.6-74.7 1.2-75-39V80q1.5-32 32.3-40 .8-.1 1.4-.8c18.6-2.8 37.5-2.6 56.3-1.3 10.7-.3 22.4 2.1 32.4-1.6l1.3-1h.8q.9-.3 1.2-1.1l.4-.2q.7 0 1.3-.3l10-1.4c1.4-.6 7.2.3 7.7-1q-1.2-8.5 4.6-14.9a2 2 0 0 0 1-1.5c1.3.2 4.2-1.7 3.4-3.2.8.4 2.6.3 2-1 1.2.5 4.3-.4 4.4-1.7a87 87 0 0 0 10.2-3l1 .1c7-1.7 25.4-2.7 31.6-.2Zm-26 5q-2.8-.8-5.5-.2c-8-.3-12 .6-13.5 9.4-1 8.9 1 16.5-10.9 16.5l-8.7-.5c-15.2-1-15 11-16.6 22.6q-.3 6.6 2.4 12.5 1.3 3 4 4.8c3 3.4 7.8 4.7 12 5.9q3 .7 6 1a86 86 0 0 0 18 .6q3.5.3 7.2-.2l23.5-.7c12.5-.6 38.2 4.3 48.2-4.3 7.8-6.6 6.4-32.2-1.6-37.6q-1.3-1.5-3.4-2c-.4-1.4-12-2.4-13.9-2.6l-5.8-.1-.9.2c-1.2-.5-3.2.1-4-1V28q0-2.6-1-5c-5-13.4-23.9-13.1-35.6-12Zm-164 62.4q-.6 1.7.1 3.3c-1 4.2-.4 10.2-.6 14.5v4.6a215 215 0 0 0-.2 16q-.3 5.7 0 11.5a73 73 0 0 0 0 29.7l-.2 1v18.7q-.1 5.2.1 10.3l-.2 1.1q0 3 .2 5.7a389 389 0 0 0 0 24.2v5a2377 2377 0 0 1 .1 43.7 81 81 0 0 0 .2 12.3 805 805 0 0 0 .1 35l-.1 1.3v16.5a65 65 0 0 0 .2 13 398 398 0 0 0-.1 26.8q-.4 6 0 11.7a15 15 0 0 0 0 5.5q-.3 5.8-.1 11.5-.2 4.3 0 8.5-.3 5.8.1 11.5-.3 1.8 0 3.5a74 74 0 0 0 0 12 62 62 0 0 0 0 10.5q-.4 2.3-.1 4.4c0 2.9-.7 8 .4 10.7-.7.7.4 1.5 1 2-.5 1.2-1.7 1-1.5 3a62 62 0 0 0 .7 11.6q1 5 4.1 9.2a14 14 0 0 0 2.8 2.7c8.3 8.2 21.2 11.6 32.6 13q2.6 1 5.4 1a119 119 0 0 0 20 1.1q8.7.4 17.6 0 6.8.2 13.4-.3c4.3 0 15.7-.3 19.1-1.5q.6 1 1.7.7 3-.1 6-.8 9.9 0 19.6-1.4 1.8.3 3.7 0 10.2-.2 20.4-.8 6.9 0 13.7.2l1.1-.2c5.8.3 11.2 1.6 17 1.3q6.9-.7 13.8-1l17.4.6 11.5 1q8.3.8 16.5 1.1 6.7 1.2 13.7 1.2l1.2-.1q7.5 1.1 15 .6 3.5.4 6.6.1c5.6-.5 16.4-.5 21.1-3.5q.5 1 1.6.7c1.4-.7 5.8-1.3 6.4-2.7q.6 0 1-.3c17-6 22.1-21.4 21.2-38.3l-.2-6.4q.3-6.2 0-12.5.3-3.3.1-6.5.1-5.7-.1-11.3v-1.3q.3-2.7.1-5.4.1-6.2-.2-12.5.4-3.8.1-7.5a97 97 0 0 0 0-13.2q.3-5 0-10.3v-3.4q.3-5.3-.1-10.4l.1-1.2q.3-3.1 0-6.4.4-6-.1-12 .4-5.4.1-10.6.3-2.3 0-4.4a2083 2083 0 0 0 0-50 117 117 0 0 0 0-13q.3-5.8 0-11.6.3-2.2 0-4.4a63 63 0 0 0-.1-12.2 81 81 0 0 0 .1-13.8c-.2-.2-1.1-11.8-1.7-10v-19.5c0-1.2 1.1-6 0-6.6 1.3-3.3 1-8 1-11.4q.5-2.7.7-5.3.4-1-.8-1.1c1.6-4.6 1.9-17 2.3-22.4l-.3-1.8c1.4-3.1 1-8.1 1-11.5q.2-1.8 0-3.4.6-4.9.6-9.8.2-.9-.6-1.3c.7-1 .7-3.2-1-2.2q.9-.7 1.5-1.7 0-4.6-.3-9.4l-.3-4.7a83 83 0 0 0-3.7-20q-.6-4.6-2.8-8.5c-.6-1-.9-3.2-2.3-3.4-.3-2.8-3.2-5.6-5-7.6-1.8-1.3-3.8-4-6.2-3.6.4-1.7-5.8-2.9-7-3.4q-12-2.1-24.2-.6c-1.6-1.3-7-.6-9-.2q-.3-.7-1.2-.6-8.8 0-17.7.6a6 6 0 0 0-3.8.2q0-.5-.6-.7c-3.6.3-13.9-.6-16.7.7q-.6.6-.4 1.4l.7 8.6-.1 1-.1.9q0 5.7-.9 11.5c.7 1.1 2.3.8 3.4.8-.2 1 4 .5 4.6 1l1.2-.3c7.4-.3 39.8-2 44.6-3.7 1.3 2.4 4.2 1.7 6.5 1.8q0 .5.4.6 5.7 1.2 10.4 4.6 1.2 1.3 2.7 1.9c1.1 3 4 5.3 3.6 9a2539 2539 0 0 0 0 53.8v39.9a393 393 0 0 0 0 18v12.3c.2 1.3-.7 6 .6 6.6-1.2 2.9-.4 9.2-.6 12.5v2.5a304 304 0 0 0 .3 23.5q-.5 1.8-.2 3.6l-.2 9.6a2 2 0 0 0 .6 1.7q-.6 1-.1 2c-.8 3.5-.3 8.2-.4 12v2.7a186 186 0 0 0 0 15v36c.3 2-.9 10.1.7 11.4-1.6 1.7-.4 10.4-.7 13 .1.8-.6 4.3.5 4.5-1.1 3.6-.4 9.6-.4 13.4v1.6q-.3 5.6 0 11.2a276 276 0 0 0-.1 20 124 124 0 0 0 .7 17.8c-.5 3.9.2 11.2 0 15.5l-.2 2.7c-1.4 16.2-5.4 24.5-22.9 24.9h-1q-.5-.7-1.5-.6a844 844 0 0 0-29-.1l-1.3.1a490 490 0 0 0-30.8 0 682 682 0 0 0-33 0q-22.2-.5-44.6 0h-1.3l-29.2-1a392 392 0 0 0-50 2c-16.7.6-33.8 4.7-49.4-3.5a1 1 0 0 0-.9-1q0-.5-.7-.9-.5-.9-1.5-1.2l.2-.8q-.6-1-1-2.1-1.7-2.4-2.8-5.1-.4-1.4-1.1-2.5l-2-10.4.1-1.8-1-11.2-.1-3.6q.3-5.7 0-11.3a119 119 0 0 0 .7-15.7l1-12.4v-7.7a220 220 0 0 0 0-17 251 251 0 0 0 0-18c-.5-3.6 1-20.2-1-22.1 2-2 .7-8 1-10.5q.2-.9-.7-1.2c.8-1 .9-3.4-1-2.5q1.5-.6 1.7-2.3c-.3-1.9.6-8.7-.5-9.8q.7-.8-.2-1.5c1.3-3.4.6-8.8.6-12.4V283l.1-19.3a2 2 0 0 0-.8-2c1.7-1.7.5-9.4.8-12v-44c-.1-.9.5-3.3-.6-3.7 1.2-3.2.4-8.9.6-12.4v-13.9q.3-2-.4-4c1-3 .2-9.4.4-13q.1-.5-.3-.8c.6-4.1.5-9.2 0-13.4q.5-1.4 0-2.7c.4-1.6.8-12.3 0-13.1q0-1.5-1.5-.9a3 3 0 0 0 1.8-2.4v-11q.2-.9-.7-1.3.6-1.6-1-1.3 1.5-.8 1.7-2.4.1-6.8-.1-13.4c-.6-20.6 9.2-22.2 26.6-26.2h.8q.7 1 1.6.9c14.8-.1 29.6 3 44.3 1.6q2.8-.5 3.8-3-.6-6.3-.7-12.7c.4-1 1-3.9-1-2.7q1.4-1.5 2-3.5.5-1.5-.5-2.6-6.2.1-12.5.8-5.4-.6-11-.8l-1 .3q-8.5-1.3-17-1.3-4.3-.7-8.7-.7c-8.4-.2-17.7-.6-24.9 4.5q-.6.2-1.2-.1 1.7-1.6-.6-1.6C94.9 51.8 83.5 63 83.9 73.4Zm33.3 31.6v2q-.2 6.1.2 12.2-.4 1.8 0 3.8-.4 11 0 22-.4 2.5-.1 5-.3 5.4 0 11-.2 1.6-.1 3.3v3.5a124 124 0 0 0 0 13.2v6a106 106 0 0 0 .1 13q-.4 5.1 0 10.1-.5 3.4 0 7-.4 5 0 10-.3 2 0 3.8a60 60 0 0 0 0 11q-.3 1.5-.1 3V255l.1 1q-.4 5.1-.1 10.1-.3 3 0 5.9a112 112 0 0 0 .1 15 96 96 0 0 0-.1 11q-.4 3.5.2 6.8-.5 5.1-.3 10.2v2l.2 9.2v2.8a103 103 0 0 0 0 13.7 99 99 0 0 0 0 12.2 63 63 0 0 0 0 13 90 90 0 0 0-.2 10.3v1.7q0 5.6.2 11.1-.3 2.6 0 5.2v1.6q-.4 5.1 0 10.2v27q-.2 1.2-.1 2.2.3 1.5-.4 2.8c.7 2.8.2 8 .3 11.1l.2 6c0 3.3 1.5 7.4 5.6 7.1q.7.9 1.9.6l8-.1H154l17-.2 10 .2a542 542 0 0 1 25 0h17q2.5.2 5-.4a8 8 0 0 0 3.8.4H292a589 589 0 0 1 43 0h17c4-.2 9 .4 12.8-.3l17.5.6q3 .8 5.8.2c8.8-.5 7.4-11.3 7-17.4l-.4-3a144 144 0 0 0 .2-17.7q.2-11-.1-22.1.3-3.5 0-7 .3-5.5 0-11.1.3-2.5 0-5a192 192 0 0 0 0-15.8q.3-5 0-10.3.3-2 0-4 .3-5.4 0-10.8.3-2.5 0-5a123 123 0 0 0 0-11.9 76 76 0 0 0-.1-14.4v-.5a101 101 0 0 0 0-13.4l.2-2.6V232a148 148 0 0 0 0-12.7V218a153 153 0 0 0 0-12.7 73 73 0 0 0 0-11.3 165 165 0 0 0 0-14 95 95 0 0 0-.1-12.8 83 83 0 0 0 0-10.1v-1q.3-5 .1-10.1v-18q.2-2.6-.2-5 .4-5.1 0-10.2.4-3 .1-5.8.3-5 .1-10v-1.9c-.3-2.3 1.2-8-1.6-9q-.3-1-1.1-1.5t-1.8-.5c-1.7-2.4-10.5-3.6-13.4-3.2l-4.5-.6q-9.8 0-19.4 1-7 .3-14 1c-7 .4-14.2-1.7-21 1a523 523 0 0 1-32.2 5 46 46 0 0 0-9.9.6c-7 .3-15.1-.2-22 1q-.6-.6-1.4-.5l-8.4-.2-22-.5C210.8 87 200 86.4 189 82.8c-1.7-1.7-5-.9-7-.7l-19-.1q-1.8-.7-4-.7c-11.7-.3-31.9-3.8-41.4 4.7-1 2.4-.3 15.5-.4 19ZM273 126q.7 1 1.8 1.8a18 18 0 0 1 5.3 12.7l-.2 8q.6 1 1.6 1c10.8-.4 23.7-.5 23.8 13.6l.1.8c1.9 12.9-2.3 26.2-16.8 28.2q-4.4.3-8.7.2c-1 .6.5 3.2.1 4.2 1.7 20.8-16.4 21.2-31.4 21.4q-15.1-1.2-16.5-16.4-.1-4.6.3-9.3l-7.8.6c-24.5-1-25.4-39.1-1-43.8l8.8-.1q-.3-3.6-.3-7.4c2.4-19.5 17.5-17.7 32.5-17.8 3.4 0 5.4 1 8.4 2.3Zm-27.1 19q-.5 1.8-.5 3.8c-1.6 8.6-9 9.3-16.4 9.3l-3-.2c-1.3.2-5-1-5.5 1q-1.4 7-1.3 14.2-.1 2.7 1 5 3.3 6.6 10.8 6 5.1.5 10.1-.4c3.5 2.3 4.3 5.4 5 9.3q-.6 3-.6 6c-1 4.3-.2 9 4.6 10l2.9.7h8.5c3.3-.2 5.2.2 5-3.8.7-11.4-2.5-20.4 11.6-22.7l13.2.4c1.1-.6 1.2-8 1.5-9.6q.4-2.6.3-5c0-3-.1-9.5-4-10q-.7-1-2-1-6 .2-11.8-.3c-2.1-.8-8-1.8-8.3-4.6l.1-4.2c.1-3.3.7-8.9-.9-11.9q-.3-1.2-1.3-2.3c-4.1-4-12.9-3.3-18.2-2.6q-1.2 1-1 2.5zm-61 113.3q-.3 0-.5.3l-3 5.4c-5 7.5-16.6 25.7-27.3 17.9q-1-1.9-3-3.2-1-1.5-2.4-2.7-1.3-3 1.7-4.3a11 11 0 0 1 10.8.5c1.5 2.5 3.1.4 3.8-1.5 6.6-7.6 11-17.2 18.4-24q.7.3.8-.5 1.4-.3 2.6-1c1.4-.6 6.3.2 6 2.2l-4.8 6a34 34 0 0 0-3 5Zm166 1.7q2.5.9 5 .8c6.3 1.4 10.1 5.2 1.7 8.1-5.9-.2-11.6-1-17.4 0a9 9 0 0 0-5 0c-35.6-.2-72 3.2-107.4-.3-5.8-.5-16-4-5-8.5q8.8.8 17.8.5c36.6-.6 73.9-3 110.4-.6Zm-191.6 93.4c-3.4-.6-6-3.1-8.3-5.6q-.4-1.2-1.6-1.7c-3.8-10.8 5.3-11.6 11.7-5.7q.6.3 1.3.3l12.6-17.2c3-3.3 10.8-15.3 16-12 1.2 1.7 2.5 4.6 1.6 6.5-10 8.3-18.5 37.3-33.3 35.4ZM313 329q11 .6 21.9.4 2.4.3 5 .3l22.2-.6q1 1.1 2.3 2c-.5 2.8-6 3-8.3 4.1-1 0-6.6-.1-7 .5q-11.5 1.5-23.2 1.6-2.9 0-5.7.5c-30.6.4-61.2.7-91.7-1.9a86 86 0 0 1-11.7-2v-1.7c32.4-6.4 63.5-3.9 96.1-3.2Zm-126.2 65.2a10 10 0 0 0-1.8 3.6c-6 4.5-19 27.8-28 22.9l-4.8-3.5q-.2-.9-1-1.3l-3.2-4.4c-.8-6.3 10.3-6.7 13.9-2.3q.8 1.1 1.2-.2c8-7.2 15.5-29.4 28.3-28 3 2-3.2 11-4.6 13.2Zm32.2 7q16.1-3.8 32.5-2.8c33.5 0 67.6-2.3 101-.3 1.8.4 11.7.6 7.5 4.2q-2.1 1.2-4.5 1.7c-43.5.2-87.5 1.2-131-1.2-1.4-.4-4.7-.2-5.5-1.7Z"/><path fill="#6d5b57" fill-opacity=".5" d="m122.9 464.2 2.2-.2-.3.8q-1.2.3-2-.6"/><path fill="#be6c5c" fill-opacity=".9" d="M151.2 415.9q.8.4 1 1.3v.8a36 36 0 0 1-10.2 6.3q-.6-.4-1.3-.2-2 1.3-4.2 2.1-5.1 3.3-10.4 6.3-2.3 1.2-4.5 2.9a20 20 0 0 1-4.4 1.8v-2.1c11.5-5.8 22.7-13 34-19.2"/><path fill="#bb6555" fill-opacity=".2" stroke="#bb6555" stroke-opacity=".2" stroke-width=".5" d="M142 424.3q-.3.8-1 1.2l-14 8.5q-.3-.9-1-1.5 5.4-3 10.5-6.3 2.3-.8 4.2-2 .8-.3 1.3 0Zm266.2 70.9-.4.7-1 .3q.4-1 1.4-1Z"/><path fill="#d3a59c" d="M149.3 346.1q1.2.5 1.6 1.7c-2.3.2-5.6 2.8-7.8 3.7l-.2-.7c.2-1.2 5.4-3.2 6.4-4.7"/><path fill="#ba6756" fill-opacity=".5" d="M436.9 65c1.8 0 1.4 2.6.3 3.3q-.4-1.6-.3-3.3"/><path fill="#becbd0" fill-opacity=".5" d="M273 49q-.5 1.3-1.7 2-2-.1-.3-1.3z"/><path fill="#bc6857" stroke="#bc6857" stroke-width=".5" d="M216 38.8c-.3 1.2-11 6.7-12.7 7.8q-1.3.4-.8-.9a5 5 0 0 1 2.9-3q.5-.4.3-.8c4-.6 4.9-4 10.3-3Zm-84.7 7.4-19 17.3q.4.4 1 .2c5-4.8 19.1-11.3 25.8-15.2q.9-.6.9-1.6 8.5 0 17 1.3l-.2.6q-12 9.7-24.2 19.1-1.2.7-1.4 2c-17.4 4-27.2 5.6-26.6 26.2-1.7-.6-5.2 2.3-6.4 3.4q-7.5 4.2-15 8.8l.1-12.5q1.5-.5 2.6-1.5l19.8-15.7q-.3-.5-1-.3L99 81.5c-4.6 3-11.8 6-15.6 9.7.2-4.3-.5-10.3.6-14.5l1.5-.7 8.1-7.4c-1.5-.7-1.9.8-3 1.4a64 64 0 0 1-6.7 3.4c-.4-10.5 11-21.6 20.7-24.4q2.3 0 .6 1.6.6.3 1.2 0c7.2-5 16.5-4.6 24.9-4.4Zm216.7 2q-1.5.7-3 1.7-.8-1.2-2.2-.7c-3.9 1.7-10 2.4-9.5 8l-1.6 1-.7-.1-.7-8.6q-.2-.8.4-1.4c2.8-1.3 13-.4 16.7-.7q.6.2.6.7Zm22.7-.3-36.3 23a2 2 0 0 0-1 1.3c-1.2 0-2.8.4-3.4-.7q.7-5.7.8-11.5c3.9-.3 15.4-8.6 20-10.6a2 2 0 0 0 1-1.5q9-.6 17.7-.6.9-.2 1.2.6Zm40.2 4.2-27.2 17.2c-4.8 1.8-37.2 3.4-44.6 3.7v-.8q20.2-11.1 40-22.7.8-.5.6-1.5 12.2-1.4 24.2.7c1.2.5 7.5 1.7 7 3.4Zm-231 2q-.7 0-1.6.7L162.5 66l-.3.8q-2.1.2-3 1.9c.9 1 2.6-1 3-2h1.8q8.4-5.2 17-10 .1 6.3.7 12.7-1 2.5-3.8 3c-14.7 1.4-29.5-1.7-44.3-1.6q-1 0-1.6-.8l2-1 35-20.3q6.3-.7 12.5-.8 1 1.1.5 2.6-.6 2-2 3.5Zm216-4.2q-2 .3-2.9 2.1-1.2-.2-2 .7c.6 1 2.2.3 2-.7q2.3 0 3-2.1c.5.3 2.7-.2 1.5-1q-1 0-1.6 1ZM199 76a10 10 0 0 1-4-4.8q15.7-8.6 31-17.6a2 2 0 0 1 2-.2q-.2.7-.9 1-14 11-28 21.5Zm218-20.4c1.9 2 4.8 4.8 5.1 7.6-5 2.6-15.8 9.5-21 13a27 27 0 0 0-10.5-4.6q-.4-.2-.4-.6 13.5-7.5 26.8-15.4Zm-165 18-2 .8-14.1 8q-.7.3-1 1.1-2 .3-3.9 0L256.5 69a12 12 0 0 1 4-2.6q2.1-.2.6 1-2.9 1.5-5.1 3.8c-.7.8-4 1.4-4 2.5Zm13.7 9q-3.4.3-6.7.2c.6-1.5 13.4-8.2 15.7-9.5q.8-.5 1.2 0c-.2 1.5-9.2 6.8-10.2 9.3Zm161.5-7.5a83 83 0 0 1 3.7 20c-7.6 4.4-17.2 9.3-23.6 15v-23c3.5.2 11.5-4 12.8-7.6zm-268.1 6.1q2 0 4 .7-.5.8-1.2 1.3-5.1 3-10.4 5.7-.3-.9.6-1.5zm194 0q-38.2 22.6-76.8 44.4a3 3 0 0 0-1.6 2.1 6 6 0 0 1-1.8-1.8q33-22 66.2-43.7 7-.7 14-1Zm-171.2.8c2-.1 5.3-1 7 .7q-.6.8-1.3 1.2A707 707 0 0 0 163 98.5q-1 .5-1.8-.1 10.4-8 20.6-16.3Zm104 6.3 1 1.1q-30.1 17.8-60.6 35.2l-6.3 4q-.9.6-1.8-.2Q247.2 109 276 89a46 46 0 0 1 10-.5Zm-63.8.3 2 .2q-.5.9-1.4 1.5-16.8 9.5-33.4 19.3-.6.2-1-.3 14-9.6 27.7-19.9.6-.5 1.4-.5 2.4.5 4.7-.3Zm22 .5 8.4.2q.8-.2 1.4.6c-2 0-1.7 1.5-3.1 2.3l-53.5 31.3q-2.2.2-.4-1.2c15.8-10.4 31.9-22 47.2-33.2Zm187 10.7q.6 4.8.4 9.4-.5 1-1.6 1.7c-6.6 3.8-16.8 9.5-22.5 14.1q-.3-6 0-12.3c1.8.7 20.5-11.6 23.8-12.9Zm-36.4 7q.3 3 0 5.9-.9 0-1.8.5L314 159l-1-.1c1-2.2 8.2-5.3 10.5-7q35.5-22.7 71.4-45Zm-290.6 6.3q.7.4.7 1.3v11a3 3 0 0 1-2 2.4q-10 5.4-19.7 11.3v-11.4c1.6-.2 19.7-13 21-14.6Zm327 0q.6.4.5 1.3 0 4.9-.6 9.8c-2.4-.2-20.4 11.9-23.6 14q-.3-5.8 0-11.6 12-6.5 23.6-13.5Zm-36.5 9.8q.4 2.4.2 5l-72 41.2c-1.5 1.1-1.7 1.9-3.8 1.8l-.1-.6q37.8-24 75.7-47.4Zm-277.3 27q-.3-2.5 0-5l27.2-16q1-.8 2.4-.5-14.7 10.9-29.6 21.5Zm-13-21.2c.9.8.5 11.5 0 13-3.9 1-15.9 9-20.3 11.2h-.7q-.5-5.7-.2-11.3 1 .5 2 0zm37.6 21-1.2.5c-7.4 4.4-16.6 9.1-23.5 14q-.1-1.6.1-3.3c16.9-9.9 34.2-19.2 50.7-29.6q.9-.4 1.8.3l-21.8 15q-1 .7-2.4.7c-.7 1.9-2.1 1.7-3.6 2.5Zm252.8-11.6q.3 3.9.1 7.7-47 26.9-93.8 54-.7-.7-1.6-1 47.8-30.2 95.3-60.7Zm35.6 2.8c-.4 5.4-.7 17.7-2.3 22.3a106 106 0 0 0-20.6 12.8q-.2-12-.1-24l.6-.3q0 1.3 1.4 1.1c.8-.7 3.8-1.5 3.6-2.9q1 0 2.1-.5 7.5-4.5 15.3-8.5Zm-325.8 3.6a60 60 0 0 1-.1 13.4c-3.8.7-16.7 9.3-21.3 11.4l-.2-11.5q1.1.4 2.1-.2zm.2 14.3c-.2 3.5.6 9.8-.4 13-4.7 1.5-15.2 8.5-20.3 11h-1q-.3-5 0-10.2a212 212 0 0 0 21.6-13.8Zm290 8.2q.3 1.4 0 2.7l-3 1.4-17.7 10.4q-1 .5-2 .7l-.2-1q11.5-6.9 22.9-14.1ZM188 169.8l.1.9-71 46.3q-.3-3.5 0-6.9 34.5-19.7 68.9-39.6 1-.6 2-.7Zm240 0c0 3.5.3 8-1 11.4-2.4 0-16.8 10.1-19.8 12V181c2 .6 17.6-9.8 20.8-11.1Zm-323.4 6v13.4a2 2 0 0 0-1.8.1l-9 5.2q-.7.8-1.5 1.3A97 97 0 0 0 83 201q0-5.7.2-11.3c1.5 0 20-12 21.6-14Zm290 4.1.1 3.1q-20.2 12.2-40.8 23.6l-.3-.3q.4-1 1.3-1.7zm32.3 7.9.2 11.2c-2.6 0-17.6 10-19.9 12.2V199q10-5.2 19.7-11.1Zm-322.3 1.8c-.2 3.6.6 9.3-.6 12.5-2.9.6-17.6 10-21.2 11.9v-11q1.2 0 2-.7l10.4-6.5c2-1.2 8.3-4.5 9.4-6.2Zm12.6 41.3q-.3-1.8 0-3.8 1.3-.2 2.4-.8 24-13.5 47.3-28 1-.2 1.8.4 0 .6-.7.7l-4.2 1.9a10 10 0 0 1-5 3.2 8 8 0 0 1-4 2.7zm-.1 14v-3q.8 0 .6-.7c1.5-.8 3.3-2.4 5.2-2.7l54-32.2q1-.4 1.8.2c0 1-3.4 1.8-4.2 2.5l-1.5 1.4zm310-37.6c.5-1.8 1.5 9.8 1.7 10-2.5.3-18.4 10.7-21.6 13 .2-3.3-.6-9.6.6-12.5 2.5 0 16-8.8 19.2-10.5Zm-231 13.6h.9q-.6 1.3-1.8 1.9l-78 49.2q-.4-3-.1-5.9 39.6-22.4 79-45.2Zm198.5 11q.3 3 0 6l-38.9 22.9q-2.5 0-5-.8 2.2-2.2 5-3.7 19.2-12.5 39-24.4Zm34 1q.5 5.3.1 10.4a252 252 0 0 0-21.2 13q-.4-5.7-.3-11.4c2 .6 2.2-1.8 3.3-2.8 2.3-1.3 3.5-2.9 6.4-3.4 1.9.7 4.1-1.7 5.6-2.7zm-324 1v12.2L83 258.3v-10.6c2.5-.9 19.5-11.5 21.7-13.8Zm76.6 30.1 3-5.4q.2-.4.5-.3 1.5-.3 3-1.1l17.2-9.9 19.7-12.1q1-.3 2 .2l-43.7 28q-.7.4-1.7.6Zm-2.4-17.4q1.2.3 1.3 1.3l-58.7 37a17 17 0 0 1-4.2 2.2q-.4-2.5-.2-5 31-17.4 61.8-35.5Zm249.9 1.1q.3 5.8 0 11.6-.9-.6-1.9 0-9.6 5.8-19.1 12a2 2 0 0 1-.6-1.8l.2-9.6c4.2-1.5 16.8-9.3 21.4-12.2Zm-325 14.2q1 .6 1 1.9l-.1 19.3L83 295.2l.2-20.2 9.8-5.6q.8-.6.8-1.5a27 27 0 0 1 10-6Zm325-.3q.3 5.2 0 10.6c-2 0-18.5 11-21.5 13 .1-3.8-.4-8.5.4-12 4.8-1.5 15.9-9 21.1-11.6ZM335 269q2.6-.7 5 0a3 3 0 0 1-1.3 1.5q-12 6.7-24 13.7l-15.7 9.5q-1 .4-1.8-.1l34.2-21.7q2-1.2 3.6-2.9Zm93.7 6.9q.4 5.8.2 11.5c-1.9-.8-16.4 9.7-19.2 11l-2.3 1.9q-.3-6.2 0-12.3a125 125 0 0 0 21.3-12.1Zm-277.6 3q1.8 1.2 3 3l-35.2 22.5q-.7.4-1.5.5-.6-3.3-.2-6.7a986 986 0 0 1 33.9-19.4Zm-46.5 8c0 3.6.7 9-.5 12.4-5.6 2-14.6 7.8-19.9 11.1l-.9-.2q-.6-5.2 0-10.5c1.9.4 18.6-11 21.3-12.8Zm324.3 4v31.5c-4.5 2.4-19 11-21.6 13.9v-33.4a473 473 0 0 0 21.6-12Zm-324.7 10c1.1 1 .3 7.8.5 9.6q-.1 1.8-1.7 2.4-10.2 5.5-20 11.5l.1-11.5q1 .4 2 0zm13 28.2.1-2.8q1.5-.2 2.7-.8l37-21.9c.6-.2 2.1-.5 1.7.6q-.8.8-2 1.4l-2.9.7c-1.4 1.7-1.8 2.7-4.2 2.9a11 11 0 0 1-4.7 3l-26 16.2q-.7.6-1.6.7Zm308.5-15.8q.9-.2 1.3-.8-1-.3-1.3.8Zm-3 1.8q.8 0 1.2-.6-.8-.3-1.2.6Zm-319 12c2 2 .5 18.5 1 22.1q-10.9 5.9-21.5 12.1-.1-10.2.2-20.4 8.3-5.2 16.7-10.2a2 2 0 0 0 .9-2q1-1.6 2.8-1.6Zm325.1-.4q.3 5.4-.1 10.6c-5 2-7.4 3.2-10.5 7.5l-10.1 5.6c-1.7-1.3-.5-9.3-.8-11.5q10.8-6 21.5-12.2Zm-72.7 8.6q-.6.9-1.8 1.5a957 957 0 0 0-30.3 17.9l-1.5.3q-2 1.5-4.2 2.8a1 1 0 0 1-1.1-.3l31.7-20.1c.6-.3 1.5-1.4.3-1.6.3-.6 6-.5 7-.5Zm38.7.9q.2 2.4-.1 4.9l-61.4 35.7a1 1 0 0 1-1.1-.3q31.1-20.3 62.6-40.3Zm-68.9 1.2q0 .5-.5.7l-13.4 7.5q-7.5 4.4-15 9.2-1 .5-1.8-.3l4.5-3.2q9.6-5.4 18.7-11.4a4 4 0 0 0 1.8-2q3-.5 5.7-.5Zm-124.8 5.4q1 .2 1 1.1-33.4 21.3-67.2 42.3-1 0-1.9.6-.8.4-1 1.3-1.5-.1-1.9 1-1.2 0-2 .7-.9.4-1.3 1.3-1.2-.2-1.7 1l-1.2.2-1 .5-1 1q-1.1.5-1.9 1.2a4 4 0 0 0-2.6 1.3q-.4-2.6 0-5.2zm-58.2 8.1.2.7-23.5 14.6q-1.3.6-2.2 1.7-.3-1.3-.1-2.7 12.1-6.5 23.6-13.8zm251.9 1q.1 2-.1 4-18 10-35.7 20.7a14 14 0 0 0-5 3l-4.6 2q-.6-.8.4-1.2l15.6-9.4q14.5-9.7 29.4-19Zm-290.2 3q.3 6.2 0 12.3a95 95 0 0 0-21.3 12.2q-.4-5.8 0-11.7c1.8.4 18.5-11 21.3-12.8Zm323.2 1.9.9.2q.4 5.3.2 10.4a149 149 0 0 0-21.5 14c0-4-.7-10 .5-13.5a110 110 0 0 0 19.9-11.1Zm-33.2 9.4q.4 2.4.2 4.9-.9 0-1.8.6l-26 15q-2.6 1.4-5 3.2-2.1 1.2-4.6 2.1c-.9.5-4.1 3.8-5 2.5q21.3-13.9 42.3-28.3Zm-290 5.6q.3 6.3 0 12.4-10.9 5.9-21.4 12.2-.2-5.7.1-11.5.9.5 1.8 0c5.5-4 15-8.7 19.6-13ZM394.9 382q.2 2.4-.1 4.9c-11.7 6.7-24.4 13.5-35.7 20.7q-1 .5-1.8-.1 0-.6.7-1 17.8-11.6 35.1-23.9.8-.6 1.8-.6Zm34 .6q.3 6 0 11.6c-7 4.5-15 9.7-21.4 15q-.3-7.6 0-15.2c2.6 1.2 7.4-1.9 9-4l4.7-2.2 7-4.3q.4-.3.6-.9Zm-324 9.2-1 12.4c-5.5 3-16.1 8.5-20.5 12.1q-.5-5.7 0-11.5c2.4-.2 18-11 21.4-13Zm289.9 6.2q.4 3.5 0 7a1368 1368 0 0 1-31.8 18.4 7 7 0 0 1-4.3 2.4c-1-.4-.2-1 .3-1.4 11.9-8 24.1-17.8 35.8-26.4ZM204 400.8q1 0 1 1-43.2 27-86.1 54.7-.8.6-1.7.6v-3.3c3-.5 25.3-15.5 30-18.2 2.2-.9 5-2.3 6.5-4.2a83 83 0 0 0 12.3-7q.6-.5.8-1.4 2.3-.6 4.2-1.8a3 3 0 0 0 1-1.2q1.4.2 2-1 .6-.2.8-1 .5-.6 1.1-.6c0 .9.8 0 1-.3a3 3 0 0 0 2-1q.6-.4.9-1l.7-.9zm224.7 1q.3 6.2.1 12.4-1-.2-2 .3l-19.3 13.7a124 124 0 0 1-.3-14.2c2.1.2 19.3-10.3 21.5-12.3Zm-325.1 5q0 6.6-.8 13.1-1 1.2-2.3.2-2.6.4-3.8 2.8-1 0-1.8.5L83.3 430q-.4-5.1 0-10.3c5-2.7 16.7-9.5 20.4-13Zm77.3 58q-5.1 0-10.1-.3l69.1-39.9a162 162 0 0 1 10-6.2c.5-.3 2-.3 1.7.7q-2.6.9-4.7 2.3l-1 1-64 41.2a2 2 0 0 0-1 1.1Zm22.2-46-.1 1q-35.3 22.4-70.2 44.9-4 .2-8.1 0l.3-.7q1.6-1 3.2-2.4c3.6-1.7 11.3-6.8 14.6-8.2 19.3-11.9 39.2-22.8 58.8-34.2q.8-.4 1.5-.3Zm224.7 1.9.9.2q.3 5.6.1 11.3c-2.8 1-17.2 12.6-20.8 15.1 0-4.3-.6-11.6 0-15.5 3.1-.7 16.2-8.8 19.8-11.1Zm-33.1 6.4-.1 2.9a37 37 0 0 0-5.6 3.5q-1 .6-2 0 4-3 7.7-6.4Zm-135 37.6H249l44-25.4q5.7-3.2 11.1-6.8 1-.5 1.9 0 0 .8-.8 1l-6.2 3.8q-18 12.6-36.2 25-1.6.9-2.9 2.4Zm32 0H277l55.7-32.3q.6-.3 1.3.1a2477 2477 0 0 1-41.2 30.9 2 2 0 0 0-1 1.3Zm-188.8-30L104 446a122 122 0 0 0-20.5 11.4c-1-2.7-.4-7.8-.4-10.7 3.2-1.1 16-9.7 19.8-12Zm325.9 4q.1 6.3-.1 12.5a750 750 0 0 0-19.9 16.2 2 2 0 0 0-.6 2l-1.6-.4q-1.6 1-2.6 2.6c1 .9 2.3-.7 3-1.4l1.3-.6q10.4-5.7 20.6-12c1 16.9-4.2 32.3-21.2 38.3l.4-.7 3.4-3.9q-1.6-.3-2.4 1.2-5.3 2.7-10.4 5.7c-4.7 3-15.4 3-21 3.5q.3-1.1 1.3-2l8.6-7a1 1 0 0 0-1-.3q-1.4 1.1-3.2 1.6l-10.9 6.3a4 4 0 0 0-1.4 1.3q-7.6.4-15.1-.6v-.9l28.7-24q.3-.5.1-1.2c17.5-.4 21.6-8.7 23-25 2.4.7 17.8-9.3 21-11.2Zm-190.6 2.6q1 .5.8 1.6c-4.6 3.2-31.1 20-33.2 21.8H198q0-.4.5-.7 20-11.1 39.7-22.7Zm-84.4 23.5-4-.2q14.5-8.4 28.9-17.3 1-.7 1.8 0l-1.8.9c-1 1.6-1.2 1.3-3 2q-1.3 1.4-2.8 2.4-9 5.5-18.1 10.8-.7.6-1 1.4Zm-49.9-17 2 10.4c-2.1.5-20.5 11.1-22.7 13q-.5-4.3-.2-8.7c-.2-2 1-1.9 1.4-3.2 5.1-2 14.4-8.4 19.6-11.5Zm260.7 16.6c-3.7.7-8.8.1-12.7.2l21.6-12.5q1.8-1.5 4-2.7.3.8-.4 1.3a411 411 0 0 0-12.5 13.7Zm-29.9.3H327q11.2-6.5 22-13.2.9-.4 1.8.1l-15 11.8q-.6.4-1 1.3Zm53.2.5q-3 .6-5.8-.2 0-.6.5-.8 3.5-1.7 6.8-3.8.4.2.2.8a14 14 0 0 0-1.7 4ZM107 460.6q1 2.9 2.7 5.1c-2 .3-1 3.4 1.1 2.2l-.1.8-.1 1.5a203 203 0 0 0-22.8 13q-3-4.2-4.1-9.2c2.4.7 19.8-11.7 23.3-13.3Zm5.8 11.1 1 .1c15.5 8.2 32.6 4.1 49.3 3.5a10 10 0 0 1-4.3 2l-35 20.2q-.7.6-.6 1.5c-11.2-1.5-24.2-5-32.5-13.1zm100.4 1.6c-.5 1-2.4.7-3.3 1.4l-43 24.9q-.9.5-.7 1.4-8.9.5-17.6 0c1.2-2 3.6-3 5.6-4a342 342 0 0 1 15.7-9.8q.7-.4 1-1.2 2 0 3.1-2 1.4.3 1.8-1 2.2 0 3.1-2 1.2.1 2-.7c-.6-1-2.1-.3-2 .6q-2.1.2-3 2.1-1.5-.2-1.9 1a3 3 0 0 0-3.1 2h-1.4l-24 14.1q-.4.4-.3.9a119 119 0 0 1-16.6-1q18.6-12 37.4-23.5.7-.6.7-1.5 23.2-2.2 46.5-1.7Zm7.7.2 21.4.8q-21.9 12-43.6 25c-3.4 1-14.8 1.3-19 1.4q0-.5.6-.8 20.4-13.1 40.6-26.4Zm22.7.8q22.3-.4 44.7 0-18.8 10.4-37.4 21.3a2 2 0 0 0-.8 1.3l-20.4.9 9.2-5.8 8.4-5.2q.9-.7 1.5-1.8c1.5 0 4.7-1.6 5-3 1 .3 4.4-.8 2.7-2a3 3 0 0 0-2.6 2c-1.8-.1-4.2 1.5-5.1 3-2.2 0-8.7 4.7-11.1 5.8l-11.7 7q-9.8 1.3-19.5 1.3l35.4-22.8c.4-.5 2.2-1.1 1.7-2Zm52-.2q12.9-.1 25.6.1l-38.5 22.2q-1 .6-.7 1.8c-5.9.3-11.3-1-17.1-1.3l.4-.9 29.7-20.4q.7-.6.7-1.5Zm31 0q12.8-.1 25.4.2l-.4.7q-18.6 10.4-37 21.2-1.2.4-1.5 1.6l-17.4-.6c5.2-5.2 27.8-19 30.9-23Zm30 0q13 0 25.7.2 1-.1 1.5.6-21 11.7-41.6 23.8-1 .3-1.1 1.2-8.2-.3-16.5-1.2l30.7-22.8q1-.7 1.4-1.7Zm-241.6 18c-1.1 0-2.9.4-3 1.8q-1.3 0-2 .8c.7 1 1.7-.1 2-.8 1.5.5 2-1 3-1.8.6 0 2.6-.4 1.4-1.2q-1.3 0-1.4 1.2Z"/><path fill="#fffefe" stroke="#fffefe" stroke-width=".5" d="M228 73.3c-2 2.2-10.1 7.4-11 9.7q-3-.3-6-1l.8-1.7 12.8-7.2q1.8-.3 3.5.2Zm24 .5c-.1 2.2-9.7 7.1-9.8 9.6q-3.6.5-7.3.2.3-.7 1-1.2l14.1-8q1-.5 2-.6Zm-93 7.5a96 96 0 0 1-7 6.2q-.6.6-.5 1.5 5.3-2.7 10.4-5.7.8-.6 1.2-1.3l18.8.1q-10.2 8.3-20.6 16.3.8.6 1.8 0 12-7.3 24.5-14.4.8-.5 1.3-1.2c11 3.6 21.9 4.3 33.2 5.9q-2.2.8-4.7.3-.8 0-1.4.5a1187 1187 0 0 1-27.7 19.9q.4.5 1 .3 16.6-9.8 33.4-19.3 1-.6 1.4-1.5 10 0 20 .3a1179 1179 0 0 1-47.2 33.2q-1.7 1.4.4 1.2l53.5-31.3c1.4-.8 1.2-2.2 3-2.3 7-1.3 15-.8 22.1-1a5040 5040 0 0 1-57.7 39.5q.9.8 1.8.2l6.3-4q30.5-17.4 60.6-35.2l-1-1.1q7.5-1.2 15-2c2.6.7 3 0 4.4 3 .5.9 5.9-1.7 7-1.5 1.2-1 6.3-2.6 5.8-4.6 6.7-2.7 13.8-.6 21-1Q305.9 104 272.9 126c-3-1.3-5-2.3-8.4-2.3-15 0-30.1-1.7-32.5 17.8q0 3.8.3 7.4l-8.8.1c-24.4 4.7-23.5 42.7 1 43.8l7.7-.6q-.3 4.6-.2 9.3 1.3 15.2 16.5 16.4c15-.2 33.1-.6 31.4-21.4.4-1-1-3.6-.1-4.2q4.4 0 8.7-.2c14.5-2 18.7-15.3 16.8-28.2l3.5-1.4q2.5-1.9 5.2-3.5 39.4-23 79-45.7.7-.5 1.7-.5.3 5.1 0 10.2-38 23.5-75.8 47.4a64 64 0 0 0-9.9 6.2q.4.7 1.3.4l8.4-5q.4-.4.3-1c2.1 0 2.3-.7 3.8-1.8l72-41.2v10.2q-47.6 30.6-95.4 60.7-6.8 4.3-13.3 8.8c1 1.6 3-1 3.9-1.4q5.6-3 11-6.4 46.7-27.3 93.8-54v10l-1.8.7q-6.1 3.9-12.5 7.3a4 4 0 0 0-2.3 2.6q4.9-2.2 9.8-5.1l6.7-4.4a83 83 0 0 1 0 10 870 870 0 0 1-35.4 21.6l-4.2 3c.4 1 1.3.4 2 .2q7.1-4.6 14.5-8.7.4-.5.4-.9 1-.2 2-.7l17.7-10.3 3-1.4q.3 5.1 0 10.1L355 204.6q-.9.7-1.3 1.7-.9-.5-1.8 0-7.3 4.8-15 9.1-2.1 1.5.5 1.4a20 20 0 0 1 3.7-2l13-8.2a1584 1584 0 0 0 40.7-23.6v11q-2.1.3-3.8 1.5l-23.9 15q.8.6 2 .1l5.5-3.8q9.3-5 18.3-10.5l1.8-.4q.3 4.6 0 9.3l-3.4 2.6q-13.5 8.2-27 16-2.8 1.7-5.2 3.8.4.6 1.1.3l34.5-20q.3 5 .1 10-.7.3-1 1.1h-.8q-6.3 4-12.8 7.5l-29.5 19q-3.6 2.3-7.6 4c-2.1 1.3-3.8 3.7-6.4 4-1 1-.5 1.3-2.4 1.8 2.7 1 1.9.1 3.2-1.4q.9-.4 1.8-.5 2.8-1.3 5.2-3.4 2.3-1.2 4.7-2l.8-.7c1.8-1.7 5.7-3.5 8-4.7q4.6-3.4 9.6-6.3c3.1-1 4.8-2.8 7.4-4.5q1 .3 1.8-.5c.4-2 2.8-.7 3-2.2.9 0 3.7-.6 2.8-2 .6 0 2.6.1 2.2-1q1.8 0 3.3-1l1-.7.8-.7q.9 0 1.4-.7 1-.3 1.9-.9l.8-.4.8-1V232q-19.8 11.9-39 24.4-2.8 1.5-5 3.7c-36.5-2.5-73.7 0-110.3.6q-9 .3-17.9-.5c-11 4.5-.7 8 5 8.5 35.4 3.5 72 0 107.4.3q-1.6 1.6-3.6 2.9l-34.2 21.7q.8.5 1.8.1l15.6-9.5 24.1-13.7a3 3 0 0 0 1.4-1.5c5.8-1 11.5-.2 17.4 0 8.4-3 4.6-6.7-1.7-8.1l39-23V249q-1 0-1.8.5l-98 62.2q1 .6 2 .1l18-11q39.8-23 79.8-45.7v21l-60.9 38q-8.4 5.4-17 10.3a6 6 0 0 0-3 3q0 1-1 1.7c-32.6-.7-63.7-3.2-96.2 3.2q-.8.7-1.3 1.7l-2.5 1.8-11.8 7-83.8 48.3q-.4-5.5-.1-11.1a2 2 0 0 0 1.9 0l21-13.3q1.8-1.1-.2-2 1.5-1 3.1-1.6c0 2.1 2.3.4 3 0q4-2.3 7.6-5l5-2.8q.4-.6.2-1l.4-.9c14.8 2 23.2-27 33.3-35.3 1-1.9-.4-4.8-1.5-6.4-5.3-3.4-13.1 8.5-16 11.9l-12.7 17.1a2 2 0 0 1-1.3-.2c-6.4-5.9-15.5-5.1-11.7 5.7-1 1.5-6.3 3.5-6.4 4.7l-2 .5q-11.6 7.3-23.6 13.8a63 63 0 0 1 0-10.2h.8q13.8-9 27.8-17.3a2 2 0 0 0-2-.3q-3.3 2.4-6.8 4.5L117.2 353q-.2-5.3 0-10.4 1.6-.2 2-1.9c-.2-1 3-.7 3.7-1.3l1.7-2.3c2.3 0 4.1-1.9 6.2-2.7l33.6-20.7 6.5-4.5q2.3-1.4 4.8-2.2c.3-1.1-1.1-1-1.7-.7a2183 2183 0 0 1-55 32.2q-.8.4-1.8.6-.2-5.1 0-10.2 1-.1 1.8-.7l25.9-16.2a11 11 0 0 0 4.7-3c2.4-.2 2.8-1.2 4.2-2.9l3-.7 2-1.4c.3-1.1-1.2-.9-1.8-.6l-37 21.9q-1.2.6-2.7.8-.3-4.5-.2-9.2 7.9-5 16.2-9.3 1.6-1.5-.6-1.5c-5 3-10.1 6.4-15.6 8.8q-.2-5.1.3-10.2.7 0 1.5-.5l35.1-22.4c10.7 7.8 22.3-10.4 27.3-17.9q1 0 1.7-.6l43.7-28q-1-.6-2-.2L205 247.3l-17.3 9.9q-1.3.8-2.9 1.1l3-4.9 5-6c.2-2-4.7-2.8-6-2.2q-1.4.7-2.7 1 .3-.8.9-1.5 6-3.7 12-7l3-2.3c-.5-1-1.3-.4-2-.1q-9.5 6-19.1 11.3-30.7 18.1-61.8 35.6l.1-10.2 78-49.2q1.4-.6 1.9-1.8c2 .4 8.1-4.5 9.9-5.7-.5-1-1.5-.3-2.3 0l-8.6 5.6a5603 5603 0 0 1-78.9 45.2q-.3-5 .1-10 1.5 0 1.7-1.4c3.1-.3 5.6-2.4 8-4.2q2.7-.8 4.6-2.4l1.2-1.8q-1.6.1-2.8 1-4.2 3-9 5.3-1.4.8-2 2.1l-1.8.3q-.2-5 0-10l55.9-34.6 1.5-1.4c.8-.7 4.2-1.6 4.2-2.5q-.8-.6-1.9-.2l-54 32.2c-1.8.3-3.6 2-5.1 2.7h-.5q-.5-5.1 0-10.3 18.7-12 37.6-23.7 2.4-.7 4-2.8a10 10 0 0 0 5-3.1l4.2-2q.6 0 .7-.6-.8-.7-1.8-.3-23.4 14.3-47.3 27.8-1.2.7-2.4 1-.4-5.1 0-10.2l71-46.3q2.7-1.8 5.7-3.3a31 31 0 0 1 4-3c-.6-1-1.3-.3-2 0l-7.6 4.6q-.3.3-.3.8-1 .1-2 .7-34.5 20-68.9 39.6-.3-5 .1-10l23.1-15.1c1-.6 2.3-.2 2.5-1.5q-.8-.7-2-.1-10.5 6.3-21 13-1.2.7-2.8.8l.2-10.3 60-41 2.8-1.4q1.2-.5.3-1.2-.8 0-1.4.2a4136 4136 0 0 1-56.9 33.2q-.8.5-1.1 1.3l-3.7 1a124 124 0 0 1-.1-11.2 154 154 0 0 0 23.9-16.7q1-.3.8-1.3c1.6-.8 3-.7 3.7-2.5q1.3 0 2.4-.7l21.8-15q-.9-.6-1.8-.2c-16.6 10.4-33.8 19.7-50.7 29.6q-.4-5.6 0-11 15-10.5 29.6-21.5-1.3-.3-2.4.4L117.3 145q-.4-11 0-22l12.5-10.5a3 3 0 0 0-2.4.4q-5 3-10 6.3-.5-6-.3-12.2 2-1.5 3.7-3.5c-.7-.7-3 1-3.6 1.5 0-3.5-.5-16.6.4-19 9.5-8.5 29.7-5 41.5-4.7Zm213.4-1-1.2 1.3-23.2 14-34.7 21.8q.4.6 1 .4c2-1 3.4-3 5.7-3.2q3.4-2.3 7-4.3l48.7-28.1q.9-.4 1.2-1.3c3-.4 11.7.8 13.4 3.2a400 400 0 0 0-15.4 9.4 2 2 0 0 0-.8 1.5q-1.3-.3-2 .7-1.1.3-1.3 1.6a13 13 0 0 0-4 1.8q-.7 0-.7.7-15.7 9.5-31.8 18.9-9.6 6-19.4 11.7-1.5 1.2.4 1.2l1.4-1.4 5.6-2.7q2-2.1 5-2.9l1.4-1.2 24.6-13.7q7.5-4.8 15-9.1l16-8.9 8.9-5.6c2.8 1 1.3 6.7 1.6 9-1.5 1-3.2 1.4-4 3.1h-1q-.6.1-.7.6l-8.2 4.4q-1.6.6-2.2 2.3.6.5 1 0 5.2-3 10.6-5.8.5-.4.5-1l4-1.7v10a7166 7166 0 0 0-71.4 44.9c-2.3 1.7-9.5 4.8-10.6 7-1.7-.1-6 3.1-7.6 4.2-.1-14-13-14-23.8-13.7q-1 0-1.6-.8.3-4 .2-8.1a18 18 0 0 0-5.3-12.7 3 3 0 0 1 1.6-2q38.6-21.9 76.7-44.5 9.8-1 19.4-1ZM301.9 92a58 58 0 0 1-5.9 3.7 2 2 0 0 0-1 1.5q-2-.4-2.8 1.7-1.5-.2-2 1.3-2.1-.3-3 1.6-1.2 0-2 .9c.6 1 1.8-.1 2-1 1.4.7 2-1 3-1.5q1.4 0 2-1.3 1.9 0 2.9-1.7a20 20 0 0 0 7-3.8l2-1q1.8-1.2-.4-1.4zm-37 42.7q.8 1 1.2 2.3c-4.1 1.6-16.1 9.1-20.8 11.8q0-2 .5-3.9c5.5-2 13.3-8 19-10.2ZM267 149l-.1 4.2-8.6 4.5q-.7.4-1.2 0 1.5-2 3.5-3.5 3-2.9 6.4-5.2Zm8.2 8.8q6 .5 11.8.3.3.8.2 1.7c-7.4 4.2-16.8 10.4-24.4 13.6 2-4.4 9.6-10.8 12.4-15.5ZM220 178.2q-1.1-2.3-1-5 1 0 2-.5 6-3.4 11.9-7.2 1-.4 1.7.2zm73-9.2q0 2.6-.3 5.1l-11.7 6.3V179q5.8-5.2 12-10Zm-52 14.8q-5 .9-10.1.4 0-.7.6-1l16.5-9.6c.7-.2 1.4-1 2-.1-2 3.5-6.1 7.3-9 10.3Zm4.4 15.4q0-3 .5-6.1c3.3-.9 10.5-5.7 13.8-7.7q.6-.2 1 .1-7.4 7-15.3 13.7Zm7.5 10.6-2.8-.7a4 4 0 0 1 3-1.6c1.2.7 0 1.5-.2 2.3Zm-69.6 37c-7.5 6.9-11.8 16.4-18.4 24l-3.8 1.5a11 11 0 0 0-10.8-.5q-3 1.5-1.7 4.3l2.5 2.7a986 986 0 0 0-34 19.4 96 96 0 0 1 .2-11 17 17 0 0 0 4.2-2.2l58.7-37c.9 0 2.8-2.7 3.1-1.2ZM394.8 298q.2 5.6-.2 11.3a2 2 0 0 0-1.7 0q-2.7 2.4-5.7 4.3c-1.4.7-3.4.7-3.2 2.7q-.9.8-2 1-1 0-1 1.2c-5.6 1.5-13.4 8-18.9 10.7l-22.2.6q.5-.8 1.2-1.2 27-15.2 53.7-30.6Zm0 16a76 76 0 0 1-.1 10.2 3 3 0 0 0-1.7.5q-4.5 3-9.3 5.6l-9.6 6.4q.9.6 2 .1l8-5.1q5.4-3 10.7-5.7v10.2l-62.6 40.3q.5.4 1.1.3l61.4-35.7q.3 5.4 0 10.9-14.7 9.3-29.3 19l-15.6 9.4q-1 .4-.4 1.3l4.6-2.1a14 14 0 0 1 5-3q17.7-10.6 35.7-20.7.3 5.2 0 10.3-21 14.4-42.4 28.3c1 1.3 4.2-2 5.1-2.5q2.4-.9 4.7-2.1 2.3-1.8 4.9-3.3 13-7.3 26-15 .9-.5 1.8-.5v11q-1 0-1.8.6-17.3 12.3-35 24-.7.2-.8.9.8.6 1.8.1c11.3-7.2 24-14 35.7-20.7q.3 5.5 0 11.1c-11.7 8.6-24 18.4-35.8 26.4-.5.4-1.4 1-.3 1.4a7 7 0 0 0 4.3-2.5 1368 1368 0 0 0 31.8-18.3q.3 11 0 22.1l-7.6 6.4q1 .6 2 0a37 37 0 0 1 5.6-3.5q.3 7.5 0 14.8-2 1.6-3.8 3.5-.9.7-.4 1.6 2.1-1.3 4.5-2c.4 6 1.8 16.8-7 17.3a14 14 0 0 1 1.7-4q.2-.6-.2-.9a54 54 0 0 1-6.8 3.9q-.5.2-.5.8l-17.5-.6q6-7 12.5-13.7.8-.6.3-1.3l-4 2.7-21.5 12.5h-17.2q.4-.8 1-1.2l15-11.8q-.9-.5-1.8-.1-10.9 6.8-22 13.1-17.5-.5-35.1.1.1-.9 1-1.4 20.7-15.2 41-30.8-.5-.4-1.2-.1L277 464.6h-17q1.1-1.3 2.8-2.4 18.2-12.3 36.3-25l6.1-3.7q.7-.3.8-1-.9-.5-1.9 0-5.4 3.6-11 6.8-22.2 12.6-44 25.4h-17.2l7-5.5q1.2-.3 1.4-1.6 2.5 0 3.4-2.3 1.5-.2 2.8-.6a549 549 0 0 1 32.8-21.1q.6-.4.8-1.1-1-.6-2 0a278 278 0 0 1-13.7 8.2q-.9.4-1.1 1a7 7 0 0 0-2.2.9l-38 22-17.1.1c2-1.7 28.6-18.6 33.2-21.8l15-9.4q1.5-1 2.7-2.3c-.6-.8-1.5.1-2.1.2a1253 1253 0 0 1-56.1 32.6q-.5.3-.5.7H181q.3-.8 1-1.1l64-41.2 1-1q2.1-1.5 4.7-2.3c.4-1-1.2-1-1.7-.7l-10 6.2-69 39.9-17 .3q.3-.9 1-1.4 9.1-5.2 18.1-10.8 1.6-1 2.8-2.4c1.8-.7 2-.4 3-2l1.9-.9q-1-.7-2 0-14.2 8.9-28.7 17.3l-17.1.1 70.2-45q4.2-2.2 8.3-4.9l3.5-2.6c-.7-.8-1.6.2-2.3.4l-8.6 5q-.8.4-.8 1.3-.8 0-1.5.2c-19.6 11.5-39.5 22.4-58.8 34.3-3.3 1.4-11 6.5-14.6 8.2q-1.5 1.3-3.2 2.4l-2.2.2c-4 .3-5.5-3.8-5.6-7.1q1 0 1.7-.6a8816 8816 0 0 1 104-66q-1-.7-2-.2a966 966 0 0 1-41.1 24.8q-.7.1-.9 1-1.4-.5-2 1l-1 .3q-.6 0-1.1.5-.7.3-.9 1.2c-.6-.2-2.1-.2-1.8 1l-1.2-.1c-1.3.6-3.8 1.5-4.1 3-1.9-.1-4.5 2-6.1 2.7l-12.6 7.5q-1 0-1.3 1-1 0-.7 1l-1-.1q-.9 0-1.3.8l-1 .1q-.7.2-1 1l-1 .2q-.6 0-.8.8-.9 0-1.3.9-.2 0-.5.3-1 0-1.5.9h-.9q-.8.1-1.1 1l-1.5 1q-1 .2-1.6.8l-.7.2q-.9 0-1.2.8l-.7.2q-1.5.6-2.1 1.9h-.7q-1 0-1.4 1l-.8.1q-.8.1-1.4 1l-.6.1a3 3 0 0 0-2.1 1.7l-.7.3q-1 0-1.4.8l-.8.1c0-3 .4-8.4-.3-11.1l1-.2q1 0 1.1-.9 1.1-.2 1.8-1 1-.2 1.4-1.1 1-.2 1.7-.8.9-.2 1.5-1l.7-.1q.7-.3 1-1l14-8.4q.7-.4 1-1.2c3-1 7.8-4.1 10.2-6.4h.9l3.8 2.8c9.2 5 22-18.4 28-22.9 4.1-1.8 8.4-5.6 12.2-7.1l2.9-2.2q-1-.7-2-.2a96 96 0 0 1-8 5c-.8 0-3 2.3-3.2.9 1.4-2.1 7.7-11.2 4.6-13.2-12.8-1.4-20.3 20.8-28.3 28l-1.2.2c-3.6-4.4-14.7-4-13.9 2.3l3.2 4.4c-11.3 6.2-22.5 13.4-34 19.2v-21q39-24.4 78-49.1 8.3-5.4 16.9-10.3l2.8-2.3q-1-.7-2-.1-8.7 5.5-17.9 10.8l-77.7 45q-.4-5.2 0-10.3c.7-.9 3-1.6 2.7-2.9q.9-.8 2-1.2l1 .3q1.3-.4.9-1.8l1.2-.3q1.4.5 1.7-.9 1-.2 1.2-1.3.9-.6 2.1-.6t1.8-1q1-.4 1.1-1.4 1.2.4 1.9-.6a10805 10805 0 0 0 79-49.5c.8-.7 3-1.5 2.9-2.8a86 86 0 0 0 11.7 2.1c30.5 2.6 61.2 2.3 91.7 1.9a4 4 0 0 1-1.8 2q-9.1 6-18.6 11.4-2.4 1.4-4.6 3.2.9.8 1.8.3l15-9.2 13.4-7.5q.5-.2.5-.7 11.7-.1 23.3-1.6c1.2.2.3 1.3-.3 1.6l-31.7 20.1q.5.6 1.1.3 2.3-1.2 4.2-2.8l1.5-.3q15-9.2 30.4-17.9 1-.6 1.8-1.5c2.1-1 7.7-1.3 8.2-4 5-3.1 26.8-16.1 30.3-17.3Zm-245.5 20c.6 1.6 2.8 1.2 2.7-.3-.8-1-1.8.2-2.7.4Zm69.7 67.2c.8 1.5 4 1.3 5.5 1.7 43.5 2.4 87.5 1.4 131 1.2q2.3-.4 4.5-1.7c4.2-3.6-5.8-3.8-7.5-4.2-33.4-2-67.5.4-101 .3q-16.5-1-32.5 2.7Z"/><path fill="#f1dfdb" d="M149.3 334c1-.2 2-1.3 2.7-.4.1 1.5-2 1.9-2.7.4"/><path fill="#ebd1cc" d="M119 254.7q.6-1.4 2-2.1 4.8-2.4 9-5.3 1.3-.9 2.8-1l-1.2 1.8q-2 1.6-4.5 2.4c-2.5 1.8-5 3.9-8.1 4.2"/><path fill="#f9f0ef" fill-opacity=".5" d="M287.3 101.8c-.3.8-1.5 1.9-2.2.9q.9-1 2.2-1"/><path fill="#fbf5f3" fill-opacity=".4" d="M290.2 100.2c-1 .5-1.6 2.2-3 1.6q.9-2 3-1.6"/><path fill="#faf1f1" fill-opacity=".3" d="M292.2 98.9q-.6 1.2-2 1.3.5-1.5 2-1.3"/><path fill="#fbf7f6" fill-opacity=".3" d="M295 97.2a3 3 0 0 1-2.8 1.7q.7-2.1 2.9-1.7"/><path fill="#fcf8f7" fill-opacity=".2" d="m302 92 .1 1.4a20 20 0 0 1-7 3.8 2 2 0 0 1 .9-1.5q3-1.7 6-3.7"/><path fill="#7d7979" fill-opacity=".1" d="M302.1 93.4 302 92l1.8-1q2.2.1.4 1.5z"/><path fill="#bc6756" fill-opacity=".5" stroke="#bc6756" stroke-opacity=".5" stroke-width=".5" d="M115.1 492.1q0-1.4 1.4-1.2c1.2.8-.8 1.3-1.4 1.2Z"/><path fill="#bc6756" fill-opacity=".4" stroke="#bc6756" stroke-opacity=".4" stroke-width=".5" d="M179 481q-.9 2-3 2 .9-2 3-2Zm-67 13c-.2.6-1.2 1.6-1.8.7q.6-1 1.9-.8Zm142-12a3 3 0 0 1 2.6-2c1.7 1.2-1.7 2.3-2.6 2Z"/><path fill="#bd6756" fill-opacity=".3" stroke="#bd6756" stroke-opacity=".3" stroke-width=".5" d="m406.7 469 .4 1.2c-.6.7-2 2.3-3 1.4q1-1.5 2.6-2.6Zm-230.8 14q-.4 1.3-1.8 1 .5-1.2 1.8-1Z"/><path fill="#d9d7d7" d="m109.8 465.8 1.1 2c-2 1.3-3.2-1.8-1-2"/><path fill="#bc6756" fill-opacity=".4" stroke="#bc6756" stroke-opacity=".4" stroke-width=".5" d="M422.7 315q.4-.9 1.2-.6-.4.6-1.2.6ZM179 481c-.1-1 1.4-1.6 2-.7q-.8.9-2 .6Z"/><path fill="#bc6656" fill-opacity=".4" stroke="#bc6656" stroke-opacity=".4" stroke-width=".5" d="M425.7 313.2q.3-1 1.3-.8-.4.6-1.3.8Z"/><path fill="#bd6656" fill-opacity=".3" stroke="#bd6656" stroke-opacity=".3" stroke-width=".5" d="M162.2 66.8c-.4.8-2.1 3-3 1.8a4 4 0 0 1 3-1.8ZM265.4 496l-.4.9-1.1.1q.3-1 1.5-1Z"/><path fill="#bc6756" fill-opacity=".4" stroke="#bc6756" stroke-opacity=".4" stroke-width=".5" d="m331 58 .7.2q-.2.6-.8.9zm-77 424c-.4 1.4-3.6 3-5.1 3 1-1.5 3.2-3.1 5-3Z"/><path fill="#bc6756" fill-opacity=".5" stroke="#bc6756" stroke-opacity=".5" stroke-width=".5" d="M393 52c.2 1-1.4 1.7-2 .7q.9-1 2-.7ZM120 179.7l1-1.7q1.5 0 2.6-1.2 1.6-.3 1 1.1c-1.6.8-2.8 2-4.7 1.8Zm-5 312.4c-1 .7-1.5 2.3-3 1.8.1-1.4 1.9-1.7 3-1.8Z"/><path fill="#bc6757" fill-opacity=".5" stroke="#bc6757" stroke-opacity=".5" stroke-width=".5" d="M396 49.9q-.8 2.3-3 2.1.8-1.9 3-2.1Z"/><path fill="#bc6756" fill-opacity=".4" stroke="#bc6756" stroke-opacity=".4" stroke-width=".5" d="M396 49.9q.4-1 1.5-1c1.2.8-1 1.3-1.6 1Z"/><path fill="#bd6756" fill-opacity=".3" stroke="#bd6756" stroke-opacity=".3" stroke-width=".5" d="m157 48.2 1-.3q0 1-1.2.9zM83 183h.9q-.3.8-1.1 1.1zm91 301a3 3 0 0 1-3.1 2 3 3 0 0 1 3.1-2Zm182 16.1v.9l-1.2.1q.2-1 1.2-1Z"/><path fill="#bc6857" stroke="#bc6857" stroke-width=".5" d="M424.4 66.7q2.2 3.9 2.8 8.5l-7.1 4.4c-1.3 3.5-9.3 7.8-12.8 7.5.3-3.6-2.5-5.8-3.6-9 5-1.7 15.5-8.5 20.7-11.4ZM104.6 96q.3 6.6.1 13.4-.2 1.6-1.7 2.4-10.1 5.3-19.7 11.4-.4-5.8 0-11.5 7.5-5 14.7-10.4 1.4-.8.2-1.9c1.2-1 4.7-4 6.4-3.4Zm0 109.7V229c-4 1.4-17.1 9.5-21.7 12.2V219c2 .5 19.4-11.3 21.8-13.2Zm290.1 43.1v6l-79.6 45.8q-.5-.7-.3-1.6 39.2-24.7 78.2-49.7.8-.5 1.7-.5Zm.1 27v4.8c-3 .4-5.7 1.3-7.3 4l-3 .6q-.4 1.3-1.6 2.2c-2.5.7-7.6 4.5-10.2 5.5q-19 11.8-38.7 22.7a3 3 0 0 1 0-1.7zm-.2 33.8q.2 2.1.1 4.2a434 434 0 0 0-30.3 17.2q-1.3-.9-2.3-2c5.5-2.8 13.3-9.2 19-10.7a2 2 0 0 0 .9-1.2q1.1-.2 2-1l2-.7q3.4-2.2 7-4 1.2-.7 1.6-1.8Zm34 27.5q.6 6 .2 12.1-11 6.6-21.5 14c.3-2.6-1-11.3.7-13q5.1-3 10.2-5.6c3.1-4.3 5.5-5.4 10.5-7.5Zm-233.6 26 .2 1.9a9006 9006 0 0 1-78 49l.1-6zm233.8 7.6q.3 5.2 0 10.3l-11.9 7.6q-.7.4-.6 1.5c-1.5 2-6.3 5.1-9 3.9v-11.2q10.9-5.8 21.5-12ZM103 420q.4 5.6 0 11.3c-2-.1-16.9 9.4-19.6 11.1a62 62 0 0 1 0-10.4q6.4-3.7 12.7-7.7.8-.4.8-1.3 1.2-2.4 3.8-2.8 1.2 1 2.3-.2Z"/><path fill="#89433a" fill-opacity=".1" stroke="#89433a" stroke-opacity=".1" stroke-width=".5" d="M101 328.6a2 2 0 0 1-.9 2q-8.4 5-16.7 10.2l-.2-2.5z"/><path fill="#80413a" fill-opacity=".1" stroke="#80413a" stroke-opacity=".1" stroke-width=".5" d="M237.8 490.8q1 .1 1.2 1.2l-9.2 5.8h-3.7z"/><path fill="#4b4d50" fill-opacity=".4" d="m194.2 35.2-1.3 1.1q0-1.2 1.3-1"/></svg>