<svg xmlns="http://www.w3.org/2000/svg" style="shape-rendering:geometricPrecision;text-rendering:geometricPrecision;image-rendering:optimizeQuality;fill-rule:evenodd;clip-rule:evenodd" viewBox="0 0 512 512"><path fill="#3abcea" stroke="#3abcea" stroke-width=".5" d="M256 234.2q-3 3.9-6.4 7.8-.3.4.1.9 6.3-3 12.2-7a17 17 0 0 1 8.2 7.2l-7 7.4q-.9.6-.5 1.6l9.6-5.3c3.5 6.6 4 17.8-1.2 23.5l-1 .1q-5.2 3.4-10.7 6.2-.9.3-1.3 1.1-6.3.2-11.6-3.6l-.3-.7c.5-.5 2.6-1.6 1.5-2.4l-2.7 1c-2.4-.5-6-7.2-6.6-9.7 2.8-.2 5-3.6 7-5.4q.6-.5.7-1.3-.5-.5-1.1-.1-3.5 2.4-7.1 4.4-.7-.7-.6-1.6c-1.5-12.6 5-24.4 18.7-24.1Z"/><path fill="#3fa8d8" fill-opacity=".9" d="M153 422.7q-.7.7-1.2 1.5l-1 1.6-3-2.2 45.3-26 16-10q1.3-.9 2.5-.1l-51.7 32q-2.4 1-4.6 2.5-1.2 0-2.3.7m86.7 82.3h8.7c-.8 1.5-3.4 2.1-5 2.3q-2.4-.1-3.7-2.3"/><path fill="#66bae1" d="M340.8 254.2a2 2 0 0 0 1 1.5q-8.1 4.4-16.1 9.2-3.9 2.4-7.6 5-1 .3-2-.4 12.3-7.8 24.7-15.3M452.9 274l-.3 1.9-.8 1.1a866 866 0 0 0-26.7 15.7q-2 .6-3.7 2-.8.2-1.4-.3 1.5-2.1 4.1-2.7zm-203.7 61q.1-1.1-.1-2l20.9-12.5a2 2 0 0 1 2 0c0 1.2-2.8 1.5-3.6 2.4z"/><path fill="#6bbce2" d="M113.2 148.8q0-1-1-1.4l14.8-8.7q.9-.6 1.9-.3l-1.6 1.5zM289 167.2q0 1 .8 1.4-12 6.9-23.6 14.1l-3 1.2.2-1.7c2.5-.6 5-2.7 7.4-3.8q9-5.8 18.2-11.2M117.2 280l-.1-2q14.1-8.1 27.9-16.5a2 2 0 0 1 2 0c-.7 1.7-2.7 2.2-4.3 2.9z"/><path fill="#7dc4e5" d="m318.8 118.2.2 1q0 .9-1 1.3l-12.7 7.3c-1 0-2.5 2.2-3.2.8zM153.1 284.7q0-.7-1-.9l23.8-14.5q1-.4 2 .2l-2.9 2.2q-11 6.3-22 13m28 108v-1q0-.4.3-.8a270 270 0 0 0 14.4-8.6 12 12 0 0 0 3.8-2.1q.8-.4 1.5.2c-.7 1.6-2.7 2.4-4.3 2.8q-7.8 4.9-15.6 9.5m82.2 49-.3-.9q0-.5.4-.9l10.6-6.2q1-.8 2-.3 0 .9-.8 1.2z"/><path fill="#73c0e3" d="m305.2 113 .8.6a18 18 0 0 1-4 2.9l-13.3 7.3q-3 1.8-5.6 3.8a2 2 0 0 1-2-.1l22.1-14zm-169 229.8q0-1-1-1 0-.3.4-.6 12-6.8 24-14.1c.8-.3 2.3-1.8 3.2-.9q-2.9 3-6.7 4.3-9.7 6.4-19.8 12.3"/><path fill="#84c8e7" d="m325.3 188.1.3.3.2.2-12.7 8.1q-2.6.8-4.8 2.2c-1-.5.2-1.2.6-1.5l14.4-8.7q1-.5 2-.6m86.7 70.7 3 .3q0 .6-.7 1-9.8 5.5-19.2 11.5-1 .5-2 0c.4-1.8 17.2-9.2 19-12.8m-212.7 150-.3-.9q0-.5.5-.9l13.2-7.8q.8-.3 1.3.2c-.7 1.6-2.7 2.5-4.3 2.8q-5.1 3.5-10.4 6.5"/><path fill="#78c2e4" d="m165.2 234.8-.2-1q0-.5.4-.9 7.2-4 14.3-8.5c.6-.2 1.5-1 2-.1q-2.7 2.8-6.5 4.2-4.8 3.4-10 6.3M71 319.9v-1l26-15.4a2 2 0 0 1 2 0 15 15 0 0 1-2.9 2.3q-2.3 1-4.4 2.2L73 319.4q-.7.6-1.8.5"/><path fill="#60b6de" d="M86 252.8q-2.3 1-5 1.2 0-.6.5-.9 16.9-9.5 33.5-19.6a2 2 0 0 1 2 0q-.8 1.4-2.2 2c-1.8.9-2.3-.1-3.7 2zm-5 1.2q-.3.7-1 .7.3-.6 1-.7"/><path fill="#65b9e1" fill-opacity=".8" d="M133.9 172q.4-.9-.5-1.2-.2-.5.2-.8l15-8.5c1.6-1.1 11.9-7.8 13-7l-1.9 1.9-2.8 1-1 1-15.9 10.2q-2.9 2-6.1 3.5"/><path fill="#82c6e6" d="m134.4 236.8-.5-.5 11.7-7q2.5-.3.6 1.3a100 100 0 0 0-10.2 6q-.7.6-1.6.2m289.4 42.4v1q.3.5-.2.9-4.8 2.7-9.5 5.7c-2.2-.2-5.6 5-7 2.8q8.2-5.3 16.7-10.4"/><path fill="#8dcce8" d="m376.8 204.3.3.7q0 1-1 1.4-5 3-10 5.7-.7.3-1-.4 5.5-4 11.7-7.4m29.9 72 .2.8q0 .9-.8 1.3a97 97 0 0 1-10.7 5.7l-.2-.5q5.5-3.9 11.5-7.3m-11 119 .3.8q0 .9-1 1.3-1.6 1.2-3.5 1.8-.4-.5 0-1z"/><path fill="#3ea3d2" fill-opacity=".5" d="M91 195q0 1-.7 1.7-6 3.7-12.3 6.7l-1 1-6 3-6.2 4q-1.3.7-2.8 1l.1-1.4q1 0 1.8-.6Q74 204.7 84 198.5q3.4-1.9 7-3.5"/><path fill="#49addb" fill-opacity=".7" d="m412.9 369.4 1.9.4q0 .7-.5 1a456 456 0 0 1-18.5 10.5q-1.1 1.3-2.8 1.6l-.1-.6z"/><path fill="#268dbd" fill-opacity=".7" d="M410.8 452.7a5 5 0 0 1-2.1 3.4l-9.4 5.3a2 2 0 0 1 .8-2q4.6-2.6 8.8-6a5 5 0 0 1 2-.7m-11.5 8.7-1.5.3q.7-.8 1.5-.3m-1.5.3q0 1.3-1.3 1.6-.3-1.5 1.3-1.6m-1.3 1.6q-1 .9-2.2 1c-.5-1.4 1.4-1.5 2.2-1m-2.2 1q-1 .7-2 1 .2-1.5 2-1m-2 1a3 3 0 0 1-1.6.4q.7-.5 1.5-.3m-1.6.4q0 1.5-1.4 1.6 0-1.5 1.4-1.6m-1.4 1.6q-.9 1-2.1 1 .5-1.6 2-1m-2.1 1q-.7 1-1.9 1 .3-1.6 1.9-1m-1.9 1q-.7.4-1.4.4.6-.4 1.4-.3m-1.4.4q0 1.4-1.4 1.7-.3-1.5 1.4-1.7m-1.4 1.7-2.2 1c-.4-1.3 1.3-1.5 2.2-1m-2.2 1-1.3.5q.4-.9 1.3-.4"/><path fill="#2199cb" fill-opacity=".2" stroke="#2199cb" stroke-opacity=".2" stroke-width=".5" d="M163.7 444q0 .4-.3 1L142 458q-.1-1-1.3-1.3 10.8-5.8 21.3-12.3z"/><path fill="#6ab9dd" d="M200 449q-1.5 0-2.8-.8 9.8-5.7 19.5-11.8c.7 0 1.6-1 2.1-.1q-1.2 1.3-2.7 2.2-7.3 4.2-14.5 8.7a7 7 0 0 0-1.6 1.8"/><path fill="#229bce" fill-opacity=".2" stroke="#229bce" stroke-opacity=".2" stroke-width=".5" d="m336.7 27.2 1.4.1-14 8.4c-1.4.6-3.6 2.3-5 2.2q.4-1 1.5-1.7l14.4-8.9q.8-.6 1.7 0Z"/><path fill="#319ed1" fill-opacity=".8" d="M409 386.8c-.2 2.3-2.3 3.4-3.5 5.2a3 3 0 0 1-1.4.9c-3.3-.5-5.1 3-8.2 3.2l-.2-.9z"/><path fill="#fafdfe" fill-opacity=".2" d="M141 306q-.3.9-1 1.2l-15.7 9.8a2 2 0 0 0-1.4-1.3l16.7-9.6z"/><path fill="#92ceea" fill-opacity=".7" d="m416 194-.2 1c-4.4 4.1-10.7 6-15.5 9.8q-2.4 0-.4-1.4z"/><path fill="#1b729a" fill-opacity=".2" stroke="#1b729a" stroke-opacity=".2" stroke-width=".5" d="M354.8 444.2c0 1-5.9 4-6.8 5.1q-2.6 1.4-5 3.3h-.8l-1-1.4 2-.7q4.7-3.3 9.8-6.1.9-.5 1.8-.2Z"/><path fill="#81c3e1" d="m345.3 75.2 2.6 1.4c-4.3 1.3-10.9 5.7-14.8 8.2-.8.2-1.6 1-2-.1q6-4 12.3-7.8 1.2-.6 1.9-1.7"/><path fill="#76c1e4" d="M222.2 317.9h-1a2 2 0 0 1 1.1-1q6.4-3.5 12.4-7.5c.7-.1 1.6-1.1 2.2-.2a12 12 0 0 1-2.8 2.3q-5.2 3-10 6.2-1 .5-2 .2"/><path fill="#44aadc" fill-opacity=".6" d="m115 181-.2 1h-.7q0-.7.8-1m-1 1q-.3 1.4-1.7 1.2.1-1.5 1.8-1.1m-1.7 1.2c-1 .7-1.8 2.4-3.3 2 0-1.8 2-2 3.3-2m-3.3 2c.3 1-1.4.9-2 .7q.6-1.1 2-.8m-2 .7c-.8 2.4-2.8 1.7-4 3.7q-2.5 1-4.6 2.2-.8.2-1.5.1.5-.9 1.2-1.3c2.1-.8 6.9-4.6 8.8-4.7"/><path fill="#1a7ea9" fill-opacity=".1" stroke="#1a7ea9" stroke-opacity=".1" stroke-width=".5" d="M493 253.6q1 .3 1.1 1.2-5.4 3.5-11 6.8-1 .4-2 .4l-1.1-.2z"/><path fill="#268ab8" fill-opacity=".8" d="m378 473-.2.8q-1 1.5-2.8 1.6-5 3-10 5.6 0-.9-.9-1.2l12-6.3q.9-.5 1.9-.5"/><path fill="#bedbe9" d="M374.9 143q1.5-.2 2.9.1.2 1-.7 1.4a98 98 0 0 1-9.8 5.1q-.6-.2-.5-1a72 72 0 0 0 8-5.6"/><path fill="#68a5bb" fill-opacity=".1" stroke="#68a5bb" stroke-opacity=".1" stroke-width=".5" d="m410.6 135.1.2 1.2c.3.7-3.6 2.1-4.1 2.9q-3.7 2.2-7.8 4 .3-1 1.1-1.8z"/><path fill="#55b0da" d="M227.2 269q.6.6.7 1.6-5.5 3-10.8 6.2-.1-1-1.2-1 5.8-3.2 11.3-6.8"/><path fill="#269ed3" fill-opacity=".2" stroke="#269ed3" stroke-opacity=".2" stroke-width=".5" d="m480 261.8 1 .2c-1 2.2-7.9 4.8-10 6.6q-1 .4-2.1 0 5.4-3.6 11.1-6.8Zm-371 78.1q-.3 1-1.4.8z"/><path fill="#1f94c6" fill-opacity=".2" stroke="#1f94c6" stroke-opacity=".2" stroke-width=".5" d="M293.8 464.9q0 .9-.8 1.5-4.5 2.5-8.7 5.5-.5-.9-1.4-1.3a79 79 0 0 0 9-5.2q.9-.5 1.9-.5Z"/><path fill="#2296c7" fill-opacity=".2" stroke="#2296c7" stroke-opacity=".2" stroke-width=".5" d="M99 104.1c-.6 1.5-8 5.4-9.7 6.8q-.3-1-1.4-1.3l9-5.2q1-.5 2.1-.3Z"/><path fill="#23a4d6" fill-opacity=".2" stroke="#23a4d6" stroke-opacity=".2" stroke-width=".5" d="M111 436.1c-.6 1.5-9.2 5.7-10.9 7q-.8 0-1-1l9.8-5.8q1-.4 2.2-.2Z"/><path fill="#41a5d3" fill-opacity=".9" d="M426.9 363q0 1-.7 1.8-2.6.6-4.8 2-.8.2-1.4.1c1.5-2.3 4.5-3 6.9-4m-7 3.9c0 1.6-1.8 1.7-3 2a4 4 0 0 1 3-2m-3 2q-.6 1.4-2.1.9.8-1.1 2-1"/><path fill="#2790c1" fill-opacity=".2" stroke="#2790c1" stroke-opacity=".2" stroke-width=".5" d="m427 360 1.8-.1q-.5 1.8-2 3c-2.3 1-5.3 1.7-6.8 4q-2 .3-3.1 2-1.4-.3-2.1.9l-2-.4 9.1-6.2 1.3-.5.9-.7 1-.9 1.2-.4q.6 0 .7-.6Z"/><path fill="#fff" fill-opacity=".4" d="M387.3 112q-.4.7-1 1 0-1 1-1M355 185q-.9 2-3 2 .9-1.9 3-2M128.4 333q-.5.6-1.1 1 0-1 1.1-1m9.6 21c-.7 1.3-5.6 4.3-7 4q.3-.8 1-1.3c1.5-.6 4.5-3.2 6-2.7m58 99.8.9.4-.3.9q-.4-.6-.6-1.4"/><path fill="#6dbce1" d="m150.9 142.2-1-1.1q4.2-2.2 8-4.8.7-.5 1.6-.4.8.4 0 1-4.2 2.9-8.6 5.3"/><path fill="#4eafdb" fill-opacity=".7" d="M76.2 191q-.7 1.5-2.3 2l.4-1c-.7-1.1 1.2-1 1.9-1m-3.2 2h.9q-2.9 2.5-6 4.3-1 .5-2.1.5l.1-1 5.6-3.7zm-7.2 4.8q0 .9-.8 1.3.1-.8.8-1.3"/><path fill="#58849c" fill-opacity=".1" stroke="#58849c" stroke-opacity=".1" stroke-width=".5" d="M389.4 109.2q.4.3.4 1c.4 1-2 1-2.5 1.8q-1 0-1 1c-2 .6-3.4 2.4-5.6 2.2l-.9-.3q4.6-3 9.6-5.7Z"/><path fill="#2695c9" fill-opacity=".9" d="M278.7 5.7a7 7 0 0 0 2.6-.1q1.8.7 2.8 2.5c-1.6-.3-7 0-8-.7l.1-.4q1.5-.3 2.5-1.3"/><path fill="#2285b5" fill-opacity=".1" stroke="#2285b5" stroke-opacity=".1" stroke-width=".5" d="M163.7 54.4q.3 1 1.4 1c-2 .8-7.1 4.8-9 4.5q0-.9.8-1.4c1.2-.5 6-4.3 6.8-4.1Z"/><path fill="#2274a0" fill-opacity=".2" stroke="#2274a0" stroke-opacity=".2" stroke-width=".5" d="M122.2 177h.7c2-.2.2 1.3-.1 1.8-2 .5-4.4 1-4.8 3.4q-.7-.5-1.6-.5l-1.6.3.1-1 1-.1q.9 0 1.3-1l1.8-1q.8 0 1-.9h1q.9-.2 1.2-1Z"/><path fill="#39a5d7" fill-opacity=".5" d="m132 171.3.2 1.6c-.8 1.2-7.7 5.9-9.4 5.9.3-.6 2-2 0-1.8.6-1.6 7.6-4.3 9.1-5.7m-9.2 7.5c-.3 1.6-3.4 3-4.8 3.3.3-2.3 2.8-2.8 4.8-3.3m-6.4 3q.7 0 1.6.3a9 9 0 0 1-2.9 2.2c-.4-1.2 1-1.5 1.3-2.6m-1.3 2.5-3 2q.3-3 3-2m-3 2-4.8 3q-.3-1.6 1.3-2.5c1 0 2.6-1.2 3.5-.5m-4.8 3-3 2c-.4-1.7 1.5-3.2 3-2m-3 2-10.5 7q-1.8 1.2-3.9 2l-1.2-.7a67 67 0 0 0 12-7.7q1.7-1.1 3.5-.6"/><path fill="#6894ac" fill-opacity=".1" d="M98.3 275.8c-.2 2.2-3.5 2.4-4.9 4.1l-2.7 1-.7-.8c2.2-1.3 5.9-3.8 8.3-4.3"/><path fill="#259dd3" fill-opacity=".3" stroke="#259dd3" stroke-opacity=".3" stroke-width=".5" d="M30 204c-.4 1.1-4.3 4-5 2.7.5-1.2 3.6-2.7 5-2.8Zm449 20q-.5 1.3-2 1 .5-1.4 2-1ZM314 486q-.6 1-2 1.1.5-1.4 2-1.1Z"/><path fill="#217eac" fill-opacity=".2" stroke="#217eac" stroke-opacity=".2" stroke-width=".5" d="M445.8 379.4q.2 1 1.3 1l-6 3.3q-.3-.7-1-1 2.7-1.8 5.6-3.3Z"/><path fill="#26779c" fill-opacity=".9" d="M217.8 503.3q3.8-.3 7.4.6c-.8 2.8-6 1-7.4-.6"/><path fill="#7ec2e2" d="M363 371.8q.6.3 1 1-3 1-5.7 2.8-.8.4-1.3 0 1.1-1.5 2.8-2.4z"/><path fill="#43a5bb" fill-opacity=".1" d="m352.6 205.3.6.3a4 4 0 0 1-4.4 1.3c1-.7 2.4-2.2 3.8-1.6M124 393.6c0 2.3-2.3 2.5-4.2 2.4q1.8-1.8 4.2-2.4"/><path fill="#259fd2" fill-opacity=".3" stroke="#259fd2" stroke-opacity=".3" stroke-width=".5" d="M102 101.9a3 3 0 0 1-3 2.2 3 3 0 0 1 3-2.2ZM305.6 490l.3 1.2-1 1.9-1-.3q-.4-.7-1.2-1.2 1.6-.3 3-1.6Z"/><path fill="#93cee9" d="m58.9 242 .1-1.7a11 11 0 0 0 4.8-2.1q.6-.4 1.1.1c-1.3 2-3.9 3-6 3.7"/><path fill="#279cd3" fill-opacity=".3" stroke="#279cd3" stroke-opacity=".3" stroke-width=".5" d="M147 318q-.3 1.1-1.3.7zm289 68a6 6 0 0 1-5 3c.4-1.5 3.5-3 5-3ZM244.3 497.2l-.3.8h-1.2q.5-1 1.5-.8Z"/><path fill="#659bb5" fill-opacity=".1" d="M230.8 47.4q.4.8 1.3 1.3c-2.5.5-3.4 2.4-6.2 2.1 1.2-1.8 3.2-2.3 4.9-3.4"/><path fill="#279dd4" fill-opacity=".4" stroke="#279dd4" stroke-opacity=".4" stroke-width=".5" d="M145 319.2q-.4 1-1.4.8zm-19 108c-1.1 1.3-3.2 3-5 2.8q1.9-2.5 5-2.9Z"/><path fill="#307ea2" fill-opacity=".1" stroke="#307ea2" stroke-opacity=".1" stroke-width=".5" d="m254 107 2 .1c-1.4 1.1-4.1 3.3-6 2.8q1.6-2 4-2.9Z"/><path fill="#43aad9" fill-opacity=".7" d="M222.3 9.7q.7.4 1 1.2l-1.2.1zm29.7 96.2q1.2 0 2 1.1-2.5.8-4 2.9c-1.3.4-4.9 1.2-4.7 3q-.9 1.7-2.6 2.4l-24.8 14q-4.4 2.5-8.6 5.4a1 1 0 0 1-1-.3l29.6-18.8q6.6-4.8 13.4-8.8z"/><path fill="none" d="m381.4 169.2.6.8c-1.7.8-3.3 2.3-5.3 2.2a3 3 0 0 1 1.2-1.7q1.7-.9 3.5-1.3"/><path fill="#279cd5" fill-opacity=".3" stroke="#279cd5" stroke-opacity=".3" stroke-width=".5" d="m74.3 192-.4 1H73q.4-.7 1.3-1ZM140 322q-.2 1.1-1.3.7zm-52 30q-.1 1-1.2.8zm343 37q-.9 1.9-3 2a3 3 0 0 1 3-2Z"/><path fill="#259ed3" fill-opacity=".3" stroke="#259ed3" stroke-opacity=".3" stroke-width=".5" d="M319 38q-.5 1.3-2 1 .6-1.2 2-1ZM102 344q-.3 1-1.3.7zm210 143q-1 2-3 2a3 3 0 0 1 3-2Z"/><path fill="#7cc9e0" fill-opacity=".1" stroke="#7cc9e0" stroke-opacity=".1" stroke-width=".5" d="M166 387c-.8 2-2.5 1.8-4 3l-.8-.4c1.2-1.2 3.1-2.7 4.9-2.6Z"/><path fill="#7eafc9" fill-opacity=".1" d="m379.8 114.9.9.3c0 1.4-3.3 3.1-4.6 2.5q1.5-1.9 3.7-2.8"/><path fill="#588da5" fill-opacity=".1" stroke="#588da5" stroke-opacity=".1" stroke-width=".5" d="M115.1 384.6c0 2.3-2.6 2.4-4.2 3.5q-.9-.2-.9-1a36 36 0 0 1 5.1-2.5Z"/><path fill="#20aeda" fill-opacity=".2" stroke="#20aeda" stroke-opacity=".2" stroke-width=".5" d="M440 382.7q1 .3 1.1 1c-1.4.8-3.3 2.6-5 2.2 0-1.3 3-2.3 4-3.2Z"/><path fill="#dfe7eb" d="M332.8 63q.4 0 .9-.4 3 0 4.5 2.6h-1l-4.4-1.3z"/><path fill="#8fcdeb" fill-opacity=".4" d="m426 188-.2 1.1q-1.4 1.7-3.5 2.6v-.8a1 1 0 0 1 .2-1q1.9-.7 3.5-1.8"/><path fill="#92ceea" fill-opacity=".5" d="m421 191-.3 1q-1.2 1.8-3.4 2.7v-.8q-.3-.5.1-1a17 17 0 0 0 3.6-1.9"/><path fill="#2f9de4" fill-opacity=".2" stroke="#2f9de4" stroke-opacity=".2" stroke-width=".5" d="M250 109.9c0 1.5-3.4 3.3-4.7 3-.2-1.8 3.4-2.6 4.7-3Z"/><path fill="#3ea2d5" fill-opacity=".5" d="M95.9 192.2v.6c-.4 1.1-3 2.3-4.2 2.1.6-1.4 2.8-2.1 4.2-2.7"/><path fill="#94cfe9" fill-opacity=".2" d="M371 121q-.5 1.3-1.9 1 .6-1.2 1.8-1M177.8 300.3v1q-.6 1.1-1.8 1.7l.2-1.3q.4-1 1.6-1.4"/><path fill="#93cfe9" fill-opacity=".4" d="m431.1 185-.3 1.1q-.6 1.3-1.8 2-.2-1-1-1c-.2-1 2.3-1.7 3.1-2.2"/><path fill="#167c9c" fill-opacity=".1" stroke="#167c9c" stroke-opacity=".1" stroke-width=".5" d="M302.8 491.8q.8.3 1.2 1.1-.7.3-1 1-1.5.2-3-.2z"/><path fill="#4390b3" fill-opacity=".7" d="M430.2 357.8q-.2 1.5-1.4 2l-1.8.3q1.3-1.5 3.2-2.3M427 360q-.1.5-.7.6 0-.6.7-.6"/><path fill="#fff" fill-opacity=".4" d="m136.3 328.1-1.5.6q.7-.7 1.5-.6M141 352q-.9 2-3 2.1.8-2 3-2"/><path fill="#427388" fill-opacity=".1" d="m282.7 73.2.5.4a4 4 0 0 1-4.4 1.3c1-.8 2.4-2.2 3.8-1.7"/><path fill="#7a9fb7" fill-opacity=".1" d="M247.1 462.9a3 3 0 0 1-3 2.2q-1.2.1-1.1-1 2-.7 4.1-1.2"/><path fill="#cacfd1" d="M169.8 445.1q2.4.3 4.4 1.7-3 1.2-4.4-1.7"/><path fill="#90cde9" fill-opacity=".3" d="m436.2 182-.5 1.1q-.3 1.2-1.4 1.6-.2-1-1.3-1v-.4q1.7-.4 3.2-1.3"/><path fill="#fff" fill-opacity=".4" d="M350 188q-.9 2-3 2 .8-1.8 3-2M125.4 335q-.7.5-1.5.8.5-.9 1.5-.8"/><path fill="#269dd5" fill-opacity=".5" stroke="#269dd5" stroke-opacity=".5" stroke-width=".5" d="M37 200q.6-2 2.6-2c1.4 1-2 2-2.6 2Zm432 29.9q-.3.8-1 .4.3-.4 1-.4Z"/><path fill="#437288" fill-opacity=".1" d="m176.2 301.7-.2 1.3q-.9.4-1.6 1.1l-1.2-.3h-1.1q1.6-1.8 4-2"/><path fill="#6eb4dd" fill-opacity=".2" stroke="#6eb4dd" stroke-opacity=".2" stroke-width=".5" d="M396.8 144.3q-1 1.5-3 2 .6-2.5 3-2Z"/><path fill="#73beeb" fill-opacity=".2" stroke="#73beeb" stroke-opacity=".2" stroke-width=".5" d="M103.1 272.9q-.5 2.3-3 2a3 3 0 0 1 3-2Z"/><path fill="#259ed5" fill-opacity=".4" d="m389.2 149.2-1 .8q0-1 1-.8m76.5 82.7q.3-1 1.1-.6-.4.6-1 .6M48 293v1l-1.2-.3zm104 22.3q-.4.9-1.4.7.6-.5 1.3-.7"/><path fill="#578eab" fill-opacity=".1" d="M433 183.6q1.1 0 1.3 1.1-1.5 1.3-3.5 1.5 0-.7.3-1.3 1-.4 1.9-1.3"/><path fill="#e3f4fa" d="M246 273.4a3 3 0 0 1-1-1.3q1.2-.7 2.6-1c1.1.7-1 1.8-1.5 2.3"/><path fill="#3aa3d3" fill-opacity=".4" stroke="#3aa3d3" stroke-opacity=".4" stroke-width=".5" d="m184 60.3-.2.8q-.6 0-.7.6-.6 0-1.2.4l-.9-.4q1-1.8 3-1.4Z"/><path fill="#1c74aa" fill-opacity=".1" stroke="#1c74aa" stroke-opacity=".1" stroke-width=".5" d="m92.2 180.7-2.1 1.6-1.1-.3.2-.7c.5-.7 2.7-2.3 3-.6Z"/><path fill="#279dd4" stroke="#279dd4" stroke-width=".5" d="M139.2 147.7q.9.5 1.3 1.3l-37 24.7q-1.5.6-2.9.7l-1 1.7-7.4 4.6c-.3-1.7-2.5-.1-3 .6q-11.6 6.3-23 12.9.8-3 2-6l1.8-.7q34.4-20 69.2-39.8Zm350.2 59.2q2 10.1 3.3 20.3l-26.8 16-1.6-22.5a2 2 0 0 0 1.7-.2zm-10.5 17q-1.5-.3-1.9 1.1-3 .7-5 2.9c-1.2.2-3 .5-3 2q-.7 0-1 .4.7.4 1-.4c1-.1 3.4-.4 3-2h1.4c1.1-1.3 3.6-1 3.6-2.9q1.5.3 2-1c.8 0 6.1-2 4.6-3.1-1.5.4-4 1.6-4.7 3Zm-13.2 8q.8 0 1.1-.6-1-.4-1 .6Z"/><path fill="#269ed6" fill-opacity=".3" d="M281.3 5.6a7 7 0 0 1-2.6.1c.4-1 2-.8 2.6-.1M166 307q-.2 1.1-1.3.7z"/><path fill="#92ceea" fill-opacity=".7" d="M291.3 86.9A2 2 0 0 1 290 88q.2-1 1.3-1.1M436 201q-.6 1-1.8.9a2 2 0 0 1 1.8-.9"/><path fill="#289fd2" fill-opacity=".2" d="M186.7 295q.2 1-.8.7zm-70.8 41q-.1 1-1.3.6zm262 137 1-.1q0 1-1.1.9z"/><path fill="#91b8ca" fill-opacity=".3" stroke="#91b8ca" stroke-opacity=".3" stroke-width=".5" d="M248.1 461.4h1l-.3 1q-.6.8-1.7.5z"/><path fill="#289fd4" fill-opacity=".3" d="m132 171.3 1.3-.5q1 .3.6 1.3-.7.8-1.7.8z"/><path fill="#67bae1" fill-opacity=".4" d="M427.7 238.2q0 .9-.7.7zm-.7.7q-.7 1-1.9 1 .7-1 1.9-1"/><path fill="#93ceea" fill-opacity=".6" d="M265.4 102q-.5.8-1.3 1 .1-1 1.3-1m85.5 31.1q-.7 1.1-1.9.7.7-.9 1.9-.7"/><path fill="#fff" fill-opacity=".4" d="M155.3 316q-.4.6-1.2.8.3-.9 1.2-.7M143 351q-.5 1.1-2 1 .8-1.3 2-1"/><path fill="#6ebde1" fill-opacity=".3" d="m372.7 119.3.1.9c0 .9-1.3.8-1.8.8q.6-1 1.7-1.7"/><path fill="#f7f7f7" fill-opacity=".4" stroke="#f7f7f7" stroke-opacity=".4" stroke-width=".5" d="m345.8 67.1 1.4-.3q.2 1.4.7 2.6l-2-.6q-.3-.8-.1-1.7Z"/><path fill="#95cfea" d="M392.9 382.3v.6c0 .8-1.3 1.6-1.8.7q.6-1 1.8-1.3"/><path fill="#3694c0" d="M261.9 427.2q-.3.7-1 .6.1-.7 1-.6m-1 .6q-.4 1.2-1.7 1.2a2 2 0 0 1 1.6-1.2"/><path fill="#5daed4" d="M411.9 384.2q0 .8-.8.8.3-.6.8-.8m-.8.8q-.3.8-1.1 1 .1-1 1.1-1m-1.1 1q0 1-1 .8.2-.8 1-.7"/><path fill="#fff" fill-opacity=".5" d="M347 190c-.3.8-1.4 1.7-2 .7q.7-.9 2-.7M144.3 323l-1.4.8q.4-.8 1.3-.7"/><path fill="#fff" fill-opacity=".4" d="M352 187q-.5 1.3-2 1 .6-1.2 2-1M147.4 321q-.5.6-1 .8 0-.9 1-.8"/><path fill="#6e96a8" fill-opacity=".4" stroke="#6e96a8" stroke-opacity=".4" stroke-width=".5" d="m109.3 387.3.7-.2q0 .8 1 1-.3.5-.8.6-1.4-.2-.9-1.4Z"/><path fill="#93cfea" fill-opacity=".4" d="M106.9 270.3v.8q-.3.4-.7.6l-.3-1z"/><path fill="#93cee9" fill-opacity=".3" stroke="#93cee9" stroke-opacity=".3" stroke-width=".5" d="M109.7 268.9q0 1.5-1.6 1 .5-1 1.6-1Z"/><path fill="#e5eff4" d="m180.3 61.9-.1.9-2.3.6q.5-1.8 2.4-1.5"/><path fill="#8a8a8a" d="m180.3 61.9.7-.2.9.4q-.6 1-1.7.7z"/><path fill="#9bd2eb" fill-opacity=".4" d="M428 187v1q-.2.7-.8.7l.1-.9q-.2-.9.7-.8"/><path fill="#48acdb" fill-opacity=".7" d="M79.2 189q-.5 1-1.5.8.7-.6 1.5-.7m-1.5.8q0 1-1 1 .3-.7 1-1"/><path fill="#94cfeb" fill-opacity=".1" d="M167.7 386c.5 1-1 1.2-1.6 1q.4-1 1.6-1"/><path fill="#48acda" fill-opacity=".5" d="M82.3 187q-.3.8-1.1 1.2-.1-1.2 1-1.3m-1.1 1.2q-.5.6-1.2.7.2-.8 1.2-.7"/><path fill="#b0b5b7" d="m378.2 132 .9.7q-1.2.3-2.2 0 .4-.7 1.3-.7"/><path fill="#5597b5" fill-opacity=".8" d="M206 63q-.6 1.1-1.9.8.8-.9 2-.8"/><path fill="#90cdea" fill-opacity=".5" d="M355.9 130q-.6 1.2-1.9.9.7-1 1.9-1"/><path fill="#93ceea" fill-opacity=".2" d="M172.8 383.2q-.6 1-1.7.5.7-.6 1.7-.5"/><path fill="#94cfe9" fill-opacity=".3" d="M386.9 150.3q-.7.7-1.9.7.6-1.2 1.9-.7"/><path fill="#90cdea" fill-opacity=".4" d="M360.8 127q-.5 1.2-1.7.8.6-1 1.7-.8"/><path fill="#87cae9" fill-opacity=".4" d="M175.8 380.9q-.3 1.3-1.7 1a3 3 0 0 1 1.7-1"/><path fill="#86c9e8" fill-opacity=".5" d="M180.9 378q-.6 1.3-1.9 1 .6-1 1.8-1"/><path fill="#90ceea" fill-opacity=".3" stroke="#90ceea" stroke-opacity=".3" stroke-width=".5" d="M365.7 124c.4 1-1 1-1.7.8q.6-.8 1.7-.8Z"/><path fill="#8dcbe8" fill-opacity=".7" d="M185.9 375.1q-.7 1.1-2 .7a2 2 0 0 1 2-.7"/><path fill="#93ceea" fill-opacity=".5" d="m367.8 122.3.2.9-1 .8v-1.3z"/><path fill="#6c828c" d="M337.2 65.3h1q.4 0 .7.4-1 .5-1.7-.4"/><path fill="#93cee8" fill-opacity=".1" stroke="#93cee8" stroke-opacity=".1" stroke-width=".5" d="M344.6 210.2c.4 1-1 .8-1.5.5q.5-1 1.5-.5Z"/><path fill="#b6bfc3" fill-opacity=".8" d="M345 67.1h.7l.1 1.7-.8-.8z"/><path fill="#93cfea" fill-opacity=".2" stroke="#93cfea" stroke-opacity=".2" stroke-width=".5" d="M339.7 213q0 1.3-1.5.9.4-1 1.5-1Z"/><path fill="#2699cf" fill-opacity=".6" d="m101.6 57.8.6 1.2q-.4.9-1.3 1.2c.1-.7-.2-2.2.7-2.4"/><path fill="#93ceea" fill-opacity=".3" d="M334.9 216q-.5 1.2-1.9.8.7-1 1.9-.8"/><path fill="#64b9e1" fill-opacity=".8" d="m425 361.1-1 1q.4-.8 1-1m-1 1-.8.6q0-.7.9-.7"/><path fill="#92ceea" fill-opacity=".1" stroke="#92ceea" stroke-opacity=".1" stroke-width=".5" d="m226 50.9-.3 1.1q-.8.2-1.4-.2.5-1 1.6-1Z"/><path fill="#86b1c5" d="M158.2 439.8q1.5 0 2.1 1.3-1.6.2-2-1.3"/><path fill="#fff" fill-opacity=".2" d="m153.4 317.3-1.3.8q.1-1 1.3-.8m-30 19-1.3.8q.1-1.1 1.2-.8"/><path fill="#91cfe9" fill-opacity=".1" d="M443.6 229.2c.3 1-.9.8-1.4.5q.5-.8 1.4-.5"/><path fill="#93cde9" fill-opacity=".2" d="M438.7 232c.4 1-1.1 1.1-1.7 1q.4-1.2 1.7-1"/><path fill="#6993a6" fill-opacity=".6" d="M260.8 104.1q.1 1-.6 1.1 0-.7.6-1m-.6 1.1-1.2.8q.2-1 1.2-.8"/><path fill="#89c9ea" fill-opacity=".3" stroke="#89c9ea" stroke-opacity=".3" stroke-width=".5" d="M437 233q-.6 1.2-2 .8.9-.9 2-.8Z"/><path fill="#fff" fill-opacity=".3" d="m158.2 314.2-1.2.8q.3-1 1.2-.8m-19 12-1.2.8q.3-1 1.2-.8"/><path fill="#fff" fill-opacity=".2" d="m161.3 312.3-1.2.8q0-1.1 1.2-.8m-30 19-1.2.8q0-1 1.2-.8"/><path fill="#93cfeb" fill-opacity=".3" d="M433.8 235.1c.1 1-1.2 1-1.8.8a2 2 0 0 1 1.8-.8"/><path fill="#85c7e7" fill-opacity=".4" d="M432 236q-.5 1.2-1.9 1 .6-1 1.9-1"/><path fill="#259fd5" fill-opacity=".2" d="M161 310q-.2 1.1-1.4.7zm-71 41q-.2 1-1.4.6z"/><path fill="#7ca8bd" fill-opacity=".4" stroke="#7ca8bd" stroke-opacity=".4" stroke-width=".5" d="M258.9 456v.8h-1.7q.6-1 1.7-.7Z"/><path fill="#84c8e7" fill-opacity=".6" d="M422 242.1q-.8.7-2 .7.8-1 2-.7"/><path fill="#93ceec" fill-opacity=".1" d="M182.8 298q-.4 1.4-1.6.6.7-.7 1.6-.6"/><path fill="#8dcbe7" fill-opacity=".4" d="M114.8 266q-.3 1.2-1.7.9.6-1 1.7-1"/><path fill="#8ccbe7" fill-opacity=".3" d="M190.8 292.9q-.2 1.5-1.7 1a2 2 0 0 1 1.7-1"/><path fill="#92d0e9" fill-opacity=".2" d="M391.8 147.4c.2.8-1.2.6-1.7.6q.4-1.3 1.7-.6"/><path fill="#91cde9" fill-opacity=".6" d="m369.8 160.3-.5.5q0-.5.5-.5"/><path fill="#94d7e4" fill-opacity=".1" stroke="#94d7e4" stroke-opacity=".1" stroke-width=".5" d="m106.9 270.3 1.2-.4q-.3.9-1.3 1.2z"/><path fill="#249bd1" fill-opacity=".1" d="m105.9 270.7.3 1H105z"/><path fill="#88c9e7" fill-opacity=".6" d="M277.3 95a2 2 0 0 1-1.4 1q.4-1 1.4-1"/><path fill="#7bc6e6" fill-opacity=".4" d="M282.2 92q-.4.7-1.2 1 .2-1 1.2-1"/><path fill="#8dcce8" fill-opacity=".6" d="M284.3 91q-.4.8-1.3.9.3-1 1.3-.9"/><path fill="#36a3d6" fill-opacity=".3" d="M191.8 292q0 1-1 .9z"/><path fill="#36a7d8" fill-opacity=".2" d="M110.8 268.1q-.2 1-1.1.8z"/><path fill="#83c1e8" fill-opacity=".1" stroke="#83c1e8" stroke-opacity=".1" stroke-width=".5" d="M189.1 293.8q0 1-1 1 .2-.9 1-1Z"/><path fill="#4aaddc" fill-opacity=".4" d="M115.7 265q0 1-.9 1z"/><path fill="none" d="M184 296.7q0 1.1-1.2 1.3z"/><path fill="#98d1eb" fill-opacity=".7" d="M272.4 98q-.4.9-1.4 1 .3-1 1.4-1"/><path fill="#83c7e5" fill-opacity=".5" d="M270.2 98.8q-.3 1-1.3 1 .3-1 1.3-1"/><path fill="#65badf" fill-opacity=".2" d="M287.2 89.2q-.5.6-1.1.8 0-1 1-.8"/><path fill="#76c2e6" fill-opacity=".4" d="M289.3 88q-.4.7-1.3 1 .3-1 1.3-1"/><path fill="#72c1e3" fill-opacity=".3" d="M268.3 99.8q-.4.9-1.3 1.2.3-1 1.3-1.2"/><path fill="#93ceeb" fill-opacity=".5" d="M420 242.8q0 .9-.8 1 0-.7.8-1"/><path fill="#87c6e8" fill-opacity=".3" d="M425.1 239.9q0 .8-1 .8.3-.7 1-.8"/><path fill="#5aa7cb" d="M73.7 173.9q0 .8-.7 1.2.1-.7.7-1.2"/><path fill="#75c4e3" fill-opacity=".3" d="M294.3 84.9q-.4.8-1.3 1.1.3-1 1.3-1.1"/><path fill="#fff" fill-opacity=".3" d="m169.3 307.3-1.3.7q.3-1 1.3-.7"/><path fill="#fff" fill-opacity=".4" d="M166.4 309q-.7.6-1.5.7.5-.7 1.5-.6"/><path fill="#8acbe8" fill-opacity=".5" d="M296.3 84q-.4.7-1.3 1 .3-1 1.3-1"/><path fill="#73bfe1" fill-opacity=".2" d="M430.1 237a1 1 0 0 1-1 .8q.2-.8 1-.8"/><path fill="#5ebbdd" fill-opacity=".1" stroke="#5ebbdd" stroke-opacity=".1" stroke-width=".5" d="M435 233.8q0 1-1.2 1.3.6-.8 1.3-1.3Z"/><path fill="#249dd2" fill-opacity=".2" d="M154 314q-.3 1.1-1.3.7z"/><path fill="#7ec4e6" fill-opacity=".4" d="M261.8 103h1.4q-.4.7-1.3 1z"/><path fill="#37a4db" fill-opacity=".1" stroke="#37a4db" stroke-opacity=".1" stroke-width=".5" d="M440.1 230.6q-.2 1.2-1.4 1.4z"/><path fill="#6a90a2" fill-opacity=".7" d="M258.3 106.3q-.6.5-1.3.6.4-.7 1.3-.6"/><path fill="#98d0eb" fill-opacity=".7" d="M298.3 83q-.3.7-1.2 1 0-1.1 1.2-1"/><path fill="#78c4e6" fill-opacity=".4" d="M301.2 80.9A2 2 0 0 1 300 82q.2-1 1.2-1.1"/><path fill="#fff" fill-opacity=".3" d="m150.3 319.3-1.2.8q0-1 1.2-.8"/><path fill="#fff" fill-opacity=".2" d="m142.3 324.3-1.2.8q0-1.1 1.2-.8"/><path fill="#89c8e6" fill-opacity=".6" d="M303.3 80q-.4.7-1.4 1 .4-1 1.4-1"/><path fill="#78c0e5" fill-opacity=".4" d="M308.3 77q-.5.7-1.3 1 .3-1 1.3-1"/><path fill="#8ecde8" fill-opacity=".6" d="M310.3 76q-.4.7-1.3 1 .3-1 1.3-1"/><path fill="#259ed3" fill-opacity=".4" d="M119 334.3q-.4.8-1.3.6z"/><path fill="#fff" fill-opacity=".3" d="m120.2 338.2-1.2.8q.1-1 1.2-.8"/><path fill="#fcffff" fill-opacity=".4" d="M117.2 340q-.5.6-1.4.7.5-.7 1.4-.6"/><path fill="#fff" fill-opacity=".2" d="m112.3 343.3-1.2.8q0-1 1.2-.8"/><path fill="#f9fcfc" fill-opacity=".3" d="m109.2 345.2-1.2.8q.3-1 1.2-.8"/><path fill="#f4fafd" fill-opacity=".4" d="M106.4 347q-.7.7-1.7.7.7-.6 1.6-.6"/><path fill="#267aa0" fill-opacity=".8" d="m446 348.3-.8.9q0-.9.8-.9"/><path fill="#65b8de" fill-opacity=".4" d="M325.8 221.3q0 .6-.7.3.3-.3.7-.3"/><path fill="#f4f8fb" fill-opacity=".3" d="m101.3 350.3-1.3.7q.1-1.1 1.2-.7"/><path fill="#e8f5fa" fill-opacity=".4" d="m98.3 352-1.1 1q0-1 1-1"/><path fill="#f1f6fa" fill-opacity=".2" d="m93.3 355.3-1.2.8q.1-1 1.2-.8"/><path fill="#dcf0f9" fill-opacity=".3" d="m90.3 357.3-1.6.9q.4-1 1.6-1"/><path fill="#69bce1" fill-opacity=".3" d="M313.4 73.9q-.5.9-1.3 1.1 0-1 1.2-1.1"/><path fill="#47809b" d="M148 360q-.1.9-1 1 .2-.9 1-1"/><path fill="#7ec7e5" fill-opacity=".5" d="M315.3 72.9q-.3 1-1.2 1.1 0-1 1.2-1.1"/><path fill="#95cfea" fill-opacity=".7" d="M317.3 72q-.3.7-1.2 1 .1-1 1.2-1"/><path fill="#5ab8e1" fill-opacity=".3" d="M330.7 218.2q0 .7-.6.5.1-.3.6-.5"/><path fill="#71bde3" fill-opacity=".3" d="M320.3 69.9q-.4.8-1.3 1.1.3-1 1.3-1.1"/><path fill="#7cc4e5" fill-opacity=".9" d="M421.9 363.2q-.3.5-.9.5z"/><path fill="#85c6e6" fill-opacity=".5" d="M322.3 69q-.3.7-1.2 1 .2-1 1.2-1"/><path fill="#43aed7" fill-opacity=".1" d="M335.8 215.2q0 .8-1 .8.4-.6 1-.8"/><path fill="#2b9cd5" fill-opacity=".1" stroke="#2b9cd5" stroke-opacity=".1" stroke-width=".5" d="M341 211.7q0 1.2-1.3 1.3z"/><path fill="#c8e5f0" d="M345 67.1v1l-1.3-.4q.5-.7 1.3-.6"/><path fill="#62b8de" fill-opacity=".2" d="m325.3 67.2-1.2.9q.1-1 1.1-.9"/><path fill="#97d1e8" fill-opacity=".1" stroke="#97d1e8" stroke-opacity=".1" stroke-width=".5" d="m367.8 122.3 1.3-.3q-.2.8-1.1 1.2z"/><path fill="#2ca2d3" fill-opacity=".2" d="M367 122.7v1.3h-1.3z"/><path fill="#b9ced6" fill-opacity=".2" stroke="#b9ced6" stroke-opacity=".2" stroke-width=".5" d="m129.8 376-.2.8h-.3q-.2-.8.5-.8Z"/><path fill="#4baddb" fill-opacity=".5" stroke="#4baddb" stroke-opacity=".5" stroke-width=".5" d="m441.8 197 .4 1-1-.3q0-.5.6-.8Z"/><path fill="#8acae6" fill-opacity=".3" d="M179 379q0 .6-.8.8 0-.7.8-.9"/><path fill="#6b818c" fill-opacity=".9" d="m331.7 63.3 1-.2.1.8q-.6-.1-1.1-.6"/><path fill="#2fa0d5" fill-opacity=".4" d="M176.7 380q0 1-1 .9z"/><path fill="#40aad8" fill-opacity=".3" d="M362 125.7q0 1.2-1.2 1.3z"/><path fill="#66b6e2" fill-opacity=".1" d="M174 381.8q0 1-1.2 1.4z"/><path fill="#259bd3" fill-opacity=".3" d="m95.9 192.2 1-.3q-.1.7-1 1z"/><path fill="#51b0dd" fill-opacity=".4" d="M356.7 129q0 1-.8 1z"/><path fill="#2fa0d5" fill-opacity=".2" d="M421 191h1.2l.1.7-1.6.3z"/><path fill="#266b8d" fill-opacity=".3" stroke="#266b8d" stroke-opacity=".3" stroke-width=".5" d="m85.2 131.2-1 .8q0-1 1-.8Z"/><path fill="none" d="M169 384.7q0 1.2-1.3 1.3z"/><path fill="#279dd5" fill-opacity=".3" d="m26 190.1 1-.1q0 1-1.2 1z"/><path fill="#219bd3" fill-opacity=".1" d="m426 188 1.3-.2v.9l-1.5.5z"/><path fill="#2780aa" fill-opacity=".7" d="M47.1 133.3q-.5.5-1.1.7.3-.9 1.1-.7"/><path fill="#257194" d="M183.8 61.1q0 .8-.7.6.2-.5.7-.6"/><path fill="#62b9e0" fill-opacity=".6" d="M84.4 185.8q-.4 1-1.4 1.3 0-1.3 1.4-1.3"/><path fill="#6bbce4" fill-opacity=".1" stroke="#6bbce4" stroke-opacity=".1" stroke-width=".5" d="M390.1 148a2 2 0 0 1-1 1.2q0-1 1-1.2Z"/><path fill="#6ebfe3" fill-opacity=".5" d="M87.3 184a2 2 0 0 1-1.5 1q.3-1 1.5-1"/><path fill="#76c1e6" fill-opacity=".2" stroke="#76c1e6" stroke-opacity=".2" stroke-width=".5" d="m385 151-.7.8q0-.8.7-.8Z"/><path fill="#76c2e4" fill-opacity=".4" d="m89 182 1 .3q-.3.4-.9.7z"/><path fill="#8ccae6" fill-opacity=".2" stroke="#8ccae6" stroke-opacity=".2" stroke-width=".5" d="m273 50 .7.1.5 1.2-1-.1z"/><path fill="#4aaadc" fill-opacity=".3" d="M416 194h1.4v.7l-1.6.4z"/><path fill="#31a0d4" fill-opacity=".3" d="m382 153.3-.8.7q0-.9.8-.7"/><path fill="#259cd5" fill-opacity=".4" d="m348.3 31 1 .3q-.6.7-1.6.7z"/><path fill="#269cd4" fill-opacity=".6" d="m165.4 24.8 1 1H165z"/><path fill="#40a8da" fill-opacity=".7" d="M117.2 180q-.3.8-1.3.9.4-.9 1.3-1"/><path fill="#7ec4e7" fill-opacity=".3" d="m380 154.4-.7.3q0-.5.6-.3"/><path fill="#69bbe0" fill-opacity=".9" d="M120 178q-.1.7-1 1 .3-.8 1-1"/><path fill="#86cae8" fill-opacity=".4" d="M374.7 157.2q0 .5-.4.5 0-.4.4-.5"/><path fill="#64bfdb" fill-opacity=".1" stroke="#64bfdb" stroke-opacity=".1" stroke-width=".5" d="M275 461h1q0 .8-.7.9z"/><path fill="#f6ffff" fill-opacity=".1" d="M273.8 462q0 1-.8.9 0-.7.7-.9"/><path fill="#fff" fill-opacity=".5" d="m173.2 303.9 1.2.2q-.7.4-1.6.6z"/><path fill="#4eafdd" fill-opacity=".9" d="M122.2 177q-.4.8-1.2 1 .2-1 1.2-1"/><path fill="#75c1e2" fill-opacity=".3" d="M275.2 96q-.3.7-1.2 1 .2-1 1.2-1"/><path fill="#279dd4" stroke="#279dd4" stroke-width=".5" d="m258.3 7.8-10.6.3q.2-.7.8-1c3.2-2.1 7.8-4.2 9.8.7Zm-36 1.9L222 11q-7.5 1.7-15 2.7l.1-.7 10.5-5.5q3-.3 4.6 2.2Zm32 4.6C235 25.7 216.2 39 197.1 51l-3.5 2.2c-.7.9.8 1.4-.6 2.2-3.2 1.4-5.5 3.8-9 4.9q-2-.3-3 1.4l-.7.2q-1.9-.3-2.4 1.5l-.6.5c0-1.2-1.4-.7-1.5.4q-7.8 3-15.5 6.4a198 198 0 0 0-70 53.3q-.5.5-.6 1.2-1.8 0-2.4 1.6l-2.3.7-48 27.8c.4-4 4.6-11.6 6.3-15.7q.9.6 1.7 0L89.3 111c1.7-1.4 9.1-5.3 9.7-6.8a3 3 0 0 0 3-2.2 2 2 0 0 0 2-.8c.7-.2 3.9-1.1 2.6-2.2q-2.2 0-2.6 2.2-1.4-.4-2 .8a3 3 0 0 0-3 2.2q-1-.2-2 .3l-9 5.2q-.7.8-1.5 1.3-19.8 11-39.4 22.4c.1-3.6 7.3-13.7 9-17.5q1.1 0 .7-1.2 1.1.7 2.2.1l46.6-31.6 2.3-2q2-.4 3.2-2.1 1 0 1.6-.8c-.5-.9-1.6 0-1.6.8a3 3 0 0 0-3.2 2c-3.4.1-7.7 3.9-10.5 5.7a991 991 0 0 0-30.7 17.5 14 14 0 0 1-4 1.7A201 201 0 0 1 88 76.8q.8 0 .8-.5a30 30 0 0 1 5.3-5 5 5 0 0 0 3.1-.7l7-5.2c1.4-1-.2-1.7-1.3-1.6q1.8-2 3.9-3.5A208 208 0 0 1 166 28.7c-4.6 5.5-24.2 18.1-30.6 24.2l-5.5 3.5q-1 .5-.8 1.5-1.2 0-2 .8c.6 1 1.9 0 2-.8q1.8-.6 3.5-1.6L183.4 27c1.2-.6 7.3-4 7.5-4.8q1.2 0 1.8-1c8.1-2 17.4-4.1 25.7-4.3L166 52.5a4 4 0 0 1-2.3 1.9c-.8-.2-5.6 3.6-6.8 4.1q-.7.5-.9 1.4-3 .4-4.8 2.8c.7 1.4 4.4-1.7 4.8-2.8 2 .3 7-3.7 9.1-4.5l1.5-1.2q33-18.7 65.5-37.6 1-.5.5-1.4 11-1 21.7-.9Zm37.5 2a129 129 0 0 1 28.6 4.9c-15.9 8.8-31.3 19.2-46.7 29l-.6-.1c-2.7-4.4-7-1.6-10.1.5q-3 .4-6 .1c-2.1-5.4-6.1-3.3-9.8-1q-.8.3-1.3 1l-9.8.6q-.2-1.2 0-2.4l50.3-29q3-1.5 5.4-3.5Zm-126.4 8.5-.3 1-.8.9A264 264 0 0 0 135 39.9l-1.2-1.3 26.2-15q3-1.2 5.4 1.2ZM324.8 23q4.5.4 8.7 2.2c.8.5 3.4.7 3.2 2.1q-1-.5-1.7.1l-14.4 8.9q-1 .6-1.5 1.7-1.5 0-2 1.2-3.2.4-5 2.9-2.4-.3-3.1 2-1.2-.3-2 .7c.6 1 2.1.2 2-.8q2.1-.2 3-2c2.3.4 4-1.2 5-2.8q1.5 0 2-1.2c1.5.1 3.7-1.6 5-2.2l14-8.4c1.8-.6 9.1 2.6 10.3 3.7l-.6 1-37.8 23.4q-.8.5-.9 1.4L296 54c-2-4.6-6-4.3-9.3-1.2L276 51.4q24-13.4 47.7-27.3.9-.3 1.2-1.2ZM354 33.3q4.5 1.4 8.7 3.6 1 .3 1 1.2l-35.1 22q-1.2.6-1.6 1.7l-8-2.6a5 5 0 0 0-3.2-3.4l36.5-21a4 4 0 0 0 1.7-1.5Zm15.8 7.8c3 .5 7 3.2 9.5 5.1L348 65.7q-.6.3-.8 1l-1.4.4h-.8q-.8 0-1.3.6a33 33 0 0 1-5.5-2.5 5 5 0 0 0-4.5-2.6l35.5-20.5q.6-.3.5-1Zm15.1 8.6q4.5 2.3 8.5 5.3l-31 19q-.9.5-1.4 1.2c-1.5-.4-10.9-4-10.7-5.3q17.4-10 34.6-20.2Zm-272 1 1 .5q-.3.7-1 1.2-4.5 2.7-8.9 6-.7.4-1.8.6l-.6-1.2 2-1.7zm159.3 3.6q4.9.3 9.8.9l-62.4 36c-4 2.4-8.3 5.9-12.8 7-.7.6-1.5 2.2-2.6 1.2q.7-1.2 2-1.8c21.1-12.4 42.3-27.4 63.2-40.7q1.7-1 2.8-2.6Zm22.9 3q4 .3 7.9 1.7l-.3 1L284 71.6q-.9.7-1.3 1.6c-1.5-.5-2.8 1-3.9 1.7-2 1.5-3 1.5-4.4 3.8-3.7.7-2.3.3-4.5 2.7q-1.5.6-3.2.9c-1.1 2.2-2.8 1.8-4.7 2.7q-.9-2.2-2.2-4zm99.6-.5c2.2.3 7.7 4.2 8.4 6.4q-14.8 8.7-29.4 18a1 1 0 0 0-.5.9l-9.7-5.2a1 1 0 0 1-.3-.9q15.5-8.7 30.8-17.7.8-.4.7-1.5Zm-76.5 6.4 4.1 1.3-2.3 1a5106 5106 0 0 0-54.6 34.3l-3.2 1.5q0-1.2.7-2.2 26.4-16.8 52.7-33.9 1.4-.8 2.6-2Zm-114 .6a2 2 0 0 1-.8 1l-49.5 28.5c-1.4 1-2.8 3-4.7 2.2q0-.8.7-1c3.3-2.1 21.7-15.3 22.2-17.9q0-.6.7-.6c.3 2.2 2.2 0 2.3-1.2q7.4-3.4 14.9-6.4c4.2-1.4 9.8-4 14.1-4.6Zm200.9 0c2.6 2.2 13.1 10.6 14 13.3A804 804 0 0 0 391 94.3a171 171 0 0 0-17.2-11.6c0-1.3 1.5-.5 2.3-1l28-16.2q1-.6 1-1.7Zm16.8 14.9q3 3.3 6.4 6.4-13.8 8.1-27.2 16.8c-2.1-1.5-6.9-4.7-8-6.8zM355 81q2 1.1 3.8 2.5l-2.6 1.1-47.6 27.7-2.7 1.2-.8-.6 3-2.4L354 82.3zm-105 6-1.2 7q-.7 0-1.6.4-23.5 14.1-47.5 27.6c-1.4 1.5-8 4.3-8.5 5.3a6 6 0 0 0-2.8 1.4q-.7.2-1-.4Q218.8 108 250 87.1Zm116 2q2 .3 3 1.8l-39.7 22.7-8.2 5.2q-1 .3-2.1.4l-.2-1Q342.6 103.8 366 89Zm66 .6a23 23 0 0 1 6 7.6 2 2 0 0 0-1.7.3l-22.4 13.9q-.9.5-.8 1.5-4.5-3.7-8.4-8c2.2.1 25-13.1 27.3-15.3Zm-55.9 7q2 1.2 3.1 3L309 140.3q-.9 0-1.7-.3 1-1 2.4-1.8l66.5-41.4ZM441 101c1.9.3 5.5 6.3 6.4 8-2.5-.5-20 11.3-23.4 13.4q-1 .7-1 1.9c-1.7-2.6-5.7-5.8-6.9-8.5 3.2-1.8 24.1-13.3 25-14.8Zm-54.9 5q2 1.2 3.4 3.2a106 106 0 0 0-15.4 9.6l-1.3.5q-1 .6-1.7 1.7-1.4-.2-1.9 1l-1.3.3q-.5 0-.9.4l-1.2 1.3q-1 0-1.7.8-1 .3-2 1l-1.2 1.2q-1 0-1.7.8-1 .9-2.4 1.3l-.8.9q-1.2 0-1.9.9L351 133q-1.2-.2-1.9.7c-4.5 3.4-10.5 6.2-15.3 9.4l-44 25.4q-.8-.5-.8-1.4 48.5-30.8 97.1-61.1Zm64.8 7.7q2.7 3.4 4.6 7.4c-3.3 2.5-22 12.9-23.1 15.2l-6.6-8.5a769 769 0 0 0 25-14.1Zm-54.6 3.3q2 .9 2.8 2.8c-2.3 1.3-20.6 11.4-20.8 12.2q-.9 0-1.3.7c-1.7.8-7.5 5.1-8.7 5q-2.4 0-2.2 2.3l-.9-.2q-2.9.9-5.4 2.5l-27.2 15.6q-3.8 2.3-7.4 4.8-1.2.3-2.5.4l-.4-.3q37.2-22.5 74-45.8Zm63 9.7q2.7 4.5 5.1 9.2c-2.8 0-19.4 11.2-23 13.5-2.2-1.6-4.7-6-5.5-8.7 2 .2 19-10.7 22.3-12.2q1-.6 1-1.8Zm-375 5.3a285 285 0 0 0-21 38c-3.4.2-30.8 17.4-36.2 20l-1 .1c1.2-8.3 4.5-17.4 7.1-25.4q1.8-.6 3.4-1.7l45-29.2q1-1.3 2.8-1.8Zm326.6 4.3q2.1 0 2.3 2.4L330.6 186a7 7 0 0 1-5 2.4l-.3-.3q0-.5.5-.8l44-27 4.5-2.6q.4 0 .4-.5l5.3-2.8 1.2-.4.8-.7q1-1 2.3-1.5l.7-.8q1.2 0 1.9-.7l1.3-.3 1-.8a2 2 0 0 0 1-1.2c.4 0 1.8.2 1.6-.7q1.2-.3 2-1 2-.5 3-2 1.2-.3 2.1-1.1 4-1.8 7.8-4c.5-.8 4.4-2.2 4.1-3Zm56.4 5.5q4.4 8.4 7.7 17.1c-4.4.4-18.3 10.5-22.6 13.4a212 212 0 0 1-8.4-17.5c2.7-.5 19.5-11 23.3-13Zm-355 5.6q1 .4 1 1.4l-37.5 24.5q-1 .6-2 .6c.3-1.3 1.8-6.2 3-6.7 5-1.4 29-16.2 35.5-19.8Zm311.8 8.8q1.2 1.2 1.7 2.9L354 203.6q-.9.7-1.4 1.7c-1.4-.6-2.8 1-3.8 1.6q-2.4 1.3-4.2 3.3-1-.4-1.4.5-1.2.4-2.1 1l-1.4 1.3q-1-.2-1.5.9-1.1.8-2.4 1.3-.6.3-1 .8-1-.1-1.8.8-1 1-2.3 1.4-.5.2-.6.5a20 20 0 0 1-5 2.9l-23.2 14-.8-1.3q3.7-2.7 7.5-5.2zm52.9 9q.9.3 1.2 1.3 1.6 4 2.6 8.3c-2.6-.8-20.8 11.4-23.4 13.5L454 178c1.6.4 22.1-12 22.9-12.8Zm-45.7 5.8c1 .1 1.3 2 1.7 2.8q-1 0-2 .6l-44.4 25.5c-2.4 1.2-6.8 5.4-9.4 5l-.3-.6q27.3-16.4 54.4-33.3ZM62 172.7q-5 14.7-9 29.6-16 8.8-32 18 1-12.8 4-25.4c2.5.6 32.2-19.7 37-22.2Zm419 4.6q1.1 0 1.3 1.1 1.2 3.9 2 7.8a249 249 0 0 0-23 14c-1.6-1-2.6-8.2-3.3-10.2 3.3-.5 19-10.4 23-12.8ZM440.2 192a18 18 0 0 1 1.6 4.8q-.6.2-.6.8l-5.3 3.3a2 2 0 0 0-1.8.9c-30.3 18.3-61.8 35.7-92.4 53.8a2 2 0 0 1-1-1.5l97.6-61.4zm45.6-.4q1.7 5.1 2.3 10.4-1.2-.7-2.4.1L464 215.7q-.6.1-.8-.4l-1.8-10.3c3.9-.5 19.8-10.7 24.3-13.3ZM37 200c-1.5-.4-3 1.6-4.6 1.9q-1.6.6-2.4 2c-1.4.1-4.5 1.6-5 2.8.7 1.3 4.6-1.6 5-2.8 1.5.2 6.4-2.6 7-4 .7.1 4-1 2.6-1.9q-2 0-2.6 2Zm51.8-.4 1.1.7a29 29 0 0 1-5.2 3.9l-21.8 14-2 .9.3-2.3q1.2-.2 2.2-.9l23.3-14.5a6 6 0 0 0 2-1.8ZM52 206q-1 7.2-3 14.3c-1.2-.3-28 15-29.8 17q-.3-6.3 1-12.5.9.5 1.8 0zm392.7.7.9 3.1-52.4 30.1-1.5.3v-1l51.2-31.8q.9-.5 1.8-.7Zm-386 49.1v-3.7q1-.2 2-.7 17.4-10.2 34.9-20.1 11.3-6.6 22.5-13.7c1.7-.4 3.9-3 5.7-2q0 .7-.7 1-2.3.3-4.3 1.7a50 50 0 0 0-5.9 4.3Q86 239 59 255.8ZM448 219c.1 1.7 1.4 4.4.8 6l-1 1q-2.2 1.4-4.1 3.3-.9-.3-1.4.5-1.2.3-2 1l-1.5 1.3q-1.2-.2-1.7 1-1.1 0-2 .8l-1.2 1.3a2 2 0 0 0-1.8.8 2 2 0 0 0-1.9 1.1q-.8 0-1 .8l-1.4.4-.7.7q-1.2 0-1.9 1-.7 0-1 .8l-2.1 1.4q-1.2-.2-2 .7-.8.3-.8 1L327.7 297q-.8-.2-.8-1 60.4-38.6 121-77Zm-399.1 5.8q-.6 7.2-1.7 14.3-1.2-.6-2.4.2l-25.7 15A111 111 0 0 1 19 243c3-.3 25.7-15.3 29.9-18.2Zm444.4 8.2q1 10.1 1.1 20.2l-1.2.5-13.1 8.2q-5.7 3.1-11.1 6.9-2 .9-4 1.4l1-22c2.6.2 23.6-13 27.3-15.2Zm-328.2.9.2 1c-15.5 9.6-31.3 19.9-47 29.2q-1.1.9-2.5 1l-.9 1q-1 0-1.7.9-1 .9-2.3 1.2l-1.1.8q-1.1 0-1.6 1l-1.2.4-1 .4-1 1q-1 .4-1.8 1.1-2 .3-3 2-1 .1-1.8 1c-2.4.5-6.1 3-8.3 4.3l-26.2 15-.7-3 97.9-56.4q2-1.3 4-2Zm-31 2.5q0 .3.4.5a9 9 0 0 1-2.1 2q-12 7.3-24 15a5 5 0 0 0-2.4-1zM451 236l.3 3-1.9.7Q438 246 427 252.8q-1.5.2-3 0c1.5-1.6 23-14.4 26.9-16.9Zm-404 7q0 6.6-.7 13c-3.7.5-20.4 11.5-25.1 13.7l-2 1.6q-.4-5.6-.3-11.3c3 0 24-14.4 28.1-17Zm405.1 6q.4 1 .4 2-21.8 12.7-43.5 25.7l-2.2.5-.2-.8q21.8-13 43.3-26.6 1-.6 2.2-.8ZM80 254.7q0 1-.3 2c-5.2 2.6-15 10-19.9 11.7q-.4-1.1-.4-2.3c4.8-2.5 16.4-10 20.6-11.4ZM46.7 257v12.3c-3 .9-21 12-25.7 14.1-1.5-1.5-1-8.2-1.1-10.4a3 3 0 0 0 2.1-.3c6.5-4.3 19.4-11.2 24.7-15.7Zm45.4 3q2.5-.4 5 .2c-2 3.3-30.4 19.5-35.8 22.9l-.5-5c6.1-2.3 23.7-13.3 30.7-17.1q.5-.5.6-1Zm360.8 2 .2 2.1a904 904 0 0 0-27.1 15.4l-2.1.8v-1q13.6-8.2 27.1-16.7.9-.6 1.9-.7Zm-406.1 8.8q.4 10.8 1.3 21.4-1.2-.6-2.4.2l-21.9 12.8q-1.9-9.6-2.8-19.3a3 3 0 0 0 1.7-.5q6.6-3.9 12.8-8.1zm447.2 1c0 3 .5 9-1 11.4-3 .8-28 17.5-33 20.2q.8-7.5 2.8-14.6c2.5.4 27-14.7 31.2-17Zm-278 4q1 .1 1 1c-7 4.7-18 12-25.3 15.3l-1 .9a2 2 0 0 0-1.6 1q-.8 0-1 .9l-1.4.2-.8.7q-1 .4-1.8 1l-1.3 1.3q-1-.2-1.6.6l-2 1-1.4.7q-1.2.3-1.6 1.4-2.5.4-4.1 2.1l-.8.5q-.9.2-1.5.7-2 .9-3.8 2l-1.2.7q-1.8 1.4-3.9 2.3-.7.2-1.3.7l-.7.4-1.3.8-5 2.8-.7.4-1.3.8-5 2.8-.7.5-1.3.8-4.9 2.7-5 3-.5.5-1.5.7-5 2.8-.8.4-1.3.8-5 2.8-.6.6-1.3.6-3 1.7-.7.4-1.3.7-5 3-.7.5-1.4.7-5 2.8-.6.4-1.4.8-5 2.8-.5.6-1.3.7-3.1 1.6-.7.4-1.2.8-.8.5q-1-.7-1.2-2 65.7-37.5 131.1-75.5Zm-99 2.3q.3 1 .2 2c-16.6 9.7-32.6 20.7-49.4 30q-.8-1.5-1-3 25.2-14.4 50.3-29Zm35.2 5.8q.8 0 .9 1L78 331.4l-2 .9a7 7 0 0 1-1.7-3.2c25.1-15.6 52.1-30.5 77.9-45.4Zm299.8 3.4q.1 2.4-.7 4.7a5 5 0 0 0-2 .8Q429 304.5 408.6 316l-15.6 9.5q-1.2 0-2.3.7-.8 1.7-2.6 1 0-.6.7-.9l12.6-7.4zm40.6 2.5q-.4 6.3-1.8 12.5c-1.6-.2-31.6 20-35.9 22.2q1.4-8 4.2-15.5c4.9-2 27.5-15.3 33.5-19.2Zm-445.8 3.9 1.2.4c1 2 1.5 7.3 2 10-1.6-.6-22 11.9-23 12.8q-1-.3-1-1.3-1-4.2-1.8-8.6a2 2 0 0 0 1.8-.2c4.2-2.8 18-10.6 20.8-13.1Zm4.2 15.2q1.6 5.3 2.8 10.5a2 2 0 0 0-1.8 0q-10.6 6-21 12.5-1-.3-1-1.3a75 75 0 0 1-2.2-8.4c2.3.7 19.6-11.7 23.2-13.3Zm438.1 2.1q-.8 6.8-3 13.2c-3 0-34.4 21.4-40 24.2.3-3.4 5.2-13.6 6.8-17.4 2.8.4 31.5-17.3 36.2-20Zm-42.4 6.2-2.7 9-66.4 38-2.4 1.9q-1.2-.6-2-1.6l2.5-1.1q34.5-23 69.4-45.8.7-.4 1.6-.4Zm-225.5.8h1a8 8 0 0 1-3.2 2.7L152.9 362a10 10 0 0 0-4-1.9q.5-.9 1.4-1.4zM55 322.8c1 3.2 2.8 7 3.1 10.4-2.3.1-20.2 10.8-22.8 13q-2-4.5-3-9.3A220 220 0 0 0 55 322.8ZM249 333q.3 1 .1 2L186 375.1a2 2 0 0 0-2 .7q-1.3 1.5-3 2.2-1.3-.1-1.9 1-.8 0-.8.8l-1.5.2-1 .9a3 3 0 0 0-1.6 1l-1.3 1.3q-1-.2-1.7.5l-2 1-1.4 1.3q-1.2 0-1.6 1c-1.8 0-3.7 1.4-4.9 2.6q-1.5.4-2.9 1.2l-28 16.2q-.9.4-1.2 1.3a8 8 0 0 1-4.1-3.3zm-188.7 5a87 87 0 0 1 3.6 9.3 272 272 0 0 0-22.7 13.1c-1.7-1.5-3-6.2-3.9-8.5q11.6-6.9 23-14Zm74.9 4q1 0 1 .9-20.7 12.5-41.4 25.3a6 6 0 0 1-1.7-2q21-12.3 42.1-24.2Zm343.6 5.8q-2.6 8-6.1 15.5c-.4-1.1-1.3-.3-2 0l-25 16.2q-2.9 1.5-5.6 3.3c-1 .9-4 1.9-4 3.2-1.6 0-4.7 1.6-5 3a3 3 0 0 0-3.1 2q-1.4 0-2 1.2l-2.1.4q-2 1.5.4 1.2 1.2-.5 1.7-1.6 1.4.1 2-1.1 2.1-.1 3-2a6 6 0 0 0 5-3c1.8.3 3.7-1.5 5.1-2.4l6-3.1c3.2-2.4 18.6-10.8 23.3-13.6l.4.1q-3.7 8.2-7.9 16.2-1 0-.7 1.1-1.2-.5-2.2.1l-56.4 37.8c-1.5 1.2-1.6 1.7-3.7 2.2q-.9.5-.7 1.5-1.6-.1-2.2 1.2-2 0-2.9 1.6c.8 1.1 2.7-.7 2.9-1.6q1.5.2 2.2-1.2 2.8-1 5.5-2.6 25.5-15 51.2-29.6-1 2.3-2.4 4.4Q413 457.4 346 483q.1-1 1-1.7l17-12.2c.3-.6 4-1.2 2.5-2.3q-2.3 0-2.6 2.3h-2a844 844 0 0 1-27.9 16.5q-.6.4-.8 1.2c-8.4 3-19.2 5.1-28.2 6.3l1-2q.6 0 1.2-.4 1.2-.6 1.7-1.7 2.1 0 3.1-2 1.4 0 2-1.1c.8 0 3.9-1 2.6-2q-2 0-2.5 2-1.5-.3-2 1.1a3 3 0 0 0-3.2 2q-1.3-.4-2 .8l-1.2.2q-1.2 1.3-3 1.6l-2.6 2a101 101 0 0 1-23.5 3.3q33-22 65.6-44.3l.8-.1q2.4-1.9 5-3.3c1-1 6.8-4 6.8-5.1 1-.6 5-1.3 3.8-3a6 6 0 0 0-3.8 3q-.9-.3-1.8.2-5 2.8-9.8 6-1 .6-2 .8L263 496.5q-.7.5-.7 1.4-9 1-18.2.2l.3-.8 48.7-31q.8-.5.8-1.4c1.1-1.9 6.3-3.7 8.3-5.5 2.3 0 6-1.5 7.1-3.7q10.5-2.7 21-6.2 51-17 86.6-57.2c2.1-1.7 12.3-16.6 13.4-16.5q.6-.2 1-.6l3.8-2.2zm-412 5 5.1 9.1a259 259 0 0 0-23.7 13.5c-1.8-1.3-3.6-6.4-4.3-8.6 1.3.3 21.4-12.6 23-14Zm8 14q5.4 8.4 11.5 16.3c-3-.3-22.2 12-26 14.3q-5-8-9.6-16.2c3 .4 20.6-12 24.1-14.3Zm60.5 1.2q-3 3.9-5.5 8.1-.7 0-.5.7c-2.6.9-2.2 2.6-5.7 2.6-1.4 2.5-2.3 2.4-5 3q-1.4 1.5-3.5 2.3a36 36 0 0 0-5 2.5l-.8.2a7 7 0 0 1-3.4-3.2c6.9-3.3 23.6-14.3 29.4-16.2ZM90 387.7l6.5 7.3c-3.2 1.9-26 14.6-26.3 16q-3-3.7-6-7.8C71 400 82.8 391.8 90 387.7Zm172 39.5V422c19.5-10.8 39.2-21.8 58-33.7q.9-.6 1.8 0l-4.7 3.1q-.4.6-1 1a4303 4303 0 0 0-52 34.1q-1 .6-2.1.7Zm-81-35.4v.9a1426 1426 0 0 0-40.5 25.4q-1.7-.5-2.6-2l41-23.6q1-.5 2-.7Zm-83.3 5.5c2.5 1 5.6 4.9 7.5 6.9a1208 1208 0 0 0-27.7 16.2c-2-2-4.9-5-5.8-7.7q1 .2 2-.3L97 398q.6-.1.7-.7Zm11.2 10.3 9 7.2c-6 1.9-21.4 12.1-28.2 15.5q-1.4 1-1.1 2.8c-1.4-2-6.6-6-6.8-8.3 5.2-3.2 23.8-14.1 27-17.2Zm90 .3.3.8Q180 420.3 161 432.2l-2.2-1.3 38-22.5zM173 438.1q-1.4 0-2.3-1 20.3-12 40.5-24.4 1.2-.6 2.5-.2-19.7 12.6-40 24.7-.5.3-.7.9Zm-52-20.3 19.4 12.5c-11.3 5.7-22.5 12.5-33.4 19.1-1.7-1.1-6.2-4.3-6.8-6.2 1.8-1.4 10.3-5.6 11-7q3-.8 4.9-3.1c1.6-.1 4.3-1.5 5-3.1 1.8.1 3.9-1.5 5-2.9q.4-.2.6-.6-.6 0-.5.6a8 8 0 0 0-5.2 2.9c-1.7.2-4.3 1.4-5 3-1.7 0-4.4 1.3-4.8 3.1q-1.2-.1-2.2.2l-9.8 5.9c-2.5-.8-5.8-4.3-7.2-6.6a2 2 0 0 0 1.8-.2c3.2-2.6 26.5-15.8 27.2-17.6Zm148 37.4q-1.2-.4-1.9.7l-8.1.9v-.8a10 10 0 0 0 3.2-2.5c2.7-.3 5.5-3.7 8.4-4.5 14.2-9 29.3-16.5 43.3-25.8q1-.3 1.9.1a4 4 0 0 0-2.6 2.2c-4.8 3-43.7 28-44.2 29.7Zm-141-29.3q.6 0 1-.5-.8-.3-1 .5Zm180 21.3q-.6 0-1-.3-1 .2-1 1.2-6 2-12.3 2.8.3-.9 1.2-1.3 20.6-11.7 41-23.9.9-.5 1.8-.2l-3.8 3.1q-12.8 8.6-25.3 17.5a2 2 0 0 0-.6 1.1ZM249.9 429a13 13 0 0 0 9.3 0q-1.5 2-3.6 3-15.6 10.5-31.3 20.6-1 .5-1.6 1.6-5.9-.4-11.5-2.2 0-.6.5-.8Q231 440.4 250 429Zm-106.2 4c3.8 1 10.6 5.1 14.5 6.8q.5 1.5 2.1 1.3 2.3.2 3.8 1.7l-.4 1.2-1.7.4q-10.4 6.4-21.3 12.3-6.2 4-12.6 7.7c-4-1.9-14-8.3-16-11.6q15.3-9 30.5-18.6 1-.4 1.1-1.2Zm216.1 8q.8 0 1-.7-.8-.3-1 .7Zm-96.8-.2.3 1-14.3 8.8a79 79 0 0 0-8 5.7l-4-.2q.3-1 1.3-1.5l22.7-13.1zm-81 8.5q.9.2 1.8.8 1.5 3.9 5.6 2.7.5-.3.5-.8c1 .3 5.2.7 5.1 2l-39.6 23q-.8.4-1.1 1.2c-3 .1-7.8-3.2-10.6-4.4 5.6-3.5 36.2-20.9 38.3-24.4Zm21.3 6 14.9 3.3q-23.6 13.2-47 26.7c-1.8-.6-9.6-2.6-10-4.3q18.3-11.1 36.5-22.6.7-.4 1-1c1.6-.5 4.2 0 4.6-2ZM228 460q5.4 0 10.6 1 .6 1.8 1.6 3.3c-5 3-45.7 25.6-46.1 27.5a54 54 0 0 1-13.4-3.4l2.2-.8 38-24.3q.7-.4.6-1.3c1.7.5 5.8-.2 6.5-2Zm23 1.3q6.9.3 13.8 0 0 2.4 2.5 3.1l-49.8 28.7q-2 1-3.5 2.6c-2.6-.3-12-1-13.5-2.8q21-12.9 41.8-26.1a4 4 0 0 0 1.6-1.7q2.4 0 3.1-2.2 1 .3 1.7-.6 1.3-.2 2.3-1Zm113 18.5q.9.3 1 1.2l-13.8 7.7q-2.7.4-4.6-1.5c3.2-2 13.3-5.7 17.4-7.4Zm-49.8 17.4q-5.2 3-10.8 5.7-3.1.1-4.8-2.6 6.6-1.2 13-3zm-30.9 5.8-4.4 2.7q-3.5 2.2-6.1-1v-.5q5.3-1.4 10.5-1.2Z"/><path fill="#259cd4" fill-opacity=".5" stroke="#259cd4" stroke-opacity=".5" stroke-width=".5" d="M104 101q.4-2 2.6-2c1.3 1-1.9 2-2.6 2Z"/><path fill="#cfdce2" d="M183.8 450q3.1.8 6.1 2 0 .5-.5.8-4.1 1.2-5.6-2.7"/><path fill="#259dd4" fill-opacity=".3" stroke="#259dd4" stroke-opacity=".3" stroke-width=".5" d="M121 333q-.3 1-1.3.7zm-26 15q-.3 1.1-1.3.7zm21 85a9 9 0 0 1-5 3.1c.5-1.8 3.2-3.2 5-3Z"/><path fill="#259dd4" fill-opacity=".2" stroke="#259dd4" stroke-opacity=".2" stroke-width=".5" d="M128 329q-.3 1-1.3.7zm271.2 96.9q-.6 1.4-2.2 1.2.6-1.4 2.2-1.2ZM308.9 489q-.5 1.1-1.7 1.7l-.2-1q.5-1.1 2-.7Z"/><path fill="#289bd2" fill-opacity=".2" stroke="#289bd2" stroke-opacity=".2" stroke-width=".5" d="M135 325q-.3 1.1-1.3.7zm336.4 41-.6 1h-.5q0-1.2 1-1Z"/><path fill="#269dd5" fill-opacity=".4" d="M171.3 304.3q-.6.7-1.5.7.6-.5 1.5-.7m-64.3 37q-.4.8-1.4.6zm-7 3.8q-.4 1-1.4.8z"/><path fill="#269dd4" fill-opacity=".4" stroke="#269dd4" stroke-opacity=".4" stroke-width=".5" d="M477 225c0 1.9-2.5 1.6-3.6 2.8q-.7.3-1.4.1 2-2.1 5-2.9Zm-318 86q-.3 1-1.3.9zm269 80q-.5 1.3-2 1 .6-1.2 2-1Zm-302 36q0-.6.6-.6-.2.5-.5.6Z"/><path fill="#b5c6ce" d="M368.2 137.7q-.6 1.7-2.2 2.3-.2-2.3 2.2-2.3"/><path fill="#269dd4" fill-opacity=".3" stroke="#269dd4" stroke-opacity=".3" stroke-width=".5" d="M104 101a2 2 0 0 1-2 .9q.6-1 2-.8Zm17 329c-.7 1.6-3.4 3-5 3 .6-1.6 3.2-2.8 5-3Z"/><path fill="#269dd5" fill-opacity=".5" stroke="#269dd5" stroke-opacity=".5" stroke-width=".5" d="M111 79c.1-.6 1.2-1.6 1.7-.7q-.7.8-1.6.8Zm315 313q-.5 1.2-1.7 1.7-2.4.3-.4-1.2z"/><path fill="#b2c4cd" d="M175.1 74.8c0 1.1-2 3.4-2.3 1.2a5 5 0 0 1 2.3-1.2"/><path fill="#b2d5e5" d="m177.3 63.9-1.5.4c.1-1.1 1.5-1.6 1.5-.4"/><path fill="#269dd4" fill-opacity=".4" stroke="#269dd4" stroke-opacity=".4" stroke-width=".5" d="M129.2 57.9c-.1.8-1.4 1.8-2 .8q.7-1 2-.8ZM303 59l1.2.3q-.5.8-1.5.7zM111 79a5 5 0 0 1-3.1 2.2A3 3 0 0 1 111 79ZM37 200c-.6 1.3-5.5 4-7 4q.8-1.5 2.4-2.1c1.5-.3 3.1-2.3 4.6-2Zm88.9 130q-.3 1-1.3.8zm271 97c-.1.9-2 2.7-2.8 1.6q1-1.5 2.9-1.6Zm-42 17a6 6 0 0 1 3.7-2.8c1.2 1.6-2.9 2.3-3.8 2.9Zm-155 56.7q1.7 0 3.4.4c-.7 1.3-3.3 1.4-3.4-.4Z"/><path fill="#269dd4" fill-opacity=".5" stroke="#269dd4" stroke-opacity=".5" stroke-width=".5" d="M309 44c.1.9-1.4 1.7-2 .7q.8-1 2-.8Zm163 183.9c.4 1.6-2 1.9-3 2 0-1.5 1.8-1.8 3-2ZM364 469.2q.2-2.3 2.5-2.3c1.6 1-2.2 1.7-2.6 2.3Z"/><path fill="#269dd4" fill-opacity=".4" stroke="#269dd4" stroke-opacity=".4" stroke-width=".5" d="M312 42a4 4 0 0 1-3 2q.8-2.3 3-2ZM93 349.3q-.3.6-1.2.7zM359.9 441q.2-1.1 1-.7-.2.7-1 .7Zm-45.7 45q.4-2 2.5-2c1.3 1-1.8 2-2.5 2ZM317 39c-1 1.7-2.7 3.3-5 3q2-2.5 5-3ZM156 60c-.4 1-4.1 4.2-4.8 2.8A7 7 0 0 1 156 60Zm292.7 165 .4 1.1-1.4-.1zM133.2 326.3q-.5.8-1.5.6zM272 504l1 .2v.5a1 1 0 0 1-1-.7Z"/><path fill="#2693c6" fill-opacity=".9" d="M133.9 38.6 135 40q-9.7 4.8-19 10.7l-2 .6-1.2-.5q10.5-6.2 21-12"/><path fill="#269dd4" fill-opacity=".3" stroke="#269dd4" stroke-opacity=".3" stroke-width=".5" d="m207.2 13-.1.7-1.3.5q.3-1 1.4-1.2ZM479 224c.8-1.5 3.2-2.7 4.7-3.1 1.5 1.2-3.8 3.2-4.7 3ZM114 337q-.3 1-1.3.7zm13.8 89q.3-.9 1.1-.6-.4.5-1 .5Z"/><path fill="#262627" stroke="#262627" stroke-width=".5" d="M276.2 7v.4c1 .7 6.3.4 7.9.7q9.9.8 19.7 2 1.7.3 3.3 0 5.6 2 11.6 2 .6.8 1.7.9C440 37.6 502 139.4 509.7 255.5a235 235 0 0 1-72.7 175c-8.2 8-17.4 14.8-26.2 22.2a5 5 0 0 0-1.9.7 63 63 0 0 1-8.8 6 2 2 0 0 0-.8 2q-.8-.5-1.5.3-1.6 0-1.3 1.6c-.8-.4-2.7-.4-2.2 1q-1.7-.6-2 1-.9-.1-1.6.4-1.5.2-1.4 1.6-1.6-.6-2.1 1-1.6-.6-1.9 1-.8-.1-1.4.4-1.7.2-1.4 1.7c-.9-.5-2.6-.3-2.2 1q-.9-.3-1.3.5l-1 .2q-1-.1-1.9.4l-12 6.3c-4.1 1.7-14.2 5.4-17.4 7.4-1.8-.2-28.3 8.8-32.4 10q-1.4 0-2.6.2-6.4 1.6-13 2.9l-15.3 2.7q-5.3-.1-10.4 1.2l-1-.2a269 269 0 0 1-46.8 0q-3.7-1-7.4-.7a294 294 0 0 0-18-2.5l-16.6-4q-1.1-.9-2.5-.7-89.5-25.5-139-104.4a342 342 0 0 1-25.3-58.4C-16 238 5.8 139.5 83.6 74l18.6-15q1 0 1.8-.6 4.4-3.2 9-6 .6-.5 1-1.2 1-.1 2-.6 9.3-6 19-10.7l11-5.6a264 264 0 0 1 18.3-7.6q.5-.3.8-.9h1.3q19.4-7 39.4-11.6l1.3-.5a178 178 0 0 0 16.2-2.8Q235.4 9 247.7 8l10.6-.3c3.5-.6 15.6.7 18-.8Zm-43.5 8.2a51 51 0 0 0-14.3 1.7c-8.3.2-17.6 2.2-25.6 4.3h-2c-8 2.4-17 4.2-24.7 7.5a208 208 0 0 0-59.4 31.6q-2.1 1.5-3.9 3.5-1.8.8-3.2 2.2-3 2.5-5.6 5.3a30 30 0 0 0-5.3 5l-.7.5Q73.9 90.3 62.8 106l-6 8.6-.8 1.2c-1.6 3.8-8.8 14-8.9 17.5q-1-.1-1.1.7-1.6 2.7-2.7 5.6c-1.6 4-6 11.6-6.3 15.7q-.9 0-.7 1c-1.5 2.3-2.4 5.7-3.2 8.4-2.6 8-6 17.1-7 25.4l-.3 1q-1 1.7-.9 3.8a151 151 0 0 0-4 25.4q-1.1 2.2-.7 4.5-1.1 6.2-.9 12.5-.5 2.8-.4 5.6a111 111 0 0 0 0 11.4v5.6q0 5.7.4 11.3.2 1 .6 1.7c0 2.2-.4 8.9 1.1 10.4q-.3 1.3 0 2.5 1 9.8 2.8 19.3l.5 1.7q.6 4.4 1.7 8.7 0 .9 1 1.3-.4 2.8.8 5.3a75 75 0 0 0 2.2 8.4q0 1 1 1.3-.5 2.7 1.2 5 1 4.9 3 9.5.9 2.8 2.1 5.5c1 2.3 2.2 7 4 8.5-.2 2 1.4 5 2.6 6.4.7 2.2 2.5 7.3 4.3 8.6-.3 1.6 1.9 4.2 2.5 5.8a539 539 0 0 0 13.5 22.1 95 95 0 0 0 7.6 9.5c.9 2.6 3.7 5.8 5.8 7.7.8 1.2 2.7 4.3 4.3 4.4.2 2.3 5.4 6.2 6.8 8.3 1 .7 2 2.5 3.2 2.5 1.4 2.3 4.7 5.8 7.2 6.6q.2.7 1 1c.6 2 5 5 6.8 6.2 1.2 1.1 3.5 3.8 5.1 3.4a59 59 0 0 0 17.3 12q0 .6.4 1a121 121 0 0 0 14 8c2.8 1 7.6 4.4 10.6 4.3-.2 1.3 5.6 3.3 6.8 3 .5 1.6 8.3 3.6 10 4.2q4.8 2 9.7 3.1a54 54 0 0 0 13.4 3.4q3 1.7 6.4 1.1c1.5 1.7 10.9 2.5 13.5 2.8l6.6 1c5.4.4 11.2 1.6 16.5 1.1q2.8.4 5.6.4l1.2-.1q9 .7 18.2-.2 7.2.4 14.4-.9c6.3-.3 17.7-1.2 23.5-3.4q1.4.6 2.9.3c.6 0 2 .2 2-.7 9-1.2 19.8-3.2 28.2-6.3 3.3.5 9.6-2.4 12.8-3.8a224 224 0 0 0 107.5-85q1.4-2.1 2.4-4.4c2.6-2.4 4.2-6.6 6.3-9.4l.7-1.1q4.2-8 7.9-16.2l.6-1q.8-1.3 1.3-2.8 3.5-7.5 6-15.5 1.6-2.5 2-5.4 2.8-6.6 4.1-13.5 1.3-2.1 1.4-4.7 2.1-6.4 3-13.2a40 40 0 0 0 1.6-8.7q1.5-6.2 1.8-12.5.8-3.3.3-6.6c1.6-2.5 1-8.4 1-11.4q.7-2.8.1-5.6 1.1-5.7.1-11.3 1-.7.2-1.7a273 273 0 0 0-5-46.2c-.3-1.3-.1-3.8-1.2-4.8q-.6-5.3-2.3-10.4c-.2-1.3-.7-4.7-1.6-5.5q-.7-3.9-2-7.8-.2-1-1.3-1.2.3-1.2-.2-2.4-1-4.2-2.6-8.3-.3-1-1.2-1.3c.3-2.1-1.1-4.4-2-6.3q-3.2-8.7-7.7-17-1.3-3-2.9-6a151 151 0 0 0-9-14.8 38 38 0 0 0-4.5-7.4q-1.4-2.7-3.5-4.6c-1-1.8-4.5-7.8-6.4-8 0-1.5-1.4-3.4-2.8-3.8-1.1-2.8-4-5.5-6-7.6l-3.8-4.6q-3.3-3.1-6.4-6.5a4 4 0 0 0-2.8-1.5 74 74 0 0 0-14-13.3q-.9-.8-2-.6c-.7-2.2-6.2-6-8.4-6.4q0-1.2-1.3-1.8-4-3-8.5-5.3a19 19 0 0 0-5.6-3.5 24 24 0 0 0-9.5-5q0-.9-.8-1.2-2.5-1.5-5.2-2-.2-.8-1.1-1.1a53 53 0 0 0-8.7-3.6q-2.1-1.7-4.7-2l-1-.3c-1.2-1.1-8.5-4.3-10.2-3.7h-1.4c.3-1.5-2.4-1.7-3.2-2.2a31 31 0 0 0-8.7-2.2c0-1-3.6-1.2-4.4-1.7a129 129 0 0 0-28.6-4.8q-5.7-.9-11.5-1.2a253 253 0 0 0-26-.9q-10.8-.2-21.6 1Zm3.4 36 9.8-.4h11q3 .1 6-.2 5.2.6 10.3.6h1l1.7.2 20 2.6 13.1 2.8q1.5.5 3 .2 0 .6.5.7l6.6 1.5q3.9 1.4 8 2.6a34 34 0 0 1 5.7 2q2.3.6 4.4 1.5.6.9 1.7.4 2.4 1.2 4.9 2l1.3.3q.2.5.7.8l2.1.6q1.2.6 2.4.5c-.2 1.3 9.2 4.9 10.7 5.3q.9 1 2.2.8 0 .6.3 1l10.3 5.7A171 171 0 0 1 391 94.3q1 .6 2 .8c1.2 2.1 6 5.3 8.1 6.8q1.4 2 3.6 3 3.9 4.4 8.4 8.1a5 5 0 0 0 3 2.8c1 2.7 5 5.9 6.8 8.5q1.6 1.6 2.8 3.5l6.6 8.5c.7 1 2.2 4.3 3.5 4.4.8 2.6 3.3 7.1 5.4 8.7-.3 1.6 1.6 4.4 2.7 5.5a212 212 0 0 0 8.4 17.4c-.5 1.6 1.2 4.2 1.7 5.7l3.9 12c.7 2 1.7 9.3 3.3 10.3q-.6 2.4.3 4.7l1.8 10.3q.2.6.8.4-.7 2.6.2 5l1.6 22.5v4.8l-1 22-2 15c.3.6-.8 3.7-.1 3.7a93 93 0 0 0-2.8 14.6q-1.4 2.6-1 5.6-2.7 7.5-4 15.5-1.7 3-2.1 6.5c-1.6 3.8-6.5 14-6.9 17.4q-.9 0-.8.9-1 1.2-1.3 2.7-6.2 11.4-13.1 22.1-.9.7-.6 1.8c-1 0-11.3 14.8-13.4 16.5a197 197 0 0 1-86.6 57.3q-10.5 3.3-21 6.2-4.2.6-8.6 1.8L276 461l-.8-.2q-5.1.1-10.2.5a245 245 0 0 1-15.8 0h-1q-4.6-.4-9.4-.4-5.2-1-10.6-1-4-1.2-8.3-1l-1.6-.4-15-3.3q-3-.8-6.3-1l-1-.5-.9.3c.1-1.4-4-1.8-5-2.1q-3-1.2-6.2-2l-1.8-.7a18 18 0 0 0-5.2-1.4 3 3 0 0 0-2.6-1.1 9 9 0 0 0-4.4-1.7q-2.7-1.5-5.7-2.3-1.5-1.5-3.8-1.7a3 3 0 0 0-2-1.3c-4-1.7-10.8-5.9-14.6-6.8.2-1.2-2.5-2-3.4-2.7L121 417.8c0-1.1-2.2-2.1-2.8-3l-9.1-7.2q-1.5-2-3.7-3.4c-2-2-5-6-7.5-7q0-.8-.5-1.4l-1-.8-6.4-7.3-3.6-4.7A247 247 0 0 1 72 361.8l-5.2-9.1q-.9-3-3-5.5a87 87 0 0 0-3.5-9.3c-.5-1-1.2-4.4-2.3-4.7-.3-3.4-2.1-7.1-3.1-10.4l-1-3.5-3-10.5q0-2.6-.9-4.8c-.5-2.7-1-8-2-10v-2a524 524 0 0 1-1.3-22.9V257l-.3-1a158 158 0 0 0 .7-16.9q1-7 1.7-14.3l.7-4.4h-.3q1.8-7 3-14.3l.8-3.7q4-15 8.9-29.6A285 285 0 0 1 84.3 132l.9-.8q1.2-1.4 2.1-3.2 1.4-1.3 2.4-2.8.1-.7.6-1.2a198 198 0 0 1 85.5-59.7l1.5-.4.6-.5 2.3-.6q1.2.3 1.7-.7l2-1 20.6-5c6.5-1.7 13.6-2 19.8-4.3q.6.5 1.4.2c2.5.5 7.7-.4 10.4-.7Zm-30 11.8q-1.2 0-2 .8c-4.3.6-9.9 3.2-14.1 4.6a269 269 0 0 0-17.2 7.6q-.7 0-.7.7c-11 3.7-35.1 19-45.5 26.5a183 183 0 0 0-49 61 10 10 0 0 0-.9 3c-1.2.5-2.7 5.4-3 6.7L73 175q-3 6.3-4.8 13-1.2 3-2 6.1l-.3 2.7-.1 1q-.6.4-.8 1.2a98 98 0 0 0-2.9 11.9l-.1 1.4q-.6 2.1-.8 4.4L61 219a95 95 0 0 0-2.1 23 78 78 0 0 0 0 13.7 117 117 0 0 0 1.9 22.3l.5 4.9a150 150 0 0 0 3.4 15q.5 4.5 2.1 9 .2 1.5 1 3c.4 1.8 1.7 8.3 3.3 9v.9a50 50 0 0 0 4.9 12.5c.4 1.8 2.1 8 3.9 8.6 0 .5 0 1.9.8 1.8.6 2.9 2.3 6.2 4.1 8.6q.1 1.1 1.2 2a9 9 0 0 0 2.7 4.8c.7 2.6 3 5.5 4.4 7.8a6 6 0 0 0 1.7 2.1c2.2 4.6 8 11.7 11.1 16q1.3 2.1 3.4 3.2-.5 1.2.9 1.4c.5 2 4 5.4 5.8 6.7q.5 1.5 1.9 1.9l.7 1q2.8 3.7 6.5 6.6a8 8 0 0 0 4.1 3.3q.2 1.5 1.7 1.8a22 22 0 0 0 7.1 6 5 5 0 0 0 2.6 2q3.3 3.4 7.2 5.7l3 2.1a79 79 0 0 0 10.3 6.4c2.8 1.5 6.4 4.2 9.5 4.9q1 1 2.3 1c1 1.6 6.9 3.5 8.9 4.4q1.4 1 3.3 1.1.9 0 1.7.3a2 2 0 0 0 1.5 1.4A155 155 0 0 0 200 449q5.5 2.1 11.2 3 5.6 1.7 11.6 2.2c2.3 1 11.2 1.9 14.2 1.9q2 .3 4 .2c4.8 1 11.2.8 16.2.4h1.7l8.1-.8c.6 0 2 .3 1.9-.7 8.2-.4 17-2.2 24.9-4.3q6.2-.9 12.3-2.8 1-.2 1-1.2l1 .3q1.6 0 3.2-.5c31.3-8.3 71.5-29.3 92.8-53.8a3 3 0 0 0 1.4-.9c1.2-1.8 3.3-2.9 3.5-5.2q1 .1 1-.7.8-.4 1.1-1 .8-.2.8-.9c5.5-5.8 10-12.6 14.3-19.4q.7-.7.7-1.9 1.5-1.2 1.9-3 1.2-.7 1.4-2.1c2-3.3 6.5-11.2 6.9-14.7q1-1 .9-2.3.5-.2.8-.6 3-6.9 5.2-14.1c1-3 2-6 2.7-9q1.7-6 2.6-12.2.5-.3.5-.9l-.6-.7c1.4-1.1 2-9.4 2.1-11.4q.9-2.2.7-4.7 1-5.6.6-11.2.3-1 .3-2a197 197 0 0 0-1.7-35l-.3-3c-.4-3-.7-7.4-1.8-10l-.4-1.1c.6-1.6-.7-4.3-.8-6a148 148 0 0 0-3-12.2q-1.2-4.4-2.7-8.7l-.4-1a271 271 0 0 0-4.7-14.2l-.9-.8q-1.2-4.3-3.3-8.2c-.4-.8-.8-2.7-1.7-2.8 0-2.6-2.5-5.7-3.3-8.2l-2.2-3.7q-.5-1.6-1.7-2.9c-.4-1.4-3.8-7.9-5-8.2q0-1.2-.6-2.2c-1.6-1.8-3.4-5.9-5.3-7.1q-.2-2.3-2.3-2.4l-.2-1.2c-1-2.1-3.3-6.2-5.4-7.2q-.2-1.2-1-1.9a40 40 0 0 0-5.2-6.2 6 6 0 0 0-2.8-2.8 16 16 0 0 0-6.4-6.9 1 1 0 0 0-.4-.9q-1.3-2-3.4-3.1a22 22 0 0 0-6.8-6.4 8 8 0 0 0-3-3A51 51 0 0 0 369 91q-1-1.5-3-1.8c-.7-1.7-5.4-4.4-7-5.5q-1.8-1.5-3.9-2.5l-9.8-6q-8.9-4.8-18.2-8.4l-4.8-2.2-4.1-1.3q-6-2.2-12.3-3.4-.7-.7-1.7-.5L303 59q-3.9-1.4-8-1.7-6.4-1.6-13-2.1l-9.8-1q-33.8-1.4-66.1 8.8Zm53.7 18q1.3 1.8 2.1 4c.6 4.9 1.4 9.1 1 14q-.7 1.2-.7 2.3l-.4 1.7v1l-1 .1q-.6.4-.6 1.1-1-.3-1.2.8-.4 0-.7.3-.9-.2-1.3.6l-1 .2h-2q-.8-1.1-2-1.2c-2.7-4.1-3-6.8-3.3-11.8l1.2-7c2.2-4.5 4.4-7.3 10-6ZM150 141q.4.8 1 1.2c.3 1.7 2.8 4.3 1.6 5.9-3.7 3.8-7.7 3.3-12 1q-.4-1-1.3-1.4c-1.6-3.8-13.6-9.2-8.1-14 7-4.9 14.5 2.2 18.8 7.4Zm227-8.3q1 .3 2.2 0c1.4.1 3.2.4 2.4 2.3a21 21 0 0 1-6.6 8 72 72 0 0 1-8 5.7c-3 1.2-9.5 3.2-6.3-2.8q2.4-3 4.5-6.1l.9.2a4 4 0 0 0 2.2-2.3c1.2.1 7-4.2 8.7-5Zm-113.6 49.5-.2 1.7q.3 21.3-.9 42.4.4.7 1 1c11.2 1.7 17.2 7.8 22.6 17l.3.4c.9 5.3 2.2 10.4.9 15.8q-1 3.3-1.7 6.7l19.3 11.6c8.2 5.1 15.3 10.5 22.3 17q0 1 .8 1.1c.8 2.4 1.7 4.8-2 4.6l-5.2-.8-1.4-.8c-14-5.6-27.7-14.9-40-23.6q-.8-.2-1.4 0c-15.9 12.4-38.7 13.3-49.8-5.7q0-.9-.7-1.6c-6.1-18.4 1.7-36.6 21.3-40.9q.9 0 1.3-.8l-.8-19.8c0-19-.8-44.2 4.7-62.2q2.3-5.9 5-.4c3.8 11.2 3.5 25.6 4.6 37.3ZM237.8 260l.5 2.4c.6 2.5 4.2 9.2 6.6 9.8q.4.8 1.2 1.3 0 .4.3.7 5.3 3.8 11.6 3.6 8-.2 12.7-6.4.3-.5.3-1c5.2-5.7 4.8-17 1.2-23.5q-.5-2.2-2-3.7a17 17 0 0 0-8.3-7.3c-1.5-1.2-4-1.6-6-1.6-13.7-.3-20.2 11.5-18.7 24q0 1 .6 1.7Zm-132-7.2a5 5 0 0 1 2.4 1c-.6 5.6-6.8 6-11.1 6.4q-2.5-.6-5-.3c-3.6-1.5-10.7 1.1-12.5-3l.3-2q.8-.1 1.1-.8 2.7 0 5-1.2c6.6-.4 13.3-1.4 19.9 0Zm318.2.2 3-.1c1.9.4 6.7-.3 4.4 3.2-4 4.4-11.1 2.5-16.4 3.1l-3-.3c-2-.2-7.2.7-7.8-2.3.4-3.1 17.2-3.6 19.8-3.6ZM148 360l1-.1q2.1.5 3.9 2c.3 8.2-10.7 15.9-17.6 18.6q-5.1 1.6-5.7-3.8l.2-.8q2.6-4.2 5.5-8.1 1.2 0 1.4-1 .9-.3 1.2-1 1 0 1-.7c2.4-1.4 5.5-4 8.1-4.3q.9 0 1-.8Zm225.2 4.3q.8 1 2 1.6c2.3 2.8 11 10.2 4.9 13.5-7 4.2-11.3-2.7-16-6.7q-.5-.6-1.2-1c-2.4-3-6.7-9.2-.3-10.7 4.5-1.5 7 1.1 10.6 3.3ZM262 422l-.1 5.2q-.9 0-1 .6a2 2 0 0 0-1.7 1.2c-3.2 1-6 1.4-9.2 0q-.5-8.2 0-16.5 2.2-7.6 10-5.8c4.3 1.8 1.7 11.8 2 15.3Z"/><path fill="#267aa1" fill-opacity=".9" d="m304 493 1 .2c0 1-1.4.8-2 .7q.3-.7 1-1"/><path fill="#8faab6" d="M268.9 455.2c.2 1-1.3.7-1.9.7q.6-1.1 1.9-.7"/><path fill="#4288a9" d="M139 365.2q-.3.7-1 .7.3-.6 1-.7m-1 .7q-.4.7-1.3 1 .4-.7 1.2-1m-1.3 1q-.2 1-1.4 1 .2-1.2 1.4-1"/><path fill="#33a3d6" fill-opacity=".9" d="M175.3 361.8h1q-.5 1.1-1.4 1.6-15.7 9.8-31.8 19.3-1.2.8-2.3 1.8l-2.7 1a7 7 0 0 1-5.5 2.8c-.8 2.3-2.2 1.6-4 2.6l-1.2 1.9q-1.7.2-3.3.8-2.4.6-4.2 2.4l-.7.8-1.3.5q-1.4-.5-2-1.9 6.3-3 12.3-6.6l45-26.2q1-.6 2-.8m11.8 80.8q-1 .3-2 1-1.8-.1-3.3-1.1l62.3-35.9q6-3.6 11.7-7.4 1-.6 1.9 0-10.7 7.3-21.7 14.2-15.2 9.5-30.6 18.6l-2 1.7-2.4.9a7 7 0 0 1-5.4 2.7q-.7 2-3 2c-1.3 2.8-2.8 2.5-5.5 3.3"/><path fill="#5db5dd" d="M438.8 340.2q-.3.5-.8.6.1-.7.8-.6m-.8.6q.2 1.4-1 2.3a290 290 0 0 0-20 11.7q-1 .6-1.8-.2l13.9-9q4-2.1 7.7-4.6z"/><path fill="#8d9a9f" d="M449.8 304q0 .6-.5 1z"/><path fill="#89c9e7" d="m322.2 162.8.4.3q.4.5 0 .9l-5.6 3.3q-1 .6-2 .2c.3-1 6-4 7.2-4.7m-3 137 1.3.9c-1 1.7-4 2.2-5.4 3.6q-1 .8-2.1.3 1.2-1.4 2.8-2.4 2.3-.4 3.3-2.3m130 3.5.6.7-.5 1c-2.7.8-7.9 4-10.2 5.8q-1.2.6-2.1-.1l4.8-3.4q3.6-2.2 7.4-4"/><path fill="#6fbee2" d="M404.2 126q.8.7 1 1.9-12.7 7.2-25.1 14.9-1.1.3-2.3.3l.7-1 24.5-14.8q.9-.3 1.2-1.3m-97 14q.9.3 1.7.3l-2.2 1.8c-5.5 3-11.6 6-16.6 9.7a19 19 0 0 0-3.7 1.9q-2.7.3-.5-1.2a29 29 0 0 0 6.9-4.3q6.3-3.5 12.5-7.5.9-.6 2-.6m84.6 99.1v1q.2 1-.7 1.4-9.6 5.4-19 11.2-1.2.8-2 0 .1-.8.9-1 10.5-6.2 20.8-12.6M176.2 362h-1q.3-.9 1-1.2 10.6-6 20.8-12.1a2 2 0 0 1 2-.1q0 .8-.8 1-2.3.7-4.1 2l-16 10.2q-.9.5-1.9.2m131 85q-.2 1-1.1 1.2 0-1 1-1.2"/><path fill="#269dd3" fill-opacity=".3" d="M307.1 10.2q-1.6.1-3.3-.1c.3-1.5 3.2-1.8 3.3 0"/><path fill="#269dd4" stroke="#269dd4" stroke-width=".5" d="M262.9 14.3q8.7.1 17.4 1a2260 2260 0 0 0-49.5 32c-1.7 1.2-3.7 1.7-4.9 3.6q-1.1 0-1.6.9C218 54 211 54.4 204.5 56l-20.7 5 .3-.8c3.4-1 5.7-3.5 9-4.9 1.3-.8-.2-1.3.5-2.2l3.5-2.2c-.7 1.9 1.3 1.5 2.2.7l60.8-35q1.6-.8 2.8-2.4Zm38.2 220 .8 1.3-15.8 9-.3-.4q.3-1 1.2-1.6zm193 20.5q1 5.7 0 11.3c-3 .7-26.7 16.2-31.2 19l2-15q2-.5 4-1.4 1 .3 2.1-.1c2.1-1.8 9-4.4 10-6.6q1.1 0 2-.4 5.7-3.2 11.1-6.8Zm-9.3 74q-1.3 6.9-4 13.5-23.3 14.2-46.1 29-1 1 .3 1.7l-3.8 2.2-.4-1.2q7-10.9 13-22c3.5 0 35.6-20 41-23.2Zm-320.7 114q3 .8 5.7 2.3 1.4 3 4.4 1.7 1.6 0 2.6 1.1a1693 1693 0 0 1-37 21.6q-.8.6-.9 1.8-4.7-2.6-9.2-5.5a1 1 0 0 1-.4-1q1 .3 1.7-.1l11-6.7 21.4-13q.4-.6.3-1zm136.5 14.8 1.4 1.8c-2 1.8-7 3.6-8.2 5.5q-1 0-1.8.5l-54 31.3a2 2 0 0 0-.8 1.1c-5.3.5-11.1-.7-16.5-1.1l47.5-30q1.2-.9.8-2.4c1-.1 3.8-.1 4-1.4q1 0 .8-.9l1.5-.1q.6-.2.6-.8z"/><path fill="#feffff" stroke="#feffff" stroke-width=".5" d="M257 50.7h-11q.3-.7 1.3-1c3.6-2.3 7.6-4.4 9.7 1Zm16-.6.2 1q-5.2 0-10.2-.5c3-2.1 7.4-4.9 10-.5Zm-41-1.4 4.2.2q-.4 1.2 0 2.4c-2.8.3-8 1.2-10.5.7l.2-1.2c2.8.3 3.7-1.6 6.2-2Zm64 5.3-9.3-1.2c3.2-3.1 7.4-3.4 9.3 1.2Zm-23.8.3q-1 1.6-2.8 2.6c-20.9 13.3-42 28.3-63.3 40.7q-1.2.6-1.9 1.8c1 1 1.9-.6 2.6-1.1 4.4-1.2 8.8-4.7 12.8-7.2q31.4-17.8 62.4-36 6.6.6 13 2.1L259.9 81c-5.5-1.2-7.7 1.6-9.9 6q-31.2 21-62.6 41.4.3.6 1 .4a6 6 0 0 1 2.8-1.4c.5-1 7.1-3.8 8.5-5.3q24-13.5 47.5-27.6.7-.4 1.6-.4c.3 5 .6 7.7 3.3 11.8l-.7.8q-6.8 4.2-13.4 8.8l-29.7 18.9q.5.5 1.1.3 4.2-3 8.6-5.4l24.8-14q1.8-.7 2.6-2.4c1.3.3 4.8-1.5 4.7-3 1.9.5 4.7-1.7 6-2.8l1-.2q.8 0 1.3-.6l.7-.3 1.2-.8q.8-.3.6-1l1-.2q1-.3 1.4-1h.9q.8-.2 1.3-1l1.6-1q.9-.3 1.3-1.2h.6q1 0 1.3-1l.8.2q1-.2 1.4-1l1.6-1q.9-.3 1.2-1h.8a2 2 0 0 0 1.3-1q1.8-1.2 3.7-2 .8-.3 1.2-1l.8-.1q.9 0 1.3-.9l1.8-1q.6-.2 1-.8l1-.1q.8-.5 1.2-1.2l.7.1a2 2 0 0 0 1.3-1.1q.8-.6 1.7-.9t1.3-1.1l.7.1q.9-.3 1.3-1h.8q.9-.3 1.2-1l1.7-1a2 2 0 0 0 1.2-1.1h.7q1 0 1.4-1L307 78q.8-.3 1.3-1h.7q.9-.3 1.3-1 .7-.9 1.7-1 .9-.3 1.4-1.1l.7.1q.9-.2 1.2-1.1h.8q.9 0 1.2-1l1.7-.9q.9-.3 1.3-1.1h.8q.9 0 1.2-1 .8-.6 1.8-.9.7-.2 1.2-.8l1.8-.6q9.4 3.7 18.2 8.6-.7 1-1.9 1.7-6.3 3.8-12.3 7.8c.4 1 1.2.3 2 .1 4-2.5 10.5-7 14.8-8.2L355 81l-1.1 1.1-45.7 28.4-3.1 2.4q-1 0-2 .6l-22 13.9a2 2 0 0 0 1.9.1 107 107 0 0 1 18.9-11.2q2.2-1.1 4-2.8l2.7-1.2 47.6-27.7q1.2-.7 2.6-1c1.7 1 6.4 3.7 7.1 5.3q-23.4 14.9-47.2 29.2l-16.6 10.4c.6 1.3 2.1-.9 3.1-.8l12.8-7.3q.9-.4.9-1.3 1 0 2.1-.4 4-2.7 8.2-5.2L369 91q3.9 2.6 7.2 5.9l-66.6 41.4q-1.4.8-2.4 1.8-1 .1-1.9.7-6 4-12.5 7.5a29 29 0 0 1-6.9 4.2q-2 1.6.5 1.3a19 19 0 0 1 3.7-2c5-3.7 11-6.6 16.6-9.6l2.2-1.8q35.3-20.2 70.3-40.6c2 1.2 5.8 4.4 6.8 6.4q-48.6 30.4-97.1 61-9.2 5.5-18.2 11.3c-2.3 1-5 3.2-7.4 3.8-1.1-11.7-.8-26.2-4.6-37.3q-2.7-5.4-5 .4c-5.5 18-4.6 43.2-4.7 62.2l.7 19.8q-.3.7-1.2.8c-19.6 4.3-27.4 22.5-21.3 41l-11.3 6.7q-65.4 38-131 75.6a23 23 0 0 1-4.2-8.6q1.2.1 2.3-.5a2504 2504 0 0 1 41.3-25.3l15.7-9.8q.7-.3 1-1.1 2.1-.2 3-2 1.6.1 2.2-1.3c1.4.7 2-1.2 3.1-1.6.5 0 2.3-.5 1.3-1.2q-1.2 0-1.3 1.2c-1.1.3-2.8.2-3 1.6q-1.6 0-2.2 1.3-2.2 0-3 2h-1.5l-16.7 9.6c-14 8.7-29 16.4-43 25.3-1.8-.6-3.5-6.8-4-8.6l2-1 75.2-46.7q10.8-6.7 22-13l2.8-2.2q-1-.6-2-.2l-23.7 14.5c-25.8 15-52.8 29.8-77.9 45.4q-2-4.5-3.2-9.3 1 .1 1.8-.5L91.6 308l4.4-2.2q1.6-1 3-2.3a2 2 0 0 0-2 0L71 319c-1.6-.7-3-7.2-3.3-9 16.8-9.3 32.8-20.3 49.4-30q12.7-8 25.5-15.6c1.6-.7 3.6-1.2 4.3-2.9a2 2 0 0 0-2 0Q131 270 117 278q-25 14.6-50.2 29-1.5-4.5-2.1-9l25-15.8q1-.3 1-1.4 1.4-.3 2.7-.9c1.4-1.7 4.7-1.9 4.9-4.1q.7-.9 1.9-1 2.3.4 2.9-2 .8-.7 1.9-1l1.2-.1q.5-.2.6-.6 1-.2 1.3-1.2 1.5.5 1.6-1 1 .1 1-.8 1.4-.3 2.4-1.2 1.5.4 1.7-1 1 0 1-.8 1.3-.3 2.4-1c15.7-9.4 31.5-19.7 47-29.3q5.2-3 10-6.3 3.8-1.5 6.6-4.2c-.6-1-1.5 0-2.1.1q-7 4.5-14.3 8.5a1 1 0 0 0-.4.9q-2.2.6-4 1.9L63 292q-1-4.5-1.8-9.1c5.4-3.4 33.7-19.6 35.7-23 4.4-.3 10.6-.7 11.2-6.2l24-15a9 9 0 0 0 2.2-2q.9.3 1.6-.1a100 100 0 0 1 10.2-6q1.9-1.8-.6-1.3l-11.7 7-28 16.3c-6.6-1.4-13.3-.3-19.9.1l25-15.3c1.5-2.1 2-1.1 3.8-2q1.5-.5 2.2-2a2 2 0 0 0-2 0Q98.4 243.5 81.4 253a1 1 0 0 0-.5 1q-.8 0-1 .6c-4.3 1.5-15.9 9-20.7 11.4q-.5-5.1-.4-10.3l54.1-33.2a50 50 0 0 1 5.9-4.3q2-1.4 4.3-1.8.7-.1.7-.8c-1.8-1.2-4 1.5-5.7 2q-11.2 7-22.5 13.6-17.6 9.9-35 20.1-.9.5-2 .7-.1-5 .1-10c2.2-.8 4.8-1.9 6.1-3.8q-.5-.5-1.1-.1a11 11 0 0 1-4.8 2q-.2-10.6 2-21.1l2-.9q10.7-7.2 21.7-14 2.8-1.7 5.2-3.9 2-.8 4-2l13.3-9q2.5-1.4 4.9-3a55 55 0 0 0 5.9-4.2c1.4-.4 4.5-1.7 4.8-3.3 1.7 0 8.6-4.7 9.4-6q1 0 1.7-.7 3.3-1.5 6.1-3.5 8-5.3 16-10.3l1-1 2.7-1 1.9-1.9c-1.1-.7-11.4 6-13 7.1l-15 8.5q-.5.3-.3.8l-1.4.5c-1.5 1.4-8.6 4-9 5.7h-.7q-1 0-1.2 1h-1q-.7.1-1 1-.9.3-1.8 1-.9 0-1.3.9l-1 .2q-.8 0-.8 1-1.6-.4-1.8 1c-1.4.1-3.3.3-3.3 2q-1.4-.4-2 .8c-2 0-6.8 3.8-8.9 4.7q-.8.4-1.2 1.3l-1 .3c-1.4.5-3.6 1.3-4.2 2.7l-.6.1q-3.6 1.5-7 3.5l-20.2 12-1.8.5q1-6 3-11.9.7-.3.7-1.3 1 0 2-.5 3.3-1.8 6-4.3 1.8-.5 2.3-2l.6-.2q1 0 1-1 1 .2 1.5-.7l.8-.2q.8 0 1.2-.7.8-.4 1-1.3l.8.2q1-.3 1.4-1.3.8-.2 1.4-.8a2 2 0 0 0 1.5-1l1.8-1q.6-.2 1-.8l2-1.5q3.8-2.2 7.4-4.6l1.1-1.7q1.5-.1 2.8-.7l37-24.7c4.4 2.4 8.4 2.9 12.1-1 1.2-1.5-1.3-4.2-1.7-5.8q4.6-2.4 8.8-5.3.6-.6 0-1-1-.1-1.7.4a67 67 0 0 1-8 4.7c-4.4-5.1-11.7-12.2-18.8-7.3-5.5 4.8 6.5 10.2 8 14l-69 39.9-1.8.6q2-6.7 4.8-13 .7-.4.7-1.2 1 0 2-.6l53.2-34.9q-1-.3-1.9.3l-14.8 8.7c-6.5 3.6-30.4 18.4-35.5 19.8q.3-1.5 1-3 17.8-35.7 49-61A260 260 0 0 1 172 76.6c-.5 2.6-19 15.8-22.2 17.8q-.6.3-.7 1c1.9 1 3.3-1.1 4.7-2l49.5-28.6q.5-.3.7-1 1.3.4 2-.8 32.3-10.2 66.1-8.7Zm43.6 1.5a5 5 0 0 1 3.3 3.4l-6.6-1.5q-.4-.2-.4-.7 1.8-.7 3.7-1.2Zm-9.9 4q6.3 1.2 12.3 3.4-1.1 1.2-2.6 2L263 99.1c.4-5-.4-9.2-1-14 2-1 3.7-.6 4.8-2.8q1.5-.2 3.2-.8c2.2-2.5.8-2 4.5-2.8 1.4-2.3 2.5-2.3 4.4-3.8a4 4 0 0 0 4.4-1.3q11-6 21.8-12.2.9-.6 1-1.6Zm83.9 50.3c2.5 1.1 5.2 4.4 6.4 6.9a5025 5025 0 0 1-74 45.8c-1.2.8-7 3.7-7.3 4.7q1.1.4 2.1-.2l5.6-3.3q.4-.5 0-.9 1.3 0 2.5-.4 3.7-2.6 7.4-4.8l27.2-15.6q2.5-1.6 5.4-2.5l-4.5 6.1c-3.2 6 3.4 4 6.2 2.8q-.1.6.5 1 5-2.4 9.8-5.2.9-.5.7-1.4 1.2 0 2.3-.3 12.4-7.6 25-15c2.1 1.1 4.6 5.2 5.5 7.3l-10.6 6.3q-1 .7-1 1.8-1 .8-2.2 1-2.3-.3-3 2-.8 1-2 1.1-1.3-.6-1.7.7-1 .2-1 1.2-1-.3-1 .8l-1.2.3q-1.3-.5-1.9.7-.7 0-.7.8-1.3.6-2.3 1.5-.9-.2-.8.7l-1.2.4q-.6-.1-.7.4-2.2 1.3-4.6 2.4-.4 0-.4.5l-4.5 2.6q-.5 0-.5.5l-43.5 26.5q-.5.3-.5.8-1 0-2 .6l-14.4 8.7c-.4.3-1.6 1-.5 1.5q2.1-1.5 4.7-2.2l12.7-8-.2-.3q3-.3 5-2.4l82.5-47.3c1.9 1.2 3.7 5.3 5.3 7.1q-18 10.8-36 22-1 .3-1 1.4-1.8.4-3.5 1.3-.9.6-1.2 1.7-1-.3-1.9.1c-1.7 1.5-7 3.4-7.7 5.5-2.9 0-8.2 4.8-11.1 6q-.7.5-1 1.2-2.1.1-3 2-1.4-.2-2 1-2.2.2-3 2-1.3-.2-2 .7c.6 1 1.7 0 2-.7q2.1 0 3-2 1.4.3 2-1 2.1 0 3-2l1.5-.1 8.9-5a5 5 0 0 0 1.7-2q1 .2 2-.3l7.5-4.5q.4-.5.1-.9c2 0 3.6-1.4 5.3-2.2l36-20.7q.8-.4 1-1.3c1.2.3 4.6 6.8 5 8.2l-115.4 73a90 90 0 0 0-7.5 5.1l-14.1 8.3q-.9.6-1.2 1.6c-5.4-9.1-11.4-15.2-22.5-16.9q-.8-.2-1-1 1-21 .8-42.4l3-1.2q11.7-7.2 23.6-14l44-25.5c4.8-3.2 10.8-6 15.3-9.4q1.2.3 1.9-.7l3.1-2.2q1.4.4 1.9-1 .9 0 .8-.8 1.4-.3 2.4-1.3 1.2.4 1.7-.8 1.2-.1 1.3-1.3.8-.6 2-.9c.5.3 2 .2 1.6-.8h1.3l1-.8q1-.3 1.1-1.2 1.5.3 1.9-1c.5 0 1.9 0 1.8-.8q1-.4 1.2-1.4a7 7 0 0 1 2.1-1.1c1.3.6 4.6-1 4.6-2.5 2.2.2 3.6-1.6 5.5-2.2q.7-.3 1-1c.6-.7 3-.8 2.6-1.9Zm9.1 9.7q3 2.9 5.3 6.2-.3.9-1.2 1.3-12.2 7.6-24.5 14.8l-.7 1a8 8 0 0 0-3-.1q4.5-3.2 6.7-8c.8-1.9-1-2.2-2.4-2.3l-1-.7c.3-.8 18.6-11 20.8-12.2Zm29 43c.8 2.5 3.3 5.6 3.3 8.2q-27 17-54.4 33.3-6 3.4-11.7 7.4.3.7 1 .4 5-2.7 10-5.7 1-.4 1-1.4c2.6.3 7-4 9.4-5l44.5-25.6q.9-.4 2-.6 2 3.9 3.2 8.2-1.4.9-3.2 1.3v.3q-.9.9-1.9 1.3c-.8.5-3.3 1.2-3 2.1q-1 0-.8.8l-1.3.3q-1.5 1-3.5 1.8a1 1 0 0 0-.3 1l-1.2.1a17 17 0 0 1-3.5 2q-.4.3-.1 1h-1.5l-16 9.4q-2 1.5.4 1.4c4.8-3.7 11.1-5.7 15.5-9.7l1.5-.4a8 8 0 0 0 3.4-2.7q.9 0 1.6-.3 2-1 3.5-2.6l1.4-.4q.6 0 .7-.6h1.1q1.2-.7 1.8-2 2-.1 3.5-1.4 1-.4 1.4-1.6l1.4-.3 3.1 9.3-1.8.7-97.6 61.4q-12.4 7.5-24.6 15.3.8.8 2 .3l7.5-4.9 16-9.3c30.6-18 62.1-35.4 92.4-53.7q1.2.2 1.8-.9l5.3-3.3 1 .3q1.5 4.4 2.6 8.7-.9.2-1.8.7l-73 45.2q1 .8 2 .1l19-11.2q1-.4.8-1.3.7 0 1.5-.3l52.4-30q1.3 4.5 2.2 9-60.6 38.4-121 77c-7-6.6-14.1-12-22.3-17.1l-19.3-11.6q.7-3.4 1.7-6.7c1.3-5.4 0-10.5-1-15.8l15.9-9 23.2-14.1q.6.3.7-.3 2.3-1 4.3-2.6.8.2.6-.5 1.3-.4 2.3-1.4 1.5.4 1.9-.8.7 0 1-.8l2.2-1.3q1.5.5 1.6-1 1.1 0 1.4-1.2l2-1c.5.3 1.9.5 1.5-.5q1.8-2 4.2-3.3 2.6.7 4.4-1.3 37.5-21.2 74.7-42.8Zm-36.1 46.5c.9 0 6-2.3 4.8-3.4-1 .2-4.7 2-4.8 3.4Zm55.9 16.6 1.4.1c1.1 2.6 1.4 7 1.8 10-3.8 2.4-25.4 15.2-26.9 16.9-2.6 0-19.4.5-19.8 3.6.6 3 5.7 2 7.8 2.3-1.7 3.6-18.4 11-18.9 12.7q1 .6 2 .1 9.4-6 19.3-11.6.4-.3.6-.9c5.3-.6 12.4 1.3 16.4-3 2.3-3.6-2.5-2.9-4.4-3.3q11-6.7 22.3-13.2l1.9-.7q1 5 1 10-1.2.2-2.2.8-21.5 13.6-43.3 26.6-6 3.4-11.5 7.3l.2.5a97 97 0 0 0 10.7-5.7q1-.4.8-1.3l2.2-.5q21.6-13 43.6-25.7.3 5.4.2 11-1 0-1.9.6-13.4 8.4-27.2 16.7l-16.7 10.4c1.5 2.2 4.8-3 7-2.8q4.7-3 9.5-5.7.4-.4.3-.9l2-.8q13.5-8 27.2-15.4l-.2 10-28.8 17.8q-2.5.6-4 2.7.6.5 1.3.2 1.6-1.2 3.7-2a866 866 0 0 1 26.7-15.6l.8-1.1a48 48 0 0 1-.6 11.2L401.4 319l-12.5 7.4q-.7.3-.8 1 1.7.6 2.6-1.1 1-.6 2.3-.7l15.6-9.5q20.4-11.6 40.7-23.4a5 5 0 0 1 2-.8c0 2-.7 10.3-2.1 11.4a66 66 0 0 0-12.2 7.4q1 .7 2 .1c2.5-1.9 7.6-5 10.3-5.9q-1 6.2-2.6 12.2-.9 0-1.6.4l-69.4 45.8-2.5 1.1c-3.5-2.1-6-4.8-10.6-3.3-6.4 1.6-2.1 7.6.4 10.7l-3.2 1.4q-1.6 1-2.8 2.4.6.4 1.3 0 2.7-1.8 5.7-2.8c4.8 4 9 10.9 16 6.7 6.2-3.3-2.5-10.7-4.8-13.5q1.2-1 2.5-1.8L444 326q-2.1 7.2-5.2 14.1-.6 0-.8.6l-1.2.2q-3.7 2.5-7.7 4.5l-14 9.1q.9.8 2 .2a231 231 0 0 1 20-11.7 58 58 0 0 1-7 14.7 7 7 0 0 0-3.1 2.3q-.6 0-.7.6l-1.3.4q-.7.3-1 1-.8-.2-.8.7-.6 0-1.3.4l-.9.5-8.1 5.7-20 13q-1.2.2-1.8 1.2c.5.9 1.9.1 1.9-.7q1.6-.3 2.8-1.6a456 456 0 0 0 18.5-10.4q.5-.5.5-1.1 1.5.5 2-1c1.3-.2 3-.3 3.2-1.9h1.3q2.3-1.5 4.9-2.1a115 115 0 0 1-15 20.2q-1 0-1.2 1-.8 0-1 .8l-17.5 11.4q-.5.5 0 1 1.8-.6 3.6-1.8.8-.4.8-1.3c3-.1 4.9-3.7 8.2-3.2-21.3 24.5-61.5 45.5-92.8 53.8q-1.5.5-3.3.5.2-.6.6-1 12.6-9 25.4-17.6l3.8-3q-1-.4-1.8.1-20.4 12.2-41 24-.9.3-1.2 1.2c-8 2-16.7 3.9-24.9 4.3.5-1.7 39.4-26.6 44.2-29.7a4 4 0 0 1 2.6-2.1q-1-.5-2-.2c-13.9 9.3-29 16.9-43.2 25.8-2.9.8-5.7 4.2-8.4 4.5q-1.4 1.7-3.2 2.6-1.2-.3-1.7.6c-5 .4-11.4.7-16.2-.4q3.8-3.1 8-5.6a579 579 0 0 1 26.2-16q.8-.4.8-1.3-1-.5-2 .3l-10.6 6.3a1 1 0 0 0-.4.8l-2 .7q-11.2 6.7-22.7 13.1-.9.4-1.3 1.5c-3 0-11.9-.9-14.3-2q.7-.9 1.6-1.5l31.2-20.5q2.2-1.2 3.7-3 1.4 0 1.6-1.3 1 .1 1-.6 1.2-.1 2.2-.7 26-17.2 52-34l1-1 4.6-3.2q-.7-.6-1.8 0c-18.7 12-38.4 22.9-57.8 33.7-.3-3.5 2.3-13.5-2-15.3q-7.8-1.8-10 5.8-.5 8.3 0 16.5-19 11.4-38.3 22.2-.6.2-.6.8-5.7-.9-11-3l1.5-1.8q7.2-4.5 14.5-8.7 1.5-1 2.7-2.2c-.5-1-1.5 0-2.1.2l-19.5 11.7q-4.5-1.3-9-3a2 2 0 0 1-1.4-1.3q0-.7.3-1.3c2.7-.8 4.2-.5 5.5-3.3q2.2 0 3-2 3.3 0 5.4-2.7l2.4-.9 2-1.7q15.5-9 30.6-18.6 11-6.9 21.7-14.2-1-.5-2 0l-11.6 7.4-62.3 35.9c-2-.9-7.8-2.8-9-4.4q.3-.6.8-.9 20.2-12 40-24.7-1.3-.4-2.5.2Q191 425 170.6 437c-3-.7-6.8-3.4-9.6-4.9q19-12 38.3-23.5 5.3-3 10.4-6.5c1.6-.3 3.6-1.2 4.3-2.8q-.6-.5-1.3-.2l-13.3 7.8-.4.9-2 .5q-19.2 11.1-38.1 22.5a79 79 0 0 1-8.2-5l1.1-1.7q1-.4 1.2-1.5 1.2-.6 2.3-.7 2.2-1.5 4.6-2.5l51.7-32q-1.2-.7-2.5 0-8 5.2-16 10-22.6 13.2-45.3 26.2-3.9-2.4-7.2-5.6a1426 1426 0 0 1 56.1-34.9c1.6-.4 3.7-1.2 4.3-2.8q-.6-.6-1.4-.2a12 12 0 0 1-3.8 2q-7 4.6-14.4 8.8-.5.2-.3.8l-2.1.7-41 23.6c-1.7-.8-6.6-4.6-7.1-6.1a746 746 0 0 0 31-20c1.6-1.2 3.3-1 4.1-3 .7.2 2.1 0 1.7-1q1.1 0 1.3-1.3l2-1q1.3.6 1.8-.5 1-.4 1.3-1.4 1.5.5 1.6-1 1 .3 1-.8l1.5-.2q.8 0 .8-.9 1.4.5 1.8-.9 1.8-.7 3.1-2.2 1.2.3 2-.7l63.3-40 19.2-12.1c.8-.9 3.6-1.1 3.6-2.4a2 2 0 0 0-2 0q-10.4 6.3-21 12.4-62 35.8-123.9 71.9-3.7-2.8-6.5-6.5l.6-1.6.7-.8c1.9 0 4.2 0 4.2-2.4q1.6-.6 3.3-.8l1.2-2c1.8-1 3.2-.2 4-2.5a7 7 0 0 0 5.5-2.7l2.7-1.1q1-1 2.3-1.8 16-9.5 31.8-19.3.9-.5 1.3-1.5 1 .3 2-.2l15.9-10.2q1.8-1.3 4-2 .9-.2 1-1a2 2 0 0 0-2.1 0q-10.4 6.3-20.7 12.2-.9.3-1 1.1-1.2.2-2 .8l-45.1 26.2q-6 3.6-12.2 6.6a21 21 0 0 1-5.8-6.7q.5-.2.7-.6c1.5-1.1 4.3-1.1 4.2-3.5a9 9 0 0 0 3.5-2.3c2.7-.6 3.6-.5 5-3 3.5 0 3.1-1.7 5.7-2.6l.3.2q.6 5.2 5.7 3.7c6.9-2.7 17.9-10.4 17.6-18.7l66-41.3a8 8 0 0 0 3.2-2.7q1 .3 2-.2 4.8-3.3 10-6.2 1.6-1 2.8-2.3c-.6-.9-1.5 0-2.2.2q-6 4-12.4 7.4a2 2 0 0 0-1 1l-71 40.8q-.9.5-1.3 1.4h-1q-.9.1-1 1c-2.6.3-5.8 2.8-8 4.1q-.7.2-1 .8-.9.3-1.3 1-1.2-.2-1.4 1c-5.8 2-22.5 13-29.4 16.2-3.2-4.3-9-11.4-11.1-16q20.7-12.8 41.5-25.3 10-6 19.8-12.3 3.9-1.3 6.7-4.3c-.9-1-2.4.6-3.3.9q-11.8 7.2-23.9 14.1-.4.3-.4.7l-42 24.1c-1.5-2.3-3.8-5.2-4.5-7.8l1.6-1 1.8-1.1 1.2-.8q1.9-1.3 3.9-2.4l1-.8 3-1.9q2-1 3.5-2.5 1 0 1.6-.6a36 36 0 0 1 4.8-3l1.2-.8q2-1 3.5-2.6.8 0 1.4-.7l1.8-1 1.2-.8 3.1-2 .6-.4q.8-.2 1.5-.8l1.9-1 1.1-1 1.7-1 1.2-.7q2-1 3.5-2.6l1.5-.6 1.7-1.1 1.2-.8 5.1-3.1 2-1.3q.5-.2 1-.8l3-1.7 3-2 .8-.5q.8-.3 1.2-.7l1.7-1.1 1.2-.8 3.1-2q2-1 3.6-2.5.8 0 1.5-.6l2.9-1.8 3.5-2.6q.9-.2 1.6-.6.7-.7 1.6-1.1 1.2-.6 1.8-1.6 1.2-.6 1.4-1.8l2-1q1.3.8 1.6-.6 1-.2 1.2-1.3l2-1q.9.3.7-.7l1.4-.2q1 0 1-1 1.5.5 1.6-.9 1 0 1-.9c7.2-3.4 18.3-10.6 25.4-15.2l10.8-6.2c11 19 34 18.1 49.8 5.8q.6-.4 1.3 0c12.4 8.6 26 17.9 40.1 23.5q-1 1.9-3.3 2.3-1.6 1-2.8 2.4 1 .4 2-.3c1.5-1.4 4.5-1.9 5.5-3.6l5.2.8c3.7.2 2.8-2.2 2-4.6l91.5-53q.8-.3.8-1 1.1 0 2-.8l3.1-2.2a2 2 0 0 0 1.9-1q.8.2.7-.7.8 0 1.4-.4a1 1 0 0 0 1-.8q1.5.2 1.9-1c.6 0 2 0 1.8-.9q1-.3 1.3-1.3 1.2.4 2-.8c.5.1 2 0 1.6-1q1.2-.2 1.4-1.4.9-.7 2.1-.9c.5.3 1.7.5 1.4-.5q1.8-2 4-3.3Zm-191.8 8.3c2 0 4.5.4 6 1.6q-6 4-12.2 7.1-.5-.4 0-1 3.2-3.7 6.2-7.7Zm14.2 9q1.6 1.4 2.1 3.6l-9.6 5.3q-.2-1 .4-1.6zm-31.8 19.1-.5-2.4q3.6-2 7.1-4.4.6-.3 1.1 0 0 .8-.7 1.4c-2 1.8-4.2 5.2-7 5.4Zm-158.7-5.6c1.8 4.2 8.9 1.6 12.5 3.1q0 .6-.6 1c-7 3.9-24.6 15-30.7 17.3q-1-4.8-1.1-9.7c4.8-1.6 14.7-9 20-11.7ZM271 270.3q0 .5-.3 1a16 16 0 0 1-12.7 6.4q.4-.8 1.3-1.1 5.4-2.9 10.7-6.2zm-128 80.6q-1.4 0-2 1-2.2 0-3 2.1c-1.5-.5-4.5 2.1-6 2.7q-.7.6-1 1.2a7 7 0 0 0-5 3.2q-1.2 0-2 .3c-1.7 1.4-9.2 4.6-9.9 6.4q-1.7.2-3.1 1.2c-.8.5-3.1 1-2.7 2.2q1.8 1 2.7-1a8 8 0 0 0 3-1.2l10.4-6.2a4 4 0 0 0 1.5-1.7c1.8-.3 4.4-1.3 5-3.2 1.5.4 6.4-2.6 7.1-3.9q2.1-.1 3-2 1.4.1 2-1 1-.1 2-.6 2.1-1.5-.3-1.3-1.2.6-1.8 1.8Zm53.9 103.3q3.2.3 6.4 1.1c-.4 2.1-3 1.6-4.6 2a7 7 0 0 0-2-2.2zm112.3 1.6c-1 2-4.8 3.6-7.1 3.6l-1.5-1.8q4.3-1.2 8.6-1.9Zm-89.4 3.1q4.2 0 8.3 1.1c-.6 1.8-4.8 2.6-6.4 2zm19 2.1q4.6-.1 9.3.4l-1 1.5q-2.1.4-4.1 1.3-1.4-.1-2.7.1-1-1.4-1.6-3.3Zm26 .4q5.2-.4 10.3-.5l.2 1-1.6.1a1 1 0 0 0-.7.9c-.2 1.3-3 1.3-4 1.4l-1.6.1q-2.4-.7-2.5-3Z"/><path fill="#fff" fill-opacity=".2" d="M111 369v1.3q-.8 2-2.7.9c-.4-1.2 2-1.7 2.6-2.2"/><path fill="gray" fill-opacity=".1" d="m114.2 367.8-.2 1.2q-1.4.9-3 1.3V369q1.5-1 3.2-1.2"/><path fill="#f2f2f2" fill-opacity=".2" d="M126 361.1a4 4 0 0 1-1.6 1.6L114 369l.2-1.2c.6-1.8 8-5 9.8-6.4q.8-.4 2-.3"/><path fill="#fff" fill-opacity=".5" d="M143 351q.5-1.4 1.7-1.9 2.4 0 .4 1.3-1 .5-2.2.5"/><path fill="#f6fbfd" fill-opacity=".3" d="M144 304a4 4 0 0 1-3 2q.9-1.9 3-2"/><path fill="#f1f8fb" fill-opacity=".3" d="M146.2 302.8q-.6 1.5-2.1 1.2.6-1.2 2.1-1.2"/><path fill="#f3fbfd" fill-opacity=".4" d="M149.3 301.2c-1.2.4-1.7 2.3-3 1.6.2-1.4 1.9-1.3 3-1.6"/><path fill="#edf6fa" fill-opacity=".4" d="M149.3 301.2q0-1.1 1.3-1.2c1 .7-.8 1.1-1.3 1.2"/><path fill="#acd9ef" fill-opacity=".9" d="M391.8 209.3c0-1.4 3.7-3.2 4.8-3.4 1.2 1.1-4 3.3-4.8 3.4"/><path fill="#fff" fill-opacity=".3" d="M367.1 177.8a5 5 0 0 1-1.7 2l-9 5q-.6.3-1.4.2.3-.8 1-1.2c2.9-1.2 8.2-6 11.1-6M131 358c-.6 1.9-3.2 3-5 3.2a7 7 0 0 1 5-3.2"/><path fill="#dfdfdf" fill-opacity=".1" d="M376.7 172.2q.3.4 0 1l-7.7 4.4q-.9.5-1.9.2c.7-2 6-4 7.7-5.5q1-.5 2 0"/><path fill="#175c81" fill-opacity=".1" stroke="#175c81" stroke-opacity=".1" stroke-width=".5" d="M140.7 456.7q1.2.3 1.3 1.3l-11 6.7q-.7.4-1.7 0-.8.2-1.2-.3 6.4-3.7 12.6-7.7Z"/><path fill="#25576c" fill-opacity=".3" stroke="#25576c" stroke-opacity=".3" stroke-width=".5" d="M89.7 125.2q-1 1.6-2.4 2.8v-1.2q.6-1.6 2.4-1.6Z"/><path fill="#265267" fill-opacity=".5" d="M494.3 253.1q.9 1-.2 1.7-.2-.9-1-1.2z"/><path fill="#24607d" fill-opacity=".2" stroke="#24607d" stroke-opacity=".2" stroke-width=".5" d="M97.3 395.8q.5.7.5 1.5 0 .5-.7.7z"/><path fill="#265063" fill-opacity=".6" d="M180.7 496q1.5 0 2.5.8c-.8.1-2.2.4-2.5-.7"/><path fill="#26617f" fill-opacity=".4" stroke="#26617f" stroke-opacity=".4" stroke-width=".5" d="m430.8 374 .4 1.2q-.4.5-1 .6-.3-1 .6-1.8Z"/><path fill="#134e67" fill-opacity=".1" stroke="#134e67" stroke-opacity=".1" stroke-width=".5" d="m187.1 442.6-.3 1.2-1.7-.2q.8-.7 2-1Z"/><path fill="#27617c" fill-opacity=".2" stroke="#27617c" stroke-opacity=".2" stroke-width=".5" d="M369 40q.8.3.8 1.1 0 .7-.6 1z"/><path fill="#255e79" fill-opacity=".2" stroke="#255e79" stroke-opacity=".2" stroke-width=".5" d="M190.9 21.2h1.8q-.5 1-1.8 1z"/><path fill="#252525" fill-opacity=".4" stroke="#252525" stroke-opacity=".4" stroke-width=".5" d="M56.8 114.6q.4 1.2-.8 1.2z"/><path fill="#295163" fill-opacity=".2" stroke="#295163" stroke-opacity=".2" stroke-width=".5" d="M88.7 76.3q0 .6-.8.5z"/><path fill="#252727" fill-opacity=".5" d="m463 383.2-.8 1.1q-.3-1 .7-1.1"/><path fill="#262a2a" fill-opacity=".3" stroke="#262a2a" stroke-opacity=".3" stroke-width=".5" d="m436.2 182 .9.8-1.4.3z"/><path fill="#276a8a" fill-opacity=".7" d="m37 155.3-.7 1q-.2-1 .7-1"/><path fill="#266582" fill-opacity=".4" d="M318.7 12.1q1 0 1.7.9-1 0-1.7-.9"/><path fill="#2a3f48" fill-opacity=".5" stroke="#2a3f48" stroke-opacity=".5" stroke-width=".5" d="M249 461.4h2q-1 .6-2.2 1z"/></svg>