<svg xmlns="http://www.w3.org/2000/svg" style="shape-rendering:geometricPrecision;text-rendering:geometricPrecision;image-rendering:optimizeQuality;fill-rule:evenodd;clip-rule:evenodd" viewBox="0 0 512 512"><path fill="#798da9" d="M314.8 108.2v1q0 .5-.4.8c-4.7 2.8-10.2 5.4-14.3 8.8q-1.1.6-2-.2 8.2-5.4 16.7-10.4M172.4 215.8l-.4-.6q5.7-3.7 11.6-7c1-.4 2.2-1.7 3.2-1l-12.8 8.3q-.7.8-1.6.3m19 50-.5-.5 12.8-7.8c.7-.2 1.6-1.2 2.1-.3q-6.2 4.4-12.8 8.4-.7.6-1.6.2m-30.3 34v-1c1.2-2 12.4-7.3 15-9.4 1-.3 2.7-1.8 3.6-1l-2.6 2zm191.7 34.4h1c-.1.9-11.6 7-13.2 7.8l-5.6 3.8q-1 .4-1.8-.3a533 533 0 0 1 17.8-11.2q.9-.6 1.8-.1M319 371v1.3q0 .5-.3.6-6.3 3.5-12.2 7.7-1.4.3-2.6.2c4.3-3.4 10.4-6.6 15.1-9.8"/><path fill="#5f7898" d="M402.7 111v1.9L368 133.7q-1 .4-1.9-.2l4-2.9q16.5-9.7 32.6-19.6M180 303.7h-3q.3-.8 1-1.1l19-11q5.2-3.5 10.6-6.2 2.1-.3.6 1.1-3 .6-5.1 3-11.8 6.9-23.3 14.2m43.3 83.3h1.8l-2.2 2.3q-10.4 6-20.3 12.6-1.3 1-2.8.9l-1.8-.5 20.1-11.5z"/><path fill="#7c90ab" d="m321 195.1-.3.9q.1.5-.2.9l-11 6.1c-1.3.8-3.8 3.5-5.4 2.5q0-.7.9-1 3.6-1.7 6.8-4.2zm-179 25.6q0-.8-1-.8c6.6-4.6 14-8.2 20.7-12.6l1.8-.9q2.4-.3.6 1.2c-2.6.5-4.1 3.1-6.5 3.5q-7.7 5-15.6 9.6M348 288l.7.2c0 1.4-2.6 1.8-3.5 2.3a158 158 0 0 1-17.2 10q-.4.3-.9 0 .7-1.3 2.2-2 8-4.1 15.4-9.2 1.5-1.2 3.3-1.3M187.4 426.6l-.4-.2q.6-.8 1.4-1.5 7.4-3.8 14.4-8.4c.6-.2 1.6-1.3 2-.2a10 10 0 0 1-4.2 2.8l-11.6 7.5q-.7.7-1.6 0m80.7 1.2v-1q0-.5.3-.8l10.6-6.4q1-.7 2-.1-.2.8-.8 1-6.3 3.4-12 7.3"/><path fill="#7187a4" d="m352 191-.2 1q.2.6-.3 1-5.8 3.2-11.5 6.7a59 59 0 0 1-6.5 3.3c-.8-.7.1-1 .6-1.4zm-43.2 136.1v1.1q.1.5-.4.8c-4.6 3-10.1 5.4-14.3 8.8q-1.1.6-2-.2 8.2-5.4 16.6-10.5m-199 59.8-.2-1.1 27.2-16.5q1-.5 1.9.1-2.4 1.5-4.6 3.4c-2.2.4-3.4 1.6-5 3zM231 434.7q-.2-.9-1.1-.8l13.6-8.3q1-.8 2.1-.1l-2.7 2.1z"/><path fill="#637b9a" d="M351.2 234q1.3.3 2.8.3-.3.8-1 1L332.6 247l-3.5 2.5a6 6 0 0 0-3 1.3q-.6.3-.9-.3 13.1-8 26-16.5m-242 47.8c-.6-.3-1.5-1.9-.3-1.7l25.2-14.4q6-3.6 11.6-7.4 1-.6 2 0-3.7 2.8-7.7 5.3-14.7 8.7-29.2 17.7z"/><path fill="#617999" fill-opacity=".8" d="M112.3 358.9q0-.9-.5-1.7l1.1-.5q1 .2 1-.8l1.1-.1q1 0 .8-1 1 .2 1-.9l1.2-.2q.9.2.7-.6l1.5-.4q.8 0 .5-.9 1 .2 1.1-.8l1.2-.3q1 .3.8-.6l1.5-.4q.5.1.5-.4 1.2-.7 2.2-1.7.9.4.8-.5a11 11 0 0 0 4.4-2.6q6.6-4 13.4-7.5l10.2-6.7q.9-.3 1.8.2-1.8.3-2.8 1.9l-21.7 13.3q-2.4 1.4-4.7 3.3-6.7 3.8-13 8-2 1.1-4.1 1.9m-3.1.3h1q1 0 2-.3-1 1.5-2.8 2z"/><path fill="#587292" fill-opacity=".7" d="M145.8 387.3q.5.7.2 1.6-3.5 2.8-7.2 5.4l-9 5-4.5 3.4-11.5 6.7q-1.2 1.5-3 1.9l-1-.3 3-2.5q12.5-7.4 24.7-15l-.5-1.1q4.6-2.4 8.8-5.1"/><path fill="#8194ae" d="m351.9 100-.1 1.1q0 .6-.5 1-5.4 3-10.6 6.3-3.3 1.5-6.5 3.4-.6.3-1-.3 4.8-3 9.6-6.3zm7.9 262.1v1q0 .6-.5 1-5.2 2.8-10 5.8-.9.3-1.2-.3zm-151.6 18.3-.8-.5-.1-.3q4.5-2.3 8.9-5c1.1-1 2-2.4 3.7-1.3-3.3 2.4-7.8 6-11.7 7"/><path fill="#556f91" fill-opacity=".7" d="M248.1 81.4q.8 0 1.3.6-.8.9-1.3 1.8l-1 1.5q-2.7.8-5 2.3a47 47 0 0 1-8 4.8 15 15 0 0 1-7.7 4.4q-1 .4-1.5 1.5a18 18 0 0 0-4.5 2.2c-1.3-1 1.5-1.4 2-1.7q2.3-2.1 5.2-3.3 4.6-3.1 9.5-6 4.6-3.4 9.4-6.4 1-.6 1.6-1.7"/><path fill="#577192" fill-opacity=".6" d="m134.2 147-.6 1a103 103 0 0 0-14.8 10.4c-3 1.4-5.6 3.4-8.5 5.2l-1.3.4.3-1.2q1.6-1.5 3.6-2.5l1.3-1.4c1.1-.5 4.5-1.1 4.5-2.7l1.2-1.5q3-1.5 5.9-3.5 2.7-1.2 5-3 1.6-1 3.3-1.2"/><path fill="#6c82a1" d="m402.8 217.3.3 1.5q-3 1-5.5 2.5-7.3 4.6-15 8.7l-5.5 3.8q-1 .4-2-.3.3-.6 1-.9 12.6-7.2 24.9-15 .8-.6 1.8-.3"/><path fill="#8295af" fill-opacity=".8" d="M160 381.2h-2.7q.4-1.2 1.6-1.8l23.7-14q2.3-.3.6 1.2l-1.6.3q-9 6.2-18.5 11.7c-.6 1-3.1 1.6-3 2.6m-2.7 0-1 .5q0-.8 1-.4"/><path fill="#8094ae" fill-opacity=".7" d="m161.7 342.2-.6-.1q0-1 1-1.6l10-6q5.3-2.3 10-5.9 1.2-.7 2.7-.3l-20.3 12.9z"/><path fill="#758aa7" d="M343.8 119.2v1c.5 1-3.5 2.5-4 3.3q-8.2 4-15.7 9.3-1.1.5-2-.3.3-.6 1-.9 10.5-6 20.7-12.4"/><path fill="#909094" fill-opacity=".1" d="M402.8 190.2v1.6q-8.3 5-16.8 9.8l-2.2.7q.2-1.2 1-1.9l16.8-10.2z"/><path fill="#5b7495" d="M252.8 129v1.7q-.4.8-1.3 1.3l-12.6 7.3c-1.2.8-2.3 2.4-3.7 1.2z"/><path fill="#7f92ad" d="M159.3 195.7v-.3q.2-1 1.1-1.5l9.4-5.6q2.1-.8 3.8-2 2.6-.3.6 1.2l-1.7.5a179 179 0 0 1-11.5 7.4q-.8.6-1.7.3"/><path fill="#889ab3" d="M302.8 348.1v1q0 .5-.4.9a112 112 0 0 1-12.9 7c-1-1.2 1.8-2 2.6-2.2 3.6-2.4 6.8-4.8 10.7-6.7"/><path fill="#6f85a3" d="m251.1 404.9.1-1q0-.9 1-1.3l9.5-5.6q.6-.4 1.1.2l-8.8 6.3z"/><path fill="#677e9d" d="m213.2 123.2 1.7.2-9.8 6a2 2 0 0 1-2 .1q.1-.7.9-1 4.2-2.4 8-5.2z"/><path fill="#e5e5ed" fill-opacity=".2" d="M357.7 267.2q.4.9 1.4 1.2l-9 5.2a4 4 0 0 1-2.1.5q.5-1.2 1.6-2z"/><path fill="#e4e4eb" fill-opacity=".2" d="M164 235.4a95 95 0 0 1-9.7 6.4q-.4-.9-1.4-1l8.4-5q1.3-.6 2.8-.4"/><path fill="#445f88" d="M194.2 38v-3q1.2-.3 2.3-.9c1-.2 3.5-3.4 4-1.6l-4.9 4.7q-.6.6-1.4.8"/><path fill="#8b9db5" fill-opacity=".9" d="M138.9 405.1q-.3 1.5-1.9 1.5 0-1.8 1.9-1.5m-11.9 7c-.5 1.6-2.6 1.9-3.8 2.7-.3-2 2.4-2.4 3.8-2.7m-14.2 8q-.3 1.5-1.9 1.5.3-1.6 1.9-1.5"/><path fill="#9a9cb3" fill-opacity=".9" d="M208.2 5.2h1q1.4.3 2.7 0l1.4.3c-2.2.6-5.4 1.6-7.6 1.2l1.2-.5q.9-.2 1.3-1m-2.5 1.5c.3 1.1-1.2 1-1.9 1q.8-.7 2-1"/><path fill="#8597b1" fill-opacity=".9" d="M145.9 350.2c-.2 1.4-2.5 2.3-3.8 2.4 0-1.7 2.4-2.3 3.8-2.4m-14 7.9q-.3 1.5-1.8 1.6 0-1.9 1.8-1.6"/><path fill="#707d97" fill-opacity=".3" d="M361 123q-.4 1 .3 1.7c-1.7 1-3.6 2.6-5.6 2.5l.3-1a37 37 0 0 0 5-3.1"/><path fill="#536376" fill-opacity=".1" stroke="#536376" stroke-opacity=".1" stroke-width=".5" d="M118.7 156.3c0 1.5-3.4 2.1-4.5 2.6l-.3-1c1.3-.4 3.6-2.5 4.8-1.7Z"/><path fill="#586372" fill-opacity=".2" stroke="#586372" stroke-opacity=".2" stroke-width=".5" d="M253 81.8c-1.4.8-3.2 2.8-4.9 2l1.3-1.8c1.5.6 2.4-1.7 3.6-.2Z"/><path fill="#bec3df" fill-opacity=".3" stroke="#bec3df" stroke-opacity=".3" stroke-width=".5" d="m282.3 5-3.6.1c.4-1.5 3-1.6 3.5-.1Zm-27 12.9c0 1.2-2.6 3-3 1.8a3 3 0 0 1 3-1.8Z"/><path fill="#5b6778" fill-opacity=".1" stroke="#5b6778" stroke-opacity=".1" stroke-width=".5" d="m399.7 207 1.3.6c-1.2.6-3.8 2.5-5 1.4q1.5-1.7 3.7-2Z"/><path fill="#bbbedb" fill-opacity=".9" d="M257.8 4.7q1.5.5 3 0l1 .3.3 1h-6.4q.7-1.2 2.1-1.3"/><path fill="#8a9bb5" fill-opacity=".9" d="M139 354c-.4 1.5-2.6 2.4-4 2.7 0-1.8 2.6-2.3 4-2.6"/><path fill="#8395af" fill-opacity=".9" d="M127 361c-.6 1.6-2.4 2.2-3.9 2.6-.2-1.8 2.7-2.2 4-2.6"/><path fill="#8799b2" fill-opacity=".9" d="M119.9 365.2c-.5 1.5-2.5 2-3.8 2.6 0-1.9 2.3-2.5 3.8-2.6"/><path fill="#96a5bc" d="M400.3 423h.6c0 1.7-2.4 2.2-3.5 2.9-1.3-1.1 2.4-2.3 3-3"/><path fill="#8597b1" fill-opacity=".9" d="M134 408.1a5 5 0 0 1-3.9 2.5c0-1.8 2.5-2.2 3.8-2.5"/><path fill="#999cb3" fill-opacity=".2" d="m258.3 16.2.5.4a5 5 0 0 1-3.6 1.3q.8-2.2 3-1.7"/><path fill="#637b99" fill-opacity=".3" d="M158 343.2h1.1l.8-.3a4 4 0 0 1-3 2.4l-.8-.2q0-1.1 1-1.3z"/><path fill="#d7d7dd" fill-opacity=".8" d="M102.2 467.7c.6.9 2.9 2.4 2.7 3.4h-1.5q-1.2-1.5-1.2-3.4"/><path fill="#9aa9bf" fill-opacity=".9" d="M113 369a4 4 0 0 1-3 2.4q-1.1 0-1-1 2-.9 4-1.4"/><path fill="#6d819f" fill-opacity=".2" stroke="#6d819f" stroke-opacity=".2" stroke-width=".5" d="M118 436.9q-.5 2.2-2.7 1.9c-.3-1.4 1.9-1.6 2.8-2Z"/><path fill="#6c819d" d="M244.9 71.2v.9a2 2 0 0 1-1.1 1.7q-.6.1-.9-.4.3-1.8 2-2.2"/><path fill="#5e7495" d="m221.4 71.2.6.6q0 1.2-1.1 1.9-.8.1-1.1-.5.3-1.5 1.6-2"/><path fill="#a6afce" fill-opacity=".4" d="m302.3 68.8-1.2-.2c.5-.6 1.7-1.9 2.5-1.2q-.4 1-1.3 1.4"/><path fill="#bec2e1" fill-opacity=".1" d="M212 5.3h-2.8c-.5-2 3-2 2.7 0"/><path fill="#abb6cc" fill-opacity=".2" d="m155 344.9 1 .2.8.2q-.6 1-1.8 1.7l.1-1.3z"/><path fill="#8e9eb6" fill-opacity=".9" d="m150.8 347-.2 1-1.3.8q-.3-1.8 1.5-1.7"/><path fill="#718897" fill-opacity=".1" stroke="#718897" stroke-opacity=".1" stroke-width=".5" d="m150.6 348 1.2.3c.4 1-2.8 2-3.2 2.8q-.8-.2-1.4-.8l1-1z"/><path fill="#5b7399" fill-opacity=".4" d="m301.1 68.6 1.2.2q-.3 1.1-1.3 1-.9.3-1.8.1.5-1 2-1.3"/><path fill="#91a0b9" fill-opacity=".4" d="m352.9 128.2-.2.9q-.8.9-2 1 .6-1.5 2.2-1.9"/><path fill="#707381" fill-opacity=".5" d="m234.1 5-3.4-.2q1-1.2 2.7-.7.7.2.7.9"/><path fill="#c2cbd8" fill-opacity=".2" d="m355 127.1.7.1q0 1.3-1.3 1.5l-.2-.7q0-1 .9-.9"/><path fill="#637a9b" fill-opacity=".6" d="M149.8 289.2q-.5.5-1 .5zm-1 .5q-.4 1.2-1.6 1.2.5-1 1.5-1.2"/><path fill="#5a6777" fill-opacity=".1" d="M111.8 357.2q.4.8.5 1.7l-2 .4q-.5-1.9 1.5-2"/><path fill="#899ab3" fill-opacity=".9" d="M119.9 416a2 2 0 0 1-1.7 1.8q-.3-2 1.7-1.7"/><path fill="#bec3e0" fill-opacity=".4" d="M260.9 4.8q-1.5.3-3 0c.4-1.2 3.4-1 3 0"/><path fill="#8e91a4" fill-opacity=".5" stroke="#8e91a4" stroke-opacity=".5" stroke-width=".5" d="m191.3 15-1 1.3q-.2-1.2 1-1.3Zm-1 1.3-1.3 1q.1-1.2 1.3-1Z"/><path fill="#879ab3" fill-opacity=".2" stroke="#879ab3" stroke-opacity=".2" stroke-width=".5" d="M119.8 435.9q-.2 1.5-1.7 1 .5-1 1.7-1Z"/><path fill="#8294ad" fill-opacity=".4" stroke="#8294ad" stroke-opacity=".4" stroke-width=".5" d="M125 433q-.5 1.2-2 1 .7-1 2-1Z"/><path fill="#6a7fa3" fill-opacity=".3" stroke="#6a7fa3" stroke-opacity=".3" stroke-width=".5" d="M295.8 72q-.5 1.2-1.7.7.6-.8 1.7-.7Z"/><path fill="#5f749c" fill-opacity=".3" stroke="#5f749c" stroke-opacity=".3" stroke-width=".5" d="M297.9 71.1q-.8 1-2 .9.5-1.4 2-.9Z"/><path fill="#436085" fill-opacity=".4" stroke="#436085" stroke-opacity=".4" stroke-width=".5" d="M145.8 292q-.5 1.3-1.7 1 .3-1.2 1.7-1Z"/><path fill="#557092" fill-opacity=".9" d="M141.2 353.2q-.4.7-1.2 1 0-1 1.2-1m-25.9 15q-.5.6-1.2 1 0-1 1.2-1"/><path fill="#5c5d68" fill-opacity=".8" d="M310 7c.3 0 2.4 0 2 .7q-1.4.5-2-.7"/><path fill="#8798b2" fill-opacity=".2" d="m160.4 342.3.7-.2h.6c.3 1.1-1.3.9-1.8.8z"/><path fill="#5b7595" fill-opacity=".9" d="m160.4 342.3-.5.6q-.4 0-.8.3 0-1.2 1.3-1m-26.2 15-1.2 1q.1-1 1.2-1"/><path fill="#8e9fb7" fill-opacity=".8" d="m356 126.2-.3 1h-.6q0-1 1-1"/><path fill="#778ca9" d="m158 343.2-.8.6q0-.7.8-.6"/><path fill="#476488" fill-opacity=".8" d="m155 344.9.1.8h-1q.2-.8 1-.8"/><path fill="none" d="m256 62.9-1.1 1.1q.3-.9 1-1.1"/><path fill="#687f9e" fill-opacity=".9" d="M152.8 346q0 .4-.5.7 0-.6.5-.7"/><path fill="#ededf4" fill-opacity=".4" stroke="#ededf4" stroke-opacity=".4" stroke-width=".5" d="M128.8 347.1q0 1-.8.5z"/><path fill="#bfc3df" fill-opacity=".3" d="M233.1 13q.6 0 1-.3 0 1.2-1.3 1.1z"/><path fill="#b1b7cd" fill-opacity=".2" stroke="#b1b7cd" stroke-opacity=".2" stroke-width=".5" d="M125.8 349.3q0 .5-.5.4 0-.6.5-.4Z"/><path fill="#526d90" fill-opacity=".9" d="m148.3 349.4-1.1.9q0-1.2 1-1"/><path fill="#f2f2fb" fill-opacity=".2" stroke="#f2f2fb" stroke-opacity=".2" stroke-width=".5" d="M123.8 350q0 1.1-.8.7.2-.5.8-.6Z"/><path fill="#b3b3d9" fill-opacity=".1" stroke="#b3b3d9" stroke-opacity=".1" stroke-width=".5" d="M120.7 351.8q.3.9-.5 1 0-.7.5-1Z"/><path fill="#f1f1f8" fill-opacity=".1" stroke="#f1f1f8" stroke-opacity=".1" stroke-width=".5" d="M118.7 353q.2.9-.7.7.1-.5.7-.6Z"/><path fill="#8093ad" fill-opacity=".6" d="m142.9 293.1.3.7h-1.1q0-.6.7-.7"/><path fill="#f0f0f8" fill-opacity=".3" d="M116.8 354q0 1-1 .8.4-.6 1-.9"/><path fill="#486087" fill-opacity=".1" stroke="#486087" stroke-opacity=".1" stroke-width=".5" d="M299.2 70a2 2 0 0 1-1.3 1.1q.3-.9 1.3-1.2Z"/><path fill="#f2f2ff" fill-opacity=".1" d="M113.8 356q0 .9-.9.7.3-.6 1-.8"/><path fill="#f1f1fa" fill-opacity=".4" d="M112 159.2q-.5.7-1.4.7z"/><path fill="#486589" fill-opacity=".8" d="M129.2 360.2q-.4.7-1.3.8.3-1 1.3-.8"/><path fill="#f1f1fa" fill-opacity=".2" d="m113.9 157.9.3 1q-.8 0-1.4-.3z"/><path fill="#526c8f" fill-opacity=".9" d="M122.2 364.2q-.5.6-1.1 1 0-1 1.1-1"/><path fill="#456287" fill-opacity=".3" stroke="#456287" stroke-opacity=".3" stroke-width=".5" d="M147.2 290.9a2 2 0 0 1-1.5 1.2q.5-.9 1.5-1.2Z"/><path fill="#bfc4df" fill-opacity=".2" stroke="#bfc4df" stroke-opacity=".2" stroke-width=".5" d="M261.8 5q.9 0 1.2 1h-1z"/><path fill="#61799a" fill-opacity=".2" stroke="#61799a" stroke-opacity=".2" stroke-width=".5" d="m336 74 1 .1q-.3.5-.7.7z"/><path fill="#bdc1e0" fill-opacity=".2" d="M208.2 5.2q-.3.8-1.3 1 .2-1.2 1.3-1"/><path fill="#7c90ab" d="M146.3 401q-.6 1-1.7 1 .6-1 1.7-1"/><path fill="#4a658a" fill-opacity=".8" d="M143.3 403.2a3 3 0 0 1-1.5.9q.5-1 1.5-1"/><path fill="#647c9b" fill-opacity=".9" d="M141 404a2 2 0 0 1-1 1.2q.2-.9 1-1.2"/><path fill="#4f6a8e" fill-opacity=".8" d="M136.2 407.3q-.6.5-1.3.7.3-.9 1.3-.7"/><path fill="#587193" fill-opacity=".9" d="M129.2 411.2q-.3.7-1 1 0-1 1-1"/><path fill="#5e7596" fill-opacity=".9" d="m122.3 415.4-1.2.9q.1-1 1.2-1"/><path fill="#768ba7" fill-opacity=".6" d="M329 78.9q-.4.8-1.3.8z"/><path fill="#4a688b" fill-opacity=".8" d="M117.2 418.2q-.6.6-1.4.8.4-1 1.4-.8"/><path fill="#667e9d" fill-opacity=".9" d="M115 419.2q-.3.6-1 1 .2-1 1-1"/><path fill="#a4b6db" fill-opacity=".1" stroke="#a4b6db" stroke-opacity=".1" stroke-width=".5" d="M394.8 261.2q0 .6-.6.7 0-.7.6-.7Z"/><path fill="#748aa6" fill-opacity=".6" d="m136.3 426.3-1.2.8q.4-.8 1.2-.8"/><path fill="#506c8f" fill-opacity=".5" d="M130.8 429.2q0 .6-.6.6 0-.4.6-.6"/><path fill="#a5b3c6" fill-opacity=".7" d="m103.4 471 1.5.1v.6h-1.1z"/><path fill="#bbbfca" d="M104.9 471.1q.9.1 1.3.8l-1.3-.1z"/><path fill="#e8e8f0" fill-opacity=".3" stroke="#e8e8f0" stroke-opacity=".3" stroke-width=".5" d="M109 342h.8q0 1-.8 1z"/><path fill="#262627" stroke="#262627" stroke-width=".5" d="M213.3 5.5A149 149 0 0 1 234 5q10.8 0 21.6 1a50 50 0 0 0 7.3 0q8 .4 15.7-.9l3.6-.1c9.6-.1 18.2-.3 27.7 2q.6 1.2 2 .7a25 25 0 0 1 18.2 21.6c1.3 2.8 17 .3 20.3 1.5 27-.8 52-5 78.5 2.2.2 1.4 2.3 1 3.3.8q1 .7 1.7 1.7c19.2 11.4 17.8 26.5 16 46v396a25 25 0 0 1-7 16.1q-1 .6-1.1 1.7c0 1.2-2.7 2.2-3.6 2.8q-1 0-1.6 1l-4.5 2.4q-1-.4-2.1 0a82 82 0 0 1-11.4 3.8q-.6 0-.7.7c-3.1-.4-9.2 1.4-12.5 1.7-43.8 5.5-89.4 0-133.3-1.3q-3.2-.6-6.4 0c-4-.6-19.3-1-23.6 0q-3.2-.9-6.4 0a48 48 0 0 1-17.3-.2 4 4 0 0 0-2.2.5 25 25 0 0 0-6.4-.8c-4.8.4-10-.4-14.6 1l-3.3-.1c-34.4 1-69.7 8.9-103.7-.4-3 1-13.3-7-16.4-8.8-5-5.7-8-10.5-9.6-18.1q-.5-208.5-.2-417c2.4-17.7 10.3-25.6 26.5-31.7a2 2 0 0 0 1.7-.7q11.1-1.4 22.2-1.7c18.2-.2 37.6 3.2 55.4 2.4q2.3.6 4.3-.4c2.7 1.3 7.4.4 10.1-.5l3.1-7 3.6-5.6 1.3-1 1-1.3q5.6-4.8 12.5-7.3c.7 0 2.2.1 2-1 2.2.4 5.3-.6 7.5-1.2Zm30.5 6.5q-4.8 0-9.6.7l-1.1.3c-21-1-37-5.4-39 22v3l-.2 26.1c0 1.6.4 6.2 2.1 7 .4 4.3 19 2.6 22.3 2.5q.4 0 .5-.5l1 .1q.3.6 1 .5c6.1-.1 15.6.6 21.3-.3h.8q.3.5.9.3 3 .3 6.2.2 9 0 18-.3 4 .5 8 .3 8 0 16.1-.3l1.6.1q2.6.3 5.2 0 9 .2 18.2-.2c1.5-2 1.6-20.8 1.3-24.4q.5-1.5-1-2c1.7-2 .7-10.9 0-13.3a9 9 0 0 0-1.2-3.9q-1.1-5.3-5-9.2a7 7 0 0 0-3-2.7 17 17 0 0 0-10-5.3c-3.1-2-9.5-2.2-13.2-3a368 368 0 0 0-20.9.5zM106 37.7c-.2-2.2-11.5.7-13 1.2q-.8 0-1.3.9C71 44.3 74.7 63.6 75.2 80q-.7 1.5.9 2c-2 1.6-1.3 9.9-1 12-.3 1-1.2 5.7 1 4.8-2.2 2-1.8 9.8-.8 12.2a4 4 0 0 0-.3 4c-1.2 1.5-.2 7.2-.6 9.4q-.3 1 .7 1.8c-1.2 1.7-.7 4.5-.7 6.5v11.6c0 1.1-.7 4.1.6 4.8-1.3 1.6-.8 8-.8 10.2q.2.7.9.7c-1.6 1-.7 6-.8 7.7v9.6q0 .7.8.7c-1.6 1.3-.8 5-.8 6.8a167 167 0 0 0 0 14.7v51.1c0 2.8-.6 7.9.5 10.3q-.6 1-.5 2-.3 5 .2 10l-.2 2 .2 10.2q-.4 3.3-.1 6.7v9.5q0 .6.7.7c-1.2 1.3-.6 4.1-.7 5.7v8.7q-.2 1 .6 1.5a4 4 0 0 0 0 4c-.8 1.8-.9 8.6 0 10.4-.2.7-1.4 3.2 0 3.2-.8 7-.6 14.5.2 21.5-.7.9-1.5 7.8.8 6.8-2 2-1.5 8.7-1 11.1q-.8 3 0 6c-.7 2.7-.3 8-.1 11a15 15 0 0 0 .2 6.9c-.6 2.9-.8 7.6.1 10.4a9 9 0 0 0-.2 5.7q-.6 5.5 0 11-.7 3 0 6-.7 5.5 0 11c-.5 2-.9 6 .1 7.9-.7 2.7-1 7.8.1 10.4-1 1.6-1.2 7.2 0 8.5-1.4 2.2-.6 8 0 10.4-.1 2.1.9 6.8 2.8 7.8 0 2 4.6 7.4 7 6.4-.5 1.7 1.9 2 3 1.8q0 .5.5.7c4.2 1.5 9.2 3 13.6 1.5.5 1.6 7.4 1.1 8.8.3 2.5 1.2 14.3.9 17.3.1 3.2 1 7.5.8 10.7 0 5 .3 14.2 1.2 18.5-.8q-.6 1.4 1 1.5 2.7 0 5.6-.5a81 81 0 0 0 18.3 0q5.4.8 10.6-.1c4.6.2 13.6 1 17.7-.6 3.2 1.6 15.5.9 19.6.5q3.8 1.5 7.7 0 .6 1 1.7.8c5.2-.3 11.5.4 16.6-.8 2.7 1.3 7.9.9 10.8.3q.6.8 1.6.5 7.7 0 15.3-.2c3.1.4 8.1.7 11-.4q.6.9 1.7.7 7.7 0 15.4-.4 0 .5.6.6c4-.7 12 .6 15.3-1q.6 1 1.7.8 17.7.2 35.4-.4l.1.3c3.3 0 11.2.7 14-.5a49 49 0 0 0 18.3-.7c5.7 2.1 16.5.8 23 1.2 12 0 15-24.4 15.5-33q1.4-2.6 1.1-5.6a214 214 0 0 0 1.8-33.8q.9-5.2.8-10.6 0-.6-.7-.7c1-1.2 1.3-4 .1-5 1.3-2 .5-7 .8-9.4q0-1.1-.9-1.6c1.6-1 .7-5 .8-6.6v-9.7q-.1-.7-.8-.7 1.2-2.1.8-4.6.2-10.8-1-21.4.8-3 .2-5.8.3-5.7-.3-11.4.5-1.7 0-3.4.3-5.2-.6-10.3c.2-1.3 1.2-5.2-1.1-5 2.1-2.2 1-8.2.9-11a132 132 0 0 0-.2-14.2q-.1-.7-.7-.8c.6-1 .7-3.3-1-3 2.4-1.6.7-8.4 1.2-11q0-4.3-.4-8.7l-.2-9.6-.5-.7a17 17 0 0 0 0-8l.1-11q0-3.9-.3-7.8.4-5.2 0-10.5.7-3.3 0-6.5.9-5.6 1.3-11.2.7-3-.3-5.8c.2-2 .6-9.1-.8-10.2a13 13 0 0 0-.1-6.9q.3-5.3-.2-10.5.4-3.1 0-6.4.3-5.2 0-10.5l.5-6.7q0-11.5.9-23.1 0-1.5-.3-2.8a60 60 0 0 0 1.1-15c1-3.3 1.3-7.8 1-11.2 0-1.3 1.5-5.2-.9-5 2.7-2.1 1.8-8 1.8-11.2q.4-3.7 0-7.5c0-2.6 0-7-1.5-9.2.4-.6 1-2-.2-2.1q-.4-4.4-2.4-8-.4-.7-1-.7c.3-2.5-4.2-6-5.7-7.7a5 5 0 0 0-4-1.5c-.9-3.2-22.2-8.7-26-6.3.3-2.6-4.4-1.6-5.8-1.3-4.4-.4-13.2-2-17 .2q-.9-.8-2.1-1c-5.4-.3-12.8-.4-18 1.1-.7-1.5-5.5-.6-7-.4q-8.7.1-17.5.9-1.2.8-1 2.2c.3 1.7-.7 7.6.4 8.6-.4.6-1.2 2.8 0 3-.3 2.1-1 9.7 0 11.4 7.2 2.5 13.9.6 21.3.6q1.7 0 3.4-.3a228 228 0 0 1 45.2-.8c0 .8 8.1 3.6 9.1 5.1a15 15 0 0 1 5.7 8.1q.5 6.4.2 12.9 0 3 .2 5.9-.3 5.7.1 11.4-.6 2.3 0 4.5-.4 5.7 0 11.3l-.3 3q-.1 5.7.4 11.2a326 326 0 0 0 0 25 15 15 0 0 0-.1 6.5q-.4 5.7 0 11.4-.6 2.8 0 5.5-.4 5.7 0 11.4-.4 3-.3 6v12q0 2.2.3 4.7-.5 5.7 0 11.3-.6 2.9 0 5.7-.4 5.7 0 11.4-.4 3.5-.3 6.8V273q0 6 .3 12-.6 3.9 0 7.8-.4 5.6 0 11.3-.3 1.4 0 2.6a69 69 0 0 0 0 11.4l-.3 3.7V338q-.1 6 .4 12.1a101 101 0 0 0 0 15.1q-.7 2.2 0 4.6-.5 11.6 0 23.3-.4 1.3-.1 2.7a264 264 0 0 0 0 17c-.3 4-.6 9.6.1 13.3q-.4 1.4-.1 2.7c0 4-.1 10.7 1.1 14.3-.6 1-1.4 4.7.8 3.9-2.8 3.5-2 12.7-5 17.6-7 17.3-37.7 6.7-52.2 9.8q-2.9-.5-5.6-.2a745 745 0 0 0-28 .2q-12.3-.4-24.4-.1-3.2-.7-6 .5v-.2a324 324 0 0 0-24.7-.3 2137 2137 0 0 0-42.3-.2 19 19 0 0 0-5.9 0q-10-1.5-20.2-.8-1.8-.3-3.6 0-11.8-.3-23.5.8-4.5-.6-8.5 1.4c-4-.8-20.5-.4-24.2 2.5-.2-3-4.3-1.1-5.8-.6-2-1-17.9-.7-19.9.4q-.2-2.1-2.2-1.6c-3.5-1.4-6.6-2.5-10-4.3q-.3-.6-1.2-.8c.2-1-2.1-2.5-2.7-3.4L101 466a45 45 0 0 1-5.3-15.7l-1-11.6q.3-3.3 0-6.6v-16.9c.3-3.3.8-9 .3-12.2q1-2.2.8-4.8a276 276 0 0 0 0-18.1q.6-5.7-.1-11.4.7-2.8.1-5.5.4-5.7 0-11.5.5-3 0-6.4a1106 1106 0 0 0 0-50.5q.5-2.2 0-4.5c.2-3 .6-8.6 0-11.4q.5-3 .2-6v-23q.1-6-.2-12 .3-1.4 0-2.8.3-11.3-.1-22.4l.4-2.7q.1-11.7-.4-23.4.3-1.2.2-2.5c0-2.7.5-10-.2-12.2q.6-2.8.2-5.6c0-2.8.5-10.2-.2-12.4a12 12 0 0 0 0-5.6 70 70 0 0 0 0-12.6q.5-1.8.2-3.6.4-6.8-.2-13.4.4-1.8.4-3.6.1-7-.4-14.1l.2-.7c0-4.6.5-11.2-.2-15.6l.4-1.8c.3-22.8 29.4-20.8 45.2-21q.8.3 1.7.2.6.7 1.6.6c12.5.9 23.1 3.2 35.7 1 1.2-.6 1.6-7.1.2-8.2a3 3 0 0 0 .6-2.6q.3-6.4 0-12.9.3-1.1-.7-1.6l-9 1a401 401 0 0 0-18.7-.3q-3-1.5-5.8-.2c.3-.9-1-.7-1.4-.8l-13.6-.9c-2.5-.2-6.5-1-8.8 0a37 37 0 0 0-17.1.4ZM371.3 72c-4.5.2-15.5.4-19.3 1.8-2.9-.8-11.5.5-15 .3h-1q-3.6-.4-7.4-.6c-11.9 6-26.6 5.4-39.6 7.2-2-.7-5.8 0-8 .5l-2-.3q-3 0-5.8.2c-6.3.2-14.1-.2-20.2.6-1.2-1.4-2 1-3.6.3a2 2 0 0 0-1.3-.6l-36-.8q-2-1.1-4-.7c-3.3-.2-14-2.3-16.4-1-.2-2-4-1.9-5.4-2.7q-2.6-1.2-4.8-3l-10.5 1a9 9 0 0 0-4.9-.2c-3.9-.6-14.3-2-17.4-.2q0-.7-.6-1a51 51 0 0 0-10-.7c-7.3.3-16.7-1-23 3.2-1.6 0-5.5.3-6 2.3q-.3 5.2-.3 10.6l.4 2.7q-.6 14.5-.3 29c-1 .2.2 3.2 0 4q-.3 5.2-.2 10.7 0 1.2 1.2 1.7-1.1 1-.8 2.7c-.3 6.1-.7 16.4.2 22.2q-.4.7 0 1.6l-.3 1.2q-.7 5.3-.1 10.4.3.6.9.8a3 3 0 0 0-.7 2.8 9 9 0 0 0-.1 5q-.3 11-.2 21.9c-.6.8-.3 7.2.7 8.1-1.6 2.2-.7 8.2-.7 10.9-1 .2.2 2.4.1 3q-.5 5.7-.2 11.3 0 1.6.7 2.8a5 5 0 0 0-.8 2.5c.4 1.6-.8 7.3 1.1 8q.2.6.9 1-2.1 1.2-1.5 3.5c-.9 2.7-.4 7.5-.2 10.3q-.3 1.3-.2 2.7-.1 5.6.1 11c-1.1 0-.2 1.5.3 1.8-.4 7-1 25.8.3 31.5q-.4.8-.3 1.8-.6 1.5.3 3-.7 1-.7 2.4c.3 1.5-1 7.5 1.2 7.8q-1.8 1.7-.4 3.7c-1.4 2.1-.7 7.5-.6 10v1q-.6 2.7.5 5c-1.2 2-.8 9-.2 11.2l.2 1.8c-1.2 2.2-.7 6.9-.4 9.3q-.1 1 1 1-1.6 1.5-1.3 3.6 0 5.3.2 10.5.1.6.7.4 0 .6.3 1.1-.7 0-.9.7-.3 10.4 0 20.7-.6 1.7.7 2.7.6 0 1 .3c-.9.8-1.9.5-2 2.1.4 1.9-.8 8 1 8.9q-1.2 1.5-.9 3.5c0 2.9-.5 8.6.2 11q-.5 2.6 0 5-.5 6.2 0 12.2c-.3 2-.5 5.2.6 6.8 1.6 4.5 7.6 5 11.4 3.5 2 1 5.8.4 7.9 0 2 1 14.2 0 17-.2l.2.4 13.8.2q8.6 0 17-.5c2.7.2 6.3 1 9 0q0 .5.7.5 7.6 0 15.3-.4l11 .5c4.7-.4 12.9.4 17-.6q6 .6 11.9.4c5.4-.2 13 .5 18.2-.5v.4q7.5.3 15-.1c5.1.4 11.9.4 17-.2q.3.4.7.4 8.1.2 16.2-.3.5.9 1.6.6c5-.5 11.6.1 16.4-1.1q2 .8 3.9.5.7.8 1.7.5 7.8 0 15.5-.7v.4q7.9.1 15.6-.2 8.7.4 17.4 0 3.4 0 6.9.4c1.7-.2 11 .3 11.8-.5q1.2-10.5 1.4-21c1-1.2.7-3.8.1-5.2 1.4-2.8.6-10.8 1.3-14.4l-1.6-.5-.6-.1 2.3-1.9q.5-5.5.4-11.1.3-3.5 0-6.8 1-6.6.7-13.2.3-3.2.2-6.4-.4-.7-1.1-.6c2.3-1.4 1-9.5 1.2-12q.5-3-.4-6c1.1-2.6.4-7.8.6-10.8q.6-2.7-.8-5.2c1.8-2.1.7-8.2.8-11 .8-1 0-3-.4-4 1-2.5.7-7.4.3-10.2 0-2.1.8-6-.4-7.8 1-2.2.4-6 .5-8.6q0-1.2-1-1.7 1.5-1.7.7-3.8.5-5.5 0-11a35 35 0 0 0 0-6.9 99 99 0 0 0-.3-17 64 64 0 0 0 .1-11.8v-12.4q-.4-1.5-.5-2.8l-.1-21.2-.4-1.5q.6-5.8.2-11.5v-.5l-.1-2.4a81 81 0 0 0 0-12.7 97 97 0 0 0-.4-14.4l.4-1.8-.1-10.2c-.3-.9.6-4-1-3.8 1.7-1.8 1-8 .7-10.4a9 9 0 0 0 .3-2.8q.1-1-.4-1.8l-.4-1c1.5-3.7.6-25.6.8-31.1V111a108 108 0 0 0 .3-13.2q-.1-5.3 1-10.3.2-1-.8-1.5l.1-1q.7-.2.4-1 .3-1 .2-2.1c-.8-2.7-3.6-7.7-7-6.4.4-1.6-1.6-1.8-2.7-1.7-.6-1.6-13.3-2.8-15.2-1.2-1.5-1.5-4.8-.3-6.8-1.2q-.7-.2-1 .6Zm-212.6 78q72.9-.3 145.8.2c17.7.6 36 .3 53.5 2.2q1 .3 1.7 1c-6 2.5-20.4 2.8-27.3 3.2-45.4-.9-91.4 1.3-136.9 1.4q-1.8 0-3.5.6-1-.7-2-.6c-12.9-.8-26.2-.5-38.8-3.4 0-4 4.6-4.3 7.5-4.6Zm162.4 75 .5-.1q.3 1 1.3 1c12.4.5 25 .6 37.2 3q0 .8.8 1.1c.4 2-5.5 3.9-7 4.2l-2.7-.3q-91.7.4-183.2-.7-6.7-1.3-13.5-1.6-1.4 0-2.2-1c1.5-1.7 23.5-3.2 27.2-3.4 46.6.9 93.8-1.6 140.5-1.3q1-.1 1.1-.9Zm24.9 78.4q3.4.7 7 1c1.3.6 8.6.7 7.3 3.5-5.5 4.9-15.7 1.3-22.3 3.8a4 4 0 0 0-4-.7c-53.9-.3-107.7 0-161.5-1.2q-2 0-3.7.7c.1-1.4-1.5-1.7-2.6-1.2l-10.3-.8q-2-.1-3.7-1.1a11 11 0 0 1 3.7-1.1l21.1-2.7h2.9c55 1.7 110.7-2.2 166-.2Zm-138.6 76.4.7.5q.3 1 1.3.8 35-.6 70-.2 10.6-.2 20.7 1.8c3.2 2.1-4.6 3.9-5.7 3.9q-34.8 0-69.4.3h-1.7c-6.6.1-20.7-.7-26.3.7a3 3 0 0 0-2.8-.8q-12.4-.2-25 .5a312 312 0 0 0-21-.7q.6-1 .2-2c.9-1.9 6.2-2.4 8-3l.9-.4 1.4-.2q.8 1.3 1.4.1c13.7-.1 27.4 1 41.2.3 1.7-.3 5.2.2 6-1.6Z"/><path fill="#9c9ca0" d="M158.7 381.2h1.4q-.8 1.2-1.4 0"/><path fill="#556f91" d="m324 223-.1 1.1q-.3 1-1 1.8-1 0-1.3-.9.8-1.4 2.4-2m-2.9 2.1q-.3.8-1 .9 0-.9 1-.9"/><path fill="#4b678b" d="m109.2 91-.4-2.8q2.3-.5 3.9-1.8.6-.4 1 .1l-3 3.7q-.6.7-1.5.7"/><path fill="#1c406b" stroke="#1c406b" stroke-width=".5" d="M316.2 30a9 9 0 0 1 1.2 3.8l-.9 1.1q-8.3 4.7-16.5 9.7-1 .5-1.8-.1l16.2-13.6a5 5 0 0 1 1.8-1ZM260 32.1q0 .9.3 1.6-.5 1.5-1.9 2.2-6 3-11.5 6.9c-1.1.5-1.2-1-.1-1.5q5.7-4.2 11-8.8 1-.7 2.2-.4Zm-137 5-13.8 12.3c.5.7 1.7-.1 2.3-.4L132 37.2q6.8.3 13.6.9c.4.2 1.7 0 1.4.8l-16.6 12.5q.7.7 1.7.4 9.7-6.1 19.7-11.6.7-.3 1-1.1l18.7.2a344 344 0 0 0-30 22.5c-15.9.3-45-1.7-45.3 21.1-2.8 0-17.3 9.5-21 11.3-.3-2.3-1-10.6 1-12.1q3-2.8 6.5-5 .3-.3.3-.9c.6-.1 3.9-1 2.7-2.1a3 3 0 0 0-2.8 2.1c-2.9.5-5 2.6-7.6 3.9-.5-16.5-4.3-35.8 16.5-40.3L87 47.5l.5.4c2.4-.5 15.2-8.8 18.6-10.2a37 37 0 0 1 17.1-.4Zm251-.6q-4.4 3.3-9.2 6a2 2 0 0 0-.8 1.5c-1.8-.2-4.6 1-5 3-.8-.2-2.2-.3-2.1.8q-2.2 0-3 2-1.6-.3-2 1.1-2.2-.3-3 2-1.2-.3-1.9.7c.6 1 2 .3 2-.7q2 0 3-2 1.5.3 1.8-1 2.2 0 3.1-2 1.5.3 2-1 3-.5 5-3 1.1 0 2-.5l10.1-5.9c4-2.2 12.7-.6 17-.2l-40 25.3q-.7.5-.7 1.4c-7.4 0-14 2-21.3-.6-1-1.7-.3-9.3 0-11.5q12.6-6.9 25-14.2a61 61 0 0 1 18-1Zm-25 .7q-9 6-18.1 11.7c-1-1-.1-7-.4-8.6q-.2-1.5 1-2.2 8.8-.7 17.5-.9Zm76 7.7c-4 2.6-26.4 15.6-27.9 17.7q-20.8-1.5-41.5 1l43.3-25c3.8-2.4 25.1 3 26 6.3Zm-244-5q.3 6.4 0 13-1 .2-2 .8l-11 7.8-2.2 1q-1.3 1 .4 1l14.2-8c1.4 1 1 7.5-.2 8.1-12.6 2.2-23.2-.1-35.7-1a2 2 0 0 1-1.6-.6q19.2-10.8 38-22.1Zm222 7q-2.2 0-3 2a2 2 0 0 0-2 .7c.5 1 2 .3 2-.7q2-.2 3-2c.8.1 7.7-2.8 6.4-4-1 0-6.2 3-6.4 4Zm25.9-.5c1.5 1.6 6 5.2 5.6 7.7q-.9-.3-1.6.2l-12 7.3q-.8.4-.8 1.2c-1.4 3.6-7.3 2.6-10.2 5.1-1-1.5-9.1-4.3-9-5zM222 71.8l-.6-.6c.6-.8 1.9-3.6.7-4.2l24-14.3q.7-.7 1.7-.1l-22.5 17q-1.5 1.4-3.3 2.2ZM438.3 65c1.6 2.3 1.6 6.6 1.5 9.2l-24 14.8q.4-6.4-.1-12.9c2.3 0 4.7-3 7.3-3.4q1 .4 2 0 6.6-4 13.3-7.7ZM379 72.6l-50.1 29-1-1.4 42-26.8a4 4 0 0 0 1.4-1.5q0-.6.9-.5c2 .8 5.3-.3 6.8 1.2ZM138 72a51 51 0 0 1 10 .6q.6.5.7 1.1a586 586 0 0 1-23 13.2q-.6-.5-.2-1zm214 1.7-96.7 55.9-2.5 1V129l76.1-50.1 5-2.6 2.4-1.5q.4-.2.7-.7c3.5.2 12.1-1 15-.3Zm-185.9.2a9 9 0 0 1 5 .3q-6.2 3.5-12 7.1c-2.2.5-2.3 1-3.8 2.2a1 1 0 0 1-1-.3c.8-1.5 2.3-1.7 3.8-2.6a136 136 0 0 0 8-6.7Zm228-.2c1.2-.1 3.2.1 2.8 1.7q-21 12-41.8 24.3l-3.3 1.3v-1q21.4-13 42.4-26.3Zm-207.8 2.5c1.4.7 5.2.6 5.4 2.6a1227 1227 0 0 1-28.2 16q-1.2.7-2.1 1.7-2 0-.5-1.2 1.7-.7 3.2-1.8zm21.9 3.6q2-.4 3.8.7-8 4.4-15.7 9.2a1 1 0 0 1-1-.5l11.7-7.8q.9-.7 1.2-1.6Zm80.8.8-74 42.8-1.7-.2q1.2-1.5 2.8-2.5L271.5 83a5 5 0 0 0 1.8-1.8 39 39 0 0 1 5.7-.2l.1 1q-1.1 0-2 .8c.7 1 2.1.2 2-.7q1.2 0 2-.8c2.2-.5 6-1.2 8-.5Zm150.8 1c0 3.1 1 9-1.8 11.3l-21.8 13.3q-.5-5.7 0-11.4c2.8-.8 19.4-11.2 23.6-13.2Zm-344.1 3c.7 4.4.3 11 .2 15.6q-1-.5-2 0L75.3 111c-1-2.4-1.4-10.2.8-12.2zm295.3 5 1 .6q-1.6 1.6-3.5 2.7-.2.8.4 1.3-.6.8-1.6 1.4-20.6 12-41.3 23.7a6 6 0 0 1-2.2.8v-1zm47.8 8.2c.4 3.4 0 7.9-.9 11.2-3.5 1.3-17.3 10.4-21.7 13q-.5-5.7 0-11.3 11.5-6 22.6-12.9Zm-343 3 .3 14.2c-2.3-.6-18 9.4-21 11.2q-1-.7-.7-1.8c.4-2.2-.6-7.9.6-9.5q10.6-6.8 20.7-14Zm13 23c.3-.8-.8-3.8 0-4 6.2-3.4 14.6-7.7 20-11.7l1.8-.8q2 0 .6 1.1l-1.6.5c-3.3 2.4-17.8 14.8-20.7 14.8Zm329.2-11q0 5.7-1.1 11.2-10.4 6-20.6 12.2-.5-5.5-.4-11.2c3.8-.8 17.6-9.8 22-12.1Zm-342.2 5.8q.4 6.8 0 13.4c-3 1-17.7 9.8-21.4 12.3v-11.6c4.1-1.7 16.5-11.3 21.3-14ZM109 139q-.4-1.6.8-2.7 7.2-4.3 14-9 1-.2 1.8.4c0 1-2.4.6-3 1.5a16 16 0 0 1-2.7 2.4q-5.7 3.4-10.9 7.4Zm328-12.1a259 259 0 0 0-1 23.1c-2.6-.3-16.3 9.8-19.7 11.4q-.5-11.2-.2-22.6 10.5-5.5 20.9-12Zm-341.3 8.8a70 70 0 0 1 0 12.6Q85.2 154 75 160q-.7 0-.9-.7c0-2.2-.5-8.6.8-10.2q10.5-6.6 20.8-13.5ZM433 140c-1.4.2-4.6 1.6-5 3q-2.4-.2-3 2a2 2 0 0 0-2 .7c.5 1 2.2.3 2-.7q2-.2 3-2c1.7 0 4.2-1.4 5-3q.5 0 .8-.5-.6 0-.8.5Zm-265.9 1.3q.4 1 1.3 1.7c-2.2 1.7-8.4 5.1-9.7 7.1-2.9.3-7.4.7-7.5 4.6-6.4 4.4-37.5 27.5-42.2 28.3a9 9 0 0 1 0-5q8.3-4.9 16.5-10.1.3-.3.5-.9c.7 0 6-2.2 4.4-3.2q-.8 0-1.4.4.9-1.8 3-2.4c2 1 3.2-.9 5.2-1.2l8.4-5.2a3 3 0 0 0-1.5-.4q11.4-7 23-13.7Zm-71.4 12.6c.7 2.2.2 9.6.2 12.4Q85.3 172 75.1 178q-.6 0-.9-.7v-9.6q10.9-6.8 21.5-14Zm340 2.8q.3 5.2 0 10.5l-19.5 12q-.4-5.7 0-11.4 9.9-5.3 19.6-11ZM190 158.1q1 0 2 .6L109.5 213c-1-.9-1.3-7.3-.7-8.1a5156 5156 0 0 0 81.1-46.8Zm211.8 1.9c1.5-.1.6 3 .9 3.8-3 0-32 18-36.9 20.8q-.2-.7-.8-1.3l2-1.6zM95.7 171.9c.7 2.2.3 9.5.2 12.2-3.5 1.3-17.4 9.7-21.6 12.2q-.3-5.7 0-11.4c2 .5 18.3-11.5 21.4-13Zm340 1.7q.6 5.3.2 10.5-10 5.8-19.7 12-.5-5.7 0-11.4zM337 185q.2.7.8 1 0 .6-.5.8l-15 8.8a3 3 0 0 1-1.6.4l.3-.9a389 389 0 0 1 16-10.1Zm99 6c1.4 1 1 8.3.8 10.2q-10.5 6.2-21 12.8.3-6 .1-11.9c3.3-.5 16.3-9 20.1-11.1Zm-276.8 4.4.1.3q-.9 1.3-2.2 2.1c-15.5 9.3-30.7 19.4-46.2 28.7a3 3 0 0 1-2 .4c.1-.6-1-2.8-.1-3q23.2-13 46.2-26.6zm277.9 11.5a108 108 0 0 1-1.3 11.3l-19.5 12q-.7-5.8 0-11.4zm-341.4 5.8q.5 11.2.2 22.4c-2.8.8-18 10-21.6 12.2v-21.6zm45.5 7.2q.9 0 1 .8L109.3 241q-.7-1.2-.7-2.8 16.4-9 32.5-18.3Zm294.5 4.8q.6 5.2.1 10.5a617 617 0 0 0-19.6 12q-.4-5.7 0-11.4zM82 232c-1.8-.3-3.1 1.2-4.6 2q-.7 1.2.8.8c.8-.6 3.6-1.6 3.8-2.8 1.8.1 3.7-1.6 5-2.7-.8-1.3-5 1.6-5 2.7Zm13.8 5.8q.5 6 .2 12c-3 2.7-11.9 3.9-13.3 7.2-1.8-.5-6.1 3.2-8 4-1-2.5-.3-7.6-.4-10.4 5.2-2.3 15.9-9.6 21.5-12.8Zm340.4 5L436 254c-3 .8-16.2 10-20 12v-12c2.8-.2 16.6-9.1 20.1-11ZM96 262v11c-2 .1-19.8 10.5-21.5 12.3q-.3-5.1-.2-10.2 1-1 2.2-1.8l7.9-4.5 1.7-1.5c3-.3 7.2-3.7 9.9-5.3Zm340 0q.5.3.5.8l.2 9.6q-10.5 6.2-20.5 12.8l-.3-12c3.6-.8 16-8.8 20-11.1Zm-245 3.4q0 .3.4.5-.6.8-1.5 1.5l-80.5 50.7q-.9-1.5-.3-3l9.9-6.3 8.4-4.9a5 5 0 0 0 1.6-1.9c1.8 0 4.6-1.2 4.9-3.1 1.6 0 4.5-1.2 5-2.9q1.4.3 2-.8.9-.3 1.2-1.3h1.1q.6-.2 1-.7 1.1 0 1.5-1a2 2 0 0 0 1.5-1.2q1.2 0 1.5-1.2.7 0 1-.5l1-.7q1.9 1 1.8-1 1 .3 1.5-.7l1.2-.1q.8-.2.6-1.1c.7.1 2.2.3 1.8-1q1 .2 1.3-.8l.6-.3q1 .3 1.3-.7zm212.7 1.7q.4 3.5.3 7l-2 .7q-24.6 14.6-49.7 28.8l.7 1q-3.6-.3-7-1 28.9-18 57.6-36.5ZM95.6 279c.7 2.8.3 8.4.2 11.4Q85.4 296 75 302.1q-.6 0-.8-.7l.1-9.5q10.8-6.3 21.3-13Zm341.4 2.1c-.5 2.6 1.2 9.4-1.1 11l-19.8 12.2q-.4-5.7 0-11.3c3.2-1.2 16.8-9.6 21-11.9Zm-33.2 3a35 35 0 0 1 0 7l-84 48.7-1-1.3q1-1 2.1-1.7zm-308 10.8q.3 5.7 0 11.4Q85.2 311.8 75 318q-.7-.6-.6-1.6v-8.6q10.8-6.4 21.4-13Zm341 .2q.6 0 .6.7l.3 9.5a616 616 0 0 0-21.6 13 69 69 0 0 1 0-11.4q10.6-5.6 20.7-11.8ZM161 298.9v.9L109.6 332q-1.5-2 .4-3.7l48-28.1q1.5-.8 3.1-1.3Zm243 3q.6 2.1-.9 3.8-24.5 14.6-49.4 28.5h-.9a2 2 0 0 1 1.2-1.5l48-30.2q1-.5 2-.6Zm-308 7 .1 12c-3.4.6-16.9 9.4-21 11.5-1-1.8-.9-8.6-.1-10.4q10.8-6.1 21-13Zm70.2.5c1-.5 2.7-.2 2.6 1.2L109.4 348q-1.1-2.3-.4-5 .8 0 .8-1 1.2 0 2.1-.7zm271.6.5c0 3 1.2 9-1 11.2q-10.4 6.3-20.9 12.9v-12c3-.4 18-10 21.9-12ZM334 311.1q2.2-.9 4 .6c-9.4 5.4-19.6 11.9-29.2 16.5v-1.1q12.8-7.8 25.2-16Zm69.7 5c1.2 1.7.5 5.6.4 7.7l-2.1.9q-41.4 24.1-83.2 47.6l.1-1.3zm-307.6 7-.2 22.2q-10.5 5.7-20.7 11.8c-.8-7-1-14.6-.2-21.5zm342 3q.8 5 .6 10.2-11.4 6.6-22.4 13.8-.5-6-.4-12c2.8.3 18.7-10 22.1-12Zm-34.3 8c.4 1 1.2 3 .4 4l-40.5 23.2-4 1.8v-1q22.2-13.9 44.1-28ZM86.1 340c-1.4-.3-4.8 1.8-5.2 2.9q-1.5-.3-2 1.2c-1 0-2.2 0-2.2 1.3q1.8.5 2.3-1.3 1.5.2 2-1.2c1.2.4 4.7-1.7 5-2.9 1.8.3 3.9-1.6 5-2.6-.8-1.3-5 1.6-5 2.6Zm352.5-.3q.6 5.7.3 11.4c-2.7.7-19 12-22.7 14.1q-.5-6 0-12.3c2.1-.2 21.2-11.3 22.4-13.2Zm-35.2 9.3q1.5 2.4.8 5.2-24.4 13.7-48.7 27.7l-2.4 1.8-5.4 2.7c-.8.6-3.5 3.1-4.4 2zm-307.6 2.8q.4 5.7 0 11.4-10.6 5.6-20.7 11.8c-.6-2.5-1.2-9 .9-11zM403.6 365q.9 3 .4 6l-52 30.4c-.8-.2-3.2 1.9-3.6 1zm-308 3.7q.8 5.7.3 11.4c-2.2 0-18 10-21 11.9-.2-3-.6-8.3.1-11 3.4-1.1 16.4-10.1 20.7-12.3ZM402.9 383q.7-.2 1 .6.1 3.2-.1 6.4c-15.8 9.1-31.6 19.4-47.9 27.3l-1.5 1.4q-2 0-.3-1.2c16.3-10.7 32.6-23.3 48.8-34.5Zm36.1-.1q.6 0 .8.7v9.7c-6.1 3.3-17.3 11.5-23.8 15.7q0-6.6.3-13.2 11.4-6.3 22.7-13Zm-342.8 3q0 6.2-.3 12.3c-2.3-.3-17.2 9.6-20.6 11-.9-2.7-.7-7.4 0-10.3q10.5-6.3 20.9-13Zm98.1 1q1.6-.4 2.8.8l-60.7 38.6q-.8 0-1.2.8-2 1.2-4.3 2.1l-.6.6q-2.1 1.4-4.4 2.4l-.9.8q-1.2 0-1.8 1-1 .8-2.3 1.1l-1 .8q-1.2 0-1.8 1c-.8.3-3 .5-2.7 1.9q-1.4.3-2.4 1c-.9.4-2.8.6-2.7 1.9l-1.3.1q-.4-2.4.1-5l84-48.5q.8-.5 1.2-1.4Zm244.7 13q1 .6.9 1.6c-.3 2.4.5 7.5-.8 9.4q-11.4 7.4-22.7 15.2c-.7-3.8-.4-9.3-.2-13.2q11.5-6.1 22.8-13ZM95 403c.5 3.2 0 8.9-.3 12.2-1.6-.6-17.2 9.2-19.8 10.8q-.5-5.5 0-11c2.9-.6 16.6-10 20.1-12Zm102.9-.7 1.8.5c0 1.2-3.3 2.5-4 3.3L111 459.5q-.8.5-1.5 1.3c-1.1-1.6-.9-4.8-.6-6.8zm205 .8q.4 3.5 0 6.9-17.5 9.9-34.8 20.4-1 .4-1.9 0c.2-1.1 2.3-1.7 3.1-2.3a1562 1562 0 0 1 31.8-24.5q.9-.5 1.8-.5Zm-151.7.8v1q-45 29.6-90.3 58.5-.7.4-1 1.3l-13.8-.2-.1-.4 102-58.8q1.4-1 3.2-1.4Zm187.7 12q.6.1.7.7 0 5.3-.8 10.6l-21.5 16c-1.2-3.7-1-10.4-1.1-14.4q11.6-6 22.7-12.9Zm-344.1 3.8V432c-2.8 0-16.8 9-20 11q-.5-5.5 0-11c2-.5 18-10.5 19.9-12.4Zm147 45q-6 .1-11.8-.5l68.5-39.2c1-.3 1.6-2.2 2.8-1.4q0 .9-1 1.3l-48.7 33.2c-3.1 2-7 4.1-9.8 6.5Zm33.1-.3q-7.5.4-14.8 0l-.1-.3 66.4-38.2c1.5-.6 3.7-4 5.3-2.2q-1.3 1-2.9 1.6zm-87.9-38 .4.3q-.7.9-1.5 1.5l-57 36c-2.1.5-6 1-7.9 0q32.1-18.3 63.9-37zm81.1.4v1q-27 18-54.3 35.6a2 2 0 0 0-.9 1.4l-11-.5q30-16.8 59.7-34.2 3-2 6.5-3.3Zm40.8 37.5q-8.1.4-16.2.3l-.7-.4 56.4-32.3c1.5-.6 3.7-4 5.3-2.2l-2.8 1.6a2841 2841 0 0 1-41.3 32q-.6.3-.7 1ZM230 433.8q1 0 1 .8-22.1 14.5-44.5 28.6-.6.4-.8 1c-2.6 1-6.2.2-8.9 0q26.7-15 53.2-30.4Zm209 1.1q-.3 13.2-2.1 26.1a64 64 0 0 0-14.8 12.8q-2 0-3 1.9c.8 1.4 2.6-1.2 3-1.9 3.2-.4 10.4-5.6 13.7-7.2-.6 8.6-3.5 33-15.6 33-6.4-.4-17.2 1-23-1.2a49 49 0 0 1-18.3.7l24.6-21q.4-.6-.2-1L366.5 498q-.8.4-1.5 1.3-17.7.6-35.4.4-1 0-1.7-.7 16.6-12 33-24.6c14.5-3 45.2 7.5 52.2-9.8 3-4.9 2.2-14.1 5-17.6zm-37.9 3c.6 1.5 1 4 0 5.3l-7.7 4q-.6-.6 0-1.2zm-306.5.8 1 11.6q-.8-.3-1.7.1l-18.8 10.9c-1.1-2.6-.7-7.7 0-10.4q9.8-6 19.5-12.2Zm269 25.6q-7.9.4-15.6.2l-.1-.4 30.3-17.3c1-.2 3.5-3.6 4.3-2.2-4.7 4.8-16.1 14.5-19 19.7Zm-266.8-8.6q1.4 5.4 4.1 10.3c-3.6.7-21 12-25.8 14.2-.6-2.5-1.4-8.2 0-10.4 3-1.8 21-12.3 21.7-14Zm233.9 8.6q-2 .2-3.8-.5 6-3.4 12-7.4 1-.4 1.8.2c0 1-2.7 1.6-3.5 2.3-1 1.2-6.4 4.3-6.5 5.4Zm57.1.4-7-.5q5.5-2.7 10.6-6l.4.4q-1.6 2.6-3.7 5-.3.5-.3 1.1Zm-284.1 7h1l1.4.3c3.3 1.7 6.4 2.8 9.9 4.2q0 .4-.5.6-15.4 8.7-30.7 17.6c-2.3 1-7-4.3-7-6.4a727 727 0 0 0 25.9-16.3Zm96.4 1.6L157.4 498c-4.3 2-13.6 1.1-18.5.8l37-23.5q.6-.4.8-1.2 11.7-1.1 23.5-.8Zm3.6 0q10.2-.7 20.2.8v.3a2139 2139 0 0 0-40.7 23.3q-1 .3-1 1.2a81 81 0 0 1-18.3 0c-.1-1 1.5-.8 2-1.2l35-22.1q1.6-1 2.8-2.3Zm26 .8q21.3 0 42.4.2l-39 22.3a11 11 0 0 0-3 2.2 67 67 0 0 1-19.6-.5c-4 1.5-13.1.8-17.6.5l-.1-.2q18.2-11.4 36.2-23.1.7-.5.8-1.4Zm45 .1q11-.2 22 .4v.2l-39.5 22.8q-1 .3-1.1 1.2c-5 1.2-11.4.5-16.6.8q-1.2.3-1.7-.7l36-23.5zm28 0q12.3 0 24.4.2l-43.3 25q-7.6.3-15.3.2-1 .2-1.6-.5 17-11.2 34-22.8 1.3-.8 1.9-2Zm27.9 0h24.6L312 499.3q-7.7.4-15.4.4-1 .2-1.7-.7 18-12 35.8-24.7Zm-162.5 1.3Q148.5 487 128.7 498q-.5.3-.5.7c-3 .8-14.8 1-17.3 0l33-20.8c3.8-2.9 20.3-3.3 24.3-2.5Zm-30 2L102 498.3c-4.4 1.5-9.3 0-13.6-1.5l-.4-.7q15.2-9 30.2-18.4c2-1.1 18-1.5 19.9-.4ZM224 491q-2.2 0-3 2-1.5-.5-2 1-2 0-3 1.7c.8 1.2 2.6-.8 3-1.6q1.5.2 2-1 2.1-.2 3-2.1c.6.2 2.8-.3 1.5-1.1q-1.2 0-1.5 1Zm208.2 10.5q-4.8 3-9.7 5.5a5 5 0 0 1-4.5-1q0-.6.7-.7 5.9-1.5 11.4-3.8 1-.4 2 0Z"/><path fill="#1f426d" stroke="#1f426d" stroke-width=".5" d="M435.7 54.8q2 3.8 2.4 8-6.9 4.7-14.1 8.9-.7.3-1 1c-2.6.5-5 3.5-7.3 3.4a15 15 0 0 0-5.6-8c2.8-2.6 8.7-1.6 10-5.2q1.5 0 2.6-.7zM328 100.2l.9 1.4q-6.4 3.5-12.6 7.2-.7.4-1.5.4v-1q6.5-4.2 13.2-8ZM168.4 143q-.9-.7-1.3-1.7l11.4-6.3c1.4-.7 3.6-4 5.2-2.4q0 .6-.7.8c-2.4.2-3 2-5 3.2q-5 3-9.6 6.4ZM365 183.3q.6.6.8 1.3l-11.8 6.7-2.2.8.1-1 10.8-6.7q1-.8 2.3-1Zm-46 155 .9 1.4q-7 3.8-13.8 8.1-1.6.8-3.3 1.2v-.9l14-8.7q1-.7 2.2-1Z"/><path fill="#f1f2f9" stroke="#f1f2f9" stroke-width=".5" d="M403 205.8q.3 5.7-.2 11.5-1-.3-1.8.3a561 561 0 0 1-25 15q-.6.3-.8 1 .8.6 1.9.2l5.5-3.8q7.7-4 15-8.6 2.6-1.7 5.5-2.6.2 10.5.1 21.2-1.2-.3-2.3.2l-51.3 32q-1.1.6-1.6 1.9c-1.8-.3-4.2 1.2-5 3-1.5-.3-6.4 2.4-7 4q-2 .2-3 1.8-1.7-.3-2 1.2a1 1 0 0 0-.9.3q.6.2 1-.3 1.5.1 1.8-1.2 2.1.2 3.2-1.8l1.3-.2c1.8-1.6 4.4-1.6 5.7-3.8q3-.6 4.9-3a4 4 0 0 0 2-.5l9.1-5.2q22-13.2 44.6-25.6v10.1c-18.5 11.1-36.7 22.9-55.1 34.3l-.7.8q-1.8 0-3.3 1.3-7.5 5-15.4 9.3-1.5.6-2.2 1.9.4.3 1 0l6.6-3.5q5.3-3 10.5-6.5c1-.5 3.5-1 3.5-2.3q1.2-.2 2.3-.8l47.4-27.7q.9-2 3.1-2 .4-.2.3-.5h1.3l.7-.3a64 64 0 0 1 0 10.1L346 303.5c-55.4-2-111 1.9-166.1.2q11.4-7.3 23.2-14.2 2-2.4 5.1-3 1.5-1.4-.6-1.1-5.5 2.8-10.6 6.3l-19 10.9q-.7.4-1 1c-7 1-14 2-21.1 2.7a11 11 0 0 0-3.7 1.2q1.6 1 3.7 1.1l10.3.8a4085 4085 0 0 0-54.3 32q-.9.4-2.1.6h-.8c-.2-2.5-1-7.9.5-10q26-16 51.6-32.2 8-4.5 16-9.5l2.6-2c-.9-.7-2.6.8-3.7 1-2.5 2.2-13.7 7.6-15 9.6q-1.5.5-3.1 1.3l-48 28c-2.1-.2-.9-6.2-1.2-7.7q0-1.3.7-2.5l80.5-50.7 1.5-1.5q.9.4 1.6-.2 6.5-4 12.8-8.4c-.5-.9-1.4 0-2 .3q-6.5 3.8-12.9 7.8-15 8.8-30.1 17.4l-1.3.8-.6.3-1.3.8-1.8 1q-.6.3-.6 1l-1.2.2-3.2 1.7-1 .7-1 .5a2 2 0 0 0-1.6 1.2q-1 .3-1.4 1.2-1.5-.3-1.6 1h-1.3a1 1 0 0 0-.8.7 2 2 0 0 0-1.2 1.2q-1.4-.3-2 1a9 9 0 0 0-5 2.8c-1.2.3-5 1.6-4.8 3.1-2.5-.1-7.3 3.8-9.8 4.8q-1 .4-1 1l-8 4.2q-.6.5-1 1.4a208 208 0 0 1-.2-31.5l1.7-.5q14.5-9 29.2-17.7 4-2.5 7.7-5.3-1-.6-2 0-5.7 3.9-11.6 7.4L108.9 280a114 114 0 0 1-.2-11.1q1.2.3 2.4-.2 21.5-13.6 43.2-27 5-2.9 9.8-6.4 2.1-.8 3.9-2.1 91.5 1.1 183.2.7a681 681 0 0 1-26 16.5q.3.6 1 .3a6 6 0 0 1 2.9-1.3l3.5-2.5 20.4-11.6q.7-.3 1-1.1c1.4-.3 7.3-2.1 6.9-4.2 2.5-.5 24.5-14.4 28-16q.9 0 1-.9c.6-.2 2-.3 1.9-1.3 1.5.2 3.4 0 3.2-2l1-1c1.2 1.2 3.8-.7 5-1.3zm1 68.2q.1 5-.1 10L321 336.7q-1 .7-2 1.7-1.2.3-2.3 1-7 4.5-14 8.7c-3.8 1.9-7 4.3-10.6 6.7-.8.3-3.5 1-2.6 2.2q6.6-3 12.9-7 .4-.4.4-1l3.3-1.2q6.6-4.4 13.8-8l84-48.8q.4 5.4 0 10.9-1 0-1.9.6l-48 30.2a2 2 0 0 0-1.2 1.5q-.9-.4-1.8.1-9 5.5-17.8 11.2.8.8 1.8.3 3-1.8 5.6-3.8c1.6-.8 13-7 13.1-7.8q24.9-14 49.4-28.5 1 .6 1.1 1.7c-.1 2.5.6 6.4-.5 8.6L319 371c-4.7 3.2-10.8 6.4-15.1 9.8-1 .2-3.4 1.2-3.7 2q-10.2-2-20.6-1.8-35-.3-70 .2-1.2 0-1.3-.8c3.9-1.2 8.4-4.7 11.7-7.1-1.6-1.1-2.6.3-3.7 1.3q-4.5 2.7-8.9 5v.3c-.8 1.8-4.3 1.3-6 1.6-13.8.6-27.5-.4-41.2-.3-.1-1 2.4-1.6 3-2.6q9.5-5.4 18.5-11.7l1.6-.3q1.6-1.5-.6-1.2l-1.8.9-21.9 13.1q-1.2.6-1.6 1.9-1-.4-1 .4c-1.7.6-7 1.1-7.9 3q.3 1-.1 2l-2.5.6a98 98 0 0 1-8.8 5 1295 1295 0 0 0-28 16q-.3-10.4 0-20.7.3-.6.9-.7l19.2-11.1c1.6-1.4 2.8-2.6 5-3l4.6-3.4q-.8-.6-2-.2l-27.1 16.6q-.5.1-.7-.4-.2-5.2-.2-10.5 1.2.1 2.4-.5c12.3-7.6 25.1-16 37.5-23.3.4-.9 3.6-1.7 3.2-2.8q1.7-.4 3.3-1.3 1-.6 1.7-1.7 2.3-.4 3-2.4c.6 0 2.2.3 1.9-.7l2.8-1 20.3-13q-1.5-.2-2.7.4a56 56 0 0 1-10 6l-10 6q-1 .4-1 1.5l-.7.2q-1.2-.4-1.3.9H158q-.8-.2-.8.6-1 .2-1.1 1.3l-1-.2q-.8 0-1 .8l-1.3.3q-.6 0-.5.7l-1.5.4q-1.8 0-1.5 1.7l-1 .5q-1.2-.2-1.1 1l-1.3-.1c-1.4.1-3.8.7-3.8 2.4l-1 .6q-1 0-1 1l-1.1-.1c-1.4.3-4 .8-4 2.6l-.8.5q-1 0-1.2 1l-1.1-.1q-2-.2-1.8 1.6l-.9.5q-.9 0-1.3.8h-.9c-1.2.4-4.1.8-3.9 2.6l-.9.6q-1 0-1.1 1h-1.2c-1.5.1-3.8.7-3.8 2.6l-.8.4q-1 0-1.2 1l-1.1-.2-4 1.3c-.3-2.4-.8-7.1.4-9.3q1.8-.6 2.9-2.1 2.2-.8 4-2 6.4-4.2 13-7.9l4.8-3.4 21.8-13.3q.9-1.5 2.7-1.8-.9-.5-1.8-.2-5.3 3.2-10.2 6.7-6.8 3.5-13.4 7.5a11 11 0 0 1-4.4 2.6l-.8.5-2.2 1.7q-.6-.2-.5.4l-1.5.3q-.6.3-.8.7l-1.2.3-1 .8a1 1 0 0 0-.6 1l-1.5.2a1 1 0 0 0-.7.7l-1.2.2q-.6.3-1 .9-.6.3-.8 1l-1.2.1q-.6.3-.9.8l-1.1.5q-2 .3-1.6 2h-1c-.6-2.2-1-9.2.2-11.2l59.4-37.4q1.8-.7 3.7-.7c53.8 1.2 107.6 1 161.5 1.1a767 767 0 0 1-25.2 16.1q-8.5 5.1-16.7 10.5.9.8 2 .2c4.2-3.4 9.7-5.7 14.3-8.8q.5-.2.4-.8c9.6-4.6 19.8-11.1 29.2-16.5 6.6-2.4 16.9 1.1 22.3-3.7 1.3-2.8-6-3-7.3-3.5l-.7-1q25-14.2 49.8-28.9zm-243.2 55c.2 0 1.8-.4.8-1q-.7.3-.8 1Z"/><path fill="#9caac0" d="M160.8 329.1q0-.7.8-1c1 .6-.6 1-.8 1"/><path fill="#f3f3fa" fill-opacity=".4" d="M331 284.1q-.3.6-.9.3a1 1 0 0 1 1-.3"/><path fill="#eeeef7" fill-opacity=".5" d="M336 281q-1 2-3 2 1-1.7 3-2"/><path fill="#f3f3f8" fill-opacity=".2" d="M348 274a8 8 0 0 1-5 3c.8-1.6 3.2-3.2 5-3"/><path fill="#efeff7" fill-opacity=".5" d="M333 283q-.5 1.2-2 1.1.4-1.5 2-1.2"/><path fill="#eff0f7" fill-opacity=".4" d="M343 277c-1.2 2.3-3.8 2.3-5.6 4h-1.3c.5-1.5 5.4-4.2 7-4"/><path fill="#f1f1f8" stroke="#f1f1f8" stroke-width=".5" d="M276 73.9q-4 0-8-.3 0-.8.6-1.2c3.4-.7 3-.7 5-3 3.6-.3 3.6-2 6.4-3.2q1.2-1.8 3.5-1.2.6.5.1 1.1c-1.2 1.3-7.4 6.5-7.6 7.8Zm-19-8.1q1.2.1.5 1.2l-7.5 7-6.2-.2q1-.5 1-1.6c2.7-.5 9.2-5.3 12.3-6.3ZM222 67c1.2.6 0 3.4-.7 4.2q-1.3.6-1.6 2h-1c-1.8.1-5.1.7-6.5-.7q4.8-3 9.8-5.5Zm23.8 1.6q0 1.5-1 2.6-1.7.5-2 2.1l-.8.1a4 4 0 0 1-3-1q3.3-2.1 6.8-3.8ZM138 72.1 125.5 86q-.4.5.1 1a586 586 0 0 0 23.1-13.2c3.1-1.9 13.5-.4 17.4.2a136 136 0 0 1-8 6.7c-1.5.9-3 1.1-3.8 2.6q.4.5 1 .3c1.5-1.3 1.6-1.7 3.7-2.2l12-7.1q5.3-.7 10.5-1 2.2 1.6 4.8 3L164 93.6l-3.2 1.9q-1.6 1.3.5 1l2.1-1.6a1227 1227 0 0 0 28.2-16c2.4-1.3 13.2.8 16.5 1a3 3 0 0 1-1.2 1.6l-11.6 7.8q.3.5 1 .5Q204 85 212 80.6l36.1.8q-.6 1-1.6 1.7-4.8 2.9-9.4 6.4-4.8 2.9-9.5 6-3 1.2-5.2 3.3c-.5.3-3.3.6-2 1.7a18 18 0 0 1 4.5-2.2q.5-1 1.5-1.5 4.5-1 7.6-4.4 4.4-2 8-4.9 2.5-1.5 5-2.2l1.1-1.5c1.7.8 3.6-1.2 4.9-2 6-1 13.9-.4 20.2-.7a5 5 0 0 1-1.8 1.8l-55.3 37.8q-1.7 1-2.9 2.5l-1.2.1a73 73 0 0 1-8 5.2q-.7.3-1 1a2 2 0 0 0 2.1 0l9.8-6.1q36.9-21.5 74.1-42.7c13-1.8 27.7-1.2 39.6-7.2q3.8.1 7.4.6l.3.7q-1.2.6-2.3 1.5-.7-.3-.7.5l-5.6 2.9-92.5 60.8c1.4 1.2 2.5-.4 3.7-1.2l12.6-7.3q.9-.5 1.3-1.3l2.5-1L352 73.8c3.8-1.4 14.8-1.6 19.3-1.8a4 4 0 0 1-1.3 1.4q-21 13.2-42 26.8-6.7 3.8-13.2 8-8.5 5-16.7 10.4.9.8 2 .2c4.1-3.4 9.6-6 14.3-8.8q.4-.2.4-.7.8 0 1.5-.4 6.2-3.8 12.6-7.2L379 72.6c2-1.6 14.6-.4 15.2 1.2q-21 13.3-42.3 26.3l-9 5.1-9.7 6.3q.4.6 1 .3 3-2 6.5-3.4 5.2-3.5 10.6-6.3.6-.4.5-1l3.3-1.3q20.8-12.3 41.8-24.3c3.4-1.3 6.2 3.7 7 6.4q-6.6 3.7-13 7.9l-47.1 29.4q-10.2 6.4-20.7 12.4-.7.3-1 1 .9.7 2 .2 7.5-5.2 15.7-9.3c.5-.8 4.5-2.3 4-3.3a6 6 0 0 0 2.2-.8l41.3-23.7q1-.6 1.6-1.4 5.2-2.2 10-5.4c1.2-.8 3.8-1.6 4.3-3q1.1.6.7 1.6a45 45 0 0 0-.9 10.3q-1.8.3-3.4 1.4c-9.7 6.2-19.5 12.7-29.5 18.3a37 37 0 0 1-9 5.6 37 37 0 0 1-5 3q-1 .1-1 1-.9 0-.9.9l-1.3.2q-1.5.4-2.3 1.8c-.5 0-1.8 0-1.4 1l-1.3.1q-1.4.7-2.1 1.8c-.6 0-2 0-1.5 1l-1.5.3q-1.1.8-2 1.8a7 7 0 0 0-4.7 2.7c.6.6 4.8-1.3 4.7-2.7q1.2 0 2-1l1.5-.3q1.5-.3 1.5-1.8 1.2.3 2-.8l1.4-.4q1.7-.2 1.4-1.7 1.3 0 2.1-.9l1.6-.4q1.4-.2 1.4-1.5c2 .1 4-1.6 5.6-2.6q21-11.9 41.7-24 .2 5.3-.3 10.4-16.1 10-32.6 19.6l-4 2.9q.8.6 2 .2l34.6-20.8c-.2 5.5.7 27.3-.8 31.1-1.6 1.3-9.6 5.5-10 6.9q-1.5 0-2 1-2.1.3-3 2.1-1.3 0-1.8 1a1 1 0 0 0-1 .8l-1.2.4a1 1 0 0 0-.6 1c-.5.1-2.3 0-2 1q-1.4.3-2.7 1-7.8 5.4-15.8 10.2-12.6 7.5-24.8 15.6a389 389 0 0 0-16 10.1l-9.2 5.2q-3.2 2.5-6.8 4.2-.7.3-1 1c1.7 1 4.2-1.7 5.5-2.5l11-6.1q.4-.4.2-1 .8.2 1.5-.3l15.1-8.7q.5-.3.5-.8 1.5-.2 3-1.1 30.6-18 61.6-35.4c.2 2.3 1 8.6-.6 10.4L367 181.7l-2 1.6-2.3 1-10.8 6.8-17.8 10.5c-.5.4-1.4.7-.7 1.4q3.4-1.4 6.6-3.3 5.7-3.5 11.5-6.7.4-.4.3-1 1.2-.2 2.2-.7l11.8-6.7c4.8-2.8 34-20.8 36.9-20.8l.1 10.2q-1 0-1.8.6l-11 7q-.9.5-.8 1.4c-3.6 1-10.8 6.7-15 8.6L324 223q-1.6.5-2.4 2l-.5.1q-1 0-1 .9c-46.8-.3-94 2.2-140.6 1.3-3.7.2-25.7 1.7-27.2 3.4q.8 1 2.2 1 6.8.4 13.5 1.6-1.8 1.3-4 2.1-1.4-.2-2.7.4l-8.4 5-44 25.5c-.2-2.8-.7-7.6.2-10.3q30.7-19.6 61.8-38.7.9-.5 1.5-1.5.9.4 1.6-.3l12.8-8.2c-1-.8-2.3.5-3.2.8q-6 3.4-11.6 7.2a4267 4267 0 0 0-54 31q-4.3 2.4-8.3 5.1c-1.9-.6-.7-6.3-1-8q0-1.2.7-2.4a2166 2166 0 0 1 48.3-30c2.4-.3 3.9-2.9 6.5-3.4q1.8-1.5-.6-1.2l-1.8.9c-6.7 4.4-14.2 8-20.6 12.6q-16.2 9.3-32.5 18.3-.3-5.7.2-11.3a3 3 0 0 0 2-.4c15.5-9.3 30.7-19.4 46.2-28.7q1.3-.8 2.2-2 .9.2 1.6-.4 6-3.5 11.6-7.4l1.6-.5q2-1.5-.5-1.3-1.7 1.4-3.8 2-4.6 3-9.4 5.7-.9.5-1.2 1.5-2.1.8-4.2 2l-46.2 26.5c0-2.7-.9-8.7.7-10.9l82.5-54.3q1.7-.6 3.5-.6c45.4 0 91.5-2.3 136.9-1.4 7-.4 21.3-.7 27.2-3.2q-.6-.7-1.6-1c-17.5-2-35.8-1.6-53.6-2.2q-72.7-.6-145.7-.2c1.3-2 7.5-5.4 9.7-7.1q4.7-3.4 9.6-6.4c2-1.1 2.6-3 5-3.2q.7-.2.7-.8c-1.6-1.6-3.8 1.7-5.2 2.4l-11.4 6.3q-11.7 6.6-23 13.7-1.3.3-2.5 1l-9.7 5.8a5 5 0 0 0-2.9 2.4q-1.4-.3-2 .8-2.2.3-3.1 2-1.5-.3-1.8 1.1-1.3-.2-2.1 1-2 .2-3.1 1.8c-1.8.5-6.7 2.5-7.1 4.4q-.6-.2-1-.8-.5-5.3.2-10.5l1.3-.4c2.9-1.8 5.4-3.8 8.5-5.2q4.5-3.6 9.2-7l5.6-3.4q.4-.3.5-1l1-.1q.5 0 1-.3c.4-.7 3.2-1.6 2.5-2.7q-2.4.2-3.3 2.3-1-.1-1.2.8-1.7.3-3.3 1.2a21 21 0 0 1-5 3 43 43 0 0 1-5.9 3.5l-1.2 1.6c-1.2-.9-3.5 1.3-4.8 1.6l-1.1.7-.8.6-1.4.7q-.8.4-1.3 1.3c-.9-5.8-.5-16-.2-22.2q5.2-4 11-7.4 1.4-1 2.6-2.4c.6-.9 3-.5 3-1.5q-.7-.7-1.7-.4-6.9 4.7-14.1 9-1.2-.5-1.2-1.7l.2-10.8c3 0 17.4-12.4 20.7-14.8l1.6-.5q1.3-1.2-.6-1.1l-1.9.8c-5.3 4-13.8 8.3-19.8 11.7q-.3-14.4.3-29 .8 0 1.4-.7 1.7-1.7 3.1-3.7-.4-.5-1-.1a9 9 0 0 1-4 1.8l.4-10.6c.5-2 4.4-2.3 6-2.3 6.3-4.1 15.7-3 23-3.2Zm-25.2 33c.2 0 1.9-.4.8-1a1 1 0 0 0-.8 1Zm38.4 49.6c12.6 2.9 26 2.6 38.8 3.4a5156 5156 0 0 1-81.2 46.8q-.1-11 .2-22c4.7-.7 35.8-23.8 42.2-28.2Zm251.5 25.1q.3 5.3 0 10.4h-1.1l-16.7 10.2q-1 .7-1.1 1.9a2 2 0 0 0-1.3-.3l-14 8.4q-.9.7-1.5 1.6a4 4 0 0 0-3 1.9q-1.5 0-2 1-2.3 0-3 2a2 2 0 0 0-2.1.8c.7.9 2 .1 2-.8q2.2-.1 3-2 1.5.5 2-1 2.2 0 3.1-2h1.4l14.7-8.4q.8-.4.7-1.2a7 7 0 0 0 2.3-.7q8.4-4.7 16.7-9.8a81 81 0 0 1 0 11.1q-1 0-1.9.4L360.2 229c-12.3-2.4-24.8-2.5-37.2-3q.7-.9 1-1.9 2.9-1 5.4-2.5l70.7-40.9q1.2-.7 2.7-.9Zm1.4 144a25 25 0 0 1-.3 10.2 3904 3904 0 0 1-55.7 35.6q.4.6 1.1.3l10.1-5.9q.6-.3.5-.8l3.9-1.9 40.5-23.2c0 2.7 1 8.8-.8 10.9q-30 19.8-60.2 39.4c1 1.1 3.6-1.4 4.5-2l5.4-2.6 2.4-1.9q24.3-14 48.7-27.7c-.2 3 .5 8.2-.6 10.8l-55.2 37.4c.4.9 2.8-1.2 3.6-1l52-30.4c-.3 2.5 1 10.6-1.2 12-16.2 11.2-32.5 23.8-48.8 34.5q-1.7 1.2.3 1.2.8-.6 1.5-1.4c16.3-7.9 32-18.2 47.9-27.3q.4 6.6-.8 13.2-.9-.1-1.8.4a1562 1562 0 0 0-31.8 24.5c-.8.6-3 1.2-3.1 2.3q.9.6 1.9 0Q385.3 420 403 410q.1 5.5-.4 11.1l-2.3 1.9c-.5.6-4.2 1.8-2.9 2.9 1.1-.7 3.6-1.2 3.5-2.8l1.6.5c-.7 3.5.1 11.6-1.3 14.4l-7.8 8q-.5.6 0 1.1l7.7-3.9q-.1 10.5-1.4 21c-.8.8-10 .3-11.8.5q0-.6.3-1.1 2-2.4 3.7-5l-.4-.3q-5.2 3.1-10.5 6-8.7.4-17.4 0c2.9-5.2 14.3-14.9 19-19.7-.9-1.4-3.4 2-4.3 2.2L348 464.1q-7.7.6-15.5.7-1 .3-1.7-.5c.1-1 5.6-4.2 6.5-5.4.8-.7 3.5-1.2 3.5-2.4q-.9-.6-1.8 0-6 3.8-12 7.3c-4.9 1.2-11.5.6-16.5 1.1q-1.1.2-1.6-.6 0-.7.7-1l41.3-32 2.8-1.6c-1.6-1.8-3.8 1.6-5.3 2.2L292 464.2a96 96 0 0 1-17 .2l53.8-39.1q1.6-.6 2.9-1.6c-1.7-1.8-3.8 1.6-5.3 2.2L260 464.1c-5.1 1-12.8.3-18.2.5 2.7-2.4 6.6-4.4 9.8-6.5l48.8-33.2q.7-.4 1-1.3c-1.3-.9-1.8 1-3 1.4L230 464.2c-4.2 1-12.4.2-17 .5q0-.8.8-1.3 27.3-17.7 54.3-35.6 6-3.9 12-7.2.8-.3.8-1.1-.9-.6-1.9 0l-10.6 6.5q-.3.3-.3.8-3.4 1.4-6.5 3.3-29.7 17.4-59.7 34.2-7.6.3-15.3.4-.6 0-.8-.5.2-.6.8-1Q209 449 231 434.6l12-7 2.7-2.2q-1-.7-2 0l-13.7 8.4-53.2 30.4q-8.4.5-17 .4.3-.7 1-1.2 45.3-29 90.2-58.5l2.9-1.4 8.8-6.3q-.4-.6-1.2-.2l-9.4 5.6q-1 .4-1 1.3-1.7.5-3.2 1.4l-102 58.8c-3 .2-15.2 1.2-17.1.1l57-36 1.5-1.5q.7.5 1.6-.1 6-3.7 11.6-7.5 2.5-.9 4.2-2.8c-.4-1-1.4 0-2 .2a181 181 0 0 1-14.4 8.4q-.8.6-1.4 1.5l-2.1.8-63.9 37c-3.8 1.6-9.8 1.1-11.4-3.4q.6-.8 1.5-1.3l84.5-53.4c.8-.8 4.2-2.1 4-3.3q1.6 0 2.9-.9 10-6.6 20.3-12.6l2.2-2.3 69.4-.3c1 0 9-1.8 5.7-3.9.3-.8 2.7-1.8 3.6-2q1.4 0 2.7-.2 5.9-4.2 12.2-7.6.5-.3.2-.7 41.8-23.5 83.2-47.6zM149 386.6q10.2 0 20.3.8c-3.3 1.5-14.5 8.7-18.7 10.6l-4.2 3q-1.2 0-1.7 1-.8 0-.5.8l-.8.4q-1 0-1.5.9h-.8q-.8.2-1 1.1l-1.1-.1q-1.8-.3-1.9 1.5l-.8.7q-.9-.2-1.3.7l-1 .1c-1.3.3-3.9.7-3.8 2.5l-1 .5q-1 .2-1 1.1l-1-.1c-1.5.3-4.2.7-4 2.7l-.8.5q-1 0-1.2 1l-1.2-.2q-2-.3-1.7 1.7l-1 .4q-1 0-1.4.8l-.8.2q-.9 0-1 1l-1.2-.1q-1.5 0-1.9 1.5l-1.2.7c-1.8-1-.6-7-1-8.9.1-1.6 1.1-1.3 2-2.1q2-.4 3-1.9l11.6-6.7 4.5-3.4 9-5q3.8-2.6 7.2-5.4c1-.4 3.1-.8 3-2.3Zm48 1.1c5.7-1.4 19.8-.6 26.3-.7l-5.2 3.8-20.1 11.5-89 51.7q-.3-6 0-12.2l1.3-.1q2.5.8 2.7-1.9 1-.6 2.4-1 2.2.4 2.7-2 1.6.5 1.8-1 1 .3 1-.7 1.2-.2 2.3-1.2 1.3.5 1.8-.9.8 0 .9-.8 2.3-.9 4.4-2.4.6 0 .6-.6a35 35 0 0 0 5.5-2.9z"/><path fill="#f0f1f8" fill-opacity=".5" d="M359 217c-.1.8-1.4 1.6-2.1.7a2 2 0 0 1 2-.8"/><path fill="#f0f0f7" fill-opacity=".4" d="M362 214.9q-1 2-3 2 .8-2 3-2"/><path fill="#f0f0f8" fill-opacity=".3" d="M367 212q-.9 2-3 1.9a4 4 0 0 1 3-2"/><path fill="#eaeaf1" fill-opacity=".2" d="M383.8 202.3q0 .8-.7 1.2-7.4 4-14.7 8.4H367l1.5-1.5 14-8.4q.7 0 1.3.3"/><path fill="#617998" fill-opacity=".4" d="m135.3 146.2-.2.7-1 .1q.3-1 1.2-.8"/><path fill="#93a3bb" fill-opacity=".8" d="m135 146.9.3-.7a4 4 0 0 1 3.3-2.3c.7 1-2 2-2.5 2.7q-.5.3-1 .3"/><path fill="#abb7cb" fill-opacity=".6" d="M340.8 136c0 1.4-4.1 3.3-4.7 2.7a7 7 0 0 1 4.7-2.7"/><path fill="#5c7796" fill-opacity=".3" d="m342.8 134.2 1.5-.3v.8l-1.5.3z"/><path fill="#a5b2c6" fill-opacity=".6" d="M342.8 134.2v.8q-.7 1-2 1 .8-1 2-1.8"/><path fill="#aeb9cc" fill-opacity=".5" d="M345.8 133q0 1.5-1.5 1.7v-.8c-.4-1 .9-1 1.5-1"/><path fill="#9ba9c0" fill-opacity=".5" d="m347.9 131.1-.1 1q-.8 1.2-2 .8.8-1 2-1.8"/><path fill="#b3bbd1" fill-opacity=".3" d="M350.6 130q.3 1.5-1.4 1.7v-.8c-.4-1 .9-1 1.4-.9"/><path fill="#d1d9e6" fill-opacity=".4" d="M112.8 105.1q0-.7.8-1c1 .6-.6 1-.8 1"/><path fill="#eff0f7" stroke="#eff0f7" stroke-width=".5" d="M169.2 387.4q12.6-.7 25-.5-.4.8-1.2 1.5-42 24-84 48.5c-.6-2.5-.2-8.2-.2-11q1.2-.1 2.2-.7 17.4-10.7 34.6-21.8-.5-.7-1.5-.6-.3-.9.5-.9 1.2 0 1.7-.9l4.2-3c4.2-1.9 15.4-9 18.7-10.6Zm-11.3 8.7c.4-.1 1.5-.5.6-1q-.6.3-.6 1Z"/><path fill="#f2f2fa" fill-opacity=".4" d="M121.8 351q0 1-1 .8zm36.1 45q0-.6.6-.8c.9.4-.2.8-.6.9"/><path fill="#f1f1f9" fill-opacity=".3" d="M364 213.9q-.6 1.5-2 1 .5-1 2-1"/><path fill="#bec1df" stroke="#bec1df" stroke-width=".5" d="M264.1 10.2a24 24 0 0 1-5.1 4.3q-.7.6-.7 1.7-2.4-.5-3 1.7-2.1 0-3 1.8c.4 1.2 3-.7 3-1.8a5 5 0 0 0 3.5-1.3l9.5-5.7q.6-.3.4-1 8.1-.2 16.3-.1c-.4 3.7-25 19-24.9 22.4q-1.2-.2-2.1.4-5.4 4.6-11.1 8.7c-1.1.6-1 2.1.1 1.6q5.6-3.9 11.5-7 1.5-.6 2-2 .8.6 1.8-.1L296.6 14l1.5-1.3a17 17 0 0 1 10 5.3 222 222 0 0 0-19 14.7c-1 .3-2.9.5-3 2 1 .9 3-.7 3-2 3-.2 18.4-9.9 22.1-12q3.9 4 5 9.2a5 5 0 0 0-1.8 1q-8.2 6.7-16.2 13.6.8.6 1.8 0 8.2-5 16.5-9.6l1-1c.6 2.3 1.6 11.2-.2 13.2q-1.3 1-2.2 2.5c.6 1.1 2.4-.5 3.3-.5.3 3.6.2 22.3-1.3 24.4q-9 .4-18.2.1 1.2-1.8 2.1-3.9 1 .3 1.3-.9.9-.3 1.3-1.4c-.8-.7-2 .6-2.5 1.2q-1.2.3-2 1.3-.9.3-1.2 1.2-1.5-.5-2 .9-1.2 0-1.8.7-1.1.1-2 1-8 .3-16.1.1c.3-1.2 6.4-6.4 7.6-7.7q.5-.6-.1-1.1-2.3-.6-3.5 1.2c-2.8 1.2-2.8 2.9-6.4 3.1-2 2.4-1.6 2.4-5 3q-.6.6-.7 1.3-9 .5-18 .3l7.7-6.9q.7-1-.5-1.2c1-1.7 3.3-1.5 4.9-2.4q5.4-4.4 10.7-9-3-.6-4.8 2-2.3.7-4.3 2-.4 0-.6.6-1 .3-1 1.3c-2 1.1-4.1.8-6 2.6q-1 .3-1.1 1.1 0 .5-.5.6c-3.5.4-5.4 2.8-8.5 4a45 45 0 0 0-6.7 3.9 4 4 0 0 0 2.9 1c-5.7.8-15.2.1-21.2.2q1-.7 1-2 2-.8 3.4-2l22.5-17.1q-.9-.6-1.8 0a1079 1079 0 0 1-33.7 20c1.4 1.2 4.7.7 6.5.5q0 .4-.5.5c-3.4.1-21.9 1.8-22.3-2.5q15-11.3 29.5-23l.5-.7q1.5-1 2.3-2.7c.7 0 3.3-.6 2.2-1.7-.7 0-2.8.6-2.2 1.7-3.6.6-6.7 4.5-10.7 5.5q-1.2 1.2-2.2 2.5c-4.9.8-16.4 9.2-21.5 11.4l.3-26.1q.7-.2 1.5-.8l4.9-4.7c-.6-1.8-3.2 1.4-4 1.6l-2.5 1c2-27.5 18-23.2 39-22l-.3.7-9 8.6q-.6.6-.5 1.5l-1.6.2q-1.5.9-2.4 2.4c.7 1 2.3-.7 2.8-1.2l1.2-.6c2.5-2 20.4-10.7 20.5-12.7zm22.2 52.4q-1.1.1-2 .9 1.5.9 2-.9c1 .5 2.9-.4 2.1-1.6q-1.5.2-2.1 1.6Z"/><path fill="#5f6170" fill-opacity=".1" d="M286.3 62.6q-.5 1.8-2 .9.9-.7 2-.9"/><path fill="#bec0df" fill-opacity=".3" d="M286.3 62.6q.6-1.5 2.1-1.6c.8 1.2-1 2.1-2.1 1.6"/><path fill="#abb1d1" fill-opacity=".3" d="M228.3 44.7c-.6-1 1.5-1.7 2.2-1.7 1 1.1-1.5 1.7-2.2 1.7"/><path fill="#506a91" fill-opacity=".9" d="M289.2 32.7c0 1.3-2.1 2.9-3.1 2 .1-1.5 2-1.7 3-2"/><path fill="#bec2e0" fill-opacity=".5" d="m221.7 24.1.4 1.2c-.5.5-2.1 2.1-2.8 1.2q.9-1.5 2.4-2.4"/><path fill="#305079" fill-opacity=".8" d="M144.1 155q.8 0 1.5.4l-8.4 5.2c-2 .3-3.2 2.3-5.3 1.2l9.7-5.8zm-15 9.2a6 6 0 0 1-2.2.8q.7-1 2.1-.8m-2.2.8q-1 .8-1 2h-2a4 4 0 0 1 3-2m-3 2q-.7 1-1.8 1.1.3-1.5 1.8-1m-1.8 1.1q-.8 1-2.1 1 .8-1.3 2.1-1m-2.1 1q-.9 2-3.1 1.8 1-1.5 3-1.9m-3.1 1.8c-1.2 2.3-5 3.3-7.1 4.3.4-1.8 5.3-3.8 7-4.3"/><path fill="#1a3b63" fill-opacity=".2" stroke="#1a3b63" stroke-opacity=".2" stroke-width=".5" d="M438 62.9c1.3 0 .7 1.5.3 2L425 72.7q-1 .6-2 .1.3-.7 1-1 7.2-4.2 14-8.8Z"/><path fill="#39587f" fill-opacity=".8" d="m401.9 144 .4 1-7 4.6q-1.7 1-3.5 1.3c.5-1.4 8.5-5.6 10-6.9m-10 6.9q-.5 1.2-2 1 .5-1 2-1m-2 1a3 3 0 0 1-3 2.2q.9-2 3-2.1m-3 2.2q-.6.7-1.8 1 .6-1.2 1.9-1m-1.8 1q-.3.6-1 .7a1 1 0 0 1 1-.7"/><path fill="#163055" fill-opacity=".2" stroke="#163055" stroke-opacity=".2" stroke-width=".5" d="M402.3 145q.4.8.4 1.8l-18.6 11-4 1.9.2-1.6q1.2 0 2-.8l.6-1 1.2-.5q.7 0 1-.7 1.1-.3 1.9-1a3 3 0 0 0 3-2.1q1.3 0 1.8-1.1 1.8-.3 3.5-1.3z"/><path fill="#2b4d75" fill-opacity=".5" d="m382.9 156.3-.6 1q0-.7.6-1m-.6 1q-.8 1-2 .8c-.3-1 1.5-.8 2-.8m-2 .8-.3 1.6q-.6.8-1.4 1.3-5.6 3.6-11.7 6.4l-.8 1c-1.5.3-2.9 2.2-4.3 1q8-4.9 15.8-10.1z"/><path fill="#163966" fill-opacity=".2" stroke="#163966" stroke-opacity=".2" stroke-width=".5" d="M434.6 54.2q.7 0 1 .6l-13 7.4q-1.1.6-2.4.7 0-.8.8-1.2l12-7.3q.7-.5 1.6-.2Z"/><path fill="#193760" fill-opacity=".2" stroke="#193760" stroke-opacity=".2" stroke-width=".5" d="M374 36.6q1.4.2 2.1 1l-10 6q-1 .4-2 .5 0-1 .8-1.5 4.8-2.7 9.2-6Z"/><path fill="#193f65" fill-opacity=".2" stroke="#193f65" stroke-opacity=".2" stroke-width=".5" d="M86 267.2q-.7.9-1.6 1.5l-7.9 4.5q-1.2.8-2.2 1.8 0-1 .3-2l9.4-5.6q1-.5 2-.2Z"/><path fill="#2b4770" fill-opacity=".2" stroke="#2b4770" stroke-opacity=".2" stroke-width=".5" d="M129 301.9a5 5 0 0 1-1.6 1.9l-8.4 4.9q0-.7-.8-1 .3-.6 1-1c2.6-1 7.4-5 9.9-4.8Z"/><path fill="#183354" fill-opacity=".2" stroke="#183354" stroke-opacity=".2" stroke-width=".5" d="M82.7 257.1q.1.9-.7 1.3a71 71 0 0 0-7.7 4.5q0-1 .5-1.9c1.8-.7 6.1-4.4 8-3.9Z"/><path fill="#1c406b" stroke="#1c406b" stroke-width=".5" d="M402.5 175.8q.3 2 .2 4-1.4.1-2.7 1l-70.8 40.8q-2.4 1.6-5.3 2.5v-1l50.3-31.5c4.3-1.9 11.4-7.6 15-8.6v.5q6.8-3.6 13.3-7.7ZM95.6 186.6q.4 11.7.4 23.4c-1.9-.4-20.3 10.7-21.9 12.3v-22.7a770 770 0 0 0 21.5-13ZM89 202c-.9.2-3.3.8-3 2q-1.4-.2-2 1-2.3.2-3 2.1-1.2-.2-2 .7c.6 1 1.8 0 2-.7.8-.4 3.4-.5 3-2q1.4.3 2-1c1.2-.1 3.4-.3 3-2 .5.2 2.8-.3 1.6-1.1q-1.2 0-1.6 1Zm7 48v12c-2.7 1.6-7 5-10 5.3q-1-.3-2 .2l-9.4 5.6q-.6-5-.3-10 3.7-2.6 7.7-4.6.9-.4.7-1.3c1.4-3.3 10.3-4.5 13.3-7.2Zm342.8 107q1 10.6.9 21.4-11.8 7.2-23.4 14.8-.4-11.7 0-23.3zm-6 14.3c.6 0 3-.5 1.8-1.3q-1.5 0-1.7 1.3Z"/><path fill="#3e5c81" fill-opacity=".3" stroke="#3e5c81" stroke-opacity=".3" stroke-width=".5" d="M140.9 295q-.6 1.2-2 1 .6-1.3 2-1Zm-2 1c-.5 1.6-3.4 2.7-5 2.8a9 9 0 0 1 5-2.9Z"/><path fill="none" d="m112 159.2.8-.6 1.4.3-1.3 1.4q-2 1-3.6 2.5-.5-.7 0-1.6t1.3-1.3q1 0 1.4-.7"/><path fill="#1c3c64" fill-opacity=".8" d="M265.8 506.4q3.2-.6 6.4 0a5 5 0 0 1-6.4 0"/><path fill="#1b3f6a" fill-opacity=".8" d="M209.9 505.9q3.3 0 6.4.8a5 5 0 0 1-3.6.7q-2 0-2.8-1.5"/><path fill="#1c3e67" fill-opacity=".8" d="M235.8 506.4q3.2-.9 6.4 0a5 5 0 0 1-6.4 0"/><path fill="#415573" fill-opacity=".2" stroke="#415573" stroke-opacity=".2" stroke-width=".5" d="M395 209.9c.2 2-1.7 2.3-3.2 2q-.6 0-.8-.3 1.8-1.2 4-1.7Z"/><path fill="#425975" fill-opacity=".2" d="m152.8 346 1.3-.3h1v1.3q-1.6.9-3.3 1.3l-1.2-.3.2-1 1.5-.3q.5-.3.5-.7"/><path fill="#1b406b" fill-opacity=".5" stroke="#1b406b" stroke-opacity=".5" stroke-width=".5" d="M403.7 84q.3.8-.4 1 0-.5.4-1ZM89 202c.4 1.7-1.8 1.9-3 2-.3-1.3 2.1-1.9 3-2Z"/><path fill="#3b5880" fill-opacity=".7" d="m145.8 387.3 2.5-.6.6-.1c.2 1.5-1.8 1.9-2.9 2.3a2 2 0 0 0-.2-1.6"/><path fill="#4a5d73" fill-opacity=".1" stroke="#4a5d73" stroke-opacity=".1" stroke-width=".5" d="M112.9 439.8q-.1 2.7-2.7 1.9c0-1.3 1.8-1.5 2.7-1.9Z"/><path fill="#1b3f6b" fill-opacity=".8" d="M172.2 30.4q-2 1-4.3.4c0-1.4 3.5-.8 4.3-.4"/><path fill="#0e1e37" fill-opacity=".1" stroke="#0e1e37" stroke-opacity=".1" stroke-width=".5" d="m402.8 205.3.1.5-1.9 1.8-1.3-.7q1-2 3.1-1.6Z"/><path fill="#32537b" fill-opacity=".6" d="M154 286.8q-.4 1.1-1.5.7zm-1.5.7q0 2-1.7 1z"/><path fill="#1d3b60" fill-opacity=".9" d="M429 33q1.8-.3 3.3.8c-1 .3-3.1.6-3.3-.8"/><path fill="#1b3f6a" fill-opacity=".3" stroke="#1b3f6a" stroke-opacity=".3" stroke-width=".5" d="M81 207c-.2.8-1.4 1.6-2 .7q.8-.9 2-.6Z"/><path fill="#4d5869" fill-opacity=".4" stroke="#4d5869" stroke-opacity=".4" stroke-width=".5" d="m294 72.7-.3 1H292q.9-.9 2-1Z"/><path fill="#434a54" fill-opacity=".4" stroke="#434a54" stroke-opacity=".4" stroke-width=".5" d="M403.7 255.2v1.7l-.7.3-.2-1.4q.4-.5 1-.6Z"/><path fill="#23426a" fill-opacity=".9" d="M299.2 70q.9 0 1.8-.3-.9 2-2.1 4a19 19 0 0 1-5.2 0l.4-1q1.2.5 1.7-.7 1.3 0 2-.9a2 2 0 0 0 1.4-1.2"/><path fill="#1c3e68" fill-opacity=".5" d="M90.3 30.1a2 2 0 0 1-1.7.7q.6-.7 1.7-.7"/><path fill="#3b4e89" fill-opacity=".1" stroke="#3b4e89" stroke-opacity=".1" stroke-width=".5" d="M263 59q-.3.8-1 1.3 0-1 1-1.3Z"/><path fill="#1b3b62" fill-opacity=".5" d="M443 493.6q0 1.2-1.1 1.7.1-1 1.2-1.7"/><path fill="#33557d" fill-opacity=".2" stroke="#33557d" stroke-opacity=".2" stroke-width=".5" d="M142 293.8q0 1-1.2 1.2.4-.8 1.3-1.2Z"/><path fill="#1c4169" fill-opacity=".2" stroke="#1c4169" stroke-opacity=".2" stroke-width=".5" d="M142.9 293.1h1.2q-.3.5-.9.7z"/><path fill="#1e3c69" fill-opacity=".1" d="m352.9 128.2 1.3-.2.2.7-1.7.4z"/><path fill="#385880" fill-opacity=".5" d="m334 76.3-.7.5q0-.7.7-.5"/><path fill="#3a5880" fill-opacity=".3" stroke="#3a5880" stroke-opacity=".3" stroke-width=".5" d="M125.8 432.2q0 .8-.9.8.4-.5.9-.8Z"/><path fill="#224770" fill-opacity=".8" d="M160.8 282.8q-.3 1-1.3.7z"/><path fill="#21416d" fill-opacity=".2" stroke="#21416d" stroke-opacity=".2" stroke-width=".5" d="M120.8 435.1q0 1-1 .8z"/><path fill="#1c3e69" fill-opacity=".5" d="M93 38.9q-.3.9-1.3.9.5-.7 1.3-1"/><path fill="#17375b" fill-opacity=".2" stroke="#17375b" stroke-opacity=".2" stroke-width=".5" d="M123.9 167h2q0 .6-.4.9-8.1 5.2-16.4 10.1-.4-1.6.7-2.7c2.1-1.1 6-2.1 7-4.4q2.3.2 3.2-1.9 1.2 0 2.1-.9 1.2-.2 1.8-1Z"/><path fill="#254872" fill-opacity=".9" d="M402.7 146.8q0 1.4-.3 2.8a5165 5165 0 0 0-61.7 35.4 8 8 0 0 1-3 1q-.4-.3-.7-1 12.2-8.1 24.8-15.6c1.4 1.2 2.8-.7 4.3-1l.9-1q6-2.8 11.6-6.4l1.4-1.3q2.2-.8 4-2 9.4-5.3 18.7-11m0 56.1q.3 1.2.1 2.3-2.2-.2-3 1.7-2.4.5-3.8 2l-1 1q-2.2.5-4 1.7.2.5.8.3c.1 1-1.3 1.1-2 1.3q-.9 0-1 1c-3.4 1.5-25.4 15.4-28 16q-.6-.4-.7-1.2l40.9-25.7q.8-.4 1.8-.4m1 50v2.3l-.9.6q-.8.5-1 1.3 0 .4-.4.6-2.2 0-3.1 2-1.7.9-3.5 1.5-.7 0-.6.7L351 287.3q-1 .6-2.3.8l-.7-.2.7-.9c18.4-11.3 36.6-23 55-34.2"/><path fill="#234570" fill-opacity=".9" d="m403.9 81.9-.2 2q-.4.6-.4 1.2v.9c-.6 1.3-3.2 2.1-4.4 3-1.7-2.3-5 .7-6.9 1.3l-1-.5q6.3-4.2 12.9-8m-2.8 4.3q1-.2.5-1.1-.6.4-.5 1"/><path fill="#1b406b" fill-opacity=".6" stroke="#1b406b" stroke-opacity=".6" stroke-width=".5" d="M401 86.2q0-.7.6-1.1.4.9-.5 1Z"/><path fill="#365277" d="M317.3 47q1.5.6 1.1 2c-1 0-2.7 1.7-3.3.6q.9-1.5 2.2-2.5"/><path fill="#224570" fill-opacity=".9" d="M228.3 44.7q-.8 1.6-2.3 2.7-.8 0-.5.7-14.6 11.7-29.5 23c-1.7-.8-2.2-5.4-2.1-7 5-2.2 16.6-10.6 21.5-11.4q1-1.3 2.2-2.5c4-1 7-4.8 10.7-5.5m28.8 21c-3 1.1-9.6 6-12.3 6.4v-.9q1-1 1-2.6c3.2-1.1 5.1-3.6 8.6-4q.5-.2.5-.6.7-.4 1-1.1c2-1.8 4-1.5 6.2-2.6l.9-1.2q.2-.5.6-.8 2-1.1 4.3-2 1.8-2.5 4.8-1.9-5.2 4.6-10.7 9c-1.6.9-3.8.7-4.9 2.4m-85 149.6.3.4q-.6 1.1-1.5 1.6A3772 3772 0 0 0 109 256q-.7-2.3 1.5-3.5-.7-.4-.9-1 4-2.8 8.2-5.2 27-15.7 54.1-31"/><path fill="#37557e" fill-opacity=".9" d="m226 47.4-.5.7q-.3-.7.5-.7"/><path fill="#1c3f6c" fill-opacity=".5" stroke="#1c3f6c" stroke-opacity=".5" stroke-width=".5" d="M279 82c.1 1-1.3 1.7-2 .7q.9-1 2-.7Z"/><path fill="#1b406b" fill-opacity=".3" stroke="#1b406b" stroke-opacity=".3" stroke-width=".5" d="M219 494c-.4.8-2.2 3-3 1.7a3 3 0 0 1 3-1.6Z"/><path fill="#1b3f6b" fill-opacity=".4" stroke="#1b3f6b" stroke-opacity=".4" stroke-width=".5" d="M224 491q-.9 2-3 2 .8-2 3-2Z"/><path fill="#1b3f6c" fill-opacity=".4" stroke="#1b3f6c" stroke-opacity=".4" stroke-width=".5" d="M79 344q-.6 1.9-2.3 1.4c0-1.3 1.2-1.3 2.3-1.3Z"/><path fill="#1b3f6b" fill-opacity=".6" stroke="#1b3f6b" stroke-opacity=".6" stroke-width=".5" d="M82 232c0-1 4.2-3.9 5-2.6-1.3 1-3.2 2.8-5 2.7Zm4 108c0-1 4.2-3.9 5-2.6-1.1 1-3.2 2.9-5 2.6Z"/><path fill="#1b3f6b" fill-opacity=".3" stroke="#1b3f6b" stroke-opacity=".3" stroke-width=".5" d="M433 140q.2-.6.8-.5-.3.4-.8.5Zm-304 24.2q.6-.4 1.4-.3c1.6 1-3.7 3.1-4.4 3.1q0-1.2 1-2zM84 205c.4 1.5-2.2 1.6-3 2q.7-2 3-2Zm-3 137.9q-.6 1.4-2 1.2.3-1.5 2-1.2Zm140 150.2q-.6 1.2-2 1 .5-1.6 2-1Zm-29 13.7 3.3.1c-.5 1.6-3.4 1.8-3.3-.1Z"/><path fill="#1b3f6b" fill-opacity=".5" stroke="#1b3f6b" stroke-opacity=".5" stroke-width=".5" d="M352 51q-.9 2-3 2 .8-2.3 3-2Zm76 92q-1 1.8-3 2 .6-2.2 3-2ZM89 202q.4-1.2 1.6-1.1c1.2.8-1 1.3-1.6 1Zm-7 30c-.2 1.3-3 2.3-3.8 2.9q-1.5.4-.8-.8c1.5-.8 2.8-2.3 4.6-2Zm4 108c-.3 1.2-3.8 3.3-5 2.9.3-1.1 3.7-3.2 5-2.9Zm138 151q.3-1.2 1.5-1.1c1.3.8-1 1.3-1.5 1Zm214.3 7q-.6 1-1.6 1 .6-.7 1.6-1Z"/><path fill="#1b3f6b" fill-opacity=".4" stroke="#1b3f6b" stroke-opacity=".4" stroke-width=".5" d="M354 50q-.5 1.3-2 1 .4-1.5 2-1Zm79 90c-.8 1.6-3.3 3-5 3 .4-1.4 3.6-2.8 5-3Z"/><path fill="#1b3f6b" fill-opacity=".5" stroke="#1b3f6b" stroke-opacity=".5" stroke-width=".5" d="M400 49c.2 1-1.3 1.7-2 .7a2 2 0 0 1 2-.7Zm-51 4c.2 1-1.3 1.7-1.9.7q.7-1 2-.7Z"/><path fill="#1b3f6b" fill-opacity=".4" stroke="#1b3f6b" stroke-opacity=".4" stroke-width=".5" d="M357 48q-.9 2-3 2 .8-2 3-2ZM86 204q-.5 1.3-2 1 .6-1.3 2-1Zm336.2 269.8c-.4.7-2.2 3.3-3 1.9a3 3 0 0 1 3-1.9Z"/><path fill="#1b3f6b" fill-opacity=".5" stroke="#1b3f6b" stroke-opacity=".5" stroke-width=".5" d="M403 47a4 4 0 0 1-3 2q.9-2 3-2ZM279 81l2 .3q-.8 1-2 .8zm146 64c.2 1-1.4 1.7-2 .7a2 2 0 0 1 2-.6Z"/><path fill="#1d3e6b" fill-opacity=".3" stroke="#1d3e6b" stroke-opacity=".3" stroke-width=".5" d="M359 47q-.5 1.3-2 1c-.1-1.2 1.4-1.1 2-1Z"/><path fill="#1b3f6b" fill-opacity=".3" stroke="#1b3f6b" stroke-opacity=".3" stroke-width=".5" d="M364 44a8 8 0 0 1-5 3c.5-1.9 3.3-3.1 5-3Z"/><path fill="#1b3f6b" fill-opacity=".4" stroke="#1b3f6b" stroke-opacity=".4" stroke-width=".5" d="M403 47c.3-1 5.5-4 6.6-4 1.2 1.2-5.7 4.1-6.5 4ZM82.9 76.2a3 3 0 0 1 2.8-2.1c1.2 1-2 2-2.8 2.1Zm350 295q.4-1.3 1.8-1.3c1.2.8-1.2 1.4-1.7 1.3Z"/><path fill="#224570" fill-opacity=".9" d="M399 89q-5 3-10 5.4-.7-.6-.5-1.4 1.9-1.2 3.5-2.7c2-.6 5.2-3.6 7-1.4"/><path fill="#1f3954" fill-opacity=".1" stroke="#1f3954" stroke-opacity=".1" stroke-width=".5" d="M118.2 307.8q.7.1.8.9l-9.9 6.4q-.1-1 .3-1.8.3-.9 1-1.4 3.8-2.2 7.8-4.1Z"/><path fill="#34557b" fill-opacity=".3" stroke="#34557b" stroke-opacity=".3" stroke-width=".5" d="M133.9 298.8c-.3 1.9-3.1 3-4.9 3.1 0-1.5 3.7-2.8 4.9-3.1Z"/><path fill="#37567e" fill-opacity=".7" d="M158.9 283.8q-.3 1-1.3.8zm-1.3.8c.5 1.3-1 1.1-1.8 1zm-1.8 1q.2.9-.6 1 0-.6.6-1"/><path fill="#415c83" fill-opacity=".2" d="m347.9 131.1 1.3-.2v.8l-1.4.4z"/></svg>