<svg xmlns="http://www.w3.org/2000/svg" style="shape-rendering:geometricPrecision;text-rendering:geometricPrecision;image-rendering:optimizeQuality;fill-rule:evenodd;clip-rule:evenodd" viewBox="0 0 512 512"><path fill="#428cdf" fill-opacity=".9" stroke="#428cdf" stroke-opacity=".9" stroke-width=".5" d="M162.8 150c3.8-.6 9.2-.4 13 0a1068 1068 0 0 1-38.3 22q-.3-.9.6-1.5 12.4-10.2 24.7-20.6Zm2.2 3.1q.7.1 1.6-.1 1-.6 0-1.1-1.2 0-1.6 1.2Zm-79.8 22.8c-2.2 4-24.3 21.2-29.1 25.8H45.7Q60 192.9 74 183.6q1.6-1.2-.3-1.7 1.7-.6 3.1-1.7 1 1.5 1-.4c2.5-1.3 4.6-3.3 7.4-3.8Z"/><path fill="#438de2" fill-opacity=".4" stroke="#438de2" stroke-opacity=".4" stroke-width=".5" d="M318 93a7 7 0 0 1 4.6-3c1.3 1-3.6 3-4.6 3Zm-112 2q-.3.8-1 1.3a6 6 0 0 1-4 1.6c.4-1.3 3.5-3 5-3Zm239.3.3q-.7.6-1.6.7.7-.6 1.6-.7ZM326.8 115q-.1 1-1.2.8zm12.6 0a2 2 0 0 1-1.3.6q.3-.7 1.3-.6Zm47.9 3q-.6.6-1.6.6.6-.7 1.6-.7Zm-55 1q-.5.6-1.5.7.6-.9 1.6-.7Zm-13 1.1q-.6.8-1.6.7.7-.5 1.5-.7Zm-100 1.9a2 2 0 0 1-1.2.7q.3-.9 1.2-.7Zm30-.1q-.6.7-1.5.8.5-.8 1.4-.8Zm-41.5 3.1q0 1-1.1.8zm194.5 1q-.6.6-1.5.6a2 2 0 0 1 1.5-.6Zm-94.6 1q0 1-1 .8zm54 0q0 1-1 .9zm31.5.2q-.7.7-1.5.6.7-.5 1.5-.6Zm87.8.6c.2 1.2-1.3 1.2-2 1a2 2 0 0 1 2-1ZM368.3 129q-.5.6-1.1.5c-.3-.7.9-.3 1.1-.5Zm-253.1 6.7c0 1.3-2.3 3-3 1.9q1-1.5 3-2Zm173.5 3.3q.2 1-.8.6zm189.6 74.1q-.7.7-1.7.7.7-.5 1.6-.7ZM163 258q-1.6 2-3.7 3.3-1.5 0-1-1.2 2.2-1.5 4.7-2Zm251.4.2-1.3.7q.3-1 1.3-.7ZM339 301q-.9 2-3 2a4 4 0 0 1 3-2ZM67 330a7 7 0 0 1-5 3q1.8-2.5 5-3Zm203.8 1.3c.4.8-.7.4-1 .5zM141.1 335a14 14 0 0 1-7.2 4c.9-1.5 5.6-4.3 7.2-4Zm207 9c-1 1-1.4 2.3-3.1 2q.9-1.8 3-2Zm149 12-.1 1-1.2-.2q.6-.6 1.4-.9Zm-295 1a14 14 0 0 1-7.2 4q.5-.7 1.1-1.2c1.5-.6 4.5-3.3 6.1-2.7Zm-59 3.3q-.6.8-1.4.6.6-.4 1.3-.6Zm.3 2.8q-.7.5-1.6.6.7-.6 1.6-.6Zm56.7 9.1q-.4.9-1.5.8.8-.6 1.5-.8Zm6.2 1.8q-.7.6-1.5.7a2 2 0 0 1 1.5-.7Zm86 2.3q-.7.8-1.7.6.7-.5 1.6-.6Zm-175 2.8-1.2.8q.1-1 1.1-.8Zm-36.4 4.8c-.6 1.8-3.2 3-5 3q2-2.4 5-3Zm256 1.1a3 3 0 0 1-3 2 3 3 0 0 1 3-2Zm-306 2a4 4 0 0 1-2.9 2q.7-2 3-2Zm235 4.2q-.3 1-1.2.8zm-179.6 6.9-1.5.7q.6-.7 1.5-.7Zm137.7 5.8q-.6 1.4-2 1.1.5-1.2 2-1Zm24.3 5.2q-.7.5-1.6.6a2 2 0 0 1 1.6-.6Zm-115 11q-.7.5-1.5.6.6-.6 1.6-.6Zm98 0-1.5.7a2 2 0 0 1 1.5-.7Zm-55.4.9c0 .7-1.2 1.6-1.8.7q.6-1 1.8-.7Z"/><path fill="#4087d7" fill-opacity=".2" stroke="#4087d7" stroke-opacity=".2" stroke-width=".5" d="m458 104.6.7.5q-.3 1.1-1.3 1.7L437 118.5q-1 .5-2 .5.2-.9 1-1.3l22-13ZM247 365q-.9 1.4-2.4 2.3l-17.2 10.6q-.4-.9-1.5-1.3l16-9.3q2.5-1.4 5-2.3Z"/><path fill="#438de2" fill-opacity=".3" stroke="#438de2" stroke-opacity=".3" stroke-width=".5" d="M364.7 91q.2 1-1 1zm67.6 1q-.6.7-1.6.7.6-.6 1.6-.7Zm-138 4q-.6.7-1.6.8a2 2 0 0 1 1.6-.8Zm51.4 7q0 1-1 1zM239 105q-.2 1-1.2.9zm112.4 3q-.7.7-1.5.7.6-.6 1.5-.7Zm-113 3.1q-.7.6-1.5.7.6-.8 1.5-.7Zm116.7 7a10 10 0 0 1-5 3 6 6 0 0 1 5-3Zm75 3.9a8 8 0 0 1-5 3c.8-1.8 3.2-3 5-3Zm61 0a7 7 0 0 1-5 3c.5-1.6 3.4-3 5-3Zm-111.3 13q0 1-1 1zm-189 1q.3 1-.9 1zm221.4 89q-.7 1.2-2.1 1 .6-1.2 2-1Zm46.7 0q0 1-1.1 1zM176 232a3 3 0 0 1-3 2q.9-2 3-2Zm276.3 4.1q-.6.6-1.4.7.5-.8 1.4-.7ZM482 256c-.4 1.3-3.8 3.2-5 3 0-1.1 4-3 5-3Zm-230.1 86.3q-.3.8-1.3.6zM225.2 362q-.3.6-1 1 0-1 1-1Zm26.8 0q-.9 2-3 2 .8-2 3-2Zm-86 2q-.6 1.1-2 1 .6-1.2 2-1Zm-53.6 18-1 1q-.2-1 1-1ZM83 383c.1 1.1-1.4 1-2 1q.5-1.3 2-1Zm190.2 4.3q-.6.8-1.5.6.7-.5 1.5-.6ZM26 389.9a7 7 0 0 1-5 3q1.9-2.4 5-3Zm129.2 8.4q-.7.6-1.6.7.7-.6 1.6-.7Zm-3 9.8-1 .8q.2-.9 1-.8ZM55.5 417l-1 1q-.2-1 1-1Z"/><path fill="#3c74b4" fill-opacity=".7" d="M95.1 82.8q-3.6.1-7.2-.4 3.8-3 7.2.4m157.6 346.5h7.6c-2.4 1.5-5.5 2.8-7.6 0m25 0h7.6c-.7 1-3.6 1.5-4.8 1.6q-1.6-.3-2.8-1.6m18 .3q3.8-.5 7.5-.4-3.6 3-7.4.4m35-.3c2.2 0 5.6-.4 7.6.3l-2 1.2q-3.1.4-5.6-1.5m80 0h7.6q-1.3 1-3 1.4a4 4 0 0 1-4.6-1.4"/><path fill="#438de1" fill-opacity=".3" stroke="#438de1" stroke-opacity=".3" stroke-width=".5" d="m425.3 96.3-1.3.7q.3-1 1.3-.7Zm-138 4q-.6.5-1.3.7.3-1 1.3-.7Zm-12.3.7q-.3 1-1.3.7zm116 8q-.3 1-1.3.7zm-46.7 3.3-1.3.7q.3-1.1 1.3-.7Zm70 7-1.3.7q.3-1 1.3-.7ZM354 132q-.2 1.1-1.3.7zM94 233a3 3 0 0 1-3 2q.9-2 3-2Zm346 4q-.3 1-1.2.8zm5.3 3.3-1.3.7q.3-1.1 1.3-.7ZM404 244q-.4 1.3-1.8 1 .3-1.5 1.8-1Zm-50.9 1a8 8 0 0 1-5 3c.8-1.6 3.2-3 5-3Zm129 11c.4-1 4.2-3.8 5-2.6-1 1.5-3.3 2.3-5 2.6Zm-31 67q-.5 1.3-2 1 .6-1.2 2-1ZM62 333c-.7 1.5-3.4 2.9-5 3.1.5-1.7 3.3-3 5-3Zm197 5q-.3.9-1.3.7zm-125 1c-.6 1.5-3.4 2.8-5 3a7 7 0 0 1 5-3Zm42 2 .3.6-1.3-.1zm-37.7 25.3-1.3.7q.3-1 1.3-.7ZM105 382q-.3 1.1-1.3.7zm-29 5c-.7 1.6-3.3 3-5 3a8 8 0 0 1 5-3Zm-48 2q-.5 1.4-2 1 .7-1.2 2-1Zm134 5q-.3 1-1.3.7zm92 4q-.3 1-1.3.8zm-172.7 3.3-1.3.7q.2-1.1 1.3-.7Zm329.8.8a4 4 0 0 1-3 2q.6-2.3 3-2Zm-266.8 11.1-1.3.8q.3-1 1.2-.8Z"/><path fill="#438de2" stroke="#438de2" stroke-width=".5" d="M23 201.6q-4 .3-8.3.2c-1.2-.7-.6-2.9-.6-4q17-9.3 34-19.2c.6-.3 1.3-1 1.9-.2q-1 1.5-2.5 2.6-12.4 10.2-24.5 20.6Zm412.2-6.4a3 3 0 0 0-2.2.2q-5.1 3-9.9 6.3-3.6.5-7.2 0 .3-.7 1-1 18.3-10.6 36.6-20.8.3.6-.2 1c-3.4 3.3-8 6.2-11.4 9.4-3.7.9-3.7 4-6.7 4.9Zm60.6 30.5 1 .3q.6 16.5.4 33c-4 .8-24.5 15.8-30 18.3-2.8-2.7-4.6-11.3-11.2-12.7l-5-.7a1 1 0 0 0-.8-.7c-.8-3.3-6.3-2.5-7.2-.3q-4.5-.2-9-.7-.2-.8.4-1.1l14.3-7.9 45-26q1.2-.7 2-1.5ZM482 256c-1 0-5 1.9-5 3-1.7-.2-3.8 1.5-4.8 2.7.6 1.3 4.6-1.7 4.8-2.7 1.2.2 4.6-1.7 5-3 1.7-.3 4-1.1 5-2.6-.8-1.2-4.6 1.5-5 2.6Zm-13.3 8c.1 0 2.1-.4 1-.9q-.8.1-1 1Z"/><path fill="#438de2" fill-opacity=".4" d="M384.4 89.1a2 2 0 0 1-1.3.6q.4-.9 1.3-.6m38.8 0q-.4 1-1.5.9zm-152 3-1.1.7q.3-.9 1.2-.6m30.2 0q-.7.6-1.5.7.4-.8 1.5-.7m55.8 4.2q-.6.6-1.5.6.7-.6 1.5-.6m97.1-.2-1.2.7q.3-.9 1.2-.7m-212.2 7.2q-.4.7-1.5.7.8-.5 1.5-.7M394.3 114q-.6.5-1.2.7.2-.9 1.2-.7m-141.6 1q0 .8-1 .8zm3.6 2.9-1.3.8q.3-.8 1.3-.8m91.7 4q-.7 1.8-3 2a3 3 0 0 1 3-2m75 4c-.7 1.3-3.6 3.3-5 2.9q2-2.1 5-3m61 0a3 3 0 0 1-3 1.9 3 3 0 0 1 3-1.8M237.3 129a2 2 0 0 1-1.2.6q.3-.7 1.2-.6m76 1-1.2.6q.3-.8 1.1-.5m-113 3-1.2.7q.2-.9 1.2-.7m30 0-1.3.7q.3-.9 1.3-.7m153 4q-.5.4-1.2.6.3-.9 1.3-.6m102 80-1.3.7q.4-.9 1.4-.7m-15.1 1.2q-.6.8-1.6.6a3 3 0 0 1 1.6-.6m27 6.5-.4 1.2-1-.3zm-73 22.3q-.5.8-1.5.8.7-.5 1.5-.7m-76.2 1c-1 1.5-3.2 3-5 3a7 7 0 0 1 5-3m39 82q-1 1.6-3 1.8.7-2.1 3-1.8m-118.7 5-1.2.8q.2-1 1.2-.8m-8 5q-.6.5-1.4.7.4-.8 1.5-.7m-86 4.1-1.3.6q.3-.9 1.3-.6m-12.5 5q-.3.9-1.2.7zm-.5 2.8q-.6.6-1.4.7.4-.7 1.4-.7m80 0q-.5.6-1.3.7.5-.7 1.3-.6m-22.3 9.2q-.5.9-1.4.7zm-83 3q-.3.8-1.3.7zm175 1q-.3.9-1.3.7.6-.5 1.4-.6m-180.7 6-1.5.5q.6-.6 1.4-.6m62.7 5q-.3.9-1.3.8zm-5.7 9.9-1.4.8q.5-1 1.4-.8m92 3-1.6.7q.7-.6 1.7-.8m-188.2 1.1q-.4.9-1.4.7zm57 12.1a2 2 0 0 1-1.5.6zm-83 3q-.5.8-1.4.6zm8.2.7q-.7.6-1.5.8a2 2 0 0 1 1.5-.8m166.8.2q-.5.7-1.3.8.4-.6 1.3-.8m-118.4 11q-.4.8-1.4.6.6-.5 1.4-.6m92 3.9q-.4.7-1.4.7.7-.5 1.4-.7m45.2-329q-.4.8-1.5.8.7-.5 1.5-.8m106 7.8q-.4.6-1.2.7.4-.7 1.3-.7m-112.9 3.1-1.4.6q.6-.6 1.4-.6m174.9 3.1a2 2 0 0 1-1.6.8q.7-.6 1.6-.8m-33 1q-.6.7-1.5.7.7-.6 1.5-.6m41 0-1.3.5q.5-.6 1.4-.6m-179 6q-.7.9-1.6.8a4 4 0 0 1 1.6-.8m74 .1q-.6.7-1.4.7.5-.6 1.4-.7m84 1q-.5.6-1.5.6.7-.6 1.6-.7m-13 7.9q-.6.7-1.5.7.7-.6 1.5-.7m-190.1 1q-.3.8-1.3.7zm100 2q-.4.8-1.5.8.8-.6 1.5-.7m64.3 0-1.4.6q.3-.9 1.4-.7m-55 .9q-.6.4-1.4.6.4-.7 1.4-.6m-113 3-1.4.7q.3-.9 1.4-.8m23.9 0q-.7.9-1.6.9.7-.6 1.6-.8m-193.3 3q.4-1 1.5-1.2c1 .7-1 1.3-1.5 1.2m181.9 4q-.3.8-1.2.8zm72.4 1.2q-.6.6-1.6.6.7-.4 1.6-.6M165 153.1q.3-1.2 1.7-1.2.9.5 0 1t-1.7.2m242 75c.1 1-1.3 1-2 1q.6-1.5 2-1m59.3 0q-.5.5-1.2.7.3-.9 1.2-.7M99 230a4 4 0 0 1-3 2q.8-2 3-2m317.3 22.2a2 2 0 0 1-1.6.7q.7-.5 1.6-.7M449 324q-1 2-3.1 2 .9-1.9 3-2m-380 5c0-1.4 4.1-3.7 4.8-2.7a11 11 0 0 1-4.9 2.6m194.8 6.1q-.3 1-1.2.9.4-.6 1.2-.9m-109 18.1q-.3.9-1.3.8.7-.6 1.3-.8m175.2 1q-.4 1-1.3.6zM169 362c.2-.7 1.3-1.6 1.9-.7a2 2 0 0 1-1.9.7m43 3.2q-.3.8-1.3.7.6-.5 1.3-.7m-102 14q-.4.8-1.3.7zm85.3 1.9q-.7.5-1.5.7.5-.8 1.5-.7m-91 6-1.5.6q.5-.7 1.5-.6M84 394q-.3 1-1.3.9zm175 1.2q-.3.8-1.3.6zm-90.8 2.7q-.5.6-1.4.8.5-.8 1.4-.8m-27.2 8.2q-.3.9-1.3.8zm92 4.1q-.4.6-1.2.6.5-.4 1.3-.6M47.4 422a2 2 0 0 1-1.5.7q.5-.7 1.5-.7"/><path fill="#3c74b4" fill-opacity=".8" d="M111.9 82c0 1.3-5.2.5-6 .5q2.7-2.7 6-.4m290.4.3c-1.8.8-5.5.3-7.5.5q3.6-3 7.5-.5m53.8.5c-1-.2-6.8.2-7.3-.5q3.1-2.3 6.5-.2.5.2.8.7M68.6 429.4h7.7c-2.6 1.5-5.3 2.6-7.7 0m312.2.2q3.8-.6 7.5-.3c-2.8 1.8-4.5 2.1-7.6.3"/><path fill="#438de2" fill-opacity=".5" d="M292.2 90.2q-.5.8-1.4.7zm169 1.9-1.1.7q.2-.9 1.2-.7m-112 9.1q-.7.7-1.5.7.6-.6 1.4-.7m-121 11.1q-.6.7-1.5.6.7-.5 1.5-.6m-148 .5c-.2.8-1.4 2-2.1 1q.8-1 2.1-1m183.1 1.3q-.6.5-1.3.7.3-.8 1.3-.7m94 16.2q-.7.6-1.7.6.7-.5 1.7-.6m135 82.8-1.2.6q.3-.7 1.2-.6m-30.1 10q-.6 1-1.5.8.7-.6 1.5-.7m6.5 41q.2-.9 1-1c1.1.5-.9.9-1 1M335.9 303c.1.9-1.2 1.8-1.8.8q.7-.9 1.8-.8m-194.8 32c0-1.2 4.2-3.5 4.8-2.6a10 10 0 0 1-4.8 2.7m207 9.1q0-1.2 1.5-1.1c1.3.8-1 1.3-1.6 1.1m-17.8 12.2-1.2.6q.1-.9 1.2-.6m-182 3.8-1.2.8q.3-.9 1.3-.8m74 4.1-1.5.6q.6-.7 1.5-.6m91 3-1.3.7q.4-1 1.4-.7m-184.5 1q-.2 1-1.1.8zm175.1 1.2q-.2.7-1.1.7.5-.5 1.1-.7m-7.6 8.8-1.4.7q.5-.7 1.4-.7M186 380.4q-.2 1-1.1.8zm-148 2.9c-.4 1.2-3.5 2.7-4.8 3 .4-1.5 3.1-3.6 4.9-3m299 1.9q.6-1 1.6-1c1.2.7-1 1.2-1.6 1m136.2 1.9c-.3.8-2 2.8-2.9 1.8a3 3 0 0 1 3-1.8M91.2 395q-.6.6-1.3.7.4-.7 1.3-.7m171 5q-.6.6-1.4.7.6-.7 1.5-.7M58 409.1q-.2 1-1.2.8zm187.5 1.9a3 3 0 0 1-1.6.8q.5-.9 1.6-.8M115 421.3q-.4.8-1.3.7.6-.5 1.3-.7m113.5.7q-.8.6-1.7.7.6-.7 1.7-.7m242.6 8q2.1-.2 4.4-.2c-.1 1.4-4.2 2-4.4.2"/><path fill="#438de2" fill-opacity=".4" d="M134 93c0 1-1.4 1.7-2 .6q.8-.9 2-.6m286.3 6q-.5.6-1.2.8.3-.8 1.2-.7m-138 4q-.6.7-1.4.7.6-.6 1.4-.6m-15 3.2q-.7.7-1.6.7.7-.6 1.5-.7m119 6q-.7.7-1.6.7zm-160 5.8-1.3.8q.3-.8 1.3-.8m183 4q-.6.6-1.3.8.3-1 1.2-.8m-64.2 2q-.8 1-2.1 1 .6-1.2 2-1m43 6.3q-.5.7-1.4.6.6-.5 1.4-.6m-193.8 4q-.7.6-1.6.6.7-.4 1.6-.6m154.9 1q-.6.8-1.5.6.7-.4 1.5-.6m25.8 2.9q-.3.9-1.3.9zm35 87.7q-.9 2-3 2.1.7-2 3-2m33.2 9.3q-.5.9-1.5.7zm-2.9 7.8-1.3.8q.4-.8 1.3-.8M168 255q-.4 1.3-2 1 .6-1.3 2-1m260 67a3 3 0 0 1 2.7-2c1.3 1.2-2 1.6-2.6 2M169 362q-.9 1.8-3 2 .9-2 3-2m45.3 7q-.7.6-1.6.7.7-.7 1.7-.6m116.8 4q-1 1.9-3.1 2a3 3 0 0 1 3-2m-243 7a9 9 0 0 1-5.1 3q.3-.9 1-1.4c1.5-.3 2.3-2.2 4-1.6m196.8.3q-.3.8-1.3.7zm-117.8 11q-.5.7-1.5.7.8-.6 1.5-.7m225.8 6.6c.3-.5 1.3-1.5 2-.6q-.8.9-2 .6M60.3 414.1a3 3 0 0 1-1.4.7q.5-.8 1.4-.7m81 1-1.4.7q.4-.8 1.4-.8m-102.4 5.1q-.3.8-1.2.7z"/><path fill="#3a7fc6" fill-opacity=".2" stroke="#3a7fc6" stroke-opacity=".2" stroke-width=".5" d="M446.7 124.2q0 1 1 1.4-12 6.8-23.7 14a3 3 0 0 1-2 .2l-.2-.6q12.3-7.8 25-15Z"/><path fill="#3e88d9" fill-opacity=".2" stroke="#3e88d9" stroke-opacity=".2" stroke-width=".5" d="M57 336.1q-.3.8-1 1.1L33 351q0-1-1.2-1.2L55 336.3q1-.3 2.1-.2Z"/><path fill="#448ee3" fill-opacity=".2" stroke="#448ee3" stroke-opacity=".2" stroke-width=".5" d="m382.4 90.3-1.3.7q.2-1 1.2-.7ZM206 95a8 8 0 0 1 4.6-3.1c1.3 1.2-3.5 3.2-4.6 3Zm63.3-1.7-1.2.8q.2-1.2 1.2-.8Zm183 4-1.2.8q0-1.2 1.2-.8Zm-86 33-1.2.8q0-1 1.2-.8ZM225 132.9q0 1.2-1.2.8zm258.4 85.4-1.2.7q0-1.1 1.2-.7Zm-69.2 19.6a7 7 0 0 1-5 3.2 7 7 0 0 1 5-3.2ZM129 342q-.3 1-1 1.4l-11 6.7-.4-1 2-1.8c2.3-1 8.2-5.4 10.4-5.2Zm126.3 1.4-1.2.8q0-1.1 1.2-.8ZM221 359.9q0 1.1-1.2.8z"/><path fill="#3e88d9" fill-opacity=".2" stroke="#3e88d9" stroke-opacity=".2" stroke-width=".5" d="M71 390q-.3.9-1 1.3L47 405q0-1-1.2-1.2 11.7-6.6 23.2-13.5 1-.3 2-.3Z"/><path fill="#438de2" fill-opacity=".4" d="M455 88h1q0 1-1.2 1zm-166.2 4q0 1-1.1 1zm88.5 1a2 2 0 0 1-1.5.7q.7-.6 1.5-.7m-121.5 1q0 1-1.1 1zm8.6 2a2 2 0 0 1-1.5.7q.5-.6 1.5-.7m142.4 3q0 1-1.2.9zm40.4 1-1.3.8q.4-.8 1.4-.7m-15 3.3q-.6.7-1.6.7.7-.7 1.7-.7m-13 7.9q-.6.8-1.5.8zm-49 11q-.5.7-1.4.7.5-.6 1.3-.7m-8.9 10.8a2 2 0 0 1-1.4.8q.4-1 1.4-.8m-55 1q-.7.6-1.5.8.6-.9 1.6-.8m-113 3.1q-.4.5-1.2.7.3-.9 1.3-.7m30 0q-.6.6-1.4.6.5-.7 1.4-.6M178 230.9q-.6 1.3-2 1c-.1-1 1.3-1 2-1M69 329q-.5 1.5-2 1 .6-1 2-1m87.3 26.2-1 .8q0-1 1-.8m316 .8a5 5 0 0 1-3.4 2 3 3 0 0 1 3.3-2m-246 1.4q-.7.7-1.7.7zm91.7 4q-.4.7-1.4.7zM164 365c-.8 1.6-3.1 3-5 3a7 7 0 0 1 5-3m-64.8 25q-.6.6-1.4.8.5-.8 1.4-.8m80.1 1-1 1q0-1 1-1m-107 10.2q-.7.7-1.7.7zm149.6 3.8q-.8 2-2.9 2a3 3 0 0 1 3-2m-92.7 8.2q-.6.8-1.6.7zm92 4q-.6.7-1.5.7z"/><path fill="#acb9c8" d="M113.9 318.2q3.6-.5 7.2 0c-2.7 2.2-4.7 2.7-7.2 0m44 .2q3.5-.7 7.3-.2-3.6 3.5-7.4.2m23 0q3.6-.7 7.2 0c-2.7 2-4.7 2.3-7.3 0m80-.1q3.6-.6 7.3 0c-2.8 2.2-4.6 2.5-7.3 0"/><path fill="#438de2" fill-opacity=".5" stroke="#438de2" stroke-opacity=".5" stroke-width=".5" d="M343 125c-.4 1-2 2.4-3 1.5a3 3 0 0 1 3-1.5Zm136 4c-.6 1.4-3.3 3.2-5 3 .2-1.3 3.8-3 5-3ZM181 229q.3-1.2 1.5-1.1c1.3.8-.9 1.3-1.5 1Zm216 19q-.9 1.9-3 2 .8-1.9 3-2Zm-56 4a3 3 0 0 1-3 2 4 4 0 0 1 3-2Zm136 7c-.2 1-4.2 4-4.8 2.7 1-1.2 3-3 4.8-2.7Zm-31 67c0 .8-1.3 1.6-1.8.7q.6-.9 1.8-.6Zm-189 33c.2-.7 1.3-1.6 1.8-.7q-.6.9-1.9.6ZM91 378c-.2-1 1.4-1.7 2-.7a2 2 0 0 1-2 .7Zm320 24q.4-1 1.6-1.7 2.5-.3.5 1.3-1 .4-2 .5Zm-184 0q.3-1.2 1.6-1.1c1.3.8-1 1.3-1.6 1.1Z"/><path fill="#3d78bb" fill-opacity=".8" d="M264 82c0 1.1-6 1-5.9 0a5 5 0 0 1 5.8 0m29.8 0c.3 1.1-5.9 1.1-5.7 0q3-1.6 5.7 0m30 0c.4 1.2-6 1.1-5.6 0 1.4-1.4 4-1 5.6 0m19 0c.4.9-.8.7-1.2.8-.8-.4-4.7.5-4.4-.8q2.9-1.6 5.6 0"/><path fill="#3784cb" fill-opacity=".2" stroke="#3784cb" stroke-opacity=".2" stroke-width=".5" d="M381.8 101.2q.4.9 1.3 1.2l-21 12.1q-1 .6-2 .4.5-1 1.5-1.6 10-6.3 20.2-12.1Z"/><path fill="#3b88d3" fill-opacity=".2" stroke="#3b88d3" stroke-opacity=".2" stroke-width=".5" d="M374.7 231q.5 1 1.4 1.4-10.7 5.9-21 12.2a5 5 0 0 1-2 .4q0-.8.9-1.3z"/><path fill="#438de2" fill-opacity=".5" stroke="#438de2" stroke-opacity=".5" stroke-width=".5" d="M318 93c-.9 1.2-6 5-6.9 3.7 1.7-1.3 4.8-3.7 7-3.6Zm-117 5c-.4 1-1.8 2.3-2.9 1.6q.9-1.8 3-1.7Zm-79 16c-.3.9-2 2.6-2.8 1.6q.9-1.5 2.8-1.6ZM99 230c.1-.7 1.3-1.6 1.9-.7a2 2 0 0 1-1.9.8Zm285 102c.1.9-1.4 1.7-2 .7a2 2 0 0 1 2-.8Zm-134.7 15q-.6.5-1.4.7.5-.9 1.4-.7Zm7.6 11.8q-.6 2.1-3 2a4 4 0 0 1 3-2Zm74.2 14q.3-1 1.4-1c1 .7-.9 1.3-1.4 1ZM227 402q-.9 2-3 2a3 3 0 0 1 3-2Zm-48 17q.5-1 1.5-1c1.3.7-1 1.2-1.6 1Zm292.9 2.2a3 3 0 0 1 2.5-2c.5 1-2 1.6-2.5 2Z"/><path fill="#448ce2" fill-opacity=".3" d="m466.3 89.3-1.3.7q.3-1.1 1.3-.7M134 93q.6-2 2.6-2c1.2 1.2-2 1.6-2.6 2m265 11q-.2 1.1-1.3.7zm-135 4q-.1 1.1-1.2.7zm-42 8q-.3 1.1-1.3.7zm128 5.1a2 2 0 0 1-2 .8q.7-1.2 2-.8m30.3 1.2-1.3.7q.3-1 1.3-.7M239 124q-.2 1-1.2.8zm-34 3q-.1 1.1-1.3.7zm23 4q-.2 1-1.2.8zm71.3 7.3-1.3.7q.3-1 1.3-.7M485 208l1-.1q-.3 1-1.3.8 0-.4.3-.7m-18 12q-.3 1-1.3.8zm-58 21a7 7 0 0 1-5 3q1.8-2.6 5-3m4 13q-.3 1-1.3.8zM150 356q-.3 1-1.3.7zm175 1q-.1 1.2-1.3.7zm-5.7 6.3-1.3.7q.3-1 1.2-.8M207 368q-.3 1.1-1.3.7zm-81.8 6.2-1.2.8q.2-1 1.2-.8m177 0-1.2.8q.3-1 1.2-.8m-17 11-1.2.8q.2-1 1.2-.8m-17 11-1.2.8q.3-1 1.2-.8M79 397q-.3 1-1.3.7zm172.3 10.2-1.3.8q.3-1 1.3-.8m-183 2-1.3.8q.3-1 1.3-.7m67.7-.2q-.3 1.1-1.3.7zm92 4q-.3 1.1-1.3.7zm6.2 5.2-1.2.8q.3-1 1.2-.8"/><path fill="#adbdce" d="M208.2 261.8a20 20 0 0 1-6.4 0q3.2-3 6.4 0m-72.4 56.4a27 27 0 0 1 6.5 0c-1.8 2.3-4.8 2.4-6.5 0m68 .1q3.3-.5 6.4-.1c-1.3 2.3-5 2.5-6.3.1m30.9 0q3.3-.6 6.6 0-3.3 3.3-6.6 0"/><path fill="#428ddd" fill-opacity=".2" stroke="#428ddd" stroke-opacity=".2" stroke-width=".5" d="M217 408q-.9 1.4-2.4 2.3-8.7 5.2-17.5 10.7-.2-1.1-1.4-1.3l20-11.4q.7-.3 1.3-.2Z"/><path fill="#3f88d5" fill-opacity=".2" stroke="#3f88d5" stroke-opacity=".2" stroke-width=".5" d="M81.8 334q0 .9-.8 1.3a339 339 0 0 0-16.3 9.9q-.7.5-1.6.5L62 345q9-5.5 18-10.7.9-.4 1.9-.3Z"/><path fill="#3e7dc9" fill-opacity=".2" stroke="#3e7dc9" stroke-opacity=".2" stroke-width=".5" d="M279.8 128.3q0 1 .9 1.4l-16.8 9.8a3 3 0 0 1-1.8.3h-1q9.1-6 18.7-11.5Z"/><path fill="#428de1" fill-opacity=".3" stroke="#428de1" stroke-opacity=".3" stroke-width=".5" d="m306.3 89.3-1.2.7q.2-1 1.2-.7Zm113.6 1.6q-.2 1-1.2.8zm-56.6 10.4-1.3.7q.3-1.1 1.3-.7Zm-113 3-1.3.7q.3-1 1.3-.7Zm183 4-1.3.7q.3-1.1 1.3-.7Zm-73.3 6.6c-.6 1.7-3.2 3-5 3.2.4-1.7 3.4-3 5-3.2Zm-110 2q-.3 1-1.3.8zm214.3 112.4-1.3.7q.3-1 1.3-.7Zm-16.4 2.6q0 1.1-1.2.8zM240 349q0 1.2-1.2.8zm-3.6 6.4-1.2.8q.2-1 1.2-.8Zm86 6-1.2.8q0-1.1 1.2-.8Zm-73.4 2.7q-.5 1.3-2 1 .7-1.2 2-1Zm56.4 8.3-1.2.8q0-1.1 1.2-.8Zm-17 11-1.2.8q.2-1 1.2-.8Zm-181 2-1.2.7q0-1 1.2-.7Zm226.7 1.6q-.5 1.5-2 1 .6-1.2 2-1Zm-73 7q-.3 1.1-1.3.8zm10.3.4-1.2.8q0-1.1 1.2-.8Zm-17 11-1.2.8q0-1.1 1.2-.8ZM219 407q-.7 1-2 1 .6-1.3 2-1Zm18.3 9.2-1.2.8q0-1.1 1.2-.8Zm-187 4-1.2.7q.1-1 1.2-.7Z"/><path fill="#377dc2" fill-opacity=".2" stroke="#377dc2" stroke-opacity=".2" stroke-width=".5" d="m116.6 349 .4 1a236 236 0 0 1-16.7 9.6l-1.4-1 16-9.2q.9-.4 1.7-.4Z"/><path fill="#3c73b3" fill-opacity=".8" d="M159.3 82.7h-4.8q-1 .3-1.4-.7 3.3-2.1 6.2.7m55.5-.6c.1 1.2-3.6.3-4.3.7q-1.2.2-1.4-.9 3-1.5 5.8.2m20.5.6q-3.2.1-6.2-.3V82q3.4-2 6.2.7"/><path fill="#438ee3" fill-opacity=".4" d="M415.1 94.3q-.4.8-1.5.6zm-136.9 5a2 2 0 0 1-1.5.6q.8-.6 1.5-.6m135.1 3.8-1.4.7q.5-.8 1.4-.7m-55 1-1.3.7q.4-.8 1.4-.7m-113 3-1.2.7q.3-.9 1.2-.7m30 0-1.5.7q.6-.8 1.6-.7m62.8 1q-.4.9-1.4.9.6-.6 1.4-.8m90.3 3-1.4.7q.4-.8 1.4-.8m-203.2 3.1q-.6.7-1.4.8.6-.6 1.4-.8m153 3q-.5.7-1.4.7zm-136 5q-.6.7-1.5.7zm58 10q-.7.7-1.5.7zm151 98q-.6.7-1.5.7zm8.2 1.8-1.2.9q.2-1 1.2-.9m-26.1 15q-.7.6-1.4.8.5-.8 1.4-.8m-188.4 99.3q-.3.8-1.3.6.7-.5 1.3-.6M233.4 357q-.6.6-1.4.7.5-.7 1.4-.7m20.7 4q-.6 1.2-2 1 .6-1.2 2-1m62.3 4.1-1.4.6q.5-.7 1.4-.6M117 375.2q-.4.8-1.3.8zm182.3.9-1.5.7q.6-.7 1.5-.7m-266.2 10q-.7 1-2.1 1 .6-1.4 2-1m141 1.1q-.4.9-1.3.8.5-.6 1.3-.8m108.1-.2q-.6.6-1.3.8.4-.8 1.3-.8m-17 11q-.5.6-1.4.8.5-.8 1.4-.8m-104.8 5a4 4 0 0 1-1.6.8q.7-.8 1.5-.7M46.1 416.4q-.5.7-1.4.7a3 3 0 0 1 1.4-.7"/><path fill="#3c81ce" fill-opacity=".2" stroke="#3c81ce" stroke-opacity=".2" stroke-width=".5" d="M430.7 227.3q.5.7 1.3 1l-16 9.3q-.9.4-2 .4.1-.8 1-1.4z"/><path fill="#4b8fdc" fill-opacity=".7" d="M56.3 293q-.3-3 .6-6 3.6-1.6 6.9-3.7.4-.1.7.2-4.3 4.5-8.2 9.5"/><path fill="#3e8ddf" fill-opacity=".2" stroke="#3e8ddf" stroke-opacity=".2" stroke-width=".5" d="M197.7 329q0 .9-.7 1.3a210 210 0 0 0-16 9.7q-.1-1-1.2-1.2l16.2-9.5q.8-.4 1.7-.3Z"/><path fill="#3e7bcb" fill-opacity=".2" stroke="#3e7bcb" stroke-opacity=".2" stroke-width=".5" d="M157.6 211q.2.9-.6 1.3l-13.7 8.5q-.2-1.2-1.4-1.3l14-8q.8-.6 1.7-.5Z"/><path fill="#4389db" fill-opacity=".2" stroke="#4389db" stroke-opacity=".2" stroke-width=".5" d="m89 236-1 1.4-13.7 8.5q-.3-1-1.4-1.2l14-8.1q1-.6 2-.7Z"/><path fill="#448fe4" fill-opacity=".3" stroke="#448fe4" stroke-opacity=".3" stroke-width=".5" d="m130.2 109-.2 1q-3 1.6-6 3.7-1 .3-2 .3.4-.7 1-1.2c2-1 4.9-4.3 7.2-3.8ZM345 346c-.3 1.5-6.7 5-8.1 5.3l-1-.2c1.8-1.5 7-5 9-5Z"/><path fill="#3d78bb" fill-opacity=".8" d="M64 82c.3 1.3-5 1-5 0q2.6-1.5 5 0m36 348q-2.5 1.5-5 0c-.1-1.1 5.4-1.2 5 0m99 0q-2.5 1.5-5 0 .4-1 1.5-.8c.6.2 3.6-.3 3.4.9"/><path fill="#3d73bc" fill-opacity=".2" stroke="#3d73bc" stroke-opacity=".2" stroke-width=".5" d="m179 370 1 .7q-5.7 3.8-11.7 7-.6-.7-1.4-1 6-3.6 12-6.7Z"/><path fill="#438ee3" fill-opacity=".3" stroke="#438ee3" stroke-opacity=".3" stroke-width=".5" d="m264 88.2 1.2-.3q-.4 1-1.5 1.1zm106.3 9q-.6.6-1.3.8.3-1.1 1.3-.7Zm-113 3-1.3.8q.3-1.1 1.3-.7Zm183 4-1.3.8q.3-1 1.3-.7ZM491 122c.5-1 3.2-3.3 4.3-2.4 0 1.6-3 2.4-4.3 2.4Zm-5 3q-.5 1.2-2 1.2.6-1.4 2-1.1Zm-131.7 12.4-1.3.7q.3-1 1.3-.7Zm117 88-1.3.7q.3-1 1.3-.7ZM233 353q-.3 1-1.3.7zM21 393c-.5 1.2-3 3.1-4.1 2.4 0-1.6 2.7-2.4 4-2.4Zm150.3 3.2-1.3.8q.3-1 1.3-.8Z"/><path fill="#448de2" fill-opacity=".3" d="m294 88.3 1-.4q-.2 1.1-1.4 1zm-8 5.6q-.3 1-1.3.8zm-50 13q-.3 1-1.3.8zm147 7q-.3 1.2-1.3.8zm28 2q-.3 1-1.3.8zm-95 6q-.3 1-1.3.8zm82 2q-.3 1-1.3.8zm-162.7 6.4-1.3.7q.3-1.1 1.3-.7m61.6 3.6q-.2 1-1.2.8zM422.1 219a8 8 0 0 1-5.2 3c1-1.6 3.2-3.2 5.2-3m-1.2 30q0 1.1-1.2.7zM68.3 268.3l-1.2.8q0-1.1 1.2-.8M86 393q-.3 1-1.3.7zm77.3 8.3-1.2.8q.2-1 1.2-.8M143 405q-.3 1-1.2.8zm92 4q-.3 1.1-1.3.7z"/><path fill="#3b92d9" fill-opacity=".2" stroke="#3b92d9" stroke-opacity=".2" stroke-width=".5" d="m438.1 208.2 1.2.1-.3 1q-.6.9-1.6 1.5l-8.3 4.8a4 4 0 0 1-2.2.4q.6-1.2 1.7-1.8 4.9-2.8 9.5-6Z"/><path fill="#3d8ad8" fill-opacity=".2" stroke="#3d8ad8" stroke-opacity=".2" stroke-width=".5" d="M168 237q-.3.9-1 1.3l-11 6.7v-1.3q.7-.9 1.6-1.5l8.3-4.8q1-.4 2-.4Z"/><path fill="#438de2" fill-opacity=".5" stroke="#438de2" stroke-opacity=".5" stroke-width=".5" d="M181 229q-.9 2-3 2a4 4 0 0 1 3-2Zm254.1 11.3q-.6.7-1.5.7.8-.6 1.5-.7ZM338 254q-1.5 1 0 0Zm-3.2 2.1q.1-.7.9-1c1 .6-.7 1-.9 1Zm-129.8 99a4 4 0 0 1-2.9 2q.5-2.4 3-2Zm264 2.9c.1 1-1.4 1.7-2 .7q.8-1 2-.7Zm-191.1 26.2q-.3.9-1.2.7.4-.4 1.2-.7Zm-128.7 25.9q-.6.4-1.4.6.6-.6 1.4-.6ZM179 419q-.7 2-3 2a3 3 0 0 1 3-2Z"/><path fill="#3282c1" fill-opacity=".2" stroke="#3282c1" stroke-opacity=".2" stroke-width=".5" d="m141.7 378.1.4 1q-5 2.8-10 6-.3-1.2-1.3-1.3l9.2-5.4q.8-.4 1.7-.3Z"/><path fill="#3e7ac0" fill-opacity=".8" d="M368.5 82.4c-1 .2-5.6 1-5.4-.5 1.4-.7 4.7-1.6 5.4.5m54.9 0q-2 .4-4 .4-1 .2-1.4-.8c1.2-.8 5-1.8 5.4.4"/><path fill="#3b8cd7" fill-opacity=".2" stroke="#3b8cd7" stroke-opacity=".2" stroke-width=".5" d="M323 378a2 2 0 0 1-1 1.4l-8.7 5.5a3 3 0 0 0-1.4-1.3l9-5.2q1-.6 2-.4Z"/><path fill="#4394e3" fill-opacity=".2" stroke="#4394e3" stroke-opacity=".2" stroke-width=".5" d="m43.6 296 .2 1.1-9.7 6q-.3-1.2-1.3-1.3c2.3-1 8.8-5.7 10.8-5.8Z"/><path fill="#4093e2" fill-opacity=".2" stroke="#4093e2" stroke-opacity=".2" stroke-width=".5" d="M190 364.1a5 5 0 0 1-1.6 1.7q-4.2 2.6-8.5 4.9l-1-.7c3-2 6-4 9-5.6q1-.4 2.1-.3Z"/><path fill="#3c8ad6" fill-opacity=".2" stroke="#3c8ad6" stroke-opacity=".2" stroke-width=".5" d="M463.8 314q.3 1.1 1.3 1.4-4.5 2.5-9 5.3l-2.1.3q.3-.9 1-1.3 4.5-2.6 8.8-5.6Z"/><path fill="#428de2" fill-opacity=".2" d="m299.3 93.3-1.2.8q0-1.1 1.2-.8m62.6-.4q-.2 1-1.2.8zm-352 .8.2 1.2-.8.2q0-1 .7-1.4m240 4.2q0 1.1-1.2.8zm93 7q-.2 1-1.2.8zm-114.6 29.4-1.2.8q.2-1 1.2-.8M429 243.9q0 1-1.2.8zM164 348q0 1.3-1.2.8zm64.4 12.4-1.2.8q0-1 1.2-.8m-95 9-1.2.8q0-1.1 1.2-.8M93 388.9q0 1-1.2.8zm89.4.4-1.2.8q0-1.1 1.2-.8M150 400.9q-.2 1-1.2.8zm-73.6 3.4-1.2.8q.2-1 1.2-.8m165.6.6q-.2 1-1.2.8zm-86.6 1.4-1.2.8q.2-1 1.2-.8"/><path fill="#3881c8" fill-opacity=".8" d="m179.9 161.3 1 .7c.1 1.1-5.3 3.5-6.2 4.2q-1 .6-2 .5c-2.1.5 6.4-5.6 6.2-5.4q.4-.3 1 0"/><path fill="#f7fafe" d="M297.2 262H292q.9-1.4 2.5-1.2c.8 0 2.7-.1 2.7 1.2m153 1.1-2.5.6q-2.3-.6-4.7-.8c.9-2.3 6.4-3 7.2.2"/><path fill="#438de2" fill-opacity=".3" stroke="#438de2" stroke-opacity=".3" stroke-width=".5" d="m325.3 123.3-1.3.7q.3-1 1.3-.7ZM425 125q-.7 1.2-2 1 .6-1.2 2-1Zm53.1 96.2-1.2.8q.2-1 1.2-.8ZM415 223a4 4 0 0 1-3 2q.8-2 3-2Zm-319 9a2 2 0 0 1-2 1q.6-1.2 2-1Zm203 140q-.3 1-1.3.8zm-111.2 7q0 1-1 1zm265 41.2q.8-1.8 2.6-2.2c1.2 1.1-1.8 2-2.5 2.2Z"/><path fill="#b6c6d8" d="M177 261.7q-3 .7-6.1 0 0-.4.6-.7 3-1.5 5.5.7m75.2.2q-3 .4-6.3-.2 2.6-2.3 5.6-.6.6.2.7.8"/><path fill="#3b71af" fill-opacity=".7" d="M482.9 82c.2 1.5-5.2.6-6 .7 1.3-1.4 4.5-2 6-.7M13.1 91.1q0 .9-.8 1.2-.2-1 .8-1.2m-.8 1.2q-.6 1.6-2.2 2.7l-.1-1.3q.5-1.8 2.3-1.5m-3 2.8.8-.1-1 1.3z"/><path fill="#3981c9" d="m422 149.9 1-.2c.8-.2 2.5.2 1.7 1.4l-6.4 3.7q-.8.3-1.3-.2.3-.7 1-1.2 2.4-1.2 4-3.5"/><path fill="#448fe2" fill-opacity=".2" stroke="#448fe2" stroke-opacity=".2" stroke-width=".5" d="M171 344q-.2 1.2-1.4.7zm158 46q-.3.9-1 1.4l-6 3.6v-1.2c1.5-1.5 4.8-4 7-3.8Z"/><path fill="#418ee3" fill-opacity=".3" stroke="#418ee3" stroke-opacity=".3" stroke-width=".5" d="M38 132a25 25 0 0 1-6 5q0-1.1-1.3-1.3l5.3-3q1-.6 2-.6Zm379 90q-.5 1.3-2 1 .5-1.2 2-1Z"/><path fill="#438de3" fill-opacity=".5" stroke="#438de3" stroke-opacity=".5" stroke-width=".5" d="M418 128.9a4 4 0 0 1-3 2q.6-2 3-2Zm56 3c0 .8-1.3 1.8-1.9.8a2 2 0 0 1 2-.8ZM16.9 267q.4-.9 1-.5a1 1 0 0 1-1 .4ZM205 355q.4-1 1.6-1.2c1 .8-1.1 1.3-1.6 1.2ZM91 378q-.8 1.8-3 2c.1-1.6 2-1.9 3-2Z"/><path fill="#4289db" fill-opacity=".7" d="M34.4 82.8a60 60 0 0 1-8.6 1.2c.2-1.1 4.6-2.4 5.8-2.8 1.4-.6 1.8 1 2.8 1.6"/><path fill="#448be3" fill-opacity=".3" d="M412 96q-.3 1.1-1.3.7zm-151 14q-.2 1.1-1.3.7zm131.3 5.3-1.2.7q0-1.1 1.2-.7M236 125.9q0 1-1.2.8zm75.4 5.4-1.2.7q.2-1 1.2-.7m-113 3-1.2.8q0-1.2 1.2-.8m214 125-1 .6q0-.9 1-.6m-236 82.3 1 .7-1.1.7zm-12 8.7-1.2.8q0-1.3 1.2-.8M313 363.9q0 1-1.2.8zm-189 52q-.2 1-1.2.8zm92 4q0 1.1-1.2.8z"/><path fill="#b0c2d6" d="m301.8 318.3 7.3-.4q-.2.6-.8 1-3.5 2.4-6.5-.6"/><path fill="#7daadc" d="m367.6 305.9-1.4-2.6q2.8-1 5.3-2.3l.3.3c-1 2-3.6 2.4-4.2 4.6"/><path fill="#abbacb" d="M82.8 318.2q3.6-.4 7.2 0c-2.3 1.8-5.3 3.2-7.2 0"/><path fill="#3c71af" fill-opacity=".8" d="M312.8 429.3q3.8-.6 7.4.3c-2.7 1.5-4.8 1.7-7.4-.3"/><path fill="#3d78bb" fill-opacity=".8" d="M455.8 430q-3 1.6-5.6 0 .2-1 1.3-.8c.6.4 4.8-.5 4.3.9"/><path fill="#abbbce" d="M284 318.3q3-.6 6.2 0l-1 1.5c-1.8.1-4.1.3-5.3-1.5"/><path fill="#4184d2" fill-opacity=".9" d="m501.9 95.8.9.4 1.1 1c1.2 1 1.7 4.5.3 5.2q-1.5-3.3-2.3-6.6"/><path fill="#3d78bb" fill-opacity=".8" d="M172.7 429.7c.9-.2 6.3-1.1 6.2.2a6 6 0 0 1-6.2-.2"/><path fill="#3b9ae5" fill-opacity=".2" stroke="#3b9ae5" stroke-opacity=".2" stroke-width=".5" d="M163 135.8q.7.4.6 1.3l-5.5 3-1.2-.4z"/><path fill="#376eb3" fill-opacity=".1" stroke="#376eb3" stroke-opacity=".1" stroke-width=".5" d="M134.8 105.2q0 1 1 1.3L130 110l.2-1c.5-1.9 3-3 4.6-3.8Z"/><path fill="#428ee1" fill-opacity=".3" d="M253 96q-.2 1-1.2.8zm168.3 19.3-1.3.7q.3-1.1 1.3-.7m-209 11-1.3.7q.3-1 1.3-.7m30 0-1.3.7q.3-1 1.3-.7m29 207-1.3.7q.1-1.1 1.3-.7m-27 17-1.3.7q.3-1 1.3-.7m-27 16.9-1.3.8q.2-1 1.2-.8m-19 12-1.3.8q.3-1 1.2-.8M280 383q-.1 1-1.2.8z"/><path fill="#3c76b8" fill-opacity=".8" d="M183.3 82.3q-1.8.5-3.8.5-1 0-1.4-.8c1.2-.9 5-1.7 5.2.3"/><path fill="#468fe5" fill-opacity=".3" stroke="#468fe5" stroke-opacity=".3" stroke-width=".5" d="M390 400c-.8 1.7-3.4 3-5 4q0-1-1.2-1.2c2-.7 4.2-3 6.2-2.8Z"/><path fill="#346eaf" fill-opacity=".1" stroke="#346eaf" stroke-opacity=".1" stroke-width=".5" d="m336 351 .9.3q-2 2.3-5 3.4.2-1-1-1.1a28 28 0 0 1 5-2.5Z"/><path fill="#d9e5f3" d="M412.7 318.4q3-.7 6.4-.4c-.3 1.2-2.5 1.7-3.6 1.9q-1.8 0-2.8-1.5"/><path fill="#3a7ec9" fill-opacity=".2" stroke="#3a7ec9" stroke-opacity=".2" stroke-width=".5" d="M408 404.1a19 19 0 0 1-5 4q0-1.2-1.2-1.3c2-.6 4-3.4 6.3-2.7Z"/><path fill="#3b7cc7" fill-opacity=".2" stroke="#3b7cc7" stroke-opacity=".2" stroke-width=".5" d="M48.6 103q-.3 1.4 1 1.7c-.6.4-3.5 2.7-4.5 1.9q1.5-2 3.5-3.6Z"/><path fill="#3c73b3" fill-opacity=".8" d="M139 82c.2 1.3-5.1 1-5 0a4 4 0 0 1 5 0"/><path fill="#448ee3" fill-opacity=".4" d="m112 88.2 1.2-.2q-.4 1-1.5 1zM405.9 119q0 1-1.1.9zm-189 19q0 1-1 1zm214.9 104q.2 1-1 1zm-263 103.2c.5.8-.4.7-1 .6zm83.7-.1-1.2.8q.1-1 1.2-.8M98.3 386.3q-.7.6-1.7.7.7-.6 1.7-.7m149 16q-.7.6-1.6.7.7-.6 1.6-.7"/><path fill="#448ee1" fill-opacity=".3" d="M406.3 107q-.4.6-1 1 0-1 1-1m-137.9 4-1.1 1q0-1 1.1-1m127 19q-.5.7-1.1 1 0-1 1.1-1m31 121q-.6.7-1.2 1 0-1 1.1-1m-257.2 96.1-1 .8q-.2-1.1 1-.7m-45.6 24q.1 1-.8.8zm57.1 12q0 1-1 .9zM52.8 412q0 1-1.2.8z"/><path fill="#a3aebb" d="M462.2 307.8c.3 2.6-2 4-4.2 4.4l3-3.8q.5-.4 1.1-.6"/><path fill="#bccadb" d="M229.3 261.8q-2.7.6-5.6 0 3-2.8 5.6 0"/><path fill="#448be0" fill-opacity=".3" d="M502.8 96.2q1 0 1.1 1zM437 100q-.3 1-1.3.7zm-37.7 11.3-1.3.7q.3-1.1 1.3-.7m-194 19-1.3.7q.3-1.1 1.3-.7m183 4-1.3.7q.3-1.1 1.3-.7M157 352q-.1 1-1.2.8zm-97 56q-.2 1-1.3.8z"/><path fill="#3f80ca" fill-opacity=".8" d="M505 105c1-.1 2 1.9 2 2.8l-.3 3c-.7.1-1.4-4.8-1.8-5.8"/><path fill="#428de2" fill-opacity=".3" stroke="#428de2" stroke-opacity=".3" stroke-width=".5" d="m276.3 89.3-1.2.7q0-1 1.2-.7ZM449.9 92q0 1-1.2.7zm9.4 1.3q-.6.5-1.3.7.3-1.1 1.3-.7ZM354 98q0 1-1.2.7zm70 10q0 1-1.2.7zm83.2-.2c1.4.6 1.5 3.3-.4 3q0-1.5.4-3ZM335 110q-.3 1-1.3.7zm100 9c-.7 1.6-3.3 3-5 3a7 7 0 0 1 5-3Zm-89 18q-.2 1-1.2.8.4-.5 1.2-.8Zm-158 1q-.1 1.2-1.3.7zm302.3 76.3-1.3.7q.3-1.1 1.3-.7Zm6.9 67.6-.4 1-.8.1q.3-.8 1.2-1ZM339 301c.2-.6 1.3-1.5 2-.6a2 2 0 0 1-2 .7Zm-73 33q-.2 1-1.3.8zm-2.7 4.3-1.2.8q.2-1 1.2-.8Zm-112 20-1.2.7q0-1.1 1.2-.7Zm43.6 2.6c-.5 1.7-3.2 3.1-4.9 3.2.5-1.8 3.3-2.8 5-3.2Zm19 3q0 1.2-1.2.8zm-83 3q-.2 1-1.2.8zM159 368c-.8 1.6-3.2 3.1-5 3q1.9-2.6 5-3Zm147 0q-.3 1-1.3.8zm22 7q-.7 1.1-2 1 .6-1.3 2-1Zm-41 4q-.3 1-1.3.8zm-96.7 5.3-1.2.7q0-1 1.2-.7Zm-96 9-1.2.7q0-1.1 1.2-.7ZM117 420q-.2 1-1.3.8z"/><path fill="#5c626a" d="M56.1 318.2c.9-.5 6.5-.1 6.7.6l-6.5.3z"/><path fill="#eef1f5" d="m64.3 261.8-5.4.4q.8-1.5 2.6-1.4a3 3 0 0 1 2.8 1"/><path fill="#eaecf0" d="M123.2 261.9q-2.7.2-5.3 0a3 3 0 0 1 2.6-1.1c.7 0 2.8-.2 2.7 1"/><path fill="#f9ffff" fill-opacity=".4" stroke="#f9ffff" stroke-opacity=".4" stroke-width=".5" d="m57.6 319 5.2-.2q0 1-1 1.4c-1-.1-4 .2-4.2-1.2Z"/><path fill="#3671b5" fill-opacity=".2" stroke="#3671b5" stroke-opacity=".2" stroke-width=".5" d="M27.5 98q-.3 1.4 1.1 1.7c-2.6 2.3-3.3.8-1.2-1.7Z"/><path fill="#438fe4" fill-opacity=".2" d="m217.3 123.3-1.2.8q.2-1 1.2-.8m108.1 236-1.3.8q0-1.1 1.2-.8m-179 2-1.3.8q.2-1.1 1.2-.8m162 9-1.3.8q0-1 1.2-.8"/><path fill="#548be8" fill-opacity=".2" stroke="#548be8" stroke-opacity=".2" stroke-width=".5" d="m43.2 405.7.5.4q-.2 1.4-1.7 2-.1-1.2-1.3-1.3 1.2-.8 2.5-1Z"/><path fill="#5489eb" fill-opacity=".2" stroke="#5489eb" stroke-opacity=".2" stroke-width=".5" d="M30.3 303.8q.3 0 .5.3a3 3 0 0 1-1.5 1.7q-.4-1-1.4-1.1 1.2-.7 2.4-1Z"/><path fill="#418be3" fill-opacity=".2" d="M389.9 129q0 1.1-1.2.7zm-198.5 9.3-1.3.7q0-1.2 1.2-.7m-46.5 220.6q0 1.1-1.2.8zm175 1q0 1.1-1.2.8z"/><path fill="#448de0" fill-opacity=".2" d="m210.4 127.3-1.3.8q.1-1 1.3-.8m183 4-1.3.8q.1-1 1.3-.8m-146 217-1.3.8q0-1 1.2-.8m-121.5 21.6q-.2 1-1.3.8z"/><path fill="#438be3" fill-opacity=".2" d="M235 352q-.3 1-1.3.6zm4.3 1.3-1.2.8q.2-1 1.2-.8m-87.4 1.6q-.1 1.1-1.3.7zm-23.6 17.4-1.2.8q0-1 1.2-.8"/><path fill="#476281" fill-opacity=".4" stroke="#476281" stroke-opacity=".4" stroke-width=".5" d="M397.3 266.3q1.3-.4 2.6 0-1 1.4-2.7 1.3-.3-.6.1-1.3Z"/><path fill="#4c91e6" fill-opacity=".2" stroke="#4c91e6" stroke-opacity=".2" stroke-width=".5" d="m29.2 351.7.6.4q-.4 1.5-1.8 2-.1-1.2-1.2-1.3 1.1-.8 2.4-1.1Z"/><path fill="#428de1" fill-opacity=".2" stroke="#428de1" stroke-opacity=".2" stroke-width=".5" d="M91 235q-.6 1.2-2 1a2 2 0 0 1 2-1Zm-76.9 58h.9q-.3.7-1 1zM119 374q-.2 1-1.2.7z"/><path fill="#428be0" fill-opacity=".3" d="M367 124q-.3 1-1.3.7zm108 91q-.3 1.1-1.3.7zM63.2 412.2l-1.2.8q0-1 1.2-.8"/><path fill="#2f78b5" fill-opacity=".2" stroke="#2f78b5" stroke-opacity=".2" stroke-width=".5" d="M466 208.4q-.9 1-2.1 1.3l-.2-1q1-1 2.3-.3Z"/><path fill="#428fe0" fill-opacity=".2" d="M198.9 130.9q0 1-1.2.8zm178 6q-.2 1-1.2.8zM115.3 380.3l-1.2.8q0-1 1.2-.8"/><path fill="#3077b6" fill-opacity=".3" stroke="#3077b6" stroke-opacity=".3" stroke-width=".5" d="M62.9 208.3q-.6 1-1.8 1.4l-.4-1.1q1-.7 2.2-.3Z"/><path fill="#262627" stroke="#262627" stroke-width=".5" d="M59 82c0 1 5.3 1.3 5 0a105 105 0 0 0 24 .4q3.5.5 7.1.4 5.4 0 10.7-.3c1 0 6.2.8 6-.4 2.4.9 19.9 1 22.2-.1-.1 1 5.2 1.3 5 0a33 33 0 0 0 14 0q.5.9 1.5.7h4.8c4.8-.3 14.8.7 18.8-.7q.3 1 1.4.7 2 .1 3.8-.4c3.2.7 23.5 1 25.8-.4q.2 1 1.4.9c.7-.4 4.4.5 4.3-.7a35 35 0 0 0 14.4-.1v.4q3 .5 6 .3c4.1-.5 20.5 1 23-.7-.2 1 5.8 1.1 5.7 0a84 84 0 0 0 24.2 0c-.2 1.1 6 1.1 5.7 0a84 84 0 0 0 24.4 0c-.4 1.1 6 1.2 5.6 0a25 25 0 0 0 13.4 0c-.3 1.3 3.6.4 4.4.8.4-.1 1.6.1 1.2-.7 2 1 18 1.2 20.3-.2-.3 1.5 4.5.7 5.4.5 7.6.8 18.2.1 26.3.4 2-.2 5.7.3 7.5-.5A45 45 0 0 0 418 82q.3 1 1.5.8 2 0 3.9-.4c4.3.5 21.7.7 25.4 0 .5.6 6.2.2 7.3.4h20.7c1-.2 6.3.7 6.1-.8 10.3-.4 14.5 5.8 19 13.8q.7 3.5 2.2 6.6l.8 2.6c.4 1 1.1 6 1.8 5.9 2 12.7 4 25.5 4.7 38.4q.2.5.6.7v97q-.9.5-.8 1.5.3 4 0 8c-.8 43.5-6.8 88-.5 131.2a51 51 0 0 1-4.8 23.3q-.7 0-1 .9l.2.8a2 2 0 0 0-1.3 1.3 39 39 0 0 1-32.8 16c-3.1-.2-13-1.8-15.2 0 .5-1.3-3.7-.4-4.4-.8q-.9-.3-1.2.7c-1.9-1-13.2-1-15.2.2.2-1.7-5.3-.6-6.3-.8h-18l-30 .3c-4.1-.4-15.2-1-18.7.4.3-1.8-5.2-.3-6.2-.7-4.6.1-13.5-.5-17.5.3-2-.7-5.4-.3-7.6-.3q-5.3-.2-10.5.3-3.6-.9-7.4-.3a256 256 0 0 0-17 .3q-5.3-.5-10.5-.4l-7.6.1h-25c-4.7.3-17-1-20.8.7.5-1.7-5.4-.5-6.2-.7-5.5.3-22.7-1-26.8.8.2-1.2-2.8-.7-3.4-.9q-1.2 0-1.5.9c-2-1.2-13.3-1.3-15-.2 0-1.4-5.4-.4-6.3-.2-2.6-1-8.5-.2-11.5-.5a32 32 0 0 0-6.6.4c-3.4-.6-18-1-20.6.5.3-1.7-5.3-.6-6.3-.9-5.6.5-23.6-.8-27.7.8.4-1.2-5.1-1.1-5 0-3.5-1.6-14.4-.5-18.7-.6h-7.7c-5.5-.2-12.5-.9-17.8.6.5-1.6-5.3-.5-6.2-.6q-10.6 0-21.3-.6-.6-.6-1.6-.5A30 30 0 0 1 2 401.5q.4-102 .3-204c3.4-28.7-5.1-59.1 1-87A48 48 0 0 1 10 95q1.6-.9 2.2-2.7.8-.3.8-1 5-3.9 10.9-6Q25 85 25 84h.6q4.4-.3 8.7-1.3c5-.2 21 .9 24.5-.8Zm-45 36q-.2 2 .1 3.7-.3 9.3.2 18.5c.7 1 6.4.2 7.8.4q2.4.3 4.8.1 64 0 128-.3 1.5.8 3 .4 13.5 0 27-.4 1 .5 2 .3 13.5.2 27-.5 1.4.6 2.9.5l43.1-.1h87.9q12 .1 24-.2 2.6.4 5 .3h45q28.5.1 57-.4c1.7.8 4.7.5 6.4-.2-3.2.9 11.7.5 11 .5 1.7-.5.6-5.6.8-7l.2-3.6c-.2-10.6.4-21.6-4.6-31.3q-.4-1-1.2-1.7a15 15 0 0 0-7.6-6.1q-1-1.1-2.4-.7c-1.3-2.3-12-2.4-14.5-2.3H456l-1.1.1a91 91 0 0 0-17 0c-2.2-1.1-7.8-.3-10.5-.6q-1.7 0-3.2.8c-1.4-1.6-15.4-.4-18.3-.4a7 7 0 0 0-3.7.1c-5.3-.6-12-.2-17.4 0H344l-1 .2-48-.2-1 .4a331 331 0 0 0-17.2-.4h-11.6q-.6 0-1.1.3a214 214 0 0 0-17.4 0l-11.4-.2q-18.8.4-37.5 0H166q-3.4 0-6.7.3a206 206 0 0 0-19 .1 385 385 0 0 0-27.1-.3l-1.1.2Q94.5 88 76.8 88H65.3c-4.8-.3-14 .5-18.3-.4q-6-1-11.8-.3c-16.3 3.2-19.8 16-21.3 30.7Zm18 32.2q-8.4-.6-16.7-.5-1 0-1.4.8-.2 23.7.1 47.3c0 1.1-.6 3.3.6 4q4.2 0 8.3-.2 8.7.5 17.4 0 2.6.3 5.3.2H56l17.8-.1c3.2.1 10.2.7 13-.3 4.3.9 12.3.4 17 .4q4.5.3 9-.2 8.6.4 17 0c3 .2 9.4.8 12-.3 4.8 1 12 .6 17 .4 3.6.1 10.8.6 14-.3 4.6.8 12.1.4 17 .3 3.9.1 12.6.6 16-.3 4.6.8 12 .5 17 .3 2.7 0 8.7.8 11-.5 4.4 1.2 12.2.6 17 .5q2.6.6 5-.4c4.3 1 12.3.5 17 .4 2.8.1 7.4.6 10-.2 5.2.6 11.7.4 16.9.2q8.1.5 16.2 0a278 278 0 0 0 21 0q8.4.3 17 0c3.8.1 10.4.6 14-.2q8.4.6 17 .3c3.4-.1 10.9.6 14-.4 4.9.8 11.8.4 17 .3q3.5.5 7.1 0h4.6q8.7.3 17.3 0 2.5.3 5.2 0h2.5q3.2.4 6.3-.2c3.8.4 13.5 1 16.7-.3q1 .8 2 .6c3.6-.1 11.2.6 14.2-.4 1.3 0 5.3 1.5 5.2-.9a668 668 0 0 0-.1-23.8 54 54 0 0 0-.2-15q.7-2.2 0-4.6c.2-1.5.9-6.3-.3-7.2l-8-.4q-1.6 0-3.1.4c-3-.2-8.8-1.1-11.3.7-1.7-1-15.9-1.7-17-.6-3.7-.6-9.5-.8-13 0-5.9-.1-15.7-1-21-.3l-1.2.2q-8.3-.2-16.4-.6-.9-.2-1.3.5l-1.2.1c-3.4-.3-11.2-1.1-14 .7q-1.1-.6-2.5-.8-6.6 0-13-.6-1.1 0-1.6.9a22 22 0 0 0-9.8 0c-4.1-.2-14.4-1-18-.2a6 6 0 0 0-5 .8 51 51 0 0 0-17-.8c-3-.4-7.4-.9-10 .4l-2.6-.5q-6.6 0-13-.6-1 0-1.5 1c-2.5-.9-12.4-1-15 0a99 99 0 0 0-18-.3c-3.6-.3-10.8-1-14 .4-3.8-1-11.3-.3-15.6-1q-1.2.6-2.1 1.4c-.6-1.8-9.7-1.5-11.2 0a49 49 0 0 0-18.9-.6q-1.5-.5-3.2-.2a6 6 0 0 0-4 .4q-8-.7-16.1-1l-1 .6c-4-.3-9.3-.5-13.1 0-4 0-14.5-1-17.7 0-4-.2-12.7-1-16 .4-3.9-1-11.4-.3-15.7-1a5 5 0 0 0-2.1 1.4q-.2-.6-.8-.9c-3.5-.3-9.2-.7-12.5.3q-16.8-.8-33.6-.7l-2.2 1.3c0-1.8-7-1.3-8.2-.2-3.6-1.3-15.9-.7-20.6-1.3q-1 0-1.3 1Zm-16 65c-1.4 1.5-.8 4-.1 5.6q-.2 5.8 0 11.5a155 155 0 0 0 0 17c-.4 1.8-.9 5 0 6.5-1.2 6.7-1 15.5-1.1 22.5q-.7 2.2-.6 4.4-.4 5.3-.2 10.4l-.1 1c0 2-.7 5.8 0 7.7-1.2 2.6-.9 8.6-.7 11.5l-.2 1.4a335 335 0 0 0-.3 18.3 143 143 0 0 0-.2 17c-.2 3.3-.4 8.4.7 11.4q-.3.7-.2 1.4a57 57 0 0 0 .5 12.3 121 121 0 0 0 6 33c.6 2.2 2.3 7.5 4.7 8.1q-.4 1.4.9 1.5c0 2.7 6.6 5.8 9 6h10.6q9.3.4 18.5 0 2.7.4 5.5.3h24.9a3758 3758 0 0 0 60 0 695 695 0 0 0 39-.1q9 .4 17.6 0 7.6.3 15.3 0 9.3 0 18.5.3 4.3-.3 8.5-.2 9 0 17.7-.3 3.6.4 7.3.1 35.8.3 71.6-.1 3.2.4 6.5.3c6.8.1 12.9-.4 19.5-1.3h6.6q9.3.3 18.5.3 5.1 1.2 10.4 1 7.8 1.1 15.6.8.8.3 1.4-.1c3.8 1.8 11.3 1.2 15.6 1.2q2.2.3 4.6.2l1-.1q7.2.3 14.3-.2c.8.2 2.6.6 3-.5a14 14 0 0 0 3.6-.5c33.2-4.5 27.7-24.7 27.2-51q.4-2.4.1-4.7.3-6-.1-12l.2-1.2v-1.8l-.2-14.8a1281 1281 0 0 0 .2-45.3c-.2-3.2.4-8-.4-11l.4-1v-4a405 405 0 0 0 0-19q.2-16.5-.4-33l.4-1.2-.2-3.5a60 60 0 0 0 0-10.7l.3-.8c2-1.9-2.7-1.9-3.6-1.8q-3.7-.3-7.6 0h-1q-9.6 0-19.2.3-1.2-.6-2.2.4H461q-.6-.7-1.6-.6a483 483 0 0 0-21.4 0h-21.4q-2.1-.5-4.4 0c-31 .2-62-.5-93 .3-10.8-.7-22.2-.8-33 0a215 215 0 0 0-27.8 0c-13.1-.7-27.7 0-41-.4H161q-31.7.2-63.4 0-4.5 0-8.7.7h-.6a149 149 0 0 0-27.6-.1 5 5 0 0 1-3.4 0q-.7-.6-1.7-.5l-20.6-.2c-3.4-.3-5.7.1-8.7.9-4-.6-7.7-1.2-11.6-.7-1 .7.5 4.6.3 5.6q0 1.2 1.1 1.6Zm389 44c0 2.1 3.3 1.3 4.7 1.5l13 .5a7 7 0 0 0 5.4.5h3l2.7.5q4.5.5 9 .7 2.6.1 4.8.8 1.6.4 3.3.2l5 .7c6.6 1.4 8.4 10 11.2 12.7-.7 1.7.4 4 .7 5.7q.5 6.4-.6 13l-.3 1-.9 2.6a80 80 0 0 1-4 8.2q-.6.2-1 .6l-3.1 3.8a38 38 0 0 1-10.8 5.7l-6.4.3q-10.8-1-21.7-.2-3.3-.2-6.4.4a17 17 0 0 0-6.9.7h-3.6c-18 0-49.1 2.6-50.8-22.8.1-13.7-.2-23.4 13.5-30q.6 0 1.2-.4l1-.7 11-2.9c6.7-1.6 21.9-.5 27-3.1Zm-346.2 3 5.4-.4q3 .4 6-.1 4.2.5 8.3.1 2.7.3 5.4 0 3 .3 6 .2l33.1-.1h21.7q2.8.3 5.5 0l20.6-.2q3 .8 6.1 0h24.8q3.1.6 6.4.1h15.5q2.9.6 5.6 0H246q3.1.5 6.3 0 8.4.2 16.8 0 3 .4 6 .2h15q.7.8 1.5.9c1.3-.1 7.4 1 7.6-.7 16.2.2 23-1.7 23.3 17.5-1.7 16 5.3 31.1-13.3 38.2l-7.3.4h-33.6q-3.6-.6-7.3 0h-19.6q-3.3-.6-6.6 0c-5.9.2-14.2-.5-19.7.5-.6-1-3.8-.4-4.8-.6q-3.1-.4-6.3.1h-16q-3.6-.6-7.3 0a1363 1363 0 0 0-38.5-.1h-21.3q-3.5-.4-7.1 0-3.4-.1-6.9.5c-3-1-13.1-.3-17-.4q-3.6-.6-7.2-.1-10 .6-20 .6c-.2-.7-5.8-1.1-6.7-.6-4.2-.5-7-2.7-10.1-5.2q-.3-2.4-1.2-4.8c.2-3.5 0-7.8-1-11l-.2-1.2c.9-2 .1-9.6.4-12.3l1-7.4c2-6 5.3-11.9 11.8-13.5q1.3.3 2-.6Zm322 4.8c-.7.2-3.4-.2-3.6.7-3.2.2-7.3 1.2-9.7 3.3a41 41 0 0 0-3.7 20q0 6.4 2.4 12.3l1.3 2.6q2.7 4.3 7.3 6c4.3 2.4 10.4.6 15 .2l15.3.9q3.3.6 6.5.6c4.3.4 10 1.3 14.2 1q7.2.8 14.1-.8 13.6-1.8 14.6-15.4c.5-6.2.7-17-2.5-22.6-.7-2.2-2.4-5-4.7-5.9-3.3-3.7-8.8-3.3-13.3-2.5q-3-.3-6 .2-8-.4-16-.4l-14.8-.9a62 62 0 0 0-16.4.7ZM57 287q-.9 3-.6 6c-.2 1.8 0 12.4 1.6 13q0 2.6 2.2 4c1 4 10.8 3.2 13.9 3l1-.1q4 .3 8 .2h31a513 513 0 0 0 22 0l16.9-.2q2.6.4 5.2 0a289 289 0 0 0 23 0 483 483 0 0 0 22.9 0q8.4.3 16.9 0 7 .3 14 .2 8.6 0 17-.2 4.5.3 9.1 0a384 384 0 0 0 23 .2q8.5 0 16.9-.2l1.1.1c1.4-.1 6 .7 6.7-.7 1-9.2 2.5-19.2 2-28.4q0-1-.6-2c0-3.7-.7-8-3-10.9q-3-5-9-4-8.1-.1-16.2.4-3.3-.5-6.8-.2-8-.3-16 0-3.6-.3-7 0-8-.3-16 .1-3-.4-6.1-.2-8-.2-16 .3-3-.5-5.9-.1-8-.4-16.1 0-7.5-.4-15 0-8-.4-16 0-5-.5-9.9 0c-4.7-.3-11.8-.5-16.2 0q-5.4-.5-10.8 0-8.1-.4-16.1 0-9-.4-17.8 0a173 173 0 0 0-21.4 0h-2.6c-1.6 0-8.1-.7-9.1.4l.2 8.8z"/><path fill="#3d76b9" fill-opacity=".7" d="M161.2 429.2c-.5 1-3.6 1.6-4.7 1.7q-1.4 0-2-1.3a32 32 0 0 1 6.7-.4"/><path fill="#3c74b4" fill-opacity=".8" d="M127.7 429.3c1 .2 6.6-.9 6.3.8a5 5 0 0 1-6.3-.9m98 0c.8.2 6.7-1 6.2.7-2.3 1.4-4.2.7-6.2-.7"/><path fill="#3c74b5" fill-opacity=".8" d="M44.7 429.4c.8 0 6.6-1 6.1.6q-3.2 1.8-6.1-.6m311-.1c1.1.4 6.6-1.1 6.3.7q-3.3 1.9-6.2-.7m73 0c1 .2 6.5-1 6.3.8q-3.5 1.9-6.3-.9"/><path fill="#97b5d9" d="M381 267c-.7 1.1-3 2.3-3.7.7.2-.9 2.9-.5 3.6-.7"/><path fill="#b2b8be" d="m447.7 263.7 2.5-.5q.6 0 .8.7-1.7.1-3.3-.2"/><path fill="#458fe4" fill-opacity=".2" d="m266.3 336.3-1.2.8q0-1 1.2-.8m34.6 34.6q0 1.1-1.2.7z"/><path fill="#438ce2" fill-opacity=".2" d="m221.3 138.3-1.2.8q0-1.2 1.2-.8m-62 215-1.2.8q.2-1 1.2-.8"/><path fill="#3178b7" fill-opacity=".9" d="M196.9 152.7q-.5 1.5-2 1.1z"/><path fill="#666c72" d="M58.9 262.2q-.8.9-2 .6a2 2 0 0 1 2-.6"/><path fill="#6fa8e9" d="M302 313h-1q.7-1.5 1.1 0"/><path fill="#418ce1" fill-opacity=".2" d="M254 341q-.2 1.1-1.4.7z"/><path fill="#428ee3" fill-opacity=".2" d="M215.9 120q-.1 1-1.2.7z"/><path fill="#74aeed" fill-opacity=".2" stroke="#74aeed" stroke-opacity=".2" stroke-width=".5" d="M75 312v.9h-1q.1-.7 1-1Z"/><path fill="#468be2" fill-opacity=".2" stroke="#468be2" stroke-opacity=".2" stroke-width=".5" d="M342.9 138.9q0 1-1 .9.4-.6 1-.9Z"/><path fill="#376495" fill-opacity=".3" stroke="#376495" stroke-opacity=".3" stroke-width=".5" d="M505.1 412.7q0 1.2-1.2 1.3.3-.9 1.2-1.3Z"/><path fill="#3c78b8" fill-opacity=".3" stroke="#3c78b8" stroke-opacity=".3" stroke-width=".5" d="M25.1 84q-.1 1-1.1 1.1 0-1 1.1-1.1Z"/><path fill="#3a83cd" fill-opacity=".3" stroke="#3a83cd" stroke-opacity=".3" stroke-width=".5" d="m403 150 1.2-.2q-.3 1-1.2 1.1z"/><path fill="#3882c9" fill-opacity=".6" d="M466.2 194a2 2 0 0 1-1.4.9q.5-.9 1.4-1"/><path fill="#438de2" stroke="#438de2" stroke-width=".5" d="M35.2 87.3q-3.6 5.5-7.8 10.7c-2.1 2.5-1.4 4 1.2 1.7l17.5-10a2 2 0 0 0 .9-2.1c4.2.9 13.5.1 18.3.4l-16.7 15q-2 1.6-3.5 3.6c1 .8 4-1.5 4.5-1.9l26.5-15.2q.8-.6.7-1.5l35.3.2-.4.8q-14.3 10.5-28.2 21.2c-.8.3-3.8 1.5-3.3 2.6q-1.3 0-2.1 1c.7 1 2-.2 2.1-1q1.8-.7 3.4-1.6l37.6-21.6q.8-.6.8-1.7 9 0 18.3.4c-.3 1.5 1.2.7 1.4 0q8.8-.6 17.6-.1l-24.5 17c-1.6.9-4 2-4.6 3.8-2.3-.4-5.2 2.8-7.2 3.8q-.6.4-1 1.2-2 0-2.8 1.6c.8 1 2.5-.7 2.8-1.6q1 0 2-.3 3-2 6-3.7l5.8-3.5 30-17.4q.4-.6.1-1.2l18.5.1-66.2 45.6c-.8.9-3 .8-3 2.2q-2 .3-3 1.9c.7 1 3-.6 3-2 2 .5 2.2-.3 3.7-1.4l78-45q.8-.5.9-1.3 18.8.5 37.5 0-1.2 1.3-2.7 2.2L167.1 133l-4.1 2.8q-3 1.8-6 3.9l-2 .7q-64 .5-128 .3l.1-1c1.2.5 3.9-2.2 5-2.7a25 25 0 0 0 6-5c.5.2 2.5-.4 1.4-1.1q-1 .2-1.5 1.2-1 0-2 .6l-5.3 3q-2.2 1.5-4.8 2.9-.7.3-.6 1.1-1.7 0-3.2.9c-1.4-.2-7.1.5-7.8-.4q-.6-9.2-.2-18.5.9.3 1.6-.4l11.9-10.7c-1.6-.6-1.9 1-3 1.7q-5.4 2.6-10.7 5.7c1.5-14.7 5-27.5 21.3-30.7Zm389.1.9q-.3.7-1.2 1l-1.4.8-1.8 1-1.2.7q-2 1.2-3.6 2.6l-1.5.6-3 1.8a21 21 0 0 1-3.8 2.3l-1.2.9-7.9 4.8q-1.8 1.1-3.5 2.6-.8 0-1.5.6l-3 1.8q-1.9 1-3.4 2.6l-1.6.6-1.8 1-1.2.8-3.6 2.5-1.3.7-3.1 1.8q-1.9 1.1-3.6 2.5-.8 0-1.3.7l-3.1 1.8q-2 1.4-4 2.3l-1 1a10 10 0 0 0-3.4 2.3q-1 0-1.7.6t-1.6 1l-1.3.8a21 21 0 0 0-3.5 2.6q-.8 0-1.5.6l-3 1.8-1.8 1.2q-.6.3-1 .9-.7 0-1 .9h-46.1q1.4-1 3.2-1.7l1.3-.7q2.8-1.5 5.5-3.5.8-.2 1.5-.8l5-2.7.8-.6q.6-.1 1.1-.5l5.1-3 .7-.5q.8-.2 1.4-.6l3.6-2.1 1.3-.7 5.5-3.5q1 0 1.6-.7l5-2.8.7-.6q.8 0 1.3-.6a39 39 0 0 1 5-2.8q2.8-1.5 5.4-3.6.8 0 1.5-.7l5-2.7.7-.5 1.4-.7 3.6-2 1.3-.8.7-.6q.8 0 1.3-.7l5-2.7q2.9-1.5 5.5-3.6a49 49 0 0 0 6.6-3.5l.7-.5q.8 0 1.3-.6t.5-1.2c5.4-.2 12-.6 17.4 0a22 22 0 0 1-4.3 3.5q-8.2 4.7-16.2 9.8l-20.2 12q-1 .7-1.6 1.7c-1.6.2-4.6 1.5-5 3.2a6 6 0 0 0-5 3q-1.3-.4-2 .8a3 3 0 0 0-3 2.1q-1.4-.2-2 1a3 3 0 0 0-3 1.6c1 .8 2.6-.5 3-1.6q1.3 0 2-1 2.2-.2 3-2a2 2 0 0 0 2-.9 10 10 0 0 0 5-3c1.8-.3 4.4-1.5 5-3.2q1 .1 2-.4 10.5-6.2 21-12 11-6.7 22.2-13 .9-.5.7-1.7c3 0 17-1.2 18.4.4ZM455 88l-.1 1a48 48 0 0 1-6.1 3.7q-2 1-3.4 2.6-.9 0-1.6.7l-6.7 4-1.3.7q-1.8 1-3.4 2.5-1 .2-1.7.8a14 14 0 0 0-3.4 2.2q-.9.1-1.6.8l-1.6 1-1.3.7q-1.8 1.1-3.6 2.5l-1.5.8q-1.9.8-3.3 2.2-.9.1-1.6.7t-1.8 1l-1.2.8a21 21 0 0 1-3.9 2.3l-1.1.9q-1.9 1-3.5 2.3-.8.1-1.5.7l-1.8 1-1.2.8q-1.9 1-3.5 2.6-.8 0-1.5.6l-1.8 1-1.2.8-.6.6q-.8.2-1.4.6l-1.8 1-1.2.8q-1.9 1.4-4 2.3l-1 1-3 1.7-.7.5q-.7.3-1.3.9l-1.9 1.3q-12 .3-24 .2l6.5-3.3a81 81 0 0 0 7-4.3 37 37 0 0 0 5-2.7l.9-.7q.6 0 1.1-.5l5.6-3.3q.9-.1 1.4-.7a39 39 0 0 1 5-2.8q3-1.6 5.4-3.6 1 0 1.5-.7a36 36 0 0 0 7-4l3.8-2q.8-.3 1.3-.7l6-3.3q.6-.4 1-1 3-1.4 5.6-3.2l1.4-.7 5-2.8.8-.5q.7-.2 1.2-.7l5-2.8q3-1.5 5.4-3.6 1 0 1.6-.7a36 36 0 0 0 5-2.7q.6-.5.7-1.3a91 91 0 0 1 17 0Zm-178 0q8.5-.2 17.2.3l-.5.7-1.4 1.2-1.4.7-2 1.1-1.1 1-3 1.7a64 64 0 0 0-6.5 4.6q-.7 0-1.5.6l-1.7 1-1.3.8-6.5 4.5q-.8 0-1.5.7-.9.7-1.7 1l-1.2.9-1.9 1.1-1.2.8-3.5 2.5a4 4 0 0 0-1.6.8q-.9.7-1.9 1l-1 .9-3 1.8-6.6 4.5-1.4.7-3 1.9-3 2-3.4 2.4q-.9.2-1.6.8l-6 3.7-3 2-.8.5-6 4q-13.5.6-27 .5 1.4-1.2 3.2-1.7l1.3-.7.8-.5 1.2-.7 5-2.8.7-.5 1.2-.7 5-2.8.7-.5q.8-.2 1.4-.8l4.9-2.7 5-3 .9-.5 6.2-3.6.6-.4 1.3-.8 5-2.7q2.9-1.5 5.5-3.5.8 0 1.5-.7l5-2.8.8-.5 1.2-.7 5-2.8.6-.6 1.4-.6 5-2.8q3-1.6 5.6-3.6.8 0 1.5-.7l5-2.7.7-.5 1.2-.7 5-2.8q.6-.6.5-1.4Zm29.9 0 36.2.1q0 .5-.3.8l-63 39.4a378 378 0 0 0-19.8 12.3l-43.1.1q1.5-1.1 3.3-1.6.8-.3 1.2-.8l.6-.6q.8 0 1.4-.6a124 124 0 0 0 10.8-6l1.2-.8.8-.6a69 69 0 0 0 13.1-7.7 28 28 0 0 0 5.1-2.7l.7-.5 1.3-.8 5-2.7.7-.5q.7-.2 1.3-.7l4-2.2q.6-.3 1.1-1 3-1.2 5.4-3.1l1.6-.7 5-2.8.5-.6q.9 0 1.4-.6l5-2.8q2.9-1.5 5.5-3.5.9 0 1.5-.8a44 44 0 0 0 7-3.9l5-2.8q.6-.6.5-1.3Zm44.2-.2q9.1.2 18.3.1a17 17 0 0 1-4.6 3.1l-1 1-1.8 1-1.2.7q-2 1-3.5 2.6-.7 0-1.5.6l-1.8 1-1.2.8-3.6 2.5q-.8.1-1.4.7-1 .7-2 1.1l-1 1-3 1.7-3.6 2.5q-.8.1-1.4.8a38 38 0 0 0-6.5 4.3q-.9 0-1.4.7l-2 1.1-1.2.8-1.7 1-1.2.8q-1.9 1.1-3.5 2.5-.8.2-1.5.7l-1.8 1-1.2.8q-2 1.2-3.6 2.6-.7 0-1.5.7t-1.9 1l-1 1-3 1.7a19 19 0 0 0-3.5 2.5l-1.5.7-1.8 1-1.2.8q-2 1-3.4 2.6-.8 0-1.6.6l-2 1.2-.8.6q-.7.3-.9 1h-25v-1a3 3 0 0 0 2-.2l16.7-9.8 69.5-40.1q1-.6.8-1.8ZM467 88c2.5-.1 13.2 0 14.5 2.3l-7 4.7q-8.3 4.5-16.4 9.7l-22 13q-.8.5-1 1.4-3.2.5-5 3c-1.8 0-4.2 1.2-5 3q-1.3-.2-2 1-3 .7-5 2.9-2.4 0-3 2-1.3-.2-2 .8c.6 1 2.1.2 2-.8q2-.2 3-2c1.4.4 4.3-1.6 5-3q1.5.3 2-1 3.1-.4 5-3c1.7 0 4.3-1.3 5-3q1 .2 2-.4l20.4-11.7q1-.6 1.3-1.7 1.2 0 2.3-.6 10.6-6.5 21.6-12.3.9-.5 1.2-1.4a15 15 0 0 1 7.6 6.2q-22.4 13.5-44.7 27.2-12.6 7.2-24.9 15-1.5.5-2.8 1.4l-42.2.1q1.5-1 3.3-1.6l1.2-.8.8-.6 1.3-.7 5-2.7 5-3 .9-.3 1.1-1q3-1.3 5.4-3.3.8 0 1.5-.6l5-2.8.7-.6q.8 0 1.2-.7l5.1-2.7 7-4a42 42 0 0 1 5-3l.7-.6q.8-.2 1.4-.7l6.9-3.9 5-2.8a70 70 0 0 0 7-4.2l5-2.8.8-.5 1.2-.7 5-2.8.8-.5 1.2-.7 5-2.8q.6-.6.6-1.4Zm-149 5.1c-2.1 0-5.2 2.3-6.9 3.6.8 1.3 6-2.5 7-3.6.9 0 5.8-2 4.5-3.2q-3 .7-4.6 3.2Zm-184 0q-1.2-.4-2 .5c.5 1 2 .5 2-.6.7-.4 3.8-.8 2.6-2q-2 0-2.6 2Zm72 1.9c-1.5 0-4.6 1.6-5 3q-2-.2-2.9 1.6c1.1.7 2.5-.7 3-1.7q2.2 0 3.9-1.6.7-.5 1-1.3c1 .1 6-1.9 4.6-3.1a8 8 0 0 0-4.6 3Zm286.6 3.7c5 9.7 4.4 20.7 4.6 31.3-2.7-.3-15.3 8.4-18.4 10.3q-28.5.5-57 .4l.2-.9a3 3 0 0 0 2-.3l23.8-14 43.3-25q.8-.7 1.5-1.8Zm-1.6 23.2c-1.6 0-4.5 1.5-5 3q-1.5 0-2 1.2-2.1 0-3 1.8a2 2 0 0 0-2 1c-1.2 0-4.9 1.8-5 3a2 2 0 0 0-1.9.8c.6 1 1.9 0 2-.8 1.6.3 4.3-1.5 4.8-3 .8.2 2.3.2 2-1q2.1 0 3.1-1.8 1.4 0 2-1.1a7 7 0 0 0 5-3c1.2 0 4.2-1 4.3-2.5-1.1-1-3.8 1.4-4.3 2.4Zm6 11.7c-.2 1.4 1 6.5-.8 7 .7 0-14.2.4-11-.5q6-3 11.8-6.5ZM32.1 150.2c1-.2 3-1 3.6.2-.4.4-7.4 5.6-6.1 2.5q1.5-1.1 2.5-2.7Zm22 .3c1.1-1.1 8-1.6 8.1.2l-2.3.8-14.8 9.1c-.8.6-2.5.6-1.6-.7q5.5-4.3 10.5-9.4Zm44-.4c3.3-1 9-.6 12.4-.3q.6.3.8 1A729 729 0 0 0 73 172.6c-1.4 1-2.6 0-1-1.2Q85 161 98 150Zm31 .2c3.3-1.4 12-.6 16-.4q-20.6 12.4-41.5 24.4-3.6 1.9-1-1.2 13.4-11.2 26.4-22.8Zm64 0a6 6 0 0 1 3.9-.4 4 4 0 0 1-1.5 2 45 45 0 0 0-7.6 4.9q-2.3 1.2-4.9 2 .3-.8 1-1.4 4.6-3.3 9-7.1Zm26 .3c1.5-1.4 10.6-1.7 11.2 0L197.5 169c-.9-.6 0-1 .5-1.5zm29-.2c3.1-1.4 10.3-.8 14-.5-1 1.5-34.5 19.9-38.9 22.8-1.4.7-1.3-.6-.3-1.3zm32-.3c2.5-.9 12.4-.8 15 0q-20.4 11.7-40.7 23c-.9-.6 0-1.1.5-1.8zm32 .3c2.6-1.4 7-.9 10-.5q-.3.6-.7.9-14.4 8.3-28.9 16.4c-.7-.7 0-1.2.5-1.7q9.6-7.5 19-15.1Zm27 .3q2.3-1.5 5-.8l-12.8 8.1c-1.6.4-1.4-.9-.4-1.5q4.3-2.7 8.2-5.8Zm23-.5a22 22 0 0 1 9.8-.1q-15 8.6-29.9 17.6-1 .5-1.8-.2zm27 .4c2.7-1.8 10.5-1 14-.7v1l-40 23.7q-1 .5-1.9 0zm55-.5c3.5-1 9.3-.7 13 0q-19.2 11.2-38.6 22-.5-1 .5-1.7a1065 1065 0 0 0 25-20.3Zm30 .5c2.5-1.8 8.2-1 11.3-.7-.8 2.3-14.3 8.7-17 11.2-5 2.3-11.5 7-16.5 9.3-.8.5-2 2.5-3 1.1.1-1 4.3-3.2 5-4.1zm-158.1 51q-8.1.5-16.2 0l44.6-25.8a5 5 0 0 1 2-.7c.8.7-1 1.7-1.5 2.2zm-143-.2c-3.4.9-10.5.4-14.1.3a2371 2371 0 0 1 41-24c.7-.2 1.4-1 2-.3-.8 2-25.5 21.7-29 24Zm33 0c-3.5 1-12.2.4-16.1.3l42.1-24.2c.7-.2 1.4-1.1 2-.2q-1 1.6-2.5 2.7zm291-24.7v3.3a30 30 0 0 0-5.7 2.6q-.6.3-1 0 2.1-2.8 4.8-5.1.7-.8 1.9-.8ZM87 201.4c-3 1-9.9.4-13.1.3l39-23.4c1.7-1.2 2.8.3 1.2 1.3q-13.7 10.7-27.2 21.8Zm281 .1c-3.6.8-10.2.3-14 .2q20.6-12 41.5-23.8c.8 1-1.6 2.2-2.1 3zm31-.1c-3.1 1-10.6.3-14 .4 6.7-4 36-23.2 41.6-23.8q.3.5-.2.9zm-257 0c-2.7 1-9 .4-12 .3l35.8-20.7q1.8.2.3 1.4zm92-.2c-2.4 1.3-8.4.6-11.2.5 10.4-6.4 21.5-12.5 32-18.6q.6-.4 1.1.2c-1.8 3.5-17.9 14.7-22 18Zm49 .3c-2.8.8-7.3.3-10.2.2q15.2-9.1 30.5-18 3.8-2 1.2 1.1zm-170 .1q-4.5.5-9.2.2c4-3 24-14 29.9-17.5 1.4-.7 1.6.6.4 1.3zm358-12.3-2 .4-18.8 12a17 17 0 0 1-5.2 0l28-16.4c.8-.3 2-1.5 2.8-.8q-2.6 2.2-4.8 4.8Zm-215 12q-2.5 1-5.1.4l1-1q7.2-4 14-8.4 1.2-.6 1.9.2zm237.9-9 1.2-.4q-1.3 4.9-3.2 9.5c-3 1-10.6.3-14.1.4l.2-.9c2 .1 2.5-.8 4-1.6l1-.3q5.6-3.3 10.9-6.7Zm-157 9.4q-2 .3-4 0 6-3.3 12-7.4c1.7-1.2 2.8.3 1.3 1.3l-9.2 6Zm128-6.8c.2 1.4-5 5.4-6 6.6q-3 .6-6.2.2l9.4-5.2c.8-.7 1.4-2.1 2.7-1.6ZM26.2 208.8q0 .6-.7 1a77 77 0 0 0-9.5 5.5q-1-.4-1.1-1.6c.2-1-1.3-5-.3-5.6 4-.5 7.7 0 11.6.7Zm8.7-1q10.3 0 20.6.3 1 0 1.7.5-1.2.3-2.3 1-19.5 11.1-39 22.7-.3-5.7 0-11.5c2.6-.2 14.9-9.4 18.2-11.2q1-.6.8-1.7Zm27.9.5c3.6-.2 23.6-.9 25.4.4q-1.8 0-3.3.8l-69 39.9-.1-11.4q1 .1 2.1-.4zm98.2-.2h56.5c13.2.3 27.8-.4 41 .4a215 215 0 0 1 27.7 0 202 202 0 0 1 33 0c31-1 62-.2 93-.5l-37.6 23-20.7 12.7q-.7.5-1 1.3a6 6 0 0 0-5 3 7 7 0 0 0-5 3q-1.5-.3-2 1-2 .2-3 2-1.5 1 0 0a3 3 0 0 0 3-2q1.5.3 2-1c1.8.1 4-1.4 5-3q3.1-.5 5-3a5 5 0 0 0 2-.4q10.5-6.3 21-12.2l39.3-22.8q1-.4 1.4-1.5H438q-4.5 3.3-9.5 6-1.1.7-1.6 1.9c-1.8 0-4.4 1.3-5 3-2-.2-4 1.4-5 3q-1.4-.2-2 1-2.3 0-3 2-1.2-.2-2 1-2.2 0-3 2-1.4-.2-2 1a5 5 0 0 0-2.2.4q-2 1.6.5 1.3 1.2-.7 1.8-1.6c.6 0 2 0 1.8-1q2.3-.3 3-2.2 1.5.3 2.2-.8 2-.3 3-2 1.3.2 1.9-1a8 8 0 0 0 5-3c1.8-.2 4.3-1.4 5-3.1a4 4 0 0 0 2-.4l8.4-4.8q1-.6 1.6-1.5a2 2 0 0 0 1.8-1.2h18.7q1 0 1.6.6-15.4 9-30.4 18.6l-15.7 9.3q-.7.5-1 1.4a7 7 0 0 0-5 3 7 7 0 0 0-5 3q-1.5-.4-2 1-2.1.1-3 2-1.2-.1-2 1-2.3.1-3 2-1.2-.2-1.9.7c.6.9 1.6 0 2-.6q2-.2 2.8-2.1 1.5.3 2.2-1 2.1 0 3-2 1.5.3 1.8-1a7 7 0 0 0 5.1-3 7 7 0 0 0 5-3q1.2.1 2-.4l16-9.3 34-20q9.5-.4 19-.2l-.2.7a64 64 0 0 0-6.5 4.4l-1.7.7-1.7 1-1.2.8q-1.9 1-3.5 2.6a3 3 0 0 0-1.6.6l-2.9 1.8-3.5 2.5q-.8 0-1.5.7-.9.7-1.9 1l-1.1 1.1-3 1.7-3.5 2.4-1.5.8-1.8 1-1.2.8q-1.8 1.1-3.5 2.5l-1.5.7-3 1.9q-1.9 1-3.6 2.5-.8.1-1.5.7l-2 1-.8 1a41 41 0 0 0-6.6 4.1l-1.5.8q-.8.6-1.8 1l-1.2.8q-1.9 1.1-3.4 2.5-.8.3-1.5.8l-3 1.7-6.7 4.5c-5.1 2.6-20.3 1.5-27 3.1-.3-1.8-3.2-1.8-4.6-1.3l-5.9 3.1q-.5.4-.5 1-.4.6-1 .8 0-.6-.5-.7-.6.5-.7 1.2c-13.7 6.5-13.4 16.2-13.5 29.9 1.7 25.4 32.8 22.8 50.8 22.7-.8 2-7.9 5.4-9.8 7a1 1 0 0 0-.1 1c-1.7-.2-4.9 1.5-5.4 3q-2.1-.3-2.9 2a2 2 0 0 0-2 .7c.6 1 2.2.2 2-.8q2-.2 3-1.8 3.1-.6 5.3-3.1 2.8-1 5.4-2.7c1-1 8-4.2 8.1-5.2a17 17 0 0 1 6.9-.7q1 1.4 2.8 1.5c1.1-.2 3.3-.7 3.6-2q11-.7 21.7.3 2.6 3 6 .8.4-.5.4-1.1a35 35 0 0 0 10.8-5.7c2.1-.4 4.5-1.8 4.2-4.4q2.1-4 4-8.2c7.3-2.9 21.9-12.5 29.8-16.6h.8c.8 3 .2 7.7.4 11q-1.3-.7-2.5.3c-10.3 6.6-20.5 13.5-31 19.8q-4.2 3-8.7 5.6-.7.5-1 1.2-2.1 0-3 2-1.5 0-2 1.1-2.1.1-3 2-1.2-.2-1.8.7c.5.9 1.7.1 1.8-.7q2.1 0 3-2 1.5.3 2-1 2.2 0 3-2 1 0 2-.3 4.5-2.8 9-5.3l32-18.6q.4 21.2 0 42.5a2 2 0 0 0-1.7.3q-9.3 6.4-18.7 12.6l-1.4 1.5c-1 .6-3.3.4-3 2.2q-2.2 0-3.3 2-1.1 0-1.8.8c.5 1 2 .2 1.8-.7q2.2-.4 3.3-2.1c4.3-1.4 19.8-11.3 25-14v12.2q-1.2-.3-2.2.2-6.9 4.8-13.5 10a7 7 0 0 0-3 1.8c-.6.3-2.1.2-2.2 1.2 1.6 1.5 2.7-.8 4-1.5q8-4.3 15.5-9l1.2.2q.4 6 .1 12-1.2-.2-2.2.5a716 716 0 0 1-21 16q-.7.5-.8 1.4-1.9 0-2.9 1.8c.9 1 2.6-1 3-1.8 5.4-2 17.8-10 23.8-13.2.5 26.4 6 46.6-27.2 51.1q.9-2 2-3.6c.7-.4 3.1-1 2.6-2a3 3 0 0 0-2.5 2c-1.5-.7-4.8 2.2-6.3 2.8q-.3.3-.3.8c-.5.1-2.3 0-2.1 1q-7.1.5-14.2.1v-1a40 40 0 0 1 3.9-4.7c.7-.2 3.7-1 2.6-2.2q-2 .3-2.6 2.2-.6-.3-1.2 0l-7.7 4.4q-.7.4-.7 1.3c-4.3 0-11.8.6-15.6-1.2q.4-.7-.1-1-.9.3-1.3 1.1-7.8.4-15.6-.8 17.4-13.8 35-27.3-1.8-.8-2.5 1-21.3 11.6-42.2 24-.7.4-.7 1.2-9.2 0-18.5-.3L403 408q2.8-1.5 5-3.9 2-.3 3-2 1 0 2-.5 2-1.6-.5-1.3-1.2.6-1.5 1.8-2.4-.3-3 2c-2.2-.7-4.3 2.1-6.3 2.7L400 408l-22 12.6-2.8 2.1c-6.6 1-12.7 1.4-19.5 1.3a979 979 0 0 1 29.4-20c1.5-1 4.2-2.3 5-4q2.1 0 2.8-2 1.1.2 2-.7c-.7-.9-1.7 0-2 .6q-2 .3-2.9 2c-2-.1-4.3 2.2-6.2 3L382 404l-31.4 18a2 2 0 0 0-1.4 1.6q-35.8.3-71.6.1a2298 2298 0 0 1 50.4-32.4q.8-.6 1-1.4a3 3 0 0 0 3-2q1.5.2 2-1a3 3 0 0 0 3-2c.4.2 2.7-.3 1.5-1a2 2 0 0 0-1.5 1 3 3 0 0 0-3 2q-1.4-.3-2 1-2.1 0-3 2c-2.2-.2-5.5 2.3-7 3.7a7 7 0 0 0-3 1.4l-46.6 26.8q-1.4.7-2.1 1.8-8.9.4-17.6.3.1-.6.7-1l68.6-43.6a2 2 0 0 0 1-1.4q2.2 0 3-2 1.3.1 2-1 2.1-.1 3-2c.6.2 2.6-.4 1.5-1.1q-1 0-1.4 1a3 3 0 0 0-3.1 2.2q-1.4-.5-2 .9-2.2 0-3 2-1.1-.1-2 .4-4.6 2.5-9 5.2l-1.5 1.2q-33 18.6-65.6 37.6-1 .6-.8 1.8-9.2-.2-18.5-.2.3-.8 1-1.3 1-.1 1.8-.7l1.4-1.2 1.5-.7 1.7-1 1.2-.9 1.9-1.1 1.2-.8 6.5-4.5a3 3 0 0 0 1.6-.8q.8-.6 1.3-1.3 1-.1 1.7-.6l1.6-1.1 1.3-.8 1.8-1.1 1.2-.8q3.3-2.1 6.5-4.6.8-.1 1.5-.7l1.5-1.2q.9-.1 1.4-.8 1-.4 1.8-1l1.2-.8 3.1-2q3.3-2 6.5-4.4a4 4 0 0 0 1.6-.8l1.5-1.2q.8-.2 1.3-.8l1.8-1 1.2-.8 1.9-1.1 1.2-.8 6.6-4.5 1.4-.7 1.5-1.3 1.5-.7 3-1.9 1.8-1.1 1.2-.8 1.8-1.2 1.2-.8 3-2 .7-.5a3 3 0 0 0 1.4-.7l1.5-1.4q.8 0 1.4-.6l3-1.9 1.8-1.1 1.2-.8 1.8-1.2 1.2-.8q.8-.8 1.8-1.3l1.2-.7.8-.5 1.2-.6 1.6-1.5q3-1.1 5-3.4c1.4-.3 7.8-3.8 8-5.2 1.8.2 2.2-1 3.1-2 .6.1 3-.4 1.6-1.2q-1.3 0-1.6 1.1-2.1.2-3 2c-2.2 0-7.3 3.6-9 5a28 28 0 0 0-5 2.6l-.9.7-1.3.5a35 35 0 0 1-5 3q-1.8 1.2-3.9 2.1l-1.9 1.3-1.4.8-5 2.7-.5.6q-.8.1-1.4.6l-5 2.9-.8.5q-.6.2-1.1.7l-3.1 1.6-.7.4-1.3.8q-2.8 1.5-5.5 3.5-.8.1-1.6.6l-4.9 2.8-.8.6q-.6.2-1.3.7l-4.8 2.8-1 .4-1.1.7q-2 .9-3.5 2.4-.8 0-1.5.6l-5 2.8-.8.5-1.2.7-5 2.8-.7.6-1.3.6a41 41 0 0 0-5 2.8q-3 1.5-5.4 3.6-.9 0-1.6.6a54 54 0 0 0-7 4l-5 2.8-.6.6q-.8 0-1.3.6L228 413l-1.3.7a39 39 0 0 0-5.5 3.6l-1.5.6-5 2.8-.7.5q-.8.2-1.3.7-1.4.8-2.4 2-8.7.3-17.5 0 1.8-1.9 4.3-2.9l17.6-10.7q1.4-1 2.3-2.2 1.3 0 2-1 2.1-.2 3-2.1 1.5.3 2-1 2.1 0 3-2c.5.2 2.9-.3 1.6-1.1q-1.3 0-1.6 1.1-2.1.1-3 2-1.5-.2-2 1a3 3 0 0 0-3 2q-1.4-.1-2 1-.7 0-1.3.3l-20 11.4-5.3 3.3-.2.8q-18.3.6-36.6.2 2-1.6 4-2.9l87-53.8q1.5-1 2.4-2.3 1.4.3 2-1 2.1 0 3-2 1.4.2 2-1 2.2 0 3-2 1.1.1 1.9-.7c-.6-.9-1.6 0-2 .6q-2 .3-3 2-1.2 0-1.9 1-2.2.1-3 2.1-1.4-.2-2 1-2.7.8-5 2.3l-16 9.3-1.5 1.3a5943 5943 0 0 0-78.2 44.8q-1 .3-1.1 1.3-8.8.3-17.5 0l4.1-3.3q.9 0 1.6-.7l1.7-1 1.2-.7 3.6-2.5q.8-.2 1.4-.8l1.7-1 1.3-.8q1.8-1 3.5-2.5.8 0 1.4-.6l2-1.2 1-.8 1.9-1 1.2-.8q2-1.1 3.5-2.5l1.6-.7 1.7-1 1.2-.8 3.5-2.5q.8-.2 1.4-.8 1-.4 1.8-1l1.3-.8q3.3-2.2 7-4.2l1-1 1.8-1 1.2-.7 3.6-2.5 1.4-.7 1.8-1 1.2-.8 3.5-2.5q.7-.2 1.5-.7l3-1.9q3.3-2 6.5-4.5.8 0 1.5-.7l3-1.7q2-1 3.4-2.6 1 0 1.7-.6l1.6-1.1 1.2-.8q2.1-1 3.6-2.5.8 0 1.5-.6l2-1.1 1-1 3-1.7q2-1 3.6-2.6.8 0 1.4-.7l1.8-1 1.2-.7 1.8-1.2 1.2-.8.7-.6q.8 0 1.4-.6l1.6-1 1.3-.8 1.8-1.2 1.2-.8.6-.5q.8-.2 1.4-.7l2-1.2 1-.8 3-1.8 3.6-2.5q.7-.2 1.5-.8l1.7-1 1.2-.7 1.8-1.2q.7-.3 1.2-.8l.8-.4 1.2-.9 1.7-1 1.3-.7q1.5-1 2.1-2.6.5.5 1 .2 3.7-1.5 6.6-4.1.9-.2 1.7-.6l12.2-8 6.9.1q3 3 6.5.5.6-.3.8-1c18.6-7 11.6-22.2 13.3-38-.3-19.3-7-17.4-23.3-17.6l-1.9-.2c0-1.3-1.9-1.2-2.7-1.2q-1.6 0-2.5 1.1l-2 .2-15-.1q0-.6-.6-.9-3-1-5.4.7-8.4.2-16.8 0-.1-.5-.7-.7-3-1.8-5.6.6-8.2.3-16.6.1-2.7-2.8-5.6 0h-15.5q-3.1-3-6.4 0H177a5 5 0 0 0-5.5-.8 1 1 0 0 0-.6.7l-20.6.2c-1-1.9-4.5-1.8-5.5 0h-15.1q.5-.8 1.3-1.3a976 976 0 0 1 25-15.6l11-6.7q.7-.4 1-1.3c1.4-.1 4.5-1.5 5-3a3 3 0 0 0 3-2q1.5.3 2-1 2.1 0 3-2c.6.2 2.8-.3 1.5-1.1q-1.2 0-1.5 1-2 .3-3 2c-.7 0-2.1 0-2 1q-2.1.2-3 2.1a7 7 0 0 0-5 3q-1.2-.1-2 .4l-8.4 4.8q-.9.6-1.6 1.5-1.5.3-3 1.3-14.6 8.2-28.8 16.8h-1c0-1.2-2-1-2.7-1a3 3 0 0 0-2.6 1.1H90c-1-1.9-4.7-1.4-6 0a34 34 0 0 1-5.5 0l78.4-49.6q.8-.4.6-1.3 1.5-1.7 3.5-3Zm335.2 2.6h.6q.6 5.2 0 10.6-.7-.1-1.6.4l-64 40h-3.1c-1-1.3-4-1-5.3-.5l-13.1-.5q.6-.6 1.5-.8l3-1.8 5-2.8 5.9-3.3q.6-.3 1.1-1a41 41 0 0 0 7-4l5-2.7.7-.5 1.3-.8a103 103 0 0 0 12-6.9l3.8-2 1.2-.8.9-.4 1.2-.9a332 332 0 0 0 18.8-10.8l5.1-3 .7-.4 1.4-.7 5-2.8.6-.6q.7-.2 1.3-.6 2-1.1 4-2.5ZM396.7 234c.1 0 2-.4 1-.9q-.9.2-1 .9Zm-228.8 21q-1.4-.3-2 1a4 4 0 0 0-2.9 2q-2.5.5-4.7 2-.5 1.4 1 1.2 2-1.4 3.7-3.3 2.3.2 3-2 1.5.5 1.9-1c1.8 0 3.9-1.3 5-2.6-.7-1.3-4.7 1.8-5 2.6Zm167 1.1c.1 0 1.8-.4.8-1q-.8.3-.9 1Zm65 10.2 12.2.9q-14.8 9-29.7 17.8-1.1 0-.8-1l15.6-16.4q1.7 0 2.7-1.3Zm-331 1q2.6-.3 5-.1-5.1 3.5-10.6 6.5-.6.3-1-.2a5 5 0 0 1 2.8-3.4 12 12 0 0 0 3.2-1.8q.5-.4.5-1Zm21.3 0q8.9-.4 17.8 0l-33.8 19.4-.2-.3zm33.9 0q5.4-.4 10.8 0L105.5 284c-.9-.6 0-1 .4-1.6 5.9-4.4 12.8-10.1 18.2-15.2Zm27 0q5-.5 10 0a923 923 0 0 0-25 14.5c-.9.1-2.3 1.4-3 .8.2-1.3 3-2.4 3.9-3.3zm26 0q7.5-.5 14.9 0l-36 20.9q-1 .6-1.9.3 0-.8.7-1.1a330 330 0 0 0 22.3-20.2Zm31 0q3-.5 5.8 0l-11 6.1c-1.4.5-3.2 3.4-4.7 2.1.3-1.6 8.8-5.6 10-8.2Zm21.9-.2q3-.1 6.1.2-7.5 4.6-15.2 8.8c-1.2.7-2.2 2.5-3.6 1.3q0-.5.6-.8 5.3-3.3 10-7.3a8 8 0 0 0 2-2.2Zm22 .1q3.6-.3 7 0-8.7 5.3-17.7 10.5-2.1.1-.4-1.3c2.1-1.5 10.5-7.1 11.2-9.2Zm23.1 0q3.5-.3 6.8.2-9.9 5.4-19.6 11.3-.6.1-1-.3 6.6-4.6 12.8-9.7.7-.7 1-1.5Zm23-.1q6-1.2 9 3.9-1 0-1.8.6l-30.5 17.7q-.8.6-1.4 0 11.1-9.5 22-19.4 1.5-1.2 2.7-2.8Zm136 .3q-7 4-13.9 8.4c-1.3.6-1.6-.8-.4-1.4 1.8-1.3 7.6-5 8.4-6.8q3-.5 5.9-.2Zm63-.4v11c-4 1-23.7 15-29.2 18h-.6q1.1-6.6.6-13c3 0 24.7-14 29.3-16Zm-49.7 3c2.3.8 4 3.6 4.7 5.8a482 482 0 0 0-25.1 14.8c-.8.7-2 .3-1.5-.7q11.5-9.5 22-20Zm-137.2 11.9.5 2a39 39 0 0 0-6.7 4c-1.3.5-1.2-1-.2-1.6 2-1 4.1-4.2 6.3-4.4ZM44 283.8c-.3 2.6.5 10.2-.4 12.2-2 .1-8.5 4.9-10.8 5.8q-1.5.8-2.5 2-1.3.1-2.4.9-7.2 4.4-14.6 8.6c-.2-3-.5-9 .7-11.5 3-.4 25.1-15.8 30-18Zm319.9 7.2v-4l4.9-2.8q.6-.4 1 .2a32 32 0 0 1-6 6.6Zm26 21.1c-4.6.4-10.7 2.2-15-.1l36-21.6c.8-.7 2.4-.6 1.7.7a388 388 0 0 0-16 14.1 59 59 0 0 0-6.7 7Zm-276 1h-14a2 2 0 0 1 1.3-1.5 1139 1139 0 0 0 34.8-20.3q1-.4 1.7.3l-22.6 20q-.8.7-1.2 1.5Zm121 0-14-.2c7.5-5.4 25.2-14.8 34-20.2.7-.2 1.4-1 1.9-.3q-11 10.2-22 20.7ZM60 309.9a5 5 0 0 1-2.2-3.8l16-9.7c1.7-1.2 2.9.2 1.2 1.2-4.5 3-10.8 8.7-15 12.3Zm-16.3-12.8a34 34 0 0 1 1 11c-2.1-.1-28 15.7-32 18l.3-11.4a2 2 0 0 0 1.9-.2l11.5-7.3 2.8-1.4a3 3 0 0 0 1.5-1.7q1.8 0 3.3-1zm39.1 16q-4 0-7.9-.3v-.8q0-.5.6-.7c7.6-3.6 16.5-8.7 23.4-13.7a2 2 0 0 1 2 0q-8.7 7.3-17.5 14.4l-.6 1ZM261 313q-4.5.2-9-.1.6-1 1.7-1.6l21.8-12.4.2.5c-1.1 2.1-12.5 10.9-14.7 13.6Zm78-12q-2.1.1-3 2-1.2-.2-1.9.7c.6 1 2 0 1.8-.8q2.2.2 3-2a2 2 0 0 0 2-.6c-.6-1-1.7 0-2 .7Zm-158 12h-6q0-.6.6-1 8.3-4.5 16.4-9.5 1-.6 1.9 0c0 1.3-2.6 1.6-3.3 2.5q-5 3.9-9.6 8Zm23 0h-6q0-.6.6-.9 8.6-4.3 16.4-9.8 1-.3 1.7.3-6 4.2-11.7 9-.8.5-1 1.4Zm207.7.6q-3.3 0-6.5-.6 0-.6.5-.8l12.3-6.8q2.1-1.9 4.6-3 2 0 .4 1.2-1.8 1-3.5 2.4c-2.1 2.4-6.3 5-7.8 7.6Zm28.3.2a41 41 0 0 1-14 .8l20-12.1q.5-.4.9.1zm-304-.7-5-.1q0-.6.6-1 7.5-3.7 14.4-8.7 1-.2 1.7.4-1.3 1-2.8 1.6l-1.5 1.6-5.4 3.7q-1.4.9-2 2.4Zm22.1-.2q-2.6.4-5.2 0 .4-.7 1.2-1.2 7.1-3.9 13.9-8.4c1.4-.7 2.7 0 1.1 1.2q-6 3.6-11 8.4Zm126 .2H278q0-.7.6-1 4.9-2.6 9.4-5.4.9-.6 1.8-.2l-5.3 5.5q-.4.5-.5 1ZM46 313c3.2 2.3 5.9 4.6 10.1 5.1l.2 1-41 23.5-3 2.4q0-6 .5-12 1.2.1 2.3-.4c4.3-3 29-17.6 30.9-19.7Zm67.9 5.1c2.5 2.7 4.5 2.2 7.2 0h14.7c1.7 2.4 4.7 2.3 6.5 0q7.8 0 15.5.2 3.8 3.3 7.4-.2l15.6.1c2.6 2.3 4.6 2.1 7.3 0H204c1.4 2.4 5 2.2 6.3-.1 1 .2 4.2-.3 4.8.6a90 90 0 0 0-17.3 10.2q-1 0-1.7.3l-21 12.2q-1.8 1.6-4 2.5l-1.4.7-.8.5-1 .6q-1.8 1.3-3.9 2.2l-1.2.7-.9.6-1.2.6-3.6 2.1-1.2.8-.9.4q-.7.3-1.2.8l-3 1.6-.7.4-1.3.7-5 3-.7.6q-.8.2-1.3.6l-12 6.8-.8.5-4.3 2.5-1 .4q-.5.4-.8.9a37 37 0 0 0-5.1 2.7l-.7.5-1.3.8-5 2.7-.7.5-1.3.7-3.7 2.1-1.3.7q-3 1.5-5.4 3.6-1 .1-1.7.7l-5 2.7-.5.5-1.4.7-5 2.8-.7.5-1.3.8a87 87 0 0 0-10.4 6.2l-1.7.7-5 2.8-.6.5-1.3.7L60 408l-1.3.8-.8.3-1.2.8q-1.9 1.2-3.9 2.1l-1.2.9q-2.9 1.4-5.4 3.4a33 33 0 0 0-6.5 3.4l-.8.5-1.2.7c-1 .7-3.5 1.5-3.6 2.8-2.3-.3-9-3.3-9-6h.9l16-9.7q1.4-.5 1.7-2 1.9.2 3.4-1l23-13.7q.6-.4.9-1.3c1.7 0 4.3-1.4 5-3 1.7 0 4.4-1.4 5-3 .7 0 2.1.1 2-1 1.6-.3 4-1.6 5-3q2.3 0 3-2a2 2 0 0 0 2-.7c-.6-1-2.2-.2-2 .7-1 .2-2.8.5-3 2-1.7-.6-2.5 1.3-4 1.6q-.7.6-1 1.4-1.4-.3-2 1-3 .5-5 3-3.2.4-5 3-1 0-2 .3-11.5 6.9-23.2 13.5-1.5.8-2.6 2-1.4.2-2.4 1-8.2 4.9-16.5 9.4c-2.4-.7-4.1-5.9-4.7-8.1q1.3 0 2.4-.6 39.3-23.7 78.4-47.9A236 236 0 0 0 117 350l11-6.6q.7-.5 1-1.3c1.6-.2 4.4-1.5 5-3 2-.2 6-2.4 7-4a10 10 0 0 0 4.9-2.7c-.6-.9-4.8 1.4-4.8 2.7-1.6-.3-6.3 2.5-7.2 4q-3 .4-5 3c-2.1-.3-8 4.2-10.3 5.2l-2 1.8q-.9 0-1.6.4l-16 9.2-1.5 1.2q-39.6 22.4-79 45.5-4.3-14.8-4.9-30.2 1.4 0 2.4-.6L61.4 347q.8-.8 1.7-1.3.8 0 1.6-.5a339 339 0 0 1 16.3-9.9q.8-.4.8-1.3c2-2.5 13.2-8.7 16.4-9.3 2.7-3 5.3-4 8.8-6q3.4-.6 6.9-.5Zm314 3.7a2 2 0 0 0-1.8.8c.6 1 1.7 0 1.9-.8.6-.3 4-.7 2.6-1.9a3 3 0 0 0-2.6 2ZM38 383.1c-1.7-.6-4.4 1.5-4.8 3q-1.5-.5-2.1 1-2.3-.2-3 2-1.3-.3-2 .8a8 8 0 0 0-5 3c-1.3.1-4 1-4.1 2.5 1.1.7 3.7-1.2 4-2.4a7 7 0 0 0 5.1-3q1.5.4 2-1 2.1-.1 3-2 1.4.1 2-.9c1.4-.3 4.5-1.8 5-3 1.1 0 3-.2 3-1.6-1.2-.7-2.7.2-3 1.6ZM179 419q-2.1 0-3 2-1.1-.3-1.8.7c.6 1 1.8 0 1.8-.7q2.2 0 3-2c.5.2 2.9-.3 1.6-1q-1 0-1.6 1Z"/><path fill="#428ee1" fill-opacity=".3" stroke="#428ee1" stroke-opacity=".3" stroke-width=".5" d="M392.9 398q-.6 2-2.9 2a3 3 0 0 1 2.9-2Z"/><path fill="#428be0" fill-opacity=".2" stroke="#428be0" stroke-opacity=".2" stroke-width=".5" d="M332 388a3 3 0 0 1-3 2q.8-2 3-2Z"/><path fill="#438de2" fill-opacity=".6" stroke="#438de2" stroke-opacity=".6" stroke-width=".5" d="M167.9 255c.3-1 4.3-4 5-2.7a7 7 0 0 1-5 2.6Z"/><path fill="#438de2" fill-opacity=".4" stroke="#438de2" stroke-opacity=".4" stroke-width=".5" d="M399 247q-.6 1.3-2 1 .8-1.1 2-1Zm-56 4q-.6 1.3-2 1 .5-1.3 2-1Zm-177 5q-.8 2-3 2a4 4 0 0 1 3-2Z"/><path fill="#448de1" fill-opacity=".4" stroke="#448de1" stroke-opacity=".4" stroke-width=".5" d="M402 245q-.7 2-3 2 .9-1.9 3-2Z"/><path fill="#438ee3" fill-opacity=".3" stroke="#438ee3" stroke-opacity=".3" stroke-width=".5" d="M173 234c-.5 1.5-3.6 2.9-5 3q1.8-2.7 5-3Zm219.3 93a9 9 0 0 1-5.4 3c.5-1.5 3.7-3.2 5.4-3Z"/><path fill="#438de2" fill-opacity=".5" stroke="#438de2" stroke-opacity=".5" stroke-width=".5" d="M405 229q-.6 1.2-1.7 1.7-2.4.3-.5-1.3a5 5 0 0 1 2.2-.3Zm-8.3 5q.1-.8 1-.9c1 .5-.9.8-1 .9Zm-2.7 16c-.3.7-1.3 1.6-1.9.7q.7-.9 2-.6ZM38 383c.3-1.3 1.8-2.2 3-1.5 0 1.4-1.9 1.5-3 1.6Z"/><path fill="#468ce0" fill-opacity=".2" stroke="#468ce0" stroke-opacity=".2" stroke-width=".5" d="M427 216c-.7 1.7-3.2 3-5 3 .6-1.7 3.2-3 5-3Z"/><path fill="#438ce2" fill-opacity=".5" stroke="#438ce2" stroke-opacity=".5" stroke-width=".5" d="M415 130.9c.1 1-1.4 1.8-2 .8q.7-1 2-.8Zm13 191c-.2.7-1.3 1.7-2 .8a2 2 0 0 1 2-.8Z"/><path fill="#c7d6e8" d="M440.8 318.2q3.2-.3 6.4-.3 0 .6-.5 1.1-3.2 2.2-5.9-.8"/><path fill="#4471a3" fill-opacity=".8" d="M290.2 318.3h4.7q-.7.7-1.9 1c-1.6-.6-2.2.4-3.7.5q.3-.7 1-1.5"/><path fill="#458ce1" fill-opacity=".2" stroke="#458ce1" stroke-opacity=".2" stroke-width=".5" d="m437.3 89.3-1.2.8q.2-1 1.2-.8Zm-81 16-1.2.8q0-1.1 1.2-.8Zm-113 3-1.2.8q.2-1 1.2-.8Zm183 4-1.2.8q.2-1 1.2-.8ZM324 116.9q0 1-1.2.8zm132 110q-.2 1-1.2.8zm1.4 6.4-1.2.8q0-1.1 1.2-.8Zm-164.3 86-10.3 6.9-1.7.6q-.4-1 .4-1.9c2.6-1.6 5.9-2.7 7.9-5 1.5-.2 2.1-1.2 3.7-.6ZM247 345q-.3 1-1.3.8zm-93 26q-.6 1.2-1.6 1.9L142 379l-.3-.9q.8-1 2-1.9c2.4-1 7.8-5.2 10.2-5.3Zm114 19q-.3 1.1-1.3.8.6-.5 1.2-.7Z"/><path fill="#9fc4ed" d="m366 266-1.2.4q.2-.8.8-1.2.6 0 .5.7"/><path fill="#7c7d7e" d="M422.9 261.2c1.3-.4 4.4-.8 5.3.5a7 7 0 0 1-5.3-.5"/><path fill="#e3eaf3" d="M275 262q-3 .1-6-.2a6 6 0 0 1 5.4-.7q.6.3.7.9"/><path fill="#dce5ee" d="m90 262-6-.1c1.4-1.4 5-1.9 6 0"/><path fill="#cfd8e3" d="M150.3 262h-5.5c1-2 4.5-2 5.5 0"/><path fill="#448ee3" fill-opacity=".2" d="M221.9 134.9q-.1 1-1.3.8zm39 202q-.1 1.1-1.3.7zm67.4 20.4q-.5.5-1.2.7 0-1.2 1.2-.7m-17 11q-.5.5-1.2.8.1-1 1.2-.8"/><path fill="#0d4e61" stroke="#0d4e61" stroke-width=".5" d="M54 150.5q-5 5-10.5 9.4c-.9 1.3.8 1.3 1.6.7q7.3-4.7 14.8-9l2.3-1 2.2-1.2q16.8 0 33.6.7-13 11-26 21.4c-1.6 1.1-.5 2.3 1 1.2a729 729 0 0 1 38.3-22 5 5 0 0 1 2.1-1.3c4.3.6 11.8-.1 15.6 1q-13 11.3-26.5 22.6-2.4 3 1 1.2 21-12 41.6-24.4c3.2-1 13.7 0 17.7 0q-12.2 10.5-24.8 20.6-.8.6-.5 1.5a1068 1068 0 0 0 39.4-22.7q8.1.3 16.2 1-4.4 3.8-9.2 7l-.9 1.5q-2.3.3-3.2 2.5-.5-.3-.9 0c.2-.2-8.3 5.9-6.2 5.4q1 .1 2-.5c.9-.8 6.3-3 6.1-4.2l8.5-4.3q.4-.3.4-.6 2.7-1.4 5.1-3.3 1.7.5 2-1.1c1-.7 3.2-1.2 3.4-2.6 2.7-1 16.7-.8 18.9.6q-10.5 8.5-21.1 16.8c-.6.4-1.4 1-.5 1.5l34.9-19.6c4.3.6 11.8-.2 15.6 1l-25.1 21c-1 .7-1 2 .3 1.3 4.4-3 37.9-21.3 38.8-22.8 4-.8 13.5-.1 18 .2l-25 21.3c-.5.7-1.4 1.2-.5 1.8q20.4-11.3 40.6-23 .5-.9 1.4-.9 6.5.6 13.1.6 1.3.1 2.5.5l-19 15.1c-.5.6-1.2 1-.5 1.8q14.5-8 28.9-16.4.4-.3.6-.9c2.3-.5 15.4-.6 17 .8q-3.7 3.2-8.1 5.7c-1 .7-1.2 2 .4 1.6l12.9-8c3.5-1 13.8-.1 17.9.2l-21.9 17.3q.9.6 1.8.2 15-9 30-17.7.5-.8 1.4-.8 6.6.6 13.1.6 1.4.1 2.6.8l-27.9 24q.9.5 1.8 0 20-12 40-23.7.9-.2 1.2-1 .4-.8 1.3-.6l16.4.6q-1.5 2.3-4 3.5a2 2 0 0 0-.9 1.2q.6.6 1.3.2l6.4-3.7c.8-1.2-.9-1.6-1.7-1.4 5.4-.7 15.2.2 21 .4a1065 1065 0 0 1-25 20.3q-1 .7-.4 1.7 19.3-10.8 38.5-22c1.1-1.2 15.3-.5 17 .5L454 167.4c-.8 1-5 3-5 4.1.9 1.4 2.1-.6 3-1 5-2.4 11.4-7.1 16.4-9.4 2.7-2.5 16.2-8.9 17-11.2l3-.4q4 0 8.1.4c1.2 1 .5 5.7.4 7.2q-8.7 6.3-16.7 13.3c.7.7 2-.5 2.9-.6l13.7-8a54 54 0 0 1 .2 15q-1.1-.2-2 .7a37 37 0 0 0-4.7 5q.4.4 1 .1 2.7-1.6 5.7-2.6.2 10.3 0 20.5c.2 2.3-3.8 1-5 1q1.9-4.7 3-9.6-.4-.7-1.3-.6c-2.4 1.3-9.1 4.5-10.5 6.4q-1.2.4-1.2 1.6c-1.5.8-2 1.7-4 1.6l-2.3.3a58 58 0 0 1-16.7.3c1-1.2 6.1-5.3 5.8-6.6q.9-.1 1.4-1 2.7-2.2 4.8-4.6 2.2-2.6 4.8-4.8c-.8-.7-2 .5-2.8.8l-28 16.4q-8.7.3-17.3 0c2.4-2.1 5.6-3.9 7.5-6.5 3-1 3-4 6.7-4.9 3.4-3.2 8-6 11.4-9.4q.5-.4.2-1-18.3 10.2-36.5 20.7-.8.4-1 1.1c-5.2.1-12.1.5-17-.3l27.5-22.5q.4-.4 0-1c-5.5.7-34.8 19.9-41.6 23.9q-8.4.1-17-.3 12.8-10.2 25.5-20.7c.5-.7 2.9-2 2.1-2.9q-20.9 11.7-41.6 23.8-8.4.3-17 0 4.5-3.3 9.3-6.1c1.5-1 .4-2.5-1.2-1.3q-6 4-12.1 7.5-8.5.1-16.9-.1l29-24.4c.3-.5 2.2-1.5 1.5-2.2a5 5 0 0 0-2.1.7l-44.6 25.9c-5.2.2-11.7.4-16.9-.2l21.6-16.7q2.5-3-1.1-1.1-15.4 8.8-30.6 18c-4.6.1-12.6.6-16.9-.4l11.9-8.9q-.7-.7-1.8-.1-7 4.4-14 8.4l-1.1 1c-4.8 0-12.6.7-17-.5 4.1-3.2 20.2-14.4 22-17.9q-.5-.6-1.1-.2c-10.5 6-21.6 12.2-32 18.6a95 95 0 0 1-16.9-.3q12.9-10.5 25.6-21.4 1.5-1.2 2.5-2.7c-.6-.9-1.3 0-2 .2q-21 12.3-42.1 24.2c-4.9.1-12.4.5-17-.3 3.5-2.3 28.3-22 29-24-.6-.8-1.3.1-2 .3a2371 2371 0 0 0-41 24c-5 .1-12.2.5-17-.4q12-9.6 24.2-18.9 1.6-1.2-.3-1.4l-35.9 20.7q-8.4.3-17-.1l21.2-16c1.2-.7 1-2-.4-1.3-5.8 3.4-26 14.6-29.9 17.4-4.6 0-12.6.6-16.9-.3q13.5-11.1 27.2-21.8c1.6-1 .5-2.5-1.2-1.3l-39 23.4q-9 .3-17.8 0c4.8-4.6 26.9-21.9 29.1-25.8.8.1 4-.8 2.3-1.8q-1.9 0-2.3 1.8c-2.8.5-5 2.5-7.4 3.8l-1 .4q-1.5 1-3.1 1.7-1.5 1.5-3.7 2a3 3 0 0 0-1.4 1.1C65 187 46.4 198.2 44 198.7a4 4 0 0 0-1.3 1.3c-.4.7-2.7.9-2.3 1.6q-8.7.5-17.4 0 12-10.5 24.5-20.6 1.5-1.2 2.5-2.6c-.6-.8-1.3 0-2 .2q-16.8 9.9-33.9 19.2-.4-23.7 0-47.3.3-.8 1.3-.8 8.4-.1 16.7.5-1 1.6-2.6 2.7c-1.2 3 5.8-2.1 6.2-2.5-.7-1.1-2.6-.4-3.6-.2q.3-1 1.3-1c4.7.6 17 0 20.6 1.3Zm-37.2 21.8c1 0 3.1-1 2.6-2.2q-2.1 0-2.6 2.2Zm241 9.8q.7 0 1.1-.6-1-.4-1.1.6Z"/><path fill="#3880c6" d="M257.8 182.1q.2-1 1.1-.6-.3.6-1.1.6"/><path fill="#256b9a" fill-opacity=".5" stroke="#256b9a" stroke-opacity=".5" stroke-width=".5" d="M85.2 175.9q.3-1.8 2.3-1.8c1.7 1-1.5 2-2.3 1.8Z"/><path fill="#3f88d8" fill-opacity=".7" d="m188 156.8 1.7.3q0 .5-.4.6-4.2 2.3-8.5 4.3l-1-.7a4 4 0 0 1 3.2-2.5q2.6-.8 5-2"/><path fill="#458ee2" fill-opacity=".3" stroke="#458ee2" stroke-opacity=".3" stroke-width=".5" d="m343 88.1 1-.1q-.3 1-1.3 1zm75.3 12.2-1.2.7q0-1.1 1.2-.7Zm-138 4-1.2.7q0-1.1 1.2-.7Zm-49 11-1.3.7q.3-1.1 1.3-.7Zm30 0-1.3.7q.3-1 1.3-.7Zm76 1-1.3.7q.3-1 1.3-.7ZM219 117.9q0 1.1-1.2.8zm5.4 1.4-1.3.7q.3-1 1.3-.7Zm183 4-1.2.8q0-1 1.2-.8Zm-34 3-1.2.8q0-1.2 1.2-.8Zm-55 1-1.3.7q.3-1 1.3-.7ZM202 128.9q-.1 1-1.2.8zm183 3q0 1-1.2.8zm-188 18q1.8-.3 3.3.2c-.1 1.4-2.4 1.9-3.3 2.6l-2 1.1a43 43 0 0 1-5.2 3.3l-1.8-.3a45 45 0 0 1 7.6-4.8 4 4 0 0 0 1.5-2Zm241.4 94.4-1.2.7q0-1.1 1.2-.7Zm-19 11-1.3.7q.3-1 1.3-.7Zm34.7 65.6q-.8 2-3 2 .9-2 3-2Zm-244.7 51.4-1.2.8q.2-1 1.2-.8Zm116.8 3.7q-1 2-3.2 2 1-2 3.2-2ZM112 378q0 1.1-1.2.7zm57 12q0 1.1-1.2.7zm-32.6 28.3-1.2.8q0-1.1 1.2-.8ZM41 419q0 1.1-1.2.7zm408 6v1l-1 .1q.3-.8 1-1.1Z"/><path fill="#438de2" stroke="#438de2" stroke-width=".5" d="M246.7 88.1a214 214 0 0 1 17.4.1l-.4.8q-2.3 1.4-4.5 3.2-.8.3-1.5.8l-1.9 1-1.1 1-1.7 1-1.2.8-3.1 2-6.6 4.5q-.8.2-1.5.7l-1.7 1-3 2-1.2.7-6.5 4.6q-.8 0-1.5.6l-1.5 1.3q-.9.2-1.4.8a52 52 0 0 0-7.9 5l-1.2.7-5 3.2-1.9 1.2-1.1.8-3 1.8q-.7.8-1.8 1.2l-1.2.8-3 2a12 12 0 0 0-3.4 2.6q-.9.2-1.6.6-1 .7-2 1l-.9 1q-.9.7-1.9 1l-1.2.8q-1 .7-1.7 1.7-13.5.4-27.1.4l.2-.7 5.5-3q.2-.9-.6-1.3l4-2.8c-.6 1.8 1.4 1.5 2.3.8L246 89.4q.7-.4.7-1.3Zm-85.6 120a16 16 0 0 0-3.5 2.9q-.9 0-1.6.4l-14.1 8.1q-.7.8-1.5 1.3-34.5 19.5-68.8 39.5a2 2 0 0 0-1.3 1.4q-3 .6-6 .1a3 3 0 0 0-2.8-1q-1.7-.1-2.6 1.4a2 2 0 0 0-2 .6c-6.6 1.6-9.9 7.6-11.8 13.5-2-.4-26.4 14.5-30.1 16.7h-1q-.1-5 .2-10.3 1.6-.6 3.3-1.6L88 237.4q.7-.7 1-1.5 1.4.3 2-1 2.1 0 3-1.9a2 2 0 0 0 2-1q2.1-.1 3-2a2 2 0 0 0 1.9-.7c-.6-1-1.8 0-1.9.8q-2.2 0-3 2-1.4-.5-2 1-2.1-.2-3 1.8a2 2 0 0 0-2 1q-1 .1-2 .7l-14 8.1q-29 16.9-58.1 33.6c.2-7-.1-15.8 1-22.5q1 0 1.8-.6l69.6-44.5a3 3 0 0 0 1.6-2q4.3-.8 8.7-.7c21 .2 42.5.1 63.5 0ZM16.8 266.8q.6.2 1-.4-.6-.3-1 .4Zm66 51.4c1.9 3.2 5 1.8 7.2 0 3.9.2 14-.4 17 .5-3.5 2-6.1 3-8.8 6-3.2.6-14.4 6.8-16.4 9.3q-1 0-1.9.3-9 5.2-18 10.7l1.2.7-1.7 1.3q-1.2-1-2.4-.4-21.7 12.8-43.7 25.1l-2 1.6q-.6-5.2-.2-10.5l15-8.8q1.3-.5 1.7-2 1.8 0 3.3-1L56 337.2q.7-.4 1-1c1.6-.3 4.3-1.7 5-3.2a7 7 0 0 0 5-3q1.5.3 2-1c1.6-.3 3.8-1.6 5-2.7-.8-1-4.9 1.3-5 2.6q-1.4 0-2 1-3.2.6-5 3.1c-1.7 0-4.5 1.4-5 3.1q-1-.1-2 .2l-23.2 13.5q-1.5.9-2.6 1.9-1.3.3-2.4 1-5.8 3.8-11.8 6.9l-1.7 1.7c-1.1-2.9-.9-8-.7-11.3q1.3 0 2.5-.6l43.3-26.6a22 22 0 0 0 3.4-2.6q1-.3 1-1.4 10 0 20-.6Zm151.9.1q3.3 3.3 6.6 0h19.6c2.7 2.5 4.5 2.2 7.3 0h15.7c1.2 1.8 3.5 1.6 5.4 1.5-2 2.4-5.3 3.5-8 5.1q-.7.9-.3 1.9-3 2.5-6.5 4.1a1 1 0 0 1-1.1-.2q-.7-.6-1.5-.3l-1 .9-1.1.5Q268 333 266 334l-1.3.8-.8.3q-.7.3-1.2.9l-1.8 1-1.3.6-.6.4-1.3.7-5 3-.8.6-1.3.6-5 2.8-.6.6q-.8 0-1.4.6l-5 2.8-5 3-.6.3-1.3.7q-3 1.5-5.4 3.6-1 .2-1.7.7l-5 2.7q-.2.3-.6.5-.8.1-1.4.7l-4.9 2.8-.7.5q-.8.1-1.3.7L207 368l-1.3.7-7 4.3-5 2.7-.7.5-1.3.8-3.9 2-1 1-1 .2-1 .8-4 2-1 1q-3 1.4-5.7 3.2-.8.2-1.3.8a31 31 0 0 0-5.1 2.7l-.6.6q-.8.1-1.5.7l-3.6 2-1.3.7q-2.9 1.5-5.5 3.6-.9.1-1.6.7l-5 2.7-.5.6-1.5.6-6.9 4a35 35 0 0 0-5 2.8q-2.8 1.5-5.5 3.5l-1.6.7-5 2.8-.6.6q-.8.2-1.4.6l-4.9 2.9-.8.5q-.8.2-1.3.7-1.6.4-1.5 2.2l-18.4-.1q0-.7.7-1 37.1-22.5 74-45.4 6-3.2 11.5-7 4.3-2.3 8.5-5a5 5 0 0 0 1.6-1.6c1.7-.1 4.4-1.5 5-3.2 2.3 0 5.4-2.2 7.1-3.9a4 4 0 0 0 3-2c.4.2 2.5-.3 1.5-1q-1.2 0-1.6 1-2.4-.3-2.9 2c-1.6-.5-4.5 2.2-6.1 2.8q-.7.5-1 1.1c-1.7.4-4.5 1.4-5 3.2q-1-.2-2 .3a67 67 0 0 0-9 5.6 168 168 0 0 0-12 6.6l-1.5 1.2q-38.3 21.7-76.5 43.9-1.6.9-2.8 2.2-8.7.3-17.4 0 0-.5.6-.8 29-17.5 57.9-35.3.5-.3.3-.9 2.3-.6 4.5-1.9l20.3-12.3q1-.6 1.6-1.8c1.8.2 4.2-1.3 5-2.9 1.9 0 4.2-1.4 5-3q1.4 0 2-1 2.1-.2 3-2a2 2 0 0 0 1.9-.7c-.6-1-1.7 0-1.9.7q-2.1 0-3 2-1.4-.2-2 1-3 .4-5 3a7 7 0 0 0-5 3c-2.4 0-7.8 4.1-10.4 5.2q-1 .9-1.9 2-1-.3-1.7.2l-13 7.6-63.2 36.4q-.8.4-.5 1.3-9.2.4-18.5 0l1-1q.8 0 1.5-.7l3-1.7q2-1.5 4-2.3l1-1q2-.9 3.6-2.2a3 3 0 0 0 1.4-.7l1.8-1 1.2-.8 5-3 3.5-2.5q.8-.2 1.5-.8a58 58 0 0 0 6.7-4l1.3-.7 3.5-2.5 1.5-.7q2-1 3.6-2.4.8 0 1.3-.7l1.9-1 1.2-.7q1.9-1.1 3.5-2.5.8-.2 1.4-.8a9 9 0 0 0 3.6-2.3l1.5-.6 3-1.8a21 21 0 0 1 4-2.3q.7-.4 1.1-1l3-1.7.7-.4 1.1-.8 3.1-1.8a78 78 0 0 1 6.8-4.2l1.2-.8.6-.6q.8 0 1.4-.6l3-1.8a41 41 0 0 1 5-3q1.9-1 3.5-2.6l1.6-.6 1.7-1 1.2-.8.8-.5a28 28 0 0 1 4.2-2.5q2-1.4 4-2.4l1-.8a47 47 0 0 0 6.8-4l1.2-.8q1.8-1.5 3.9-2.4l1-.7 3.8-2.5 1.3-.5q.7-.8 1.9-1.2l1.1-.7q1.7-1.4 3.8-2.3a210 210 0 0 1 15.9-9.8q.7-.3.7-1.2c3-2.8 13-8.4 17.3-10.2 5.5-1 13.8-.3 19.7-.5Z"/><path fill="#438de4" fill-opacity=".3" d="m254.3 119.3-1.2.8q.2-1 1.2-.8m120.6-.4q0 1.1-1.2.8zm-70 10q0 1-1.2.8zm76.4 9.4-1.2.8q.2-1 1.2-.8m86 157.6h.6q-.1.8-.9 1zm-329.4 67q-.2 1-1.2.8zm57 12q0 1.1-1.2.8zm-74.6 2.4-1.2.8q0-1.1 1.2-.8M67 403.9q0 1.1-1.2.8z"/><path fill="#fefeff" stroke="#fefeff" stroke-width=".5" d="m378.2 262.3-11 2.8q-.1-.6.4-1l6-3c1.3-.6 4.2-.6 4.6 1.2Zm19.1 4q-.4.6 0 1.3L381.5 284q-.4 1.2.8 1.1l29.6-17.8q8.1 0 16.2.4c-.8 1.8-6.6 5.5-8.4 6.8-1.2.6-1 2 .4 1.4l13.9-8.4c4.5-.8 10-1.1 13.3 2.5q-10.4 10.5-21.9 20c-.5 1 .7 1.4 1.5.7a482 482 0 0 1 25.1-14.8c3.2 5.6 3 16.4 2.5 22.7q-1 13.5-14.6 15.3l6.9-11.2q-.4-.5-1-.1l-20 12c-4.2.4-10-.5-14.2-.9 1.5-2.5 5.7-5.2 7.8-7.6q1.7-1.3 3.5-2.4 1.5-1.3-.4-1.2-2.5 1.1-4.6 3l-12.3 6.8q-.5.3-.5.8L390 312q3-3.7 6.7-6.9a388 388 0 0 1 16-14.1c.7-1.3-.9-1.4-1.6-.7L375 312a15 15 0 0 1-7.4-6.1c.5-2.2 3.3-2.5 4.2-4.6l-.3-.3q-2.5 1.4-5.3 2.3-2.4-6-2.3-12.3c1.7-1 4.7-4.9 6-6.6q-.5-.6-1.1-.2l-5 2.9q.3-8.4 3.8-16.1c2.4-2.1 6.5-3.1 9.7-3.3.8 1.6 3 .4 3.6-.7a62 62 0 0 1 16.4-.7Zm-331.1 1q-1.9.9-1.1 2.8a5 5 0 0 0-2.7 3.4q.3.5.9.2 5.5-3 10.7-6.5 8.1-.3 16.2.1L74 286.4l.3.3 33.7-19.4q8-.4 16 0c-5.3 5-12.2 10.8-18 15.1-.6.5-1.4 1-.5 1.6l29.4-16.6c4.5-.6 11.6-.4 16.2-.1l-14.1 12c-.9 1-3.7 2-3.9 3.3.7.6 2.1-.7 3-.8a923 923 0 0 1 25-14.4q8-.6 16-.1a330 330 0 0 1-22.3 20q-.6.4-.7 1.2.9.3 1.8-.3l36.1-20.9q8-.5 16.1 0c-1 2.7-9.6 6.6-9.9 8.2 1.5 1.3 3.3-1.6 4.8-2l11-6.1q8-.4 16-.3a8 8 0 0 1-2 2.2 85 85 0 0 1-10 7.3q-.6.3-.7.9c1.4 1.1 2.4-.7 3.6-1.4l15.2-8.8q8-.5 16 0c-.7 2-9 7.6-11.2 9.1q-1.7 1.5.4 1.3 9-5.2 17.7-10.5 8-.3 16.1 0-.3.8-1 1.5-6.2 5-12.8 9.7.4.4 1 .3 9.7-5.9 19.6-11.3 8.1-.4 16.2-.3-1.2 1.6-2.7 2.8-10.9 9.9-22 19.4.8.6 1.4 0 15.2-9 30.5-17.7.8-.5 1.7-.6c2.4 3 3.2 7.2 3.2 10.9-2.3.2-4.3 3.3-6.4 4.4-1 .6-1.1 2 .2 1.6a39 39 0 0 1 6.7-4c.6 9.2-1 19.2-2 28.4-.7 1.4-5.3.6-6.7.7q-.4-1.5-1.1 0H284q0-.5.5-1l5.3-5.5q-.9-.4-1.8.2-4.6 3-9.4 5.4-.5.3-.6 1l-17-.1c2.3-2.7 13.6-11.5 14.7-13.6l-.2-.4q-11 6-21.8 12.3-1 .6-1.7 1.6-8.5.3-17.1.2 10.8-10.5 21.9-20.7c-.5-.8-1.2 0-1.8.3-8.9 5.4-26.6 14.8-34.1 20.2q-8.5.3-17 0 .3-.8 1.1-1.4 5.7-4.6 11.7-8.9-.7-.6-1.7-.3-7.8 5.4-16.4 9.8-.5.3-.6 1l-17-.1q4.6-4.1 9.6-8c.7-.9 3.3-1.2 3.3-2.5q-.9-.6-1.9 0a301 301 0 0 1-16.4 9.6q-.5.3-.6.9h-16.9q5-5 11-8.5c1.6-1.2.3-1.9-1.1-1.2q-6.8 4.5-14 8.4-.6.5-1.1 1.2-8.5.3-17 .2.8-1.5 2.1-2.5l5.4-3.7 1.5-1.6q1.6-.6 2.8-1.6-.8-.6-1.7-.4-6.9 5-14.4 8.8-.5.3-.6.9h-17q.3-.8 1-1.4l22.7-20q-.7-.7-1.7-.2-17.2 10.5-34.8 20.2a2 2 0 0 0-1.2 1.4H83q0-.5.5-1 8.9-7 17.4-14.4a2 2 0 0 0-2 0c-6.8 5-15.7 10.1-23.3 13.7q-.5.2-.6.7-.9 0-1 1c-3.1.2-12.9 1-14-3 4.3-3.7 10.6-9.4 15.1-12.4 1.7-1 .5-2.4-1.1-1.2L57.9 306c-1.7-.7-1.8-11.3-1.6-13.1q4-4.9 8.2-9.5-.3-.3-.7-.2a44 44 0 0 1-7 3.7l.5-10.5-.2-8.8c1-1.1 7.5-.5 9-.4Z"/><path fill="#2a568a" fill-opacity=".1" stroke="#2a568a" stroke-opacity=".1" stroke-width=".5" d="M40.8 406.8q1 .2 1.3 1.2L26 417.6q-.4.3-.9.1-1.3 0-.8-1.5 8.3-4.5 16.4-9.4Z"/><path fill="#2a578f" fill-opacity=".1" stroke="#2a578f" stroke-opacity=".1" stroke-width=".5" d="M26.8 352.8q1 .2 1.2 1.2l-15 8.8q0-.7.3-1.5l1.6-1.7q6-3.2 11.9-6.9Z"/><path fill="#224771" fill-opacity=".1" stroke="#224771" stroke-opacity=".1" stroke-width=".5" d="M30.7 135.7q1.1.3 1.4 1.3c-1.1.5-3.8 3.2-5 2.6l-1.8.1q0-.8.6-1.1 2.6-1.3 4.8-2.9Zm291.3 258v1.3l-1.4 1q-.9-.1-1.6-1a7 7 0 0 1 3-1.3Zm61.8 9.1q1.2 0 1.2 1.2l-1.5 1q-.8-.3-1.5-1z"/><path fill="#256594" fill-opacity=".2" stroke="#256594" stroke-opacity=".2" stroke-width=".5" d="m493.7 191.3.2 1q-5.3 3.4-11 6.7l.3-1.3c1.4-1.9 8-5 10.5-6.4Z"/><path fill="#285587" fill-opacity=".1" stroke="#285587" stroke-opacity=".1" stroke-width=".5" d="M32.8 301.8q1 .1 1.3 1.2-1.4 1-3.3 1.1-.3 0-.5-.3 1-1.2 2.5-2Zm-1 48q1 .2 1.3 1.2-1.5 1-3.3 1l-.6-.3zm14 54q1 .1 1.3 1.2-1.6 1.2-3.4 1-.2 0-.5-.3 1.1-1 2.6-2Z"/><path fill="#2a598f" fill-opacity=".1" stroke="#2a598f" stroke-opacity=".1" stroke-width=".5" d="M195.7 419.7q1.2.2 1.4 1.3-2.4 1-4.3 2.9l-2.6-.1q0-.5.2-.8 2.7-1.5 5.3-3.3Z"/><path fill="#4f5153" d="M290 262h7.2l1.8.2c-.1 1.6-6.2.6-7.5.7q-.9-.2-1.6-.8"/><path fill="#2a4e7f" fill-opacity=".1" stroke="#2a4e7f" stroke-opacity=".1" stroke-width=".5" d="M179.8 338.8q1 .2 1.3 1.2-2 1-3.8 2.3l-1-.7-.3-.6q2-1 3.8-2.2Z"/><path fill="none" d="M130.8 383.9q1 0 1.3 1.1a21 21 0 0 1-4.5 1.9l-.6-.8z"/><path fill="#1e4b64" fill-opacity=".6" d="M493.7 208c1 0 5.5-.1 3.6 1.8q-1.2-1-2.7-1-.6-.2-.9-.8m3.6 1.8-.4.8h-.6q.2-.6 1-.8"/><path fill="#202e3e" fill-opacity=".1" stroke="#202e3e" stroke-opacity=".1" stroke-width=".5" d="M66.2 267.3q1.3-.2 2.6 0 0 .6-.5 1-1.2-.3-1.2.8l-2 1q-.8-2 1-2.8Z"/><path fill="#22476f" fill-opacity=".1" stroke="#22476f" stroke-opacity=".1" stroke-width=".5" d="M140.3 88.3q.7-.2 1.4 0c-.2.7-1.7 1.5-1.4 0ZM156 243.7v1.3l-1.5 1a3 3 0 0 1-1.5-1q1.5-1 3-1.4Z"/><path fill="none" d="M401.8 406.8q1.1.2 1.3 1.2l-1.5 1q-1 0-1.6-1z"/><path fill="#325479" fill-opacity=".5" stroke="#325479" stroke-opacity=".5" stroke-width=".5" d="m421.8 139.2.2.6-.1 1q-1.5.3-3-.2 1.4-.8 3-1.4Z"/><path fill="#293039" fill-opacity=".4" stroke="#293039" stroke-opacity=".4" stroke-width=".5" d="m465.3 424.8.8.5c-.3 1-2.1.7-2.9.4-.2-.9 1.6-.8 2.1-1Z"/><path fill="#224672" fill-opacity=".1" stroke="#224672" stroke-opacity=".1" stroke-width=".5" d="M427.7 424.7q-.8.4-1.4.1.3-1 1.3-1.1.5.3 0 1Z"/><path fill="#263944" fill-opacity=".3" stroke="#263944" stroke-opacity=".3" stroke-width=".5" d="m475.7 201.2 2.3-.3-.2 1q-1.2 0-2-.7Z"/><path fill="#21466f" fill-opacity=".1" stroke="#21466f" stroke-opacity=".1" stroke-width=".5" d="M439.3 208.3q.8-.2 1.5-.1-.5 1-1.8 1z"/><path fill="#365e8d" fill-opacity=".7" d="M506 411q-.3.8-1.1.9.3-.7 1-1"/><path fill="#2f4d70" fill-opacity=".4" d="M21.7 428.3q1-.2 1.6.5-1 .2-1.6-.5"/><path fill="#20648e" fill-opacity=".5" d="M44 198.7q0 1.3-1.3 1.3.5-.8 1.3-1.3"/><path fill="#21628e" fill-opacity=".5" d="M70 183.9q-.2 1-1.4 1a3 3 0 0 1 1.4-1"/><path fill="#2d3d50" fill-opacity=".5" stroke="#2d3d50" stroke-opacity=".5" stroke-width=".5" d="M261 139.8h1v.9l-2-.1q.4-.6 1-.8Z"/><path fill="#2f4662" fill-opacity=".6" d="m157 139.7 1.1.4-.2.7q-1.5.4-3-.4z"/><path fill="#2a3440" fill-opacity=".5" stroke="#2a3440" stroke-opacity=".5" stroke-width=".5" d="M25.3 139.7h1.8l-.2 1a23 23 0 0 1-4.8-.1q1.5-.9 3.2-.9Z"/><path fill="#0c4f60" fill-opacity=".4" stroke="#0c4f60" stroke-opacity=".4" stroke-width=".5" d="M16.8 172.3q.4-2 2.6-2.2c.5 1.2-1.6 2.2-2.6 2.2Z"/></svg>