<svg xmlns="http://www.w3.org/2000/svg" style="shape-rendering:geometricPrecision;text-rendering:geometricPrecision;image-rendering:optimizeQuality;fill-rule:evenodd;clip-rule:evenodd" viewBox="0 0 512 512"><path fill="#bfc2e0" stroke="#bfc2e0" stroke-width=".5" d="M232.8 105a6 6 0 0 0 3.2 3c-3 2.5-20.5 15.2-21 17.5-4.2-.2-10.1.5-14-.5 8.2-7 22.5-13.7 31.8-20Z"/><path fill="#bfc2e0" fill-opacity=".3" d="M236.8 39.1q.1-.7.8-1c1.1.5-.7 1-.8 1m85.9 101q0 1-1 1 .4-.7 1-1m9.7 1q-.6.5-1.3.6.3-.7 1.3-.6m62.6 6.8a4 4 0 0 1-3 2.2q.8-2.1 3-2.2m-88.6 8.1q-.5.7-1.2 1 0-1 1.2-1m-20.7 8q0 1.1-1 1zm40.6 0q-.6.7-1.4.7.5-.6 1.4-.6m-90.2 13a8 8 0 0 1-5.2 3 7 7 0 0 1 5.2-3m-130.2 29c.2 1.2-1.3 1-2 1q.7-1.2 2-1m120.1 7q-.5 1.3-2 1 .6-1.3 2-1m144 32c.1 1-1.3 1-2 1q.6-1.2 2-1m43 21c.5-1 2-2.6 3-1.5q-1.2 1.4-3 1.4m-299 31c-.9 1.6-3 3-5 3a8 8 0 0 1 5-3m177 27.9a3 3 0 0 1-2.8 2.1q.6-2 2.8-2.1m32 9.1q-.7 1-2 .9.5-1.3 2-1m-115 61c-.7 1.5-3.4 2.8-5.1 3 .6-1.6 3.5-3 5.1-3M398 431a4 4 0 0 1 2.5-2.1c1.3 1.3-1.7 1.7-2.5 2m-164 14a4 4 0 0 1-3 2 3 3 0 0 1 3-2m-21.7 52-.3.8-1.1.5q.2-1.2 1.4-1.2m26.1 0-.3 1-1.2.3q.3-1.2 1.5-1.4m89 4.3-.4-1.5q1.7-1.6 3.7-2.8.8-.2 1.1.4l-4 3zm-17.7 5.6 4.3-.2c.6 2-4.3 1.7-4.3.3M228.2 24.8c-.5.7-2 3-3 1.9a3 3 0 0 1 3-2m100.7 19.4q0-1 .8-1c1 .4-.5.8-.8 1m30 93.8q0 1-1.1.8zm12.4.3-1.3.7q.3-1.1 1.3-.7m-182.1 8.6c-.9 1.3-3.6 3.3-5.2 3 1.1-1.4 3.2-3 5.2-3m155.8.1q-.1 1-1.2.8zm-42 6q-.3 1.1-1.3.7zm42.3.3-1.3.7q.3-1.1 1.3-.7M266 177q0 1.2-1.2.8zm23 6q-.3 1-1.2.7zm42 100c.4-1.3 3.2-3.5 4.4-2.4-.3 1.4-3.1 2.3-4.4 2.4m-193 12c.1.8-3.6 2.4-4.4 3.1q-1.2.8-2.6.8.3-.7 1-1.2c2.2-1 3.4-3 6-2.8m-22 1q-.5 1.2-2 1 .7-1.3 2-1m5 21a7 7 0 0 1-5 3q2-2.5 5-3m121 28q-.9 2-3 2 .7-2 3-2m-32 65c-.8 1.6-3.3 2.9-5.1 3 .3-1.6 3.6-3 5.1-3m-89 80.4 1-.4a2 2 0 0 1-1 1.3z"/><path fill="#bfc2e0" fill-opacity=".4" d="M200.3 5.2q-1.4 0-2.7-.2c.5-1.3 2.3-1.1 2.7.2m26.8 48.9 1.2-.2q-.5 1-1.5 1.1zm99.2 84.2q-.7.6-1.7.7.7-.6 1.7-.7m-228.5 7.8a3 3 0 0 1 2.7-2c1.2 1-2 2-2.7 2m250.5-.9q-.6.8-1.6.7zm11-.2q-.5.6-1.2.7.3-.7 1.2-.7m-53 6.2q-.7.7-1.5.8.6-.6 1.4-.8m28 3.1q-.7.7-1.5.7.6-.6 1.5-.7m-1 5.7q-.4.6-1.2.8.3-1 1.3-.8m-27 12.2q-.7.7-1.6.7.7-.6 1.5-.7m-38 5.8q-.5.5-1.2.8.3-1 1.2-.8m99.6 11q-.6 1.2-2 1 .8-1.1 2-1m-180 8q-.7 2-2.8 2 .6-2 2.8-2M128 313c-.2 1.2-3.9 2.9-5 3q0-1 1-1.4c1.6-.2 2.3-2.1 4-1.5m160 14q-.5 1.3-2 1 .7-1.2 2-1m-44 17q-.6 1.3-2 1 .6-1.2 2-1m-31 64.1a4 4 0 0 1-3 1.8q.8-2 3-1.8M121 434q-.5 1.3-2 1 .8-1.2 2-1m115 10q-.5 1.3-2 1 .6-1.2 2-1m54 34.7-.4-.7q.5-.8 1.4-1.3c.8-.3 3.1-2.5 3.8-1.4q-1.4 1.5-3.2 2.8z"/><path fill="#bfc2e0" fill-opacity=".5" d="M255 39q0-.5.5-.8.2.6-.5.8m15.1-1.2q-1.2 1.4 0 0m-60 93.2h1.2q-.5.9-1.6 1zm-82.3 3q.1-.7.8-1c1 .6-.5 1-.8 1M390 151a4 4 0 0 1-3 2q.8-2.3 3-2m17 2c-.3 1.4-6.3 4.8-6.8 3.7 1.7-1.4 4.5-3.4 6.8-3.7m-85.7 14q-.6.6-1.4.7.5-.9 1.4-.7m-26 15q-.6.5-1.4.7.4-.9 1.4-.7M226 213q.8-2 2.6-2.2c1.6 1-2 1.8-2.6 2.2m145 6.8q-.4.8-1 1.4a6 6 0 0 1-4 1.7 7 7 0 0 1 5-3m37 49c0 .9-1.4 1.8-2 .8q.7-1 2-.8M206 350q-.7 2.3-3 1.9a4 4 0 0 1 3-1.9m86 141a4 4 0 0 1 2.6-2.1c1.5 1-2 2-2.7 2.1"/><path fill="#bfc2e0" fill-opacity=".4" d="M378.4 134q-.5.7-1.3.7.3-.8 1.3-.7M180 135.9a4 4 0 0 1-3 2q.9-1.8 3-2m159.2 1q-.6.6-1.3.8.3-.8 1.3-.7m-26 15.2q-.6.6-1.3.7.4-.7 1.3-.7m1 19q-.6.6-1.4.7.4-.9 1.4-.7m-45 4.2q-.7.8-1.6.6.7-.6 1.5-.6m22.5 5.6q0 1-1.1 1zm81.1 5.2a7 7 0 0 1-5 3c1-1.6 3.3-3.1 5-3m-91.7 4q-.5.6-1.1.7 0-1 1-.7m7.8 64c-1 1.5-3.1 3-5 3 1-1.6 3.1-3.2 5-3m-86 97.8c-.3 1.6-3.6 2.8-5 3.2.5-1.7 3.3-3.2 5-3.2m7 42q-.5 1.5-2 1.2.5-1.4 2-1.1m-37.8 40-.2 1-1.2-.2a2 2 0 0 1 1.4-.8m-53.2 1q-1 2-3 2.1.9-1.9 3-2M316 37.9a3 3 0 0 1-2.5 2.2c-.7-1.3 1.8-1.9 2.5-2.2m46.3 98.4a2 2 0 0 1-1.7.7q.7-.6 1.7-.7M320.4 148l-1.3.7q.2-1 1.3-.7m-26 14.9q-.6.5-1.4.7.4-.7 1.4-.7m-6.2 23q-.4.5-1 .8 0-.9 1-.7m-43.1 5a3 3 0 0 1-3.2 2 4 4 0 0 1 3.2-2m83.9 93q-.9 2-3 2a4 4 0 0 1 3-2m-213 12c.3-1.2 4.2-3.7 5-2.7-1.3 1-3.2 2.6-5 2.8m25-3a3 3 0 0 1-3 2 4 4 0 0 1 3-2m144 156-.3-1c.7-.8 4.3-3.9 5.2-2.7a26 26 0 0 1-5 3.7m59 24.1q.7-1.9 2.6-2.2c1.3 1-2 2-2.5 2.2"/><path fill="#a8acc5" fill-opacity=".2" d="M202.9 398q-.2.9-.9 1.3l-18 11.3q-.7.5-1.7.2-.5-.6-.2-1.4l18.9-10.8a3 3 0 0 1 1.9-.5"/><path fill="#bfc2df" fill-opacity=".2" d="M333.9 132.9q0 1-1.2.8zm42.4 2.4-1.2.8q0-1.2 1.2-.8M428 140l-.1 2c-3.6.5-7.6 5-10.9 5q.3-1 1-1.4 4.8-3.2 10-5.6m-131 16.8q-.1 1-1.2.8zm34.4 4.4-1.2.8q0-1.2 1.2-.8M87.1 167h.9a2 2 0 0 1-1.2 1.2zm198.2 1.3-1.2.8q.2-1 1.2-.8m98.9 10.4.5.4c-1.1 1.7-4.6 4-6.7 3.8 1-2 4.4-2.9 6.2-4.2M193 358a4 4 0 0 1-1.7 1.8l-.3-1q.8-1 2-.8"/><path fill="#bfc1df" fill-opacity=".3" d="m344.3 134.3-1.3.7q.3-1 1.3-.7M417 147a7 7 0 0 1-4.9 2.9 6 6 0 0 1 5-3m-78.6 10.2-1.2.7q0-1.1 1.2-.7M185.1 199c-1 1.7-3.3 2.8-5.2 3.1q1.8-2.9 5.2-3M333 327l.2 1.3c-1.5 1.3-5.3 3.8-7.3 3.7.5-1.6 5.7-3.7 7-5m-135 28.1a8 8 0 0 1-5 2.9 6 6 0 0 1 5-2.9"/><path fill="#bfc2e0" fill-opacity=".5" d="m304.1 131 1.3-.1q-.6 1-1.7 1zm93.8 3.3q.2-1.4 1.6-1.5c1.2 1-1 1.4-1.6 1.5M387 153q-.6 1.3-2.1 1 .6-1.2 2-1m-156.2 27c-.4 1-1.9 2.4-3 1.5q1-1.7 3-1.4m135 10a3 3 0 0 1-2.8 2 4 4 0 0 1 2.8-2m-178 7q.7-1 1.6-1c1.2.7-1 1.2-1.6 1m-82 9q.6-2 2.7-2c1.6 1-2.2 1.7-2.7 2m262 40c-1 1.5-3 3.2-5 3q2-2.5 5-3m-84 11c-.4 1-1.9 2.5-2.8 1.6q.8-1.9 2.8-1.6m-74 137c.4-1.1 2-3 3-1.6-.4 1.2-2 1-3 1.6"/><path fill="#babddc" fill-opacity=".2" d="M156.9 341c0 .9-2.3 2.1-2.9 2.7a469 469 0 0 0-16.9 10q-.7-.2-1-1 8.1-5 16.4-9.6 2.1-1.3 4.4-2.2"/><path fill="#bfc2e0" fill-opacity=".5" d="M132.9 174.2q.5-1.4 1.7-2 2.6-.2.5 1.3zm109 18.7c.1.9-1.2 1.8-1.8.8q.7-.9 1.8-.8M208 204q.7-1 1.6-1.6 2.5-.4.6 1.4a4 4 0 0 1-2.2.2m-77 107a3 3 0 0 1-3 2.2q.9-2 3-2.2m187 26c-.2.9-1.3 1.7-2 .8q.8-1 2-.7m-74 7.1q.5-1.2 1.7-1.8 2.4-.2.4 1.2zm-38 6q.3-1.2 1.5-1.1c1.3.8-1 1.3-1.5 1.1m84 52c-.5.7-2 3.1-3 1.7.3-1.2 2-1.4 3-1.8m87.2 28.9c-.6.9-2 2.7-3.2 1.7.2-1.5 2-1.6 3.2-1.8M124 432q-1 2-3 2a3 3 0 0 1 3-2"/><path fill="#bfc2e0" fill-opacity=".4" d="M352.4 149q-.5.7-1.4.7.5-.8 1.4-.7m39.7 1q-.6 1.4-2 1 .6-1.3 2-1m20 0c-1 1.6-3.2 3.1-5.2 3q2-2.5 5.1-3m-175 8a4 4 0 0 1-3 2q.6-2 3-2m40.6 32.1q.3 1.2-1 .7zM208 204a8 8 0 0 1-5.2 3.3q2-2.7 5.2-3.3m115 146.2a7 7 0 0 1-5 3c.8-1.6 3.2-3.2 5-3m-31 51q-.5 1.2-2 .8.5-1 2-.9"/><path fill="#bbbdda" fill-opacity=".2" d="M131 299a2 2 0 0 1-1 1.3l-16 9.7q0-1-1.2-1.2l16.2-9.4q1-.5 2-.5"/><path fill="#bdc2e0" fill-opacity=".3" d="m336 131 1.2-.2q-.3 1.2-1.5 1zm20 9q-.3 1.1-1.3.7zm-37.7 9.3-1.3.7q.3-1 1.3-.7M224 214c-1.8 2.5-7.3 5-10 6.9v-1.4c2-1.4 7.8-5.6 10-5.5m-115 86a7 7 0 0 1-5 3c.7-1.8 3.2-3 5-3m61.2 90.8-.4 1.1h-.7q.2-.8 1.1-1M326 500q-.2 1.1-1.3.8.6-.5 1.3-.7"/><path fill="#b7c0dc" fill-opacity=".2" d="M378.8 330q.3 1 1.3 1.4l-14.8 8.4-1.2.3q0-1 .8-1.5 7.2-4 13.9-8.6"/><path fill="#b7c0d8" fill-opacity=".2" d="M305.7 315.1q.5.9 1.4 1.4-.7-.1-1.5.4-6 4-12.5 7.7a3 3 0 0 1-2.2.3q7.2-5.2 14.8-9.8"/><path fill="#b9c2db" fill-opacity=".2" d="M166.8 450.9q0 .9-.8 1.5a210 210 0 0 0-13.7 8.6q-.4-1-1.4-1.4 7.2-3.9 14.1-8.1z"/><path fill="#bdc0d8" fill-opacity=".2" d="M239 347a2 2 0 0 1-1 1.2l-13.6 8.7q-.6-.9-1.5-1.3a267 267 0 0 0 14-8.4 4 4 0 0 1 2-.2"/><path fill="#b5bdda" fill-opacity=".2" d="M388.2 233.4q.3.3.8.3c-.1 1-2 1.7-2.7 2.3q-5.8 3-11.2 6.8-1 .3-2.2.2.3-.9 1-1.3 6.3-3.7 12.5-7.7z"/><path fill="#babed8" fill-opacity=".2" d="M156.2 366.3q-7.4 5-15.2 9.4-.2-.9-1-.7.3-.8 1.3-1.2 6.4-3.6 12.6-7.5a3 3 0 0 1 2.3 0"/><path fill="#bfc1e0" fill-opacity=".3" d="m325.3 145.3-1.3.7q.3-1 1.3-.7m74.8-.3q-1.9 2.8-5.1 3 2-2.5 5-3m-69 11q-.1 1-1.2.8zm-14 9q-.2 1-1.2.8zm2.3 3.3-1.2.7q0-1.1 1.2-.7m53.6 74.7a4 4 0 0 1-3 2 3 3 0 0 1 3-2m-42 40q-.5 1.3-2 1 .7-1.2 2-1m-5 49a3 3 0 0 1-2.9 2q.8-2 3-2M116 437c0 .7-1.2 1.7-1.8.8q.7-1 1.8-.8m176 54c.2 1-1.1 1.1-1.9 1.1q.5-1.5 2-1"/><path fill="#878ea1" fill-opacity=".1" d="M112.8 308.8q1 .2 1.3 1.2l-11.9 7.3q-.8-.7-1.2-1.6 6-3.3 11.8-6.9"/><path fill="#7b7e95" fill-opacity=".1" stroke="#7b7e95" stroke-opacity=".1" stroke-width=".5" d="m194 419.2.9.4a169 169 0 0 1-10.7 7q-1 .7-1.9 0l-.2-1.2q5.4-2.5 10.2-5.8.7-.6 1.6-.4Z"/><path fill="#d1d1e7" fill-opacity=".7" d="m70.3 56-.2 1q-.1.5-.7.8-6 3-11.3 7.6c-.2-2.6.6-2.3 2-4q2-.8 4-2l1.5-1.3q2.4-.9 4.7-2"/><path fill="#bfc2e1" fill-opacity=".4" d="M346.3 133.1q-.6.5-1.3.7.3-.8 1.3-.7m27 4-1.2.7q.3-.8 1.1-.8M309 149.1q-.5.8-1.4.8.6-.5 1.4-.8m31.2 6.8-1.3.8q.4-.8 1.3-.8M234 160c0 .9-1.4 1.7-2 .7q.8-1 2-.7m55.2 2.2q-.4.9-1.5.7.8-.6 1.5-.7m-17.1 11q-.4.9-1.4.7zm3.2.9q-.6.4-1.3.6.4-.7 1.3-.6m5.7 14q-.3 1-1.3.8zM93.2 235l1 .4-1.3.7q0-.6.3-1.1M411 267q-.8 2-3 2a4 4 0 0 1 3-2m-270 26q.5-1 1.5-1.1c1.2.7-1 1.3-1.5 1M213 408c.1-.7 1.3-1.7 1.9-.9a2 2 0 0 1-1.8.9M398 431c0 1-1.4 1.7-2 .6q.8-.9 2-.6"/><path fill="#b8bad8" fill-opacity=".2" d="M392.7 206.1q.3.9 1.4 1.2l-11 6.3q-1 .6-2.1.3.6-1 1.6-1.6z"/><path fill="#e1e1f8" fill-opacity=".3" d="m326.8 73.2.1.9c-.3 1-4.3 4.1-4.8 2.6a36 36 0 0 1 4.7-3.6M76 91a5 5 0 0 1-3 3l-.1-1.1a5 5 0 0 1 3-1.9m73.4 3.9-.5-1.3c1-.5 4.2-3.6 5-2.2a31 31 0 0 1-4.5 3.5"/><path fill="#bec3e0" fill-opacity=".4" d="M376 217q-1 1.8-3 2.6-1 .6-2 .4 1.9-2.5 5-3m37 49q-.5 1.3-2 1 .6-1.2 2-1m-45 156q-.4.8-1 1.3a5 5 0 0 1-4 1.6c1-1.4 3.1-3 5-3m-39 84.8q2 .1 4-.1c.4 2-4.3 2-4 .1"/><path fill="#bbc4e3" fill-opacity=".2" d="m154.1 310.2-.6.8q-5.2 3-10.5 6.4-1 .6-1.1-.6.7-.9 1.7-1.6 4.3-2.1 8.4-4.8 1-.5 2.1-.2"/><path fill="#adafcb" fill-opacity=".2" d="M237.8 275.1q0 .9-.8 1.3l-8.7 5.4a2 2 0 0 0-1.4-1.2q4.8-2.3 9-5.2.9-.4 1.9-.3"/><path fill="#c7c9e4" fill-opacity=".2" d="M204.9 413q0 .9-.9 1.3-3.8 2.2-7.4 4.7-.9.5-1.7.6l-1-.4q.5-1 1.4-1.5l7.6-4.3q1-.5 2-.4"/><path fill="#83859a" fill-opacity=".2" stroke="#83859a" stroke-opacity=".2" stroke-width=".5" d="M286.9 494q0 1-.9 1.4l-6.3 4.3H276l9-5.3q.9-.4 1.9-.3Z"/><path fill="#b0bad5" fill-opacity=".2" d="M305.3 392.3q0 1 .8 1l-9.6 5.6H295c.2-1.2 7.2-4.7 8.4-6q.9-.5 1.9-.6"/><path fill="#c1c5e3" fill-opacity=".2" d="M298.8 247q.4 1.1 1.6 1c-2.5 1.3-9 5.9-11.4 6q.4-.8 1-1.3z"/><path fill="#919ab2" fill-opacity=".2" stroke="#919ab2" stroke-opacity=".2" stroke-width=".5" d="M352.7 380.2q0 1 1 1.4-4.2 2.6-8.7 5-.8.6-1.7.2v-.6z"/><path fill="#b8bad4" fill-opacity=".2" d="m248 418.3-9.8 6.5q-.3-.9-1.3-1.2 4.7-2.5 9-5.2 1-.5 2.1-.1"/><path fill="#d9d9f4" fill-opacity=".2" d="M211 103c-2 3.2-6.7 4.9-10 7v-1.2a80 80 0 0 1 7.3-4.8z"/><path fill="#aabdd5" fill-opacity=".2" d="m222.7 451.2.2 1c-.8 1.8-4.9 3.3-6.5 4.6q-.6-.7-1.5-1.2z"/><path fill="#a9aabc" fill-opacity=".2" d="M121.6 109.3q.3 1 1.5.8l-8 5q-.2-1.2-1.4-1.4z"/><path fill="#c0c1e0" fill-opacity=".3" d="M342 149q-.3 1-1.3.7zm-99.9 5.8a7 7 0 0 1-5 3.2c.3-1.5 3.5-3 5-3.2m50.2 9.5-1.2.8q0-1 1.2-.8m20 8-1.2.7q.2-1 1.2-.7M110 173q-.6 1.2-1.8 2l-.4-1.2q.9-1 2.2-.8m176.3 14.3-1.3.7q.2-1.1 1.3-.7m137 2.6-.3 1-1 .1q.3-.8 1.2-1"/><path fill="#9799b5" fill-opacity=".2" d="M393 173.2q0 .8.8 1.4c-2.3 1-6.6 4.5-9 4.5l-.6-.4q4.2-3 8.9-5.5"/><path fill="#bdc0e2" fill-opacity=".3" d="M283 467q-.3.9-1 1.3l-5.4 3.8-1.7.6-1-.5q.5-1 1.4-1.4c2.1-.8 5.6-4 7.7-3.8"/><path fill="#adb9d4" fill-opacity=".2" d="m289.7 478 .3.7q-3.7 2.9-7.8 5.1-.3-.9-1.3-1.2a49 49 0 0 1 8.7-4.6"/><path fill="#d1d4f0" fill-opacity=".3" d="M339 67q-.4.8-1 1.3l-7.8 4.7-.5-1c1.9-1.5 7-5.1 9.2-5"/><path fill="#adb8d3" fill-opacity=".2" d="M284.7 448q0 .6.3 1l-7.8 4.7a2 2 0 0 0-1.3-1c2-.9 7-4.6 8.8-4.6"/><path fill="#b6b9d2" fill-opacity=".2" d="m189.7 359.2.1 1c.1 1-5.8 4-6.8 4.8q0-1-1-.8a2 2 0 0 1 1.3-1.4z"/><path fill="#9ea1b8" fill-opacity=".8" d="M197.6 5q1.4.3 2.7.2l-5 1.9q-.9.1-1.7-.4 1.8-1.5 4-1.6m-4 1.7q0 1.5-1.4 1.6 0-1.4 1.4-1.6m-1.4 1.6q-1 .8-2 1c-.5-1.5 1.2-1.3 2-1m-2 1-1.3.5q.4-.6 1.2-.5"/><path fill="#e1e1f9" fill-opacity=".3" d="M437 73c-.3 1-2 2.8-2.8 1.7A3 3 0 0 1 437 73M126 85v1.3q-1.2 1.4-3 1.6a5 5 0 0 1 3-3m243 7a3 3 0 0 1-1.9 1.8l-.3-1a2 2 0 0 1 2.2-.8"/><path fill="#bfc2e0" fill-opacity=".4" d="M329.2 136.3a2 2 0 0 1-1.6.7q.7-.6 1.6-.7m37.2 4.8q-.6.5-1.3.7.3-1 1.3-.8m-65.1 18q-.6.5-1.3.6.4-.7 1.3-.6m8 11q-.6.9-1.7.9.7-.6 1.7-.8m-14 9.1q-.6.8-1.6.8.7-.5 1.6-.8M415 280.8q0 .6-.4 1.2l-1-.4q.6-.6 1.5-.8M326 286c0 .8-1.3 1.7-1.9.7q.6-1 1.9-.7m-5 49a4 4 0 0 1-3 2q.9-2 3-2"/><path fill="#9b9bb5" fill-opacity=".1" d="m110 116-.2 1.2-.8 1.2q-3 1.6-6 3.6l-.2-1c.4-1.9 3.8-2.8 5.3-3.5z"/><path fill="#bec3e1" fill-opacity=".2" d="m300 12.2 1-.4q0 1-1.3 1.2zm37.3 126-1.2.9q0-1 1.2-.8M300 176q-.2 1-1.2.8zm-14 9q0 1.3-1.2.8zM116 320c-.6 1.9-3 3-4.8 3.2.3-1.7 3.3-3 4.8-3.1"/><path fill="#babacd" fill-opacity=".8" d="M353.3 49q-2.9-.5-5.7-.3a1 1 0 0 1-.5-1c1.9-.8 5.3-1.1 6.2 1.3"/><path fill="#9498ae" fill-opacity=".1" d="m274 472.2 1 .5-4.7 3q0-1-1-1.3 2.1-1.5 4.6-2.2"/><path fill="#bec1e0" fill-opacity=".2" d="m311.3 153.3-1.2.8q0-1.2 1.2-.8m-6 23-1.2.8q0-1.1 1.2-.8M344.1 473a6 6 0 0 1-1.8 1.8l-.4-1q.8-1.1 2.2-.8m-54 19q-1 2-3.2 2 .9-2.1 3.1-2"/><path fill="#5f6070" fill-opacity=".1" d="M214 219.6v1.4l-1.6 1q-.9 0-1.4-1zM374.5 417q.8.2 1.5 1-1.4.9-3.2 1.4.2-1.7 1.7-2.4"/><path fill="none" d="m222.9 12.2 2.4.6a23 23 0 0 1-5.2 2.5L220 14q1.4-1 2.9-1.8"/><path fill="#7b7b86" d="m67.2 130.6-.9.3q-2.9-.3-5.7 0-.5 0-.8-.3 3.7-1.2 7.4 0"/><path fill="#82828e" d="m158.7 48.3 2.2-.6q2 1 4.2.5l.8-.2c0 1.6-4.5.4-5.5.8z"/><path fill="#bfc1e1" fill-opacity=".3" d="M320 142q-.2 1-1.2.8zm-205.2 10c.4-.7 2.2-2.8 3-1.7-.2 1.4-2 1.5-3 1.8M245 191q.5-1 1.5-1c1.2.7-1 1.2-1.5 1"/><path fill="#787887" fill-opacity=".1" d="M113.7 113.7q1.1.2 1.3 1.3-2.4 1.5-5.2 2.2l.2-1.2q2-1 3.7-2.3"/><path fill="#6f6f79" d="M396 48.2h7c-1 1.2-3.2.7-4.5.9q-1.5 0-2.5-.9"/><path fill="#898996" fill-opacity=".9" d="m371.8 48.5 1.2-.1q2.7.2 5.4-.4.5 0 .8.3c-2 1.3-5.3.7-7.4.2"/><path fill="#9fa1ba" fill-opacity=".1" d="M318.6 35q-.2 1.6 1.5 1.4a7 7 0 0 1-4 1.5 9 9 0 0 1 2.5-3"/><path fill="#bcbcd0" fill-opacity=".2" d="M116.7 71.2q0 1.2 1 1.4-1.5 1.5-3.6 1.2.8-1.7 2.6-2.6"/><path fill="#9ca4bb" fill-opacity=".1" d="M252 41a8 8 0 0 1-2.6 3q.2-1.6-1.5-1.5 1.8-1.4 4-1.5"/><path fill="#bdc0df" fill-opacity=".3" stroke="#bdc0df" stroke-opacity=".3" stroke-width=".5" d="m183.2 47.8-.3-.5c.7-.9 3-2.7 4-2q-1.3 2.2-3.7 2.5Z"/><path fill="#bfc1e2" fill-opacity=".2" d="m350.3 150.3-1.2.8q.2-1 1.2-.8m-11.4.6q0 1-1.2.8zM226 450q-.6 1.2-1.7 2l-.3-1.3q.8-1 2-.7"/><path fill="#e2e2f9" fill-opacity=".5" d="M402 48.2h-5c-.6-1.9 5.5-1.9 5 0"/><path fill="#8e90a4" fill-opacity=".9" d="m252 464.2 4.1-.1c0 1-2.2 1.5-3 2q-.2-1.2-1-1.9"/><path fill="#e1e1fa" fill-opacity=".5" d="M378.4 48q-2.7.6-5.4.4c-.2-2.3 5-1.7 5.4-.4"/><path fill="#9292a0" fill-opacity=".7" d="M138.2 48h-5.3c.2-1.6 5.2-1.5 5.3 0"/><path fill="#bfc1e0" fill-opacity=".3" d="M255 39a4 4 0 0 1-3 2q.9-2 3-2m45.3 140.3-1.3.7q.3-1.1 1.3-.7"/><path fill="#bec3df" fill-opacity=".3" d="m299.3 160.3-1.3.7q.2-1.1 1.3-.7M283 166q-.1 1-1.2.8zm-182 43c-.3.7-2 2.7-2.2.8q.8-1 2.3-.8"/><path fill="#e1e1f9" fill-opacity=".7" d="M60.6 130.9q3-.3 5.7 0c0 1.5-5.3 1.6-5.7 0"/><path fill="#c2c6dd" fill-opacity=".2" d="M220 14v1.3a3 3 0 0 1-3 1.8 7 7 0 0 1 3-3.1"/><path fill="#e0e0f8" fill-opacity=".3" d="m87 56 1-.2q0 1-1.2 1zm304 30.8c-.3.9-2 3.1-2.9 1.9a3 3 0 0 1 3-1.9"/><path fill="#c9c9de" fill-opacity=".7" d="M120.2 47.3v.5l-4.5.3c.5-1.8 3.2-1.1 4.5-.8"/><path fill="#bdc1de" fill-opacity=".2" d="m357.3 146.3-1.2.8q0-1.2 1.2-.8M328 157.9q0 1-1.2.8zm-48 10q0 1-1.2.8zm-13.6 11.4-1.2.8q0-1.2 1.2-.8"/><path fill="#7f9eb3" fill-opacity=".1" stroke="#7f9eb3" stroke-opacity=".1" stroke-width=".5" d="M182 364.2q1 0 1 .8-1.2 1-2.8.8v-.6a4 4 0 0 1 1.9-1Z"/><path fill="#6a6b77" fill-opacity=".6" d="M188 130.3q1.7-.2 3.1.4-1.6.3-2.8 1.2l-.4-1z"/><path fill="#7e7f90" fill-opacity=".5" d="M279.8 507h4.3c0 1.4-3.9 1.6-4.4 0"/><path fill="#c0c3e1" fill-opacity=".3" d="m280.3 171.3-1.3.7q.3-1 1.3-.7M303 174q-.1 1.1-1.3.7zM123 316q-.5 1.2-2 1 .6-1.2 2-1"/><path fill="#5f626f" fill-opacity=".1" d="M242.6 172q.8.3 1.4 1-1.4.8-3.2 1.4.1-1.7 1.8-2.4"/><path fill="#6b6c78" fill-opacity=".5" stroke="#6b6c78" stroke-opacity=".5" stroke-width=".5" d="M182.9 47.3q0 .3.3.5l-.3.9H180q1.3-1.1 2.9-1.4Z"/><path fill="#8a96a5" fill-opacity=".1" d="M272.9 193.7q-.1 2.4-2.6 2.2c-.4-1.5 1.6-1.8 2.6-2.2"/><path fill="#e1e1f9" fill-opacity=".6" d="M165.1 48.2q-2.3.5-4.2-.5c0-1 4.4-1.4 4.2.5"/><path fill="#6d6e7c" fill-opacity=".6" d="M80.4 210.7q1 2.2.7 4.6c-1.8-.2-1-3.5-.7-4.6"/><path fill="none" d="M362.5 66q.8.3 1.5 1-1.5 1-3.2 1.4a3 3 0 0 1 1.7-2.4"/><path fill="#e1e1fa" fill-opacity=".3" d="M258 91q-.6 1.2-1.8 2l-.4-1.3q.8-1 2.3-.7"/><path fill="#898b9e" fill-opacity=".5" d="m81.8 222.7.3 3.5a1 1 0 0 1-.9-.6q-.6-1.6.6-2.9"/><path fill="#e1e1f9" fill-opacity=".3" d="m278.8 86 .3 1.2a2 2 0 0 1-2.1.7q.6-1.2 1.8-1.9"/><path fill="#8b8ea2" fill-opacity=".6" d="M82.5 232.7q.6 1.8.5 3.6c-1.4 0-1-2.8-.5-3.6"/><path fill="#e1e1f9" fill-opacity=".2" d="M332 96q-.6 1.3-1.8 2l-.2-1.1q.5-1.1 2-1"/><path fill="#bec3e1" fill-opacity=".2" d="M366.9 132.9q0 1.2-1.2.8zm-36.5 9.4-1.3.8q0-1.2 1.3-.8m-53.5 27.6q0 1-1.2.8z"/><path fill="#9fa2b9" fill-opacity=".5" stroke="#9fa2b9" stroke-opacity=".5" stroke-width=".5" d="m252.4 167.9-1.2 1.5q-.1-1.4 1.2-1.5Zm-1.2 1.5q-.6.4-1.4.4l-.5-.2c-.5-1 1.5-.3 2-.2Z"/><path fill="#bcc2df" fill-opacity=".1" stroke="#bcc2df" stroke-opacity=".1" stroke-width=".5" d="M84 248q0 1.5.3 3.1c-1.8 0-2-3-.3-3.1Z"/><path fill="#686977" fill-opacity=".7" d="M85 266c1.4 0 1 2.5 1 3.3-1.3-.4-1-2.3-1-3.3"/><path fill="#9699af" fill-opacity=".6" stroke="#9699af" stroke-opacity=".6" stroke-width=".5" d="M185.2 12.3q-.8 1-2 1.6v-1c-.4-1.2 1.5-1 2-.6Z"/><path fill="#e1e1f8" fill-opacity=".2" d="m438.7 71 .3 1.1q-.5 1.2-2 1 .6-1.4 1.7-2"/><path fill="#61636e" fill-opacity=".6" d="M149.7 507q1.8-.3 3.5.6c-1 .4-3.4.9-3.5-.7"/><path fill="#b9bcd8" fill-opacity=".4" stroke="#b9bcd8" stroke-opacity=".4" stroke-width=".5" d="m362.7 506.9 3.6.2c-.4 1.5-3 1.2-3.6-.2Z"/><path fill="#60616d" fill-opacity=".3" stroke="#60616d" stroke-opacity=".3" stroke-width=".5" d="m100.3 316.2.7-.5q.5.9 1.2 1.6l-1.5.5q-.6-.7-.4-1.6Z"/><path fill="#c0c0e2" fill-opacity=".2" d="M317 144q-.3 1-1.3.7zm-3 23q-.3 1-1.3.7z"/><path fill="#e2e2fa" fill-opacity=".4" d="m379 53.1 1.2-.3-.8 1.3zm-16.8 31.7c-.2.2-.6 1.2-1 .5q.4-.4 1-.4"/><path fill="#8a8c9f" fill-opacity=".8" d="M254.6 167c.6 1-1 1.1-1.6 1.2q0-1.5 1.6-1.2"/><path fill="#c0c3df" fill-opacity=".4" d="M320.1 163.3q-.5.7-1.3.7.5-.6 1.3-.7m-12.8 11.8-1.3.7q.4-.9 1.3-.7"/><path fill="#d7d7f2" fill-opacity=".3" d="m328.8 72 .2 1.2a1 1 0 0 1-.8.7q0-.6-.3-1 .3-.7 1-.9"/><path fill="#bfc3e1" fill-opacity=".3" d="M300 155q-.1 1.1-1.3.7zm-6.7 28.3-1.3.7q.3-1 1.3-.7"/><path fill="#bfc3df" fill-opacity=".3" d="m364.3 142.3-1.3.7q.3-1.1 1.3-.7m-91 33-1.3.7q.3-1 1.3-.7"/><path fill="#737684" fill-opacity=".4" stroke="#737684" stroke-opacity=".4" stroke-width=".5" d="m340 503 .2.6H339z"/><path fill="#e1e1fa" fill-opacity=".4" d="m295.3 124-.3 1-1.2.2q.4-1 1.5-1.1"/><path fill="#9ea1b6" fill-opacity=".3" stroke="#9ea1b6" stroke-opacity=".3" stroke-width=".5" d="m186.3 11-1.1 1.3q0-1.2 1.1-1.3Z"/><path fill="#7e8091" fill-opacity=".6" d="M188.2 10.2q-.4.7-1.2 1 0-1 1.2-1"/><path fill="#b5b9d4" fill-opacity=".6" stroke="#b5b9d4" stroke-opacity=".6" stroke-width=".5" d="M181.9 13.8q0 1-1 1.4 0-.8 1-1.4Z"/><path fill="#bfc3e0" fill-opacity=".5" d="m114 464 1.2.3-1.4.9q0-.6.3-1.1"/><path fill="#5e606b" fill-opacity=".6" d="M418.5 242.8q.1.8-.4 1.4 0-.8.4-1.4"/><path fill="#5e616b" fill-opacity=".3" stroke="#5e616b" stroke-opacity=".3" stroke-width=".5" d="m262.3 200.2.6-.3q0 .7-.6 1z"/><path fill="#e3e3f8" fill-opacity=".1" d="m360.2 55.6-1 .5q0-1 1-.5"/><path fill="#626269" fill-opacity=".4" d="M89.2 55.1q-.5.6-1.2.7.5-.6 1.2-.7"/><path fill="#c0c3e1" fill-opacity=".4" d="m287.3 167-1.2.9q.1-1 1.2-.9"/><path fill="#b6b8d5" fill-opacity=".5" stroke="#b6b8d5" stroke-opacity=".5" stroke-width=".5" d="m261.3 498-.4.7-1.3.3q.6-1 1.7-1Z"/><path fill="#777a89" fill-opacity=".8" d="M148.6 500.1q0 .9-.8.3.5 0 .8-.3"/><path fill="#bbbfdc" fill-opacity=".5" stroke="#bbbfdc" stroke-opacity=".5" stroke-width=".5" d="M183.2 12.9v1h-1.3q.4-1 1.3-1Z"/><path fill="#82828f" fill-opacity=".4" d="M120.2 47.3q.7 0 1 .6l-1-.1z"/><path fill="#ddddf7" fill-opacity=".1" stroke="#ddddf7" stroke-opacity=".1" stroke-width=".5" d="M188 131q0 .5.3.8-1.8 0-.4-.8Z"/><path fill="#272727" stroke="#272727" stroke-width=".5" d="M347 47.8q0 .6.6.9 3 0 5.7.3l18.5-.5c2.1.5 5.5 1.1 7.4-.2q8.4.3 16.8 0 1 1 2.5.8c1.3-.2 3.5.3 4.5-.8 17.8.7 32-3.4 46.3 10a64 64 0 0 1 19.6 49.2q-3 23.4-26.5 23.1-1.5.3-1.5 1.9-15.1 168-30.7 336c1.1 26.8-19 39.7-43.9 38.6l-3.6-.2H334c-.3-1.4-5.6-1.3-6 0l-14-.2q-2.1 0-4.3.3h-30c-42.3.8-84.2 3.4-126.5.6q-1.6-.9-3.5-.7c-6 .3-13.2-2.5-18.5-2.8-1-1.4-7.3-2.3-9-4.1q-4.7-2.2-8.9-5.2-3-2.7-5-6.1c-12.4-12-14.1-51.6-15.1-68.2-2-50.4-4-100.8-7.2-151.2 0-.8.4-3.3-1-3.3a117 117 0 0 0-1-18 413 413 0 0 0-2-21.8l-.2-3.5a27 27 0 0 1-.7-7.4q.3-2.4-.7-4.6a2163 2163 0 0 0-9.4-78.2c.1-2.2-2.3-2-3.8-1.9q-3.8-1.2-7.5 0c-17.2-1.3-15.4-11.8-16-26.1a49 49 0 0 1 14.4-39q5.3-4.5 11.3-7.7.5-.3.6-.9 1 0 2-.3A76 76 0 0 1 89.4 51q13-2.6 26.4-2.9 2.3 0 4.4-.3l1 .1a184 184 0 0 1 17 0q10.5 0 20.6.4l1.7.5c1-.4 5.6.8 5.5-.8 1.2-12 6.7-24 15-32.8q1-.3 1-1.4h1.3q1-.5 2-1.5l1.1-1.3.7.3q.8-.5 1.2-1.1l.7-.4 1.2-.5q1.2-.2 2.1-1 1.5 0 1.4-1.6.8.4 1.7.4l5-1.9c31.2-7.1 64.4 3.2 96.2-2 34.2-3.7 41 17.3 50.6 44.6ZM202.8 13.2q-1-.2-1.7.6c-16.3 4.5-16.3 20.3-22.5 33.2q-.6 2.1 1.5 1.7H209c8.7-.1 21.8.4 30-.4q.8.9 2 .5l91.4-.1q.7-.3.7-1.2a167 167 0 0 0-4.6-14.3q-.3-1-1.2-1.3 0-1.5-.9-3c-3.6-6.6-8-12.4-15.4-14.9q-4.7-1.8-9.8-2.2l-1 .4q-9.7-.4-19.5.8c-4.8.5-9.3 1.3-14.3 1q-9.2 0-18.3-1.2l-5.6.2c-1.2-1.4-12-1-14.5-1.6a85 85 0 0 0-25.2 1.8ZM89.2 55q-.8.1-1.2.7l-1 .3c-23 4.4-31.2 23.5-30.6 45.2q0 .4.4.6-.4 1.5 0 3.1.1 6.2.8 12.2.4 4.4 4.2 6.8c8.6 1.8 23.8 1 33.2 1.4h61q9 .3 18-.4h1l1-.1q3 .8 6 .6 9.4 0 19-.5c3.9 1 9.8.4 14 .5h50l23.3-.5q2.8.8 5.5.2l1.2-.2q10.5.3 21 .2 5.2.5 10.7 0a6934 6934 0 0 0 99.3.2h5q8.7.3 17.3-.4 2.5.9 5.1 0c1-1 .5-2.3.7-3.6 3.9-20.6 1.8-49.8-20.2-59.5-.8-1.6-5.2-3.2-7-3a1 1 0 0 0-.5-.8 65 65 0 0 0-13.5-3.3q-4.8-1-9.7-1.1c-4.8-1-11.3-.5-16.4-.8l-6.6-.1-1.1.3a221 221 0 0 0-25.8.8c-5.5-1.7-11.9 3-16.1.8-2.7-1.8-13.5-.5-17.2-.9h-91.7l-1.2.3q-5.6-.4-11-.3h-34a38 38 0 0 0-7.3.4l-.7.5-2 .7q-3 .2-6.1-.5-.5-1-1.5-1l-16.6-.2c-2.4.3-6.8-.8-9 .2q-.5-.7-1.5-.6a779 779 0 0 0-31.7-.2q-8.3.5-16.5 2Zm-4 98 .8 2.7c0 3.4-.1 8 1 11.2l-.2 1.2.4 5.7q1 5.6 1 11.2l.4 2 .6 9.4q0 1.2.9 1.8-.4 2.2-.4 4.6l3.5 32.1q0 .5-.4 1.1.4 2.4.4 4.8a78 78 0 0 1 1 10.3q.6 3.2.8 6.6.3 5.2 1 10.6 0 3.8.8 7.5c.2 2-.2 9.4 1.3 10.5-.8 1.1.2 6.8 0 8.5q1.4 10.6 2.2 21.3-.2.9.4 1.6c.3 2.9 1 20 2 21.4q-.3 1 0 2c.4 1.7 0 9.9 1 10.6q.1 4.1.5 8.2.7 5.5 1 11.2 0 1 .6 1.7 0 5.1.5 10.3v.7q.7 5 1 10.3 0 1 .6 1.7-.2 5.3.6 10.4l.5 4.5q0 5.1.7 10.1c.5 1.2.1 7.7 1 8l1.5 21.2q.6 2.2.8 4.6-.1 4.8 1 9.4l-.2 1q-.8 3-.5 5.9.5 5.1 2 10l.9 1.9c.8 2.5 2.5 6 4.8 7.5v.9c1.5 1.2 4.7 5 6.7 4.5 1.1 2.7 8.7 4.5 11.4 4.3q0 .5.6.6 4 .6 8-.3 1 .6 1-.3 10.3 0 20.5-1 4.8 0 9.5-.2 10.2-.2 20.6-.9l11.6.3 1.1-.5a479 479 0 0 0 24.9.5l1.2-.3q7.8.6 15.9.7l5.6.3 1.3-.3 18.9 1q8.1.8 16.3 1.2 6 .3 11.6 1l18 .9c4.1.4 9.2 1.1 13.3.8h1.2q1.5.4 2.8.4 8.5 0 16.9-.2c33.2-2.1 37.7-29.8 41.1-57.2q1-2.6 1-5.3 1.4-12.7 2.1-25.6.6-1.8.8-3.6a100 100 0 0 1 1-14.8 187 187 0 0 1 1.4-18.2q.6-6.2.7-12.5.1-2.8.7-5.5l.5-11.5q.6-2.7.7-5.4 0-5.7 1-11.3-.1-4 .4-8a125 125 0 0 0 .9-14.7c1.3-3.7.6-8.4 1.6-12.3q0-2.5.4-4.9c-.2-3.3 1.3-8 .5-11l.5-1.2q0-2.4.7-4.8.5-12 2-24.1c0-1.8.8-6.2.2-7.7q.6-.6.4-1.4.5-5.5 1.4-11l.1-4.5a161 161 0 0 0 1.1-14.1q1.5-11.2 1.9-22.3l.2-1q.6-1 0-1.8c1.3-3 .9-8.7 1.7-12.2l.4-7.9a340 340 0 0 0 2.6-28l.9-8.4c-.5-1.8-3.9-.4-5.1-.3q-1.2 0-2.3-.3c-12.3-1-27-.3-39.4-.3q-4.3-.3-8.6 0-12.8-.3-25.4 0-5.4-.3-10.8 0l-1.1.2c-6.6-.8-14.4-.1-21-.2q-5-.4-9.7.2h-1.3c-6.6-1-14.4 0-21.2-.2q-2.8-.3-5.7.2c-20.4-.8-42.7-.2-63.3-.3q-1.4 0-2.6.3H210a309 309 0 0 0-19-.2q-1.5-.7-3-.4l-25.2.7h-1.2q0-1.1-1.2-.7-38.2.3-76.6.4-.5.2-.5.7 1.1 10.8 1.9 21.7Zm169.4 14q3.6-.2 6.7 1c1 1.9.7 9.4 1 12v20.7l-.4 260.3c-1 1.8-3.8 2.8-5.8 3l-4 .1q-1.5-.5-1.9-1.8-.6-5-.4-10.1V418a46302 46302 0 0 0 0-248.2q.8 0 1.4-.4l1.2-1.5.6.3c.5 0 2.2-.2 1.6-1.2Zm99.3 45.1-.7 4.7-2.7 48.1v6.2a217 217 0 0 0-1.4 17q0 1.4-.4 2.8l-1.1 26.9h.2q0 1 1.2 1.1c-3 1.3-1.6 11-2.5 14q-.2.9.7 1.4-1 .9-1.1 2.4c.3 3.4-.8 10.3 0 13.2-1.5 3.3-1.1 12.4-1.2 16.3q-.7 2.2-.7 4.5-.1 7.7-1 15.4v.6q0 8.2-1 16.3l-.9 17.2q.7.8 1.7.4l-1.6 3q-1.2 18.8-3 37.4c-1.6 3.1-8.7 4.8-11.2 2.2q-.3-7.3.1-14.6l3.8-70q.8-1.5.3-3c1.4-15.8 2-31.8 2.7-47.7v-1c1.2-8 1.4-19 1.9-27.3l.2-2.7q2.3-36 4-72 .6-2 .6-3.9l2.7-46.2c.4-3.5.4-6.2 4.4-7.4 1.7-.4 7.1-1.2 7.7 1.2.3 14-1.5 29.3-1.7 43.5Zm-181.8 12.1v2.6q1 8.1 1 16.2 0 1.5.6 3.1a3684 3684 0 0 0 3.6 67.7l3 51.3v.6c-.4 4.5-.2 10 .4 14.4l.1 3.5c.4 6.8 0 19.6 1.3 25.7q-.3.8.2 1.4c-1.1 3.5-.3 10.7-.2 14.6l.2 1.3q-.5 14.2-.4 28.6-1 2.8-1.2 5.7 0 1.5-1.6 1.6l-1.8-3.8-2.6-11-.6-.6c0-3.8-1-8.6-2-12.2l.1-1.1q0-1-.3-1.7c-1.4-4.7-.5-8.8-.8-13.5l.2-1.6q-.2-12.6-1.5-25l.4-1.1c0-.8-.6-4-1.9-3.3a5 5 0 0 0 1.4-2.4q-.8-5.7-.8-11.5 0-.9-.7-1.8 0-6-.8-12.2-.8-11.4-2-22.7-.4-7.2-1.3-14.3l-.3-4.7c-.6-2.7-.6-11.5-1.5-13.1l-3.6-53q-.9-7.4-.8-15.2l-.4-3a454 454 0 0 1-.6-33.9c.7-9.2.4-21.3 5-29.5 3.5-5.2 7-1.8 6.7 3.4z"/><path fill="#6f7586" fill-opacity=".1" stroke="#6f7586" stroke-opacity=".1" stroke-width=".5" d="M421.4 131q1 .3 2.3.3l.1.4-4.7 3-2.4.6q0-.8.6-1.4 2.3-1 4-2.9Z"/><path fill="#bfc2e0" stroke="#bfc2e0" stroke-width=".5" d="m223.3 11.1-.4 1.1-3 1.8a7 7 0 0 0-3 3q-1.7.2-2.7 1.5c.8 1.2 2.5-.6 2.8-1.5q2.1 0 3-1.7a67 67 0 0 0 7.8-3.8c2.6.5 13.4 0 14.6 1.5-1.8 1.8-14 10-14.2 11.8q-2.1 0-3 1.9c1 1.1 2.5-1.2 3-2q.5.4 1.1.1l17.9-10.2q1-.7.8-1.8 9 1.2 18.3 1.2l-26.7 22.1q-.7.5-.7 1.3.5.6 1 .1A2148 2148 0 0 1 280.4 14q.6-.4.3-1 9.8-1.2 19.5-.7l-.4.8c-6.7 5.7-21.1 17-26.5 22.7-1 .7-2.8.5-3 2.1q-1.5 1.4 0 0c2.4.3 2.7-1.4 4.7-2.3C279.1 33 310.5 16 311 14c7.4 2.5 11.8 8.3 15.4 14.9-.2 1.3-1.5 1-2.4 1.6l-5.3 4.5a9 9 0 0 0-2.6 2.9c-.7.3-3.2.9-2.5 2.2a3 3 0 0 0 2.5-2.2q2.3 0 4-1.5 3.7-2 7.2-4.5.9.3 1.2 1.3a167 167 0 0 1 4.6 14.3q0 .9-.7 1.2H241q0-.6.8-.8a14 14 0 0 0 7.7-3.9q1.7-1 2.6-3 2-.2 3-2 .7-.1.5-.8-.5.3-.5.8-2.1 0-3 2-2.3 0-4 1.5a84 84 0 0 0-9 5.8c-8.3.8-21.4.3-30.1.5q2.7-1.7 5.7-2.7l7.2-6c.7-.6 1.9-.3 1.9-1.5-1.6-1.2-2 1-3.1 1.4q-7 3.6-13.7 7.6-.6.4-.8 1.2-11.7 0-23.2-.2l.3-.8q2.4-.3 3.6-2.4c-1-.8-3.2 1-3.9 1.9q-1.5.3-2.9 1.4-2.2.4-1.5-1.7c6.2-12.9 6.2-28.7 22.5-33.2q1.2.4 1.7-.6a85 85 0 0 1 20.6-2Zm13.5 28c.1 0 2-.5.8-1q-.6.3-.8 1Zm92 5c.4 0 1.9-.5.8-1q-.7.3-.7 1Zm-154 10a38 38 0 0 1 7.2-.3c-.6 1.2-13.3 7.8-15.4 9a8 8 0 0 1 1.4-2.3c1-1.5 5-3 4.1-5.1l2-.7q.6.2.7-.5Zm41.2-.3q5.5 0 11.1.3l-.3 1c-6.1 2.4-28 17.6-32.8 17.1.6-2.7 19.3-13.6 22-18.4Zm32 0h5c-.8 1.7-15 9.7-17.6 11.4q-1.5 0-1-1.2 6.4-4.1 12.7-8.5.7-.6 1-1.7Zm22 0h7c-.8 1.8-17.8 11-20.7 12.8q-5 3-9.6 6.2-.9-1.2.3-2.2c3.1-2.5 22.6-14.1 23-16.8Zm24 0h9q-.5 1-1.4 1.4c-9.4 5.5-19.8 10.8-28.7 17q-2.5.7-4.8 1.7 0-.6.3-1c3.7-2.5 25-16.4 25.6-19Zm26 0c3.7.4 14.5-.9 17.2 1-4.3.2-6.5 3.6-10.2 4.2.2-1 2-3.8-.1-3.8L303 69a2 2 0 0 1 .6-1.9c3.5-3 14.5-10.2 16.4-13.3Zm-53 51.4c-7.8 6.7-17 12-25 18.3q-1 .8-1 2l-9-.1q0-.8.6-1.3 12.8-7.1 25.5-14.5l4-2.9zM83 107l-10.3 8c-.6-5.2 6.2-8.3 10.3-8Zm49 .1c-4.3 5-19.5 14.6-22 18.3H95q0-.8.6-1.2 3.6-1 6.3-3.4.2 1 1.1 1.2 3-2.1 6-3.6.6-.4.9-1.2 2.7-.6 5.1-2.2l8.1-4.9c3.2-1.3 5.1-4 9-3Zm24 18.3h-7q0-.8.6-1.2 9.4-5 18.5-10.4 5.3-3 10.2-6.6.9 1.2-.2 2.2-11 6.9-21.4 14.8zm109 0h-7q.3-1 1-1.7c8.6-4.3 16.6-9.6 24.9-14.4q1.6-2.2 2.7.2c-7.2 4.2-13.9 9.2-20.7 14q-1 .7-1 2ZM199.7 109l.6 1.3-2.6 1.8c-2 4-15.5 10.3-15.7 13.4q-3 .2-6-.6 2.2-2.2 5-3.6l1.2-.5 3.7-2.7 1.4-.3.6-.5 1.3-.5q2-1.5 4-2.5.8-.5 1.1-1.4a36 36 0 0 1 5.4-3.9Zm104.4 4.1c-2.2 3.3-15.4 9.3-15.8 12q-3.1.5-6.3.2c.5-2 17.8-10.8 20.7-12.8q1-.3 1.4.6ZM132 125.4h-5q0-.8.6-1.2l9.8-5.3q3-1.7 5.5-3.7 1-.8 2 0c-.8 2.7-11.8 7-13 10.2Zm277 0h-6q0-.8.6-1.3l12.9-7.1q.6.5.2 1.1c-1.6 1.8-7.8 5-7.7 7.3Zm22 0h-5q0-.9.6-1.3 4-2.1 7.8-4.7c2.1 1-4.1 3.7-3.4 6ZM161.7 131q-.3.8-1.1 1a11 11 0 0 0-5 .3q-4.2 3-8 6.6c-1.5.9-6.2 3.5-6.6 5q-1.8.3-2.8 1.7c1 1 2.5-.8 2.8-1.7q1 0 2-.3l18.4-10.8q.4-.3.3-.9 1 0 1.2-.9l25.2-.7-.2.7q-1.5.9.4.9 1.3-.9 2.8-1.2 9.6-.2 19 .3l-.4 1-19.7 13.5q-.6.5-.8 1.4c-2 0-4 1.6-5.2 3a4 4 0 0 0-3 1.8c1 1.2 2.7-.8 3-1.7 1.6.3 4.3-1.7 5.2-3q2-.6 3.8-1.7l21.5-12.3q2.4-1.8-.6-2.4c20.6.1 43-.5 63.3.3q0 .7-.7 1l-33 21.3q-.8.6-1.4 1.6c-1.5.1-4.7 1.7-5 3.3q-2.3-.2-3 1.9-1.4-.3-2.1.7c.6 1 2 .2 2-.7q2.1 0 3-2a7 7 0 0 0 5.1-3.2c3 .1 34.8-19.2 40-22.2q1-.8.8-2c6.8.3 14.6-.6 21.2.3l-.4 1q-30.6 20.3-61.1 40-1.6.8-1.8 2.5c-1.8-1.1-4 1-4.7 2.6a7 7 0 0 0-5.1 3q-2.1-.2-3 1.6c1 .8 2.5-.5 3-1.5a8 8 0 0 0 5-3.1 8 8 0 0 0 4.8-2.6q1.7-.5 3.2-1.4 2.7-1.5 5.3-3.4l.5.2V269c-1.3.9-11.6 4-12 6.1q-1-.2-1.8.3-4.5 3-9 5.2-.7.8-1.6 1.3a3201 3201 0 0 0-46.5 26.5l-1.7 1.8q-2-32-3.5-64 1.5-.2 2.9-1.1c12-7.6 23.8-15.7 35.8-23q.7-.7 1.7-1.1c2.6-2 8-4.4 10-7q1.4.3 2-1c.4-.3 4.1-1 2.5-2.1q-1.8.3-2.6 2.2-1.5-.5-2 1c-2.2-.1-8 4.1-10 5.5l-3 1.5q-19 10.8-37.8 22-.3-8.1-1-16.2 1 .1 1.9-.4 13.8-9.3 28-18 .9-.3.7-1.3a8 8 0 0 0 5.2-3.3 4 4 0 0 0 2.2-.2q1.9-1.7-.6-1.4-1 .6-1.6 1.6-3.3.6-5.2 3.3l-1.2.1q-1.8 1-3.4 2.4l-2.2.8-24 13.8q-1.5-25.2-3.4-50.5c.3-5.2-3.2-8.6-6.8-3.4-4.5 8.2-4.2 20.4-5 29.5-2.3 1.8-5 .5-7.3 3.2a5 5 0 0 1-2.3 2.8q-1-1.4-1 .3c-1 1.4-3.8 3-5.4 3.8.2-1.5-1.3-1.3-2.1-.7q-22.4 12.8-44.6 26.1l-.9-.4-3.5-32.1q1.2.2 2.3-.3c13.3-9 27.2-19.2 40.5-27.6q.4-.3.4-.8l2.2-.7q2-1.5-.5-1.3-1.2.6-1.7 2a46 46 0 0 0-10.3 5.7Q106 188.8 90 198.3a2 2 0 0 1-.9-1.8l-.5-9.3c2.9.4 13.8-9.3 17.3-10.9q.7-.4.7-1.2h1.5q1.2-.9 1.8-2.1 2.1-.1 3-2 1 0 2.1-.4 2-1.5-.5-1.3-1.2.6-1.6 1.7-2.2 0-3 2-1.3-.3-2.1.8l-1.1.5-18.6 10.8q0-5.6-1-11.2c3.5-2.6 27.1-19.7 27.6-21.8 1-.3 2.8-.4 3-1.7-.8-1.2-2.6 1-3 1.7-5.9 2.2-20.3 11.3-26.8 14.8l-1 .1c-1.1-3.1-1-7.8-1-11.2 2.5-1 10-7.2 11.8-9.7.7 0 3.9-1 2.7-2a3 3 0 0 0-2.7 2 62 62 0 0 0-12.5 7q-.8-11-2-21.7.2-.5.6-.7 38.2 0 76.6-.4 1.2-.3 1.2.7Zm174.4 0-.4.7-3 2q-2 1-3.5 2.6-.9.1-1.6.7l-1.3 1.3q-1 0-1.7.7-.9.7-2 1l-1 1-1.6 1-1.2.8-3.1 2-8 5.2q-.8.4-1.5 1.2-.8.2-1.4.8a32 32 0 0 0-4.9 3l-1.2.7-1.8 1.2-1.2.8q-3.4 2.2-6.5 4.5-.8.1-1.5.7l-2 1.1-1 1-3 1.7q-.7.8-1.8 1.2l-1.2.8-3 2-3.6 2.5-1.4.7q-.8.6-1.5 1.4-.8 0-1.5.6L266 177l-1.2.8q-1.5.8-2.1 2.2h-.4c-.3-2.5 0-10-1-12q-3.2-1-6.7-1 .2-.6.8-.8l58.7-33.7q.9-.6 1-1.8c6.6 0 14.4-.6 21 .2Zm85.3 0a13 13 0 0 1-4 3q-.6.5-.7 1.3-.6-.4-1.2-.3l-14.5 8.7q-.7.4-1 1.3-3 .5-5 3-2.3 0-3 2-1.4-.3-2 1-2.2-.3-3 2-1.5-.2-2 1c-1.8-.2-3.8 1.6-5 2.7.8 1.4 4.4-1.6 5-2.6q1.5.2 2-1.1a4 4 0 0 0 3-2q1.5.4 2-1 2.1-.3 3-2 3.3-.2 5-3a3 3 0 0 0 2.1-.5l14.5-8.4q.4-.4 0-.8 1.4-.2 2.5-.6l4.7-3-.1-.4c1.2 0 4.6-1.5 5 .3l-.8 8.5a90 90 0 0 0-10 5.6q-.7.5-1 1.4c-1.8 0-4 1.3-4.9 2.9q-3 .5-5 3c-2.3.3-5.1 2.3-6.8 3.7.5 1.2 6.5-2.3 6.8-3.7a6 6 0 0 0 5-3q3.2-.3 5-3c3.2 0 7.2-4.4 10.7-5q-.5 5.5-.7 11.1a3 3 0 0 0-2 .2 1520 1520 0 0 1-40.8 25.4c-1.8 1.3-5.2 2.2-6.2 4.2a8 8 0 0 0-5 3.1 7 7 0 0 0-5 3q-1.4-.1-2 1a4 4 0 0 0-3 2q-1-.2-1.8.7c.5.9 1.8.1 1.9-.7a3 3 0 0 0 2.9-2q1.3.2 2-1 3-.5 5-3c1.7 0 4.3-1.3 5-3 2 .1 5.6-2.2 6.7-4 2.5.1 6.8-3.4 9.1-4.4l8.7-5.4c6.3-3.4 19.3-10.2 24.2-14.3l-1.4 13.1a3 3 0 0 0-2.4.2l-69 44c.2-14.2 2-29.5 1.7-43.6-.6-2.3-6-1.5-7.7-1-4 1.1-4 3.8-4.4 7.3l-2.7 46.2a6 6 0 0 0-2.3.8L290 252.7l-1 1.3c-1.9-.1-4 1.5-5 3q-2.1-.2-3 1.6c1 1 2.5-.7 3-1.6 1.9.1 4-1.4 5-3 2.4-.1 8.9-4.7 11.4-6l39.9-23-4 72q-1.3-.4-2.4.2-14 9.1-28.2 18-7.5 4.5-14.8 9.7-2.1.1-2.8 2.1-1.5-.2-2 1c-1.1.2-2.8.3-3.1 1.6 1 1.3 2.3-1 3-1.6q1.5.3 2-1a3 3 0 0 0 2.9-2.1 3 3 0 0 0 2.2-.3q6.4-3.6 12.5-7.7.7-.4 1.5-.4c3.3-2.4 23.6-13.7 28.9-16.8-.5 8.4-.7 19.4-1.9 27.3H333c-1.4 1.3-6.6 3.4-7 5q-2.2 0-3 2-1.4-.3-2 1-2.1 0-3 2-1.2-.3-2 .7c.7.9 1.8 0 2-.7q2-.2 3-2 1.3.2 2-1 2.1 0 3-2c1.9 0 5.7-2.4 7.2-3.7l.9-.3q-.8 24-2.7 47.8a241 241 0 0 0-26.1 16.5q-1 .1-2 .7c-1.1 1.2-8 4.7-8.3 6q-2.1 0-3 2-1.4-.2-2 1c-1 .3-2.7.5-3 1.7 1 1.4 2.5-1 3-1.8q1.5.4 2-.9 2.2 0 3-2h1.5l9.6-5.6 25-14.7q-1.7 35-3.8 70-.4 7.3 0 14.6c2.4 2.6 9.5 1 11.2-2.2q1.6-18.7 2.9-37.5l1.6-2.9a3 3 0 0 1 2.1-1.7c-.1 1.2 1.4 1 2 .5q30-17.1 59.8-34.7-.7 6.3-1 12.5-.9-.4-1.9.1-14.7 9.9-29.5 19.5-1.5.8-1.7 2.5c-1.8-1.2-3.9 1.1-4.8 2.5-1.9 0-4 1.6-5 3l-2.1.6q-2.1 1.5.4 1.3 1.2-.6 1.7-1.9 2.3 0 4-1.6.6-.6 1-1.4a7 7 0 0 0 4.8-2.5q1.8-.4 3.2-1.5l29.7-17q-.7 5.6-.8 11.2l-22.4 15-1.5.6q-.6 1-1.5 1.5-1.9 0-2.3 1.6c-1.2.2-3 .3-3.2 1.8 1.1 1 2.6-.8 3.2-1.8 2.1.3 2.5-1 4.1-2l22.8-13.1q-.6 12.7-2 25.6-1.1-.2-2 .4-13 9.7-25.8 19.6.8.6 1.7.1c8-5.3 16.8-9.8 25-14.8-3.4 27.4-8 55.1-41.1 57.2a7 7 0 0 1 1.6-3.8q8.9-9 17.1-18.4c-1.3-.9-2 .7-3 1.2a243 243 0 0 0-34 19.6q-.9 0-1.7.5l-.9.7c-4.1.3-9.2-.4-13.4-.8a3 3 0 0 0 1.7-1.5l.5-.9 4-3q-.4-.7-1-.4-2.1 1.2-3.8 2.8l-1 .1-1.3.8-2.6 2-14.4-.9c2.8-5.4 33-23.7 33-26.6l1.6-.3a6 6 0 0 0 1.8-1.8c.6-.3 3.8-1.3 2.5-2.2q-2 .4-2.5 2.2-1.5-.4-2.2.7l-1.2.6q-22 12.4-43.8 25.1-.8.5-.7 1.4-8.3-.4-16.4-1.2 3-2.3 6.2-4.3.8-.5.9-1.3 2.2 0 3.1-2c.8 0 2.1 0 2-1 .5-.3 4-1.3 2.6-2.2a4 4 0 0 0-2.7 2.1q-1.5-.3-1.9 1.1-2.2-.2-3.1 2-1-.2-2 .3l-8.9 5.2-15-.9.3-.7 28.7-19.3 1.6-.6 3.2-2.8c-.7-1.1-3 1.1-3.8 1.3q-.9.6-1.3 1.4a49 49 0 0 0-8.8 4.6c-2.3 1.7-21 12.2-25.2 14.6q-1 .6-1.7 1.5-8 0-16-.7l.4-1a1599 1599 0 0 0 36.5-24.3l1.7-.6 5.4-3.8q.7-.4 1-1.3 2.1 0 3-2c.6.2 2.7-.4 1.5-1.1q-1 0-1.4 1.1-2.2 0-3 2c-2.2-.2-5.7 3-7.8 3.8q-.9.4-1.4 1.3a20 20 0 0 0-4.7 2.3L231 496.5q-.7.6-.7 1.6-9 0-18.2-.3l.3-.7 65-43.4 7.7-4.7q2.7-1.6 4.9-3.7c-.9-1.2-4.5 1.9-5.2 2.8-1.8 0-6.9 3.7-8.8 4.5-2 1.8-11.1 6.2-14 8.5l.4-260.3q.6-.2.6-1c2.4-1.7 5.2-.3 7.4-3.9q2.4.3 2.6-2.2a7 7 0 0 1 2-1.7c.3 2.7 4-.9 5.2-1.2q.6 0 1-.7l6.1-3.3 1-.7 3.9-2 1.2-.8.6-.5 1.4-.7 3.7-2.1 1.3-.7 5-3 .7-.5q.8-.3 1.3-.7l5-2.8.6-.5q.9-.1 1.4-.7l5-2.8.7-.6q.7 0 1.3-.6a17 17 0 0 0 3.6-2.4q.8 0 1.4-.6l5-2.8.8-.5q.8-.2 1.3-.8l5-2.7.6-.5 1.3-.8a131 131 0 0 0 10-5.7l.7-.6q.9 0 1.4-.7l5-2.7.7-.6q.8 0 1.2-.7a110 110 0 0 0 10.7-6q.8-.2 1.3-.8l.8-.4 1.2-.8 3-1.7.8-.6q.8 0 1.3-.7c1.3-.7 4-1.4 3.6-3.3 12.5 0 27.1-.6 39.4.3ZM180 136q-2.1.2-3 2a2 2 0 0 0-2 .8c.6.9 1.7 0 2-.8a4 4 0 0 0 3-2c1.3 0 5.6-2.2 6-3.4-1.6-1.2-5.3 2-6 3.4Zm-52.3-1.8c.3 0 1.9-.5.8-1a1 1 0 0 0-.8 1Zm270 .2c.6 0 2.9-.6 1.7-1.5q-1.4 0-1.6 1.5Zm27 41.6c-.7 3.5-.3 9.3-1.7 12.1-3.5.9-20.4 12.2-24.5 14.9l-6 3.2-10 6.2q-1 .7-1.6 1.6a7 7 0 0 0-5 3.2q-3.1.3-5 2.9a7 7 0 0 0-5 3c-1.8-.1-3.7 1.5-5 2.7 1 1.3 4.5-1.6 5-2.7q2.3-.2 4-1.7.7-.6 1-1.3 1 .1 2-.4a7 7 0 0 0 3-2.5c1.8-.2 4.4-1.4 5-3.2q1 .2 2-.3l11-6.3q14-8.4 28-16.3l1-.1q-.5 11.2-1.9 22.3l-1.8.6-31.1 19.5-1.8.7-12.4 7.7q-.8.4-1 1.3a3 3 0 0 0-3 2q-1.5-.2-2 1-3 .5-5 3-1.2-.2-1.8.7c.6 1 1.8 0 1.7-.7 2 .2 4-1.5 5-3 .8 0 2.2 0 2-1q2.1-.2 3-2 1.2 0 2.2-.2 5.4-3.8 11.2-6.8c.7-.6 2.6-1.3 2.7-2.3q1 .2 1.7-.3c10-6.2 20.3-11.6 30.4-17.7q-.4 5.9-1 11.6a3 3 0 0 0-1.8.5L352 269.4q-.9.7-1.3 1.8-.3-3 0-6.2l2.6-48a8 8 0 0 0 2.4-.9q34.7-20 69.2-40.2ZM245 191q-2.1.3-3.2 2-1 0-1.8.8c.6 1 2 0 1.8-.8a3 3 0 0 0 3.2-2c.5.3 2.7-.2 1.5-1q-1 0-1.5 1Zm-57.2 6q-2.2.2-2.8 2.1-3.4.3-5.2 3.1-2.2-.1-3.6 1.7c.6 1.5 3.3-.6 3.6-1.7 1.9-.3 4.2-1.4 5.2-3q2.1-.1 2.8-2.2c.5.3 2.8-.2 1.6-1q-1 .2-1.6 1Zm-82 9.2q-1.3-.3-2 .8a3 3 0 0 0-2.9 2.1q-1.3-.3-2.2.8c.1 1.9 1.9 0 2.3-.8q2 0 2.8-2c.7 0 2.2.2 2-1 .5-.3 4.3-1 2.7-2q-2.1 0-2.7 2Zm51 11.7.6 16q-1.5-.1-2.6.4l-59 34.2q-.6-5.2-.9-10.6 1 0 1.7-.5zm263 14q-.9 5.5-1.4 11-.4.6-.4 1.4-1 0-1.8.5L351 286.4l-2 1.6q.4-8.5 1.5-16.9a5 5 0 0 0 2.5-.5q33.5-19.2 66.8-38.8Zm-262 5q0 7.7.8 15.2-1.3 0-2.4.6L98 286.4c-1.5-1.1-1.1-8.5-1.3-10.5q1 0 2-.5zm260 15.1q-1.4 12-2 24.1-1.4-.1-2.6.7L347.7 318h-.2l1.1-26.9q1.4.7 2.6-.2l64-37q1.5-.9 2.5-1.9Zm-259 3.9 3.4 49.2c-1.2 1.6-6 4.8-8.2 5.2q-1-.3-2.1.2a99 99 0 0 1-8.4 4.8l-1.7 1.6q-1.7.6-3.1 1.5-18.3 10-36.1 21c-1-1.5-1.7-18.6-2-21.5q.7 0 1.5-.6l11.9-7.2 16-9.7a2 2 0 0 0 .9-1.4q1.5 0 2.6-.8c.7-.7 4.5-2.3 4.5-3.2q2 0 3-2c.4.3 2.6-.3 1.4-1a2 2 0 0 0-1.5 1q-2 .3-3 2c-2.6-.2-3.8 1.8-6 2.8q-.7.5-1 1.2-1 0-2 .5a1237 1237 0 0 1-28 16.3l-.7.5-2.1-21.3 1.8-.6 57-36.7zm254.2 10q-1.4 0-2 1-2.1.3-3 2-1.3-.1-2 .8c.6 1 2 0 2-.8q2.1.2 3-2 1.5.5 2-1 1.8 0 3-1.4c-1-1.1-2.5.5-3 1.4ZM331 283q-1.5-.2-2 1-2 .3-3 2-1.2-.3-1.9.7c.6 1 1.9.1 1.9-.7q2.1 0 3-2 1.5.3 2-1c1.3-.1 4.1-1 4.4-2.4-1.2-1-4 1.1-4.4 2.4Zm82.7-1.4 1 .4c.8 3-.7 7.7-.5 11a4 4 0 0 0-2.2.4q-32.6 20.4-64.8 41-.9-.4-.7-1.5c.8-2.9-.5-12.6 2.5-13.9q21.3-11.8 42.4-24c5-3.3 18.4-10.3 22.3-13.4Zm-297.6 14.5q-1.5-.4-2 .9a8 8 0 0 0-5.1 3c-1.8 0-4.3 1.3-5 3q-2-.4-2.1 1.5c1 .7 1.6-.9 2.1-1.5a7 7 0 0 0 5-3c2 0 4.1-1.4 5-3q1.4.2 2-1c1.8-.1 3.7-1.6 5-2.7-.8-1-4.7 1.5-5 2.8Zm14.9 14.8q-2.1.3-3 2.2c-1.7-.6-2.4 1.3-4 1.5a2 2 0 0 0-1 1.3q-1.5 0-2 1.1-3.1.5-5 3c-1.6.2-4.7 1.4-5 3.1-1.9-.3-4.3 1.7-6 2.6.9 2.5 5.3-1.4 6-2.6 1.8-.1 4.3-1.3 5-3.1a7 7 0 0 0 5-3q1.5.2 2-1c1.1-.1 4.8-1.8 5-3a3 3 0 0 0 3-2.1q1.1.3 1.9-.6c-.6-.9-1.5 0-2 .6Zm281.1 1.7q-.1 6.2-.8 12.4a3 3 0 0 0-2.4.2l-64 41c0-3.8-.3-13 1.1-16.2a66 66 0 0 0 18.1-10q.8 0 1.2-.2l14.8-8.4c10.4-6.6 21.5-12.2 32-18.8ZM411 333q-1 5.6-1 11.3-1.3.1-2.3 1l-64.3 41q.7-7.7 1-15.4l3.4-1.5zm-245.5 4.2q1.2 11.3 2 22.7-5.5 3.5-11.2 6.5a3 3 0 0 0-2.3 0q-6.2 3.9-12.6 7.5-.9.4-1.3 1.3l-1.7.5q-13.8 8.4-28 16.1a16 16 0 0 0-3 2.5q-.3-5.2-1-10.3.8-.3.9-1 1.3.4 1.7-.8c.9.1 4.4-.9 2.7-2q-1.8.2-2.7 2-1-.3-1.7.7l-.9.4q-.6-5.1-.5-10.3 12.2-7 24.2-14.6 1.5-1 2.6-2l4.5-2.5a469 469 0 0 1 16.9-10.1c.6-.6 2.9-1.8 2.8-2.7 2.3-1.8 5.4-4.6 8.5-4ZM323 350c-1.8-.2-4.2 1.4-5 3-1.7-.2-3.8 1.4-5 2.5 1.2 1.7 4.3-1.4 5-2.5a7 7 0 0 0 5-3c1 0 6-2 4.6-3.2-1.5.2-4 1.6-4.6 3.2Zm86.2-.5-.5 11.5q-1.2 0-2.3.7L342.3 403q.7-8 1-16.3.8.4 1.7-.2 4.5-2.4 8.7-5zM169 373.8q0 5.8.8 11.5a5 5 0 0 1-1.4 2.4l-2.3.8q-28 16.3-56.3 32.4-.6-5-.7-10l1.6-.7zm-55.3 5.5q2.4-.6 4.5-1.9 1.9-1.5-.4-1.3c-1.2 1-3.7 1.5-4 3.2Zm55.5 12.8h.7a273 273 0 0 1 1.5 25q-1.5-.7-2.6.1l-56.5 32.9-1.4-21.2zm79 26.2 1.7-.3v34.3c-1.3-.8-4.7 1.8-5.9 2.5l-74 42.8q-.7.5-.7 1.5-10.2 1-20.6 1 .3-.6.8-.9 33.6-21 67-42.3c1.6-1.3 5.7-3 6.5-4.8h1.4q1-1 1.7-2c1.5-.2 4.5-1.6 5-3q2-.5 3-2 1.5 0 2-1.1c.9 0 4.3-.7 2.6-2a3 3 0 0 0-2.6 2q-1.4-.2-2 1a3 3 0 0 0-3 2 6 6 0 0 0-5 3q-1.2-.3-2 .7l-1.3.5-7.8 4.4c-1.1 1.6-3.9 2-5.5 3.3l-69 39.8a2 2 0 0 0-1.3 1.4c-2.7.2-10.3-1.6-11.4-4.3q26-16.4 51.4-33.2 1.5 0 1.6-1.6 1.2 0 2.3-.6l55.2-35.6zm-77 .4c.3 4.7-.6 8.8.7 13.5a3 3 0 0 0-1.8.3l-54.8 31.8-1.1-.2q-1.2-4.6-1.1-9.4.9 0 1.6-.5zM398 431q-1.4-.3-2.1.6c.6 1 2 .4 2-.6.8-.4 3.8-.8 2.5-2.1a4 4 0 0 0-2.5 2Zm-274 1q-2.1 0-3 2-1.5-.2-2 1-2.2 0-3.2 2-1-.2-1.8.8c.6.9 1.7 0 1.8-.8q2-.2 3.1-2 1.5.3 2-1 2.2 0 3-2c.6.2 2.8-.3 1.5-1.1q-1.2 0-1.4 1.1Zm46.7 2.7 1.2.3c1.2 3.6 2.2 8.4 2 12.2-.4 1-5.7.8-7.2 3.7q-.9 0-1.8.6-7 4.2-14 8.1-.7.8-1.5 1.3-16.4 9-32.6 18.5-1 .7-1.7 1.7-1.5-5-2-10.1 27.9-17.1 55.5-34.6 1.2-.7 2-1.7Zm-62.5 54q2 3.4 5 6.1-6 0-5-6.1ZM122 500c1.8 1.8 8.2 2.7 9 4.1-2 1-4 2.7-6.5 1.6a5 5 0 0 1-2.5-5.7Z"/><path fill="#bfc3e0" fill-opacity=".4" d="M286 465q-.9 2-3 2 .9-2 3-2"/><path fill="#bdc3df" fill-opacity=".3" d="M295 399q-.9 2-3 2 .9-2 3-2"/><path fill="#bfc3e0" fill-opacity=".4" d="M109 382q-.6 1.3-1.8.8.6-1 1.7-.7"/><path fill="#bfc2e0" fill-opacity=".7" d="M113.6 379.3c.4-1.7 3-2.1 4.1-3.2q2.3 0 .4 1.3-2.1 1.3-4.5 1.9"/><path fill="#bec1e2" fill-opacity=".3" d="M323 350c.6-1.5 3.1-2.9 4.6-3.1 1.3 1.2-3.6 3.2-4.6 3.2"/><path fill="#b8c8e4" fill-opacity=".3" d="M111 323.1c-.7 1.2-5.1 5-6 2.6 1.7-.9 4.1-3 6-2.6"/><path fill="#c0c2df" fill-opacity=".2" d="M104 303c-.5.7-1.1 2.2-2.1 1.5q.1-1.8 2.1-1.4"/><path fill="#bfc2e0" fill-opacity=".6" d="M366 223c-.5 1-4 4-5 2.7 1.2-1.2 3.2-2.8 5-2.7"/><path fill="#bec0e1" fill-opacity=".3" d="M381 214c-.6 1.7-3.2 3-5 3a7 7 0 0 1 5-3M231 447c-.5 1.5-3.5 3-5 3a6 6 0 0 1 5-3"/><path fill="#cad0e5" fill-opacity=".2" d="M180 202.1c-.4 1.1-3 3.2-3.7 1.7a4 4 0 0 1 3.6-1.7"/><path fill="#bdc3e1" fill-opacity=".3" d="M378 183c-.7 1.7-3.3 3-5 3q1.8-2.5 5-3m-274 24q-.8 2-3 2a3 3 0 0 1 3-2"/><path fill="#c0c3dd" fill-opacity=".2" d="M240.8 174.4a8 8 0 0 1-4.7 2.6c.8-1.5 2.9-3.7 4.7-2.6m132 245a7 7 0 0 1-4.8 2.5c.9-1.4 3-3.7 4.8-2.5"/><path fill="#bec4e1" fill-opacity=".3" d="M113 171a3 3 0 0 1-3 2q.8-2 3-2"/><path fill="#bfc1e0" fill-opacity=".6" d="M385 154c-.6 1.1-4.1 4-5 2.7 1.2-1 3.2-3 5-2.6"/><path fill="#bfc2e0" fill-opacity=".5" d="M177 138c-.2.7-1.3 1.6-2 .7a2 2 0 0 1 2-.8m-36 5.9c-.3.9-1.8 2.8-2.8 1.7q1-1.4 2.8-1.7m43 6c-.3 1-2 3-3 1.8a4 4 0 0 1 3-1.7m179 275q-.5 1.3-1.7 2-2.5 0-.4-1.4z"/><path fill="#b4bdda" fill-opacity=".2" d="M416.7 135.3q.2.3 0 .8l-14.6 8.5a3 3 0 0 1-2 .4q.1-.9.9-1.3l14.5-8.7q.6 0 1.2.3"/><path fill="#aaabc9" fill-opacity=".2" d="M180.1 135.9c.7-1.3 4.4-4.6 6-3.4-.4 1.2-4.7 3.5-6 3.4"/><path fill="#bfc2e0" fill-opacity=".5" d="M217 17c-.4.9-2 2.7-2.8 1.5q1-1.3 2.8-1.5M113 171q.4-1.2 1.6-1.7 2.6-.3.5 1.3zm250 21c0 .8-1.3 1.6-1.8.7q.6-.9 1.9-.7m0 57c0 .8-1.2 1.7-1.8.8q.6-1 1.7-.8m-232 61.9c.3-.6 1.3-1.5 1.9-.6q-.7.9-2 .6M286 328c-.7.7-2 2.9-3 1.6.2-1.3 2-1.4 3-1.6m32 25.1c-.7 1-3.8 4.2-5 2.5 1.2-1 3.3-2.7 5-2.5m-209 29a3 3 0 0 1 2.6-2c1.7 1.1-1.8 2.1-2.7 2m15 49.9q.3-1.2 1.5-1.1c1.3.8-.9 1.3-1.4 1.1m112 12a3 3 0 0 1 2.6-2c1.7 1.3-1.7 2-2.6 2m50 21q.4-1 1.5-1.1c1.1.7-.9 1.3-1.4 1.1"/><path fill="#e1e1f9" stroke="#e1e1f9" stroke-width=".5" d="M89.3 51q-9 1.8-17.2 5.6l-2 .3.2-.8a232 232 0 0 1 14.2-7.9q3.3 0 4.8 2.8Zm16.4 2.1a779 779 0 0 1 31.7.2q1-.2 1.5.6a958 958 0 0 1-22.2 17.3q-1.7 1-2.6 2.6-2 .1-3 1.8c1 1.3 2.6-1 3-1.8q2 .2 3.7-1.2l29.3-17q1-.6.8-2l16.6.4q1 0 1.5.9a3 3 0 0 0-1.7.8L128 83.5a2 2 0 0 0-.7 1.8L126 85a5 5 0 0 0-3 3q-1.2-.3-1.8.7c.6 1 1.8 0 1.8-.8q1.8-.2 3-1.6l1.3-.6q19.8-11.1 39.3-22.8c2.2-1.3 14.8-8 15.4-9h34c-2.7 4.7-21.4 15.6-22 18.3-4.6 1.4-14.5 11.4-19 13.6l-1.7 1.7q1 .4 1.7-.2 27-15.9 54.4-31.6 1.3-.5 1.3-1.9H248a3 3 0 0 1-1 1.7q-6 4.5-12.6 8.5-.5 1.3 1 1.2c2.6-1.7 16.8-9.7 17.6-11.3h17c-.4 2.6-19.8 14.2-23 16.7q-1.3 1-.3 2.2 4.6-3.3 9.6-6.2c3-1.8 19.9-11 20.7-12.7h17c-.7 2.6-21.9 16.5-25.6 19a1 1 0 0 0-.3 1q-2.3 0-3.1 2.1-2 0-2.8 1.6c1 .8 2.4-.7 2.8-1.6q2.2 0 3-2.1l5-1.7c8.8-6.2 19.2-11.5 28.6-17q1-.4 1.4-1.3h17c-2 3-13 10.3-16.3 13.2a2 2 0 0 0-.7 2c-8.4 4-14.6 10-22 15.4q-.7.6-.7 1.5h-1.5q-1.1.7-1.8 2c-.9.5-2.6.6-2.9 1.6.9 1.1 2.8-.5 2.9-1.7a2 2 0 0 0 2.1-.7l1.3-.5L324 61.5a8 8 0 0 0 3-2.5c3.7-.6 5.9-4 10.2-4.3 4.2 2.3 10.6-2.5 16.1-.8q-3.5 3-7.2 5.6-.9 2.2-2 4.2-2.2 1.2-4.7 2.3-.5.4-.5 1c-2.2-.1-7.3 3.5-9.2 5h-.9q-.6.3-.9.8l-1.1.4a36 36 0 0 0-4.7 3.5c.5 1.5 4.5-1.6 4.8-2.6l1.3-.2q.6-.1.9-.7l1.1-.2 7.8-4.7 1-1.3c7.3-2.5 13.2-7.4 20.1-10.9l1.1-.5a8 8 0 0 0 2.8-2.4q8-.4 16 0l.4 1c-5.7 3.7-11.2 8.1-17 11.8a3 3 0 0 0-1.5 2.4c-1.7-1-4.1 1.2-4.9 2.6-.8.5-2.7.5-3 1.6 1 1.2 2.8-.6 3-1.6q3-.2 4.9-2.6 1.6-.4 3-1.4l22-12.6q.8-.7.9-1.5c5 .3 11.5-.3 16.4.8q0 .8-.7 1.2-18 13-35.8 26.4-.9.6-1.4 1.5c-.8 1-3.2.5-3.1 2q-.6 0-1 .5c.4.7.8-.3 1-.4q2.8-1.1 5.5-2.6l45-26.2q.5-.6.2-1.3 6.9 1 13.5 3.3.5.3.5.9c-2.6.2-28.4 21.7-32.3 24.9a6 6 0 0 0-3.5 3q-2.1 0-3 1.8c1 1.2 2.6-1 3-1.9 4.2-.1 35.8-19.8 42-23.4q.8-.5.8-1.5c22 9.7 24.1 38.9 20.2 59.5-1.3-.4-6 2.1-5.8 3.6q-8.7.6-17.3.5c-.7-2.4 5.5-5 3.4-6.1q-3.7 2.6-7.8 4.7-.6.5-.6 1.3h-17c0-2.3 6.1-5.5 7.7-7.3q.4-.6-.2-1.1l-13 7.1q-.5.5-.5 1.3-38.2 0-76.3-.2 0-.7.6-1c4.4-3 38.1-28.4 38.5-30.1l1.3-.2a3 3 0 0 0 1.9-2c.7-.5 3.5-.6 2.4-2a3 3 0 0 0-2.4 2 2 2 0 0 0-2.2.8l-1 .6c-17.1 9.6-33.6 19-49.5 30.6q-.6.6-.4 1.3-10.5 0-20.9-.2l.3-1L328 99.6q.8-.6.7-1.5h1.5q1.2-.7 1.7-2c.8-.1 3.7-.9 2.6-2q-1.7.2-2.6 2-1.2-.3-2 .9l-1.2.4-22.8 13.1-1.8 2.7q-.5-.9-1.4-.6c-2.9 2-20.2 10.8-20.7 12.8l-17 .2q0-1.2.9-2c6.8-4.8 13.5-9.8 20.7-14q-1.2-2.4-2.7-.2c-8.3 4.8-16.3 10-24.8 14.4q-1 .7-1.1 1.7h-17q0-1.1 1-1.9c8-6.3 17.2-11.6 25-18.3a4 4 0 0 0 3-2.3q1.2 0 2.1-.3 2-1.6-.5-1.3-1 .6-1.6 1.6a3 3 0 0 0-3 2.3l-5 1.5-4 3q-12.6 7.3-25.4 14.4-.6.5-.6 1.3h-17c.5-2.2 18-14.9 21-17.4q9.2-6.6 18-13.5.7-.6.7-1.5h1.5q1.2-.8 1.9-2l2.4-1q.4-1.3-.9-1-.9 1-1.5 2-1.4-.3-2.3.8l-1.1.5c-7 4.6-14.7 8.4-22 12.7-9.2 6.3-23.5 13-31.8 20q-9.4.5-19 .5c.3-3.1 13.7-9.4 15.8-13.4l2.6-1.8.8-.3c3.2-2.1 7.8-3.8 10-7 .5.2 2.6-.3 1.4-1q-1 0-1.5 1l-2.7 1a80 80 0 0 0-7.4 4.8l-1.2.2a36 36 0 0 0-5.4 3.9q-1.2.2-1.1 1.4-2 1-4 2.5-1-1.5-1.3.5l-.6.5q-1-1.3-1.4.3l-3.7 2.7c-.2-1-1.4-.7-1.2.5q-2.8 1.3-5 3.6h-1q-.4-1.2-1 0-9 .8-18 .5.2-.6.7-1.2 10.3-8 21.4-14.8 1-1 .2-2.2-5 3.5-10.2 6.6-9 5.3-18.5 10.4-.6.5-.6 1.2h-17c1.1-3.1 12-7.5 12.8-10.1q-.8-.8-1.9-.1a43 43 0 0 1-5.5 3.7l-9.7 5.3q-.7.5-.7 1.2h-17c2.5-3.7 17.7-13.3 22-18.3 2.9-.3 12-8.7 15-10.6q.9-.6.7-1.8l1.7.2q2.3-1.5 4.5-3.5c-.8-1.4-4 1.7-5 2.2l-1.2.8c-6.4 3.6-15.5 8.3-21.2 12.5q-2.5.9-4.9 2.4l-7.9 4.4q-1.7 1.5-3.7 2.3l-1.9 1.5c-1.5.7-5 1.7-5.3 3.6l-.9-.3q-2.8 2.4-6.3 3.4-.6.5-.6 1.2c-9.4-.4-24.6.4-33.2-1.4 1.4-2.2 8.7-6.7 11-9l10.2-8q11-8 21.7-16.4c-1.7-1-2 .9-3.2 1.5q-22 12.3-43.9 25.1-.6-6-.9-12.2 1.4.3 2.4-.4c1.5-1.7 12.7-9 12.6-10.5L73 94a5 5 0 0 0 2.9-3q1 .2 1.8-.7c-.6-.8-1.6 0-1.8.7a5 5 0 0 0-3.1 1.9l-1.3.4-14.8 8.6q-.3-.2-.4-.6C55.8 79.6 64.1 60.5 87 56l-.2.7c-3.7 5-8.6 8.7-11.6 14a1 1 0 0 0-.8.6q.6.3.8-.5c3.1-.7 25.1-14.2 29.8-16.7q.6-.4.7-1Zm331.3 20q-2-.2-2.8 1.6c.8 1.1 2.5-.8 2.8-1.6q1.4.2 2-1 1.7-1-.3-1-1.2.6-1.7 2Zm-81.3 45.8q-1.7.3-2.6 1.8c.6 1.5 2.7-.6 2.6-1.8 1 .4 4.1-.8 2.9-2q-2 .4-2.9 2Zm30.2 5.3c1 .3 3.9-1.4 2.7-2.2q-2.2 0-2.7 2.2Z"/><path fill="#cfd1eb" fill-opacity=".3" d="M355.7 119c.1 1.1-2 3.2-2.6 1.7q.8-1.5 2.6-1.8"/><path fill="#cfd0eb" fill-opacity=".4" d="M355.7 119a4 4 0 0 1 2.9-2c1.2 1-2 2.3-2.9 2"/><path fill="#dfdffb" fill-opacity=".2" d="M270 103a4 4 0 0 1-3 2.2 3 3 0 0 1 3-2.3"/><path fill="#e2e2f9" fill-opacity=".4" d="M332 96a3 3 0 0 1 2.5-2c1.1 1.1-1.8 1.9-2.6 2"/><path fill="#e2e2f9" fill-opacity=".5" d="M76 91c.2-.7 1.2-1.5 1.8-.7q-.7.9-1.8.7"/><path fill="#e1e1fa" fill-opacity=".5" d="m258 91 1.6-2q1.4-.3.9 1zm111 1a3 3 0 0 1 2.4-2c1.1 1.3-1.6 1.4-2.4 2"/><path fill="#e0e0f9" fill-opacity=".5" d="M277 88c-.1 1-2 2.7-2.9 1.6.3-1 2-1.1 2.9-1.7m-7 15q.6-1.1 1.7-1.7 2.4-.3.4 1.3-1 .3-2 .3M386 124.1q.5-2 2.7-2.2c1.2.8-1.8 2.5-2.7 2.2"/><path fill="#e2e2fa" fill-opacity=".5" d="M123 88c0 .7-1.2 1.7-1.8.7q.6-1 1.8-.8"/><path fill="#e1e1f9" fill-opacity=".4" d="M265 76c-.4 1-1.8 2.4-2.8 1.6A3 3 0 0 1 265 76"/><path fill="#e2e2fb" fill-opacity=".2" d="M268 73.9a3 3 0 0 1-3 2.1q.8-2 3-2.1"/><path fill="#e2e2fb" fill-opacity=".3" d="M114.1 73.8c-.4.8-2 3-3 1.8a4 4 0 0 1 3-1.8"/><path fill="#e2e2f9" fill-opacity=".4" d="M356 71c-.3 1-2 2.8-3 1.6.3-1.1 2.2-1.1 3-1.6m-145 32q.5-1 1.5-1c1.2.6-1 1.2-1.5 1"/><path fill="#e3e3fa" fill-opacity=".2" d="M75.2 70.9q-.2.8-.8.5.3-.5.8-.5"/><path fill="#dfdffb" fill-opacity=".2" d="M360.9 68.4A7 7 0 0 1 356 71c.8-1.4 3.2-3.6 4.9-2.6"/><path fill="#bfc2e0" stroke="#bfc2e0" stroke-width=".5" d="M373.4 130.7c-.4 2-4.9.8-6.5 2.2l-1.2.8q-2 1-3.4 2.6-1 0-1.7.7l-2.8 1.8-1.9 1.1-1.2.8a64 64 0 0 0-6.4 4.5l-1.6.7-6 3.8-3 2a12 12 0 0 0-3.4 2.6q-.9 0-1.5.7l-1.8 1-1.2.8-1.9 1.1-1.2.8q-3.4 2.1-6.6 4.6-.8 0-1.3.7-1 .4-1.8 1l-1.2.8-3.1 2q-1.8.9-3.4 2.4-1 .3-1.7.8l-1.4 1.2q-.7.1-1.5.7l-1.7 1-1.2.8q-.9.8-1.9 1.2l-1.2.8q-1.8 1.1-3.4 2.5-.9.3-1.6.8l-1.9 1-1.1 1-3 1.8-1.8 1.1-1.2.8a24 24 0 0 1-5 3.2q-.9.8-2 1.2l-1 .7q-.7.7-1.7 1.2a7 7 0 0 0-2.1 1.7c-1 .4-3 .7-2.6 2.2-2.2 3.6-5 2.2-7.4 4l-.6.3V180h.4a3 3 0 0 0 2.4.1l1.2-.8 2-1.3 5-2.7.7-.6 1.3-.6 5-2.8 5-3 .8-.4 1.2-.9a79 79 0 0 0 7-4l5-2.7.7-.6q.8 0 1.3-.6 1.8-1.2 4-2l1.1-1 5-2.8.6-.5q.7-.2 1.3-.7l3.7-2 1.3-.8.8-.5 1.3-.7 5-2.8 5-3 .7-.6q.6 0 1.3-.6l5-2.8.6-.6 1.3-.7 5-2.7.7-.5q.8-.2 1.3-.7 1.9-.6 1.6-2.4 12.8-.3 25.5 0ZM157 199.9v15.3q-.9-.1-1.6.4l-61 35.6a78 78 0 0 0-1-10.3l53.9-35a5 5 0 0 0 2.3-2.8c2.4-2.7 5-1.4 7.3-3.2Zm93 69V418l-1.9.3q-1-.5-2 0-4.5 3-9 5.3-.7.8-1.6 1.3-26.8 15-53.5 30.4-.2-14.2.4-28.6 1 .5 1.9 0a169 169 0 0 0 10.7-7.1l1.7-.6 7.4-4.7q.8-.5.9-1.3c1.8-.1 4.3-1.4 5.1-3q2.1-.3 3-1.9a2 2 0 0 0 1.9-.9c-.6-.8-1.8.2-1.8.9q-2.3-.2-3 1.8c-1.6 0-4.9 1.5-5.2 3q-1 0-2 .5-3.7 2.3-7.6 4.3a3 3 0 0 0-1.4 1.5q-.9-.2-1.6.4a70 70 0 0 1-10.2 5.8c-.1-3.9-1-11.1.2-14.6q.9.3 1.8-.2l17.9-11.3q.8-.4.9-1.2c1.7-.2 4.4-1.5 5.1-3q1.5.2 2-1.1c1-.6 2.5-.4 3-1.6-1.1-1.4-2.7.4-3 1.6q-1.5-.3-2 1c-1.6.1-4.5 1.5-5.1 3a3 3 0 0 0-1.9.6q-9.4 5.5-19 10.8c-1.2-6-.8-19-1.2-25.7q1 .2 2-.3a5209 5209 0 0 1 55.2-35.2 2 2 0 0 0 1-1.2q2.1 0 3-2 1.4.3 2-1 1 0 2-.6 2.1-1.4-.3-1.2-1.2.6-1.7 1.8-1.5-.2-2 1-2.2 0-3 2a4 4 0 0 0-2.1.2 267 267 0 0 1-14 8.4q-.7.8-1.5 1.2-20.6 11.4-40.7 23.4c-.6-4.4-.8-9.9-.5-14.4q1.6.1 2.8-.9c1-.7 7-3.7 6.8-4.8l1.5-.3a4 4 0 0 0 1.7-1.8 8 8 0 0 0 5-2.9c1.5-.4 4.7-1.6 5-3.2q2.3.4 3-1.9c.6.2 2.8-.3 1.5-1.1q-1.2 0-1.5 1.1-2.1 0-3 1.9c-1.7 0-4.5 1.5-5 3.2a6 6 0 0 0-5 2.9q-1.2-.4-2 .8-.6 0-1.3.4l-6.4 3.6a2 2 0 0 0-1.2 1.4 4 4 0 0 0-1.9 1l-2.9-51.3c17.3-10.1 34-21.4 51-32l8.7-5.5q.9-.4.8-1.3c.4-2.1 10.7-5.2 12-6.1Zm163.9 29c-1 4-.3 8.6-1.6 12.3-2.8-.1-24 14.2-27.8 16.6l-5.6 3.2q-6.7 4.6-13.9 8.6-.8.5-.8 1.4a66 66 0 0 1-18 10c-.9-2.8.3-9.8 0-13.2q4.5-2 8.6-4.5 29.7-17 59-34.4Zm-251.5 7c.9 1.7 1 10.5 1.5 13.2a7 7 0 0 0-2.6.5l-57.4 33.2c-1-.7-.7-9-1.2-10.6 3.5.2 30-18.2 35.4-20.8q1.2-.7.8-2.1l3-1.5q.1 1.2 1.2.6l10.5-6.4q.5-.4.6-.8c2.2-.4 7-3.6 8.2-5.2Zm1.8 17.9q.9 7 1.2 14.3c-3-.7-6.2 2-8.5 3.8q-2.2.9-4.3 2.2-8.3 4.6-16.4 9.6.3.8 1 1l-4.5 2.5q-.4-1.3-1.6-.5L107 369.5l-1.8 1.7q0-5.7-1-11.2 1 .1 2-.4zm3.3 37q1 6 .8 12.2-1 .2-1.9.7l-57.8 33.6q-.7-5.1-.6-10.4a1358 1358 0 0 0 33.1-20.2q7.7-4.4 15.2-9.4 5.7-3 11.2-6.5Zm240.6 6.8q0 6.3-.7 12.4-1.2-.5-2.4.1l-59.8 40a3 3 0 0 0-2 1.6q-1.1.3-1.8-.4l1-17.2a125 125 0 0 1 9.7-6q0 1 1.3 1zm-234 80.6q.6 0 .7.6l2.6 11q-1.2 0-2.3.6L122 490l-1 .4c-2.3-1.5-4-5-4.8-7.5q.8 0 1.5-.5 17.2-10.9 34.5-21.4 6.8-4.6 13.8-8.6.8-.6.8-1.5c1.5-2.9 6.8-2.7 7.2-3.7Zm75.8 5q-.2 5.2.4 10.2.5 1.4 1.9 1.8.8.7 1 1.9L200 496.6q-.7.5-.7 1.4-10.4.8-20.6.9l64.3-41.6c.7-.5 3.3-2 1-2.5 1.1-.7 4.5-3.3 5.8-2.5Z"/><path fill="#40454e" fill-opacity=".1" stroke="#40454e" stroke-opacity=".1" stroke-width=".5" d="m326 500 1-.2.3 1.5a3 3 0 0 1-1.7 1.5q-1.7.4-3.5-.2l2.6-2q1.1.5 1.2-.6Z"/><path fill="#555660" d="m334 506.8-1-.1q-2 .3-4 .1h-1c.4-1.2 5.7-1.3 6 0"/><path fill="#4b4d54" fill-opacity=".1" stroke="#4b4d54" stroke-opacity=".1" stroke-width=".5" d="m341.7 502.4 1.3 1.6q-1.5 0-2.8-.4l-.3-.7q.8-.6 1.8-.5Z"/><path fill="#52525b" fill-opacity=".5" stroke="#52525b" stroke-opacity=".5" stroke-width=".5" d="M202.7 13.2q-.5 1-1.7.6.7-.7 1.7-.6Z"/><path fill="#33333c" fill-opacity=".1" stroke="#33333c" stroke-opacity=".1" stroke-width=".5" d="M174.8 54.2q0 .7-.8.5z"/><path fill="#343538" fill-opacity=".4" stroke="#343538" stroke-opacity=".4" stroke-width=".5" d="M223.3 11.1a11 11 0 0 1 4.6.3l-2.6 1.4-2.4-.6z"/><path fill="#565660" fill-opacity=".5" d="m106.3 383.2.9-.4q0 1-.9 1z"/></svg>