<svg xmlns="http://www.w3.org/2000/svg" style="shape-rendering:geometricPrecision;text-rendering:geometricPrecision;image-rendering:optimizeQuality;fill-rule:evenodd;clip-rule:evenodd" viewBox="0 0 512 512"><path fill="#f4b24a" stroke="#f4b24a" stroke-width=".5" d="m267 18.3-30 17a29 29 0 0 1 2.4-12.5c4.4-10.5 21-13 27.7-4.5Z"/><path fill="#f5b34a" fill-opacity=".3" d="M263 41q.6-2 2.6-2c1.1 1.2-1.7 1.7-2.5 2m-3.9 15q-1.5 1 0 0m-3.1 2q1.5-1.2 0 0m94.3 33.3-1.3.7q.3-1.1 1.3-.7M143 120.9a2 2 0 0 1-1 1.4l-9 5.8q0-1-1.3-1.2l.6-.8q1.2-.2 2.3-.9l7-4.1zm136.3 11.4-1.3.7q.3-1.1 1.3-.7m31.7 6.6q.6-1 1.6-1c1.2.8-1 1.3-1.6 1m-117.8 36.3-1.2.8q.1-1 1.2-.8M160 192q-.3 1-1.2.8.4-.5 1.2-.8m-1.7 6.3-1.2.8q0-1 1.2-.8m234 8-1.3.7q.3-1.1 1.3-.7m-48.2 8.7a8 8 0 0 1-5 3c.7-1.7 3-3 5-3m19.9 1q-.1 1-1.3.8zm23 4q-.3 1-1.2.8zm-263.8 1.3-1.2.7q.3-1 1.2-.7m243.1 0-1.2.8q.2-1 1.2-.8m-30 35-1.3.7q.3-1 1.3-.7M376 260q-.3 1.1-1.3.7zm-80.7 2.3-1.3.7q.3-1 1.3-.7M154 271q-.7 2-3 2 .9-2 3-2m156.3.3-1.3.7q.3-1.1 1.3-.7M377 278a7 7 0 0 1-5 3 7 7 0 0 1 5-3m-51.7 18.3-1.2.7q0-1.1 1.2-.7M307 304q0 1.1-1.2.7zm-144 26q0 1.2-1.2.8zm204.1 16.8q-.9 2-3 2.2.8-2 3-2.2m-246.8 12.5-1.3.7q.3-1 1.3-.7m5 15-1.3.7q.3-1.1 1.3-.7M66 386q-.3 1-1.3.8zm13 11q-.3 1-1.3.7zm-20.7 1.3-1.3.7q.1-1.1 1.3-.7m24 3-1.3.7q.1-1.1 1.3-.7m-8 5-1.2.8q.2-1 1.2-.8m27.6 28.5q0 1.1-1 1 .4-.6 1-1"/><path fill="#f5b34a" fill-opacity=".4" d="M263 80c0 .9-1.3 1.6-2 .7a2 2 0 0 1 2-.7m51.3 26.3q-.7.6-1.6.6.6-.6 1.6-.6m-14 13.8q-.5.6-1.4.7.5-.7 1.5-.7m-21 9q-.6 1-1.6.8.7-.6 1.5-.7M152 141c-1 1-1.3 2.4-3.1 2q1-1.8 3-2m44 2c-1 1-1.4 2.3-3 2q.8-1.9 3-2m52 7c-.2.9-1.5 1.6-2 .6q.7-1 2-.5m122 37a2 2 0 0 1-2 1q.5-1.2 2-1m17.2 22-1.3.7q.3-.8 1.3-.7M172 216a7 7 0 0 1-5 3c.8-1.5 3.2-3.1 5-3m210.1 7.2q-.4.8-1.4.8.6-.5 1.4-.8m-49.9 13q-.5.9-1.5.8a3 3 0 0 1 1.5-.8m25.1 7.9-1.2.6q.3-.7 1.2-.6m-60 14.2q-.7.6-1.6.7.6-.6 1.6-.7m-7 6.7q-.4.6-1.2.8.3-1 1.2-.8M159 268q-.9 2-3 2.1.8-2 3-2.2m213.4 1-1.4.7q.3-.8 1.4-.7m-76.4 8.3c.2 1-.9.5-1.3.6q.6-.5 1.3-.6m50.4 6.8-1.3.7q.3-.7 1.2-.7m20.5-.1c.2 1-1.2 1-2 1q.5-1.3 2-1m-61.8 5q-1.2 1.7-3 2 .6-2.3 3-2m-158.2 13c-.6 1.5-3.3 2.8-4.9 3 .8-1.6 3.2-3 5-3m-30 30c.2 1.1-1.2 1-2 1q.7-1.3 2-1m35.4 7.1q-.6.6-1.5.7.6-.7 1.5-.7m-10.2 3.1q-.5.7-1.4.7.6-.5 1.4-.7m-27 2.7q-.7 1.3-2.1 1a2 2 0 0 1 2-1m.8 12.4q-.3.7-1.2.7a2 2 0 0 1 1.2-.7m13 10.8q-.3.9-1.2.9zm-6.6 8-1.5.7q.6-.8 1.5-.7m-32 1.9-1.5.8q.6-1 1.6-.8m175.7 8a5 5 0 0 1-3.1 2.3q.8-2.2 3-2.2M79.3 403q-.7.6-1.6.6.7-.5 1.6-.5m265.4 22.3a3 3 0 0 1 2.8-2.2c1.5 1-1.9 2.4-2.8 2.2"/><path fill="#f5b34a" fill-opacity=".3" d="m207.1 57.2 1-.4q-.2 1-1.3 1.2zm-11 9.5c-.3 1-2 3.2-2.9 2a4 4 0 0 1 2.9-2m135.2 35.6-1.3.7q.3-1 1.3-.8m-141 75-1.3.7q.2-1.1 1.2-.7m172.7 1.6a7 7 0 0 1-5 3.1 7 7 0 0 1 5-3m17 2c-.7 1.5-5.5 4.4-7 4 .7-1.1 5.6-4 7-4m-224.8 19.3-1.2.8q.3-1 1.2-.8M127 211q-.3.9-1.3.7zm229 10q-.3 1-1.2.7zm-235.8 2.2-1.2.8q.1-1 1.2-.8m227.1 9-1.3.8q.3-1 1.3-.7M328 257q-.3 1.1-1.3.7zm-172 13q-.7 1-2 .9.6-1.2 2-.9m198 4q-.2.9-1.2.7zm-61 4.9q-.1 1.2-1.3.7zm-151 26c-.5 1.6-3.5 2.8-5 3q1.8-2.6 5-3m164.3 2.3-1.3.7q.3-1 1.3-.7M296 311q-.1 1-1.2.8zm-188 38c-.6 1.6-3.4 3-5 3q1.8-2.6 5-3m20.3 5.2-1.3.8q.3-1 1.2-.8m5 15-1.2.9q0-1 1.2-.8M85 375q-.3 1-1.3.8zm-18.8 18.2-1.2.8q.3-1 1.2-.8m24 3-1.2.8q.3-1 1.2-.8"/><path fill="#f6b34b" fill-opacity=".3" d="M266 77.9q-.8 2.1-3 2 .9-1.7 3-2M339.8 89q0 1-1.1.9zm-35 23q0 1-1 .9.4-.6 1-1m7.6 1-1.5.7q.4-.8 1.5-.7m-61.4 35q-.9 1.8-3 2.2a3 3 0 0 1 3-2.2M187.3 179l-1 1q-.2-1 1-1m-8.5 2q0 1.1-1.1 1zm5.5 0-1 1q0-1 1-1m173.7 1q-.5 1.3-2 1c-.1-1.1 1.3-1 2-1m-186.3 3q0 1-1 1zm-25.4 15.2a2 2 0 0 1-1.6.8q.6-.6 1.6-.8m6 1.9-1.1 1q0-1.1 1.1-1m195.5 24q-.1 1-1.1.8zm6.5 2q-.7.6-1.5.6a2 2 0 0 1 1.5-.6m-228.4 2.8a3 3 0 0 1-2.8 2.1q.7-2 2.8-2m237 4.2q-.3.8-1.2.8zm6.4 2q-.7.6-1.5.6.6-.6 1.5-.6m-41 6q-.6.5-1.6.6a2 2 0 0 1 1.6-.7m22 4.9q-.4.6-1.2.7.3-.9 1.2-.7m-48 10q-.4.6-1 1 0-1 1-1m17.4 4q0 1.1-1 1zm64.7.1a3 3 0 0 1-1.6.7q.6-.7 1.6-.7m-98.6 2.9q0 1-1 .9zm72.5 12-1 1q-.1-1 1-1m-26.6 11q0 1-1 1zm-168.4 44.2-1 .7q0-1.1 1-.7m-7.5 1.8q0 1-1.1 1zm-19 11q0 1-1 .9zm-.5 4.1-1 .9q0-1 1-.9m110.8 15a8 8 0 0 1-5.2 3c1-1.6 3.2-3.4 5.2-3m-145.7 7-1 .9q-.2-1 1-1m15.3 3.9q0 1-1 1zm-58 15q.1 1-1 1zm32.6.3q-.7.6-1.5.6.7-.4 1.5-.6m7 .7-1 .9q0-1 1-.9m-26.5 10q0 1-1.2.9zm-16.5 17-1 1q0-1 1-1"/><path fill="#f5b34a" fill-opacity=".4" d="M262 67c0 .7-1.3 1.7-1.8.7q.6-1 1.7-.8m83.3 27-1.2.8q.3-.9 1.2-.7M214 161q-.9 2-3 2a3 3 0 0 1 3-2m-30 17.2q-.3.8-1.4.8.8-.6 1.5-.8m-2.7 4.9-1.5.6q.7-.6 1.5-.6m-35 23-1.4.7q.4-.8 1.4-.7m-6 4-1.5.7q.5-.9 1.4-.7m249.9 8.1a2 2 0 0 1-1.5.7zM334 221q-.6 1.3-2 1 .5-1.3 2-1m27.3 3.1q-.6.6-1.4.7.5-.8 1.4-.7m22 5-1.2.7q.3-.9 1.2-.7m-70.2 19q-.4.8-1.4.8.8-.6 1.4-.7m77.2 3a2 2 0 0 1-1.7.8zm-59 8-1.3.6q.4-.6 1.2-.7M175 271.8q-.5 1.4-2 1.1.5-1.3 2-1m182.2.4q-.6.8-1.5.6zm-58 37q-.5.7-1.4.5.6-.4 1.3-.5m2 .8-1.1.7c-.4-1 .6-.7 1.2-.7M115 332.9c-.5 1.2-4.1 4-5 2.8 1-1.3 3.2-2.7 5-2.8m33.9 5.4q-.3.7-1.2.7zm-36 7.6a7 7 0 0 1-5 3q2-2.3 5-3m4.3 15q-.6.6-1.4.8.5-.7 1.5-.7m241.9 20c-.4.9-2 2.8-3 1.7.1-1.3 2-1.5 3-1.8m-121.2 6q-.8 2.2-3 2a4 4 0 0 1 3-2M87.3 398q-.6.8-1.5.9.7-.8 1.5-.8"/><path fill="#f6b34a" fill-opacity=".4" d="M352.3 90q-.5.6-1.3.7.4-.7 1.3-.7m-19 11-1.3.8q.4-1 1.4-.8m-16.2 3.3q-.4.8-1.4.6zM143 120.9a4 4 0 0 1 1.7-1.6q2.5-.3.5 1.3-1.1.5-2.2.3m165 20c0 1-1.4 1.7-2 .8a2 2 0 0 1 2-.7m-150 52.3q-.3 1-1.4.8.7-.6 1.4-.8m236.1 4q-.5.8-1.4.8a3 3 0 0 1 1.4-.8m-8 5q-.5.7-1.4.7zM375.3 216l-1.3.8q.3-1 1.3-.8M202 227q.7-1 1.6-1.1c1.2.8-1 1.3-1.6 1m145.4 18.3a2 2 0 0 1-1.6.7q.7-.6 1.6-.7m-8 4.9q-.7.7-1.6.7.8-.5 1.5-.7m6 1-1.3.5q.4-.6 1.3-.6m-7 3.9q-.6.5-1.3.6.4-.7 1.3-.6m-179.3 13q.5-1 1.6-1c1.1.8-1.1 1.3-1.6 1m153.4 2.2-1.4.7q.4-.8 1.4-.7m41 10-1.5.7q.5-.9 1.4-.7m-60.2 1q-.5.4-1.1.6c-.4-.8.7-.5 1-.6m8.8 10c-.3.7-1.4 1.4-2 .5q.8-.9 2-.6m-134 36.2c.2.9-.9.5-1.4.7zm-7 3.9q-.4.9-1.3.8zm-.7 2.8-1.5.8q.6-.8 1.5-.8M90 372.3q-.3.8-1.2.6zm8.4.8q-.7.4-1.6.6.7-.6 1.6-.6M442 382c-.5.9-2 2.4-3 1.6q.9-1.9 3-1.6m-371 1.3q-.5.8-1.4.6.6-.4 1.3-.6m32 0q-.4.8-1.4.7.6-.5 1.3-.7m-39.1 4q-.3.7-1.2.7zm35 48.9 1-.2q-.3 1-1.3 1z"/><path fill="#c18f38" fill-opacity=".1" stroke="#c18f38" stroke-opacity=".1" stroke-width=".5" d="M131.9 311.2q0 .8-.9 1.2l-15 9.3q-.7.4-1.6 0-.6-.6-.3-1.3l15.8-9q1-.4 2-.3Z"/><path fill="#f6b44b" fill-opacity=".2" d="M327.9 97q0 1-1.2.7zm-35 23q0 1-1.2.7zm-100 53q0 1.1-1.2.7zm-26 15q0 1.1-1.2.7zm-2.6 6.3-1.2.8q.2-1 1.2-.8M380 205.9q0 1.2-1.2.8zm-1.5 8.4-1.3.8q0-1.2 1.3-.8m-246 1-1.3.8q0-1 1.2-.8m185.5 29.6q-.2 1-1.2.8zm30.4 4.4-1.2.8q0-1 1.2-.8m-41 6-1.2.8q.2-1 1.2-.8m54.6 13.6q-.2 1-1.2.8zm-80.6 1.4-1.2.7q0-1.2 1.2-.7m82 4-1.2.8q.2-1 1.2-.8M137 308a7 7 0 0 1-5 3.2q1.8-3 5-3.2m209.1 21c-.4 1.8-3.4 2.8-5 3 .8-1.7 3-3 5-3m-195.2 8q-.1 1.1-1.3.8zm-39 41q-.2 1-1.2.8zm-59 15.2 1-.1q0 1-1.2 1.1zm40.4 1.2-1.2.8q.1-1.1 1.2-.8"/><path fill="#f4b34a" fill-opacity=".4" d="M263 41a2 2 0 0 1-2 1q.7-1.2 2-1m79.7 46q0 1.1-1 .9zm-4.4 11a2 2 0 0 1-1.4.7q.5-.7 1.4-.7m-194.7 10.2q.4-1.5 1.9-1.4c1.2 1-1.3 1.4-1.9 1.4m164.1 1.8q0 1-1 1zM273 133q-.1 1-1.2 1 .4-.6 1.2-1m-5.6 6.2q-.7.5-1.6.5.6-.7 1.6-.5m-147.2 76q-.4.8-1.3.8.6-.5 1.3-.8m54 13.8a8 8 0 0 1-5.1 3.1c.4-1.5 3.6-3.2 5-3.2m124.3 49q-.6.7-1.3.8.2-1 1.3-.7m22.4 17q0 1-1.1 1zm-7.6 8.1q-.5.6-1.3.7.4-.7 1.4-.7m24.8 31a2 2 0 0 1-2 1q.5-1.3 2-1m-233.8 30.2q-.7.6-1.5.5zm-26 14.9q-.5.9-1.4.8.5-.6 1.3-.8m-3.9 8.8-1 1q0-1.1 1-1m-9.1 17.3q-.6.7-1.6.7.7-.6 1.6-.7m298.7 21a3 3 0 0 1 2.6-2.2c1.3 1-2 1.9-2.6 2.1"/><path fill="#d69f3f" fill-opacity=".2" stroke="#d69f3f" stroke-opacity=".2" stroke-width=".5" d="M275.2 45.1q.5.5.5 1.2.2.4-.2.7l-15.2 8.8q-.6.2-1.2.1a4 4 0 0 1 1.5-1.8q6.5-3.9 12.8-8.2.8-.5 1.8-.8Z"/><path fill="#e6a546" fill-opacity=".2" stroke="#e6a546" stroke-opacity=".2" stroke-width=".5" d="M360.7 204.2q.5 1 1.4 1l-16 9.4a4 4 0 0 1-2 .4q0-.9.9-1.3z"/><path fill="#f6b249" fill-opacity=".3" d="M265 64.9q-.7 2.2-3 2a4 4 0 0 1 3-2m-17 55a4 4 0 0 1-3 2.1q.9-2.1 3-2m38.2 8.3-1.2.8q.2-1 1.2-.8M270 135q-.3 1-1.2.8zm-131 1q-.9 1.9-3 2a3 3 0 0 1 3-2m244 68q-.3 1-1.2.7zm-9.7 13.3-1.3.7q.3-1 1.3-.7M371 230q-.3 1-1.2.8zm-50 13q-.3 1-1.2.8zm15 9q-.3 1.1-1.3.7zm-18.7 15.3-1.3.7q.3-1 1.3-.7m-42.6 6 1.4.2-1 .5zm32.4 14.8q-.7 1-2 1 .5-1.5 2-1m25.2 4.2-1.3.7q.3-1 1.3-.7m-54.4 30.6q-.9 2-3 2.2.8-2 3-2.2m-134.8 37q-.2 1.1-1.4.9z"/><path fill="#f5b249" fill-opacity=".3" d="M337 91q-.3 1-1.3.8zm-35 23q-.1 1-1.2.8zm-35 23q-.1 1.1-1.3.7zm-115 18c-1 1.8-3.4 2.7-5.3 3.3 1-1.7 3.4-3.5 5.4-3.2m1 41q-.3 1.1-1.3.7zm238 3q-.2 1.1-1.3.7zm4.2 23.2q-.4.6-1.2.8 0-1 1.2-.8M379 225q-.3 1-1.3.7zm9.3 1.3-1.3.7q.3-1.1 1.3-.7M329 238q-.2 1.1-1.3.7zm33.3 3.3-1.3.7q.3-1 1.3-.7m-19 11-1.3.7q.3-1 1.3-.8M294 260q-.3 1-1.3.7zm83.3 6.3-1.3.7q.3-1 1.3-.8m-12.3.7q-.3 1-1.2.8zm-73.7 15.2q-.6.5-1.3.8 0-1.2 1.3-.8m-136 55-1.3.8q.3-1 1.2-.8M111 360q-.3 1-1.3.7zm13 11q-.3 1-1.3.7zm-30.7 5.2-1.3.8q.3-1 1.3-.8M98 386q-.3 1-1.3.7z"/><path fill="#eb924b" fill-opacity=".8" d="M110.8 430.3q-.6.1-.8.8l-.7.5q-.6-.6-1.4-.7c.6-1.9 4.1-2.8 5.8-3.9q.8-.2 1.2.3a6 6 0 0 1-4.1 3m-3 .6-.2 1.2-1.3.3q-.3-1.7 1.5-1.5m-1.5 1.5c-.5 1.4-3 2-4.4 2.4q-.6.3-1 1l-.8.2-1 .2q.3-1.2 1.2-2.1 2.3-.5 4.4-1.9zm-7.2 3.8-.3.8h-1q.3-.8 1.3-.8m-1.3.8q0 .8-.7.9z"/><path fill="#a1772f" fill-opacity=".1" stroke="#a1772f" stroke-opacity=".1" stroke-width=".5" d="M390.7 161a2 2 0 0 1 0 2.2q-.1.8-1 1-5 2.5-9.6 5.4a4 4 0 0 1-2.5.4l-.5-.3q6.8-4.2 13.5-8.6Z"/><path fill="#edac48" fill-opacity=".2" stroke="#edac48" stroke-opacity=".2" stroke-width=".5" d="M167 219q-.3.9-1 1.3-6.8 4.5-13.7 8.6-.5-.9-1.4-1.3l14-8q1-.6 2-.6Z"/><path fill="#edaa48" fill-opacity=".2" stroke="#edaa48" stroke-opacity=".2" stroke-width=".5" d="M168 276q-.9 1.5-2.4 2.2l-12.2 7.7a2 2 0 0 0-1.5-1.2l14-8.1q1-.6 2.1-.6Z"/><path fill="#f4b349" fill-opacity=".4" d="M293.4 124.1q-.6.6-1.4.7.4-.9 1.4-.7m-19 11q-.6.5-1.3.7.3-.8 1.2-.8m-83.5 39q-.3 1-1.3.9.6-.6 1.3-.8m183.8 35q0 1-1 .8zm5.6 4-1.3.7q.3-.9 1.3-.7M202 227q-.8 2-2.9 2.2a3 3 0 0 1 3-2.2m-73.8 3.2q-.9 1-2.2.9.8-1.2 2.2-1m188.2 20-1.3.7q.3-.9 1.3-.7m8 13q-.6.6-1.5.6.6-.7 1.6-.6m-12.2 4q-.5 1-1.4.8zm-29 2-1 .7q0-.9 1-.6m59.7 12q-.1 1-1.1.8zm-3.6 7q-.6.5-1.4.7.5-.8 1.4-.8M309.8 302q0 1-1.2 1zm-165.5 42a3 3 0 0 1-1.5.8q.5-.9 1.5-.8m-14.1 5.2q-.6.7-1.5.7zm5.7 15q-.3.8-1.3.8zm-26.6 1.9-1.4.7q.3-.8 1.4-.7m-27 17a3 3 0 0 1-1.5.7q.5-.7 1.4-.7m24 3q-.8.6-1.5.7.5-.8 1.4-.7m-51 13.9q-.6.6-1.4.8.4-.9 1.5-.8"/><path fill="#d89f3f" fill-opacity=".2" stroke="#d89f3f" stroke-opacity=".2" stroke-width=".5" d="M260.7 111.4q0 .9 1 1.3l-11.7 6.8q-.8.5-2 .4.7-1 1.6-1.6l10.3-6.8z"/><path fill="#edaf45" fill-opacity=".2" stroke="#edaf45" stroke-opacity=".2" stroke-width=".5" d="M377.1 169.7q.3 0 .5.3.3.5 0 1c-2.4 1.5-12.5 8-14.6 8q.3-.8 1-1.4z"/><path fill="#d79b40" fill-opacity=".2" d="M263.8 139.3q0 1.2 1.2 1.3a145 145 0 0 0-12 7.2q-1 .3-2 0 .7-.8 1.6-1.4z"/><path fill="#ebae44" fill-opacity=".3" stroke="#ebae44" stroke-opacity=".3" stroke-width=".5" d="m286 79.2 1 1.3-12 7q-1 .6-2 .4.6-1 1.6-1.7z"/><path fill="#eab042" fill-opacity=".2" stroke="#eab042" stroke-opacity=".2" stroke-width=".5" d="m235 389-.5.9q-5.5 3.4-11 7.2-.8.4-1.7.6-.1-.9-1-1.2 6.6-3.6 12.8-7.4.8-.2 1.4-.1Z"/><path fill="#f7b747" fill-opacity=".2" stroke="#f7b747" stroke-opacity=".2" stroke-width=".5" d="M197 230c-1 2-6 4.6-8 5.3l-1-.2q2-1.8 4.4-3.1 2.2-1.4 4.5-2Zm185 44.6 1 .2c-1.3 1.4-4.2 3.2-6 3.2.5-1.8 3.3-2.9 5-3.4Z"/><path fill="#f4b34a" fill-opacity=".4" d="M165 189.2q-.3.8-1.3.6zM149.3 204l-1 1q-.2-1 1-1m190.9 27.3a2 2 0 0 1-1.6.6q.7-.6 1.6-.7m15 8.9q-.6.7-1.5.8zm-45.8 14-1.4.6q.4-.9 1.4-.7m69.7 4q-.4.9-1.5.8.7-.6 1.5-.8m-101 12q-.3 1-1.4.8.6-.6 1.4-.8m-105 2.8c-1 1.5-3.2 3.1-5 3 .6-1.7 3.3-2.8 5-3m192.3 0q-.7.6-1.5.7.5-.7 1.5-.6m-90.5 52c.2 1.2-1.3 1-2 .9q.7-1.1 2-.8m89.2 24q-.6 1.3-2.1 1 .5-1.5 2-1m-254.2 30.2q-.3.9-1.2.7zm-46.6 33.9-1.6.7a2 2 0 0 1 1.6-.7"/><path fill="#f3b34b" fill-opacity=".2" d="M331 95q-.2 1.1-1.3.7zm-145 82q-.3 1-1.3.7zm199.3 33.3-1.2.7q0-1.1 1.2-.7m-13.4.6q-.2 1-1.2.8zm-42.6 49.4-1.2.7q.2-1 1.2-.7m-20.4 8.6q-.2 1-1.2.8zM151 273c-.3 1.6-3.7 3-5.1 3.3q1.7-3 5.1-3.3m19 53 .1 1.3-1.2-.8zm272 56q.6-1.8 2.6-1.9c1.3 1.1-1.7 2-2.5 2m-369 0q-.3 1-1.3.8zm34.8 49q.8 0 1.5.7l-1.7.5z"/><path fill="#f7b44a" fill-opacity=".2" d="M254 5h-2.3c.3-1.4 2.1-1.2 2.4 0m18.3 131.3-1.2.7q.2-1 1.2-.7m-76 37-1.2.7q0-1.2 1.2-.7M141 202.9q-.2 1-1.2.8zm-11.6 14.4-1.2.8q0-1.2 1.2-.8M360 236.9q0 1-1.2.8zm-26.6 3.4-1.2.8q.2-1 1.2-.8M317 263.9q-.2 1.1-1.2.8zm-34 3q0 1.2-1.2.8zm68 9q0 1.1-1.2.8zm-11 7q-.2 1-1.2.8zm-21.6 17.4-1.2.7q.2-1 1.2-.7m-179 47-1.2.8q0-1.1 1.2-.8M99 366.9q0 1.1-1.2.8zm10.4 17.4-1.2.8q0-1 1.2-.8m-32 2-1.2.8q0-1.1 1.2-.8m24 3-1.2.8q0-1.1 1.2-.8M60 407.9q-.2 1-1.2.8zm-1.6 8.4-1.2.8q0-1 1.2-.8"/><path fill="#f4b348" fill-opacity=".3" d="M299 116q-.3 1-1.3.7zm-137.7 80.3-1.2.8q0-1.2 1.2-.8M133.9 207q0 1-1.2.7zm261.1 7.9q-.2 1-1.3.8zm-54.7 21.4-1.3.7q.3-1 1.3-.7m30 34-1.2.7q0-1.1 1.2-.7m-69.4 3.6q0 1-1.2.8zM275 291.2a8 8 0 0 1-5 3 6 6 0 0 1 5-3m43 5.8q-.3 1-1.3.8zm-18.7 14.4-1.3.7q.2-1.1 1.3-.7m-152 31-1.2.8q0-1 1.2-.8m-30 37-1.2.7q0-1.1 1.2-.7m-32 2-1.2.7q0-1.1 1.2-.7m19.7.7q-.3 1-1.3.8z"/><path fill="#f5b34a" fill-opacity=".5" d="M307.3 116q-.6.6-1.3.7.4-.7 1.3-.6M155 153q.6-1 1.6-1c1.2.7-1 1.2-1.6 1m198 32c-.3.6-1.3 1.6-1.9.7q.7-.9 2-.7m-177.7 2.1q-.7.6-1.5.7.6-.7 1.5-.7m219 18-1.2.6q.3-.7 1.2-.6m-30 34.9q-.5.6-1.2.8.3-.8 1.3-.8m28.9 9.3q-.5.7-1.4.7.6-.6 1.4-.7m-96 11.8-1.3.7q.5-.8 1.4-.7m-8 2.2a3 3 0 0 1-1.6.7q.7-.6 1.7-.7m90 1.8q-.5.4-1.2.6.3-.7 1.3-.6m-66 35.1a2 2 0 0 1-1.5.8q.7-.6 1.5-.8m-178.1 46q-.5.8-1.4.8zM247 364a3 3 0 0 1 2.5-2c1.5 1.3-1.6 2.1-2.5 2m-9.2 23q.4-1.1 1.6-1.1c1.3.8-1 1.3-1.6 1"/><path fill="#f6b34b" fill-opacity=".3" stroke="#f6b34b" stroke-opacity=".3" stroke-width=".5" d="M149 143c-.5 1.5-8.2 6-10 7v-1.4q3.8-2.7 8-5 1-.6 2-.5Zm50 86q-.8 1.1-2 1 .5-1.3 2-1Zm-76 4c-.2.7-1.4 1.7-2 .7q.8-1 2-.7Z"/><path fill="#ebb040" fill-opacity=".2" stroke="#ebb040" stroke-opacity=".2" stroke-width=".5" d="M292.6 313.1q.6.9 1.5 1.3l-9 5.2q-1 .4-2.2.3c1.8-2.4 7.1-5 9.7-6.8Z"/><path fill="#ebaa46" fill-opacity=".2" stroke="#ebaa46" stroke-opacity=".2" stroke-width=".5" d="M315.8 330.1q.3.9 1.3 1.2a71 71 0 0 0-9 5.3q-.9.5-1.8.5 0-.9.6-1.5z"/><path fill="#f6b34a" fill-opacity=".4" d="M326.2 105q-.4.6-1.2.8.3-1 1.2-.8m29.8 78q-.9 2-3 2 .9-1.9 3-2m-177.7 2q-.7.6-1.5.7.6-.7 1.5-.7M132 208q-.3 1-1.3.8zm11.3 0q-.7.5-1.6.6.7-.6 1.7-.6m215.9 11.2q-.5.8-1.5.6zM177 227c-1 1-1.5 2.3-3 1.9a3 3 0 0 1 3-1.9m165.2 8-1.2.7q.3-.8 1.2-.7m-7.2 51q-.5.8-1.4.9.6-.6 1.4-.9m-209.7 70q-.7.6-1.5.7.5-.7 1.5-.7m5 15.1a3 3 0 0 1-1.6.6q.7-.6 1.6-.6m-67 23.9q-.7.6-1.6.7.7-.6 1.5-.7"/><path fill="#db9e42" fill-opacity=".2" stroke="#db9e42" stroke-opacity=".2" stroke-width=".5" d="M136 138q-.3.9-1 1.3-4 2.4-8 5.2-.7.6-1.7.2-.5-.7 0-1.5 4.4-2.2 8.7-4.8 1-.5 2-.3Z"/><path fill="#e7a649" fill-opacity=".2" d="M276.2 71.3q0 1 .9 1.1l-9.7 5.5H266l8.3-6q1-.5 2-.6"/><path fill="#e8a746" fill-opacity=".2" d="M169 232.1c-1 1.5-8.3 6.3-10 6.5l-1-.3q.4-1 1.3-1.5 4-1.9 7.7-4.4 1-.4 2-.3"/><path fill="#e8a846" fill-opacity=".2" stroke="#e8a846" stroke-opacity=".2" stroke-width=".5" d="M274.6 58.2q.6.8 1.5 1.2l-9 5.3a4 4 0 0 1-2.1.2q.3-.7 1-1.2z"/><path fill="#e8a748" fill-opacity=".2" stroke="#e8a748" stroke-opacity=".2" stroke-width=".5" d="M284.8 284.2q.3 1 1.3 1l-9 5.3q-1 .6-2 .6.4-1.2 1.5-2z"/><path fill="#c58f3d" fill-opacity=".1" stroke="#c58f3d" stroke-opacity=".1" stroke-width=".5" d="m383 274.8-.9-.2q.2-.7.8-1 3.7-1.8 7-4.3 1.2-.8 2.2.2-.3.7-1 1-4 2.4-8 4.3Z"/><path fill="#d19b44" fill-opacity=".9" d="M452.2 435.2a3 3 0 0 1-1.9 1.2c-.4-1.2 1.2-1.3 2-1.2m-1.9 1.2-1.2.5-1.4.8h-1a1 1 0 0 0-.8 1c-1.3.4-3.7.8-4.3-.8 2.4-.9 6.3-2.2 8.7-1.5"/><path fill="#f6b747" fill-opacity=".3" stroke="#f6b747" stroke-opacity=".3" stroke-width=".5" d="M211 163c-1.8 2.7-4.8 3.4-7 5.4l-1.2.3-.7-.5c.3-1 7.5-5.4 9-5.2Z"/><path fill="#e4a448" fill-opacity=".2" d="M241.9 367c-1.1 2.2-5.9 4.6-8 5.8q0-.9-.7-1.4 3.5-1.8 6.8-4 .9-.4 1.9-.4"/><path fill="#f7b24b" fill-opacity=".3" stroke="#f7b24b" stroke-opacity=".3" stroke-width=".5" d="M193 145c-.5 1.6-6.5 5-8.2 5.3h-.8a16 16 0 0 1 4.3-3.3c1.6-.5 3.1-2.2 4.8-2Z"/><path fill="#f7b845" fill-opacity=".2" stroke="#f7b845" stroke-opacity=".2" stroke-width=".5" d="M392 173v1.3c-1.5 1.2-5 4-7 3.6.9-2 5.2-3.6 7-5Z"/><path fill="#b6833a" fill-opacity=".9" d="M236 502q3.5.7 7 1.7l-.8.6q-.8 0-1.3.5-2 .3-3.6-.8-.6-.8-1.3-1.3z"/><path fill="#e13c51" fill-opacity=".4" stroke="#e13c51" stroke-opacity=".4" stroke-width=".5" d="M381.2 80.9a2 2 0 0 0-1.4-1.2q2.7-1.2 5.1-3 1-.6 2-.3c-.1 1.1-4.7 3.5-5.7 4.5Z"/><path fill="#f6b249" fill-opacity=".3" d="m343.3 95.3-1.2.8q0-1 1.2-.8M296 117.9q-.2 1-1.2.8zm63.4 107.4-1.2.7q0-1.1 1.2-.7M283 319.9c-.4 1.8-3.2 3.1-5 3q2-2.4 5-3"/><path fill="#eb904b" d="m178.2 379.2-2.5 2.9-3.2 1q-.3-.5.1-1c1.5-1.2 3.6-3.2 5.6-3"/><path fill="#dba042" fill-opacity=".2" d="M350.7 325.2q.4 1 1.4 1-2.1 1-4 2.4-1 .5-2 .3c.8-1.8 3-2.7 4.6-3.7"/><path fill="#be8d39" fill-opacity=".1" d="M184 150.3h.8c-.5 1.4-3.2 2.7-4.5 3.4q0-1-1.1-1.2c1-.7 3.5-2.6 4.8-2.2"/><path fill="#c53a4c" fill-opacity=".3" stroke="#c53a4c" stroke-opacity=".3" stroke-width=".5" d="m125.8 446.2-2.1 2.8-3.2 1.1q-.5-.9.5-1.4 2-1 3.6-2.5.6-.3 1.2 0Z"/><path fill="#bd8a3b" fill-opacity=".2" d="m188 235 1 .3q-2.2 2.3-5 3.3 0-1-1-1 2.3-1.5 5-2.5"/><path fill="#c18b3b" fill-opacity=".1" d="M202 168.2q.5 0 .8.5-2.1 1.8-4.6 3 0-1.1-1.3-1 2.5-1.7 5.2-2.5"/><path fill="#f6b34b" fill-opacity=".3" stroke="#f6b34b" stroke-opacity=".3" stroke-width=".5" d="M310 286q-1 1.8-2.9 2 .6-2 2.9-2Zm31 46a4 4 0 0 1-3 2q.8-2.1 3-2Z"/><path fill="#e8aa48" fill-opacity=".8" d="m112 154.2 1-.2a10 10 0 0 1-1 5.4c-1.7-.5-.9-4.1 0-5.2"/><path fill="#ad3646" fill-opacity=".6" stroke="#ad3646" stroke-opacity=".6" stroke-width=".5" d="M397.2 52q.4.1.5.6a19 19 0 0 1-3.4 3.2c0-1.8 1.4-3.2 3-3.8Z"/><path fill="#f3b44b" fill-opacity=".3" d="M352 242q-.3 1-1.3.7zm3.4 3.3-1.3.7q0-1.1 1.2-.7m-41 6-1.3.8q0-1.1 1.2-.8m-26 15-1.3.7q.2-1.1 1.2-.7m56 19-1.3.7q0-1.1 1.2-.7m-15.5 4.6q0 1-1.2.8zm-198 77q0 1.1-1.2.8z"/><path fill="#f6b149" fill-opacity=".2" d="m317.3 110.3-1.2.8q.2-1 1.2-.8m57 124-1.2.8q.1-1 1.3-.8m15 25-1.2.8q.2-1 1.2-.8m-223 71-1.2.7q0-1.2 1.2-.7M125 352q0 1-1.2.8zm-20.6 17.4-1.2.8q0-1.1 1.2-.8M86 393q-.3 1.1-1.3.7z"/><path fill="#f6b449" fill-opacity=".4" d="M282.2 127.3a2 2 0 0 1-1.6.6 3 3 0 0 1 1.6-.6m-.8 3.8-1.5.6q.6-.7 1.5-.6m87 89-1.3.7q.3-.9 1.3-.7m-44.2 21.1q-.7.7-1.5.7a3 3 0 0 1 1.5-.7m7 14q-.6.7-1.5.7zm-7 38q-.6.8-1.6.8zm3 1.9q-.4.4-1.2.7.3-.8 1.3-.7"/><path fill="#9d773a" fill-opacity=".6" d="M124.7 120.8q-.1.8-1 .8zm-1 .8c.5.8.3 3-.9 2q0-1.2.9-2m-.9 2q.6 1.8-.5 3.5c0-1-.5-3 .5-3.5"/><path fill="#c1394a" fill-opacity=".6" d="M434.2 4.8A6 6 0 0 1 430 6l.1-.8c.7-.8 3.6-1.9 4.1-.4"/><path fill="#dba146" fill-opacity=".9" d="M118 137.7q-.4 2.7-1.7 5.3-.6-1.5 0-3a3 3 0 0 1 1.7-2.3"/><path fill="#f4b44b" fill-opacity=".3" d="M334 93q-.3 1-1.3.7zm10 154q-.3 1-1.3.7zm43 6q-.3 1-1.3.7zm-85 2q-.3 1-1.3.7zM92 371q-.3 1-1.3.8zm-39 41q-.3 1-1.2.8zm252.3-294.7-1.3.7q.3-1 1.3-.7m-179 102-1.2.8q.1-1 1.2-.8m210.6 13.6q0 1-1.2.8zm-27 17q0 1.1-1.2.8zm41.4 31.4-1.3.7q.3-1 1.3-.7"/><path fill="#f3b249" fill-opacity=".3" d="m298.3 121.3-1.2.8q0-1 1.2-.8M345 227.9q0 1.1-1.2.8zM144 341q0 1.1-1.2.8zm-31.6 23.4-1.2.8q.1-1 1.2-.8m-46 47-1.2.8q.1-1 1.2-.8"/><path fill="#ac823d" fill-opacity=".9" d="M110 168.7c-.1 1.7.4 4.2-.9 5.6q.3-2.3.2-4.4 0-.9.7-1.3"/><path fill="#f5b34a" fill-opacity=".4" d="M346.2 85.2q-.6.7-1.5.7.7-.6 1.5-.7M272.9 88c.1.9-1.1 1.8-1.7.8q.6-1 1.7-.8m38.4 20.4q-.7.6-1.5.7a2 2 0 0 1 1.5-.7m8 .7q-.5.6-1.3.8.4-.8 1.3-.8m-74.2 13c-.3.8-1.4 1.7-2 .7q.6-1 2-.7m31 9.2q-.4.9-1.4.8zm-137 4.7q.3-1 1.4-1c1.1.7-.9 1.3-1.4 1m172 3q-1 2-3 2 .8-1.8 3-2m-156.2 14q-.8 1.8-2.9 2.2a3 3 0 0 1 3-2.2m-45.7 17q.2 2.3 0 4.4c-1.7-.2-2-4.7 0-4.4M373 185a4 4 0 0 1-3 2.2q.9-2 3-2.1m-234 19.3q-.3.9-1.3.7zm228.2 10q-.7.7-1.5.7zm-28.2 3.9a8 8 0 0 1-5 3c1-1.6 3.1-3.2 5-3m37.3 15-1.2.7q.3-.9 1.2-.7m-41 6-1.2.7q.3-.9 1.3-.8m-30 14.2q-.6.7-1.6.7.7-.6 1.6-.7m86 4.8q-.6.4-1.3.6.4-.7 1.4-.6m-23.2 7.1q-.4.7-1.3.8.6-.6 1.3-.8m-64 7q-.5.9-1.4.8.6-.6 1.4-.7m1.3 1.9-1.5.7q.4-.8 1.5-.7m66.6 6.8c-.8 1.7-3.2 3.2-5 3q2-2.2 5-3M270 294a7 7 0 0 1-5 3 6 6 0 0 1 5-3m50.4 5.1q-.6.5-1.3.7.3-.9 1.3-.7m-197.5 54.1q-.2 1-1.1.8.4-.6 1-.8m-25.8 15q-.5.8-1.4.8.6-.6 1.4-.7m17.3 12.8q-.8.5-1.7.8.7-.7 1.6-.8M325.8 393q.8-1.9 2.7-2.2c1.1 1.3-2 1.9-2.7 2.2m-242 1.1q-.2 1-1.1.8.5-.6 1.2-.7m-12.5 13.9-1.4.7q.5-.7 1.4-.7M58 409q-.2 1-1.1.9z"/><path fill="#926f38" fill-opacity=".9" d="M251.7 5h3.4c-.3 1.3-4.4.6-5.4 1q.6-1.2 2-1"/><path fill="#7d5728" fill-opacity=".1" stroke="#7d5728" stroke-opacity=".1" stroke-width=".5" d="M273.2 273.3q.7-.5 1.6 0 0 .4.3.7-1.3 1-2.9.8v-.5z"/><path fill="#7b5925" fill-opacity=".1" d="m324.9 277.3.4.3q-1.5 1.5-3.6 1.6.6-2.5 3.2-2"/><path fill="#7a5926" fill-opacity=".1" d="M139 148.6v1.4l-1.5 1q-.8 0-1.5-1z"/><path fill="#f5b34a" stroke="#f5b34a" stroke-width=".5" d="M385 140c1.6.7 2.8 7.5 3.1 9.2q-1 .1-1.7.7-15.7 9.6-31.1 19.7-1.4 1.2-3 1.5c5.2-8.1 12-15.9 18-23.4q1 .9 2 0zm9 146.8q.5 5.5.2 11.1-1.2 0-2.2.7l-41.3 26.6c-1.6 1-3.8 1.9-4.6 3.7-2 0-4.2 1.3-5 3q-2.4 0-3 2.1-1.5-.2-2 1-2.2-.1-3.1 1.6c1 1 2.5-.6 3-1.5a2 2 0 0 0 2-1q2.1-.5 3-2.1c1.7-.3 4.7-1.3 5-3.1q1.1.2 2-.3 2-1.4 4-2.3l42.3-24.5c1 1.2.5 9.2 1 11.3q-1.3-.4-2.4.2L346.2 344c-1 .7-5 2.3-5 3.7a861 861 0 0 0-48.3-1.8q6.9-4.2 13.4-8.8 1 0 1.7-.5 4.5-3 9.1-5.3z"/><path fill="#f5b44a" fill-opacity=".5" d="M336 335c-.5 1-2 2.6-3 1.6q.9-1.8 3-1.5"/><path fill="#f6b449" fill-opacity=".2" d="M116.3 140q-.6 1.5 0 3c-2 .2-2-3.2 0-3"/><path fill="#f4b14a" fill-opacity=".3" d="m324.3 106.3-1.3.7q.3-1 1.3-.7m57 124-1.3.7q.3-1 1.3-.7M118 356q-.3 1.1-1.3.7z"/><path fill="#e13e53" fill-opacity=".2" stroke="#e13e53" stroke-opacity=".2" stroke-width=".5" d="M121.2 407h1.9q-.8 1.5-2 2l-.4-1.1z"/><path fill="#f5b44b" fill-opacity=".3" d="M372.1 145h.7q0 1.2-1 1.1zm-50.8 102.3-1.3.7q.3-1.1 1.3-.7m125.4 190.5q.2 1-.8.8 0-.6.8-.8"/><path fill="#e23e51" fill-opacity=".3" stroke="#e23e51" stroke-opacity=".3" stroke-width=".5" d="M92 459.9q-.5 1.4-1.7 2l-.5-1.2q.9-1 2.2-.8Z"/><path fill="#f6b249" fill-opacity=".2" d="m291.3 125.3-1.2.8q0-1.1 1.2-.8M368 231.9q-.2 1-1.2.8zM138 363q-.2 1-1.2.8z"/><path fill="#f3b248" fill-opacity=".2" stroke="#f3b248" stroke-opacity=".2" stroke-width=".5" d="M337.6 439h2.7c-.3 1.3-2.2 1.1-2.7 0Z"/><path fill="#a77e3d" fill-opacity=".7" d="m170.1 327.2 1-.1-.8 1zm.2.8q-.3.9-1.1 1 0-1 1-1"/><path fill="#937039" fill-opacity=".8" d="m118 304.3-.7 1q-.3-1 .7-1"/><path fill="#de3d51" fill-opacity=".5" d="M73.2 470q-.4 1-1.6 1.1.4-1 1.6-1"/><path fill="#916f38" fill-opacity=".7" d="M143 363q-.3.6-1 .7.3-.7 1-.8"/><path fill="#f5b248" fill-opacity=".2" d="m136.3 367.3-1.2.8q.1-1 1.2-.8"/><path fill="#e33d50" fill-opacity=".2" stroke="#e33d50" stroke-opacity=".2" stroke-width=".5" d="m430.1 5.2-.1.8h-1.3q.4-1 1.4-.8Z"/><path fill="#d3973f" fill-opacity=".4" d="M242.2 504.3q-.5.6-1.3.5.5-.6 1.3-.5"/><path fill="#c79542" fill-opacity=".8" d="m53 393.1-.3 1h-.8q.4-.9 1-1"/><path fill="#9f793c" fill-opacity=".9" d="M117.8 394.8q-.1.8-1 .9z"/><path fill="#d3953e" fill-opacity=".3" d="m236 502.7 1.4 1.3q-1.2-.3-1.4-1.3"/><path fill="#f3b44b" fill-opacity=".2" d="m113.2 152.9-.2 1-1 .3q.3-.9 1.2-1.3"/><path fill="#f3b14a" fill-opacity=".4" stroke="#f3b14a" stroke-opacity=".4" stroke-width=".5" d="m167.3 409 .9.3q-.5.8-1.4.9z"/><path fill="#efad49" fill-opacity=".4" stroke="#efad49" stroke-opacity=".4" stroke-width=".5" d="m50 413 1 .2-.6 1.2z"/><path fill="#b2873f" fill-opacity=".6" d="M209.2 56.1q-.4.6-1 .7.2-.7 1-.7"/><path fill="#ea674e" fill-opacity=".3" stroke="#ea674e" stroke-opacity=".3" stroke-width=".5" d="M110.8 430.3a1 1 0 0 1-.8.8q.2-.6.8-.8Z"/><path fill="#a57c3c" fill-opacity=".6" d="m273.2 273.3-1 1q0-1 1-1"/><path fill="#f3b44b" fill-opacity=".2" d="M449 436.9q0 1-1.3.8z"/><path fill="#d69d44" fill-opacity=".9" d="m207.1 57.2-.3.7h-.7q0-.8 1-.8"/><path fill="#e13c52" fill-opacity=".4" stroke="#e13c52" stroke-opacity=".4" stroke-width=".5" d="m93.4 442.6 1 .3q-.5.7-1 1z"/><path fill="#f4b54a" fill-opacity=".2" stroke="#f4b54a" stroke-opacity=".2" stroke-width=".5" d="m395.2 236.9-.3 1-.8.2q.2-.9 1-1.2Z"/><path fill="#d19640" fill-opacity=".2" stroke="#d19640" stroke-opacity=".2" stroke-width=".5" d="M211.3 449h.6q-.1.6-1 1z"/><path fill="#e43f52" fill-opacity=".3" stroke="#e43f52" stroke-opacity=".3" stroke-width=".5" d="m422.3 64-.6 1h-.4q0-1 1-1Z"/><path fill="#d3374e" fill-opacity=".1" stroke="#d3374e" stroke-opacity=".1" stroke-width=".5" d="M368.2 89.9q-.3.8-1 1.1 0-1 1-1.1Z"/><path fill="#b0843e" d="M120.9 158.2q0 .8-.6 1.2-.3-1 .6-1.2"/><path fill="#e6a947" fill-opacity=".9" d="M91.6 357q.3.9-.7.7z"/><path fill="#d3963e" stroke="#d3963e" stroke-width=".5" d="m245.2 398.8 1.8.2c-9 5.3-23.1 15.8-31.8 20.1l-.3-3c1.3-.3.1-1.2.8-1.9 8.5-4.3 19.9-9.8 27.2-15.7q1.1-.2 2.3.3Zm-8.2 32q-6.4.4-13 0c-1-1.5-4.4.4-5.6-1.2q18.9-10.9 37.5-22.3c1.7-1 3 .4 1.3 1.3a749 749 0 0 0-31.7 20.4q-.5 1.2 1 1.1c1.8.2 9.5-.9 10.5.6Zm56.3-19.5q.6 1.8.7 3.7c-3 5.7-13.5 9.5-18.2 14.5l-12.8-.4q15-9 30.3-17.8Zm7.5 43.9q-1.3 0-2.2 1l-15.3 13.2q1.2.6 2.3-.3l14.4-8.5a46 46 0 0 1-18 31.7q-1.5.6-3 1.6l-1.3.4c-4.5 7.5-33.4 7-38 .5 6-4.9 17.3-16.4 23.4-19.2q1.5-1.2-.4-1.3l-29.6 17a44 44 0 0 1-13.1-13.5 60 60 0 0 0 8.8-6.7c.4-.3 4.3-1.1 2.8-2a3 3 0 0 0-2.8 2c-2.2-.2-3.2 1-4.7 2.4-1.3.8-5 1.7-5.2 3.4q-3.3-4.5-5.2-10c2.4.5 18.1-13 21-15.3q-1.2-.4-2.3.2-9.5 6-19.1 11.5c-2.3-1-2.4-9.2-2.5-11.4q1.2.2 2.3-.4l12.5-10q-1.7-.6-2.4 1.2-5.7 3-11.3 6.2l-.6.1q-.3-3.7.6-7.5.1-1.5 1.5-1.7 42.1-.4 84.2-.1.9 0 1.3.8 2 7.2 2 14.7Zm-51 49.1q5.7.3 11.4 0c-.6 1-4.5 1.7-5.7 2.6q-4 1.2-5.7-2.6Z"/><path fill="#272626" stroke="#272626" stroke-width=".5" d="M255 5c21.8 0 35.6 13.3 33 35.5q0 .9.7 1.3a150 150 0 0 1 72.2 37.8q.7.5 1.5.4 3.1-2.4 5.6-5.5c16.3-19 26.6-43.2 46-59.4q.8-.2 1.3-.8.9-.4 1.1-1.3 6-3.7 12.3-7h1.3q2.3 0 4.2-1.2a22 22 0 0 1 18.9 35.7L392.2 119q-.8 1-.7 2.2c38.6 71.3-10.7 158.4 33.8 226.2l23.2 18.7c18.5 15.1 40 39.5 17.7 62-3.7 4.7-8.7 5.1-14 7.2-.7 0-2.3 0-1.9 1.2-2.4-.7-6.3.6-8.7 1.5-34.5 6.4-66.9 1-101.3 1h-2.7c-3.9-.2-22.7-.6-25.1 1q.7 6.3.9 12.6c.4 30.4-23.9 48.9-52.2 51.7a101 101 0 0 1-18.2-.5l-7-1.7c-29-7.4-42.2-31.8-35.8-60.6q0-1.6-1.6-1.8-27.6 0-55.1.3a5 5 0 0 0-1.6 1.5l-43.3 55.7c-22.2 25.4-62.3.2-35.9-32 6-8 13.1-15 18.8-23q1.4-2-1-2.2c-27.7 3-55-19.2-40-47.9 16.4-29.6 59.7-39 63.5-75.5-1.2-43.5-2.2-86.2 3-129.5 1.4-.1 1-2.3.6-3.2l1.5-9.5c1.3-1.4.8-4 .9-5.7q1.2-4.5 2-9.2a10 10 0 0 0 1-5.4l.2-1.1c1.4-1.2 2.7-8 3.1-10q1.4-2.4 1.7-5.2l4.3-10.6q1-1.6.5-3.5c1.2 1 1.4-1.2.9-2q.9 0 1-.8c20-43.3 51.8-68.1 98.5-78.2q.7-.3.7-1.1C222.2 23 231.5 9.9 249.7 6c1-.4 5.1.3 5.3-1Zm-18 30.3q-.5 3.7-.2 7.6 0 1.1-.6 2c-2.8.8-6.7 3.9-9.4 4v-.4a156 156 0 0 0-17.6 7.6q-.8 0-1 .7-.7.1-1 .4-1-.1-1.2.7c-4.9 1.2-17.7 9-22.7 12-20.8 12.9-41.7 33.2-51 56.2l-.6.8q-3.6 8-6.5 16.3-.4.7.1 1.5c-2.6 2.7-4.5 10-4.4 13.5q-.9.2-.6 1.2-.5 1.2-.3 2.4a39 39 0 0 0-2 12.5q-.4 1.3 0 2.5c-1.5 2.9-1 8.3-1 11.6-.4 1.6-.8 5 .1 6.4-1.3 6.7 0 15.6 0 22.5l.2 7.5q.7 10.8 1.6 21.5-.3 1.2 0 2.6 0 5.7.5 11.4c0 .6-.5 2.3.5 2.5-1 2.8 0 8.2-.2 11.3q-.2 2.4 0 5l-.8 12 .1 1.6q-1.2 5.8-1 11.6-1 0-.7 1l-.4 2.6c-.6 3.5-2.7 9.2-2.8 12.5q-.2.6.3 1.3c-3 4.4-4.9 10-7.5 14.8a95 95 0 0 1-16 21.2 10 10 0 0 0-2.8 3.6q-1-.2-1.1 1c-9.4 5-30.5 21-34 30.8q-.9.1-1.2 1a27 27 0 0 0-3 9c-.1 2.5-.5 7.9 1.3 9.9l.2 1.3q1 2.6 2.4 4.8c1.7 2.1 4.7 6.6 7.5 7 .5 1.6 2.5 2 4 2 0 2 12.2 3.3 14.1 2.9h10.2c2.5.2 6.8-7.6 8.7-9.4q.8-.7.2-1.7 3.6-3.2 6.8-7.2c1.5-2.4 13-15.4 12.6-17q.9 0 1-1 1.2-1 2-2.3c2.4-3.4 19.2-23 22.1-28.7q.9 0 1.2-.7c.3-1 2-2 1.3-3.1q3.2-2.8 5.9-6.2 9.7-12 18.9-24.7.8-.1 1-1l.8-1 .1-.8q5.4-6 10.2-12.3L354.2 91q.6-1.7-1.2-2c0-2-2.6-3.8-3.7-5.1q-7.8-7.5-17.2-13.3c-2.1-1.1-3.6-2.8-6.2-2.5 0-2-8.2-5.2-10.3-5.2q-.1-1.1-1.3-1.4c-4-1.4-8.5-4-12.5-4.7-.2-1-2-.9-2.7-.6a2 2 0 0 0-1.4-1.5 88 88 0 0 0-8.7-3.1q-1.5-.8-3.1-.5.1-.6-.4-1c-2-.9-8-4-9.8-3.8q0-.7-.5-1.2 1.6-11.2-3.5-21.3c-.9-1.7-2.7-5.1-4.6-5.5-6.7-8.5-23.3-6-27.7 4.5a29 29 0 0 0-2.4 12.5ZM397.2 52c-1.5.6-3 2-2.9 3.8-1.7.8-21.5 26.3-22.2 28.6-1.2 1.1-4.4 3.6-4 5.5q-1 0-1 1.1-1.3 1-2.3 2.3-14.4 18-28.5 36.4a26 26 0 0 0-3.6 5.4c-1 .1-4.5 4.8-4.8 6q-2.8 3-5.2 6l-159.4 206q-1.7 1.5-3.2 3.5-.8 1-1.4 2.4a2478 2478 0 0 0-37.5 48l-.5.9-.7 1a451 451 0 0 0-21 27.3q-.8 0-1.2.8l-4.4 5.6v1.3c-2.2.5-17.3 20.9-19.8 24.2q-.7.8-.5 2-1 0-1.5 1-3 2.9-3.8 6.8c-2 2.7-2.8 11.6.5 13-.6 1.5 1.4 3 2.3 3.8 8.2 6 18 2.6 23.5-5 7.7-14.4 20.3-27.2 29.6-40.7l2-2.8c7.3-9 15.4-18.8 22-28.4q4-4 7-8.9 10.8-13.2 21-26.8l2.5-3 35.6-46.1q2.3-2.2 3.4-5a15 15 0 0 0 3.5-3.7l89.4-115.4c1-1.2 4-4 3.7-5.7q1-.4 1.6-1.2 34.4-43.8 68.3-87.9 0-1.4-1.5-1.5c13.7-10.2 28-33.8 39.5-47.6l.6-1q2.7-2.5 4.5-5.7c5-6.9 16.4-17.9 18-26.1q.4-2.5.3-5.1-.6-5.8-4.3-10.3c-1.6-1.6-4-3.8-6.4-3.7a12 12 0 0 0-10.6 4.1l-26 33q-.7.8-.6 1.8Zm-25 93-.5 1.1q-.9.7-1.5 1.6c-6 7.5-12.7 15.2-18 23.4-26.5 32.7-52.2 67.2-78.5 100.2q-.6.9-.5 2-1 0-1 1v.5a2 2 0 0 0-1.1.6c-18.4 22.9-36.7 46.9-54.7 70.1.2 1 1.4.5 2 .7q37.3-.4 74.5-.3 24.2.3 48.2 1.8 3.8.3 7.5 1.1 2 .5.5 1.7c-19.8 4.1-46.1 3.3-66.6 3.4q-35.9.3-71.8-.5-1.2.6-1.9 1.8-21 26.8-41.5 53.9l-.5 1a51 51 0 0 0-8.6 10.7l-6.7 8.2q-1.2 1.8 1 1.9l10.6-.2q3.8.4 7.5 0 9.3.4 18.6 0 4.7.4 9.5 0H237q13-1.9 26-1.6 6.3 0 12.8.4l33.4 1.4q3.7.4 7.4.1 7.4 1 14.9.8 2.4 0 4.1-1.5.6-.3 1.1.1-1.6 1.7.8 2 7.4.4 14.7.4 1.8.3 3.5.2c5.6 0 12 .7 17.5 0 2.4 1 10 .3 12.8.3q8.7 0 17.2-.6c4.8.5 9.8-.5 14.6-1 14.2-1.5 47.2-5.3 45.4-25.8q0-2.6-1.3-4.7a32 32 0 0 0-7.7-14 101 101 0 0 0-24.5-21.5 4 4 0 0 0-3.3-2.4c-2.7-3.5-10.8-9.1-14.3-12.7a37 37 0 0 0-4.7-4.5c-3.6-5.4-6.9-10.3-9.3-16.4q-.2-1.5-1.2-2.5a169 169 0 0 1-1.7-14.1c-.4-2 .1-10.1-.9-11.3q.5-2 0-3.9 0-5.6-.3-11.1.3-3.4.2-6.8c-.3-3.3.7-9.8-.8-12.5 2-2.5 1.1-8.7 1.3-11.8q.3-3.3.4-6.7c-.3-3.2.6-8.1-.2-11l.3-1.1q.6-2-.4-3.7c1.6-2.3.9-8.7 1-11.5q.3-3.3-.1-6.4.4-5.7 0-11.5.2-3.4-.6-6.8.2-5.6-.4-11.3 0-.8-.6-1.4a33 33 0 0 0-1-11.1 62 62 0 0 0-1.1-8.7q0-1.2-1.3-1.3a2 2 0 0 0 0-2.1c.8-2.3-1.1-6.7-1.6-9q0-1.6-1-2.9c-.3-1.7-1.5-8.5-3-9.1q0-1-.4-1.8c-.5-.8-1.4-6.8-2.8-5.8q-5.1 6-9.8 12.5Zm-161 304-.2 1-.1 1.9c0 2.2.1 10.4 2.4 11.4a4 4 0 0 0 .4 3.6q1.8 5.5 5.2 10 .3.7 1 1a44 44 0 0 0 13.2 13.5c1.6 1 4.7 3.7 6.6 3.4 4.6 6.5 33.5 7 38-.5q1 1 1.3-.4l3-1.6a46 46 0 0 0 18-31.7q1-2.5.8-5.4.1-7.5-1.9-14.7-.3-.8-1.3-.8-42-.2-84.2 0-1.3.4-1.5 1.8-.8 3.8-.6 7.5Z"/><path fill="#ed9c4b" d="m253.9 235.9 4.8-6.2c2.2.7 3.2-1 5-1.7q1.5-.3.9 1l-8.6 6.4q-1 .5-2.1.5"/><path fill="#f0934c" fill-opacity=".9" d="M382.2 112.6q1.5 0 1.6 1.5l-8.3 4c-1-1.2 3-2.8 3.7-3.4 1-1 1.4-2 3-2"/><path fill="#d4953f" fill-opacity=".4" stroke="#d4953f" stroke-opacity=".4" stroke-width=".5" d="M228.8 471.2a3 3 0 0 1 2.8-2.2c1.5 1-2.3 1.8-2.8 2.1Z"/><path fill="#f5b34a" stroke="#f5b34a" stroke-width=".5" d="M271.7 23.8a35 35 0 0 1 3.5 21.3q-1 .3-1.8.8-6.2 4.3-12.8 8.2a4 4 0 0 0-1.5 1.8q-1.5 1.2 0 0h1.2l15.2-9q.5-.2.2-.6c1.8-.3 7.9 2.9 9.8 3.8q.5.4.4 1l-20 12.6q-.6.5-.9 1.2-2.1.3-3 2-1.2 0-1.8.8c.5 1 1.8 0 1.7-.8q2.4.2 3.1-2a4 4 0 0 0 2-.2q4.5-2.8 9-5.3l13-7.8q4.5 1.4 8.7 3.1a2 2 0 0 1 1.4 1.5Q290 61.6 281.5 68q-3 1.3-5.3 3.4-1 .1-1.9.6l-8.3 6q-2.1.3-3 2a2 2 0 0 0-2 .8c.7 1 2 .2 2-.7q2.3 0 3-2.1h1.4l9.7-5.5 24-14q.9-.5.7-1.6c4 .7 8.6 3.2 12.5 4.7-7.6 3.4-20.6 13-28.2 17.7l-11.5 7q-1 .6-1.7 1.7-1 0-1.7.8c.6 1 1.8 0 1.7-.8q1.2.2 2.1-.4l12-7c3-2.2 23-13.2 27.7-16.1q1-.4 1-1.5c2 0 10.2 3.2 10.2 5.2a4785 4785 0 0 0-65.2 43.3l-.8.1-10.3 6.8q-.9.7-1.5 1.6-2.3 0-3 2.1-1.4-.3-2 .7c.6 1 1.7 0 2-.7q2-.4 3-2 1 0 1.9-.5l11.7-6.8 69.5-40.1q1-.8 1-2 9.2 5.7 17.1 13.3-1.8-.2-3.1 1.3-.8.1-1.5.7l-2 1.2-1 .8-2 1.2-1 .9-3 1.8q-.7.6-1.8 1.1l-1.2.8L331 95l-1.2.8L328 97l-1.2.8q-4.9 3.2-9.6 6.6-.8.2-1.4.6l-1.4 1.4q-1 0-1.7.6-.8.6-1.3 1.4a2 2 0 0 0-1.5.7l-2 1-1.2 1-1.9 1-1 1-1.7 1-1.2.8-1.9 1.1-1.2.8-1.8 1.2-1.2.8-1.8 1.2-1.2.8q-4.9 3-9.5 6.6a3 3 0 0 0-1.6.6l-1.4 1.3q-.8 0-1.5.7l-1.6 1.3-1.4.8-1.9 1-1.2 1-4.6 3-3.2 2.3-11.2 7q-1 .7-1.6 1.6-2.3 0-3 2.2-1.2-.3-2 .5c.6 1 1.9.3 2-.5q2.1-.3 3-2.2 1 .1 2-.1 6-3.9 12-7.2l.7-1q.9.2 1.6-.4l3.8-2.1 1.2-.8.8-.5q.8-.2 1.2-.8l5-2.7.6-.6 1.4-.6 3.7-2.1 1.2-.8 5.1-2.9.7-.5q.8-.1 1.4-.7l5-2.8.5-.5q.8 0 1.5-.7a35 35 0 0 1 5-2.8l.6-.6q.8 0 1.3-.6 1.9-1 3.6-2.3l1.5-.7 5-2.8.6-.5q.8-.2 1.3-.8l5-2.7.7-.5q.8-.2 1.2-.8l5.1-2.7.7-.5 1.4-.8q1.9-1 3.5-2.3.9 0 1.4-.7l5-2.7.8-.5 1.2-.7 3.7-2 1.3-.8.7-.6q.8 0 1.3-.7.6-.4.7-1 1.8.3 1.2 2L181.2 314a147 147 0 0 1-10 12.3l-1.2-.2-1.1.4-1 .9-1.3.7-7 4-3.8 2-1.1 1a28 28 0 0 0-5 2.7l-.8.6-1.2.7-5 2.7-.6.5q-.8.2-1.4.7l-4 2q-.4.6-.9 1l-2.1 1q-2 1-3.5 2.3l-1.5.7-5 2.8-.8.5q-.7.3-1.1.8a32 32 0 0 0-5.1 2.7l-.8.6-5 2.7-1.2.7q-2.9 1.5-5.5 3.6-.7 0-1.5.6l-5 2.8-.6.6q-.8.1-1.4.7a31 31 0 0 0-5 2.8l-2 1-5 3a61 61 0 0 0-7 4.2 35 35 0 0 0-5 2.7l-.7.6q-.8 0-1.3.6l-5 2.9-.7.4-1.2.8-4 2q-.6.4-1 1-2 .8-3.9 2l-1 .1c3.6-9.8 24.7-25.8 34-30.9q.9-.1 1.2-.9a10 10 0 0 1 2.8-3.6q.9.2.7-.7 9-9.2 15.3-20.5c2.6-4.8 4.4-10.3 7.5-14.8q.7.4 1.6 0l15-9.3q.8-.4.9-1.2a7 7 0 0 0 5-3.2c1.6-.2 4.6-1.4 5.1-3 1.6-.2 4.3-1.5 5-3q2.1 0 3-2c.6.2 2.8-.3 1.5-1.1q-1.2 0-1.5 1.1-2 .3-3 2a6 6 0 0 0-5 3 7 7 0 0 0-5 3 6 6 0 0 0-5.1 3.2q-1-.3-2 .2l-15.8 9c0-3.3 2.2-9 2.8-12.5q1.1 0 2.1-.6l46.6-29q1.5-.9 2.4-2.3c1.9.2 4-1.5 5-3q1.5.3 2-1c.7 0 3.9-1 2.6-2q-2.2-.1-2.6 2-1.4-.3-2 1c-1.6.2-4.3 1.4-5 3q-1 0-2 .6l-14 8.1q-17 10-34 19.6-.2-5.8 1-11.6 2-.5 3.7-1.5 10.2-6.6 20.9-13 1.3-.9 2.3-2c1.4-.4 4.8-1.7 5.1-3.3q2.3 0 3-2 1.3.3 2-.8 2.1-.1 3-2.2c.5.3 2.7-.2 1.6-1a2 2 0 0 0-1.6 1q-2.2.4-3 2.2-1.4-.4-2 .9-2.1 0-3 2-3.4.3-5.1 3.2h-2l-25 14.8.8-12q1.2 0 2.3-.6 31.1-19.7 62-39.8 2.8-1 5-3.3c2-.7 7-3.3 8-5.3q1.2.1 2-1 2.1-.1 3-2c.4.2 2.7-.3 1.5-1.1q-1 0-1.6 1a3 3 0 0 0-2.9 2.2q-1.5-.5-2 1-2.5.5-4.6 1.9-2.4 1.3-4.5 3-2.6 1-5 2.6l-1.4 1.2a5039 5039 0 0 0-61.8 35.3c.1-3-.9-8.5.2-11.3 2.6.2 34.4-21.1 39-24.2 1.8-.2 9.2-5 10-6.5a8 8 0 0 0 5.1-3.2c1.6.5 2.2-.9 3-1.8.6.1 2.8-.5 1.5-1.2q-1.2 0-1.4 1.2-2.1 0-3 1.8c-1.5 0-4.7 1.7-5.1 3.2q-1 0-2 .3-3.7 2.5-7.7 4.4-.9.5-1.3 1.5-1 0-1.7.4l-37 21.5q-.3-5.6-.4-11.3 1 .2 2.1-.2c10.5-6.6 20.8-13.5 31.3-19.8l13.7-8.6q.7-.4 1-1.3a7 7 0 0 0 5-3q1.1 0 2.2-.3 1.9-1.8-.6-1.3-1.1.5-1.7 1.6c-1.7-.1-4 1.5-5 3q-1 0-2 .5-7 4.2-14 8.1c-10.4 6.6-21.3 12.4-32 18.7q-1-10.7-1.6-21.5.7-.7 1.7-.8l1.2-.8 6-4 1.9-1.1 1.2-.8 1.8-1.2 1.2-.8 6.5-4.5 1.4-.7q.9-.6 1.5-1.4.9 0 1.6-.6l1.6-1.3 1.4-.7q1-.7 2-1l1-1.1 1.9-1 1.1-1 4.8-3q.6-.2 1.2-.8l1.8-1.1 1.2-.8 1.8-1.2 1.2-.8 9.5-6.5q.8 0 1.5-.7l1.5-1.3q.8-.1 1.5-.7l1.5-1.4q.8-.1 1.5-.7l2-1 1-1 2-1 1-1 3-1.8 1.7-1.2 1.2-.8q.9-.7 1.9-1.2l1.2-.7q.8-.9 2-1.6 2.4-1.2 4.5-3 .6 0 1.1-.3c2.3-2 5.3-2.7 7.1-5.4q2.1 0 3-2 1.2.2 2-.7c-.6-.9-2-.2-2 .7q-2.1.2-3 2c-1.4-.2-8.6 4.1-9 5.2q-2.6.8-5 2.4-2 1.5-4 2.4-.8.3-1.3.7l-.8.4q-.7.3-1.3.9l-5 2.7-.5.5-1.5.8-5 3-5.9 3-1 1a33 33 0 0 0-5 2.7l-.7.5-1.3.6-5 3-.7.4q-.8.3-1.4.8a72 72 0 0 0-10.3 6.2q-1 .2-1.6.8a40 40 0 0 0-5 2.7l-.7.5-1.3.7-5 2.8-.7.5-1.3.7-3.7 2.1-1.3.7a80 80 0 0 0-8.5 5.6c-.1-7-1.4-15.8 0-22.5a3 3 0 0 0 1.8-.5q30.8-20.2 61.3-40.6c1.3-.7 4-2 4.5-3.4 1.7-.3 7.7-3.7 8.3-5.2 1.6.2 2-1.1 3-2.1q1 .2 1.8-.7c-.5-1-1.7 0-1.8.7q-2.2.1-3 2c-1.7-.2-3.2 1.5-4.8 2q-2.4 1.3-4.3 3.3c-1.3-.4-3.7 1.5-4.8 2.2l-62.3 35.9c.1-3.3-.4-8.7 1-11.6 3-.7 21.7-13.9 26-16.2q1.6-1 2.8-2.4c1.9-.5 4.3-1.4 5.3-3.1q2.1-.3 3-2.2c.5.3 2.7-.2 1.5-1a2 2 0 0 0-1.6 1 3 3 0 0 0-2.9 2.2c-2-.3-4.3 1.5-5.3 3.1q-1.3-.2-2.4.4-5 3-9.8 6.2-8.5 4.4-16.6 9.5c0-3.2.8-9.7 2.1-12.5 2.3-.3 14.3-9.4 17.5-10.7l1.5-1.1c1.8-1 9.5-5.5 10-7 1.7.4 2.1-1 3-2q1.2.2 2-.7c-.6-1-2-.3-2 .7q-2 .2-3 2-1 0-2 .6a94 94 0 0 0-8 5q-1.5.5-3 1.5l-9.6 5.7q-2.7 1.5-5.5 2.4c0-3.5 1.8-10.9 4.4-13.5q.9.3 1.8-.2 3.9-2.8 8-5.2.6-.4 1-1.2 2-.3 3-2.2c.5.3 2.5-.3 1.4-1q-1 0-1.5 1a3 3 0 0 0-3 2.2q-1-.1-2 .2-4.3 2.7-8.8 5 2.9-8.4 6.5-16.4.4.9 1.3 1.2l9-5.8a2 2 0 0 0 1-1.4q1.1.1 2.2-.3 2-1.6-.5-1.3a4 4 0 0 0-1.7 1.6q-.8 0-1.4.2l-7 4.1q-1 .6-2.4.9c9.4-23 30.3-43.3 51.1-56.2 5-3 17.8-10.8 22.7-12a4 4 0 0 1-1.1 1.5l-7.4 5.7q-.8.7-1.4 1.6-2 .3-2.9 2c1 1.2 2.6-1 2.9-2 4.3-.7 24.4-13.6 29.9-16.4q.8-.5.8-1.4c2.7-.1 6.6-3.2 9.4-4q.7-1 .6-2 1.3.6 2.5-.2 16.3-9.3 32.4-19Zm-8.6 17.1q-1.5 0-2 1c-1 .3-2.8.5-3 1.7 1 1.1 2.5-.7 3-1.6a2 2 0 0 0 2-1c.8-.3 3.6-.8 2.5-2q-2 0-2.5 2ZM256 58q-1.2-.3-2 .7c.6 1 2 .2 2-.7q1.5-1.2 0 0Zm81.7 21.3c.5 0 2.9-.5 1.8-1.4a2 2 0 0 0-1.8 1.4Zm-194.1 29c.6-.1 3-.5 1.9-1.5q-1.5 0-1.9 1.4ZM327.9 141c.3-1.2 3.9-5.9 4.8-6q1.2 0 2.3-.5l5.7-3.7q1.2 0 .9 1.2a246 246 0 0 0-11.7 8.1zm56.8-2.8c-1.2-.7-10 6.3-11.9 6.7h-.7q4.7-6.4 9.8-12.5c1.4-1 2.3 5 2.8 5.8Zm-73.7.6q-2.1.2-3 2a2 2 0 0 0-2 .8c.6.9 2 .1 2-.7q2.2 0 3-2c.5.2 2.8-.3 1.6-1.1q-1 0-1.6 1Zm78.1 13.1c.5 2.4 2.4 6.8 1.5 9a603 603 0 0 1-26.6 16.6 3 3 0 0 0-1 1.3 7 7 0 0 0-5 3.1c-.7 0-2.1-.1-2 1q-2.1 0-3 2-1.2-.3-1.9.7c.6.9 1.6 0 2-.7q2 0 3-2 1.3.3 1.9-1a7 7 0 0 0 5-3c2 0 12.2-6.5 14.6-8a1 1 0 0 0 0-1 4 4 0 0 0 2.5-.4q4.6-3 9.6-5.4.9-.2 1-1 1.2 0 1.3 1.3a62 62 0 0 1 1.1 8.7l-1.2-.3c-1.7 1.4-6 3-6.8 5a7 7 0 0 0-5 3 16 16 0 0 0-7.1 4q-2.1.3-3 2.2-1.4-.4-2 1-1 0-2.1.4-2 1.6.4 1.3 1.2-.6 1.8-1.8a2 2 0 0 0 2-1q1.8-.2 2.9-2c1.5.3 6.3-2.6 7-4a6 6 0 0 0 5-3c2 .2 5.5-2.5 7-3.7l1.2-.2q1.2 5 .9 10.2-1-.2-1.8.3l-47.3 29q-.7.6-1 1.4c-1.8 0-4.2 1.3-5 3-1.9-.1-4 1.5-5 3q-1.5-.3-2 1c-1 .3-2.7.5-3 1.7 1 1.3 2.6-.8 3-1.7q1.5.3 2-1a8 8 0 0 0 5-3 8 8 0 0 0 5-3 4 4 0 0 0 2-.5l47-27.2q1-.7 1.7-1.6.6 5.7.4 11.3l-1 .2a3 3 0 0 0-1.4.8l-1.7 1-1.3.7-3.5 2.5-1.5.7-1.7 1-1.2.8q-.9.8-1.9 1.2l-1.2.8q-2 1.4-4 2.3l-1 1-1.8 1-1.2.7q-1.9 1.1-3.5 2.5-.8.2-1.5.7L364 216l-1.3.8q-1.8 1-3.5 2.5-.7 0-1.5.6l-1.7 1-1.2.8-8.1 5.2-3 1.8q-1.9 1-3.5 2.6-.9 0-1.6.6l-1.7 1-1.2.8q-1.8 1.1-3.5 2.5a3 3 0 0 0-1.5.8l-3 1.7-3.5 2.5a3 3 0 0 0-1.5.7 37 37 0 0 1-4.8 3l-1.2.8q-2 1.1-3.6 2.5-.8.1-1.4.7l-1.8 1-1.2.8q-2 1-3.4 2.6-1 0-1.6.7l-3 1.7a15 15 0 0 0-3.4 2.6q-1 0-1.6.7l-1.7 1-1.3.7q-1.9 1-3.4 2.6-1 .1-1.7.7-.8.6-1.8 1l-1 .9-1.9 1-1.2.8q-1.7 1.5-3.6 2.5-.8.2-1.4.8-1.3.9-2 2.4-.7-.6-1.5-.1 0-1.1.5-2c26.3-33 52-67.5 78.5-100.2q1.8-.3 3-1.5.4 1.5 1.8.8zm-75.3 51.2c.3 1.6-2.6 4.5-3.7 5.7a6 6 0 0 0-2.2.6 16 16 0 0 1-4.5 2.5c-1-.6 0-1.1.5-1.6q5-3.4 10-7.2Zm81.8.6q.5 5.8 0 11.5l-.6-.4-1.3.8-3.5 2.5-1.5.7-1.7 1.1-1.3.8-5 3.2-1.7 1-1.3.7-14.9 9.4-1 .8-3.1 1.8q-1.9 1-3.5 2.5l-1.5.8-1.8 1-1.2.7q-2 1-3.4 2.6-.9 0-1.6.7a31 31 0 0 0-6.5 4.2q-.8.2-1.5.7L336 252l-1.3.7-3.5 2.5-1.5.7-1.7 1-1.3.8q-3.4 2.4-7 4.3l-1 1a42 42 0 0 0-6.6 4.2l-1.4.7-1.8 1-1.2.8q-2 1.1-3.6 2.5-.8.2-1.4.8l-1.8 1-1.2.7q-1.8 1.4-3.7 2.6-.8 0-1.3.6l-1.8 1.1-1.2.7a223 223 0 0 1-15.1 9.4q-1.1.8-1.6 2a6 6 0 0 0-5 3 6 6 0 0 0-5 2.8c-1.8 0-3.8 1.6-5 2.8.9 1.3 4.6-1.7 5-2.8q3.2-.3 5-2.9 3-.5 5-3 1 0 2-.5a220 220 0 0 1 14.3-8.3l.8-.5q.6 0 1-.6a186 186 0 0 0 10.7-6.3l1.6-.7 5.6-3.3 1.4-.7 4.9-2.8q3-1.6 5.5-3.6.9 0 1.6-.6l5-2.8.6-.6q.6-.2 1.2-.7a49 49 0 0 0 7.1-4l5-2.8.7-.5q.7-.2 1.2-.6l1.9-1 1.2-.8.8-.6q.7 0 1.2-.7a38 38 0 0 0 5-2.7l.8-.6q.6-.1 1.2-.7l3.7-2q.8-.2 1.3-.8l.8-.4 1.3-.8q2-.8 3.4-2.3.8 0 1.5-.6l5-2.8.8-.5 1.2-.7 3.7-2 1.3-.8.8-.5 1.2-.7 5-2.8a75 75 0 0 1 6.9-4l.6-.6c-.1 2.8.6 9.2-1 11.5q-.7 0-1.5.4l-67.3 42q-1 .6-1.1 1.7-2.6-.6-3.2 2-.9-.6-1.8-.1l-9 5.5q-.6.5-.9 1.3-2.3 0-2.9 2-1.5-.3-2 1-2.4-.2-3 2-1.3-.3-2.2.6c.7 1 1.8.2 2.1-.6q2-.3 3.1-2 1.3.2 2-1 2-.2 2.9-2 1 0 2-.3l8.4-5q.9-.4 1.3-1.5 2.1-.2 3.6-1.6 34.5-19.6 68.8-39.5l.8-.1c.8 2.9 0 7.8.2 11a2 2 0 0 0-2 .3q-.8 0-1.3.7-.9.4-1.5 1.2l-1.7.7-1.7 1-1.2.8-8 5.3-1.7 1-1.3.7-6.6 4.5q-.8.2-1.3.8-1 .4-1.8 1l-1.2.8-1.9 1.1-1.2.8q-2 1-3.5 2.6l-1.5.6-3 2-3 1.8a195 195 0 0 1-11 7l-5 3.3-2 1-1 1-1.8 1-1.2.7-5 3.3-2 1-1 1-1.8 1-1.2.7-3.5 2.5q-.8.2-1.5.8l-2 1-1 1-3 1.7-6.6 4.6q-.6 0-1.3.5-.7.8-1.8 1.2l-1.2.8q-1 .8-2.2 1.3c-2.6 1.8-8 4.4-9.7 6.8q-3 .6-5 3-2.2 0-3 2.2-1.3-.3-2 .8c-1 .2-2.7.3-2.9 1.7 1.2.7 2.7-.5 3-1.7.6.1 2.1.3 1.9-.8q2.1-.3 3-2.2c1.8.1 4.5-1.2 5-3q1.2.1 2.1-.3a407 407 0 0 0 16.3-9.5l5-2.8 7-4.2 5-2.8.7-.5q.9-.2 1.4-.7l5.6-3.2 1.3-.8 5-2.8a79 79 0 0 0 7-4.2 44 44 0 0 0 7-4l5-2.8.6-.5q.8-.2 1.4-.7 2-1.2 4-2.1l1-1a22 22 0 0 0 5.6-3.3l1.5-.6 3.7-2 1.2-.8.7-.6q.8-.2 1.3-.7l5-2.7.7-.6 1.3-.6q1.8-1 3.5-2.3a3 3 0 0 0 1.6-.6l5-3 .6-.5q.8-.2 1.3-.6a10 10 0 0 0 3.4-2.4c-.2 3.1.7 9.3-1.3 11.8 1.5 2.7.5 9.2.8 12.5q-1.2 0-2.2.6l-76.2 49.5-8.9 5.5q-.7.6-.6 1.5-6.6 4.5-13.4 8.8-37.2 0-74.4.3c-.7-.2-2 .4-2-.7 18-23.2 36.2-47.2 54.6-70.1a2 2 0 0 1 1.1-.6q1.5 0 2.9-.8l1-.5q1.6-1.8 4-2.5l1.2-.7a40 40 0 0 1 7-4l.8-.5q.8-.2 1.2-.8l5-2.7.6-.5 1.4-.7 4-2.2q.6-.3 1-.9l5-2.7.7-.5a32 32 0 0 0 5-2.7l1.3-.8.7-.5 1.3-.7 3.7-2 1.3-.8q3-1.5 5.4-3.6 1 0 1.6-.7l5-2.7.8-.5 1.3-.8 5-2.7.7-.5 1.2-.7 5-2.8q3-1.6 5.4-3.6 1 0 1.6-.6l5-2.8.6-.5q.8-.1 1.4-.7l5-2.8.8-.5 1.3-.7a34 34 0 0 1 4.9-2.8l.7-.5 1.3-.8 3-1.7.7-.5q.8-.3 1.3-.7l5-2.8.7-.6q.7-.2 1.3-.7l5-2.7.8-.6 1.2-.6zM131 228q-2.2 0-2.8 2-1.5-.2-2.2 1-2.1 0-2.8 2-1.3-.3-2 .8c.6.9 1.7 0 2-.8a3 3 0 0 0 2.8-2q1.4.1 2.2-1 2 0 2.8-2c.5.2 2.8-.4 1.6-1.1q-1 .2-1.6 1.1Zm251.2 46.6c-1.7.5-4.5 1.6-5 3.4a7 7 0 0 0-5 3q-3.1.6-5.2 3-1.5-.3-2 1c-.8.3-2.6.6-3 1.6 1.2 1.2 3.2 0 3-1.6.8 0 2.2 0 2-1 1.9.1 4.3-1.4 5.1-3a7 7 0 0 0 5-3c1.9 0 4.8-1.8 6-3.2q4.2-2 8.1-4.3.8-.3 1-1-1-1-2.2-.2-3.3 2.4-7 4.3-.6.3-.8 1ZM358.8 289q.7 0 1.1-.6-.9-.3-1.1.6Zm36.9 27.8q.4 5.3 1.2 10.3c-9.1 5.4-18.9 12-27.4 18.1-.9.4-2.4.3-2.4 1.6q-2.3.1-3 2.2-1.7-.5-2.1 1c-1 .3-2.7.5-3 1.7 1 1.3 2.4-1 3-1.6q1.5.1 2-1.1 2.2-.1 3.1-2.2h2q14.4-8.8 29-17c2.4 6 5.7 10.9 9.3 16.3l-43.9 31c-1.4 1.5-1.2 1.9-3.6 2.4q-.8.5-.8 1.3c-1 .3-2.9.5-3 1.8 1 1.1 2.6-.8 3-1.8l2-.2 51-30c3.5 3.6 11.6 9.2 14.3 12.7-7.4 5.1-15 10.2-21.9 16a30 30 0 0 1-5.2 3q.7.9 1.7.4c7.5-6.2 20-11.9 28.7-17 6.6 3.9 20.2 14.9 24.5 21.5q-1 0-1.8.6c-6 4.8-14.1 13.5-20.4 16.7q-1.5 1 .3 1 .8-.4 1.3-1.2a191 191 0 0 0 23.5-13.7q3.3 5 4.8 10.6a6 6 0 0 0-1.9 1.3q-5 4.8-9.7 9.9.9.3 1.6-.1l11.3-6.4c1.8 20.5-31.2 24.3-45.4 25.9l2.6-1.9 16.3-16.2q-.9-.4-1.7 0-15 9-30.3 17.6-1 .5-1.4 1.4-8.7.8-17.2.6.3-1 1-1.7l24.7-21q-.5-.3-1.2 0l-36.6 21q-.7.5-.8 1.3c-5.5.8-11.9.1-17.5 0l8.2-6.7c.5-.2 4-1.1 2.6-2a3 3 0 0 0-2.6 2l-1.3.2q-2 1.3-4.3 2.2a31 31 0 0 0-6 4.2q-7.5 0-14.8-.5-2.4-.2-.8-1.9-.5-.4-1-.1a6 6 0 0 1-4.2 1.5q-7.5 0-15-.8 13.9-9.6 27.2-19.8 1-.6 2.3-.8 1.4-1-.3-1.1-1.1 1-2.7 1.4l-.8 1a1237 1237 0 0 0-31.9 18q-.9.4-1.1 1.2l-33.4-1.4c4.7-5 15.3-8.8 18.2-14.5q.6 1 1.6.1l28-19.9q1.3-1 2.2-2c.7-.4 3.8-1 2.7-2.3q-2 .4-2.7 2.2-1 0-1.9.2-15.2 9.2-30.6 18-15.3 8.8-30.3 17.8-13-.3-26 1.6c-1-1.5-8.7-.4-10.6-.6q-1.3 0-.9-1 15.6-10.8 31.7-20.5c1.6-1 .4-2.4-1.3-1.3q-18.6 11.4-37.5 22.3c1.2 1.6 4.6-.3 5.7 1.3q-12.8 0-25.4-.2c2.6-1.7 15.7-9.6 16.5-11.6 8.7-4.3 22.8-14.8 31.8-20.1l12.8-8.8c.7-.7 3.3-.5 3-2q2-.5 3.2-2.1c.5.1 2.7-.4 1.5-1.2q-1 .1-1.5 1.2-2.3 0-3.1 2.2c-1.7-.4-2.2 1.2-3.9 1.4l-.8 1a97 97 0 0 0-11.2 6q-1.4.6-1.8 2.1-1.1-.5-2.3-.3c-7.3 6-18.7 11.4-27.2 15.7-.7.7.5 1.6-.8 1.8a167 167 0 0 0-25.7 14.7q-9.3.4-18.6 0 25.8-16.2 51.2-33 .9 0 1.8-.6 5.4-3.7 10.9-7.2l.5-1q2.1.2 3-2c.5.3 2.8-.2 1.5-1q-1.2 0-1.5 1-2.1.4-3 2-.8 0-1.3.2l-12.8 7.4q-.6.8-1.4 1.3a3384 3384 0 0 0-55 31.3q-.9.6-1.4 1.6l-10.6.2q-2.2 0-1-2l6.7-8q1 .5 1.9-.1l73.8-48c2.1-1.2 6.9-3.6 8-5.8a8 8 0 0 0 5.2-3c1 .1 4-.7 2.5-2q-2 .2-2.5 2c-2-.3-4.2 1.5-5.2 3q-1 0-2 .4l-6.7 4-65 37.9-.9-.3q20.6-27 41.5-53.8.7-1.2 2-1.8 35.9.8 71.7.5c20.5 0 46.8.7 66.6-3.4q1.5-1.2-.5-1.7-3.7-.8-7.5-1c0-1.5 4-3 5.1-3.8.1 1.2 1.8.7 2.5.3l45-26zM217.3 328q-1.2 2.9-3.5 5c-2 0-5.6 2.9-7.6 3.8-1.4.7-1.6-.7-.3-1.4l9.2-6.6q1-.7 2.2-.8Zm-48.1 1a739 739 0 0 1-19 24.7 41 41 0 0 1-5.8 6.2H143l-1.3.9-5 3q-.4 0-.8.3l-1.3.9a146 146 0 0 0-11.9 6.7l-6 3.3-1 1-5 2.7-.8.5-1.2.7-5 2.9-.7.5q-.8.2-1.3.7l-3.7 2-1.3.7q-3 1.5-5.4 3.6-.8 0-1.5.6a40 40 0 0 0-5.2 2.8l-.7.5q-.8.2-1.2.8-2 .9-3.7 2l-1.3.7q-2.9 1.8-5.9 3.3l-1.2.8a34 34 0 0 0-5.4 3.4q-.9.2-1.6.8l-5 2.7-.7.5-1.1.8q-2 .8-3.8 2l-1.2.8-.8.4-1-.2c-1.7-2-1.3-7.4-1.2-10 2 .6 3.7-1.1 5-2.3q.9 0 1.6-.7l2.9-1.7q2-1 3.4-2.6.9 0 1.5-.7l1.8-1 1.2-.8q3.5-2.3 7.1-4.3.6-.4 1-1a29 29 0 0 0 6.5-4 3 3 0 0 0 1.4-.8l3.1-1.8a23 23 0 0 0 3.5-2.6l1.6-.7 1.6-1 1.3-.8q2-1 3.4-2.5.8-.1 1.6-.6l2-1.1 1-1 1.8-1 1.2-.7 3.6-2.5 1.4-.7 3-1.8q1.9-1 3.5-2.6l1.4-.7q1-.4 1.8-1l1.3-.7q1.8-1 3.5-2.6.8 0 1.5-.7l3-1.8a98 98 0 0 1 8-5q.9-.7 1.8-1.1l1.2-.8q1.9-1.1 3.5-2.5a3 3 0 0 0 1.5-.8 29 29 0 0 0 6.5-4.2q.9 0 1.5-.7l3-1.9q1.8-1 3.5-2.4.8-.3 1.5-.8l2-1.1 2.8-1.9 1.2-.7q1-1.7 2.9-1.3Zm-52.2 3q-1.4-.3-2 1a8 8 0 0 0-5 2.7c.9 1.2 4.5-1.6 5-2.8.7.1 2.1.2 2-1 .5-.1 4.2-1 2.6-2q-2.2 0-2.6 2Zm-2 12.9a2 2 0 0 0-2 1q-3.2.7-5 3-3.2.6-5 3c-2.2.1-5.4 2.4-7.1 3.7-1 .4-1.3 1.6.1 1.4 1.7-1.5 6.3-3 7-5 1.6 0 4.4-1.4 5-3a7 7 0 0 0 5-3q1.5.2 2-1.1c1 0 4.1-.5 2.6-2q-2 .2-2.6 2Zm43.7 14q.6-1.2 1.5-2.3l3.1-3.5q.9.2 1.8-.3 2.6-1.7 5.5-3c.8 1-1.1 1.9-1.6 2.5l-8 5.9q-1.2.6-2.3.8Zm-16.8 4.8c-2.9 5.6-19.7 25.3-22 28.7q-.6-.6-1.3-.5l-57.2 32.9a2 2 0 0 0-1.1 1.3c-3-.4-6-4.9-7.6-7l1.6-.1 1-1a14 14 0 0 0 3-1.7q2-1 3.4-2.5l1.6-.7 1.8-1 1.2-.8 3.6-2.5 1.4-.7 1.8-1 1.2-.8q2-1 3.4-2.7.8 0 1.6-.5l1.7-1 1.3-.8q1.8-1 3.5-2.6.8 0 1.4-.7 1-.4 1.8-1l1.2-.8 3.1-1.9 4-2.4 1-.9 3-1.7q1.9-1.1 3.5-2.5.8 0 1.4-.7l3.1-1.8q2-1 3.4-2.5l1.7-.8 2.9-1.7q1.9-1.1 3.5-2.5l1.5-.7 1.7-1 1.3-.8q1.9-1 3.4-2.6.9 0 1.6-.6t1.8-1l1.2-.8 1.8-1.2 1.2-.8zM442.1 382q-2.1-.2-3 1.6c1 .8 2.5-.7 3-1.6.8 0 3.8-.9 2.5-2q-2 0-2.5 2Zm-325.3 13.7c.4 1.6-11.1 14.6-12.6 17q-3.1 4-6.8 7.2c-4 .9-14.6 8-18.7 10.3q-.4.3-.4.8c-1.9.4-14-.9-14.2-3q1-.2 1.9-.7zm37.9 13.2q-3 4.8-7 9-1.3 0-2.4.8-6.2 3.4-12 7.2-1.5.3-1-1 10.2-7.3 20.1-15 1-.7 2.3-1Zm190 16.4c1 .2 4.3-1.2 2.8-2.2a3 3 0 0 0-2.8 2.2Z"/><path fill="#f5b448" fill-opacity=".3" stroke="#f5b448" stroke-opacity=".3" stroke-width=".5" d="M103 352c-.7 2-5.3 3.6-7 5l-.1-1.4c1.7-1.3 5-3.6 7-3.7Z"/><path fill="#f5b747" fill-opacity=".2" stroke="#f5b747" stroke-opacity=".2" stroke-width=".5" d="M321.7 279.2q-.3 1-1.3 1.6l-8.3 4.9-2.1.3q.3-.8 1-1.3l8.9-5.5q.9-.4 1.8 0Z"/><path fill="#f5b34a" fill-opacity=".5" d="M368 188q-.5 1.2-1.7 1.8-2.5.3-.4-1.3 1-.4 2.2-.5"/><path fill="#f6b14c" fill-opacity=".2" stroke="#f6b14c" stroke-opacity=".2" stroke-width=".5" d="M385 178a6 6 0 0 1-5 3 7 7 0 0 1 5-3Z"/><path fill="#f5b34a" fill-opacity=".5" d="M214 161c0-.9 1.4-1.6 2-.7q-.8.9-2 .7m118 61c-.4 1-2 3-3 1.7.3-1.1 2-1.4 3-1.7m-155 5.1q.3-1.2 1.5-1.2c1.3.7-.9 1.3-1.4 1.2m-46 .9q-.9 2-3 2 .7-2 3-2m227.8 61q.3-.9 1.1-.6-.3.6-1.1.6M150 300q-.9 2-3 2a4 4 0 0 1 3-2"/><path fill="#f5b34a" fill-opacity=".5" d="M196 143c.2-.7 1.4-1.6 2-.7q-.8.8-2 .7m-65 85q.5-1 1.5-1.1c1.2.7-1 1.3-1.6 1.1m44 44q.4-2.1 2.6-2c1.3 1-1.9 2-2.6 2m190 13c.1 1.6-2 2.8-3 1.6.3-1 2-1.3 3-1.6m-100 12c-.4 1-4.1 4-5 2.7 1.2-1.2 3.2-2.7 5-2.8m-115 3q.3-1.2 1.5-1.1c1.3.8-1 1.3-1.5 1.1M261 42c-.4.9-2 2.8-3 1.6.3-1.2 2-1.4 3-1.6m-5 16c0 .9-1.4 1.7-2 .7q.8-1 2-.7m81.7 21.3a2 2 0 0 1 1.8-1.4c1.1.9-1.3 1.3-1.8 1.4M152.1 141c-.2-1 1.3-1.6 1.9-.7q-.7.9-2 .7m19.8 75q.6-1.1 1.7-1.6 2.6-.6.6 1.3-1 .5-2.3.3M273 326c-.2 1.2-1.7 2.4-2.9 1.7.2-1.4 1.9-1.5 3-1.7m-156 6q.5-2 2.7-2c1.6 1-2.1 1.9-2.6 2m-1.9 13a3 3 0 0 1 2.6-2c1.5 1.5-1.7 2-2.6 2m247 5.2c-.6.7-2 3-3 1.6.3-1.2 2-1.4 3-1.6m-96 36q.5-1 1.5-1.2c1.2.8-1 1.3-1.5 1.2"/><path fill="#e23d52" stroke="#e23d52" stroke-width=".5" d="M434.4 13.2q-7.9 8.2-16 16.2.6.6 1.6.3 9.7-6 19.7-11.6.9-.4 1.1-1.3 3.6 4.5 4.3 10.3-1 0-2 .7-10.7 8.2-21 17-1.5.6-2.7 1.6c1.4 1.3 2.4-.6 3.5-1.2L442.5 34l2.3-1.8c-1.6 8.2-13 19.2-18 26-1.8-.4-10.5 7.2-12.3 8.6-1.3 1-6.3 3.6-6.4 5-1 .3-2.8.6-3 1.8 1 1.1 2.5-.9 3-1.8q1 0 1.9-.4 5.6-3.4 11.3-6.4h.4c-11.4 13.8-25.8 37.4-39.5 47.6-1.6.1-2 1.2-3 2.1-.7.6-4.8 2.2-3.7 3.4l8.2-4q-33.9 44.1-68.3 87.9-.6.8-1.6 1.2-4.8 3.8-10 7.2c-.5.5-1.3 1-.4 1.6a16 16 0 0 0 4.5-2.5 6 6 0 0 1 2.2-.6l-89.4 115.4a15 15 0 0 1-3.5 3.7q-1.1 0-2.1.7-4.5 3.4-9.3 6.7c-1.2.7-1 2 .4 1.4 2-1 5.6-3.9 7.6-3.8l-35.6 46.2c-2-.4-4 1.7-5.6 2.9q-.4.5-.1 1l3.2-1q-10.2 13.6-21 26.8-1.2.3-2.3 1-10 7.7-20 15-.5 1.3.8 1 6-3.8 12-7.2 1.2-.7 2.5-.9c-6.6 9.6-14.7 19.4-22 28.4q-.5-.3-1.1 0-1.6 1.5-3.6 2.5-1 .5-.5 1.4l3.2-1c-9.3 13.4-22 26.2-29.6 40.5-5.5 7.7-15.3 11.1-23.5 5.1l19.1-16q-1.6-.7-2.4.9l-18 10q-1 .4-1 1.4c-3.3-1.5-2.5-10.4-.5-13 2.7 0 16.8-12.5 20.2-14.5q.8-.7.7-1.8l1.6.3q1.2-.7 1.7-2.1c.7-.5 3.7-.6 2.4-2q-2.1 0-2.4 2-1.3-.2-2.2.8l-1 .6-15.7 8.8q-.2-1.1.5-2c2.5-3.3 17.6-23.6 19.7-24.2q.7-.3 1-1l13.3-9.8q.4-.5 0-1l1.7-.5q.4 0 .7-.5.6-.2.8-.8a6 6 0 0 0 4-3q-.3-.5-1-.2c-1.8 1-5.3 2-6 3.8q-1.8-.2-1.5 1.5a3 3 0 0 0-1.6-.2q-2 1.5-4.4 1.9a451 451 0 0 1 19.7-25.2h1q1.4-.5 2.1-1.8c.6-.5 3.5-1 2.4-2.2q-2.1 0-2.4 2.2-1 0-1.9-.2 18.5-24.2 37.5-48 1.2 0 2.2-.7l8-6c.5-.5 2.5-1.4 1.7-2.3q-3 1.1-5.5 2.9-.9.4-1.8.3 1.8-2.9 3.9-5.5l86.7-111.7q1 0 2.1-.5l8.6-6.4q.6-1.3-.9-1c-1.8.7-2.9 2.4-5 1.7l64-82.6q2.4-3 5.2-6 1-.3 2-.9a246 246 0 0 1 11.7-8.1q.3-1.2-1-1.2l-5.6 3.7q-1 .6-2.3.5 1.5-3 3.6-5.4 14.1-18.3 28.5-36.4 1-1.3 2.3-2.3.8-.3 1-1.1c2-.2 8.4-5.7 10.2-7.2l3-1.8c.9-1 5.4-3.4 5.6-4.5q-1-.3-2 .3a34 34 0 0 1-5.1 3 75 75 0 0 1-7.7 4.7c.7-2.3 20.5-27.8 22.2-28.6q2-1.5 3.4-3.2 0-.5-.5-.6 0-1 .6-1.7l26-33a12 12 0 0 1 10.6-4.1Z"/><path fill="#e13d52" fill-opacity=".5" stroke="#e13d52" stroke-opacity=".5" stroke-width=".5" d="M92 459.9q.3-2 2.4-2c1.3 1.4-1.7 1.5-2.4 2Z"/><path fill="#e23d53" fill-opacity=".3" stroke="#e23d53" stroke-opacity=".3" stroke-width=".5" d="M123.1 407q.3-2 2.5-2c1 1-2 1.7-2.5 2Z"/><path fill="#e33e52" fill-opacity=".4" stroke="#e33e52" stroke-opacity=".4" stroke-width=".5" d="M408.1 71.8c-.5 1-2 3-3 1.9.2-1.3 2-1.6 3-1.9Z"/><path fill="#c22a37" fill-opacity=".1" stroke="#c22a37" stroke-opacity=".1" stroke-width=".5" d="M379.8 79.7a2 2 0 0 1 1.4 1.2q-1.4 1-2.9 1.8 0-1-1-1.2z"/><path fill="#665231" fill-opacity=".8" d="M107.6 183.8c.4 1 .8 3-.6 3.2 0-.8-.4-2.8.6-3.2"/><path fill="#83333c" fill-opacity=".4" d="M416.4 13q-.3.9-1.1 1.3-.2-1.3 1.1-1.3m-1.1 1.3q-.6.6-1.3.8.3-1 1.3-.8"/><path fill="none" d="m120.7 407.9.3 1h-1z"/></svg>