<svg xmlns="http://www.w3.org/2000/svg" style="shape-rendering:geometricPrecision;text-rendering:geometricPrecision;image-rendering:optimizeQuality;fill-rule:evenodd;clip-rule:evenodd" viewBox="0 0 512 512"><path fill="#6b5d56" stroke="#6b5d56" stroke-width=".5" d="M179.8 226.9c11.6 7.4 11.7 15.1 18 26.2q-18.7 10.4-37.5 21.3a60 60 0 0 1-3.8-18.7q1-1.3 2.3-2.2c-1.3-1.1-2.2 1.7-3.6-.2-.1-2.2-2.1-7.7-.2-9.2zm-4 16.1q.8 0 1.2-.6-.9-.3-1.2.6Zm-1.7 1c-1.3.1-4.5 1.6-5 2.7.4 1.3 5-1.7 5-2.7q.3-.2.5-.6-.6 0-.5.6Z"/><path fill="#51c1bb" stroke="#51c1bb" stroke-width=".5" d="M316.9 433.7c-2.8 4.9-8.6 10.3-12 15.2-4 .8-7.9-.3-8-5.1 5.4-2.3 14.6-9.7 20-10Z"/><path fill="#3b9390" fill-opacity=".2" stroke="#3b9390" stroke-opacity=".2" stroke-width=".5" d="M309.3 393q.8 1.5-.4 2.5l-16.9 10a3 3 0 0 1-2 .4 6 6 0 0 1 1.6-1.6z"/><path fill="#4bb7b0" fill-opacity=".2" stroke="#4bb7b0" stroke-opacity=".2" stroke-width=".5" d="M300.8 350.1q.3.9 1.3 1.2a63 63 0 0 0-9 5.2 3 3 0 0 1-2.1.3c.6-1.4 8.2-5 9.8-6.7ZM188.9 427a2 2 0 0 1-.9 1.3l-8.7 5.6q-.3-.9-1.4-1.2 4.5-2.8 9-5.3a4 4 0 0 1 2-.4Z"/><path fill="#47bab6" fill-opacity=".2" stroke="#47bab6" stroke-opacity=".2" stroke-width=".5" d="M213 472q-.1.5-.5.8l-10.9 7.3q-.8.4-1.7.6l-1-1.2 12-7q1-.6 2.1-.5Z"/><path fill="#54c1a8" fill-opacity=".2" stroke="#54c1a8" stroke-opacity=".2" stroke-width=".5" d="M343.7 398.1q.5.9 1.4 1.3l-9 5.2-1.9.3q0-.9.7-1.3z"/><path fill="#45b9b4" fill-opacity=".2" stroke="#45b9b4" stroke-opacity=".2" stroke-width=".5" d="M210 430q-.3.8-1 1.2l-8.7 5.7q-.3-1-1.4-1.3l9.6-5.6z"/><path fill="#6b5d56" fill-opacity=".4" stroke="#6b5d56" stroke-opacity=".4" stroke-width=".5" d="M193.9 130c-.2 1-1.8 2.9-2.6 1.6q.8-1.6 2.6-1.6Zm135 26c-.3 1.1-4 3.8-4.9 2.6a8 8 0 0 1 5-2.7Zm-154.8 88q0-.7.5-.6zm118.7 55q.3-2.2 2.7-2.2c1.2 1.2-2 2-2.7 2.2Z"/><path fill="#3f9995" fill-opacity=".2" stroke="#3f9995" stroke-opacity=".2" stroke-width=".5" d="M264.9 456q0 .9-.9 1.4-3.3 2.3-6.7 4.3 0-1-1-1.3c1.7-1 6.6-4.6 8.6-4.4Z"/><path fill="#4fc1bb" fill-opacity=".3" stroke="#4fc1bb" stroke-opacity=".3" stroke-width=".5" d="m185.1 58-1.1-1.3 5-3a2 2 0 0 1 1.8-.2c-.4 1.2-4.7 3.4-5.7 4.5Zm6.9 367a3 3 0 0 1-3 2q.8-2 3-2Z"/><path fill="#3eaba6" fill-opacity=".2" stroke="#3eaba6" stroke-opacity=".2" stroke-width=".5" d="M286.7 390.3q0 1 1 1.3c-1.7 1-6.7 4.6-8.6 4.3.7-1.8 5.7-4.5 7.6-5.6Z"/><path fill="#42a5a0" fill-opacity=".2" stroke="#42a5a0" stroke-opacity=".2" stroke-width=".5" d="M195.9 392q0 1-.9 1.4a63 63 0 0 1-6.8 4.3q0-1-1-1.2c2-.9 6.7-4.7 8.7-4.4Z"/><path fill="#52c5b7" fill-opacity=".2" stroke="#52c5b7" stroke-opacity=".2" stroke-width=".5" d="M172 423c-.7 1.9-6.2 4.6-8 6q-.3-.6-1-.8c.3-1.2 7.6-5.2 9-5.2Z"/><path fill="#4fc1ba" fill-opacity=".3" stroke="#4fc1ba" stroke-opacity=".3" stroke-width=".5" d="M193 65a3 3 0 0 1-3 2 3 3 0 0 1 3-2Zm-41 340c-.4.9-2.1 3-3 1.7a3 3 0 0 1 3-1.7Zm156.8 63a3 3 0 0 1 2.7-1.8c1.5.9-2 1.9-2.7 1.9Z"/><path fill="#6b5d56" fill-opacity=".4" stroke="#6b5d56" stroke-opacity=".4" stroke-width=".5" d="M242 156.2q.3-2.1 2.6-2.2c1.3 1-1.8 2.4-2.7 2.2Zm82 77h1.2a2 2 0 0 1-1.5 1zM174 244c0 1-4.5 4-5 2.7.6-1.1 3.8-2.6 5-2.7Z"/><path fill="#72c8c4" d="m242 362.9-.7-2.6q2.4-.6 4.4-2 .6-.5 1.1 0a22 22 0 0 1-3.3 3.7z"/><path fill="#6b5d56" fill-opacity=".4" stroke="#6b5d56" stroke-opacity=".4" stroke-width=".5" d="M230.1 144.9c-.3 1-2 2.9-3 1.7q1-1.5 3-1.7Zm-33.2 12.3q.6-2 2.6-2.1c1.1 1-1.8 2-2.6 2.1Zm-23 53.4v1.5h-.6q0-1 .6-1.5Z"/><path fill="#419895" fill-opacity=".1" stroke="#419895" stroke-opacity=".1" stroke-width=".5" d="M163 428.2q.7.3 1 .7l-4.8 2.8q0-1.2-1.3-1.1c1.2-.5 4-2.6 5.2-2.4Z"/><path fill="#4fc1bb" fill-opacity=".3" stroke="#4fc1bb" stroke-opacity=".3" stroke-width=".5" d="M279 396a7 7 0 0 1-5 3c.5-1.5 3.4-3 5-3Zm90 44.8-.2 1.2h-.8q.4-.8 1-1.2Z"/><path fill="#4fc1bb" fill-opacity=".4" stroke="#4fc1bb" stroke-opacity=".4" stroke-width=".5" d="m237.3 6-3.6.2q.8-1.8 2.8-1.2.6.3.8 1ZM269 23c-.3 1-2 2.4-2.9 1.6q.8-2 3-1.6Z"/><path fill="#9ccfce" d="m257 395.2 3-.3c-.3 1.2-4.5 3.2-5.1 1a3 3 0 0 0 2.1-.7"/><path fill="#bde6e6" fill-opacity=".3" d="m328.2 446.8-2.2.1c-.2-1.1 2.8-1.6 3.5-2.5q.2 1.2-.5 2.1-.3.5-.9.3"/><path fill="#d1cbc8" d="M257.3 336.6q-1.4.3-2.7.2 1-1.4 2.5-2 .7-.7 1.6-.3-.5 1.2-1.4 2.1"/><path fill="#4f8984" d="M191.3 121.8c-.4 1.8-2.9 2-4.4 1.8a6 6 0 0 1 4.4-1.8"/><path fill="#947a6a" fill-opacity=".3" stroke="#947a6a" stroke-opacity=".3" stroke-width=".5" d="m189 201-.2-1q1-1.5 2.7-2c1.5 1-2 2.2-2.5 3Z"/><path fill="#3c7876" fill-opacity=".7" d="M195 13.1q-1.4 1.5-3.3.6c.6-1 2.4-.6 3.4-.6m-3.3.6c.2 1-1.2 1.1-1.8 1q.6-1 1.8-1"/><path fill="#9ad9d7" d="m273.2 346-.1 2-2.6 1c-.7-1 1.9-2.9 2.7-3"/><path fill="#2f8f8d" fill-opacity=".2" stroke="#2f8f8d" stroke-opacity=".2" stroke-width=".5" d="M314.8 112q-1.6.3-2.7-.7c1.2-1.7 3.8-2.3 2.7.6Z"/><path fill="#a49751" fill-opacity=".1" stroke="#a49751" stroke-opacity=".1" stroke-width=".5" d="m188.8 200 .2 1a7 7 0 0 1-2.7 1.2l-.3-1.3q1.3-.8 2.8-.9Z"/><path fill="#656d66" fill-opacity=".9" d="M216.1 108v1.9h-3q1.2-1.3 3-1.9"/><path fill="#29b2ae" fill-opacity=".1" stroke="#29b2ae" stroke-opacity=".1" stroke-width=".5" d="m183 57.1 1-.4 1 1.3-1.8.8z"/><path fill="#65665f" d="M224.8 332q.3 1.6.2 3.1l-1 .5q0-1.5-.2-2.8z"/><path fill="#50c0bc" fill-opacity=".3" stroke="#50c0bc" stroke-opacity=".3" stroke-width=".5" d="M260.2 5h-3.5c.5-1.6 3.1-1.6 3.5 0Z"/><path fill="#50c2ba" fill-opacity=".3" stroke="#50c2ba" stroke-opacity=".3" stroke-width=".5" d="m281 6-3.4-.1c.7-1.3 3.7-1.5 3.5.2Z"/><path fill="#88d4d3" fill-opacity=".2" stroke="#88d4d3" stroke-opacity=".2" stroke-width=".5" d="M326 447q-.3 1-1.2 1.8-.4 0-.7.2-.5-2.3 1.9-2Z"/><path fill="#55c3bd" fill-opacity=".9" d="M326 447q1-.2 2.2-.2l-.3 2.3q-1.6 0-3.1-.3.9-.7 1.2-1.9"/><path fill="#686151" fill-opacity=".2" stroke="#686151" stroke-opacity=".2" stroke-width=".5" d="m195.3 128.6.5.9q-.8.6-2 .5.4-1 1.5-1.4Z"/><path fill="#50bfbb" fill-opacity=".3" stroke="#50bfbb" stroke-opacity=".3" stroke-width=".5" d="m173.3 498.3-.4.5-1.1.2q.3-1.1 1.5-.7Z"/><path fill="#3d7f7c" d="M324.4 83.7q.5 1-.4 1 0-.6.4-1"/><path fill="#657571" fill-opacity=".2" stroke="#657571" stroke-opacity=".2" stroke-width=".5" d="M283 106.9v1l-1-.1q.3-.7 1-1Z"/><path fill="#6a5c57" fill-opacity=".4" d="M158.9 160.1h.7q.1 1-.8 1z"/><path fill="#6b5e57" fill-opacity=".3" d="M339 207h1q-.3 1-1.3 1z"/><path fill="#6b5d56" fill-opacity=".4" stroke="#6b5d56" stroke-opacity=".4" stroke-width=".5" d="M175.9 243q.2-.9 1-.6-.3.6-1 .6Z"/><path fill="#262626" stroke="#262626" stroke-width=".5" d="M256.7 5h3.5a289 289 0 0 1 20.9 1c16 1.7 38.8 6.2 53.4 12q12.2 7.3 10.4 21.5l-13.8 75q-.4 1.8.9 3c38 20.8 43.8 72.2 40.8 111a334 334 0 0 1-28 103q0 1 .5 1.7c46.8 37.1 34.9 87.9 37 140.3-.1 30.5-11.4 35.7-39.8 35.4q-10.5 0-21-.8c-54.6.2-109.2-.4-163.8.4-18.5-.8-27-6.7-27.8-26 1.3-30.4-2-64.2 3.3-94a92 92 0 0 1 33-53.7q1.3-1.3.5-2.9c-22.6-49.2-36.4-112-22.3-165.2a89 89 0 0 1 23.8-38.1q6.2-4.8 12.6-9.3a6 6 0 0 0 0-2.6c-4.5-25-9.6-50.1-13.8-75.2-2.3-15.4 10.2-22.8 22.9-26.8.6.1 2 0 1.8-1q2 .9 3.4-.6A511 511 0 0 1 237.3 6zm-18.3 8q-12 .2-23.7 3c-5.4.2-12.4 2.3-17.7 3.7-23.4 5-18 19-14 37.4q0 1 .3 1.7 2.2 11.3 4 22.5a1030 1030 0 0 1 5.7 31.3q0 .8.7 1.2L213 110a32 32 0 0 0 8.6-1q9.7-.8 19.4-1.2c3.2-.5 9.8.5 12.5-1.4a2 2 0 0 0 2 .6c5 .7 11.2.3 16.3.4 2.2.6 7.5.6 10 .4l1 .1q14.7 1.6 29.2 3.4 1.1 1 2.7.6c1.2.4 4 2 4.8.3 1.3-8.4 4-19.3 4.4-27.5q1 0 .4-1 .6-1.2.6-2.5 1.8-8.1 3-16.2.7-2.4 1-4.8 1.5-7.6 2.7-15.3l.4-1.8c1.7-8-.6-15-8.1-18.9q-1.4-.9-3.2-1.3c-.2-1.2-10.3-3.4-12-3.7a40 40 0 0 0-11-2.3q-.4-.8-1.3-.8a112 112 0 0 0-16.1-2.2c-5.4-.8-11.4-1.9-16.8-.7q-1.1-1.1-2.5-.4a2 2 0 0 0-1.7-.6l-16.5.2q-2.2-.1-4.5.5Zm23.8 31.2v1.6l.2 9.4q.5.5 1.2.4 7 0 13.7.7c4.6 2.2-.3 6.5-3.4 7q-5.6.7-11.2.8-.7.6-.6 1.4l-.2 10c-1.4 3-8.4 3.7-11.3 3.4-1.7-1.2.3-13.4-1.3-14.8l-13.5-.6c-6-1.7-2-6.2 1.9-7.3q6-.3 11.9-.9l.5-10.7q0-1.3 1-2 4.5-2 9.3-2.3c2-.2 1.6 2.7 1.8 4Zm-44 72.5c-1.4-.6-10.4.4-12 1.9-2-.6-14.4 1.7-14.9 3.2a6 6 0 0 0-4.4 1.8 75 75 0 0 0-28 36.5l-.1 1c-1.7 1-2.4 5-2.7 6.8a58 58 0 0 0-3 14.3l-.8 5.5q-.3 1 .6 1c-1.5 2.5-1 9.2-1.7 12.4l-.1 6.5.1 11.6q0 3.4.9 6.7c-.3 2.6-.5 8.3 1.1 10.4-.4 1.7-.8 7.7 1.8 7.8-2 1.5 0 7 .2 9.2 1.4 1.9 2.2-1 3.6.2q-1.3.9-2.3 2.2c-1 2.2 2.6 16 3.8 18.7q-.3 2 .6 3.6c.5 2 1.5 8.3 3.3 9.2-.9 2 1 4.7 1 6.8 1.5 2.3 2.2 7.7 4 9.3-.3 1.1.6 4.3 1.8 4.4-.1 2.7 1.6 6.4 3.2 8.6q.4 3 2 5.5c.8 1.2 1 4.4 2.8 4 10.3-6.1 21-9.1 32-13.6q.3 1 1.4.9l10.3-1.7c2.2-.9 1.3-4.4 1.1-6.2l.5-15.3-.3-1.6c.7-6.3-1.4-5.7-5.3-9.6q-.9-.6-1.9-1v-.6q-4.7-5.3-9.8-10.2a4 4 0 0 0-2-3c-1.4-2.1-4.7-8.1-6.7-9.2l-.4-1.6c-6.4-11-6.5-18.8-18-26.2q-.2-2.3-1.7-4c-2.2-3.3-2.8-7.3-4.2-10.8l-.1-1.5-.7-4c-.7-5.2.5-9.6.9-14.6q1.2-2.2 1.7-4.8a26 26 0 0 1 19.2-14.6c19-2.8 37.3-6.2 52.8-18.4 6.1-5.7 9.8-11.6 17.9-14.8a2.6 2.6 0 0 0 3 1.5c1.4 3 5.5 8.7 8.3 10.2q.6 1.3 1.7 2.1 6 5.2 12.7 8.8a5 5 0 0 0 4.4 1.5q.1.8.7 1.2c11.3 6 23.8 6.2 34.7 13.3q0 1.7 1.8 1.9c.3 1.3 3.9 9.1 5.3 9.2q-.9 3 .6 6v12l-.2.9-1.1 3a36 36 0 0 1-13.2 21q-.4.5-.4 1.2l-.3 1c-1.3-.2-3 3.5-3.3 4.4-1.4 2.9-14.4 24.6-14.1 25.7-1 1-3.3 1.8-3.4 3.5l-14.6 14q-.5 13.9-.4 27.7 0 .9.7 1.5c17.2 2.7 30.4 5.7 45.8 14.5q.6 0 .9-.7A321 321 0 0 0 349 287c.7-.6 4-13.8 3.7-15.4 1.5-2 1-4.4 2.2-6.6 0-3.5 2.5-10.3 1.8-13.4a11 11 0 0 0 1.4-3.4l1.4-11.3q.2-.8-.6-1.1c1.2-1 2.1-8.1 0-8 2.8-2.2 1.6-9 2-12.1V210q0-5.5-.9-11 .3-2.4-.2-4.7c0-2.8-.5-8-1.4-10.4.2-1.7 0-6.2-1.4-7.1 1-2-1.6-7.7-2-10q-.5-2-2-3c1-2.5-6-14.3-7.8-16.9l-.6-.6c0-2-3.8-7-5.7-7.7-.1-2.2-3.2-4.2-4.6-5.8a32 32 0 0 0-8.4-6.2 67 67 0 0 0-6.6-3.9 32 32 0 0 0-13.6-3.7c.2-1.2-3.8-.7-4.6-1.4-5 0-17-3.7-21-1q0-.9-.7-1.5-4.1-.4-8.3.1c-6-1-12.9-1.4-19-.5-1.2-1-7.4-.5-9.2.1q-.4-.7-1.3-.5c-7.6 1-16.1 0-23.5 2.4Zm18 55q-19.5 8-40.4 9.7c-9.1 2.4-10.6 11.2-9.8 19.5l.3 1.3c-.7 3.6 1 7.6 1.9 11q0 1.2 1.2 1.6.3 3 2.3 5.1c7 7.2 10.3 11.1 14.4 20.4q0 1 .3 1.7l3.3 5.8c1.1 2 2.7 5.1 4.4 6.6 0 .8.6 2.3 1.5 2.4 1.1 1.8 3.4 5.5 5.4 6.3.3 1.3 1.4 3.2 2.6 3.7 1.3 1.7 4.6 5.3 6.3 6.1 1.1 1.6 3.9 4.7 5.8 5q4.6 3.6 10 5.5 3.6 1.2 7.3 1.8c25.9 3.1 46.3-27.7 55.3-48.2.8-.2 2.5-5 2.7-6 8.6-6.7 13.5-11.8 15-23.2q.9-2.3 0-4.4c1.4-6-1.9-15.8-7.2-19.5a13 13 0 0 0-8.6-3.5c-3.5-.7-9.2-3.1-12.4-3.2a3 3 0 0 0-2.5-1.2q-9.9-4.7-19.3-10.2-.4-1.4-1.8-1.8c-2.3-1.7-4.5-4.2-7.2-5.4l-3.4-3.8q-.7-.7-1.7-.3a87 87 0 0 1-25.3 16.6zm18.5 165q1.2.2 2.6 0c13.6-1 17.5-11.3 18.2-23.4q0-11.4-.4-22.8-.6-.7-1.4-.4a50 50 0 0 1-36.1 1.1q-.8.4-.8 1.2c-.6 15.8-3 40.4 17.8 44.4Zm-53.5-11a86 86 0 0 0-50.1 46.6 16 16 0 0 0-2 3.4q-2.8 7.5-4.4 15.5-1.2 3.3-.7 6.7c-1.8 6.1-1.6 16-2 22.6a2 2 0 0 0 .7 1.8q-1 3-.4 6.4v9.8q-.2.9.6 1.2-.3 1 0 2l-.2 11.4.4 3.7-.9 17.8a37 37 0 0 0 2.4 15.5c1 2.8 3.3 6.7 6.7 6.7-.6 2.7 14.3 2.2 16 2.2q2.3.2 4.5 0 .6 0 1.1-.2 9 .3 17.9-.4c2.2.9 9.2.3 12 .2 5.8 0 13.4.5 19-.3 3 1 11.5.3 15 .5 5.6-.2 14 .4 19.1-.6 1.4 1.2 10.6.6 12.8.5q18.3.2 36.4 0 7.5.3 14.8 0l19.3.3q4.3.4 8.5.4c22.8 1.1 22-9.5 21.5-28.5v-4.8q0-12-.4-24.1l.3-1.2-.1-5.5a287 287 0 0 0-.2-29.8q0-1.2-1-1.9c1-1.5 0-4.7 0-6.4a71 71 0 0 0-10-29.4v-1.1c-.5-1-1.3-3.3-2.6-3.4-.5-2.6-3-6.6-5.4-7.7 0-1.7-2-4-3.6-4.3-.4-2.8-4.6-5.4-6.2-7.6l-2.6-2a40 40 0 0 0-8.4-6q-1.2-1.5-3-1.7c-.7-1.8-7.2-4.4-9.1-5.1q-3.7-2.1-7.7-3.6l-9.4-2.6c0-.6-4.2-.4-5-.7-1.5-.4-7.7-2.4-7.5.6a40 40 0 0 0-.2 6.3A212 212 0 0 1 286 342q-.2 2-.1 4-1.6 7.5-2.7 15l-3.8 16.9a26 26 0 0 1-19.3 17l-3 .3a4 4 0 0 0-3.3.4c-12.8-.6-17.9-6.3-21.7-18a295 295 0 0 1-7.2-45.5q0-5-.4-9.7-.6-2-2.5-1.2c-2.8.3-19.7 3-20.7 4.6Zm43.8 18.4-1.2-.3c-.8-.7-4-2.5-5-1.4a8 8 0 0 0 .9 5 65 65 0 0 0 5 26.7l.6 3.1c.6 2.4 3 8.2 5.6 8.7q1 2 3.3 2.2.4.7 1.4.7 7 1.6 9.7-5.1a175 175 0 0 0 7.8-35.7l.1-2c.1-1.3 1.4-4.8.3-5.7a41 41 0 0 1-28.5 3.9Zm77 40.3V406c.4 1.6 3.3 1.4 4.2.2q3.9.3 7.8-.2c4.8.6 9.9 1.5 12.2 6.4q.8 1.1 1 2.5l.7 14.4a9 9 0 0 0 0 5.5c-.2 10.8-2.2 18.2-14.4 20q-11.3.8-22.5.8c-1.7-1-4.4-.7-6.3-.3a68 68 0 0 0-9.7.6 14 14 0 0 0-4-1.4c-11.7-4.5-5.4-25.2-6.8-34.9.5-7.7 6.4-10.6 13-13 1.4.4 4.8.9 6-.3h4.3q2.1.2 2.1-1.9c-.3-2.3.6-7-.7-8.9q1.3-1.1.4-2.5c.7-5-1-10.4 5.5-11.6 2.8-.3 7.7-1.6 7.2 3Zm-25 59.4c0 4.8 3.8 5.9 8 5.1h19l.7-.1q1.5.3 3.2.3c1.3-.4 6 .4 6.5-1 1-4.5.4-11.5.6-16.3q.3-2.4 0-4.8c-.1-4 1.6-11.3-3.2-13.2-.6-1.4-4.5-1-5.8-.9a817 817 0 0 0-28.2.5c-3 7.5-1.1 19.7-1.4 27.9q0 1.3.6 2.5Z"/><path fill="#747778" d="m322 406 4.2.2c-.9 1.2-3.8 1.4-4.2-.2"/><path fill="#7a8989" d="M303.2 406.4c-1.2 1-4.6.7-6 .3q2.8-1.5 6-.3"/><path fill="#8b8c8d" d="M257 395.2a3 3 0 0 1-2.2.7l-1.1-.3a4 4 0 0 1 3.3-.4"/><path fill="#69c9c5" d="m243.8 343.8 1.2.3c-.2 1.2-4 4.7-5.2 5a3 3 0 0 1-.1-1.8z"/><path fill="#6b5d55" d="M311 231c-.2 1-1.9 5.8-2.7 6l-1.3-.1c-.1-1.2 1.3-2.5 0-3.3q1.8-1.6 4-2.6"/><path fill="#6a5e57" stroke="#6a5e57" stroke-width=".5" d="m259.3 97.8-.2 6.2c-1.3 1.2-2.8 1-3.5 3a2 2 0 0 1-2-.6c-2.7 1.9-9.3 1-12.5 1.4q0-.5.4-.6c4.2-2 14-8.7 17.8-9.4Z"/><path fill="#6b5d56" stroke="#6b5d56" stroke-width=".5" d="m285.1 100.2.8 3.9v.5q-1.7.8-2.9 2.3-.7.1-1 .9c-2.6.2-7.9.2-10.1-.4q6.5-3.9 13.2-7.2ZM243 114.8c-6.2 4.4-20 16.5-26 18.7a2 2 0 0 0-.9 1.4c-1 .3-2.7.6-3 1.8 1 1 3-.5 3-1.8 3 0 31.2-17.4 36.2-20.2 6-1 12.9-.5 19 .5-13.4 9.4-26.7 19.4-40.2 28.4q-.8.4-.9 1.3-2 .2-3 1.7c1 1.2 2.7-.7 3-1.7l2-.2q23.8-14 48-28c4-2.8 16 1 21 .9l-5.1.8-30.3 21c-8 3.2-11.7 9-17.9 14.8-15.5 12.2-33.8 15.6-52.8 18.4a26 26 0 0 0-19.2 14.5q-12.5 6.8-24.6 14c.7-3.2.2-10 1.7-12.4q19.6-13.5 38.8-27.3 2.8-2 5.2-4.2c.8 0 3.7-1.1 2.6-2.1q-2 0-2.6 2.1c-3.8 0-35.8 20-41.9 23.5q-.8.8-2 1.5.7-7.4 3.1-14.3c6.7-4 15.2-10.9 21.6-15.7 1.3-1.3 9.2-5.7 9.2-7 .6-.5 4-1 2.6-2.1q-2 0-2.6 2-1 0-2 .3-12.3 7.7-25.3 14.7h-.7a75 75 0 0 1 28-36.5c1.5.2 4 0 4.4-1.9.5-1.4 13-3.7 15-3.1-2.3 2.2-9.8 7.9-11 10q-1 .4-1.4 1.4-1.8 0-2.6 1.6c.8 1.2 2.4-.6 2.6-1.6q1 .1 2-.5l22.2-12.8c7.4-2.5 15.9-1.4 23.5-2.4q.9-.2 1.3.5Zm62.8 4.2a32 32 0 0 1 13.6 3.7c-4.1.3-36.4 24.3-42.3 28.4a30 30 0 0 1-8.4-10.2l36-20.7q1-.5 1.1-1.2Zm20.3 7.6q4.6 2.4 8.3 6.2c-4.9.6-35 23.1-41.5 27.5q-.9.7-1.4 1.7a69 69 0 0 1-12.7-8.8q1.2 0 2.3-.6zm13 12c1.9.8 5.6 5.8 5.7 7.7q-.9-.5-1.8.1-6.4 4.2-13 8.2a2 2 0 0 0-1 1.3 8 8 0 0 0-4.9 2.7c1 1.2 4.6-1.5 5-2.7h1.3l15-9c1.7 2.6 8.7 14.4 7.7 17q-11.1 6.7-21.8 14.1c-10.9-7.1-23.4-7.3-34.7-13.3q-.6-.4-.7-1.2zm-97 17.6c.8.2 3.9-1.2 2.6-2.2q-2.2 0-2.7 2.2Zm25 2.4-9.7 6q-14 7.6-27.8 15.4c-.9-.6 0-1 .4-1.6l6.4-5.4q.5-.7 0-1.2 0-.4.3-.7 14-6 25.3-16.6 1-.4 1.7.3zm7.3 5.4q1.2.5 1.7 1.8c-.8 1.5-8 5.4-9.9 6.7-.8.3-1.4 1-2 0 .3-2.1 9.4-5.2 10.1-8.5Zm80.6 2.8c.5 2.3 3 8 2 10q-9.4 6-18.6 12.3c-1.4 0-5-8-5.3-9.2 7.3-4.3 15-8.3 22-13.1Zm-59.6 9.2q1.6 0 2.5 1.2c-.3.7-12.2 8-13.5 8.6-1.4.7-1.7-.8-.5-1.5 2.8-2.2 9.9-5.5 11.5-8.3Zm15 4.4q4.9 0 8.5 3.4l-42.1 24.4c-1.4.6-3.8 3.2-5.2 2.9q-.6-1 .4-1.6 3-2.2 6-4.1l29.1-22q1.8-1.4 3.2-3Zm48 3.5c1 2.4 1.5 7.6 1.5 10.3q-10 6.3-19.9 12.8h-1v-12c2.4-.5 17.7-9.5 19.5-11.1Zm-184.2 8c-.4 5.1-1.6 9.5-.9 14.7-3 .6-19.2 10-22 12.6q-.2-5.8-.1-11.5 11.7-7.6 23-15.7ZM360 199q1 5.5.9 11c-2.8 0-31.2 20.2-35.7 23.3l-1.2-.1q0-.7.5-1.1a36 36 0 0 0 13-21.2c3 .8 18.9-10.1 22.5-11.9Zm-34 4.4q.9 2.2 0 4.4c-6.5 3-15.2 8-20.9 12.1-1.3 1-2.8-.3-1.2-1.4 3-2 20.6-15 22.1-15.1Zm-136.6 11.4q-1-.5-1.2-1.5 1.5-.2 2.9-.8l5.5-3.7q2.1.3.6 1.7c-2.5 1.1-5 4.9-7.8 4.3Zm-16-2.8h.6c1.4 3.6 2 7.6 4.2 10.9-2.5-.5-21.4 11.3-25 13.4-1.6-2.1-1.4-7.8-1.1-10.4zm187.5 3.8c-.4 3.1.8 9.8-2 12.1l-52.6 36.3c-.3-1 12.7-22.7 14.1-25.6q1.4-.3 2.7-.9 18.9-10.8 37.8-22Zm-151.2 32-3.3-5.8q-.3-.7-.3-1.7a902 902 0 0 0 37.9-22c1.6-1 2.8.3 1.2 1.4-11.7 7.8-23.3 17-34.5 25.7q-1.1.9-1 2.4Zm97.3-14.2c1.3.8-.1 2 0 3.3q-.6.8-1.4 1.2-6.7 3.7-13 8.1-1 .9-2.3.1 0-.6.6-.9 8.5-5.4 16-11.8Zm52 2.3q.6.3.5 1.1l-1.4 11.3c-2.4-.5-17.8 11.6-21 13.2q-.7.6-1 1.3c-1.5 0-4.7 1.8-5.1 3.2q-2 0-3 1.6c1 1 2.7-.6 3-1.6a6 6 0 0 0 5-3.2q3-.8 5.7-2.4l15-8.7c.7 3-1.8 10-1.8 13.4-2.8 0-24.1 17.6-28.4 20q-.9.6-1.3 1.7-2.1 0-3 1.9c.8 1.2 2.6-1 3-1.9 4-.8 22.4-12.5 27.5-15 .2 1.5-3 14.7-3.7 15.3q-1 0-2 .7l-11.6 9a1 1 0 0 0-.2 1q-1.3 0-2 1c.7 1 1.8-.2 2-1q1.8-.5 3.5-1.5l9.3-5.5a321 321 0 0 1-12.7 34 1 1 0 0 1-.9.7 123 123 0 0 0-45.8-14.5q-.7-.6-.7-1.5-.1-13.8.4-27.7l14.6-14a25 25 0 0 0 5-2.4zm-135.3 30.9c-1.3-.5-2.4-2.4-2.7-3.7 2.4-2.3 21.7-12.7 26-15.6 1.8-1.3 2.8 0 1.2 1.2-3.3 1.7-24 15.8-24.5 18Zm12 11c-2-.2-4.7-3.3-5.8-4.9q21.2-12.2 42-24.8c1.6-1 2.5.5 1.2 1.3a984 984 0 0 0-37.4 28.4Zm-20.1-21c-.9-.1-1.5-1.6-1.5-2.4q3.9-2.7 7.8-5c1.7-1.2 3 .2 1.3 1.2l-7.5 4.7a2 2 0 0 0-.1 1.5Zm-17.3-2.1c2 1 5.3 7 6.7 9.2l-1.7.7q-19.5 11.2-39.1 22.7c-1.8-1-2.8-7.2-3.2-9.3 3.3-.1 30.2-19.1 35-22.4zm8.7 12.2q5.1 5 9.8 10.2c-4.1-.1-40.7 23-47.6 26.2-1.8-1.6-2.5-7-4-9.3 3.4.2 36.4-23.4 41.8-27Zm52 12.3a5 5 0 0 0-3-2.3 309 309 0 0 0 14-8.6c1.5-1 2.6.2 1.1 1.3zm-42.2-1.5q1 .4 1.9 1c4 3.9 6 3.3 5.3 9.6q-1 0-2 .3l-47.8 27.7a17 17 0 0 1-3.2-8.6zm7.5 12.2-.5 15.3a240 240 0 0 0-12.8 7c-11 4.5-21.7 7.4-32 13.5-1.8.5-2-2.8-2.7-3.9q24-15.8 48-32Zm68.5 9.2c.7-.3 4-1 2.7-2.2q-2.4 0-2.7 2.2Zm-71 22q-13.8 8.4-28 16.2v-2.4c.2-4 6.8-6.2 7.4-9.1 1-1.6 18-4.3 20.7-4.6Zm87.4 4.2q4 1.5 7.7 3.6l-13.7 8q-1-2.4-1-4.8c.4-1.3 6.6-4.5 7-6.8Zm-85.4 7.5.2 2.8-3.6 2c-2.5-1 2.8-4.3 3.4-4.8ZM326 334q1.8.2 3 1.7l-3.1 1.6-.2-2q0-.7.3-1.3Z"/><path fill="#4fc1bb" stroke="#4fc1bb" stroke-width=".5" d="m243 12.4 16.4-.2a2 2 0 0 1 1.7.6q-1 0-1.9.7-4.6 3.5-9 7.2-1.5.7-2.8 1.6c1.3 1.5 2.4-.4 3.5-1q6-3.7 12-7 .7-.3.7-1.1c5.4-1.2 11.4 0 16.8.7l-2.4 2.5c-1.4 1-5.5 2.7-5.8 4.4q-2.4 0-3.2 2.2-2.1-.5-2.9 1.6c1 .8 2.6-.5 3-1.6q2.2 0 3.1-2.2 1.3 0 2.5-.5 4-2.6 8.3-5 .6-.3.8-1 6.4.6 12.7 1.8.9 0 1.3.8l-34 25.5-1.6 1.8c-.2-1.2.2-4.1-1.8-4q-4.8.4-9.2 2.4-1 .7-1 2l-.6 10.8-12 .9c-3.7 1-7.7 5.5-1.8 7.3l13.5.5c1.6 1.4-.4 13.6 1.3 14.8 2.9.3 9.9-.4 11.3-3.5l.2-9.9q0-.8.5-1.4 5.7-.1 11.3-.7c3-.6 8-5 3.4-7.1q-6.7-.7-13.7-.7-.7.1-1.2-.4-.3-4.7-.2-9.4 1 .6 2.1 0L308 20.3q.7-.3.8-1.2c1.7.3 11.8 2.6 12 3.7q-10.2 7.1-20.3 14.4-2.3 1.6-5 2.7-.4.3-.4.9-1.2.1-2.2.6-2.1 1.5.4 1.3 1.2-.6 1.8-2c2.4.2 2.4-.6 4.2-2q12-6.7 23.6-13.5.7-.5 1-1.1c7.6 3.9 10 10.9 8.2 18.9q-1.2-.2-2.2.4l-13.5 9.7q-1.6.1-2.2 1.7c-1 .3-2.8.7-3.1 1.8 1 1.5 2.4-1.3 3.1-1.8l3.7-1.5 11.4-6.7q1.3-.7 2.4-1.8-1.2 7.6-2.8 15.3c-2.2-.3-14.5 11-17.4 12.9q-1 .6-1.3 1.7-2 0-3 1.8c1 1 2.6-1 3-1.8 4.6-1.6 13.3-7.2 17.8-9.8q-1.2 8.1-3 16.2c-1.5.6-4.6 3-4.8 4.7q-2 0-3 1.6c1 1.1 2.6-.7 3-1.6q1.8-.7 3.8-1.2c-.4 8.2-3.1 19-4.4 27.5-.7 1.6-3.7.1-4.8-.3 1.1-3-1.5-2.3-2.7-.6l-29.1-3.4v-1q1.2-1.5 2.8-2.3l.1-.5a44 44 0 0 0 12-11c1-.3 3.1-.7 2.6-2a3 3 0 0 0-2.6 2 47 47 0 0 0-12.8 7.1q-6.7 3.3-13.2 7.2c-5.1 0-11.4.3-16.3-.4.7-2 2.2-1.8 3.5-3q13.5-10.6 26.6-21.4a1 1 0 0 0-1-.2L260 96.6q-.7.5-.7 1.2c-3.8.7-13.6 7.5-17.8 9.4q-.4.1-.4.6-9.8.4-19.4 1.2l15-10.8 10.4-6.7q.8-.5.8-1.3c.9-.5 2.8-.6 3-1.8-1-1.2-2.6.8-3 1.8q-2 .7-3.9 1.6a1329 1329 0 0 0-31 18.2l-19.3 3.8q-.7-.4-.7-1.2l-2.2-12.6a4 4 0 0 0 2.2-.5q7.5-5.4 15.1-10 .9-.4.7-1.3c1 0 6-2.2 4.8-3.2-1.4-.1-4 2-4.8 3.2q-2.7 1.1-5.5 2.5l-12.8 7.6a89 89 0 0 1-1.9-10.2q18.6-13.6 37-28 2.8-1.5 5.1-3.8l3-1.6c-1.7-1.6-3.4 1-4.5 2q-20.3 11.2-40.3 22.9-.7 1-1.7 1.7-1.7-11.2-4-22.5 1-.2 1.9-.8c1-1 5.3-3.3 5.7-4.5a2 2 0 0 0-1.9.2l-5 3-.9.4c-4-18.3-9.4-32.4 14-37.4l-6.8 10.6q.8.4 1.4-.2l22.8-13.2q.5-.4.3-1 11.7-2.7 23.6-3l-4.4 3.5a2 2 0 0 0-.8 1.4q-2.1 0-3 1.8c1 1.2 2.6-1 3-1.8a26 26 0 0 0 9.8-5.4Zm85 20.9a2 2 0 0 0 1-.8q-1-.3-1 .8Zm-80.1 20.9q.3.9 1 .3-.3-.5-1-.3Zm-53 9q.2.9 1 .3-.3-.6-1-.4Zm-2 1.8a3 3 0 0 0-3 2 5 5 0 0 0-3.5 1.6c1.1 1.7 3-.4 3.6-1.6a3 3 0 0 0 3-2l.6-.5q-.4 0-.6.5Zm29 256.2q2-.7 2.5 1.2.4 4.8.4 9.7l-1 .7c-.6.5-5.9 3.9-3.4 4.8l3.6-2 1-.5q2 21.6 7 42.6c3.8 11.7 9 17.3 21.7 18l1.2.2c.6 2.2 4.8.2 5.1-1a26 26 0 0 0 19.3-17c2.8.2 10.8-8 15.8-7.5q2.3-1.5 4.7-2.8c12.6-7.9 28.5-15.5 40.2-24 1.6 2.3 5.8 5 6.2 7.7q-30 19.2-59.5 39c-1.9 1-6.9 3.7-7.6 5.6-1.7 0-4.6 1.6-5.1 3.2q-2.3-.3-3 1.9-1.3-.2-2 .7c.7 1 1.8 0 2-.7a4 4 0 0 0 3-2 7 7 0 0 0 5-3c2 .2 7-3.3 8.7-4.4q31.1-17.8 62-36c2.5 1.1 5 5 5.5 7.7q-1 .2-1.7.7-15.7 10.4-31.4 20.4c.4-4.6-4.5-3.3-7.3-3-6.4 1.2-4.8 6.6-5.5 11.6l-17.7 11.2a6 6 0 0 0-1.6 1.7q-2 .3-3 2.1-1.4-.3-2 .7c.5 1 2 .3 2-.7a4 4 0 0 0 3-2 3 3 0 0 0 2-.5l16.9-10c1.3 1.9.4 6.6.7 9q0 2-2 1.8h-4.4q-3.2-1-6 .4c-6.6 2.3-12.5 5.2-13 12.9 1.4 9.7-4.9 30.4 6.8 35q2 .3 4 1.3l-5.1 2.8-68 39.6c-5.7.8-13.3.3-19.1.3l3.5-1.9 51-35q3.5-2 6.7-4.3.8-.5.9-1.4 2.1 0 3.2-2a9 9 0 0 0 4.8-2.6c-1.4-1.4-4.2 1.3-4.8 2.7a3 3 0 0 0-3.2 2c-2-.3-7 3.2-8.6 4.3q-33 18.8-65.5 38-9 .7-17.9.4l.4-.5q13.5-8.6 26.6-17.6 1-.1 1.7-.6l10.9-7.3q.4-.3.5-.8c1.9-.1 3.7-1.4 5-2.7-.9-1.3-4.6 1.7-5 2.7q-1 0-2 .5l-12 7q-.7.9-1.6 1.3-14.8 8.1-29.5 16.7-.7.6-.6 1.5c-1.7 0-16.6.5-16-2.2q1 .3 1.9-.1 1.9-1.8-.6-1.3-1 .3-1.3 1.4c-3.4 0-5.7-4-6.7-6.7q26.3-17.1 52.4-34.5l10.1-6q.9-.5.7-1.3c1.5-.3 4.8-1.8 5.2-3.4q1.2.1 2.2-.2 1.9-1.7-.6-1.4-1 .6-1.6 1.6c-2 0-4.2 1.7-5.2 3.4-1.6-.2-3.2 1.6-4.8 2l-60 35q-1-5.3-.8-10.7l66.8-43.4q.7-.5 1-1.2 2.2 0 3-2a4 4 0 0 0 2.2-.4q2-1.7-.6-1.3-1 .5-1.7 1.6a3 3 0 0 0-2.9 2l-1.4.1-9.7 5.6q-.7.8-1.5 1.2-26.8 15.1-53.5 30.7-1 .6-1.6 1.6l.8-12.3c1.7.4 32-20.8 36.2-22.9q4.4-2.7 8.7-5.6a2 2 0 0 0 1-1.3 3 3 0 0 0 3-2c.5.2 2.7-.3 1.5-1.1q-1 0-1.5 1-2.2.2-3 2a4 4 0 0 0-2 .5l-9 5.2c-11.5 7-23.6 13.5-35.3 20.5q0-5.7.3-11.4c1.9.3 13.9-8.4 16.2-10l4.8-2.8c1.8-1.3 7.3-4 8-6 1 .2 5.8-2 4.6-3-1.4 0-4 1.8-4.6 3-1.4.1-8.7 4.1-9 5.3-1.2-.2-3.8 1.9-5 2.4a270 270 0 0 0-15 9q-.9-.2-.7-1v-10a1538 1538 0 0 0 46-31 63 63 0 0 0 6.7-4.2q.8-.4.9-1.3 2.1 0 3-2c.5.1 2.8-.4 1.7-1.2q-1.1.2-1.6 1.1-2.2.2-3.1 2c-2-.2-6.7 3.6-8.7 4.5l-44.5 25.8a2 2 0 0 1-.6-1.8c.3-6.6.1-16.5 1.9-22.6q19-13.2 37.9-26.8 1.2-.8 1.8-2l2.4-.5q1.8-1.5-.4-1.2-1.2.6-2 1.7c-13.2 6.8-25.9 14.8-39 22q1.5-7.8 4.4-15.4 1 .4 2-.2c2.7-2.5 13.2-9 14.7-11.4.6 0 4.5-.8 2.7-2q-2 .3-2.7 2l-1.2.2q-6.8 3.8-13.5 8a86 86 0 0 1 50-46.5c-.4 3-7.1 5.2-7.4 9.1q-1.5-.3-2.7.7-4.2 4-8.7 7.7.8.4 1.7 0l9.9-6q14-7.8 28-16.1Zm73 .8q0 .5-.6.8l-7.1 4.3.1-4.5c-.2-3 6-1 7.6-.6Zm4.9.7 9.4 2.6c-.4 2.3-6.6 5.5-7 6.8-2.5-.6-13.4 8.7-16.3 9.9q.8-6.5 1.2-13c3.6-1.7 9-6 12.7-6.3Zm17.1 6.2c1.9.7 8.4 3.3 9 5.1l-.3 1.2a4 4 0 0 0-2.6.5l-22.2 14.4c-1.6 1.6-9.2 5.3-9.8 6.7-1.4 0-6 3.7-8 4.1l2.7-14.9c2.8.3 14.4-7.4 17.5-9.2zm-108.2 15.3c.7-.2 4.3-1 3-2.3q-2.2.3-3 2.3Zm8 13c.7-.3 4.2-1 2.9-2.3q-2 .3-2.9 2.2Zm140 10.4 1.2.2c2.4 1.2 6.5 14.1 7.4 17.1-3.4.4-15.5 9.7-19.3 11.7q-.9 1.3-2.3 1.5l-8.8 5.5q-.6.4-.7 1.3l-.2 1.1q-3.9.5-7.8.2l-4.2-.2v-18.3a515 515 0 0 0 34.8-20ZM247 375.3q-1.5-.7-1-2.3c1.8-.7 4.7-4 6.6-3.4q-2.7 3-5.6 5.7Zm8.2 11.2q-1.4-.5-2-1.5l1-.9c.8-.3 4-3.5 4.6-2.5.3 1.4-3 3.5-3.6 4.9ZM153.9 404q-1.2-.2-1.9 1-2 0-3 1.7c.9 1.3 2.7-.8 3-1.7q1.4.3 2-1c.6 0 3.9-1 2.6-2q-2 0-2.7 2Zm213.9-.4q1 .5 1 2l.3 9.4c-3.1.5-17 12.2-21.2 14.3l-.6-14.4c3.6 0 16.8-9 20.5-11.3ZM304 413a27 27 0 0 1 4.9 0q-.2.5-.7.8l-5.7 3c-1-.8 1-3 1.5-3.8Zm20.8 1.5q1.7.4 3.2 1.2-4 2.9-8.6 5.1c-.7 0-1.6 2-2 1.6q0-1 .7-1.8 3.6-2.8 6.7-6.1ZM335 427q.3 2.4 0 4.8-3.4 1.2-6.4 3-.5-.3-.1-.9z"/><path fill="#4fbfbb" fill-opacity=".3" stroke="#4fbfbb" stroke-opacity=".3" stroke-width=".5" d="M268 454q-1 2-3.1 2a3 3 0 0 1 3.2-2Z"/><path fill="#4fc1bb" fill-opacity=".5" stroke="#4fc1bb" stroke-opacity=".5" stroke-width=".5" d="M213 428q.5-1.2 1.6-1.7 2.6-.3.6 1.4a4 4 0 0 1-2.3.2Zm0 17q.6-1.1 1.6-1.7 2.5-.4.6 1.4-1 .3-2.2.2Zm0 27c.4-1 4.1-4 5-2.6-1.3 1.2-3.1 2.5-5 2.6Z"/><path fill="#4fc1ba" fill-opacity=".3" stroke="#4fc1ba" stroke-opacity=".3" stroke-width=".5" d="M290 406a4 4 0 0 1-3 2q.9-1.9 3-2Zm-77 22q-.8 2-3 2a3 3 0 0 1 3-2Z"/><path fill="#4fc1bb" fill-opacity=".5" stroke="#4fc1bb" stroke-opacity=".5" stroke-width=".5" d="M154 404q.6-2 2.6-2c1.3 1-2 2-2.7 2Zm114 50c.7-1.3 3.5-4 4.9-2.6a9 9 0 0 1-4.8 2.7Z"/><path fill="#4fc1bb" fill-opacity=".4" stroke="#4fc1bb" stroke-opacity=".4" stroke-width=".5" d="M274 399a4 4 0 0 1-3 2q.7-2 3-2Zm-102 24c.7-1.3 3.2-3 4.6-3 1.2 1-3.6 3.1-4.6 3Zm20 2q.5-1 1.5-1.1c1.2.8-1 1.3-1.5 1Z"/><path fill="#50c3bc" fill-opacity=".3" stroke="#50c3bc" stroke-opacity=".3" stroke-width=".5" d="M199 390q-1 2-3.1 2 .9-1.8 3-2Z"/><path fill="#50c2bb" fill-opacity=".4" stroke="#50c2bb" stroke-opacity=".4" stroke-width=".5" d="M199 390q.5-1 1.6-1c1.1.7-1.2 1.2-1.7 1Z"/><path fill="#4fc2bb" fill-opacity=".4" stroke="#4fc2bb" stroke-opacity=".4" stroke-width=".5" d="M183.7 369.1q.8-1.1 2-1.7 2.2-.3.4 1.2z"/><path fill="#50c1bb" fill-opacity=".4" stroke="#50c1bb" stroke-opacity=".4" stroke-width=".5" d="M165.8 364.2a3 3 0 0 1 2.7-2c1.8 1-2.1 1.8-2.8 2Z"/><path fill="#4fc1bc" fill-opacity=".4" stroke="#4fc1bc" stroke-opacity=".4" stroke-width=".5" d="M297.9 93a3 3 0 0 1 2.6-2c.5 1.4-1.7 1.8-2.6 2Zm-81.2 264.1q.8-2 2.9-2.2c1.3 1.3-2.2 2-2.9 2.2Z"/><path fill="#4fc1bb" fill-opacity=".5" stroke="#4fc1bb" stroke-opacity=".5" stroke-width=".5" d="M320.2 85.9c-.4.9-2 2.7-3 1.6q1-1.5 3-1.6ZM208.7 344.2q.8-2 3-2.3c1.3 1.3-2.3 2-3 2.3ZM271 401c0 .7-1.2 1.6-1.8.7q.6-.9 1.8-.7Z"/><path fill="#3ecdca" fill-opacity=".2" stroke="#3ecdca" stroke-opacity=".2" stroke-width=".5" d="M190 67c-.6 1.2-2.5 3.3-3.6 1.6A5 5 0 0 1 190 67Z"/><path fill="#4fc0bb" fill-opacity=".4" stroke="#4fc0bb" stroke-opacity=".4" stroke-width=".5" d="M193 65q0-.5.6-.5zm-39 339q-.6 1.3-2 1 .6-1.2 2-1Zm59 41c-.4 1.5-3.7 3-5.2 3.3 1-1.7 3.2-3.4 5.2-3.4Z"/><path fill="#4fc1bb" fill-opacity=".4" stroke="#4fc1bb" stroke-opacity=".4" stroke-width=".5" d="M194.9 63.1q.7-.1 1 .4-.8.6-1-.4Zm14 25c.6-1.2 3.3-3.2 4.7-3.1 1.1 1-3.8 3.1-4.7 3.2Zm39 2c.4-1 2-2.9 3-1.7-.2 1.2-2.1 1.3-3 1.8Z"/><path fill="#4fc1bb" fill-opacity=".5" stroke="#4fc1bb" stroke-opacity=".5" stroke-width=".5" d="M295 40.9q-.5 1.2-1.7 2-2.5 0-.4-1.4zm19.2 14c-.7.5-2.1 3.3-3.1 1.8.3-1.1 2.2-1.5 3.1-1.9Zm-162.9 442q.3-1.2 1.3-1.5 2.6-.5.6 1.3-.9.4-1.9.1Z"/><path fill="#50c1bc" fill-opacity=".6" d="M328 33.3q0-1 1-.8a2 2 0 0 1-1 .8"/><path fill="#4bbebb" fill-opacity=".2" stroke="#4bbebb" stroke-opacity=".2" stroke-width=".5" d="M272.2 20.8A3.4 3.4 0 0 1 269 23a3 3 0 0 1 3.2-2.2Z"/><path fill="#50c1bc" fill-opacity=".3" stroke="#50c1bc" stroke-opacity=".3" stroke-width=".5" d="M233.1 17.8c-.4.9-2 3-3 1.8a3 3 0 0 1 3-1.8Z"/><path fill="#4fc1bb" stroke="#4fc1bb" stroke-width=".5" d="M329 335.7q4.5 2.6 8.4 6c-3.7.3-32.2 20.2-37.5 23.7q-1.9 1.2 0 2.2-2.6 1.3-4.8 2.8c-5-.5-13 7.7-15.8 7.5l3.8-17c2-.4 6.5-4 7.9-4a3 3 0 0 0 2-.3q4.4-3 9.1-5.3zM254.1 384l-1 .9q.4-.6 1-.9Zm-1 .9q.8 1 2 1.5-.7.6-1 1.6a4 4 0 0 1-3.2-2.2zm112.8 1.6q1.4 5.2 1.8 10.6c-2 1-20 12.6-21.5 15.2-2.3-4.9-7.4-5.7-12.2-6.4l.2-1.1 1.8-.3q4.5-2.8 9-5.2c5.8-4 16-8.4 20.9-12.8ZM326 413c1.3 0 5.2-.5 5.8 1q-1.7 1-3.8 1.8-1.4-.9-3.2-1.2.9-.6 1.2-1.6Zm43.2 10-.2 12.4q-1-.3-1.7.3c-4.1 3.1-30.3 22-31.2 24.3q-2.1-.4-3 1.7c1.4.6 2.4-.7 3-1.7q1.8-.4 3.2-1.3L368 442h.8q.5 12 .3 24-1.2-.2-2.1.6-6.7 6.5-13.7 12.7.8.6 1.7.1 7.1-4.4 14.2-8.5c.5 19 1.3 29.6-21.5 28.5l6.7-8.3q.3-1-.7-1c-2.5 1.3-13.8 6.9-14.5 8.9q-9.6 0-19.3-.4 1.3-.7 2.5-1.7l20.2-19.3c-1.3-.8-4 1.7-5.3 2.1q-16.2 9.3-32.2 19-18.1.2-36.4 0 19.3-14 38.3-28.4 1-1 1.8-2.2c.6 0 4.2-1 2.7-2a3 3 0 0 0-2.7 2q-2 .4-3.8 1.6l-49 28.5c-5.3 1-13.6.4-19.1.6a4027 4027 0 0 0 52.1-37.4c.8-.6 3.4-2.2.9-2.7l5-2.8a68 68 0 0 1 9.8-.6c1 1.2 4.9.7 6.3.3q11.2 0 22.5-.7c12.2-2 14.2-9.3 14.5-20.1q10.7-5.7 21.2-12Z"/><path fill="#f3f5f7" stroke="#f3f5f7" stroke-width=".5" d="M273.2 346c-.8.1-3.4 2-2.7 3l2.5-1a169 169 0 0 1-7.8 35.7q-2.6 6.7-9.6 5.1-1 0-1.5-.7.3-1 1-1.6c.7-1.3 4-3.4 3.7-4.9-.6-1-3.8 2.2-4.7 2.5q-.6.3-1 .9-1.1.3-2.2 1c-2.7-.5-5-6.4-5.6-8.8q1-.9 1.7-2l5.6-5.6c-1.9-.7-4.8 2.7-6.7 3.4a2 2 0 0 0-1.3 1q-1.7-5.4-2.6-11.1.8-.3 1.5-1a22 22 0 0 0 3.3-3.5q-.5-.5-1.1-.2-2 1.5-4.4 2.1-1.4-5.5-1.5-11.2c1.3-.3 5-3.8 5.2-5 11.4 2.3 18.2.8 28.5-3.8 1.1.9-.2 4.4-.3 5.7Zm-29.4-2.2-4.1 3.5a8 8 0 0 1-.8-4.9c.9-1.1 4.1.7 4.9 1.4ZM304 413c-.5.9-2.5 3-1.5 3.9l5.7-3.1q.5-.3.7-.9H326a54 54 0 0 1-8 7.7 3 3 0 0 0-.6 1.8c.4.4 1.3-1.6 2-1.6q4.5-2.2 8.6-5.1 2-.7 3.8-1.9c4.8 1.9 3 9.2 3.2 13.2l-6.5 6.9q-.4.6.1 1 3-2 6.4-3c-.2 4.7.4 11.7-.6 16.1-.5 1.5-5.2.7-6.5 1l.3-2.2q.5.2.8-.3.7-1 .5-2c-.7.8-3.7 1.3-3.5 2.4q-2.4-.1-2 2h-19c3.3-4.9 9.1-10.3 11.9-15.2q.7 0 .7-.7-.5.3-.7.7c-5.4.4-14.6 7.8-20 10a6 6 0 0 1-.5-2.4c.3-8.2-1.6-20.4 1.5-28q3-.4 6-.3Z"/><path fill="#75cdc9" fill-opacity=".9" d="M316.9 433.7q.2-.4.7-.7 0 .7-.7.7"/><path fill="#69c6c1" d="M246 373q-.5 1.5 1 2.3l-1.7 2-.7-3.3a2 2 0 0 1 1.3-1"/><path fill="#616963" d="M294.9 322c.7.3 4.9.1 4.9.7-3.7.2-9.1 4.6-12.7 6.2v-1.8l7.2-4.3q.5-.3.5-.8"/><path fill="#4ec1bb" fill-opacity=".4" stroke="#4ec1bb" stroke-opacity=".4" stroke-width=".5" d="M310.2 74.8c-.4.8-2 2.9-3 1.8a3 3 0 0 1 3-1.8Zm47.6 291.9v1.1l-1-.2zM286.9 408c.2 1-1.4 1.7-2 .7q.8-1.1 2-.7Z"/><path fill="#4ec1b9" fill-opacity=".2" stroke="#4ec1b9" stroke-opacity=".2" stroke-width=".5" d="M247.9 54.2q.7-.2 1 .3-.7.6-1-.3Z"/><path fill="#6a5d56" fill-opacity=".5" stroke="#6a5d56" stroke-opacity=".5" stroke-width=".5" d="M335.2 297.8c-.1.8-1.3 2-2 1q.8-1 2-1Z"/><path fill="#6b5f56" fill-opacity=".3" stroke="#6b5f56" stroke-opacity=".3" stroke-width=".5" d="M325.2 286.8c-.4.8-2.2 3.1-3 1.9a3 3 0 0 1 3-1.9Z"/><path fill="#6b5d56" fill-opacity=".5" stroke="#6b5d56" stroke-opacity=".5" stroke-width=".5" d="M331 266c-.3 1-2 2.6-3 1.6a3 3 0 0 1 3-1.6Z"/><path fill="#6b5e56" fill-opacity=".3" stroke="#6b5e56" stroke-opacity=".3" stroke-width=".5" d="M336 262.9c-1 1.7-2.9 3.2-5 3 .4-1.3 3.6-3 5-3Z"/><path fill="#6b5d57" fill-opacity=".5" stroke="#6b5d57" stroke-opacity=".5" stroke-width=".5" d="M187 145.1q.4-2 2.5-2c1.4 1-2 1.6-2.6 2Z"/><path fill="#6c5d57" fill-opacity=".5" stroke="#6c5d57" stroke-opacity=".5" stroke-width=".5" d="M216 134.9c0 1.3-2 2.8-3 1.8.3-1.2 2-1.5 3-1.8Z"/><path fill="#937661" stroke="#937661" stroke-width=".5" d="M256 276.9q2 .6 3 2.3c-1.5 2.2-5 3.6-6 6q-3.7-.6-7.2-1.8c1-2 8-5.3 10.2-6.5Zm1.3 59.7q.9-.9 1.4-2.1-.9-.3-1.6.2-1.5.8-2.5 2c-20.7-4-18.4-28.5-17.8-44.3q0-.9.8-1.1c12 4 24.4 3.8 36-1.2q.9-.2 1.5.4.4 11.4.4 22.8c-.7 12-4.6 22.3-18.2 23.3Z"/><path fill="#a38671" stroke="#a38671" stroke-width=".5" d="M267 158.6c2.7 1.2 4.9 3.7 7.2 5.4-.7 3.3-9.8 6.4-10.1 8.6.6.9 1.2.2 2-.1 2-1.3 9.1-5.2 10-6.7q9.3 5.5 19.2 10.2c-1.6 2.8-8.7 6.2-11.5 8.3-1.2.7-1 2.2.5 1.5 1.3-.5 13.2-8 13.5-8.6 3.2 0 9 2.5 12.4 3.2q-1.5 1.6-3.2 3l-29 22-6.1 4q-1 .7-.4 1.7c1.4.3 3.8-2.3 5.2-3l42.2-24.2c5.2 3.7 8.5 13.4 7.1 19.5-1.5.2-19 13.2-22.1 15.1-1.6 1-.1 2.4 1.2 1.4 5.7-4 14.4-9 21-12.1-1.6 11.3-6.5 16.5-15.1 23.2a15 15 0 0 0-4 2.6q-7.8 6.3-16 11.9-.6.2-.7.8 1.2.7 2.3-.1 6.3-4.5 13-8 .9-.6 1.4-1.3h1.3c-9 20.6-29.4 51.4-55.3 48.3 1-2.4 4.5-3.8 6-6l12.1-9.6c1.5-1 .4-2.3-1.2-1.3a309 309 0 0 1-13.9 8.6c-2.2 1.2-9.1 4.5-10.2 6.5q-5.6-1.9-10.1-5.6a984 984 0 0 1 37.4-28.3c1.3-1 .4-2.4-1.2-1.4q-20.8 12.6-42 24.8c-1.7-.8-5-4.4-6.2-6.1.6-2.3 21.2-16.4 24.5-18.1 1.6-1.1.6-2.5-1.2-1.2-4.3 3-23.6 13.3-26 15.6-2-.8-4.3-4.5-5.4-6.3a2 2 0 0 1 .1-1.5l7.5-4.7c1.6-1 .4-2.4-1.3-1.3l-7.8 5c-1.7-1.4-3.3-4.5-4.4-6.5q-.1-1.5 1-2.4c11.2-8.6 22.8-17.9 34.5-25.7 1.6-1 .4-2.4-1.2-1.3a902 902 0 0 1-37.9 22c-4-9.4-7.5-13.3-14.4-20.5a10 10 0 0 1-2.3-5c2.7.4 5.3-3.3 7.8-4.4q1.5-1.4-.6-1.7l-5.5 3.6q-1.4.8-3 .9c-.7-3.5-2.5-7.5-1.8-11a7 7 0 0 0 2.7-1.3c.4-.8 4-2 2.5-3q-1.7.5-2.7 2-1.6.2-2.8.9c-.7-8.3.7-17 9.8-19.5q21-1.8 40.4-9.6.6.4.1 1.2-3 2.8-6.4 5.4c-.4.5-1.3 1-.4 1.6l27.8-15.5q4.9-2.7 9.6-5.9Zm45 41.4c1.4.3 11-5.8 11.1-6.7-1.2-1.5-11 5.4-11 6.7Zm-109.2 30c-.2 1.5 1.6 1 2.2.4 1.2-1.4 10.5-6.2 10-7.7-1.5-.7-8.6 5.2-10.8 5.8q-.8.6-1.4 1.5Z"/><path fill="#7f6b5f" d="M312 200c0-1.3 9.9-8.2 11.1-6.7-.1 1-9.7 7-11 6.7m-109.2 30q.5-.9 1.4-1.5c2.2-.6 9.3-6.5 10.9-5.7.4 1.4-8.9 6.2-10 7.6-.7.5-2.5 1-2.3-.4"/><path fill="#50c2bb" fill-opacity=".4" stroke="#50c2bb" stroke-opacity=".4" stroke-width=".5" d="M336.2 459.9c-.7 1-1.7 2.4-3 1.7q.8-2.1 3-1.7Z"/><path fill="#798585" d="M304.7 455.3c2-.4 4.6-.8 6.3.3-1.4.4-5.2 1-6.3-.3"/><path fill="#60544f" fill-opacity=".2" stroke="#60544f" stroke-opacity=".2" stroke-width=".5" d="m344.7 146.3.5.6q-7.4 4.6-14.9 9H329q.1-.9 1-1.3l13-8.2q.7-.6 1.6 0Z"/></svg>