<svg xmlns="http://www.w3.org/2000/svg" style="shape-rendering:geometricPrecision;text-rendering:geometricPrecision;image-rendering:optimizeQuality;fill-rule:evenodd;clip-rule:evenodd" viewBox="0 0 512 512"><path fill="#937661" stroke="#937661" stroke-width=".5" d="M171.9 165a97 97 0 0 0 8.3 8q-18.8 10.5-37.3 21.3c.1-2.6-1-9.1.8-11 3-1.5 5.3-2.6 7.9-5 1.6-.7 4-1 4.3-3q1-.6 1.1-1.6 3-2.2 6.4-3.6c2-2 2.1-1.7 5-2 2-1.3.3-3 3.5-3Z"/><path fill="#fefefe" d="M279 301a5 5 0 0 1-3.2-1.9q0-1.1.9-1.9c2.2-.9 11.3-7 12.8-7 1.7.9-2 3.7-3 3.9l-1 3a10 10 0 0 1-5.5 2.5 3 3 0 0 0-1 1.3"/><path fill="#e5eaec" fill-opacity=".3" d="M188.7 394q-.8 1.3-2 2.2-5.6 3-10.7 6.6-.7-.4-1-1.2 6.5-3.6 12.6-7.4zM397 426a7 7 0 0 1-5 3c1-1.6 3.1-3 5-3m8.7 52q.3-.7 1-1c1 .6-.8 1-1 1M149 479q-.3 1.1-1.3.7z"/><path fill="#a7adaf" fill-opacity=".1" d="m235.7 448.2.1 1q0 .7-.8 1a232 232 0 0 0-12.9 8.4 2 2 0 0 1-1.7.2q-.6-.7-.5-1.5 8-4.3 15.8-9"/><path fill="#d6d8dc" fill-opacity=".2" d="M120.8 484q-.2.9-.8 1.2l-14 8.3-1.9 1.6q-.2-1-1.1-.7v-1l16-9.1a3 3 0 0 1 1.7-.2"/><path fill="#e9ebed" fill-opacity=".2" d="M164 393c-.8 1.8-6.3 5-8.1 5.6l-1-.5a26 26 0 0 1 9-5m124 42c-.6 1.2-6.8 5.8-8.1 5.6l-1-1c2.3-1 7-4.6 9.2-4.6"/><path fill="#8f6e5d" fill-opacity=".3" stroke="#8f6e5d" stroke-opacity=".3" stroke-width=".5" d="M183 239a2 2 0 0 1-1 1.3l-13.7 8.6q-.6-.9-1.4-1.3l14-8.2q1-.5 2-.3Z"/><path fill="#aa8a72" d="M292.3 106.3q.9.7 1.6 1.6c-.3 1.4-10.2 5.8-11.9 7.8-.8.7-2.4.3-1.6-.7 1.9-1.4 11.6-6.9 11.9-8.7"/><path fill="#e5e8ea" d="M257.4 298.6c-1.8 2.2-5.3 2.7-7.4 5a5 5 0 0 1-2.2-.8q3.1-3 6.9-5.3c1.2-.3 1.7.7 2.7 1.1"/><path fill="#e4e8eb" fill-opacity=".3" d="m161.7 316 .3 1.4c-1 .9-3.3 2.8-4.6 2.7l-.3-.4q2.2-2 4.6-3.7m7.4 74a7 7 0 0 1-5.2 3q2-2.5 5.2-3m121.8 43q-.6 2-2.8 2a4 4 0 0 1 2.8-2m-84.7 13.2a2 2 0 0 1-1.5.7q.7-.6 1.5-.7m54.8 4.2q-.4.8-1.3.6.6-.6 1.3-.6M181.3 466l-1 1q0-1 1-1M135 487.3q-.3.7-1.2.7.4-.6 1.2-.7m55 3.9q-.4.7-1.3.7z"/><path fill="#e5e8eb" fill-opacity=".3" d="M136 361c-.8 1.6-3.5 3-5 4l-.3-1a9 9 0 0 1 5.3-3m49 70q-.9 2-3 2a4 4 0 0 1 3-2m212.1 9c-.6 1-4.2 3.9-5 2.6 1.2-1.2 3.1-2.8 5-2.7m-198.8 15-1.1 1q0-1 1.1-1m-30.5 13q0 1.1-1 1zm-7.2 4q.2 1-1 1zm55.1 4.1q0 1-1 .9zm-74 6.9q0 1-1 1z"/><path fill="#e4e8eb" fill-opacity=".3" d="M382 334a8 8 0 0 1-5 3 6 6 0 0 1 5-3m-54 67c.2-1 4.3-4 5-2.7-.3 1.1-3.9 2.8-5 2.7m-39 6q-.9 2-3 2 .8-2 3-2m-95 46q-.3 1-1.3.8zm7.2.2-1.2.8q.2-1 1.2-.8m-17 11-1.1.8q0-1 1.2-.8M223 472q-.3 1-1.3.7zm-26 15q-.3 1-1.2.8z"/><path fill="#e3e8ea" fill-opacity=".4" d="m335.3 334-.4 1-1.1-.2q.5-.7 1.5-.9M136 361a3 3 0 0 1 2.6-2c1.7 1.2-1.8 2-2.6 2m273.7 34q.4-.9 1.3-.6-.6.6-1.3.7m-89.6 30c-.4.9-2 2.6-3 1.6.2-1.2 2-1.4 3-1.7m-47.4 18q0 1.2-1 .9zm-.4 3q-.7.6-1.5.7.6-.7 1.5-.6m-3 2q-.6.6-1.5.8.6-.8 1.5-.8m-15.4 6.2q-.3.9-1.3.7zm-58.6 2.9q-.6.4-1.5.7.6-.8 1.5-.8m-22.3 8q-.3 1-1.3.8zm55 4.1q-.3 1-1.3.8zm-52.7 1-1.4.5q.5-.7 1.4-.6m-54.4 25q-.2.8-1.1.7zm113 .8c.2-.7 1.4-1.6 2-.7a2 2 0 0 1-2 .7m14.2 3q1-1 0 0"/><path fill="#b8977d" fill-opacity=".9" d="M192 165.8h-.8q-.1-.5.3-.8c3.2-2.2 7.3-4.3 10.5-6.6q1-.4 1.7.2-4.9 3.3-9.8 6.9z"/><path fill="#e7e9ec" fill-opacity=".2" d="m393.8 326 .3 1.3q-5 3.3-10 6.2-1 .6-2 .5c.8-2 9.3-6.6 11.7-8"/><path fill="#937661" fill-opacity=".5" stroke="#937661" stroke-opacity=".5" stroke-width=".5" d="M327 65q-.5 1.1-1.7 1.6-2.5.5-.5-1.2 1.2-.4 2.3-.4Zm-89 7c-.4 1-4 4-4.9 2.6 1.3-1.2 3-2.7 5-2.6Zm-79.3 89q.3-.9 1.2-.6-.4.6-1.2.7Zm-6.7 4c.1-1 4.3-4 5-2.7-1.3 1.2-3.2 2.7-5 2.7Z"/><path fill="#8b6e5b" fill-opacity=".2" stroke="#8b6e5b" stroke-opacity=".2" stroke-width=".5" d="M170 205c-1 2-7.6 5.3-9.7 6.8q-.4-.8-1.3-1c2.3-1.2 8.8-6 11-5.7Z"/><path fill="#7d7e80" fill-opacity=".1" d="M194.6 314q.5.8.2 1.7v1q-3.6 1.6-6.8 3.9a4 4 0 0 1-2.4.2q1-1.2 2.4-2.2z"/><path fill="#e3e9eb" fill-opacity=".3" d="M306 366a7 7 0 0 1-5 3 7 7 0 0 1 5-3m-149 16q-.5 1.3-2 1 .6-1.2 2-1m87 62a8 8 0 0 1-5 3c1-1.5 3.1-3.4 5-3m24 2q-.2 1.1-1.3.7z"/><path fill="#d6d9df" fill-opacity=".2" d="M247 423.1c-.6 1.4-8 5.4-9.6 6.7q-.6-1-1.5-1.1 4.7-2.5 9-5.3 1-.4 2.1-.3"/><path fill="#d8dbdd" fill-opacity=".2" d="M298.7 400.1q.5.9 1.4 1.2c-2.4 1-9 5.8-11 5.7q0-.9.9-1.3z"/><path fill="#d5d7df" fill-opacity=".2" d="M198 406.3q-4.7 3.5-9.7 6.5-.4-1-1.4-1l9.1-5.3q1-.6 2-.2"/><path fill="#e4e8eb" stroke="#e4e8eb" stroke-width=".5" d="m189.2 301.8 5.4 12.1-6.6 4.6q-1.4 1-2.4 2.3c-3 .6-6.1 3.4-8.4 5.3-.8-5-.1-12.9-.4-18.1 2.4.6 9.9-5 12.4-6.2ZM164 361c.2 2.3.9 10.7 0 12.4q-6.6 1.6-13 4.2a53 53 0 0 0-24.7 22.4l-1.3-.1-1.2.6-23.8 13.8v-11.5a3 3 0 0 0 2-.5l60-40.4zm31.2 29.5q5.4 5.5 8.4 12.6a15 15 0 0 1-5.5 3.2q-1.2-.4-2 .2l-9.2 5.2q-26.2 15.4-52.8 30.6 0-6.7-.3-13.3 1.1 0 2.2-.5 18-11.4 35.7-23.2 2.4-.9 4.3-2.5 5.2-3.6 10.6-6.6 1.3-.9 2.1-2.2c2.4-2 3.5-2.6 6.5-3.5Zm-70 78.1c2.5 3.3 10.2 3 13.9 3.7-4.4 3-15.2 8.4-18.3 11.8a3 3 0 0 0-1.9.2l-15.8 9.1c-2.5-1.5-3-6.7-3.2-9.3q1.2.6 2.4-.3c7.5-5.3 16-9.2 22.9-15.2ZM301.9 479q1.8 5.6 4.4 10.8c-3-.2-14.4 7.5-17.5 9.5q-8.1.4-16.2.4-.9 0-1.5-.5l19.8-13.2z"/><path fill="#e4e8eb" fill-opacity=".4" d="M301 369c-.4 1.1-4.2 4-5 2.7 1.1-1.3 3.2-2.7 5-2.6m24 34c-.3.5-1.3 1.6-1.9.7a2 2 0 0 1 2-.7m-34 30q.3-1.2 1.6-1.1c1.3.8-1 1.3-1.7 1m-24.7 17q-.7.6-1.5.8.5-.8 1.5-.7m-9 6.1q-.7.6-1.6.7a2 2 0 0 1 1.6-.7m-10.3 2.1q-.4.9-1.3.8zm-26.1 15q-.1 1-1.2.8zM100.2 479l1 .3q-.6.6-1.4.8zm58 2q-.5.6-1.4.8.5-.8 1.5-.8M348 320.4l.7-.3q0 .8-1 1zm27 17.6q-.8 2-3 2 .9-1.8 3-2m-273.8 24 1 .3q-.6.5-1.4.7zM286 409q-.5 1.3-2 1 .5-1.2 2-1m-106 52.3q-.3.7-1.2.7.4-.6 1.2-.7m-1.7 6.8-1.4.7q.5-.8 1.4-.7m-34 22-1 .8q0-1 1-.8m89.7 6c-.4.9-2 2.4-3 1.4q1-1.5 3-1.5"/><path fill="#7c6556" fill-opacity=".2" stroke="#7c6556" stroke-opacity=".2" stroke-width=".5" d="M289.6 55.3q.2 1 1.1 1.3c-1.8 1-6.7 4.6-8.7 4.3 1-1.9 5.7-4.3 7.6-5.6Z"/><path fill="#855d4c" fill-opacity=".1" stroke="#855d4c" stroke-opacity=".1" stroke-width=".5" d="M335.7 205.3q0 1 1 1.3c-1.7 1-6.7 4.6-8.7 4.3.3-1.5 6.2-4.7 7.7-5.6Z"/><path fill="#c5c7c9" fill-opacity=".1" d="m130.7 364 .3 1-7.6 4.8q0-1.2-1.2-1.3c2-1 6.6-4.5 8.5-4.4"/><path fill="#e4e9eb" fill-opacity=".4" d="M392 429q-.9 2-3 2 .9-1.8 3-2m-145 13a4 4 0 0 1-3 2q.9-2 3-2m-47.9 8.3q-.6.6-1.5.6zm64.2 1.7q-.7.6-1.5.8.4-1 1.5-.8m-3 2q-.6.6-1.5.7.5-.7 1.5-.7m-9 6-1.5.7q.6-.7 1.5-.7m-16.2 5.2q-.4.8-1.3.8z"/><path fill="#937661" fill-opacity=".4" stroke="#937661" stroke-opacity=".4" stroke-width=".5" d="M215.1 49c-.5.7-1.9 2.5-3 1.6q.9-2 3-1.7Zm62 15q-1.2 1.7-3 2 .6-2 3-2Zm92 169.8-.1 1.1-1.2-.2zm-30 17c0 1.3-2 2.9-3 2 .2-1.3 2-1.6 3-2Z"/><path fill="#e4e8eb" fill-opacity=".4" d="M372 340q-.5 1.2-2 1a2 2 0 0 1 2-1m-203 50q.5-1 1.5-1c1 .7-1 1.2-1.4 1m159 11a4 4 0 0 1-3 2q.9-2 3-2m-76 19q-.6 1.2-2 1 .5-1.3 2-1m-90.6 59-1.6.8q.6-.8 1.6-.7M128 491.4q-.4.8-1.3.7zm54.8 4q-.3.8-1.3.7z"/><path fill="#e3e7ec" fill-opacity=".3" d="M397 454c.3-1.1 6.5-5.3 7.7-5.1 1.5 1.2-6.6 5.2-7.7 5m-232.7 23.2-1.3.8q.3-1 1.3-.8"/><path fill="#826a57" fill-opacity=".2" stroke="#826a57" stroke-opacity=".2" stroke-width=".5" d="M341.9 54.9q0 1 1.2 1.4c-2 .5-4 3-6.1 2.7.8-2 3.4-2.7 4.9-4.1Z"/><path fill="#b1b5b6" fill-opacity=".1" d="m154.9 398.1 1 .5q-2.2 1.8-4.6 3-.2-1-1.4-1 2.3-1.5 5-2.5"/><path fill="#e4e9e9" fill-opacity=".2" d="M189 456q-.2 1.1-1.4.6zm1.3 4.3-1.2.8q.1-1 1.2-.8m53.6-.4q0 1.2-1.2.7zm-70.6 11.4-1.2.8q0-1.1 1.2-.8m58 2-1.2.8q0-1 1.2-.8m-3 2-1.2.8q.1-1 1.2-.8m-12 8-1.2.8q0-1 1.2-.8m-3 2-1.2.8q0-1 1.2-.8"/><path fill="#c8cbcd" fill-opacity=".2" d="M378.3 491q.5-1.4-1-1.7c.7-.3 3.7-3 4.6-2q-1.5 2.1-3.6 3.7"/><path fill="#937861" fill-opacity=".2" stroke="#937861" stroke-opacity=".2" stroke-width=".5" d="M214.2 12.2q-.4.8-1.3 1 .2-1.1 1.3-1ZM337 59c-.3 1.7-3.6 2.8-5.1 3 1-1.6 3.3-3.2 5.1-3Z"/><path fill="#907765" fill-opacity=".2" stroke="#907765" stroke-opacity=".2" stroke-width=".5" d="M238 52v1.3a7 7 0 0 1-5 2.7c.3-1.5 3.7-3 5-4Z"/><path fill="#e3eaea" fill-opacity=".1" d="m333.4 300.4-1.3.7q.1-1.1 1.3-.7m76.6 64.4q-.2 1.1-1.4.9zm-59 21.1q-.2 1.2-1.2.6zm-226 14q-.3 1-1.2.6zm-23.1 44q0 1-1 .9.3-.6 1-.9m18.4 12.4q-.4.5-1.2.8 0-1 1.2-.8M180 497q-.1 1.1-1.3.7z"/><path fill="#a36652" fill-opacity=".1" stroke="#a36652" stroke-opacity=".1" stroke-width=".5" d="M342 106.7h1a6 6 0 0 1-4.6 3.2c-.7-1.4 2.8-2.4 3.6-3.2Z"/><path fill="#937661" stroke="#937661" stroke-width=".5" d="M364 95.6q1.7 4.5 2.3 9.1l-21.3 14q-1.2.8-1.3 2.4a23 23 0 0 0-6.2-8.1q-.7-.7-.6-1.5l1.5-1.6a6 6 0 0 0 4.7-3.2q1 .3 2-.1zm-41.7 20.8q3.7 1.5 6.7 4.4-1.4.3-2.7 1c-16.3 9.5-33.6 18.5-49.3 28.9q-.9.4-1.8-.2zm-158 28.2q3 10.4 7.6 20.4c-3.2 0-1.6 1.8-3.4 3.1-3 .3-3 0-5 2q-3.5 1.5-6.5 3.6a2 2 0 0 0-1.1 1.5c-.4 2-2.7 2.4-4.3 3.1-2.6 2.5-4.8 3.5-7.9 5-1.7-3.9-1.1-19.3-1.5-24.4 3.2-.8 18.3-11.7 22-14.3Zm-5.6 16.5q.8 0 1.2-.7-.9-.3-1.2.7Zm-6.7 4c-1.2 0-5.5 1.5-4.6 3a9 9 0 0 0 4.6-3c1.8 0 3.7-1.6 5-2.8-.7-1.3-4.9 1.7-5 2.7Z"/><path fill="#937761" fill-opacity=".3" stroke="#937761" stroke-opacity=".3" stroke-width=".5" d="M152 165a9 9 0 0 1-4.6 3.2c-.9-1.6 3.3-3.1 4.6-3.2Z"/><path fill="#e5e9e9" fill-opacity=".2" d="M182 460q-.3 1.1-1.3.7zm-11.7 13.3-1.2.8q.2-1 1.2-.8m-14.4 1.6q0 1.1-1.2.8zm55 4q-.2 1-1.2.8zm-81 11q0 1-1.2.8zm68.4 5.4-1.2.8q0-1 1.2-.8m-3 2-1.3.8q.2-1 1.3-.8"/><path fill="#e3e9ec" fill-opacity=".2" d="M239 447q-.6 1.2-1.8 2l-.3-1.2a2 2 0 0 1 2-.8m166 16a3 3 0 0 1 2.6-2c1.4 1.1-1.8 2-2.7 2"/><path fill="#bdc7ce" d="m364.7 454 .2 1c-.7.6-3 2.5-3.8 1.6q1.2-2.1 3.6-2.5"/><path fill="#e3e9e9" fill-opacity=".3" d="M250 421a4 4 0 0 1-3 2.1q.9-2 3-2.1m-63 36q-.3 1.1-1.3.7zm55 4q-.2 1.1-1.3.7z"/><path fill="#e3e9eb" fill-opacity=".2" d="M177 436.1q-.6 1.2-1.9 1.9l-.2-1.2q.7-1.1 2.1-.7m60 27.8q-.3 1.1-1.3.8zm-29.7 25.4-1.2.8q.1-1 1.2-.8"/><path fill="#c8d1d7" d="M326.3 487.8q-.7 1.5-2.2 2.6l-1.3.2v-1.4q1.5-1 3.5-1.4"/><path fill="#e5e7ec" fill-opacity=".4" d="M278.3 442.1q-.7.5-1.5.7.5-1 1.5-.7m-3 2-1.4.7q.3-1 1.4-.7m-128.4 36q-.3.9-1.2.8zm55 4q-.3 1-1.3.8zm-60.7 7.9q-.6.6-1.5.7.6-.7 1.5-.7"/><path fill="#e5e8ea" fill-opacity=".3" d="M134.8 325.2q.8-1.8 2.7-2.2c1.2 1.2-2 2-2.7 2.2m12.4 163-1.2.8q.3-1 1.2-.8"/><path fill="#787a7b" fill-opacity=".6" d="M158.7 507h3.6q-1.8 2-3.6 0m115.6.7a6 6 0 0 1-2.6 0c.4-1 2.3-1 2.6 0"/><path fill="#c2c5c8" fill-opacity=".9" d="M151 384a4 4 0 0 1-3 2q.9-2 3-2m-3 2-.8 1.2q0-1 .9-1.2"/><path fill="#e1e9ec" fill-opacity=".2" d="M155 383c-.8 1.7-4.5 3.3-6 4.6q-1.2.5-1.8-.4l.9-1.2a4 4 0 0 0 3-2 8 8 0 0 1 4-1"/><path fill="#e2e7eb" fill-opacity=".2" d="M201 449q-.3 1-1.3.7zm3.3 2.3-1.2.8q.1-1 1.2-.8m51.6 1.7q-.2 1-1.2.7zm-68.6 9.3-1.2.8q0-1 1.2-.8"/><path fill="#947c6b" d="m183 287-3 1.2c.2-1.6 2.5-3.2 3-1.2"/><path fill="#e4e9ed" fill-opacity=".2" d="m207.3 449-.5 1h-.7q.3-.9 1.2-1m-70.4 37q0 1.1-1.2.7zm67.4 5.3-1.2.8q0-1 1.2-.8m-3 2-1.2.8q0-1 1.2-.8"/><path fill="#95a5b1" d="m368.8 464.7.1 1.5c-1-.3-2.2 1.3-2.8.4a3 3 0 0 1 2.6-1.9"/><path fill="#9bacb8" d="M318.3 479.8c-.7-1.2 1.5-1.7 2.2-1.8.5 1.2-1.2 1.9-2.2 1.8"/><path fill="#e6e6eb" fill-opacity=".2" d="m222.3 479.3-1.2.8q0-1 1.2-.8m-3 2-1.2.8q0-1 1.2-.8m-27.4 8.6q-.1 1.1-1.3.8zm-55.6 5.4-1.2.8q0-1 1.2-.8"/><path fill="#95a6b4" d="M326.3 487.8c-.4-1.2 1.3-1.8 2.2-1.8.9.8-1.4 2-2.2 1.8"/><path fill="#5d5d5e" fill-opacity=".7" d="M346.3 507.6q-1.6.5-3.3.3c.5-1.4 2.3-.8 3.3-.3"/><path fill="#e3e7ea" fill-opacity=".3" d="M177 304h1q-.5.8-1.2 1zm72 153q-.3 1.1-1.3.7zm-45 26q-.3 1-1.2.8z"/><path fill="#6f7072" fill-opacity=".5" d="M247.9 507h3.4c-.5 1.4-2.8 1.5-3.4 0"/><path fill="#747777" fill-opacity=".6" d="M229.6 507h3.6q-1.7 2-3.6 0"/><path fill="#7a7b7d" fill-opacity=".6" d="m210.7 507 3.6.1q-1.8 1.8-3.6 0"/><path fill="#9ea7ad" fill-opacity=".7" d="M345.7 496.7q0 1.2-1 .9zm-1 .9.5 1.3-2.4.1q.6-1.1 1.8-1.4"/><path fill="#e6e6ea" fill-opacity=".2" d="m150.3 486.3-1.2.8q0-1 1.2-.8m34.6 7.6q-.2 1.1-1.2.8zm-51.6 3.4-1.3.8q.3-1 1.3-.8"/><path fill="#919394" fill-opacity=".5" stroke="#919394" stroke-opacity=".5" stroke-width=".5" d="M396.7 507.2q1.8-.3 3.6-.2c-.4 1.4-3 1.5-3.6.2Z"/><path fill="#e6e9ed" fill-opacity=".3" d="M275 442q-.1 1.1-1.3.7zm-152 52q-.3 1-1.3.8zm55 4q0 1-1.1.7z"/><path fill="#e2eaea" fill-opacity=".3" d="M230 468q-.3 1-1.3.8zm-62.8 7.2-1.2.8q.3-1 1.2-.8"/><path fill="#e5e7ec" fill-opacity=".5" d="M254.3 458q-.6.6-1.5.7.6-.7 1.5-.7M195 488.3q-.4.7-1.3.6.6-.5 1.3-.6"/><path fill="#859096" d="m321.8 489.3 1-.1v1.4q-1-.3-1-1.3"/><path fill="#c6cfd6" d="m316 480 2.3-.2q-.5 1.4-2 1.5z"/><path fill="#e5e7ea" fill-opacity=".4" d="M154 476.2q-.4.9-1.3.8.6-.6 1.3-.8m55 4q-.4.9-1.2.8z"/><path fill="#e4e7ec" fill-opacity=".3" d="m335.2 315.9-.4 1-.8.1q.3-.8 1.2-1.1M175 464q-.2 1-1.3.8z"/><path fill="#9b7c67" d="M200.8 145.4q.6-.3 1.1 0l-.8.2z"/><path fill="#d9e0e0" fill-opacity=".3" stroke="#d9e0e0" stroke-opacity=".3" stroke-width=".5" d="m335 298.7-.1 1.3h-.9q.1-.8 1-1.3Z"/><path fill="#856a59" fill-opacity=".6" d="M192.1 272.2q-.5.8-1.4.8.5-.8 1.4-.8"/><path fill="#746054" fill-opacity=".3" stroke="#746054" stroke-opacity=".3" stroke-width=".5" d="M196.4 269q-.6.6-1.4 1 .3-1 1.3-1Z"/><path fill="#777979" fill-opacity=".5" d="M319.8 304q0 .8-1 .8z"/><path fill="#947661" fill-opacity=".5" d="M189.3 273.9q-.5 1-1.6 1.2.5-1 1.6-1.2"/><path fill="#937761" fill-opacity=".6" d="M186.4 276q-.6 1-1.7 1.2.5-1 1.7-1.1"/><path fill="#e4e8eb" fill-opacity=".6" stroke="#e4e8eb" stroke-opacity=".6" stroke-width=".5" d="m193 472.3 1.2-.4q-.4 1-1.5 1.1z"/><path fill="#dadfe3" fill-opacity=".2" stroke="#dadfe3" stroke-opacity=".2" stroke-width=".5" d="M107.3 340h.5q0 1-1 .8z"/><path fill="#e3e8eb" fill-opacity=".6" stroke="#e3e8eb" stroke-opacity=".6" stroke-width=".5" d="m160 290.3 1.3-.3-1.1 1.2z"/><path fill="#9a816e" fill-opacity=".8" d="m359.3 296.3-1.4 1q.4-1 1.4-1"/><path fill="#947660" fill-opacity=".3" stroke="#947660" stroke-opacity=".3" stroke-width=".5" d="M147.2 98h.8q-.3.8-1.1.9 0-.5.3-.8Z"/><path fill="#c3c8cd" fill-opacity=".2" stroke="#c3c8cd" stroke-opacity=".2" stroke-width=".5" d="M100.3 429h.6q0 .6-.9 1z"/><path fill="#d3d7da" fill-opacity=".7" stroke="#d3d7da" stroke-opacity=".7" stroke-width=".5" d="M194.8 315.7q1 .3 1.2 1.3l-1.2-.3z"/><path fill="#927561" fill-opacity=".2" d="M329.7 299q0 1-1 1z"/><path fill="#e4e8eb" fill-opacity=".8" d="M412.1 431.9v1q-.7 0-1.3-.3z"/><path fill="#9b9d9f" fill-opacity=".9" d="M375 490.2q-.3.7-1 1 0-1 1-1"/><path fill="#e3e8e8" fill-opacity=".2" d="M118 496.9q-.3 1-1.3.8z"/><path fill="#e8e8e8" fill-opacity=".1" d="M350.8 318.8q0 1.1-1.2.9z"/><path fill="#909394" fill-opacity=".9" d="M289 358.2q-.4.6-1.3.7.6-.6 1.3-.7"/><path fill="#bcbfc1" fill-opacity=".4" stroke="#bcbfc1" stroke-opacity=".4" stroke-width=".5" d="M306.8 328.9q-.1 1-1 1a2 2 0 0 1 1-1Z"/><path fill="#92765e" fill-opacity=".2" stroke="#92765e" stroke-opacity=".2" stroke-width=".5" d="m193.3 271-1.2 1.2q0-1.2 1.2-1.2Z"/><path fill="#262626" stroke="#262626" stroke-width=".5" d="m400.3 507-3.6.2c-5.4.5-20.3-.4-24.5.6-.3-1-2-1.1-2.4-.1-5.4-.5-18.8-.8-23.5 0-1-.6-2.8-1.2-3.3.2-4 0-18-1.5-20.7-.2-.5-1.2-2.5-.6-3.4-.6-3.8.6-18.3-.5-20.7.7 0-1-2-1-2.4 0a88 88 0 0 0-21.5-.1c-.3-1-2.2-1-2.6 0-3.4-1-16 .1-20.4-.7h-3.4q-7.4.4-14.6 0h-3.7a218 218 0 0 1-18.9 0q-7.8.1-15.4.6-1.2-1-2.5-.5a618 618 0 0 1-34.1 0c-4.7.7-22.3-.5-25.5.6-.3-1.1-2.4-.6-3.3-.7-21.5.8-43 3.7-42-25.5q0-50-.3-100c-.4-35 13.4-64 42-84.4q.5-.6.6-1.6v-168A124 124 0 0 1 213 13.2q.9-.3 1.3-1a9 9 0 0 1 3.9-.5c79.5-25.5 160.7 28.2 163.5 112.8l.2 170q.2.9.8 1.4c24 16.6 38 40.7 41.3 69.6 1.5 31.4.6 62.6.4 94 1.9 21.3 3.5 45.4-24 47.5Zm-180-489.1c-26 6.6-54.9 32.6-65.3 57.3q-2 3-3 6.4-.2 1.3 1 1.4c-3.5 1.5-5 11.5-5.8 15l-.3.9q-1.4 3-1.2 6-1.9 6.5-2 13-.9 3.9-.7 7.8-.6 5.4-.8 10.8 0 .8.7 1.4-1 2 1.2 2.1c-3.5 2.2-1.4 8.8-2 12.2l.1 6.7c.4 5.1-.2 20.5 1.5 24.3-1.8 2-.7 8.5-.8 11.1v4.5l-.2 21.2q-.1 1.7 1.4 2c-2.3 1.8-1 8.5-1.2 11.2q-.3 3.3 0 6.5v21.6c0 .9-.3 3 1 2.8-1.9 1-.7 19.4-1.1 22.4q-.2 1.4.7 2.2 14.1-5.7 28.8-9.7c4 .1 8.7-.2 12.4-1.9q1 0 1.7-1 .4-.8 1.3-1 1.1-.1 1.6-1.2.8-.3 1.4-.9.8 0 1.4-.8l1.1-1.2q.9-.9 1.8-1 .9-.4 1.3-1c3-2 18.4-12.3 18.8-14.7 1-8.6.6-18.7.2-27.4a387 387 0 0 1-19.1-23.9c-5-9.6-10.4-19.1-14.2-29.4l-1.8-.6a97 97 0 0 1-8.3-8q-4.6-9.9-7.6-20.4 1-2.2-.2-4.5c1-4.6.9-9.5 2.2-14q.3-1 1-1.7a27 27 0 0 1 18.5-17c31.6-5.3 52.4-8.4 74.7-33.4 7.4-5.9 11 2.6 15.5 7l.6 1.2q14.6 13.6 33.6 19.9l1.5.7c9 2.5 17 4.2 25.2 8.7q0 .8.6 1.5c2.4 2.3 5 4.8 6.1 8l2.1 2.8a45 45 0 0 1 1.2 21.5l-.8 2.4a52 52 0 0 1-17.4 27.4q-6.6 13.1-13.9 25.9-.7 1.4-1.8 2.6c-4.4 8.1-10.6 14.4-16.3 21.4-.8 9-.4 19-.3 28.1 1 1.7 27.8 21.3 31.8 24.1 1.8 1 5.1.7 7.2.5q2.4-.8 4.1-2.5.6-.1 1.3.2-1.4 1.3-2.3 3 8.3 1.8 16.5 4.1 6.8 2.3 13.4 5 1-.8.8-2v-23.2l-.2-27.4.2-1.1v-45.9c-.1-1 .5-4.2-1.3-4 2.3-1.7 1-8.6 1.2-11.2l.1-6.7v-33.7q0-10.8-1.4-21.6l-1.5-6a45 45 0 0 0-2.8-11q-2.7-9-7.2-17-.5-2-1.5-3.8l-4.8-8.3-1.6-1.5c-.9-2-3.3-6.1-5.3-6.8q-.3-1-1.2-1.4c-.4-2.5-4-5.8-6-7.1-.2-1.4-2.6-3-3.6-4a38 38 0 0 0-8.5-7q-.9-1.6-2.7-1.9c-.1-1.6-6.8-4.8-8-6.3-2-.5-6-4-7.8-3.3-1-2.2-8.3-4.2-10.4-5.3-2.4-1-5.2-2.6-8-2q0-1-1.1-1.3-5.4-1.6-10.9-2.6c-3.7-.5-7.7-1.8-11.5-1.1-1.4-1.6-14-1-16.6-.9-6.3.6-21.4 2.7-26.6 5.8Zm-17.4 97q-6 .3-11.8.8c-12.5 2.3-14.7 12.3-13.9 23.6.4 1.6.3 5.8 1.8 6.6-.3 3.3 1.9 7.6 3.3 10.4q.5 1.5 1.5 2.5 2.6 4.6 7.4 7h.7a85 85 0 0 1 5.8 12l3.5 7.4 3.6 6.7a205 205 0 0 0 13.8 20q6 6.5 12.4 12.5 1.8 1.5 4 2.3 5.2 4 11.8 5.4.3.6 1 .6l3 .7c34.3 5.8 55.5-37.5 67.6-62.6 8-8.4 13.5-12.6 15.8-25 1 0 .9-5.9.5-6.8q.6-10.2-5.7-18.2-3-2.8-6.7-4.4l-11.4-2.8q-3.4-.7-6.6-2.2c-3.5-.5-7.3-3.3-10.4-3.5q-.7-1-1.6-1.6l-9.4-4.5q-.9-1.5-2.7-1.9A33 33 0 0 0 272 94c-.4-1.4-4.6-4.6-5.8-5.9-1-.6-2-2.5-3.3-1.5-17 16.1-37.4 23.8-60 28.4Zm25 124.1.3 13.5c0 3.4 24.6 26 28.6 30q1 0 1.8-.7c8-8.3 17.6-17 25-25.6q.4-9.4.4-18.7a3 3 0 0 0-.6-2.3 93 93 0 0 1-12.7 5.8 52 52 0 0 1-42.1-4.6q-.8 1.2-.6 2.6Zm-27.7 47.3q1.6 1.9 3.5 3.6 4.2 4.5 8.1 9.3l3 3.1 7.6 7.8q.7.7 1.7.4l23.3-19.4q.4-1-.3-1.7L231.3 274q-4.6-5.3-9.7-10.2-.7-.9-1.9-.5-11.7 8.6-23.2 17.5c-1 1.4 3 4.2 3.7 5.4Zm75.6 12.8q1.3 1.5 3.3 1.8c.6 2 8.5 7.6 10.3 9.4q.7.6 1.6 0 12-13.2 24.4-26.3c1.4-1.9-.9-2.6-2.3-3q-.5-1.5-2-2-10.3-7.5-20.2-15.4a2 2 0 0 0-2-.3q-12.4 12-24.6 24.5-.5 1.2.4 2.1zm-95.7-11c-3.6 4.9-3 10.2-3 15.9q-.3.5-.3 1v3c.3 5.2-.4 13.2.4 18q-.4 9.8-.3 19.5-.1 13.5.2 26.9l.5.5c36.6 4.5 44.3 33 42.1 65.2v2l.2 17.2q-.1.8.5 1.5c-4 11.2-9.5 12-20.6 13q-2.7.3-5.6.1l-1.2.4q-4.5-.9-.9-3.6 1.8-.9 3.6-1.4c1.7-.5 9.4-.4 10.3-1.7 1.7-3.7.6-11.4.8-15.6l.5-1-.2-2.9c-.7-13.6 2-30.3-3.5-43q-3-7.1-8.4-12.6c-11.2-11.4-28.7-16.5-43.1-7.8q-1 .4-1 1.4-2.2-.2-3 2-1 0-1 1-.6 0-1.2.4l-1.2 2.6c-5.2 3.7-8.5 13.2-9.6 19.2l-.1 2.5c-1.4 4-1 9.3-1 13.5l-.2 3.7a246 246 0 0 1 .2 17.8v13.5l.9 1.8c3 5.8 9.3 4.2 14.7 4.7q2 .4.8 2.2c-3.5 2.5-7.2 2.7-11.3 3.3-3.7-.7-11.4-.4-14-3.7q-1-.6-2-1.6c-1.7-3.9-1-8-1.3-12v-4.8l.1-12.4v-4.7a213 213 0 0 1 0-15.8 54 54 0 0 1 5-18.8q9-14.1 24.2-20.9 6.3-2.6 12.9-4.2c.9-1.7.2-10 0-12.4q.6-32 .8-64c.6-3.2 2.4-5.7 4-8.5a2 2 0 0 0-2.2-.5c-1.4.4-4.3 1-5.3 2l-1.3.3a88 88 0 0 0-52.7 49.8l-.5.7-2.7 7c-.8 3.9-3.1 10.4-3 14.2l-.2 1a86 86 0 0 0-.8 18.3v3.5a340 340 0 0 0-.1 18l.3 26.3-.2 1v3.7l-.2 35c0 3-.6 7.4.3 10.2l-.4 1.1q.2 2 0 4c.4 2.6.8 7.8 3.3 9.3l-.1 1 1.1.7c3 3.7 7.5 4 12 4.2 3.7.5 10.5.8 14-.2q.5.8 1.4.6 8.3 0 16.4-.3l10 .4H176c4.5-.4 12 .4 16.2-.6v.3q25 .3 50.2 0 2.9 0 5.7-.5.4.9 1.5.7 7.7 0 15.3-.3 3 .7 6.2-.2.4.6 1.5.5 8.1.1 16.2-.4 3.3.8 6.4-.1v.2q8 .4 16 .2 1.5 0 2.6-1a87 87 0 0 1-6.5-8l-1-.8A98 98 0 0 1 302 479a39 39 0 0 1 23.9-44.6l9-3.1a3016 3016 0 0 0 .2-81.7l.2-1.5q0-6.6-.3-13l.4-1.1q-.3-2-.1-4 .1-6.5-.4-13.1l.4-1q-.1-2 .1-4c-.6-3.7.5-8.4-.4-12v-1.2q0-1.5-1.5-1.8-.6 0-1-.3c-.3-1 2.4-.7.5-3.2-1-1.8-4-8.1-6.2-4.2l-7 14.8-.8.8q-.6 2.1-2 4l-10.1 20a2 2 0 0 0-1 1.2l-1.8 3-15 25.2q-.8 0-1.3.7 0 1-.6 1.8c-9.4 13.5-18 29.6-37.4 27-19.3-3.1-44-54.2-53.7-70.7q-.1-1-1.2-1.3.3-.9-.2-1.8l-5.4-12.1-.3-.7q-.7-1.9-1.9-3.5a78 78 0 0 0-4-10.6c-.4-2-2.8-.4-3 1.2ZM347.7 303q-.4 2.6 0 5.2c-.2 2.4-.8 10.6.3 12.2l-.2.8a13 13 0 0 0-.2 4.8 128 128 0 0 0 .3 15.9q-.6 12.3-.6 24.6 0 1.2.8 1.9-1.1 2.2-.4 4.6c-.1 2.3-.8 13.9 0 15v1l-.4 17.2.6 2.7a138 138 0 0 0-.1 22c30.5 7.8 41.4 31 27.2 59.4q-1 0-1 1a80 80 0 0 1-6.6 6.8c-1.4 1.7.8 1.7 1.9 1.2v.3q8.8.3 17.5 0 4 .6 8 .4c18.3 1 17.2-10 17-24.4-1.3-1.4-3 0-.2-2.5.9-1.8.3-12.3-.5-14.3 1.5-4.2.3-20.1 1-25.7v-3.8a193 193 0 0 1 0-13.2q1.1-20.7-.1-41.5 0-1-.7-1.8c1.2-2.3-.3-5.2 0-7.6a153 153 0 0 0-3.5-15 71 71 0 0 0-6.4-15.4 58 58 0 0 0-4.6-8c-.7-.9-2 .4-2.7.6l-.3-1.3c1.7.4 1.6-1.3 1-2.3l-4.7-6-2.7-3a83 83 0 0 0-7.3-7l-4.8-4q-4.5-3.3-9.2-6-2.5-1.4-5-2.5c-2.4-1.2-14.1-7.8-14.1-1.8q.6 4.5.3 9 0 .3.4.5Zm-99.9 0c-9.4 7.8-24.6 25.3-36.7 12.7q-.5-.4-.9.1 3.7 7.9 8.1 15.5.8 2.4 3.3 2.1l.5.3q-2 .8-.9 2.7l7.2 12 5.3 8 4 6 7 10q2.8 3.1 6.3 5.7 1.4.9 2.9 1.2 4.1 1.5 7.6-1.3c8.7-8.9 23-33.1 30-44.7q1.6-2.5 2.8-5.1c1.3-2.4 6.3-10.6 6.7-12.6l-.4-.4c-8.6 5.2-14.5 7.7-23.2 0l-20-16.5c-1-.4-1.5-1.5-2.7-1.1a36 36 0 0 0-6.9 5.3ZM316 480l.3 1.5q1.2 2.5 3 5a13 13 0 0 0 2.5 3q0 .9 1 1.2l1.3-.2c-.3 3 5.6 5.2 7.8 6.3q3.4 1.7 7.2 1.6c.3.8 3 .5 3.7.7l2.4-.1c16.8-3.7 24.6-16 23.7-32.7l-.1-1.5c-.8-3.2-1.8-7.2-4-9.7l-.1-1c-5-6.8-10-10.2-17.4-13.8-2.7.2-8-1.3-10.2.5-12-1-24.2 15-23.2 26.8a28 28 0 0 0 2 12.4Z"/><path fill="#6a6b6c" fill-opacity=".6" d="M372.2 507.8a7 7 0 0 1-2.4-.1c.4-1 2.1-.9 2.4 0"/><path fill="#7e8081" fill-opacity=".6" d="M298.2 507.8h-2.4c.3-1 2.4-1 2.4 0"/><path fill="#767879" fill-opacity=".6" d="M129.9 507c.9 0 3-.4 3.3.7-.8.3-3.4.8-3.3-.7m62.9 0q1.4-.3 2.4.6-1.5.8-2.4-.6m126 .1c1 0 3-.6 3.5.6-.8.2-3.3.8-3.4-.6"/><path fill="#937661" stroke="#937661" stroke-width=".5" d="M246.8 12.1c2.7 0 15.2-.7 16.6.9L216 47.5q-.9.5-.9 1.4-2.1-.3-3 1.7c1.1 1 2.5-.9 3-1.7l3.6-1.6 55.3-32q.6-.3.9-1.1 5.5 1 10.9 2.6 1 0 1.2 1.2l-49 34c-1.3 1-4.7 2.5-5 4a3 3 0 0 0-2.8 1.7c.6.9 2.9-.5 2.8-1.7q3-.3 5-2.7 1.5-.4 3-1.3l53-30.6q.8-.5.9-1.4c2.1 1 9.5 3.1 10.4 5.3l-62.7 42.9q-1 .5-1.5 1.6-2.3 0-3 2.2c-2-.1-3.7 1.4-5 2.6.8 1.5 4.5-1.6 5-2.6q2.2 0 3-2.2 1.4 0 2.6-.6L311 30.3q1.2-.6 2-1.7c1.3 1.5 8 4.7 8 6.3q-15.8 10-31.4 20.4c-1.9 1.3-6.7 3.7-7.6 5.6-1.5 0-4.6 1.6-5 3.2q-2.2-.3-3 1.9a2 2 0 0 0-2 .7c.7.9 1.8 0 2-.7q2-.3 3-2c1.8-.2 4.3-1.3 5-3.1 2 .3 7-3.3 8.8-4.3l31.8-18.4q1-.4 1.2-1.5c3 1.4 6.2 4.8 8.5 7.1q-1.2-.1-2.4.4L277 79.7q-.6.5-1 1.3c-4.5-4.4-8-12.9-15.5-7-22.3 25-43 28.1-74.7 33.3q-13.5 4-18.6 17-1.1-.3-2.2.2c-4.4 3-19.4 10.3-22.1 13.4q-.7-.5-.7-1.4l.8-10.8q1 0 1.7-.5l57.6-39.6 1.4-1.3q1.6-.7 3-1.6c-1.5-1.6-3.5 1-4.6 2Q172.8 101 143.7 118q.1-6.6 2-13 1.2 0 2.3-.7l41.9-29.2q1.2-.8 1.9-2c.5.2 2.9-.4 1.7-1.2q-1.2.2-1.7 1.2c-14 7.2-29.7 17-43.8 24.9h-.8c.8-3.5 2.3-13.5 5.9-15 6-4.6 31.5-22.5 34.8-26 .4-.3 4.2-1 2.7-2q-2.1.1-2.7 2c-3 .3-8 4.1-10.6 5.8L155 75.2c10.4-24.7 39.3-50.7 65.3-57.3q-15 13.5-30 26.5.7.6 1.7 0l51.7-30zm89 35.7c2.1 1.3 5.7 4.6 6 7-1.4 1.5-4 2.2-4.8 4.2-1.8-.2-4.2 1.4-5.1 3-1.4 0-4.5 1.6-4.8 3q-1.1 0-2.3.4-2 1.7.5 1.2 1.2-.5 1.8-1.6c1.4.3 4.6-1.6 4.8-3 1.5-.2 4.8-1.3 5.1-3 2.1.4 4.2-2.2 6.1-2.7 2 .7 4.4 4.9 5.3 6.8L331 74.6l-4 2.2q-1.4 1.5-3.2 1.7-.9.5-.7 1.4c-1.6-.1-4.6 1.7-5.3 3q-1 1.2 0 0c1.9.3 4.2-1.6 5.3-3a6 6 0 0 0 4-2.1q11.6-6.3 22.8-13.2l4.8 8.3q-1.3.3-2.4 1l-40.8 26.4q-1 .5-1.4 1.8a89 89 0 0 1-33.6-19.9q1.4-.3 2.4-.8 27.9-16.2 55.7-32.1.9-.6 1.2-1.5Zm20.5 28.8q4.5 8.2 7.2 17.2-1.4.1-2.5.9l-19 12c-.8.8-4.3 1.8-3.6 3.2l-1.5 1.6c-8.3-4.5-16.1-6.2-25.2-8.7q22.4-12.9 44.6-26.2ZM314.7 85q.7 0 1.2-.6-.9-.3-1.2.6Zm-48.5 3c1.2 1.3 5.4 4.5 5.8 6q-21.1 12.6-42.4 24.8-.7-.8.3-1.5c5.5-4 34.9-25 36.3-29.3Zm14 11.8q1.7.3 2.7 2c-3.4 3-16.2 9.1-20.9 12.8-1.3 1.1-2.7-.1-1-1.2a379 379 0 0 0 19.2-13.6Zm24 11.5q3.3 1.5 6.7 2.2c-7.4 2.4-21.6 11.7-28.8 16.2a2 2 0 0 1-1.8-.4l22.7-15.9q1.2-.7 1.3-2.1Zm63.6-.7q1.4 10.8 1.4 21.6c-3-.8-18 12-22.3 13 1.3-8 1-13.8-1.2-21.5 6.7-3.7 16.3-8.7 22-13Zm-165 4.3q-5.9 4-12.4 7c-1.5-1.4 3.6-4.4 3-5.9q-1.1-.3-2.3-.4 6-.6 11.8-.7Zm-23.8 31c-1.5-.8-1.4-5-1.8-6.6 10.4-4.8 24.6-13.6 34.8-19.8q.9-.5 1.8 0 0 .8-.7 1-16.3 12.2-32.2 24.8-.9.6-1.9.6ZM166.3 126c-1.3 4.6-1.3 9.5-2.2 14.1-3.6.8-17.6 9.8-22 12.1.6-3.4-1.5-10 2-12.2 3.2-1 17.9-11.7 22.2-14Zm202.8 8.8q.2 15.6.1 31.2-1.2 0-2.2.7l-50.8 33.8q-.6.4-1.4.5 7.2-12.8 14-25.9a52 52 0 0 0 17.3-27.4q11.6-6.1 23-13Zm-34.4 4.2c.4 1 .5 6.8-.5 6.8q-1.2 0-2.2.6l-31 17.9a39 39 0 0 1-5 3.3q-1 .3-1.7-.2l38.7-27.7q.7-.6 1.7-.7Zm-133.9 6.3.3.3q-.3 1-1 1.8-8.3 5.5-16.3 11.4a6 6 0 0 1-1.5-2.5 481 481 0 0 1 18.5-11Zm4 46.6-3.6-6.7q1.5 0 2.6-.8 20.7-11.9 41.2-24.1.6-.6 1.5-.4c.9.8-.6 1.3-1 2q-20 14.1-39.6 28.5a3 3 0 0 0-1 1.5Zm-7-14q-1-1.8-1.5-3.7c2.7-.8 18.7-10.8 22.4-13q2.2 0 .5 1.5a161 161 0 0 0-21.5 15.2Zm171.3-5.2c-.2 2.6 1.1 9.5-1.2 11.2l-32.2 21.4c-1.5.9-7.4 4-7.7 5.6-1.5 0-4.6 1.6-5 3q-2.2 0-3 2-1.2 0-1.9.8c.6.9 1.9.1 1.9-.7q2.1-.2 3-2a6 6 0 0 0 5-3.1c2 .3 7-3.3 8.7-4.3l32.6-18.7-.2 23.4q-.9.2-1.7.6c-12.6 8.7-27 19.4-39.4 27.5q-1 .5-.8 1.4-1.4-.1-2.1 1c.7.9 1.9-.2 2.1-1q1.5-.3 2.5-1.5 20-11 39.6-22.3v12c-1.8 0-30 21-30.2 21.8-1 .4-2.8.7-3 2 1 .9 3-.7 3-2l2-.2q13.4-7.8 26.7-16l1.2.3.1 27.4q-1 0-1.7.7l-11 10.4c.6 1.3 1.7-.8 2.3-1q5.3-2.8 10.3-5.7l.2 18.8q0 1.3-.8 2-6.6-2.7-13.4-5-8.2-2.3-16.5-4.1 1-1.7 2.3-3-.6-.4-1.3-.2-1.8 1.7-4.1 2.5c-2 .2-5.4.5-7.2-.5-4-2.8-30.8-22.4-31.8-24.1-.1-9-.5-19.1.3-28 5.7-7.1 11.9-13.4 16.3-21.5q.6.6 1.3.4c18.4-10 36.5-21.1 54.8-31.3Zm-187.1.9c3.8 10.3 9.1 19.8 14.2 29.5q-1.2 0-2.2.5l-51 29.6c0-2.7-1.2-9.4 1.1-11.2q8-5.2 16.2-10.2c2-1.5 8.7-4.8 9.7-6.7a7 7 0 0 0 5-3.2c1.9 0 3.7-1.3 5-2.6-.7-1.2-4.8 1.7-5 2.6-1.7.3-4.4 1.5-5 3.2-2.2-.3-8.7 4.5-11 5.6l-6.6 4.1-9.7 5.2.1-21.2q1.2 0 2.2-.5c11.7-8.1 26-16 37-24.7Zm36.6 38.3q-2.2-3-4.5-5.7 3.9-1 7.2-3.3 18.6-10.4 36.6-21.6c1.7-1 2.9.3 1.3 1.3a1228 1228 0 0 0-33.5 23.6 61 61 0 0 0-7 5.7Zm142.6-7.8c-1.2 0-3 0-3.2 1.5 1 1 2.5-.8 3.2-1.5 1.2.3 5.6-2.1 4.4-3.2-.9.1-4.7 2-4.4 3.2Zm-163.7.5q8.4 11.4 17.8 22.3c.4 8.7.8 18.8-.2 27.4q-1-.1-2 .4l-40.5 23.4q-.4.3-.3 1a248 248 0 0 0-28.8 9.6q-.9-.8-.7-2.2c.4-3-.8-21.3 1.2-22.4l38-23.9a2 2 0 0 0 1-1.1q2-.2 3-2c.6 0 2.8-.3 1.6-1.2q-1.3 0-1.6 1.2-2.1 0-3 2-1.2-.2-2 .3l-14 8.2q-12 7.2-24 13.7-.3-10.8 0-21.6 1 .2 1.7-.4 26.4-17.2 52.7-34.7Zm37.5 22.1q-2.2-.8-4-2.3c9.2-4.8 19.4-10.5 28-16.3q1-.3 1.7.5-12.7 9.3-25.7 18.1Zm25.9-2q-5.8 3-11.3 6.3l-1.9 1.7a1 1 0 0 1-1-.6q2-2.5 4.8-4a479 479 0 0 0 16.9-10.2q1.2-.9 2.4-.3c-.2 1-8.6 6.2-10 7Zm99 28.3q-1.8 0-2.7 1.6c1 .8 2.5-.6 2.8-1.6.8 0 4-.9 2.6-2q-2 0-2.7 2Zm-128.6 21.1q1 .4 1.8 1.5a8 8 0 0 0-3.1 2q-1 .4-1.6-.2 1.5-1.5 2.9-3.3ZM203.7 290l-3.5-3.6c2-.7 12.2-7.3 14.8-9 1.5-1 2.5.2 1 1.3-4.3 3.5-7.7 8.2-12.3 11.3Zm107.4-11q1.5.5 2 2c-1.1 1.4-4 2.8-5.7 3.8q-.4-.5 0-1zm-144.5 9a2 2 0 0 1 2.1.5c-1.5 2.8-3.3 5.3-4 8.6-2.1 1-3.3 2.9-6 2.7.2-2.3-1.3-3.6.6-5.8q3.3-2.5 6.7-4.6.8-.5.6-1.4Z"/><path fill="#967462" fill-opacity=".2" stroke="#967462" stroke-opacity=".2" stroke-width=".5" d="M360 253q.5-2 2.6-2c1.3 1.1-1.8 2-2.7 2Z"/><path fill="#937561" fill-opacity=".4" stroke="#937561" stroke-opacity=".4" stroke-width=".5" d="M323 214a4 4 0 0 1-3 2q.8-2 3-2Z"/><path fill="#937562" fill-opacity=".3" stroke="#937562" stroke-opacity=".3" stroke-width=".5" d="M328 210.9a6 6 0 0 1-5 3c.4-1.4 3.5-3 5-3Z"/><path fill="#937662" fill-opacity=".5" stroke="#937662" stroke-opacity=".5" stroke-width=".5" d="M361.2 204.1c-.7.7-2.2 2.5-3.2 1.5.2-1.4 2-1.5 3.2-1.5Z"/><path fill="#937661" fill-opacity=".3" stroke="#937661" stroke-opacity=".3" stroke-width=".5" d="M175 202a7 7 0 0 1-5 3c.6-1.6 3.3-2.8 5-3Z"/><path fill="#937762" fill-opacity=".4" stroke="#937762" stroke-opacity=".4" stroke-width=".5" d="M361.2 204.1c-.3-1.2 3.5-3 4.4-3.2 1.2 1-3.2 3.5-4.4 3.2Z"/><path fill="#927661" fill-opacity=".4" stroke="#927661" stroke-opacity=".4" stroke-width=".5" d="M318 82.9q-1.2 1.2 0 0Z"/><path fill="#937661" fill-opacity=".4" stroke="#937661" stroke-opacity=".4" stroke-width=".5" d="M323.2 79.9c-1 1.4-3.4 3.3-5.3 3 .7-1.3 3.7-3.1 5.3-3Zm-8.5 5q.3-.8 1.2-.5-.5.6-1.2.6ZM186 237.2q.3-1.4 1.6-1.2c1.2.9-1 1.3-1.6 1.2Z"/><path fill="#937763" fill-opacity=".3" stroke="#937763" stroke-opacity=".3" stroke-width=".5" d="M191.8 73.1q.6-.9 1.7-1.2c1.2.8-1.2 1.4-1.7 1.2Z"/><path fill="#927461" fill-opacity=".2" stroke="#927461" stroke-opacity=".2" stroke-width=".5" d="M241.1 69.8a3 3 0 0 1-3 2.2 3 3 0 0 1 3-2.2Z"/><path fill="#937661" fill-opacity=".5" stroke="#937661" stroke-opacity=".5" stroke-width=".5" d="M274 66c-.2.7-1.3 1.6-2 .7a2 2 0 0 1 2-.7Zm-99 136c.2-1 4.3-4 5-2.7a8 8 0 0 1-5 2.6Zm145 14c0 .8-1.3 1.6-1.9.7q.7-.9 1.9-.7Z"/><path fill="#947561" fill-opacity=".3" stroke="#947561" stroke-opacity=".3" stroke-width=".5" d="M282 60.9c-.7 1.8-3.2 3-5 3.2.3-1.6 3.5-3.2 5-3.2Z"/><path fill="#937662" fill-opacity=".4" stroke="#937662" stroke-opacity=".4" stroke-width=".5" d="M233 56c0 1.2-2.2 2.5-2.8 1.7A3 3 0 0 1 233 56Zm98.9 6c-.2 1.4-3.4 3.3-4.8 3 .3-1.4 3.4-3 4.8-3ZM186 237q-1 2-3 2 .9-1.9 3-2Z"/><path fill="#937661" fill-opacity=".4" stroke="#937661" stroke-opacity=".4" stroke-width=".5" d="M187.9 57q.6-1.9 2.7-2c1.5 1-2.3 1.7-2.7 2Zm139.3 183.8c-.2.7-1.4 1.9-2.1 1q.8-1.1 2.1-1ZM360 253c-.3 1-1.9 2.4-2.8 1.6q.9-1.7 2.8-1.6Z"/><path fill="#e4e8eb" stroke="#e4e8eb" stroke-width=".5" d="M231.3 274.1q-1.3 1.8-3 3.3.7.6 1.7.2 1.3-1.4 3.1-2l14 13.8q.8.7.3 1.7l-23.3 19.4q-1 .3-1.7-.4l-7.7-7.8q8.8-7.2 17.5-14.7 1.5-1.4-.5-1.7l-19.2 11q-1 1-.7 2.2-3.9-4.7-8.1-9.2c4.6-3.1 8-7.8 12.3-11.3 1.5-1 .5-2.4-1-1.3a170 170 0 0 1-14.8 9c-.6-1.2-4.7-4-3.7-5.4q11.5-9 23.3-17.5 1-.3 1.8.5a183 183 0 0 1 9.7 10.2Zm79.8 5-3.8 4.6q-.4.6.1 1c1.6-.9 4.6-2.3 5.7-3.8 1.4.5 3.7 1.2 2.2 3.1L291 310.3q-.7.6-1.6 0c-1.8-1.8-9.7-7.4-10.3-9.4q.3-.8 1-1.3a10 10 0 0 0 5.3-2.6l1.2-3c.9-.1 4.6-3 3-3.9-1.6 0-10.7 6.2-12.9 7.1q-.8.8-.9 2l-11-9.3q-1-.9-.5-2.1 12.1-12.4 24.5-24.5a2 2 0 0 1 2 .3q10 8 20.3 15.4ZM182.9 287q2.4 5.1 4.1 10.6-1.4.3-1.8 1.7c-1.9-.2-5.5 3.7-7.3 4.6h-.9c0-5.6-.5-11 3-15.7zm149.4 9.6c-2 .7-5.2 2.4-6.5 4a47 47 0 0 0-6 3.4q3.3-7.5 6.9-14.8c2.2-4 5.2 2.4 6.2 4.2 1.9 2.5-.8 2.2-.6 3.2ZM160 290.3l.2 1a2 2 0 0 0-1.3 1.8c-2-.3-17.2 15.3-20 17.3-1.3 1.2 0 1.7 1.1 1.1l17.7-10q1-.6 1-1.7c2.7.2 3.9-1.6 6-2.7q0 32-.7 64l-2 .8c.2-3.2-1.4-.5-2.5 0a4367 4367 0 0 0-57.2 32.7l-2.2 1.7v-11.5c2.3-.2 20-12.8 23.3-15l7.6-4.8c1.5-1 4.2-2.4 5-4 .8 0 4.3-.8 2.6-2q-1.8.3-2.6 2a9 9 0 0 0-5.3 3c-2 0-6.5 3.6-8.5 4.5L100 381.3v-11.5c12.6-7.8 24.6-16.9 36.4-25.6l11.2-7.5a1 1 0 0 0-1-.4c-1.1 1.4-2.5.8-3.5 2.4-14 7-27.7 15.4-41 23.6l-1-.3c-.2-3.8 2.1-10.3 2.9-14.2q1 .4 2-.2c9.4-7.6 19.8-14.3 28.7-22.4.7-.3 3.9-1 2.7-2.2q-2 .3-2.7 2.2c-5.7 1.8-20.7 11.6-27 14.9h-.5a88 88 0 0 1 52.7-49.8Zm201 5q-.6.8-1.7 1-1 0-1.4 1l-10.2 5.6-.4-.5q.2-4.5-.3-9c0-6 11.7.6 14 1.8Zm5.1 2.3 9.2 6a822 822 0 0 0-25.7 16l-.8.5q-.4 0-.8.3c-1.1-1.7-.5-9.8-.3-12.3a59 59 0 0 0 18.4-10.5Zm-32.7 2.8.6-.3.9-.1c1 3.5-.2 8.2.4 12-5 .7-23.4 14.9-28.6 16.9l10.2-20.1c2.2 1 12.5-6.7 15.2-7.7zm46.7 7.3q3.8 3.4 7.3 7-1.3.2-2.5.8l-37.3 23.7q-.3-6.6 0-13.3a5 5 0 0 0 2.4-.3c5.6-3.7 26.5-14.7 30-17.9Zm-218 9.7q1.6-1-.4-1.4a38 38 0 0 0-4.5 3.7l.2.4c1.3 0 3.6-1.8 4.6-2.7Zm32.7-.7 1.2.3c9.7 16.5 34.4 67.6 53.7 70.7 19.3 2.6 28-13.5 37.4-27a2 2 0 0 0 2 0q22.4-12.8 44.7-26 .5.3 1 .3.4 6.6.4 13-1.2-.2-2.3.4a150 150 0 0 1-16 10q-1 .7-1 1.9c-2-.9-4 1-5 2.6a6 6 0 0 0-4.9 3 7 7 0 0 0-5 3.1c-1.8 0-3.9 1.4-5 2.7.8 1.4 4.6-1.6 5-2.7a7 7 0 0 0 5-3 6 6 0 0 0 5-3q3-.2 4.9-2.7l2.8-1.1q8.4-4.6 16.3-9.6.2 13.8 0 27.6a3 3 0 0 0-1.7.5l-43.3 28q-.7.4-1 1.3-2.2 0-3 2-1.5-.2-2 1c-1 .5-2.8.5-3 1.7 1 1.2 2.6-.6 3-1.7q1.4.3 2-1 2.1 0 3-2c2.1.1 8.7-4.7 11-5.7 11.5-7 23.6-13.6 35.3-20.4q0 25.2-.5 50.4l-9 3a39 39 0 0 0-24 44.7q-5.3 3.6-10.9 7c.2-1.4-1.2-1-2-.6l-24 14-15.3.3q-1 .2-1.5-.7 1-.9 0 0-2.9.6-5.7.6h-50.2v-.4q.6-1 1.8-1.1l1.3-.8 1.8-1.2 1.2-.8 1.8-1.2 1.2-.8 1.8-1.2 1.2-.8 1.8-1.2 1.2-.8 3-2 1.8-1.2 1.2-.8 1.8-1.2 1.2-.8 3-2 1.8-1.2 1.2-.8 3-2 1.8-1.2 1.2-.8 3-2q9.4-6 18.5-12.6l1.5-.7 1.5-1.3q.8 0 1.5-.7l1.4-1.2q.9 0 1.6-.7l1.5-1.4q.9 0 1.5-.7l1.5-1.2q.8-.2 1.5-.8l1.5-1.2q.8-.2 1.5-.7l1.6-1.3q.8-.2 1.4-.8l1.5-1.3q.8 0 1.5-.6a40 40 0 0 1 6-4l1.6-1.5c1.3.2 7.5-4.4 8.2-5.6q2.1 0 2.8-2c.6.2 3-.3 1.7-1.1q-1.3 0-1.7 1-2 .5-2.8 2c-2.3 0-6.9 3.7-9.2 4.7q-1.7 1.6-3.9 2.4l-1.3.8-1 .3-1 .8-5 2.8-5 3-.7.7q-.8 0-1.3.6l-5 2.7-.8.5-1.3.7-3.6 2.1-1.3.7-.7.5-1.3.8-1.8 1-1.2.6-.7.4-1.3.7-5 3-.6.5-1.3.8a25 25 0 0 0-5 2.8l-.9.4-1.2.8a34 34 0 0 0-5 2.8q-.4 0-.8.4l-1.2.8-3 1.7-1 .4-1 .9-5 2.7-.7.6-1.2.7q-2 .8-3.8 2l-1.2.8-2.2 1.1-4.8 2.9-.8.5q-.8 0-1.3.6l-1.8 1-1.3.8-.7.5-1.2.7-5 2.8-.8.5-1.3.8-3 1.6-.6.4-1.1.7q-.7.3-.9 1h-18c4.5-3.4 41.6-25.6 42-27.8 11-1 16.6-2 20.5-13.1a2 2 0 0 0 1.7-.2q6.3-4.4 13-8.3.6-.4.7-1.1l1.4-.3q1.2-.6 1.8-2 3-.4 5-2.8 2-.4 3-2.2 1.2.3 1.8-.6c-.5-.9-1.5 0-1.8.6q-2.1.1-3 2.2c-1.8-.5-4 1.4-5 2.9a2 2 0 0 0-2.1.8l-1.2.4q-7.7 4.9-15.8 9-.2-8.5-.2-17.1 1.2.2 2.4-.4 7.5-5.2 15.3-10c1.7-1.2 9-5.2 9.6-6.6q2.1-.4 3-2.1 1.4.2 2-1c1-.4 2.7-.4 3-1.6-1-1.1-2.7.5-3 1.6q-1.4-.3-2 1-2.1.2-3 2.1-1-.2-2 .4l-9 5.2c-5.2 3.7-10.7 6.2-16.3 9.4 2.2-32.2-5.5-60.7-42.1-65.2l-.5-.5a804 804 0 0 1 .1-46.3c2.3-2 5.5-4.6 8.4-5.3a4 4 0 0 0 2.4-.2q3.3-2.3 6.8-3.9Zm139.2.3.8-.1q.4 6.6.4 13.2a3 3 0 0 0-2.3.2q-21.3 13.6-42.5 27.7l-1.4.2q7.7-12.6 15-25.3 1.5.4 3-.2zm56 .7q2.5 3 4.7 6c.7 1 .8 2.7-1 2.3-2.3 1.4-10.8 6-11.7 8a6 6 0 0 0-5 3q-1.4-.2-2 1-2.1.2-3 2a2 2 0 0 0-2 1 3 3 0 0 0-3 1.9q-1.3-.2-2 .8c.7 1 1.8 0 2-.8q2 0 3-2 1.4.4 2-.9 2.2 0 3-2 1.5.3 2-1 3.2-.5 5-3 1 0 2-.5 5.2-3 10.1-6.2c.8-.2 2-1.5 2.7-.6q2.7 3.9 4.6 8-1.5-.2-2.7.6l-50.6 33a2 2 0 0 1-.8-1.9q0-12.3.6-24.6a3 3 0 0 0 1.8-.4 1961 1961 0 0 0 40.4-23.7Zm-157.8 7.5a76 76 0 0 0-7.9 5.6 4 4 0 0 0-2.7 2.5q-2.6.3-3.3-2c3.5-.7 10.7-7.3 13.9-6.1Zm62 2.9-2.7 5.1c-1.1-3-3.9 1-5.5 1.5-1.2.5-2.7-.1-1-1.2q3.8-3 8-5.8.8-.3 1.3.4Zm-65.8 20.1-2.5-4c3.5.3 15.9-8 19.7-10.2 1-.8 3-.5 2 1-4.4 2.4-15.5 12.1-19.2 13.2Zm176-7.5q2 4.6 3.4 9.4a5 5 0 0 0-2.4.7L350.9 386l-1 .6-2.2 1.4c-.8-1.1-.1-12.7 0-15q1.2 0 2.4-.5l52.5-30.3zm-166.7 21.6-4-6c6.2-2.3 17-9.5 23.2-13 1.8-1 2.8 0 1.2 1.3L238.6 360q-1 1-1 2.3Zm171.4-7.5q1.3 5 2.2 10.3l-1.3-.3q-.8.3-1.3.9a4772 4772 0 0 1-61.4 40.4q0-8.6.4-17.2 1.4.6 2.6-.2zm-164.4 17.5-2.3-3q3.4-2 6.5-4.1 1-.4 1.8.4a38 38 0 0 1-6 4.8q-.3.9 0 1.9Zm9.2 7q-1.5-.4-3-1.3 3.7-2.2 7-4.7a2 2 0 0 1 1.7.2q-2.6 3-5.7 5.8Zm156.5-6 1-.6q.6.7.6 1.8 1.2 20.8.2 41.5c-2.2-.2-5.1 2.6-6.7 4l-4.5 2.6a2 2 0 0 0-.8 1.1c-1.3.3-3.1.6-3.2 2.3-1.9 0-4 1.4-5 3q-2.1.2-3 2-1-.1-1.8.7c.5.8 1.7.2 1.8-.6q2.2-.3 3-2.1a7 7 0 0 0 5-3q2.6.2 3.2-2.3c2.6.5 5.3-2.1 7.3-3.5l4.8-2.3-.2 11.3q-2.8 1.4-5.2 3.2a5 5 0 0 1-3 2l-1.4 1.5q-1.9.2-2.2 1.8-2.3 0-3.2 2.2c-1.9 0-3.8 1.5-5 2.7.8 1.3 4.4-1.5 5-2.7q2.5.2 3.2-2.2c1.1.2 4.2-1.2 4.7-2.2q3-1.3 5.8-3l1.2.5c-.6 5.5.6 21.5-.9 25.7.8 2 1.4 12.5.5 14.3-2.8 2.4-1.1 1 .2 2.5.2 14.4 1.3 25.4-17 24.4l6.4-8q.7-.7.4-1.5-.6.8-1.3 1.2a91 91 0 0 0-13.5 7.8q-8.7.4-17.6 0v-.2q4.5-4.2 9.1-8.2 2.1-1.6 3.6-3.6c-1-1-3.9 1.6-4.5 1.9l-2.4 1c14.2-28.5 3.3-51.8-27.2-59.6a138 138 0 0 1 0-22 3 3 0 0 0 2-.3zm-215.2 17.2c-3 .9-4 1.6-6.5 3.5l-1 .2-12.7 7.4q.3.9 1 1.2-2 1.6-4.3 2.5-.5-1.4-1.7-.7l-36 20.7c0-4.2-.4-9.5 1-13.5l1.6-.6 19.3-12.5c1.8-.7 7.3-3.9 8-5.7a7 7 0 0 0 5.2-3c.5.2 2.5-.3 1.4-1q-1 0-1.4 1a8 8 0 0 0-5.1 3 26 26 0 0 0-9.1 5.1q-2.7 1-5 2.4-.5.8-1.4 1.3l-13.4 7.5c1-6 4.4-15.5 9.6-19.2l1.2-2.6q.6-.4 1.3-.3.6.9 1.8.4c1.5-1.4 5.2-2.9 6-4.6q1.5.4 2-1 1.3-1.2 0 0-1.5-.2-2 1a8 8 0 0 0-4 1q.2-.9 1-1.3c14.5-8.7 32-3.6 43.2 7.8Zm214.5 4.6q.8 0 1.3-.7-.9-.3-1.3.7Zm-81.7 6q-2.1-.2-3 1.9a2 2 0 0 0-1.9.7c.6.9 1.6-.2 2-.7a4 4 0 0 0 3-2c1 .1 4.6-1.6 4.9-2.7-.7-1.2-4.8 1.7-5 2.7Zm-203 1.7a54 54 0 0 0-3 14.5c-2 0-18.1 10-21 11.6l-.7.2q-.5-5.7-.3-11.4a2 2 0 0 0 2 0q11.6-7.3 23-15Zm78.6.3c5.4 12.7 2.8 29.4 3.5 43h-.9q-.8.2-1.5.8l-5 2.8-.6.6q-.7 0-1.5.6l-4.9 2.8-5 3q-.4 0-.7.3l-1.3.7-5 3-.7.6q-.8 0-1.2.7a22 22 0 0 0-5 2.8q-.5 0-.8.4l-1.3.7-3.9 2.2-1 .9a32 32 0 0 0-5.2 2.7l-1 .3-1 1-5 2.7-.6.5q-.8.3-1.3.8l-5 2.7-.8.4-1.2.8q-2 1.2-4 2l-1 1-5 2.8-.7.6q-.8 0-1.2.7a27 27 0 0 0-5.7 3.3q-.8.3-1.3.7a26 26 0 0 0-5 2.8l-.9.3-1.1.8-1.9 1-1.2.8q-.7.6-.6 1.6c-4.5-.2-9-.5-12-4.2l2-1.6 13.9-8.3q.6-.3.8-1.1c3.1-3.4 13.9-8.8 18.3-11.8 4.1-.6 7.8-.8 11.3-3.3q1.2-1.8-.8-2.2c-5.4-.5-11.8 1.1-14.7-4.7 4.4-.3 23.2-13.5 28.1-16.7 1.9-2 10-5.3 10.7-7.2l1.4-.2q1.3-.6 2-1.9c1.4-.3 4.5-1.5 4.9-3.2q2.1 0 3-2 1.3.4 2-.9c.8.2 4.2-.8 2.6-2q-2 .3-2.7 2-1.3-.2-2 1-2 .2-3 2c-1.7 0-4.4 1.3-4.9 3.1q-1.4-.4-2.1.7l-1.1.5q-20 11.3-39.7 23v-13.5q1 0 1.9-.5l52.3-33.5q5-3 9.8-6.5 3-1 5.5-3.3ZM330 418c-1.6 1-4.4 2.2-5 4-1.4-.3-4.6 1.7-5 3-1 .2-2.7.4-3 1.6 1 1 2.7-.7 3-1.6q3.2-.4 5-3 3-.4 5-2.7c1.1-.3 2.9-.6 3.1-2-.9-1.7-1.9.8-3.1.7Zm-208.1 2.7q-.2 6.2 0 12.4c-1.7-.6-17.2 9.6-20 10.8q-.7.3-1 .9l-.9.4v-11.4c2.2.4 18.5-11.6 21.9-13.1Zm0 17.1v12.4c-2-.4-17.1 9-20 10.7q-.7.3-1 .8l-.9.5v-11.4c2.2.4 18.3-11.7 22-13Zm215.2 2.8c2.2-1.7 7.5-.3 10.1-.4-.7 2-16 11-18.6 11.6l-.3-.3q4.2-5.5 8.8-10.9Zm60 13.4c1 .1 9-4 7.6-5.1-1.2-.2-7.4 4-7.7 5Zm-191-4h.7c-.2 4.2.8 12-.8 15.6-1 1.3-8.6 1.2-10.3 1.7q-1.8.5-3.6 1.4-3.6 2.7.9 3.6l-.3.7c-14.8 9-30.4 17-44.8 26.4q-8.2.3-16.4.3-.8 0-1.4-.6.7-1 2-1l1.2-.8 3-2q2-1 3.4-2.6.9 0 1.5-.7l2-1 1.1-1 3-1.8 3-2 3-1.9q1.9-1.1 3.5-2.5.8-.2 1.5-.8l1.5-1.2 1.6-.7 2.8-1.9 1.8-1.2 1.2-.8 3.1-2 3-2 .6-.5q.8 0 1.4-.6l1.6-1.3 1.4-.7 2-1.2 1-.9 1.7-1 1.3-.7q.8-.7 1.8-1.2l1.2-.8 3-2 3.5-2.5q.9-.2 1.5-.8l1.9-1 1.1-1 1.7-1 1.2-.8 3.1-2zm-84.3 5c.2 4-.4 8.1 1.3 12-4.2 1.3-17.4 9.5-22 12.3l-1-.3c-.8-2.8-.2-7.3-.2-10.2 1.9.2 16.5-10 19.2-11.7l1.3-.8zm283.1 8q-2 0-2.8 1.6c1 1 2.6-.7 2.8-1.7 1 .2 4-.8 2.7-2q-2 .3-2.7 2Zm.8 15c.2 0 2-.4 1-1q-.7.3-1 1ZM348 493c-1.7.3-8.2 3.8-8.9 5.2q-3.8.2-7.2-1.5 12-6.9 24-14.2.6-.4 1 0-2.9 4.5-6.4 8.6-1.5.9-2.5 2Zm-40.7-2.4q3 4.1 6.5 8-1 1-2.6 1-8 .1-16-.2v-.2a194 194 0 0 0 12-8.6ZM234 496q-2 0-3 1.5c1 1 2.6-.5 3-1.5a2 2 0 0 0 1.8-.7c-.5-1-1.7 0-1.8.7Z"/><path fill="#ebecee" fill-opacity=".1" d="M400.3 437.7q-.8 2.4-3.2 2.3a3 3 0 0 1 3.2-2.3"/><path fill="#e4e6ed" fill-opacity=".3" d="M182 433c-.4 1.6-3.5 2.8-5 3.1.5-1.8 3.2-3 5-3.2"/><path fill="#e3e9ec" fill-opacity=".4" d="M187 430q-.7 1.2-2 1 .5-1.2 2-1"/><path fill="#a9acae" fill-opacity=".1" d="M400.2 423.7q-.5 2.5-3.2 2.3c0-1.7 2-2 3.2-2.3"/><path fill="#eaecee" fill-opacity=".2" d="M330 418v1.3a9 9 0 0 1-5 2.8c.6-1.9 3.4-3 5-4.1"/><path fill="#e4e8eb" fill-opacity=".5" d="M252 420c.3-1 2-2.7 3-1.7-.3 1.3-2 1.3-3 1.7m153 43c-.3.9-2 2.6-2.9 1.6q.9-1.7 2.8-1.7"/><path fill="none" d="M330 419.3V418c1.3.1 2.2-2.4 3.1-.7-.2 1.3-2 1.7-3 2"/><path fill="#e0eaef" fill-opacity=".2" d="M311 363a6 6 0 0 1-5 3 6 6 0 0 1 5-3"/><path fill="#c1c2c6" fill-opacity=".1" d="M315.9 360.3a6 6 0 0 1-5 2.6c1-1.5 3-3.4 5-2.6"/><path fill="#e4e8eb" fill-opacity=".5" d="M367 342.9c-.2.8-1.3 1.7-2 .8q.8-1 2-.8M284 410c-.4 1-2 2.9-3 1.7.3-1.2 2-1.2 3-1.7m105 21c0 .9-1.3 1.5-1.8.7q.7-.9 1.8-.6M370 341a3 3 0 0 1-3 1.9 3 3 0 0 1 3-2m-183 89a3 3 0 0 1 2.6-2c1.6 1.2-1.8 2.2-2.7 2m60 12c.3-.7 1.3-1.6 1.8-.7q-.6.9-1.8.6"/><path fill="#e3e8ec" fill-opacity=".3" d="M377 337q-.5 1.3-2 1 .6-1.2 2-1m-52 85a7 7 0 0 1-5 3c.4-1.3 3.6-3.3 5-3"/><path fill="#e5eaea" fill-opacity=".2" d="M163 471q-.2 1-1.4.7zm55 4q-.3 1-1.4.7zm7.3 2.3-1.2.8q0-1.1 1.2-.8"/><path fill="#e3e7ec" fill-opacity=".2" d="M157 382q1.3-1.2 0 0m106 67q-.3 1-1.3.7zm-109.7 35.3-1.2.8q.1-1 1.2-.8m57 3-1.2.8q.1-1 1.2-.8"/><path fill="#e2e9e9" fill-opacity=".1" d="m410.4 373.4-1.3.7q.2-1.1 1.3-.7M102 460.9q0 1-1 .8.3-.6 1-.8"/><path fill="#8c7462" fill-opacity=".9" d="M187 297.6q1.2 1.5 1.9 3.5-2-.6-3.8-1.8.6-1.4 1.9-1.7"/><path fill="#9b816f" fill-opacity=".8" d="m332.3 296.6 1 .3q-1.5 1.4-3.6 2.1l-1 1q-1.3.8-2.8.6a17 17 0 0 1 6.4-4"/><path fill="#eec7a4" stroke="#eec7a4" stroke-width=".5" d="M266.2 88.1c-1.4 4.3-30.8 25.2-36.3 29.3q-1 .7-.3 1.5Q250.9 106.8 272 94c1.9.6 6.6 4.4 8.2 6a379 379 0 0 1-19.3 13.5c-1.6 1-.2 2.3 1.1 1.2 4.7-3.7 17.5-9.8 20.9-12.9l9.4 4.5c-.3 1.8-10 7.3-11.9 8.7-.8 1 .8 1.4 1.6.7 1.7-2 11.6-6.4 11.9-7.8 3.1.2 7 3 10.4 3.5q0 1.4-1.3 2.2l-22.7 15.8a2 2 0 0 0 1.8.4c7.2-4.5 21.4-13.8 28.8-16.2l11.4 2.8-47 34q.7.8 1.7.3c15.7-10.4 33-19.4 49.3-29l2.7-1a26 26 0 0 1 5.7 18.3q-1 .1-1.7.7l-38.7 27.7q.7.6 1.7.2 2.6-1.5 5-3.3l31-17.9q1-.5 2.2-.6c-2.3 12.4-7.8 16.6-15.8 25-12.1 25.1-33.3 68.4-67.6 62.6 2-1.6 9.7-6.7 10-8.7 1.4-.9 9.8-6 10-7q-1.2-.7-2.4.2a479 479 0 0 1-17 10.1q-2.7 1.5-4.6 4.2-6.6-1.5-11.8-5.5 13-8.9 25.7-18.1-.7-.9-1.8-.4a307 307 0 0 1-27.9 16.2 192 192 0 0 1-12.4-12.5q3.4-3 7-5.7 16.7-12 33.6-23.6c1.6-1 .4-2.3-1.2-1.3q-18.1 11.2-36.7 21.6a23 23 0 0 1-7.2 3.3 205 205 0 0 1-9.3-14.3 3 3 0 0 1 1.1-1.5q19.7-14.4 39.6-28.5c.4-.6 1.9-1.2 1-2q-.9-.2-1.5.4-20.5 12.3-41.2 24.1-1.2.9-2.6.8l-3.5-7.3a161 161 0 0 1 21.5-15.2q1.7-1.5-.5-1.5c-3.7 2.2-19.7 12.2-22.4 13a85 85 0 0 0-4.4-8.4l2-.3 9.8-7q-.8-.5-1.7-.1c-3.2 2.3-7.3 4.4-10.5 6.6q-.4.3-.3.7a16 16 0 0 1-7.4-6.9l16.2-11.4q.8-.7 1-1.8.6 0 1-.2-.6-.3-1.2 0a481 481 0 0 0-18.5 11c-1.4-3-3.6-7.2-3.3-10.5q1 0 1.9-.6 15.9-12.6 32.2-24.7.6-.3.8-1-1-.6-2 0c-10 6-24.3 15-34.7 19.7-.8-11.3 1.4-21.3 14-23.6q1 0 2.1.4c.7 1.5-4.4 4.5-2.9 6q6.5-3.2 12.5-7.1c22.6-4.5 43-12.2 60-28.4 1.3-1 2.3.9 3.3 1.5Z"/><path fill="#e2b592" stroke="#e2b592" stroke-width=".5" d="M260.9 224.7c-.4 2-8.2 7.1-10 8.7l-3.2-.7 1.9-1.7q5.5-3.3 11.3-6.3Zm-33 14.3q-.1-1.5.7-2.6a52 52 0 0 0 42 4.6q6.7-2.4 12.8-5.8.7 1 .6 2.3 0 9.3-.4 18.7c-7.4 8.7-17 17.3-25 25.6q-.7.8-1.8.8c-4-4-28.6-26.7-28.6-30.1z"/><path fill="#fefefe" stroke="#fefefe" stroke-width=".5" d="m214.7 302.3-2.9-3.1q-.3-1.4.7-2.2 9.5-5.6 19.2-11 2 .2.5 1.6-8.7 7.5-17.5 14.7Zm42.7-3.7 20 16.6c8.7 7.6 14.6 5.1 23.2-.1l.4.4c-.4 2-5.4 10.2-6.7 12.6q-.6-.7-1.4-.4l-8 5.8c-1.6 1 0 1.7 1.1 1.2 1.6-.5 4.4-4.5 5.5-1.5-7 11.6-21.3 35.8-30 44.7a8 8 0 0 1-7.6 1.4q3-2.7 5.7-5.8a2 2 0 0 0-1.6-.2l-7 4.7a34 34 0 0 1-6.3-5.7q-.3-1 0-2 3.2-2 6-4.7-.7-.9-1.8-.4l-6.5 4-4.7-6.9q0-1.4 1-2.3l19.4-15.4c1.6-1.3.6-2.3-1.2-1.2-6.2 3.4-17 10.6-23.2 13l-5.3-8.2c3.7-1.1 14.8-10.8 19.2-13.2 1-1.5-1-1.8-2-1-3.8 2.1-16.2 10.5-19.7 10.1l-4.7-7.8q-1-2 1-2.7a74 74 0 0 0 9.5-5.4q4.5-3.5 8.6-7.3a6 6 0 0 0 2-1.1l2.5-2.7c.5-.3 3.8-1.1 2.7-2q-1.7.4-2.7 2l-1.8.6q-1.2 2-3.4 2.4l-2 1.8q-3 1.4-5.4 3.3c-3.2-1.2-10.4 5.4-13.9 6q-4.4-7.5-8-15.5.2-.5.8-.2c12.1 12.6 27.3-4.8 36.7-12.7a5 5 0 0 0 2.2.7c2.1-2.2 5.6-2.7 7.4-4.9Z"/><path fill="#f6f8f8" fill-opacity=".5" d="M244.8 317.1q.9-1.6 2.7-2c1.1.9-2.2 1.7-2.7 2"/><path fill="#375972" stroke="#375972" stroke-width=".5" d="M337 440.7q-4.5 5.3-8.7 10.8l.3.3c2.6-.7 17.9-9.5 18.6-11.6 7.6 3.6 12.6 7 17.5 13.9a5 5 0 0 0-3.6 2.5c.9 1 3.1-1 3.8-1.6 2.2 2.5 3.1 6.5 3.9 9.7q-2 0-2.7 1.9c.6.9 1.8-.7 2.8-.4 1 16.7-6.9 29-23.7 32.7l-.6-1.3q1.2.4 1.1-.9c1-.9 3-2.1 2.3-3.7l2.5-1.9q3.5-4.1 6.4-8.5-.4-.5-1-.1-12 7.3-24 14.2c-2.2-1-8.1-3.4-7.8-6.3q1.5-1 2.2-2.6c.9.3 3-1 2.2-1.8-.9 0-2.6.6-2.2 1.8q-2 .3-3.6 1.4l-1 .1a13 13 0 0 1-2.5-3l-2.9-5q1.5 0 2-1.5c1 0 2.7-.6 2.2-1.8-.7.1-2.9.6-2.2 1.8l-2.3.1a28 28 0 0 1-2.1-12.4c-1-11.7 11.1-27.8 23.2-26.9Z"/><path fill="#453e38" fill-opacity=".1" stroke="#453e38" stroke-opacity=".1" stroke-width=".5" d="M166.6 288q.3.9-.6 1.4-3.4 2.1-6.7 4.6l-.5-.9a2 2 0 0 1 1.4-1.9q.7-.4 1-1.2c1-1 4-1.6 5.4-2Z"/><path fill="#483c30" fill-opacity=".1" stroke="#483c30" stroke-opacity=".1" stroke-width=".5" d="M239.5 51q.9 0 1.5 1-1.5.9-3 1.3V52z"/><path fill="#242424" fill-opacity=".3" stroke="#242424" stroke-opacity=".3" stroke-width=".5" d="M103 494.4q1-.3 1.1.7z"/></svg>