<svg xmlns="http://www.w3.org/2000/svg" style="shape-rendering:geometricPrecision;text-rendering:geometricPrecision;image-rendering:optimizeQuality;fill-rule:evenodd;clip-rule:evenodd" viewBox="0 0 512 512"><path fill="#864f46" fill-opacity=".8" d="M156.8 187.3h-1.6c-.6-1.7 2-1 2.9-1.7l11.4-7.6q.8-.7.3-1.6 7.3-4.3 14.7-8.3c1.7-1.5 6.8-6 9-5.6l-4.6 3.8-11 7-2.5 2.4a435 435 0 0 0-18.6 11.6"/><path fill="#844d45" fill-opacity=".8" d="m287.2 109 .2 1.2-8.7 6q-.8.7-.7 1.6l-2 1.7q-6.8 3.5-13.1 8-4.1 1.6-7.6 4c-1 0-2.4 1.8-3 .9l9.4-6a21 21 0 0 0 4-3q4.6-2.4 8.5-5.8z"/><path fill="#d8b00c" fill-opacity=".2" d="M316.6 383.3q.2 1 1.1 1.4l-11.7 6.8q-.9.5-2 .5.1-.9 1-1.4 5.7-3.8 11.6-7.3m55 15q.2 1 1.1 1.4-5.7 3.5-11.7 6.8a4 4 0 0 1-1.8.5q0-.9.8-1.4 5.7-3.8 11.7-7.3"/><path fill="#f4c811" fill-opacity=".3" d="M395 351q-.6 1.2-2 1 .6-1.2 2-1m-198 9.8c-.5 1.2-3.8 4.5-5 2.9a9 9 0 0 1 5-3m93.2 11.2q-.6.6-1.4.8a2 2 0 0 1 1.4-.8m94.1 5a2 2 0 0 1-1.5.8q.5-.8 1.5-.8m-24.5 9.1q0 1-1 1zm-.6 21c-1.2 1.4-3.3 3.1-5.3 3 1-1.7 3.3-3.2 5.3-3M210 410a7 7 0 0 1-5.1 2.9q1.9-2.5 5-3M171 432.1q-.5.8-1.4.7.5-.6 1.4-.7m1.1 2.8-1.1.8q0-1 1.1-.8m89 6-1 .9q0-1 1-1m141.9 6.7c-.5 1-2 2.8-3 1.8a3 3 0 0 1 3-1.8m-200 24.4q-.7.7-1.6.7.7-.5 1.6-.7m73 7.1a8 8 0 0 1-5.1 3.2q1.8-2.7 5-3.2m-88.6 11-1 .8q0-1 1-.8"/><path fill="#835a45" fill-opacity=".1" stroke="#835a45" stroke-opacity=".1" stroke-width=".5" d="m205.1 224.7-.1 1.2-2.1 1.3-1.6.1c-.1-1.7 2.5-2.2 3.8-2.6Zm-3.8 2.6v1.3h-1.5l-1.6.6c-.4-1.5 2.2-1.8 3.1-1.9Zm-3 1.9q-1 .6-2.2.8c0-1 1.5-1 2.1-.8Zm-2.2.8c.7 1.8-2 1.7-3 2 0-1.6 1.8-1.9 3-2Zm-3 2q0 .7-.5 1a7 7 0 0 0-3.6 2.5l-5.4 2.4-1 1q-.9.3-1.2-.6l9.5-6q1-.3 2.2-.2Z"/><path fill="#a66b59" d="M173.7 222.9q-.5-1.3-.4-2.8c4-3.8 9.3-5.4 13.6-9l4.6-1.7q-2.7 2-5.4 4.3c-3.2 1.2-7.7 5.1-11.1 6.7q-1.4.9-1.3 2.5"/><path fill="#f4c811" fill-opacity=".4" d="M332.8 340q0 1-1 .9zm30.1 1q-.8 2-3 2a4 4 0 0 1 3-2m-20.5 1-1.5.7q.4-.8 1.5-.7m-19 11q-.7.6-1.5.8.5-.8 1.5-.8m-7.2 4q-.4.7-1.3.8.4-.8 1.3-.8m-12.5 2q0 1-1.1 1zm106.6 3q-.6.7-1.5.8.6-.7 1.5-.7m-47.5 22q-.1 1-1.1.9zm-23.5 19a3 3 0 0 1-1.5.8q.5-.9 1.5-.7M226 431a8 8 0 0 1-5.2 3q2-2.6 5.2-3m32.3 12-1.1 1q0-1 1-1m-10.5 3.2q-.2.8-1.1.8.5-.6 1.1-.8m-102.8 1q-.4.8-1.3.8.5-.7 1.3-.8M132 473.9c-.5 1.1-6.3 5.1-7 3.8.4-1 6-4 7-3.8m45.3 13.3q-.7.7-1.7.7zm7 4.9-1 1q0-1 1-1"/><path fill="#f4c812" fill-opacity=".3" d="M163 333c-.3.7-2 2.8-2.9 1.7a3 3 0 0 1 3-1.8m138 28q-.1 1-1.2.8zm31.3 46.3-1.3.7q.3-1.1 1.3-.7m-173.4.7q-1 2-3.1 2.1 1-2 3.1-2m-26 1q-.6 1.3-2 1 .6-1.2 2-1m45 19q0 1-1.2.7zm77 14q0 1.1-1.2.7zm16 11c-.4 1.5-3.4 3-5 3q2-2.7 5-3m-111 33c-.4 1.5-3 3-4.5 3.2-.8-1.6 3.3-3 4.5-3.2m85.9 21 3.6.1c-.7 1.2-3.2 1.4-3.6 0m17 0q1.7-.4 3.5 0-.4 1.2-1.8 1-1.3.1-1.8-1"/><path fill="#f3c811" fill-opacity=".3" d="M361.4 331.1q-.7.6-1.5.6.5-.6 1.5-.6m-26.1 15q-.4.6-1 .9 0-1 1-1m59.7 5c.4-1 2-2.8 3-1.6q-1 1.6-3 1.6m-123.1 29q-.1 1.1-1.3 1zm85 8q-.3 1-1.3 1zm-52.8 4a6 6 0 0 1-5 3 7 7 0 0 1 5-3m-56.2 4q.3-1.2 1.6-1 .8.3 0 .8a3 3 0 0 1-1.6.2m-156.6 3h.5q0 .8-.8 1zm302.8 1a4 4 0 0 1-3 2 3 3 0 0 1 3-2m-129.8 39-1.1 1q0-1 1-1m-131.5 15q0 1-1 1zm10.5 0-1 1q0-1 1-1m85.5 3q0 1-1.1 1zm-103 1q0 1-1.2 1zm-11.5 15-1 1q-.1-1 1-1m47.7 12q-.6 1.2-2 1a2 2 0 0 1 2-1m28.4 3-1.3 1q.2-1 1.3-1m-12.1 8-1.1 1.3q0-1.1 1-1.4"/><path fill="#8f6a16" fill-opacity=".1" stroke="#8f6a16" stroke-opacity=".1" stroke-width=".5" d="M183.7 321.7q-5.2 3.1-10.8 5.8-1.2 1.5-3 1.6 0-1.2 1.4-1.7l.7-1.4 1 .3q.8-.4 1.2-1.2l7.5-4c.4 0 2.4-.5 2 .5Zm-15.5 7.6 1.7-.2-4 2.8.3-1q.5-1.6 2-1.6Z"/><path fill="#f4c811" fill-opacity=".4" d="m349.3 338.1-1.3.7q.3-.9 1.3-.7m26 38.2q-.6.8-1.6.6a3 3 0 0 1 1.6-.6m-97 2.7q-.6.6-1.2.8.3-.9 1.2-.8m94 5q-.6.5-1.2.7.3-.7 1.2-.6m-26 15q-.6.6-1.4.7.5-.7 1.4-.7m54.7 10c-.6 1.1-3.9 4-5 2.6a8 8 0 0 1 5-2.7m-119 18c.2-1 2-2.7 3-1.7a4 4 0 0 1-3 1.7m-56 4q.6-1 1.5-1.1c1 .7-1 1.3-1.4 1m-59.7 8.1-1.5.6q.6-.6 1.5-.6m-29 19-1.4.7a2 2 0 0 1 1.5-.7m-25.4 8.1q-.3.8-1.3.7.8-.3 1.3-.7m233.9 11q.6-1 1.7-1.3c1.2.8-1.2 1.4-1.7 1.3m-181 6a4 4 0 0 1-3 1.9 3 3 0 0 1 3-2"/><path fill="#f4c811" fill-opacity=".5" d="M390 354c-.3.7-1.4 1.5-2 .7q.9-.9 2-.6m-142 42a3 3 0 0 1-2.6 2.1c-1.6-1 2-1.8 2.5-2m-38 14a3 3 0 0 1 2.5-1.9c1.8 1-1.5 2-2.4 2m144 0c-.3 1-2 2.6-3 1.6q.9-1.7 3-1.6m-188 10q.5-1 1.5-1c1.1.7-1 1.2-1.6 1m142 1c0 1-1.4 1.7-2 .6a2 2 0 0 1 2-.7m-32 58q.5-1.1 1.6-1.6 2.2-.4.6 1.2-1.1.6-2.2.4m105 11-1 .3v-1.6q.8-1.3 2.3-1.7c.9.8-1.4 2.2-1.4 3"/><path fill="#f5c811" fill-opacity=".3" d="m118.3 331-.4 1h-.7q0-1 1.1-1m236 4.3-1.3.7q.3-1.1 1.3-.7M327 344q-.1 1-1.2.8zm1.3 6.3-1.3.7q.3-1.1 1.3-.7M298 363q-.1 1-1.2.8zm-29 19q0 1.2-1.2.7zm89.3 10.3-1.3.7q.3-1 1.3-.7M348 394q-.3 1-1.3.7zm3.3 2.3-1.3.7q.3-1.1 1.3-.7m-26 15-1.3.7q.2-1.2 1.3-.7M163 421.9q-.5 1.3-1.9 1 .6-1.1 2-1m119 5.2c-.4 1.4-3.6 3-5 3a7 7 0 0 1 5-3m-135.6 25.2-1.3.7q.2-1 1.2-.7m89.7.7q-.3 1-1.2.8zm-36.7 29.2-1.3.8q.3-1 1.3-.8M165 494q-.3 1-1.3.7zm12.2 3.3-.9.8q0-1 .9-.8m182.8 2.6q-.2 1-1.4 1 .5-.8 1.4-1"/><path fill="#f5c812" fill-opacity=".4" d="M336.1 338.3q-.5.6-1.3.7zM360 343q-.5 1.3-2 1 .9-1 2-1m-52.6 14.3q-.7.6-1.6.6.7-.4 1.6-.6m-10 10.7-1.3.8q.3-.9 1.3-.8m94 5.1-1.3.7q.3-.8 1.3-.7m-113.2 3q-.5.9-1.4.8.7-.6 1.5-.7m-3.3 1.9q0 1-1 1zm94.3 2.2q-.4.7-1.5.8.7-.6 1.5-.8m22 21.7c-.2.8-1.5 1.8-2 .8q.6-1 2-.8m-232.4 6c0-.9 1.5-1.6 2-.7q-.8.9-2 .7m36.3 12q-.6.6-1.5.7.6-.8 1.5-.8M190 421q0 1-1.2.8zm77.4 14.2q-.6.7-1.6.5.7-.4 1.6-.5m-103.3 1q-.4.7-1.3.7a2 2 0 0 1 1.3-.7m88.3 10.8q-.6.6-1.4.7.4-.8 1.4-.7m-3 1.9-1.5.8q.7-.7 1.5-.8m-3 2q-.7.6-1.6.6.7-.5 1.6-.5m15.7 23a2 2 0 0 1-2 1q.5-1.2 2-1m-66 2.3q-.4.8-1.3.6a2 2 0 0 1 1.3-.6M170 491.2q-.1 1-1.2.8z"/><path fill="#ecc00f" fill-opacity=".2" d="M130.9 410q0 .9-.8 1.4l-11.8 7.5q-.4-.9-1.4-1.3 6.8-4.2 14-7.6"/><path fill="#ebc20e" fill-opacity=".2" d="M161 423q-.7 1-1.6 1.8l-11.2 7a2 2 0 0 0-1.3-1.3l12.1-6.9q1-.5 2-.6"/><path fill="#f4c811" fill-opacity=".5" d="M356.4 334q-.6.6-1.4.7.5-.7 1.4-.7m36.7 18a4 4 0 0 1-3.1 2 3 3 0 0 1 3-2m-9 18.3q-.4.6-1.4.6zm-4.7 9.8-1.4.7q.4-.9 1.4-.7m-26 14.9q-.6.6-1.4.7.4-.8 1.3-.7M133 409c.5-.8 2-3 3-1.6q-1.2 1.5-3 1.6m59.3 13.1-1.3.7q.3-.9 1.3-.7m-29 18.9q-.7.6-1.5.8a2 2 0 0 1 1.5-.8M131 455.2q-.3.9-1.3.7zm106.3 1.9-1.4.7q.5-.7 1.4-.7m-103 3q-.7.5-1.6.5.7-.5 1.7-.5m73.6 9q-.3 1-1.3.8zm-42.9 14q.5-1 1.5-1.2c1.2.7-1 1.3-1.5 1.2"/><path fill="#b47560" d="m341.2 209.3-.5.5q-.6 1-1.5 1.9l-8.2 5q-1 .3-1.7-.4 5-3 9.8-6.7 1-.6 2.1-.3"/><path fill="#eac10d" fill-opacity=".2" d="M266 456c-1 2.1-7.7 5.4-9.7 7q-.4-1-1.4-1.4c2.4-1 8.9-5.8 11-5.6"/><path fill="#cc9c21" fill-opacity=".2" stroke="#cc9c21" stroke-opacity=".2" stroke-width=".5" d="M257.8 339.3c.4 1.2-6.9 5.6-8.1 6.4q-.4 0-.7.3 0-.9-.8-1.2 4.3-2.5 8.4-5.6z"/><path fill="#f2c418" fill-opacity=".9" d="M257.8 339.3q-.6-.3-1.2 0-4 3-8.4 5.5-3.2 1.8-6.2 3.9l-1 1.1-1.3.4q-.6 1.8-2 3l-2.7-3.1 23.6-13.8q1.8-1 3.8-1.6c.5-1 3.4-3 4.3-2.3-2 1.8-2.2 3.3-5 4-1.5 1.7-1.4 2.2-3.9 2.9"/><path fill="#f5c80f" fill-opacity=".2" stroke="#f5c80f" stroke-opacity=".2" stroke-width=".5" d="m375.7 333 1.2.3q-4.6 3.4-9.9 6.1-1 .6-2.1.5.6-1 1.7-1.7z"/><path fill="#f4c811" fill-opacity=".4" d="M129 378q-1 2-3.1 2.2.9-2 3-2.2m236.8 4q0 1-1.1 1zm-94.5 1-1.3.8q.4-.8 1.3-.7m94 5.1q-.6.5-1.4.7.5-.7 1.5-.7m-54.3 31a4 4 0 0 1-3 1.8q.9-2 3-1.9m-141.7 18-1 .8q0-1 1-.9m86 7.8-1 1.1q-.1-1 1-1m-115 11.2-1.1 1q0-1.2 1.2-1m81.7 5q-.3 1-1.3.8.6-.5 1.3-.7m-103 1q-.4 1-1.3.8zm62.3 32-1 .8q0-1 1-.8"/><path fill="#e6ba0f" fill-opacity=".2" d="M257 477.1q-.3.8-1 1.2-3.8 2.1-7.3 4.8l-2 .5q0-.7-.8-1l9-5.3q1-.4 2-.2"/><path fill="#f4c810" fill-opacity=".4" d="M339.1 336.2q-.5.8-1.4.8zm-34.7 28-1.4.5q.5-.7 1.4-.6m101 .8q-.6.6-1.3.8.2-1 1.2-.8m-7.1 4.1q-.7.5-1.3.6.4-.7 1.3-.6m-117 5.2q-.7.6-1.7.6.7-.6 1.7-.6m96.9 0q-.6.8-1.5.6zm-6 4q-.5.7-1.5.7.8-.6 1.5-.7M259.9 439q-.3 1-1.3.8zm-103 1.1q-.3.9-1.3.7zm84.1 10.1q-.4.8-1.3.6.6-.4 1.3-.6m-103.1.9q-.3.9-1.2.7zm105.4 1.8q-.7.6-1.5.8.6-.6 1.4-.8M215 465.2q-.4.9-1.4.7zm-26.2 15q-.3.9-1.2.7.5-.5 1.2-.6m32.7 20.6.5 1.2-1 .2q0-.9.5-1.4"/><path fill="#e3ba0f" fill-opacity=".2" d="M403.1 393.7h.9q.1.7-.4 1.3c-2 1-7.4 5.2-9.5 5q.1-.9.9-1.3z"/><path fill="#d4b10e" fill-opacity=".2" d="M276.9 430.1c-1.3 2.2-5.5 4.2-7.6 5.7q-.1-1.2-1.4-1.3c2.1-.7 7-4.9 9-4.4"/><path fill="#f6d00f" fill-opacity=".2" stroke="#f6d00f" stroke-opacity=".2" stroke-width=".5" d="M220.9 434c-.8 2-6.2 5-8 5.8a1 1 0 0 0-1-.6 3 3 0 0 1 1.4-1.4q3-1.6 5.7-3.3a4 4 0 0 1 1.9-.5Z"/><path fill="#e4bd0d" fill-opacity=".2" d="M205 413a19 19 0 0 1-8.3 5.7q0-1-.8-1.1c2.3-1 6.8-4.6 9.1-4.6"/><path fill="#f5c50f" fill-opacity=".3" d="m319.1 413.3 1 1c-2.3 1-6.8 4.8-9 4.7q1-1.7 2.8-2.6c1.4-.6 3.9-3 5.2-3"/><path fill="#d8b015" d="M172.1 319q-4 1.3-8.2 2.3c.3-2 7.6-5.3 8.2-2.3"/><path fill="#d7b114" fill-opacity=".9" d="M122.1 329.3h3.8c0 1-6.9 2.4-8 2.7l.4-1q1.8-1.2 3.8-1.7m-6 3 1.1-.3h.7q-.6 1-1.8.8z"/><path fill="#f4c911" fill-opacity=".4" d="m127.1 329-1.2.2-3.8.1q0-1.5 1.4-1.3c1 0 3.6-.6 3.6 1m172 66q-1.2 1.6-3.2 2 .9-2.3 3.2-2m-133.2 25q-.9 1.8-3 2a3 3 0 0 1 3-2m17 5.2q-.3.8-1.2.7.6-.5 1.3-.7m205.3 16.6c-.5 1-2 2.8-3.2 1.8.3-1.2 2.2-1.5 3.2-1.9M274 450.9q-.9 2-3 2.1.9-1.9 3-2"/><path fill="#f5cc0f" fill-opacity=".2" stroke="#f5cc0f" stroke-opacity=".2" stroke-width=".5" d="M409.2 403.9q0 .6-.3 1c-1.8 1-6 4.2-7.9 4q.4-.7 1-1.2c2.2-1.1 4.7-4 7.2-3.8Z"/><path fill="#b89917" fill-opacity=".8" d="m326.1 503.2-2.8 1.7-1.3-.2q-1.1 0-2.2.3-1.5.2-2.2-1 4.3-.6 8.5-.8"/><path fill="#f5ca0e" fill-opacity=".2" stroke="#f5ca0e" stroke-opacity=".2" stroke-width=".5" d="M248.2 344.8q.8.3.8 1.2c-2 .8-6 4.3-8 3.8q.3-.6 1-1.1 3-2.1 6.2-3.9Z"/><path fill="#f6c910" fill-opacity=".3" d="m309.3 361.3-1.3.7q.3-1.1 1.3-.7m94 5-1.3.7q.3-1 1.3-.8M351 392q-.3 1-1.3.8zm-83.7 45.2-1.3.8q0-1.2 1.3-.8M260 475q-1 1.9-3 2.1.8-2.1 3-2m-76 8q-.3 1-1.3.7zm9.2 3.2-1.2.8q.2-1 1.2-.8m97 12.7-.3.9-1 .2q.3-1 1.4-1"/><path fill="#bc9c17" fill-opacity=".9" d="M362 499.3q-.7.8-2 .6a2 2 0 0 0-1.4 1h-.7q-1.4-.3-2.7-.1a2 2 0 0 1-1.5-.6q4.1-1.2 8.4-1"/><path fill="#f3c710" fill-opacity=".2" d="m321.3 354.3-1.2.8q.2-1 1.2-.8m85.6.6q0 1-1.2.8zm-74 49q0 1-1.2.8zm-151.6 25.4-1.2.8q0-1.1 1.2-.8m-29 19-1.2.8q.2-1 1.2-.8m90.6.6q0 1-1.2.8zm-71 41q-.2 1-1.2.8zm183.3 10.9h2.7c.8 1.3-3.2 2.2-2.7 0"/><path fill="#f3c90f" fill-opacity=".3" d="m347.3 339.3-1.2.7q0-1.1 1.2-.7m-23.4 6.6q0 1.1-1.2.8zm-21.6 19.4-1.3.7q.3-1 1.3-.7M265.2 384h.5q.2 1.1-1 1zm105.1 1.3-1.3.7q.3-1 1.3-.7M339 399.9q0 1-1.2.8zm5.4.4-1.2.7q0-1.1 1.2-.7M217 464q0 1.1-1.2.7zm-8.6 12.3-1.2.8q0-1.1 1.2-.8"/><path fill="#bf9d0c" fill-opacity=".1" d="M212 439.2q.5 0 .8.6l-4.6 3q0-1-1-1.3c1-.7 3.5-2.3 4.7-2.3"/><path fill="#e99f81" fill-opacity=".2" stroke="#e99f81" stroke-opacity=".2" stroke-width=".5" d="M210 222c-.8 1.7-3.4 3-5 4l.1-1.3q2-2.4 5-2.6Z"/><path fill="#935e37" fill-opacity=".9" d="m305.9 311.2.8.9a8 8 0 0 1-5 3q1.8-2.2 4.2-3.9"/><path fill="#c3866b" d="m360 144.2-6.2-1.5c1.8-1.6 5.3-1 6.2 1.5"/><path fill="#f2c911" fill-opacity=".2" d="m295.3 369.3-1.2.7q0-1.1 1.2-.7m94 5-1.2.8q0-1 1.2-.8M336 401.9q0 1-1.2.8zm-144 18q0 1.3-1.2.8l1.2-.7m-26 15q-.2 1-1.2.8zm-42.6 32.4-1.2.8q0-1 1.2-.8m88 7-1.2.8q.1-1 1.2-.8m-13.4.6q-.2 1-1.2.8z"/><path fill="#a8831e" d="M353.1 321q-2.7.2-5.3-.3 2-2.4 4.6-.6.6.3.7 1"/><path fill="#f5c912" fill-opacity=".2" d="M403.9 357q0 1-1.2.7zm-74 48.9q-.1 1-1.2.8zm-106 54q-.2 1-1.2.8zm-103 1q0 1.1-1.2.8zm15 37.2 1-.4 1.4.5c-.4 1-2 1-2.4-.1"/><path fill="#f2c612" fill-opacity=".2" d="M349.9 328.9q0 1-1.2.8zm-29 19q-.1 1-1.2.8zm-29 19q0 1.1-1.2.8zm-22.6 17.4-1.2.7q0-1.1 1.2-.7m94 5-1.2.8q0-1.1 1.2-.8m-149 83-1.2.8q0-1.1 1.2-.8"/><path fill="#8f5e2b" fill-opacity=".6" d="m172 326-.7 1.4q-.3-1 .7-1.4m-.7 1.4q-1.3.5-1.4 1.7l-1.7.2q.6-2.5 3.1-1.9"/><path fill="#f5c710" fill-opacity=".3" d="m283.3 376.3-1.3.7q.3-1.1 1.3-.7m-108 57-1.3.7q.1-1 1.2-.8M210 468q-.3 1-1.3.8zm-92.8 3.2-1.2.8q.3-1 1.2-.8m79 13q-.4.5-1.2.8.3-1 1.2-.8"/><path fill="#86721c" fill-opacity=".9" d="M176.6 503.2c1.4-.2 4.5-.4 5.5.8l-.8.1q-1.2-.3-2.6-.1-1.4.3-2-.8"/><path fill="#f6c812" fill-opacity=".2" d="m340.3 343.3-1.2.8q.2-1 1.2-.8m-156 84-1.2.8q.1-1 1.2-.8m65.6 17.6q-.2 1-1.2.8zm-94.6 1.4-1.2.8q.2-1 1.2-.8m62 24-1.2.8q0-1 1.2-.8"/><path fill="#f4c811" fill-opacity=".5" d="M290 506q2.7-.5 5.3 0c-.1 1.4-5.8 1.6-5.3 0"/><path fill="#f4c713" fill-opacity=".3" d="M295 365q-.3 1-1.3.7zm-18.7 15.3-1.2.8q0-1 1.2-.8m101 1-1.3.7q.3-1 1.3-.7M342 397.9q0 1-1.2.8zm-136.6 80.4-1.2.8q.2-1 1.2-.8"/><path fill="#d5985a" d="M261.7 388.7q.5 2.8-2.3 3z"/><path fill="#cdaa15" fill-opacity=".7" d="M149.7 500q2.3-.3 4.4.8c-1.3.1-3.7.7-4.4-.8"/><path fill="#71611f" fill-opacity=".8" d="M99.4 342q-.4 1-1.6 1 .5-1 1.6-1m-1.6 1q.3 2.2-2 1.8a3 3 0 0 1 2-1.9"/><path fill="#87721c" fill-opacity=".9" d="M201.7 505.5c1.2-.5 3.7-1.2 4.3.4q-2.2.6-4.3-.4"/><path fill="#f6d80b" fill-opacity=".1" stroke="#f6d80b" stroke-opacity=".1" stroke-width=".5" d="m166.2 330.9-.2 1q-1.3 1-3 1 1-2 3.2-2Z"/><path fill="#f4c911" fill-opacity=".4" d="M330.4 349a3 3 0 0 1-1.5.7q.5-.7 1.5-.7m50.8 23.2q-.5.7-1.5.7zm-53.8 38-1.3.5c-.2-1 .8-.5 1.3-.6m-87.1 45-1.5.6q.6-.7 1.5-.7"/><path fill="#f3c710" fill-opacity=".3" d="M330 342q-.3 1-1.2.8zm24 48q-.2 1-1.2.8zm-202 53q-.3 1-1.3.7z"/><path fill="#87721b" fill-opacity=".9" d="M133.7 497.1q1.7-.2 3.2.6l-1 .4q-1.3 0-2.2-1"/><path fill="#8b5349" d="M329.9 156.3a1 1 0 0 1-.9.7q.3-.5.9-.7m20.3 2-1.2.7q.4-.6 1.2-.6M240 264q-.4.6-1.2.7z"/><path fill="#995f51" d="m345.8 158.1-.6.6q0-.5.6-.6m-.9 3q-.2.6-.8.8.3-.6.8-.7m-148 82-.8.6q.3-.5.8-.6"/><path fill="#996f5f" fill-opacity=".5" d="m201.3 227.3 1.6-.1q-.6 1-1.6 1.4z"/><path fill="#a56757" fill-opacity=".5" d="M301.9 300.2v1c0 1-1.3 1-2 1.1v-1q1.1 0 2-1"/><path fill="#f4c712" fill-opacity=".2" d="M178.7 504q1.5-.1 2.6.1c-.5 1-2.3 1.1-2.6-.1"/><path fill="#eec411" fill-opacity=".5" d="m303 341.8.7.1q0 1.5-1.5 1.4-.1-1 .8-1.5"/><path fill="#f5ca12" fill-opacity=".1" d="M319.8 505q1.1-.3 2.2-.3c.3 1.5-1.7 1.7-2.2.2"/><path fill="#987f1a" fill-opacity=".5" d="M411 481q0 1-1.2.9.3-.9 1.2-1m-1.2.9q0 1.2-1.2 1.2.5-.9 1.2-1.2"/><path fill="#d78f72" fill-opacity=".5" stroke="#d78f72" stroke-opacity=".5" stroke-width=".5" d="m298 303 1 .3c-.4.4-1.4 1.3-1.9.3q.2-.6.8-.7Z"/><path fill="#874f46" d="M192 245.9q-.4.7-1.2.7zm13.9 70.2 1.2.3-1.3.7z"/><path fill="#ddb514" fill-opacity=".2" stroke="#ddb514" stroke-opacity=".2" stroke-width=".5" d="M300.8 344q0 1-1.1 1 .3-1 1.1-1Z"/><path fill="#965c4f" d="M192.9 248.2q-.2.6-.8.6.3-.4.8-.6"/><path fill="#91584c" d="m196.3 246.2-1.3.8q.4-.6 1.3-.8"/><path fill="#c39e17" fill-opacity=".3" stroke="#c39e17" stroke-opacity=".3" stroke-width=".5" d="m420.6 422.7.1 1.1-.6.2q0-.8.5-1.3Z"/><path fill="#eec413" fill-opacity=".5" stroke="#eec413" stroke-opacity=".5" stroke-width=".5" d="M414.1 478.7q0 1-1 1.3 0-1 1-1.3Z"/><path fill="#f1c610" fill-opacity=".4" stroke="#f1c610" stroke-opacity=".4" stroke-width=".5" d="M413.2 480q-.4 1-1.5 1.2.3-1 1.4-1.2Z"/><path fill="#8b751b" fill-opacity=".7" d="M392.2 492.4q-.5.4-1.1.4.4-.4 1-.4"/><path fill="#f2cb14" fill-opacity=".2" stroke="#f2cb14" stroke-opacity=".2" stroke-width=".5" d="m116 332.2.1.6-1.3.4q.1-1 1.3-1Z"/><path fill="#f4c910" fill-opacity=".2" stroke="#f4c910" stroke-opacity=".2" stroke-width=".5" d="m389.8 493.1 1.3-.3q-.2 1-1.1 1z"/><path fill="#e9bf13" fill-opacity=".3" stroke="#e9bf13" stroke-opacity=".3" stroke-width=".5" d="m128 334.2 1.1-.2q-.3.6-1 .7z"/><path fill="#945a4e" d="M291.9 141.2q-.2.6-.8.7z"/><path fill="#e7be12" d="m303.8 341-.1.9h-.7q.1-.7.8-1"/><path fill="#e7be13" fill-opacity=".5" stroke="#e7be13" stroke-opacity=".5" stroke-width=".5" d="M302.2 343.3q-.6.4-1.4.6.5-.9 1.4-.6Z"/><path fill="#262626" stroke="#262626" stroke-width=".5" d="M414.1 478.7q-1 .3-1 1.3-1 .2-1.4 1.2l-.7-.3q-.9.1-1.2 1-.8.3-1.2 1.2a130 130 0 0 1-17.5 9.7l-1.3.3q-3.9 1.5-7.8 2.6c-6.6 1.8-13.2 2.3-20 3.6q-4.1-.4-8.3 1a689 689 0 0 1-36 3.7c-7 .8-16 .7-22.4 2q-2.6-.5-5.3 0-11.8.2-23.7 1a9 9 0 0 0-3.6 0q-6.6-.1-13.3.1h-3.6l-18.5-.3q-1.2-1.2-3-.7-.4.1-.6.7c-4.6-1-12.6-.8-17.7-.9-.6-1.6-3-.8-4.3-.4q-9.7-.9-19.6-1.5c-1-1.2-4-1-5.5-.8l-22.5-2.4q-2-1.1-4.4-.8-5.7-1.2-11.4-1.8l-1.4-.5q-1.4-.7-3.2-.6c-53.5-8.3-58.5-54.3-55.5-99.6a363 363 0 0 1 4.1-26.4q1-.9.9-2.2c-.3-7.8 6.8-19 12.6-24.1q2.3.5 2-1.9 1.2 0 1.6-1a92 92 0 0 1 16.7-9q1.2 0 1.8-1c1.1-.2 8-1.6 8-2.7l1.2-.1c.9-.3 5.8-.2 4.3-2l-3.9-.2c-23-5.5-41-25-40.3-49.4 0-8.9 4.7-9.3 12.2-9.7 21.3-4.1 26.4-29 28.4-47.3 2.9-41.2-.5-85.8 9.2-126 17.6-74.8 101-109.8 169.7-79.8a128 128 0 0 1 58.6 50.6c28.2 46.4 10.7 104 18.9 155.2 4.3 30.8 9.2 40.7 39.2 50.6q.6.5.9 1.2c3.2 21.7-10.9 41.5-30 50.5q-5 2.3-10.3 3.9l.3.5c47.6 6.7 51.8 55 49.5 94.3-1.4 26-.8 37.4-19.7 57.2Zm-176-463q-1.2-.9-2.6-.7c-5.7 1.3-12.5 1.8-17.4 5-6.3-1.1-27.7 13.4-33 17.8-6 4.7-27 27-26.9 33.8-2.7 1.4-4.4 6.8-5.3 9.5-1 .6-5.5 13.9-5 16q-1 1-.8 2.6c-1.7 3.6-1.9 7.4-2.6 11.3q-.2.8.6 1-1.2 1.3-1.1 3-1.2 6-.8 12c-.2 1.1-1.2 5.4.8 5.1-2 2.4-1 12-.8 15.2q.3.6.9.3l7.6-1.6q1 0 1.1-.8 4.7-.8 9.3-2c.6.7 4-2 5-2.1q0 1.3 1.3 1c2.7-.7 6.2-.8 8.4-2.5q2.6.4 5.2-.3c34-6.3 70.8-13.5 93.7-42 5-5 9.8-19 19-15.4 2.2.7.7 5 2.3 6.1q.2 1 1.1 1.1-1.6 1.3-1.2 3.4c.2 2.9 1 8 2.2 10.6q-.3 2.3 2 1.8-1.5 1.5-.6 3.2c1.3 2.7 2.9 7.2 5.5 9a3 3 0 0 0 2 3c.9 2.2 6.9 8 9.6 7.9-.5.7 1 1 1.4 1 .2 1.9 9.8 5.5 11.7 6.7 3.5.9 8 3.2 11.6 3.3.6 1 8.5 3.2 9.7 2-.3 1 1 1.4 1.8 1.7l6.2 1.5q3.7 1.2 7.6 1.9 2 .4 2.1-1.7l1-12.9a1 1 0 0 0-.8-.6c1.3-1.4.6-4.3.7-6q0-1.7-1.6-1.8c2-2.4.9-7.4 0-10.1l.1-2q-.9-5-2.4-9.4 0-1.5-.6-3.2 0-1.1-1-.7c.4-1.7-1.4-8.5-3.2-8.8.6-1.5-1.5-6.4-3-6.9.5-1.7-2.7-7.5-4.3-8 .5-1.4-2-5.3-3.7-5.2.8-2-3.4-6.7-5-7.8a4 4 0 0 0-2.9-3c.3-1.9-4.5-6.4-6.1-7-.6-1.9-3-4-4.8-4.7A49 49 0 0 0 315.4 34c.3-1.5-3.2-2.8-4.4-3.1-1.1-1.4-8.1-5.3-10.1-5q-.8-1.7-2.9-1.7c-2.6-1.2-9.5-5.4-12.2-3.3 1.5-1.5-1.3-2.3-2.6-1.5-1-1.8-11-4.2-13.2-2.6q0-1.6-1.6-1.6c-3 0-7.3-1.3-10.2-.8-5.8 0-15-1.2-20.2 1.3Zm-31.1 129q-1-.6-2.2-.4-6.7 1.5-13.6 2.4-9 1.3-18.1 2c-3.8-1-8.1 0-11.9.5-12.9 1.5-19.6 11.8-18 24.3a2 2 0 0 0 1.2 2c-1.3.7 0 1.9.8 2.4 0 3.7 3.7 8 7 9.3.1 1.6 2.5 1.2 3 0h1.6q-.7 1-1.5 1.7c-1 2.4 8.7 2.5 9.8 4.5-.6 1 .5 3.4.8 4.6.3 1.4 2 9.8 3 10l.5 2.3c1 2.5 2 8 3.9 9.8q-.1 1.6.4 2.8 3.7 7.9 7.6 15.4.4.8 1.3.7l.5 1c-.3 2.1 3.3 8.4 5.7 8.3q-.5 1 .3 1.8 2.1 4.5 6 7.9 1 1.8 2.7 3.2 3.2 3.8 7.1 6.8c1 .6 4 4 5.1 4a24 24 0 0 0 8.7 5q1 .9 2.2 1.3l1-.2c.7 2.1 12.7 5.6 15.1 5.6q1.2 1 2.7 1 9 1.6 18.3.8 3 1 5.8.1 1.2.2 2.4 0a86 86 0 0 0 57.6-32.3c.4-1.3-.5-1.1-1.4-1.7 7.5-3.6 11.2-15 15-21.8q.6-3.4 1.8-6.7 2.1-5.7 3-11.7 0-1.5-1.5-1.6l.5-.5c2.8-1.7 1.8-8 2.4-10.9 1.1-8.1 22.3-6.9 23.4-17.7 1.4-1.4 1.7-4.9 1.6-6.8 1.3-2.7-.6-7.5-1.8-10a7 7 0 0 0-1.8-3.2c-1.4-2.8-4-5.7-7-6.7a8 8 0 0 0-3-2c-2.2-1.1-9.7-4.6-11.9-3.2q-1-.6-2-.8a5 5 0 0 0-2.7-.9c-4.5-.6-22-6.2-25.4-6q-.8-.4-1.8-.4 1-.7.2-1.6L304 135q-.6-1.2-1.7-1.7l-1-.7c-1.8-1.1-6-7.7-7.6-7.6a4 4 0 0 0-2-4c.2-1.6-2.6-6.3-3-8.3q-.3-.6-.8-.7c0-.4.3-2-.5-1.8l-.2-1.2-1.4-8.3q-.4-.5-1-.1c-22.6 23.6-47.3 34.2-77.8 44.1ZM351 226a12 12 0 0 0-2 6 117 117 0 0 1-36.8 44.4q-.5.4-.6 1c.5 13.1 14.2 37.5 27.8 39.6-.8 1.2 5.4 2.8 6.6 2q.5 1.2 1.8 1.7 2.6.5 5.3.4c4.8 0 7.1.3 11.3-2q-.3 1.2 1 1.3c5.2-.7 12.4-1.3 16.5-4.5q1.5.3 3.1-.3c15-5.7 26.6-17 26.8-33.8.4-2.5 1-5.5-2.7-4.7-7.2-1.7-14.8-6.8-20-9.4q.3-1.1-.7-1.6l-7.4-10c-1.1-2.2-2.6-7-4.3-8.5.4-1.8-1.1-4.9-1.9-6.5-.3-1.4-1.8-9.7-2.6-10.1q-.2-1-1.2-1.1c2.2-2.1-.2-6.7-.1-9.4a1 1 0 0 0-1-.6q1.2-1.6.6-3.6 0-1.8-1.5-2.5c1.6-1.4.2-16.3 0-19.3q-.5-.7-1.3-.4a54 54 0 0 1-11 5.1q-.7.4-.7 1.2-1.5 13-5 25.6Zm-208.7-19.7q-1 3.6-1.1 7.2-.2 1.2.9 1.5c-1.5 1.4-2.5 10.2-2 12q-1.6 2.2-1 4.9c-1.6 3.1-3 9.5-4 13.2a10 10 0 0 0-1 2.7c-1.5 3.7-7.2 12.4-8 15.4q-5.1 4.5-10.8 8.5a39 39 0 0 1-11.5 4.7l-1.5 1.6c-.5-1.4-2.5-1.1-2.3.5.4 7.8 3.3 17.8 8.3 23.9.8 1.2 1.9 3.5 3.7 2.9.3 4 14.6 11 18.5 10.2 2.8 2.2 12.5 4.4 15.6 2.5-1.3 2 1.6 2 2.7 1.5 1.8 1 14 3.1 15 1.8q4.2-1 8.3-2.3c19.2-4.4 24.6-22.8 28.7-39.6q.1-.8-.4-1.4c-7.3-4.7-13.1-10.6-19.6-16.3q0-.7-.7-.8l-10.4-14.4c-.4-1.5-2.2-5.7-3.6-6.3-.4-2.9-2.8-7.5-4.3-10.2q-1.2-5.3-3.1-10.4.2-1.5-.7-2.6l-1.1-9.5q0-1.2-1.1-1.6c.7-1.7 1.3-6.7-1.9-6q0-.6-.5-.7-4.7-1.5-9-4c-1.8-.7-2.3 1-2.2 2.4zm42.8 32.8q-.3.6-1 .7zm14.6 78.9q1 1.8 3 2.1c1.2 2 5.6 4.4 7.3 6.2l2.6 2a238 238 0 0 1 26.8 27l5.6 7.2q.6.4 1.2.3 0 1 .5 2l9.9 15q5.2-8.5 11.2-16.6 20.7-26.8 48.5-46.2c.8-1.8-3-2.9-4-3.6l-2-1.6c-.4-1-2.2-1.1-2.4 0l-1.2.3-.8-.9c.9-.6 2.9-1.5 2.9-2.8l-4.6-9.4c-1.1-2.8-1.9-7.3-3.7-9.6.2-1.6.3-6.7-2.7-5.1-17.8 8.5-31 9.2-50.2 10.2a248 248 0 0 1-34-8.6q-1.2-.7-2-1.5l-4.4 12.3q-4 10.6-12.9 17.7a20 20 0 0 0 5.4 3.6Zm-25.5 7-1-.2q0-.8-.6-1c-10 1.3-17.5 7-27.7 7.3q-8.2-.3-15.8 2.9l-1 .2c-24.8 5-35.7 26.7-36.1 50.2q-.9 1.6-.6 3.4c-.2 3.2-.8 8.1 0 11.1l-.4 1.2v3.8q0 5.7.3 11.4v5.6c.2 3.4-.3 8.2.7 11.4q-.4 1.4-.1 2.7-.5 5.8 1.3 11.3 0 2 .9 3.9 1.4 4.9 4.1 9.2.5 1.6 1.5 2.7 2.8 4.5 6.4 8.2c1.4 1.2 3.7 4.4 5.6 4.4a56 56 0 0 0 18.3 11.6c1.7.8 4.9 2.8 6.7 2.5 2.7 2.7 22.2 7 26.5 7.4q.3.8 1.3.8l11.2 1.8c5 .4 9.5 1.7 14.6 1.4.6 1.1 8.1.8 9.7 1q7 1 14.3.8l6.7.2 1-.2q7.7 1 15.2-.2c1.2 1.2 4.4.4 5.9.4a466 466 0 0 0 35.2-1.5q5.4.3 10.6-.7l1-.2q10.5-.2 21.2-1.7 3.9.1 7.6-.8 1 .9 1-.2 10.9-.4 21.5-2.1 6.3-.5 12.5-1.2c7.9-1.4 17.8-1.4 25.2-3.8l1 .3q1 .9 1-.2c15.2-1.7 31.7-18 35-32.5q1.4-1.5 1.2-3.7c2.4-4.3 3-11 3.6-16a50 50 0 0 0 0-14v-1.2q.4-1.6-.5-2.7a208 208 0 0 0 1.5-24.7l-.7-8.8q0-1.3-1.1-1.4 0-.9-.8-1.2c2.4-2.2.3-6.7-.2-9.4q0-.9-1-1.3.6-2.3-1-4c-.2-2.4-2-7.5-4.1-8.5.6-1.5-2.6-6-3.7-6.4a39 39 0 0 0-15.4-13.6c.1-1.4-4.2-3-5.3-3.6-2.7-1.1-8.6-4.5-11.5-3.8l-1.2-.4q.1-.5-.4-.8a96 96 0 0 0-11.5-2.9c-3.4-.4-8.6-2-12-1.2q-.3-.9-1.2-.9c-3.7-.3-9.3-2.3-12.8-2-.9-1.2-3.3-1.1-4.7-1.4-1.3-.5-6.3-2.6-7.4-2.3a243 243 0 0 0-22.7 20.4q-1 .4-.8 1.5-.9-.3-1.4.6-.9.3-1.1 1a18 18 0 0 0-4.9 5c-10.3 9.7-22 22.2-29.6 34.1l-.5 1q-1 .6-1.3 1.7a6 6 0 0 1-1.7 2l-2.3 3c-1.5 1.5-3 5.5-5.5 4q-6-8.2-11.5-16.6c-2.9-4.7-23-28.3-26.6-29q.2-1.1-.5-2l-10.4-9-.7-1.3c-2.3-1.1-8.3-7.9-10.3-7.9a3 3 0 0 0-1.5-1.9c-2.4-1.8-5.8-5.5-8.7-6.4.4-1-1.6-.6-2-.4z"/><path fill="#86711c" fill-opacity=".9" d="M227.3 506.8q-1.8.3-3.6 0 0-.6.7-.7 1.6-.4 2.9.7"/><path fill="#8d771b" d="m318.7 497.3 1-.2q0 1-1 .2"/><path fill="#d1ac15" fill-opacity=".8" d="m389.8 493.1.2.7q-2.1 1.5-4.7 2.3-1.5-.6-3.2-.4z"/><path fill="#f4c812" fill-opacity=".3" d="M364.9 340q-.5 1.3-2 1 .5-1.4 2-1m31.4 30.3-1.3.7q.3-1 1.3-.7M146.1 384q-1 2-3.2 2.1a3 3 0 0 1 3.2-2m198.8 12q0 1.1-1.2.7zm-160 28q0 1.1-1.2.7zm-6.6 7.3-1.2.8q0-1 1.2-.8m83.6 6.7q0 1.1-1.2.7zm-103 1q0 1.1-1.2.7zM140 450q-.3 1-1.3.8zm9.3.3-1.2.8q0-1 1.2-.8M113.9 465q-.2 1-1.2.7zm6.4 4.3-1.2.8q0-1.1 1.2-.8M191 479q-.1 1-1.3.8zm11.3 1.3-1.2.8q.2-1 1.2-.8M382 495.7q1.6-.2 3.2.4c-.7 1.2-3.4 1.6-3.3-.4"/><path fill="#a38819" d="m380 490.3 1-.2q-.3 1-1 .2"/><path fill="#834d45" fill-opacity=".8" d="M198.2 229.2q.7-.4 1.6-.5c0 1.6-1.8 1.8-2.8 2.8q-.6 1.5-2.3 1.6a66 66 0 0 1-10.6 6.7l-1 .2-.5-1q.4-.7 1-1l5.3-2.5a7 7 0 0 1 3.7-2.4q.5-.4.5-1c1-.4 3.7-.3 3-2q1.2-.3 2.1-1"/><path fill="#f4c811" stroke="#f4c811" stroke-width=".5" d="m306.7 312 1.2-.2h2.4l2 1.6q-1.3 1.9-3.4 2.9-12 7-24.4 13.8-.4-.6 0-1.1a308 308 0 0 1 17.2-13.9c1.9-.3 4-1.4 5-3Zm-101.1 2.6.3 1.5v1q-1.8 1.5-3.1 3-2-.4-3.1-2.1 2.6-2.4 5.9-3.4Zm7 13.7-2.6-2q6.1-3.1 12-7.2 1-.5 1.7.3-5.7 4.4-11 9Zm120.5-4.6c-5.8 2.6-22.4 14.5-29.4 18.2l.1-1q10.4-10.4 22-19.4c1-.4 6 1.7 7.3 2.2Zm-149.4-2c2.9.8 6.3 4.5 8.7 6.3q-7.1 5.4-14.8 10.3-.8.6-1.4 1.5c-.8.7-2.8.3-3 1.6q.9.6 1.8.2 8.6-5.6 17.6-10.5.9-.3 1.3-1.2c2 0 8 6.8 10.3 8a5 5 0 0 0-2.2.7l-12.8 9.1q-3 2.1-6 3.6c1.7 1.5 2.8-.8 4-1.5l16.8-9.5q.8-.4.9-1.2l10.4 9-17.4 11.3q-.8.5-.8 1.4a9 9 0 0 0-5 2.9c1.1 1.6 4.4-1.6 5-3a5 5 0 0 0 2.5-.6l15.1-8.7q1-.4 1.1-1.3c3.5.7 23.7 24.3 26.6 29q5.5 8.4 11.5 16.5c2.5 1.6 4-2.4 5.5-3.8q2.8-.4 2.3-3.1a6 6 0 0 0 1.7-2c1 1.2 3.5-1.5 4.7-1.7l1.2-.7 2-1.2 3.8-2 1.2-.8.8-.5q.6-.2 1.2-.8a111 111 0 0 0 12-7 38 38 0 0 0 5-2.7l.7-.5 1.3-.8 5-2.7.7-.6q.8-.1 1.3-.6l5-2.8 7-4.3a29 29 0 0 0 5-2.7l.6-.5q.8-.2 1.5-.8a117 117 0 0 0 10.8-6q.7-.3 1-1a40 40 0 0 0 5.1-2.7l.6-.6 1.5-.7a77 77 0 0 0 6.9-3.9l5-2.8.7-.6q.8 0 1.4-.7 1.9-.9 3.5-2.3.8 0 1.4-.6a6 6 0 0 0 2.5-1.9q6 1 11.5 2.9.6.3.4.8l-9 5.3q-1.2.7-1.8 1.7-1.4-.2-2 1-2 .3-3 2-1.2 0-2 1l-2 .7q-2 1.4.4 1.2a7 7 0 0 0 1.7-1.9q1.4.5 2-1 2.1.2 3-2 1.5.5 1.9-1 1 .1 2.1-.5 5.2-2.7 10-6.1c2.8-.7 8.6 2.7 11.4 3.9a5569 5569 0 0 0-71.8 46.1l-11.7 7.3q-.8.5-.8 1.4a7 7 0 0 0-5 3q-2.4-.3-3.2 2-1.2-.3-1.8.7c.5 1 1.7 0 1.8-.7q2-.3 3.2-2a6 6 0 0 0 5-3q1 0 2-.5l11.6-6.8 76-44a39 39 0 0 1 15.4 13.6q-1.2-.2-2.2.6l-1.2.8-1.8 1.2-1.2.8q-9.4 6.2-18.5 12.6l-1.5.6-1.5 1.3-1.5.7-1.5 1.3-1.6.7q-.8.6-1.3 1.4a3 3 0 0 0-1.7.6l-1.4 1.4q-.8 0-1.5.7-.8.4-1.6 1.2-.7.2-1.5.8t-1.8 1l-1.1 1-2 1-1 .9-1.9 1.2-1 1q-1 .3-2 .9l-1.2 1-1.6 1-1.2.8-3 2-3 2-1.9 1.1-1.2.8-1.8 1.2-1.2.8-1.8 1.2-1.2.8-1.8 1.2-1.2.8-1.8 1.2-1.2.8-1.8 1.2-1.2.8-9.6 6.6c-1.4 0-3.8 2.5-5.2 3a8 8 0 0 0-2.9 2.7q-2.2 0-3 2a2 2 0 0 0-2 .6c.6 1.1 2 .4 2-.7q2.1-.2 3-1.9c2.3 0 6.8-3.8 9-4.6l5.3-3.1.7-.6q.8-.1 1.4-.6a18 18 0 0 1 3.6-2.1l1.3-.7a49 49 0 0 0 5.5-3.5q.8-.2 1.5-.7l5-2.8.6-.6q.8-.1 1.4-.7l5-2.7.7-.6q.8 0 1.3-.7l5-2.7 5-3 .6-.5q.8-.2 1.5-.7l5-2.8.7-.6 1.2-.6 3.7-2 1.3-.8.7-.5q.8-.2 1.4-.7 1.8-1 3.4-2.3a2 2 0 0 0 1.5-.8 38 38 0 0 0 5-2.7l.7-.5 1.3-.7 5-2.8.7-.6q.7-.1 1.3-.6l5-2.8.8-.5q.7-.2 1.2-.8 2-.9 3.5-2.2.9 0 1.5-.7l2.5-1.4c2.1 1 3.9 6.1 4 8.5q-.7 0-1.5.5l-43.6 28.6-11.8 7.3q-.7.5-.7 1.5c-2-.2-4.2 1.3-5.3 3q-2-.2-2.9 1.5c1 1 2.7-.6 3-1.6 1.9.2 4-1.5 5.2-3a4 4 0 0 0 1.8-.5q6-3.3 11.7-6.8 22.8-13 45.3-26.5.8.4.9 1.3c.4 2.7 2.6 7.3.2 9.4q-1.2.3-2 .8a144 144 0 0 1-14 9l-8.1 5q-.8.4-.9 1.2a3 3 0 0 0-3 2q-1.4-.2-2 .8c.5 1 1.8 0 2-.8q2-.2 3-2c2.1.3 7.5-3.8 9.5-4.9q.4-.6.4-1.4 1 .4 2 0 6.3-3.7 12.7-7.2a2 2 0 0 0 1.2-1.3q1.1 0 1.1 1.4l.7 8.8q-6 3.5-11.8 7.3-.6.4-.7 1.3c-2.5-.1-5 2.7-7.2 3.8a3 3 0 0 0-1 1.3c-1.8 0-3.8 1.3-5 2.6 1.1 1.4 4.4-1.5 5-2.6 2 0 6.1-3.1 8-4l7.5-4.8 5.2-2.4q0 11.1-1.5 22.2c-6.7.7-23.8 18-31.7 21l-.3.8c-1 .4-2.9.6-3.2 1.8 1.2 1 2.7-.9 3.2-1.8 2 .3 2.2-.6 3.7-1.6q14.1-8 28.1-16.2l.7-.2q.7 5.7.1 11.4c-1.5-.3-14.2 10.2-16.9 11.3q-.8.4-.7 1.3-2.1 0-3 1.8c1 1 2.5-.9 3-1.8q1.2-.2 2.4-.8l10-5.8q2.9-1.3 5-3.4c-.5 5-1 11.8-3.5 16.2a4 4 0 0 0-2 .7l-11.8 9.7q.9.5 1.7 0l11-6.8c-3.5 14.4-19.9 30.8-35 32.5 0-1 2.2-2.3 1.3-3q-1.5.3-2.4 1.6-.9.4-1 1.3c-7.4 2.4-17.4 2.5-25.2 3.8q1.3-1.8 3.2-2.5l22.8-18.7q-1.8-.6-2.5 1a1206 1206 0 0 0-35.2 20 2 2 0 0 0-.8 1.4q-10.5 1.7-21.4 2.1c1.5-2.4 20.3-15 24-17.9l2-2c.5.1 3-.5 1.7-1.3q-1 .3-1.7 1.3-1.7 0-2.6 1.5-15.8 8.6-31.4 17.7-1 .6-.8 1.7-10.5 1.5-21 1.7l.3-.9 37.3-25.7c1.8-1.3 1.9-2.5 4.5-2.8q1.4-1-.4-1-1.2 1-2.7 1.4-.7.8-1.5 1.2-23.7 13.3-47 27-1.5.6-2.2 1.8a466 466 0 0 1-35.2 1.4c-.2-1.4 1.6-2.2 2.5-3l15-10 9.5-5.7q.9-.3.7-1.3a8 8 0 0 0 5.2-3.2q1.1.1 2.1-.4 1.8-1.6-.5-1.2-1.1.5-1.6 1.6a7 7 0 0 0-5.2 3.2l-1.2.1-31.7 18.3q-.7.4-.7 1.2-7.5 1.2-15.1.2l-.5-1.2c5.8-4.8 16.5-11 23.1-15.4a9 9 0 0 0 2-1.8l2-.5q3.5-2.7 7.3-4.8.6-.4 1-1.2 2-.3 3-2a2 2 0 0 0 2-1.1c.7 0 3.9-1 2.6-2q-2.2 0-2.6 2-1.5-.2-2 1-2.3 0-3 2.1-1-.1-2 .2l-9 5.3-1 .9-30 17.1q-.7.5-.7 1.4-7.2.2-14.3-.8a7 7 0 0 1 3-3.6l53.3-34.7c2-1.5 8.8-4.8 9.6-6.9 1.5 0 4.6-1.5 5-3q2.2-.1 3.1-2 1.1.1 1.8-.7c-.5-.8-1.6 0-1.8.6q-2.1.3-3 2.1a7 7 0 0 0-5 3c-2.2-.2-8.7 4.7-11.1 5.6q-.6.8-1.4 1.3a5784 5784 0 0 0-62.5 35.7q-.8.6-.7 1.6c-5 .3-9.6-1-14.6-1.4l.6-.7a7 7 0 0 0 2-2.2l2-1 1-.8q1-.7 2-1l1-1 2-1.2 1-.8 1.8-1.1 1.3-1 2.8-1.8 1.8-1.2 1.2-.7 1.8-1.3 1.2-.8 3-2 1.9-1.1 1.2-.8 1.8-1.2 1.2-.8 1.8-1.2 1.2-.8 1.8-1.2 1.2-.8 1.8-1.2 1.2-.8 21.5-14.5 1.5-.7 1.5-1.3q.8-.2 1.4-.8 1-.5 1.5-1.4.9 0 1.6-.5l1.5-1.3 1.5-.8 1.6-1.1q.8-.2 1.4-.8l2-1 1-1.1 2-1 1-1 2-1 1-1 1.9-1 1-1 1.8-1 1.2-.8q1-.9 2.1-1.4c2.1-1.5 6.3-3.4 7.6-5.7 1.4 0 4.6-1.6 5-3q2 0 3.1-1.8c-1-1-2.8.7-3 1.8a7 7 0 0 0-5.1 3c-2-.5-6.9 3.7-9 4.4l-.6.8q-.9 0-1.6.5-1.7 1.4-3.8 2.2l-1.2.7-.8.4-1.3.8-3.6 2.1-1.3.7-5 3-.8.5q-.6.3-1.1.8a39 39 0 0 0-5.1 2.7l-.7.6q-.7.2-1.3.6L236 453l-1.3.8-6 3.2-1 1-5 2.7-.7.5q-.8.2-1.3.7l-3.8 2-1.2.8-.7.5-1.3.7-5 2.9-.8.4-1.3.7q-1.8 1-3.4 2.3-.9.2-1.6.7l-3.7 2-1.2.8-.7.6-6.2 3.4-.9.6q-.7 0-1.2.6l-5 2.8q-2.8 1.5-5.4 3.5l-1.7.7-5 2.8-.7.5-1.2.8-5 2.7q-.6.6-.5 1.5c-4.3-.3-23.8-4.7-26.5-7.4a5467 5467 0 0 0 76.2-49c1.9-.9 7.2-3.9 8-5.8a8 8 0 0 0 5.2-3c.4.2 2.4-.4 1.4-1.1a2 2 0 0 0-1.4 1 8 8 0 0 0-5.2 3.1 4 4 0 0 0-1.9.5l-5.7 3.3a3 3 0 0 0-1.4 1.4c-1.2 0-3.7 1.6-4.7 2.3a7499 7499 0 0 0-77.2 44.8 56 56 0 0 1-18.3-11.6l1.7-.7.9-1 1.7-1 1.2-.8 1.9-1.1 1.2-.8 1.8-1.2 1.2-.8q5-3 9.4-6.6 1-.2 1.7-.6l1.5-1.3 1.5-.7 1.8-1 1.2-1 1.9-1.1 1-1 1.7-1q.8-.3 1.2-.7.9-.7 1.9-1.2l1.2-.8 1.8-1.2 1.2-.8 3-2 6.5-4.5q.8-.2 1.5-.8l1.5-1.3q.8 0 1.5-.6l2-1.2 1-.9 1.9-1 1.1-.9 3-1.9 1.8-1.1 1.2-.8 1.8-1.2 1.2-.8 1.8-1.2 1.2-.8 8-5.2 1.4-1.4q.9 0 1.5-.8.9-.3 1.5-1.2c2.7-1 6.7-3.3 8.3-5.7q3.1-.4 5-3c1 .1 4.3-.8 2.5-1.9q-1.8.2-2.4 2a7 7 0 0 0-5.1 2.9c-2.3 0-6.8 3.6-9.1 4.6a11 11 0 0 1-4 2.4l-1.2.7-.8.4-1.2.8q-1.8 1.2-3.7 2l-1.3.8-.7.5q-.8.2-1.3.7L178 428l-1.3.7q-3 1.6-5.5 3.6-.8 0-1.4.7a27 27 0 0 0-5.8 3.3l-6.3 3.4-.8.5-1.3.7-3.6 2.1-1.3.7-7 4.3q-2 .8-3.7 2l-1.2.8-.9.4-1.2.7q-2 1.2-4 2l-.8 1-1 .3-1.2.7q-1.8 1.2-4 2l-1 1-5 2.8-.7.5-1.3.7-5 2.8-.8.5-1.3.7q-2.5 1.3-4.5 3.4a39 39 0 0 1-6.4-8.2q1.3 0 2.3-.6c15.4-9.8 30.8-20 46.2-29.6l11.2-7q1-.9 1.6-2 1.4.3 2-1 2 0 3-2c.4.3 2.6-.2 1.5-1q-1 .2-1.6 1a3 3 0 0 0-3 2q-1.3-.1-1.9 1-1 .2-2 .7l-12.1 7-1.4 1.3q-23 12.8-46 26.1a3 3 0 0 0-1.3 1.4 32 32 0 0 1-4.1-9.2q1 0 2-.6 29-19 58.2-37.8 1-.6 1.5-1.7 2.1 0 3.2-2 1.2 0 2-.8c-.6-1-2.1-.2-2 .7q-2.2.2-3.2 2.1c-20.4 10.6-40.5 23.2-60.8 34.6l-1.8 1.6a29 29 0 0 1-1.3-11.2c2.5.4 22.4-14.4 26.4-16.2l11.8-7.5q.8-.5.8-1.4 1.4.3 2-1 2-.2 3-1.6c-1-1.4-2.4.8-3 1.6q-1.4-.2-2 1-7.1 3.4-14 7.6c-3.2 2.5-20.2 11.3-25 14.7-.9-3.2-.4-8-.6-11.4q1.3 0 2.4-.7l44.7-30.4q2.5-1.5 4.5-3.7 2.2 0 3.2-2c.5.1 2.5-.4 1.4-1.2q-1 .1-1.4 1.1-2.3 0-3.2 2.1-1.3.2-2.5.7l-49.1 28.5L91 404q1 0 2-.6l30.6-21q1.3-1 2.3-2.1 2.1-.4 3-2.2c.5.2 2.8-.3 1.6-1q-1 0-1.6 1-2.1.1-3 2.2l-1.3.1L91.8 399h-.5c-.7-3-.1-8 0-11.2q1.3 0 2.2-.7l17.7-12.4 1.5-1.5 3-1.5a1 1 0 0 0-1-.4q-1.2 1-2.7 1.4-.6.9-1.5 1.4L92 384.4c.4-23.5 11.3-45.3 36-50.2v.5a159 159 0 0 1-13.7 13.8c1.5 1.3 3.2-1.6 4.7-2q12.8-7.3 25.3-14.7.4-.2.6-.7c10.2-.3 17.7-6 27.7-7.3q.7.2.6 1l-.3 1.5-.9-.3q-1.1.3-.7 1.4-2.5-.6-3.1 1.9-1.5 0-2 1.6-2.3 0-3.1 2a3 3 0 0 0-3 1.8c1 1 2.6-1 3-1.8q1.5 0 2.9-1l4-2.8q1.7 0 3-1.6 5.5-2.6 10.7-5.8Zm154.1 3.5c3.5-.4 9.1 1.6 12.7 2q1 0 1.3.8l-2 .9-1.1.8-12.6 8.6-1.3.7-2 1-1 .9-3 1.9-3 2-3.1 2-1.8 1.1-1.2.8c-2.9 2.2-10.4 6.4-12.4 8.6q-.9.1-1.6.6-1 .7-2 1.1l-1.1 1-1.6 1q-.7.3-1.2.8L298 363l-1.2.8-4.9 3.1-1.2.8q-4.8 3-9.4 6.6-1 0-1.7.6l-1.4 1.3q-.8.1-1.5.7-.9.6-1.9 1l-1 1.1a12 12 0 0 0-3.2 2l-1.6 1-1.2.7q-.8 1.3-2 1.3h-.6c7.6-12 19.3-24.4 29.6-34.1 2.7.2 37-20.5 42.2-23.5q.6-.4.8-1.2ZM249 346l.7-.3q0 1-.8 1.7-4.7 4-9.5 7.8l-1.7-2q1.4-1.2 2-3l1.3-.4c2 .5 6-3 8-3.8Zm146 5q-1.4-.2-2 1a3 3 0 0 0-3 2q-1.2-.2-2 .7c.6.8 1.7 0 2-.6q2-.2 3-2 1.5 0 2-1.1 2 0 3-1.6c-1-1.2-2.6.6-3 1.6Zm-147 45c-.6.3-4.2 1-2.6 2.1q1.8-.4 2.5-2 .7 0 1.6-.3.7-.5 0-.9-1.3 0-1.6 1.1Zm-113 76q-2.3-.3-3 2c-1-.3-6.6 2.7-7 3.7.7 1.3 6.5-2.7 7-3.8q2.1 0 3-1.9c.6.1 2.6-.3 1.5-1q-1 0-1.4 1Zm30 11a3 3 0 0 0-3 2 2 2 0 0 0-2 1c-1.3.2-5.4 1.6-4.6 3.2 1.4-.3 4-1.7 4.5-3.2q1.4.2 2.1-1 2-.2 3-2c.5.2 2.7-.4 1.5-1.1q-1 0-1.5 1.2Z"/><path fill="#f4c812" fill-opacity=".5" d="M135 472a4 4 0 0 1-3 2q.8-2.3 3-2"/><path fill="#f4c811" fill-opacity=".5" d="M296 397c-.2.7-1.4 1.6-2 .7q.8-1 2-.7m-22 54c.2-.7 1.3-1.5 1.8-.7q-.6.9-1.8.6m-139 21q.6-1 1.5-1c1 .7-1 1.1-1.4 1m127 2q.4-2 2.6-2c1.3 1-1.9 2-2.6 2"/><path fill="#f4c712" fill-opacity=".4" d="M146 384q.5-1 1.5-1.1c1.1.8-1 1.3-1.4 1.1"/><path fill="#f4c810" fill-opacity=".5" d="M129 378q.5-1 1.5-1c1.2.7-1.1 1.2-1.6 1"/><path fill="#f5c812" fill-opacity=".5" d="M358 344a7 7 0 0 1-1.7 1.8q-2.4.1-.3-1.2z"/><path fill="#663434" d="M258.2 14.4A4080 4080 0 0 0 211 49.5c-.7.5-2.7.8-2.8 1.9 1.3 1.4 2.5-.6 3.6-1.2l58-33.4c2.2-1.6 12.2.8 13.3 2.6q-7.2 5-14.7 9.7-1 .6-1.4 1.8c-2.3-.3-5.5 3.2-7.6 4.2q-.4.4-.4 1-2.2-.3-3.1 1.5c1 .9 2.5-.6 3-1.5 1.6-.3 7.5-3.3 8.1-5.2q1.4 0 2.7-.5 8-4.9 16-9.5c2.7-2 9.6 2 12.2 3.3L272 41.5c-1 .8-3 .8-3 2.4q-2.3 0-3.1 2-1.2-.2-2 .8c.6 1 2.1.2 2-.8a4 4 0 0 0 3.1-2q1 0 2-.3 14.7-9 29.8-17.6c2-.4 9 3.5 10.1 4.9q-23.1 15-46 30.6-.9.6-1.3 1.6-1.3-.4-1.7.8l-1.2.2c-1 .9-4.7 2.5-4.9 3.9q-2-.4-2.8 1.5c1 .9 2.4-.6 2.8-1.5q3.2-.5 5.1-2.9l1.2-.2q1.2-.5 1.5-1.8l2.3-.6A3355 3355 0 0 0 315.4 34 49 49 0 0 1 332 46.3l-63 42.1q-1 .7-1.3 1.9-.9-.5-1.8 0c-1.1 1.2-5.8 3.1-5.9 4.7q-2.4-.2-3 2-1.2-.3-2 .7c.6 1 2 .2 2-.6q2-.5 3-2c2-.2 6-3 8-4.1l68.9-40c1.6.6 6.4 5.1 6.1 7q-23.1 14.9-46 30c-1.6-1.1 0-5.4-2.4-6-9.1-3.7-13.9 10.3-18.9 15.4-23 28.4-59.8 35.6-93.7 42q-2.7.6-5.2.2l34.5-23q.9-.5 1.5-1.4 2.3-.2 3.3-2.2.3 0 .6-.5-.6 0-.6.5-2.4 0-3.3 2.2l-1.8.1-44 25.8c-.9.1-4.3 2.8-5 2-1.5-4.2-8.4-.3-9.2 2q-.2.9-1 .9l-7.7 1.6q-.6.2-.9-.3c-.3-3.3-1.3-12.8.8-15.2l44-29.4q1.6-1.1 2.8-2.5c1-.1 6-2.1 4.8-3.3-1.4-.2-4.5 2-4.8 3.3l-1.8.2-45.8 26.6q-.4-6 .8-12.1 1 0 2-.5 9.6-6.6 19.3-12.7a3 3 0 0 0 1.5-1.6c1.4-.2 4.7-1.7 5.1-3.2.8.2 4-1 2.7-2q-2 .1-2.7 2c-1.7-.5-4.6 1.7-5.1 3.2l-1.8.2q-9.8 6-20 11.7-.6-.3-.5-1.1c.7-3.9.9-7.7 2.6-11.3l9.3-5.8q1-.7 1.4-1.8c1.3 0 3.1-.5 3-2.2q3.1-.3 5.2-2.5c-.8-1.3-4.8 1.6-5.1 2.5q-2.4 0-3 2.2-1.5-.2-2.7.5-3.5 2.3-7.2 4.4c-.6-2 4-15.3 4.8-16 3 0 33.2-23.8 38-27.4a2 2 0 0 0-1.8 0l-30.8 18c-.2-6.8 21-29.1 27-33.8 5.2-4.4 26.6-19 32.9-17.8q-11.7 9.7-23 19.5.6.4 1.1 0c14-6.7 28.2-16 41.8-23.8 5.2-2.5 14.4-1.3 20.2-1.3M316 45a2 2 0 0 0-2.1.7c.6 1 2 .1 2-.8.5-.3 4.3-1 2.6-2q-2.2 0-2.5 2m29.8 16c1.6 1.1 5.8 5.9 5 7.8A4465 4465 0 0 0 299 103a34 34 0 0 1-2.2-10.6q-.4-2 1.2-3.4zm8.7 13c1.6.5 4.7 6.3 4.4 8a4253 4253 0 0 0-53 35c-2.6-1.7-4.2-6.2-5.5-9q-.9-1.7.6-3zm7.3 15c1.8.2 3.6 7 3.1 8.7L317.6 128c-2.7.2-8.7-5.7-9.6-8q27-15.2 54-31m4.8 12.6q1.5 4.5 2.4 9.3-1 .1-2.1.7L343 126.8c-5.6 2.3-8.2 5.2-12.4 8.9-1.9-1.2-11.5-4.8-11.7-6.7zM217.9 112q.7 0 1-.6-.8-.3-1 .5m73.8 9a4 4 0 0 1 2 4c-4.4 4.4-12.5 7.9-17.8 11.3l-.4-1.8q-1.4.6-2.7.2zM370 131q.6 0 .8.6l-1 12.9q0 2.1-2.1 1.7-3.9-.7-7.6-2c-.8-2.5-4.3-3-6.2-1.4-.7-.3-2.1-.6-1.8-1.7q9-4.8 18-10.1m-70 2q.8 0 1.3-.3l1 .7.4 2q-1.1-.2-1.5.9l-.6.3q-1-.2-1.3.8-1.6-.6-1.9 1-.9 0-1.3.8l-.6.3q-.9-.2-1.3.7-1.1.7-2.2 1.1l-.8.7c-5.4 3.2-11 6-16 9.6-3.3 1-5.9 3.5-8.8 5.1q-1.8 0-.4-1 13.1-8.3 26-17 .7 0 1-.8l1.9-1.3q.8 0 1-.7 2 .6 2-1.3 2.1.7 2.2-1.5m-27 1.8q-.3 2.7-3 2zm3 1.6-1.8 1q.4-1.5 1.8-1m-6 .5q-.2 1.5-1.8 1.2zm4.2.5-1.1.6q.3-.6 1.1-.6m-6 .7q-.5.8-1.3.8zm4 .4-1.2.7q.5-.6 1.2-.7m-1.2.7-2 1.2q.5-1.5 2-1.2m-6 .8q-.2 1-1.1.8zm4 .3-1 .7q.4-.6 1-.7m-123.1 2.1c.5 0 2.9-.5 1.8-1.4a2 2 0 0 0-1.8 1.4m121.4-.9-1 .7q.1-.7 1-.7m44-.7q1 0 1.8.5L291 154.9q-1-.7.1-1.3 10.2-6.6 20.4-12.7m-104.2 4q-9.7 5.8-19.7 11.4 0-1 .6-1.6l3-2.2q.1-.6-.4-.9a5 5 0 0 1-2.6.5q2.3-2.1 4.2-4.5 0-.6-.9-.7 6.8-.9 13.6-2.4 1.2-.2 2.2.4m-34 4-17.5 10q-.7-.4-.3-1c1.3-1.6 5.8-6.8 6-8.5 3.8-.5 8-1.5 11.9-.5m14.9 3.2q-.3.8-1.1.9zm-1.1.9q-.2.9-1.1.9zm167.1.3h1l.7 2.1q-1.2 0-1.6.9l-.5.4q-1.1-.3-1.3.7l-8.1 4.7q-7.9 4.4-15.6 9l-4.2 3c-1.9.9-2.8.4-4.2 2.3q-1.4.3-2.4 1c-1 1.3-1.7 2-3.4 1.2l31.5-20.3 4-2.6q.8 0 1.1-.7 1.6.6 1.8-1 .8 0 1.2-.7m-168.7 4.3-1.1.7q.3-.7 1-.7m168 14.8q-3-.5-4 2.3-1.7-.8-1.7 1-1.1-.3-1.3.8-1.5-.5-1.9 1-.9 0-1.3.8l-.6.3q-.9 0-1.3.7l-28.7 16.6q-1 .8-2 2-2.1 0-.6-1.3 14.6-9.2 29-18.8 1 0 1-.7l1.9-1.2q.9 0 1.2-.9 1.6.6 1.8-1.1.9 0 1.2-.9 1.7.5 1.7-1.2 1 .1 1.3-.8.7.3 1.5 0c2.2-1.6 2.2-1.2 2.9 1.4m-.5 12.6c0 2.7 1.7.7 2.8 2.6l-13.3 7.8-2 1q-.9 0-1.2.8l-23.2 13.3c-.7.7-3.8 3-4.5 2L339 194l.6-.4q.9 0 1.2-.8.9 0 1.2-.8l.6-.4q.9 0 1.3-.9 1.7.6 1.7-1.1.9 0 1.2-.8.8 0 1.2-.9l.6-.3q.9 0 1.2-.8zm16.3 29L351 226q3.5-12.7 5-25.6 0-.8.7-1.2 5.7-2 11-5 .8-.4 1.3.3c.2 3 1.6 17.9 0 19.3m-215-14-11.7 6.5q-.3-4.4-.1-8.8c0-1.3.4-3 2.2-2.2q4.3 2.4 9 3.9.5.2.5.6m1.8 6q1 .6 1 1.7l1.2 9.5c-3.1 1-14.3 8-18 10-.4-1.8.6-10.6 2-12zm214.1 14q.7 0 1 .7c-.1 2.7 2.3 7.3 0 9.4l-9.8 6.7c-1 .6-3 .7-3 2.2a9 9 0 0 0-5 3c.7 1.4 4.6-1.9 5-3l2-.2 12-7.6c.8.4 2.4 8.7 2.7 10.1l-1.5.6a3624 3624 0 0 1-44.3 32q-.7.3-.8 1c-1 .5-2.8.8-3.1 2 .9 1 3.1-.7 3-2q1 .3 2 0c14.7-9.3 31.4-18.1 46.6-27.1 1.7 1.4 3.2 6.3 4.3 8.4l-1.6.8-16.4 11.7q-.6.6-.8 1.3-2.4 0-3.2 2.3-2.1-.4-2.9 1.5c1 .9 2.5-.7 3-1.5q2.2-.2 3-2.3c3.8-.7 16.5-8.8 20.6-11.1l5.7 7.4c-1.5 1-9.1 5.7-9.4 6.8q-1.9.4-3 1.8c1 1.3 2.6-.9 3-1.8h2.1q3.9-2.9 8-5.2c5.2 2.7 12.8 7.7 20 9.4l-20.7 17.2q.7.6 1.6.3c6.1-4.2 15.2-8.8 21.8-12.8-.2 16.8-11.8 28.1-26.8 33.8q-1.5.6-3.1.3 5.3-5.5 10.3-11.2c1.5-1.3.3-2.1-1.2-1L364.3 319c-4.2 2.4-6.5 2-11.3 2q-.2-.5-.7-.9-2.7-1.8-4.6.6-1.3-.5-1.8-1.7 9.7-8.3 19.7-16.4c-1.4-1.5-3 .9-4.2 1.5q-11.2 6.3-22 13c-13.7-2.2-27.4-26.6-27.9-39.7q0-.6.6-1c17-12.7 27.3-25.7 36.8-44.5l20.9-12m-144.7 23.4q-1-.2-1.2.8l-.6.4q-1-.1-1.2.8l-2 1.4q-1-.3-1 .7-1.7-.4-2 1.3-2.4-.8-2.8 1.8-1-.1-1.2 1-1.4-.5-2.7-.3-2.1 1.2-1.8-1.4c1.4.5 4.1-.3 3.9-2.1q.9 0 1.3-.8l.6-.3q1 .3 1.3-.8 1.6.6 1.9-1 .9 0 1.3-.8l.6-.3q.9 0 1.3-.8l2-1.1q1 .3 1.1-.7a796 796 0 0 0 29.8-17.7l.7.1q-14.4 10-29.3 19.8m-29 3q-.7.2-1.2.8l-2.1 1.2q-.5.2-.8.6-1.4 1.2-3 1.3-.7-.7-.3-1.8.8-1 2-1.7.8 0 1.1-.7l.7-.3q.8 0 1.3-.7l2.2-1.2.8-.6q13.4-7.6 26.2-15.7 2-.8 3.7-2 .4-.2.7 0l-5.8 3.8c-7.8 6.3-17.2 11-25.4 17M334 226.7q1.2.1 2.1 1l-1.8 2.7c-.7-.3-2.2-.2-1.8 1q-1-.3-1.3.7-8.5 4.6-16.6 10a8 8 0 0 1-4.2 1.2q9.5-6 18.5-12.9.9.3 1-.7 1 .2 1.1-.9 1.8.6 1.7-1.2.9 0 1.3-1m-172 3.3c1.4 2.7 3.8 7.3 4.1 10.2l-40 23c.9-3 6.6-11.7 8.1-15.4l15.5-9.6q1.3-.8 2.3-2 2.3-.3 4.3-1.5c1.6-3.2 1.9-3.7 5.6-4.7m84 14q-.3.8-1 .6zm-1.8 1a1 1 0 0 1-1 .8zm4.2.3-1.3.8q.4-.9 1.2-.8m-5.2.5q-.5 1.4-2 1.2zm-73.4.7q5.3 7.1 10.4 14.4l-10.2 5.6q-.7.4-1 1.1c-20.3 11-40.6 23.1-60.6 34.8-5-6.1-7.9-16.1-8.3-24-.2-1.5 1.8-1.8 2.3-.4q-.3 3.3-.2 6.5.5.6 1.2.3zm71.4.5q-.4.7-1.3.8zm-1.3.8q-.3 1.5-1.8 1zm3.4.8-1 .7q.2-.9 1-.7m-5.2.2q-.5 2.7-3 1.7zm4.3.4-1.3.9q.3-1 1.2-.8m-5.1 19.3q-1-.2-1 .7l-2 1.3q-1 0-1 .7-1.6-.3-1.8 1.2-1-.2-1.3.9-1.6-.5-1.9 1.3c-2.1-.8-5.1 2-6.3 3.5q-.6 0-1 .3 0-2 .7-3.8 1.1.4 1.3-.8l.6-.3q1 .1 1.3-.8 1.8.6 2-1.1 1.7.7 1.7-1 1 0 1.4-.9 1.5.5 1.8-1 .8 0 1.3-.7l.6-.3q.9 0 1.3-.8l5-2.9q12.3-7 24.2-14.4.7-.4 1.4-.2-2 2.3-5 3.4zm3-17.9-1 .6q.1-.9 1-.6m-6.3.4v1.2q-1.5 1-2.5 2.3.7.6 1.7.7c-2.8 2.6-22.7 14.7-23 16.7-1.2.2-4.1-3.3-5.2-4q14.3-8.7 29-16.9m5.4.2-1.3.8q.4-.8 1.3-.8m-2.2 1.3-2.3 1.5q.2-2.3 2.3-1.5m-2.3 1.5-1.7 1.2q.3-1.4 1.7-1.2m-54 7.7c6.5 5.7 12.3 11.6 19.6 16.3q.5.6.4 1.4c-4 16.8-9.5 35.2-28.7 39.6-.6-3-7.9.3-8.2 2.3-1.2 1.3-13.3-.9-15.1-1.8l22.2-14.1q.6-.5.8-1.2c2.6-.5 6.8-3 8.2-5.2q1.7.5 2-1 2.1-.1 3-2c.6.2 2.6-.3 1.5-1q-1 0-1.4 1-2.3 0-3 2-1.5-.2-2 1c-2.1 0-5.2 2.6-7.2 3.5q-1 .6-1.1 1.6-.5-.3-1.2-.2-12 7.2-24.5 14.1c-3.1 1.8-12.8-.3-15.6-2.6-4 1-18.2-6.2-18.5-10.1zm79 5.2q-.1.7-1 .7zM258 268a1 1 0 0 1-1 .7zm4.4.4-1.2.8q.2-1 1.2-.8m-5.4.3q-.5 2.9-3 1.8zm2.2 1.9-1 .6q.2-.8 1-.6m-6.2.5q1 1.4-.4 2.4.6.6 1.4.7-7 5.4-14.3 10.5-1.5 0-2.6-1c5.3-5.4 8.6-9.5 15.9-12.6m5.3.1-1.4 1q.4-1 1.4-1m22.6-.2q-.2.7-1 .7zm-24 1.1-3 2.1q0-3 3-2m23-.4q-.3 1.5-1.8 1.1zm3.4.6-1.2.8q.3-.9 1.2-.8m-5.2.5q-.5 1.5-2 1.1zm-2 1.1q-.3 3-3.2 1.8zm4 .6-1 .7q.3-.6 1-.7m-1 .8L277 277q0-2.2 2.3-1.8m-6.2.4q0 .9.5 1.8c.6-1.6 2.3-.5 3.5-.5l-4.9 3.7-8.2 5q-3 .8-5.8-.2a80 80 0 0 1 15-9.8m-127 31.2c-1.3.3-4.6 1.5-4.8 3-1.4 0-4.6 1.5-5 2.8.9 1.5 4.3-1.8 5-2.7 1.7.1 4.3-1.5 4.8-3 1.8.2 4-1.5 5.1-2.7-.8-1.2-4.8 1.8-5 2.6m61.2 9.5-1.2-.2-.3-1.6 9.4-6.3q1.2-.7 2.5-.9z"/><path fill="none" stroke="#663434" stroke-width=".5" d="M258.2 14.4A4080 4080 0 0 0 211 49.5c-.7.5-2.7.8-2.8 1.9 1.3 1.4 2.5-.6 3.6-1.2l58-33.4c2.2-1.6 12.2.8 13.3 2.6q-7.2 5-14.7 9.7-1 .6-1.4 1.8c-2.3-.3-5.5 3.2-7.6 4.2q-.4.4-.4 1-2.2-.3-3.1 1.5c1 .9 2.5-.6 3-1.5 1.6-.3 7.5-3.3 8.1-5.2q1.4 0 2.7-.5 8-4.9 16-9.5c2.7-2 9.6 2 12.2 3.3L272 41.5c-1 .8-3 .8-3 2.4q-2.3 0-3.1 2-1.2-.2-2 .8c.6 1 2.1.2 2-.8a4 4 0 0 0 3.1-2q1 0 2-.3 14.7-9 29.8-17.6c2-.4 9 3.5 10.1 4.9q-23.1 15-46 30.6-.9.6-1.3 1.6-1.3-.4-1.7.8l-1.2.2c-1 .9-4.7 2.5-4.9 3.9q-2-.4-2.8 1.5c1 .9 2.4-.6 2.8-1.5q3.2-.5 5.1-2.9l1.2-.2q1.2-.5 1.5-1.8l2.3-.6A3355 3355 0 0 0 315.4 34 49 49 0 0 1 332 46.3l-63 42.1q-1 .7-1.3 1.9-.9-.5-1.8 0c-1.1 1.2-5.8 3.1-5.9 4.7q-2.4-.2-3 2-1.2-.3-2 .7c.6 1 2 .2 2-.6q2-.5 3-2c2-.2 6-3 8-4.1l68.9-40c1.6.6 6.4 5.1 6.1 7q-23.1 14.9-46 30c-1.6-1.1 0-5.4-2.4-6-9.1-3.7-13.9 10.3-18.9 15.4-23 28.4-59.8 35.6-93.7 42q-2.7.6-5.2.2l34.5-23q.9-.5 1.5-1.4 2.3-.2 3.3-2.2.3 0 .6-.5-.6 0-.6.5-2.4 0-3.3 2.2l-1.8.1-44 25.8c-.9.1-4.3 2.8-5 2-1.5-4.2-8.4-.3-9.2 2q-.2.9-1 .9l-7.7 1.6q-.6.2-.9-.3c-.3-3.3-1.3-12.8.8-15.2l44-29.4q1.6-1.1 2.8-2.5c1-.1 6-2.1 4.8-3.3-1.4-.2-4.5 2-4.8 3.3l-1.8.2-45.8 26.6q-.4-6 .8-12.1 1 0 2-.5 9.6-6.6 19.3-12.7a3 3 0 0 0 1.5-1.6c1.4-.2 4.7-1.7 5.1-3.2.8.2 4-1 2.7-2q-2 .1-2.7 2c-1.7-.5-4.6 1.7-5.1 3.2l-1.8.2q-9.8 6-20 11.7-.6-.3-.5-1.1c.7-3.9.9-7.7 2.6-11.3l9.3-5.8q1-.7 1.4-1.8c1.3 0 3.1-.5 3-2.2q3.1-.3 5.2-2.5c-.8-1.3-4.8 1.6-5.1 2.5q-2.4 0-3 2.2-1.5-.2-2.7.5-3.5 2.3-7.2 4.4c-.6-2 4-15.3 4.8-16 3 0 33.2-23.8 38-27.4a2 2 0 0 0-1.8 0l-30.8 18c-.2-6.8 21-29.1 27-33.8 5.2-4.4 26.6-19 32.9-17.8q-11.7 9.7-23 19.5.6.4 1.1 0c14-6.7 28.2-16 41.8-23.8 5.2-2.5 14.4-1.3 20.2-1.3ZM316 45a2 2 0 0 0-2.1.7c.6 1 2 .1 2-.8.5-.3 4.3-1 2.6-2q-2.2 0-2.5 2Zm29.8 16c1.6 1.1 5.8 5.9 5 7.8a4465 4465 0 0 0-51.8 34.3 34 34 0 0 1-2.2-10.6q-.4-2 1.2-3.4zm8.7 13c1.6.5 4.7 6.3 4.4 8a4253 4253 0 0 0-53 35c-2.6-1.7-4.2-6.2-5.5-9q-.9-1.7.6-3zm7.3 15c1.8.2 3.6 7 3.1 8.7L317.6 128c-2.7.2-8.7-5.7-9.6-8q27-15.2 54-31Zm4.8 12.6q1.5 4.5 2.4 9.3-1 .1-2.1.7L343 126.8c-5.6 2.3-8.2 5.2-12.4 8.9-1.9-1.2-11.5-4.8-11.7-6.7zM217.9 112q.7 0 1-.6-.8-.3-1 .5Zm73.8 9a4 4 0 0 1 2 4c-4.4 4.4-12.5 7.9-17.8 11.3l-.4-1.8q-1.4.6-2.7.2zm78.3 10q.6 0 .8.6l-1 12.9q0 2.1-2.1 1.7-3.9-.7-7.6-2c-.8-2.5-4.3-3-6.2-1.4-.7-.3-2.1-.6-1.8-1.7q9-4.8 18-10.1Zm-70 2q.8 0 1.3-.3l1 .7.4 2q-1.1-.2-1.5.9l-.6.3q-1-.2-1.3.8-1.6-.6-1.9 1-.9 0-1.3.8l-.6.3q-.9-.2-1.3.7-1.1.7-2.2 1.1l-.8.7c-5.4 3.2-11 6-16 9.6-3.3 1-5.9 3.5-8.8 5.1q-1.8 0-.4-1 13.1-8.3 26-17 .7 0 1-.8l1.9-1.3q.8 0 1-.7 2 .6 2-1.3 2.1.7 2.2-1.5Zm-27 1.8q-.3 2.7-3 2zm3 1.6-1.8 1q.4-1.5 1.8-1Zm-6 .5q-.2 1.5-1.8 1.2zm4.2.5-1.1.6q.3-.6 1.1-.6Zm-6 .7q-.5.8-1.3.8zm4 .4-1.2.7q.5-.6 1.2-.7Zm-1.2.7-2 1.2q.5-1.5 2-1.2Zm-6 .8q-.2 1-1.1.8zm4 .3-1 .7q.4-.6 1-.7Zm-123.1 2.1c.5 0 2.9-.5 1.8-1.4a2 2 0 0 0-1.8 1.4Zm121.4-.9-1 .7q.1-.7 1-.7Zm44-.7q1 0 1.8.5l-22.3 13.5q-1-.7.1-1.3 10.2-6.6 20.4-12.7Zm-104.2 4q-9.7 5.8-19.7 11.4 0-1 .6-1.6l3-2.2q.1-.6-.4-.9a5 5 0 0 1-2.6.5q2.3-2.1 4.2-4.5 0-.6-.9-.7 6.8-.9 13.6-2.4 1.2-.2 2.2.4Zm-34 4-17.5 10q-.7-.4-.3-1c1.3-1.6 5.8-6.8 6-8.5 3.8-.5 8-1.5 11.9-.5ZM188 152q-.3.8-1.1.9zm-1.1.9q-.2.9-1.1.9zm167.1.3h1l.7 2.1q-1.2 0-1.6.9l-.5.4q-1.1-.3-1.3.7l-8.1 4.7q-7.9 4.4-15.6 9l-4.2 3c-1.9.9-2.8.4-4.2 2.3q-1.4.3-2.4 1c-1 1.3-1.7 2-3.4 1.2l31.5-20.3 4-2.6q.8 0 1.1-.7 1.6.6 1.8-1 .8 0 1.2-.7Zm-168.7 4.3-1.1.7q.3-.7 1-.7Zm168 14.8q-3-.5-4 2.3-1.7-.8-1.7 1-1.1-.3-1.3.8-1.5-.5-1.9 1-.9 0-1.3.8l-.6.3q-.9 0-1.3.7l-28.7 16.6q-1 .8-2 2-2.1 0-.6-1.3 14.6-9.2 29-18.8 1 0 1-.7l1.9-1.2q.9 0 1.2-.9 1.6.6 1.8-1.1.9 0 1.2-.9 1.7.5 1.7-1.2 1 .1 1.3-.8.7.3 1.5 0c2.2-1.6 2.2-1.2 2.9 1.4Zm-.5 12.6c0 2.7 1.7.7 2.8 2.6l-13.3 7.8-2 1q-.9 0-1.2.8l-23.2 13.3c-.7.7-3.8 3-4.5 2L339 194l.6-.4q.9 0 1.2-.8.9 0 1.2-.8l.6-.4q.9 0 1.3-.9 1.7.6 1.7-1.1.9 0 1.2-.8.8 0 1.2-.9l.6-.3q.9 0 1.2-.8zm16.3 29L351 226q3.5-12.7 5-25.6 0-.8.7-1.2 5.7-2 11-5 .8-.4 1.3.3c.2 3 1.6 17.9 0 19.3Zm-215-14-11.7 6.5q-.3-4.4-.1-8.8c0-1.3.4-3 2.2-2.2q4.3 2.4 9 3.9.5.2.5.6Zm1.8 6q1 .6 1 1.7l1.2 9.5c-3.1 1-14.3 8-18 10-.4-1.8.6-10.6 2-12zm214.1 14q.7 0 1 .7c-.1 2.7 2.3 7.3 0 9.4l-9.8 6.7c-1 .6-3 .7-3 2.2a9 9 0 0 0-5 3c.7 1.4 4.6-1.9 5-3l2-.2 12-7.6c.8.4 2.4 8.7 2.7 10.1l-1.5.6a3624 3624 0 0 1-44.3 32q-.7.3-.8 1c-1 .5-2.8.8-3.1 2 .9 1 3.1-.7 3-2q1 .3 2 0c14.7-9.3 31.4-18.1 46.6-27.1 1.7 1.4 3.2 6.3 4.3 8.4l-1.6.8-16.4 11.7q-.6.6-.8 1.3-2.4 0-3.2 2.3-2.1-.4-2.9 1.5c1 .9 2.5-.7 3-1.5q2.2-.2 3-2.3c3.8-.7 16.5-8.8 20.6-11.1l5.7 7.4c-1.5 1-9.1 5.7-9.4 6.8q-1.9.4-3 1.8c1 1.3 2.6-.9 3-1.8h2.1q3.9-2.9 8-5.2c5.2 2.7 12.8 7.7 20 9.4l-20.7 17.2q.7.6 1.6.3c6.1-4.2 15.2-8.8 21.8-12.8-.2 16.8-11.8 28.1-26.8 33.8q-1.5.6-3.1.3 5.3-5.5 10.3-11.2c1.5-1.3.3-2.1-1.2-1l-26.6 15.3c-4.2 2.4-6.5 2-11.3 2q-.2-.5-.7-.9-2.7-1.8-4.6.6-1.3-.5-1.8-1.7 9.7-8.3 19.7-16.4c-1.4-1.5-3 .9-4.2 1.5q-11.2 6.3-22 13c-13.7-2.2-27.4-26.6-27.9-39.7q0-.6.6-1c17-12.7 27.3-25.7 36.8-44.5l20.9-12Zm-144.7 23.4q-1-.2-1.2.8l-.6.4q-1-.1-1.2.8l-2 1.4q-1-.3-1 .7-1.7-.4-2 1.3-2.4-.8-2.8 1.8-1-.1-1.2 1-1.4-.5-2.7-.3-2.1 1.2-1.8-1.4c1.4.5 4.1-.3 3.9-2.1q.9 0 1.3-.8l.6-.3q1 .3 1.3-.8 1.6.6 1.9-1 .9 0 1.3-.8l.6-.3q.9 0 1.3-.8l2-1.1q1 .3 1.1-.7a796 796 0 0 0 29.8-17.7l.7.1q-14.4 10-29.3 19.8Zm-29 3q-.7.2-1.2.8l-2.1 1.2q-.5.2-.8.6-1.4 1.2-3 1.3-.7-.7-.3-1.8.8-1 2-1.7.8 0 1.1-.7l.7-.3q.8 0 1.3-.7l2.2-1.2.8-.6q13.4-7.6 26.2-15.7 2-.8 3.7-2 .4-.2.7 0l-5.8 3.8c-7.8 6.3-17.2 11-25.4 17ZM334 226.7q1.2.1 2.1 1l-1.8 2.7c-.7-.3-2.2-.2-1.8 1q-1-.3-1.3.7-8.5 4.6-16.6 10a8 8 0 0 1-4.2 1.2q9.5-6 18.5-12.9.9.3 1-.7 1 .2 1.1-.9 1.8.6 1.7-1.2.9 0 1.3-1ZM162 230c1.4 2.7 3.8 7.3 4.1 10.2l-40 23c.9-3 6.6-11.7 8.1-15.4l15.5-9.6q1.3-.8 2.3-2 2.3-.3 4.3-1.5c1.6-3.2 1.9-3.7 5.6-4.7Zm84 14q-.3.8-1 .6zm-1.8 1a1 1 0 0 1-1 .8zm4.2.3-1.3.8q.4-.9 1.2-.8Zm-5.2.5q-.5 1.4-2 1.2zm-73.4.7q5.3 7.1 10.4 14.4l-10.2 5.6q-.7.4-1 1.1c-20.3 11-40.6 23.1-60.6 34.8-5-6.1-7.9-16.1-8.3-24-.2-1.5 1.8-1.8 2.3-.4q-.3 3.3-.2 6.5.5.6 1.2.3zm71.4.5q-.4.7-1.3.8zm4.2.2Zm-5.5.6q-.3 1.5-1.8 1zm3.4.8-1 .7q.2-.9 1-.7Zm-5.2.2q-.5 2.7-3 1.7zm4.3.4-1.3.9q.3-1 1.2-.8Zm-5.1 19.3q-1-.2-1 .7l-2 1.3q-1 0-1 .7-1.6-.3-1.8 1.2-1-.2-1.3.9-1.6-.5-1.9 1.3c-2.1-.8-5.1 2-6.3 3.5q-.6 0-1 .3 0-2 .7-3.8 1.1.4 1.3-.8l.6-.3q1 .1 1.3-.8 1.8.6 2-1.1 1.7.7 1.7-1 1 0 1.4-.9 1.5.5 1.8-1 .8 0 1.3-.7l.6-.3q.9 0 1.3-.8l5-2.9q12.3-7 24.2-14.4.7-.4 1.4-.2-2 2.3-5 3.4zm3-17.9-1 .6q.1-.9 1-.6Zm-6.3.4v1.2q-1.5 1-2.5 2.3.7.6 1.7.7c-2.8 2.6-22.7 14.7-23 16.7-1.2.2-4.1-3.3-5.2-4q14.3-8.7 29-16.9Zm5.4.2-1.3.8q.4-.8 1.3-.8Zm-2.2 1.3-2.3 1.5q.2-2.3 2.3-1.5Zm-2.3 1.5-1.7 1.2q.3-1.4 1.7-1.2Zm-54 7.7c6.5 5.7 12.3 11.6 19.6 16.3q.5.6.4 1.4c-4 16.8-9.5 35.2-28.7 39.6-.6-3-7.9.3-8.2 2.3-1.2 1.3-13.3-.9-15.1-1.8l22.2-14.1q.6-.5.8-1.2c2.6-.5 6.8-3 8.2-5.2q1.7.5 2-1 2.1-.1 3-2c.6.2 2.6-.3 1.5-1q-1 0-1.4 1-2.3 0-3 2-1.5-.2-2 1c-2.1 0-5.2 2.6-7.2 3.5q-1 .6-1.1 1.6-.5-.3-1.2-.2-12 7.2-24.5 14.1c-3.1 1.8-12.8-.3-15.6-2.6-4 1-18.2-6.2-18.5-10.1zm79 5.2q-.1.7-1 .7zM258 268a1 1 0 0 1-1 .7zm4.4.4-1.2.8q.2-1 1.2-.8Zm-5.4.3q-.5 2.9-3 1.8zm2.2 1.9-1 .6q.2-.8 1-.6Zm-6.2.5q1 1.4-.4 2.4.6.6 1.4.7-7 5.4-14.3 10.5-1.5 0-2.6-1c5.3-5.4 8.6-9.5 15.9-12.6Zm5.3.1-1.4 1q.4-1 1.4-1Zm22.6-.2q-.2.7-1 .7zm-24 1.1-3 2.1q0-3 3-2Zm23-.4q-.3 1.5-1.8 1.1zm3.4.6-1.2.8q.3-.9 1.2-.8Zm-5.2.5q-.5 1.5-2 1.1zm-2 1.1q-.3 3-3.2 1.8zm3 1.4L277 277q0-2.2 2.3-1.8Zm-6.2.4q0 .9.5 1.8c.6-1.6 2.3-.5 3.5-.5l-4.9 3.7-8.2 5q-3 .8-5.8-.2a80 80 0 0 1 15-9.8Zm-127 31.2c-1.3.3-4.6 1.5-4.8 3-1.4 0-4.6 1.5-5 2.8.9 1.5 4.3-1.8 5-2.7 1.7.1 4.3-1.5 4.8-3 1.8.2 4-1.5 5.1-2.7-.8-1.2-4.8 1.8-5 2.6Zm61.2 9.5-1.2-.2-.3-1.6 9.4-6.3q1.2-.7 2.5-.9z"/><path fill="#eda580" stroke="#eda580" stroke-width=".5" d="m287.2 109-13 8.6a37 37 0 0 1-8.5 5.7 21 21 0 0 1-4 3.1l-9.4 6c.6.9 2-1 3-.8q3.5-2.5 7.6-4.2 6.4-4.2 13-7.9 1.2-.7 2.1-1.7 1 0 1.7-.5 3.4-2.4 7-4a2 2 0 0 0 1.2-1.3q.5.1.8.7c.4 2 3.2 6.7 3 8.4L268.1 138l-1.3.8-1.8 1.2-1.3.8q-9.2 6.6-18.8 12.7-1.4 1.2.3 1 1.2-.7 2.6-1.2 9-6 18.3-11.2l1-.7.8-.5 1-.6 2-1.2 1.2-.7.9-.5 1.1-.6 1.8-1c5.3-3.4 13.4-7 17.8-11.3 1.6 0 5.8 6.5 7.5 7.6l-1.2.4-2.2 1.5-2 1.3-1 .7-2 1.3-1 .8a684 684 0 0 1-25.9 17q-1.5 1 .4 1c3-1.6 5.5-4.1 8.7-5 5-3.7 10.7-6.5 16-9.7q.7 0 .9-.7l2.2-1 1.3-.8.6-.3 1.3-.8 1.8-1 1.4-.8.6-.3 1.5-1 1.4-.2q3.6 2.2 7.4 4 .7 1-.2 1.7-10.3 6.2-20.4 12.7-1.1.7-.1 1.3l22.3-13.5c3.5-.3 20.8 5.4 25.4 5.9q-.5.8-1.2 1.4a26 26 0 0 1-6.5 3.8l-1.3 1.4q-17.7 11.5-35.6 22.5-.7.6-.3 1.4 2.7-1.5 5.2-3.4 3-1.6 6.3-2.8a272 272 0 0 1 24-14.4q.7 0 .9-.8 2.1-.9 4.2-2.2.6 0 .7-.7a24 24 0 0 0 4.3-2.2q.7-.4.8-1.2 1.8.2 3.2-1c2.2-1.5 9.7 2 12 3.1l-.2 1.2h-1q-.6 0-1.2.5l-1.8 1.1-1.1.7-4.6 3.2-30.9 19.7c1.7.8 2.4 0 3.4-1.2q1-.7 2.3-1c1.5-1.9 2.4-1.4 4.3-2.4l4.2-3L349 159l1.2-.6 2-1.2 1.2-.8.6-.3 1.6-.9 2.4-1.2c3 1 5.6 4 7 6.7-4.7 1.8-11.6 7.3-16.1 10.1l-1.3.8-1.7 1.2-1.2.9-1.8 1.1-1.2.9-1.8 1.2-1 .7q-14.5 9.6-29 18.8-1.6 1.2.4 1.2l2.1-1.9 28.7-16.6 1.3-.7.6-.3 1.3-.8 1.9-1 1.3-.8 1.7-1 4-2.3q7-3.8 13.6-8.3c1.2 2.5 3 7.3 1.8 10l-16 10.9-2.8 2-1.2.8-.6.3-1.2.9-1.2.8-1.7 1.1-1.3 1-.6.3-1.2.8-1.2.8-.6.4-1.2.8-26.5 17.6c.7 1 3.8-1.4 4.5-2L339 197l1.1-.7 2-1.1 1.1-.6 23.8-14c-1.2 11-22.3 9.7-23.4 17.8-.6 3 .4 9.2-2.4 11q-1-.4-2 .2-4.9 3.6-9.9 6.7.7.7 1.7.4 4-2.7 8.2-5 .9-.9 1.5-1.9 1.5.1 1.5 1.6-.9 6-3 11.7a45 45 0 0 0-6.6 4.5l-1.7 1.2-1.2 1-1 .6q-8.9 6.9-18.4 13 2.4 0 4.2-1.3a246 246 0 0 1 17.9-10.7l1.8-1c1-.3 2.2-1.6 3.1-.6-3.7 6.8-7.4 18.2-14.9 21.8.9.6 1.8.4 1.4 1.7a87 87 0 0 1-57.6 32.4h-2.4l8.2-5a47 47 0 0 0 7.1-5.5l1-.7 2-1.4 1.2-.8 11.3-8.9h-.8q-6.5 3.6-12.9 7.6l-1 .7-3.8 2.2-3.2 1.8a80 80 0 0 0-15 9.8q-9 .9-18.2-.8a453 453 0 0 0 17.2-12.6l1.3-.9 3-2 1.2-.8q6.9-5 13.4-10l1.5-.7q1-1.2 2.2-2.3-.8-.1-1.4.3-8.9 6-18.2 11.2l-1 .7-.9.4-1 .7-3 1.8-1 .6c-7.3 3.1-10.6 7.2-16 12.6-2.4 0-14.4-3.4-15.2-5.6 2.1 0 4.6-2.5 6.4-3.5q1-.8 2-1.3l1.2-1 1.7-1 1.1-.8 2-1.3 1-.7 23.4-15.7q2.8-1 4.9-3.4-.8-.1-1.4.2Q252 257 240 264l-1.2.7-3.9 2.2-1.3.8-.6.3-1.3.7-1.8 1-1.4.9-1.7 1-2 1-1.3.9-.6.3-1.3.8a6 6 0 0 0-2.9 2.4 24 24 0 0 1-8.7-5c.4-2 20.3-14.2 23.1-16.8l4-2.7.9-.5 1.3-.8.9-.6.8-.5 1.2-.8 1-.7.8-.5 1.2-.9 1.8-1.1 1.2-.8q9.9-6.8 19.8-13 1.8-2 4.3-2.7.8-.7 0-1.3-13 8-26.4 15.6l-1 .7-.8.5-1 .7-2 1.2-6.2 3.5-1 .5q-14.7 8-29 17-4-3-7.1-6.8 7.9-4.6 15.3-9.9l1.3-.9 2.8-1.8 2-1.3 1-.7 2-1.4 1.2-.8.6-.4 1.2-.8q14.8-9.7 29.3-19.8h-.7A796 796 0 0 1 224 241l-1.2.7-2 1.1-1.2.8-.6.3-1.3.8-1.9 1-1.3.8-.6.3-1.3.8-3.9 2.1A220 220 0 0 0 195 258a24 24 0 0 1-5.9-8q1.7 0 3-1.2.6 0 .8-.6l3.4-2c8.2-6 17.6-10.7 25.4-17l5.8-3.7q-.3-.3-.7-.2-1.8 1.4-3.7 2a506 506 0 0 1-30.5 18.3l-.7.3-1.1.7q-1.2.6-2 1.7c-2.4.1-6-6.1-5.7-8.3l1-.2q.7 0 1-.7 5.1-2.5 9.6-6 1.7 0 2.3-1.6c1-1 2.8-1.2 2.8-2.8h1.5q1-.5 1.6-1.5l2.1-1.3c1.6-1 4.2-2.2 5-3.8 1 0 5.8-2.1 4.6-3.2-1.4.1-4 1.7-4.5 3.2q-3 .2-5 2.6c-1.3.4-3.9 1-3.8 2.6-1 .1-3.5.4-3 1.9-.8-.2-2.3-.3-2.2.8-1.2.1-3 .5-3 2q-1.2-.1-2.2.4-4.8 2.8-9.6 5.9-4-7.5-7.6-15.4 0-1.6 1.3-2.5c3.4-1.5 7.9-5.5 11-6.7l5.5-4.3-4.6 1.8c-4.3 3.5-9.6 5-13.6 9-1.9-1.9-3-7.4-4-9.9l1-1c2.4.4 4.2-2.3 6.5-2.9a444 444 0 0 0 19.1-13.1l4-2.2q1.3-2 3.7-2.6-1.2-.3-2.5.2-5.7 3.9-11.6 7.5l-19.7 11.4-.9.4c-1-.2-2.7-8.6-3-10q1.1.3 2.1-.3l38.4-26.8q.4-.3.5-.9c.9-.7 2.5-.4 3-1.6-1-1.7-2.3 1-3 1.6-3 .5-4.3 2.8-7 3.4l-34.8 20c-1-2-10.8-2-9.8-4.5q.8-.7 1.4-1.6a435 435 0 0 1 18.7-11.6l2.5-2.3 11-7 4.6-4c-2.2-.3-7.3 4.2-9 5.7q-7.4 4-14.7 8.3l-16.5 9.2q-1 .6-1 1.6c-3.4-1.3-7-5.6-7.1-9.3q.8 0 1.7-.6a8 8 0 0 1 3.5-2.6l5.2-5.2c-1.6-.5-3.7 1.9-4.7 2.9-2.9.7-4.3.9-6.5 3a2 2 0 0 1-1.2-2c-1.6-12.4 5.1-22.7 18-24.2-.2 1.7-4.7 6.9-6 8.5q-.4.6.2 1l17.7-10q9-.7 18.1-2 .8 0 .9.7-2 2.3-4.2 4.5l-1.1.9-1.1.9-10.2 8.7.1.3q4.5-2 8.5-4.6l1-.7 2.2-1.3q10-5.6 19.7-11.4c30.5-9.8 55.2-20.5 77.9-44.1q.4-.3.9.1zm-125.1 34.2q-4.6 1.2-9.3 2c.8-2.4 7.7-6.3 9.3-2Zm153 6.9c-1 2.5 8.4-3 8-3.8-1-1.6-6.6 3.2-8 3.8Z"/><path fill="#eca581" fill-opacity=".4" stroke="#eca581" stroke-opacity=".4" stroke-width=".5" d="M210 222c.5-1.4 3.2-3 4.6-3.1 1.2 1-3.6 3.1-4.5 3.1Z"/><path fill="#e69e7c" fill-opacity=".4" stroke="#e69e7c" stroke-opacity=".4" stroke-width=".5" d="M206.9 170c.7-.5 2-3.3 3-1.6-.5 1.2-2.1 1-3 1.6Z"/><path fill="#cb896d" d="M315.2 150c1.3-.5 7-5.3 7.9-3.7.4.9-9 6.3-8 3.8"/><path fill="#e59a79" stroke="#e59a79" stroke-width=".5" d="M304.2 299q-1 .3-1.2 1.2h-1.1q-.9 1-2 1-1.1.7-2 1.7-.6 0-.8.7c.5 1 1.5.1 2-.3l.9-1c.6-.1 2-.2 1.9-1.1l1.4-.5q.8-.4 1.3-1l4.2 8.7c0 1.3-2 2.2-3 2.8q-2.3 1.6-4.1 4a308 308 0 0 0-17.2 13.8q-.4.6 0 1 12.3-6.6 24.4-13.7a8 8 0 0 0 3.4-3c1 .8 4.9 2 4 3.7a221 221 0 0 0-48.5 46.2q-6 8.1-11.2 16.5l-9.9-14.8q-.6-1-.5-2.1 1.5.5 2-1c.5-.3 4-.9 2.4-2a3 3 0 0 0-2.4 2q-1.2 0-2 1-.6 0-1.2-.3l-5.6-7.3q4.8-3.8 9.5-7.8.8-.6.8-1.7c1.2-.7 8.5-5.2 8.1-6.4 2.5-.7 2.4-1.2 3.9-3 2.8-.6 3-2.1 5-3.9-.9-.7-3.8 1.4-4.3 2.3q-2 .6-3.8 1.6L235 350q-10.4-11.6-22.4-21.8l11-8.9q-.6-.6-1.7-.2-5.7 4-11.9 7c-1.7-1.7-6.1-4.2-7.2-6q1.5-1.8 3-3.1l1.3-.7 10.4-9q-1.3 0-2.5.9l-9.4 6.3q-3.3 1-6 3.4-2.9-1.4-5.2-3.6 8.9-7 12.8-17.7l4.4-12.3 2 1.5c11.3 3.9 22.2 6.4 34 8.6 19.1-1 32.4-1.7 50.2-10.2 3-1.6 2.9 3.5 2.7 5.1 1.9 2.3 2.6 6.8 3.7 9.6Zm-9.2-6c1 0 5.2-1.9 3.7-3-1.6.6-3.5 1-3.7 3Zm-60 45q-2.4 0-3.7 1.8c.4 1.4 3.7-.5 3.7-1.8.6-.3 3.6-.9 2.5-2q-1.8.2-2.5 2Z"/><path fill="#edb14e" fill-opacity=".3" stroke="#edb14e" stroke-opacity=".3" stroke-width=".5" d="M248.2 361.8q-.5 1.6-2 1 .8-1 2-1Z"/><path fill="#e8a167" fill-opacity=".4" stroke="#e8a167" stroke-opacity=".4" stroke-width=".5" d="M248.2 361.8a3 3 0 0 1 2.4-2c1.6 1.1-1.9 1.7-2.4 2Z"/><path fill="#eb957a" fill-opacity=".2" stroke="#eb957a" stroke-opacity=".2" stroke-width=".5" d="M235 338c0 1.3-3.3 3.2-3.7 1.8q1.3-1.8 3.7-1.8Z"/><path fill="#e69a7a" fill-opacity=".4" stroke="#e69a7a" stroke-opacity=".4" stroke-width=".5" d="M235 338a3 3 0 0 1 2.5-2c1.1 1.1-1.9 1.7-2.5 2Z"/><path fill="#c07c66" d="M295 293c.2-2 2.1-2.4 3.7-3 1.6 1.1-2.7 3-3.7 3"/><path fill="#c7856a" fill-opacity=".6" d="m299.8 301.2.2 1.1-1 1-1-.4q.8-1 1.8-1.7"/><path fill="#673534" stroke="#673534" stroke-width=".5" d="M369 113c.9 2.7 2 7.7 0 10.1-3.3 2.1-26 14.5-26.7 16-3.5-.2-8.1-2.5-11.6-3.4 4.2-3.7 6.8-6.6 12.4-9q1.5.5 2.9-.3zm-198.6 96.2-.6-1.6 19.7-11.4q6-3.6 11.6-7.5 1.3-.6 2.5-.2a6 6 0 0 0-3.7 2.6q-2 1.3-4 2.2a444 444 0 0 1-19 13.1c-2.4.6-4.2 3.3-6.5 2.8Zm-11.7 10.4q2 5.1 3.1 10.4c-3.7 1-4 1.6-5.6 4.7q-2 1.2-4.3 1.6a4 4 0 0 0-2.6.5l-14.2 8.3c1-3.7 2.4-10 4-13.2q9.9-6 19.6-12.3Z"/><path fill="#723e3b" d="M275.9 136.3q-1.4-.5-1.8 1-.8 0-1.1.6l-.9.5q-.8 0-1.2.7-1.5-.3-2 1.2-.6 0-1 .6l-.7.5q-.9 0-1 .7-9.5 5.2-18.4 11.2-1.5.4-2.6 1.3-1.6 0-.3-1.1 9.6-6 18.8-12.7 1 0 1.3-.9l1.8-1q.8-.1 1.3-1 1.5.5 1.8-1.1 2.7.6 3-2.1 1.2.4 2.6-.3 0 1 .4 2m-88.6 19.8-2.1 1.3q-.8 0-1.1.7a71 71 0 0 1-8.5 4.5l-.1-.2 10.2-8.7q1 0 1-1 .9 0 1.2-.8a5 5 0 0 0 2.6-.5q.6.3.3 1l-3 2q-.5.8-.5 1.7m177.7 4.6q1.4 1.4 1.8 3.2-6.6 4.5-13.5 8.3c-.7-2.6-.7-3-2.9-1.3l-1.5-.1c4.5-2.8 11.4-8.3 16-10M348.8 171q-.3 1-1.2.8zm-1.2.8q-.1 1.6-1.8 1.2zm5.6.6-4 2.3q1-2.9 4-2.3m-7.4.6q-.3 1-1.2.9zm-1.2.9q-.2 1.6-1.8 1.1zm4.5.8-1.7 1q0-1.8 1.7-1m-6.3.3q-.3.9-1.2.9zm4.6.7-1.3.8q.2-1 1.3-.8m-1.3.8-1.9 1q.3-1.5 1.9-1m-6.3.6q-.3.8-1 .7zm4.4.4-1.3.8q.4-1 1.3-.8m-1.9 1.1-1.3.7q.4-.8 1.3-.7m-3.2 44.7q-1.2 3.3-1.9 6.7c-.9-1-2.1.3-3 .6q.7-1.5 1.7-2.8-.9-.7-2.1-1a45 45 0 0 1 5.3-3.5m-5.3 3.6q-.4.9-1.3 1zm-85.6 18.6q-.9 0-1.3.8l-1.8 1.1q-.8 0-1.2.9l-.8.5q-.8-.2-1 .6-.9 0-1.2.8l-.8.6q-.9-.3-1 .6-.8 0-1.2.8l-.9.5q-2.1-.8-2.3 1.5-1.4-.1-1.7 1.2-1 0-1.7-.7 1.1-1.3 2.5-2.3V251l1-.5q2.5 1.1 3.1-1.7 1.5.5 1.8-1 .9 0 1.3-.8 1.5.2 2-1.2a1 1 0 0 0 1-.7l.7-.5q1 .1 1.1-.7 13.3-7.7 26.4-15.6.8.6 0 1.3-2.4.8-4.3 2.6-10 6.3-19.7 13m84.3-17.7q0 1.8-1.7 1.2zm-1.7 1.2q-.2 1-1.2 1zm-1.2 1q0 .8-1 .6zm4.5.6-1.8 1c-.4-1.2 1-1.3 1.8-1m-1.8 1-1.3.7q.3-.9 1.3-.7M224 241q-.1 1-1.2.7zm-3.1 1.8q-.4.8-1.3.8zm4.3.4-1.2.8q.1-1 1.2-.8m-6.2.7q-.4 1-1.3.8zm4.4.5-1.2.8q.2-1 1.2-.8m-5.7.3q-.3 1.6-1.9 1zm-1.9 1q-.3 1-1.3.8zm4.4.9-1 .7q0-1 1-.7m-6.3.2q-.3.8-1.3.8zm5.3.5-2 1.3q.3-1.8 2-1.3m-6.6.3c.2 1.8-2.5 2.6-3.9 2.1zm4.6 1-2.8 1.8q.3-2.6 2.8-1.8m-8.5 1.1q-.3 2.6 1.8 1.4 1.5-.1 2.6.2-7.4 5.3-15.3 9.9-1.6-1.4-2.7-3.2 6.7-4.4 13.6-8.3m5.7.7-1.3 1q.3-1.1 1.3-1m48 18q-1-.2-1.2.8l-2 1.4q-.8-.3-1 .6-.9 0-1.3 1-3-1-3 2-.8 0-1.3-.7 1.3-1 .4-2.4l1-.6q2.5 1 3-1.8a1 1 0 0 0 1-.7l.8-.4q.8 0 1-.7 9.4-5.2 18.3-11.2.7-.4 1.4-.3-1.3 1-2.2 2.3l-1.5.7zm20.9 3.9q-.9 0-1.2.8l-2 1.4q-.7 0-1 .7-2.2-.4-2.2 1.8c-1.2 0-3-1.1-3.5.4q-.5-.7-.5-1.7 2.8 1.2 3.3-1.8 1.5.5 1.9-1 1.5.3 1.8-1.2.8 0 1-.7 6.4-4 13-7.7l.7.1z"/><path fill="#75413d" fill-opacity=".8" d="M338.4 147.1q1.5 0 2.7.9-1.5.5-1.2 1.9l-.8 1.2q-1.7-.6-2 1.2l-2.2 1q-.6.1-.8.7-2.1 1.3-4.2 2.3l-.9.7-16.7 9.6-7.3 4.8a52 52 0 0 0-11.5 6.2q-.4-.8.3-1.4 18-11 35.6-22.5.8-.6 1.3-1.4a26 26 0 0 0 6.5-3.8q.8-.6 1.2-1.4"/><path fill="#713e3b" d="M302.3 133.4q1 .4 1.7 1.6l-1.4.2zm.3 1.8-1.5 1q.4-1 1.5-1m50.8 21.3-1.2.7q.2-1.1 1.3-.7m-119.2 114-1 .7q0-.8 1-.7m-1 .7-1.8 1.2q.2-1.5 1.7-1.2m-1.8 1.2-1.3.9q.3-1 1.3-1m-1.3.9-1.9 1.3q.3-1.8 2-1.3m-7.2.5q-.2 1-1.3.8zm5.3.8c-1.8 1-4.3 3.4-6.3 3.5 1.2-1.5 4.1-4.3 6.3-3.5m-6.6 0q-.6 1.9-.7 3.7-1.2-.4-2.2-1.4a6 6 0 0 1 3-2.3"/><path fill="#632f2f" fill-opacity=".2" stroke="#632f2f" stroke-opacity=".2" stroke-width=".5" d="M180.1 260.9q.7 0 .8.8l-11.7 7.2-.2-1.3q.1-.7 1-1 5-3 10.1-5.7Z"/><path fill="#5e3230" fill-opacity=".2" stroke="#5e3230" stroke-opacity=".2" stroke-width=".5" d="M287.4 110.2c.8-.2.5 1.4.5 1.8a2 2 0 0 1-1.2 1.3 46 46 0 0 0-7 4q-.7.4-1.7.5 0-1 .7-1.6z"/><path fill="#7d4741" d="m300.5 136.5-1.3.8q.3-1 1.3-.8m-1.4.8-1.8 1q.3-1.5 1.8-1m-1.8 1-1.3.8q.4-1 1.3-.8m37.6 15a1 1 0 0 1-.8.7q.2-.6.7-.7m-100 113.6q-.4.7-1.3.8zM233 268a2 2 0 0 1-1.3.7zm-1.3.7q-.3 1.5-1.8 1zm-1.8 1q-.4.9-1.4.9zm-1.3.9q-.1 1.7-1.8 1zm-1.8 1q-.2 1.8-2 1zm-2 1q-.3 1-1.3.9z"/><path fill="#562a2a" fill-opacity=".2" stroke="#562a2a" stroke-opacity=".2" stroke-width=".5" d="m267.7 90.3.2.7c-1.8 1-5.8 4-7.9 4 0-1.6 4.8-3.4 6-4.7q.8-.4 1.7 0Z"/><path fill="#74403c" d="M341 148q1.2.2 2.1.8-1.4 1.3-3.2 1-.3-1.4 1.2-1.8m-1.1 1.9q0 .8-.8 1.2zm-.8 1.2-2 1.2q.3-1.8 2-1.2m-102 117.4-1 .7q.3-.9 1-.7"/><path fill="#7a453f" d="M300 133q0 2.2-2.2 1.5zm-2.2 1.5q0 1.8-2 1.3 1-.8 2-1.3m-2 1.3q-.2.7-1 .7zm-3 2q0 .9-1 .7z"/><path fill="#7f4942" d="M354 153.1q-.6.6-1.3.6zm-1.3.6q-.2 1.6-1.8 1.1zm-1.8 1.1q-.3.7-1.1.7z"/><path fill="#754840" fill-opacity=".6" d="M304.2 299q.4.3.4.7-.5.6-1.3 1l-.3-.5q.1-.9 1.2-1.2"/><path fill="#76413d" d="m295.4 139.4-1.3.7q.3-.9 1.3-.7M193.9 245q-.5.7-1.3.7z"/><path fill="#584d23" fill-opacity=".4" d="M83.2 368.9q0 1.3-.9 2.2-.8-1.8.9-2.2"/><path fill="#6d3737" fill-opacity=".2" stroke="#6d3737" stroke-opacity=".2" stroke-width=".5" d="M301.9 300.2h1l.4.5-1.4.5z"/><path fill="#663434" fill-opacity=".7" d="M173.2 324.8q.6 0 1 .3-.4.8-1.3 1.2z"/><path fill="#673434" fill-opacity=".3" stroke="#673434" stroke-opacity=".3" stroke-width=".5" d="M310.3 311.8H308c.2-1.1 2-1 2.4 0Z"/><path fill="#512b2b" fill-opacity=".2" stroke="#512b2b" stroke-opacity=".2" stroke-width=".5" d="M388.4 266.1q1 .5.7 1.6a73 73 0 0 0-8 5.1q-1 .3-2.1.1c.3-1.1 8-5.8 9.4-6.8Z"/><path fill="#693736" fill-opacity=".9" d="M368.6 174c.1 1.8-.2 5.3-1.6 6.7l-11.5 6.7c-1.1-1.9-2.8.1-2.8-2.6zm-18.8 12.8q-.3.8-1.2.8zm-1.8 1.1q-.3.8-1.2.9zm-1.2.9q-.3.8-1.2.8zm-1.2.8q0 1.7-1.7 1.1zm-1.7 1.1q-.4.9-1.3 1zM342 192q-.3.8-1.2.8zm-1.2.8q-.3 1-1.2.8zM339 194q-.3.8-1.2.8zm4.2.6-1 .6q.2-.7 1-.6m-3 1.7-1.2.7q.3-.7 1.1-.7M168.8 208l.9-.4.6 1.6-1 1.1z"/><path fill="#77433e" fill-opacity=".6" d="M145.2 178c-.7-.6-2-1.8-.8-2.6 2.2-2.1 3.6-2.3 6.5-3 1-1 3.1-3.4 4.7-3l-5.2 5.3a8 8 0 0 0-3.5 2.6q-.9.6-1.7.6"/><path fill="#653434" fill-opacity=".3" stroke="#653434" stroke-opacity=".3" stroke-width=".5" d="M141 310c-.6 1-4 4.2-5 2.7.5-1.3 3.7-2.7 5-2.8Z"/><path fill="#6b3636" fill-opacity=".2" stroke="#6b3636" stroke-opacity=".2" stroke-width=".5" d="M180 299a16 16 0 0 1-8.2 5.2q.2-1.2 1-1.7c2-.8 5.2-3.5 7.3-3.5Z"/><path fill="#683434" fill-opacity=".3" stroke="#683434" stroke-opacity=".3" stroke-width=".5" d="M182 298q-.3 1.5-2 1 .6-1.2 2-1Z"/><path fill="#653535" fill-opacity=".4" stroke="#653535" stroke-opacity=".4" stroke-width=".5" d="M185 296q.5-1 1.5-1c1.1.7-1 1.2-1.4 1Z"/><path fill="#663434" fill-opacity=".4" stroke="#663434" stroke-opacity=".4" stroke-width=".5" d="M328.2 274.7c0 1.3-2.2 3-3.1 2 .3-1.2 2.1-1.5 3-2Z"/><path fill="#643131" fill-opacity=".2" stroke="#643131" stroke-opacity=".2" stroke-width=".5" d="M362.2 269.8a4 4 0 0 1-3.2 2.3q.7-2.3 3.2-2.3Z"/><path fill="#663535" fill-opacity=".4" stroke="#663535" stroke-opacity=".4" stroke-width=".5" d="M216 113q-1 2-3.2 2.2.9-2.2 3.3-2.2Z"/><path fill="#653535" fill-opacity=".4" stroke="#653535" stroke-opacity=".4" stroke-width=".5" d="M216 113q.1-.5.7-.5-.2.4-.6.5Z"/><path fill="#673434" fill-opacity=".4" stroke="#673434" stroke-opacity=".4" stroke-width=".5" d="M172 97c-.5 1.5-3.8 3-5.2 3.2.5-1.5 3.4-3.7 5.1-3.2Zm18.8 3.2c.3-1.4 3.4-3.5 4.8-3.3 1.2 1.2-3.8 3.2-4.8 3.3Zm-5.7 195.9a4 4 0 0 1-3 1.8q.6-2 3-1.8Z"/><path fill="#683636" fill-opacity=".2" stroke="#683636" stroke-opacity=".2" stroke-width=".5" d="M160.9 90c0 1.6-1.8 2-3 2q.6-2 3-2Z"/><path fill="#663434" fill-opacity=".4" stroke="#663434" stroke-opacity=".4" stroke-width=".5" d="M160.9 90c.3-1 4.3-4 5-2.6a8 8 0 0 1-5 2.5ZM359 272c-.4.9-2 2.5-2.9 1.6q.7-2 3-1.5Zm-213 35c-.6 1.5-3.2 3.1-5 3 .3-1.6 3.6-2.8 5-3Z"/><path fill="#673333" fill-opacity=".3" stroke="#673333" stroke-opacity=".3" stroke-width=".5" d="m260.8 64 .2 1.1a8 8 0 0 1-5 2.9c0-1.4 3.7-3 4.8-4Z"/><path fill="#673434" fill-opacity=".2" stroke="#673434" stroke-opacity=".2" stroke-width=".5" d="M263.7 63.1q-.3 1.3-1.5 1.9l-.2-1.1q.5-1.1 1.7-.8Z"/><path fill="#663434" fill-opacity=".4" stroke="#663434" stroke-opacity=".4" stroke-width=".5" d="M266 46c.1.9-1.3 1.7-2 .7q.8-1 2-.8Zm-9 51c0 1-1.4 1.7-2 .7q.8-1 2-.6Zm-111.2 45.3a2 2 0 0 1 1.8-1.4c1.1.9-1.3 1.4-1.8 1.4ZM358 238.8c-.4 1.1-4.3 4.4-5 3a9 9 0 0 1 5-3Z"/><path fill="#663434" fill-opacity=".5" stroke="#663434" stroke-opacity=".5" stroke-width=".5" d="M316 45c0 .9-1.4 1.7-2 .7a2 2 0 0 1 2-.8ZM172 97q.6-1.9 2.6-2c1.4 1-1.9 2.2-2.7 2Zm207 176c-.4.8-2 3-3 1.6q1.2-1.3 3-1.7Zm-233 34c.2-1 4.2-4 5-2.7-1.1 1.2-3.3 2.9-5 2.6Z"/><path fill="#663434" fill-opacity=".3" stroke="#663434" stroke-opacity=".3" stroke-width=".5" d="M269.1 44a4 4 0 0 1-3.1 2q.8-2.2 3.1-2Zm-9 51q-1.2 1.7-3 2 .4-2.2 3-2Z"/><path fill="#663434" fill-opacity=".4" stroke="#663434" stroke-opacity=".4" stroke-width=".5" d="M316 45q.4-2.3 2.6-2c1.7 1-2 1.6-2.5 2Zm-60 23c-.5.9-1.8 2.4-2.9 1.5q.8-1.8 2.8-1.5Zm-38.1 44q.2-.9 1-.6-.3.6-1 .5Z"/><path fill="#653434" fill-opacity=".5" stroke="#653434" stroke-opacity=".5" stroke-width=".5" d="M259 36c-.5 1-2 2.5-3 1.6q.9-1.8 3-1.5Z"/><path fill="#663434" fill-opacity=".3" stroke="#663434" stroke-opacity=".3" stroke-width=".5" d="M267.1 30.9c-.6 2-6.5 5-8 5.2q0-.6.4-1c2-1 5.3-4.5 7.6-4.2Z"/><path fill="#6d3c39" d="M355 152q1.8.6 3 2l-2.4 1.2-.7-2zm.6 3.2-1.6.9q.4-1 1.6-.9"/></svg>