<svg xmlns="http://www.w3.org/2000/svg" style="shape-rendering:geometricPrecision;text-rendering:geometricPrecision;image-rendering:optimizeQuality;fill-rule:evenodd;clip-rule:evenodd" viewBox="0 0 512 512"><path fill="#262626" stroke="#262626" stroke-width=".5" d="M82.7 4.7q1.8.4 3.7 0c8.3-.5 17 .2 25.3 0a8 8 0 0 0 3.6 0c16-.4 32.4 0 48.4 0a8 8 0 0 0 3.7 0c7.4-.6 14.8.2 22.3 0q1.8.5 3.7 0a631 631 0 0 1 32.9 0c7 0 14.4-.4 21.4 0q1.8.5 3.6 0c5.3-.4 11 0 16.3 0q1.8.5 3.6 0c9.8-.5 19.6.2 29.4 0q1.8.4 3.8 0a4273 4273 0 0 1 77 .2c5.1.5 8.2 1.8 13.1-.5 2.8.4 3.8 2.3 6.6.5q.1 1.1 1.4 1 1.8 0 3.5-.8c11.2-.2 25-1.2 36.5-2 17.6-.6 34.8-.5 52 3C508 14 510 19.6 511.1 35.5c.9 33-31 55.2-51.5 76.8L347.9 230.5a9 9 0 0 0-.3 3l.1 211.8c-4.1 21.2-31.2 24.8-48.5 28.6l-1.2.3c-1.3-.2-6.6 1-7.1 1.8-10.8 2.1-21 7.6-31 10.5-23 8.3-48.6 19.9-73.6 18.7q-4.2-.2-8.3-1.4-5.2-1.5-9.5-4.7c-1-3.5-.2-7.1-1.8-10.6q.8-5.6-.3-11.2a1331 1331 0 0 1-.6-171.8c2.4-41.2 1.8-64.6-25.5-97.5a833 833 0 0 0-40-44.9q-48-50.3-95.9-101C.8 47.1-1.8 29 7.2 15.3q.8-.6 1.1-1.4-.3-.6.3-.9l5.8-4c2.3-1.3 7-3.7 9.2-4.1q2 .4 3.4-.8 14.8-1.2 29.5.6c8.6 0 17.6-.3 26.2 0Zm-68.4 41v2.5c.6 1.6.9 7 2.3 7.8l5.9 1c2.3-.4 10 .6 11.6-.7l1-.4c2.4 0 22.4 2 22.8.5l2.2-.7c2.6 0 21 1.7 22 .6l1-.4c6.6-.1 16.9 1.4 22.9.5l1.2-.5c4.6 0 15 .9 18.9.5l1-.6c3.9 0 19.4 1.6 22 .4l.9-.5c12.8 1.2 25.3.4 38 .8l1.3-.5q8.1 0 16.2.7.8 0 1.2-.3l2.6-.6a4 4 0 0 0 2.6.2h1q5.2.5 10.3-.1l15.2.5a6 6 0 0 0 2.2-1c1 1.4 3 .7 4.3.5l17.5.6c5.7-.5 38.9.3 41.5-.2l1.3-.4c4.7-.1 17.1 1.3 20.9.4l1-.4c3.8 0 26.3 1.7 28 .4l2-.5q8.8.4 17.5 1c1.1-.3 7.1.6 7.4-.5l1.2-.3q9.7.1 19.4.8.9.2 1.3-.6l2-.5c2.8.2 28.8 2.2 30 .6l2.3-.4c5.2.5 36.3.8 38.8.4l2.2-.4q5.2.8 10.6 0c1.6 0 7.2 1.5 7-1.4.8-4.3 2.6-31.4-2.2-31.6q.6-1 .4-2-1.1-2.5-3.1-4.2a13 13 0 0 0-14-3c.2-1.4-2.2-1-3-.8-1-1-16.3-.5-18.9-.5h-7c-6 .3-13.4-.4-19.2.7a9 9 0 0 0-6.4 0c-1-1.1-3.2-.5-4.4-.7q-38.7-.6-77.2.2-2 0-4 .5 0-.6-.6-.6c-6 0-13.6-.5-19.4.6a5 5 0 0 0-3.8 0q-.5-.9-1.5-.7-7.8.1-15.4-.1c-4.4.2-8-.3-12.4 1-1-1.5-3.3-.7-4.6-.2q-.3-.6-.9-.7a3383 3383 0 0 0-60.2 0c-13.2.6-31.8-.7-44 .2q-.8 0-1.4.4v-.3q-19.5-.9-39-.7-.9 0-1.3.9c-.4-1.1-5.2-.1-6.3-.6q-9 .3-18 0-7-.3-13.7 1c-2-2-36.7-.9-42-.6q-3-.4-6.4-.3c-30.7-.5-34.7.8-32.6 33.4Zm9.5 21c1.3 2.4 4.8 5.8 7 7.5l3 4 7.4 7.2q.9 1.7 2.7 2.4c.4 1.2 5.6 7.4 7.2 7-.1 1.7 3.3 5.3 5 5.2 0 2.3 4.7 5.7 6.2 7.4l2.3 2.5q3.5 3.8 7.3 7.1a29 29 0 0 0 7.4 7.1c0 1.1 3.4 4.7 4.6 4.5.2 1.8 5.7 6.9 7.3 7.6.2 1.2 3.4 4.6 4.8 4.6 0 1.6 5.6 7 7.3 7.5q0 .8.3 1.4l7.3 6.5q.2.9.8 1.6 3.3 3.5 7 6.5l1.1 1.8 14.1 14.2q2.4 3 4.9 5.6a445 445 0 0 1 16.8 19.9q2 4.1 5.1 7.6.4 1.5 1.4 2.7 4.3 8 8.2 16.2c-.2 1.6 2 6 2.4 7.9l3 12L178 271q0 3.5.4 6.8l.7 10.5-.2 2.7q0 5.7.3 11.3v3.4a119 119 0 0 0-.1 14 463 463 0 0 0-.2 20.4v1q-.7 2.2-.5 4.6-.4 5.8-.2 11.7-.3 2.5 0 5.4-.4 10.7-.3 21.4-.8 2.2-.5 4.6-.4 5.7-.1 11.4-.4 3.9-.4 7.8l.2 14.7q-.7 5.8 0 11.6-.9 4.2-.8 8.5c.2 1.5-.5 9.1.3 9.9q3.4-.8 6.7-1.1.5-.1.5-.6c10.4-2.3 33-9 43.3-13.4 15.6-3.2 35.8-9.4 50.7-15.2a60 60 0 0 0 13.3-3.2c1.5 0 2.5-1.9 3.8-1.3.7.1 2.2.2 2-1 6.8-.9 22.5-5.8 29-9.5 2.8.1 4.4.3 7.3-.6.8 0 2.7-.3 2.4-1.5q.1-5.1-.7-10.3l.2-1-.1-4.7q0-5.9-.3-11.6.3-1-.6-1.5c.9-6.6-.2-16.3 0-23.3q0-4-.4-7.7c0-2.8.4-8-.6-10.5l.1-.8q.4-1.4-.4-2.6c1-3.2.4-8.2.1-11.6q.4-3.8 0-7.4.4-5.9 0-11.6.4-2.2 0-4.5A307 307 0 0 0 334 274l.7-5.7a161 161 0 0 1 2-17q3-11.8 6.7-23.3c1.1-.5 2-3.4 2.3-4.6 1.6-3.8 11.4-17.1 12.2-19.5q1-.8 1.4-2 .4.1.8-.2c2.4-4 26.8-27.4 26.8-28.9q1.5-1.6 3.6-2.7a6 6 0 0 0 1.4-2q.9-.2 1.2-1 13.7-13 27-26.4.8-.7.6-1.8 1 0 1.6-.8l1-1q5.8-5 10.7-10.8 15-14.5 28.8-29.8c1.9-2.7 16.4-16.7 16-18.5q1.2 0 1.5-1.2 3-1.8 5.4-4.5l1.6-1.1 1.5-1.9q1.4-2.3 3.4-4.2.4-.7 0-1.6-6.8-.4-13.4-.1h-77q-3.3-.4-6.4 0a3025 3025 0 0 0-50 0H232a7 7 0 0 0-4 0 618 618 0 0 0-30.8 0l-80.6-.1q-4.8-.2-9.5.5-.8-.6-2-.5a5862 5862 0 0 0-78 .1q-3.4-.3-6.7.2 1.4 2 3.4 3.2Zm306 347.4c-7.5.8-24.8 7.3-33.4 8.9q-.9 0-1 .8-5.5 1.5-10.9 3.2-1.3.4-2.5 1.3c-8.8 1.4-23 6.9-32.5 8.7q-.8 0-1.3.8-8.3 2.3-16.3 5.3a445 445 0 0 0-36.5 10.9c-3 .6-10.3 2.2-12.5 4-1.3.1-5.8.7-6.5 1.8a252 252 0 0 0-.2 18.4c-.3 2.4.8 8.7 2.2 10.7q0 1.2.8 2.3c.6 2.4 4.2 6.1 6.6 6.5 5 2.3 10.4.6 15.4-.9q1.1.3 1.8-.7 1 0 2-.8l2-1a256 256 0 0 1 39.8-12 63 63 0 0 0 9.3-2.5q1.5.3 3-.6l1-.4 29.4-6.8q.9 0 1.2-.8c7.1-2.2 16-4.5 22.4-8.1 14.2-6.3 23.8-11.7 22.5-28.9q.3-1.7.2-3.4a86 86 0 0 0 0-11.5c0-1.4.7-6.4-.4-7.2q-3.2 0-5.7 2Z"/><path fill="#2c52ce" stroke="#2c52ce" stroke-width=".5" d="M47 12.4q3.1 0 6.4.3c-1.1 2.8-10.8 6.8-13.4 9q-2.7 1.1-1.2-1.4zm62 0c-3.6 3.3-26.8 15.5-32.7 19.4-1.5.7-1.5-.7-.4-1.4 4.5-4.5 15.9-13.3 19.4-17.2q6.8-1.1 13.7-.9Zm18 0c1.1.4 6-.6 6.3.5-.3.7-17 10-19.3 11.4-.7.3-1.3 1.2-2 .3q0-.9.8-1.3zm92 0h5c-3.4 3-11 5.8-15 9.3-1.6 1-2.7-.2-1-1.3zm200 0c1.2.2 3.5-.5 4.4.6q-5.7 3.5-11.2 7.4L411 20c.6-2.1 6.3-5.8 8-7.7Zm30 0h7c2.4 1.3-1.2 1.8-2 2.3q-10.5 6.6-21.6 12.4c-.8-.7.1-1.1.5-1.7zM62.8 21.1c1.3-2.5 6.7-5.9 8.9-7.9 1.1-.3 4.4-1.3 5.1.1l-8.7 5.4c-1.5.5-3.9 2.5-5.3 2.4Zm76 1.7c.4-1.8 15-13.5 17-9.5L143.4 21c-1.3.4-3.3 2.3-4.6 2Zm34.8-10q.7 0 1.3-.3 1.8.3 3.7.1 2.4.6.1 1.7c-5.3 2.9-10.7 5.7-15.7 9.3-1.5 1-2.7-.2-1-1.3q4.8-3.6 9.9-7 1-1 1.7-2.4ZM368.1 18c1.7-1 8-7.2 9.7-4.6-1.4.7-9.4 7-9.7 4.6Zm19.8 2c.5-1.7 8.1-7.8 10.6-7.3 4.5 0-9.4 7-10.6 7.3Zm104-3.4q2 1.7 3.1 4.2-1 .2-2 .7-7 4.4-13.9 9l-1.9.7c0-2.2 12.8-12 14.7-14.6Zm-53.7 39.2q-1.2 0-2.2.4-5.8-.5-11.6-.2-1.2 0-.8-1a1955 1955 0 0 1 35-20.1l.2.4q-1.2 1.7-2.8 3.1c-2.4 2.3-17.6 15.6-17.8 17.4Zm-403 0-1.1.4c-2-.5-12 .4-12.8-.9l33.4-19.2c1.4-.7 1.5.7.4 1.4-4 3.4-17.7 14.9-20 18.3Zm322-.1-2.2.5q-4.7-.5-9.5-.3-.7 0-1.2-.6L375 37.6q.7-.5 1.5-.5.8.4.2 1c-2.5 2.2-19.3 16-19.6 17.7Zm26 .2-1.2.3c-1.6-.8-7 .4-7.8-.9Q386.7 48 399.5 41c.9.8-.5 1.5-1 2q-7.8 6.3-15.3 13ZM234.8 42.7l1 .2c-1.8 2.7-12 10.4-12.6 13q-5.1.6-10.2.1l.4-1q11-5.8 21.4-12.3ZM60 55.7l-2.2.6q-2.3-.4-4.4-.3-.8 0-1.3-.6 8-4.5 15.7-9.2l4.6-2.2c.8.6-.2 1-.5 1.5l-11.1 9q-.6.4-.8 1.2Zm23 .2-1 .4a26 26 0 0 0-4.6-.3c-.9-.6-.1-.9.5-1.3l13.5-7.6q1.3-.8 2.5-1.8c1.4-1 2.4.3 1 1.1a52 52 0 0 0-12 9.4ZM493 47q-5.3 2.9-10.3 6.2-1.8 1.2-3.4 2.7l-2.2.4c-1 0-2.5-.7-1-1.6l16-9.3c2-1.3 2.4.4 1 1.6Zm-385.8 9-1.2.5q-2.3-.6-4.5-.3a2 2 0 0 1-1.3-.7q8.6-4.9 17.3-9.5l.4.4c-.5 1.6-8.2 6.8-9.8 8.4zm42.8-.2-.9.5c-1.3-.5-4 .6-4.9-.8q7.5-4.2 14.7-8.9.7-.5 1.6-.4c1 .6.3 1-.4 1.5a134 134 0 0 0-9.2 6.8q-.6.6-.9 1.3Zm177.2.2-1.1.4a10 10 0 0 1-3.9-.9q6-3 11.7-6.9a2 2 0 0 1 2 0q0 .8-.7 1.1a28 28 0 0 0-8 6.3Zm78.8-.2-2 .5q-1.3 0-2.4-.3-.5-.8.4-1.2l10.5-5.8.3.4c-1.3 2.5-6 4.1-6.8 6.4ZM27 63.3h21.3C45.8 64.7 31 72 30.8 74.1a33 33 0 0 1-7-7.5c1.4-.7 4-1.2 3.3-3.4Zm26.7 0h51.4v.5q-1.2.2-2.3.8-1.5 1.5-3.6 2.1L51.1 94.8c-1.5.4-6.8-5.8-7.2-7a365 365 0 0 0 30-20.7c.4-.4 4.3-1.2 2.7-2.1q-2.1 0-2.6 2c-2.7-.2-8 4.4-10.5 5.7q-11.3 6-22.2 12.6-3.8-3.5-7.3-7.3a83 83 0 0 0 20-14.8Zm143.4 0c-.3 1.5 1.3.7 1.7 0q14.6-.3 29.2 0-4.2 3.1-8.5 5.9-.9.7-1.6 1.6-2.2 0-3 2.2-1.3-.3-2 .7c.6 1 2.1.2 2-.7q2.2-.3 3-2.2 1 .1 2-.3l12-7.2h113.3a1225 1225 0 0 0-29.2 19q-.9.1-1.7.6l-9.8 6.4q-1 .7-1.5 1.6a9 9 0 0 0-5.1 2.8c.7 1.5 4.6-1.7 5-2.8q1.1.1 2-.4l11.7-6.8c3.8-2.8 33.5-18.5 34-20.5h44.7a3740 3740 0 0 0-56.8 36 4 4 0 0 0-1.6 1.7 6 6 0 0 0-5 3.1q-1.5-.3-2 1c-1 .3-2.7.6-3 1.7 1 1.4 2.5-.8 3-1.7q1.5.3 2-1c1.7-.2 4.3-1.5 5-3q1 0 2-.6 6-3.3 11.7-6.8l49-28.3q1.5-.5 2-2h65.6l-3.5 1.7-1.1 1-3 1.7q-2 1.1-3.6 2.6-.8.2-1.4.6-1 .7-2 1.1l-1 1a38 38 0 0 0-6.5 4.2q-.9.2-1.6.8t-1.8 1l-1.1 1-3 1.7q-2 1.2-3.6 2.6-.8.1-1.3.7l-2 1-1.1 1-3 1.7q-2 1.2-3.6 2.6-.9 0-1.4.7l-2 1-1 .9-1.8 1-1.2.8-1.8 1.2-1.2.8-.7.6-1.3.6-1.9 1.1-1 1-3 1.7-2 1.2-1.1.8-.7.6q-.8.1-1.3.7-1 .7-2 1l-1 1-1.8 1-1.2.7-1.8 1.2-1.2.8-.7.5q-.8.3-1.3.8l-1.9 1-1 1-3.1 1.7-1.8 1.3-1.2.7-1 .4-1 .7q-.8.9-2 1.2l-1 1-2 1.1-5.7 3.6q-.8.3-.8 1.2H365l-6.5 4.2q-.4.3-.4 1-2.4-.3-3 2-1.5-.5-2.1 1c-1 0-2.8.2-3 1.5 1 1 2.6-.6 3-1.6q1.4.2 2-1 2.1-.2 3-2c2.3 0 5.4-2.2 7-3.7l1.4-.5 7.7-4.4a20 20 0 0 1 4-2.4l1.2-.7 2-1.2q1.8-1.2 3.7-2l1.3-.8.7-.6q.8-.1 1.3-.6l5-2.8 5-3 .8-.5 1.2-.7 5-2.8.7-.5 1.3-.7 5-2.8.8-.6 1.3-.6 4.9-2.8q2.8-1.5 5.5-3.5.8-.2 1.5-.7 3-1.4 5.5-3.4.7 0 1.5-.6l3.7-2 1.3-.8.7-.6q.8-.1 1.3-.6l5-2.8q3-1.6 5.4-3.6 1-.1 1.7-.6l5-2.8.6-.6 1.4-.7 5-2.7.6-.5q.8-.2 1.3-.7 2-1 3.4-2.3 1 0 1.6-.7l5-2.8.8-.6q.6 0 1-.5.6-.3.7-1 6.8 0 13.4.2.4.7 0 1.6a20 20 0 0 0-3.4 4.3q-1-.2-1.8.3l-1 1-1 .4a858 858 0 0 0-26 16.4q-.7 0-1.6.5l-9.8 6.2q-.5.3-.5.8l-1.3.2q-1.3.5-1.7 2a7 7 0 0 0-5.2 2.8q-3 .6-5 3-1.4-.2-2 1.1-2 .2-2.8 2-1.5.9 0 0a3 3 0 0 0 2.8-2q1.6.4 2-1a6 6 0 0 0 5-3.1c2 .1 4-1.3 5.2-2.9a2 2 0 0 0 2-.8l1.2-.4 12.4-7.2A297 297 0 0 1 479 78c.3 1.8-14.2 15.8-16.1 18.5a709 709 0 0 1-28.8 29.8q-1-.1-2 .4l-68.4 43.6q-1 .5-1.4 1.6c-1.5 0-4.8 1.6-5.2 3.1-1.6.1-4.5 1.7-5 3q-2.4 0-3 2-1.2 0-1.9.8c.6 1 1.8 0 1.8-.8q2.1 0 3-2c2 .3 4.3-1.3 5-3q3.5 0 5.3-3.1 1.3 0 2.5-.5c18.3-11 37.5-21.6 56-32.5a2 2 0 0 1-.6 1.8Q406.8 154 393 167q-.9 0-1.2 1h-1.3q-4.4 2.6-8.4 5.7-4.2 2.2-8.3 4.8a2 2 0 0 0-.8 1.4q-2.6.4-4.6 2l-.5 1q-2.4-.3-3 2a2 2 0 0 0-2 .7c.6 1 2 .2 2-.7q2-.5 3-2a8 8 0 0 0 5-3q1.1 0 2-.5 3.9-2.4 8-4.5 2-1.3 3.9-2.3c0 1.5-24.4 24.8-26.8 29q-.4.2-.8.1-.6-.8-1.3-.2-5.1 3.5-10.4 6.6-1 .6-1.5 1.8c-.8-.1-2.3-.1-2 1q-2.2 0-3 2-1.5 1 0 0 2 0 3-2 1.4.3 2-1 1 0 1.9-.6 5-3 9.9-5.6c-.8 2.4-10.6 15.7-12.2 19.6q-.9-.7-1.7-.1-6.9 4.8-13.9 9.3c-1 .7-3 .6-3 2.2-1.3 0-4.8 1.8-5 3.1q-2.1 0-3 1.7c1 1 2.5-.8 3-1.6 2.3.3 4-1.4 5-3.2l2-.2q4.8-3.1 9.9-6 2.1-.6 4.4-.7-3.7 11.6-6.7 23.3-1-.2-1.7.4l-38.4 25.6q-1.5 1.9-3.7 2.3-.9.5-.8 1.4a8 8 0 0 0-5 2.8c1.2 1.6 4.4-1.7 5-2.8 3.4 0 38.2-21.6 44-25q-1 6.2-1.4 12.3-1.2.2-2.1.9l-40 27.1c-1.9 1.2-6.7 3.7-7.5 5.8q-2.3-.2-3.2 2a2 2 0 0 0-2 1q-1.8.3-2.9 1.6c1 1.3 2.6-.5 3-1.6.6.1 2.2.1 2-1q2 0 3.1-2c1.9 0 7-3.4 8.6-4.4l37-21.3q1.2-.6 2.1-1.6l1 .3q0 10.7-.8 21.3c-3 0-32.2 21.1-36.8 24.3-1 .6-3 .6-3 2.2q-2.4.1-3.2 2.2-1.2-.2-1.9.7c.6 1 1.8.1 1.9-.7q2.2 0 3.1-2.2l2-.2c12.2-7.8 25.2-14.7 37.8-22q.4 6 0 11.7a2 2 0 0 0-1.6.4L275 351.5q-.6.5-.8 1.3a8 8 0 0 0-5.2 3.2c-1 .3-2.7.5-3 1.7 1 1.2 3.1-.2 3-1.7 1.8.3 4.3-1.7 5.2-3.2q2.7-.5 5.1-2.2l53.6-30.9c.3 3.4.9 8.4 0 11.7q-1-.2-1.9.3l-20.3 13.6a26 26 0 0 0-7.7 5.6q-3 .5-5 3.1c-1 .2-2.7.3-3 1.6 1 1 2.6-.6 3-1.6a6 6 0 0 0 5-3.1c2 .2 7-3.3 8.7-4.3a475 475 0 0 0 20.2-12l1.2.1c1 2.6.7 7.7.6 10.5q-32 21.6-63.7 43.6l-.7 1q-1.7.5-3 1.5.7.7 1.7.4c20.9-14 44.4-25.9 66-38.8 0 7 1 16.7.1 23.3q-1 0-2 .6l-15 9.9a2 2 0 0 0-.9 1.5l-1.2-.2c-1.4 1-6.6 3.6-7 5a3 3 0 0 0-3 2q-1.2 1.2 0 0 2.1 0 3-2l2.1-.2 5-3.5 1.1-.6 16.5-9.3 2-1.7q.4 5.7.3 11.6a3 3 0 0 0-1.7.5l-37.6 25.5c-1.2 1.2-4.7 2-4.6 3.9q-1.2-.4-1.9.7-5.6 1.8-11.4 2.5c-15 5.8-35 12-50.7 15.2a343 343 0 0 1-43.3 13.4q0-.5-.2-.6-.4.3.2.6 0 .4-.5.6l-6.7 1c-.8-.7 0-8.3-.3-9.8q1.7-.7 3.2-1.7l64.4-44.9c.5-.5 4.3-1.3 2.7-2.2q-2.2 0-2.7 2.2c-2.9-.3-7.8 4.2-10.5 5.6a2740 2740 0 0 0-56.4 32.5q-.6-5.8 0-11.6 1 .2 1.7-.3L205 405c1.5-1 4.2-2.3 5-4q2.1 0 3-2 1.2.2 2-.7c-.6-.9-2.1-.3-2 .7q-2.1.1-3 2-3 .5-5 2.7-1.6.4-3 1.4l-25 14.2V408q1 0 2-.7l59.6-41q1.4-.9 2.3-2.2c.8 0 3.7-1.1 2.7-2.2a3 3 0 0 0-2.7 2.2l-2 .2-61.6 36q-.3-5.8 0-11.5a4 4 0 0 0 2.2-.8q18.5-12.5 37.2-24.7 1.3-.9 2.2-2.2 2.1-.2 3-2a2 2 0 0 0 2-.8c-.6-1-1.8 0-2 .7q-2.1.1-3 2c-3 .2-7.8 4-10.5 5.8q-15.5 8.4-30.5 17.4-.1-10.7.2-21.4.9 0 1.6-.5c16-10.9 33.6-24.8 50.4-33.9q.8-.3.8-1.2c.8.2 4.5-1.1 2.6-2.1a3 3 0 0 0-2.6 2q-3 .1-4.8 2.6-23 12.8-45.8 26a7 7 0 0 0-2 1.7q-.3-6 0-11.7 1.7-.7 3.2-1.7c12.4-8.2 25.6-18.6 38.6-25.5q.8-.4.8-1.2 2.2-.3 3-2.4c.6.2 3-.1 1.6-1q-1.2 0-1.6 1-2.2.3-3 2.4a583 583 0 0 0-40.7 23l-1.3-.2.1-20.4c3.8-1.3 20.3-13.3 25.3-15.8q4.4-3 8.7-5.6.7-.4 1-1.2 2-.3 3-2 1.2 0 1.8-.8c-.5-1-1.6 0-1.8.7q-2.2 0-3 2l-2 .2q-4.5 2.9-9 5.5-12 7-23.9 13.7-.2-5.4 0-10.7c5.8-3.1 19-11.8 25.1-16q4-2.1 7.9-4.7l8.3-5.2q1-.7 1.6-1.8c.7 0 2.1 0 2-1q2-.1 3-2 .5 0 .6-.5-.6-.3-.6.6-2.4-.5-3 1.9-1.5-.3-2 1-2.4.7-4.6 2-3 1.6-5.4 3.7-4.5 2-8.8 4.6l-24 14q-.3-5.6-.3-11.3c2.6.5 28.9-18 33.4-20.2l8.1-5q1-.6 1.6-1.8c1.3.3 4.8-1.7 5-3q3-.5 5-3 2.1-.1 3-2c.7 0 2.8-.3 1.6-1.1q-1.3-.1-1.5 1c-1.2.3-3 .6-3 2.2-1.9-.4-4.3 1.4-5.2 3q-3 .3-5 2.9c-2.2-.2-8.5 4.6-11 5.6L179 288.3l-.7-10.5q.7-.7 1.6-.8.8-.2 1.3-.8 3.3-2 6.5-4.4.9-.2 1.6-.8l2.9-1.7 6.5-4.5q.9-.2 1.6-.8l1.6-1 1.2-.8q3.5-2 6.6-4.5.8-.2 1.4-.7l2-1 1.1-1q3.5-1.8 6.6-4.3.8-.1 1.4-.7l3-2 1.8-1 1.2-.7 1.8-1.2 1.2-.8.6-.6q.8-.2 1.4-.7l4.8-3 1.2-.7 3.6-2.5q.8-.2 1.3-.8l2-1.1 1.1-1a36 36 0 0 0 6-3.6q1.7-1.5 3.8-2.4l1.1-.7a5 5 0 0 1 1.9-1.2l1.2-.7q.8-.8 2-1.4c2.2-1.4 8.7-4.7 9.7-7 1.4.4 4.7-1.6 5-2.9q2.1-.1 3-2a2 2 0 0 0 2-1c1 .3 4.2-.9 2.6-2q-1.9.2-2.5 2c-.8-.1-2.2-.1-2.1 1q-2.1.1-3 2a7 7 0 0 0-5 3c-2.3-.2-8.6 4.5-11 5.6q-1.9 1.6-4 2.4-.8.3-1.3.7l-.7.5-1.4.7-5 2.8-.6.6-1.3.7-10 5.7-.8.6q-.7 0-1.2.6l-5 2.8-.8.5-1.2.8a40 40 0 0 0-5 2.8l-.8.4q-.7.2-1.3.7l-1.7 1-1.3.8-1 .4-1 .9q-3 1.3-5.4 3.3-.7.2-1.5.7l-5 2.7-.7.6q-.8 0-1.4.6l-5 2.9-.7.4-1.2.7a15 15 0 0 0-3.5 2.4q-.9.2-1.6.7-2.8 1.4-5.4 3.3l-1.5.6-5 2.8-.7.4q-1-9.6-2.4-19l58.4-35.8q.7-.6 1-1.3 2.1 0 3-2 1.2.1 2-1 2.2 0 3-2c.5.2 3-.3 1.6-1.1q-1.3 0-1.6 1c-1.2.3-3 .7-3 2.2-.7-.2-2.1-.2-2 1a3 3 0 0 0-3 1.9q-1-.1-2.1.2-8 5-16 9.5L175 249l-2.2-8.8q2.7-1.5 5-3.5.9 0 1.6-.6l1.8-1.1q.8-.4 1.2-1l3-1.7 3.5-2.5q.8-.2 1.5-.8l2-1 1-1 3-1.7 3.5-2.5 1.5-.7 2-1.2 1-.8 1.8-1 1.2-.8 3.5-2.6q.9 0 1.5-.7 1-.7 2-1l1-1 3-1.7 3.5-2.5q.8 0 1.5-.7l1.6-1.4q.8-.2 1.4-.6l1.8-1 1.2-.8 3.6-2.5q.8-.1 1.5-.7t1.3-1.3l1.6-.8 1.8-1 1.2-.7q3.4-2.2 6.5-4.6.8 0 1.4-.6l1.9-1 1.2-.8q1.8-1.2 3.5-2.6l1.5-.6q.9-.7 2-1.1l1-1 3-1.7 1.8-1.2 1.2-.8q1.9-1 3.5-2.5.8-.2 1.5-.7l1.8-1 1.2-.8 1.8-1.2 1.2-.8q2-1.1 3.6-2.5.8-.2 1.4-.8l3-1.7 1.8-1.2 1.2-.8q2-1 3.4-2.5a3 3 0 0 0 1.6-.8l3-1.7q.8-.9 1.8-1.3l1.2-.7q1.7-1.5 3.5-2.6.8 0 1.5-.4l1.7-1.3q1.3-.6 2-1.7l1.3-.4c2-1.2 5.4-2.8 6.7-4.8q1.5.3 2-1 2-.2 3-2c.4 0 2.6-.5 1.5-1.2q-1.2.2-1.5 1.2-2.4-.3-3 2-1.5-.3-2 1-1-.1-2 .4-2.7 1.3-5 3.3l-1 .2a7 7 0 0 0-2 1.7q-1.7.4-3 1.3l-1 1.2-1.1.1q-.7.2-1.2.6a30 30 0 0 1-5 2.8q-1.7 1.5-3.8 2.2a4 4 0 0 0-1.7 1.4l-1.5.6-5 2.8-.8.5-1.2.8-5 2.7-.7.5-1.3.8-3 1.7q-.5 0-1 .3l-1 1-5 2.7-.7.6-1.3.7a38 38 0 0 0-5 2.7l-.7.5-1.4.8-5 2.7-5.4 3.5q-.7.1-1.6.7a40 40 0 0 0-5.3 3.3q-.9.1-1.6.7l-3.7 2-1.3.8a32 32 0 0 1-5.7 3.3l-1.3.7q-3 1.5-5.4 3.6-.9 0-1.6.6-2.8 1.4-5.5 3.3l-6.5 3.5-.8.5-1.3.7-4.9 2.8a72 72 0 0 0-7 4.3 44 44 0 0 0-7 3.9l-5 2.9-.8.5-1.1.6q-2 1.2-4 2.1l-.8.7-.7.6q-3.9-8.2-8.2-16.2 1-.2 2-.7l57-35.4 16-9.7q.6-.4.8-1.3c1.5-.1 4.5-1.5 5-3 .9 0 6-2 4.7-3-1-.1-4.5 1.9-4.7 3-1.8-.2-4.1 1.6-5 3l-2 .2a235 235 0 0 1-13.3 8q-1 .7-1.6 1.6-1.7.2-3 1.2-28.8 16.4-57.3 33.4-3-3.5-5.1-7.6l2.6-1.6a65 65 0 0 0 6.7-4.5q.8 0 1.4-.6l2-1.1 1-1a36 36 0 0 0 6.5-4.2q.8-.1 1.5-.7l1.5-1.3 1.4-.7 3.1-1.8a21 21 0 0 0 3.5-2.6l1.5-.6 1.4-1.3q1-.2 1.6-.8l3-1.8q3.3-2 6.5-4.4l1.5-.8 2-1 1-1 1.8-1q.6-.2 1.2-.7 1.9-1.1 3.5-2.5.8-.2 1.5-.8l1.8-1 1.2-1a50 50 0 0 0 9.5-6.2l1.5-.7 3-1.8q3.5-2.2 6.5-4.6.9 0 1.6-.6l1.6-1 1.2-.9 3.1-2q1.9-1 3.6-2.4l1.4-.7 2-1.2 1.1-.8 1.7-1 1.2-.8 3-2 .7-.6q.8 0 1.3-.6 1-.8 2-1.2l1-.9 1.8-1 1.2-.7 1.8-1.2 1.2-.8 3.5-2.6q.9 0 1.4-.6a39 39 0 0 1 6.8-4.2l10-6.2q1.8-1.1 3-2.7 1.6.4 2-1c.7 0 4-1 2.6-2q-2.1-.1-2.7 2-1.3-.2-1.8 1-1.2 0-2 .5l-11.5 6.8q-.5.3-.5.8a21 21 0 0 0-5.2 2.5l-.7.6q-.9 0-1.4.7-.9.7-1.9 1l-1.3.8-.8.3-1 .8q-1.8 1.2-3.9 2.1l-1.2.8-.8.6q-.7.1-1.2.7l-5 2.7-.8.5-1.1.8a36 36 0 0 0-5 2.8l-.9.5-1.2.6-1.8 1-1.3.8-.9.4-1 .8-5 2.8-.8.6-1.3.5-5 3-.7.3-1.3.8-3.6 2.1-1.3.8-.8.5q-.8 0-1.3.7-1.8.9-3.5 2.2-.8.3-1.4.8-3 1.3-5.6 3.3l-1.4.6-5 2.8-.8.5-1.2.8a120 120 0 0 0-10.5 6.2q-.8.3-1.5.8-3 1.3-5.5 3.3-.7 0-1.5.7l-5 2.7-.7.6q-.8 0-1.3.6-1.9 1.2-3.9 2l-1 1c-2 1-4 2-5.6 3.4l-1.6.6-5 2.8-.7.5-1.2.8-5 2.7a2 2 0 0 0-.8 1.4L138.8 186q3-1.8 6-4.1.9-.2 1.5-.8.9-.6 1.5-1.3l1.5-.6 1.7-1 1.2-.9 6.7-4.4 1.4-.7q.8-.6 1.4-1.4.9 0 1.6-.6l2.9-2a85 85 0 0 0 11-7.1l3.2-2 1.7-1 1.2-.7 6.5-4.5 1.4-.7 2-1.1 1.1-1 1.8-1 1.2-.7q3.3-2.2 6.5-4.6.7-.2 1.5-.7l1.9-1 1.1-1 1.8-1 1.2-.7 1.8-1.2 1.2-.8 3.6-2.5a3 3 0 0 0 1.4-.8l2-1.1 1-.8 1.8-1 1.2-.8 1.8-1.2 1.2-.8 1.8-1.2 1.2-.8.8-.5 1.1-.7 3-2 1.8-1.1 1.2-.8a7 7 0 0 1 2.1-1.3c1-.8 6.7-3.7 6.5-4.7l1.2-.2c1.5-1.2 6.5-3.5 7-5q2.1-.2 3-2c.5.2 2.6-.4 1.5-1q-.9 0-1.5 1-2.1 0-3 2c-2 0-5.5 2.3-7 3.7l-1.4.4-7.7 4.5q-1.6 1.6-4 2.4l-1.2.7-.8.6-6.2 3.5-.6.5q-.8 0-1.4.6l-4 2-1 1-5 2.8-.8.6-1.3.7-5 2.7-.6.5-1.4.7-5.6 3.3-1.3.8-3 1.7q-.5 0-1 .3l-1 .9q-3 1.4-5.5 3.3l-1.5.7-5 2.8-.8.6-1.2.6-3.7 2-1.3.8-.6.6a2 2 0 0 0-1.4.7 12 12 0 0 0-3.5 2.2q-.7 0-1.5.7-3 1.4-5.5 3.3-.9.3-1.6.8l-5 2.7-.7.5q-.7.2-1.3.7l-4.9 2.8q-3 1.6-5.5 3.6l-1.6.6q-2.8 1.4-5.3 3.3a4 4 0 0 0-1.7.7 6 6 0 0 0-1.7 1.5l-14-14.3c4.8-.2 34.7-21.3 41.4-25.2l.4-.8 1.5-.1c1.6-1.4 6-3.2 6.8-5q2.1 0 3-2 1.4.3 2-1 1.1.1 2.2-.4 1.8-1.6-.5-1.2-1.3.3-1.8 1.5-1.5-.2-2 1-2 .3-3 2.1c-2-.1-5.3 2.5-7 3.7l-1.2.6q-21.6 12.3-43 25-3.6-3-7-6.5l20.3-12.4q.8-.5.9-1.4l1.4-.1c1.5-1.2 6.2-3.1 6.6-5a7 7 0 0 0 5.1-2.9c1.8 0 3.8-1.5 5-2.6-.8-1.3-5 1.6-5 2.6q-3 .5-5 3-1 0-2 .5-2.7 1.4-5 3.2l-1.2.5a692 692 0 0 0-22 13l-7.2-6.5q7.3-4.1 14.2-9l1.8-.6q4.5-3.1 9-5.8 1.5-.8 2.4-2.3 1.4.3 2-1 2 0 3-2c.7.2 2.7-.3 1.5-1.1q-1.4-.1-1.4 1.2-2.2 0-3.2 1.9-1.3-.2-2 1-1 0-1.9.6l-12.1 7q-6.2 3.8-12.5 7.3a2 2 0 0 0-1.1 1.4c-1.7-.4-7.2-5.9-7.3-7.5q1 .2 1.7-.4l72.6-48.6c2-1.4 6.8-3.7 7.7-5.8 1.8-.1 3.7-1.4 5-2.6-1-1.4-4.5 1.5-5 2.6-2.3 0-6.9 3.6-9.1 4.6q-38.2 22.2-76.5 44.2-.9.5-1.2 1.4c-1.6-.7-7-5.8-7.3-7.5q1 .2 1.8-.4l66.3-45q.7-.6.7-1.5l1.3.2c1.5-1 4.2-2.3 5-4q1 .2 2.1-.4 1.8-1.5-.5-1.3-1 .6-1.7 1.8-3 .3-4.8 2.6l-1.4.6L80.4 123a2 2 0 0 0-1.1 1.2c-1.6-.2-6.2-5.5-7.4-7l1.4-.1q1.2-.8 1.7-2 3.1-.5 5-2.9 2.1-.4 3-2c.6 0 2.8-.4 1.6-1.2q-1.4-.1-1.6 1.1-2.1 0-3 2.1c-1.8-.3-4 1.3-5 2.8a2 2 0 0 0-2 .9q-1 .3-1 1.2-3.8-3.3-7.4-7.1 14.3-9.2 28.3-18.6.8-.6.8-1.3H95c1.3-.8 4.7-2.5 5-4.1q1 .3 1.8-.6c-.5-.9-1.6 0-1.9.6q-2.9.7-5 2.8l-1.3.6-31.3 18.1c-1.5-1.7-6.2-5.1-6.2-7.4q.9 0 1.6-.7l46.6-33.5q1-.5 1.6-1.6l1.2-.4q4.7-.7 9.5-.6zM419 68q-1.5-.4-2 1-2.3.1-3 2-1.2-.2-1.8.8c.5.8 1.5-.2 1.8-.8a3 3 0 0 0 3-2q1.4.3 2-1c.9 0 5.7-2 4.6-3a8 8 0 0 0-4.7 3Zm-230.3 1.3c.8 0 4.4-1.2 3-2.3q-2.3.3-3 2.3ZM425.8 108q.8 0 1.1-.6-.8-.3-1.1.6Zm-88 107q.8 0 1.1-.5-.8-.4-1 .5Zm-109 59a1 1 0 0 0 1-.6q-.7-.3-1 .5ZM331 366q-2.1 0-3 2-1.3 1 0 0 2.1 0 3-2 .5 0 .8-.5-.6 0-.8.6Zm-6.2 4q.8 0 1.1-.6-1-.3-1 .6Zm9.2 25h1q.8 5.1.5 10.3-1.8-.3-2.3 1.5c-2.9 1-4.5.7-7.3.6-6.5 3.7-22.2 8.6-29 9.6q0-.6.2-1 18.6-10.2 37-21Zm-32.3 2q.8 0 1.2-.6-.9-.3-1.2.6Zm34 22.3-51.6 30.5c-1.5 1-2.9-.2-1.3-1.3a1202 1202 0 0 0 47-34.4q2.4-2 5.5-2c1.2.8.5 5.8.5 7.2Zm-40.2 4.5q.3 1-.8 1.4L266.5 441c-.8-.6 0-1 .5-1.6l13-9a6 6 0 0 0 2-2q1.2-1 2.5-1.4zm40.3 7-.2 3.4-11.5 7.3q-.7.6-1.6.5c-1-.6-.2-1 .4-1.6 4.5-2.7 8.7-6.4 12.9-9.6ZM195.4 454c-.6 2.5-8 4.9-9.8 6.3-.9 1-2.1 2.8-3.5 1.2q.6-1.7.8-3.4c2.2-2 9.5-3.5 12.5-4.1Zm117.7 9c-6.5 3.7-15.3 6-22.4 8.2q-.9-1 .6-1.6l4-1.8q11.9-7.3 24.1-13.8.3.4-.1 1l-5.3 6.4q-.6.7-.9 1.7Zm-106 31.3-2.2 1q-1.5-.6-2 .8-1-.3-1.7.7c-5 1.5-10.4 3.2-15.4.9q33.2-19.1 66.2-38.5 1-.6 1.9.2l-43.6 32.2c-.9 1-3.7 1-3.2 2.6Zm-30.9-16v-2.5q1.8-.6 3.5-1.7.9-.4 1.2.3c0 1.3-3.8 3-4.7 3.8Zm3 12.9a4 4 0 0 1-.8-2.3q5.4-3 10.5-6.5 1.2-.8 2 0c0 1.4-1.9 1.6-2.8 2.2q-4.5 3-9 6.6Z"/><path fill="#1b3864" stroke="#1b3864" stroke-width=".5" d="m47 12.4-8.2 8q-1.5 2.4 1.2 1.3c2.6-2.2 12.3-6.2 13.4-9 5.2-.3 40-1.3 41.9.5-3.5 3.9-15 12.7-19.4 17.2-1.1.7-1.1 2 .3 1.4 6-4 29.2-16 32.8-19.5q9 .3 18 0l-14.2 11q-.7.4-.8 1.3c.6.9 1.3 0 2-.3 2.3-1.4 19-10.7 19.3-11.4q.4-1 1.3-1 19.5 0 39 .7v.4q-.6 1.3-1.7 2.4-5 3.3-10 7c-1.6 1.1-.4 2.3 1.1 1.3 5-3.6 10.4-6.4 15.7-9.3q2.2-1.2-.1-1.7-2 .1-3.7-.2c12.3-.8 30.9.5 44-.2l-11 8.1c-1.6 1.1-.5 2.4 1.1 1.3 4-3.5 11.6-6.2 15-9.4l55.2.1q.6.1.9.7-2.7 2.7-5.5 5-8.9 8.7-18.1 16.8-.4 1.2.8 1c7.5-5 35-19.5 39.8-23.6q7.6.3 15.4.1 1-.2 1.5.7v.4q-3.6 2.3-7 5-.6.4-.7 1.2c-1.2.3-3.2.4-3.3 2 1.2.7 3-.8 3.3-2q.9 0 1.6-.3l8.8-5q1-.4 1-1.3c6-1.1 13.4-.5 19.5-.6q.6 0 .6.6-1-.2-1.7.6c.5 1 2 .2 1.7-.6q2-.4 4-.5 38.5-.8 77.2-.2c-1.7 1.9-7.4 5.6-8 7.7l-.2.8q-1 .3-1 1.1l-.7-.1q-1 0-1.4 1.1a106 106 0 0 0-10.5 8.4c.8.8 2-.3 2.9-.6L429.8 13c5.8-1 13.2-.5 19.2-.8l-16 13c-.5.7-1.4 1.1-.6 1.8q11-5.9 21.7-12.4c.7-.5 4.3-1 2-2.3 2.5 0 17.8-.5 18.9.5l-9.2 6.5q-1.5 1.4.6 1.2 5.6-3.7 11.5-7a13 13 0 0 1 14 3c-2 2.7-14.7 12.5-14.7 14.7v.7H476c-1 0-2.2 1.9-2.8 2.7.8 1 2.3-.8 2.9-1.5l1.4-.4 17.2-10c4.8.3 3 27.4 2.3 31.7.1 2.9-5.5 1.4-7 1.4.7-2.4 3-6.5 3-8.9 1.5-1.2 1.1-2.9-.9-1.6l-16 9.3c-1.5.9 0 1.5 1 1.6-2.5.4-33.6.1-38.8-.4.1-1.8 15.4-15.1 17.8-17.4q1.6-1.5 2.8-3.1 0-.3-.3-.4a1955 1955 0 0 0-35 20q-.4 1.2 1 1 5.7-.2 11.5.3c-1.3 1.6-27.3-.4-30-.6.8-2.3 5.5-3.9 6.8-6.4l-.3-.4-10.5 5.8q-.9.4-.4 1.2 1.1.3 2.3.3-.4.8-1.3.6-9.8-.7-19.4-.8 7.5-6.7 15.4-13c.4-.5 1.8-1.2 1-2q-12.9 7-25.4 14.4c.8 1.3 6.2 0 7.8.9-.3 1-6.3.2-7.4.5q-8.7-.6-17.5-1c.3-1.6 17-15.5 19.6-17.7q.5-.6-.2-1-.8 0-1.6.5-15.2 9-30.6 17.8.5.6 1.2.6 4.8-.1 9.5.3c-1.6 1.3-24.1-.3-27.8-.4 1.2-2 5.8-5 8-6.3q.6-.4.7-1a2 2 0 0 0-2 0q-5.7 3.6-11.7 6.8 1.8.8 3.8.9c-3.7.9-16.1-.5-20.8-.4.5-1.8 4-2.6 4.7-4.6q-.5-.5-1.1-.2l-7.6 4.4q1.2.8 2.7.8c-2.6.5-35.8-.3-41.5.2l-17.5-.6q6-4.5 11.9-9.3-1.5-.3-2.9.6-6.5 4.3-13.3 8.2a6 6 0 0 1-2.2 1l-15.2-.5c.6-2.6 10.8-10.3 12.5-13l.6-1q4-2.6 7.1-5.9c.5-.8 3.1-2.1 2.2-3.1a3 3 0 0 0-2.6 1.8c-4.6 1.3-16.8 9.8-22 12.1a3 3 0 0 0-1.3 1.2 2 2 0 0 1-1.7.8 2 2 0 0 0-1.3 1.3q-.7.5-1.6.6-1 .4-1.5 1.3l-.5.4c-1.7-1-4.9 2-6.6 2.6q-.6.8.2 1.4-.4.3-1.2.3-8.1-.6-16.2-.7 1.3-2 3.4-3 .4-.6-.2-1-3.3 1.3-6.3 3.5.8.7 1.8 1c-12.7-.4-25.3.4-38-.8q.3-.7 1-1.3 4.5-3.5 9.1-6.8c.7-.4 1.4-1 .4-1.5q-.9-.1-1.6.4-7.2 4.6-14.7 9c.8 1.3 3.5.2 5 .7-2.7 1.2-18.2-.5-22-.4.3-.7 1.2-1.2.4-2q-2 .6-3.4 1.7.7.8 1.9.9c-4 .4-14.3-.5-18.9-.5l.9-1.2c1.6-1.6 9.3-6.8 9.8-8.4l-.4-.4q-8.7 4.5-17.3 9.5.6.6 1.3.6 2.2 0 4.5.3c-6 1-16.3-.5-22.8-.4A52 52 0 0 1 95 46.4c1.3-.8.3-2.2-1.1-1.1q-1.2 1-2.5 1.8L78 54.7c-.6.4-1.4.7-.5 1.3q2.3 0 4.5.3c-1 1-19.3-.5-22-.6q.3-.8.9-1.3l11-8.9c.4-.5 1.4-1 .6-1.5l-4.6 2.2q-7.8 4.8-15.7 9.2.5.6 1.3.6 2.3 0 4.4.3c-.4 1.6-20.4-.3-22.7-.4 2.2-3.4 16-14.9 20-18.3 1-.7 1-2-.5-1.4L21.3 55.4c.9 1.3 10.8.4 12.8.9-1.6 1.3-9.3.3-11.6.6q-3-.4-5.9-1c-1.4-.7-1.7-6.1-2.3-7.7l3.7-2.7c.5-.5 1.4-1 .5-1.6q-2.1.7-4.2 1.9C12.2 13.2 16.2 11.9 47 12.3Zm15.8 8.8c1.5.1 3.8-1.9 5.3-2.4l8.7-5.4c-.7-1.4-4-.4-5.1 0-2.2 2-7.6 5.3-9 7.8Zm76 1.7c1.3.3 3.3-1.6 4.6-2l12.4-7.5c-2-4-16.6 7.7-17 9.5ZM255 17.2c1.4.1 5.6-2.9 6.8-3.8-1.2-1.8-6.8 2.5-6.8 3.8Zm113 .9c.4 2.4 8.4-3.9 9.8-4.6-1.8-2.6-8 3.6-9.7 4.6Zm19.9 2c1.2-.3 15.1-7.3 10.6-7.3-2.5-.5-10 5.6-10.6 7.3Zm-195-3c1 0 4.5-.6 2.8-2.2q-2 .4-2.8 2.2Zm136.8 397a988 988 0 0 1-46.9 34.3c-1.6 1.2-.2 2.4 1.3 1.4l51.7-30.5a86 86 0 0 1 0 11.5c-4.2 3.2-8.4 6.9-13 9.6-.5.5-1.2 1-.3 1.6q.9 0 1.6-.5l11.5-7.3c1.3 17.2-8.3 22.6-22.5 28.9q.3-1 .9-1.7l5.3-6.5q.4-.4.1-1-12.2 6.6-24.2 13.9l-4 1.8q-1.3.6-.5 1.6-.3.8-1.2.8l-29.4 6.8c0-1.6 1.9-1.6 2.8-2.5q9-7 18.2-13.8.8-.7.3-1.6-17.4 9.6-34.4 19.7-1.5.8-.2 1.7-11.6 2.5-23.1 6-8.4 2.7-16.6 6c-.5-1.7 2.3-1.8 3.2-2.7l43.6-32.2q-.8-.8-2-.2-33 19.5-66.1 38.5c-2.4-.4-6-4.1-6.6-6.5q4.2-3.4 9-6.6c.8-.7 2.7-.8 2.8-2.2q-1-.7-2 0a103 103 0 0 1-10.6 6.5c-1.4-2-2.5-8.3-2.2-10.7 1-.9 4.6-2.5 4.7-3.8q-.4-.7-1.2-.4-1.6 1.3-3.6 1.8 0-8 .3-16c.7-1 5.2-1.7 6.5-1.7q-.2 1.7-.8 3.4c1.4 1.6 2.6-.2 3.5-1.2 1.8-1.4 9.1-3.9 9.8-6.3h1.2c.8 0 2.3.1 2.2-1 4.8-2 26.5-8.4 33.1-9.9-1.8 4-10.8 7.6-11.1 11.1q-2-.5-2.8 1.3c1 .8 2.3-.4 2.8-1.3l2.9-1.1 25-14.7q0-.5-.5-.6.4-.7 1.3-.8c9.5-1.8 23.7-7.3 32.5-8.7a6 6 0 0 1-2 2q-6.4 4.8-13 9.1c-.4.6-1.3 1-.6 1.6l28.2-15.8q1.1-.3.9-1.4 0-.8.9-.8c8.6-1.6 25.9-8 33.3-9Z"/><path fill="#2c51cc" stroke="#2c51cc" stroke-width=".5" d="M297 12.3c-4.7 4.1-32.2 18.7-39.7 23.6q-1.1.2-.8-1 9.3-8.1 18.1-16.7 1 1.3 2.4.4l7-4.2q.8-.3.7-1.2c4.3-1.2 8-.7 12.4-1Z"/><path fill="#2b51ca" d="m260.1 478.8-1 .4q-1.8-.9-3 .6-4.5 1.5-9.3 2.5-1.5-1 .2-1.7 17-10.2 34.4-19.7.6.9-.3 1.6-9.2 6.7-18.2 13.8c-1 .9-2.7.9-2.8 2.5"/><path fill="#2b51c9" fill-opacity=".9" d="M248.2 437.8q.4.1.5.6l-25 14.7-2.9 1.1c.3-3.5 9.3-7.1 11.1-11.1q8-3 16.3-5.3"/><path fill="#2c52ce" fill-opacity=".3" stroke="#2c52ce" stroke-opacity=".3" stroke-width=".5" d="m464.3 72.3-1.3.7q.3-1.1 1.3-.7Zm-19 11-1.3.7q.3-1 1.3-.7Zm-7 4-1.3.7q.2-1.1 1.3-.7ZM256.1 110c-.6 1.5-5.6 3.8-7 5v-1.3c1.4-1.4 5-3.8 7-3.7ZM170 135c-.8 1.8-5.1 3.6-6.8 5l-.3-1.3c1.7-1.2 5-3.8 7-3.7Zm-29 4c-.5 1.7-5.2 3.7-6.7 4.9l-.3-1.2q2.3-1.8 5-3.2zm62 1q-.3 1.1-1.3.7zm47 2q-.3 1-1.3.8zm-73 13q-.3 1-1.3.7zm47 2q-.3 1-1.3.8zm6.3 1.3-1.2.7q0-1.1 1.2-.7Zm65 4-1.2.7q0-1.1 1.2-.7Zm-11 7-1.2.7q0-1 1.2-.7ZM276 171q-.3 1-1.3.7zm97 9a8 8 0 0 1-5 3q0-.4.5-1a9 9 0 0 1 4.6-2Zm-123 6q-.3 1-1.3.7zm-97 12q-.3 1-1.3.7zm193 12q-.5 1.3-2 1c-.2-1.1 1.3-1.1 2-1Zm-108 3a3 3 0 0 1-3 2 3 3 0 0 1 3-2Zm23.3 12.3-1.2.7q0-1 1.2-.8ZM179 227q-.3 1-1.3.7zm46 17q-.3 1-1.3.8zm-26 15q-.3 1-1.3.8zm-17.7 17.3-1.3.7q.3-1 1.3-.7ZM213 399q-1 1.9-3.1 2 1-2 3-2Z"/><path fill="#2c52ce" fill-opacity=".4" stroke="#2c52ce" stroke-opacity=".4" stroke-width=".5" d="M452.4 79q-.7.6-1.6.7a2 2 0 0 1 1.6-.6ZM178 86c.5-1 4-4 5-2.6-1.3 1.2-3.1 2.5-5 2.6Zm-78-.1c.2-.6 1.3-1.5 1.8-.6q-.7.9-1.8.6Zm334 17q-.5 1.4-2 1.1.5-1.3 2-1Zm-175 5a4 4 0 0 1-3 2q.9-1.8 3-2ZM83 110a4 4 0 0 1-3 2.1q.9-2 3-2Zm213 6q-.4 1.4-2 1 .6-1.2 2-1Zm85.3 4.1-1.1.7q.2-.9 1.1-.7Zm-245.2 9a4 4 0 0 1-3.2 1.9 3 3 0 0 1 3.2-2Zm38.8 2.8q-.5 1.5-2 1 .5-1.2 2-1ZM355 135q-.6 1.2-2 1 .5-1.2 2-1Zm-165.7 13.2q-.7.8-1.6.7zm46.6 2q-.3.9-1.2.6zm56.4 13.8a3 3 0 0 1-1.6.7q.6-.7 1.6-.7Zm-49.4 2c-.5 1.5-3.5 2.9-5 3 .9-1.4 3.2-3.2 5-3Zm-93.6 13.1-1.5.6q.6-.6 1.5-.6Zm31 11-1.5.7q.5-.7 1.4-.7Zm68 2-1.5.6a2 2 0 0 1 1.4-.6Zm-11 7-1.5.7q.6-.8 1.5-.8Zm-11 7q-.6.4-1.4.6.5-.7 1.4-.6Zm5.8 52a9 9 0 0 1-5.2 3c1-1.6 3.3-3.4 5.2-3ZM217 295a4 4 0 0 1-3 2q.7-2 3-2Zm7 19.8a4 4 0 0 1-3.1 2.4 4 4 0 0 1 3-2.4Zm-11 84c-.1-.9 1.4-1.5 2-.6q-.8.9-2 .7Zm-29.2 52q-.6-.1-.2-.5.3.1.2.6Z"/><path fill="#2c52ce" fill-opacity=".4" stroke="#2c52ce" stroke-opacity=".4" stroke-width=".5" d="m236.4 42-.7 1q-.4-.3-1-.3.7-.7 1.7-.7Zm180.5 27a3 3 0 0 1-2.9 2q.8-1.9 3-2Zm39.2 1.3q-.6.6-1.4.6.6-.5 1.4-.6Zm-11 7a2 2 0 0 1-1.5.7q.7-.6 1.6-.8Zm-11 7q-.4.7-1.3.7.6-.6 1.3-.7Zm6.2 1.8q-.6.5-1.3.6.4-.7 1.3-.6Zm-17.2 5.2q-.5.7-1.4.7.6-.7 1.4-.7Zm-11 7q-.5.8-1.4.6.6-.4 1.4-.6Zm-11 7q-.6.7-1.4.7.6-.6 1.3-.7Zm-142 2.6q.5-.8 1.4-1c1.1.7-1 1.3-1.5 1Zm131 4.3q-.5.9-1.4.8.6-.5 1.3-.8Zm-11.3 7q0 .9-1 .6zM233.2 125l-1.1.7q.2-.8 1.1-.7Zm-6.1 1.2q-.5.8-1.4.6.6-.6 1.4-.6Zm47 1.9q-.3.9-1.3.7.6-.6 1.4-.7Zm-54.8 5.8a3 3 0 0 1-1.4.8q.5-.8 1.4-.8Zm41 5q-.6.6-1.3.7.4-.7 1.3-.6Zm-59.3 2.2q-.3 1-1.3.8zm47 2q-.4.9-1.3.7zm51.9 14.1c.4 1-.7.6-1.2.6zM213.3 169q-.7.6-1.5.7.7-.6 1.5-.7Zm60.7 3.2q-.3.9-1.3.8zm78 5.8a4 4 0 0 1-3 1.9q.7-2 3-2Zm-205.7 3q-.6.6-1.5.8.6-.9 1.5-.8Zm30.7 3.3q-.4.6-1.3.6.6-.4 1.3-.6Zm66 25.7q.3-1.2 1.6-1.1c1.3.8-1 1.3-1.6 1Zm-40 3.2q-.4.8-1.4.7zm-1.7 8.9-1.5.7q.5-.8 1.5-.7Zm-24.4 6.2q-.2.7-1.1.6zm13.4.7q-.6.6-1.5.8a2 2 0 0 1 1.5-.8Zm58.8 1.3q-.5.7-1.4.7zm73 7.6c-.5.9-2 2.8-3 1.7q.9-1.8 3-1.6Zm-88.8 5.1q-.6.5-1.4.7.6-.7 1.4-.7Zm-10.4 2.2q-.3.8-1.3.7.7-.5 1.3-.7Zm6 28.7q.2-.8 1-.5a1 1 0 0 1-1 .5Zm-2 1.2a3 3 0 0 1-3 1.9q.7-2.4 3-2Zm-10 20c.3-.8 1.4-1.8 2-.9q-.7 1-2 .8Zm14 32a3 3 0 0 1 2.6-2c2 1-1.8 2.2-2.6 2Zm-52 13 1.3.2-1.4.8zm43 19c.2-.8 1.4-1.7 2-.8a2 2 0 0 1-2 .7Zm83.1 36q-1.2.9 0 0ZM159 78q.5-1 1.6-1.7 2.3-.2.6 1.3-1 .6-2.3.5Zm144 13c-.4 1-4.2 4.3-5 2.7a9 9 0 0 1 5-2.8Zm-157 45a7 7 0 0 1-5 3q2-2.5 5-3Zm62 1.2q-.3.9-1.4.7zm46.9 2q-.2 1-1.1.8zm65 6.9q.4-1 1.6-1.2c1.1.7-1 1.3-1.5 1.2Zm-81.5 7q-.7.5-1.6.6.7-.7 1.5-.6Zm-61.2 7.9-1.3.8q.4-.8 1.3-.8Zm103.8 7.2q-.4.9-1.3.8zm-123 27q-.3.9-1.3.7zm52.2 14a2 2 0 0 1-1.6.8 3 3 0 0 1 1.6-.8Zm32.8.8q-.8 2-3 2c0-1.4 1.8-1.8 3-2Zm-59.1 14q-.3 1-1.2.8zm53 13.2q-.3.8-1.2.6.5-.6 1.3-.6Zm-7 3.9q-.3.9-1.2.8zm-18.7 11.1q-.6.7-1.5.7.7-.5 1.5-.7ZM200.4 264q-.7.6-1.6.8.6-.8 1.6-.8Zm-11 7q-.7.6-1.6.8.6-.8 1.6-.8ZM292 281c-.6 1.1-3.8 4.4-5 2.8a8 8 0 0 1 5-2.8Zm36 87.2q-1.5.9 0 0Zm-20 25q-1 1.8-3.1 2a3 3 0 0 1 3-2Z"/><path fill="#2c52ce" fill-opacity=".3" stroke="#2c52ce" stroke-opacity=".3" stroke-width=".5" d="M419 68a8 8 0 0 1 4.6-3c1.1 1-3.7 3-4.7 3Zm44.8-3q0 1-1.1 1zm7.5 3q-.7.8-1.5.8.5-.7 1.5-.7Zm-18.5 4q0 1-1.1 1zm-11 7q0 1-1.1 1zm-11 7q0 1-1.1 1zM337 101c-.8 1.5-3.4 2.8-5.1 3 .9-1.7 3.1-3 5-3Zm63.2 8-1.2.8q.3-.9 1.2-.7ZM173 133q-.9 2-3 2 .9-1.9 3-2Zm79.4 11.1-1 .8q0-1 1-.8Zm-58 6-1.2.9q.1-1 1.1-1Zm-24.2 9.1q-.5.7-1.5.7.8-.6 1.5-.7Zm47 2q-.5.8-1.5.8zm26 29q-.7.6-1.6.7.7-.6 1.6-.7Zm-74 6.9-1 .9q0-1 1-1Zm113.9 13.8a2 2 0 0 1-2.1 1c0-1 1.3-1 2-1Zm-57.7 37.2-1.2.8q.1-1 1.2-.8Zm-33.2 15.2q-.7.7-1.6.7.7-.6 1.6-.7ZM222 359q-1 2-3 2 .7-1.9 3-2Zm18.9 5.1a3 3 0 0 1 2.7-2.2c1 1-2 2.2-2.7 2.2Z"/><path fill="#2d53ce" fill-opacity=".3" stroke="#2d53ce" stroke-opacity=".3" stroke-width=".5" d="M450 74q-.3 1.1-1.3.7zm7.3 2.3-1.2.7q.2-1 1.2-.7ZM439 80.9q0 1.1-1.2.8zm-11 7q0 1-1.2.8zm-11 7q0 1-1.2.8zm27.2 2.1c-1.1 1.6-3.2 3-5.2 2.9a7 7 0 0 1 5.2-2.9Zm-38.2 5q0 1-1.2.7zm-11 7q0 1.1-1.2.7zm-8.6 8.3-1.3.7q.3-1 1.3-.7ZM133 130.9q-.5 1.5-2 1.1.7-1.2 2-1Zm122.4 11.4-1.2.8q0-1 1.2-.8Zm-71.4 8.6q-.2 1-1.2.8zm47 2q-.2 1.2-1.2.8zm-47.6 4.4-1.2.8q0-1 1.2-.8ZM205 168q0 1.1-1.2.7zm52 14q0 1.1-1.2.7zm-84.6 13.3-1.2.8q.1-1 1.2-.8Zm33.6 59.6q0 1.1-1.2.8zm16 23.1q-.5 1-1.5 1.8L212 285l-.1-1.3a27 27 0 0 1 10-5.7Z"/><path fill="#2c52ce" fill-opacity=".4" stroke="#2c52ce" stroke-opacity=".4" stroke-width=".5" d="M419 68q-.6 1.3-2 1 .5-1.4 2-1Zm-204 5c.1 1-1.4 1.7-2 .7q.8-1.1 2-.7Zm204.8 20q0 1-1.1.9zm6.5 1.1q-.7.5-1.5.7.5-.7 1.5-.7Zm-17.5 6q0 1-1 1zm30.1-.2a6 6 0 0 1-5 3q2-2.4 5-3Zm-41.2 7.2q0 1-1 .9zm-10.9 7q0 .9-1 .9zm-11 6.9q0 1-1 1zm-160.9 12.3q-.3.7-1.3.7zm47 2q-.3.8-1.2.7.6-.6 1.2-.7Zm1.4 1.7-1 1q0-1 1-1Zm-55 4-1.1 1q0-1 1.1-1Zm111.7 5a4 4 0 0 1-3 2q.6-2 3-2Zm-103.7 21-1.2 1q.2-1 1.2-1Zm-72.1 7.3q-.6.8-1.6.6.7-.5 1.6-.6Zm212.8.6c-.8 1.7-3.2 3.3-5 3 .5-1.3 3.4-2.9 5-3Zm-165.8 1.3q-.5.8-1.5.8.7-.5 1.5-.8Zm-26 15q-.6.7-1.6.7.7-.5 1.6-.6Zm52 14q-.6.7-1.5.7.7-.5 1.6-.6Zm-12.9 14.9-1 .8q0-1 1-.8Zm-11 7-1 .8q0-1 1-.9Zm-11 7-1.2.9q.3-1 1.2-1Zm54 7-1.2.8q0-1 1.2-.9ZM188.7 69.4a3.4 3.4 0 0 1 3-2.4c1.4 1-2.2 2.4-3 2.3ZM429 106q-1.5.9 0 0Zm-346 4q0-1.2 1.5-1.1c1.2.8-1 1.2-1.5 1.1Zm53 19q0-1.2 1.4-1.1c1.2.8-.8 1.3-1.4 1.2Zm69.3 14q-.7.5-1.6.7.7-.6 1.5-.7Zm44 3-1.5.8q.5-.7 1.4-.7Zm-93.5 21.2q-.3.9-1.3.7.6-.5 1.3-.7Zm47 2q-.2.9-1.2.7zm-.6 6.8-1.5.8a2 2 0 0 1 1.5-.8Zm52.7 7.2q-.4.9-1.4.8zm110 1.8c0 1-1.4 1.7-2 .7a2 2 0 0 1 2-.7Zm-136 13.2q-.4.9-1.4.7zM344 211q-.9 2-3 2 .9-2 3-2Zm-6.1 4q.2-1 1-.5-.4.5-1 .5Zm-134 41.3q-.3.8-1.3.6.6-.5 1.4-.6Zm23 18.8q0-.9.7-.6zm63 49.9c0 .8-1.2 1.6-1.8.7q.7-.9 1.9-.7Zm43.3 9v.8l-1.3-.2zm-8.4 36q.3-.9 1.1-.6-.4.6-1 .6ZM244 396.2q.5-2 2.7-2.2c1.6 1-2.2 1.7-2.7 2.2Z"/><path fill="#2c52ce" fill-opacity=".5" stroke="#2c52ce" stroke-opacity=".5" stroke-width=".5" d="M73.9 67.1q.6-2 2.7-2.1c1.6 1-2.3 1.7-2.7 2.1Zm340.1 4c-.3.5-1.2 1.5-1.8.7q.6-1 1.8-.8Zm52.3 0q-.6.5-1.3.7.3-.9 1.3-.7Zm-34.4 33a3 3 0 0 1-2.8 2 3 3 0 0 1 2.8-2Zm-256.8 52.2q-.6.7-1.4.7a2 2 0 0 1 1.4-.7Zm46.8 2q-.3.7-1.3.7.6-.6 1.3-.7ZM160.3 172l-1.4.7q.5-.9 1.4-.7Zm17 20q-.7.5-1.5.7.5-.8 1.5-.7ZM283 210.9a3 3 0 0 1 2.5-1.9c1.6 1.1-1.6 2.3-2.5 2Zm-70.8 4.1q-.6.6-1.5.7.6-.6 1.5-.7Zm22.8 41q-1 1.9-3 2c0-1.5 1.8-1.8 3-2Zm34 100c0 1.5-2 3-3 1.7.2-1.2 2-1.4 3-1.7Zm32.6 41q.4-.9 1.2-.6-.5.5-1.2.6Z"/><path fill="#294dc8" fill-opacity=".2" stroke="#294dc8" stroke-opacity=".2" stroke-width=".5" d="M235 215q-.3.8-1 1.3-8 4.5-15.7 9.6-.3-.9-1.4-1.2 8.2-4.5 16-9.5 1-.3 2.1-.2Z"/><path fill="#2a4bc9" fill-opacity=".2" stroke="#2a4bc9" stroke-opacity=".2" stroke-width=".5" d="M238 169q-.3.9-1 1.3l-16 9.7v-1.2q.7-1 1.6-1.6 6.8-3.8 13.3-8 1-.3 2-.2Z"/><path fill="#2c52ce" fill-opacity=".3" stroke="#2c52ce" stroke-opacity=".3" stroke-width=".5" d="m419.3 98.3-1.3.7q.3-1.1 1.3-.7ZM358.1 133a4 4 0 0 1-3 2q.6-2 3-2ZM295 160q-.3 1.1-1.3.7zm-128.8 8.2-1.2.8q.2-1 1.2-.8Zm-8 36-1.2.8q.3-1 1.2-.8ZM198 216q-.3 1.1-1.3.7zm46 17q-.3 1-1.3.7zm83.1 1.8c-1 1.8-2.7 3.5-5 3.1.2-1.3 3.7-3 5-3.1Zm-123.9 27.4-1.2.8q.3-1 1.2-.8ZM224 277c.1 1-1.3 1-2 1q.5-1.3 2-1Zm58 27c.2 1.1-1.4 1.1-2 1a2 2 0 0 1 2-1Zm11.1 18.8a3 3 0 0 1-3.1 2.2q.9-2 3.1-2.2Z"/><path fill="#253e95" fill-opacity=".2" stroke="#253e95" stroke-opacity=".2" stroke-width=".5" d="M228 63.4q2-.6 4 0-6 3.8-12 7.1-1 .5-2 .3.7-1 1.6-1.6z"/><path fill="#2449b6" fill-opacity=".2" stroke="#2449b6" stroke-opacity=".2" stroke-width=".5" d="M459 87.4q0 .8.7 1.2l-12.3 7.2-.2-.9q-.1-.5.4-.8l9.8-6.2q.7-.5 1.7-.5Z"/><path fill="#2d52cf" fill-opacity=".3" stroke="#2d52cf" stroke-opacity=".3" stroke-width=".5" d="M100 85.9c-.3 1.6-3.7 3.3-5 4l-.1-1.2q2.1-2 5-2.8Zm293.3 27.4-1.3.7q.3-1.1 1.3-.7Zm-154 8-1.3.7q0-1.2 1.2-.8Zm2 30-1.3.7q.3-1 1.2-.8ZM151 170q-.3 1-1.3.7zm47 2q-.3 1-1.3.7zm-45.8 5.2-1.2.8q.3-1 1.2-.8Zm42 4-1.2.8q.3-1 1.2-.8ZM224 201q-.3 1.1-1.3.7zm16 11q-.8 1-2 1c-.1-1.1 1.3-1.1 2-1Zm41 0q-.9 1.9-3 2 .9-2 3-2Zm-88.7 57.3-1.3.7q.3-1 1.3-.7Z"/><path fill="#2647be" fill-opacity=".2" stroke="#2647be" stroke-opacity=".2" stroke-width=".5" d="m316.1 82.2.6 1.5-11.7 6.8q-.9.5-2 .4.7-1 1.6-1.6 5-3 9.8-6.4z"/><path fill="#2c53cf" fill-opacity=".3" stroke="#2c53cf" stroke-opacity=".3" stroke-width=".5" d="M80 112.1a7 7 0 0 1-5 2.8c1-1.5 3.2-3 5-2.8Zm304 3.8q-.1 1.1-1.3.8zm-158.7 14.4-1.2.8q0-1.2 1.2-.8Zm-14 9-1.2.7q0-1.1 1.2-.7Zm-14 9-1.2.8q0-1 1.2-.8Zm22 17-1.2.8q0-1.2 1.2-.8Zm-61.4.6q0 1-1.2.8zm115.4 10.4-1.2.7q0-1 1.2-.7Zm-11 7-1.2.7q0-1 1.2-.7ZM230.9 197q0 1.1-1.2.7zm-12.6 14.3-1.2.8q.1-1 1.2-.8Zm-11 7-1.2.8q.1-1 1.2-.8Zm-11 7-1.2.8q0-1.1 1.2-.8Zm-11 7-1.2.8q0-1 1.2-.8Zm-5.4 37.7q0 1.1-1.2.7.6-.5 1.3-.7Zm155.2 124-.2 1h-.9q.3-.8 1.1-1Z"/><path fill="#2857d3" fill-opacity=".3" stroke="#2857d3" stroke-opacity=".3" stroke-width=".5" d="M294 117q-1.2 1.6-3 2.7l-10 6.2q-.3-.5-.9-.8 0-.5.5-.8l11.4-6.8q1-.6 2-.5Z"/><path fill="#2b51cd" fill-opacity=".3" stroke="#2b51cd" stroke-opacity=".3" stroke-width=".5" d="M218 70.8q-.7 2-3 2.2.7-2 3-2.2Zm56.2 282c-.9 1.5-3.4 3.5-5.2 3.2q2-2.6 5.2-3.2ZM315 388v1.3l-4.9 3.5q-1 .3-2 .2c.3-1.4 5.5-4 6.9-5Z"/><path fill="#284cbb" fill-opacity=".2" stroke="#284cbb" stroke-opacity=".2" stroke-width=".5" d="M349.8 92.2q-.2 1 1 1.4l-11.8 6.8q-.9.5-2 .5a4 4 0 0 1 1.6-1.8q5.7-3.3 11.2-6.9Z"/><path fill="#283562" fill-opacity=".6" d="M115.3 4.7a8 8 0 0 1-3.6 0q1.8-1.5 3.6 0m52 0a8 8 0 0 1-3.6 0q1.8-1.5 3.7 0m26 0a10 10 0 0 1-3.6 0q1.8-1.5 3.7 0m33 0q-2 .4-3.7 0c1-.9 3-1.2 3.7 0m25 0q-1.8.5-3.6 0 1.8-1.5 3.6 0m20 0q-2 .5-3.7 0c1-.9 3-1.2 3.6 0m33 0q-1.9.5-3.7 0 1.9-1.5 3.8 0"/><path fill="#2d54ce" fill-opacity=".2" stroke="#2d54ce" stroke-opacity=".2" stroke-width=".5" d="m445.8 95 .3 1.2a2 2 0 0 1-2 .8q.4-1.2 1.7-2Zm-40.5 11.3-1.2.8q0-1.1 1.2-.8ZM236 121q0 1.2-1.2.7zm-7.6 7.3-1.2.8q0-1.2 1.2-.8Zm16 21-1.2.8q0-1.2 1.2-.8Zm70.7-.2c-1.3 2-4.7 3.6-6.7 4.8l-.2-1.1q2-2 4.9-3.3 1-.5 2-.4ZM258 225q-.3 1.1-1.3.7z"/><path fill="#2241be" fill-opacity=".2" stroke="#2241be" stroke-opacity=".2" stroke-width=".5" d="M273 217c-1 2.2-7.5 5.5-9.8 6.9q-.3-.9-1.3-1.3c2.5-1 8.8-5.8 11-5.6Z"/><path fill="#2c51ce" fill-opacity=".3" stroke="#2c51ce" stroke-opacity=".3" stroke-width=".5" d="M159 78c-.8 1.7-3.5 3-5 4v-1.3q2-2.3 5-2.6Zm206 50v1.3c-1.6 1.5-4.7 3.7-7 3.7q.1-.5.5-1z"/><path fill="#2745c5" fill-opacity=".2" stroke="#2745c5" stroke-opacity=".2" stroke-width=".5" d="M222 264q-.6 1.1-1.6 1.8l-8 5q-.6-.9-1.5-1.2c2.5-1 8.8-5.8 11-5.6Z"/><path fill="#2c50c6" fill-opacity=".8" d="M27.1 63.4c.7 2.1-2 2.7-3.3 3.4q-2-1.3-3.4-3.3 3.3-.5 6.7-.1"/><path fill="#24387e" fill-opacity=".2" stroke="#24387e" stroke-opacity=".2" stroke-width=".5" d="M392 168a6 6 0 0 1-1.5 2 13 13 0 0 0-3.6 2.7l-4 2.3q0-.9-.7-1.2 4-3.1 8.4-5.6.6-.3 1.3-.1Z"/><path fill="#294dc3" fill-opacity=".3" stroke="#294dc3" stroke-opacity=".3" stroke-width=".5" d="M214 297q-.3.9-1 1.3-4.4 2.7-8.7 5.6-.4-.9-1.4-1.2l9-5.5q1-.4 2-.1Z"/><path fill="#1f419e" fill-opacity=".1" stroke="#1f419e" stroke-opacity=".1" stroke-width=".5" d="M212 283.7v1.3a84 84 0 0 1-7.8 4.7q0-1-1-1.3v-.1q4.2-2.7 8.8-4.6Z"/><path fill="#2b4cc0" fill-opacity=".2" stroke="#2b4cc0" stroke-opacity=".2" stroke-width=".5" d="M382.3 173.8q.6.3.7 1.2-4.2 2.1-8 4.5-.8.6-2 .5.2-.8 1-1.4 4-2.5 8.3-4.8Z"/><path fill="#294ebe" d="m305.2 55.9-1.3.4q-1.5 0-2.7-.8l7.6-4.4q.6-.4 1.2.2c-.7 2-4.3 2.8-4.8 4.6"/><path fill="#2542b6" fill-opacity=".2" stroke="#2542b6" stroke-opacity=".2" stroke-width=".5" d="M292.7 296.3q0 .9 1 1.3c-1.6 1-6.7 4.5-8.6 4.4.8-2 5.6-4.6 7.6-5.8Z"/><path fill="#2746c3" fill-opacity=".2" stroke="#2746c3" stroke-opacity=".2" stroke-width=".5" d="m247.6 114.1.2 1c.2 1-5.6 4-6.5 4.8q-.5-.8-1.4-1.4z"/><path fill="#2545c3" fill-opacity=".2" stroke="#2545c3" stroke-opacity=".2" stroke-width=".5" d="M178 86c-.8 2-5.8 4.4-7.7 5.8q-.5-.9-1.4-1.2c2.3-1 6.8-4.6 9-4.6Z"/><path fill="#2c52cd" fill-opacity=".3" stroke="#2c52cd" stroke-opacity=".3" stroke-width=".5" d="M302 156v1l-1 .2zm0 1q.7 0 1.3.3-.7.3-1.5.4zm-33.2 18q0 1-1.2 1zm-97 56q0 1-.8.7zm45.9 17.1q0 1-1 .9zM334 274l-.2 1.1-1-.3zm-31 77c-.8 1.7-3 3.2-5 3.1a7 7 0 0 1 5-3.1Zm28 15.2q.2-.6.8-.6-.3.4-.8.6Z"/><path fill="#2744b0" fill-opacity=".2" stroke="#2744b0" stroke-opacity=".2" stroke-width=".5" d="M310.7 345.3q0 1 1 1.3c-1.7 1-6.7 4.5-8.7 4.3 1.2-2 5.6-4.4 7.7-5.6Z"/><path fill="#2845c2" fill-opacity=".2" stroke="#2845c2" stroke-opacity=".2" stroke-width=".5" d="M372.7 123.1q.4 1 1.4 1.3l-7.7 4.4-.2-1q0-.8.8-1.1 3-1.7 5.7-3.6Z"/><path fill="#2b4fc4" fill-opacity=".8" d="M178 503.8q4 1.2 8.3 1.4-2.1 1.6-4.8 1.6c-1-.4-3.6-1.8-3.5-3"/><path fill="#2b4bb4" fill-opacity=".8" d="m298 474.2-.3.8c-2.4 1.2-4 2.7-6.9 1.4v-.4c.6-.7 6-2 7.2-1.8"/><path fill="#2b4fbe" fill-opacity=".2" stroke="#2b4fbe" stroke-opacity=".2" stroke-width=".5" d="M132.8 143.2v.8q0 .8-.8 1.4-3 1.4-5.8 3.5-.3-.9-1.3-1.2z"/><path fill="#2c52ce" fill-opacity=".4" stroke="#2c52ce" stroke-opacity=".4" stroke-width=".5" d="M215 50.7q0 1.3-1.4 1.3.5-.9 1.5-1.3ZM332 104q-.5 1.3-2 1 .5-1.3 2-1Zm-168.8 59.2q-.7.8-1.6.8.7-.5 1.6-.8Zm47 2q-.6.9-1.5.7zm-47 5q-.7.5-1.5.5.7-.4 1.6-.6Zm205 12.8q-1.2 1.5-3 1.9.4-2.3 3-2Zm-131.8 11.1q-.7.7-1.6.7.7-.6 1.6-.7Zm-51 73q-.7.9-1.6.7z"/><path fill="#2b52d0" fill-opacity=".3" stroke="#2b52d0" stroke-opacity=".3" stroke-width=".5" d="M210 136q-.3 1.1-1.3.7zm47 2q-.3 1-1.3.7zm-87.7 28.3-1.2.8q0-1 1.2-.8Zm113.6.6q0 1.2-1.2.8zm-74.6 5.4-1.2.8q0-1 1.2-.8Zm-48.4 21.6q0 1.1-1.2.8zm26 29q-.2 1.2-1.2.8zm46 17q-.2 1.2-1.2.8zm53.2 62q-1 2-3.2 2 1-2 3.2-2Z"/><path fill="#2b51ce" fill-opacity=".4" d="M478 64.2q-.3.5-.9.5.2-.6 1-.5M433.4 90q-.7.5-1.5.6.5-.7 1.5-.6m-211.7 38.8q.2 1.1-.9 1zm52.6 1.2q-.6.6-1.4.6.5-.7 1.4-.6m-5.4 1q0 1.1-1 .7zm-46.4 1-1.1.8q0-1 1-.8m65.8 32.2q-.7.6-1.5.5zM171.8 187q0 1-1 1zm43.6 26-1.1 1q0-1 1-1m-24.3 7.2q-.5 1-1.4.8a3 3 0 0 1 1.4-.8m56.2 13.8-1 .9q0-1 1-1"/><path fill="#284bb1" d="m189.3 56-1.3.5q-1-.3-1.7-1 3-2.1 6.2-3.6.7.5.2 1.1a8 8 0 0 0-3.4 3"/><path fill="#2c53ce" fill-opacity=".3" stroke="#2c53ce" stroke-opacity=".3" stroke-width=".5" d="M410.8 21q0 1-1 1 0-.8 1-1ZM317 148q-.5 1.5-2 1 .5-1.2 2-1Zm-90 113c-.2 1.3-3.7 3.3-5 3a7 7 0 0 1 5-3Z"/><path fill="#2a4ec0" fill-opacity=".8" d="M213.1 52.4c-1 1-3.5 2-3.8 3.3l-2.6.7q-.8-.6-.2-1.4c1.7-.5 5-3.6 6.6-2.6"/><path fill="#2748a6" d="M14.3 48.2v-2.4l4.2-2c.9.8 0 1.2-.5 1.7z"/><path fill="#223fa0" fill-opacity=".1" stroke="#223fa0" stroke-opacity=".1" stroke-width=".5" d="M280.1 125.1q.6.3.9.8l-4.8 2.8q0-1.2-1.3-1.1a21 21 0 0 1 5.2-2.5Z"/><path fill="#223db0" fill-opacity=".2" stroke="#223db0" stroke-opacity=".2" stroke-width=".5" d="M295.7 415.3q.5.7 1.4.7l-.3 1a2 2 0 0 0-1.9 1c-1.3-.7-2.2 1.2-3.8 1.2-.1-2 3.4-2.8 4.6-4Z"/><path fill="#2d51cd" fill-opacity=".2" stroke="#2d51cd" stroke-opacity=".2" stroke-width=".5" d="m476.3 65.3-1.2.8q0-1 1.2-.8ZM278 214c-.3 1.3-3.6 3.3-5 3q1.8-2.7 5-3Zm-38.7 25.3-1.2.8q.2-1 1.2-.8Z"/><path fill="#2d54cd" fill-opacity=".2" stroke="#2d54cd" stroke-opacity=".2" stroke-width=".5" d="M290 163q-.1 1.1-1.3.7zm-80 238c-.8 1.7-3.4 3-5 4v-1.4q2-2.1 5-2.6Z"/><path fill="#2c52ce" fill-opacity=".5" stroke="#2c52ce" stroke-opacity=".5" stroke-width=".5" d="M409.1 21.9q-.2 1-1.4 1.1.3-1 1.4-1.1ZM146.1 136c0-1 4.1-4 4.9-2.7-1.2 1.2-3.2 2.6-5 2.7Z"/><path fill="#2b51cd" fill-opacity=".3" d="m412.3 102.3-1.3.7q.3-1 1.3-.7M229 125q0 1.1-1.2.7zm37.4 10.3-1.2.7q0-1 1.2-.7M178.9 183q-.2 1-1.2.7zm61.4 14.3-1.2.7q.2-1 1.2-.7m-11 7-1.2.8q0-1 1.2-.8m21.6 24.7q-.2 1-1.2.7zm-.6 3.3-1.2.8q0-1 1.2-.8"/><path fill="#2c53cf" fill-opacity=".4" d="m414.4 101-1.3.7q.3-.7 1.3-.6m-226.1 84.1-1.5.6q.6-.7 1.5-.6m68 2-1.4.6q.5-.6 1.4-.6m-90 12-1.4.6q.5-.6 1.4-.6m13 37-1.5.6q.6-.7 1.5-.6m65 0-1.4.7q.4-.8 1.3-.8m-22 14q-.6.5-1.4.6.5-.7 1.4-.6"/><path fill="#2b52cf" fill-opacity=".4" d="m459.4 75-1.4.7q.4-.7 1.4-.7m-33.6 33q.3-.9 1.1-.6-.3.6-1.1.6m-243.9 44.3q-.2.9-1.2.6zm9.3-.2-1.4.7q.5-.8 1.4-.7m37.7 2q-.3 1-1.3.8zM341 213q-1.2 1 0 0"/><path fill="#2d51cf" fill-opacity=".3" d="M195.8 144q0 1-1.2.9zm47 2.1q-.2 1-1.2.8zm-62.4 13-1.2.8q.2-1 1.2-.9m24.9 15-1 .8q0-1 1-.8m54 11-1 .8q0-1 1-.8m-45 70-1 .9q0-1 1-1"/><path fill="#2b51cf" fill-opacity=".4" d="m407.3 105-1.3.8q.3-.9 1.3-.7m-173.4 17.3c.4 1-.6.6-1.2.6a2 2 0 0 1 1.2-.6m-96.6 56q-.7.5-1.7.6a4 4 0 0 1 1.7-.7m47 2q-.7.6-1.6.7.8-.6 1.5-.7m7 2.7q-.7.6-1.5.8a3 3 0 0 1 1.5-.8m64.7 43.2c.2 1-.8.6-1.4.7z"/><path fill="#2c52ce" fill-opacity=".2" stroke="#2c52ce" stroke-opacity=".2" stroke-width=".5" d="m213.4 55-.4 1h-1.1q.4-1 1.5-1Zm185 55.3-1.3.8q.2-1 1.3-.8Zm-129 23-1.3.8q0-1.2 1.2-.8Zm-4 48-1.3.8q.2-1 1.2-.8Zm-12 49-1.3.8q0-1 1.2-.8ZM298 474.2l1.2-.3q-.3 1-1.5 1.1 0-.4.3-.8Z"/><path fill="#2b51ce" fill-opacity=".2" stroke="#2b51ce" stroke-opacity=".2" stroke-width=".5" d="m231.3 126.3-1.2.8q.1-1 1.2-.8Zm-7.4 1.6q-.2 1-1.3.8zm47 2q0 1.2-1.3.8.6-.5 1.3-.7Zm-12.6 10.4-1.2.8q.2-1 1.2-.8Zm-13.4 4.6q-.1 1-1.3.8zm-13.6 99.4-1.2.8q.1-1 1.2-.8Z"/><path fill="#2d51cd" fill-opacity=".4" d="m236.2 123.2-1.2.7q.3-.9 1.2-.7m-9 36.9-1.4.7q.6-.7 1.5-.8m54.1 11-1.4.7q.5-.8 1.4-.8m-11 7q-.7.5-1.5.7.4-.8 1.5-.7m-8.3 1.2q-.4.7-1.3.7zm-3.7 48-1.2.6q.2-.9 1.1-.7"/><path fill="#2a52cc" fill-opacity=".2" stroke="#2a52cc" stroke-opacity=".2" stroke-width=".5" d="M75 115q-.5 1.2-1.7 2l-.3-1.2a2 2 0 0 1 2-.9Zm142 17q-.3 1.1-1.3.7zm47 2q-.3 1-1.3.7zm34.3 26.3-1.2.7q0-1.2 1.2-.7Z"/><path fill="#2d52cd" fill-opacity=".4" stroke="#2d52cd" stroke-opacity=".4" stroke-width=".5" d="m388.3 116.1-1.2.6q.3-.7 1.2-.6Zm-177 141-1.5.6q.6-.6 1.4-.7ZM331 366q-.9 1.8-3 2 .9-2 3-2Z"/><path fill="#1f3761" fill-opacity=".2" stroke="#1f3761" stroke-opacity=".2" stroke-width=".5" d="m243.4 36-.4-1.3a3 3 0 0 1 2.6-1.8c1 1-1.6 2.3-2.2 3.1Z"/><path fill="#202740" fill-opacity=".4" stroke="#202740" stroke-opacity=".4" stroke-width=".5" d="m488.8 69.3-1.5 1.8-.3-1.5q.8-.6 1.8-.3ZM485 71l1-.4 1.3.5-1.6 1.1z"/><path fill="#284cb6" d="m127.1 55.8-1 .6q-1.2-.1-1.9-1 1.5-1 3.4-1.5c.8.7 0 1.2-.5 2"/><path fill="#203e81" fill-opacity=".3" stroke="#203e81" stroke-opacity=".3" stroke-width=".5" d="M476 32v1.2c-.6.7-2 2.5-2.9 1.5.6-.8 1.7-2.7 2.8-2.8Z"/><path fill="#2a53d0" fill-opacity=".2" stroke="#2a53d0" stroke-opacity=".2" stroke-width=".5" d="M413.9 96.9q-.1 1-1.2.8zm-11 7q-.1 1-1.2.8zm-205 39q-.2 1-1.3.8zm73 31q-.1 1-1.3.8zm-51 73q-.1 1-1.3.8z"/><path fill="#2c53cf" fill-opacity=".2" stroke="#2c53cf" stroke-opacity=".2" stroke-width=".5" d="m379.4 121.3-1.3.7q0-1.2 1.2-.7Zm-165 16-1.3.8q.1-1 1.2-.8Zm49.5 40.6q-.2 1-1.2.8zm-25 58q-.1 1.1-1.3.8z"/><path fill="#283358" fill-opacity=".5" stroke="#283358" stroke-opacity=".5" stroke-width=".5" d="M335.6 405.4c.3 1.1-1.6 1.5-2.4 1.4q.5-1.8 2.4-1.4Z"/><path fill="#152967" fill-opacity=".1" stroke="#152967" stroke-opacity=".1" stroke-width=".5" d="M205 403.7v1.3q-.9.4-1.6 1a3 3 0 0 1-1.4-1q1.4-.9 3-1.4Z"/><path fill="#2c51cb" fill-opacity=".2" stroke="#2c51cb" stroke-opacity=".2" stroke-width=".5" d="M307 153v1.2q-.7 1.2-2 1.8v-1.3a7 7 0 0 1 2-1.7Z"/><path fill="#162b67" fill-opacity=".1" stroke="#162b67" stroke-opacity=".1" stroke-width=".5" d="M305 154.7v1.3l-1.7 1.3-1.2-.4-.2-1z"/><path fill="#182a66" fill-opacity=".1" stroke="#182a66" stroke-opacity=".1" stroke-width=".5" d="M221 178.8v1.2l-1.5 1q-.9 0-1.5-1 1.3-1 3-1.2Z"/><path fill="#203dda" fill-opacity=".2" stroke="#203dda" stroke-opacity=".2" stroke-width=".5" d="m105.2 63.8.7.4q-.6 1-1.6 1.6-.4-.9-1.4-1.2 1-.6 2.3-.8Z"/><path fill="#253a72" fill-opacity=".7" d="M27 4.1q-1.5 1.2-3.4.8 1.5-1.2 3.5-.8"/><path fill="#28386d" fill-opacity=".6" d="M381.4 4.9q-1.9.1-3.7-.2c.8-1.2 3-1 3.7.2"/><path fill="#28355f" fill-opacity=".6" d="M86.4 4.7q-2 .5-3.7 0 1.8-1.5 3.7 0"/><path fill="#2b52cd" fill-opacity=".5" d="M234.4 201.1q-.7.6-1.5.7.5-.7 1.5-.7m-11 7q-.7.6-1.6.7.5-.9 1.5-.7m-26.5 52.1q-.3.9-1.2.7z"/><path fill="#2d50ce" fill-opacity=".3" d="m183.3 188.3-1.2.7q0-1.1 1.2-.7m68 2-1.2.8q0-1 1.2-.8M204.9 212q-.2 1-1.2.7z"/><path fill="#282f45" fill-opacity=".4" stroke="#282f45" stroke-opacity=".4" stroke-width=".5" d="M259 479.2q-1.2.9-2.9.6 1.2-1.5 3-.6Z"/><path fill="#2b50d0" fill-opacity=".2" stroke="#2b50d0" stroke-opacity=".2" stroke-width=".5" d="m287.3 167.3-1.2.8q.2-1 1.2-.8Zm-11 7-1.2.8q0-1 1.2-.8Z"/><path fill="#283561" fill-opacity=".2" stroke="#283561" stroke-opacity=".2" stroke-width=".5" d="M197.2 63.3h1.7c-.4.7-2 1.5-1.7 0Z"/><path fill="#283150" fill-opacity=".5" stroke="#283150" stroke-opacity=".5" stroke-width=".5" d="M203 496q-.7 1-1.8.8.6-1 1.8-.7Z"/><path fill="#2b3d73" fill-opacity=".2" stroke="#2b3d73" stroke-opacity=".2" stroke-width=".5" d="M205 495.3q-1 .7-2 .8.5-1.4 2-.8Z"/><path fill="#2b51cd" fill-opacity=".3" d="M461 67q-.3 1-1.3.7zM228.2 246.2l-1.2.8q0-1 1.2-.8"/><path fill="#2e52cc" fill-opacity=".2" stroke="#2e52cc" stroke-opacity=".2" stroke-width=".5" d="M391.9 110.9q0 1-1.2.8zm-11 7q0 1.2-1.2.8z"/><path fill="#273255" fill-opacity=".5" stroke="#273255" stroke-opacity=".5" stroke-width=".5" d="M291.1 419.2a2 2 0 0 1-1.9.7q.5-1.1 2-.7Z"/><path fill="#2b4ab0" fill-opacity=".9" d="M296.8 417c.3 1-1.3 1-1.9 1q.6-1 2-1"/><path fill="#274ece" fill-opacity=".1" stroke="#274ece" stroke-opacity=".1" stroke-width=".5" d="m487 69.6.3 1.5-1.3-.5z"/><path fill="#2749a4" fill-opacity=".4" d="M221 46.8q-.3 1.2-1.3 1.2.4-.7 1.2-1.2"/><path fill="#2e51c7" fill-opacity=".4" d="M218 48.8q-.2 1.2-1.3 1.3.3-1 1.3-1.3"/><path fill="#243f86" fill-opacity=".5" d="M8.3 13.9q-.3.8-1 1.4-.2-1.3 1-1.4"/><path fill="#2c52cd" fill-opacity=".8" d="M480.3 76.7q-.3 1.1-1.4 1.2.5-.9 1.4-1.2"/><path fill="#2d4cb7" fill-opacity=".2" stroke="#2d4cb7" stroke-opacity=".2" stroke-width=".5" d="m423.3 137-1 1q0-1 1-1Z"/><path fill="#2b4ec6" fill-opacity=".6" d="M422.3 138q-.6.8-1.6.8a2 2 0 0 1 1.6-.8"/><path fill="#2d51ce" fill-opacity=".2" d="M238 149q-.3 1-1.3.7z"/><path fill="#293553" fill-opacity=".3" stroke="#293553" stroke-opacity=".3" stroke-width=".5" d="M393.1 167q-.5.8-1.2 1 .3-.8 1.2-1Z"/><path fill="#2d53cd" fill-opacity=".6" d="m411 20.1 1.2.3q-.7.5-1.4.5z"/><path fill="#24418a" fill-opacity=".5" stroke="#24418a" stroke-opacity=".5" stroke-width=".5" d="M198.8 453c.1 1.1-1.4 1-2.2 1q.8-1.2 2.2-1Z"/><path fill="#284ac7" fill-opacity=".2" stroke="#284ac7" stroke-opacity=".2" stroke-width=".5" d="M131 132q-.8 1.5-2.3 2.3a99 99 0 0 0-9 5.8l-1.9.7q-.3-.8-1-1.2l12.2-7q1-.5 2-.6Zm228.3 69.8q-.3 1.2-1.4 2-5 2.7-9.9 5.6-.9.4-2 .6.6-1.2 1.6-1.8 5.3-3.2 10.4-6.6.8-.6 1.3.2Z"/><path fill="#243867" fill-opacity=".3" stroke="#243867" stroke-opacity=".3" stroke-width=".5" d="M105.2 63.2q1-.1 1.9.5l-1.2.5-.7-.4z"/><path fill="#2b47a3" fill-opacity=".7" d="M406 5.1q-1.6.7-3.5.7-1.2.3-1.4-.9 2.5-1.2 4.9.2"/><path fill="#2c52cf" fill-opacity=".5" stroke="#2c52cf" stroke-opacity=".5" stroke-width=".5" d="M224 315q.3-1.2 1.5-1.1c1.3.9-1 1.2-1.6 1Z"/><path fill="#2c53cf" fill-opacity=".5" stroke="#2c53cf" stroke-opacity=".5" stroke-width=".5" d="M349 179.9c0 .8-1.3 1.7-1.9.8q.7-1 1.8-.8ZM280 305c-.4 1-2 3-3 1.6q1-1.4 3-1.6Z"/><path fill="#2b55cc" fill-opacity=".2" stroke="#2b55cc" stroke-opacity=".2" stroke-width=".5" d="M362.2 171.8q-1.9 3-5.2 3.1c.4-1.5 3.7-3 5.2-3.1Z"/><path fill="#2c52ce" fill-opacity=".5" stroke="#2c52ce" stroke-opacity=".5" stroke-width=".5" d="M175 132q.4-1.3 1.7-1.7 2.4-.3.5 1.3-1 .5-2.3.3Zm178 4c-.4 1-2 2.6-3 1.6.2-1.3 2-1.5 3-1.6Zm-110 30c0-1.1 3.6-3.1 4.6-3 1.2 1-3.8 3-4.7 3Zm55 188c-.4 1-2 2.6-3 1.6.3-1.3 2-1.4 3-1.6Zm32-249c-.5.9-2 3.1-3 1.7.3-1.1 2-1.4 3-1.7Zm-34 11q.5-2.1 2.6-2c1.4 1-2 2-2.7 2Zm-61 140q.3-1.2 1.6-1.1c1.2.8-1 1.2-1.5 1Z"/><path fill="#1f3e7d" fill-opacity=".4" stroke="#1f3e7d" stroke-opacity=".4" stroke-width=".5" d="M220.8 454.2c-.5 1-1.7 2.1-2.8 1.3q.8-1.8 2.8-1.3Z"/><path fill="#213e76" fill-opacity=".3" stroke="#213e76" stroke-opacity=".3" stroke-width=".5" d="M306.3 19.7c-.2 1.2-2.1 2.7-3.3 2 .1-1.6 2.2-1.7 3.3-2Z"/><path fill="#1f3d74" fill-opacity=".4" stroke="#1f3d74" stroke-opacity=".4" stroke-width=".5" d="M337.8 13c.3 1-1.2 1.7-1.7.7q.7-.7 1.7-.6Z"/><path fill="#2649a9" d="M255 17.2c0-1.3 5.6-5.6 6.8-3.8-1.2 1-5.4 3.9-6.8 3.8"/><path fill="#1b3863" fill-opacity=".5" stroke="#1b3863" stroke-opacity=".5" stroke-width=".5" d="M192.9 17.2q.7-1.9 2.8-2.3c1.7 1.6-1.8 2.2-2.8 2.2Z"/></svg>