<svg xmlns="http://www.w3.org/2000/svg" style="shape-rendering:geometricPrecision;text-rendering:geometricPrecision;image-rendering:optimizeQuality;fill-rule:evenodd;clip-rule:evenodd" viewBox="0 0 512 512"><path fill="#cd4846" d="M264 297q-.3.8-1.2.6zm-3.2 1.8q-.4.8-1.3.7zm-1.9 1q-.3 1-1.3.8zm-1.3.8q0 1.8-1.8 1zm3.8.8-1.2.8q.3-.8 1.2-.8m-5.5.3q-.4 3-3.1 1.7zm4.3.5-1.2.9q.4-.7 1.2-.9m-1.7 1.3-1.2.8q.2-1 1.2-.8m-6.6.4c.6 2.9-5.5 2.9-.8 4.6a80 80 0 0 1-10.3 6.8q-.9-.3-1.8.1l-17.7 10.2q-1 .6-1.1 1.7-2.5-.9-4-3 18-10 35.7-20.4m5.4.4-1.2.9q.3-.9 1.2-.9m-1.2.9-2.8 1.9c-.9-2.1 1.3-2.4 2.8-2"/><path fill="#ce4545" fill-opacity=".3" stroke="#ce4545" stroke-opacity=".3" stroke-width=".5" d="M397.3 68q-.4.7-1 1 0-1 1-1Zm-73.6 3q.1 1-1 1zm11.6.1q-.4.6-1 .9 0-1 1-.9Zm-26 15q-.4.6-1 .9 0-1 1-1Zm99.3 9.9q.2 1-1 1zm4.7 1q-.4.7-1 1 0-1 1-1Zm-17.5 7q0 1-1.1 1zm-95.8 2c-.6 1.5-5.5 4.2-7 4 1.4-1.6 5-4 7-4Zm26.4 3.1q-.4.5-1 .8 0-1 1-.8Zm-149.3 4.7q-1.8 2.9-5.1 3.2c.4-1.5 3.6-3 5.1-3.2Zm75.7 2.2q0 1-1.1 1zM83.1 179q-1 2-3 2a4 4 0 0 1 3-2Zm43.2 7-1 1q0-1 1-1Zm-17.5 7q0 1.1-1.2 1zm329 11q0 1.1-1.2 1zm-355 4.1q-.2 1-1.2.8zm343.5 8-1.1 1q0-1.1 1.1-1Zm10.8 6.9a7 7 0 0 1-5.1 3 7 7 0 0 1 5-3Zm44.7 2q0 1-1 1zm-379 5q0 1-1.1.9zm352 12q0 1-1.1 1zm-11.6 12q-.3.6-.9 1 0-1 1-1Zm-57.1 15a7 7 0 0 1-5.1 3q2-2.6 5-3Zm-11 24a7 7 0 0 1-5.1 3c.5-1.5 3.5-3.1 5-3Zm23.3 5.2-1 .8q-.2-1 1-.8ZM144 332a8 8 0 0 1-5 2.9c.6-1.4 3.5-3.3 5-3Zm60.8 3q0 .9-1 .9.3-.6 1-1Zm-26 14.9q0 1-1 .9zM139 362a8 8 0 0 1-5 3c1-1.5 3-3.3 5-3Zm96.3 8-1 1q0-1 1-1Zm-20.5 8q0 1-1 1zm15 9.1q0 1-1.1.9zm1.6 4-1 .9q-.2-1 1-.9Zm-69.6 1q0 1-1.2.9zm38.6 0-1 .8q0-1 1-.9Zm-27 17-1 .9q0-1 1-1ZM317 419q-1 1.8-3.1 2.2.6-2.4 3-2.3Zm-64.2 2q0 1-1 .8z"/><path fill="#be8158" d="M403.7 179.2v.4q-1 .2-1 1.1-.3.8-1 1.4-8 4.4-15.6 9.3a2 2 0 0 1-1.8-.1q0-.6.6-.9 8.7-5.1 17.1-10.7.7-.6 1.7-.5m-112.6 63.6 1.2-2.4q.3-1 1.2-1.4 10.2-5.7 20-12c.9-.5 2.5-1.7 2.2.3a43 43 0 0 1-6.8 4l-16.7 11.2q-.5.3-1.1.3"/><path fill="#ce4545" fill-opacity=".4" d="M334.8 64q0 1-1 1zm69.5 0q-.6.8-1.6.8.6-.8 1.6-.8m-62 3.2q-.6.4-1.4.6.5-.7 1.4-.6m35.5 5.8q0 1-1 1zm-7.6 5.3q-.5.7-1.4.7.6-.6 1.4-.7M316.4 82a2 2 0 0 1-1.6.7q.6-.7 1.6-.7m-11.2 1.2q-.4.9-1.5.7.7-.5 1.5-.7m57 0q-.5.8-1.4.8.5-.6 1.4-.8m-8 5q-.5.7-1.4.7zm-8 5q-.5.9-1.4.7a3 3 0 0 1 1.4-.7m74.2-.2-1.3.8q.3-1 1.3-.8m-87 12-1.2.8q.1-1 1.2-.7m-88.1 18.1-1.2.7q0-1.1 1.2-.7M173 132q-1.2 1.2 0 0m-139 3c.3-.6 1.3-1.6 1.8-.7q-.7.9-1.9.6m39 35c-.4 1.5-3.6 3-5 3q1.9-2.5 5-3m416.2 2.3q-.6.7-1.6.7.7-.6 1.6-.7m-344 1.6a3 3 0 0 1-1.5.8q.5-.8 1.5-.8m-17.1 8.3q-.4.9-1.4.8a3 3 0 0 1 1.4-.8m357.2-.2q-.7.6-1.5.7.7-.7 1.5-.7m-370 11-1 1q0-1 1-1m-13.3 4.2q-.4.9-1.4.7zm357.4 0-1.6.6q.6-.9 1.6-.7M76.1 212q-.4.9-1.5.7.7-.5 1.5-.7m357.2-.1-1.6.7q.6-.9 1.6-.7m-19.3 7.2q-.6.7-1.5.7.7-.6 1.5-.7m59.6 10.8q0 1-1 .8zM96 234.3q-.3.8-1.2.6.5-.5 1.2-.6M44.4 238q-.8.5-1.5.7.4-.7 1.5-.7m391 3q-.7.5-1.6.8.6-.9 1.6-.7m-402 4q-.6.5-1.3.8.3-.9 1.3-.8m43.7.2q-.5.9-1.4.7.6-.6 1.4-.7m293.7.9q0 1-1.1.9zm86.5 0-1 .7q0-.8 1-.8m-374 1q-.7.4-1.5.6.7-.6 1.6-.6m334 2.1q-.7.7-1.6.7.7-.6 1.5-.7m33 .8q-.7.6-1.6.8a2 2 0 0 1 1.6-.8m26 3a2 2 0 0 1-1.5.8q.6-.8 1.5-.7m-67 1.2q-.6.9-1.6.7.8-.6 1.5-.7m0 1.9a2 2 0 0 1-1.5.6q.4-.9 1.5-.6m18.5 3q0 1-1.1.8zm-7.5 5.2q-.7.6-1.7.6.8-.4 1.7-.6M91 266.1a3 3 0 0 1-3 1.8q.7-2 3-1.8m337.8 10q0 1-1 .8zm-23.5 18a3 3 0 0 1-1.5.6q.7-.6 1.5-.6m-207.3 45q-.3 1-1.3.8zm-4.7 8a3 3 0 0 1-1.5.6q.6-.7 1.5-.6m-8 5-1 .9q0-1 1-1m-13.2 2q-.4 1-1.5.8zm35.8 28q-.1 1-1.2.8zm.4 5-1.6.6a2 2 0 0 1 1.7-.7m72.7 3a4 4 0 0 1-3 1.9q.8-2 3-2m-58 1.2q-.5.7-1.4.7a3 3 0 0 1 1.4-.7m32-.3a3 3 0 0 1-3 2q.6-2 3-2m-99.9 5.2q-.4.8-1.4.7.6-.5 1.4-.7m26.2 8-1.4.6q.5-.7 1.4-.7m-3 13q-.7.7-1.7.8.7-.6 1.6-.7m67.7 8q-.5.9-1.4.7zM229.3 441l-1 1q-.1-1 1-1"/><path fill="#bf3f3f" fill-opacity=".2" stroke="#bf3f3f" stroke-opacity=".2" stroke-width=".5" d="M179.9 186c0 1-1.7 1.7-2.3 2.3l-17.3 10.5a2 2 0 0 0-1.4-1.2l19.1-11q.9-.6 1.9-.5Zm22 170q0 .9-.9 1.3l-20.7 12.6q-.3-1-1.4-1.3l21-12.2q1-.4 2-.4Z"/><path fill="#ce4545" fill-opacity=".3" stroke="#ce4545" stroke-opacity=".3" stroke-width=".5" d="M354.3 60.3q-.6.5-1.3.7.3-1 1.3-.7ZM448 71.9q-.2 1-1.3.8zm-135 6q-.3 1.1-1.3.8zm122 2q-.3 1-1.3.8zM172 92c-.6 1.8-3.3 3-5 3.1.5-1.4 3.3-3 5-3Zm173.3 6.4q-.6.5-1.3.7.2-1.1 1.3-.7Zm-62 3-1.3.7q.3-1.1 1.3-.7ZM34 134.9q-.7 2.3-3 2.1.9-1.9 3-2Zm311 1.1a7 7 0 0 1-5 3q1.9-2.5 5-3Zm-207.7 43.3-1.3.7q.3-1.1 1.3-.7Zm334 11-1.3.7q.3-1 1.3-.7ZM454 194q-.3 1-1.2.8zm-384 8a3 3 0 0 1-3 2q.8-2 3-2Zm78 2q-.3 1-1.2.8zm-84 15q-.3 1-1.3.8zm409.3.3-1.3.7q.2-1.1 1.3-.7Zm-407 5-1.3.7q.1-1 1.2-.8Zm334 7-1.3.7q.3-1.1 1.3-.7Zm47 3-1.3.7q.3-1 1.3-.7ZM84 241q-.2 1-1.2.8zm295 0q0 1.2-1.3.7zm49.3 4.3-1.3.8q.3-1 1.3-.8Zm49.7-.3q-.3 1-1.3.8zm-69 26q-.2 1-1.2.8zm34.3 1.3-1.3.7q.3-1.1 1.3-.7Zm-26 15-1.3.7q.3-1.1 1.3-.7ZM407 290q-.2 1-1.2.7zm-247 71q0 1.1-1.2.7zm54 1q0 1-1.2.7zm-60.7 10.2-1.2.8q.3-1 1.2-.8Zm102.5 0q0 .8-1 .5zM134 376q-.3 1-1.3.8zm54 1q-.3 1.1-1.3.7zm31.3 3.3-1.2.7q0-1.1 1.2-.7Zm23 4-1.3.7q.1-1 1.2-.8Zm-71 8-1.2.7q.2-1 1.2-.7Zm196.9 3.6q-1 2-3.2 2.2 1-2 3.2-2.2Zm-205 1.4-1.1.7q0-1.1 1.2-.7Zm-8 5-1.2.7q.3-1 1.3-.7ZM170 404q-.3 1.1-1.3.7zm143 0q-1 1.8-3 2.2.7-2 3-2.3Zm-34 2q-.3 1-1.2.8zm-77.7 4.3-1.3.7q.3-1 1.3-.8ZM185 413q-.3 1-1.3.7zm5.3 4.2q-.6.6-1.2.8 0-1 1.2-.8Zm42 22-1.3.8q.3-1 1.2-.8Z"/><path fill="#ce4545" fill-opacity=".4" stroke="#ce4545" stroke-opacity=".4" stroke-width=".5" d="M349.4 63q-.6.5-1.4.8.4-.9 1.4-.7ZM402 88.2c-1.1 1.4-3.2 3-5 3a6 6 0 0 1 5-3Zm-235.2 7A4 4 0 0 1 164 97q.8-2 3-2Zm119.3.2a2 2 0 0 1-1.5.6zm118 3.9q-.6.7-1.5.7.6-.6 1.4-.7Zm-26.3 16q-.3.8-1.2.8.4-.6 1.2-.7ZM258.7 148q.4-.9 1.2-.6-.4.6-1.2.6ZM54 157q.6-1 1.7-1c1.2.7-1.2 1.2-1.7 1Zm411.2 30.2q-.5.7-1.4.7zm-312.2 14q-.2.9-1.1.7.5-.4 1.1-.6Zm-5.5 5.8-1.2.8q.1-1 1.2-.8Zm293 1-1.4.7q.4-.7 1.3-.7Zm-301 4q-.7.6-1.6.8.5-.8 1.5-.8Zm333.9 2.3q-.7.6-1.6.7a2 2 0 0 1 1.6-.7Zm-404.3 2q-.4.7-1.3.7zm396.2 3q-.6.7-1.6.6.7-.5 1.6-.6Zm-342 2.7-1.3.8q.4-.8 1.3-.8Zm308.8 4c-.6 1.4-5.6 4.2-7 4 .4-1.1 5.6-4.1 7-4Zm10.3 11.1-1.3.7q.3-.9 1.3-.7ZM89 238.3q-.3.8-1.3.6.6-.4 1.3-.6Zm350.3 14q-.6.7-1.6.7.7-.6 1.6-.8Zm-27 17q-.5.8-1.5.6zm-34.2 4.6c.1 1-1.4 1.7-2 .8a2 2 0 0 1 2-.8Zm34.3 16.1-1.2.7q.3-.8 1.2-.7Zm4.8 11q-.7 1.4-2.2 1 .7-1.3 2.2-1ZM370 314q-.1.9-.9 1.3a6 6 0 0 1-4 1.7c.3-1.2 3.6-3.2 5-3Zm-160.6 23.1q-.7.4-1.6.6.7-.6 1.6-.6ZM165 358.2q-.3 1-1.4.8.6-.6 1.4-.8ZM142.3 379q-.7.6-1.5.8.5-.8 1.5-.8Zm42 5.1-1.4.6q.5-.6 1.4-.6Zm16.6 2.2q-.3.8-1.2.6zm38.4-.3-1.5.7q.7-.6 1.5-.7Zm69.7 3q.3-1.2 1.6-1.1c1.3.8-1 1.3-1.6 1Zm-119.6 10a3 3 0 0 1-1.7.7q.7-.7 1.7-.7Zm-41.6 1q0 1-1 .9zm129.5 9.9-1.4.8q.4-.9 1.4-.8Z"/><path fill="#b83c3c" fill-opacity=".2" stroke="#b83c3c" stroke-opacity=".2" stroke-width=".5" d="m438.7 65 1.1.2.4 1.4q-14.3 8.3-28.5 16.3c-1.9 1-2.3 2.5-4.7 2q.6-.9 1.6-1.5 15-9 30.1-18.5Z"/><path fill="#c54343" fill-opacity=".2" stroke="#c54343" stroke-opacity=".2" stroke-width=".5" d="M134 365a2 2 0 0 1-1 1.2q-8.7 5.1-17 10.7-1-.3-1-1.1.7-.9 1.6-1.6l16-9.1q.6-.3 1.4-.1Zm116 29.1q-1 1.5-2.3 2.2l-12.4 7.6q-.4-.9-1.4-1.2l14.1-8.2q1-.4 2-.4Z"/><path fill="#cf4444" fill-opacity=".3" stroke="#cf4444" stroke-opacity=".3" stroke-width=".5" d="M157 66.1a7 7 0 0 1-5 3c.3-1.5 3.6-3.4 5-3ZM351 90q-.3 1-1.3.8zm-60 2q-.3 1.1-1.3.8zm123 1q-.3 1.1-1.3.8zm-107.3 8 .2 1.2c0 .9-4.2 2.8-4.9 3.4q-1 .6-2 .4c.5-1.7 5.3-3.6 6.7-5ZM51 159.2c-.2 1.4-3.7 3-5 3 .8-1.5 3.2-3.3 5-3Zm111 3.9c-.9 1.6-3 3.2-5 3q2-2.5 5-3Zm-65 37q0 1.1-1.2.7zm28 3a7 7 0 0 1-4.8 3c.7-1.7 3-3 4.9-3Zm289 48q0 1.1-1.2.7zm.4 2.3-1.2.7q0-1.2 1.2-.7Zm15 9-1.2.8q0-1 1.2-.8ZM81 272c-1 1.4-3.1 3-5 2.9q1.8-2.6 5-3Zm58 62.9c.2 1.2-1.3 1-2 1q.5-1.2 2-1Z"/><path fill="#ce4545" fill-opacity=".4" d="M368.4 52q-.7.6-1.6.8.5-.8 1.6-.8m74.8 23.2q-.6.8-1.5.8.7-.5 1.5-.8m-83.9 15-1.4.5q.5-.7 1.4-.6m-21.1 8q-.6.8-1.5.8zm-62.9 4.1a2 2 0 0 1-1.5.7q.7-.6 1.5-.7m55 1q-.6.7-1.6.7.6-.6 1.6-.7m-59 4.8-1.1.7q0-.8 1-.7m51 .2q-.7.6-1.7.6.7-.6 1.7-.6m-8 5a2 2 0 0 1-1.5.6q.6-.6 1.4-.7M202 129a4 4 0 0 1-3 2q.6-2.3 3-2m279.2 48.2a2 2 0 0 1-1.5.8q.7-.6 1.5-.8M85 178q-.5 1.3-1.8 1c-.2-1.1 1.2-1.1 1.8-1m102 4q-.6 1.2-2 1 .7-1.2 2-1M74.4 219q-.7.6-1.5.7a2 2 0 0 1 1.5-.6m40.4 4.3q-.1.8-1 .6.3-.5 1-.6m291.3 1q-.4.7-1.4.7zm55.3 1.8-1.6.6q.6-.7 1.6-.6m-411.2 1.2q-.6.8-1.6.6.7-.5 1.6-.6m426.1 7.8-1.5.6a2 2 0 0 1 1.5-.6m-88 3q-.7.5-1.4.6.5-.7 1.4-.6m44.8 1.2q-.5.8-1.4.6.6-.5 1.4-.6M75.3 252q-.6.6-1.5.7.6-.8 1.5-.7m-8 5-1.6.8q.7-.9 1.6-.8m-8 5q-.7.6-1.5.7.6-.7 1.5-.6m33.7 3q-.6 1.2-2 1 .6-1.2 2-1m-41.7 2-1.5.8q.6-.7 1.5-.8m389 2.3q-.7.6-1.7.6.7-.5 1.7-.6m-9 9.8q-.6.5-1.4.6.5-.6 1.4-.6m-38.2 2.2q-.4.9-1.5.6zm28.8 16.6a7 7 0 0 1-4.8 3.2c.6-1.7 3.1-3 4.8-3.2m-196 57.5q-.3.6-1.2.5.4-.5 1.2-.5m-1.6 3.6q-.6.6-1.4.7.5-.7 1.4-.7m-78.1 10.2q-.5.9-1.5.8a2 2 0 0 1 1.5-.8m226.8 6.9a4 4 0 0 1-3 2q.7-2.2 3-2M250.3 379q-.7.6-1.5.8.5-.8 1.5-.8m-68.1 18.3a2 2 0 0 1-1.6.7q.7-.6 1.6-.7m109 2q-.6.9-1.5.5zm-82 5.7q-.5.6-1.4.7.6-.6 1.5-.7m-12 1.2q-.6.7-1.4.8.6-.6 1.4-.8m23 34q-.6.9-1.5.7.7-.5 1.4-.6"/><path fill="#cd4646" fill-opacity=".3" stroke="#cd4646" stroke-opacity=".3" stroke-width=".5" d="m347.3 64.3-1.2.7q0-1.1 1.2-.7Zm78 26-1.2.7q0-1.1 1.2-.7ZM335 99.9q0 1.1-1.2.8zm3.4 2.4-1.2.8q.2-1 1.2-.8Zm-11.4 2.6q-.2 1-1.2.8zm61 4q-.2 1-1.2.8zm-69 1q0 1.1-1.2.8zm-58 1q0 1.1-1.2.8zm-10.6 9.4-1.3.7q.1-1.2 1.3-.7Zm43 8-1.2.7q0-1.2 1.2-.7ZM352 131v1.1c-1.4 1.6-5 4-7 4 .3-1.8 5.6-3.9 7-5Zm126 48q-.3 1.1-1.3.7zm-13.7 15.3-1.2.7q0-1.1 1.2-.7ZM155 200q-.2 1.1-1.3.7zm-84 15q-.3 1-1.3.7zm20 22q-.3 1.1-1.3.7zm349.3 1.3-1.3.7q.3-1 1.3-.7Zm-10.4 2.6q0 1.1-1.2.8zm14 8q-.2 1-1.2.8zm-373.6 6.4-1.2.8q.1-1 1.2-.8Zm385.6 3.6q0 1-1.2.8zm-401.6 6.4-1.2.8q0-1 1.2-.8Zm356 26-1.2.7q0-1.1 1.2-.7Zm-214 54-1.2.8q0-1 1.2-.8Zm-29.4 11.6q-.2 1-1.2.8zm60.4.4-1.2.8q.2-1 1.2-.8Zm-16 28-1.2.8q0-1 1.2-.8ZM276 393c-.8 1.8-4.9 3.7-6.6 4.8l-.2-1q.8-1.2 2.3-2 2.1-1.3 4.5-1.8Zm-58 .8q-.2 1.1-1.2.8zm5.4 2.4-1.2.8q.1-1 1.2-.8Zm-39 6-1.2.8q.2-1 1.2-.8Zm-2 20-1.2.8q.1-1 1.2-.8Zm58.6 5.6q-.2 1-1.2.8zm11 44.5a6 6 0 0 1 2.3 0c-.5.6-2.1.9-2.4 0Z"/><path fill="#cf4545" fill-opacity=".4" stroke="#cf4545" stroke-opacity=".4" stroke-width=".5" d="M346.2 57.2q-.5.8-1.5.8.7-.6 1.5-.8Zm39 17.8-1.3.8q.4-.8 1.4-.8Zm45 8.3q-.6.8-1.4.6.6-.4 1.3-.6Zm-133 9.7a2 2 0 0 1-1.4.7q.6-.6 1.4-.7Zm9 25.3q-.7.7-1.5.7.6-.7 1.4-.7Zm69 1-1.1.5q.1-.9 1-.6Zm-130 2q-.5.7-1.4.5.8-.4 1.4-.5Zm52.8 1.8q-.3 1-1.3.8zm-122 7a3 3 0 0 1-3 1.9 3 3 0 0 1 3-2Zm46 5.8q-.8 2.2-3 2a4 4 0 0 1 3-2ZM167 160c-.5 1.4-3.6 2.9-5 3 1-1.4 3.1-3.3 5-3Zm-46.1 26.2q-.3.9-1.2.8zM104.3 200l-1.5.6q.6-.6 1.5-.6Zm345 29.2q-.7.6-1.6.7a3 3 0 0 1 1.6-.7Zm-8 4.9q-.6.8-1.6.8.7-.6 1.5-.8Zm-350 7.8a3 3 0 0 1-1.5.7q.6-.7 1.5-.7Zm366 22q-.7.6-1.6.7.6-.6 1.6-.7Zm-76.3 8a4 4 0 0 1-3 2q.6-2.3 3-2Zm24.4 4q-.6.6-1.2.7.3-.7 1.2-.6Zm-6.1 19.3q-.7.6-1.6.6.7-.4 1.6-.6Zm-29.3.7a4 4 0 0 1-3 2q.6-2.2 3-2Zm-223 34q-.9 2-3 2 .8-1.8 3-2Zm54.3 12q-.7.5-1.5.7.5-.7 1.5-.7ZM376 357a3 3 0 0 1-3 2q.8-2 3-2Zm-159.7 7q-.7.6-1.5.7.5-.7 1.5-.7Zm96.6 40c.4-.7 1.4-1.6 2-.7q-.8.9-2 .6Zm-141.8 17.3-1 .8q.3-.7 1-.8Z"/><path fill="#ce4646" fill-opacity=".3" stroke="#ce4646" stroke-opacity=".3" stroke-width=".5" d="m432.3 86.3-1.3.7q.3-1 1.3-.7Zm-26 15q-.6.5-1.2.7 0-1 1.2-.7Zm-134.4 2.6q0 1-1.2.8zm47.4 9.4q-.6.5-1.3.7.3-1 1.3-.7Zm-62 3-1.2.7q0-1.1 1.2-.7ZM207 126a7 7 0 0 1-5 2.9c.3-1.3 3.6-3.2 5-3Zm17 8.8q-.5 1.5-2 1 .5-1.2 2-1Zm238 54q-.1 1.1-1.3.8zm24 17q-.3 1-1.3.8zm6.2 2-.3 1-.9.1q.3-1 1.2-1.1Zm-350 2.4-1.1.7q0-1.1 1.2-.7ZM129 215q-.2 1-1.3.8zm5.3.3-1.2.8q0-1 1.2-.8Zm335.6.6q0 1.1-1.2.8zm-8 5q0 1-1.2.8zM36.3 243.4l-1.2.8q0-1 1.2-.8Zm385 6-1.3.7q.3-1 1.3-.7ZM65 252q-.3 1-1.2.8zm371 2q-.3 1-1.3.7zM88 268q-.5 1.4-2 1 .6-1.3 2-1Zm308 29q-.3 1-1.3.7zm9 26c-.6 1.6-3.3 2.8-5 3 .8-1.7 3.1-3 5-3Zm-183 51q-.3 1-1.2.8zm31.3 3.3-1.2.7q0-1 1.2-.7Zm-66 5-1.2.7q0-1 1.2-.7Zm49.7.7q-.1 1-1.3.8zm-41 6q-.3 1-1.3.7zm-3.7 8.3-1.2.7q0-1.1 1.2-.7Zm18.7.7q-.3 1-1.3.7zm1.3 5.3-1.2.7q0-1.1 1.2-.7Zm71 3-1.2.8q0-1 1.2-.8ZM259.9 417q0 1.1-1.2.7zm6.4.3-1.2.8q0-1.1 1.2-.8Zm-17 11-1.2.7q.2-1 1.2-.7Zm-15.4 3.7q0 1.1-1.2.7z"/><path fill="#ce4444" fill-opacity=".3" stroke="#ce4444" stroke-opacity=".3" stroke-width=".5" d="m416.3 57.3-1.3.7q.3-1.1 1.3-.7ZM343 59q0 1.1-1.2.7zm-14.6 16.3-1.3.7q.3-1.1 1.3-.7ZM278.6 135l.3 1.1q0 .5-.4.7l-10.2 5.9-1.3.1 1-1.2zM460 151c-.5 1.6-3.5 2.6-5 2.8.5-1.3 3.6-3.2 5-2.8Zm-352.7 47.2-1.2.7q0-1.1 1.2-.7Zm51 2-1.3.7q.1-1.2 1.3-.8ZM89.9 204q-.1 1.1-1.2.7zm60.4 1.3-1.2.7q0-1 1.2-.7Zm295 0-1.3.7q.3-1.1 1.3-.7Zm32.6 5.6q0 1.1-1.2.8zm-91 25q0 1-1.2.8zm76 1q-.2 1-1.2.8zm-26 34q0 1-1.2.8zm-251 75q0 1.2-1.2.8zM381 354q-1.7 3-5 3c.3-1.3 3.6-3.2 5-3Zm-235.7 23.3-1.2.7q0-1.1 1.2-.7Zm34 10-1.2.7q0-1.1 1.2-.7Zm-14 27-1.2.7q.2-1 1.2-.7Z"/><path fill="#ce4646" fill-opacity=".3" d="M410 52.7q0 1.2-1.3 1.2zM361.3 56q-.7.6-1.6.7.7-.7 1.6-.7m64.7 6c.3-.7 1.3-1.6 1.9-.7q-.7.9-2 .7m13.3 20q-.7.6-1.5.7.7-.7 1.5-.7m-145.5 8q0 1-1 1 .4-.6 1-1m58.5 4q-.6.7-1.5.7.6-.7 1.5-.7m-88 18q-.6.7-1.5.7.6-.6 1.5-.6m105.5 8q0 1.2-1.2.9zm-1.4 3q-.7.6-1.6.6.5-.7 1.6-.6M267 143q-.5 1.3-2 1c-.1-1 1.3-1.1 2-1M54 157a3 3 0 0 1-3 2q.7-1.9 3-2m424.4 29q-.7.6-1.6.7.6-.6 1.6-.7m-348.5 14a7 7 0 0 1-5 3c.8-1.6 3.3-2.8 5-3m299.8 9q0 1.1-1 1zM57.2 223.3q-.6.8-1.5.7.7-.6 1.5-.7m397.2 7-1.5.6q.6-.8 1.5-.7m-399 .8-1.2.9q0-1 1.1-1m413.9 8.1a2 2 0 0 1-1.6.5q.7-.5 1.6-.5m-88 3q-.5.5-1.4.6.4-.9 1.5-.6m19.5 34q0 1-1.1.9zm-2.6 4q-.6.6-1.3.6.3-1 1.3-.5m19.5 3q0 1-1 .8zm6.7 0q-.6.6-1.6.7.6-.9 1.6-.7m-271.2 82q-.6.9-1.5.9zm53.9 1.2q-.5.6-1.4.7.6-.6 1.4-.7m-43.9 42q-.5.7-1.4.6.6-.5 1.4-.7m117-.2-1 .9q0-1 1-1"/><path fill="#ce4444" fill-opacity=".4" stroke="#ce4444" stroke-opacity=".4" stroke-width=".5" d="M427.4 89q-.7.6-1.4.7.5-.7 1.4-.6Zm-87 12-1.4.8q.3-1 1.4-.8Zm50.7 6.3q-.6.8-1.4.6.6-.6 1.4-.6Zm-98.2 2.7a3 3 0 0 1-2.8 2q.7-2 2.8-2Zm-40.5 9-1.3.9q.3-1 1.3-.9Zm87.6 20c-.4 1.4-3.6 3.4-5 3q2-2.5 5-3Zm-208.6 78q-.7.6-1.7.8.7-.8 1.7-.8Zm-68.1 9-1.5.6q.6-.6 1.5-.6Zm327 8.1q-.6.7-1.6.8zm61 28q-.7.8-1.5.8.5-.6 1.4-.8ZM78 301.1q-.6 1.2-2 .8.5-1.2 2-.8Zm71 28q-.9 1-2.2.9c0-1.2 1.4-1 2.2-1Zm-5.1 30a8 8 0 0 1-5 2.9c.9-1.5 3.2-3.2 5-3Zm48.3 20-1.5.6q.5-.7 1.5-.6Zm24 3q-.7.6-1.5.6.7-.6 1.6-.6Zm40.7 8c0 1-1.3 1-2 1q.5-1.5 2-1Zm-41 5.2q-.4.8-1.3.6zm44.3 25.7q-.6.5-1.5.7.7-.7 1.5-.7Zm-21.4 8.3q-.3.8-1.3.6.6-.5 1.3-.6Z"/><path fill="#cd4646" fill-opacity=".4" d="m411.3 60-1.5.8q.4-.8 1.5-.8m-95 16.2q-.6.8-1.6.7zm7 2-1.5.6q.5-.8 1.4-.7m93.9 13.1q-.6.7-1.5.7.7-.6 1.5-.7m-16 12.8-1.1.7q.2-.9 1.1-.7m-86.8 12-1.3.6q.3-.8 1.3-.6m-144.7 18q.1-.7.9-1c1 .6-.8 1-.9 1m-35.4 47q-.7.5-1.5.7.5-.8 1.5-.8M95 201.1q-.3.9-1.2.7.5-.5 1.2-.7m392.3 9.9-1.4.7q.5-.7 1.4-.7M134 212.3q-.4.8-1.3.6.6-.4 1.3-.6M414.3 223l-1.2.6q.3-.7 1.2-.6m42.8 1q-.5.8-1.4.8zm-341.8 3q-.6.5-1.4.7.5-.8 1.4-.8m283 2.2q-.7.6-1.6.6.7-.4 1.6-.6m-291 2.8q-.7.6-1.5.7.5-.8 1.4-.7m359 3.2q-.7.7-1.7.7.7-.6 1.6-.7m-367 1.8q-.7.6-1.6.7.7-.6 1.6-.7m382 6.2q-.6.8-1.6.6zm-34.1 4a2 2 0 0 1-1.5.7q.6-.6 1.5-.8m-377 2q-.6.8-1.6.7.7-.6 1.6-.8m346 2.8-1 .6q.1-.7 1-.6m48 7.9q-.4.6-1.2.7.3-.8 1.2-.7m-33 1.1q-.4.4-1.2.7.3-.8 1.3-.7m-43 41.2q-.5.8-1.6.7zM208.3 369q-.7.6-1.5.7.6-.7 1.5-.7m18.6 2.2q-.3.9-1.2.7zm-26.7 2.8q-.5.6-1.4.7.6-.7 1.4-.7m41.8 6.3q-.4.7-1.3.7zM134.2 384q-.7.6-1.5.5.7-.5 1.5-.5m39.9 1.1q-.5.8-1.4.8zM294.3 399q-.7.5-1.5.6.4-.9 1.5-.6m-96 12.9q-.7.6-1.6.7a2 2 0 0 1 1.6-.7m66.7 2.2q-.4.7-1.4.7z"/><path fill="#d04242" fill-opacity=".2" stroke="#d04242" stroke-opacity=".2" stroke-width=".5" d="M297 349c-.1 1.2-9.4 6.7-10.3 6.7-2.6-1.3 9-6.6 10.3-6.8Zm9 42q-.3.9-1 1.3-4.5 2.7-8.6 5.7-.4-1-1.5-1.2c2.2-1.3 9-5.8 11-5.8Z"/><path fill="#b43b3b" fill-opacity=".2" stroke="#b43b3b" stroke-opacity=".2" stroke-width=".5" d="M161.7 62.2q.4 1 1.4 1c-1.9.8-4 3-6 3 .3-2 3-3 4.6-4Zm148.2 344a2 2 0 0 1-1 1.1l-11.7 7.5q0-1-.9-1.5 5.7-3.5 11.7-6.8.9-.6 2-.3Z"/><path fill="#bb3b3b" fill-opacity=".2" stroke="#bb3b3b" stroke-opacity=".2" stroke-width=".5" d="M241.7 123.2q0 1.2 1.4 1.4l-17.1 9.8q-1 .6-2 .5.7-1 1.6-1.7z"/><path fill="#cd4444" fill-opacity=".3" stroke="#cd4444" stroke-opacity=".3" stroke-width=".5" d="M407 85c-1 1.6-3 3-4.9 3.1.4-1.6 3.3-3 5-3.1ZM64 100q-1 2-3.1 2.1 1-2 3.2-2Zm319 12q-.2 1-1.2 1zm69.4 89-1 1q0-1 1-1Zm-330.6 18q0 1-1 1zm-64 37.1q0 1-1 .8zm401 1q0 1-1 1zM207.2 353a8 8 0 0 1-5.1 3c.9-1.7 3.1-3 5-3Zm-37.9 9q-.3.6-1 1 0-1 1-1Zm58.1 13-1 1q0-1 1-1Zm-38.6 18q0 1-1 .9zm15.6 9.3a2 2 0 0 1-1.6.7q.7-.7 1.6-.7Zm22.9 34q-.5.7-1.4.7.5-.6 1.4-.8Z"/><path fill="#ba3e3e" fill-opacity=".2" stroke="#ba3e3e" stroke-opacity=".2" stroke-width=".5" d="m123.6 343.2.2.9q0 .5-.3.8l-13.1 8q-.6-.9-1.5-1.3z"/><path fill="#b63c3c" fill-opacity=".2" stroke="#b63c3c" stroke-opacity=".2" stroke-width=".5" d="M401.1 259.3q.3.8 1 1.2l-14 8q-1 .6-2 .4 0-.8.9-1.3 6.2-3.7 12.4-7.7z"/><path fill="#b74040" fill-opacity=".2" stroke="#b74040" stroke-opacity=".2" stroke-width=".5" d="M389.8 283.3q0 1.2 1.3 1.2l-14 8q-1 .6-2 .5 0-.9.9-1.3 6.8-4.4 13.8-8.4Z"/><path fill="#ab3a3a" fill-opacity=".2" stroke="#ab3a3a" stroke-opacity=".2" stroke-width=".5" d="M31 137q-.3.9-1 1.3l-11 7.2q-.9.5-2 .7 0-.7-.4-1.3l.6-.6 11.7-7q.9-.3 2-.3Z"/><path fill="#be4343" fill-opacity=".2" stroke="#be4343" stroke-opacity=".2" stroke-width=".5" d="M190.7 120q0 1.2 1 1.6l-11.7 6.8q-.8.6-2 .5.6-1 1.6-1.7z"/><path fill="#b23d3d" fill-opacity=".2" stroke="#b23d3d" stroke-opacity=".2" stroke-width=".5" d="m153.7 312 .2 1.1q0 .5-.4.9-5.5 3.4-11.4 6.6 0-.9-.9-1.2z"/><path fill="#b53e3e" fill-opacity=".2" stroke="#b53e3e" stroke-opacity=".2" stroke-width=".5" d="M420.7 187.2q0 1.2 1.4 1.3l-13 7.5v-1q0-.6.4-1z"/><path fill="#b63939" fill-opacity=".2" stroke="#b63939" stroke-opacity=".2" stroke-width=".5" d="M441.7 285.2q.2 1.2 1.4 1.3-6.4 3.6-12.7 7.4l-.3-1q.1-.9.9-1.2 5.2-3.3 10.7-6.5Z"/><path fill="#b33f3f" fill-opacity=".2" stroke="#b33f3f" stroke-opacity=".2" stroke-width=".5" d="M116.8 207.2v1q0 .8-.8 1-5.2 3.4-10.7 6.5 0-1-1-1.3 6-3.7 12.5-7.2Z"/><path fill="#ce4444" fill-opacity=".4" stroke="#ce4444" stroke-opacity=".4" stroke-width=".5" d="M401.7 58q0 1-1 1zm-23.3 21q-.7.6-1.6.7a2 2 0 0 1 1.6-.6Zm-88 18.1-1.5.6q.6-.6 1.5-.6Zm162.6 58c0 1.4-2 1.5-3 1.9q.8-2 3-2ZM132 199c.1 1.1-1.4 1-2 1a2 2 0 0 1 2-1Zm-60 2q-.7 1.3-2 1 .3-1.5 2-1Zm69 7.2q-.4.8-1.3.8.6-.5 1.3-.8ZM85.3 212l-1.1 1q0-1 1.1-1Zm365 56.1q-.7.6-1.5.7.5-.7 1.4-.7Zm-148.3 78q-.7 1-2 1 .5-1.3 2-1Zm-124.7 11-1 1q0-1 1-1ZM309 388.9q-1 2-3 2a4 4 0 0 1 3-2Zm-45.6 30-1 1q-.1-1 1-1Zm-84 5.2-1.1.9q0-1 1-1Z"/><path fill="#b33939" fill-opacity=".2" stroke="#b33939" stroke-opacity=".2" stroke-width=".5" d="M319.8 93.3q0 1 1 1.3-6.3 3.6-12.5 7.4l-.2-1.3q.1-.7.9-1z"/><path fill="#ce4646" fill-opacity=".2" stroke="#ce4646" stroke-opacity=".2" stroke-width=".5" d="m392.3 109.3-1.2.8q0-1.1 1.2-.8Zm-87 12-1.2.8q0-1 1.2-.8Zm-165 56-1.2.7q0-1.1 1.2-.7Zm-10.4 3.6q0 1-1.2.8zm-26 15q0 1-1.2.8zm39 11q-.1 1.1-1.3.8zm233 36q0 1.2-1.2.8zm46.4 23.4-1.2.8q.2-1 1.2-.8Zm-16.4 6.6q0 1-1.2.8zm-9.6 8.4q-.5.5-1.2.7 0-1.2 1.2-.7ZM393 299q0 1.1-1.2.7zm-193 39q-.1 1-1.2.7zm-68 1c-.6 1.6-3.1 3.2-5 2.9a7 7 0 0 1 5-3Zm104 27q0 1-1.2.7zm15 9q-.1 1-1.2.7zm5.4.3-1.2.8q0-1.1 1.2-.8Z"/><path fill="#cd4444" fill-opacity=".4" d="M357.2 50.3q-.6.8-1.6.6a3 3 0 0 1 1.6-.6m9 35.7-1 .8q.1-.8 1-.8m-87.9 18-1.2.9q.2-.9 1.2-.9m86.9 19.2q-.3 1-1.4.9.5-.6 1.4-.9M262 146q-1.3 1 0 0m-122 29.2q-.3 1-1.3.7zm317.3 17q-.6.7-1.6.7.7-.5 1.6-.7m9 .8-1.2.9q.3-.9 1.1-.9m-311 9.1-1 .7q-.1-1 1-.7m-62 4.9q-.6.6-1.5.8.5-.9 1.5-.8m388 2.2q-.6.8-1.6.8zm2 21.9-1.2.6q.3-.7 1.2-.6m-45 44-1.2.6q.3-.7 1.2-.6m-28.1 13.2q-.5.7-1.4.7.6-.5 1.4-.7m-191.2 71q-.4.7-1.3.7.5-.5 1.3-.7M176.3 389q-.6.6-1.5.8.5-.8 1.5-.8m-1.4 12.3q-.3.8-1.2.6.6-.4 1.3-.6m15 9q-.3.7-1.2.7.6-.5 1.2-.7m53.4 21.8q-.7.6-1.5.7.5-.7 1.5-.7m-17 10.9q-.7.6-1.6.8.7-.8 1.6-.8m-13.3 1.2q-.3.6-1.1.6z"/><path fill="#ce4747" fill-opacity=".2" stroke="#ce4747" stroke-opacity=".2" stroke-width=".5" d="M440 77q-.3 1.1-1.3.7zm-66.7 43.3-1.2.7q0-1.2 1.2-.7ZM123 185q-.3 1.1-1.3.7zm-56 19c-.5 1.5-3.6 3.2-5.2 3.2q1.9-3 5.3-3.2Zm352 12q-.3 1-1.3.7zm23 4c-.6 1.7-3.2 2.9-5 3 .8-1.7 3.3-3 5-3Zm-38.6 57.3-1.3.8q.1-1.2 1.3-.8ZM157.9 410.9q0 1-1.2.8zm111.4 4.4-1.2.8q0-1 1.2-.8Z"/><path fill="#c46c51" d="m185 298.2-1-1q.7-.8 1.5-1.3 2.8-1.4 5.5-3.2c1.2-1 2-2.3 3.6-1.2l-7.6 5.9q-1 .6-2 .8"/><path fill="#c37053" fill-opacity=".9" d="M217.1 241q1.8-.8 2 1a89 89 0 0 0-9.8 6q-1.1 0-.9-1.1z"/><path fill="#bb8e5c" d="m236.7 343.4-1-1.3q5.3-3.7 10.8-7c1.2 1.5-2 3-3 3.3z"/><path fill="#ce4444" fill-opacity=".3" d="M332 66q-.3.9-1.3.7zm-21 49q-.3 1.1-1.3.7zm-192.7 76.3-1.2.8q0-1 1.2-.8m301 29-1.2.7q0-1.1 1.2-.7m-16.4 5.6q0 1-1.2.8zm35 10q0 1-1.2.8zm24.4 7.4-1.3.7q.3-1.1 1.3-.7m-88 3-1.3.7q.1-1.2 1.3-.8m-296 4-1.2.8q0-1 1.2-.8m388.6 1.6q0 1.1-1.2.8zm-30.6 6.4-1.3.7q.3-1 1.3-.7m-19.4 7.6q-.2 1-1.2.8zm-25.6 36.4-1.2.7q0-1.2 1.2-.7M221 357.9q0 1.1-1.2.8zm-1.6 4.4-1.2.8q.1-1 1.2-.8m19 6-1.2.8q0-1 1.2-.8M177 399.9q0 1.1-1.2.8zm15 9q0 1-1.2.8zm23 34q0 1-1.2.8z"/><path fill="#c07654" d="M241.9 264.9q.9.3 1.3 1.2-4.7 3.1-9.6 5.6-.7-.8.2-1.3zm-92.7 2.3-1.1 1q.2-1 1.1-1"/><path fill="#ad3f3f" fill-opacity=".2" stroke="#ad3f3f" stroke-opacity=".2" stroke-width=".5" d="M367.7 248.3q.6.7 1.4 1-4.9 2.9-9.8 5.4 0-1.8 1.7-2.7.7-.2 1.2-.8a36 36 0 0 1 5.5-2.9Z"/><path fill="#cf4646" fill-opacity=".3" stroke="#cf4646" stroke-opacity=".3" stroke-width=".5" d="m390.3 49 .9-.1q-.3 1-1.4.9zm-19 34.3q-.6.5-1.3.7.3-1 1.3-.7ZM283 97q-.3 1-1.2.7zm-148 81q-.3 1.1-1.3.7zm311 21q-.3 1-1.3.8zM38 234q-.3 1-1.3.8zm410 30q-.3 1-1.3.7zm-362 5a7 7 0 0 1-5 3 7 7 0 0 1 5-3Zm214 78a3 3 0 0 1-3 1.8 3 3 0 0 1 3-1.8Z"/><path fill="#c43d3d" fill-opacity=".2" stroke="#c43d3d" stroke-opacity=".2" stroke-width=".5" d="M453.7 212.1q.4.9 1.4 1.2-5.1 2.5-9.9 5.7l-.1-1.2q4-3.2 8.6-5.7Zm-92.1-86.9q.5.8 1.4 1-4.8 3-9.8 5.6l-.1-.9c0-1 7.3-4.9 8.5-5.7Z"/><path fill="#d04040" fill-opacity=".2" stroke="#d04040" stroke-opacity=".2" stroke-width=".5" d="M80 181q-.1.8-1 1.4l-8.8 5.6a2 2 0 0 0-1.3-1.3c2.7-1.3 8.6-5.6 11.1-5.8Z"/><path fill="#c04141" fill-opacity=".2" stroke="#c04141" stroke-opacity=".2" stroke-width=".5" d="M414.8 316q.3 1 1.3 1.3-4.6 2.5-9 5.2-1 .6-2.1.4.6-1 1.6-1.7z"/><path fill="#d04545" fill-opacity=".3" d="M373.3 49.3q-.6.5-1.2.7 0-1 1.2-.7M294.9 125q0 1.2-1.2.7zm195.4 54.3-1.2.7q0-1.1 1.2-.7m-24 44-1.3.7q.3-1.1 1.3-.7M110 226q0 1.1-1.2.7zm-65 4q-.1 1-1.2.7zm57.4 5.3-1.2.8q0-1 1.2-.8m291 0-1.3.7q.3-1.1 1.3-.7m-299 5-1.2.8q0-1.1 1.2-.8M46 262.9q-.3 1-1.3.8zm158.3 77.4-1.2.8q0-1.1 1.2-.8m-63.4 31.6q0 1.1-1.2.8zm54 1q-.2 1-1.2.8zm57 20c.2 1.2-1.2 1.2-2 1.2q.6-1.4 2-1.1m34 9q0 1.3-1.2.8z"/><path fill="#ab3f3f" fill-opacity=".9" d="M390 384q-.1 1-1 1.1 0-.9 1-1.2m-2 1.1h.9q-1.1 2.7-3.9 4-2-.6-1.9 1.7-1-.7-.8.6a3 3 0 0 1-1.3-2.3q.8-1 2-.9l.8-.4q1 0 1-1 .7-.2 1.3-.6-.2.4.1.5.6-.3.6-.9.8 0 1.2-.7"/><path fill="#cf4646" fill-opacity=".3" d="m364.3 87.3-1.3.7q.3-1.1 1.3-.7m-88 18-1.2.7q0-1 1.2-.7m26.6 14.6q0 1.1-1.2.8zm-161 54q0 1.3-1.2.8zM182 185a2 2 0 0 1-2.1 1q.7-1.2 2.1-1m229 36q-.3 1.1-1.3.7zm35 10q-.3 1-1.3.7zm35.3 1.3-1.2.7q0-1.1 1.2-.7m-434 4-1.2.8q0-1 1.2-.8m374.6 9.6q0 1-1.2.8zm14.4 30.4-1.3.7q.3-1 1.3-.7m-10.4 1.6q0 1-1.2.8zm-214.6 89.4-1.2.8q0-1.2 1.2-.8m-82 20-1.3.8q.3-1 1.3-.8"/><path fill="#c64848" fill-opacity=".2" stroke="#c64848" stroke-opacity=".2" stroke-width=".5" d="M286.7 130q.5 1 1.4 1.4l-8 4.6v-1.2c1-1.9 4.9-3.3 6.6-4.7Z"/><path fill="#cd4444" fill-opacity=".4" d="M265 144a4 4 0 0 1-3 2q.9-2 3-2m-130 53a4 4 0 0 1-3 2q.6-2.3 3-2m286.3 22-1.1.8q0-.9 1-.7m-369 14q-.7.6-1.5.8a2 2 0 0 1 1.6-.7M421 281.3q-.4.8-1.4.7.6-.5 1.3-.7M167 389.3q-.4.8-1.3.6.6-.4 1.3-.6M152.4 404l-1.5.7q.5-.7 1.5-.7m18 7.1q-.7.5-1.6.6.7-.7 1.5-.6"/><path fill="#b43838" fill-opacity=".1" stroke="#b43838" stroke-opacity=".1" stroke-width=".5" d="M385.6 367.2q0 1.1 1.1 1.4c-1.6 1-6.8 4.5-8.5 4.4.2-1.8 6-4.5 7.4-5.8Z"/><path fill="#ba4343" fill-opacity=".2" stroke="#ba4343" stroke-opacity=".2" stroke-width=".5" d="M384.7 304.1q.3 1 1.4 1.3l-7.7 4.4-.2-1q0-.5.3-.8z"/><path fill="#d53c3c" fill-opacity=".2" stroke="#d53c3c" stroke-opacity=".2" stroke-width=".5" d="M476.1 140.7q.7.3 1 1a106 106 0 0 1-8.8 5.2l-.2-1q.4-.9 1-1.2 3.4-2.2 7-4Z"/><path fill="#c04747" fill-opacity=".2" stroke="#c04747" stroke-opacity=".2" stroke-width=".5" d="m153.6 167.1.4 1.1c-.3 1.3-5.4 3.5-6.6 4.6q-.6-.8-1.5-1.2z"/><path fill="#d54c4c" fill-opacity=".2" stroke="#d54c4c" stroke-opacity=".2" stroke-width=".5" d="M68 173q-.3.8-1 1.4-3.4 2.4-7 4.2l-1-.7q3.3-2.3 7-4.4.8-.5 2-.5Z"/><path fill="#c44" fill-opacity=".2" stroke="#c44" stroke-opacity=".2" stroke-width=".5" d="M250 118q-.3 1.1-1.3.7zm215 30a8 8 0 0 1-5 3.1 6 6 0 0 1 5-3Zm-335.7 36.3-1.2.8q.2-1 1.2-.8Zm257 55-1.2.8q.2-1 1.2-.8Zm11.6 38.6q0 1.1-1.2.8zm-196 91q0 1.1-1.2.8zm28.4 4.4-1.2.8q0-1 1.2-.8Zm56 31-1.2.8q0-1.1 1.2-.8Z"/><path fill="#d04747" fill-opacity=".3" d="M343 95q-.3 1-1.3.7zm58 6q-.3 1-1.3.7zm37.3 108.3-1.2.7q0-1.1 1.2-.7m-350 1-1.2.8q0-1.1 1.2-.8m38 10-1.2.8q0-1 1.2-.8m344.6 11.6q0 1.1-1.2.8zm-19 12q0 1.1-1.2.8zm3.4 3.4-1.2.8q0-1.1 1.2-.8m-409 23-1.2.8q0-1.2 1.2-.8M193 342q0 1.1-1.2.7.6-.5 1.2-.7m10 43q-.2 1-1.2.7zm-53 14q0 1-1.2.7z"/><path fill="#c15649" d="M209.3 230a8 8 0 0 1 2.7 3l-2.6 1.4c.3-1.3.8-3.3-1.5-2.7q.8-.6 1.4-1.7m-1.4 1.7q-.1 1-1.2 1zm-1.2 1q0 .8-.9.8zm2.7 1.7-1.3.7q.4-.9 1.3-.7"/><path fill="#ce4545" fill-opacity=".2" d="M427 85q-.3 1.1-1.3.7zm-27.7 20.3-1.2.8q0-1 1.2-.8m-87 12-1.2.8q.2-1 1.2-.8M136 210.9q0 1.1-1.2.8zm276.4 13.4-1.2.8q.2-1 1.2-.8M406 256q0 1.2-1.2.7zm9 29q0 1.1-1.2.7zm-186 85q-.2.9-1.2.7zm15 9q0 1.1-1.2.7zm140.4 8.3-.4.5-.8.4q0-1 1.2-1M267 412.9q-.2 1.1-1.2.8z"/><path fill="#cd4444" fill-opacity=".2" stroke="#cd4444" stroke-opacity=".2" stroke-width=".5" d="m418.3 94.3-1.2.8q.2-1 1.2-.8ZM120.1 206q-.7 1-1.8 1.9l-.2-1.2c0-1 1.4-.8 2-.7Zm-22.2 26.8q-.1 1.1-1.3.8zM428.7 293l.3 1.3q-.7 1-2 .7.6-1.2 1.7-2ZM210 381q0 1.1-1.2.7zm15 9q-.1 1.1-1.3.7zm23 34q-.2 1-1.2.7z"/><path fill="#c05b4b" d="M174.9 287.9q-.4.7-1.3.7zm-1.3.7c-.7 1.8-1.4 2.5 1.5 2.7l-1.4 1.6-3.7-2.6q1.8-.7 3.6-1.7m2.7 1.6"/><path fill="#cd4646" fill-opacity=".4" d="M297 88.3q-.3.7-1.3.7.6-.6 1.4-.7M408.5 100l-1.5.7q.6-.8 1.5-.7m-87 12q-.6.4-1.3.6.3-.7 1.2-.6m136.8 128.1q-.5.9-1.5.7zm-20 16.9q-.5.5-1.1.6.2-.7 1.2-.6m-280 112q-.5.5-1.3.7.4-.7 1.4-.7m61.8 6q-.4 1-1.4.8zm15 9.2q-.4.8-1.3.6zm-37.8 9.8q-.5.6-1.3.7.4-.8 1.3-.7m60.7 24q-.2 1-1.2.8l1.2-.7"/><path fill="#c46a51" fill-opacity=".8" d="M479.2 89.7c-.6 2.6-4.1 4.3-6.3 5.2q0-1 .8-1.8 2.6-1.8 5.5-3.4"/><path fill="#cf4545" fill-opacity=".2" d="M392.9 105.9q-.2 1-1.2.8zm-68.5 4.4-1.3.8q.2-1 1.3-.8M490.9 203q0 1-1.2.8zm-367 15q-.1 1-1.3.8zm363 4q0 1.1-1.2.8zm-103 16q-.2 1-1.2.8zm42.4 8.4-1.2.8q.2-1 1.2-.8M423 280q-.1 1-1.2.8zm-26.5 19.4q-.6.5-1.3.7 0-1.2 1.3-.7m-124 114-1.3.8q.2-1 1.2-.8"/><path fill="#d04646" fill-opacity=".2" stroke="#d04646" stroke-opacity=".2" stroke-width=".5" d="M157 166q-.4 1.3-1.6 1.9l-.5-1.2q.8-1 2-.8Zm219.6 143 .5 1.1q-.8 1.1-2.2.8zM127 342a5 5 0 0 1-1.6 2.1l-.4-1.2q.6-1 2-1Z"/><path fill="#cc4747" fill-opacity=".2" d="m437.3 83.3-1.2.8q.2-1 1.2-.8M269 105.9q0 1.2-1.2.8zm-6.6 7.4-1.2.8q0-1 1.2-.8m117.6.6q0 1.2-1.2.8zm72.4 117.4-1.2.8q0-1.2 1.2-.8m-73 12q-.5.5-1.2.7 0-1.1 1.2-.7m53.6 12.6q0 1.1-1.2.8zm-10.6 28.4-1.2.8q0-1 1.2-.8M209 364.9q-.1 1-1.2.8z"/><path fill="#cd4444" fill-opacity=".3" d="M354 52q-.1 1-1.2.8zm68 36q-.3 1-1.2.8zm-34.7 24.3-1.3.7q.3-1.1 1.3-.7m-87 12-1.3.7q.1-1.2 1.3-.7m-204 81-1.3.7q.1-1.1 1.3-.7m373 52-1.2.7q0-1.1 1.2-.7m-52 12-1.3.7q.3-1.1 1.3-.7m-256 98-1.3.7q.3-1 1.2-.8"/><path fill="#b74141" d="m496 176 .6-.1.2 2c-1.5 1.6-.9-.6-2-1.3q.9.2 1.2-.6m-18 76.2 1-.3q-.4 1.6-1.2 3.1-.8-.9-1-2.1.8-.2 1.2-.8"/><path fill="#cd4343" fill-opacity=".3" d="m390.3 72.3-1.3.7q.3-1.1 1.3-.7m-88 18-1.3.7q.3-1 1.3-.7M116 189q-.2 1-1.2.7zm-38.6 28.3-1.2.8q0-1.1 1.2-.8m41 8-1.2.7q0-1.1 1.2-.7m77 152-1.2.7q0-1 1.2-.7m-58 5-1.2.7q0-1.1 1.2-.7M169 388q0 1.1-1.2.7z"/><path fill="#ce4545" fill-opacity=".8" d="M249.7 471q3.3-.3 6.6 0-.7 1-2.1 1.4a6 6 0 0 0-2.4 0q-1.5-.2-2.1-1.5"/><path fill="#d14545" fill-opacity=".2" stroke="#d14545" stroke-opacity=".2" stroke-width=".5" d="m173.7 90 .5 1.3q-1 .9-2.3.6.7-1 1.8-1.8Zm270 128.2.3 1q-.6 1.2-2 .7.6-1 1.8-1.7Z"/><path fill="#c8564a" d="M233.2 255.6a5 5 0 0 1 1.9 2.2l-2.2 1.1q0-1.4-.9-2.3a2 2 0 0 1 1.2-1"/><path fill="#ce4747" fill-opacity=".2" d="m121.4 189.3-1.3.8q.1-1 1.3-.8m32 14-1.3.7q0-1.2 1.3-.7m-8 5-1.3.8q.2-1 1.2-.8m71.5 168.6q0 1.1-1.3.8zm15 9q-.1 1.1-1.3.8z"/><path fill="#cf4343" fill-opacity=".2" d="m110.3 196.3-1.2.8q.2-1 1.2-.8m295 32-1.2.8q.2-1 1.3-.8M434 273q-.2 1-1.2.8zM183 380q-.1 1.1-1.3.8zm91 29q-.2 1-1.2.8z"/><path fill="#ce4343" fill-opacity=".2" d="M280 99q-.3 1-1.3.7zm51.4 7.3-1.3.8q0-1.1 1.3-.8m102 136-1.3.8q.2-1 1.2-.8m-30.1 53-1.2.8q.2-1 1.2-.8m-158 87-1.2.8q.1-1 1.2-.8"/><path fill="#bb4a45" d="m152.7 277 1 1.3q0 .9-.8 1-1.2-.3-1.7-1.3z"/><path fill="#a8b568" d="m182.2 202.9-4.2.1c.8-1.3 3.7-1.6 4.2-.1"/><path fill="#be674f" d="M219 239.8q.8.5 1.1 1.4-.3.6-1 .9-.2-1.9-2-1.2.7-1 1.8-1.1"/><path fill="#cc4242" fill-opacity=".2" stroke="#cc4242" stroke-opacity=".2" stroke-width=".5" d="m382.7 352.1.4 1.2q-.8 1-2 .7.5-1.1 1.6-1.9Z"/><path fill="#c14242" fill-opacity=".7" d="M424.2 346.9q-.4 1-1.6.8.7-.8 1.6-.8m-1.6.8q.3 1-.6 1.4-.6 0-1-.3.4-1 1.6-1.1"/><path fill="#8bb967" fill-opacity=".1" stroke="#8bb967" stroke-opacity=".1" stroke-width=".5" d="M485 56h-3c0-1.6 2.9-1.4 3 0Z"/><path fill="#c27053" d="M229.9 257.9q-.2.8-1.1.9zm2.4 1.4-1.3.7a2 2 0 0 1 1.3-.7M147 266q-.4.7-1.3.7z"/><path fill="#ae3f3f" fill-opacity=".8" d="M287 78.4c.3.8-1.2.7-1.7.8q0-1.6 1.7-.9"/><path fill="#ba935d" fill-opacity=".4" d="m469.7 76.3.4 1.4q-.7 0-1-.6 0-.6.6-.8"/><path fill="#bf4242" fill-opacity=".9" d="M362.2 251.2q-.4.6-1.2.8.3-1 1.2-.8"/><path fill="#b94643" d="M386.1 143q-.4 1-1.3 1.3.3-1 1.3-1.2"/><path fill="#bf4444" fill-opacity=".3" stroke="#bf4444" stroke-opacity=".3" stroke-width=".5" d="M444.3 79q-.4.6-1.2 1.1 0-1 1.2-1.2Z"/><path fill="#c56d51" fill-opacity=".4" d="m472.3 79.8.6.2q0 .7-.7 1z"/><path fill="#b33e3e" fill-opacity=".5" d="M461.2 291q-.4.9-1.3.8.4-.6 1.3-.7"/><path fill="#b69d62" fill-opacity=".5" d="M460.2 103q-.4 1-1.6 1.2.6-.9 1.6-1.2"/><path fill="#bf7f57" fill-opacity=".5" d="M463.3 101.1q-.6.9-1.6 1 .5-1 1.6-1"/><path fill="#a5e076" fill-opacity=".3" stroke="#a5e076" stroke-opacity=".3" stroke-width=".5" d="m483.1 65.2 1-.3q-.3 1-1.4 1.1z"/><path fill="#a73e3e" d="m321.3 58.4-1 .7q0-1 1-.7"/><path fill="#c66951" fill-opacity=".6" d="M466.2 99.1q-.4 1-1.4 1.1.3-1 1.4-1"/><path fill="#9dd471" fill-opacity=".7" stroke="#9dd471" stroke-opacity=".7" stroke-width=".5" d="M455.3 126q-.4.8-1.5.8.5-.8 1.5-.8Z"/><path fill="#a5e176" fill-opacity=".4" d="m494.2 87-.4.9-1-.2q.6-.6 1.4-.8"/><path fill="#c07955" d="m205.8 236.4-.7.4z"/><path fill="#c94444" fill-opacity=".6" d="M459.2 137.2q-.6.6-1.5.8.5-.8 1.5-.8"/><path fill="#c14545" fill-opacity=".3" stroke="#c14545" stroke-opacity=".3" stroke-width=".5" d="M457.7 138q0 1-1 1 .3-.7 1-1Z"/><path fill="#b74040" fill-opacity=".7" d="M443 80.1q-.3.8-1.1.9.3-.9 1.2-.9"/><path fill="#262626" stroke="#262626" stroke-width=".5" d="M133.6 38.7q1.5.3 2.8 0a161 161 0 0 1 119 52.5q1.1 1.4 2.5.1a164 164 0 0 1 64.3-43.1c50.5-15.6 94.5-13.2 138.7 17.4a3 3 0 0 0 1.6-.6 42 42 0 0 1 19.5-9h3c27.3.3 32.4 32.8 9.8 46.3q-.4.5-.6 1.1 5.4 14 9 28.5a3 3 0 0 0 .8 3.1c2.1 11.7 3.5 22.5 3.8 34.5C510 289.3 406 403.8 304 454.5c-15 6.2-31.1 16.7-47.7 16.5q-3.3-.3-6.6 0c-57-9-115-59.6-154.6-99.6C42.6 317.5-2.5 230 3 153.5c5-50.7 37.7-89.1 84.8-106.6q.8 0 1.4-.7c15-4.1 28.7-6.9 44.4-7.5Zm-16.7 9.7q-1.5-.6-3.1 0c-6.9 1.5-14 3-20.5 5.8q-1-.2-1.4.7l-.6.4-2.2.4a121 121 0 0 0-65.8 67.5q-1.8 3.2-2.5 6.7a40 40 0 0 0-3.5 14.4l-.6.6q-.7.8-.6 2a150 150 0 0 0 .8 55c.3.8 0 3.8 1 3.8A57 57 0 0 0 21 219q1 4.8 3 9.3.2 1.5 1 2.5a78 78 0 0 0 6 15.3c1.4 1.9 2.4 7 4.2 8.2q-.2 2.1 1 3.6 1.5 4.5 4 8.5c.2 1.3 1.4 4.8 2.6 5.3 3.4 9.1 8.5 18.1 13.3 26.6L58 301q7.2 12.6 15.7 24.3a6 6 0 0 0 2.3 3.3c.6 2.2 3.9 5.7 5.2 7.7q1.5 2.4 3.5 4.7 2.8 4.2 6.4 7.9.5 1.4 1.8 1.7c.1 1.6 4.6 7.2 6.2 7.2q0 1 .9 1.1c0 1.7 4.5 7 6 6.8a3 3 0 0 0 2 2.9c1.5 2.2 4.4 6 7 7q0 .9 1 1.2c.7 2 4.4 5 6 6.5l4.7 4.7c2 1.6 6.4 6.5 8.6 7a2 2 0 0 0 1.3 1.6c1.7 2.2 5.1 4.9 7.6 6.4q1.4 1.9 3.4 3c2.4 2 5.5 5 8.4 6.2q2 2.3 4.6 3.7c2.6 2 6.4 5.3 9.4 6 .6 1.7 4.5 4 6.1 4q0 .9.9 1.3l7.8 4.7 2 1.1q5 3.1 10.3 5.6 1.8 1.1 3.7 2 4.8 2.8 10.1 4.7c2 1.2 5 3.2 7.2 2.5q0 1 1.1 1.4 4.8 2.3 9.8 3.4 3.3 2.3 7.1 2.2c0 1.4 10.5 4.1 12.3 4 .8 1.2 5.7 2.2 7.4 2 4.8 6.1 30.3-8.2 36.5-10.1q2-.5 3.8-1.6.6-.3 1-.9l4.2-2.4q1.5 0 2.6-.7a312 312 0 0 0 37.1-21.8q4.3-2.5 8.3-5.6.6-.1.7-.9a251 251 0 0 0 35.1-27.8q2.7-1.3 3.9-4 .9-.2 1-1.2c3-1.7 5.7-5 8.2-7.7q.6-.4.7-1a177 177 0 0 0 23-26q1.1-.5.7-1.5 1.2 0 1.6-.8 3.5-3.6 6-7.8a136 136 0 0 0 14.7-21.4c2.4-2.2 4.2-5.6 5.7-8.4 2.2-3.7 9-13.7 9.3-17.5q.9 0 1.3-.7 1.4-2.4 2.4-4.9a262 262 0 0 0 9.4-20c2.2-3.5 3.3-7.5 5-11.2l1.1-3q1.8-4.5 3-8.9a173 173 0 0 0 6.8-21.8c1.4-3.1 3-9.2 3-12.4l.3-1q.6-.6.7-1.4c-.3-.7 1.3-4.3.2-4.3 1.7-3.7 2-8.2 2.2-12.2q.5-1.2.5-2.7l1-9.3-.2-2.1.2-1.2q.5-3.2-.1-6.5c.4-7.7-.2-14.6-1.6-22.1-.2-1 0-3.6-1-3.9.2-1.7-.7-8.6-2.2-9.4V131a43 43 0 0 0-4-10.9q-1.2-3.8-3-7.4-.9-1-1.8-.2-12 11.1-23.3 22.8-.7.7-.6 1.9-.9 0-1.5.8-.7.3-1 1-1.6 1.2-2.8 2.7a978 978 0 0 0-46.1 51.4 3 3 0 0 0-.8 1.7l-1.5 1.1a1668 1668 0 0 0-42.8 53.2q-.6 1-.5 2.1-.9 0-1.2.8-1.7.9-1.7 2.7-1 .4-1.8 1.3l-77.3 102.8c-1 3.2-12.4 11-16.4 11.5q-1 0-1.9.3-2.2.6-4.5.7c-6.2 0-11.3-2.6-16.7-5.3q-.3-1.2-1.4-1.7-5-4.5-9.4-9.4l-.6-1a134 134 0 0 0-18.2-18.2q-1-1.5-2.7-2.6c-5.7-4.8-11.8-10.5-18.2-14.3q-.5-.7-1.4-.7.3-1-.7-1.7-9-6.5-18.3-12.5-5.7-4.4-11.8-8.3a8 8 0 0 0-3-1.4c-1.3-1.9-8.8-5.8-11-7.5q-.9-.5-1.9-.5c-11.7-10.4-13.8-15.8-7.7-31.2l1-2c11.8-17.8 18.2-45.2 42.6-50l4.2-.1c28.4 3 54.9 40 74.5 58.9q.6.7 1.6.8 9-11.2 18.4-22.5c48.9-58 106.6-108.7 164.3-157.7q.8-.5.9-1.5.8 0 1.2-.8.7-.5 1.2-1.2a34 34 0 0 0 6.3-4.8q1-2.1-1.4-2.3c-.4-1.8-6.5-4.7-8-6l-1.4-.6-1-.3c-.7-2-17-8.4-19.7-9.2a28 28 0 0 0-9.1-3 39 39 0 0 0-13.3-2.8c-.4-1.2-4.3-.8-5.5-1l-.9.1a51 51 0 0 0-16.4-1 44 44 0 0 0-15.5 1c-8.4 0-18.5 3-26.6 5.2q-1 0-1.8.7-4.6 1.2-8.7 3.5-1-.3-1 .7c-5.3-.5-27 13.4-32.4 17.2q-1 .8-.9 2-1.6-.8-1.7 1-1.8.9-3.4 2.2-.6.4-.8 1.2l-1.4.6q-1.3.4-1.8 1.7c-6.8 4-16.8 22.6-25.2 19.8q-2.5-1.2-4.5-3.1-.6-1-1.4-1.6a39 39 0 0 0-7-7.1 18 18 0 0 0-2.6-3 246 246 0 0 0-26.1-20.4 4 4 0 0 0-3.1-1.4A97 97 0 0 0 177.6 54c.3-1.2-1.7-1-2.3-.8-1-1.7-9-3-11.2-3.6-2.9-.5-8-2.4-10.7-1.3-2.8-2.6-32-2.3-36.5 0Zm278 86.8c-1.4.1-7 5.7-8.4 6.9q-.4.3-.4 1-.9.2-1.3 1.1a1 1 0 0 0-1 .2l-22.7 21.2c-4 4.1-14.8 13.6-17.4 17.8q-.9-.2-1.4.4c-2 2.3-6.4 5.8-7.6 8.2-1 0-8.8 8.8-10.2 10a681 681 0 0 0-34.8 38.8c-1.7 1.6-4.4 4.1-5.4 6.1-4.8 4-20.6 28-25 28.5a20 20 0 0 1-4.3-.5q-1.8-1.2-3.9-2.2l-9.2-7.8a30 30 0 0 0-6.8-7 183 183 0 0 0-15-16.6q-.3-1-1.2-1.5c-1.2-1.7-5-6.1-6.9-6.7a8 8 0 0 0-2.7-3q-3.6-2.8-7.3-5.3a23 23 0 0 0-5.6-5 20 20 0 0 0-8.5-5.8c-.8-1.4-5.4-2.4-7-2-11.7-1-22.2 23.4-27 31.8a10 10 0 0 0-2.7 4.3c-4.2 5.6-8.3 12.7-8 20l1.2 3.1c1 2.6 4 6 6.8 6.8q.6 1 1.7 1.4l20.8 13.6q4 2.8 8.3 5.2l14 10.1c2.3 2.2 5.4 4.6 8.2 6 .1 1.2 3.7 3.4 4.7 4q3.5 3.2 7.2 6 1.6 2.1 4 3 .5 1.2 1.5 1.9l14.2 12.9.9 1.3q2.8 2.8 5.5 6 2.2 2.5 4.6 4.9c1.3 2.9 5 5.4 8 6.5q1.5.6 3 .8c7.5-.2 11.4-5.3 16-10.3 21-30.5 44-59.4 65.8-89.3q3.7-4 6.7-8.8c1.5-1.2 17.1-21 18-23.4q.8 0 1.3-.8c1.4-2.1 5.7-6.5 6.4-8.7q17-20 33.6-40.2l3.9-4.1.5-1.2q21.2-23.4 43.1-46.2.7-.7.7-1.8 1 0 1.5-.8 2-1.8 4-4 .5-.2.9-.7c7.5-8.4 28.6-25.3 33.6-33.4l.4-1c2-1.7 2-5.3 2-7.8 0-3.5-1-8.4-4.4-10.2-.4-2.4-5.6-4-7.8-4l-.9.3c-4.2-.3-8.8 3-12 5.5q-38.7 30.7-75.6 63.5-.5.4-.6 1Z"/><path fill="#ce4645" stroke="#ce4645" stroke-width=".5" d="M461 87.4q-.7 0-1 .5l-.9.5q-.9 0-1.2.7-1.5-.5-1.7 1l-2 1.3a122 122 0 0 0-10.1 6.3q-1.6 0-2.7.8-.4-.8.4-1.2c4.1-2.1 8.1-5.8 12-8.5q.8-.1 1.2-1c1.5.6 4.3-1.7 5.6-2.4q.6.8.4 2Zm28 35.2q1.8 4 2.8 8.4l-15.7 9.7a80 80 0 0 0-7 4q-.6.4-1 1.1l-1.4.3q-1 .7-1.7 2a6 6 0 0 0-5 3c-1.4-.4-4.5 1.5-5 2.8q-1.4 0-2 1.2-2.2 0-3 1.9-1.5-.3-2 1c-1.3 0-3.2.4-3 2a2 2 0 0 0-2 .7c.6 1 1.8.1 2-.6.9-.6 3.5-.7 3-2.2q1.4.4 2-.9c1-.4 3-.5 3-2q1.5.3 2-1c1.5-.3 4.5-1.3 5-2.9q3.1-.5 5-3 1.4.2 2.1-1l1.2-.2q4.6-2.4 8.8-5.3 7.6-4.1 14.8-8.8c1.5.8 2.4 7.7 2.2 9.4l-84.6 51.9q-.4.3-.4.8l-1.1.1-1-.2q.2-1 .8-1.6a978 978 0 0 1 46-51.5q1.2.4 2.2-.1zM347 182q-.3.8-1.2.8zm-3.3 1.4 2-.7c-.1 1.5-2 1.7-1.6 3.2a26 26 0 0 1-9.4 6.1c1.2-2.4 5.7-5.8 7.6-8.1q.5-.8 1.4-.5Zm-166.4 37q-.9 0-1.2.7-2.6 1.5-4.8 3.6-1.9 0-.6-1.4l4.3-4.4q.7-.2 1-1 .6-.2.8-1 1.5.1 2.8-.5c1.7 2.2-5.2 2-2.3 4Zm194.7-.1c-.7 2.2-5 6.6-6.4 8.7q-.5.8-1.4.8-1 .1-2 .5c.5-1.4 2.9-3.3-.2-3.4zm-10 6.6q-.3.8-1.3.8zm-1.3.8q0 1.8-1.7 1.2zM187 228.8c3.6.5.7 1.8-.4 3.3l-.4 1.2q-.9 0-1.3.7-1.3-.3-1.6 1l-8.9 5.6q-1.6 0-.4-1.2 5.7-4 10.8-8.7 1 0 1-1 .9 0 1.2-.9Zm172 .1q-.1 1-1.2.8zm-1.2.8q-.2 1.6-1.7 1.2zm4.4.7-1.8 1q.2-1.8 1.8-1Zm-6.1.5q-.4.7-1.2.7zm4.4.5-1.4.7q.5-.8 1.4-.7Zm-2 1-1.2.8q.3-.9 1.3-.7Zm-5.5.5q-.3.8-1.2.8zm2.3 1.5-1.2.6q.5-.7 1.2-.6Zm-9 18.8q-2.8 4.7-6.6 8.8-1.9.4-3.4 1.5.3-1.8 1.5-3-.8-.6-1.7-.7c2.6-1.6 7.6-5.9 10.3-6.6Zm-10.2 6.6q-.3.9-1.3 1zm-1.3 1q0 1.5-1.7 1.2zm-1.7 1.1q-.3.9-1.2.9zm-1.2.9q-.3 1-1.2.8zm4.4.7-3 1.7q.7-2.4 3-1.7Zm-6.2.5q-.3.9-1.2.8zm-1.2.8q0 .9-1 .7zm2.4 1.6-1.2.6q.4-.6 1.2-.6Zm-80 24q-.8 0-1.1.7l-2 1.2q-.7 0-1.2.7-1.5-.3-2 1.2-.7 0-1 .8-1.5-.3-1.9 1.2-.7 0-1 .8-2.8-.8-3 2-1.6-.3-2 1.3-1-.1-1.7-.9a12 12 0 0 1 2.5-2.1q.3-.8.2-1.5 3 1 4-2 1.5.5 1.9-1 .8-.2 1.2-.8 1.5.3 2-1.3.7 0 1-.6l.7-.5a578 578 0 0 0 26.5-15.8l4.4-2.5q.5-.1.9.2l-8.7 6q-10 6.2-19.7 12.9Zm0-17.7q2 1 3.8 2.2c-.3 1.4-7.2 4.5-8.6 5.5q0-2.4 2.3-3.2c1.2.2 4-1 2.2-2.3a5 5 0 0 1-4 1zm-5.3 4.2q-.2.9-1 1zm-1 1q-.3.8-1.2.9zm1.5 2.5-1.3.8q.4-.9 1.3-.8Zm-3.2 1.9-1.2.7q.3-.8 1.2-.7ZM158 295.6q6 4 11.8 8.3c-6.6.9-8.7 6.6-14.6 9q-.3-1-1.5-.8-6.2 3.7-12.5 7.2v.1l-48.9 28.3a2 2 0 0 0-1.2 1.3q-3.6-3.6-6.4-8a5 5 0 0 0 2.3-.4l69.1-43zm43.9 4.3q-.4.7-1.3.7zm-1.3.7c.2 2.1-1.5 2.3-2.3 3.9q.7.6 1.7.7a26 26 0 0 1-4 3.1 15 15 0 0 1-4.1-2.8zm2.7 1.7-1 1q0-1 1-1Zm-1 1-1.1.9q.2-.9 1-1Zm-1.1.9-1.2 1q.2-1 1.2-1Zm57 40.3q-.7 0-1 .8-.8 0-1 .9-.9 0-1.2 1l-2.6-.6q3-1.8 4.6-4.8 1.5.5 2-1 .6 0 1-.8 5-3 10-6.3a2 2 0 0 1 1.5-.3l-1 1.4q-6.3 4.7-12.3 9.7Z"/><path fill="#cf4545" fill-opacity=".2" stroke="#cf4545" stroke-opacity=".2" stroke-width=".5" d="m269.3 109.3-1.2.8q.2-1 1.2-.8ZM208.8 124l.3 1.4q-.9.7-2.1.7.6-1.3 1.8-2.1Zm258 22 .3 1.2q-.8 1-2 .9.4-1.3 1.6-2Zm-39.9 65q0 1.1-1.2.7zm-310 11q0 1.1-1.2.7zm308 39q0 1-1.2.7zm4.4 19.3-1.2.8q0-1.1 1.2-.8ZM404 291.9q-.2 1-1.2.8zm-176 62q0 1-1.2.8zm39.8 43.2.3 1a5 5 0 0 1-2 1.9v-1.4z"/><path fill="#ce4545" fill-opacity=".3" stroke="#ce4545" stroke-opacity=".3" stroke-width=".5" d="M302 85q-.3 1-1.3.7zm78.3 31.3-1.2.8q0-1.2 1.2-.8Zm-5.4.7q0 1.2-1.2.7zm-196.8 12q-.5 1.3-2 1c-.3-1.1 1.2-1.1 2-1ZM455 154q-.5 1.3-2 1 .5-1 2-1Zm38.6 3 .4 1.3c-2.5 1.6-11.4 7.8-14 7.7q.2-.8 1-1.3zm-23.7 27q0 1.1-1.2.7zm-16 42q0 1.1-1.2.7zm-343.6 4.3-1.2.8q0-1 1.2-.8Zm284.6.6q0 1.1-1.2.8zm67.4 30.4-1.3.7q.3-1 1.3-.7Zm-52 12-1.3.7q.3-1.1 1.3-.7ZM427 295a7 7 0 0 1-5 3c1-1.5 3.1-3.2 5-3Zm-52 16c-.5 1.7-3.4 3-5 3a7 7 0 0 1 5-3Zm-238 25c-.7 1.7-3.2 3.1-5 3q1.8-2.5 5-3Zm66.3 36.3-1.2.7q0-1.1 1.2-.7Zm174.9.7a8 8 0 0 1-5.2 3c.5-1.5 3.5-3.2 5.2-3ZM278 392c.1 1.1-1.3 1.1-2 1q.5-1.2 2-1Z"/><path fill="#ce4545" d="m153.4 48.3-50.5 35.2q-.9.4-.7 1.3c-2 .1-3.8 1.6-5 2.9.7 1.1 4.3-1.8 5-2.9q1.2 0 2.4-.8L164 49.6c2.1.5 10.2 1.9 11.2 3.6l-13.6 9c-1.5 1-4.3 2-4.7 4-1.4-.5-4.7 1.4-5 2.8q-2.3 0-3 2-1.2-.2-2 .7c.6 1 1.9.1 2-.6q2.1-.5 3-2 3.2-.5 5-3c2 .1 4.2-2.1 6-2.9q6.7-4 13.7-7.8 1-.5 1-1.4c4-.4 29.3 11.7 30.3 14.2-4 2.4-32 20.3-32.8 21.6l-1.5.3q-1 .7-1.8 1.8c-1.6.1-4.4 1.6-5 3.1q-2.2 0-2.8 2a2 2 0 0 0-2 .7c.6 1 2 .3 2-.7q1.9-.2 2.9-2c1.7 0 4.4-1.2 5-3q1.2.2 2.2-.7l1-.6L209.5 71l1.6-1.4q8.4 5.4 16.2 11.7-1 .8-2.4 1l-43.3 28a6 6 0 0 1-3.7 2.2q-.8.4-.8 1.3c-1.5.1-4.7 1.7-5.1 3.2q-2.3-.2-3 2-1.2-.3-2 .7c.6 1 2.2.2 2-.8q2.1-.2 3-2 3.4-.3 5.1-3.1l2-.2q24-14.3 48.6-28.2 1.3-.7 2.2-1.8 3.8 3 7.3 6.4 0 .6-.7.8a3134 3134 0 0 0-57 36.4q-1 .6-1.4 1.7c-.7 0-2.2 0-2 1.1q-2.1 0-3 2-1.5 1.2 0 0a3 3 0 0 0 3-2q1.4.3 2-1 1 0 2-.6l11.7-6.8L239 94.3q.8-.4.8-1.3 4 3 7 7-18 11.3-35.8 22.8-.6.3-.8 1.1h-1.4q-1.2.9-1.8 2.2c-1.4-.3-4.6 1.6-5 2.9q-2.4-.3-3 2-1.3-.3-2 .7c.6 1 2.1.2 2-.7q2-.3 3-2a7 7 0 0 0 5-3q1.2.2 2.1-.6l1.2-.7 36.8-21.2q1-.6 1-1.8 2 2 4.6 3.1C261 107.6 271 89 277.9 85c.6 0 2 .1 2-.7l1-.3 48-27.7a2 2 0 0 0 1-1.4c.6.1 2.1.2 2-.7 8-2.2 18-5.2 26.5-5.1l-1.2 1.2a3 3 0 0 0-1.6.6l-2.8 1.9a88 88 0 0 0-8.1 5.2l-3 1.7-5 3.3-2 1-1 1-3 1.7-3.6 2.5-1.3.7q-1 .7-2.1 1l-1 1.1a39 39 0 0 0-6.5 4.2l-1.5.7-3 1.8-6.5 4.5q-.9.2-1.5.7l-3 1.8q-2 1.2-3.6 2.6-.8 0-1.4.7l-2 1-1 1a39 39 0 0 0-6.5 4.3l-1.5.6-1.7 1-3 2-1.3.8q-2 1-3.4 2.7-.9 0-1.5.6l-3 1.7-1.9 1.2-1.2.8-.7.6q-.8 0-1.3.6-1 .8-2 1.2l-1 .8-1.8 1-1.2.8q-2 1.1-3.6 2.6-.8.1-1.4.7l-1.9 1-1.1 1-1.8 1-1.2.7-3.5 2.6q-.7.1-1.4.5-.9.8-2.1 1.4l-16 10q-1.2.6-1.7 1.7-1.5-.2-2 1-2.1.3-3 2a9 9 0 0 0-5 2.8c1 1.2 4.5-1.6 5-2.8q2.2.2 3-2 1.5.5 2-1 1 0 2-.5l17-9.8 1.1-.8 1.2-.7 5-2.8.9-.4 1.2-.9 4.9-2.7.6-.5q.9-.1 1.3-.7l3.1-1.8.6-.6q.8 0 1.4-.6l5-2.8.9-.5 1-.7 5.1-2.8.8-.4 1.2-.9 3.7-2q.8-.3 1.3-.7 3-1.6 5.6-3.6.8 0 1.5-.6 2.8-1.4 5.4-3.4.9 0 1.4-.7l5.1-2.7.8-.5 1.2-.7q2-1.2 4-2.1.6-.3 1-1 3-1.3 5.5-3.3a2 2 0 0 0 1.6-.7q2.8-1.4 5.4-3.2l1.5-.7 3.8-2 1.2-.8.7-.6 1.3-.6q2-1.2 4-2.1.6-.3 1-.9a54 54 0 0 0 7-4l7-4 5.7-3.3q.8-.2 1.3-.7 1.9-.9 3.5-2.4.7-.1 1.5-.7 3-1.3 5.5-3.2.9-.2 1.6-.8l4.9-2.7q.6-.6.6-1.3a51 51 0 0 1 16.4 1l-.5.8q-35.2 21.6-70 43.5L309 99.7q-.7.3-1 1l-1.3.3c-1.4 1.3-6.2 3.2-6.7 5-2 0-5.6 2.4-7 4q-2.2 0-3 2a2 2 0 0 0-1.9.7c.6 1 1.8 0 2-.7a3 3 0 0 0 2.8-2c1.6.2 6.5-2.5 7-4q1.2 0 2.1-.5c.7-.6 5-2.5 5-3.4l1.4-.1q6-3.8 12.4-7.4l74.9-43.3q1-.3 1-1.4a39 39 0 0 1 13.3 2.8l-1.3 1.2q-3.4 2.2-7 4.2l-1 .9-14.9 9-1.1 1-7 4-1 1c-1.8 1-5.1 2.7-6.5 4.3q-.8.2-1.4.7a49 49 0 0 0-6.6 4.2q-.9.2-1.4.8a33 33 0 0 0-6.5 4.3l-1.5.6-3.1 1.8q-1.8 1.1-3.5 2.5a3 3 0 0 0-1.4.7l-1.9 1-1.2.8q-1.8 1.1-3.5 2.5-.8.3-1.5.8l-1.8 1-1.2.7a13 13 0 0 0-3.4 2.6q-1 0-1.6.7l-3 1.7q-2 1-3.4 2.6-1 0-1.7.6l-1.7 1-1.2.8q-1.8 1.1-3.5 2.5-.8 0-1.4.7l-3.1 1.8a21 21 0 0 0-3.6 2.6q-.8 0-1.4.7l-1.8 1-1.2.7a27 27 0 0 1-5 3.2q-.7.7-1.8 1l-1.2.8-3.5 2.7q-.8 0-1.5.6l-2 1c-1.7 1.5-5.5 2.9-6.6 4.8l-1.5.3-10.6 6.6-1 1.2c-.7 0-2.1 0-2 1.1q-2.1 0-3 2-1.2 1 0 0 2.1 0 3-2 1.5.3 2-1l1.3-.2 10.2-5.9q.4-.2.4-.7l1.1-.2 13.3-7.7.7-.6 1.2-.5q1.8-1.3 3.8-2.2.8-.3 1.3-.7 1.7-1.5 3.8-2.2l1.8-1.3a3 3 0 0 0 1.4-.7l3.8-2 1.2-.8.8-.6 1.3-.6 5-2.8.7-.6q.7-.1 1.2-.6l3-1.8 1-.4q.7-.3 1.1-.8l5-2.8.8-.5 1.2-.7 3.7-2 1.2-.8 2-1.3 5-2.7.7-.5 1.3-.8q2-.8 3.5-2.3.9 0 1.5-.7 3-1.4 5.6-3.2l1.4-.7 3.8-2 1.2-.8.8-.5 1.2-.8 5-2.7q3-1.6 5.5-3.6.8-.1 1.5-.6a44 44 0 0 0 7-4l5-2.8.8-.5 1.3-.7q1.8-1.2 3.8-2.1.8-.3 1.1-1 3-1.2 5.4-3.2 1 0 1.6-.8 3-1.4 5.5-3.2l1.5-.8 5-2.7.9-.5 1-.5.9-.6c2.7.8 19 7.2 19.6 9.2q-15 9.5-30.1 18.5-1 .7-1.6 1.6c-1.6 0-4.5 1.5-4.9 3.1a6 6 0 0 0-5 3c-2.2-.1-5.4 2.4-7 3.6.6 1.1 6.3-2.4 7-3.6 1.8 0 3.9-1.6 5-3 2 0 4-1.5 5-3.1 2.3.4 2.7-1.1 4.6-2l28.5-16.4 1-.8c1.4 1.3 7.6 4.2 8 6l-1.2.1-1.3.9q-1.8 1-3.5 2.4-.8.3-1.5.8l-3 1.7-5 3q-2 1.1-3.6 2.6-.8.1-1.3.6a83 83 0 0 0-11.6 7.4q-.8.1-1.5.7a75 75 0 0 0-11.6 7.2q-.8.2-1.4.7l-1.8 1-1.2.8a20 20 0 0 1-4 2.2l-1 1-3 1.8-.6.6q-.9 0-1.4.6l-1.8 1-1.2.8-3.8 2.3q-.7.4-1.2 1a12 12 0 0 0-3 1.7l-.8.6q-.7.1-1.2.7l-1.8 1-1.2.7q-1.8 1.5-4 2.4l-1 .8q-1.9 1-3.5 2.3-.8.3-1.5.9l-2 1c-1.3 1-8.6 4.8-8.6 5.8l-1.1.1c-1.4 1.2-6.7 3.3-7 5a7 7 0 0 0-5 3q-3 .5-5 3a10 10 0 0 0-5 2.7c.8 1.3 4.7-1.7 5-2.8 1.4.5 4.6-1.5 5-2.9a7 7 0 0 0 5-3c2 0 5.6-2.3 7-3.9l1.2-.3 9.8-5.5 3.8-2.6q.9-.1 1.6-.7l5-2.7.7-.5 1-.5q2-1.4 4-2.2l1.2-.8.8-.6q.6 0 1.1-.6l5.1-2.8 5-3 .8-.6q.6-.2 1.2-.7a39 39 0 0 0 5-2.7l.8-.5 1.1-.7 5.1-2.8.6-.5 1.5-.7q1.8-1.2 3.8-2.1.7-.3 1.1-1a31 31 0 0 0 5-2.7l.8-.5 1.3-.8 5-2.7.6-.6q.8-.1 1.4-.6l5-2.8.7-.6q.6-.1 1.1-.6l1.9-1 1.2-.8.5-.6q.8-.1 1.5-.7 1-1.2 2.6-1-.1.8-1 1.5c-57.6 49-115.3 99.7-164.2 157.6l-18.5 22.5q-.9 0-1.5-.8c-19.6-18.8-46-56-74.5-59-.5-1.4-3.5-1.1-4.2.2-24.4 4.8-30.8 32.2-42.7 50q-1.2 0-2.3.5l-74.7 43.1q-1.2.6-2 1.7a184 184 0 0 1-13.4-26.6q1.2 0 2.2-.6l1.2-.8q2-1 3.4-2.5.9-.2 1.6-.8l3-1.7q2-1 3.5-2.6.8 0 1.5-.6 3.4-2 6.4-4.3.9-.2 1.6-.8l3-1.7q2-1 3.5-2.6.9 0 1.5-.7l3-1.7a13 13 0 0 0 3.5-2.6q.7 0 1.6-.6 3.4-2 6.4-4.4a3 3 0 0 0 1.5-.7l1.8-1 1.2-.7q1.9-1 3.4-2.5 1 0 1.6-.7l1.8-1 1.2-.8q1.8-1.1 3.5-2.5.8-.1 1.4-.7l1.9-1 1.2-.8 3.6-2.5q.8-.2 1.4-.8l3-1.7 3.6-2.5 1.3-.8a29 29 0 0 0 6.5-4.2q1-.2 1.7-.8l2.9-1.7 3.5-2.5q.8-.2 1.5-.8l1.8-1 1.2-.7 1.8-1.2 1.2-.8 1-.5 1-.8 1.8-1 1.2-.7a6 6 0 0 1 1.8-1.3q.7-.2 1.2-.7l1-.5 1-.7 1.7-1 1.3-.8q.8-.8 2-1.5l17.3-10.5c.6-.6 2.3-1.3 2.3-2.2a2 2 0 0 0 2.1-1q2.1-.3 3-2.1 1.3.2 2-1c.7 0 4-1 2.6-2q-2.2 0-2.7 2-1.3-.2-2 1a3 3 0 0 0-2.9 2q-1.5-.2-2.1 1-1 0-1.9.6l-19 11q-2 1.5-4 2.4l-1.3.7-.8.6q-.6.1-1.1.5a58 58 0 0 1-7.2 4.1l-1.7 1-1.3.8-.6.5q-.8.3-1.3.8l-5 2.7-.8.6-1.2.6-5 2.9-.7.5q-.8.2-1.3.7l-3 1.7-1 .4-1 .9-5 2.7-.9.6q-.6 0-1 .6l-5.1 2.8-.8.5-1.3.7q-1.8 1.2-3.8 2.1l-1.1.9-5 2.8-.8.6q-.7 0-1.2.6l-5 2.8-.8.6q-.7 0-1.3.6l-6.9 4.1a14 14 0 0 0-3.6 2.2q-.8.1-1.4.7-3 1.4-5.5 3.3-1 .2-1.6.8a38 38 0 0 0-4.9 2.8l-.7.5-1.4.7-4.9 2.9a60 60 0 0 0-7 4l-5 2.8-.7.5-1.3.8q-1.3.6-2.5 1.4a39 39 0 0 1-3.9-8.4q1.2-.3 2.3-.9l78.3-48.9 1.4-.2q1-.8 1.8-2 3-.5 4.9-3a7 7 0 0 0 5-3c.6 0 2.1.1 2-1q2-.2 3-2c.5.1 2.6-.3 1.5-1q-1 0-1.4 1-2.5-.3-3.2 2a2 2 0 0 0-2 1c-1.7.2-4.2 1.4-5 3-1.8 0-4.1 1.3-4.8 3-.6 0-2-.1-2 .8l-1.3.4q-6.5 3.4-12.6 7.2l-69 40c-1.7-1.2-2.7-6.4-4.2-8.3q.5 0 1.1-.3.8-.2 1.2-.8l1.8-1 1.2-.7q3.4-2.2 6.6-4.6.8-.2 1.5-.7l1.7-1 1.2-.7 3.5-2.5q.9-.2 1.6-.7l1.8-1.2 1.1-1q3.5-1.6 6.5-4.2l1.5-.6 3-1.9q1.8-1 3.5-2.4.8-.3 1.5-.8l1.6-1.3 1.5-.6 1.7-1 1.2-.8q1.9-1.2 3.6-2.6.8 0 1.4-.6.9-.7 1.9-1.2l1.1-.9 3-1.7 3.5-2.5q.8-.2 1.5-.8l3-1.7q3.3-2.2 6.5-4.6l1.5-.6q.7-.6 1.8-1l1.2-.8 1.8-1.2 1.2-.8.8-.6 1.2-.7 2-1 1-1a40 40 0 0 0 6-3.7l.9-.6 1.1-.6 2-1.2 1-.8a40 40 0 0 0 6.5-4.3q.8-.2 1.5-.8l1.7-1 1.3-.7a6 6 0 0 1 1.8-1.3l1.2-.7 3.4-2.6a3 3 0 0 0 1.5-.8l2.2-1c1.2-1.2 6.3-3.4 6.6-4.7l1.4-.3q1.1-.6 1.5-2c2 .3 4.1-1.3 5-3 1.4 0 4.6-1.5 5.1-2.9 1 .1 4.2-.7 2.7-2q-2.1.3-2.7 2c-1.9-.3-4 1.6-5 3q-3.2.5-5 3-1.4-.2-2 .7l-1.4.4-13 7.6-.7.5-1.2.7q-1.8 1.2-3.7 2.1l-1.3.7-5 3-.6.5a3 3 0 0 0-1.4.8 32 32 0 0 0-5 2.7l-.8.5q-.8.3-1.2.8l-5 2.7-.8.6q-.7.1-1.3.7l-3.8 2-1.2 1-5 2.7-.6.5-1.4.7-5 2.8-.6.5q-.8.2-1.2.7l-5.1 2.8-.8.6-1.2.6-4 2.2-1 .8q-3 1.4-5.5 3.3l-1.5.7-5 2.8-.7.5-1.3.8a35 35 0 0 0-5 2.8 45 45 0 0 0-5.5 3.4q-.8 0-1.5.7-3 1.4-5.5 3.4l-1.6.6-5 2.8-.6.6-1.3.6-5 2.9a34 34 0 0 0-5.5 3.5l-1.5.6-1.4 1.3q-1.9-4.5-3.1-9.4.8 0 1.5-.5c5-3.7 33-20.4 35.1-23.1 1.6 0 4.7-1.7 5.3-3.2q2 0 2.8-2 1.4.3 2-1c.9.2 4.3-.8 2.7-2q-2 .2-2.7 2-1.5-.5-2 1-2 0-2.8 2-3.4.3-5.3 3.2-1.3-.3-2.5.5l-35.1 20.6q-2-4.4-3.2-9.3 1.1 0 2-.5a5400 5400 0 0 1 56-36.1q.9-.6 1-1.5 2.2 0 3-2 1.4.5 2-1 2 .3 3-1.5c-.8-1-2.9.4-3 1.6-.7-.1-2.1-.1-2 1q-2 0-3 2c-2.5.1-8.4 4.5-11 5.8L19.7 215q-1.5-4.5-2-9.3l1.7-.7A2068 2068 0 0 0 60 178.6q3.8-1.8 7.1-4.2.7-.6 1-1.4c1.4 0 4.6-1.5 5-3 .9 0 4.4-.7 2.5-1.8q-1.8 0-2.5 1.8-3.1.5-5 3-1.2 0-2 .5a62 62 0 0 0-7 4.4l-4.8 2.6L17 202q-2-9.5-2.6-19.2a315 315 0 0 0 31.5-20.6c1.4-.1 4.9-1.7 5.1-3.1a3 3 0 0 0 3-2.1c.5.2 2.9-.3 1.7-1q-1 0-1.7 1-2.1.1-3 2c-1.8-.2-4.2 1.6-5 3.2-2-.3-29.1 15.7-31.6 18q-1-16.7 1.8-33.3a1 1 0 0 0 1-.7q1.1-.2 2-.7l10.9-7.2q.7-.4 1-1.3 2.1 0 3-2 1 .2 1.8-.7c-.5-1-1.5 0-1.9.6q-2.1.3-3 2.1-1-.1-2 .4l-11.7 6.9a40 40 0 0 1 3.6-14.4c1.8.4 38.8-26.2 40-27.8q2.3-.2 3.3-2c.5.1 2.5-.5 1.4-1.2q-1.2 0-1.4 1.1-2.3 0-3.2 2.1c-1.5.1-4 2-5.6 2.5q-16 9.5-32 18.6A121 121 0 0 1 89 55.7l2.2-.4-26 22q.7.6 1.7.3a3759 3759 0 0 1 49.9-29.2c4.4-2.3 33.7-2.7 36.5-.1M130.9 51c1 0 6-2.1 4.8-3.3-1.3.2-4.5 1.9-4.8 3.3m189.5 8L287 78.4q0-1.2.9-2c5.3-3.9 27.1-17.7 32.5-17.3M426 62c-1.1.2-4.8 1.9-5 3q-1 0-2.1.4-2 1.6.4 1.3 1.2-.6 1.7-1.8c1.3.3 4.6-1.6 5-3q1.2.3 1.9-.6c-.6-.9-1.6 0-2 .6m43.2 15q0 .9.9.7l2.2 2-.1 1.3q-5.5 3.4-11.2 6.4.2-1.2-.4-2c-1.3.7-4 3-5.6 2.4 2-1.3 12.8-10.9 14.2-10.7M455 87.9q-.4.9-1.3 1zm4.1.6-1.2.7q.3-.7 1.2-.7m-1.2.7-1.7 1q.2-1.5 1.7-1m-3.7 2.3-1.1.7a1 1 0 0 1 1-.7m33.6 28.7q-.7 0-1.5.5l-24.4 15q-1 1.3-2.7 1.6-.2-1.2.5-2 11.6-11.6 23.4-22.7.9-.7 1.8.2 1.8 3.6 3 7.4m-101.7 23q0-.6.4-1c1.5-1.2 7-6.8 8.4-6.9q4.2-1.8 8-4.5 1-.6 2-.1c0 1-4.6 3.2-5.7 4l-11.2 7.8a5 5 0 0 1-1.9.7m-216.4-9c.1 0 1.9-.4.9-1q-.7.3-.9 1m157 12.9q.7 0 1.2-.7-.8-.2-1.2.7m168.4-1c1.4 7.7 2 14.5 1.6 22.2q-1-.5-1.7 0l-5.8 4q-.9.2-1.6.8a50 50 0 0 0-6.4 4.2q-.8.2-1.5.8l-3 1.7q-2 1-3.6 2.6-.8 0-1.3.7l-1.9 1-1.2.7-3.6 2.5-1.4.7-1.8 1-1.2.8q-1.8 1.1-3.4 2.5-.9.2-1.6.7a63 63 0 0 0-6.5 4.3q-.8.2-1.5.8l-1.7 1-4.8 3.2q-.7 0-1.5.7l-2 1.2q-.6.3-1 1l-14.9 9q-.6.3-1.2 1a39 39 0 0 0-6.5 4.2q-.8.1-1.5.7l-3 1.7q-1.8 1.1-3.5 2.5l-1.4.8-1.8 1-1.2.7q-2 1-3.4 2.6l-1.6.6-1.8 1-1.2.8q-1.8 1.1-3.5 2.5l-1.5.8-3 1.7-1.8 1.2-1.2.8-.7.6q-.8 0-1.4.7l-6 3.7q-1.6 1.5-3.8 2.4l-1.1.9-2 1.3a36 36 0 0 0-5.5 3q-.1-1.2.5-2.2 21-27 42.8-53.2l1.5-1.1 1 .2q0 1 1 1l13.1-7.5zm-236.4 2q.8 0 1.2-.6-.8-.3-1.2.6M480 166a8 8 0 0 0-5 3c-1.4 0-6.7 2.8-7 4l-2 .6q-2.1 1.4.3 1.2 1-.7 1.8-1.7c1.4 0 6.4-2.7 6.8-4.2a7 7 0 0 0 5.1-2.9c2.6.1 11.5-6 14-7.7q1.7-1-.4-1.2l-12.6 7.6a2 2 0 0 0-1 1.3m-135.9 20c-.5-1.6 1.5-1.8 1.7-3.3q.9 0 1.2-.7l24-14.2q1.8-1 3.6-1.4-1.1 1.4-2.9 1.8a8 8 0 0 1-4.9 3.2l-16.9 11.2a38 38 0 0 1-5.8 3.3m65.9-11.2-.5 1.2-3.9 4-2-.4.1-.4c1.3-1.9 4.3-3.3 6.3-4.4m86.8 0-.2 1-.7.2q.3-.8.9-1.3m-.9 1.2q-.2.7-1 .6zm-1 .6c1 .7.4 2.9 1.9 1.4l-1 9.3q-.9-.5-1.8 0l-40.3 24.8q-4.6 2.6-8.6 5.7l-1.3.4q-1.2.6-1.8 1.7c-1.7.1-4.2 1.4-5 3a7 7 0 0 0-5 3c-1.4 0-6.6 3-7 4.1l-2 .6q-2.2 1.4.3 1.3 1.2-.6 1.6-1.9c1.5.2 6.5-2.6 7-4a7 7 0 0 0 5.2-3c1.7-.1 4.3-1.3 5-3q1.3.3 1.9-.8l1.2-.2q4.8-3 9.9-5.8 20-11.7 40.2-23.2c-.2 4-.5 8.5-2.2 12.2q-1.3 0-2.2.7l-1.2.8-.8.5-1.2.8-3 1.7-3.5 2.5-1.5.8-3 1.7q-2 1-3.4 2.6a2 2 0 0 0-1.6.7 31 31 0 0 0-6.5 4.3q-.9.2-1.6.6-.7.7-1.7 1l-1.2.8-3.6 2.5-1.4.7-1.8 1-1.2.8q-2 1-3.4 2.6a21 21 0 0 0-8 5q-1 0-1.6.7l-3 1.7q-2 1.2-3.6 2.6l-1.5.6-1.7 1-1.2.8q-2 1.1-3.6 2.5-.8.2-1.4.8l-3 1.7q-1.8 1.1-3.5 2.5-.8.1-1.5.7l-1.8 1-1.2.8-3.5 2.5q-.8 0-1.5.7-.9.7-1.8 1l-1.2.8q-1.7 1.5-3.6 2.6l-1.8.6q-6 4-12.3 7.7-.7.5-1 1.3a8 8 0 0 0-5 3q-2.4 0-3 2a2 2 0 0 0-2 .7c.6 1 2.1.3 2-.7q2-.2 3-2a7 7 0 0 0 5-3q1.1.2 2-.4l14-8 .8-.8q.8 0 1.5-.7l3.5-2.3q.9 0 1.5-.6l5-2.8.8-.6 1.2-.6 3.7-2 1.3-.8.8-.5q.6-.2 1.1-.7l1.9-1 1.2-.8.7-.2 1.3-.8 5-3 .5-.5 1.6-.7 10.6-6 1.3-.8.6-.5q.8-.2 1.3-.7l1.9-1 1.2-.8.6-.5 1.5-.7a35 35 0 0 0 5.4-3.4l1.6-.6 5-2.8.7-.5 1.2-.7a151 151 0 0 0 12-7q3-1.4 5.6-3.3l1.4-.7 3.7-2 1-.2c0 3.2-1.7 9.3-3 12.4q-1.2 0-2 .6l-1.3.8-3.9 2.3-1 1-11.1 6.7q-1.9 1-3.5 2.6-.9.1-1.6.7l-1.7 1-1.2.7-3.5 2.5-1.5.7q-1 .7-2 1.1l-1 1-1.8 1-1.2.7q-1.9 1.1-3.5 2.5-.9.2-1.5.8l-1.8 1-1.2.7q-1.8 1.1-3.5 2.5-.9.2-1.6.8l-2.9 1.7-1.8 1.2-1.2.8-.7.6q-.8.2-1.4.7l-1.8 1-1.1.9-1.8 1-1.2.8a11 11 0 0 0-3.4 2.6q-1 0-1.7.6l-1.7 1-1.2.8q-1.9 1-3.5 2.6l-1.5.6-3 1.9-3 2-.8.5-1.1.7-2 1-1.1 1-3 1.7q-1.7 1.4-3.6 2.6l-1.5.6-1.9 1.4q-7 4-13.7 8.4-.7.4-1 1.3c-1.5-.1-4.5 1.5-5 3q-2.4-.3-3 2a2 2 0 0 0-2 .7c.6 1 2.2.2 2-.8q2 0 3-2a7 7 0 0 0 5-2.9q1.1 0 2-.5l14.1-8q1.7-1.7 4-2.5.7-.2 1.2-.7l.6-.6q.8 0 1.3-.5l5.1-3 .8-.5q.8 0 1.3-.6l5-2.8.6-.6q.8 0 1.3-.6l5-2.8 5-3 .6-.6 1.4-.6 3.8-2 1.2-.8.7-.5 1.3-.7 5-2.8.8-.6q.6 0 1.2-.6l4-2.2q.6-.3 1-1a20 20 0 0 0 5.4-3.1q.9-.2 1.6-.8l5-2.7 1-.5 1-.8 5-2.7.7-.5q.8-.3 1.3-.7 2-.9 3.4-2.5a28 28 0 0 0 7-4q.9 0 1.6-.5l3.8-2 1.2-.8.8-.6 1.2-.7 3.7-2q-2.2 7.1-4.9 14.1l-.8.2-1.6.6-1.7 1-1.3.9q-3.3 2.3-6.9 4.3l-1.1.8-1.8 1-1.2.8-3.6 2.5q-.8.2-1.4.7l-2 1.2-1 1-3 1.6q-1.8 1.1-3.5 2.5-.9.1-1.4.8-1 .4-1.8 1l-1.3.7a63 63 0 0 0-6.4 4.5q-1 .2-1.7.7l-1.7 1-1.2.8-1.8 1.2-1.2.8-5 3.2-3 1.8-3 2-.8.5q-.6.2-1.3.7-.9.8-1.9 1.2l-1 .8-1.8 1-1.2.8q-1.9 1-3.5 2.6-.8.2-1.4.7l-1.9 1-1.2.7-1.8 1.2-1.2.8q-2 1-3.4 2.6-1 0-1.6.7l-1.8 1-1.2.7-1.8 1.3-1.2.7-3.5 2.6-1.6.7-1.9 1.1-6.2 4q-.3.2-.3.7l-1.6.2-1.7 2q-3 .5-5 3c-1.3-.2-4.6 1.8-5 3q-2-.2-2.8 1.6c1 .9 2.5-.7 2.9-1.6q2.3 0 4-1.7.6-.4 1-1.3c1.6 0 4.5-1.3 5-3q1.3.3 2-.9.8 0 1.4-.3l13-7.5.7-.6q.6 0 1.2-.5l1.8-1.2q.6-.2 1.3-.7l1-.3 1-.8 4.9-3 .5-.5q.8 0 1.5-.6l5-2.8.8-.6 1.2-.7 3.7-2q.8-.2 1.3-.7l.6-.5q.9-.2 1.4-.7l1.8-1 1.2-.8.5-.5q1 0 1.6-.7l5-2.8.5-.6q.8 0 1.3-.6l5.1-2.8.8-.6 1.2-.6 5-2.8q2.8-1.5 5.5-3.5.8 0 1.4-.7 3-1.3 5.5-3.4.9-.1 1.6-.7l5-2.7.7-.6q.8-.1 1.2-.7l5.1-2.7q3-1.6 5.5-3.5.9 0 1.5-.7l.6-.2q.2 1.2 1 2.1c-1.7 3.7-2.7 7.7-5 11.2a18 18 0 0 0-3.5 1.6L441.7 285l-10.7 6.5q-.7.4-.9 1.1l-1.4.2q-1 .8-1.7 2c-1.9-.2-4 1.5-5 3-1.8 0-4.3 1.4-5 3q-1.5-.3-2 1-1.9.3-3 1.6c1 1.3 3.2 0 3-1.6q1.4.4 2-1 3.2-.4 5-3a7 7 0 0 0 5-3q1.3.3 2-.7l1.4-.4q6.3-3.9 12.7-7.4.6-.8 1.4-1.3 13.5-7.4 27-15.2-3.6 8.3-7.9 16.2-.7-.4-1.7 0l-55.3 35q-1 .6-1.6 1.7c-1.9.1-4.2 1.4-5 3.2-1.8-.2-3.9 1.3-5 2.5.9 1.5 4.4-1.6 5-2.5 1.7-.3 4.4-1.5 5-3.2q1 .2 2-.4l9-5.2 43.9-25.5c-.3 3.8-7.1 13.8-9.3 17.5q-1.2-.4-2.3.5l-63.3 41q-.6.3-.7 1.2l-1.6.1q-1 .7-1.7 2c-1.4-.3-4.7 1.6-5 3q-2.3 0-3 1.9a2 2 0 0 0-1.9.7c.6 1 1.9 0 1.9-.7q2.1 0 3-2 3.3 0 5-3 1.4.3 2.1-.7l1.3-.7q30.3-17.2 60.5-34.9a136 136 0 0 1-14.7 21.4q-1.2-.2-2.2.3L385.6 367c-1.5 1.3-7.2 4-7.4 5.8-1.8-.2-4.7 1.5-5.2 3q-2.3 0-3 2-1.2-.2-1.9.7c.6.9 1.8.1 1.9-.7a4 4 0 0 0 3-2 8 8 0 0 0 5.2-3c1.7.1 6.9-3.4 8.5-4.4q17.3-9.8 34.2-19.8l1 .3c-.7 2.9-21.3 25.6-23 26a1 1 0 0 0-.7 1.1q-1.2-.2-2.2.4-13.7 9.4-27.5 18.4a1 1 0 0 0-.3 1q-2.4 0-3.2 2-2.2-.3-3 1.6c1 1 2.5-.6 3-1.5q2.1-.1 3.2-2.2l1.9-.2q5.3-3.6 11-6.6 0 1.5 1.3 2.3c-10.2 9-20.9 18.3-32.4 25.5q-.7.3-.7 1-4 3-8.3 5.5a2 2 0 0 0-1.3-.3q-19.2 10.8-38.1 22-.4.3-.3.8l-4.2 2.4q-.6 0-1.1-.3c-1 .7-4 1.4-3.7 2.8-6.2 1.9-31.7 16.2-36.5 10q29.2-19.5 58-39.5 2.2-.4 3.2-2.3c.8.3 4.1-1 2.5-1.8q-2 0-2.5 1.8-2.5 0-3.1 2.3h-2c-20.2 12.3-42 24.3-62.6 36.3q-1 .4-1 1.2c-1.7.2-12.2-2.4-12.2-3.8q30.7-20 61.1-40.2l11.8-7.5a2 2 0 0 0 1-1.1q2-.3 3-2.3 1 .3 1.9-.6c-.6-.9-1.6 0-2 .6q-2.1.3-3 2.3-1-.2-2 .3l-11.6 6.8-66.3 38.3q-.7.5-1 1.1-5-1.1-9.8-3.4-1-.3-1-1.4c1.5-.2 5.3-3 6.5-4.1q1-.2 1.6-.8l2-1 1-1 1.7-1 1.2-.8q5-3 9.6-6.4.8-.1 1.5-.7.8-.6 2-1.1l1-1 3-1.8q4.8-3 9.5-6.5.9-.2 1.5-.7l2-1 1-1 1.8-1 1.2-.7 1.8-1.2 1.2-.8 3-2q2-1.1 3.6-2.5l1.3-.8 2-1 1-1 1.9-1 1.2-.7 1.8-1.2 1.2-.8 3.7-2.6q.6 0 1.3-.5l1.5-1.5q.8 0 1.5-.6a5 5 0 0 1 2-1.1l8.7-5.7q.7-.4 1-1.3 2 0 3-2c.5.2 2.9-.3 1.6-1.1q-1.3-.1-1.6 1a4 4 0 0 0-3 2c-2.1 0-9 4.6-11 5.8q-2 1.2-3.8 2.6l-1.5.5q-1.7 1.5-3.8 2.2l-1.2.7-.8.5-1.2.7-10 5.8-.8.5-1.3.8a129 129 0 0 0-12 6.7l-.7.5-1.3.7q-1.8 1.2-3.8 2.1-.7.4-1 1a39 39 0 0 0-5.1 2.7l-.7.5q-.8.2-1.4.7l-5 2.8-.7.6q-.8 0-1.3.6a41 41 0 0 1-5 2.8l-.7.6q-.6 0-1.1.6-2 1-3.6 2.3-.8.2-1.4.8-3 1.3-5.7 3.3-.8.1-1.4.6l-5 2.8-.7.5-1.1.6-1 .6q-5.3-1.9-10.1-4.7 1-.7 2.3-1l63-39.7a5 5 0 0 0 2-1.8l1.2-.3c1.7-1.1 5.8-3 6.6-4.8.8 0 2.2 0 2.1-1.1q2-.2 3-2a9 9 0 0 0 5-2.6c-.8-1.3-5 1.6-5 2.6q-2.3 0-3 2-1.5-.2-2 1-2.5.6-4.6 2-1.5.6-2.3 2h-1.4l-1.7 1.6q-1.5.5-3 1.4L198.6 437q-1 .4-1.5 1.5-5.4-2.4-10.3-5.6 1.5-.2 2.9-.8l58-36q1.5-.8 2.2-2.2c.8 0 2.2 0 2-1.1q2.1 0 3-2c.7 0 2.2.2 2.1-1 .7 0 4-1 2.6-2q-2.3 0-2.6 2-1.4-.2-2 1-2.4 0-3 2-1.5-.3-2 1.1-1.2 0-2 .4l-14 8.2-48 27.8q-.9.6-1.2 1.5-3.9-2.2-7.8-4.7-.8-.4-.9-1.3l2.2-1 1-1 3-1.7a15 15 0 0 0 3.4-2.6q.9 0 1.6-.6t1.8-1l1.2-.9q3.3-2 6.4-4.5.9 0 1.6-.7l1.7-1 4.9-3.3q.8 0 1.4-.7l1.5-1.3q.8 0 1.5-.7a30 30 0 0 0 6.4-4.3q1-.2 1.6-.7l2-1 1-1 3-1.7 5-3.3 2-1 1-.9q3.5-2 6.5-4.4l1.5-.7 3-1.8 3-1.9q1.9-1.1 3.5-2.5.8-.2 1.4-.8a22 22 0 0 0 4.9-3q.6-.2 1.2-.7l.8-.7a2 2 0 0 0 1.2-.6l2-1 1-1 1-.4c.4-.2 2-.6 1.5-1.3 4-.5 15.4-8.3 16.4-11.5q1 .6 1.8-.4-.3-.7-1.2-.6 38.3-51 76.7-101.8.7-.9 1.8-1.3l15-8.5.8-.5 1.1-.6q.9-.7 1.9-1l1.2-.8.6-.6q.8 0 1.5-.7l5-2.7.5-.6q.8 0 1.4-.6l3.7-2 1.3-.8 2-1.2 3.7-2.1 5-3q.8-.2 1.3-.7l.8-.4a22 22 0 0 1 5-2.8l1.2-.8.8-.6 1.2-.6 5-2.8.9-.5 1-.7q2-1.2 4-2l1.1-1q3-1.4 5.5-3.3l1.6-.7 5-2.8.6-.6q.8-.2 1.3-.7l5-2.7.8-.6q.6-.2 1.1-.7l4-2 1.1-1q3-1.4 5.5-3.2l1.6-.7 5-2.8.7-.5q.6-.2 1.1-.8l5.1-2.7.6-.6q.8-.2 1.4-.6 2-.9 3.4-2.4 1 0 1.7-.7 3-1.3 5.4-3.3.8-.1 1.5-.7l5-2.7.8-.6q.8 0 1.2-.7zm-91.3 3q.3 1-.8 1.1 0-1 .8-1M181 212c1.6-.4 6.2.6 7 2-1.3 1.7-8.5 5-10.6 6.4-2.9-2 4-1.8 2.2-4q-1.2.6-2.7.5zm-4 5q-.3.7-1 1 .4-.7 1-1m-1 1q-.1.7-1 1zm1.4 2.4-1.2.7q.3-.7 1.2-.7m19.1-.6q3.2 2 5.6 5-8 4.1-16 8.5l.5-1.2c1-1.5 4-2.8.4-3.3a156 156 0 0 0 9.5-9m165.6 7c3 .2.7 2 .1 3.5q-1.5-.7-1.7 1-.9 0-1.4.8l-.5.3q-1 0-1.3.8l-2 1.2q-.8 0-1.2.6a517 517 0 0 0-21 12.5l-7.8 4q-.5.2-.8-.2 13.8-8.6 27.3-17.6.9 0 1.2-.8l2-1.3q.8 0 1-.7 1.6.4 1.8-1.2 1 0 1.3-.8 1.6.6 1.7-1.2 1 0 1.3-.8m-175.1 2q-.3.9-1.1 1zm-1.1 1q-.2.9-1.1.9zm22 2c2.4-.7 2 1.3 1.6 2.6q-1-.2-1.3.7l-2.3 1.3q-.4 0-.8.4l-11.5 6.7q-.3-.8.3-1.3 6.1-4 12-8.7.7 0 1-.8 1 0 1-1m-21.7 1.5-1.3.8q.4-.7 1.3-.8m-1.3.8-1.6 1q.3-1.5 1.6-1m107.5 6.3-1.3 2.4c-1.6 1.1-4.9 3.8-6.7 4.1 1-2 3.7-4.5 5.4-6.1zM151.2 248a10 10 0 0 1 2.8-4.3l2.7-1.5q2.3-.2.4 1.3a60 60 0 0 1-5.9 4.5m327 4q-.6.6-1.3.8zm-343.9 3c-6.1 15.4-4 20.8 7.7 31.2q-.9-.1-1.8.4-33.4 19.3-66.6 38.8Q65.1 313.7 58 301q1 .1 2-.4zm97.6 1.6q1 1 1 2.3l-.7.4-9.7 5.6c-1 .8-1.9 2.2-3.3 1.4q0-.6.6-.9l10-7.6zm-82.8 10.6q-1 0-1.1 1l-2.2 1.1q-1.3-.8-.9-2.3l.7-.3q.9 0 1.3-.7l9.6-6q1-.7 2-.4-1.6 1.2-2.7 2.8-3.6 2-6.7 4.8m186.8-7.4q1 .2 1.7.6-1.2 1.5-1.5 3-2.3-.5-3 1.8l-2 1.1q-.8 0-1.2.7-9.4 5.3-18.4 11-1.9.6-3.5 1.6-.5.3-.8-.2l20.5-13.9q1 .2 1-.7.9 0 1.2-.8l.6-.4q.9 0 1.2-.8.9 0 1.2-.8 1.6.3 1.7-1.3.9 0 1.3-.9m-240 3.3q-2.2 0-3 2-1.4-.5-2 1-2.2-.2-3 1.8-1.4-.2-2 1a7 7 0 0 0-5 3.2 7 7 0 0 0-5 2.9 4 4 0 0 0-2 .4l-15.4 8.8c-1.6 1.1.4 2.2 1.5 1.2l15-9q.8-.6.9-1.4c1.8.2 4-1.5 5-3a7 7 0 0 0 5-3q1.5.4 2-1 2.1-.1 3-2 1.4.2 2-1 1.9-.3 3-2a2 2 0 0 0 1.9-.7c-.6-1-1.7 0-1.8.8m57.8 15.3-1.1-1.4q4.7-2.6 9.2-5.8 1.2-.8 2.6-.8l-1.5 1.8q-.7.2-1.3.6c-2.2 1.7-5.5 4.5-8 5.6m92.6 2q-.9 0-1.3.8l-2 1q-.8 0-1.1.8l-7.7 4.7q-.6 0-1-.3l11.5-9.6q1 0 1.1-1l1-.8a5 5 0 0 0 4-1.1c1.7 1.4-1 2.5-2.2 2.3q-2.4.9-2.3 3.2M53 277.1c-1.2 0-4.1 1-4.3 2.4 1 .8 3.7-1.4 4.3-2.4.6 0 2.6-.4 1.5-1.2q-1 0-1.5 1.2m123.3 13.1q-.9.3-1.2 1c-2.9-.1-2.2-.8-1.5-2.6q.9 0 1.3-.7l13-7.5.7.1q-6 5-12.3 9.7m87 10q-1 0-1.3.8l-.6.4q-.9 0-1.2.8-.8 0-1.2.9l-.5.4q-1-.2-1.2.8-.9 0-1.2.9c-1.5-.5-3.7-.2-2.8 1.9l-2.2 1.4c-4.7-1.7 1.4-1.7.8-4.6l.9-.5q2.7 1.3 3-1.7 1.7.6 1.8-1 1 0 1.3-.8l.6-.4q.9 0 1.3-.7l2-1.2q.9 0 1.2-.6 8.3-4.8 16.5-10c.8-.1 3.5-2 4-1.6q-10.5 7.5-21.3 14.8m-119.4-13.5c2.3 1.7 9.8 5.6 11.2 7.5a3 3 0 0 0-1.8.5l-72 41.7c-1.4-2-4.7-5.5-5.3-7.7a2 2 0 0 0 1.7-.4l64.4-39.7zm105 2.2a1 1 0 0 1-1 .7zm-1.8 1.2q-.4.6-1 .6zm4 .3-1 .7q.3-.7 1-.7m-5 .3q-.5 1.6-2 1.3zm-2 1.3q-.4.6-1.2.7zm4 .3-1.2.7q.4-.6 1.2-.7m-44.8 10q-1 0-1 1-1 0-1.1.9-1 0-1.2 1-1-.1-1.7-.7c.8-1.6 2.5-1.8 2.3-3.9q.9 0 1.3-.7 5-2.8 9.6-6 1-.6 2.2-.2zm39.6-9.6q-.4 1.7-2 1zm4 .3-2 1.2q.5-1.5 2-1.2m-6 .8q-.8 3-3.9 2zm4 .4-1 .8q.3-.7 1-.8m-1 .8-1.9 1.2q.3-1.5 1.8-1.2m-6.9.9-.2 1.4a12 12 0 0 0-2.5 2.1q.8.8 1.8.9a786 786 0 0 1-27.2 18c-1-.6-4.6-2.8-4.7-4q16.6-9 32.8-18.4m-53 1.3 1 1q-.5 1-1.1 1.6a4 4 0 0 1-1.9-1.6zm57-.2-3 2q.1-2.8 3-2m-160 2q-2.5-.3-3 2-1.2-.3-2 1c-1.7.2-4.2 1.3-5 3-1.3 0-4.5 1.5-5 2.7.8 1.2 4.5-1.7 5-2.7 1.7-.1 4.4-1.4 5-3q1.5.4 2-1 2.1-.3 3-2a2 2 0 0 0 1.9-.7c-.6-.8-1.7 0-2 .6m157 0-2 1.3q.4-1.5 2-1.3m-68.2 4.9q9.3 6 18.3 12.5 1 .6.7 1.7-4.6 2-8.8 4.9a8652 8652 0 0 0-74 42.8c-1.5.1-6-5.1-6-6.8l10.4-6.1 13-8q.5-.3.4-.8l1.6-.1a5 5 0 0 0 1.6-2.1c1.8.3 4.3-1.3 5-3 1.8.2 4.3-1.3 5-3 .7.2 2.2.2 2-.9 1.7-.3 4-1.4 5-3q2.1 0 3-2 1.2.1 2-1c1 .3 4-.8 2.6-1.9q-2 0-2.5 2c-.8-.2-2.2-.3-2.2.9q-2 .2-2.9 2c-1.5-.3-4.4 1.6-5 3q-1.4-.2-2 1-3.2.4-5 3-3.2.4-5 2.9-1.4-.1-2 .9l-1.4.4-24 14q-.3.2-.5.7c-1.6 0-6-5.6-6.2-7.2q24.9-14.7 49.2-30l11.4-6.7q.4-.4.4-.9l1.3-.1c5.9-2.5 8-8.3 14.6-9.1m-97 11.4c2.4-.7 5.2-2.4 7-4-.4-1.1-6.8 2.4-7 4m117.4 3.5c6.4 3.8 12.5 9.5 18.2 14.3-.3 1-2.7 1.2-3.6 2q-.7.3-1 .9a37 37 0 0 0-5.1 2.7l-.7.5q-.8.3-1.3.7l-3.8 2-1.2.8-.8.6a63 63 0 0 0-6.2 3.5q-.5 0-.8.4l-1.2.7q-1.8 1.2-3.9 2l-1 1q-3 1.4-5.7 3.3l-1.5.7-5 2.8-.6.5q-.8.2-1.4.8a72 72 0 0 0-10.4 6.2l-1.5.8q-3 1.4-5.5 3.2a65 65 0 0 0-8.6 4.7L134 376l-1.2.7q-3 1.5-5.6 3.6l-1.6.6a9 9 0 0 0-3.6 2.5c-1.6-1.6-5.3-4.5-6-6.5q8.3-5.6 17-10.7a2 2 0 0 0 1-1.2q3-.6 5-3 3-.6 5-3c1 0 8-3.1 6.5-4.2-1.5.8-6.2 2.5-6.5 4.2-1.8-.2-4.1 1.5-5 3-2-.3-4 1.5-5 3h-1.5q-7.8 4.7-15.9 9.2l-1.7 1.6c-2.4-1-5.3-4.9-6.8-7.1q.9.2 1.6-.3l70.6-43.6q.5-.3.5-.9c3.4-.8 6.4-3.4 9.4-5.1m20.9 16.9a134 134 0 0 1 18.2 18.3l-1.3-.1-1.3.8-.8.7q-.7 0-1.2.5l-3.8 2-1.2.8-.7.6q-.8.2-1.3.7l-3.7 2-1.3.7-5 3-.6.6q-.8 0-1.4.7l-5 2.7-.8.5-1.3.7-5 2.8-.6.6-1.2.6-8.9 5-1.3.8-.8.4-1.2.8a74 74 0 0 0-7 4l-5 2.8-.6.6q-.8.1-1.3.6l-3.9 2.2-1.2.9q-2.8 1.4-5.5 3.2-.8.2-1.4.7l-5 2.8-.9.5-1 .8c-1 .4-2.7.9-2.6 2.1a32 32 0 0 1-7.6-6.4l64.4-39.4q.7-.4 1-1.3a8 8 0 0 0 5-3 7 7 0 0 0 5-3c1.7.3 3.8-1.6 5-2.6-.8-1.3-4.8 1.7-5 2.5-1.7.3-4.3 1.4-5 3a7 7 0 0 0-5 3.1q-1-.1-2 .4l-21 12.2q-.7.8-1.6 1.2-20.8 11.7-41.5 23.7-.9.6-.6 1.6c-2.2-.5-6.6-5.4-8.6-7h1.3l1.3-.8a12 12 0 0 0 3.4-2.7q.8 0 1.5-.5l1.9-1 1.2-.8q1.8-1.1 3.5-2.5.8-.2 1.5-.8l3-1.7 3.5-2.5 1.5-.7 3-1.9 3.6-2.4q.8-.2 1.4-.7l3-1.9q3.3-2.2 7-4.3.5-.3 1-1l7-3.8 1-1 7-4.1 1-1a41 41 0 0 0 6.4-4.3 3 3 0 0 0 1.6-.6l1.8-1 1.2-.8q1.9-1 3.5-2.6.8-.2 1.5-.7l3-1.7q2-1 3.4-2.6.9 0 1.6-.6zm49 4.3q-.4.8-1.2.7zm-1.2.7q-.3 1.5-1.8 1.1zm-1.8 1.1q-1.7 3-4.7 4.8l2.6.5-8.2 7.2a52 52 0 0 1-4.6-5c4.5-1.2 10.4-5.4 14.9-7.5m1.1 2.7-1 .8q.3-.9 1-.8M302 346q-1.5-.2-2 1.1a3 3 0 0 0-3 1.8c-1.4.2-13 5.5-10.3 6.8.9 0 10.2-5.5 10.3-6.8a3 3 0 0 0 3-1.8q1.4 0 2-1c.7-.1 4-1.1 2.6-2q-2 0-2.6 2m-44.7-.7-1.1.9q.2-.9 1-1m-1.1.9-1.2 1q.3-1 1.2-1m-26.3 8.7q4.5 5 9.4 9.4l-4.6 2.4-.7.6q-.8.2-1.4.6l-3.7 2-1.2.8-.8.5-1.2.6-5 3-.7.4-1.4.7-1.7 1-1.3.8-.8.4-1 .9a25 25 0 0 0-5.1 2.7l-.8.5-1.2.6-5 3-.8.5-1.2.6-5 2.8-6 3.3-1 .9q-3 1.3-5.5 3.4-.9 0-1.6.7l-5 2.7-.6.6q-.8 0-1.3.6l-5 2.8q-2.8 1.5-5.5 3.5-.8.2-1.4.7l-5.1 2.8-.7.6c-2.9-1.2-6-4.2-8.4-6.2a4 4 0 0 0 3.3-1.4l1.5-.7 2.9-1.7 3.6-2.5 1.4-.7q.9-.7 1.8-1l1.2-.8a44 44 0 0 0 5-3.3l3-1.7 3.5-2.5q.8-.2 1.5-.8a30 30 0 0 0 6.6-4.3q.8-.2 1.4-.6l1.8-1 1.2-.8q1.9-1.1 3.5-2.6l1.5-.6 1.8-1 1.2-.8q1.9-1 3.5-2.6.8 0 1.4-.7l3.1-1.7q2-1 3.5-2.6.8 0 1.5-.7l3-1.7q1.9-1 3.5-2.6.7 0 1.5-.7l1.8-1q.6-.2 1.2-.7 2-1 3.6-2.6.8-.1 1.4-.7l1.8-1 1.2-.7c.8-.7 2.6-1.2 2.6-2.4m28 6.7q-1.5-.2-3.1-.8c.5-1 6.2-4.2 7.7-4.7q.3 0 .4.3a39 39 0 0 1-5 5.2m-17.2 4.4a38 38 0 0 0 16.7 5.3q-.7.6-1.7.8l-1 .6-5 3-.6.5q-.8.2-1.4.7l-5 2.8-.7.6-1.3.7a36 36 0 0 0-5 2.8l-.8.5-1.2.6-3 1.8-1 .4-1 .9a45 45 0 0 0-7 4l-5 2.7-.8.6-1.2.6-5 2.8a36 36 0 0 0-5.4 3.6q-1 0-1.6.7-3 1.3-5.5 3.2-.8.2-1.4.8a62 62 0 0 0-7.1 4 146 146 0 0 0-12.1 7q-3 1.3-5.5 3.3-.7 0-1 .8c-3-.8-7-4.2-9.5-6q1.9 0 3.5-1l1.2-.8q2-1.1 3.5-2.7.9 0 1.5-.5 1-.8 2-1.1l1-1q3.5-1.9 6.6-4.2l1.4-.7 1.8-1 1.2-.8q2-1.1 3.4-2.5a3 3 0 0 0 1.6-.7l1.8-1 1.2-.8 5-3.2 2-1.2 1-.9c1.8-1 5.3-2.8 6.4-4.3l1.6-.7 1.8-1 1.2-.7q1.9-1 3.5-2.6.8 0 1.6-.6l1.7-1 1.2-.8q3.3-2.4 7-4.3l1-1 1.8-1 1.2-.7a26 26 0 0 1 4-2.4l1-.9 3-1.7c.7-.7 2.6-1.2 2.4-2.3m147.5 19q-.5.6-1.2.7zm-2 1q.5 0 .8-.3 0 .6-.6 1-.3-.2-.2-.6m-1.8 1.2.7-.4q0 1-1.1.9zm.8 1.8-1.9 1.6q-.2-2.1 2-1.6m-1.9 1.6-.8.7q-.4-1.3.8-.6"/><path fill="none" stroke="#ce4545" stroke-width=".5" d="m153.4 48.3-50.5 35.2q-.9.4-.7 1.3c-2 .1-3.8 1.6-5 2.9.7 1.1 4.3-1.8 5-2.9q1.2 0 2.4-.8L164 49.6c2.1.5 10.2 1.9 11.2 3.6l-13.6 9c-1.5 1-4.3 2-4.7 4-1.4-.5-4.7 1.4-5 2.8q-2.3 0-3 2-1.2-.2-2 .7c.6 1 1.9.1 2-.6q2.1-.5 3-2 3.2-.5 5-3c2 .1 4.2-2.1 6-2.9q6.7-4 13.7-7.8 1-.5 1-1.4c4-.4 29.3 11.7 30.3 14.2-4 2.4-32 20.3-32.8 21.6l-1.5.3q-1 .7-1.8 1.8c-1.6.1-4.4 1.6-5 3.1q-2.2 0-2.8 2a2 2 0 0 0-2 .7c.6 1 2 .3 2-.7q1.9-.2 2.9-2c1.7 0 4.4-1.2 5-3q1.2.2 2.2-.7l1-.6L209.5 71l1.6-1.4q8.4 5.4 16.2 11.7-1 .8-2.4 1l-43.3 28a6 6 0 0 1-3.7 2.2q-.8.4-.8 1.3c-1.5.1-4.7 1.7-5.1 3.2q-2.3-.2-3 2-1.2-.3-2 .7c.6 1 2.2.2 2-.8q2.1-.2 3-2 3.4-.3 5.1-3.1l2-.2q24-14.3 48.6-28.2 1.3-.7 2.2-1.8 3.8 3 7.3 6.4 0 .6-.7.8a3134 3134 0 0 0-57 36.4q-1 .6-1.4 1.7c-.7 0-2.2 0-2 1.1q-2.1 0-3 2-1.5 1.2 0 0a3 3 0 0 0 3-2q1.4.3 2-1 1 0 2-.6l11.7-6.8L239 94.3q.8-.4.8-1.3 4 3 7 7-18 11.3-35.8 22.8-.6.3-.8 1.1h-1.4q-1.2.9-1.8 2.2c-1.4-.3-4.6 1.6-5 2.9q-2.4-.3-3 2-1.3-.3-2 .7c.6 1 2.1.2 2-.7q2-.3 3-2a7 7 0 0 0 5-3q1.2.2 2.1-.6l1.2-.7 36.8-21.2q1-.6 1-1.8 2 2 4.6 3.1C261 107.6 271 89 277.9 85c.6 0 2 .1 2-.7l1-.3 48-27.7a2 2 0 0 0 1-1.4c.6.1 2.1.2 2-.7 8-2.2 18-5.2 26.5-5.1l-1.2 1.2a3 3 0 0 0-1.6.6l-2.8 1.9a88 88 0 0 0-8.1 5.2l-3 1.7-5 3.3-2 1-1 1-3 1.7-3.6 2.5-1.3.7q-1 .7-2.1 1l-1 1.1a39 39 0 0 0-6.5 4.2l-1.5.7-3 1.8-6.5 4.5q-.9.2-1.5.7l-3 1.8q-2 1.2-3.6 2.6-.8 0-1.4.7l-2 1-1 1a39 39 0 0 0-6.5 4.3l-1.5.6-1.7 1-3 2-1.3.8q-2 1-3.4 2.7-.9 0-1.5.6l-3 1.7-1.9 1.2-1.2.8-.7.6q-.8 0-1.3.6-1 .8-2 1.2l-1 .8-1.8 1-1.2.8q-2 1.1-3.6 2.6-.8.1-1.4.7l-1.9 1-1.1 1-1.8 1-1.2.7-3.5 2.6q-.7.1-1.4.5-.9.8-2.1 1.4l-16 10q-1.2.6-1.7 1.7-1.5-.2-2 1-2.1.3-3 2a9 9 0 0 0-5 2.8c1 1.2 4.5-1.6 5-2.8q2.2.2 3-2 1.5.5 2-1 1 0 2-.5l17-9.8 1.1-.8 1.2-.7 5-2.8.9-.4 1.2-.9 4.9-2.7.6-.5q.9-.1 1.3-.7l3.1-1.8.6-.6q.8 0 1.4-.6l5-2.8.9-.5 1-.7 5.1-2.8.8-.4 1.2-.9 3.7-2q.8-.3 1.3-.7 3-1.6 5.6-3.6.8 0 1.5-.6 2.8-1.4 5.4-3.4.9 0 1.4-.7l5.1-2.7.8-.5 1.2-.7q2-1.2 4-2.1.6-.3 1-1 3-1.3 5.5-3.3a2 2 0 0 0 1.6-.7q2.8-1.4 5.4-3.2l1.5-.7 3.8-2 1.2-.8.7-.6 1.3-.6q2-1.2 4-2.1.6-.3 1-.9a54 54 0 0 0 7-4l7-4 5.7-3.3q.8-.2 1.3-.7 1.9-.9 3.5-2.4.7-.1 1.5-.7 3-1.3 5.5-3.2.9-.2 1.6-.8l4.9-2.7q.6-.6.6-1.3a51 51 0 0 1 16.4 1l-.5.8q-35.2 21.6-70 43.5L309 99.7q-.7.3-1 1l-1.3.3c-1.4 1.3-6.2 3.2-6.7 5-2 0-5.6 2.4-7 4q-2.2 0-3 2a2 2 0 0 0-1.9.7c.6 1 1.8 0 2-.7a3 3 0 0 0 2.8-2c1.6.2 6.5-2.5 7-4q1.2 0 2.1-.5c.7-.6 5-2.5 5-3.4l1.4-.1q6-3.8 12.4-7.4l74.9-43.3q1-.3 1-1.4a39 39 0 0 1 13.3 2.8l-1.3 1.2q-3.4 2.2-7 4.2l-1 .9-14.9 9-1.1 1-7 4-1 1c-1.8 1-5.1 2.7-6.5 4.3q-.8.2-1.4.7a49 49 0 0 0-6.6 4.2q-.9.2-1.4.8a33 33 0 0 0-6.5 4.3l-1.5.6-3.1 1.8q-1.8 1.1-3.5 2.5a3 3 0 0 0-1.4.7l-1.9 1-1.2.8q-1.8 1.1-3.5 2.5-.8.3-1.5.8l-1.8 1-1.2.7a13 13 0 0 0-3.4 2.6q-1 0-1.6.7l-3 1.7q-2 1-3.4 2.6-1 0-1.7.6l-1.7 1-1.2.8q-1.8 1.1-3.5 2.5-.8 0-1.4.7l-3.1 1.8a21 21 0 0 0-3.6 2.6q-.8 0-1.4.7l-1.8 1-1.2.7a27 27 0 0 1-5 3.2q-.7.7-1.8 1l-1.2.8-3.5 2.7q-.8 0-1.5.6l-2 1c-1.7 1.5-5.5 2.9-6.6 4.8l-1.5.3-10.6 6.6-1 1.2c-.7 0-2.1 0-2 1.1q-2.1 0-3 2-1.2 1 0 0 2.1 0 3-2 1.5.3 2-1l1.3-.2 10.2-5.9q.4-.2.4-.7l1.1-.2 13.3-7.7.7-.6 1.2-.5q1.8-1.3 3.8-2.2.8-.3 1.3-.7 1.7-1.5 3.8-2.2l1.8-1.3a3 3 0 0 0 1.4-.7l3.8-2 1.2-.8.8-.6 1.3-.6 5-2.8.7-.6q.7-.1 1.2-.6l3-1.8 1-.4q.7-.3 1.1-.8l5-2.8.8-.5 1.2-.7 3.7-2 1.2-.8 2-1.3 5-2.7.7-.5 1.3-.8q2-.8 3.5-2.3.9 0 1.5-.7 3-1.4 5.6-3.2l1.4-.7 3.8-2 1.2-.8.8-.5 1.2-.8 5-2.7q3-1.6 5.5-3.6.8-.1 1.5-.6a44 44 0 0 0 7-4l5-2.8.8-.5 1.3-.7q1.8-1.2 3.8-2.1.8-.3 1.1-1 3-1.2 5.4-3.2 1 0 1.6-.8 3-1.4 5.5-3.2l1.5-.8 5-2.7.9-.5 1-.5.9-.6c2.7.8 19 7.2 19.6 9.2q-15 9.5-30.1 18.5-1 .7-1.6 1.6c-1.6 0-4.5 1.5-4.9 3.1a6 6 0 0 0-5 3c-2.2-.1-5.4 2.4-7 3.6.6 1.1 6.3-2.4 7-3.6 1.8 0 3.9-1.6 5-3 2 0 4-1.5 5-3.1 2.3.4 2.7-1.1 4.6-2l28.5-16.4 1-.8c1.4 1.3 7.6 4.2 8 6l-1.2.1-1.3.9q-1.8 1-3.5 2.4-.8.3-1.5.8l-3 1.7-5 3q-2 1.1-3.6 2.6-.8.1-1.3.6a83 83 0 0 0-11.6 7.4q-.8.1-1.5.7a75 75 0 0 0-11.6 7.2q-.8.2-1.4.7l-1.8 1-1.2.8a20 20 0 0 1-4 2.2l-1 1-3 1.8-.6.6q-.9 0-1.4.6l-1.8 1-1.2.8-3.8 2.3q-.7.4-1.2 1a12 12 0 0 0-3 1.7l-.8.6q-.7.1-1.2.7l-1.8 1-1.2.7q-1.8 1.5-4 2.4l-1 .8q-1.9 1-3.5 2.3-.8.3-1.5.9l-2 1c-1.3 1-8.6 4.8-8.6 5.8l-1.1.1c-1.4 1.2-6.7 3.3-7 5a7 7 0 0 0-5 3q-3 .5-5 3a10 10 0 0 0-5 2.7c.8 1.3 4.7-1.7 5-2.8 1.4.5 4.6-1.5 5-2.9a7 7 0 0 0 5-3c2 0 5.6-2.3 7-3.9l1.2-.3 9.8-5.5 3.8-2.6q.9-.1 1.6-.7l5-2.7.7-.5 1-.5q2-1.4 4-2.2l1.2-.8.8-.6q.6 0 1.1-.6l5.1-2.8 5-3 .8-.6q.6-.2 1.2-.7a39 39 0 0 0 5-2.7l.8-.5 1.1-.7 5.1-2.8.6-.5 1.5-.7q1.8-1.2 3.8-2.1.7-.3 1.1-1a31 31 0 0 0 5-2.7l.8-.5 1.3-.8 5-2.7.6-.6q.8-.1 1.4-.6l5-2.8.7-.6q.6-.1 1.1-.6l1.9-1 1.2-.8.5-.6q.8-.1 1.5-.7 1-1.2 2.6-1-.1.8-1 1.5c-57.6 49-115.3 99.7-164.2 157.6l-18.5 22.5q-.9 0-1.5-.8c-19.6-18.8-46-56-74.5-59-.5-1.4-3.5-1.1-4.2.2-24.4 4.8-30.8 32.2-42.7 50q-1.2 0-2.3.5l-74.7 43.1q-1.2.6-2 1.7a184 184 0 0 1-13.4-26.6q1.2 0 2.2-.6l1.2-.8q2-1 3.4-2.5.9-.2 1.6-.8l3-1.7q2-1 3.5-2.6.8 0 1.5-.6 3.4-2 6.4-4.3.9-.2 1.6-.8l3-1.7q2-1 3.5-2.6.9 0 1.5-.7l3-1.7a13 13 0 0 0 3.5-2.6q.7 0 1.6-.6 3.4-2 6.4-4.4a3 3 0 0 0 1.5-.7l1.8-1 1.2-.7q1.9-1 3.4-2.5 1 0 1.6-.7l1.8-1 1.2-.8q1.8-1.1 3.5-2.5.8-.1 1.4-.7l1.9-1 1.2-.8 3.6-2.5q.8-.2 1.4-.8l3-1.7 3.6-2.5 1.3-.8a29 29 0 0 0 6.5-4.2q1-.2 1.7-.8l2.9-1.7 3.5-2.5q.8-.2 1.5-.8l1.8-1 1.2-.7 1.8-1.2 1.2-.8 1-.5 1-.8 1.8-1 1.2-.7a6 6 0 0 1 1.8-1.3q.7-.2 1.2-.7l1-.5 1-.7 1.7-1 1.3-.8q.8-.8 2-1.5l17.3-10.5c.6-.6 2.3-1.3 2.3-2.2a2 2 0 0 0 2.1-1q2.1-.3 3-2.1 1.3.2 2-1c.7 0 4-1 2.6-2q-2.2 0-2.7 2-1.3-.2-2 1a3 3 0 0 0-2.9 2q-1.5-.2-2.1 1-1 0-1.9.6l-19 11q-2 1.5-4 2.4l-1.3.7-.8.6q-.6.1-1.1.5a58 58 0 0 1-7.2 4.1l-1.7 1-1.3.8-.6.5q-.8.3-1.3.8l-5 2.7-.8.6-1.2.6-5 2.9-.7.5q-.8.2-1.3.7l-3 1.7-1 .4-1 .9-5 2.7-.9.6q-.6 0-1 .6l-5.1 2.8-.8.5-1.3.7q-1.8 1.2-3.8 2.1l-1.1.9-5 2.8-.8.6q-.7 0-1.2.6l-5 2.8-.8.6q-.7 0-1.3.6l-6.9 4.1a14 14 0 0 0-3.6 2.2q-.8.1-1.4.7-3 1.4-5.5 3.3-1 .2-1.6.8a38 38 0 0 0-4.9 2.8l-.7.5-1.4.7-4.9 2.9a60 60 0 0 0-7 4l-5 2.8-.7.5-1.3.8q-1.3.6-2.5 1.4a39 39 0 0 1-3.9-8.4q1.2-.3 2.3-.9l78.3-48.9 1.4-.2q1-.8 1.8-2 3-.5 4.9-3a7 7 0 0 0 5-3c.6 0 2.1.1 2-1q2-.2 3-2c.5.1 2.6-.3 1.5-1q-1 0-1.4 1-2.5-.3-3.2 2a2 2 0 0 0-2 1c-1.7.2-4.2 1.4-5 3-1.8 0-4.1 1.3-4.8 3-.6 0-2-.1-2 .8l-1.3.4q-6.5 3.4-12.6 7.2l-69 40c-1.7-1.2-2.7-6.4-4.2-8.3q.5 0 1.1-.3.8-.2 1.2-.8l1.8-1 1.2-.7q3.4-2.2 6.6-4.6.8-.2 1.5-.7l1.7-1 1.2-.7 3.5-2.5q.9-.2 1.6-.7l1.8-1.2 1.1-1q3.5-1.6 6.5-4.2l1.5-.6 3-1.9q1.8-1 3.5-2.4.8-.3 1.5-.8l1.6-1.3 1.5-.6 1.7-1 1.2-.8q1.9-1.2 3.6-2.6.8 0 1.4-.6.9-.7 1.9-1.2l1.1-.9 3-1.7 3.5-2.5q.8-.2 1.5-.8l3-1.7q3.3-2.2 6.5-4.6l1.5-.6q.7-.6 1.8-1l1.2-.8 1.8-1.2 1.2-.8.8-.6 1.2-.7 2-1 1-1a40 40 0 0 0 6-3.7l.9-.6 1.1-.6 2-1.2 1-.8a40 40 0 0 0 6.5-4.3q.8-.2 1.5-.8l1.7-1 1.3-.7a6 6 0 0 1 1.8-1.3l1.2-.7 3.4-2.6a3 3 0 0 0 1.5-.8l2.2-1c1.2-1.2 6.3-3.4 6.6-4.7l1.4-.3q1.1-.6 1.5-2c2 .3 4.1-1.3 5-3 1.4 0 4.6-1.5 5.1-2.9 1 .1 4.2-.7 2.7-2q-2.1.3-2.7 2c-1.9-.3-4 1.6-5 3q-3.2.5-5 3-1.4-.2-2 .7l-1.4.4-13 7.6-.7.5-1.2.7q-1.8 1.2-3.7 2.1l-1.3.7-5 3-.6.5a3 3 0 0 0-1.4.8 32 32 0 0 0-5 2.7l-.8.5q-.8.3-1.2.8l-5 2.7-.8.6q-.7.1-1.3.7l-3.8 2-1.2 1-5 2.7-.6.5-1.4.7-5 2.8-.6.5q-.8.2-1.2.7l-5.1 2.8-.8.6-1.2.6-4 2.2-1 .8q-3 1.4-5.5 3.3l-1.5.7-5 2.8-.7.5-1.3.8a35 35 0 0 0-5 2.8 45 45 0 0 0-5.5 3.4q-.8 0-1.5.7-3 1.4-5.5 3.4l-1.6.6-5 2.8-.6.6-1.3.6-5 2.9a34 34 0 0 0-5.5 3.5l-1.5.6-1.4 1.3q-1.9-4.5-3.1-9.4.8 0 1.5-.5c5-3.7 33-20.4 35.1-23.1 1.6 0 4.7-1.7 5.3-3.2q2 0 2.8-2 1.4.3 2-1c.9.2 4.3-.8 2.7-2q-2 .2-2.7 2-1.5-.5-2 1-2 0-2.8 2-3.4.3-5.3 3.2-1.3-.3-2.5.5l-35.1 20.6q-2-4.4-3.2-9.3 1.1 0 2-.5a5400 5400 0 0 1 56-36.1q.9-.6 1-1.5 2.2 0 3-2 1.4.5 2-1 2 .3 3-1.5c-.8-1-2.9.4-3 1.6-.7-.1-2.1-.1-2 1q-2 0-3 2c-2.5.1-8.4 4.5-11 5.8L19.7 215q-1.5-4.5-2-9.3l1.7-.7A2068 2068 0 0 0 60 178.6q3.8-1.8 7.1-4.2.7-.6 1-1.4c1.4 0 4.6-1.5 5-3 .9 0 4.4-.7 2.5-1.8q-1.8 0-2.5 1.8-3.1.5-5 3-1.2 0-2 .5a62 62 0 0 0-7 4.4l-4.8 2.6L17 202q-2-9.5-2.6-19.2a315 315 0 0 0 31.5-20.6c1.4-.1 4.9-1.7 5.1-3.1a3 3 0 0 0 3-2.1c.5.2 2.9-.3 1.7-1q-1 0-1.7 1-2.1.1-3 2c-1.8-.2-4.2 1.6-5 3.2-2-.3-29.1 15.7-31.6 18q-1-16.7 1.8-33.3a1 1 0 0 0 1-.7q1.1-.2 2-.7l10.9-7.2q.7-.4 1-1.3 2.1 0 3-2 1 .2 1.8-.7c-.5-1-1.5 0-1.9.6q-2.1.3-3 2.1-1-.1-2 .4l-11.7 6.9a40 40 0 0 1 3.6-14.4c1.8.4 38.8-26.2 40-27.8q2.3-.2 3.3-2c.5.1 2.5-.5 1.4-1.2q-1.2 0-1.4 1.1-2.3 0-3.2 2.1c-1.5.1-4 2-5.6 2.5q-16 9.5-32 18.6A121 121 0 0 1 89 55.7l2.2-.4-26 22q.7.6 1.7.3a3759 3759 0 0 1 49.9-29.2c4.4-2.3 33.7-2.7 36.5-.1ZM130.9 51c1 0 6-2.1 4.8-3.3-1.3.2-4.5 1.9-4.8 3.3Zm189.5 8L287 78.4q0-1.2.9-2c5.3-3.9 27.1-17.7 32.5-17.3ZM426 62c-1.1.2-4.8 1.9-5 3q-1 0-2.1.4-2 1.6.4 1.3 1.2-.6 1.7-1.8c1.3.3 4.6-1.6 5-3q1.2.3 1.9-.6c-.6-.9-1.6 0-2 .6Zm43.2 15q0 .9.9.7l2.2 2-.1 1.3q-5.5 3.4-11.2 6.4.2-1.2-.4-2c-1.3.7-4 3-5.6 2.4 2-1.3 12.8-10.9 14.2-10.7ZM461 87.5Zm-6 .4q-.4.9-1.3 1zm4.1.6-1.2.7q.3-.7 1.2-.7Zm-1.2.7-1.7 1q.2-1.5 1.7-1Zm-3.7 2.3-1.1.7a1 1 0 0 1 1-.7Zm33.6 28.7q-.7 0-1.5.5l-24.4 15q-1 1.3-2.7 1.6-.2-1.2.5-2 11.6-11.6 23.4-22.7.9-.7 1.8.2 1.8 3.6 3 7.4Zm-101.7 23q0-.6.4-1c1.5-1.2 7-6.8 8.4-6.9q4.2-1.8 8-4.5 1-.6 2-.1c0 1-4.6 3.2-5.7 4l-11.2 7.8a5 5 0 0 1-1.9.7Zm-216.4-9c.1 0 1.9-.4.9-1q-.7.3-.9 1Zm157 12.9q.7 0 1.2-.7-.8-.2-1.2.7Zm168.4-1c1.4 7.7 2 14.5 1.6 22.2q-1-.5-1.7 0l-5.8 4q-.9.2-1.6.8a50 50 0 0 0-6.4 4.2q-.8.2-1.5.8l-3 1.7q-2 1-3.6 2.6-.8 0-1.3.7l-1.9 1-1.2.7-3.6 2.5-1.4.7-1.8 1-1.2.8q-1.8 1.1-3.4 2.5-.9.2-1.6.7a63 63 0 0 0-6.5 4.3q-.8.2-1.5.8l-1.7 1-4.8 3.2q-.7 0-1.5.7l-2 1.2q-.6.3-1 1l-14.9 9q-.6.3-1.2 1a39 39 0 0 0-6.5 4.2q-.8.1-1.5.7l-3 1.7q-1.8 1.1-3.5 2.5l-1.4.8-1.8 1-1.2.7q-2 1-3.4 2.6l-1.6.6-1.8 1-1.2.8q-1.8 1.1-3.5 2.5l-1.5.8-3 1.7-1.8 1.2-1.2.8-.7.6q-.8 0-1.4.7l-6 3.7q-1.6 1.5-3.8 2.4l-1.1.9-2 1.3a36 36 0 0 0-5.5 3q-.1-1.2.5-2.2 21-27 42.8-53.2l1.5-1.1 1 .2q0 1 1 1l13.1-7.5zm-236.4 2q.8 0 1.2-.6-.8-.3-1.2.6ZM480 166a8 8 0 0 0-5 3c-1.4 0-6.7 2.8-7 4l-2 .6q-2.1 1.4.3 1.2 1-.7 1.8-1.7c1.4 0 6.4-2.7 6.8-4.2a7 7 0 0 0 5.1-2.9c2.6.1 11.5-6 14-7.7q1.7-1-.4-1.2l-12.6 7.6a2 2 0 0 0-1 1.3Zm-135.9 20c-.5-1.6 1.5-1.8 1.7-3.3q.9 0 1.2-.7l24-14.2q1.8-1 3.6-1.4-1.1 1.4-2.9 1.8a8 8 0 0 1-4.9 3.2l-16.9 11.2a38 38 0 0 1-5.8 3.3Zm65.9-11.2-.5 1.2-3.9 4-2-.4.1-.4c1.3-1.9 4.3-3.3 6.3-4.4Zm86.8 0-.2 1-.7.2q.3-.8.9-1.3Zm-.9 1.2q-.2.7-1 .6zm-1 .6c1 .7.4 2.9 1.9 1.4l-1 9.3q-.9-.5-1.8 0l-40.3 24.8q-4.6 2.6-8.6 5.7l-1.3.4q-1.2.6-1.8 1.7c-1.7.1-4.2 1.4-5 3a7 7 0 0 0-5 3c-1.4 0-6.6 3-7 4.1l-2 .6q-2.2 1.4.3 1.3 1.2-.6 1.6-1.9c1.5.2 6.5-2.6 7-4a7 7 0 0 0 5.2-3c1.7-.1 4.3-1.3 5-3q1.3.3 1.9-.8l1.2-.2q4.8-3 9.9-5.8 20-11.7 40.2-23.2c-.2 4-.5 8.5-2.2 12.2q-1.3 0-2.2.7l-1.2.8-.8.5-1.2.8-3 1.7-3.5 2.5-1.5.8-3 1.7q-2 1-3.4 2.6a2 2 0 0 0-1.6.7 31 31 0 0 0-6.5 4.3q-.9.2-1.6.6-.7.7-1.7 1l-1.2.8-3.6 2.5-1.4.7-1.8 1-1.2.8q-2 1-3.4 2.6a21 21 0 0 0-8 5q-1 0-1.6.7l-3 1.7q-2 1.2-3.6 2.6l-1.5.6-1.7 1-1.2.8q-2 1.1-3.6 2.5-.8.2-1.4.8l-3 1.7q-1.8 1.1-3.5 2.5-.8.1-1.5.7l-1.8 1-1.2.8-3.5 2.5q-.8 0-1.5.7-.9.7-1.8 1l-1.2.8q-1.7 1.5-3.6 2.6l-1.8.6q-6 4-12.3 7.7-.7.5-1 1.3a8 8 0 0 0-5 3q-2.4 0-3 2a2 2 0 0 0-2 .7c.6 1 2.1.3 2-.7q2-.2 3-2a7 7 0 0 0 5-3q1.1.2 2-.4l14-8 .8-.8q.8 0 1.5-.7l3.5-2.3q.9 0 1.5-.6l5-2.8.8-.6 1.2-.6 3.7-2 1.3-.8.8-.5q.6-.2 1.1-.7l1.9-1 1.2-.8.7-.2 1.3-.8 5-3 .5-.5 1.6-.7 10.6-6 1.3-.8.6-.5q.8-.2 1.3-.7l1.9-1 1.2-.8.6-.5 1.5-.7a35 35 0 0 0 5.4-3.4l1.6-.6 5-2.8.7-.5 1.2-.7a151 151 0 0 0 12-7q3-1.4 5.6-3.3l1.4-.7 3.7-2 1-.2c0 3.2-1.7 9.3-3 12.4q-1.2 0-2 .6l-1.3.8-3.9 2.3-1 1-11.1 6.7q-1.9 1-3.5 2.6-.9.1-1.6.7l-1.7 1-1.2.7-3.5 2.5-1.5.7q-1 .7-2 1.1l-1 1-1.8 1-1.2.7q-1.9 1.1-3.5 2.5-.9.2-1.5.8l-1.8 1-1.2.7q-1.8 1.1-3.5 2.5-.9.2-1.6.8l-2.9 1.7-1.8 1.2-1.2.8-.7.6q-.8.2-1.4.7l-1.8 1-1.1.9-1.8 1-1.2.8a11 11 0 0 0-3.4 2.6q-1 0-1.7.6l-1.7 1-1.2.8q-1.9 1-3.5 2.6l-1.5.6-3 1.9-3 2-.8.5-1.1.7-2 1-1.1 1-3 1.7q-1.7 1.4-3.6 2.6l-1.5.6-1.9 1.4q-7 4-13.7 8.4-.7.4-1 1.3c-1.5-.1-4.5 1.5-5 3q-2.4-.3-3 2a2 2 0 0 0-2 .7c.6 1 2.2.2 2-.8q2 0 3-2a7 7 0 0 0 5-2.9q1.1 0 2-.5l14.1-8q1.7-1.7 4-2.5.7-.2 1.2-.7l.6-.6q.8 0 1.3-.5l5.1-3 .8-.5q.8 0 1.3-.6l5-2.8.6-.6q.8 0 1.3-.6l5-2.8 5-3 .6-.6 1.4-.6 3.8-2 1.2-.8.7-.5 1.3-.7 5-2.8.8-.6q.6 0 1.2-.6l4-2.2q.6-.3 1-1a20 20 0 0 0 5.4-3.1q.9-.2 1.6-.8l5-2.7 1-.5 1-.8 5-2.7.7-.5q.8-.3 1.3-.7 2-.9 3.4-2.5a28 28 0 0 0 7-4q.9 0 1.6-.5l3.8-2 1.2-.8.8-.6 1.2-.7 3.7-2q-2.2 7.1-4.9 14.1l-.8.2-1.6.6-1.7 1-1.3.9q-3.3 2.3-6.9 4.3l-1.1.8-1.8 1-1.2.8-3.6 2.5q-.8.2-1.4.7l-2 1.2-1 1-3 1.6q-1.8 1.1-3.5 2.5-.9.1-1.4.8-1 .4-1.8 1l-1.3.7a63 63 0 0 0-6.4 4.5q-1 .2-1.7.7l-1.7 1-1.2.8-1.8 1.2-1.2.8-5 3.2-3 1.8-3 2-.8.5q-.6.2-1.3.7-.9.8-1.9 1.2l-1 .8-1.8 1-1.2.8q-1.9 1-3.5 2.6-.8.2-1.4.7l-1.9 1-1.2.7-1.8 1.2-1.2.8q-2 1-3.4 2.6-1 0-1.6.7l-1.8 1-1.2.7-1.8 1.3-1.2.7-3.5 2.6-1.6.7-1.9 1.1-6.2 4q-.3.2-.3.7l-1.6.2-1.7 2q-3 .5-5 3c-1.3-.2-4.6 1.8-5 3q-2-.2-2.8 1.6c1 .9 2.5-.7 2.9-1.6q2.3 0 4-1.7.6-.4 1-1.3c1.6 0 4.5-1.3 5-3q1.3.3 2-.9.8 0 1.4-.3l13-7.5.7-.6q.6 0 1.2-.5l1.8-1.2q.6-.2 1.3-.7l1-.3 1-.8 4.9-3 .5-.5q.8 0 1.5-.6l5-2.8.8-.6 1.2-.7 3.7-2q.8-.2 1.3-.7l.6-.5q.9-.2 1.4-.7l1.8-1 1.2-.8.5-.5q1 0 1.6-.7l5-2.8.5-.6q.8 0 1.3-.6l5.1-2.8.8-.6 1.2-.6 5-2.8q2.8-1.5 5.5-3.5.8 0 1.4-.7 3-1.3 5.5-3.4.9-.1 1.6-.7l5-2.7.7-.6q.8-.1 1.2-.7l5.1-2.7q3-1.6 5.5-3.5.9 0 1.5-.7l.6-.2q.2 1.2 1 2.1c-1.7 3.7-2.7 7.7-5 11.2a18 18 0 0 0-3.5 1.6l-27.7 17.4-10.7 6.5q-.7.4-.9 1.1l-1.4.2q-1 .8-1.7 2c-1.9-.2-4 1.5-5 3-1.8 0-4.3 1.4-5 3q-1.5-.3-2 1-1.9.3-3 1.6c1 1.3 3.2 0 3-1.6q1.4.4 2-1 3.2-.4 5-3a7 7 0 0 0 5-3q1.3.3 2-.7l1.4-.4q6.3-3.9 12.7-7.4.6-.8 1.4-1.3 13.5-7.4 27-15.2-3.6 8.3-7.9 16.2-.7-.4-1.7 0l-55.3 35q-1 .6-1.6 1.7c-1.9.1-4.2 1.4-5 3.2-1.8-.2-3.9 1.3-5 2.5.9 1.5 4.4-1.6 5-2.5 1.7-.3 4.4-1.5 5-3.2q1 .2 2-.4l9-5.2 43.9-25.5c-.3 3.8-7.1 13.8-9.3 17.5q-1.2-.4-2.3.5l-63.3 41q-.6.3-.7 1.2l-1.6.1q-1 .7-1.7 2c-1.4-.3-4.7 1.6-5 3q-2.3 0-3 1.9a2 2 0 0 0-1.9.7c.6 1 1.9 0 1.9-.7q2.1 0 3-2 3.3 0 5-3 1.4.3 2.1-.7l1.3-.7q30.3-17.2 60.5-34.9a136 136 0 0 1-14.7 21.4q-1.2-.2-2.2.3l-42.4 27.8c-1.5 1.3-7.2 4-7.4 5.8-1.8-.2-4.7 1.5-5.2 3q-2.3 0-3 2-1.2-.2-1.9.7c.6.9 1.8.1 1.9-.7a4 4 0 0 0 3-2 8 8 0 0 0 5.2-3c1.7.1 6.9-3.4 8.5-4.4q17.3-9.8 34.2-19.8l1 .3c-.7 2.9-21.3 25.6-23 26a1 1 0 0 0-.7 1.1q-1.2-.2-2.2.4-13.7 9.4-27.5 18.4a1 1 0 0 0-.3 1q-2.4 0-3.2 2-2.2-.3-3 1.6c1 1 2.5-.6 3-1.5q2.1-.1 3.2-2.2l1.9-.2q5.3-3.6 11-6.6 0 1.5 1.3 2.3c-10.2 9-20.9 18.3-32.4 25.5q-.7.3-.7 1-4 3-8.3 5.5a2 2 0 0 0-1.3-.3q-19.2 10.8-38.1 22-.4.3-.3.8l-4.2 2.4q-.6 0-1.1-.3c-1 .7-4 1.4-3.7 2.8-6.2 1.9-31.7 16.2-36.5 10q29.2-19.5 58-39.5 2.2-.4 3.2-2.3c.8.3 4.1-1 2.5-1.8q-2 0-2.5 1.8-2.5 0-3.1 2.3h-2c-20.2 12.3-42 24.3-62.6 36.3q-1 .4-1 1.2c-1.7.2-12.2-2.4-12.2-3.8q30.7-20 61.1-40.2l11.8-7.5a2 2 0 0 0 1-1.1q2-.3 3-2.3 1 .3 1.9-.6c-.6-.9-1.6 0-2 .6q-2.1.3-3 2.3-1-.2-2 .3l-11.6 6.8-66.3 38.3q-.7.5-1 1.1-5-1.1-9.8-3.4-1-.3-1-1.4c1.5-.2 5.3-3 6.5-4.1q1-.2 1.6-.8l2-1 1-1 1.7-1 1.2-.8q5-3 9.6-6.4.8-.1 1.5-.7.8-.6 2-1.1l1-1 3-1.8q4.8-3 9.5-6.5.9-.2 1.5-.7l2-1 1-1 1.8-1 1.2-.7 1.8-1.2 1.2-.8 3-2q2-1.1 3.6-2.5l1.3-.8 2-1 1-1 1.9-1 1.2-.7 1.8-1.2 1.2-.8 3.7-2.6q.6 0 1.3-.5l1.5-1.5q.8 0 1.5-.6a5 5 0 0 1 2-1.1l8.7-5.7q.7-.4 1-1.3 2 0 3-2c.5.2 2.9-.3 1.6-1.1q-1.3-.1-1.6 1a4 4 0 0 0-3 2c-2.1 0-9 4.6-11 5.8q-2 1.2-3.8 2.6l-1.5.5q-1.7 1.5-3.8 2.2l-1.2.7-.8.5-1.2.7-10 5.8-.8.5-1.3.8a129 129 0 0 0-12 6.7l-.7.5-1.3.7q-1.8 1.2-3.8 2.1-.7.4-1 1a39 39 0 0 0-5.1 2.7l-.7.5q-.8.2-1.4.7l-5 2.8-.7.6q-.8 0-1.3.6a41 41 0 0 1-5 2.8l-.7.6q-.6 0-1.1.6-2 1-3.6 2.3-.8.2-1.4.8-3 1.3-5.7 3.3-.8.1-1.4.6l-5 2.8-.7.5-1.1.6-1 .6q-5.3-1.9-10.1-4.7 1-.7 2.3-1l63-39.7a5 5 0 0 0 2-1.8l1.2-.3c1.7-1.1 5.8-3 6.6-4.8.8 0 2.2 0 2.1-1.1q2-.2 3-2a9 9 0 0 0 5-2.6c-.8-1.3-5 1.6-5 2.6q-2.3 0-3 2-1.5-.2-2 1-2.5.6-4.6 2-1.5.6-2.3 2h-1.4l-1.7 1.6q-1.5.5-3 1.4l-64.4 37.2q-1 .4-1.5 1.5-5.4-2.4-10.3-5.6 1.5-.2 2.9-.8l58-36q1.5-.8 2.2-2.2c.8 0 2.2 0 2-1.1q2.1 0 3-2c.7 0 2.2.2 2.1-1 .7 0 4-1 2.6-2q-2.3 0-2.6 2-1.4-.2-2 1-2.4 0-3 2-1.5-.3-2 1.1-1.2 0-2 .4l-14 8.2-48 27.8q-.9.6-1.2 1.5-3.9-2.2-7.8-4.7-.8-.4-.9-1.3l2.2-1 1-1 3-1.7a15 15 0 0 0 3.4-2.6q.9 0 1.6-.6t1.8-1l1.2-.9q3.3-2 6.4-4.5.9 0 1.6-.7l1.7-1 4.9-3.3q.8 0 1.4-.7l1.5-1.3q.8 0 1.5-.7a30 30 0 0 0 6.4-4.3q1-.2 1.6-.7l2-1 1-1 3-1.7 5-3.3 2-1 1-.9q3.5-2 6.5-4.4l1.5-.7 3-1.8 3-1.9q1.9-1.1 3.5-2.5.8-.2 1.4-.8a22 22 0 0 0 4.9-3q.6-.2 1.2-.7l.8-.7a2 2 0 0 0 1.2-.6l2-1 1-1 1-.4c.4-.2 2-.6 1.5-1.3 4-.5 15.4-8.3 16.4-11.5q1 .6 1.8-.4-.3-.7-1.2-.6 38.3-51 76.7-101.8.7-.9 1.8-1.3l15-8.5.8-.5 1.1-.6q.9-.7 1.9-1l1.2-.8.6-.6q.8 0 1.5-.7l5-2.7.5-.6q.8 0 1.4-.6l3.7-2 1.3-.8 2-1.2 3.7-2.1 5-3q.8-.2 1.3-.7l.8-.4a22 22 0 0 1 5-2.8l1.2-.8.8-.6 1.2-.6 5-2.8.9-.5 1-.7q2-1.2 4-2l1.1-1q3-1.4 5.5-3.3l1.6-.7 5-2.8.6-.6q.8-.2 1.3-.7l5-2.7.8-.6q.6-.2 1.1-.7l4-2 1.1-1q3-1.4 5.5-3.2l1.6-.7 5-2.8.7-.5q.6-.2 1.1-.8l5.1-2.7.6-.6q.8-.2 1.4-.6 2-.9 3.4-2.4 1 0 1.7-.7 3-1.3 5.4-3.3.8-.1 1.5-.7l5-2.7.8-.6q.8 0 1.2-.7zm-91.3 3q.3 1-.8 1.1 0-1 .8-1ZM181 212c1.6-.4 6.2.6 7 2-1.3 1.7-8.5 5-10.6 6.4-2.9-2 4-1.8 2.2-4q-1.2.6-2.7.5zm-4 5q-.3.7-1 1 .4-.7 1-1Zm-1 1q-.1.7-1 1zm1.4 2.4-1.2.7q.3-.7 1.2-.7Zm19.1-.6q3.2 2 5.6 5-8 4.1-16 8.5l.5-1.2c1-1.5 4-2.8.4-3.3a156 156 0 0 0 9.5-9Zm165.6 7c3 .2.7 2 .1 3.5q-1.5-.7-1.7 1-.9 0-1.4.8l-.5.3q-1 0-1.3.8l-2 1.2q-.8 0-1.2.6a517 517 0 0 0-21 12.5l-7.8 4q-.5.2-.8-.2 13.8-8.6 27.3-17.6.9 0 1.2-.8l2-1.3q.8 0 1-.7 1.6.4 1.8-1.2 1 0 1.3-.8 1.6.6 1.7-1.2 1 0 1.3-.8Zm-175.1 2q-.3.9-1.1 1zm-1.1 1q-.2.9-1.1.9zm22 2c2.4-.7 2 1.3 1.6 2.6q-1-.2-1.3.7l-2.3 1.3q-.4 0-.8.4l-11.5 6.7q-.3-.8.3-1.3 6.1-4 12-8.7.7 0 1-.8 1 0 1-1Zm-21.7 1.5-1.3.8q.4-.7 1.3-.8Zm-1.3.8-1.6 1q.3-1.5 1.6-1Zm107.5 6.3-1.3 2.4c-1.6 1.1-4.9 3.8-6.7 4.1 1-2 3.7-4.5 5.4-6.1zM151.2 248a10 10 0 0 1 2.8-4.3l2.7-1.5q2.3-.2.4 1.3a60 60 0 0 1-5.9 4.5Zm-16.8 6.9c-6.1 15.4-4 20.8 7.7 31.2q-.9-.1-1.8.4-33.4 19.3-66.6 38.8Q65.1 313.7 58 301q1 .1 2-.4zm97.6 1.6q1 1 1 2.3l-.7.4-9.7 5.6c-1 .8-1.9 2.2-3.3 1.4q0-.6.6-.9l10-7.6zm-82.8 10.6q-1 0-1.1 1l-2.2 1.1q-1.3-.8-.9-2.3l.7-.3q.9 0 1.3-.7l9.6-6q1-.7 2-.4-1.6 1.2-2.7 2.8-3.6 2-6.7 4.8Zm186.8-7.4q1 .2 1.7.6-1.2 1.5-1.5 3-2.3-.5-3 1.8l-2 1.1q-.8 0-1.2.7-9.4 5.3-18.4 11-1.9.6-3.5 1.6-.5.3-.8-.2l20.5-13.9q1 .2 1-.7.9 0 1.2-.8l.6-.4q.9 0 1.2-.8.9 0 1.2-.8 1.6.3 1.7-1.3.9 0 1.3-.9ZM96 263q-2.2 0-3 2-1.4-.5-2 1-2.2-.2-3 1.8-1.4-.2-2 1a7 7 0 0 0-5 3.2 7 7 0 0 0-5 2.9 4 4 0 0 0-2 .4l-15.4 8.8c-1.6 1.1.4 2.2 1.5 1.2l15-9q.8-.6.9-1.4c1.8.2 4-1.5 5-3a7 7 0 0 0 5-3q1.5.4 2-1 2.1-.1 3-2 1.4.2 2-1 1.9-.3 3-2a2 2 0 0 0 1.9-.7c-.6-1-1.7 0-1.8.8Zm57.8 15.3-1.1-1.4q4.7-2.6 9.2-5.8 1.2-.8 2.6-.8l-1.5 1.8q-.7.2-1.3.6c-2.2 1.7-5.5 4.5-8 5.6Zm92.6 2q-.9 0-1.3.8l-2 1q-.8 0-1.1.8l-7.7 4.7q-.6 0-1-.3l11.5-9.6q1 0 1.1-1l1-.8a5 5 0 0 0 4-1.1c1.7 1.4-1 2.5-2.2 2.3q-2.4.9-2.3 3.2ZM53 277.1c-1.2 0-4.1 1-4.3 2.4 1 .8 3.7-1.4 4.3-2.4.6 0 2.6-.4 1.5-1.2q-1 0-1.5 1.2Zm123.3 13.1q-.9.3-1.2 1c-2.9-.1-2.2-.8-1.5-2.6q.9 0 1.3-.7l13-7.5.7.1q-6 5-12.3 9.7Zm87 10q-1 0-1.3.8l-.6.4q-.9 0-1.2.8-.8 0-1.2.9l-.5.4q-1-.2-1.2.8-.9 0-1.2.9c-1.5-.5-3.7-.2-2.8 1.9l-2.2 1.4c-4.7-1.7 1.4-1.7.8-4.6l.9-.5q2.7 1.3 3-1.7 1.7.6 1.8-1 1 0 1.3-.8l.6-.4q.9 0 1.3-.7l2-1.2q.9 0 1.2-.6 8.3-4.8 16.5-10c.8-.1 3.5-2 4-1.6q-10.5 7.5-21.3 14.8Zm-119.4-13.5c2.3 1.7 9.8 5.6 11.2 7.5a3 3 0 0 0-1.8.5l-72 41.7c-1.4-2-4.7-5.5-5.3-7.7a2 2 0 0 0 1.7-.4l64.4-39.7zm105 2.2a1 1 0 0 1-1 .7zm-1.8 1.2q-.4.6-1 .6zm4 .3-1 .7q.3-.7 1-.7Zm-5 .3q-.5 1.6-2 1.3zm-2 1.3q-.4.6-1.2.7zm4 .3-1.2.7q.4-.6 1.2-.7Zm-44.8 10q-1 0-1 1-1 0-1.1.9-1 0-1.2 1-1-.1-1.7-.7c.8-1.6 2.5-1.8 2.3-3.9q.9 0 1.3-.7 5-2.8 9.6-6 1-.6 2.2-.2zm39.6-9.6q-.4 1.7-2 1zm4 .3-2 1.2q.5-1.5 2-1.2Zm-6 .8q-.8 3-3.9 2zm4 .4-1 .8q.3-.7 1-.8Zm-1 .8-1.9 1.2q.3-1.5 1.8-1.2Zm-6.9.9-.2 1.4a12 12 0 0 0-2.5 2.1q.8.8 1.8.9a786 786 0 0 1-27.2 18c-1-.6-4.6-2.8-4.7-4q16.6-9 32.8-18.4Zm5 .3Zm-58 1 1 1q-.5 1-1.1 1.6a4 4 0 0 1-1.9-1.6zm57-.2-3 2q.1-2.8 3-2Zm-160 2q-2.5-.3-3 2-1.2-.3-2 1c-1.7.2-4.2 1.3-5 3-1.3 0-4.5 1.5-5 2.7.8 1.2 4.5-1.7 5-2.7 1.7-.1 4.4-1.4 5-3q1.5.4 2-1 2.1-.3 3-2a2 2 0 0 0 1.9-.7c-.6-.8-1.7 0-2 .6Zm157 0-2 1.3q.4-1.5 2-1.3Zm-68.2 4.9q9.3 6 18.3 12.5 1 .6.7 1.7-4.6 2-8.8 4.9a8652 8652 0 0 0-74 42.8c-1.5.1-6-5.1-6-6.8l10.4-6.1 13-8q.5-.3.4-.8l1.6-.1a5 5 0 0 0 1.6-2.1c1.8.3 4.3-1.3 5-3 1.8.2 4.3-1.3 5-3 .7.2 2.2.2 2-.9 1.7-.3 4-1.4 5-3q2.1 0 3-2 1.2.1 2-1c1 .3 4-.8 2.6-1.9q-2 0-2.5 2c-.8-.2-2.2-.3-2.2.9q-2 .2-2.9 2c-1.5-.3-4.4 1.6-5 3q-1.4-.2-2 1-3.2.4-5 3-3.2.4-5 2.9-1.4-.1-2 .9l-1.4.4-24 14q-.3.2-.5.7c-1.6 0-6-5.6-6.2-7.2q24.9-14.7 49.2-30l11.4-6.7q.4-.4.4-.9l1.3-.1c5.9-2.5 8-8.3 14.6-9.1Zm-97 11.4c2.4-.7 5.2-2.4 7-4-.4-1.1-6.8 2.4-7 4Zm117.4 3.5c6.4 3.8 12.5 9.5 18.2 14.3-.3 1-2.7 1.2-3.6 2q-.7.3-1 .9a37 37 0 0 0-5.1 2.7l-.7.5q-.8.3-1.3.7l-3.8 2-1.2.8-.8.6a63 63 0 0 0-6.2 3.5q-.5 0-.8.4l-1.2.7q-1.8 1.2-3.9 2l-1 1q-3 1.4-5.7 3.3l-1.5.7-5 2.8-.6.5q-.8.2-1.4.8a72 72 0 0 0-10.4 6.2l-1.5.8q-3 1.4-5.5 3.2a65 65 0 0 0-8.6 4.7L134 376l-1.2.7q-3 1.5-5.6 3.6l-1.6.6a9 9 0 0 0-3.6 2.5c-1.6-1.6-5.3-4.5-6-6.5q8.3-5.6 17-10.7a2 2 0 0 0 1-1.2q3-.6 5-3 3-.6 5-3c1 0 8-3.1 6.5-4.2-1.5.8-6.2 2.5-6.5 4.2-1.8-.2-4.1 1.5-5 3-2-.3-4 1.5-5 3h-1.5q-7.8 4.7-15.9 9.2l-1.7 1.6c-2.4-1-5.3-4.9-6.8-7.1q.9.2 1.6-.3l70.6-43.6q.5-.3.5-.9c3.4-.8 6.4-3.4 9.4-5.1Zm20.9 16.9a134 134 0 0 1 18.2 18.3l-1.3-.1-1.3.8-.8.7q-.7 0-1.2.5l-3.8 2-1.2.8-.7.6q-.8.2-1.3.7l-3.7 2-1.3.7-5 3-.6.6q-.8 0-1.4.7l-5 2.7-.8.5-1.3.7-5 2.8-.6.6-1.2.6-8.9 5-1.3.8-.8.4-1.2.8a74 74 0 0 0-7 4l-5 2.8-.6.6q-.8.1-1.3.6l-3.9 2.2-1.2.9q-2.8 1.4-5.5 3.2-.8.2-1.4.7l-5 2.8-.9.5-1 .8c-1 .4-2.7.9-2.6 2.1a32 32 0 0 1-7.6-6.4l64.4-39.4q.7-.4 1-1.3a8 8 0 0 0 5-3 7 7 0 0 0 5-3c1.7.3 3.8-1.6 5-2.6-.8-1.3-4.8 1.7-5 2.5-1.7.3-4.3 1.4-5 3a7 7 0 0 0-5 3.1q-1-.1-2 .4l-21 12.2q-.7.8-1.6 1.2-20.8 11.7-41.5 23.7-.9.6-.6 1.6c-2.2-.5-6.6-5.4-8.6-7h1.3l1.3-.8a12 12 0 0 0 3.4-2.7q.8 0 1.5-.5l1.9-1 1.2-.8q1.8-1.1 3.5-2.5.8-.2 1.5-.8l3-1.7 3.5-2.5 1.5-.7 3-1.9 3.6-2.4q.8-.2 1.4-.7l3-1.9q3.3-2.2 7-4.3.5-.3 1-1l7-3.8 1-1 7-4.1 1-1a41 41 0 0 0 6.4-4.3 3 3 0 0 0 1.6-.6l1.8-1 1.2-.8q1.9-1 3.5-2.6.8-.2 1.5-.7l3-1.7q2-1 3.4-2.6.9 0 1.6-.6zm49 4.3q-.4.8-1.2.7zm-1.2.7q-.3 1.5-1.8 1.1zm-1.8 1.1q-1.7 3-4.7 4.8l2.6.5-8.2 7.2a52 52 0 0 1-4.6-5c4.5-1.2 10.4-5.4 14.9-7.5Zm1.1 2.7-1 .8q.3-.9 1-.8ZM302 346q-1.5-.2-2 1.1a3 3 0 0 0-3 1.8c-1.4.2-13 5.5-10.3 6.8.9 0 10.2-5.5 10.3-6.8a3 3 0 0 0 3-1.8q1.4 0 2-1c.7-.1 4-1.1 2.6-2q-2 0-2.6 2Zm-44.7-.7-1.1.9q.2-.9 1-1Zm-1.1.9-1.2 1q.3-1 1.2-1Zm-26.3 8.7q4.5 5 9.4 9.4l-4.6 2.4-.7.6q-.8.2-1.4.6l-3.7 2-1.2.8-.8.5-1.2.6-5 3-.7.4-1.4.7-1.7 1-1.3.8-.8.4-1 .9a25 25 0 0 0-5.1 2.7l-.8.5-1.2.6-5 3-.8.5-1.2.6-5 2.8-6 3.3-1 .9q-3 1.3-5.5 3.4-.9 0-1.6.7l-5 2.7-.6.6q-.8 0-1.3.6l-5 2.8q-2.8 1.5-5.5 3.5-.8.2-1.4.7l-5.1 2.8-.7.6c-2.9-1.2-6-4.2-8.4-6.2a4 4 0 0 0 3.3-1.4l1.5-.7 2.9-1.7 3.6-2.5 1.4-.7q.9-.7 1.8-1l1.2-.8a44 44 0 0 0 5-3.3l3-1.7 3.5-2.5q.8-.2 1.5-.8a30 30 0 0 0 6.6-4.3q.8-.2 1.4-.6l1.8-1 1.2-.8q1.9-1.1 3.5-2.6l1.5-.6 1.8-1 1.2-.8q1.9-1 3.5-2.6.8 0 1.4-.7l3.1-1.7q2-1 3.5-2.6.8 0 1.5-.7l3-1.7q1.9-1 3.5-2.6.7 0 1.5-.7l1.8-1q.6-.2 1.2-.7 2-1 3.6-2.6.8-.1 1.4-.7l1.8-1 1.2-.7c.8-.7 2.6-1.2 2.6-2.4Zm28 6.7q-1.5-.2-3.1-.8c.5-1 6.2-4.2 7.7-4.7q.3 0 .4.3a39 39 0 0 1-5 5.2Zm-17.2 4.4a38 38 0 0 0 16.7 5.3q-.7.6-1.7.8l-1 .6-5 3-.6.5q-.8.2-1.4.7l-5 2.8-.7.6-1.3.7a36 36 0 0 0-5 2.8l-.8.5-1.2.6-3 1.8-1 .4-1 .9a45 45 0 0 0-7 4l-5 2.7-.8.6-1.2.6-5 2.8a36 36 0 0 0-5.4 3.6q-1 0-1.6.7-3 1.3-5.5 3.2-.8.2-1.4.8a62 62 0 0 0-7.1 4 146 146 0 0 0-12.1 7q-3 1.3-5.5 3.3-.7 0-1 .8c-3-.8-7-4.2-9.5-6q1.9 0 3.5-1l1.2-.8q2-1.1 3.5-2.7.9 0 1.5-.5 1-.8 2-1.1l1-1q3.5-1.9 6.6-4.2l1.4-.7 1.8-1 1.2-.8q2-1.1 3.4-2.5a3 3 0 0 0 1.6-.7l1.8-1 1.2-.8 5-3.2 2-1.2 1-.9c1.8-1 5.3-2.8 6.4-4.3l1.6-.7 1.8-1 1.2-.7q1.9-1 3.5-2.6.8 0 1.6-.6l1.7-1 1.2-.8q3.3-2.4 7-4.3l1-1 1.8-1 1.2-.7a26 26 0 0 1 4-2.4l1-.9 3-1.7c.7-.7 2.6-1.2 2.4-2.3Zm147.4 19q-.5.6-1.2.7zm-2 1q.5 0 .8-.3 0 .6-.6 1-.3-.2-.2-.6Zm-1.8 1.2.7-.4q0 1-1.1.9zm.8 1.8-1.9 1.6q-.2-2.1 2-1.6Zm-1.9 1.6-.8.7q-.4-1.3.8-.6Z"/><path fill="#a5e076" stroke="#a5e076" stroke-width=".5" d="m483.1 65.2-.4.8-13 10.3q-.6.2-.5.8c-1.4-.2-12.1 9.4-14.2 10.7l-1.3 1c-3.8 2.7-7.8 6.4-12 8.5q-.7.4-.3 1.2 1.2-1 2.6-.8 4.5-3 9-5.6l1.2-.7 2-1.3 1.7-1 1.2-.7.9-.5 1-.5q5.7-3 11.2-6.4.6-.3.7-1c3.3-.4 14-7.8 17.8-9.6q1-.5 1.1-1.5c3.3 1.8 4.4 6.7 4.4 10.2-2.3-.8-14.2 9-17 10.6q-3 1.5-5.5 3.4-.8.7-.9 1.8l-.5.3q-1.2 0-.9 1.2c-.7-.4-2.3-.5-2 .9q-1-.2-1.7.4t-1 1.4h-.5q-1.1 0-1.4 1.1-.9.1-1.5 1-1.1 0-1.6.9l-1.5.9a3 3 0 0 0-1.6 1.2q-12 7.6-23 16-1.9 0-2.5 1.6c-1 .4-2.7.7-3 1.8 1 1 2.7-.7 3-1.8q2.4.3 3.7-1.6a2916 2916 0 0 0 56-32.5l1 .2c-5 8.1-26 25-33.6 33.4l-1.5.1q-6.5 3.9-12.8 8.1-.6.6-.8 1.3c-1.9-.1-7.4 3.6-8.2 5.2q-1.5-.4-1.9 1c-1 .3-2.7.6-3 1.7 1 1.5 2.5-1 3-1.8q1.4.4 2-.9c1.7 0 5.3-2.7 7-3.5q1-.6 1.1-1.7c3 0 5.8-3 8.7-4q0 1-.7 1.8-22 22.8-43.1 46.2c-2 1-5 2.5-6.3 4.4q-1-.1-1.7.5-8.4 5.6-17.1 10.7a1 1 0 0 0-.6.9 2 2 0 0 0 1.8.1q7.6-4.8 15.6-9.3.7-.6 1-1.4 1.1 0 1-1 1-.1 2 .4-16.8 20.3-33.7 40.2l-10 6.6-1.3.8-1.7 1.2-1.3.8-1.7 1.2-1.2.7-1.9 1.3-1.2.8q-13.5 9-27.3 17.6.3.4.8.3l7.8-4.1q10.4-6.5 21-12.5l1.2-.6 2-1.2 1.3-.7.5-.4 1.4-.7 1.7-1 2.1-.6a213 213 0 0 1-18 23.4c-2.6.8-7.6 5-10.2 6.6l-1.3 1-1.7 1.1-1.2.9-1.2.8-.6.4-1.2.8-1 .7-20.5 14q.3.4.8.1 1.6-1 3.5-1.5 9-5.9 18.4-11l1.2-.8 2-1.1 3-1.7q1.5-1 3.4-1.5c-21.8 29.9-44.8 58.8-65.8 89.3-4.6 5-8.5 10.1-16 10.3q3-2.4 5-5.2l-.2-.4c-1.6.6-7.2 3.7-7.8 4.8-3-1.1-6.7-3.7-8-6.5l8.2-7.2 1.2-1 1-.8 1-.8q6-5 12.2-9.7l1.1-1.4a2 2 0 0 0-1.5.3l-13 8.1c-4.4 2.1-10.3 6.3-14.8 7.5l-5.5-6 6.8-4.9c1-.3 4.2-1.8 3-3.2a129 129 0 0 0-10.7 6.9l-14.2-13c3.2-2.3 17.6-11.8 19.2-13.8q5.4-3 10.3-6.8l2.2-1.4 2.8-2 1.2-.8 1.2-.8.5-.4 1.2-.9 1.2-.8.6-.4 1.2-.8 21.4-14.8c-.5-.5-3.3 1.5-4.1 1.6q-8.2 5.2-16.5 10l-1.2.6-2 1.2-1.3.7-.5.4-1.4.7-1.7 1-3.1 1.8-.9.5q-17.8 10.4-35.8 20.4-3.8-2.8-7.2-6a786 786 0 0 0 35-23.3l1-.8 2-1.2 1.2-.7 2-1.2 1-.7q9.9-6.7 19.9-12.8 4.2-3.3 8.6-6.1-.4-.4-.8-.2l-4.4 2.5a578 578 0 0 1-25.5 15.1l-1 .7-.8.5-1 .6-2 1.3a51 51 0 0 1-7 3.8q-16.4 9.6-33 18.5a35 35 0 0 1-8-6l4-3.1 1-1 1.1-1 1.1-.9 10.4-8.6q-1.2-.6-2.2.3l-9.6 5.9-1.3.7-8.7 4.9-8-5.7q.7-.7 1-1.6 1.2-.2 2.1-.8l7.6-6c-1.6-1-2.4.3-3.6 1.3l-5.5 3.2q-.8.6-1.5 1.4l-2 .9q-4.2-2.4-8.3-5.2.6-1 1.4-1.7l1.2-1 12.3-9.8h-.8q-6.4 3.5-12.9 7.4l-1.3.7q-1.7 1-3.6 1.7l-17-11q.6-.1.8-1c2.5-1 5.7-3.8 7.9-5.5l1.3-.6 1.5-1.8q-1.5 0-2.6.8a94 94 0 0 1-10.7 6.8c-2.7-.7-5.8-4.2-6.8-6.8q1-.7 1.5-1.9a13 13 0 0 0 3.3-2q3-3 6.7-5 1.2-1.6 2.8-2.7-1.2-.2-2.1.4a255 255 0 0 1-13.4 8c-.3-7.2 3.8-14.3 8-19.9q3-2 6-4.5 1.8-1.6-.5-1.3l-2.7 1.5c4.7-8.4 15.2-32.8 26.9-31.8l-4 5q-.6.3-1 1l-1 1-4.2 4.3q-1.3 1.5.6 1.3 2.3-2 4.8-3.5l1.2-.7c2.2-1.4 9.3-4.7 10.6-6.4 3 .9 6.5 3.5 8.5 5.8a156 156 0 0 1-9.5 9l-1.1 1-1.1.9q-5.1 4.6-10.8 8.7-1.2 1.3.4 1.2l10.5-6.5 1.3-.8q7.8-4.5 16-8.5l7.2 5.2q-.6 1-1.4 1.7l-1.2 1-.9.8q-5.8 4.7-12 8.7-.6.6-.3 1.3a223 223 0 0 0 12.3-7l2.3-1.4 1.3-.7q1.4-.8 2.7-1.3c1.7.6 5.6 5 6.8 6.7q-1 .2-1.8 1.1l-8.7 6q-.2 1 .9 1 4.7-3.1 9.8-5.8.7-.3 1-.9 7 6.9 13.1 14.4a2 2 0 0 0-1.2 1l-2.1 1.2-1.1 1q-4.4 3.5-9 6.6-.5.3-.5 1c1.4.7 2.2-.7 3.3-1.5l9.7-5.6.6-.4q1-.6 2.2-1c1.7 1 6 5.4 6.8 7l-8 5.5q-1 .6-.3 1.3a105 105 0 0 0 9.6-5.6l8 6.6q-2.3 1.4-4.2 3.3l-1.1.9-1 1-1.2.9-10.4 8.6q.4.4 1 .3l7.7-4.7 1.2-.7 2-1.1 1.2-.8c1.4-1 8.3-4.1 8.6-5.5q2.1.5 4.2.5c4.5-.5 20.3-24.4 25-28.4 2-.4 5.2-3 6.9-4.2q.6 0 1.1-.3l16.7-11.2q3.6-1.6 6.8-4c.3-2-1.3-.8-2.1-.4q-9.9 6.4-20.1 12.1-.9.5-1.2 1.4-1.4 0-2.6.4a681 681 0 0 1 34.8-38.8c1.4-1.2 9.3-10 10.2-10a27 27 0 0 0 9.4-6q3-1.5 5.9-3.4l16.8-11.2q3-.6 4.9-3.2 1.8-.4 2.9-1.8-1.8.4-3.6 1.3a935 935 0 0 1-25.2 15l-2.1.7c2.6-4.2 13.4-13.7 17.4-17.8l22.7-21.2a1 1 0 0 1 1-.2q.9-.2 1.3-1.1a5 5 0 0 0 1.9-.7l11.2-7.9c1-.7 5.6-3 5.7-3.9q-1-.5-2 0a43 43 0 0 1-8 4.6q.1-.6.6-1 36.9-32.8 75.6-63.5c3.2-2.5 7.8-5.8 12-5.5Z"/><path fill="#a6e076" fill-opacity=".4" d="M437 136q-.6 1.3-2 1 .5-1.4 2-1"/><path fill="#a9e276" fill-opacity=".3" stroke="#a9e276" stroke-opacity=".3" stroke-width=".5" d="M445.1 130.8a2 2 0 0 1-1 1.7c-1.8.8-5.4 3.5-7.2 3.5.9-1.6 6.3-5.3 8.2-5.2Z"/><path fill="#a5df76" fill-opacity=".5" d="M433.1 121.8c-.3 1-2 2.8-3 1.8.3-1.1 2-1.4 3-1.8m2 15.1c-.6.8-2 3.3-3 1.8.2-1.1 2-1.4 3-1.8"/><path fill="#bc5648" d="M145 267q-.5 1.5.9 2.3-.5 1.2-1.5 1.9l-1.2-3.2z"/><path fill="#c9584a" fill-opacity=".7" d="m472.3 95.2-.9 1.2q-.4-1.2 1-1.2m-.9 1.2q-1 .6-2 .9c-.3-1.4 1.3-1.3 2-.9m-2 .9q-.7.5-1.7.4.7-.7 1.6-.4m-1.7.4q.3 1.2-1 1.4.3-.8 1-1.4"/><path fill="#ce4545" fill-opacity=".4" stroke="#ce4545" stroke-opacity=".4" stroke-width=".5" d="M393.8 63q0 1-1.2 1zm-8 5q-.1 1-1.1 1zm-233.7 1a5 5 0 0 1-3 2q.6-2 3-2Zm242.2 39q-.6.5-1.2.7.2-.8 1.2-.7Zm-130.6 1.1q0 1-1 .8zm43.6 11a3 3 0 0 1-1.4.7q.5-.8 1.4-.7ZM450 157q-.6 1.3-2 1 .6-1.3 2-1Zm30 9a7 7 0 0 1-5 3 8 8 0 0 1 5-3Zm-295 17q-.9 1.9-3 2a3 3 0 0 1 3-2Zm236.8 31q0 1-1.2 1zm58.4 1q-.5.7-1.3.7.5-.6 1.4-.6Zm-73 12.1-1 .8q0-1 1-.8Zm-376 11.2a2 2 0 0 1-1.5.6zM469.8 250q0 1-1.1.8zm-45.5 15-1.4.6q.5-.6 1.4-.6ZM71 305c-.5 1-4.2 4-5 2.7.4-1.2 3.7-2.8 5-2.7Zm163 62.3q-.5.8-1.4.6zm27.3 4.7-1 1q0-1 1-1Zm-12.2 4.2q-.5.9-1.4.7zm-121.9 4a2 2 0 0 1-1.6.7q.7-.5 1.6-.6Zm53.6.9q-.1 1-1.2.8zm39.6 16.9-1.1 1q0-1.1 1-1Zm51.5 12.2q-.3 1-1.3.8zM246.3 430l-1 1q0-1 1-1ZM426 62c-.4 1.3-3.7 3.2-5 3 .2-1.2 3.9-2.8 5-3Zm-99 7.2q-.4.7-1.4.7zm-178 1.9c-.2.7-1.5 1.6-2 .6q.7-.9 2-.6Zm243.3 0-1.3.7q.3-.9 1.3-.7ZM102.2 84.8c-.7 1.1-4.3 4-5 2.9 1.3-1.3 3-2.8 5-2.9Zm202.1 4.3-1.2.7q.3-.9 1.2-.7Zm-48.2 25.2q-.6.7-1.4.7.6-.6 1.4-.7Zm126.1.8q-.4.5-1 .6.1-.7 1-.6ZM172 117a4 4 0 0 1-3 2q.7-2.2 3-2Zm123.2 10.2-1.2.5q.3-.8 1.2-.5Zm-5 1.1q-.4.9-1.5.7.7-.6 1.5-.7Zm-91.3 2.7c.2 1-1.3 1.7-1.8.7q.6-1 1.8-.7Zm249 27c.6 1.4-2 1.5-2.8 2-.3-1.6 1.6-2 2.8-2Zm27 11c-.4 1.4-5.3 4.2-6.8 4 .2-1.2 5.5-4 6.8-4Zm17.5 9q-.6.6-1.3.7.4-.7 1.2-.7Zm-19.3 4.3q-.4.7-1.3.7.5-.6 1.3-.7ZM123.3 188l-1.1.6q.3-.7 1.1-.6Zm-9.4 2.2q-.3.7-1.3.7.6-.6 1.3-.7Zm335.3 7q-.6.7-1.5.7.7-.6 1.5-.8Zm39.7 6.9q-.2.8-1.2.8zM71.3 221l-1.5.8q.5-.9 1.5-.8Zm397 1-1.2.8q.3-.8 1.2-.7Zm16.6 1.2q-.3.9-1.3.8zm-377 4q-.3 1-1.3.7zm-64.9 4q-.4.9-1.3.7zm352.3 3-1.1.6q0-.9 1-.7Zm-13.3 5.1q-.4.8-1.3.7.5-.6 1.3-.7Zm43.1 5q-.5.6-1.4.7.6-.6 1.5-.8Zm-48.9.8-1 .6c-.4-.8.7-.5 1-.6Zm47 3-1.1.8q.1-1 1.1-.8Zm39 7.1q-.7.8-1.5.7.6-.5 1.4-.7Zm-57.9 3.8q-.7.5-1.5.8.5-1 1.5-.8Zm-353.2 1.2q-.4.8-1.3.8zm-7 4q-.4.8-1.4.8zm368.2 7.9a2 2 0 0 1-1.3.6q.4-.7 1.3-.6ZM367 297.9c.2 1-1.4 1.9-2 .8a2 2 0 0 1 2-.8Zm-291 4c-.6 1.7-3.3 3-5 3 .8-1.6 3.3-2.7 5-3Zm324 24.2c-.6.9-4.1 4-5 2.5 1.1-1.2 3.2-2.7 5-2.6Zm-209 17.2q-.4.7-1.2.7a2 2 0 0 1 1.1-.7Zm21 6.6a7 7 0 0 1-5 3c.7-1.6 3.3-2.7 5-3Zm-12.1 20.3q-.3 1-1.3.7.6-.5 1.3-.7Zm-61 3q-.3.9-1.3.7zm11.4.9-1.5.7q.6-.7 1.5-.7Zm42.7.2q-.4.8-1.2.6zm35.3 18.7q-.6.6-1.4.8.5-.9 1.4-.8Zm-60 1-1.5.8q.5-.8 1.4-.8Zm-8 5-1.4.8q.5-.9 1.4-.7Zm123.6 4.2q-.3.8-1.2.7zm-77.6 3.8q-.6.6-1.4.7.6-.6 1.4-.7Zm-19 12a3 3 0 0 1-1.6.7 2 2 0 0 1 1.6-.6Z"/><path fill="#ce4545" fill-opacity=".5" d="m418.1 56.3-1 .5q.1-.9 1-.5M356.3 59q-.6.5-1.3.7.3-.9 1.3-.7m-18.2 3q-.4 1-1.3 1a3 3 0 0 1 1.3-1m-7.8 12-1.3.6q.4-.7 1.3-.6m104 11-1.2.6q.3-.7 1.2-.6m-87 12-1.3.7q.3-1 1.3-.8M267 107.2q-.4.8-1.3.6.5-.4 1.3-.6m23 4.7c0 .8-1.3 1.6-1.9.7a2 2 0 0 1 2-.7m-30.8 3q-.4.7-1.3.8.4-.9 1.3-.7m185.9 45c-.3.8-1.5 1.6-2 .7a2 2 0 0 1 2-.6m28.2 29.1q-.6.4-1.4.6.6-.7 1.4-.6m-361 5.9-1.2.7q.3-.7 1.2-.7m329 7.2q-.7.7-1.6.7.7-.6 1.5-.7m6 1.8q-.6.5-1.2.7.3-.8 1.1-.7m-359.4 1.3q-.3.7-1.2.6zm58.1 0q-.4.7-1.4.6zM82.3 214q-.6.5-1.4.6.5-.7 1.4-.6m44.7 2.2q-.3.9-1.3.7.6-.5 1.3-.7M449.2 233q-.4.5-1.2.7.3-.8 1.2-.7M82 242.2q-.3 1-1.3.8a2 2 0 0 1 1.3-.8m382.3-.1q-.6.5-1.3.7.3-.9 1.3-.7M63 253.3q-.4.7-1.4.7zm368 4q-.4.7-1.4.7zm-27 17q-.3.8-1.2.7zm15.3 11.8q-.6.5-1.4.7.5-.8 1.4-.7m-26 15q-.6.5-1.2.5c-.2-.8.8-.4 1.2-.4M72.7 315.4c.3-1.6 6.7-5.1 7.1-4a22 22 0 0 1-7 4M184 347.2q-.3.9-1.2.7zM373 359c0 .8-1.3 1.6-1.9.7a2 2 0 0 1 1.9-.8m-114.7 15a2 2 0 0 1-1.2.6q.3-.7 1.2-.6m-41 26q-.7.5-1.6.7.7-.7 1.6-.7m74 1.2q-.6.4-1.3.5c-.3-.9.9-.4 1.3-.5m-59.4 32q-.3.9-1.1.7.5-.5 1.1-.6"/><path fill="#ce4545" fill-opacity=".5" stroke="#ce4545" stroke-opacity=".5" stroke-width=".5" d="M212 350c.2-1 4.2-4 5-2.6-1.2 1-3.3 3-5 2.5Zm69 40c0-1 4.2-3.9 5-2.6a9 9 0 0 1-5 2.7Z"/><path fill="#cf4646" fill-opacity=".5" stroke="#cf4646" stroke-opacity=".5" stroke-width=".5" d="M81 299c.2-.7 1.3-1.5 1.9-.7a2 2 0 0 1-2 .6Z"/><path fill="#cb3f3f" fill-opacity=".2" stroke="#cb3f3f" stroke-opacity=".2" stroke-width=".5" d="M76 275q-.1.9-1 1.3l-14.9 9.1c-1.1 1-3.1 0-1.5-1.2l15.3-8.8a4 4 0 0 1 2-.4Z"/><path fill="#ce4545" fill-opacity=".5" stroke="#ce4545" stroke-opacity=".5" stroke-width=".5" d="M326.7 147q.4-.9 1.2-.7-.4.6-1.2.7ZM135 197q.3-1 1.4-1c1 .7-1 1.1-1.4 1Zm-63 4q.6-1.8 2.6-2c1.6 1.2-1.8 2.2-2.6 2Zm24 62q-1.2 1.7-3 2 .8-2 3-2Zm-43 14q.4-1 1.5-1.1c1 .8-1 1.3-1.5 1.2Zm249 69q.5-2 2.6-2c1.3 1-2 2-2.6 2Zm68 32c0 .8-1.3 1.6-1.9.7q.7-.9 1.9-.7Zm-5 20c-.5 1-2 2.5-3 1.6q.9-2 3-1.5Zm-30-256c-.3 1-4.2 4-5 2.7a10 10 0 0 1 5-2.8Zm133 31q-.6 1.2-1.7 1.9-2.4 0-.3-1.3 1-.4 2-.5Zm-383 5c.1-1.2 2.2-2.6 3-1.6q-1 1.8-3 1.5Zm-32 99c-.6 1-3.2 3.3-4.3 2.5.2-1.5 3-2.4 4.3-2.4Zm362 25c.2 1.6-2 2.9-3 1.6q1.1-1.3 3-1.6Zm-158 88q.4-2 2.6-2c1.3 1-1.9 2-2.6 2Z"/><path fill="#ce4545" fill-opacity=".6" stroke="#ce4545" stroke-opacity=".6" stroke-width=".5" d="M219 138c-.5 1.1-4 3.9-5 2.6a9 9 0 0 1 5-2.7Z"/><path fill="#ce4545" fill-opacity=".5" stroke="#ce4545" stroke-opacity=".5" stroke-width=".5" d="M164 97c.2 1-1.3 1.7-2 .7a2 2 0 0 1 2-.7Zm-100 3q.5-1 1.5-1.1c1.1.7-.9 1.3-1.4 1.1Zm103 60a3 3 0 0 1 2.7-2c1.5 1.3-1.8 2.1-2.7 2Zm-94 10q.6-1.7 2.5-1.8c2 1-1.6 1.9-2.5 1.8Zm114 12q.5-2 2.6-2c1.4 1-2 2-2.7 2Zm-91 81c.1-.7 1.3-1.7 1.9-.7a2 2 0 0 1-1.9.8Zm-15 36a4 4 0 0 1-3 2q.5-2.3 3-2ZM421 65q-.5 1-1.7 1.7-2.5.3-.4-1.3zm-24 26c-.6 1.3-6.3 4.8-6.9 3.7 1.6-1.2 4.8-3.7 7-3.6Zm-228 28c.2 1-1.4 1.7-2 .7q.8-1 2-.8Zm256 111q-.5 1.4-1.7 1.9-2.5 0-.4-1.3zm-60 87c-.4.9-1.9 2.5-2.9 1.6q.9-1.8 2.9-1.7Zm-216 12q.6-1.8 2.6-1.9c1.4 1-1.6 2.2-2.5 2Zm-5 30c.3-1.7 5-3.4 6.5-4.2 1.5 1-5.4 4.1-6.5 4.2Zm173 60a3 3 0 0 1 2.5-1.8c1.6.8-1.7 2.1-2.5 1.8Z"/><path fill="#ce4545" fill-opacity=".6" stroke="#ce4545" stroke-opacity=".6" stroke-width=".5" d="M131 51c.2-1.3 3.4-3 4.7-3.2C137 49 131.8 51 131 51Z"/><path fill="#8a3131" fill-opacity=".1" stroke="#8a3131" stroke-opacity=".1" stroke-width=".5" d="M330 54.9a2 2 0 0 1-1 1.4L281 84l.1-1.3q.1-.8.8-1.2 1.6-1.3 3.4-2.3c.5-.1 2 0 1.7-.9l33.4-19.2.9-.7q4-2.3 8.7-3.5Z"/><path fill="#933333" fill-opacity=".1" stroke="#933333" stroke-opacity=".1" stroke-width=".5" d="m491.8 131 .1 1.8q-7.3 4.6-14.8 8.8-.3-.6-1-.9z"/><path fill="#892929" fill-opacity=".1" stroke="#892929" stroke-opacity=".1" stroke-width=".5" d="M188.8 318q.8 0 1.4.8c-3 1.7-6 4.3-9.4 5.1q-.6-.3-.8-1 4.3-2.6 8.8-4.8Z"/><path fill="#9f3636" fill-opacity=".1" stroke="#9f3636" stroke-opacity=".1" stroke-width=".5" d="m59 177.9 1 .7q-2.2 1.8-4.8 3 0-1-1-1.1 2.3-1.5 4.8-2.6Z"/><path fill="#6d3333" fill-opacity=".5" stroke="#6d3333" stroke-opacity=".5" stroke-width=".5" d="m296 448 .1 1.2q-1.7 1.1-3.8 1.6c-.3-1.4 2.8-2.1 3.7-2.8Z"/><path fill="#682323" fill-opacity=".1" stroke="#682323" stroke-opacity=".1" stroke-width=".5" d="M266 398.6v1.4l-1.6 1q-.9-.3-1.4-1 1.5-.9 3-1.4Z"/><path fill="#7a3636" fill-opacity=".2" stroke="#7a3636" stroke-opacity=".2" stroke-width=".5" d="M113.8 48.3q1.5-.4 3.1 0-1.2 1-2.6 1.8-.1-.9-.5-1.8Z"/><path fill="#6b3333" fill-opacity=".6" d="M263.8 370.3c.4.7-1 1-1.5 1.3l-.4-1q.9-.3 1.9-.3"/><path fill="#6d3333" fill-opacity=".7" d="M503.2 132c1-.4.8 2.5.8 3a3 3 0 0 1-.8-3"/><path fill="#5d3131" fill-opacity=".3" stroke="#5d3131" stroke-opacity=".3" stroke-width=".5" d="m279.7 83.3.1 1c0 .8-1.3.7-1.9.7q.5-1.3 1.8-1.7Z"/><path fill="#2f2828" fill-opacity=".4" stroke="#2f2828" stroke-opacity=".4" stroke-width=".5" d="m16.7 145 .5 1.2a1 1 0 0 1-1.1.7q-.2-1.2.6-2Z"/><path fill="#171414" fill-opacity=".2" stroke="#171414" stroke-opacity=".2" stroke-width=".5" d="M280.8 357.8q.9 0 1.2.6-.7 1-1.8.4.2-.6.6-1Z"/><path fill="#482c2c" fill-opacity=".5" stroke="#482c2c" stroke-opacity=".5" stroke-width=".5" d="M331.8 54.2c.2 1-1.3.8-1.8.7q.8-.7 1.8-.7Z"/><path fill="#7c3737" fill-opacity=".4" d="M136.4 38.8h-2.8q1.5-1.5 2.8 0"/><path fill="#222" fill-opacity=".1" stroke="#222" stroke-opacity=".1" stroke-width=".5" d="m458.7 121.4 1.5-.1-1 .8z"/><path fill="#262626" fill-opacity=".4" d="M439.8 65.2q.8.1 1.4.6l-1 .8z"/><path fill="#332d2d" fill-opacity=".2" stroke="#332d2d" stroke-opacity=".2" stroke-width=".5" d="m296 448 1.1.3q-.4.6-1 .9z"/><path fill="#623232" fill-opacity=".5" d="M93.3 54.2q-.5.7-1.4.7.4-.8 1.4-.8"/><path fill="#803838" fill-opacity=".3" d="M322.2 48.2q-.6.7-1.6.8.6-.8 1.6-.8"/><path fill="#723535" fill-opacity=".4" stroke="#723535" stroke-opacity=".4" stroke-width=".5" d="M350 417q0 .6-.7.8 0-.6.7-.9Z"/><path fill="#5c3333" fill-opacity=".1" stroke="#5c3333" stroke-opacity=".1" stroke-width=".5" d="M398.9 375.1q0 .7-.7 1.1 0-.8.7-1Z"/><path fill="#863636" fill-opacity=".5" d="M89.2 46.2q-.6.6-1.4.6.5-.6 1.4-.6"/></svg>