<svg xmlns="http://www.w3.org/2000/svg" style="shape-rendering:geometricPrecision;text-rendering:geometricPrecision;image-rendering:optimizeQuality;fill-rule:evenodd;clip-rule:evenodd" viewBox="0 0 512 512"><path fill="#dedff8" stroke="#dedff8" stroke-width=".5" d="M297 150.7q3.4.5 6.3 2.6a2545 2545 0 0 1-62.4 36q-1 .6-2.1.7 1.5-1.8 3.6-3.1 23.2-16.2 46.7-32.2 1-.5 2-.5c-.3 1.4 5-.3 4.6-2.4z"/><path fill="#dedff8" fill-opacity=".9" stroke="#dedff8" stroke-opacity=".9" stroke-width=".5" d="M363 294.9q0 3-2 5.4c-5.5 2.9-13.1 8-18.8 10a7 7 0 0 1-1.5-2c3.6-2.7 13.9-11 17.4-12.2q.1.9 1.2.7a17 17 0 0 1 3.8-1.9Zm-114.2 117q3-.2 6.2.3v.5l-1.3.4q-2-.3-3.9.2z"/><path fill="#e4e4fa" fill-opacity=".2" d="M84 225q-.3 1.1-1.3.7zm334 33q-.1 1.1-1.3.7zm18.3 11.3-1.2.7q0-1.1 1.2-.7M135.7 326q0 .8-.8 1.2l-16 9.5q-.3-.6-.9-1l16-9.2a3 3 0 0 1 1.7-.5"/><path fill="#e1e1f9" fill-opacity=".4" d="M63 237.2q-.3.8-1.2.8zm389.4 6-1.4.6q.4-.9 1.4-.7m-28.2 11q-.6.8-1.6.8.7-.5 1.6-.8m2 3.9q-.4.4-1.2.7.3-.8 1.2-.7m-15.9 5.2q-.7.6-1.5.7.7-.6 1.5-.7m19 7q-.7.6-1.5.6.6-.4 1.4-.6m-33 1.9q-.7.6-1.5.8.7-.6 1.5-.8M412 283q-.4.6-1 .6 0-.9 1-.6m-23 12.9q-1 2-3.1 2a4 4 0 0 1 3-2m26 .9a7 7 0 0 1-5 3.2c.8-1.8 3.1-3 5-3.2m-127 84a7 7 0 0 1-5.2 3.1q2-2.5 5.1-3m-38.3 32.4q2-.5 3.9-.2c.8 1.3-3.7 1.3-3.9.2"/><path fill="#e2e2fa" fill-opacity=".2" d="M460 231q-.3 1.1-1.3.7zm-395 5q-.3 1.1-1.3.7zm394 15q-.3 1-1.3.7zm-34.7 8.3-1.2.8q.2-1 1.2-.8m60.3 10q.3.4 0 .8l-12.6 7.3q-1 .5-2 .5.3-.6 1-1.2 6-3.6 11.9-7.6 1-.3 1.7.3M423 274q0 1.1-1.2.8zm-12.6 10.4-1.3.7q.2-1.2 1.3-.7M206.1 406.7l.9.2.2.9q-1 0-1.1-1"/><path fill="#e1e1f9" fill-opacity=".3" d="m283.4 134-.3.8-1.4.2q.6-1 1.7-1M98.2 220l-1 1q0-1 1-1m355.8 3q-.6 1.2-2 1 .6-1.2 2-1M70 233.3q-.4.8-1.3.6.5-.5 1.4-.6m34-.4a7 7 0 0 1-5.2 3.1q2-2.5 5.2-3m-45.8 13-1 1q0-1 1-1m436.6 4.7-.2 1.3-.9-.4zm-44.2 5.3q0 1-1 1zm6.6 1a2 2 0 0 1-1.2.8q.3-1 1.2-.8m-37.9 5.1-1.4.6q.5-.7 1.4-.6M98 264q-.5 1.4-2 1 .7-1.2 2-1m316.7 15q0 1-1 1zm-23.5 73-.4-1.2c.8-.8 4.2-3.6 5-2.4zm-105.3 59q0 .8-1.1.7.3-.7 1.1-.8"/><path fill="#7b7b88" fill-opacity=".1" d="M413.7 166.4q.6-.3 1.1.2-.2.6-.8 1l-12 6.9a9 9 0 0 1-4.3 1.7 3 3 0 0 1 1.2-1.7 147 147 0 0 0 13-8q.9-.7 1.8-.1"/><path fill="#e1e1fa" fill-opacity=".2" d="M457 221q.5-1 1.6-1c1.2.7-1 1.2-1.6 1m-11 19q-.3 1.1-1.3.7zm4.3 4.3-1.2.8q.2-1 1.2-.8m-18.4 4.6q0 1.1-1.2.8zM91 268.1c-1.1 2-4.8 3.4-6.7 5l-.4-1.2c1.7-1.4 5-3.9 7.2-3.8M66 270c-1.4 2.2-4.7 3-6.7 4.8l-.4-1.2c1.6-1.3 5.1-3.9 7.1-3.6"/><path fill="#d2d2e8" fill-opacity=".2" d="M98.8 236q-.3 1.2-1.4 1.7-6.5 4.2-13 8l-1.5-1.1 14-8.1q1-.5 2-.5"/><path fill="#787887" fill-opacity=".1" d="m114 340-12 7.4q-1 .6-2 .4-.7.2-.7-.4 1.5-1.7 3.6-2.9l9.8-5.6q1.1 0 1.3 1"/><path fill="#d4d4e7" fill-opacity=".2" d="M429.7 287.2q.5.8 1.4 1.1c-2.9 1.1-13.8 8.8-16 8.6q.5-1 1.5-1.6z"/><path fill="#e1e1f9" fill-opacity=".5" d="M267 109a4 4 0 0 1-3 2q.7-2 3-2m182 117c-.4.5-1.4 1.5-2 .6q.8-1 2-.6m-342 5q.3-1.3 1.6-1.2c1.3.8-1.1 1.3-1.6 1.1m320 21q-.3 1-1.3.8zm-325.9 10q.3-1 1.4-1.2c1 .7-1 1.3-1.4 1.2m313.2 3-1.3.7q.3-.8 1.3-.7m50.8 16c-.2.8-1.4 1.5-2 .6q.9-.9 2-.6m-79.1 17c0 1-1.3 1.7-2 .8a2 2 0 0 1 2-.8M189 375a8 8 0 0 1-5.1 3c1-1.5 3.3-3.2 5.1-3m41.3 29-.3.8-1.4.2q.6-1 1.7-1"/><path fill="#babacf" fill-opacity=".2" d="m57.6 274.3.2.8q0 .8-.8 1.2l-9.9 6.1c-1 1-3.2 0-1.6-1.3z"/><path fill="#e1e1f9" fill-opacity=".4" d="M284.3 108.9h1q-.4 1-1.6 1.1zm53 53.1-.5 1h-1q.4-1 1.6-1M101 215.2q-.3.9-1.3.7zm6 15.8q-.9 2-3 2 1-1.7 3-2m357.3 22q-.6.6-1.3.7.3-.7 1.3-.7M76.1 264a8 8 0 0 1-5.2 3c1-1.5 3.3-3.2 5.2-3m331.2 5q-.6.6-1.4.7.5-.7 1.4-.6m11 8.3q-.7.6-1.7.7.7-.6 1.6-.8M468 279q-.9 1.9-3 2 .8-1.8 3-2M288 381q.3-1 1.4-1.1c1.1.7-1 1.3-1.5 1"/><path fill="#e1e1f9" fill-opacity=".3" d="m323.2 170.2-.9.8q0-1 1-.8M115 207q-.1 1.2-1.3.7zm342 14a3 3 0 0 1-3 2 3 3 0 0 1 3-2m7.3 15.2q-.6.6-1.3.9.3-1 1.3-.9M51 244q-.3 1-1.3.7zm411 5q-.1 1-1.2.8zm-430 6q-.2 1-1.3.8zm418.3 6.3-1.3.7q.3-1 1.3-.7M96 265a7 7 0 0 1-5 3c.6-1.5 3.4-2.9 5-3m311 0q-.3 1-1.2.8zm-14 9q-.3 1-1.2.8zm31.3 2.3-1.3.7q.3-1.1 1.3-.7m-31 1-1.3.7q.3-1 1.3-.7"/><path fill="#dadaef" fill-opacity=".2" d="M403.7 286a2 2 0 0 0 1.4 1.4l-12.1 7q-1 .5-2 .5.3-.8 1-1.3 6-3.6 11.7-7.5"/><path fill="#e0e0f8" fill-opacity=".3" d="M133 197q-.7 2-3 2 .9-2 3-2m-31.8 21.2-1.2.8q.1-1 1.2-.8M463 229q-.3 1-1.2.8zm-381.8 2.3-1.2.7q.1-1.1 1.2-.7m-20 13-1.2.7q.3-1 1.2-.8m415.1 2-1.3.7q.3-1 1.3-.7M71 267a8 8 0 0 1-5 3c.5-1.7 3.3-3 5-3m399 10.8q-.5 1.5-2 1 .6-1 2-1m-41 40q-.7 2-3 2.1a3 3 0 0 1 3-2"/><path fill="#b1bbec" d="M332.9 232.3q.1 1 1.2 1.2-6.8 4-13.8 7.7l-.2-1.2z"/><path fill="#c0c0d5" fill-opacity=".2" d="M313.6 128.3q.4.8-.5 1.2l-9 5q-1 .6-1.8 1.5l-.1-1.1q0-.5.3-.8 4.8-2.7 9.4-5.8.8-.6 1.7 0"/><path fill="#e1e1f9" fill-opacity=".4" d="M267 109c0-1 1.2-1.8 1.7-.7q-.6.9-1.7.7m109 80a4 4 0 0 1-3 2q.9-1.8 3-2m-257.6 18-1.2 1q0-1.2 1.2-1M89 222.4q-.5.7-1.3.6zm382.2 9.8-1.3.7q.4-.9 1.3-.7m-393 1-1 .9q0-1 1-1m367 14q-.5.5-1.3.6.4-.7 1.2-.7m-407 12-1 .8q0-1 1-.8m393 13-1.2.6q.3-.7 1.2-.7M184 377.8c-.3 1.7-3.6 3-5 3 1-1.3 3.2-3 5-3"/><path fill="#e1e1f8" fill-opacity=".4" d="M215 113q.2-2.2 2.6-2.2c1.7 1-2 2-2.6 2.2m237 111q-.9 1.7-3 2.1.8-2.3 3-2m-88.7 5-.2.8h-1.3a2 2 0 0 1 1.5-.9m103 6.1-1.2.7q.2-.9 1.2-.7m-7 4-1.3.7q.3-.9 1.4-.8M37 252.1q-.3 1-1.3.8zm396.5 1.9-1.3.7q.3-.8 1.3-.8m20.9.1q-.6.8-1.6.7zM101 262.1a4 4 0 0 1-3 1.9q1-2 3.1-2m318.2 17-1.2.8q.1-1 1.2-.8m-37.1 2q-.6.9-1.6 1a4 4 0 0 1 1.6-1"/><path fill="#a0ade9" d="M238.8 190c.7 1-4.1 4-4.7 2.7 1-1.2 3-2.7 4.7-2.7m79 24q.1 1-.7 1.4a8 8 0 0 1-4.3 1.8c.5-1.4 3.7-3.4 5-3.1m51.1 33 .1 1.1c-1.2.4-1.1-1 0-1.2m-176.7 37q-1 2-3.3 2a3.4 3.4 0 0 1 3.3-2"/><path fill="#d5d5ed" fill-opacity=".2" d="M438.6 311.1q.5.9 1.4 1.2l-9 5.3q-.8.4-2 .3.3-.8 1-1.2z"/><path fill="#4e5d8f" fill-opacity=".1" stroke="#4e5d8f" stroke-opacity=".1" stroke-width=".5" d="M364 227.2q.6-.2.7.5-.9.5-.7 1.4l-.7-.2a2 2 0 0 0-1.5 1q-2.2 0-2.8 2.1h-.8q-1 0-1.5.9h-1.4q-.1-.9.6-1.3c2.1-.9 6-4.6 8.1-4.4Z"/><path fill="#e0e0f9" fill-opacity=".3" d="M378 188q-.5 1.3-2 1 .6-1.2 2-1m-95 196c-.7 1.8-5.3 3.7-6.8 5l-.4-1.3c1.7-1.2 5.1-3.7 7.1-3.7m-52.2 28q1-.3 2.3-.1c.5 1.2-1.9 1.5-2.3 0"/><path fill="#e0e0fb" fill-opacity=".2" d="M232.9 142.8q0 1-1.1 1.2.3-.9 1-1.2m-103 56.2c-.3 1.5-3.5 3-5 3.1a7 7 0 0 1 5-3.1m-39 22q0 1-1.2.7zm390.4 22.3-1.2.8q0-1 1.2-.8m-11.4.6q-.2 1-1.2.8zm-424 3q0 1.1-1.2.8zm409.4 11.4-1.2.8q0-1.1 1.2-.8m-57 16-1.2.8q.1-1 1.3-.8M211.9 408l1.2-.3q0 1-1 1z"/><path fill="#e0e0f7" fill-opacity=".3" d="M103 214q-.1 1-1.2.8zm1.3 2.3-1.2.8q0-1.1 1.2-.8m-20 13-1.2.8q0-1 1.2-.8m392 0-1.2.7q0-1.1 1.2-.7m-412 13-1.2.8q0-1.1 1.2-.8M5.3 254l.6-.1.1 1.4q-.8-.4-.8-1.3m457 .3-1.2.7q0-1.1 1.2-.7m-418 1-1.2.8q0-1 1.2-.8M448 258q-.3 1-1.3.7zm-429 4.3q.6 0 1-.3-.3.8-1 1.2zm385 4.6q-.3 1.1-1.3.8zm1.3 3.4-1.2.8q0-1 1.2-.8m-15.4 5.6q0 1-1.2.8zm-247.6 98.4-.5.6h-1.1q.6-.8 1.6-.6"/><path fill="#e6e6fa" fill-opacity=".2" d="M74 205c-1.8 2.5-5.5 4.2-8.1 5.7l-1-.5q.5-1 1.4-1.4c2.2-.8 5.6-4 7.8-3.8"/><path fill="#4c5b8f" fill-opacity=".1" stroke="#4c5b8f" stroke-opacity=".1" stroke-width=".5" d="M324.2 168.2q1-.2 1.8.4-1.6.4-2.8 1.6-1 0-.9.8c-1.6.2-3.7 2.5-5.2 1.8a4 4 0 0 1 2.2-2.2c1.1-.6 3.7-2.7 4.9-2.4Z"/><path fill="#dcddf8" d="M280 144q2.3.3 4.3 1.2l.1.8q-3.1 2.3-6.5 4.2-13.3 8-26.8 15.4c-2 1.2-2.6 2.7-5 2.5q0-.6.4-1l32.2-21.8q.8-.6 1.3-1.3m46 24.6a7 7 0 0 1 2.1 2.4l-45.3 26.7-1.9-.7c.3-2.4 20.2-13.2 23.3-16.4 5.6-1.5 7.8-5.7 12.9-7.8 1.5.7 3.6-1.6 5.2-1.8l1-.8q1-1.1 2.7-1.6"/><path fill="#e3e3fa" fill-opacity=".2" d="M110 210q-.1 1.1-1.3.7zm-2.7 4.3-1.2.8q0-1 1.2-.8m-20 13-1.2.8q.1-1 1.2-.8m382 6-1.2.8q0-1.1 1.2-.8m-402 7-1.2.8q.1-1 1.2-.8m-20 13-1.2.8q.2-1 1.2-.8M27 257.9q-.2 1-1.2.8zm.4 8.4-1.2.8q0-1 1.2-.8m406.6.6q0 1-1.2.8zm-4.5 6.4-1.3.8q.2-1 1.3-.8M166.2 395.7q.7.3 1 1-1.2.1-1-1m113.7 15 1.4.3v.8q-1.2 0-1.4-1"/><path fill="#e0e0fa" fill-opacity=".2" d="M72 232q-.3 1-1.3.7zm408.9 5q-.2 1-1.2.7zm-6.6 10.3-1.2.8q.2-1.2 1.2-.8M429 251q-.1 1-1.2.8zm-14 9q-.1 1-1.2.8zm30 0q0 1-1.2.8zm-27.5 3.4-1.3.8q0-1 1.3-.8M401 269q0 1.1-1.2.8zm-14 9q0 1.1-1.2.8zM158.1 382.4l-.4.6h-1q.5-.8 1.4-.6m-1.4 9.7 1.6-.3q-.5 1.6-1.6.3M287 410l1-.2q0 1-1.3.9z"/><path fill="#d3d3e6" fill-opacity=".2" d="M397.7 176.2q.2.4 0 .9l-6.4 3.7-.1-1q.3-.7.8-1.1c1.4-.7 4.1-3.3 5.7-2.5"/><path fill="#aeb7e6" d="M160.2 200.7c-.5 2-4.5 3.6-6.1 5l-1.5.4q.6-1.2 1.4-2.3 3-2 6.2-3.1"/><path fill="#e1e1f9" fill-opacity=".5" d="M264 111c-.3.7-1.4 1.6-2 .6q.8-.9 2-.6m-49 2c0 1-1.5 1.7-2 .7q.7-1 2-.7m156 79q-.5 1.2-1.7 1.8-2.5.2-.4-1.3 1-.5 2-.5m-.9 13.2 1 .2-1 1zM189.1 375q.3-1 1.3-1c1.1.6-.9 1.2-1.4 1"/><path fill="#95a5e7" fill-opacity=".5" stroke="#95a5e7" stroke-opacity=".5" stroke-width=".5" d="M348.7 236.2q0 1 1 1c.2 1-4.8 3-5.6 3.6l.2-.8c-.5-1.3 3.7-3 4.4-3.8Z"/><path fill="#b3b9de" fill-opacity=".8" d="M364.9 291q-.6 2.1-1.8 3.9c0-1.3-1.5-1.2-2.3-1q1.4-2.4 4.1-3m-4.1 3c.5.9-1.3.8-1.7.8q.6-.9 1.7-.9m-1.7.8-1 1.3q0-.9 1-1.3"/><path fill="#e1e1fa" fill-opacity=".3" d="m389.8 180 .1 1.2c0 .9-6.4 3.9-7.3 4.8q-2.1 1.4-4.6 2l1-1.4zM76 204q-.3 1.3-2 1 .5-1.5 2-1m-37 47q-.3 1-1.3.8zm392.3 4.3-1.3.7q.3-1 1.3-.7m-45 26-1.3.7q.3-1.1 1.3-.7m25.6-.3q0 1.2-1.2.7zm-51.1 13c.8-.3 2.4-.4 2.3.9a17 17 0 0 0-3.8 1.9q-1 .2-1.2-.7l1-1.3c.4 0 2.2 0 1.7-.9m-182 87c-.2 1.6-3.3 2.8-4.7 3 .5-1.7 3-2.9 4.8-3"/><path fill="#a3b0ea" d="M185.1 264a3 3 0 0 1-3.1 1.9 4 4 0 0 1 3.1-2m11 82.8q-.3 1.6-2 1.3c-.4-1.2 1.2-1.4 2-1.3m95 4.1q.6-1.8 2.4-1.8c1.1 1-1.5 2.1-2.4 1.8"/><path fill="#96a5e7" d="M246 168c0 1.3-2 2.6-3 1.7a3 3 0 0 1 3-1.6m20.8 38.3c-.2 1-1.8 1.8-2.7 1.3q.7-2 2.7-1.3M192.2 284c-.4-.9 1.1-1.6 1.6-.6q-.5.8-1.6.6"/><path fill="#c4c4d8" fill-opacity=".8" d="M185 401.3q.6 0 .7.9-.5-.4-.7-1m.7.9c1.9-1.1 4.5.8 6.6.9-.4 1.4-2.8.8-3.8 1q-2-.2-2.8-2"/><path fill="#586fc1" d="M340 166.1q.9 0 1 1-.8-.3-1-1m1 1q1-.2 1.1 1-.7-.4-1.2-1m1.1 1q.6.3.7.9-.7-.1-.7-1M197 363.2q2.6 1 5 2.5c-2.2 0-4.6.1-5-2.5"/><path fill="#e1e1fa" fill-opacity=".4" d="m115.3 209.1-1.5.7q.5-.9 1.5-.7m-20 13q-.7.6-1.5.6.6-.7 1.5-.6m-13.5 4q-.2 1-1.1.9zm356.5 19.2q-.7.6-1.6.7zm27 2q-.7.6-1.5.6zm-410 .7-1.5.8q.5-.7 1.4-.8m-20 13-1.4.8q.5-.7 1.4-.7m403 7.1-1.1.7q.1-.9 1.1-.7m-56.9 16-1.3.8q.3-1 1.3-.8"/><path fill="#ccccdf" fill-opacity=".2" d="M124.9 202.1c-.7 1.7-3 2.8-4.6 3.6q-.5-.7-1.4-1 2-1 4-2.3 1-.4 2-.3"/><path fill="#e0e0f8" fill-opacity=".5" d="M112.3 211q-.5.5-1.3.7.4-.8 1.3-.7m-20 13q-.7.6-1.5.8.6-.8 1.6-.8M75 230.2q-.3.9-1.2.7zm-2.6 7q-.7.5-1.6.5.7-.6 1.6-.6m368.8 6q-.4 1-1.5.8.7-.6 1.5-.8m30.2 5.9-1.2.8q.2-1 1.2-.8m-419 1q-.6.5-1.4.6.4-.7 1.5-.7m390.8 11.3q-.5.6-1.5.5.7-.5 1.5-.5M32.4 263l-1.6.7a3 3 0 0 1 1.6-.7"/><path fill="#c2c2d6" fill-opacity=".9" d="M287 410q0 .4-.3.8l-.8.1q-.8 0-1.1.8-1.7 1.1-3.6.1v-.8q2.8-1.3 5.8-1"/><path fill="#e2e2f8" fill-opacity=".3" d="M96 218q-.2 1-1.2.8zm353 20q-.2 1-1.2.8zm-14 9q-.3 1-1.2.8zm34.3 3.3-1.3.7q.3-1 1.3-.7m-31 1-1.3.7q.3-1.1 1.3-.7M421 256q-.1 1-1.2.8.4-.5 1.2-.8m-8.7 10.3-1.3.7q.2-1.1 1.3-.7M426 272q-.2 1-1.2.8z"/><path fill="#e2e2fa" fill-opacity=".4" d="M373 191q-.6 1.2-2 1 .6-1.2 2-1m79.1 45.2q-.3.9-1.4.7.6-.6 1.5-.7m24 4q-.3.7-1.4.8zm7.1 1.8q-.6.5-1.3.7.4-.7 1.3-.7M44 248.3q-.4.7-1.3.5zM426 320c0 .8-1.3 1.6-1.9.7q.8-1 2-.7"/><path fill="#e1e1fa" fill-opacity=".4" d="M135 196q-.5 1.2-2 1 .6-1.2 2-1m-27.2 15.2q-.1.9-1.1.7zM75.2 235q-.6.6-1.5.7.7-.6 1.5-.7m-50.4 24.3q-.2.8-1.1.6.5-.4 1.1-.6m415 3.8q0 1-1.1.9zm-90.7 130.2 1.3-.3q-.6 1-1.7 1zM209.4 400l-.4.8h-1.4q.6-1 1.8-.8"/><path fill="#d4d4ea" fill-opacity=".8" d="M7.1 248.8q.3 2.7-1.2 5l-.7.2q-1-3.3 2-5.2"/><path fill="#cfcfe5" fill-opacity=".9" d="M207 407q2.6-.4 4.8 1.1l.1.6q-1.9.6-3.7-.1l-1-.8z"/><path fill="#9491d2" d="M341 325q1.2.5 1.2 1.8l-5.2 2.6q0-.9.5-1.4 1.8-1.3 3.5-3"/><path fill="#acb7eb" d="m270 202.8 2.3.5a15 15 0 0 1-5.5 3q.2-.7.6-1.3 1.6-.9 2.7-2.2"/><path fill="#9f9fb4" fill-opacity=".1" d="m65 210.3.9.4-3.3 2.4-1.6-1c1-.6 2.7-2.2 4-1.9"/><path fill="#e2e2f8" fill-opacity=".4" d="M468.9 225.3q-.3.8-1.2.6zm-413 15.9q-.3.8-1.3.7zM76.1 264q.3-1 1.4-1.1c1 .7-.9 1.3-1.4 1.1m369.2 0q-.6.6-1.4.8.4-.8 1.4-.7m-57 16q-.6.6-1.3.7.4-.7 1.3-.6m18.9 4.2q-.4 1.1-1.6.7a3 3 0 0 1 1.6-.7"/><path fill="#d2d3ed" d="m291.2 368-4.5 1c.6-1.6 2.5-2.4 4-2.9q.6.8.5 1.8"/><path fill="#566cbc" d="M171.2 345q2.5 1 4 3.2h-1.8z"/><path fill="#e1e1f9" fill-opacity=".4" d="M79 202a4 4 0 0 1-3 2q.7-2 3-2m387.1 25.3q-.5.7-1.4.7.6-.6 1.4-.7M400.2 273q-.4.4-1.2.7.3-.7 1.2-.7"/><path fill="#e1e1f8" fill-opacity=".3" d="m41.2 257.2-1.2.8q.2-1 1.2-.8M437 265q-.3 1-1.2.7zm6.3.3-1.3.7q.3-1.1 1.3-.7m-26 15-1.2.8q0-1 1.2-.8M391 294.9q-.5 1.5-2 1 .7-1 2-1"/><path fill="#536ec8" d="M178.3 350.6q2 1.4 4 3.1a8 8 0 0 1-4.6-2z"/><path fill="#c4c4d8" fill-opacity=".9" d="M166 395c1.1.3 3.8.8 4.3 1.8q-1.5.3-3.2-.1 0-.7-.9-1z"/><path fill="#bcbcd0" fill-opacity=".9" d="M234.3 141.9a3 3 0 0 1-1.4.9q-1 .3-1.1 1.2h-.5l-.3-1.1c.3-1 2.5-.8 3.3-1"/><path fill="#d195b9" d="M382 365.8q.8.3 1 1.2c-2.5 2.1-3.6.3-1-1.2"/><path fill="#bac2f0" fill-opacity=".7" stroke="#bac2f0" stroke-opacity=".7" stroke-width=".5" d="M361.8 229.9q-.4 2.1-2.8 2.1.6-2 2.8-2.2Z"/><path fill="#cfd3f4" fill-opacity=".9" d="M296 149.8q.6.1 1 1l-1.3 1-1.8.1q.8-1.3 2-2.1"/><path fill="#e3e3f9" fill-opacity=".2" d="M470.9 224q-.1 1-1.2.7zm-14 8.9q-.1 1-1.2.8zm5.5 4.4-1.3.8q.1-1 1.3-.8M207.2 407.8l1 .8q-1.1.4-1-.8"/><path fill="#adadbe" fill-opacity=".9" d="M153.8 390q1 .2.9 1.2zm.9 1.2q2-.5 3.6.6l-1.6.3q-1.2 0-2-1"/><path fill="#e2e2f8" fill-opacity=".1" d="M352.9 129.8q0 1.1-1 .7zM109 147.2v1h-.9q-.1-1.1 1-1m290 7.7q-.4.7-1.3.6.6-.4 1.3-.6m87.3 85.4-1.3.8q0-1 1.3-.8"/><path fill="#cda1c0" d="M175 158.9q.7.4 1 1.2c-1.3 1.8-2.9 1-1-1.2"/><path fill="#dedefa" fill-opacity=".2" d="M442.9 241.9q-.1 1-1.2.8zm-390 1q-.2 1.1-1.3.7zm338.5 35.5-1.3.7q.2-1.1 1.3-.7"/><path fill="#9aa9e8" d="M187.4 262.8q-.6 1.5-2.3 1.2c-.4-1.3 1.5-1.2 2.3-1.2m26.5 50.3q0-.7.7-1c1 .6-.3 1-.7 1"/><path fill="#cd9ebd" d="M362 345.9q.6.5 1 1.2c-2.4 2-3 .3-1-1.2"/><path fill="#e3e3f8" fill-opacity=".3" d="M58 240q-.3 1-1.3.7zm399.3.3-1.3.7q.3-1.1 1.3-.7M165.2 394.6l.9.3.1.8q-1.2 0-1-1"/><path fill="#717dd8" fill-opacity=".1" stroke="#717dd8" stroke-opacity=".1" stroke-width=".5" d="M353.8 233.4v1.6l-1.7-.3q.5-1.2 1.6-1.3Z"/><path fill="#acb7ec" fill-opacity=".9" d="m353.8 234.4 1.3-.3q-.3.9-1.3.9zm-1.7.3 1.7.3c.2 1-1.1 1.1-1.8 1.1zm-.9 1.2.8.2q0 .7-.8.7z"/><path fill="#4f66b3" d="M315 148.1q1.3-.4 1.8.9a2 2 0 0 1-1.9-.9m1.8.9q.9.3 1.3 1-.9-.3-1.3-1"/><path fill="#a8b4eb" d="M241.8 156.1q0-.7.8-1c1 .6-.6 1-.8 1m-68.5 49.6 1 .9-2 .4q0-.9 1-1.3"/><path fill="#9fabe3" d="M208.2 301q.7.2 1 .9-.5 1.5-2 1a3 3 0 0 1 1-1.9"/><path fill="#d7c2de" d="m361 375.6 1 .2q-.3 1.2-1 2.3-.8-.4-1.5-1.2z"/><path fill="#8fa0e4" d="M318 228q-.5 1.4-1.7 2l-.6-.9q.6-1.4 2.2-1.1"/><path fill="#848490" fill-opacity=".9" d="m424.9 349.1-.2 1-.9-.6zm-1 .4q0 1-1 1.3z"/><path fill="#c0c7f1" fill-opacity=".9" d="M293.9 152q-.5 1.1-2 .9.9-1 2-1"/><path fill="#dfdff9" fill-opacity=".3" d="m293.9 152 1.8-.2c.4 2-5 3.8-4.6 2.4q.6-.6.9-1.3 1.3.3 1.9-1"/><path fill="#7e93e2" fill-opacity=".7" stroke="#7e93e2" stroke-opacity=".7" stroke-width=".5" d="M203 354.2q-.3 1-1.3 1l-.7-.5q.8-.6 2-.5Z"/><path fill="#65656e" fill-opacity=".7" d="m326 109 1.8.2.1.8q-1.2.1-2-1"/><path fill="#6b6b74" fill-opacity=".8" d="M341 114q1.4 0 2.3 1-1.5.2-2.4-1"/><path fill="#4564cf" fill-opacity=".8" d="M163.2 336.9q.8.3.8 1.1l-.6.3zm.9 1.1q.9 0 1.2.8-.9 0-1.2-.8"/><path fill="#8e8e9c" fill-opacity=".8" d="M137.6 382.9c.6 0 2.2 0 2.1 1q-1.5.3-2-1"/><path fill="#828ab4" d="M330.2 298.3q.7-.2 1.6 0v.8a2 2 0 0 1-1.6-.8"/><path fill="#9393a0" fill-opacity=".9" d="M163.2 126q0 .8-1 .9l-1-.2c-.1-.8 1.6-.6 2-.7"/><path fill="#8893c3" d="M349.3 195.3q.8.4.7 1.4h-.7q-.3-.8 0-1.4"/><path fill="#dcdcf2" fill-opacity=".7" d="m161.3 126.7 1 .2q-.5 1-1.6 1.4c-1.2-.4-.4-1.5.6-1.6"/><path fill="#c7ccf4" fill-opacity=".7" stroke="#c7ccf4" stroke-opacity=".7" stroke-width=".5" d="m355.3 233 1.4-.1q-.1 1.4-1.6 1.2z"/><path fill="#858590" fill-opacity=".1" stroke="#858590" stroke-opacity=".1" stroke-width=".5" d="M346.8 173.4q1.2 0 2.2.4l-.7.2q-.8-.2-1.5-.6Z"/><path fill="#869be2" fill-opacity=".1" stroke="#869be2" stroke-opacity=".1" stroke-width=".5" d="m352.2 234.7-.2 1.4-.8-.2-1-.2q.7-1 2-1Z"/><path fill="#e085b1" d="m362 375.8-1-.2q.8-.5 1.5-.5.5.7-.5.7"/><path fill="#c6c6da" fill-opacity=".4" stroke="#c6c6da" stroke-opacity=".4" stroke-width=".5" d="M308.7 104.4c.7-.2 2.5-.5 2.6.7q-1.5 0-2.6-.7Z"/><path fill="#d7d9fc" fill-opacity=".3" stroke="#d7d9fc" stroke-opacity=".3" stroke-width=".5" d="m348.7 236.2 1.5-.6 1 .3v.9l-1.4.5q-1-.2-1-1.1Z"/><path fill="#868691" fill-opacity=".4" stroke="#868691" stroke-opacity=".4" stroke-width=".5" d="m269.2 99-2.5-.1q1.3-1.5 2.5.1Z"/><path fill="#696a79" fill-opacity=".7" stroke="#696a79" stroke-opacity=".7" stroke-width=".5" d="M284.3 145.2q1-.3 1.7.6l-1.6.2z"/><path fill="#4a65c1" d="M328 156.3q.7 0 1 .6-.7.2-1-.6m1 .6q1 .2 1.2 1.1-1-.2-1.1-1.1"/><path fill="#cecee3" fill-opacity=".5" stroke="#cecee3" stroke-opacity=".5" stroke-width=".5" d="M352 391.7q0 1.5-1.6 1.3c-.7-1 1-1.3 1.6-1.3Z"/><path fill="#b1b1c3" fill-opacity=".8" stroke="#b1b1c3" stroke-opacity=".8" stroke-width=".5" d="M427.9 346.9q0 .8-.5 1.4-.2-.9.5-1.4Zm-.5 1.4-1.1.7q0-1 1-.7Z"/><path fill="#4f64ad" d="M297.1 372q-.7 1.2-2.1.8.9-.9 2.1-.8"/><path fill="#a5afe5" d="m191.8 348.3 2.3-.2q-.3 1-1.3 1.2z"/><path fill="#83838f" fill-opacity=".9" d="m109.1 147.2 1 .2q-.3.5-1 .7zm-.9 1h1a2 2 0 0 1-1.2.7z"/><path fill="#e0e0f9" fill-opacity=".5" stroke="#e0e0f9" stroke-opacity=".5" stroke-width=".5" d="M383.2 145.1h1.2q-.7.7-1.6 1z"/><path fill="#e2e2fa" fill-opacity=".2" d="m443.3 248.3-1.2.8q0-1 1.2-.8"/><path fill="#b9c2f0" fill-opacity=".9" d="m342 240.9 1 .2q-.3.9-1.2.7z"/><path fill="#cad0f3" fill-opacity=".3" stroke="#cad0f3" stroke-opacity=".3" stroke-width=".5" d="m342 240.9-.2 1q-.5 0-1 .4.1-1 1.2-1.4Z"/><path fill="#dfdff9" fill-opacity=".5" stroke="#dfdff9" stroke-opacity=".5" stroke-width=".5" d="m342.8 240.1 1.5-.1-.2.8-1.2.3z"/><path fill="#3559d1" fill-opacity=".3" stroke="#3559d1" stroke-opacity=".3" stroke-width=".5" d="m342.8 240.1.1 1-.9-.2z"/><path fill="#5e5e66" fill-opacity=".5" d="M285.7 100.2q.9 0 1.5.8a3 3 0 0 1-1.5-.8"/><path fill="#66666e" fill-opacity=".6" d="M311.8 105.2q1 0 1.4.8-.9 0-1.4-.8"/><path fill="#ddddf8" fill-opacity=".6" stroke="#ddddf8" stroke-opacity=".6" stroke-width=".5" d="M358.2 232q-.4.9-1.5.9.4-1 1.5-1Z"/><path fill="#d6d6ef" fill-opacity=".4" stroke="#d6d6ef" stroke-opacity=".4" stroke-width=".5" d="M473.4 293.1a2 2 0 0 1-1.5.8q.5-.9 1.5-.8Z"/><path fill="#a7b2eb" d="m363.3 229 .7.1q-.1.6-.9.7z"/><path fill="#e1e1fa" fill-opacity=".6" d="m143 307.7-.1 1.1-1-.2q.3-.6 1.1-1"/><path fill="#cecee3" fill-opacity=".6" stroke="#cecee3" stroke-opacity=".6" stroke-width=".5" d="M31 229q-.3 1-1.3.9.5-.7 1.2-.8Z"/><path fill="#d7d9f7" fill-opacity=".6" d="m364.7 227.7.5 1.4H364q-.1-.8.7-1.4"/><path fill="#cacadf" fill-opacity=".4" stroke="#cacadf" stroke-opacity=".4" stroke-width=".5" d="M327.8 109.2q1 0 1.4.8H328z"/><path fill="#bf72af" d="M331 314.9q0 1-1.1 1.1.3-.9 1.1-1.1"/><path fill="#dbdbf2" fill-opacity=".3" stroke="#dbdbf2" stroke-opacity=".3" stroke-width=".5" d="M156.3 328.7q.5.4.5 1l-.7.3z"/><path fill="#e0e0f7" fill-opacity=".5" stroke="#e0e0f7" stroke-opacity=".5" stroke-width=".5" d="M353.1 128.9h1.2a2 2 0 0 1-1.4 1z"/><path fill="#df5b8f" fill-opacity=".4" stroke="#df5b8f" stroke-opacity=".4" stroke-width=".5" d="m129.7 135.2.4.8-1-.3z"/><path fill="#e0d3ee" fill-opacity=".8" d="M129.7 135.2q.6 0 1 .4 0 .4-.6.4z"/><path fill="#dbdbf1" fill-opacity=".5" stroke="#dbdbf1" stroke-opacity=".5" stroke-width=".5" d="M424.9 349.1h1.4q-.6.9-1.6 1z"/><path fill="#de2161" fill-opacity=".5" d="M127.7 136.2q0 .6-.7.5z"/><path fill="#90909f" fill-opacity=".3" stroke="#90909f" stroke-opacity=".3" stroke-width=".5" d="M422.9 350.8q0 1-1.3 1.1z"/><path fill="#dd4882" fill-opacity=".4" stroke="#dd4882" stroke-opacity=".4" stroke-width=".5" d="M122 139.4h.7v.8q-.7-.2-.7-.8Z"/><path fill="#8f5ba9" d="m165.8 181.3 1.3-.3-.3 1.3z"/><path fill="#a0a0ae" fill-opacity=".4" stroke="#a0a0ae" stroke-opacity=".4" stroke-width=".5" d="m111.3 146-1.1 1.4q0-1.2 1.1-1.3Z"/><path fill="#7d89bb" d="M299 140.2q.7 0 1 .8-.6-.2-1-.8"/><path fill="#a4afec" fill-opacity=".4" stroke="#a4afec" stroke-opacity=".4" stroke-width=".5" d="m244 140.7 1.3.5q-.5.8-1.4.8z"/><path fill="#b57596" d="m154 170 1 .2-.2.8q-.6-.3-.8-1"/><path fill="#e1d3ee" d="m155 170.2-1-.2q-.1-.5.4-.7.5.3.6.9"/><path fill="#5b6aa4" d="M299 371q-.1.9-1 .9.2-.7 1-.9"/><path fill="#b6beee" fill-opacity=".2" stroke="#b6beee" stroke-opacity=".2" stroke-width=".5" d="M243.1 142a2 2 0 0 1-1 1q0-1 1-1Z"/><path fill="#96a5e5" fill-opacity=".6" d="M240.4 144q-.5.9-1.4 1 .2-1 1.3-1"/><path fill="#606067" fill-opacity=".3" stroke="#606067" stroke-opacity=".3" stroke-width=".5" d="M123 374.8q.8.1 1.3.9-1.2.3-1.3-.9Z"/><path fill="#8c9ee4" fill-opacity=".7" d="M202 166q-.2 1-1.1.8.3-.8 1-.8"/><path fill="#bfc4f1" fill-opacity=".4" stroke="#bfc4f1" stroke-opacity=".4" stroke-width=".5" d="m197.7 165.3 1.2-.4-.3 1.5z"/><path fill="#abb8ec" fill-opacity=".3" stroke="#abb8ec" stroke-opacity=".3" stroke-width=".5" d="M205.3 163.8q-.5 1.1-1.5 1.3.3-1.1 1.5-1.3Z"/><path fill="#d9d9f1" fill-opacity=".4" stroke="#d9d9f1" stroke-opacity=".4" stroke-width=".5" d="m262.1 379.2 1.2-.2q-.4.9-1.5 1 0-.5.3-.8Z"/><path fill="#c1c8f2" fill-opacity=".7" stroke="#c1c8f2" stroke-opacity=".7" stroke-width=".5" d="m200.4 164.3-1.5.6q.4-.7 1.5-.6Z"/><path fill="#b1b1c2" fill-opacity=".4" stroke="#b1b1c2" stroke-opacity=".4" stroke-width=".5" d="M139.7 384q1 0 1.7.8-1 0-1.7-.9Z"/><path fill="#9aa7e8" fill-opacity=".5" d="M207.3 162.8q-.3 1-1.3 1.3.2-1 1.3-1.3"/><path fill="#899be4" fill-opacity=".7" d="M209 162.3q-.5.3-1.1.3a1 1 0 0 1 1.1-.3"/><path fill="#80808a" fill-opacity=".7" d="M355.3 390q-.3.8-1.4.9.4-1 1.4-1"/><path fill="#9595a2" fill-opacity=".7" d="M353.2 391.1q-.4.6-1.2.6.4-.6 1.2-.6"/><path fill="#bcc2ee" fill-opacity=".2" stroke="#bcc2ee" stroke-opacity=".2" stroke-width=".5" d="m210.2 161.2-1.2 1.1q0-1.2 1.2-1.2Z"/><path fill="#787882" fill-opacity=".9" d="M335.1 393.3h.7q-.2.6-1 .6z"/><path fill="#a9b4e9" fill-opacity=".4" stroke="#a9b4e9" stroke-opacity=".4" stroke-width=".5" d="M212.4 159.8a2 2 0 0 1-1.5 1.3q.3-1.2 1.4-1.3Z"/><path fill="#95a5e6" fill-opacity=".6" d="M214.2 159q-.2.9-1.1 1 0-1 1.1-1"/><path fill="#b3bced" fill-opacity=".2" stroke="#b3bced" stroke-opacity=".2" stroke-width=".5" d="M217 157a3 3 0 0 1-1.2 1.3q.1-1.2 1.3-1.2Z"/><path fill="#a2b0ea" fill-opacity=".4" stroke="#a2b0ea" stroke-opacity=".4" stroke-width=".5" d="M219.3 155.8q-.3.9-1.4 1.2.3-1 1.4-1.2Z"/><path fill="#91a3e7" fill-opacity=".6" d="M221 155q-.2.9-1 .7 0-.9 1-.7"/><path fill="#ccd0f3" d="M292 152.9q-.3.8-1 1.3.1-1 1-1.3"/><path fill="#e1e1f9" fill-opacity=".2" stroke="#e1e1f9" stroke-opacity=".2" stroke-width=".5" d="m255 412.2 1-.2q0 1-1 .7z"/><path fill="#aeb9ec" fill-opacity=".3" stroke="#aeb9ec" stroke-opacity=".3" stroke-width=".5" d="M224.3 152.8q-.3.9-1.3 1.2.1-1 1.2-1.2Z"/><path fill="#9facea" fill-opacity=".5" d="M226.4 151.7a2 2 0 0 1-1.4 1.4q.2-1.1 1.4-1.4"/><path fill="#a4b1ea" fill-opacity=".4" stroke="#a4b1ea" stroke-opacity=".4" stroke-width=".5" d="M238.3 144.7q-.3 1.2-1.5 1.4.5-1 1.5-1.4Z"/><path fill="#8d9fe6" fill-opacity=".7" d="M228 151q-.2.9-1 .6.1-.6 1-.6"/><path fill="#a66d8a" d="m167.2 151 .8.8h-1z"/><path fill="#abb7ec" fill-opacity=".3" stroke="#abb7ec" stroke-opacity=".3" stroke-width=".5" d="M231.3 148.9q-.3 1-1.4 1.2.2-1 1.4-1.2Z"/><path fill="#98a7e8" fill-opacity=".5" d="M233.3 147.7q-.3 1.1-1.3 1.3 0-1.1 1.3-1.3"/><path fill="#d5d5ed" fill-opacity=".5" stroke="#d5d5ed" stroke-opacity=".5" stroke-width=".5" d="m108.2 148.1-.2.8h-1.2q.3-.8 1.4-.8Z"/><path fill="#889ae4" fill-opacity=".7" d="M235 147q-.2.9-1.1.6.3-.6 1-.6"/><path fill="#9a9aaa" fill-opacity=".6" d="M8.2 248q-.4.7-1 .8 0-.9 1-.7"/><path fill="#e1e1f9" stroke="#e1e1f9" stroke-width=".5" d="M250.7 107c11.2.2 22.5-.2 33.6 1.9l-.6 1.1c-4.8 3.2-31 18.7-32.7 21.8a114 114 0 0 0-48.3 12.5q-8.3 4.4-16.2 9.5c-1 0-6.4-5.5-6.5-6.6q3.7-1.8 7-4.2c-.2 1.3 1.3 1.2 2 .6l61-35.1q.9-.7.7-1.6Zm16.3 2q-2.3 0-3 2-1.2-.3-2 .6c.6 1 1.7.1 2-.6q2-.2 3-2 1 .2 1.7-.7c-.5-1-1.6-.2-1.7.7Zm29 1.8c1.8.1 13.7 2 14 3-3.9 3-30.1 18-30.8 20.4q-8.7-1.4-17.5-2.3c.4-.6 30-17.4 33.4-19.4q.9-.6.8-1.7Zm34.1 8.8a156 156 0 0 1 11 4q-1.1.4-2.1 1l-27.6 17.2q-.9.5-1.2 1.5c-3 1.9-7.2-1-10.1-2.3q-.4-.7-1.2-.8l-4-1.4q3-1.6 5.8-3.7.6 1 1.6.9.7-.9 1.7-1.5l9.1-5q1-.4.5-1.2.9.1 1.7-.2zm12.8 5.3a29 29 0 0 1 10.2 4l-.3 1-1 .6c-4.4 3.3-30.2 18.4-31.9 20.8l-1.8-1.3q-.4-.7-1.3-1-.5-1.2-1.8-.9c-1.6-1-5-1.5-5.2-3.7l31.9-18q.9-.6 1.2-1.5Zm-197.8 4q2.1 2 3.9 4-4.5 2.2-8.7 4.7a1 1 0 0 1 0-.9q2.6-3.7 4.8-7.8Zm214 2.8q5.3 2.2 10.3 4.9l-2.4 1-33 21q-.9.6-1 1.7-1.5-1-2.7-2.3-.4-1-1.2-1.1a1 1 0 0 0-1-.6q-3-1.3-5.2-3.3l34.7-20zm-231.4 4.5 1.4-.5 1 .3c-.3 2.3-2.7 5.4-4.2 7.2a7 7 0 0 1-3.2-3v-.8q2.4-1 4.3-2.7.7.2.7-.5Zm247.3 3.7c1.9 1 7.3 3.5 8.2 5.2l-.4 1-36.9 23.3q-.9.7-1.2 1.9L342 168q0-1.1-1.2-1 0-1-1-1a6 6 0 0 1-3.1-3.2l.6-.9c5.5-3.1 35.6-19 37.6-22.1Zm-112.9 1q2.1 0 4.1.3v.8q-6.6 3.6-13 7.7a29 29 0 0 1-5.2 2.4q0-.7.5-1l12.5-8.6q1-.7 1.1-1.6Zm-31.1 2q0 .6.3 1.1L203 162.4a4 4 0 0 1-2.6 1.9q.1-1.7 1.5-2.9c5.7-4 12.9-10.6 18.1-15.4q5.3-2.5 11-3.1Zm-67.2 4.8q2 1.5 3.4 3.4l-.1.7q-3.7 2.3-7.8 4.4l-.5-.5q2-4.2 5-8Zm-57 1.3q0 .9-.9 1.5a108 108 0 0 0-11.7 8.8q0-2.7 2.2-4.4 4.5-2.4 8.6-5.4.9-.6 1.8-.5Zm22.8 110.8-2 1.6c-.4-2.2-2.5-.3-3.6.3l-71 41q-.8.5-1 1.4-4-3-6.8-7.3c4.2-2.2 37-22.4 37.6-23.6l1.4-.2c2-1.5 5.6-2.9 6.8-5a7 7 0 0 0 5-3q1.5.4 2-1a4 4 0 0 0 3.1-2c.5.2 2.4-.4 1.4-1q-1.2 0-1.4 1-2.2 0-3.1 2-1.3-.2-2 1c-1.6.1-4.4 1.5-5 3-2.2 0-5.5 2.5-7.2 3.9l-1 .5Q64 283 45.4 293.8q-.8.4-1.5 1.2a97 97 0 0 1-13.1-16q1.2-.1 2.2-.7l51.3-32.6q6.7-3.8 13-8 1.2-.6 1.5-1.7 3.4-.3 5.2-3 2.1 0 3-2c.5.2 2.9-.3 1.6-1q-1.3-.2-1.6 1-2 .3-3 2a8 8 0 0 0-5.2 3q-.9 0-1.8.5l-14 8c-1.2 1.6-8.5 5-10.7 6.3l-43.6 25.5a61 61 0 0 1-6-8.1q1.8 0 3.4-1.1l1.2-.8q1.9-1 3.5-2.6l1.5-.7 1.6-1.2 1.4-.7 2-1.2 1-.8L40 258l3-2 1.3-.7 3-2q2-1.2 3.6-2.6.7-.1 1.5-.7l1.4-1.2 1.4-.8 2-1q.6-.4 1-1 1-.3 1.9-1l4.2-2.7L66 241l1.2-.8q2-1 3.4-2.6.9 0 1.6-.6l1.4-1.4q.9 0 1.5-.7l2-1 1-1q1-.4 1.8-1l1.2-.8L83 230l1.2-.8L86 228l1.2-.8 3.5-2.5q.9-.2 1.6-.8l1.4-1.3q.8 0 1.5-.6l2-1 1-1 1.7-1.1 1.2-.8 4.9-3.1 1.2-.8 6.5-4.5 1.5-.7q.8-.8 2-1.1l1-1q1-.8 2-1.3c1.6-.8 4-1.9 4.6-3.6 1.5 0 4.6-1.6 5-3.1q2.4 0 3-2 1.5.2 2-1c.7-.4 4-.9 2.7-2q-1.7.4-2.7 2-1.3-.2-2 1-2 0-3 2a7 7 0 0 0-5 3.1q-1-.2-2 .3-2 1.4-4 2.3-1.8 1.4-4 2.3l-1.2.7c-.8 1.5-2.5 1.3-3.8 2.2l-1.2.8-.9.5-1.1.7-3.7 2-1.2.9-.8.4-1.3.7-5 2.9-3.8 2.1-1.2.8-.6.6q-.8.2-1.3.6l-5.1 2.8-1 .5-1 .8a37 37 0 0 0-5 2.8l-.8.4q-.6.2-1.2.7l-1.8 1-1.2.8-.6.6q-.8 0-1.4.6l-5 2.8-.7.5-1.2.8a33 33 0 0 0-5.9 3.2l-1.3.7-3 1.7-.6.4-1.3.7a37 37 0 0 1-5 3l-.7.6a20 20 0 0 0-5 2.7l-1.3.8-.8.4-1.3.8-4.9 2.8-5 3-.9.4-1.1.7-3.7 2-1 .4c-1.3-1.3-3.4-3.7-3.5-5.6A99 99 0 0 1 26.7 235q1.2.2 2.3-.4l33.6-21.5 3.3-2.4c2.6-1.5 6.3-3.2 8.2-5.7q1.5.3 2-1 2-.2 3-2 1 .1 2.1-.4 1.9-1.6-.6-1.3-1 .6-1.6 1.7-2.2 0-3 2-1.5-.5-2 1c-2.1-.2-5.5 3-7.7 3.8q-.8.5-1.4 1.4c-1.2-.3-2.8 1.3-3.9 1.8q-15 8.8-30 17 .6-2.3 2.3-4.3c22.4-29.4 53.2-52.8 82.6-75q.6-.3 1.3-.2 18.2 17.7 36 36 .2.9-.3 1.8a116 116 0 0 0-23.3 72.5Zm260.4-111q4.8 2.9 9.1 6l-1.3.7-40.8 26.1q-.9.6-1 1.7-3.9-4-7.5-8.3-.3-.4-.2-1 .3-.2.7-.2 20-12 40-23.3 1-.7 1-1.6Zm-245 12.7a25 25 0 0 1-4.2-3.7q4.6-3.2 9.6-5.6.5.3 0 1zm166.9-2.4q2.4.3 4.4 2-.7 1.2-2 1.7Q290 177 265.5 191q-.6.3-.8 1.1l-1.7.1a2 2 0 0 1 1-1.7zm94.3.6 7.2 5.5q.4.6.3 1.2-.9-.6-1.8 0a147 147 0 0 1-13 8q-.9.7-1.2 1.8c-1.6-.8-4.3 1.8-5.7 2.5l-.8 1-1.4.3-10.8 6.6-1 1.4q-1.4-.2-2 1-2.1.2-3 2-1.5-.2-2 1-1 0-2.1.5-2.1 1.6.4 1.3 1.2-.6 1.7-1.8 1.3.2 2-1 2.1 0 3-2 1.4.3 2-1 2.4-.6 4.6-2c.9-1 7.4-3.9 7.3-4.8l1.3-.4 6.4-3.7q.4-.4 0-1 2.6 0 4.5-1.6l12-6.9.7-1q4.4 2.8 8.3 6.3-1 .2-2 .8-25.1 15.6-50 31.7l-1-.2c-1.5-.7-9.7-15.8-11.3-18.3q23.8-13.5 47.4-27.2ZM167 181l-1.3.3q-2-1.3-3.2-3.3 3.3-2.2 6.8-4 .7-.6 1.6-.2zm259-5.3q4.5 3 8.2 7-1.2 0-2.4.6L376 219a1 1 0 0 1-.7-.6l-4.1-10.6q.9.2 1.6-.3l52-30q1-.6 1.3-1.7Zm12 10 7.2 7q-1.2 0-2.4.6l-62.7 40.1c-1.6-2.7-2.8-9.3-4-12.5q1.3 0 2.5-.6zm-90 8.2q.8.5 1.2 1.4-.3.8 0 1.4l-23.7 13.4q-2.7 2-5.6 3.6-1 .3-2.1.4a2 2 0 0 1 1-1.5q14.7-9.1 29.1-18.7Zm100.9 2.8a36 36 0 0 1 7 7.3q-1 0-1.7.6l-70.4 44.8-1.8 1.8q-.4-7-1.5-14l67-38.9q1.2-.5 1.4-1.6Zm-94.4 7q1 1.4 1.4 3.2a576 576 0 0 0-36 20.7l-2 .4a2 2 0 0 1 .9-1.5q18-11.1 35.7-22.8ZM460 208q6.4 7.6 13.2 15-1.3 0-2.3 1-.7.2-1.2.7l-.8.6-1.2.6-1.6 1.4q-.8 0-1.4.7l-1.7 1-1.2.8-3.1 2-3 1.9q-2 1.1-3.6 2.5-.8 0-1.4.7l-3 1.9-3 2-1.8 1-1.2 1-.7.4q-.8.2-1.4.8l-1.4 1.3-1.5.7-3 1.8-3 2-1.8 1-1.2 1q-.4 0-.8.4a9 9 0 0 0-2.7 2l-1.6.8-4.7 3-1.2.7-1.8 1.2-1.2.8q-2 1-3.4 2.6-.8 0-1.5.7-1 .4-1.8 1l-1.2.8-1.9 1.1-1.2.8-1.8 1.2-1.2.8q-2 1-3.4 2.5-.8.2-1.5.8l-3 1.8-1.9 1.1-1.2.8-1.8 1.2-1.2.8q-1.9 1.1-3.5 2.5a4 4 0 0 0-1.6.8l-.8.2c2-10 2.4-19.2 2.4-29.3q1.2-.3 2.3-.9l74.2-42.7q.8-.5 1.3-1.3Zm-291 .9c-2 2.8-18.9 13.7-23.1 16.2q0-2.2 1-4c4.6-2.4 18.3-11.4 22.2-12.2Zm13.3 6 2 1.2c-12.5 9.6-28.4 20-41.7 29.1-.5-1.8.5-5.4.5-7.3q19.7-11.3 39.2-23Zm177.8.1q1 1.3 1.1 2.9-13.7 7.5-27 15.6-1.2-.1-1.3-1.2 13.3-9.2 27.2-17.3Zm97 6q-2.2.2-3.1 2-1.4-.2-2 1-2.2-.2-3 2.1-1.2-.3-2 .6c.6 1 1.6 0 2-.6q2.1-.5 3-2 1.5 0 2-1.1 2 0 3-2c.5.2 2.8-.3 1.6-1a2 2 0 0 0-1.6 1Zm-314.3 40q-.9-2.4-.4-5c16-9 32-17.8 47.6-27.6q1-.5 1.9.1c-.2 1.4-2.3 1-3 1.8a2131 2131 0 0 1-46.2 30.8ZM477 227.9l6.3 7.2q-1 1.2-2.5 2-.6.2-1.2.7l-3.5 2.4-1.5.9-1.7 1-4.3 2.7q-1.9 1-3.5 2.6-.8.2-1.4.6l-1.7 1-1.2.8-3.1 2q-1.9 1-3.4 2.4l-1.6.7q-1 .7-2 1.1l-1 1-1.8 1-1.2.7-1.8 1.2-1.2.8-.6.6q-.8.2-1.5.6-.8.7-1.8 1.2l-1.1.9-3 1.7-1.8 1.2-1.2.8q-1.9 1-3.5 2.6-.8.2-1.4.6L426 272l-1.2.8-3.1 2q-1.9 1-3.5 2.4l-1.6.8-1.9 1-1 1-1.8 1-1.2.7q-1.6 1.5-3.5 2.5a3 3 0 0 0-1.6.7q-.8.8-1.9 1.2-5.7 3.9-11.7 7.5-.7.6-1 1.3-1.3 0-2 1-2 .3-3 2a2 2 0 0 0-2 .8c.7.9 2 .1 2-.8q2.1 0 3-2 1.5.5 2-1 1 0 2-.6l12.1-6.9a20 20 0 0 1 4-2.4l1.2-.7 1.8-1.2 5.2-2.8.8-.4 1.2-.8 5-2.8 5-3 2-1.3 5-2.7.8-.5 1.2-.7 5-2.8.6-.5q.8-.2 1.3-.7l3.8-2.1 1.3-.8 5-3q.4 0 .8-.4a2 2 0 0 0 1.2-.8l5-2.7.7-.6q.8 0 1.3-.7l3.7-2q.8-.3 1.3-.7l.8-.5 1.2-.7 3-1.8q.4 0 .7-.3.8-.3 1.3-.7l5-3 .6-.6q.8-.2 1.3-.7a12 12 0 0 0 3.2-1.7l.6-.5q2.5 3.6 5.4 7.1-.3.7-1 1-31 19.5-61.7 39.2l-13 8.2q-1.2.6-1.6 1.6c-1.9.2-4.2 1.4-5 3.2q-1.2-.1-2.3.3-2 1.6.5 1.2 1.2-.5 1.7-1.5c2 0 4.1-1.6 5-3.2 2.3.2 13.2-7.5 16-8.6l61.4-35.4 1.4-1.3.9.4c-.4 6.3-10.2 30.8-16 33.3q-.5.3-.5 1c-3-.1-34 22-39.6 24.8l-8.6 5.6a2 2 0 0 0-1 1.2 3 3 0 0 0-3 2.1q-1.1-.3-1.9.7c.6 1 1.8 0 2-.7q2.1-.1 3-2 1 0 2-.4l9-5.3 31.8-18.4c-1.6 5.7-34.1 34.5-41 39.3L395.3 361q-1.3.6-2.5-.2l-5-5q-1.5-1 0-2.3c-1.3-.5-2.3 0-3.3-1.3a1261 1261 0 0 1-24.7-24.4q-1.3-1.2-.3-2.6a129 129 0 0 0 19.4-40.4l1.2.2 1.3-.8 5-2.8.6-.6q.8-.2 1.3-.6l3-1.8q.4 0 .7-.3l1.3-.7 5-3 .7-.6 1.2-.7a36 36 0 0 0 5.1-2.7l.6-.6q.8-.1 1.4-.7l10-5.7.7-.6 1.4-.6 5-2.8.6-.5q.8-.2 1.2-.8l5.1-2.7.8-.5 1.3-.8 8.7-5q.6-.2 1.2-.7l.7-.6q.8 0 1.2-.7a29 29 0 0 0 5.1-2.7l.7-.5 1.4-.7 5-2.8q.2-.3.6-.5l1.4-.8 3-1.7.6-.2q.8-.4 1.3-.9l.8-.4 1.2-.7 1.8-1 1.2-.8.7-.5 1.3-.7 3.8-2 1.2-.8q.7-.7.8-1.5Zm-286 18-46 30.3q-1-2.5-1-5.2 22.8-13.2 45.9-26.3 1.6-.5 1.2 1.3ZM76.2 264c-1.9-.1-4.2 1.5-5.1 3-1.7 0-4.5 1.4-5 3.1-2-.3-5.5 2.3-7 3.6l-1.4.6-12 6.8c-1.7 1.3.4 2.4 1.5 1.3l10-6.1q.6-.4.7-1.2l1.5-.2c2-1.8 5.3-2.6 6.7-4.8q3-.6 5-3 3-.6 5-3c.6 0 2.5-.5 1.4-1.2q-.9.2-1.3 1.1Zm105.8 2a2 2 0 0 1-1 1.4l-32.7 21-.6-3q15.1-9 30.4-17.6a5 5 0 0 1 3.9-1.8Zm302.6 3.5q-.7-.6-1.7-.2l-12 7.5-1 1.2q-1.3 0-1.8 1-2.2.3-3 2.2-1.1-.3-2 .6c.6.9 1.8.2 2-.6q2.1-.3 3-2.1 1.5.3 1.8-1 1.2 0 2.1-.6l12.6-7.3q.3-.4 0-.7c1-.2 4.6-1 3-2.5q-2.4.1-3 2.5Zm-115.5.6q0 4-1.2 7.9-18.2 10-36.1 20.5a3 3 0 0 0-1.6-.1l-.3-1.3q19.4-13.8 39.2-27Zm-237.2 6.7q1.4 6.3 3.2 12.5-1 0-1.8.4l-61.5 35.7q-3.3-3.6-7-7 1.5-.3 3-1zm57 9.3q-1.2 1.6-3 2.6L157 307q-.9-.9-1.3-2 .7-.8 1.7-1.4l27.1-15.6a5 5 0 0 1 4.5-2Zm-53.2 6.6c1.5.4 4 9.6 5.4 11.3l-2 .7L86.4 335q-.8.6-1.5 1.4-4-2.7-7.2-6.3 27.9-18 56-35.7zm64.4.1c.2 2.2-2.4 2.1-3.7 3.2q-16.5 11-33.4 21.4a7 7 0 0 1-1.5-2.3q18.3-10.7 36.5-21.6zm7 10.2q-.2 1-1.1 1.5L172.5 326a8 8 0 0 1-2.5 1.2l-1.4-2.3 1.5-1.2c5.5-3.1 33.4-20.6 37-20.8Zm-65.3 5.8 1.1.1a28 28 0 0 1 5.9 10 36 36 0 0 0-13 7.2 3 3 0 0 0-1.8.5l-16 9.1 1 1.1q-2.6 1.5-5 3.3-.2-1.2-1.3-1l-9.8 5.5q-2.1 1.1-3.6 2.9c-3-1.1-6.4-4-8.6-6.4q1 0 2-.7zm70.4 5.4c-.1 1.7-2.3 1.3-3.4 2.2l-2.8 2.3-28 17.5q-.8-.7-1.1-1.9l33-19.7zM218 364c-1.8-.6-6.2-2.2-7.2-3.6 22.3-13.5 46.3-26.2 68.2-40q1-.4 1.7.3c0 1-2.3.8-2.9 1.6q-29.7 21-59.8 41.7Zm-61.9-34 .7-.1c2.1 1 5.1 5 6.4 7.1l.2 1.4c-14 7.8-29.7 15.5-42.4 25l-9.3-6q1.2-.3 2.3-1zm139.2.2-56.5 40.6q-4.6-.8-8.8-2.4-.1-.8.4-1.3c20.4-11.7 42-24.6 62.6-36.7zm55.6 4.7q2 1.5 3.4 3.4-3.6 2.6-7.8 4.5-.5-.9.2-1.7 1.8-3.3 4.2-6.2ZM166.2 340q3 2 5 5l2.2 3.2q-18.4 11.1-37 21.6-1 .6-1.4 1.5c-1.6-.3-8.5-4.1-9.3-5.4l39.2-24.6q.8-.6 1.3-1.3Zm224.6 10.8q-1.6 1.2.4 1.2l4.7-3.6c-.9-1.2-4.3 1.6-5.1 2.4Zm-99.7.1c-4.8 5.4-24.9 17.6-28 22q-5.1.3-10.2-.3c11.7-6.9 26.2-16 38.2-21.7Zm-113.4.7a8 8 0 0 0 4.5 2.1q2 1 4 2.5l.6.6v2.5q-.9-.2-1.8.3l-33 19q-.6.8-.8 1.5c-2-.9-8.6-3.4-9.3-5.2q0-.3.4-.6 17.7-11.2 35.4-22.7ZM371 355q1.7 1.4 3 3 0 .6-.6.9l-6 3q-.6-.5-.2-1.2zm-37.9 12.6C311 379.7 289 393 267 405.6q-.7.5-1 1.2-9 .4-18.2 0 5-3.2 9.7-6.6l1.6-.7q1-1.5 3-1.9l11.8-7.4q.7-.4 1-1l1.3-.2c1.5-1.3 6.1-3.2 6.8-5a7 7 0 0 0 5-3c.5.2 2.6-.4 1.5-1.1q-1 0-1.5 1-3 .7-5 3.1c-2 0-5.5 2.5-7.1 3.7l-1.2.7q-.9.4-1.5 1.3l-2.3.7q-5.3 3-10.4 6.5-2.8.9-5 3a77 77 0 0 0-9.2 4.8q-1 .5-1 1.4a55 55 0 0 1-15.3-1.3l.3-.9 36.7-23.3q1-.7 1-1.8 13.8-1.8 27-6 1.3.3 2.1-.8l.9-.1q.9 0 1-.9 5.7-2.4 11.3-5.2l14.2-8c1.2-.1 7 6.6 8.3 7.7q1 1 .4 2ZM192 360.3q2.7 1 5 3c.4 2.5 2.8 2.5 5 2.4q6 3 12.1 5.2l-.4 1.2q-16.5 9-32.7 18.6a2 2 0 0 0-.9 1.4 94 94 0 0 1-22.4-9.1l.4-.6 31.6-20q1.4-.8 2.3-2Zm159.8 8.8-3.8-4 8.3-4-1 2.5zm-16.8-1a172 172 0 0 1 9.3 8.8 2 2 0 0 1-.8 1.1L304 400.7q-.6.5-.7 1.4-12 3-24.5 3.8.3-.6.7-.9l53.9-35.2q1-.6 1.6-1.7Zm-146 7c-1.8-.3-4 1.4-5.1 2.8-1.8 0-4 1.7-5 3-1.8.2-4.3 1.4-4.9 3.2-1.4-.4-4.6 1.3-5 2.5.7 1.4 4.7-1.5 5-2.5 1.5-.3 4.6-1.5 4.9-3.1 1.4-.1 4.7-1.4 5-3a8 8 0 0 0 5.1-3c.5.2 2.5-.4 1.4-1q-1 0-1.4 1Zm32-1.3 16.2 3.8-3 1-32.3 18.8q-1 .6-1 1.9-6.5-1.7-12.9-4c5.8-3.5 29.7-18.5 33-21.5Zm22 4.4q9.6.9 19.1 1l-.3.7q-19.8 11.2-39.5 22.7a2 2 0 0 0-1.2 1.3c-2.7-.8-10.1-1.4-12-3q0-.5.3-.8zm106.2 3.5c.5 1 4.7 4 3.2 5.1q-8.2 3.6-16.6 6.5h-.7c1.3-3.5 11.2-8.4 14-11.6Zm0 11.6-.5.7-7.8 4.2q-2 .6-3.7-.4 0-.4.4-.5 5-1.5 9.4-3.8 1-.3 2.1-.2Z"/><path fill="#dedefa" fill-opacity=".2" d="M174 384c-.3 1-4.3 4-5 2.6.4-1.2 3.6-2.9 5-2.5"/><path fill="#72727b" fill-opacity=".1" d="M484.6 269.4q.6-2.4 3-2.5c1.6 1.4-2 2.3-3 2.5"/><path fill="#e1e1fa" fill-opacity=".5" d="M79 202q.6-1.2 1.6-1.7 2.6-.3.6 1.3-1 .5-2.2.4m331 98q-.6 1.2-1.7 1.6-2.4.5-.5-1.2 1.1-.4 2.2-.3"/><path fill="#e1e1f8" fill-opacity=".5" d="M135 196q.8-1.5 2.6-2c1.4 1.2-2 1.6-2.7 2"/><path fill="#e0e0f8" fill-opacity=".3" d="M77 229q-.2 1-1.2.8zm396 13q-.3 1-1.2.7z"/><path fill="#262626" stroke="#262626" stroke-width=".5" d="M28.3 6q9.6.1 16.5 6.7c37.3 34.7 71.3 72.7 108 108q.7.3 1.5 0a228 228 0 0 1 115-21.7l16.4 1.2q.6.6 1.5.8c6.4.1 14.9 2.7 21.5 3.4q1.1.7 2.5.7l.6.1q.5.8 1.4.8l12.8 3q.5 1.1 2 1h1.2q.4 0 .7.3.5.6 1.4.7 5 1.4 9.6 3 .9 1.2 2.4 1l11.5 4.3 1.3 1q3.3 1 6.6 2.5A347 347 0 0 1 505 243.5c1.4 2 1.9 6.5 2 9-4.3 36.6-52 72.6-79.1 94.4q-.7.5-.5 1.4-1-.3-1.1.7l-1.4.1-1 .4-1 1.2-1.3 1.2-20 15.1q-.9 1-.3 2.2l103.6 103.4c6 7 5.7 15.7.1 23-.8.8-3.2 2.4-2.6 3.8q-1-.3-1.6.7-1.7 1.1-3.7 1.9-.8 0-1.3.8l-.5.3q-1 0-1.4.9l-.8.1q-1.6-.2-1.9 1.3c-1.5-1.3-6 1.2-8.3.2l-.5-.3-15.1-8.2q-.6-.9-1.4-1.4c-42-29.1-69.8-71.7-108-105q-1-1-2.6-.8-1 0-1.4 1l-.7.2q-.9 0-1.2.6c-.5 0-2.3.3-1.6 1.3l-1.3.3-2 .2q-4.6 2.3-9.5 3.8-.3 0-.4.5a269 269 0 0 1-49.1 12l-1 .3q-3-.4-5.8.9l-1.4-.2A219 219 0 0 1 256 412l-1 .2q-3-.4-6.2-.3l-21-1.7q-7.5-1-14.8-2.5l-1.2.4q-2.2-1.5-4.8-1.2l-1-.2q-7-1.6-13.7-3.6c-2-.1-4.7-2-6.6-1q0-.6-.7-.9l-14.7-4.4c-.5-1-3.2-1.5-4.2-1.9l-1-.3q-3.5-1.2-6.8-2.8a5 5 0 0 0-3.6-.6q.1-1-1-1.1l-14-6.2c.1-1-1.5-1-2-1l-14.7-8.1C78 350.2 37 311.9 7.9 269.6c-3-4-2.2-9.7-1.9-14.4V254q1.5-2.4 1.2-5.1.7 0 1-.7 1.3-4.2 3.5-8c18.3-32.1 53.3-59 82.5-81a108 108 0 0 1 11.7-8.8q1-.6.9-1.5l1.2-.1a2 2 0 0 0 1.2-.8q.6-.2 1-.7l1.1-1.3q1.5-1.5 0-2.8Q58.7 91 6.8 38.5c-6-7.7-5.1-15.7.3-23.3l1-.8a3 3 0 0 0 1.1-1.5q5-3.2 10.5-5.7A91 91 0 0 1 28.3 6Zm.9 37a5 5 0 0 0 2.6 3.3c.7 2 6.6 9.3 8.5 9.7q.3 2.3 2.3 3.3c1.4 1.8 6.6 8.8 8.7 8.5q-.2 2 1.3 3.1c2.3 1.8 5.2 6 7.6 7.3q.3.7 1.1.7c0 1.5 6.3 8 8 8.2q-.2.6.3.9c1.5 1.9 5.2 6.5 7.5 7.2q.2.6.8.8c.4 1.5 5.3 6.9 7 6.8q.2 1 1.4 1.3-.1 1 .5 1.7c1.9 1.6 4.2 4.7 6.4 5.5q.3 1.3 1.5 1.6c1.3 2.3 5.2 5.8 7.4 7.4q.5 1.2 1.6 1.5a38 38 0 0 0 7.5 7.5 5 5 0 0 0 2.8 2.3c.8 2 6 6.6 8 7.8q0 .6.7.8a7 7 0 0 0 3.2 3 241 241 0 0 0 19 18.3c1.5 1.5 7.5 8 9.1 8.5q.2.7.8 1 3.6 4 7.8 7 1.2 2.1 3.2 3.3l1 1q3.9 4 8.2 7.7a9 9 0 0 0 3.1 3 869 869 0 0 0 22 21.4q1 1.5 2.6 2.8 6.6 9 15 16a9 9 0 0 0 3.2 3 84 84 0 0 0 8.9 8.8 11 11 0 0 0 3.2 3q10.7 11.3 22 22 1.8 2 3.7 3.8 3.6 3.8 7.3 7.3.5.4 1.1.3a6 6 0 0 1 2.5-1.2c1.6 1-1.8 2-.8 3.8q3.4 3.6 7.2 7a7 7 0 0 0 3 3 39 39 0 0 0 8 8.1 3 3 0 0 0 1.7 1.9q3.3 4 7.1 7.4.6 1.3 2 1.7c.9 2.2 5.5 6 7.2 8l4 4a123 123 0 0 0 11.1 11.1q3.5 4.5 8 8.2 1.5 2.2 3.7 3.8a215 215 0 0 0 20 20.8l9.1 9a42 42 0 0 0 7.3 7.3q.9 1.7 2.4 2.6c1.9 2 13.6 14.9 15.3 14.8q0 1 1 1c.4 2.2 5.4 6 7 7.7q1.1 1.9 3.1 2.3c.1 2 6.6 7.6 8.3 8.6q.2.6.9.4 0 .9.7 1.2c1 2.1 5.3 5.7 7.2 7.5l1.6 1.5c2.2 2.4 5.4 6 8.4 7.5q.3 1.2 1.5 1.7a123 123 0 0 0 14.4 13.6q.3.7 1 1.1l14 13.5q1.8 1.6 3.7 2.6c2.3 3 6 6.7 9.5 8.4q.6 1.8 2.5 2.4c1.7 2.6 7 6.6 9.6 8.7.9.9 3.1 3.5 4.3 3.4 1 1.1 3.8 4.6 5.4 4.4 8.3-5.5 6.9-18 1.2-24.5q-.5-2-2-3.6c-1.8-2.3-4.9-7-7.4-8.4q-.1-.7-1-1-.6-1.9-2.6-2.6-.2-.8-1-1a73 73 0 0 0-15.4-14c-.2-2.1-12.3-11.6-14.6-13.4l-.8-1q-.6-.5-1.2-.5c-.8-1.8-6.4-7-8.3-7.4q0-.6-.3-1a136 136 0 0 1-7.6-8.8q-1.2-.9-1.7-2l-7.4-7.4q-1.3-1.5-3-2.4a408 408 0 0 0-24-24.1q-.6-1.4-1.9-1.8c-.7-2-6.2-6.7-8-8.3q-.2-.9-1-1.2a271 271 0 0 0-11-10.8c-1.7-1.9-6-6.8-8-7.9q-.3-.8-1-1.2-3.7-4-7.7-7.7-1.6-2-3.4-3.4c-2-2-6.3-7.3-8.7-8q0-1.4-1.2-1.8l-1.8-2q-4-4.2-8.2-8.1l-3.7-3.9-8-8a6 6 0 0 0-2-1.9 93 93 0 0 0-7.3-7.1q-.7-1-1.8-2l-10.9-11-7-6.9c-1.3-1-2.9.6-4.2.7q.4-1.5 1.3-2.8 0-.6-.3-1a166 166 0 0 0-10-10.2L242.8 227c-.7-.9-2.8-4.3-3.9-4a277 277 0 0 0-18-18 710 710 0 0 0-24.6-24.4 78 78 0 0 0-7.5-8q-2.2-2.4-4.7-4.6a88 88 0 0 0-9.3-9.2 110 110 0 0 0-7.7-7.8q-1.5-2-3.4-3.4A520 520 0 0 0 145 129l-10-10-9.9-9.9c-1.2-1.1-7.2-7.9-8.3-7.8q-.2-.8-.8-1a48 48 0 0 0-8.5-8.1q0-.9-.6-1.5c-4.2-3.7-10.5-11-14.8-13.8l-.4-1Q83 67.5 74.8 59q-.5-1-1.4-1.9L65 48.7q-1.2-1.5-3-2.5-4-4.9-8.9-9.4-1.4-1.5-3.2-2.5c-.5-1.4-7.7-8.9-9-9q0-.7-.8-1.2-3.4-3.8-7.2-7.5a27 27 0 0 0-14-1c-8.5 4.2 6.4 23.2 10.3 27.4Zm157.5 74.8c-5.2.7-16 5-21.3 7.2a2 2 0 0 0-1.6.8l-.6.2c-.4.1-2.1-.1-2 .7-1 .1-1.7 1.2-.5 1.6q1.2 1.8 2.9 3.1l14.7 14.8q.7.7 1.7 1c0 1 5.5 6.5 6.5 6.6q7.9-5.1 16.2-9.5a114 114 0 0 1 79-9.3q.8 0 1.4-.2c2 1.4 9.2 3.2 11.9 4l4 1.4q.4.6 1 .8c3 1.3 7.2 4.2 10.2 2.3l1.1.2a2 2 0 0 0-1.5.9c.2 2.2 3.6 2.7 5.1 3.7q.7 1 2 .9.3.7 1.2 1l1.8 1.3 3 1.7q2.3 2.1 5.1 3.3.3.8 1 .6.3 1 1.2 1.1l2.8 2.3q1.3 1.5 2.8 2.6h1a6 6 0 0 0 3.1 3.2q.4.7 1 1 .4.6 1.2 1 0 .8.7.9a40 40 0 0 0 4 4.4l1.5.6q-.1.6.2 1 3.6 4.3 7.5 8.3c.7 1 1.4 3.2 2.8 3.6 1.6 2.5 9.8 17.6 11.3 18.3v1.1q.3.8 1 1.5l4 10.5q.2.5.8.6 0 1 .3 2c1.2 3.2 2.4 9.8 4 12.5-.8 1 .2 2.8.4 3.8a140 140 0 0 1 1.6 15.7c0 10.1-.5 19.3-2.4 29.3l-.9 2.5a129 129 0 0 1-19.4 40.4q-1 1.4.3 2.6a1261 1261 0 0 0 24.7 24.4c1 1.3 2 .8 3.3 1.3q-1.5 1.2 0 2.4l5 5q1.2.8 2.5 0l35.6-27.5c6.9-4.9 39.4-33.7 41-39.4a2 2 0 0 0 1.5-.8c1.3-1.4 4.8-5 4.9-6.9q-.2-.6.4-.9c5.8-2.5 15.6-27 16-33.3l.2-1.3-2.5-3.8-5.4-7a45 45 0 0 1-3.6-5l-6.3-7.1q-1.6-2.7-3.9-4.8-6.8-7.3-13.2-15a17 17 0 0 0-4-4 36 36 0 0 0-7-7.3l-3.7-4-7.1-7-3.9-3a51 51 0 0 0-8.3-7q-1.2-1.6-3-2.8a64 64 0 0 0-8.2-6.3q-.5-.5-1.1-.2 0-.6-.3-1.2a264 264 0 0 0-29-20.1h-1.2c-.8-1.7-6.3-4.3-8.2-5.2l-5.6-3.3q-5-2.7-10.3-5l-4.7-2.6-1.3-.1c-2.8-1.6-7-3.7-10.2-4q-.6-1-1.7-1.2a156 156 0 0 0-14.3-4.9 47 47 0 0 0-12-3.8 10 10 0 0 0-5-1.2c-.2-1-12.1-2.9-14-3a36 36 0 0 0-11.6-2c-11-2-22.4-1.6-33.6-1.9q-3.7 0-7.5.3a215 215 0 0 0-56.5 10.6Zm58.6 23.4-1.4-.5q-4.8.2-9.6 1.2c-.8.2-3 0-3.3 1q-5.7.6-11 3-14.1 4.8-26.4 13.2-.9 1-.3 2l4.4 4.2 1 1 1 1q15 15.3 30.1 30.4.7.5 1.7.2l8.5-3.5a83 83 0 0 1 23-2.2h1.6c.4.5 14 4 16.3 4.8l2 .7a78 78 0 0 1 26.9 21.5q3.3 4.8 6 10l.5.9q2.2 4.8 3.8 9.9l.2 1.2q2.4 10.5 1.4 21c-.5 3.1-6.4 20.1-6 21a101 101 0 0 0 14.2 13.8l.3 1.3q.6.8 1.5.8l1 1.6q3.9 3.9 8 7.5.6 1.3 1.5 2.2l8.1 7.7q1.4 1.3 2.1-.4c3-5.8 6.7-11.2 8.7-17.4q2-2.4 2-5.4 1.2-1.8 1.8-4 2.1-6.4 3-13 1.2-3.9 1.2-8 1-10.8-.1-21.8V247q-1.3-9-3.8-17.8l-.5-1.4q0-.7-.7-.5c.4-2.7-1.6-6.9-2.8-9.3q-.2-1.5-1.1-2.9a38 38 0 0 0-4-8.1q-.6-1.7-1.5-3.1a40 40 0 0 0-4.5-7.1q0-1-.8-1.4-.4-.8-1.3-1.4a68 68 0 0 0-11-14.3q-.6-1.2-2-1.4c-.4-2-5-6-6.9-7.2a7 7 0 0 0-2.1-2.4q-.7-.6-1.8-.4c-.4-2.2-6.3-5.5-8-7a8 8 0 0 0-4.3-2q0-1-.9-1.5-3.7-2.4-7.7-4.4-2.9-2.1-6.4-2.6-.2-.7-1-1a73 73 0 0 0-10-3.9q-.5-.9-1.6-.6-2-.9-4.3-1.2a81 81 0 0 0-17.9-3c-3.7-.5-13.8-1.6-16.8.2ZM30.9 229q-.7 0-1.2.8a15 15 0 0 0-3 5 99 99 0 0 0-11.2 21.8c.2 2 2.2 4.3 3.5 5.6v1l9.7 13q.5 1.7 2 2.7A97 97 0 0 0 44 295q.3 1.2 1.3 1.8 2.7 4.3 6.7 7.4a19 19 0 0 0 2.7 3.8l6.3 6.3 3.9 4q3.7 3.4 7 7l5.9 4.7q3.1 3.6 7.2 6.3a22 22 0 0 0 5.8 4.7c2.2 2.4 5.5 5.3 8.6 6.4q0 .6.7.4c.2 1.9 6.3 5.4 8 6.5l3.8 3 9.2 6q2.2 1.5 4.7 2.6c.8 1.3 7.7 5 9.3 5.4a29 29 0 0 0 5.7 3.6h1.2c.7 1.9 7.3 4.3 9.3 5.2q2.6 1.7 5.5 2.9h1a94 94 0 0 0 22.4 9.1c.5 1.4 6.5 2.6 7.9 3.2q6.3 2.3 13 4l6.6 1.7 1.4-.1c2 1.6 9.4 2.2 12.1 3q3.8.4 7.5 1l1.4-.1a55 55 0 0 0 15.2 1.3 7 7 0 0 0 2.6.6 213 213 0 0 0 55.5-4.6c5.3 0 25.2-6.3 31.5-8.2q.7 0 1-.6 8.4-2.9 16.6-6.5c1.4-1.1-2.7-4.1-3.2-5A172 172 0 0 0 335 368q-.9-.4-1.8-.5.6-1.2-.5-2.1c-1.3-1-7-7.8-8.2-7.8q-7 4.1-14.2 8-5.6 3-11.3 5.3-.9.2-1 .9h-.9q-1.2 0-2.1.8-13.2 4.3-27 6l-5.9.5a281 281 0 0 1-24.9-1.6l-16.2-3.8q-.7-.7-1.8-.6l-1.3-.4c.2-1-2-1-2.6-1.2l-1.2-.7a137 137 0 0 1-22-10.6l-1-.2c0-1.4-3.3-2.8-4.3-3.2l-.6-.7q-2-1.5-4-2.5a23 23 0 0 0-4-3.1q-1.3-1.5-3-2.4a8 8 0 0 0-4-3.2q-2-3-5-5l-.9-1.2q-.3-.8-1.3-.8 0-.8-.8-1.1a23 23 0 0 0-6.4-7.1q0-.7-.5-1.1-.3-.7-1-1c-1-2-4.6-8-6.5-8.8 0-1.7-4.6-9.5-5.9-10l.1-1.2-1.9-3.8c-1.3-1.6-4-10.9-5.4-11.3.9-.8-.3-2.5-.6-3.4a200 200 0 0 1-4-15l-1.5-14.4a116 116 0 0 1 23.3-72.5q.4-.9.3-1.8a1723 1723 0 0 0-36-36q-.8-.2-1.3.3c-29.4 22-60.2 45.5-82.6 75A12 12 0 0 0 31 229Zm123-25.3q-.8 1-1.3 2.3-3.3 7.3-5.7 15-1 1.8-1 4c-1.7 4-2.2 8.5-2.8 12.8 0 2-1 5.5-.5 7.3-.8 3-.6 7.8-.2 10.9q-.5 2.5.4 5 0 5 1.2 9.8 0 2.7 1 5.2c.4 2 1.5 7.9 2.7 9.2l.6 3a138 138 0 0 0 14.7 29q2.3 4.1 5.6 7.7l1.4 2.2c1.5 1.5 5 6.6 6.9 7q.3 1.1 1.1 2a131 131 0 0 0 23 18.5l.7.5c2.4 1.7 6.3 4.4 9.1 5 1 1.5 5.4 3 7.2 3.7q5.7 2.7 12 4.4a86 86 0 0 0 23 4.4q5 .5 10 .2c8.1-.2 15.6-2 23.5-3.2q.3-.3.2-.7 2.3-.4 4.5-1 15.2-5.5 28.4-14.8a2 2 0 0 0-.6-1.8Q307.8 340 296.2 329q-7.2-8-15-15.3-.6-.3-1.2 0a69 69 0 0 1-71.8-12.7q-4-4.4-7.5-9.3-8.8-13.6-10.4-29.6-.6-8.2.9-16.2 2.3-8.7 5.3-17.1L184.4 216l-2-1.2q-.5-.9-1.2-1.6l-7.9-7.6q-5.7-6-11.6-11.9-1.2-1.2-2.2.2-3 4.8-5.5 9.8Zm90-2.6q-3.2.7-6.5 1.7-1 .2-.9 1.2a436 436 0 0 0 13.6 14l16.7 16.5 2 2.6q1.5 1 2.6 2l34 34q1.2 1.3 2-.5c2.9-7.8 3.3-24.3-.7-31.5 0-.7.2-2.1-.8-2.2.1-2.5-2.4-6.7-3.6-9l-1.1-1a7 7 0 0 0-1.1-2.6l-3.8-5.2a18 18 0 0 0-4.2-4.2c-.7-1.4-5.5-6.1-7-5.9q-.5-.9-1.2-1.4-4.2-3-8.8-5.4-.5-.3-1-.1l-1.8-1-2.2-.4q-2.4-1.4-5.2-1.5a34 34 0 0 0-14.7-1q-3.3-.4-6.3.9ZM204 242.4a47 47 0 0 0 0 24.4q.3 2.8 1.2 5.5 2 5 4.3 9.6.6.9 1.5 1.4c-.3 1.8 3.6 6 4.5 7.7l1.5 1a54 54 0 0 0 24.8 17.6l4.3 1.7c1 1 14.8 1.4 17.2 1.4q.8.2 1.4-.4l2.6-.6 7.7-2.2q1.4-1 0-2.2-4.8-5-10-9.5l-.4-1a2510 2510 0 0 1-39.4-39.8l-2-1q-.5-1-1.1-1.7-7.5-7.5-14.9-15.2c-.6-.4-1.6-1.6-2.3-.6q-1 1.8-.9 3.9Z"/><path fill="#c9c9df" fill-opacity=".8" d="M227.8 410.2q3.7.5 7.6.7-.8 1.3-2.3 1h-2.3a4 4 0 0 1-3-1.7"/><path fill="#dd024b" stroke="#dd024b" stroke-width=".5" d="M27.4 15.2c-2 1.7-2.7 4-4 6.2 2 .5 7.7-3.7 9.5-4.8q3.8 3.7 7.2 7.5-.9 1-1 2.3c.7.6 1.4-.6 1.8-1 1.3 0 8.5 7.5 9 8.9-1.4-.2-3.1 4.6-4.2 5.6l-.7 1-.2 1.2q-.5-.1-.5.4 1 .6 1.9-.3.1-.4.6-.4c1.3-1.6 6.4-2.8 6.3-5q4.8 4.6 9 9.4c-1.3 0-3.8 5.5-4.8 6.5q-.4.6.2 1c1.7-1 6.7-3.4 7.5-5l8.4 8.4a12 12 0 0 0-3 4.4c1 1 4.5-1.2 4.5-2.5q8.2 8.6 16.9 16.7-1 1 .4 1.1c4.3 2.7 10.6 10.1 14.8 13.8q.6.6.6 1.5l-1.2 1.4c.4.8 1.7-.6 2.4-.6q4 3.1 7.3 7.2-.7.7-.8 1.5 1 .6 1.6-.4c1.1 0 7.1 6.7 8.3 7.8q-1.5.6-1.3 2.1-1.2.4-1.6 1.3c.5.9 1.5-.2 2.1-.5q1-.9 2.6-1.2l8.2 8.3c-2.1 0-3 3.2-4 4.6q.9.4 1.8-.2 2-1 4-2.6l8.1 8.1q-2.2 4-4.8 7.8a1 1 0 0 0 0 1q4.2-2.5 8.7-4.9 7.5 7.3 14.8 15-3 3.5-5 8 .3 0 .5.3 4-1.8 7.8-4.3h1q3.5 3.4 6.8 7.1c-1.8 2.3-.2 3 1.2 1.2q4.2 3.8 8 8c-.6 2.5-3.3 6.3-4.8 8.6q-.3.7.2 1l7.5-4.3 2-.7q4 3.7 7.4 8l-3.9 6.3q-.3.5.1.8 3.8-1.8 7.4-3.9 10.8 10.5 21 21.1c-.4 2-3.4 4.3-3.2 6q-.7.2-.3.6.5 0 .3-.6c2.1-.1 4.3-2 6.2-3q7.8 7.3 15 15c-.7 2.7-4 5.7-4 8.3q-.8-.2-.5.3.4 0 .4-.3c2-.2 6-3.3 8-4.2 2.1 1.3 6.4 5.8 8 8q-2 3.5-4.2 6.8-.5.6 0 1l8.4-4 22 22q-.6 0-1 .6a74 74 0 0 0-4 6.9q.4.3 1-.1 3.6-2 7-4.3 3.6 3.4 7 7 .4.5.3 1.1-.9 1.3-1.3 2.8a1 1 0 0 0-.8.6c.4.7.7-.4.8-.6 1.3-.1 2.9-1.7 4.1-.7l7.2 7a35 35 0 0 1-4.1 6.5q-.3.6.2 1 3.6-2.3 7.5-4l7.2 7.3c0 1-3 3-1.8 3.8q1.8-1 3.7-1.8 3.8 3.3 7.1 7.1a17 17 0 0 1-3 4.4c.9 1 4.4-1.9 5-2.5l8.1 8a66 66 0 0 1-5 8.5q.4.6 1 .3a48 48 0 0 1 6.6-3.8q1 0 1.1-1.1l8.2 8a32 32 0 0 1-4.7 7q-.4.6.1 1 1.5-.4 2.4-1.5l5.2-2.6c2.4.7 6.7 6 8.7 8q-2.4 3-4.2 6.2-.7.9-.2 1.7 4.2-1.9 7.8-4.5 4 3.6 7.6 7.7c-1.9 1.5-1.3 3.2 1 1.2 2 1.1 6.4 6 8.2 7.9l-3.8 5.7q-.4.8.2 1.2l6-3q.4-.3.7-.9l7.8 7.8c-2.6 1.5-1.5 3.3 1 1.2 1.8 1.6 7.3 6.3 8 8.3-1 0-2.8 3.6-3.7 4.4q-.3.6.2 1l4.9-2.8q.4-.3.4-.8 12.6 11.6 24 24c-1.2 0-2.3 3.1-3.3 3.8l-.8.9q-.8 1-.2 2 .4-.2.4-.6l1.1-.2 1.1-.6q2.3-1.5 4.8-2.8l7.4 7.4q-1 1-1.3 2.5c.7 1 2-.8 3-.6q3.3 4.2 7 8.2a1 1 0 0 0-.8.7l-.2 1.1q-1.7 1 .3 1l.8-.7.8-.4c2 .5 7.5 5.6 8.3 7.4l-.3.7.5.8-1.7.3q-1 .9-.3 1.9.5 0 .5-.7l1.1-.2 1.2-.7 1-.6c2.3 1.8 14.5 11.3 14.6 13.4q-.9.4-1.3 1.3c.4.9 1.5.1 1.7-.4l.8-.2c5 3 10.4 8.8 14.2 13.2v.7c-.8 2.1-5.3 7-4.7 9l8.7-4.8.6-.2c2.5 1.3 5.6 6.1 7.5 8.4-1.4.2-3.2 4.5-4.3 5.5q-3.7 4.8 1.4 1.5 2.6-1.5 4.8-3.4c5.7 6.5 7.1 19-1.1 24.5-1.7.2-4.4-3.3-5.5-4.4q.9-.4 1.3-1.3 1.7-3.6 3.6-7l-.2-.2-9 5c-2.6-2-8-6-9.5-8.6l4-6c-.7-.8-1.3.5-1.6.9a29 29 0 0 0-5 2.7 31 31 0 0 1-9.5-8.4q2.4-3 4-6.4c-2-.4-6 2.8-7.6 3.8q-7.2-6.7-14.2-13.5c1.3-1.4.1-2.2-.9-1-5.2-4-9.9-9-14.4-13.7l.7-1 .8-1v-1.5c.8.3 2.2-.3 1.4-1.1l-1.4 1.1q-1.8.3-3 1.8c-3-1.5-6.2-5.1-8.4-7.5.6-.8 3-2.7 2-3.7q-2 .9-3.6 2.2c-2-1.8-6.1-5.4-7.2-7.5v-.7c0-.8 2.2-2.8-.2-2.2q-1 .4-1.4 1.3c-1.7-1-8.2-6.7-8.2-8.6q.4 0 .7-.4 2.2-3.5 4.7-6.8l-.2-.3-6.9 3.8q-.9.6-1.4 1.4c-1.7-1.6-6.7-5.5-7.1-7.6q1.5-2.2-1-1.1c-1.7 0-13.4-12.7-15.3-14.8q2.5-2.3 4.1-5.4-.7-.5-1.7 0l-4.7 2.8a42 42 0 0 1-7.4-7.2q.8-1 1.1-2.3 1 0 .5-.7-.8 0-1.4.5l-1.5 1.3-7.8-7.8q1.5-2.8 3.5-5.5.6-1.2 1-2.5l-8.3 4q-3.6-3.4-7-7c1.5-.9-.9-3-1.3-1.2l-7.9-8.7q2.7-3.3 4.7-7.1.4-.6-.1-1l-8.4 4.3a70 70 0 0 1-7.8-8.2 50 50 0 0 0 4.7-6.7q-.5-.5-1.2-.2l-6.7 3.9q-4.2-3.9-8-8.2 2.7-4 4.9-8.4-.4-.4-1 0a79 79 0 0 1-8 4.5c-1.5-2-6.2-5.8-7-8 3.4-4 1.2-3.3-2-1.7q-3.9-3.5-7.2-7.4 2.8-4.3-1.7-1.8a39 39 0 0 1-8-8.3q2.1-3 3.9-6.3-.4-.4-1 0a36 36 0 0 1-5.9 3.4q-3.7-3.4-7.2-7c-1-1.8 2.5-2.8.8-3.8a6 6 0 0 0-2.5 1.2q-.6 0-1.1-.3-3.8-3.6-7.3-7.3l.6-1.8 3.5-5.5q-.5-.5-1.1-.2a51 51 0 0 1-6.7 3.7 646 646 0 0 1-22-22q2.2-4 4.7-7.7c-.8-.3-7.3 3.7-8 4.7a84 84 0 0 1-8.8-8.8l4.7-7q.3-.5 0-1l-6.3 3.6q-.9.5-1.6 1.4a88 88 0 0 1-15-16l4-5.9a1 1 0 0 0-1 0 26 26 0 0 1-5.6 3 869 869 0 0 1-22-21.3l4.6-6.7q-.4-.3-1 0L175 190q-4.3-3.6-8.2-7.7 0-.7.3-1.3l4-7.2q-1-.4-1.7.2a53 53 0 0 0-6.8 4 67 67 0 0 1-7.8-7l.2-.8q0-.6-.6-1-.4.3-.4.8c-1.6-.4-7.6-7-9-8.5l5.5-8.4q.3-.5-.1-1a81 81 0 0 0-9.6 5.7q-7.7-7-14.9-14.6c1.5-1.8 3.9-4.9 4.2-7.2q.5 0 .6-.4-.4-.4-1-.4-.4.2-.6.6-.8 0-1.4.4l-.7.5q-2 1.6-4.2 2.7h-.8c-2-1.2-7.2-5.8-8-7.8 1.2.4 2.5-3 3.3-3.6q1.5-2.7-1.3-1.5l-4.7 2.8a36 36 0 0 1-7.6-7.5q2.4-2.2 4.1-5.1-.4-.5-.9 0-1.3 1.8-3.5 2.3a4 4 0 0 0-1.3 1.3 33 33 0 0 1-7.4-7.4c2.6-2.7 1.3-3.5-1.5-1.6-2.2-.8-4.5-4-6.4-5.5q-.6-.8-.5-1.7.8-1.4 2-2.1 1.2-2.2-1-1a7 7 0 0 1-2.5 1.8c-1.6 0-6.5-5.3-7-6.8q0-.6-.7-.8c-2.3-.7-6-5.3-7.5-7.2q.7-1.2 1.6-2.2 1.2 0 1.5-1.2c-.5-.7-1.8.3-1.5 1.2-.6 0-2.3.2-2 1.3-1.6-.1-8-6.7-7.9-8.2q1.1-.5 1.5-1.5c-.6-1-1.9.5-2.6.8-2.4-1.2-5.3-5.5-7.6-7.3q2.4-3.4 5.1-6.7.2-.5-.2-.8c-1 1.9-6.3 2.6-6.2 4.4-2.1.3-7.3-6.7-8.7-8.5q2-2.5 3.7-5.3 1.5-2.7-1.3-1.5c-.8.8-5.1 2.2-4.7 3.5-2-.4-7.8-7.8-8.5-9.7q2.7-3.9 4.9-7.8l-.3-.3-6.4 3.5q-.7.4-.8 1.3c-3.9-4.2-18.8-23.2-10.4-27.5q4.3-.9 8.6-.3Zm314.3 341.2c.3-.2 1.8-.6.8-1.2q-.7.3-.8 1.2ZM493 504q-.6 1.2-1.9 1.3.2-1.6 2-1.3Zm-10.7 1.2q.3 0 .5.3-.6.2-.5-.3Zm8.8.1c-2.8 1.6-4.2 2.4-7.6 1.5q-.7-.4-.7-1.3c2.4 1 6.8-1.5 8.3-.2Z"/><path fill="#e0a9ce" d="M341.7 356.4q0-.9.8-1.2c1 .6-.5 1-.8 1.2"/><path fill="#c480a4" d="M341 358q-.8-.3-1.4-1.1c.5-1.7 3 .3 1.5 1.2"/><path fill="#2d53ce" stroke="#2d53ce" stroke-width=".5" d="M262.1 141a3 3 0 0 1-1 1.5l-12.6 8.5q-.4.5-.5 1.1-2.2-.2-3 2-.7-.2-1 .4.8.6 1-.5 2.3.2 3-1.9a29 29 0 0 0 5.3-2.4q6.3-4 12.9-7.7a2 2 0 0 0 1.7-.7q6 .9 12 2.7-.4.8-1.2 1.3L246.5 167q-.4.4-.5 1a3 3 0 0 0-3 1.6c1 .9 3-.4 3-1.6 2.5.2 3.2-1.3 5-2.5q13.6-7.5 27-15.4 3.3-2 6.4-4.2l1.6-.2q5 1.5 10 4-1.4.8-2.1 2.1-1.1 0-2 1-.8.3-.8 1.3-1 0-2 .5L242.4 187q-2.1 1.3-3.6 3c-1.7 0-3.8 1.6-4.7 2.8.6 1.3 5.4-1.8 4.7-2.7q1 0 2.1-.6c20.8-11.7 41.9-23.8 62.4-36.1q4 2 7.7 4.4.9.5.9 1.4l-48 31.4q-1 .6-1 1.7a83 83 0 0 0-23 2.3l-8.4 3.4q-1 .2-1.7-.2-15.3-15-30-30.4l1.1-.5q1 0 1-.8 1-.3 1.9-.9 1-.2 1.5-1.3l.7.3q.9-.3 1.3-1.3l.6-.2q.6 0 1.1-.3l1.2-1.1h.7a2 2 0 0 0 1.5-1.4l.7.3q1-.3 1.1-1.2.7-.5 1.6-.6a3 3 0 0 0 1.3-1.2h.8q1-.3 1.4-1.3l.6-.1q1 .3 1-.7l2.1-1q1-.3 1.3-1.2l.7.3a2 2 0 0 0 1.4-1.4h.5q1 .1 1-.7l2-.9q1-.2 1.4-1.2l.7.1q1-.2 1.3-1.3h.6q1 .1 1-.7l2-1q1 0 1.4-1.3l.7.4q1-.2 1.4-1.1l1.6-1a2 2 0 0 0 1.1-1h.8q.8 0 1.4-.8c3-1.8 13.1-.7 16.8-.3Zm-42 5c-5.3 4.8-12.5 11.4-18.2 15.5q-1.3 1-1.5 2.8-1 0-1.5.6l-1.2.4-4.4-4.1q-.7-1.2.3-2.1 12.3-8.4 26.4-13.1Zm21.7 10.1c.2 0 1.8-.4.8-1a1 1 0 0 0-.8 1Zm74.4 5c1.7 1.6 7.6 5 8 7-1.2-.2-3.8 2-5 2.5a4 4 0 0 0-2.1 2.2c-5 2-7.3 6.3-12.9 7.8-3 3.2-23 14-23.3 16.4-2.2-.8-15.8-4.3-16.3-4.9q.2-.7.8-1.1 24.6-14 49-28.2 1.2-.6 1.9-1.7Zm-132 7 4.7 4.6-2 .7-7.4 4.4q-.5-.5-.2-1c1.5-2.4 4.2-6.2 4.9-8.7Zm144 2.9c1.7 1.2 6.4 5.3 6.9 7.2q-1-.2-1.9.4a1532 1532 0 0 1-33.6 21.5q-1 .7-1.5 1.8a2 2 0 0 0-2 .8c.6 1 1.9 0 2-.8q1 .1 2-.5l12-7q12.5-7.3 24.8-14.8c4 4.2 8.5 9.2 11.1 14.3a1196 1196 0 0 1-29 18.7 2 2 0 0 0-1.1 1.5c-1.4-.3-4.6 1.7-5 3q-2.5-.3-3.1 2a78 78 0 0 0-27-21.4zm-131.8 9.7q2.1 1.3 3.6 3.2l-7.4 4q-.4-.4 0-1zM178.1 193a9 9 0 0 1-3-3q3.3-1.7 6.6-3.7.6-.3 1 0zm-4.8 12.7q-1 .3-1 1.3c-1.3 0-3.2.3-3.2 1.9-3.9.8-17.6 9.8-22.2 12.1q2.4-7.5 5.7-15l1.5-.3c1.6-1.4 5.6-3 6.1-5q2 .7 2.9-1.3c-.8-.8-2.8.2-2.9 1.3q-3.3 1.3-6.2 3.1 2.4-5 5.5-9.8 1-1.5 2.2-.2 6 5.8 11.6 12Zm176-9h.7q2.7 3.3 4.6 7-17.7 11.7-35.7 22.8a2 2 0 0 0-1 1.5q-1.6-.3-2.2 1.1a98 98 0 0 0-6-10c1.1 0 3.2-.6 3.2-2a8 8 0 0 0 4.2-1.7q.8-.4.8-1.3 1.1 0 2.2-.4 2.8-1.7 5.5-3.6l23.6-13.4Zm-99.1 3.6q-2.7 1.6-5.6 2.8l-4.3 3q-1.3.1-.9-1.1c1-1.2 4-2.4 4.5-3.8q3-1.2 6.3-1Zm-78 6.7q1.1 0 2.1-.4l6.9 6.7q.7.7 1.1 1.6-19.4 11.7-39.2 23c.6-4.3 1-8.8 2.8-12.8 4.2-2.5 21-13.4 23.1-16.2a3 3 0 0 0 3.2-1.9Zm183.8 0a38 38 0 0 1 4 8.1c-9.2 5.2-18.2 11.4-27.1 17.3L320 240q-1.5-5-3.8-10 1.3-.6 1.6-2l2.2-.4a576 576 0 0 1 36-20.7Zm-72.1 2.8q.8.5 1.2 1.4-3.7 1.5-6.8 4c-1.5.4-1.5-1-.4-1.7zm-81.2 7.5q-1.6-1.2-2.6-2.8 3-1.2 5.6-3a1 1 0 0 1 1 0zm-18.3-1 12.1 12.6q-3 8.4-5.3 17 .4-1.6-1.2-1.2-23 13-46 26.4-1.2-5-1.3-10 23.3-15 46.1-30.7c.8-.8 2.9-.4 3.1-1.8q-.8-.6-2-.1c-15.4 9.8-31.6 18.6-47.5 27.7-.4-3.1-.6-8 .2-10.9 13.3-9.1 29.2-19.5 41.8-29Zm107.7.8a18 18 0 0 1 4.2 4.2c-8 5.7-18.6 11.6-27.5 16 1.2-4.8 20.1-15.6 23.3-20.2Zm69.1.9c1.2 2.4 3.2 6.6 2.8 9.3-2.1-.1-6 3.5-8 4.4q-.9.4-.7 1.4l-1.6.4q-1.1 0-1.6 1.3-1.1 0-2 1l-1.4.5c-.7.8-4.9 2.5-4.4 3.8l-1.5.1-.8.8q-1 .3-1.2 1.4-2.3-.5-3 1.9c-1.2-.7-3 1.3-4.2 1.8q-.5.4-.5 1-.7 0-1.2.5 1 .6 1.2-.5c1.2-.3 4.7-1.5 4.8-2.8.6-.2 3.2-.9 2.9-1.9l1-.5q1 .1 1.1-.7l1.3-.3c.7-.6 5.7-2.7 5.6-3.5l1.4-.5q.7 0 .8-.7c.7 0 2 0 1.8-1.1q1 0 1.3-.9 1.5 0 1.6-1.2 1 0 1.5-1l.8.1q2.4 0 2.8-2.2h1.3q.7 0 .9-.7h1.2q2.6 8.8 3.7 17.8c-1 .2-1 1.6.1 1.2q1.2 11 0 21.9-19.7 13.2-39.1 27c-1.8-.2-12.3-11.7-14.3-13.8-.3-.9 5.6-17.9 6-21a68 68 0 0 0-1.3-21q7-3.7 13.8-7.7 13.5-8.1 27.1-15.6Zm-55.3 21c1 .2.8 1.6.8 2.3-2-.7-5.4 4.7-6.5 2.4q0-.7.7-1.2 2.9-1.2 5-3.4Zm24 10.2c.1 0 1.7-.4.7-.9a1 1 0 0 0-.8 1ZM223.2 256l2 1.1a83 83 0 0 1-20 15.3q-1-2.7-1.1-5.5a91 91 0 0 0 19-10.9Zm-33 6.2q1.5 16 10.4 29.6-.7.3-.6 1l-2.1.7q-18.2 10.9-36.5 21.6a30 30 0 0 1-4.6-8l29-18.4q1.8-1 3-2.6 2.3 0 3.3-2 1.1 0 1.6-.7c-.5-1-2-.3-1.6.6q-2.4 0-3.3 2.1a5 5 0 0 0-4.5 2l-27 15.6q-1 .6-1.8 1.4-4.2-8.1-7.3-16.8l32.6-20.9a2 2 0 0 0 1.1-1.4 3 3 0 0 0 3.1-2q1.7.5 2.3-1c.8.7 1.9-.8 2.9-.8ZM367.8 278q-.9 6.6-3 13a6 6 0 0 0-4.1 3q-1 0-1.8 1-.7.3-.9 1.2c-3.5 1.1-13.8 9.5-17.4 12.1q-4.1-3.6-8-7.5l-1-1.6.1-.7q18-10.5 36-20.5Zm-150.6 14-1.6-1.1q4-3 8.3-5.7c1.7-1.1 2.8.3 1.3 1.3a38 38 0 0 0-8 5.5Zm91-.1 1.9 2q-2 .7-3.7 1.8c-1.2-.9 1.7-2.7 1.8-3.8Zm-43.5 4.8.4 1c-5.4 2.7-14 12.3-18.9 13.5q-2.3-.7-4.3-1.7c6.9-3.3 16.5-9.7 22.8-12.8Zm96.4 3.5c-2 6.2-5.7 11.6-8.7 17.4q-.7 1.6-2.1.4l-8-7.7c5.6-2 13.2-7.2 18.8-10.1Zm-151.9 1.6a69 69 0 0 0 70.8 11.8q.6-.3 1.2 0 7.8 7.4 15 15.3 0 1-1 1l-2.2.3c-20.5 12-42.2 25-62.6 36.7q-.5.5-.4 1.3-6.3-1.7-12-4.4 30-20.7 59.8-41.7c.6-.8 3-.6 2.9-1.6q-.7-.7-1.7-.3c-21.9 13.8-46 26.5-68.2 40-2.8-.7-6.7-3.4-9.1-5q1 0 1.3-1c.6 0 2.6-.4 1.5-1.4q-1.4 0-1.5 1.3-1.2-.1-2 .5a66 66 0 0 1-8.2-5.4q1-.2 1.3-1.2 1.7.3 2-1.3c.8.3 3.8-.9 2.5-1.8q-1.9 0-2.5 1.8c-.8 0-2.4.1-2 1.3q-1.2 0-2.3.2A131 131 0 0 1 178 336l28-17.5q1.5-1 2.8-2.3c1-.9 3.3-.5 3.4-2.2q.3-.2.5-.6-.6-.3-.5.6-1.2 0-2.3.3l-33 19.8c-1.9-.4-5.4-5.5-6.9-7a8 8 0 0 0 2.5-1.2l33.5-21.6q.9-.4 1.2-1.5 1.4.5 2-1Zm118.1 9.1 3.7 3.9a2 2 0 0 0-1.1 1.1 48 48 0 0 0-6.6 3.8q-.6.3-1-.3a66 66 0 0 0 5-8.5Zm-113.4 2c.4 0 1.7-.3.7-.8q-.7 0-.7.9Zm95 12-4-3.9q4.2-2.1 8-4.5.6-.4 1 0a89 89 0 0 1-5 8.4Zm30.3-2 1.8 2q-1.6 1.7-3.5 3-.6.6-.5 1.4-.9 1-2.4 1.5-.5-.4-.1-1 2.8-3 4.7-7Zm-19 13.2q-2-1.2-3.3-3 3.6-1.8 6.8-3.9.7-.3 1.2.2a50 50 0 0 1-4.7 6.7Zm11.6 12q-2.2-1.5-3.8-3.8l8.4-4.2q.5.3.1.9-2 3.8-4.7 7Z"/><path fill="#8799e4" fill-opacity=".8" d="M203 354.2q0-1.3 1.5-1.3c1.1 1-1 1.3-1.5 1.3"/><path fill="#9caae9" fill-opacity=".9" d="M329.8 249.1q0-.7.8-.9c1 .5-.6.9-.8 1"/><path fill="#8f9fe5" fill-opacity=".8" d="M337.9 244.2c-.1 1.3-3.6 2.5-4.8 2.8q0-.6.5-1c1.2-.5 3-2.5 4.3-1.8"/><path fill="#8d9fe5" d="M312.9 217.2c0 1.3-2 2-3.1 2q.6-2.4 3-2M196 346.8q.7-1.7 2.5-1.8c1.3.9-1.7 2-2.5 1.8"/><path fill="#91a2e6" d="M160.2 200.7c.1-1.1 2-2.1 2.9-1.3q-.9 2-2.9 1.3"/><path fill="#9cabe8" d="M212.2 314q-.2-.8.6-.5z"/><path fill="#95a6e7" d="M333 247q0 1-1 .6.4-.7 1-.6"/><path fill="#a8b4ec" fill-opacity=".7" stroke="#a8b4ec" stroke-opacity=".7" stroke-width=".5" d="M340.8 242.3c.3 1-2.2 1.7-3 1.9q.8-2.4 3-1.9Z"/><path fill="#b7c0ef" d="M172.2 207a3 3 0 0 1-3.1 1.9c0-1.6 2-1.8 3.1-1.9"/><path fill="#b9c1f0" d="M245 154q-.2 1-1 .5.3-.6 1-.5"/><path fill="#b1bbed" d="M248 152.1q-.7 2-3 2 .8-2.2 3-2"/><path fill="#5c6792" fill-opacity=".5" stroke="#5c6792" stroke-opacity=".5" stroke-width=".5" d="m266.2 141.2 1.7.1a2 2 0 0 1-1.7.7z"/><path fill="#1b3864" stroke="#1b3864" stroke-width=".5" d="M250.2 200.3q7.5-1.2 14.7 1c-2.2 3.1-16 12.7-16 15.5q-6.4-6-12.4-12.7-.2-.9 1-1.2 3-1 6.4-1.7c-.5 1.4-3.5 2.6-4.5 3.8q-.5 1.2 1 1.1l4.2-3q3-1.2 5.6-2.8Zm23.9 3.9h1q4.6 2.7 8.8 5.5l-6 3.7c-1 .7-1.1 2.1.4 1.7q3-2.5 6.8-4c1.5-.2 6.3 4.5 7 6-3.2 4.5-22 15.3-23.3 20l-2-2.5q-8.2-8.3-16.7-16.4c7-3 16-9.1 23-12.7q.8-.4 1-1.3Zm-53 .9q1.5 1.2 2.9 3c-1.8 1-4.1 2.8-6.2 3-.2-1.8 2.8-4.1 3.2-6Zm75.2 16 3.8 5.3a7 7 0 0 1 1 2.5c-1 1.8-5 3.9-6.8 5-1 1.3.9 1.5 1.8.8q2.6-2.1 5.7-3.6.5-.4.5-1c1.2 2.2 3.7 6.4 3.6 8.9a18 18 0 0 1-5 3.4q-.6.5-.8 1.2c1.2 2.3 4.6-3 6.6-2.4 4 7.2 3.6 23.7.6 31.5q-.6 1.8-2 .5l-34-34-2.5-2c8.9-4.4 19.5-10.3 27.5-16ZM221 236.3a9 9 0 0 1-3.2-3q.7-.8 1.6-1.4l6.2-3.6q.5.5 0 1-2.2 3.6-4.6 7Zm30-1.1q2.4 1.7 4.2 3.8l-8.5 4q-.3-.4.1-1 2.3-3.3 4.3-6.8Zm-43.6 4a419 419 0 0 0 14.9 15.2q.7.7 1 1.6a91 91 0 0 1-19 10.9 45 45 0 0 1 0-24.4q2-1.4 3.1-3.3ZM233 248a11 11 0 0 1-3.2-3c.6-1 7.1-5 7.9-4.7q-2.5 3.7-4.7 7.7Zm-7.7 9q19.5 20.1 39.4 39.8c-6.3 3-15.9 9.5-22.8 12.8a54 54 0 0 1-24.7-17.5c2.2-2.1 5.2-4.1 8-5.5 1.5-1 .4-2.4-1.3-1.3l-8.3 5.7c-1-1.8-4.8-5.9-4.5-7.7.3-2 7-3.9 5.4-5.5l-5.5 2.9q-.8.4-1.4 1.2-2.4-4.7-4.3-9.6c3-.7 18.7-12.6 20-15.3Zm51.7 3.9 3.2 3q-3.4 2.5-7.2 4.4-.4.4-1 0 1.9-3.5 4.1-6.8.4-.5 1-.6Zm-18.3 13L255 270q3.5-1.6 6.7-3.7.6-.3 1.1.1l-3.5 5.6zm38.7 7.2 3.6 3.6a50 50 0 0 0-7.5 4q-.5-.4-.2-1 2.5-3 4-6.6ZM279 294a7 7 0 0 1-3-2.9q3-1.5 6-3.5.5-.3.9.1zm-14 4q5.4 4.5 10.2 9.4 1.2 1.2 0 2.2l-7.8 2.2c.5-.7 1-2.3-.6-1.6-.6.6-3.7 1-2 2.2q-.6.6-1.4.4c-2.4 0-16.1-.3-17.2-1.4 5-1.2 13.5-10.8 18.9-13.5Zm23.7 6a3 3 0 0 1-1.7-1.7q4.5-2.5 1.7 1.8Z"/><path fill="#e1e1f9" stroke="#e1e1f9" stroke-width=".5" d="M243.2 107.2q-2 1.4-4.2 2.3L187 143q-3.3 2.4-7 4.3l-1.7-1-14.7-14.9c5.8-2 16-9 22-12.1q1-.5 1.1-1.5c18-6.4 37.6-9.3 56.5-10.6ZM215 113q-1.3-.3-2 .7c.5 1 2 .3 2-.7.5-.2 4.3-1.1 2.6-2.2q-2.3 0-2.6 2.2Zm99.8 2c2 .4 11.3 2.6 12.1 3.8a55 55 0 0 1-12 7.7q-.9.6-1.3 1.8-1-.6-1.7 0-4.5 3.1-9.4 5.8l-.3.8-1.5.2a45 45 0 0 1-5.7 3.7c-2.7-.8-10-2.6-11.9-4l.2-.8q15.5-8.7 30.7-17.6.9-.5.8-1.4ZM129.6 259.8l1.5 14.5q-1-.2-2 .4a7316 7316 0 0 0-68.2 39.6l-6.3-6.3q.6-.8 1.4-1.3 36-22.6 71.7-45.3zm19.2 59c1.9.8 5.4 6.8 6.5 8.9q-1.4-.2-2.7.6-22.4 12.8-44.7 26c-1.6-1.1-7.7-4.6-8-6.5q1.2.2 2.2-.3a1095 1095 0 0 1 32.8-20.3q.8-.4.8-1.2c3-2.7 9.1-6.1 13-7.1Z"/><path fill="#2d53ce" stroke="#2d53ce" stroke-width=".5" d="M191.2 245.9q-1.5 8-1 16.2c-1 0-2 1.5-2.8.7-.8 0-2.7 0-2.3 1.2q-2 0-3.1 1.9a5 5 0 0 0-4 1.8l-30.3 17.6c-1.2-1.3-2.3-7.2-2.7-9.2zm9.5 45.8q3.5 5 7.5 9.3a3 3 0 0 0-1 2c-3.7 0-31.6 17.6-37.1 20.7l-1.5 1.3q-3.2-3.6-5.6-7.7 16.8-10.5 33.4-21.4c1.3-1 3.9-1 3.7-3.2q-.2-.7.6-1Zm95.5 37.3q11.6 11 22.8 22.4.8.8.6 1.8a115 115 0 0 1-28.4 14.7q0-1-.5-1.8c-1.5.5-3.4 1.3-4 3l-.2.6c-7.9 1.3-15.4 3-23.5 3.2 3.2-4.4 23.3-16.6 28.1-22 1 .3 3.5-.9 2.4-1.8q-1.8 0-2.4 1.8c-12 5.7-26.5 14.8-38.2 21.7q-7.2-.4-14-1.9l56.3-40.6q1-.2 1-1.1Z"/><path fill="#3357ce" stroke="#3357ce" stroke-width=".5" d="M265 201.3q2.7.1 5 1.5-1 1.4-2.6 2.3-.4.4-.6 1.2-2-.7-2.7 1.3c1 .5 2.5-.3 2.7-1.3q3-.9 5.5-3l1.8.9q-.2.9-1 1.3c-7 3.6-16 9.8-23 12.7l-1.3-1.4c.2-2.8 14-12.4 16.1-15.5Z"/><path fill="#213869" d="M239 223c1.1-.2 3.2 3.2 3.9 4.1-2 .9-6 4-8 4.2 0-2.6 3.4-5.6 4.1-8.2"/><path fill="#274aae" d="M301.2 229q.6.3 1.1 1 0 .7-.5 1.1-3 1.5-5.7 3.6c-1 .7-2.8.5-1.8-.8 1.8-1.1 5.8-3.2 6.9-5M211 283.2q-.9-.6-1.5-1.4l1.4-1.2 5.5-3c1.6 1.7-5.1 3.6-5.4 5.6"/><path fill="#2a51c7" fill-opacity=".3" stroke="#2a51c7" stroke-opacity=".3" stroke-width=".5" d="M310.8 193a2 2 0 0 0 1.3 1.4l-12 7q-1 .6-2 .5.4-1 1.5-1.8 5.7-3.3 11.2-7Z"/><path fill="#d50449" fill-opacity=".7" d="M28.3 6a91 91 0 0 0-8.5 1.2q0-.7.9-1.2c3-.7 4.9-3.6 7.6 0"/><path fill="#5a3aa1" d="M317.2 301.1q1.2.7 2 2c-.6.5-4.1 3.4-5 2.4a17 17 0 0 0 3-4.4"/><path fill="#3755b7" fill-opacity=".8" d="M186.2 356.2q.4.2.6.7zm.6.7c1 .4 4.3 1.8 4.2 3.2a22 22 0 0 1-4.2-.8z"/><path fill="#dd024c" fill-opacity=".4" stroke="#dd024c" stroke-opacity=".4" stroke-width=".5" d="M86.3 104q-.5-.9-1.5-1.2a7 7 0 0 0 2.5-1.8q2.2-1.2 1 1-1.2.8-2 2Z"/><path fill="#c60747" fill-opacity=".6" d="M505 495.6q.4 3-2.6 3.8c-.6-1.4 1.8-3 2.6-3.8m-2.6 3.8-1.6.7q.6-1 1.6-.7"/><path fill="#4944b8" d="M297.9 313q-1.5-.3-2-1.6c3.2-1.6 5.4-2.2 2 1.7"/><path fill="#2b4fc2" d="M207.3 239a10 10 0 0 1-3.2 3.4q0-2.1 1-3.9c.6-1 1.6.2 2.2.6"/><path fill="#ad023c" fill-opacity=".2" stroke="#ad023c" stroke-opacity=".2" stroke-width=".5" d="M94.7 112.9q-1.2-.3-1.5-1.6c2.8-1.9 4.1-1 1.5 1.6Z"/><path fill="#7d0c31" fill-opacity=".2" stroke="#7d0c31" stroke-opacity=".2" stroke-width=".5" d="M427.3 411q.5 1.2 1.7 1.9c-1-.2-2.3 1.6-3 .6q.3-1.5 1.3-2.5Z"/><path fill="#294cb5" d="m267.4 311.7-2.6.6c-1.7-1.2 1.4-1.6 2-2.2 1.6-.7 1 1 .6 1.6"/><path fill="#b1033c" fill-opacity=".3" stroke="#b1033c" stroke-opacity=".3" stroke-width=".5" d="M413.5 405q1.1.3 1.6 1.4l-1 .6q-.3-1-1.4-1.2zm-.8.8.2 1.4q0 .5-.4.5-.6-1 .2-1.9Z"/><path fill="#770d2c" fill-opacity=".2" stroke="#770d2c" stroke-opacity=".2" stroke-width=".5" d="m125.2 109 1.8 1.7q-1.5.3-2.6 1.2l-.5-.8q-.2-1.5 1.3-2Z"/><path fill="#dd014a" fill-opacity=".4" stroke="#dd014a" stroke-opacity=".4" stroke-width=".5" d="M71.2 85.8c-.3-1 1-1.9 1.5-1.2q-.3 1.1-1.5 1.2ZM443.7 432l.2 1.2q0 .6-.5.7-.7-1 .3-1.9Z"/><path fill="#59001f" fill-opacity=".1" stroke="#59001f" stroke-opacity=".1" stroke-width=".5" d="m427 438.6.1 1.5q-1.1 0-.8 1l-.7 1q-1.2-.5-1.5-1.7 1.2-1.5 3-1.8Z"/><path fill="#df024a" fill-opacity=".5" stroke="#df024a" stroke-opacity=".5" stroke-width=".5" d="M485 477.6q.2 1.2 1.4 1.5-5.1 3.3-1.4-1.5Z"/><path fill="#b2013c" fill-opacity=".3" stroke="#b2013c" stroke-opacity=".3" stroke-width=".5" d="M45.7 40q1 .6 1.1 1.8-.5 0-.6.4-.3-1-1.2-1.2zm-1 2 1.5.2q-.9.9-1.9.3 0-.4.5-.4Z"/><path fill="#c30746" fill-opacity=".4" stroke="#c30746" stroke-opacity=".4" stroke-width=".5" d="M40.1 24.1q.7.4.8 1.2c-.4.5-1 1.7-1.8 1q.1-1.2 1-2.2Z"/><path fill="#c20746" fill-opacity=".4" stroke="#c20746" stroke-opacity=".4" stroke-width=".5" d="M107.6 92q.8.2 1.2.9c-.7 0-2 1.4-2.4.6q.5-.8 1.2-1.4Z"/><path fill="#c10648" fill-opacity=".2" stroke="#c10648" stroke-opacity=".2" stroke-width=".5" d="M61.3 79q-.9 0-1.1-.8c.7-.3 2-1.7 2.6-.8q-.4 1-1.5 1.5Z"/><path fill="#810a32" fill-opacity=".1" stroke="#810a32" stroke-opacity=".1" stroke-width=".5" d="m406.8 423.2-.6-.5q-.7.2-1-.4.6-.9 1.5-1.3c2.4-.6.2 1.4.1 2.2Z"/><path fill="#aa0c41" fill-opacity=".3" stroke="#aa0c41" stroke-opacity=".3" stroke-width=".5" d="M116 100.1q.8.3.9 1.1-.7 1-1.6.4 0-.8.8-1.5Z"/><path fill="#b80a44" fill-opacity=".5" stroke="#b80a44" stroke-opacity=".5" stroke-width=".5" d="M441 456.8q-.7-.4-1-1c1-1.2 2.2-.4 1 1Z"/><path fill="#d90349" fill-opacity=".5" stroke="#d90349" stroke-opacity=".5" stroke-width=".5" d="M386.9 403.8q-1-.2-1-1.1 2.5-1 1 1Z"/><path fill="#4b0018" fill-opacity=".1" stroke="#4b0018" stroke-opacity=".1" stroke-width=".5" d="M71.2 85.8q-.9 1-1.6 2.2-.6-.3-.3-1c-.4-1 1.3-1.2 2-1.2Z"/><path fill="#e0024e" fill-opacity=".3" stroke="#e0024e" stroke-opacity=".3" stroke-width=".5" d="m123.9 111.1.5.8c-.6.3-1.6 1.4-2.1.5q.5-.9 1.6-1.3Z"/><path fill="#3451b0" fill-opacity=".5" d="M239.7 378q1.8 0 3.4.3-.4.6-1.2 1-1.5-.1-2.2-1.3"/><path fill="#2b53cf" fill-opacity=".2" d="m216.8 373.3 1-.5 1.4.4c-.1 1-1.9.7-2.4 0"/><path fill="#d4003e" fill-opacity=".1" stroke="#d4003e" stroke-opacity=".1" stroke-width=".5" d="M435.2 421.8h1.4l.3 1-.8.4q-.6 0-1.1-.3z"/><path fill="#e0014b" fill-opacity=".3" stroke="#e0014b" stroke-opacity=".3" stroke-width=".5" d="m435 423 1.1.2q-.3.4-.9.7-2 0-.2-1Z"/><path fill="#831439" fill-opacity=".5" d="M436 421q.4.3.6.7l-1.4.1q.2-.6.7-.7"/><path fill="#d70049" fill-opacity=".2" stroke="#d70049" stroke-opacity=".2" stroke-width=".5" d="M9.3 12.9a3 3 0 0 1-1 1.5q-.2-1.4 1-1.5Zm-1 1.5-1 .8q-.2-1.2 1-.8Z"/><path fill="#d60348" fill-opacity=".3" stroke="#d60348" stroke-opacity=".3" stroke-width=".5" d="M477.2 459q.8.3 1 1.1l-1-.4z"/><path fill="#dc044a" fill-opacity=".3" stroke="#dc044a" stroke-opacity=".3" stroke-width=".5" d="M77.1 95.2q.7.1.8.8a1 1 0 0 1-.8-.8Z"/><path fill="#861339" fill-opacity=".6" d="M495.3 503q-.5.9-1.4 1 .3-1 1.4-1"/><path fill="#681b34" fill-opacity=".5" d="M497.1 502q-.2 1-1.3.8.4-.8 1.3-.8"/><path fill="#4d4d51" fill-opacity=".5" d="M329.9 110.3q.9 0 1.4.7-.9 0-1.4-.7"/><path fill="#58585d" fill-opacity=".4" d="M354.8 119.3q1.2-.3 1.3 1-.8-.4-1.3-1"/><path fill="#57575e" fill-opacity=".5" d="M165.4 125q-.7.9-1.6.8a2 2 0 0 1 1.6-.8"/><path fill="#ab0e43" fill-opacity=".3" stroke="#ab0e43" stroke-opacity=".3" stroke-width=".5" d="M465.9 495.8q.9.4 1.4 1.3-1-.4-1.4-1.4Z"/><path fill="#c80645" fill-opacity=".4" stroke="#c80645" stroke-opacity=".4" stroke-width=".5" d="M480.9 462.6q.7.4 1 1.1l-.7.2z"/><path fill="#b20d44" fill-opacity=".4" stroke="#b20d44" stroke-opacity=".4" stroke-width=".5" d="m406.2 422.7.6.5v.7q-.7-.3-.6-1.2Z"/><path fill="#bf0844" fill-opacity=".3" stroke="#bf0844" stroke-opacity=".3" stroke-width=".5" d="M445.2 430.2q.6 0 1.2.4l-1.5.3z"/><path fill="#de034c" fill-opacity=".3" d="m445.4 431.7.8.7-1.2.6z"/><path fill="#dd044c" fill-opacity=".3" stroke="#dd044c" stroke-opacity=".3" stroke-width=".5" d="M427.1 440q-.3.7-.8 1.2-.4-1.2.8-1.1Z"/><path fill="#ca0046" fill-opacity=".1" stroke="#ca0046" stroke-opacity=".1" stroke-width=".5" d="M461.8 445.1q.9 0 1.2.7l-.8.2q0-.4-.4-.9Z"/><path fill="#3655bd" fill-opacity=".8" d="M214.1 371q.7.2 1.3.6l-1.7.5zm1.3.6c.6.2 2.7.1 2.5 1.2l-1 .5q-1.8 0-1.6-1.7"/><path fill="#e0014a" fill-opacity=".4" stroke="#e0014a" stroke-opacity=".4" stroke-width=".5" d="m427 438.6 1.4-1.1c1 .8-.5 1.4-1.3 1.1Z"/><path fill="#5a275b" d="M286 274.9c0 .2-.3 1.3-.7.6q.2-.5.8-.6"/><path fill="#57285c" d="M235 231.3q0 .3-.5.3-.2-.4.4-.3"/><path fill="#de024b" fill-opacity=".5" stroke="#de024b" stroke-opacity=".5" stroke-width=".5" d="m461.8 445.1.4.9c-.2.5-1.3 1.3-1.7.4q.4-.9 1.3-1.3Z"/><path fill="#422d5e" d="M217.8 211q0 .5-.3.6-.4-.5.3-.5"/><path fill="#2c52ce" fill-opacity=".4" stroke="#2c52ce" stroke-opacity=".4" stroke-width=".5" d="M298 202c0 .8-1.3 1.6-1.9.7a2 2 0 0 1 2-.8Z"/></svg>