<svg xmlns="http://www.w3.org/2000/svg" style="shape-rendering:geometricPrecision;text-rendering:geometricPrecision;image-rendering:optimizeQuality;fill-rule:evenodd;clip-rule:evenodd" viewBox="0 0 512 512"><path fill="#e1e1f9" fill-opacity=".4" d="M327 195c.6-1 6.2-5 7-3.7-.4 1-5.9 4-7 3.7m-120-2.9a3 3 0 0 1-3 1.8 4 4 0 0 1 3-1.8m135 5.8q-.5 1.4-2 1.2.5-1.4 2-1.2m-187 35c-.3 1.5-3.7 3-5 3.3.5-1.8 3.1-3.4 5-3.3m15 20c-.3 1.4-3.8 3.1-5 3.1.9-1.4 3.1-3.2 5-3m165.3.4q-.7.6-1.7.6.7-.5 1.7-.6m27 6.8q-.6.5-1.4.6.5-.7 1.4-.6m-59 16q-.4.6-1.3.6.4-.7 1.3-.6m22.8 1.2q-.4.8-1.3.7.5-.6 1.3-.7m24.2 6.8q-.6.6-1.3.7.4-.8 1.3-.7m-245.3 6q-.3 1-1.4.9zm223.2 4.1q-.6.7-1.5.7zM74 297c-.3 1.2-4.3 4.1-5 2.8 1-1.4 3.2-2.7 5-2.8m246 2.3q-.3.9-1.3.7zm-7.8 5.2q-.5.6-1.4.4.6-.5 1.4-.4m110.1 6.6-1.2.8q.1-1 1.2-.8M268 314a3 3 0 0 1-2.8 2 3 3 0 0 1 2.8-2m-77.8 20a6 6 0 0 1-3.1 2 3 3 0 0 1 3-2M344 354.4q-.3.9-1.3.6.6-.4 1.3-.6m95 5.6q-.9 2-3 2 .7-1.9 3-2m-300 3.4q-.4.8-1.4.6zm31.2 1.8q-.4.5-1.2.5.4-.7 1.2-.5m-51 14q-.5.5-1.3.6.5-.7 1.4-.7m24.2 3-1.5.7q.5-.9 1.5-.8m-13.4 4.1q-.4.9-1.4.7.6-.5 1.4-.7m-62.1 18q-.3.9-1.2.7.5-.5 1.2-.6m24 22.2q-.4.8-1.3.6zM70.3 428q-.7.6-1.5.6.7-.5 1.5-.6m91.6 12q-.7 2-2.9 2a3 3 0 0 1 2.9-2"/><path fill="#e1e1f8" fill-opacity=".4" d="M343.8 196.2c1 1.4-.8 1.9-1.9 1.8a4 4 0 0 1 1.9-1.8m29.3 33q-.4.9-1.3.7.6-.5 1.3-.7m-3.7 26.9q-.6.5-1.4.5.5-.7 1.4-.6m-33.1.9q-.5.6-1.3.7.3-.8 1.3-.7m-9 1.3a2 2 0 0 1-1.6.6q.6-.6 1.6-.6m56 6.7q-.5.6-1.3.8.5-.8 1.4-.8m-233 1.1q-.7.6-1.4.7.3-.9 1.3-.7m263.7 6a3 3 0 0 1-3 2 3 3 0 0 1 3-2m-56.6 8-1.3.7q.3-.9 1.3-.8m-39.1 2.2q-.7.6-1.5.6.7-.4 1.5-.6M412 285a4 4 0 0 1-3 2 4 4 0 0 1 3-2m-73.7 6.2-1.2.7q.2-.9 1.1-.7m-33 2-1.3.6q.4-.9 1.4-.7m-207.3 1q-.3.9-1.2.7zm200.5 2.8-1.3.7q.3-.7 1.3-.7m-7.1 2.3q-.5.8-1.5.5.7-.4 1.5-.6m-212.3 6q-.3.8-1.2.7.5-.6 1.2-.7m233.3.9-1.3.5q.4-.8 1.3-.5m117 .8q-.4.6-1.2.8 0-1 1.2-.8m-352 6q-.7.6-1.5.8.5-.9 1.4-.8m187.8 3c-.2.8-1.4 1.6-2 .7q.8-1 2-.7m-121 7a8 8 0 0 1-5.2 3c1.1-1.4 3.3-3.3 5.2-3m46 11c0-.7 1.2-1.6 1.8-.7q-.7.9-1.8.8m168.2 14q-.4.6-1.2.8.3-1 1.2-.8m-212 14q-.7.6-1.6.7.7-.6 1.6-.6m289.7 0c-.3.7-1.3 1.7-2 .7q.8-1.1 2-.7m-304.1 5.3q-.3.8-1.2.6zM354 367c0 1-1.6 1.6-2.2.6q.9-.9 2.2-.6m-194.8 5.1q-.6.6-1.4.7.5-.8 1.4-.7m-3.4 17.1q-.2.9-1.2.8.5-.6 1.2-.8m-33 1q-.3.9-1.3.7zm32.5 1.8q-.6.6-1.4.8.4-.9 1.4-.8m-16 10q-.6.6-1.3.7.3-.9 1.3-.7M97 405q-.4 1-1.4.8zm34.3 2a2 2 0 0 1-1.2.5q.3-.7 1.2-.6m11.7 6.8a3 3 0 0 1-3 2 4 4 0 0 1 3-2m-32 1.5q-.5.8-1.4.6a2 2 0 0 1 1.4-.6M78.4 423a3 3 0 0 1-1.6.8q.7-.8 1.6-.8m6.5 7.3q-.3.8-1.2.7.4-.6 1.2-.7M119 453a3 3 0 0 1-3 2 3 3 0 0 1 3-2"/><path fill="#e1e1f8" fill-opacity=".3" d="m315.3 269.3-1.3.7q.3-1.1 1.3-.7M305 272q-.1 1-1.2.8zm57.3 5.3-1.3.7q.3-1.1 1.3-.7M315 284q-.3 1-1.2.8zm41 10c-.6 1.7-3.3 3-5 3q2-2.4 5-3m-263 3q-.2 1-1.3.8zm4.2 3.2-1.2.8q.1-1 1.2-.8M115 303c-.4 1.5-3.6 2.8-5 3.1.3-1.6 3.5-3.4 5-3m309 0q-.3 1-1.2.8zm10.3 1.3-1.2.7q0-1.1 1.2-.7M138.9 326c-.4 1.6-3.4 3-5 3.1a8 8 0 0 1 5-3m238 7q-.1 1-1.1.9.4-.5 1.2-.8M74 352c-.3 1.1-4.3 4-5 2.7.6-1.3 3.5-2.8 5-2.7m326 2.1a3 3 0 0 1-3 1.8 3 3 0 0 1 3-1.8m-247 .9q-.3 1.1-1.3.7zm286 4.9c.2-1.1 2.9-2.1 3.8-2.8q1.5-.5.9.9c-1.4.8-3 2.2-4.7 1.9m-284.7 15.3-1.3.8q.2-1 1.2-.8M144 378q-.3 1-1.2.8zm233 6q-.9 1.9-3 2a3 3 0 0 1 3-2m-218.7 6.3-1.3.7q.1-1.1 1.3-.7M118 393q-.3 1-1.3.7zm32.2 2.2-1.2.8q.2-1 1.2-.8m68 28.8-.3 1-.9.1q0-1.1 1.2-1.1M80 433q-.3 1.1-1.3.7zm79 9q-.6 1.3-2 1 .6-1.3 2-1"/><path fill="#e1e1f9" fill-opacity=".3" d="M342.7 248q.1 1-1 1zm18 7q0 1-1 .9zm-223 16.1q0 1-1 .8zm191.6 7.9-1 1q0-1 1-1m-33 1-1 1q0-1 1-1m-171 2-1 1q0-1 1-1m291.8 0a4 4 0 0 1-3 2q.8-2 3-2m-305 4.3q-.6.7-1.5.7.7-.5 1.5-.7m231.2 1.7q-.6.6-1.3.8.3-1 1.3-.8m-26 15.2q-.4.5-1 .7-.2-1.1 1-.7m95.4 6.8q0 1-1 1zm2.6 5-1.3.7q.4-.7 1.3-.6m-126.4 4a3 3 0 0 1-3 2 4 4 0 0 1 3-2m100.4 11q-.4.6-1 1 0-1 1-1m-23.5 10q0 1-1.1 1zM397 356q-.5 1.4-2 1.1.8-1 2-1.1m-234.1 11q0 1-1.1 1zm-51.5 17-1 1q0-1 1-1m-10.5 1q0 1-1.1 1zm34.5 2-1 1q0-1 1-1m-53.6 9q0 1-1 1zm-6.8 4.3q-.4.8-1.3.6zm33.4 3.7-1 1q0-1 1-1m16.4 3q0 1-1 1zm99.4 8.8h1q0 1.1-1.2 1.2zm168 .3c-.5 1.5-9.3 6.8-7.7 4 2.1-.8 5.5-4.8 7.6-4m-254 .8q-.9 2-3 2a3 3 0 0 1 3-2m-39 5.4q-.6.8-1.4.6.7-.5 1.3-.6m-33.5.8q0 1-.9.9zm292.4 24q.6-2 2.5-2.2c1.1 1.3-1.8 1.9-2.5 2.1m57.2 26.5a3 3 0 0 1 2.2-1.6c.5 1.1-1.2 2.4-2.2 1.6"/><path fill="#e1e1fa" fill-opacity=".4" d="M374.3 235q-.4.7-1.3.8.3-.8 1.3-.8M353 260.3q-.4.8-1.5.7.7-.6 1.5-.7m-37 5q-.6.6-1.5.6.7-.6 1.6-.6M131 275.2q-.3.8-1.2.8zm221.4 4q-.6 1-1.5.8.6-.6 1.5-.8m-8.2 5q-.4.7-1.5.7.8-.5 1.5-.7M108.4 293q-.7.6-1.6.8.7-.8 1.6-.8m216 6-1.5.7q.5-.7 1.4-.6m-206.5 2a3 3 0 0 1-2.9 2 3 3 0 0 1 3-2m-23.6 1q-.7.6-1.5.8a2 2 0 0 1 1.5-.8m303.7 4q-.6 1.2-2 1 .6-1.2 2-1m-252 16.1q1.2-1.5 0 0m257.3 0q-.6.5-1.5.6.6-.6 1.5-.7m-7 4a2 2 0 0 1-1.3.6q.3-.7 1.3-.7M83 335c-.3 1.5-3.5 2.8-4.9 3 .7-1.6 3.3-3 5-3m-4 14a3 3 0 0 1-2.8 2q.7-2 2.8-2m86.3 1.1q-.7.6-1.5.7.6-.9 1.5-.7m-27 17q-.5.5-1.4.6.6-.7 1.5-.6m-35.3 5q-.5 1-2 .8.8-1 2-.8m-8.8 17q-.5.9-1.4.9zm17 8.2q-.4.8-1.3.6.5-.4 1.2-.6m5.2 1.7q-.7.5-1.5.7a2 2 0 0 1 1.5-.7m1.7 12.3q-.4.8-1.4.7.6-.6 1.4-.7M99.3 427q-.7.6-1.4.7.4-.7 1.4-.7m-8 5-1.5.6q.6-.7 1.4-.6m-.4 26c-.4 1.3-3.6 2.8-5 3l1-1.5c1.4-.3 2.6-2 4-1.6m257.2 10c-.7.5-2.2 2.9-3 1.6a3 3 0 0 1 3-1.7"/><path fill="#e1e1f9" fill-opacity=".4" d="M225 199a8 8 0 0 1-5 3c1-1.6 3.1-3.2 5-3m-67 14a9 9 0 0 1-5.1 3.2q1.9-2.9 5.1-3.2m190 19c-.5 1.4-5.5 4.2-7 4 .6-1.2 5.6-4.1 7-4m31.8 11q0 1.1-1.2 1zm1.5 6q-.4.6-1.2.7.3-.8 1.2-.7m-33 1q-.3.6-1.1.8.2-1 1.2-.8m47.1 8q-.5.6-1.2.7.2-.9 1.2-.7m-243 5.6 1 .3-1.2 1.2zm223.3.4q0 1-1 1zm-8 5q0 1-1 1zm46.3 3q.4-1 1.6-1c1.3.7-1.1 1.2-1.7 1m-117.2 5q0 1-1.2 1zm13.6 13a2 2 0 0 1-1.4.8q.4-.9 1.4-.8m-230 21-1 1q-.2-1 1-1m321.4 6q0 1-1.2 1zm-115.9 4q-.3 1.3-1.8 1 .4-1.3 1.8-1m84.4 20q-.4.6-1.3.8.3-.9 1.3-.9m-15.6 6q0 1-1 .9zm-197.3 8-1.2 1q0-1 1.2-1m-84 53-1.2 1q0-1 1.2-1m11.5 4.2q-.2 1-1.3.8zm4.5 4-1.2.8q0-1 1.2-.9m326.8 1.6q-1 1.9-3.2 2.3a4 4 0 0 1 3.2-2.3"/><path fill="#e1e1fa" fill-opacity=".2" d="M359 238q-.3 1-1.3.7zm-2 38q-.3 1.1-1.3.7zm5.8 13 .1 1.3c-1.4 1.5-4.8 3.8-7 3.7.9-1.8 5.3-3.5 6.9-5m52 6 .3 1.1a60 60 0 0 1-7 4.6q-1 .4-2 .4 0-.9.9-1.4zm31.4 1.8-.4 1.2h-.8q.3-.8 1.2-1.2m-346 1.5-1.1.8q0-1 1.2-.8M81 304q-.3 1-1.3.8zm53 25c-1 2-5.2 3.7-7 5l.1-1.3c1.5-1.4 4.9-3.8 6.9-3.7m31.3 39.3-1.2.8q0-1 1.2-.8m-70 26-1.2.8q.1-1 1.2-.8m24 3-1.2.8q0-1 1.2-.8M106 400q-.3 1-1.3.8zm-40.7 31.3-1.3.8q.2-1 1.3-.8M228 480.2l1-.5q0 1.2-1.2 1.1z"/><path fill="#e1e1fb" fill-opacity=".2" d="M252.3 213.2q-.3.8-1 1-.2-1 1-1m87.6 36.7q0 1.2-1.2.8zm57 1q0 1-1.2.8zm-8 5q0 1-1.2.8zm-31 1q-.2 1-1.2.8zm2.4 4.4-1.2.8q0-1.1 1.2-.8m20.6-.4q0 1-1.2.8zm-53.6 1.4-1.2.8q0-1.1 1.2-.8m45.6 3.6q0 1.1-1.2.8zm1.4 4.4-1.2.8q.2-1 1.2-.8m-9.4.6q0 1-1.2.8zm-281 2 1-.1q0 1.1-1.2 1.4zm49 1q0 1.1-1.2.8zm168.4 3.4-1.2.8q.2-1 1.2-.8m47 8-1.2.8q0-1.1 1.2-.8m16.5 2.8.2 1q-.1.6-.7.9l-.2-1.2q0-.6.7-.7m-257.9.8q0 1.1-1.2.8zm7.4.4-1.2.8q0-1 1.2-.8M110 306c-1.3 1.8-5.1 3.5-7 5l-.2-1.5c1.8-1.1 5.1-4 7.2-3.5m-23.8 1.2-1.2.8q0-1 1.2-.8m334 5-1.2.8q.2-1 1.2-.8M374 334.9q-.2 1-1.2.8zm-24.6 18.4-1.2.8q0-1.1 1.2-.8M141 361.9q-.2 1-1.2.8zm-7.6 8.4-1.2.8q0-1.1 1.2-.8m24.6-.4q-.2 1-1.2.8zm-36 3q-.2 1-1.2.8zm-7.6 9.4-1.2.8q0-1 1.2-.8m17.6 2.6q-.2 1-1.2.8zm6.4.4-1.2.8q.2-1 1.2-.8m-27 17-1.2.8q0-1.1 1.2-.8m-41.4.6q0 1.1-1.2.8zm151.4 19-.2 1-1 .1q0-1 1.2-1M94 425q0 1.1-1.2.8zm-26 15q0 1.1-1.2.8zm229.8 41.2q0 .9-.8.5z"/><path fill="#c6c6da" fill-opacity=".2" d="M310.7 191.2q.2 1.2 1.4 1.3l-12.8 7.4-.3-1.2zm-2 115.1q.2 1.2 1.4 1.2l-12.7 7.3-.2-1q0-.8.8-1 5.2-3.5 10.7-6.5"/><path fill="#e4e4fb" fill-opacity=".2" d="M365 221v1.4l-1.6 1.4-13.4 7.7q-1 .6-2 .4l1-1.2zm-200 35c-.8 2-8 5.5-10 7q0-.9-1.2-1.2l9.2-5.3q.8-.5 2-.5"/><path fill="#e1e1f9" fill-opacity=".3" d="M240.2 135.9c-.5 1-4.5 4.5-5.2 2.8 1.2-1.3 3.2-2.8 5.2-2.8m121.5 100q.2 1.2-1 1zm38.3 13q-.3 1-1.4 1.1zm-44.7 15.2q-.6.6-1.4.6.5-.7 1.4-.6m-21.6 8q0 1-1 .8zM268 296a7 7 0 0 1-5.1 3c1.1-1.5 3.2-3.2 5-3m-122 63.2q-.3.9-1.3.7zM101 373q-.9 2-3 2.1.8-2 3-2m36 9.3q-.5.8-1.4.7zm3 33.7q-.6 1.3-2 1 .6-1 2-1M116 455c-.6 1.4-3.6 3-5 3 .4-1.3 3.7-3.2 5-3m-30 6c-.3 1-6.5 5.2-7 3.7.5-1 5.6-4 7-3.6"/><path fill="#e1e1fa" fill-opacity=".4" d="M202 195.1q-.3.6-.9.3.4-.4 1-.3M124.8 234q.8 0 1.4.3l-1.2.8zm263.6 11-1.3.7q.3-.9 1.3-.7m-33 1-1.3.7q.3-.7 1.2-.7m16.8 2.3q-.5.8-1.5.6zm30.1 5.8-1.4.7q.5-.7 1.4-.7M150 264.2q-.3.9-1.3.7zm210.2 10.1a2 2 0 0 1-1.5.6q.7-.4 1.5-.6m-238 9.6q-.6.7-1.4 1 .5-.9 1.4-1m195 2q-.4.7-1.2.8.3-.7 1.3-.7m-10.3 3q-.1 1.1-1.3 1zm29.3.3q-.6.8-1.6.8.7-.5 1.6-.8m-37 5q-.6.9-1.6.7.7-.6 1.6-.6M76 296q-.5 1.5-2 1 .6-1.1 2-1m275 1c-.8 1.7-3.2 3.2-5 3a7 7 0 0 1 5-3m-231 3q-.6 1.3-2 1.2.6-1.3 2-1.1m307.2 1.3q-.6.7-1.6.7zm-47 30q-.6.9-1.6.8.7-.6 1.5-.7m-3 5.8-1 .8q0-1 1-.8M81 348c.2 1.1-1.3 1-2 1q.6-1.3 2-1m39 26.3q-.5.8-1.4.6zm7.3-.2-1.3.7q.3-.9 1.3-.7m-14.4 4.1q-.3.9-1.3.7zm31 18q-.3 1-1.3.8zm3.5 1q-.6.5-1.4.6.4-.8 1.4-.7m-10.5 3.1q-.4.8-1.3.6zm-33 1q-.3.7-1.3.7.6-.6 1.3-.7M81.3 403q-.6.6-1.4.7.5-.7 1.4-.7m154.9 6 .7-.1v1.1h-1zm-139 2a2 2 0 0 1-1.3.7q.4-.7 1.4-.7M78 416.2q-.3.8-1.2.8.5-.6 1.2-.8m5.4 20.9-1.5.6q.4-.7 1.5-.6m-8 5-1.6.6a3 3 0 0 1 1.5-.6"/><path fill="#e1e1fa" fill-opacity=".3" d="M294 316c-.8 1.7-3.3 3-5 3 1-1.5 3-3.2 5-3M78 338c-.6 1.6-3.3 2.8-5 3 .7-1.8 3.1-3 5-3m18 38a8 8 0 0 1-5 3.1c.5-1.8 3.4-3 5-3m13 83q-1.4 2-3.4 3-4.2 2.4-8.3 5 0-.7-.3-1.2 0-.5.5-.7l9.5-5.5q1-.6 2-.5"/><path fill="#e1e1f8" fill-opacity=".3" d="M209 190.8q-.3 1.5-2 1.3a2 2 0 0 1 2-1.3m170.3 41.5q-.6.5-1.2.7.2-1 1.2-.7M350 262q0 1.1-1.2.7zm-37 5q0 1.1-1.2.7zm28.4 5.3q-.6.5-1.2.7 0-1.1 1.2-.7m-33 1q-.6.5-1.2.7 0-1.1 1.2-.7m22.7.7q-.3 1-1.3.8zm-205 4q-.3 1-1.3.8zm2.3 2.3-1.2.8q0-1.1 1.2-.8m290.7.8q-.6 1-2 .9.6-1.3 2-1m-115 9.8q-.3 1-1.3.8zm32.3 1.4-1.3.7q.3-1.1 1.3-.7M325 296q-.2 1.1-1.3.7zm4.3.3q-.6.5-1.2.7 0-1.1 1.2-.7M317 301q0 1.1-1.2.7zm65.4 33.3-1.3.7q.3-1.1 1.3-.7M160 351q0 1.2-1.2.8zm.3 2.3-1.2.8q0-1.3 1.2-.8M89 392q-.3 1-1.3.8zm24 22q-.3 1-1.3.8zm20 6c-1 1.7-3 3.2-5 3q2-2.6 5-3m-46 9q-.3 1.1-1.3.7zm271 18a4 4 0 0 1-1.7 1.8l-.4-1q.8-1 2-.8m-3.3 1.2.4 1.1a6 6 0 0 1-2 1.7q-.2-1-1.4-1zM111 458q-.5 1.3-2 1 .6-1.2 2-1m148.1-248.8.2.9-1.2.1q0-1 1-1m134 32.8q-.3.8-1 1 0-.8 1-1m-42.1 1q-.3 1-1.2.8.4-.5 1.2-.8m9.3.3q-.6.5-1.2.7 0-1 1.2-.7m8.7 6.7q-.2 1.1-1.2.7zm-37 5q-.3 1-1.3.7zm35.3 2.3q-.6.5-1.3.7.3-1 1.3-.7m-33 1q-.6.5-1.2.7 0-1.1 1.2-.7m47 8q-.6.5-1.3.7.3-1.1 1.3-.7M145 267q-.1 1-1.3.8zm-2.7 4.3-1.2.8q0-1.1 1.2-.8M323 279q-.3 1-1.3.7zm-.7 4.3-1.3.7q.3-1 1.3-.7M100 293q-.3 1.1-1.3.7zm196 3q0 1.2-1.2.8.4-.5 1.2-.8m.3 2.3-1.3.7q0-1.2 1.3-.8M270 313q-.5 1.3-2 1 .5-1.2 2-1m129 6q-.1 1.1-1.3.7zm-212 17q-.6 1.2-2 1 .5-1.2 2-1m165 13q-.3 1-1.3.8zm4.3.3-1.2.8q0-1.1 1.2-.8M134 366q-.3 1-1.3.8zm17 8q-.1 1-1.2.8zm-28.7 3.3-1.2.8q0-1.1 1.2-.8M108 381q-.3 1-1.3.8zm50 7q-.1 1.1-1.3.7zm-54.7 1.3-1.3.7q.3-1 1.3-.7M132 403q-.3.9-1.3.7zm-31.7 6.3-1.3.7q.1-1.1 1.3-.7m130.7 2.5h1.1q-.2 1-1.3 1.1zM80 415q-.3 1.1-1.3.7zm38.2.2-1.2.8q.1-1 1.2-.8M73 419q-.1 1-1.3.8zm37.3 1.3-1.3.7q.3-1 1.3-.7m-37 6-1.2.8q0-1 1.2-.8m13 9-1.2.8q0-1 1.2-.8m-8 5-1.2.8q0-1.1 1.2-.8"/><path fill="#e1e1f9" fill-opacity=".3" d="M370 231q-.3 1-1.2.8.4-.5 1.2-.8m-2.7 8.3-1.3.7q.3-1 1.3-.7M342 267q-.3 1-1.2.7zm6.3 1.3-1.3.7q.3-1 1.3-.7M119 282q-.3 1-1.3.8zm170.3 2.3-1.3.7q.3-1 1.3-.8m-178 7-1.3.7q.3-1 1.2-.8m297 28q-.6.5-1.2.7 0-1.1 1.2-.7M76.1 351q-.5 1.3-2.1 1 .6-1.3 2-1m54.2 21.2-1.3.8q.2-1 1.2-.8m-3 20-1.3.8q.1-1 1.2-.8m-35 4-1.3.8q.1-1 1.2-.8m50 4-1.3.8q.3-1 1.3-.8m-58 1-1.3.8q.2-1 1.2-.8m50 4-1.3.8q.2-1.1 1.2-.7M106 418q-.1 1-1.2.8zm51 25c-.8 2-9.6 6.3-11.8 8l-.2-1.1q0-.5.5-.8l7.5-4.4q1.8-1.2 4-1.8"/><path fill="#e1e1f9" fill-opacity=".4" d="M205 175q-.6 1-1.6 1.7-2.5.5-.5-1.2 1-.4 2.2-.4M381 231q-.2.8-1 .8.2-.8 1-.8m-35.9 34.4q-.4.7-1.5.7.7-.5 1.5-.7m-37 4.9q-.5.7-1.4.7zm35.2.9-1.3.7q.3-.9 1.3-.7m-33 1-1.2.7q.3-.8 1.2-.7m-174 3-1.5.7q.6-.7 1.5-.7m-12.3 4.1q-.4.8-1.3.7zm207.3 16-1.3.5q.4-.7 1.3-.6m14.8 4.8q-.6 1.3-2.2 1 .6-1.3 2.2-1m70 8.3q-.5.7-1.3.6.5-.6 1.4-.6M86 333.1q-.9 2-3 1.9a4 4 0 0 1 3-2m72 19.1q-.4.9-1.4.7zm-9.1 23q-.3.8-1.2.7.4-.4 1.2-.7m2.5 1.8q-.7.6-1.7.8.7-.7 1.7-.8M87 393.2q-.3.8-1.3.8zm37.3.9q-.7.5-1.5.5.6-.6 1.5-.5m-1 18q-.7.5-1.6.6a2 2 0 0 1 1.5-.6m-8 4.9q-.6.5-1.4.7.4-.8 1.4-.7m-8 5q-.7.6-1.5.8.5-.8 1.4-.8m56.8 17a2 2 0 0 1-2.2 1q.8-1.2 2.2-1m238.8 9.1a3 3 0 0 1 2.6-2c1.8 1.1-1.9 2-2.6 2"/><path fill="#e4e4fa" fill-opacity=".2" d="m233.2 193.9-.2 1.1c-2 .9-5.9 4-8 4 .6-1.7 6.4-5.3 8.2-5.1m113.1 57.4-1.2.8q0-1 1.2-.8m47 8-1.2.8q0-1 1.2-.8M312 285.9q0 1.1-1.2.8zm-34.2 4.5c-.7 1.7-6 3.8-7.7 5q-1 .6-2 .6c.4-1.8 6.5-4.3 7.9-5.8q1-.4 1.8.2m165.3.5q-.2 1-1.3.8zm-74.7 51.4-1.2.8q.2-1 1.2-.8M146 394.9q0 1.1-1.3.8z"/><path fill="#e1e1f9" fill-opacity=".5" d="M337 201c0 .8-1.3 1.6-2 .7q.8-1 2-.7m-87.8 14-.2 1-1-.2q.3-.9 1.2-.9M170 253q.6-1.2 1.7-1.7 2.7-.4.6 1.3-1 .4-2.3.4m-94 43a3 3 0 0 1 2.6-2c1.6.9-2 1.8-2.6 2m44 4a3 3 0 0 1 1.6-1.7q2.6-.4.6 1.3-1 .4-2.1.4m224 1a3 3 0 0 1-2.6 2c-1.7-.9 2.1-1.7 2.5-2m-63 23c.1 1-1.4 1.7-2 .7a2 2 0 0 1 2-.8m91 63c-.5.8-2 3-3 1.6.3-1.2 2.2-1.1 3-1.6m41 33q-.6 1.5-1.9.7.7-.9 1.9-.6m-249 19q.6-1.8 2.5-2c1.5 1.3-1.6 2-2.5 2"/><path fill="#e0e0fa" fill-opacity=".2" d="M321 143q.5 0 1.1.4l-1 .6zm46 90q-.3.9-1.3.7zm-19.1 11.9q0 1-1.2.8zm5.4 20.4-1.2.8q.2-1 1.2-.8m-33 1-1.2.8q.2-1.1 1.2-.8M140 269.9q-.1 1-1.3.8zm187.5 10.4-1.3.8q0-1.1 1.3-.8m-33 1q-.6.5-1.3.7 0-1.1 1.3-.7m47 8-1.3.8q0-1 1.2-.8m-33 2-1.3.8q.2-1 1.2-.8m-205 5-1.3.8q0-1 1.2-.8m292.5 24.6q0 1-1.2.8zm-47 30q0 1.1-1.2.8zm-201 7q-.1 1.1-1.3.8zm17 8q0 1.3-1.2.8.5-.5 1.2-.7m-7.6 7.4-1.2.8q0-1 1.2-.8m-32 2q-.4.5-1.2.8 0-1 1.2-.8m13.6 5.6q0 1-1.2.8zm22.4 7.4q-.6.5-1.2.7 0-1.1 1.2-.7m-31 2-1.2.8q0-1.1 1.2-.8m15 8-1.2.8q0-1 1.2-.8m-68.4.6q-.1 1-1.3.8zm10.4.4-1.2.8q.1-1 1.2-.8m50 4-1.2.8q0-1 1.2-.8m-10.4 2.6q0 1.1-1.3.8zm-23.6 1.4-1.2.8q0-1.1 1.2-.8m26 1-1.2.8q.2-1 1.2-.8m96.7 6.6h.8q0 1-1 .8zm-158 7q-.2 1-1.4.8zm131 14-.3 1.2h-.6q0-.9.9-1.1m65.6 45.1q0 1-.8.5z"/><path fill="#afafc3" fill-opacity=".1" d="M82.7 383.3v.8q0 .8-.7 1.2l-12 7.3q-1.6.9-3.4 1.2l-.4-.5q1-.7 1.7-1.7z"/><path fill="#e2e2f9" fill-opacity=".4" d="M341 236q-.9 2-3 2a4 4 0 0 1 3-2m21.4 6q-.6.6-1.4.7.3-.8 1.4-.7m-219.5 26.3q-.3.7-1.2.7zm268 5.7c0 .9-1.2 1.6-1.8.7q.7-.9 1.9-.7m-86.6 8.1-1.2.6q.3-.7 1.2-.6m-233 22q-.7.6-1.6.7.7-.7 1.6-.7m313.9 11.2q-.6.6-1.4.7.5-.6 1.4-.7M146 322.1q-.6 1.1-2 1 .5-1.5 2-1m-60 11q.3-1.3 1.6-1.2c1.3.8-1 1.3-1.6 1.2m298.3-.1-1.3.8q.4-.8 1.3-.8M358 345.2q-.3.8-1.3.8zm37 11.8a3 3 0 0 1-3 2q1-1.7 3-2m-289.1 25.4q-.3.8-1.2.6.4-.6 1.2-.6m2.4 3.6q-.6.6-1.4.7.5-.9 1.4-.7m24 3q-.5.6-1.2.7.3-.7 1.3-.6m314 12-.4 1-1-.3q.4-.7 1.3-.7M130 404.2q-.3.9-1.3.7zm99.1 8.8h1q-.3 1-1.4 1zM71 420.3q-.3.7-1.2.7.5-.5 1.2-.7m48 32.7q.3-1.3 1.6-1.2c1.3.8-1 1.3-1.6 1.2"/><path fill="#dfdffa" fill-opacity=".2" d="m372.3 236.3-1.2.8q.2-1 1.2-.8m12.6 3.6q-.2 1-1.2.8zm-64 22q0 1-1.2.8zm-175.6 7.4-1.2.8q0-1.1 1.2-.8m156.6 4.6q0 1-1.2.8zm32.4 2.4-1.2.8q0-1.1 1.2-.8m-12 24-1.2.8q0-1.3 1.2-.8m-250 16-1.2.8q0-1.1 1.2-.8m322 11-1.2.8q0-1.1 1.2-.8m-9.4.6q0 1.1-1.2.8zM182 339c-.4 1.6-5.5 3.8-7 5v-1.4c1.7-1.4 4.8-3.9 7-3.6m-29.7 19.3-1.2.8q.2-1 1.2-.8M96 387.9q-.2 1-1.2.8zm17 8q-.1 1-1.2.8zm7 14q0 1.1-1.2.8zm-35.6 9.4-1.2.8q0-1.1 1.2-.8m134.8-.4h.9q0 1.2-1.2 1.2zm-91.1 4q-.5 1.4-1.8 2l-.3-1q.8-1 2-1"/><path fill="#e0e0f8" fill-opacity=".5" d="M365 234.3q-.3.8-1.3.7.6-.6 1.3-.7M350.3 267l-1.3.7q.3-.9 1.3-.7m-13.3 3.1q-.4.9-1.3.8zm-220 13q-.5.9-1.2.8zm174.3 0-1 .6c-.5-.9.5-.6 1-.7m117.6 3.7c0 .8-1.2 1.7-2 .8a2 2 0 0 1 2-.8m-303.6 8q-.5.8-1.4.9.5-.8 1.4-.8m305 23.2q-.5.5-1.3.7.4-.9 1.4-.7M168 364.3q-.2.9-1.2.6a2 2 0 0 1 1.2-.6m-62 5.7q-1 2-3 2.2.7-2.2 3-2.2m36 9.3q-.3.9-1.4.7zm-52.7 18.9q-.6.5-1.3.7.4-.7 1.3-.7m-19 12q-.6.5-1.2.7.3-.7 1.1-.7m72.7 3.8c.3-.6 1.4-1.5 2-.6a2 2 0 0 1-2 .6m-39 5.4q-.4.8-1.3.6.6-.5 1.3-.6m319.2 24.5q-.7 1.9-2.7 2.1c-1.4-1 2.3-1.7 2.7-2.1M94 455.9q-.9 2-3 2.1a4 4 0 0 1 3-2"/><path fill="#d9abcc" d="M163.3 180.8a13 13 0 0 1-4.4 4.3q-.6.2-.8.8-1 .1-1.2 1.2l-9.2 4.3q.3-1 1.3-1.8l12-7.9q1-.6 2.3-.9"/><path fill="#8d8d9c" fill-opacity=".1" d="M435.8 283.3q.8 0 1.1.6-6 3-11.8 6.8l-2.3.7q0-1.2 1-2l10.2-6q.9-.7 1.8-.1"/><path fill="#cbd0f2" fill-opacity=".9" d="M272 212.9q1.7.5 3 1.8l-10.7 6q-.6.2-1-.3 4.5-3.6 8.7-7.5"/><path fill="#e1e1f9" fill-opacity=".5" d="M340 199a3 3 0 0 1-3 2 4 4 0 0 1 3-2m-2 39c0 .8-1.3 1.7-1.9.7q.7-.9 1.8-.7m58 69a4 4 0 0 1-3 2q.9-2 3-2m-112 15a4 4 0 0 1-3 2q.8-2.3 3-2m-178 48c.3-.7 1.3-1.6 1.9-.7q-.8.9-1.9.6m254.9 56.2a3 3 0 0 1 2.7-2.1c1.4 1-2.1 1.7-2.8 2.1M94 456q.3-1 1.6-1 .6.4-.1 1-.8.2-1.5 0"/><path fill="#e2e2fb" fill-opacity=".2" d="M432 298q-.3 1.1-1.3.7zm-242 54.2q-.7 1-1.6 1.6-4 2.6-8.3 5l-1.2-.8 9.1-5.5a3 3 0 0 1 2-.3m173.8 7.9.3 1q-.8 1.1-2.2 1 .6-1.4 1.9-2M86.9 410.9q-.2 1-1.2.8z"/><path fill="#e3e3f9" fill-opacity=".3" d="m253.8 111.7 1.4.7-1.2.6zM424 278a8 8 0 0 1-5 3c.5-1.6 3.2-3.1 5-3M74 308q-.1 1-1.3.8zm-4.8 10.2-1.2.9q0-1.1 1.2-.9M362 362.1c-.2 1.6-3.5 2.6-4.9 2.9.5-1.3 3.6-3.3 5-3m-188.6 1.2-1.2.7q0-1.2 1.2-.7M99 404q-.3 1.1-1.3.7zm3.3 21.3q-.6.5-1.2.7 0-1.1 1.2-.7m-8 5-1.2.8q0-1.1 1.2-.8"/><path fill="#e3e3fb" fill-opacity=".2" d="m213.4 169.8-.4 1.2c-2 .7-6 4.3-8 4q.4-.7 1-1.2c2.3-1.2 4.7-4 7.4-4m173 76.5-1.3.8q0-1.1 1.2-.8m-33 1-1.3.8q0-1.1 1.2-.8m-4.5 33.6q0 1-1.2.8zm26.4 57.4-1.2.8q0-1.2 1.2-.8M115 377q-.3 1-1.3.8zm24 22q-.3 1-1.3.8zm-4 20q-.6 1.2-2 1 .6-1.3 2-1"/><path fill="#b2b2c9" fill-opacity=".1" d="M217.7 166.4q0 1 1 1.2-2.9 1.5-5.7 3.4l.4-1.2q0-.8.5-1.2zm70 135q.3 1 1.4 1.1-3.2 1.6-6 3.5l-.3-.8q1.8-2.7 5-3.8"/><path fill="#7d5154" fill-opacity=".9" d="M299 479.6q-3.8-.1-7.4.4l-.6-.2q.6-.7 1.5-.6 3.3 0 6.5.4m0 0q4 .4 8.3.3c-.2 1.2-2.7 1.7-3.8 2q-2.3-.3-4.5-1z"/><path fill="#d7d7ee" fill-opacity=".2" d="m282.8 305.2.2.8c-2.2 1.3-11.2 7-13 7q.6-1.2 1.6-1.8l9.3-5.9q.9-.4 1.9 0"/><path fill="#d5d5ed" fill-opacity=".2" d="M386.7 377.1q.3.9 1.4 1.2-4.5 2.8-9 5.3-1 .4-2 .3 0-.8.9-1.2 4.2-3 8.7-5.6"/><path fill="#e0e0fb" fill-opacity=".2" d="M365.9 251.9q-.2 1-1.2.8zm1.5 22.4-1.3.8q0-1.1 1.3-.8M424 278c.4-1 2-2.8 3-1.6a3 3 0 0 1-3 1.6m-310 7q-.3 1.1-1.3.7zm299.3 31.3-1.2.8q0-1.1 1.2-.8M73 341.1c-.3 1.1-3.6 3.2-4.8 2.7v-.7c1.4-.8 3-2.4 4.8-2m33.3 46.2-1.2.8q0-1 1.2-.8m47 6-1.2.8q0-1 1.2-.8M101 420.9q0 1.1-1.2.8z"/><path fill="#d2d2ec" fill-opacity=".2" d="M150 236.2c-2 2.2-7 5-9.7 6.6q-.7-.8-1.6-.9l9.3-5.4q1-.6 2-.3"/><path fill="#d8d8eb" fill-opacity=".2" d="m95.7 466.1.2 1c0 1.3-4.9 3.2-5.9 4.3q-.7.4-1.8.6l-1-.2q.5-1 1.4-1.6z"/><path fill="#e1c0df" d="M260 74.9v1c0 1.3-6 3.8-7 4.7a3 3 0 0 1-1.8.4q0-1 .7-1.4c2.4-1.2 5.6-4.4 8.2-4.7"/><path fill="#b48d98" fill-opacity=".6" stroke="#b48d98" stroke-opacity=".6" stroke-width=".5" d="m297.1 425.2.5.1c2.2-.1-8.5 5.5-8.4 5.4a1 1 0 0 1-1-.3c1.8-1.3 6.8-5.7 9-5.2Z"/><path fill="#e090ba" d="M247.7 82.4v.6c.5 1.1-1.2 1.3-2 1.3q.4-1.6 2-2m-58 66.9v.8c.4 1.4-3.6 2.9-4.8 2.9.3-1.5 3.6-2.8 4.9-3.7m-42 42c.9 1-2.5 1.6-2.9 1.9q.6-2.4 2.9-1.8"/><path fill="#e5e5fa" fill-opacity=".2" d="m410.2 347.9-.2 1-8 4.8-2 .4q.3-.9 1-1.4 3.6-2 7-4.3 1-.6 2.2-.5"/><path fill="#e2e2f9" fill-opacity=".4" d="M336.3 275q-.6.6-1.3.8.4-.8 1.3-.8m102 19.3q-.7.7-1.7.7.7-.5 1.6-.7M262.8 299c.2 1.1-1.2 1.2-2 1q.5-1.2 2-1m128.4 25.5q-.7.4-1.6.6.7-.6 1.6-.6M165 348.2q-.3.9-1.3.7.5-.6 1.3-.7M357 365a4 4 0 0 1-3 2q.8-2 3-2m-201.2 6.2q-.3.9-1.3.7zM374 386q-.5 1-1.8 1 .5-1.5 1.9-1m-156.8 33.8 1 .1q-.3 1-1.3 1zm229.2 11-.5 1.1-1-.3q.6-.7 1.5-.8"/><path fill="#d5d5ea" fill-opacity=".2" d="M371.6 355q.4 1 1.5 1.3l-7.8 4.7-.2-1.2q.6-1 1.5-1.6z"/><path fill="#cbb7c9" fill-opacity=".9" d="m226.9 414.1-.1.8h-.8q.3-.6.9-.8m-1 .8v.8h-.9l-1 .1q.8-1 2-.9m-1.8 1-.2 1.2h-.7l-1.1-.1q.5-1.1 2-1.2m-2 1-.4 1.1-.8-.3q.4-.6 1.2-.7m-1.2.8q.1 1-1 1.3h-.8q.6-1 1.8-1.3m-1.8 1.2-.3 1.2h-.7l-1-.2q.7-1 2-1m-2 1-.3 1.1-.7.2-1-.2q.7-1 2-1.1m-2 1-.4 1.3-.8-.4q.4-.8 1.2-.8m-1.2 1q.2.9-.7.8H212a3 3 0 0 1 1.8-.9"/><path fill="#d2d2e8" fill-opacity=".2" d="M217.2 185.3q0 1 .9 1-3.5 2.2-7 4.1-1 .6-2 .4c.6-1.4 6.7-5.2 8.1-5.5"/><path fill="#afbaee" fill-opacity=".7" d="M246.2 214.4q-.3.6-1 .8 0-1 1-.8m-1 .8q0 .9-1 .8.1-.9 1-.8m-1 .8-.2 1h-1.2q.6-.7 1.4-1m-1.3 1q.2.9 1.1 1.3l1.9-.2-4.6 3q-.9.3-1.3-.4 1.5-1.8 2.8-3.8m3-.2 1.2.4q-.3.9-1.2.9z"/><path fill="#e1e1f9" fill-opacity=".5" d="M327 195a3 3 0 0 1-2.6 2c-1.9-.9 2.1-1.7 2.5-2m-107 7c-.3 1-2 2.4-2.9 1.5q.8-1.8 2.9-1.5m-62 11a3 3 0 0 1 2.6-2c1.7 1.3-1.8 2-2.6 2m86 4q.9-.2 1.8-.1v1.2l-1.8.2zm-89 16q.5-1.1 1.6-1.8 2.5-.3.6 1.4-1 .4-2.3.4m106 67q-.7 1.8-2.6 2.1c-1.6-1 2-2 2.5-2.2m132 9c0 1-1.4 1.7-2 .6a2 2 0 0 1 2-.6M81 348a4 4 0 0 1 2.6-2c1.7.9-2.2 1.8-2.6 2m311 11c-.2.7-1.3 1.7-2 .7a2 2 0 0 1 2-.8m-170 58h1.2q-.5 1-1.5 1zm126 51q.4-1 1.5-1c1 .7-1 1.2-1.4 1"/><path fill="#d0d0e7" fill-opacity=".2" d="m143.8 450.2.1 1c-.6 1.5-5.4 3.6-6.9 4.8q0-1-.9-.8a2 2 0 0 1 1.2-1.4q3.3-1.7 6.5-3.6"/><path fill="#dfdff7" fill-opacity=".3" d="M377 245q-.3 1-1.3.7zm23.3 10.3-1.2.8q0-1.1 1.2-.8M152 263l.5.6-1.4-.1zm142 16q0 1-1.2.7zm47 7q0 1-1.2.7zm-25.6 1.3-1.2.8q.2-1 1.2-.8M421 304.9q0 1-1.2.8zm-11 7q0 1-1.2.8zm-8.6 11.4q-.6.5-1.2.7 0-1.1 1.2-.7M363 341.9q-.2 1-1.2.8zm-186 18-1-.5q.7-.5 1 .4M76.2 406.2l-1.2.8q.1-1 1.2-.8m16 8-1.2.8q0-1.1 1.2-.8"/><path fill="#cecee7" fill-opacity=".2" d="m124.7 424 .2 1.1c-1.4 2-5 3.4-7 4.9q0-.9-.7-.7a2 2 0 0 1 1.1-1.5q3.4-1.7 6.4-3.8"/><path fill="#aaaabd" fill-opacity=".1" d="M103 309.6v1.4a41 41 0 0 0-6.4 4q-1-.2-1.6-1z"/><path fill="#e1e1f8" fill-opacity=".3" d="M324 260q-.3 1.1-1.3.7zm64.3 2.3-1.3.7q.3-1 1.3-.7m-85 32-1.3.7q.3-1 1.3-.8M406 301c-.8 1.2-3.6 3.2-5 2.9.3-1.4 3.5-3 5-2.9m-255.1 91q-.3.8-1.3.6zm-59 16q-.3.8-1.3.6z"/><path fill="#e1e1f9" fill-opacity=".8" d="M220.9 479.8h1.1q3-.2 6 .4l-.2.6c-2 1.6-6 1.8-7-1"/><path fill="#e5e5fb" fill-opacity=".2" d="M91 379.1c-1.2 2.1-5 3.5-7 5v-1.4c1.6-1.3 5-4 7-3.6"/><path fill="#d7cfe4" fill-opacity=".8" d="m217 425.1.9-.1c-.2 1.5-5.3 4.5-6.8 5.2l-.4-2.2h1.3l1.3-.7q1.7-1.4 3.7-2.2"/><path fill="#d1d1e4" fill-opacity=".1" d="M422.8 291.4q0 .8-.7 1-3 1.6-5.8 3.5l-.2-1.1q0-.5.4-.8c1.7-.6 4.4-4 6.3-2.6"/><path fill="#acacbd" fill-opacity=".9" d="M257.8 479.1q5.3-.3 10.4.1-.7.8-2 .9c-1.5-.4-6.1-1.3-6.5 1.1a4 4 0 0 1-1.9-2.1"/><path fill="#e1e1f9" fill-opacity=".8" d="M266.3 480q-.7.7-1.7 1l-.8.5a4 4 0 0 1-4-.3c.3-2.4 4.9-1.5 6.5-1.1m25.3 0q3.6-.6 7.4-.4v1.2l-1.3.3-.9.5q-3 1-5.2-1.6"/><path fill="#9dabe8" d="M281.4 220.7q1.2.7 1.6 2.1c-2-.2-5.6 3.8-7 2.7q3-2.1 5.4-4.8"/><path fill="#e1e1f9" fill-opacity=".6" d="m192.9 480.7 5.4.3c0 1.3-5.2 2-5.4-.3m126.9.5q2.6-.9 5.3-.5c0 2-4.9 1.6-5.3.5"/><path fill="#b3b3c9" fill-opacity=".2" d="M414.6 344.3q.2 1 1.2 1.3-3 1.6-5.8 3.4l.2-1.2c.3-1.6 3.1-2.6 4.4-3.5"/><path fill="#bcc3f0" d="m256.2 211 .7-.4.9.5q-.6 1-1.9 1zm-1.9 1 .6-.1 1 .2q-.6 1-1.8 1zm-2 1.2h1.8q-1.2 1.5-3 2l.2-1q.7-.2 1-1m-3 1.7.6-.2 1.1.5q-.8 1-2 .8z"/><path fill="#e0e0f9" fill-opacity=".4" d="M383.7 259q.1 1-1 1zm-14.3 14q-.6.6-1.4.7.5-.7 1.4-.7m44.7 11a2 2 0 0 1-2 1q.6-1.2 2-1m27.2 16.1q-.5.4-1.1.6.1-.7 1-.6M86 301.2q-.4 1-1.3.8a2 2 0 0 1 1.3-.7m315 2.8q-.9 1.9-3 2 .8-2 3-2"/><path fill="#e0e0fa" fill-opacity=".4" d="m254.3 212-.2 1.2h-1q0-1.2 1.2-1.2m99.9 29.2q-.6.7-1.5.7zm-25 19.9-1.2.7q.3-.9 1.3-.7m47 7.9-1.1.8q.2-1 1.2-.8m-85 32.1-1.3.6q.4-.8 1.3-.5m60 51-1 .6q.1-.7 1-.7M163 385.3c.3.8-.8.3-1.1.4q.5-.3 1.1-.4m-62.6 5.7a3 3 0 0 1-1.6.7q.7-.7 1.6-.7M66 441q-.4 1-1.3.9a2 2 0 0 1 1.3-.8m1.3 6-1.6.6a2 2 0 0 1 1.6-.7"/><path fill="#71717b" fill-opacity=".1" d="M368.1 220v1q-1.5.8-3.1 1.4V221q1.4-1.2 3.1-1m-87 67.8v1.2q-1.5 1-3.4 1.4a5 5 0 0 1 3.3-2.6m134 185.8q0 .5-.4 1-.8.4-1.4 0c-.3-.7 1.5-.8 1.9-1"/><path fill="#b5b5c9" fill-opacity=".1" d="M237.7 190.3q0 1 1 1.3-2.9 1.5-5.7 3.4l.2-1.1c.8-1.9 2.9-2.7 4.5-3.6"/><path fill="#b2b2c4" fill-opacity=".1" d="M171.7 345.3c-.4 1.5-3 2.5-4.3 3.4q-.3-1-1.4-1.2c1.4-.4 4.3-3.3 5.7-2.2"/><path fill="#b8aebe" fill-opacity=".8" d="m247.8 479.4 3.2-.2q-3 2.7-7 2.8 1.8-1.5 3.8-2.6"/><path fill="#e1e1f8" fill-opacity=".3" d="M368.1 220q.5 0 .9.4-.3.5-1 .6zm-12.8 61.3q-.6.5-1.2.7 0-1.1 1.2-.7M333 291q-.3 1.1-1.3.7zm94.3 17.3q-.6.5-1.2.7 0-1.1 1.2-.7m-286 57-1.2.8q0-1.1 1.2-.8m5 15-1.2.8q0-1 1.2-.8M125 389q-.3 1-1.3.8zm-54.7 56.3-1.2.8q0-1 1.2-.8m129 24.6-.4 1-.9.2q.4-.9 1.3-1.2"/><path fill="#d3c6d9" d="M300 455.8v3.2q-1.8.3-3.4 1c-.7-1 2.5-3.8 3.4-4.2"/><path fill="#71717c" fill-opacity=".1" d="M369.7 285q.9.1 1.3 1-1.5 1-3.3 1.2.5-1.6 2-2.2M175 342.6v1.4q-1.5 1-3.4 1.3a4 4 0 0 1 3.4-2.7"/><path fill="#a63865" fill-opacity=".1" stroke="#a63865" stroke-opacity=".1" stroke-width=".5" d="M316.3 145.8v1.3c-2 .5-3.6 2.3-5.7 2.3l-.6-.5c2-1 3.8-3.1 6.3-3.1Z"/><path fill="#a4a4b3" fill-opacity=".1" d="M117.2 429.3q.8-.2.8.7-1.8.8-3.4 2-.9-.2-1.6-1c1.2-.5 2.7-2.2 4.2-1.7"/><path fill="#e2e2f9" fill-opacity=".3" d="m247.3 216-.2 1.2-1.3-.3q.3-1.1 1.4-.8m144.3 38q.2 1-1 1zm-69.2 11q-.6.5-1.4.8.4-.9 1.4-.8m-183.1 8.1-1 1q0-1.1 1-1m205 83q-.6.4-1.3.6.3-.8 1.2-.6m-182 14-1 .8q0-1 1-.8M73 437.3q-.3.8-1.2.6z"/><path fill="#e094bc" d="M249.8 81.2v1q0 .5-.6.5v-.8q0-.6.6-.8m146.8 151-.7-.4-.2-.8c.4-1 2.3-2.6 3.1-1.7z"/><path fill="#c3315c" fill-opacity=".1" stroke="#c3315c" stroke-opacity=".1" stroke-width=".5" d="m378.9 194-1.6-.3q1.8-1.8 4.3-2.7c1.3 1-1.7 3-2.7 3Z"/><path fill="#a4a4b5" fill-opacity=".1" d="M136.1 455.2q.9 0 .9.8-1.8.9-3.4 2-.9-.2-1.6-1 2-1.2 4.1-1.8"/><path fill="#e0e0f9" fill-opacity=".3" d="M388 237.8q0 1-1.3 1zm-13.7 15.5-1.3.7q.3-1 1.3-.7m-33 1-1.3.7q.3-1.1 1.3-.7m22 91-1.3.7q.3-1.1 1.3-.7m-214 15-1.3.7q.1-1.1 1.3-.7M127 370q-.3 1.1-1.3.7zm-45.8 51.3-1.2.7q.1-1 1.2-.8"/><path fill="#848490" d="M318.8 480.1q3.8-.6 7.3.6h-1q-2.7-.3-5.3.5z"/><path fill="#a7a7b5" fill-opacity=".1" d="M123 335.2q.7.2 1 .8c-1 .3-3.2 2-4.2 1.8l-.8-.7q1.8-1.3 4-2"/><path fill="#e0e0f8" fill-opacity=".3" d="m316.3 145.8 1 .5-1 .8zM435 296q-.1 1.1-1.3.7zM83.3 309.3l-1.3.7q.3-1 1.3-.7M388 326q-.3 1-1.3.8zm-218 37q-.1 1-1.3.8.6-.6 1.3-.8m-43.8 47.2-1.2.8q.2-1 1.2-.8"/><path fill="#7a8fdf" d="m222.2 256.3-.3-2.2c1 .3 3.3-1.9 3.8-.6z"/><path fill="#d1c2d5" d="M215.2 408.6c-.5 1.8-2.7 3-4.3 3.5v-2z"/><path fill="#ccbacc" fill-opacity=".9" d="m233.9 410.2.2.9-1.1-.2a1 1 0 0 1 .9-.7m-1 .7q0 .6-.8.9H231q.7-1 2-1m-2 1-.2 1h-.6l-1 .1q.6-1 1.9-1.2m-1.8 1.1-.4 1h-.6q.1-1 1-1"/><path fill="#b8b8d0" fill-opacity=".1" d="M394.7 413.3q0 1 1 1.3-1.5 1.4-3.7 1.5a5 5 0 0 1 2.7-2.8"/><path fill="#dedefa" fill-opacity=".2" d="m117.3 287.3-1.2.8q0-1 1.2-.8M407 314q0 1.1-1.2.8zm-19.5 17.4-1.3.8q.1-1.1 1.3-.8M359.9 344q-.1 1-1.2.8zm-257 40q0 1.1-1.3.8zm-26.6 40.4-1.2.8q0-1 1.2-.8"/><path fill="#dfdff9" fill-opacity=".3" d="M126 333v1.2q-.7 1.2-2 1.8a2 2 0 0 0-1-.8q1.4-1.2 3-2.2"/><path fill="#dacde7" d="M351.9 186c.2 1-1.5 2-1.9 3q-.6-.2-1.3-.8l.1-1q1.5-1.2 3-1.3"/><path fill="#b82c60" fill-opacity=".1" stroke="#b82c60" stroke-opacity=".1" stroke-width=".5" d="M321 143v1q-1.4 1.2-3.2 1.1l-1-.1a7 7 0 0 1 4.1-2Z"/><path fill="#e5e5fb" fill-opacity=".2" d="m282 286.2.9-.3a2 2 0 0 0 1.2 1.5l-3 1.6v-1.2z"/><path fill="#6c6c7c" fill-opacity=".3" stroke="#6c6c7c" stroke-opacity=".3" stroke-width=".5" d="M68.7 287v1.1q-.3 2-2.3 1.7.8-1.5 2.3-2.8Z"/><path fill="#acacbd" fill-opacity=".8" d="m85.7 271.2.4 1.2q-.5.6-1.2.4l-1 .1q.6-1.2 1.8-1.7m-1.8 1.7-.2 1.3-1-.5q.4-.5 1.2-.8m-1.2.8q.1 1.2-1 1.2z"/><path fill="#7f5559" fill-opacity=".1" stroke="#7f5559" stroke-opacity=".1" stroke-width=".5" d="M216.9 471.2q-.8 1.5-2 2.7l-1.2-.3q.4-2.7 3.2-2.4Z"/><path fill="#d5cde2" fill-opacity=".7" d="M231.2 461a103 103 0 0 1-14.3 10.2q-2.9-.3-3.2 2.4-3 1.5-2.5-1.7 4.4-2.7 9.2-5l6.7-4.3q2-1.2 4-1.6"/><path fill="#e1e1f8" fill-opacity=".4" d="M346 246.3q-.3.7-1.3.7.6-.6 1.4-.7m18 7q-.4.7-1.3.6zm-292 56q-.5.7-1.4.7.6-.6 1.4-.7m91.3 77.8-1.2.7q0-1 1.2-.7m-58 19q-.4.5-1.3.6.4-.7 1.3-.7"/><path fill="#e1e1f8" fill-opacity=".6" d="m284 284 1.4-.2.4.3c.3 1.3-1.1 1.2-2 1zm-57 130 1.2-.2q-.3 1-1.3 1zm204.7 66h1.4l.2 1q-1-.2-1.6-1"/><path fill="#cdbbcd" fill-opacity=".8" d="M245.2 403.7a5 5 0 0 1-2.2 2.6l-.8-.5c0-1.3 2-1.8 3-2"/><path fill="#90a1e6" d="M221 243.1V242l2.5-1.1c1.4 1-1.6 2.3-2.5 2.2"/><path fill="#cab6c7" fill-opacity=".9" d="m239 407-.4.9h-.6q.1-.9 1-.8m-1 .8v.9l-1 .2-.8.1q.5-1.2 1.8-1.2m-1.8 1.2-.3 1-.8-.1q.2-.9 1-.9"/><path fill="#a393a1" d="M299.8 437q.3 1.5 0 3.1l-.6-.1q0-1.3-.9-2.3.6-.6 1.5-.8"/><path fill="none" d="M351.7 450q1.1 0 1.4 1a4 4 0 0 0-1.5 1q-1-.2-1.6-1z"/><path fill="#72727e" fill-opacity=".1" d="M153.8 261.8q1 .3 1.3 1.2l-1.7 1-1-.4-.5-.6z"/><path fill="#9797a5" fill-opacity=".8" d="M339.6 481q2.6-.4 4.7.7c-1.3.2-4 1.1-4.7-.6"/><path fill="#797984" fill-opacity=".4" d="m65.3 393.1.9.2.4.5q-.1 1.4-1.3 2.1z"/><path fill="#bea9b9" d="M301.8 390.9v1.3q-1.5.8-3 1a3 3 0 0 1 3-2.3"/><path fill="#e070a3" fill-opacity=".1" stroke="#e070a3" stroke-opacity=".1" stroke-width=".5" d="M268.8 83q0 1.4 1 2.4c.2.8-1 .6-1.5.4q-.2-1 0-2 0-.5.5-.9Z"/><path fill="#ca8fb2" d="m293 134.2-1-1.2q1.4-.3 2.7-.9c1 .8-.8 2-1.5 2.2"/><path fill="#e1e1f8" fill-opacity=".2" d="m295.9 314 .2 1q-.7 1.3-2.1 1 .6-1.2 1.9-2"/><path fill="#e07aa9" d="M353.2 185.7v-.8q.1-1 1.2-1c.9.9-.4 1.7-1.2 1.8"/><path fill="#895f64" fill-opacity=".5" stroke="#895f64" stroke-opacity=".5" stroke-width=".5" d="M211.4 459.2q.7-.3 1.6-.1-.6 1-1.8 1.7z"/><path fill="#e2e2fd" fill-opacity=".2" d="M367.7 287.2a3 3 0 0 1-1.5 1.7l-.1-1q.3-1.4 1.5-.7"/><path fill="#aa7880" fill-opacity=".2" stroke="#aa7880" stroke-opacity=".2" stroke-width=".5" d="M238 407.8h.6l1.1.5q-.2 1.2-1.4 1.3l-.2-1z"/><path fill="#e1d1ec" d="m249.8 81.2 1.4-.2q-.5 1-1.4 1.1zm-2 1.2 1.3-.5.1.8q-.8 0-1.4.3zm105.4 102.5v.8l-1.3.2q.3-.9 1.3-1"/><path fill="#b28791" d="M217 338q-1.6 0-3.1-.2 1.5-1.6 3 .1"/><path fill="none" d="m309.4 149.3.6-.4.6.5q.3.5-.2.3-.8.3-1-.4"/><path fill="#e1d7f1" d="M191.8 148.2h1.3v.4l-1.2.5zm-2 1 1.3-.2v.8l-1.4.3z"/><path fill="#797982" fill-opacity=".2" stroke="#797982" stroke-opacity=".2" stroke-width=".5" d="M71 480.3q1.2-.2 2 .1c-.4.3-2 1-2-.1Z"/><path fill="#b76d90" d="m301.4 142.2 1.3.2-.6.4q-.6 0-.7-.6"/><path fill="#cbcbe1" fill-opacity=".4" stroke="#cbcbe1" stroke-opacity=".4" stroke-width=".5" d="m60.9 473.3 1-.3q.8.2 1.4.8c-.6 0-2.3.5-2.4-.5Z"/><path fill="#d7d7ef" fill-opacity=".8" stroke="#d7d7ef" stroke-opacity=".8" stroke-width=".5" d="m283 284.8.9.2a2 2 0 0 1-1 1l-1 .2q.2-1 1.2-1.4Z"/><path fill="#dfdcf3" fill-opacity=".5" stroke="#dfdcf3" stroke-opacity=".5" stroke-width=".5" d="m211 423 1-.3h1.2q-.4 1.6-2.2 1.7z"/><path fill="#cfd3f5" fill-opacity=".9" d="m259.1 209.2 1.2-.5.7.2q-.3 1.4-1.7 1.2z"/><path fill="#dfdbee" fill-opacity=".4" stroke="#dfdbee" stroke-opacity=".4" stroke-width=".5" d="M239 407h1.8q0 1-1.1 1.3l-1-.4q0-.5.3-.8Z"/><path fill="none" d="m316.8 145 1 .1q0 .8-.5 1.2l-1-.5q-.1-.6.5-.8"/><path fill="#e0aacf" fill-opacity=".6" d="M396.3 212.3c-.3.5-.2 1.8-1 1.6v-.7q0-.8 1-.9"/><path fill="#c8cef4" fill-opacity=".9" d="m247.3 216 .6-.2 1 .2a2 2 0 0 1-1.8 1.2z"/><path fill="#d7cfe5" fill-opacity=".7" stroke="#d7cfe5" stroke-opacity=".7" stroke-width=".5" d="M242.3 405.8v1l-1.5.1h-.5c-.3-1 1.3-1 2-1.1Z"/><path fill="#e09bc3" d="m191.8 148.2.1.9q0 .6-.7.7v-.8q0-.8.6-.8"/><path fill="#e2e2fa" fill-opacity=".4" d="M289.1 282.2q-.4.9-1.3.7.5-.6 1.3-.7m-114.2 78q0 1.1-1.1.7z"/><path fill="#e1e1f9" fill-opacity=".7" d="m251.3 214.2-.3 1-1.1-.5q.5-.8 1.4-.5"/><path fill="#7782b3" d="M221 216.9q0 1-1 1 .2-.8 1-1"/><path fill="#e2e2f9" fill-opacity=".5" d="m256.2 211-.3 1.1-1-.2q.4-.8 1.3-1"/><path fill="#e1ddf5" fill-opacity=".9" d="M276 100h1q0 .9-1 1z"/><path fill="#cfd3f5" d="m258.1 210.2 1.2-.1q-.6.8-1.5 1z"/><path fill="#e1e1f9" fill-opacity=".7" d="m258.1 210.2-.3 1-1-.6a2 2 0 0 1 1.3-.4"/><path fill="#e1e1fa" fill-opacity=".6" d="m233.9 410.2 1.2-.3q0 .9-1 1.2z"/><path fill="#b38a96" fill-opacity=".6" d="M226 419q-.2.8-1 .7 0-.7 1-.8"/><path fill="#d3cde3" fill-opacity=".2" stroke="#d3cde3" stroke-opacity=".2" stroke-width=".5" d="M224.4 419.7q-.4 1-1.4 1.4.2-1 1.4-1.4Z"/><path fill="#e1e1f9" fill-opacity=".5" d="m215.1 421 1 .2q-.4 1-1.4 1z"/><path fill="#d0c0d2" fill-opacity=".6" stroke="#d0c0d2" stroke-opacity=".6" stroke-width=".5" d="M223 421.1a2 2 0 0 1-1 1q0-1 1-1Z"/><path fill="#c5acbd" fill-opacity=".9" d="m221.3 422 .7.1q-.3.6-.9.9z"/><path fill="#d5d5ec" fill-opacity=".7" stroke="#d5d5ec" stroke-opacity=".7" stroke-width=".5" d="M134 226q-.3.8-1.2.9.3-.9 1.3-1Z"/><path fill="#e0def6" fill-opacity=".6" stroke="#e0def6" stroke-opacity=".6" stroke-width=".5" d="M220.2 423q-.3 1-1.3 1 .3-1 1.3-1Z"/><path fill="#c8c8de" fill-opacity=".3" stroke="#c8c8de" stroke-opacity=".3" stroke-width=".5" d="M132.8 226.9q0 1-1.1 1 .3-.7 1-1Z"/><path fill="#d7cfe6" fill-opacity=".9" d="M218.2 424h.7q0 .9-1 1z"/><path fill="#b4a0af" d="M299.7 424v1.1l-.6-.2q0-.7.5-1"/><path fill="#e1def6" fill-opacity=".3" stroke="#e1def6" stroke-opacity=".3" stroke-width=".5" d="M260 74.9q.8.3 1.3.7l-1.4.3z"/><path fill="#e2e2f8" fill-opacity=".1" d="m213.3 427.3-1.3.7q.1-1.1 1.3-.7"/><path fill="#8b5f76" d="M88 268.9q-.3.8-1 1.2.3-.9 1-1.2"/><path fill="#e1daf3" fill-opacity=".6" stroke="#e1daf3" stroke-opacity=".6" stroke-width=".5" d="M276.7 99.3q.7-.3 1.2.2-.2.6-.8.6z"/><path fill="#e474a2" fill-opacity=".3" stroke="#e474a2" stroke-opacity=".3" stroke-width=".5" d="M451 273q0 1-1 .8.3-.6 1-.8Z"/><path fill="#d9d9ef" fill-opacity=".6" stroke="#d9d9ef" stroke-opacity=".6" stroke-width=".5" d="m63.3 442 .6.2a2 2 0 0 1-.9 1z"/><path fill="#b0a7b7" fill-opacity=".8" d="M211.3 441.9c1.2-.2.6 1.2-.1 1.4z"/><path fill="#dcdcf4" fill-opacity=".5" stroke="#dcdcf4" stroke-opacity=".5" stroke-width=".5" d="m255.1 208.3 1.2-.3q-.6 1-1.6 1z"/><path fill="#e177a6" fill-opacity=".5" d="M449.4 274.3q-.6.8-1.6.9.4-1 1.6-1"/><path fill="#e3e3f9" fill-opacity=".2" d="M69 311q0 1-1 .7.3-.5 1-.8"/><path fill="#9c696f" fill-opacity=".9" d="M206.1 342q-.3.7-1 1 .3-.7 1-1"/><path fill="#d1d1e7" fill-opacity=".7" stroke="#d1d1e7" stroke-opacity=".7" stroke-width=".5" d="M58.4 466.7q.4.6.4 1.3l-.6-.2z"/><path fill="#c088a8" d="m348 187.3.9-.2-.2 1.2z"/><path fill="#e0699b" fill-opacity=".8" d="m447.1 275.4-1.2.9q.1-1.1 1.2-.9"/><path fill="#777781" d="M394.9 231h.8l.2.8q-.8 0-1-.8"/><path fill="#c7acbb" fill-opacity=".4" stroke="#c7acbb" stroke-opacity=".4" stroke-width=".5" d="m240.7 473.2.4.8-1-.1z"/><path fill="#dc1b60" fill-opacity=".4" d="m276.7 99.3.4.8h-1.2q.3-.5.8-.8"/><path fill="#dbdbf2" fill-opacity=".5" stroke="#dbdbf2" stroke-opacity=".5" stroke-width=".5" d="m169.4 474-.3.8-1.2.4q.3-1.1 1.5-1.3Z"/><path fill="#99738b" d="M223 141q-.3.7-1 1 .2-.7 1-1"/><path fill="#b1b1c2" fill-opacity=".3" stroke="#b1b1c2" stroke-opacity=".3" stroke-width=".5" d="M65.2 475.7q.6.4.6 1.2-.6-.4-.6-1.2Z"/><path fill="#9d5575" d="M158.9 185q0 .8-.8.9.2-.6.8-.8"/><path fill="#90909e" d="m284 284-.1 1-.8-.2a1 1 0 0 1 1-.8"/><path fill="#965154" fill-opacity=".3" stroke="#965154" stroke-opacity=".3" stroke-width=".5" d="m242.3 405.8.7.5-.6.5z"/><path fill="#e1e1f9" stroke="#e1e1f9" stroke-width=".5" d="M268.3 83.8q-.2 1 0 2c-.3 1.4-2.3 2-3.3 2.7a868 868 0 0 0-29 17l-2.1.6c.3-1.9 1.8-1.7 3.2-2.5l29-19zm7.6 16.3.2.9a38 38 0 0 1-7.2 8 6 6 0 0 1-2.9-3c.2-1 2-1.1 2.9-1.5q2-1.8 4.5-2.8.8-1.6 2.5-1.6Zm-20.7 12.3.9-.6 8.2 7.9c-3.8.6-18.5 12.6-23.3 14.8q-1 .5-.8 1.4c-2 0-4 1.5-5.2 2.8.7 1.7 4.7-1.8 5.2-2.8 4.3-1.4 20.3-11.4 25.6-14.2 2.5 1.3 6 5.3 8.3 7.3q-1.3.4-2.5 1.2l-54 36.2-3.7 2.2q-.5.5-.5 1.2c-2.7 0-5.1 2.8-7.4 4q-.6.5-1 1.3-1 0-2.1.4-2 1.6.5 1.2 1-.7 1.6-1.6c2 .2 6-3.4 8-4l5.7-3.5 57.4-33.1q1.2-.6 2-1.9l8.2 8.1q-1.2 0-2.3.7a7108 7108 0 0 0-66.8 43.9c-1.4.3-7.5 4.1-8.1 5.5a2 2 0 0 0-2 1.3q-2 .1-3.1 1.8-1.5-.1-2 1.2a1 1 0 0 0-.9.3q.6.2 1-.3 1.5.3 1.9-1.2a3 3 0 0 0 3-1.8q1.7.2 2-1.3 1.2.2 2-.4l7-4 71.7-41.7c2.9.7 6 5.4 8.6 7q-1.2.1-2.4.9-29.1 18.7-58.2 37.7c-1.6 1-3.7 1.7-4.5 3.6-1.8-.2-7.6 3.4-8.1 5.1-2-.2-4.1 1.4-5.1 3q-2-.3-2.9 1.5c1 1 2.6-.5 2.9-1.5q3.1-.5 5-3c2.1 0 6-3.1 8-4q2.8-1.8 5.8-3.4l61-35.2a2 2 0 0 0 1.2-1.5q7.8 6.9 15.3 14.2a3381 3381 0 0 1-49 31.7 4 4 0 0 0-1.3 1.4q-9-.8-18-.2-1.8-.3-3 .8c-9.7 2.6-16 7-23.6 13.1q-.4.4-.4 1-.8.2-1 1c-23 33-9.9 74.7 34 74.8a5 5 0 0 0 5.7.5q.8-.4 1.3-1 10.5-1.2 19.7-6h1.3l-1 1.6a5 5 0 0 0-3.3 2.6q-.8-.6-1.8-.2c-1.4 1.5-7.5 4-8 5.8-1.8-.2-3.9 1.5-5 3q-1.4-.3-2 1c-.5.1-4 1.2-2.5 2.1q2-.4 2.5-2.2c.8.2 2.2.1 2-1a7 7 0 0 0 5-3q1.2.2 2.1-.4c1.7-1.3 7-3.4 7.7-5.1q1.8-.3 3.4-1.4a54 54 0 0 0 7-4q.6-.2 1.2-.7l1-.5 1-.7q.8-.6 1.8-1l1.3-.8.9-.3 1-1a44 44 0 0 0 7-4l3.8-2q.6-.2 1.2-.7l.8-.5 1.3-.7 4.9-2.8 5-3 .7-.5q.8-.2 1.4-.8l5-2.7.6-.5 1.3-.7 5-2.8.7-.6q.8 0 1.3-.7a67 67 0 0 0 10-5.7l.9-.5q.7-.2 1.2-.8l5-2.7.7-.6 1.3-.7 3.7-2q.6-.2 1.2-.7l.7-.6q.8 0 1.4-.7l4.9-2.7 5-3 .8-.5q.7 0 1.2-.8a50 50 0 0 0 5.7-3.3q.8 0 1-.8c1.7 1 6.5 5.2 7 6.9l-1.2 1-1.9 1.1-1.2.8-4 2.4-1 1a39 39 0 0 0-6.5 4.2q-.7 0-1.5.6l-1.7 1-1.2.9-3.1 2q-.4.1-.7.4l-1.3.7-2 1.2-1 .8-3 1.8q-2 1-3.6 2.6-.8.1-1.5.7l-1.6 1-1.3.7a21 21 0 0 0-3.6 2.6q-.8.2-1.5.7l-1.6 1-1.2.7-3.1 2-2 1.3-2 1-1 1q-1 .4-1.7 1l-1.3.8q-2 1-3.6 2.5-.8 0-1.3.7-1 .4-1.8 1a25 25 0 0 0-4.7 3.3q-.8.2-1.5.6l-1.8 1-1.2.9-3.1 2-3.8 2.2-1.3 1-1.7 1-1.2.7a17 17 0 0 0-3.5 2.6q-.9 0-1.6.6l-2.9 1.9-3.4 2.5q-.8 0-1.5.5l-2 1.6q-3.2 1-5 3.8-1-.3-1.9.1-4.5 3-9.3 5.9-1 .6-1.6 1.8-1.5-.2-2 1-2.1.2-3 2-1.1-.3-1.9.7c.6 1 1.8.1 2-.7a3 3 0 0 0 2.8-2q1.5.3 2.1-1c1.8 0 10.8-5.7 13-7l6-3.5.8-.8q.8-.1 1.4-.5a40 40 0 0 1 5.1-3l.8-.5 1.3-.7 4.9-2.7.7-.6q.8-.2 1.3-.7l1.8-1 1.2-.7.7-.5q.9 0 1.4-.8l5-2.7.6-.6q.8 0 1.3-.7l5-2.7.7-.6 1.3-.6 3-1.8 1-.4q.6-.3 1-1a26 26 0 0 0 5-2.6l.7-.5q.8-.2 1.3-.8l5-2.7.7-.5 1.3-.7 5-2.8.7-.5 1.3-.7 1.8-1 1.2-.8.6-.5q.9 0 1.4-.7a274 274 0 0 0 14-8l5-2.8 5-3 .8-.6q.8 0 1.2-.7l5-2.7.8-.6q.6-.2 1.3-.7l3.6-2q.9-.2 1-1c2 1.5 5.9 5 7 7l-1.4 1-3 1.7q-1.8 1.4-4 2.3l-1 1-3 1.7q-1.8 1.5-3.9 2.2l-1 1.1-1.8 1q-.6.2-1.2.7-2 1.4-4 2.3l-1 1-3 1.7q-2 1.4-4 2.3l-1 1a14 14 0 0 0-3 1.7q-2 1-3.5 2.6l-1.6.6-1.7 1-1.2.8q-2 1-3.4 2.6-.9 0-1.5.7l-1.9 1q-.6.2-1.2.7-2 1.1-3.6 2.5-.7.2-1.5.7l-1.7 1-1.2.8q-1.8 1.1-3.5 2.5-.9.2-1.6.8l-1.6 1-1.3.7q-1.8 1.1-3.5 2.5l-1.5.7-1.7 1a41 41 0 0 0-5 3.3l-1.3.7a40 40 0 0 0-6.5 4.5q-.8 0-1.4.4l-2 1.5q-5.6 3-10.8 6.4-.7.4-.8 1l-1.3.4q-1.3.5-2 2c-1.8-.3-4 1.4-5 2.9q-2 .2-3 2-1.3-.3-1.8 1-2.4-.3-3.1 2a2 2 0 0 0-2 .7c.5 1 2.1.3 2-.8q2-.2 3-1.9 1.6.3 2-1 2-.2 3-2c1.7 0 4.2-1.3 5-3q1.4.3 2.1-1l1.3-.2 12.7-7.3 1-.8 1.2-.5q1.8-1.4 4-2.3.6-.2 1-.7 1.7-1.4 3.8-2.1l1.2-.8.6-.6 1.4-.6 5-2.8.7-.6q.8-.1 1.3-.6l5-2.8.8-.5 1.1-.7 1.9-1 1.2-.8.7-.5q.8-.2 1.3-.8a23 23 0 0 0 5-2.7l.7-.5q.8 0 1.3-.7l5-2.8.8-.5 1.3-.8 4.9-2.7 5-3 .7-.6q.8 0 1.3-.7a60 60 0 0 0 7-4l5-2.7.7-.5q.8-.2 1.4-.8l4.9-2.7 5-3 .9-.6q.7 0 1.2-.7l5-2.7.5-.5 1.4-.7q1-.5 1.7-1.4 3.9 2.9 7.3 6.4-20.5 13.3-41.6 25.9-1.5.6-2 2.2-1.3-.6-1.6.7l-1.3.2q-.6 0-.8.7l-1.2.3c-1.6 1.4-6 3.1-6.9 4.9q-3 .6-5 3-3 .4-4.8 3-1.6-.3-2.2 1c-.4.3-4.3 1.1-2.5 2q1.8-.3 2.5-2 1.6.3 2.2-1c1.7.1 4.1-1.4 4.9-3 1.7 0 4.4-1.3 5-3 2 .1 5.5-2.1 7-3.7l1.3-.3q.6-.3.6-1h1.3a3 3 0 0 0 1.4-1.8q2 0 3.4-1.2l41-23.7q.8-.5 1.1-1.4c3 3.4 22.1 20 22.7 22.4q-.9-.5-1.8 0-5.1 3-10.1 6.2-1 .6-1.1 1.9c-1.9-1.4-4.6 2-6.3 2.6a1 1 0 0 0-.4.8l-1.3.3-7.8 4.6q-.7.5-1 1.4c-1.4-.2-4.6 1.5-5 2.9q-2.2 0-3 2-1.4-.2-2 1-2.1 0-3 2a2 2 0 0 0-2 .6c.5 1 2 .4 2-.6q2.1-.4 3-2 1.4.2 2-1 2.1-.1 3-2c1.5.3 4.3-1.7 5-2.9q1.1 0 2-.4 3.8-2 7-4.6l1.3-.2q2.8-1.9 5.8-3.4.7-.3.7-1.1l2.3-.7q5.8-3.7 11.8-6.8 3.9 3 7.5 6.7-.8 0-1.4.3l-1.3.8q-2 1-3.5 2.6-.9.2-1.6.7l-1.6 1-1.3.7-3 2q-1.9 1.1-3.5 2.5l-1.6.7-1.6 1.1-1.2.8-3 2q-2.1 1-3.6 2.5-.9 0-1.4.6-1 .7-2.1 1l-1 1-6 3.8-.5.6q-.9 0-1.4.7l-2 1-1.2 1-4.7 3q-.6.2-1.2.7-2 1-3.4 2.7-1 0-1.6.6l-3 1.8-3 2q-2 1-3.6 2.5-.8 0-1.5.7l-1.6 1-3 2q-.8.3-1.3.7-3.4 2.3-6.9 4.3l-1.1 1-3 1.7-1.8 1.2-1.2.8-.7.5-1.3.8-2 1-1 .9-1.8 1-1.2.9-1.8 1.1-1.2.8-3.7 2.6q-.8 0-1.3.6c-.9.4-3 2.3-.7 2.5-3.2 1.8-24.1 12.2-25.9 13.6-.4-16.4-1.8-26.3-18.9-31.9q-.4-1.5-1.9-1.6l-5.3.6c-24-2.4-49-.3-73-.2q-1.5-1.8-3.1 0a28 28 0 0 0-8.9 5c-2.4-.1-2.7 2-4.1 3.2-2.5-.7-5.3 2.7-7.8 3.4-1.4 1-1 3-3.1 2.7a3 3 0 0 0-2 .3q-4.7 2.7-9 5.5l1 .9q-1.4 1.4-3.2 2v-1q0-1-1-.5l-2 1.5-5 2.9-.9.5a2 2 0 0 0-1.2.6l-1.8 1-1.3.8-.8.3-1.1 1a35 35 0 0 0-5 2.7l-.8.5-1.3.7-4.9 2.9-.8.4q-.8.3-1.2.7l-5 2.9-.7.4-1.4.7-1.7 1-1.2.8-.7.5-1.4.7-5 2.8-.6.5q-.8.2-1.4.7l-4.9 2.9-.8.4-1.3.7-4.9 2.8-5 3-.7.6q-.7.1-1.2.6a32 32 0 0 0-5 2.9l-.9.5q-.7 0-1.3.7l-4.9 2.7-.7.5-1.4.7-4.9 2.9-5 2.9-.8.5-1.3.8a29 29 0 0 0-4.9 2.7l-.7.5q-.7.3-1.2.8l-5 2.8-1 .5-1.1.7-1.8 1q-.7.2-1.3.7l-1 .4-.9.9-1.5 1.2q.6-6.2.8-12.5 1.7.8 3.1-.6l1.2-.8.8-.5q.6-.2 1.1-.7l2-1.1 1.2-1 1.7-1q.6-.2 1.2-.7 2-1 3.6-2.6.8-.1 1.4-.7a75 75 0 0 0 6.7-4.2q.8-.2 1.3-.7a38 38 0 0 1 4.8-3l1.2-.8q2-1 3.4-2.5.9-.1 1.6-.7l4.8-3 1.2-.8.6-.6q.8-.1 1.4-.7l2-1 1-1 3-1.7q2-1 3.6-2.6.8-.1 1.4-.7l1.8-1q.6-.2 1.2-.7l3-2 .6-.5q.8-.2 1.3-.7l1.8-1 1.2-.9 3.1-1.9q2-1 3.5-2.6.8 0 1.5-.6l1.8-1 1.2-.8q2-1 3.4-2.6.9 0 1.6-.6l3-1.8q.7-.7 1.8-1.2l1.2-.8q1.9-1.4 4-2.3l1-1 3-1.7 3.4-2.5q.8-.1 1.5-.7l2.2-1.4c1.2-1 3.9-1.9 4.3-3.4q1.8-.3 3.3-1.3c1.5-1.2 6.6-3.4 7-5q2.2 0 3-2 1.4.2 2-1a6 6 0 0 0 3-2q1.2.2 1.9-.7c-.6-1-1.8 0-1.8.8a3 3 0 0 0-3.1 1.9q-1.4-.2-2 1-2.2 0-3 2c-2.2-.3-5.3 2.2-7 3.6q-2.6.3-3.3 2.7c-1.4-1-4.4 1.8-5.7 2.2l-.9.7q-.8 0-1.3.7a16 16 0 0 1-3.8 2.1q-.7.3-1.2.8l-2.2 1-4.9 3-5 2.9-.7.5q-.8.3-1.3.7l-3.8 2-1.2.8-.7.6-1.4.6a66 66 0 0 0-7 4l-8.7 5-1.2.8-.7.6q-.8 0-1.4.6l-4.9 2.9-.8.4-1.3.7-4.9 2.9-.8.6q-.7 0-1.2.6l-4 2-1 1a28 28 0 0 0-5 2.7l-.6.5-1.4.8a32 32 0 0 0-5 2.8l-.7.4-1.3.8-4 2-1 1a41 41 0 0 0-7 3.9l-5 2.8-.8.6q-.8.1-1.2.6-.8.9-2 1.2l.6-10.2q1.2-.8 1.3-2 1.8-.4 3.5-1.3 6-3.8 12-7.3.6-.5.6-1.2H84c2-1.5 5.8-2.9 7-5q3.2-.6 5-3 1.5 0 2-1 2.1-.1 3-2.2 1.3.3 2-.8 2-.3 3-2.1 1.1.1 1.8-.7c-.5-.8-1.5 0-1.8.7q-2.4-.1-3 2-1.5-.2-2 1-2.3 0-3 2-1.5-.2-2 1c-1.6.1-4.5 1.3-5 3.1-2-.3-5.4 2.3-7 3.6l-1.3.6-14.8 8.3q-.7 1-1.7 1.7l-.9-.2 1.6-22.4q1 .1 2-.4l50.4-31.5q.4-.4.4-1c1.1.3 3.2-1.5 4.3-1.8q1.3-.6 2-1.8l1-.2c1.8-1.3 6-3 7-5 1.5 0 4.5-1.5 5-3q3-.4 5-3 1.4.3 2-.9 1.2-1.5 0 0-1.4-.5-2 1c-1.8-.4-4 1.5-5 2.9q-3.2.4-5 3c-2-.1-5.5 2.3-6.9 3.7q-.6 0-1.1.3-1.6 1-3 2.2-2.2.6-4 1.9l-52 30.2.2-22.4q1 0 1-1c1.2.4 4.5-1.7 4.8-2.8 1.7-.3 4.4-1.4 5-3.2 1.4 0 4.6-1.4 5-2.9q2.1.2 3-2c.5.2 3-.3 1.6-1q-1.3-.2-1.6 1a4 4 0 0 0-3 2c-1.7 0-4.3 1.4-5 3-1.9 0-4.3 1.2-5 3-1.8-.3-3.4 1.3-4.9 2.1l-.9-.1q.3-5 0-10c10.1-5.3 19.4-12.5 29.4-18q3-2.2 6.4-4c2-1.4 5.8-3 7-4.9 1.4-.3 4.6-1.6 5-3q2-.2 3-2 1.4 0 2-1.1 1.2 0 2.2-.4 1.9-1.7-.6-1.3a3 3 0 0 0-1.5 1.7q-1.5-.2-2.2 1-2 .2-2.9 2c-1.5-.3-4.7 1.6-5 3.1-2-.4-5.3 2.4-7 3.5q-4.2 2.1-8 4.4l-27.8 16-.1-11.2.9.3 1.2-.9 1.9-1.1 1.2-.8q2-1.1 3.4-2.5.9-.2 1.5-.8l2.1-1 1-1 1.7-1 1.3-.7q.7-.7 1.8-1.2l1.2-.8q1.8-1 3.4-2.5.9 0 1.6-.7l1.4-1.3q.9-.2 1.6-.8l2.9-1.8 1.9-1.1 1.2-.8 3-2 .6-.5q.8-.2 1.4-.8l1.5-1.2q.9-.2 1.6-.8l1.6-1 1.2-.8 1.9-1.1 1.2-.8 3-2q1.9-1 3.5-2.5.8-.2 1.4-.8l2-1 1-1 3-1.7 3.1-2q1.9-1.1 3.5-2.5l1.5-.7 2-1 1-1q.8-.6 1.8-1l1.2-.8 1.8-1.2 1.2-.8 3.6-2.5q.8 0 1.3-.7.8-.8 2-1l1.2-1.2 1.7-.9c1.9-1.4 9.1-5 9.8-7 1.3 0 4.8-1.7 5-3q1.2.1 2.3-.4 2-1.7-.6-1.3-1 .6-1.7 1.7c-1.8-.2-4 1.6-5 3q-1 0-1.9.5l-12 7-1 .7-1.3.7a14 14 0 0 1-3.7 2.1l-1.3.8-.9.4-1 .8-3.2 1.7-.9.4-1 .8-3.8 2-1.2.8-.8.5-1.2.8-5 2.8-.7.4q-.8.2-1.3.7l-3.7 2-1.3.8-.8.6-1.1.7a14 14 0 0 0-3.1 1.7l-.6.6q-.8.2-1.5.7l-5 2.7-.6.5-1.4.8a108 108 0 0 0-10.6 6l-1.3.8-3.8 2.1-1.2.8-.7.5a2 2 0 0 0-1.3.8 21 21 0 0 0-5 2.8l-.7.5q-.7.1-1.3.7l-5 2.8-.7.5q-.8.1-1.4.7l-1.7 1q-.6 0-1 .7l-1.2.4q0-11.2-.3-22.3 1.9.3 2.3-1.7a5 5 0 0 0 2.3-.5l69.3-44.8c2.6-1.7 7.8-4.4 9.7-6.6 1.3-.4 4.7-1.8 5-3.3q1.1.2 2.2-.3 1.8-1.7-.6-1.4-1 .7-1.7 1.7c-1.8 0-4.4 1.5-4.9 3.3q-1-.2-2 .3l-9.3 5.4-52.6 30.5-.4-1.3 1.3-1q.7-.4 1-1.2l35.8-34.2 1.2.3 1.2-.8c.5-.7 1.9-1 1.5-2.1q1.3 0 2.4-.5l12.4-8.5 8.1-4.8q1.4-.9 2.3-2.1a9 9 0 0 0 5.1-3.2c.8 0 4.3-.7 2.6-2a3 3 0 0 0-2.6 2q-3.3.3-5.1 3.2c-1.7-.2-2.2 1.4-3.9 1.6l-.9 1a58 58 0 0 0-10.6 6q-1.5.8-3.4 1.2 0-1 .7-1.7l118-111.4 1.2.1zm47.5 30q-.6-.3-1.3-.2-.9-.6-1.4-1.4l7-4.3q1-.5 1.7 0zm-94.5-4.5a61 61 0 0 1-7.4 7c-1.8-.3-5.7 3-7.7 3.7v-.4q0-1 .8-1.6 6.1-3.7 12.1-7.8zm115 4q1.3.7.1 1.9l-9.4 10.3c-1.4-.7-4.2-2.5-3.5-4.4q.5.2.2-.3c2.1 0 3.6-1.8 5.7-2.3l1-.8q.6-.4.5-1.2 1.8 0 3.3-1l1-.7q1-.5 1-1.4Zm3.6 16c.4 1.4-3.5 3.7-4 5.1a3 3 0 0 1-1.8-2 20 20 0 0 1 5.8-3.1Zm4.4 13.4a8 8 0 0 1-2.2-2.1l8.5-4.2q.3.8-.6 1.5a27 27 0 0 1-5.6 4.8Zm18.8.6c-.4 1.8-7.2 7-8.3 9.3a8 8 0 0 1-3-3.2c2.2-1.4 9-6 11.3-6.1Zm-29.2 1.8q4 3.2 7.5 7-1.2.3-2.3.9l-27 17.1q-.9.5-1 1.4c-3 2.6-11 6.3-13.1 9-1.7-1.6-14-5.5-14.2-6.2q24.9-14.7 50.1-29.2Zm56.5 20 1.6.3c0 2.5-8.1 10.2-10.1 12.3q-3.3-2-5.7-5zm-22.3 12q6.8 6.3 13.1 13v1.3q-1.7-.2-3.2 1-7.9 5-16 9.7l-1 1.3c-1.3-.1-6.3 2.8-6.8 4q-2 .3-3.2 2-1-.2-1.8.7c.6 1 1.9.1 1.8-.7q2.2 0 3.2-2c1.4.2 6.4-2.6 6.9-4q1 0 2-.5l13.4-7.7 1.6-1.4 3-1.4q.7 0 1-.6c2.7-.1 6.4 4.7 8.1 6.6q-2.2.4-4 2.2-.8.2-1.3.7l-3 1.9-3.1 2-.7.5q-.8.1-1.3.7l-2 1-1 1a40 40 0 0 0-6.5 4.2l-1.5.7-3 1.9-1.8 1.1-1.2.8-.7.6q-.8.1-1.3.7l-2 1-1 1-1.8 1q-.6.2-1.2.7-2 1-3.4 2.6-1 0-1.7.6l-1.7 1-1.2.8a16 16 0 0 0-3.4 2.6q-1 0-1.6.6l-1.7 1-1.3.8q-.8.8-1.8 1.2l-1.2.8q-2 1-3.5 2.6-.9 0-1.6.6l-1.7 1-1.2.8-3.5 2.5-1.5.7-3 1.9-3 1.9q-2 1.4-4 2.3l-1 1-3 1.7a39 39 0 0 1-5 3.2q-.5 1-2 1.2l-.3-.3a1 1 0 0 1 0-1 49 49 0 0 0 17.5-48c1.2.8 2-.5 3.1-.9zM251 208a10 10 0 0 1 4.2.2l-.4.7-8.5 5.4.2-1.5q2.5-2.1 4.5-4.8Zm144.3 5v.8c0 .4-1 1.7-.4 1.8q0 .9-.8 1.3-.6-.6-1.3-.2c-1.6 1.3-7 3.2-6.9 5.5l-2.9-2.5c2-1.3 10.4-6.8 12.3-6.6ZM288 231q1.5 3 2 6c-6.2 2.7-15.3 8.5-21.3 12.2q-1.2.8-2.5.3 10.5-9.6 21.8-18.5Zm129-.2q0 1.2 1.1 1.3c-2.3 3-7.8 8-9.4 11q-3-2.2-5.7-5c4.1-1.6 10.1-6.3 14-7.3Zm2.1 21.6a20 20 0 0 1-3.3-2.6q5-3.2 10.2-6.1 1-.7 1.9-.2a68 68 0 0 1-8.8 9Zm-190.8 18.7a27 27 0 0 1-3-6q12-6.6 23.7-13.7 1-.6 1.7.1zm209.6-18.4v1.4c0 2.6-5 6.1-6.8 8l-1.1.2q-2-1.2-3-3.1zM290 262a14 14 0 0 1-2 5q-2.6 1-4.7 3-1.1 0-.8-1 3.4-3 6.4-6.4l1-.6Zm-36 25.2c-2 .3-10.3-1.2-11-3.2q14-8.1 27.9-16.7 1.5-.8 1.4.8a223 223 0 0 0-18.3 19ZM414 272q-2.2 0-3 2-1.2-.3-2 .6c.6.9 2 .2 2-.7a3 3 0 0 0 3-2c.5.2 2.9-.3 1.6-1a2 2 0 0 0-1.7 1Zm10 5.9c-1.8-.1-4.5 1.4-5 3q-1.5-.3-2 1-2.1 0-3 2-1.2-.2-2 1-2 0-3 1.9a2 2 0 0 0-2 .8c.6.9 1.8 0 2-.8q2-.2 3-2a2 2 0 0 0 2-1q2.1 0 3-2 1.4.3 2-.8 3-.6 5-3.1 2 0 3-1.6c-1-1.2-2.6.6-3 1.6Zm30-2.3c0 1.8-1.9 3.5-3.2 4.5q-2.2-1-4-3 3.4-1.3 7.2-1.5ZM76 296q-1.4-.1-2 1a7 7 0 0 0-5 2.8c.7 1.3 4.7-1.6 5-2.8q1.5.5 2-1c.5-.1 4.2-1 2.6-2q-1.7.4-2.6 2Zm168 47.9c3.7-1 13-.7 17.2-.5-10.4 6.8-21.5 12.7-32.3 19q-.7.5-1.6.2 8.2-9.4 16.7-18.7Zm-25.2.4q4.2-.5 8.2 0c-1.5.9-9 5.7-10.4 5.6q-.5-.3-.2-.9zm57.3-.2a15 15 0 0 1 5 .2l-13.7 8.3q-2.1.3-.5-1.1c1.9-1.4 8.7-5.2 9.2-7.4ZM81 348q-1.4-.3-2 1-2.3 0-3 2-1.5-.3-2 1c-1.5 0-4.4 1.4-5 2.7.7 1.4 4.6-1.6 5-2.7q1.5.3 2-1a3 3 0 0 0 3-2c.7 0 2.2.1 2-1 .4-.2 4.3-1.1 2.6-2q-1.7.3-2.6 2Zm213.8-.4q2 1.3 3.3 3c-9.5 5-20 12-29.4 16.5q.3-1 1.1-1.8c4-2 22.6-17.8 25-17.7Zm-83.7 19.6q-.3-2.1.4-4.1c1.9-1.2 4-1.9 5.5-3.5q.7-.7 1.7-.3a66 66 0 0 1-7.6 7.9Zm-14.2 0c-.2 21.6 0 43.2 1.9 64.9q-1.3 0-2.5.5-36.8 21.1-73.4 42.7c-5.3.6-11 0-16.3-.3a347 347 0 0 1 30.4-19c1.5-1.2 6.3-3.3 7-4.8l1.2-.2c2.2-1.7 11-6 11.8-8q1.4.2 2-1 2.1 0 2.9-2a2 2 0 0 0 2.2-1c.9 0 4-.7 2.5-2q-2 .2-2.5 2-1.5-.2-2.2 1-2 0-2.9 2-1.4-.2-2 1-2.2.5-4 1.7l-7.5 4.4q-.5.2-.5.8l-1.2.3q-3.2 2-6.5 3.6a2 2 0 0 0-1.2 1.4q-2.2.6-4 1.8-14 8.2-28.2 16.2a7 7 0 0 0-1.8 1.6 94 94 0 0 1-14.2-2l.3-.9q1 0 1.8-.5c1-1 5.9-3 5.9-4.3l1.4-.2 8.3-4.9q2-1 3.4-3 1.3.3 2-1c1.4 0 4.4-1.6 5-3q2 0 3-2c.6.2 2.9-.3 1.6-1.1q-1.4 0-1.6 1.2-2.1 0-3 2c-1.3-.3-4.6 1.6-5 3q-1.5-.4-2 1-1 0-2 .5l-9.5 5.5-.5.7-1.3.3-7.1 4.1q-.8.6-1.4 1.6-1.2 0-2.3.5c-6.9-2.2-13.2-5-17.3-11.2A2838 2838 0 0 1 118 430c2-1.5 5.5-2.9 6.9-4.9l1.3-.3q1.4-.6 1.8-1.9c2 .3 4-1.2 5-3q1.4.3 2-1 2.2 0 3-2 1.4.3 2-1a3 3 0 0 0 3-2 2 2 0 0 0 2-.6c-.6-1-1.7 0-2 .6q-2.1.3-3 2-1.4 0-2 1a3 3 0 0 0-3 2q-1.4-.2-2 1-3 .6-5 3-1.4 0-2.1 1l-1.2.1q-3 2.1-6.4 3.8a2 2 0 0 0-1.1 1.5c-1.5-.5-3 1.2-4.2 1.8q-23.6 13.4-47 27.2-2.1-4.8-2.3-10 1 0 2-.6l1.7-.7 1.7-1q.6-.2 1.2-.7 1.9-1 3.5-2.6l1.5-.6 1.8-1 1.2-.8q2-1.1 3.6-2.6.8 0 1.5-.6t1.7-1l1.2-.8q2-1 3.5-2.6.8 0 1.4-.6l1.9-1 1.2-.8 3.5-2.5q.8 0 1.5-.7t1.8-1l1.2-.8 3.5-2.5q.8-.2 1.4-.8l3-1.7q2-1.1 3.7-2.6.8-.1 1.4-.7l1.7-1 1.2-.8q2-1 3.5-2.5.8 0 1.5-.6l3-1.9 3.1-2 .8-.6a2 2 0 0 0 1.2-.6l1.7-1 1.2-.7 1.9-1.2 1.2-.8.7-.5q.8-.1 1.3-.7l3-1.9 3-2q.4 0 .7-.4.8-.2 1.4-.7l2.8-1.9 3.1-2 .7-.4 1.4-.8 1.6-1 1.3-.7a6 6 0 0 1 1.8-1.3q.6-.2 1.2-.7l.8-.6 1.2-.6q1-.6 1.7-1.7-.5-.6-1.2-.4c1.3-1.7 6-3.4 7.9-4.8l2.3.3c7.2-4.5 15.1-10.3 22.9-13.4Zm106 4.7c-.2 2.1.7 6.6-1.2 8q-17 9.7-33.7 19.7l-2 .5c.4-1.6 33.2-26.3 37-28.2ZM211 399q-.3-2.6 0-5c3 0 15.8-8.5 19-10.5q1-.7 2 0c0 1.2-2 1.1-2.7 2-5.2 3.7-13.2 10.5-18.4 13.5Zm90 4.9a15 15 0 0 1-1 7q-14 7.8-27.6 15.9l-1.5.3c7.2-7 21.4-16.8 30-23.2ZM198 437h.6q.8 6.6 1.1 13.1c-5.5 1.8-34.2 19.5-41.8 23.5q-.7.5-.8 1.4l-16.8.6q-.7.2-1.2-.4 1-1.2 2.4-2zm43.7 0q0 .4-.4 1L213 459l-1.6.2a10 10 0 0 1 .1-5.1c5.9-3.5 25.5-15.6 30.3-17.2Zm56.5.7q.8 1 .9 2.3c-1.4.9-4.8 3.2-6.3 3.2.4-2 4.2-3.9 5.4-5.5ZM200 453.8V467c-3.4 0-7.9 4.1-11 5.4q-1 .7-.8 1.9-9.5.6-19 .5l.3-.9c9.4-6.6 21.8-13 30.5-20ZM94 456q-2 .4-3 2.1c-1.5-.4-2.7 1.3-4 1.6q-.7.7-1 1.4c-1.4-.3-6.5 2.7-7 3.7.5 1.5 6.7-2.7 7-3.6 1.3-.2 4.5-1.7 5-3q2.1-.1 3-2.2.7.2 1.5 0 .7-.6 0-1-1.2 0-1.5 1Zm146.7 17.3-.6.7q-4 .4-8.1.1 0-.6.6-1c8.7-4.8 18.3-11.5 27-15.6q1.8 0 .5 1.2zm32.3.4c-3.2 1-11.4.5-15 .4q0-.6.5-.9a716 716 0 0 0 25.5-14.3q.9-.7 1.8-.3zM58.2 468l.7.1c1 1 3 3.6 3 5q-.6 0-1 .3-3.5-1.8-2.7-5.4Zm241 6.1q-3.3.6-6.6-.3l.5-1.2 2-.6q1 0 1.1-1l2.8-1.6c2.2-1.3.3 4.2.2 4.7Zm154.5-5.4q.4 3-2 4.6l-14.7 8.3a4 4 0 0 1-3.8-.4l-.2-1 1-.7q6.3-1.5 12-4.7 4.2-2.7 7.7-6.1ZM198 471.1l.8-.2q.3 1.5-.4 3a13 13 0 0 1-4.9 0q2.1-1.6 4.5-2.8Zm-132.3 5.8q2.4 1 4.7 2.2.6.4.6 1.1-4 .6-5.3-3.3Z"/><path fill="#e2e2fa" fill-opacity=".3" d="M98 375q-.5 1.2-2 1 .6-1.2 2-1"/><path fill="#e4e4fa" fill-opacity=".2" d="M185 337q-.8 2-3 2 .8-2 3-2"/><path fill="#e2e2fa" fill-opacity=".5" d="M204 193.9q-.5 1.5-2 1.2.5-1.4 2-1.2"/><path fill="#7c4f51" d="M297.2 339.1q-3.3-.5-6.6-.5l-.6-.5 5.3-.6q1.5.2 2 1.6"/><path fill="#e2e2fa" fill-opacity=".2" d="m379.3 250.3-1.2.8q.2-1 1.2-.8M339 268.9q-.1 1-1.2.8zm-207.6 9.4-1.2.8q0-1.1 1.2-.8M88 299.9q0 1.1-1.2.8zm351.5 1.4-1.3.8q.1-1 1.3-.8m-371 110-1.3.8q0-1.1 1.2-.8m6.5 24.6q0 1.1-1.2.8z"/><path fill="#8e4444" stroke="#8e4444" stroke-width=".5" d="m205 343-3.6 6.9a12 12 0 0 0-.5-3.8c1.4-1.2 1.7-3.3 4.1-3.2Zm39 .8-16.7 18.7q.8.3 1.5-.2c10.9-6.3 22-12.2 32.4-19 4-.1 11.4-.5 14.9.7-.5 2.2-7.3 6-9.2 7.4q-1.6 1.4.5 1.1l13.8-8.3a38 38 0 0 1 13.6 3.4c-2.4 0-21 15.8-25 17.7q-1 .7-1 1.8-1.2-.3-1.7.6c.4.8 2 .2 1.6-.6 9.5-4.6 20-11.5 29.4-16.5q3.6 3.5 4.3 8.6c-2 .4-6.7 4-8.4 5.4.6 1 8.5-3 8.4-5.4q.9 6.3.6 12.7c-3.8 2-36.6 26.6-37 28.3q-2-.1-2.8 1.4c.7.9 2.7-.3 2.7-1.5l2.1-.5q16.8-10 33.7-19.6.8.2.7 1l-.6 9.9q-2.2.3-3 2.4-2-.6-2.8 1.3c.7.7 3-.3 2.7-1.3l3-1q-.6 5.8-.9 11.7c-8.6 6.4-22.8 16.2-30 23.2q-1.9-.4-2.6 1.4c.7.7 2.9-.3 2.6-1.4l1.5-.3 27.5-16c.8 2.2 0 9.2 0 11.9q-2.2.2-2.7 2.4c-2.1-.5-7.1 3.9-8.8 5.2q.4.4 1 .3c-.2 0 10.5-5.5 8.3-5.4l1.5-.4.7.2V437q-.8.2-1.5.8c-1.2 1.6-5 3.4-5.4 5.5q-2-.3-2.7 1.5c.6.9 3-.6 2.7-1.5 1.5 0 4.9-2.3 6.3-3.2l.6.1q0 7.9.2 15.7c-1 .4-4.1 3.2-3.4 4.2q1.6-.7 3.4-1l1 13.5q0 1.8-1.8 1.5c.1-.5 2-6-.2-4.7l-2.8 1.5q-1 0-1.2 1.1l-1.8.6q-1.5.2-1.9 1.5c-4.3 0-14.7.6-18.3-.4l12.8-15q-.9-.5-1.8.1a716 716 0 0 1-25.4 14.4q-.6.3-.6.9h-17l-.4-.8 19.4-14.6q1.3-1.3-.5-1.2c-8.7 4.1-18.3 10.8-27 15.7q-.6.3-.6 1-8.6 0-17-.3l1.9-2.6a102 102 0 0 0 14.3-10.2q-2.2.4-4.1 1.5l-6.7 4.4q-4.7 2.3-9.2 5-.3-5.6 0-11 1.2-.8 1.8-1.8 14.3-10.4 28.4-21.2.4-.4.4-1a2 2 0 0 0 1.5-1c.7.3 2.4-.4 1.2-1q-1.2 0-1.2 1-1 .1-1.5 1c-4.8 1.6-24.4 13.7-30.3 17.1q-.6-5.3-.3-10.7c.7-.2 1.3-1.6 0-1.4a130 130 0 0 1 0-11.7c1.4-.7 6.5-3.7 6.7-5.2q1-.1 1-1 1 0 1.3-1h1q.5-.3.8-.9a2 2 0 0 0 1-1q1-.3 1.4-1.4h.5q1 0 1-.8c2-1.2 10.9-7 11-8.9l1.4-.4q1.2 0 1.4-1.3 1.2-.2 1.1-1.4h1.6l.6-.6a5 5 0 0 0 2.2-2.6c1 .9 2.2-.5 2.7-1.3q-2-.5-2.7 1.3c-1 .3-3 .8-3 2-.6.2-2.2.2-2 1.2l-1.2.2q-.9 0-1 .7-1.4 0-1.8 1.2-1 0-1 .9l-1.3.3a1 1 0 0 0-1 .7q-1.2 0-2 1-1.2 0-1.8 1.1-.9 0-1 1l-1.2.1q-.6.2-1 .8-1.1 0-1.9 1-1.2 0-2 1-.7.2-1 .8-1.3.3-2 1.2-1.2 0-2 1-1.2 0-1.9 1-.8.1-1.2 1a3 3 0 0 0-1.8.7l-1.1.3-.1-10.8c1.5-.5 3.8-1.7 4.3-3.5 1 .7 3.4-.8 2.4-1.7-.8.2-2.5.6-2.4 1.7l-4.3 1.5v-11c5.1-3 13.1-9.8 18.3-13.6.8-.8 2.7-.7 2.7-2q-1-.5-2 0c-3.2 2-16 10.6-19 10.6-.6-9 0-17.9.2-27q4.2-3.5 7.6-7.8-1-.4-1.7.3c-1.6 1.6-3.6 2.3-5.5 3.4q-.2-9.1.8-18.2c.7-1 5.3-.3 6.5-.6l-2.4 4.7q-.2.6.2 1c1.4 0 8.9-4.8 10.4-5.8 3.6-.3 14-1 17-.3ZM212 441q2 1.8 3-.7c-.7-1.1-2.2.4-3 .7Zm21 19.1c.3 0 1.5-.5.6-1a1 1 0 0 0-.7 1Zm14.8 19.3q-2 1-3.8 2.6-3 .3-5-1.8.4-1 1.5-.8zm23 0 7.8-.2q.9 0 1.4.7c-3.2 2.2-6.6 3-9.2-.5Z"/><path fill="#262626" stroke="#262626" stroke-width=".5" d="M250 33.9q6-1.2 12 .2c30.3 10.5 50 46.8 74.6 66.7 1.2.5 6.1 5.8 7 3.5 1.2-16.3-4.3-32 2.5-48.2q1-.4.9-1.5c.4-1.4 7-5.4 8.9-5.5q3.1-.5 6.4-.5.6-.1.8-.7a44 44 0 0 0 16.5.8c1.1.1 7 .4 7.4-.7 7.3 0 14.4-.6 21.8 0q1.6.3 3.3 0l1.2.3q4.6 2.1 9.1 4.8.5.6.5 1.4c4.2 42.4 0 84.5 1.4 126.9q.5 1.3 1.6 2.2c25.1 25.1 54.5 46 76.4 74.4 8.7 13.2 14.7 24.9-2.9 33.2-3.3 0-6.5 1.5-9.8 2.1a183 183 0 0 1-29.1.7q-1.3-.2-2.1.8a742 742 0 0 0 2.4 123.7c.5 16.5 3.3 36-7.1 50.1a48 48 0 0 1-7.7 6 52 52 0 0 1-12 4.8l-1 .7h-1.4c-28.7 5.6-58.3 2.2-87.3 1.6q-2.1-1.2-4.7-.6-6.7 0-13.5-.4a15 15 0 0 0-7.3-.6l-11.5-.2q-4.2 0-8.3-.3l-6.5-.3q-.9-.3-1.5.5-5.6-.8-11 0-.6-.7-1.4-.6a93 93 0 0 1-10.4 0 67 67 0 0 0-10.4-.1 47 47 0 0 1-6.8 0l-10.5.3q-1.1-.2-1.6.8c-2.1-1.4-6.4-.4-8.9-.4q-.2-.4-.6-.6-3.8-.6-7.4.5h-1l-.9.8c-2-1.2-6-.3-8.4-.2q-6.2-.3-12.4.3a4 4 0 0 0-2.7-.6q-2 0-3.6.7c-28.8 1.3-57.6 3.7-86.4 4.3-10.6-.2-23.6-.2-33.4-4.6q-1-.4-2-.1 0-.8-.6-1.2-2.3-1.3-4.7-2.2 0-.7-.6-1.2l-1.9-1.9a3 3 0 0 0-1.5-.8c0-1.4-2-4-3-5q0-.8-.4-1.3c-4.9-11.6-5.4-23.8-6.2-36.2-.7-45.1 1.5-90.6 1.3-135.7q-.6-1-2-1-3.5-.1-7 .4c-11.6-1.7-48.8 5-43.2-17.5 5.4-19 22.8-34.2 37.6-46.3L228.2 51.7c6.7-8.3 11-14.4 21.8-17.8Zm-98.3 101.4q-1.7-.1-2.4 1.4a2215 2215 0 0 0-42.5 38.6q-.8.7-.5 1.9l-1.5.1q-1.2.3-1.8 1.4-.8.4-1.3 1.2a908 908 0 0 0-30 29.2 309 309 0 0 0-16 15.8c-3 3.2-23.4 24-23.4 26.2q-1 .1-1 1.2c-2.6 2-6.2 5.8-7.5 8.7-4.2 4.9-11.4 9.8-8.5 17.2l.3.7q2.3 4.5 7.4 5.5 1.3.5 2.7.5c8.2 2.1 25.4-.3 33.3-3.5q49-47 97.9-94.3.1-1 1.2-1.2.8 0 .8-.8 2.7-1.6 4.4-4.3 19-17.6 37.5-36 4-3 7.4-6.9 20.1-18.6 39.9-37.3c3.2-3.4 8-4 11.5-.7 1.6 1.4 4.6 5.4 6.4 6.1a6 6 0 0 0 3 3 94 94 0 0 0 14 14.2 3 3 0 0 0 2.6 2.6c1 2.6 4.4 5 6.3 7.1q.4.8 1.2 1.3 3.3 3.5 7 6.5.4.9 1.3 1.5 0 .6.7.6c1.7 2.1 4.7 5.5 7.3 6.5q.2.7 1 .4c-.7 1.9 2.1 3.7 3.5 4.4a27 27 0 0 0 7 6.9q.6 1.4 1.8 2a70 70 0 0 0 8.6 8.3 38 38 0 0 0 7.4 6.7 8 8 0 0 0 3 3.2q3 3.2 6.3 6 .3.7.7 1l1.3.9q6.3 6.3 13.1 12.2 2.4 3 5.7 5a231 231 0 0 0 19.2 17.5c.8 2.4 5.2 5.2 6.9 7.2q.2.8 1 .8l.7.5q3 3 6.4 5.8 2.7 2.8 5.7 5a95 95 0 0 0 10.4 9.3 35 35 0 0 0 7.8 6.8q1.2 1.9 3 3.1l1 .7a283 283 0 0 0 16 14.3q1.6 1.8 3.9 3l4 4.2 1 2.3q3.8-.2 7.5-1c1 1.4 5.8 1 7.5.8q12.8 1 25.5.2.7-.4.8-1.2c1-4.1 1.2-9.8-.2-13.9q0-1.4-.5-2.6c-.2-2-4.5-9.5-6.4-9.7q-2.1-2.3-4.7-4.3c-4-3.4-11.5-11.4-15.5-13.8q0-.8-.5-1.4a9 9 0 0 0-2.4-1.6c-.9-2.1-6.2-6.2-8.1-7.7q-.9-1.8-2.7-2.4c-1-2-5.8-6.5-7.9-7.4-.6-1.4-2.7-3.8-4.3-3.5-.1-2.5-13.1-13.4-15.7-15.6-.9-1.1-2.6-3.7-4.2-3.3-2-3.4-11.7-12-15-15.2l-4.6-4.3-23.4-22c-2.5-2.5-6.3-6.5-9.2-8.3q-.3-1-1.4-1.4a335 335 0 0 0-16.4-15.9l-4.6-4.4c-2-1.7-5.4-5.7-7.6-6.7a1 1 0 0 0-.6-1q-.6 0-1.3-.4c.1-1.7-13.2-12.7-15-15a4 4 0 0 0-3-1.7c.3-2-12.2-12.1-14-14.4-.9-.6-2.5-3-3.6-2.4-1.8-3.1-9.5-9.7-12.4-12.6l-2.6-2.6c-2.3-1.7-5-5.4-7.6-6.3a2 2 0 0 0-1.3-1.7q-3.6-3.9-7.5-7.4c-1.5-1-4.1-4.7-6-4.6.4-1.4-6-6.4-6.7-8.2a4 4 0 0 0-2.2-1.7q0-.6-.6-1-3.2-2.1-5.8 1c-30.5 32-63.8 61.7-96.6 91.4q-2 1.6-3.3 3.7Zm245.1-81c-2.6-.8-6.8-.3-9.5-.1q-8.8-.4-17.6 0h-11.2q-1 .3-1 1.5c-2.5 14.5-1.5 29.9-1.2 44.6q-.2 3.1 0 6.4l-.2 9.8q0 2 2 2.3c.3 1.5 7.5 8.5 9 8q.2 2.3 2.4 3c2 2.8 6.9 7 9.6 9.5q1 1.3 2.6 1.5 1 2 2.7 3.4 13.4 13 27 25.4.6-.3.6-1a5039 5039 0 0 1-.3-64.3q.5-13.2 0-26.6.6-3.2.1-6.3c.1-4.2.9-10-.8-13.7l-.7-.6c-2.8-4-9.2-4-13.5-2.9Zm-143 57.4q-.7.5-1 1.2a1878 1878 0 0 0-30.9 29.2l-87 82.2q-.8.7-.8 1.7-1 0-1.3.9-.8.4-1.1 1-2 1.8-4 3.1l-3.9 3.7q-.5.5-.8 1.1l-41.3 39c-2 2-11.4 11.8-13 12.2q-1.5 1.2-2.3 2.8l.3 22.3q.5 3.4.4 6.7V333a72 72 0 0 1 .1 12q0 11-.3 22.3v3.4l-1.6 25.2-.6 10.2-.7 6.6q-.2 6.2-.8 12.4 0 3.5-.4 6.9 0 5 .5 10 0 .7-.3 1.3 0 2.5.7 5 .2 5.1 2.2 10l1.7 2.8c4.1 6.2 10.4 9 17.3 11.2q1.5 1 3 .5a94 94 0 0 0 18.7 2.2c5.4.2 11 1 16.3.3 1.3.8 14.1.4 16.3 0q.4.5 1.2.3l16.8-.5H168l1.2-.3q9.5 0 19-.5h3.7q.3.4.8.4c1.3-.3 6.1 1.3 6-.9q.5-1.4.3-2.9l.4-1q0-1.5.5-2.9a194 194 0 0 0-1-30l.2-1-.2-3.9a677 677 0 0 1-2-65c1-.2 3.1-15.2 4.6-17.2q1.7-3.6 3.6-7 1 0 1.1-.9a28 28 0 0 1 7.8-4.2q1.5.3 3 .1c24.1-.1 49-2.2 73 .2q.3.5.7.5 3.3 0 6.6.5c17.1 5.5 18.5 15.5 19 31.9a608 608 0 0 0-4.1 83.1c.3 1-.4 5.8.8 5.7a10 10 0 0 0-.3 2.9q.4 4.8.5 9.6 0 1.5 1.4 1.7 3.7 0 7.2-.8 18.8-.3 37.4 1l11.6.7c5.6 0 11.9 1 17.4.2q0 .6.5.6l6.1.1c5.8-.3 13 .6 18.6-1.2q.8.4 1.4 0c5.5 1.5 25.3-2.4 29.8-7.6 1.5-3.8 1.4-29.3 1.3-35l.5-1.2-.3-5.5q.4-11.7 0-23.4l.2-1v-3.6q.2-5.8-.1-11.6.2-3.6 0-7.4a3149 3149 0 0 0-.2-53.1 241 241 0 0 0 0-16 98 98 0 0 0-.1-11.2l.4-1.2c-.5-2.4.6-4.6-1.8-6.2a78 78 0 0 0-8.6-7.3c-.6-2.5-19.7-19-22.7-22.4l-1.8-1.8a80 80 0 0 0-7.3-6.4q-1.5-2.4-4-3.8c-1.1-2-5-5.4-7-6.9q-2-2.7-5-4.2c-.5-1.7-5.3-6-7-7a14 14 0 0 0-3.9-3.8c-1.7-2-5.4-6.7-8.1-6.7q0-1-.9-1.6a309 309 0 0 0-15.8-15.7c-2.2-1.5-6-6.4-8.5-6.8a65 65 0 0 0-14.9-14.3q0-.7-.6-1.2a61 61 0 0 0-7.5-7 590 590 0 0 0-19.9-18.8q-1.2-1.7-2.6-3.2c-2.7-1.6-5.7-6.3-8.6-7 .6-1-2.8-3.2-3.4-4L274 129c-2.3-2-5.8-6-8.3-7.3q-.6-1.1-1.5-2-4.2-3.8-8.2-8-1.2-1-2.3 0ZM248 202q9-.6 18 .2c.7 1 3.6 1 4.7.7.1.7 12.5 4.6 14.2 6.2a42 42 0 0 1 18 25.7 49 49 0 0 1-17.4 48 1 1 0 0 0-.1 1l-1.4.2a1 1 0 0 0-1 .8q-1 .3-1 1.4h-1.3a54 54 0 0 1-19.7 6q-3.6-.3-7 .5c-43.9-.1-57-41.8-34-74.8q1 0 1-1 0-.6.4-1c7.6-6 14-10.5 23.5-13q2 .5 3.1-1Zm-27 40v1.1q-.4 5.6.9 11l.3 2.1a45 45 0 0 0 6 14.9c2.7 4.3 9.9 12 14.9 13 .7 1.9 9 3.3 11 3a33 33 0 0 0 34-20 14 14 0 0 0 2-5.1q.7-.6.8-1.6a51 51 0 0 0-3-29.4q-1.5-4.6-5-8.2-.3-1.4-1.5-2-2.7-3.7-6.4-6.2a7 7 0 0 0-3-1.7 24 24 0 0 0-11-4l-.7-.2a12 12 0 0 0-4-.7l-1.2.3a10 10 0 0 0-4.2-.2c-18.7 1-29 16.4-29.9 33.9Zm6 102.1q-4-.3-8.2.1c-1.2.3-5.8-.4-6.5.6q-1 9-.8 18.2a8 8 0 0 0-.4 4.2c-.1 9-.8 17.8-.1 26.9q-.4 2.4-.2 5l.1 11v2l.1 10.8v1.5q0 1.8-.3 3.6l.4 2.2a130 130 0 0 0 .1 13q-.2 5.5.3 10.9a10 10 0 0 0-.2 5v1.7q-.4 5.5-.1 11.1-.5 3.3 2.5 1.7l1.2.2q8.6.5 17 .2 4.2.3 8.2-.1h1q8.4.3 16.9 0c3.6.2 11.8.7 15-.3 3.6 1 14 .3 18.3.4q.8 0 1.3-.3 3.3.9 6.6.3 1.8.3 1.8-1.5l-1-16.7-.2-30.7-.2-1.1.3-1.2c-.1-2.7.7-9.7 0-11.9a15 15 0 0 0 1-7q.1-5.8.8-11.7V391l.7-9.9q0-.8-.7-1c2-1.5 1-6 1.3-8.1a65 65 0 0 0-.6-12.7q-.8-5-4.3-8.6-1.4-1.7-3.3-3a38 38 0 0 0-13.6-3.4 15 15 0 0 0-5.1-.2c-3.5-1.2-11-.8-14.9-.7-4.2-.1-13.5-.6-17.2.5-3-.6-13.4 0-17 .3Z"/><path fill="#65656d" d="m199.2 480.6-1 .4-5.3-.3q1.7-.6 3.6-.7a4 4 0 0 1 2.7.6"/><path fill="#c9b3c4" d="M233 460.1q0-.7.6-1c1 .5-.3 1-.7 1"/><path fill="#ba96a2" fill-opacity=".9" d="M245.2 403.7q.8-1.8 2.7-1.3c-.5.8-1.6 2.2-2.7 1.3"/><path fill="#b68f9b" d="M266 400.2c0 1-2 2.3-2.8 1.4q.9-1.5 2.7-1.5"/><path fill="#ba97a4" d="M298.7 393.3c.3 1-2 2-2.7 1.3q.8-1.9 2.7-1.3"/><path fill="#cbb7c9" d="M302.4 359.2c.1 2.4-7.8 6.4-8.4 5.4a31 31 0 0 1 8.4-5.4"/><path fill="#cdbcce" d="M231.2 461q0-.7.6-.4 0 .4-.6.4"/><path fill="#c8b1c2" d="M292.9 443.2c.3.9-2.1 2.4-2.7 1.5q.8-1.8 2.7-1.5"/><path fill="#b7929e" fill-opacity=".9" d="M212 441c.8-.3 2.3-1.8 3-.7q-1 2.4-3 .7"/><path fill="#d6cce1" d="M243.3 436a2 2 0 0 1-1.6 1q.6-1 1.6-1"/><path fill="#bc9ba9" d="M243.3 436q0-1.2 1.2-1.1c1.2.6-.5 1.3-1.2 1"/><path fill="#bfaabb" fill-opacity=".3" stroke="#bfaabb" stroke-opacity=".3" stroke-width=".5" d="m299.9 422.8-.2 1.1q-.6.3-.6 1l-1.5.4-.5-.1q.5-2.3 2.8-2.4Z"/><path fill="#c5acbc" d="M215.2 408.6c-.1-1 1.6-1.5 2.4-1.7 1 .9-1.4 2.4-2.4 1.7m55.6 18.6c.3 1-2 2.1-2.6 1.4q.7-1.8 2.6-1.4"/><path fill="#bfa1b0" d="M268.7 367.1c.3.8-1.2 1.4-1.6.6q.6-.9 1.6-.6"/><path fill="#e1e1f9" stroke="#e1e1f9" stroke-width=".5" d="M329 182c2 .7 15 12.5 14.8 14.2a4 4 0 0 0-1.9 1.8q-1.3-.2-1.9 1-2 .3-3 2-1.2-.3-2 .7c.7 1 2 .1 2-.7q2 0 3-2 1.5.3 2-1c1 0 2.7-.4 1.8-1.8 2.5.4 6.3 5.3 8.5 6.8q-23.2 14.8-46.6 29.3-1.2 1 .3 1.6c-1 .4-1.9 1.7-3.1.9a42 42 0 0 0-18-25.7c2.1-2.7 10.1-6.4 13.2-9l1.2-.2 12.8-7.4 1.5-1.4 14.1-7.7q1-.5 1.2-1.5Zm-2 13c-.5.3-4.5 1.1-2.6 2q1.8-.3 2.5-2c1.2.3 6.7-2.7 7-3.7-.7-1.3-6.3 2.8-7 3.7Zm118 103h.8q.4 5.5 0 11.2c-.5-1-1.3-.3-2.1 0-24 15.3-48 30.9-72.1 45.9l-5 3.1q-.9.6-1.5 1.6l-1.3.3q-1.3.6-1.9 2c-1.3-.4-4.4 1.6-4.9 2.9q-2.1 0-3 2-1.2-.3-2 .6c.5 1 2 .4 2-.6q2.1-.4 3-2c1.4-.3 4.7-1.3 5-3q1.3.3 2-.8l1.3-.2 7.8-4.7c23-14.2 47.4-27.3 70.9-41l1.9-1.5v11.4c-2.3 0-27.3 16.6-31.3 19.1-1.3 1-4 2-4.4 3.5q-1.2 0-2.3.5-3.3 2.5-7 4.4a2 2 0 0 0-.8 1.4 3 3 0 0 0-3.2 1.8q-1.2 0-2 1.1-1.9.3-3 2a2 2 0 0 0-1.9.7c.7 1 1.8 0 2-.8a3 3 0 0 0 3-1.9q1.4.3 2-1.1 2 0 3-1.8l2-.4a243 243 0 0 1 13.8-8.1c9.8-6.2 20.5-11.3 30.1-17.9v11.6a2 2 0 0 0-1.6.3l-66.3 43a2 2 0 0 0-1 1.3 3 3 0 0 0-3 2.2q-1.5-.5-2 1c-.8.4-2.7.3-3 1.5 1 1.4 2.5-.8 3-1.6q1.4.3 2-1 2.1-.1 3-2 1 .1 2-.4 4.7-2.5 9-5.3l58-33.6.1 33.6q-1-.1-2 .4l-49.4 34.6a5 5 0 0 0-2.7 2.7c-2.1-.7-5.5 3.3-7.6 4-1.6 2.9 7.2-2.4 7.6-4q2.2 0 3.7-1.4l50.4-28.9q.4 5.8 0 11.6c-2.1-.4-18.8 12.4-21.6 14.6a12 12 0 0 0-5.2 3.8c-1 .7-3.3.4-3 2q-2.4.3-3.3 2.4-1.2-.3-1.9.6 1.3.8 1.9-.6 2.1-.3 3.2-2.3 1 0 1.9-.2c8.6-5.8 18-10.1 26.8-15.9l1 .2q.6 11.7.1 23.4c-2.8.7-18.1 14.9-22 17.2q-.8.4-.8 1.3c-.4.4-4.1 1.1-2.7 2.1q2-.3 2.7-2.1a158 158 0 0 0 21.6-12l1 .2c.1 5.7.2 31.2-1.3 35-4.5 5.2-24.3 9.1-29.8 7.6l.5-1c1 .8 2.7-.5 2.2-1.6a3 3 0 0 0-2.2 1.6c-.4.2-2.2.3-2 1-5.4 1.8-12.7 1-18.5 1.2q6.9-6.2 14-12.2-1-.6-1.7 0-1 1.5-3 1.9l-14.6 8.3q-.9.4-1.3 1.3c-5.5.7-11.8-.2-17.4-.2q15.8-12.6 31.3-25.4.7-.5.9-1.4c.7 0 4.4-.9 2.6-2a3 3 0 0 0-2.6 2q-1.8.3-3.2 1.3l-39.9 23q-1.1.6-.7 1.8a439 439 0 0 0-37.4-1q.2-.8.8-1.1l30.6-21a6 6 0 0 0 2-1.8l1.2-.5a4 4 0 0 0 1.7-1.8c.7-.3 3.6-.8 2.5-2q-2 .1-2.5 2-1.4-.3-2.1.8l-1.2.4-3 1.7-1.7 1-36.9 21.4q0-4.8-.5-9.6 0-1.5.3-2.9 23.5-16.3 47.2-32.4.7-.3.8-1.2c.6-.4 4.1-1 2.7-2.1a3 3 0 0 0-2.7 2.1c-1-.2-9.2 4.7-10.4 5.7q-17.1 9.3-33.9 19.2-2.4 1.3-4.5 3-.9-41.7 4-83.1c1.8-1.4 22.7-11.8 25.9-13.6l1-.7q.7 0 1.2-.6l5.1-2.8.8-.6 1.2-.7a57 57 0 0 0 7-4l8.8-5q.6-.2 1.2-.7l.7-.5q.9 0 1.3-.9a30 30 0 0 0 5-2.6l.8-.5 1.2-.8a37 37 0 0 0 5-2.7l.7-.5 1.3-.8 3-1.7q.5 0 1-.3.6-.4 1-1a28 28 0 0 0 5-2.7l.7-.6q.8 0 1.3-.7l5-2.7.6-.6q.8 0 1.4-.7l5-2.7.7-.5q.8-.2 1.4-.7l1.7-1 1.2-.8.7-.6 1.3-.6 5-2.8.8-.5 1.2-.8 5-2.7.8-.5q.8-.2 1.2-.8l5-2.7 5-3 .9-.6q.6-.2 1-.6zm-244 48.2q.5 1.8.5 3.8c-1.5 2-3.6 17-4.5 17.2-7.8 3.1-15.7 8.9-23 13.4l-2.2-.3c-2 1.4-6.6 3.1-8 4.8l-.8.4q-.6 0-1.1.4-1.7 1.5-3.8 2.2l-1.3.7-.8.5q-.7.2-1.2.8l-5 2.7-5 3-.9.5-1.2.8a35 35 0 0 0-4.9 2.8l-.8.5-1.3.6-4.9 2.8-.7.5-1.3.7-3 1.8q-.6 0-1 .3l-1 1a74 74 0 0 0-7 4 32 32 0 0 0-5 2.8l-.7.5-6.2 3.4-.7.6q-.8 0-1.4.6l-1.8 1-1.2.8-.7.6q-.7.1-1.3.6l-5 2.8-.7.6-1.3.6-5 2.8-.8.6q-.7 0-1.2.7l-10 5.7-.8.6-1.2.6-5 2.8-.7.5a2 2 0 0 0-1.2.8l-1 .2-.5-.1q-.5-5-.5-10.1l1.2.1 1.3-.8q2-1 3.4-2.7 1 0 1.6-.6a57 57 0 0 0 6-3.7l.5-.5a3 3 0 0 0 1.6-.8l1.6-1 1.2-.8 3.1-1.9a24 24 0 0 1 3.9-2.3l1.2-.9 1.7-1 1.2-.8q2-1.2 3.6-2.6.8 0 1.4-.7l1.7-1 3.1-2q.6-.2 1.2-.7l.7-.6q.8-.1 1.3-.7l2-1 1-1a30 30 0 0 0 6.5-4.3q.8-.2 1.5-.7l3-1.7q2-1 3.5-2.7.8 0 1.5-.6l3-1.8 3-2 .8-.5q.7-.1 1.3-.6.8-.7 1.9-1l1-1 3-1.8 3.6-2.5 1.5-.8 1.7-1 1.2-.7q1.8-1.1 3.4-2.5 1-.2 1.7-.8l2.8-1.8 3.1-2q.3 0 .6-.4.8 0 1.4-.7l2-1.2 1-.8 1.8-1 1.2-.8q2-1.3 3.7-2.7.7 0 1.2-.5.9-.6 1.9-1l1.2-.8q1.6-1.4 3.5-2.3t3.3-2.2q4.2-2.4 8.3-5 1-.6 1.6-1.6c2 .2 1.7-1.8 3-2.7 2.6-.7 5.4-4.1 7.9-3.4ZM439 360q-2.1.1-3 2-1.1-.2-1.8.8c.6 1 1.6 0 1.9-.7q2.1-.3 3-2.1c1.6.3 3.3-1 4.7-2q.5-1.2-1-.9c-.8.8-3.5 1.7-3.8 2.9Zm-90.8 108q-2.1 0-3 1.7c.8 1.3 2.3-1 3-1.7.5.2 2.4-.3 1.4-1q-1 0-1.4 1Z"/><path fill="#c4004b" stroke="#c4004b" stroke-width=".5" d="m410.3 57-.5 1.2a1 1 0 0 0-.7.7l-1.4.1q-2.3 2-4.8 3.4-1.5 1.3.4 1.3 2.6-1.4 4.7-3.5l1-.2q1.4-.5.8-1.8l1.1-.5c1.8 3.8 1 9.5.9 13.7q-.8 0-1.4.5l-19 16.5q1.1.5 2.2-.3l18-10.4q.6 13.4.1 26.6-.9-.2-1.6.4a769 769 0 0 1-18.7 16.7c.8 1 1.6-.8 2.3-1 5.2-2.8 13.8-7.1 18-10.7q.6 7.2 0 14.6-.6 0-1.3.6-6.4 6.5-13 12.4c.8 1 1.8-.6 2.3-1l12-6.6.3 38.9q0 .7-.5 1-13.8-12.4-27-25.4-1.8-1.4-2.8-3.4c1.9-1.5 4-3.4 5.1-5.6.8-.4 3-.7 2.7-2q-2 0-2.7 2c-1.8-.3-6.2 3-7.7 4-2.7-2.4-7.5-6.6-9.6-9.4l12.3-11.1q-.9-.6-1.8 0c-1.6 1.4-12.6 6.8-12.9 8-1.5.6-8.7-6.4-9-8q2 .6 2.8-1.3c-.9-.8-2.4.5-2.7 1.4q-2-.3-2.1-2.3l.2-9.8c5.3-3.7 12.3-10.1 17.3-14.6q.3-.6.1-1.3l1.6.3q1.5-1.2 2.6-2.8c-1-.9-2.3.7-2.9 1.4l-1.4.7-17.3 9.9c-.3-14.7-1.3-30.1 1.1-44.6q0-1.2 1.2-1.5l5.4-.2c-.3 1-2.8 4-1.6 4.8 1.8-.8 6.6-3 7.3-4.6q8.9-.4 17.6 0a361 361 0 0 1-11.9 12.2c.5 1 2.3-.6 2.7-1.1l1-.4c1.9-1.3 17.5-9.7 17.7-10.7 4.3-1.1 10.7-1 13.5 2.9ZM407 93.4c.7-.3 4.2-1.2 2.7-2.3a3 3 0 0 0-2.7 2.3ZM349.5 127l4.6 4.4c-1 .6-5.7 4.4-6.4 4.3 0-1.3-1-3.2-2.6-2.9 0-1.6 4.3-2.3 4.4-5.8Zm60.6 19.4c1.3-.1 1-1.4-.3-1.3-.5.4-1.9 1.3-1 2q.9 0 1.3-.7Zm-5.6 32.6 4.6 4.3c-2.8 2.5-6.4 6.6-10.5 6q-1.2 0-2-.7c2-2.5 6.8-6.7 8-9.6Z"/><path fill="#de024b" stroke="#de024b" stroke-width=".5" d="M262 34q-6-1.2-12-.1 0-.6.6-1 3.6-1.1 7-2.5A5 5 0 0 1 262 34Zm-4 6.2a64 64 0 0 0-11 9.6 3 3 0 0 0-2.7 1.8c1 .9 2.5-1 2.8-1.8 1.8-.4 12.9-6 13-8 .8 1.9 7.2 7 6.8 8.3q-.9 0-1.6.5l-41.3 31q-.7.5-.7 1.5h-1.5q-1.2.8-1.7 2-2 0-2.8 1.7c.8 1 2.5-.8 2.8-1.6q1.3 0 2.1-.8l1.3-.6 47.3-27.3q1.3-.7 2.2-1.7 3.9 3.5 7.4 7.4c-2.6-.7-16 10-19.3 11.6q-.6.5-1 1.2c-2.5.3-5.7 3.5-8 4.7q-1 .5-.8 1.4-.8 0-1.4.2-.7 0-.7.7l-1.4.5q-1.6.3-2 2-1.7-.3-2.6 1.3c.7 1.2 2.5-.5 2.7-1.4.7 0 2.3-.2 2-1.3l1.4-.3q.5 0 .6-.5.8-.3 1.4-1.2a3 3 0 0 0 1.8-.4c1-.9 7-3.4 7-4.7l1.3-.3q10.4-5.6 20.4-11.8c2.5 1 5.3 4.6 7.6 6.3A482 482 0 0 0 268.9 83q-.4.4-.5 1-1.2.1-2.3.8l-29 18.9c-1.3.8-2.8.6-3.1 2.5-1.7-.3-3.9 1.4-4.9 2.6.7 1.3 4.8-1.7 4.9-2.6q1 0 2-.5a868 868 0 0 1 29.1-17c1-.9 3-1.4 3.3-2.8.4.2 1.7.4 1.4-.4 6-2.8 16.3-8.9 22.2-12.7 3 3 10.6 9.5 12.4 12.6q-4.8 4.2-8.9 9 .7.5 1.6 0 4.4-2.4 8.7-5 1.3-.7 2.2-1.6c1.8 2.3 14.3 12.4 14 14.4q-4.5 4-8.5 8.3.7.6 1.6.1c3.3-2.5 7.2-3.6 10-6.8 1.7 2.4 15 13.4 14.9 15.1l-1 1-1 1q-1.7 1.2-2.7 2.9c.6 1 2.7-.4 2.9-1.5q1.5-.2 3-1.1.6-.2.7-.9c2.2 1 5.6 5 7.6 6.7-.1 3.5-4.5 4.2-4.4 5.8q-3.2 3-5.7 6.6.4.6 1 .4 3-1.3 5.4-3.5l2-.6c.6 0 5.4-3.7 6.3-4.3q8.5 7.6 16.4 16-2 .8-2.2 2.9l-1.5-.2c-.4.7-3.1 2-2.1 3q2-.8 3.6-2l3.6-2.4c3 1.8 6.6 5.8 9.2 8.2a21 21 0 0 0-4 3l-1.2.2q-1.2.7-2 2.1a3 3 0 0 0-1.7.5q-1.5 2.3.9.9.6-.6.9-1.4c.6 0 2 0 2-.8l1.4-.5a8 8 0 0 0 3.7-2.6l1.2-.5 22.2 21.2c-1.1 2.9-5.8 7-8 9.6q.9.7 2.1.7c4.1.6 7.7-3.5 10.5-6 3.3 3.3 13 11.8 15 15.2q-.9 0-1.3.7c-2.2 4.7-7.1 7.2-10.4 11.2q.7.5 1.6 0 7.3-4.2 14.3-8.6c2.6 2.2 15.6 13.1 15.7 15.6a2 2 0 0 0-1.4.7l-10.2 11.4q.9.4 1.6-.2 7.4-3.9 14.3-8.4c2 .9 6.8 5.5 7.9 7.4a43 43 0 0 0-6.9 6.6q-1.2.7-2.2 1.7-.7.6-.4 1.4 1.5-.3 2.4-1.5l1-.4q4.5-2.4 8.8-5.4c1.9 1.5 7.2 5.6 8 7.7a2 2 0 0 0-1.3.7l-9 9.4q.6.6 1.5.2 5.5-3.4 11.2-6.6.6 0 .6-.7c4 2.4 11.4 10.4 15.4 13.8q-.8.5-1.4 1.2-5.4 6-10.5 12 .8.6 1.6 0 7.8-4 15.1-8.9c2 .2 6.2 7.6 6.4 9.7a12 12 0 0 0-2.4 3.5c.8 1.2 2.2-.3 3-.9 1.3 4 1 9.7 0 13.9q0 .8-.7 1.2-12.7.8-25.5-.2c1.3-.9 7.3-7.6 7.1-8.9q-.9-.7-1.9 0c-1.6 1.3-12.8 6.6-12.7 8q-3.8 1-7.5 1-.6-1-1-2.3l-4-4.2c1.3-1 3.2-2.7 3.2-4.5 1.7.2 7-6.5 7.7-8.2q-.8-.5-1.7.1l-10 6.2-.6.5q-1.2-.2-1.6.9l-.7.2q-1-.2-1.2.8-7.8-6.3-15-13.2l.2-.9c1.7-1.9 6.7-5.4 6.8-8h1.4c.6-.5 2.9-2.3 2-3l-3.4 1.6-11 6.5c-2-.9-6.2-5-7.8-6.8q4.8-4 8.8-8.9-1-.5-1.9.2l-10.2 6a95 95 0 0 1-7-6.6c1.5-3 7-8 9.3-11l1.1-.9 3.1-3.2q.4-.4 0-.8-2.4.3-3.2 2.5-1.5 0-2 1.1c-4 1-10 5.7-14 7.3a72 72 0 0 1-6.5-5.8l2.2-3c-.8-.9-2.7.8-3 1.7h-1c-1.6-2-6-4.8-6.8-7.2q2.7-2.4 5-5.2.7-.7 1-1.6.6-.4.8-1.3c1.9 0 5.3-5 6.9-6.3a2 2 0 0 0-1.7.2l-4.8 3.6c-1.9-.2-10.2 5.3-12.3 6.6q-7.3-6.5-14.1-13.5c2-2.1 10-9.8 10-12.3 1.1 0 4.1-2 2.8-3q-2.5.9-4.3 2.7l-14.2 7.6q-6.8-5.9-13-12.2c.3-1.1 2-2 1.8-3.2l1.3-.2c.8-.1 2-1 1.2-1.8q-1 0-1.2 1-1 .1-1.3 1-1.8.2-3 1.2l-1 .1q-3.3-2.8-6.2-6c1.1-2.3 8-7.5 8.3-9.3q.8 0 .6-.8-.6.2-.6.8c-2.2 0-9.2 4.7-11.3 6.1-2-1-5.8-5-7.5-6.7q3.1-2.1 5.7-4.8.7-.6.6-1.5l-8.5 4.2q-3.3-3-6.3-6.2c.6-1.4 4.5-3.7 4.1-5.1l1.3-.1q1-.3 1.5-1.3c-.3-1-1.7-.4-1.4.4q-.9 0-1.4 1a20 20 0 0 0-5.8 3c-1.5-.5-6.5-5.3-7-6.8q4.5-5.3 9.3-10.3 1.2-1.2-.2-1.8-1.5-.3-2.2 1-2.4.3-4.1 2-.6.2-.5.8c-2.5 0-4.2 2-6.3 3l-.6.5c-2.6-1-5.6-4.4-7.3-6.5q.5 0 .6-.4l6-5.8q-.7-.6-1.8 0l-6.9 4.1q-3.6-3-7-6.5c.8-.2 2.7-1.4 1.6-2.2l-2.7 1c-1.9-2.2-5.3-4.6-6.3-7.2q4.7-3.8 8.4-8.6 1.6-.6 2.7-1.8c-1.3-.8-2.4.5-2.7 1.8-2.3-.3-9 4.7-11 6-4.3-3-10.5-10-14-14.1 1.3-1.4 6.8-6.6 7-8.2q1 0 1-.8.7 0 1-.6-.6-.5-1.3-.3-.5.3-.8.9-1.7 0-2.5 1.5-2.6 1-4.5 2.9c-.8.4-2.7.4-2.9 1.5-1.8-.7-4.8-4.7-6.4-6-3.5-3.3-8.4-2.8-11.5.6q-19.8 18.8-39.9 37.3-1.1.3-2.2.9l-12 7.8q-1 .7-1 1.6h-1.2q-.6 0-.7.8l-1.3.3c-1.3.9-4.6 2.2-4.9 3.7q-1.7-.5-2 1.2a3 3 0 0 0-2.9 1.5c.7 1.3 2.7-.6 3-1.5.7 0 2.2 0 2-1.2 1 0 5-1.5 4.7-2.9l1.5-.3q.6 0 .7-.7l1.2-.5c2-.7 5.9-4 7.7-3.7a1612 1612 0 0 1-37.5 36q-1.2.2-2.3.8l-12 8q-.9.6-1.3 1.7-2.3-.6-2.9 1.8-1-.4-1.7.5c.4 1 2 .3 1.7-.5.4-.3 3.7-1 2.9-1.8l9.2-4.3q-48.8 47.3-98 94.3a71 71 0 0 1-33.2 3.5q.6-.6 1.4-.9c1.6-1.1 3.9-2.2 5-4 1.5.4 2-1.2 3-2 .6.1 2.6-.3 1.4-1.1q-1.3 0-1.4 1.2a3 3 0 0 0-3 2 8 8 0 0 0-5.1 2.5l-4 1.8q-5-1-7.4-5.5.2-.6-.3-.7c-3-7.4 4.3-12.3 8.4-17.2q1.3 0 2.3-.6 20.4-13.1 40.3-26.8c1.1.1 10.5-6.5 12.2-7.7q.4-.2.4-.8 3.1-.5 5-2.8c-.8-1.4-4.5 1.8-5 2.8q-1-.1-1.9.4l-44.3 25.8-.4-.2c0-2.2 20.4-23 23.5-26.2q1 0 1.2-1.1h1.4q1.4-1.5 3.4-2l64.2-41.5q.7-.5.7-1.3h1.6q1.2-.7 1.6-2c1.5-.1 4.8-1.4 5-3q2.2 0 3.1-2c.6.2 2.8-.3 1.5-1.2q-1.2 0-1.5 1.3-2.1 0-3 1.8c-1.8.1-4.4 1.5-5 3.2q-1.4-.3-2 .7l-1.3.6-52 29.9a8 8 0 0 1-3 .8q14.7-15 30-29.2 1.2 0 1.3-1.2c1.1.6 2.7 0 1.8-1.4l1.5-.1-.1.4 9.2-5.6q4.2-3 8.6-5.6.8-.6 1-1.4 2.3 0 3-2 1.5.3 2-1a4 4 0 0 0 3-2c.6.2 2.6-.3 1.5-1q-1 0-1.4 1-2.2 0-3.1 2-1.4-.3-2 1a3 3 0 0 0-3 2q-1-.1-2 .4l-8.7 4.9q-1.2.6-2.6.7 18.7-17.4 37.6-34.3 1.7 0 2.4-1.4 1.4-2 3.3-3.7c32.8-29.7 66-59.3 96.6-91.5q2.5-3 5.8-1 .4.5.6 1.1Zm134.8 153c1.1-.4 4.4-1.6 5-2.7-2-2.4-4.2 1-5 2.6Z"/><path fill="#e1bcdc" d="M350 171.9q0-.6.6-.8.2.8-.6.8"/><path fill="#e1cbe8" d="M328.2 157v.8h-1.4q.5-.8 1.4-.9"/><path fill="#df6498" d="m328.1 157.8.1-.9c-.3-.8 1.1-1.4 1.4-.4q-.4 1-1.5 1.3"/><path fill="#df70a1" d="M183 154.2c-.3 1-2.3 2.8-3 1.5a3 3 0 0 1 3-1.5"/><path fill="#e08eb7" d="M185 153c.2 1.1-1.3 1.2-2 1.2q.2-1.7 2-1.2"/><path fill="#e07dab" d="M233.9 106.1c0 .9-4.2 4-4.9 2.6 1-1.2 3.3-2.9 4.9-2.6m-89 87c.2 1-1.3 1.6-1.8.6q.6-1 1.7-.5"/><path fill="#e075a5" fill-opacity=".8" d="M245.8 84.3c-.2.9-2 2.6-2.7 1.4q.9-1.6 2.7-1.4"/><path fill="#2d52ce" stroke="#2d52ce" stroke-width=".5" d="M250.9 208.1a21 21 0 0 1-4.5 4.8q-.3.8-.2 1.5-1-.2-1 .8-.9 0-1 .8-.8.3-1.3 1l-3 3.7q.6.8 1.4.3a60 60 0 0 0 5.8-3.8 2 2 0 0 0 1.9-1.2q1.2 0 2-.8 2-.5 3-2 1.3 0 2-1a2 2 0 0 0 1.8-1q.9-.4 1.5-1.1 1.4.1 1.7-1.2a24 24 0 0 1 11 4q-4.2 3.9-8.7 7.5.4.6 1 .4l10.7-6.2q3.7 2.5 6.4 6.1a44 44 0 0 1-5.4 4.8c1.4 1.1 5-2.9 7-2.7q3.3 3.6 5 8.2-11.2 9-21.8 18.4 1.3.6 2.5-.2c6-3.8 15-9.5 21.4-12.1 2.3 7.5 2 15.6.8 23.3a2 2 0 0 1-.8 1.6q-.6.2-1.1.6-2.9 3.4-6.4 6.3-.4 1.2.8 1 2.1-1.8 4.8-2.8a33 33 0 0 1-34.1 20 223 223 0 0 1 18.4-19q0-1.5-1.5-.8-14 8.5-28 16.7c-5-.9-12.1-8.6-14.7-13l22.4-19.5q-.7-.7-1.7-.1-11.7 7.2-23.8 13.8a45 45 0 0 1-3-9q1.8-1.2 3.5-2.7c-.5-1.3-2.7.9-3.8.6q-1.2-5.4-.9-11c.9.1 4-1.2 2.5-2.2L221 242c.9-17.5 11.2-33 29.9-33.9Z"/><path fill="#980132" fill-opacity=".1" stroke="#980132" stroke-opacity=".1" stroke-width=".5" d="m373.6 90.4 1.4-.7.3 1.4-1.6-.3zm-7 59.6 1.6.2v.7q-1 0-1.5-1ZM79 225.2q0 .4-.4.8c-1.7 1-11 7.7-12.2 7.6a2 2 0 0 1-1-1.3l11.7-6.8q.9-.5 1.9-.3Zm370.3 9.6.8 1.2-1 .4z"/><path fill="#d6014b" fill-opacity=".2" stroke="#d6014b" stroke-opacity=".2" stroke-width=".5" d="M125 165q-.2.9-1 1.3l-8.6 5.7-1.1-1.8q4.4-2.2 8.6-4.8 1-.5 2.1-.4Z"/><path fill="#ba0944" fill-opacity=".8" d="M499.4 291.3c-2.5 1.2-4.7 3.5-7.8 2.8q-1.1 0-2-.8c3.3-.6 6.5-2 9.8-2"/><path fill="#8c4343" fill-opacity=".8" d="M211.6 480.3c2.3-.1 6.4-1 8.4.2q-4.2 3.4-8.4-.2"/><path fill="#9c0a42" fill-opacity=".7" d="M363.1 47.9q-.2.6-.8.7-3.3 0-6.4.5 0-.6.7-1c1.1-.2 6.4-2.4 6.5-.2"/><path fill="#df014b" fill-opacity=".3" stroke="#df014b" stroke-opacity=".3" stroke-width=".5" d="M128 163q-.7 2-3 2a3 3 0 0 1 3-2ZM32 280c-1 1.8-3.3 2.9-5 4v-1.4a8 8 0 0 1 5-2.5Z"/><path fill="#de024b" fill-opacity=".4" stroke="#de024b" stroke-opacity=".4" stroke-width=".5" d="M78.9 225.2c.5-1.1 4.2-4.3 5-2.9a8 8 0 0 1-5 2.9Zm370.3 9.6-.2 1.6q-.9 1.2-2.4 1.5-.2-.8.4-1.4z"/><path fill="#920c3f" fill-opacity=".8" d="M387 48c-.3 1.1-6.3.8-7.4.7q1.8-1.1 3.9-1.6a7 7 0 0 1 3.5 1"/><path fill="#c4004b" fill-opacity=".5" stroke="#c4004b" stroke-opacity=".5" stroke-width=".5" d="m407.7 59 .3 1.2q-2.1 2-4.7 3.5-2 0-.4-1.3 2.6-1.5 4.8-3.4Z"/><path fill="#de024b" fill-opacity=".3" stroke="#de024b" stroke-opacity=".3" stroke-width=".5" d="M339.9 118.8q0 1.1-1 1zm-1 1q.2 1.4-1 1zm-1 1q0 .8.2 1.4c-.2 1-2.3 2.5-3 1.5q1-1.6 2.7-2.9Zm-208 41.1q-.3 1.5-1.9 1 .6-1.2 2-1Z"/><path fill="#da024a" fill-opacity=".4" stroke="#da024a" stroke-opacity=".4" stroke-width=".5" d="m419.2 231.2-.1-1.5a4 4 0 0 1 3.2-2.5q.4.4 0 .8-1.7 1.5-3 3.2Zm0 0-1 .9q0-.9 1-.9Z"/><path fill="#64132c" fill-opacity=".1" stroke="#64132c" stroke-opacity=".1" stroke-width=".5" d="m60.5 220 1.2 1.8q-1.9.5-3.3 2H57z"/><path fill="#58585f" d="M230 479.8h-1q-.5 0-1 .4-3-.5-6-.5 3.6-1.1 7.4-.5.4.2.6.6"/><path fill="#c4004c" fill-opacity=".3" stroke="#c4004c" stroke-opacity=".3" stroke-width=".5" d="m375.3 91-.3-1.3c.6-.7 2-2.3 2.8-1.4q-1 1.6-2.5 2.8Zm34.4 54 .3 1.3q-.5.8-1.4.8c-.8-.8.5-1.7 1-2Z"/><path fill="#424245" fill-opacity=".3" stroke="#424245" stroke-opacity=".3" stroke-width=".5" d="M127.8 231v1.1c.3 1-1.1 1.4-1.6 2l-1.4-.2zm-3 2.9.2 1.1-1.2-.3zm-1 .8q0 1-.8 1.1.3-.7.8-1Z"/><path fill="#58585e" d="m191.8 474.3 1.8-.3q2.5.3 5-.2c.2 2.2-4.7.6-6 1z"/><path fill="#6f0b2c" fill-opacity=".2" stroke="#6f0b2c" stroke-opacity=".2" stroke-width=".5" d="M496.4 269q.5 1.4.5 2.7c-.7.6-2.1 2.1-3 1a12 12 0 0 1 2.5-3.6Z"/><path fill="#d00146" fill-opacity=".2" stroke="#d00146" stroke-opacity=".2" stroke-width=".5" d="M381 156.8v1.4q-1.5 1.8-3.6 2.6l-.5-1a21 21 0 0 1 4.1-3Z"/><path fill="#df034d" fill-opacity=".3" stroke="#df034d" stroke-opacity=".3" stroke-width=".5" d="M439.3 254a3 3 0 0 0-1.4-1.3q1.6-1 3.5-1.6c.8.8-1.5 2.5-2 3Z"/><path fill="#de024a" fill-opacity=".4" stroke="#de024a" stroke-opacity=".4" stroke-width=".5" d="M366.7 150q.4 1 1.5 1-1.6 1.2-3.6 2c-1-1 1.7-2.3 2-3Z"/><path fill="#de014b" fill-opacity=".2" stroke="#de014b" stroke-opacity=".2" stroke-width=".5" d="m221.7 83 .4 1.3q-.8.8-2 .8.3-1.4 1.6-2Zm-91.8 94q-.4 1.3-1.6 2l-.3-1.2q.6-1.1 2-.7Z"/><path fill="#7f0a32" fill-opacity=".2" stroke="#7f0a32" stroke-opacity=".2" stroke-width=".5" d="M27 282.6v1.4l-1.3.9q-1.5 0-2.8-.5z"/><path fill="none" d="m339.9 118.8 1.3.5-.2 1.8q-1.3 1-3 1.1l-.2-1.4q1.3.4 1-1 1.2.1 1-1"/><path fill="#c4004b" fill-opacity=".4" stroke="#c4004b" stroke-opacity=".4" stroke-width=".5" d="m378 63.7.1 1.6c-.4.5-2.2 2-2.7 1.1q1-1.6 2.6-2.7Z"/><path fill="#811439" fill-opacity=".5" stroke="#811439" stroke-opacity=".5" stroke-width=".5" d="M151.7 135.3q-.6 1.5-2.4 1.4.8-1.5 2.4-1.4Z"/><path fill="#641a33" fill-opacity=".3" stroke="#641a33" stroke-opacity=".3" stroke-width=".5" d="M104.8 177.3c.9 1.3-.7 2-1.8 1.4q.6-1 1.8-1.4Z"/><path fill="#c3004d" fill-opacity=".2" stroke="#c3004d" stroke-opacity=".2" stroke-width=".5" d="M412 47.3q1.1 0 1.3 1l-1.2-.2zm-2.2 11q.5 1.2-.9 1.7l.2-1.1q.2-.6.7-.7Z"/><path fill="#4b4b50" fill-opacity=".5" d="M85 472.3q1.1-.5 2.2-.5l1 .1-.3.9q-1.5.4-3-.5"/><path fill="#334685" d="M248 202q-1.2 1.4-3 .8 1.2-1.1 3-.8"/><path fill="#292929" fill-opacity=".3" stroke="#292929" stroke-opacity=".3" stroke-width=".5" d="m256.1 111.8-1 .6-1.3-.7q1-1 2.3 0Z"/><path fill="#bc0a44" fill-opacity=".6" d="m32.3 251.1.5.2q-.3 1-1.5 1 0-1 1-1.2"/><path fill="#811339" fill-opacity=".3" stroke="#811339" stroke-opacity=".3" stroke-width=".5" d="M469.3 239.9q.5.6.5 1.4 0 .6-.6.7z"/><path fill="#492222" fill-opacity=".1" stroke="#492222" stroke-opacity=".1" stroke-width=".5" d="m293.2 472.5-.6 1.2q-.6.3-1.3.3.4-1.3 1.8-1.5Z"/><path fill="#700027" fill-opacity=".1" stroke="#700027" stroke-opacity=".1" stroke-width=".5" d="M323.1 142q0 1-1 1.4l-1.2-.5q.7-1.2 2.2-1Z"/><path fill="#83153a" fill-opacity=".4" stroke="#83153a" stroke-opacity=".4" stroke-width=".5" d="M341.2 119.3q.6.3.6 1t-.8.8z"/><path fill="#7b163a" fill-opacity=".4" d="M148.3 126.8q-.6.9-1.4 1.5.4-1 1.4-1.5"/><path fill="#342427" fill-opacity=".3" stroke="#342427" stroke-opacity=".3" stroke-width=".5" d="M103 178.7q-.1 1.2-1.3 1.2.5-.7 1.3-1.2Z"/><path fill="#3b1f27" fill-opacity=".3" stroke="#3b1f27" stroke-opacity=".3" stroke-width=".5" d="M57 223.8q-.1 1-1.2 1.1.5-.8 1.2-1.1Z"/><path fill="#68364f" fill-opacity=".3" stroke="#68364f" stroke-opacity=".3" stroke-width=".5" d="m430 262.3 1.1-.2-.2.9z"/><path fill="#7b1337" fill-opacity=".4" d="M202.3 76q-.6.8-1.4 1.2.3-.9 1.4-1.3"/><path fill="#781737" fill-opacity=".6" stroke="#781737" stroke-opacity=".6" stroke-width=".5" d="M15.3 278.2q.6 0 .3.7z"/><path fill="#322327" fill-opacity=".3" stroke="#322327" stroke-opacity=".3" stroke-width=".5" d="m381 156.8 1.2.9-1.2.5z"/><path fill="#262626" fill-opacity=".1" stroke="#262626" stroke-opacity=".1" stroke-width=".5" d="m253.8 111.7.2 1.3-1.3-.1q.4-.8 1-1.2Z"/><path fill="#6e1a35" fill-opacity=".5" d="M110.3 162.8a5 5 0 0 1-1.4 1.5q.4-1 1.4-1.5"/><path fill="#541a30" fill-opacity=".4" stroke="#541a30" stroke-opacity=".4" stroke-width=".5" d="m410.3 57 .6.7-1 .5.4-1.1Z"/><path fill="#781338" fill-opacity=".5" d="M347 54.6q0 1-.8 1.5 0-1 .8-1.5"/><path fill="#595960" fill-opacity=".6" d="m67.3 343 .8.1.1.7q0 1-1 1.1z"/><path fill="#3651a9" d="M261 292.1q-.5.8-1.3 1.1-3 1.5-5.8-.5 3.5-.7 7-.6"/><path fill="#c4004b" fill-opacity=".6" d="m412 47.3.1.8q-1.6.1-3.3-.2c0-1.2 2.4-1 3.2-.6"/><path fill="#c5004a" fill-opacity=".5" stroke="#c5004a" stroke-opacity=".5" stroke-width=".5" d="M386.8 135.2q.6-2 2.6-2c.3 1.3-1.8 1.6-2.6 2Z"/><path fill="#c4004b" fill-opacity=".4" stroke="#c4004b" stroke-opacity=".4" stroke-width=".5" d="M406.9 93.3a3 3 0 0 1 2.7-2.3c1.5 1.1-2 2-2.7 2.3Zm-48.7 25.5c.3-1 1.8-2.2 2.7-1.4q-.9 1.8-2.7 1.4Z"/><path fill="#903" fill-opacity=".1" stroke="#903" stroke-opacity=".1" stroke-width=".5" d="M392.8 193.1c.8-1.7 3-5 5-2.6-.6 1-3.9 2.3-5 2.6Z"/><path fill="#de014c" fill-opacity=".3" stroke="#de014c" stroke-opacity=".3" stroke-width=".5" d="M135 174c-.3 1.6-3.5 2.9-5 3 .6-1.6 3.2-3 5-3Z"/><path fill="#de034c" fill-opacity=".4" stroke="#de034c" stroke-opacity=".4" stroke-width=".5" d="M138 172q.3-1.2 1.6-1.2c1.2.9-1 1.4-1.6 1.3Z"/><path fill="#de014c" fill-opacity=".4" stroke="#de014c" stroke-opacity=".4" stroke-width=".5" d="M373.9 162.1q-.3.8-.9 1.4-2.4 1.4-1-.9a3 3 0 0 1 1.9-.5ZM35 278.1c-1 .7-1.5 2.3-3 2a3 3 0 0 1 3-2Z"/><path fill="#df024c" fill-opacity=".4" stroke="#df024c" stroke-opacity=".4" stroke-width=".5" d="M133 160a4 4 0 0 1-3 2q.9-2 3-2Z"/><path fill="#de014c" fill-opacity=".5" stroke="#de014c" stroke-opacity=".5" stroke-width=".5" d="M294 117.2c.3-1.3 1.4-2.6 2.7-1.8q-1.1 1.2-2.7 1.8Z"/><path fill="#df014b" fill-opacity=".4" stroke="#df014b" stroke-opacity=".4" stroke-width=".5" d="M220 85c-.3 1-2 2.7-2.8 1.7a3 3 0 0 1 2.8-1.6Zm-82 87q-.9 2-3 2a3 3 0 0 1 3-2Z"/><path fill="#de024b" fill-opacity=".5" stroke="#de024b" stroke-opacity=".5" stroke-width=".5" d="M247 49.8c-.2.9-1.7 2.7-2.7 1.8a3 3 0 0 1 2.8-1.8ZM133 160q.5-1 1.5-1.2c1 .8-1 1.3-1.4 1.2ZM35.2 278q0-1.3 1.4-1.2c1.2.8-.8 1.2-1.4 1.2Z"/><path fill="#cf004a" fill-opacity=".2" stroke="#cf004a" stroke-opacity=".2" stroke-width=".5" d="m375.8 160 .2 1.3c0 .9-1.5.8-2.1.8q.6-1.3 1.9-2.1Z"/></svg>