<svg xmlns="http://www.w3.org/2000/svg" style="shape-rendering:geometricPrecision;text-rendering:geometricPrecision;image-rendering:optimizeQuality;fill-rule:evenodd;clip-rule:evenodd" viewBox="0 0 512 512"><path fill="#dbe3e8" fill-opacity=".9" stroke="#dbe3e8" stroke-opacity=".9" stroke-width=".5" d="M237.9 56.2c-2.4 2-14.4 1-17.9.8q18.8-11.4 38-22.3a2 2 0 0 1 2.1-.3 4 4 0 0 1-1.2 2c-7.6 6-14 13.1-21 19.8ZM239 51q-1.2-.2-1.9.7c.6.9 1.8.1 1.9-.7.8-.2 4-.8 2.6-2q-2 0-2.6 2Z"/><path fill="#dce4e8" fill-opacity=".9" stroke="#dce4e8" stroke-opacity=".9" stroke-width=".5" d="M361 415.1q-7 .3-14-.1c.6-1.3 14.2-8.6 16.5-9.8q.4.4.3 1c-1 3-2 6-2.8 9Z"/><path fill="#825043" fill-opacity=".7" d="M161.3 5.4q-3.3.8-6.6.6c.6-2 5.2-1.8 6.6-.6m20.7.7-6.3-.6c1.4-1.3 6.2-1.9 6.3.6m21.3-.6q-3.3.4-6.7.4 3.1-2.7 6.7-.4m24 0q-3.3.5-6.7.5c1.8-2.2 4.5-1.9 6.7-.5m70 0c-1.6.7-4.8.2-6.6.5q1.1-1.5 3-1.4 2-.3 3.6.8m50.9 0-6.6.5c1.3-2 5.2-2.1 6.6-.4"/><path fill="#d9e0e5" fill-opacity=".9" d="m398 457 8.2-.2c-1 2.1-6.2 4.6-8.5 4.5-1.5 2.8-4.8 3.8-7.8 4 .3-2.9 7-5.2 8.2-8.4"/><path fill="#cbdadd" fill-opacity=".2" d="M168.8 321q-.1.8-.8 1.4l-8.7 5.4q-.5-1-1.4-1l9-5.3a5 5 0 0 1 2-.6M116 391q-.4 1.1-1.5 1.8L106 398q-.3-1-1.3-1.2l9.2-5.3q.8-.5 2-.4"/><path fill="#e0d9cc" d="M339.8 97.9q1.5-.1 3.2 0a12 12 0 0 1-6.1 3.2c.4-2.1 2.8-1.7 3-3.2M333 389q0 .8-.7.5.2-.5.7-.5m-109.8 26a13 13 0 0 1-4.1 0 96 96 0 0 1 10.6-6.2c1 .7-.2 1.2-.6 1.7q-3.2 2-6 4.6"/><path fill="#a6aeb0" fill-opacity=".1" d="m271 279.3.3.3a4 4 0 0 1-3.2 1.3q.7-2.1 2.9-1.6m51.3 5q.8-.1 1.5.4l-.7 1-10 5.7a5 5 0 0 1-2.3.7l-.7-.4 9.7-6.3q1.5-.5 2.5-1.1"/><path fill="#dce5ea" fill-opacity=".5" d="M374 164q-.6 1.3-2 1c-.1-1.1 1.3-1 2-1m-202 41a4 4 0 0 1 2.6-2c1.4 1.3-2 1.6-2.7 2m75 30.1a3 3 0 0 1 2.6-2.1c1.5 1-2 1.9-2.6 2.1m48 42q-.5 1.6-2 .6a2 2 0 0 1 2-.7m-156 76q.6-1.2 1.6-1.7 2.5-.3.6 1.3zm-19 48q.5-1.1 1.6-1.6 2.6-.5.6 1.3a6 6 0 0 1-2.3.4m272 23c0 .8-1.3 1.5-1.8.6q.6-.8 1.8-.6m-147 5q.8-1.7 2.6-2c1.6 1.2-1.6 2.3-2.6 2"/><path fill="#787a7e" fill-opacity=".1" d="M383 337.3q.5-.1.7.4l-1.6 1.9-9 5a7 7 0 0 1-2.3.8q0-1.2 1-2 4.8-2.7 9.3-5.8a2 2 0 0 1 2-.3"/><path fill="#d3dce1" fill-opacity=".2" d="m245 236-.5.9-12.5 8q0-1-.9-.5c-.2-1.3 3.5-2.5 4.3-3.4q4.2-2.2 8.3-4.8z"/><path fill="#dce5ea" fill-opacity=".4" d="M239 51q.5-2 2.6-2c1.5 1.2-1.8 1.8-2.6 2m102 27c-.8 1.6-3.3 3.2-5.1 3q2-2.5 5-3m36 84q-.9 2-3 2a4 4 0 0 1 3-2m-5 3q-.2.7-.9.4a1 1 0 0 1 1-.4m-75 61c0 .9-1.3 1.6-1.8.7q.7-.9 1.8-.6m2.9 47.2c.8 1.4-.9 1.9-2 1.9q.6-1.5 2-1.9M100 440.2l1 .2-1.3.8z"/><path fill="#848a8e" fill-opacity=".1" d="M231.1 244.4q.9-.4.9.6a208 208 0 0 0-11.3 7.3 4 4 0 0 1-.7-2.4q4.8-2.4 9.3-5.2.9-.6 1.8-.3"/><path fill="none" d="M210 408.3q-.6 1-1.7 1.7-1.2 0-1.4 1.2l-1.6.7q-1.2 0-1.5 1.2-.7.6-1.5.8-1 0-1.6.8a4 4 0 0 1-2.4 0l-.6-.7q5.3-2.4 10.4-5.6.9-.5 1.8-.1"/><path fill="#dee1e0" fill-opacity=".9" d="M210 408.3q-1-.5-1.9.1-5 3.1-10.4 5.6l-.7.8q-2 .6-4 .3.5-.9 1.4-1.3l28-16c1.4-.7 3.6-3.6 5.3-2.3l-7.8 5.9q-3 1-5.2 2.9a10 10 0 0 1-4.8 4"/><path fill="#7e8386" fill-opacity=".1" d="m174.8 17 1.5.3v.4l-1.2.6zm17 4 1.5.4v.3l-1.2.7q0-.8-.4-1.3m83 62.2 1.1 1.5-2.2.8q-3 2.6-6.9 3.6h-.8a40 40 0 0 1 8.8-5.9M149.7 308l1-.2.6.8-1.1.9z"/><path fill="#d2dae0" fill-opacity=".2" d="m298.2 287.1-.3.9c-3.4 2-9.3 6-13 7a4 4 0 0 1 1.7-1.8l9.2-5.8q1.2-.6 2.4-.3"/><path fill="#e1d5c4" d="m313 361.7 1 .3q-3.7 2.6-7.8 4.8-.7.3-1.2-.2c.3-1.2 4-3 5-4q1.3-1 3-1m17 53.4h-3c.7-.8 3-2.7 4-1.8q-.3 1-1 1.8"/><path fill="#d9e7ec" fill-opacity=".2" d="m188.3 226.3-.6.7h-1q.4-1.1 1.6-.7m39.6 32.6q0 .9-.9 1.5l-9 5.7q0-1-1.2-1.4l.5-.6q.6 0 1-.2a91 91 0 0 1 9.6-5"/><path fill="#825043" fill-opacity=".7" d="m280.3 5.6-6.6.4q.1-.5.7-.8 3-1.7 5.9.4m51 .4q-3.3-.3-6.6 0c1.3-2.2 5.2-2.4 6.6 0"/><path fill="#92969b" fill-opacity=".1" d="M364.8 63.2q.9.2 1.3.8l-5 2.6a8 8 0 0 1-5.3 2.4l-.7-.2 7.8-5.3a2 2 0 0 1 2-.3"/><path fill="#dce5ea" fill-opacity=".5" d="M233 255.9q.5-1 1.5-1c1.1.8-1 1.3-1.6 1m63 45.1c-.2.8-1.4 1.6-2 .7q.8-1 2-.7m-43 41c-.4.9-2 2.6-3 1.6.2-1.4 2-1.5 3-1.7m-132 46c.6-1.3 3.2-3 4.6-3 1.2 1-3.8 3-4.7 3m79 54q.6-1 1.6-1c1.2.7-1 1.2-1.5 1"/><path fill="#e0d1bc" d="M336.9 101c.4 1.2-3.6 3-4.5 3.2-.8-1.6 3.2-3.3 4.5-3.1m-149 86.3q-.5-.6-1.2-1l6-3.2q.8-.3 1.2.2c-.8 1.5-4.3 3.3-6 4"/><path fill="#ced6dc" fill-opacity=".2" d="M134 356.2c-2.5 3-6.6 4.3-9.6 6.7a2 2 0 0 0-1.7-1l9.3-5.4a3 3 0 0 1 2-.3"/><path fill="#dce5ea" fill-opacity=".5" d="M408 69a4 4 0 0 1-3 2q.8-2 3-2M123 83c.5-.9 1.9-2.6 3-1.6-.1 1.5-2 1.5-3 1.5m212.9-2q-.4 1.3-1.9 1 .5-1.2 1.9-1m-219 39c-.2-1.5 1.6-2 2.7-2 1.5 1.3-1.8 1.8-2.6 2m163 178c0 .7-1.1 1.7-1.7.7q.6-.9 1.8-.8"/><path fill="#afb8bb" fill-opacity=".1" d="M270.6 330.3q0 1.1 1.1 1.3l-6.7 4q-.9.5-1.9.2h-1q4.2-3 8.5-5.5"/><path fill="#ebb26e" d="m310.8 421 5.2-.1c-1 1.6-4.3 1.9-5.2 0m19.2 0q2.5-.2 5 0c0 1.1-1.7 1-2.5 1.1q-1.7.3-2.5-1.2m32 0h4.9q-.8 1.3-2.4 1.1-1.7.2-2.6-1.2"/><path fill="#b8a9a7" d="M374.1 34.8c-.1-.8 1.1-2 1.7-1.2q-.2 1.5-1.7 1.2m-284.3 20-.2-.6Q90 53 91 52.5c1.1-.3 4-3 5-2L91.6 54z"/><path fill="#766560" fill-opacity=".1" stroke="#766560" stroke-opacity=".1" stroke-width=".5" d="M323 52.3a35 35 0 0 1-4 4 5 5 0 0 1-3.8.3l2.5-2q1 .4 1.2-.7 1.5-.6 2.7-1.7z"/><path fill="#dce5e9" fill-opacity=".2" d="m310.2 291.7.6.4c-1.3 1.7-4.8 4-6.8 3.8q.4-.7 1-1.2zm52.7 57.5v.9q-.4 1.2-1.9 1a3 3 0 0 1 1.9-2"/><path fill="#dbe5ea" fill-opacity=".3" d="M117 120q-.6 1.3-2 1 .6-1.2 2-1m59 197q-.5 1.4-2 1 .6-1.3 2-1m153.2 124-.3-1.4q2.1-1.7 4.7-2.7l.2.4z"/><path fill="#cdd2d9" fill-opacity=".2" d="M370.8 345.4q0 .9-.7 1.1l-5.9 3.4-.2-1.1c.3-1 4.4-3.2 5.5-3.8q.8-.1 1.3.4"/><path fill="#dceaed" fill-opacity=".2" d="m310.1 217.9-.1 1c-1.7.9-6.4 4.2-8 4a16 16 0 0 1 8.1-5"/><path fill="#825043" fill-opacity=".4" stroke="#825043" stroke-opacity=".4" stroke-width=".5" d="m88 11.1 1.2-.3-.8 1.4zm18.1 9.7c-.2.8-2 3-2.7 1.7q.9-1.5 2.7-1.7Zm17.7 457.4q.6-2 2.7-2.1c1 1-2.1 1.6-2.7 2.1Zm-43 12.2a2 2 0 0 1 1.7-1.5c1.1.9-1.2 1.4-1.7 1.5Z"/><path fill="#ccd1d9" fill-opacity=".2" d="m355.1 68.9.7.1q-.1.8-.8 1.4-3 1.5-5.7 3.5l-.1-1c0-1.6 4.8-3.2 5.9-4"/><path fill="#dde5ea" fill-opacity=".3" d="M395 421.8q-.9 2-3 2.2a4 4 0 0 1 3-2.2M197 444c-.5 1.2-3.3 3.3-4.5 3.2-1.3-1.5 3.3-3 4.4-3.2"/><path fill="none" d="M104.6 79q1.2-.2 1.4 1l-4.9 3.6q-.4.2-1 .1 0-.8.3-1.3l1-1.5z"/><path fill="#d1d2d5" d="m332.1 457.2 1.3-.5q.9 0 1.4.8a25 25 0 0 1-4.8 3 7 7 0 0 1-2.3.7c.2-1.6 3.4-3 4.4-4"/><path fill="#86665e" d="m351 62.3 7 .1q-3.6 2.7-7 0"/><path fill="#b2b6bc" fill-opacity=".2" d="M314.7 214.3q0 1 1 1.3-3 1.6-5.7 3.4l.1-1.1c.9-1.8 3-2.7 4.6-3.6"/><path fill="#825043" fill-opacity=".7" d="M258.2 5.5a52 52 0 0 1-6.5.5q.1-.6.7-.8 3-1.6 5.8.3"/><path fill="#825043" fill-opacity=".3" stroke="#825043" stroke-opacity=".3" stroke-width=".5" d="m174.8 17 .3 1.3q-1.2 1.3-3 1.6c-.2-1.3 1.9-2.1 2.7-2.9ZM133 18c-.2 1-2 2.6-2.9 1.7a3 3 0 0 1 3-1.7Z"/><path fill="none" d="m398 149.2-.3.5a10 10 0 0 1-6 3.6q0-.8.6-1.4 2-.9 3.6-2.4 1-.6 2-.3"/><path fill="#dce5e9" fill-opacity=".4" d="M183.1 421.9h1.2q-.6 1-1.7 1zm62 7c-.6 1.6-3.6 3-5.2 3.2a8 8 0 0 1 5.1-3.2"/><path fill="#dce6ea" fill-opacity=".3" d="M209.2 209h1q-.4 1-1.6 1zm58.9 72a7 7 0 0 1-5.1 3q2-2.7 5-3"/><path fill="#dae3ed" fill-opacity=".2" d="M262.2 335.8h.9q-1.9 2.9-5.2 3.1 1.8-2 4.3-3.1"/><path fill="#cec0ac" d="M228 354.4q1.5-.4 3-.4c.1 1.2-2.9 2-3.7 2.7q-.6.4-1.2 0l.8-2q.7.2 1.2-.3"/><path fill="#eab574" d="M144 421q3-.3 6 .1c-1.4 1.5-5 2-6-.2"/><path fill="#e2d0b6" d="M237 97.8h3c.3 1.2-3.7 3-4.6 3.2l-.4-.4z"/><path fill="#e1ebee" fill-opacity=".2" d="M109 77a6 6 0 0 1-3 3q-.2-1.2-1.4-1a8 8 0 0 1 4.3-2"/><path fill="#c5b6a1" d="m137.6 111.2-.5-2.2c.7-.2 2-1.2 2.6-.6q-.7 1.5-2.1 2.8"/><path fill="#e6ad69" d="M289.9 421.1h5.1c-1 1.4-4.1 1.6-5.1 0"/><path fill="#6a6d70" fill-opacity=".3" stroke="#6a6d70" stroke-opacity=".3" stroke-width=".5" d="M365.2 62.3h3.7q-1.2 1.1-2.8 1.7-.4-.6-1.3-.8z"/><path fill="#dbe5ea" fill-opacity=".4" d="M334 82q-.3.7-1 .4a1 1 0 0 1 1-.4M200 442q-.9 2-3 2a4 4 0 0 1 3-2"/><path fill="#dedcd4" fill-opacity=".7" d="m133 420 3-.3c0 1.6-2.5 2.2-3.7 2.5q.2-1.2.8-2.2"/><path fill="#775850" fill-opacity=".1" stroke="#775850" stroke-opacity=".1" stroke-width=".5" d="m89.6 54.2.2.5q-.6 1-1.7 1.1H86a5 5 0 0 1 3.7-1.6Z"/><path fill="#dee5eb" fill-opacity=".2" d="M353.8 50.9q0 1-1 .6zM190.7 64q0 1-1 .7zm198.9 30 1 1-.6.2zm-228.3 85.8.8 1-.9.3zm88 265.6-1.1.9q.2-1 1.1-.9"/><path fill="#e1d3be" d="m135.8 97.7 3.3.2a4 4 0 0 1-3.5 2.1z"/><path fill="#815043" fill-opacity=".3" stroke="#815043" stroke-opacity=".3" stroke-width=".5" d="M191.8 21q0 .8.3 1.4-1.3 1.1-3 1.6a5 5 0 0 1 2.7-3Z"/><path fill="#eaab5f" d="M379.2 91q-2.7.1-5.4-.2 1-1.1 2.7-1c.9 0 2.5 0 2.6 1.2"/><path fill="#dbe3e9" fill-opacity=".7" d="M103.4 62.8c-.3 1.5-2.5 1.7-3.6 2.2-.2-2.7 1.6-2.5 3.6-2.2"/><path fill="#e0d5c6" fill-opacity=".5" stroke="#e0d5c6" stroke-opacity=".5" stroke-width=".5" d="m237.4 88.9-.2 1-3.1-.2c.8-.7 2.3-1.8 3.3-.8Z"/><path fill="#dde6ea" fill-opacity=".5" d="M239 51c0 .8-1.3 1.6-1.9.7q.7-1 1.9-.7m166 20c-.2.7-1.4 1.6-2 .6q.8-.9 2-.7"/><path fill="none" d="M104.8 396.8q1 .2 1.3 1.2-1.2 1.1-2.7.7v-.4q.8-.6 1.4-1.5"/><path fill="#6e7476" fill-opacity=".1" d="M278 424.7q0 1.5-1.5 2.4a3 3 0 0 1-1.5-1q1.5-1 3-1.4"/><path fill="#dbdad3" d="m147.4 139.2-.5-1.3c1.2.2 2.3-1.9 3-.6q-.8 1.5-2.5 2"/><path fill="#dce4e9" stroke="#dce4e9" stroke-width=".5" d="M122.8 101.9q1.5 12.2 5.1 24.2c-2-.4-15.5 8.2-18.1 9.7-1.3-.9-5.4-18.1-6-20.8 2.6.3 16.6-10.8 19-13.1Zm-5.8 18q-1.5 0-2 1.1-2 0-3 1.7c1 1.2 2.6-.8 3-1.7q1.4.3 2-1c.8-.2 4-.7 2.6-2-1.1 0-2.9.5-2.6 2Zm129 70.2-2 .3q-1-.5-2 0-4.5 3-9 5.3l-6.5 4.2c-1.7.6-4.5 1.3-4.5 3.5l-5.3-1.7 67.3-39.4q1-.5 1.7.1l-2 1.8z"/><path fill="#dee7e9" fill-opacity=".3" d="M115 121c-.4 1-2 3-3 1.7q1-1.7 3-1.7"/><path fill="#a3867f" fill-opacity=".8" d="M385.1 63q2-.5 4-.3c.3 1.4-1.9 1.6-2.8 1.5q-.9-.3-1.2-1.2"/><path fill="#825044" fill-opacity=".5" stroke="#825044" stroke-opacity=".5" stroke-width=".5" d="M81.4 6a2 2 0 0 1-1.5 1q.3-1 1.5-1ZM189 24c-.2.8-1.4 1.6-2 .7q.8-.9 2-.7Z"/><path fill="#dce6e9" fill-opacity=".3" d="M230 258q-.6 1.1-2 .9a2 2 0 0 1 2-.9m-32.3 156 .6.6-1.3.2z"/><path fill="#dae4e8" fill-opacity=".2" d="M347.9 73q0 .6.2 1-.8 1.3-2 1 .5-1.4 1.7-2"/><path fill="#616568" fill-opacity=".4" stroke="#616568" stroke-opacity=".4" stroke-width=".5" d="m149.7 308 .5 1.5q-.8.7-2 .3.6-1 1.5-1.8Z"/><path fill="#beb5b2" fill-opacity=".2" stroke="#beb5b2" stroke-opacity=".2" stroke-width=".5" d="M276 457.4a3 3 0 0 1 1.9-.1q-.6 1-1.6 1.4 0-.8-.3-1.3Z"/><path fill="#878a8d" fill-opacity=".6" d="M314.9 239q-.1.9-1.2.7zm-1.2.7q.3 1.2-1 1.3z"/><path fill="#a18868" d="M224.8 213.2q1.3-.2 2.5.5l-1 .6z"/><path fill="#e0d8ca" fill-opacity=".9" d="M243 192q-.6 1.1-2 1 .8-1 2-1"/><path fill="#d1d9dd" fill-opacity=".2" d="M244 190.4v.8q-.7.1-1 .8-1.2 0-2 1-2 .1-3 2-2 .2-3.1 2l-1-.4q0-.7-1-1 4.7-2.3 9-5.2 1-.5 2 0"/><path fill="#dee0dd" fill-opacity=".9" d="M238 195q-.8 2-3.1 2a4 4 0 0 1 3.1-2"/><path fill="#deded9" fill-opacity=".9" d="M241 193q-.6 2-3 2 1-1.9 3-2"/><path fill="#e2d5c3" fill-opacity=".9" d="m244 190.4 2-.3q-.8 1-2 1z"/><path fill="#b29492" fill-opacity=".2" stroke="#b29492" stroke-opacity=".2" stroke-width=".5" d="M173.3 457q.8 0 1.5.2-.5 1-1.5.5z"/><path fill="#dde3ea" fill-opacity=".1" d="M117.9 149.9q-.2 1.1-1.3.7zm68.3 136.6-1 .6q0-1.1 1-.6"/><path fill="#c3bcbc" fill-opacity=".3" d="m293 468-.1 1-.7 1c-.2-.6-.4-2.2.8-2"/><path fill="#7d7467" d="M206.1 358.4a5 5 0 0 1-2.2.7q.8-1.4 2.2-.8"/><path fill="#c0b6b6" fill-opacity=".9" d="m419.3 34.6.8.1c-.1.8-1.5 2.1-2 .9q.3-.9 1.2-1"/><path fill="#d8dfe4" fill-opacity=".4" stroke="#d8dfe4" stroke-opacity=".4" stroke-width=".5" d="m120.3 348.1 1 .2q-.7.7-1.6.7z"/><path fill="#a8865b" d="M184.1 359.2q-.3.6-1.1.7.3-.8 1.1-.7"/><path fill="#ccd3d8" fill-opacity=".4" stroke="#ccd3d8" stroke-opacity=".4" stroke-width=".5" d="m111.2 368 1 .3q-.5.5-1.4.8z"/><path fill="#c0b9b9" fill-opacity=".6" d="M390 50q-.4.8-1.3.6a2 2 0 0 1 1.3-.7"/><path fill="#c8c4c5" fill-opacity=".9" d="M388.7 50.6q0 1-1 1.2z"/><path fill="#dee3ec" fill-opacity=".2" d="M319 54q-.3 1-1.3.7z"/><path fill="#b8ada9" fill-opacity=".3" stroke="#b8ada9" stroke-opacity=".3" stroke-width=".5" d="m411.2 56.2-.2.9h-1q.2-1 1.3-.9Z"/><path fill="#e8c293" fill-opacity=".4" d="M208.3 410a3 3 0 0 1-1.4 1.2q.2-1.2 1.4-1.2"/><path fill="#dfd6c2" fill-opacity=".3" d="M205.3 411.9q-.5.9-1.5 1.2.3-1.1 1.5-1.2"/><path fill="#c9d1d6" fill-opacity=".4" stroke="#c9d1d6" stroke-opacity=".4" stroke-width=".5" d="m411 412.7-.2 1.2-1.1-.2a2 2 0 0 1 1.3-1Z"/><path fill="#dce6e6" fill-opacity=".3" stroke="#dce6e6" stroke-opacity=".3" stroke-width=".5" d="M202.3 414v1q-.9 0-1.6-.3.7-.8 1.6-.8Z"/><path fill="#dee6ea" fill-opacity=".2" stroke="#dee6ea" stroke-opacity=".2" stroke-width=".5" d="m123.3 415.1-.5.8-.6.2q0-1 1-1Z"/><path fill="#7d8686" fill-opacity=".2" stroke="#7d8686" stroke-opacity=".2" stroke-width=".5" d="M322.6 274.3q1.1-.4 1.4.7-.8-.2-1.4-.7Z"/><path fill="#878c8e" fill-opacity=".6" d="M317.2 238q-.3 1-1.4 1 .3-1 1.4-1"/><path fill="#676c6f" fill-opacity=".3" stroke="#676c6f" stroke-opacity=".3" stroke-width=".5" d="M319 236.8q-.1 1-1.1 1 .3-.9 1.2-1Z"/><path fill="#91959a" fill-opacity=".2" stroke="#91959a" stroke-opacity=".2" stroke-width=".5" d="m141.9 192.4 1.3-.4-.6.9z"/><path fill="#dae9e9" fill-opacity=".1" d="m141.2 422.5-1 .7q0-.9 1-.7"/><path fill="#7c4f43" fill-opacity=".3" stroke="#7c4f43" stroke-opacity=".3" stroke-width=".5" d="M79.2 7q-.4.9-1.3 1.2.2-1 1.3-1.2Z"/><path fill="#dbe3eb" fill-opacity=".3" d="m412.3 82-.3 1h-1q.3-.9 1.3-1"/><path fill="#a4a8ad" fill-opacity=".2" stroke="#a4a8ad" stroke-opacity=".2" stroke-width=".5" d="m385.2 175.2-1 .9q0-1 1-1Z"/><path fill="#825143" fill-opacity=".4" d="M138.8 5q1.2 0 1.2 1.3-.9-.4-1.2-1.3"/><path fill="#c0c7cc" fill-opacity=".7" stroke="#c0c7cc" stroke-opacity=".7" stroke-width=".5" d="M375 146.2q-.4.6-1.2 1 .3-1 1.2-1Z"/><path fill="#898d90" fill-opacity=".9" d="m383.9 125.3.3.3-1 .3q0-.6.7-.6"/><path fill="#8e6b41" d="M228 354.4q-.4.4-1 .4.3-.7 1-.4"/><path fill="#272727" stroke="#272727" stroke-width=".5" d="M83.8 5.1h2.5c6.5.8 17.4-.4 24.5-.2l3.3.2c4.3.9 16.8 2 20.5.1a11 11 0 0 1 3.5 0l.7-.2q.3.9 1.2 1.3 7.4-.5 14.7-.3 3.3 0 6.6-.6a35 35 0 0 0 14.4 0l6.3.7 14.6-.2q3.4 0 6.7-.4c3 1 13.5.2 17.3.5q3.4 0 6.7-.5c3.3 1 19.7.2 24.4.5a52 52 0 0 0 6.5-.5c3 1 12 .3 15.5.5l6.6-.4c2.4.9 7.6.2 10.4.4 1.8-.3 5 .2 6.6-.6 2.4 1.4 23.1.6 27.4.6q3.3-.3 6.6 0h10.3l6.6-.4c4.8.9 19.7.2 25.5.4q1 0 1.5-1l.9.2h2.3c6.6 1.8 20 .2 27.5 1q3.6-.7 7 0c16.7-.9 33.5-2.4 37 18.3 3.2 20.8-2.6 35.5-25.1 37.8l-.4.5c4.6 66.2-28.1 139.8-91 168.2l-14.3 5.8q-.9.1-1.2 1-.4 0-.7.2-1 0-1.4 1h-1l-1 .7-1.1 1.3c-15.5 12.1-6 28.4 10 33.3q.5.5 1.3.7c69.4 27 105.7 100.1 100.4 172.2q.4.6 1.1.6c32.4-1.9 36 57.2 1 60-101 1.3-202-.6-303 .5l-40-.4c-22.4-.4-24.2-25.5-20.1-42.2a23.5 23.5 0 0 1 23-17.8q.9 0 1.2-.7c-3.8-65 25.8-131.3 85-162.2 11-5.6 34.6-12.2 34.5-27.5-.1-17-18-18.8-29.8-25.1-55-26.8-86.2-83-90-142.9a313 313 0 0 1 0-26.5q-.2-.4-.8-.5c-27.1 2-29.3-29.2-19.5-47.2q.8-.7.7-1.7 1 .2 1.6-.6 4-3 8.6-4.8.9-.3 1.3-1.2h.7a2 2 0 0 0 1.5-1q1-.8 2.4-.9Zm2.1 50.6q1.2.3 2.2.1.3 1 1.3 1.1 6.6 1.1 13.3.7c.6.1 3.3 1 3.2-.3q2.2.2 4-1c1.5 1.3 14.5.8 16 .6 2.2.3 6.2.7 8-.6 1.4 1.4 14.4.8 16 .5a44 44 0 0 0 15-.4c3.8 1.6 12 .7 16.1.5q3 .7 6-.6c5.3 1.4 26.2.6 33 .7 3.5.2 15.5 1.2 17.9-.8 3.2 2 27.8.8 33 .7q7 .4 14.1 0l1-.1c4.1.6 12.5.4 16.9.2 3.6 0 9 .6 12.3-.4a5 5 0 0 0 3.8-.2c1.9 1.4 13.8.7 16.8.7h15.3l16.8-.1 10.7.2a8 8 0 0 0 5.4-.8c2.3 1.4 14 .6 17.3.5q4.3.3 8.6.3l1.1-.1h17.4q1.5 0 3-.5a24 24 0 0 0 3.8-3.3 58 58 0 0 0 1.5-27.6A8 8 0 0 0 435 20a16 16 0 0 0-8.1-7.3q-1-.7-2-.4c-3.7-1.3-8-2-11.8-1-4.6-1-12.4-.3-17.3 0q-7.2-.5-14.5 0h-1.1q-8.7-.5-17.5-.2h-13.3l-35.7.1q-7.6-.2-15.4-.2l-70 .1h-24a451 451 0 0 0-22 0q-8.3-.2-16.4.2a8 8 0 0 0-3.6 0c-4.8-.5-12.4-.4-17.5 0q-2.3-.3-4.5-.2-8.7-.1-17.5.2-3.2-.5-6.4 0-9.3.1-18.4-.4-4.5-.4-8.8 0L88 11c-20 .5-17.6 39.3-2 44.6ZM249.8 63q-3.4-.9-7-.2c-15.5-.5-31.3.8-46.9 0h-4c-28.6.2-58.4.6-86.9-.2l-1.6.2c-2-.3-3.8-.5-3.6 2.2v2.9c.3 3.9-.8 11.1.6 14.5q-.5.6-.2 1.3-.4 5.9.5 11.6l.4 3.5c.5 3.2.7 7.6 1.8 10.5q0 3 1 5.7c.5 2.7 4.6 20 5.9 20.8q.7 3.2 2 6.2 1.7 4.8 3.9 9.4c.7 1.2 1.7 5 3 5.4.4 2.8 2.6 6.4 4.4 8.6q.8 2.6 2.6 4.8a63 63 0 0 0 9 12.8 83 83 0 0 0 7.2 9.4l.7.5c1.5 2 4.2 5.5 6.6 6.4-.2 1.5 3.5 3.8 4.4 5 2 1.5 6.3 6.4 8.8 6.5 0 1.7 6.9 6.3 8.6 6.2q.6 2 2.7 2.4 4.7 3.4 10 6l3 1.6h1c1.2 1.8 7 3.7 9.2 4.3a7 7 0 0 0 4.2 1.8c.2 1 8.7 4.5 10 5.2 0 1 3 2.8 3.7 3.6 1.8 2.4 4 5.1 4.2 8.3q-.1 1.5.7 3-.3 5.6-2.4 10.9l-.5.6c-4.3 6.7-10.2 9.2-17.1 12.6l-.7.4-1.2.3-1 .7q-1.7 1-3.8 1.7a118 118 0 0 0-42.3 27.4l-1 .2q-.8.8-1.4 1.8a148 148 0 0 0-28 38.3l-.6.9a88 88 0 0 0-8.5 19l-.4 1.1-.8 1.6c-1.5 6-7.2 22.5-6.6 27.6v.4c-2.6 6.1-3 18.7-3.4 25.6q-.3 2.7-.2 5.4-.6 5.3.3 10.4 0 .6-.3 1l.3 5.4c.4 1.4 2 .9 3.1.7v.2a732 732 0 0 0 37.6 0c2.1.9 7.5.2 10 .4l62.4.1h32.6c9-.2 32.4.6 39.9-.7 1 1.3 4.5.5 6 .7h28a8092 8092 0 0 0 91.6-.1c1.1-.7.6-3 .9-4l-.1-4.6c-.2-8.3.1-17-1.3-25.3l.2-1.2-.5-2.9a151 151 0 0 0-4.5-22.3q-.1-1.2-1.3-1.8c1-1.5-.6-4-.9-5.6a229 229 0 0 0-11.8-28.6q-.6-1.5-1.8-2.4a5 5 0 0 0-.9-2.4 76 76 0 0 0-5.6-9q-.1-.5-.7-.4c-.6-3-8.7-12.5-10.9-15.6-1.4-1-3.4-4.3-4.8-4.6a85 85 0 0 0-14.4-13.9 39 39 0 0 0-5.5-4.5c-2.7-1.7-6.4-5.4-9.5-5.9-.2-1.4-3.5-2.8-4.9-3-.8-1.9-7.1-4.4-9.2-5q-.7-.6-1.5-.5c-.3-1.6-8.6-4.4-10.4-5.2q-1-.3-1.6-1.1-5.3-2.1-10.4-4.8c-.1-1-5-5.9-5.9-7.2a2 2 0 0 0-.7-1.8c-5.4-22.7 18-29.4 34-36.4 21.4-10 45.2-31.4 57-51.7l.9-1q2.5-3.8 4.9-7.9c1.3-3.6 8-14.3 7.6-17.5q0-.2.3-.5.8-.3 1-1 3-7.2 5-14.5 1.5-3.6 2-7.4a96 96 0 0 0 3.8-16.1c.4-4.2 1.6-8.2 1.3-12.5q.7-2.1.9-4.4.3-5.2 0-10.3l.3-1q.4-2-.2-3.7c.2-4.4.5-11.2-.6-15.4-.8-1-9.7-.3-11.5-.6-3.6-.2-7.4-.6-10.8.4q-2.1 0-4.1.3c-4-1.6-11.6-.7-16.2-.7h-3.7q-3.6-.5-7.2.1h-7q-4-.5-8.1-.2h-6.7c-4.9.2-9.3-.6-14 1.4-3-.7-5.6-1.8-9-1q-3.4-.6-7-.5c-8-.4-15.3 1.6-23.2.2h-7.8c-6 .2-11.7-.2-17.6 1.1q-3.9-1.1-7.8-.4Zm48.4 26.2q-.5 0-.8.2a1959 1959 0 0 0 56.3.8 481 481 0 0 0 25.5.8q5.3.2 10.7.9-.3 1-.3 2-.8.9.4 1.2c-1.4 2.9-1.1 9.6-2 13.2l-.2 1.6-4 15.4q-.5 0-.6.6c-1.2 5-7.4 16.4-8.2 20.3q-.9 0-1.2 1l-2.8 4.6a136 136 0 0 1-90.2 62.8q-14.4 2-29 2.2-2.2-.5-4.6-.1a161 161 0 0 1-20-3q-1-.7-2.4-.5l-14.5-4.2h-1.1c-.7-1.2-10.1-4-12-5.3l-2-1.1a152 152 0 0 1-25.2-15.8 121 121 0 0 0-8-6.1q-.2-.6-.7-1-.5-.7-1.3-.7c-.3-2-5.6-6.3-6.9-8.2l-2.8-3q-3.3-4.5-6.2-9-1.6-1.7-2.8-3.8l-6-10.3q-.6-2.1-2-3.8-1.7-5.2-4-10.2-.5-2.4-1.4-4.6a152 152 0 0 1-5.6-27c-.5-6 .8-7.3 6.5-8.6 17.4-1.1 35.5.5 53-.3a5 5 0 0 0 3.7.8q1.2.3 1.6-.8 9.4 0 18.9-.3 14 .4 28-.2 1.7.4 3.2.1c7.2 0 22.5.7 28.8-.6h.8c1.5 1.3 22 .6 25.5.5q2.7-.3 5-1.5.9.1 1 1Zm-162.4 8.5q-1 1-.2 2.3a104 104 0 0 0 5.8 24.1q.5 2.1 1.5 3.9 1.5 5.1 4 9.9l.5 1.3q4.2 8.8 9.6 16.8c1.5 1.8 2.4 5.3 5.3 4.8-.8 3.8 9.5 12.7 12.2 15.4q2.2 2.4 4.6 4.2a97 97 0 0 0 8.9 6.8 142 142 0 0 0 34 16.2l1.7.6q1.2 0 2.3.3c5.1 3.4 42.5 5.8 49.8 2.6q2.7.3 5.2-.9a116 116 0 0 0 91.9-88q1.3-3.3 1.8-6.8 1.3-5.9 2.2-11.8.2-.8-.4-1.5a668 668 0 0 0-36.7 0q-8.4-.5-16.9 0-7.4-.5-14.8 0a1258 1258 0 0 0-51 0 273 273 0 0 0-20-.1 242 242 0 0 0-21.1.1q-9-.5-17.8 0-5.7-.5-11.3 0-9-.4-17.9-.1-6-.3-11.8 0l-16-.2c-1-1-4.2-.7-5.4 0ZM275 346.2q1.6.7 3.6.8 17.3 1.5 34 6c1.2-.1 4 1.6 5 .7l17.2 7c3 .7 17 9.4 18.4 9l.3.4c1.2 1.9 8.4 6 10.3 8.3q1.3 1.2 3 1.7c1.8 2 13 15.8 14 16q0 1.2.8 2.2c1.7 1.9 4.7 10.6 6.6 11q-.4.9-.3 1.8c.2 1.5 2.7 5.6 1.3 6.9-5.1 4.8-15.9 2.3-22.4 3h-5a654 654 0 0 0-31.9 0 275 275 0 0 0-19.2 0 436 436 0 0 0-20.9.1 17 17 0 0 0-7 .7q-1-.7-2.3-.7l-12.5.2a427 427 0 0 0-22 .5q-.4-1-1.6-.8a5 5 0 0 0-3.6.8q-26.1 0-52.1.2a9 9 0 0 0-4.5 0l-1.2-.1-2-.3c-.8-1.2-4-.5-5.4-.3l-24.6-.6c-1-1.1-6.8-.7-8.4-.6q-3.3.2-6.7-.4l-3 .3a53 53 0 0 0-8.1-.6c-3.2-.5-2.4-1-2.1-3.5l.5-.8 1.8-3.8c10.8-25.1 33.3-41.2 57.9-51.4q.8 0 1.1-.7l.9-.2 1.2-.7q3-.6 5.7-1.9 14.9-4.6 30.2-7.5 1.7.4 3-.7a319 319 0 0 1 50-2Zm-44 7.8q-1.5 0-3 .4-.9-.3-1.2.4-10.6 1-20.8 3.5-1.5-.6-2.2.7-1.2 0-1.9.8-4.7.6-9 2.4c-26.2 8.8-48.7 24.6-57.5 51.7q-.3.6.2 1 13 .4 26.2 0 7 .4 14 .1l17 .1q2.2.2 4.1-.3l1.3-.2a4 4 0 0 0 2.4 0l1.5.4q8.4.2 16.8 0 2 .3 4 0a2398 2398 0 0 0 57.1 0q5 .3 9.9 0a506 506 0 0 0 20.9 0h16l3.1.1 17-.1q7 .4 14 .1h13.5q1.3 0 1-1.2-7.9-21-26.2-34-1.2-1.6-3.2-2.4a68 68 0 0 0-11-6.9q-10.3-5-21-8.6l-1.1-.3q-6.4-2.1-13-3.4-3.5-1.4-7.2-1.5c-.7-.8-11-2-12.8-2.2-1.6-.7-10.2-1-12.8-1.2q-18-1-36.2.6ZM87 457.3c-16.4-2.4-19.4 39.3 1 41.5 4.1.5 11 1.4 14.8-.2 7.6.8 27.4.2 36.3.3q2.8.2 5.5 0l23 .2 36.6-.2q3.8.3 7.4 0h30l22 .1 17.6-.1 8.7.2 37.3-.1c2.2-.1 5.5.5 7.5-.5 15.8 1.1 37 .3 53.4.5q3.4.3 6.6-.4c7.4.7 25 0 33.5.1 7.9-1.5 8.8-8.6 9.2-15.3 1.4-25.4-7.8-28.2-31.3-26.5H398c-7.1.1-29.9-.7-35.2.2-3-.5-7-.7-9.9.2q-9.7-.6-19.6-.9v.3l-1.3.5c-4.7-.7-13-.6-18-.2a57 57 0 0 0-12 .2c-3.5-.7-14-.5-18-.3a16 16 0 0 0-6.2.4 3 3 0 0 0-2 .1c-2.7-1.5-28.5-.3-33.5-.9q-1.3.3-2 1.3c-.5-1.7-5.2-1-6.4-.2a60 60 0 0 0-17-.6q-3-.6-6 .3c-12.2-1-24-.6-36.2 0l-1.5-.3c-3.2-.2-11.7-1-14.3.6-2.2-1.6-14.4-.8-17.7-.7q-2.3-.3-4.3.8a77 77 0 0 0-20-.8l-1 .3a169 169 0 0 1-16.7-.8l-9.5-.3q-1.5.5-2.7 1.2Z"/><path fill="#785f42" d="M246 421.8q-2.5.4-5.1 0a5 5 0 0 1 3.7-.8q1-.3 1.5.8"/><path fill="#8f6c42" d="M142.7 420c1.6 0 7.4-.4 8.4.7l-1 .4q-3-.4-6.1-.2l-1.1.3z"/><path fill="#af9069" d="M225.1 348.2q-1.3 1.2-3 .7 1.2-1.3 3-.7"/><path fill="#b99a73" d="M283.2 214.2q-1 1-2.4.4 1-.6 2.4-.4"/><path fill="#afa393" fill-opacity=".3" stroke="#afa393" stroke-opacity=".3" stroke-width=".5" d="M372.9 118q0 1-.5 2l-.4-1.2z"/><path fill="#807260" d="M141.3 97.7q-1 .3-2.2.3l-3.3-.3c1.2-.8 4.5-1.2 5.5 0m-5.5 0-.2 2.3q-.7-1.2.2-2.3"/><path fill="#755f45" d="M181.9 90.2q2.5-.5 5.2 0-.4 1-1.6.8a5 5 0 0 1-3.6-.8"/><path fill="#888484" d="M104.8 56.4q.3.6 1 1c.2 1.1-2.5.3-3.1.2q.8-1 2-1.3"/><path fill="#825043" fill-opacity=".6" d="M413 6.2q-3.5-.8-7.1 0c.4-2.5 7.2-2.4 7 0M375.2 5q-.4 1-1.5 1 .4-1 1.5-1"/><path fill="#825043" fill-opacity=".3" stroke="#825043" stroke-opacity=".3" stroke-width=".5" d="M138 5.1a11 11 0 0 0-3.4.1c.5-1.9 3.3-1.6 3.5 0Zm112 13.7c.2 1.2-2.1 2.8-2.8 1.9a4 4 0 0 1 2.9-2Z"/><path fill="#824f42" fill-opacity=".3" d="m114.1 5.1-3.3-.2c.6-1.4 3.4-1.4 3.3.2m223.7 465.1.4 1q-.5 1-1.3.2-.1-.9.9-1.2"/><path fill="#824f43" fill-opacity=".4" stroke="#824f43" stroke-opacity=".4" stroke-width=".5" d="M86.3 5.1h-2.5c.2-1.6 2.1-1.3 2.5 0Zm292 0q-1 .2-2.2.1c-.3-1.9 2-1.3 2.3 0Zm-223.5 485q.6-2 2.7-2c1 1-2.1 1.8-2.7 2Z"/><path fill="#dce5ea" stroke="#dce5ea" stroke-width=".5" d="M279.3 29.9q0 .6.5.9c.1 1.8-4.6 3.2-5.8 4.5q-1 .5-1.7 0l5-4.6q.9-.8 2-.8ZM323 52.3q-.6-.3-1.3 0-1.2 1-2.7 1.6l-1.2.8q-1.4.8-2.5 2c-3.4.9-8.7.3-12.3.3l1.3-1.2q19-10.9 37.8-22.1.9-.8 1.7-.2A510 510 0 0 1 323 52.3Zm51.2-17.5c0 2-11 10.2-13 11.8q-2.6 1.5-5 3.3-1.2.3-2.3 1l-1 .6-6 3.9q-.8.6-.7 1.7h-10.3q.3-1 1.2-1.5c11.7-6.3 25.4-15.4 37.1-20.8Zm22.6 7.6q-10.6 6.4-20.8 13-1 .6-.8 1.8L368 57l36-21.5a2 2 0 0 1 1.7 0q-3.4 2.9-6.6 6zM308.3 36c-6.5 7.5-15 13.5-22.1 20.2q-1 0-1.2.9-7 .3-14-.1c11.1-6.5 25.9-16 37.3-21ZM165 56.4a44 44 0 0 1-15 .4q17.1-9.5 33.9-19.5.7-.5 1.6-.5.5.6 0 1.1Q175 47 165 56.4Zm-19-10.6c-1 2.2-10 8.2-12.1 10.5-2 1.3-5.9 1-8 .6 4.4-2.4 16.2-10 20.1-11.1Zm41 10.5a9 9 0 0 1-6 .6l14-8.6q.9-.4 1.8.2-5 3.8-9.8 7.8Zm-69.8-6.4a4 4 0 0 1-1.2 1.6 58 58 0 0 0-6 4.9q-2 1-4.2 1-.7-.4-1-1l10.2-5.9q1-.4 2.2-.6Zm270.5 2c.3 1.1-3.1 3.4-3.7 4.5a8 8 0 0 1-5.4.8c.3-1.1 7.6-4.7 9-5.4ZM283 62.2c7.9 1.4 15.3-.6 23.2-.2-3.8 3-25.9 17-31.4 21.1a40 40 0 0 0-8.8 6c-6.3 1.3-21.6.5-28.8.6l.2-1c1 .1 6.2-3.1 6.7-4q.7 0 1.6-.5l35.5-20.5q1.2-.5 1.8-1.5Zm59.9 0q4-.4 8.1 0 3.4 2.8 7 .1 3.6-.6 7.2-.1l-.4 1a2 2 0 0 0-1.9.2l-7.8 5.4c-1 .8-6 2.4-6 4l-1.3.1q-1.2.6-1.8 2c-1.9-.2-4 1.5-5 3q-3.1.5-5.1 3-1.5-.2-1.9 1a1 1 0 0 0-1 .4q.7.3 1-.4 1.5.3 1.9-1c1.8.2 4.3-1.4 5-3a7 7 0 0 0 5.1-3q1.4.3 2-1l1.3-.1q2.7-2 5.7-3.5.6-.5.8-1.4 3-.2 5.3-2.5a78 78 0 0 0 7.8-4.2c4.6 0 12.1-.9 16.2.7q.3.9 1.2 1.2c-4 3.8-37.7 23.6-38 25.9q-25.5 0-51-.7.4-.3 1-.2 2.1-2.3 5.1-3.2.4-.2.4-.6 19.6-11 38.8-22.3zm57 0c1.9.3 10.8-.5 11.6.6 1.1 4.2.8 11 .6 15.4-1.9-.4-19.4 11.6-22.2 13.6q-5.4-.7-10.7-1c-.2-1.1-1.8-1-2.7-1q-1.6-.3-2.7.9-10 0-20.1-.6 0-.8.7-1.1l44-25.3q1-.4 1.6-1.5Zm-294.9.4c28.5.7 58.3.3 87 .1q-.3 1-1.3 1.2l-1 .7q-4.5 3.4-9.1 6.4-.8.7-1.4 1.6c-.9 1-3.2.5-3 2.2l-2.2.7q-2 1.5.4 1.3 1.2-.7 1.7-2 1 0 2-.3 8.2-5.4 17-10.1.8-.6.8-1.7c15.6.8 31.4-.5 47 0 .3 1.6-3.6 2.1-4.4 3.1L215.2 82c-2.4.6-2.9 2.8-4.2 4.5-1.5 1-4.4 1.6-5 3.4a299 299 0 0 1-24.1.3c-17.6.8-35.7-.8-53 .2-5.8 1.4-7.1 2.7-6.6 8.7-3 0-15.6 8.7-19.4 10.2-1.1-2.9-1.3-7.3-1.8-10.5 1.2.1 18-12.1 18.8-13.6q2.3-.2 3-2.3c1.1 0 3 0 3-1.5-1-1-2.4.7-3 1.5a3 3 0 0 0-3 2.3c-2.1-.6-16 9-19.2 10q-1-5.7-.5-11.5l1-.1L106 80a6 6 0 0 0 3-3q1.9 0 2.8-1.6c-.9-1.2-2.4.7-2.9 1.6q-2.4.3-4.3 2-1.5 1-3.3 1.9l-.9 1.5c-1.4-3.4-.3-10.7-.6-14.5 1.6.3 6-3.4 5.2-5.2Zm305 5.3q-1.3 0-2 1-2.1 0-3 2-1.2-.2-2 .7c.7 1 1.9.2 2-.7q2.1-.1 3-2 1.5.3 2-1 1.7-.9 0 0Zm1 15.1h1q.3 5.2 0 10.3c-5.1 2.3-18.4 11.6-24 15 .9-3.6.6-10.3 2-13.2q.4 0 .7-.3zm-269.8 4c2.7 2 7-2.5 6.3-3zm16 10.8q5.9-.3 11.8 0c-1 1.9-15 9-17.7 10.9q-.7.4-1-.2 2.9-4.3 6-8.5.6-1 .9-2.2Zm29.7 0q5.6-.3 11.3.1-.4.8-1.2 1.5-12.8 7.5-25.5 14.5c-.8-.6 0-1 .4-1.5q7.6-7.1 15-14.5Zm29 .1a16 16 0 0 1 4.3 0l-1.3 1.4-9 5.2-1.9.6c.6-2.6 6.7-4.5 8-7.2Zm41.3 0a195 195 0 0 1 16.7-.2q-.3 1-1.2 1.5a3626 3626 0 0 0-55.7 32.4c-1.4 1.2-2.6 0-1.1-1.1a812 812 0 0 0 41.3-32.6Zm51 0q7.4-.5 14.7 0c-2 2-10 6-12.8 7.8q-24.7 14.4-49.7 28.3c-.7-.7.2-1 .7-1.5l43.6-31.3q2.2-1.3 3.4-3.3Zm103-.2c.2 4.3-1 8.3-1.4 12.5q-1-.6-1.9 0c-8 5-15.7 10.8-24 15.1q1.8-7.8 4-15.4 1.1.7 2.4 0zm-36.5 13.5q-.5 3.5-1.8 6.8l-.9.8q-1 .3-1.1 1.3-1.5 1.3-3.2 1.3c-1.5 2.5-3.5 2.4-5.3 4.3-12.6 6.5-25 14.5-37.5 21.4-1.2.8-2.2 2.5-3.8 1.3q.3-.6.8-.9c17.2-11 35.9-24.5 52.8-36.3Zm34.5 1.8a96 96 0 0 1-3.1 13.3c-1.9-.2-27.3 17.4-31 19.9.7-4 7-15.2 8.1-20.3l1-.3q.6 1.2 1.8.7zm-266.3 15q-1-1.8-1.5-3.9a147 147 0 0 1 11.1-6l.3.3c-.3 1.5-8.3 8.2-10 9.6Zm-13.6 2.7q2.3 5 4 10.2l-17.7 10.4q-2.1-4.5-3.8-9.3c2.6 0 14.6-9.2 17.5-11.3Zm33 30c-3 .6-3.8-3-5.3-4.7l38.4-22 2.5-2c1-.7 2.4-.2 1.5 1L172 154.2c-2.3 1.7-3.9 2-5.6 4.4-1.4.5-3.5.3-4 2Zm241.7-27q-2.1 7.3-5 14.4-1 .2-1 1.1-1.1-.3-2.1.3-1.6 1.5-3.6 2.4l-.7 1.4q-.9-.5-1.7 0L384 157c-1.5 1.3-6.4 3.5-7 5q-2.1.3-3 2c-.7 0-2.1-.1-2 1a1 1 0 0 0-.9.4q.7.2 1-.4 1.4.3 2-1 2 0 2.9-2a8 8 0 0 0 4-1.5 9 9 0 0 0 3.3-2.6c1.5.1 6-2.9 7.3-3.8q.3-.4 0-.8a10 10 0 0 0 6-3.6c.6 3.2-6.2 14-7.5 17.5q-1-.5-2.2 0l-73.2 47.1c-1.7 1-3.7 1.8-4.6 3.6-1.9 0-7.3 3.4-8 5a7 7 0 0 0-5.1 3.2q-1-.3-1.8.6c.5.9 1.8.2 1.8-.6 1.6-.3 4.4-1.6 5-3.1 1.6.1 6.3-3.2 8-4l5.7-3.4q33.8-19.4 67.2-39 .5-.5 1.4-.5a141 141 0 0 1-57 51.7c-16 7-39.4 13.7-34 36.4L272 277.7a3 3 0 0 0-1 1.6q-2.2-.5-3 1.6a8 8 0 0 0-5 3 3 3 0 0 0-3 2.2q-1.2-.4-2 .6c.6 1 1.7 0 2-.6q2.1-.3 3-2.2a7 7 0 0 0 5-3 4 4 0 0 0 3.3-1.3l21.7-12.3q.8-.4 1-1.3c1 1.3 5.8 6.2 5.9 7.2q-1.4.6-2 1.9-2.2-.5-3 1.8a2 2 0 0 0-2 .7q1.5 1 2-.7 2.1-.3 3-1.8c1.1 0 2.8-.5 2-1.9q5.1 2.7 10.4 4.8-.5.9-1.2 1.4l-7.1 4.2q-.7.8-1.5 1.3-2.1.2-2.3 2.2-1.2-.3-2.4.3-4.4 3-9.2 5.8a4 4 0 0 0-1.6 1.8q-1.5-.3-2 1.1-2 .2-3 1.8-1.2 0-1.8.8c.6 1 1.8 0 1.8-.8q2.1 0 3-1.8 1.5.1 2-1.1c3.6-1 9.5-5 13-7q3.7-2.2 7.5-4.8c1.6-.6 6-2.3 6.4-4 1.8.7 10 3.5 10.4 5q-1.1.8-2.5 1.2l-9.7 6.3-5.1 3q-.7.4-1 1.2-2.3 0-3 2.2-1.4-.3-2 .9-2.4-.1-3 2-1.2-.3-2 .7c.6 1 1.8 0 2-.7a4 4 0 0 0 3-2q1.2 0 2-.9 2.2-.3 3-2.2c2 .2 5.5-2.1 6.8-3.8a5 5 0 0 0 2.2-.7l10-5.7q.5-.4.8-1c2 .7 8.3 3.2 9.2 5.2l-70.8 45.9q-2.5 1-4.3 3.1c-1.8.2-4 1.5-4.9 3-1 .2-2.8.3-3 1.7 1 1 2.6-.7 3-1.7q2.3 0 4-1.6.7-.5 1-1.4 3.4-.3 5.1-3.1 1 .3 2-.2 3.2-2.2 6.6-4l65-37.4q.8-.4 1.2-1.4c3 .5 6.8 4.2 9.5 5.9q-1.3.3-2.4.9l-69 45q-.7.6-.9 1.6a319 319 0 0 0-50 2q-1.8-.6-3 .7-15.3 2.8-30.2 7.5c-1.7-.1-5.2-.2-5.7 1.9q-.9-.2-1.2.7l-.9.2q-.8 0-1.1.7c-24.6 10.2-47.1 26.3-57.9 51.4q-1-1-2.4-.2L100 424.3c.3-6.9.8-19.5 3.4-25.6q1.5.4 2.7-.7l8.3-5.2q1-.7 1.5-1.7c1.9-.2 4.2-1.3 5-3 1-.1 6-2 4.7-3.2-1.4 0-4 1.8-4.7 3.2a7 7 0 0 0-5 3q-1-.1-2 .4l-9.1 5.3a4 4 0 0 1-1.4 1.5c-.6-5.1 5.1-21.6 6.6-27.6a2 2 0 0 0 2 0l6.5-4.5q3-1.5 5.9-3.4c3-2.3 7.1-3.6 9.6-6.6q3-.8 5-3.2 1.2 0 2.2-.4 2-1.6-.6-1.3-1 .6-1.6 1.7c-1.8 0-4.4 1.4-5 3.2a3 3 0 0 0-2 .3l-9.3 5.3c-2.8 2-5.1 3.8-8.4 5q-1 .6-2 1.5l-1.1-.3 5.7-14.2q.8 0 1.4-.3a2590 2590 0 0 0 49.7-31.1q.6-.7.8-1.5 3.4-.1 5.2-2.8 1.5.2 2-1c.5-.3 4.2-1.3 2.6-2.1q-2.1 0-2.6 2-1.4-.3-2 1-3 .5-5.2 3l-1.8.5q-4.5 2.8-9 5.2c-12 7.5-24.8 13.9-36.7 21.6l-1-.2a147 147 0 0 1 28-38.3q1 .4 1.9-.3l1.1-.8 33.9-21.6 1-.6 7.2-4.6q1-1-.4-1.5 2.1-.6 3.9-1.7 1 .3 1-.7l1.1-.3q.7.2.7-.4c7-3.4 12.8-6 17-12.6q.3 1 1.3 1.4l9-5.7q.7-.6 1-1.5 1.4.3 2-.9 2.2-.1 3-2.1c.5.3 2.6-.2 1.5-1a2 2 0 0 0-1.6 1q-2 .3-2.8 2.1a2 2 0 0 0-2.1.9 91 91 0 0 0-9.6 5q-.5.2-1.1.2 2.1-5.3 2.4-11l1-.8q5.5-3.9 11.3-7.3l12.5-8.1q.3-.4.4-1c.7.2 2.1.2 2.1-.9.6-.2 4-1.2 2.6-2.1q-1.7.4-2.6 2.1-1.4-.3-2 1-.8 0-1.3.2a96 96 0 0 1-8.3 4.8c-.8.9-4.5 2-4.3 3.4q-.9-.2-1.8.3l-10.3 5.5c-.3-3.2-2.4-5.8-4.2-8.3 2.7 0 31.6-20.3 36.3-23.3q.8-.7.7-1.8 14.6 0 29-2.2 1.4.6 2.4-.4c37-8.2 68-30 87.8-62.4q1 .5 2 0zm-225 46.7a29 29 0 0 1-4.6-4.2 19 19 0 0 1 4.2-3c16.1-9.6 33.6-18.8 49.3-28.9 1.5-1 2.5.5 1.1 1.2-16.8 10.6-33.1 24.2-50 35Zm-43.8-35.7 6 10.3a132 132 0 0 0-18.2 10.4c-1.8-2.2-4-5.8-4.3-8.6 3.1-2 15.8-9.2 16.5-12Zm8.8 14q2.9 4.7 6.2 9c-3.4.2-15.8 8.5-19.4 10.7a63 63 0 0 1-5.2-8.2c4-1.2 14.3-9 18.4-11.5Zm9 12c1.3 2 6.6 6.4 6.9 8.3-4.4 1.6-15.5 8.5-20.2 11.3a83 83 0 0 1-5.2-7.3zm8.1 10.3.9-.3q4 2.9 8 6.1l-21 12.5c-2.3-.9-5-4.4-6.5-6.4l.6-.9q9.2-5.1 18-11Zm13.9 9.7a152 152 0 0 0 20 11.9c-3 1.6-23.7 12.5-24.1 14.4-1.7.1-8.7-4.5-8.6-6.2q1.8 0 2.5-1.9c1.4.2 6.6-2.6 7-4 .7-.4 4-.7 2.7-2a4 4 0 0 0-2.7 2l-1.4.1q-2.2 1.5-4.5 2.8l-1.1 1.1c-1 .1-3.3.4-2.6 1.9-2.5 0-6.7-5-8.7-6.6 4.1-1.2 17.2-10.3 21.5-13.5Zm58.9 6 .9.2q0 .7-.3 1.2-4.4 3-8.6 6.2l-2.3-.3a9 9 0 0 1 4.4-3.3q2.7-2.4 5.9-4Zm47 9.3q-2.5 1.1-5.2 1 .7-1.2 1.9-1.7 4.8-3 9.9-5.4c.7.8-.7 1.4-1.2 2q-2.8 1.9-5.4 4.1Zm-83.7-2.3c1.8 1.2 11.2 4.1 11.9 5.4l-.6.8-23.7 13.5a3 3 0 0 0-1.2 2 65 65 0 0 1-10-6c5.8-2.5 16.3-10.3 22.4-13.8q1-.7 1.2-2Zm15 6 12.5 3.5q.6.7 1.5 1.1l-29.4 17c-2.1-.6-8-2.5-9.2-4.3l.6-.7 22.8-14.7q1-.7 1.1-2Zm16.8 4.2q9 1.9 18.1 2.7-17.7 9.8-35.2 20-.9.6-.8 1.7c-1.4-.7-9.9-4.3-10-5.2q13.4-8.9 27-17.5.8-.6 1-1.7Zm124 89.4a85 85 0 0 1 14.4 13.8q-1 0-2 .7L314 351.4q-.9.6-1.1 1.5-16.8-4.5-34.1-6 .2-.5.8-.8l71.2-40.9q1.5-.5 2.2-2Zm19.2 18.4c2.1 3.1 10.3 12.6 11 15.6a2 2 0 0 0-2 .3q-4.5 3-9.2 5.8-1 .8-1.1 2-.6-.4-1.3-.4c-1 .6-5.2 2.8-5.5 3.8l-1.1.4a3 3 0 0 0-1.9 1.9c-1.2-.3-4.7 1.6-5 2.8q-2.1.2-3 2.1-1.2-.3-2 .7c.6 1 2 .2 2-.7q2.2 0 3-2a7 7 0 0 0 5-3q1.5.4 2-1l1.3-.1 5.8-3.4q.8-.3.7-1.1a7 7 0 0 0 2.3-.8l9-5 1.6-2q3.2 4.5 5.6 9.1-1.4-.3-2.6.6-16.6 11-33.4 21.6v.8c-1.3.4-15.5-8.3-18.4-9l-17.3-7q26.4-15.5 53-30.7zm18 27.4q1.3.9 2 2.4l3 6.5c-3 .1-26.9 17.4-31.2 20.4-2-2.4-9.1-6.4-10.3-8.3l1.4-.2c5-3.4 33-18.2 35.2-20.8Zm-123 4.3c2.7.2 11.3.5 13 1.2l-46.9 27.1q-.6.5-1.2-.1.2-.9.8-1.2 17.4-13.3 34.4-27Zm25.7 3.4q3.8 0 7.3 1.5c-9 5.2-19.6 10.8-28 16.4-1.7 1-2.9-.2-1.2-1.3q10-6.9 19.6-14.4 1.3-1 2.3-2.2Zm-90.8 3q0 .6-.6 1-6 3.6-12.2 6.9-.6.3-1.1-.1 1.8-2.1 4.2-3.8.6-.6.6-1.6 4.5-1.8 9.1-2.4Zm195.3 3q3.6 8.4 6.5 17.3a335 335 0 0 0-22.9 16c-1-.2-12.2-14-14-16 5.2-2.4 24-13.7 30.4-17.4Zm-62.3 7.8 2 1.1-8 5.1q-1 .4-1.7-.3zm11.1 6.9q2 .7 3.2 2.5c-2.3 1.4-14.7 9.4-16.4 9 1.2-2 11-10.2 13.2-11.5Zm58.6 8.2q1.2.6 1.3 1.8l2.1 8.5c-2.2-.7-17 11.3-19.8 13.3-1.9-.4-5-9.1-6.6-11 3.1.1 19.3-10.4 23-12.6ZM176 415q-7 .3-14.1 0 2-1.9 4.4-3.2 21-12 41.6-24.2a3 3 0 0 1 1.7-.6c.9.6 0 1-.5 1.6q-16.7 13-33.1 26.4Zm-56-14c-1.9-.2-4 1.7-5 3-1.8.1-4 1.3-5 2.7.6 1.3 4.6-1.4 5-2.7 1.7-.2 4-1.3 5-3a6 6 0 0 0 2.2-.3q1.9-1.8-.6-1.3-1 .6-1.7 1.7Zm170 14q-5 .3-9.9 0 .1-.9 1-1.3l23-13q.8-.7 1.8-.2-.2.8-.8 1.1c-5 3.9-11 8.7-15.1 13.4Zm118.9-15.3q1 5 1.6 10.1-.9 1.5-2.5 1.9l-12 8.8-1 1.3a4 4 0 0 0-3 2.2q-1.2-.3-1.8.6c.5 1 1.8.2 1.8-.6q2.1-.3 3-2.2a6 6 0 0 0 2.6-.8 144 144 0 0 0 12-7.3l1.2.2c1.4 8.2 1.1 17 1.2 25.3-1.5-.3-6.7 5.4-6.8 6.7q-1.8.6.1 1l-.3.9q-42.6.2-85.3 0 1.5-1.2 2.9-2.8.8-.1 1.5-.5 1.8-1.7 3.8-3 .6-.6 1.3-.5l4.6-3.7-.3-.4q-2.4 1-4.6 2.7l-12 6.9q-.8.5-.8 1.3h-24.3q9-6 17.7-12.6a35 35 0 0 0 8.4-6c.8-.2 3.8-1.1 2.6-2.2q-1.7.4-2.6 2.1c-2 0-10 5.9-12.6 6.6l-19.6 11.5c-7.6 1.3-30.8.5-39.9.6q.9-1.1 2.4-1.6l1.1-.9 27.2-18.2q1.4-.9 1.5-2.4c.8-1.6 3.4-2.3 4.9-3a17 17 0 0 1 7-.6c1 1.6 4.1 1.4 5.1 0q7.9-.3 15.8-.1c.9 1.8 4.2 1.5 5.1-.1H330q.8 1.5 2.5 1.2c.8 0 2.4 0 2.5-1.1q13.5-.3 27 0 .8 1.2 2.5 1.1 1.6.2 2.4-1c6.5-.8 17.3 1.7 22.4-3.1 1.4-1.3-1-5.4-1.3-7 4.8-1.3 15.7-8.7 20.9-11.3Zm-146 15.3q-2.4.2-4.8.1 0-.6.5-1 5.3-2.7 10.4-5.7.6-.3 1.1.2c.2 1.8-6.3 4.3-7.1 6.4Zm48 0h-4q.1-.6.7-1l6-3.1.2.4q-1.7 1.7-3 3.8Zm-188.7 1 .6-.1c-.3 2.5-1.1 3 2.1 3.5 1 3.3 4.6 2.9 7.4 2.8l-29 16.6q-1.2.6-2.2 1.6l-1-.3q-.9-5.1-.3-10.4c2.5 0 18.7-11.9 22.4-13.6Zm20.7 5.2 1-.3c1 2.2 4.7 1.7 6.1.2l1-.4 24.7.6c1.2 1.3 4 .8 5.5.3l2 .3-.5 1q-21 12-42 24.5-6 .4-12.2.3-12.7 0-25.3-.2v-.3q1.2-1.3 2.9-1.8zm202 25.8c1 .6 3.9-1.2 2.7-2q-2 .2-2.8 2Zm-255.2 9 9.5.2c-1.9 2-6 3.7-8.4 5a10 10 0 0 1-1.1-5.2Zm26.3 1 .8-.2c.8 0 2.4-.6 2.7.4a92 92 0 0 1-8 4.8q-.6-.5-.2-1.2zm21 .5q1.9-1.1 4.2-.7a14 14 0 0 1-7.5 4.1c.2-1.4 2.3-2.3 3.2-3.4Zm22 0c2.5-1.6 11-.8 14.2-.6v.7c-3.6 2.7-9.6 4.4-12.6 7.6-2.5.8-5.9 1.8-7.2 4.3-3.8.5-5.4 3.1-8.6 4.6q-1.5-1-3.1-.3zm52-.4q2.9-.8 5.9-.2-6.8 4.4-14 8.3-1.5 1.5-3.6 2.3-2 .2-.5-1.2 6.4-4.1 12.1-9.1Zm22.9.4c1.2-.9 5.9-1.5 6.3.2q-1.2.2-2.3.8l-13.7 8q-2.2.3-.4-1.2 5.3-3.6 10.1-7.8Zm43.9-.3q3-.8 6.1-.4c-4.1 3.6-12.8 7.5-17.6 10.7q-2.2.3-.7-1.4c2.4-2 5.2-3.2 7-6l3.6-1.5q1-.4 1.6-1.4Zm27.9-.5q4.2-.1 8.2.2c-4.1 3-17.1 10.7-21.1 12v-1l1-2q5.6-3.7 11-7.7.9-.6.9-1.5Zm47.2.5c3-.9 7-.7 9.9-.2l-23.7 13.6-.2-.4q0-1.1 1-1.9z"/><path fill="#dbe6eb" fill-opacity=".4" d="M344.8 447a3 3 0 0 1 2.8-2c1.2.8-1.7 2.6-2.8 2"/><path fill="#dbe6ea" fill-opacity=".3" d="M121 388a6 6 0 0 1-5 3 7 7 0 0 1 5-3"/><path fill="#dde5ec" fill-opacity=".3" d="M361 351a7 7 0 0 1-5 3c.3-1.3 3.8-3.2 5-3m-246 53c-.4 1.3-4.4 4-5 2.7 1-1.4 3.2-2.6 5-2.7"/><path fill="#dce5ea" fill-opacity=".4" d="M260 286c-.3.8-1.4 1.6-2 .7q.8-1 2-.6m23 10.1a3 3 0 0 1-3 1.8 4 4 0 0 1 3-1.8m16 2.9a4 4 0 0 1-3 2q.6-2.1 3-2m54 57c0 .9-1.4 1.6-2 .7q.8-1 2-.7m-233 45a7 7 0 0 1-5 3c1-1.3 3.1-3.2 5-3"/><path fill="#dce5eb" fill-opacity=".4" d="M298 275q-1 1.6-3 2 .6-2.4 3-2m-122 42q.5-2 2.6-2c1.6.8-2 1.8-2.6 2"/><path fill="#dce5e9" fill-opacity=".4" d="M233 255.9q-.9 2-3 2.1.9-1.9 3-2.1"/><path fill="#dbe6ea" fill-opacity=".3" d="M247 235c0 1.1-1.3 1-2 1q.6-1.3 2-1m16 49q-.9 1.8-3 2a3 3 0 0 1 3-2m-5 55q-.3.8-1 1.3a6 6 0 0 1-4 1.6c1-1.5 3.1-2.8 5-3m98 15q-.9 2-3 2 .9-2 3-2"/><path fill="#dde5ec" fill-opacity=".3" d="M164.9 209q-.6 1.8-2.6 1.8c-.7-1.5 1.6-1.8 2.6-1.9M304 296q-.7 1.9-3 2.1.7-2.2 3-2.2"/><path fill="#dde5ea" fill-opacity=".3" d="m384 157 .3.9a9 9 0 0 1-3.3 2.6 8 8 0 0 1-4 1.5c.6-1.5 5.5-3.7 7-5m-99 138q-.5 1.2-2 1.1.6-1.4 2-1.1m-111 23a7 7 0 0 1-5.2 3q2-2.6 5.2-3"/><path fill="#b7bbc6" fill-opacity=".1" d="M391.6 153.3q.3.5 0 .8c-1.4 1-5.8 3.9-7.3 3.8l-.3-.9 5.9-3.7q.9-.5 1.7 0"/><path fill="#dde4ec" fill-opacity=".2" d="M123 83a3 3 0 0 1-3 2.2 3 3 0 0 1 3-2.3"/><path fill="#dce5e9" fill-opacity=".3" d="M346 75a7 7 0 0 1-5 3c1-1.5 3.1-3.2 5-3m-45 223.1q-.8 1-2 .9.6-1.1 2-.9"/><path fill="#dce5ea" fill-opacity=".5" d="M176.1 74.9q-.5 1.3-1.7 2-2.4 0-.4-1.3z"/><path fill="#dde4eb" fill-opacity=".3" d="M109 77c.4-.9 2-2.8 2.8-1.6q-1 1.5-2.9 1.6m32.2 10 6.3-3c.7.5-3.6 5-6.3 3"/><path fill="#dce5ea" fill-opacity=".4" d="M409.9 67.9q-.5 1.4-2 1 .7-1 2-1m-238 137c-.4 1.4-5.6 4.2-7 4l1.1-1.2q2.3-1.2 4.6-2.7.6-.2 1.3-.1m130.1 18c-.6 1.6-3.5 3-5 3.2a7 7 0 0 1 5-3.1M139 353a9 9 0 0 1-5 3.2c.6-1.8 3.2-3.2 5-3.2m179 76.1q.6-1.7 2.5-2.1c1.2 1-1.8 2-2.6 2.1"/><path fill="#dbe6eb" fill-opacity=".2" d="M409.9 67.9q1.7-.9 0 0"/><path fill="#957248" d="M175.7 421.3c1.3-.2 4.6-1 5.5.3-1.5.5-4.3 1-5.5-.3"/><path fill="#d1b188" d="M191.9 356.4a23 23 0 0 1-5.7 1.9c.5-2.1 4-2 5.7-1.9m-5.7 1.9-1.2.7q.3-1 1.2-.8"/><path fill="#edaa5b" stroke="#edaa5b" stroke-width=".5" d="M139.1 98q1.2 0 2.2-.3H157q-.2 1.3-.8 2.3-3.1 4.2-6 8.5.3.6 1 .2c2.7-2 16.7-9 17.7-11q9 0 17.8.2-7.2 7.4-14.9 14.5c-.3.5-1.2 1-.4 1.5q12.7-7.1 25.5-14.5.8-.7 1.2-1.5 9-.5 17.8 0c-1.3 2.7-7.4 4.6-8 7.2a1 1 0 0 0-1 .4q.7.5 1-.4l2-.6 9-5.2 1.2-1.4q8.4-.4 16.8-.1l-2 2.8.3.4c1-.2 5-2 4.7-3.3q8.6-.1 17.2.2a812 812 0 0 1-41.3 32.5c-1.6 1.1-.4 2.4 1 1.2q27.8-16.5 55.8-32.4.9-.5 1.2-1.5l34.2.1q-1.3 2-3.4 3.4L261 132.5c-.5.5-1.4.8-.7 1.5q25-14 49.7-28.3c2.8-1.8 10.9-5.9 12.8-7.9q8.5-.3 17 0c-.2 1.6-2.6 1.2-3 3.3-1.3-.2-5.3 1.5-4.5 3 .9 0 5-1.9 4.5-3 1.3.1 5.6-2.1 6-3.3a668 668 0 0 1 33.6.1q.7.7.4 1.5-1 6-2.2 11.8c-17 11.8-35.6 25.2-52.8 36.3q-.5.3-.8 1c1.6 1.1 2.6-.6 3.8-1.4 12.5-7 24.9-15 37.5-21.4 1.8-1.9 3.8-1.8 5.3-4.3q1.8 0 3.2-1.3l1.5-.1a116 116 0 0 1-91.4 86q2.5-2.3 5.4-4.1c.5-.6 2-1.2 1.2-2q-5 2.4-10 5.4-1 .7-1.8 1.6c-7.3 3.2-44.7.8-49.8-2.6q4.2-3.3 8.6-6.2.5-.5.3-1.2 2.3.2 3.1-1.9 2.4 0 3-2 1.5.1 2-1 .3-.6 1-.8 1.3 0 2-1l37.7-26 2-1.8q-.7-.6-1.7-.1-33.8 19.5-67.3 39.4a142 142 0 0 1-28.7-14.5c1.6-.6 5.1-2.4 5.9-3.9q-.5-.5-1.1-.2l-6.1 3.2a97 97 0 0 1-7.6-5.9c16.9-10.7 33.2-24.3 50-34.9 1.4-.7.4-2.3-1.1-1.2-15.7 10-33.2 19.3-49.3 29a19 19 0 0 0-4.2 2.9c-2.7-2.7-13-11.6-12.2-15.4.5-1.8 2.6-1.6 4-2.1 1.7-2.3 3.3-2.8 5.5-4.4q14-10.6 27.6-21.4c1-1-.6-1.6-1.5-.8l-2.5 1.8L157 156q-5.4-8.1-9.6-16.8 1.7-.3 2.5-1.9c-.7-1.3-1.8.8-3 .6q-2.5-4.8-4-10c1.6-1.3 9.6-8 10-9.5l-.4-.4a147 147 0 0 0-11.1 6.1q-2.3-6.4-3.8-13 1.3-1 2.1-2.7c-.7-.6-1.9.4-2.6.6l-1.5-9a4 4 0 0 0 3.5-2Zm128 255.4q-16.8 13.7-34.3 27-.6.3-.8 1.2.6.6 1.2.1l46.8-27c1.7 0 12 1.2 12.8 2q-1 1.4-2.3 2.3-9.6 7.4-19.6 14.4c-1.6 1.1-.5 2.4 1.2 1.3 8.4-5.6 19-11.2 28-16.4q6.5 1.3 12.9 3.4-1.7 0-3 .8c-1 1.1-4.7 2.9-5 4q.4.7 1.2.3 4-2.3 7.8-4.8 10.8 3.6 21 8.6l-7.7 5.9q.7.7 1.8.3 3.9-2.6 7.9-5 4.8 2.4 9.1 5.7c-2.2 1.3-12 9.5-13.2 11.5q-.5 0-.7.5.6.3.7-.5c1.7.4 14.1-7.6 16.4-9q18.3 13 26.3 34 0 1-1 1l-13.6.1q1.3-4.5 2.8-8.8 0-.7-.3-1.1c-2.3 1.2-16 8.5-16.5 9.8q-8.4.2-17 .1.7-.8 1-1.8c-1-1-3.3 1-4 1.8h-16.1q1.2-2.1 2.9-3.8l-.3-.4q-3 1.4-6 3.2-.5.3-.5 1h-17c4.2-4.8 10.1-9.6 15.1-13.5q.6-.4.8-1-1-.6-1.9 0-11.3 6.7-22.8 13-1 .5-1.1 1.4-8.5.2-17.1 0c.8-2.1 7.3-4.6 7.1-6.4q-.5-.5-1.1-.2l-10.3 5.8q-.6.3-.6 1l-35-.1q2.7-2.5 5.9-4.6c.4-.5 1.5-1 .6-1.7A96 96 0 0 0 219 415q-8.4.3-16.8.2l.1-1.2q.7-.2 1.5-.8 1-.2 1.5-1.2l1.6-.7a3 3 0 0 0 1.4-1.2q1.2-.6 1.6-1.7 3-1.2 4.8-4 2.4-1.9 5.2-3l7.8-5.8c-1.7-1.3-4 1.6-5.4 2.4l-27.9 15.9q-.8.4-1.4 1.3h-17q16.5-13.5 33-26.5c.5-.5 1.5-1 .6-1.6a3 3 0 0 0-1.7.6q-20.7 12.3-41.6 24.2-2.4 1.2-4.4 3.2-13.2.3-26.2-.2-.5-.3-.2-.9c8.9-27.1 31.3-43 57.4-51.7q0 1-.6 1.6-2.4 1.7-4.2 3.8.5.4 1.1 0 6.2-3.2 12.2-6.9.5-.3.6-1 .7-.7 1.9-.7a158 158 0 0 1 23-4.3l-.8 2q.6.3 1.2 0c.8-.8 3.8-1.5 3.7-2.7q18-1.6 36.2-.7ZM271 408c.3 0 1.5-.3.7-.9q-.7.3-.7 1Zm-146.1 11.4q4 0 8.2.6-.6 1-.8 2.2c-2.8 0-6.4.5-7.4-2.8Z"/><path fill="#deded9" d="M271 408q0-.6.7-.9c.8.6-.4.9-.7 1"/><path fill="#dfdbd0" d="M208 105.1q-.3.9-1 .4a1 1 0 0 1 1-.4"/><path fill="#825043" stroke="#825043" stroke-width=".5" d="m88 11.1.4 1-6 8.4.2.3 14.6-8.2q.8-.6.8-1.7 9.1.5 18.4.3a47 47 0 0 0-10.3 9.6q-1.8.2-2.7 1.7c.6 1.3 2.5-.9 2.7-1.7 2.6-.3 15.7-8 16.7-9.5q8.7-.4 17.5-.2-2.9 3-6.4 5.3-.6.6-.9 1.5a3 3 0 0 0-2.9 1.7c1 .9 2.7-.7 3-1.7a41 41 0 0 0 11.7-6.6c5-.4 12.6-.5 17.5 0l-6.8 4.8q-.5 1 .7 1 4.8-3 9.7-5.8 8.2-.4 16.3-.1-2.3 2.4-5.2 4.3-.8.7-.7 1.9l-1.5-.4c-.8.8-2.9 1.6-2.7 3a2 2 0 0 0-2 .7c.7 1 1.9 0 2-.8q1.8-.4 3-1.6l1.2-.6c1.6-1.1 10.1-5.2 10.4-6.5l17.6-.2q-5.1 4.4-10.4 8.4a2 2 0 0 0-.6 2l-1.5-.3A5 5 0 0 0 189 24q-1.2-.3-2 .7c.6 1 1.8 0 2-.7q1.7-.5 3-1.6l1.2-.7q8.6-4.7 17-9.8.4-.3.3-.8h17.7l-24 21.2q.7.6 1.7.3 16.5-9.8 33-19.3c.5-.6 2.9-1.2 2.7-2.2h17.6l-8.2 6.4-1 1.2q-2 .3-3 2c.8 1 3.1-.7 3-2q1 0 1.9-.3 5.7-3 11.3-6.5.4-.3.4-.8h34.6L280 28.3q-.7.6-.6 1.5-1 0-2 .8l-5 4.7q.8.4 1.7 0c1.2-1.4 6-2.8 5.8-4.6 2.7.5 27.6-15 32-17.4.4-.5 2.5-1.2 1.9-2.2q17.8-.3 35.7 0-12.6 11-25 22.2c1.3 1.4 3.2-1.4 4.6-1.9l31.7-18.2a3 3 0 0 0 2-2.2q8.8-.2 17.5.3l-.5.7q-12 11.3-24.4 22.3.9.5 1.8 0a1838 1838 0 0 1 35.9-21q1.5-.8 2.8-2c4.9-.4 12.7-1 17.3-.2Q401.7 22 390 32.5q-1 .6-.3 1.4a1030 1030 0 0 0 35.2-20.3q1.2 0 2-1 5.4 2.3 8.1 7.4-.9.3-1.6 1l-15.3 14.6c.5 1.2 1.9-.1 2-.9 2.3-.2 13.7-7.6 16.6-9a58 58 0 0 1-1.5 27.6c-2.6-.3-4.4 1.7-6.6 2.8q-.3.4-.2 1H411l.2-.9 9.5-10.5q-.9-.4-1.7 0l-17 9.9q-.7.4-.7 1.3c-3.3.1-15 1-17.3-.5.6-1.2 4-3.4 3.7-4.6q1 0 1-1.2.9.2 1.3-.7 3.6-2.5 6.5-5.8.3-.8.2-1.7 1.2-.3 2.3-1l6.6-6a2 2 0 0 0-1.6.1L367.9 57l-16.9.2q0-.7.6-1.2c.6-.6 8.3-6 4.5-6.1q2.4-1.8 5-3.3c2-1.6 13-9.8 13-11.8q1.5.3 1.7-1.2c-.6-.8-1.8.4-1.7 1.2-11.7 5.4-25.4 14.5-37 20.8q-1 .4-1.3 1.5c-3 0-14.9.7-16.8-.7q2.2-2 4-4.1 10.6-9 20.7-18.8-.8-.6-1.7.2-18.7 11.2-37.8 22.1l-1.3 1.2c-4.4.2-12.8.4-16.8-.2V56c7.2-6.7 15.7-12.7 22.2-20.3 1 .3 2.5-.6 2.2-1.8-1 0-2.7.6-2.2 1.8-11.4 5.2-26.2 14.6-37.4 21-5.2.2-29.8 1.3-33-.6 7-6.7 13.4-13.7 21-19.7a4 4 0 0 0 1.2-2 2 2 0 0 0-2.1.1q-19.2 11-38 22.4c-6.8 0-27.7.7-33-.7q4.8-4 9.8-7.8-.9-.6-1.8-.2L181 57c-4.1.2-12.3 1-16-.6Q175 47 185.4 38q.6-.5 0-1-.7-.2-1.5.4-16.8 10-34 19.5c-1.6.3-14.6.9-16-.5 2.2-2.4 11.2-8.3 12.2-10.5 1 .1 3.7-.5 2.5-1.9q-2-.2-2.5 1.9c-3.9 1.1-15.7 8.7-20.2 11-1.5.3-14.5.8-16-.5l6-4.8q.9-.7 1.3-1.6c.9.4 3.5-1 2.4-1.9q-2 .1-2.4 2-1.2 0-2.2.5l-10.2 5.8q-1.3.3-2.1 1.3-6.7.3-13.3-.7-1 0-1.2-1 1-.3 1.6-1.2l1.8-.6 4.3-3.6c-1-1-3.9 1.7-5 2q-1 .6-1.3 1.7a5 5 0 0 0-3.7 1.5C70.4 50.4 68 11.6 88 11.1Zm11.3 445.3q8.4.8 16.8.8l-4.7 3.8q-.4.6.1 1a92 92 0 0 0 8.1-4.7c-.3-1-1.9-.5-2.7-.4 1.8-.9 18.4-.1 20.1.8-.9 1-3 2-3.2 3.3q-2 0-2.7 1.7c.6 1.1 3.2-.6 2.7-1.7 1.8.1 6.6-2.6 7.5-4 3.3-.2 15.5-1 17.7.6q-8.5 8.3-17.2 16.3-2 1.6-3.4 3.6c.7 1 5.9-2.1 6.5-3.3 3.2-1.5 4.8-4 8.6-4.6 1.3-2.5 4.7-3.5 7.3-4.3 3-3.2 8.9-4.9 12.5-7.6q1 .6 1.5-.5c12.2-.5 24-1 36.2 0a93 93 0 0 1-12 9.2q-1.7 1.4.4 1.2a9 9 0 0 0 3.6-2.3q7.2-3.9 14-8.3a60 60 0 0 1 17 .6q-4.8 4.2-10.1 7.8-1.7 1.5.4 1.2l13.7-8q1-.6 2.3-.8.8-1 2-1.3c5 .6 30.9-.6 33.7.9q.4.6.3 1.3-1.9.7-3.6 1.6c-1.8 2.7-4.6 3.8-7 5.9q-1.5 1.7.7 1.4c4.9-3.2 13.5-7.1 17.6-10.7 4.2-.2 14.6-.4 18 .3l-8.2 7.4-1.3 1.2-11.1 9.5q.7.6 1.7.2 4.4-3 9-5.5l.8-1c4-1.3 17-9 21.1-12 5-.4 13.4-.5 18.1.2-1 1-4.2 2.4-4.4 4q-1.7-.2-2.7 1.5c.7.6 3.2-.4 2.7-1.5a7 7 0 0 0 2.3-.7 25 25 0 0 0 4.8-3q-.5-.8-1.4-.9v-.2l19.6.9-13 11.1q-1 .7-1 2l-1.2-.2q-1 .2-1 1.2.9.7 1.4-.2l1-.5q12-6.7 23.7-13.6c5.3-1 28 0 35.2-.2-1.2 3.2-7.9 5.5-8.2 8.4q-2.3-.5-2.7 1.9-1 0-1.5 1l-3.7 2.3q-.7.3-.8 1 1.2.3 2.4-.5 2-1 3.3-2.7c.4-.2 2-.4 1.8-1.1q1-.2 1.3-1.2v-.7c2.9-.3 6.2-1.2 7.6-4 2.4 0 7.7-2.4 8.6-4.5 23.5-1.6 32.7 1.2 31.3 26.6-.4 6.7-1.3 13.8-9.2 15.3-8.5 0-26.1.6-33.5-.2l9.8-9q-1.5-.3-2.8.6-6.1 4-12.5 7.6-.8.5-1.1 1.3c-16.4-.3-37.6.6-53.4-.5l16.8-13.9c-1.6-.8-1.9 1-3.1 1.4q-10.4 5.7-20.5 11.6-.6.6-.7 1.4H290c-.2-1 1.3-1.1 2-1.7q8.7-7.5 17.7-14.7c-1.2-1.2-4.6 2.3-5.6 2.9q-11 6-21.8 12.3-.7.4-1 1-8.8.3-17.5.2c.6-1.9 3.8-3 5-4.7q1.6-.7 2.8-1.7-.2-.4-.7-.2a10 10 0 0 0-3.8 2.2c-1.5.8-6.3 2.8-6.9 4.4h-18.5l22-19.5c-1.9-.6-3.7 1.8-5.2 2.5-3.5 2-27.7 15.2-28.3 17h-18.5l15-12.4q-.9-.5-1.7-.2-10 6-20.3 11.7-.6.3-.4.8l-36.7.2q6-4.9 12.1-9.5-.7-.6-1.7-.3-6.8 4.4-14 8.4-.6.5-.7 1.4l-18.6-.1q4-3.6 8.2-6.8l1.9-2c.6-.3 3.7-1 2.7-2.2q-2.1.1-2.7 2.2-1.7.2-3.1 1.1l-12 6.8q-.6.2-.5.8c-8.9 0-28.7.5-36.4-.3 5.5-5.7 16.8-14.8 21-20.4.5-.5 3.7-1 2.7-2.1q-2.1 0-2.7 2.1c-5 1.3-28.3 16-34.8 19.4q-.7.4-.9 1.2c-20.4-2.2-17.4-43.9-1-41.5q-2.5 3.9-4.6 7.8-.8.5-1.2 1.3.4.6 1 .2l8.6-5.3c2.4-1.3 6.5-3 8.4-5ZM334.9 473q.7 0 1-.6-.8-.4-1 .6ZM80.8 490.4c.5 0 2.8-.6 1.7-1.5a2 2 0 0 0-1.7 1.5Z"/><path fill="#8c5d54" fill-opacity=".4" stroke="#8c5d54" stroke-opacity=".4" stroke-width=".5" d="m385.7 468.1 1.3.2q-1.5 1.6-3.4 2.7-1.2.8-2.4.5 0-.7.8-1z"/><path fill="#b5a7a2" fill-opacity=".3" stroke="#b5a7a2" stroke-opacity=".3" stroke-width=".5" d="M387.2 467.2h1.5c.2.8-1.4.9-1.7 1h-1.3q.4-1 1.5-1Z"/><path fill="#c1b8b7" d="M327.7 461.2c.5 1.1-2 2.1-2.6 1.5q.8-1.7 2.6-1.5"/><path fill="#825042" fill-opacity=".5" stroke="#825042" stroke-opacity=".5" stroke-width=".5" d="M172 20c0 .7-1.2 1.6-1.8.7a2 2 0 0 1 1.9-.8Z"/><path fill="#834f44" fill-opacity=".3" stroke="#834f44" stroke-opacity=".3" stroke-width=".5" d="M334.9 473q.2-1 1-.6-.3.6-1 .6Z"/><path fill="#c9c6c7" fill-opacity=".8" d="M390 465.3v.7q-.9.3-1.3 1.2h-1.5q.4-2.4 2.7-1.9"/><path fill="#c6c0c0" d="M133.8 461c.5 1.1-2 2.8-2.7 1.7q.8-1.7 2.7-1.7"/><path fill="#c0b8b7" d="M117.2 50q.4-1.9 2.4-2c1 .8-1.5 2.3-2.4 2"/><path fill="#bcb0af" fill-opacity=".9" d="M146.1 45.8q.4-2 2.5-1.9c1.2 1.4-1.5 2-2.5 1.9"/><path fill="#baacab" d="M308.3 35.9c-.5-1.3 1.3-1.8 2.2-1.9.3 1.2-1.2 2-2.3 1.9"/><path fill="#dce5ea" stroke="#dce5ea" stroke-width=".5" d="m275.2 62.2-1 1.3q-15.3 9.8-30.3 20-1.2.8.2 1.3c-.5.9-5.7 4.1-6.7 4-1-1-2.5.2-3.3 1q-14 .5-28.1 0c.6-1.7 3.5-2.3 5-3.3 1.3-1.7 1.8-3.9 4.2-4.5q0 1.2 1.1 1.1 16.4-9.3 32.7-18.8.6-.5.8-1.3 3.9-.7 7.8.4c5.9-1.3 11.5-1 17.6-1.2Zm61 0c-3.3 2.6-26.8 17.4-32.4 21.2-1 .4-1.4 2 0 2q0 .4-.4.6-3 .8-5.2 3.2 0-.9-.8-1-2.4 1.2-5.1 1.5c-3.5 0-24 .8-25.5-.6q4-1 7-3.6l2.1-.8a1964 1964 0 0 0 37.3-22c3.4-1 6 .2 9 .9 4.7-2 9.1-1.2 14-1.4Zm-73.3 359c.2 1.3 4.9 1.2 5.2 0h12.4q1.4-.2 2.4.6c-1.5.6-4 1.3-4.9 2.9q-1.5.3-3 1.4l-34 19.6q-1.5 1-2.8 2.2h-21.4q8.8-6 17.8-11.8 2.2-1.5 4.5-2.6.9-.4.8-1.4c1.6-.1 4.6-1.6 5.1-3.2 1 .4 4.2-.7 2.6-1.8q-1.7.2-2.6 1.8a8 8 0 0 0-5.1 3.2l-1.2.2-3.5 2.4q-1.1.6-2.2.8l-18.4 10.6a2 2 0 0 0-1.4 1.8h-62.4l37.3-24.4q.7-.7.7-1.5l57.3-.2zM200 442q-2 .3-3.2 2c-1 0-5.6 1.6-4.3 3.1 1 0 4-2 4.3-3.2q2.2.2 3.2-2c.4.3 2.7-.2 1.5-1q-1 .2-1.5 1Zm212 1.7c-.2 1 .3 3.4-.8 4q-3 .3-6.3 0l.3-.8c1.9-1.2 4.7-3.1 6.8-3.2Z"/><path fill="#a88051" d="M262.9 421.2a13 13 0 0 1 5.2 0c-.3 1.2-5 1.3-5.2 0"/><path fill="#664037" fill-opacity=".2" stroke="#664037" stroke-opacity=".2" stroke-width=".5" d="M162.3 11.3q1.8-.5 3.6 0-5 2.7-9.7 5.8-1.2 0-.7-1z"/><path fill="#4f5152" fill-opacity=".4" d="m219 250.2 1-.3q0 1.3.7 2.4l-1 .9a5 5 0 0 1-.7-3"/><path fill="#463430" fill-opacity=".5" stroke="#463430" stroke-opacity=".5" stroke-width=".5" d="M424.8 12.3q1.2-.4 2.1.3-.8 1-2 1z"/><path fill="#7c4d42" fill-opacity=".5" d="M69.3 13q-.7.7-1.6.6.7-.5 1.6-.6m-1.6.6q0 1-.7 1.7 0-1 .7-1.7"/><path fill="#272727" fill-opacity=".3" d="m117.4 353.2.9.3-1.4.3q0-.4.5-.6"/><path fill="#2c2c2c" fill-opacity=".3" stroke="#2c2c2c" stroke-opacity=".3" stroke-width=".5" d="M197.8 278q0 1-1 .7z"/><path fill="#724941" fill-opacity=".4" d="m380.2 11.4 1.1-.2q-.6.8-1.6.9z"/><path fill="#454747" fill-opacity=".5" d="M199.7 277.3q0 .6-.7.4z"/><path fill="#252525" fill-opacity=".4" d="m389.6 93.9.4 1.2q-1.2-.3-.4-1.2"/><path fill="#384040" fill-opacity=".1" stroke="#384040" stroke-opacity=".1" stroke-width=".5" d="M399 148.1q-.3 1-1 1.1 0-1 1-1Z"/></svg>