<svg xmlns="http://www.w3.org/2000/svg" style="shape-rendering:geometricPrecision;text-rendering:geometricPrecision;image-rendering:optimizeQuality;fill-rule:evenodd;clip-rule:evenodd" viewBox="0 0 512 512"><path fill="#bfc2e0" stroke="#bfc2e0" stroke-width=".5" d="M299 67h1c1.5 2.3.8 8.4 1 11.2-2.9-.4-18.5 14.2-23.1 16a21 21 0 0 0-8.2-9.4 1 1 0 0 1-.4-.8q1 0 1.7-.8z"/><path fill="#e3e3fa" fill-opacity=".2" d="M436.2 139.4q-.4.4-1.2.6.2-1 1.2-.6m36.1 21.9-1.2.7q0-1.1 1.2-.7m-115 1-1.2.8q0-1 1.2-.8m123.6 4.6q0 1-1.2.8zm-233.8 8.2 1-.3q-.1 1.2-1.4 1.2zm220.8-.2q0 1.1-1.2.8zm-136.6 2.4-1.2.8q.2-1 1.2-.8m97.6 1.6q0 1-1.2.8zm26 4q0 1.1-1.2.8zm-13 8q-.2 1-1.2.8zm-304.7 4-.2 1.1c-2.1.9-5.8 4.2-8 4l1-1.3c2.1-1 4.8-4 7.2-3.8m347.7 2q0 1-1.2.8zm-56 2q0 1.1-1.2.8zm-13 8q0 1.1-1.2.8zm12.4 27.4-1.2.8q.2-1.1 1.2-.8M93 260.9q0 1.1-1.2.8zm404.3 2v.8q-.6 0-1.1.3.2-.8 1.1-1m-414 7.4-1.1.8q.1-1 1.2-.8M146 277q-.7 1-1.6 1.7l-10.8 6.5-2.2 1.7-.3-1.4 1.5-1.4 12.1-7zm308 4.8q-.3 1-1.3.8zm-395.7 4.4-1.2.8q0-1.1 1.2-.8m-36.4 15.6q0 1-1.2.8zm452.8 36.3.4.9a22 22 0 0 1-5.1 3.4q-1 .5-2 .5c.8-1.9 5-3.8 6.7-4.9m17.3 3a7 7 0 0 1-5 3 7 7 0 0 1 5-3M92 371q-.3 1.1-1.3.7zm-71 41q-.3 1-1.3.7zm201 1q-.3 1-1.3.7zm-194.7 4.3-1.2.8q0-1 1.2-.8m156 6-1.2.8q0-1.1 1.2-.8m27 3-1.2.8q0-1 1.2-.8m78.8 4.7q-.9 1.5-2.4 2.3L274 441q-.1-1.2-1.3-1.3l14.2-8.2q1-.5 2-.6m-179 10c-1.1 1.7-3.2 3.1-5.1 3a7 7 0 0 1 5-3m26.2 11.3-1.2.8q0-1.1 1.2-.8m312 3.8q0 .4-.3.8l-1.1.4q.3-1.2 1.5-1.2"/><path fill="#e1e1fa" fill-opacity=".3" d="M467 144c-.7 2-8.1 5.1-10 6.7q-1 .4-2 .3.2-.8 1-1.3l9-5.3q1-.6 2-.4m-13.7 28.3q-.6.5-1.3.7.3-1 1.3-.7m-115 1q-.6.5-1.3.7.3-1 1.3-.7M191 178.9c-.3 1.8-3.2 3.1-4.9 3 .4-1.3 3.4-3 4.9-3m58.2 15a8 8 0 0 1-5.1 3.2q1.8-2.9 5-3.1m35.9 7q-.3 1.1-1.3.7zm-8 5q-.3 1-1.3.7zm213.8 15 .4 1.2-12.1 7.5a4 4 0 0 1-2.1.2q.3-.7 1-1.2 6.5-3.7 12.8-7.7M453 232a7 7 0 0 1-5 3 7 7 0 0 1 5-3m25.3 42.3q-.6.5-1.3.7.3-1 1.3-.7m-13.3.7q-.3 1-1.3.7zM16 290h.9q-.3.8-1.2 1zm24.9 1q-.3 1-1.3.8zm3.3 4.3-1.2.8q.2-1 1.2-.8M210 323a7 7 0 0 1-5 3c.7-1.6 3.3-2.9 5-3m262.8 3.1.2 1c-.4 1-5.8 4.1-7 4 .4-1.9 5.3-3.9 6.8-5M39 379.1q-.5 1.1-1.8.9.5-1.2 1.8-1m189.2 15.8a3 3 0 0 1-3 2.1q.9-1.9 3-2m12.9 7q-.3 1-1.3.9zm69.1 30.2a8 8 0 0 1-5.2 3c.9-1.7 3.3-3.2 5.2-3m-110.8 1.2-1.2.8q0-1 1.2-.8M312 444a8 8 0 0 1-5 3c.8-1.7 3.2-3.2 5-3m-173 2q-.2 1-1.3.8zm55.3 8.3-1.2.8q0-1.1 1.2-.8"/><path fill="#e1e1f9" fill-opacity=".4" d="M437 138.1q.5 0 1.1.3l-1 .3zm37 13q-.3 1-1.3.8zm-24 3a8 8 0 0 1-5 3c.8-1.6 3.2-3.1 5-3m31.3 2-1.2.6q.3-.7 1.2-.6m-122 4.9q-.4.6-1.1.7.2-.8 1-.7m93.6 3.3q-.3.8-1.2.6zm31.1.9q-.3 1-1.4.8zm3.3 5.8-1.2.8q.2-1 1.2-.8m-16.2 2.2q-.5.7-1.4.7.6-.6 1.4-.7M333.2 176l-1 .8q0-1 1-.8m124.9 5.3q-.6.8-1.5.6zM12 184l1.1.3q-.5.6-1.3.9zm171 0c-.2.9-1.4 1.7-2 .7a2 2 0 0 1 2-.7m131.3 3.2q-.6.4-1.4.6.5-.7 1.4-.6m-18.2 7q-.5 1-1.4.8zm-52.1 3a7 7 0 0 1-5 2.9c.8-1.6 3.2-3 5-3m188.1.2q-.5.8-1.4.7.6-.5 1.4-.7m-143.9 2q-.6.7-1.6.6zm-8 5q-.6.6-1.5.7zm138.8.9q-.4.8-1.4.8zm51.2 1q-.5.8-1.4.7a3 3 0 0 1 1.4-.7m-423.3 3a3 3 0 0 1 2.7-2.2c1.2 1.1-2 1.8-2.7 2.2m225 0q-.3.8-1.2.7zm134.1 4.1q-.3.8-1.2.7.4-.6 1.2-.7m50.2 4.8-1.1.7q.3-.9 1.1-.7M430.4 233q-.6.5-1.3.7.3-.8 1.3-.7m10.6 6c-.6 1.4-3.5 3.3-5 3q2-2.2 5-3M91 262.2q-.4.9-1.3.7zm388.2 4.1a2 2 0 0 1-1.5.7q.7-.6 1.5-.7M151 274q-.8 2-3 2.2.7-2 3-2.2m147 6q-.5 1.5-2 1.2.5-1.4 2-1.2M52.2 290l-1.4.6q.5-.7 1.4-.6m173.8 4q-.5 1.1-2 .9c-.2-1.1 1.3-1 2-1M19.7 303q0 .9-1 .7zm408.5-.2q-.6.6-1.3.7.4-.7 1.3-.7m-20.2 8.4-1 .7q.2-.7 1-.7M90 372.4q-.4.8-1.4.6.6-.5 1.4-.7M44 376a8 8 0 0 1-5.1 3c.8-1.6 3.3-3.3 5-3m87 11a7 7 0 0 1-5 2.9 8 8 0 0 1 5-3m104 3.8q-.5 1.3-2 1a2 2 0 0 1 2-1m32 15.3q-.2.9-1.2.6.6-.4 1.3-.6m-248.2 7q-.2.9-1.1.7zm201.1 1q0 1-1.2.7zm-31 3q-.3 1-1.3.7zm52 4.1q-.2.8-1.1.7.4-.4 1.2-.7m-60.6 3.7q-.7.5-1.5.7.6-.7 1.5-.7m113.8 3q-1 1.9-3 2 .8-2 3-2m86.8 13q.6-1 1.6-1c1.1.7-1.1 1.2-1.6 1m-63.8 0q-.8 1.2-2.2 1a2 2 0 0 1 2.2-1m-131.8 1q-.7.7-1.5.7.7-.6 1.5-.6"/><path fill="#e1e1f8" fill-opacity=".3" d="M471.4 133h-3.7c.5-1.5 3.2-1.3 3.7 0M358 141.3l1-.4q0 1.2-1.3 1.2zm69 2.8c-.2 1.6-3.5 3-5 3 .7-1.6 3.4-3 5-3m52 4q-.3 1.1-1.3.7zm-80 1c-.3 1.7-3.5 2.8-5 3 .5-1.6 3.4-3 5-3m-27.7 5.3-1.2.7q0-1 1.2-.7m53.6 2.7c-.4 1.6-5.4 4.1-7 4 .5-1.2 5.7-4.2 7-4m-76 4q-.1 1-1.1.8zm109.1 0q-.3 1-1.2.8zm-117 5q-.3 1-1.2.8zm-8 5q-.3 1-1.2.7zm-192 3c-.3 1.7-3.6 2.7-5 3 .8-1.6 3.2-3.2 5-3m293.3 9.3-1.2.7q0-1.1 1.2-.7m-115 1-1.3.7q.3-1.1 1.3-.7m128 10-1.3.7q.3-1.1 1.3-.7m-154 5q-.6.5-1.3.7.3-1 1.3-.7m128 10q-.6.5-1.3.7.3-1 1.3-.7M421 236q-.1 1.2-1.2.8zM94.3 263.3l-1.2.7q0-1.1 1.2-.7M476 268q-.1 1-1.2.8zm9.3 2.3-1.3.7q.3-1 1.3-.8M60 280q-.3 1-1.3.7zm386 7q-.2 1.1-1.3.7zm-5.7 9.3-1.3.8q.3-1 1.3-.8m-410 8-1.2.7q0-1 1.2-.7m65 71q-.6.5-1.2.7 0-1 1.2-.7M485 383c-.3 1.6-1.9 1.6-3 2q.8-2.1 3-2m-410.7 5.3-1.3.7q.1-1.1 1.2-.7M260 391q-.1 1-1.2.8zM33 405q-.2 1-1.2.8zm223.3 10.3-1.2.7q0-1 1.2-.7m-38 6-1.3.7q.3-1 1.3-.8M236 424q-.3 1-1.3.8zm-6.7 8.3-1.2.7q.2-1 1.2-.7M158 435q-.2 1-1.2.8zm-43 3c-.3 1.7-3.5 2.9-5 3 .5-1.5 3.4-2.8 5-3m95 1q-.3 1-1.3.7zm-21.7 1.3-1.2.7q0-1 1.2-.7m192.6.7c-.2 1.6-2 1.6-3.2 2a3 3 0 0 1 3.2-2m-218 6q0 1-1.2.8zm163 1q-.5 1.3-2 1 .5-1.2 2-1m-123.6 1.3-1.2.7q0-1.1 1.2-.7M184 454q-.3 1-1.3.7z"/><path fill="#e1e1f9" fill-opacity=".4" d="M190.2 132.8q-1.6.3-3.3 0c.4-1.3 2.8-1 3.3 0m263 6.2q-.6.8-1.5.9zm-31.1 8c-.4 1.7-3.7 2.8-5.2 3 .7-1.6 3.5-3 5.2-3m-43.9 3q-.3.7-1 .8 0-.9 1-.8m15.9 2c-.6 1.7-3.5 2.7-5 3 .3-1.5 3.5-3.1 5-3m72.2 4.3q-.7.7-1.6.7a3 3 0 0 1 1.6-.7m8 3.7q-.4.6-1.2.7.3-.7 1.2-.7m-56.4 1c-.1 1.4-3.7 3.2-5 3 .2-1.2 3.9-2.8 5-3m62.4 14q-.4.7-1.2.7.3-.7 1.2-.6m-51 11q-.6.6-1.3.7.4-.7 1.3-.6m20.4 0q0 1-1.1 1zm11.6.1-1.1.6q.3-.7 1-.6m-65 19q-.6.7-1.5.7.6-.8 1.6-.7m13 11q-.4.6-1.2.7.1-.9 1.2-.7m40 6q-.3.5-1.2.6.4-.7 1.3-.7m-15.2 6q-.4 1-1.5 1 .7-.6 1.5-1m-355.5 41q.2 1-1 .9zm-6.6 4q-.4 1-1.3.8zm395.7 0q0 1-1 1zm-401.5 8-1 .8q0-1 1-.9m355 25.9q-.4.6-1.2.7.3-.7 1.2-.7M215 320c-.4 1.4-3.6 3-5 3 .5-1.5 3.5-2.8 5-3m253 23c-.4 1.6-3.5 3-5 3 0-1.3 3.8-3.1 5-3m24 10q-.6 1.2-2 1.1.6-1.2 2-1.1M71 383.3q-.5.8-1.2.6a2 2 0 0 1 1.1-.6m8.4 1.7-1.3.8q.3-1 1.3-.8m188 5-1.1 1q0-1.2 1-1M35 393q-.6 1.3-2 1 .6-1.2 2-1m31.3.1-1 .8q-.2-1 1-.8m190 4q-.7.6-1.6.7.7-.7 1.6-.7m-211 9q-.7.5-1.5.7.5-.9 1.4-.7m156 5.9-1.5.7q.4-.9 1.5-.7m-5.5 1.3q-.2.8-1 .6zm51.9 4q-.3.8-1.2.7zM24.4 419l-1.6.7q.6-.9 1.6-.7m190.9 4-1.5.6q.5-.7 1.5-.6m-38 1.1q-.7.7-1.7.7a4 4 0 0 1 1.7-.7m23.7 1.1q-.5.7-1.4.7zm-79 8.7c0 1.3-3.9 2.7-5 3 .2-1.4 3.8-3.2 5-3m74.3 1-1 1q0-1 1-1m270 5-.4-1.3c.4-1 1.9-1.8 2.8-1.2q-.9 1.5-2.4 2.4"/><path fill="#e1e1f9" fill-opacity=".5" d="M392.3 142q-.6.6-1.3.8.3-.8 1.3-.8m-16.3 2.2q-.3.8-1.4.8zm-8.1 5q-.3.8-1.2.8.4-.5 1.2-.8M389 155c-.8 1.5-3.5 2.9-5.1 3q2-2.5 5-3m-22.7 2q-.6.6-1.3.7.3-.8 1.3-.7m76.7 1a3 3 0 0 1-3.1 2 4 4 0 0 1 3-2m-30.1 6c-.4 1.3-3.8 3.2-5.1 3 1.1-1.4 3.3-3 5-3m81.4 3q-.6.5-1.3.8.4-.9 1.3-.7m-54.5 5.3q-.3.7-1.2.6zM136.1 177q-.6 1.2-1.7 1.7-2.4.4-.5-1.2a6 6 0 0 1 2.2-.5m332.2 5q-.4.7-1.2.7.3-.9 1.2-.7M205 186c-.6 1.5-2.7 2.1-3.9 3q-1.5.5-.8-1c1.5-.6 2.8-2 4.7-2m99.2 3.2q-.7.7-1.7.8.7-.7 1.7-.8m140.8 0q-.6.8-1.5.8zm19.8 20q-.2 1-1.2.8zM269.2 213l-1 .7q0-1 1-.7m194 1-1.3.7q.4-.9 1.3-.7m-25.9 15q-.6.5-1.3.6.4-.7 1.3-.6M84.1 266.3q-.5.7-1.5.7.7-.6 1.5-.7m403.2 2.8q-.6.4-1.3.6.4-.7 1.3-.6M271 276.9q-.8 2-3 2 .9-1.8 3-2m189 1.3q-.3.9-1.3.7zM63.3 283l-1.3.8q.3-1 1.3-.8m386 2.4q-.7.5-1.7.5.7-.6 1.7-.5M82.9 376.2q-.2 1-1.2.8zm9.4.8-1 .7q0-.8 1-.7M35 393c.3-1.2 4.1-3.8 4.8-2.7-1 1.1-3.4 2.5-4.9 2.7m225 17.3q-.6.6-1.4.6.6-.4 1.3-.6m1.2 1.8-1.1.7q.1-.9 1.1-.7m-48.4 6q-.3.9-1.2.8zm-31 3.2q-.3.8-1.3.6.6-.5 1.4-.6m52 3.9q-.2.8-1.1.8zm60.2 2.8q.3-1 1.4-1.1c1.2.7-.9 1.3-1.4 1m-100.2 1.3q-.3.8-1.3.6.6-.5 1.3-.6m40.4-.2-1.3.6q.3-.7 1.3-.6m-30 1q-.6.5-1.4.6.5-.7 1.4-.6m-77.4 1c-.2.9-3.8 3.2-4.9 3 .4-1.3 3.7-3.3 5-3m60 2.2q-.2.8-1.1.7.5-.6 1.1-.7m-27.7 4.8-1 .7q0-.9 1-.7m200 18-.2.8-1.3.2q.5-1 1.6-1"/><path fill="#e1e1f9" fill-opacity=".4" d="M415 151c-.6 1.4-3.5 3.3-5 2.9q2-2.1 5-3m-31 7q-.7 1.2-2 1 .5-1.2 2-1m-40 6.3q-.5.8-1.4.6.6-.4 1.4-.6m-8 5q-.4.6-1.2.6.5-.6 1.3-.7m119.3 1.8-1.2.7q.3-.9 1.2-.7m-115 .9-1.3.8q.3-.9 1.2-.8m-12.2 2.2q-.5 1-1.4.8.6-.6 1.4-.8m90.9 11.1q-.4.7-1.3.6a2 2 0 0 1 1.3-.6m23.3 11.7q-.6.6-1.3.7.3-.9 1.3-.7M129 200c-.4 1-2.1 2.8-3.1 1.6.2-1.2 2.1-1.2 3-1.6m110 0c0 .8-1.4 1.7-2 .7q.8-.9 2-.7m-141.3 9.2q.8-.2 1.2.3-.8.7-1.2-.3m349.3 11q-.4.8-1.3.8zm-18.3 11q-.2.9-1.2.7zM472 233c-.4 1.6-5.6 4-7 4 .7-1.2 5.6-4 7-4m18.2 26.3q-.5.7-1.3.7a2 2 0 0 1 1.3-.7M151 274q.5-1 1.5-1c1.2.8-1 1.3-1.5 1m329.2-.8a2 2 0 0 1-1.2.5q.4-.6 1.2-.5M39 292.3q-.4.8-1.3.6zm-.7 6.7q-.7.6-1.4.8.4-.8 1.4-.8m380.8 5.2q-.4.8-1.4.7.6-.5 1.4-.7m41.8 29.7c.2.8-1.1 1.8-1.7.9a2 2 0 0 1 1.8-1M34 359a4 4 0 0 1-3 2q1-2 3-2m79.4 5-1.3.7q.4-.8 1.3-.7M28 374c-.3 1-3.8 3.1-5 3 .5-1.4 3.7-3.2 5-3m447 2q-1.2 1.7-3.1 2c1-1 1.4-2.4 3.1-2m-210 12.2q-.4.8-1.2.8zM38 402.3q-.3.8-1.2.7.4-.6 1.2-.7m201 1q-.4.7-1.3.7.6-.5 1.3-.7m6.3.7q-.7.6-1.6.8.7-.8 1.6-.8m-208 7q-.6.6-1.3.7.4-.7 1.3-.7m156 6.1-1.1.7q.1-.9 1.1-.7m264.7 1a3 3 0 0 1-2.5 2c-1-1.3 1.9-1.9 2.5-2M329 446a4 4 0 0 1-3 2q.7-2 3-2m-192 1.2q-.3.9-1.4.7zm37.3 2-1.2.5q.4-.7 1.2-.6m14.6 2q-.3 1-1.2.8.6-.6 1.2-.7"/><path fill="#e1e1f9" fill-opacity=".4" d="M164 132.7q-1.6.4-3.3 0c.5-1 3.5-1 3.4 0m-3.8.3-.2 1-1.3.1q.5-1 1.5-1M445 157q-.5 1.3-1.8 1 .5-1 1.8-1m-134 14c-.3 1.5-5.6 4.2-7 4 .3-1 5.8-4.2 7-4m100.1 19.2q-.4.8-1.3.8zm11.2-.1q-.6.6-1.4.7.5-.9 1.4-.7m-115 .9q-.6.5-1.2.7.2-.8 1.2-.7m128 10q-.6.6-1.3.8.3-.8 1.3-.7m-154 5.1q-.5.6-1.4.7.4-.9 1.5-.7m194 .9a2 2 0 0 1-1.3.7q.4-.7 1.3-.7m-23.2 10.2q-.5.8-1.4.8.6-.6 1.4-.8M91.3 265.1l-1.5.7a2 2 0 0 1 1.5-.7m9.7 10a3 3 0 0 1-3 1.9q.9-2 3-2m202 2c-.3 1.3-3.7 3-5 2.8.9-1.5 3.3-3 5-2.8m135 15.3q-.5.8-1.4.7.6-.5 1.4-.7m9.1-.3q-.4.7-1.2.7.3-.7 1.2-.7M224 295q-.8 2-3.2 2 1-2 3.2-2M27.3 306q-.6.6-1.4.7.5-.7 1.4-.7M217 319q-.6 1.3-2 1 .6-1.3 2-1m249 12c-.3 1.3-3.7 3-5 2.8 1-1.4 3.3-3.1 5-2.8m-333 54.8q-.6 1.4-2 1.2.6-1.2 2-1.2m100 6q-.7 2.2-3 2 .9-1.8 3-2M33 394c-.3 1.4-2 1.4-3 2q.7-2.3 3-2m12 4q-.4 1-1.3.8.6-.5 1.3-.7m181.3 18q-.6.5-1.4.6.4-.7 1.4-.7m19 6-1.4.7q.4-.8 1.4-.8m-75.2 6.2q-.6.6-1.5.6zm145 .8q-.7 1.1-2.1.9.7-1.2 2-1m-93 3.2q-.5.8-1.4.6.6-.5 1.3-.6m-54.9.8-1.3.7q.3-.9 1.3-.7m51.1 5.9a3 3 0 0 1-1.5.8q.5-.8 1.5-.8m-43.2 1.3q-.6.8-1.4.6.6-.5 1.4-.6m20.8 6.9q-.3.8-1.3.7.7-.5 1.3-.7m-4.5 8.8-.5 1-1.3.1q.6-1 1.8-1"/><path fill="#e1e1f9" fill-opacity=".3" d="M333.2 133q-1.7.4-3.4.1.3-1.2 1.7-1.1t1.7 1m26.2.1h-3.6c.2-1.7 3.2-1.5 3.6 0m95.6 18c-.3 1.6-3.6 2.7-5 3 .5-1.7 3.4-3 5-3m31.3 2q-.4.6-1 .9 0-1 1-.9M356.7 156q0 1-1 1zM104 164.9c0 1.2-2 2.7-2.8 1.7q.9-1.5 2.8-1.7m82 17c0 1.6-1.9 1.6-3 2q.8-2 3-2m237.8.1q0 1-1 1zm-8.4 12-1.1 1q0-1 1.1-1m13 11.1-1.4.6q.4-.7 1.3-.6m-154 5q-.5.6-1.2 1 0-1.3 1.2-1m194 1-1 .9q-.2-1.1 1-.9m-11.7 3q0 1-1.1.8zm-8.8 21c-.2 1.5-3.6 2.7-5 3 .7-1.6 3.4-3.1 5-3M80.4 272l-1.2 1q0-1 1.2-1m195.6 2c0 1.5-2 1.6-3 2q.7-2 3-2M31 361q-.5 1.2-2 1a2 2 0 0 1 2-1m-10 17c.3 1.3-2.1 2.5-3 1.6q1-1.6 3-1.6m30.6 16q0 1-1 .8zM28 397c-.2 1.3-4.3 4-5 2.8.6-1.3 3.7-2.6 5-2.7M264.4 410l-1 1q0-1 1-1m-232 4-1.1 1q0-1 1-1m204.9 13-1.1 1q0-1 1-1m-8.6 1.2q0 1-1 .8zM313 430q-.6 2-2.9 2 .7-2 2.9-2m-131.3 6q0 1-1 .9zm-40.3 13-1 .8q0-1 1-.8"/><path fill="#e0e0fa" fill-opacity=".3" d="m407.9 143 .2 1.1a51 51 0 0 1-7 4.5 4 4 0 0 1-2.1.5c.7-1.8 7-4.9 8.9-6m22.2 11a7 7 0 0 1-5.2 3q2-2.7 5.2-3M68.2 262l-.1-1.1q1.5-1.6 3.6-2.7c.7-.2 1.7-1 2 .1a25 25 0 0 1-5.5 3.6M121 393q-.2.8-.9 1.2l-11 6.8-.3-1q2.5-2.5 5.7-4c2-.6 4.6-3.2 6.5-3m104.2 4a5 5 0 0 1-1.7 1.6q-3.5 2.4-7.2 4.3l-.1-1q0-.5.5-.8c2-.9 6.3-4.4 8.5-4.1"/><path fill="#e0e0fa" fill-opacity=".2" d="m468.7 142 .4 1.1q-.9.7-2 1 .4-1.4 1.6-2m-92.4 9.3-1.2.8q0-1.2 1.2-.8m44 40-1.2.8q0-1.1 1.2-.8m-115 1-1.2.8q.2-1 1.2-.8m128 10-1.2.8q.2-1 1.2-.8m-154 5-1.2.8q.2-1 1.2-.8m187.6.6q0 1.1-1.2.8zm6.4.4-1.2.8q.2-1 1.2-.8m-66 9-1.2.8q0-1 1.2-.8m41.6 1.6q0 1.2-1.2.8zm13 7.2.2 1.1c-1.8 1.3-7 5-9 4.8.5-1.7 7-4.8 8.7-6M97.2 261.3l-1.2.8q0-1.1 1.2-.8m-25 16-1.2.8q0-1 1.2-.8m399 1-1.2.8q0-1 1.2-.8M48 286.9q-.2 1-1.2.8zm395 2q0 1-1.2.8zm2.4 4.4-1.2.8q.2-1 1.2-.8m-412 9-1.2.8q.2-1 1.2-.8m379.6 5.6q0 1-1.2.8zM205.1 326c-1.4 2.3-5 3.3-7 5l-.2-1.4c1.8-1.1 5-3.8 7.2-3.6M69.3 391.3l-1.2.8q0-1.1 1.2-.8m182 9-1.2.8q0-1.1 1.2-.8m-203 4-1.2.8q0-1 1.2-.8m219 4-1.2.7q0-1.2 1.2-.7M203 423.9q0 1.1-1.2.8zm-31 3q-.2 1-1.2.8zm52 4q-.2 1-1.2.8zm-47 8q0 1-1.2.8zm3.4 6.4-1.2.8q.1-1 1.2-.8m17.6.7q-.2 1-1.2.7.6-.5 1.2-.7m-47 8q0 1-1.2.7z"/><path fill="#e1e1f9" fill-opacity=".5" d="m71.8 139.2.5.5c-.2.6-1.5 2-2 1q.7-.9 1.5-1.5M330 142l1.3-.1q-.5 1-1.5 1zm-206.8 27q-.7 1.2-1.8 1.8-2.5.3-.5-1.1 1-.6 2.3-.7m180.8 6q-.8 2.1-3 2.1a4 4 0 0 1 3-2m17.4 8.1-1.4.7q.5-.7 1.4-.7M42.9 196a3 3 0 0 1 1.7-1.6q2.5-.5.6 1.3-1.2.3-2.3.3m393 46q-.6 2-3 1.9a3 3 0 0 1 3-1.9m-167.8 37c-.4.6-1.4 1.7-2 .7q.6-1.1 2-.7M220 317a3 3 0 0 1-3 2q.9-2 3-2m262 30c-.5 1-2 2.6-3 1.6a3 3 0 0 1 3-1.5M49 373c-.7 1.6-3.4 2.9-5 3 1-1.4 3.1-3.1 5-3m84 12.9c.5-1 4.1-3.7 4.9-2.6a8 8 0 0 1-5 2.6m125 6.4q-.4.7-1.3.7.5-.6 1.3-.7m-227 14q-.5.8-1.4.6.7-.5 1.4-.6M367 436a3 3 0 0 1 2.6-2c1.5.9-2 1.8-2.5 2m-38 10c.1-.7 1.3-1.6 1.9-.7q-.7.9-1.8.7"/><path fill="#d2d2e7" fill-opacity=".2" d="M451.7 139.9q.1 1.5 1.6 1.4a404 404 0 0 0-21.3 12.3q-.9.5-1.9.4a3 3 0 0 1 1.5-1.7l17.6-10.5zM214.7 402l.2 1.1c-1 1.8-4.8 3.3-6.6 4.6a2 2 0 0 0-1.4-1z"/><path fill="#e2e2f9" fill-opacity=".3" d="M316 168a7 7 0 0 1-5 3 7 7 0 0 1 5-3m-105.9 14.9a7 7 0 0 1-5 3.1c.8-1.8 3.1-3 5-3.1M43 196c-.7 1.7-3.2 2.7-4.6 3.9l-.4-1.2q2.2-2 5-2.7m260 81c.7-1.6 3.2-2.7 4.7-3.1 1.4 1.2-3.6 3.2-4.6 3.2m-154.8-1q-.7 1.2-2.1 1 .5-1.3 2-1M24 365c-.7 1-4.4 4.2-5.1 2.7.6-1.2 3.6-2.8 5-2.7M230 394q-.6 1-2 1 .6-1.2 2-1m61.1 36a2 2 0 0 1-2 1q.5-1.2 2-1M117 437q-.8 1.2-2 1a2 2 0 0 1 2-1"/><path fill="#c5c5d7" fill-opacity=".2" d="M111.6 159.3q.2 1 1.1 1.3c-1.7 1-6.8 4.6-8.7 4.3 1.3-1.9 5.6-4.3 7.6-5.7m363.7 59.4q-.2 1.3-1.2 1.9l-10.8 6.2-.1-1q.6-1 1.4-1.5c2.7-1.3 8-5.6 10.7-5.6"/><path fill="#e0e0f9" fill-opacity=".3" d="m315.2 141.4-1.3.7q.2-1.1 1.3-.7m65.8-.4q-.3 1.1-1.3.7zm-8 5q-.2 1.1-1.3.7zm116 16q-.3 1-1.2.7zm-28.7 6.3-1.3.8q.3-1 1.3-.8m-115 1-1.3.7q.3-1.1 1.3-.7m130.7.7q-.3 1-1.2.8zm-13 8q-.3 1.1-1.3.7zm10.3 1.3-1.3.7q.3-1 1.3-.7M437 194q-.2 1-1.2.8zm-34 1q-.2 1-1.2.8zm21 7q-.3 1-1.2.8zm-13 8q-.3 1-1.2.8zm31.3 16.3-1.3.7q.3-1.1 1.3-.7M487 261q-.3 1-1.2.8zM55.3 288.3l-1.3.7q.2-1 1.2-.8M416 306q-.3 1-1.2.7zm-1.7 5.3-1.3.8q.3-1 1.3-.8m16 7-.5.6-1.1.2q.3-1.3 1.6-.8M487 344a3 3 0 0 1-3 1.8 3 3 0 0 1 3-1.8M78 379q-.3 1-1.3.7zm-24.8 22.2-1.2.8q.3-1 1.2-.8m195 1q-.4.5-1.2.8.3-1 1.3-.7M234 406q-.3 1.1-1.3.7zm-31 3q-.1 1.2-1.3.7zm52 4q-.3 1-1.3.7zm-47 8q-.3.9-1.3.7zm-32.7 7.3-1.2.7q0-1.1 1.2-.7M367 436q-.6 1.3-2.2 1.3.5-1.6 2.2-1.3m-189.9 11.2-1.2.8q.1-1 1.2-.8"/><path fill="#e2e2fa" fill-opacity=".2" d="m433.3 139 .6 1.3c-1.1 1.2-3.2 2.7-5 2.7l1-1.4q2-1 3.4-2.6m-55.4 4q-.2 1-1.2.7zm-8 5q0 1-1.2.7zm-8 4.9q0 1-1.2.8zm103.4 12.4-1.2.8q0-1.2 1.2-.8m-23.4 5.6q0 1-1.2.8zm-2.6 9.4-1.2.8q0-1.2 1.2-.8m-115 1-1.2.8q.1-1 1.3-.8m96.6 2.6q0 1.2-1.2.8zm31.5 7.4-1.3.8q0-1.2 1.3-.8M431 229.9q0 1-1.2.8zm-9.6 8.4q-.5.5-1.2.7 0-1.1 1.2-.7m69 29-1.2.8q0-1.1 1.2-.8m-443 26-1.2.8q.2-1 1.2-.8m384.6 2.6q0 1-1.2.8zm-403 2q-.2 1.1-1.2.8zm82.4 67.4-1.2.8q.1-1 1.2-.8M99 366.9q0 1-1.2.8zm163.4 26.4-1.2.8q0-1 1.2-.8m-7.4.6q-.2 1-1.3.8zM28 408q0 1.1-1.3.8zm201 1q0 1-1.2.8zm30.4 4.4-1.2.8q0-1 1.2-.8m-68 5-1.2.8q0-1.1 1.2-.8m41 12-1.2.8q0-1.1 1.2-.8m-27 17-1.2.8q0-1.1 1.2-.8M127 453q-.2 1-1.3.8z"/><path fill="#e2e2f9" fill-opacity=".3" d="M365 151q-.2 1.1-1.2.7zm74 74q-.2 1.1-1.3.7zm4 13c0 1-1.3 1.1-2 1q.5-1.4 2-1m-28.2 3.2 1.4.2-.8.8zM98 277a8 8 0 0 1-5 3c.8-1.6 3.2-3.2 5-3m-64 18q-.3 1.1-1.3.7zm187 2a9 9 0 0 1-4.6 3.1c-1.5-1 3.5-3.4 4.5-3.1M495 351a4 4 0 0 1-3.1 2q.8-2 3.1-2m-391 13q-.3 1.1-1.3.7zm22 26a7 7 0 0 1-5 3q1.8-2.5 5-3m6 60q-.2 1.1-1.3.7z"/><path fill="#e1e1f9" fill-opacity=".3" d="M417 150q-.6 1.3-2 1 .5-1.4 2-1m27.7 19q0 1-1 1zm-3.3 10q-.5.7-1.4.7.5-.7 1.4-.6m-115.1 1q-.4.6-1.1.7.2-.9 1.1-.7m128.1 10q-.4.6-1.3.6.4-.7 1.3-.6m22.6 40c-.8 1.6-3.2 3.2-5 3q2-2.4 5-3m-204 46q-.5 1.2-2 1 .6-1.2 2-1M41.4 297l-1.2 1q0-1 1.1-1m442.5 49q-.4 1.3-1.8 1 .4-1.2 1.8-1M29 362a7 7 0 0 1-5 3c.5-1.5 3.5-2.8 5-3m58.3 18-1 1q0-1.1 1-1M253 395.3q-.4.8-1.3.6.6-.4 1.3-.6m-227 14q-.4.8-1.3.6.6-.4 1.3-.6m125.2 30q-.5.8-1.4.6.6-.4 1.4-.6m163.8 2.6q-.9 2-2.9 2.2.8-1.9 3-2.2"/><path fill="#dedef2" fill-opacity=".2" d="m50.1 320.3-17 10.7q-.2-1.1-1.4-1.3 8.3-4.5 16.2-9.4 1.2-.4 2.2 0"/><path fill="#e2e2fa" fill-opacity=".4" d="M385.4 146q-.8.6-1.5.7a2 2 0 0 1 1.5-.6M320 179.4q-.4.6-1.3.6.6-.5 1.3-.6m-7.8 5q-.6.8-1.5.6.7-.6 1.5-.6m175.9 11q-.4.8-1.5.6.7-.5 1.5-.6m-90.2 3q-.3.7-1.3.6.6-.5 1.3-.6m5.5 2.8-1.4.6q.5-.7 1.4-.6m-115 .9-1.5.8q.4-1 1.5-.8m194 1.1-1.3.8q.3-1 1.3-.8m-66.1 9q-.6.4-1.3.6.3-.8 1.3-.7M77.3 274q-.6.6-1.5.7.6-.7 1.5-.7m25.6 0q-.5 1.3-1.9 1 .6-1.1 2-1m-38 3.2q0 1-1.2.8.6-.5 1.3-.8m389.5 10.9q-.6.4-1.3.6.3-.7 1.3-.6M36 358q-.6 1-2 1 .6-1.3 2-1m28 29.3q-.3.7-1.2.6zM58.3 398q-.6.5-1.4.7.5-.7 1.4-.7m195 19q-.6.6-1.6.7.7-.6 1.6-.7m231.9-.1c-.5.8-2 2.9-3.1 1.7.2-1.2 2.2-1.1 3-1.7M163 432.3q-.6.7-1.4.7.6-.5 1.4-.7m63.2 1.8-1.4.7q.5-.9 1.4-.7m-11.4 2.1q-.2 1-1.3.8zm-46.8 8q-.6.7-1.4.7.6-.5 1.4-.6m-21.8 1.8q-.6.6-1.4.7.5-.7 1.4-.7m53 5a3 3 0 0 1-1.5.7q.5-.7 1.5-.7"/><path fill="#e0e0f7" fill-opacity=".3" d="M164.8 133.2q1 0 1.2 1l-1-.1zm218.5 14-1.2.9q0-1 1.2-.8M471 153q0 1-1.2.8zm-21 13q0 1.2-1.2.8zm35.4 6.4-1.2.8q.2-1 1.2-.8m-58 15q-.6.5-1.2.7.2-1 1.2-.7m-26 15-1.2.8q0-1 1.2-.8m-115 1-1.2.8q0-1 1.2-.8m194 1-1.2.7q0-1.1 1.2-.7m-66 9q-.6.5-1.2.7 0-1.1 1.2-.7m40 6-1.2.8q0-1.1 1.2-.8M444 222q0 1.1-1.2.8zm-18 11q0 1.2-1.2.8zm69 23q-.2 1-1.2.8zM67 276q0 1.1-1.2.9zm385.4 13.4q-.6.5-1.2.7 0-1 1.2-.7M424 300.9q-.2 1-1.2.8zm2.4 3.4-1.2.8q0-1 1.2-.8m-407 7-1.2.8q0-1 1.2-.8m84 59-1.2.8q0-1.1 1.2-.8m-21 13-1.2.8q.1-1 1.2-.8m158 24-1.2.8q.1-1 1.2-.8M191 416q-.1 1-1.2.8.4-.5 1.2-.8m52 4q-.1 1-1.3.8zm-47 8q-.2 1-1.3.8zm-31 3q-.3 1.1-1.3.7.6-.5 1.2-.7m52 4q-.3 1.1-1.3.7zm-47 8q-.3 1-1.3.7zm-.7 9.3-1.2.8q0-1 1.2-.8"/><path fill="#e1e1f9" fill-opacity=".5" d="M301 177c0 .8-1.3 1.7-1.9.7q.7-1 2-.7m164 60q-.9 2-3 2a3 3 0 0 1 3-2m-32 6.9c-.3.7-1.3 1.8-2 .8a2 2 0 0 1 2-.8M226 294c.4-1.2 1.9-2.2 3.1-1.5-.2 1.4-2 1.5-3 1.5m-6 23q.5-1 1.6-1.1c1 .8-1.1 1.3-1.6 1M490 354c-.5.9-2 2.4-3 1.5q1.1-1.5 3-1.5m-451 2a4 4 0 0 1-3 2 3 3 0 0 1 3-2m196 34.8q.5-1.2 1.7-1.6 2.5-.2.5 1.3-1 .4-2.2.3M127 431q.4-1 1.5-1.2c1 .7-1 1.3-1.6 1.2"/><path fill="#7f7f8c" fill-opacity=".1" d="M31.8 329.8q1 0 1.2 1.2-7.1 4-13.9 8.6-.7.5-1.7.2l-.5-1.6q1.8-.6 3.3-1.5 6-3.2 11.6-7"/><path fill="none" d="M277.9 176.3q1.2-.2 2.3.3l-14.8 8.4q-.9.3-1.7.3a3 3 0 0 1 1.2-1.9 130 130 0 0 0 11-7q1-.6 2-.1"/><path fill="#dcdcf1" fill-opacity=".2" d="M260.7 216q.4 1 1.4 1.4l-14.1 8q-.7.6-1.7.5-.2-.9.6-1.3 7.2-4 13.8-8.6"/><path fill="#e1e1f9" fill-opacity=".5" d="M410 153.9q-.9 2-3 2.1.8-2 3-2.1m-28 5.1q-.7 1.2-1.7 1.9-2.5 0-.4-1.4zm80 80c-.3.7-1.3 1.7-2 .7q.9-1 2-.6M95 259l1.3-.2q-.4 1-1.6 1.1zm198 24c0 .8-1.3 1.7-1.9.7a2 2 0 0 1 1.8-.8M39 356q.4-1 1.6-1.2c1.2.8-1 1.3-1.6 1.2m432.9 22c.2 1-1.4 1.5-2 .5q.8-.9 2-.6M315 429a3 3 0 0 1 2.6-2c1.7 1.3-1.7 1.8-2.6 2m2 12q.4-1.3 1.6-1.8 2.5-.3.6 1.3-1 .4-2.1.5"/><path fill="#e4e4fb" fill-opacity=".2" d="m326.3 162-.3 1c-2.2 1-7.9 5.2-10 5 .4-1.6 6.5-4.4 8-5.6q1-.5 2.3-.5m24 4.3-1.2.8q0-1.2 1.3-.8m128 10-1.2.8q.2-1 1.2-.8m-285.6.7.2 1.2c.1 1-1.4.9-2 .7q.7-1 1.8-1.9m266.7 10.3-1.3.8q.2-1 1.2-.8m-40 121-1.3.8q.2-1 1.2-.8m-329 70-1.3.8q0-1 1.2-.8m159.5 37.6q-.2 1-1.2.8zm-58.6 22.4-1.2.8q0-1.1 1.2-.8"/><path fill="#e2e2fa" fill-opacity=".2" d="M278.1 273q-.6 1.3-2 1 .5-1.2 2-1m217 78q.5-1.8 2.5-2c1.5.7-1.7 2.3-2.5 2m-463 32.1c-1 2-9.8 6.1-12 8l-.1-1.3 1.6-1.5q4.3-2.1 8.4-4.8 1-.5 2-.4"/><path fill="#c5c5da" fill-opacity=".2" d="M429.8 281.3q0 1 1 1.3v.1l-9.4 5.1q-1.8 1-3.1 2.3l-.2-1.2q0-.5.4-.8 5.6-3.5 11.3-6.8"/><path fill="#c7c7da" fill-opacity=".2" d="M431.8 215.4q0 .9 1 1.2-1.8 1.1-3.8 1.9-4.5 3-9 5.5v-1.2a5 5 0 0 1 1.6-1.5q5-3.2 10.2-6"/><path fill="#e0e0fa" fill-opacity=".2" d="M429 143q-.6 1.3-2 1 .5-1.3 2-1m-75.1 15q-.2 1-1.2.8zm136 36q0 1-1.2.8zm-191.6 2.4-1.2.8q0-1 1.2-.8m194 1-1.2.8q0-1.2 1.3-.8m-28 85-1.2.8q0-1.1 1.2-.8M55 283q0 1-1.2.8zm435 97.4a7 7 0 0 1-4.9 2.7c.9-1.5 3-3.6 4.8-2.7m-454.6 32-1.2.8q0-1.1 1.2-.8m197 0-1.2.8q0-1.1 1.2-.8m-11 7-1.2.8q0-1.1 1.2-.8M153 437.9q0 1.1-1.2.8zm52 4q-.2 1-1.3.8zm-47 8q-.1 1-1.3.8z"/><path fill="#dedefa" fill-opacity=".2" d="M475.9 149.9q-.2 1-1.2.8zm10 14q-.2 1-1.2.8zm11.3 1-.3 1-.8.2q.2-.9 1.1-1.3m-159.3 3q0 1-1.2.8zm135 4q0 1.2-1.2.8zm-143 1q-.1 1-1.2.8zm-8 5q-.1 1-1.2.8zm138 2q0 1-1.2.8zm-13 8q0 1-1.2.8zm-13 8q0 1.2-1.2.8zm-13 8q0 1.2-1.2.8zm-148.5 7.4q-.6.5-1.3.7 0-1.2 1.3-.7m135.5.6q-.2 1-1.2.8zm54 65q0 1.1-1.2.8zm-23.6 20.4-1.2.8q0-1.1 1.2-.8M80 378q-.2 1-1.2.8zm-23.6 21.4-1.2.8q.2-1 1.2-.8M210 419.9q-.1 1.2-1.3.7zm21 7q-.1 1.1-1.3.8zm-28.6 4.4-1.2.8q0-1 1.2-.8m-18.4 3.6q-.1 1-1.3.8z"/><path fill="#a3a3b1" fill-opacity=".1" d="M205.8 169.2q.7.1 1 .9 0 .4-.4.7l-8.3 4.9q-1 .5-2 0 .6-1 1.4-1.6c1.2-.7 7.6-5 8.3-4.9"/><path fill="#e1e1f9" fill-opacity=".5" d="M407 156c-.2.7-1.3 1.6-2 .7q.9-1 2-.7M103 274q.8-1.7 2.7-2c1.6 1.2-1.8 2.3-2.8 2m360 72c-.5 1-4.2 4-5 2.6 1.2-1 3.2-2.8 5-2.6M250.3 456l-.4 1h-1.3q.7-1 1.6-1m-186.4 7.8 5.4.2c0 1.4-3 .9-3.8 1q-1.4 0-1.6-1.2"/><path fill="#bebed2" fill-opacity=".1" d="M152.8 388.2q1.6.3.3 1.3l-8.8 5.1q-.2-1-1.4-1 5-2.9 10-5.4"/><path fill="#e5e5fb" fill-opacity=".2" d="M93 280q-.7 1-1.6 1.7l-6.8 4.4-1.8.6a1 1 0 0 0-.8-.4q.4-1 1.3-1.5l7.7-4.4q1-.5 2-.4"/><path fill="#c9c9dd" fill-opacity=".2" d="m108.7 400 .3 1-8.2 4.7q-1.3.4-2.6.1 4.2-3 8.8-5.4.8-.4 1.7-.4"/><path fill="#a5b1eb" d="m401.1 321.7 2.1.4c-.8 1.4-3.9 2.5-5.2 3.5q-.7.4-1-.2 0-.7.8-1.1a7 7 0 0 0 3.3-2.6M371 329c0 1.5-2 2.1-3.2 2q.9-2 3.2-2m40.1 28.1c.2 1.2-2.3 2.4-3 1.5a3 3 0 0 1 3-1.5"/><path fill="#e1e1f8" fill-opacity=".3" d="M494 159q-.3 1.1-1.3.7zm-181.7 29.3-1.2.8q.2-1 1.2-.8m128 10q-.6.5-1.3.7.3-1 1.3-.7m47 2-1.3.7q.3-1 1.3-.7M269 211q0 1-1.2.8.4-.5 1.2-.8m134 4q-.1 1-1.3.8zm58.3.3q-.6.5-1.3.7.2-1.1 1.3-.7m-2 70q-.6.5-1.3.7.3-1 1.3-.7M267.2 386.8q-.4 1-1.5 1zm-205.9 9.5-1.2.8q0-1 1.2-.8M40 401q-.3 1-1.2.8zm208.3 19.3-1.2.8q0-1.2 1.2-.8m-27 17-1.2.8q0-1 1.2-.8m-72 7-1.2.8q0-1.2 1.2-.8M191 450q-.3 1-1.3.8z"/><path fill="#e3e3f8" fill-opacity=".3" d="M466.3 183.3q-.6.5-1.3.7.3-1 1.3-.7M301 191q-.3 1-1.3.8zm-8 5q-.3 1-1.3.7zm102 4q-.3 1-1.2.8zm67 11q-.3 1.1-1.3.7zm-26.7 19.3-1.3.7q.3-1 1.3-.7M86 265q-.3 1-1.2.8zm349 29q-.3 1-1.2.8zM85 375q-.3 1-1.3.8zm-19 11q-.3 1.1-1.3.7zm-25.7 23.3-1.2.8q0-1 1.2-.8M262 409q-.1 1-1.2.8zm-32.7 5.2-1.3.8q.3-1 1.3-.8m-33 1-1.2.8q0-1.2 1.2-.7M215 417q-.2 1-1.3.8z"/><path fill="#71717d" fill-opacity=".1" d="M498.7 374.3q0 .8.3 1.4c-1.7.3-4.4 3-6 2.2-.2-1.5 3.1-2.2 4-3.5q.8-.6 1.7 0m-225.9 65.5q1.2 0 1.3 1.2l-1.6 1q-.8-.2-1.5-1z"/><path fill="#d3d3e9" fill-opacity=".2" d="m303.7 448 .2 1.3c-1 1-6 4.8-7.2 4.5q-1.2-.7 0-1.7z"/><path fill="#e0e0f9" fill-opacity=".4" d="M37 171.2a4 4 0 0 1 2.4-2.2c.9 1-1.9 1.8-2.4 2.2m411.4 3.9-1.5.7q.4-1 1.5-.7m-16.2 2q-.5.9-1.5.9.6-.7 1.5-.8M264 214.4q-.3.9-1.4.6.6-.5 1.4-.6M473.4 277q-.6.5-1.4.8.5-.9 1.4-.8M45.9 288.4q-.4.8-1.3.5a2 2 0 0 1 1.3-.5m54.4 83.6q-.7.6-1.6.6.7-.5 1.6-.6m145.6 27.2q-.3.8-1.3.7zm-102 44q-.3.9-1.2.7.6-.5 1.3-.7m-10.6 11-1.6.5q.7-.7 1.7-.6m15.8 1q-.5 1-1.4.8a3 3 0 0 1 1.4-.7"/><path fill="#dfdffa" fill-opacity=".3" d="m483 370.6 1 .4a25 25 0 0 1-9 5q.3-.8 1-1.3c2.4-1.5 4.2-3.3 7-4"/><path fill="#bcbcd4" fill-opacity=".2" d="M332.6 157.4q.6.6 1.5 1-4.2 2.1-8.1 4.6 0-.6.3-1c.6-2 4.6-3.6 6.3-4.6"/><path fill="#d0d0e8" fill-opacity=".2" d="m94.8 449 .1 1.1-.9 1.3q-3 1.6-6 3.6-.2-1-1.2-1z"/><path fill="#e2e2fa" fill-opacity=".2" d="M463 158q-.3 1-1.3.7zm-15.7 65.3-1.2.8q0-1.1 1.2-.8m25.6 46.6q-.2 1-1.2.8zm-399 2q0 1.1-1.2.8zm-1 110q-.2 1-1.2.8zm125 30q0 1.4-1.2.8l1.2-.7m107 23.2a4 4 0 0 1-1.7 1.8l-.3-1q.8-1.1 2-.8m-147.6 4.2-1.2.8q0-1.1 1.2-.8m-60.6 8.9.3 1a1 1 0 0 1-.8.7l-.3-1q.3-.6.8-.7"/><path fill="#a5a5bb" fill-opacity=".1" d="m197.9 329.7.1 1.3a61 61 0 0 0-6.5 4q-.9 0-1.5-1z"/><path fill="#e0e0fa" fill-opacity=".2" d="m395.3 140.3-1.2.8q0-1.2 1.2-.8M346 163q0 1.2-1.2.8zm67.5 32.4-1.3.8q.1-1 1.3-.8M400 197q0 1.2-1.2.8.5-.5 1.2-.8m26.4 9.4-1.2.8q0-1.2 1.2-.8m-340 62-1.2.8q0-1 1.2-.8M493.7 339l.4 1.3q-.9.9-2.1.6.6-1.1 1.7-2M54 392.9q0 1.1-1.3.8zm441.4 36.2-.4.8-.8.2q0-1 1.2-1m-351 18.2-1.2.8q0-1.1 1.2-.8"/><path fill="#71717c" fill-opacity=".1" d="M65 262.7v1.3l-1.6 1q-.8-.3-1.4-1 1.3-.9 3-1.3M479.5 335q.9.2 1.4 1-1.5 1-3.2 1.3.2-1.6 1.8-2.4m13.4 42.9c0 1.7-1.9 2-3.2 2.4q.5-2.5 3.2-2.4"/><path fill="#cbcbe4" fill-opacity=".2" d="M413.4 139q.7.9 1.9 1.3l-6 3.6-.1-1.1z"/><path fill="#e0e0f8" fill-opacity=".3" d="m390.3 143.3-1.2.7q0-1.1 1.2-.7m102 25-1.3.7q.3-1 1.3-.7M437 174q-.2 1.1-1.3.7zm-112 2q-.3 1-1.2.8zm-8 5q-.3 1.1-1.3.7zm91.3 17.3-1.3.7q.3-1.1 1.3-.7M480 200q-.2 1.1-1.3.7zm-212.7 14.3-1.2.7q0-1.2 1.2-.7m166 86q-.6.5-1.3.7.3-1.1 1.3-.7M59 390q-.3 1-1.3.7zm200.3 5.3-1.3.7q.3-1 1.3-.7M184 420q-.3 1-1.3.8zm-164.7 2.3-1.2.8q0-1 1.2-.8M189 432q-.2 1-1.3.8zm-26.7 4.3-1.3.7q.3-.9 1.3-.7"/><path fill="#e0e0f8" fill-opacity=".5" d="M482.3 146.2a2 2 0 0 1-1.7.8q.7-.6 1.7-.8m-187 51.8q-.6.5-1.4.6.5-.6 1.4-.6m194 1.1-1.3.7q.3-.9 1.3-.7m-401 68q-.6.4-1.4.6.6-.7 1.5-.6m-64 41-1.3.7q.4-.9 1.4-.7M57 391.3q-.2.8-1.1.6.5-.5 1.1-.6M206.3 409q-.7.5-1.6.7.4-1 1.6-.7m-50.4 27.1q-.3.8-1.2.7.4-.5 1.2-.7m51.5 9.8q-.6.6-1.4.8.4-.8 1.4-.8m-46.4 2.3q-.5.7-1.4.6zm2.2 7.7-.2.9-1.3.2q.5-1 1.5-1.1"/><path fill="#d3d3e4" fill-opacity=".1" d="M480.7 322.3q-.1.6-.7 1.1-3 1.5-5.7 3.5l-.2-1q0-.5.4-.9c1.6-.6 4.4-4 6.2-2.7"/><path fill="#c6c6db" fill-opacity=".8" d="m15.7 140.8 1.2.4q-3 2-5.7 4.4-.4.3-.9.2v-1a4 4 0 0 1 2.8-2.4q1-1.5 2.6-1.6"/><path fill="#e5e5fa" fill-opacity=".2" d="M105 444c-.8 2.1-5.2 3.5-7 5v-1c.9-1.5 5.3-4.1 7-4"/><path fill="#b3b3c9" fill-opacity=".2" d="M148.7 168.2q0 1 1 1.4L144 173l.2-1.2c.9-1.6 3-2.6 4.5-3.5"/><path fill="#b3b3c9" fill-opacity=".1" d="M141.7 191.3q0 .9 1 1.3-2.9 1.5-5.7 3.4l.2-1c.5-1.8 3-3 4.5-3.7"/><path fill="#e0e0f8" fill-opacity=".3" d="m479.3 157.3-1.3.7q.3-1.1 1.3-.7m-115 1-1.2.7q0-1.1 1.2-.7M309 186q-.3 1-1.2.7zm107 1q-.3 1-1.3.7zM69.2 279.2l-1.2.8q.3-1 1.2-.8m46.8 83q-.3.6-1 .8 0-1 1-.8M37 380q-.7 2-3 2 .8-2 3-2"/><path fill="#9aa9e8" d="M367.7 331q0 .9-.7.5.1-.6.7-.5M346 391q.5-2 2.5-2c1 1-1.6 2.2-2.5 2m-65.1 1-.2-.9c1 0 2.4-1.8 3.2-.7a4 4 0 0 1-3 1.6"/><path fill="#e1e1fb" fill-opacity=".2" d="m446.3 176.3-1.2.8q0-1.1 1.2-.8M408 191.9q0 1-1.2.8zm76 71q0 1.1-1.2.8zM47 397q0 1-1.2.8zm201 1q0 1.1-1.2.8.6-.5 1.2-.7m-7.6 27.4-1.2.8q0-1 1.2-.8m-70 6-1.2.8q.2-1 1.2-.8M146 441.9q0 1.1-1.2.8zm67.4.4-1.2.8q.1-1 1.2-.8"/><path fill="#c9c9dc" fill-opacity=".1" d="m487.8 367.4-.2.8c1 1.2-2.8 2.5-3.6 2.8l-1-.4q2.1-2.1 4.8-3.2"/><path fill="#e3e3f9" fill-opacity=".2" d="M454.9 162.9q0 1-1.2.8.5-.5 1.2-.8m3.5 6.4-1.3.8q.1-1 1.3-.8M80.9 268q0 1.1-1.3.8zm-19.6 16.4-1.2.9q0-1.2 1.2-1m-39 25-1.2.8q0-1.1 1.2-.8m390 3-1 .7q0-1 1-.6m-335 74-1.2.8q0-1 1.2-.8m95 64-1.2.8q0-1.1 1.2-.8"/><path fill="#b4bbe5" d="M404 252q-.3 4-4.2 4 .1-.6.6-1z"/><path fill="#9b9ba9" fill-opacity=".9" d="M40.8 463q3.9-.5 7.4.6l-.9.4q-2.3-.7-4.4.3-1.4 0-2-1.2"/><path fill="#6e6e79" fill-opacity=".1" stroke="#6e6e79" stroke-opacity=".1" stroke-width=".5" d="M86.8 454q1 0 1.3 1c-1.4-.1-2 1.4-3.3 1.6h-1.5l-.4-.6z"/><path fill="#e2e2f9" fill-opacity=".6" d="m498.2 278.8-.3 1h-1q.4-.9 1.3-1M357 463.8q3 .3 6-.1c.4 2-4.4 1.2-5.4 1.1q-.7-.3-.6-1"/><path fill="#a0a0b4" fill-opacity=".1" d="M82 286.3q.5 0 .8.4l-3.2 2.4q-1-.4-1.6-1c1.1-.6 2.7-2.2 4-1.8"/><path fill="#9ea2ba" fill-opacity=".2" d="M275.6 125.3q.1 1 1.2 1.2-1.6 1.4-3.7 1.5a5 5 0 0 1 2.5-2.7"/><path fill="#bbbbce" fill-opacity=".1" d="M488.6 431q-.3 1.5 1.1 1.6-1.5 1.4-3.6 1.2.9-1.6 2.5-2.8"/><path fill="#e1e1f9" fill-opacity=".9" d="M187 132.7q1.4.5 3.2 0l1.2 1.3q-1.8 0-3.4.4l-3.3-.4q.7-1.2 2.2-1.3"/><path fill="#e0e0fc" fill-opacity=".2" d="m66.7 261.2.2 1q-.6 1.2-1.9 1.8v-1.3q.7-.8 1.7-1.5M34 382q-.5 1-2 1 .6-1.5 2-1"/><path fill="#bcbccf" fill-opacity=".2" d="M37 171.2q-1 1.6-2.7 2.5 0-1-1-1.3 1.5-1.5 3.7-1.2"/><path fill="#868693" fill-opacity=".7" d="M415.8 464a39 39 0 0 1 6.3.2c-.9 1.2-3.3.6-4.6.8q-1.2.1-1.7-1"/><path fill="#cfcfe5" fill-opacity=".7" d="M390.9 463.9q2.7.2 5.4 0c-.1 1.4-5.2 1.9-5.4 0"/><path fill="#dfdffa" fill-opacity=".2" d="M196.2 175.8q-.7 1.3-1.8 2.2l-.4-1.2c0-1 1.5-1 2.2-1m298.8 15q-.2 1.1-1.4.9zm-103.1 11q-.1 1.2-1.2 1z"/><path fill="#80808c" d="M161.1 134.3q2-.4 4-.2l1 .1c-.5 1.4-5.1 1-5 .1"/><path fill="#81818c" fill-opacity=".9" d="M184.7 134q1.6 0 3.3.4c0 .9-4.4.2-5.2.5q.6-1 1.9-.9"/><path fill="#e1e1f9" fill-opacity=".7" d="M335 463.9h5.2c.2 1.6-5.6 1.7-5.2 0"/><path fill="#cecee4" fill-opacity=".7" d="M311.8 464h5.5c-.3 1.5-5.4 1.5-5.5 0"/><path fill="#adadbe" fill-opacity=".7" d="M291.8 464.1h5.4c-.2 1.4-5 1.3-5.4 0"/><path fill="#4f66ae" fill-opacity=".2" stroke="#4f66ae" stroke-opacity=".2" stroke-width=".5" d="m280 379.3 2.1-.2q-1 1.8-2.9 2.6l.2-1.4z"/><path fill="#8b8b98" fill-opacity=".8" d="M270.9 464.2q2.7-.4 5.4-.1c-.4 1.5-4.9 1.2-5.4 0"/><path fill="#e1e1f9" d="m160.2 133 .5-.4q1.6.5 3.4 0l.7.6.2.9q-2-.1-3.9.2l-1.1-.4z"/><path fill="#4d5b8f" d="M354 193.4q-2.5.9-5 .4c1.2-1.2 3.4-1 5-.4"/><path fill="#686870" d="M467 133h4.4l.8.4c-1.5.8-4 1.2-5.2-.4"/><path fill="#e1e1fa" fill-opacity=".6" d="M42.9 464.3q2.2-1 4.5-.3c-.6 1.6-4.7 1.1-4.5.3"/><path fill="#8d8d9a" fill-opacity=".8" d="M84.7 464c1.4.2 3.4-.5 4.5.6-1.3.3-3.8 1.1-4.5-.5"/><path fill="#70707a" fill-opacity=".9" d="M253 464.8q-2 .4-4 0c.3-1.4 3.3-1.1 4 0"/><path fill="#e3e3f8" fill-opacity=".1" d="M51.7 141q0-1 .9-1c1 .6-.4 1-.9 1m.6 94.9q-.4 1-1.5.6zM90 312.2q-.2.6-.9 1 0-1 .9-1m55.2 51.3-1 .6q0-1.1 1-.6"/><path fill="#787883" fill-opacity=".1" stroke="#787883" stroke-opacity=".1" stroke-width=".5" d="M221.2 175q.7 0 1.5.4l.4.7q-1.4.9-3.2 1.2.4-1.2 1.3-2.2Z"/><path fill="#6b6b76" fill-opacity=".3" stroke="#6b6b76" stroke-opacity=".3" stroke-width=".5" d="M72.3 138.4q1.3-.3 2.5-.1-.9 1.2-2.5 1.4l-.5-.5z"/><path fill="#4f63a7" fill-opacity=".1" stroke="#4f63a7" stroke-opacity=".1" stroke-width=".5" d="M330.2 260.7q-.6 2.4-3.1 2a5 5 0 0 1 3.1-2Z"/><path fill="#d8daf6" fill-opacity=".9" d="M336 258.6c0 2.2-8.2 7.4-9.9 9.3a6 6 0 0 1-1-4.1 4 4 0 0 1 2-1q2.4.3 3.1-2.1 2.6-2 5.9-2"/><path fill="#d4d4eb" fill-opacity=".6" stroke="#d4d4eb" stroke-opacity=".6" stroke-width=".5" d="m22.3 137-.3.9q-.5 1.4-2 1.4l-.7-.3-.1-.5z"/><path fill="#e9e9fb" fill-opacity=".1" d="m144.2 171.7-.2 1.2q-1.5 1-3 1.1a4 4 0 0 1 3.2-2.3"/><path fill="#272727" stroke="#272727" stroke-width=".5" d="M329.8 133.1q1.7.3 3.4 0h26.2l22-.2c4.3 0 24.9.7 27.4-.7.2 1.1 1.7.8 2.5.7 4.6-.3 12.2-.5 16.5 0h3.5c3.6-.4 12.4-.2 16.4.1H467c1.1 1.6 3.7 1.2 5.2.4q8.1.6 16.3.8c18.1 4.9 21.1 19.6 21.3 36.3q.3 131-.1 262c-3 33.2-33 32.4-58.7 32.5-.2-1.4-2.8-1.4-3.4-.2-8.2-1.2-17.2-.9-25.5-.6a553 553 0 0 1-31.3-.3q-13.8.3-27.7-.2-3 .4-6.1 0a246 246 0 0 1-22 .2l-17.7.1h-20.1l-5.4.1a400 400 0 0 1-21 0l-17.8.7c-.7-1.1-3.7-1.4-4 0l-3.5-.2c-46.5.8-93.4 0-140 .4-5.5-.4-10.8-.9-16.3-.4-1-1-3.1-.4-4.5-.5a435 435 0 0 1-20.8-.3l-15.7-.2q-3.6-1-7.4-.5c-11.9-1-24 3.5-30-10q0-.7-.8-.9l-.2-1.3q.3-1.3-.6-2.3c-2.1-3.9-3-9-4-13.4l-.4-3.3a273 273 0 0 1-4.1-41.4q0-1-.7-1.5v-78q.7-.5.7-1.5c.5-33.6 2-67.3 3-101q.8-22.6-1.3-44.8.8-9.3 6.8-16.4 1-.6 1.1-1.5l1-.2q2.7-2.3 5.6-4.4 1-.3.8-1.2l1.3-.1a1 1 0 0 0 1-.6q1.4 0 2-1.4l1.6-.1q4.8-2 9.8-3 .6-.4 1-1 .4.4 1 .4c30.6-6.8 68-3.1 99.3-1.3l3.6.1q10.2 1 20.4 1.1l1.3-.2 1.1.4c-.1 1 4.5 1.3 5 0 4.5 1 11.8.2 16.7.6.8-.3 5.2.4 5.2-.5l3.4-.4c2.2 0 5.6-.1 7.2-1.8.7-21.2-4.9-53.7 4.6-72.8q.8-.6 1.1-1.4.6-.3.7-1a2 2 0 0 0 1-1q.8-.2 1.1-.8c0-1.7 8-5.7 9.6-6.2q.9-.2 1.6-.8l.7-.2 1.2-.2q1.3.3 1.8-.8c15.1-2.3 29.4-1.7 44.5 0 15.8-2.6 36-4.2 43.8 13.3 8.3 20.9 1.1 49.4 3 72q.9.8 2.2.7zm-105.6-77c-1.6.5-9 1.6-9.8 2.8-3.7 10.8-4 22.8-4.3 34.1l.5 4.3.4 13q0 2.8.3 5.6 0 5.7.6 11.5c-.5 1.5-1 4.5-.1 5.8a41 41 0 0 0 0 22q1.2 2.7 3 5c8.7 8 22.2 7.6 33.2 7.5l6-.6q18.2-1.4 36.4-1.1c9.4-1 12.2-19.8 11.9-27v-3a422 422 0 0 0-1.5-29.8q-.7-10.7-.7-21.5.8-3.2 1-6.5c-.3-2.8.4-9-1.2-11.2l.1-1.3c-.2-1.3-.8-3.9-2-4.4-1.5-5-7.7-5.9-12-5.6h-10.8l-1.2.3c-5-1-11.1-.8-16.2-1a473 473 0 0 0-25.9 0zm45.1 28q0 .3.4.7a21 21 0 0 1 8.2 9.5q0 1 .7 1.8c2.2 25.2-27 34.7-42.6 18.8l.1-1c-3.4-3.7-2.2-10.8-2-15.2v-.4c8.1-16.6 18.1-18.5 35.2-14.3Zm-8 7.3q-1.4-1-3.2-1.7c-15.3-3.1-16.8 17.9-5 24.8 12.4 7.3 19-14.4 8.3-23.1Zm172.9 46.5q-8.3-.7-16.5.2a5 5 0 0 0-3.4.2q-9.2-.3-18.3.5l-12.9.3-24 1.7-1.1.4q-9.8 0-19.3.8-3.8-.6-7.4-.1l-1.3.1q-7-1-14-1-1-1-2.3-.7-1 1 .2 1.8l.5 10-.5 1q-.1 2-.9 3.7c-3.9 13.7-18.8 17.1-31.3 18.4a804 804 0 0 1-33.6-.4l-1 .3c-7.7 0-15.4 1-23 .2h-1.4l-1.5-.2q-7.4-2-14.4-5-.3-.7-1-.9c.3-.3-6.5-7.2-6.4-9.5q-1-2.7-1.3-5.7-.6-6 0-12.3c1-2.8-5.4-1.4-6.7-1.6l-1.3.1q-8.7-.3-17.4-.2l-7.4-.1h-18.6q-3.7-.8-7.6 0-.6-.6-1.7-.5l-32.6-.4-14.6-.8-18 .2C37.6 138 9.9 141.6 12 184l-.2 1.2-.6 6.2q.2.6.6.4l-.2 4 .6 17.4-.1 1v3.7q.6 5 .6 10.3.3 1.8.3 3.7c.3 2-.4 9.5 1.2 10.5a7 7 0 0 0-.2 4.5 205 205 0 0 0 .8 18q0 5.8.3 11.5l.1 3.6c.3 2.8 0 7.5 1 10l-.4 1.1v3l.2 11.3.4 16.2q0 1.2.8 1.9a5 5 0 0 0-.5 3.7q-.3 5.5.2 11.1l.5 1.6c-1.3 3-.6 8.2-.5 11.5q-.4 2.8-.2 5.6c-.4 19.5-.2 39-1.6 58.3q.2 4.4-.4 8.7l.3 11.4q.5 3.3 1.9 6.5 1.5 4.8 5 8.3a13 13 0 0 0 2.7 1.9c2.5 2.4 6.1 3.5 9.3 4.3 2.3.5 6 2 8.2.7q0 .6.5.8a134 134 0 0 0 20.3.1l19-1.2h1.4l1.5-.1q18.2.7 36.5.4 3.7.3 7.4.1h18.4a252 252 0 0 0 16-.2q8.5.5 17 .1 4.8.3 9.5.1l1.3-.2a3056 3056 0 0 0 57.7.1h1.3q8.7.4 17.4 0 2.3.4 4.4 0 29.8.3 59.6 0 2 .5 4.3.2a555 555 0 0 0 22.1-.1l1.3-.2c4.6.7 12.4.4 17.2.2q7.8.3 15.4.1 9.4.1 18.7-.1 3.1.3 6.3 0l1.4-.2c3.7.8 13 .3 17.3.2l11.6.2 1-.4q16.3.4 32.5 0c10.4.4 14.1-19.5 14.5-27l.4-.8a293 293 0 0 0 2.6-19.3l.1-2.6.9-12.3.1-7.6c0-3.5.7-8.3 0-11.6l-.3-1.4c.9-2.3 1.2-9.4.3-11.7q.6-1 .2-2.3.3-.7.2-1.6c.6-10.9-.3-22-.2-33q.1-1.2-.2-2.5.2-5.1-.2-10.3l.3-1.3v-1.4l-1.2-30.3q0-.6.3-1-.3-2.4-.2-4.7c-.3-2.4.2-8.6-.9-10.5l.1-.7q.3-4 0-7.7 0-5.3-.5-10.4l.2-1.2v-3.5q-.7-16.2-1-32.5v-16.5a123 123 0 0 1 .4-14.2q.6-5.6.6-11.1 0-.6.3-1c-.1-2 .3-5.2-1.1-6.6q-1-5-5.1-7.6-.2-.7-.8-1c-1.5-2-5-3.1-6.9-4.7a82 82 0 0 0-27.6-5.8q-1.2-.7-2.6-.2-.6-.8-1.6-.8-6.2-.3-12.5-.2a3 3 0 0 0-2.5-1q-1.5-.3-2.3 1Zm-80.3 55.5a49 49 0 0 1 36 9.8l4 3q3.7 5 7 10.2.3 1.8 1.3 3.4 2.2 6.5 3.2 13.3-.2.8.5 1.4 5 1.5 8 5.8l.9.9.6 1c1 6.8 1 13.2-4.6 18l-5.4 3.6c-.9 12.2-8.1 22.2-16 31-.8 3.2 1 7.7 3.8 9.4-.5 3 10.8 8.4 13.8 7.9.1 1.1 2 1 2.8 1.3q9 2.2 18.1 5l.8.7 1.2-.2c30 18.5 30 85.5-4.5 96.9-45.2 6.8-100.6 16-143.3-5q-.4-.6-1-.7c-3.4-2-6.9-3.6-8.9-7a337 337 0 0 1-5-16.3c-2.3-17.4-3.2-33.4 4.6-49.7 9.5-20.2 28.5-19.7 46.7-27.2 4.9-2.3 10.5-5.5 8-11.9-6-11.5-13.9-19.7-14.7-33.3l-5-2.9c-8.2-5.1-7.4-17.2-.8-23.3l5.8-4c3-22.2 16-35.1 37.2-40.7q2.5.5 5-.4Zm-2.7 9.4c-20.3 3.7-25.6 17.7-28 36.1-2.3 4-10.2 2.6-10.1 7.6a7 7 0 0 0 1.7 5.6 6 6 0 0 0 4.9 4q3 3 4.6 7.2.3.5.9.5-.4 2.2.9 4 .9 4.8 2.8 9.2.3 2.5 2 4.3c.5 3.2 3.5 6 6 7.9 1.6 1.6 3 1.3 3.4 4-.8 42.2-63.8 12.7-61 66.7a28 28 0 0 0 0 7.2 124 124 0 0 0 .1 13.2l-.2 1.4q-.7 5 1.6 9.4l.2 1q4.8 9 14 13.3 2.2 1.5 4.7 1.7c1.5 1.5 9 3.7 11.4 3.8q2.8 1.3 6 1.3 6.8 1.8 14 2 5.4 1 11 .9c4.6 0 12.5.6 16.8 0 5.5 0 10.7.3 16-.9q10.5-.4 20.9-2.2a88 88 0 0 0 11-1.9c21.9-3.8 31.6-7.9 31-32.3q.5-3 .2-6a172 172 0 0 0-.7-17.7 24 24 0 0 0-1.3-10.2c-.4-1.3-.5-3.4-1.8-4-.7-2.7-3.3-6-6-6.9q-.9-2-3-2.2c-2.1-2.7-18-7.6-22-8.7l-2-.4-10.2-3.8a59 59 0 0 1-10-7.3 47 47 0 0 1-3.6-6.6q-1.5-4-1-8.2c5.9-9.4 15.3-18.2 16.6-29.8v-4c-.2-4 3.9-5 6.8-6q3.9 0 4.2-4 .2-6-4.9-8.9l-5-2c-2.2-2.6-.3-6.6-2-9.4q.2-2.5-.9-4.8-1-5-4-9c-.9-1.7-2.2-3.8-3.8-4.8a36 36 0 0 0-20-10.4q-6.2-1.4-12.2 0ZM237.7 230c-.8 10-.4 25.7-13.8 26.6l-8 .3a1331 1331 0 0 1-119.6 1.8l-1.3.2q-18.2-1.4-36.3-3.3-2.2 0-3.3-1.8a54 54 0 0 1-2.7-14q0-2-.4-4 .5-8.7 3.1-17 3-4.7 8.4-5.4c54-7 108.4-.9 162.6-2.2 9 .1 10.3 12.2 11.3 18.8ZM67.4 249.3q2 3 5.4 4.1c31.5.8 63 .4 94.4.1H180q21.7 0 43.3.3.7-.4.6-1.3c-.7-8.6 1.7-17 1-25.5a19 19 0 0 0-2.6-7.4c-3.4-5.2-9-3.6-14.3-3.8H74c-1.5.3-6.3-.7-7 .7 0 10.2-4.2 23.6.4 32.7Zm37.9 51.7 3.5.2c40.5 0 81.2 2.5 121.6 1.8q2 .2 3.1 2c3.5 7.2-34.2 8-38.7 8l-2.5.1a2738 2738 0 0 1-106.1-2c-7.2.3-16.4-.5-23.2.9-2.7.5-9.5-2.4-6-5.6 10.7-5.7 35.7-4.5 48.3-5.4Zm50 54.1 4.3.1q28.4-.6 56.6.2c3.1.5 14.7.3 16.3 3-1 4.3-22.5 2.1-26.4 2.8q-29.7 0-59.3.6c.1-1.1-2.9-.2-3.6-.6l-34-.1a659 659 0 0 1-47.3-1.5q-1.8-.3-3.5-1 2.6-1 5.5-1.2c18.3-2.3 36.8-1 55.2-1.5l7.8-.1zm-78.5 51a612 612 0 0 0 24-.4c7.5.5 15 1 22.5.4q.9.5 1.8 0v.3q7.2.6 14.4.7l25-.1c1.4 0 2.9.6 2.3 2.2-4.8 3.2-26.2 3.6-32.9 4h-24.8l-23.9-.1a348 348 0 0 1-20.4-1q-3.9-.1-7.6-1c-2.2.1-2.8-1.5-.6-1.8q3.7-1 7.6-1.3 5.3-1.2 10.5-1.1c.6 0 2.4.2 2-.9Z"/><path fill="#e8e8fb" fill-opacity=".3" d="M18.7 390.2q0 .4.3.8c-.5.6-1.2 2.2-2.1 1.5q-.3-2 1.8-2.3"/><path fill="#6f6f79" fill-opacity=".9" d="m451 465-3.4-.2c.6-1.2 3.2-1.2 3.4.2"/><path fill="#86889b" fill-opacity=".9" d="m206.2 55.3 1-.1q-.5.5-1.1.8zm-1 1 .9-.3a2 2 0 0 1-1 1zm-1 1 .8-.3q0 .7-.7 1z"/><path fill="#8a8a96" fill-opacity=".4" stroke="#8a8a96" stroke-opacity=".4" stroke-width=".5" d="M451.2 133h-3.5q1-1.4 2.8-.9.6.2.7.8Z"/><path fill="#616169" fill-opacity=".6" d="M431.3 133h-3.5c.3-1.7 3-1.4 3.5 0"/><path fill="#e2e2f8" fill-opacity=".2" d="m459.9 416 .2 1.1a2 2 0 0 1-2 1q.5-1.5 1.8-2.1"/><path fill="#bec2df" fill-opacity=".3" d="M241 63.7v1.5c-.2.6-1.3 1.4-1.8.5q.6-1.3 1.8-2"/><path fill="#cbcbe1" fill-opacity=".4" stroke="#cbcbe1" stroke-opacity=".4" stroke-width=".5" d="M381.3 133h-3.7q1.8-2 3.7 0Z"/><path fill="#d2d2e7" fill-opacity=".4" stroke="#d2d2e7" stroke-opacity=".4" stroke-width=".5" d="M138.3 133h-3.5q.5-1.2 1.7-1 1.4-.2 1.8 1Z"/><path fill="#bfbfd2" fill-opacity=".4" stroke="#bfbfd2" stroke-opacity=".4" stroke-width=".5" d="m4.8 431.9.4 3.4c-1.5-.5-1.8-2.7-.4-3.4Z"/><path fill="#dfdffd" fill-opacity=".2" d="m477.8 337.4-1.5 1.6-.2-1.2c-.2-1 1.2-.9 1.7-.4"/><path fill="#dfdff8" fill-opacity=".2" d="M307 447q-.6 1.2-1.8 2l-.2-1q.5-1.3 2-1"/><path fill="#7e7e89" fill-opacity=".9" d="M9.2 448.6q.9 1 .6 2.3h-.7z"/><path fill="#767787" fill-opacity=".8" d="M220 47h2q-.5 1.1-1.8.8z"/><path fill="#cdcde2" fill-opacity=".7" stroke="#cdcde2" stroke-opacity=".7" stroke-width=".5" d="M17.7 140q.1.9-.8 1.2l-1.2-.4q.8-1 2-.8Z"/><path fill="#d3d3e9" fill-opacity=".4" stroke="#d3d3e9" stroke-opacity=".4" stroke-width=".5" d="M10.3 144.9v.9q-.2.9-1.1 1.5c-.3-1-.3-2.6 1-2.5Z"/><path fill="#bfc3e1" fill-opacity=".4" d="m205.3 56.2-.3.8-.9.3q0-1.2 1.2-1M274 56l1.2-.3q-.3 1.2-1.5 1.4z"/><path fill="#8598e1" fill-opacity=".2" stroke="#8598e1" stroke-opacity=".2" stroke-width=".5" d="M284 378.3q-.7.9-1.9.8c-.3-1 1.4-.8 2-.8Z"/><path fill="#b7c0ef" fill-opacity=".8" d="M292.2 371.8q-.3 1.1-1.2 1.8-3 2.1-6.1 3.6-1 0-.9 1.1c-.5 0-2.2-.2-1.9.8l-2.1.2q0-1.2 1-1.8 4.6-2.3 9-5a6 6 0 0 1 2.2-.7"/><path fill="#767682" fill-opacity=".6" d="M408.8 132.2q1.6-.6 2.5.7c-.8 0-2.3.4-2.5-.7"/><path fill="#e1e1f8" fill-opacity=".6" stroke="#e1e1f8" stroke-opacity=".6" stroke-width=".5" d="m19.3 139-.3.9-1.3.1q.5-1 1.6-1Zm399 317-.3.9q-.8 0-1.4.3.5-1 1.7-1.2Z"/><path fill="#e1e1f9" stroke="#e1e1f9" stroke-width=".5" d="M34.3 133.9q-.1.5-.9.8-5 1.2-9.8 3-.7.2-1.6.2l.3-1q3.8-1.7 7.3-3.8 1.5-.3 3-.1a2 2 0 0 1 1.7.9ZM215 160a17 17 0 0 1-3-5q18-10.2 36-20.8c1.5-1 2.5.5 1.2 1.2q-15.8 11.8-31.2 23.8-1.4 1.2-3 .8Zm87.5-24.1-.1 3-7 3.8q-.7.2-1-.3c0-1 7-6.4 8-6.5Zm111.9 2.3-1 .7-4.1 3.8-1.3.3c-1.9 1.1-8.2 4.2-8.9 6-1.6-.1-4.5 1.3-5 3-1.4-.2-4.6 1.4-5 2.9q-3 .5-5 3-1.5-.2-2 1l-2 .5q-2.2 1.5.3 1.4 1-.7 1.6-1.9 1.5.2 2-1c1.7-.1 4.4-1.5 5.2-3 1.5-.3 4.4-1.3 5-3 1.4-.2 4.6-1.3 4.9-3a4 4 0 0 0 2-.4q3.9-2 7.1-4.5l1.2-.2 6-3.6c.5-.6 2.9-1.2 2.4-2.2q8.3-.8 16.5-.2l-1 1q-1.3 1.7-3.2 2.7-.7.6-1 1.4-1.5-.3-2 1c-1.6 0-4.3 1.4-5 3-1.6 0-4.4 1.4-5 3q-1.5-.4-2 1-3 .8-5 2.9-2.2.2-3 2.1-1.1-.3-2 .7c.7 1 1.8 0 2-.7q2.1 0 3-2.1c1.5.4 4.4-1.6 5-3q1.4.4 2-.9c1.5-.3 4.7-1.3 5-3 1.5 0 4.8-1.4 5-3q1.5.3 2-1c1.7 0 3.8-1.5 5-2.7l1-.3q.8-.2 1.2-.6l1-.7 1-.3.8-.5q6.3 0 12.5.3 1 0 1.6.8-.8.3-1.4.9l-2.5 2-17.6 10.4a3 3 0 0 0-1.5 1.7 7 7 0 0 0-5.1 3c-1.4-.2-6.6 2.8-7 4-1.2.2-4.9 1.8-5 3-1.8 0-4 1.6-5.1 3q-1-.1-1.7.7 1.4.8 1.7-.7c1.3.2 4.7-1.7 5-3 1.3.2 4.9-1.6 5-3 1.6.1 6.6-2.4 7-4a7 7 0 0 0 5.2-3q1 0 2-.4 10.4-6.4 21.2-12.3 1.5-.8 2.4-2c9-.3 19.3 2.8 27.6 5.7a3 3 0 0 1-1 1.2q-1 .2-1.7.8l-1.6 1-1.3.7-3 2-.7.5-1.3.7q-.8.6-1.8 1l-1.2.8q-2 1-3.4 2.6a3 3 0 0 0-1.6.7l-3 1.7-5 3-1.8 1.2-1.2.8-.8.6-1.2.6-3 1.8-4 2.4-1 .8-1.8 1-1.2.8-.8.6-1.2.6-1.7 1-1.3.8-3.5 2.5q-.9 0-1.5.8l-1.8 1-1.2.7q-2 1.4-4 2.3l-1 1-3 1.7-.7.6a2 2 0 0 0-1.3.6q-.8.7-1.7 1l-1.3.8-3.6 2.5-1.3.8a12 12 0 0 0-3.1 1.7 79 79 0 0 1-6.8 4.2l-1.2.8-.8.6q-.6 0-1.3.6L395 200l-1.2.8-2 1-1.1 1q-.5.1-.8.4a49 49 0 0 0-36-9.8c-1.5-.5-3.7-.8-5 .4-21.1 5.6-34.2 18.5-37 40.6l-6 4.1c-6.5 6-7.3 18.2.8 23.3l5 2.9c1 13.6 8.8 21.8 14.8 33.3 2.5 6.4-3.1 9.6-8 11.9-18.2 7.5-37.2 7-46.7 27.2-7.8 16.3-7 32.3-4.6 49.7l-1.5 1q-.4 0-.8.4l-1.1.8a31 31 0 0 0-5 2.8l-.8.5q-.8 0-1.3.7l-3 1.7-.8.6q-.7.1-1.3.6l-5 2.8-.7.5-1.3.7-4.9 2.9-.7.5q-.8.2-1.3.7a37 37 0 0 0-5 2.8l-5 3-.6.6q-.8 0-1.5.6a87 87 0 0 0-10.6 6l-1.3.8-.8.3-1.2.8-1.8 1-1.3.7-.6.4-1.3.7-5 3-.7.6-1.4.6-4.9 2.9-.7.5q-.8 0-1.4.6l-3.6 2-1.3.9-.8.5q-.6 0-1.1.7l-3.2 1.7-1 .4-1 .9-5 2.7-.5.6q-.9 0-1.4.6l-3.8 2-1.2.8-.6.5-1.4.7-5 2.9-.7.5q-.8 0-1.4.6l-1.7 1-1.2.8-.8.5-1.2.7-5 2.8-.6.6a3 3 0 0 0-1.4.7q-.6.3-.5 1.1h-18.5v-.4a8 8 0 0 0 3-2q1 0 1.7-.6l1.7-1 1.2-.8q2-1.4 4-2.4.7-.3 1.1-.8l1.7-1 1.2-.8.6-.6q.9 0 1.4-.7l1.8-1q.6-.2 1.2-.7 2-1.4 4-2.3l1-1 1.8-1q.6-.2 1.2-.7l.8-.5 1.2-.7 3-1.8 3.6-2.5q.8-.3 1.3-.7l8-4.8q2.1-1.1 3.6-2.6.8-.2 1.5-.7l3-1.7q2-1.4 4-2.3l1-1 3-1.7.9-.5 1.1-.7q.8-.7 1.8-1l1.2-.8 3.6-2.6 1.5-.7 3.4-2.2q.8-.2 1.5-.7.8-.8 2-1.3c1.8-1.3 5.5-2.8 6.6-4.6q.7 0 1.3-.3 3.8-2 7.2-4.3a5 5 0 0 0 1.7-1.6 3 3 0 0 0 3-2q1.3 0 1.9-1 2.3 0 3-2 1.5.2 2-1 1.2.1 2.2-.4 2-1.5-.5-1.3-1.2.4-1.7 1.6a2 2 0 0 0-2 1q-2.1.2-3 2-1.4 0-2 1-2 .2-3 2.1c-2-.3-6.4 3.2-8.4 4.1a1 1 0 0 0-.5.8l-1.3.2-7.9 4.6q-1.8 1.4-4 2.3l-5 3q-.7.2-1.2.7l-.8.6-1 .6q-2 1.2-4 2.1l-1.1.8-.9.4-1.3.7-7 4q-1.8 1-3.3 2.3l-1.6.7-5 2.8-.6.6-1.5.6-5 2.8-.5.6q-.8.2-1.4.7a37 37 0 0 0-5 2.8l-.8.4q-.7.1-1.2.7l-1.8 1-1.2.8-.6.6q-.8.1-1.4.6l-5 2.8-.7.5q-.8.1-1.3.7L139 446l-1.3.8-.7.4-1.4.7-4.9 2.8-5 3-.8.5q-.8.2-1.2.8-1.8.5-2.4 2-18.3.3-36.5-.4c1.4-.3 1.9-1.7 3.3-1.6q2.8-2 5.9-3.6l1-1.3 1.2-.2q.6 0 .8-.7l1-.2c1.8-1.5 6.2-2.9 7-5 2 .1 4-1.3 5-3 1.5-.2 4.7-1.3 5-3q1.2.2 2-1c1.1-.3 5-1.7 5-3 1.2.3 4.7-2 5-3 .4.2 2.6-.4 1.5-1a2 2 0 0 0-1.6 1c-1.2-.2-4.5 1.8-4.9 3-1.2-.2-4.8 1.6-5 3a2 2 0 0 0-2 1c-1.6.2-4.5 1.5-5 3a7 7 0 0 0-5 3c-1.7-.1-6.1 2.5-7 4q-.7 0-1.3.2a1 1 0 0 0-.8.7l-1.1.1-8 5-3.8 2-1 .7-19.1 1.2c.2-1.3 2.6-1.3 3.4-2.2Q81 447 95.5 438c2-1.5 9.4-5 10.5-6.8q1-.3 1-1.4.2-.4.7-.7.9 1.6 1.2-.3a18 18 0 0 1 4.5-2.8c4-.7 17.3-10.8 20.6-12.9 6.6-.3 28-.7 32.8-3.9.6-1.6-1-2.1-2.3-2.2h-25q-7.2 0-14.4-.6v-.3q9.9-5.4 19.2-11.5 4.6-2.4 8.8-5.1 1.5-1-.3-1.3 1.2-1.5 3-2 1 1.5 1-.4c12.6-7.2 24.1-15.5 37.4-21q1.4-1.2 2.5-2.5h7.8q1-.2 1.6-1c4-.8 25.4 1.4 26.4-3-1.6-2.6-13.2-2.4-16.3-2.9a1101 1101 0 0 0-56.6-.2c1.7-3 27.1-17.2 32-20.1q3-2.3 6.5-4c2-1.8 5.6-2.8 7-5q3-.6 4.9-3.1c1.4 0 4.6-1.6 5-3q1.4.3 2-1 2.1-.2 3-2c.5.2 2.7-.3 1.6-1.1q-1 .2-1.6 1-2.1.2-3 2-1.4-.2-2 1c-1.5.3-4.5 1.6-5 3-1.7.2-4.3 1.4-5 3.1-2.1-.2-5.3 2.5-7.1 3.6L190 334q-16.8 10-34 19.7a2 2 0 0 0-.7 1.4l-28.4.7 65.1-40.5c.6-.6 2.8-1.3 2.8-2.2 4.5 0 42.2-.9 38.7-8.2a4 4 0 0 0-3-2c-40.5.8-81.2-1.7-121.7-1.7q0-.7.6-1 5-2.7 9.7-5.8a5 5 0 0 1 3-1.9q.7-.9 1.5-1.4l7.8-4.1 2.2-1.7 10.8-6.5q1-.7 1.6-1.7 1.4 0 2-1 2.2-.3 3-2.2c.5.3 2.7-.2 1.5-1a2 2 0 0 0-1.5 1q-2.3 0-3 2.1-1.4-.3-2 1l-1.3.3-12 6.9q-1 .6-1.6 1.4a75 75 0 0 0-12.6 7.3q-6.2 3-12.3 6.6-1 .4-1 1.5c-12.5 1-37.5-.3-48.2 5.4-3.5 3.2 3.3 6 6 5.6-1.2 2.4-10.2 7-12.9 8.2q-1-.3-2.2.1l-16.1 9.4a174 174 0 0 1-14.9 8.5q-.5-5.5-.2-11.1 1.2.2 2.4-.3 30-19 60.5-37.7l3.2-2.4 1.8-.6q3.3-2.4 6.8-4.4 1-.6 1.6-1.7 3-.6 5-3 2.3 0 3-2 1.5.3 2-1c1 .3 4.3-.8 2.7-2q-2 .3-2.8 2-1.3-.1-1.9 1-2.1 0-3 2c-1.8-.2-4.2 1.3-5 3q-1-.1-2 .4-3.7 2.3-7.7 4.4-.9.4-1.3 1.5c-1.3-.4-2.9 1.2-4 1.7a4999 4999 0 0 0-60.8 35.3 2 2 0 0 1-.8-1.8l-.2-8.6 1.9-.8 1.2-.8 3-2 .7-.5 1.4-.7 1.5-1.4q.8 0 1.4-.7l1.8-1 1.2-.7L32 303l1.2-.8 5-3.3 2-1 1-1L46 294l1.2-.8q2-1 3.6-2.6.8-.2 1.4-.6l1.7-1 1.3-.9L57 287l1.2-.8L60 285q.8-.3 1.2-.8l.7-.5 1.3-.8 2-1.1 1-.9 1.7-1 1.2-.8L71 278l1.2-.8q1.9-1 3.5-2.6.9 0 1.6-.7l1.8-1 1.2-1a35 35 0 0 0 6-3.7l.5-.6 1.5-.6 1.4-1.3 1.5-.7 1.8-1 1.2-.8L96 262l1.2-.8q1.8-.7 1.7-2.6 58.5 1.8 117-1.7.9 3.4 4.5 3c1-.2 6.3-2 3.4-3.4 13.4-.8 13-16.4 13.8-26.5 2.8 0 7-1.8 8.6-4.2q1 .1 1.7-.4l19.3-11.2.8-.5 1-.7q1-.7 2-1l1.3-.8q.5 0 .8-.3.8-.3 1.2-1l3.7-2q.6-.2 1.2-.7l.6-.5q.8 0 1.5-.7l5-2.8.5-.5 1.5-.8 5-2.7.5-.7q.8 0 1.4-.6l3-1.7.7-.5q.8-.2 1.4-.7l5-2.8.7-.6q.6-.2 1.2-.7a38 38 0 0 0 5-2.7l.7-.6 1.3-.6 5-2.9.7-.5 1.4-.7 3-1.7.8-.6q.7 0 1.1-.7l5-2.7.9-.5 1-.8a34 34 0 0 0 5.1-2.7l.7-.5 1.2-.8a57 57 0 0 0 8.9-5q.6-.2 1.2-.7l.9-.6q.6 0 1.1-.6l3.8-2 1.2-.8.9-.6q.7 0 1-.7a38 38 0 0 0 5.1-2.7l.7-.6q.9 0 1.4-.7l10-5.7.7-.5q.8 0 1.1-.8l5.1-2.7.6-.6 1.5-.6 4.9-2.8.7-.5q.8-.2 1.3-.8l3-1.7q.7-.6.7-1.5 9-.7 18.3-.6Zm-99.1 3q.4 0 .8-.3 7 0 14 1l-.2 1c-3.7 2.4-11.6 6.7-14.6 9.4l-.8-.3-.5-10zM467 144q-1.2 0-2.2.3l-9 5.4q-.7.5-.9 1.3c-1.6 0-4.5 1.4-5 3a7 7 0 0 0-5 3q-1.5 0-2 1-2 .3-3 2-1.2-.3-1.9.7c.6 1 1.9 0 1.9-.8q2.1 0 3-1.8 1.5.2 2-1a8 8 0 0 0 5-3c1.4-.3 4.7-1.4 5-3q1 0 2-.4c1.9-1.6 9.3-4.8 10-6.7q1.3 0 2-.9 1.7-1-.3-1-1.2.6-1.6 2Zm23 7 .9-.3q4 2.7 5 7.6-1 0-2 .7l-1.3.7-6.8 4.2-1.2.8-.7.5-1.4.8-2.9 1.7-6.8 4.2-1.8 1.3q-.8 0-1.4.7l-1.8 1-1.2.8-5 3-3 2-.6.6-1.5.6-1.7 1-1.2.8q-2 1.4-4 2.3l-1.1 1-1.7 1q-.7.2-1.2.7l-.6.5-1.5.8-3 1.7a67 67 0 0 1-6.7 4.2l-1.2.8-.6.6q-.8.2-1.4.7l-3 1.7a62 62 0 0 1-6.8 4.2l-1.2.8-.7.5-1.4.8a94 94 0 0 0-11 6.7l-.6.6q-.7 0-1.2.7l-1.9 1-1.2.8-.7.6q-3.5-5.3-7.2-10.2l1-.4q.9 0 1.6-.7l5-2.8.6-.6q.8-.2 1.4-.6l5-2.8 5-3 .9-.3 1.1-1a64 64 0 0 0 7-4l6.9-4 3.7-2q.8-.2 1.3-.7l5-3 .7-.6q.9 0 1.4-.6l5-2.8.5-.5 1.5-.7 5-2.8.7-.5 1.2-.7 3-1.8.7-.2 1.3-.8 5-3 .7-.5 1.3-.8 5-2.7.8-.6q.8 0 1.2-.7l5-2.7.8-.6 1.2-.6q2-1.2 4-2.1.6-.3 1-.9zm-236 16.1-6 .6c-.9-.8-2.3 0-2.8-1.1q1.2-1.2 2.7-2l16-9.3q1.1-.7 2 0a6 6 0 0 1-1.8 2.3c-2.4 2.6-8.6 6.7-10.1 9.5Zm242-1 .9-.2q0 5.6-.6 11.1-1.2-.1-2.3.4l-62.2 38a165 165 0 0 0-10.2 5.9 5 5 0 0 0-1.6 1.5l-1.2.4c-5.5 2.5-9 6-13.4 9.9q-1-6.8-3.2-13.3 2.1-.6 3.9-1.7l1.2-.8.8-.5q.8 0 1.2-.7a137 137 0 0 0 10.7-6l1.3-.8 5-3 .7-.6q.8-.2 1.3-.6l5-2.8.6-.5q.8-.2 1.4-.8l5-2.7.7-.6q.8-.1 1.3-.7a85 85 0 0 0 10-5.7l.8-.7q.9 0 1.3-.6a35 35 0 0 0 5-2.7l.8-.6 1-.6 5.1-2.8.8-.7q.8 0 1.2-.6a67 67 0 0 0 10-5.7l.8-.6q.8 0 1.2-.7l5-2.7.8-.6q.6-.2 1.2-.7l5-2.7.8-.5 1.3-.7zm-.1 28.7v11.4q-1-.2-2 .4l-4 2.9-4 2-.9 1a87 87 0 0 0-9 5 1 1 0 0 0-.7 1.2c-2.8 0-8 4.3-10.7 5.6q-.9.5-1.4 1.5l-1.4.2c-1.7 1.2-8.2 4.3-8.8 6a7 7 0 0 0-5 3c-1.7 0-4.4 1.5-5 3q-1.5-.4-2 1-3 .8-5 3-2.1 0-3 1.9a2 2 0 0 0-2 .8c.7 1 1.7 0 2-.8q2.2.2 3-1.9c1.5.3 4.4-1.6 5-3 .6.1 2 0 2-1 1.3-.2 4.7-1.4 5-3a7 7 0 0 0 5-3c2.1.2 7.3-3.5 9.1-4.8l1.2-.4 10.7-6.2q1.2-.6 1.3-1.9c2.2.7 5.6-2.4 7.3-3.6l5.5-2.6q.6-.8 1.4-1.3 3.5-1.3 6.4-3.5.3 16.3 1 32.5a3 3 0 0 0-1.6.5l-65.6 40.6q-5.6 3.2-11.2 6.8a1 1 0 0 0-.4.8l-1.3.3c-3.3 5.1-9.7 4.3-12.5 8.6-4.6.1-6.8 5-11.1 6.4a10 10 0 0 1-3.8-9.4c7.9-8.8 15.1-18.8 16-31q2.8-1.6 5.4-3.6c5.7-4.8 5.6-11.2 4.6-18a10 10 0 0 1 4.7-3.2q.7-.2 1.2-.7l2-1.2 5-2.8.8-.6q.8-.1 1.3-.7a107 107 0 0 0 10.6-6q.8-.3 1.3-.7l5-3 .8-.6q.8 0 1.3-.7l6.8-4 3.9-2q.6-.2 1.2-.7l.6-.5 1.3-.7 4.1-2.2 1-.8 3.8-2 1.2-.8.7-.7q.8 0 1.3-.6l5-2.7.8-.5q.6-.2 1.3-.7l5-2.8.6-.5 1.3-.7 1.8-1 1.2-.8.8-.6q.7-.2 1.3-.6zm-132.6 7.9a15 15 0 0 1-4 3 386 386 0 0 1-18 10c-.8-.5 0-1 .4-1.6q5-5.4 9.5-11.3 6-1.5 12.1-.1Zm20 10.4c1.7 1 3 3 3.8 4.8l-23.6 13.2c-.9-.6 0-1.1.5-1.7q9.9-7.8 19.4-16.3ZM74 215.8h8q-.3.8-1.1 1.4-5 2.6-9.4 5.5-.7-.3-.4-1 1.8-2.7 2.9-5.9Zm25 0h8c-.4 1.4-12.7 8.3-15 9.8-.7.6-2.5.6-1.7-.7 2.2-2.2 7.8-6.2 8.7-9Zm25 0h13c-9 5.9-19.2 10.6-28 17q-.9.2-1.6-.4 7.6-6.6 14.7-13.8 1.4-1 2-2.8Zm29 0h11q-.3.9-1.1 1.5-12 6.5-23.5 13.8-1.4 0-.9-1.1a167 167 0 0 0 12.6-11.3q1.4-1.1 2-2.9Zm45 0h10c-1 1.9-19.3 12-22.6 14.2q-1.2 0-.9-1 6-4.9 11.8-10.2 1.4-1.2 1.7-3ZM55.4 219a73 73 0 0 0-3.1 16.9l-1.5.6C39.6 243.4 24.7 251 14.2 258l-.2-11.3q.9-.2 1.6-.6l32.5-21.6q1.5-1.2-.2-2c2.4-.8 5.1-3.7 7.5-3.6Zm167 .6a19 19 0 0 1 2.4 7.4 95 95 0 0 0-16.7 9.5q-1 .4-1.7-.1 8-8.2 16-16.8ZM477 230q-3 .7-5 3a15 15 0 0 0-7 4.1q-2.1.3-3 2-1.1-.3-2 .7c.7 1 1.7 0 2-.6q2.1-.2 3-2c1.3 0 6.5-2.5 7-4.1 1.8.2 4.2-1.4 5-3a4 4 0 0 0 2-.3q6.3-3.7 12.2-7.5 1.5-.9-.4-1.2l-12.8 7.7a2 2 0 0 0-1 1.3Zm-85.8-3q1 2.2 1 4.8l-2.2.8-17 10.1q-.9.6-1.8 0 .1-.7.7-1zM180 253.5h-12.8c-1.1-.4-3.3.2-4-1a810 810 0 0 0 33.4-19.6q1.2 0 1 1c-3 3.1-17 16.7-17.6 19.6Zm-107.2 0q-3.4-1.2-5.4-4.3 10.7-5 20.5-11.9c1.5-1 2.7.2 1.2 1.3zm246.9 2.5a6 6 0 0 1-4.9-3.9l22.2-12.6c1.3-.5 2.3-3 3.7-1.9-4.6 4.7-17.4 14.3-21 18.4Zm-228.3-3.2c7.4-5 16.4-9 23.6-14.2 1.4-1.1 2.7 0 1.2 1.1a179 179 0 0 0-14.8 13.4c-2 .4-8.4.7-10-.3Zm-38.7-13q.5 7.2 2.7 14.1c-1.7-.5-2.7 1.4-4.4 1.6q-18 10.2-36 20.8l-.2-11.5q1 .2 2-.4c11-7.7 25.7-16.7 36-24.6Zm83.8 13q8-4.8 16.3-9.4 2.2-1.4 4-3c1.6-1 3.1 0 1.5 1.3l-13 11.3c-2.6.3-6.4.9-8.8-.2ZM394.1 241l5 2c-1.4 1.8-17 9.8-20.1 12.2q-.9.6-1.8.1 0-.7.7-1 7.8-5.7 15.1-11.9 1-.5 1.1-1.4ZM55.4 253.9a3 3 0 0 0 3.3 1.8q18 1.8 36.3 3.3l-.3 1-1.8 1q-.6.2-1.2.7l-.7.5q-.8.3-1.3.7L86 265l-1.2.8-.7.5q-.8 0-1.5.7l-3 1.7-1 .4-1 .9a36 36 0 0 0-5 2.7l-.6.5-1.3.7-5 2.8-.7.5q-.8.2-1.2.8a30 30 0 0 0-5 2.7l-5.1 3-.6.6q-.8.1-1.3.6l-5.1 2.8-.8.6a64 64 0 0 1-13.2 7.4l-5 3-.8.5-1.3.7-6.9 4-2.7 1.4q0-5.7-.2-11.3 1.2.3 2.3-.2L65 264q1.2-.6 1.8-1.8l1.3-.3q3-1.4 5.5-3.6c-.3-1-1.3-.3-2-.1q-2.1 1-3.6 2.7-.8 0-1.4.3-1 .7-1.8 1.5-1.5.3-2.9 1.3l-45 26H16c-1-2.6-.6-7.3-.9-10a7 7 0 0 0 2.4-.9c5.3-3.4 36.3-22 37.8-25.2Zm222.7 19.2q-1.5-.5-2 1-2.4-.2-3.1 2-1.5-.4-2 .8-2.1.2-3 2-1.1-.2-2 .8c.7 1 1.7 0 2-.7q2.2-.2 3-2 1.5.2 2-1c1-.4 3-.5 3-2q1.5.3 2.1-1 2.5-1 5-2.3 6.9-4.2 14-8c.9-.6 1.5-1.3.6-2.1q-1.1-.2-2 .6l-16.1 10q-1 .6-1.5 1.9ZM393 261.9q.3 2.1 0 4.1l-13 7.5c-1.5 1-2.5.2-1-1l12.2-9.7q.8-.7 1.8-.9Zm103.2 2.2 1-.4c1.1 1.9.5 8.1.9 10.5q-1-.3-2 .2l-67 42.2q-1 .6-1 1.7-9-2.7-18.2-4.9l1.4-.4q.6-.2 1.1-.7l.7-.2 1.3-.8 5-3 .8-.6q.8 0 1.2-.7l5-2.7.7-.6q.8-.1 1.3-.7l10-5.7.7-.2 1.3-.8 5-3 .7-.6q.8 0 1.2-.7l5.1-2.7.8-.6q.8 0 1.3-.6l5-2.8 5-3 .5-.5 1.5-.7 5.6-3.3q.8-.2 1.4-.8l5-2.7.6-.7 6.3-3.4.7-.5q.8-.2 1.3-.6l1.8-1 1.2-.8.7-.6 1.3-.6zM331 281.3a7 7 0 0 1-2-4.3 127 127 0 0 0 19.1-10.6q1-.5 1.8.1 0 .7-.7 1c-5.6 3.3-13 11.3-18.2 13.8Zm-28-4.2c-1.6-.2-4 1.3-5 2.8q-1.5-.1-1.9 1.2-2 .3-3 1.8a2 2 0 0 0-1.9.8c.6 1 2 0 1.8-.8q2.1.2 3.1-1.8 1.5.3 2-1.2c1.2.2 4.7-1.5 5-2.8 1 0 6-2 4.6-3.2-1.5.4-4 1.5-4.6 3.2Zm37.4 16c-.4-2.6-1.8-2.3-3.4-4q11-6.1 22-12.6c.6 0 1.5-1 1.8 0-5 4.3-15 14.2-20.5 16.7Zm156.5-13.3h1q.9 15.3 1.2 30.4-1 0-1.7.5l-5.8 4.1q-1.7.2-2.6 1.7a64 64 0 0 0-7 4q-.9.6-1.2 1.8c-1.8-1.3-4.6 2.1-6.2 2.7q-.4.4-.4.9l-1.3.2c-1.5 1.1-6.4 3.1-6.8 5-1.7-.3-4 1.4-5 2.8a2 2 0 0 0-1.8.9c.6 1 1.9 0 1.8-1 1.3.3 4.7-1.4 5-2.7 1.2.1 6.6-3 7-4l1.3-.2a45 45 0 0 1 5.7-3.5q.6-.5.7-1 1.2-.2 2.3-.8 2.1-.9 3.6-2.5 6-2.8 11.4-6l.8-.2q.4 5.1.2 10.3a3 3 0 0 0-1.7.5q-7 4.4-13.8 9.2l-4 2q-1.5.8-1.7 2.4c-.5-.4-2-.5-1.7.5l-1.4.3c-1.8 1.1-5.9 3-6.7 4.9-1.2-.1-5 1.7-5 3-1.8-.2-3.8 1.5-5 2.6.8 1.5 4.5-1.6 5-2.6 1.5 0 4.6-1.4 5-3q1 0 2-.5 2.9-1.4 5-3.4l1.3-.1 1.5-1.7q1.8-.3 3.2-1.3c6-3.5 11.9-7.2 18.2-10.2 0 11 .8 22 .2 33l-.2 1.5-1.3.2q-5.2 3.1-10.1 6.9-2.7 1-4.8 3.2c-2.8.8-4.6 2.6-7 4a3 3 0 0 0-1 1.4c-1.7-.4-2.2 1-3.1 2q-1.1-.3-2 .6c.6 1 2.2.4 2-.6q2-.3 3.1-2a25 25 0 0 0 9-5c.8-.3 4.5-1.6 3.6-2.8q.9.1 1.7-.2 5-2.5 9.7-5.4c1 2.3.6 9.4-.3 11.7q-.9-.5-1.8.1c-.8 1.3-4 2-4 3.5q-2.6-.2-3 2.4c-2-1-4 1.2-4.9 2.7q-2.3-.1-3 2a2 2 0 0 0-2 .7c.6 1 1.8 0 2-.8 1.1-.3 2.7-.3 3-1.9q3-.4 4.8-2.7c1.3-.3 3.3-.7 3.2-2.4 1.6.7 4.3-2 6-2.2.7 3.3 0 8.1 0 11.6-1.9-.2-32.9 24-37 27.2q-.7.5-.7 1.4l-1.4.1q-1.4.6-1.9 2c-.6.2-3.5.8-2.5 2q1.8-.2 2.5-2a2 2 0 0 0 2.1-.9l1.3-.4 37.5-21.8-.8 12.3-1.7.7a79 79 0 0 1-10.4 7.6q-.8.5-.8 1.4c-.9.6-3 .5-3.1 1.7 1 1.2 2.6-.9 3-1.7q1 0 2-.3l10.8-6.8a293 293 0 0 1-1.8 15.4c-2 0-5.7 4.7-7.5 5.8q-1.6 1.1-2.5 2.8-.7.2-.6.8.4-.2.6-.8 2.1.2 3.6-1.2l4.4-2.5.8-.2c-.4 7.5-4.1 27.4-14.5 27q-16.2.5-32.4 0l.4-.8 15.7-14.5q.9-.8.7-2l1.5.3q1.5-.9 2.4-2.4c-1-.6-2.4.2-2.8 1.2l-1.1.6-28.1 16q-1.2.6-1.4 1.8c-4.3 0-13.6.6-17.3-.2l.3-1q10-7.8 20.3-15.2-.3-.5-1-.5l-23.3 13.5c-1 1-4.2 1.6-4 3.4q-9.3.3-18.7.1l48-36.6q-.3-.4-.9-.4-2 1.6-4.4 2.4l-57 33q-1 .5-1 1.5c-5 .2-12.7.5-17.3-.2l.3-.8q8.4-5.8 17-11.4a3 3 0 0 0 1.4-1.6c1.2-.5 3-.5 3.2-2 .5 0 2.7-.4 1.6-1.2a2 2 0 0 0-1.6 1.1 3 3 0 0 0-3.2 2c-3.4.6-9 4.9-12.1 6.8a133 133 0 0 0-10.6 5.8q-.7.6-.7 1.5-9.4.3-18.7.1 0-.6.7-1 13.8-9 27.8-17.7.9-.4.8-1.2 1.6 0 2.2-1.3c.5-.2 4-1.2 2.5-2q-1.8.2-2.5 2-1.6-.3-2.2 1.3c-1.6.1-13.5 6.8-15.4 8.5q-9 4.6-17.5 9.8-.7.5-.7 1.4-29.8.3-59.6 0 .1-.5.7-.8l28.5-18q.7-.3.8-1.1l1.5-.2a4 4 0 0 0 1.7-1.8 8 8 0 0 0 5.2-3q2.3 0 2.9-2.1 1.5.3 2-1c.9-.1 4.3-.6 2.6-2q-1.9.3-2.6 2-1.3-.2-2 1-2.2 0-2.9 2c-1.9-.1-4.3 1.4-5.2 3q-1.2-.3-2 .8l-1.1.5-33.7 19.4a2 2 0 0 0-.8 1.3q-8.7.4-17.4 0l.4-1c7.4-4.6 14.7-9.7 22.2-14l1.6-1 12.6-7.7q1.5-.8 2.4-2.3a2 2 0 0 0 2-1q2.1-.1 3-2c.5.2 2.6-.4 1.4-1.1q-1 0-1.4 1-2.3 0-3 2.1-1.5-.3-2 1-1.2 0-2.1.6l-16 9.4-25.1 14.4q-1 .8-.8 1.8-27 .1-54.2-.3l.5-.9 1.7-1q.6-.2 1.2-.7 1.9-1 3.5-2.6a3 3 0 0 0 1.5-.7l1.8-1 1.2-.7 1.8-1.2 1.2-.8.7-.5q.8-.2 1.4-.8l1.7-1 1.2-1 1.8-1q.6-.2 1.2-.7 1.9-1 3.5-2.5a3 3 0 0 0 1.5-.8l1.8-1q.6-.2 1.2-.7l3.6-2.5 1.4-.7 1.8-1 1.2-.8 1.8-1.2 1.2-.8.7-.6q.7-.2 1.3-.6l1.9-1.1 1-1a36 36 0 0 0 6.7-4.2q.8-.2 1.4-.8l3-1.7a13 13 0 0 0 3.4-2.6q1 0 1.6-.7l1.8-1 1.2-.7 1.8-1.2 1.2-.8.9-.5 1.1-.7q1-.7 2-1l1-1q.9-.7 1.8-1l1.2-.8c.8-.5 3.4-2.6.7-2.7l4.2-2.4c2 3.3 5.5 5 8.8 6.9q.3.8 1 .6c42.8 21.1 98.2 12 143.4 5 34.5-11.3 34.4-78.3 4.5-96.8q0-.3.4-.6zM226.1 294c-.7 0-2.2-.1-2 1q-2.2 0-3.2 2c-1-.3-6 2.2-4.5 3.1a9 9 0 0 0 4.5-3.1q2.4 0 3.2-2 1.4.3 2-1c1 0 2.8-.1 3-1.5-1.2-.7-2.7.3-3 1.5Zm151.3 10q1.5 3.5 3.6 6.6-21.7 12-43 24.7-.9.5-1.8.1 0-.6.7-1a1572 1572 0 0 0 40.5-30.4Zm-286.5 7.3a2738 2738 0 0 0 101.4 1.8c0 1.3-1.6 1-2.4 1.4q-34 19.4-67.9 39.2-1.5 1-2.9 2.2c-18.4.5-37-.8-55.2 1.5q-3 .2-5.5 1.1 1.6 1 3.5 1a659 659 0 0 0 47.2 1.6q-.2.6-.9.8-2.2.7-4.2 2.1l-1.3.7-5 3-.7.6q-.7 0-1.3.6l-5 2.8-.7.6q-.8.1-1.4.7a32 32 0 0 0-4.9 2.8l-.8.4-1.2.8-3 1.6-.7.4-1.3.7-5 3-.8.6-6.2 3.4-.8.6-1.2.6-5 2.8-.8.6q-.6.1-1.1.6l-3.2 1.8-.9.4-1 .8-5 2.8-.7.5q-.8.1-1.3.7l-5 2.9-.7.5q-.8 0-1.2.7a27 27 0 0 0-5 2.8l-.8.5q-.8 0-1.4.6l-1.7 1-1.3.8-.7.6q-.7.2-1.3.6l-5 2.8-.8.6-1.2.6q-1.1.8-2.5 1.3c1.4-19.4 1.2-38.8 1.6-58.3q1.4.8 2.6-.1L89.1 313q.6-.3.9-.9.7-.1 1-1Zm297.2 5q1.6.5 2.9 1.6l-18 10.6-2.1.5q.2-1 1-1.4 8.3-5.6 16.2-11.4Zm37 14.5q2.3.3 3 2.2l-28 16.6-2.2.4q.2-.9 1-1.5 13.3-8.7 26.2-17.7ZM279.3 367a28 28 0 0 1 0-7.2l37.6-22.2a2 2 0 0 1 1.9-.3q-16.5 12.9-33.4 25.5-3 2.3-6.1 4.2ZM492 341a7 7 0 0 0-5 3 3 3 0 0 0-3 1.8q-1.5 0-2 1.2a3 3 0 0 0-3 1.5c1 1 2.5-.7 3-1.5q1.5 0 2-1.2 2 0 3-1.8a7 7 0 0 0 5-3q1.2 0 2-.7 1.7-1.2-.3-1.3-1 .7-1.7 2Zm-57.8-1.1c1.3.5 1.4 2.6 1.8 3.9q-1 0-2 .5l-21 12.2-2 .5q.1-.9 1-1.5 11.2-7.6 22.2-15.6Zm61 11q-2.4 0-3.2 2-1.5-.1-2 1.1-1.9 0-3 1.5c1 1 2.5-.6 3-1.5q1.5 0 2-1.1 2 0 3.1-2c.8.3 4-1.3 2.5-2q-2 .2-2.5 2Zm-58 3q.6 2.5.4 5A283 283 0 0 1 411 374q.1-.9 1-1.5a933 933 0 0 1 25.3-18.5ZM39 356.2a3 3 0 0 0-3 2q-1.4-.3-2 1-2.1 0-3 2a2 2 0 0 0-2 .8c-1.5.2-4.5 1.6-5 3.1-1.4-.1-4.4 1.5-5 2.7.7 1.5 4.4-1.7 5-2.7a7 7 0 0 0 5-3q1.4.2 2-1 2-.2 3-2 1.4.2 2-1 2.1 0 3-1.9c.5.1 2.8-.4 1.6-1.2q-1.2 0-1.6 1.2Zm77.9 5.1h26.3l-78.4 45.1q-1.1.6-.5 1.7-4 .3-7.7 1.3c-2.2.3-1.6 2 .6 1.8-.3 1.1-2.4.8-3.2 1.4l-39 22.8-.3-11.4q1.9.3 3.4-.8l1.2-.8a23 23 0 0 0 3.5-2.5l1.6-.7 3-1.8q1.8-1.4 3.9-2.3l1-1a13 13 0 0 0 3-1.7l.7-.6q.8-.1 1.3-.7l3-1.7q2-1.2 3.6-2.5.8-.2 1.4-.7l1.8-1 1.2-.8 6.8-4.2 1.2-.8.6-.6q.8-.2 1.4-.7l1.8-1q.6-.2 1.2-.7a24 24 0 0 1 4-2.4q.7-.3 1-.8l1.8-1 1.2-.8 6.8-4.2 1.2-.8.8-.5 1.3-.8 3-1.7a19 19 0 0 1 4-2.3l1-.9 3-1.8.8-.6 1-.7 1.9-1q.6-.2 1.2-.7 2-1 3.4-2.7.9 0 1.6-.6l3-1.7 3.9-2.3 1.1-.9 3-1.8.7-.6 1.3-.7 1.8-1q.6-.2.9-.8.6-.3.9-1ZM28 374.1c-1.3-.3-4.5 1.5-5 2.9q-1.4-.2-2 1-2 0-3 1.6c.9.9 3.3-.3 3-1.6q1.4.2 2-1c1.2.1 4.7-2 5-3 1.9 0 3.8-1.4 5-2.6-.8-1.4-4.6 1.6-5 2.7Zm21-1.1c-1.9-.1-4 1.6-5 3-1.8-.2-4.3 1.5-5.1 3q-1.4-.2-1.8 1-2.4 0-3 2-1.6-.4-2 1.1-1.2-.1-2.1.4a89 89 0 0 1-8.4 4.8l-1.6 1.5-1.3.4q-2.1.3-1.8 2.3c1 .7 1.6-1 2.1-1.5h1c2.3-1.8 11-5.8 12-7.9q1.5 0 2-1 2.3-.2 3-2.1 1.5.3 1.9-1 3.1-.4 5-3c1.7-.1 4.4-1.4 5-3a2 2 0 0 0 2-.8c-.6-.9-1.7.1-2 .8Zm389-1.2q.3 3-.1 6c-5.5 2-12.5 7.5-18 9.3 2.6-3.2 14.6-13.4 18-15.3Zm-138.3 35.3q-2.5-.3-4.7-1.7c11.2-6.9 23.2-12.8 34-20.1q1-.4 1.7.3-15.6 10.4-31 21.5Zm42.4 8q-5.6.1-11-1 .4-.8 1.3-1.3a1933 1933 0 0 0 43.6-25.4q1-.8 2 0-.1.9-.9 1.2c-4.3 1.8-32.3 23-35 26.5ZM35 393q-1.5-.2-2 1-2.4 0-3.2 2-1.3-.3-1.9 1c-1.3 0-4.4 1.4-5 2.7.7 1.1 4.8-1.5 5-2.7.7 0 2.1.1 2-1 1-.5 2.7-.5 3-2q1.5.3 2-1c1.5-.2 4-1.6 5-2.7-.8-1.1-4.5 1.5-5 2.7Zm340 21.2c-5.4 1.2-10.6 1-16 .8q.2-.9 1.2-1.4 20.2-11.4 40.5-23.2.6-.3 1.1 0-12 10.6-24 20.8-1.7 1.4-2.8 3ZM346 391c-2.4 3-24.5 16.9-29 21.2q-3.2 0-6-1.3 0-.6.5-.8c6.6-3 29.8-18 34.5-19.1Zm60.7 19.1a88 88 0 0 1-11 2q.5-1.1 1.4-1.5l17.3-9.7q0 .3.3.4-4.1 4.3-8 8.8Zm-342 2q10.2.7 20.4 1c.2 1.3-1.5.7-2.3 1.2l-59.6 34.4q-.9.5-1.4 1.4-3.5-3.6-5-8.3c2.6.1 42-25.3 47.5-28.8zm23 1 21.3.2-75.1 43c-3.3-.8-7-2-9.4-4.3l62-37.6q.9-.5 1.2-1.2Zm229.3 28a2 2 0 0 0-2.2.8q-2 .3-2.9 2.2c-1.8-.2-4.2 1.3-5 3q-1.5-.4-2 .8l-1.3.2-7 4q-1.2 1 0 1.7c1.2.3 6.1-3.6 7.2-4.5l1.3-.4q1.2-.6 1.8-1.8a8 8 0 0 0 5-3q2-.3 3-2.2 1.4.4 2-.8 1.2 0 2.2-.5 1.8-1.6-.6-1.3-1.2.5-1.5 1.8Zm12 4.9q-2.4 0-3.2 2-1.5-.2-2 1-2.1 0-2.9 2c-1.3-.2-9 3.1-6.7 5 1-.3 6.5-4.2 6.7-5a3 3 0 0 0 3-2q1.3.3 2-1 2-.2 3-2 1.2.2 1.9-.7c-.6-.9-1.8 0-1.8.7Z"/><path fill="#dedefa" fill-opacity=".2" d="M321 451c-.2.8-5.8 4.7-6.7 5-2.3-1.9 5.4-5.2 6.7-5"/><path fill="#e2e2fa" fill-opacity=".3" d="M324 449a3 3 0 0 1-3 2q.8-2 3-2"/><path fill="#e2e2fb" fill-opacity=".3" d="M30 396c.1 1.1-1.3 1-2 1q.5-1.3 2-1"/><path fill="#e2e2fa" fill-opacity=".4" d="M482 385c-.2.7-1.4 1.7-2 .7a2 2 0 0 1 2-.8"/><path fill="#e1e1f9" fill-opacity=".5" d="M28 374c.4-1 4.2-4 5-2.6-1.2 1.2-3.1 2.6-5 2.7"/><path fill="#d5d5eb" fill-opacity=".2" d="M278.1 273q.4-1.1 1.5-1.8l16-10q1-.7 2-.6c1 .8.4 1.5-.5 2q-7.1 3.9-14 8.1-2.5 1.4-5 2.4"/><path fill="#e1e1f9" fill-opacity=".5" d="M407.9 167q-.3 1.6-1.7.7.6-.8 1.7-.7M296 281q-1 2-3 2 1-1.7 3-2"/><path fill="#e2e2fa" fill-opacity=".5" d="M440 160c0 .7-1.3 1.7-1.9.7q.6-1 1.9-.8M49 373c.2-.7 1.3-1.6 1.9-.8a2 2 0 0 1-2 .8"/><path fill="#898996" fill-opacity=".9" d="M76.8 406c.3 1.1-1.5 1-2 .9q.5-1.2 2-.9"/><path fill="#babedb" fill-opacity=".4" stroke="#babedb" stroke-opacity=".4" stroke-width=".5" d="m204.1 57.3.2.7q-.3.8-1 1.4c-.2-.9-.7-2.6.8-2.1Z"/><path fill="#d8d8ef" fill-opacity=".3" stroke="#d8d8ef" stroke-opacity=".3" stroke-width=".5" d="m499 311.6-.2 1.3-.8.2q.4-1 1-1.5Z"/><path fill="#d7d7f2" fill-opacity=".2" stroke="#d7d7f2" stroke-opacity=".2" stroke-width=".5" d="M490.2 149.7q.6.3.8 1l-.9.3z"/><path fill="#bfbfdf" fill-opacity=".2" d="m229.2 57.5-1 .6q0-1 1-.6"/><path fill="#c2c2d8" fill-opacity=".4" stroke="#c2c2d8" stroke-opacity=".4" stroke-width=".5" d="m497 243.7-.3 1.2-1-.3q.4-.7 1.2-1Z"/><path fill="#7481b4" d="m281 410 1 .7q-.7.1-1-.6"/><path fill="#9999a7" fill-opacity=".8" d="M279.3 379q.4 0 .7.3l-.6 1z"/><path fill="#4e6cd8" fill-opacity=".1" stroke="#4e6cd8" stroke-opacity=".1" stroke-width=".5" d="M284.9 377.3q-.1.6-.9 1 0-1 .9-1Z"/><path fill="#ddddf7" fill-opacity=".1" d="M486 433.8q0 .6-.5.8 0-.6.6-.8"/><path fill="#65656e" fill-opacity=".7" d="M499.4 358.7q0 .9-.2 1.6z"/><path fill="#bfc4e1" fill-opacity=".2" stroke="#bfc4e1" stroke-opacity=".2" stroke-width=".5" d="M300 65.7V67h-1q.3-.8 1-1.3Z"/><path fill="#bfbfe2" fill-opacity=".2" stroke="#bfbfe2" stroke-opacity=".2" stroke-width=".5" d="m206.2 55.3-.1.7-.9.2q-.1-1.1 1-1Z"/><path fill="#7a7a85" fill-opacity=".4" stroke="#7a7a85" stroke-opacity=".4" stroke-width=".5" d="m222.7 175.4 1.4-.1q-.3.6-1 .8z"/><path fill="#dedef5" fill-opacity=".5" stroke="#dedef5" stroke-opacity=".5" stroke-width=".5" d="m9.2 451 .6-.1.2 1.3q-1-.3-.8-1.3Z"/><path fill="#878794" fill-opacity=".9" d="M10 452.2q.9 0 .8 1z"/><path fill="#7e7e89" fill-opacity=".5" d="m83 456 .3.7h-1.4z"/><path fill="#ababc0" fill-opacity=".2" stroke="#ababc0" stroke-opacity=".2" stroke-width=".5" d="m12.2 213.1.7-.2q-.1 1-.8 1.1z"/><path fill="#b1b6cf" fill-opacity=".2" stroke="#b1b6cf" stroke-opacity=".2" stroke-width=".5" d="m220 47 .2.8-1.2.2q0-1 1-1Z"/><path fill="#dedef6" fill-opacity=".4" stroke="#dedef6" stroke-opacity=".4" stroke-width=".5" d="m314.4 152.1.8.3-1.4.7z"/><path fill="#c4c4d8" fill-opacity=".4" stroke="#c4c4d8" stroke-opacity=".4" stroke-width=".5" d="m190 140.2 1.4-.1q-.7.8-1.8.9z"/><path fill="#a9a9ba" d="m19.3 139 .7.3a1 1 0 0 1-1 .6z"/><path fill="#e1e1f9" stroke="#e1e1f9" stroke-width=".5" d="m72.3 138.4-.5.8a5 5 0 0 0-1.5 1.5c.5 1 1.8-.4 2-1q1.6-.1 2.5-1.4l15.4-.1a2 2 0 0 1-.8 1.8q-15 12-29.8 24.2l-2.3 2.3h1c15-8.4 30.5-17.6 45.4-26q1-.5 1-1.5 16.4 0 32.7.4 1-.2 1.7.6l-27.5 19.3c-2 1.3-6.3 3.7-7.6 5.6q-2 0-2.8 1.8c.8 1 2.9-.6 2.8-1.8 2 .3 7-3.3 8.7-4.2l33.3-19.3q.7-.6.7-1.5h18.6q0 .6-.7.8c-13.1 8.6-26.5 17.7-39 26.5-1 .4-2.7.3-2.4 1.7q-1.2.1-2.3.7-2 1.5.5 1.1 1-.6 1.8-1.8c2.2.1 2.5-1 4.1-2.1q22.3-12.5 44.4-25.4 1-.4 1-1.4l17.4.2-.5.8q-20.5 13.4-40.9 27.2c-1.5 1-3.6 1.9-4.5 3.5q-2.3.2-3.3 2.3c-1.7-.2-4.1 1.4-4.9 3l-2.1.5q-2 1.6.5 1.2 1.1-.6 1.6-1.7c1.4-.3 4.7-1.3 5-3q1.5 0 3-1l5.7-3.4 48.3-27.9q-.5 6.1 0 12.3-1 0-2 .7l-54.3 36.6c-1.5.7-4 1.9-4.5 3.7-2.4-.3-5 2.7-7.2 3.7l-1 1.3c-.9.4-2.8.4-3 1.6 1 1.2 2.7-.6 3-1.6 2.2.2 5.9-3.1 8-4l5.7-3.4 56.7-32.9c0 2.3 6.7 9.2 6.4 9.5-.7-.1-7 4.2-8.3 5q-.9.5-1.3 1.6c-.7 0-2.1 0-2.2 1l-1.3.2q-1 .8-1.8 2c-1.5 0-4.5 1.6-4.9 3q-2.2 0-3 2a2 2 0 0 0-2 .6c.6 1 1.8.2 2-.6 1.1-.5 3-.5 3-2 1.7 0 4.6-1.3 4.9-3 .6 0 2.1.2 2-.8l1.5-.2q1-1 1.8-2.2 1 .3 1.9-.1l8.3-4.9q.4-.3.4-.7 7 3 14.4 5-.8 1-1.3 2.2-1-.5-2-.1c-1.6 1.4-7.2 3.9-7.8 5.7-1.9.1-4.2 1.3-5 3.1-1.9 0-3.2 1.4-4.8 2q-.5 1.5 1 1c1.1-.9 3.2-1.5 3.8-3a7 7 0 0 0 5-3.1 3 3 0 0 0 1.9-.4c1.8-1.4 6.8-3.3 7.9-5.2q1.7-.3 3.2-1.2.7-.2 1-.8c7.6.7 15.3-.2 23-.2l-.4 1a3969 3969 0 0 0-49.7 31.5q-1.7 1.4.4 1.4 28.5-16 56.7-32.5.9-.4.6-1.5 11.8.3 23.6.2l-.4 1q-1-.4-2 .2a130 130 0 0 1-11 7 3 3 0 0 0-1.2 1.9c-1.3-1-4.5 1.8-5.7 2.4-2 1.5-8 4.1-9 6.3a7 7 0 0 0-5 3 6 6 0 0 0-5 3q-1.1-.2-1.8.7c.5 1 1.8.1 1.8-.7q3-.5 5-3a8 8 0 0 0 5-3c2 .1 7.6-3.9 9.6-5q.4-.6.3-1.3 1.1.5 2.3 0c.5-.6 3.1-1.4 2.5-2.4q.9 0 1.7-.3l14.8-8.4q1-.4 1.5-1.4c12.5-1.3 27.4-4.7 31.3-18.4a2 2 0 0 0 1.8-.1l23.6-13.8q.4-.3.3-1 9.6-.8 19.3-.7l-.3.8q-12.8 7.4-25 15.4c-1.8 1-5.8 2.5-6.4 4.5q-1.2 0-2.4.5c-1.4 1.2-7.5 4-7.8 5.6a7 7 0 0 0-5 3c-1.3-.2-6.8 3-7.1 4a4 4 0 0 0-3 2q-1.2-.3-1.9.7c.6 1 1.9.1 2-.7q2 0 2.9-2c1.4.2 6.7-2.5 7-4a7 7 0 0 0 5-3c2.1.2 7.8-4 10-5l8-4.7q3.4-2 6.5-4.2a525 525 0 0 0 20.7-11.5q1-.6.8-1.8l21.1-1.6q-.6 1.4-2.1 1.8l-3 2q-.8.3-1.3.7l-.7.5-1.4.8-2.9 1.7-1.8 1.2-1.2.8-2 1.3-1.7 1-1.3.7-1.8 1.2-1.2.8q-2 1.4-4 2.3l-1 1-3 1.7a99 99 0 0 1-8 5l-.7.6q-.8 0-1.4.6l-2.8 1.9-3.1 2-.6.4q-.8 0-1.3.7l-3 1.8-3.1 2-.7.5q-.8.3-1.3.8l-3 1.8-3 2-.7.5q-.8 0-1.3.6l-1.7 1-1.3.8q-1.9 1-3.5 2.6-.8 0-1.5.6l-3 1.8a20 20 0 0 0-3.4 2.5q-1 .2-1.7.8l-1.6 1-1.3.8-3.6 2.4-1.4.7-3 1.8q-1.8 1.1-3.5 2.5l-1.6.8-1.6 1-1.3.7q-1.9 1-3.5 2.6-.7.2-1.5.7l-1.8 1-1.2.7a35 35 0 0 1-5 3.2L269 211q-.7.3-1.2.8l-5 3.1q-1 .7-2.1 1.1-6.6 4.7-13.8 8.6-.7.4-.6 1.3c-1.6 2.4-5.8 4.1-8.6 4.2-1-6.6-2.4-18.7-11.3-18.8-54.2 1.3-108.7-4.7-162.6 2.2a11 11 0 0 0-8.4 5.5c-2.4-.1-5.1 2.8-7.5 3.6q-.6.8-1.4 1.3-16.5 8.8-32.3 18.4c-1.6-1-.9-8.5-1.2-10.5a539 539 0 0 0 34-22.6c.5-.4 3.8-1 2.6-2.2a3 3 0 0 0-2.7 2.2l-1.3.1q-1.8 1.1-3.4 2.4a14 14 0 0 0-5.7 3.2q-12 6.4-23.8 13.2 0-5.2-.5-10.3 12-8.1 23.8-16.4.8-.6.7-1.7l1.6.2c1.4-1.2 3.9-2.2 4.6-3.9q1.2 0 2.2-.3 2-1.8-.5-1.3A3 3 0 0 0 43 196q-2.9.8-5 2.7l-1.2.7L13 212.9l-.7.2q-.4-8.6-.6-17.3l.2-4a634 634 0 0 0 22.5-18q1.7-1 2.6-2.6c.6-.4 3.4-1.1 2.5-2.2a4 4 0 0 0-2.5 2.2q-2-.3-3.7 1.2l-20 11.8-1.2-.2c-2.2-42.4 25.5-46 60.3-45.6ZM51.7 141c.5 0 1.9-.4.9-1q-.7 0-.9 1Zm444.5 39q-.3 5.6-.2 11.2l-1-.3q-.8.3-1.4.8l-.8.4-1.1.8-3 1.8-.6.6q-.8 0-1.5.6l-1.7 1-1.2.8-5 3q-1.9 1.4-4 2.3l-1 1q-2 .8-3.5 2.2a3 3 0 0 0-1.5.7l-1.8 1-1.2.8-.8.5-1.2.8-1.7 1-1.3.7-4 2.4-1.1.8q-1.9 1-3.5 2.3-.8.2-1.4.8a18 18 0 0 0-3.6 2.2l-1.3.7-3.1 1.8-3.7 2.3-1.3.7-3.6 2.5q-.7.2-1.5.8l-3 1.7-.8.5-1.2.7-2.9 1.8Q423 235 421 236l-1.2.8a17 17 0 0 1-4 2.3l-1 .6-1 .6q-2.7-4.5-7.9-5.8-.6-.6-.5-1.4c4.5-3.8 7.9-7.4 13.4-10q.3.9 1.2.9 4.5-2.6 9-5.5 2-.8 3.8-1.9 31.6-18.4 63.4-36.6ZM97.8 209.2q.4 1 1.2.3-.5-.5-1.2-.3Zm398 35.4 1 .3q.4 5.3.3 10.4a4 4 0 0 0-2.2.6l-1.2.8a19 19 0 0 0-3.6 2.6 2 2 0 0 0-1.3.7l-1.8 1-1.2.8-3.1 2q-2 1-3.5 2.5-.8 0-1.5.7l-3 1.8-3 1.9-4 2.4-1 1q-1 .3-1.7.9l-1.3.7-3 2-.7.5-1.3.7q-1 .7-2 1.1l-1 1-1.8 1-1.2.7q-2 1-3.4 2.7-1 0-1.7.5t-1.6 1l-1.3.8-1.8 1.2-1.2.8q-2 1-3.6 2.6-.8.2-1.4.7l-1.7 1-1.2.8-3.1 1.9-5 3.2-1.8 1-1.2.8-3.6 2.5q-.8.2-1.4.7l-1.7 1-1.3.8q-.8.8-1.8 1.2l-1.2.8a16 16 0 0 0-3.6 2.7q-.8 0-1 .7c-3 .5-14.4-5-14-7.9 4.4-1.4 6.6-6.3 11.2-6.4 2.8-4.3 9.2-3.4 12.5-8.6q.4.8 1.5.9 1.4-1.4 3-2.3l9.5-5.1v-.1l62.9-36.3q1.2-.6 2-1.7ZM86.1 311.1c-.4 1.3-2.6 1.2-3.6 2L17 351.3c0-3.3-.8-8.5.5-11.5q1 .3 1.7-.2 6.8-4.6 14-8.6l17-10.8a45 45 0 0 0 12.9-8.2c6.8-1.4 16-.6 23.2-.9ZM206 361.2q-.6 1-1.6 1l-7.8.1q-1.2 1.4-2.5 2.4c-13.3 5.6-24.8 14-37.4 21l-1 .5q-1.9.5-3 2l-9.9 5.3q-.6.9-1.5 1.4-5.1 3-10.5 5.7-.6.8-1.5 1.2c-1.4.8-6.4 2.3-6.1 4.3-7.5.6-15 0-22.5-.4l8.2-4.7 11-6.8q.7-.4 1-1.2a7 7 0 0 0 5-3 7 7 0 0 0 5-3q1.4.3 2-1.1a8 8 0 0 0 4.9-2.6c-.8-1.1-4.4 1.6-5 2.6q-1.3 0-2 1.1a8 8 0 0 0-5 3 7 7 0 0 0-5 3c-2-.2-4.6 2.4-6.5 3q-3 1.5-5.7 4-1 0-1.7.4-4.6 2.4-8.8 5.4-10.8.3-21.4.2.4-.8 1.3-1.2l66-40.7 1-.6q1.3-.5 1.7-1.7 29.7-.5 59.3-.6Zm61.3 28.7h.8l4 13.3-4.2 2.4-1 .6q-.7 0-1.2.6-1.8 1.3-3.8 2.2l-1.2.8-.8.5q-.7.1-1.3.6l-3.7 2-1.3.8-5 3-.9.5-1.2.8-4.9 2.8-.7.5-1.2.7-3.8 2-1.3.8-3.8 2.1-1.3.8-1 .5-1 .8a40 40 0 0 0-5 2.7l-.6.6q-.8 0-1.3.6l-5 2.8-.8.5-1.3.8-4.9 2.7-5 3-.8.6a53 53 0 0 0-6.2 3.4l-.8.5q-.7.2-1.3.7l-4.9 2.9-.8.5q-.6.1-1.2.7l-3.7 2-1.3.7c-.8.6-2.6 1.1-2.5 2.3q-8.6.4-17.2-.1l.2-1 2.1-.9 1-1 1.8-1 1.2-.7 1.8-1.2 1.2-.8.8-.6q.6 0 1.2-.6l1.7-1.1 1.2-.8 3.1-2q2-1 3.5-2.5.8 0 1.5-.6l1.8-1 1.2-.8 1.8-1.2 1.2-.8a24 24 0 0 1 4-2.3l1-1 3-1.7 1.8-1.2 1.2-.8.6-.6q.8-.1 1.4-.7l2-1 1-1 3-1.7a17 17 0 0 0 3.5-2.6q.8 0 1.5-.6l1.7-1 1.2-.9 1.9-1.1 1.2-.8q2-1 3.6-2.6.8 0 1.4-.7l1.7-1 1.2-.8 3.1-1.9q1.8-1.3 3.9-2.3l1.1-.9 1.8-1 1.2-.8q1.8-1.1 3.4-2.5.9-.2 1.6-.8l1.7-1 1.3-.7q.8-.7 1.8-1.2l1.2-.8q1.8-1.1 3.5-2.5.9-.1 1.6-.7l2.9-1.8 1.8-1.2 1.2-.8q2-1.4 4-2.3zM113 413.2h21c-3.3 2-16.6 12-20.6 12.8a18 18 0 0 0-4.5 2.8l-1.2.3-.8.7q-.7.5-.9 1.4c-1.2 1.9-8.5 5.3-10.5 6.8q-1.2-1-2.6-.4-4.3 2.5-8.4 5.3-12.3 6.6-24.5 13.8a2 2 0 0 0-.7 1.5q-8.4.3-16.7-.5-.5 0-.5-.7l68-41.3q1.5-1 2.9-2.5Z"/><path fill="#d3d3eb" fill-opacity=".2" d="M258 187.7h1q0 .8-.4 1.3c-2 1.1-7.6 5.1-9.5 5 .9-2.2 7-4.8 9-6.3"/><path fill="#acacbd" fill-opacity=".1" d="M263.7 185.3c.6 1-2 1.8-2.5 2.4q-1.1.5-2.3 0h-.9c1.2-.6 4.4-3.4 5.7-2.4"/><path fill="#d6d6ea" fill-opacity=".2" d="M219.9 177.3c-1 2-6 3.8-7.9 5.2a3 3 0 0 1-1.9.4c.6-1.8 6.2-4.3 7.8-5.7q1-.4 2 .1"/><path fill="#e2e2f9" fill-opacity=".3" d="M300.4 195.1q-.6.5-1.4.7.4-.8 1.4-.7m194 1q-.6.4-1.3.6.4-.7 1.3-.6m-19.6 6.9q0 1-1.1 1zm-18 77q0 1-1 1 .4-.6 1-1m9.6 1.1-1.5.7q.4-.7 1.5-.7M53 284.3q-.5.8-1.4.6zm55.2 82.8-1.1.9q0-1 1.1-.9M23.1 377q-.7 1.2-2.2 1 .7-1.2 2.2-1m165.3 43-1.1 1q0-1 1-1m19 8-1.1 1q0-1.1 1-1m-4.5 15.3q-.3.8-1.2.6a2 2 0 0 1 1.2-.6m7.4.6-1.2 1q.1-1 1.2-1m-54.4 7.3q-.2.9-1.2.7z"/><path fill="#e0e0f9" fill-opacity=".4" d="m467.3 164-1.3.8q.4-.8 1.3-.8m-115 1.1q-.5.4-1.1.6.2-.7 1.1-.6m140.5 27q0 1-1.1.8zm-69.5 45-1.2.7q.3-.9 1.2-.7m-7.6 2q.3 1.2-.9.6zm76.6 27-1.3.6q.4-.7 1.3-.6M27 299.2q-.3 1-1.3.8.6-.6 1.3-.8m400-.1q-.3 1-1.3.8zM97 368.3q-.4.6-1.3.6.6-.4 1.3-.6M237.3 409l-1.1 1q0-1.1 1.1-1m-10.2 1.3q-.5.7-1.5.6.7-.6 1.5-.6m-72.8 30.5q-.4.6-1 1 0-1 1-1M125 454.2q-.1 1-1.2.8.5-.5 1.2-.8m41.5-.2-1 1q-.2-1 1-1"/><path fill="#2d53ce" stroke="#2d53ce" stroke-width=".5" d="M351.2 202.8q-4.5 6-9.5 11.3c-.3.6-1.2 1-.4 1.7q9-4.8 18-10.1 2.2-1.2 4-3a36 36 0 0 1 20 10.4q-9.4 8.3-19.3 16.4c-.6.5-1.4 1-.5 1.6l23.6-13.2q3 4 4.1 9l-19.3 14.6q-.6.4-.7 1 .9.7 1.8.1 8.4-5.2 17-10l2.2-1c1.6 2.9-.3 6.9 2 9.4q-.4 1-1.2 1.5-7.4 6.1-15.1 11.9-.6.3-.7 1 .9.5 1.8-.1c3-2.4 18.7-10.4 20.1-12.2q5 3 5 8.9l-3.7 3q-.5.4-.6 1c-3 1-7 2-6.9 6q-1 0-1.8.7-6 5-12.1 9.8c-1.6 1.1-.7 2 1 1l13-7.5c-1.3 11.6-10.7 20.4-16.6 29.8q-.5 4.3 1 8.2a1572 1572 0 0 1-40.5 30.4q-.7.3-.7 1 .9.4 1.8-.1 21.3-12.7 43-24.7 3.3 3.1 7.1 5.6-8 6-16.2 11.3-.9.6-1 1.5-2.4 0-3.2 2-.6 0-.7.4.7.5.7-.4c1.2.1 3.2-.5 3.2-2l2.1-.5 18-10.6q5.1 1.7 10.1 3.8-1.3 1.8-3.3 2.6-.8.3-.8 1.1.4.6 1 .2c1.3-1 4.4-2 5.2-3.5 4 1 19.9 6 22 8.7q-13.1 9-26.3 17.7-.8.6-1 1.5a3 3 0 0 0-2.8 1.6c.8.9 2.8-.4 2.8-1.6q1.1 0 2.2-.4l28-16.6c2.8.9 5.4 4.2 6 7a793 793 0 0 1-22.2 15.6q-.7.6-.9 1.6-2-.3-3 1.4c.7.9 3.2-.3 3-1.4l2-.6 21-12.2q1-.5 2-.5c1.3 3 1.5 7 1.3 10.2a933 933 0 0 0-25.4 18.5 2 2 0 0 0-.9 1.5q-2-.1-2.8 1.6c.7 1 2.8-.5 2.8-1.6 5.4-2.2 21-11.4 26.6-15.1q.4 6.3.4 12.8a113 113 0 0 0-18 15.3 3 3 0 0 0-2.8 1.5c.6.9 2.9-.2 2.8-1.5 5.4-1.8 12.4-7.3 17.9-9.3.5 24.4-9.2 28.5-31 32.3q3.8-4.5 7.8-8.8l-.2-.3q-8.6 4.6-17.3 9.6-1 .5-1.4 1.4-10.3 2-20.8 2.2 1-1.7 2.7-3 12.1-10.2 24.1-20.7-.5-.4-1.2-.1-20.1 11.8-40.4 23.2-1 .5-1.3 1.4c-4.3.7-12.2.2-16.8.1a268 268 0 0 1 35-26.5q.8-.3.8-1.1-.8-.9-2-.1a1933 1933 0 0 1-43.5 25.4q-.9.5-1.3 1.4-7.2-.1-14-2c4.5-4.3 26.6-18.2 29-21.2.9.2 3.6-1 2.5-2q-2 0-2.5 2c-4.7 1.2-27.9 16-34.5 19.1q-.5.3-.5.8c-2.3-.1-9.9-2.3-11.4-3.8q15.4-11 31-21.5-.7-.8-1.7-.3c-10.9 7.3-22.8 13.2-34 20a30 30 0 0 1-14-13.3 4 4 0 0 0 3-1.6c-.8-1-2.3.6-3.2.7q-2.3-4.4-1.6-9.4a7 7 0 0 0 2.9-2.6q1.1 0 2-.8.6-.4.8-1 3.2-1.7 6.1-3.6.9-.7 1.2-1.9c1.2.8 2.7-1 3-2q1 .3 1.7-.5c-.4-.8-1.8-.2-1.7.5-1 .3-2.9.7-3 2a6 6 0 0 0-2.2.8q-4.4 2.6-9 5-1 .5-1 1.7l-.7-.3q-.3-6 0-12 3.2-1.8 6.1-4.1 17-12.6 33.4-25.5a2 2 0 0 0-1.9.3l-37.7 22.2c-2.7-54 60.3-24.5 61-66.8 5.5-2.5 15.6-12.4 20.6-16.7-.3-1-1.2 0-1.8 0l-22 12.8c-2.6-1.9-5.6-4.7-6-8 5-2.4 12.5-10.4 18.1-13.7q.6-.3.7-1-.7-.6-1.8-.1c-3.8 2.4-15.6 9.8-19 10.6q-2-4.5-2.9-9.1c1.7-1.9 10-7.1 10-9.3q1.5.9 1.6-.8 1 0 1-1 1.2 0 1.7-1.1.6 0 1-.4l.5-.4q1.3-.4 2-1.6c-.5-1-1.8-.3-2 .5l-1.1.6q-1.3.3-1.8 1.5c-1 0-3.5.3-2.7 1.9l-.2.8q-3.3.2-5.9 2-2 .4-3.1 2.2a4 4 0 0 0-2 1 1 1 0 0 1-.8-.5q-1.5-4.2-4.6-7.3c3.6-4 16.4-13.7 21-18.4-1.4-1.2-2.4 1.4-3.7 1.9l-22.2 12.6a7 7 0 0 1-1.7-5.6c-.1-5 7.8-3.6 10.2-7.6 2.3-18.4 7.5-32.4 27.9-36.1ZM394.8 327q.6 0 1-.6-.8-.3-1 .6Zm-30 6a1 1 0 0 0 1-.6q-.7-.4-1 .6Z"/><path fill="#a3b1ea" fill-opacity=".9" d="M295.2 369.8c-.3 1-1.8 2.8-3 2 .1-1.4 2-1.7 3-2"/><path fill="#92a2e7" d="M295.2 369.8c0-.7 1.3-1.3 1.7-.5q-.6.9-1.7.5"/><path fill="#9fadea" d="M398 350c0 1.2-2 2.5-3 1.6a3 3 0 0 1 3-1.6"/><path fill="#96a6e7" d="M364.9 333q0-1 1-.6a1 1 0 0 1-1 .6"/><path fill="#a8b4ec" d="M394.8 327q.2-.9 1-.6-.4.6-1 .6"/><path fill="#c8cef3" fill-opacity=".6" stroke="#c8cef3" stroke-opacity=".6" stroke-width=".5" d="m339 256 1.4-.3q-.6 1-1.7 1.1z"/><path fill="#bac3f2" fill-opacity=".1" stroke="#bac3f2" stroke-opacity=".1" stroke-width=".5" d="m339 256-.3.8-1 1h-1.4c-.8-1.6 1.7-1.9 2.7-1.9Z"/><path fill="#657cdb" fill-opacity=".2" stroke="#657cdb" stroke-opacity=".2" stroke-width=".5" d="m340.8 254.4.5 1q-.3.3-.9.3l-1.4.2q.6-1.2 1.8-1.5Z"/><path fill="#4264d3" fill-opacity=".3" stroke="#4264d3" stroke-opacity=".3" stroke-width=".5" d="M342 254.9v-1.2c.1-.7 1.4-1.4 1.9-.4q-.7 1.2-2 1.6Z"/><path fill="#8fa0e6" d="M420 387.1c0 1.3-2.2 2.4-2.8 1.5a3 3 0 0 1 2.8-1.5"/><path fill="#9dabe9" d="M411 374.1c0 1-2.1 2.5-2.8 1.6q.9-1.8 2.9-1.6"/><path fill="#c0c7f1" fill-opacity=".9" d="M338.7 256.8q0 1-1 1zm-2.4 1h1.4q0 1.7-1.6.8z"/><path fill="#bfc2e0" stroke="#bfc2e0" stroke-width=".5" d="M231.9 55q9.2-.4 18.4-.1a68 68 0 0 1-9.3 8.8q-1.2.7-1.8 2c.5.9 1.6.1 1.9-.5l1-.3 14.6-8.5q1-.4 1.1-1.4c5.1.2 11.3 0 16.2 1l-.3 1c-2.6 2.6-21.2 17-21.6 18.8q-2.1.2-3 2.1-1.5 1.2 0 0 2.2 0 3-2.1 1 .4 1.9-.3 16-9 31.7-18.4.4-.6.3-1.4c4.3-.3 10.5.7 12 5.5-4.2 2.1-21.9 16.5-27.1 20.2q-1.5 1 .1 1.8-.6.8-1.7.8c-17-4.2-27-2.3-35.2 14.4q-1.2-1-2.4-.2L211 110.3q0-6.5-.4-13c3 0 15.7-12.5 19-14.7q-1.6-.5-2.4 1-8.6 4.6-17 9.4a112 112 0 0 1 4.2-34.1c.8-1.2 8.2-2.3 9.8-2.8q-2.7 3-4.8 6.4l.2.3q4.3-2.2 8.5-4.7l1.1-.6A5 5 0 0 0 232 55Zm68.2 29.7q0 10.8.7 21.5c-5.2 3-19.3 14.8-25.2 19.1q-1.8.8-2.5 2.7a3 3 0 0 0-2.9 1.7c.5 1 3-.6 3-1.7q2 0 3.6-1.5 12-7 24.4-13.8.9 11.6 1.2 23.3c-1.2.1-8 5.5-8.1 6.5q.3.6 1 .3l7-3.8c.3 7.2-2.5 26-11.9 27q-18.2-.3-36.4 1.1c1.5-2.8 7.7-6.9 10.1-9.5a6 6 0 0 0 1.8-2.2q-.9-.9-2 0l-16 9.1q-1.6 1-2.7 2c.5 1.2 2 .4 2.8 1.2-11 0-24.5.5-33.1-7.6q1.7.4 3-.7l31.2-24c1.3-.6.4-2.2-1.1-1.1q-18 10.5-36.2 20.8a41 41 0 0 1 0-21.9 152 152 0 0 0 24.2-18.3c15.5 15.9 44.8 6.4 42.6-18.8 3.5-.2 17.1-9.7 21.5-11.4Zm-42 5q1.8.6 3.3 1.7c-.8 1.3-3.2 2.1-4.4 3q-.9.7-1.8.1 1.2-2.6 3-4.7Zm-24 9c-.2 4.4-1.4 11.5 2 15.2-5.6 2-18.2 10-24.2 13.5q-.7-5.8-.6-11.5 11.6-8.5 22.8-17.2Z"/><path fill="#bdc3e1" fill-opacity=".3" d="M273.1 128c0 1.1-2.4 2.7-2.9 1.7a3 3 0 0 1 3-1.7"/><path fill="#bfc2df" fill-opacity=".3" d="M252.1 75.8q-.7 2.3-3 2.1.9-2 3-2.1"/><path fill="#9599b7" stroke="#9599b7" stroke-width=".5" d="M258.1 89.8q-1.7 2.1-2.9 4.7.9.6 1.8 0c1.2-1 3.6-1.7 4.4-3.1 10.8 8.7 4.1 30.4-8.4 23.1-11.7-7-10.2-28 5.1-24.7Z"/><path fill="#c0c2e1" fill-opacity=".4" d="M249 78q-1.2 1 0 0"/><path fill="#fefeff" stroke="#fefeff" stroke-width=".5" d="M74 215.8q-1 3.1-2.9 5.9-.2.7.4 1 4.5-3 9.4-5.5.8-.5 1.1-1.3h17c-1 2.8-6.5 6.8-8.7 9-.8 1.3 1 1.3 1.8.7 2.2-1.5 14.5-8.4 15-9.7h17q-.5 1.5-2 2.8-7 7-14.7 13.7.7.6 1.6.3c8.8-6.3 19-11 28-16.9h16q-.5 1.7-1.9 2.9-6 6-12.6 11.3-.4 1.2.9 1.1 11.4-7.3 23.5-13.8.8-.6 1.1-1.4h34a5 5 0 0 1-1.7 2.9q-5.7 5.4-11.8 10.1-.4 1.2.9 1.1c3.3-2.2 21.6-12.3 22.6-14.1 5.4.2 10.9-1.5 14.3 3.7l-15.9 16.8q.7.6 1.7.1c5-3.3 11.2-7.3 16.7-9.5.8 8.5-1.6 16.9-.9 25.5q0 .9-.6 1.3-21.7-.3-43.3-.3c.7-3 14.6-16.5 17.5-19.6q.4-1-.9-1-16.5 10.2-33.4 19.6c.7 1.2 2.9.6 4 1-31.4.3-63 .7-94.4 0l16.3-14.9c1.5-1.1.3-2.3-1.1-1.3q-9.8 6.9-20.6 12c-4.6-9.2-.4-22.6-.4-32.8.7-1.4 5.5-.4 7-.7Zm17.4 37c1.6 1 8 .7 10 .3a179 179 0 0 1 14.8-13.4c1.5-1.2.2-2.2-1.2-1.1-7.3 5.2-16.2 9.2-23.6 14.2Zm45.1 0c2.4 1 6.2.5 8.8.2q6.4-5.8 13-11.2c1.6-1.3.1-2.4-1.4-1.3l-4.1 2.9q-8.3 4.6-16.3 9.3ZM216 257l7.8-.3c3 1.2-2.4 3-3.3 3.3q-3.6.5-4.5-3Z"/><path fill="#272727" fill-opacity=".6" d="M439 138q-.5 0-.9.4l-1.1-.3-2.8-.2q.8-1.2 2.3-1 1.5 0 2.5 1"/><path fill="#282829" fill-opacity=".5" stroke="#282829" stroke-opacity=".5" stroke-width=".5" d="m316 141-.8.4q-1.1-.4-1.3.7-1.2-.7-.2-1.8 1.4-.3 2.3.7Z"/><path fill="#4f4f55" fill-opacity=".2" stroke="#4f4f55" stroke-opacity=".2" stroke-width=".5" d="M278.3 175.2q1.8-.3 3.4 0-.5 1-1.5 1.4-1-.5-2.3-.3z"/><path fill="#46464b" fill-opacity=".4" d="M218.3 48.2q-.7.6-1.6.8.5-1 1.6-.8"/></svg>