<svg xmlns="http://www.w3.org/2000/svg" style="shape-rendering:geometricPrecision;text-rendering:geometricPrecision;image-rendering:optimizeQuality;fill-rule:evenodd;clip-rule:evenodd" viewBox="0 0 512 512"><path fill="#23b0e2" fill-opacity=".4" d="M340 37a8 8 0 0 1-5 3c.7-1.7 3.3-3 5-3m-121 4q-.9 2-3 2 .8-2 3-2m23 27q-.6 1.2-2 1 .6-1.2 2-1m173.8 3.9q0 .9-1 .7zm-16.7 3.3q-.5.8-1.4.8zM371.2 98l-1.1.8q.2-.8 1.1-.8m45 20q-.3.6-1 .8 0-1 1-.8m-34.8 5-1.3.7q.3-.7 1.3-.7m16.9 2.3q-.6.8-1.6.6.7-.5 1.6-.6m-1 3.8-1.3.7q.3-.9 1.3-.8m-34 1.1q-.6.9-1.6.7l1.5-.7m-7.9 8q-.6.5-1.4.5.4-.7 1.4-.6m105.9 15q-.5.8-1.5.6a3 3 0 0 1 1.5-.6m-402.1 4q-1 2-3.1 2 .9-2 3-2m359.1 16.3q-.6.6-1.6.6.7-.5 1.6-.6m26.7.8c-.3 1.6-3.6 2.6-5 2.8.4-1.3 3.7-3.2 5-2.8m7.4 19q-.7.9-1.5.8zm-62 .9q-.4.6-1.2.8.2-1 1.2-.8M78 199q-.9 2-3 2 .9-2 3-2m353.3 7.2q-.6.9-1.7.8.7-.6 1.7-.8m4 3.8q-.6.7-1.5.7.7-.6 1.5-.7m20 5a2 2 0 0 1-1.3.7q.3-.8 1.3-.7m18.4 0q0 1-1 1zm-25.4 4q-.6.7-1.5.7.5-.7 1.5-.7m12 9q-.4.6-1.3.7.4-.7 1.3-.7m-7 4a2 2 0 0 1-1.4.8q.4-.9 1.4-.8m-388 12-1 1q0-1 1-1m95.8 0a4 4 0 0 1-3 2q.8-2 3-2m-56.8 4q-.4.7-1 1 0-1 1-1m260 3.1q-.5.4-1.3.7.5-.8 1.4-.7m-321 2.2a2 2 0 0 1-1.6.7 2 2 0 0 1 1.6-.7m311.7-.1q-.3.9-1.3.7zm20 6q-.3.9-1.2.6zm27.3.1a2 2 0 0 1-1.5.7q.7-.6 1.4-.7m87.8 2q-.4.7-1.5.7.8-.6 1.5-.7m-453.8.8-1.5.7q.6-.7 1.5-.7m406.6 1.8c-.4 1.6-3.2 3.2-4.9 3.2.7-1.8 3.2-2.9 5-3.2m-104.5 2q-.5.8-1.4.9.4-.9 1.4-.8m143.8.4q-.5.6-1.4.7.6-.5 1.4-.8m-98 3.9q-.4 1-1.5.8zm-317 .8q-.2.6-.9 1 0-1 1-1m406.5 0q.2 1-1 1zm-365.4 6q-.6.6-1.4.7.5-.7 1.4-.7m226.6 7c-.3 1.3-3.6 3.2-5 3q2-2.3 5-3m126.5 0a2 2 0 0 1-1.6.7q.6-.6 1.6-.6M354 289c-.5 1.4-5.7 4.2-7 4 1.4-1.5 5-4 7-4m-275.1 2.2q-.2 1-1.2.8zm-48.6 2.9q-.5.6-1 .8 0-1 1-.8m44 4q-.7.4-1.6.6.7-.6 1.6-.6m-52 1q-.6.6-1.5.9.4-1 1.6-1m37.8 3q-.5.9-1.4.8.6-.5 1.4-.7m-6.9 4.1a2 2 0 0 1-1.6.8zm8.2-.2q-.6.7-1.5.8.4-.8 1.5-.8m111.9 8.1-1.1.7q0-1 1-.7M433.9 326q-.4 1.4-1.9 1.1.5-1.4 2-1m-63 10q-.3 1.5-1.9 1 .6-1.1 2-1M126.4 343q-.7.6-1.6.8.7-.8 1.6-.8m308.5 21q0 1-1.1 1zm-358.6 4.2a2 2 0 0 1-1.6.8zm68 4.8q-.7.6-1.5.7.7-.7 1.5-.7m-73 4q-.5.6-1.4.7.6-.7 1.5-.7m348 1-1.2.7q.4-.7 1.3-.6m-299 5.2q-.6.8-1.5.8.7-.6 1.5-.8m23.8 5q-.2.9-1.2.6zm-2.6 3.8q-.6.5-1.2.7.2-.8 1.2-.7m-23.6 11.2q0 .9-1 .7zm5.6-.1-1.5.7q.4-.9 1.5-.7m14.8 7q-.6.6-1.3.7.3-.9 1.3-.7m-14.3 6q-.2 1-1.2.8zm-32 2q-.3.9-1.3.8zm33.3-.1q-.5.6-1.3.7.4-.7 1.4-.7M68.4 420l-1.5.6q.7-.6 1.5-.6m52 1q-.6.6-1.5.6.7-.7 1.6-.7m21.6.8c-.3 1.5-3.4 3-4.8 3.1.9-1.8 2.7-3.2 4.8-3m176.3 5.4q-.5.7-1.4.5zM152 429.9c-.6 1.4-5.5 4.5-7 4 .8-1.2 5.6-4.2 7-4M47.3 433q-.7.6-1.6.8a2 2 0 0 1 1.6-.8m38.4 5q0 1-1 1zm213.4.2q-.6.8-1.5.8zm-209.7 2a3 3 0 0 1-1.5.5q.6-.7 1.5-.6M209 440a2 2 0 0 1-2.1.8q.7-1 2.1-.8m-147.8 1-1.5.6q.6-.6 1.5-.7M47 444.1q-.5.8-1.4.6zm276.1 1.7-1 1q0-1 1-1m-283 2.3q-.6.7-1.5.7.7-.6 1.5-.7m3.1 3.7a2 2 0 0 1-1.5.7q.6-.7 1.5-.7m294.5 2.3q-.2.8-1.1.6.5-.5 1.1-.6m-67.6 5.8-1.3.7q.4-.8 1.3-.7m21.2 7-1.2.9q0-1 1.2-.9m31 .9-1.1 1q0-1 1-1M256 482q-.5.8-1.5.8.7-.6 1.5-.8m-35 1q-.6.7-1.5.7.6-.6 1.4-.7m1.1 8-1 .7q0-1 1-.8m44.9 4q-.4.8-1.5.8.7-.6 1.5-.8m15 0-1 .7q0-1 1-.8"/><path fill="#23b0e2" fill-opacity=".4" d="M243 40q-.8 2-3 2a3 3 0 0 1 3-2m10 36q-1 1.6-3 2 .8-2.3 3-2m189.3 27q-.6.7-1.4.8.5-.8 1.4-.8m-35 5.1-1.2.6q.2-.8 1.1-.6m-10 1q-.6.8-1.6.8.7-.6 1.5-.7m-52 4q-.6.6-1.3.7.3-.8 1.3-.7m65.7 4.2q-.4.8-1.3.7zM76 121q-.5 1.3-2 1.2.5-1.4 2-1.2m249.3.3q-.7.7-1.7.7zm24.8 17a2 2 0 0 1-1.5.8q.8-.6 1.5-.7m21.2 6-1 .6q0-.9 1-.6m-17 8.1q-.4.9-1.5.7a2 2 0 0 1 1.5-.7M61 156.1q-.6 1-2 1 .5-1.6 2-1m378.3 4.2a2 2 0 0 1-1.6.7q.7-.5 1.6-.7M395.9 173a3 3 0 0 1-3 2 4 4 0 0 1 3-2m20.5 6q-.5.6-1.4.8.4-1 1.4-.8m56.9 1.2q-.6.8-1.7.7.7-.6 1.7-.7m-89.4 14q-.2 1-1.2.8zm77.4.8q-.4.6-1.2.8.3-.9 1.2-.8m7 7.2q-.6.9-1.6.8zm6 1.8q-.6.8-1.5.8.5-.9 1.4-.8m13 3.3q-.6.6-1.6.6zm-8 9.7a2 2 0 0 1-1.5.8 2 2 0 0 1 1.5-.8m-10.1 1.3a2 2 0 0 1-1.5.6q.8-.6 1.5-.6m-445.3.6c-.4 1.6-3.1 2.8-4.5 3.2-1.4-1 3.5-3.4 4.5-3.2m321.3 1.3-1 .7q0-1.1 1-.7m92 1q-.5.8-1.5.8.6-.6 1.4-.8m-304 9-1.2.5q.4-.7 1.3-.6m-46.9.9q-.7.5-1.5.7.6-.7 1.5-.7m304 5-1.3.6q.4-.7 1.2-.6m-227.2 7q-.6 1.1-2 1c-.2-1.2 1.3-1.2 2-1m240.3 2-1.2.7q.1-.9 1.2-.7m-307 8q-.6.5-1.3.6.3-.7 1.2-.6m-10.5 2q-.1 1-1.2.9.6-.6 1.3-.8m322.4 3-1.3.7q.4-.9 1.3-.8m-31.1 2q-.3.6-1 .6c-.4-.7.6-.5 1-.6m-253.1 5q-.3 1-1.3.8zM17 268.1q-.4.6-1.2.6.5-.4 1.2-.6m470.2.8a2 2 0 0 1-1.3.8q.3-1 1.3-.8m-427.5 1.2q-.3.8-1.3.7.6-.5 1.3-.7m347 1.8c-.2 1.3-3.8 3-4.8 3 .4-1.5 3.4-2.7 4.8-3m-86 2.3c.3.9-.6.5-1.1.5q.4-.5 1.2-.5M59.3 276q-.6.6-1.4.7a2 2 0 0 1 1.4-.7m357 34-1 .8q0-1 1-.8m-390 11 .8.5-.6 1zm134.1 1.2q-.6.4-1.3.6.5-.6 1.3-.6m-45.2 11a10 10 0 0 1-5.1 3q1-1.8 3-2.7 1-.6 2-.3m324.8 2.8c-.3 1.7-3.3 3.1-4.9 3a8 8 0 0 1 5-3m-318.8 6.4q-.5.6-1.4.6.6-.6 1.4-.6m348.1-.1q-.6.7-1.5.7zm-291 9.7-1.4.6q.6-.7 1.4-.6m273.5 1q-.1 1-1.1.9zm-346.5 3q-.7.5-1.5.6.7-.7 1.5-.6m59.7 1q-.3.9-1.3.8zm280.4 6q-.6.5-1.4.6.5-.6 1.4-.6M85.9 380c-.5 1.3-3.4 2.7-4.8 2.9.4-1.3 3.5-3.3 4.8-3m68.4 4.1q-.6.5-1.4.5.5-1 1.4-.5m-31 1.8q-.7.6-1.6.7a3 3 0 0 1 1.6-.7M93.9 398q-.3.9-1.3.7zm-26 15q-.2.9-1.2.7zm270 2.8c-.3 1.5-3.5 2.8-4.9 3 .3-1.3 3.5-3.3 5-3m-245.6 6a3 3 0 0 1-1.6.7 2 2 0 0 1 1.6-.7m302.8 7.8c-.5 1.2-4.1 4.3-5 3a8 8 0 0 1 5-3m-157 6.2c-.7 1.2-3.7 2.9-5 3.1.3-1.4 3.6-3.4 5-3m122 6.2c.3-1.5 3-3.3 4.4-3.3 1.2 1.1-3.6 3.1-4.5 3.3M207 441q-.9 1.9-3 2 .7-2 3-2m39 4.1a8 8 0 0 1-5 2.9c1-1.5 3.2-3.2 5-2.9m41.4 4-1.6.7q.5-.8 1.6-.8m-216 2-1.6.7q.6-.8 1.5-.7m-18 11a2 2 0 0 1-1.5.6q.4-.7 1.5-.6m258.6 7q-.3 1-1.3 1a3 3 0 0 1 1.3-1m-52.7 19-1.1.8q0-1 1.1-.9m26 5-1 .9q0-1 1-.9"/><path fill="#23b0e2" fill-opacity=".4" d="M240 42c0 .8-1.3 1.6-1.9.7a2 2 0 0 1 2-.8m10 36c0 1-1.4 1.6-2 .6a2 2 0 0 1 2-.6m128.2 10.2q-.5.7-1.5.7zm40 8.1q-.5.6-1.5.6.7-.5 1.6-.6m19 4.9q-.5.8-1.6.7.7-.6 1.6-.7m-22.9 3q-.6.4-1.3.5.4-.7 1.3-.6M305 107.4l.1 1.2-1-.1q.3-.7.9-1m47.6 1.5q-.6.5-1.3.6.4-.7 1.3-.6m70.9 4.9q-.6.5-1.4.7.4-.8 1.4-.7m-35 5.1-1.4.6q.5-.7 1.4-.6m-17.3 6.2q-.4.7-1.3.7zm9 10.9q-.4.8-1.3.8zm-43 10q-.4.8-1.4.8zm123.1 1q-.5.7-1.4.7.6-.5 1.4-.7M94.1 164q.3-1 1.4-1c1 .7-1 1.1-1.5 1m332.1 4.2q-.5.8-1.5.8.8-.6 1.5-.8m-104 3.8q-1 2-3.1 1.9a4 4 0 0 1 3-2m146 0a9 9 0 0 1-5.1 3c1-1.6 3.2-3 5-3m-44.7 3.1-1.3.7q.3-.7 1.2-.7m14.5 2.8c-.5 1.3-3.5 3.3-4.8 3.1.4-1.4 3.5-2.7 4.8-3m22.3 10.3q-.6.9-1.6.8.7-.6 1.6-.8m-62.8 1.9-1.4.6q.5-.7 1.4-.6m70.9 1-1.3.7q.3-.8 1.3-.7m13 3.1q-.7.8-1.6.8.7-.6 1.5-.8m.1 5.9q-.6.5-1.4.6.5-.7 1.4-.6m-42.1 1.2q-.6.7-1.6.7.7-.6 1.6-.7m-68.4 1q-.3.7-1.2.6zm79.3 11q-.6.7-1.6.6.7-.5 1.6-.6m36-.2q-.4.5-1.3.6.5-.7 1.4-.6M81 231.2q-.3.9-1.2.8zm316.3.9q-.6.5-1.3.6.3-.7 1.3-.6m21.7.2q-.4.6-1.2.6.4-.5 1.2-.6m-293.7 2.8-1.2.7q.1-.8 1.2-.8m258.9 0q-.5.9-1.5 1 .7-.7 1.5-1m-305.9 1q-.6.5-1.3.6.4-.6 1.3-.6m86.6 6c.2 1-1.2 1-1.8 1q.3-1.5 1.8-1m206.4 5-1.4.6q.6-.7 1.4-.6m-8.3 1.2q-.5.6-1.3.6.6-.4 1.3-.6m52 3q-.4.8-1.3.6zm.4 2.7q-.6.5-1.3.7.3-.8 1.3-.7m-31.1 2.1-1.3.6q.4-.7 1.3-.6m-296 2q-.6.4-1.4.6.5-.7 1.4-.6m-9.4 1.1q-.3.9-1.2.7zm318 3q-.1 1-1.2.8zm97.4 2.8-1.3.8q.3-1 1.3-.8m-466 2q-.7.6-1.5.7a2 2 0 0 1 1.5-.6m119.6 1c-.6 1.6-3.4 2.8-5 3a7 7 0 0 1 5-3m-31 1.3q-.4.8-1.3.7.6-.6 1.4-.7m272.3 0-1 .5c-.5-.8.6-.5 1-.6m-336.1 5q-.5.8-1.4.6.6-.4 1.4-.6m343.8 3.7q0 .5-.5.6 0-.4.5-.6m-3.2 2q.3-.9 1.3-.6-.4.6-1.3.7m44.3 0q-1 1.7-3 2 .7-2.2 3-2m-386.6 1q-.7.7-1.6.7a2 2 0 0 1 1.6-.6m35.9 9q-.6.5-1.3.8.3-.9 1.3-.8M447 305c.1 1-1.3 1-2 .9q.6-1 2-1m-23.7 1q-.4.6-1.2.7.3-.7 1.2-.7M46 310.3q-.4.8-1.3.6.5-.5 1.3-.6m7.3.7q-.7.6-1.5.8.6-.7 1.5-.8M397 321q-.6.6-1.3.6.4-.7 1.3-.5m-257 10.3q-.3.7-1.3.7.6-.5 1.3-.7m-26 15q-.4.7-1.3.7zm70-.1q-.3.9-1.4.8zm-65.6 1.9q-.7.5-1.6.6.7-.7 1.5-.6M452.2 359q-.4.6-1.2.7.4-.7 1.2-.7M158 361.2q-.3.8-1.3.7zm280.3 1.1q-.7.7-1.7.7zm-354 6.8q-.6.5-1.4.6.5-.7 1.4-.6m342 5q-.4.4-1.2.7.3-.9 1.2-.8m-290 4q-.7.5-1.6.7.7-.7 1.5-.7m45.5 4.8c0 1.7-3.4 2.9-4.8 3.1.4-1.4 3.3-3 4.8-3.1M130 396.2q-.5.7-1.4.7zm-43 6q-.5.7-1.4.6zm286.8 1.6c.1.9-1.2 1.7-1.8.8q.7-1 1.8-.8m-313.9 3q-.5 1.3-2 1.1.7-1.2 2-1m44 4.4q-.4.8-1.4.6zm6.3-.2-1.3.7q.3-.8 1.3-.7M386 416c-.5 1.2-4.2 4.3-5 2.8a8 8 0 0 1 5-2.8m-269 4.3q-.4 1-1.3.8.5-.6 1.2-.8m-56.7 4.9q-.7.6-1.5.7.6-.7 1.5-.7m258 4-1.5.6q.5-.9 1.4-.6m-239 1q-.6.5-1.5.6a2 2 0 0 1 1.5-.6M285 446.3q-.3.9-1.2.7zM48.3 449q-.6.6-1.5.8.6-.8 1.5-.8m280 15q-.7.6-1.5.8a2 2 0 0 1 1.5-.7m-288 6-1.6.8q.7-.7 1.6-.7m264.7 3.3q-.4.8-1.3.6.6-.4 1.3-.6m31 1.6c.4-1 2-2.6 3-1.5a3 3 0 0 1-3 1.5m-183.7.1-.5.9-1.2-.2a2 2 0 0 1 1.7-.7m84 7.1q-.7.4-1.6.6.7-.6 1.6-.6m52 9-1.5.7q.5-.8 1.4-.7"/><path fill="#23b0e2" fill-opacity=".3" stroke="#23b0e2" stroke-opacity=".3" stroke-width=".5" d="M142.1 61.9c-.3.8-2.2 3-3 1.8a4 4 0 0 1 3-1.8Zm116 11c-.7 1.8-3.4 3-5 3.2a7 7 0 0 1 5-3.1Zm151.2 3.4-1.3.7q.3-1.1 1.3-.7ZM383 85q-.3 1-1.3.8zm40 8q-.2 1.1-1.3.7zm-77 15q-.3 1-1.3.8zM74 122a4 4 0 0 1-3 2 3 3 0 0 1 3-2Zm335.3.3-1.3.8q.3-1 1.3-.8ZM63 141.9c-.4 1.6-3.7 2.9-5 3.2a6 6 0 0 1 5-3.2Zm279 1q-.3 1-1.2.8zM88 153q-.9 2-3 2a3 3 0 0 1 3-2Zm366.3 4.3-1.3.7q.3-1 1.3-.7Zm18.6 11.6c.7-.8 3.2-3.2 4.2-2.3 0 1.4-2.9 2.6-4.2 2.3Zm-172 0c-.4 1.6-3.4 3-5 3q2-2.5 5-3Zm102 0a7 7 0 0 1-4.9 3 7 7 0 0 1 5-3Zm75 8q0 1-1.2.8zm-94.6 21.4-1.3.8q.3-1 1.3-.8Zm60.7-.3q-.3 1-1.3.7zm-68 1q-.2 1.1-1.3.7zm97 0q-.3 1-1.3.7zm-44.7 15.3-1.3.7q.3-1 1.3-.7ZM442 218q-.1 1.1-1.3.7zm-.7 5.3-1.3.7q.3-1 1.3-.7ZM119 236q-.2 1-1.3.7zm327.3.3-1.3.8q.2-1.1 1.3-.8ZM368 245q-.3 1-1.2.8zm-210 1a8 8 0 0 1-5 3q1.8-2.7 5-3Zm-108 3q-.3 1-1.3.7zm281.3 21.3-1.3.7q.2-1.1 1.3-.7Zm111.8 6.7a4 4 0 0 1-3.1 2 3 3 0 0 1 3-2Zm11.2 11.3-1.3.7q.3-1.1 1.3-.7ZM22 292q-.2 1.1-1.2.7zm60.3 1.3-1.2.7q0-1 1.2-.7ZM402 316q-.2 1.1-1.2.7zm-233.7 1.3-1.3.7q.1-1.2 1.3-.7ZM154 323q-.3 1-1.3.7zm220 11a3 3 0 0 1-3 2 3 3 0 0 1 3-2Zm92 10q-.1 1-1.2.8zM83 364q-.3 1-1.2.8zm-3.7 8.3-1.2.7q0-1 1.2-.7ZM127 379q-.3.8-1.2.7zm4.3 2.2-1.3.7q.2-1 1.2-.7ZM177 386c-.6 1.6-3.5 2.9-5.1 2.9 1-1.4 3.3-3 5-2.9Zm-46 26q-.1 1.1-1.3.7zm-43.7 13.3-1.3.7q.3-1 1.3-.7Zm-32 3-1.3.7q.2-1.1 1.2-.7Zm17.7.7q-.3 1.1-1.3.7zm160 10.1c-.6 1.4-3.6 2.7-5 3 1-1.8 2.9-3.5 5-3ZM345 450q-.3 1-1.3.7zm-278.7 4.3-1.3.7q.3-1 1.3-.7Zm-18 11-1.2.7q0-1.1 1.2-.7Zm267.9 6.9-1.2.8q.1-1 1.2-.8ZM263 478q-.3 1-1.3.7zm-35 1q-.3 1-1.3.8zM42 489l1 .1.2 1q-1 0-1.2-1Zm232 2q-.3 1-1.3.8z"/><path fill="#23b0e1" fill-opacity=".3" stroke="#23b0e1" stroke-opacity=".3" stroke-width=".5" d="m357.3 106.3-1.3.7q.3-1.1 1.3-.7Zm36 10-1.3.7q.3-1.1 1.3-.7ZM355 135q-.2 1-1.2.8zm-6.7 7.3-1.3.8q.3-1 1.3-.8Zm9 10-1.3.7q.1-1.2 1.3-.7ZM56 159c-.4 1.6-3.6 2.8-5.1 3q2-2.6 5-3Zm417.3 29.3-1.3.7q.3-1 1.3-.7ZM134 201a8 8 0 0 1-5 3 6 6 0 0 1 5-3Zm221 11q-.3.9-1.2.6zm-252.7 9.1-1.3.8q.2-1 1.3-.8ZM76 234q-.2 1-1.3.8zm44.3 4.3-1.3.7q.1-1.1 1.3-.7Zm263 2-1.3.7q.3-1.1 1.3-.7Zm-7 4-1.3.8q.3-1.1 1.3-.8Zm13 9-1.3.7q.3-1 1.3-.7ZM407 256q-.1 1-1.2.8zm-293 1a8 8 0 0 1-5 3c.8-1.7 3.1-2.9 5-3Zm-30.7 4.2-1.3.8q.3-1 1.3-.8ZM448 261a5 5 0 0 1-5 3q2-2.2 5-3Zm-374 1q-.3 1-1.2.8zm320.3 4.2q-.6.5-1.3.8.2-1.2 1.3-.8Zm-278 6-1.2.8q0-1.1 1.2-.7Zm-70 12-1.3.8q.2-1.1 1.3-.7ZM455 300a3 3 0 0 1-3 2q.8-2 3-2ZM48.3 314.2l-1.3.8q.3-1 1.3-.8Zm361 0q-.6.5-1.3.8.3-1 1.3-.7Zm-7 4q-.6.5-1.3.8.3-1 1.3-.8Zm-255 12-1.3.8q.3-.9 1.2-.7ZM179 349q-.3 1-1.2.8zm-78.7 10.3-1.2.7q0-1 1.2-.7ZM183 366c-1 1.5-3.2 3-5 2.9 1-1.4 3.3-3 5-3Zm249-.1q-.3 1-1.3.7zm-.7 5.3-1.3.7q.3-1 1.3-.8ZM81.1 383a2 2 0 0 1-2.1 1q.6-1.2 2-1Zm68.2 4.3-1.3.7q.1-1.1 1.3-.7ZM125 399q-.3 1.1-1.3.7zm-27.7 3.3-1.2.8q.2-1 1.2-.8ZM82 405q-.3 1-1.3.7zm36.3 1.3-1.2.7q0-1.1 1.2-.7Zm-29 1-1.3.7q.2-1.1 1.3-.7ZM112 423q-.3 1-1.3.7zm3.3 1.3-1.2.7q0-1.1 1.2-.7Zm-41 9-1.3.7q.2-1.1 1.3-.7Zm70.6.6a6 6 0 0 1-4.9 3c.7-1.6 3.3-2.7 5-3Zm-60.7 9.3-1.2.8q.2-1 1.2-.8Zm-27.9 1-1.3.8q.3-1 1.3-.7ZM202 444c-.6 1.6-3.2 3-5 3a7 7 0 0 1 5-3Zm124.2.2-1.2.8q.2-1 1.2-.8ZM315 448q-.3 1-1.3.7zm-35 1q-.2 1-1.2.8zm-241.7 6.3-1.2.8q0-1.1 1.2-.8Zm235 3-1.3.7q.3-1 1.2-.8Zm24 5-1.3.7q.2-1 1.2-.8Zm-72 26-1.3.7q.1-1 1.2-.8Z"/><path fill="#23b0e2" fill-opacity=".5" d="M315 21.1h1.3q-.6.9-1.6 1zm20 19c-.8 1-6 4.9-6.8 3.6 1.6-1.4 4.6-3.5 6.8-3.7m51.2 43.2q-.7.7-1.5.6.7-.6 1.5-.6m44.2 26.7-1.3.7q.3-.9 1.3-.7m-26 15-1.3.8q.3-.8 1.2-.7m-35 5q-.7.6-1.3.7.3-.7 1.2-.6m-11.5 3.2q-.2.9-1.2.7zM93 150.1a3 3 0 0 1-3 1.8 3 3 0 0 1 3-1.8m354.2 5q-.5.9-1.4.9.6-.6 1.4-.8m-34.2 21q-.4 1-1.3.8zm-8.7 10-1.2.8q.2-1 1.2-.9m-26 15-1.3.6q.5-.7 1.4-.6m71 1-1.2.7q.3-.9 1.1-.7m13.7 3.1q-.3.8-1.3.8zm-37 4q-.4.8-1.3.7zm-68.1 1q-.2.9-1.1.7.5-.5 1.1-.6m104.4 1q-.4.4-1.2.6.3-.9 1.2-.7m-362.4 9q-.3.9-1.2.8.5-.6 1.2-.8m364.3 1q-.6.7-1.5.7zM99.3 223l-1.2.8q0-1 1.2-.8m332.7 1.2q-.4.9-1.4.7zm35.3-.1-1.3.6q.3-.7 1.3-.6m-21.4 8.2q-.4.8-1.3.6.6-.5 1.3-.6m-45 11q-.3.7-1.2.7.4-.5 1.2-.8m-303 5q-.4.7-1.3.6zm252 7.9q-.4.7-1.3.7zm2.3 1.8-1.2.7q.3-.7 1.2-.7m-323.4 3.3q-.3.8-1.2.6zm336.4 5.8-1.3.6c-.2-1 .7-.6 1.3-.6m72.7 0c-.8 1.1-6 4.8-6.9 3.6 1.6-1.3 4.9-3.6 7-3.6m-324.6 7q-.6.5-1.3.6.3-.7 1.3-.7m288.7 1q-1.2 1.5-3 1.8.6-2.2 3-1.8m73.3 1-1.4.6q.5-.7 1.4-.6m-145.4 11a4 4 0 0 1-3 2q.6-2.4 3-2m17 5.9q-.9 1.9-3 2 .8-1.9 3-2M66.4 303l-1.6.8a2 2 0 0 1 1.6-.8M397 319.3q-.1.9-1.2.6zm-238 1q-.3.9-1.2.7.4-.4 1.2-.6m270 8.7c0 .9-1.3 1.7-1.8.8a2 2 0 0 1 1.8-.8m-296 6.4q-.4.8-1.3.6.6-.4 1.3-.6m339.2 5q-.6.6-1.5.6zm-295.2 10q-.4.7-1.3.7.6-.6 1.3-.7m-6.6 6.8-1.4.6q.5-.7 1.4-.6m-73 4q-.7.5-1.7.6.7-.6 1.7-.6m336 9-1.4.6q.5-.7 1.4-.6m-371.4 6q-.3 1-1.2.8.5-.5 1.2-.8m345 6q-.3 1-1.3.8zm-258.2 3.1q0 .9-1 .6zm258.4 0-1.1.6q.2-.8 1.1-.7M128.3 400l-1.3.8q.3-1 1.3-.8M58 408c-.6 1.6-3.4 2.7-5 3 .1-1.4 3.7-3.3 5-3m97 20c.1-.7 1.4-1.6 2-.7a2 2 0 0 1-2 .7m195 19.3c.2.8-.9.4-1.3.5q.6-.5 1.3-.5m-273.6.7-1.6.7a2 2 0 0 1 1.6-.7m-11.5 2.3q-.2.8-1.1.6.4-.5 1.2-.6m219.5.7q-.7.6-1.6.8a2 2 0 0 1 1.6-.8m-17 11.1q-.7.6-1.5.7.4-.8 1.5-.7m56.4 0q0 1-1 .9zm7.5 0q-.6.5-1.4.7.4-.8 1.4-.8M242 490q-.4 1-1.3.8zm-35 1.2q-.4.7-1.4.7.8-.6 1.4-.7"/><path fill="#23b0e2" fill-opacity=".4" d="M216 43c-.1.9-1.4 1.6-2 .7q.8-.9 2-.7m44.1.1q-1.2 1.6-3.2 1.8.9-2.1 3.2-1.8m171.1 45.1q-.5.8-1.6.8zm-61 5q-.5.9-1.4.8.6-.5 1.4-.8m63.1 0-1.2.5q.3-.7 1.2-.6m-9 16.1a2 2 0 0 1-1.6.6q.7-.6 1.5-.6m-91.4 7q-.2.9-1.1.7.4-.6 1-.7m-6.6 7.7-1.2.8q.1-1 1.2-.8m36 10-1.4.8q.4-.8 1.5-.8M66 140a3 3 0 0 1-2.9 2 4 4 0 0 1 3-2m301 4.2q-.3 1-1.2.8zm-30.6 4.9-1.2.8q.1-1 1.2-.8M94 164a7 7 0 0 1-5.1 3q2-2.5 5.1-3m348.4 0q-.5.6-1.3.7.4-.9 1.3-.7m-148.5 8.9q-.7 2-2.8 2.2a3 3 0 0 1 2.8-2.2m99 2q-.5 1.5-2 1 .8-1 2-1m70.1 0q-.5 1.4-2 1.1.5-1.2 2-1m-324 23.2a4 4 0 0 1-3 2 3 3 0 0 1 3-2m303.4 8-1.4.6q.4-.9 1.4-.7M168 208q-.9 1.8-3 2a3 3 0 0 1 3-2m-60.8 10.1q-.5.5-1.1.5.2-.8 1.1-.5m309.2 2.8q-.6.6-1.4.8.3-.8 1.4-.8m34.8 8.2q-.6.7-1.5.8.7-.5 1.5-.8m-346.1 15q-.5.9-1.4.8.6-.5 1.4-.8M57.3 249q-.6.6-1.4.8.5-.8 1.4-.8m330.8 2.2q-.4.9-1.4.7.7-.6 1.4-.7m-267 1.8-.2.5c-2 1-4.5 3.4-6.9 3.5 1-1.6 5-4.3 7-4m-85 4.3q-.5.8-1.5.7.6-.6 1.4-.7m309.2 4.7-1.4.8q.5-1 1.4-.8m-224 7.1-1.2.8q.1-1 1.2-.8m-23.4 11.2q-.3.8-1.2.6zm370.4-.3q-.6.5-1.3.7.4-.9 1.3-.7M34 285.3q-.4.8-1.3.6.6-.4 1.3-.6m408.3 9.8q-.6.5-1.4.7.5-.8 1.4-.7m7.7 8q-1 1.5-3 1.8.8-2 3-1.8m-310.6 32-1.3.8q.3-1 1.3-.8m331.9 13q-.5.6-1.3.7.3-.8 1.3-.8m-376.4 9q-.1 1-1.2.9zm62.4 7.9-1.2.8q.1-1 1.2-.8M69 372.3q-.4.8-1.4.6zm70 0q-.4.8-1.4.6zm282.2.9q-.6.7-1.6.7zm-17 11.1q-.7.6-1.5.6zm-3.9 4.8-1.3.6q.4-.7 1.3-.6m-298 9.9a2 2 0 0 1-1.6.7q.7-.7 1.6-.7m40.6 6.2c.3.9-.6.7-1.2.6zM81.3 412q-.7.5-1.6.6.7-.6 1.6-.6m3.7 10.2q-.4.7-1.3.7.6-.6 1.3-.7m22.3 6.8-1.4.6q.5-.7 1.4-.6m-48.2 8q-.5 1-1.4.8.6-.5 1.3-.7m189 6.9q-.5 1.4-2 1.1.6-1.5 2-1.1m-176 2.3q-.4.6-1.3.6.6-.4 1.3-.6M325.3 466q-.6.6-1.5.8.4-1 1.5-.8m-37 3.1-1.4.7q.5-.7 1.4-.7m-35 2q-.7.6-1.5.6a2 2 0 0 1 1.4-.6m21.6 0q-.2 1-1.1.8zm-35 1.2q-.3.8-1.2.6.6-.4 1.3-.6m46 12q-.3.9-1.2.7a2 2 0 0 1 1.2-.7m-37 2q-.3.7-1.3.7.6-.5 1.4-.7m-35 .9q-.2.9-1.2.7zm42.4 2.8q-.7.6-1.6.7.7-.6 1.6-.7"/><path fill="#23b0e2" fill-opacity=".3" d="M265.3 39.8a7 7 0 0 1-5.2 3.3c.2-1.7 3.7-3 5.2-3.3m125.4 40.3q0 1-1 .8zm-26.3 22q-.7.7-1.6.7.6-.7 1.6-.8m36 10q-.7.6-1.6.6.7-.7 1.5-.7m-24.6 10q0 1-1.2.9zm88 11.6v1h-1zM364.2 148a2 2 0 0 1-1.3.6q.4-.9 1.3-.6m-35.5 2.9q0 1-1 .7zm.2 16.8c-.5 1.7-5.6 4.2-7 4 .6-1 5.5-4 7-4m106.3 0a2 2 0 0 1-1.4 1q.4-1 1.4-1m37.6 1c-.6 1.8-3.1 3-4.8 3.2.4-1.7 3.3-3 4.8-3.2m7.5 15.2q-.7.7-1.5.7.4-.8 1.5-.7m-83.6 1.9q0 1-1.2.9zm13 33q0 1-1.1 1zm-315.5 7-1 1q0-1 1-1m329.4 3q0 1-1 .9zm14 8q0 1.1-1 1zM69 238q-.4.8-1.4.7.6-.5 1.4-.7m97 2.8a2 2 0 0 1-1.2 1q.3-1 1.2-1m226.7 7q0 1-1.1 1zm3.5 1q-.6.7-1.4.8.5-.8 1.4-.7m5.1 13q-.5.6-1.3.9.2-1 1.3-1M67.2 266q-.7.7-1.7.7zm266.4-.2q0 1-1 1zM105 276q-.3 1-1.3.9zm-9.6 9-1.2.9q0-1 1.2-.9m346.4 5.9q0 1-1.2 1zm-8 5q0 1-1 1zm-8 5q0 1.1-1.2 1zM34.3 317.3a2 2 0 0 1-1.6.7q.7-.6 1.5-.7m404.7 5.8a8 8 0 0 1-5 2.8c1-1.5 3.2-3 5-2.8m43.8 10q0 1-1.2.8zm-380.5 20.1q-.7.8-1.6.7.7-.5 1.6-.6m69.6 0q-.3.8-1.3.8zM438.3 367a2 2 0 0 1-1.5.7q.6-.8 1.5-.7m-20.5 8q0 1-1.2.8zM58.4 385l-1.2.8q0-1 1.2-.8m52 9-1 1q-.2-1.2 1-1m26 1-1.1.8q0-1 1-.9m240.6 7a3 3 0 0 1-3 1.8 3 3 0 0 1 3-1.8m-301.7 7.2q-.7.6-1.6.6zm29.7 18q-.4.7-1.3.7.6-.5 1.3-.7m244 1.7q-.5 1.3-2 1 .5-1.5 2-1m-246.7 3-1.1 1q.1-1 1.1-1M308 452.2q-.3.9-1.3.7zm-34.8 1q-.4.9-1.4.8.6-.6 1.4-.8m21.2 11.9-1 1q0-1.1 1-1m25 0q-.6.9-1.6.9zM33 468l1.2.2-1 1.2zm223.3 1-1 .9q0-1 1-.8m63 1.1-1 .9q0-1 1-.9m-26.1 10q-.4 1-1.5.8zm-30.9 6-1.1 1q0-1.2 1.1-1"/><path fill="#23afe2" fill-opacity=".3" d="M404 72q-.3 1-1.3.7zm-27.7 23.3-1.3.7q.3-1.1 1.3-.7m57.6 7.6q0 1-1.2.8zm-83.6 7.4-1.2.7q.2-1.1 1.2-.7m-20.4 7.6q0 1-1.2.8zm56.4 2.4-1.2.8q0-1.2 1.2-.8m-9.4 17.6q-.2 1-1.2.8zm-.6 3.4-1.2.7q.2-1 1.2-.7m-42.4 6.6q0 1.2-1.2.8zm123 1q0 1.2-1.2.8zm-35.6 27.4-1.2.8q0-1.1 1.2-.8m45 16-1.2.7q0-1.1 1.2-.7m11.6 3.6q0 1.1-1.2.8zm1.4 5.4-1.3.7q.3-1 1.3-.7M368 203.9q0 1-1.2.8zm116.4 10.4-1.2.8q0-1 1.2-.8m-37.4.6q0 1-1.2.8zm-32 1q-.2 1-1.2.8zm-64.6 1.3q-.6.6-1.3.8.2-1.2 1.3-.7m84 10-1.2.9q.2-1 1.2-.8M83 230q-.2 1-1.2.7zm356.4 10.3-1.2.7q0-1.1 1.2-.7m-31 2-1.2.7q0-1.1 1.2-.7m21.6-.4q-.2 1-1.2.8zm-60.6 6.4-1.2.7q0-1 1.2-.7m44 7-1.3.7q.3-1.1 1.3-.7m-31 2-1.2.7q0-1.1 1.2-.7m-301.4.6q0 1.1-1.2.8zm286 6.1q0 1.2-1.2.7zm125.4 2.3-1.2.7q.2-1 1.2-.7M119 267.9q0 1.1-1.2.8zm268.4 2.4-1.2.7q0-1.2 1.2-.7M450 273c-.6 1.4-3.4 2.8-5 3.1.5-1.8 3.3-3.2 5-3M93 283q-.4 1-1.3.7zm-2.7 5.3-1.2.8q0-1.1 1.2-.8m331 19-1.3.7q.3-1 1.3-.7m-365 2-1.2.8q.2-1 1.2-.8m59.7 35.6q-.3 1-1.3.8zm-28.7 22.4-1.2.8q.2-1 1.2-.8m384-.3-.7 1h-.4q0-1 1.1-1m-47 8.3-1.2.8q.2-1 1.2-.8m-285 1-1.2.8q0-1 1.2-.8M74.1 387a8 8 0 0 1-5.1 3q1.9-2.7 5-3m323.8.9q0 1.1-1.2.7zM382 399a7 7 0 0 1-5 3c.5-1.5 3.4-3 5-3m-293 2q-.3 1.1-1.3.7zm56.4 3.6q1.3.8-.2 1.5zm-61 5.7-1.3.8q0-1 1.2-.8M333 419c-.6 1.5-3.6 2.9-5.1 3.6l-.1-.5q1.9-3 5.2-3.1m-269.7 4.2-1.2.8q.1-1 1.2-.8m19 5-1.2.8q.1-1 1.2-.8m15 7-1.2.8q0-1 1.2-.8m235 5-1.2.7q0-1.1 1.2-.7M203.9 443q-.6 1.1-2 1 .7-1.2 2-1m-152.6 4.3-1.2.8q.2-1 1.2-.8m-8 21-1.2.8q.1-1 1.2-.8m263.6 3.6q0 1.1-1.2.8z"/><path fill="#22afe2" fill-opacity=".2" d="m369.3 99.3-1.2.8q.2-1 1.2-.8m24.6 11.6q-.2 1-1.2.8zm14 8q0 1-1.2.8zm-38.6 26.4-1.2.8q0-1.2 1.2-.8M309 163.6l1 .2c-.3 1.4-5.7 3.7-7 4.7q-1 .5-2 .4c1-2 6-4.3 8-5.3m131.3 1.7-1.2.8q.2-1 1.2-.8m8.6 29.6q0 1.1-1.2.8zm-68 1q-.2 1-1.2.8zm84 8q0 1.2-1.2.8zm-17 27q-.2 1-1.2.8zM64 241q0 1.2-1.2.8zm337.4 5.4-1.2.8q0-1 1.2-.8m5 13-1.2.8q.2-1 1.2-.8m-367 1-1.2.8q0-1.1 1.2-.8M62 269q-.1 1-1.2.8zm409 4q0 1-1.2.8zm-333 1q0 .9-.9 1.3l-11 6.7-.3-1 2-1.8c2.2-1 8.2-5.4 10.2-5.2m325 4q0 1.1-1.2.7zm-363 1q-.2 1-1.2.7zm355 4q-.2.9-1.2.7zM77.3 296.2l-1.2.8q0-1.1 1.2-.8m337 15-1.2.8q.1-1.2 1.3-.8m55 38-1.2.8q0-1.1 1.2-.8M97 355.9q-.2 1-1.2.8zm81 13c-.6 1.7-3.2 3.1-4.9 3.1.7-1.5 3.3-2.9 5-3m-103.6 6.4-1.2.8q.1-1.1 1.2-.8m52 9-1.2.8q0-1.1 1.2-.8m12.6 6.6q0 1.1-1.2.8zm-26 15q0 1.1-1.2.8zm-43 6q0 1.1-1.2.8zm17 9q0 1.1-1.2.8zm13 9q0 1.1-1.2.8zm-49.6 1.4-1.2.8q.2-1 1.2-.8m260 3-1.2.8q.1-1 1.2-.8m-218 4-1.2.8q.1-1 1.2-.8m-28 1-1.2.8q0-1.1 1.2-.8m264.6.7q0 1.2-1.2.7zm-35 1q0 1.1-1.2.7zm-.6 4.3-1.2.8q0-1.1 1.2-.8m51 8-1.2.8q.2-1 1.2-.8M55.1 456q-.2 1.1-1.2.8zm213 0q0 1.1-1.2.8zm-236.5 2.7h1.7l-.9.6zm272 .7-1.3.8q0-1 1.2-.8m-58 17-1.3.8q0-1 1.2-.8m42.5 6.6q0 1.1-1.2.8z"/><path fill="none" stroke="#22afe2" stroke-opacity=".2" stroke-width=".5" d="m369.3 99.3-1.2.8q.2-1 1.2-.8Zm24.6 11.6q-.2 1-1.2.8zm14 8q0 1-1.2.8zm-38.6 26.4-1.2.8q0-1.2 1.2-.8ZM309 163.6l1 .2c-.3 1.4-5.7 3.7-7 4.7q-1 .5-2 .4c1-2 6-4.3 8-5.3Zm131.3 1.7-1.2.8q.2-1 1.2-.8Zm8.6 29.6q0 1.1-1.2.8zm-68 1q-.2 1-1.2.8zm84 8q0 1.2-1.2.8zm-17 27q-.2 1-1.2.8zM64 241q0 1.2-1.2.8zm337.4 5.4-1.2.8q0-1 1.2-.8Zm5 13-1.2.8q.2-1 1.2-.8Zm-367 1-1.2.8q0-1.1 1.2-.8ZM62 269q-.1 1-1.2.8zm409 4q0 1-1.2.8zm-333 1q0 .9-.9 1.3l-11 6.7-.3-1 2-1.8c2.2-1 8.2-5.4 10.2-5.2Zm325 4q0 1.1-1.2.7zm-363 1q-.2 1-1.2.7zm355 4q-.2.9-1.2.7zM77.3 296.2l-1.2.8q0-1.1 1.2-.8Zm337 15-1.2.8q.1-1.2 1.3-.8Zm55 38-1.2.8q0-1.1 1.2-.8ZM97 355.9q-.2 1-1.2.8zm81 13c-.6 1.7-3.2 3.1-4.9 3.1.7-1.5 3.3-2.9 5-3Zm-103.6 6.4-1.2.8q.1-1.1 1.2-.8Zm52 9-1.2.8q0-1.1 1.2-.8Zm12.6 6.6q0 1.1-1.2.8zm-26 15q0 1.1-1.2.8zm-43 6q0 1.1-1.2.8zm17 9q0 1.1-1.2.8zm13 9q0 1.1-1.2.8zm-49.6 1.4-1.2.8q.2-1 1.2-.8Zm260 3-1.2.8q.1-1 1.2-.8Zm-218 4-1.2.8q.1-1 1.2-.8Zm-28 1-1.2.8q0-1.1 1.2-.8Zm264.6.7q0 1.2-1.2.7zm-35 1q0 1.1-1.2.7zm-.6 4.3-1.2.8q0-1.1 1.2-.8Zm51 8-1.2.8q.2-1 1.2-.8ZM55 455.9q-.2 1.1-1.2.8zm213 0q0 1.1-1.2.8zm35.4 3.4-1.2.8q0-1 1.2-.8Zm-58 17-1.2.8q0-1 1.2-.8Zm42.6 6.6q0 1.1-1.2.8z"/><path fill="#28b2e2" stroke="#28b2e2" stroke-width=".5" d="M251.2 141q-1.5-2.4-2.3-5.1 10-5.6 19.8-11.6.7-.4 1.1.2-9 8.7-18.6 16.6Z"/><path fill="#23b0e2" fill-opacity=".3" stroke="#23b0e2" stroke-opacity=".3" stroke-width=".5" d="M340 37c.7-1.5 3.2-2.8 4.6-3 1.6.9-3.6 3.2-4.5 3Zm-116 1q-1.6 3-5 3.1c.6-1.5 3.4-2.9 5-3.1Zm26 25c-.7 1.7-3.2 3.1-5 3 .5-1.4 3.5-3 5-3Zm152.3 17.3-1.3.7q.3-1.1 1.3-.7ZM402 106q-.2 1-1.2.7zm.4 20.3-1.3.7q.3-1.1 1.3-.7Zm-35 5-1.3.7q.3-1 1.3-.7ZM389 191q0 1.1-1.2.7zm-12.6 11.3-1.3.7q.3-1.1 1.3-.7ZM163.1 211a4 4 0 0 1-3 2q.8-2 3-2Zm-61.1 8q0 1.1-1.3.7zm327 7q-.1.9-1.2.7zm-303 6q-.3 1-1.3.8zm317 2q-.3 1-1.2.8zm-92.7 25.3-1.3.7q.3-1 1.3-.7ZM31 260q-.3 1-1.3.8zm72.3 20.3-1.2.7q0-1.1 1.2-.7Zm255.8 5.6a8 8 0 0 1-5.2 3.1q2-2.6 5.2-3Zm92.9 16a2 2 0 0 1-2 1.2q.5-1.4 2-1.1Zm-291 17q-.3 1-1.3.9zM379 331a7 7 0 0 1-5.2 3q2-2.4 5.2-3ZM64.1 375q-.3 1-1.3.8zm2.2 5.3-1.2.7q.2-1 1.2-.7ZM151 384q-.2 1.1-1.2.7zm254.3 2.2-1.3.7q.3-1 1.3-.7Zm-287 3-1.2.8q0-1 1.2-.8Zm13 9-1.2.7q0-1.1 1.2-.7Zm5.8 26.7a2 2 0 0 1-2.2 1q.7-1.2 2.2-1ZM93 434q-.3 1.1-1.3.7zm236.3 8.3-1.2.8q0-1.1 1.2-.8ZM322 444q-.3 1-1.2.8zm-35 1q-.3 1-1.3.8zm-220 4q-.3 1-1.2.8zm339.9 7.8q0 1.2-1.2 1.2.4-.7 1.2-1.2Zm-111 2.2q0 1.1-1.2.7zm-248 1q0 1-1.2.8zm213 0q-.1 1-1.2.7zm-1.6 7.3-1.2.8q0-1 1.2-.8ZM244 489q-.3 1-1.3.8z"/><path fill="#24b0e3" fill-opacity=".2" d="M396 77q-.2 1.1-1.3.7zm-.7 7.3-1.2.8q.2-1 1.2-.8m32.6 5.6q-.2 1-1.2.8zm3.4 4.4-1.2.8q0-1.1 1.2-.8M359 99.9q0 1.1-1.2.8zm62 11q0 1-1.2.8zm-25.6 19.4-1.2.8q0-1.2 1.2-.8m-35 5-1.2.7q.2-.9 1.2-.7m-13.4 4.6q0 1.2-1.2.8zm17 6q0 1.2-1.2.8zm-29.6 4.4-1.3.7q.2-1.1 1.3-.7m132 0-1.2.8q0-1.2 1.2-.8M436 161.9q-.2 1-1.2.8zm34 20q0 1.1-1.2.8zm-100.6 24.4-1.2.7q0-1.1 1.2-.7m84 10-1.2.7q0-1.1 1.2-.7M347 217q0 1.2-1.2.7zm67.4 5.3-1.2.8q0-1 1.2-.8M133 228q-.2 1.1-1.3.7l1.2-.7m3.3.3-1.2.7q0-1.2 1.2-.7m-47 1-1.2.8q0-1 1.2-.8m304.6-.4q0 1.1-1.2.8zm33.4 2.4-1.2.8q.2-1 1.2-.8m5 13-1.2.8q0-1.1 1.2-.8m-47.4 8.6q0 1-1.2.8zm27 0q0 1.1-1.2.8zm-374 3q0 1.1-1.2.8zm457 2q0 1.1-1.2.8zm-151.6 5.4-1.2.7q0-1.1 1.2-.7m143.6-.4q-.2 1-1.2.8zM419 265a7 7 0 0 1-5 3 7 7 0 0 1 5-3m-294.7 2.3-1.2.7q0-1.1 1.2-.7m354.6.6q-.2 1-1.2.8zm-33.8 8.2q-.8 1-2 1 .5-1.5 2-1m-409.2 7.8q0 1.1-1.2.8zm38 10q0 1.1-1.2.8zm366.4 2.4-1.2.8q0-1.1 1.2-.8M168 315q-.3 1.1-1.3.7.5-.4 1.3-.7m-4.7 5.3-1.2.8q0-1.1 1.2-.8m18 30-1.2.8q0-1.1 1.2-.8m-73 4-1.2.8q0-1.1 1.2-.8M429 367.9q0 1.1-1.2.8zm-358 3q-.2 1-1.2.8zm70 0q-.2 1-1.2.8zm-26 15q-.2 1.1-1.2.8zm57 3c-.1 1.7-3.5 3-5 3.2.7-1.7 3.2-3 5-3.2m-27.6 1.4-1.2.8q0-1.3 1.2-.8M395 390q0 1.2-1.2.7zm3.4.3-1.2.7q0-1.1 1.2-.7m-293 7-1.2.8q.2-1 1.2-.8m39.4 6.5.7.8-1.5-.2zM44 427q-.3 1-1.3 1 .6-.6 1.3-1m66.3.3-1.2.8q0-1 1.2-.8M313 430q0 1.2-1.2.7zm-36.6 26.3-1.2.8q0-1.1 1.2-.8m.6 13.6q-.2 1-1.2.8zm-35 1q-.2 1-1.2.8zm65.4 7.4-1.2.8q0-1 1.2-.8m-56.4 6.6q0 1.1-1.2.8zm-22.6 2.4-1.2.8q0-1.1 1.2-.8"/><path fill="#29b2e2" d="M224.3 414.8q-3 .4-5.2-2l17-10.2q1-.6 1.7-.1c-2.4 2.4-7 8-10.2 8.8-1 1.6-1.4 2.5-3.3 3.5"/><path fill="#2bb2e2" fill-opacity=".8" d="M275 385.2q1.5-.3 3 .5-2.2 1.7-4.7 3l-16.8 9.3c-.9-.6.2-1 .5-1.6q3.3-2.6 6-5.4.8-.3 1.3-.9l1.6-.3q1.5.4 2.1-.8c1.4.3 3-.5 2.8-2l1.1-1.3h1.1q1.1.3 2-.5"/><path fill="#23b0e2" fill-opacity=".3" d="M245 66a3 3 0 0 1-3 2q.9-2 3-2m138.3 25.3-1.3.7q.3-1 1.3-.7m36 10-1.3.7q.3-1.1 1.3-.7M389 114q-.3 1.1-1.3.7zm27 0q-.3 1.1-1.2.7zm-32.7 23.3-1.3.8q.3-1.2 1.3-.8M465 144q-.3 1-1.2.8zm-106 5q0 1.2-1.3.7zm-63 23q-.5 1.3-2.1.9.8-1 2-1m102 0q-.5 1.3-2 1 .5-1.4 2-1m30.3.3-1.2.7q0-1.1 1.2-.7M410 178q-.1 1.1-1.3.7zm76.3 19.3-1.2.7q0-1.1 1.2-.7M135.9 200c.2 1-1.2 1-1.9 1q.5-1.3 2-1m29.1 10q-.6 1.2-1.9 1.1c-.3-1.2 1.2-1.2 2-1m258 1q-.3 1-1.3.7zm-65.7 2.3-1.3.7q.3-1.1 1.3-.7m45 16-1.3.7q.3-1.1 1.3-.7m8.7 7.7q-.3 1-1.3.7zm4.3 1.3-1.3.8q.3-1 1.3-.8m-342 1-1.3.7q.3-1 1.2-.7m347 12-1.3.7q.3-1 1.3-.7M380 256q-.3 1-1.3.7zm-33 2q-.2 1.1-1.3.7zm42 9q0 1.2-1.2.7zm25 1c-.7 1.6-3.3 2.8-5 3q1.2-2 3.6-2.9zm-390.7 2.3-1.2.7q0-1 1.2-.7m119.7.8c-.4 1.4-3.7 2.8-5 2.9.8-1.5 3.2-3 5-3m-95 6q-.3.9-1.3.6zm38 10q-.3.8-1.3.7zm342.3 16.2-1.3.8q.3-1 1.3-.8m-393 19-1.3.7q.3-1 1.3-.7M110 336c-.4 1.4-3.7 2.7-5 2.8 1-1.5 3.1-3 5-2.8m24.2 2.1-1.2.8q.2-1 1.2-.8M109 349q-.3 1-1.3.8zm340 6q-.3 1-1.3.7zm8.3 1.3-1.3.7q.3-1.1 1.3-.7M153 364q-.2 1.1-1.3.7zm32.2.9q-.7 1.4-2.2 1.2.6-1.4 2.2-1.2m-33 3.4-1.1.7q.2-1 1.2-.7M415 377q-.3 1.1-1.2.7zm-144.2 10c.3 1.5-1.4 2.3-2.8 2q.6-2 2.8-2m-137.5 26.3-1.2.7q0-1.1 1.2-.7M99 414q-.3 1-1.3.7zm-22.7 1.3-1.3.7q.2-1.1 1.3-.7M56 420q-.3 1-1.3.7zm234.3 27.3-1.3.7q.2-1 1.2-.8M289 463q-.3 1-1.3.7zm-248 1q-.2 1.1-1.3.7zm213 0q-.3 1-1.2.8zm46 12q-.3 1-1.3.7zm-34.8 8.2q-.4.5-1.2.8.3-1 1.2-.8"/><path fill="#22b0e1" fill-opacity=".4" d="M257 45c.2 1-1.4 1.7-2 .7a2 2 0 0 1 2-.7m147.3 34q-.6.7-1.4.7.6-.7 1.4-.7m-26 15q-.5.7-1.4.7.5-.7 1.5-.6m27 10.2a2 2 0 0 1-1.6.7zm-64.2 7q-.4.8-1.5.8.8-.6 1.5-.8m51.7 17q-.1.9-1 .7zM66 140q.5-1.2 1.7-1.1c1.3.8-1.1 1.3-1.7 1m312.5 0q-.6.6-1.4.7.4-.7 1.4-.7m-35.1 5q-.5.6-1.2.8.2-1 1.2-.8m106 15-1.3.8q.4-.8 1.3-.7M319 174c0 .8-1.3 1.8-1.9.8a2 2 0 0 1 1.9-.8m-28 1q-.7 1-2.1.8.8-1.2 2.1-.8m190.1 0q-.5.8-1.5.8zM392 189.2q-.3.8-1.3.7.6-.6 1.3-.7M139 198q.4-1 1.5-1.2c1 .8-1 1.3-1.4 1.2m29 10q.3-1.4 1.6-1.2c1.3.8-1 1.3-1.6 1.2m314.2 2a2 2 0 0 1-1.5.8q.7-.5 1.5-.7m-132.4 5q0 1-1.1.8zm-242.6 1q-.4 1.1-1.5.7zm316.1 1q-.4.5-1.2.6.3-.7 1.2-.6m-18 5.1q-.7.7-1.6.8.6-.6 1.6-.8m31 3.9a2 2 0 0 1-1.2.6q.3-.7 1.2-.6m-39 1.1q-.7.7-1.5.8.6-.6 1.4-.8m-306 1q-.6.4-1.3.6.4-.8 1.3-.7m313 0-1.2.5q.3-.7 1.2-.6m-280.4 5q-.2.9-1.1.7zm317.4 5.9q-.6.6-1.3.7.3-.9 1.3-.7m-35.3 1.2q-.4.7-1.4.6a3 3 0 0 1 1.4-.7m27 0q-.5.8-1.4.6zm-362.7.7q-.6.6-1.3.8.3-1 1.3-.8m-8.4 1.2q-.3.8-1.2.8zm-7 4.1q-.3.9-1.2.7zm336.4 5.8-1.2.7q.3-.9 1.2-.7m-342 1.9q-.7.6-1.5.7.7-.6 1.5-.7m320.5 8.3q0 .9-1 .6zm-289.4.8q-.7.6-1.5.6.6-.6 1.5-.6m248.5 6.1q-.2.9-1 .6zM20.4 272q-.6.6-1.3.7.3-.8 1.3-.7m305.8 1.2-1 .5q0-.8 1-.5m-226 9-1.2.6q.4-.7 1.3-.7M435 282c0 1-1.5 1.6-2 .6q.8-.9 2-.6m-344.1 2.2q-.3.8-1.3.7zM43.4 286l-1.6.7q.6-.6 1.6-.7m-16.5 3q-.3.9-1.3.9zm422.5 2q-.6.4-1.4.6.5-.7 1.4-.6m-19 11-1.3.8q.3-1 1.3-.8m1.6 25a4 4 0 0 1-3 1.8 3 3 0 0 1 3-1.9m46.3 17-1.1.7q.1-.9 1-.8m-23.2 7q-.4 1-1.3 1 .5-.7 1.3-1M88 361.4q-.4.8-1.3.6.7-.5 1.3-.6m44 14.9q-.3.8-1.2.8.6-.6 1.3-.8M63.4 382q-.6.6-1.6.7.7-.6 1.6-.7m210.4 2.7 1.3.5q-.9.9-2 .5zM55.3 387q-.6.5-1.4.7.5-.7 1.4-.7m57.6.2q-.3.8-1.2.6zM94.2 404q-.5.7-1.4.8.5-.7 1.4-.8m16.8 3.2q-.3.9-1.3.7zm25 2q-.4 1-1.4.8.6-.6 1.3-.8M73.2 417l-1.5.7q.6-.7 1.5-.7m24 2-1.3.7q.3-.9 1.3-.8M78 426.1q-.2.9-1.2.7zm77 1.9a4 4 0 0 1-3 2q.9-2 3-2m-57 3.3q-.5.6-1.4.6zm213 0q-.4.8-1.3.6zM66.2 438q-.6.6-1.3.8.3-1 1.3-.8m253.8 7.3q-.6.8-1.4.6.6-.4 1.4-.6m-2.8 4.7-1.5.8q.4-.8 1.5-.8m-16.3 6.3q-.5.8-1.4.6.6-.6 1.4-.6m-265.7.7q-.5.6-1.3.8.4-1 1.3-.8m230.6.2q-.3.8-1.2.7zm65 1q-.2.9-1.1.7.4-.5 1.2-.6m-285 3q-.3.9-1.2.7.6-.4 1.3-.6m239.5 9.8q-.7.6-1.6.8.6-.9 1.6-.8m-17.5 4.3q-.3.8-1.2.7.4-.4 1.2-.7m-34.9 1q-.4.7-1.4.7zm45.9 12q-.2.8-1.1.7a2 2 0 0 1 1-.8m12.4.8q-.7.5-1.5.7.4-.7 1.5-.7m-38 3q-.6.5-1.4.7.5-.8 1.4-.7m-34 1q-.7.5-1.5.7.5-.8 1.5-.7"/><path fill="#23b0e2" fill-opacity=".5" stroke="#23b0e2" stroke-opacity=".5" stroke-width=".5" d="M401 63.3q.2-1.2 1.5-1.4c1.1.9-1 1.4-1.5 1.4ZM76 121c.5-1 2-2.6 3-1.5q-1 1.6-3 1.5Zm17 29.2c.2-.8 1.3-1.7 2-.8q-.9.9-2 .7Zm160 16.3q.2-1.4 1.5-1.6c1.2 1-1 1.5-1.6 1.6ZM388 178c-.3.6-1.3 1.5-2 .6q1-.9 2-.6Zm45 3q-1 1.5-3 2 .6-2.4 3-2ZM83 196c.2-.8 1.3-1.7 1.9-.8a2 2 0 0 1-1.9.7Zm83.1 44.9c-.2-1 1.3-1.4 1.8-.6q-.7.8-1.8.6Zm269 98c-.4 1-4.3 4-5.1 2.7a9 9 0 0 1 5-2.8ZM63 405a3 3 0 0 1-3 1.8q.6-2 3-1.8Zm84 14a8 8 0 0 1-5.2 2.8c1.1-1.3 3.3-3 5.2-2.9Zm201.8 9.9q.4-2.2 2.7-2.1c1.5 1-2.1 1.9-2.7 2Zm-110.8 7c.3-1 2-2.7 3-1.6q-.9 2-3 1.6Zm-26.2 2c.4-.6 1.4-1.6 2-.7a2 2 0 0 1-2 .7Zm36 6q.5-2 2.7-2c1.6.8-2.1 1.8-2.6 2Z"/><path fill="#24b1e1" fill-opacity=".3" d="m426.3 97.3-1.3.7q.3-.9 1.3-.7m2.7 8.7q-.3 1-1.3.7zm6.2 1.3-1.2.7q.3-.9 1.2-.7m-96.9 9.7-1 1q0-1 1-1m36 10.3-1.3.7q.3-1 1.3-.7M372 141q-.3 1-1.3.7zm59 24q-.3 1-1.3.8zm9 12q-.6 1.3-2 1a2 2 0 0 1 2-1m-30.7 6.1-1.1 1q0-1.1 1.1-1m55.4 2q0 1-1 .8zm-10.4 14.2-1.3.7q.3-1.1 1.3-.7m13 9-1.3.7q.3-1 1.3-.8m5 13-1.3.7q.3-1 1.3-.7M95 223q-.3 1-1.3.8zm361 3q-.3 1-1.2.7zm-67.3 6q0 1-1 1zm-276.4 11.3-1.3.7q.2-1 1.2-.7M93 251q-.2 1.1-1.3.7zm264.3 4.3-1.3.8q.3-1 1.3-.8m-313 1.9-1.3.8q.2-1 1.2-.8M24 264q-.3 1.1-1.3.7zm105.3.3-1.3.7q.1-1.2 1.3-.7m241 0-1.3.7q.2-1.1 1.3-.7m-295 1.9-1.3.8q.3-1 1.2-.8M112 272q-.2 1-1.2.8zm368.3 1.3-1.3.7q.3-1.1 1.3-.7m-442 16-1.3.7q.3-1 1.3-.7m397 10-1.3.8q.3-1 1.3-.8M418 306q-.3 1-1.3.7zm-8 5q-.1 1.1-1.2.7zm-282 27q-.3.9-1.3.7zm58.3 9.2-1.3.8q.1-1 1.2-.8m-73 3.9-1.1.9q0-1 1.1-1M57 379q-.3.8-1.3.6zm355.3 3.2-1.3.7q.3-1 1.3-.7M79 384a7 7 0 0 1-5 3c.6-1.6 3.3-2.8 5-3m322 2q-.2 1-1.2.8zm-293.3 4q0 1-1 .9zm-7 3.9q0 1-1 1zM306 434q-.2 1-1.3.8zm-1.8 4.2-1.2.8q.3-1 1.2-.8M59.8 453q0 1-1 .8zm266.2 8q-.2.8-1.2.7zm-89 32q-.2.9-1.2.6z"/><path fill="#1a8ab3" fill-opacity=".1" stroke="#1a8ab3" stroke-opacity=".1" stroke-width=".5" d="M277.7 60.3q0 1 1 1.3L268 68l.2-1.2c.6-1.9 7.6-5.3 9.5-6.5ZM114 438.2l.9.4q-8.1 5.4-16.5 10.2-.1-1-1.1-1.4l15-8.8q.7-.5 1.7-.4Z"/><path fill="#20a5d7" fill-opacity=".2" stroke="#20a5d7" stroke-opacity=".2" stroke-width=".5" d="M350.7 154q.4 1 1.4 1.3l-16 9.3q-1 .5-2.1.4.6-1 1.6-1.7zm102.6 159.8q.9.3.7 1.2c-2.3 1-7.8 5.1-10 5 .7-2 7.3-5.2 9.3-6.2Z"/><path fill="#23b0e2" fill-opacity=".5" stroke="#23b0e2" stroke-opacity=".5" stroke-width=".5" d="M379 49c0 .7-1.3 1.7-1.9.7a2 2 0 0 1 2-.8ZM109.8 73.1q.7-2 2.8-2.2c1.6 1-2.4 1.8-2.8 2.2ZM64 154q-.9 1.9-3 2 .9-2 3-2Zm394 24c-.2.7-1.4 1.6-2 .7q.7-1 2-.7ZM24 219c.6-1.2 6.2-4.8 6.8-3.7-1.4 1.3-5 3.6-6.9 3.6Zm100 32q-.9 1.5-3 2 .6-2.3 3-2Zm275 26q-.4 1.4-2.1 1 .7-1.2 2.2-1Zm-72 12c0 1-1.4 1.7-2 .7q.9-1 2-.7Zm-212 44c.5-1.4 6.2-4.8 6.9-3.7a23 23 0 0 1-6.8 3.8Zm32 86c.2-.6 1.3-1.6 1.9-.7a2 2 0 0 1-1.8.7Zm65 19q-.9 1.9-2.9 2c0-1.5 1.6-1.8 2.8-2Z"/><path fill="#23b0e2" fill-opacity=".5" d="M193 25.2h1.4q-.6.6-1.7.9zm188.8 22c.7 1.5-2 1.7-2.8 1.7 0-1.3 1.7-1.8 2.8-1.7M240 69a4 4 0 0 1-3 2q.7-2.2 3-2m151.9 43.3q-.3.7-1.2.7.5-.5 1.2-.7m3.4 2.8q-.6.6-1.3.6.4-.7 1.3-.6m10.7 5.2q-.3.7-1.2.7.4-.5 1.2-.8M359.3 151q-.6.5-1.3.7.3-1 1.2-.7m71 20-1.3.7q.3-.8 1.3-.8M391 176q-.7 2-2.8 2 .6-1.9 2.8-2m70.1 0c.4 1.7-2 1.8-3 2 0-1.5 1.9-1.8 3-2m14.3 11-1.3.8q.4-.8 1.3-.8M83 196q-.9 2-3 2a3 3 0 0 1 3-2m-9 39.3q-.4.7-1.3.7.6-.5 1.2-.7m304.3 7.8-1.3.6q.4-.7 1.3-.6M72 263.2q-.4.9-1.3.7zm324.3 1.9-1 .8q0-1 1-.8M110 273.3q-.3.8-1.3.6zM344 295c-.2.7-1.4 1.4-2 .6q.9-.9 2-.6m69 14.1q-.3.8-1.3.8zm-8.6 8-1.2.6q.1-.9 1.2-.7m-372.2 7-1.2.7q.3-.9 1.2-.7M369 336.9a4 4 0 0 1-3.1 2.1q.7-2.3 3.1-2m-237.7 3q-.6.5-1.3.8.3-.9 1.3-.8m295.5 4.1q.3-.9 1.1-.7-.4.6-1 .7m-320 6q-.1 1-1.1.8zm206.2 99q-.4 1-1.3.8zm-35 1.2q-.4.7-1.2.7.4-.5 1.2-.7"/><path fill="#20a1d5" fill-opacity=".2" stroke="#20a1d5" stroke-opacity=".2" stroke-width=".5" d="M474 156.2q.5 0 .7.5-.3.8-1 1.4a531 531 0 0 0-21.7 12.5q-1 .5-2 .3.2-.8 1-1.2l21.4-13q.7-.5 1.5-.5Z"/><path fill="#1ea7d7" fill-opacity=".2" stroke="#1ea7d7" stroke-opacity=".2" stroke-width=".5" d="M317.6 276q.4 1 1.5 1.4a329 329 0 0 0-21.1 12q-1 .7-2 .3z"/><path fill="#1e9cc7" fill-opacity=".2" stroke="#1e9cc7" stroke-opacity=".2" stroke-width=".5" d="M194.7 300q.2.9-.7 1.4-9.2 5.8-18.7 11.3-.2-1.2-1.4-1.3 9.8-5 19-11z"/><path fill="#1ea2ca" fill-opacity=".2" stroke="#1ea2ca" stroke-opacity=".2" stroke-width=".5" d="M129 204.1q-.4.8-1 1.2-9.3 6-18.7 11.5-.2-1.2-1.4-1.3l19-11q1-.6 2-.4Z"/><path fill="#1d9ac4" fill-opacity=".2" stroke="#1d9ac4" stroke-opacity=".2" stroke-width=".5" d="m176 429.3-1.6 1.5-18.1 11q0-1.2-1-1.4l3.7-2 15-9q1-.4 2-.1Z"/><path fill="#1ea1cb" fill-opacity=".2" stroke="#1ea1cb" stroke-opacity=".2" stroke-width=".5" d="M68 205.1q-.7 1-1.6 1.7-9 5.6-18.2 11 0-1.2-1-1.4l18.8-11q1-.5 2-.4Z"/><path fill="#23afe1" fill-opacity=".4" d="M407.2 70.2q-.5.8-1.4.8.5-.6 1.4-.8m-10 13-1.1.5q.3-.6 1.2-.6m-34.9 15.1q-.6.8-1.7.6a3 3 0 0 1 1.7-.6m22 19q-.7.6-1.7.6.7-.6 1.6-.7m84 31.7q-.6.6-1.3.7.4-.7 1.2-.7m-63.1 32.3a2 2 0 0 1-1.5.6 3 3 0 0 1 1.5-.6M371.4 205l-1.3.8q.3-1 1.3-.8m46.7 9.3q-.5.7-1.4.7.6-.5 1.4-.7m-65.8 1.8-1.1.7q0-.9 1.1-.6M88 227.3q-.3 1-1.2.8.5-.5 1.2-.8m43 2.1q-.3.8-1.2.5zm298.5.7-1.4.8q.4-.9 1.4-.8M112 240.4q-.3.6-1.2.6zm5.3-.3-1.2.8q.3-.8 1.2-.8m259 .3q-.6.8-1.5.6zm34.2.8-1.4.6q.5-.6 1.4-.6m23.9 2-1.3.7q.3-.9 1.3-.7M342 261.4q-.3.8-1.2.6zm-269.8 34q-.5.7-1.4.7.6-.5 1.4-.7m93.7 20.8q0 1-1.2.8zm-125.5 3q-.6.4-1.4.6.6-.6 1.4-.6m106.8 8.1a2 2 0 0 1-1.5.8q.7-.6 1.5-.7m5.2-.1-1.3.7q.3-.9 1.3-.7m-37 64-1.5.6q.6-.7 1.5-.6m21.5 1q0 1-1.2.8zm6.4 15-1 .8q0-1 1-.8m-77 26q-.5 1-1.5.8l1.5-.7m-27 5q-.5.5-1.3.6.5-.7 1.4-.6m262 2q-.5.5-1.4.6.5-.7 1.4-.6m25.6 1q-.2 1-1.2.8zm-248 1q-.4.8-1.3.6.5-.4 1.2-.6m213 0q-.3.7-1.2.7.4-.5 1.2-.7m28.4 5.7q-.7.6-1.6.8.5-1 1.6-.8m-267.5 9.3q-.3.8-1.2.6.5-.4 1.2-.6m5.4 1.7q-.7.6-1.5.7.6-.7 1.5-.7"/><path fill="#23b0e2" fill-opacity=".5" stroke="#23b0e2" stroke-opacity=".5" stroke-width=".5" d="M237 71c-.2.6-1.4 1.7-2 .7a2 2 0 0 1 2-.8ZM64 154q.3-1.2 1.6-1.1c1.2.7-1 1.3-1.6 1.1Zm225 22c-.4 1.1-1.7 2.4-3 1.6.3-1.2 2-1.4 3-1.7Zm141 7c0 1.1-1.3 1-2 1q.5-1.3 2-1Zm-306 68c.3-.6 1.3-1.6 1.9-.7q-.7.8-1.9.7Zm29 14c-.2 1.5-3.7 2.9-5.1 3 1.1-1.4 3.2-3.1 5-3Zm212.9 74c.3 1-1.3 1.7-1.9.7q.7-1 1.9-.7Zm-275 38a9 9 0 0 1-5 3c.9-1.5 3.3-3.1 5-3ZM63 405.1c.2-.7 1.3-1.7 2-.8q-.8.8-2 .8ZM338 416q.6-1.2 1.7-1.8 2.4-.2.5 1.4-1.2.4-2.3.4Z"/><path fill="#23afe3" fill-opacity=".2" stroke="#23afe3" stroke-opacity=".2" stroke-width=".5" d="m379.4 124.3-1.3.8q0-1.1 1.3-.8Zm-19.5 7.6q-.2 1-1.2.8zm99.4 64.4-1.2.8q.2-1 1.2-.8ZM428 207.9q0 1-1.2.8zM90 226q0 1.1-1.2.8zm-2 28q-.2 1-1.2.8zm264 1q-.2 1-1.2.8zm-243 5q0 .9-.9 1.3L97 268q0-.5-.3-.8l1.3-1.6 9-5.2q.9-.4 2-.4Zm266.5 1.3-1.3.7q0-1.2 1.2-.7Zm55.5 36.6q-.2 1-1.2.8zm-13.6 81.4-1.2.8q0-1.1 1.2-.8ZM268 389q-.6 1.3-2.1.9a2 2 0 0 1 2.1-1Zm-172 8q-.3 1-1.3.7zm-2 20q-.3 1-1.3.7z"/><path fill="#24aee0" fill-opacity=".2" stroke="#24aee0" stroke-opacity=".2" stroke-width=".5" d="M85 155q-.3.8-1 1.2L73 163v-1.4l1.6-1.4 9-5.1q.7-.3 1.5-.1Zm75 58c-.5 1.6-3.6 2.8-5 3.1q1.7-3 5-3Zm-30 216c-1 1.7-3 3.2-5 3q1.9-2.6 5-3Z"/><path fill="#20aad7" fill-opacity=".2" stroke="#20aad7" stroke-opacity=".2" stroke-width=".5" d="M476.3 286.8q.8.3.6 1.2-9 5-17.9 10.4a3 3 0 0 1-2 .5 5 5 0 0 1 1.6-1.8l15-9z"/><path fill="#22b1e3" fill-opacity=".4" d="M390.2 87.2q-.6.4-1.3.6.4-.8 1.3-.6m19.6 13.9q0 1-1 .8zm-56 2q0 1-1.1.8.5-.5 1.2-.8m31 30q0 1-1.2.9zm5.4 0q-.5.6-1.1.8.2-.8 1.1-.8M90 152q-.6 1.3-2 1.1.5-1.2 2-1m361.8.2q-.1 1-1.1 1zm-122.6 1.2-1.4.5q.5-.7 1.4-.6m33.6 53.7q0 1-1.1.9zm1.4 2a2 2 0 0 1-1.2.7q.4-.7 1.2-.6m90.5 1q0 1-1 1zm-316.6 15.2q-.5.9-1.5.7.8-.6 1.5-.7m271.2-.2q-.7.6-1.5.9.5-.8 1.5-.9m13 9-1 .8q0-.9 1-.8m5 13q-.4.6-1.2.8.3-.8 1.2-.7m-7.5 1q0 1-1.1 1zm45.9 28q0 1-1 1zm-424.5 5.2q-.6.7-1.6.7.7-.5 1.5-.7m416.6-.1q-.1.9-1.1.9zm-8 4.8q0 1.1-1 1zM173 312.3q-.3.8-1.3.4zM464.3 352a3 3 0 0 1-1.5.8q.5-.8 1.5-.8m-299 8.1-1 .8q0-1 1-.8m-73 4-1.1.8q0-1 1.1-.9m53.5 4.2q0 .8-1 .7zM105.2 414l-1 .9q0-1 1-1m-56 10.1a2 2 0 0 1-1.5.8zm233 43q-.6.9-1.5.8.6-.6 1.4-.7m-35 1q-.5.7-1.5.7zM84 472.3v.4l-1.1.5q0-1 1-.9m155.4 7.7-1.1 1q0-1 1-1"/><path fill="#1fa7d5" fill-opacity=".2" stroke="#1fa7d5" stroke-opacity=".2" stroke-width=".5" d="M314.8 63.8c.6.3 1.6.4 1 1.3q-4.4 3-9.2 5a48 48 0 0 1-10.4 5.9q0-.8.7-1.4z"/><path fill="#1c99c7" fill-opacity=".2" stroke="#1c99c7" stroke-opacity=".2" stroke-width=".5" d="M380.6 272.2q.6.9 1.5 1.2l-16 9.2q-1 .5-2 .4.4-1.2 1.5-1.8z"/><path fill="#1983a8" fill-opacity=".1" stroke="#1983a8" stroke-opacity=".1" stroke-width=".5" d="M445.7 248.2q0 1 1 1.4L429 260l.2-1.2a3 3 0 0 1 1.4-1.6 375 375 0 0 0 15-9Z"/><path fill="#1d9ecf" fill-opacity=".2" stroke="#1d9ecf" stroke-opacity=".2" stroke-width=".5" d="M173 372q-.5 1.2-1.6 1.7a300 300 0 0 0-15.1 9.2q-.5-.9-1.4-1.2l16-9.3a4 4 0 0 1 2.1-.4Z"/><path fill="#1b90b8" fill-opacity=".1" stroke="#1b90b8" stroke-opacity=".1" stroke-width=".5" d="M325.7 153.4q.3 1 1.4 1.2-7.4 4-14.6 8.4-1.2.6-2.4.8l-1-.2q8-5.5 16.6-10.2Z"/><path fill="#1a80a4" fill-opacity=".1" stroke="#1a80a4" stroke-opacity=".1" stroke-width=".5" d="M73 161.6v1.4l-7.6 4.7q0-1-1.1-1.3v-.1q4.2-2.6 8.7-4.7Zm75 58v1.4l-7.7 4.7q-.2-1.1-1.3-1.3c2.7-1.2 6.2-4.1 9-4.7Z"/><path fill="#20abd6" fill-opacity=".2" stroke="#20abd6" stroke-opacity=".2" stroke-width=".5" d="M167 392q0 .6-.5 1l-16 9.7q-1 0-1.3-.9.3-.7 1.1-1l14.6-8.5q1-.4 2-.2Z"/><path fill="#23b1e0" fill-opacity=".3" stroke="#23b1e0" stroke-opacity=".3" stroke-width=".5" d="m421.3 115.3-1.2.8q0-1.2 1.2-.8ZM334 165c-.7 1.7-3.2 3-5 3q1.8-2.5 5-3Zm74 1a7 7 0 0 1-5.2 2.9c1-1.6 3.3-3.1 5.2-2.9Zm-12.8 25.2-1.2.7q0-1 1.2-.7ZM373 241.9q-.2 1-1.2.8zm-312.6 5.4-1.2.8q0-1 1.2-.8ZM339 262.9q-.2 1-1.2.8zm55 1q0 1.1-1.2.8zM48 309q-.2 1.1-1.2.8zm94.4 24.4-1.2.8q0-1.2 1.2-.8ZM186 345q0 1.2-1.2.7zm-25.6 18.3-1.2.8q0-1 1.2-.8ZM132 394.9q-.2 1-1.2.8zm-31.6 22.4-1.2.8q.1-1 1.2-.8Zm-58 19-1.2.7q.2-1 1.2-.7ZM35 450.9q-.2 1-1.2.9zm312.4.4-1.2.8q0-1.1 1.2-.8Z"/><path fill="#22a9dd" fill-opacity=".2" stroke="#22a9dd" stroke-opacity=".2" stroke-width=".5" d="M105 339a2 2 0 0 1-1 1.2l-16 9.4-1-.4q.3-1 1.3-1.4l14.6-8.5q1-.4 2-.4Z"/><path fill="#24b2e5" fill-opacity=".2" stroke="#24b2e5" stroke-opacity=".2" stroke-width=".5" d="m47.4 117-.5 1.1H46q0-1 1.2-1.2Zm367 2.3-1.3.8q0-1 1.2-.8Zm-19.5 7.6q-.2 1-1.2.8zm-6.6 68.4-1.2.8q0-1.1 1.2-.8ZM360 208.9q0 1-1.2.8zm-207 40q0 .8-.9 1.4l-11 6.7v-1.4l1.6-1.4c2.3-1 8.3-5.4 10.4-5.2Zm219 12q0 1.2-1.2.8l1.2-.7Zm51 42q-.2 1-1.2.8zM126 415q0 1-1.2.8zm214 38q0 1.1-1.3.8zm-108 43q0 1.1-1.2.8z"/><path fill="#20b7e4" fill-opacity=".2" stroke="#20b7e4" stroke-opacity=".2" stroke-width=".5" d="M140 437q-.6 1-1.6 1.7-7.8 4.5-15.3 9.3-.3-1-1.3-1.2l16.2-9.4q1-.5 2-.4Z"/><path fill="#2495be" fill-opacity=".8" d="m165.1 23.3-5.4 2q-3.2 2.1-6.6 3.3a3 3 0 0 1-2.4 0l2-1.7 8-3.8q2.2-.3 4.4.2m-14.4 5.3c.5 1.3-1.2 1.6-2 1.1zm-2 1.1q-.2 2.4-2.6 2l.1-.5q1-1.2 2.5-1.5"/><path fill="#1fb0db" fill-opacity=".2" stroke="#1fb0db" stroke-opacity=".2" stroke-width=".5" d="M197 447q-.6 1.1-1.6 1.7l-11.8 7.3q-.8.6-1.8.8-.2-.5-.8-.5a2 2 0 0 1 1.2-1.4l12.8-7.5q1-.5 2-.3Z"/><path fill="#229cc8" fill-opacity=".2" stroke="#229cc8" stroke-opacity=".2" stroke-width=".5" d="M236 451a5 5 0 0 1-1.6 1.8l-13.1 8q-.2-1.2-1.4-1.3l14-8q1-.6 2-.5Z"/><path fill="#1f9ac9" fill-opacity=".2" stroke="#1f9ac9" stroke-opacity=".2" stroke-width=".5" d="M84 170.1q-.4.8-1 1.3-6.8 4.4-14 8.6.2-1.3-1.2-1 7-4.5 14.2-8.6 1-.5 2-.3Z"/><path fill="#1ba1cb" fill-opacity=".2" stroke="#1ba1cb" stroke-opacity=".2" stroke-width=".5" d="M341.8 220.3q.2 1 1.3 1.3l-14 8q-1.2.5-2.2 0 7.3-4.9 14.9-9.3Z"/><path fill="#21a7dc" fill-opacity=".2" stroke="#21a7dc" stroke-opacity=".2" stroke-width=".5" d="M463.5 251q1.3-.4 1.5 1l-15 8.7a4 4 0 0 1-2 .2q.3-.7 1-1.2z"/><path fill="#1fabdd" fill-opacity=".2" stroke="#1fabdd" stroke-opacity=".2" stroke-width=".5" d="M424.2 155.8q.8.3.8 1.2l-15 8.7-1.9.4q0-.8.9-1.4z"/><path fill="#209bcb" fill-opacity=".2" stroke="#209bcb" stroke-opacity=".2" stroke-width=".5" d="M393.7 321.3q.2 1.2 1.4 1.2l-14 8.2q-1 .3-2 .3 0-.9.9-1.3 6.7-4.3 13.7-8.4Z"/><path fill="#20a4d1" fill-opacity=".2" stroke="#20a4d1" stroke-opacity=".2" stroke-width=".5" d="m465 263.3 1 .5q-.4 1-1.3 1.4l-12.7 7.3a4 4 0 0 1-2 .5 4 4 0 0 1 1.6-1.8q6.6-4.1 13.5-8Z"/><path fill="#21a9db" fill-opacity=".2" stroke="#21a9db" stroke-opacity=".2" stroke-width=".5" d="M259.7 29q.4 1 1.4 1.3c-3.3 1.6-13.3 8.3-16.1 8.7q.7-1 1.6-1.8z"/><path fill="#21b3e4" fill-opacity=".3" stroke="#21b3e4" stroke-opacity=".3" stroke-width=".5" d="M351 273.6q.8.4 1 1.2l-13 7.6a4 4 0 0 1-2 .6q.5-1.2 1.6-1.8z"/><path fill="#23b0e0" fill-opacity=".2" stroke="#23b0e0" stroke-opacity=".2" stroke-width=".5" d="m343.3 114.3-1.2.8q.2-1 1.2-.8Zm71.6 60.6q0 1-1.2.8zm-.6 5.4-1.2.8q.2-1 1.2-.8ZM403 241.9q-.2 1-1.2.8zm-277 22q0 1.4-1.2.8l1.2-.7Zm359.4 6.4-1.2.8q0-1.1 1.2-.8Zm-374 5-1.2.8q0-1.1 1.2-.8ZM439 292.9q0 1.1-1.2.8zm38 44q0 1.1-1.2.8zm-329.6 34.4-1.2.8q.1-1 1.2-.8ZM69 390a7 7 0 0 1-5 3 6 6 0 0 1 5-3Zm57.3 11.3-1.2.8q0-1 1.2-.8ZM132 428q-.5 1.3-2 1 .6-1.2 2-1Zm-51 13q-.3 1-1.4.7zm193.3 37.3-1.2.8q0-1.1 1.2-.8Zm30 2-1.2.8q0-1.1 1.2-.8Z"/><path fill="#21aee3" fill-opacity=".3" stroke="#21aee3" stroke-opacity=".3" stroke-width=".5" d="M445 333a7 7 0 0 1-5 3q1.9-2.6 5-3ZM336 475c-.4 1.5-5.7 4-7 5.4l-1 .2q-.4-.3-1-.3.3-1 1.3-1.6c2.1-.7 5.7-3.8 7.8-3.8Z"/><path fill="#1b92c1" fill-opacity=".2" stroke="#1b92c1" stroke-opacity=".2" stroke-width=".5" d="M361.6 267.2q.3 1.3 1.5 1.3-5.6 3-11 6.3-.3-.9-1.1-1.2z"/><path fill="#1a81aa" fill-opacity=".1" stroke="#1a81aa" stroke-opacity=".1" stroke-width=".5" d="M463.7 307.2q0 1 1 1.5L454 315q.3-.9-.7-1.2 5-3.6 10.3-6.6Z"/><path fill="#1a84aa" fill-opacity=".1" stroke="#1a84aa" stroke-opacity=".1" stroke-width=".5" d="M354.8 120.2q0 1.2 1.3 1.2a76 76 0 0 0-9 5.2q-1 .6-2.1.6l-1.1-.5z"/><path fill="#24b2e0" fill-opacity=".2" d="m336.4 118.3-1.3.8q.1-1 1.3-.8m2.5 26.6q0 1-1.2.8zM76.4 237.3l-1.3.8q.2-1 1.3-.8m358.5 1.6q-.2 1-1.2.8zm-319.6 2.4-1.2.8q.2-1 1.2-.8m249.6 5.6q-.2 1-1.2.8zm-270 3q-.1 1.1-1.3.7zm295 0q0 1-1.2.8zm17.4 65.4-1.2.8q0-1.1 1.2-.8m-257 13-1.2.8q.2-1 1.2-.8m-20.4 8.6q-.2 1-1.3.8zm44 15q-.2 1-1.3.8zm-34.6 41.4-1.2.8q.1-1 1.3-.8m-19.4 8.6q-.1 1.1-1.3.8zm3.4 17.4-1.2.8q0-1.1 1.2-.8m-16.4 6.6q0 1.1-1.3.8zm-1.6 4.4-1.2.8q0-1.1 1.2-.8M310 450.9q-.1 1-1.3.8zm-.6 4.4-1.1.8q0-1 1.1-.8"/><path fill="#1b9bbf" fill-opacity=".2" stroke="#1b9bbf" stroke-opacity=".2" stroke-width=".5" d="m96.7 267.2.3.8-10 6q0-1-1.3-1.2 4.5-2.8 9.2-5.4.9-.5 1.8-.2Z"/><path fill="#187fa6" fill-opacity=".1" stroke="#187fa6" stroke-opacity=".1" stroke-width=".5" d="M141 255.7v1.3q-4.7 3-9.7 5.6-.3-1-1.4-1l9-5.2z"/><path fill="#23ace4" fill-opacity=".2" stroke="#23ace4" stroke-opacity=".2" stroke-width=".5" d="M228 442a2 2 0 0 1-1 1.3l-11 6.7q0-.6-.3-1 .8-1 2-1.8c2.2-1 8.2-5.5 10.3-5.2Z"/><path fill="#1aa7ce" fill-opacity=".2" stroke="#1aa7ce" stroke-opacity=".2" stroke-width=".5" d="M391.6 392.1q.6.9 1.5 1.3l-9 5.2q-1 .4-2.1.3c1.3-2.2 7.2-5.2 9.6-6.8Z"/><path fill="#1e91b8" fill-opacity=".1" stroke="#1e91b8" stroke-opacity=".1" stroke-width=".5" d="m215.7 449 .3 1-9.6 5.8q-.3-1.2-1.5-1.3l9-5.1q.9-.4 1.8-.5Z"/><path fill="#1a95be" fill-opacity=".1" stroke="#1a95be" stroke-opacity=".1" stroke-width=".5" d="m125.7 281 .3 1-10 6q0-1-1.2-1c2-1.4 8.7-6 10.9-6Z"/><path fill="#1fade6" fill-opacity=".2" stroke="#1fade6" stroke-opacity=".2" stroke-width=".5" d="m343.9 126.7 1 .5q-.8 1.3-2.2 2a82 82 0 0 0-7.7 4.4q-.8.5-1.7.5 0-.9.7-1.5z"/><path fill="#23b1e1" fill-opacity=".2" d="m405.4 109.3-1.3.8q.1-1 1.3-.8m-17 128-1.3.8q.2-1 1.2-.8m-281 9-1.3.8q0-1.2 1.2-.8m-37 23-1.3.8q.1-1 1.2-.8m376.5 18.6q-.2 1-1.2.8zM33 292.3l-1.2.8q0-1.1 1.2-.8m-4 27.6q-.2 1.1-1.2.8zm1.4 5.4-1.2.8q0-1.1 1.2-.8m118.6.6q0 1-1.2.8zm-26 15q-.2 1-1.2.8zm6.4.4-1.2.8q0-1 1.2-.8m37.6 14.6q-.2 1.1-1.2.8zm276.4 8.4-1.2.8q.2-1 1.2-.8M412 378.9q-.2 1-1.2.8zM95.3 420.3l-1.2.8q.2-1 1.2-.8M303 454.9q-.2 1-1.2.8zm-40.6 10.4-1.2.8q0-1 1.2-.8m51.6 2.6q0 1-1.2.8z"/><path fill="#1daad8" fill-opacity=".2" stroke="#1daad8" stroke-opacity=".2" stroke-width=".5" d="M233.8 31.2q.3.9 1.3 1.2l-9 5.2q-1 .5-2.1.3.3-.9 1-1.3z"/><path fill="#53bfe5" d="M301 383q1.8 0 2.3 1.7-1.5.4-2.9 1.2l-7 4q-.6-.4-.1-1 4-2.7 7.7-6"/><path fill="#1fb2e5" fill-opacity=".2" stroke="#1fb2e5" stroke-opacity=".2" stroke-width=".5" d="M50.9 162q0 .8-.9 1.3-3.8 2.2-7.4 4.7-.8.4-1.7.6l-1-.4q.5-1 1.4-1.4c2.3-1 7.4-5 9.6-4.9Z"/><path fill="#1fa1d6" fill-opacity=".2" stroke="#1fa1d6" stroke-opacity=".2" stroke-width=".5" d="m455 326.3 1 .4q-.3 1-1.3 1.5c-2.4 1-7.5 5-9.7 4.8q.6-1 1.6-1.8z"/><path fill="#21b4e2" fill-opacity=".3" stroke="#21b4e2" stroke-opacity=".3" stroke-width=".5" d="M71 124q-.3.8-1 1.3-3.8 2.3-7.4 4.8-.7.5-1.6.5-.6 0-1-.3.4-1 1.4-1.5c2.4-1 7.3-4.8 9.6-4.9Z"/><path fill="#20aad4" fill-opacity=".2" stroke="#20aad4" stroke-opacity=".2" stroke-width=".5" d="M260.3 56.2q0 .8.7.5 0 .6-.6 1c-2.2 1.1-8.2 5.6-10.4 5.3q.2-.8 1-1.4 4.5-2.9 9.3-5.4Z"/><path fill="#23a6da" fill-opacity=".2" stroke="#23a6da" stroke-opacity=".2" stroke-width=".5" d="M64 393q-.2.9-1 1.4-4.8 3-9.8 5.5v-1.8l3-1.3c2-1 5.7-4.1 7.8-3.7Z"/><path fill="#5abadc" d="m263 341-.7 2.8q-2.9 1.2-5.2 3-1.5.4-2.7 1c-1-.4.2-1 .5-1.4z"/><path fill="#22a8d6" fill-opacity=".2" stroke="#22a8d6" stroke-opacity=".2" stroke-width=".5" d="M58 145q-.7 1-1.6 1.7a95 95 0 0 1-8.5 5q-.4-.3-1-.4.5-1 1.4-1.5c2.2-.8 7.6-5 9.6-4.7Z"/><path fill="#23a7d8" fill-opacity=".2" stroke="#23a7d8" stroke-opacity=".2" stroke-width=".5" d="M125 432c-.8 2.2-7.9 5.5-10.1 6.6l-.9-.4q.4-.9 1.3-1.4c2.5-1 7.3-4.8 9.6-4.9Z"/><path fill="#21b1e1" fill-opacity=".3" d="M367 95q-.3 1.1-1.3.7zm45.3 10.3-1.2.7q0-1 1.2-.7m23.6 97.6q0 1.1-1.2.8zm43 9q0 1.1-1.2.8zm-83.6 21.4-1.2.7q0-1.1 1.2-.7M360 249.9q0 1.1-1.2.8zM31.3 265.3l-1.2.7q.2-1 1.2-.7M55 273q-.3 1-1.3.7zm282 10q-.6 1.2-2 1 .5-1.2 2-1m126 63q-.3 1-1.3.7zm-303 14q-.3 1-1.3.7zm290.3.3-1.3.7q.3-1 1.3-.7M106 409.9q-.4 1-1.3.8zm-43 6q-.3 1.1-1.3.8zm247.3 60.4-1.2.8q0-1.1 1.2-.8"/><path fill="#22b1e0" fill-opacity=".3" d="M375 90q-.3 1-1.3.7zm-43.7 31.3-1.3.7q.3-1 1.3-.7m116 82-1.3.7q.2-1.1 1.3-.7M460 207q-.3 1.1-1.3.7zm-58 17q-.1 1.1-1.3.7zm63.3 1.3-1.3.7q.3-1 1.3-.7M100 247q-.3 1-1.3.8zm-47.8 5.2-1.2.8q.1-1 1.2-.8M326 271q-.2 1.1-1.3.7zm147.3 6.3-1.3.7q.3-1.1 1.3-.7m-318 48-1.2.8q0-1 1.2-.8m-86 111-1.2.7q0-1 1.2-.7m238 0-1.3.7q.1-1 1.2-.8m6 38-1.2.8q.2-1 1.2-.9m-71 4-1.3.7q.3-1 1.3-.8M209 490q-.3 1-1.2.8.4-.5 1.2-.8"/><path fill="#1b8fb4" fill-opacity=".2" stroke="#1b8fb4" stroke-opacity=".2" stroke-width=".5" d="M327.8 422.2v.5a67 67 0 0 1-7.4 5q-.3-1.2-1.5-1.3l7-4q.9-.5 1.9-.2Z"/><path fill="#22b6e6" fill-opacity=".2" stroke="#22b6e6" stroke-opacity=".2" stroke-width=".5" d="M268.2 66.8 268 68c-2.2.8-8 5.2-10 5q.3-.9 1-1.3c2.6-1.1 6.5-4.9 9.2-5Z"/><path fill="#1db4e8" fill-opacity=".2" stroke="#1db4e8" stroke-opacity=".2" stroke-width=".5" d="m429.2 258.8-.2 1.2c-2.3 1-7.8 5.2-10 5q.4-.8 1-1.3c2.6-1.3 6.4-4.7 9.2-4.9Z"/><path fill="#23b0e2" fill-opacity=".6" stroke="#23b0e2" stroke-opacity=".6" stroke-width=".5" d="M428 184c-.3 1-4.3 4-5 2.7 1.2-1.2 3.1-2.7 5-2.8Zm-275 81c.2-.9 4.2-4 5-2.7-1.3 1.1-3.2 2.9-5 2.6Z"/><path fill="#1c96c3" fill-opacity=".2" stroke="#1c96c3" stroke-opacity=".2" stroke-width=".5" d="M360 442.2c-.5 1.4-6.1 4.6-7.6 5.5q-.3-1.2-1.5-1.2 3.6-1.8 7-4a3 3 0 0 1 2.1-.3Z"/><path fill="#24b1e1" fill-opacity=".2" d="M385.9 192.9q-.1 1-1.3.8zm-254.5 38.4q-.6.5-1.3.7 0-1.2 1.3-.7m-53.5 1.6q-.1 1.1-1.3.7zm296.5 12.5-1.3.7q.1-1.1 1.3-.7m-17.5 6.5q-.1 1-1.3.8zm-262.5 2.4-1.3.8q0-1 1.3-.8m282.5 3.7q0 1.2-1.3.7zm-263 12.9q-.1 1.1-1.3.7zm44.4 52.4-1.2.8q.2-1 1.2-.8m22.6 24.6q-.1 1.2-1.3.7zm-80 65q-.1 1.2-1.3.7zm216 34q-.1 1.1-1.3.7zm18.4 12.4-1.2.8q0-1 1.2-.8"/><path fill="#23afe1" fill-opacity=".2" d="M372.9 124q0 1-1.2.7zm-10.6 25.3-1.2.7q0-1.1 1.2-.7m58.6 81.6q-.2 1-1.2.8zm-350 6q-.2 1-1.2.8zm-2.6 5.4-1.2.8q0-1.1 1.2-.8m326 8-1.2.8q0-1.2 1.2-.8m22.6-.4q-.2 1-1.2.8zm-17.6 13.4-1.2.8q0-1.1 1.2-.8M107 274.9q0 1.1-1.2.8zm326.4 25.4-1.2.8q.2-1 1.2-.8m-325 112-1.2.8q0-1.1 1.2-.8m205 20-1.2.8q0-1.1 1.2-.8m120.5-.6q.2 1.2-1 1.4.2-.9 1-1.4"/><path fill="#22aee1" fill-opacity=".3" d="m428.3 111.3-1.3.7q.3-1 1.3-.7M338 113q0 1.1-1.2.7zm65 9q0 1-1.2.7zm41.1 35q-.3 1-1.2.8zm-41.7 30.3-1.3.7q.3-1 1.3-.7m58 25-1.3.7q.3-1.1 1.3-.7M425 245q-.1 1.1-1.3.7zM67 298q-.3 1-1.3.7zm2.3 3.3-1.2.7q0-1.1 1.2-.7M41 313q-.3 1-1.3.7zm94 21q-.3 1-1.2.8zm38.3 21.3-1.3.7q.3-1 1.3-.7M54 440q-.2.9-1.2.7z"/><path fill="#21aee4" fill-opacity=".2" d="m407.4 123.4-1.3.7q.1-1.1 1.2-.7m-26 76-1.3.7q.1-1.1 1.3-.7m-276 19.9-1.3.7q0-1.2 1.3-.7m15.5 15.6q0 1.2-1.3.7zm323.4 2.4-1.2.8q0-1.1 1.2-.7m-273 78-1.2.7q0-1.2 1.2-.7m-15.4 6.6q-.2 1.1-1.3.7zm-18.6 14.4-1.2.8q0-1 1.2-.8m18 30-1.2.8q.2-1 1.2-.8M409 380.9q-.2 1-1.2.8zm-276 30q0 1.2-1.3.7zm-45.6 30.4-1.2.8q0-1 1.2-.8M347 449q0 1.1-1.2.6z"/><path fill="#22b2e2" fill-opacity=".2" d="m388.4 134.3-1.3.8q.1-1 1.3-.8m-6.5.6q-.2 1-1.2.8zm12 53q0 1-1.2.8zm-31.5 22.4-1.3.8q0-1.1 1.3-.8m58 25-1.3.8q.1-1 1.3-.8m5 13-1.3.8q0-1.2 1.3-.8m-63 4-1.3.8q.1-1.1 1.3-.8m36.5 8.6q0 1.1-1.2.8zM98.3 283.3l-1.2.8q.2-1 1.2-.8m13.2 6.3.9.7-1.2.7q0-.8.3-1.4m77.9 55.5-1.3 1q0-1.3 1.2-1m-41.5 21.8q0 1.1-1.3.8z"/><path fill="#1eace8" fill-opacity=".2" stroke="#1eace8" stroke-opacity=".2" stroke-width=".5" d="m394.2 411.1-.2.9c-2 .8-6 4.2-8 3.9q.4-.7 1-1.2c2-1 4.9-4.3 7.2-3.6Z"/><path fill="#1a81a5" fill-opacity=".2" stroke="#1a81a5" stroke-opacity=".2" stroke-width=".5" d="M429.7 152.3q0 1 1 1.2L425 157q0-.9-.8-1.2 2.6-1.9 5.5-3.5Z"/><path fill="#29b2e7" fill-opacity=".2" stroke="#29b2e7" stroke-opacity=".2" stroke-width=".5" d="M155 216.1c-1 1.8-5.2 3.5-7 5v-1.4c1.5-1.4 5-4 7-3.6Z"/><path fill="#25afe4" fill-opacity=".2" d="m372.3 128.3-1.2.8q0-1 1.2-.8M369 143q0 1.2-1.2.8zm4 58q-.2 1-1.2.8zM97 222q0 1.2-1.3.7zm26.4 14.4-1.2.8q0-1 1.2-.8m232 20-1.2.8q.2-1 1.3-.8m-270 35-1.2.8q0-1.1 1.2-.8m325 92-1.2.8q.1-1.1 1.3-.8M146 387q0 1.2-1.3.7zm155 50q0 1.1-1.2.7zm-4.6 6.3-1.2.8q.2-1 1.2-.8"/><path fill="#1e8cb1" fill-opacity=".1" stroke="#1e8cb1" stroke-opacity=".1" stroke-width=".5" d="M398.7 407.3q0 1 1 1.2L394 412l.2-.9c.3-1.9 3-3 4.5-3.8Z"/><path fill="#2499c3" fill-opacity=".8" d="M480 367.6c0 3 .3 5.6-3.3 6.2q1.4-3.2 3.3-6.2m-3.3 6.2q.2 1-.6 1.1z"/><path fill="#1c87ad" fill-opacity=".1" stroke="#1c87ad" stroke-opacity=".1" stroke-width=".5" d="M337.8 435q.8.2 1.2 1l-4.7 2.7q-.2-1.1-1.4-1z"/><path fill="#25b0e3" fill-opacity=".2" d="M114 239q-.3 1-1.4.7zm-95.7 34.3-1.3.8q.2-1 1.3-.8M457 298.9q-.5 1.4-2 1.1.5-1.2 2-1.1m-42 9q-.3 1-1.3.8zm-8 5q-.3 1-1.3.8zm-238.7 45.4-1.2.8q0-1.1 1.2-.8m242.3 95.5q.4 1-.8 1zm-69.3 1.5-1.1.8q0-1 1-.8"/><path fill="#1c8bb0" fill-opacity=".1" stroke="#1c8bb0" stroke-opacity=".1" stroke-width=".5" d="M327 480.3q.4 0 1 .3-2.2 1.8-4.7 3.1 0-.9-1-1.2c.8-.7 3.5-2.3 4.7-2.2Z"/><path fill="#23afe3" fill-opacity=".3" stroke="#23afe3" stroke-opacity=".3" stroke-width=".5" d="M450 171a7 7 0 0 1-5 3c.6-1.6 3.3-3 5-3Zm-41 100q-.7 1.2-2 1 .5-1.2 2-1Z"/><path fill="#1993b4" fill-opacity=".1" stroke="#1993b4" stroke-opacity=".1" stroke-width=".5" d="M121.8 446.8q1 .1 1.3 1.2-2.7 1.3-5 3-.3-1-1.3-1 2.4-1.7 5-3.2Z"/><path fill="#23aee2" fill-opacity=".2" d="M351.9 136.9q0 1-1.2.8zm0 77q0 1.2-1.2.8l1.2-.7m56 25q-.1 1-1.2.8zm18.5 65.5-1.3.7q.2-1.1 1.3-.7m-250 48.9-1.3.8q0-1 1.2-.8m-21.5 9.6q-.1 1.1-1.3.7zm153 70q-.1 1.1-1.3.7zm20 27q-.1 1.2-1.3.7z"/><path fill="#21afe3" fill-opacity=".2" d="m353.3 139.3-1.2.8q.2-1 1.2-.8m-256 85-1.2.8q0-1.2 1.2-.8m239 43-1.2.8q0-1 1.2-.8m-5.4.6q0 1.2-1.2.8zm-250 22q-.2 1-1.3.8zm318 28q0 1.3-1.2.8zm-257.6 90.4-1.2.7q0-1.2 1.2-.7"/><path fill="#239dc9" fill-opacity=".8" d="M43 489.1a21 21 0 0 1 6.4.3q-1.2.6-2.6.4-1.4-.3-2.8.2h-.8z"/><path fill="#24b0e2" fill-opacity=".3" stroke="#24b0e2" stroke-opacity=".3" stroke-width=".5" d="M245 39q-.6 1.3-2 1 .5-1.5 2-1Zm170 59q-.3 1.1-1.3.7zm-47 29q-.3.9-1.3.7zm22 3q-.3 1-1.3.8zm-48.7 16.3-1.2.7q0-1.1 1.2-.7Zm106 15-1.2.7q0-1.1 1.2-.7ZM89 167c-.6 1.5-3.3 3-5 3a7 7 0 0 1 5-3Zm334 2.9q0 1-1.2.7zm34 20q0 1-1.2.7zM75 201c-.4 1.3-5.4 4.2-7 4.1 1-2.2 3.9-2.5 5.6-4zm346.4 17.3-1.3.7q.3-1.1 1.3-.7ZM461 223q-.3 1-1.3.7zm-332.7 10.3-1.2.8q0-1 1.2-.8Zm-47 1-1.2.7q0-1.1 1.2-.7ZM381 237q-.3 1-1.3.7zm-324 8q-.3 1-1.3.8zm341 0q-.3 1-1.3.7zM91.3 256.3l-1.2.8q0-1.1 1.2-.8Zm233 18-1.2.7q0-1.2 1.2-.7Zm-270 5-1.2.8q.1-1 1.2-.8ZM29 288q-.3 1-1.3.7zm418.3 4.3-1.2.7q.1-1 1.2-.7ZM142 330q-.1 1-1.3.8zm338 5q-.3 1-1.2.8zm-3.7 10.3-1.2.7q.2-1.1 1.2-.7Zm-355 1-1.2.8q0-1.2 1.2-.8ZM90 360q-.3 1.1-1.3.7zm44 15q-.3 1.1-1.3.7zm4 33q-.2 1-1.2.8zm-19 11q-.3 1-1.3.8zm-39 6q-.3 1.1-1.3.7zm55 1q-.9 2-3 2a3 3 0 0 1 3-2Zm212 4c-1.4 2.2-5.7 4.4-8 6q-.4-.8-1.2-1c2.1-1.2 7-5 9.2-5Zm-286 6q-.2 1-1.2.8zm13 9q-.3 1-1.2.8zm5.3 1.3-1.2.8q0-1 1.2-.8ZM241 448a7 7 0 0 1-5 3q1.8-2.6 5-3Zm109.3 1.3-1.2.7q0-1.2 1.2-.7ZM333 457q-.3 1-1.2.8zm-32.7 4.3-1.2.8q0-1 1.2-.8ZM270 474q-.3 1.1-1.3.7zm-35 1q-.1 1-1.3.8zm33.2 7.2-1.2.8q.2-1 1.2-.8ZM281 487q-.3 1-1.3.7zm-237 3q1.5-.4 2.8-.2 0 1.5-1.3 1.3-1.3 0-1.5-1.1Z"/><path fill="#2399c2" fill-opacity=".7" d="M46 118.1h.9q-1.2 2.3-2.9 4.2c0-2.4-.4-3.3 2-4.2"/><path fill="#2496bd" fill-opacity=".6" d="M122.9 44.6q-.3 1.2-1.5 1.8-.3-1.7 1.4-1.8m-1.5 1.8q-1.4 1.6-3.5 1.4 1-2.4 3.5-1.4"/><path fill="#239bc4" fill-opacity=".6" d="m81.3 78-1.2 1.2q0-1.1 1.2-1.3m-1.2 1.2q-.5.6-1.3.5.5-.6 1.3-.5m-1.3.5q0 2-2 2.2l-.8-.1a3 3 0 0 1 2.8-2"/><path fill="#24afe2" fill-opacity=".3" stroke="#24afe2" stroke-opacity=".3" stroke-width=".5" d="M440 279q-.6 1.2-2 1 .5-1.2 2-1ZM53 411c0 .8-1.3 1.6-1.9.7a2 2 0 0 1 2-.7Z"/><path fill="#56b7da" d="M178.9 218.9c2.1-.3 0 2.8-1 3q-.2-1.7 1-3"/><path fill="#2499c2" fill-opacity=".7" d="M491.8 342.8a4 4 0 0 1-.5 2.5q-.6-1.5.5-2.5m-.5 2.5q-.2 1.3-1.2 2.1c-.2-.8 0-2.5 1.2-2.1"/><path fill="#24a7d5" fill-opacity=".4" d="M442 422.6c-.1.7.4 3.6-.7 3.5l-.4-1.9q.3-1 1.1-1.6"/><path fill="#a1dcf0" d="m242.3 193-3.4-.2c.7-1.2 3.2-1.2 3.4.2"/><path fill="#2386a8" fill-opacity=".9" d="M272.1 384.3c.3 0 1.7-.2 1.6.4l-.7 1h-1z"/><path fill="#2384a7" fill-opacity=".5" d="M37 133q-.2.7-.7 1.2 0-.9.8-1.2m-.7 1.2q-.3 1.3-1.2 2.2c-.2-1-.3-2.7 1.2-2.2"/><path fill="#23a9d9" fill-opacity=".5" d="m70.7 85.8.5 2.1-1.1 1.5c0-.8-.6-3.4.6-3.7"/><path fill="#e9edef" d="M261.8 195.9c.9 0 2.6 0 2.3 1.4l-2.3-.6z"/><path fill="#7b7b7b" d="m260 196 1.8-.1v.8q-1 .3-1.7-.6"/><path fill="#24a7d5" fill-opacity=".3" stroke="#24a7d5" stroke-opacity=".3" stroke-width=".5" d="m202.4 10.7-2.7.3c.3-1.3 2.1-1.2 2.7-.3Z"/><path fill="#239cc7" fill-opacity=".4" d="m279.3 496.9-.3.8q-.6 0-1 .3.2-1 1.3-1.1"/><path fill="#24758f" fill-opacity=".6" d="M199 11.2q-.3.9-1.3.7.5-.7 1.4-.7"/><path fill="#45bce6" fill-opacity=".6" d="m303.9 105.9.5.9-1.7.4q.4-.9 1.2-1.3"/><path fill="#56a8c4" d="M282 289q-.1.7-.7 1 0-.7.6-1"/><path fill="#23b0e3" fill-opacity=".6" d="M457.4 404q.4 0 .8.4-.6.4-1.4.5z"/><path fill="#249ac2" fill-opacity=".2" stroke="#249ac2" stroke-opacity=".2" stroke-width=".5" d="M456.8 405q0 1-1.2 1a3 3 0 0 1 1.2-1Z"/><path fill="#a3aaac" d="M272 90.2q-.1.6-1 .5.3-.7 1-.5"/><path fill="#939495" d="M264.1 197.3q.8-.2.9.5-.7 0-.9-.5"/><path fill="#2396bf" fill-opacity=".4" stroke="#2396bf" stroke-opacity=".4" stroke-width=".5" d="m483 341-.4 1.1-.3-.3q0-.7.7-.9Z"/><path fill="#248fb3" fill-opacity=".3" stroke="#248fb3" stroke-opacity=".3" stroke-width=".5" d="M127.3 41.8q-.5.9-1.4 1.5.2-1.3 1.4-1.5Z"/><path fill="#247696" fill-opacity=".5" d="M129.2 41q-.2.9-1.1 1.2 0-1 1.1-1.2"/><path fill="#277189" fill-opacity=".2" stroke="#277189" stroke-opacity=".2" stroke-width=".5" d="M132.1 39.1q-.3.6-1 .9 0-1 1-.9Z"/><path fill="#247089" fill-opacity=".4" d="M355.1 487q-.3 1-1.5 1 .6-.8 1.5-1"/><path fill="#247b9b" fill-opacity=".2" stroke="#247b9b" stroke-opacity=".2" stroke-width=".5" d="M139.1 35.2a2 2 0 0 1-1 .8q0-1 1-.8Z"/><path fill="#237691" fill-opacity=".4" d="M141.1 34.2q-.3.7-1.1 1 0-1.2 1.1-1"/><path fill="#247a99" fill-opacity=".6" d="M143.2 33.1q-.6.8-1.6.8.7-.6 1.6-.8"/><path fill="#24809f" fill-opacity=".7" d="M144.8 32.3q-.3.6-1.1.4.5-.5 1.1-.4"/><path fill="#7eadbe" d="M223.7 278q0 .6-.6.8.2-.5.6-.8"/><path fill="#51c0e8" fill-opacity=".9" d="m264.3 390.1-1.2.9q.3-.8 1.1-.9"/><path fill="#262627" stroke="#262627" stroke-width=".5" d="M491.8 342.8q-1 1-.5 2.5c-1.2-.4-1.4 1.3-1.2 2.1-2.4 3.3-7.5 15.8-10.2 20.2a49 49 0 0 0-3.8 7.3q-7 11.6-14.3 23c-1.4.9-3.6 4.4-4.4 6l-.6 1a3 3 0 0 0-1.2 1L441 424.3q-.5-.1-.9.2a53 53 0 0 1-5 5l-1.2 2.2q-.8.5-1 1.4c-6.8 5-14.7 13.7-22 19.1a92 92 0 0 1-6.9 5.2q-.8.9-.6 2.1-1-.3-1.7.1-1.3.4-1.8 1.5.2.6-.4 1a16 16 0 0 0-3.9 1.8 252 252 0 0 1-38.5 22q-.7.1-1.2.9l-.7.1q-.9.3-1.5 1.2c-20 7.8-38.6 14.2-60.1 17.6-60.8 9.8-122.3-5.8-174.4-37.4a4 4 0 0 0-3.4 0c-21.4 9.6-43 18.5-66.3 21a21 21 0 0 0-6.4-.2h-1c-18.3-2.8-22.2-14.6-20.9-31.6 2.8-21.8 12.3-43.7 21.4-63.5q.3-.6.2-1.4C-9.7 312-13.7 220 35.1 136.4q.9-1 1.2-2.2l.8-1.2 9.8-14.9.5-1.2C54.8 107.6 62 98.2 70 89.4q.7-.7 1-1.5c1.4-.9 5.5-4.5 5.6-6q2 0 2-2.2.8 0 1.4-.5.8-.6 1.2-1.3 9.6-8.8 19.8-17 7.9-6.3 16.4-11.9.5-.4.4-1.2 2.1.3 3.5-1.4 1.2-.6 1.5-1.8 1.2-1.3 3-1.3.8-.6 1.4-1.5l.8.4q1-.3 1.1-1.3l1.9-1q.7-.1 1-.8h.8q1-.3 1.4-1.2l.7.2q.9-.1 1.2-1.2l1.9-.9a2 2 0 0 0 1-.8h.9q.8-.3 1.1-1l.5-.3q1 0 1.6-.8l.5-.4q.8.2 1.1-.4l1.3-.5q2.3.3 2.6-2.1c.8.5 2.5.2 2-1a3 3 0 0 0 2.4 0q3.4-1.4 6.6-3.4l5.4-2c10.4-4.9 21.6-8.1 32.6-11.4q1 .2 1.4-.7l.6-.2 2.7-.3c148-37.9 302 79.2 307.6 230.8a259 259 0 0 1-18.2 101.2ZM214.7 20c-3.3.6-18.6 3.3-20.3 5.1H193A257 257 0 0 0 80.1 88.8l-1 1.6a51 51 0 0 0-12.3 12.9q-.6 0-.8.7a190 190 0 0 0-26.7 39.8c-2.5 4.4-6.3 10.7-7.4 15.5l-1.6 2.5a157 157 0 0 0-5.5 16.2 35 35 0 0 0-3.7 13.4 90 90 0 0 0-3.9 17 6 6 0 0 0 0 3.5c-2.1 6-2.3 17.7-2.9 24.4v1.7a286 286 0 0 0 1.6 36q1.4 10.2 3.3 20.4c.3 1.4.6 4.9 1.6 5.7 0 3 .7 6.4 1.9 9.2q.2 1.9.8 3.8c.6 1.7 1.3 6.8 2.7 7.9l.2 1.5q.3 2.3 1.3 4.6c.7 1.8 1.6 7.7 3.5 8.3q-.6 2 .5 3.7c2 6 11.2 29.8 14.6 33.3q-.2 1 .4 1.6c.5 2.2 3 7.8 4.5 9.2q.3 2.5 1.5 4.8a158 158 0 0 1 .5 12c-3.1 10-7.2 18.9-11.4 28.3a40 40 0 0 0-5 10.7 62 62 0 0 0-5.4 19.7l.8.6c-1.6 1.2-.1 7.4.8 8.8l.3 1.4a9 9 0 0 0 2.3 3.5 21 21 0 0 0 7.4 6.4q1.3.9 2.8.9c2.8 2.6 14.7 1.8 18.4.4q1 0 1.9-.2c2.7-1 15.7-5.3 16.8-7.2l1-.5c9.3-3.2 30.2-15.4 39.3-13.4q.7.8 1.6.8c2.4 2.4 6.2 5 9.5 6 0 1.4 3.6 2.6 4.7 3.3 1.8 1.1 8.3 5.3 10 5.3l1.6 1 1.2.2c1 1.6 6.5 3.3 8.3 4.5 1.2.2 3.5 2 4.6 1.2.9 2 8.3 3.6 10.4 4.8a7 7 0 0 0 4 .5q0 1 1 1.2 11.8 4 24 6.1c3 1.3 6.8 2 10.2 1.9q.2.8 1.1.7a169 169 0 0 0 27.2 2.2 299 299 0 0 0 35.4-1l1-.3a167 167 0 0 0 26.2-4.7q4-.2 7.4-2 2.1 0 4.2-.7 79.6-23 131.4-87.4l3.5-5a93 93 0 0 0 9.3-13q5.5-8.2 9.8-17.1l.6-1q3-4.8 5-10 .5-.2.7-.7 3-7 5.7-14.2l.3-1.2a50 50 0 0 0 3-8.9q4.5-12.8 7-26 .4-1.5 0-2.9a33 33 0 0 0 2.3-12l.5-2.7 1-14.1q.5-5.4.2-10.6.4-3.2 0-6.5a48 48 0 0 0-1-12.2q-.3-5.3-1.2-10.4.2-.9-.7-1.3.3-5.3-1-10.5 0-1.5-.8-3c-.3-3.1-.5-6.4-1.9-9.2q.2-2.3-.7-4.5l-2-10.2q-.9-2-1.3-4l-2.4-8.4q0-1-1-1.3a14 14 0 0 0-1.8-7.2q-3-9.1-6.5-18.3a1 1 0 0 0-.8-.5c0-2.6-2.1-6-3.2-8.4q-.8-2.6-2.3-4.9c-.7-2-2.7-7.3-4.6-8.1v-1.1q0-.4-.5-.7-8.5-16.5-19.6-31.4c-.7-.6-1.5-2.4-2.5-2.3-.7-2.4-4-6-6-7.6a8 8 0 0 0-3-3.5c-1.2-1.7-5.2-7.2-7.3-7q0-1.9-1.6-2.4c-1.4-1.7-5.4-6.4-7.5-6.9-.6-1.7-2.6-2.7-3.7-4.1a269 269 0 0 0-20.8-15.5c-2.1-1.1-7.2-5.5-9.5-5q0-1.2-1-1.7c-5.2-2.5-12.8-7-18-8.8 0-1.1-2.3-.7-3-.7q0-1-1-1.4-10.6-4.7-21.8-8-1.4-.8-2.8-1.3-6.6-2-13.3-3.2-2.2-1-4.6-1.1H315c-1.6-1.4-9.5-2.1-11.9-2.5q-1.7-.6-3.6-.6-7.8-1.3-15.6-1.7-1.7-.3-3.4-.2-8.2-1-16.5-.7h-4.8q-22.5.4-44.5 4.6ZM286 81.4a46 46 0 0 1 29.1 17.9q.2 1 .7 1.9a51 51 0 0 1 5.2 25.5 76 76 0 0 1-4.4 15.9c-18.3 35.8-77 31.5-82-10.8-3.5-31 19.5-56.2 51.4-50.4Zm-15 9.3c-14.3.9-23.7 14-24.2 27.6q-.7 2.7-.1 5.6a29 29 0 0 0 2.1 12q.8 2.7 2.3 5.2 2 4.6 5.8 8.1c.7 1.4 3.7 3.3 5 4.2q5.4 3.5 12 4 2.1.5 4.5.2l4.4-.6a30 30 0 0 0 26-29.1q.3-3 0-5.8c-.3-3.7-1-7.8-2.7-11q0-1.5-1.2-2.3l-.2-1.2-.4-.8-.5-1a22 22 0 0 0-6.7-7.8q-2.5-3-6-4.1c-2-2.2-10-3.8-13-3.6q-3.1-.5-6.2 0-.7-.2-1 .4Zm-32.2 102.1q1.7.3 3.4.2 9 1 17.8 3 .6 1.1 1.7.7l2.3.6q.2.5.9.5c21.6 7.5 35.6 22.8 37.2 46.2 0 16.4-4.6 31.4-9.2 47-8.5 25.3-20.5 52.3-20 79.4 1.4 12.3 18.8 5.7 25.9 3.6 1 0 2.9.2 3.3-1 15.5-.6 23 23 15.7 34.4-15.2 20.7-62.9 23.3-86.2 22.2q-10.6-1.8-20.8-5.9-.6-.8-1.7-1-4.9-3-9.1-6.8a49 49 0 0 1-14.3-33.9q0-8.5.5-16.9.6-.8.4-1.9a439 439 0 0 1 4-19.9 755 755 0 0 1 13.7-45.4q.6-1.8.6-3.8c2.4-2.3 8.6-27 8.7-31.8 2.4-21.7-16.2-16-29.3-12.5-14.9.9-20.8-20.3-18.9-32 16.1-17.5 50.2-26 73.4-25Zm-15 8c-8.5.5-19.2 2.6-26.6 6.9-5 2.5-17.5 4.7-18.5 11.2q-1 1.3-.9 3c-.6 5 2.6 8.8 4.1 13a8 8 0 0 0 1.8 4q1.2 2 3.7 2c6.5-1.4 12.7-3.2 19.4-3.8q4.5.3 9 1.2c6.7 2.7 9.4 7.9 10.4 14.8q0 3 .4 6-.7 7-2 14a13 13 0 0 0-1 4.9q-.5.3-.6.8c-2.5 10-6 19.7-9.3 29.5Q212 312 211 316a88 88 0 0 0-5.3 15q-1 1.4-.9 3.2c-1 0-.8 1.4-.8 2q-5.3 12.5-6.3 26-.6 1.3-.6 2.8a60 60 0 0 0 2 25q.5 2 1.4 3.7a36 36 0 0 0 9.4 12.6c2.3 2.7 5.7 5.3 9 6.5a6 6 0 0 0 5.3 2q.1 1.5 1.7 1.8 5.2 2.1 10.9 3.3l3 .8c5.4.5 10.5 1.6 16 1.2a61 61 0 0 0 14.2-1.2c8.5-1.2 42.8-9.2 38-22a8 8 0 0 0-.9-3.8l-3.9-10.2a2.4 2.4 0 0 0-2.3-1.8c-1.5-3.3-13.8 2.4-16.5 3q-3.3.1-6.6-.2-1.4-.8-2.9-.5l-1.3-.5c0-.6-1.2-.3-1.6-.5q-1-.3-2-.3-3.9-2.7-7.2-6.3l-2.5-5a51 51 0 0 1 2-28.8l.5-2.8c4.6-15.5 11-30.2 16.5-45.3a20 20 0 0 0 1.9-5.7q.6-.3.6-1c1.4-4.2 3.7-9.6 4.2-14 1-.5 1-5.4 1.7-6.8.4-7.9 3.2-16.7 1.7-24.5-.4-1.3 0-4.5-1.4-5 .4-3-1.5-7.2-2.9-9.8-.7-1.5-2.4-5.5-4-6-.7-3.3-11-12.3-14.2-13-.5-1.3-4.5-2.6-5.8-3.3a61 61 0 0 0-19.1-5.4 50 50 0 0 0-18.1-.3Z"/><path fill="#23a0cb" fill-opacity=".8" d="m410.8 452.2-.2 1.6-.8 1c.2 1.6-1.7 1.9-3 2l-1.1 1.2-2.4 1.5q-.3-1.2.6-2 3.6-2.5 7-5.3m-7.5 7.3-1.7.1q.7-.4 1.7 0m-1.7.1q.2 2-1.8 1.5.5-1 1.8-1.5"/><path fill="#94aab2" d="M302.2 373c-.4 1.2-2.3 1-3.3 1 .4-1.3 2.2-1.1 3.3-1"/><path fill="#2588ad" fill-opacity=".5" stroke="#2588ad" stroke-opacity=".5" stroke-width=".5" d="M186.7 363.3q.1 1-.4 1.8l-1.1-.2q.3-1.3 1.5-1.6Z"/><path fill="#23b0e2" stroke="#23b0e2" stroke-width=".5" d="M259.1 15.3A1097 1097 0 0 0 225 36.6a2 2 0 0 0-1 1.3c-1.6.2-4.4 1.6-5 3.1q-2.3 0-3 2-1.2-.2-2 .7c.6.9 1.9.2 2-.7q2.1 0 3-2 3.4 0 5-3.1 1 .1 2-.3l9.1-5.2 28.8-17q8.2-.3 16.5.7l-15 9.8q-2.8 1.4-5.7 3.2l-13 8.1q-1.2.7-1.7 1.8-1.5-.5-2 1a3 3 0 0 0-3 2 2 2 0 0 0-1.9.7c.6 1 1.9 0 2-.8q2 0 2.9-1.8 1.4.2 2-1.1c2.8-.4 12.8-7.1 16-8.7l22.1-12.8q.7-.4.7-1.2 7.8.4 15.6 1.7a480 480 0 0 1-25.1 15.6l-4 3.1q-2.4 1.3-4.9 2.2a1 1 0 0 0-.1 1c-1.5.1-5 1.5-5.2 3.2q-2.4-.5-3.2 1.8a2 2 0 0 0-2 .8c.7 1 2.3.3 2-.7q2-.3 3.2-1.9a7 7 0 0 0 5.2-3.3l1.8-.1q17.8-10.9 36-21c2.3.3 10.2 1 11.8 2.4l-.2 1a4320 4320 0 0 0-54.4 34q-4.8 2.7-9.3 5.5-.8.5-1 1.4c-1.5 0-4.5 1.6-5 3q-2.1 0-3 2-1.4-.2-2 1-2.2-.2-3 2a2 2 0 0 0-2 .7c.6 1 1.8 0 2-.8q2-.1 3-1.9 1.4.2 2-1a3 3 0 0 0 3-2c1.8.1 4.3-1.3 5-3 2.2.3 8.1-4.2 10.4-5.3q.4-.4.6-1 1 .2 1.7-.3l56.6-32.7q1-.5 1.6-1.5 6.8 1.3 13.3 3.2C315.6 36 296.1 49 277.7 60.3c-2 1.2-8.9 4.6-9.5 6.5-2.7 0-6.6 3.8-9.2 4.9a2 2 0 0 0-1 1.3 7 7 0 0 0-5 3q-2.3-.3-3 2a2 2 0 0 0-2 .6c.6 1 2 .3 2-.7q2-.3 3-1.8c1.7-.2 4.4-1.4 5-3.1 2 .2 7.8-4.2 10-5l10.7-6.4q29-16.6 58-33.5l.3-1.5q11.1 3.5 21.9 8.1 1 .4 1 1.4a3140 3140 0 0 0-45.1 27.6l-17.9 10.9q-.7.5-.7 1.4c-2.2 3-8.7 4-10.1 5.4-32-5.8-54.9 19.3-51.4 50.4 5 42.3 63.7 46.6 82 10.8q1.6.4 3.1-.3c3.4-4 10.2-5.6 13.5-8.2q1 0 1.7-.5 3.7-2.4 7.7-4.4 1.4-.6 2.3-2 1 0 2-.6 4.5-3 9-5.1.7-.9 1.6-1.3 33.2-18.7 66-37.8A2 2 0 0 0 425 81c2 0 6.1 5.4 7.3 7l-1 .1-1.6.8-3 1.7L423 93l-1.3.7q-1.9 1-3.4 2.6-.9 0-1.6.6L415 98l-1.3.7q-2 1.4-4 2.4l-1 .8q-1.9 1-3.4 2.3l-1.6.7-3 1.8-3.5 2.5q-.7.2-1.5.7l-1.8 1-1.2.8-.8.6q-.7.2-1.2.7l-3 1.7-3.5 2.5q-.8.1-1.6.7l-1.7 1-1.2.8q-2 1.3-4 2.3l-1 1-3 1.7-.7.6-1.3.7a36 36 0 0 0-6.5 4.2q-.8.2-1.5.7l-3 1.8-.8.5-1.2.7-3 1.9-3 2-.6.5q-.8 0-1.5.7l-3 1.7a61 61 0 0 1-6.7 4.2l-1.2.8-.7.6q-.8.2-1.4.6l-1.7 1-1.2.8q-1.8 1.5-4 2.4l-1 .7-2 1.6Q317 158 309 163.6c-2 1-7 3.4-8 5.3q-3.2.5-5 3-1.4 0-2.1 1a3 3 0 0 0-2.8 2.2q-1.4-.3-2.1.8c-1 .3-2.7.5-3 1.7 1.2.8 2.6-.5 3-1.7q1.3.2 2.1-.8 2-.3 2.8-2.2 1.5.5 2-1c1.6 0 4.6-1.4 5-3q1.2.1 2.1-.4c1.2-1 6.7-3.4 7-4.7q1.4-.2 2.5-.8 7.2-4.4 14.5-8.4l.8-.8q.8-.2 1.4-.6a36 36 0 0 1 5.1-3q.5 0 .8-.4l1.2-.7 5-2.8.8-.5q.7-.2 1.2-.8l3-1.7.7-.2 1.3-.8 5-3 .7-.6q.8 0 1.4-.6l5-2.8.5-.5 1.5-.8 3.6-2q.8-.3 1.3-.7l.8-.6 1.2-.6 1.8-1 1.2-.8q.4 0 .7-.3.8-.3 1.3-.7l5-3 .8-.6 1.3-.7 5-2.7.5-.6 1.4-.6 5-2.8.7-.6q.8 0 1.3-.6a13 13 0 0 0 3.5-2.4q.9 0 1.5-.7a38 38 0 0 0 5-2.7l.8-.6q.6-.2 1.1-.6l5.1-2.8.7-.6q.8 0 1.3-.6l5-2.8a79 79 0 0 1 7-4l5-3 .8-.6 1.2-.6 2-1.4c2 1.7 5.2 5.2 5.9 7.6-1.5-.5-2.9 1.1-4 1.8l-1.6.8-1.7 1-1.2.8-3.7 2.3-1.3.7a17 17 0 0 0-3.5 2.6q-.8 0-1.5.6l-1.8 1-1.2.8a65 65 0 0 1-6.8 4.2l-1.3.8-.6.6q-.8.3-1.3.7l-1.8 1q-.6.2-1.2.7l-.7.5q-.7.3-1.2.8l-1.8 1-1.3.7q-2 1-3.4 2.6-.9 0-1.6.6l-3 1.8-.9.6-1 .6-1.8 1.1-1.3.7Q387 132 385 133l-1.3 1-1.7.9-1.2.8-.8.5-1.2.8-1.8 1-1.2.7a41 41 0 0 1-5 3q-.8.8-1.8 1.2l-1.2.8-.8.5-1.2.7-1.8 1-1.2.8a11 11 0 0 1-3.7 2.3l-1.3.7-3.4 2.6a2 2 0 0 0-1.5.7l-2 1-15.2 9.2q-1 .7-1.6 1.8-3.2.3-5 3c-1.5-.2-6.4 2.8-7 4a4 4 0 0 0-3 1.9 2 2 0 0 0-1.9.8c.6 1 1.9 0 1.9-.8q2.2.2 3-2c1.4.2 6.5-2.3 7-4 1.8.1 4.3-1.3 5-3q1 .2 2-.3l16-9.3q2-1.4 4-2.3.8-.2 1.3-.8l.7-.4q.8-.2 1.2-.7.9-.7 1.9-1l1.2-.8.7-.6q.8 0 1.3-.5 1.8-1.2 3.8-2.1l1.2-.8 1-.5 1-.7 5-2.8.7-.6q.8 0 1.4-.7l1.7-.9 1.2-.8.7-.2 1.3-.8a51 51 0 0 1 5.8-3.4q.6-.2 1.1-.8l3.9-2 1.2-.8.7-.5q.7-.2 1.3-.8l5-2.7.8-.5 1.2-.7 1.8-1 1.2-.7.7-.3 1.3-.8 5-3 1-.5q.6-.2 1-.8a31 31 0 0 0 5-2.7l.6-.6q.8-.2 1.4-.7a40 40 0 0 0 7-4 159 159 0 0 0 10.6-6.2q.8 0 1.4-.8.8-.5 1.4-1.4 11.1 15 19.6 31.4a3 3 0 0 0-2.6.3L409 164.7q-.9.5-.9 1.4c-2-.2-4.2 1.3-5.2 2.9q-3 .5-4.9 3-1.5-.4-2 1-2.1.2-3 2-1.5-.2-2 1-2.3.1-3 2-1-.2-2 .7c.6.8 1.7 0 2-.6q2.1-.2 3-2.1 1.4.3 2-1a3 3 0 0 0 3-2q1.4.3 2-1a7 7 0 0 0 5-3 7 7 0 0 0 5.1-2.9l2-.4 20.7-12.2 32-18.8h1c1.9 1 3.9 6.3 4.6 8.2q-2 0-3.4 1.1l-1.2.8q-2 1-3.7 2.4-.8.2-1.4.7l-1.8 1-1.2.8-3.9 2.4-1.2 1q-1.8.8-3.4 2-.8.3-1.4.9l-1.8 1-1.2.8q-2 .9-3.6 2.5-.7.2-1.5.7l-3 1.7-5 3-3.5 2.5q-.7.2-1.5.8l-1.7 1-1.3.7a13 13 0 0 0-3.5 2.6l-1.6.6-3 1.8-.6.5-1.3.7-3 1.8q-1.9 1-3.5 2.6a3 3 0 0 0-1.5.6l-1.8 1-1.2.8a24 24 0 0 1-4 2.3l-1 .9-1.8 1-2 1.4q-.6.1-1.2.7l-6 3.7-.8.5-1.2.8-3 1.7-5 3-1.8 1.2-1.3.8-.7.6-1.2.6-1.8 1-1.2.8q-1.8 1.3-3.9 2.3l-1.1.9-1.8 1-1.2.8-.8.6q-.6.2-1.1.6L355 212l-1.3.7q-.8.8-1.8 1.3-.7.2-1.3.7l-.8.4-1.1.8q-.7.6-1.8 1.1l-1.2.7q-1.8 1.5-4 2.6-7.6 4.4-14.8 9.3c-7.3 2.7-10.5 8.8-18.1 10.7l-2.5 2.4q-2.1.3-4.1 1.3c-1.6-23.4-15.6-38.7-37.2-46.2q-.3-.7-.9-.5c.3-1.3-1.4-1.4-2.3-1.4l-1.7.2q-8.8-2.1-17.8-3c-.2-1.5-2.7-1.5-3.4-.3-23.2-1-57.3 7.5-73.4 25-2 11.7 4 32.9 19 32 13-3.5 31.6-9.2 29.1 12.5 0 4.8-6.2 29.5-8.6 31.8-2.3-.1-8.8 4.4-10.3 5.8q-1 .1-1.7.5-9.3 6-19 11l-1 .9q-.7 0-1.3.4-1.6 1.4-3.7 2.3-.8.3-1.3.7l-.9.4-1.2.8-4.9 2.9-.7.5q-.8.2-1.2.6l-3.2 1.7-.6.4-1.3.7-5 3-.6.5q-.8.2-1.5.8l-4.9 2.8-.7.5q-.7.2-1.3.7a33 33 0 0 0-5 2.8l-.8.5-1.2.6-3.7 2-1.3.8-5 3-.6.6q-.8 0-1.4.6a60 60 0 0 0-7 4 46 46 0 0 0-5.8 3.2l-1.2.8q-2 .9-3.4 2.4-1 0-1.6.6l-5 2.8-.8.5a59 59 0 0 1-6.2 3.5l-.8.6q-.7.2-1.3.6L83 364l-1.2.8q-3 1.5-5.6 3.4l-1.6.8-5 2.7-.6.6q-.8.1-1.4.6L64 375l-1.2.8-.8.3-1.3.8L57 379l-1.3.7c-.8.8-4.6 2-4.5 3.3-1.5-1.3-4-7-4.5-9 3 .4 36.1-21.2 41.3-24.4l16-9.4a2 2 0 0 0 1-1.3c1.3-.1 4.6-1.4 5-2.8q3-.7 5-3c2.4-.7 5-2.3 6.9-3.8-.7-1-6.4 2.3-6.8 3.8q-1.2-.2-2.1.3a7 7 0 0 0-3 2.7c-1.9-.3-4 1.3-5 2.8q-1.2 0-2 .4-7.3 4.4-14.7 8.5-.9.5-1.3 1.4-1 0-1.7.4-19.5 11.5-39 22.7c-3.4-3.5-12.6-27.3-14.6-33.3q1.2 0 2.3-.6l92-56.4 11-6.7q.7-.4 1-1.3c1.3 0 4.6-1.5 5-3 1.5-.2 4.3-1.4 4.9-3 1.4-.1 4.9-1.6 5-3 2 .2 3.8-1.6 5.1-2.7-.8-1.3-4.8 1.8-5 2.6-1.9 0-4 1.7-5.1 3a7 7 0 0 0-5 3.2c-1.7-.2-4.1 1.3-5 2.9-2-.2-8 4.3-10.3 5.2l-2 1.7c-2 .1-8.8 4.7-10.8 6a15 15 0 0 0-3.8 2.5c-3.1 1-9 5-12.4 6.7q-33.8 19.4-67.4 39.2c-2-.6-2.9-6.5-3.5-8.3l2.6-1.7.7-.5 1.2-.7 3-1.8q2-1.2 3.7-2.6.8-.2 1.4-.6l1.8-1 1.2-.8 5-3 3.5-2.5q.8-.2 1.5-.8a37 37 0 0 0 6.6-4.2q.8 0 1.5-.8a14 14 0 0 0 3.4-2.2l1.5-.7a59 59 0 0 0 6.4-4.3l1.6-.7 3-1.8 5-3L84 292l1.2-.8.7-.5q.7-.2 1.3-.8l3-1.7q1.8-1.3 3.9-2.3l1.2-.9 3-1.8.6-.5q.7-.1 1.3-.7t1.8-1l1.2-.8q2-1 3.6-2.6.8 0 1.4-.7a59 59 0 0 0 8-4.7l1.8-1.2 1.2-.8.8-.4 1.2-.8 1.8-1 1.2-.8q1.7-1.4 3.7-2.3l1.3-.7 2-1.7q5-2.6 9.7-5.6l11-6.7q.7-.4 1-1.3a8 8 0 0 0 5-3q2-.2 3-2 1.5.3 2-1c.7 0 2 0 1.9-1a2 2 0 0 0 1.2-1q1 .2 1.8-.6c-.5-.8-2-.4-1.8.6q-.9 0-1.2 1-1.5-.3-1.8 1c-.7 0-2.3-.1-2 1q-2.2 0-3 2a7 7 0 0 0-5.1 3c-2.1-.2-8.1 4.2-10.4 5.2q-.9.7-1.6 1.5-1 .2-2 .7l-9.1 5.2q-1.8 1.5-4 2.4l-1.2.7-.7.5-1.2.7q-1.9 1.2-3.9 2l-1.2.8-.7.6q-.8 0-1.4.7l-1.7.9-1.3.7-.6.4-1.2.8-.9.5-1.2.6-3 1.8-.7.5-1.3.8-5 2.7-.8.6-1.2.6-5 2.8-.8.5-1.3.7-1.7 1-1.3.7-.6.4-1.3.8-5 2.9-.8.5-1.2.8a39 39 0 0 0-5 2.7l-.6.6q-.8.2-1.4.7l-3.7 2-1.3.7a81 81 0 0 0-7 4.2q-3 1.4-5.5 3.3l-1.6.8-5 2.7-.6.6q-.8 0-1.3.6l-3.7 2-1.3.8a32 32 0 0 0-5.5 3.6q-.8 0-1.5.7a36 36 0 0 0-5 2.7l-.7.7-.8-.5c-1.4-1.1-2-6.2-2.7-8l58.8-36q.5-.4.5-1 2.3-.6 4.3-1.9l10-6 11-6.7q.6-.4.8-1.3a8 8 0 0 0 5.1-3c2.4-.1 4.8-2.5 7-3.5v-.5q2-.5 3-2 1.2 0 1.8-.7c-.5-.9-1.6 0-1.8.7q-2.4-.3-3 2c-2-.3-6 2.4-7 4-1.9.1-4.2 1.3-5 3q-1.2-.1-2 .4l-9 5.2-1.3 1.6q-.9-.3-1.8.2A186 186 0 0 0 82 275l-59.3 34.2a27 27 0 0 1-2-9.2q1-.3 1.7-1l3-1.7 3.8-2.4q.6-.2 1-.8l3.1-1.8 5-3 3.4-2.5a4 4 0 0 0 1.7-.7q.7-.6 1.6-1l1.3-.8q1.9-1 3.5-2.6.8 0 1.5-.6l1.8-1 1.2-.8q1.9-1 3.5-2.6.8-.1 1.4-.7l3.1-1.7q2-1.4 4-2.3.7-.4 1-1l3-1.7 5-3.1q1.8-1 3.6-2.5.7 0 1.5-.6l2.9-1.9q2-1 3.6-2.5.8-.1 1.4-.6l1.8-1 1.2-.8 3-2 .8-.6q.7 0 1.2-.6l3-1.8q2-1.4 4-2.3.6-.3 1-1l3-1.7 5-3q.8-.7 1.8-1.2l1.2-.8.7-.5 1.2-.8 6.1-3.7.8-.5 1.2-.7q.7-.6 1.8-1l1.2-.8q.8-.8 1.8-1.3.7-.2 1.3-.7l.6-.6q.8-.2 1.3-.6.8-.7 1.8-1l1.2-.8q1.8-1.5 4-2.6 4-2.2 7.7-4.7c1.8-1.4 6-3 7-4.9 1.4-.3 4.5-1.5 5-3q2-.3 3.1-2 1.3 0 2-1 2-.2 2.9-2c.5.1 2.9-.4 1.6-1.2q-1.5 0-1.6 1.2a3 3 0 0 0-3 2c-.7-.2-2.2-.2-1.9 1q-2.2 0-3 2-3.4 0-5.2 3c-2-.4-5.4 2.2-6.9 3.6-2.8.6-6.3 3.5-9 4.7l-1 .8q-.8.2-1.4.7-1.6 1.4-3.7 2l-1.2.8-.8.6-1.2.5a23 23 0 0 1-3.7 2.2l-1.3.8-.8.4-1.2.7-1.8 1-1.3.7-.6.4-1.3.7-5 3-.8.6-1.2.6-5 2.8-.6.5q-.8.3-1.4.8a52 52 0 0 0-7 4l-3 1.6-.7.4-1.3.7-5 3-.8.5-1.2.8a39 39 0 0 0-5 2.7l-.8.5-1.2.7a64 64 0 0 0-7 4 14 14 0 0 0-3.4 2.3l-1.7.7-5 2.8-.7.5q-.7.2-1.3.7l-5 2.8-.5.6q-.8.1-1.4.6l-5 2.9q-2.9 1.5-5.6 3.4-.7.2-1.5.7l-3.7 2-1.2.8-.7.6q-.7.2-1.3.6l-5 2.8-.8.5-1.3.8-4.9 2.8-1.5 1.5a281 281 0 0 1-3.3-20.4l1 .2q.9-.3 1.4-.8l.8-.5q.8-.2 1.2-.8l1.8-1 1.2-.7q1.8-1 3.5-2.6.7 0 1.5-.6l3-1.8q1.9-1.1 3.5-2.5l1.5-.7 3-1.8 5-3.1a15 15 0 0 0 3.5-2.5q.8 0 1.5-.7l1.7-1 1.2-.8q2-1 3.7-2.4.8-.2 1.4-.8l3-1.7q2-1.4 4-2.3l1-1 3-1.7.7-.5q.8-.2 1.3-.8l1.7-1 1.2-.7 3.1-2 .7-.6q.8 0 1.3-.6l1.8-1 1.2-.8a20 20 0 0 0 3.5-2.5q.8-.2 1.5-.7l1.8-1 1.2-.8 2-1.2q.9-.7 2-1l1-1 1.8-1 1.2-.8.9-.4 1.2-.9 1.6-1 1.2-.8 1.9-1.2 1.2-.7.8-.6q.6 0 1.1-.5 1-.9 2.1-1.4 9.4-5.6 18.7-11.5.6-.5 1-1.2 3-.6 5-3c.7 0 2 0 2-1q2-.3 3-2c.6 0 2.5-.4 1.5-1.2q-1.1 0-1.4 1.2a3 3 0 0 0-3.2 2q-1.5-.5-1.9 1a6 6 0 0 0-5 3q-1-.1-2 .4l-19.1 11-.7.7-1.5.6q-1.6 1.5-3.7 2.2l-1.3.8-.8.4q-.8.3-1.2.8l-1.8 1-1.3.6-.6.4-1.3.8-5.8 3.4q-.7.3-1.2.8l-5 2.7-.7.5-1.2.8-3.2 1.6-.6.4-1.3.8-3.8 2.1-1.3.8-.5.5q-.8.2-1.4.7l-5 2.8-.9.5-1.1.8-5 2.8-.8.5-1.2.7-5 2.7q-3 1.5-5.4 3.6a2 2 0 0 0-1.6.7 31 31 0 0 0-5 2.7l-.7.6q-.8.1-1.4.7l-4.9 2.8-.8.5-1.2.6L24 264l-1.3.7q-2.8 1.5-5.5 3.5-.7 0-1.2.6l-.7.5q-1.4-15.6-1-31.4 1 .3 1.7-.2l32.2-20q9.2-5.3 18.2-11 .9-.6 1.6-1.6c1.4.1 6.5-2.8 7-4.1q2.1 0 3-2 1.3.2 2-1 2.1 0 3-2a2 2 0 0 0 1.9-.7c-.6-.9-1.8 0-1.9.7a3 3 0 0 0-3 2q-1.4-.3-2 1-2.1 0-3 2h-1.5c-1.7 1.6-4.6 1.9-5.5 4.1q-1-.1-2 .4l-18.8 11c-5.3 3-30.7 16.3-32.9 19.7.6-6.7.8-18.3 2.9-24.4q.8 0 1.5-.5l45.6-28.5q.5-.4.4-1c1.3.4 3.2-1.4 4.3-1.8l14-8.6 1-1.3c1.6 0 4.3-1.5 4.9-3A7 7 0 0 0 94 164c.5.2 2.6-.3 1.5-1a2 2 0 0 0-1.5 1 8 8 0 0 0-5.1 3 7 7 0 0 0-5 3.1q-1 0-2 .3-7.2 4-14 8.6l-3.9 2q-23.5 13.4-46.8 27.2.8-6.8 2.7-13.3a2 2 0 0 0 2.4-.2L84 156.2q.7-.5 1-1.2 2.1 0 3-2 1.4.2 2-1 2 0 3-2 1.2.2 2-.7c-.7-.9-1.9 0-2 .8q-2.1 0-3 1.8-1.4 0-2 1.1a3 3 0 0 0-3 2h-1.5l-8.9 5.2-1.6 1.4q-4.5 2.1-8.8 4.7l-43.1 25c0-4 1.8-9.8 3.7-13.4q1.2.2 2.2-.4l13.9-9q1 0 1.7-.5l7.4-4.7q.8-.4.9-1.4c1.5-.1 4.7-1.3 5-3q2.2 0 3.2-1.8 1.2 0 1.8-1 2.2-.1 3.1-2c.6 0 2.8-.4 1.5-1.2q-1.2 0-1.5 1.2-2.2 0-3 2-1.5-.6-2 1-2.1 0-3 1.9a8 8 0 0 0-5.1 3c-2.2-.2-7.3 3.9-9.6 4.8q-.9.5-1.4 1.4-.9 0-1.6.4l-10.3 6a3 3 0 0 1-2.8 1.6q2.3-7.4 5.1-14.5.4.6 1 .4L48 151.7q4.3-2.3 8.5-5 .9-.7 1.5-1.6c1.4-.3 4.7-1.6 5.1-3.2a3 3 0 0 0 3-2c.5.3 3-.2 1.6-1q-1.3 0-1.7 1-2 .3-2.9 2a6 6 0 0 0-5 3.2c-2-.4-7.5 3.9-9.7 4.7q-.9.5-1.4 1.5c-1.5-.2-5.1 2.6-6.5 3.6l-8.5 4.3c1-4.8 4.9-11.1 7.4-15.5q.9.4 1.7-.1 9.9-6.7 20-13 .9 0 1.6-.5 3.6-2.6 7.4-4.8.7-.5 1-1.4 2 0 3-1.8 1.5 0 2-1.2 2 0 3-1.5c-1-1.1-2.6.6-3 1.5q-1.4-.1-2 1.2-2.1 0-3 1.8c-2.3 0-7.2 3.9-9.7 4.9q-.9.5-1.4 1.5c-1.6-.2-5 2.6-6.4 3.6l-13 7.1a190 190 0 0 1 26.3-37.8 2 2 0 0 0 1.4-1.6 2 2 0 0 0 1.8-.2c13-8.8 26.4-19 39.5-27.3q.3-.4.3-1c.4-.3 4.4-1.1 2.8-2q-2 .1-2.8 2l-1.2.2q-12.8 7.5-26 14.9c-1.1.8-1.9 2.2-3.5 2.1q.3-.9 1-1.6 48.3-46.2 113-63.5l-.4.9c-16.8 11.5-33.4 23.5-50.2 35q-.3.3-.4.8-2 0-3 1.8c.8 1.2 2.7-1 3-1.8 2.4.2 2.8-.7 4.5-2q34-19.3 67.7-39 .4-.3.3-.9 22.1-4.2 44.5-4.7Zm81 21.7c-1.8 0-4.4 1.3-5 3-2.3.2-5.3 2.3-7 3.7.9 1.3 6-2.5 7-3.7q3-.4 5-3c1 .2 6.1-2.1 4.5-3-1.5.2-4 1.5-4.5 3ZM117.9 47.8q0 .8-.4 1.2-8.5 5.6-16.4 11.9 0-2.7 1.9-4.4 6.4-3.7 12.5-7.6 1-.8 2.4-1.1Zm278 7.8q8.4 5.9 16.2 12.2-3 .3-5 2.4-.8.2-1.4.8l-3 1.7q-2 1.1-3.6 2.5l-1.4.8-3 1.7q-2 1.4-4 2.4l-1 .8q-2 .9-3.5 2.4-.9 0-1.5.6l-3 1.8-3.5 2.5-1.5.7-3 1.8q-1.8 1.1-3.5 2.5-.8.3-1.4.8a24 24 0 0 0-6.5 4.3 3 3 0 0 0-1.7.6l-1.7 1-1.2.8-5 3.2a285 285 0 0 0-14.8 9l-1.2.8-1.8 1.2-1.3.8-.8.6q-.6.1-1 .7l-3.1 1.7q-2 1-3.4 2.5l-1.7.7q-1.5.8-2.3 2.4 0-12.2-5.4-23.1l2.8-.8zm5 7.7c.6 0 2.7-.5 1.6-1.4q-1.3.2-1.5 1.4ZM76 81.8l.8.2c-.1 1.4-4.2 5-5.5 6l-.6-2.2zm196 8.4q3-.3 6.1 0a3 3 0 0 1-1 1.2q-5.2 2.8-10.1 6-.7.3-1.6 0l4.7-4.9q.6-.7 1-1.8.6.2 1-.5Zm19.1 3.7q3.6 1.2 6 4.1c-6.5 4-15.6 10.4-22.7 13-.8-.6.2-1 .5-1.6zm12.7 14.8h1.1q1.2 1 1.3 2.4l-19.9 11.5q-2 .1-.4-1.2 4.8-3.7 9.2-7.8l2.9-1.5q3-1.5 5.8-3.4Zm-57 15.2q-.6-2.9 0-5.6c3.3-1.2 7.9-4 11-6 1.3-.8 1.6.7.4 1.4q-5.3 4.6-10.4 9.7-.5.4-1 .5Zm62-1.8q.4 2.9 0 5.8-.9 0-1.8.5-5.5 3-10.6 6.5-.8.3-1-.4zM262 153.4c-1.3-.9-4.3-2.8-5-4.2q11-6 22-12.7 1-.5 1.7 0a714 714 0 0 1-18.7 16.9Zm21 3.6-4.4.6q-2.4.2-4.6-.3 7.5-3.9 14.5-8.5c.6-.2 1.7-1 2.2-.2l-7.2 7.4q-.4.4-.5 1Zm-30 9.4c.6-.1 2.8-.7 1.6-1.6q-1.3.3-1.6 1.6Zm230 15.8q1 .3 1.1 1.3 1.4 4.2 2.4 8.5-3 0-5.2 2.2-.8.3-1.5.8l-3 1.7-5 3a23 23 0 0 0-3.5 2.5l-1.5.8-3 1.7-.7.5-1.3.8-1.7 1-1.3.7q-1.8 1.5-4 2.2l-1 1.1q-2 .9-3.5 2.3-.9 0-1.6.6l-1.7 1-1.2.8-5 3-3.6 2.5q-.8.2-1.4.8-2 .9-3.6 2.2l-1.4.7-3 1.9q-1.9 1.3-4 2.2l-1 .9-1.8 1-1.2.8-.7.6q-.7 0-1.2.6l-3.1 1.8-5 3-3 2-.7.6-1.4.6-1.7 1-1.2.8-.7.5q-.7.3-1.2.8-1 .4-1.8 1l-1.3.7q-1.9 1.4-4 2.3l-1 1a45 45 0 0 0-6.8 4l-1.2.7-3.7 2.3-1.3.7q-.7.8-1.8 1.3-.7.2-1.3.7l-.7.5q-.6.2-1.1.6L372 261l-1.2.7-.9.6-1 .6-1.9 1.1-1.2.7-27.1 16.5q-1 .6-1.7 1.8-1.3-.2-2 1-3 .7-5 3-2.3-.3-2.8 2-1.2-.3-2 .7c.5 1 2 .2 2-.7a4 4 0 0 0 2.9-2c1.3.2 4.6-1.7 5-3q1.3.2 2-1a4 4 0 0 0 2-.6l13-7.6 11.1-6.3 1-.8 1.2-.6 3.7-2.1 1.3-.7q1.7-1.4 3.8-2.3l1.2-.7 1-.6q.6 0 .9-.6l5.1-2.8.7-.6 1.3-.6 5-2.8.8-.6q.7-.2 1.2-.6l1.8-1 1.2-.8.6-.5q.9 0 1.4-.7l5-2.8.9-.5 1.2-.7 5-2.8.6-.6q.8 0 1.4-.6l1.7-1 1.3-.8.6-.2 1.3-.8a51 51 0 0 1 6-3.5l1-.8 5-2.7.7-.5 1.4-.8 5-2.7.7-.6a52 52 0 0 0 11.8-7q.8 0 1.4-.7l5-2.7.7-.6q.8 0 1.3-.7l5-2.7.8-.5q.7-.2 1.2-.7l5-2.9q2.9-1.5 5.5-3.4.9 0 1.5-.8l5-2.7.7-.6q.8-.2 1.4-.6l4.9-2.8q.6-.8 1.4-1.4l2 10.2q-1.5-.1-2.4 1.1l-1.6.7q-1.9 1-3.5 2.3-.7.2-1.5.7l-1.8 1-1.2.8-4 2.4-1 .8a12 12 0 0 0-3.5 2.4q-.8 0-1.5.6-2 .9-3.5 2.4a3 3 0 0 0-1.5.6l-1.7 1-6.2 3.8-5.1 3.3-1.8 1q-.6.2-1.2.7l-.7.6q-.7.2-1.3.6L443 234l-1.2.8-4 2.3q-.7.3-1.2 1a14 14 0 0 0-3.6 2.2l-1.4.6-1.7 1-1.2.8-3.7 2.3-1.3.7q-1.8 1.4-4 2.3l-1 1-3 1.7-.7.6q-.7.2-1.3.6l-3 1.8-5 3q-2 1-3.4 2.6-.8.1-1.5.7a18 18 0 0 0-4 2.2l-1.1.8-3 1.7q-1.7 1.4-3.7 2.3l-1.2.7a53 53 0 0 1-7.2 4.5l-15 9q-1 .6-1.4 1.8a6 6 0 0 0-5.1 3 7 7 0 0 0-5.1 3c-2 0-5.6 2.5-7 4q-2.2 0-3 2-1.1-.2-2 .7c.6.8 1.8 0 2-.6q2.1-.3 3-2.1c1.3.2 6.5-2.6 7-4a8 8 0 0 0 5-3c2 0 4-1.4 5.2-3q1 .1 1.9-.4l21.2-12.3.8-.5 1.1-.6q1.8-1.3 3.9-2.2.6-.2 1.2-.8l1-.3 1-.9 1.8-1q.6-.2 1.2-.7l.8-.4q.8-.3 1.3-1l5-2.6.6-.5 1.3-.8 5-2.7.8-.6q.8-.2 1.2-.7l3.7-2q.8-.3 1.3-.7l5-3 .8-.5q.8-.2 1.2-.8l5-2.7.7-.5 1.3-.7 5-2.8.7-.5q.8-.1 1.3-.7l3-1.8.7-.2 1.3-.8 7-4.3a59 59 0 0 0 7-4l5-2.8.8-.5 1.3-.6 4.9-2.8 5.5-3.5a2 2 0 0 0 1.5-.8l5-2.7.6-.6q.8 0 1.4-.6a27 27 0 0 0 4.1-2.5c1.4 2.8 1.6 6.1 2 9.2q-23.5 14.1-46.7 28.4-7.5 4.7-15.1 9a3 3 0 0 0-1.4 1.6c-2.8.2-6.6 3.6-9.2 4.9l-1 1.3a7 7 0 0 0-5 3l-1.4.1a7 7 0 0 0-3.6 3q-1.4-.4-2 1c-1.5.3-4.5 1.4-5 3q-2.2-.5-3 1.8-1.4 0-2.1 1-.6.3-.5.7.4-.1.5-.6 1.6.4 2.2-1 1.8-.5 3-2c1 0 4.6-1.7 4.8-3q1.4.2 2.1-1c1.7-.2 4.3-1.4 5-3a7 7 0 0 0 5-3c2.1.2 7.7-4 10-5l17.7-10.4q23.3-13.3 46.3-26.8a36 36 0 0 1 1.1 10.5q-1-.2-2 .4-7.5 4.4-14.6 9.2-7.2 3.9-14 8.1l-14.5 8.7q-.7.4-1 1.2-3 .7-5 3c-1.8.3-4.3 1.4-5 3.2-2 0-5.3 2.3-6.9 3.6.9 1.3 6-2.5 7-3.6 1.6 0 4.4-1.6 4.8-3.2 2 .2 4.4-1.2 5-3a4 4 0 0 0 2.2-.2l14.8-8.8 30-17.3q.8 5.3 1.1 10.4-1-.2-2 .3l-29 18q-6.8 3.7-13.4 7.9a4 4 0 0 0-1.6 1.8c-1.7-.1-4.5 1.3-5 3.1q-1.4-.5-2 1a3 3 0 0 0-3 2q-1.4-.4-2 1-2.4-.4-3 2-1.3-.4-2 .6c.5.9 2 .4 2-.7q2-.3 3-2 1.4.2 2-1 2.1-.1 3-2 1.4 0 2-.9c1.6-.3 4.4-1.6 5-3a4 4 0 0 0 2-.6q6.3-3.8 12.7-7.3.9-.5 1.3-1.4 1 0 1.7-.4Q482 255 496.2 247q1 5 .8 10.3-1 0-2 .6l-1.3.8q-2 1-3.6 2.6-.7.1-1.5.7a35 35 0 0 0-6.4 4.3q-.8 0-1.4.7l-1.9 1q-.6.2-1.2.7-2 1.4-4 2.3l-1 1-3 1.7q-2 1.4-4 2.3l-1 1-3 1.7q-2 1.3-3.9 2.3l-1.1 1-3 1.7q-2 1.5-4 2.2l-1 1-3 1.8q-2 1.3-4 2.3l-1 1-3 1.7-3.9 2.4-1 .9-3.1 1.7q-1.9 1.4-3.9 2.3l-1.2 1-1.7 1q-.6.2-1.2.7l-5 3-1.8 1.2-1.2.8-.7.5-1.3.8-3 1.7q-.8.8-1.8 1.2l-1.2.8q-1.8 1.4-3.7 2.3l-1.3.7q-.7.8-1.8 1.3l-1.2.7-.7.5-1.2.6-2.1 1.5q-7 4-13.7 8.4-.7.4-.9 1.3a8 8 0 0 0-5.2 3 3 3 0 0 0-3 2q-1.2-.3-1.9 1-2.4-.3-3.1 2-1.2-.3-1.9.7c.5 1 2.2.2 1.9-.7q2-.3 3.1-2 1.5.4 2-1 2-.2 3-2 3-.3 5.1-3 1 0 2-.3l14-8.2.7-.9q.8 0 1.3-.5l5.2-2.9q.5 0 .8-.4.8-.2 1.3-.7l1.7-1 1.2-.8q.4 0 .7-.3.8-.3 1.3-.7l5-3 .8-.5 1.2-.8 5-2.7.8-.6q.8 0 1.2-.7l3-1.7.7-.2 1.3-.8.8-.4 1.2-.8 1.8-1 1.2-.8.7-.2 1.3-.8 5-3 .6-.5q.8-.2 1.4-.7l3.7-2 1.3-.8.7-.6q.8-.2 1.4-.6l4.9-2.8q3-1.6 5.5-3.6l6.5-3.4.7-.6q.8-.2 1.3-.7l5-2.7.7-.6q.8 0 1.4-.6 1.7-1.2 3.6-2l1.3-.8 5-3 .8-.5a2 2 0 0 0 1.2-.8l5-2.7.7-.5 1.3-.8 2.7-1.3q.3 5.2-.1 10.6a3 3 0 0 0-1.6.4l-19 12q-1.3.9-2.8 1.3l-15 9.2a5 5 0 0 0-1.5 1.7q-1.5-.1-2 1.1-2.2 0-3 2-1.5-.3-2 1.1-2.2-.2-3 1.8-1.4 0-2 1a10 10 0 0 0-5 2.8c1 1.3 4.8-1.6 5-2.8.7.2 2.1.2 2-1q2-.3 3-1.8a2 2 0 0 0 2-1.1q2.1 0 3-2 1.5.3 2-1.1a3 3 0 0 0 2-.5q9-5.4 18-10.4l7.6-4.8 12.2-6.4-1 11.6q-.9-.4-1.8 0l-40.7 25.4c-2 1-8.6 4.1-9.2 6.2-2-.1-4.3 1.3-5 3-2-.2-4.2 1.4-5.2 3q-1.5-.4-1.9 1-2 .1-3 2a2 2 0 0 0-1.9.7c.6 1 1.9 0 1.9-.8q2 0 3-1.9 1.5.3 2-1a8 8 0 0 0 5-3 8 8 0 0 0 5-3c2.2.1 7.7-4 10-5l10.7-6.3 30.6-17.7a33 33 0 0 1-2.4 12.1c-3.2.2-32.8 20-37.8 23.2q-4.3 2.4-8.5 5-1 .6-1.6 1.7-3.1.4-5 3-3.1.5-5 3a9 9 0 0 0-5 2.7c.8 1.3 4.7-1.6 5-2.8 1.6.1 4.6-1.3 5-3a7 7 0 0 0 5-2.9c2.2.2 7.3-3.9 9.7-4.8q1-.5 1.3-1.5 1 .1 1.7-.3l35.4-20.5q-2.8 13.4-7 26.1-2 0-3.4 1l-1 .9-1.7 1-1.2.9-3.1 2q-1.9 1-3.5 2.4l-1.5.7-1.5 1.3-1.5.7-1.7 1-1.2.9-1.9 1.1-1.2.8-8 5.3-3 2-1.7 1-1.3.7q-.8.7-1.8 1.2l-1.2.8q-3.4 2.1-6.4 4.6l-1.7.7-1.8 1-1.1 1-3 1.7-1.8 1.2-1.2.8-6.5 4.5-1.6.7a58 58 0 0 1-5.8 3.8l-1.9 1.2-1.2.8-1.8 1.2-1.2.8-.8.5-1.2.7-1.4 1.4-1.6.6-1.7 1-1.2.9-1.9 1.2-1.2.7-1.8 1.3-1.2.7q-.6 1.4-2.1 1.4c-2.4 1.6-8.3 4.6-9.6 6.9-1.6 0-4.6 1.5-5 3q-2.1 0-3 1.9-1.3 0-1.9.8c.6 1 2 0 1.8-.8a3 3 0 0 0 3-1.8 7 7 0 0 0 5.1-3.1q1 .1 2-.4a218 218 0 0 0 14.3-8.3l.7-.6q.8-.2 1.3-.6l3.7-2 1.3-.8.8-.5 1.1-.7 1.9-1 1.2-.8.7-.2 1.3-.8 5-3 .7-.6 1.3-.6 7-4 5-2.8.7-.6 1.3-.6a19 19 0 0 0 3.5-2.3q.9 0 1.5-.7a65 65 0 0 0 7-4l5-2.8.7-.6q.7-.1 1.2-.7a55 55 0 0 0 10.6-6.2 3 3 0 0 0 1.5-.8 37 37 0 0 0 5-2.7l.7-.5q.8 0 1.3-.8l5-2.7.8-.5q.8-.2 1.2-.8l4-2.2.3.3q-2.7 7.2-5.7 14.2-.7 0-.6.7a5 5 0 0 0-2.3.7q-37.8 24.6-75.4 49.6c-1.5.8-4.2 2-4.4 3.8-2.3-.7-5.2 2.7-7.2 3.6q-.7.4-1 1.2a8 8 0 0 0-5 2.8c.8 1.5 4.5-1.6 5-2.8 2 .3 6-3 8-4l5.8-3.4 70.4-40.6h.4q-4.2 9-9.7 17.2-.8.2-.7 1l-1.5.3c-21 13.8-41.7 28.5-62.8 42q-.9.6-.8 1.4a8 8 0 0 0-5 3c.9 1.3 4.5-1.8 5-3q1 0 2-.3 27-16 54.6-31.6l-3.5 5a256 256 0 0 1-131.4 87.4q-2.1.6-4.2.7 5.4-3.4 10.7-7.2 2.5-1.4 4.6-3.2.6 0 1-.2c1.4-1.4 6.7-3.9 7.2-5.5a3 3 0 0 0 3-1.5c-1-1.1-2.7.6-3 1.5-2.1 0-5.7 3.1-7.8 3.8q-1 .6-1.3 1.6c-1.2-.1-3.9 1.5-4.7 2.2-4.6 3-13.7 7-17 10.5a167 167 0 0 1-26.3 4.7q0-.5.3-.8l2-1 1-.8 2-1.1 1-.9 1.5-1.3 1.4-.7 1.6-1.3q.8-.1 1.5-.7a556 556 0 0 1 19-12.8q.8-.7 1.8-1.2l1.2-.8 2.9-2.1 2.1-1.2 1-.9 2-1 1-1.1 1.5-1.2q.9-.2 1.5-.8.8-.4 1.5-1.2l1.5-.7 1.6-1.3q.8-.2 1.4-.8l5.8-3.8 1.2-.9 1.8-1.1 1.2-1 3-2 1.8-1.1 1.2-.8q.7-.9 1.8-1.3l1.2-.7q1-1 2-1.6c1.6-1 7.2-4.1 7.7-5.5 1-.2 5.6-2.2 4.5-3.3-1.3 0-4.1 1.8-4.5 3.3a3 3 0 0 0-2 .3 77 77 0 0 1-7.1 4l-.9.8q-.7 0-1.3.5-.7.7-1.8 1.2l-1.3.6-.6.4-1.3.7-5 3-.9.6q-.6 0-1.1.6l-5 2.9-.7.5q-.7 0-1.3.6l-3 1.7-.7.4-1.3.8-.9.4-1 .8q-2 .7-3.6 2.2l-1.5.8a38 38 0 0 0-5 2.7l-.7.5-1.3.8-5 2.7-.7.6q-.8.2-1.3.7l-5 2.8q-2.8 1.5-5.5 3.3-.8.3-1.5.8l-3.8 2-1.3.8-.7.6a45 45 0 0 0-8 4.7 30 30 0 0 0-5.2 2.8q-2.9 1.5-5.5 3.4-.8.2-1.5.8c-1.3.6-3.9 1.3-3.7 3.1q-9.7.3-19.4 0l9.3-6.3q.8-.2 1.4-.7l1.4-1.4q.9-.1 1.6-.7l1.9-1 1.1-1 1.9-1 1.1-.9 6-3.9 1.8-1.1 1.2-.8 1.8-1.2 1.2-.8 9.5-6.5q.9-.2 1.6-.8l1.5-1.2 1.4-.7 1.9-1.1 1.1-.9 2-1 1-1a61 61 0 0 0 6-3.8l3-2 6-4 3-2q1.9-1.1 3.5-2.5l1.5-.8 1.5-1.2q.9-.2 1.6-.8l1.8-1 1-1 1.8-1 1.2-.8 3-2q.9-.7 1.9-1.2l1.2-.7 2-1.6 4.7-2.8c2.3-1.5 6.6-3.7 8-5.9q1.5.3 2-1c.5-.2 4.1-1.1 2.6-2.1q-2.2 0-2.7 2-1.5-.3-1.9 1.1c-2.3 0-7 3.8-9.2 5l-4.9 2.6q-1.8 1.5-4 2.4l-1.3.7-.8.5-1.2.7-4.9 2.9-.6.5q-.8 0-1.4.6l-3 1.7-.7.4-1.3.7-.7.5-1.3.7-3 1.8-.8.5-1.3.7-5 2.8-.6.6q-.8 0-1.4.6l-4.9 2.8-7 4q-3 1.6-5.6 3.6-.8 0-1.4.7l-5 2.7-.8.5-1.1.7-5.1 2.8-.8.6-1.2.7-3.7 2-1.3.7a81 81 0 0 0-7 4.3 34 34 0 0 0-5 2.7l-.7.6q-.8.2-1.4.7l-4.9 2.8-.7.4-1.3.7-3.7 2.1-1.2.8-5.1 2.9a2 2 0 0 0-.6 1.8q-7.4-.6-14.7-1.7-1 0-1-.7l3.4-2.3q.8-.2 1.5-.7l2-1.2 1-.8 6-3.8q3.4-2.1 6.4-4.6.9 0 1.6-.6l2-1.2 1-1q1-.3 1.7-.9l3-2q.8-.2 1.3-.7 3.4-2.2 6.5-4.5.8 0 1.4-.7l2-1.2 1-.8a53 53 0 0 0 9.7-6.3q.8-.1 1.5-.7l1.5-1.3q.8-.3 1.3-.7l1.8-1 1.2-.8 3.1-2 6.5-4.5 1.6-.8q.8-.5 1.4-1.2l1.6-.8 1.6-1 1.3-.7q.8-.7 1.8-1.2l1.2-.8 1.8-1.2 1.2-.8q2-1 3.5-2.6.9 0 1.4-.6l1.8-1.1 1.2-.8 3-2 3.1-2 3-1.9 3.5-2.6q.8-.1 1.4-.6l2.2-1.4q3.8-2.3 7.5-5c1.5-.7 4.5-2 5.1-3.6 1.4-.3 4.6-1.6 5-3.1q1 0 2.2-.4 2-1.5-.5-1.4-1.2.6-1.8 1.8c-1.4-.3-4.6 1.7-4.9 3q-3.4.3-5.2 3.2-1-.3-1.8.2l-7 4-.8.9-1.4.5q-1.6 1.5-3.9 2.2l-1.2.7-.8.6-1.2.6-3 1.7-.7.4-1.2.8-5.1 2.9-.6.5-1.5.8-5 2.7-.6.6q-.7.2-1.2.7a27 27 0 0 0-5 2.8l-2.1 1.2a38 38 0 0 0-5 2.8l-.7.5q-.7.2-1.2.7a13 13 0 0 0-3.7 2.2q-.8.2-1.4.8a38 38 0 0 0-5 2.7l-.8.5-1.2.7-5 2.8-17.8 10.2-1.2.8-.7.6q-.8.2-1.3.7a61 61 0 0 0-7 4l-5 2.8q-3 1.5-5.6 3.4-.8.1-1.4.7l-5 2.8-.7.5q-.8.3-1.3.7l-7 4q-1.8.6-1.6 2.3-12.1-2.2-24-6-1-.3-1-1.3l55.3-34.1a5 5 0 0 0 1.6-1.8 7 7 0 0 0 5-3q3.1-.5 5-2.9 1.5.3 2-1.1c.5-.2 4.2-1.2 2.6-2q-2.2 0-2.6 2-1.4-.3-2 1.1c-1.8-.3-4 1.4-5 2.9a7 7 0 0 0-5 3q-1 0-2 .4l-14.1 8.1-1.4 1.3q-21 11.5-41.6 23.7l-1.8 1.9c-2-1.2-9.5-2.9-10.4-4.8l41.7-25.8 9.6-5.8 11-6.7a2 2 0 0 0 1-1.3c1.4-.2 4.4-1.5 5-2.9 1.4-.2 4.4-1.9 5-3q2.2.1 3.1-1.6c-1-1.2-2.7.5-3 1.5-1.4-.2-4.7 1.7-5 3.1-2.2-.5-4.1 1.2-5.1 3-2-.4-8 4.2-10.4 5.1q-1 .7-2 1.7-.8 0-1.6.5l-9 5.1-1.5 1.3q-21.8 12-43.4 24.6c-1.8-1.2-7.3-2.9-8.3-4.5l.5-.9q14.8-9 29.5-18.2 1-.2 1.8-.8 5.8-3.8 11.8-7.2 1-.7 1.7-1.7c1.7-.1 4.3-1.5 4.9-3.1q1.3.1 2-1 2.1-.1 3-2a2 2 0 0 0 2.1-1q2-.1 2.8-2a2 2 0 0 0 2-.7c-.6-.9-1.6 0-2 .7-1.2.2-2.8.5-2.8 2q-1.4-.2-2.1 1-2.2 0-3 2-1.5-.2-2 1a7 7 0 0 0-5 3q-1 0-2 .4l-12.8 7.5a2 2 0 0 0-1.2 1.4c-1.4-.3-27.5 15.2-31 17.3q-.7.4-1 1c-1.7 0-8.2-4-10-5.2l2.7-1 69-43.3q.3-.6.2-1.4 10.1 4 20.8 6c23.3 1 71-1.6 86.2-22.3 7.4-11.5-.2-35-15.7-34.3-1-.2-3-.4-3.3 1-7.1 2-24.5 8.6-26-3.7-.4-27 11.6-54 20-79.4q1.5-.8 3-1.3 1.1.4 2-.3a329 329 0 0 1 21.2-12 18 18 0 0 1 4-2.4l1.2-.7 3.8-2.3q.7-.2 1.2-.7l.7-.2 1.3-.8q1.7-1.5 3.8-2.2l1.2-.8.7-.5q.9-.1 1.4-.8l5-2.7q.1-.3.6-.5l1.3-.8 5-2.7.8-.6 1.2-.7 3-1.7.7-.2 1.3-.8 5-3 .7-.5 1.4-.7 5-2.8.5-.6 1.4-.6 3-1.7.7-.3 1.3-.8.7-.6q.6 0 1.3-.6l5-2.8a39 39 0 0 1 5-3l.7-.6q.7-.2 1.2-.6l5.1-2.8.7-.6q.8 0 1.3-.6l3.7-2 1.3-.8.8-.6 1.2-.6q1.8-1 3.5-2.2.8-.3 1.5-.9l5-2.7.7-.5q.8-.2 1.4-.8l3.7-2 1.2-.7.8-.6q.7 0 1.2-.6l3.7-2 1.3-.8q3-1.6 5.5-3.6.9 0 1.5-.7l5-2.7.7-.6 1.4-.7 5-2.7.7-.5 1.1-.7 5.1-2.8 5-3 .8-.5q.8-.2 1.2-.8l5-2.7.7-.5 1.3-.7 5-2.8.7-.5 1.3-.8a18 18 0 0 0 3.6-2.2q.8 0 1.5-.7 1.6-.5 2.6-2Zm-259 18.7c-2 2.1-24.9 14.6-29.2 17.4-1 .3-4.8 3-5.4 2.2 2.2-3.4 6.7-9.2 8-12.8 7.4-4.3 18-6.4 26.7-6.8Zm18.2.3q3.1.3 6.2 1c-.6 1.3-17.7 10-20.1 12.4-.8.3-1.5 1-2 0q0-.8.7-1.2 7.7-6 15.2-12.2Zm19 5.4c1.4.7 5.4 2 5.9 3.4l-18.7 10.7c-1.6.7-1.4-.6-.5-1.4zM24 218.9c-1-.2-5.9 2.2-4.5 3.2 1.4-.4 4-1.6 4.5-3.2 2 0 5.5-2.3 7-3.6-.7-1.1-6.3 2.5-7 3.6Zm192 19.4q-4.5-.9-9-1.2.3-1 1.4-1.5l20.7-12c.7-.3 1.4-1 2-.2q-7.2 7.8-15.1 15Zm65.3-15.4c1.6.5 3.3 4.5 4 6-3.6 1.5-23.4 13-27.1 15.6q-1 .5-1.8-.1 12.5-10.5 24.9-21.5Zm-97.4 16a8 8 0 0 1-1.8-4q1 0 2-.6 6.7-3.5 13-8 1-.2 1.7.4a197 197 0 0 0-14.9 12.1Zm104.3-.3c1.3.7 1 3.8 1.4 5q-11 5.7-21.4 12.2c-1 .1-2.2 1.8-3 .8q.2-.8.8-1.2c6.1-3.9 16.7-13.7 22.2-16.8ZM226.7 259q-.4-3-.4-6 7.8-4.1 15.4-8.8.8-.3 1.2.2c-.3 1.4-14.1 12.8-16.2 14.6Zm-3 19q0-2.5 1-4.9 6.9-3.4 13.3-7.6 1-.5 1.8 0c0 1.2-2.6 1.7-3.3 2.5q-6.2 5.2-12.8 10Zm64-9.8c-.5 1.4-.5 6.3-1.6 6.9a475 475 0 0 0-23.1 13.4q-1 .6-1.9 0 .2-.7.8-1zm106 11.9q.9 0 1.3-.7-.9-.3-1.3.7Zm-112.4 10q-.5 3-1.9 5.6-.8-.3-1.5 0-9.4 5.4-18.7 11-.5 0-.9-.3 10.7-7.5 21-15.5zM211.1 316q1-4 2.7-7.7 1.2-.2 2.2-.8 10.2-5.6 20-11.9 1-.4 1.7 0 0 .7-.6 1-3 1.5-5.5 3.5zm215.7 28q.8 0 1.1-.7-.8-.3-1 .7Zm-237.4 1 .8-.2q-2 9.1-3.5 18.3-1.2.4-1.5 1.7-1.6-.1-2.2 1.1c-1.7 0-4 1.6-5 3-1.7.1-4.3 1.5-5 3a4 4 0 0 0-2 .4l-21.3 12.4-1 .4-1 .6q-.7.8-1.8 1.2-.7.2-1.3.7l-.6.5-1.2.6Q141 390 139 391l-1.3.8-2 1.2-5 2.8-.6.6-1.3.7-5 2.7-5 3-.9.5-1 .7-7 4-5.1 2.8-.7.6-1.4.6-3 1.7-.6.4-1.3.7-5.7 3.4-1.4.8-5 2.8-.7.6q-.6.1-1.2.7l-5 2.7-.8.5-1.2.7a171 171 0 0 0-10.6 6.2l-1.4.8-5 2.9-.7.3-1.3.8-5 2.9a39 39 0 0 0-5.6 3.5q-.8 0-1.4.6-3 1.3-5.5 3.4-.8 0-1.5.7l-5 2.8a2 2 0 0 1-1.6 1.2q1.5-7.4 4.7-14l1.1-.3q.8 0 1.4-.6.8-.6 1.8-1l1.2-.8q2-1 3.4-2.5.9-.2 1.6-.8a60 60 0 0 0 6.7-4l1.2-.7q2-1.2 3.6-2.5.8 0 1.5-.7l1.8-1 1.2-.8q1.9-1 3.5-2.6l1.5-.6q1.9-1 3.5-2.3l1.5-.7q.8-.6 1.7-1l1.3-.8q2-1 3.4-2.6.9-.1 1.6-.6l1.8-1 1.2-.8 5-3 3.5-2.5q.8-.2 1.4-.8l3.1-1.7q2-1 3.4-2.6a2 2 0 0 0 1.6-.7l3-1.7a19 19 0 0 1 4-2.3q.7-.3 1-.9 2-.9 3.5-2.4l1.5-.6 1.8-1 1.2-.8q2-1 3.4-2.7.9 0 1.6-.6l3-1.7 5-3q1.8-1.1 3.4-2.5.9-.2 1.5-.7l1.9-1 1.2-.8q2-1 3.4-2.6.9-.1 1.5-.7l1.9-1 1.2-.7 5-3 1.8-1.2 1.2-.8 2-1.3 3-1.7q2-1.4 4-2.4l1-.8 3-1.8.7-.6q.8-.2 1.4-.6l1.6-1 1.3-.8 1.8-1.2 1.2-.8.6-.6 1.4-.6 1.8-1 1.2-.8q1.8-1.4 3.7-2.3l3-2q.9-.3 1.3-1Zm69.7 13.7.1 2.3c-3-.1-5.7 4.7-8 3.4 0-1 5-3.7 5.8-4.8zm-62.1 21a11 11 0 0 1-.3-3.9 152 152 0 0 0 16.2-9.3q1-.5 2 0-.2.7-.8 1c-6 3.2-11.2 8.5-17.1 12.2Zm63.4-7.1 2.6 5a172 172 0 0 0-19 11q-1 .3-1.6-.3zm-59.8 21q-.8-1.6-1.4-3.6l16.5-10q.8-.4 1.2.3c0 1.4-2.5 1.8-3.3 2.7zM185.8 382c1 13.5 4.5 24.3 14.3 34-7.3 2.9-16.5 9.8-24 13.3q-1.2-.3-2.1.1l-15 9-3.7 2-30 17.2a9 9 0 0 0-2.1 1.7c-9-2-30 10.2-39.2 13.4v-.4q.8-1.2 2-1.9l26.6-16.2q1-.4 1-1.4 2.3-.4 4.4-1.8 2.4-1.6 5-3 7.6-4.8 15.4-9.3 1-.6 1.7-1.7a6 6 0 0 0 4.8-3c1.6.3 6.5-2.7 7-4q2.2-.2 3.1-2a2 2 0 0 0 2-.7c-.6-1-1.8 0-2 .7q-2.1 0-3 2c-1.3-.3-6.2 2.7-7 4-1.7.2-4.3 1.3-5 3q-1 0-2 .4l-16.2 9.4q-2.6 1.5-5 3.2l-3.8 2q-23.6 13.5-47 27.2c-.6.3-2.2.5-1.8 1.4-3.7 1.4-15.6 2.2-18.4-.4q1.2-.1 2.2-.7l66.9-40.9c2.2-1 9.3-4.4 10-6.7 2 .3 4.1-1.2 5.1-2.9q1.4.3 2-1 2.1 0 3-2a2 2 0 0 0 2-1c1.5-.2 4.6-1.6 5-3q3-.5 5-3a2 2 0 0 0 1.9-.7c-.6-.9-1.7 0-1.8.7-2-.2-4 1.6-5.2 3-2-.2-4 1.2-4.8 3q-1.5-.2-2.2 1a3 3 0 0 0-2.9 2q-1.4-.2-2 1a7 7 0 0 0-5 3c-2.4 0-7.2 3.9-9.7 4.8q-.9.5-1.3 1.4-1-.1-1.7.4l-15 8.7v.1l-53 30.5q-.8.5-1.3 1.4a21 21 0 0 1-7.4-6.4 12 12 0 0 0 3.1-2.1l1.6-.7 1.8-1 1.2-.8a42 42 0 0 1 5-3q2-1.1 3.6-2.6.8 0 1.5-.6 2-.9 3.4-2.4.8-.1 1.5-.7l3-1.7 5-3 3.5-2.5 1.5-.7q1.9-.9 3.5-2.4l1.6-.7 1.7-1 1.2-.7 5-3L86 442q.8-.3 1.2-.8l.6-.6q.8 0 1.5-.6l1.7-1 1.2-.8 5-3q1.8-1.4 3.9-2.3l1.1-1 3-1.7.5-.6 1.5-.6 1.8-1 1.2-.8 5-3q1.9-1 3.5-2.6.9 0 1.6-.7l1.7-1q.6-.2 1.2-.7l.6-.6q.8 0 1.3-.7l3.1-1.7q1.8-1.4 3.7-2.3l1.3-.7 4.9-3.2q.9-.7 1.9-1l1.2-.8 1-.4 1-.8 1.9-1q1.4-.7.2-1.5l-.7-.8q2.4-.5 4.5-2 .3 1 1.3 1l16-9.9q.4-.3.5-.8c1.4-.2 4.8-1.5 4.9-3.2 1.6 0 4.5-1.3 5-2.9 1.5-.2 4.9-1.4 5-3.1.3-1.6 2.8-.7 4-.9Zm84.3 1.9q1 0 2 .4l-.2 1.4-1.1 1.2q-2.2.1-2.8 2a2 2 0 0 0-2.1 1l-1.6.2c-.1-1.1 4.8-5.2 5.8-6.2Zm-60 22.4a19 19 0 0 1-4.4-4.5l23.3-14.1q.9-.7 1.8-.1a663 663 0 0 1-20.8 18.7Zm97.1-11.4a8 8 0 0 1 1 3.8c-2.7.3-4.9 2.5-7.1 3.7q-1 .4-1.7 0l6.1-6.4zm154.6 3c.8 3-1.6 4.6-3.6 6.5l-.8-.5c.8-1.6 3-5.1 4.4-6Zm-191.7 22.8a61 61 0 0 1-14.2 1.2q.1-.5.5-.8 13.1-7.4 26-15.3c.6-.2 1.7-1 2.2-.2zm-30.3 0-3-.8q.3-.6.7-.9 3.7-1.7 7-4.1 1-.7 2.4-.4-3.8 3-7 6.2Zm201.1 3.6.4 1.8-6.2 5.4q-.6.3-1.3.2a8 8 0 0 1 1.3-2.2q2.6-2.4 4.9-5 .4-.3 1-.2Z"/><path fill="#24b0e2" fill-opacity=".5" stroke="#24b0e2" stroke-opacity=".5" stroke-width=".5" d="M445 305.9c-.2 1.2-4 4-5 2.8a10 10 0 0 1 5-2.8Z"/><path fill="#23b2e2" fill-opacity=".2" stroke="#23b2e2" stroke-opacity=".2" stroke-width=".5" d="M364.2 283c-1.2 1.6-3.1 3-5.1 3q1.8-2.8 5-3Z"/><path fill="#24afe3" fill-opacity=".4" stroke="#24afe3" stroke-opacity=".4" stroke-width=".5" d="M80 198q-.7 1.2-2 1 .6-1.3 2-1Z"/><path fill="#5ebadb" d="M197.2 365q0-1.6.6-2.8 2-.4 3.8-1.2l.3.3q-2.1 2.1-4.7 3.7"/><path fill="#31b5e4" fill-opacity=".9" d="M206.2 334.9q-.3-.9-1.3-.7-.1-1.7 1-3.2a211 211 0 0 0 15-8.8q1.5-1 3-.7a134 134 0 0 1-12 9l-2.2.8q-1.2 2.3-3.5 3.6"/><path fill="#23b0e2" stroke="#23b0e2" stroke-width=".5" d="M362.8 36.8c5.2 1.8 12.8 6.3 18 8.9q1 .4 1 1.5c-1-.1-2.8.4-2.8 1.7a2 2 0 0 0-1.9.8c.6 1 1.9 0 2-.8.8 0 3.4-.2 2.7-1.7 2.3-.4 7.4 4 9.5 5.1a8314 8314 0 0 0-76 47 46 46 0 0 0-29.2-18c1.4-1.3 7.9-2.2 10-5.3a49 49 0 0 0 10.5-6q4.8-2 9.2-4.9c.6-.9-.4-1-1-1.4q3.2-1.5 6.2-3.6c-.7 1.7 1.6 1.3 2.3.6L362 38.4q.9-.7.8-1.6Zm53 35.1c2.1.5 6.1 5.2 7.5 7q-1.2 0-2.3.5l-77.1 47.3-10 6q-.7.5-.6 1.4c-3.3 2.6-10 4.2-13.5 8.2q-1.5.8-3.1.3 3-7.7 4.4-15.9 1 0 2-.6l1.2-.8.8-.5 1.2-.8a73 73 0 0 0 8.8-5q.6-.2 1.3-.7l.9-.4q.6-.3 1-.9l5-2.7.7-.5q.8 0 1.3-.7l5-2.8.8-.6 1.2-.6 5-2.8q2.9-1.5 5.4-3.5 1 0 1.7-.8l5-2.7.7-.5 1.1-.8 5.1-2.7.6-.6q.8 0 1.5-.6l5-2.8 5.5-3.5q.8-.2 1.3-.6l3.9-2.1 1.2-.8.8-.6q.6 0 1.2-.6l5-2.8.6-.6q.9 0 1.4-.7l5-2.7c1.5-1.2 4.4-2.1 5.4-3.7q1 .2 1.1-.7Zm55 75.9c1 2.4 3.2 5.8 3.1 8.4q-.8 0-1.5.6L451 169.7a2 2 0 0 0-1 1.2c-1.7.1-4.4 1.5-5 3.2-1.4-.4-4.7 1.5-5 2.8a2 2 0 0 0-2 1c-1.4.4-4.5 1.7-5 3.1q-2.4-.3-3 2-1.4-.3-2 1c-1.9 0-3.8 1.5-5 2.7.7 1.3 4.7-1.7 5-2.8.7.1 2 .2 2-.9q2-.3 3-2c1.4.2 4.4-1.8 5-3q1.4.3 2-1c1.3-.3 4.6-1.3 5-3a7 7 0 0 0 5-3q1 0 2-.4a531 531 0 0 1 21.8-12.5q.6-.5.9-1.4 3.6 9 6.5 18.3l-1.5 1-1.7 1-1.3.7q-1.9 1-3.4 2.5-1 0-1.7.7l-1.7 1-1.2.8q-2 1.4-4 2.4l-1 .8q-2 .9-3.5 2.4-.9 0-1.6.7l-1.6 1-1.3.7a19 19 0 0 0-3.4 2.5q-.8.2-1.5.7l-3.1 1.8-5 3q-1.8 1-3.5 2.6-.8 0-1.5.7l-1.8 1-1.2.7q-2 1-3.4 2.5-1 .2-1.7.8l-3 1.7-.5.5-1.5.7-1.6 1.1-1.3.7q-2 1.2-3.6 2.6-.8.2-1.4.7l-3 1.7a22 22 0 0 1-4 2.3l-1 1a13 13 0 0 0-3.5 2.2l-1.5.8-1.7 1-1.3.7q-1.8 1.1-3.5 2.5-.8.2-1.4.8l-3.1 1.7q-2 1.4-4 2.3l-1 1q-2 .9-3.5 2.2-.8.2-1.5.8l-1.7 1-4.8 3.3-1.5.6-3 1.8a67 67 0 0 1-6.8 4.2l-1.9 1.4q-.8 0-1.3.6l-1.8 1-1.2.8-3 2-.7.5q-.8.3-1.3.7l-1.8 1-1.2.8-.7.5-1.4.7-2.9 1.8-1.8 1.2-1.3.8-.7.6-1.2.6-3 1.8q-2 1.4-4 2.3l-1 1-3 1.7-.8.5-3 1.8-5 3.3q-.6 0-1.1.5L296 289.7q-1.5.5-3 1.3c4.6-15.5 9.2-30.6 9.2-47q2-.9 4-1.3l2.6-2.4c7.6-1.8 10.8-8 18.1-10.6q1 .4 2.1 0l16.2-9.5q1.8-1.2 3.8-2.2.8-.3 1.3-.7l2-1.1q.8-.7 1.8-1.2l1.2-.6.7-.3 1.3-.8 5-3 .7-.6a46 46 0 0 0 6.3-3.4l.8-.5 1.3-.8 5-2.7.6-.6 1.3-.6 5-2.8a47 47 0 0 1 5.8-3.5q.8-.2 1.1-.8a26 26 0 0 0 5.1-2.7l.7-.6q.8-.2 1.4-.6l5-2.8.7-.4 1.2-.9 3.9-2 1.1-.9 5-2.8.7-.5q.9-.2 1.4-.8l5-2.7.6-.5q.8-.3 1.3-.7a36 36 0 0 1 5-2.8l.7-.5 1.3-.8q2-.9 3.6-2.2.9 0 1.4-.8a31 31 0 0 0 5-2.7l.8-.6q.8 0 1.3-.7l5-2.7.6-.5 1.3-.7 5-2.8q3-1.6 5.4-3.7 1 .1 1.5-.6a33 33 0 0 0 7-4q1.3-.5 2.5-1.2Zm2.1 21.1c-1.5.2-4.4 1.5-4.8 3.2a6 6 0 0 0-5.1 2.8q-1.5 0-2 1.1c-1.1.2-3 .5-3 2q-1.3-.3-2 .7c.6.9 1.8 0 2-.7 1-.2 3.4-.3 3-2q1.5.3 2-1 3-.6 5-3c1.8-.2 4.3-1.3 5-3 1.2.2 4.1-1 4.1-2.4-1-1-3.5 1.5-4.2 2.3ZM205 294.1q0 2-.6 3.8a755 755 0 0 0-13.7 45.5c-.9-1-3.7 1.3-4.8 1.6l-1.2.7-.7.5-1.4.8-3 1.6-.6.4-1.2.8-.8.5q-.8 0-1.3.7l-3 1.7-.8.5-1.3.8-5 2.7-.6.4-1.3.8-5 2.8-.7.5-1.3.7-3 1.7-.7.4-6.4 3.7-.8.6-1 .7a34 34 0 0 0-5.1 2.7l-.7.6-1.4.6-5 2.8-.6.5q-.8.3-1.3.7a215 215 0 0 0-12 7l-5 2.8-.8.6q-.6 0-1.2.6l-4 2.2-1 .9-6 3-1 1-5 2.7-.8.5-1.3.7-5 2.8-.5.6-1.4.6-3.7 2-1.3.8q-2.9 1.5-5.5 3.6l-1.5.6-5 2.8-.7.5q-.8.3-1.3.7l-5 2.8-7 4q-2.9 1.5-5.5 3.5l-1.5.8a39 39 0 0 0-6 3.2c4.3-9.4 8.4-18.4 11.5-28.3q5-2.5 9.8-5.6.8-.3 1-1.3a7 7 0 0 0 5-3q3.1-.4 5-3 3.2-.5 5-3a2 2 0 0 0 2-1c1.4-.2 4.4-1.6 5-3q3-.6 5-3c1.8 0 3.8-1.5 5-2.7-.8-1.2-4.9 1.8-5 2.7a6 6 0 0 0-5 3c-1.4-.3-4.5 1.7-5 3q-1.5-.2-2 1c-1.7.2-4.4 1.4-5 3a7 7 0 0 0-5 3 6 6 0 0 0-5 3c-2.1-.3-5.9 2.8-7.8 3.8q-1.5.8-3 1.3 0-5.1-.5-10.2l1.2-.1q.8-.2 1.4-.7l1.9-1.2 1.2-.8a12 12 0 0 0 3.3-2.4q1 0 1.6-.7l1.8-1 1.2-.7a17 17 0 0 0 3.5-2.6q.8 0 1.5-.7l3-1.7a39 39 0 0 1 5-3l3.6-2.6q.8 0 1.4-.7l3-1.7q1.9-1.4 3.9-2.4l1.1-.9q2-.8 3.4-2.3 1 0 1.7-.6t1.6-1l1.3-.8q1.9-1 3.5-2.6.8 0 1.5-.6l1.8-1 1.2-.8q1.9-1.3 3.9-2.3l1.1-1q2-.8 3.5-2.3.8-.1 1.5-.7l1.8-1 1.2-.7q2-1.1 3.4-2.5.9-.2 1.6-.8l3-1.7.7-.5q.8-.2 1.3-.8l6-3.7.8-.4 3-1.8 1.2-.8 5-3q.8-.7 1.8-1.2l1.2-.8.7-.5 1.3-.7 3-1.8 1.8-1.2 1.2-.8.7-.6q.8 0 1.3-.6l1.8-1 1.2-.8q1.7-1.4 3.7-2.3l1.3-.7q.8-.9 1.8-1.3l1.3-.7.8-.5 1-.7 2.1-1.4q9.5-5.5 18.7-11.3.9-.4.7-1.5c1.5-1.4 8-6 10.3-5.8ZM185.2 365l1.1.2a237 237 0 0 0-.5 16.9c-1.1.2-3.6-.7-4 .9-1.5.1-4.4 1.7-4.8 3.1-1.8 0-4 1.5-5.1 2.9-1.8.2-4.3 1.5-5 3.2q-1-.1-2 .2l-14.6 8.5q-.8.3-1.1 1-2.1 1.5-4.5 2l-.8.7-1 .7-1.2.6q-1.6 1.5-3.7 2.3l-1.2.7-.9.4q-.7.2-1.3.8l-1.7 1-1.3.6-.6.4-1.3.7-5 3-.9.5-1.1.7a67 67 0 0 0-7 4.1l-5 2.7-5 3-.7.6q-.8.1-1.4.7l-5 2.7-.6.6-1.4.6-3.6 2-1.3.7-5 3-1 .4-1 .9-5 2.7-.8.6q-.7.1-1.2.6a37 37 0 0 0-5 3l-.7.4q-.7.1-1.3.6l-5 2.9-.8.5q-.6.2-1.1.6l-4 2.2-1 .8-5.2 2.8-.7.6q-.7 0-1.2.6l-5 2.9-.7.5q-.8 0-1.3.6L41 464l-1.3.7q-2.9 1.5-5.5 3.5L33 468c-1-1.4-2.4-7.6-.8-8.8l.9-.6.9-.8q.8-.2 1.3-.8l3-1.7q2-1 3.5-2.6a2 2 0 0 0 1.5-.7q2-.9 3.5-2.2.9-.2 1.5-.8l1.8-1 1.2-.7a39 39 0 0 1 5-3 22 22 0 0 0 3.5-2.5q.8-.3 1.5-.8l3-1.7.7-.5q.8-.2 1.3-.8l3-1.7 5-3q1.8-1.2 3.5-2.6.9 0 1.5-.6l1.8-1 1.2-.8L86 426l1.3-.7a15 15 0 0 0 3.4-2.6 3 3 0 0 0 1.6-.7l3-1.7.7-.5 1.3-.8 3-1.7q1.8-1.4 3.9-2.3l1-1 3.1-1.7.7-.5 1.3-.7 3-1.8a42 42 0 0 1 5-3l3.6-2.5 1.5-.7 3-1.8.6-.5 1.3-.8 1.8-1 1.2-.7q2-1.4 4-2.4l1-.9 3-1.7.9-.6q.6-.2 1.2-.7l1.7-1 1.2-.7q1.7-1.4 3.7-2.3.8-.3 1.3-.7l3.6-2.6q.8 0 1.4-.5.8-.9 2-1.3 7.4-4.8 15-9.1 1.2-.6 1.7-1.8c1.7 0 4.3-1.4 5-3 1.8.1 4-1.4 5-3q1.5.3 2.2-1.1ZM63 405q-2.2-.2-3 1.8-1.3 0-2 1.1c-1.3-.3-4.9 1.6-5 3a2 2 0 0 0-1.9.7c.6.9 1.9.1 2-.7 1.5-.2 4.3-1.4 5-3q1.3.2 2-1 1.8-.1 3-1.9 1 0 1.8-.8c-.6-.9-1.7 0-1.9.8Zm137 11q4.4 3.9 9.2 6.8l-2.2.8-71.6 41.3a2 2 0 0 0-1.1 1.3c-3.3-1-7.1-3.6-9.5-6 2.9.3 26.9-16.2 31.5-18.3l18-11 1.7-1.5c7.6-3.5 16.8-10.4 24-13.4Z"/><path fill="#23b0e2" fill-opacity=".6" stroke="#23b0e2" stroke-opacity=".6" stroke-width=".5" d="M91 377c.1-1 4.3-4 5-2.7-1.2 1.2-3.2 2.7-5 2.7Z"/><path fill="#23b1e3" fill-opacity=".3" d="M381 119q-.3 1-1.3.7zm-56.7 6.3-1.2.8q0-1 1.2-.8m77.6 57.6q-.2 1-1.2.8zm38.4 24.4-1.2.7q0-1.1 1.2-.7m18 22-1.2.7q.2-1 1.2-.7m-42.4 4.6q0 1-1.2.8zm-309 9q0 1.2-1.2.8zm-7.6 8.4-1.2.8q.1-1 1.2-.8m-37 23-1.2.8q.1-1 1.2-.8m404 7-1.2.7q0-1.1 1.2-.7m-441 16-1.2.8q0-1.1 1.2-.8m18 20-1.2.8q0-1.1 1.2-.8m400.8 2.7a8 8 0 0 1-5 3c.7-1.7 3-3.1 5-3m1.8 37q0 1-1.2.7zm-332.6 52.3-1.2.8q0-1 1.2-.8m15 7-1.2.8q.2-1 1.2-.8m-67 41-1.2.8q0-1 1.2-.8m210 23-1.2.8q0-1 1.2-.8m-55.4 5.6q0 1-1.2.8z"/><path fill="#22b0e3" fill-opacity=".2" d="m146.2 31.2-.1.6-1.3.5q.3-1 1.4-1M334.9 115q-.1 1-1.3.8zm78 1q-.1 1-1.2.8.5-.5 1.2-.8m-31.5 22.4-1.3.8q0-1.1 1.3-.7m-35 5-1.3.8q.3-1.1 1.3-.7m9 71-1.3.7q0-1.1 1.3-.7m58 25-1.3.8q.3-1.1 1.3-.7M343.9 260q0 1-1.2.8zm-224.5 10.4-1.3.8q0-1.2 1.2-.8m210 1q-.7.5-1.3.7 0-1.1 1.2-.7M87.8 286q-.1 1.1-1.3.7zm0 151q-.2 1-1.3.8zm224.4 16.4-1.2.8q.1-1 1.2-.8m26 4-1.2.8q.1-1 1.2-.8"/><path fill="#fefeff" stroke="#fefeff" stroke-width=".5" d="M278.1 90.3c3-.2 11 1.4 13 3.6L275 109.4c-.3.5-1.3 1-.5 1.6 7.1-2.6 16.2-9 22.8-13q4.2 3.1 6.7 7.9-.9.4-1.2 1.3l-4.5 3.6q-.3.6-.2 1.3a14 14 0 0 1-3 1.5q-4.4 4.1-9.1 7.8-1.7 1.4.4 1.2l20-11.5a29 29 0 0 1 2.5 11l-13.5 12.4q.4.6 1 .4 5.2-3.5 10.7-6.5.9-.5 1.8-.5a30 30 0 0 1-26 29.1q.2-.6.6-1l7.2-7.4c-.5-.7-1.6 0-2.2.2q-7 4.6-14.5 8.5-6.5-.3-11.9-4 9.6-8.2 18.7-16.7-.7-.7-1.8-.1-10.8 6.7-22 12.7-3.6-3.4-5.7-8.1 9.6-8 18.6-16.6-.4-.6-1.1-.2-9.7 6-19.8 11.6a29 29 0 0 1-2.1-12q.5 0 1-.5 5.1-5 10.4-9.7c1.2-.7 1-2.2-.5-1.4-3 2-7.5 4.8-10.8 6 .5-13.7 9.9-26.7 24.2-27.6q-.4 1-1 1.8l-4.7 4.9q.7.3 1.6 0 5-3.2 10-6a3 3 0 0 0 1.1-1.1Zm-36 111-15.2 12.1q-.6.4-.8 1.2c.6 1 1.3.3 2 0 2.5-2.4 19.6-11.1 20.2-12.4q6.7 1.4 12.9 4.4l-13.4 12.7c-1 .8-1 2.1.5 1.4L267 210c3.3.6 13.5 9.6 14.2 13l-24.9 21.4q.8.6 1.8.1c3.7-2.6 23.5-14 27.1-15.6 1.4 2.6 3.3 6.8 3 9.7-5.6 3-16.2 13-22.3 16.8q-.6.5-.8 1.2c.8 1 2-.7 3-.8q10.4-6.5 21.4-12.1c1.5 7.8-1.3 16.6-1.7 24.5l-25.9 19.2q-.6.4-.8 1.1.9.6 1.9 0a475 475 0 0 1 23.1-13.4c-.5 4.3-2.8 9.7-4.2 14q-.6.1-.6 1l-2 .8q-10.3 8-21 15.5.4.4 1 .3 9-5.6 18.6-11 .7-.3 1.5 0c-5.5 15.2-11.9 29.8-16.5 45.3l-8 5.4c-.3.3-1.5 1-.5 1.4q1.2-.7 2.7-1 2.3-1.8 5.2-3-2 7.5-3.2 15-1 .3-2 1c-1 1-5.9 3.7-6 4.7 2.4 1.4 5.2-3.5 8.1-3.4q0 5.8 1.2 11.6l-18 15.7q.7.6 1.6.3a172 172 0 0 1 19-11q3.1 3.5 7 6.2c-.9 1-5.8 5-5.7 6.2q-.9 0-1.2.9-3 3-6.1 5.4c-.3.6-1.4 1-.5 1.6l16.8-9.3q2.5-1.3 4.6-3 3.3.4 6.6.1c2.7-.4 15-6.1 16.5-2.9q-3.6 3.3-7.7 6-.5.6 0 1l7.1-4 3-1.2 3.8 10.2-1.7 1.1-6.1 6.4q.7.5 1.7 0c2.2-1.2 4.4-3.4 7-3.7 4.8 12.9-29.5 20.8-38 22q7.2-7.6 14.5-15c-.5-.8-1.6 0-2.2.1a853 853 0 0 1-26 15.3l-.5.8c-5.5.4-10.6-.7-16-1.2q3.2-3.3 7-6.2-1.3-.3-2.5.4-3.2 2.4-6.8 4.1-.6.3-.7.9-5.6-1.2-11-3.3-1.5-.3-1.6-1.8c1.9-1 2.3-1.9 3.3-3.5 3.2-.8 7.8-6.4 10.3-8.8q-.9-.5-1.8.1L219 413a23 23 0 0 1-9-6.6q10.6-9.1 20.7-18.7-.9-.6-1.8.1l-23.3 14.1q-3-3.6-5-8 6.3-5.5 12.9-10.7c.8-1 3.3-1.3 3.3-2.7q-.4-.7-1.2-.4l-16.5 10q-2-4.9-2.2-10.2c5.9-3.7 11-9 17.1-12.2q.7-.3.7-1-.9-.4-1.9 0l-5.3 3.5q-5.3 3.1-11 5.8-.2-5.4.6-11 2.6-1.5 4.7-3.6l-.3-.3q-1.8.8-3.8 1.2 1-13.5 6.3-26l2.1-1.3q2.3-1.3 3.5-3.6a7 7 0 0 0 2.3-.8 134 134 0 0 0 11.9-9q-1.5-.3-3 .7-7.4 4.8-15 8.8c.8-4.3 3.3-10.9 5.2-15l20.5-15.9q2.6-2 5.5-3.5.6-.3.6-1-.8-.4-1.7 0-9.8 6.2-20 12l-2.2.7c3.2-9.8 6.8-19.5 9.3-29.5q.7-.2.6-.8 6.6-4.8 12.8-10c.8-.8 3.3-1.3 3.3-2.5q-.8-.4-1.8 0-6.4 4.2-13.2 7.6 1.2-7 1.9-14c2.1-2 16-13.3 16.2-14.7q-.4-.6-1.2-.2-7.5 4.6-15.4 8.9c-1-6.9-3.7-12-10.4-14.8q7.9-7 15-14.9c-.5-.8-1.2-.1-1.9.1l-20.7 12q-1 .6-1.4 1.6c-6.7.6-12.8 2.4-19.4 3.8q-2.5 0-3.7-2a197 197 0 0 1 14.9-12.2q-.7-.7-1.7-.4-6.3 4.5-13 8-1 .6-2 .7c-1.5-4.3-4.7-8.1-4-13 1-.3 3-3.4.9-3.1.9-6.5 13.5-8.7 18.4-11.2-1.3 3.6-5.8 9.4-8 12.8.6.9 4.4-1.9 5.4-2.2 4.3-2.8 27.3-15.3 29.3-17.4q9-1.5 18 .3Z"/><path fill="none" d="M67.8 179q1.4-.3 1.3 1c-1.2.4-3.1 2.2-4.4 1.7l-.7-.7zm18 93.9q1 0 1.3 1.1-2 1.3-4.3 1.9l-.8-.9zm29 14q1.1 0 1.3 1.1-2 1-3.7 2.3l-1-.7-.4-.2a15 15 0 0 1 3.8-2.4m2 163q1 0 1.2 1-2 1.3-4.4 1.8l-.6-.8z"/><path fill="#255a6e" fill-opacity=".4" stroke="#255a6e" stroke-opacity=".4" stroke-width=".5" d="M66 479.2v1.2q-.8.3-1.8.2c-.4-1 1.2-1.1 1.8-1.4Z"/><path fill="#263333" fill-opacity=".1" stroke="#263333" stroke-opacity=".1" stroke-width=".5" d="m458.7 386.4 1.5-.3-.7 1.1z"/><path fill="#26657b" fill-opacity=".4" stroke="#26657b" stroke-opacity=".4" stroke-width=".5" d="M66.8 103.2a1 1 0 0 1-.8.7q.2-.7.8-.7Z"/><path fill="#26414b" fill-opacity=".4" stroke="#26414b" stroke-opacity=".4" stroke-width=".5" d="M461 385q-.3.7-.8 1.1 0-.8.7-1Z"/><path fill="#243b45" fill-opacity=".4" stroke="#243b45" stroke-opacity=".4" stroke-width=".5" d="M477 356.3q-.3.5-.7.7 0-.8.6-.7Z"/><path fill="#236881" fill-opacity=".4" d="M134.3 38q-.3 1-1.4 1.1.3-1 1.4-1.2"/><path fill="#25647b" fill-opacity=".6" d="M136.2 37q-.3 1-1.2 1.1 0-1 1.2-1.2"/><path fill="#244b57" fill-opacity=".4" d="M357 486q0 1-1.2.8.4-.7 1.3-.9"/><path fill="#195d75" fill-opacity=".2" stroke="#195d75" stroke-opacity=".2" stroke-width=".5" d="M205 334.2q.9-.2 1.2.7l-2.1 1.3c0-.6-.1-2 .8-2Z"/></svg>