<svg xmlns="http://www.w3.org/2000/svg" style="shape-rendering:geometricPrecision;text-rendering:geometricPrecision;image-rendering:optimizeQuality;fill-rule:evenodd;clip-rule:evenodd" viewBox="0 0 512 512"><path fill="#656e79" fill-opacity=".9" stroke="#656e79" stroke-opacity=".9" stroke-width=".5" d="M282.5 28c-1.2 1.5 1.4 2.4 2.5 2.5l-5.2 7.6q-7 .4-13.7-.2c1-2.1 5.1-3 7-4.3q3.3-2.3 6.6-4.3z"/><path fill="#369c98" fill-opacity=".1" stroke="#369c98" stroke-opacity=".1" stroke-width=".5" d="M284.2 381.7c-.6 3.5-5.6 3.4-7.2 6q-2 .6-3.9 0l8.9-5.2z"/><path fill="#42a09c" fill-opacity=".1" stroke="#42a09c" stroke-opacity=".1" stroke-width=".5" d="m317.8 202.2-.1 1.6c-1.8 1.2-7.7 5.3-9.6 5 .7-1.7 7.8-5.9 9.7-6.6Z"/><path fill="#4fc1bb" fill-opacity=".4" stroke="#4fc1bb" stroke-opacity=".4" stroke-width=".5" d="M293 205c0 .7-1.3 1.7-2 .7a2 2 0 0 1 2-.8Zm-74 39q.5-1 1.5-1.1c1.1.7-1 1.3-1.4 1.1Zm-22.8 16-1 1q0-1 1-1Zm85 17.9c-.4.8-2.2 3-3 1.8a4 4 0 0 1 3-1.8Zm-58.4 74.3c.7-1.3 3.4-3.4 4.7-3.3 1.1 1-3.6 3.5-4.7 3.3Z"/><path fill="#42c9c4" fill-opacity=".2" stroke="#42c9c4" stroke-opacity=".2" stroke-width=".5" d="M206 266q-.3.9-1 1.4l-7 4.6q-.2-1-1.3-1.1c2.3-1.4 6.8-4.6 9.2-5Z"/><path fill="#42a099" stroke="#42a099" stroke-width=".5" d="m284 397.3-.3.8q-3.8 4-7.4 8.4.4.4 1 .1l13.8-8q1-.6 1.1-1.5c1.2.7-.5 10.3-.8 11.9-2.7 11.4-11.3 16.1-22.6 14.7q2-1.3 3.1-3.3c-.6-.9-1.2 0-2 .2a20 20 0 0 0-4.6 3.2q-8.9.3-17.7.2 9.3-9.4 18-19.4-.7-.3-1.6 0l-27.7 16q-1 .4-1 1.5c-3.6-.5-7.2-3.7-9.7-6.1q3.8-3.9 8-7.4-.3-.5-.9-.3l-8.5 5a26 26 0 0 1-4.4-14.8q0-.9.9-1.3 31.6-.6 63.4 0Z"/><path fill="#3f938d" fill-opacity=".7" d="M276.3 428.9q-2.5 3.3-6 1l-.1-.3z"/><path fill="#4fc0bb" fill-opacity=".3" stroke="#4fc0bb" stroke-opacity=".3" stroke-width=".5" d="M214.3 196q0-.8-.3-1.3c.7-.6 1.8-2 2.9-1.3a7 7 0 0 1-2.6 2.5Zm34.5 156.2q.7-2 2.8-2.2c1.1 1.1-2 2-2.7 2.2Z"/><path fill="#52c2bd" fill-opacity=".3" stroke="#52c2bd" stroke-opacity=".3" stroke-width=".5" d="M241 375.1a27 27 0 0 1-5 3.9q-.1-1-1.2-1.2c1.8-.9 4.3-3.2 6.3-2.7Z"/><path fill="#50beb9" fill-opacity=".2" stroke="#50beb9" stroke-opacity=".2" stroke-width=".5" d="M301 199v1.3a9 9 0 0 1-5 2.8c.7-2 3.4-3 5-4Z"/><path fill="#868d96" fill-opacity=".2" d="m243.6 21 1.1 1.8q-1.2.3-2.4 1.2l-.2-1q.5-1.2 1.5-2"/><path fill="#e5e8ec" fill-opacity=".3" d="M273 155v-1.2c.5-.7 2-2.5 2.9-1.5q-1.1 1.7-2.8 2.7"/><path fill="#636c77" stroke="#636c77" stroke-width=".5" d="M273 47.2q.4.7 1 .2 1.3-.3 1.4 1 0 6.5-.2 12.8-1 0-1.9.6l-9 8.6c1.1 1 9.2-4.6 10.7-5.4q.5 15.3.4 30.6.2 1.5-1 2.3-18.3.1-36.8-.2c-1.6-1.9-1.1-12.6.4-14.7q5.7-5.3 11.6-10.4c-1.4-1.5-2.8 1-4 1.6l-8.4 4.9q-.6-7.3-.5-14.6-.1-8.5.2-17 .7-.6 1.6-.5 17.3 0 34.5.2Zm-3 34.9c.8-.2 3.9-1 2.6-2.2q-2 .2-2.6 2.2Z"/><path fill="#646b77" fill-opacity=".4" stroke="#646b77" stroke-opacity=".4" stroke-width=".5" d="M270 82q.5-1.9 2.6-2c1.3 1.2-1.8 1.9-2.6 2Z"/><path fill="#50c0bc" fill-opacity=".4" stroke="#50c0bc" stroke-opacity=".4" stroke-width=".5" d="m194.2 224 1 .4-1.3.7q0-.6.3-1.1ZM318 256.9l-.3 1-.8-.2q.3-.7 1.1-.8Zm-109 7.2q.3-1.3 1.6-1.3c1.2.9-1 1.4-1.6 1.3Z"/><path fill="#a9b0bb" fill-opacity=".5" d="m242.1 23 .2 1a2 2 0 0 1-1 .9q-1.1.1-.6-1z"/><path fill="#649a98" fill-opacity=".9" d="M298.2 171q-1 1-2.3 1 .8-1.2 2.3-1"/><path fill="#a8b0bb" fill-opacity=".4" stroke="#a8b0bb" stroke-opacity=".4" stroke-width=".5" d="m236.9 110.9 1-.3c.1.9.2 2.7-1.1 2.6z"/><path fill="#469e99" fill-opacity=".8" d="M305.4 177.9q-.6 1.2-2 1.3c-.6-1.2 1.3-1.3 2-1.3"/><path fill="#489e9a" fill-opacity=".3" stroke="#489e9a" stroke-opacity=".3" stroke-width=".5" d="m198.3 209-.6.7h-1a2 2 0 0 1 1.6-.7Z"/><path fill="#a9b0bb" fill-opacity=".3" stroke="#a9b0bb" stroke-opacity=".3" stroke-width=".5" d="m218.1 37.1-.2.8-1 .3q0-1 1.2-1Z"/><path fill="#aab1ba" fill-opacity=".3" stroke="#aab1ba" stroke-opacity=".3" stroke-width=".5" d="m250 13.1 1.2-.2q-.3 1-1.3 1z"/><path fill="#51bfbb" fill-opacity=".2" stroke="#51bfbb" stroke-opacity=".2" stroke-width=".5" d="M195.1 303.7q-.3.9-1.2 1.5.1-1.2 1.2-1.5Z"/><path fill="#e4e7eb" fill-opacity=".5" stroke="#e4e7eb" stroke-opacity=".5" stroke-width=".5" d="m318.2 136.9-.5 1-1-.1q.6-.9 1.4-1Z"/><path fill="#e5e5eb" fill-opacity=".2" d="m197.3 135.3-1 1q0-1 1-1"/><path fill="#e3eaea" fill-opacity=".1" d="m218.2 109.6-1 .5q0-1 1-.5"/><path fill="#a8b1ba" fill-opacity=".3" d="m198 13.1 1.1-.3q-.2.8-.8 1.2z"/><path fill="#429f99" fill-opacity=".3" stroke="#429f99" stroke-opacity=".3" stroke-width=".5" d="m284 397.3 1.2-.4q-.3 1.1-1.5 1.2z"/><path fill="#e6e6ea" fill-opacity=".2" stroke="#e6e6ea" stroke-opacity=".2" stroke-width=".5" d="m212 107.4 1.1-.5q-.2 1-1.4 1z"/><path fill="#262626" stroke="#262626" stroke-width=".5" d="m276.3 428.9-6.1.7v.3c-1.7-1.1-4.7-.5-6.7-.6q-1.2 0-1.4 1.2v71c-.3 4.1-8.4 5.3-11.5 4.4q-.7-.5-.7-1.4l-.1-73.4q.4-2.8-2-1.5-7.6-.5-15.3-.5c-19.2-1.9-24.8-15.3-25.7-32.4l-7.5-2.4c-13.2-6.1-16.2-15.2-18-28.8q.2-115.5-.1-231a34 34 0 0 1 19.4-33.5c7.4-3.5 14-3 22-3q1.3 0 1.5-1.5l-.2-48.9q-.5-.7-1.4-.6l-27-.1c-31.4-1.5-28.8-39.5 1-42.8l121 .1c12.7.7 23.2 9.8 21.3 23.3-6.6 23.7-30 19.6-49.3 19.5q-1.5 0-1.7 1.4 0 24.6.2 49 .6.8 1.5.6c28.9-1.4 42.1 10 41 39.5v227c-.7 16.4-9.6 26.7-25 31.4q-.5 6-2.2 11.8c-3.6 11.8-15.4 19.1-27 21.2ZM208.2 38q4.3.3 8.6 0l1-.2c6 0 15.2.9 20.8-.7 1 2 6.5.6 8.4 1q9.6 0 19-.3 6.9.6 13.8.2c11-.5 16.5 2 26.1-4.1-.8.8-2.7 2.9-2.2 4.1q7.8.3 15.5-.5c9.8-4.3 8.7-17.3.7-22.8a16 16 0 0 0-10.6-1.8h-30a905 905 0 0 0-28.1-.1l-1.1.2c-7.2-.5-14.7.8-21.7 0l-17.7-.2-11.6-.1-1 .3q-11.1-.5-12.2 10.5c-.3 14 11 15.4 22.3 14.5Zm29 41c-.5.9-1.2 4.4.8 4-1.6 2-2 12.7-.4 14.6q18.4.4 36.8.2 1.2-.8 1-2.3.1-15.3-.4-30.6.5-1.8.2-3.8.3-6.3.2-12.8 0-1.3-1.4-1l-1-.2q-17.3-.3-34.5-.2-.9 0-1.6.5-.3 8.5-.2 17 0 7.3.5 14.6ZM194 133.2l-.2 3.7a245 245 0 0 1 0 19l.4 10.4c.7 1.1 2.6.6 3.7.6l9.9 1.8q5.7 1.5 11.3 3.5 1.1 1 2.5 1c2.8 1.6 6.8 4 10 4.6q4.8 2.5 10.1 3.4c4.7 1.7 9.5 2 14.4 2q2 .5 3.7 0c13.8-.3 24-5.5 36-11.2q1.5 0 2.4-1 9-2.5 18.4-3.9.9 0 1.3-.7.3-14.3-.2-28.5l.5-1V130q-.7-4.8-2.1-9.6a5 5 0 0 0-2-1.9l.4-1.7a21 21 0 0 0-6.4-6.2q-3.5-3-8.1-2.6 0-.5-.5-.7l-9-.7q-2.4-.5-2.6 1.9v13.2q0 5.2.3 10.6 2.6.5 5.3.6 3.8.9 2 4.2a10 10 0 0 1-8.2 3.4l-44.4.3c-7.4-.9-20.5 1-27-1.8-.2-4.1 3.7-6 7.3-6.4q.8-.2.8-1.1c-.2-2.3.7-6.1-.8-8 1.6-2.3.6-11.8 1-15 .2-2.2-2.2-1.6-3.5-1.6-2-.7-5.4 0-7.6 0l-1 .5c-14.5 1-18.7 13.1-18.1 25.8Zm42.9-22.3-.1 2.3v.6a148 148 0 0 0 0 18.3c4.8 1 29.7.3 36.6.5q2 0 2-2 0-9.9-.5-19.7c.3-1 1-4.4-1.1-3.6q-1.3-.4-2.6-.4a661 661 0 0 0-27 .1c-3.3.2-9-2.3-7.3 3.9Zm68.5 67c-.7 0-2.6.1-2 1.3-4.1-.4-15 5.8-19.5 7.2-30.2 11-49.5 4.3-77-7.7-2.7-.8-9.8-3.2-12.3-2.7q-.7.6-.6 1.5l-.2 28.7c.3 2-.3 4.6 2.9 3.6h1q4.9 0 9.8.3c2-.1 4.7 1.3 2.6 3.5q-2 .8-1.7 2.7l-13.8.7c-1.2.8-.2 5.6-.4 7l-.3 1.1V246c.3 1.4-.5 6.2.7 6.9 4.1.4 11.9-.8 15.5.7 4.3 4.3-11.6 6-13.3 5.4-1.3-.1-3.2-.1-2.7 1.8a97 97 0 0 0 0 13q-.2 5.7 0 11.4v7.6q0 1.2 1.3 1.2c4.6.3 10.8-1 14.9 1.3q.6 1.7.9 3.5c-.8 2.7-4.8 4.5-7.3 5v-.3q-4.5-.4-8.8.2-1 .3-1.2 1.5l.1 5.5v26.9q0 1.3 1.4 1 3 .6 6.3.2l7.8.2c2.7.2.6 2.7-1 3-4.6 2.1-8.9 1.7-13.9 2.2q-.6.4-.6 1.3v11.2q-.3 5.8.1 11.7l.7 2.6c.4 2.4 2.5 8.9 5.4 9-.4 2 3.3 3.6 4.6 4.4a40 40 0 0 0 18.8 3.6q10.4.2 20.6-.3 3.3.8 6.6.3 11.2.2 22.3-.3 2 .6 4 0c34.2 1.8 41.3.1 40.9-36v-5.4a395 395 0 0 1 0-26.4 358 358 0 0 1 0-18.2v-3.5a200 200 0 0 0 0-13.1V269q.2-5.6-.3-11l.3-1.1v-16.2q0-2.9.2-5.7-.3-6 0-12.1-.5-3.5 0-6.9a177 177 0 0 0-.4-13.8q.4-5.7.1-11.5l.2-2.7-.2-11.3q0-1.2-1-1.2-6 .6-11.5 2.4ZM232.8 230q0-3.8.3-7.4c1.3-4.6 7.4-5.4 11.2-3.5 1 2.2.4 7.7.5 10.3-.5 4.2-6.8 5.4-10.2 4.4-1.8-.2-1.5-2.5-1.8-3.8Zm63.6 19.3-.1 3.5c.3 6.8-5.8 8.5-11.2 6.9q-.5-.9-1.3-1.4l.4-10.6c1.7-4.5 7.9-6 11.5-2.9q.5 2.3.7 4.5Zm-63.6 34.4-.2-.4q0-4.8.8-9.5a16 16 0 0 1 10.1-3q1 0 1.4.8v7.8q-.5 2.6-3 3-4.4 2-9.1 1.3Zm34 13.3c-.4-7 1.1-12.8 9.7-10.9 4 1 2.9 10 2.2 13.2-2 4-8.6 5.3-11.2 1.8q-.6-2-.7-4.1Zm-25.6 43c.4-2.4-.7-6 1.9-7.4 2-1.4 8.4-3.5 10.2-1.6 0 2.6 1.4 9-1.3 10.5-1.8 1.4-9 3.5-10.5 1.5zm34.1 17c.3-2.7-.8-6.5 2.1-8.1 1.8-1.6 8.7-3 10-1 1.1 8.9.4 14.1-10.2 13.3-2.2-.3-1.6-2.6-1.9-4.2Zm-51.1 56.4q.5 1.4 1.4 2.6c2.5 2.4 6 5.6 9.6 6.2 1.6 1.8 10 2 12.4 1.8q9 0 17.7-.2 1.8.4 3.5 0c11.3 1.3 19.9-3.4 22.6-14.8.3-1.6 2-11.2.8-11.8q-3.5-.4-7-.3l-1.2.4q-31.6-.7-63.3 0-.9.3-.9 1.2a26 26 0 0 0 4.4 14.9Z"/><path fill="#6dc9c5" d="M259.8 183.2q-1.8.5-3.7 0c.2-1.4 3-1.8 3.9-2.8.7-.2 1.4-1.1 2-.1z"/><path fill="#646d78" fill-opacity=".9" d="M273.8 107.3c2.1-.8 1.4 2.7 1 3.6q-.5.7-1.4 1-.6-2.5.4-4.6"/><path fill="#848c95" fill-opacity=".9" d="M244.3 107c-.4 1.2-5.3 2.6-6.3 3.6l-1.1.3c-1.7-6.2 4-3.7 7.4-3.9"/><path fill="#4fc1bb" stroke="#4fc1bb" stroke-width=".5" d="M219.4 158.2c-1.5 3.3-9 7.5-11.6 10.5l-9.9-1.8q3.4-2.4 7.1-4.2c.5.9-1 1.7-.4 2.1q5.8-3 11.4-6.2a6 6 0 0 1 3.4-.4Zm44.6.8 1 1.7c-5 6.1-17.2 13.8-23.3 20.5q-5.3-.9-10.1-3.4A403 403 0 0 1 264 159Zm-42.4 14.2q-1.5 0-2.5-1 4-2.3 7.9-5 1-.5 1.8.2zm81.8 6q-15.5 11.4-31.4 22.5a4 4 0 0 1-3 2q-.6 0-.7.7c1.6 1.3 2.7-.9 4-1.6q23-13 45.6-26.1l.2 11.3c-2.8.2-12.4 8.5-15.7 10l-1.4 1c-1.6 1.1-4.3 2.2-5 4q-2.3 0-3 2a2 2 0 0 0-2 .8c.7.9 2 0 2-.9q2-.1 3-1.8 3-.6 5-2.8 1.5-.4 3-1.3l14-8.2a99 99 0 0 1-.2 11.4c-1.9.7-9 5-9.7 6.6a8 8 0 0 0-5.2 3.1c-.9.4-2.6.6-2.9 1.7 1.4 1 2.5-.4 3-1.7 2 .2 4-1.3 5.1-3 1.8.2 7.8-4 9.6-5q.4 6 .4 12.1-1.1-.3-2.2.3l-44.3 31.9q-1.4 1.9-3.7 2.3-.7.4-.7 1.3c-1.1.3-3 .4-3.2 1.8 1.1 1.1 2.7-1 3.2-1.8l1.8-.2q24.5-14.6 49.1-28.7V235c-2.4-.6-18.3 12.5-21.7 14.3q-.2-2.3-.7-4.5c-3.6-3-9.8-1.6-11.5 2.9l-.4 10.6q-3.3 3-7.2 5-.8.6-1.4 1.5c-.7.6-2.9.4-3 1.6q.9.6 1.8.2a201 201 0 0 1 11-7c5.5 1.7 11.6 0 11.3-6.8 2.9-.5 18-10 21.7-12v11.6c-3.2.3-27.8 18.7-32.4 21.9q-.8.6-1.3 1.4c-1 .9-3.2.6-3.2 2.2a4 4 0 0 0-3 1.8c1 1.3 2.7-1 3-1.8l2-.2 33.8-20 .8.2q.4 5.5.3 11.2-1-.2-2 .4l-33.8 23.8q.5.4 1.1.3 17.4-9.8 34.7-19.9v11.4q-1 0-2 .6-4.4 3.1-9 5.9-.8.3-.8 1.2-2.3.2-3.1 2.2-.6.2-.8.5.6.1.8-.5 2.3 0 3-2.2h2q4.7-3.5 9.8-6v11.4q-.9 0-1.6.5-11.1 7.5-21.8 15.4-1.5.3-2.3 1.6c-.6.7-3 .4-2.9 1.6 1.5 1.4 2.8-.8 4-1.5q12.3-6.9 24.7-14.1v11.6l-1.6.6c-12.1 8.8-24 18.2-36.4 26.6q-1 .5-.8 1.4-2.1 0-3 1.7c.9 1 2.4-1 3-1.7q2-.6 3.7-1.7 17.7-10 35.1-20.3a395 395 0 0 0 0 26.4c-4.9 1.2-13.5 12.6-19 15.2-1.4.9-.2 1.6 1 1l18-10.7c.4 36-6.7 37.7-41 36 1.6-2.7 6.6-2.6 7.2-6.1 1 .4 3.3-.7 2.3-1.7q-1.5.3-2.3 1.7-1.2.2-2.2.8l-8.9 5.2q-11.1.4-22.3.3c.2-.7 11.8-6.8 13.6-8.1q9-7.8 18.2-15.3-.3-.4-.9-.3l-35.4 20.4c-.8.6-2.6 1.7-2 3q-10.4.4-20.7.3a190 190 0 0 1 12.4-9q2.9-1.6 5-3.9c.6-.3 4-1.3 2.5-2.2q-2.1 0-2.4 2.2c-2-.5-4.5 1.9-6.3 2.7L233 379l-10.5 6q-1 1.5-.5 3.1a40 40 0 0 1-17.2-3.7q1.2-.4 2.2-1l39.9-29.2 2-2c.6-.3 3.8-1 2.7-2.2q-2 .4-2.8 2.2-1.3 0-2.4.6l-45 26q-.9.5-1.2 1.2c-3-.1-5-6.6-5.4-9a3 3 0 0 0 2.2-.3l23.9-16.5q1.1-1 1.9-2c1.1.2 5.8-2.3 4.7-3.3-1.3 0-4 2-4.7 3.3-9.7 4.6-19.3 10.6-28.7 16.2q-.4-6 0-11.7 1 .1 1.8-.4l10-7a4 4 0 0 0 3.1-2.3q1.2 0 2.2-.3 1.9-1.7-.6-1.4-1.2.6-1.6 1.7-2.4 0-3 2.2-1.8.3-3.3 1.1-4.3 2.6-8.7 5v-9.8q0-.9.6-1.3c5-.5 9.3-.1 14-2.2 1.5-.3 3.6-2.8.9-3l-7.8-.2 27-18.6 2.2-2c.4-.4 4.5-1.2 2.7-2.2a3 3 0 0 0-2.7 2.2l-2 .1q-16.3 9.9-33 19.4-.6.3-.6 1-1.2.2-1.3-1.1V327c2.5.2 33.4-22.6 37.8-25.8.4-.5 4.3-1.3 2.8-2.3a4 4 0 0 0-2.8 2.3c-2.3-.5-3 1-4.7 2.4q-16.5 9.1-33 18.7-.2-5.8 0-11.6c1.3.1 9.2-5.5 9.8-6.8 2.5-.6 6.5-2.4 7.3-5 4.1-2.2 17-11.8 21.6-15.2q4.8.7 9.1-1.3 2.6-.5 3-3v-7.8q-.5-.8-1.4-.8a16 16 0 0 0-10.2 3q-.7 4.7-.7 9.5c-3-.3-18.8 9.9-22.4 12-4-2.3-10.3-1-14.8-1.3q-1.2 0-1.4-1.2a4 4 0 0 0 2.4-1l42.3-30.4a38 38 0 0 0 5.2-4.2c.6-.4 3.8-1 2.7-2.2a3 3 0 0 0-2.7 2.2c-1.6-.2-4.1 2-5.9 2.6l-44 25.4.2-11.4q2-.7 3.8-1.8l7-4.6q.7-.6 1-1.4c1.6.5 2-1 3-2 .5.2 2.8-.3 1.6-1.1q-1.4 0-1.6 1.2-2.1 0-3 1.9c-2.5.3-7 3.5-9.3 4.9l-2.5 1.4q-.4-5.7-.1-11.5.6 0 1.1.3l1-1.1q.6-.4.6-1c1.7.6 17.6-1.1 13.3-5.4-3.6-1.5-11.4-.3-15.5-.7-1.2-.7-.4-5.5-.7-6.9q1.2.2 2.2-.5 19-13.3 37.6-27.3 1.5-.6 3-1.6c-.6-1-2.9 1-3.7 1.1q-1.1 1.5-3 1.8l-36 20.8V228q1 .3 2-.3 10-7.5 20-14.2.9-.4.9-1.3c.6-.4 4-1 2.7-2.2a3 3 0 0 0-2.7 2.2l-1.2.2q-3.7 1.8-7.3 3.9-.3-2 1.7-2.7c2.1-2.2-.5-3.6-2.7-3.5l-9.7-.4.6-.7 14.2-12q.3-.4.2-1h1.6a7 7 0 0 0 2.5-2.6c-1-.8-2 .7-2.8 1.3l-1.2.7q-9.6 5.2-19 10.8l.2-28.7q0-.9.6-1.5c2.5-.5 9.6 1.9 12.3 2.7 27.5 12 46.8 18.6 77 7.7 4.5-1.4 15.4-7.6 19.5-7.2Zm-95 37-13.3 8.2-1-.4c.3-1.4-.7-6.2.5-7zm24.4 13.8c.3 1.3 0 3.6 1.8 3.8 3.4 1 9.7-.2 10.2-4.4 0-2.6.6-8.1-.5-10.3-3.8-2-9.9-1.1-11.2 3.5zm-13.7 14a3 3 0 0 0-3.1 2c-1.2 0-6.1 2.2-6 3.2 1.8 1.3 5.2-1.8 6-3.2q2.2 0 3-2c.6.2 2.6-.4 1.5-1.1q-1 .2-1.4 1.1Zm47.7 53q.1 2 .7 4c2.6 3.6 9.3 2.2 11.2-1.7.7-3.2 1.8-12.1-2.2-13.2-8.6-1.9-10 4-9.7 10.9Zm33 .2c.4-.1 1.7-.5.7-1q-.7.2-.7 1ZM241.2 340l.3 3c1.4 2 8.7-.1 10.5-1.5 2.7-1.5 1.3-8 1.3-10.5-1.8-1.9-8.2.3-10.2 1.6-2.6 1.3-1.5 5-1.9 7.4Zm64.6.3c.7-.2 4.2-1.2 2.8-2.3q-2.1.3-2.8 2.3ZM275.3 357c.2 1.6-.3 4 2 4.2 10.5.8 11.2-4.4 10.2-13.3-1.4-2-8.3-.6-10 1-3 1.6-1.9 5.4-2.2 8.1Z"/><path fill="#4ec1bb" fill-opacity=".4" stroke="#4ec1bb" stroke-opacity=".4" stroke-width=".5" d="M241 375.1q.4-2 2.5-2.2c1.5.9-1.8 2-2.4 2.2Z"/><path fill="#4fc1bb" fill-opacity=".4" stroke="#4fc1bb" stroke-opacity=".4" stroke-width=".5" d="M279.2 341.9c-.6.7-2.1 2.8-3 1.7a3 3 0 0 1 3-1.7Z"/><path fill="#51c0ba" fill-opacity=".3" stroke="#51c0ba" stroke-opacity=".3" stroke-width=".5" d="M305.8 340.3a3 3 0 0 1 2.8-2.3c1.4 1.1-2 2-2.8 2.3Z"/><path fill="#4fc2bb" fill-opacity=".4" stroke="#4fc2bb" stroke-opacity=".4" stroke-width=".5" d="M243.9 257.2a3 3 0 0 1 2.7-2.2c1 1.1-2.1 1.8-2.7 2.2Zm-13 61a3 3 0 0 1 2.7-2.2c1.8 1-2.3 1.8-2.7 2.2Z"/><path fill="#4fc1bb" fill-opacity=".5" stroke="#4fc1bb" stroke-opacity=".5" stroke-width=".5" d="M267.2 251.8c-.5.9-2 3-3.2 1.8.2-1.4 2-1.5 3.2-1.8Zm-35.4 49.4q.9-1.8 2.8-2.3c1.5 1-2.3 1.8-2.8 2.3ZM209.1 347q.3-1.2 1.5-1.7 2.6-.3.6 1.3-1 .5-2.1.4Z"/><path fill="#55c8b6" fill-opacity=".2" stroke="#55c8b6" stroke-opacity=".2" stroke-width=".5" d="M216 246c-.8 1.4-4.2 4.5-6 3.2-.1-1 4.8-3.3 6-3.2Z"/><path fill="#4fc1bb" fill-opacity=".5" stroke="#4fc1bb" stroke-opacity=".5" stroke-width=".5" d="M303 212c-.5 1.2-1.6 2.6-3 1.6.3-1.1 2-1.3 3-1.7Z"/><path fill="#4fc1bc" fill-opacity=".4" stroke="#4fc1bc" stroke-opacity=".4" stroke-width=".5" d="M216.9 212.2a3 3 0 0 1 2.7-2.2c1.3 1.2-2 1.8-2.7 2.2Z"/><path fill="#4fc2bb" fill-opacity=".3" stroke="#4fc2bb" stroke-opacity=".3" stroke-width=".5" d="M308.1 208.8c-1 1.7-3 3.3-5.2 3.1q2-2.5 5.2-3Zm-99 55.3c-1 1-1.5 2.4-3.2 1.8a4 4 0 0 1 3.1-1.8Zm90.7 33q0-.6.7-1c1 .6-.3 1-.7 1Z"/><path fill="#4fc1bb" fill-opacity=".3" stroke="#4fc1bb" stroke-opacity=".3" stroke-width=".5" d="M296 203q-1 1.8-3 2 .8-2.1 3-2Zm-77 41q-.8 2-3 2a3 3 0 0 1 3-2Zm87.2 48.8a3 3 0 0 1-3.1 2.2 4 4 0 0 1 3-2.2ZM209 347a4 4 0 0 1-3.2 2.2q.7-2.3 3.1-2.2Zm75 34.7q.9-1.5 2.4-1.7c1 1-1.4 2-2.3 1.7Z"/><path fill="#4fc2bc" fill-opacity=".3" stroke="#4fc2bc" stroke-opacity=".3" stroke-width=".5" d="M303 295q0 .6-.7.5z"/><path fill="#e3e8eb" stroke="#e3e8eb" stroke-width=".5" d="m212 107.4-.3.5-5.4 7.5q1.2.3 2.2-.4 4.4-2.4 8.6-5l1.1-.4c.9-.8 2.8-1.2 2.5-2.7 1.3 0 3.7-.6 3.5 1.5-.4 3.3.6 12.8-1 15.1 1.5 1.9.6 5.7.8 8q0 1-.9 1.1c-3.5.5-7.4 2.3-7.2 6.4q-2.4.2-4 1.8l-18 10.5v-14.4q1.4.4 2.3-.6l1-1q4.5-4.6 9.4-8.7-1.7-.5-2.4 1.1-5.2 2.6-10.2 5.5c-.6-12.7 3.6-24.8 18-25.8Zm88 .6q-6 4.8-12.1 9.3v-8.8q.2-2.4 2.6-1.9l9 .7q.5.2.5.7Zm8 2.7a21 21 0 0 1 6.5 6.1q0 1-.4 1.7a5 5 0 0 1 2 2q1.3 4.6 2.1 9.5c-2 0-25.4 19-27 21.7-.7.6-2.8.4-2.9 1.6q.7.7 1.7.3l26.8-15.8 1 .1q.4 14.3 0 28.5-.4.6-1.2.7-9.4 1.4-18.4 4-1.5-.3-2.3 1c-12.1 5.6-22.4 10.8-36 11l2-2.8c-.5-1-1.2-.1-2 .1-.9 1-3.6 1.4-3.8 2.8-4.9 0-9.8-.3-14.4-2 6.1-6.7 18.2-14.4 23.4-20.5 1.4-.1 7-4.2 6.6-6l1.3.3a8 8 0 0 0 2.9-2.6c-.9-1-2.4.7-3 1.3l-1.2.7c-1.8.8-6.8 3.1-7.7 4.6a403 403 0 0 0-32.4 18.8c-3.2-.5-7.2-3-10-4.6l7.2-5.8q-.8-.7-1.8-.1l-8 4.9q-5.5-2-11.2-3.5c2.6-3 10.1-7.2 11.6-10.5a62 62 0 0 0 17.6-13.4l1.3.2c1.4-1.9 4.4-1.9 4.6-4.2l44.4-.3q5 .3 8.2-3.4 1.8-3.4-2-4.2-2.7 0-5.3-.6-.4-5.3-.3-10.6c2.4.2 17.2-9.2 20.2-11ZM236.9 132a58 58 0 0 1-.2-7.1l10-5.7q.8-.4 1.1.2a53 53 0 0 1-11 12.6Zm69.3-8c-1 0-2.8.3-3 1.6 1 1.1 2.4-.9 3-1.6q2.9-.7 5-2.8 1.8-.9 0-1.3c-1.6 1-4.4 2.4-5 4Z"/><path fill="#e4e8eb" stroke="#e4e8eb" stroke-width=".5" d="M215.9 139c6.5 2.9 19.6 1 27 1.8-.2 2.3-3.2 2.4-4.6 4.2q-.4-1-1.4-.7-16.1 8.8-31.9 18.4a45 45 0 0 0-7 4.2c-1.2 0-3.1.5-3.8-.6q-.3-5.1-.3-10.4 1.1.3 2.2-.4l16.6-13.4q.4-1.1-.8-1.3 1.6-1.6 4-1.8Z"/><path fill="#e4e8eb" fill-opacity=".5" d="M306 124c-.5.8-2 2.8-3 1.7.3-1.3 2-1.5 3-1.6"/><path fill="#e4e8ea" fill-opacity=".3" d="m311 120 .1 1.3a11 11 0 0 1-5 2.8c.6-1.7 3.4-3 5-4.1"/><path fill="#a9b0bb" stroke="#a9b0bb" stroke-width=".5" d="m198 13.1.3 1Q196 17.8 194 22q0 1 1 1l14.9-8.6q.6-.6.7-1.5l17.7.1c7 .9 14.5-.4 21.7.1l-.2.8q-3 3.7-6.3 7-1 .9-1.5 2.2l-1.4.8q-.4 1.1.7 1a2 2 0 0 0 .9-1q1.2-.8 2.4-1.1l14.3-8.4q.8-.5.8-1.4h19.5q-5.1 6.4-10.7 12.3.6.7 1.5.2 9.3-5.7 18.9-11.2.6-.5.7-1.4l19.6.1-10.9 14.5.2.3q10-6 20-11.6.9-.5 1.3-1.4c8 5.5 9 18.5-.7 22.8q-7.7.9-15.5.5c-.5-1.3 1.4-3.3 2.3-4.1q.5 0 .6-.4-.6-.5-.6.4c-9.7 6.2-15.2 3.6-26.2 4.1l5.2-7.6q2.5-2.8 4.7-5.9-.9-.4-1.7.1-2.7 1.5-5.5 3.3-1.3.8-2.8 1.3l-6.6 4.3c-1.9 1.3-6 2.2-7 4.3l-19 .4c0-1 8.4-10 9.5-11.7q-.7-.3-1.6 0L240.5 35q-1.4.7-2 2.2c-5.5 1.5-14.7.7-20.6.7l.2-.8 7.3-8.2c.8-.7.8-2.1-.4-1.5-2.3 1.9-16.6 8.6-16.8 10.7-11.2.9-22.6-.4-22.3-14.6Q187 12.6 198 13.1Zm51.8 93.9q10.7-.3 21.4-.1c.1.8-5.2 3.9-5.8 5a60 60 0 0 0-6 7.6q.3.3.9.1l14.6-8.7q.5 9.8.5 19.6 0 2.3-2 2.1c-6.9-.2-31.8.5-36.6-.5a53 53 0 0 0 10.9-12.6q-.3-.6-1-.2-5 3-10 5.7v-11.2q1.5.9 2.6 0l9.4-5.4q1-.5 1.1-1.4Z"/><path fill="#aeaeb9" fill-opacity=".1" stroke="#aeaeb9" stroke-opacity=".1" stroke-width=".5" d="M306 34q0-.9.6-.4-.1.4-.7.4Z"/><path fill="none" d="M268.8 423.7q-1.7.6-3.5 0a20 20 0 0 1 4.7-3.1c.7-.3 1.3-1 2-.2a9 9 0 0 1-3.2 3.3m-72.1-152.8q1.1 0 1.3 1-1.8 1.2-3.8 1.9v-1.5zM302.4 198q.9.2 1.6 1-1.5.9-3 1.3V199zm-105.6 61q0 .6-.6 1-1 0-1 1l-1.1-.2c-.5-2 1.4-2 2.7-1.8m38 118.8q1 .2 1.3 1.2-.9.4-1.5 1-1-.2-1.6-1z"/><path fill="#34635f" fill-opacity=".7" d="M247.7 429.6q2.7-1.3 2 1.5-.8-.8-2-1.5"/></svg>