<svg xmlns="http://www.w3.org/2000/svg" style="shape-rendering:geometricPrecision;text-rendering:geometricPrecision;image-rendering:optimizeQuality;fill-rule:evenodd;clip-rule:evenodd" viewBox="0 0 512 512"><path fill="#f56a7f" fill-opacity=".9" d="M366.7 202.7q.3 1.6.1 3.3l-37 21.4-5.2 2.7q-.6-1 .4-1.7c8-4.9 17.6-13 26-16.1q2-3.7 6.2-4.6l1.9-.2q4-2.1 7.6-4.8"/><path fill="#f4697e" fill-opacity=".9" d="M363.9 169.4c1.3-.7 1.1 1.9 1.2 2.5-1.4-.4-3.5 1.3-4.9 1.8q-16.5 9.8-33 19.3c-1.6.4-1.4-1-.3-1.6 4.3-2.7 10.1-5.6 13.8-9 3.2-1 3-.7 4.9-3 3-1.9 7.2-5.7 10.7-5.8q3.6-2.6 7.6-4.2"/><path fill="#f76c82" fill-opacity=".4" d="M117 107a4 4 0 0 1-3 2q.8-2 3-2m296 6c-.7 1.5-5.4 4.2-7 4 .7-1.3 5.5-4 7-4m4 8.9c.3-.6 1.4-1.5 2-.6a2 2 0 0 1-2 .6M99 147.1a7 7 0 0 1-5.2 3q2-2.5 5.2-3m316 110.8c1-1.4 5.1-3.7 6.6-4 1.2 1.1-5.4 4.4-6.6 4m-305-1q-.5 1.3-2 1.1.6-1.2 2-1m273.9 7q-.3 1.5-1.8 1c-.2-1 1.1-1 1.8-1m13 18.2q-.2.9-1.2.9zm-3.2 2q0 1-1 .8zm10.7-.1q-.5.6-1.4.7.5-.7 1.4-.7m-50.5 26q-.1 1-1.2 1 .4-.6 1.2-1m-1.6 4q-.4.6-1.2.6.3-.7 1.2-.6m-136.4 5.3q-.3.7-1.3.7.7-.5 1.3-.7m-5.5 7.7q-.7.6-1.6.8a2 2 0 0 1 1.6-.8m-20.4 7.2q-.3.8-1.2.8.4-.5 1.2-.8m27.3 7.9-1.5.8q.5-.9 1.4-.8m69.7.9q-.6 1.2-2 1 .5-1.5 2-1m-116 2.3q-.4.9-1.4.7zm.3 6.7-1.4.8q.3-.9 1.4-.8m12.7 5.2q-.3.8-1.3.8zm8.2.8-1.3.8q.4-.8 1.3-.8m72.1 0-1.3.8q.4-.9 1.3-.7M234 373.3q-.4.9-1.4.7.6-.6 1.4-.7m24.9 5q-.3.9-1.3.7zm-50.8 10q-.4.9-1.4.7zm-22 .9a3 3 0 0 1-3 1.9 3 3 0 0 1 3-2m58.2 2-1.1.8q0-1 1.1-.8M182 403.2q-.4.7-1.3.7zm-.8 8.8-1 1q0-1 1-1m14 3.3q-.7.6-1.5.6.7-.5 1.5-.6M217 456a2 2 0 0 1-2 1q.5-1.5 2-1"/><path fill="#f76c82" fill-opacity=".3" stroke="#f76c82" stroke-opacity=".3" stroke-width=".5" d="M242 38c-.7 1.7-3.2 2.8-5 3 .8-1.7 3-3 5-3Zm-6 18.7q-.4 1.6-2.2 1.2.6-1.3 2.2-1.2Zm149 42.2c-1.1 1.4-3.3 3.3-5.2 3q2-2.4 5.2-3ZM108 258q-1 1.9-3.2 2 .9-2 3.2-2Zm280.9 3a7 7 0 0 1-5.1 3c1-1.5 3.2-3.2 5-3Zm8.3 27q-.5.7-1.4.7.5-.7 1.4-.7Zm-292.4 14q-.5 1.2-2 1 .7-1.2 2-1Zm266.4 1a2 2 0 0 1-1.6.8q.6-.7 1.6-.8Zm-185.9 40-1.1 1q0-1 1.1-1Zm5.7 10.2q-.4.9-1.4.8zm25 4.8q-.5 1.5-2 1.1.6-1.2 2-1Zm31.3 11.2-1 .9q0-1 1-.9Zm-90.9 12-1.2 1q0-1.2 1.2-1Zm58.3 3q0 1-1 .7zm32.1 1q0 1-1 .7zm-6.7 4q-.3 1-1.4.9.7-.6 1.5-.8Zm26 4.9a4 4 0 0 1-3.2 2q1-1.9 3.2-2Zm-61.8 3-1.1 1q0-1.1 1-1Zm-15.5 2q0 1.1-1 1zm20.5 15-1 1q0-1 1-1Zm-3 2-1 1q0-1 1-1Zm-3 2-1 1q0-1 1-1Z"/><path fill="#f76c81" fill-opacity=".3" stroke="#f76c81" stroke-opacity=".3" stroke-width=".5" d="M413 113a7 7 0 0 1 3.7-2.8c2 .7-2.6 3.2-3.7 2.8ZM106 290c.2.9-3.7 2.4-4.4 3.1q-1.1.8-2.6.8.3-.7 1-1.2c2.3-1 3.2-3 6-2.8Zm284.3 2q-.4.7-1 1 0-1 1-1Zm-39.6 20q0 1-1 1zm-25.6 36.8q-1 2-3.1 2.1.9-2 3.1-2.1ZM151.7 356q0 1-1 1zm114 18q0 1-1 .9zm72.3 1c-1 1.6-3 3.2-5 3q2-2.7 5-3Zm-110.7 7q-.4.6-1 1 0-1 1-1Zm-44.3 9c-.4 1.5-3.6 2.7-5 3a6 6 0 0 1 5-3Zm89 16q-1 2-3.1 2.2a3 3 0 0 1 3.1-2.1Zm-87.6 3-1.2 1q0-1 1.2-1Zm86.6 26a4 4 0 0 1-3.1 2.2q.9-1.9 3.1-2.3Z"/><path fill="#e25263" d="M207.5 217.3 206 214c3.7-.9 12.8-7 16.6-9.1q1.5-.2 1 1-8.2 5.6-16.2 11.4"/><path fill="#f76c82" fill-opacity=".4" d="M380 102a3 3 0 0 1-3 2 3 3 0 0 1 3-2M79.7 245.2q.7-.3 1 .2-.7.7-1-.2m305.5 49.9-1.3.7q.3-.9 1.3-.7M108 300q.5-1 1.6-1.2c1 .8-1.2 1.3-1.7 1.2m94 27.1q-.3.9-1.3.8zm122 2.9a4 4 0 0 1-3 1.8q.9-2 3-1.8m-95 1.1q-.3.8-1.3.7.6-.6 1.4-.7M214.4 344q-.6.6-1.5.8.5-.8 1.5-.8m-11 7q-.6.6-1.6.7.7-.6 1.6-.7m-46.4 2.1q-.2 1-1.2.8zm62.2 2.8q-1 2-3.1 2 .7-2 3-2m122.9 0c0 1-1.4 1.8-2 .8q.8-1.1 2-.7m-152.6 4.2q-.7.5-1.7.6.7-.6 1.6-.6m-11 6.9a4 4 0 0 1-1.7.7q.7-.6 1.6-.7m-35 3a2 2 0 0 1-1.5.7q.5-.7 1.4-.7m132.9.1-1.5.6q.4-.7 1.5-.6m-5.4 1q-.1 1-1.2.8zm-29.6 2q-.7.6-1.5.7.6-.7 1.5-.7m-90.3 3q-.3 1-1.3.9zm75 21.2q-.4.7-1.3.7.6-.5 1.3-.7m-27.8 3.7q-.6.6-1.5.7.6-.7 1.5-.7M175.4 416q-.7.6-1.6.9.5-1 1.6-.9m22 6q-.7.5-1.7.6.7-.6 1.7-.7m73.6 13.8c0-.8 1.4-1.5 1.9-.6q-.7.9-1.9.6"/><path fill="#d65975" fill-opacity=".2" stroke="#d65975" stroke-opacity=".2" stroke-width=".5" d="M93.8 150q0 .6-.3.9-9.5 6.2-19.2 12-.6 0-1-.2-.4-.7-.1-1.5 9.5-5 18.8-10.6a3 3 0 0 1 1.8-.5Z"/><path fill="#f76d83" fill-opacity=".3" stroke="#f76d83" stroke-opacity=".3" stroke-width=".5" d="M311.7 64q.4 1 1.6 1.2c-5.6 2.4-10.4 6.8-16.2 8.7q0-.8.9-1.3l11.9-7.1zM387 98q-.6 1.3-2 1c-.2-1.1 1.3-1.1 2-1ZM105 260q-.5 1.2-2 1 .6-1.2 2-1Zm306 13q-.3 1-1.3.7zm-23 15q-.3 1.1-1.3.7zm-20 13q-.3 1-1.3.7zm-183 36q-.3 1.1-1.3.7zm-25.7 42.3-1.2.8q0-1 1.2-.8Zm94.6 1.6q0 1.1-1.2.8zm-51 10q0 1.1-1.2.8z"/><path fill="#f76c82" fill-opacity=".5" d="M237 41c-.3 1-2 2.4-3 1.5q.9-1.8 3-1.5m-49 14c-.5.8-2 3.1-3 1.7.3-1.2 2.1-1.2 3-1.7m198 14q.4-.7 1.2-.4-.6.4-1.3.4m-9 35c-.2.6-1.3 1.7-2 .7a2 2 0 0 1 2-.8m29 13q-.9 2-3 2a3 3 0 0 1 3-2m11 4.9q-.9 2-3 2.1.7-2 3-2.1M113 255.1a4 4 0 0 1-3 1.8 3 3 0 0 1 3-1.8m310.2 10.2q-.6.6-1.6.6.7-.6 1.6-.6M366.3 306l-1.2.8q.3-.9 1.2-.8m-26 15q-.6.6-1.3.7c-.3-1 .8-.5 1.3-.6M246 366.3q-.4.7-1.3.7zm27.3 6-1 .6q0-.9 1-.7m-53.4 9.1q-.3.7-1.2.7.6-.5 1.2-.7m25 5q-.3.8-1.2.6zm-26.6 1.7q-.7.6-1.5.7.6-.7 1.5-.7m-24.3 8.3q-.4.8-1.4.6.6-.5 1.4-.6m41.3.8q-.7.5-1.6.7.7-.7 1.6-.7m-35.2 15.2q-.5.8-1.4.7.6-.6 1.4-.7"/><path fill="#ef697f" fill-opacity=".2" stroke="#ef697f" stroke-opacity=".2" stroke-width=".5" d="M103 261q-.7 1-1.6 1.8-7.6 4.4-15 9.3-.6-.9-.4-1.9c3.4-1.5 14.3-9 17-9.2Z"/><path fill="#f76c82" fill-opacity=".4" stroke="#f76c82" stroke-opacity=".4" stroke-width=".5" d="M289 39c-.7 1.5-3.3 3-5 3 .3-1.5 3.5-3 5-3ZM99 147q.4-1 1.5-1c1.1.6-1 1.2-1.5 1Zm10 141a4 4 0 0 1-3 2 3 3 0 0 1 3-2Zm133.4 38q-.7.5-1.6.7.7-.6 1.5-.7Zm43.6 37.1c.6-1.5 3.1-3 4.6-3.2 1.3 1-3.7 3.2-4.6 3.2Zm-59 14q-.3 1-1.3.9zm45 30q.3-1.3 1.5-1.2c1.3.8-1 1.3-1.5 1.2Zm-65 1.2q-.3.8-1.2.6.4-.4 1.2-.6Zm116 3.8q-.6 1.4-2 .6.9-.9 2-.6Z"/><path fill="#f06087" fill-opacity=".2" stroke="#f06087" stroke-opacity=".2" stroke-width=".5" d="M209 362q-.7 1-1.6 1.8-6.4 4.2-13.2 8.1a2 2 0 0 0-1.3-1.3l14.1-8.1q1-.5 2-.5Z"/><path fill="#ee687e" fill-opacity=".2" stroke="#ee687e" stroke-opacity=".2" stroke-width=".5" d="M122 172.3q-3.3 3-7.4 4.7a67 67 0 0 1-7.2 4.9q-.6-1-1.7-1l14.3-8.3q1-.6 2-.3Z"/><path fill="#f76c82" fill-opacity=".3" d="M294 35.9c-.7 1.8-3.3 3-5 3.1q1.8-2.5 5-3.1M190 54q-.5 1.2-2 1 .5-1.5 2-1m219.3 227.2-1.3.7q.3-1.1 1.3-.7m-175 50-1.3.7q.3-1 1.3-.7M224 334q-.1 1-1.3.8zm-14.7 13.3-1.2.8q0-1 1.2-.8M179 360q-.1 1-1.3.8zm69 5q-.3 1-1.3.8zm-98.7 1.3-1.2.8q0-1.1 1.2-.8m101 1-1.2.8q0-1 1.2-.8M273 370q-.1 1-1.3.8zm-19.7 15.3-1.2.7q0-1.1 1.2-.7m-66 23-1.2.8q.2-1 1.2-.8m28 2-1.2.7q0-1.1 1.2-.7M326 410a4 4 0 0 1-3.1 2q.8-2 3.1-2"/><path fill="#b24e60" fill-opacity=".2" stroke="#b24e60" stroke-opacity=".2" stroke-width=".5" d="m337.8 340.2 1 1.6q-1 0-2 .6c-1.6 1.7-4 3.2-6.4 3.4q-1.3 1.7-3.4 2.7-.9.4-1.9.3c1.2-2 9-6.1 11.3-8q.6-.4 1.4-.6Z"/><path fill="#e45e7e" fill-opacity=".2" stroke="#e45e7e" stroke-opacity=".2" stroke-width=".5" d="M254.7 29.2q0 1 1 1.4L244 37.5q-1 .5-2 .4.6-1 1.6-1.8z"/><path fill="#f76c82" fill-opacity=".4" d="M361 48q.3-1.2 1.6-1.1c1.3.8-1 1.3-1.5 1.1M142 75q.4-2 2.6-2c1.4.8-2 1.8-2.5 2m235.2 220.4q-.6.6-1.4.5a2 2 0 0 1 1.4-.5m1.2 3.7q-.8.3-1.3.7.3-.8 1.3-.7M103 303c-.4.7-1.2 2.1-2.1 1.5q.3-1.7 2-1.5m106 20.2q-.3.9-1.3.7zm-45 26q-.3.8-1.3.8.6-.6 1.4-.8m158 1.7c.1 1-1.4 1.8-2 .7q.7-.9 2-.7M244.3 371l-1.4.8q.4-.8 1.4-.8m-86.3 1.1q-.3 1-1.2.9.4-.5 1.2-.8m9.3 2-1.5.7q.5-.8 1.5-.7m20.6 13.8q-.5 1.2-1.8 1.2.3-1.5 1.8-1.2m45.2 5.4q-.5.6-1.4.7.6-.6 1.4-.7m-31.9 5.8-1.4.7q.5-.7 1.4-.7M188 419q-.1 1-1.2 1z"/><path fill="#f76d82" fill-opacity=".4" d="M133 112c-.4 1.6-3.8 3-5.2 3.2a7 7 0 0 1 5.2-3.2M81 255.1l1.2.2-1.3.8zm60.9-.5v1l-.6.3q0-.8.6-1.3m275 14.5q-.2 1-1.2.9zm-43.2 28q0 1-1 .8zm-137.8 30.2q-.4.8-1.2.5zm-29.6 21.8-1 .9q0-1 1-1m138.6 4.8q-.9 1.8-2.9 2 .9-1.8 2.9-2m-77.7 2.3-1 .7q0-1.1 1-.7m-86 8.8-1 1q0-1 1-1m-35 3-.9 1q0-1 1-1m19 .4a2 2 0 0 1-1.4.5q.6-.6 1.4-.5m82.2 20.7-1.2.9q0-1 1.2-.9"/><path fill="#ec6283" fill-opacity=".2" stroke="#ec6283" stroke-opacity=".2" stroke-width=".5" d="M127.8 143q0 .9-.8 1.3-6 3.5-12 7.4 0-.8-1-.6a2 2 0 0 1 1.3-1.3l11.4-6.6z"/><path fill="#f4618d" fill-opacity=".2" stroke="#f4618d" stroke-opacity=".2" stroke-width=".5" d="M330.7 78.1q.4.9 1.4 1.2-5.9 3.1-11.4 6.7-1 0-1.4-.8 5.6-3.7 11.4-7Z"/><path fill="#e06378" fill-opacity=".2" stroke="#e06378" stroke-opacity=".2" stroke-width=".5" d="m404.7 87.3.1.5c-.8 1.7-8.8 5.2-10.8 6.7a3 3 0 0 1-2 .4c1.3-2.2 8.7-5.7 11-7.5q.9-.4 1.7 0Z"/><path fill="#ec677b" fill-opacity=".2" stroke="#ec677b" stroke-opacity=".2" stroke-width=".5" d="M142 75c-1 1.6-7.8 5.6-9.7 7a2 2 0 0 0-1.4-1.4l9-5.3q1-.5 2.2-.3Z"/><path fill="#f76c82" fill-opacity=".5" stroke="#f76c82" stroke-opacity=".5" stroke-width=".5" d="M133 112q.5-1 1.6-1.7 2.5-.3.6 1.3a5 5 0 0 1-2.2.4ZM73 214c0-.8 1.3-1.7 2-.7q-1 .8-2 .8Zm342 44q-.9 2-3 2 .9-1.8 3-2Zm-32.9 7q-.9 2-3 2 .8-2 3-2ZM333 378a3 3 0 0 1-1.7 1.7q-2.4.3-.4-1.2z"/><path fill="#eb677e" fill-opacity=".2" stroke="#eb677e" stroke-opacity=".2" stroke-width=".5" d="M282 346q-.2.8-1 1.3l-8.7 5.6q-.6-.9-1.4-1.3l9-5.2q1-.4 2.1-.4Z"/><path fill="#f86b86" fill-opacity=".2" stroke="#f86b86" stroke-opacity=".2" stroke-width=".5" d="m399 254.3 1 1-9 5.2q-1 .5-2 .6c1.4-2.6 7.2-5.4 10-6.8ZM211 322q-.3 1-1.3.8z"/><path fill="#f76c82" fill-opacity=".5" stroke="#f76c82" stroke-opacity=".5" stroke-width=".5" d="M284 42q-.6 1.2-1.6 1.6-2.5.5-.6-1.2 1.1-.4 2.3-.3Zm74 8c-.3.7-1.3 1.6-1.9.7q.8-.9 2-.6Zm25 21c-.3.6-1.2 1.7-1.9.7q.7-1 1.8-.8Zm56 109v1l-1.1-.2q.3-.7 1.1-.9ZM188 388q.8-1.7 2.6-2c1.3 1.2-1.6 2.3-2.7 2Zm29 68q.5-2 2.6-2c1.4 1-1.8 2-2.5 2Z"/><path fill="#ea657b" fill-opacity=".2" stroke="#ea657b" stroke-opacity=".2" stroke-width=".5" d="M263 396a2 2 0 0 1-1 1.3q-4.4 2.7-8.7 5.6-.6-1-1.7-1l9.4-5.4q.9-.6 2-.4Z"/><path fill="#f86c82" fill-opacity=".4" d="M117 107q.4-1 1.6-1c1 .7-1.1 1.2-1.6 1m283.2 173.3q-.6.6-1.5.7.7-.6 1.4-.8M108 300a3 3 0 0 1-3 1.8 3 3 0 0 1 3-1.8m249.1 8q-.4 1-1.3.9zm2.2 2-1.2.7q.3-.9 1.2-.7M177 361.2q-.3.9-1.3.8zM153.3 383q-.7.6-1.6.8a2 2 0 0 1 1.6-.8M266 394c0-.7 1.2-1.6 1.8-.7q-.7.9-1.8.7m-27.8 1.1q-.7.6-1.6.7.7-.7 1.6-.7M175 407.3q-.3.7-1.2.7.4-.5 1.2-.7m3.3 6.8-1.5.6q.6-.6 1.5-.6m2.7 9.2-.8.9q.1-.7.8-1"/><path fill="#f86889" fill-opacity=".2" stroke="#f86889" stroke-opacity=".2" stroke-width=".5" d="M123.8 196q0 1-.7 1.4-4.5 3-9.2 5.3l-1-1 9.1-5.2q.9-.5 1.8-.4Z"/><path fill="#f76c82" stroke="#f76c82" stroke-width=".5" d="M130.5 168q-3 13.4-3.5 27c-1.4 1.4-2.8-.8-3.2 1q-.9 0-1.8.5l-9 5.3c-12.8 7.8-26.1 14.6-38.8 22.6-1.8-1.3-2.7-17.7-3-20.7a3 3 0 0 0 1.8-.4q17.1-10.8 34.4-21.4a67 67 0 0 0 7.2-5q4-1.5 7.4-4.6 4.4-1.5 7.6-4.9.6.2 1 .6ZM73 214q1 .2 2-.7c-.7-1-2 0-2 .8Z"/><path fill="#ea687b" fill-opacity=".2" stroke="#ea687b" stroke-opacity=".2" stroke-width=".5" d="M281 57.3q.3.8 1.1 1a65 65 0 0 0-9 5.3q-.9.4-1.8.4 0-.8.7-1.4z"/><path fill="#f76d82" fill-opacity=".2" d="m402.3 285.3-1.2.8q0-1 1.2-.8M231 329.9q0 1.1-1.2.8zm-7.6 8.4-1.2.8q0-1.1 1.2-.8m-25 16-1.2.8q0-1.1 1.2-.8m-35 3-1.2.8q0-1.1 1.2-.8M255 361q-.2 1-1.2.7zm-115 2q0 1.1-1.2.7zm113.4 2.3-1.2.8q0-1 1.2-.8m-93.4 5.6q-.2 1.1-1.2.8zm69 5q0 1-1.2.8zm30.4 5.4-1.2.8q0-1.1 1.2-.8m-49 12-1.2.8q0-1 1.2-.8m-20 13-1.2.8q.1-1 1.2-.8m31 0-1.2.8q0-1.1 1.2-.8m-12.4.6q0 1.1-1.2.8zm-19 11q0 1.1-1.2.8z"/><path fill="#e9657d" fill-opacity=".2" stroke="#e9657d" stroke-opacity=".2" stroke-width=".5" d="M303.1 29.7h.8q.1.8-.2 1.3c-2 1.2-7.7 5.2-9.7 4.9 1.4-2.2 6.9-4.6 9.1-6.2Z"/><path fill="#f66d84" fill-opacity=".2" d="m383.2 207.1.8-.2q-.3.8-1 1.1zM408 275q-.2 1-1.2.8zm-43 28q0 1-1.2.8zm-148.6 20.4-1.2.8q.1-1 1.2-.8m-105.2 2 .9-.3q-.3.8-.8 1.3zm126.8.6q0 1.1-1.3.8zm-46 7q0 1.1-1.2.8zm20 8q-.2 1-1.2.8zm-39 3q0 1.1-1.2.8zm13 12q0 1.1-1.2.8zm-39 3q-.2 1.1-1.2.8zm89 13q0 1.1-1.2.8zm26.4 7.4-1.2.8q0-1.1 1.2-.8M184 402q0 1.1-1.2.8zm40.4 2.4-1.2.8q.1-1 1.2-.8"/><path fill="#c75869" fill-opacity=".1" stroke="#c75869" stroke-opacity=".1" stroke-width=".5" d="M200.8 46.4q0 .9.9 1.3c-1.6 1-6.7 4.4-8.6 4.3q0-1 .8-1.4 3.4-2.4 6.9-4.2Z"/><path fill="#d7587a" fill-opacity=".2" stroke="#d7587a" stroke-opacity=".2" stroke-width=".5" d="M333.8 404.2q0 1 1 1.4c-1.8 1-6.7 4.4-8.7 4.4q0-.9.9-1.4 3.3-2.4 6.8-4.4Z"/><path fill="#f76d82" fill-opacity=".3" stroke="#f76d82" stroke-opacity=".3" stroke-width=".5" d="M243 323q-.2 1-1.2.8zm86 4a7 7 0 0 1-5 3c.4-1.4 3.5-3 5-3Zm-129.7 7.3-1.3.7q.3-1 1.3-.7Zm21 6-1.3.7q.3-1 1.3-.8ZM214 359a3 3 0 0 1-3 2q.9-2 3-2Zm7 41q-.3 1.1-1.3.7z"/><path fill="#f8658b" fill-opacity=".2" stroke="#f8658b" stroke-opacity=".2" stroke-width=".5" d="M286 363.1a26 26 0 0 1-8 5.7l-1-1.2c2-.9 6.9-4.7 9-4.5Z"/><path fill="#d35c72" fill-opacity=".2" stroke="#d35c72" stroke-opacity=".2" stroke-width=".5" d="M345.6 369.2q.1 1 1.2 1.3c-2 1-6.7 4.7-8.8 4.4.8-1.9 5.8-4.3 7.6-5.7Z"/><path fill="#e65b85" fill-opacity=".2" stroke="#e65b85" stroke-opacity=".2" stroke-width=".5" d="M337.2 321.2q-.3 1.1 1 1.3c-2.3.7-7.1 4.8-9.2 4.4 1-2 6-4.6 8.1-5.7Z"/><path fill="#f86c83" fill-opacity=".4" d="M420.2 267.2q-.6.8-1.5.7.7-.5 1.5-.7M111 287q-.8 1-2 1 .5-1.2 2-1m71.8 51.3q-.3.8-1.3.7.6-.6 1.3-.7m20 8q-.3.7-1.2.5zM157.2 361q-.6.6-1.4.7.5-.7 1.4-.7m95.8 1.2q-.3.8-1.2.8zm-115 2q-.3.9-1.3.8.6-.5 1.4-.7m114 18q-.3.9-1.3.7a2 2 0 0 1 1.3-.6m-30.7 3.8q-.7.6-1.5.8a2 2 0 0 1 1.5-.8m-20.3 6.3q-.4.8-1.2.6a2 2 0 0 1 1.2-.6m-.7 27.8-1.4.7q.4-.8 1.3-.7"/><path fill="#f96f84" fill-opacity=".2" stroke="#f96f84" stroke-opacity=".2" stroke-width=".5" d="m353.2 349-.2 1c-2 .9-6 4.2-8.1 3.9a42 42 0 0 1 6-4.5q1.1-.5 2.3-.4Z"/><path fill="#f66c81" fill-opacity=".3" stroke="#f66c81" stroke-opacity=".3" stroke-width=".5" d="M392 94.9a8 8 0 0 1-5 3.1 7 7 0 0 1 5-3.1Zm-34.7 216.4-1.2.7q0-1.1 1.2-.7Zm-127 69-1.2.8q0-1 1.2-.8ZM177 406q-.3 1-1.3.8zm41.3 2.3-1.2.8q0-1 1.2-.8ZM182.9 422q-.2.9-1.2.7z"/><path fill="#f86c82" fill-opacity=".3" stroke="#f86c82" stroke-opacity=".3" stroke-width=".5" d="m364.3 307.3-1.3.8q.3-1 1.3-.8ZM285.1 344c-1 .8-1.5 2.3-3 1.8a3 3 0 0 1 3-1.8Zm-14.9 10.1-1.2.8q0-1.2 1.2-.8Zm-100 18q-.4.5-1.2.8.3-1 1.3-.7ZM215 457q-.7 1.8-2.7 1.7c0-1.3 1.7-1.7 2.7-1.7Z"/><path fill="#c85669" fill-opacity=".1" stroke="#c85669" stroke-opacity=".1" stroke-width=".5" d="M357.7 345.3q0 .9 1 1.3-2.9 1.6-5.7 3.4l.2-1c.2-1.7 3.1-2.8 4.4-3.7Z"/><path fill="#f66b82" fill-opacity=".2" d="m256 8.2 1.1-.3q-.2 1-1.4.8zm94.3 307-1.2.9q.2-1 1.2-.8m-5.4.7q0 1.3-1.2.8zm-127 2q-.2 1-1.2.8zm19.4 11.4-1.2.8q.1-1 1.2-.8m-60 19-1.2.8q.1-1 1.2-.8m84.6 8.6q0 1.3-1.2.8zm-1 20q-.2 1-1.2.8zm-27.6 1.4-1.2.8q0-1.1 1.2-.8"/><path fill="#f86d81" fill-opacity=".3" d="M371 299q-.2 1-1.2.8zm-147.1 19q0 .9-.9 1.1.2-.8.9-1.1m121.4.4-1.3.7q.1-1.1 1.3-.7M178 341q-.3 1-1.3.7zm-3.8 9.2-1.2.8q.1-1 1.2-.8m-14 9-1.2.8q.3-1 1.2-.8M222 380q-.3 1-1.3.8zm-52 30q-.3.8-1 1.1.1-.8 1-1.1m32 1q-.1 1-1.2.8z"/><path fill="#f86d83" fill-opacity=".3" d="m383.3 296.3-1.3.7q.3-1 1.3-.7M348 313.9q0 1.1-1.2.8zm-159.6 27.4-1.2.8q.1-1 1.2-.8M159 352q-.3 1.1-1.3.7zm25.3 11.3-1.2.8q0-1.1 1.2-.8M153 375q-.3 1.1-1.3.7zm103.3 8.3-1.2.8q.1-1 1.2-.8M228 396q-.3 1-1.3.8z"/><path fill="#ec4862" fill-opacity=".1" stroke="#ec4862" stroke-opacity=".1" stroke-width=".5" d="m351 227.8.2 1.4a10 10 0 0 1-5.5 3q0-.6.6-1.2 2.4-1.4 4.7-3.2Z"/><path fill="#f86c82" fill-opacity=".4" d="M221.3 320.1q-.7.6-1.5.6.7-.6 1.5-.6m-25 16-1.5.7q.6-.9 1.6-.8m13.6 6.2q-.4.7-1.2.6.5-.5 1.3-.6m-27.6 2.7q-.7.5-1.5.7a2 2 0 0 1 1.5-.7m77.7 13.2q-.3 1-1.3.8zm-115 2.1q-.4.6-1.3.5zm116.3-.3q-.6.6-1.2.7.3-.8 1.2-.7m-20 33.1-1.6.7q.7-.7 1.6-.7"/><path fill="#ec4c81" fill-opacity=".1" stroke="#ec4c81" stroke-opacity=".1" stroke-width=".5" d="M336.7 114q1 0 1 .8a7 7 0 0 1-4.6 2c0-1.3 2.8-2.2 3.6-2.8Z"/><path fill="#f66b80" d="M337.7 114.8a4 4 0 0 1 2.7 1.9c-4.3 3.7-30.9 18.2-37.8 22.3a51 51 0 0 0-6.9 4.6l-.8-.5q-.3-1.7 1-2.6c6.1-4.7 23.4-14 27.7-18.2 3.2-1.6 6-4.4 9.5-5.6q2.7 0 4.6-2m-143.6 108 .5 1c-1 2.4-35.2 24-40.2 27.4q-.9-1.6-1.3-3.4 4-2 7.8-4.6c2.5-4.5 5.8-3.1 9-5.7 3.9-1 4.5-4.5 8.5-4.8 2.6-2.7 12-7.2 15.7-9.8"/><path fill="#f66d83" fill-opacity=".3" d="m416.3 277.3-1.3.7q.3-1.1 1.3-.7m-171 47-1.3.7q.1-1 1.2-.8M197 330q-.3.9-1.2.7zm20 8q-.2.9-1.2.7zm50 16q-.1 1-1.3.6zm-26 15q-.3 1-1.3.7z"/><path fill="#f76a84" fill-opacity=".2" d="m376.3 300.3-1.2.8q0-1.2 1.2-.8m-174 32-1.2.8q.1-1 1.2-.8M166 347.9q0 1.1-1.2.8zm7.4 22.4-1.2.8q.2-1 1.2-.8m36.6 16.6q-.2 1-1.2.8zm25 5q0 1.1-1.2.8z"/><path fill="#c15a6a" fill-opacity=".8" d="M252 0h5l.2.7q-2.7.7-5.4.1z"/><path fill="#f86b83" fill-opacity=".3" d="m213.2 325.2-1.2.8q.1-1 1.2-.8M198 349q-.3 1-1.3.8zm52.2 38.2-1.2.8q.2-1 1.2-.8M196 395q-.3 1-1.2.8zm11.2.2-1.2.8q.2-1 1.2-.8"/><path fill="#b25363" fill-opacity=".2" stroke="#b25363" stroke-opacity=".2" stroke-width=".5" d="m220 3.8-4 .4c0-2.2 3-1.3 4-.4Z"/><path fill="#f96980" fill-opacity=".2" d="M361.9 304.9q-.2 1-1.2.8zm-117 17.3q-.3 1-1.2.4zm-18.6 14q-.5.6-1.2 1 0-1.2 1.2-1M268 373q0 1.2-1.3.7z"/><path fill="#f96f84" fill-opacity=".2" stroke="#f96f84" stroke-opacity=".2" stroke-width=".5" d="M99 294a3 3 0 0 1-3 1.9v-.9q1.5-1 3-1Z"/><path fill="#f76b81" fill-opacity=".4" d="m231.4 333-1.2 1q0-1.1 1.2-1m-7.1 51-1 1q0-1 1-1m-10 20.2a2 2 0 0 1-1.6.8z"/><path fill="#f46a80" fill-opacity=".2" d="M219 337q-.2 1-1.4.6zm24 31q-.2 1-1.4.6zm25.3 7.3-1.2.8q0-1 1.2-.8"/><path fill="#f96b81" fill-opacity=".3" d="M414 271q-.1 1-1.2.8zm-242 93q-.2 1.1-1.3.7zm40.2 48.2-1.2.8q.1-1 1.2-.8"/><path fill="#f86a83" fill-opacity=".3" d="M391 286q-.3 1-1.3.7zm-187 40q-.3 1-1.3.8zm1 19q-.1 1-1.3.8z"/><path fill="#ee6a7f" fill-opacity=".5" d="M322.3 431q-.4.8-1.3 1.2l-.7-.2c-.5-1.4 1.2-1 2-1"/><path fill="#d76274" fill-opacity=".6" d="M380.8 350.8q0 1-1 1.1l-.9-.2q.6-1 1.9-1"/><path fill="#e55869" fill-opacity=".5" stroke="#e55869" stroke-opacity=".5" stroke-width=".5" d="M184 285.3q1-.3 2-.2l-.7 1q-.9-.1-1.2-.8Z"/><path fill="#c65c6d" fill-opacity=".6" d="m349.2 397-1 1.2q0-1.1 1-1.1m-1 1.2q-.3.8-1.2.6.3-.7 1.3-.6"/><path fill="#f96d80" fill-opacity=".2" d="m362.4 308.4-1.3.7q.1-1.1 1.3-.7m-103 52.9-1.3.8q0-1.1 1.2-.8"/><path fill="#f56e82" fill-opacity=".2" stroke="#f56e82" stroke-opacity=".2" stroke-width=".5" d="m434.3 235-.4.9-.8.2q0-1.2 1.2-1.1Zm-36.9 89-.7 1h-.5q.2-1 1.2-1Z"/><path fill="#e4677a" fill-opacity=".6" d="M113 73.2q0 .7-.6 1-.4-1 .6-1m-.6 1q-.7.8-1.7.8.6-.8 1.7-.8"/><path fill="#f96b83" fill-opacity=".2" d="m271.4 373.3-1.3.7q0-1.2 1.2-.7m-22.5 10.6q-.2 1.1-1.3.7z"/><path fill="#904953" fill-opacity=".2" stroke="#904953" stroke-opacity=".2" stroke-width=".5" d="M398.4 77.8q.6.8.4 2l-.6.2z"/><path fill="#272626" stroke="#272626" stroke-width=".5" d="M251.8.8q2.7.5 5.4-.1 12.7.5 25.6 1.5.5.7 1.5.6C381.5 16.5 458 99.4 452 199.5c-5.3 76.9-50.3 148.9-97 208a1041 1041 0 0 1-93.6 101.3 21 21 0 0 1-5.3 3.2h-6c-65.4-58-121.2-120.9-160.8-199.6-42.4-82.4-44-186.2 24.5-255.2A198 198 0 0 1 178.6 15q1.6 0 2.7-1 15.9-6 32.4-9.3 1 0 1.5-.8l.8.2q2 0 4-.4c10.1-1.9 21.7-3.1 31.8-3Zm-30.5 9.4q-1-.2-1 .9c-8.2 0-21.4 4.4-29.4 7.2q-1 0-2 .3c-1.7 2-7.8 2.9-10.4 4.5a182 182 0 0 0-64.7 48q-.8 1-.8 2.1-1 0-.6 1-1 0-1.7.8c-1.1 1.4-4.6 4.7-4.4 6.6A70 70 0 0 0 93 102q-1 .3-1.1 1.3a150 150 0 0 0-15.7 41q-.8 2.3-1.1 4.5c-.8 3.4-2.2 9-2 12.4q-.3.8 0 1.5c-1.8 4-1.3 8.3-2 12.6l-.1 3.3-.3 22.5.4 2.6c.3 3 1.2 19.5 3 20.7q-.6 1.2-.3 2.6a293 293 0 0 0 6 26.7q.2 1 1.2 1.4l-.2 1q.6 3 1.7 6c.7 1.9 1.7 7.2 3.4 8.1q-.2 1 .4 1.9c-.4 2 2.5 7 3 9.2l5.8 13.5q0 1 .8 1c1.7 5.5 5.6 12.2 8.1 17.5a33 33 0 0 0 2.6 4.7c.7 1.8 2.7 6.4 4.4 7.2l.1 1.1q1 2.4 2.5 4.6 2.1 4.3 4.7 8.2c.9 1.3 2 4.6 3.6 4.8 0 1.6 3.5 8.2 5 8-.3 2 2.2 4.6 3.2 6.1 1.4 2.5 3.5 6.3 5.7 8.2.4 1.4 2.5 5.3 4 5.5.5 3 3.8 6 5.3 8.6l3.5 4.8c1.2 1.3 5 7.9 6.5 8q0 1.2.9 2.1 6 8.2 13 16 1.8 3.2 4.7 5.8c1 1.5 4.7 7 6.4 7.2.2 1.7 3.1 4.7 4.6 5.6.7 1.8 4.7 5.8 6.1 7.5q1.8 2 3.7 3.7 2.9 3.9 6.5 7.2c.8 1 2.4 3.4 3.8 3.5.5 1.5 5.6 7.4 7.4 7.1-.5 1.7 5.1 6.8 6.7 7.2 0 1.2 2.4 4 3.6 3.8.7 1.8 6 6.8 7.6 7.4.2 1.3 2.3 3.2 3.6 3.6 6.3 7.2 14 13.4 21 19.8a2 2 0 0 0 2.4.1 795 795 0 0 0 56.1-58.8q4.2-4.6 7.7-9.7.9-.4 1.3-1.2l6.8-7.9c2.4-4 15.2-17.9 18-24.3q.8 0 1.2-.6l.9-1.1q1.7-2.8 4-5 1-.7.5-1.9 1-.4 1.7-1.4c3.5-5 24.2-33.3 24.4-36.9q1-.2 1-1.1 2.7-3 4-6.5c4.3-6.2 8.6-12.5 12-19.3l.6-1q1.9-2.7 3.5-5.6c2.6-5.5 7.2-12.1 9-17.7 2-2.5 4.7-7.7 5.2-10.7a84 84 0 0 0 7-16.2q.7-.3.7-1 2-4.2 3.1-8.6a137 137 0 0 0 8-28.3l.4-1q.9-1.1.7-2.7 2-6 2.2-12.5 1-3.3 1.2-6.7.6-.8.2-2 .7-5.6.6-11.3.7-4.2.5-8.5 0-5.2-.7-10.3v-1c-.1-1.3.4-6-.8-6.7q0-5.4-1.2-10.6-.3-3.3-1.3-6.4c-.4-2-1.1-8.5-2.9-9.5q.6-3-1.1-5.4a53 53 0 0 0-4.4-13.3q-5.4-14.2-13.4-27-1-2.8-2.7-5.1c-1.6-1.7-4.1-7.7-6.4-8.1v-.5c-.4-2-4-7-6-7.6q.2-1-.4-1.9c-1.1-.8-2-2.9-3.5-2.7-.5-3.3-16.6-18-19.9-21.3a7 7 0 0 0-2.6-1.6 76 76 0 0 0-16.6-12.4q-.7-1.5-2.5-1.5c-1-2-6.2-4.5-8.2-5.3q-.4-.5-1-.8a50 50 0 0 0-9.1-4.6 6 6 0 0 0-4-1.6c-1-1.7-9.2-4.8-11.3-5a2 2 0 0 0-1.3-1l-1.2.1a40 40 0 0 0-11.2-4.1q-2.4-1.2-5-1c-.3-1.4-11.3-3.1-13-3.3q-2.4-1-5.1-.8 0-.5-.6-.6c-5-.5-9.5-1.7-14.7-1.4v-.4q-5.2-.6-10.5-.6-.6 0-1.1.3c-5.4-.8-12.6-.3-18.1 0q-8.3.6-16.6 2ZM263 69.1q17 1.3 33 6.2a308 308 0 0 1 23.2 9.9q.6.8 1.5.8c8.9 6.4 17.8 12.3 25.3 20.4q1.5 1 2.6 2.5 7.2 7.5 13 16 .6.9 1.5 1 0 2 1.6 3.2a177 177 0 0 1 14 31.9q1.2 5.8 3 11.4a6 6 0 0 0 0 2.6 134 134 0 0 1 1.7 17.9L383 208q-.6 2.4-.8 4.8l-3.2 16.5c-.6 1.3-2.9 4.7 0 4.8q-1.5.5-2.4 2-4 10-9 19.7l-1 1.2c-.5 1-2 2.6-1.3 3.7q-1 .5-1.6 1.4A138 138 0 0 1 247 321.7q-.1-.5-.7-.5Q235 320 224 318c-.5-1.4-2.8-1-4-1q-.2-.7-1.1-1l-15-5a432 432 0 0 0-17-8.8q-.8-1.5-2.4-2l-10.6-7.5-1.5-1.8q-5.3-4.3-10.2-9l-.7-1c-7.8-7.5-13.2-16.6-19.6-25.1v-1.1q-.5-1.4-1.4-2.6A195 195 0 0 1 131 227a158 158 0 0 1-4-32q.6-13.7 3.5-27 4.6-17.2 13-32.8A131 131 0 0 1 263 69Zm-25 11.2q-12.3 2.1-24 6.6A116 116 0 0 0 140 194v3q0 5.1.7 10.1.2 4 1.1 8 .7 4.5 2 9a26 26 0 0 0 1.2 5q3 9.3 7.3 18.3.3.3.8.4.3 1.8 1.3 3.4a123 123 0 0 0 22.2 28.3c2.2 1.6 4.9 5 7.5 5.8q.4.6 1.2.9c-.1 1.3 3.7 2.9 4.5 4a192 192 0 0 0 16 9.2c3.2 1.4 7.5 3.8 11 4.4q1.8 1.2 4 1.7c4.3 1.3 10.1 3.7 14.5 3.5q.3 1 1.3.8A109 109 0 0 0 358.9 240l1.2-3c1.1-3.8 3.6-10.5 3.7-14.3-.1-.7 1.5-2.6.2-2.3 2.2-4.4 1.8-9.6 2.8-14.3v-3.3q0-.8.2-1.4a147 147 0 0 0-1.9-29.4c0-.6.1-3.2-1.2-2.5v-1.6c.5-2.8-1.2-7-1.9-9.8l-1.2-4c-2.1-5.5-4.4-12.5-7.8-17.3q0-.6-.3-1 0-1.8-1.6-2.5c-1.3-4.6-7.7-12.6-10.7-16.5a4 4 0 0 0-2.7-2q0-.8-1-.7c.6-2.3-5.2-6.4-6.6-8l-5-4.2q-4.2-3.3-9-6.3l-2.8-1.7A138 138 0 0 0 287 83a129 129 0 0 0-26-4q-11.6-.2-23 1.2Zm39 54.4 2.8.8a76 76 0 0 1 15 7.6l1 .5a76 76 0 0 1 14.7 14.7q7 10 10 22l.3.8a72 72 0 0 1-1.2 31.7l-1.7 4.2c-12.4 29.7-48 46-78.9 40l-4.9-1.2a69 69 0 0 1-13-5.4l-1-.6a63 63 0 0 1-25.5-26l-.5-1a73 73 0 0 1-6-22.8q0-8.7 1.7-17l.5-1.9a67 67 0 0 1 41.8-43.9q5.3-2 11-3.2a73 73 0 0 1 34 .7Zm-25 5-12 2.1a47 47 0 0 0-38.2 44.2 71 71 0 0 0 1.4 19 79 79 0 0 0 8.6 20.3q1.2 2 2.7 4a69 69 0 0 0 12.4 12.7 65 65 0 0 0 26 11.1q7.2 1.5 14-.8a57 57 0 0 0 37.5-80.4 82 82 0 0 0-5.8-10q-2.9-4-6.2-7.3-3-3-6.2-5.7-3.4-2.4-7-4.3-4.5-2.2-9.2-3.6-9-2.3-18-1.2Z"/><path fill="#f56a82" fill-opacity=".2" d="m256.3 363.3-1.2.8q0-1 1.2-.8m9 14-1.2.8q0-1 1.2-.8"/><path fill="#df6477" fill-opacity=".6" d="m93 102 1.2.4q-.9.9-2.2.9.2-1 1-1.3"/><path fill="#8a4853" fill-opacity=".6" d="M181.3 14q-1.1 1-2.7 1c.3-1 1.9-.9 2.7-1"/><path fill="#f56c83" fill-opacity=".3" d="m195.3 356.3-1.3.7q.3-1 1.3-.8"/><path fill="#ae5462" d="M221.3 10.2q-.3.6-1 .9 0-1 1-.9"/><path fill="#dc4859" fill-opacity=".4" d="M352.7 135.6q0 .6.3 1l-.7.4q-.1-.8.4-1.4"/><path fill="#a8505f" fill-opacity=".5" d="M282.8 2.2q.9-.1 1.5.6-1 0-1.5-.6"/><path fill="#f5697f" fill-opacity=".5" d="M360.3 222a2 2 0 0 1-1.5 1.1q.3-1 1.5-1"/><path fill="#c85f6d" fill-opacity=".3" stroke="#c85f6d" stroke-opacity=".3" stroke-width=".5" d="M367.7 255.8q.1 1.2-1 1.2.3-.6 1-1.2Z"/><path fill="#f76d81" fill-opacity=".6" d="M317.2 20.1h1.2q-.7.7-1.8 1z"/><path fill="#f76c82" stroke="#f76c82" stroke-width=".5" d="M237.9 8.3c5.5-.4 12.7-.9 18-.2q0 .4-.2.7-27.6 18.5-55 37.6a67 67 0 0 0-6.8 4.2q-.8.5-.8 1.4-2.4-.1-3 2-1.7-.5-2.1 1c-.9.5-2.7.5-3 1.7 1 1.4 2.5-.9 3-1.7q1.4.3 2-1 2-.1 3.1-2c2 .1 7-3.3 8.6-4.3l65-37.4q.9-.5 1-1.4c5-.3 9.6.9 14.6 1.4q.4.2.6.6l-28.2 18.3-11.1 7q-1 .6-1.7 1.7c-1.8.2-4.1 1.4-4.9 3.1q-2.1-.3-3 1.5c1 .9 2.7-.5 3-1.5 1.8-.2 4.3-1.3 5-3q1 0 2-.5l11.7-6.9q16.4-9.2 32.3-19c1.7.3 12.6 2 13 3.3-21.1 13-42 27-62.5 40.1q-1.8 0-2.4 1.8-1.6 0-2.2 1.2-1.8.3-3 1.7c1 1.4 2.6-.8 3-1.7q1.8.4 2.2-1.2l2-.2c21.6-13.8 44.8-26 67-39q1-.6 1-1.6c2.2.6 9.8 2.6 11 4.1l-.5 1-2.1 1.8a138 138 0 0 0-11.4 6.8c-2.2 1.6-7.7 4-9.1 6.2q-3.2.6-5 3.1c-1.5 0-4.7 1.5-5 3q-1.1 0-2.2.4-1.9 1.7.6 1.2 1-.4 1.7-1.5c1.6 0 4.2-1.6 4.8-3.1 1.8 0 4.4-1.3 5-3.1 2.1.3 7.7-3.7 9.7-4.8q.4-.8.3-1.4 1.6.5 2.8-.4l12.7-7.4q.4-.3.3-.9c2 .2 10.2 3.3 11.3 5q-1 0-2 .7-24 15-48 30.6l-9 5.3q-.8.5-.7 1.4c-1.9 4-7.4 1.5-8.3 5.1-50.5-1.4-94 22.5-119.4 66-1.6.3-14.2 6.2-15.8 8l-1.1.1-11.4 6.6a2 2 0 0 0-1.2 1.3c-1.9 0-7 3.6-8.6 4.8q-17.2 9.5-34.2 19.4c.6-4.3 0-8.7 2-12.6q.4.3 1 .2 9.8-5.9 19.2-12 .3-.3.3-.8a7 7 0 0 0 5.2-3c.4 0 2.6-.5 1.5-1.2A2 2 0 0 0 99 147a8 8 0 0 0-5.2 3 3 3 0 0 0-1.8.6q-9.3 5.5-18.8 10.6c-.2-3.4 1.2-9 2-12.4a3 3 0 0 0 2.4-.7l48-30.9q1.3-.8 2.2-2c1.4-.3 4.8-1.6 5.2-3.2a5 5 0 0 0 2.2-.4q1.9-1.5-.6-1.3-1.1.6-1.6 1.7a7 7 0 0 0-5.2 3.2c-1.9-.3-14.8 8.1-17.3 9.7q-17.2 9.5-34.2 19.4 1.5-7 3.8-13.6 1.8-.6 3.5-1.6l23-14.9 2.3-2c1.5-.2 4.6-1.7 5.1-3.2q2.1-.2 3-2c.4.2 2.7-.3 1.5-1a2 2 0 0 0-1.5 1q-2.2 0-3 2-3.3.3-5.1 3.2c-2.7 0-9.9 5-12.4 6.6l-15.3 8.4a150 150 0 0 1 6.9-16.5q1 .5 2 0l42-28.7c2-1.4 8.8-5.4 9.9-7 .5-.2 3.9-1.2 2.5-2q-2.2 0-2.5 2-1.2 0-2.2.3l-9 5.3q-.6.8-1.5 1.3a524 524 0 0 0-35.2 20.5L93 102c1-3.7 10.1-18.7 13.2-20.4l2.4-1.3q12.4-9 25-17.7c-.5-.8-3 1-3.7 1l-.8 1-16.2 8.6q0-1.2.8-2A181 181 0 0 1 178.5 23c2.6-1.6 8.7-2.5 10.5-4.5q1 .4 1.9-.3c8-2.8 21.2-7.2 29.4-7.2l-1.3 1.4q-19.9 14-39.5 28.4-3 1.5-5.3 3.8c-1 1-3 .5-3.1 2.2l-2.1.7q-2 1.5.4 1.3a4 4 0 0 0 1.7-2q2.4.3 3.6-1.8a5272 5272 0 0 0 59.7-34.2 10 10 0 0 0 3.4-2.7Zm117.9 31.5a76 76 0 0 1 16.6 12.4c-14 8.5-27.8 17.6-41.7 26l-11.5 7a308 308 0 0 0-23.2-9.9q.6-.6 1.1-1.4c5.8-2 10.6-6.3 16.2-8.8 13.4-8.3 27.6-15.9 41.3-24a2 2 0 0 0 1.2-1.3ZM361 48a3 3 0 0 0-3 2q-1.2-.2-2 .7c.6.9 1.6 0 2-.6q2-.2 3-2c.5 0 2.8-.4 1.5-1.2q-1.3 0-1.5 1.1Zm14 5.8c3.2 3.2 19.2 18 19.8 21.3a3 3 0 0 0-1.6.6L348 104.4l-2 2c-7.4-8.1-16.3-14-25.2-20.4q5.6-3.6 11.4-6.7 20.4-12 41-23.8.8-1 2-1.8ZM385.8 69q-1.9.3-3 2-1-.2-1.8.7c.7 1 1.6-.1 1.8-.8q2.2.2 3-2 .8.1 1.3-.3-.8-.2-1.3.4ZM261 79q6 .3 12 1.1-.2 1.4-1.4 2a3736 3736 0 0 1-59.1 33.9c-.9-.7 0-1 .4-1.6Q237.1 97 261 79Zm-23 1.3q1.5 1-.1 2l-47.6 27.5c-1.4.7-1.4-.7-.4-1.4 3.3-2.7 23.8-19.2 24.1-21.5q11.7-4.5 24-6.7Zm160.2-.3.6-.3c2 .6 5.6 5.6 6 7.6q-1-.3-1.8.1c-2.3 1.8-9.7 5.3-11 7.5a7 7 0 0 0-5 3.1c-.8-.1-2.2-.1-2 1q-3 .6-5 3-2.1 0-3 2a2 2 0 0 0-2 .7c.7 1 1.8 0 2-.8a3 3 0 0 0 3-1.9c1.8.3 4-1.6 5-3q1.4.3 2-1a8 8 0 0 0 5-3.1 3 3 0 0 0 2-.4c2-1.5 10-5 10.8-6.7 2.3.4 4.8 6.4 6.4 8q-1.2 0-2.3.5L364 124.7q-.6.4-.9 1.2-.9-.1-1.5-1-5.8-8.5-13-16 .3-.6.9-1 24.4-13.7 48.7-27.9ZM287 83l4 1q.3 1.7-1.3 2.4-17.8 10.1-35.4 20.5c-1.4.6-1.7-.8-.5-1.5q16-10.4 32-21.1zm26.3 10.8 2.9 1.7Q304 103 291.5 110c-1.1.6-2.5 2.8-4 2.2q-.6-.5-.2-1.1 12-7.5 23.7-15.2l2.3-2Zm100.6 7.1q8 12.9 13.4 27c-3.3-.1-43.3 26.6-49.7 30.2-3.2-10.3-8-19.4-12.9-29 4.5 0 41.1-22.9 48-26.8a2 2 0 0 0 1.2-1.4Zm-88.7.9 4.9 4.1q.2 1.2-.8 1.8c-13.7 7.5-36.3 22-49.5 27.8l-2.8-.8q-.1-.9.7-1.5c9.6-6.1 39.5-28.2 47.5-31.4ZM413 113c-1.5 0-6.3 2.7-7 4q-2 .2-3 2a2 2 0 0 0-1.9.7c.6 1 1.9 0 2-.7q2 0 3-2c1.5.3 6.2-2.5 6.9-4 1.1.4 5.7-2.1 3.7-2.8a7 7 0 0 0-3.7 2.8Zm4 8.9q-2.3 0-3 2.1-1.1-.2-2 .7c.7.9 1.8 0 2-.7q2.1-.2 3-2.1a2 2 0 0 0 2-.6c-.6-1-1.7 0-2 .6Zm-267.6 26.9q2.1-4.6 4.5-8.8c4.4-1 24.7-13.7 30-16.7.9-.7 2.4-.6 1.6.7l-34.4 25.3q-1 .4-1.7-.5ZM243 134q-5.6 1.2-11 3.2l-.6-.7 7.6-4q2.4-.5 4 1.5Zm185.8-2.4q1.8 4.8 2.9 9.7-.8-.3-1.4.3l-48.7 30.8q-1.7-5.6-3-11.4l48-27.8q1.2-.7 2.1-1.6ZM270 141c-1 .7-25.8 20.6-29.1 23.4-1.1.7-1 2 .3 1.4 11.5-6.3 26.5-16.1 38-21.2q3.6 2 7 4.3.2 1.3-.6 2.2-14.5 11.6-29.2 22.8c-.4.6-1.8 1.3-1 2.1l4.6-2.3 32.4-19q3.4 3.2 6.2 7.1a200 200 0 0 1-14.6 10.6c-1.6 1.1-.6 2.4 1 1.3q7.7-4.7 15.5-8.9l3.9 7a4 4 0 0 1-1.4 2.8 557 557 0 0 1-22.1 16c-1.5 1-.1 2.2 1.2 1.3 2.9-2.3 22.2-14.2 24.7-13.9a69 69 0 0 1 2.5 10.9c-4.5.6-23 17.4-28.4 20.7-1.6 1-.3 2.3 1.2 1.3 8.3-5.3 19.1-12 28-16a57 57 0 0 1-43.1 57.4 28 28 0 0 1-14 .8c2.4-2.9 7-6.1 10-8.5q1-.7.5-1.7a70 70 0 0 0-7.8 4.3 66 66 0 0 0-7.7 5q-11.5-3.2-21-10.2c2-2.7 25-20.3 29.6-24 .4-.4 1.9-1.4.9-2q-17.3 9.6-34.4 19.7l-2.5.8a69 69 0 0 1-6.1-7.3l21-15.2c.5-.5 1.8-1.3 1-2q-11.3 6-22.4 12.6-1.1.6-2.3.7-2.4-4-4.3-8 8-5.8 16.1-11.3.5-1.5-1-1.1c-3.7 2.2-12.8 8.2-16.5 9.1q-1.7-4.5-2.9-9c.9.2 4-3.8 5.1-4.2 4-3.2 19.7-14 21.5-17.4q0-.3-.3-.4-13.5 7.6-27.5 15-.6-6-.2-12 10-8.5 20.3-16.5c1.4-1.1.2-2.4-1.2-1.4-5.3 4-12.3 7.5-18.1 10.8a47 47 0 0 1 37.2-37.1c-.3 2.2-7 7.1-8.6 9.2q-.5 1.3.9 1c2.6-2 19-10.4 19.7-12.2q9-1 18 1.2Zm162.8 5.7c1.8 1 2.5 7.4 2.9 9.5a2 2 0 0 0-1.7.3l-49 31.1-1.7 1.6q-.4-7.2-1.5-14.2 1.3.4 2.5-.3zm-290 23.2a23 23 0 0 1 1.2-4.9c2.3.1 20.3-10.8 22.9-12.9.8-.6 2.7-.3 1.8.9zm218-15.9 1.2 4-39.7 22.8q-.7.4-1.5.3l-.3-.9zm76.2 8.6q1.3 5.2 1.2 10.6-1.2 0-2.2.5L384 207l-.8.2.2-14.2q1.1 0 2.3-.7zm-246.7 18.5-.5 1.8-48 32.2a38 38 0 0 1-1-8l47.5-27.5q2-.8 2 1.5Zm247.6-.3 1.1.1q.7 5 .7 10.3-1.3 0-2.3.6L379 229.3l3.2-16.5a4791 4791 0 0 0 55.7-32ZM140 197v-3q10.2-5.4 20-11.7c1.5-1 3 .2 1.2 1.3Q150.5 190 140 197Zm226.8-12.2q.3 2.5.2 5.2c-15.4 7-34.2 20.5-49 27l1.6-4.2c11.2-6 20.9-14.4 32.5-19.5zM127 195q.3 16.2 3.9 32.1-23.4 13.1-46.6 26.6-1.2.6-2 1.7L81 255q-1-.4-1.2-1.4a293 293 0 0 1-6-26.7c3 0 34.8-21 40-24.3q4.8-2.4 9.2-5.3.7-.4.7-1.3c.4-1.9 1.8.3 3.2-1.1Zm61.1 5v2c-5.3 2-33.8 21.9-41.2 26.3q-.9.6-1.9.7a26 26 0 0 1-1.2-5 24 24 0 0 0 6-2.7c7.9-4 32.1-19.3 38.3-21.3Zm251-.3a79 79 0 0 1-.5 11.3q-.9 0-1.6.7l-68 43.7q-.6.4-1.3.4 4.9-9.6 8.9-19.8 1-1.2 2.5-2 1-.2 1.9-.7zm-2 20q0 6.4-2.1 12.5a4 4 0 0 0-2 .5q-17.1 10.7-34 21.6c-2.8 1.4-8.6 4.2-10 6.8-2-.3-4 1.4-5.1 2.8-.7 0-2 0-1.8 1q-2.2.1-3 2.2-1.3-.3-2 .6c.5 1 1.8.1 2-.6q2.1 0 3-2.1 1.5.3 1.8-1 3.1-.4 5-3 1.2 0 2.1-.5l9-5.3 33-19.1 1-.2a137 137 0 0 1-8.1 28.3q-1.7-.2-2.7 1-.9 0-1.6.7l-1.4 1.3q-.8.2-1.5.7l-1.9 1.2-1 .9-3 1.7q-.9.7-1.9 1.2l-1.2.8-1.8 1.2-1.2.8-6.6 4.5q-.8.2-1.4.8l-1.9 1-1 1-2.1 1-1 .9-1.8 1-1.2.8-1.8 1.2-1.2.8q-3.4 2.1-6.6 4.6-.8 0-1.4.6-.8.6-1.5 1.4a2 2 0 0 0-1.4.6l-2.1 1.2-1 .8-1.7 1.1-1.2.8-3.1 2-1.8 1.1-1.2.8-3 2q-2 1.1-3.6 2.5l-1.3.8-2 1-1.1 1-2 1-1 1-1.8 1-1.2.7-1.8 1.2-1.2.8-6.6 4.5c-2 1.1-7.1 3.7-8.1 5.7-1.6 0-4.6 1.6-5 3.1q-2.1 0-3 2-1.2-.2-1.9.7c.6 1 1.9 0 1.8-.8a4 4 0 0 0 3.1-1.9 7 7 0 0 0 5-3c2 .3 7-3.8 9.1-4.5l.9-.8q.8 0 1.3-.6 1.8-1.2 3.7-2.1.8-.3 1.3-.7a14 14 0 0 1 3.8-2.2l1.2-.8.8-.7q.7 0 1.2-.6a54 54 0 0 0 7-4l3-1.7.7-.2 1.3-.8.8-.5 1.2-.8q2-.8 3.4-2.2a2 2 0 0 0 1.5-.8 34 34 0 0 0 5.8-3.2l1.4-.7 5.6-3.3 1.3-.7 4-2.1q.6-.3 1-1 3-1.3 5.6-3.3.9 0 1.4-.7a39 39 0 0 0 5-2.7l.7-.6q.9 0 1.4-.7l5-2.7.5-.6q.8-.2 1.4-.7l5-2.7 5.8-3.5q-2.6 8.4-7 16.2-1.2 0-2.2.5-37.7 24.7-75 49.7-.9.2-1.5.6c-2.2 1.9-10.1 6-11.3 8q-2.2 0-3.1 2.1-1.3-.2-2 .7c.6 1 2.1.4 2-.7q2.1 0 3.1-2.1 1 .2 1.9-.3a9 9 0 0 0 3.4-2.7c2.4-.2 4.8-1.7 6.4-3.4q1-.5 2-.6 35.4-20.7 71.1-41.1c-1.8 5.6-6.4 12.2-9 17.7q-1-.7-2-.1l-41.3 27c-1.3.9-4.2 2-4.4 3.7q-1.2-.1-2.2.4a42 42 0 0 0-6.1 4.5q-2 .2-2.9 2-1.2-.3-2 .8c.5 1 2 .3 2-.7q2-.3 2.9-2.1c2 .3 6.1-3 8.1-3.9l5.7-3.4 38-21.6c-3.3 6.8-7.6 13-11.8 19.3q-1-.4-2 .2l-37.3 24.7c-1.8 1.4-6.8 3.8-7.6 5.7q-3 .4-5 3l-2.1.6q-2 1.5.4 1.2a3 3 0 0 0 1.7-1.8c2 .3 4-1.3 5-3 2 .3 6.7-3.5 8.8-4.4q16.2-9 32.1-18.8l.9.2c-.2 3.6-20.9 31.9-24.4 36.9q-.6 1-1.7 1.4-1 .7-.5 1.9a6 6 0 0 0-4.2 1.5q-7.8 5.2-15.2 10.6l-6.8 4.4q-.8.5-.9 1.4-2.3 0-3.1 2-1.1-.3-2 .7 1.5.8 2-.6a4 4 0 0 0 3.1-2c2 0 7-3.5 8.6-4.5q6-3.6 12.3-6.8c-2.7 6.4-15.5 20.3-18 24.3q-.9.2-.7 1.1l-1.5.1q-6 4-11.3 8.6a17 17 0 0 0-5.3 3.8q-1.5.6-3 1.6c1.5 1.4 2.5-.4 3.7-1.1q4.5-2.7 9.4-5.2l.7.2a92 92 0 0 1-7.7 9.7 795 795 0 0 1-56 58.8 2 2 0 0 1-2.4-.1c-7.2-6.4-14.8-12.6-21-19.8l41.8-30.1q-.4-.6-1-.4l-43.8 25.2q-.9.6-.7 1.7c-1.6-.6-7-5.6-7.6-7.4 14.7-10 29.5-21 44.5-30.3q.9-.4.8-1.3 2.1-.2 3.1-2.3 1.2.3 1.9-.6c-.5-1-2-.2-1.9.6q-2.2.3-3.1 2.3c-2-.3-10.2 5.8-12.6 6.6Q237 455.3 219 466c-1.6-.4-7.2-5.5-6.7-7.2q2 0 2.7-1.7a2 2 0 0 0 2-1c.8-.2 4-1 2.6-2.1q-2 0-2.5 2-1.5-.2-2 1c-1.1 0-2.9.5-2.8 1.8-1.8.3-7-5.6-7.4-7l1.6-.7 57-38q2.2-1.5 4.6-2.6.8-.4.8-1.3 2-.4 3.1-2.1c.6.1 2.8-.4 1.5-1.2q-1.2 0-1.5 1.2-2.2 0-3.1 2.1c-1-.5-7.5 4.2-8.9 4.5l-57.6 33.2q-.9.4-1.3 1.3a47 47 0 0 1-6.5-7.2l58.7-38.1 8.7-5.6a2 2 0 0 0 1-1.2 4 4 0 0 0 3-2.1q1.1.2 2-.7c-.7-1-1.8 0-2 .7q-2.1.1-3 2-1.1 0-2 .5l-9.4 5.5-60.7 35.3c-1.4-1.7-5.4-5.7-6-7.5 1.7-.4 9.7-5.8 10.8-7.1q1 0 1.6-.7l1.6-1.2q.8-.3 1.3-.7 1-.7 2-1.1l1.2-1 1.9-1 1-1 2-1 1-1 1.7-1 1.2-.8 3-2 1.9-1.1 1.2-.8 1.8-1.2 1.2-.8 3-2q4.8-3 9.4-6.5.9-.2 1.6-.7l1.4-1.3q.9 0 1.6-.7l1.4-1.3q.9-.2 1.6-.7l1.9-1.2 1.1-.8 2-1.1 1-.9 1.7-1.1 1.2-.8 3-2 1.9-1.1 1.2-.8 1.8-1.2 1.2-.8 1.8-1.2 1.2-.8 1.8-1.2 1.2-.8 1.8-1.2 1.2-.8q.8-.8 1.8-1.3l1.2-.7 2-1.2 1.5-1.4q.8 0 1.5-.6.8-.8 1.8-1.3c2.3-1.3 6.4-3.6 7.9-5.7 1 0 5.9-2.2 4.6-3.2-1.5.2-4 1.7-4.6 3.2-2.2-.2-7 3.7-9 4.5a14 14 0 0 1-4 2.4l-1.3.8-2 1q-.7.8-1.8 1.2l-1.3.7q-.5 0-.9.4l-1 .8-5 2.8-.8.5q-.8.3-1.3.7l-5 2.8-.6.6-4.4 2.4-.8.4-1 .8-.9.4q-.6 0-1.2.6-1.8 1-3.6 2.3-.8.3-1.4.8a34 34 0 0 0-5 2.7l-.6.6q-.9 0-1.4.7a34 34 0 0 0-5.7 3.3q-.8.2-1.3.7a73 73 0 0 0-10.4 6.2l-1.6.8-5 2.7-.7.6q-.7.2-1.2.6a36 36 0 0 0-5 3q-.4 0-.8.4-.8 0-1.3.7-2 .8-3.5 2.3-.8 0-1.6.6l-3.7 2-1.2.8-.8.5-1.2.8-5 2.7-.7.6a1 1 0 0 0-.8.9c-1.7-.2-5.4-5.7-6.4-7.2q1-.3 1.6-.9l1.4-1.4 1.5-.6q.9-.7 1.9-1.1l1-1 2-1 1.2-1 2.9-1.7 1.8-1.2 1.2-.8q3.4-2.1 6.4-4.6.9 0 1.5-.7.9-.5 1.6-1.2l1.4-.7 2-1.2 1-.9q1-.4 1.8-1l1.2-.8a71 71 0 0 0 9.6-6.5q.8 0 1.5-.7l1.5-1.2q.8-.2 1.5-.8l2-1 1-1 2-1q.6-.4 1-1a37 37 0 0 0 6-3.7l6.5-4.5q.7-.1 1.5-.7l1.6-1.3 1.4-.8 2-1 1-.9 1.8-1 1.2-.8q.7-.7 1.8-1.2l1.2-.8 1.8-1.2 1.2-.8 1.8-1.2 1.2-.8.8-.6q.6-.2 1.2-.7l1.7-1.2 1.3-.7 2-1.2 1-.7q.6-.7 1.7-1.2l1.2-.8q1-.8 2-1.3l8.8-5.6q.8-.5 1-1.4c1.6.5 2.2-1 3-1.9q1.5.2 2-1 1 0 2-.6 2.1-1.5-.3-1.3-1.2.6-1.7 1.9-1.5-.5-2 1-2 0-3 2-1 0-2 .4a177 177 0 0 0-13 7.6l-1.3.7q-1.7 1.5-3.8 2.2l-1.2.8-.7.5-1.3.8-5 2.7-.8.5-1.1.8a33 33 0 0 0-5 2.8l-2.1 1.1-3 1.7-.7.4-1.3.7-5 3-.7.5q-.8.1-1.4.7l-5 2.8-.6.5-1.3.8-5 2.8-.8.5q-.6.2-1.2.7l-4 2.1-1 .7-5 3-.7.4-1.3.7-5 2.8-.7.6a60 60 0 0 0-6.3 3.5l-.7.5q-.8 0-1.4.6l-3.8 2.2-1 .8-5.1 2.8-.7.5-1.3.6-5 3-.7.5q-.7.2-1.3.7l-3.7 2q-.9.3-1 1.1-6.9-7.6-13-15.9 1.5-.3 2.6-1l48.8-30.4q1-.7 1.6-1.8a2 2 0 0 0 2-1q2.1 0 3-2 1.5.5 2-1 2.1-.2 3-2 1.2 0 1.8-.8c-.5-.8-1.7 0-1.7.7q-2.4 0-3.1 2-1.4 0-2 1.1-2.1 0-3 2-1.4-.3-2 1-1 0-2 .5l-14 8.1q-.8.8-1.5 1.2-17.7 9.9-35.2 20-.8.5-1.1 1.2c-1.5 0-5.4-6.6-6.5-7.9q1.9.2 3-1.3.9-.2 1.6-.8l2-1 1.1-1 1.7-1 1.2-.7 6.5-4.5 1.5-.7 6-3.8q2-1 3.4-2.6l1.6-.7 2-1 1-1a24 24 0 0 0 6.4-4.3q1 0 1.6-.6l1.6-1.3 1.3-.8q1-.4 1.8-1l4.3-2.7q2-1 3.4-2.6 1 0 1.6-.7l2-1 1-1 3-1.7 3.5-2.5q.8-.2 1.5-.8l1.5-1.1 1.4-.8 1.8-1 1.2-.9 1.9-1.1 1.2-.8 3-2 .6-.5 1.4-.7q.8-.7 2-1.2l1-.9 3-1.7 3-2a19 19 0 0 0 3.5-2.6q.8-.2 1.5-.7l1.7-1 1.2-.8q1.6-.7 1.8-2.5c46.4 1 90.3-21.4 116.7-59.6q.6-.9 1.6-1.4.8 0 1.4-.3zm-305.2 11q3.7 11 8.5 21.3-1.2-.2-2.5.3l-47 27.2-1.6 1.8c-.4-2.2-3.3-7.3-3-9.2l15-9.3q1.2-.7 1.8-1.8 1.3.2 1.8-1 2.1-.1 3.2-2 1.3.2 1.9-1 2-.3 3-1.9 1.1 0 2-.8c-.7-1-1.8 0-2 .8a3 3 0 0 0-3 1.8q-1.4-.1-2 1.1-2.3 0-3 2-1.5-.2-2 1c-2.7.3-13.6 7.6-17 9.2-1.7-.9-2.7-6.2-3.4-8q24.5-16 49.3-31.4Zm228.2 6.3-1.2 3a62 62 0 0 0-11.8 6.8c-.9.6-2.4.6-1.8-.8 2.5-1.6 12.9-9 14.8-9Zm-151.7 4.6.8.7q-19.4 13.3-39.3 26-1.2.9-2.2 2l-3.3-4q1.6-.4 3.1-1.3 20.4-11.8 41-23.4Zm-128.6 3.6q.3.9 1 .2-.3-.5-1-.2Zm140.3 4.6 1 .6q-22 14.8-44.6 29L174 277q.5-.9 1.4-1.4 22.6-12.7 44.8-25.8ZM415 258q-2.1.3-3 2.2-1.2-.3-1.9.6c.6.8 1.8.2 1.8-.6q2.2-.1 3-2.2c1.3.4 7.9-2.9 6.7-4-1.5.3-5.5 2.6-6.6 4Zm-273.7-2 .6-.2c6.3 8.5 11.8 17.6 19.5 25.2q-1.2 0-2.4.6l-55 31.7c-2.5-5.2-6.4-12-8-17.4a3 3 0 0 0 3-2q1.4 0 2.6-.8c.6-.7 4.5-2.2 4.3-3.2a4 4 0 0 0 3-1.8q1.5 0 2-1.1c1 0 4.1-.9 2.6-2q-2.1 0-2.5 2-1.5-.2-2 1-2.2 0-3.1 2c-2.8-.2-3.7 1.7-6 2.7q-.6.5-1 1.2-1.5 0-3 1.1l-.8-.2q-1.9-3.8-3.5-7.8zm92.8-.1q2.4.7 5 1.2c-9 7.8-35 24.3-46.2 32.2q-1.5.7-3.1 1c-.8-1.1-4.6-2.7-4.5-4l.8-1.1c4-1.8 47.5-28.2 48-29.3Zm-28.3 43.6-6-3.1 1-1 54-31.1c1.4-.7 1.6.7.4 1.4-5.8 3.7-48.4 31-49.4 33.8Zm15 6.2q-2.2-.6-4-1.8.9-1.8 3-2.4c9.6-7.2 22.6-13.6 33.1-20 1.7-1.2 2.9.3 1.3 1.2q-4.2 2.4-8.2 5c-3.7 2.5-24.4 15.6-25.3 18Zm-58.8-24q5 4.8 10.2 9l-2.3.7-58 33.6-1 .2c-1.6-.8-3.6-5.4-4.3-7.2q27-17.4 54.4-34.4 1-.7 1-1.9Zm11.7 10.9 10.6 7.4-64.5 37.4-1.5 1.8a71 71 0 0 1-4.7-8.3zM108 300a3 3 0 0 0-3 1.8q-1.3 0-2 1.1-1.7-.2-2 1.5c1 .6 1.7-.8 2-1.5q1.4.2 2-1 2.1 0 3-2c.5.2 2.8-.4 1.7-1.1q-1.1.2-1.6 1.2Zm78.9 1.9q7.3 3.5 14.6 7.3c-24.6 12.2-49 27.7-73 41.5q-.9.5-1.3 1.2c-1.6.1-5.1-6.5-5.1-8.1q32.1-20 64.1-40.4.8-.6.7-1.5Zm17 8.8 15 5.1q.9.3 1.2 1l-2 1-1.3.8-.8.6q-.6.2-1.3.7a93 93 0 0 0-10.6 6l-1.3.8-2 1.2-5 2.8-5 2.9-.7.5q-.7.2-1.2.8a40 40 0 0 0-5.1 2.7l-.8.6q-.7.2-1.3.7l-4.9 2.7-5 3-.7.6-1.4.7-5 2.7-.5.5q-.8.2-1.4.8a34 34 0 0 0-5 2.7l-.7.5-1.3.7q-1.8 1.2-4 2l-1 1-5 2.8-.6.6-1.4.5-5 3-.6.5q-.8.2-1.4.7-.6.3-.8 1.2a32 32 0 0 1-5.7-8.2q.8 0 1.5-.6l71-45.2q.8-.5 1-1.4Zm20 7q11.3 2.2 22.5 3.4-.6.7-1.5 1l-1.1.4-.7.4-1.2.8-5.2 3-.7.5q-.7 0-1.2.6l-5 2.8-.6.5q-.8.1-1.4.7l-5 2.9-.7.5q-.8.1-1.3.7l-1.8 1-1.3.6-.6.4-1.3.8-5 3-.8.5q-.7 0-1.2.5l-5 3-.8.5q-.6.1-1.2.5l-10.6 6.4-1.4.8a36 36 0 0 0-7 4l-5 2.8-.7.4q-.8.2-1.3.8l-5 2.7q-3 1.5-5.4 3.6-.9 0-1.6.6l-5 2.8-.7.4-1.2.9a32 32 0 0 0-5 2.7l-.8.5-1.3.8q-2.8 1-4.5 3.3c-1.5-2.6-4.8-5.7-5.4-8.6q1.2 0 2-1 1 0 1.5-.7 1-.7 2-1l1-1a50 50 0 0 0 9.5-6.3q.8 0 1.4-.7l1.8-1 1.2-.8 3.1-2 8-5.2 1.7-1 1.2-.8 1.9-1.1 1.2-.8q1.9-1 3.5-2.6.7-.2 1.5-.7l2-1 1.1-1 1.7-1 1.2-.7 6.5-4.5q.9-.2 1.6-.8l2.9-1.7q.8-.7 1.8-1.2l1.2-.8a71 71 0 0 0 6.5-4.5l1.6-.8 1.6-1 1.2-.8 1.9-1.1 1.2-.8q1.9-1 3.5-2.6.8 0 1.5-.6l1.7-1q.8-.5.9-1.2ZM188 388q-1.5-.3-1.8 1.2a3 3 0 0 0-3 1.9 6 6 0 0 0-5 3q-1.2 0-2.2.3l-8.3 5q-.9.5-1.6 1.4l-2.2.7q-1.8 1.5.5 1.6l1.7-1 11-6.7q.7-.4 1-1.3c1.4-.3 4.6-1.5 5-3q2 0 3.1-2 1.3.1 1.8-1c1 .3 4-.8 2.7-2q-1.7.3-2.7 2Z"/><path fill="#f96b84" fill-opacity=".2" stroke="#f96b84" stroke-opacity=".2" stroke-width=".5" d="M178 394q-.3.9-1 1.3l-11 6.7v-1.3l1.6-1.5 8.3-4.9q1-.4 2.1-.3Z"/><path fill="#f96d82" fill-opacity=".2" stroke="#f96d82" stroke-opacity=".2" stroke-width=".5" d="M211 361a2 2 0 0 1-2 1q.6-1.3 2-1Z"/><path fill="#f56d83" fill-opacity=".3" stroke="#f56d83" stroke-opacity=".3" stroke-width=".5" d="M114 109c-.5 1.5-3.6 3-5.1 3.2q1.9-3 5.1-3.2Z"/><path fill="#f86b81" fill-opacity=".2" stroke="#f86b81" stroke-opacity=".2" stroke-width=".5" d="M193.1 52q-1 1.9-3 2 .6-2.1 3-2Z"/><path fill="#f76c82" fill-opacity=".5" stroke="#f76c82" stroke-opacity=".5" stroke-width=".5" d="M361 48q-.9 2-3 2a3 3 0 0 1 3-2ZM234 58c-.5 1-2 3-3 1.7q1-1.5 3-1.7Zm152 11q-.9 2-3 2 1-1.7 3-2Zm17 50c0 .8-1.3 1.6-1.9.7a2 2 0 0 1 2-.7Zm11 5c-.2.8-1.4 1.6-2 .7q.9-.9 2-.7ZM113 255.1c.2-.7 1.3-1.7 2-.8q-.9.9-2 .8Zm106 100.8c.2-.7 1.3-1.5 1.8-.7q-.6 1-1.7.7Zm-48-309a4 4 0 0 1-1.6 2q-2.4 0-.4-1.3zM412 260c0 .8-1.3 1.4-1.9.6q.8-.9 1.8-.6Zm-33 7c-.1.7-1.4 1.5-2 .6q.9-.9 2-.6Zm-268 20q.5-2 2.6-2c1.5 1.1-1.6 2-2.5 2Zm210 45c0 .7-1.3 1.7-1.9.7q.7-.9 1.8-.8Zm-34 11q.5-1.3 1.7-2 2.4 0 .4 1.4z"/><path fill="#f66c83" fill-opacity=".4" d="M411.3 280q-.6.5-1.4.7.4-.8 1.4-.7M380 293.3q-.5.8-1.4.6.6-.4 1.4-.6m-158 42q-.5.7-1.4.7.6-.6 1.4-.7m6.2-.2-1.4.7q.5-.8 1.4-.7"/><path fill="#d94452" stroke="#d94452" stroke-width=".5" d="M261 79q-24 18-48 35.4c-.5.5-1.4 1-.5 1.6q29.6-16.7 59-33.9 1.3-.6 1.5-2 7.1 1 14 2.9a4 4 0 0 1-1.3 1.3 1725 1725 0 0 1-31.9 21.1c-1.2.7-1 2.1.5 1.5q17.5-10.5 35.4-20.5 1.5-.7 1.4-2.4 11.4 4 22.2 9.8l-2.3 2a936 936 0 0 1-23.7 15.2q-.4.7.2 1c1.5.6 2.8-1.5 4-2q12.5-7 24.7-14.5l9 6.3c-8 3.2-38 25.3-47.5 31.4q-.9.6-.7 1.5a73 73 0 0 0-34-.7 4 4 0 0 0-4-1.5l-7.6 4 .7.7c-21 8.5-35 22.2-41.8 44q0-2.5-2-1.6L140.7 207q-.8-5-.7-10.1 10.5-6.8 21.2-13.4c1.7-1.1.2-2.3-1.3-1.3q-9.6 6.3-19.9 11.7.1-12.2 2.8-24l25.9-17c.8-1.2-1-1.5-1.8-.9-2.7 2.1-20.6 13-23 13q2.5-8.4 5.5-16.3.6 1 1.7.5l34.4-25.3c.8-1.3-.8-1.4-1.6-.7-5.3 3-25.7 15.7-30 16.7a116 116 0 0 1 60.1-53c-.3 2.3-20.8 18.8-24 21.5-1.1.7-1.1 2 .3 1.4l47.6-27.5q1.5-1 0-2 11.6-1.5 23.1-1.3Zm69 27c1.5 1.6 7.3 5.7 6.7 8-.8.6-3.7 1.5-3.6 2.7-3.6 1.1-6.3 4-9.5 5.6-4.3 4.3-21.6 13.5-27.7 18.2q-1.3 1-1 2.6a76 76 0 0 0-15-7.6c13-5.7 35.7-20.3 49.4-27.8q1-.6.8-1.8Zm10.4 10.7c3 4 9.4 12 10.7 16.5q-18.7 11.7-37.2 23.9-1.6.8-3.4 1.2a76 76 0 0 0-14.7-14.7q3.1-2.5 6.8-4.5c7-4.2 33.5-18.7 37.8-22.4Zm-88.4 23c-.7 1.9-17 10.2-19.7 12.3q-1.5.3-.9-1c1.5-2.1 8.3-7 8.6-9.2q6-1.2 12-2Zm18 1.3q4.7 1.4 9.2 3.6c-11.5 5-26.5 15-38 21.2-1.3.7-1.4-.7-.3-1.4 3.3-2.8 28-22.7 29.1-23.4Zm16.1 7.9q3.3 2.7 6.3 5.7L260 173.7l-4.5 2.3c-1-.8.5-1.5 1-2l29.1-22.9q.9-1 .5-2.2Zm76 9c.6 2.9 2.3 7.1 1.8 10q-1.5.7 0 1.5a40 40 0 0 0-7.6 4.2c-3.5.1-7.8 4-10.7 5.8-2 2.3-1.8 2-5 3-3.6 3.4-9.4 6.3-13.7 9-1.1.5-1.3 2 .3 1.6l33-19.3c1.4-.4 3.5-2.2 5-1.8a119 119 0 0 1 1.5 10.3c-1.7 0-12.6 7.8-14.8 9.2q-1.6 1.2.2 1.9c-11.6 5.1-21.3 13.5-32.5 19.5 3-10.4 3-21 1.2-31.7q.8 0 1.5-.3zm-63.6 4 2 2.9q-7.9 4.1-15.4 8.9c-1.7 1.1-2.7-.2-1.1-1.3q7.5-5 14.6-10.6ZM201.9 186q0-3.7 1-7c5.8-3.4 12.7-7 18.1-10.9 1.4-1 2.6.3 1.2 1.4q-10.4 8-20.3 16.5Zm102.5-14 2.5 6.1c-2.6-.3-22 11.6-24.8 13.9-1.3 1-2.7-.4-1.2-1.4q11.3-7.6 22.1-16a4 4 0 0 0 1.4-2.6Zm-114.6 11a75 75 0 0 0-1.7 17c-6.2 2.1-30.4 17.4-38.2 21.4a24 24 0 0 1-6.1 2.8q-1.3-4.5-2-9zm13.4 22-1.2-7q13.9-7.4 27.5-15l.3.4c-1.8 3.3-17.4 14.2-21.5 17.4-1 .4-4.2 4.4-5 4.2Zm106-16q.9 3 .8 6c-8.8 4-19.6 10.7-28 16-1.4 1-2.7-.3-1.1-1.3 5.4-3.3 23.9-20 28.4-20.7Zm57.8 1q.2 5.7 0 11.4-1 0-2 .5l-7 4.8q-.6.4-.8 1a9 9 0 0 0-6.3 4.7c-8.3 3.1-17.9 11.2-26 16.1q-.9.7-.3 1.7 2.5-1.4 5.3-2.7 18.5-10.5 36.9-21.4c-1 4.7-.6 10-2.8 14.3-1.1-.4-2.5 1.4-3.7 1.7q-1.2.1-1.5 1.1-3.7 2.5-7.8 4.6l-4.7 3.3-.6 1.2c-1.6-.6-4 1.6-5 2.8q-2.1 0-2.7 2-1.2-.2-1.9.7c.6 1 1.7 0 2-.7q2-.2 2.7-2 2.4 0 4.2-1.7.6-.4.7-1 3.3-.7 5.5-3.1l12.6-6.6c0 3.8-2.6 10.5-3.7 14.4-2 0-12.3 7.4-14.8 9-.6 1.4 1 1.4 1.8.8a62 62 0 0 1 11.8-6.8 109 109 0 0 1-122.3 69.8q6.7-4.6 13.7-9.1.8-.7 1.4-1.5l2.9-1q.3-.5.1-.8c.9-.2 4.6-1 2.9-2.4a3 3 0 0 0-2.9 2.4q-1.8.4-3.7 1.3l-.7 1q-2 .6-3.6 1.6l-6.5 4.2c-1.2.8-5 1.7-4.9 3.5-4.4.2-10.2-2.2-14.6-3.4.9-2.4 21.7-15.5 25.3-18q4-2.6 8.2-5c1.6-1 .4-2.4-1.3-1.3-10.5 6.5-23.5 13-33 20.1a5 5 0 0 0-3.1 2.4c-3.4-.6-7.8-3-11-4.4 1-2.8 43.6-30.1 49.4-33.8 1.3-.7 1-2.1-.4-1.4l-54 31-1 1q-5-2.8-10-6 1.5-.2 3-1c11.3-7.9 37.3-24.4 46.2-32.2 31 6 66.5-10.3 79-40 14.8-6.5 33.6-20 49-27Zm-178.8 12q1.4 11 5.9 21c-3.8 2.6-13 7-15.7 9.8-4 .3-4.6 3.8-8.6 4.8-3.1 2.6-6.4 1.2-8.9 5.7a60 60 0 0 1-7.8 4.6q-.5 0-.8-.4-4.2-9-7.3-18.4 1 0 1.9-.7c7.4-4.4 35.9-24.4 41.3-26.3Zm26.3 27.3q-1.5-1.8-2.7-4 1.2 0 2.3-.5 11-6.7 22.4-12.7c.8.7-.5 1.5-1 2zm12.4 12.8-6.3-5.5 2.5-.8a1732 1732 0 0 1 34.4-19.7c1 .7-.5 1.6-1 2-4.4 3.7-27.6 21.3-29.6 24Zm-32.3-18.2a64 64 0 0 0 13.8 17.8Q188 253.2 167.5 265q-1.5.9-3.1 1.3-5.5-7.2-10-15.1c5-3.5 39.2-25 40.2-27.4Zm14.7 18.5q5 4.3 10.8 7.5-22.3 13-44.8 25.8-.8.5-1.4 1.4l-6.2-6.7q1-1.1 2.2-2 19.8-12.8 39.3-26Zm43.7 10.8q-2.6-.3-5-1 3.6-2.7 7.7-5a70 70 0 0 1 7.8-4.2q.5 1-.4 1.7c-3 2.4-7.8 5.6-10.1 8.5Zm-31.8-2.7a69 69 0 0 0 12.9 5.4c-.5 1-44 27.5-48 29.3l-2 .2c-2.6-.8-5.4-4.2-7.6-5.8q22.5-14.4 44.6-29Z"/><path fill="#e8586a" fill-opacity=".5" stroke="#e8586a" stroke-opacity=".5" stroke-width=".5" d="M254.7 297.4a3 3 0 0 1 2.9-2.4c1.7 1.4-2 2.2-2.9 2.4Z"/><path fill="#dd4958" fill-opacity=".5" stroke="#dd4958" stroke-opacity=".5" stroke-width=".5" d="M338 237c-.2.7-1.3 1.7-1.9.7q.7-.9 2-.7Z"/><path fill="#dd4757" fill-opacity=".4" stroke="#dd4757" stroke-opacity=".4" stroke-width=".5" d="M340.8 235a3 3 0 0 1-2.8 2q.6-2 2.8-2Z"/><path fill="#e14d59" fill-opacity=".3" stroke="#e14d59" stroke-opacity=".3" stroke-width=".5" d="m345.7 232.3-.7 1a6 6 0 0 1-4.2 1.7c1-1.2 3.3-3.4 5-2.8Z"/><path fill="#d94553" stroke="#d94553" stroke-width=".5" d="m352.3 137 .7-.3c3.4 4.8 5.7 11.8 7.8 17.3l-40.3 26.2q-3-11.9-10-22 1.8-.3 3.5-1.2.5 1.7 2 .6 18-10.5 36.3-20.6Z"/><path fill="#f76c82" stroke="#f76c82" stroke-width=".5" d="M335 27.6a50 50 0 0 1 10 5.4c2.1.8 7.4 3.3 8.3 5.3-14 8.5-27.5 17.9-41.6 25.7l-1.8 1.5-12 7.1q-.6.5-.8 1.3-.4.8-1 1.4a148 148 0 0 0-33-6.2c.8-3.6 6.3-1.1 8.2-5q1 0 1.7-.5 4.5-3 9.1-5.2.6-.8 1.4-1.3 26-14.4 51.5-29.5ZM143.6 135.2q-8.5 15.6-13 32.8l-1-.6a20 20 0 0 1-7.6 5q-1-.4-2 .2l-14.3 8.3c-11.4 7-23.4 13.3-34.9 20.2q0-11.2.3-22.5 1 .4 2-.2l54-34q.7-.5.7-1.4a76 76 0 0 1 15.8-7.8Z"/><path fill="#6c3d45" fill-opacity=".4" d="M438.6 211q.4 1-.2 2l-1.4-1.3q.7-.7 1.6-.7"/><path fill="#57363c" fill-opacity=".5" stroke="#57363c" stroke-opacity=".5" stroke-width=".5" d="M190.9 18.3q-.8.8-2 .3 1-.4 2-.3Z"/><path fill="#7d444d" fill-opacity=".6" stroke="#7d444d" stroke-opacity=".6" stroke-width=".5" d="M353.7 390.2q.4 1.2-.5 1.9-.5-1.2.5-1.9Z"/><path fill="#7f434f" fill-opacity=".6" d="m95.2 294.8.9.2v.9q-1-.2-1-1"/><path fill="#6d3e43" fill-opacity=".4" d="M215.2 4q-.5 1-1.5.8a2 2 0 0 1 1.5-.8"/><path fill="#7f444d" fill-opacity=".6" d="M422.8 272.7q0 1-.7 1.1 0-.7.7-1"/><path fill="#85464f" fill-opacity=".6" stroke="#85464f" stroke-opacity=".6" stroke-width=".5" d="M344 32.2q.7.3 1 .8-.6 0-1-.8Z"/><path fill="#443133" fill-opacity=".4" stroke="#443133" stroke-opacity=".4" stroke-width=".5" d="m329 423.1-.7 1.1q-.2-1 .7-1Z"/><path fill="#292429" fill-opacity=".2" stroke="#292429" stroke-opacity=".2" stroke-width=".5" d="M326.8 424.3h1.5l-1.2 1z"/><path fill="#7c3740" fill-opacity=".1" stroke="#7c3740" stroke-opacity=".1" stroke-width=".5" d="M166 400.8v1.2l-1.7 1q-2.3 0-.5-1.6 1.1-.5 2.2-.6Z"/></svg>