<?xml version="1.0" encoding="UTF-8"?>
<!DOCTYPE svg PUBLIC "-//W3C//DTD SVG 1.1//EN" "http://www.w3.org/Graphics/SVG/1.1/DTD/svg11.dtd">
<svg xmlns="http://www.w3.org/2000/svg" version="1.1" width="512px" height="512px" style="shape-rendering:geometricPrecision; text-rendering:geometricPrecision; image-rendering:optimizeQuality; fill-rule:evenodd; clip-rule:evenodd" xmlns:xlink="http://www.w3.org/1999/xlink">
<g><path fill="#aa6352" fill-opacity="0.906" d="M 459,128.63 c 0.5,2.58 0.5,5.16 0.02,7.74 c -3.24,-1.74 -2.45,-5.66 -0.02,-7.74 Z M 459.01,150.67 c 0.69,2.54 0.69,5.07 0.02,7.61 c -2.78,-2.01 -2.99,-5.64 -0.02,-7.61 Z M 459.04,164.61 c 0.32,2.57 0.32,5.15 -0.03,7.73 c -2.77,-2.6 -2.76,-5.17 0.03,-7.73 Z"/></g>
<g><path fill="#ab6352" fill-opacity="0.514" stroke="#ab6352" stroke-width="0.5" stroke-opacity="0.514" d="M 317.15,27.73 c 0.31,0.01 0.62,0.02 0.93,0.03 c -0.6,0.71 -1.31,1.29 -2.13,1.74 c -1.53,0.69 -1.79,0.42 -0.79,-0.79 c 0.61,-0.43 1.28,-0.76 1.99,-0.98 Z M 400.81,31.32 c -0.3,-0.01 -0.6,-0.03 -0.9,-0.05 c 0.8,-1.34 1.99,-2.05 3.56,-2.13 c 0.45,1.02 -2.16,1.64 -2.66,2.18 Z M 469,67.95 c 0.52,-1.45 2.17,-2.92 3.69,-2.59 c -0.76,1.55 -1.99,2.42 -3.69,2.59 Z M 489.19,394.68 c 0.29,0 0.59,0 0.89,-0.01 c -0.83,1.3 -2.01,2 -3.53,2.12 c -0.23,-1.15 1.84,-1.7 2.64,-2.11 Z"/></g>
<g><path fill="#aa6352" fill-opacity="0.349" stroke="#aa6352" stroke-width="0.5" stroke-opacity="0.349" d="M 228.06,16.03 c -0.35,0.91 -2.01,2.46 -2.9,1.56 c 0.61,-1.17 1.57,-1.69 2.9,-1.56 Z M 350.19,23.69 c -0.04,0.55 -0.08,1.09 -0.12,1.64 c -0.5,0.52 -1.08,0.95 -1.72,1.3 c -1.21,0.11 -1.34,-0.29 -0.39,-1.19 c 0.69,-0.65 1.43,-1.23 2.23,-1.75 Z M 42.03,64.98 c -0.66,1.29 -1.71,2.01 -3.13,2.16 c 0.61,-1.35 1.66,-2.07 3.13,-2.16 Z M 472.21,115.98 c -0.08,-0.45 -0.16,-0.89 -0.25,-1.33 c 0.55,-0.95 1.36,-1.5 2.43,-1.65 c 0.76,0.84 -1.6,2.47 -2.18,2.98 Z"/></g>
<g><path fill="#aa6352" fill-opacity="0.365" stroke="#aa6352" stroke-width="0.5" stroke-opacity="0.365" d="M 283.93,13.85 c 0.34,0.11 0.68,0.21 1.02,0.32 c -0.28,0.33 -0.64,0.51 -1.09,0.52 c 0.03,-0.28 0.05,-0.56 0.07,-0.84 Z M 338.05,44 c -0.28,-0.37 -0.62,-0.66 -1.05,-0.85 c 0.97,-1.09 2.17,-1.82 3.6,-2.17 c 1.03,0.95 -1.91,2.49 -2.55,3.02 Z M 469.27,245.3 c -0.32,0.34 -0.64,0.69 -0.96,1.03 c -0.03,-0.68 0.29,-1.02 0.96,-1.03 Z M 468.31,246.33 c -0.34,0.35 -0.71,0.67 -1.09,0.97 c 0.05,-0.68 0.41,-1 1.09,-0.97 Z M 467.22,247.3 c -0.3,0.33 -0.61,0.64 -0.92,0.96 c -0.03,-0.64 0.28,-0.96 0.92,-0.96 Z M 465.12,247.69 c 0.4,0.19 0.79,0.38 1.18,0.57 c -0.34,0.25 -0.68,0.5 -1.02,0.74 c -0.05,-0.43 -0.1,-0.87 -0.16,-1.31 Z M 280.31,489.92 c -0.1,-0.42 -0.21,-0.85 -0.31,-1.27 c 0.63,-0.57 1.82,-2.12 2.7,-1.16 c -0.54,1.04 -1.33,1.85 -2.39,2.43 Z"/></g>
<g><path fill="#aa6352" fill-opacity="0.847" d="M 409.88,54.28 c 1.81,-0.56 3.65,-0.64 5.51,-0.26 c -0.95,1.69 -3.76,1.32 -5.28,0.64 c -0.08,-0.13 -0.15,-0.25 -0.23,-0.38 Z M 457.85,196.9 c 0.62,1.74 0.59,3.47 -0.06,5.19 c -1.26,0.28 -1.26,-5.45 0.06,-5.19 Z M 458.04,394.63 c 0.16,1.85 0.12,3.69 -0.09,5.53 c -0.25,-0.12 -0.51,-0.24 -0.76,-0.37 c -0.06,-0.26 -0.11,-0.51 -0.17,-0.77 c -0.12,-0.74 -0.25,-1.47 -0.38,-2.21 c 0.08,-0.98 0.55,-1.71 1.4,-2.18 Z"/></g>
<g><path fill="#aa6352" fill-opacity="0.31" stroke="#aa6352" stroke-width="0.5" stroke-opacity="0.31" d="M 499.21,320.98 c -0.06,0.31 -0.12,0.62 -0.18,0.93 c -0.34,0.04 -0.67,0.08 -1.01,0.12 c 0.23,-0.54 0.63,-0.89 1.19,-1.05 Z M 496.01,446.87 c -0.37,0.88 -1.88,2.88 -2.88,1.79 c 0.62,-1.11 1.58,-1.7 2.88,-1.79 Z M 335.21,475.83 c -0.06,0.5 -0.12,1 -0.18,1.49 c -0.66,0.85 -1.51,1.4 -2.55,1.66 c -1.02,-0.97 2.02,-2.74 2.73,-3.15 Z M 120.98,496.07 c 0.44,-1.2 1.29,-1.91 2.54,-2.1 c 1.13,1.11 -1.8,2.01 -2.54,2.1 Z"/></g>
<g><path fill="#8e5649" fill-opacity="0.804" d="M 421.75,457.06 c 0.87,0.1 1.71,-0.01 2.53,-0.32 c 0.91,0.08 1.59,0.51 2.03,1.29 c -2.83,0.66 -5.68,0.88 -8.57,0.65 c 1.33,-0.57 2.67,-1.11 4.01,-1.62 Z"/></g>
<g><path fill="#9d5d4e" fill-opacity="0.914" d="M 458.86,181.65 c 0.34,2.55 0.21,5.07 -0.38,7.57 c -2.19,-2.65 -2.06,-5.17 0.38,-7.57 Z"/></g>
<g><path fill="#9e5d4e" fill-opacity="0.906" d="M 458.75,111.76 c 0.28,2.54 0.35,5.08 0.22,7.63 c -2.72,-2 -2.75,-5.51 -0.22,-7.63 Z"/></g>
<g><path fill="#aa6252" fill-opacity="0.463" stroke="#aa6252" stroke-width="0.5" stroke-opacity="0.463" d="M 472.38,82.89 c -0.46,-0.56 -1.04,-0.89 -1.76,-0.99 c 1.14,-0.17 4.12,-3.67 5.03,-2.4 c -0.94,1.27 -2.03,2.4 -3.27,3.39 Z M 149,469.27 c 0.34,-1.35 1.2,-2.11 2.6,-2.28 c 1.51,1.15 -1.88,1.98 -2.6,2.28 Z"/></g>
<g><path fill="#aa6352" fill-opacity="0.294" stroke="#aa6352" stroke-width="0.5" stroke-opacity="0.294" d="M 43.85,100.78 c 0.07,0.52 0.14,1.04 0.21,1.56 c -0.66,0.88 -1.52,1.46 -2.58,1.74 c -0.94,-0.98 1.89,-2.53 2.37,-3.3 Z M 318.95,465.95 c 0.42,-0.06 0.83,-0.11 1.24,-0.17 c -0.12,0.78 -0.58,1.12 -1.36,1.03 c 0.04,-0.29 0.08,-0.57 0.12,-0.86 Z M 311.11,473.86 c -0.05,0.5 -0.1,1.01 -0.14,1.51 c -0.64,0.58 -1.92,2.12 -2.78,1.25 c 0.67,-1.22 1.65,-2.14 2.92,-2.76 Z"/></g>
<g><path fill="#aa6352" fill-opacity="0.486" stroke="#aa6352" stroke-width="0.5" stroke-opacity="0.486" d="M 42.03,64.98 c 0.32,-0.58 0.8,-0.92 1.45,-1.03 c 1.08,0.7 -0.97,1.22 -1.45,1.03 Z M 468.21,201.88 c -0.09,-0.36 -0.17,-0.73 -0.26,-1.1 c 0.49,-0.63 1.89,-2.11 2.67,-1.3 c -0.53,1.08 -1.33,1.88 -2.41,2.4 Z M 385.63,498.15 c 0.34,-1.52 1.3,-2.25 2.86,-2.18 c 1.21,1.19 -2.22,1.89 -2.86,2.18 Z"/></g>
<g><path fill="#a96353" fill-opacity="0.522" stroke="#a96353" stroke-width="0.5" stroke-opacity="0.522" d="M 491.97,161.52 c 0.36,0.06 0.72,0.12 1.08,0.17 c -0.72,0.83 -1.53,1.6 -2.43,2.31 c -0.53,0.26 -1.76,1.43 -2.17,0.48 c 0.89,-1.3 2.07,-2.29 3.52,-2.96 Z M 36.14,394.76 c -0.47,0.33 -1.2,2.08 -1.87,1.61 c 0.26,-0.93 0.88,-1.47 1.87,-1.61 Z"/></g>
<g><path fill="#aa6352" fill-opacity="0.498" stroke="#aa6352" stroke-width="0.5" stroke-opacity="0.498" d="M 465.18,263.01 c -0.09,-0.67 -0.1,-1.34 -0.02,-2.02 c 0.66,-0.24 1.92,-1.33 2.46,-0.54 c -0.65,1.01 -1.46,1.86 -2.44,2.56 Z M 24.03,444.36 c -0.03,-0.57 -0.05,-1.14 -0.07,-1.7 c 0.6,-0.83 1.42,-1.28 2.44,-1.37 c 0.47,0.63 -2.13,2.3 -2.37,3.07 Z"/></g>
<g><path fill="#92584b" fill-opacity="0.784" d="M 462.36,505.03 c -0.23,1.04 -3.43,1.7 -4.32,2.55 c -1.06,0.02 -2.08,-0.18 -3.06,-0.61 c 0.52,-1.4 5.94,-1.54 7.38,-1.94 Z"/></g>
<g><path fill="#8b5548" fill-opacity="0.651" d="M 4.28,124.87 c 0.88,2.4 1.77,4.79 2.67,7.16 c -3.13,-1.54 -2.98,-4.09 -2.67,-7.16 Z"/></g>
<g><path fill="#9a5949" fill-opacity="0.243" stroke="#9a5949" stroke-width="0.5" stroke-opacity="0.243" d="M 175.93,46.06 c -0.69,0.13 -1.35,0.02 -1.98,-0.32 c 1.62,-1.19 3.32,-2.3 5.08,-3.32 c 0.44,-0.31 0.93,-0.45 1.46,-0.42 c 0.88,0.85 -3.78,3.63 -4.56,4.06 Z"/></g>
<g><path fill="#8b5545" fill-opacity="0.216" stroke="#8b5545" stroke-width="0.5" stroke-opacity="0.216" d="M 22.89,42.32 c 0.65,-0.23 1.31,-0.31 2,-0.23 c 0.3,1.22 -3.88,3.96 -4.73,4.82 c 0.46,-1.79 1.37,-3.32 2.73,-4.59 Z"/></g>
<g><path fill="#9b5c4d" fill-opacity="0.702" d="M 54.88,128.97 c 0.44,2.82 -0.64,4.83 -3.25,6.04 c 0.94,-1.75 1.76,-3.56 2.46,-5.42 c 0.16,-0.35 0.42,-0.55 0.79,-0.62 Z"/></g>
<g><path fill="#834b42" fill-opacity="0.137" stroke="#834b42" stroke-width="0.5" stroke-opacity="0.137" d="M 337,43.15 c 0.43,0.19 0.77,0.48 1.05,0.85 c -0.87,0.55 -1.64,1.21 -2.31,1.99 c -1.24,-0.11 -2.47,-0.18 -3.71,-0.21 c 1.56,-1.08 3.22,-1.95 4.97,-2.63 Z"/></g>
<g><path fill="#ab6352" fill-opacity="0.443" stroke="#ab6352" stroke-width="0.5" stroke-opacity="0.443" d="M 101.01,13.34 c 0.45,-0.08 0.9,-0.15 1.35,-0.22 c -0.39,0.53 -0.92,0.81 -1.6,0.84 c 0.08,-0.21 0.17,-0.42 0.25,-0.62 Z M 56.03,28.77 c -0.2,1.02 -1.94,2.91 -2.89,1.83 c 0.71,-0.98 1.67,-1.59 2.89,-1.83 Z M 358.97,43 c 0.05,-0.78 1.25,-1.56 1.8,-0.7 c -0.45,0.59 -1.05,0.82 -1.8,0.7 Z M 271.22,498.06 c -0.05,0.25 -0.11,0.51 -0.17,0.76 c -0.36,0.09 -0.72,0.18 -1.08,0.27 c 0.12,-0.7 0.54,-1.04 1.25,-1.03 Z"/></g>
<g><path fill="#a96452" fill-opacity="0.325" stroke="#a96452" stroke-width="0.5" stroke-opacity="0.325" d="M 470.28,244.1 c -0.38,-0.53 -0.85,-0.96 -1.43,-1.27 c 1.2,-0.69 2.42,-1.3 3.68,-1.83 c 1.08,0.97 -1.62,2.55 -2.25,3.1 Z M 498.74,317 c 0.14,0.36 0.29,0.72 0.43,1.09 c -0.4,-0.15 -0.79,-0.3 -1.19,-0.45 c 0.23,-0.24 0.48,-0.46 0.76,-0.64 Z M 494.88,419.05 c 0.06,-0.46 0.31,-0.75 0.75,-0.88 c 0.95,0.48 -0.51,0.82 -0.75,0.88 Z"/></g>
<g><path fill="#5ec87e" fill-opacity="0.298" stroke="#5ec87e" stroke-width="0.5" stroke-opacity="0.298" d="M 207.72,218.06 c 0.1,0.41 0.2,0.82 0.3,1.22 c -1.42,1.37 -3.09,2.29 -5,2.78 c 0.45,-1.64 3.39,-2.98 4.7,-4 Z"/></g>
<g><path fill="#965648" fill-opacity="0.133" stroke="#965648" stroke-width="0.5" stroke-opacity="0.133" d="M 263.45,39.03 c 0.19,-0.95 -0.17,-1.53 -1.08,-1.74 c 1.27,-0.9 2.69,-1.66 4.26,-2.26 c 0.13,0.12 0.25,0.23 0.37,0.34 c -1.03,1.35 -2.22,2.57 -3.55,3.66 Z"/></g>
<g><path fill="#955548" fill-opacity="0.239" stroke="#955548" stroke-width="0.5" stroke-opacity="0.239" d="M 498.76,185.03 c 0.12,0.96 0.18,1.92 0.2,2.89 c -1.22,0.33 -2.41,0.72 -3.58,1.18 c -0.86,-1.09 2.7,-3.32 3.38,-4.07 Z"/></g>
<g><path fill="#95574a" fill-opacity="0.145" stroke="#95574a" stroke-width="0.5" stroke-opacity="0.145" d="M 391.65,471.97 c -0.26,0.94 0.07,1.54 0.97,1.79 c -1.09,0.6 -2.21,1.27 -3.38,2.03 c -0.47,0.27 -0.87,0.23 -1.22,-0.13 c 1.05,-1.37 2.26,-2.6 3.63,-3.69 Z"/></g>
<g><path fill="#ab6352" fill-opacity="0.424" stroke="#ab6352" stroke-width="0.5" stroke-opacity="0.424" d="M 70.11,37.87 c -0.51,1.18 -1.38,1.9 -2.6,2.16 c -0.4,-1.37 1.62,-1.86 2.6,-2.16 Z M 9.84,86.92 c 0.48,0.06 0.96,0.12 1.44,0.18 c -0.31,0.36 -0.67,0.65 -1.09,0.85 c -0.11,-0.34 -0.23,-0.69 -0.35,-1.03 Z M 498.72,243.89 c 0.2,0.68 0.24,1.38 0.13,2.08 c -2.52,0.42 -1.52,-1.31 -0.13,-2.08 Z"/></g>
<g><path fill="#90574a" fill-opacity="0.733" d="M 5,443.98 c 1.19,0.15 0.68,4.37 1,5.29 c -1.86,-0.49 -1.73,-3.9 -1,-5.29 Z"/></g>
<g><path fill="#925546" fill-opacity="0.208" stroke="#925546" stroke-width="0.5" stroke-opacity="0.208" d="M 358.97,43 c -0.38,1.2 -1.1,2.16 -2.17,2.88 c -0.91,-0.22 -1.83,-0.27 -2.75,-0.14 c 1.37,-1.4 3.01,-2.32 4.92,-2.74 Z"/></g>
<g><path fill="#aa6352" fill-opacity="0.471" stroke="#aa6352" stroke-width="0.5" stroke-opacity="0.471" d="M 208.8,38.18 c 0.45,-1.27 1.34,-1.97 2.66,-2.09 c 0.79,1.31 -1.93,1.43 -2.66,2.09 Z M 499.83,400.87 c 0.12,0.7 0.13,1.39 0.02,2.09 c -2.51,0.43 -1.57,-1.41 -0.02,-2.09 Z"/></g>
<g><path fill="#93584b" fill-opacity="0.804" d="M 497.98,481.97 c -0.12,1.99 -1.06,3.37 -2.84,4.15 c 0.12,-1.94 1.07,-3.32 2.84,-4.15 Z M 495.14,486.12 c -0.28,0.56 -0.76,0.86 -1.42,0.91 c 0.32,-0.54 0.8,-0.84 1.42,-0.91 Z"/></g>
<g><path fill="#aa6353" fill-opacity="0.294" stroke="#aa6353" stroke-width="0.5" stroke-opacity="0.294" d="M 48.18,99.9 c -0.09,0.38 -0.19,0.76 -0.28,1.15 c -0.31,0 -0.63,0.01 -0.95,0.01 c 0.25,-0.55 0.65,-0.94 1.23,-1.16 Z M 465.33,368.9 c 0.28,0.38 0.29,0.78 0.03,1.19 c -0.01,-0.4 -0.02,-0.8 -0.03,-1.19 Z M 202.21,475.8 c -0.09,0.47 -0.18,0.94 -0.27,1.41 c -0.51,0.66 -1.88,2.41 -2.71,1.44 c 0.67,-1.28 1.66,-2.22 2.98,-2.85 Z"/></g>
<g><path fill="#8f5345" fill-opacity="0.145" stroke="#8f5345" stroke-width="0.5" stroke-opacity="0.145" d="M 132.48,36.04 c 0.15,-0.97 -0.25,-1.52 -1.18,-1.66 c 3.77,-2.72 4.79,-1.34 1.18,1.66 Z"/></g>
<g><path fill="#ab6452" fill-opacity="0.173" stroke="#ab6452" stroke-width="0.5" stroke-opacity="0.173" d="M 44.25,7.22 c -0.1,0.13 -0.19,0.26 -0.29,0.39 c -0.33,0.12 -0.65,0.24 -0.97,0.36 c 0.16,-0.66 0.58,-0.91 1.26,-0.75 Z M 457.23,101.96 c 0.23,0.02 0.46,0.04 0.69,0.06 c 0.03,0.33 0.06,0.66 0.09,0.98 c -0.62,-0.06 -0.88,-0.41 -0.78,-1.04 Z M 456.95,241.96 c 0.02,0.69 0.03,1.37 0.05,2.06 c -1.16,0.12 -1.5,-1.86 -0.05,-2.06 Z M 456.64,396.81 c 0.13,0.74 0.26,1.47 0.38,2.21 c -1.18,0.31 -1.27,-1.68 -0.38,-2.21 Z"/></g>
<g><path fill="#9a5b4d" fill-opacity="0.765" d="M 8.29,377.08 c -0.34,0.51 -0.82,0.78 -1.44,0.82 c 0.29,-0.54 0.77,-0.82 1.44,-0.82 Z M 6.85,377.9 c 0.17,1.26 -0.57,3.74 -1.87,4.1 c -0.22,-1.76 0.4,-3.12 1.87,-4.1 Z"/></g>
<g><path fill="#895447" fill-opacity="0.816" d="M 49.04,5.98 c -0.72,1.23 -3.69,1.88 -5.08,1.63 c 0.1,-0.13 0.19,-0.26 0.29,-0.39 c 1.31,-1.71 2.89,-1.18 4.79,-1.24 Z"/></g>
<g><path fill="#8e5143" fill-opacity="0.145" stroke="#8e5143" stroke-width="0.5" stroke-opacity="0.145" d="M 358.83,489.18 c 0.15,1.06 -1.8,2.08 -2.38,2.86 c 0.07,-1.11 -0.46,-1.58 -1.56,-1.4 c 1.2,-0.52 2.51,-2.03 3.94,-1.46 Z"/></g>
<g><path fill="#a86251" fill-opacity="0.741" d="M 375.06,457.92 c -1.65,0.74 -4.59,-0.09 -6.41,-0.04 c 0.44,-1.39 6.41,-1.53 6.41,0.04 Z"/></g>
<g><path fill="#895447" fill-opacity="0.761" d="M 22.22,491.89 c 1.73,0.59 2.99,1.71 3.79,3.37 c -1.63,-0.59 -3.92,-1.25 -3.79,-3.37 Z"/></g>
<g><path fill="#50a66a" fill-opacity="0.153" stroke="#50a66a" stroke-width="0.5" stroke-opacity="0.153" d="M 263.91,191.11 c -0.57,1.19 -1.41,2.16 -2.53,2.92 c 0.13,-1.1 -0.36,-1.58 -1.47,-1.44 c 1.18,-0.97 2.51,-1.46 4,-1.48 Z"/></g>
<g><path fill="#94594b" fill-opacity="0.729" d="M 463.19,6.59 c -1.86,-0.03 -3.69,-0.27 -5.5,-0.73 c 0.71,-1.72 4.6,-0.71 5.5,0.73 Z"/></g>
<g><path fill="#5dc277" fill-opacity="0.22" stroke="#5dc277" stroke-width="0.5" stroke-opacity="0.22" d="M 247.27,176.23 c 0.18,-1.22 -0.34,-1.71 -1.56,-1.48 c 1.18,-0.84 2.47,-1.46 3.85,-1.85 c 1,1 -1.86,2.5 -2.29,3.33 Z"/></g>
<g><path fill="#aa6052" fill-opacity="0.22" stroke="#aa6052" stroke-width="0.5" stroke-opacity="0.22" d="M 467.96,83.06 c 0.36,-0.05 0.72,-0.1 1.08,-0.14 c -0.21,0.51 -0.57,0.88 -1.08,1.11 c 0,-0.33 0,-0.65 0,-0.97 Z M 469.13,102.15 c -0.19,-0.73 -0.22,-1.48 -0.09,-2.23 c 0.73,-0.52 1.53,-0.86 2.42,-1 c 0.9,0.94 -1.77,2.6 -2.33,3.23 Z"/></g>
<g><path fill="#a36859" fill-opacity="0.365" stroke="#a36859" stroke-width="0.5" stroke-opacity="0.365" d="M 498.04,257.63 c 0.79,0.24 1.1,0.77 0.92,1.59 c -0.82,0.29 -2.91,2.29 -3.72,1.33 c 0.9,-0.98 1.83,-1.96 2.8,-2.92 Z"/></g>
<g><path fill="#ab6252" fill-opacity="0.529" stroke="#ab6252" stroke-width="0.5" stroke-opacity="0.529" d="M 468.14,28.61 c 0.32,0.06 0.63,0.12 0.95,0.18 c -1.06,1 -2.26,1.87 -3.58,2.62 c -1.08,-0.76 2.02,-2.71 2.63,-2.8 Z"/></g>
<g><path fill="#ac6351" fill-opacity="0.231" stroke="#ac6351" stroke-width="0.5" stroke-opacity="0.231" d="M 498.83,170.87 c 0.13,0.74 0.13,1.48 0.02,2.22 c -0.74,0.23 -2.09,1.58 -2.66,0.56 c 0.69,-1.09 1.57,-2.02 2.64,-2.78 Z"/></g>
<g><path fill="#a86552" fill-opacity="0.188" stroke="#a86552" stroke-width="0.5" stroke-opacity="0.188" d="M 465.27,190.06 c -0.15,-0.69 -0.16,-1.39 -0.05,-2.09 c 0.71,-0.36 1.96,-1.47 2.64,-0.59 c -0.67,1.06 -1.54,1.96 -2.59,2.68 Z"/></g>
<g><path fill="#995b4c" fill-opacity="0.89" d="M 457.86,376.65 c 0.19,1.87 0.18,3.74 -0.04,5.61 c -0.37,-0.47 -0.65,-0.98 -0.85,-1.53 c -0.01,-0.83 -0.01,-1.66 0.02,-2.49 c 0.21,-0.57 0.49,-1.11 0.87,-1.59 Z"/></g>
<g><path fill="#9d5d4e" fill-opacity="0.871" d="M 457.78,96.65 c 0.3,1.78 0.35,3.58 0.14,5.37 c -0.23,-0.02 -0.46,-0.04 -0.69,-0.06 c -0.27,-1.52 -0.89,-4.27 0.55,-5.31 Z"/></g>
<g><path fill="#9c5d4d" fill-opacity="0.859" d="M 457.18,211.99 c 0.19,0.04 0.38,0.07 0.57,0.11 c 0.3,1.74 0.33,3.48 0.09,5.24 c -1.57,-0.93 -0.79,-3.84 -0.66,-5.35 Z"/></g>
<g><path fill="#a96352" fill-opacity="0.267" stroke="#a96352" stroke-width="0.5" stroke-opacity="0.267" d="M 40.01,48.98 c -0.55,1.43 -1.53,2.45 -2.95,3.05 c -0.05,-0.43 -0.1,-0.87 -0.14,-1.31 c 0.83,-0.93 1.86,-1.51 3.09,-1.74 Z"/></g>
<g><path fill="#835947" fill-opacity="0.031" stroke="#835947" stroke-width="0.5" stroke-opacity="0.031" d="M 469,67.95 c -0.44,1.45 -1.37,2.41 -2.79,2.88 c -0.24,-0.54 -0.24,-1.09 -0.01,-1.63 c 0.72,-0.89 1.66,-1.3 2.8,-1.25 Z"/></g>
<g><path fill="#aa6253" fill-opacity="0.388" stroke="#aa6253" stroke-width="0.5" stroke-opacity="0.388" d="M 230.31,44.92 c -0.11,0.34 -0.22,0.68 -0.33,1.02 c -0.37,0.05 -0.74,0.1 -1.11,0.15 c 0.22,-0.7 0.7,-1.09 1.44,-1.17 Z M 493.75,91.36 c -0.2,0.38 -0.45,0.73 -0.76,1.04 c -1.48,0.89 -1.79,0.61 -0.94,-0.84 c 0.53,-0.37 1.1,-0.44 1.7,-0.2 Z"/></g>
<g><path fill="#b0694c" fill-opacity="0.102" stroke="#b0694c" stroke-width="0.5" stroke-opacity="0.102" d="M 467.95,200.78 c 0.09,0.37 0.17,0.74 0.26,1.1 c -0.96,0.79 -1.95,1.54 -2.97,2.26 c -0.13,-0.72 -0.1,-1.44 0.07,-2.15 c 0.84,-0.49 1.72,-0.89 2.64,-1.21 Z"/></g>
<g><path fill="#a86451" fill-opacity="0.153" stroke="#a86451" stroke-width="0.5" stroke-opacity="0.153" d="M 121.96,55.02 c 0.69,0 1.38,0 2.07,0 c 0.01,1.22 -1.79,1.28 -2.07,0 Z M 37.45,422.98 c 0.22,0.47 0.43,0.93 0.65,1.4 c -0.5,0.46 -1.39,1.18 -1.9,0.3 c 0.25,-0.68 0.67,-1.25 1.25,-1.7 Z"/></g>
<g><path fill="#90574a" fill-opacity="0.765" d="M 22.32,20.03 c -0.25,1.67 -1.15,2.18 -2.69,1.5 c 0.73,-0.8 1.63,-1.3 2.69,-1.5 Z M 19.63,21.53 c 0.29,0.72 0.06,1.1 -0.68,1.11 c 0.16,-0.41 0.38,-0.78 0.68,-1.11 Z"/></g>
<g><path fill="#a76251" fill-opacity="0.384" stroke="#a76251" stroke-width="0.5" stroke-opacity="0.384" d="M 462.67,60.08 c -0.5,-0.5 -0.76,-1.11 -0.78,-1.83 c 0.72,-0.33 1.99,-1.48 2.72,-0.7 c -0.56,0.9 -1.21,1.74 -1.94,2.53 Z"/></g>
<g><path fill="#a96352" fill-opacity="0.208" stroke="#a96352" stroke-width="0.5" stroke-opacity="0.208" d="M 498.84,139.99 c 0.03,0.69 0.08,1.38 0.14,2.07 c -0.88,0.09 -2.09,1.53 -2.83,0.58 c 0.6,-1.17 1.5,-2.05 2.69,-2.65 Z M 457.12,222.59 c 0.04,0.93 0.05,1.86 0.02,2.79 c -1.31,-0.15 -1.49,-2.42 -0.02,-2.79 Z"/></g>
<g><path fill="#3f6f4d" fill-opacity="0.475" stroke="#3f6f4d" stroke-width="0.5" stroke-opacity="0.475" d="M 126.66,276.33 c 0.16,0.12 0.33,0.24 0.49,0.36 c -0.13,0.32 -0.25,0.64 -0.38,0.95 c -0.94,0.16 -1.89,0.19 -2.84,0.09 c 0.83,-0.62 1.74,-1.09 2.73,-1.4 Z"/></g>
<g><path fill="#af664f" fill-opacity="0.098" stroke="#af664f" stroke-width="0.5" stroke-opacity="0.098" d="M 229.86,13.85 c 0.65,0.02 1.09,0.32 1.33,0.89 c -0.94,0.7 -1.98,1.13 -3.13,1.29 c 0.33,-0.95 0.93,-1.68 1.8,-2.18 Z"/></g>
<g><path fill="#915749" fill-opacity="0.608" d="M 474.86,10.37 c 0.85,-0.41 3.55,-0.92 2.92,0.93 c -1.02,-0.18 -1.99,-0.49 -2.92,-0.93 Z M 477.78,11.3 c 0.6,0.02 1.03,0.3 1.29,0.85 c -0.5,-0.18 -0.93,-0.46 -1.29,-0.85 Z"/></g>
<g><path fill="#bf463f" fill-opacity="0.086" stroke="#bf463f" stroke-width="0.5" stroke-opacity="0.086" d="M 120.98,496.07 c -0.25,0.89 -0.8,1.51 -1.66,1.88 c -0.65,0.06 -1.17,-0.15 -1.58,-0.64 c 0.93,-0.82 2.01,-1.23 3.24,-1.24 Z"/></g>
<g><path fill="#3f6f4e" fill-opacity="0.384" stroke="#3f6f4e" stroke-width="0.5" stroke-opacity="0.384" d="M 209.17,217.33 c 0.9,0.02 1.8,0.02 2.71,0.01 c -0.85,0.72 -1.79,1.27 -2.83,1.67 c 0.04,-0.35 0.09,-0.69 0.13,-1.04 c -0.01,-0.21 -0.01,-0.42 -0.01,-0.64 Z"/></g>
<g><path fill="#488559" fill-opacity="0.765" d="M 283.97,142.97 c 0.62,0.07 3.4,-0.17 3.18,0.86 c -1.31,0.52 -2.37,0.24 -3.18,-0.86 Z M 287.15,143.83 c 0.36,0.24 0.7,0.51 1.02,0.79 c -0.52,-0.03 -0.86,-0.29 -1.02,-0.79 Z"/></g>
<g><path fill="#8e5649" fill-opacity="0.863" d="M 506.85,457.95 c 0.55,1.52 0.36,2.94 -0.56,4.26 c -0.57,-1.55 -0.38,-2.97 0.56,-4.26 Z"/></g>
<g><path fill="#bf493f" fill-opacity="0.161" stroke="#bf493f" stroke-width="0.5" stroke-opacity="0.161" d="M 497.98,444.67 c 0.66,0.23 1.01,0.69 1.04,1.39 c -0.91,0.64 -1.92,0.92 -3.01,0.81 c 0.45,-0.9 1.11,-1.63 1.97,-2.2 Z"/></g>
<g><path fill="#60c77d" fill-opacity="0.349" d="M 247.27,176.23 c -0.35,0.35 -0.7,0.69 -1.06,1.03 c 0.05,-0.66 0.4,-1 1.06,-1.03 Z M 294.22,226.74 c -0.17,0.91 -1.48,2.02 -2.23,0.96 c 0.58,-0.68 1.32,-1 2.23,-0.96 Z"/></g>
<g><path fill="#8a5648" fill-opacity="0.294" stroke="#8a5648" stroke-width="0.5" stroke-opacity="0.294" d="M 55.07,86.63 c 1.5,0.62 1.3,3.03 0.04,3.78 c -0.07,-1.26 -0.08,-2.52 -0.04,-3.78 Z"/></g>
<g><path fill="#ab6652" fill-opacity="0.153" stroke="#ab6652" stroke-width="0.5" stroke-opacity="0.153" d="M 457.25,427.86 c -0.21,1.04 -0.29,2.09 -0.26,3.15 c -1.77,-0.01 -1.51,-3.13 0.26,-3.15 Z"/></g>
<g><path fill="#aa6553" fill-opacity="0.145" d="M 456.99,378.24 c -0.03,0.83 -0.03,1.66 -0.02,2.49 c -0.81,0.04 -1.17,-0.37 -1.08,-1.23 c -0.09,-0.87 0.28,-1.29 1.1,-1.26 Z"/></g>
<g><path fill="#97594b" fill-opacity="0.478" stroke="#97594b" stroke-width="0.5" stroke-opacity="0.478" d="M 493.27,42.26 c 0.77,-0.18 0.61,0.99 0.68,1.45 c -1.96,0.3 -2.18,-0.19 -0.68,-1.45 Z"/></g>
<g><path fill="#ab6453" fill-opacity="0.216" stroke="#ab6453" stroke-width="0.5" stroke-opacity="0.216" d="M 466.15,156 c 0.66,-0.19 1.23,-0.07 1.69,0.38 c -0.36,0.72 -0.9,1.29 -1.62,1.69 c -0.11,-0.69 -0.13,-1.38 -0.07,-2.07 Z"/></g>
<g><path fill="#ab6352" fill-opacity="0.408" stroke="#ab6352" stroke-width="0.5" stroke-opacity="0.408" d="M 40.01,48.98 c 0.07,-0.77 1.29,-1.54 1.84,-0.69 c -0.47,0.6 -1.08,0.83 -1.84,0.69 Z M 45.89,80.88 c 0.15,0.33 0.31,0.66 0.47,0.99 c -0.56,0.03 -1.12,0.07 -1.68,0.1 c 0.4,-0.37 0.8,-0.73 1.21,-1.09 Z"/></g>
<g><path fill="#ab6254" fill-opacity="0.145" stroke="#ab6254" stroke-width="0.5" stroke-opacity="0.145" d="M 41.41,457.99 c 0.2,0.45 0.41,0.9 0.61,1.36 c -0.4,0.49 -1.33,1.27 -1.79,0.36 c 0.22,-0.69 0.61,-1.26 1.18,-1.72 Z"/></g>
<g><path fill="#aa6352" fill-opacity="0.933" d="M 458.06,140.54 c 2.53,0.58 1.25,5.02 0.96,6.79 c -2.47,-1.94 -2.79,-4.2 -0.96,-6.79 Z"/></g>
<g><path fill="#ad6451" fill-opacity="0.153" stroke="#ad6451" stroke-width="0.5" stroke-opacity="0.153" d="M 465.29,273.99 c 0.65,-0.26 1.2,-0.15 1.64,0.34 c -0.32,0.78 -0.86,1.37 -1.61,1.77 c -0.14,-0.7 -0.15,-1.41 -0.03,-2.11 Z"/></g>
<g><path fill="#60c87e" fill-opacity="0.251" stroke="#60c87e" stroke-width="0.5" stroke-opacity="0.251" d="M 130.02,275.01 c -0.31,0.87 -0.89,1.45 -1.74,1.76 c -0.16,-0.3 -0.32,-0.6 -0.48,-0.9 c 0.56,-0.72 1.3,-1.01 2.22,-0.86 Z"/></g>
<g><path fill="#a25e4e" fill-opacity="0.42" stroke="#a25e4e" stroke-width="0.5" stroke-opacity="0.42" d="M 19.76,127.83 c -0.48,-0.15 -0.77,-0.48 -0.88,-0.98 c 1.99,-1.03 2.29,-0.7 0.88,0.98 Z"/></g>
<g><path fill="#a86352" fill-opacity="0.282" stroke="#a86352" stroke-width="0.5" stroke-opacity="0.282" d="M 45.89,17.95 c 0.07,0.42 0.14,0.84 0.21,1.26 c -0.56,0.69 -1.28,0.91 -2.18,0.67 c 0.08,-0.28 0.16,-0.57 0.23,-0.86 c 0.47,-0.54 1.05,-0.9 1.74,-1.07 Z"/></g>
<g><path fill="#905749" fill-opacity="0.871" d="M 457.91,413.63 c 0.08,1.42 0.69,4.73 -0.67,5.61 c -0.23,-1.17 -0.96,-5.24 0.67,-5.61 Z"/></g>
<g><path fill="#a96453" fill-opacity="0.361" stroke="#a96453" stroke-width="0.5" stroke-opacity="0.361" d="M 467.01,244.15 c -0.22,0.6 -0.66,0.88 -1.32,0.81 c 0.44,-0.28 0.88,-0.55 1.32,-0.81 Z M 465.31,332.97 c 0.3,0.1 0.61,0.19 0.91,0.28 c -0.42,0.36 -0.89,0.65 -1.4,0.87 c 0.16,-0.38 0.33,-0.76 0.49,-1.15 Z M 498.82,352.01 c 0.01,0.35 0.01,0.69 0.02,1.03 c -0.52,-0.29 -0.53,-0.64 -0.02,-1.03 Z"/></g>
<g><path fill="#60c77c" fill-opacity="0.427" d="M 284.13,153.18 c 0.41,0.01 0.82,0.01 1.23,0.02 c -0.48,0.41 -1.04,0.66 -1.67,0.75 c 0.14,-0.26 0.29,-0.52 0.44,-0.77 Z M 246.21,177.26 c -0.35,0.31 -0.74,0.57 -1.16,0.77 c 0.11,-0.65 0.49,-0.91 1.16,-0.77 Z"/></g>
<g><path fill="#aa6352" fill-opacity="0.996" stroke="#aa6352" stroke-width="0.5" stroke-opacity="0.996" d="M 391.22,11.25 c -1.97,1.84 -3.98,3.62 -6.04,5.33 c -1.05,0.44 -1.98,1.04 -2.8,1.79 c 0.47,0.43 1.02,0.54 1.64,0.33 c 3.18,-2.85 7.7,-4.5 11.28,-6.89 c 0.27,-0.19 0.39,-0.43 0.36,-0.75 c 5.57,-0.21 11.13,-0.22 16.69,-0.02 c -0.3,0.61 -0.71,1.15 -1.21,1.61 c -2.03,1.52 -3.97,3.09 -5.83,4.71 c 0.94,1.03 1.65,-0.72 2.39,-1.1 c 1.99,-1.01 3.98,-2.02 5.97,-3.03 c 1.18,-0.61 2.23,-1.37 3.15,-2.28 c 5.21,-0.12 10.38,0.24 15.52,1.07 c -5.55,5.9 -11.21,11.68 -16.98,17.35 c 0.49,0.36 1.03,0.42 1.62,0.18 c 8.99,-5.36 18.02,-10.66 27.09,-15.89 c 4.52,0.34 8.95,1.2 13.29,2.57 c 0.31,0.13 0.49,0.36 0.51,0.69 c -2.12,2.08 -4.43,3.92 -6.93,5.53 c -0.89,0.78 -0.75,1.14 0.41,1.07 c 0.48,-0.38 0.95,-0.78 1.4,-1.21 c 2.88,-1.39 5.67,-2.95 8.35,-4.69 c 3.68,0.81 9.71,2.78 12.28,5.5 c -1.94,1.47 -3.97,3.42 -5.24,5.49 c -0.61,0.09 -3.71,2.04 -2.63,2.8 c 1.32,-0.75 2.52,-1.62 3.58,-2.62 c 2.72,-1.19 5.35,-2.57 7.88,-4.15 c 3.42,2.05 6.47,4.54 9.16,7.47 c -0.63,0.16 -1.17,0.46 -1.62,0.91 c -1.38,1.47 -2.75,2.92 -4.13,4.35 c 0.53,0.31 1.06,0.29 1.6,-0.06 c 1.32,-1.6 4.18,-2.44 5.95,-3.68 c 1.66,2.58 4.77,5.57 5.34,8.63 c -1.5,1.26 -1.28,1.75 0.68,1.45 c 1.79,1.21 3.37,7.24 3.82,9.44 c -2.35,1.88 -4.49,3.96 -6.44,6.24 c 1.06,0.66 5.55,-2.62 6.77,-3.14 c 0.3,0.02 0.51,0.17 0.62,0.47 c 0.59,4.16 0.71,8.33 0.35,12.51 c -0.63,0.06 -1.18,0.29 -1.66,0.7 c -2.16,2.06 -4.2,4.21 -6.12,6.44 c 0.55,0.27 1.1,0.24 1.67,-0.08 c 2.1,-1.08 4.14,-2.27 6.13,-3.54 c 0.23,4.51 0.22,9.02 -0.04,13.54 c -1.66,-0.13 -5,3.54 -5.3,5.07 c -0.6,-0.24 -1.17,-0.17 -1.7,0.2 c -0.85,1.45 -0.54,1.73 0.94,0.84 c 0.31,-0.31 0.56,-0.66 0.76,-1.04 c 1.84,-0.68 3.59,-1.54 5.26,-2.57 c 0.3,4.5 0.33,8.99 0.06,13.49 c -0.62,0.06 -1.16,0.28 -1.64,0.67 c -2.16,2.05 -4.2,4.19 -6.11,6.43 c 0.54,0.26 1.1,0.24 1.66,-0.06 c 2.1,-1.06 4.13,-2.26 6.08,-3.61 c 0.3,11.43 0.23,22.86 -0.22,34.28 c -1.19,0.6 -2.09,1.48 -2.69,2.65 c 0.74,0.95 1.95,-0.49 2.83,-0.58 c 0.34,4.38 0.37,8.77 0.08,13.16 c -1.92,0.07 -5.65,4.88 -7.09,6.3 c -1.45,0.67 -2.63,1.66 -3.52,2.96 c 0.41,0.95 1.64,-0.22 2.17,-0.48 c 0.9,-0.71 1.71,-1.48 2.43,-2.31 c 2.12,-0.68 4.11,-1.67 5.96,-2.96 c 0.38,3.51 0.52,8.75 -0.18,12.14 c -1.07,0.76 -1.95,1.69 -2.64,2.78 c 0.57,1.02 1.92,-0.33 2.66,-0.56 c 0.65,2.41 0.66,9.52 -0.09,11.94 c -0.68,0.75 -4.24,2.98 -3.38,4.07 c 1.17,-0.46 2.36,-0.85 3.58,-1.18 c -0.1,5.05 0.83,18.76 -0.62,22.81 c -3.16,3.09 -6.2,6.28 -9.09,9.58 c 0.56,0.26 1.14,0.25 1.72,-0.03 c 2.72,-1.46 5.4,-2.99 8.05,-4.57 c 0.35,4.51 0.31,9.03 -0.1,13.54 c -0.6,-0.01 -1.13,0.18 -1.58,0.59 c -2.23,2.28 -4.53,4.44 -6.9,6.49 c 0.83,0.97 2.12,-1.29 2.99,-1.43 c 1.91,-1 3.83,-1.98 5.77,-2.95 c -0.13,3.14 0.57,9.19 -0.48,11.94 c -1.39,0.77 -2.39,2.5 0.13,2.08 c 0.38,2.05 1.27,10.45 -0.81,11.66 c -0.97,0.96 -1.9,1.94 -2.8,2.92 c 0.81,0.96 2.9,-1.04 3.72,-1.33 c 0.35,4.32 0.39,8.64 0.11,12.96 c -0.56,0.22 -1.09,0.51 -1.57,0.87 c -2.15,2.06 -4.23,4.16 -6.24,6.3 c 0.57,0.28 1.14,0.25 1.69,-0.12 c 2.08,-1.11 4.11,-2.29 6.11,-3.54 c -0.21,4.09 1.11,23.05 -1.16,25.23 c -2.52,2.51 -5.02,5 -7.51,7.46 c 0.53,0.32 1.07,0.31 1.62,-0.02 c 2.4,-1.52 4.8,-3.01 7.21,-4.47 c -0.15,3.67 0.53,9.76 -0.48,13.11 c -0.28,0.18 -0.53,0.4 -0.76,0.64 c -2.53,2.63 -5.09,5.22 -7.66,7.77 c 0.23,0.27 0.52,0.33 0.87,0.18 c 2.35,-1.05 4.62,-2.24 6.83,-3.56 c 0.34,-0.04 0.67,-0.08 1.01,-0.12 c 0.31,3.9 0.47,9.59 -0.13,13.35 c -0.57,0.04 -1.07,0.26 -1.49,0.66 c -3.12,3.11 -6.16,6.29 -9.1,9.55 c 0.34,0.18 0.68,0.19 1.04,0.03 c 3.28,-1.91 6.59,-3.77 9.92,-5.58 c -0.19,3.64 0.41,8.68 -0.45,12.09 c -0.51,0.39 -0.5,0.74 0.02,1.03 c 0.77,3.24 0.44,9.71 0.17,13.22 c -0.54,0.19 -1.04,0.46 -1.49,0.81 c -3.07,3.1 -6.12,6.2 -9.16,9.29 c 0.5,0.36 1.03,0.37 1.58,0.02 c 3.07,-1.87 6.15,-3.66 9.26,-5.38 c 0.16,4.31 0.18,8.63 0.06,12.94 c -1.62,1.57 -9.8,9.25 -10.07,10.74 c -0.8,0.41 -2.87,0.96 -2.64,2.11 c 1.52,-0.12 2.7,-0.82 3.53,-2.12 c 3.25,-1.41 6.35,-3.11 9.32,-5.09 c 0.94,1.76 0.75,8.99 0.43,11.29 c -1.55,0.68 -2.49,2.52 0.02,2.09 c 0.97,2.71 0.73,7.33 0.93,10.24 c -1.23,0.99 -3.55,2.53 -3.61,4.23 c 1.17,-0.46 2.36,-1.01 3.56,-1.64 c 0.18,3.42 0.15,6.85 -0.08,10.28 c -0.8,0.15 -1.54,0.43 -2.24,0.86 c -11.59,6.7 -23.17,13.4 -34.76,20.1 c 1.58,-4.95 2.79,-9.99 3.61,-15.13 c 0.26,-0.23 0.9,-0.91 0.05,-0.78 c 0.47,-9.44 0.7,-18.89 0.69,-28.34 c 0.59,-0.12 1.1,-0.37 1.55,-0.76 c 2.41,-2.44 4.77,-4.89 7.1,-7.34 c -0.54,-0.25 -1.08,-0.2 -1.61,0.12 c -2.51,1.35 -4.94,2.82 -7.3,4.42 c -0.96,-1.01 -0.94,-11.09 -1.47,-13.41 c 0.9,-0.38 1.69,-0.95 2.35,-1.69 c 2.14,-2.05 4.15,-4.2 6.01,-6.46 c -0.52,-0.28 -1.06,-0.27 -1.63,0 c -2.29,1.31 -4.63,2.56 -7,3.74 c -1.05,-3.73 -1.26,-7.5 -0.64,-11.31 c 0.26,-0.41 0.25,-0.81 -0.03,-1.19 c -0.77,-3.28 -0.19,-9.58 -0.29,-13.17 c 0.58,-0.06 1.09,-0.28 1.53,-0.67 c 3.11,-3.11 6.14,-6.26 9.11,-9.44 c -0.55,-0.3 -1.1,-0.28 -1.66,0.07 c -3.08,1.72 -6.11,3.51 -9.11,5.37 c 0.04,-4.44 0.08,-8.88 0.13,-13.31 c 0.52,-0.21 1,-0.48 1.44,-0.83 c 2.48,-2.39 4.89,-4.83 7.21,-7.33 c -1.06,-0.99 -6.44,2.89 -7.47,3.66 c -0.3,-0.09 -0.61,-0.18 -0.91,-0.28 c -0.67,-3.32 -0.29,-8.79 -0.2,-12.31 c 3.03,-2.49 5.88,-5.16 8.55,-8 c -0.53,-0.32 -1.08,-0.32 -1.65,-0.01 c -2.42,1.47 -4.82,2.95 -7.2,4.45 c 0.13,-8.49 0.18,-16.98 0.17,-25.46 c 0.64,0.11 1.2,-0.04 1.68,-0.47 c 2.53,-2.69 5.17,-5.2 7.94,-7.54 c -1.05,-0.94 -1.78,0.13 -2.4,0.95 c -2.41,1.21 -4.8,2.48 -7.16,3.81 c -0.18,-4.11 -0.09,-8.21 0.28,-12.29 c 0.75,-0.4 1.29,-0.99 1.61,-1.77 c -0.44,-0.49 -0.99,-0.6 -1.64,-0.34 c -0.39,-3.65 -0.42,-7.31 -0.11,-10.98 c 0.98,-0.7 1.79,-1.55 2.44,-2.56 c -0.54,-0.79 -1.8,0.3 -2.46,0.54 c -0.29,-4 -0.25,-8 0.12,-11.99 c 0.34,-0.24 0.68,-0.49 1.02,-0.74 c 0.31,-0.32 0.62,-0.63 0.92,-0.96 c 0.38,-0.3 0.75,-0.62 1.09,-0.97 c 0.32,-0.34 0.64,-0.69 0.96,-1.03 c 0.33,-0.41 0.67,-0.81 1.01,-1.2 c 0.63,-0.55 3.33,-2.13 2.25,-3.1 c -1.26,0.53 -2.48,1.14 -3.68,1.83 c -0.58,0.49 -1.19,0.93 -1.84,1.32 c -0.44,0.26 -0.88,0.53 -1.32,0.81 c -0.22,0.07 -0.44,0.14 -0.67,0.21 c -0.07,-4.46 -0.07,-8.93 0.01,-13.39 c 0.53,-0.2 1.02,-0.48 1.47,-0.83 c 3.41,-3.42 6.77,-6.88 10.09,-10.38 c -0.53,-0.27 -1.05,-0.23 -1.57,0.11 c -1.13,1.5 -7.28,4.29 -9.28,5.4 c -0.2,-0.03 -0.39,-0.07 -0.59,-0.1 c -0.13,-7.28 -0.1,-14.56 0.09,-21.84 c 1.02,-0.72 2.01,-1.47 2.97,-2.26 c 1.08,-0.52 1.88,-1.32 2.41,-2.4 c -0.78,-0.81 -2.18,0.67 -2.67,1.3 c -0.92,0.32 -1.8,0.72 -2.64,1.21 c -0.44,-3.97 -0.45,-7.95 -0.04,-11.93 c 1.05,-0.72 1.92,-1.62 2.59,-2.68 c -0.68,-0.88 -1.93,0.23 -2.64,0.59 c -0.26,-4.41 -0.33,-8.83 -0.21,-13.26 c 0.61,0 1.14,-0.2 1.59,-0.62 c 2.89,-3.01 5.88,-5.91 8.97,-8.7 c -1.77,-0.57 -1.72,1.06 -3.01,1.66 c -2.57,1.24 -5.05,2.64 -7.43,4.22 c -0.05,-4.44 0.31,-8.84 1.09,-13.2 c 0.72,-0.4 1.26,-0.97 1.62,-1.69 c -0.46,-0.45 -1.03,-0.57 -1.69,-0.38 c 0.64,-12.4 1.3,-24.81 1.98,-37.21 c 2.48,0.21 2.6,-3.47 4.08,-2.81 c 0.58,-0.51 2.94,-2.14 2.18,-2.98 c -1.07,0.15 -1.88,0.7 -2.43,1.65 c -1.29,0.4 -2.54,0.9 -3.76,1.5 c 0.38,-3.52 -0.04,-11.03 0.93,-14 c 0.56,-0.63 3.23,-2.29 2.33,-3.23 c -0.89,0.14 -1.69,0.48 -2.42,1 c -1.18,-2.71 -0.64,-10.54 -1.18,-13.85 c 1.79,0.14 2.75,-2.61 4.52,-3.18 c 1.24,-0.99 2.33,-2.12 3.27,-3.39 c -0.91,-1.27 -3.89,2.23 -5.03,2.4 c -0.47,0.42 -1,0.76 -1.58,1.02 c -0.36,0.04 -0.72,0.09 -1.08,0.14 c -1,-3.21 -1.69,-9.02 -1.75,-12.23 c 1.42,-0.47 2.35,-1.43 2.79,-2.88 c 1.7,-0.17 2.93,-1.04 3.69,-2.59 c -1.52,-0.33 -3.17,1.14 -3.69,2.59 c -1.14,-0.05 -2.08,0.36 -2.8,1.25 c -0.44,-0.1 -0.76,-0.36 -0.95,-0.78 c -0.71,-2.83 -1.57,-5.61 -2.58,-8.34 c 0.73,-0.79 1.38,-1.63 1.94,-2.53 c -0.73,-0.78 -2,0.37 -2.72,0.7 c -2.21,-2.29 -4.56,-4.44 -7.06,-6.45 c 2.81,-2.55 5.45,-5.26 7.91,-8.12 c -0.57,-0.3 -1.14,-0.29 -1.73,0.04 c -3.33,1.87 -6.64,3.79 -9.95,5.75 c -3.9,-1.88 -7.98,-3.14 -12.26,-3.79 c 3.42,-3.25 6.73,-6.6 9.92,-10.04 c -0.56,-0.29 -1.12,-0.24 -1.66,0.14 c -5.07,2.81 -10.05,5.77 -14.94,8.86 c -6.42,-0.26 -12.84,-0.24 -19.25,0.06 c 2.15,-2.14 4.41,-4.17 6.77,-6.09 c -0.28,-0.2 -0.6,-0.26 -0.95,-0.18 c -3.19,1.64 -6.32,3.4 -9.37,5.3 c -0.58,0.22 -0.91,0.61 -1.01,1.2 c -7.15,0.57 -14.3,1 -21.47,1.27 c 0.07,-0.46 0.3,-0.84 0.68,-1.13 c 3.65,-3.36 7.19,-6.83 10.62,-10.43 c 1.03,-1.01 1.92,-2.11 2.67,-3.32 c 0.5,-0.54 3.11,-1.16 2.66,-2.18 c -1.57,0.08 -2.76,0.79 -3.56,2.13 c -3.43,1.84 -23.97,12.48 -24.67,14.77 c -5.12,0.34 -13.63,0.73 -18.44,-0.16 c 1.07,-0.72 1.79,-1.68 2.17,-2.88 c 0.75,0.12 1.35,-0.11 1.8,-0.7 c -0.55,-0.86 -1.75,-0.08 -1.8,0.7 c -1.91,0.42 -3.55,1.34 -4.92,2.74 c -3.12,1 -15.1,0.76 -18.31,0.25 c 0.67,-0.78 1.44,-1.44 2.31,-1.99 c 0.64,-0.53 3.58,-2.07 2.55,-3.02 c -1.43,0.35 -2.63,1.08 -3.6,2.17 c -1.75,0.68 -3.41,1.55 -4.97,2.63 c -4.17,1.06 -13.61,0.55 -18.27,0.36 c 3.9,-3.87 7.82,-7.72 11.76,-11.56 c -0.45,-0.29 -0.93,-0.31 -1.46,-0.04 c -5.94,3.36 -11.87,6.73 -17.78,10.13 c -0.61,0.27 -0.92,0.72 -0.93,1.37 c -6.52,0.23 -13.04,0.26 -19.56,0.1 c 3.83,-3.75 7.61,-7.58 11.34,-11.49 c 1.65,-1.18 3.15,-2.51 4.5,-3.99 c -1.12,-0.98 -1.78,0.12 -2.49,0.9 c -7.78,4.21 -15.49,8.58 -23.12,13.09 c -0.43,0.31 -0.69,0.72 -0.8,1.24 c -6.52,0.34 -13.04,0.38 -19.57,0.12 c 2.58,-2.35 5.18,-4.68 7.8,-6.98 c 1.33,-1.09 2.52,-2.31 3.55,-3.66 c -0.12,-0.11 -0.24,-0.22 -0.37,-0.34 c -1.57,0.6 -2.99,1.36 -4.26,2.26 c -4.55,2.56 -9.08,5.16 -13.58,7.82 c -0.25,0.21 -0.52,0.39 -0.81,0.54 c -2.24,1.06 -15.54,1.09 -18,0.29 c 0.11,-0.34 0.22,-0.68 0.33,-1.02 c 3.93,-3.63 7.69,-7.41 11.29,-11.35 c -0.77,-0.29 -1.51,-0.17 -2.2,0.34 c -6.54,3.62 -12.96,7.42 -19.26,11.41 c -0.38,0.11 -0.75,0.22 -1.13,0.33 c -4.33,1.27 -13.54,0.66 -18.34,0.48 c 2.7,-2.67 5.41,-5.32 8.13,-7.95 c 0.73,-0.66 3.45,-0.78 2.66,-2.09 c -1.32,0.12 -2.21,0.82 -2.66,2.09 c -0.6,0.08 -1.19,0.22 -1.77,0.42 c -3.6,2 -7.18,4.02 -10.75,6.08 c -0.59,0.25 -0.9,0.68 -0.94,1.3 c -2.57,0.26 -18.38,1.43 -19.41,0.08 c 0.78,-0.43 5.44,-3.21 4.56,-4.06 c -0.53,-0.03 -1.02,0.11 -1.46,0.42 c -1.76,1.02 -3.46,2.13 -5.08,3.32 c -5.74,0.6 -12.51,-0.03 -18.26,-0.75 c 5.31,-5.5 10.62,-11 15.91,-16.51 c -0.97,-0.83 -2.44,1.24 -3.57,1.34 c -7.72,4.35 -15.33,8.85 -22.85,13.51 c -0.41,0.07 -0.79,0.2 -1.15,0.41 c -5.48,-0.17 -10.96,-0.47 -16.43,-0.92 c -0.72,0.07 -1.22,-0.22 -1.49,-0.86 c 2.13,-1.97 4.25,-3.94 6.37,-5.92 c 3.61,-3 2.59,-4.38 -1.18,-1.66 c -3.79,2.29 -7.63,4.5 -11.51,6.63 c -0.26,0.22 -0.52,0.44 -0.77,0.68 c -7.12,0.25 -14.24,0.3 -21.37,0.14 c 2.41,-1.97 4.75,-4.03 7.02,-6.16 c -0.84,-0.72 -2.85,0.73 -3.63,1.07 c -2.49,1.44 -4.95,2.91 -7.39,4.41 c -0.28,0.2 -0.43,0.47 -0.44,0.82 c -28.13,4.08 -44.37,7.24 -47.32,38.91 c -0.41,0.36 -0.81,0.72 -1.21,1.09 c -3.17,3.75 -6.61,7.21 -10.32,10.4 c 0.48,0.4 1.03,0.48 1.63,0.26 c 3.64,-2.35 7.3,-4.68 10.97,-6.98 c 0.26,4.19 0.52,8.37 0.77,12.55 c -1.16,-0.36 -1.52,1.65 -2.79,1.81 c -0.41,0.19 -0.78,0.45 -1.09,0.77 c -0.48,0.77 -3.31,2.32 -2.37,3.3 c 1.06,-0.28 1.92,-0.86 2.58,-1.74 c 0.99,-0.37 1.96,-0.79 2.89,-1.28 c 0.32,0 0.64,-0.01 0.95,-0.01 c 0.96,3.58 1.21,7.2 0.75,10.87 c -0.24,0.42 -0.23,0.83 0.02,1.24 c 0.83,11.51 0.21,14.81 -10.74,18.9 c 0.47,-0.91 0.9,-1.83 1.29,-2.78 c -0.16,-0.14 -0.32,-0.29 -0.48,-0.43 c -1.28,0.46 -6.42,2.93 -6.52,4.2 c -3.98,0.97 -10.77,-1.35 -12.46,-5.22 c 1.41,-1.68 1.11,-2.01 -0.88,-0.98 c -2.11,-0.53 -4.6,-6.85 -5.26,-8.82 c 1.23,-1.6 2.6,-3.05 4.1,-4.37 c -1.37,-0.77 -3.21,1.04 -4.44,1.62 c -1.86,-1.41 -2.42,-7.86 -2.59,-10.12 c 0.3,-0.64 0.71,-1.19 1.24,-1.65 c 4.22,-4.33 8.46,-8.6 12.71,-12.84 c -0.49,-0.37 -1.04,-0.44 -1.64,-0.23 c -4.27,2.71 -8.61,5.33 -13,7.85 c -0.31,-3.46 -0.24,-6.9 0.19,-10.34 c 0.42,-0.2 0.78,-0.49 1.09,-0.85 c 8.66,-6.17 17.36,-12.27 26.1,-18.3 c 0.62,-0.46 1.13,-1.02 1.52,-1.66 c 1.42,-0.15 2.47,-0.87 3.13,-2.16 c 0.48,0.19 2.53,-0.33 1.45,-1.03 c -0.65,0.11 -1.13,0.45 -1.45,1.03 c -1.47,0.09 -2.52,0.81 -3.13,2.16 c -0.65,0.07 -1.3,0.16 -1.94,0.26 c -8.89,5.29 -17.78,10.57 -26.69,15.83 c 0.52,-4.53 0.72,-9.36 2.55,-13.58 c 1.99,0.14 19.27,-13.89 22.19,-16.13 c 0.56,-0.49 0.8,-1.1 0.74,-1.84 c 0.43,0.12 0.87,0.23 1.31,0.35 c 1.42,-0.6 2.4,-1.62 2.95,-3.05 c 0.76,0.14 1.37,-0.09 1.84,-0.69 c -0.55,-0.85 -1.77,-0.08 -1.84,0.69 c -1.23,0.23 -2.26,0.81 -3.09,1.74 c -0.42,0.22 -0.84,0.44 -1.26,0.65 c -6.96,3.76 -13.8,7.72 -20.52,11.88 c -0.32,-0.1 -0.65,-0.19 -0.97,-0.29 c 1.42,-5.57 3.42,-10.92 5.99,-16.05 c 0.85,-0.86 5.03,-3.6 4.73,-4.82 c 0.8,0.09 1.42,-0.2 1.85,-0.86 c -0.59,-0.97 -1.81,0.06 -1.85,0.86 c -0.69,-0.08 -1.35,0 -2,0.23 c 1.99,-6.94 13.32,-19.5 20.02,-22.58 c 0.34,0.05 0.68,0.09 1.01,0.14 c 0.9,0.24 1.62,0.02 2.18,-0.67 c 0.29,-0.1 0.59,-0.19 0.88,-0.29 c 0.6,-0.74 4.11,-1.91 3.82,-2.72 c 0.46,-0.12 0.93,-0.25 1.4,-0.37 c 0.24,-0.16 0.49,-0.31 0.73,-0.47 c 6.78,-2.71 14.19,-1.92 21.32,-2.12 c -3.87,3.64 -15.48,12.23 -18.22,15.53 c -1.22,0.24 -2.18,0.85 -2.89,1.83 c 0.95,1.08 2.69,-0.81 2.89,-1.83 c 0.91,-0.07 1.76,-0.32 2.56,-0.75 c 3.02,-1.71 24.01,-13.16 24.29,-14.77 c 4.96,-0.16 13.53,-0.63 18.13,0.09 c -0.08,0.2 -0.17,0.41 -0.25,0.62 c -3.35,2.95 -30.13,22.58 -30.65,23.91 c -0.98,0.3 -3,0.79 -2.6,2.16 c 1.22,-0.26 2.09,-0.98 2.6,-2.16 c 0.94,0.11 1.82,-0.04 2.65,-0.46 c 13.32,-7.97 26.7,-15.84 40.16,-23.61 c 0.38,-0.14 0.73,-0.33 1.06,-0.58 c 9.43,-0.24 18.87,-0.29 28.3,-0.18 c -3.97,3.8 -7.94,7.59 -11.91,11.37 c 0.54,0.2 1.06,0.13 1.56,-0.21 c 5.69,-3.26 11.38,-6.53 17.07,-9.83 c 0.45,-0.35 0.66,-0.81 0.63,-1.38 c 6.49,0.03 12.98,-0.03 19.47,-0.16 c 0.06,1.29 -1.78,1.46 -2.45,2.38 c -3.9,3.6 -7.67,7.3 -11.31,11.11 c 0.53,0.27 1.08,0.26 1.63,-0.03 c 7.2,-4.03 14.33,-8.16 21.39,-12.42 c 0.28,-0.19 0.43,-0.46 0.45,-0.79 c 6.46,-0.04 12.92,0.01 19.38,0.15 c -5.62,5.56 -11.24,11.38 -16.76,17.15 c 0.56,0.92 2.75,-1.03 3.57,-1.05 c 6.71,-4.2 21.43,-11.7 26.84,-16 c 6.11,-0.19 12.23,-0.21 18.35,-0.06 c -0.11,0.19 -0.22,0.39 -0.33,0.58 c -0.87,0.5 -1.47,1.23 -1.8,2.18 c -1.33,-0.13 -2.29,0.39 -2.9,1.56 c 0.89,0.9 2.55,-0.65 2.9,-1.56 c 1.15,-0.16 2.19,-0.59 3.13,-1.29 c 1.01,-0.3 1.96,-0.75 2.82,-1.36 c 5.19,-0.11 10.37,-0.15 15.56,-0.09 c 0.62,-0.1 1.05,0.12 1.28,0.64 c -2.55,2.26 -5.17,4.44 -7.86,6.53 c -0.53,0.39 -0.63,0.85 -0.3,1.38 c 4.04,-2.07 8.04,-4.26 12,-6.56 c 0.54,-0.23 0.88,-0.62 1.02,-1.17 c 5.95,-1.18 13.54,-0.46 19.65,-0.3 c -4.45,4.07 -8.77,8.27 -12.95,12.6 c 0.22,0.26 0.5,0.34 0.85,0.22 c 6.36,-3.31 14.53,-7.86 20.6,-11.94 c 0.45,-0.01 0.81,-0.19 1.09,-0.52 c 4.78,-1.06 13.04,-0.73 18.09,-0.25 c -0.07,0.29 -0.15,0.58 -0.22,0.88 c -3.48,3.25 -6.96,6.44 -10.44,9.59 c 0.48,0.39 1.02,0.46 1.61,0.19 c 5.18,-3.18 10.42,-6.24 15.73,-9.19 c 0.62,-0.28 0.96,-0.75 1.01,-1.41 c 6.83,-0.51 13.66,-0.72 20.51,-0.62 c -2.21,2.23 -13.4,12.49 -14.09,14.37 c -0.71,0.22 -1.38,0.55 -1.99,0.98 c -1,1.21 -0.74,1.48 0.79,0.79 c 0.82,-0.45 1.53,-1.03 2.13,-1.74 c 6.85,-3.55 19.1,-10.34 24.86,-14.47 c 6.14,-0.2 12.28,-0.33 18.43,-0.39 c -2.63,3.2 -8.31,8.29 -11.18,10.79 c -0.8,0.52 -1.54,1.1 -2.23,1.75 c -0.95,0.9 -0.82,1.3 0.39,1.19 c 0.64,-0.35 1.22,-0.78 1.72,-1.3 c 0.32,-0.14 0.64,-0.27 0.96,-0.4 c 2.7,-1.97 20.14,-10.83 20.78,-12.66 c 6.46,-0.56 12.93,-0.9 19.41,-1.02 Z M 22.18,379.28 c -0.91,2.26 -1.89,4.48 -2.95,6.67 c -0.3,0.66 -0.21,1.25 0.27,1.75 c 3.77,-2.03 7.51,-4.13 11.24,-6.3 c 0.64,-0.28 0.95,-0.76 0.93,-1.43 c 4.76,0.15 8.95,3.28 12.71,5.92 c -1.67,1.69 -7.53,7.1 -8.24,8.87 c -0.99,0.14 -1.61,0.68 -1.87,1.61 c 0.67,0.47 1.4,-1.28 1.87,-1.61 c 1.69,-0.17 9.59,-4.06 9.84,-5.59 c 3.87,2.3 4.17,18.9 2.82,23.15 c -1.57,-0.16 -9.44,9.34 -11.35,10.66 c -0.58,0.45 -1,1.02 -1.25,1.7 c 0.51,0.88 1.4,0.16 1.9,-0.3 c 3.35,-1.78 6.64,-3.66 9.87,-5.63 c -0.63,5.2 -1.31,10.4 -2.06,15.59 c -0.55,0.07 -1.03,0.28 -1.45,0.65 c -3.02,3.14 -6.03,6.27 -9.03,9.39 c 0.75,0.38 1.49,0.31 2.21,-0.18 c 2.77,-1.78 5.5,-3.61 8.18,-5.48 c -0.04,2.81 0.71,10.89 2.23,13.11 c -1.98,-0.06 -4.95,4.98 -6.64,6.16 c -0.57,0.46 -0.96,1.03 -1.18,1.72 c 0.46,0.91 1.39,0.13 1.79,-0.36 c 1.44,-0.7 6.3,-2.97 6.95,-4.22 c 0.29,-0.31 6.08,6.94 8.22,7.15 c -3.5,3.51 -6.77,7.23 -9.81,11.16 c 0.25,0.25 0.55,0.3 0.9,0.14 c 4.1,-2.47 8.24,-4.87 12.43,-7.21 c 0.64,-0.3 1.01,-0.8 1.09,-1.49 c 5.45,1.39 10.97,2.45 16.56,3.17 c -4.54,4.11 -8.74,9.77 -13,14.34 c 0.51,0.25 1.02,0.21 1.53,-0.11 c 7.24,-4.01 14.4,-8.14 21.49,-12.4 c 0.29,-0.24 0.42,-0.54 0.4,-0.91 c 5.82,-0.08 11.63,-0.21 17.45,-0.37 c 35.59,-3.4 70.33,-2.91 106,-2.75 c -1.67,2.77 -7.66,7.22 -10.02,9.95 c -1.32,0.63 -2.31,1.57 -2.98,2.85 c 0.83,0.97 2.2,-0.78 2.71,-1.44 c 0.37,-0.07 0.73,-0.14 1.1,-0.22 c 5.55,-3.22 11.11,-6.42 16.69,-9.59 c 0.59,-0.27 0.96,-0.71 1.11,-1.32 c 12.14,-0.49 24.29,-0.54 36.44,-0.15 c -3.52,3.76 -7.14,7.43 -10.87,11 c -1.76,1.47 -3.45,2.97 -5.07,4.5 c 0.26,0.31 0.58,0.37 0.95,0.18 c 2.64,-3.6 24.82,-12.67 25.52,-15.54 c 6.52,-0.32 13.04,-0.35 19.55,-0.08 c -4.61,4.66 -9.09,9.44 -13.43,14.34 c -1.28,0.99 -2.51,2.03 -3.67,3.13 c 0.56,0.39 1.15,0.4 1.79,0.04 c 8.97,-5.43 18.01,-10.74 27.14,-15.92 c 0.62,-0.41 0.88,-0.99 0.76,-1.73 c 6.33,-0.09 12.67,-0.06 19,0.1 c -0.04,0.29 -0.08,0.57 -0.12,0.86 c -2.55,2.38 -5.13,4.73 -7.72,7.05 c -1.27,0.62 -2.25,1.54 -2.92,2.76 c 0.86,0.87 2.14,-0.67 2.78,-1.25 c 0.35,-0.13 0.7,-0.26 1.05,-0.38 c 4.36,-2.49 8.72,-4.99 13.07,-7.5 c 0.57,-0.41 0.86,-0.97 0.87,-1.68 c 6.46,-0.11 12.91,-0.05 19.37,0.16 c -3.28,3.39 -6.65,6.67 -10.12,9.86 c -0.71,0.41 -3.75,2.18 -2.73,3.15 c 1.04,-0.26 1.89,-0.81 2.55,-1.66 c 0.33,-0.11 0.67,-0.22 1,-0.33 c 5.56,-3.22 11.13,-6.41 16.71,-9.59 c 0.62,-0.28 0.96,-0.75 1,-1.41 c 5.91,-0.05 11.79,0.32 17.65,1.08 c -3.18,3.33 -6.54,6.43 -10.06,9.3 c 0.54,0.31 1.09,0.29 1.65,-0.06 c 4.75,-2.8 9.44,-5.67 14.07,-8.61 c 6.12,0.2 12.22,0.59 18.31,1.18 c -1.16,1.08 -2.4,2.11 -3.71,3.09 c -1.37,1.09 -2.58,2.32 -3.63,3.69 c 0.35,0.36 0.75,0.4 1.22,0.13 c 1.17,-0.76 2.29,-1.43 3.38,-2.03 c 2.07,-1.16 4.1,-2.37 6.1,-3.64 c 0.26,-0.37 0.34,-0.76 0.23,-1.19 c 17.2,1.1 48.68,3.26 59.84,-13.18 c 2.69,0.54 35.21,-19.28 40.21,-22.16 c 2.13,0.31 0.66,5.47 0.89,6.91 c 0.12,1.77 -0.52,3.16 -1.91,4.17 c -0.86,0.57 -1.52,1.3 -1.97,2.2 c -1.3,0.09 -2.26,0.68 -2.88,1.79 c 1,1.09 2.51,-0.91 2.88,-1.79 c 1.09,0.11 2.1,-0.17 3.01,-0.81 c -3.62,25.16 -15.23,45.03 -41.36,51.02 c 4.81,-5 9.77,-9.85 14.88,-14.53 c -1.48,-0.73 -1.81,1.08 -3.01,1.52 c -8.32,4.66 -16.62,9.34 -24.92,14.02 c -0.3,0.13 -0.41,0.34 -0.32,0.64 c -12.89,0.34 -25.78,0.74 -38.67,1.19 c 4.3,-3.24 8.68,-6.3 13.14,-9.2 c -1.64,-1.48 -3.42,0.92 -4.63,1.88 c -3.9,2.02 -7.71,4.21 -11.42,6.56 c -0.27,0.2 -0.4,0.45 -0.4,0.78 c -6.1,0.17 -12.19,0.22 -18.27,0.14 c -0.28,-1.32 -0.6,-1.35 -0.97,-0.09 c -11.8,0.3 -23.6,0.29 -35.39,-0.05 c 2.8,-2.77 5.72,-5.4 8.77,-7.9 c 0.58,-0.78 2.53,-1.8 2.38,-2.86 c 1.75,-0.32 3.04,-1.27 3.88,-2.83 c -1.54,-0.04 -3.6,1.07 -3.88,2.83 c -1.43,-0.57 -2.74,0.94 -3.94,1.46 c -2.04,1.62 -14.35,7.49 -14.67,9.29 c -6.19,0.18 -12.38,0.21 -18.58,0.1 c 4.34,-3.77 8.68,-7.55 13.02,-11.32 c -0.22,-0.31 -0.53,-0.44 -0.92,-0.37 c -6,3.3 -11.96,6.69 -17.88,10.15 c -0.51,0.27 -0.68,0.67 -0.51,1.21 c -5.57,0.1 -11.14,0.09 -16.71,-0.04 c -0.64,0.09 -1.14,-0.1 -1.49,-0.59 c 4.56,-4.09 9.06,-8.25 13.48,-12.48 c -0.77,-0.3 -1.51,-0.19 -2.22,0.32 c -6.53,3.71 -13.03,7.5 -19.48,11.36 c -3.82,1.77 -13.44,0.73 -17.88,0.55 c 0.06,-0.25 0.12,-0.51 0.17,-0.76 c 1.23,-1.82 8.06,-6.25 7.58,-8.3 c 0.5,0.05 1.01,0.11 1.51,0.16 c 1.06,-0.58 1.85,-1.39 2.39,-2.43 c -0.88,-0.96 -2.07,0.59 -2.7,1.16 c -0.45,0.23 -0.9,0.46 -1.35,0.69 c -2.15,1.64 -15.19,7.64 -15.42,9.69 c -6.49,-0.02 -12.97,-0.12 -19.46,-0.29 c 5.93,-4.99 11.46,-11.5 16.78,-17.19 c -0.18,-0.37 -0.48,-0.49 -0.89,-0.36 c -9.04,5.31 -18.12,10.57 -27.23,15.8 c -0.57,0.37 -1.08,0.8 -1.53,1.31 c -6.07,0.21 -12.14,0.14 -18.2,-0.22 c 4.31,-4.5 8.62,-8.98 12.95,-13.43 c -0.55,-0.29 -1.09,-0.26 -1.63,0.09 c -6.9,4 -13.81,8 -20.71,11.99 c -0.6,0.21 -0.92,0.62 -0.96,1.23 c -12.23,0.1 -24.45,0.1 -36.67,0.02 c 3.98,-3.81 7.95,-7.62 11.93,-11.42 c -0.52,-0.24 -1.03,-0.21 -1.55,0.08 c -5.76,3.22 -11.49,6.49 -17.2,9.82 c -0.6,0.43 -0.89,1.01 -0.87,1.76 c -13.05,-0.26 -26.1,-0.08 -39.13,0.51 c 0.15,-0.26 0.3,-0.52 0.46,-0.78 c 0.86,-0.37 1.41,-0.99 1.66,-1.88 c 0.74,-0.09 3.67,-0.99 2.54,-2.1 c -1.25,0.19 -2.1,0.9 -2.54,2.1 c -1.23,0.01 -2.31,0.42 -3.24,1.24 c -1.01,0.28 -1.94,0.73 -2.78,1.35 c -5.53,0.1 -13.45,1.34 -18.74,0.56 c -0.91,-0.32 -1.61,-0.1 -2.1,0.68 c -16.61,-0.35 -33.86,-0.32 -49.44,-6.97 c 4.4,-4.81 8.74,-9.68 13.01,-14.59 c -0.9,-0.88 -1.89,0.67 -2.47,1.22 c -5.9,3.08 -11.62,6.44 -17.17,10.07 c -2.83,-1.36 -8.2,-4.84 -9.45,-7.75 c 2.2,-2.26 4.22,-4.67 6.04,-7.22 c -0.53,-0.27 -1.07,-0.27 -1.63,0.01 c -2.44,1.2 -4.74,2.62 -6.89,4.26 c -2.16,0.22 -6.17,-7.96 -7.02,-9.85 c 0.64,-0.1 1.17,-0.38 1.61,-0.85 c 2.64,-2.9 5.26,-5.82 7.84,-8.76 c -0.22,-0.29 -0.51,-0.37 -0.89,-0.23 c -3.18,1.97 -6.32,4.01 -9.43,6.13 c -2.27,-0.9 -3.41,-9.16 -4.02,-11.48 c 3.33,-3.11 6.6,-6.29 9.82,-9.53 c 0.24,-0.77 2.84,-2.44 2.37,-3.07 c -1.02,0.09 -1.84,0.54 -2.44,1.37 c -0.32,0.14 -0.64,0.29 -0.96,0.44 c -3.02,1.63 -5.97,3.4 -8.82,5.31 c -0.7,-0.42 -1.08,-1.04 -1.15,-1.87 c -0.29,-3.43 -0.44,-6.87 -0.44,-10.31 c 3.45,-3.58 7,-7.09 10.65,-10.53 c 0.36,-0.26 0.53,-0.6 0.51,-1.03 c -0.57,-0.3 -1.13,-0.26 -1.7,0.11 c -3.08,1.81 -6.19,3.54 -9.35,5.2 c -0.31,-7.74 -0.78,-15.48 -1.41,-23.2 c 1.72,-0.24 6.97,-6.62 8.27,-8.22 c -0.49,-0.26 -0.99,-0.24 -1.5,0.05 c -2.29,1.32 -4.61,2.57 -6.97,3.77 c -0.3,-10.98 -1.87,-20.02 11.09,-23.1 Z M 494.88,419.05 c 0.24,-0.06 1.7,-0.4 0.75,-0.88 c -0.44,0.13 -0.69,0.42 -0.75,0.88 Z M 401.3,458.85 c -0.23,0.34 -0.54,0.54 -0.95,0.6 c -2.27,-0.15 -4.54,-0.06 -6.79,0.25 c -0.65,0.2 -1.1,0.02 -1.35,-0.56 c 2.91,-1.8 6.44,-3.69 9.09,-0.29 Z M 6.89,462.31 c 0.28,-0.1 0.56,-0.2 0.84,-0.29 c 0.91,2.23 1.68,4.51 2.3,6.84 c -0.66,0.01 -1.23,-0.21 -1.71,-0.66 c -2.15,-1.59 -2.62,-3.55 -1.43,-5.89 Z M 149,469.27 c 0.72,-0.3 4.11,-1.13 2.6,-2.28 c -1.4,0.17 -2.26,0.93 -2.6,2.28 Z M 12.3,476.05 c 1.39,2.61 2.76,5.22 4.12,7.85 c -3.52,-1.46 -4.89,-4.08 -4.12,-7.85 Z M 385.63,498.15 c 0.64,-0.29 4.07,-0.99 2.86,-2.18 c -1.56,-0.07 -2.52,0.66 -2.86,2.18 Z"/></g>
<g><path fill="#262626" fill-opacity="0.996" stroke="#262626" stroke-width="0.5" stroke-opacity="0.996" d="M 107.96,0.55 c 23.52,1.19 46.94,3.32 70.54,3.87 c 82.99,-1.39 165.99,-0.17 249,-0.68 c 10.13,-0.24 20.19,0.46 30.19,2.12 c 1.81,0.46 3.64,0.7 5.5,0.73 c 3.94,1.09 7.83,2.35 11.67,3.78 c 0.93,0.44 1.9,0.75 2.92,0.93 c 0.36,0.39 0.79,0.67 1.29,0.85 c 19.4,9.38 26.45,25.95 28.69,46.37 c -1.35,84.05 3.34,168.04 3.59,252.02 c -0.09,0.64 0.12,1.14 0.65,1.5 c 0,11.64 0,23.29 0,34.94 c -0.36,-0.03 -0.59,0.15 -0.68,0.52 c -0.2,5.84 -0.21,11.69 -0.04,17.54 c -0.25,27.84 -1.99,55.66 -3.41,83.46 c -0.63,3.12 -0.97,6.27 -1.02,9.45 c -0.94,1.29 -1.13,2.71 -0.56,4.26 c -1.77,2.69 -2.37,7.41 -3.91,10.49 c -1.5,3.09 -2.97,6.17 -4.4,9.27 c -1.77,0.83 -2.72,2.21 -2.84,4.15 c -0.62,0.07 -1.1,0.37 -1.42,0.91 c -8.78,9.47 -19.03,14.55 -31.36,18 c -1.44,0.4 -6.86,0.54 -7.38,1.94 c -7.38,0.23 -14.89,1.58 -22.48,1.22 c -106.33,0.16 -212.67,0.35 -319,0.57 c -18.33,-0.15 -36.67,-0.45 -54.99,-0.91 c -5.38,-1.09 -10.77,-2.1 -16.16,-3.03 c -0.3,-0.5 -0.73,-0.83 -1.3,-1 c -5.46,-2.51 -10.08,-5.2 -15.04,-8.56 c -0.8,-1.66 -2.06,-2.78 -3.79,-3.37 c -1.86,-2.71 -3.79,-5.37 -5.8,-7.99 c -1.36,-2.63 -2.73,-5.24 -4.12,-7.85 c -0.77,-2.39 -1.53,-4.79 -2.27,-7.19 c -0.62,-2.33 -1.39,-4.61 -2.3,-6.84 c 0.05,-0.45 0.1,-0.89 0.15,-1.33 c -0.78,-3.78 -1.41,-7.58 -1.88,-11.42 c -0.32,-0.92 0.19,-5.14 -1,-5.29 c -0.43,-18.29 -1.26,-37.14 -0.93,-55.48 c 0.5,-2.14 0.81,-4.31 0.91,-6.5 c 1.3,-0.36 2.04,-2.84 1.87,-4.1 c 0.62,-0.04 1.1,-0.31 1.44,-0.82 c 7.96,-9.6 30.69,-10.89 40.4,-4.02 c 0.36,0.39 0.7,0.8 1.03,1.21 c 0.41,0.36 0.81,0.73 1.2,1.1 c 8.25,10.14 4.58,28.98 4.15,41.13 c -0.6,14.9 -1.18,33.27 15.88,39.18 c 78.18,3 157.2,-0.61 235.55,-0.02 c 20.94,0.31 41.29,-0.09 62.15,2.22 c 1.82,-0.05 4.76,0.78 6.41,0.04 c 4.55,1.47 12.23,0.96 17.15,1.22 c 0.25,0.58 0.7,0.76 1.35,0.56 c 2.25,-0.31 4.52,-0.4 6.79,-0.25 c 0.41,-0.06 0.72,-0.26 0.95,-0.6 c 2.82,1.5 12.94,0.19 16.44,-0.17 c 2.89,0.23 5.74,0.01 8.57,-0.65 c 15.44,-2.62 32.42,-7.89 30.68,-27.02 c -0.03,-1.06 0.05,-2.11 0.26,-3.15 c -0.04,-2.11 1.14,-6.92 -0.01,-8.62 c 1.36,-0.88 0.75,-4.19 0.67,-5.61 c 0.11,-4.2 0.13,-8.4 0.07,-12.59 c -0.01,-0.3 -0.02,-0.59 -0.03,-0.88 c 0.21,-1.84 0.25,-3.68 0.09,-5.53 c 0,-4.13 -0.07,-8.25 -0.22,-12.37 c 0.22,-1.87 0.23,-3.74 0.04,-5.61 c 0.91,-5.4 -2.29,-8.84 -0.43,-14.15 c -0.15,-4.49 -0.3,-8.97 -0.45,-13.46 c 0.01,-0.68 0.02,-1.36 0.02,-2.04 c -1.05,-28.89 -1.14,-57.76 -0.12,-86.65 c 0.05,-0.9 0.06,-1.81 0.02,-2.72 c 0.03,-4.53 0.06,-9.07 0.1,-13.61 c -0.02,-0.69 -0.03,-1.37 -0.05,-2.06 c 0.09,-5.24 0.84,-11.45 0.19,-16.58 c 0.03,-0.93 0.02,-1.86 -0.02,-2.79 c 0.59,-1.7 0.83,-3.45 0.72,-5.25 c 0.24,-1.76 0.21,-3.5 -0.09,-5.24 c 0.07,-0.37 0.14,-0.74 0.22,-1.11 c 0.25,-2.98 0.19,-5.95 -0.18,-8.9 c 0.65,-1.72 0.68,-3.45 0.06,-5.19 c 0.88,-2.5 1.09,-5.06 0.63,-7.68 c 0.59,-2.5 0.72,-5.02 0.38,-7.57 c 0.19,-3.1 0.24,-6.2 0.15,-9.31 c 0.35,-2.58 0.35,-5.16 0.03,-7.73 c 0.3,-2.11 0.3,-4.22 -0.01,-6.33 c 0.67,-2.54 0.67,-5.07 -0.02,-7.61 c 0.41,-1.1 0.42,-2.22 0.01,-3.34 c 0.29,-1.77 1.57,-6.21 -0.96,-6.79 c 1.09,-1.29 1.67,-2.42 0.96,-4.17 c 0.48,-2.58 0.48,-5.16 -0.02,-7.74 c 0.13,-3.08 0.12,-6.16 -0.03,-9.24 c 0.13,-2.55 0.06,-5.09 -0.22,-7.63 c -0.17,-2.92 -0.42,-5.84 -0.74,-8.76 c -0.03,-0.32 -0.06,-0.65 -0.09,-0.98 c 0.21,-1.79 0.16,-3.59 -0.14,-5.37 c -1.42,-14.95 -1.07,-28.65 -15.76,-37.2 c -8.41,-4.04 -17.29,-5.85 -26.63,-5.43 c -1.86,-0.38 -3.7,-0.3 -5.51,0.26 c -0.3,-0.08 -0.6,-0.16 -0.9,-0.25 c -12.82,0.74 -25.65,1.39 -38.48,1.97 c -71.67,0.01 -143.33,0.01 -215,0 c -10.5,-0.09 -20.99,-0.42 -31.47,-0.98 c -0.69,0 -1.38,0 -2.07,0 c -15.44,-0.57 -32.2,-1 -47.33,2.13 c -15.21,3.49 -19.27,15.28 -19.56,29.48 c -0.04,1.26 -0.03,2.52 0.04,3.78 c 0.02,12.94 0.72,25.54 -0.23,38.56 c -0.37,0.07 -0.63,0.27 -0.79,0.62 c -0.7,1.86 -1.52,3.67 -2.46,5.42 c -10.39,9.26 -29.69,13.12 -40.29,2.15 c -1.47,-1.72 -2.93,-3.43 -4.39,-5.13 c -0.9,-2.37 -1.79,-4.76 -2.67,-7.16 c -2.09,-6.22 -3.32,-12.6 -3.67,-19.15 c -0.09,-0.34 -0.3,-0.6 -0.61,-0.76 c 0,-5.64 0,-11.27 0,-16.91 c 0.51,-0.35 0.75,-0.84 0.73,-1.47 c 0.42,-12.94 3,-27.57 6.02,-40.23 c -0.17,-6.54 7.35,-17.06 11.56,-22.05 c 0.35,-0.5 0.56,-1.05 0.64,-1.66 c 0.74,-0.01 0.97,-0.39 0.68,-1.11 c 1.54,0.68 2.44,0.17 2.69,-1.5 c 6.41,-4.84 13.3,-8.85 20.67,-12.06 c 0.32,-0.12 0.64,-0.24 0.97,-0.36 c 1.39,0.25 4.36,-0.4 5.08,-1.63 c 4.17,-0.88 8.34,-1.77 12.51,-2.68 c 15.26,-2.89 30.85,-2.79 46.41,-2.75 Z M 371.81,12.27 c -3.5,-0.16 -6.98,0.05 -10.44,0.63 c -6.15,0.06 -12.29,0.19 -18.43,0.39 c -3.9,0.05 -7.8,0.07 -11.7,0.07 c -6.85,-0.1 -13.68,0.11 -20.51,0.62 c -2.18,-0.52 -4.37,-0.57 -6.57,-0.15 c -0.37,0.03 -0.75,0.06 -1.12,0.09 c -5.05,-0.48 -13.31,-0.81 -18.09,0.25 c -0.34,-0.11 -0.68,-0.21 -1.02,-0.32 c -2.85,-0.37 -5.71,-0.38 -8.57,-0.04 c -6.11,-0.16 -13.7,-0.88 -19.65,0.3 c -1.24,-1.22 -3.43,-0.87 -4.86,-0.18 c -0.23,-0.52 -0.66,-0.74 -1.28,-0.64 c -5.19,-0.06 -10.37,-0.02 -15.56,0.09 c -1.27,-0.31 -2.54,-0.35 -3.82,-0.11 c -6.12,-0.15 -12.24,-0.13 -18.35,0.06 c -4.55,-0.25 -9.1,-0.28 -13.65,-0.1 c -6.46,-0.14 -12.92,-0.19 -19.38,-0.15 c -3.24,0.03 -6.48,-0.05 -9.71,-0.25 c -6.49,0.13 -12.98,0.19 -19.47,0.16 c -2.45,-0.04 -4.9,-0.03 -7.35,0.05 c -9.43,-0.11 -18.87,-0.06 -28.3,0.18 c -0.39,-0.1 -0.77,-0.19 -1.15,-0.29 c -3.49,-0.01 -6.98,0.06 -10.47,0.19 c -0.45,0.07 -0.9,0.14 -1.35,0.22 c -4.6,-0.72 -13.17,-0.25 -18.13,-0.09 c -2.88,-0.17 -5.75,-0.18 -8.63,-0.01 c -7.13,0.2 -14.54,-0.59 -21.32,2.12 c -0.52,-0.23 -0.76,-0.07 -0.73,0.47 c -0.47,0.12 -0.94,0.25 -1.4,0.37 c -1.56,-0.39 -2.77,0.1 -3.65,1.47 c -0.42,0.09 -0.84,0.18 -1.26,0.28 c -0.69,0.17 -1.27,0.53 -1.74,1.07 c -0.58,-0.03 -0.99,0.21 -1.24,0.72 c -6.7,3.08 -18.03,15.64 -20.02,22.58 c -1.36,1.27 -2.27,2.8 -2.73,4.59 c -2.57,5.13 -4.57,10.48 -5.99,16.05 c -0.13,0.38 -0.25,0.75 -0.38,1.13 c -0.62,1.85 -1.06,3.73 -1.32,5.64 c 0.12,-0.03 0.24,-0.05 0.35,-0.08 c -1.83,4.22 -2.03,9.05 -2.55,13.58 c -0.15,1.23 -0.29,2.46 -0.43,3.69 c 0.12,0.34 0.24,0.69 0.35,1.03 c -0.43,3.44 -0.5,6.88 -0.19,10.34 c 0.01,1.23 0.01,2.46 0,3.69 c -0.07,1.12 0.16,2.18 0.69,3.18 c 0.17,2.26 0.73,8.71 2.59,10.12 c -0.26,0.97 -0.15,1.88 0.34,2.75 c 0.66,1.97 3.15,8.29 5.26,8.82 c 0.11,0.5 0.4,0.83 0.88,0.98 c 1.69,3.87 8.48,6.19 12.46,5.22 c 1.99,0.16 3.9,-0.17 5.71,-0.99 c 10.95,-4.09 11.57,-7.39 10.74,-18.9 c 0,-0.42 -0.01,-0.83 -0.02,-1.24 c 0.46,-3.67 0.21,-7.29 -0.75,-10.87 c 0.09,-0.39 0.19,-0.77 0.28,-1.15 c -0.14,-0.57 -0.29,-1.14 -0.45,-1.7 c -0.25,-4.18 -0.51,-8.36 -0.77,-12.55 c -0.05,-1.28 -0.26,-2.54 -0.6,-3.78 c -0.16,-0.33 -0.32,-0.66 -0.47,-0.99 c 2.95,-31.67 19.19,-34.83 47.32,-38.91 c 1.48,0.1 2.96,0.05 4.44,-0.14 c 7.13,0.16 14.25,0.11 21.37,-0.14 c 0.26,0.15 0.51,0.31 0.77,0.46 c 2.13,0.42 4.23,0.36 6.32,-0.19 c 0.27,0.64 0.77,0.93 1.49,0.86 c 5.47,0.45 10.95,0.75 16.43,0.92 c 0.36,0.11 0.73,0.22 1.09,0.33 c 3.5,0.62 7.02,0.92 10.57,0.92 c 5.75,0.72 12.52,1.35 18.26,0.75 c 0.63,0.34 1.29,0.45 1.98,0.32 c 1.03,1.35 16.84,0.18 19.41,-0.08 c 1.77,0.36 3.54,0.41 5.33,0.15 c 4.8,0.18 14.01,0.79 18.34,-0.48 c 0.33,0.19 0.66,0.37 0.99,0.56 c 2.96,0.2 5.92,0.16 8.87,-0.12 c 0.37,-0.05 0.74,-0.1 1.11,-0.15 c 2.46,0.8 15.76,0.77 18,-0.29 c 0.22,0.22 0.43,0.44 0.65,0.66 c 2.35,0.12 4.69,0.02 7.02,-0.3 c 6.53,0.26 13.05,0.22 19.57,-0.12 c 2.82,0.82 7.56,0.38 10.57,0.25 c 6.52,0.16 13.04,0.13 19.56,-0.1 c 2.8,0.35 5.6,0.38 8.41,0.1 c 4.66,0.19 14.1,0.7 18.27,-0.36 c 1.24,0.03 2.47,0.1 3.71,0.21 c 3.21,0.51 15.19,0.75 18.31,-0.25 c 0.92,-0.13 1.84,-0.08 2.75,0.14 c 4.81,0.89 13.32,0.5 18.44,0.16 c 3.85,0.32 7.72,0.38 11.6,0.16 c 7.17,-0.27 14.32,-0.7 21.47,-1.27 c 1.52,-0.09 3.04,-0.16 4.56,-0.23 c 6.41,-0.3 12.83,-0.32 19.25,-0.06 c 2.25,0.19 4.48,0.54 6.68,1.04 c 4.28,0.65 8.36,1.91 12.26,3.79 c 1.34,0.65 2.6,1.42 3.77,2.33 c 2.5,2.01 4.85,4.16 7.06,6.45 c 0.02,0.72 0.28,1.33 0.78,1.83 c 1.01,2.73 1.87,5.51 2.58,8.34 c 0.19,0.42 0.51,0.68 0.95,0.78 c -0.23,0.54 -0.23,1.09 0.01,1.63 c 0.06,3.21 0.75,9.02 1.75,12.23 c 0,0.32 0,0.64 0,0.97 c -0.07,0.68 -0.1,1.36 -0.1,2.04 c 0.54,3.31 0,11.14 1.18,13.85 c -0.13,0.75 -0.1,1.5 0.09,2.23 c -0.97,2.97 -0.55,10.48 -0.93,14 c -0.04,0.88 -0.07,1.76 -0.07,2.64 c -0.68,12.4 -1.34,24.81 -1.98,37.21 c -0.06,0.69 -0.04,1.38 0.07,2.07 c -0.78,4.36 -1.14,8.76 -1.09,13.2 c -0.03,1.15 -0.07,2.29 -0.12,3.44 c -0.12,4.43 -0.05,8.85 0.21,13.26 c -0.11,0.7 -0.1,1.4 0.05,2.09 c -0.41,3.98 -0.4,7.96 0.04,11.93 c -0.17,0.71 -0.2,1.43 -0.07,2.15 c -0.19,7.28 -0.22,14.56 -0.09,21.84 c -0.08,0.37 -0.16,0.74 -0.24,1.12 c 0.07,1.56 0.11,3.12 0.12,4.68 c -0.08,4.46 -0.08,8.93 -0.01,13.39 c -0.02,0.85 0.01,1.68 0.1,2.52 c 0.06,0.44 0.11,0.88 0.16,1.31 c -0.37,3.99 -0.41,7.99 -0.12,11.99 c -0.08,0.68 -0.07,1.35 0.02,2.02 c -0.31,3.67 -0.28,7.33 0.11,10.98 c -0.12,0.7 -0.11,1.41 0.03,2.11 c -0.37,4.08 -0.46,8.18 -0.28,12.29 c 0,1.08 -0.02,2.16 -0.06,3.25 c 0.01,8.48 -0.04,16.97 -0.17,25.46 c 0.16,1.18 0.26,2.37 0.3,3.56 c -0.09,3.52 -0.47,8.99 0.2,12.31 c -0.16,0.39 -0.33,0.77 -0.49,1.15 c 0.15,1.21 0.23,2.41 0.22,3.63 c -0.05,4.43 -0.09,8.87 -0.13,13.31 c 0.06,1.55 0.1,3.11 0.13,4.67 c 0.1,3.59 -0.48,9.89 0.29,13.17 c 0.01,0.39 0.02,0.79 0.03,1.19 c -0.62,3.81 -0.41,7.58 0.64,11.31 c -0.03,1.48 0.06,2.95 0.27,4.41 c 0.53,2.32 0.51,12.4 1.47,13.41 c -0.37,1.22 -0.29,2.4 0.26,3.56 c 0.01,9.45 -0.22,18.9 -0.69,28.34 c -0.02,0.26 -0.04,0.52 -0.05,0.78 c -0.82,5.14 -2.03,10.18 -3.61,15.13 c -1.31,3.08 -2.93,5.99 -4.86,8.72 c -11.16,16.44 -42.64,14.28 -59.84,13.18 c -1.2,0.03 -2.4,0.02 -3.59,-0.05 c -6.09,-0.59 -12.19,-0.98 -18.31,-1.18 c -0.21,-1.03 -4.68,-0.43 -5.66,-0.63 c -5.86,-0.76 -11.74,-1.13 -17.65,-1.08 c -2.81,-0.42 -5.61,-0.43 -8.41,-0.02 c -6.46,-0.21 -12.91,-0.27 -19.37,-0.16 c -1.92,-0.16 -3.84,-0.17 -5.77,-0.03 c -0.41,0.06 -0.82,0.11 -1.24,0.17 c -6.33,-0.16 -12.67,-0.19 -19,-0.1 c -3.3,-0.16 -9.59,-0.48 -12.59,0.14 c -6.51,-0.27 -13.03,-0.24 -19.55,0.08 c -3.5,-0.48 -7.01,-0.53 -10.53,-0.14 c -12.15,-0.39 -24.3,-0.34 -36.44,0.15 c -2.86,-0.47 -5.73,-0.55 -8.61,-0.23 c -35.67,-0.16 -70.41,-0.65 -106,2.75 c -5.82,0.16 -11.63,0.29 -17.45,0.37 c -3.48,-0.17 -6.96,-0.48 -10.42,-0.92 c -5.59,-0.72 -11.11,-1.78 -16.56,-3.17 c -1.47,-0.95 -3.01,-1.81 -4.61,-2.6 c -2.14,-0.21 -7.93,-7.46 -8.22,-7.15 c -0.08,-1.16 -0.38,-2.26 -0.92,-3.3 c -1.52,-2.22 -2.27,-10.3 -2.23,-13.11 c 0.14,-1.46 0.17,-2.92 0.09,-4.38 c 0.75,-5.19 1.43,-10.39 2.06,-15.59 c 0.54,-2.11 0.82,-4.26 0.83,-6.43 c 1.35,-4.25 1.05,-20.85 -2.82,-23.15 c -0.23,-1.24 -0.76,-2.33 -1.6,-3.28 c -3.76,-2.64 -7.95,-5.77 -12.71,-5.92 c -2.35,-1.56 -6.77,-0.93 -9.49,-0.69 c -12.96,3.08 -11.39,12.12 -11.09,23.1 c -0.16,1.48 -0.09,2.94 0.2,4.4 c 0.63,7.72 1.1,15.46 1.41,23.2 c -0.34,2.09 -0.37,4.17 -0.11,6.25 c 0,3.44 0.15,6.88 0.44,10.31 c 0.07,0.83 0.45,1.45 1.15,1.87 c -1.56,1.27 0.09,3.82 0.03,5.48 c 0.61,2.32 1.75,10.58 4.02,11.48 c -0.31,1.35 -0.02,2.59 0.87,3.71 c 0.85,1.89 4.86,10.07 7.02,9.85 c 0.08,1.59 0.91,2.57 2.48,2.95 c 1.25,2.91 6.62,6.39 9.45,7.75 c 2.08,1.36 4.29,2.46 6.63,3.3 c 15.58,6.65 32.83,6.62 49.44,6.97 c 0.86,0.2 1.56,-0.02 2.1,-0.68 c 5.29,0.78 13.21,-0.46 18.74,-0.56 c 1.3,0.19 2.6,0.21 3.9,0.07 c 13.03,-0.59 26.08,-0.77 39.13,-0.51 c 2.56,-0.23 5.12,-0.31 7.69,-0.24 c 12.22,0.08 24.44,0.08 36.67,-0.02 c 3.45,0.25 6.9,0.29 10.35,0.12 c 6.06,0.36 12.13,0.43 18.2,0.22 c 0.12,0.3 0.35,0.45 0.7,0.45 c 4.06,0 8.12,0 12.17,-0.01 c 6.49,0.17 12.97,0.27 19.46,0.29 c 2.24,0.06 4.49,0.08 6.74,0.06 c 0.36,-0.09 0.72,-0.18 1.08,-0.27 c 4.44,0.18 14.06,1.22 17.88,-0.55 c 0.21,0.9 0.79,1.34 1.72,1.31 c 1.92,-0.04 4.82,0.6 6.5,-0.51 c 0.35,0.49 0.85,0.68 1.49,0.59 c 5.57,0.13 11.14,0.14 16.71,0.04 c 2.08,0.29 4.18,0.4 6.29,0.33 c 6.2,0.11 12.39,0.08 18.58,-0.1 c 2.48,0.25 4.96,0.25 7.46,0.01 c 11.79,0.34 23.59,0.35 35.39,0.05 c 0.32,0.03 0.64,0.06 0.97,0.09 c 6.08,0.08 12.17,0.03 18.27,-0.14 c 1.1,0.01 2.21,0 3.31,-0.02 c 12.89,-0.45 25.78,-0.85 38.67,-1.19 c 4.54,0.14 9,-0.4 13.37,-1.65 c 26.13,-5.99 37.74,-25.86 41.36,-51.02 c -0.03,-0.7 -0.38,-1.16 -1.04,-1.39 c 1.39,-1.01 2.03,-2.4 1.91,-4.17 c -0.23,-1.44 1.24,-6.6 -0.89,-6.91 c 2.12,-1.58 1.77,-5.11 1.65,-7.52 c 0.23,-3.43 0.26,-6.86 0.08,-10.28 c 0.16,-0.86 0.18,-1.72 0.05,-2.59 c -0.2,-2.91 0.04,-7.53 -0.93,-10.24 c 0.11,-0.7 0.1,-1.39 -0.02,-2.09 c 0.32,-2.3 0.51,-9.53 -0.43,-11.29 c 0.17,-1.21 0.91,-4.74 -0.14,-5.64 c 0.12,-4.31 0.1,-8.63 -0.06,-12.94 c 0.07,-1.59 0.01,-3.17 -0.19,-4.74 c 0.27,-3.51 0.6,-9.98 -0.17,-13.22 c -0.01,-0.34 -0.01,-0.68 -0.02,-1.03 c 0.86,-3.41 0.26,-8.45 0.45,-12.09 c 0.06,-1.57 -0.07,-3.12 -0.37,-4.66 c 0.6,-3.76 0.44,-9.45 0.13,-13.35 c 0.06,-0.31 0.12,-0.62 0.18,-0.93 c 0.04,-0.97 0.03,-1.93 -0.04,-2.89 c -0.14,-0.37 -0.29,-0.73 -0.43,-1.09 c 1.01,-3.35 0.33,-9.44 0.48,-13.11 c 0.06,-0.96 0.25,-3.2 -1.32,-2.97 c 2.27,-2.18 0.95,-21.14 1.16,-25.23 c 0.11,-1.17 0.11,-2.34 0.01,-3.51 c 0.28,-4.32 0.24,-8.64 -0.11,-12.96 c 0.18,-0.82 -0.13,-1.35 -0.92,-1.59 c 2.08,-1.21 1.19,-9.61 0.81,-11.66 c 0.11,-0.7 0.07,-1.4 -0.13,-2.08 c 1.05,-2.75 0.35,-8.8 0.48,-11.94 c 0.05,-0.92 -0.05,-1.81 -0.28,-2.7 c 0.41,-4.51 0.45,-9.03 0.1,-13.54 c 0,-1.47 0.89,-4.09 -0.68,-4.98 c 1.45,-4.05 0.52,-17.76 0.62,-22.81 c -0.02,-0.97 -0.08,-1.93 -0.2,-2.89 c 0.75,-2.42 0.74,-9.53 0.09,-11.94 c 0.11,-0.74 0.11,-1.48 -0.02,-2.22 c 0.7,-3.39 0.56,-8.63 0.18,-12.14 c 0.17,-1.17 0.19,-2.34 0.05,-3.51 c 0.29,-4.39 0.26,-8.78 -0.08,-13.16 c -0.06,-0.69 -0.11,-1.38 -0.14,-2.07 c 0.45,-11.42 0.52,-22.85 0.22,-34.28 c 0.12,-1.14 0.13,-2.28 0.01,-3.43 c 0.27,-4.5 0.24,-8.99 -0.06,-13.49 c 0.1,-0.83 0.11,-1.67 0.04,-2.5 c 0.26,-4.52 0.27,-9.03 0.04,-13.54 c 0.1,-1.17 0.09,-2.35 -0.02,-3.52 c 0.36,-4.18 0.24,-8.35 -0.35,-12.51 c -0.11,-0.3 -0.32,-0.45 -0.62,-0.47 c 0.02,-1.05 -0.09,-2.08 -0.33,-3.1 c -0.45,-2.2 -2.03,-8.23 -3.82,-9.44 c -0.07,-0.46 0.09,-1.63 -0.68,-1.45 c -0.57,-3.06 -3.68,-6.05 -5.34,-8.63 c -0.59,-0.52 -1.19,-1.03 -1.8,-1.52 c -2.69,-2.93 -5.74,-5.42 -9.16,-7.47 c -1.05,-0.87 -2.25,-1.38 -3.59,-1.52 c -2.57,-2.72 -8.6,-4.69 -12.28,-5.5 c -1,-0.57 -2.08,-0.8 -3.23,-0.7 c -0.02,-0.33 -0.2,-0.56 -0.51,-0.69 c -4.34,-1.37 -8.77,-2.23 -13.29,-2.57 c -3.84,-1.07 -7.75,-1.62 -11.73,-1.64 c -5.14,-0.83 -10.31,-1.19 -15.52,-1.07 c -1.49,-0.04 -2.98,-0.01 -4.47,0.09 c -5.56,-0.2 -11.12,-0.19 -16.69,0.02 c -1.48,-0.08 -2.97,-0.01 -4.44,0.19 c -6.48,0.12 -12.95,0.46 -19.41,1.02 Z M 269.08,141.35 c 5.04,-0.84 10.01,0.61 14.89,1.62 c 0.81,1.1 1.87,1.38 3.18,0.86 c 0.16,0.5 0.5,0.76 1.02,0.79 c 21.03,10.51 36.52,31.46 52.81,47.9 c 19.07,17.92 49.43,39.42 35.63,69.8 c -6.35,13.11 -16.58,22.07 -27.32,31.47 c -16.13,16.13 -32.27,32.25 -48.43,48.36 c -35.95,34.15 -88.18,-13.98 -58.59,-48.81 c 0.42,-0.38 0.75,-0.82 0.99,-1.33 c 1.51,-1.73 6.84,-4.57 7.44,-6.47 c -68.5,-0.03 -137.05,0.05 -205.64,0.24 c -1.38,-0.95 -2.83,-1 -4.33,-0.17 c -2.06,-0.33 -4.12,-0.61 -6.19,-0.82 c -45.61,-10.88 -38.68,-73.11 8.96,-75.43 c 66,-0.07 132,-0.05 198,0.07 c 0.67,-0.11 7.67,0.31 5.98,-1.47 c -24.64,-21.71 -13.1,-59.52 18.2,-65.98 c 0.82,-0.08 3.03,0.34 3.4,-0.63 Z M 244.13,176.35 c 0,0.48 -0.01,0.96 -0.03,1.44 c 0.57,7.46 2.96,14.29 7.16,20.5 c 0.69,0.9 1.46,1.73 2.31,2.49 c 1.08,1.88 5.16,7.23 7.44,7.16 c -0.01,1.81 3.12,2.67 2.95,5.82 c -1.36,2.31 -3.39,3.48 -6.1,3.51 c -2.89,-0.12 -5.79,-0.12 -8.68,0.02 c -6.07,-0.19 -12.13,-0.16 -18.19,0.07 c -0.81,-0.31 -1.55,-0.18 -2.21,0.37 c -3.56,-1.11 -12.78,-0.46 -16.9,-0.39 c -0.91,0.01 -1.81,0.01 -2.71,-0.01 c -6.11,-0.23 -12.22,-0.22 -18.33,0.02 c -2.44,0.07 -9.28,-0.96 -11.03,0.71 c 0.14,-0.35 0.02,-0.6 -0.33,-0.74 c -11.54,-0.16 -23.08,-0.16 -34.62,-0.02 c -4.54,-0.14 -9.08,-0.15 -13.62,-0.02 c -6.14,-0.17 -12.28,-0.15 -18.41,0.06 c -4.57,-0.17 -9.14,-0.2 -13.72,-0.09 c -6.35,-0.13 -12.69,-0.01 -19.02,0.35 c -1.91,-0.49 -3.85,-0.57 -5.82,-0.24 c -6.1,-0.27 -12.21,-0.26 -18.31,0.03 c -4.38,-0.06 -12.82,-0.84 -16.74,0.51 c -16.76,1.45 -26.74,17.37 -24.26,33.36 c 0.05,0.86 0.13,1.72 0.24,2.57 c 0.63,3.47 1.91,6.67 3.83,9.6 c 0.87,1.84 2.08,3.4 3.63,4.69 c 2.72,3.4 6.13,5.8 10.25,7.21 c 1.79,0.97 6.95,2.6 8.65,1.49 c 0.55,0.65 1.25,0.96 2.11,0.92 c 11.09,0.15 22.18,0.02 33.25,-0.38 c 1.78,0.79 7.71,0.22 9.95,0.34 c 5.69,0.1 11.38,0.09 17.07,-0.03 c 0.63,-0.03 3.11,0.62 3.12,-0.4 c 3.92,1.05 12.44,0.28 16.87,0.46 c 0.95,0.1 1.9,0.07 2.84,-0.09 c 6.13,0.17 12.25,0.17 18.38,0.01 c 2.88,0.1 5.76,0.13 8.64,0.08 c 6.08,0.07 12.17,0.05 18.25,-0.04 c 1.95,0.07 3.9,0.06 5.85,-0.04 c 6.03,0.17 12.06,0.16 18.09,-0.03 c 3.59,0.13 7.18,0.17 10.77,0.1 c 6.1,0.11 12.2,0.07 18.3,-0.12 c 4.93,0.16 9.86,0.19 14.79,0.08 c 5.64,-0.2 13.82,0.48 19.15,-0.52 c 0.32,1.04 2.29,0.81 3.14,0.97 c 1.91,2.79 1.86,3.47 -0.3,6.27 c -7.92,8.73 -16.66,15.02 -17.56,27.81 c -0.25,1.25 -0.34,2.51 -0.26,3.78 c 0.57,6.86 3.24,14.14 8.12,19.1 c 0.15,0.37 0.33,0.73 0.53,1.08 c 2.46,2.51 5.24,4.59 8.34,6.23 c 2.09,1.17 4.31,2.01 6.65,2.52 c 10.3,2.17 18.41,-1.06 26.2,-7.67 c 21.64,-21.23 71.87,-56.72 71.28,-89.54 c 0.26,-1.23 0.28,-2.47 0.06,-3.71 c -0.64,-6.85 -2.64,-13.29 -6,-19.31 c -0.69,-1.45 -1.66,-2.66 -2.91,-3.63 c -0.63,-2.58 -3.3,-5.67 -5.34,-7.34 c -1.37,-2.1 -3.03,-3.96 -4.96,-5.57 c -2.35,-2.73 -4.95,-5.19 -7.8,-7.39 c -1.1,-1.45 -2.51,-2.36 -4.25,-2.74 c 0.03,-1.89 -5.68,-4.92 -6.96,-6.39 c -0.6,-0.55 -1.16,-1.14 -1.68,-1.77 c -2.5,-2.29 -4.9,-4.68 -7.22,-7.17 c -1.5,-1.64 -3.06,-3.21 -4.69,-4.72 c -1.58,-1.72 -5.22,-6.69 -7.48,-7 c 0.42,-1.19 -1.15,-2 -1.65,-2.92 c -5.06,-4.89 -10.51,-9.29 -16.35,-13.21 c -0.75,-0.69 -1.6,-1.23 -2.54,-1.64 c -0.41,-0.01 -0.82,-0.01 -1.23,-0.02 c -0.57,-1.87 -8.74,-3.81 -10.76,-3.8 c -15.24,-1.06 -28.25,12.16 -29.24,26.97 Z"/></g>
<g><path fill="#aa6255" fill-opacity="0.157" stroke="#aa6255" stroke-width="0.5" stroke-opacity="0.157" d="M 457,347 c 0,0.68 -0.01,1.36 -0.02,2.04 c -0.93,-0.53 -1.06,-1.24 -0.4,-2.13 c 0.14,0.03 0.28,0.06 0.42,0.09 Z"/></g>
<g><path fill="#a96351" fill-opacity="0.553" stroke="#a96351" stroke-width="0.5" stroke-opacity="0.553" d="M 358.83,489.18 c 0.28,-1.76 2.34,-2.87 3.88,-2.83 c -0.84,1.56 -2.13,2.51 -3.88,2.83 Z"/></g>
<g><path fill="#ac6252" fill-opacity="0.263" stroke="#ac6252" stroke-width="0.5" stroke-opacity="0.263" d="M 24.89,42.09 c 0.04,-0.8 1.26,-1.83 1.85,-0.86 c -0.43,0.66 -1.05,0.95 -1.85,0.86 Z"/></g>
<g><path fill="#aa6353" fill-opacity="0.435" stroke="#aa6353" stroke-width="0.5" stroke-opacity="0.435" d="M 145.18,43.33 c -0.02,0.24 -0.04,0.49 -0.06,0.74 c -0.36,-0.11 -0.73,-0.22 -1.09,-0.33 c 0.36,-0.21 0.74,-0.34 1.15,-0.41 Z M 14.17,62.96 c 0.32,0.1 0.65,0.19 0.97,0.29 c -0.38,0.38 -0.83,0.66 -1.35,0.84 c 0.13,-0.38 0.25,-0.75 0.38,-1.13 Z"/></g>
<g><path fill="#ab6553" fill-opacity="0.2" d="M 424.28,456.74 c -0.82,0.31 -1.66,0.42 -2.53,0.32 c 0.15,-1.38 1.97,-1.29 2.53,-0.32 Z"/></g>
<g><path fill="#a96352" fill-opacity="0.231" stroke="#a96352" stroke-width="0.5" stroke-opacity="0.231" d="M 119.79,41.01 c 0,0.38 0,0.76 0,1.14 c -0.26,-0.15 -0.51,-0.31 -0.77,-0.46 c 0.25,-0.24 0.51,-0.46 0.77,-0.68 Z"/></g>
<g><path fill="#ab6254" fill-opacity="0.275" stroke="#ab6254" stroke-width="0.5" stroke-opacity="0.275" d="M 457.19,399.79 c 0.25,0.13 0.51,0.25 0.76,0.37 c 0.01,0.29 0.02,0.58 0.03,0.88 c -0.59,-0.2 -0.85,-0.62 -0.79,-1.25 Z"/></g>
<g><path fill="#5bc279" fill-opacity="0.165" stroke="#5bc279" stroke-width="0.5" stroke-opacity="0.165" d="M 243.26,292.01 c -0.24,0.51 -0.57,0.95 -0.99,1.33 c -0.01,-0.71 0.32,-1.15 0.99,-1.33 Z"/></g>
<g><path fill="#ab6250" fill-opacity="0.286" d="M 470.28,244.1 c -0.34,0.39 -0.68,0.79 -1.01,1.2 c -0.21,-0.86 0.12,-1.26 1.01,-1.2 Z"/></g>
<g><path fill="#ab6351" fill-opacity="0.333" stroke="#ab6351" stroke-width="0.5" stroke-opacity="0.333" d="M 465.15,225.98 c 0.2,0.03 0.39,0.07 0.59,0.1 c -0.07,0.5 -0.34,0.84 -0.83,1.02 c 0.08,-0.38 0.16,-0.75 0.24,-1.12 Z"/></g>
<g><path fill="#ac6153" fill-opacity="0.216" stroke="#ac6153" stroke-width="0.5" stroke-opacity="0.216" d="M 457.97,210.99 c -0.08,0.37 -0.15,0.74 -0.22,1.11 c -0.19,-0.04 -0.38,-0.07 -0.57,-0.11 c -0.07,-0.6 0.2,-0.93 0.79,-1 Z"/></g>
<g><path fill="#a96251" fill-opacity="0.408" stroke="#a96251" stroke-width="0.5" stroke-opacity="0.408" d="M 112.83,12.93 c 0.38,0.1 0.76,0.19 1.15,0.29 c -0.33,0.25 -0.68,0.44 -1.06,0.58 c -0.03,-0.29 -0.06,-0.58 -0.09,-0.87 Z"/></g>
<g><path fill="#ab6454" fill-opacity="0.239" stroke="#ab6454" stroke-width="0.5" stroke-opacity="0.239" d="M 303.04,13.92 c 0.37,-0.03 0.75,-0.06 1.12,-0.09 c -0.18,0.7 -0.63,1.02 -1.34,0.97 c 0.07,-0.3 0.15,-0.59 0.22,-0.88 Z"/></g>
<g><path fill="#a86050" fill-opacity="0.584" d="M 7.88,460.69 c -0.05,0.44 -0.1,0.88 -0.15,1.33 c -0.28,0.09 -0.56,0.19 -0.84,0.29 c 0.08,-0.7 0.41,-1.24 0.99,-1.62 Z"/></g>
<g><path fill="#8e5548" fill-opacity="0.318" stroke="#8e5548" stroke-width="0.5" stroke-opacity="0.318" d="M 52.93,15.36 c -0.24,0.16 -0.49,0.31 -0.73,0.47 c -0.03,-0.54 0.21,-0.7 0.73,-0.47 Z"/></g>
<g><path fill="#ad6452" fill-opacity="0.11" stroke="#ad6452" stroke-width="0.5" stroke-opacity="0.11" d="M 48.65,111.92 c 0.01,0.41 0.02,0.82 0.02,1.24 c -0.25,-0.41 -0.26,-0.82 -0.02,-1.24 Z"/></g>
<g><path fill="#a96351" fill-opacity="0.455" d="M 44.94,100.01 c -0.24,0.43 -0.6,0.69 -1.09,0.77 c 0.31,-0.32 0.68,-0.58 1.09,-0.77 Z"/></g>
<g><path fill="#a15e4e" fill-opacity="0.957" d="M 44.15,19.02 c -0.07,0.29 -0.15,0.58 -0.23,0.86 c -0.33,-0.05 -0.67,-0.09 -1.01,-0.14 c 0.25,-0.51 0.66,-0.75 1.24,-0.72 Z"/></g>
<g><path fill="#aa604f" fill-opacity="0.176" stroke="#aa604f" stroke-width="0.5" stroke-opacity="0.176" d="M 408.98,54.03 c 0.3,0.09 0.6,0.17 0.9,0.25 c 0.08,0.13 0.15,0.25 0.23,0.38 c -0.63,0.22 -1.01,0.02 -1.13,-0.63 Z"/></g>
<g><path fill="#a96352" fill-opacity="0.243" stroke="#a96352" stroke-width="0.5" stroke-opacity="0.243" d="M 248.79,45.11 c -0.05,0.4 -0.11,0.8 -0.16,1.2 c -0.22,-0.22 -0.43,-0.44 -0.65,-0.66 c 0.29,-0.15 0.56,-0.33 0.81,-0.54 Z"/></g>
<g><path fill="#a96453" fill-opacity="0.349" stroke="#a96453" stroke-width="0.5" stroke-opacity="0.349" d="M 220.14,45.32 c -0.05,0.3 -0.09,0.59 -0.14,0.89 c -0.33,-0.19 -0.66,-0.37 -0.99,-0.56 c 0.38,-0.11 0.75,-0.22 1.13,-0.33 Z"/></g>
<g><path fill="#a86251" fill-opacity="0.184" stroke="#a86251" stroke-width="0.5" stroke-opacity="0.184" d="M 41.05,503.82 c 0.57,0.17 1,0.5 1.3,1 c -0.77,0.09 -1.2,-0.25 -1.3,-1 Z"/></g>
<g><path fill="#9e5d4b" fill-opacity="0.278" stroke="#9e5d4b" stroke-width="0.5" stroke-opacity="0.278" d="M 18.95,22.64 c -0.08,0.61 -0.29,1.16 -0.64,1.66 c -0.09,-0.68 0.12,-1.23 0.64,-1.66 Z"/></g>
<g><path fill="#5fc77d" fill-opacity="0.996" stroke="#5fc77d" stroke-width="0.5" stroke-opacity="0.996" d="M 284.13,153.18 c -0.15,0.25 -0.3,0.51 -0.44,0.77 c -1.15,1.75 -7.36,6.26 -7.55,7.83 c -1.21,0.15 -2.15,0.71 -2.82,1.69 c 1.22,0.97 2.31,-0.67 2.82,-1.69 c 2.7,-0.22 7.89,-4.18 10.59,-5.37 c 0.67,-0.33 1.06,-0.85 1.17,-1.57 c 5.84,3.92 11.29,8.32 16.35,13.21 c -4.13,3.26 -8.12,6.7 -11.95,10.3 c 0.3,0.24 0.63,0.3 1,0.16 c 2.06,-1.09 11.86,-6.05 12.6,-7.54 c 2.26,0.31 5.9,5.28 7.48,7 c -0.85,-0.09 -1.66,0.04 -2.43,0.39 c -16.31,9.44 -32.62,18.88 -48.94,28.3 c -0.51,0.3 -0.84,0.72 -1,1.28 c -2.28,0.07 -6.36,-5.28 -7.44,-7.16 c 2.55,-2.31 5.15,-4.56 7.81,-6.75 c 1.12,-0.76 1.96,-1.73 2.53,-2.92 c 0.77,-0.18 4.61,-1.73 3.49,-2.91 c -1.58,0.46 -2.74,1.43 -3.49,2.91 c -1.49,0.02 -2.82,0.51 -4,1.48 c -2.9,2.05 -6.2,3.08 -8.65,5.7 c -4.2,-6.21 -6.59,-13.04 -7.16,-20.5 c 0.32,0.08 0.63,0.16 0.95,0.24 c 0.42,-0.2 0.81,-0.46 1.16,-0.77 c 0.36,-0.34 0.71,-0.68 1.06,-1.03 c 0.43,-0.83 3.29,-2.33 2.29,-3.33 c -1.38,0.39 -2.67,1.01 -3.85,1.85 c -0.63,0.42 -1.16,0.96 -1.58,1.6 c 0.99,-14.81 14,-28.03 29.24,-26.97 c 2.02,-0.01 10.19,1.93 10.76,3.8 Z M 318.07,182.69 c 2.32,2.49 4.72,4.88 7.22,7.17 c -0.83,0.09 -1.6,0.33 -2.33,0.74 c -6.75,4.6 -13.53,9.15 -20.34,13.65 c -0.53,0.4 -1,0.86 -1.41,1.38 c -1.07,0.74 -3.19,0.52 -3.06,2.27 c -1.64,-0.12 -2.71,0.61 -3.21,2.17 c -0.76,-0.21 -1.37,-0.01 -1.84,0.6 c 0.51,0.94 1.97,0.32 1.84,-0.6 c 1.41,-0.24 2.48,-0.96 3.21,-2.17 c 0.63,-0.09 1.26,-0.2 1.89,-0.32 c 8.95,-5.36 17.93,-10.67 26.93,-15.95 c 1.28,1.47 6.99,4.5 6.96,6.39 c -13.13,9.36 -26.31,18.66 -39.52,27.88 c -0.26,0.24 -0.32,0.52 -0.19,0.84 c -0.91,-0.04 -1.65,0.28 -2.23,0.96 c 0.75,1.06 2.06,-0.05 2.23,-0.96 c 1.2,-0.33 2.35,-0.81 3.45,-1.45 c 13.15,-7.59 26.31,-15.17 39.47,-22.74 c 0.63,-0.43 0.98,-1.03 1.04,-1.79 c 2.85,2.2 5.45,4.66 7.8,7.39 c -0.62,-0.04 -1.17,0.15 -1.64,0.56 c -13.37,10.38 -26.83,20.62 -40.39,30.73 c -0.51,0.37 -0.75,0.86 -0.73,1.48 c -1.4,0.02 -2.45,0.6 -3.16,1.74 c 1.04,1.08 2.57,-0.96 3.16,-1.74 c 0.83,-0.17 1.61,-0.45 2.35,-0.87 c 15.17,-8.69 30.3,-17.46 45.37,-26.33 c 2.04,1.67 4.71,4.76 5.34,7.34 c -3.18,2.7 -28.96,20.21 -29.08,21.76 c -1.5,0.07 -2.56,0.8 -3.16,2.2 c -0.79,-0.17 -1.44,0.05 -1.96,0.65 c 0.57,0.9 1.85,0.16 1.96,-0.65 c 1.42,-0.22 2.47,-0.95 3.16,-2.2 c 5.92,-2.24 25.49,-13.95 31.99,-18.13 c 3.36,6.02 5.36,12.46 6,19.31 c -0.78,-0.18 -1.53,-0.07 -2.23,0.33 c -8.69,6 -17.27,12.11 -25.76,18.33 c -0.96,0.83 -3.04,0.56 -3.04,2.15 c -0.97,0.37 -2.88,0.6 -3.1,1.85 c 1.06,1.2 2.61,-1.01 3.1,-1.85 c 0.64,0.08 1.28,0.04 1.9,-0.13 c 2.84,-1.85 5.7,-3.68 8.58,-5.49 c 6.87,-3.75 13.7,-7.57 20.49,-11.48 c 0.59,32.82 -49.64,68.31 -71.28,89.54 c -7.79,6.61 -15.9,9.84 -26.2,7.67 c 9.99,-7.81 19.97,-15.63 29.93,-23.43 c -1.96,-0.17 -4.1,1.74 -5.34,3.08 c -10.52,5.74 -20.93,11.69 -31.24,17.83 c -3.1,-1.64 -5.88,-3.72 -8.34,-6.23 c 0.84,-0.1 1.63,-0.36 2.36,-0.79 c 3.68,-2.64 7.43,-5.2 11.24,-7.67 c 0.65,-0.42 1.17,-0.94 1.57,-1.57 c 0.65,-0.39 3.88,-1.01 2.72,-2.2 c -1.32,0.22 -2.22,0.95 -2.72,2.2 c -0.64,-0.01 -1.29,0.04 -1.92,0.13 c -4.04,2.75 -8.24,5.25 -12.58,7.48 c -0.59,0.29 -0.98,0.74 -1.2,1.34 c -4.88,-4.96 -7.55,-12.24 -8.12,-19.1 c 2.36,0.1 20.45,-13.51 23.67,-15.83 c 3.41,-2.32 6.88,-4.55 10.4,-6.71 c 0.53,-0.27 0.77,-0.71 0.7,-1.31 c 0.8,-0.11 1.58,-0.3 2.34,-0.57 c 1.3,-1.05 1.13,-1.48 -0.51,-1.26 c -0.81,0.41 -1.42,1.02 -1.83,1.83 c -2.34,0.22 -32,17.61 -34.51,20.07 c 0.9,-12.79 9.64,-19.08 17.56,-27.81 c 2.16,-2.8 2.21,-3.48 0.3,-6.27 c 4.85,-3.25 9.67,-6.59 14.43,-10 c 0.97,-0.99 2.04,-1.86 3.22,-2.59 c -0.02,-0.13 -0.04,-0.26 -0.05,-0.4 c 0.48,0.14 2.97,-0.45 1.76,-1.23 c -0.74,0.19 -1.33,0.6 -1.76,1.23 c -1.13,0.06 -1.98,0.57 -2.55,1.54 c -6.24,3.19 -12.3,6.69 -18.19,10.48 c -5.33,1 -13.51,0.32 -19.15,0.52 c 15.39,-8.61 28.96,-24.67 44.25,-33.09 c 0.53,-0.35 0.78,-0.84 0.73,-1.47 c 1.11,-0.21 2.95,-0.29 3.13,-1.74 c -1.06,-1.13 -2.63,0.85 -3.13,1.74 c -1.27,0.49 -2.53,1.06 -3.79,1.69 c -17.91,10.31 -35.81,20.62 -53.72,30.94 c -0.89,0.45 -1.64,1.07 -2.26,1.85 c -6.1,0.19 -12.2,0.23 -18.3,0.12 c 14.64,-10.39 29.28,-20.72 43.93,-31 c -1.59,-1.51 -3.36,0.85 -4.48,1.85 c -16.23,9.1 -32.41,18.32 -48.55,27.66 c -0.64,0.37 -1.19,0.83 -1.67,1.39 c -6.03,0.19 -12.06,0.2 -18.09,0.03 c 8.93,-5.76 17.78,-11.66 26.56,-17.72 c 0.94,-0.91 3.75,-1.13 3.42,-2.79 c 2.03,-0.34 3.74,-1.37 5.07,-2.81 c -0.88,-1.38 -4.53,1.76 -5.07,2.81 c -3.04,0.83 -30.1,17.03 -35.35,19.86 c -0.29,0.14 -0.45,0.37 -0.48,0.69 c -6.08,0.09 -12.17,0.11 -18.25,0.04 c 8.35,-5.9 19.53,-14.14 27.03,-20.53 c 0.41,-0.48 4.21,-1.24 2.71,-2.24 c -1.36,0.17 -2.26,0.92 -2.71,2.24 c -2.51,-0.38 -3.5,1.5 -5.43,2.64 c -4.99,2.62 -27.74,15.19 -30.24,17.81 c -6.13,0.16 -12.25,0.16 -18.38,-0.01 c 0.13,-0.31 0.25,-0.63 0.38,-0.95 c 0.38,0.03 0.75,0.05 1.13,0.08 c 0.85,-0.31 1.43,-0.89 1.74,-1.76 c 1.35,-0.14 2.36,-0.82 3.04,-2.03 c 0.71,0.1 1.28,-0.13 1.69,-0.7 c -0.51,-0.86 -1.57,0.03 -1.69,0.7 c -1.46,0.03 -2.48,0.7 -3.04,2.03 c -0.92,-0.15 -1.66,0.14 -2.22,0.86 c -0.38,0.15 -0.76,0.31 -1.14,0.46 c -0.99,0.31 -1.9,0.78 -2.73,1.4 c -4.43,-0.18 -12.95,0.59 -16.87,-0.46 c -1.11,-0.56 -2.15,-0.43 -3.12,0.4 c -5.69,0.12 -11.38,0.13 -17.07,0.03 c 8.6,-6.34 21.39,-15.62 28.99,-22.47 c 0.62,-0.3 3.96,-1.09 2.61,-2.2 c -1.29,0.23 -2.16,0.96 -2.61,2.2 c -3.93,1 -34.86,19.25 -38.94,22.13 c -11.07,0.4 -22.16,0.53 -33.25,0.38 c -0.86,0.04 -1.56,-0.27 -2.11,-0.92 c 12.15,-9.26 24.18,-18.67 36.08,-28.26 c -1.6,-0.79 -1.84,1 -3.06,1.53 c -13.63,7.65 -27.2,15.4 -40.71,23.28 c -0.68,0.48 -1,1.13 -0.96,1.96 c -4.12,-1.41 -7.53,-3.81 -10.25,-7.21 c 0.88,0.07 1.67,-0.15 2.39,-0.66 c 9.12,-7.73 18.31,-15.34 27.57,-22.82 c -0.21,-0.35 -0.52,-0.49 -0.94,-0.39 c -10.97,6.24 -21.85,12.64 -32.65,19.18 c -1.92,-2.93 -3.2,-6.13 -3.83,-9.6 c 3.58,-2.63 7.07,-5.38 10.47,-8.23 c -1.7,-0.91 -1.93,0.88 -3.17,1.49 c -2.53,1.32 -5.05,2.71 -7.54,4.17 c -2.48,-15.99 7.5,-31.91 24.26,-33.36 c -3.98,5.2 -7.94,10.39 -11.89,15.58 c 0.27,0.28 0.58,0.34 0.96,0.17 c 9.28,-5.34 18.5,-10.76 27.67,-16.26 c 6.1,-0.29 12.21,-0.3 18.31,-0.03 c -0.89,0.58 -1.8,1.13 -2.73,1.65 c -3.46,2.91 -6.98,5.73 -10.59,8.44 c -0.46,0.33 -0.72,0.78 -0.77,1.34 c -1.23,0.23 -2.2,0.82 -2.92,1.78 c 0.99,1.15 2.53,-0.94 2.92,-1.78 c 3.56,-0.9 16.16,-8.52 19.91,-11.19 c 6.33,-0.36 12.67,-0.48 19.02,-0.35 c -0.86,0.59 -1.74,1.16 -2.63,1.72 c -9.74,8.15 -19.48,16.28 -29.2,24.38 c 0.56,0.35 1.15,0.36 1.76,0.04 c 13.83,-8.13 27.71,-16.19 41.62,-24.19 c 0.84,-0.48 1.56,-1.1 2.17,-1.86 c 6.13,-0.21 12.27,-0.23 18.41,-0.06 c -10.54,8.29 -21.09,16.58 -31.66,24.89 c -0.51,0.47 -0.98,0.98 -1.4,1.53 c -0.98,0.52 -1.92,1.05 -2.84,1.6 c 1.44,1.47 2.38,-0.43 3.55,-1.14 c 13.73,-7.81 27.45,-15.68 41.13,-23.6 c 1.7,-0.95 3.32,-2.04 4.84,-3.26 c 11.54,-0.14 23.08,-0.14 34.62,0.02 c 0.35,0.14 0.47,0.39 0.33,0.74 c -8.54,6.22 -16.98,12.55 -25.33,18.99 c -1.03,2.41 -4.08,1.71 -4.41,3.7 c -0.92,0.42 -2.7,0.69 -2.94,1.87 c 1.08,0.96 2.6,-0.89 2.94,-1.87 c 2.93,0.11 32.84,-18.28 37.97,-21.19 c 1.1,-0.54 2.04,-1.28 2.8,-2.21 c 6.11,-0.24 12.22,-0.25 18.33,-0.02 c 0,0.22 0,0.43 0.01,0.64 c -0.49,0.03 -0.97,0.06 -1.46,0.09 c -1.31,1.02 -4.25,2.36 -4.7,4 c -1.44,-0.25 -2.45,0.26 -3.04,1.54 c 1.04,0.94 2.53,-0.65 3.04,-1.54 c 1.91,-0.49 3.58,-1.41 5,-2.78 c 0.35,-0.09 0.69,-0.18 1.03,-0.27 c 1.04,-0.4 1.98,-0.95 2.83,-1.67 c 4.12,-0.07 13.34,-0.72 16.9,0.39 c 0.59,0.19 2.03,0.55 2.21,-0.37 c 6.06,-0.23 12.12,-0.26 18.19,-0.07 c -3.41,2.13 -26.42,19.25 -27.11,20.57 c -1.29,0.17 -2.3,0.76 -3.04,1.77 c 1.04,1.15 2.69,-0.77 3.04,-1.77 c 3.81,-0.11 30.17,-16.76 35.41,-19.85 c 0.24,-0.19 0.37,-0.44 0.38,-0.74 c 2.71,-0.03 4.74,-1.2 6.1,-3.51 c 2.1,0.24 46.84,-26.42 52.61,-29.74 c 0.58,-0.36 1.08,-0.8 1.5,-1.33 Z M 223.1,221.99 c -0.83,-0.16 -1.51,0.07 -2.04,0.69 c 0.58,1 2,0.24 2.04,-0.69 c 0.89,-0.34 3.53,-0.84 2.43,-2.14 c -1.36,0.08 -2.17,0.79 -2.43,2.14 Z M 254.01,322.06 c -1.34,-0.05 -2.33,0.48 -2.98,1.61 c 0.84,1.1 2.61,-0.73 2.98,-1.61 c 0.51,0.14 2.62,-0.43 1.51,-1.17 c -0.71,0.12 -1.21,0.51 -1.51,1.17 Z"/></g>
<g><path fill="#60c77e" fill-opacity="0.318" stroke="#60c77e" stroke-width="0.5" stroke-opacity="0.318" d="M 254.01,322.06 c -0.37,0.88 -2.14,2.71 -2.98,1.61 c 0.65,-1.13 1.64,-1.66 2.98,-1.61 Z"/></g>
<g><path fill="#5ec77d" fill-opacity="0.341" stroke="#5ec77d" stroke-width="0.5" stroke-opacity="0.341" d="M 133.06,272.98 c -0.68,1.21 -1.69,1.89 -3.04,2.03 c 0.56,-1.33 1.58,-2 3.04,-2.03 Z"/></g>
<g><path fill="#5fc87e" fill-opacity="0.412" stroke="#5fc87e" stroke-width="0.5" stroke-opacity="0.412" d="M 334.16,264.81 c -0.49,0.84 -2.04,3.05 -3.1,1.85 c 0.22,-1.25 2.13,-1.48 3.1,-1.85 Z"/></g>
<g><path fill="#60c97e" fill-opacity="0.337" stroke="#60c97e" stroke-width="0.5" stroke-opacity="0.337" d="M 115.86,255.23 c 0.45,-1.24 1.32,-1.97 2.61,-2.2 c 1.35,1.11 -1.99,1.9 -2.61,2.2 Z"/></g>
<g><path fill="#5fc77c" fill-opacity="0.404" stroke="#5fc77c" stroke-width="0.5" stroke-opacity="0.404" d="M 324.04,245.02 c -0.11,0.81 -1.39,1.55 -1.96,0.65 c 0.52,-0.6 1.17,-0.82 1.96,-0.65 Z M 254.01,322.06 c 0.3,-0.66 0.8,-1.05 1.51,-1.17 c 1.11,0.74 -1,1.31 -1.51,1.17 Z"/></g>
<g><path fill="#60c87e" fill-opacity="0.263" stroke="#60c87e" stroke-width="0.5" stroke-opacity="0.263" d="M 327.2,242.82 c -0.69,1.25 -1.74,1.98 -3.16,2.2 c 0.6,-1.4 1.66,-2.13 3.16,-2.2 Z"/></g>
<g><path fill="#5fc77c" fill-opacity="0.51" stroke="#5fc77c" stroke-width="0.5" stroke-opacity="0.51" d="M 150.07,240.75 c -0.34,0.98 -1.86,2.83 -2.94,1.87 c 0.24,-1.18 2.02,-1.45 2.94,-1.87 Z"/></g>
<g><path fill="#5fc87d" fill-opacity="0.384" stroke="#5fc87d" stroke-width="0.5" stroke-opacity="0.384" d="M 222.07,237.86 c -0.35,1 -2,2.92 -3.04,1.77 c 0.74,-1.01 1.75,-1.6 3.04,-1.77 Z M 180.82,257.2 c 0.45,-1.32 1.35,-2.07 2.71,-2.24 c 1.5,1 -2.3,1.76 -2.71,2.24 Z"/></g>
<g><path fill="#5fc77d" fill-opacity="0.498" stroke="#5fc77d" stroke-width="0.5" stroke-opacity="0.498" d="M 60.18,228.79 c -0.39,0.84 -1.93,2.93 -2.92,1.78 c 0.72,-0.96 1.69,-1.55 2.92,-1.78 Z M 284.82,243.12 c 0.5,-0.89 2.07,-2.87 3.13,-1.74 c -0.18,1.45 -2.02,1.53 -3.13,1.74 Z"/></g>
<g><path fill="#5fc77d" fill-opacity="0.447" stroke="#5fc77d" stroke-width="0.5" stroke-opacity="0.447" d="M 294.94,210.07 c 0.13,0.92 -1.33,1.54 -1.84,0.6 c 0.47,-0.61 1.08,-0.81 1.84,-0.6 Z M 303.22,240.92 c -0.59,0.78 -2.12,2.82 -3.16,1.74 c 0.71,-1.14 1.76,-1.72 3.16,-1.74 Z M 207.87,257.14 c 0.54,-1.05 4.19,-4.19 5.07,-2.81 c -1.33,1.44 -3.04,2.47 -5.07,2.81 Z"/></g>
<g><path fill="#5fc77d" fill-opacity="0.365" stroke="#5fc77d" stroke-width="0.5" stroke-opacity="0.365" d="M 298.15,207.9 c -0.73,1.21 -1.8,1.93 -3.21,2.17 c 0.5,-1.56 1.57,-2.29 3.21,-2.17 Z M 223.1,221.99 c 0.26,-1.35 1.07,-2.06 2.43,-2.14 c 1.1,1.3 -1.54,1.8 -2.43,2.14 Z M 267.83,326.14 c 0.5,-1.25 1.4,-1.98 2.72,-2.2 c 1.16,1.19 -2.07,1.81 -2.72,2.2 Z"/></g>
<g><path fill="#60c77d" fill-opacity="0.561" d="M 263.91,191.11 c 0.75,-1.48 1.91,-2.45 3.49,-2.91 c 1.12,1.18 -2.72,2.73 -3.49,2.91 Z"/></g>
<g><path fill="#5fc77d" fill-opacity="0.475" stroke="#5fc77d" stroke-width="0.5" stroke-opacity="0.475" d="M 276.14,161.78 c -0.51,1.02 -1.6,2.66 -2.82,1.69 c 0.67,-0.98 1.61,-1.54 2.82,-1.69 Z M 203.02,222.06 c -0.51,0.89 -2,2.48 -3.04,1.54 c 0.59,-1.28 1.6,-1.79 3.04,-1.54 Z M 223.1,221.99 c -0.04,0.93 -1.46,1.69 -2.04,0.69 c 0.53,-0.62 1.21,-0.85 2.04,-0.69 Z M 279.73,265.14 c 0.43,-0.63 1.02,-1.04 1.76,-1.23 c 1.21,0.78 -1.28,1.37 -1.76,1.23 Z M 133.06,272.98 c 0.12,-0.67 1.18,-1.56 1.69,-0.7 c -0.41,0.57 -0.98,0.8 -1.69,0.7 Z M 278.78,292.14 c 0.41,-0.81 1.02,-1.42 1.83,-1.83 c 1.64,-0.22 1.81,0.21 0.51,1.26 c -0.76,0.27 -1.54,0.46 -2.34,0.57 Z"/></g>
<g><path fill="#262626" fill-opacity="0.373" stroke="#262626" stroke-width="0.5" stroke-opacity="0.373" d="M 512,346.98 c 0,6.01 0,12.01 0,18.02 c -0.24,0.01 -0.48,0.02 -0.72,0.04 c -0.17,-5.85 -0.16,-11.7 0.04,-17.54 c 0.09,-0.37 0.32,-0.55 0.68,-0.52 Z"/></g>
<g><path fill="#2a1d1b" fill-opacity="0.125" stroke="#2a1d1b" stroke-width="0.5" stroke-opacity="0.125" d="M 471.96,114.65 c 0.09,0.44 0.17,0.88 0.25,1.33 c -1.48,-0.66 -1.6,3.02 -4.08,2.81 c 0,-0.88 0.03,-1.76 0.07,-2.64 c 1.22,-0.6 2.47,-1.1 3.76,-1.5 Z"/></g>
<g><path fill="#68473d" fill-opacity="0.204" stroke="#68473d" stroke-width="0.5" stroke-opacity="0.204" d="M 50.8,16.2 c 0.29,0.81 -3.22,1.98 -3.82,2.72 c 0.06,-0.42 0.12,-0.84 0.17,-1.25 c 0.88,-1.37 2.09,-1.86 3.65,-1.47 Z"/></g>
<g><path fill="#5a3f38" fill-opacity="0.467" stroke="#5a3f38" stroke-width="0.5" stroke-opacity="0.467" d="M 230.19,13.27 c 1.28,-0.24 2.55,-0.2 3.82,0.11 c -0.86,0.61 -1.81,1.06 -2.82,1.36 c -0.24,-0.57 -0.68,-0.87 -1.33,-0.89 c 0.11,-0.19 0.22,-0.39 0.33,-0.58 Z"/></g>
<g><path fill="#233629" fill-opacity="0.031" stroke="#233629" stroke-width="0.5" stroke-opacity="0.031" d="M 245.71,174.75 c 1.22,-0.23 1.74,0.26 1.56,1.48 c -0.66,0.03 -1.01,0.37 -1.06,1.03 c -0.67,-0.14 -1.05,0.12 -1.16,0.77 c -0.32,-0.08 -0.63,-0.16 -0.95,-0.24 c 0.02,-0.48 0.03,-0.96 0.03,-1.44 c 0.42,-0.64 0.95,-1.18 1.58,-1.6 Z"/></g>
<g><path fill="#533a35" fill-opacity="0.482" stroke="#533a35" stroke-width="0.5" stroke-opacity="0.482" d="M 117.74,497.31 c 0.41,0.49 0.93,0.7 1.58,0.64 c -0.16,0.26 -0.31,0.52 -0.46,0.78 c -1.3,0.14 -2.6,0.12 -3.9,-0.07 c 0.84,-0.62 1.77,-1.07 2.78,-1.35 Z"/></g>
<g><path fill="#4c3832" fill-opacity="0.255" stroke="#4c3832" stroke-width="0.5" stroke-opacity="0.255" d="M 10,101.98 c 0.69,0.45 1.34,0.96 1.93,1.53 c -0.53,0.46 -0.94,1.01 -1.24,1.65 c -0.53,-1 -0.76,-2.06 -0.69,-3.18 Z"/></g>
<g><path fill="#35513d" fill-opacity="0.718" d="M 40.73,285.61 c 1.5,-0.83 2.95,-0.78 4.33,0.17 c -1.46,0.36 -2.9,0.31 -4.33,-0.17 Z"/></g>
<g><path fill="#365440" fill-opacity="0.592" d="M 269.08,141.35 c -0.37,0.97 -2.58,0.55 -3.4,0.63 c 0.19,-1.41 2.5,-0.96 3.4,-0.63 Z"/></g>
<g><path fill="#354b3b" fill-opacity="0.478" stroke="#354b3b" stroke-width="0.5" stroke-opacity="0.478" d="M 107.06,277.27 c -0.01,1.02 -2.49,0.37 -3.12,0.4 c 0.97,-0.83 2.01,-0.96 3.12,-0.4 Z"/></g>
<g><path fill="#3b302e" fill-opacity="0.318" stroke="#3b302e" stroke-width="0.5" stroke-opacity="0.318" d="M 96.22,499.22 c -0.54,0.66 -1.24,0.88 -2.1,0.68 c 0.49,-0.78 1.19,-1 2.1,-0.68 Z"/></g>
<g><path fill="#6d473e" fill-opacity="0.475" d="M 48.69,373.06 c 0.75,0.05 1.1,0.46 1.03,1.21 c -0.33,-0.41 -0.67,-0.82 -1.03,-1.21 Z M 49.72,374.27 c 0.82,-0.11 1.22,0.26 1.2,1.1 c -0.39,-0.37 -0.79,-0.74 -1.2,-1.1 Z"/></g>
<g><path fill="#6a483d" fill-opacity="0.392" d="M 456.9,257.63 c 0.04,0.91 0.03,1.82 -0.02,2.72 c -1.06,-0.92 -1.06,-1.83 0.02,-2.72 Z"/></g>
<g><path fill="#314335" fill-opacity="0.329" stroke="#314335" stroke-width="0.5" stroke-opacity="0.329" d="M 230.99,217.36 c -0.18,0.92 -1.62,0.56 -2.21,0.37 c 0.66,-0.55 1.4,-0.68 2.21,-0.37 Z"/></g>
<g><path fill="#63453d" fill-opacity="0.231" stroke="#63453d" stroke-width="0.5" stroke-opacity="0.231" d="M 467.31,431.12 c 0.85,-0.13 0.21,0.55 -0.05,0.78 c 0.01,-0.26 0.03,-0.52 0.05,-0.78 Z"/></g>
</svg>
