<?xml version="1.0" encoding="UTF-8"?>
<!DOCTYPE svg PUBLIC "-//W3C//DTD SVG 1.1//EN" "http://www.w3.org/Graphics/SVG/1.1/DTD/svg11.dtd">
<svg xmlns="http://www.w3.org/2000/svg" version="1.1" width="512px" height="512px" style="shape-rendering:geometricPrecision; text-rendering:geometricPrecision; image-rendering:optimizeQuality; fill-rule:evenodd; clip-rule:evenodd" xmlns:xlink="http://www.w3.org/1999/xlink">
<g><path fill="#e56e67" fill-opacity="0.373" stroke="#e56e67" stroke-width="0.5" stroke-opacity="0.373" d="M 158.15,115.83 c -0.4,0.98 -2,2.63 -3.05,1.77 c 0.67,-1.14 1.68,-1.73 3.05,-1.77 Z M 102.06,129.08 c 0.19,-1.04 1.82,-2.61 2.8,-1.68 c -0.45,1.31 -1.38,1.87 -2.8,1.68 Z M 383.2,164.91 c -0.54,0.77 -2.09,2.65 -3.08,1.7 c 0.67,-1.18 1.69,-1.75 3.08,-1.7 Z M 399.06,170.73 c -0.26,1.03 -1.98,3.21 -3,1.93 c 0.29,-1.12 2.11,-1.45 3,-1.93 Z M 72.77,176.21 c -0.16,-1.33 3.92,-3.21 4.82,-3.27 c 1.21,0.98 -3.77,3.47 -4.82,3.27 Z M 140.11,199.83 c -0.81,1.15 -3.79,4.12 -5.12,2.82 c 1.3,-1.3 3.15,-2.75 5.12,-2.82 Z M 101.03,215.02 c -1.02,1.07 -1.38,2.35 -3.18,2.12 c 0.66,-1.32 1.72,-2.02 3.18,-2.12 Z M 179.9,222.9 c 0.12,0.86 -1.19,1.8 -1.8,0.86 c 0.43,-0.62 1.03,-0.91 1.8,-0.86 Z M 428.21,234.8 c -0.14,0.85 -1.42,1.95 -2.1,0.93 c 0.54,-0.65 1.24,-0.95 2.1,-0.93 Z M 136.05,264.96 c -0.1,0.84 -1.33,1.68 -1.98,0.78 c 0.49,-0.65 1.15,-0.91 1.98,-0.78 Z M 50.93,271.92 c -0.45,1.47 -1.44,2.2 -2.95,2.17 c 0.6,-1.23 1.58,-1.95 2.95,-2.17 Z M 152.82,286.04 c 0.14,-0.64 0.48,-0.84 1.03,-0.6 c -0.24,0.38 -0.58,0.58 -1.03,0.6 Z M 39.05,303.01 c -0.32,1.01 -4.35,4.02 -5.01,2.7 c 1,-1.38 3.22,-2.83 5.01,-2.7 Z M 194.88,308.76 c 0.01,0.42 0.02,0.84 0.03,1.25 c -0.38,-0.11 -0.77,-0.22 -1.15,-0.34 c 0.35,-0.32 0.72,-0.63 1.12,-0.91 Z M 366,342.97 c -0.7,1.3 -1.77,2.05 -3.2,2.25 c 0.66,-1.34 1.73,-2.09 3.2,-2.25 Z M 413.19,354.8 c -0.6,1.12 -4.15,4.29 -5.15,2.85 c 1.31,-1.41 3.14,-2.64 5.15,-2.85 Z"/></g>
<g><path fill="#984743" fill-opacity="0.133" stroke="#984743" stroke-width="0.5" stroke-opacity="0.133" d="M 144.72,275.17 c 0.52,0.42 0.84,0.95 0.98,1.6 c -2.15,0.51 -4.38,2.76 -6.65,3.85 c -0.63,0.32 -1.29,0.37 -1.97,0.15 c 0.66,-1.25 1.7,-2 3.12,-2.25 c 1.28,-1.41 2.78,-2.53 4.52,-3.35 Z M 141.74,366.37 c 0.48,0.33 0.81,0.78 0.98,1.34 c -2.23,1.23 -4.46,2.52 -6.69,3.87 c -0.59,0.32 -1.2,0.4 -1.85,0.23 c 0.16,-0.48 0.41,-0.91 0.74,-1.28 c 2.16,-1.55 4.43,-2.94 6.82,-4.16 Z M 182.64,406.38 c 0.57,0.29 0.92,0.75 1.06,1.38 c -0.61,0.15 -1.25,0.37 -1.93,0.66 c -2.04,1.75 -4.32,3.06 -6.86,3.94 c -1.01,1.12 -3.14,2.76 -4.71,2.45 c 0.02,-0.53 0.28,-0.93 0.75,-1.19 c 3.51,-2.23 6.98,-4.51 10.41,-6.85 c 0.37,-0.32 0.8,-0.45 1.28,-0.39 Z"/></g>
<g><path fill="#e56e67" fill-opacity="0.322" stroke="#e56e67" stroke-width="0.5" stroke-opacity="0.322" d="M 422.14,205.87 c -0.71,1.23 -1.76,1.95 -3.17,2.17 c 0.56,-1.44 1.61,-2.16 3.17,-2.17 Z M 179.9,222.9 c 0.59,-1.11 1.5,-1.74 2.74,-1.89 c 1.35,1.07 -1.93,2.1 -2.74,1.89 Z M 174.98,305.01 c -0.83,1.47 -3.26,3.27 -5.01,2.89 c 1.04,-1.45 3.19,-2.82 5.01,-2.89 Z M 117.11,325.79 c -0.73,1.07 -3.88,4.35 -5.04,2.92 c 1.16,-1.44 3.11,-2.75 5.04,-2.92 Z M 148.09,412.88 c -1.22,1.81 -2.92,2.83 -5.09,3.05 c 0.6,-1.44 3.46,-3.1 5.09,-3.05 Z M 459.22,423.92 c -0.52,0.75 -2.15,2.78 -3.07,1.71 c 0.67,-1.16 1.7,-1.73 3.07,-1.71 Z M 167.99,431.92 c -0.35,0.92 -1.04,1.3 -2.07,1.15 c 0.41,-0.87 1.1,-1.25 2.07,-1.15 Z M 15.32,433.09 c 0.22,-0.04 0.44,-0.08 0.66,-0.11 c -0.21,0.53 -0.58,0.93 -1.09,1.19 c 0.14,-0.36 0.28,-0.72 0.43,-1.08 Z M 448.92,460.09 c 0.49,-1.18 1.36,-1.88 2.61,-2.09 c 1.18,1.17 -1.89,1.96 -2.61,2.09 Z"/></g>
<g><path fill="#e66c67" fill-opacity="0.282" stroke="#e66c67" stroke-width="0.5" stroke-opacity="0.282" d="M 102.06,129.08 c -0.63,1.01 -2.67,3.85 -4,2.25 c -0.28,-1.48 2.92,-2.23 4,-2.25 Z M 83.99,210.04 c -0.95,1.7 -3.31,2.76 -5.14,3.19 c 1.09,-1.75 2.85,-3.68 5.14,-3.19 Z M 46.92,344.02 c -0.57,1.36 -1.61,2.08 -3.12,2.16 c 0.57,-1.42 1.61,-2.13 3.12,-2.16 Z M 77.08,415.94 c -0.81,1.1 -1.81,2.01 -3,2.72 c -1.65,1.08 -3.33,2.1 -5.02,3.05 c -0.32,-0.25 -0.67,-0.44 -1.05,-0.57 c 1.67,-1.56 3.55,-2.85 5.64,-3.86 c 1.03,-0.73 2.18,-1.18 3.43,-1.34 Z M 441.86,482.15 c 0.48,-1.24 1.37,-1.97 2.67,-2.19 c 1.12,1.17 -1.94,2.03 -2.67,2.19 Z"/></g>
<g><path fill="#e56f68" fill-opacity="0.282" stroke="#e56f68" stroke-width="0.5" stroke-opacity="0.282" d="M 156.94,156.97 c -0.08,0.53 -0.37,0.66 -0.85,0.39 c 0.19,-0.29 0.48,-0.42 0.85,-0.39 Z M 139.14,262.75 c -0.56,1.42 -1.59,2.15 -3.09,2.21 c 0.58,-1.34 1.61,-2.08 3.09,-2.21 Z M 20.98,358.04 c 0.33,-0.02 0.66,-0.05 0.98,-0.07 c -0.09,0.72 -0.5,1.08 -1.23,1.1 c 0.08,-0.35 0.17,-0.69 0.25,-1.03 Z M 134.18,371.81 c -1.22,1.82 -2.92,2.9 -5.1,3.24 c 0.29,-1.57 3.57,-3.2 5.1,-3.24 Z M 81,395.91 c -0.33,1.67 -6.46,4.8 -7.99,6.05 c -0.27,-0.43 -0.65,-0.72 -1.14,-0.85 c 2.74,-2.01 5.76,-4.39 9.13,-5.2 Z M 391,397.08 c -0.68,1.22 -1.7,1.94 -3.06,2.17 c 0.52,-1.45 1.54,-2.17 3.06,-2.17 Z"/></g>
<g><path fill="#e56e67" fill-opacity="0.361" stroke="#e56e67" stroke-width="0.5" stroke-opacity="0.361" d="M 363.22,87.08 c 0.35,0.01 0.7,0.03 1.05,0.04 c -0.41,0.46 -0.92,0.76 -1.53,0.9 c 0.16,-0.31 0.32,-0.62 0.48,-0.94 Z M 326.11,257.09 c 0.33,0.05 0.66,0.1 0.99,0.15 c -0.37,0.39 -0.82,0.68 -1.33,0.86 c 0.11,-0.34 0.22,-0.67 0.34,-1.01 Z M 156.01,283.96 c -0.74,0.83 -0.74,0.83 0,0 Z M 325.07,304.94 c -0.53,0.62 -2.29,3.21 -3.04,1.77 c 0.72,-1.05 1.73,-1.64 3.04,-1.77 Z M 482.04,363.96 c 0.58,-1.39 3.1,-2.92 4.48,-3.05 c 1.23,1.3 -3.48,3.06 -4.48,3.05 Z M 478.86,366.07 c 0.13,-0.65 0.49,-0.85 1.06,-0.62 c -0.25,0.38 -0.6,0.58 -1.06,0.62 Z M 167,416.92 c 0.15,1.19 -1.31,1.17 -2.08,1.03 c 0.48,-0.75 1.17,-1.1 2.08,-1.03 Z M 490.83,456.42 c 0.48,-1.37 1.42,-2.18 2.82,-2.44 c 1.61,1.1 -2.12,2.13 -2.82,2.44 Z M 100.78,466.13 c 0.51,-1.27 1.44,-2 2.79,-2.17 c 1.07,1.07 -2.02,2.18 -2.79,2.17 Z"/></g>
<g><path fill="#ce635e" fill-opacity="0.216" stroke="#ce635e" stroke-width="0.5" stroke-opacity="0.216" d="M 148.71,379.24 c 0.09,0.81 0.56,1.23 1.4,1.24 c -4.29,2.4 -8.55,4.85 -12.78,7.36 c -0.43,0.11 -0.86,0.12 -1.29,0.04 c 0.4,-0.66 0.94,-1.2 1.61,-1.61 c 3.74,-2.27 7.43,-4.61 11.06,-7.03 Z"/></g>
<g><path fill="#dc6a64" fill-opacity="0.259" stroke="#dc6a64" stroke-width="0.5" stroke-opacity="0.259" d="M 66.31,301 c -0.29,-0.67 -0.76,-1.15 -1.42,-1.45 c 4.32,-2.41 8.6,-4.91 12.83,-7.47 c 0.49,-0.2 0.88,-0.09 1.16,0.33 c -4.15,2.9 -8.34,5.76 -12.57,8.59 Z"/></g>
<g><path fill="#d06660" fill-opacity="0.855" d="M 156.36,74.91 c -3.53,1.02 -7,2.2 -10.42,3.53 c -0.77,0.26 -1.55,0.34 -2.36,0.24 c 0.64,-0.61 1.33,-1.16 2.07,-1.63 c 2.05,-0.94 4.07,-1.94 6.07,-3.01 c 1.1,-0.16 4.16,-0.47 4.64,0.87 Z M 143.58,78.68 c 0.47,1.07 -0.99,1.15 -1.64,1.12 c -0.27,-0.7 1.22,-0.9 1.64,-1.12 Z"/></g>
<g><path fill="#e56e67" fill-opacity="0.51" stroke="#e56e67" stroke-width="0.5" stroke-opacity="0.51" d="M 312.55,88.77 c 0.25,0.74 0.48,1.47 0.71,2.21 c -0.17,0.57 -0.5,1.01 -1,1.33 c -0.13,-0.85 -0.66,-3.05 0.29,-3.54 Z M 409.65,132.14 c 0.51,-1.39 1.46,-1.86 2.83,-1.4 c -0.23,1.23 -1.89,1.12 -2.83,1.4 Z M 101.03,215.02 c 0.16,-0.8 0.66,-1.19 1.51,-1.17 c 1.27,0.8 -0.94,1.35 -1.51,1.17 Z M 359.84,222.1 c 0.4,-0.83 0.99,-1.47 1.78,-1.94 c 1.57,-0.13 1.69,0.26 0.37,1.17 c -0.73,0.24 -1.44,0.5 -2.15,0.77 Z M 152,393.91 c 0.01,0.83 -1.24,1.75 -1.83,0.81 c 0.45,-0.61 1.06,-0.88 1.83,-0.81 Z M 80.03,414.04 c 0.26,-0.67 0.75,-1.04 1.47,-1.13 c 1.16,0.71 -0.96,1.29 -1.47,1.13 Z M 164.92,417.95 c -0.28,1.03 -1.9,2.77 -2.92,1.7 c 0.19,-1.35 1.86,-1.49 2.92,-1.7 Z"/></g>
<g><path fill="#d96660" fill-opacity="0.235" stroke="#d96660" stroke-width="0.5" stroke-opacity="0.235" d="M 168.76,275.12 c 0.27,0.6 0.72,1.02 1.33,1.26 c -3.18,1.91 -6.41,3.75 -9.68,5.52 c -0.49,0.12 -0.97,0.11 -1.46,-0.02 c 0.26,-0.46 0.62,-0.84 1.06,-1.12 c 2.92,-1.88 5.84,-3.76 8.75,-5.64 Z"/></g>
<g><path fill="#d76661" fill-opacity="0.224" stroke="#d76661" stroke-width="0.5" stroke-opacity="0.224" d="M 155.77,330.1 c 0.2,0.67 0.64,1.1 1.32,1.28 c -3.06,1.68 -6.07,3.43 -9.05,5.26 c -0.65,0.27 -1.33,0.37 -2.03,0.29 c 0.19,-0.51 0.52,-0.9 0.99,-1.18 c 2.93,-1.87 5.85,-3.76 8.77,-5.65 Z"/></g>
<g><path fill="#e56b67" fill-opacity="0.239" stroke="#e56b67" stroke-width="0.5" stroke-opacity="0.239" d="M 345.06,441.95 c -1.12,1.93 -6.75,5.13 -8.94,6.24 c -0.47,-0.33 -0.94,-0.66 -1.41,-0.99 c 2.78,-1.47 5.54,-3.01 8.28,-4.64 c 0.65,-0.34 1.34,-0.54 2.07,-0.61 Z"/></g>
<g><path fill="#b65950" fill-opacity="0.145" stroke="#b65950" stroke-width="0.5" stroke-opacity="0.145" d="M 178.6,424.17 c 0.05,0.73 0.42,1.22 1.11,1.46 c -1.69,1.08 -6.68,4.55 -8.71,4.31 c 0.1,-0.6 0.42,-1.07 0.94,-1.38 c 2.23,-1.46 4.45,-2.92 6.66,-4.39 Z"/></g>
<g><path fill="#b85752" fill-opacity="0.153" stroke="#b85752" stroke-width="0.5" stroke-opacity="0.153" d="M 78.85,213.23 c -0.56,1.57 -5.98,4.48 -7.53,5.57 c -0.05,-0.7 -0.4,-1.17 -1.03,-1.43 c 2.14,-1.38 4.37,-2.7 6.67,-3.97 c 0.61,-0.3 1.24,-0.36 1.89,-0.17 Z"/></g>
<g><path fill="#bf554f" fill-opacity="0.176" stroke="#bf554f" stroke-width="0.5" stroke-opacity="0.176" d="M 195.48,104.96 c 0.09,0.64 0.22,1.26 0.39,1.88 c -1.52,1.26 -5.9,4.35 -7.74,4.01 c 0.22,-0.45 0.51,-0.86 0.87,-1.22 c 2.24,-1.44 4.4,-3 6.48,-4.67 Z"/></g>
<g><path fill="#c76157" fill-opacity="0.149" stroke="#c76157" stroke-width="0.5" stroke-opacity="0.149" d="M 155.7,407.22 c 0.12,0.79 0.59,1.21 1.4,1.25 c -2.44,1.21 -4.81,2.55 -7.1,4.03 c -0.6,0.33 -1.23,0.46 -1.91,0.38 c 0.87,-1.9 5.69,-4.51 7.61,-5.66 Z"/></g>
<g><path fill="#e6665f" fill-opacity="0.235" stroke="#e6665f" stroke-width="0.5" stroke-opacity="0.235" d="M 321.88,355.97 c -0.62,1.64 -6.38,5.2 -8.03,5.36 c -0.28,-0.01 -0.56,-0.02 -0.83,-0.03 c 0.2,-0.69 0.63,-1.21 1.29,-1.55 c 2.12,-0.79 5.45,-3.75 7.57,-3.78 Z"/></g>
<g><path fill="#e86c65" fill-opacity="0.282" stroke="#e86c65" stroke-width="0.5" stroke-opacity="0.282" d="M 76.97,464.92 c -0.3,1.59 -6.54,5 -8.13,5.35 c -0.28,-0.07 -0.56,-0.15 -0.84,-0.22 c 2.51,-2.16 5.74,-4.27 8.97,-5.13 Z"/></g>
<g><path fill="#ce655f" fill-opacity="0.8" d="M 502.86,482.7 c 0.53,3.1 -0.91,5.7 -4.14,6.1 c 0.88,-1.51 2.73,-5.32 4.14,-6.1 Z M 498.72,488.8 c 0.01,0.65 -0.31,1.01 -0.95,1.09 c 0.31,-0.37 0.63,-0.73 0.95,-1.09 Z"/></g>
<g><path fill="#b75a55" fill-opacity="0.141" stroke="#b75a55" stroke-width="0.5" stroke-opacity="0.141" d="M 71.87,401.11 c 0.49,0.13 0.87,0.42 1.14,0.85 c -1.5,1 -3.05,1.92 -4.64,2.76 c -0.08,-0.7 -0.47,-1.11 -1.18,-1.23 c 1.46,-0.98 3.02,-1.78 4.68,-2.38 Z"/></g>
<g><path fill="#b05351" fill-opacity="0.11" stroke="#b05351" stroke-width="0.5" stroke-opacity="0.11" d="M 68.01,421.14 c 0.38,0.13 0.73,0.32 1.05,0.57 c -1.53,1.09 -3.11,2.12 -4.71,3.09 c -0.06,-0.72 -0.44,-1.14 -1.16,-1.27 c 1.49,-1.03 3.09,-1.82 4.82,-2.39 Z"/></g>
<g><path fill="#b0574e" fill-opacity="0.137" stroke="#b0574e" stroke-width="0.5" stroke-opacity="0.137" d="M 68,470.05 c 0.28,0.07 0.56,0.15 0.84,0.22 c -0.1,1.08 -3.42,3.07 -4.56,3.35 c -0.16,-0.69 -0.61,-1.05 -1.34,-1.07 c 1.59,-1.06 3.28,-1.89 5.06,-2.5 Z"/></g>
<g><path fill="#8e715c" fill-opacity="0.047" d="M 265.8,118.82 c 0.09,1.3 0.17,2.61 0.23,3.91 c -0.89,0.45 -1.77,0.9 -2.64,1.37 c -1.24,-0.22 -1.43,-0.82 -0.56,-1.79 c 0.97,-1.17 1.96,-2.34 2.97,-3.49 Z"/></g>
<g><path fill="#dc996b" fill-opacity="0.153" d="M 207.39,200.12 c 0.15,-1.12 -0.34,-1.7 -1.46,-1.73 c 1.21,-0.16 4.03,-3.09 4.99,-1.99 c -1.05,1.34 -2.23,2.58 -3.53,3.72 Z"/></g>
<g><path fill="#e76965" fill-opacity="0.188" stroke="#e76965" stroke-width="0.5" stroke-opacity="0.188" d="M 328.96,381.99 c -0.62,1.73 -3.26,2.84 -4.71,3.87 c -0.08,-0.38 -0.16,-0.77 -0.24,-1.15 c 1.31,-1.55 2.96,-2.46 4.95,-2.72 Z"/></g>
<g><path fill="#795c49" fill-opacity="0.129" stroke="#795c49" stroke-width="0.5" stroke-opacity="0.129" d="M 248.67,180.14 c 0.39,0.87 -1.64,2.31 -1.91,3.19 c -0.42,0.44 -0.92,0.57 -1.5,0.39 c -0.1,-0.86 -0.1,-1.71 0,-2.57 c 1.05,-0.69 2.19,-1.03 3.41,-1.01 Z"/></g>
<g><path fill="#bf8e6a" fill-opacity="0.075" d="M 265.57,156.54 c 0.32,1 0.48,2.03 0.48,3.08 c -1.1,0.64 -2.27,1.1 -3.5,1.38 c -0.83,-1.03 2.54,-3.54 3.02,-4.46 Z"/></g>
<g><path fill="#a85752" fill-opacity="0.671" d="M 125.31,88.92 c -0.27,0.63 -0.76,0.96 -1.46,0.98 c 0.23,-0.69 0.72,-1.02 1.46,-0.98 Z M 123.85,89.9 c -0.16,0.48 -0.49,0.73 -0.99,0.76 c 0.16,-0.44 0.5,-0.69 0.99,-0.76 Z M 122.86,90.66 c -0.34,1.09 -1.05,1.42 -2.14,0.99 c 0.7,-0.36 1.41,-0.69 2.14,-0.99 Z M 120.72,91.65 c 0.07,1.52 -0.66,2.25 -2.2,2.19 c 0.35,-1.11 1.09,-1.84 2.2,-2.19 Z"/></g>
<g><path fill="#a45047" fill-opacity="0.078" stroke="#a45047" stroke-width="0.5" stroke-opacity="0.078" d="M 313.02,361.3 c 0.27,0.01 0.55,0.02 0.83,0.03 c 0.11,1.02 -3.13,2.28 -3.84,2.93 c -0.51,-0.11 -0.87,-0.41 -1.06,-0.89 c 0.92,-0.38 1.69,-0.99 2.3,-1.82 c 0.55,-0.33 1.14,-0.41 1.77,-0.25 Z"/></g>
<g><path fill="#a75752" fill-opacity="0.882" d="M 440.74,501.26 c 1.85,0.35 3.73,0.67 5.61,0.97 c 0.29,0.09 0.54,0.25 0.74,0.48 c -2.99,1.24 -4.12,0.6 -6.35,-1.45 Z"/></g>
<g><path fill="#a25551" fill-opacity="0.796" d="M 339.04,73.99 c -0.25,0.95 -3.91,1.74 -4.99,1.73 c -0.01,-0.16 -0.03,-0.33 -0.04,-0.49 c 0.58,-0.29 1.11,-0.66 1.6,-1.11 c 1.13,-0.17 2.28,-0.21 3.43,-0.13 Z"/></g>
<g><path fill="#c05c56" fill-opacity="0.169" stroke="#c05c56" stroke-width="0.5" stroke-opacity="0.169" d="M 441.86,482.15 c -0.5,1.22 -1.37,2.05 -2.59,2.51 c -0.14,-0.71 -0.59,-1.08 -1.35,-1.12 c 1.16,-0.96 2.48,-1.43 3.94,-1.39 Z"/></g>
<g><path fill="#a95752" fill-opacity="0.812" d="M 27.84,503.46 c 1.34,-0.06 4.49,0.26 5.21,1.42 c -2.07,0.62 -3.81,0.14 -5.21,-1.42 Z"/></g>
<g><path fill="#c9625c" fill-opacity="0.663" d="M 203.13,439.76 c -0.36,1.72 -1.35,2.91 -2.98,3.55 c 0.52,-1.57 1.51,-2.76 2.98,-3.55 Z"/></g>
<g><path fill="#665950" fill-opacity="0.039" d="M 265.71,139.3 c 0.16,0.57 0.26,1.16 0.3,1.75 c -3.41,1.97 -3.95,0.67 -1.06,-1.67 c 0.23,-0.24 0.49,-0.26 0.76,-0.08 Z"/></g>
<g><path fill="#fbb07b" fill-opacity="0.259" d="M 228.95,191.98 c 0.05,0.42 0.1,0.85 0.15,1.28 c -0.52,1.1 -1.41,1.7 -2.65,1.81 c -0.85,-1.03 1.89,-2.48 2.5,-3.09 Z"/></g>
<g><path fill="#e56e67" fill-opacity="0.388" stroke="#e56e67" stroke-width="0.5" stroke-opacity="0.388" d="M 314.14,114.1 c 0.36,0.06 0.72,0.12 1.08,0.18 c -0.42,0.36 -0.91,0.61 -1.46,0.74 c 0.13,-0.31 0.26,-0.61 0.38,-0.92 Z M 408.75,417.15 c 0.55,-1.16 1.45,-1.82 2.71,-1.98 c 1.47,0.94 -2.15,1.89 -2.71,1.98 Z"/></g>
<g><path fill="#e46e65" fill-opacity="0.298" stroke="#e46e65" stroke-width="0.5" stroke-opacity="0.298" d="M 366.77,76.22 c 0.79,-0.06 1.19,0.31 1.17,1.13 c -0.33,-0.15 -0.66,-0.3 -1,-0.46 c -0.06,-0.22 -0.12,-0.44 -0.17,-0.67 Z M 162.07,168.89 c -0.49,1.38 -1.5,2.06 -3.03,2.06 c 0.56,-1.32 1.57,-2 3.03,-2.06 Z"/></g>
<g><path fill="#ffc191" fill-opacity="0.349" d="M 261.88,31.09 c 0.47,0.04 0.94,0.07 1.41,0.11 c -0.88,0.08 -2.48,2.14 -3.15,1.23 c 0.25,-0.85 0.83,-1.29 1.74,-1.34 Z"/></g>
<g><path fill="#cd9268" fill-opacity="0.851" d="M 208.27,182.01 c -0.55,1.28 -1.29,2.41 -2.22,3.4 c 0.07,-1.86 -0.52,-3.92 2.22,-3.4 Z"/></g>
<g><path fill="#a45551" fill-opacity="0.655" d="M 322.33,82.14 c -0.34,0.36 -0.69,0.71 -1.04,1.05 c -0.1,-0.78 0.24,-1.12 1.04,-1.05 Z M 321.29,83.19 c -0.52,0.34 -1.09,0.45 -1.71,0.33 c 0.57,-0.13 1.14,-0.24 1.71,-0.33 Z M 319.58,83.52 c 0.11,0.68 -0.18,1.09 -0.85,1.22 c -0.27,-0.04 -0.54,-0.08 -0.81,-0.12 c 0.57,-0.35 1.12,-0.71 1.66,-1.1 Z"/></g>
<g><path fill="#b35b56" fill-opacity="0.718" d="M 155.32,82.17 c -0.7,0.71 -1.5,1.3 -2.4,1.75 c 0.1,-0.33 0.19,-0.65 0.29,-0.98 c 0.49,-0.73 1.19,-0.99 2.11,-0.77 Z"/></g>
<g><path fill="#fdbc8e" fill-opacity="0.522" d="M 236.09,12.85 c 0.08,0.31 0.16,0.61 0.25,0.92 c -0.03,0.87 -0.16,1.72 -0.39,2.56 c -1.32,-0.68 -1.4,-3.48 0.14,-3.48 Z"/></g>
<g><path fill="#ffbc8e" fill-opacity="0.282" d="M 263.87,27.74 c -0.11,0.64 -0.49,1.01 -1.13,1.11 c 0.34,-0.4 0.72,-0.77 1.13,-1.11 Z M 247.97,33.28 c -0.2,0.35 -0.45,0.67 -0.73,0.96 c -0.23,-0.72 0.02,-1.04 0.73,-0.96 Z M 247.25,146.26 c -0.35,0.32 -0.7,0.65 -1.04,0.98 c -0.1,-0.8 0.25,-1.13 1.04,-0.98 Z"/></g>
<g><path fill="#9d524f" fill-opacity="0.91" d="M 363.76,76.22 c 1,-0.2 2,-0.2 3.01,0 c 0.05,0.23 0.11,0.45 0.17,0.67 c -1.15,0.23 -2.21,0 -3.18,-0.67 Z"/></g>
<g><path fill="#85644c" fill-opacity="0.369" stroke="#85644c" stroke-width="0.5" stroke-opacity="0.369" d="M 230.89,203.25 c -0.41,0.59 -0.98,0.82 -1.71,0.69 c 0.35,-0.74 0.92,-0.97 1.71,-0.69 Z"/></g>
<g><path fill="#f9ae7a" fill-opacity="0.992" stroke="#f9ae7a" stroke-width="0.5" stroke-opacity="0.992" d="M 231.92,173.36 c 0.66,0.07 0.93,0.46 0.82,1.16 c 0.08,4.86 0.05,9.73 -0.1,14.6 c -1.58,-0.2 -2.05,2.95 -3.69,2.86 c -0.61,0.61 -3.35,2.06 -2.5,3.09 c 1.24,-0.11 2.13,-0.71 2.65,-1.81 c 1.28,-0.29 2.47,-0.79 3.57,-1.49 c 0.14,3.53 0.15,7.07 0.04,10.61 c -0.49,0.5 -1.1,0.79 -1.82,0.87 c -0.79,-0.28 -1.36,-0.05 -1.71,0.69 c -8.75,3.49 -17.61,6.7 -26.56,9.63 c -0.28,-0.28 -0.39,-0.62 -0.33,-1.02 c 0.51,-3.51 1.02,-7.02 1.52,-10.53 c 0.46,0.01 0.92,0.01 1.38,0.02 c 0.35,-0.26 0.7,-0.52 1.05,-0.77 c 0.37,-0.39 0.76,-0.77 1.15,-1.15 c 1.3,-1.14 2.48,-2.38 3.53,-3.72 c -0.96,-1.1 -3.78,1.83 -4.99,1.99 c -0.51,0.69 -1.14,1.22 -1.89,1.59 c 0.49,-4.02 1.07,-8.03 1.76,-12.01 c 3.16,-0.3 17.29,-9.62 21.25,-11.54 c 0.47,-0.28 0.67,-0.69 0.59,-1.23 c 0.68,-0.77 1.54,-1.24 2.57,-1.41 c 0.67,0.24 1.24,0.1 1.71,-0.43 Z M 301.14,182.14 c -0.07,0.65 0.23,0.86 0.89,0.64 c 0.94,0.47 3.51,0.6 3.81,1.77 c 1.36,8.77 2.61,17.56 3.76,26.36 c -0.06,1.97 -3.07,0.09 -3.99,-0.17 c 0.25,-0.22 0.5,-0.44 0.74,-0.66 c 0.2,-0.22 0.35,-0.47 0.45,-0.75 c -0.04,-1.08 -0.39,-1.21 -1.04,-0.39 c -0.62,0.4 -0.91,0.99 -0.88,1.79 c -3.88,-1.56 -7.79,-3.03 -11.74,-4.41 c -0.69,-0.21 -1.05,-0.67 -1.09,-1.38 c 2.3,-3.15 4.48,-6.35 6.57,-9.62 c -0.29,-0.13 -0.59,-0.12 -0.9,0.03 c -3.52,2.2 -7.08,4.31 -10.7,6.33 c -0.53,0.36 -0.8,0.86 -0.81,1.51 c -1.31,-0.27 -6.75,-1.15 -6.79,-2.87 c -0.16,-7.92 -0.23,-15.84 -0.2,-23.76 c -0.03,-1.5 0.69,-2 2.13,-1.49 c 6.62,2.29 13.21,4.65 19.79,7.07 Z M 286.84,177.8 c -0.03,0.53 0.2,0.89 0.68,1.08 c 0.89,-0.58 -0.18,-0.96 -0.68,-1.08 Z M 324.32,191.99 c 0.62,1.5 0.93,3.06 0.94,4.69 c -1.4,1.13 -2.81,2.24 -4.23,3.35 c -0.15,-1.69 -0.41,-3.36 -0.76,-5.02 c 0.71,-1.86 2.06,-2.87 4.05,-3.02 Z M 326.97,207.96 c -0.07,0.83 -0.5,3.28 1.04,2.99 c -1.41,0.8 -2.72,1.76 -3.94,2.88 c -1.6,0.82 -1.14,-3.38 -0.77,-4 c 1.16,-0.74 2.38,-1.36 3.67,-1.87 Z"/></g>
<g><path fill="#aaa31e" fill-opacity="0.145" stroke="#aaa31e" stroke-width="0.5" stroke-opacity="0.145" d="M 305.76,208.94 c 0.2,0.38 0.4,0.76 0.59,1.14 c -0.24,0.22 -0.49,0.44 -0.74,0.66 c -0.24,0 -0.49,-0.01 -0.73,-0.01 c -0.03,-0.8 0.26,-1.39 0.88,-1.79 Z"/></g>
<g><path fill="#fab07a" fill-opacity="0.286" d="M 306.35,210.08 c -0.19,-0.38 -0.39,-0.76 -0.59,-1.14 c 0.65,-0.82 1,-0.69 1.04,0.39 c -0.1,0.28 -0.25,0.53 -0.45,0.75 Z"/></g>
<g><path fill="#864b47" fill-opacity="0.443" stroke="#864b47" stroke-width="0.5" stroke-opacity="0.443" d="M 112.98,474 c 0.04,0.45 0.07,0.89 0.1,1.34 c -0.33,0.15 -0.68,0.25 -1.04,0.27 c 0,-0.27 0.01,-0.54 0.02,-0.81 c 0.19,-0.39 0.5,-0.66 0.92,-0.8 Z"/></g>
<g><path fill="#e67066" fill-opacity="0.196" d="M 215.96,410.74 c 1.12,0.35 1.53,2.29 -0.03,2.37 c -0.07,-0.79 -0.06,-1.58 0.03,-2.37 Z"/></g>
<g><path fill="#ffbc90" fill-opacity="0.361" d="M 237.34,10.95 c -0.27,0.59 -0.69,1.02 -1.27,1.3 c 0.04,-0.79 0.47,-1.23 1.27,-1.3 Z"/></g>
<g><path fill="#ffba8f" fill-opacity="0.188" d="M 248.21,68.31 c -0.33,0.3 -0.65,0.61 -0.95,0.94 c -0.07,-0.7 0.25,-1.02 0.95,-0.94 Z"/></g>
<g><path fill="#e66d69" fill-opacity="0.239" stroke="#e66d69" stroke-width="0.5" stroke-opacity="0.239" d="M 489.12,347.92 c -0.07,0.34 -0.14,0.67 -0.21,1 c -0.29,0.04 -0.58,0.08 -0.87,0.12 c 0.17,-0.55 0.53,-0.92 1.08,-1.12 Z"/></g>
<g><path fill="#ffb478" fill-opacity="0.067" stroke="#ffb478" stroke-width="0.5" stroke-opacity="0.067" d="M 286.84,177.8 c 0.5,0.12 1.57,0.5 0.68,1.08 c -0.48,-0.19 -0.71,-0.55 -0.68,-1.08 Z"/></g>
<g><path fill="#9f5450" fill-opacity="0.251" stroke="#9f5450" stroke-width="0.5" stroke-opacity="0.251" d="M 334.01,75.23 c 0.01,0.16 0.03,0.33 0.04,0.49 c -0.36,0.09 -0.71,0.17 -1.07,0.26 c 0.09,-0.58 0.44,-0.83 1.03,-0.75 Z"/></g>
<g><path fill="#fbae7a" fill-opacity="0.271" d="M 207.39,200.12 c -0.39,0.38 -0.78,0.76 -1.15,1.15 c 0.06,-0.7 0.45,-1.08 1.15,-1.15 Z"/></g>
<g><path fill="#ffb98c" fill-opacity="0.157" d="M 266.16,29.27 c -0.27,0.38 -0.62,0.66 -1.05,0.84 c 0.13,-0.55 0.48,-0.83 1.05,-0.84 Z"/></g>
<g><path fill="#f9b07a" fill-opacity="0.353" d="M 206.24,201.27 c -0.35,0.25 -0.7,0.51 -1.05,0.77 c -0.04,-0.74 0.31,-1 1.05,-0.77 Z"/></g>
<g><path fill="#d16762" fill-opacity="0.369" stroke="#d16762" stroke-width="0.5" stroke-opacity="0.369" d="M 215.97,413.77 c 0.03,0.75 -0.33,1.16 -1.07,1.23 c 0.13,-0.61 0.48,-1.02 1.07,-1.23 Z"/></g>
<g><path fill="#ffbb8f" fill-opacity="0.412" d="M 262.74,28.85 c -0.01,0.5 -0.25,0.81 -0.74,0.92 c 0.25,-0.31 0.49,-0.61 0.74,-0.92 Z"/></g>
<g><path fill="#8e4e4b" fill-opacity="0.549" d="M 367.94,77.35 c 0.54,-0.03 0.84,0.22 0.91,0.75 c -0.3,-0.26 -0.6,-0.51 -0.91,-0.75 Z"/></g>
<g><path fill="#9d514e" fill-opacity="0.592" d="M 141.19,80.25 c -0.42,0.39 -0.91,0.64 -1.47,0.74 c 0.33,-0.52 0.82,-0.77 1.47,-0.74 Z"/></g>
<g><path fill="#854b47" fill-opacity="0.706" d="M 195.71,167.86 c 0.13,0.54 -0.06,0.81 -0.58,0.8 c 0.05,-0.37 0.24,-0.64 0.58,-0.8 Z"/></g>
<g><path fill="#ffbc90" fill-opacity="0.18" d="M 265.12,26.77 c -0.22,0.59 -0.63,0.91 -1.25,0.97 c 0.4,-0.35 0.82,-0.67 1.25,-0.97 Z"/></g>
<g><path fill="#ffbd8f" fill-opacity="0.376" d="M 248.15,145.21 c -0.29,0.36 -0.59,0.71 -0.9,1.05 c -0.24,-0.85 0.06,-1.2 0.9,-1.05 Z"/></g>
<g><path fill="#dc6964" fill-opacity="0.2" stroke="#dc6964" stroke-width="0.5" stroke-opacity="0.2" d="M 51.29,228.01 c 0.15,0.02 0.31,0.04 0.46,0.06 c -0.1,0.46 -0.39,0.73 -0.85,0.82 c 0.13,-0.3 0.26,-0.59 0.39,-0.88 Z"/></g>
<g><path fill="#c2625b" fill-opacity="0.427" d="M 188.75,264.65 c -0.01,0.36 -0.02,0.71 -0.02,1.07 c -0.34,0 -0.68,0 -1.02,0.01 c 0.33,-0.38 0.68,-0.74 1.04,-1.08 Z"/></g>
<g><path fill="#ffbb90" fill-opacity="0.278" d="M 249.26,67.17 c -0.35,0.38 -0.7,0.76 -1.05,1.14 c -0.21,-0.9 0.14,-1.28 1.05,-1.14 Z"/></g>
<g><path fill="#e56e67" fill-opacity="0.996" stroke="#e56e67" stroke-width="0.5" stroke-opacity="0.996" d="M 167.91,80.36 c 3.97,0.6 7.74,1.85 11.3,3.73 c -2.58,2.49 -21.65,14.95 -22.01,16.85 c -1.39,-0.03 -2.43,0.55 -3.11,1.72 c 0.92,1.19 2.59,-0.97 3.11,-1.72 c 0.61,-0.11 1.21,-0.27 1.8,-0.47 c 7.97,-4.56 15.91,-9.17 23.82,-13.82 c 3.02,1.85 5.52,4.24 7.51,7.18 c -2.79,-0.23 -27.11,17.76 -31.43,20.67 c -0.51,0.3 -0.76,0.74 -0.75,1.33 c -1.37,0.04 -2.38,0.63 -3.05,1.77 c 1.05,0.86 2.65,-0.79 3.05,-1.77 c 4.75,-1.61 27.82,-15.42 33.84,-19.24 c 1.55,2.63 2.72,5.42 3.49,8.37 c -2.08,1.67 -4.24,3.23 -6.48,4.67 c -0.36,0.36 -0.65,0.77 -0.87,1.22 c -1.58,-0.01 -2.61,0.72 -3.11,2.2 c -0.94,-0.23 -1.6,0.07 -1.97,0.91 c -0.99,0.27 -2.79,0.48 -3.01,1.73 c 1.08,1.12 2.5,-0.88 3.01,-1.73 c 0.92,0.2 1.58,-0.11 1.97,-0.91 c 1.47,-0.12 2.5,-0.86 3.11,-2.2 c 1.84,0.34 6.22,-2.75 7.74,-4.01 c 2.13,6.43 3,15.67 2.77,22.44 c -0.55,-0.32 -1.1,-0.3 -1.64,0.07 c -11.5,7.88 -23.07,15.66 -34.7,23.34 c -0.98,0.5 -1.72,1.21 -2.23,2.15 c -1.44,0.13 -2.48,0.84 -3.13,2.13 c -0.37,-0.03 -0.66,0.1 -0.85,0.39 c 0.48,0.27 0.77,0.14 0.85,-0.39 c 1.52,0.01 2.57,-0.7 3.13,-2.13 c 0.68,0.02 1.34,-0.03 2,-0.16 c 11.58,-6.86 23.22,-13.65 34.92,-20.36 c 0.61,-0.5 1.2,-1.04 1.75,-1.61 c 0.27,4.12 0.1,8.22 -0.51,12.3 c -3.53,0.8 -29.42,19.16 -33.77,22.2 c -1.13,0.13 -1.93,0.69 -2.39,1.68 c -1.46,0.06 -2.47,0.74 -3.03,2.06 c -0.27,0.12 -0.51,0.29 -0.7,0.51 c 0.36,0.04 0.6,-0.13 0.7,-0.51 c 1.53,0 2.54,-0.68 3.03,-2.06 c 0.67,-0.06 1.34,-0.12 2.01,-0.19 c 11.29,-6.68 22.6,-13.33 33.92,-19.96 c -0.31,4.17 -0.7,8.34 -1.18,12.51 c -0.88,-0.11 -1.66,0.13 -2.33,0.72 c -17.81,12.21 -35.65,24.37 -53.52,36.47 c -0.58,0.29 -0.87,0.76 -0.86,1.39 c -1.97,0.07 -3.82,1.52 -5.12,2.82 c 1.33,1.3 4.31,-1.67 5.12,-2.82 c 1.13,-0.22 2.18,-0.64 3.16,-1.25 c 17.29,-9.95 34.58,-19.92 51.86,-29.92 c -5.66,21.02 -8.3,40.82 -8.39,62.65 c -0.63,-0.23 -1.21,-0.15 -1.77,0.23 c -15.14,10.2 -30.31,20.36 -45.51,30.46 c -0.22,0.2 -0.33,0.45 -0.32,0.75 c -1.48,0.13 -2.51,0.87 -3.09,2.21 c -0.83,-0.13 -1.49,0.13 -1.98,0.78 c 0.65,0.9 1.88,0.06 1.98,-0.78 c 1.5,-0.06 2.53,-0.79 3.09,-2.21 c 2.34,0.33 2.72,-0.55 4.41,-1.79 c 13.73,-7.86 27.44,-15.74 41.14,-23.66 c 0.77,-0.52 1.52,-1.08 2.24,-1.67 c 0.2,3.86 0.2,7.72 0.01,11.57 c -0.59,0.01 -1.13,0.18 -1.61,0.51 c -13.56,9.12 -27.1,18.28 -40.61,27.46 c -1.74,0.82 -3.24,1.94 -4.52,3.35 c -1.42,0.25 -2.46,1 -3.12,2.25 c -1.91,0.36 -4.09,1.44 -5.04,3.17 c -1.3,0.12 -2.33,0.69 -3.08,1.72 c 1.03,1.03 2.69,-0.73 3.08,-1.72 c 2.29,-0.09 3.96,-1.14 5.04,-3.17 c 0.68,0.22 1.34,0.17 1.97,-0.15 c 2.27,-1.09 4.5,-3.34 6.65,-3.85 c 13.41,-7.84 26.85,-15.62 40.34,-23.36 c 0.62,-0.47 1.17,-1.03 1.63,-1.66 c 0.22,3.79 0.57,7.56 1.05,11.33 c -2.19,-0.7 -16.69,10.89 -19.96,12.04 c -2.91,1.88 -5.83,3.76 -8.75,5.64 c -0.44,0.28 -0.8,0.66 -1.06,1.12 c -1.33,0.2 -2.31,0.9 -2.94,2.08 c -0.74,0.83 -0.74,0.83 0,0 c 1.5,0.04 2.48,-0.65 2.94,-2.08 c 0.49,0.13 0.97,0.14 1.46,0.02 c 3.27,-1.77 6.5,-3.61 9.68,-5.52 c 5.89,-3.53 11.77,-7.08 17.62,-10.65 c 0.34,-0.01 0.68,-0.01 1.02,-0.01 c 0.56,3.42 1.03,6.85 1.41,10.29 c -0.79,-0.06 -1.53,0.1 -2.21,0.5 c -23.12,15.9 -46.25,31.77 -69.41,47.61 c -0.69,0.37 -1.16,0.93 -1.41,1.67 c -1.93,0.17 -3.88,1.48 -5.04,2.92 c 1.16,1.43 4.31,-1.85 5.04,-2.92 c 0.88,-0.08 1.71,-0.34 2.47,-0.78 c 23.85,-13.67 47.65,-27.42 71.42,-41.24 c 0.83,3.43 1.26,6.9 1.29,10.42 c -0.81,-0.09 -1.57,0.07 -2.27,0.49 c -2.97,2.04 -6,3.99 -9.08,5.86 c -0.44,0.35 -0.7,0.81 -0.77,1.37 c -1.65,-0.08 -4.74,1.5 -5.19,3.1 c -1.82,0.07 -3.97,1.44 -5.01,2.89 c -1.39,0.14 -2.37,0.85 -2.92,2.12 c -0.78,-0.15 -1.43,0.07 -1.94,0.66 c 0.58,0.87 1.81,0.12 1.94,-0.66 c 1.41,-0.1 2.39,-0.8 2.92,-2.12 c 1.75,0.38 4.18,-1.42 5.01,-2.89 c 2.2,-0.23 3.93,-1.27 5.19,-3.1 c 0.89,-0.04 1.74,-0.23 2.56,-0.57 c 3.19,-2.2 6.55,-4.09 10.08,-5.68 c 0.83,3.11 1.25,6.28 1.25,9.5 c -0.35,0.11 -0.69,0.23 -1.04,0.34 c -12.39,8.23 -24.81,16.43 -37.25,24.6 c -2.92,1.89 -5.84,3.78 -8.77,5.65 c -0.47,0.28 -0.8,0.67 -0.99,1.18 c -1.45,0.09 -2.46,0.79 -3.02,2.1 c -0.75,-0.15 -1.36,0.07 -1.82,0.66 c 0.54,0.89 1.78,0.15 1.82,-0.66 c 1.44,-0.07 2.45,-0.77 3.02,-2.1 c 0.7,0.08 1.38,-0.02 2.03,-0.29 c 2.98,-1.83 5.99,-3.58 9.05,-5.26 c 11.46,-6.81 23,-13.51 34.6,-20.11 c 0.78,-0.41 1.47,-0.94 2.07,-1.6 c 0.38,0.12 0.77,0.23 1.15,0.34 c 1.51,6.33 2.57,12.72 3.19,19.19 c -0.75,-0.07 -1.43,0.09 -2.07,0.49 c -18.19,12.1 -36.29,24.32 -54.29,36.68 c -2.39,1.22 -4.66,2.61 -6.82,4.16 c -0.33,0.37 -0.58,0.8 -0.74,1.28 c -1.53,0.04 -4.81,1.67 -5.1,3.24 c -1.32,-0.05 -2.31,0.49 -2.95,1.61 c 0.89,0.94 2.5,-0.8 2.95,-1.61 c 2.18,-0.34 3.88,-1.42 5.1,-3.24 c 0.65,0.17 1.26,0.09 1.85,-0.23 c 2.23,-1.35 4.46,-2.64 6.69,-3.87 c 18.84,-10.94 37.7,-21.87 56.58,-32.77 c 0.61,3.35 1.18,6.72 1.71,10.11 c -0.72,0.05 -1.38,0.25 -1.99,0.63 c -16.82,11.12 -33.59,22.31 -50.31,33.56 c -3.63,2.42 -7.32,4.76 -11.06,7.03 c -0.67,0.41 -1.21,0.95 -1.61,1.61 c -0.76,0.06 -1.49,0.24 -2.19,0.52 c -1.36,1.14 -1.19,1.55 0.52,1.23 c 0.75,-0.39 1.31,-0.97 1.67,-1.75 c 0.43,0.08 0.86,0.07 1.29,-0.04 c 4.23,-2.51 8.49,-4.96 12.78,-7.36 c 0.4,-0.51 0.88,-0.94 1.44,-1.27 c 16.63,-9.26 33.12,-18.76 49.48,-28.51 c 0.68,0.35 1.05,0.93 1.1,1.73 c 0.58,2.8 0.95,5.64 1.12,8.5 c -0.82,0 -1.6,0.2 -2.32,0.59 c -13.48,8.87 -26.98,17.69 -40.5,26.48 c -0.25,0.22 -0.38,0.5 -0.39,0.83 c -1.49,0.15 -4.51,1.8 -5.07,3.15 c -1.34,0.11 -2.33,0.75 -2.97,1.93 c -0.77,-0.07 -1.38,0.2 -1.83,0.81 c 0.59,0.94 1.84,0.02 1.83,-0.81 c 1.42,0.02 2.41,-0.62 2.97,-1.93 c 2.33,0.41 4,-1.29 5.07,-3.15 c 0.68,0.01 1.36,-0.04 2.03,-0.14 c 13.59,-7.95 27.15,-15.97 40.68,-24.03 c 0.78,0.31 1.2,0.9 1.26,1.78 c 0.42,2.93 0.68,5.88 0.76,8.84 c -0.63,-0.18 -1.23,-0.08 -1.78,0.3 c -15.79,10.51 -31.56,21.06 -47.29,31.64 c -1.92,1.15 -6.74,3.76 -7.61,5.66 c -1.63,-0.05 -4.49,1.61 -5.09,3.05 c -0.73,0.07 -1.44,0.25 -2.12,0.52 c -1.37,1.08 -1.22,1.5 0.47,1.26 c 0.83,-0.34 1.38,-0.93 1.65,-1.78 c 2.17,-0.22 3.87,-1.24 5.09,-3.05 c 0.68,0.08 1.31,-0.05 1.91,-0.38 c 2.29,-1.48 4.66,-2.82 7.1,-4.03 c 0.42,-0.5 0.92,-0.92 1.48,-1.26 c 15.53,-8.73 31.01,-17.55 46.44,-26.47 c 0.64,3.45 0.86,6.93 0.64,10.43 c -6.98,4.34 -13.9,8.79 -20.73,13.35 c -0.9,0.86 -0.78,1.85 -2.29,1.86 c -0.48,-0.06 -0.91,0.07 -1.28,0.39 c -3.43,2.34 -6.9,4.62 -10.41,6.85 c -0.47,0.26 -0.73,0.66 -0.75,1.19 c -1.51,0.05 -2.58,0.75 -3.2,2.11 c -0.91,-0.07 -1.6,0.28 -2.08,1.03 c -1.06,0.21 -2.73,0.35 -2.92,1.7 c 1.02,1.07 2.64,-0.67 2.92,-1.7 c 0.77,0.14 2.23,0.16 2.08,-1.03 c 1.49,-0.04 2.55,-0.75 3.2,-2.11 c 1.57,0.31 3.7,-1.33 4.71,-2.45 c 2.54,-0.88 4.82,-2.19 6.86,-3.94 c 0.68,-0.29 1.32,-0.51 1.93,-0.66 c 7.42,-4.24 14.77,-8.57 22.07,-13.01 c -0.08,4.22 -0.41,8.41 -1.01,12.59 c -0.62,-0.2 -1.21,-0.11 -1.76,0.26 c -8.12,5.56 -16.25,11.08 -24.4,16.57 c -2.21,1.47 -4.43,2.93 -6.66,4.39 c -0.52,0.31 -0.84,0.78 -0.94,1.38 c -1.47,-0.03 -2.47,0.63 -3.01,1.98 c -0.97,-0.1 -1.66,0.28 -2.07,1.15 c -1.21,0.11 -2.19,0.62 -2.92,1.55 c 1.06,1.23 2.66,-0.39 2.92,-1.55 c 1.03,0.15 1.72,-0.23 2.07,-1.15 c 1.46,0.03 2.46,-0.63 3.01,-1.98 c 2.03,0.24 7.02,-3.23 8.71,-4.31 c 8.1,-4.65 16.2,-9.29 24.31,-13.93 c -3.99,26.34 -17.84,39.8 -43.19,46.06 c 2.67,-4.91 16.24,-16.56 20.66,-21.67 c 0.22,-0.68 -0.05,-1 -0.81,-0.95 c -18.7,10.59 -37.33,21.31 -55.89,32.16 c -0.29,0.26 -0.49,0.58 -0.59,0.95 c -1.64,0.34 -3.17,0.96 -4.6,1.86 c -0.62,0.45 -0.7,0.99 -0.25,1.62 c -0.42,0.21 -0.84,0.42 -1.26,0.62 c -0.68,-0.29 -0.96,-0.08 -0.85,0.64 c -0.39,0.1 -0.78,0.21 -1.17,0.32 c -0.66,-0.2 -0.93,0.03 -0.82,0.7 c -0.37,0.11 -0.75,0.23 -1.13,0.34 c -0.38,-0.12 -0.76,-0.23 -1.14,-0.35 c -0.42,0.14 -0.73,0.41 -0.92,0.8 c -0.52,0.15 -0.83,0.48 -0.93,1 c -1.99,1.02 -4.47,2.09 -6.06,3.62 c -0.59,-0.2 -0.84,-0.01 -0.76,0.59 c -0.44,0.07 -0.88,0.15 -1.31,0.22 c -0.5,-0.09 -0.72,0.1 -0.68,0.56 c -15.83,7.15 -30.26,14.48 -47.72,17.1 c 14.62,-9.93 29.28,-19.84 43.98,-29.73 c 0.9,-0.53 1.63,-1.21 2.2,-2.03 c 0.77,0.01 3.86,-1.1 2.79,-2.17 c -1.35,0.17 -2.28,0.9 -2.79,2.17 c -2.99,0.14 -9.45,4.97 -12.37,6.73 c -13.87,7.75 -27.67,15.64 -41.4,23.66 c -1.12,0.53 -2.07,1.25 -2.85,2.17 c -4.72,0.03 -9.22,-0.93 -13.52,-2.87 c 11.3,-7.22 22.51,-14.62 33.64,-22.2 c 1.14,-0.28 4.46,-2.27 4.56,-3.35 c 1.59,-0.35 7.83,-3.76 8.13,-5.35 c 1,0.39 4.22,-0.76 2.63,-1.89 c -1.2,0.16 -2.08,0.79 -2.63,1.89 c -3.23,0.86 -6.46,2.97 -8.97,5.13 c -1.78,0.61 -3.47,1.44 -5.06,2.5 c -0.45,0.49 -0.96,0.92 -1.52,1.27 c -11.53,6.3 -22.95,12.82 -34.25,19.54 c -2.63,-1.27 -5.68,-4.3 -6.39,-7.19 c 0.79,-0.15 1.53,-0.43 2.22,-0.84 c 19.88,-13.11 40.74,-27.55 60.66,-40.2 c 0.21,-0.31 0.24,-0.65 0.09,-0.99 c 0.99,0.03 6.11,-2.09 4.84,-3.21 c -1.39,-0.06 -4.03,2.02 -4.84,3.21 c -20.84,10.9 -42.99,24.63 -63.87,36.33 c -0.54,0.6 -1.08,1.19 -1.61,1.78 c -1.52,-3.31 -2.53,-6.77 -3.04,-10.37 c 0.87,0.01 1.69,-0.18 2.45,-0.58 c 14.26,-9.35 29.55,-20.92 44.45,-28.78 c 0.54,-0.26 0.81,-0.69 0.81,-1.29 c 0.75,-0.09 2.13,-0.14 2.06,-1.22 c 0.71,-0.07 3.85,-1.01 2.61,-2.04 c -1.52,-0.12 -2.39,0.56 -2.61,2.04 c -1.04,-0.19 -1.72,0.21 -2.06,1.22 c -3.07,-0.05 -41.99,23.51 -47.97,27.02 c -0.81,-3.46 -1.07,-6.98 -0.77,-10.53 c 0.79,-0.16 1.5,-0.48 2.14,-0.97 c 16.03,-10.62 32.03,-21.27 48.01,-31.95 c 1.6,-0.97 3.18,-2 4.71,-3.09 c 1.69,-0.95 3.37,-1.97 5.02,-3.05 c 1.19,-0.71 2.19,-1.62 3,-2.72 c 1.32,-0.07 2.3,-0.71 2.95,-1.9 c 0.51,0.16 2.63,-0.42 1.47,-1.13 c -0.72,0.09 -1.21,0.46 -1.47,1.13 c -1.37,0.04 -2.36,0.67 -2.95,1.9 c -1.25,0.16 -2.4,0.61 -3.43,1.34 c -2.09,1.01 -3.97,2.3 -5.64,3.86 c -1.73,0.57 -3.33,1.36 -4.82,2.39 c -16.09,9.15 -32.11,18.44 -48.05,27.85 c -1.25,-0.9 0.18,-9.54 -0.26,-11.43 c 0.76,-0.03 1.46,-0.23 2.11,-0.62 c 17.19,-11.46 34.31,-22.99 51.38,-34.61 c 1.59,-0.84 3.14,-1.76 4.64,-2.76 c 1.53,-1.25 7.66,-4.38 7.99,-6.05 c 0.75,0.11 1.48,0.01 2.18,-0.29 c 1.28,-1.1 1.09,-1.55 -0.57,-1.34 c -0.75,0.33 -1.29,0.88 -1.61,1.63 c -3.37,0.81 -6.39,3.19 -9.13,5.2 c -1.66,0.6 -3.22,1.4 -4.68,2.38 c -17.04,9.87 -34.11,19.7 -51.21,29.49 c -0.22,0.03 -0.44,0.07 -0.66,0.11 c -0.17,-7.35 0.01,-14.69 0.54,-22.03 c 0.77,0.12 1.5,-0.01 2.19,-0.38 c 12.49,-8.2 24.93,-16.48 37.3,-24.83 c 1.02,-0.69 3.85,-1.05 3.56,-2.71 c 0.94,0.06 1.62,-0.3 2.05,-1.1 c 0.73,-0.08 3.93,-1.02 2.64,-2.07 c -1.42,-0.02 -2.3,0.67 -2.64,2.07 c -0.98,-0.19 -1.67,0.17 -2.05,1.1 c -0.44,0 -0.87,0.08 -1.28,0.23 c -13.8,7.96 -27.64,15.91 -41.54,23.86 c 0.53,-8.46 1.14,-16.9 1.82,-25.34 c 0.76,0.07 1.47,-0.08 2.12,-0.47 c 22.71,-15.63 45.44,-31.21 68.21,-46.74 c 0.67,-0.38 1.18,-0.9 1.53,-1.55 c 1.01,-0.69 2.8,-0.45 3.24,-1.79 c -1.11,-1.35 -2.8,0.79 -3.24,1.79 c -2.59,-0.19 -2.36,0.91 -4.39,2.04 c -22.16,12.68 -44.29,25.41 -66.39,38.2 c 0.06,-3.92 0.45,-7.81 1.19,-11.66 c 0.51,-0.1 1,-0.29 1.45,-0.56 c 6.39,-4.25 12.83,-8.44 19.3,-12.57 c 1.06,-0.74 2.02,-1.54 2.87,-2.4 c 1.51,-0.08 2.55,-0.8 3.12,-2.16 c 0.93,0.12 1.66,-0.2 2.18,-0.96 c 0.7,-0.18 3.72,-1.08 2.47,-2.12 c -1.5,-0.06 -2.33,0.65 -2.47,2.12 c -0.96,-0.18 -1.68,0.14 -2.18,0.96 c -1.51,0.03 -2.55,0.74 -3.12,2.16 c -0.64,-0.06 -1.27,-0.03 -1.9,0.07 c -3.54,2.08 -7.02,4.26 -10.45,6.55 c -3.21,1.63 -6.37,3.35 -9.49,5.17 c -0.32,0.02 -0.65,0.05 -0.98,0.07 c -0.06,-3.79 0.31,-7.55 1.11,-11.28 c 0.81,-0.21 1.56,-0.56 2.23,-1.06 c 15.99,-10.7 33.13,-24.08 49.8,-33.18 c 0.56,-0.31 0.83,-0.78 0.8,-1.42 c 1.44,-0.11 2.49,-0.82 3.17,-2.14 c 0.59,0.25 2.75,-0.32 1.48,-1.1 c -0.84,-0.05 -1.33,0.32 -1.48,1.1 c -1.45,0.14 -2.51,0.85 -3.17,2.14 c -1.6,0.15 -8.75,4.38 -10.42,5.73 c -13.8,7.76 -27.56,15.55 -41.29,23.36 c 0.45,-4.2 1.08,-8.38 1.86,-12.54 c 0.68,0.12 1.3,0.01 1.89,-0.35 c 13.08,-8.84 26.19,-17.61 39.35,-26.3 c 4.23,-2.83 8.42,-5.69 12.57,-8.59 c -0.28,-0.42 -0.67,-0.53 -1.16,-0.33 c -4.23,2.56 -8.51,5.06 -12.83,7.47 c -0.42,0.51 -0.92,0.93 -1.48,1.26 c -11.97,6.71 -23.89,13.49 -35.78,20.34 c -0.47,0.37 -0.91,0.76 -1.33,1.18 c 3.47,-22.11 9.34,-46.05 15.87,-67.51 c 0.69,0.19 1.33,0.09 1.92,-0.28 c 15.19,-10.44 30.37,-20.9 45.54,-31.36 c 2.5,-1.57 4.99,-3.12 7.48,-4.67 c 0.55,-0.3 0.8,-0.75 0.74,-1.37 c 1.8,0.23 2.16,-1.05 3.18,-2.12 c 0.57,0.18 2.78,-0.37 1.51,-1.17 c -0.85,-0.02 -1.35,0.37 -1.51,1.17 c -1.46,0.1 -2.52,0.8 -3.18,2.12 c -1.32,0.08 -4.09,1.95 -5.51,2.58 c -16.16,9.24 -32.23,18.64 -48.19,28.18 c 1.55,-5.05 3.18,-10.07 4.88,-15.07 c 0.71,0.07 0.95,-0.25 0.7,-0.96 c 0.8,0.34 1.58,0.32 2.36,-0.07 c 6.41,-4.34 12.82,-8.67 19.23,-13 c 1.55,-1.09 6.97,-4 7.53,-5.57 c 1.83,-0.43 4.19,-1.49 5.14,-3.19 c 1.28,-0.13 2.28,-0.71 2.99,-1.74 c -1.02,-1.12 -2.66,0.73 -2.99,1.74 c -2.29,-0.49 -4.05,1.44 -5.14,3.19 c -0.65,-0.19 -1.28,-0.13 -1.89,0.17 c -2.3,1.27 -4.53,2.59 -6.67,3.97 c -6.19,3.54 -12.37,7.1 -18.54,10.7 c -0.15,-0.02 -0.31,-0.04 -0.46,-0.06 c 1.65,-5.09 3.52,-10.1 5.6,-15.03 c 0.77,0.03 1.49,-0.15 2.16,-0.54 c 11.12,-7.34 22.14,-15.58 33.5,-22.39 c 0.23,-0.24 0.32,-0.52 0.3,-0.84 c 0.68,-0.14 4.19,-1.12 2.76,-2.18 c -1.35,0.16 -2.27,0.89 -2.76,2.18 c -2.22,-0.38 -3.29,0.93 -4.7,2.39 c -9.84,5.32 -19.56,10.88 -29.15,16.67 c 2.65,-10.3 14.9,-39.09 20.83,-49.21 c 1.93,-0.12 19.2,-12.24 20,-13.89 c 1.46,-0.08 2.51,-0.8 3.14,-2.14 c 0.57,0.17 2.79,-0.34 1.53,-1.14 c -0.85,-0.04 -1.35,0.34 -1.53,1.14 c -1.46,0.1 -2.51,0.82 -3.14,2.14 c -1.28,0.49 -2.56,1.01 -3.82,1.58 c -4.69,2.89 -9.5,5.61 -14.43,8.17 c 14.03,-28.12 39.54,-63.66 71.63,-71.98 c -0.1,0.33 -0.19,0.65 -0.29,0.98 c -5.29,4.44 -10.5,8.93 -15.62,13.47 c 0.71,0.74 2.28,-0.54 3.01,-0.77 c 9.25,-5.33 18.45,-10.75 27.6,-16.26 Z M 339.34,83.04 c -1.93,2.8 -9,9.41 -9.55,12.26 c -0.95,-0.33 -1.46,0 -1.52,1.01 c 0.62,0.63 1.23,-0.59 1.52,-1.01 c 5.03,-2.17 13.56,-7.36 18.48,-10.51 c 0.98,-0.26 1.9,-0.66 2.76,-1.2 c 2.79,0.51 10.16,1.77 12.19,3.49 c -0.16,0.32 -0.32,0.63 -0.48,0.94 c -5.85,5.13 -11.68,10.24 -17.48,15.35 c 0.79,0.32 1.53,0.2 2.24,-0.34 c 7.52,-4.42 15.02,-8.88 22.5,-13.37 c 3.8,1.72 15.66,7.96 17.26,11.6 c -2.69,2.07 -22.95,17.34 -23.2,18.57 c -1.31,0.14 -2.3,0.75 -2.97,1.83 c 1.07,1.01 2.56,-0.91 2.97,-1.83 c 4.73,-1.3 20.47,-11.51 26.05,-14.32 c 0.64,-0.49 0.97,-1.14 0.99,-1.95 c 5.06,4.48 9.79,9.28 14.2,14.39 c -10.13,7.41 -20.16,14.87 -30.09,22.39 c 1.02,0.92 1.72,-0.58 2.44,-1.07 c 1.24,-0.51 2.47,-1.06 3.68,-1.63 c 5.56,-3.7 22.82,-12.57 26.75,-16.04 c 4.13,4.88 7.91,10.02 11.33,15.42 c -11.75,8.93 -23.57,17.76 -35.46,26.49 c -0.55,0.31 -0.8,0.78 -0.75,1.4 c -1.39,-0.05 -2.41,0.52 -3.08,1.7 c 0.99,0.95 2.54,-0.93 3.08,-1.7 c 1.32,-0.38 2.57,-0.94 3.73,-1.67 c 11.4,-6.56 22.8,-13.13 34.21,-19.69 c 0.55,-0.52 1.05,-1.1 1.48,-1.73 c 1.75,2.69 3.34,5.46 4.76,8.33 c -9.51,6.8 -18.95,13.67 -28.32,20.58 c -0.89,0.48 -2.71,0.81 -3,1.93 c 1.02,1.28 2.74,-0.9 3,-1.93 c 0.68,0.12 1.35,0.12 2.02,0 c 9.31,-5.54 18.61,-11.08 27.92,-16.62 c 0.64,-0.02 1.07,0.27 1.31,0.87 c 1.48,2.6 2.82,5.26 4.03,7.99 c -0.84,-0.19 -1.64,-0.08 -2.4,0.32 c -11.62,8.5 -23.25,16.97 -34.9,25.43 c -0.28,0.32 -0.55,0.66 -0.81,1 c -1.06,0.45 -2.03,0.99 -2.93,1.62 c 0.49,0.46 1.06,0.58 1.72,0.37 c 2.82,-1.9 5.67,-3.75 8.56,-5.55 c 8.71,-4.71 25.81,-14.08 33.03,-19.34 c 1.33,3.02 2.75,5.99 4.24,8.93 c -0.67,0.18 -1.29,0.46 -1.87,0.83 c -11.7,8.29 -23.3,16.67 -34.81,25.14 c -1.04,0.44 -1.99,0.97 -2.86,1.58 c 1.56,1.57 2.73,-0.75 3.98,-1.49 c 7.78,-4.51 31.89,-17.51 37.3,-22.03 c 1.24,2.79 3.22,6.36 3.58,9.37 c -3.87,1.91 -11.98,7.74 -15.7,10.72 c -2.57,1.46 -5.09,3.01 -7.56,4.64 c -0.52,0.31 -0.78,0.76 -0.77,1.36 c -1.56,0.01 -2.61,0.73 -3.17,2.17 c -0.76,-0.17 -1.38,0.04 -1.86,0.63 c 0.55,0.87 1.81,0.17 1.86,-0.63 c 1.41,-0.22 2.46,-0.94 3.17,-2.17 c 0.63,-0.06 1.26,-0.15 1.89,-0.28 c 7.77,-4.55 15.52,-9.16 23.25,-13.83 c 1.46,0.92 3.4,7.37 4.01,9.23 c -0.81,0.07 -1.56,0.31 -2.25,0.73 c -14.8,10.55 -29.6,21.06 -44.41,31.55 c -0.53,0.41 -1.01,0.88 -1.42,1.42 c -0.67,0.69 -2.89,0.59 -2.94,1.67 c 1.49,1.29 2.42,-0.48 3.62,-1.19 c 15.6,-8.97 31.19,-17.95 46.79,-26.92 c 0.76,-0.42 1.44,-0.94 2.05,-1.55 c 0.8,0.23 1.32,0.75 1.57,1.56 c 0.91,2.55 1.79,5.11 2.62,7.69 c -2.48,-0.2 -23.7,15.14 -25.75,16.73 c -0.93,0.75 -3.32,0.43 -2.96,2.12 c -0.86,-0.02 -1.56,0.28 -2.1,0.93 c 0.68,1.02 1.96,-0.08 2.1,-0.93 c 0.61,-0.02 1.22,-0.11 1.81,-0.27 c 8.42,-5.27 16.99,-10.31 25.71,-15.12 c 0.59,-0.26 1.01,-0.68 1.26,-1.26 c 0.66,0.07 1.06,0.43 1.22,1.09 c 2.03,6.24 4.04,12.48 6.04,18.72 c -0.84,-0.09 -1.62,0.08 -2.34,0.52 c -18.58,12.79 -37.07,25.69 -55.46,38.71 c -1.08,0.12 -1.86,0.65 -2.34,1.57 c -0.89,0.46 -2.82,0.76 -3.05,1.92 c 1.07,1.31 2.69,-0.98 3.05,-1.92 c 0.4,0.03 0.79,-0.02 1.17,-0.16 c 20,-11.01 40.93,-23.3 60.76,-34.92 c 1,3.12 1.89,6.28 2.66,9.46 c -19.77,13.24 -39.46,26.63 -59.05,40.17 c -0.72,0.64 -1.44,1.28 -2.14,1.93 c -1.2,-0.01 -1.98,0.53 -2.35,1.6 c -1.33,0.14 -2.33,0.76 -3.02,1.87 c 0.89,1.14 2.63,-1.07 3.02,-1.87 c 2.03,0.29 2.26,-0.46 3.75,-1.56 c 20.57,-11.7 41.06,-23.53 61.48,-35.49 c 1.22,3.02 2.05,6.15 2.49,9.39 c -2.82,1.57 -5.6,3.23 -8.33,4.97 c -2.11,1.52 -4.23,3.01 -6.34,4.48 c -0.94,0.81 -3.12,0.55 -3.12,2.1 c -1.83,0.49 -3.89,1.52 -5.05,2.96 c 0.96,1.24 4.68,-1.6 5.05,-2.96 c 0.65,0.02 1.3,-0.01 1.95,-0.12 c 0.8,-0.96 1.81,-1.58 3.03,-1.83 c 4.39,-2.81 8.86,-5.49 13.4,-8.05 c 1.05,3.36 1.92,6.76 2.6,10.2 c -0.75,-0.21 -1.47,-0.12 -2.15,0.27 c -18.93,12.93 -38.9,25.99 -57.39,38.9 c -1.27,-0.02 -2.06,0.55 -2.37,1.7 c -0.8,0.1 -1.57,0.3 -2.31,0.6 c -1.28,1.09 -1.11,1.5 0.5,1.22 c 0.8,-0.41 1.4,-1.01 1.81,-1.82 c 2.09,0.31 2.56,-0.95 4.1,-1.98 c 19.72,-11.27 39.42,-22.56 59.1,-33.86 c 0.84,3.3 1.53,6.62 2.08,9.98 c -0.88,0.03 -1.71,0.25 -2.49,0.65 c -6.4,4.25 -12.86,8.45 -19.36,12.59 c -0.67,0.36 -1.16,0.89 -1.46,1.59 c -1.56,0.17 -4.68,1.69 -5.15,3.24 c -1.43,-0.02 -2.41,0.63 -2.93,1.95 c -0.84,-0.16 -1.53,0.07 -2.08,0.7 c 0.65,0.94 1.95,0.19 2.08,-0.7 c 1.33,-0.15 2.31,-0.8 2.93,-1.95 c 2.24,-0.24 3.96,-1.33 5.15,-3.24 c 0.89,0.04 1.73,-0.15 2.5,-0.58 c 7.09,-4.13 14.16,-8.27 21.22,-12.42 c 0.89,3.36 1.65,6.76 2.28,10.18 c -0.77,0.06 -1.48,0.28 -2.14,0.68 c -21.97,15 -43.88,30.42 -66.11,44.84 c -0.52,0.3 -0.75,0.75 -0.69,1.33 c -2.01,0.21 -3.84,1.44 -5.15,2.85 c 1,1.44 4.55,-1.73 5.15,-2.85 c 0.6,-0.09 1.19,-0.23 1.77,-0.41 c 22.86,-13.11 45.66,-26.32 68.42,-39.61 c 0.97,3.4 1.54,6.86 1.72,10.38 c -0.64,0.03 -1.23,0.23 -1.76,0.59 c -20.43,13.98 -40.9,27.88 -61.41,41.71 c -0.59,0.31 -0.83,0.78 -0.72,1.42 c -1,-0.12 -1.76,0.24 -2.27,1.07 c -0.97,0.29 -2.65,0.52 -2.9,1.72 c 0.97,1.16 2.61,-0.74 2.9,-1.72 c 1.04,0.21 1.8,-0.14 2.27,-1.07 c 1.06,-0.33 2.07,-0.77 3.04,-1.32 c 20.5,-11.99 41.34,-23.48 61.62,-35.82 c 0.74,0.33 1.12,0.91 1.15,1.74 c 0.05,2.6 1.72,6.3 0.83,8.73 c -0.58,-0.12 -1.11,0 -1.57,0.38 c -18.24,12.54 -36.49,25.05 -54.76,37.53 c -0.73,0.36 -1.17,0.93 -1.3,1.72 c -1.99,0.04 -3.99,1.42 -5.2,2.83 c 1.13,1.24 4.41,-1.79 5.2,-2.83 c 1.09,-0.23 2.11,-0.64 3.05,-1.24 c 18.28,-10.49 36.53,-21.01 54.77,-31.56 c 0.29,-0.04 0.58,-0.08 0.87,-0.12 c 1.46,1.21 3.1,18.74 2.94,21.4 c -0.57,-0.17 -1.09,-0.06 -1.55,0.32 c -15.12,10.58 -30.13,21.28 -45.04,32.11 c -1.05,0.46 -2.03,0.99 -2.95,1.59 c 0.18,0.29 0.44,0.38 0.77,0.27 c 16.59,-7.6 34.11,-19.36 50.06,-28.61 c 0.83,7.31 1.51,14.64 2.06,21.97 c -0.8,-0.22 -1.54,-0.11 -2.24,0.33 c -10.95,8.13 -21.93,16.19 -32.96,24.2 c -0.55,0.32 -0.81,0.79 -0.78,1.42 c -1.37,-0.02 -2.4,0.55 -3.07,1.71 c 0.92,1.07 2.55,-0.96 3.07,-1.71 c 5.77,-2.32 28.74,-15.87 35.53,-20.24 c 0.72,0.38 1.12,0.98 1.2,1.8 c 0.21,3.48 0.36,6.97 0.44,10.45 c -0.91,-0.18 -1.76,-0.03 -2.54,0.46 c -9.38,7.34 -18.81,14.6 -28.3,21.78 c -1.38,1.26 -1.25,2.16 -3.5,2.59 c -0.48,0.65 -1.03,1.23 -1.67,1.73 c 1,0.9 2.05,-1.47 3,-1.67 c 11.31,-6.07 22.45,-12.44 33.42,-19.1 c 0.31,4.16 0.34,8.31 0.09,12.45 c -0.59,-0.04 -1.11,0.13 -1.57,0.52 c -7.38,5.9 -14.73,11.77 -22.05,17.64 c 0.53,0.38 1.11,0.45 1.73,0.23 c 7.26,-4.41 14.58,-8.69 21.98,-12.87 c -0.16,13.29 0.33,31.71 -3.64,44.24 c -6.59,12.02 -16.71,17.47 -30.35,16.35 c -0.06,-0.5 0.11,-0.91 0.52,-1.21 c 2.86,-2.47 5.58,-5.11 8.16,-7.9 c 1.11,-1.11 2.09,-2.31 2.94,-3.61 c -0.25,-0.31 -0.57,-0.4 -0.96,-0.28 c -1.3,1.08 -2.75,1.89 -4.36,2.42 c -4.46,2.61 -8.94,5.2 -13.42,7.78 c -0.5,0.31 -0.74,0.75 -0.72,1.33 c -3.88,-0.96 -7.65,-2.23 -11.32,-3.82 c -0.28,-0.9 -0.86,-1.14 -1.76,-0.72 c -3.13,-1.4 -6.24,-2.86 -9.31,-4.39 c 2.22,-1.68 4.39,-3.42 6.51,-5.22 c 1.22,-0.46 2.09,-1.29 2.59,-2.51 c 0.73,-0.16 3.79,-1.02 2.67,-2.19 c -1.3,0.22 -2.19,0.95 -2.67,2.19 c -1.46,-0.04 -2.78,0.43 -3.94,1.39 c -2.66,1.54 -5.3,3.16 -7.9,4.87 c -2.6,-1.31 -5.18,-2.65 -7.75,-4.03 c -0.64,-0.28 -1.02,-0.76 -1.15,-1.44 c 8.57,-7.09 20.22,-15.21 27.8,-22.85 c 0.72,-0.13 3.79,-0.92 2.61,-2.09 c -1.25,0.21 -2.12,0.91 -2.61,2.09 c -1.8,-0.28 -28.98,16.36 -33.04,18.39 c -0.62,0.44 -0.94,1.05 -0.94,1.82 c -3.38,-1.8 -6.76,-3.61 -10.14,-5.44 c 13.24,-10.47 26.51,-20.87 39.81,-31.21 c -0.94,-0.89 -2.53,1.02 -3.56,1.21 c -14.23,8.28 -28.49,16.52 -42.79,24.74 c -0.58,0.24 -0.96,0.64 -1.15,1.22 c -4.16,-1.26 -8.29,-2.61 -12.39,-4.05 c 0.98,-0.45 1.98,-0.92 3,-1.4 c 12.71,-9.43 25.43,-18.82 38.18,-28.19 c 0.65,-0.66 1.29,-1.32 1.92,-1.98 c 0.61,-0.34 3.87,-1.05 2.76,-2.21 c -1.36,0.18 -2.28,0.91 -2.76,2.21 c -2.08,0.26 -3.87,1.13 -5.36,2.63 c -6.47,3.6 -43.08,22.75 -45.44,26.43 c -7.38,-2.08 -14.68,-4.42 -21.89,-7.01 c -0.71,-0.17 -1.05,-0.61 -1.02,-1.31 c 15.67,-10.65 31.14,-21.58 46.42,-32.78 c 2.58,-1.47 5.11,-3.02 7.58,-4.65 c 0.53,-0.31 0.74,-0.76 0.64,-1.36 c 0.56,-0.09 4.18,-1.04 2.71,-1.98 c -1.26,0.16 -2.16,0.82 -2.71,1.98 c -20.41,10.57 -41.04,23.45 -61.32,34.83 c -0.57,0.37 -1.07,0.82 -1.5,1.35 c -3.49,-1 -6.8,-2.44 -9.93,-4.31 c 0.04,-0.28 0.08,-0.55 0.12,-0.83 c 2.19,-1.11 7.82,-4.31 8.94,-6.24 c 1.83,-0.12 3.74,-1.37 4.93,-2.65 c -0.81,-1.34 -4.52,1.61 -4.93,2.65 c -0.73,0.07 -1.42,0.27 -2.07,0.61 c -2.74,1.63 -5.5,3.17 -8.28,4.64 c -0.21,0.34 -0.42,0.68 -0.63,1.02 c -3.19,-1.91 -6.3,-3.93 -9.35,-6.06 c 0.83,-0.06 1.6,-0.3 2.33,-0.71 c 19.74,-13.59 39.5,-27.13 59.29,-40.61 c 0.63,-0.45 1.16,-0.98 1.59,-1.59 c 1.36,-0.23 2.38,-0.95 3.06,-2.17 c 0.5,0.11 2.63,-0.35 1.58,-1.15 c -0.74,0.09 -1.27,0.47 -1.58,1.15 c -1.52,0 -2.54,0.72 -3.06,2.17 c -1.42,-0.31 -3.66,1.76 -5.19,2.19 c -20.27,11.7 -40.55,23.4 -60.84,35.09 c -0.57,0.35 -0.89,0.86 -0.94,1.53 c -2.83,-0.88 -5.23,-5.04 -7.32,-7.09 c 22.83,-15.4 45.59,-30.97 68.26,-46.69 c 0.63,-0.25 4.02,-1.26 2.68,-2.27 c -1.38,0.16 -2.27,0.92 -2.68,2.27 c -0.67,-0.08 -1.34,-0.09 -2.01,-0.01 c -21.16,14.17 -45.64,26.58 -67.86,39.45 c -0.58,0.47 -1.13,0.96 -1.67,1.47 c -1.76,-3.19 -3.03,-6.57 -3.78,-10.14 c 0.87,0.23 1.71,0.16 2.52,-0.22 c 20.83,-14.23 41.66,-28.48 62.47,-42.73 c 2.42,-1.69 4.91,-3.24 7.48,-4.66 c 0.51,-0.26 0.76,-0.67 0.75,-1.24 c 0.95,-0.5 2.94,-0.59 3.25,-1.8 c -1.11,-1.21 -2.78,0.82 -3.25,1.8 c -0.8,-0.45 -7.51,4.23 -8.81,4.47 c -21.66,12.43 -43.27,24.99 -64.83,37.67 c -0.45,-0.11 -0.76,-0.39 -0.94,-0.83 c -0.36,-3.26 -0.42,-6.53 -0.16,-9.8 c 0.58,0.02 1.11,-0.12 1.6,-0.44 c 5.78,-3.94 11.64,-7.75 17.58,-11.41 c 1.45,-1.03 4.09,-2.14 4.71,-3.87 c 1.57,0.16 4.46,-1.53 5.02,-2.91 c 1.39,-0.08 2.42,-0.74 3.1,-1.98 c 0.46,0.08 2.57,-0.39 1.51,-1.13 c -0.72,0.09 -1.22,0.47 -1.51,1.13 c -1.48,-0.03 -2.51,0.63 -3.1,1.98 c -1.8,-0.1 -4.15,1.34 -5.02,2.91 c -1.99,0.26 -3.64,1.17 -4.95,2.72 c -1.43,0.44 -2.77,1.08 -4.03,1.9 c -4.94,2.83 -9.83,5.74 -14.68,8.71 c -0.11,-4.23 0.13,-8.44 0.72,-12.64 c 0.67,0.33 1.34,0.3 1.99,-0.07 c 15.55,-10.46 31.08,-20.96 46.59,-31.49 c 2.41,-1.68 4.92,-3.23 7.51,-4.62 c 0.54,-0.27 0.77,-0.69 0.69,-1.28 c 1.43,-0.2 2.5,-0.95 3.2,-2.25 c 0.57,0.21 2.82,-0.28 1.54,-1.09 c -0.83,-0.05 -1.34,0.31 -1.54,1.09 c -1.47,0.16 -2.54,0.91 -3.2,2.25 c -1.52,-0.26 -2.19,1.41 -3.76,1.6 c -17.45,9.97 -34.87,20.04 -52.24,30.21 c 0.24,-3.76 0.73,-7.5 1.48,-11.2 c 0.58,-0.52 1.16,-1.04 1.73,-1.57 c 0.71,-0.65 3.95,-1.91 3.84,-2.93 c 1.65,-0.16 7.41,-3.72 8.03,-5.36 c 1.94,-0.02 3.83,-1.33 5.1,-2.64 c -1.06,-1.43 -4.28,1.75 -5.1,2.64 c -2.12,0.03 -5.45,2.99 -7.57,3.78 c -0.66,0.34 -1.09,0.86 -1.29,1.55 c -0.63,-0.16 -1.22,-0.08 -1.77,0.25 c -0.61,0.83 -1.38,1.44 -2.3,1.82 c -0.01,-3.94 1.21,-9.8 2.27,-13.72 c 0.63,0.2 1.22,0.11 1.77,-0.29 c 17.52,-12.1 35.09,-24.11 52.72,-36.03 c 0.75,-0.73 1.47,-1.47 2.14,-2.22 c 1.45,-0.08 2.49,-0.76 3.12,-2.06 c 0.78,0.05 1.52,-0.08 2.24,-0.39 c 1.26,-1.15 1.06,-1.58 -0.61,-1.31 c -0.71,0.4 -1.26,0.97 -1.63,1.7 c -1.51,-0.04 -2.55,0.65 -3.12,2.06 c -2.95,-0.03 -9.55,4.98 -12.47,6.67 c -14.25,8.03 -28.45,16.16 -42.59,24.39 c 0.06,-4.19 1.65,-9.19 2.37,-13.37 c 0.69,0.2 1.32,0.09 1.89,-0.35 c 16.9,-11.81 33.85,-23.54 50.86,-35.19 c 0.72,-1.17 1.77,-1.8 3.14,-1.87 c 0.94,-0.68 0.8,-1.05 -0.4,-1.12 c -1.09,1.21 -2.49,0.9 -3.43,2.32 c -16.83,9.44 -33.6,19.01 -50.29,28.72 c 1.52,-8.77 3.14,-17.52 4.86,-26.26 c 0.79,-0.07 1.53,-0.31 2.21,-0.71 c 6.38,-4.29 12.69,-8.65 18.92,-13.08 c 1.39,-0.28 2.44,-1.03 3.15,-2.26 c 0.25,-0.08 0.43,-0.24 0.54,-0.48 c -0.38,-0.17 -0.56,-0.02 -0.54,0.48 c -1.62,-0.04 -2.67,0.71 -3.15,2.26 c -0.67,-0.11 -1.34,-0.12 -2.01,-0.02 c -3.47,2.25 -6.97,4.43 -10.52,6.55 c -2.79,1.45 -5.55,2.92 -8.3,4.42 c 0.59,-4.18 1.21,-8.35 1.86,-12.52 c 0.57,-0.12 1.11,-0.31 1.63,-0.58 c 14.42,-10.03 28.91,-21.14 43.5,-30.64 c 0.51,-0.28 0.78,-0.71 0.79,-1.28 c 0.71,-0.29 1.43,-0.56 2.16,-0.81 c 1.38,-0.89 1.27,-1.28 -0.33,-1.16 c -0.84,0.44 -1.45,1.09 -1.83,1.97 c -1.95,0.12 -8.54,4.25 -10.39,5.69 c -11.54,6.42 -23.06,12.89 -34.56,19.4 c -0.09,-4.15 0.19,-8.27 0.84,-12.37 c 0.79,0.24 1.56,0.16 2.28,-0.23 c 5.89,-4.27 11.91,-8.32 18.09,-12.16 c 0.55,-0.3 0.79,-0.76 0.7,-1.38 c 0.82,0.02 1.59,-0.15 2.33,-0.5 c 1.18,-1.13 1,-1.57 -0.55,-1.31 c -0.78,0.41 -1.37,1.02 -1.78,1.81 c -1.84,0.8 -3.68,1.65 -5.53,2.54 c -4.73,2.86 -9.46,5.72 -14.2,8.56 c -0.33,-0.05 -0.66,-0.1 -0.99,-0.15 c -0.66,-2.94 -0.35,-8.09 -0.17,-11.23 c 0.72,-0.01 1.39,-0.21 2,-0.59 c 10.44,-7.56 20.97,-14.96 31.6,-22.22 c 0.23,-0.28 0.32,-0.6 0.3,-0.95 c 0.71,-0.27 1.42,-0.53 2.15,-0.77 c 1.32,-0.91 1.2,-1.3 -0.37,-1.17 c -0.79,0.47 -1.38,1.11 -1.78,1.94 c -0.42,-0.03 -0.83,0.04 -1.22,0.19 c -10.87,6.15 -21.68,12.5 -32.42,19.04 c -0.41,-0.18 -0.7,-0.48 -0.85,-0.92 c -0.33,-3.54 -0.49,-7.08 -0.49,-10.62 c 0.68,0.13 1.29,-0.01 1.84,-0.43 c 11.32,-8.31 22.67,-16.53 34.04,-24.67 c -0.26,-0.33 -0.59,-0.46 -1.02,-0.39 c -11.95,6.82 -23.9,13.71 -35.85,20.68 c -1.97,-8.3 -1.73,-16.56 -2.84,-24.95 c 1.42,-1.11 2.83,-2.22 4.23,-3.35 c 9.5,-6.96 18.94,-13.98 28.34,-21.06 c -0.49,-0.4 -1.04,-0.51 -1.65,-0.35 c -2.82,1.91 -5.7,3.74 -8.63,5.48 c -2.57,1.4 -18.31,9.78 -19,11.24 c -1.99,0.15 -3.34,1.16 -4.05,3.02 c -1.02,-7.41 -2.1,-14.8 -3.25,-22.19 c 0.57,-0.13 1.11,-0.34 1.61,-0.64 c 7.34,-5.56 14.68,-11.06 22.03,-16.49 c -0.25,-0.35 -0.58,-0.49 -1.01,-0.42 c -1.42,1.02 -2.95,1.86 -4.58,2.53 c -5.65,3.36 -11.33,6.66 -17.05,9.9 c -0.58,0.59 -1.2,1.12 -1.87,1.6 c -1.2,-7.11 -2.17,-14.26 -2.89,-21.44 c 0.54,0 1.01,-0.18 1.42,-0.53 c 6.69,-5.28 13.37,-10.51 20.04,-15.69 c -0.26,-0.36 -0.61,-0.48 -1.04,-0.37 c -6.91,4 -13.82,8.02 -20.72,12.06 c -0.76,-7.85 -0.75,-15.69 0.06,-23.53 c 0.55,-0.19 1.06,-0.45 1.53,-0.79 c 4.37,-3.86 8.75,-7.66 13.14,-11.38 c -0.23,-0.34 -0.55,-0.45 -0.96,-0.32 c -3.92,2.19 -7.75,4.52 -11.51,6.97 c -0.36,-0.06 -0.72,-0.12 -1.08,-0.18 c 1.02,-9.33 5.21,-18.38 10.71,-25.92 c 3.45,-5.63 8.63,-4.66 14.49,-5.14 Z M 317.92,84.62 c 0.27,0.04 0.54,0.08 0.81,0.12 c 0.01,0.4 -0.11,0.77 -0.36,1.09 c -1.68,1.76 -3.38,3.48 -5.11,5.15 c -0.23,-0.74 -0.46,-1.47 -0.71,-2.21 c 1.6,-2.04 3.46,-2.64 5.37,-4.15 Z M 190.02,122.03 c -1.32,0.04 -2.32,0.59 -3.02,1.65 c 1.02,1.05 2.59,-0.73 3.02,-1.65 c 1.41,0.13 4.42,-1.48 5.04,-2.7 c -0.8,-1.29 -4.76,1.67 -5.04,2.7 Z M 102.06,129.08 c -1.08,0.02 -4.28,0.77 -4,2.25 c 1.33,1.6 3.37,-1.24 4,-2.25 c 1.42,0.19 2.35,-0.37 2.8,-1.68 c -0.98,-0.93 -2.61,0.64 -2.8,1.68 Z M 409.65,132.14 c 0.94,-0.28 2.6,-0.17 2.83,-1.4 c -1.37,-0.46 -2.32,0.01 -2.83,1.4 Z M 153.73,159.16 c 0.27,-0.06 1.79,-0.45 0.78,-0.95 c -0.47,0.14 -0.73,0.46 -0.78,0.95 Z M 155.68,173 c 0.3,0 1.9,-0.27 0.84,-0.87 c -0.49,0.09 -0.77,0.38 -0.84,0.87 Z M 72.77,176.21 c 1.05,0.2 6.03,-2.29 4.82,-3.27 c -0.9,0.06 -4.98,1.94 -4.82,3.27 Z M 66.7,192.23 c 0.64,-0.48 4.27,-1.08 2.89,-2.31 c -1.57,0 -2.53,0.78 -2.89,2.31 Z M 349.92,194.99 c 0.44,-0.02 0.75,-0.21 0.96,-0.58 c -0.51,-0.21 -0.83,-0.02 -0.96,0.58 Z M 347.75,196.13 c -0.37,-0.01 -0.73,0.07 -1.07,0.22 c -6.57,3.84 -13.14,7.71 -19.71,11.61 c -1.29,0.51 -2.51,1.13 -3.67,1.87 c -0.37,0.62 -0.83,4.82 0.77,4 c 1.22,-1.12 2.53,-2.08 3.94,-2.88 c 5.49,-3.93 10.92,-7.94 16.28,-12.03 c 0.97,-0.72 3.99,-1.12 3.46,-2.79 c 0.39,0 0.71,-0.15 0.95,-0.44 c -0.46,-0.21 -0.78,-0.07 -0.95,0.44 Z M 175.97,201.93 c -0.78,-0.08 -1.4,0.19 -1.85,0.81 c 0.59,0.95 1.88,0.03 1.85,-0.81 c 1.06,0.13 5.8,-1.75 4.6,-3.08 c -1.86,0.53 -3.39,1.56 -4.6,3.08 Z M 179.9,222.9 c -0.77,-0.05 -1.37,0.24 -1.8,0.86 c 0.61,0.94 1.92,0 1.8,-0.86 c 0.81,0.21 4.09,-0.82 2.74,-1.89 c -1.24,0.15 -2.15,0.78 -2.74,1.89 Z M 449.09,235.06 c -0.82,-0.2 -1.49,0.02 -2.03,0.64 c 0.61,0.89 1.6,-0.09 2.03,-0.64 c 0.69,-0.45 3.72,-0.89 2.46,-2.12 c -1.46,-0.01 -2.28,0.7 -2.46,2.12 Z M 50.93,271.92 c -1.37,0.22 -2.35,0.94 -2.95,2.17 c -1.33,-0.08 -8.24,3.59 -8.73,4.75 c 0.66,1.93 8.06,-3.58 8.73,-4.75 c 1.51,0.03 2.5,-0.7 2.95,-2.17 c 0.6,0.15 2.97,-0.1 1.67,-1.05 c -0.83,-0.05 -1.39,0.3 -1.67,1.05 Z M 347.85,278.06 c 0.36,-0.03 1.7,-0.37 0.78,-0.94 c -0.48,0.14 -0.73,0.45 -0.78,0.94 Z M 152.82,286.04 c 0.45,-0.02 0.79,-0.22 1.03,-0.6 c -0.55,-0.24 -0.89,-0.04 -1.03,0.6 Z M 39.05,303.01 c -1.79,-0.13 -4.01,1.32 -5.01,2.7 c 0.66,1.32 4.69,-1.69 5.01,-2.7 c 0.75,0.05 1.46,-0.08 2.15,-0.37 c 1.3,-1.1 1.12,-1.55 -0.54,-1.33 c -0.75,0.36 -1.29,0.92 -1.61,1.7 Z M 325.07,304.94 c -1.31,0.13 -2.32,0.72 -3.04,1.77 c 0.75,1.44 2.51,-1.15 3.04,-1.77 c 0.75,0.16 1.37,-0.05 1.86,-0.64 c -0.51,-0.91 -2,-0.27 -1.86,0.64 Z M 482.04,363.96 c -0.8,0.88 -0.8,0.88 0,0 c 1,0.01 5.71,-1.75 4.48,-3.05 c -1.38,0.13 -3.9,1.66 -4.48,3.05 Z M 478.86,366.07 c 0.46,-0.04 0.81,-0.24 1.06,-0.62 c -0.57,-0.23 -0.93,-0.03 -1.06,0.62 Z M 37.05,383.06 c -1.62,-0.24 -2.63,0.44 -3.03,2.04 c -0.92,-0.21 -1.62,0.09 -2.09,0.91 c -1.39,0.03 -2.37,0.69 -2.93,1.96 c -1.26,-0.09 -6.26,2.01 -5.96,3.34 c 1.21,1.41 5.34,-2.17 5.96,-3.34 c 1.45,0.06 2.43,-0.6 2.93,-1.96 c 0.9,0.13 1.6,-0.17 2.09,-0.91 c 1.31,-0.23 2.32,-0.91 3.03,-2.04 c 0.5,0.1 2.43,-0.41 1.44,-1.15 c -0.7,0.11 -1.18,0.49 -1.44,1.15 Z M 490.83,456.42 c 0.7,-0.31 4.43,-1.34 2.82,-2.44 c -1.4,0.26 -2.34,1.07 -2.82,2.44 Z M 366.88,459.39 c 0.51,-0.13 2.76,-0.63 1.69,-1.46 c -0.89,0.1 -1.46,0.59 -1.69,1.46 Z M 64.46,501.98 c -2.19,1.54 -4.52,2.83 -7,3.89 c -1.92,0.45 -3.52,-0.09 -4.79,-1.62 c 3.94,-0.71 7.87,-1.46 11.79,-2.27 Z M 473.12,504.24 c -1.15,1.83 -10.96,5 -11.09,0.3 c 3.87,0.94 7.26,-0.2 11.09,-0.3 Z"/></g>
<g><path fill="#e76c67" fill-opacity="0.31" stroke="#e76c67" stroke-width="0.5" stroke-opacity="0.31" d="M 427.82,435.2 c 0.48,-1.3 1.4,-2.03 2.76,-2.21 c 1.11,1.16 -2.15,1.87 -2.76,2.21 Z"/></g>
<g><path fill="#e46f65" fill-opacity="0.231" stroke="#e46f65" stroke-width="0.5" stroke-opacity="0.231" d="M 171,429.94 c -0.55,1.35 -1.55,2.01 -3.01,1.98 c 0.54,-1.35 1.54,-2.01 3.01,-1.98 Z"/></g>
<g><path fill="#e67368" fill-opacity="0.251" stroke="#e67368" stroke-width="0.5" stroke-opacity="0.251" d="M 29,387.97 c -0.62,1.17 -4.75,4.75 -5.96,3.34 c -0.3,-1.33 4.7,-3.43 5.96,-3.34 Z"/></g>
<g><path fill="#e56e65" fill-opacity="0.247" stroke="#e56e65" stroke-width="0.5" stroke-opacity="0.247" d="M 31.93,386.01 c -0.5,1.36 -1.48,2.02 -2.93,1.96 c 0.56,-1.27 1.54,-1.93 2.93,-1.96 Z"/></g>
<g><path fill="#e66d68" fill-opacity="0.42" stroke="#e66d68" stroke-width="0.5" stroke-opacity="0.42" d="M 37.05,383.06 c -0.71,1.13 -1.72,1.81 -3.03,2.04 c 0.4,-1.6 1.41,-2.28 3.03,-2.04 Z"/></g>
<g><path fill="#e56d67" fill-opacity="0.286" stroke="#e56d67" stroke-width="0.5" stroke-opacity="0.286" d="M 60.96,382.04 c -0.43,0.8 -1.11,1.16 -2.05,1.1 c 0.38,-0.93 1.07,-1.29 2.05,-1.1 Z"/></g>
<g><path fill="#e46f67" fill-opacity="0.251" stroke="#e46f67" stroke-width="0.5" stroke-opacity="0.251" d="M 421.21,368.88 c -0.47,0.93 -1.23,1.28 -2.27,1.07 c 0.51,-0.83 1.27,-1.19 2.27,-1.07 Z"/></g>
<g><path fill="#e9706b" fill-opacity="0.184" stroke="#e9706b" stroke-width="0.5" stroke-opacity="0.184" d="M 180.17,301.91 c -1.26,1.83 -2.99,2.87 -5.19,3.1 c 0.45,-1.6 3.54,-3.18 5.19,-3.1 Z"/></g>
<g><path fill="#e76e68" fill-opacity="0.357" stroke="#e76e68" stroke-width="0.5" stroke-opacity="0.357" d="M 405.16,296.84 c -0.39,0.8 -2.13,3.01 -3.02,1.87 c 0.69,-1.11 1.69,-1.73 3.02,-1.87 Z"/></g>
<g><path fill="#e46d66" fill-opacity="0.361" stroke="#e46d66" stroke-width="0.5" stroke-opacity="0.361" d="M 158.95,281.88 c -0.46,1.43 -1.44,2.12 -2.94,2.08 c 0.63,-1.18 1.61,-1.88 2.94,-2.08 Z"/></g>
<g><path fill="#e66d68" fill-opacity="0.259" stroke="#e66d68" stroke-width="0.5" stroke-opacity="0.259" d="M 137.08,280.77 c -1.08,2.03 -2.75,3.08 -5.04,3.17 c 0.95,-1.73 3.13,-2.81 5.04,-3.17 Z M 456.13,310.77 c -1.19,1.91 -2.91,3 -5.15,3.24 c 0.47,-1.55 3.59,-3.07 5.15,-3.24 Z"/></g>
<g><path fill="#e56e68" fill-opacity="0.4" stroke="#e56e68" stroke-width="0.5" stroke-opacity="0.4" d="M 404.11,278.76 c -0.36,0.94 -1.98,3.23 -3.05,1.92 c 0.23,-1.16 2.16,-1.46 3.05,-1.92 Z M 132.04,283.94 c -0.39,0.99 -2.05,2.75 -3.08,1.72 c 0.75,-1.03 1.78,-1.6 3.08,-1.72 Z M 83.75,444.14 c 0.81,-1.19 3.45,-3.27 4.84,-3.21 c 1.27,1.12 -3.85,3.24 -4.84,3.21 Z"/></g>
<g><path fill="#e7706a" fill-opacity="0.251" stroke="#e7706a" stroke-width="0.5" stroke-opacity="0.251" d="M 47.98,274.09 c -0.67,1.17 -8.07,6.68 -8.73,4.75 c 0.49,-1.16 7.4,-4.83 8.73,-4.75 Z"/></g>
<g><path fill="#e56e67" fill-opacity="0.49" stroke="#e56e67" stroke-width="0.5" stroke-opacity="0.49" d="M 449.09,235.06 c -0.43,0.55 -1.42,1.53 -2.03,0.64 c 0.54,-0.62 1.21,-0.84 2.03,-0.64 Z M 39.05,303.01 c 0.32,-0.78 0.86,-1.34 1.61,-1.7 c 1.66,-0.22 1.84,0.23 0.54,1.33 c -0.69,0.29 -1.4,0.42 -2.15,0.37 Z M 167.05,310.02 c -0.13,0.78 -1.36,1.53 -1.94,0.66 c 0.51,-0.59 1.16,-0.81 1.94,-0.66 Z M 414.16,321.8 c -0.41,0.81 -1.01,1.41 -1.81,1.82 c -1.61,0.28 -1.78,-0.13 -0.5,-1.22 c 0.74,-0.3 1.51,-0.5 2.31,-0.6 Z M 337.08,377.1 c 0.29,-0.66 0.79,-1.04 1.51,-1.13 c 1.06,0.74 -1.05,1.21 -1.51,1.13 Z M 37.05,383.06 c 0.26,-0.66 0.74,-1.04 1.44,-1.15 c 0.99,0.74 -0.94,1.25 -1.44,1.15 Z M 165.92,433.07 c -0.26,1.16 -1.86,2.78 -2.92,1.55 c 0.73,-0.93 1.71,-1.44 2.92,-1.55 Z M 366.88,459.39 c 0.23,-0.87 0.8,-1.36 1.69,-1.46 c 1.07,0.83 -1.18,1.33 -1.69,1.46 Z"/></g>
<g><path fill="#e56e67" fill-opacity="0.408" stroke="#e56e67" stroke-width="0.5" stroke-opacity="0.408" d="M 175.97,201.93 c 0.03,0.84 -1.26,1.76 -1.85,0.81 c 0.45,-0.62 1.07,-0.89 1.85,-0.81 Z M 346.83,246.14 c 0.41,-0.79 1,-1.4 1.78,-1.81 c 1.55,-0.26 1.73,0.18 0.55,1.31 c -0.74,0.35 -1.51,0.52 -2.33,0.5 Z M 321.88,355.97 c 0.82,-0.89 4.04,-4.07 5.1,-2.64 c -1.27,1.31 -3.16,2.62 -5.1,2.64 Z M 418.94,369.95 c -0.29,0.98 -1.93,2.88 -2.9,1.72 c 0.25,-1.2 1.93,-1.43 2.9,-1.72 Z M 337.08,377.1 c -0.68,1.24 -1.71,1.9 -3.1,1.98 c 0.59,-1.35 1.62,-2.01 3.1,-1.98 Z M 154.97,391.98 c -0.56,1.31 -1.55,1.95 -2.97,1.93 c 0.64,-1.18 1.63,-1.82 2.97,-1.93 Z M 391,397.08 c 0.31,-0.68 0.84,-1.06 1.58,-1.15 c 1.05,0.8 -1.08,1.26 -1.58,1.15 Z M 80.03,414.04 c -0.65,1.19 -1.63,1.83 -2.95,1.9 c 0.59,-1.23 1.58,-1.86 2.95,-1.9 Z"/></g>
<g><path fill="#e56e67" fill-opacity="0.349" stroke="#e56e67" stroke-width="0.5" stroke-opacity="0.349" d="M 347.75,196.13 c 0.17,-0.51 0.49,-0.65 0.95,-0.44 c -0.24,0.29 -0.56,0.44 -0.95,0.44 Z M 175.97,201.93 c 1.21,-1.52 2.74,-2.55 4.6,-3.08 c 1.2,1.33 -3.54,3.21 -4.6,3.08 Z M 347.85,278.06 c 0.05,-0.49 0.3,-0.8 0.78,-0.94 c 0.92,0.57 -0.42,0.91 -0.78,0.94 Z M 78.09,308.96 c -0.68,1.32 -1.73,2.03 -3.17,2.14 c 0.66,-1.29 1.72,-2 3.17,-2.14 Z M 450.98,314.01 c -0.62,1.15 -1.6,1.8 -2.93,1.95 c 0.52,-1.32 1.5,-1.97 2.93,-1.95 Z M 146.01,336.93 c -0.57,1.33 -1.58,2.03 -3.02,2.1 c 0.56,-1.31 1.57,-2.01 3.02,-2.1 Z M 381.91,384.28 c 0.41,-1.35 1.3,-2.11 2.68,-2.27 c 1.34,1.01 -2.05,2.02 -2.68,2.27 Z M 430.22,381.84 c -0.79,1.04 -4.07,4.07 -5.2,2.83 c 1.21,-1.41 3.21,-2.79 5.2,-2.83 Z"/></g>
<g><path fill="#e46f67" fill-opacity="0.333" stroke="#e46f67" stroke-width="0.5" stroke-opacity="0.333" d="M 155.68,173 c 0.07,-0.49 0.35,-0.78 0.84,-0.87 c 1.06,0.6 -0.54,0.87 -0.84,0.87 Z M 482.04,363.96 c -0.8,0.88 -0.8,0.88 0,0 Z"/></g>
<g><path fill="#e46f66" fill-opacity="0.31" stroke="#e46f66" stroke-width="0.5" stroke-opacity="0.31" d="M 159.04,170.95 c -0.1,0.38 -0.34,0.55 -0.7,0.51 c 0.19,-0.22 0.43,-0.39 0.7,-0.51 Z M 49.1,343.06 c -0.52,0.76 -1.25,1.08 -2.18,0.96 c 0.5,-0.82 1.22,-1.14 2.18,-0.96 Z"/></g>
<g><path fill="#e56e66" fill-opacity="0.278" stroke="#e56e66" stroke-width="0.5" stroke-opacity="0.278" d="M 160.07,154.84 c -0.56,1.43 -1.61,2.14 -3.13,2.13 c 0.65,-1.29 1.69,-2 3.13,-2.13 Z M 370.97,309.05 c -0.63,1.3 -1.67,1.98 -3.12,2.06 c 0.57,-1.41 1.61,-2.1 3.12,-2.06 Z"/></g>
<g><path fill="#e56e67" fill-opacity="0.427" stroke="#e56e67" stroke-width="0.5" stroke-opacity="0.427" d="M 190.02,122.03 c -0.43,0.92 -2,2.7 -3.02,1.65 c 0.7,-1.06 1.7,-1.61 3.02,-1.65 Z M 92.85,189.21 c 0.49,-1.29 1.41,-2.02 2.76,-2.18 c 1.43,1.06 -2.08,2.04 -2.76,2.18 Z M 349.92,194.99 c 0.13,-0.6 0.45,-0.79 0.96,-0.58 c -0.21,0.37 -0.52,0.56 -0.96,0.58 Z M 83.99,210.04 c 0.33,-1.01 1.97,-2.86 2.99,-1.74 c -0.71,1.03 -1.71,1.61 -2.99,1.74 Z M 418.97,208.04 c -0.05,0.8 -1.31,1.5 -1.86,0.63 c 0.48,-0.59 1.1,-0.8 1.86,-0.63 Z M 449.09,235.06 c 0.18,-1.42 1,-2.13 2.46,-2.12 c 1.26,1.23 -1.77,1.67 -2.46,2.12 Z M 50.93,271.92 c 0.28,-0.75 0.84,-1.1 1.67,-1.05 c 1.3,0.95 -1.07,1.2 -1.67,1.05 Z M 455.09,280.73 c -0.37,1.36 -4.09,4.2 -5.05,2.96 c 1.16,-1.44 3.22,-2.47 5.05,-2.96 Z M 325.07,304.94 c -0.14,-0.91 1.35,-1.55 1.86,-0.64 c -0.49,0.59 -1.11,0.8 -1.86,0.64 Z M 169.97,307.9 c -0.53,1.32 -1.51,2.02 -2.92,2.12 c 0.55,-1.27 1.53,-1.98 2.92,-2.12 Z M 448.05,315.96 c -0.13,0.89 -1.43,1.64 -2.08,0.7 c 0.55,-0.63 1.24,-0.86 2.08,-0.7 Z M 89.77,333.13 c 0.44,-1 2.13,-3.14 3.24,-1.79 c -0.44,1.34 -2.23,1.1 -3.24,1.79 Z M 379.81,366.2 c 0.47,-0.98 2.14,-3.01 3.25,-1.8 c -0.31,1.21 -2.3,1.3 -3.25,1.8 Z M 129.08,375.05 c -0.45,0.81 -2.06,2.55 -2.95,1.61 c 0.64,-1.12 1.63,-1.66 2.95,-1.61 Z M 60.96,382.04 c 0.34,-1.4 1.22,-2.09 2.64,-2.07 c 1.29,1.05 -1.91,1.99 -2.64,2.07 Z M 81,395.91 c 0.32,-0.75 0.86,-1.3 1.61,-1.63 c 1.66,-0.21 1.85,0.24 0.57,1.34 c -0.7,0.3 -1.43,0.4 -2.18,0.29 Z M 65,440.01 c 0.22,-1.48 1.09,-2.16 2.61,-2.04 c 1.24,1.03 -1.9,1.97 -2.61,2.04 Z M 345.06,441.95 c 0.41,-1.04 4.12,-3.99 4.93,-2.65 c -1.19,1.28 -3.1,2.53 -4.93,2.65 Z M 76.97,464.92 c 0.55,-1.1 1.43,-1.73 2.63,-1.89 c 1.59,1.13 -1.63,2.28 -2.63,1.89 Z"/></g>
<g><path fill="#e56e67" fill-opacity="0.439" stroke="#e56e67" stroke-width="0.5" stroke-opacity="0.439" d="M 364.06,119.83 c -0.41,0.92 -1.9,2.84 -2.97,1.83 c 0.67,-1.08 1.66,-1.69 2.97,-1.83 Z M 102.97,143.03 c 0.18,-0.8 0.68,-1.18 1.53,-1.14 c 1.26,0.8 -0.96,1.31 -1.53,1.14 Z M 78.09,308.96 c 0.15,-0.78 0.64,-1.15 1.48,-1.1 c 1.27,0.78 -0.89,1.35 -1.48,1.1 Z M 142.99,339.03 c -0.04,0.81 -1.28,1.55 -1.82,0.66 c 0.46,-0.59 1.07,-0.81 1.82,-0.66 Z"/></g>
<g><path fill="#e56e67" fill-opacity="0.455" stroke="#e56e67" stroke-width="0.5" stroke-opacity="0.455" d="M 183.05,113.96 c -0.51,0.85 -1.93,2.85 -3.01,1.73 c 0.22,-1.25 2.02,-1.46 3.01,-1.73 Z M 66.7,192.23 c 0.36,-1.53 1.32,-2.31 2.89,-2.31 c 1.38,1.23 -2.25,1.83 -2.89,2.31 Z M 369.87,247.19 c 0.38,-0.88 0.99,-1.53 1.83,-1.97 c 1.6,-0.12 1.71,0.27 0.33,1.16 c -0.73,0.25 -1.45,0.52 -2.16,0.81 Z M 370.97,309.05 c 0.37,-0.73 0.92,-1.3 1.63,-1.7 c 1.67,-0.27 1.87,0.16 0.61,1.31 c -0.72,0.31 -1.46,0.44 -2.24,0.39 Z M 136.04,387.88 c -0.36,0.78 -0.92,1.36 -1.67,1.75 c -1.71,0.32 -1.88,-0.09 -0.52,-1.23 c 0.7,-0.28 1.43,-0.46 2.19,-0.52 Z"/></g>
<g><path fill="#e66d67" fill-opacity="0.294" stroke="#e66d67" stroke-width="0.5" stroke-opacity="0.294" d="M 185.02,113.05 c -0.39,0.8 -1.05,1.11 -1.97,0.91 c 0.37,-0.84 1.03,-1.14 1.97,-0.91 Z M 346.07,279 c -0.71,1.23 -1.76,1.98 -3.15,2.26 c 0.48,-1.55 1.53,-2.3 3.15,-2.26 Z M 34.02,385.1 c -0.49,0.74 -1.19,1.04 -2.09,0.91 c 0.47,-0.82 1.17,-1.12 2.09,-0.91 Z M 65,440.01 c 0.07,1.08 -1.31,1.13 -2.06,1.22 c 0.34,-1.01 1.02,-1.41 2.06,-1.22 Z"/></g>
<g><path fill="#e86d67" fill-opacity="0.231" stroke="#e86d67" stroke-width="0.5" stroke-opacity="0.231" d="M 188.13,110.85 c -0.61,1.34 -1.64,2.08 -3.11,2.2 c 0.5,-1.48 1.53,-2.21 3.11,-2.2 Z"/></g>
<g><path fill="#e56d67" fill-opacity="0.302" stroke="#e56d67" stroke-width="0.5" stroke-opacity="0.302" d="M 157.2,100.94 c -0.52,0.75 -2.19,2.91 -3.11,1.72 c 0.68,-1.17 1.72,-1.75 3.11,-1.72 Z M 190.02,122.03 c 0.28,-1.03 4.24,-3.99 5.04,-2.7 c -0.62,1.22 -3.63,2.83 -5.04,2.7 Z M 102.97,143.03 c -0.63,1.34 -1.68,2.06 -3.14,2.14 c 0.63,-1.32 1.68,-2.04 3.14,-2.14 Z M 153.73,159.16 c 0.05,-0.49 0.31,-0.81 0.78,-0.95 c 1.01,0.5 -0.51,0.89 -0.78,0.95 Z M 346.07,279 c -0.02,-0.5 0.16,-0.65 0.54,-0.48 c -0.11,0.24 -0.29,0.4 -0.54,0.48 Z M 333.98,379.08 c -0.56,1.38 -3.45,3.07 -5.02,2.91 c 0.87,-1.57 3.22,-3.01 5.02,-2.91 Z M 160.04,388.83 c -1.07,1.86 -2.74,3.56 -5.07,3.15 c 0.56,-1.35 3.58,-3 5.07,-3.15 Z M 170.2,414.81 c -0.65,1.36 -1.71,2.07 -3.2,2.11 c 0.62,-1.36 1.69,-2.06 3.2,-2.11 Z"/></g>
<g><path fill="#e56e67" fill-opacity="0.467" stroke="#e56e67" stroke-width="0.5" stroke-opacity="0.467" d="M 329.79,95.3 c -0.29,0.42 -0.9,1.64 -1.52,1.01 c 0.06,-1.01 0.57,-1.34 1.52,-1.01 Z M 49.1,343.06 c 0.14,-1.47 0.97,-2.18 2.47,-2.12 c 1.25,1.04 -1.77,1.94 -2.47,2.12 Z M 366,342.97 c 0.2,-0.78 0.71,-1.14 1.54,-1.09 c 1.28,0.81 -0.97,1.3 -1.54,1.09 Z M 143,415.93 c -0.27,0.85 -0.82,1.44 -1.65,1.78 c -1.69,0.24 -1.84,-0.18 -0.47,-1.26 c 0.68,-0.27 1.39,-0.45 2.12,-0.52 Z"/></g>
<g><path fill="#262626" fill-opacity="0.996" stroke="#262626" stroke-width="0.5" stroke-opacity="0.996" d="M 312.26,92.31 c 0.5,-0.32 0.83,-0.76 1,-1.33 c 1.73,-1.67 3.43,-3.39 5.11,-5.15 c 0.25,-0.32 0.37,-0.69 0.36,-1.09 c 0.67,-0.13 0.96,-0.54 0.85,-1.22 c 0.62,0.12 1.19,0.01 1.71,-0.33 c 0.35,-0.34 0.7,-0.69 1.04,-1.05 c 3.28,-2.52 6.83,-4.57 10.65,-6.16 c 0.36,-0.09 0.71,-0.17 1.07,-0.26 c 1.08,0.01 4.74,-0.78 4.99,-1.73 c 8.87,-0.62 16.13,-0.89 24.72,2.23 c 0.97,0.67 2.03,0.9 3.18,0.67 c 0.34,0.16 0.67,0.31 1,0.46 c 0.31,0.24 0.61,0.49 0.91,0.75 c 10.75,3.7 22.48,12.22 31.04,19.73 c 79.84,84.62 97.18,200.86 109.89,311.67 c 1.87,26.74 2.91,47.51 -6.92,73.2 c -1.41,0.78 -3.26,4.59 -4.14,6.1 c -0.32,0.36 -0.64,0.72 -0.95,1.09 c -6.3,8.05 -14.52,12.84 -24.65,14.35 c -3.83,0.1 -7.22,1.24 -11.09,0.3 c -5.03,0.22 -10.01,-0.81 -14.94,-1.83 c -0.2,-0.23 -0.45,-0.39 -0.74,-0.48 c -1.88,-0.3 -3.76,-0.62 -5.61,-0.97 c -22.94,-6.72 -42.77,-17.23 -63.38,-29.11 c -41.97,-6.96 -73.92,-16.59 -82.32,-63.65 c -5.67,-62.17 26.91,-124.45 15.98,-185.01 c -0.08,-1.11 -0.64,-1.82 -1.69,-2.13 c -9.61,-3.55 -19.24,-7.06 -28.89,-10.51 c -0.63,-0.11 -1.08,0.13 -1.35,0.71 c -2.41,21.81 -49.6,22.13 -46.53,-1.99 c -0.23,-0.28 -0.53,-0.39 -0.9,-0.33 c -5.93,2.1 -26.69,8.19 -30.35,11.51 c -9.62,54.17 13.74,109.52 16.41,163.75 c 0.35,8.81 -0.24,17.55 -1.76,26.24 c -0.09,0.79 -0.1,1.58 -0.03,2.37 c 0.01,0.22 0.03,0.44 0.04,0.66 c -0.59,0.21 -0.94,0.62 -1.07,1.23 c -2.24,9.23 -6.53,16.97 -11.77,24.76 c -1.47,0.79 -2.46,1.98 -2.98,3.55 c -14.41,13.18 -27.65,19.41 -46.69,24.52 c -8.54,2.14 -17.16,3.89 -25.84,5.26 c -20.58,11.98 -40.12,22.19 -63.16,28.89 c -3.92,0.81 -7.85,1.56 -11.79,2.27 c -6.51,0.87 -13.06,1.08 -19.62,0.63 c -0.72,-1.16 -3.87,-1.48 -5.21,-1.42 c -31.1,-10.14 -28.76,-50.05 -25,-75.97 c 1.83,-56.3 10.33,-111.56 25.48,-165.81 c 19.1,-62.41 40.81,-122.71 90.2,-167.84 c 1.54,0.06 2.27,-0.67 2.2,-2.19 c 1.09,0.43 1.8,0.1 2.14,-0.99 c 0.5,-0.03 0.83,-0.28 0.99,-0.76 c 0.7,-0.02 1.19,-0.35 1.46,-0.98 c 3.47,-2.03 6.99,-3.94 10.55,-5.75 c 0.62,-0.15 1.07,-0.5 1.34,-1.07 c 0.29,0 0.58,0 0.86,0.01 c 0.5,-0.13 0.86,-0.42 1.08,-0.89 c 0.19,-0.08 0.38,-0.15 0.58,-0.23 c 0.56,-0.1 1.05,-0.35 1.47,-0.74 c 0.25,-0.15 0.5,-0.3 0.75,-0.45 c 0.65,0.03 2.11,-0.05 1.64,-1.12 c 0.81,0.1 1.59,0.02 2.36,-0.24 c 3.42,-1.33 6.89,-2.51 10.42,-3.53 c 15.84,-3.63 29.79,-1.4 40.87,11.17 c 18.79,23.54 17.39,58.62 10.72,86.44 c -0.32,1.08 -0.33,2.9 1.38,2.35 c 7.6,-2.73 15.18,-5.52 22.74,-8.38 c 1.31,-0.8 1.35,-6.36 1.73,-7.99 c 0.8,-23.43 -1.59,-47.57 -2.66,-71 c -0.33,-18.57 -2.43,-54.72 4.81,-71.17 c 0.23,-0.84 0.36,-1.69 0.39,-2.56 c 0.95,0.67 1.44,-2.25 1.96,-2.68 c 0.31,-0.28 0.56,-0.61 0.74,-0.99 c 5.01,-9.57 20.52,-5.72 29.29,-5.81 c 10.18,2.15 10.35,8.36 10.49,17.21 c 2.03,47.08 -0.35,93.96 0.41,141.01 c -0.09,0.81 0.09,1.55 0.55,2.21 c 7.25,2.8 14.54,5.52 21.87,8.15 c 1.08,0.21 1.79,0.93 2.5,-0.24 c -1,-5.04 -1.97,-10.1 -2.91,-15.17 c -3.12,-23.93 -1.25,-44.2 11.02,-65.15 Z M 245.3,33.36 c -0.25,0.78 -0.25,1.57 0,2.35 c -0.31,8.96 -0.61,24.45 0.07,32.68 c -0.33,0.74 -0.41,1.52 -0.25,2.32 c -0.15,18.2 -0.14,36.39 0.03,54.59 c -0.03,1.15 -0.04,2.3 -0.04,3.45 c -0.11,5.17 -0.03,10.34 0.23,15.5 c -0.16,1.18 -0.18,2.37 -0.06,3.56 c -0.19,5.12 -0.19,10.25 0.01,15.37 c -0.03,0.88 -0.05,1.76 -0.07,2.64 c -0.11,5.11 -0.09,10.22 0.04,15.33 c -0.1,0.86 -0.1,1.71 0,2.57 c -0.15,9.52 -0.19,19.05 -0.11,28.58 c 0.54,2.5 2.04,4.03 4.51,4.6 c 4.42,1.88 11.08,0.9 15.71,0.03 c 2.07,-1.47 1.59,-6.13 1.93,-8.36 c 0.06,-15.76 -0.56,-33.75 -0.34,-49.72 c 0.03,-0.93 -0.01,-1.85 -0.13,-2.77 c 0,-5.11 0.02,-10.22 0.06,-15.33 c -0.05,-1.21 -0.08,-2.43 -0.1,-3.65 c 0.07,-5.1 0.04,-10.2 -0.09,-15.3 c 0.34,-1.21 0.37,-2.43 0.09,-3.67 c 0.07,-5.12 0.02,-10.24 -0.16,-15.36 c 0,-0.22 0.01,-0.43 0.01,-0.65 c 0.3,-12.77 0.33,-25.54 0.1,-38.31 c 0.17,-0.83 0.16,-1.66 -0.03,-2.49 c 0.24,-5.46 0.27,-10.93 0.1,-16.4 c 0.01,-0.25 0.01,-0.51 0.02,-0.76 c 0.11,-5.11 0.09,-10.22 -0.05,-15.33 c 0.16,-1.22 0.13,-2.45 -0.08,-3.67 c 0.98,-6.19 0.7,-11.57 -6.75,-12.39 c -2.58,-0.35 -5.15,-0.29 -7.72,0.19 c -2.94,0.31 -6.15,-0.84 -6.81,3 c -0.56,4.81 -0.49,12.4 -0.12,17.4 Z M 155.32,82.17 c -0.92,-0.22 -1.62,0.04 -2.11,0.77 c -32.09,8.32 -57.6,43.86 -71.63,71.98 c -1.03,1.19 -1.61,2.57 -1.75,4.14 c -5.93,10.12 -18.18,38.91 -20.83,49.21 c -0.46,0.17 -0.7,0.5 -0.7,1.01 c -0.82,1.1 -1.29,2.33 -1.41,3.7 c -2.08,4.93 -3.95,9.94 -5.6,15.03 c -0.13,0.29 -0.26,0.58 -0.39,0.88 c -0.54,0.93 -0.93,1.93 -1.17,2.98 c -0.35,0.24 -0.58,0.55 -0.7,0.96 c -1.7,5 -3.33,10.02 -4.88,15.07 c -0.64,1.75 -1.21,3.53 -1.72,5.32 c -0.32,0.46 -0.41,0.99 -0.26,1.6 c -6.53,21.46 -12.4,45.4 -15.87,67.51 c -0.56,1.74 -0.97,3.51 -1.23,5.32 c -0.78,4.16 -1.41,8.34 -1.86,12.54 c -0.52,2.16 -0.89,4.36 -1.12,6.57 c -0.8,3.73 -1.17,7.49 -1.11,11.28 c -0.08,0.34 -0.17,0.68 -0.25,1.03 c -0.45,0.81 -0.63,1.69 -0.55,2.64 c -0.74,3.85 -1.13,7.74 -1.19,11.66 c -0.61,2.8 -0.97,5.64 -1.08,8.52 c -0.68,8.44 -1.29,16.88 -1.82,25.34 c -0.11,1.27 -0.19,2.55 -0.23,3.83 c -0.53,7.34 -0.71,14.68 -0.54,22.03 c -0.15,0.36 -0.29,0.72 -0.43,1.08 c 0.05,1.93 0.05,3.85 -0.01,5.78 c 0.44,1.89 -0.99,10.53 0.26,11.43 c -1.52,1.63 -0.91,4.32 -0.94,6.34 c -0.3,3.55 -0.04,7.07 0.77,10.53 c -0.03,1.22 0.06,2.43 0.26,3.63 c 0.51,3.6 1.52,7.06 3.04,10.37 c 0.58,1.24 1.16,3.36 2.51,3.92 c 0.71,2.89 3.76,5.92 6.39,7.19 c 1.03,0.99 2.18,1.81 3.47,2.46 c 4.3,1.94 8.8,2.9 13.52,2.87 c 3.52,0.34 7,0.07 10.44,-0.8 c 17.46,-2.62 31.89,-9.95 47.72,-17.1 c 0.27,-0.14 0.49,-0.32 0.68,-0.56 c 0.43,-0.07 0.87,-0.15 1.31,-0.22 c 0.25,-0.2 0.5,-0.39 0.76,-0.59 c 1.59,-1.53 4.07,-2.6 6.06,-3.62 c 0.3,-0.06 0.6,-0.13 0.91,-0.19 c 0.36,-0.02 0.71,-0.12 1.04,-0.27 c 0.4,-0.28 0.75,-0.6 1.04,-0.99 c 0.38,-0.11 0.76,-0.23 1.13,-0.34 c 0.37,-0.12 0.64,-0.36 0.82,-0.7 c 0.39,-0.11 0.78,-0.22 1.17,-0.32 c 0.36,-0.12 0.64,-0.33 0.85,-0.64 c 0.42,-0.2 0.84,-0.41 1.26,-0.62 c 2.27,-1.09 4.53,-2.21 6.77,-3.36 c 11.17,-4.86 23.04,-7.31 34.71,-10.61 c 25.35,-6.26 39.2,-19.72 43.19,-46.06 c 0.65,-1.38 0.9,-2.84 0.74,-4.36 c 0.6,-4.18 0.93,-8.37 1.01,-12.59 c 0.01,-1.19 -0.02,-2.39 -0.11,-3.58 c 0.22,-3.5 0,-6.98 -0.64,-10.43 c 0.17,-1.83 0.08,-3.65 -0.25,-5.46 c -0.08,-2.96 -0.34,-5.91 -0.76,-8.84 c -0.06,-0.88 -0.48,-1.47 -1.26,-1.78 c 0.96,-1.1 1.13,-2.35 0.5,-3.73 c -0.17,-2.86 -0.54,-5.7 -1.12,-8.5 c -0.05,-0.8 -0.42,-1.38 -1.1,-1.73 c 1.38,-1.73 -0.02,-3.67 -0.02,-5.65 c -0.53,-3.39 -1.1,-6.76 -1.71,-10.11 c -0.36,-1.37 -0.11,-4.85 -1.2,-5.74 c -0.62,-6.47 -1.68,-12.86 -3.19,-19.19 c -0.01,-0.41 -0.02,-0.83 -0.03,-1.25 c -0.03,-0.57 -0.11,-1.13 -0.25,-1.68 c 0.33,-0.83 0.14,-1.48 -0.57,-1.92 c 0,-3.22 -0.42,-6.39 -1.25,-9.5 c 0.08,-0.6 -0.09,-1.09 -0.52,-1.47 c -0.03,-3.52 -0.46,-6.99 -1.29,-10.42 c -0.15,-2.6 -0.44,-5.19 -0.86,-7.76 c -0.38,-3.44 -0.85,-6.87 -1.41,-10.29 c 0,-0.36 0.01,-0.71 0.02,-1.07 c 0,-0.53 -0.01,-1.05 -0.03,-1.57 c -0.48,-3.77 -0.83,-7.54 -1.05,-11.33 c 0.11,-1.58 -0.14,-3.09 -0.73,-4.55 c 0.19,-3.85 0.19,-7.71 -0.01,-11.57 c 0.1,-1.45 0.03,-2.89 -0.19,-4.32 c 0.09,-21.83 2.73,-41.63 8.39,-62.65 c 0.52,0.01 0.71,-0.26 0.58,-0.8 c 0.71,-2.14 1.08,-4.35 1.11,-6.61 c 0.48,-4.17 0.87,-8.34 1.18,-12.51 c 0.07,-1.25 0.15,-2.49 0.23,-3.73 c 0.61,-4.08 0.78,-8.18 0.51,-12.3 c 0.26,-1.15 0.22,-2.3 -0.1,-3.43 c 0.23,-6.77 -0.64,-16.01 -2.77,-22.44 c -0.17,-0.62 -0.3,-1.24 -0.39,-1.88 c -0.77,-2.95 -1.94,-5.74 -3.49,-8.37 c -0.55,-0.92 -1.1,-1.84 -1.66,-2.76 c -1.99,-2.94 -4.49,-5.33 -7.51,-7.18 c -1.06,-1.05 -2.26,-1.9 -3.61,-2.56 c -3.56,-1.88 -7.33,-3.13 -11.3,-3.73 c -4.37,-0.72 -8.57,-0.12 -12.59,1.81 Z M 314.14,114.1 c -0.12,0.31 -0.25,0.61 -0.38,0.92 c -0.57,1.54 -0.82,3.13 -0.74,4.78 c -0.81,7.84 -0.82,15.68 -0.06,23.53 c -0.03,1.52 0.07,3.03 0.3,4.53 c 0.72,7.18 1.69,14.33 2.89,21.44 c 0.16,1.21 0.45,2.38 0.87,3.52 c 1.15,7.39 2.23,14.78 3.25,22.19 c 0.35,1.66 0.61,3.33 0.76,5.02 c 1.11,8.39 0.87,16.65 2.84,24.95 c 0.27,1.17 -0.14,4.19 0.99,4.81 c 0,3.54 0.16,7.08 0.49,10.62 c 0.15,0.44 0.44,0.74 0.85,0.92 c -0.76,1.46 -0.85,2.97 -0.26,4.53 c -0.18,3.14 -0.49,8.29 0.17,11.23 c -0.12,0.34 -0.23,0.67 -0.34,1.01 c -0.06,0.6 -0.07,1.21 -0.01,1.81 c -0.65,4.1 -0.93,8.22 -0.84,12.37 c -0.66,2.43 -0.98,4.9 -0.97,7.41 c -0.65,4.17 -1.27,8.34 -1.86,12.52 c -0.11,0.95 -0.21,1.89 -0.3,2.84 c -1.72,8.74 -3.34,17.49 -4.86,26.26 c -0.67,1.92 -1.18,3.89 -1.53,5.9 c -0.31,0.45 -0.39,0.98 -0.24,1.59 c -0.72,4.18 -2.31,9.18 -2.37,13.37 c -0.85,2.43 -1.38,4.92 -1.57,7.48 c -1.06,3.92 -2.28,9.78 -2.27,13.72 c -1.09,-0.3 -0.64,1.95 -0.67,2.46 c -0.75,3.7 -1.24,7.44 -1.48,11.2 c -0.44,1.86 -0.71,3.74 -0.78,5.65 c -0.59,4.2 -0.83,8.41 -0.72,12.64 c -0.19,0.78 -0.27,1.58 -0.23,2.39 c -0.26,3.27 -0.2,6.54 0.16,9.8 c 0.18,0.44 0.49,0.72 0.94,0.83 c -1.49,1.55 0.1,4.89 0.42,6.71 c 0.75,3.57 2.02,6.95 3.78,10.14 c 1.01,1.97 2.11,3.9 3.28,5.78 c 2.09,2.05 4.49,6.21 7.32,7.09 c 0.17,1.63 2.75,2.86 3.76,4.1 c 3.05,2.13 6.16,4.15 9.35,6.06 c 0.5,0.58 1.14,0.85 1.92,0.8 c 3.13,1.87 6.44,3.31 9.93,4.31 c 1.35,1.24 6.29,3.25 8.18,2.61 c -0.03,0.7 0.31,1.14 1.02,1.31 c 7.21,2.59 14.51,4.93 21.89,7.01 c 2.55,0.86 5.12,1.7 7.7,2.51 c 4.1,1.44 8.23,2.79 12.39,4.05 c 2.49,1.46 5.05,2.81 7.69,4.04 c 3.38,1.83 6.76,3.64 10.14,5.44 c 1.95,0.78 4.03,2.83 6.18,2.64 c 0.13,0.68 0.51,1.16 1.15,1.44 c 2.57,1.38 5.15,2.72 7.75,4.03 c 0.91,0.49 1.83,0.98 2.74,1.47 c 3.07,1.53 6.18,2.99 9.31,4.39 c 0.49,0.48 1.07,0.72 1.76,0.72 c 3.67,1.59 7.44,2.86 11.32,3.82 c 2.55,0.81 5.17,1.29 7.84,1.47 c 13.64,1.12 23.76,-4.33 30.35,-16.35 c 3.97,-12.53 3.48,-30.95 3.64,-44.24 c 0.32,-1.84 0.29,-3.68 -0.09,-5.52 c 0.25,-4.14 0.22,-8.29 -0.09,-12.45 c 0.14,-1.95 0,-3.88 -0.41,-5.79 c -0.08,-3.48 -0.23,-6.97 -0.44,-10.45 c -0.08,-0.82 -0.48,-1.42 -1.2,-1.8 c 1.69,-1.25 0.52,-3.99 0.45,-5.71 c -0.55,-7.33 -1.23,-14.66 -2.06,-21.97 c -0.32,-1.27 -0.02,-5.06 -1.29,-5.68 c 0.16,-2.66 -1.48,-20.19 -2.94,-21.4 c 0.07,-0.33 0.14,-0.66 0.21,-1 c -0.17,-1.39 0.17,-4.98 -1.27,-5.71 c 0.89,-2.43 -0.78,-6.13 -0.83,-8.73 c -0.03,-0.83 -0.41,-1.41 -1.15,-1.74 c 0.62,-1.94 0.46,-4.95 -0.77,-6.58 c -0.18,-3.52 -0.75,-6.98 -1.72,-10.38 c -0.21,-2.31 -0.63,-4.59 -1.25,-6.83 c -0.63,-3.42 -1.39,-6.82 -2.28,-10.18 c 0.02,-0.65 -0.11,-1.26 -0.41,-1.83 c -0.55,-3.36 -1.24,-6.68 -2.08,-9.98 c -0.39,-1.69 -0.82,-3.36 -1.29,-5.03 c -0.68,-3.44 -1.55,-6.84 -2.6,-10.2 c -0.23,-0.5 -0.43,-1.02 -0.59,-1.55 c -0.44,-3.24 -1.27,-6.37 -2.49,-9.39 c -0.22,-2.3 -0.78,-4.52 -1.69,-6.65 c -0.77,-3.18 -1.66,-6.34 -2.66,-9.46 c -0.49,-1.94 -1.09,-3.85 -1.79,-5.72 c -2,-6.24 -4.01,-12.48 -6.04,-18.72 c -0.16,-0.66 -0.56,-1.02 -1.22,-1.09 c 0.11,-0.74 0.09,-1.47 -0.07,-2.2 c -0.83,-2.58 -1.71,-5.14 -2.62,-7.69 c -0.25,-0.81 -0.77,-1.33 -1.57,-1.56 c 1.05,-1.54 -0.74,-4.27 -1.44,-5.71 c -0.61,-1.86 -2.55,-8.31 -4.01,-9.23 c 0.12,-1.11 -0.25,-1.98 -1.11,-2.61 c -0.36,-3.01 -2.34,-6.58 -3.58,-9.37 c -0.66,-1.31 -1.24,-2.65 -1.74,-4.03 c -1.49,-2.94 -2.91,-5.91 -4.24,-8.93 c -0.71,-1.32 -1.46,-2.6 -2.27,-3.85 c -1.21,-2.73 -2.55,-5.39 -4.03,-7.99 c -0.24,-0.6 -0.67,-0.89 -1.31,-0.87 c 0.04,-1.55 -0.5,-2.87 -1.62,-3.96 c -1.42,-2.87 -3.01,-5.64 -4.76,-8.33 c -1.02,-1.63 -2.09,-3.23 -3.21,-4.8 c -3.42,-5.4 -7.2,-10.54 -11.33,-15.42 c -0.81,-1.3 -1.74,-2.52 -2.78,-3.65 c -4.41,-5.11 -9.14,-9.91 -14.2,-14.39 c -1,-1.28 -2.28,-2.05 -3.84,-2.3 c -1.6,-3.64 -13.46,-9.88 -17.26,-11.6 c -1.81,-1.07 -3.72,-1.92 -5.73,-2.54 c -0.35,-0.01 -0.7,-0.03 -1.05,-0.04 c -2.03,-1.72 -9.4,-2.98 -12.19,-3.49 c -1.32,-0.42 -2.67,-0.6 -4.06,-0.55 c -2.54,-0.12 -5.09,-0.12 -7.63,0 c -5.86,0.48 -11.04,-0.49 -14.49,5.14 c -5.5,7.54 -9.69,16.59 -10.71,25.92 Z M 230.21,173.79 c -1.03,0.17 -1.89,0.64 -2.57,1.41 c -1.43,-0.6 -17.55,5.67 -19.37,6.81 c -2.74,-0.52 -2.15,1.54 -2.22,3.4 c -0.08,0.85 -0.16,1.7 -0.25,2.56 c -0.69,3.98 -1.27,7.99 -1.76,12.01 c -0.11,0.68 -0.19,1.36 -0.23,2.04 c -0.5,3.51 -1.01,7.02 -1.52,10.53 c -0.06,0.4 0.05,0.74 0.33,1.02 c 8.95,-2.93 17.81,-6.14 26.56,-9.63 c 0.73,0.13 1.3,-0.1 1.71,-0.69 c 0.72,-0.08 1.33,-0.37 1.82,-0.87 c 0.11,-3.54 0.1,-7.08 -0.04,-10.61 c 0.09,-0.89 0.08,-1.77 -0.03,-2.65 c 0.15,-4.87 0.18,-9.74 0.1,-14.6 c 0.11,-0.7 -0.16,-1.09 -0.82,-1.16 c -0.38,0.05 -1.77,-0.32 -1.71,0.43 Z M 286.21,203.19 c 0.14,1.05 4.76,2.48 5.84,1.75 c 0.04,0.71 0.4,1.17 1.09,1.38 c 3.95,1.38 7.86,2.85 11.74,4.41 c 0.24,0 0.49,0.01 0.73,0.01 c 0.92,0.26 3.93,2.14 3.99,0.17 c -1.15,-8.8 -2.4,-17.59 -3.76,-26.36 c -0.3,-1.17 -2.87,-1.3 -3.81,-1.77 c -0.25,-0.28 -0.55,-0.5 -0.89,-0.64 c -6.58,-2.42 -13.17,-4.78 -19.79,-7.07 c -1.44,-0.51 -2.16,-0.01 -2.13,1.49 c -0.03,7.92 0.04,15.84 0.2,23.76 c 0.04,1.72 5.48,2.6 6.79,2.87 Z"/></g>
<g><path fill="#ce9a77" fill-opacity="0.957" d="M 239.04,10.1 c -0.18,0.38 -0.43,0.71 -0.74,0.99 c -0.17,-0.64 0.08,-0.97 0.74,-0.99 Z M 237.34,10.95 c 0.32,0.05 0.64,0.09 0.96,0.14 c -0.52,0.43 -1.01,3.35 -1.96,2.68 c -0.09,-0.31 -0.17,-0.61 -0.25,-0.92 c -0.01,-0.2 -0.01,-0.4 -0.02,-0.6 c 0.58,-0.28 1,-0.71 1.27,-1.3 Z"/></g>
<g><path fill="#febc8f" fill-opacity="0.992" stroke="#febc8f" stroke-width="0.5" stroke-opacity="0.992" d="M 252.23,12.96 c -1.02,2.18 -1.96,4.39 -2.84,6.62 c 0.24,0.28 0.54,0.33 0.9,0.17 c 3.21,-1.8 6.38,-3.68 9.49,-5.63 c 0.28,-0.42 0.34,-0.87 0.17,-1.35 c 7.45,0.82 7.73,6.2 6.75,12.39 c -0.76,0.28 -1.29,0.82 -1.58,1.61 c -0.43,0.3 -0.85,0.62 -1.25,0.97 c -0.41,0.34 -0.79,0.71 -1.13,1.11 c -0.25,0.31 -0.49,0.61 -0.74,0.92 c -0.04,0.44 -0.08,0.88 -0.12,1.32 c -0.91,0.05 -1.49,0.49 -1.74,1.34 c 0.67,0.91 2.27,-1.15 3.15,-1.23 c 0.59,-0.38 1.2,-0.75 1.82,-1.09 c 0.43,-0.18 0.78,-0.46 1.05,-0.84 c 0.2,-0.15 0.41,-0.29 0.62,-0.44 c 0.14,5.11 0.16,10.22 0.05,15.33 c -1.02,0.23 -1.03,0.48 -0.02,0.76 c 0.17,5.47 0.14,10.94 -0.1,16.4 c -1.56,-0.9 -3,2.55 -3.97,3.33 c -0.15,2.52 3.19,-0.38 4,-0.84 c 0.23,12.77 0.2,25.54 -0.1,38.31 c -0.69,0.34 -0.7,0.55 -0.01,0.65 c 0.18,5.12 0.23,10.24 0.16,15.36 c -0.44,0.06 -0.77,0.29 -0.99,0.69 c -1.01,1.15 -2,2.32 -2.97,3.49 c -0.87,0.97 -0.68,1.57 0.56,1.79 c 0.87,-0.47 1.75,-0.92 2.64,-1.37 c 0.23,-0.31 0.45,-0.62 0.67,-0.93 c 0.13,5.1 0.16,10.2 0.09,15.3 c -0.75,0.52 -1.11,1.25 -1.08,2.2 c -0.27,-0.18 -0.53,-0.16 -0.76,0.08 c -2.89,2.34 -2.35,3.64 1.06,1.67 c 0.29,-0.1 0.58,-0.2 0.88,-0.3 c -0.04,5.11 -0.06,10.22 -0.06,15.33 c -0.48,-0.01 -0.9,0.14 -1.26,0.46 c -0.48,0.92 -3.85,3.43 -3.02,4.46 c 1.23,-0.28 2.4,-0.74 3.5,-1.38 c 0.3,-0.26 0.61,-0.52 0.91,-0.77 c -0.22,15.97 0.4,33.96 0.34,49.72 c -0.34,2.23 0.14,6.89 -1.93,8.36 c -4.63,0.87 -11.29,1.85 -15.71,-0.03 c 2.86,-3.6 5.44,-7.38 7.76,-11.35 c -1.69,-0.57 -8.13,4.29 -10.15,5.05 c -0.75,0.5 -1.46,1.07 -2.12,1.7 c -0.08,-9.53 -0.04,-19.06 0.11,-28.58 c 0.58,0.18 1.08,0.05 1.5,-0.39 c 0.27,-0.88 2.3,-2.32 1.91,-3.19 c 0.63,-0.15 1.06,-0.51 1.31,-1.1 c 0.3,-0.02 0.52,-0.16 0.64,-0.43 c -0.36,-0.15 -0.57,-0.01 -0.64,0.43 c -0.52,0.26 -0.96,0.63 -1.31,1.1 c -1.22,-0.02 -2.36,0.32 -3.41,1.01 c -0.13,-5.11 -0.15,-10.22 -0.04,-15.33 c 2.02,-1.5 3.83,-3.22 5.42,-5.16 c -0.53,-0.27 -1.07,-0.27 -1.64,0 c -1.17,0.94 -2.41,1.78 -3.71,2.52 c -0.2,-5.12 -0.2,-10.25 -0.01,-15.37 c 0.4,-0.03 0.71,-0.22 0.93,-0.57 c 0.34,-0.33 0.69,-0.66 1.04,-0.98 c 0.31,-0.34 0.61,-0.69 0.9,-1.05 c -0.07,-0.74 0.19,-1.36 0.77,-1.87 c -0.87,-1.06 -2.61,0.64 -3.58,0.91 c -0.26,-5.16 -0.34,-10.33 -0.23,-15.5 c 1.34,-0.21 4.73,-3.92 4.87,-5.24 c -0.86,-1.46 -3.85,1.34 -4.83,1.79 c -0.17,-18.2 -0.18,-36.39 -0.03,-54.59 c 0.91,-0.16 1.62,-0.65 2.14,-1.46 c 0.3,-0.33 0.62,-0.64 0.95,-0.94 c 0.35,-0.38 0.7,-0.76 1.05,-1.14 c 0.85,-0.96 1.58,-1.95 2.21,-2.98 c -1.13,0 -1.95,0.5 -2.46,1.51 c -1.72,0.23 -2.93,1.12 -3.64,2.69 c -0.68,-8.23 -0.38,-23.72 -0.07,-32.68 c 0.78,-0.28 1.43,-0.77 1.94,-1.47 c 0.28,-0.29 0.53,-0.61 0.73,-0.96 c 0.28,-0.92 0.71,-1.76 1.3,-2.55 c 0.58,0.16 2.25,-0.8 1.18,-1.2 c -0.46,0.33 -0.86,0.73 -1.18,1.2 c -1.82,0.15 -3.14,1.03 -3.97,2.63 c -0.37,-5 -0.44,-12.59 0.12,-17.4 c 0.66,-3.84 3.87,-2.69 6.81,-3 Z M 260.91,67.17 c 0.26,-0.11 1.71,-0.58 0.7,-1.02 c -0.46,0.18 -0.69,0.52 -0.7,1.02 Z M 259.95,125.97 c 0.43,-0.04 0.75,-0.25 0.94,-0.64 c -0.52,-0.19 -0.84,0.02 -0.94,0.64 Z"/></g>
<g><path fill="#ffbf92" fill-opacity="0.11" d="M 249.98,179.04 c -0.25,0.59 -0.68,0.95 -1.31,1.1 c 0.35,-0.47 0.79,-0.84 1.31,-1.1 Z"/></g>
<g><path fill="#ffbb90" fill-opacity="0.459" d="M 249.98,179.04 c 0.07,-0.44 0.28,-0.58 0.64,-0.43 c -0.12,0.27 -0.34,0.41 -0.64,0.43 Z"/></g>
<g><path fill="#ffb991" fill-opacity="0.173" d="M 260.91,67.17 c 0.01,-0.5 0.24,-0.84 0.7,-1.02 c 1.01,0.44 -0.44,0.91 -0.7,1.02 Z"/></g>
<g><path fill="#ffbc8e" fill-opacity="0.447" d="M 249.27,30.73 c 0.32,-0.47 0.72,-0.87 1.18,-1.2 c 1.07,0.4 -0.6,1.36 -1.18,1.2 Z"/></g>
<g><path fill="#ffbb8f" fill-opacity="0.322" d="M 259.95,125.97 c 0.1,-0.62 0.42,-0.83 0.94,-0.64 c -0.19,0.39 -0.51,0.6 -0.94,0.64 Z"/></g>
<g><path fill="#ffbc8f" fill-opacity="0.396" d="M 249.26,67.17 c -0.08,-0.49 -0.17,-0.98 -0.25,-1.47 c 0.51,-1.01 1.33,-1.51 2.46,-1.51 c -0.63,1.03 -1.36,2.02 -2.21,2.98 Z"/></g>
<g><path fill="#5a3634" fill-opacity="0.18" stroke="#5a3634" stroke-width="0.5" stroke-opacity="0.18" d="M 124.2,468.25 c 0.64,0.08 1.28,0.12 1.92,0.12 c -2.24,1.15 -4.5,2.27 -6.77,3.36 c -0.45,-0.63 -0.37,-1.17 0.25,-1.62 c 1.43,-0.9 2.96,-1.52 4.6,-1.86 Z"/></g>
<g><path fill="#553f30" fill-opacity="0.039" stroke="#553f30" stroke-width="0.5" stroke-opacity="0.039" d="M 249.01,65.7 c 0.08,0.49 0.17,0.98 0.25,1.47 c -0.91,-0.14 -1.26,0.24 -1.05,1.14 c -0.7,-0.08 -1.02,0.24 -0.95,0.94 c -0.52,0.81 -1.23,1.3 -2.14,1.46 c -0.16,-0.8 -0.08,-1.58 0.25,-2.32 c 0.71,-1.57 1.92,-2.46 3.64,-2.69 Z"/></g>
<g><path fill="#6c4b40" fill-opacity="0.09" stroke="#6c4b40" stroke-width="0.5" stroke-opacity="0.09" d="M 249.27,30.73 c -0.59,0.79 -1.02,1.63 -1.3,2.55 c -0.71,-0.08 -0.96,0.24 -0.73,0.96 c -0.51,0.7 -1.16,1.19 -1.94,1.47 c -0.25,-0.78 -0.25,-1.57 0,-2.35 c 0.83,-1.6 2.15,-2.48 3.97,-2.63 Z"/></g>
<g><path fill="#655549" fill-opacity="0.082" stroke="#655549" stroke-width="0.5" stroke-opacity="0.082" d="M 266.71,61.32 c 0.19,0.83 0.2,1.66 0.03,2.49 c -0.81,0.46 -4.15,3.36 -4,0.84 c 0.97,-0.78 2.41,-4.23 3.97,-3.33 Z"/></g>
<g><path fill="#625449" fill-opacity="0.161" stroke="#625449" stroke-width="0.5" stroke-opacity="0.161" d="M 248.15,145.21 c -0.84,-0.15 -1.14,0.2 -0.9,1.05 c -0.79,-0.15 -1.14,0.18 -1.04,0.98 c -0.22,0.35 -0.53,0.54 -0.93,0.57 c -0.12,-1.19 -0.1,-2.38 0.06,-3.56 c 0.97,-0.27 2.71,-1.97 3.58,-0.91 c -0.58,0.51 -0.84,1.13 -0.77,1.87 Z"/></g>
<g><path fill="#573f2c" fill-opacity="0.165" stroke="#573f2c" stroke-width="0.5" stroke-opacity="0.165" d="M 232.64,189.12 c 0.11,0.88 0.12,1.76 0.03,2.65 c -1.1,0.7 -2.29,1.2 -3.57,1.49 c -0.05,-0.43 -0.1,-0.86 -0.15,-1.28 c 1.64,0.09 2.11,-3.06 3.69,-2.86 Z"/></g>
<g><path fill="#543736" fill-opacity="0.322" stroke="#543736" stroke-width="0.5" stroke-opacity="0.322" d="M 346.97,83.04 c 1.39,-0.05 2.74,0.13 4.06,0.55 c -0.86,0.54 -1.78,0.94 -2.76,1.2 c -0.38,-0.62 -0.82,-1.2 -1.3,-1.75 Z"/></g>
<g><path fill="#594941" fill-opacity="0.188" stroke="#594941" stroke-width="0.5" stroke-opacity="0.188" d="M 266.7,25.16 c 0.21,1.22 0.24,2.45 0.08,3.67 c -0.21,0.15 -0.42,0.29 -0.62,0.44 c 0.04,-0.84 0.29,-2.55 -1.04,-2.5 c 0.29,-0.79 0.82,-1.33 1.58,-1.61 Z"/></g>
<g><path fill="#53453b" fill-opacity="0.369" stroke="#53453b" stroke-width="0.5" stroke-opacity="0.369" d="M 266.79,137.1 c 0.02,1.22 0.05,2.44 0.1,3.65 c -0.3,0.1 -0.59,0.2 -0.88,0.3 c -0.04,-0.59 -0.14,-1.18 -0.3,-1.75 c -0.03,-0.95 0.33,-1.68 1.08,-2.2 Z"/></g>
<g><path fill="#7f4744" fill-opacity="0.529" stroke="#7f4744" stroke-width="0.5" stroke-opacity="0.529" d="M 308.95,363.37 c 0.19,0.48 0.55,0.78 1.06,0.89 c -0.57,0.53 -1.15,1.05 -1.73,1.57 c 0.03,-0.51 -0.42,-2.76 0.67,-2.46 Z"/></g>
<g><path fill="#35302d" fill-opacity="0.329" stroke="#35302d" stroke-width="0.5" stroke-opacity="0.329" d="M 266.79,118.13 c 0.28,1.24 0.25,2.46 -0.09,3.67 c -0.22,0.31 -0.44,0.62 -0.67,0.93 c -0.06,-1.3 -0.14,-2.61 -0.23,-3.91 c 0.22,-0.4 0.55,-0.63 0.99,-0.69 Z"/></g>
<g><path fill="#272727" fill-opacity="0.239" stroke="#272727" stroke-width="0.5" stroke-opacity="0.239" d="M 266.83,156.08 c 0.12,0.92 0.16,1.84 0.13,2.77 c -0.3,0.25 -0.61,0.51 -0.91,0.77 c 0,-1.05 -0.16,-2.08 -0.48,-3.08 c 0.36,-0.32 0.78,-0.47 1.26,-0.46 Z"/></g>
<g><path fill="#633d39" fill-opacity="0.196" stroke="#633d39" stroke-width="0.5" stroke-opacity="0.196" d="M 42.43,253.22 c 0.64,0.34 1.19,0.78 1.66,1.32 c -0.59,0.37 -1.23,0.47 -1.92,0.28 c -0.15,-0.61 -0.06,-1.14 0.26,-1.6 Z"/></g>
<g><path fill="#673e3b" fill-opacity="0.357" stroke="#673e3b" stroke-width="0.5" stroke-opacity="0.357" d="M 194.06,305.16 c 0.71,0.44 0.9,1.09 0.57,1.92 c -0.51,-0.55 -1.05,-1.08 -1.61,-1.58 c 0.35,-0.11 0.69,-0.23 1.04,-0.34 Z"/></g>
<g><path fill="#653d3b" fill-opacity="0.282" stroke="#653d3b" stroke-width="0.5" stroke-opacity="0.282" d="M 315.4,327.21 c 0.57,0.39 1.12,0.8 1.65,1.24 c -0.57,0.44 -1.2,0.55 -1.89,0.35 c -0.15,-0.61 -0.07,-1.14 0.24,-1.59 Z"/></g>
<g><path fill="#262626" fill-opacity="0.4" d="M 301.14,182.14 c 0.34,0.14 0.64,0.36 0.89,0.64 c -0.66,0.22 -0.96,0.01 -0.89,-0.64 Z M 49.73,231.87 c 0.25,0.71 0.01,1.03 -0.7,0.96 c 0.12,-0.41 0.35,-0.72 0.7,-0.96 Z"/></g>
<g><path fill="#784542" fill-opacity="0.624" stroke="#784542" stroke-width="0.5" stroke-opacity="0.624" d="M 442.07,494.27 c 0.9,-0.42 1.48,-0.18 1.76,0.72 c -0.69,0 -1.27,-0.24 -1.76,-0.72 Z"/></g>
<g><path fill="#5d3b39" fill-opacity="0.522" stroke="#5d3b39" stroke-width="0.5" stroke-opacity="0.522" d="M 334.08,448.22 c 0.21,-0.34 0.42,-0.68 0.63,-1.02 c 0.47,0.33 0.94,0.66 1.41,0.99 c -0.04,0.28 -0.08,0.55 -0.12,0.83 c -0.78,0.05 -1.42,-0.22 -1.92,-0.8 Z"/></g>
<g><path fill="#57463b" fill-opacity="0.384" stroke="#57463b" stroke-width="0.5" stroke-opacity="0.384" d="M 231.92,173.36 c -0.47,0.53 -1.04,0.67 -1.71,0.43 c -0.06,-0.75 1.33,-0.38 1.71,-0.43 Z"/></g>
<g><path fill="#272727" fill-opacity="0.18" stroke="#272727" stroke-width="0.5" stroke-opacity="0.18" d="M 266.83,44.16 c -0.01,0.25 -0.01,0.51 -0.02,0.76 c -1.01,-0.28 -1,-0.53 0.02,-0.76 Z M 118.09,472.35 c -0.21,0.31 -0.49,0.52 -0.85,0.64 c -0.11,-0.72 0.17,-0.93 0.85,-0.64 Z"/></g>
<g><path fill="#7c4644" fill-opacity="0.573" d="M 59,208.27 c -0.22,0.34 -0.46,0.68 -0.7,1.01 c 0,-0.51 0.24,-0.84 0.7,-1.01 Z"/></g>
<g><path fill="#614f42" fill-opacity="0.38" stroke="#614f42" stroke-width="0.5" stroke-opacity="0.38" d="M 266.64,102.12 c 0,0.22 -0.01,0.43 -0.01,0.65 c -0.69,-0.1 -0.68,-0.31 0.01,-0.65 Z"/></g>
<g><path fill="#854745" fill-opacity="0.49" d="M 139.14,81.22 c -0.22,0.47 -0.58,0.76 -1.08,0.89 c 0.02,-0.72 0.38,-1.01 1.08,-0.89 Z"/></g>
<g><path fill="#292929" fill-opacity="0.122" stroke="#292929" stroke-width="0.5" stroke-opacity="0.122" d="M 116.07,473.31 c -0.18,0.34 -0.45,0.58 -0.82,0.7 c -0.11,-0.67 0.16,-0.9 0.82,-0.7 Z"/></g>
<g><path fill="#633d3b" fill-opacity="0.392" d="M 137.2,82.1 c -0.27,0.57 -0.72,0.92 -1.34,1.07 c 0.16,-0.72 0.61,-1.08 1.34,-1.07 Z"/></g>
<g><path fill="#232323" fill-opacity="0.086" stroke="#232323" stroke-width="0.5" stroke-opacity="0.086" d="M 112.98,474 c 0.38,0.12 0.76,0.23 1.14,0.35 c -0.29,0.39 -0.64,0.71 -1.04,0.99 c -0.03,-0.45 -0.06,-0.89 -0.1,-1.34 Z"/></g>
<g><path fill="#643737" fill-opacity="0.09" stroke="#643737" stroke-width="0.5" stroke-opacity="0.09" d="M 112.06,474.8 c -0.01,0.27 -0.02,0.54 -0.02,0.81 c -0.31,0.06 -0.61,0.13 -0.91,0.19 c 0.1,-0.52 0.41,-0.85 0.93,-1 Z"/></g>
<g><path fill="#312a27" fill-opacity="0.408" stroke="#312a27" stroke-width="0.5" stroke-opacity="0.408" d="M 105.07,479.42 c -0.26,0.2 -0.51,0.39 -0.76,0.59 c -0.08,-0.6 0.17,-0.79 0.76,-0.59 Z"/></g>
<g><path fill="#463232" fill-opacity="0.459" stroke="#463232" stroke-width="0.5" stroke-opacity="0.459" d="M 103,480.23 c -0.19,0.24 -0.41,0.42 -0.68,0.56 c -0.04,-0.46 0.18,-0.65 0.68,-0.56 Z"/></g>
</svg>
