<svg xmlns="http://www.w3.org/2000/svg" style="shape-rendering:geometricPrecision;text-rendering:geometricPrecision;image-rendering:optimizeQuality;fill-rule:evenodd;clip-rule:evenodd" viewBox="0 0 512 512"><path fill="#e56e67" fill-opacity=".4" stroke="#e56e67" stroke-opacity=".4" stroke-width=".5" d="M158.2 115.8c-.4 1-2 2.7-3.1 1.8a3 3 0 0 1 3-1.8ZM102 129.1c.2-1 1.8-2.6 2.8-1.7q-.7 2-2.8 1.7Zm281.1 35.8c-.5.8-2 2.7-3 1.7a3 3 0 0 1 3-1.7Zm15.9 5.8c-.3 1-2 3.2-3 2 .2-1.2 2-1.5 3-2Zm-326.3 5.5c-.2-1.3 3.9-3.2 4.8-3.3 1.2 1-3.8 3.5-4.8 3.3Zm67.3 23.6c-.8 1.2-3.8 4.2-5.1 2.9 1.3-1.3 3.1-2.8 5.1-2.9ZM101 215c-1 1-1.4 2.4-3.2 2.1q1-2 3.1-2Zm78.8 7.9c.1.9-1.2 1.8-1.8.9q.6-1 1.8-.9Zm248.3 11.9c-.1.9-1.4 2-2 1q.6-1 2-1Zm-292 30.2c-.1.8-1.4 1.6-2 .7a2 2 0 0 1 2-.7Zm-85.2 7q-.6 2.1-3 2 1-1.7 3-2Zm102 14q0-.9 1-.6-.4.6-1 .6ZM39 303c-.4 1-4.4 4-5 2.7 1-1.4 3.2-2.8 5-2.7Zm155.8 5.8v1.2l-1.1-.3zM366 343q-1 2-3.2 2.2 1-2 3.2-2.2Zm47.2 11.8c-.6 1.1-4.2 4.3-5.2 2.9a9 9 0 0 1 5.2-2.9Z"/><path fill="#984743" fill-opacity=".1" stroke="#984743" stroke-opacity=".1" stroke-width=".5" d="M144.7 275.2q.8.6 1 1.6c-2.1.5-4.4 2.7-6.6 3.8q-1 .5-2 .2 1-1.9 3.1-2.3 2-2.1 4.5-3.3Zm-3 91.2q.8.5 1 1.3l-6.7 3.9q-.9.5-1.8.2.2-.7.7-1.3a53 53 0 0 1 6.8-4.1Zm41 40q.8.4 1 1.4l-2 .6a21 21 0 0 1-6.8 4c-1 1-3.1 2.7-4.7 2.4q0-.8.7-1.2 5.3-3.3 10.5-6.8.5-.6 1.2-.4Z"/><path fill="#e56e67" fill-opacity=".3" stroke="#e56e67" stroke-opacity=".3" stroke-width=".5" d="M422.1 205.9q-1 1.9-3.1 2.1a3 3 0 0 1 3.1-2.1Zm-242.2 17a3 3 0 0 1 2.7-1.9c1.4 1-1.9 2.1-2.7 1.9Zm-5 82.1c-.8 1.5-3.2 3.3-5 2.9a8 8 0 0 1 5-2.9Zm-57.8 20.8c-.7 1-3.9 4.3-5 3a8 8 0 0 1 5-3Zm31 87a7 7 0 0 1-5.1 3.1c.6-1.4 3.5-3 5-3ZM459.2 424c-.5.8-2.1 2.8-3 1.7a3 3 0 0 1 3-1.7ZM168 432q-.6 1.4-2 1.2.5-1.3 2-1.2Zm-152.7 1.2.7-.1q-.3.8-1.1 1.2zM449 460a3 3 0 0 1 2.6-2.1c1.2 1.2-1.9 2-2.6 2Z"/><path fill="#e66c67" fill-opacity=".3" stroke="#e66c67" stroke-opacity=".3" stroke-width=".5" d="M102 129c-.6 1-2.6 4-4 2.3-.2-1.4 3-2.2 4-2.2Zm-18 81c-1 1.7-3.3 2.8-5.2 3.2 1.1-1.7 2.9-3.6 5.2-3.2ZM47 344q-1 2-3.2 2.2a3 3 0 0 1 3.1-2.2Zm30 72q-1 1.6-3 2.7l-5 3-1-.6q2.5-2.3 5.7-3.8 1.5-1 3.4-1.4Zm365 66q.6-1.9 2.6-2.1c1.2 1.1-2 2-2.6 2.1Z"/><path fill="#e56f68" fill-opacity=".3" stroke="#e56f68" stroke-opacity=".3" stroke-width=".5" d="M157 157q-.1.7-1 .4.4-.5 1-.4Zm-18 105.8a3 3 0 0 1-3 2.2q.8-2 3-2.3ZM21 358h1q-.1 1-1.3 1zm113.2 13.8a7 7 0 0 1-5.1 3.2c.3-1.5 3.6-3.1 5-3.2ZM81 396c-.3 1.7-6.5 4.8-8 6q-.4-.6-1.1-.8c2.7-2 5.7-4.4 9.1-5.2Zm310 1.2q-1 1.9-3 2.1.7-2.1 3-2.1Z"/><path fill="#e56e67" fill-opacity=".4" stroke="#e56e67" stroke-opacity=".4" stroke-width=".5" d="m363.2 87 1 .1q-.4.7-1.5 1zm-37 170 .9.2q-.6.6-1.3.9zM156 284q-1 1.2 0 0Zm169 21c-.5.6-2.2 3.1-3 1.7a4 4 0 0 1 3-1.8Zm157 59c.6-1.4 3.1-3 4.5-3 1.3 1.2-3.5 3-4.5 3Zm-3.1 2q.1-.9 1-.6-.4.6-1 .7ZM167 417c.2 1.1-1.3 1-2 1q.6-1.3 2-1Zm323.8 39.4a4 4 0 0 1 2.8-2.4c1.7 1-2 2.1-2.8 2.4Zm-390 9.7q.7-1.9 2.8-2.1c1 1-2 2.1-2.8 2.1Z"/><path fill="#ce635e" fill-opacity=".2" stroke="#ce635e" stroke-opacity=".2" stroke-width=".5" d="M148.7 379.2q.2 1.3 1.4 1.3l-12.8 7.3H136q.6-.9 1.7-1.5z"/><path fill="#dc6a64" fill-opacity=".3" stroke="#dc6a64" stroke-opacity=".3" stroke-width=".5" d="M66.3 301q-.4-1-1.4-1.4l12.8-7.5q.8-.3 1.2.3z"/><path fill="#d06660" fill-opacity=".9" d="M156.4 75q-5.3 1.5-10.5 3.4-1 .5-2.3.3l2-1.7q3.1-1.4 6.1-3c1.1-.1 4.2-.4 4.7 1m-12.8 3.7c.5 1-1 1.1-1.7 1.1-.2-.7 1.3-.9 1.7-1.1"/><path fill="#e56e67" fill-opacity=".5" stroke="#e56e67" stroke-opacity=".5" stroke-width=".5" d="m312.6 88.8.7 2.2q-.3.8-1 1.3c-.2-.8-.7-3 .2-3.5Zm97 43.3q.9-2 2.9-1.4c-.3 1.3-2 1.2-2.9 1.4Zm-308.6 83q.3-1.4 1.5-1.2c1.3.8-.9 1.3-1.5 1.1Zm258.8 7q.6-1.2 1.8-2 2.4 0 .4 1.2zM152 393.9c0 .8-1.2 1.8-1.8.8a2 2 0 0 1 1.8-.8ZM80 414q.5-1 1.5-1c1.2.6-1 1.2-1.5 1Zm85 4c-.4 1-2 2.7-3 1.6.2-1.3 1.9-1.4 3-1.7Z"/><path fill="#d96660" fill-opacity=".2" stroke="#d96660" stroke-opacity=".2" stroke-width=".5" d="M168.8 275.1q.3.9 1.3 1.3l-9.7 5.5H159q.5-.8 1.1-1.1z"/><path fill="#d76661" fill-opacity=".2" stroke="#d76661" stroke-opacity=".2" stroke-width=".5" d="M155.8 330.1q.3 1 1.3 1.3l-9 5.2a4 4 0 0 1-2 .3q.2-.8.9-1.1z"/><path fill="#e56b67" fill-opacity=".2" stroke="#e56b67" stroke-opacity=".2" stroke-width=".5" d="M345 442a31 31 0 0 1-8.9 6.2l-1.4-1 8.3-4.6q1-.6 2-.7Z"/><path fill="#b65950" fill-opacity=".1" stroke="#b65950" stroke-opacity=".1" stroke-width=".5" d="M178.6 424.2q0 1 1.1 1.4c-1.7 1.1-6.7 4.6-8.7 4.3q.1-.9 1-1.3z"/><path fill="#b85752" fill-opacity=".2" stroke="#b85752" stroke-opacity=".2" stroke-width=".5" d="M78.9 213.2c-.6 1.6-6 4.5-7.6 5.6q0-1-1-1.4l6.7-4q.9-.5 1.8-.2Z"/><path fill="#bf554f" fill-opacity=".2" stroke="#bf554f" stroke-opacity=".2" stroke-width=".5" d="M195.5 105q0 .9.4 1.8c-1.6 1.3-6 4.4-7.8 4l.9-1.2a76 76 0 0 0 6.5-4.6Z"/><path fill="#c76157" fill-opacity=".1" stroke="#c76157" stroke-opacity=".1" stroke-width=".5" d="M155.7 407.2q.2 1.2 1.4 1.3a72 72 0 0 0-7.1 4q-.8.5-2 .4c1-2 5.8-4.5 7.7-5.7Z"/><path fill="#e6665f" fill-opacity=".2" stroke="#e6665f" stroke-opacity=".2" stroke-width=".5" d="M321.9 356c-.6 1.6-6.4 5.2-8 5.3h-.9q.3-1 1.3-1.5c2.1-.8 5.5-3.8 7.6-3.8Z"/><path fill="#e86c65" fill-opacity=".3" stroke="#e86c65" stroke-opacity=".3" stroke-width=".5" d="M77 465c-.3 1.5-6.6 5-8.2 5.3l-.8-.2c2.5-2.2 5.7-4.3 9-5.2Z"/><path fill="#ce655f" fill-opacity=".8" d="M502.9 482.7c.5 3.1-1 5.7-4.2 6.1.9-1.5 2.8-5.3 4.2-6.1m-4.2 6.1q0 1-1 1z"/><path fill="#b75a55" fill-opacity=".1" stroke="#b75a55" stroke-opacity=".1" stroke-width=".5" d="M71.9 401.1q.7.1 1.1.9-2.2 1.5-4.6 2.7-.2-1-1.2-1.2 2.1-1.5 4.7-2.4Z"/><path fill="#b05351" fill-opacity=".1" stroke="#b05351" stroke-opacity=".1" stroke-width=".5" d="m68 421.1 1 .6-4.6 3.1q-.1-1-1.2-1.3 2.2-1.5 4.8-2.4Z"/><path fill="#b0574e" fill-opacity=".1" stroke="#b0574e" stroke-opacity=".1" stroke-width=".5" d="m68 470 .8.3c0 1-3.4 3-4.5 3.3q-.2-1-1.4-1 2.4-1.7 5.1-2.5Z"/><path fill="none" d="m265.8 118.8.2 4-2.6 1.3q-1.8-.3-.6-1.8z"/><path fill="#dc996b" fill-opacity=".2" d="M207.4 200.1q.1-1.7-1.5-1.7c1.2-.2 4-3.1 5-2q-1.5 2-3.5 3.7"/><path fill="#e76965" fill-opacity=".2" stroke="#e76965" stroke-opacity=".2" stroke-width=".5" d="M329 382c-.7 1.7-3.3 2.8-4.8 3.9l-.2-1.2q2-2.2 5-2.7Z"/><path fill="#795c49" fill-opacity=".1" stroke="#795c49" stroke-opacity=".1" stroke-width=".5" d="M248.7 180.1c.4 1-1.7 2.3-2 3.2q-.6.7-1.4.4v-2.6a6 6 0 0 1 3.4-1Z"/><path fill="#bf8e6a" fill-opacity=".1" d="M265.6 156.5q.4 1.5.4 3.1-1.5 1-3.4 1.4c-.9-1 2.5-3.5 3-4.5"/><path fill="#a85752" fill-opacity=".7" d="M125.3 89q-.4.9-1.4.9.3-1 1.4-1m-1.5.9a1 1 0 0 1-1 .8q.3-.7 1-.8m-1 .8q-.5 1.6-2 1zm-2 1q0 2.3-2.3 2.1.6-1.6 2.2-2.1"/><path fill="#a45047" fill-opacity=".1" stroke="#a45047" stroke-opacity=".1" stroke-width=".5" d="M313 361.3h.8c.2 1-3 2.3-3.8 3q-.8-.3-1-1 1.3-.5 2.2-1.8.9-.5 1.8-.2Z"/><path fill="#a75752" fill-opacity=".9" d="m440.7 501.3 5.7 1 .7.4c-3 1.3-4.1.6-6.4-1.4"/><path fill="#a25551" fill-opacity=".8" d="M339 74c-.2 1-3.9 1.7-5 1.7v-.5l1.6-1q1.7-.3 3.4-.2"/><path fill="#c05c56" fill-opacity=".2" stroke="#c05c56" stroke-opacity=".2" stroke-width=".5" d="M441.9 482.2q-.8 1.8-2.6 2.5-.3-1.1-1.4-1.2 1.8-1.4 4-1.4Z"/><path fill="#a95752" fill-opacity=".8" d="M27.8 503.5c1.4-.1 4.5.2 5.2 1.4q-3 .9-5.2-1.4"/><path fill="#c9625c" fill-opacity=".7" d="M203.1 439.8q-.4 2.6-3 3.5a6 6 0 0 1 3-3.5"/><path fill="none" d="m265.7 139.3.3 1.8c-3.4 2-4 .6-1-1.7q.3-.4.7-.1"/><path fill="#fbb07b" fill-opacity=".3" d="m229 192 .1 1.3a3 3 0 0 1-2.6 1.8c-.9-1 1.8-2.5 2.4-3.1"/><path fill="#e56e67" fill-opacity=".4" stroke="#e56e67" stroke-opacity=".4" stroke-width=".5" d="m314.1 114.1 1.1.2q-.6.5-1.4.7zm94.6 303a3 3 0 0 1 2.8-2c1.4 1-2.2 2-2.8 2Z"/><path fill="#e46e65" fill-opacity=".3" stroke="#e46e65" stroke-opacity=".3" stroke-width=".5" d="M366.8 76.2q1.2 0 1.1 1.1l-1-.4zM162 169q-.7 2-3 2 .8-2 3-2Z"/><path fill="#ffc191" fill-opacity=".3" d="m261.9 31 1.4.2c-.9 0-2.5 2.1-3.2 1.2q.4-1.2 1.8-1.3"/><path fill="#cd9268" fill-opacity=".9" d="M208.3 182q-.9 2-2.3 3.4c.1-1.9-.5-4 2.3-3.4"/><path fill="#a45551" fill-opacity=".7" d="m322.3 82.1-1 1q-.2-1 1-1m-1 1q-.8.6-1.7.4zm-1.7.4q0 1-.9 1.2h-.8z"/><path fill="#b35b56" fill-opacity=".7" d="M155.3 82.2a9 9 0 0 1-2.4 1.7l.3-1q.8-1.1 2.1-.7"/><path fill="#fdbc8e" fill-opacity=".5" d="m236 12.9.3.9q0 1.3-.4 2.5c-1.3-.7-1.3-3.5.2-3.5"/><path fill="#ffbc8e" fill-opacity=".3" d="M263.9 27.7q-.1 1-1.2 1.1zm-16 5.6-.7 1q-.3-1.2.8-1m-.7 113-1 1q0-1.3 1-1"/><path fill="#9d524f" fill-opacity=".9" d="M363.8 76.2q1.5-.3 3 0l.1.7a4 4 0 0 1-3.1-.7"/><path fill="#85644c" fill-opacity=".4" stroke="#85644c" stroke-opacity=".4" stroke-width=".5" d="M230.9 203.3q-.6.8-1.7.6.5-1.1 1.7-.7Z"/><path fill="#f9ae7a" stroke="#f9ae7a" stroke-width=".5" d="M232 173.4q.9 0 .7 1.1v14.6c-1.6-.2-2.1 3-3.8 2.9-.6.6-3.3 2-2.5 3a3 3 0 0 0 2.7-1.7q2-.5 3.6-1.5v10.6a3 3 0 0 1-1.8.8q-1.2-.3-1.7.7-13.2 5.2-26.6 9.7-.5-.5-.3-1l1.5-10.6h1.4l1-.7 1.2-1.2q2-1.7 3.5-3.7c-1-1.1-3.8 1.8-5 2q-.7 1-1.9 1.6l1.8-12c3.2-.3 17.3-9.6 21.2-11.6q.8-.4.6-1.2 1-1.2 2.6-1.4 1 .3 1.7-.4Zm69 8.6q0 1 1 .7c.9.4 3.4.6 3.7 1.7l3.8 26.4c0 2-3 .1-4-.2l.7-.6.5-.8q0-1.5-1-.4-1 .6-1 1.8l-11.7-4.4q-1-.3-1-1.4l6.5-9.6a1 1 0 0 0-.9 0q-5.2 3.3-10.7 6.4-.8.5-.8 1.5c-1.3-.3-6.7-1.2-6.8-2.9l-.2-23.7q0-2.2 2.1-1.5zm-14.3-4.3q0 .8.7 1c1-.5-.2-.9-.7-1Zm37.5 14.2q1 2.2 1 4.7L321 200q-.2-2.5-.7-5 1-2.9 4-3Zm2.7 16c-.1.8-.5 3.2 1 3q-2 1.2-4 2.8c-1.5.9-1-3.3-.7-4q1.8-1 3.7-1.8Z"/><path fill="#aaa31e" fill-opacity=".1" stroke="#aaa31e" stroke-opacity=".1" stroke-width=".5" d="m305.8 209 .5 1-.7.7h-.7q0-1.2.9-1.8Z"/><path fill="#fab07a" fill-opacity=".3" d="m306.4 210-.6-1q1-1.3 1 .3z"/><path fill="#864b47" fill-opacity=".4" stroke="#864b47" stroke-opacity=".4" stroke-width=".5" d="M113 474v1.3l-1 .3v-.8q.3-.6 1-.8Z"/><path fill="#e67066" fill-opacity=".2" d="M216 410.7c1 .4 1.5 2.3 0 2.4z"/><path fill="#ffbc90" fill-opacity=".4" d="M237.3 11q-.4.8-1.2 1.2 0-1.1 1.2-1.2"/><path fill="#ffba8f" fill-opacity=".2" d="m248.2 68.3-1 1q0-1 1-1"/><path fill="#e66d69" fill-opacity=".2" stroke="#e66d69" stroke-opacity=".2" stroke-width=".5" d="m489.1 348-.2 1h-.9q.3-.8 1.1-1Z"/><path fill="#ffb478" fill-opacity=".1" stroke="#ffb478" stroke-opacity=".1" stroke-width=".5" d="M286.8 177.8c.5.1 1.6.5.7 1q-.7-.2-.7-1Z"/><path fill="#9f5450" fill-opacity=".3" stroke="#9f5450" stroke-opacity=".3" stroke-width=".5" d="M334 75.2v.5l-1 .3q0-.8 1-.8Z"/><path fill="#fbae7a" fill-opacity=".3" d="m207.4 200.1-1.2 1.2q.2-1 1.2-1.2"/><path fill="#ffb98c" fill-opacity=".2" d="m266.2 29.3-1 .8q0-.8 1-.8"/><path fill="#f9b07a" fill-opacity=".4" d="m206.2 201.3-1 .7q0-1.1 1-.7"/><path fill="#d16762" fill-opacity=".4" stroke="#d16762" stroke-opacity=".4" stroke-width=".5" d="M216 413.8q0 1-1.1 1.2.2-.9 1-1.2Z"/><path fill="#ffbb8f" fill-opacity=".4" d="M262.7 28.9q0 .8-.7.9z"/><path fill="#8e4e4b" fill-opacity=".5" d="M368 77.4q.8 0 .8.7-.3-.4-.9-.7"/><path fill="#9d514e" fill-opacity=".6" d="M141.2 80.3q-.7.5-1.5.7.5-.8 1.5-.8"/><path fill="#854b47" fill-opacity=".7" d="M195.7 167.9q.2.8-.6.8 0-.6.6-.8"/><path fill="#ffbc90" fill-opacity=".2" d="M265.1 26.8q-.3.9-1.2 1z"/><path fill="#ffbd8f" fill-opacity=".4" d="m248.2 145.2-1 1q-.3-1.2 1-1"/><path fill="#dc6964" fill-opacity=".2" stroke="#dc6964" stroke-opacity=".2" stroke-width=".5" d="M51.3 228h.5a1 1 0 0 1-.9.9z"/><path fill="#c2625b" fill-opacity=".4" d="M188.8 264.7v1h-1q.3-.6 1-1"/><path fill="#ffbb90" fill-opacity=".3" d="m249.3 67.2-1 1.1q-.5-1.4 1-1.1"/><path fill="#e56e67" stroke="#e56e67" stroke-width=".5" d="M168 80.4q5.8.9 11.2 3.7c-2.6 2.5-21.6 15-22 16.8q-2 0-3.1 1.8c1 1.1 2.6-1 3.1-1.8q.9 0 1.8-.4l23.8-13.8q4.5 2.7 7.5 7.1c-2.8-.2-27 17.8-31.4 20.7q-.8.4-.7 1.3-2 0-3.1 1.8c1 .9 2.7-.8 3-1.8A390 390 0 0 0 192 96.6q2.3 3.9 3.5 8.4a76 76 0 0 1-6.5 4.6l-.9 1.3q-2.3 0-3 2.2-1.5-.4-2 .9c-1 .2-2.8.4-3 1.7 1 1.1 2.4-.9 3-1.7q1.3.3 2-1 2.1 0 3-2.1c1.9.3 6.3-2.8 7.8-4a72 72 0 0 1 2.7 22.4q-.7-.5-1.6 0-17.2 12-34.7 23.4a5 5 0 0 0-2.2 2.1q-2.2.3-3.2 2.2-.5-.1-.8.4.8.3.8-.4a3 3 0 0 0 3.2-2.2l2-.1q17.4-10.3 34.9-20.4l1.7-1.6q.4 6.1-.5 12.3c-3.5.8-29.4 19.2-33.7 22.2q-1.8.2-2.4 1.7-2.2 0-3 2l-.8.6q.6 0 .7-.5 2.4 0 3-2.1l2-.2 34-20-1.2 12.6q-1.3-.3-2.3.7L141 198.4q-.9.5-.9 1.4c-2 .1-3.8 1.6-5.1 2.9 1.3 1.3 4.3-1.7 5.1-2.9q1.7-.3 3.2-1.2l51.8-30a241 241 0 0 0-8.4 62.7q-1-.3-1.7.2L139.5 262a1 1 0 0 0-.4.8q-2.2 0-3 2.2a2 2 0 0 0-2 .7c.6 1 1.9.1 2-.7q2.3-.1 3-2.3c2.4.4 2.8-.5 4.5-1.7l41-23.7q1.3-.7 2.3-1.7.3 5.9 0 11.6-.8 0-1.6.5l-45.1 30.8q-2.2.4-3.1 2.3c-2 .3-4.1 1.4-5 3.1q-2 .2-3.1 1.8c1 1 2.6-.8 3-1.8q3.5 0 5-3.1 1.2.3 2-.2c2.3-1 4.5-3.3 6.7-3.8q20-11.8 40.3-23.4l1.7-1.7q.3 5.7 1 11.4c-2.2-.7-16.7 10.9-20 12l-8.7 5.7q-.7.4-1 1-2.1.4-3 2.2-1 1.2 0 0 2.2 0 3-2.1h1.4l9.7-5.5 17.6-10.7h1q.8 5.1 1.4 10.3-1.2 0-2.2.5-34.5 24-69.4 47.6-1 .6-1.4 1.7c-2 .2-3.9 1.5-5 3 1.1 1.3 4.3-2 5-3a6 6 0 0 0 2.5-.8l71.4-41.2q1.3 5.1 1.3 10.4-1.2-.2-2.3.5l-9 5.8a2 2 0 0 0-.8 1.4c-1.7 0-4.8 1.5-5.2 3.1-1.8 0-4 1.5-5 2.9q-2.1.2-3 2.1a2 2 0 0 0-1.9.7c.6.9 1.8.1 2-.7q2 0 2.9-2.1c1.7.4 4.1-1.4 5-2.9a7 7 0 0 0 5.2-3q1.3-.1 2.5-.7a64 64 0 0 1 10.1-5.6q1.3 4.5 1.3 9.5-.6 0-1 .3L147 335.8q-.7.3-1 1.1-2.2.2-3 2.1-1.2-.2-1.8.7c.5.9 1.7.1 1.8-.7q2.1 0 3-2a4 4 0 0 0 2-.4l9-5.2q17.2-10.2 34.7-20.1 1.2-.6 2-1.6l1.2.3q2.3 9.4 3.2 19.2-1.2-.1-2 .5a4447 4447 0 0 0-54.4 36.7 53 53 0 0 0-6.8 4.1q-.5.6-.7 1.3c-1.6 0-4.8 1.7-5.1 3.3a3 3 0 0 0-3 1.6c1 .9 2.5-.8 3-1.6a7 7 0 0 0 5-3.3q1 .3 2-.2l6.6-3.9 56.6-32.8 1.7 10.2q-1 0-2 .6l-50.3 33.5q-5.4 3.7-11 7-1 .7-1.7 1.7-1.1 0-2.2.5-2 1.7.6 1.2 1.1-.6 1.6-1.7h1.3l12.8-7.4q.6-.8 1.4-1.3 25-13.8 49.5-28.5 1 .6 1.1 1.7 1 4.3 1.1 8.5-1.2 0-2.3.6L160.4 388q-.3.3-.4.8c-1.5.2-4.5 1.8-5 3.2q-2.1 0-3 2a2 2 0 0 0-1.8.7c.6 1 1.8 0 1.8-.8a3 3 0 0 0 3-2c2.3.5 4-1.2 5-3l2-.2 40.7-24q1.2.5 1.3 1.7.6 4.5.8 8.9a2 2 0 0 0-1.8.3l-47.3 31.6c-2 1.2-6.7 3.8-7.6 5.7-1.6 0-4.5 1.6-5.1 3l-2.1.6q-2 1.6.4 1.2 1.3-.5 1.7-1.8a7 7 0 0 0 5-3q1.2.1 2-.4a72 72 0 0 1 7.1-4q.7-.8 1.5-1.3 23.3-13 46.4-26.5 1 5.2.7 10.5-10.5 6.5-20.8 13.3c-.9.9-.8 1.9-2.3 1.9q-.7-.1-1.2.4l-10.5 6.8q-.6.5-.7 1.2-2.3 0-3.2 2.1-1.4 0-2 1c-1.1.3-2.8.4-3 1.8 1 1 2.6-.7 3-1.7.7 0 2.1.1 2-1q2.2-.1 3.2-2.2c1.6.3 3.7-1.3 4.7-2.4a21 21 0 0 0 6.9-4l1.9-.6 22-13q0 6.3-1 12.5a2 2 0 0 0-1.7.3l-31 21a2 2 0 0 0-1 1.3 3 3 0 0 0-3 2q-1.5 0-2 1.2a4 4 0 0 0-3 1.5c1 1.3 2.7-.4 3-1.5q1.4.2 2-1.2a3 3 0 0 0 3-2c2 .3 7-3.2 8.7-4.3l24.3-13.9c-4 26.3-17.8 39.8-43.2 46 2.7-4.8 16.3-16.5 20.7-21.6q.3-1-.8-1a4696 4696 0 0 0-56 32.2l-.5 1q-2.5.5-4.6 1.8-.9.7-.3 1.6l-1.2.7q-1-.5-.9.6-.6 0-1.1.3-1-.3-.9.7l-1 .4-1.2-.4q-.6.2-1 .8-.7.3-.9 1c-2 1-4.4 2-6 3.6q-1-.3-.8.6l-1.3.2q-.7 0-.7.6c-15.8 7.1-30.2 14.5-47.7 17l44-29.6a7 7 0 0 0 2.2-2c.7 0 3.8-1.2 2.8-2.2q-2 .2-2.8 2.1c-3 .2-9.5 5-12.4 6.8Q67.5 484.5 47 496.5q-1.6.9-2.8 2.2a32 32 0 0 1-13.6-2.9 1374 1374 0 0 0 33.7-22.2c1.1-.3 4.4-2.2 4.5-3.3 1.6-.4 7.9-3.8 8.2-5.4 1 .4 4.2-.7 2.6-1.9q-1.7.3-2.6 2c-3.3.8-6.5 2.9-9 5q-2.7 1-5 2.6-.7.7-1.6 1.2-17.3 9.4-34.2 19.6a13 13 0 0 1-6.4-7.2q1.2-.3 2.2-.9c19.9-13 40.7-27.5 60.7-40.2a1 1 0 0 0 0-1c1 0 6.2-2 4.9-3.2-1.4 0-4 2-4.9 3.2-20.8 11-43 24.7-63.8 36.4l-1.6 1.8a37 37 0 0 1-3-10.4 5 5 0 0 0 2.4-.6c14.2-9.3 29.5-21 44.4-28.8q.8-.4.8-1.3c.8 0 2.2-.1 2.1-1.2.7 0 3.8-1 2.6-2q-2.3-.2-2.6 2-1.5-.3-2 1.2c-3.1 0-42 23.5-48 27q-1.2-5.2-.8-10.5 1.2-.2 2.1-1l52.8-35 5-3q1.8-1.1 3-2.8 2 0 3-1.9c.4.2 2.6-.4 1.4-1q-1 0-1.5 1-2 0-3 2-1.8.2-3.4 1.3-3.1 1.5-5.6 3.8-2.6.9-4.8 2.4-24.2 13.8-48 27.9c-1.3-1 .1-9.6-.3-11.4q1 0 2-.7 25.9-17.1 51.5-34.6L73 402c1.5-1.3 7.7-4.4 8-6a4 4 0 0 0 2.2-.4q1.9-1.5-.6-1.3a3 3 0 0 0-1.6 1.6c-3.4.8-6.4 3.2-9.1 5.2q-2.6.9-4.7 2.4L16 433h-.7q-.3-11 .6-22 1.1.2 2.1-.3 18.8-12.3 37.3-24.8c1-.7 3.9-1.1 3.6-2.8q1.5.1 2-1c.8-.1 4-1 2.7-2.1q-2.1 0-2.6 2-1.5-.2-2 1.1-.8 0-1.4.3l-41.5 23.8 1.8-25.3q1.2.1 2.1-.5l68.2-46.7q1-.6 1.6-1.6c1-.7 2.8-.4 3.2-1.8-1.1-1.3-2.8.8-3.2 1.8-2.6-.2-2.4 1-4.4 2L19 373.5q0-6 1.2-11.7.8-.1 1.4-.5 9.6-6.5 19.3-12.6l2.9-2.4q2.2-.1 3.1-2.2 1.5.2 2.2-1c.7-.1 3.7-1 2.5-2q-2.3-.1-2.5 2-1.5-.2-2.2 1-2.2 0-3.1 2.2h-1.9l-10.5 6.6q-4.8 2.4-9.4 5.2h-1q0-5.6 1-11.2 1.3-.3 2.3-1.1c16-10.7 33.1-24 49.8-33.2q.8-.5.8-1.4 2.2-.2 3.2-2.1c.6.2 2.7-.4 1.5-1.1q-1.4 0-1.5 1-2.2.4-3.2 2.2c-1.6.2-8.7 4.4-10.4 5.7l-41.3 23.4q.7-6.3 1.9-12.5 1 .1 1.9-.4 19.5-13.2 39.3-26.3l12.6-8.6q-.5-.6-1.2-.3L65 299.6q-.7.8-1.5 1.2-18 10-35.8 20.4l-1.3 1.1c3.5-22 9.3-46 15.9-67.5q1 .3 1.9-.3l45.5-31.3 7.5-4.7q.9-.4.7-1.4c1.8.3 2.2-1 3.2-2 .6.1 2.8-.4 1.5-1.2q-1.2 0-1.5 1.1-2.1.2-3.2 2.1c-1.3.1-4 2-5.5 2.6q-24.2 14-48.2 28.2l5-15q1 0 .6-1 1.2.5 2.4-.1l19.2-13c1.6-1 7-4 7.5-5.6 1.9-.4 4.2-1.5 5.2-3.2a4 4 0 0 0 3-1.7c-1-1.1-2.7.7-3 1.7-2.3-.4-4 1.5-5.2 3.2q-.9-.3-1.8.2l-6.7 4L51.7 228h-.4a187 187 0 0 1 5.6-15.1 4 4 0 0 0 2.1-.6c11.2-7.3 22.2-15.5 33.5-22.3q.5-.5.3-.9c.7-.1 4.2-1.1 2.8-2.2q-2 .3-2.8 2.2c-2.2-.4-3.2 1-4.7 2.4A707 707 0 0 0 59 208.3a306 306 0 0 1 20.8-49.2 104 104 0 0 0 20-14q2.2 0 3.2-2c.5.1 2.8-.4 1.5-1.2q-1.4 0-1.5 1.1-2.2.2-3.2 2.2l-3.8 1.6q-7 4.3-14.4 8.1c14-28.1 39.5-63.6 71.6-72q0 .6-.3 1l-15.6 13.5c.7.7 2.3-.5 3-.8q14-8 27.6-16.2ZM339.2 83c-1.9 2.8-9 9.5-9.5 12.3q-1.5-.5-1.5 1c.6.6 1.2-.6 1.5-1 5-2.2 13.5-7.4 18.5-10.5q1.5-.5 2.7-1.2c2.8.5 10.2 1.8 12.2 3.5l-.5 1-17.4 15.3q1.1.5 2.2-.4L370 89.7c3.8 1.7 15.7 8 17.3 11.6-2.7 2-23 17.3-23.2 18.5q-2 .3-3 1.9c1 1 2.5-1 3-1.9 4.7-1.3 20.4-11.5 26-14.3q1-.7 1-2 7.6 6.7 14.2 14.4l-30 22.4c1 1 1.6-.5 2.3-1q2-.7 3.7-1.7c5.6-3.7 22.8-12.5 26.8-16q6.2 7.3 11.3 15.4-17.6 13.5-35.5 26.5-.7.5-.7 1.4-2.1 0-3 1.7c1 1 2.5-1 3-1.7q2-.6 3.7-1.7l34.2-19.6 1.5-1.8q2.7 4 4.8 8.4L399 170.7c-1 .5-2.8.8-3 2 1 1.2 2.7-1 3-2q1 .3 2 0l27.9-16.6q.9 0 1.3.9 2.2 3.8 4 8-1.2-.3-2.4.3L397 188.7l-.8 1-2.9 1.6q.7.7 1.7.4l8.6-5.5a398 398 0 0 0 33-19.4l4.2 9q-.9.2-1.8.8-17.6 12.5-34.8 25.1l-2.9 1.6c1.6 1.6 2.7-.7 4-1.5 7.8-4.5 31.9-17.5 37.3-22 1.2 2.8 3.2 6.3 3.6 9.4a118 118 0 0 0-15.7 10.7q-3.9 2.2-7.6 4.6-.8.5-.8 1.4-2.3 0-3.1 2.1-1.2-.2-1.9.7c.6.8 1.8.1 1.9-.7q2-.3 3.1-2.1 1 0 2-.3l23.2-13.8c1.4.9 3.4 7.3 4 9.2q-1.2 0-2.3.7l-44.4 31.6q-.8.5-1.4 1.4c-.7.7-2.9.6-3 1.7 1.6 1.2 2.5-.5 3.7-1.2l46.8-27q1-.6 2-1.5 1.3.4 1.6 1.6 1.5 3.7 2.6 7.6c-2.5-.2-23.7 15.2-25.7 16.8-1 .7-3.3.4-3 2.1q-1.2 0-2 1c.6 1 1.9-.2 2-1l1.8-.3q12.6-7.9 25.7-15 .9-.6 1.3-1.4 1 .2 1.2 1.1l6 18.8q-1.2-.2-2.3.5-27.9 19.2-55.4 38.7-1.7.1-2.4 1.6c-.9.4-2.8.7-3 1.9 1 1.3 2.7-1 3-2l1.2-.1c20-11 41-23.3 60.7-35q1.6 4.8 2.7 9.5a4868 4868 0 0 0-59 40.2l-2.2 2q-1.8 0-2.3 1.5-2.1.3-3 2c.8 1 2.6-1.2 3-2 2 .3 2.2-.4 3.7-1.5q30.8-17.6 61.5-35.5 1.8 4.5 2.5 9.4a163 163 0 0 0-14.7 9.4c-1 .8-3.1.6-3.1 2.1a10 10 0 0 0-5 3c.9 1.2 4.6-1.6 5-3h2q1.1-1.5 3-2 6.5-4 13.4-8 1.5 5.1 2.6 10.2-1.2-.2-2.2.3c-19 13-38.9 26-57.4 38.9q-1.8 0-2.3 1.7-1.2.2-2.3.6-2 1.6.5 1.2a4 4 0 0 0 1.8-1.8c2 .3 2.5-1 4-2l59.2-33.8a117 117 0 0 1 2 10q-1.3 0-2.4.6l-19.4 12.6q-1 .5-1.5 1.6c-1.5.1-4.6 1.7-5.1 3.2q-2.1 0-3 2a2 2 0 0 0-2 .7c.6.9 2 .1 2-.7q2.1-.2 3-2 3.4-.3 5.1-3.2 1.5 0 2.5-.6l21.3-12.4 2.2 10.1q-1 .1-2.1.7c-22 15-43.9 30.4-66.1 44.9q-.8.4-.7 1.3a9 9 0 0 0-5.2 2.8c1 1.5 4.6-1.7 5.2-2.8q.9 0 1.8-.4l68.4-39.6q1.5 5 1.7 10.4-.9 0-1.8.5-30.6 21-61.4 41.8-.9.4-.7 1.4-1.4-.2-2.3 1c-1 .3-2.6.6-2.9 1.8 1 1.1 2.7-.8 3-1.8q1.5.5 2.2-1l3-1.3c20.6-12 41.4-23.5 61.7-35.9q1 .6 1.1 1.8c0 2.6 1.7 6.3.9 8.7q-1-.2-1.6.4L431.5 380q-1 .6-1.3 1.7c-2 0-4 1.5-5.2 2.9 1.2 1.2 4.4-1.8 5.2-2.9q1.7-.3 3-1.2L488 349h1a87 87 0 0 1 2.9 21.3q-.9-.2-1.6.3a3134 3134 0 0 0-45 32.1l-3 1.6q.3.4.8.3c16.6-7.6 34-19.4 50-28.6q1.4 11 2.1 22-1.2-.4-2.2.3l-33 24.2q-.8.5-.8 1.4-2 0-3 1.7c.9 1.1 2.5-1 3-1.7a448 448 0 0 0 35.6-20.2q1 .6 1.2 1.8l.4 10.4q-1.5-.3-2.5.5l-28.3 21.8c-1.4 1.2-1.3 2.1-3.5 2.6q-.7 1-1.7 1.7c1 .9 2-1.5 3-1.7q17-9 33.4-19 .5 6 0 12.4-.7 0-1.5.5l-22 17.6q.7.6 1.7.3 11-6.7 22-13c-.2 13.4.3 31.8-3.7 44.3a29 29 0 0 1-30.3 16.4q0-.8.5-1.2a101 101 0 0 0 11.1-11.5q-.4-.5-1-.3-1.9 1.6-4.3 2.4l-13.4 7.8q-.8.4-.7 1.3-6-1.4-11.4-3.8-.3-1.5-1.7-.7-4.8-2.1-9.3-4.4l6.5-5.2q1.7-.7 2.6-2.6c.7-.1 3.8-1 2.6-2.1q-2 .4-2.6 2.1-2.2 0-4 1.4l-7.9 5-7.7-4.1q-1-.4-1.2-1.5c8.6-7 20.2-15.2 27.8-22.8.7-.1 3.8-1 2.6-2.1q-1.7.4-2.6 2c-1.8-.2-29 16.4-33 18.5q-1 .6-1 1.8l-10.1-5.4q19.8-15.8 39.8-31.3c-1-.8-2.5 1-3.5 1.3l-42.8 24.7a2 2 0 0 0-1.2 1.2l-12.4-4 3-1.4 38.2-28.2 2-2c.5-.3 3.8-1 2.7-2.2q-2 .3-2.8 2.2a9 9 0 0 0-5.3 2.6c-6.5 3.6-43.1 22.8-45.5 26.5q-11.1-3.2-21.9-7-1-.3-1-1.4 23.6-15.9 46.4-32.7 3.9-2.2 7.6-4.7.8-.5.7-1.4c.5 0 4.1-1 2.7-2q-2 .3-2.7 2c-20.5 10.6-41 23.5-61.4 34.9q-.8.5-1.5 1.3-5.3-1.5-9.9-4.3l.1-.8a31 31 0 0 0 9-6.3 8 8 0 0 0 4.9-2.6c-.8-1.3-4.5 1.6-5 2.6q-1 .1-2 .7l-8.3 4.6-.6 1-9.4-6q1.3-.1 2.4-.8l59.3-40.6q.9-.6 1.5-1.6 2-.3 3.1-2.1c.5 0 2.6-.4 1.6-1.2q-1.2.2-1.6 1.2-2.2 0-3 2.1c-1.5-.3-3.7 1.8-5.2 2.2l-60.9 35.1q-.9.6-1 1.6c-2.8-1-5.2-5-7.2-7.1q34.2-23.1 68.2-46.7c.6-.3 4-1.3 2.7-2.3a3 3 0 0 0-2.7 2.3h-2c-21.2 14.1-45.6 26.5-67.9 39.4l-1.6 1.5q-2.6-4.8-3.8-10.2 1.3.4 2.5-.2l62.5-42.7a84 84 0 0 1 7.5-4.7q.7-.3.7-1.2c1-.5 3-.6 3.3-1.8-1.1-1.2-2.8.8-3.3 1.8-.8-.5-7.5 4.2-8.8 4.5q-32.6 18.6-64.8 37.6-.7-.1-1-.8-.5-4.9-.1-9.8.8 0 1.6-.4 8.6-6 17.6-11.4c1.4-1 4-2.2 4.7-4 1.5.2 4.4-1.4 5-2.8q2.1-.2 3-2c.5 0 2.7-.4 1.6-1.1q-1 0-1.5 1.1a3 3 0 0 0-3.1 2 6 6 0 0 0-5 2.9q-3 .4-5 2.7a16 16 0 0 0-4 2l-14.7 8.6q-.2-6.3.7-12.6a2 2 0 0 0 2 0l46.6-31.6a76 76 0 0 1 7.5-4.6q.9-.4.7-1.3 2.1-.4 3.2-2.2c.6.2 2.8-.3 1.5-1.1q-1.2 0-1.5 1-2.2.3-3.2 2.3c-1.5-.2-2.2 1.4-3.8 1.6L306.8 377a83 83 0 0 1 1.5-11.2l1.7-1.5c.7-.7 4-2 3.9-3 1.6-.1 7.4-3.7 8-5.3 2 0 3.8-1.4 5-2.7-1-1.4-4.2 1.8-5 2.7-2.1 0-5.5 3-7.6 3.7q-.9.6-1.3 1.6-1-.2-1.7.2-1 1.3-2.3 1.9c0-4 1.2-9.8 2.2-13.8q1 .3 1.8-.2 26.2-18.2 52.7-36l2.2-2.3q2.1-.1 3-2 1.3 0 2.3-.4 1.9-1.8-.6-1.4a4 4 0 0 0-1.6 1.7 3 3 0 0 0-3.1 2.1c-3 0-9.6 5-12.5 6.7q-21.5 12-42.6 24.4c0-4.2 1.6-9.2 2.4-13.4a2 2 0 0 0 1.9-.4q25.3-17.7 50.8-35.1a4 4 0 0 1 3.2-2q1.4-1-.4-1c-1.1 1.2-2.5.9-3.5 2.3a3679 3679 0 0 0-50.3 28.7l4.9-26.3q1.2 0 2.2-.7l19-13q2-.4 3-2.3.4 0 .6-.5-.6-.3-.5.5-2.4 0-3.2 2.3-1-.3-2 0l-10.5 6.5-8.3 4.4 1.9-12.5 1.6-.6c14.4-10 28.9-21.1 43.5-30.6q.8-.4.8-1.3l2.1-.8q2.1-1.4-.3-1.2a4 4 0 0 0-1.8 2 39 39 0 0 0-10.4 5.7l-34.6 19.4q0-6.3.9-12.4 1.2.4 2.2-.2 9-6.4 18.1-12.2.9-.4.7-1.4a5 5 0 0 0 2.4-.5q1.7-1.6-.6-1.3-1.2.6-1.8 1.8l-5.5 2.6-14.2 8.5-1-.1c-.6-3-.3-8.1-.2-11.2q1.1 0 2-.6 15.7-11.4 31.6-22.3.4-.4.3-.9l2.2-.8q2-1.4-.4-1.1-1.2.6-1.8 1.9l-1.2.2q-16.3 9.2-32.4 19-.6-.3-.8-.9-.6-5.2-.5-10.6 1 .2 1.8-.4 17-12.6 34-24.7a1 1 0 0 0-1-.4q-18 10.2-35.8 20.7c-2-8.3-1.8-16.6-2.9-25l4.3-3.3 28.3-21q-.7-.7-1.6-.4l-8.7 5.4c-2.5 1.4-18.3 9.8-19 11.3q-3 .2-4 3l-3.3-22.2q.9-.1 1.6-.6l22-16.5a1 1 0 0 0-1-.4q-2.1 1.5-4.5 2.5l-17 9.9-2 1.6q-1.7-10.7-2.8-21.4.8 0 1.4-.6l20-15.7a1 1 0 0 0-1-.3l-20.7 12q-1.2-11.7 0-23.5l1.6-.8 13-11.4q-.2-.5-.9-.3-5.8 3.3-11.5 7l-1-.2c1-9.3 5.2-18.4 10.7-26 3.4-5.6 8.6-4.6 14.4-5ZM318 84.6l.8.1q0 .6-.3 1.1l-5.1 5.2-.8-2.2c1.7-2 3.5-2.7 5.4-4.2ZM190 122q-2 0-3 1.7c1 1 2.6-.7 3-1.7 1.4.2 4.4-1.4 5-2.7-.7-1.3-4.7 1.7-5 2.7Zm-88 7c-1 .1-4.2.9-4 2.3 1.4 1.6 3.4-1.2 4-2.2q2.2.3 2.9-1.7c-1-1-2.7.6-2.8 1.7Zm307.7 3.1c.9-.2 2.5-.1 2.8-1.4q-2-.7-2.9 1.4Zm-256 27c.3 0 1.8-.4.8-.9a1 1 0 0 0-.8 1Zm2 13.9c.3 0 1.9-.3.8-.9q-.7.2-.8.9Zm-83 3.2c1.1.2 6.1-2.3 4.9-3.3-1 .1-5 2-4.8 3.3Zm-6 16c.6-.4 4.3-1 2.9-2.3q-2.3 0-2.9 2.3Zm283.2 2.8a1 1 0 0 0 1-.6q-.7-.3-1 .6Zm-2.1 1.1q-.6 0-1.1.3L327 208q-2 .7-3.7 1.8c-.4.6-.8 4.8.8 4q1.8-1.5 4-2.9l16.2-12c1-.7 4-1.1 3.4-2.8q.6 0 1-.4-.7-.2-1 .4ZM176 202q-1.2 0-1.9.8c.6 1 1.9 0 1.9-.8 1 .2 5.8-1.7 4.6-3a9 9 0 0 0-4.6 3Zm3.9 21a2 2 0 0 0-1.8.9c.6.9 2 0 1.8-.9.8.2 4-.8 2.7-1.9q-1.8.3-2.7 1.9Zm269.2 12.2a2 2 0 0 0-2 .6c.6.9 1.6 0 2-.6.7-.5 3.7-1 2.4-2.2q-2.1 0-2.4 2.2ZM50.9 271.9q-2 .3-3 2.2a24 24 0 0 0-8.6 4.7c.6 2 8-3.5 8.7-4.7q2.2 0 3-2.2c.5.2 2.9 0 1.6-1q-1.2 0-1.7 1Zm297 6.2c.3 0 1.7-.4.7-1a1 1 0 0 0-.8 1Zm-195 8q.6 0 1-.7-1-.3-1 .6ZM39 303c-1.8-.2-4 1.2-5 2.6.6 1.3 4.6-1.7 5-2.7q1 .1 2.1-.4 2-1.6-.5-1.3-1.1.6-1.7 1.7Zm286 1.8a4 4 0 0 0-3 1.8c.7 1.4 2.4-1.1 3-1.8q1 .3 1.8-.6c-.5-1-2-.3-1.8.6Zm157 59q-1.3 1.5 0 0c1 0 5.6-1.7 4.4-3-1.4.1-3.9 1.7-4.5 3Zm-3.2 2.2q.6 0 1-.7-.9-.3-1 .7ZM37 383q-2.6-.4-3 2-1.5-.4-2.2 1a3 3 0 0 0-2.8 2c-1.3-.1-6.3 2-6 3.3 1.3 1.4 5.4-2.2 6-3.3q2.2 0 3-2a2 2 0 0 0 2-.9q2-.4 3-2c.6 0 2.5-.5 1.5-1.2q-1 .2-1.4 1.2Zm453.7 73.3c.7-.3 4.5-1.3 2.8-2.4q-2 .3-2.8 2.4Zm-124 3c.6-.1 2.8-.6 1.8-1.5q-1.4.2-1.7 1.5ZM64.6 502a38 38 0 0 1-7 3.9q-3 .6-4.8-1.6zm408.6 2.2c-1.1 1.9-11 5-11 .3 3.8 1 7.2-.2 11-.3Z"/><path fill="#e76c67" fill-opacity=".3" stroke="#e76c67" stroke-opacity=".3" stroke-width=".5" d="M427.8 435.2q.7-2 2.8-2.2c1 1.2-2.2 1.9-2.8 2.2Z"/><path fill="#e46f65" fill-opacity=".2" stroke="#e46f65" stroke-opacity=".2" stroke-width=".5" d="M171 430a3 3 0 0 1-3 2 3 3 0 0 1 3-2Z"/><path fill="#e67368" fill-opacity=".3" stroke="#e67368" stroke-opacity=".3" stroke-width=".5" d="M29 388c-.6 1.1-4.7 4.7-6 3.3-.3-1.3 4.7-3.4 6-3.3Z"/><path fill="#e56e65" fill-opacity=".2" stroke="#e56e65" stroke-opacity=".2" stroke-width=".5" d="M32 386q-.9 2-3 2a3 3 0 0 1 3-2Z"/><path fill="#e66d68" fill-opacity=".4" stroke="#e66d68" stroke-opacity=".4" stroke-width=".5" d="M37 383a4 4 0 0 1-3 2.1q.6-2.4 3-2Z"/><path fill="#e56d67" fill-opacity=".3" stroke="#e56d67" stroke-opacity=".3" stroke-width=".5" d="M61 382q-.7 1.2-2 1.1.5-1.3 2-1Z"/><path fill="#e46f67" fill-opacity=".3" stroke="#e46f67" stroke-opacity=".3" stroke-width=".5" d="M421.2 368.9q-.7 1.5-2.3 1 .9-1.2 2.3-1Z"/><path fill="#e9706b" fill-opacity=".2" stroke="#e9706b" stroke-opacity=".2" stroke-width=".5" d="M180.2 302a7 7 0 0 1-5.2 3c.4-1.6 3.5-3.2 5.2-3Z"/><path fill="#e76e68" fill-opacity=".4" stroke="#e76e68" stroke-opacity=".4" stroke-width=".5" d="M405.2 296.8c-.4.8-2.2 3-3 2a4 4 0 0 1 3-2Z"/><path fill="#e46d66" fill-opacity=".4" stroke="#e46d66" stroke-opacity=".4" stroke-width=".5" d="M159 281.9q-.7 2.1-3 2a4 4 0 0 1 3-2Z"/><path fill="#e66d68" fill-opacity=".3" stroke="#e66d68" stroke-opacity=".3" stroke-width=".5" d="M137 280.8q-1.5 3-5 3.1c1-1.7 3.2-2.8 5-3.1Zm319.1 30q-1.8 2.9-5.1 3.2c.5-1.5 3.6-3 5.1-3.2Z"/><path fill="#e56e68" fill-opacity=".4" stroke="#e56e68" stroke-opacity=".4" stroke-width=".5" d="M404.1 278.8c-.4.9-2 3.2-3 1.9.2-1.2 2.1-1.5 3-2Zm-272 5.1c-.5 1-2.1 2.8-3.1 1.8q1-1.5 3-1.8ZM83.7 444.1c.8-1.2 3.4-3.2 4.8-3.2 1.3 1.2-3.9 3.3-4.8 3.2Z"/><path fill="#e7706a" fill-opacity=".3" stroke="#e7706a" stroke-opacity=".3" stroke-width=".5" d="M48 274c-.7 1.3-8 6.8-8.8 4.8.5-1.1 7.4-4.8 8.8-4.7Z"/><path fill="#e56e67" fill-opacity=".5" stroke="#e56e67" stroke-opacity=".5" stroke-width=".5" d="M449 235c-.3.6-1.3 1.6-2 .7a2 2 0 0 1 2-.6ZM39 303q.6-1.2 1.7-1.7 2.4-.3.5 1.3-1 .5-2.1.4Zm128 7c0 .8-1.3 1.5-1.9.7a2 2 0 0 1 2-.7Zm247.2 11.8a4 4 0 0 1-1.8 1.8q-2.5.4-.5-1.2 1-.4 2.3-.6ZM337 377.1q.4-1 1.5-1.1c1 .7-1 1.2-1.5 1.1Zm-300 6q.3-1 1.4-1.2c1 .8-1 1.3-1.4 1.2Zm128.8 50c-.2 1.1-1.8 2.7-2.9 1.5a4 4 0 0 1 3-1.5Zm201 26.3q.3-1.3 1.7-1.5c1 .9-1.2 1.4-1.7 1.5Z"/><path fill="#e56e67" fill-opacity=".4" stroke="#e56e67" stroke-opacity=".4" stroke-width=".5" d="M176 202c0 .8-1.3 1.7-1.9.7q.7-.9 1.9-.8Zm170.8 44q.6-1.2 1.8-1.8 2.3-.3.6 1.3a5 5 0 0 1-2.4.5Zm-25 109.9c.9-1 4.1-4.1 5.2-2.7-1.3 1.3-3.2 2.7-5.1 2.7Zm97.1 14c-.2 1-1.9 2.8-2.9 1.7.3-1.2 2-1.5 3-1.7Zm-81.8 7.1a4 4 0 0 1-3.1 2 3 3 0 0 1 3-2ZM155 392a3 3 0 0 1-3 2 4 4 0 0 1 3-2Zm236 5q.4-1 1.6-1c1 .7-1.1 1.2-1.6 1ZM80 414a3 3 0 0 1-3 2 3 3 0 0 1 3-2Z"/><path fill="#e56e67" fill-opacity=".3" stroke="#e56e67" stroke-opacity=".3" stroke-width=".5" d="M347.8 196.1q.1-.7.9-.4-.4.4-1 .4ZM176 202a9 9 0 0 1 4.6-3c1.2 1.3-3.6 3.2-4.6 3Zm171.9 76.2q0-.7.7-1c1 .6-.4 1-.8 1ZM78 309q-1 2-3.2 2.1 1-2 3.2-2.1Zm372.9 5a4 4 0 0 1-3 2q.9-2 3-2Zm-305 23q-.9 2-3 2 .8-2 3-2Zm236 47.3a3 3 0 0 1 2.6-2.3c1.3 1-2 2-2.7 2.3Zm48.2-2.5c-.8 1-4 4.1-5.2 2.9a8 8 0 0 1 5.2-2.9Z"/><path fill="#e46f67" fill-opacity=".3" stroke="#e46f67" stroke-opacity=".3" stroke-width=".5" d="M155.7 173q0-.8.8-.9c1 .6-.5.9-.8.9ZM482 364q-1.2 1.2 0 0Z"/><path fill="#e46f66" fill-opacity=".3" stroke="#e46f66" stroke-opacity=".3" stroke-width=".5" d="M159 171q0 .5-.7.5zM49.1 343q-.8 1.2-2.2 1 .7-1.2 2.2-1Z"/><path fill="#e56e66" fill-opacity=".3" stroke="#e56e66" stroke-opacity=".3" stroke-width=".5" d="M160 154.8a3 3 0 0 1-3 2.2q.9-2 3-2.2Zm211 154.3q-1 1.9-3.1 2a3 3 0 0 1 3-2Z"/><path fill="#e56e67" fill-opacity=".4" stroke="#e56e67" stroke-opacity=".4" stroke-width=".5" d="M190 122c-.4 1-2 2.7-3 1.7q1-1.5 3-1.7Zm-97 67.2q.7-2 2.7-2.2c1.4 1-2 2-2.7 2.2Zm257 5.8q.3-.9 1-.6a1 1 0 0 1-1 .6ZM84 210c.4-1 2-2.8 3-1.7a4 4 0 0 1-3 1.7Zm335-2c0 .8-1.2 1.5-1.8.7q.7-.9 1.9-.7Zm30.2 27q.3-2 2.4-2c1.3 1.2-1.7 1.6-2.4 2ZM50.9 272q.5-1.2 1.7-1.1c1.3 1-1 1.2-1.7 1Zm404.2 8.7c-.4 1.4-4.1 4.2-5 3a10 10 0 0 1 5-3ZM325 305c-.2-.9 1.3-1.5 1.8-.6q-.7.9-1.8.6Zm-155 3q-.8 2-3 2.1.9-2 3-2.1Zm278 8c0 1-1.4 1.7-2 .8a2 2 0 0 1 2-.7ZM89.9 333.2c.4-1 2.1-3.1 3.2-1.8-.4 1.4-2.2 1.1-3.2 1.8Zm290 33.1c.5-1 2.1-3 3.3-1.8-.4 1.2-2.3 1.3-3.3 1.8Zm-250.7 8.9c-.5.8-2 2.5-3 1.6a3 3 0 0 1 3-1.6ZM61 382q.5-2.2 2.6-2.1c1.3 1-2 2-2.6 2Zm20 13.8a3 3 0 0 1 1.6-1.6q2.6-.3.6 1.3a4 4 0 0 1-2.2.3ZM65 440q.3-2.3 2.6-2c1.3 1-1.9 2-2.6 2Zm280 2c.5-1 4.2-4 5-2.7a8 8 0 0 1-5 2.7ZM77 465a3 3 0 0 1 2.6-2c1.6 1.2-1.6 2.3-2.6 2Zm287-345.2c-.3 1-1.8 2.9-3 1.9q1.1-1.6 3-1.9ZM103 143q.2-1.2 1.5-1.1c1.3.8-1 1.3-1.5 1.1ZM78 309q.3-1.2 1.6-1.1c1.2.7-1 1.3-1.5 1Zm65 30c0 .8-1.3 1.6-1.8.7q.6-.9 1.8-.7Z"/><path fill="#e56e67" fill-opacity=".5" stroke="#e56e67" stroke-opacity=".5" stroke-width=".5" d="M183 114c-.5.8-1.9 2.8-3 1.7.3-1.3 2-1.5 3-1.7ZM66.8 192.2q.5-2.3 2.9-2.3c1.4 1.2-2.3 1.8-2.9 2.3Zm303.2 55a4 4 0 0 1 1.8-2q2.4-.1.3 1.2zm1 61.9a4 4 0 0 1 1.7-1.8q2.5-.4.6 1.4-1 .4-2.2.4Zm-235 78.8q-.5 1.1-1.6 1.7-2.6.5-.6-1.2 1.1-.5 2.2-.5Z"/><path fill="#e66d67" fill-opacity=".3" stroke="#e66d67" stroke-opacity=".3" stroke-width=".5" d="M185 113q-.5 1.2-2 1 .6-1.3 2-1Zm161 166q-1 1.8-3 2.3.7-2.4 3-2.3ZM34 385.1a2 2 0 0 1-2 1q.6-1.4 2-1Zm31 55c0 1-1.3 1-2 1.1q.5-1.5 2-1.2Z"/><path fill="#e86d67" fill-opacity=".2" stroke="#e86d67" stroke-opacity=".2" stroke-width=".5" d="M188.1 110.9q-.9 2-3 2.1.6-2.2 3-2.2Z"/><path fill="#e56d67" fill-opacity=".3" stroke="#e56d67" stroke-opacity=".3" stroke-width=".5" d="M157.2 101c-.5.7-2.2 2.8-3.1 1.7a3 3 0 0 1 3.1-1.8Zm32.8 21c.3-1 4.3-4 5-2.7-.6 1.3-3.6 2.9-5 2.7Zm-87 21q-1 2-3.2 2.2 1-2 3.2-2.2Zm50.7 16.2q0-.7.8-1c1 .5-.5.9-.8 1ZM346.1 279q0-.7.5-.5-.2.4-.5.5ZM334 379c-.6 1.5-3.5 3.1-5 3 .8-1.6 3.2-3 5-3Zm-174 9.8c-1 1.9-2.7 3.6-5 3.2.5-1.4 3.5-3 5-3.2Zm10.2 26q-1 2-3.2 2.1 1-2 3.2-2Z"/><path fill="#e56e67" fill-opacity=".5" stroke="#e56e67" stroke-opacity=".5" stroke-width=".5" d="M329.8 95.3c-.3.4-1 1.6-1.5 1q0-1.5 1.5-1ZM49 343.1q.2-2.2 2.5-2.2c1.2 1-1.8 2-2.5 2.2Zm317-.1q.3-1.2 1.5-1.1c1.3.8-1 1.3-1.5 1Zm-223 73q-.4 1.2-1.6 1.7-2.6.3-.5-1.3z"/><path fill="#262626" stroke="#262626" stroke-width=".5" d="M312.3 92.3q.7-.4 1-1.3l5-5.2q.4-.5.4-1 1-.3.9-1.3 1 .1 1.7-.3l1-1q5-3.8 10.7-6.2l1-.3c1.1 0 4.8-.8 5-1.7 9-.6 16.2-.9 24.8 2.2q1.5 1.1 3.1.7l1 .4 1 .8a104 104 0 0 1 31 19.7c79.8 84.7 97.2 200.9 109.9 311.7 1.9 26.7 2.9 47.5-7 73.2-1.3.8-3.2 4.6-4 6.1l-1 1a37 37 0 0 1-24.7 14.4c-3.8.1-7.2 1.3-11 .3-5.1.3-10-.8-15-1.8l-.7-.5-5.7-1a290 290 0 0 1-63.3-29c-42-7-74-16.6-82.4-63.7-5.6-62.2 27-124.4 16-185q0-1.7-1.7-2.1-14.4-5.4-28.9-10.5-.9-.3-1.3.7c-2.4 21.8-49.6 22-46.5-2a1 1 0 0 0-1-.4c-5.9 2.1-26.6 8.2-30.3 11.6-9.6 54.1 13.8 109.5 16.4 163.7q.6 13.3-1.7 26.2v3.1q-1 .3-1.1 1.2a76 76 0 0 1-11.8 24.8 6 6 0 0 0-3 3.5 102 102 0 0 1-46.6 24.5q-12.9 3.3-25.9 5.3A277 277 0 0 1 64.5 502l-11.8 2.3q-9.7 1.2-19.6.6c-.8-1.2-4-1.5-5.3-1.4-31-10.2-28.7-50-25-76a699 699 0 0 1 25.5-165.8C47.4 199.3 69.1 139 118.5 93.8q2.4.2 2.2-2.1 1.6.6 2.2-1a1 1 0 0 0 1-.8q1 0 1.4-1 5.2-3 10.6-5.7.9-.2 1.3-1.1h.9q.7-.2 1-.9l.6-.2q.8-.2 1.5-.7l.7-.5c.7 0 2.2 0 1.7-1.1q1.2 0 2.3-.3 5.2-2 10.5-3.5c15.8-3.6 29.8-1.4 40.8 11.2 18.8 23.5 17.4 58.6 10.8 86.4-.4 1.1-.4 3 1.3 2.4l22.8-8.4c1.3-.8 1.3-6.4 1.7-8 .8-23.4-1.6-47.6-2.7-71-.3-18.6-2.4-54.7 4.9-71.2q.3-1.2.3-2.5c1 .6 1.5-2.3 2-2.7q.5-.4.7-1c5-9.6 20.6-5.7 29.3-5.8 10.2 2.1 10.4 8.3 10.5 17.2 2 47-.3 94 .4 141q0 1.3.6 2.2l21.9 8.2c1 .2 1.7.9 2.5-.3l-3-15.1c-3-24-1.2-44.2 11-65.2Zm-67-59q-.3 1.2 0 2.4c-.3 9-.6 24.5 0 32.7q-.4 1-.2 2.3a3104 3104 0 0 0 .2 77.1 202 202 0 0 0 0 18 326 326 0 0 0 0 18q-.2 14.2-.2 28.5.8 3.7 4.6 4.6c4.4 1.9 11 .9 15.7 0 2-1.4 1.6-6.1 1.9-8.3 0-15.8-.6-33.8-.3-49.7q0-1.5-.2-2.8v-19l-.1-15.3q.5-1.8 0-3.7.2-7.6 0-15.3v-.7a923 923 0 0 0 0-40.8q.4-8.2.1-16.4v-.7a313 313 0 0 0-.1-19c1-6.2.7-11.6-6.7-12.4q-3.9-.6-7.8.2c-3 .3-6.1-.9-6.8 3-.5 4.8-.5 12.4-.1 17.4Zm-90 48.9q-1.4-.4-2 .7c-32.2 8.4-57.7 43.9-71.7 72a7 7 0 0 0-1.8 4.2A307 307 0 0 0 59 208.3a1 1 0 0 0-.7 1 7 7 0 0 0-1.4 3.7q-3.1 7.5-5.6 15l-.4.9q-.8 1.5-1.2 3-.5.3-.7 1a529 529 0 0 0-6.8 22 513 513 0 0 0-15.9 67.4q-.9 2.7-1.2 5.3-1.2 6.3-1.9 12.6-.8 3.3-1.1 6.6-1.2 5.5-1.1 11.2l-.3 1q-.6 1.4-.5 2.7-1.2 5.8-1.2 11.7-1 4.2-1 8.5L15.8 411q-.9 11-.6 22l-.4 1v5.8c.4 2-1 10.6.2 11.5-1.5 1.6-.9 4.3-.9 6.3q-.4 5.3.8 10.5 0 2 .2 3.7.8 5.4 3 10.3c.6 1.3 1.2 3.4 2.6 4 .7 2.9 3.7 5.9 6.4 7.2q1.5 1.5 3.4 2.4a32 32 0 0 0 13.6 2.9q5.3.4 10.4-.8c17.5-2.6 31.9-10 47.7-17.1l.7-.6 1.3-.2.8-.6c1.6-1.5 4-2.6 6-3.6l1-.2 1-.3q.6-.4 1-1l1.2-.3q.5-.2.8-.7l1.1-.3q.6-.1.9-.7l1.2-.6 6.8-3.3c11.2-4.9 23-7.3 34.7-10.6 25.4-6.3 39.2-19.8 43.2-46.1a8 8 0 0 0 .8-4.4 102 102 0 0 0 .2-26.6 20 20 0 0 0-.2-5.4q-.2-4.5-.8-8.9 0-1.2-1.3-1.7 1.5-1.7.6-3.8-.3-4.2-1.2-8.5a2 2 0 0 0-1-1.7c1.3-1.7 0-3.7 0-5.7l-1.8-10c-.4-1.4-.1-5-1.2-5.8q-1-9.7-3.2-19.2l-.3-3q.6-1.2-.5-1.8a37 37 0 0 0-1.8-11q0-5.3-1.3-10.4-.2-3.9-.9-7.8-.5-5.1-1.4-10.3V263q-.7-5.7-1-11.4 0-2.2-.8-4.5a115 115 0 0 0-.2-15.9c.1-21.8 2.8-41.6 8.4-62.6q.8 0 .6-.8 1-3.3 1.1-6.7.8-6.2 1.2-12.5l.2-3.7q1-6 .5-12.3.5-1.7 0-3.4a72 72 0 0 0-6.7-32.7l-1.7-2.8q-3-4.4-7.5-7.2-1.5-1.5-3.6-2.5a35 35 0 0 0-11.3-3.7q-6.6-1.2-12.6 1.8ZM314.1 114l-.3 1a118 118 0 0 0-.5 32.8q1 10.7 2.8 21.4.3 1.8 1 3.5l4 27.2c1 8.4.8 16.7 2.8 25 .2 1.1-.2 4.2 1 4.8q0 5.2.4 10.6.3.6.9 1-1.1 2.1-.3 4.5c-.1 3.1-.4 8.2.2 11.2l-.3 1v1.8q-1 6.1-.9 12.4-1 3.6-1 7.4l-2.1 15.3-4.9 26.3a37 37 0 0 0-1.7 7.5c-.8 4.2-2.3 9.2-2.4 13.4a29 29 0 0 0-1.6 7.4 61 61 0 0 0-2.2 13.8c-1.1-.3-.7 2-.7 2.4a83 83 0 0 0-1.5 11.2q-.6 2.8-.8 5.7-.9 6.3-.7 12.6-.3 1.2-.2 2.4-.4 4.9.1 9.8.3.6 1 .8c-1.5 1.6 0 5 .4 6.7q1 5.4 3.8 10.2 1.4 3 3.3 5.8c2 2 4.4 6.2 7.3 7 .1 1.7 2.7 3 3.7 4.2q4.5 3 9.4 6 .7 1 1.9.8 4.6 2.8 10 4.3c1.3 1.3 6.2 3.3 8.1 2.6q0 1.1 1 1.3 10.8 4 22 7 3.7 1.4 7.6 2.6 6.1 2.2 12.4 4l17.8 9.5c2 .8 4 2.8 6.2 2.6q.2 1 1.2 1.5l7.7 4 2.8 1.5 11 5a72 72 0 0 0 19.2 5.4 29 29 0 0 0 30.3-16.4c4-12.5 3.5-31 3.7-44.2q.5-2.8-.1-5.5.3-6.2-.1-12.5.2-3-.4-5.8 0-5.3-.5-10.4 0-1.2-1.2-1.8c1.7-1.3.6-4 .5-5.7l-2-22c-.4-1.3 0-5-1.4-5.7.2-2.6-1.4-20.2-2.9-21.4l.2-1c-.2-1.4.2-5-1.3-5.7 1-2.4-.7-6.1-.8-8.7q0-1.3-1.1-1.8c.6-1.9.4-5-.8-6.5q-.3-5.4-1.7-10.4-.3-3.4-1.3-6.9a136 136 0 0 0-2.7-12 117 117 0 0 0-3.3-15 98 98 0 0 0-3.2-11.7 39 39 0 0 0-2.5-9.4q-.3-3.4-1.7-6.7a136 136 0 0 0-4.5-15.1l-6-18.8q-.3-1-1.2-1a6 6 0 0 0 0-2.3l-2.7-7.6q-.4-1.3-1.6-1.6c1-1.5-.7-4.3-1.4-5.7-.6-1.9-2.6-8.3-4-9.2q.1-1.7-1.1-2.7c-.4-3-2.4-6.5-3.6-9.3l-1.8-4-4.2-9-2.3-3.8a89 89 0 0 0-4-8q-.3-1-1.3-.9 0-2.3-1.6-4a82 82 0 0 0-8-13q-5.1-8.2-11.3-15.5-1.3-2-2.8-3.7-6.6-7.6-14.2-14.3a6 6 0 0 0-3.8-2.3c-1.6-3.7-13.5-10-17.3-11.6q-2.7-1.7-5.7-2.6h-1c-2.1-1.7-9.5-3-12.3-3.5q-2-.6-4-.6h-7.7c-5.8.5-11-.5-14.5 5.2a55 55 0 0 0-10.7 25.9Zm-83.9 59.7q-1.5.2-2.6 1.4a93 93 0 0 0-19.3 6.8c-2.8-.5-2.2 1.5-2.3 3.4l-.2 2.6a241 241 0 0 0-2 14l-1.5 10.5q0 .7.3 1 13.5-4.3 26.6-9.6 1 .3 1.7-.7a3 3 0 0 0 1.8-.8 150 150 0 0 0 0-13.3v-14.6q.3-1-.8-1.1c-.4 0-1.7-.4-1.7.4Zm56 29.4c.1 1 4.8 2.5 5.8 1.7q0 1 1.1 1.4l11.8 4.4h.7c1 .3 4 2.2 4 .2q-1.7-13.2-3.8-26.4c-.3-1.1-2.8-1.3-3.8-1.7q-.3-.4-.9-.7l-19.8-7q-2.1-.7-2 1.5-.1 11.8.1 23.7c0 1.7 5.5 2.6 6.8 2.9Z"/><path fill="#ce9a77" d="M239 10.1q-.2.6-.7 1-.3-1 .7-1m-1.7.8 1 .2c-.5.4-1 3.3-2 2.7l-.2-1v-.6q.8-.4 1.2-1.2"/><path fill="#febc8f" stroke="#febc8f" stroke-width=".5" d="M252.2 13q-1.6 3.2-2.8 6.6.3.4.9.2 4.8-2.7 9.5-5.7.4-.6.1-1.3c7.5.8 7.8 6.2 6.8 12.4q-1.2.4-1.6 1.6l-2.4 2-.7 1-.1 1.3q-1.4 0-1.8 1.3c.7 1 2.3-1.1 3.2-1.2l1.8-1q.6-.4 1-1 .4 0 .7-.4v15.4q-1.5.3 0 .7.2 8.3 0 16.4c-1.7-.9-3 2.6-4 3.4-.2 2.5 3.1-.4 4-.9q.3 19.2-.2 38.3-1 .6 0 .7.3 7.6.2 15.3-.7 0-1 .7l-3 3.5q-1.3 1.5.6 1.8l2.6-1.4.7-.9q.2 7.6 0 15.3-1 .8-1 2.2-.4-.3-.8 0c-2.8 2.4-2.3 3.7 1.1 1.7l.9-.3v15.4q-.9 0-1.3.4c-.5 1-3.9 3.5-3 4.5q1.8-.4 3.4-1.4l1-.7c-.3 16 .4 34 .3 49.7-.3 2.2.1 6.9-2 8.3-4.6.9-11.2 1.9-15.6 0q4.2-5.4 7.7-11.3c-1.7-.6-8.1 4.2-10.1 5q-1.2.7-2.2 1.7l.2-28.6q.7.2 1.5-.4c.2-.8 2.3-2.3 1.9-3.2q.9-.2 1.3-1 .4 0 .6-.5-.5-.2-.6.4-.8.5-1.3 1.1a6 6 0 0 0-3.4 1q-.3-7.6 0-15.3 3-2.2 5.3-5.1-.7-.5-1.6 0l-3.7 2.5a202 202 0 0 1 0-15.4q.6 0 1-.6l1.8-2q0-1 .8-1.9c-.9-1-2.6.7-3.6 1q-.3-7.8-.2-15.5c1.3-.3 4.7-4 4.9-5.3-.9-1.4-3.9 1.4-4.9 1.8V70.7q1.4-.2 2.2-1.4l1-1 1-1.1 2.2-3q-1.8 0-2.5 1.5-2.6.3-3.6 2.7c-.7-8.2-.4-23.7-.1-32.7a4 4 0 0 0 2-1.5l.7-1q.3-1.2 1.3-2.5c.5.2 2.2-.8 1.1-1.2l-1.1 1.2q-2.8.2-4 2.7c-.4-5-.4-12.6.1-17.4.7-3.9 3.9-2.7 6.8-3Zm8.7 54.2c.3-.1 1.7-.6.7-1q-.7.2-.7 1Zm-1 58.8q.7 0 1-.7-.7-.3-1 .7Z"/><path fill="#ffbf92" fill-opacity=".1" d="M250 179q-.4 1-1.3 1.1.5-.7 1.3-1"/><path fill="#ffbb90" fill-opacity=".5" d="M250 179q0-.6.6-.4-.2.4-.6.4"/><path fill="#ffb991" fill-opacity=".2" d="M261 67.2q0-.8.6-1c1 .4-.4.9-.7 1"/><path fill="#ffbc8e" fill-opacity=".4" d="m249.3 30.7 1.1-1.2c1.1.4-.5 1.4-1.1 1.2"/><path fill="#ffbb8f" fill-opacity=".3" d="M260 126q0-1 .9-.7-.3.6-1 .7"/><path fill="#ffbc8f" fill-opacity=".4" d="m249.3 67.2-.3-1.5q.7-1.5 2.5-1.5z"/><path fill="#5a3634" fill-opacity=".2" stroke="#5a3634" stroke-opacity=".2" stroke-width=".5" d="M124.2 468.3h2l-6.8 3.4q-.7-.9.2-1.6 2.2-1.3 4.6-1.9Z"/><path fill="none" d="m249 65.7.3 1.5q-1.5-.3-1 1.1-1.2 0-1 1-.9 1.2-2.2 1.4-.1-1.2.3-2.3 1-2.4 3.6-2.7"/><path fill="#6c4b40" fill-opacity=".1" stroke="#6c4b40" stroke-opacity=".1" stroke-width=".5" d="M249.3 30.7q-.9 1.2-1.3 2.6-1-.2-.8 1a4 4 0 0 1-1.9 1.4q-.3-1.2 0-2.3a5 5 0 0 1 4-2.7Z"/><path fill="#655549" fill-opacity=".1" stroke="#655549" stroke-opacity=".1" stroke-width=".5" d="M266.7 61.3q.3 1.3 0 2.5c-.8.5-4.1 3.4-4 .9 1-.8 2.4-4.3 4-3.4Z"/><path fill="#625449" fill-opacity=".2" stroke="#625449" stroke-opacity=".2" stroke-width=".5" d="M248.2 145.2q-1.3-.2-1 1-1-.1-1 1-.3.6-1 .6l.1-3.6c1-.2 2.7-2 3.6-.9q-.9.8-.7 2Z"/><path fill="#573f2c" fill-opacity=".2" stroke="#573f2c" stroke-opacity=".2" stroke-width=".5" d="M232.6 189.1q.2 1.4 0 2.7-1.5 1-3.5 1.5l-.1-1.3c1.6 0 2-3 3.6-2.9Z"/><path fill="#543736" fill-opacity=".3" stroke="#543736" stroke-opacity=".3" stroke-width=".5" d="M347 83q2 0 4 .6-1.2.8-2.7 1.2z"/><path fill="#594941" fill-opacity=".2" stroke="#594941" stroke-opacity=".2" stroke-width=".5" d="M266.7 25.2q.3 1.8 0 3.6l-.5.5c0-.9.2-2.6-1-2.5q.3-1.2 1.5-1.6Z"/><path fill="#53453b" fill-opacity=".4" stroke="#53453b" stroke-opacity=".4" stroke-width=".5" d="M266.8 137.1v3.7l-.8.2-.3-1.7q0-1.5 1-2.2Z"/><path fill="#7f4744" fill-opacity=".5" stroke="#7f4744" stroke-opacity=".5" stroke-width=".5" d="M309 363.4q.2.8 1 .9l-1.7 1.5c0-.5-.4-2.7.6-2.4Z"/><path fill="#35302d" fill-opacity=".3" stroke="#35302d" stroke-opacity=".3" stroke-width=".5" d="M266.8 118.1q.4 2-.1 3.7l-.7 1-.2-4q.4-.6 1-.7Z"/><path fill="#272727" fill-opacity=".2" stroke="#272727" stroke-opacity=".2" stroke-width=".5" d="m266.8 156 .2 2.9-1 .7q0-1.5-.4-3 .4-.6 1.2-.5Z"/><path fill="#633d39" fill-opacity=".2" stroke="#633d39" stroke-opacity=".2" stroke-width=".5" d="M42.4 253.2q1 .6 1.7 1.3-.9.6-2 .3 0-.9.3-1.6Z"/><path fill="#673e3b" fill-opacity=".4" stroke="#673e3b" stroke-opacity=".4" stroke-width=".5" d="M194 305.2q1.2.6.6 1.9l-1.6-1.6z"/><path fill="#653d3b" fill-opacity=".3" stroke="#653d3b" stroke-opacity=".3" stroke-width=".5" d="m315.4 327.2 1.7 1.2a2 2 0 0 1-2 .4q0-.9.3-1.6Z"/><path fill="#262626" fill-opacity=".4" d="m301.1 182.1 1 .7q-1 .3-1-.7M49.7 232q.4 1-.7 1 .2-.7.7-1"/><path fill="#784542" fill-opacity=".6" stroke="#784542" stroke-opacity=".6" stroke-width=".5" d="M442 494.3q1.4-.7 1.8.7-1 0-1.7-.7Z"/><path fill="#5d3b39" fill-opacity=".5" stroke="#5d3b39" stroke-opacity=".5" stroke-width=".5" d="m334 448.2.7-1 1.4 1-.1.8q-1.1 0-2-.8Z"/><path fill="#57463b" fill-opacity=".4" stroke="#57463b" stroke-opacity=".4" stroke-width=".5" d="M232 173.4q-.8.7-1.8.4c0-.8 1.3-.4 1.7-.4Z"/><path fill="#272727" fill-opacity=".2" stroke="#272727" stroke-opacity=".2" stroke-width=".5" d="M266.8 44.2v.7q-1.5-.4 0-.7ZM118.1 472.4q-.3.5-.9.6 0-1.1.9-.6Z"/><path fill="#7c4644" fill-opacity=".6" d="m59 208.3-.7 1q0-.8.7-1"/><path fill="#614f42" fill-opacity=".4" stroke="#614f42" stroke-opacity=".4" stroke-width=".5" d="M266.6 102.1v.7q-1-.1 0-.7Z"/><path fill="#854745" fill-opacity=".5" d="M139.1 81.2q-.3.7-1 1 0-1.2 1-1"/><path fill="#292929" fill-opacity=".1" stroke="#292929" stroke-opacity=".1" stroke-width=".5" d="M116 473.3q-.2.5-.8.7 0-1 .9-.7Z"/><path fill="#633d3b" fill-opacity=".4" d="M137.2 82.1q-.4 1-1.3 1 .2-1 1.3-1"/><path fill="#232323" fill-opacity=".1" stroke="#232323" stroke-opacity=".1" stroke-width=".5" d="m113 474 1.1.4-1 1z"/><path fill="#643737" fill-opacity=".1" stroke="#643737" stroke-opacity=".1" stroke-width=".5" d="M112 474.8v.8l-.9.2q.1-.7 1-1Z"/><path fill="#312a27" fill-opacity=".4" stroke="#312a27" stroke-opacity=".4" stroke-width=".5" d="m105 479.4-.7.6q0-.9.8-.6Z"/><path fill="#463232" fill-opacity=".5" stroke="#463232" stroke-opacity=".5" stroke-width=".5" d="m103 480.2-.7.6q0-.7.7-.6Z"/></svg>