<svg xmlns="http://www.w3.org/2000/svg" style="shape-rendering:geometricPrecision;text-rendering:geometricPrecision;image-rendering:optimizeQuality;fill-rule:evenodd;clip-rule:evenodd" viewBox="0 0 512 512"><path fill="#c08564" fill-opacity=".2" stroke="#c08564" stroke-opacity=".2" stroke-width=".5" d="M237 225q.3 1 0 2l-14 7.9-2-.5q7.8-4.8 16-9.3Z"/><path fill="#bb7f67" fill-opacity=".1" stroke="#bb7f67" stroke-opacity=".1" stroke-width=".5" d="M366 120.2q.7-.2.8.5-1 .7-1.7 1.7-4.7 2.4-9 5.2-1 .4-2 .3 0-.8.8-1.3c3.4-1.8 7.5-5.6 11.1-6.4Z"/><path fill="#eda581" fill-opacity=".4" d="m275 16.1 1.4-.1q-.6 1-1.8 1zm-33 24.7c-.3.8-2 3.2-3 1.9.2-1.2 2-1.5 3-2m3 38.3c-.2.8-1.5 1.4-2 .6q.7-.9 2-.6m-15.3 36.1c.5-.8 2-2.9 3-1.8 0 1.5-1.9 1.5-3 1.8M346.1 133c-.2.7-1.4 1.7-2 .7q.8-1 2-.7m-56.3 79c.7-.4 2.1-3 3-1.6-.2 1.1-2.2 1.1-3 1.7"/><path fill="#cc8b72" fill-opacity=".2" stroke="#cc8b72" stroke-opacity=".2" stroke-width=".5" d="M310.7 139.3q.2 1.1 1.4 1.2c-2.1.7-7 4.6-9 4.4q.4-1 1.5-1.7z"/><path fill="#e6997b" fill-opacity=".3" stroke="#e6997b" stroke-opacity=".3" stroke-width=".5" d="M310.9 255q.1 1 1.3 1l-7.2 4.8c-.7.1-1.5.7-1.8-.2q3.8-3 7.7-5.7Z"/><path fill="#eda580" fill-opacity=".9" d="m257.3 5.3.7-.3h3l.7.2 1.1 1 .4 1-8.5-.1q.4-1 1.3-1z"/><path fill="#eda581" fill-opacity=".3" stroke="#eda581" stroke-opacity=".3" stroke-width=".5" d="M278.6 8.3q1.3-.1 1.3 1.1l-.9-.2zM260 13.7l1 .5c-.2 1.3-3.4 2.6-4.5 2.8l-.3-.3q1.7-1.7 3.8-3Zm10.2 67.2q-.9 1.9-3 2 .6-2 3-2Zm6 122.1q0-.5.5-.5z"/><path fill="#4b5ec0" fill-opacity=".8" d="M218 280.1q-.2.8-.8 1.5l-7.3 4.4-.1-1.7c2-.7 6.3-4.4 8.3-4.2"/><path fill="#eda581" fill-opacity=".4" d="M277.8 7.1q1.2 0 .8 1.2zm19.4 113.8c-.3 1.1-4.4 4.1-5 2.8 1-1.5 3.1-2.8 5-2.8m51.8 10c0 1.6-1.9 1.6-3 2.1q.7-2 3-2"/><path fill="#d29374" d="m274.9 6.9 2 .1.9.1.8 1.2.4 1c-1.2-.2-6.3 0-6.8-1.2A4 4 0 0 1 275 7"/><path fill="#d99877" fill-opacity=".9" d="m363 153.3-.2.8-.5.2q0-1 .8-1m-.7 1q-.5.6-1.3.6-.7.3-1.2.9-1 .7-2 1-.8.4-1.1 1.2l-1 .2q-.1-1.4.2-2.6c1.2-1 5-1.7 6.4-1.4"/><path fill="#efa782" fill-opacity=".2" stroke="#efa782" stroke-opacity=".2" stroke-width=".5" d="M210 110q-2 2.5-5 4v-1.3q2-2.3 5-2.6Z"/><path fill="#8a759e" d="m208.8 304-1-.7q.1-.7.7-1.2c1.1-.4 3.4-3 4.4-1.7q-2.1 1.5-4.1 3.5"/><path fill="#e59a7c" fill-opacity=".3" stroke="#e59a7c" stroke-opacity=".3" stroke-width=".5" d="m191 284-.4-.9a10 10 0 0 1 4.8-3.2q.3.9-.5 1.4-1.8 1.5-3.9 2.7Z"/><path fill="#efa981" fill-opacity=".2" stroke="#efa981" stroke-opacity=".2" stroke-width=".5" d="M213 208c-.8 1.7-3.3 3-5 3.7l-.3-.5a7 7 0 0 1 5.3-3.2Z"/><path fill="#f1a783" fill-opacity=".2" stroke="#f1a783" stroke-opacity=".2" stroke-width=".5" d="M278 183c-.3 1.4-3.8 3.2-5 4v-1.3q2-2.3 5-2.7Z"/><path fill="#b67e65" fill-opacity=".8" d="M207.3 239q-1.5 2-2.3 4.4-.4.6-1.2.6c.7-1.7.6-6 3.5-5"/><path fill="#eda680" fill-opacity=".3" d="m276.9 7-2-.1c.3-1.4 2.5-.9 2 .1m-28.7 70a4 4 0 0 1-3.1 2.2q.7-2.3 3.1-2.2"/><path fill="#ca8a6e" fill-opacity=".8" d="M205.6 226.2q1.6 0 3 .7l.3 1q-2.1 0-3.3-1.7m3.3 1.7 1.1.4.1.8q-.9-.3-1.2-1.2"/><path fill="#eca481" fill-opacity=".3" d="M213 108a3 3 0 0 1-3 2q.7-1.8 3-2m144.8 48.9q0 1-1.1 1 .4-.7 1-1"/><path fill="#b77d5c" fill-opacity=".1" stroke="#b77d5c" stroke-opacity=".1" stroke-width=".5" d="m190.6 283.1.4.9-3 2 .2-1.2q.4-1.9 2.4-1.7Z"/><path fill="#785441" fill-opacity=".1" d="M205 112.7v1.3l-1.4 1q-.9-.2-1.6-1 1.5-.9 3-1.3"/><path fill="#c58b6e" d="M293 13.4q1.4-.5 2.7-.1v1q-1.4-.1-2.7-.9m2.8.9h1l.2.5z"/><path fill="#eda580" fill-opacity=".4" d="M295.7 13.3q-1.4-.4-2.7.1l-1.3-.4c.3-1.6 5-1.5 4 .3M267 83c-.3.7-1.5 1.6-2 .6a2 2 0 0 1 2-.6m-59.3 10q.6-2 2.8-2c1.6 1-2.4 1.7-2.8 2m5.1 15c.4-.6 1.4-1.6 2-.8a2 2 0 0 1-2 .8m16.1 47q-.8 2.2-3.2 2.1 1-1.8 3.2-2.2m13.9 19.2a3 3 0 0 1 2.6-2.1c1.5 1-1.7 2.3-2.6 2"/><path fill="#765241" fill-opacity=".1" d="M273 185.7v1.3q-.7.3-1.5 1-.8-.2-1.5-1 1.5-.9 3-1.3"/><path fill="#eca681" fill-opacity=".3" d="M261 5h-3c0-1.6 3-1.6 3 0"/><path fill="#715648" fill-opacity=".4" d="M328.9 218.7q0 1.3-1.1 1zm-1.1 1q0 1.3-1.2 1zm-1.2 1q.3 1.3-1 1.2z"/><path fill="#eda780" fill-opacity=".2" d="M261.7 5.2q1 0 1.1 1zM361 155q-.3 1-1.2.9.4-.6 1.2-.9m-19 16-.2.9-.8.1q.3-.7 1-1"/><path fill="#6e5447" fill-opacity=".5" stroke="#6e5447" stroke-opacity=".5" stroke-width=".5" d="M260.2 13.2q1.5-.2 3 .5l-2.4.5-.8-.5z"/><path fill="#c0886b" fill-opacity=".7" d="M302.7 17.3q1.6-.5 2.2 1-1.2-.3-2.2-1m2.2 1 .8-.3.2.9q-.6-.1-1-.7"/><path fill="#eca581" fill-opacity=".3" d="M257.3 5.3q-.6.5-1.3.7.3-1 1.3-.7M305.7 18q1 .3 1.3 1.3l-1-.5z"/><path fill="#ae8491" fill-opacity=".4" stroke="#ae8491" stroke-opacity=".4" stroke-width=".5" d="M263.8 313.3v.6q-.9 0-1.7-.2.7-.9 1.7-.4Z"/><path fill="#ae7e64" fill-opacity=".8" d="M219.7 13c.3 1-1.5 1-2 1q.5-1.2 2-1"/><path fill="#b17f65" fill-opacity=".8" d="M283.3 246q-.5 1.2-2 .9c-.2-1 1.5-1 2-1"/><path fill="#efa382" fill-opacity=".2" stroke="#efa382" stroke-opacity=".2" stroke-width=".5" d="m335.3 194-.6.8-.5.2q0-1 1-1Z"/><path fill="#ab7b61" fill-opacity=".2" stroke="#ab7b61" stroke-opacity=".2" stroke-width=".5" d="m363 153.3 1-.3q-.3 1-1.2 1z"/><path fill="#eda480" fill-opacity=".2" stroke="#eda480" stroke-opacity=".2" stroke-width=".5" d="m344.4 153.1-.6.9h-.5q0-1 1-.9Z"/><path fill="#e09677" fill-opacity=".3" stroke="#e09677" stroke-opacity=".3" stroke-width=".5" d="M195.2 261q-.3 1.1-1.4 1.2.3-1.1 1.4-1.1Z"/><path fill="#926b56" fill-opacity=".6" d="M367 140a1 1 0 0 1-.9.8q.1-.8 1-.7"/><path fill="#d99776" fill-opacity=".2" stroke="#d99776" stroke-opacity=".2" stroke-width=".5" d="M156 100q-.2.7-1 1 .3-.7 1-1Z"/><path fill="#ac7b61" fill-opacity=".3" stroke="#ac7b61" stroke-opacity=".3" stroke-width=".5" d="m190.2 30.4-1 .9q-.2-1.1 1-.9Z"/><path fill="#ce9273" fill-opacity=".3" stroke="#ce9273" stroke-opacity=".3" stroke-width=".5" d="M191.4 29q-.3.9-1.2 1.4-.1-1.5 1.2-1.4Z"/><path fill="#715547" fill-opacity=".3" stroke="#715547" stroke-opacity=".3" stroke-width=".5" d="M313.8 23.3q1-.3 1.1.7z"/><path fill="#efa580" fill-opacity=".2" d="m230.2 16.1.9-.4a2 2 0 0 1-1.5 1.2z"/><path fill="#e49f7b" fill-opacity=".3" stroke="#e49f7b" stroke-opacity=".3" stroke-width=".5" d="M296.8 14.2q.9 0 1.2 1l-1-.4z"/><path fill="#825f50" fill-opacity=".6" d="M217.2 14.2q-.6.6-1.4.8.5-.8 1.4-.8"/><path fill="#eda680" fill-opacity=".5" d="M295.7 13.3q1 0 1.1 1h-1z"/><path fill="#e59a7a" fill-opacity=".4" d="M208.7 226.9a2 2 0 0 1 1.3 1.4l-1.1-.4z"/><path fill="#2c52ce" stroke="#2c52ce" stroke-width=".5" d="M308.2 273q.7 1.8 1 3.6l-16.3 9.8q-.7.6-1.6 0 7.5-6.2 15-12.7.8-.6 1.8-.6Zm22.8 1.8 4 1.7-12.7 7.3c-1.2.4-2.6 3-3.9 1.6q1.6-2.2 4.1-3.4zm-157.2 19.5q-1.5.4-2.9 1.2c-1.2 1.5-6.7 3.8-6.9 5.4a3 3 0 0 0-3 2q-.5.3-.5.7.4-.2.6-.6 2.1-.1 3-2 1.5 0 2.6-.7 3.3-2.4 7-4.1.9-.3 1-1.2c2.4-.1 8.2 6.4 11.7 7.3q-5.8 3.4-11.4 7.3-.6.5-.8 1.2-3.2.6-5.2 3.1c-.9.4-2.6.6-3 1.7 1 1.2 3-.3 3-1.7 1.8.4 4.4-1.6 5.2-3q1.3 0 2.5-.7l11.2-6.6q6 3.3 12 6.1.9.4 1 1.4-16.6 11-32.8 22.5c-1 .6-2.9.7-3 2.2q-2.2.2-3 2.1l-.7.6q.5 0 .7-.6 2.1 0 3-2c5.1-.4 34.4-19.4 41-23.3l17 4.5q0 1.1 1.2.6h.8l20 2.4-.4.6-25 16.4-11.7 7.6q-.7.4-1 1.2a9 9 0 0 0-5 2.8c1 1.3 4.6-1.5 5-2.8 2.1.2 11.5-6 13.7-7.3q15.7-9 31.1-18.2c35.7-.8 71.1-11 95.5-38.5q.4-.6 1.2-.7 16.6 2 32.8 7l-1.6.9-1 .8-1.8 1-1.2.8-5 3.3-3 2-3 1.7-3.5 2.5-1.6.8-1.8 1-1 1-3.1 1.7-6.5 4.6q-.9 0-1.6.7l-1.7 1-1.2.7a62 62 0 0 0-6.5 4.6l-1.6.7-6 3.7q-1.8 1-3.4 2.5-.8.2-1.5.8a48 48 0 0 0-6 3.7l-3.5 2.5-1.5.7q-.9.6-1.9 1l-1.2 1.1-3 1.7a22 22 0 0 0-3.5 2.6q-.8 0-1.4.6l-1.9 1.2-1 .9-6.1 3.7-.8.6q-.7 0-1.3.6-.8.7-1.7 1.1l-1.2.9q-.8.6-1.8 1l-1.2.8-2 1.6-8.1 4.8-1.5 1.5c-2 .8-7.2 3.2-8 5.3q-1.3 0-2.2 1-2 .3-3 2c-1.8 0-3.7 1.5-5 2.8 1 1.2 4.5-1.6 5-2.7a3 3 0 0 0 3-2.1q1.6.5 2.2-1c1.6 0 8.5-4.2 9.7-5.4q4.8-2.2 9.3-5l.7-.8q.8 0 1.5-.5a22 22 0 0 1 3.8-2.2l1.2-.7.7-.6 1.3-.6 5-2.8.8-.6 1.2-.6 3.7-2 1.3-.8 5-3 .7-.6q.8 0 1.3-.6l5-2.8.8-.6q.7-.1 1.2-.6l5-2.9.8-.5q.7 0 1.3-.6 1.8-.9 3.3-2.4 1-.1 1.7-.6 2.8-1.4 5.4-3.4.8 0 1.5-.7l5-2.7.7-.5q.8-.3 1.3-.7l5-2.8a72 72 0 0 0 7-4.3q3-1.3 5.5-3.2l1.6-.7 5-2.8.5-.5 1.5-.7 4.9-2.8q3-1.6 5.5-3.6l1.5-.6 5-2.8q.6-.4.6-1.2 10.8 3.9 20.4 10.2l-1.4.6-1.2.8-3.6 2.6q-.8 0-1.4.6l-1.9 1.2-1.2.8-2.9 1.8q-1.8 1.2-3.5 2.6a3 3 0 0 0-1.5.7l-2 1-1 1-1.8 1-1.2.7-8 5.3-1.8 1q-.6.2-1.2.8l-6.5 4.4-1.5.7-1.7 1.1-1.3.8-6.6 4.4-1.4.7-2 1.2-1 .8-3 1.8-3 2-.6.5a3 3 0 0 0-1.4.8l-2 1-1 1-3 1.7-1.8 1.2-2 1.3-1.3.7-1.8 1.2-1.2.8-1.7 1-1.2.8-3 2-.7.6-1.3.6q-.9.7-2 1.2l-1 .8-1.8 1-1.2.8-1.8 1.2-1.2.8-3.5 2.5-1.6.8-1.8 1.1-16.2 10.1q-1 .7-1.5 1.8c-.7 0-2.2-.1-2.2 1q-2 .2-3 2-1.2 1 0 0 2.7.4 3-2 1.6.3 2.2-1l1.2-.2q8.8-5.3 17.8-10.2l.7-.8q.8-.2 1.4-.8l5.1-2.7.9-.6 1.1-.7 5-2.7.6-.5 3.2-1.7 1.3-.8.7-.6 1.1-.5 5.1-3q.3 0 .6-.4l1.5-.8 3.6-2q.8-.3 1.3-.7l.7-.5q.7-.2 1.3-.7l5-2.8.8-.4 1.2-.8 1.8-1 1.3-.8.8-.5 1-.6q3-1.5 5.6-3.5.8 0 1.4-.7a35 35 0 0 0 5.1-2.7l.7-.6 1.2-.6q2-1.2 4-2.1.8-.3 1.2-.9 2.9-1.4 5.4-3.3l1.6-.8 5-2.7.6-.5 1.3-.6 5-3 .7-.5q.7 0 1.2-.6a15 15 0 0 0 3.6-2.3q.9 0 1.6-.7 2.9-1.4 5.4-3.3l1.5-.7 5-2.8.8-.4 1.1-.8a4 4 0 0 0 1.7-1.4q4.5 2.3 7.4 6.4a35 35 0 0 0-6 4.2l-1.6.6-1.8 1-1.2.8-3.5 2.5q-.7.2-1.5.7l-2 1.1-1 .9-1.8 1-1.2.8q-2 1-3.5 2.6-.8 0-1.5.7l-4.8 2.9-1.2.8-2 1.3-2 1.1-1 .8-3 1.8q-1.8 1-3.4 2.5-.9.2-1.6.8l-1.8 1-1.2.7-1.8 1.2-1.2.8-.6.5q-.8.3-1.5.8-.9.7-1.8 1-.6.4-1 1l-3.1 1.7q-1.9 1-3.5 2.6-.8.2-1.4.7a40 40 0 0 0-4.9 3l-1.2.7q-1.8 1.5-4 2.3-.6.4-1 1l-2 1.1-13.7 8.6q-.8.5-1 1.2c-1.4 0-4.6 1.8-5 3q-2.4-.1-3 2.1-1.2-.3-2 .7c.6 1 2 .2 2-.7a4 4 0 0 0 3-2q2.3 0 4-1.7.7-.5 1-1.4 1 .2 2-.4l19.3-11.2.8-.6q.5-.1 1.1-.5 1.8-1.2 3.8-2.2.8-.3 1.3-.7l.6-.6 1.5-.6q1.8-1.2 3.9-2.1l1.1-1 5-2.7.6-.6q.8 0 1.3-.6l5-2.8.7-.5 1.3-.7 5-2.8.7-.6q.8 0 1.3-.7l3-1.7.8-.6 1.2-.6 5-2.8.7-.6 1.2-.7 5.1-2.7.6-.6q.9 0 1.4-.6l5-2.8.6-.6q.7 0 1.5-.6 1.8-.9 3.3-2.4.9-.2 1.6-.6 3-1.4 5.6-3.3.8-.2 1.4-.8 1.1-.3 1.6-1.4 6.5 6.9 11 15.3-1 0-2 .5l-53 33.2-1 1.4a6 6 0 0 0-4.9 3c-.7-.1-2.1-.1-2 1q-2.1.1-3 2-1.2-.2-1.8.7c.5 1 1.7 0 1.8-.7a3 3 0 0 0 3-2q1.5.3 2-1c1.6-.2 4.4-1.5 5-3q1 0 2-.6l14-8 40.8-23.7c1.8 1.3 3.3 6.2 3.9 8.4q-1 .3-1.7.9l-1.2.8-11.1 7.2-1.9 1-1 1a24 24 0 0 0-4.9 3l-1.2.7-6.5 4.5q-.8.2-1.5.8l-1.5 1.2-1.4.7-2 1.2-1 1-3 1.6-1.9 1.2-1.2.8-1.8 1.2-1.2.8q-1.9 1.1-3.5 2.5-.8.3-1.4.8l-2 1-1 1-3 1.8-1.9 1.1-1.2.8-1.8 1.2-1.2.8q-1.9 1.2-3.5 2.5-.9.2-1.5.8-.8.5-1.5 1.2l-1.5.7-1.8 1.1-1.2 1a24 24 0 0 0-4.8 3l-1.2.7-2 1.7-.8.1-11 7a2 2 0 0 0-.9 1.4q-3.1.6-5 3.1a3 3 0 0 0-3.1 2q-1.2-.3-1.9.7c.6 1 2.2.2 1.9-.8a4 4 0 0 0 3.1-1.9 7 7 0 0 0 5-3q1 0 2-.5l12-6.9.8-1q.8 0 1.5-.4 1.8-1.2 3.8-2.1l1.2-.8.8-.4 1.2-.8 5-2.8.8-.5 1.2-.7 3-1.8 1-.3 1-1a33 33 0 0 0 5-2.7l.7-.5 1.3-.7 5-2.8.7-.5 1.4-.7a37 37 0 0 1 5-2.8l5.5-3.5q.8-.1 1.5-.8 2.9-1.4 5.5-3.2.8-.1 1.4-.7l3.7-2 1.3-.8.8-.6 1.2-.6 5-2.8q3-1.7 5.6-3.5.8 0 1.5-.7 2.8-1.4 5.4-3.3l1.6-.7 2.5-1.4c.8 2.7 2.3 6.7 1.9 9.5q-.8 0-1.5.5-4.8 2.8-9 6-3.6 1.5-6.2 4l-1.4.4c-1.8 1.3-5.7 3-6.7 4.8q-3.1.7-5 3-1.2 0-1.8.8c.5 1 1.8.1 1.7-.7 1.6 0 4.6-1.4 5-3q1.2 0 2.1-.5a21 21 0 0 0 5-3.3l1.3-.4 6.6-3.8 9.2-5.4.9-1c1.4 1 1.2 7.5 1.7 9.5q-5.7 3.9-11.7 7.6-.8.4-.8 1.3h-1.4c-1.7 1.5-6 3-6.8 5q-2.3 0-3 2-1.4-.2-2 1c-1 0-2.8.2-3 1.6 1 1 2.6-.7 3-1.5q1.6.3 2-1.2 2 0 3-1.9c2 0 5.6-2.3 7-3.8l1.2-.5 12.6-6.9q.5 5.7.3 11.3-1.2-.5-2.2.1l-59.7 40c-1.6.6-4.6 2.3-5.2 3.9q-2 0-3 1.5c1 1 2.4-.7 3-1.5q3.3-.7 5.3-3.2c1.5.3 7-3.9 8.8-4.5q.7-.7 1.5-1.2 25.9-14.5 51.4-29.5-.8 12.3-2 24.5-1 0-1.7.5-5.4 3.8-11 7.2c-1 1.4-6 3.5-6.4 5q-2.1 0-3 2.2-1.4-.4-2 .9c-.9.3-2.6.5-2.8 1.7 1 1.3 2.6-.7 2.8-1.7q1.5.3 2-1 2.3 0 3-2.1c2.1.5 6-3 8-3.9l11-6.3c1.8 1.4.5 9.9.3 12.2q-1.2-.1-2.3.5l-30 22.2q-.6.6-.6 1.4h-1.5q-2.5 1.6-4.7 3.7c.7 1.5 4.3-1.8 5-2.5l1.2-.6a986 986 0 0 0 32.4-18.8q-1 7.8-3.6 15.3c-2.2 0-5 3.5-7.2 4.4q-.7.5-.7 1.4c-1 .2-2.9.4-3 1.7.9 1.1 2.6-.9 3-1.7q3.6-1.5 6.8-3.2a54 54 0 0 1-40 36.6l6.8-7.1c.7-.6 3.5-.8 2.6-2q-1.9 0-2.6 2c-3 .5-8.8 4.7-12 6.2q-1.4.7-.9 2.2-13 2.4-26.1 4.2l16.4-13.1a5 5 0 0 0 2.8-2.5q2.1-.1 3-2.2c.7.1 4.1-.8 2.5-2q-2 .3-2.5 2-2.4 0-3 2.2-2.2-.2-3.8 1.3l-24.3 14q-.9.6-.9 1.5c-7 .8-14.4 2.3-21.4 2q23.5-18 47-35.4c-1.7-.9-1.7.9-3 1.5q-30 16.8-60 34.2-.9.5-1.3 1.4-9.7.9-19.3 1.3 0-.6.5-1a480 480 0 0 0 24.4-16.4l1-.1c1.4-1.5 6.5-4 7.1-5.4.8 0 4-1 2.6-2q-2 0-2.6 2c-2-.4-5.7 2.9-7.7 3.7q-.9.4-1.4 1.3-2.5.9-4.7 2.4l-24.3 14q-1 .6-.8 1.6-9.6.6-19.3.7l.3-1q.8 0 1.5-.5 7.5-5.1 15.5-9.8.6-.6.9-1.5c.6 0 2.1.1 2-1 .6 0 3.9-1 2.6-2q-2.2-.1-2.7 2-1.5-.2-2 1l-1.2.2-20 11.6q-.6.4-.6 1.1-8.7.1-17.4-.2l69.3-46.3q.7-.5 1-1.4 2.1 0 3-2 1.4.2 2-1c.6-.2 4-1.2 2.6-2q-2.2 0-2.6 2-1.5-.2-2 1a3 3 0 0 0-3 2c-2.1-.2-6.6 3.5-8.8 4.3v.1a7833 7833 0 0 0-74.2 43q-8.3.1-16.4-.4l7-4.8q5.7-3.3 11.3-7 .8-.5.9-1.4l1.3.3 5.9-3.8q.6-.5 1-1.3c1.3-.1 4.5-1.5 5-3a3 3 0 0 0 3-2c.5.2 2.9-.3 1.6-1.1q-1.3 0-1.6 1-2.2.3-3 2.1c-1.8-.2-4.2 1.5-5 3-2 0-5.5 2.4-7 3.7l-1.4.6-21 12q-.8.5-1.3 1.4c-5.2.6-11.4-.7-16.7-.7q9.9-6.4 20.1-12.6 1.2-.8 2-1.8 1-.1 1.9-.5a76 76 0 0 1 7.4-4.8q.8-.5 1-1.4a3 3 0 0 0 3-2q1.4.3 2-.8 2-.5 3-2a2 2 0 0 0 1.9-.8c-.6-1-2-.2-1.8.8-1.3 0-3 .4-3 2-.7-.2-2.2-.3-2 .8q-2.2.3-3.1 2c-2.3 0-7.3 3.9-9.7 4.9q-.9.5-1.4 1.4c-1.8 0-4.9 2.6-6.5 3.6q-8.6 4.5-16.8 9.4-.8.6-1.4 1.4c-2.4-.1-15.2-.4-16.1-1.4l.7-.4 1.5-.8a34 34 0 0 0 4.8-3l1.2-.7 9.4-6.5a9 9 0 0 0 3-2q1-.2 1.5-.8l2-1 1-.9 3-1.8 6.6-4.5 1.6-.8 1.4-1.2q.8-.2 1.5-.7l1.8-1.1 1.1-1 3-1.7q5-3.1 9.5-6.6.9 0 1.6-.6l1.5-1.4 1.5-.6 7.8-5 1.2-.8 3-2 .8-.6 1.2-.6 1.5-1.4q.8-.1 1.5-.6l2-1.2 1-.9 3-1.7q.8-.7 1.8-1.2l1.2-.8q.8-.8 1.8-1.3l1.2-.7a23 23 0 0 1 5-3.2l1.6-1.4q1-.1 1.7-.7l7.4-4.7q.7-.5 1-1.4a3 3 0 0 0 3-2c.6.3 2.6-.2 1.5-1q-1 0-1.4 1-2.2.2-3.2 2c-2.2 0-8.6 4.6-11 5.7q-1.8 1.5-4 2.4l-1.1.8-.8.5q-.8 0-1.3.5-.7.8-1.8 1.2l-1.3.7-.5.6q-.8 0-1.5.6l-12 6.8-.8.5-1.1.7-5 2.8-.7.5q-.7 0-1.3.7l-3.8 2.2-1.2.8-5 2.8-.6.5q-.8.3-1.3.7l-5.1 2.8-.8.5q-.7.2-1.3.7l-4.9 2.8q-3 1.6-5.6 3.6-.8 0-1.4.6-3 1.4-5.5 3.3l-1.5.8-5 2.7-.7.5-1.4.7q-1.7 1.2-3.8 2l-1.1 1q-3 1.3-5.5 3.4-.7 0-1.5.6l-5 2.8-.8.5-1.2.7-5 2.8-.6.6q-.8.2-1.4.7t-.6 1.2q-8.3 0-16.5-1.5L211 462q2.2-1.2 4-2.8l1-.2c1.4-1.2 6.7-3.4 7-5a3 3 0 0 0 2.9-2q1.4.1 2.1-1 2-.3 3-2c.4.2 2.7-.3 1.6-1.1a2 2 0 0 0-1.6 1.2q-2.2 0-3 1.9a2 2 0 0 0-2.1 1q-2 0-2.9 2a13 13 0 0 0-7 3.9l-1.3.2a10 10 0 0 0-3.7 2.7q-1.5.3-3 1.3l-54 31.2c-6 1.3-23.1-2.5-30.3-2.6l1-1q.9 0 1.6-.7l3-1.7 3.6-2.5 1.4-.7 1.9-1.1 1-1q3.6-1.8 6.5-4.2 1-.2 1.7-.8l1.7-1 1.2-.7 3.4-2.5 1.5-.8 2-1 1.2-1q3.3-1.8 6.3-4.2 1-.2 1.6-.8l1.7-1 1.2-.8 3.1-1.9q1.9-1.3 3.9-2.3l1-1 3.1-1.7q1.9-1.2 3.5-2.5.8-.2 1.5-.8a80 80 0 0 0 9.6-6.2l1.4-.7q.8-.6 1.8-1l1.2-.8a33 33 0 0 1 5-3.2q1-.9 2-1.1l1-1 2-1.1q6.7-3.9 13-8.1 1-.7 1.7-1.7a8 8 0 0 0 5-3.1c.7 0 2 .1 2-1 .6-.1 3.9-1 2.6-2q-2.2-.2-2.7 2-1.2-.2-2 1a6 6 0 0 0-4.9 3.1q-1-.1-2 .4l-14 8.1q-2 1.5-4 2.4l-1.3.7-.8.5q-.6.2-1.2.7l-5 2.9-.7.4-1.4.7-3 1.8-.6.6-1.3.6-5 2.8-.8.5-1.2.8-5 2.7-.8.6-1.3.6-4.9 2.8-5 3-.6.6q-.8 0-1.5.6l-3.7 2-1.2.8-.6.5q-.8.1-1.4.7l-5 2.8-.8.6q-.7 0-1.2.6l-5 2.8q-3 1.6-5.6 3.6-.7 0-1.5.6a68 68 0 0 0-7 4l-5 2.8-.6.6q-.8.1-1.4.6l-1.7 1-1.2.8q-.4 0-.8.3-.7.2-.7.9c-3.3.3-6.9-1.6-10-2.6q-1-.2-1.1-1l1.2-1q3.3-2.1 6.5-4.6.8 0 1.5-.6l3-1.9q3.3-2 6.4-4.4l1.7-.7q.8-.7 1.8-1l1-1q3.5-2 6.6-4.3l3.4-1.9 1.1-.8 1.8-1 1.2-.8q1.9-1.1 3.5-2.6.8-.2 1.5-.6l2-1.2 1-.8 1.8-1 1.2-.8 3.6-2.5 1.4-.7 1.5-1.3q.8-.3 1.5-.8l3-1.7q3.4-2.1 6.5-4.6.8 0 1.5-.6l1.8-1 1.2-.8 1.8-1.2 1.2-.8q1.8-1 3.5-2.5.8-.2 1.5-.8l1.7-1 1.2-.8 1.9-1.1 1.2-.8a13 13 0 0 0 3.4-2.6 3 3 0 0 0 1.6-.6l2-1.1 1-1 3-1.7q2-1.2 3.6-2.5l1.5-.7a6 6 0 0 1 1.9-1.2l1-.8q.8-.7 2-1.2l13.7-8.6q.8-.5.9-1.3 2.2 0 3-2 1.6.5 2.1-1c1-.3 4.6-1.2 3.6-2.8-1.1.2-3.5 1.4-3.6 2.8q-1.4-.3-2 1-2.2 0-3.1 2a4 4 0 0 0-2 .3l-16 9.6q-2 1.2-4 2l-1.2.8-.7.5q-.8.2-1.3.8l-1.8 1q-.7.2-1.3.7l-.8.5q-.6.2-1.1.6l-5 3q-.4 0-.8.4l-1.2.8-5 2.7-.8.5-1.2.7-15.8 9-1.3.8-.8.5-1 .7-5.1 2.8-.7.6q-.8 0-1.3.6L151 450l-1.3.7q-3 1.6-5.5 3.6-.8 0-1.6.6a61 61 0 0 0-6.9 4l-5 2.8-.7.6-1.3.6-5 2.8q-2.9 1.6-5.5 3.6l-1.5.6q-3 1.4-5.6 3.3l-1.4.8-3.8 2-1.2.7-.7.6q-.8 0-1.3.7l-3.9 2-.9.8-.8.6a40 40 0 0 1-14.2-13.7q1.2 0 2.3-.6l1.1-1a73 73 0 0 0 6.5-4.3l1.5-.8 2-1 1-1 3-1.7q1.9-1.1 3.5-2.6.8-.2 1.4-.6l2-1.2q.6-.3 1.1-.9a38 38 0 0 0 6.5-4.2q.9-.1 1.5-.7 1-.7 2-1l1-1 3-1.8c1.6-1.4 5.3-3 6.4-4.7q.9 0 1.6-.6l1.8-1 1.2-.7 1.8-1.2 1.2-.8q1.8-1 3.5-2.5l1.5-.7 3-1.8 3-2q1.8-1.1 3.5-2.4l1.5-.8 3-1.8q.8-.7 1.8-1.2l1.2-.8 3.5-2.5q.8-.2 1.5-.8l2-1 1-1a46 46 0 0 0 7.9-4.9l1.8-1.1q.8-.2 1.3-.8.8-.8 2-1.4l5.7-3.5q.8-.3.8-1.1l1.2-.2c1.5-1.3 6.4-3.3 7-5q2.1-.1 3-2 1.4 0 2-1c.8.2 4.2-.8 2.6-2q-2 .1-2.6 2a2 2 0 0 0-2 1q-2.1.1-3 2c-2 0-5.7 2.3-7 3.8l-1.3.4-7.8 4.4a12 12 0 0 1-4 2.4l-1.2.7-.8.5-1.2.8-5 2.7-.6.5q-.8.2-1.4.7l-5 3-3.8 2-1.2.8-.7.6q-.8.1-1.3.7l-5 2.7-.7.5-1.3.7-3.9 2-1.1 1.1a26 26 0 0 0-5 2.7l-1 .4q-.6.3-1 .9l-5 2.7-.6.5q-.8.2-1.4.8a33 33 0 0 0-5 2.7l-.8.5-1.2.7a59 59 0 0 0-7 4q-2 1-3.5 2.3l-1.5.7q-3 1.4-5.6 3.3l-1.4.7-5 2.8-.7.5-1.3.8a30 30 0 0 0-5 2.7q-3 1.6-5.6 3.6-.8 0-1.4.7-1 .2-1.4 1.4A96 96 0 0 1 67 425.9c2.6.2 9.6-5.5 11.8-7.2q.9 0 1.5-.7l1.7-1.3q.8-.2 1.3-.6 1-.7 2-1l1-1.1 2-1 1.1-1 3-1.7 15.6-10.5q.8-.2 1.4-.8l2-1 1-1 2-1 1-1 3-1.7q.8-.7 1.8-1.2l1.2-.8 1.8-1.2 1.2-.8 3-2q2-1 3.5-2.6.8-.1 1.5-.7.8-.4 1.4-1.2.9-.2 1.6-.7l1.9-1.1 1.1-.9 1.7-1.1 1.2-.8q.9-.7 1.9-1.2l1.2-.7q1-1 2-1.6a29 29 0 0 0 4.5-3c2-.9 7.4-3.8 8.1-5.7 1 .1 6-2 4.7-3-1.4-.2-3.9 1.8-4.7 3q-1 0-1.9.5a50 50 0 0 0-7 4.5 46 46 0 0 0-7.3 4l-5 2.7-5 3-.8.6-1.2.6-3.8 2-1.2.8a47 47 0 0 1-7 4l-.8.5-1.3.7q-1.8 1.2-3.9 2.2l-1 .9a28 28 0 0 0-5 2.7l-.7.5-1.4.7-7 4-5.6 3.3-1.3.8q-2 .9-3.6 2.1a65 65 0 0 0-7 4.1 2 2 0 0 0-1.3.8 33 33 0 0 0-6 3.2l-1.1.8-5.7 3.2a48 48 0 0 1-.8-10.5q.8.1 1.5-.4C84 397.1 101.3 385 119 374.5q.9-.4.7-1.3a7 7 0 0 0 5.2-3.2c.9 0 4.5-.7 2.5-1.9q-1.8.2-2.5 2a8 8 0 0 0-5.2 3c-1.8.2-11.3 6.4-13.8 7.4q-20.4 12-40.9 23.7-.6-5.7 0-11.5a3 3 0 0 0 1.8-.4L133 347a6 6 0 0 0 2-1.7l1.2-.4a5 5 0 0 0 1.8-2q2 0 3-1.8a2 2 0 0 0 1.8-.8c-.6-.9-1.6.1-1.8.8a3 3 0 0 0-3 1.8q-1.4 0-2 .9l-1.2.3-1.9 1.5q-1.5.5-2.9 1.4-32.4 18.8-64.9 37.3-.3-5.7.1-11.6.9.4 1.8-.1l34.5-23.6q2.3-1.5 4.5-2.6.8-.4.8-1.3c.7-.2 4-1 2.7-2a3 3 0 0 0-2.7 2q-3 0-4.7 2.5-17.3 9.6-34.5 19.6l-2.3 2q.6-6.1.8-12.4c2.6-.6 13.1-9 16.5-10.7L84 345c1.4-1 4.5-2.5 5-4q2 0 3-2a2 2 0 0 0 1.8-.7c-.6-.9-1.6.1-1.8.7q-2.2 0-3 2-3 .5-5 2.6l-3 1.5q-7.1 3.8-13.9 8.3l-1-.3c1.4-30.5 22.4-48.9 48.9-60v.6q0 .9-.5 1.3a680 680 0 0 0-21 20.4c1 .8 3.3-1.3 4.1-1.6l49.4-28.5q1.6-1 2.7-2.2c2.8-.7 10-2.8 12.4-2.2 1.8 2 11.8 12 11.7 13.4Zm175-8.2c.6-.3 4.3-1 2.9-2.2q-2.4 0-3 2.2Zm-139-1.8.1 1.7q-7.5 5-15 10.3-1.5-.9-2.7-2a299 299 0 0 0 17.6-10ZM364 288q-1.5-.2-2 1-2.1 0-3 2-1.2-.3-2 .7c.6 1 2.2.2 2-.8a3 3 0 0 0 3-1.9q1.5.3 2-1 1 0 2-.6 2.1-1.2-.3-1.2-1 .6-1.7 1.8Zm-248.7.9c-2.9.8-15.4 5.4-17.3 5.8l.3-.8 12.4-6.7q2.8-.8 4.6 1.7ZM397 287q4.4-1.2 6.3 3-3.3-.6-6.4-2zm-150 26.6q-6.2-.5-12.2-1.8l.4-.9q1.3-1 2.9-1.4c2.7-2.5 7.3-3.6 9.8-6.1 4.3-2.2 14.8-7.9 18.9-11l6.1-2.6q1.2 0 .6 1-13.7 11-26.5 22.8Zm168.4-19q-3.8-1.2-7.7-2.8a2 2 0 0 1 1.9-.8q4.3-.4 5.8 3.7Zm-22.4 5.8c.7 0 6-2.4 4.7-3.3-1 .2-4.7 1.8-4.7 3.2Zm-171.3 8.2-2.9-1q6.6-3.5 12.7-7.8 1.2-.7 2.5-.2 0 .7-.8 1l-8.5 5.5zm-64-3.6q.9 0 1.3-.5-.8-.4-1.2.5Zm55.4 19q-1.1-.1-2.2.4-2 1.7.6 1.3 1-.6 1.6-1.7c1 0 5.8-1.8 4.6-3a7 7 0 0 0-4.6 3Zm-54.3 16q.8 0 1.2-.6-.9-.4-1.2.6Zm121 44q.8 0 1.2-.5-.8-.4-1.2.5Zm-45 18c.3 0 1.9-.3.9-.8a1 1 0 0 0-.8.9Zm203.3 4q-2.2 0-3 2-1-.2-2 .7c.7 1 1.9.1 2-.6q2.2-.3 3-2.2c2 .3 5.4-2.4 7-3.5q1.6-1 0-1.5c-1.4 1.2-6.5 3.6-7 5ZM69.7 436q.8 0 1.2-.6-.9-.4-1.2.6Zm6.4 17c1.2 1.8 4-.6 4.8-1.7-.8-1.5-3.6 1.7-4.8 1.7Zm16.7 20.2c.5 0 2.7-.4 1.7-1.3q-1.4 0-1.7 1.3Zm-9 8c1.3.6 6 2.6 6.3 4q-5.2 1.3-6.3-4Zm18 9c1.6 1 5.8 1.7 6.7 3.2-3.2 1-6.4.7-6.8-3.1Zm246.5 10.1c-3.4 2-6.6 4.7-10.5 2.5q-.9-.6-1-1.5zm-38.1 3.5c0 1.2-3.4 1.7-4.3 2.3-1.1 0-3.8.2-4.3-1 1-1.8 6.7-.9 8.6-1.3Z"/><path fill="#eda580" stroke="#eda580" stroke-width=".5" d="M230.4 10a105 105 0 0 1-10.7 3c.2-1 5.6-3.3 6.8-3.9 1-.1 3.6-.3 3.8.9Zm29.8 3.2-.2.5q-2.2 1.3-4 3 .3 0 .4.3c1-.2 4.3-1.5 4.4-2.8l2.3-.5c2.8 0 9.8 1 11.9 2.4l-.4.9c-3.2 2.7-32.3 22.9-32.5 23.8-1 .4-2.8.7-3 1.9 1 1.3 2.7-1 3-2 2.1.3 2.2-.3 3.8-1.5l34.2-19.6q1-.7 1.1-2c8.2 2.7 23.4 10.1 28.8 16.4-20.4 13.7-40.6 28-61 41.6q-.9.4-.8 1.3-2.5 0-3.1 2.2a2 2 0 0 0-2 .6c.5.8 1.8.2 2-.6a4 4 0 0 0 3.1-2.2q1 0 1.9-.3a6461 6461 0 0 1 64-37.1q.9-.5.8-1.5 4.4 3.2 7.4 7.7-1.2.3-2.3.9l-45.4 30.6c-1.4 1.4-1.5 1.8-3.7 2.3q-.8.5-.8 1.4-2.3 0-3 2a2 2 0 0 0-2 .7c.6 1 1.7.1 2-.6q2.1-.3 3-2.1 1 0 2-.3c16.9-10.5 34.6-20.2 52-30.2a2 2 0 0 0 1-1.4q3.2 3.8 5.7 8-28.6 19.3-56.7 38.7l-3.9 3c-.7 1-3.2.6-3 2.2-1 .3-2.9.5-3.2 1.8 1 1 2.7-1 3.2-1.8q2.4.3 3.6-1.8 32-17.8 63.3-36.5 6.3 12.6 9.3 26.3-.6.8-1.4 1.4l-40.4 27q-.8.5-1.4 1.3c-1 .8-3.4.5-3 2.3-1.9 0-4 1.3-5 2.8.6 1.3 4.7-1.7 5-2.8l1.8-.3 45.1-26.4q.5 0 .6.6l1 8.8q0 .9.8 1.5a37 37 0 0 1 10.7 3q-1 1-2.3 1.1l-44.2 30.1-6.1 3.9q-1 .6-1.5 1.7c-1.9 0-3.9 1.5-5 2.8.8 1.7 4.3-1.8 5-2.8 2 .2 6.9-3.7 9-4.4q.6-.8 1.4-1.3 23.1-12.9 46-26.2l1.6-1.4c2.1 1.8 5.4 5.7 5 8.6-3.7.8-7.8 4.6-11.2 6.4a2 2 0 0 0-.9 1.3c-1.6 0-4.4 1.6-5 3q-2.3 0-3 2.1-1.1-.2-1.8.7c.5 1 1.7 0 1.9-.7 1-.5 2.9-.5 2.9-2a7 7 0 0 0 5-3q1 0 2-.4 4.5-2.8 9-5.2.8-1 1.8-1.7 2.3 5 2 10.5c-19.9 13-39 27.3-58.8 40.4q-.8.4-.8 1.3-2.2 0-3.2 2-2-.2-2.8 1.7c1 .9 2.4-.8 2.8-1.7q2.3 0 3.2-2 1.5 0 2.5-.5c8.9-5.8 22.1-12.9 31.6-18.4h.5l-1 14.2-1 .2q-9.3 6.2-18.3 12.9-1.8 0-2.3 1.6c-.5.4-4.3 1.1-2.8 2.2 1.7.1 1.7-1.4 2.8-2.2l3.7-1.5q8-4.9 16.1-9.3l.8-.2a68 68 0 0 1-3.6 15q-1.2 0-2.2.7l-26.7 20.7q.7.8 1.7.3 11.5-7 23.2-13.6l.5-.2c-3 9.3-12.6 21-20 27.4a88 88 0 0 1-61.7 20c1-2.7 5.2-4.3 7-6.7 3-1.3 4.5-4.3 7.5-5.7q0-.6-.6-1.1c6-2.3 19.1-12.6 23-16.6.7-.6 2.7-.6 2.9-1.7-.9-1.3-2.3 1.2-3 1.7-2.7 0-4.9 3-7.5 3.7L240 240.3q-8-1.4-15.7-4.2-1-.2-1.3-1.2 7-3.8 14-8 2.2-.8 4.5 0c2 0 25.6-17.2 29.2-19.6q1.3-1 2.2-2.2 2.2-.1 3.2-2l.5-.6q-.5 0-.5.5a3 3 0 0 0-3.2 2.1 6 6 0 0 0-2.5.7L221 234.4q-5.9-1.8-10.9-5.3 1.5 0 3-.6l60-41.5c1-.8 4.6-2.6 4.8-4 .7-.3 3.8-.9 2.6-2q-1.8.2-2.6 2-3 .4-4.9 2.7-1.5.3-3 1.4a5584 5584 0 0 0-66 38.3c-1.5-1.7-6.8-4.6-7.2-6.6l1.2-.4 10-6.7c1.7-.7 4.2-2 5-3.7 1.5-.2 4.7-1.4 5-3 .9.3 4.2-.8 2.7-2q-2 .3-2.8 2a6 6 0 0 0-4.9 3 7 7 0 0 0-5.3 3.2q-.8-.1-1.7.3-5.2 3.3-10.8 5.9c-2.4-1.2-4.7-4.5-6.7-6.4l53.6-35.5q.8-.4.8-1.3c.9.2 4.1-1.1 2.6-2.1q-2 .3-2.6 2-.7 0-1.3.2-27 15.8-54.3 31.3-1 .5-1.3 1.6-6-8-10-17.1 1 .1 2-.4 22-14.7 43.8-29.6c.8-.8 4.7-1.3 4-3q2.3 0 3.2-2.2c.6.3 2.8-.2 1.5-1q-1.2 0-1.5 1-2.1.4-3.2 2.2-.7 0-1.2.3l-50.3 28.8a133 133 0 0 1-6-29.2q1.2-.2 2.4-.8l51-35 7.4-4.7q.9-.4.7-1.3c1.1-.3 3-.3 3-1.8-1-1-2.5 1-3 1.8-1.3-.3-2.3 1.4-3.7 1.6q-30 17.2-60 35-6-.7-11.3-4L205 114q3-1.5 5-4a3 3 0 0 0 3-2 2 2 0 0 0 2-.7c-.7-1-1.7 0-2 .7q-2.2.2-3 2-3 .5-5 2.7-1.5.4-3 1.4c-16.5 9.5-35.8 19.1-51 30.2q-3.4-3.7-5.4-8.2l60-41a8 8 0 0 0 2.2-2c.4-.4 4.4-1.1 2.8-2q-2.1 0-2.8 2a46 46 0 0 0-5.8 2.7l-57.9 33.5q-1-.6-.9-1.8-1.3-15.8 13.6-21.2c3-1.1 9-1.4 10.8-4.2 1.9-7 1.6-15.7 4.2-22.4 1.5.5 23.1-16 25-17.6.5-.4 4.3-1.1 2.8-2.1q-2 .4-2.7 2.1a4 4 0 0 0-3.8 1.6l-20.2 11.6a82 82 0 0 1 36.8-51c5.2-3 14.7-7.6 20.5-8.2l-.6.8-12.3 10.4q.7.6 1.7.3 10.4-6.3 21-12.3.5-.6.7-1.4l1.4-.2c5.1-1.1 12.8-.5 18.1-.5Zm74.4 60.1q1.3 0 2.3-1c-.7-1-2 .2-2.3 1Zm31.5 67.5C365 147 354.5 151 348.7 151q0-.6.7-1 8.4-4.5 16.7-9.3ZM277.8 202q.7 0 1-.7-.7-.3-1 .7Z"/><path fill="#eda681" fill-opacity=".3" stroke="#eda681" stroke-opacity=".3" stroke-width=".5" d="M218 205c-.4 1.6-3.5 2.8-5 3 .8-1.7 3-3 5-3Z"/><path fill="#eda580" fill-opacity=".5" d="M306 175c-.4.8-1.8 2.5-2.8 1.6q.7-1.9 2.8-1.7"/><path fill="#eea781" fill-opacity=".3" stroke="#eea781" stroke-opacity=".3" stroke-width=".5" d="M309.2 172.9q-1 2-3.2 2 1-2 3.2-2ZM276.1 203q-1 2-3.2 2.1a3 3 0 0 1 3.2-2Z"/><path fill="#eda581" fill-opacity=".5" d="M229 155q.3-1.2 1.5-1.1c1.3.8-.9 1.3-1.5 1"/><path fill="#eda581" fill-opacity=".4" stroke="#eda581" stroke-opacity=".4" stroke-width=".5" d="M303.1 145c-.7.8-4.2 4.4-5 2.7 1.1-1.3 3.1-2.8 5-2.8Zm-25.3 57q.3-.9 1-.6-.3.6-1 .7Z"/><path fill="#eda480" fill-opacity=".3" stroke="#eda480" stroke-opacity=".3" stroke-width=".5" d="M354 128a7 7 0 0 1-5 3c.5-1.5 3.4-3 5-3Z"/><path fill="#eda480" fill-opacity=".4" stroke="#eda480" stroke-opacity=".4" stroke-width=".5" d="M267.2 100.9c-.5.9-2.1 2.9-3.2 1.8.3-1.3 2.2-1.5 3.2-1.8Zm10.7 82.1a3 3 0 0 1 2.6-2c1.2 1.1-2 1.7-2.6 2Z"/><path fill="#eea581" fill-opacity=".5" d="M334.6 73.3c.2-.8 1.6-2 2.3-1q-1 1-2.3 1M321.2 183c-1.1.8-1 2.3-2.8 2.2-1.5-1 2.3-1.8 2.8-2.2"/><path fill="#eda581" fill-opacity=".4" d="M196.9 62.1q.8-1.9 2.7-2.1c1.5 1-2.3 1.7-2.7 2.1m21 142.8q.9-1.6 2.7-1.9c1.6 1.2-1.7 2.3-2.7 2"/><path fill="#262626" stroke="#262626" stroke-width=".5" d="m254.7 7 8.5.3q4.5.6 9 .8c.5 1.2 5.6 1 6.8 1.1l1 .2 11.7 3.5 1.3.5q1.4.8 2.7.9.6.4 1.3.5l1 .4q2.2 1.2 4.7 2 1 .8 2.2 1 .4.6 1 .6l1.1.5 8 4.7a98 98 0 0 1 44.2 75.3q.3.7 1.1 1c21.1 5.4 26.4 28.2 13.8 44.8q-1 .3-.8 1.2c-2.6 2.7-6 4.8-9.3 6.7l-1 .3q-.7 0-.7 1c-1.5-.4-5.2.3-6.4 1.3q-.3 1.2-.2 2.6a99 99 0 0 1-29.1 62.6l-1 1a67 67 0 0 1-8 7.1q-1.4 2.2-.4 4.5c5.7 23.6 24.3 35.7 45.7 43.8q2 1.2 4.4 1c2.3 1.3 5.9 3.1 8.6 2.9a9 9 0 0 0 6 2c1.3 1.4 10 3.3 12.1 4.2q1.4.7 3 .8 3 1.5 6.3 1.8 2 1.3 4.4 2l7.6 2.8c30.8 13 44.6 32.1 43.2 66.4 2.4 25.6 2.9 51-3 76.3-.8 3.7-4 11.5-4.3 14.7q-.6 0-1 .6a7 7 0 0 0-1.1 4.4q-.8.2-1 .9a100 100 0 0 1-12 18l-.2.8q-1 .4-1.3 1.3l-.7-.3q-1 .4-1.1 1.3a70 70 0 0 1-26.5 14.8q-1.8 0-3.3.9c-8.6 2.2-17 2-25.7 3.2-1.9.1-6.8-.7-7.8 1.2q-.5-.6-1.1-.8a344 344 0 0 0-20 2q-6 .3-11.6 1-13.4.8-26.6 2.4c-2 .5-7.6-.5-8.6 1.3l-1.2-.7q-8.7.6-17.2 1.5l-1.2.3-21.6 1a8 8 0 0 0-3.8.1c-46.8 2-102 2-146.6-14h-1.5c-1-1.4-5.1-2.2-6.8-3-2.5-1-9.5-5.2-11.6-5-.3-1.5-5-3.5-6.3-4q-.7-1-1.6-1.4c-1.4-1.2-4.4-3.9-6.2-4-1.3-2-11.1-9.6-13.2-13.2L59 448.4q.4-2.4-.8-4.5 0-3-1.2-5.6c-.1-1 .4-3.2-.9-3.6q0-.9.4-1.8-4.5-26-5.3-52.4c.5-36.8 7-68 43.5-84.4q1-.2 1.5-1.1l.5-.2 1.2-.1c1.9-.4 14.4-5 17.3-5.8 34.9-8.3 70.2-16 80-55.9q.2-.8-.3-1.4c-26.6-19.6-34.8-42.1-39.5-73.7q-.7-.8-1.9-1.4c-19.9-5.5-29.1-22-18.5-41.2q.8-.5 1.2-1.3-.1-.6.2-1a37 37 0 0 1 18.5-12q.8-.3 1-1c3.2-27.2 12.3-50.2 33.1-68.7l1-.9q1-.5 1.3-1.4.6-.6 1.5-.6a98 98 0 0 1 24.3-14.1l.5-.2c.5 0 2.3 0 2-1a105 105 0 0 0 10.7-3.1c8-1.4 16-2.7 24.3-3Zm-14 7c-3.2-.2-6.7.3-9.6 1.7l-1 .4c-5.7.6-15.2 5.2-20.4 8.2a82 82 0 0 0-36.8 51q-1 2.1-1.4 4.5l.3-.1c-2.6 6.7-2.4 15.3-4.3 22.4-1.8 2.8-7.8 3-10.7 4.2q-15 5.4-13.6 21.2-.1 1.2 1 1.8c-1.2 1.8.7 5 1.4 6.8q2 4.5 5.3 8.2 2 1.5 4 3.4 5 3.4 11.2 4c3 0 2.2 3.4 2.2 5.3 1 10 2.7 19.6 6 29.2l1.6 3.9q4 9.1 10.1 17 1.1 2 2.5 4c2 1.8 4.3 5 6.7 6.3q.3 1.2 1.6 1.4c.4 2 5.7 4.9 7.1 6.6l1.7.8a4 4 0 0 0 3.2 1.7q.3.9 1.3 1.2a40 40 0 0 0 13 5.8q0 .9 1.2 1.2a94 94 0 0 0 15.6 4.2 9 9 0 0 0 5.7.5c1.1 1.8 5.5 1 7.4 1.3 23.9.5 43-4.7 61.7-20a72 72 0 0 0 20-27.3l.6-.8q2-3.3 2.8-7 2.7-7.5 3.7-15.1l.3-.9.2-2q.6-.2.6-.9l.9-14.1.5-.9a7 7 0 0 1 4.4-2c5.8 0 16.2-4 17.4-10.3a1 1 0 0 0 1-.7q1.5-4.4 1.8-8.9.1-5.5-2.1-10.5 0-.7-.8-.5c.5-3-2.8-6.8-4.9-8.6a18 18 0 0 0-4-3.4 37 37 0 0 0-10.6-3.1q-.7-.6-.7-1.5l-1.1-8.9q0-.4-.6-.5.3-2.7-.7-5.3-3-13.7-9.3-26.3-1.5-2.8-3.3-5.5-2.4-4.5-5.8-8.1a8 8 0 0 0-2.7-3.3q-3-4.5-7.4-7.7c-.8-1.4-3.2-3.8-4.9-4a82 82 0 0 0-28.8-16.3l-4.8-1.7-1.4.1a33 33 0 0 0-11.9-2.4 5 5 0 0 0-2.9-.5c-5.3 0-13-.6-18 .5q-.9-.7-1.5.2ZM297 241.2q-1.3-.4-2 .6-1.2 0-1.8.8-1.5.4-2.4 1.5c-1.4-1-5.7 1.8-7.5 1.7-.5 0-2.2 0-2 1a132 132 0 0 1-49.6 1 8 8 0 0 0-4.8-.9q0-.5-.5-.8-7.8-2.2-15.4-5.2-1.8-1.2-3.7-2c-2.9-1-2.8 3.3-3.5 5l.4.7c-1.2 2.3-9.4 15-9 16.4q-1 0-1.4 1-.8.3-1.4.8-3 3.3-6.5 6.4a66 66 0 0 1-10.1 5.8q-2.5 1.4 0 3.3l.2.8c1.6 1.4 6.1 7.8 8 7.8q0 .8.9.8c-.1 1.7 5.8 5.4 7.3 6.5q1.2 1.1 2.7 2a69 69 0 0 0 13.9 7.6q4.8 2.2 10 3.7l2.8 1q6 2 12.3 2.8l.8.4q6 1.4 12.2 1.8a66 66 0 0 0 15.2 0q.9.3 1.7.3 5.3 0 10.3-.9 14.4-1.6 27.7-7 1.5 0 2-1.2c3.5.5 15-7.2 18.2-9.5q.7-.6.8-1.5.9 0 1.4-.8 7.5-5.5 13-13c2-2.3-.5-2.8-2.2-3.5l-4-1.7c-2.7-1.6-6.2-5-9-5.9.1-1.4-3-3.6-3.7-5l-6.1-7.8-.2-1.3c-3.3-5.4-5-11.3-7.1-17.1q-.4-.5-1 0zM149.7 283a150 150 0 0 0-34.7 10c-26.5 11.1-47.4 29.5-48.8 60l-.2 1v2.7l-.8 16q-.4 5.8 0 11.5-.7 4.2-.1 8.4-.6 5.8 0 11.5-.2 2.3.1 4.5-.2 5.3.8 10.5 0 3.4.9 6.7a96 96 0 0 0 12.4 37.5c.8 1.2 2 4.3 3.6 4.3a40 40 0 0 0 14.2 13.7 17 17 0 0 0 8 3.9q.3.8 1.1 1c3.1 1 6.7 3 10 2.6-.2 1 1.3 1 2 .8q2.7.7 5.5 1c7.2 0 24.4 3.9 30.3 2.6.2 1.6 3.4 1.3 4.6 1.4q8.2 1.5 16.6 1.5c1.7 1.2 8.6 1 10.9 1 .9 1 13.7 1.3 16 1.4l3.5.4c5.3 0 11.6 1.3 16.7.7l3.3.3q8.3.5 16.4.5 6.3.6 12.7.2a287 287 0 0 0 21 0q9.8 0 19.4-.6h5.9l19.3-1.4c4.4-.3 13.6-.3 17.3-1.8 7 .4 14.5-1.1 21.4-1.9q4.9-.4 9.8-1.2 13.1-1.7 26.1-4.2c1.7-.5 4.7-.3 6-1.3a54 54 0 0 0 40-36.6q.9-1.2 1.2-2.6a81 81 0 0 0 4-21.2c.3-2.3 1.6-10.8-.2-12.2q.5-1.2 0-2.5a559 559 0 0 0 2.2-30 82 82 0 0 0-.4-14.1c-.5-2-.3-8.4-1.7-9.4q.1-.7-.2-1.5c.4-2.8-1-6.8-1.9-9.5q-.6-3.5-2.2-6.6c-.6-2.2-2-7.1-4-8.4q.1-1.6-.8-2.8-4.5-8.4-11-15.3-1.3-2.3-3.6-3.5-3-4.1-7.4-6.4c-.6-1.6-4-3.5-5.6-4.4a97 97 0 0 0-20.4-10.2q-3.6-1.8-7.6-2.9a181 181 0 0 0-32.8-7q-.7 0-1.2.7c-24.4 27.4-59.8 37.7-95.5 38.5q-2.8-.6-5.8-.4l-1 .1-19.9-2.4q-.5-.5-1.2-.5l-.7-.1-17.1-4.5a6 6 0 0 0-5.2-1.5q-.1-1-1-1.4l-12-6-1.5-1.4c-3.5-.9-9.3-7.4-11.8-7.3q0-.7-.8-.7c.1-1.5-10-11.4-11.7-13.4-2.4-.6-9.6 1.5-12.4 2.2Z"/><path fill="#e59a7a" stroke="#e59a7a" stroke-width=".5" d="M266.9 228.7q.6.5.6 1.1c-3 1.4-4.4 4.4-7.6 5.6-1.7 2.5-5.8 4-7 6.7-1.8-.3-6.2.5-7.3-1.3zm45.1 26-1.1.2-7.7 5.7c.3 1 1.2.3 1.8.2l7.2-4.7 6 7.9c-1.9 1.4-9.8 7-10 9q-1 .1-2 .7-7.3 6.5-14.9 12.7.7.6 1.6 0l16.4-9.8c2.7-1.6 11-5.8 12.7-7.7 2.8 1 6.3 4.3 9 5.9l-8.5 7.2q-2.4 1.3-4.1 3.4c1.3 1.3 2.7-1.2 4-1.6l12.6-7.2c1.7.6 4.1 1.1 2.3 3.5a69 69 0 0 1-13 12.9q-1 0-1.5.9-1 0-1.8.5l-16 9.3q-.8.4-1.3 1-1.5 0-1.9 1.4-13.4 5.2-27.7 7c1-2.7 10-9 12.2-11.4q.6-1-.6-.9-2.7 1.6-5.6 2.8-2 1.4-3.7 3c-4.2 1-8.8 4.6-12.6 6.7q-1-.5-1.7.4a66 66 0 0 1-15.2-.1q12.9-11.8 26.5-22.7.6-1-.6-1.1l-6.1 2.7c-4.1 3-14.6 8.7-19 10.9-2.4 2.5-7 3.6-9.7 6.1q-1.5.5-2.9 1.4l-1.2.5q-6.3-.7-12.3-2.8l3-2.5 8.5-5.5q.7-.3.8-1-1.2-.5-2.5.2-6 4.4-12.7 7.8-5.1-1.5-9.9-3.7 2-2 4.1-3.5c-1-1.3-3.2 1.3-4.4 1.7q-.5.4-.7 1.2-5.3-2.2-10.2-5.2c10.4-7.7 21.6-15.3 31.3-24 .6-.3 3.7-1 2.7-2q-2.2 0-2.7 2c-2.5 0-6.7 3.2-8.7 4.7q-1.1.3-1.6 1.3h-.5c-2-.2-6.2 3.5-8.3 4.2a299 299 0 0 1-17.6 10c-1.5-1-7.4-4.8-7.3-6.5q1.8-.6 3.1-1.8l3-2q2-1.2 4-2.7.7-.5.4-1.4-2.8 1-4.8 3.2-2-.2-2.4 1.7c-1.3.1-3.7.8-4.2 2.2-1.9 0-6.4-6.4-8-7.8 3.1-1.2 7.3-6.1 10.2-8.1l10.9-9.6q.7-.5.7-1.3c.9-.5 3.3-.8 2.6-2.2a3 3 0 0 0-2.6 2.2c-1.1-.6-1.6.7-2.6.9-.4-1.4 7.8-14 9-16.4q.9.6 1.9 0c1.1-1 4.8-2 4.9-3.7q7.5 3 15.4 5.2.5.3.5.8c-2.2 1.9-11 8.7-11.8 10.8a4 4 0 0 0-2.8 1.7c1.3 1 2.3-.7 2.8-1.7 3.3-.4 12.3-6.7 15.9-8.4q.7-.6.7-1.5a132 132 0 0 0 49.7-1c-.4 1.3-4 2-5.1 2.8q-6.5 5.1-13.3 9.8-.8.4-.8 1.3-2 .3-3.1 1.8c1 1.1 2.6-.9 3-1.8 2.4.2 24-13.2 28-15.4q.6-.4.7-1.2.9-1.1 2.4-1.5 1.4.7 1.8-.8a2 2 0 0 0 2-.6l7-3.6q.5-.5.9 0c2 5.8 3.8 11.8 7.1 17Zm-34.7 32q-1.5 0-2.1 1.1-.8.2-1.1.8.4.6 1 .4 1.4-1 2.2-2.3.6-.6 0 0Z"/><path fill="#9c7d9c" fill-opacity=".4" d="M277.3 286.7q-.9 1.4-2.2 2.3v-1.2q.7-1.1 2.2-1"/><path fill="#e69a7a" fill-opacity=".3" stroke="#e69a7a" stroke-opacity=".3" stroke-width=".5" d="M228.9 274.1q.5-2 2.6-2c1 1-2 1.7-2.6 2Z"/><path fill="#e59a79" fill-opacity=".4" stroke="#e59a79" stroke-opacity=".4" stroke-width=".5" d="M262.2 260.8c-.5 1-2 3-3.1 1.8q1-1.5 3-1.8Z"/><path fill="#e59b7a" fill-opacity=".4" stroke="#e59b7a" stroke-opacity=".4" stroke-width=".5" d="M215.1 257.8c-.5 1-1.5 2.7-2.8 1.7a4 4 0 0 1 2.8-1.7Z"/><path fill="#e4997a" fill-opacity=".4" stroke="#e4997a" stroke-opacity=".4" stroke-width=".5" d="M197.8 260.2a3 3 0 0 1 2.6-2.2c.7 1.4-1.7 1.7-2.6 2.1Z"/><path fill="#da9a80" fill-opacity=".2" stroke="#da9a80" stroke-opacity=".2" stroke-width=".5" d="M277.3 286.7q.6-.6 0 0Z"/><path fill="#3053cb" fill-opacity=".9" d="M274.1 313q-5 1-10.3.9v-.6c3.8-2.1 8.4-5.7 12.6-6.7q1.7-1.6 3.7-3 3-1.2 5.6-2.8 1.2-.1.6 1c-2.3 2.4-11.2 8.5-12.2 11.2"/><path fill="#2c52ce" fill-opacity=".5" stroke="#2c52ce" stroke-opacity=".5" stroke-width=".5" d="M359 291c.2 1-1.4 1.7-2 .7q.8-1 2-.8Zm2.2 10.2q-.5.9-1.6.8.7-.6 1.6-.8Zm31 11q-.6.9-1.5.8a3 3 0 0 1 1.5-.7ZM169 314c0 1.4-2 2.9-3 1.7.4-1 2.1-1.4 3-1.7Zm225.2 4.2q-.4.4-1.2.6.3-.8 1.2-.6ZM213 324q-.6 1-1.6 1.7-2.6.4-.6-1.3 1.1-.4 2.2-.4Zm199.4.1q-.7.5-1.5.6.6-.7 1.5-.6Zm-23.5 9.1q-.3.9-1.1.8zm-2.6 5.8a2 2 0 0 1-1.3.7q.4-.7 1.3-.7Zm-16.2 6.2q-.4 1-1.5.8.7-.6 1.5-.8ZM323 356.3q-.4.8-1.3.6zm.3 2.8-1.4.7q.5-.8 1.4-.8Zm88.9 2q-.5.9-1.5.9.7-.6 1.5-.8Zm-287.2 9a3 3 0 0 1 2.5-2c2 1.2-1.6 2-2.5 2Zm249-.1a3 3 0 0 1-3 2 3 3 0 0 1 3-2Zm29.3 2.1-1.2.7q.3-.9 1.2-.7ZM286 380q-.3 2.4-3 2a3 3 0 0 1 3-2Zm-6.2 4q.4-1 1.2-.5-.4.5-1.2.5Zm95.5 1.2q-.5.9-1.5.8.6-.6 1.5-.8Zm46.9.9c-.5.8-2.1 2.4-3.1 1.5.2-1.4 2-1.6 3-1.5Zm-44.8 1-1.2.7q.2-.8 1.2-.7Zm-297 31-1.5.6q.5-.7 1.4-.7Zm94.6 18.2q-.3.8-1.3.6zm99 2c.3.9-.7.5-1.2.5q.6-.4 1.3-.5Zm-161 4.9q-.2 1-1.2.8zm80.1 1q-.4.9-1.3.7zm-76.7 3q-.6.4-1.4.6.5-.8 1.4-.7ZM231 449q-1 1.6-3 1.9.8-2 3-2Zm28.3 1-1.2.6q.3-.7 1.2-.6Zm-101 1-1.4.7q.5-.8 1.5-.7Zm89.7 2q-.3 1-1.2.8.4-.6 1.2-.7ZM92.8 473.3q.3-1.2 1.7-1.3c1 .9-1.2 1.3-1.7 1.3Zm60.5-1.2a4 4 0 0 1-1.6.8q.7-.7 1.6-.8Zm69 2-1.5.8q.7-.8 1.6-.8Zm-88 10.1-1.4.7q.4-.8 1.4-.7Zm42.8 10.2q-.5.7-1.4.7.6-.6 1.4-.7Z"/><path fill="#2c52ce" fill-opacity=".4" stroke="#2c52ce" stroke-opacity=".4" stroke-width=".5" d="M392.9 300.4c0-1.5 3.7-3.1 4.7-3.3 1.2.9-4 3.2-4.7 3.2Zm20.3 6.7-1 .8q0-.9 1-.8Zm-67.9 10-1.3.7q.3-.9 1.3-.7Zm-31.1 14a2 2 0 0 1-1.5.8zm5.1 1q-.4.4-1.2.6.3-.7 1.2-.6Zm25.8 10.1q-.5.8-1.4.8a3 3 0 0 1 1.4-.8Zm-238.3 3a3 3 0 0 1 2.7-2.2c1.4 1.1-2 2-2.7 2.1Zm235.5 3q-.6.4-1.3.6.4-.7 1.3-.7Zm86.8 2q-.4.8-1.4.8.6-.6 1.5-.8Zm-69.9 2q-.5.8-1.4.7.6-.4 1.4-.6Zm63 8.9-1 .6q.2-.7 1-.6ZM159 366c.8-1.2 3.3-3.1 4.7-3 1.2 1-3.7 3.1-4.7 3Zm157.4-3-1.1.7q.2-.9 1.1-.7ZM144 374.3q-.3.9-1.3.6.6-.6 1.3-.6Zm248.2 0q-.5.7-1.4.7.6-.6 1.4-.8Zm4.2 1.8-1.4.7q.4-.9 1.4-.7ZM283 382q-1.3 1 0 0Zm152 26c-.1.8-1.3 1.6-2 .7q.9-.9 2-.6Zm-362 7.3q-.3.9-1.2.8zm10.3.9q-.6.4-1.3.6.4-.7 1.3-.6Zm80 1q-.5.5-1.4.7.5-.7 1.5-.8Zm42.2 4-1.5.7q.5-.8 1.5-.7ZM69.7 435.9q.3-1 1.2-.5-.5.6-1.2.6Zm50.2 3.3q-.1.9-1.2.8zm80 1q-.1.9-1.2.7.6-.5 1.2-.7Zm-43.8 7.1q-.6.8-1.4.6.6-.4 1.4-.6Zm98.8 1.9q-.3.9-1.2.7zm-71.6 3.8q-.6.6-1.5.7.5-.7 1.5-.7ZM94 454.2q-.3 1-1.3.8zm80 1q-.5.9-1.4.7zm260.3-.3c-.5.8-2.2 2.8-3.2 1.7.2-1.3 2.1-1.5 3.1-1.7Zm-340 6.1-1.5.8q.6-.8 1.5-.8Zm134.6 3.2q-.3.9-1.3.7.7-.5 1.3-.7Zm-64.6.8q-.7.6-1.6.8a2 2 0 0 1 1.6-.8Zm-39 7q-.7.6-1.5.8.6-.7 1.6-.8Zm135.7 5a3 3 0 0 1-3 2q.7-1.9 3-2Z"/><path fill="#2c52ce" fill-opacity=".3" stroke="#2c52ce" stroke-opacity=".3" stroke-width=".5" d="M379.7 289q0 1-1 .9zm-222 16q.4-1 1.2-.5-.5.5-1.2.5Zm241.7 10q-.6.7-1.6.8.5-.9 1.6-.7ZM213 324a7 7 0 0 1 4.6-3c1.2 1.2-3.6 3-4.6 3Zm204.4-3q-.9.6-1.7.7.7-.6 1.7-.6Zm-12.6 2q0 1-1.1.9zm-73.4 2.1q-.7.4-1.7.6.7-.6 1.7-.6Zm54.4 10q0 .9-1 .8zm-220.7.7q-.9 2-3 2.1.9-1.9 3-2Zm163.2 20.4-1.2.5q.3-.8 1.2-.5Zm77.4 8.9q0 1-1 1zm2.7 3.9a2 2 0 0 1-1.5.8q.4-1 1.5-.8ZM125 370a7 7 0 0 1-5.2 3.2q2-2.7 5.2-3.2Zm243.9 19q0 1-1.2 1zm-160.7 30.1-1 .8q0-1 1-.8Zm18.8 5.8a8 8 0 0 1-5 3.2c.8-1.7 3.1-3 5-3.2Zm-56.8 14.3q-.5 1-1.5.8zm98.9 2q-.6.7-1.5.7zm-160.9 5a2 2 0 0 1-1.5.8zm79.9 1.1q-.5.8-1.4.6.6-.4 1.4-.6Zm142 2.7q-.7 1.2-2.1 1 .5-1.2 2-1Zm-87.2 6.1q-.3 1-1.2.8zm-145.5 3-1.2 1q0-1.2 1.2-1Zm42 4-1.1.8q0-1 1-.8Zm118.6 16c-.5 1.3-3.7 2.8-5 3 .8-1.6 3.2-3.3 5-3Zm-120.7 3-1.1.8q0-1 1-.9Z"/><path fill="#2c52ce" fill-opacity=".4" stroke="#2c52ce" stroke-opacity=".4" stroke-width=".5" d="M364 288q-.5 1.3-2 1 .5-1.2 2-1Zm4.9 8q-.2 1-1.2 1zm31 11q-.3 1-1.3 1zm-42.6 3q-.7.6-1.5.8.5-.7 1.5-.8ZM92 339q-1 2-3 2 .9-2 3-2Zm196.9 8q-.1 1-1.2.9zm77.9 0q0 1-1 1zm-36 4.1q-.1 1-1.1.8zm103.6 3q-.7.6-1.5.7.4-.8 1.5-.7ZM376.1 369q-.6 1.3-2.1 1c-.1-1.1 1.3-1.1 2-1Zm-46.2 2q-.1.8-.9 1.3a6 6 0 0 1-4 1.6c.4-1.2 3.6-3 5-3Zm-191.5 9-1.1.9q0-1 1.1-.9Zm-6.4 1.2q-.3.8-1.2.6zm292 3.6q-.3 1.5-1.8 1.2.4-1.4 1.8-1.2Zm-270.8 35.4q-.5.7-1.4.7.6-.6 1.4-.7Zm233.1 3 .1.6a9 9 0 0 1-5.3 3.2c.6-1.6 3.6-3.3 5.2-3.9ZM265.4 446l-1.2 1q0-1.1 1.2-1Zm-37.4 5q-.7 1.1-2.1 1a2 2 0 0 1 2.1-1Zm-119.7 1-1 1q0-1 1-1Zm35.9 2.3q-.7.8-1.5.6.7-.5 1.5-.6Zm6.1 1.8-1 .8q0-1 1-.8Zm-68.2 5.2q-.5.6-1.4.7.6-.6 1.4-.7Zm80 1q-.6.7-1.4.6.6-.5 1.4-.6Zm-43.9 7q-.6.6-1.5.6zm38.2.7-1.1 1q0-1 1-1Zm71.9 0-1.2 1q.1-1 1.1-1Zm-11.2 1.3q-.5.8-1.4.6.6-.5 1.4-.6Zm-81 6a2 2 0 0 1-1.5.6q.7-.4 1.6-.6Zm55.2 16.8-1.1.8q0-1 1-.8Z"/><path fill="#2c52ce" fill-opacity=".3" stroke="#2c52ce" stroke-opacity=".3" stroke-width=".5" d="M364 288q.6-1.2 1.7-1.8 2.4 0 .3 1.2-1 .5-2 .6Zm9.4 42.1q-.5.6-1.1.9 0-1 1-.9Zm-62.6 2.9q0 1-1.2 1zm80.5 3-1.2.7q.2-.8 1.2-.6Zm-38.6 1.1q0 1-1 .8zm1.6 4-1.1.7q0-.9 1-.6Zm11.1 10-1.1.9q0-1 1.1-1ZM381 366c-.6 1.5-3.4 2.8-5 3 .9-1.7 3.1-3 5-3Zm-93 13q-.6 1.3-2.2 1c0-1.1 1.5-1 2.2-1Zm94.3 5-1.1 1q0-1 1-1Zm-269.7 8q0 1-1 1zm2.6 3-1 1q0-1 1-1Zm81.7 0q-.9 1.9-3 2 .9-1.9 3-2Zm-84.7 2-1 1q0-1 1-1Zm117.8 8q-.6 1.5-2.1 1 .6-1.3 2-1Zm-140.8 7-1.1 1q0-1 1.1-1Zm77 3-1 1q0-1 1-1Zm-6.5 1.1q0 1-1.2.8zm37.5 10-1 .8q0-1 1-.9Zm-56.5.9q0 1-1.1 1zm153.3 0a3 3 0 0 1-3.2 2 3 3 0 0 1 3.2-2Zm-160.4 4q0 1.1-1 1zm71.6 8-1 1q-.2-1.2 1-1Zm43 18-1.1.9q0-1 1-.9Zm-162 9-1 1q0-1 1-1Zm42 4-1 1q0-1 1-1Zm114.8 5q-.8 1.2-2 1c-.2-1.2 1.3-1 2-1Zm-144.3 5q0 1-.9.8zm112.5 1.1-1 .9q0-1 1-.9Zm-13.5.9q0 1-1.1.9zM164 301q-.7 2-3 2a3 3 0 0 1 3-2Zm191 4q-.3 1.1-1.3.7zm31 11q-.3 1-1.3.7zm27 2q-.3 1-1.3.7zm-96 42q-.3 1-1.3.7zm-51.9 2.9q-.6 1.5-2.2 1 .9-1 2.2-1Zm-120.8 13.4-1.2.7q0-1.2 1.2-.7ZM119.9 388q-.1 1-1.2.7zm74 9c-.5 1.7-5.4 3.7-6.9 5v-1.2c1.3-1.5 5-3.8 7-3.7Zm34 9q-.8 2-3 2 .9-2 3-2Zm-61 6q-.2 1-1.2.7zm-19 11q0 1.1-1.2.7zm-25.6 20.3-1.2.7q0-1.1 1.2-.7ZM223 453.9c-.3 1.7-5.6 3.9-7 5v-1a13 13 0 0 1 7-4Zm28.3 1.4-1.2.8q0-1 1.2-.8ZM131.9 461q0 1.1-1.2.7zm18 8q-.2 1-1.2.7z"/><path fill="#1e378d" fill-opacity=".2" stroke="#1e378d" stroke-opacity=".2" stroke-width=".5" d="M96.6 312q-.2 1.3 1 1.8c-.8.3-3 2.4-4.2 1.6q1.4-2 3.2-3.4Zm186 39.3 1.5 1.3q-4.5 2.7-9.3 4.9a32 32 0 0 1-9.7 5.4c.8-2 6-4.4 8-5.3l1.5-1.5q4.2-2.2 8-4.8Zm-38 135 1.3-.6.2 1.4-1.3-.3z"/><path fill="#2c53ce" fill-opacity=".4" d="M362 289a3 3 0 0 1-3 2q.9-2 3-2m-35.6 39.1q-.6.4-1.3.6.3-.7 1.3-.6m40.8.1q-.6.7-1.5.7zm30 0q-.6.9-1.5.8.7-.6 1.5-.7m-94 10q-.6.7-1.5.7.6-.6 1.5-.6m75 2q-.5.6-1.5.8.7-.6 1.6-.8m-77.9 2.9-1.2.6q.3-.7 1.2-.6m49 1-1.2.8q.3-1 1.2-.8m-15.3 5.1q-.4.8-1.4.7zm-9 24.7a4 4 0 0 1-3 2.1q.6-2.3 3-2m-192.7 10.2q-.7.5-1.5.6.6-.7 1.5-.6m-14.4 5.1q-.3.9-1.3.7zM230.1 405c0-1.4 2.4-2.6 3.5-2.8 1 1.6-2.5 2.5-3.5 2.8m112 2a4 4 0 0 1-3.2 2 3 3 0 0 1 3.1-2m-170.2 2.2q-.1 1-1.2.8zm-6.8 4q-.5.9-1.4.7.6-.5 1.4-.7m-19 11q-.5.9-1.4.7zm133.2 12.9-1.4.7q.3-1 1.4-.7m-77 4-1.2.7q.1-.9 1.2-.7m40 20q-.7.5-1.6.6.7-.5 1.6-.6M130 462.3q-.4.8-1.3.5zm6.3 2.7a3 3 0 0 1-1.5.8q.5-.9 1.5-.8m11.6 5.3q-.3.8-1.2.6.4-.5 1.2-.6m98.2 2.8q-1.2 1.5-3 2c0-1.6 1.7-2 3-2m-43.1 6q-.4 1-1.4.8zm2.3 5.9-1.5.8q.6-.8 1.5-.8"/><path fill="#2c52ce" fill-opacity=".4" stroke="#2c52ce" stroke-opacity=".4" stroke-width=".5" d="M336.2 317.3q-.6.7-1.6.7zm51 4.8q-.5.5-1.2.7.3-.7 1.3-.7Zm-62 2.1q-.5.8-1.5.8.6-.6 1.6-.8Zm31 11q-.6.8-1.5.7zm-215.2 6c.2-.7 1.2-1.8 1.8-1a2 2 0 0 1-1.8 1Zm66 4.7c-.4 1.3-4 4-5 2.8a9 9 0 0 1 5-2.8Zm86.3 1.2q-.6.5-1.3.6.3-.7 1.3-.6Zm148.1 3-1.5.7q.5-.7 1.5-.7ZM415.9 377c.1.8-1.2 1.7-1.7.7q.6-.9 1.7-.7Zm-45.6 14q-.6.6-1.2.8.2-.9 1.2-.7Zm-261 8q-.6.6-1.4.8.5-.9 1.4-.8ZM99 400.2q-.5.8-1.4.7zm108.9 17q-.2 1-1.2.7zm86 9.8q.4-1 1.5-1c1 .7-1 1.2-1.4 1Zm-152.5 4-1.5.7a2 2 0 0 1 1.5-.7Zm40.6 1q-.3 1-1.2.8zm80.5 16q-.7.5-1.6.6a2 2 0 0 1 1.6-.6Zm149.4 4 .3 1.1c-.7.7-4.3 4-5 2.5q2.2-2.1 4.7-3.6Zm-186.5 20q-.7.5-1.5.7.5-.9 1.5-.7Zm-114.1 1.1q-.7.8-1.5.8zm34.2 3.8q-.7.6-1.7.8.7-.7 1.7-.8Zm-31.1 2.1q-.7.6-1.5.6.6-.7 1.5-.6Zm14.9 2q-.5 1-1.5.9zm54.7 9q-.3 1-1.2.8zm4.4 5.9-1.5.8q.5-.8 1.5-.8Zm194.9-200.8-1.5.6q.6-.6 1.5-.6Zm-25.5 8q0 1-1 1zm30.9 11q0 1-1 .9zm-8.3 11.9-1.6.8q.6-.8 1.6-.8Zm-80.5 14q-.1 1-1.2 1zm79.4 3.1-1.3.7q.4-.7 1.3-.7Zm-37.6 1q0 1-1 .8zm30.6 3q-.5.5-1.3.6.4-.7 1.3-.6Zm-86 4.1-1.5.6q.4-.9 1.5-.6Zm139.5.8q0 1-1 1zm-106 6q0 1.1-1 .9zm27.9 1q.3 1.2-1 1 .4-.6 1-1Zm-84.8 4.9a3 3 0 0 1-3 2 4 4 0 0 1 3-2Zm158 10c-.4 1.7-3.3 3-5 3q2-2.3 5-3Zm-32.2 2.1q0 1-1 1zm.6 4-1.3.8q.3-.9 1.3-.8Zm-26 15.2-1.4.5q.4-.9 1.4-.5Zm74.7 10.7q-.8 2-3 2.2.8-2 3-2.2Zm-351 1.3q-.5.7-1.4.7zm-.8 6.8-1 1q0-1 1-1Zm66 10-1.5.9q.5-.9 1.5-.8Zm43.5.1q-.1 1-1.1.7zm-1.5 4a3 3 0 0 1-1.6.6q.7-.6 1.6-.6Zm-67.2 7.1q-.4.9-1.3.8.5-.6 1.3-.8Zm-7.8 9.8-1 1q0-1 1-1Zm75 1.1-1.4.7q.4-.9 1.4-.7Zm-33 2.9-1.5.8q.6-.8 1.5-.8Zm14 9-1.1 1q0-1 1-1Zm16 28.3q-.7.7-1.6.6z"/><path fill="#3d54b3" d="M324.2 293q-.5.8-1.4.9.5-.7 1.4-.9m-1.4.9q-.1.8-.8 1.4c-3.2 2.3-14.7 10-18.3 9.5q.6-.7 1.3-1.1l16-9.3q.8-.4 1.8-.5m-19 10.9q-.6 1.3-2 1.3.5-1.3 2-1.3"/><path fill="#2246b5" fill-opacity=".2" stroke="#2246b5" stroke-opacity=".2" stroke-width=".5" d="M294 488q-.3.9-1 1.5-7.8 4.5-15.4 9.8-.7.5-1.5.5h-3.4l20-11.6q.6-.2 1.3-.2Z"/><path fill="#2c52cf" fill-opacity=".3" stroke="#2c52cf" stroke-opacity=".3" stroke-width=".5" d="M174.2 310.8c-.8 1.5-3.4 3.5-5.2 3.1a8 8 0 0 1 5.2-3Zm169.7 1.1q0 1.1-1.2.8zm50 18q0 1.1-1.2.8zm-27.6 4.4-1.3.7q.3-1 1.3-.7Zm36.6 32.6q0 1.1-1.2.8zm-27.6 21.4-1.3.7q.3-1 1.3-.7Zm-9.4 2.6q0 1.1-1.2.8zm-247.6 2.4-1.2.8q0-1 1.2-.8Zm326.7 7.6v1.5c-1.6 1-5 3.8-7 3.5.5-1.4 5.6-3.8 7-5Zm-351 2q-.3 1.2-1.3.8zm109 17q-.1 1.3-1.3.8zm-58.7 9.4-1.2.7q0-1 1.2-.7Zm-11 7-1.2.7q0-1 1.2-.7Zm98 32-1.2.7q0-1.1 1.2-.7ZM106 476q-.3 1-1.3.7zm18 8q-.3 1.1-1.3.7zm5.3 3.3-1.2.7q.2-1 1.2-.7Zm49.6 5.7q0 1.1-1.2.7z"/><path fill="#2748bd" fill-opacity=".2" stroke="#2748bd" stroke-opacity=".2" stroke-width=".5" d="M305.8 367.1q0 1.2 1.3 1.5-9 5-17.8 10.2l-1.2.2q.4-1 1.5-1.8z"/><path fill="#254ac1" fill-opacity=".2" stroke="#254ac1" stroke-opacity=".2" stroke-width=".5" d="M344.7 361.1q.5.9 1.4 1.3l-14 8.1q-1 .6-2.1.4.2-.8 1-1.2 6.7-4.5 13.7-8.6Z"/><path fill="#2c52ce" fill-opacity=".3" stroke="#2c52ce" stroke-opacity=".3" stroke-width=".5" d="M161 303q0 .4-.5.6 0-.4.6-.6Zm189.3 11.3-1.3.7q.3-1 1.3-.7ZM333 319q-.3 1-1.2.8zm77.3 6.3-1.3.7q.3-1.1 1.3-.7Zm-86 4-1.3.7q.3-1 1.3-.8ZM141 341a3 3 0 0 1-3 1.8 3 3 0 0 1 3-1.8Zm299 1.9q-.3 1-1.2.8zm-92.7 2.3-1.3.7q.3-1 1.3-.8ZM423 354q0 1-1.2.7zm4.4 4.3-1.3.7q.3-1 1.3-.7Zm-106 2-1.3.7q.3-1 1.3-.7Zm80 13-1.3.7q.3-1 1.3-.8ZM139 377q-.3 1.1-1.3.7zm247 1q-.3 1-1.3.8zm-199.8 55.2-1.2.8q.1-1 1.2-.8Zm0 18-1.2.8q.3-1 1.3-.8Zm39.7.7a3 3 0 0 1-2.9 2 3 3 0 0 1 2.9-2ZM89 457q-.3 1-1.3.8zm135 10q-.3 1-1.3.7zm-106.8 10.2-1.2.8q.3-1 1.2-.8Zm-11 7-1.1 1q0-1 1.2-1Z"/><path fill="#274ac2" fill-opacity=".2" stroke="#274ac2" stroke-opacity=".2" stroke-width=".5" d="M222 428.1q-.7 1-1.6 1.7-6.5 4.2-13.1 8-.5-.9-1.4-1.2l14.1-8q1-.6 2-.5Z"/><path fill="#294dbf" fill-opacity=".2" stroke="#294dbf" stroke-opacity=".2" stroke-width=".5" d="M395.8 356q.3 1 1.3 1.3l-14.1 8.1q-1 .6-2 .6.3-.8 1-1.4 6.8-4.5 13.8-8.5Z"/><path fill="#2746b6" fill-opacity=".2" stroke="#2746b6" stroke-opacity=".2" stroke-width=".5" d="M224.9 408a2 2 0 0 1-.9 1.3l-13.7 8.6q0-1.3-1.4-1.4l14-8.2a4 4 0 0 1 2-.3Z"/><path fill="#233ca7" fill-opacity=".2" stroke="#233ca7" stroke-opacity=".2" stroke-width=".5" d="m447.7 369 .1 2.8-12.6 6.9v-.7q0-.9.8-1.3 6-3.7 11.7-7.6Z"/><path fill="#2247ae" fill-opacity=".2" stroke="#2247ae" stroke-opacity=".2" stroke-width=".5" d="M359.7 395.4q.2 1 1.4 1.2-6 3.3-12 6.9-1 .5-2.1.4.1-.9 1-1.3l10.9-7z"/><path fill="#2c52cf" fill-opacity=".3" stroke="#2c52cf" stroke-opacity=".3" stroke-width=".5" d="M366 298q-.3 1-1.3.7zm45.3 10.3-1.3.7q.3-1 1.3-.7Zm-14.4.6q0 1.1-1.2.8zm23.4 53.4-1.3.7q.3-1 1.3-.7Zm13.5 15.6q0 .7.3 1.3c-1.5 1.5-5 3.7-7.1 3.8.8-2 5.1-3.5 6.8-5ZM158 446q-.3 1.1-1.3.8zm-46.7 4.4-1.2.8q0-1.1 1.2-.8Zm216.7.8q-.9 2-3 2a3 3 0 0 1 3-2ZM96 453q-.3 1.1-1.3.7zm80 1q-.3 1-1.3.7z"/><path fill="#6e4d3d" fill-opacity=".1" stroke="#6e4d3d" stroke-opacity=".1" stroke-width=".5" d="M197.8 260.2q0 .8-.7 1.3l-10.9 9.6a3 3 0 0 0-.3-1.8q3.5-3 6.5-6.4.6-.6 1.4-.7 1 0 1.4-1.1c1-.2 1.5-1.5 2.6-1Z"/><path fill="#2749bc" fill-opacity=".2" stroke="#2749bc" stroke-opacity=".2" stroke-width=".5" d="M219.7 337.1q0 1.2 1 1.5c-2.2 1.3-11.6 7.5-13.7 7.3q.3-.7 1-1.2 6-3.7 11.7-7.6Z"/><path fill="#2c53cf" fill-opacity=".2" stroke="#2c53cf" stroke-opacity=".2" stroke-width=".5" d="M330 321q-.3 1-1.3.7zm66.4 12.3-1.3.8q.1-1.2 1.3-.8Zm-86 4-1.3.8q0-1.2 1.3-.8ZM89 341c-.5 1.5-3.6 3-5 4v-1.4q2-2.1 5-2.6Zm298.3 40.3-1.2.8q.2-1 1.2-.8Zm-240 46-1.2.8q0-1 1.2-.8Zm42 4-1.2.8q0-1.1 1.2-.8ZM165 441.9q0 1.1-1.2.8zm99 2q-.2 1-1.2.8zm-81 6q-.2 1-1.2.8zm71.4 3.4-1.2.8q0-1 1.2-.8ZM391 476q-.9 2-3 2.2.6-2.2 3-2.2Z"/><path fill="#1b328d" fill-opacity=".1" stroke="#1b328d" stroke-opacity=".1" stroke-width=".5" d="M445.8 358.2q.4.7.2 1.5l-.9 1-9.2 5.3q0-.8-.7-1.2 4.5-3.3 9.1-6.1.7-.5 1.5-.5Z"/><path fill="#2c52ce" fill-opacity=".4" d="M347.2 310.3q-.6.6-1.6.7.7-.6 1.6-.8m59 .8-1.4.7q.5-.9 1.5-.7m10 5.2q-.6.8-1.5.6zm-38 4.9q-.6.7-1.5.8.6-.5 1.4-.8m20 10.8q-.4.4-1.2.7.4-.7 1.2-.7m-85.9 4q-.5.6-1.2.7.3-.7 1.2-.6m-3 29.2q-.6 1-1.7.8zm106-.1q-.6.5-1.4.7.5-.9 1.4-.7m-106 1.9q-.7.6-1.5.8.3-1 1.4-.8M199 394q-.6 1-2 1 .7-1.2 2-1m30 30c0 1.1-1.3 1-2 1q.6-1.2 2-1m-98.7 14q-.7.6-1.6.6.7-.6 1.6-.6m42 4.1q-.7.6-1.5.6.6-.7 1.5-.6m-9.5 1q0 1-1 .8zm99 2.1q0 .9-1 .8zm-160.7 5q-.5.9-1.4.7.6-.5 1.4-.6m79.8 1q-.1.9-1.2.8zm64.4 8-1.5.5q.6-.6 1.5-.6m-37 23.8q-.7.6-1.5.8a2 2 0 0 1 1.5-.8"/><path fill="#2b53cd" fill-opacity=".3" stroke="#2b53cd" stroke-opacity=".3" stroke-width=".5" d="m376.3 299.3-1.3.7q.3-1.1 1.3-.7Zm16 20-1.3.7q.3-1.1 1.3-.7ZM375 323q0 1.1-1.2.7zm-69.6 17.3-1.3.7q.3-1 1.3-.7ZM375 342q0 1-1.2.7zm-197.6 66.2q-.6.6-1.3.8.1-1.2 1.3-.8ZM68 418q-.3 1.1-1.3.7zm87.3 4.3-1.2.7q0-1.1 1.2-.7ZM177 435q-.3 1-1.3.8zm99 2q0 1.2-1.2.8.4-.5 1.2-.8Zm-100.7 3.3-1.2.7q0-1 1.2-.7ZM115 442q-.2 1.1-1.3.7zm80 1q-.2 1-1.2.8zm73.3 1.3-1.2.7q0-1 1.2-.7Zm-120 31-1.2.7q0-1.1 1.2-.7Zm92.7.6a3 3 0 0 1-3 2 4 4 0 0 1 3-2Zm-46.7 16.4-1.2.7q.2-1 1.2-.7Z"/><path fill="#2a51cc" fill-opacity=".3" stroke="#2a51cc" stroke-opacity=".3" stroke-width=".5" d="M377 291q-.3 1-1.3.7zm31 11q-.3 1-1.3.7zm-22.7 21.3-1.2.7q.2-1 1.2-.7Zm-66.4 4.6q0 1.1-1.2.8zm108.8 41.2.2 1a21 21 0 0 1-4.9 3.4q-1 .6-2 .4c1-1.9 4.9-3.5 6.7-4.8ZM184 431q-.3 1-1.3.8zm18 8q-.2 1.2-1.3.8zm-101.7 18.4-1.2.8q.1-1 1.2-.8ZM436 476.8q0 1.3-1.3 1.3.3-1 1.3-1.3Z"/><path fill="#20409d" fill-opacity=".1" stroke="#20409d" stroke-opacity=".1" stroke-width=".5" d="M173.8 294.3q.8 0 .8.7 0 .9-.9 1.2a40 40 0 0 0-7 4.1q-1.2.8-2.6.6c.2-1.6 5.6-4 6.8-5.4q1.5-.8 3-1.2Z"/><path fill="#2b4ec0" fill-opacity=".2" stroke="#2b4ec0" stroke-opacity=".2" stroke-width=".5" d="M291 429q-.3.8-1 1.3-3.8 2.2-7.3 4.7-.9.6-1.8.7-.3-.6-1-1c2.4-1.2 8.8-5.7 11-5.8Z"/><path fill="#2a4fd1" fill-opacity=".2" stroke="#2a4fd1" stroke-opacity=".2" stroke-width=".5" d="M238 478q-.2.8-1 1.3a76 76 0 0 0-7.4 4.8l-1.8.5q-.3-.3-.9-.4.6-.9 1.4-1.4c2.4-1 7.4-4.9 9.7-4.9Z"/><path fill="#2c50c5" fill-opacity=".9" d="M377.3 498q-.7.7-1.7 1l-.8.6a5 5 0 0 1-5.3-.4c1-2 6-1 7.8-1.2m-100.7 8.3a13 13 0 0 1 5.4-.2l-.3.7-.7.2-2 .2q-1.5.2-2.4-.9"/><path fill="#2d53ce" fill-opacity=".3" d="m403.3 329.3-1.2.7q0-1.1 1.2-.7m-86 4-1.3.7q.3-1 1.3-.7m67 7-1.3.7q.3-1 1.3-.7m-87.4 1.6q0 1.1-1.2.8zm1.4 2.4-1.3.7q.3-1.1 1.3-.7m29.6 8.6q0 1.1-1.2.8zm92 3q-.2 1-1.2.8zm-105.6 8.4-1.2.7q0-1.1 1.2-.7m80 13-1.2.7q0-1.1 1.2-.7m-11.4 2.6q0 1-1.2.8zM75 414q-.2 1.1-1.2.8l1.2-.7m47 24q-.2 1-1.2.8l1.2-.7m135 10q-.2 1-1.2.8zm-78.6 8.4-1.2.8q0-1.2 1.2-.8m-36 5-1.2.8q.2-1 1.2-.8"/><path fill="#2d53cd" fill-opacity=".4" d="m364.4 306.1-1.6.7q.6-.8 1.6-.7m41 22-1.5.6q.6-.7 1.4-.6m-44.2 8.9q-.6.6-1.4.7.5-.7 1.4-.7m-8 21.2-1.1.5c-.4-.8.6-.5 1.1-.5m56 5q-.5.7-1.4.7zm-274 18.9q-.6.5-1.5.7.7-.8 1.6-.7m-10.3 3.1q-.2.9-1.2.8.6-.6 1.2-.8m247.3 2q-.6.7-1.5.7zm-266.2 9q-.4.9-1.4.7zm68.2 14q-.5.4-1.1.6 0-1 1-.7m-94 1q-.5.9-1.4.8a2 2 0 0 1 1.3-.8m108.7 17q-.1.9-1.2.8zm-5.6 6.8q-.7.6-1.5.8.5-.9 1.5-.8m26.9 40.2q-.5.8-1.4.8zM126.3 489q-.7.6-1.6.7.7-.7 1.6-.7"/><path fill="#2946c1" fill-opacity=".2" stroke="#2946c1" stroke-opacity=".2" stroke-width=".5" d="m185.7 401.2.1 1q0 .9-.8 1.1l-5.8 3.5q-.4-.8-1.3-1.2z"/><path fill="#2c53ce" fill-opacity=".2" stroke="#2c53ce" stroke-opacity=".2" stroke-width=".5" d="M308 335q-.2 1.1-1.3.7zm75 2q-.2 1.1-1.3.7zm-33 2q-.3 1-1.3.7zm1.3 20.3-1.2.7q0-1.2 1.2-.7Zm48.6 9.6q0 1.1-1.2.8zm-273 15q0 1.1-1.2.8zm236 9q0 1.2-1.2.8zM174 408q0 1.2-1.2.7zm-4.6 5.3-1.2.8q0-1.1 1.2-.8ZM427 425.9a3 3 0 0 1-3 2.2 3 3 0 0 1 3-2.2Zm-155.7 16.4-1.2.8q0-1.1 1.2-.8Z"/><path fill="#2140b5" fill-opacity=".2" stroke="#2140b5" stroke-opacity=".2" stroke-width=".5" d="M325 453q-.3.9-1 1.4-3.3 2.3-6.8 4.3 0-1-1-1.3v-.1c2.2-.8 6.7-4.5 8.7-4.3Z"/><path fill="#2d52cd" fill-opacity=".2" stroke="#2d52cd" stroke-opacity=".2" stroke-width=".5" d="M138 343a5 5 0 0 1-1.8 2q0-.7-.3-1.2.8-1 2.1-.9Zm-3.2 1 .2 1.3a6 6 0 0 1-2 1.7v-1.4zm235.5 4.3-1.2.8q0-1 1.2-.8Zm9.6 33.6q0 1.1-1.2.8zm-255.6 7.4-1.2.8q0-1.1 1.2-.8Zm4.6 44.6q0 1-1.2.8zm49.4 4.4-1.2.8q0-1 1.2-.8Zm11 11-1.2.8q.1-1 1.2-.8ZM77 477.7l1.4 1.2q-1-.1-1.4-1.2Z"/><path fill="#2949b0" fill-opacity=".2" stroke="#2949b0" stroke-opacity=".2" stroke-width=".5" d="M393.7 418.2q.1 1.2 1.4 1.2c-1.8.6-7.3 4.8-8.8 4.5l-.1-.7q3.6-2.7 7.5-5Z"/><path fill="#2a55d0" fill-opacity=".3" stroke="#2a55d0" stroke-opacity=".3" stroke-width=".5" d="M159 366c-.8 1.9-6.2 4.8-8.2 5.7l-.8-.7a50 50 0 0 1 7-4.5q.8-.5 2-.5Z"/><path fill="#2954d2" fill-opacity=".3" stroke="#2954d2" stroke-opacity=".3" stroke-width=".5" d="M334 477c-.6 1.5-5.7 4-7 5.5q-.5.2-1.1.1l-1-.5q.5-.9 1.4-1.4c2-.7 5.8-4 7.7-3.6Z"/><path fill="#2b52cc" fill-opacity=".2" stroke="#2b52cc" stroke-opacity=".2" stroke-width=".5" d="m200.3 424.3-1.2.8q0-1.1 1.2-.8Zm-9.4 2.6q0 1-1.2.8zm62 55.1q-.3.8-1 1.3l-5.8 3.8-.2-1.4c1.6-1.3 5-3.8 7-3.7Z"/><path fill="#294fc0" fill-opacity=".2" stroke="#294fc0" stroke-opacity=".2" stroke-width=".5" d="M435.2 364.8q.6.4.8 1.2l-6.7 3.8-.2-1q2.6-2.7 6.1-4Z"/><path fill="#213baf" fill-opacity=".1" stroke="#213baf" stroke-opacity=".1" stroke-width=".5" d="M433.4 421q1 0 1.6 1c-2 .9-6 4.4-8 3.9.3-1.5 5.2-3.6 6.4-5Z"/><path fill="#2d53ce" fill-opacity=".4" stroke="#2d53ce" stroke-opacity=".4" stroke-width=".5" d="M158.7 340q.3-1 1.2-.6-.5.6-1.2.6Zm133.3 5.3q-.5.8-1.4.6.6-.5 1.3-.6ZM106.3 401q-.6.6-1.4.8.5-.8 1.4-.8Zm128.5 1q0-.6.8-.8c1 .5-.6.8-.8.9ZM92 404.3q-.3 1-1.3.8zm109 17q-.3 1-1.3.8.6-.6 1.3-.8Zm-53.7 36.9q-.7.4-1.5.6.7-.6 1.5-.6Zm186.8 19q.5-2 2.5-2c1.4 1-1.8 2-2.5 2Z"/><path fill="#2a48a9" fill-opacity=".7" d="M76 476c1.8 0 4.8 2.7 6.2 3.9q-2.1.3-3.8-1l-1.4-1.2q-.7-.7-1-1.7"/><path fill="#2b51cd" fill-opacity=".4" d="M372 294.2q-.3.8-1.3.8zm-.6 7.9-1.5.7q.4-.9 1.5-.7m31.7 3.2q-.5.6-1.4.6.6-.4 1.4-.6m5.1 16q-.6.6-1.5.6.8-.5 1.5-.7m-40 11.8-1.2.6q.3-.7 1.2-.6m-7.8 21-1.5.6q.6-.6 1.5-.6M105.2 454q-.6.5-1.4.6.6-.6 1.4-.6m-1.2 23.2q-.3.8-1.2.7.5-.6 1.2-.7m18 8q-.4.8-1.4.6z"/><path fill="#2b52d0" fill-opacity=".3" d="m388.3 292.3-1.2.7q.2-1 1.2-.7m-11 52-1.2.7q0-1.1 1.2-.7m-38.4 1.6q0 1-1.2.8zm-47.6 2.4-1.2.7q0-1.1 1.2-.7m72.6.6q0 1.1-1.2.8zm-242.6 42.4-1.2.8q.1-1 1.2-.8m247 1-1.2.7q.2-1 1.2-.7M101 398.9q-.2 1-1.2.8zm85 90q0 1.1-1.2.8z"/><path fill="#213ea1" fill-opacity=".1" stroke="#213ea1" stroke-opacity=".1" stroke-width=".5" d="m150 371 .8.7a29 29 0 0 1-4.5 3q-.3-1-1.4-1.1 2.4-1.5 5-2.6Z"/><path fill="#22419c" fill-opacity=".1" stroke="#22419c" stroke-opacity=".1" stroke-width=".5" d="m324.9 482 1 .6q-2.2 1.8-4.7 3.2.1-1.2-1-1.3 2.2-1.5 4.7-2.4Z"/><path fill="#2c50c5" fill-opacity=".8" d="M376 281.1c1.5-.3 5.9-.4 6 2-2 .1-4.7-.7-6-2"/><path fill="#2a53cc" fill-opacity=".2" stroke="#2a53cc" stroke-opacity=".2" stroke-width=".5" d="M372 344q-.3 1-1.3.7zm-19 12q-.3 1.1-1.3.7zm-245 39q-.3 1-1.3.7zm47 24q-.3 1-1.3.7zm-19 11q-.2 1-1.4.7zm.3 4.3-1.2.8q0-1 1.2-.8Zm34 27-1.2.8q0-1 1.2-.8ZM436.1 476h.7q.1 1-1 .8z"/><path fill="#152966" fill-opacity=".1" stroke="#152966" stroke-opacity=".1" stroke-width=".5" d="M84 343.7v1.3l-1.4 1q-.9-.3-1.6-.9zm127 117v1.3l-1.5 1q-.8-.3-1.5-1 1.5-.9 3-1.2Z"/><path fill="#2b48a7" fill-opacity=".8" d="M451.2 452q.3 3.2-2.1 5-.2-2.3 1.2-4.3.3-.5.9-.6m-2.1 5q-.3.9-1 1 .2-.7 1-1"/><path fill="#2c56ce" fill-opacity=".2" stroke="#2c56ce" stroke-opacity=".2" stroke-width=".5" d="M214.7 458q0 .7.3 1.2-1.8 1.6-4 2.8v-1.2q1.6-1.8 3.7-2.7Z"/><path fill="#624e5a" fill-opacity=".1" stroke="#624e5a" stroke-opacity=".1" stroke-width=".5" d="m188.2 284.8-.2 1.2q-1.4 1.3-3.1 1.8-.7 0-.9-.8c.5-1.4 2.9-2.1 4.2-2.2Z"/><path fill="#2b52cf" fill-opacity=".4" d="M424.3 317q-.6.6-1.4.8.5-.9 1.4-.8m-86 4q-.6.6-1.5.7.6-.7 1.5-.6m-176.2 17q-.2.5-.7.5zm173.3 14-1.4.8q.5-.8 1.4-.8m-198.2 106q-.6.9-1.5.9.7-.6 1.5-.9m98.9 2.1q-.4.7-1.3.7.5-.4 1.3-.7m-81 6q-.5.7-1.4.7.6-.6 1.4-.7"/><path fill="#2c54d0" fill-opacity=".3" d="m343.3 318.3-1.3.7q.3-1.1 1.3-.7M286 349q0 1.2-1.2.7zm54.4.3-1.3.7q.3-1 1.3-.7m-143 95-1.2.8q0-1.2 1.2-.8m-44 10-1.2.7q.2-1 1.2-.7M231 463q0 1.1-1.2.7zm-16.6 16.3-1.2.8q0-1.1 1.2-.8"/><path fill="#2d51cf" fill-opacity=".3" d="M364 330q-.3 1-1.2.8zm-8 24q-.3 1-1.2.7zm-205 96q-.3 1-1.3.7zm99 2q-.3 1-1.3.7zm-81 6q-.3 1.1-1.3.7zm-1.8 5.2-1.2.8q.3-1 1.2-.8"/><path fill="#2e54cd" fill-opacity=".2" stroke="#2e54cd" stroke-opacity=".2" stroke-width=".5" d="M245 320.1h1q-.3.8-1.3.6zm157 4.8q-.3 1.1-1.3.8zm-68.7 28.4-1.2.8q0-1.1 1.2-.8Zm-175 67-1.2.8q0-1 1.2-.8Zm79.6 38.6q-.2 1-1.2.8zm-81 6q-.2 1-1.2.8z"/><path fill="#2647ab" fill-opacity=".1" stroke="#2647ab" stroke-opacity=".1" stroke-width=".5" d="M388 478.2q-.9 1.8-2.8 2.5 0-1-1-1.2 1.5-1.6 3.8-1.3Z"/><path fill="#2d50ce" fill-opacity=".3" d="m369.3 303.3-1.3.7q.3-1.1 1.3-.7m-11 52-1.3.7q.3-1 1.3-.7m-266 55-1.2.8q0-1 1.2-.8m72 37-1.2.7q0-1.1 1.2-.7M205 478q-.3 1-1.3.7z"/><path fill="#2a53d0" fill-opacity=".2" stroke="#2a53d0" stroke-opacity=".2" stroke-width=".5" d="m389.4 337.3-1.3.8q0-1 1.3-.8Zm-86 4-1.3.8q0-1.2 1.2-.7Zm21.5 13.6q-.1 1-1.2.8zm55.5 30.4-1.3.8q.1-1 1.3-.8ZM375.6 499q.2 1-.8.6z"/><path fill="#2b50cf" fill-opacity=".2" stroke="#2b50cf" stroke-opacity=".2" stroke-width=".5" d="M335.9 347.9q0 1-1.2.8zm-208.6 39.4-1.2.8q.1-1 1.2-.8ZM198 423q-.2 1-1.3.8zm59.5 28.4-1.3.8q.1-1 1.2-.8ZM119 487q-.1 1-1.2.8z"/><path fill="#2e52cc" fill-opacity=".2" stroke="#2e52cc" stroke-opacity=".2" stroke-width=".5" d="M346.9 340.9q0 1.1-1.2.8zm-175 97q0 1.1-1.2.8zm99 2q0 1.3-1.2.8l1.2-.7Zm-81 6q0 1-1.2.8z"/><path fill="#2b46a1" fill-opacity=".5" stroke="#2b46a1" stroke-opacity=".5" stroke-width=".5" d="M175.8 275.1v3.3q-2.5-1.8 0-3.3Z"/><path fill="#2a4398" fill-opacity=".5" d="M363 277.2c1-.2 4.3-.7 4.3 1q-2.4.2-4.4-1"/><path fill="#172a67" fill-opacity=".1" stroke="#172a67" stroke-opacity=".1" stroke-width=".5" d="M133 345.7v1.3l-1.4 1q-.9-.2-1.6-1 1.4-.9 3-1.4Z"/><path fill="#282c35" fill-opacity=".2" stroke="#282c35" stroke-opacity=".2" stroke-width=".5" d="M272.7 499.8h3.4l-.3 1q-1.8.3-3.7.1 0-.7.6-1.1Z"/><path fill="#2b4cb7" fill-opacity=".6" d="M58.3 443.9q1 2.1.8 4.5c-1.5-.5-1.2-3.3-.8-4.5"/><path fill="#2b51d0" fill-opacity=".2" stroke="#2b51d0" stroke-opacity=".2" stroke-width=".5" d="m352.4 342.3-1.3.8q.1-1 1.3-.8Zm-218.5 37.6q0 1.1-1.3.8zm140.4 60.4-1.2.7q0-1.2 1.2-.7Zm7.7 65.8 1.1-.2q-.3 1-1.4.9z"/><path fill="#2c51cd" fill-opacity=".3" d="M322 326q-.1 1-1.2.8.4-.5 1.2-.8m-180.8 52.2-1.2.8q.2-1 1.2-.8M125 465q-.3 1.1-1.3.7zm18 8q-.3 1-1.3.7z"/><path fill="#2a3e7e" fill-opacity=".5" d="M256.6 507.3q1.9-.5 3.8-.1c-.5 1.3-3 1-3.8.1"/><path fill="#283a73" fill-opacity=".5" d="M406.3 494c0 1.2-2.4 1-3.3.8q1.5-1 3.3-.9"/><path fill="#27345d" fill-opacity=".4" stroke="#27345d" stroke-opacity=".4" stroke-width=".5" d="M117 488q0 1.2 1.1 1.7c-.6.2-2.1.3-2-.8q.3-.6.8-1Z"/><path fill="#283561" fill-opacity=".4" stroke="#283561" stroke-opacity=".4" stroke-width=".5" d="m394 287.3 3-.3v1q-1.6 0-3-.7Z"/><path fill="#2d50cd" fill-opacity=".2" stroke="#2d50cd" stroke-opacity=".2" stroke-width=".5" d="M390.9 331.9q-.2 1-1.2.8zm-64.5 25.4-1.3.8q0-1.1 1.3-.8Zm70.5 13.6q0 1-1.2.8z"/><path fill="#2c52cc" fill-opacity=".1" d="m279 507.2 2-.2c.2 1-1.7 1.5-2 .2"/><path fill="#6a5044" fill-opacity=".3" stroke="#6a5044" stroke-opacity=".3" stroke-width=".5" d="M295 241.9q-.4 1.5-1.8.8.6-.8 1.8-.8Z"/><path fill="#654c41" fill-opacity=".5" stroke="#654c41" stroke-opacity=".5" stroke-width=".5" d="M297 241.3a2 2 0 0 1-2 .6q.7-1 2-.6Z"/><path fill="#5d493e" fill-opacity=".9" d="m374.1 145.1-.8 1.2q0-.9.8-1.2"/><path fill="#2a4aab" fill-opacity=".3" stroke="#2a4aab" stroke-opacity=".3" stroke-width=".5" d="M96.3 295q-.5 1-1.5 1.1.3-1 1.5-1.1Z"/><path fill="#272724" fill-opacity=".4" d="m341.8 168.4 1-.3q.2.7-.5.8z"/><path fill="#2b49ad" fill-opacity=".4" d="m115 293.2 1-.2a1 1 0 0 1-1 .7z"/><path fill="#58473c" fill-opacity=".5" d="M136.3 114q-.4.8-1.2 1.3 0-1.2 1.2-1.3"/><path fill="#2b51cb" fill-opacity=".4" d="m66.2 353 1 .4-1.2.6z"/><path fill="#58463c" fill-opacity=".4" d="M194.4 27q-.7.9-1.5 1.4.1-1.4 1.5-1.4"/><path fill="#283662" fill-opacity=".4" stroke="#283662" stroke-opacity=".4" stroke-width=".5" d="M223.9 317.2q.7 0 1.2.5h-.8z"/><path fill="#2b46a0" fill-opacity=".8" d="m437 475-.2 1h-.7q.1-.8 1-1"/><path fill="#2d54cb" fill-opacity=".3" d="M220.2 278.8q-.6.9-1.6 1.2.5-.9 1.6-1.2"/><path fill="#29418b" fill-opacity=".6" d="M434 477.8q0 1.2-1.2 1.3.2-.9 1.1-1.3"/><path fill="#262633" fill-opacity=".1" stroke="#262633" stroke-opacity=".1" stroke-width=".5" d="m223.2 317 .7.2.4.5q-1.2.5-1.1-.6Z"/><path fill="#2a50c7" fill-opacity=".4" d="m98.3 293.9-.3.8-1.2.1q.5-.8 1.5-1"/><path fill="#3a3a52" fill-opacity=".2" stroke="#3a3a52" stroke-opacity=".2" stroke-width=".5" d="m233.9 311.4 1.2-.5-.4 1z"/><path fill="#2c53d0" fill-opacity=".3" stroke="#2c53d0" stroke-opacity=".3" stroke-width=".5" d="M296 487c.1 1.1-1.4 1-2 1q.5-1.2 2-1Z"/><path fill="#2c53cd" fill-opacity=".3" stroke="#2c53cd" stroke-opacity=".3" stroke-width=".5" d="M424 428q-.6 1.3-2 1 .5-1.4 2-1Z"/><path fill="#2c52ce" fill-opacity=".5" stroke="#2c52ce" stroke-opacity=".5" stroke-width=".5" d="M381 427c-.6 1-2 2.6-3 1.6q1-1.6 3-1.5Zm-135 46c-.2-.9 1.3-1.7 1.9-.7a2 2 0 0 1-1.8.8Zm50 14q.3-2.1 2.6-2c1.3 1-2 2-2.7 2Z"/><path fill="#2d53cf" fill-opacity=".3" stroke="#2d53cf" stroke-opacity=".3" stroke-width=".5" d="M427 383a3 3 0 0 1-3 2q.7-2 3-2Zm-80 21a7 7 0 0 1-5 3 7 7 0 0 1 5-3Z"/><path fill="#2c52ce" fill-opacity=".6" stroke="#2c52ce" stroke-opacity=".6" stroke-width=".5" d="M260 366c-.6 1.1-4 3.9-5 2.7 1.2-1.2 3.1-2.7 5-2.7Z"/><path fill="#2c52ce" fill-opacity=".5" stroke="#2c52ce" stroke-opacity=".5" stroke-width=".5" d="M92 339c.2-.6 1.2-1.5 1.8-.7a2 2 0 0 1-1.8.8Zm230 37c0 1-1.4 1.7-2 .7q.8-1 2-.7Zm-61 101q.3-1.2 1.6-1.1c1.3.8-1 1.3-1.6 1Zm87.8-190.8q.5-2.4 2.9-2.3c1.4 1.2-2.3 2-3 2.2ZM371 372c0 .8-1.3 1.6-1.8.7q.6-.9 1.8-.7Zm-172 22a3 3 0 0 1 2.6-2c1.6 1.2-1.8 2.2-2.6 2Zm139.9 15c.3 1-1.3 1.7-1.9.7q.7-1 1.9-.8Zm-110 15q.4-2.3 2.7-2c1.3 1-2 1.9-2.7 2Zm193 5c-.2 1-1.8 3-2.8 1.7.2-1.2 2-1.4 2.8-1.7Zm-191 20q.6-1 1.7-1.1c1.1.8-1.1 1.3-1.6 1.2Zm99.1 1q.4-2 2.6-2c1.5.8-2 1.8-2.6 2Zm61 26a3 3 0 0 1 2.5-2c1.6 1.2-1.8 2.1-2.5 2Zm16.9 5.2q.6-2 2.5-2c.9 1.2-1.8 1.4-2.5 2Z"/><path fill="#2c53ce" fill-opacity=".2" stroke="#2c53ce" stroke-opacity=".2" stroke-width=".5" d="M293.9 344q0 1.1-1.2.7zm20 18q0 1.1-1.2.7zm-69 93q-.1 1-1.3.7zm-81 6q0 1-1.2.7z"/><path fill="#2c52ce" fill-opacity=".6" d="M56.2 434.7c1.3.4.8 2.6.9 3.6-1.5 0-1-2.7-.9-3.6m20 18.3c1.1 0 4-3.2 4.7-1.7-.9 1-3.6 3.5-4.8 1.7"/><path fill="#252525" fill-opacity=".4" d="m242.1 13.7-1.4.2q.6-1 1.4-.2"/><path fill="#3355c4" fill-opacity=".1" stroke="#3355c4" stroke-opacity=".1" stroke-width=".5" d="M275.2 287.8v1.2q-.8.2-1.1-.4.4-.6 1-.8Z"/></svg>