<svg xmlns="http://www.w3.org/2000/svg" style="shape-rendering:geometricPrecision;text-rendering:geometricPrecision;image-rendering:optimizeQuality;fill-rule:evenodd;clip-rule:evenodd" viewBox="0 0 512 512"><path fill="#e4e8eb" stroke="#e4e8eb" stroke-width=".5" d="m160.2 295.3-.4.7a28 28 0 0 0-7.7 5.5c-1 .9-2.9.8-2.8 2.6-2.7-.7-2.9 2.2-5 1.9 3.8-7.6 6.8-11.8 15.9-10.7ZM172 419.8l.7.2q.6 9 0 18c-1.6-1.8-2 .4-2.8 1.5l-2.3-.6q-2.4 1.2-4.7 2.7-1.8 1.5-4 2.4l-1.3.7-.8.3-6.1 3.7-.8.5q-.7.3-1.1.8-2 .9-3.8 2l-1.3.8-.8.4-1.1.8a35 35 0 0 0-5 2.8l-5.1 2.9-.7.5-1.3.7-5 2.8-.7.5-1.3.7-5 2.9-1 .3q0-1.4-1.4-1.7l-10.5-.7a4 4 0 0 1-2.8-1.6q1-.1 1.7-.7 34.2-21.7 68.3-43.7Z"/><path fill="#947b6a" d="M204 161.3q-1.5-.9-3.4-.1l-12.5 7.2c-1.6 0-.9-2.5-.5-3.3 3.3-2 8-4.5 11-6.8q2.7 0 5.3.2a245 245 0 0 0 19-10.8q1.5-1 3.1-1.1 0 1.2-1.3 1.8l-15 10c-2 1.3-2.9 3.3-5.7 3"/><path fill="#6e5f57" fill-opacity=".9" d="M181 161.7c-1 .2-1.7-3.8-1.9-4.6q1.4 1.3 3 .3c7.6-4.7 16.6-9.1 23.8-14.2 1.7-1.1 2.9.3 1.3 1.4-5.4 2.7-11.8 8.4-16.7 10.8q-1.3 2-4 2c-2 2-2.4 3.5-5.4 4.3"/><path fill="#937661" d="M248.8 231q.2 1 1.2 1a44 44 0 0 1-10.3 7.4q-1 .7-.8 1.8-2.6-.7-5-1.8c4.4-3.1 9.9-6.6 14.9-8.5"/><path fill="#e3e6e8" d="m228.8 396-1.1 14.4q0 1-1 1.4l-3.8-12.8c1.4.7 4.6-2.2 5.8-3"/><path fill="#e4e8eb" fill-opacity=".3" d="M435 341.6v1.2l-1 .2q.3-.9 1-1.4m-20.8 47.1q-1.8 2.9-5.2 3.2a8 8 0 0 1 5.2-3.2m-2.3 34.4c-.2 1.5-3.5 3-4.9 3 .1-1.3 3.7-3.4 5-3M214 429q-.9 2-3 2 .7-2 3-2m-76 27q-.2 1-1.2.8zm.3 3.3-1.3.7q.3-1.1 1.3-.7M327 468a23 23 0 0 1-5.1 3.9v-1.3a8 8 0 0 1 5-2.6m-223.8 13.2-1.3.7q.3-1.1 1.3-.7M93 482q-.3 1.1-1.3.7zm148 5.6-.2 1.1-.8.3q.3-.9 1-1.4"/><path fill="#726259" fill-opacity=".9" d="M227.8 163q.6-1.4-1-2l12.2-7.7q1-.7 1.9.1c0 1.5-2 1.4-2.7 2.2q-3.9 2.5-7.2 5.6z"/><path fill="#e4e8eb" fill-opacity=".4" d="M184 323c-.1.8-1.3 1.7-2 .8q.8-1.1 2-.7m-2 18a3 3 0 0 1 2.6-2c1.3 1.2-1.9 1.7-2.6 2m-104 2a3 3 0 0 1 2.5-1.8c1.5.8-1.7 2-2.5 1.8m274 47c-.3.7-1.3 1.6-2 .7q.9-.9 2-.6m-154 13c0 .9-4.5 4.2-5 2.7.5-1 3.7-3 5-2.6m-40 7a8 8 0 0 1-5 3.1 6 6 0 0 1 5-3m31 17.1q-.8 1.3-2 .5.8-.9 2-.5m143 20c.1-.8 1.3-1.8 2-.8a2 2 0 0 1-2 .8M98 479.3q-.4.8-1.4.6z"/><path fill="#9a9fa0" fill-opacity=".4" stroke="#9a9fa0" stroke-opacity=".4" stroke-width=".5" d="M337.8 295.3c-1.2 1-8.5 6-9.5 5.5l.8-5.1c1.7-2 6.4-.2 8.7-.4Zm-6.2 1.6c.5 0 2-.4.9-1q-.8.1-.9 1Z"/><path fill="#888a8a" fill-opacity=".1" d="M79.7 411q.3.5-.1 1l-11.3 7.3q-1.3-.4-1.2.8-.7.8-1.8.5-.2-1.2 0-2.4 6.9-3.2 13.3-7.2z"/><path fill="#dbdde2" fill-opacity=".2" d="M368.8 379q.3 1 0 2l-1.6.6-10.8 6.3q-.6.2-1.3.1c1.2-2 11.1-7.5 13.7-9"/><path fill="#e3e8eb" fill-opacity=".4" d="M188 321.3q-1.8 1.2-4 1.7 1.1-2.8 4-1.7M78 356c-.5.8-2.3 3-3 1.7.3-1.2 2-1.2 3-1.7m95.1 63-.4 1-.7-.2q.1-1 1.1-.9m-10.9 25.2q-.5.4-1.2.6.2-.9 1.2-.6M127.3 466l-1.5.7q.5-.8 1.5-.7M353 484.9q.5 0 1.1.4-.5.6-1.4.9zm-161 8c-.8 1.7-3.3 3-5 3 1-1.4 3-3.1 5-3"/><path fill="#e4e8eb" fill-opacity=".5" d="M182 341c0 .8-1.3 1.5-1.9.6a2 2 0 0 1 1.9-.6m187.2 4.9-.4 1-1-.2q.4-.8 1.4-.8M78 356q.5-1 1.6-1.1c1.1.8-1.1 1.3-1.6 1.1m23 11a2.5 2.5 0 0 1 2.5-1.8c2 1-1.8 1.8-2.5 1.8m-34.8 19 1 .4-1.4.7zm91.7 24q.6-1.1 1.7-1.6 2.6-.5.6 1.3a5 5 0 0 1-2.2.3m-55.1 19.3q.3-1.4 1.7-1.4c1.2.9-1.2 1.3-1.7 1.4M446 439.9l-.4 1.1-1-.3q.6-.7 1.4-.8m-281 33h1.3q-.7 1-1.6 1.1zm31.8 17.1c.1 1-1.2 1-2 1q.6-1.3 2-1"/><path fill="#8d8e90" fill-opacity=".1" d="m78 445-9 5.5q-1.3.8-2.8 1.3-.5-.8-.3-1.7l10.9-6q1.2-.4 1.2.9"/><path fill="#e3e7ea" stroke="#e3e7ea" stroke-width=".5" d="m87.8 425-.1 13.8q-.8 2-2.2.6-.3 1.4-1.2 2.4Q81 443 78 445q0-1.2-1.2-1-5.4 3.1-11 6c-.9-2.7-.5-7.2-.6-10.2q11.5-7 22.6-14.9Zm260.3 44 1-.2-.2 1-.9.3z"/><path fill="#e4e8eb" fill-opacity=".5" d="M198.9 363.2c-.5.9-2 2.3-2.9 1.4q.8-1.8 2.9-1.4M409 392c-.4 1-4.2 4.2-5 2.8a9 9 0 0 1 5-2.8m-2 34.1c-.4 1-2 2.6-3 1.6q.9-1.8 3-1.6m-212 65q-.9 2-3 2 1-1.7 3-2"/><path fill="#6b5d56" fill-opacity=".7" d="M239.2 5.6q-3.1.4-6.3.2.4-.8 1.3-1c2.5-.7 3.2-1 5 .8m44-.2a41 41 0 0 1-6.5.7q.2-.7.8-1 3-1.6 5.8.3"/><path fill="#d9dcde" fill-opacity=".2" d="m98 369-1 1.2-8.7 5.6a2 2 0 0 0-1.4-1.2l9.6-5.6a3 3 0 0 1 1.6 0"/><path fill="none" d="M195.8 440.3q0 .8-.7 1.2-4.5 3-9 5.4-.7-.8-.1-1.7 3.7-2.8 7.9-4.9 1-.5 2 0"/><path fill="#e4e8eb" fill-opacity=".3" d="M332 447.1a3 3 0 0 1-3 1.8 4 4 0 0 1 3-1.8m108 8.8.2 1.5q-2.2 1.7-4.8 2.7l-.3-.4q2.3-2 4.9-3.8m-23.7 42-.3-1.2c.5-.5 1.8-2 2.6-1.2q-.6 1.7-2.3 2.5"/><path fill="#e4e8ec" fill-opacity=".4" d="M355 388a4 4 0 0 1-3 2q.9-1.8 3-2m-200.7 61q-.6.6-1.4.8.5-.8 1.4-.7M329 467q-.5 1.2-2 1.1.5-1.5 2-1.1m-209.7 4-1.3.8q.3-.8 1.3-.8m317.7 3.3q.6-1.9 2.6-2.3c1.6 1.2-1.8 2-2.7 2.3m-332 1q-.3.8-1.2.7zm-19 11q-.4.7-1.3.7zm6.3 1.8q-.7.5-1.5.6.5-.7 1.5-.6m-8 5-1.5.6a2 2 0 0 1 1.5-.6"/><path fill="#d0d8dd" fill-opacity=".9" d="M359.2 462.8v1.1q-1 .3-1 1.3-.9 0-1.2 1c-1.8 0-3.3 1-4.7 2q-1 0-1.4.8l-.7.1-1.2-.3q.2-.8 1-1.1c2.8-1.4 6.3-4.2 9.2-4.9"/><path fill="#8d7261" fill-opacity=".2" stroke="#8d7261" stroke-opacity=".2" stroke-width=".5" d="M233 190c-.4 1.5-6.2 4.9-7.7 5.8q0-1-1-1.4c2-.9 6.6-4.6 8.7-4.3Z"/><path fill="#e4e8eb" fill-opacity=".5" d="M111.2 312.9a3 3 0 0 1-2.6 2c-1-1.3 1.9-1.5 2.6-2M320 335l1 .4q-.6.4-1.4.6zm-122.2 68q.6-1 1.7-1.7 2.5-.3.6 1.3-1 .5-2.3.4m-8.8 24.1q.5-2 2.5-2c1.6 1.1-1.7 2-2.5 2m-123.2 51q.7 0 1.3.3l-1.4.7z"/><path fill="#6f6144" fill-opacity=".2" stroke="#6f6144" stroke-opacity=".2" stroke-width=".5" d="M199.9 93c-.7 1.9-3.7 4-5.6 4.7q-.7-1.2 0-2.6 2.7-1.2 5.6-2.1Z"/><path fill="#f8ccd3" d="m238.1 434.2.1-2.2q2.3-.8 4.3-2 0 .3.3.4c-1 1.4-2.8 3.6-4.7 3.8"/><path fill="#e2e7ed" fill-opacity=".2" d="M329 448.9c-.4 1.7-3.6 3.2-5 4l-.1-1.2q2-2.2 5-2.8m-222 25q-.3 1-1.3.9z"/><path fill="#e9ecee" fill-opacity=".2" d="M417 419v1.4a9 9 0 0 1-5 2.7c.8-2 3.3-3 5-4.1"/><path fill="#e4e8eb" fill-opacity=".4" d="M168 305.9a3 3 0 0 1-1.7 1.8q-2.3.3-.4-1.1 1-.5 2-.7m-32.7 155q-.7.6-1.5 1 .6-.9 1.5-1M79 490.4q-.5.8-1.4.7.6-.6 1.4-.7m-7 4q-.5.4-1.2.6z"/><path fill="#e4e7ea" fill-opacity=".3" d="M329 467q1.2-1.2 0 0m-210 0q-.3 1-1.3.8zm-23.7 19.3-1.3.7q.1-1.1 1.3-.7m91.7 9.6q-.7 1.1-1.6 2-2.4 0-.5-1.4 1-.6 2-.6"/><path fill="#e5e8eb" fill-opacity=".3" d="M437 352q-.6 1.3-2 1 .6-1.2 2-1m-336 15a4 4 0 0 1-3 2 3 3 0 0 1 3-2m10.3 109-1 1q0-1.1 1-1"/><path fill="#87898b" fill-opacity=".9" d="M347.2 497.3q1.5.1 1 1.4l-4.2.2q0-.7.9-1c.7.4 2.4.6 2.3-.6"/><path fill="#fbb3be" d="M268.7 418.3q.2 1 1.1 1c-.8.6-2 2-3.2 1.7-.8-1 1.6-2.1 2-2.7"/><path fill="#b5a59a" d="M257.1 288.9v-1.1q.5-1.5 2.3-1.7c.5 1.2-1.3 2.4-2.3 2.8"/><path fill="#9fafbb" d="M359.1 464v-1.2c.1-.9 2-2.1 2.5-1.4q-.6 2-2.5 2.5"/><path fill="#d5dce1" fill-opacity=".8" d="M365.3 477.7c-1.1 3.2-5.5 4.2-8 5.8v.2q-1.7.6-3.2 1.6l-1.1-.5q0-.5.4-1l9.5-5.5z"/><path fill="#6c5d57" fill-opacity=".4" stroke="#6c5d57" stroke-opacity=".4" stroke-width=".5" d="M205.3 9.1q-.3 1-1.2 1.1 0-1.2 1.2-1ZM180 72q-.9 2-3.1 2.2.8-2 3.1-2.2Z"/><path fill="#fef2f4" d="m272.1 416-.1 1.9-2.1 1.5q-1-.2-1.2-1.1 1.5-1.3 3.4-2.3"/><path fill="#a38670" fill-opacity=".3" stroke="#a38670" stroke-opacity=".3" stroke-width=".5" d="M224 181c0 1.1-1.4 1.1-2.1 1.2q.5-1.4 2-1.2Zm82.9 19 .3 1.2a2 2 0 0 1-2.1.7 4 4 0 0 1 1.8-1.9Z"/><path fill="#e4e8ec" fill-opacity=".3" d="m76 343.1 2-.1q-.4 1.2-1.6 1.7-.7-.6-.3-1.6m69 109q-.2 1-1.3.7zm-57.7 39.2-1.2.8q0-1.2 1.2-.8"/><path fill="#e4e8eb" fill-opacity=".4" d="m369.2 328.8-.2 1.1-1.2-.2q.5-.7 1.4-.9M435 353q-.8 2-3 2a4 4 0 0 1 3-2"/><path fill="#a5b4bf" fill-opacity=".8" d="M373.2 495q-.6 3-3.5 3 1.2-2.1 3.5-3"/><path fill="#b7babc" d="m377.9 297.8-.3 1-.8.2c-.8 0-1.8-1.2-1-1.8q1.2-.4 2 .6"/><path fill="#a9b7c2" d="M365.3 477.7c-.6-1 1.4-1.6 2.1-1.7.6 1.1-1.1 2.1-2.1 1.7"/><path fill="#e3e7eb" fill-opacity=".2" d="M216 428q1.3-1.2 0 0m7 15-.2.9-.8.2q.3-.8 1-1.1m-65.7 4.3-1.2.8q0-1.1 1.2-.8M126 463q-.3 1-1.3.8z"/><path fill="#747676" fill-opacity=".1" d="M418.4 418q1 0 1.6 1-1.5.9-3 1.4V419a2 2 0 0 0 1.4-1"/><path fill="#e3eaea" fill-opacity=".1" d="M119.8 304.8q0 1-1 1zm67.4 161.7-1 .7q0-1.1 1-.7m-69.8 5.8-1.3.8q.1-1 1.3-.8m232.9-.3q-.3 1-1.2 1.4 0-1.2 1.2-1.4"/><path fill="#e4e6ec" fill-opacity=".2" d="M147.9 416q-.6 1.3-1.7 2l-.3-1.1a2 2 0 0 1 2-1m-41.6 63.3-1.2.8q.1-1 1.2-.8"/><path fill="#736753" fill-opacity=".1" stroke="#736753" stroke-opacity=".1" stroke-width=".5" d="M220 228h1q-.5 1.5-2 2-.7 0-.7-.7.7-.8 1.7-1.4Z"/><path fill="#937661" stroke="#937661" stroke-width=".5" d="M231 229c-1.3 2-6.3 3-5.9 6-1.2-1-6.2-3.6-6.1-5q1.5-.5 2-2a6 6 0 0 0 4-1.5c2.9-1 4 1.3 6 2.6Zm52.8 18.3c-1.8 1.5-9.3 7.7-9.7 9.5q-1.8.2-2.8 1.7c1.3.9 2.2-.7 2.8-1.7 2.7-.5 7.3-3.6 9.8-5-.3 3 .6 11.9-.8 14q-12.3 12.6-24.7 25-1.6 1.3-2.4-.7.3-.9 1.1-1.2c1-.4 2.8-1.6 2.3-2.7q-1.8 0-2.3 1.6-1.2.3-2.2 1c-1.7 0-12-11.6-13.8-13.6l15.6-14.6c-1-.8-4.8 1.8-5.5 2.7q-7.4 3.5-14.3 7.8c-2.2-1.6-5.7-5-7-7.2l.1-1.8c2.4-1.3 9.1-9.2 10.9-12 14.5 2.2 27.9 1 41.7-3.7q1.2-.3 1.2.9Zm-44.5 2.6q-.2.7-.8.9-5.3 2.6-10.4 5.6l-.1-8q0-.8.6-1.3 5.4 1.2 10.7 2.8Z"/><path fill="#937661" fill-opacity=".5" stroke="#937661" stroke-opacity=".5" stroke-width=".5" d="M274 256.8c-.5 1-1.4 2.6-2.7 1.7q1-1.5 2.8-1.7Z"/><path fill="#717575" fill-opacity=".1" d="m323.9 451.8.1 1.2-1.5 1q-.9 0-1.5-1a8 8 0 0 1 2.9-1.2"/><path fill="#cfcecf" fill-opacity=".9" d="m228 260.7 2 1.5-.2 1.7q-2.1-.9-1.8-3.2"/><path fill="#cfcdcc" d="M257.1 287.8v1q-1 .4-1 1.3a2 2 0 0 1-1.2-1.3q1-.7 2.2-1"/><path fill="#e6eaea" fill-opacity=".2" d="m114.3 474.3-1.2.8q0-1.1 1.2-.8M81 488.9q-.3 1.1-1.3.8zm-1.7 7.4-1.2.8q.1-1 1.2-.8"/><path fill="#fccad2" d="M273.3 430v2q-1.2.2-2-.4.5-1.5 2-1.5"/><path fill="#e4eaea" fill-opacity=".2" d="M437 352q.2-.5.8-.4-.3.3-.8.4m-278 92q-.2 1.2-1.4.7zm-60.7 40.3-1.2.8q.1-1 1.2-.8"/><path fill="#9b8d8f" d="M272.4 414.9q.9 1.5.3 3h-.7l.1-1.9z"/><path fill="#6c5d56" fill-opacity=".4" stroke="#6c5d56" stroke-opacity=".4" stroke-width=".5" d="M344.7 56.1q-.6 1 0 0ZM182.1 88.8l-.2 1.1-1.1-.2q.6-.6 1.3-.9Z"/><path fill="#e4e9eb" fill-opacity=".4" d="M124 464.2q-.3.9-1.3.7zM100.3 483l-1.3.8q.3-1 1.3-.8"/><path fill="#e5e7ec" fill-opacity=".4" d="M331.6 296.9q0-.9.9-1c1.1.6-.4 1-.9 1M143 453.2q-.2 1-1.1.8z"/><path fill="#e2e7ec" fill-opacity=".2" d="m141.3 457.3-1.2.8q0-1 1.2-.8M133 459q0 1.1-1.2.8z"/><path fill="#e5e7ea" fill-opacity=".4" d="M149.9 449.2q-.2 1-1.1.8zm202.4 19q-.5.6-1.4.8.5-.7 1.4-.9"/><path fill="#e5e9e9" fill-opacity=".2" d="M152 448q-.1 1.2-1.3.7zm-2.7 4.3-1.2.8q.2-1 1.2-.8"/><path fill="#e4e7ea" fill-opacity=".3" d="M156.8 445q0 1.1-1.1.7zm-10.6 9-1 .9q0-1 1-1"/><path fill="#e3e7eb" fill-opacity=".5" stroke="#e3e7eb" stroke-opacity=".5" stroke-width=".5" d="m346.2 496.7 1 .6c0 1.2-1.6 1-2.3.6q.4-.8 1.3-1.2Z"/><path fill="#e5e9ea" fill-opacity=".5" d="m446.3 422-.4 1q-.5 0-1.1-.3a2 2 0 0 1 1.5-.7M349 468.8l1.2.3a2 2 0 0 1-1.3.7z"/><path fill="#e2e9e9" fill-opacity=".1" d="m384.2 320.6-1.2.5q.2-1 1.2-.5M348 470l.9-.3q-.2.9-1.1 1.2z"/><path fill="#e7e7ec" fill-opacity=".2" d="m93.3 389-.4 1.1h-.8q.3-1 1.2-1m-25 30.3-1.1.8q-.2-1.2 1-.8"/><path fill="#aeb0b3" fill-opacity=".9" d="M275 479.3a2 2 0 0 1-1 1q0-1 1-1"/><path fill="#6a5d55" fill-opacity=".4" d="m176.3 26-1.4 1.4q.3-1 1.4-1.4"/><path fill="#e1e7ed" fill-opacity=".2" stroke="#e1e7ed" stroke-opacity=".2" stroke-width=".5" d="m382.2 333 .7-.1q-.1.8-.9 1.1z"/><path fill="#c5cbcb" fill-opacity=".2" stroke="#c5cbcb" stroke-opacity=".2" stroke-width=".5" d="m382.2 370.1.7-.2a2 2 0 0 1-.8 1.2z"/><path fill="#6c5d57" fill-opacity=".3" d="m258.1 11 1-.3q-.2 1.3-1.4 1.3z"/><path fill="#695b57" fill-opacity=".2" stroke="#695b57" stroke-opacity=".2" stroke-width=".5" d="M203.2 10.2q-.4.6-1.2 1.1 0-1 1.2-1.1Z"/><path fill="#6e6e6e" fill-opacity=".4" d="M319.7 336q0 .7-.6 1 0-.6.6-1"/><path fill="#acb1b1" fill-opacity=".2" stroke="#acb1b1" stroke-opacity=".2" stroke-width=".5" d="m160.2 295.3.9-.2q-.3.9-1.3 1z"/><path fill="#93a2ae" fill-opacity=".3" stroke="#93a2ae" stroke-opacity=".3" stroke-width=".5" d="m374.2 494.2-1 .9q0-1.1 1-.9Z"/><path fill="#e6e9ed" fill-opacity=".3" d="M74 493q-.2 1-1.3.8z"/><path fill="#dbdfe3" fill-opacity=".3" stroke="#dbdfe3" stroke-opacity=".3" stroke-width=".5" d="m376.8 299 .8-.2q.3.9-.5 1.5z"/><path fill="#e5e8eb" fill-opacity=".6" d="m377.9 297.8 1.4.2q-.7.8-1.7.8z"/><path fill="#e0e6e6" fill-opacity=".2" stroke="#e0e6e6" stroke-opacity=".2" stroke-width=".5" d="m173.2 454.9-.5 1-.6.2q.2-.9 1.1-1.2Z"/><path fill="#bfc4c4" fill-opacity=".2" stroke="#bfc4c4" stroke-opacity=".2" stroke-width=".5" d="m382.2 351.1.7-.2q-.1.8-.8 1.2z"/><path fill="#e3e8eb" fill-opacity=".4" d="M131 460.2q-.3.8-1.3.7z"/><path fill="#999b9c" fill-opacity=".8" d="M138.4 298.2q-.6.5-1.4.7.4-.9 1.4-.7"/><path fill="#d5dadc" fill-opacity=".4" stroke="#d5dadc" stroke-opacity=".4" stroke-width=".5" d="m66.2 462 1 .3q-.6.5-1.3.7z"/><path fill="#d7dbdb" fill-opacity=".2" stroke="#d7dbdb" stroke-opacity=".2" stroke-width=".5" d="m100.3 411.1.7-.1a2 2 0 0 1-1.2 1.2z"/><path fill="#7f6b5c" fill-opacity=".9" d="M315 196.7q0 1-1 1 .3-.7 1-1"/><path fill="#859aa9" fill-opacity=".5" stroke="#859aa9" stroke-opacity=".5" stroke-width=".5" d="m359.1 464-.8 1.2q-.1-1 .8-1.3Z"/><path fill="#44657a" fill-opacity=".3" stroke="#44657a" stroke-opacity=".3" stroke-width=".5" d="m358.3 465.2-1.3 1q.1-1 1.3-1Z"/><path fill="#c5cacc" fill-opacity=".4" stroke="#c5cacc" stroke-opacity=".4" stroke-width=".5" d="m347.7 473 1.4.4q-.3.5-1 .9 0-.6-.4-1.3Z"/><path fill="#abaeb0" d="M92.1 390.1h.8a1 1 0 0 1-.8.8z"/><path fill="#8e7663" fill-opacity=".2" stroke="#8e7663" stroke-opacity=".2" stroke-width=".5" d="m318 180-.2 1h-.6q0-.7.9-1Z"/><path fill="#e6e6eb" fill-opacity=".2" d="M88 485q-.3 1.1-1.3.7z"/><path fill="#262626" stroke="#262626" stroke-width=".5" d="M232.9 5.8q3.1.1 6.3-.2c3 .6 9.4.3 12.6 0q3.2.6 6.4 0 9.3.4 18.5.5a41 41 0 0 0 6.6-.7c2.3.7 13.8 1.5 17.2 1.5 35 9.8 56.4 30.3 63.4 66.6 2.6 29.8.8 58.5-18 83a43 43 0 0 1-15.5 23.4c-4 25.3-12.8 44.6-33.9 60q-.5 10.7 0 21.4c1.3 3 26.6 20.5 31 23.7 29-.1 52-1 79 12 35.4 19.7 51.9 51.3 52.4 91.5q-.6 47 .2 94c0 15.1-10.8 25.3-25.6 25.9l-355-.1c-16.2.3-25-10-25-25.8.5-33.7-1.3-68.5.6-102 4-50.8 36.3-85.8 86.4-94.3a349 349 0 0 1 44-1c2.1 0 30.1-20.5 31.1-22.8.2-5.4.5-16.8-.1-21.5a73 73 0 0 1-31.3-45.4c-1.7-10.4-1.5-12.7-9.5-19.5a57 57 0 0 1-9.2-18c-23-30.1-26-90.1-.7-119.6A214 214 0 0 1 176.3 26q.7-.7 1.7-.8a3 3 0 0 0 1.3-1.2A138 138 0 0 1 202 11.3q.8-.5 1.2-1.1h1q.8-.2 1-1h.8q2.2 0 4.4-.3 11.2-2.5 22.5-3Zm-12 7c.8-2-8-.1-8.9 1.2-2.1-.4-5.4 1.4-7.5 2-19.5 6.8-40.8 30.8-42.4 51.4a6 6 0 0 0-1.2 3.3c-.5 3.8-1.5 8.7-.6 12.4q-.6 1.4-.1 2.8c-1 3.5-.3 7.5-.5 11.1q.4 3.5.5 7c.9 2.7.3 8 2 10.1q-.5 3.5 1 6.7 1.1 6 2.9 11.7 0 1.1 1.2 1.3l4.8-7.2q4.2-4.5 9.2-7.8.3-5-.5-9.9c.4-1.4 1.3-4.8-1-5 2.3-1.5 1.9-11.3 2-14l.3-1.1q1-2.2.8-4.7C195.7 48 224.5 47 258.1 47l3.5.1q11.7.4 23.2.4c1 .9 5.6.6 7 .1A119 119 0 0 1 314.5 58a4 4 0 0 0 3.5 3c1 2.3 9.3 13.6 10.7 17.5q-.2 1.5 1.3 1.6c-1.8 1.7.5 9.6 1 12l-.3 24.6c0 1.6 4.9 3.4 6 4.5l1.3.8q4.4 4.7 7.2 10.4.4.7 1 .7a83 83 0 0 0 4.6-18.3l1-6.6c0-3.4 1-9.2 0-12.3.3-.6 1.5-3.6.2-3.4.7-3.7-.1-7.8 0-11.5q0-1.3-1-2 .6-5.3-1.3-10.2c-.1-1-.2-3.3-1.5-3.5.5-1.7-1.8-8.9-3.5-9 .5-2.8-2.5-6.4-3.9-8.5-.6-1.6-2-4.5-3.8-5 .1-2.2-10.4-13.3-13.3-13.7.4-1.5-4.3-4.9-5.7-4.4-.5-2.3-6.8-4.9-9-5.6a14 14 0 0 0-8-3.1c-.4-1.5-10.3-3.5-12.1-3.7q-3-.8-5.8-.1-.5-1-1.6-1-7.4-.2-14.8-.1-3.7 0-7.6-.3l-1 .4c-3.9.3-14.6-.8-17.6.8-2.6-2-16.6-1-19.6.9Zm2.3 43c-17.7 3.2-27.8 18.1-29 35.3a9 9 0 0 0 0 4q-.6 1.4.1 2.6-.3 11.2-.9 22.3c-1.5 2.3-6 3.3-8.2 4.9-10.7 7.2-8.6 21.4-6 32.2.1.8.9 4.7 1.9 4.6.7 3.6 3 6.9 5.6 9.4a3 3 0 0 0 2.4.9c-.1.6 5.8 7.2 6.2 7.2-1.3 1 .1 5.1 0 6.7.4 1.2 1.5 9.7 2.4 10a9 9 0 0 0 .9 3.1c.7 2.1 2 6.8 3.5 8.3q.2 1.8 1.6 2.6c.3 2.9 3.4 6.8 5.2 9a9 9 0 0 0 2.3 3.1 23 23 0 0 0 7 7.3q0 .6.8.6c-.1 1.5 5 4 6.1 5a65 65 0 0 0 13.8 6.3c16 4.6 32.8 3.6 47.5-4.4 11.6-7.2 26.8-25.3 27.6-39q1-.1 1-1.1.5-1.6-1-1.6c3-2.4 2.2-10.6 3.8-14.2q0-.4.3-.8c2.7-5.2 8.8-5.5 11.1-12q3.5-6.7 5.1-14.1c1-1.7.7-5.1.4-7 .9-2.6 0-10.6-2.8-12 .6-2.5-4-7-6-8.4a19 19 0 0 0-3.6-2.2c-4.7-1.8-4.2-3.1-4.4-7.7q.4-3.7 0-7.6a66 66 0 0 0-.1-15c0-2.8-.7-7-1.7-9.5q0-2-1.2-3.4c-.3-2.8-1.9-6.8-4.1-8.4.1-.9-.4-2.5-1.4-2.6a40 40 0 0 0-35.7-15c-5-.7-11.3-.5-16.5-.2-5.5 0-13-1-18.3.1-2-.7-14.7-.6-15.8.7Zm17.7 194.3-1.6-.2q-5.3-1.6-10.7-2.8-.6.5-.6 1.4v12.2q-.4 2.3 1.8 3.2c1.4 2.2 5 5.6 7.1 7.2q1.6 2.4 4.2 4.1c1.8 2 12.1 13.5 13.8 13.6q.3.9 1.1 1.3.8 2 2.4.8l24.7-25.1c1.4-2.1.5-11 .8-14q.1-2.2-.1-4.5 0-1.1-1.2-1a86 86 0 0 1-41.7 3.8Zm35.9 58 5 4.2c1.4.8 7.4 6.6 8.6 6.4a662 662 0 0 0 24.8-26.7c.8-1.6-2.1-2.7-3-3.6q-4.5-3.5-9.2-6.5-.4-.6-1-1l-11.4-8.7q-.7-.6-1.7-.5-12.5 11.9-24.4 24.3-.8 1 0 2zm-75.1-11.8 4 4.1q7.8 9.8 17 18.2.8.3 1.4-.1 11.7-9.6 23.1-19.5.2-.8-.4-1.4-6.3-6.5-13-12.5-5.7-6.4-12-12.3-.8-1-2-.5a697 697 0 0 0-23 17.6c-.4 1.6 4 5 4.9 6.4Zm-57.4 9.7q-1.5 5.1-1.4 10.6-.3 23.4.1 46.8l.6.5a48 48 0 0 1 30.5 15.3c15.5 16.7 11.1 43.5 11.1 64.2q0 1.2.8 1.8-.6 1 0 1.7c-1.4 2.7-.4 11.9-.9 15.4a13 13 0 0 1-6 7.3c-4.2 2.4-8.3 2-12.7 3.4H165c-1.9-.5-10.1.5-8.7-3.3 1.6-4 10.8-3.6 14.2-3.7q.8 0 1.5-.5 1.3-4.7.7-9.5l.5-1.1v-2q-.1-7.5-.5-15 .6-9 0-18l.4-1 .2-.8c-.7-14.4-3.2-30.9-16.5-39.2q0-.9-.8-1.5c-27.5-18.3-57.1 2.3-55.7 33.7l-.5 1q.3 2.4.3 4.7l-.2 26.4v2.7q.2 6.8 0 13.4.4 2.7 2 4.8 1.2 1.4 2.9 1.6l10.5.7q1.5.3 1.4 1.7c-.3 3.8-5.4 4.2-8.4 4.7q-8.4 0-16.4-2.6l-3.6-4.1c-.6-.2-.3-12.8-1.1-11q1-2.1 0-4.1c1-2.4.3-9.3.5-12.2q.2-6.9.1-13.9l-.1-5.8v-14a137 137 0 0 1 4.4-14.2q.7-.2.8-.8l.4-1q1.5-1.8 2-4 0-.5.3-.8c8-7 13-12.9 23.4-16.8l10.6-3.4q.6-3.3.5-6.6c2-17.6-4.5-44 7-58.6q.7-.2 1.3-.7c1.2-1.3-1.1-1.3-1.9-1.1q-5.7.9-11.2 2.8c-17.3 3.5-43.8 26.6-49.3 43.2q-.5.2-.8.6l-3.5 8.4-2.4 7.5c0 2.5 1.5 1-.7 3.5a90 90 0 0 0-2.4 22.9l-.4 1.1v3l-.6 12c.2.8-.6 4.8.7 4.7-1.3 2.8-.9 8.3-.6 11.4q-.2 1.2 0 2.4-.5 5.8-.2 11.5l.1 7.7c0 3-.3 7.5.7 10.3q0 1 .3 1.7c-.8 3-.3 7.2 0 10.2q0 .6-.3 1v4.6c.1 3-.8 7.7 0 10.5v1q-.4 4.1.7 8.1c.1 1.6 2.2 8 4.2 7.7.7 2.1 3.7 3.7 5.8 3q.6 1 1.9.8c4.6-.2 11 .4 15.3-.5 1.2.8 10 1 11.4-.1v.3q8.8.5 17.7.4h102l15.4-.2c1.7-.3 6.1.1 4.5-3-1-1.6-2.4-5.9-4-6.9l.2-1-.6-.9q-6.4-14.3-12-29l-.3-1c-1.2-2-3.7-12.2-5.3-13l.2-.8q-.2-1.2-.6-2.2-12.3-37.8-22.4-76.3-.2-1-1.1-1.3 0-1.6-.4-3.2-5-18.7-9.5-37.5 0-.9-1-1.2c-.8-7.5-4-18.2-5.8-25.8a2 2 0 0 0-1.6-.5h-19.5l-1 .3c-9-1.1-12 3-15.8 10.7Zm184-5.2a90 90 0 0 0-3.6 14.3q-.6 1.8-.9 3.8c-1.2 4.9-3.3 11.2-3.7 16.1l-.4 1q-.5.4-.6 1a7 7 0 0 0-.3 4.2 80 80 0 0 0-5.3 19q.4.3 0 .8c-2.8 4.8-4.6 14-6 19.6A557 557 0 0 0 301 403q-10.6 37.7-25.6 74-.5 1-.5 2.3-1 0-1 1l-3.8 7.6q-2.6 5.2-4.8 10.5 4.3.4 8.5.4c2.5-.4 6 .3 8.3-.7q.4.9 1.4.6h29.3q9.5.2 19-.5c1.1 1 10 0 12 .7q2.3 0 4.3-.2.5-1.2-1-1.4l-1-.6a27 27 0 0 0-4-4.6c-1.9-3.4-4-6.6-5.1-10.3a15 15 0 0 1-.9-3.8c-4.1-24 10.9-38.5 31.9-45.4q.7-.3 1-1.1a1072 1072 0 0 0-.2-52.5c.7-4.2.3-10 .3-14.3v-3.6c-.2-3.9.6-10.6-.3-14.1l.4-1.1v-3.7q0-6.2-.3-12.3l.3-1V325c-.1-2 .4-11.2-1-12-.2-2-.4-4.7-2-6-.4-3.2-3.5-6.6-6-8.4a11 11 0 0 0-5.3-3q-.1-.3-.5-.4c-4.7-.6-12.2-.8-16.6 0-2.3.2-7-1.5-8.7.4zm48.5-1.8.3 1.3q1.8 2.5 3 5.5 1.5 5.2 1.8 10.5v4.6q0 6 .3 12l-.2 1.1-.2 4 .4 13.1-.1 1v19l-.2.8q0 26 .3 52c.2 1.7-.9 7.2.2 8.2l6.6 1.5c6.5.8 14.6 8.4 18.3 9.6h1.3c-.3.8-2 .6-1.2 2q4.2 5.6 6.8 12c3.5 12.8 0 26.9-9.4 36.2l-5.4 5c1 1.2 13.2.4 15.2-.2q.6 1 1.9.8 7.8 0 15.7-.4c16.4-1.8 13.9-16.2 13.7-29-1-1.2-1.4 1-2.9.1 1-1 2-2 2.7-3q.2-12.9 0-25.7l.4-1.1-.1-5.6q.2-5.6-.1-11.3l.4-1q-.3-3 0-6a136 136 0 0 0-.2-15.8 128 128 0 0 0-1.4-27.5q0-.6-.6-.6l.1-2c-.5-4.5-6.1-25.4-9.3-27.3l.1-1.2-1.6-2.9q-2.5-4-5.3-8l-4.8-5.8-7-7c-1.1-.8-2.9-3-4.3-2.9 0-1.7-6.4-5.1-7.8-6.3q-2.4-1.6-5-2.8c-3.5-2-7.3-4.2-11.3-5a27 27 0 0 0-10-3.1q-.8-1-2.2-.6c-.7.6.3 1.8 1.1 1.8Zm-133.6 36q.5 1.5 1.5 2.9 4 .6 8.3.3 7.7 0 15.3-.3c1.1-.7 4-9.9 4.7-11.7a6 6 0 0 0 1.6-4.6v-.1l-18-14.6a2 2 0 0 0-1.9-.5Q246 313 238 320.5c-.4 1.6 4.3 12.3 5.2 14.5Zm38.6 37 .1 3q1.2 18.8 3 37.6 0 .8.5 1.3A2324 2324 0 0 0 301 358q6.2-22.7 11.6-45.6 0-2-1.3-.5c-6 7.4-16.1 19.8-26.7 16.4-1.5.5-4.8 10.5-5.4 12.4q1.1 15.6 2.5 31.3Zm-77.9-43 1.5 6.2a2843 2843 0 0 0 21.2 76.6q1-.3 1-1.4l1.2-14.4q2-26.7 3.7-53.3l-5.6-14-.6-.4q-5.7 2-11-.8l-2.2-1.6a68 68 0 0 1-12.5-12.6q-.4.5-.3 1 1.7 7.5 3.6 14.7Zm40.2 27-.1 2a596 596 0 0 0-2.1 28v1.2q-1.4 1.2-.6 2.9l-3 42-.2 2c0 3.6-1.9 9.8 0 12.9q.1 1.1.7 2.2a197 197 0 0 0 7.9 19.8q.3 1.5 1.2 3 3.6 8.8 8.1 17.4.4.4 1 0a372 372 0 0 0 17.3-41.6c.8-3.2-.4-10.2-.4-13.8q.1-2.6-.2-5.3-.9-5.3-1-10.7.6-1.7-.3-3.1a974 974 0 0 0-3.3-40 469 469 0 0 0-2.4-30.1q-.5-.6-1.4-.5h-19.6q-.7.4-.7 1.2-.7 5.3-1 10.5Zm104 113v1l-.3 1v2q0 .6.4 1.3 1.5 6.2 4.6 11.8a5 5 0 0 0 2.1 1.7c.7 2.8 4.6 5.6 7 7a12 12 0 0 0 4.2 2.5q1.2.7 2.7 1 7.3.4 14.5.3c5.8 1.1 19-12.8 17-16.9 2.2-1 2.5-3.8 2.6-5.8.8-4.4.7-9.5-.8-13.8q-.2-2.2-1.4-4.1a30 30 0 0 0-5.6-9q-2-2.5-4.7-4a17 17 0 0 0-9.6-5c-1.8-2-6.3 0-8.7-.2q-1-1.1-2.5-.7c-14 2.8-22.3 16.1-21.6 30Z"/><path fill="#f67085" stroke="#f67085" stroke-width=".5" d="M254.7 329.3q1 1 2.3 1.2c-.7 2.3-4.3 5.4-4 7.7q-4.2.2-8.3-.3-1-1.3-1.5-3c4-.5 7.6-4.2 11.5-5.6Z"/><path fill="#f8b3bb" d="M257 330.5q-1.4 0-2.4-1.2 2.2-1.2 4.6-2c.8 1.3-1.4 2.3-2.2 3.2"/><path fill="#f0d4d7" d="M274.6 321.6q.2 2.7-1.6 4.6-1.4 1-2.9 1.2c.8-2 2.4-5.2 4.5-5.8"/><path fill="#eb5463" stroke="#eb5463" stroke-width=".5" d="M274.6 321.6c-2.1.6-3.7 3.9-4.5 5.7q1.5 0 2.9-1c-.6 1.7-3.5 10.9-4.7 11.6q-7.6.4-15.3.3c-.3-2.3 3.3-5.3 4-7.7.8-.8 3-1.9 2.3-3.2q-2.4.9-4.6 2c-4 1.4-7.5 5.1-11.5 5.7-.9-2.2-5.6-13-5.2-14.5q8-7.5 16.8-14.1a2 2 0 0 1 1.8.5z"/><path fill="#b8727d" d="M273.7 428.7q.3 2.7.2 5.3a2 2 0 0 1-.7-2l.1-2z"/><path fill="#8f888a" d="m241.8 387.2.3 1.8q-.2.7-.8 1.1-.7-1.7.5-3"/><path fill="#6b5d56" stroke="#6b5d56" stroke-width=".5" d="M349.7 68.7q2 5 1.3 10.2-6.3 4-12.4 8.3a5 5 0 0 0-1.5 1.4l-6 3.4c-.6-2.4-2.9-10.3-1-12zm-40.3 1.5c1 0 1.5 1.7 1.4 2.6q-.7.9-1.7 1.2l-1-1.6a2 2 0 0 0 1.3-2.2Z"/><path fill="#6b5d56" fill-opacity=".6" d="M210.4 9q-2.3.3-4.4.2.1-1.3 1.4-1.3 1.8-.2 3 1"/><path fill="none" d="M222.4 440.8q.5 1 .6 2.2-.7.3-1 1.1l-34.8 22.4q-1-.4-1 .7l-5.8 3.6q-.8-.5-1.4-1.2 4.5-2.5 6.1-7.3l33.8-19.7c1-1 3.2-.3 3.5-1.8"/><path fill="#e4e8eb" stroke="#e4e8eb" stroke-width=".5" d="M251.2 263.3v2.5l-10.1 9.4q-2.5-1.6-4.2-4.1 6.9-4.4 14.2-7.8Zm50.8 17.5c-1.2.8-3.4 2.6-3.7 4q-.9 0-.7.8.6-.3.7-.9c1.5 0 4.4-1 4.7-2.8q4.8 3 9.2 6.5c-2 4.4-6.8 8.5-9.9 12.5q-.2 1.2 1 1.1a6 6 0 0 1 3.7-1q-8.2 9-16.6 17.7c-1.2.2-7.2-5.6-8.6-6.4a166 166 0 0 0 10.4-11.6q1-2.3-1.2-1.4c-3 2-12.4 6.5-14.2 8.9L264.5 298q-.7-1 0-2 11.9-12.6 24.4-24.4 1 0 1.7.6 5.8 4.2 11.4 8.6Zm-68.1 4.3q-1 0-1.8.5-1.5 2.2 1 1 .6-.6.8-1.5 6.6 6 13 12.5.4.6.3 1.4-11.4 9.9-23.1 19.5-.7.4-1.3.1a165 165 0 0 1-17.2-18.2q5.6-5 10.7-10.3 1.2-1.2 1.8-2.7-1-.8-2.2-.2c-3.7 2.7-11.3 6-14.2 9-.9-1.3-5.3-4.7-5-6.3q11.4-9 23.2-17.6 1-.4 2 .5 6.2 6 12 12.3Zm-69.1 9.9h15.8a2 2 0 0 1 1.6.5c1.9 7.6 5 18.3 5.8 25.8q-2.9-1-4 1.8-1.2-.3-2 .7c.7.9 1.9 0 2-.7q2.2-.6 4-1.8 1 .3 1 1.3 4.5 18.8 9.5 37.4.4 1.5.4 3.2-2-.4-2.9 1.4c1 1 2.4-.5 2.9-1.4q1 .3 1.1 1.3 10 38.5 22.4 76.3c-.3 1.5-2.5.8-3.4 1.8q-17 9.7-33.9 19.7c.5-3.5-.5-12.7 1-15.4q4.5-2.5 9-5.4.8-.4.7-1.2 1.8-.3 3.3-1.3l10.9-6.8q.7-.3 1-1.1 2.1-.2 3-2.1 1.5.2 2-1 1.4-1.2 0 0-1.4-.3-2 1-2.2 0-3 2-1 0-2 .3l-7.7 4.5q-1.2.8-2.3 1.8-2.6.2-3.2 2.7-1-.5-2 0-4 2-7.8 5-1-.7-.8-1.9c0-20.7 4.4-47.5-11-64.2a48 48 0 0 0-30.6-15.3l-.6-.5q-.5-23.4 0-46.8-.2-5.5 1.3-10.6c2.1.3 2.3-2.6 5-2l-.1.5q7.6-3.9 14.8-8.3.6-.4.8-1.2Zm173 .3c4.4-.8 12-.6 16.6 0q.4 0 .5.5-15 9.9-30.2 19.3c.9-4.4 2-10.1 3.6-14.3 1 .6 8.3-4.6 9.5-5.5ZM137 299c-11.4 14.6-5 41-6.9 58.6q.2 3.4-.5 6.6l-10.6 3.4c-10.4 4-15.4 9.8-23.4 16.8l-.3.8a277 277 0 0 0-30 17l.5-12c3.5-.7 18.3-11.8 22.5-14.3q4.4-2.7 8.7-5.6l1-1.1q2.1-.5 3-2c.7-.1 4.4-.9 2.5-1.9q-1.8 0-2.5 1.8a3 3 0 0 0-3 2h-1.5l-9.6 5.6c-.9 1.3-16.9 10-19.7 11.8l-1-.4c-.1-6.2.5-17.2 2.4-23 2.2-2.4.6-.9.7-3.4a91 91 0 0 1 6-15.9q.2-.4.8-.6-.5 1 .3 1.6 1.2-.5 1.6-1.7c.8.3 4-1 2.5-1.8q-1.8 0-2.5 1.8l-2 .1c5.5-16.5 32-39.7 49.3-43.2q0 .6-.5 1.1-2.7 1.5-5 3.8l-1 1q-3.2 3-6.8 5.7l-.8 1.4c-.7.5-3.6.7-2.6 2q1.8-.3 2.6-2c5.5-1.9 19.4-11.3 25.8-14Zm223.2-.2c2.5 1.8 5.6 5.2 6 8.3q-1 0-2 .6-21.6 13.8-43 27.8l-1.1-.4c.4-5 2.5-11.2 3.7-16.1q1.3.6 2.5-.2l32.3-18.7q.9-.5 1.6-1.3ZM168 306q-1 .2-2 .7-2 1.5.3 1.1a3 3 0 0 0 1.7-1.8c1.6.5 9.6-4.3 7.6-5.1-1.7.2-6.3 3.6-7.6 5Zm219.9-5c4 .8 7.8 3 11.2 5-5.7 2.7-11.7 7-17.2 10.4q-.4-5.3-1.8-10.5c1.4 0 7.8-3.2 7.8-4.8Zm16.3 7.8c1.4 1.2 7.7 4.6 7.8 6.3-4.1 1.5-23.6 14.8-29 17.9h-.8q-.4-6-.4-12l1.2.2 1.2-.5zm-36 4.4c1.4.8.9 10 1 12q-1.2 0-2.2.5l-51 32-2.5 2.5c.9-5.8 2.8-13.7 5.3-19q1.1 0 2.2-.6a3564 3564 0 0 0 47.2-27.5Zm48.2 4.8 7 7q-.9 1.3-2.4 1.6L382.9 351l-.7.2-.4-13q1.2 0 2.2-.5c3.9-2.8 32-17.4 32.4-19.7Zm-203.3 8 2.1 1.6c-3.4 2.3-5.9 5.7-9.8 7.7L204 329c3 .6 5.7-3.2 9.2-3.1Zm154.7 3.8 1.1.2q.5 6.1.2 12.3-.9 0-1.8.5L321.1 372c-5 2.1-7.4 5.6-11.2 8.5q-1.2.3-2.4.1c1.4-5.6 3.2-14.8 6-19.6q.4-.5 0-.9 1.5.4 2.8-.4zm60.3 1q2.8 4 5.3 8-1.3 0-2.5.6L383 370l-.7.2q-.2-6.6-.2-13.3 1 0 1.7-.4zM182 341a2 2 0 0 0-1.9.6c.6 1 1.9.2 1.9-.6.7-.3 4-.8 2.6-2q-1.9.2-2.6 2Zm252 2 1-.2c3 2 8.7 22.7 9.2 27.2a4 4 0 0 0-2.2.4l-23.4 15-1.3 1.3c-1 .7-3.5.4-3 2a8 8 0 0 0-5.3 3.2 9 9 0 0 0-5 2.8c.8 1.4 4.6-1.7 5-2.8q3.3-.4 5.2-3.2l1.8-.1 28.1-16.5q.6 0 .6.5l1.1 9.6q-1.2.2-2.2 1L385 422.5q-.9.5-.7 1.4h-2.1q-.3-26-.3-52 1.2.6 2.4-.2zm3 9q-1.4-.2-2 1-2.1 0-3 2a2 2 0 0 0-2 .7c.6 1 1.8 0 2-.8q2.2 0 3-2 1.4.4 2-.8l.8-.5q-.6-.2-.8.4Zm-359 4c-1 .5-2.7.5-3 1.7.7 1.3 2.6-1 3-1.7.5.2 2.7-.4 1.6-1.1q-1.1.2-1.6 1.1Zm223.1 2-2.7 10.2c-.5-.5-.4-2.2-1.5-2l-15 8.8-.1-3c4.8-1.6 14.4-11.8 19.3-14Zm68 6.7c0 4.4.4 10.1-.3 14.3-2.5 1.5-12.5 7-13.7 9q-2.2.2-3 2-1.3-.2-2 .7c.6 1 1.6 0 2-.6q2-.3 3-2l1.3-.2q5.6-3 10.8-6.3.7-.5 1.6-.5.7 25.2.2 50.4-.3.8-1 1c-21 7-36 21.6-31.8 45.5a261 261 0 0 0-36.3 20.7h-16.3q-1 .3-1.4-.6 19-12.3 37.7-24.9.6-.3.8-1l1.3-.2a23 23 0 0 0 5-3.9q1.5.1 2-1.1 1.2-1.2 0 0-1.5-.5-2 1.1a8 8 0 0 0-5 2.6l-1.3.7q-22.5 12.7-45 25.7-1.2.6-1.8 1.7a87 87 0 0 1-8.5-.4l4.8-10.5a4 4 0 0 0 2.5-.5L324 453c1.4-1 4.6-2.4 5-4.1q2.1 0 3-1.8a2 2 0 0 0 2-.8c-.7-1-1.9 0-2 .8q-2 0-3 1.8-3 .6-5.1 2.9a8 8 0 0 0-2.9 1.3c-15 8.4-30.6 18-46 26.2q0-1.2.5-2.3 15-36.2 25.6-74c4.9-.9 17-7.5 19.4-12q1.2 1 2.5.3zm-212.3 14.2c13.3 8.3 15.8 24.8 16.5 39.2q-.7-.4-1.6-.1-36 20.4-71.7 41.3 0-6.8-.2-13.3a3 3 0 0 0 2.3-.2l41.8-26.5 1-1.1 1.3-.2q1.2-.7 1.7-2a7 7 0 0 0 5.1-2.9 8 8 0 0 0 5-3 5 5 0 0 0 2.2-.4q2-1.8-.6-1.3-1.1.5-1.6 1.6a6 6 0 0 0-5 3.1 7 7 0 0 0-5.1 2.9 2 2 0 0 0-2 .9q-.6 0-1 .3l-45 26 .2-26.4 1.5-.6 44.4-29.3c2.5-.4 10-8 10.8-8Zm63.4 11-.7-2.7q4.2-2.1 8.2-4.7c1.8-.9 1.4 1.3.4 2.2zm-128 1a137 137 0 0 0-4.5 14.1l-7.5 4.8q-.4.5-.5 1.1l-1.1.1q-6.4 4-13.3 7.2c-.3-3.1-.7-8.6.6-11.4 4-.6 21-14.5 26.2-15.9Zm105.7 12.2c-1.2-.5-4.4 1.7-4.9 2.6.5 1.5 5-1.8 5-2.6q1.1 0 2.2-.5 1.9-1.6-.6-1.3-1.2.6-1.7 1.7Zm246.9 19.6 1 .3q.4 5.7.2 11.3c-1.7-.5-26.6 19.5-30.2 21.7q-1 .4-1.6 1.3-2.6-6.5-6.8-12.2c-.8-1.3 1-1 1.2-1.8q1.2-.3 2.4-1 17-9.6 33.8-19.6ZM189 427.1q-1.2-.3-2.1.5 1.2.8 2-.5c.9 0 4.2-.9 2.6-2q-2 0-2.5 2Zm-86.3 2.2c.5 0 2.9-.5 1.7-1.4q-1.4 0-1.7 1.4Zm70 8.6.4 15q-1.2 0-2.2.5l-77.2 44.8c-4.4 1-10.7.3-15.3.5a2 2 0 0 1-1.9-.9l2.7-1.5q2-1 3.5-2.6l1.5-.6q.8-.6 1.8-1l1.2-.8q1.9-1 3.5-2.6.8 0 1.5-.6l6-3.8.7-.5 1.3-.8 3-1.7 1.8-1.2 1.2-.8 4-2.4 1-.9a37 37 0 0 0 6-3.7l.7-.5 1.3-.8 3-1.7q1.8-1 3.5-2.5l1.5-.7a77 77 0 0 0 8-5.1 36 36 0 0 0 4.8-3q.6-.2 1.2-.7l4-2.4 1-1 1.8-.8 1.2-.8q2-1.2 3.6-2.5.8-.2 1.4-.7l1.8-1 1.2-.8 7-4.3q.6-.5 0-1l-1.4-.4q2.2-1.6 4.7-2.7l2.4.6c.8-1 1-3.3 2.7-1.5Zm-85.1 1c-.2 2.8.5 9.7-.5 12-3.2 1-16.3 9-20 11.4l-1-.3c-.3-3-.8-7.2 0-10.2q1.5-.5 2.9-1.3l9-5.5q3-2 6.3-3.2.9-1 1.2-2.4 1.5 1.4 2.2-.6Zm293 1.2q-7.8 4.5-15.7 9.6c-.8.6-2.4.4-1.5-.7q4.5-4.5 8.6-9.2c2.4.2 6.9-1.8 8.6.3ZM222 444l.8-.2c1.6.7 4 10.9 5.3 13-1.6 0-5.2 2.3-6.7 3l-64.7 37.3q-1 .4-1.7 1.5l-18.1.1A10107 10107 0 0 1 222 444Zm168.4.9q2.7 1.5 4.7 4-.2 1-1.1 1.6-9 5.4-18.4 10.4-.3-.8.5-1.5 7.4-7 14.3-14.5ZM87.2 455c.8-1.7.5 11 1.1 11q-10.7 5.9-21 12.4l-1.4-.3c-.8-2.8.1-7.5 0-10.5 2.3.4 18.3-10.6 21.3-12.6Zm84.9 1h.6q.6 4.8-.7 9.5-.7.5-1.5.5c-3.4 0-12.6-.4-14.2 3.7-1.4 3.8 6.8 2.8 8.7 3.3l-.2 1-38.2 22q-2.2 1-3.7 2.8-9 .1-17.7-.4v-.3q33.6-20.8 66.9-42Zm56.3 1.8q5.6 14.7 12 29l-2.4.9a495 495 0 0 0-19 11.1h-55.2zm172.3.2q1.2 1.9 1.4 4.1a105 105 0 0 0-11 6.3q-1 .4-1.8 0 5.7-5 11.4-10.4ZM91.9 470.2a51 51 0 0 0 16.4 2.6q-.3 1-1.3 1.1l-1.3.9-.7.4-1.2.8a23 23 0 0 0-5 2.8l-.8.5q-.8 0-1.4.6l-4.9 2.8a40 40 0 0 1-5 3l-2 1.3-5 2.7-.7.6q-.8.1-1.4.7a72 72 0 0 0-6.8 3.9c-2 .3-4-6.1-4.2-7.7q12-8 24.5-15.8.7-.4.7-1.2Zm311 5.7c-.1 2-.4 4.9-2.6 5.8-1 .1-3.6 2.6-4.2 1.6 0-1.4 5.5-6.3 6.8-7.4Zm-65.8 5.9c1 3.7 3.2 6.9 5 10.3q-5.3 2.8-10.2 6.1-9.5.6-19 .5zm39 9.2c-2.7.4-6.6 3.5-9 4.7q-1 .6-1 1.6a12 12 0 0 1-4.2-2.6l21.1-12q.9-.6 1.8-.2l-5.1 5.6zm-179.2-1q-1.4-.3-2 1-1.8.3-3 2c-1.8-.2-4 1.5-5 3q-1 0-2 .5-2 1.5.5 1.4 1-.9 1.6-2c1.7 0 4.2-1.3 5-3q2.1.3 3-2c.7.2 2 .2 1.9-.9 2 0 3.7-1.5 5-2.7-.8-1.3-4.4 1.8-5 2.7Zm43.1-1q.5 0 .8-.3c1.6 1 3 5.3 4 7 1.6 3-2.8 2.6-4.5 3h-15.4z"/><path fill="#e4e8eb" fill-opacity=".6" d="M196.9 490c.6-.9 4.2-4 5-2.7-1.2 1.2-3 2.7-5 2.7"/><path fill="#727477" fill-opacity=".1" d="M199 437.6v1.4q-1.4 1-3.2 1.3.6-2.4 3.2-2.7"/><path fill="#e7eaec" fill-opacity=".2" d="M211 431q-.3.9-1 1.2l-11 6.8v-1.4q1-1 2.3-1.8l7.6-4.5q1-.5 2-.2"/><path fill="#e5e9ec" fill-opacity=".3" d="M216 428q-.6 1.2-2 1 .6-1.2 2-1"/><path fill="#e4e6ec" fill-opacity=".3" d="M153 413.1a7 7 0 0 1-5.1 2.9q2-2.6 5.1-2.9"/><path fill="#e5e8ec" fill-opacity=".5" d="M432 355c-.2.7-1.4 1.6-2 .7a2 2 0 0 1 2-.8"/><path fill="#e8ecef" fill-opacity=".2" d="M168 305.9c1.3-1.5 5.9-5 7.6-5.1 2 .8-6 5.6-7.6 5"/><path fill="#f1f5f5" fill-opacity=".3" d="M298.3 284.7q-.1.6-.7.9-.2-.7.7-.9"/><path fill="#e1e3f0" fill-opacity=".3" d="M233.9 285.1a2 2 0 0 1-.9 1.5q-2.4 1.2-1-1 .9-.6 1.9-.5"/><path fill="#e4e8ec" fill-opacity=".3" d="m122.3 469.3-1.2.8q0-1 1.2-.8M100 478q-.3 1-1.3.8z"/><path fill="#e2eaea" fill-opacity=".3" d="M164.2 442q.7.5 0 1zm-34 22.3-1.2.7q.3-1 1.3-.7"/><path fill="#6b5d56" stroke="#6b5d56" stroke-width=".5" d="m258.1 11-.4 1q-11.2 8.3-22.7 16.5-.6.5-.8 1.4-2.4 0-3.1 2-2.2-.3-3 1.7c1 .8 2.6-.8 3-1.7q2.2 0 3-2 1.5-.2 2.5-.8l29.8-17.2q.4-.4.3-1 7.5 0 14.8.3 1.1 0 1.6.9c-8 5.5-15.9 11.3-24.2 16.4q-.9.5-.7 1.4c-.8 0-2.3 0-2.2 1.1q-1.9.3-3 1.7c1 1.5 2.5-.8 3-1.7q1.5.3 2.1-1.1 1 0 1.9-.4a1411 1411 0 0 0 28.9-17.3c1.8.2 11.8 2.2 12 3.7l-40.3 28.3q-1.8.9-2.5 2.7c-33.6 0-62.4 1-75.2 37.2-3.2 1-18.8 10.8-23.2 13 .2-3.7-.5-7.7.4-11.2a354 354 0 0 1 16-10.4q.8-.4.8-1.3Q179 74 180 72c1.6.5 3.2-1.4 4.6-2q.5-1.2-1-1c-.7 1-3.5 1.7-3.6 3q-2.3 0-3.1 2.2l-2 .2q-7 4.6-14.6 8.7c-.9-3.7 0-8.6.6-12.4 1.6.3 14-9.1 15-10.6.8.1 3.8-1 2.7-2q-2.1 0-2.7 2a7 7 0 0 0-2.5.7l-11.3 6.6c1.6-20.6 22.9-44.6 42.4-51.3 2.1-.7 5.4-2.5 7.5-2q-.6 1-1.5 1.9a65 65 0 0 0-6.3 5.4q.4.5 1 .3c5.3-2.9 10.4-6.2 15.7-9 3-1.8 17-2.7 19.6-.8 3-1.6 13.7-.5 17.6-.8ZM235 15.4c.5 0 2.7-.6 1.6-1.4q-1.4 0-1.6 1.4Zm74 3.6c2.2.8 8.5 3.4 9 5.7l-33.2 22.8q-11.5 0-23.2-.4c5.8-3.4 46-25.5 47.5-28Zm14.8 10c2.8.5 13.3 11.6 13.2 13.9q-11.3 7.5-22.5 15.2a119 119 0 0 0-22.7-10.5zm17 18.8c1.4 2.1 4.4 5.7 4 8.4q-.7 1 0 0c1.6.2 3.9 7.4 3.4 9.1a427 427 0 0 0-19.5 13.2c-1.4-4-9.6-15.2-10.7-17.5q11.5-6.5 22.8-13.2ZM239 55c-4.8 4.1-21.2 12.4-27.5 16.9q-1.1 0-.9-1.1 6.3-6.6 12.4-13.4 1-.8.2-1.7A41 41 0 0 1 239 55Zm18.3 0a91 91 0 0 1 16.5 0q-.3.8-1 1a2112 2112 0 0 0-44.4 25c-.8-.6-.1-1 .4-1.6q14.4-11.9 28.3-24.4Zm30 1.2h1.1q3.3 1.1 6.5 2.4a290 290 0 0 0-33.7 19c-1.5 1-2.9-.2-1.2-1.2 4-2.6 26.8-17.3 27.3-20.2Zm54.6 1.8c.1 0 1.8-.4.8-1q-.7.3-.8 1Zm-33.6 14.3.9 1.6-16 9.9a23 23 0 0 0-5.6 2.6q-.3-.8.3-1.3zM199.9 93l-5.7 2.2a9 9 0 0 1 0-4c4.9-2 14-7.7 18.8-10.8 1.5-1 2.5.2 1.1 1.3-4.3 2.3-7.7 7.7-12.1 9q-.7 1.5-2.1 2.4Zm115-11.7q1.3 1.5 1.2 3.4c-9.8 5.6-19.6 11-29 17.2-.9.7-2.5.4-1.7-.8 2.5-2 5.4-3.4 8-5.1zm37-.3c0 3.7.8 7.8 0 11.5l-16 11q-.8.6-.7 1.5-2.1 0-3 1.7c1 1 2.4-1 3-1.7q1.2-.3 2.4-1l14.2-8.1c1 3.1 0 8.9 0 12.3-2.6 2-14.3 10.5-15 13-1.2-1.1-6-2.9-6.1-4.5L331 92q3-1.8 6.1-3.4 1.5.3 2.5-.4zm-171.1 8.8 1 .2c-.1 2.7.3 12.5-2 14l-17.5 10.2c-1.8-2-1.2-7.4-2.1-10.1 3.8-1.6 16.5-11.1 20.6-14.3Zm137 4.4q.3 2.3.2 4.7c-4 1-18.3 10.2-23 12.8-1.7 1.1-2.8-.1-1.1-1.2q12.1-7.8 23.9-16.3Zm-137 14.8q.8 5 .5 10a47 47 0 0 0-9.2 7.7l-4.8 7.2q-1-.2-1.2-1.3-1.7-5.8-2.9-11.7 9-5.7 17.6-11.9Zm137.2.2q.3 3.8-.1 7.6a603 603 0 0 0-41.8 24.2c-1.6 1-2.7-.5-1.2-1.4 14.6-9.5 28.9-20.2 43-30.4Zm32.8 5.6a83 83 0 0 1-4.5 18.3q-.8 0-1.1-.7A40 40 0 0 0 338 122zm-28.6 9.6a19 19 0 0 1 3.7 2.3c-4.8 1.2-16.8 9.3-21.9 12q-3.5 1.5-6.9 3.6c-.2-1 1.3-2 2-2.6q11.7-7.4 23.2-15.3ZM178.8 147c4.9-3.9 11-6.8 16.3-10.4q1.4-.6 2.7 0c-2.4.4-2.8 1.8-4.7 3.1l-12 7.6c-.6.4-2.2 1-2.3-.3Zm156 0c.3 1.9.5 5.3-.4 7-.2-.6-.4-2.1-1.4-1.4q-8.2 4.8-16.5 9.4c.5-.9-1-1.1-1.5-1.3 6-4.7 13.2-9.9 19.8-13.7Z"/><path fill="#6b5d56" fill-opacity=".4" stroke="#6b5d56" stroke-opacity=".4" stroke-width=".5" d="M335.2 104.9c-.6.7-2 2.7-3 1.7q.9-1.8 3-1.7Z"/><path fill="#6b5d56" fill-opacity=".7" stroke="#6b5d56" stroke-opacity=".7" stroke-width=".5" d="M180 72c.1-1.3 2.9-2 3.7-3q1.3-.2.9 1c-1.4.6-3 2.5-4.6 2Z"/><path fill="#6b5d57" fill-opacity=".5" stroke="#6b5d57" stroke-opacity=".5" stroke-width=".5" d="M231 32c-.3.8-1.8 2.4-2.8 1.6q.7-2 2.9-1.7Z"/><path fill="#6b5d56" fill-opacity=".3" stroke="#6b5d56" stroke-opacity=".3" stroke-width=".5" d="M258.2 29.9q-.7 1.4-2.2 1.1c0-1.1 1.4-1.1 2.1-1.1Zm-82.3 30.2q.6-2 2.7-2c1 1-2 2.1-2.7 2Z"/><path fill="#695d54" fill-opacity=".3" stroke="#695d54" stroke-opacity=".3" stroke-width=".5" d="M234.2 29.9q-1 2-3.1 2 .8-2 3-2Z"/><path fill="#6b5d56" fill-opacity=".5" stroke="#6b5d56" stroke-opacity=".5" stroke-width=".5" d="M235 15.3q.2-1.4 1.6-1.4c1.1.8-1 1.3-1.6 1.4ZM256 31c-.4.9-2 3.1-3 1.7q1.1-1.4 3-1.7Z"/><path fill="#6b5e55" fill-opacity=".4" stroke="#6b5e55" stroke-opacity=".4" stroke-width=".5" d="M341.8 58.1q0-.7.8-1c1 .6-.7 1-.8 1Z"/><path fill="#a38671" stroke="#a38671" stroke-width=".5" d="M239 55.1c5.2-1 12.7-.1 18.2 0a770 770 0 0 1-28.3 24.3c-.5.5-1.2 1-.4 1.6a2112 2112 0 0 1 44.1-24.8q1-.4 1.1-1 6.8-.7 13.5 1.1c-.6 2.9-23.4 17.6-27.3 20.2-1.7 1-.3 2.3 1.2 1.3 6.1-4 28-17.4 33.7-19a40 40 0 0 1 14.6 11.4 2 2 0 0 1-1.2 2.2l-20.4 12.8q-.6.6-.3 1.3A23 23 0 0 1 293 84l17.7-11.1c2.2 1.6 3.8 5.6 4.1 8.4L293.3 96l-8 5c-.8 1.3.8 1.6 1.7.9 9.4-6.2 19.2-11.6 29-17.2 1 2.6 1.7 6.7 1.7 9.5a476 476 0 0 1-24 16.3c-1.6 1-.5 2.3 1.2 1.2 4.7-2.6 19-11.9 23-12.8q.5 5.2 0 10.3c-14.2 10.2-28.5 20.9-43.1 30.4-1.5.9-.4 2.3 1.2 1.4a603 603 0 0 1 41.8-24.2c.2 4.6-.3 6 4.4 7.7a576 576 0 0 1-23.3 15.2c-.6.6-2.1 1.5-1.9 2.6q-2.6-.7-3 1.7a2 2 0 0 0-2 .8c.7 1 1.9 0 2-.8q1.8-.3 3-1.7 3.3-2 7-3.6c5-2.7 17-10.8 21.8-12 2 1.4 6.5 5.9 6 8.5q-1.7.3-2 2-1.8 0-3.2 1.2L307 150c-1.2 1-4.9 2.4-5 4q-2.1 0-3 2-.5 0-.8.3.6.4.8-.4 2.1 0 3-1.9a8 8 0 0 0 5-2.6l2-.8 19.1-11q1.5-.9 1.7-2.5c1.3.1 3-.5 2.1-2 2.7 1.3 3.7 9.3 2.8 12-6.6 3.7-13.7 9-19.8 13.6q-4.5 2.7-9 5.9-.5.4-.7 1.2-2.4 0-3.1 2.3-2.7-.6-3.2 2-1-.3-1.8.6c.5.9 2 .3 1.8-.6a5 5 0 0 0 3.2-2q2.2-.2 3-2.3 1.5 0 2.6-.5a773 773 0 0 1 25.2-14.7c1-.7 1.2.8 1.4 1.4q-1.7 7.4-5 14.1a3 3 0 0 0-2.4.4L296.5 191c-1.4 1.7-1.3 1.8-3.6 2.4q-.7.4-.7 1.3c-1 .3-2.9.6-3 1.8 1.3.9 2.4-.7 3-1.8l1.8-.2q11.5-7 23.2-13.6h.6c-1.6 3.5-.7 11.7-3.8 14-1.3 1-5.7 3.4-5.7 4.9l-1.4.1a4 4 0 0 0-1.8 2 4 4 0 0 0-3 1.6c.9 1.3 2.7-.8 3-1.7a2 2 0 0 0 2.1-.6l1.1-.6q2.6-2 5.7-3c-.8 13.8-16 31.9-27.6 39.1-14.7 8-31.5 9-47.5 4.4q-.3-1 .8-1.8A44 44 0 0 0 250 232q4.5-3.2 8.6-6.5-.7-.6-1.6-.3-3.4 2.3-7 4.3-.7.6-1.2 1.3c-5 2-10.5 5.4-15 8.5q-4.5-2-8.7-4.5c-.4-3 4.5-4 6-5.8a2031 2031 0 0 0 39.7-29.8q1.5-.7 2.9-1.6c-1.6-1.7-3.5 1-4.6 2a1205 1205 0 0 0-50.8 29.6 23 23 0 0 1-7-7.3q.8 0 1.4-.6 17.2-12 34-24.1 1.6-.6 3-1.6c-1.6-1.6-3.4.9-4.5 1.9a1363 1363 0 0 0-35.2 20q-.9.5-1.2 1.4c-1.7-2.3-4.8-6.2-5-9 2.4 0 18.3-12 21.5-14.2 1.5-1 7.3-4.3 7.7-5.7a4 4 0 0 0 3-2c.6.1 2.7-.5 1.5-1.2q-1 0-1.4 1.2a3 3 0 0 0-3.1 2c-2-.3-6.7 3.4-8.8 4.3l-22.1 13c-1.5-1.6-2.8-6.3-3.5-8.4q9.8-7 20-14c.8-1 3.6-1.1 3.3-2.8.7 0 2.2 0 2-1.2.5-.3 4.2-1 2.7-2q-2.3-.3-2.6 2-1.5-.1-2.1 1.2l-1.2.2-21.4 12.2a5 5 0 0 0-1.6 1.3c-1-.3-2-8.8-2.5-10q16.5-11.1 32.6-22.9l3.2-1.8q3.3-3.2 7.2-5.6c.8-.7 2.8-.7 2.7-2.2q-.8-.8-2 0l-12 7.7a434 434 0 0 0-31.6 18.1 44 44 0 0 1-6.3-7.2c3.6-2.3 12.6-7.8 15-10.7 2.8.4 3.7-1.6 5.7-3l15-9.9q1.2-.6 1.3-1.8-1.5.3-3 1.1a245 245 0 0 1-19 10.8q-2.7-.3-5.3-.2c-3 2.3-7.8 4.9-11.1 6.8-.4.8-1.1 3.3.5 3.3q-1.8.8-1.4 2.7c-2.6-2.5-5-5.8-5.7-9.4 3.1-.8 3.5-2.4 5.5-4.3q2.7 0 4-2c5-2.3 11.3-8.1 16.7-10.8 1.6-1 .4-2.5-1.3-1.4-7.2 5-16.2 9.5-23.9 14.3q-1.5 1-2.9-.4c-2.5-10.8-4.6-25 6-32.2 2.4-1.6 6.7-2.6 8.3-4.9q.6-11 .9-22.3c1.9-.6 4.9-2.8 5.6-4.7q1.4-.9 2-2.4c4.5-1.3 8-6.7 12.2-9 1.4-1 .4-2.4-1.2-1.3-4.7 3.1-13.9 8.8-18.7 10.8 1.2-17.2 11.3-32 29-35.3q.7 1-.3 1.7-6 6.8-12.4 13.4-.3 1.2 1 1c6.2-4.4 22.6-12.7 27.4-16.8Zm49 19 13-7.7c1.7-.7.7-2.7-1.2-1.4-3 1.8-6.7 5-9.9 6.2a4 4 0 0 0-2 2.8Zm-93.2 38c3.1-.6 8.3-5.7 11.7-7.1 1.3-1 .8-2.2-.5-1.4-3.2 2.7-9.9 4.4-11.2 8.5ZM180.9 134q-1.2-.4-2 .6c-.2 1.8 2 .5 2-.6.8 0 4-1 2.7-2q-2 0-2.7 2Zm-2.2 13c.1 1.2 1.7.7 2.3.3l12-7.6c2-1.3 2.3-2.7 4.7-3.2q-1.3-.5-2.7 0c-5.2 3.7-11.4 6.6-16.3 10.5Zm117 11c.3 0 1.9-.3.9-.8q-.7 0-.9.9Z"/><path fill="#a38671" fill-opacity=".5" stroke="#a38671" stroke-opacity=".5" stroke-width=".5" d="M292.2 194.8c-.6 1.1-1.7 2.6-3 1.8.1-1.2 2-1.5 3-1.8Zm12.9 7.1c-.4 1-2.1 3-3 1.7a4 4 0 0 1 3-1.7Z"/><path fill="#a38671" fill-opacity=".3" stroke="#a38671" stroke-opacity=".3" stroke-width=".5" d="M236 188a4 4 0 0 1-3 2 3 3 0 0 1 3-2Z"/><path fill="#a48671" fill-opacity=".5" stroke="#a48671" stroke-opacity=".5" stroke-width=".5" d="M236 188q.5-1 1.5-1.1c1.2.7-1 1.3-1.4 1.2Z"/><path fill="#a38671" fill-opacity=".5" stroke="#a38671" stroke-opacity=".5" stroke-width=".5" d="M299 172c0 1-1.4 1.6-1.9.7q.7-.9 1.8-.6Z"/><path fill="#a28873" fill-opacity=".2" stroke="#a28873" stroke-opacity=".2" stroke-width=".5" d="M305.2 167.8a3.4 3.4 0 0 1-3.1 2.3q.7-2.3 3-2.3Z"/><path fill="#a38671" fill-opacity=".4" stroke="#a38671" stroke-opacity=".4" stroke-width=".5" d="M299 156q-.2.6-.8.3.3-.4.8-.4Zm3 14a5 5 0 0 1-3 2q.4-2.4 3-2Z"/><path fill="#a48572" fill-opacity=".3" stroke="#a48572" stroke-opacity=".3" stroke-width=".5" d="M302 154a4 4 0 0 1-3 2q.9-2 3-2Z"/><path fill="#a38a6d" fill-opacity=".2" stroke="#a38a6d" stroke-opacity=".2" stroke-width=".5" d="M307 150v1.4a8 8 0 0 1-5 2.6c.1-1.6 3.8-3 5-4Z"/><path fill="#a28470" fill-opacity=".5" stroke="#a28470" stroke-opacity=".5" stroke-width=".5" d="M294 144c0 .7-1.2 1.7-1.8.7a2 2 0 0 1 1.9-.8Z"/><path fill="#947b69" fill-opacity=".5" stroke="#947b69" stroke-opacity=".5" stroke-width=".5" d="M297.1 142.2q-1.2 1.4-3 1.7.4-2.4 3-1.7Z"/><path fill="#a38772" fill-opacity=".4" stroke="#a38772" stroke-opacity=".4" stroke-width=".5" d="M181 134c-.1 1.1-2.2 2.4-2.2.6q.9-1 2.1-.6Zm114.7 24q.1-.6.9-.8c1 .5-.6.9-.9.9Z"/><path fill="#a38572" fill-opacity=".5" stroke="#a38572" stroke-opacity=".5" stroke-width=".5" d="M181 134a3 3 0 0 1 2.6-2c1.4 1-2 2-2.7 2Zm43 47q.2-2.3 2.6-2c1.5 1-2.2 1.7-2.6 2Z"/><path fill="#806c60" d="M194.8 112.1c1.3-4 8-5.8 11.2-8.5 1.2-.8 1.8.5.5 1.4-3.4 1.4-8.6 6.5-11.7 7.1"/><path fill="#846f62" d="M288 74q.3-1.9 2-2.8c3-1.1 6.8-4.4 9.8-6.2 1.9-1.3 2.9.7 1.3 1.4z"/><path fill="#6b5d56" fill-opacity=".6" stroke="#6b5d56" stroke-opacity=".6" stroke-width=".5" d="M331.9 135c.9 1.6-.8 2.2-2 2.1q.3-1.7 2-2Z"/><path fill="#e4e8eb" stroke="#e4e8eb" stroke-width=".5" d="m367.8 346.7 1 .3c.9 3.5.1 10.2.4 14.1q-1.2-.7-2.5.2-23.1 15-46.2 29.6c-2.3 4.6-14.6 11.2-19.4 12q3-11.1 6.4-22.2 1.2.1 2.4-.2c3.8-3 6.2-6.4 11.2-8.5-.1 1.2 1.3 1 2 .6q22.5-12.7 44.7-25.9Zm-211 32.2c-.7 0-8.3 7.6-10.8 8 .8-1.8-1.5-1.3-2.3-.7l-43.4 24.9c-1.4-31.4 28.2-52 55.7-33.6q1 .5.8 1.4Zm289.4 10q.2 5.6 0 11.3c-3 .6-23.2 15.3-27.8 17.7a2 2 0 0 1-1.4 1.1c-1.7 1.1-4.2 2.2-5 4-1.4-.3-4.9 1.8-5 3q-2.1-.1-3 1.6c1 1 2.6-.6 3-1.6 1.4 0 4.7-1.4 5-3q3-.5 5-2.6 1.5-.5 3-1.5l26.2-14.9q.3 6 0 12c-2.6-.5-33.8 23-38.5 26.2a1 1 0 0 0-.4 1c-3.7-1.2-11.7-8.8-18.3-9.6l-6.6-1.5c-1-1 0-6.6-.2-8.2h2v.5q31-17.5 62-35.5ZM87.8 405v14A179 179 0 0 0 65 432.2q-.2-5.7.3-11.5.9.3 1.8-.5l1-.8 11.4-7.3q.3-.5.1-1 0-.8.5-1.2zm357 35.7q.6 0 1 .3.2 12.8 0 25.6-1 1.7-2.7 3.1c1.5.9 1.9-1.3 3-.1 0 12.8 2.6 27.2-13.8 29q-8 .4-15.7.4-1.2.2-2-.8l1.7-.2a5 5 0 0 0 2.4-2.5c-.8-.8-2 .7-2.6 1.2q-1 .5-1.4 1.5c-2 .6-14.3 1.4-15.2.2q2.8-2.4 5.4-5c9.4-9.3 13-23.4 9.4-36.1q.6-.9 1.6-1.3 1.1.4 2.2.3 13.6-7.6 26.8-15.6Zm-4.6 16.7q1.5-.9-.1-1.5l-5 3.8.4.4q2.5-1 4.8-2.7Zm-3.2 16.9c1-.2 4.3-1.1 2.7-2.3q-2 .4-2.7 2.3Z"/><path fill="#f76c82" stroke="#f76c82" stroke-width=".5" d="m266.8 344.8-9.4 10.6q.3.7 1 .5 4.4-2.7 9-5 1.2 12 1.8 24-1.1.2-1.9 1-2.3 2.1-4.2 4.7.5.5 1.1.1l5.2-2.9q1.8 18.6 3 37l-.3 1.2-3.5 2.3c-.4.6-2.8 1.8-2 2.7 1.2.2 2.4-1 3.2-1.7l2.2-1.4h.7q.1 5.6 1 10.8l-.4 1.4q-1.5 0-2 1.5.8.6 2 .3a2 2 0 0 0 .6 2.1c0 3.5 1.2 10.6.4 13.7q-7.5 21.4-17.4 41.7-.5.4-.9 0-4.5-8.6-8.1-17.4a65 65 0 0 0 6.4-6q1.7-2.4-1-1.3-3.4 2-6.6 4.3-4.5-9.7-8-19.8a11 11 0 0 0 4.3-3.9q-.6-.5-1.2-.1-1.7 1.2-3.8 1.8c-1.8-3 .2-9.3.1-12.8 1.9-.2 3.7-2.4 4.7-3.8l-.3-.3-4.3 2 3.1-42q.6-.5.8-1.1a31 31 0 0 0 4.5-4.6l-.2-.4q-2.2 1.2-4.5 2a596 596 0 0 1 2-28c1.2-.4 1.9-2.4.2-2q.2-5.2.9-10.6 0-.8.7-1h19.6q.9-.2 1.4.4Zm3 59.3c.2 0 1.8-.5.8-1q-.7.3-.9 1Z"/><path fill="#fde2e6" d="M269.8 404.1q0-.7.8-1c1 .5-.6 1-.9 1"/><path fill="#efd8dc" d="m238.8 449.2-.8-2.2q2-.6 3.8-1.8.6-.4 1.2.1a11 11 0 0 1-4.2 3.9"/><path fill="#fdd7de" d="M244 356c1.8-.4 1.1 1.6 0 2z"/><path fill="#fdfdfe" stroke="#fdfdfe" stroke-width=".5" d="m205.6 300.4-4-4.1c3-3 10.6-6.4 14.3-9.1q1.2-.6 2.2.3-.6 1.4-1.8 2.6-5.1 5.4-10.7 10.3Zm106.6-12c.9 1 3.8 2 3 3.6l-8.2 9q-2-.2-3.6 1-1.3 0-1-1.1c3-4 7.8-8.1 9.8-12.5Zm-30.4 23.9-5-4.1c1.8-2.4 11.2-6.9 14.2-8.9q2.3-.9 1.1 1.4-4.9 6-10.3 11.6ZM301 358c-5 2.2-14.5 12.4-19.3 14q-1.5-15.6-2.5-31.4c.6-1.8 3.9-11.9 5.4-12.3 10.6 3.4 20.8-9 26.7-16.4q1.4-1.5 1.3.5-5.4 22.8-11.6 45.6Zm-88-32.1c-3.5 0-6.2 3.7-9.2 3.1q-2-7.2-3.6-14.6-.2-.6.3-1.1a73 73 0 0 0 12.5 12.6Zm2.1 1.6q5.4 2.6 11.1.8l.6.3q3 7 5.6 14.1-1.5 26.6-3.8 53.3c-1.2.8-4.3 3.7-5.8 3l-2.7-9q3.8-2.8 8-5.3c1-.9 1.2-3-.5-2.2a76 76 0 0 1-8.2 4.7q-7.4-26-14-52c3.8-2 6.3-5.4 9.7-7.7Zm51.6 17.3q.6 3 .6 6l-9 5q-.7.3-1-.4zm-40.6 2q-.8.6-1.3 1.3-1.2-.4-1.8.8c-1.7.4-4.3 1.4-5 3.1q-1.4-.1-2.2.8l-1.1.5c-2.2.5-2.4 2.5.1 1.8q1.5-1 3.4-1.5.6-.6 1-1.5c1.1-1.1 3.2-1.5 3.8-3.2.6.1 2 .2 1.8-.8q.9-.4 1.3-1.2 1 .3 1.8-.6c-.5-.9-2.1-.3-1.8.6Zm72.2 21.4q-6.3 23-13 45.7-.5-.5-.5-1.3-1.8-18.7-3-37.6 7.5-4.6 15-8.8c1-.2 1 1.4 1.5 2Zm-29.2 6.6q.3 1.5.2 3-2.7 1.4-5.1 3-.7.3-1.2-.2 2-2.6 4.2-4.8.8-.6 1.8-1ZM242 389l-.3-1.8.1-1.1 4.5-2 .2.3a31 31 0 0 1-4.5 4.6Zm5.8 83q-.9-1.5-1.2-3 3.2-2.3 6.6-4.3 2.7-1 1 1.2a65 65 0 0 1-6.4 6Z"/><path fill="#eceff1" fill-opacity=".8" d="m218 352 1.2.1-.9 1.5q-1.8.4-3.4 1.5l-.1-1.8 1.1-.5q1.5.4 2.2-.8"/><path fill="#f2f4f6" fill-opacity=".3" d="M218 352q-.6 1.3-2 .8.8-1 2-.8m-3.2 1.3.1 1.8c-2.5.7-2.3-1.3-.1-1.8"/><path fill="#f6f7f8" fill-opacity=".4" d="M223 348.9c-.5 1.7-2.6 2-3.8 3.2h-1.1c.7-1.8 3.3-2.8 5-3.2"/><path fill="#fafbfb" fill-opacity=".4" d="M225 348.1c0 1-1.3 1-2 .8q.7-1 2-.8"/><path fill="#fff" fill-opacity=".2" d="M226.2 346.9q-.4.8-1.3 1.2.5-.8 1.3-1.2"/><path fill="#fefefe" fill-opacity=".5" d="M226.2 346.9c-.3-.9 1.3-1.5 1.8-.6q-.7.9-1.8.6"/><path fill="#60544e" fill-opacity=".8" d="M258.2 5.7q-3.2.4-6.4 0a6 6 0 0 1 5.7-.7q.5.2.7.7"/><path fill="#375a72" stroke="#375a72" stroke-width=".5" d="M372 439.8q-4 4.8-8.5 9.2c-.9 1 .7 1.3 1.5.7q7.8-5 15.8-9.6a17 17 0 0 1 9.6 4.9q-7 7.5-14.3 14.5-.9.6-.6 1.6 9.4-5.1 18.5-10.5 1-.6 1-1.7 3.7 4 5.7 9-5.7 5.5-11.4 10.5.8.4 1.7 0a105 105 0 0 1 11.1-6.3c1.5 4.3 1.6 9.4.8 13.8-1.3 1.1-6.7 6-6.8 7.4.6 1 3.3-1.5 4.2-1.6 2 4.1-11.2 18-17 17q-7.3.1-14.5-.4l.9-.2q3-.3 3.5-3l1-.9a4 4 0 0 0 1.8-3.2q2-1.2 3.7-2.9l5-5.6q-.8-.4-1.7.2l-21 12c-2.5-1.3-6.4-4.1-7-7 .8-.6 4.8-3.3 2.3-4v-.2c2.5-1.6 6.9-2.6 8-5.8 1 .4 2.7-.6 2.1-1.7-.7 0-2.7.6-2.1 1.7l-2.4.6-9.5 5.6q-.4.4-.4 1l-.3 1.2q-3-5.6-4.5-11.8l1-.9q.8-.5 1-1.4a48 48 0 0 0 9-8q1.7-.7 2.4-2.6c-.5-.8-2.4.5-2.4 1.4-3 .7-6.4 3.5-9.2 4.9q-.8.3-1 1.1l-1 .2c-.7-13.8 7.6-27.1 21.6-29.9q1.5-.4 2.5.7Z"/><path fill="#584f48" fill-opacity=".4" d="M179.4 24a3 3 0 0 1-1.4 1.2q.2-1 1.3-1.2"/><path fill="#605243" fill-opacity=".1" stroke="#605243" stroke-opacity=".1" stroke-width=".5" d="M329.9 137.1q-.3 1.6-1.8 2.4l-19 11-2.1.9V150q9.7-6 19.7-11.8 1.4-1 3.2-1.1Z"/></svg>