<svg xmlns="http://www.w3.org/2000/svg" style="shape-rendering:geometricPrecision;text-rendering:geometricPrecision;image-rendering:optimizeQuality;fill-rule:evenodd;clip-rule:evenodd" viewBox="0 0 512 512"><path fill="#48bcb5" fill-opacity=".2" stroke="#48bcb5" stroke-opacity=".2" stroke-width=".5" d="M224 434q0 .6-.5.9-5.5 3.5-10.8 7.2-1 .5-2 .6l-.8-1.2q6-3.3 12-7 1-.6 2.1-.5Zm72 46q-.6 1-1.6 1.6l-11 7.3q-.4-1-1.5-1.4 6.5-3.6 12.8-7.4z"/><path fill="#4fc1bb" fill-opacity=".5" stroke="#4fc1bb" stroke-opacity=".5" stroke-width=".5" d="m237 13.4 1.1-.6q-.2 1-1.4 1.2zm22 8.7c-.4.9-2 2.2-2.8 1.4q.7-1.8 2.8-1.4Zm-54.1 42.1q.6-1.2 1.7-2 2.6-.3.5 1.4zM165 388.1q.4-1.3 1.6-1.8 2.6-.3.6 1.3-1 .5-2.2.4Zm65.7 3.1q.6-2.2 3-2.1c1.4 1-2.3 2-3 2.1ZM161 407c.1-.7 1.3-1.6 1.8-.8q-.6 1-1.8.8Zm65 26q.4-2.2 2.6-2c1.3 1.1-2 1.6-2.6 2Zm29 13a3 3 0 0 1-3 2q.7-2 3-2Zm-82 3q.5-2 2.6-2c1.4 1-1.9 2-2.6 2Zm90 9c.3-1 2-2.8 3-1.7-.3 1.2-2.1 1.4-3 1.6Zm-80 17q-.9 2-3 2a4 4 0 0 1 3-2Z"/><path fill="#4fc1bb" fill-opacity=".4" stroke="#4fc1bb" stroke-opacity=".4" stroke-width=".5" d="M295 64.7c-.3 1-1.8 3-3 2 .4-1.2 2.1-1.5 3-2ZM368 370q-.8 2-3.1 2a4 4 0 0 1 3.1-2Zm-216 57.2q-.3.8-1.3.8zm-26.1 15q-.2.9-1.1.6zm28 3.8a7 7 0 0 1-5 3c1-1.4 3.2-3.2 5-3Zm130.2 15a4 4 0 0 1-3 2q.7-2 3-2Zm-104.2 16c-.3 1.6-3.6 2.8-5 3 .9-1.5 3.2-3.1 5-3Zm-47 9.3q-.3.8-1.2.6.6-.4 1.3-.6Zm6.3 2.7a2 2 0 0 1-1.4.7q.5-.7 1.4-.7Zm-14 9q-.6.6-1.5.7a2 2 0 0 1 1.5-.6Z"/><path fill="#47b3a5" fill-opacity=".2" stroke="#47b3a5" stroke-opacity=".2" stroke-width=".5" d="M169.9 483q0 .9-.9 1.4l-13.6 8.4q-.3-1.2-1.5-1.4l14-8q1-.4 2-.4Z"/><path fill="#4dbbb2" fill-opacity=".2" stroke="#4dbbb2" stroke-opacity=".2" stroke-width=".5" d="M325.7 363.1q.5.8 1.4 1.2l-14 8.2a3 3 0 0 1-2 .5q.1-.8.9-1.3z"/><path fill="#4fc1bb" fill-opacity=".4" d="M215.9 72.2a3 3 0 0 1 2.6-2.1c1.7 1-2 1.8-2.6 2m-13 264.7c-.3 1.3-3.8 4.3-4.8 2.8 1.2-1.3 3-2.7 4.9-2.8m106 37a3 3 0 0 1-2.9 2.2q.9-2 3-2.2M161 407q-.9 2-3 2a4 4 0 0 1 3-2m26.3 2.2q-.6.5-1.3.6.4-.7 1.3-.6m-9.2 3.2q-.5.7-1.4.7.6-.6 1.4-.7M129.3 447l-1.4.7q.5-.7 1.4-.7m69 4q-.7.5-1.6.6a2 2 0 0 1 1.6-.6m-45 29-1.5.6a2 2 0 0 1 1.5-.6"/><path fill="#50bfbb" fill-opacity=".3" stroke="#50bfbb" stroke-opacity=".3" stroke-width=".5" d="M205 397q-.3.9-1 1.3l-9 5.7v-1.4q.7-.8 1.7-1.4l6.2-3.7a3 3 0 0 1 2.1-.5Zm-58 33q-.3 1.1-1.3.7zm-5.7 9.3-1.2.8q0-1.1 1.2-.8Zm63 8-1.2.7q0-1.2 1.2-.7Zm-92 11-1.2.8q0-1 1.2-.8ZM334.9 471a4 4 0 0 1-1.7 2l-.2-1.3q.5-1 2-.7Z"/><path fill="#48bbb5" fill-opacity=".2" stroke="#48bbb5" stroke-opacity=".2" stroke-width=".5" d="M165 388q-.7 1-1.6 1.7-5.6 3.4-11 7.2-.5-1-1.5-1.4l12.8-7.4z"/><path fill="#6bb0af" fill-opacity=".2" d="M251.1 379.8q-2.3.4-3.7 2.2-1.2-.5-1.2-1.7l5.7-3 2.4-2.2q1.4-.7 2.4-1.8.6-.1 1 .3l-5.6 6q-.4.3-1 .2"/><path fill="#46b4a7" fill-opacity=".2" stroke="#46b4a7" stroke-opacity=".2" stroke-width=".5" d="M329.8 346.2q.3.9 1.3 1.2c-2.4 1-8.9 5.8-11.1 5.6.8-2.1 7.5-5.6 9.8-6.8Z"/><path fill="#4ebcaf" fill-opacity=".2" stroke="#4ebcaf" stroke-opacity=".2" stroke-width=".5" d="M258 461q-.3.9-1 1.3l-8.6 5.6q-.6-.9-1.5-1.3l9-5.2q1-.4 2.1-.3Z"/><path fill="#4cb9ac" fill-opacity=".2" stroke="#4cb9ac" stroke-opacity=".2" stroke-width=".5" d="M247 451c-.5 1.5-8 5.8-9.7 6.8q-.5-.9-1.4-1.2l9-5.2q1-.4 2.1-.3Z"/><path fill="#4ebbaf" fill-opacity=".2" stroke="#4ebbaf" stroke-opacity=".2" stroke-width=".5" d="M144 452c-1.1 2.2-7.5 5.1-9.7 6.8a2 2 0 0 0-1.4-1.1q4.5-2.8 9-5.3a4 4 0 0 1 2-.4Z"/><path fill="#f0c7a4" fill-opacity=".4" d="M285.8 118.2q0-.9.8-1.2c1 .6-.5 1-.9 1.2m19.2.8 1.1-.1q-.2 1-1.3 1.1zm-31.7 24c-.5.7-2.1 3-3 1.8a4 4 0 0 1 3-1.8M237 157c.3-.9 2-2.8 2.8-1.7q-1 1.5-2.8 1.7m-2.1 19.2q.8-2 2.7-2.2c1.2 1.2-2 2-2.7 2.2m12 10c.4-.8 1.9-2.8 3-1.8-.3 1.3-2 1.5-3 1.8"/><path fill="#4bb4b0" fill-opacity=".2" stroke="#4bb4b0" stroke-opacity=".2" stroke-width=".5" d="M152.9 412q-.3.8-1 1.3-4.2 3-8.6 5.6-.3-1-1.4-1.2c2.2-1 9-5.8 11-5.7Z"/><path fill="#4fc1bb" fill-opacity=".4" d="M231.8 78.1c.7-.6 2-3.3 3.1-1.7-.4 1.2-2.2 1-3.1 1.7m133 293.8c.2.9-1.1 1.7-1.7.8q.6-.9 1.8-.8m-58.8 4.2c0 .8-1.3 1.5-1.9.6q.8-.9 2-.6m-121.7 35q-.7.4-1.6.6a3 3 0 0 1 1.6-.6m-29 19q-.7.5-1.5.7.5-.9 1.5-.7m-3 2-1.5.7q.5-.8 1.5-.8m51.6 13.1q0 .9-1 .6.4-.4 1-.6m-77.6 3.8q-.6.6-1.4.8.4-.8 1.4-.8m70.6.2q-.3 1-1.2.8zm-19 11.1q-.4.8-1.3.6zM167.5 471q-.6.4-1.3.6.4-.7 1.3-.6M126 490.3q-.2.8-1.1.7.5-.5 1.1-.7"/><path fill="#ecc9a1" fill-opacity=".3" stroke="#ecc9a1" stroke-opacity=".3" stroke-width=".5" d="M183 176a2 2 0 0 1-1 1.2q-4.2 2.7-8.2 5.8-.7-.5-.8-1.4 0-.3.4-.7 4.2-2.2 8.2-4.8z"/><path fill="#50c1bb" fill-opacity=".3" stroke="#50c1bb" stroke-opacity=".3" stroke-width=".5" d="m159.3 308.8-2.5.2c0-1 2.1-1.1 2.5-.2Zm216 57c-1.5 2.3-3.9 2.6-5.8 4.1H368c.7-1.3 5.5-4.2 7.2-4ZM311 373q-.5 1.3-2 1c0-1.1 1.3-1 2-1Zm-119 31 .3.7-1.3-.1q.4-.5 1-.6Zm-71 41q-.3 1-1.3.7zm52.3 22.3-1.2.8q0-1.1 1.2-.8Z"/><path fill="#3c8a7f" fill-opacity=".1" stroke="#3c8a7f" stroke-opacity=".1" stroke-width=".5" d="M309.7 390.3q.3.7 0 1.6l-6.6 3.8q-1 .4-2 0h-1q4-2.3 7.8-5.2a2 2 0 0 1 1.8-.2Z"/><path fill="#4fc2ba" fill-opacity=".3" stroke="#4fc2ba" stroke-opacity=".3" stroke-width=".5" d="M199 448q-.3 1-1.3.7zm51 1a3 3 0 0 1-3 2q.8-2 3-2Zm31 14c-.5 1.5-3.7 3-5.2 3.1q2-2.7 5.2-3.1Zm59.8 21.2c.4-.8 2.1-3 3-1.8a3 3 0 0 1-3 1.8Z"/><path fill="#51c1b9" fill-opacity=".2" stroke="#51c1b9" stroke-opacity=".2" stroke-width=".5" d="M166 453q-.6 1.1-1.6 1.8L156 460v-1.2q2.4-2.3 5.4-3.8c1.4-.5 3-2.2 4.7-2Z"/><path fill="#4bb6ae" fill-opacity=".2" stroke="#4bb6ae" stroke-opacity=".2" stroke-width=".5" d="M300 395.7h1q0 1.3-1 1.8a67 67 0 0 0-7 4.3q-1 .3-2 .1l1-1.1z"/><path fill="#8dd5d2" d="M322 420v-3c2.5-.5 4.4-2.7 6.7-3.8q.6-.3 1 .3a4 4 0 0 1-2.3 2 47 47 0 0 1-5.4 4.5"/><path fill="#cfac8f" fill-opacity=".2" d="M237 157q-.3.8-1 1.4l-6.5 4.6q-.1-1.2-1.3-1.6c2.1-.9 6.7-4.5 8.8-4.4"/><path fill="#84cdca" d="m235 352-.8-2.1c1.4 0 5-3.1 6.5-3.8 1.3-.6 1.5.9.3 1.5z"/><path fill="#44a4a0" fill-opacity=".2" stroke="#44a4a0" stroke-opacity=".2" stroke-width=".5" d="M282.6 36.3q0 1.1 1.1 1.3a70 70 0 0 0-6.7 4q-1 .4-2 .3l1-1.2q3.3-2.4 6.6-4.4Z"/><path fill="#4fc0bb" fill-opacity=".4" d="M106.6 376.3q.8-2 3-2.1c1.5.8-2 2.4-3 2.1M208 395q-.9 2-3 2.1.9-1.9 3-2m80 9c0 .9-1.3 1.7-2 .8a2 2 0 0 1 2-.7m-117 12.3q-.3 1-1.2.8zm-26 15.1q-.3.7-1.3.6.6-.5 1.4-.6m7 43.8q-.3 1-1.3.8z"/><path fill="#4fc0bc" fill-opacity=".3" stroke="#4fc0bc" stroke-opacity=".3" stroke-width=".5" d="M262.1 19.7a3.4 3.4 0 0 1-3.1 2.4 4 4 0 0 1 3.1-2.4Zm-91.8 400.6-1.2.8q.2-1 1.2-.8ZM148.9 449a6 6 0 0 1-5 3 7 7 0 0 1 5-3Zm-21 40q0 1-1.2.7z"/><path fill="#d1dadc" d="M234.2 323.4q-.7 1-1.9 1.4c0-1.3-2.2 0-2.7.4-2-6.3 1.5-3 4.6-1.8"/><path fill="#4fc1bb" fill-opacity=".4" d="M291.9 89.2q.5-2 2.6-2.2c1.1 1.2-2 1.7-2.6 2.2m16 270.7q-.8 2.2-3 2.2a4 4 0 0 1 3-2.2m-118 45.4c.3.8-.7.4-1 .5zm-26 15q-.3.8-1.2.6zm7 44q-.2.9-1.1.7a2 2 0 0 1 1.1-.7m-26 14.9q-.2.9-1.2.7z"/><path fill="#68c5c1" fill-opacity=".8" d="m254.4 375.1-1.3 1q0-1 1.2-1m-1.3 1-1.2 1.2-5.7 3q-.6-.3-1-1c3-.1 5.2-3.8 8-3.1"/><path fill="#449792" fill-opacity=".8" d="M197 304c-.4 1-6 .7-7.2.7q3.4-2.8 7.2-.6"/><path fill="#459995" fill-opacity=".8" d="M156.8 309h3.3q-.3.5-.7.7a19 19 0 0 0-6.1 2l-2.3.4c.4-1.8 4.3-2.8 5.8-3.1"/><path fill="#4dc0bb" fill-opacity=".2" stroke="#4dc0bb" stroke-opacity=".2" stroke-width=".5" d="M320 353a7 7 0 0 1-5 3c.8-1.7 3-3.2 5-3Zm-140 58q-.3 1-1.3.7zm7 44q-.2 1-1.4.7zm-26 15q-.3.9-1.4.7z"/><path fill="#4fc0bc" fill-opacity=".3" stroke="#4fc0bc" stroke-opacity=".3" stroke-width=".5" d="m109.3 460.3-1.2.7q0-1.1 1.2-.7Zm63.6 2.7q0 1.1-1.2.7zm-13.6 13.3-1.2.7q.2-1 1.2-.7Zm15.6 3.7a7 7 0 0 1-5 3q1.9-2.6 5-3Z"/><path fill="#47aaa7" fill-opacity=".2" stroke="#47aaa7" stroke-opacity=".2" stroke-width=".5" d="M127 377.2c-1 1.7-3.3 2.7-5 3.8q0-1-1.2-1.2c1.8-.7 4.2-3.3 6.2-2.6Z"/><path fill="#45aba7" fill-opacity=".2" stroke="#45aba7" stroke-opacity=".2" stroke-width=".5" d="M158 374q-2 2.5-5 4-.2-1-1.2-1.2c1.8-.8 4.2-3.1 6.2-2.8Z"/><path fill="#d7ad8b" fill-opacity=".9" d="m231.2 274.1-.2.9q-1.6.9-2.8 2.2c0-1.8-1.2-5.4 2.2-4q.6.3.7 1"/><path fill="#50c0bb" fill-opacity=".2" d="M130 375a3 3 0 0 1-3 2.2 3 3 0 0 1 3-2.3m-2 66q-.3 1-1.3.7zm78 3q-.1 1.2-1.3.7zm-90.7 12.3-1.2.8q0-1 1.2-.8m61 9-1.2.8q0-1 1.2-.8"/><path fill="#44a8a4" fill-opacity=".2" stroke="#44a8a4" stroke-opacity=".2" stroke-width=".5" d="m213 315-.2 1c-.6 1.8-3 3-4.6 2.8-.2-1.2 3.9-3 4.7-3.8Z"/><path fill="#b6c5ac" d="m243.8 107-3 .2c.3-1.3 3.6-2.7 4.8-3.2l.4.4z"/><path fill="#7ec4b9" d="m252.7 314.1.2-2c1.2-.2 3.1-2.8 4-1.7a11 11 0 0 1-4.2 3.7"/><path fill="#51c2ba" fill-opacity=".2" stroke="#51c2ba" stroke-opacity=".2" stroke-width=".5" d="M208.2 318.8q-1 2-3.2 2.2a3 3 0 0 1 3.2-2.2Zm-18 137.5-1.1.8q0-1 1.2-.8Zm-10.3 2.6q-.1 1.1-1.3.8zm-48.6 35.4-1.2.8q.2-1 1.2-.8Z"/><path fill="#50c4b8" fill-opacity=".2" stroke="#50c4b8" stroke-opacity=".2" stroke-width=".5" d="M206.2 334.8q-1 2.3-3.2 2.1 1-2 3.2-2Zm-26.9 79.5-1.2.8q0-1 1.2-.8ZM168 466q-.1 1.2-1.3.7z"/><path fill="#4fbfbc" fill-opacity=".2" stroke="#4fbfbc" stroke-opacity=".2" stroke-width=".5" d="M185 319.8q-.8 2-3 2.1.9-2 3-2Zm-11.7 98.5-1.2.8q0-1 1.2-.8Zm-29 19-1.2.8q.2-1 1.2-.8Z"/><path fill="#50c0ba" fill-opacity=".4" stroke="#50c0ba" stroke-opacity=".4" stroke-width=".5" d="m103.3 464-1.1 1q0-1 1-1Zm231.6 7c.4-1 2-2.8 3-1.6-.2 1.1-2 1.1-3 1.6Z"/><path fill="#f0c7a4" fill-opacity=".3" d="m213.7 118 .3 1.3a3 3 0 0 1-2.4 1.5c-.5-.7 1.5-2.4 2-2.8"/><path fill="#bea082" fill-opacity=".2" d="m276.2 177 .6.6a5 5 0 0 1-3.7 1.3q.8-2.1 3.1-1.8"/><path fill="#4dbab5" fill-opacity=".5" d="M327 304.2q-2.6 0-5.2-.4c.3-1.3 5.4-1.4 5.3.4"/><path fill="#51c2ba" fill-opacity=".3" stroke="#51c2ba" stroke-opacity=".3" stroke-width=".5" d="M261 459q-.7 2-3 2 .8-2 3-2Zm-115.7 26.3-1.2.8q.2-1 1.2-.8Z"/><path fill="#396f6c" fill-opacity=".4" stroke="#396f6c" stroke-opacity=".4" stroke-width=".5" d="M326.8 71.2q0 1.5-.3 2.8l-1.5-1.4q.8-.8 1.8-1.4Z"/><path fill="#3e807c" fill-opacity=".9" d="M344.7 306.1q1.4 0 2.6-.3c.6.2 1.8.2 1.8 1-1.4 0-3.3.5-4.4-.7"/><path fill="#c5c6aa" fill-opacity=".4" d="M226.3 100.9q.7 1 1.7 2-.5 1.3-1.7.8-.5-1.5 0-2.8"/><path fill="#70ccc7" d="M232.3 324.8q-.8 1.5-2.3 2l-.4-1.6c.5-.4 2.8-1.7 2.7-.4"/><path fill="#3d7e7b" fill-opacity=".8" d="m299.2 310.2-3.1 2.2c-.6-2.8 1-2.5 3.1-2.2"/><path fill="#50c2bb" fill-opacity=".2" stroke="#50c2bb" stroke-opacity=".2" stroke-width=".5" d="M187 62q-.6 1.2-1.7 2l-.3-1.2a2 2 0 0 1 2-.8Zm-10.7 354.3-1.2.8q.1-1 1.2-.8Z"/><path fill="#e3b692" stroke="#e3b692" stroke-width=".5" d="M283.9 280.2c-1.5.2-10.5 8.2-10.8 9.6q-1.9.3-2.9 1.7c1.3 1 2.4-.5 2.9-1.7 2.8-.2 8.5-4.2 10.8-6q0 11.3-.3 22.4c-6.8 10.8-21.8 14.5-33.8 12 0-1.2 1.7-4 2.9-4q2.6-1.4 4.3-3.8c-1-1.1-3 1.5-4 1.7-1.4.8-7.6 3.8-8 4.9q-5.5-2-10.1-5.6 3.5-2.4 6.2-5.5.8-.3 1.2-1.1 5.5-4.3 10.5-9.1-.9-.4-1.8 0-5.6 3.2-11 6.6-.8 0-.7.8c-1.5 0-7.6 3.5-8.4 4.8-4.2-2.2-2.7-7.2-2.6-11.1q1.2-.4 0-.6-.4-8.2-.2-16.5c1.5 0 3-2.3 3.8-3.4q.4-1.1-1-1.3l.3-.9c1.8-.4 9.5 2 12 2.1q-.2.6.3.8.9 0 1.5-.7a87 87 0 0 0 38.4-4.9c1 .8.3 7.3.5 8.8Z"/><path fill="#e3b693" fill-opacity=".4" d="M273 289.8c-.4 1.2-1.5 2.6-2.8 1.7q1-1.4 2.9-1.7"/><path fill="#51c3bc" fill-opacity=".3" d="M166 419q-.3 1-1.3.8zm-27.8 22.2-1.2.8q.3-1 1.2-.8M147 478q-.3 1-1.3.7z"/><path fill="#50c2bc" fill-opacity=".3" d="M114 449q-.3 1.1-1.3.7zm73.2 9.2-1.2.8q.1-1 1.2-.8M121 493q-.3 1-1.3.7z"/><path fill="#4dc2bb" fill-opacity=".3" d="M161 372q1-1 0 0m-21 62q-.3 1-1.3.7zm-11.7 62.3-1.3.7q.3-1 1.3-.7"/><path fill="#4ec1bb" fill-opacity=".2" d="M197 310.3q.6 0 1-.3-.2 1-1.4 1zM161 422q-.2 1.1-1.4.8zm32.3 32.4-1.2.8q0-1 1.2-.8"/><path fill="#50c1bb" fill-opacity=".4" d="M366.6 506.9q1.9-.3 3.7-.1c-.2 1.7-3.3 1.7-3.7 0"/><path fill="#b8c5ac" fill-opacity=".5" d="M196.3 101q.7.8 1.7 1.2-.7.7-1.7.4z"/><path fill="#50c3b9" fill-opacity=".2" stroke="#50c3b9" stroke-opacity=".2" stroke-width=".5" d="m331.3 379-.2 1-1.1.4q0-1.3 1.3-1.4Zm80.7 53-.2 1h-.8q.3-.7 1-1Z"/><path fill="#7e6a59" fill-opacity=".5" stroke="#7e6a59" stroke-opacity=".5" stroke-width=".5" d="m243.2 276.2 1.8.1q-.6.6-1.5.7-.6-.2-.3-.8Z"/><path fill="#eec7a6" fill-opacity=".3" d="m216.7 117 1.6.3-1.2.8zM206 238.2l1-.3q-.3.8-1 1.3z"/><path fill="#98bca7" fill-opacity=".4" d="M240 302.3v1.3q-.7.3-.7-.5 0-.7.6-.8"/><path fill="#4ec2bb" fill-opacity=".5" d="M138 435.2q-.3.9-1.3.7zm207.3 63.7q0 .6-.3 1l-1.2.4q.3-1.2 1.5-1.4"/><path fill="#9fc3b2" fill-opacity=".3" d="M196 98q0 1.2-.4 2.2l-.3-1.2q0-.7.7-1"/><path fill="#50c2bd" fill-opacity=".3" d="m347.3 305.8-2.6.3c.2-1.4 2.1-1.4 2.6-.3"/><path fill="#4dc1b9" fill-opacity=".3" d="M173 415q-.3 1-1.3.7zm-19 59q-.3 1-1.3.7z"/><path fill="#efc7a5" fill-opacity=".5" d="m259 115.1 1.3-.2q-.4 1-1.5 1z"/><path fill="#4ec2ba" fill-opacity=".2" d="M135 485q-.2 1.1-1.4.7z"/><path fill="#4fc0b9" fill-opacity=".3" d="m167.3 422.3-1.3.7q.3-1 1.3-.8"/><path fill="#50bfba" fill-opacity=".2" d="M187 407q-.2 1.2-1.4.6z"/><path fill="#64c8c3" d="m361.4 397.8.4.3q.1.6-.4.6-.3-.4 0-1"/><path fill="#408e8a" fill-opacity=".3" stroke="#408e8a" stroke-opacity=".3" stroke-width=".5" d="M256.8 79.3q.9-.3 1.5.3H257z"/><path fill="#3c7c79" fill-opacity=".9" d="m256.8 79.3.2.4h-1q.2-.6 1-.4"/><path fill="#eec9a3" fill-opacity=".3" stroke="#eec9a3" stroke-opacity=".3" stroke-width=".5" d="m169.2 165.1.8-.1a2 2 0 0 1-1.2 1.1z"/><path fill="#51bfb9" fill-opacity=".2" d="M194 450.9q-.2 1.1-1.4.7z"/><path fill="#4ec0bc" fill-opacity=".3" d="m296.2 499.2-.1.9h-1.2q.2-1 1.3-.9"/><path fill="#4ec1b9" fill-opacity=".2" d="M102 456q-.2 1-1.4 1 .6-.7 1.3-1"/><path fill="#88bdab" fill-opacity=".5" d="m241.3 305.4 1-.6q-.5.8-1.2 1.1z"/><path fill="#4bb6af" fill-opacity=".4" stroke="#4bb6af" stroke-opacity=".4" stroke-width=".5" d="m288 15.2 1.3-.1q-.7.7-1.5 1z"/><path fill="#4ec0bc" fill-opacity=".4" d="M181.2 462q-.5.5-1.3.7.4-.8 1.3-.7"/><path fill="#4ec2bc" fill-opacity=".2" d="m179.3 463.3-1.2.8q0-1.1 1.2-.8"/><path fill="#4dc4be" fill-opacity=".2" d="m165.4 472.3-1.3.8q0-1 1.3-.8"/><path fill="#4fc1bd" fill-opacity=".2" d="M154 426q-.3 1-1.3.7z"/><path fill="#262726" stroke="#262726" stroke-width=".5" d="M321.8 303.9q2.6.3 5.3.3 8.9.5 17.6 2c1 1 3 .6 4.4.6a94 94 0 0 1 62.3 45.2c16.7 28.5 13.2 64.8 12.8 96.5-1 25.7 9.2 54.4-26 58.3H345a195 195 0 0 0-15.5-.4 33 33 0 0 0-5.3.5l-3.3-.1q-10.5-.7-20.8 0H296q-2.3-.4-4.4-.4a337 337 0 0 0-23.8.5q-2.1-.5-4.2-.5-7.1 0-14.3.3c-1.5-1-4-1.2-5.3 0q-6.8-.6-13.6.2-1.8-.3-3.7 0-1.5-.5-3-.4h-15.1q-2.7-.1-5.2.4h-2.7l-4-.5a305 305 0 0 0-23 .5q-2.5-.5-5.1-.5h-16l-4.2.5-3.4-.2a130 130 0 0 0-21.2.2c-12.2-1.3-27.7 3-34.2-11.9a40 40 0 0 1-2-13.6c1-28.8-.7-58.1.7-86.9a94 94 0 0 1 23.9-55.9q4.8-5.1 10-10.1.2-.4.7-.3 1-.4 1.6-1.2a85 85 0 0 1 24.5-14q.8-.3 1.1-1h.9l2.3-.4q3-1.5 6.1-2 .4-.2.7-.7 14.7-3.1 29.7-4.3c1.1 0 6.8.4 7.2-.6h16.7q.9-.3 1.5-1c.8-5 .5-29.3.3-36.2q-4.8-3.7-9.4-7.8c-17.7-16.9-21.5-36-24.6-59.2l-7.5-2.3c-27.4-11.6-21.7-48 6.3-54.8q1.4-.8 1.2-2.3l-.2-20-14.2-78c-2.6-17.6 10.4-24.2 24.8-28.8q1.4.6 2.1-.7c13.2-2.7 26.3-5.6 39.7-7l5.4-.3q26.3-2.2 52.4 1.5c19 2.5 57.4 5.7 53.3 33.3l-14.2 78q-.2 11-.1 22.1 0 1 1 1.4c33.2 6.3 31.5 49-.2 56.7a2 2 0 0 0-1 1c-1.6 25.3-11.8 50.1-33.5 64.6-1 2-.4 32.7-.3 37.4q.3 2.7 3 2.4l22.3-.2ZM238 12.8l-1.1.6q-11.2.3-22.2 2.6-9 1.6-17.8 4c-16.2 4.1-20 9.8-16 26.3q.1 2.4.8 4.7l2.4 13a135 135 0 0 0 2.7 12.7q0 5.5 1.7 10.6.1 1.8.6 3.5.6 5 1.8 10 0 2.7 1 5.2c.2 1.3.7 6.8 1.6 7.5q3.8-.7 7.4-1.7l19.9-3 23-1.8a371 371 0 0 0 27.3 0q8.4 1 16.8 1 4.4 1 8.9 1 7.1 1.2 14.2 2.1 2 .8 4 .8c1 .2 3.8 1.7 4.4.2q3.4-18 6.4-36.3l.6-1.8.3-2.8q2.7-13.5 5.1-27.1.9-3.5.7-6.9 0-5.4-3.5-9.5c-1.6-1-3-3-5.1-2.7 0-2-9.3-4.2-11-4.5q-2.8-1.1-6-1.6l-.8.2c-1.2-1.4-11-2.9-13.3-3.3l-3.6-.7-1.2.1q-7-1.5-14.1-1.8-1.9-.3-3.8-.3-8-1-16.2-.7-8 0-15.9.4Zm40 43.3c4.6 8.7-10.2 8-14.6 8q-.8 0-1.3.6l-.5 11.8c-.4.8-2 3.4-3 3.3l-.3-.2q-.7-.6-1.6-.3-.7-.2-1 .5l-.5.2q-2.2-.2-4.3-.6c-2.2-.8 0-14-1.7-15.2l-12.6-.4c-6.9-.4-3.7-7.6 2.3-8.2q5.3 0 10.4-.6.6-.7.5-1.5l.2-8.9c.3-4 9.7-6 11.7-4l.3 12.9q0 .9.5 1.4 5.4.5 10.7.5zm-59.2 60q-1.5-.4-2.2.8-.8 0-1.4.3-10.6.6-20.8 3.9-.6.5-.5 1.4.2 11.3-.5 22.6c-6.2 6.4-21.4 1-24.3 20l-.4 1q0 3 .3 5.7c0 1.6 2.3 10 4 9.8q0 .9.7 1.3c.8 2.8 3.8 5.1 6.2 6.4 1.8 1.5 6.6 3.5 8.7 2.7q.3.4 1 .6c4.7.2 4.4 2.8 4.3 6.7q0 2.5.7 5a51 51 0 0 0 3.2 16.6c1.5 4.6 5 14.1 8.1 17.4v1q1.3 2.8 3.7 4.5c5.5 12.1 27.1 24.4 40.5 25.1q3.7.4 7.6.2c41.7-.6 58.3-36.5 60.9-73a7 7 0 0 1 3.4-2.5c16.3-2.9 21.8-8.6 20.8-25.8-1-1.3-1-5.3-2.7-5.7-1-5.8-9.5-12.1-15.3-13-2.2-.4-5.2-.1-6.6-2.2a295 295 0 0 1-.3-17.7v-6.6c-.7-1.3-3.7-1.6-5-2q-3.3-1-6.9-1.7l-1.1.1c-4.4-1.5-11.3-1.9-16-2.6l-.8-.2a356 356 0 0 0-19.3-1.5l-8.6.2-1.3.2q-20.1-.5-40.1 1ZM245 276.4q-.9-.2-1.8 0c-2.5-.2-10.2-2.6-12-2.2q-.2-.6-.8-1c-3.4-1.3-2.3 2.3-2.2 4v2.6q-.3 8.3.1 16.5v.6c-.1 3.9-1.6 8.9 2.6 11q1.6 2.3 4 3.6a35 35 0 0 0 15 6.8c11.9 2.5 26.9-1.2 33.7-12a576 576 0 0 0 .3-26c-.2-1.5.6-8-.5-8.8a87 87 0 0 1-38.4 5Zm-66 34.5-1.2.4c-2.5-1.2-12.8 1.7-15.7 2.6a87 87 0 0 0-61 77.5c0 .7-1.4 3.4-.2 3.3-1.5 3.2-1 8.8-1.2 12.4 0 1.3-1 6 .1 6.7-1 3-.2 6.6-.4 9.8q-.2 1.1.8 1.8a8 8 0 0 0-.2 5.6 281 281 0 0 0-.2 15.1q.4 5.6 0 11a407 407 0 0 1 0 20q0 1.4.3 2.8-.7 5.3 1.2 10.5.3 1.5 1.6 2.6c1.3 3.2 4.7 5.6 8 6.6 3.8 1.8 7.7 1 11.8.7a181 181 0 0 0 21.3 0c5.8.2 12.7.6 18.4-.2q5 .9 10.3 0c5.9.8 12.4.4 18.3.2q3.9.4 7.9 0l1.2-.2c5.4.8 11.8.6 17.2 0q4.2.9 8.3 0 18.4.8 36.7 0 2.3.8 4.4 0 9.3.9 18.5 0 4.8.8 9.7.2l1.2-.1c5.2.8 12.5.2 17.9 0q3 .6 6 0h1q8.6.7 17.2 0 2.8.5 5.6.2l1.2-.3c3.7 1 10.7.3 14.8.4a5 5 0 0 0 5.1 0l.8-.3q9.3.7 18.5-.1c2 .8 6.2.5 8.5.3 7.3 1 15.1 1.1 18-7 2.9-11 .3-34.2 1.3-46.7v-2.3a123 123 0 0 0 0-12.3l.1-3.9a144 144 0 0 0-.5-13.8q.4-9.9.1-19.7a2 2 0 0 0-1-1.9 7 7 0 0 0 .3-3.8 87 87 0 0 0-6.6-23.1q-1.2-2.4-2-4.8c-1.4-1.6-3.7-7.7-5.7-8.2v-.6a22 22 0 0 0-5.8-8c-.5-1.4-2.3-3.8-3.7-4-.5-2-5.4-6.5-7.4-7.3q-.5-1.3-1.6-2.2c-2.8-1.6-6.2-5.3-9.4-5.9q-.6-1.6-2.4-1.6c-1-2-8-4.5-10.2-5.6-2.6-1-6.7-3.3-9.4-2.6q0-1-1.1-1.2a63 63 0 0 0-18.8-2.9q-.5-.7-1.4-.6-7.8-.3-15.6 0-5.4-.4-10.7 0c-2-.4-3.7-.7-3.1 2.1q0 2.8-.3 5.5l-1.8 17-4 17.1q-.9 2.5-1.3 5a1 1 0 0 0-.7.8c-4.3 14.5-19.2 56.5-40.6 45.3-13.8-10.5-23-40.9-27.6-57.4q.1-1-.4-1.7l-2.7-16.8-1-12.4-.1-.4c0-1.1.7-3.4-.4-4a203 203 0 0 0-17.2-.4l-1 .3a85 85 0 0 0-17 0q-.9-.3-1 .5Zm55.2 12.6c-3-1.2-6.5-4.5-4.6 1.8l.4 1.7a214 214 0 0 0 5 25q3.9 14.2 10.2 27.4.4.7 1 1 0 1.2 1.2 1.7c0 .5-.3 1.9.6 1.9q2.9 5.7 6.7 10.9 1.4 2 3.4.8c14-19.4 22-46.2 24.5-69.7v-.8c0-1.2 1-4-.1-4.8a54 54 0 0 1-48.3 3.1Zm122 36q-.3 2.7-.1 5.4v13.7q-.2.9.4 1.6 7 .5 14 .5 2 0 3.7-.7 2.2.9 4.6.4c4.5.8 8.6 2.6 10.4 7l.7 1.5.4 15-.2 23.4c-3 6.2-7 10.5-14.1 11.2q-26.7.6-53.3.2c-6.8-.2-12.2-3.4-13-10.6a1207 1207 0 0 1 0-37.7q4.8-7.4 13.3-9.6 3.6.9 7-.3l1-.4 10.6.4q2.1.2 2.2-2v-10.3l.3-8.4c1-3.1 7.8-4 10.4-3.8 1.9 0 1.4 2.2 1.6 3.4ZM356 388q-1.5-.4-3-.4-8.5-.1-17 .4-3.5-.6-7-.3c-2 .3-6.5-1-6.7 2a510 510 0 0 0-.3 30.4c0 3.4-.7 7.5 2 10.2 2 2.3 10.1 1.8 13 1.5h36.8q2.8 1 3.4-1.8c1.2-5.2.4-16 .6-21.9a23 23 0 0 0-.1-5c.3-1.6.7-12.8-1.4-12.9q-1-2.4-3.5-2.3-8.4-.3-16.8 0Z"/><path fill="#3c7774" d="m249.2 506.7-.8.3-3.8.1-.7-.4c1.3-1.2 3.8-1 5.3 0"/><path fill="#4fc2bc" fill-opacity=".3" d="M133.2 438.2q-.5.8-1.4.7a3 3 0 0 1 1.4-.7m23 39.8-1 1q0-1 1-1m17.4 29q1.8-.4 3.5-.2c.3 1.8-2.8 1.7-3.5.1"/><path fill="#88d3d0" d="M353 387.5q1.5 0 3 .4a2 2 0 0 1-1.3 1.2q-4 2.4-1.7-1.6"/><path fill="#687878" fill-opacity=".8" d="m325.3 379.8 4.7.6q-3.4 1.3-7 .3 1-.8 2.3-.9"/><path fill="#4fc0bb" fill-opacity=".3" d="M310 359q-.6 1.4-2 1 .5-1.4 2-1m-147.2 12.1q0-.7.8-1c1 .6-.5 1-.8 1m128.3 30.8q-.9 2-3 2 .8-1.9 3-2m-65.1 31q-.5 1.4-2 1.1.6-1.2 2-1m-118.7 20.3q-.6.8-1.7.8.7-.7 1.7-.8m77.6 3q-.3.9-1.2.8zm-70.7 41q-.5.9-1.5.8.8-.6 1.5-.8m207 1.8-.2 1.1h-1q0-1 1.2-1M145 506.7l3.4.2c-.6 1.5-3.4 1.9-3.4-.2m176 0 3.4.2c-.5 1.5-3.4 1.8-3.4-.1"/><path fill="#4fc1ba" fill-opacity=".3" d="M215.2 303q-.5 1-1.5 1 .5-1 1.5-1m-22.9 101.7 1 .6-1.2.7zm-28 19.4-1 .9q0-1 1-1m-29 19-1 .8q0-1 1-.9m-3 2-1 .8q0-1 1-.8m52 14.9-1.1 1q0-1 1.2-1m-14 9-1 1q0-1 1-1m30 30-.2 1-1.2.2q.2-1.2 1.4-1.2m194.4 7.9q1.8-.2 3.5-.1 0 .8-.7 1-1.8.6-2.8-1"/><path fill="#4fc1bb" fill-opacity=".3" stroke="#4fc1bb" stroke-opacity=".3" stroke-width=".5" d="M266 31.7c-.2 1-1.9 3.2-2.8 2a4 4 0 0 1 2.9-2ZM187 62a3 3 0 0 1 2.6-2c1.2 1.1-2 1.8-2.6 2Zm18 259q-.6 1.3-2 1 .5-1.5 2-1Zm110 35a8 8 0 0 1-5 3 6 6 0 0 1 5-3Zm-183 18c.1 1.1-1.3 1-2 1q.6-1.3 2-1Zm53 34q0 1.2-1.3.7zm-27 1c-.4 1.5-3.6 3-5.1 3q2-2.5 5-3Zm94 39q-.6 1.2-2 1 .6-1.2 2-1Zm-50.8 1.3-1.2.7q.3-1 1.2-.7Zm-30.1.7a4 4 0 0 1-3 2q.7-2 3-2Zm20.9 2q-.3 1.1-1.3.7zm71 6q-.6 1.2-2 1 .5-1.3 2-1Zm-156.7 4.3-1.3.7q.3-1 1.3-.8ZM166 467q-.3 1-1.3.7zm-23.8 20.2-1.2.8q.1-1 1.2-.8ZM123.7 507q1.8-.3 3.6-.1c0 1.5-2.9 1.8-3.6 0Zm102.9 0q1.8-.3 3.8 0c-.6 1.6-3.4 1.6-3.8 0Zm69.3-.1h4.2c.2 1.7-4.2 2-4.2 0Z"/><path fill="#4fc1bb" fill-opacity=".4" d="m306.2 19.1.9-.2q-.3 1-1.5 1zM275 42c-.3.9-2 2.8-2.9 1.8a3 3 0 0 1 3-1.8m-11.4 34.4q.8-2 3-2.2c1.3.9-2.3 2.3-3 2.2M182 322c0 .8-1.3 1.7-1.9.7q.7-1.1 2-.7m16 35.7c-.2 1-2 3.2-3 2 .3-1.2 2.2-1.5 3-2m-7.8 49.5-1 .7q0-1 1-.7m-31.2 16q-.3.8-1.3.7.6-.6 1.3-.7m2.3 2.8-1 1q0-1 1-1m-3 2q-.6.6-1.5.8.6-.9 1.5-.8m14.7 21q-.6 1-2 1 .5-1.3 2-1M159 471.2q-.1 1-1.1.8zm-18.7 11q-.5.9-1.5.7.7-.4 1.6-.6m60.4 24.8 2.7-.1q-1.4 1.9-2.7 0m44 .1h3.8c-.6 1.3-3 1.2-3.8 0m23.1-.2q2-.3 3.7-.1c-.3 1.7-3.4 1.7-3.7 0m77.3-.1h3.3c-.6 1.5-3.4 2-3.3 0"/><path fill="#4fc1bb" stroke="#4fc1bb" stroke-width=".5" d="M254 12.4q8.2-.3 16.3.7-3.5 3-7.3 5.5-.6.5-.9 1.1-2.3.3-3.1 2.4-2-.4-2.8 1.4c.9.8 2.4-.5 2.8-1.4q2.3-.2 3.1-2.4 1.5.2 2.5-.5 4.8-2.8 9.4-5.8 7 .3 14 1.8l-.2.9a388 388 0 0 0-21.7 15.6 4 4 0 0 0-3 2c1 1.2 2.7-1 3-2h2l24-14.1q1-.6.8-1.8c2.4.4 12.1 1.9 13.3 3.3l-.6.8q-10.2 7.5-20.6 14.6-.8 1.5-2.4 1.8l-6.6 4.4q-.6.5-1 1.2-1.9.2-2.9 1.8c1 1 2.6-.9 3-1.8q1 0 2-.3 3.2-2.2 6.6-4l29.3-17c1.7.2 11 2.4 11 4.4q-1 0-1.7.6L286 51l-7.8 5.1-5-.7q-5.2 0-10.6-.5-.6-.6-.5-1.4 0-6.5-.3-12.8c-2-2.2-11.4-.2-11.7 3.9l-.2 8.9q0 .8-.5 1.5-5.1.4-10.4.6c-6 .6-9.2 7.8-2.3 8.2l12.6.4c1.7 1.3-.5 14.4 1.7 15.2q2 .5 4.3.6c-2.8 2.8-26 15-31.2 18.6q-11.6 6.4-23 13.2-3.7 1-7.5 1.7c-1-.7-1.4-6.2-1.7-7.5a8 8 0 0 0 4.4-3.4q1 .3 1.7-.4 15.7-11.2 31.6-22 1.3-1 2.2-2c1-.7 2.6-.6 3.1-1.8-1-1.6-2.4 1.1-3.1 1.7l-3.8 1.6L196 98q-.7.3-.7 1c-1.5-.2-2.9 1.4-4.3 1.8q-1.2-5-1.8-10c1.7 0 22.2-15.7 25.9-17.3q.8-.4.8-1.3c.6-.3 4.3-1 2.6-2.1a3 3 0 0 0-2.6 2c-2.2.2-23.4 13.1-27.3 15.2a36 36 0 0 1-1.7-10.6q1 0 1.7-.5 7.5-5.7 15.5-10.7.8-.4.8-1.3l2.2-.6q2-1.6-.5-1.3-1.2.6-1.7 1.9c-1.8 0-3.8 1.9-5.6 2.5q-2.4 1.4-4.8 3.2-4.3 2.1-8.4 4.5-1.2-5.1-2-10.4h1.2q1-.8 1.7-2c.7-.1 3.8-.9 2.6-2q-1.9.3-2.6 2a2 2 0 0 0-2 .8l-1 .5-2.2-12.3q1.2.2 2.2-.6a325 325 0 0 0 13.6-12.8q-.7-.7-1.6-.2l-15 8.9c-4-16.5-.2-22.2 16-26.3-.4 1.2-5 6.8-6 8.5a2 2 0 0 0-.4 2q12-6.6 23.7-13.7.5-.2.5-.8 11-2.3 22.2-2.6l-.3.6Q225 24.8 213.3 35.3q.7.6 1.7.3 18.2-11 36.6-21.4 1.3-.7 2.5-1.8ZM239.4 303q0 .8.7.5l1.3 1.8-.2.5q-2.8 3.2-6.2 5.5-2.4-1.5-4-3.5c.8-1.3 6.9-4.9 8.4-4.8Zm-59.4 7.3a85 85 0 0 1 17.2 0l-.5.6-10.6 7.5q-.7.5-1 1.3-2.1.1-3 2.2-1.2-.3-1.9.7c.6 1 1.8 0 2-.7q2-.3 3-2.2a6 6 0 0 0 2.5-.7l13.4-7.7q.7-.5.7-1.4 6.8 0 13.5.3c1.1.7.4 3 .4 4-1-1-1.6.7-2.7.7-.9.8-5 2.6-4.7 3.8q-2.3 0-3.2 2.2-1.5-.5-2 1c-1 .3-2.7.6-3 1.7 1 1.5 2.3-1 3-1.6q1.5 0 2-1 2.2-.3 3.2-2.3c1.7.3 4-1 4.6-2.7q1.8.2 2.9-1.3l1 12.4a93 93 0 0 1-9.7 6.4q-.6.5-.8 1.2-2.3 0-3.2 2.1c-2 0-3.7 1.5-5 2.8 1.1 1.5 4.6-1.5 5-2.8q2.3 0 3.2-2 1.3 0 2.5-.6 4-2.7 8.3-4.6 1.1 7.2 2.4 14.3-1.3 0-2.5.6l-15.7 11c-.8 1-3 .7-3.1 2.1-1 .5-2.8.8-3 2 1 1.2 2.7-1 3-2q2.4.7 3.7-1.5 9.3-5 18-10.5c4.5 16.5 13.8 46.9 27.6 57.4 21.4 11.1 36.3-30.8 40.6-45.3q.9 0 .7-.8 1.2.1 2.3-.4l64.2-37q1-.8 1-2c2.2 1 9.1 3.7 10.2 5.6q-18.5 11.4-36.6 23c-2.3 1.2-9 4.7-9.8 6.8-2-.2-4.2 1.3-5 3a6 6 0 0 0-5 3q-1.5-.4-2 1a4 4 0 0 0-3 2q-1.2-.1-1.8.7c.5.9 1.8.2 1.8-.6q2.1 0 3-2.2 1.4.5 2-.9 3-.4 5-3a7 7 0 0 0 5-3c2.3.2 8.7-4.6 11.1-5.6q18.2-10.7 36.6-21.2 1-.5 1.1-1.4c3.2.6 6.6 4.3 9.4 6q-1.2 0-2.2.6l-64 40.3q-.6.5-1 1.3c-.7 0-2-.1-2 1q-2.1.1-3 2-1.1-.2-1.9.7c.6.9 1.8.2 2-.6a3 3 0 0 0 2.9-2.2q1.5.5 2-1a3 3 0 0 0 2-.4l14-8.2 51.7-29.9q1-.4 1-1.5c2 .8 7 5.3 7.5 7.3q-1 0-1.9.5-14.4 9.6-29.2 18.6c-.2-1.2.3-3.5-1.6-3.4-2.6-.1-9.4.7-10.4 3.8l-.4 8.4c-3.1.9-14.2 9-18 11q-.4.3-.4.7-1.2 0-2.3 1a22 22 0 0 0-13.3 9.5 2 2 0 0 0-1.8.2 78 78 0 0 1-7.9 5.2l-8 5.1-1 1.1q-2.1.1-3 2a2 2 0 0 0-2 .8c.7 1 2 .1 2-.7q2.2-.2 3-2.1 1 .2 2-.1a67 67 0 0 1 7-4.3q1-.6 1-1.7 1 .3 2-.1l6.7-3.8V428c.8 7.2 6.2 10.4 13 10.6q26.7.4 53.3-.2c7.2-.7 11.1-5 14.1-11.2 5.2-1.8 7.9-1.7 11.8-6l2.2-.6q3.2-2.2 6.9-4 .4-.3.7-1 .5 6.2.4 12.5c-2.4-.7-24.5 17.2-28.5 19.2q-.8.6-1.4 1.5c-.8.8-3 .5-3 2-1 .4-3 .7-3 1.9 1 1.4 2.6-1 3-2 3 .6 2.3-1.6 4.9-2 8.6-5.4 18-10.4 27-15.7h.7q.3 5.6.2 11.3-1 0-1.6.5-6 4.6-12.5 8.7-.8.5-.8 1.4-2 0-3 1.7c1 1 2.5-.8 3-1.7l2-.4 12.9-7.9c-1 12.5 1.6 35.6-1.3 46.6-2.9 8.2-10.7 8-18 7.1q4.4-5.1 8.1-10.6c-.9-1-1.3 1.3-2.3 1.4q-6.8 3.5-13.5 7.5-.8.5-.8 1.3-9.2 1-18.5.2 2.7-2.7 5.9-5 .3-.5.2-1c.7 0 4.2-.8 2.6-1.9q-1.7.3-2.6 1.8-4.5 2-8.5 4.6-1 .3-1.1 1.3-1.2 0-2.4.5c-4-.1-11 .5-14.8-.4l.3-1 17.3-13.6q-3.3.6-5.4 3.3-9 4.6-18 10-.8.3-1 1.3-8.6.8-17.2.1l.2-1 17.7-12.9 2-2q2 0 3-1.9c-1-1.1-2.7 1-3 1.9-5.3 1.5-20.1 11.1-26 14.2q-1 .6-1 1.8c-5.3.1-12.6.7-17.8-.1l.1-.9 34.2-24.4q1.1-.6 1.4-1.8h1.4a4 4 0 0 0 1.7-2c1-.5 2.8-.5 3-1.6-1-1.2-2.6.6-3 1.6q-1.2-.3-2 .7l-1.1.6-45.8 26.3a2 2 0 0 0-.8 1.5q-9.2.7-18.5 0 0-.7.7-1 8-4.8 16-10.2l11-7.3q1-.6 1.6-1.7 1.1.2 2.2-.3 1.9-1.6-.6-1.3-1.1.6-1.6 1.6-.7 0-1.3.2-6.3 3.9-12.8 7.4c-2.3 2-15.3 8.8-18.9 11.1q-.7.6-.7 1.4-18.3.7-36.7 0 .2-.5.8-.8 23.7-15.3 47.3-31 1.5-.6 2.1-2c1.5-.3 4.7-1.7 5.2-3.2q2.1-.2 3-2 1.2.1 1.8-.7c-.6-.9-1.6 0-1.7.7q-2.2 0-3 2-3.4.4-5.3 3.1a5 5 0 0 0-2.4.7l-55.1 31.8q-1 .4-1 1.4c-5.4.6-11.8.8-17.2 0l.2-1 48.1-31.1 8.6-5.6q.8-.4 1-1.2 2.2 0 3-2.2 1.4.5 2-1c.9-.2 2.7-.4 3-1.5-1-1.2-2.7.6-3 1.5q-1.5 0-2 1-2.3.1-3 2.2-1-.2-2 .3l-9 5.2q-.7.8-1.6 1.2-26.8 15.1-53.5 30.7a2 2 0 0 0-.9 1.7c-6 .2-12.4.6-18.3-.1q0-.7.7-1 32-20.5 64-41.3c1.6-1 9.2-5.3 9.6-6.7q2.2 0 3-2.2 1.4.3 2-1a3 3 0 0 0 3-2c1.2.4 4.4-1.3 4.9-2.5-.8-1.3-4.6 1.7-5 2.5q-2.1 0-3 2-1.2 0-1.9 1-2.2.1-3 2.2-1-.2-2 .3l-9.1 5.2c-23.8 14.2-48.4 28-72.6 42q-1 .4-1 1.4c-5.6.8-12.5.4-18.3.3q.5-1.5 2-1.6l9.4-6 13.6-8.3q.9-.5.9-1.4a7 7 0 0 0 5-3c1.5-.2 4.7-1.4 5-3q2.2 0 3.2-2a2 2 0 0 0 1.9-.7c-.6-1-2.1-.2-2 .7q-2 .2-3 2c-1.9-.1-4.2 1.5-5 3a7 7 0 0 0-5.1 3q-1 0-2 .4l-14 8a5 5 0 0 1-1.5 1.4 172 172 0 0 0-10.5 5.7q-.8.6-.9 1.7-9 .4-18.3 0l1-1.5q.9 0 1.6-.6a39 39 0 0 0 4.8-3l1.2-.8q3.5-2.1 6.5-4.6.8 0 1.4-.7l1.8-1 1.2-.8 1.9-1.1 1.2-.8a49 49 0 0 0 6.5-4.6l1.5-.6 1.9-1.1 1-1 3.1-1.7 6-4 .7-.6q.8-.1 1.3-.6.8-.7 2-1.1l1-1a23 23 0 0 0 4.8-3l1.2-.7 3-2 .6-.6q.8-.2 1.3-.7l2-1 1.2-1 2.8-1.8 1.9-1.1 1.2-.8 3-2a12 12 0 0 0 3.4-2.6q.9 0 1.6-.6t1.7-1l1.2-.8q.9-.9 1.9-1.3l1.2-.7 6.5-4.6q1-.1 1.9-.6 5.3-3.7 10.8-7.2.4-.3.5-.9 1.5.3 2-1c.7-.4 3.9-.9 2.6-2q-2.2-.2-2.6 2-1.4-.3-2 1-1 0-2 .5-6 3.7-12 7-2 1.6-4 2.5l-1.3.7-.7.5q-.6.2-1.1.6-2 1.3-4 2.2l-1.2.7-.8.5-1.2.8-3 1.6-.7.4-1.3.7-5 3-.8.5-1.2.8a54 54 0 0 0-7 4l-5 2.7-.8.6a2 2 0 0 0-1.1.7l-3.2 1.6-.6.4-1.3.7-5 3-.8.5-1.1.8a35 35 0 0 0-7.1 4l-5 2.7-.7.5-1.3.7a14 14 0 0 0-3.4 2.4q-.9 0-1.6.6l-5 2.8-.7.6q-.8.2-1.3.6l-5 2.8-.8.6q-.6.2-1.1.7a36 36 0 0 0-5 2.7 66 66 0 0 0-7 4.3q-1.3.4-2 1.5c-3.2-1-6.6-3.4-8-6.6q1 0 1.9-.6l59.7-37.5q1-.7 1.7-1.7 1.2 0 2-1 2-.4 3-2a2 2 0 0 0 1.9-1c.7-.2 4-1 2.6-2.1q-2.1 0-2.6 2-1.4-.3-2 1-2.2 0-3 2-1.4-.3-2 1c-1.6-.2-3.2 1.5-4.6 2q-3 1.5-5.5 3.8-1.5.3-2.9 1.3l-49.7 28.6-2 1.6a22 22 0 0 1-1.2-10.5q.8 0 1.6-.5l32.6-20.5c2.2-1.7 8.6-4.5 9.7-6.8a6 6 0 0 0 4.9-3 7 7 0 0 0 5-3c1.9 0 3.9-1.5 5.1-2.7-.8-1.4-4.5 1.7-5 2.7-1.9-.2-4 1.6-5.1 3a7 7 0 0 0-5 3 4 4 0 0 0-2 .4q-4.5 2.5-9 5.3L99.8 477q0-5.7.2-11.3a4 4 0 0 0 2.2-.8l1-.8a50 50 0 0 0 6-3.8l1.9-1.2 1.2-.8 1.8-1.2 1.2-.8 12.6-8.5 1.4-.7 2-1.2 1-.8 2-1.2q.6-.3 1-.9l1.7-1 1.2-.8 3-2 1.9-1.1 1.2-.8 9.5-6.5q.8-.1 1.5-.7l1.5-1.3q.9-.2 1.5-.8l2-1 1-1 2-1 1-1q.9-.3 1.8-1l1.2-.7q.8-.7 1.8-1.2l1.2-.8 1.8-1.2 1.2-.8 3-2 3-2q2-1 3.4-2.6.9-.2 1.6-.6.8-.8 1.7-1.3l1.3-.7q.8-.8 2-1.2l1-.7a5 5 0 0 1 1.9-1.2l1-.7q.9-.8 1.9-1.3 4.5-2.7 8.9-5.7.7-.4 1-1.3 2.1 0 3-2 1.2.1 2-.7c-.6-.9-1.7 0-2 .6q-2.1.3-3 2.1a3 3 0 0 0-2 .5l-6.3 3.7q-1 .6-1.7 1.4-1.5.5-3 1.4-.6.1-1 .6l-1 .7-1.2.5q-.9.7-1.9 1.2l-1.2.6-.7.4-1.3.7-5 3-.6.6q-.8 0-1.4.7l-5 2.7-.7.5-1.2.8a27 27 0 0 0-5 2.8l-.9.4-1.2.7-1.8 1-1.3.8-.6.5q-.8.1-1.3.7a154 154 0 0 0-12.6 7.4q-.8.2-1.4.6l-5 2.8-.8.5-1.2.7a15 15 0 0 0-3.5 2.3 56 56 0 0 0-6.6 3.5l-.7.6q-.6.1-1.1.6l-5 2.8-5.8 3.3-1.3.7a49 49 0 0 0-5.4 3.5q-1 0-1.7.8l-5 3h-.7q.2-5.4 0-11 1.1 0 2.2-.6l49.9-32q.6-.6.9-1.4c1.5 0 4.7-1.5 5-3q2.2 0 3.1-2 1.2.1 1.8-.8c-.5-.8-1.7 0-1.8.8q-2.1 0-3 2a8 8 0 0 0-5.1 3c-2-.1-8.8 4.6-11 5.7L99.8 442l.2-11.2q1 0 1.7-.6l61.7-40.6q1-.6 1.6-1.6 1.2 0 2.2-.5 2-1.6-.6-1.3-1.2.6-1.6 1.8h-1.3l-12.8 7.4q-.7.9-1.5 1.3a1660 1660 0 0 0-49.2 28.5q-1-.6-.8-1.8c.2-3.2-.6-6.7.4-9.7q1 0 1.9-.5L153 378q2.8-1.5 4.9-4 2.1 0 3-2 1-1 0 0a3 3 0 0 0-3 2c-2-.3-4.4 2-6.2 2.8L150 378l-50.3 29c.2-3.5-.3-9.2 1.2-12.3 1.7.6 15.9-10.6 18.4-11.9q.5-.3.5-.9 1.2 0 2.3-.9c1.6-1 3.8-2.1 4.9-3.8q2.2-.2 3-2.3c.7.2 2.1.2 2-.9.4-.3 4-1 2.6-2q-2.3-.1-2.6 2-1.4-.3-2 1-2.2 0-3 2.2c-2-.7-4.4 2-6.2 2.6L119 381l-18 10.3c3-36 26.2-66.9 61-77.5q-.5 1.6-2 2.8l-15.6 13.8q.8.4 1.5 0l31.1-18q.7-.5.8-1.2l1.2-.4q.7.2 1-.4Zm130 0q7.8-.4 15.6-.1.9-.3 1.4.6-16.5 10.5-32.6 21.4l1.5-14.4c1.9 1 12.8-6.1 14-7.5Zm25.1 1.1q5.4.8 10.7 2.3 1.2.1 1.1 1.2-28.5 18.3-56.8 37l4-17.1c5.6-2.4 33.3-19.2 41-23.4ZM391 344c2.5 2 4.6 5.2 5.8 8q-.9 0-1.6.6-8.6 5.2-16.9 11c-1 .6-3.4.4-3 2.2-1.7-.3-6.5 2.7-7.2 4q-2 .3-3.1 2-1.2 0-1.8.8c.6 1 1.9 0 1.8-.8q2.3.2 3.1-2 .8.2 1.5 0c2-1.5 4.3-1.8 5.7-4l1.8-.3q9.4-5.9 19-11.2.9-.6.7-1.6c2 .5 4.3 6.5 5.7 8.2-3.5 2.6-27.3 16.9-28.2 19q-1.8.6-3.7.6-7 0-14-.5-.5-.7-.5-1.6v-13.7q17.2-9.5 34-19.4.9-.4.9-1.3Zm-280.3 17c.7-.2 4.2-1 3-2.2q-2.4 0-3 2.3Zm293.8 4.6q2 4.5 3.3 9.4c-2.9.7-16.6 9.5-18.5 12.2-1.8-4.4-6-6.2-10.3-7 7.7-3.7 18-9.9 25.5-14.5ZM162.9 371c.3 0 1.8-.4.8-1q-.7.3-.8 1Zm180.9.6v6.7q0 2.2-2.2 2-5.3 0-10.4-.4l.2-1c4-1.7 9-4.6 12.4-7.3Zm-237 4.6c.8.3 4.4-1.3 2.8-2.1q-2 .1-2.9 2.1Zm302.1 2.4q1.4 5 2.2 10.2c-2-.3-19 11.3-20.7 13.4l-.4-13.5c2.3.5 16-8.4 19-10.1Zm-79.9 9q3.6-.4 7.1.2-.4.9-1.3 1.3l-7 3.6q-.6-.5-.3-1 1-2 1.5-4.2Zm44 0q2.4 0 3.4 2.4a67 67 0 0 1-14.5 8l-.4-.3a72 72 0 0 0 11.4-10Zm-142.2 3.5c.7-.2 4.4-1 3-2.1q-2.4 0-3 2.1Zm147 11.9q.3 2.4.1 5-4.5 2.4-8.8 5.2-.9.6-1.7.1zM337 431.7c-2.9.3-11 .8-13-1.5q15-8 29.7-17c1.5-.7 1.7.7.6 1.5a588 588 0 0 0-17.3 17Z"/><path fill="#4fc1bb" fill-opacity=".5" stroke="#4fc1bb" stroke-opacity=".5" stroke-width=".5" d="M296 480q.5-1.2 1.6-1.7 2.5-.3.6 1.3-1.1.4-2.2.3Z"/><path fill="#50c2bc" fill-opacity=".2" stroke="#50c2bc" stroke-opacity=".2" stroke-width=".5" d="M168 452q-.6 1.2-2 1 .6-1.3 2-1Z"/><path fill="#4fc1bb" fill-opacity=".7" d="M255 446c.3-.9 4.1-3.9 4.9-2.6-.5 1.2-3.7 2.9-5 2.5"/><path fill="#4fc1bb" fill-opacity=".5" stroke="#4fc1bb" stroke-opacity=".5" stroke-width=".5" d="M154 446c.4-1 4.1-4 5-2.7-1.2 1.2-3.2 2.7-5 2.7Z"/><path fill="#50c3bb" fill-opacity=".3" stroke="#50c3bb" stroke-opacity=".3" stroke-width=".5" d="M161 372q-.9 2-3 2a3 3 0 0 1 3-2Z"/><path fill="#4fc1bb" fill-opacity=".5" stroke="#4fc1bb" stroke-opacity=".5" stroke-width=".5" d="M305 362c0 .9-1.3 1.6-1.8.7q.6-.9 1.8-.6Zm-173 12q.3-2.1 2.6-2c1.5 1-2.2 1.7-2.6 2Zm265 81c-.4.9-1.9 2.7-3 1.7q1.2-1.5 3-1.7Zm-113 6c.2-.7 1.2-1.6 1.8-.7q-.6.8-1.7.7Zm-81-139c-.7.7-2 3.2-3 1.7.3-1.1 2-1.4 3-1.6Zm-92.4 39.2q.6-2.3 3-2.3c1.2 1.2-2.3 2-3 2.3Zm97.4 33.7c.3-.6 1.4-1.5 2-.6q-.8.9-2 .6Zm171.2 55.9c-.4.8-2 3.3-3 1.9 0-1.2 2-1.5 3-2ZM183 475c-.2-1 1.3-1.6 1.9-.7a2 2 0 0 1-2 .7Zm188.7 19q.8-1.5 2.6-1.8c1.6 1-2 2-2.6 1.9Z"/><path fill="#efc7a4" stroke="#efc7a4" stroke-width=".5" d="m195.3 99 .3 1.2.7.7v1.7a8 8 0 0 1-4.4 3.4q-.9-2.5-1-5.2c1.5-.4 2.9-2 4.4-1.8Zm28.8-.4q1.2 1 2.1 2.3-.3 1.5.1 2.8l-5.4 5.1-19.9 3zM297 109q-4.5 0-9-1c.6-1.2 11.5-7 13.4-8.2q1.4-1.2 2.8-.2c.2 2.2-6.8 6.6-7.2 9.4Zm-23.8-9a6 6 0 0 1 .7 4.3c-.8.5-2.6 1.6-2.6 2.6q-5.1.3-10.4.1c.5-1.6 10.4-6.6 12.3-7Zm42 11.9q-2 0-4-.8c.3-1.5 3.7-2.4 4.8-3.4q.6-.4 1 0c.4 1-1.5 3-1.9 4.2Zm-56 3.2-.3.8c-4.3 3.7-23.4 17.1-25.7 19.9a4 4 0 0 0-3 1.8c1 1.3 2.7-1 3-1.8 3.3 0 29.8-16.8 35-19.3q.9-.7.8-1.8 9.6.6 19.3 1.5 0 1 .8.2c4.7.7 11.6 1.1 16 2.6l-.2 1c-10.3 7.1-20.4 14.9-30.8 21.6q-.8.4-.8 1.3-2.1 0-3 1.8c.9 1.1 2.5-1 3-1.8l1.9-.2a1279 1279 0 0 1 38-22c1.2.3 4.2.6 4.8 2q.3 3.2 0 6.5c-2.7.2-32.2 22-37 25.3q-.8.5-.6 1.4-2.4 0-3.2 2.2-1.2-.3-2 .6c.6 1 1.8.2 2-.6q2-.5 3.2-2.2 2.8-.8 5.1-2.8 16.5-9 32.6-18.5 0 6.1.3 12.3-1.3-.2-2.4.3l-39 28.3q-.7.7-.8 1.6-2.3-.4-3.1 1.8-2.2 0-3.1 2.1-2.1 0-3 1.7c1 1 2.6-.8 3-1.7q2.4 0 3.1-2.1a5 5 0 0 0 3.7-1.3c6-3.5 46.5-25.6 48.1-28.5 5.8.9 14.3 7.2 15.3 13l-46.3 32.5q-.6.3-.7 1.1-2.2.3-3.2 2.2-1.2 0-1.8.8c.6 1 1.8 0 1.8-.8q2.4 0 3.2-2.2c3.6.1 43.3-24.2 49.7-27.9 1 17.2-4.5 22.9-20.8 25.8a7 7 0 0 0-3.4 2.5c-2.6 36.5-19.2 72.4-61 73q.1-.6.7-.9a62 62 0 0 0 10.2-6l14-12.1q.3-.4.3-1 .5 0 .7-.5-.6-.2-.7.5c-4 1.8-27.3 15.2-32 18.3a3 3 0 0 0-.7 1.5c-13.3-.7-35-13-40.5-25l49.4-34.5q.7-.4.7-1.3l2.2-.7q2-1.4-.3-1.2-1.3.6-2 1.9c-1.8.3-9.8 5.8-12.4 6.6L207 238l-1 .3a62 62 0 0 1-8-17.4q1 .6 2-.1 23.2-17 46.6-33.7.3-.5.2-.9c1-.3 2.8-.5 3-1.8-1-1-2.4 1-3 1.8q-1.3.3-2.4.9l-46.1 26.5-2 1.6q-1.5-5.4-1.6-11a462 462 0 0 0 40.2-28c.7-.2 4-1 2.7-2.2q-2 .3-2.7 2.2c-2.6 0-9.7 5.6-12.6 6.5L194 199.3c0-3.9.4-6.5-4.4-6.7q-.5 0-.9-.6a3852 3852 0 0 1 47.3-33.6q.7-.6 1-1.4 1.8-.2 2.8-1.7c-.8-1-2.5.8-2.8 1.7-2.1 0-6.7 3.5-8.8 4.4l-48.2 28c-2.4-1.4-5.4-3.7-6.2-6.5q4-3 8.2-5.7a2 2 0 0 0 1-1.3q1 0 2.1-.4 2-1.5-.4-1.3-1.2.6-1.8 1.7l-1.3.2q-4 2.6-8.2 4.8-.4.3-.4.7c-1.6.1-4-8.2-4-9.8 1.7.3 28.7-21.2 32.6-23.6l2.3-2c.4-.5 4-1.2 2.6-2.3q-1.8.4-2.6 2.2c-3.7.2-28.6 15.9-34 18.9l-.7.1c2.9-19 18.1-13.6 24.3-20q.6-11.2.5-22.6 0-.8.5-1.5a88 88 0 0 1 20.8-3.8q-.5 1-1.6.8c-.6.4-2.5 2-2.1 2.8q1.6 0 2.5-1.5a15 15 0 0 0 4.2-2q.6-.4.6-1.1 20-1.8 40.2-1Zm26.6 3.1c.4-.1 1.9-.6.9-1.2q-.7.3-.9 1.2Zm-88 4c.5-.1 1.7-.6.8-1.2q-.8.3-.8 1.2ZM340 181c-1.8 0-3.8 1.4-5 2.7.7 1.4 4.7-1.7 5-2.7q.4-.2.7-.6-.7-.3-.7.6Zm-113 64a3 3 0 0 0-3 2c-1.9-.2-4.4 1.8-6 2.7.7 2.7 5.4-1.5 6-2.7q2.1-.2 3-2a2 2 0 0 0 1.9-.7c-.6-.9-1.8 0-2 .7Zm9 7c-1.3 0-6.5 2-5.3 3.8 1.3.2 4.9-2.6 5.3-3.9 1.8.2 3.8-1.4 5-2.6-1-1.3-4.6 1.5-5 2.6Z"/><path fill="#efc6a5" fill-opacity=".2" d="M236 252c-.4 1.2-4 4-5.3 3.8-1.2-1.8 4-3.7 5.3-3.9"/><path fill="#eec7a3" fill-opacity=".5" d="M259.8 208.1q.6-1.3 1.8-1.9 2.5-.1.4 1.2z"/><path fill="#f0c8a6" fill-opacity=".3" d="M273.1 178.9q-.7 2.3-3.1 2.1.9-2 3.1-2.1"/><path fill="#efc7a4" fill-opacity=".5" d="M183 176q.6-1.2 1.7-1.8 2.4-.2.4 1.4-1 .3-2.2.3m107 22c0 .7-1.2 1.7-1.8.7q.6-1 1.8-.8"/><path fill="#efc7a4" fill-opacity=".4" d="M277 158c-.1.9-1.3 1.6-1.9.7q.8-.9 2-.6m63 23c-.3 1-4.3 4-5 2.7 1.2-1.3 3.2-2.7 5-2.7m-113 64c.1-.7 1.3-1.6 1.9-.7a2 2 0 0 1-2 .7m55.9 4.1q0-.6.7-.5z"/><path fill="#efc7a4" fill-opacity=".3" d="M280.3 156q-1.3 1.5-3.2 2a3 3 0 0 1 3.1-2m12.9 39.7a3 3 0 0 1-3.2 2.2q1-2 3.2-2.2M224 247c-.6 1.2-5.3 5.4-6 2.7 1.6-1 4.1-2.9 6-2.7"/><path fill="#f0c7a4" fill-opacity=".5" d="M203.9 146.1a4 4 0 0 1 2.6-2.1c1.4 1-2.2 1.7-2.6 2.1m66 35c-.3.8-1.9 2.6-2.8 1.6q.8-1.8 2.9-1.7"/><path fill="#f0c5a3" fill-opacity=".3" d="M233.1 135.8c-.3.9-2 3.1-3 1.8a4 4 0 0 1 3-1.8"/><path fill="#eec7a4" fill-opacity=".4" d="M197.7 122.2q0-.9.8-1.2c1 .6-.3 1.1-.8 1.2M227 245a3 3 0 0 1-3 2 3 3 0 0 1 3-2m9 7c.4-1.2 4-4 5-2.7-1.2 1.2-3.2 2.8-5 2.6"/><path fill="#efc5a5" fill-opacity=".1" d="M340 181q0-.9.7-.6-.3.5-.7.6"/><path fill="#726356" fill-opacity=".5" stroke="#726356" stroke-opacity=".5" stroke-width=".5" d="m288.2 116.2.8.2q-.7.8-.8-.2Z"/><path fill="#4fc1bb" stroke="#4fc1bb" stroke-width=".5" d="M329.1 27.7q3.5 4.1 3.5 9.5l-2 1c-3.6 3-35.2 25.6-35.5 26.5-1 .5-2.8.8-3 2 1 1 2.6-1 3-2h2c10.7-7 23.8-13.5 34.8-20.6l-5 27.1q-1.2.5-1.9 1.4-4.2 4-8.8 7.8 1.3.3 2.4-.4 3.6-2.3 7.3-4.2-3 18.1-6.4 36.3c-.6 1.5-3.4 0-4.5-.2.4-1.2 2.3-3.1 2-4.2q-.6-.5-1 0c-1.2 1-4.6 2-4.9 3.4q-7.1-.9-14.2-2.1c.4-2.8 7.4-7.2 7.2-9.4q-1.5-1-2.8.2c-2 1.1-12.8 7-13.3 8.3q-8.4-.1-16.8-1.2c0-1 1.8-2.1 2.6-2.6a97 97 0 0 0 18-15.1c.7-.5 3.8-1 2.6-2.2q-2 .3-2.5 2.2c-2.1.3-18.3 9.3-18.8 10.8-2 .4-11.8 5.4-12.3 7q-8.4.3-17 0l2.2-2.6-.4-.4c-1.2.5-4.5 1.9-4.8 3.2q-10 1-20 1.6 3-2.4 5.5-5 1.2.4 1.7-.8c3.8-2.7 30.3-21.3 30.8-23.2 1 0 2.5-2.5 3-3.3l.4-11.8q.5-.8 1.3-.6c4.4 0 19.2.7 14.7-8L286 51q.5 1.7 2 .7a1571 1571 0 0 0 41.1-24Zm-65.5 48.6c.7.1 4.3-1.3 3-2.2q-2.2.3-3 2.2Zm147.2 316.4q1 .6.9 1.9.3 9.8 0 19.7-1.6.3-2.8 1.1l-6 4q-1 .7-1 1.9c-4 4.2-6.6 4.1-11.8 5.9l.2-23.5c3.2.6 17-8.8 20.5-11Z"/><path fill="#f3f5f7" stroke="#f3f5f7" stroke-width=".5" d="m253 312.1-.3 2c-1.2 0-3 3-2.9 4.1q-2.4-.3-4.9-1.2c.5-1 6.7-4.1 8-4.9Zm29.7 13-.8-.1a3 3 0 0 0-1.8 1.6c.6 1 1.5.2 1.9-.4l.6-.3a152 152 0 0 1-24.5 69.7q-2 1.3-3.4-.8-3.8-5.1-6.7-11c1.1-1 2.7-2.4 3.1-4q.6 0 1-.3l5.7-5.9q-.5-.4-1.1-.3-1 1-2.3 1.8-1.3 0-1.3 1c-2.7-.6-5 3-7.9 3.2Q239 366 235 352l6.1-4.4c1.2-.6 1-2-.3-1.5-1.6.7-5.1 3.8-6.5 3.8q-2.7-11.4-4.2-23 1.5-.5 2.3-2 1.2-.5 2-1.5c17 7.2 32.2 5 48.2-3.1 1.2.7.2 3.6.2 4.8Zm90.1 62.7a72 72 0 0 1-11.4 10q-.3.5 0 1 .6-.1.4-.7c3.4-.8 11.3-5.8 14.5-8 2 0 1.7 11.3 1.4 13l-10.4 10.3q.9.4 1.7 0 4.3-3 8.8-5.4c-.2 5.8.6 16.7-.6 22q-2 .5-3.4 1.7h-16.6c-.6-1.4-2.6-.8-3.4 0H337a588 588 0 0 1 17.3-17c1.1-.8 1-2.2-.6-1.4a738 738 0 0 1-29.7 16.9c-2.7-2.7-2-6.8-2-10.2q2.8-2.1 5.4-4.5a4 4 0 0 0 2.3-2q-.4-.6-1-.3c-2.4 1-4.2 3.3-6.7 3.8q-.2-13.7.3-27.3c.2-3 4.7-1.8 6.6-2q-.4 2-1.5 4-.3.6.2 1 3.6-1.5 7.1-3.5.9-.4 1.3-1.3 8.5-.5 17-.4-2.4 4 1.7 1.6a2 2 0 0 0 1.3-1.2q8.4-.4 16.8-.1Z"/><path fill="#5d9694" d="M357.2 431.6q-1.6.6-3.4.1c.7-.8 2.8-1.4 3.4 0"/><path fill="#489591" d="M377.2 430q-.6 2.7-3.4 1.7 1.5-1.2 3.4-1.8"/><path fill="#56bbb5" fill-opacity=".9" d="M251.1 379.8c-.4 1.6-2 3-3 4-1 .1-.7-1.3-.7-1.8q1.5-2 3.7-2.2"/><path fill="#f4f6f7" fill-opacity=".4" d="m281.9 325 .1 1.2c-.4.6-1.3 1.4-1.9.4a3 3 0 0 1 1.8-1.6"/><path fill="none" d="M411.6 414.3q.4.7 0 1.3-.1.6-.6 1a45 45 0 0 0-7 4l-2 .7q0-1.2.9-1.9l6-4q1.3-.8 2.7-1.1"/><path fill="#27605e" fill-opacity=".1" stroke="#27605e" stroke-opacity=".1" stroke-width=".5" d="M195 402.6v1.4l-1.8 1.2-.9-.5-.3-.7q1.5-.9 3-1.4Zm-39 56.1v1.3l-1.6 1q-.8-.1-1.4-1 1.3-.9 3-1.2Z"/><path fill="#376866" fill-opacity=".3" stroke="#376866" stroke-opacity=".3" stroke-width=".5" d="m239.1 5.7-5.4.2c.6-1.3 5.2-1.4 5.4-.2Z"/><path fill="#272b2b" fill-opacity=".6" d="M359.8 500.4q1.2-.5 2.4-.5 1.5 0 2.7.5a5 5 0 0 1-5 0"/><path fill="#316868" fill-opacity=".1" stroke="#316868" stroke-opacity=".1" stroke-width=".5" d="M215.6 314.4v.4q-1 1.5-2.8 1.3l.1-1.1c1 0 1.8-1.7 2.7-.6Z"/><path fill="none" d="m215.3 117.2 1.4-.3.4 1.2-3 1.2-.4-1.3q1.1.2 1.5-.8m-94.4 262.6q1.2.2 1.3 1.2-1 .9-2.3.9-.5-.3-.8-.9zm31-3q1 .2 1.3 1.2-.9.4-1.5 1-.9-.3-1.6-1z"/><path fill="#2a2928" fill-opacity=".5" d="M218.9 116.2q0 .7-.6 1.1l-1.6-.4q.8-1.1 2.2-.7"/><path fill="#376664" fill-opacity=".7" d="M194 13q-.7 1.2-2.1.7c0-.8 1.6-.6 2.2-.7"/><path fill="#305350" fill-opacity=".4" d="M150.1 312.1q-.3.7-1 1 0-1 1-1"/><path fill="none" d="m184 63.3 1-.5.3 1.2h-1.1z"/><path fill="#423a3a" fill-opacity=".1" stroke="#423a3a" stroke-opacity=".1" stroke-width=".5" d="M228.3 296.2q1.2.2 0 .6z"/><path fill="#273131" fill-opacity=".4" stroke="#273131" stroke-opacity=".4" stroke-width=".5" d="M288.7 357q.2 1-.7.8 0-.5.7-.8Z"/><path fill="#345555" fill-opacity=".4" d="M124.4 327q-.6.8-1.6 1.2.4-1.2 1.6-1.2"/><path fill="#4e4e4e" fill-opacity=".3" d="m281.9 325 .8.1v.8q-.4 0-.7.3z"/><path fill="#293432" fill-opacity=".4" stroke="#293432" stroke-opacity=".4" stroke-width=".5" d="M180 310.4q-.3.6-1 .4.1-.8 1-.4Z"/></svg>