<svg xmlns="http://www.w3.org/2000/svg" style="shape-rendering:geometricPrecision;text-rendering:geometricPrecision;image-rendering:optimizeQuality;fill-rule:evenodd;clip-rule:evenodd" viewBox="0 0 512 512"><path fill="#598cfb" stroke="#598cfb" stroke-width=".5" d="M34 79q-.7 3-1.1 6.3l-2 2.2q-1.5 1-2.8 2.3a7 7 0 0 1-6.1-4.3c2.4-1.1 9.5-6.8 12-6.5Zm18.8 156.8L51 260.3c-3.3 1-14.3 7.7-17.9 10l-.9-.2q-.5-10.7-.2-21.3c2.6-.8 17.8-10.6 20.8-13ZM39 256a2 2 0 0 0-2 1c-1 .3-2.8.4-3 1.6 1 1 2.8-.5 3-1.7q1.2.3 2-1c1.1.1 2.9 0 3-1.5-.9-1-2.7.6-3 1.6Z"/><path fill="#4d5c79" stroke="#4d5c79" stroke-width=".5" d="M295 10.8q.1.8-.4 1.2-14.4 9.7-28.4 19.9-.5 1.1.9 1.3c-1.5.7-3.1 3.8-4.8 2.5q-.2-11.5-.1-23.2-.2-.8.5-1.3 16.2-.4 32.4-.4Z"/><path fill="#5a8cfa" fill-opacity=".9" stroke="#5a8cfa" stroke-opacity=".9" stroke-width=".5" d="M94.8 78h1.3q.1 2.1-.2 4.2c-1.9 1.2-10.2 6.2-10.8 7.7q-4.5.8-9 0l-.2-1q1-.2 1-1.3l5.7-3.3q1.1 1.3 1.5-.4c.2-1 2.5-1 3.4-1.2l2.4-1.4q.8-.4 1.2-1.3c.5-1.8 3.6-.6 3.7-2Zm203.4 356 1 .5-1.8 1.6c-.7.4-2.7.5-2.2 1.8q-2.4-.3-3.1 2-1.3-.3-2 .6c.5 1.2 1.9.3 2-.6q2.1-.1 3-2c2.4 0 3.6-1.8 5.4-3q1.7-.3 3.1-1.3l1 .7c-8.1 5-16.3 12.4-24.4 17.9q-.8-4-.9-8 9.6-4.8 18.9-10.3Z"/><path fill="#8baffd" d="M254.9 246.3q0 1 1.2 1.2-8.7 4.8-17 10.1-1 .8-2 0 0-.8.8-1zm6.9 10q.3 1 1.3 1.1l-15.2 8.8c-1.2.7-2.3 2.7-3.8 1.4q.2-.7.9-1zM133 343.6q-.1-1-1.1-1 4.8-2.7 9.7-5.7.8-.2 1.3.3-4.7 3.7-9.9 6.4"/><path fill="#6594fc" fill-opacity=".9" d="M187 208q2-.5 4 .2l.3.6q-.5 1-1.4 1.5l-24 13.8c-1.2.7-2.3 2.6-3.8 1.3l24.4-16.5q.5-.3.5-1"/><path fill="#e6e9ef" d="M300.9 366.1q-.1 1.2-1 2l-9.4 5.8q-.6 2.3-.7 4.4-.2.9-.8 1.4-4.5.3-9.2 0-.7-.6-.7-1.5 1-.2 2-.7 9.8-5.9 19.7-11.4"/><path fill="#598cfc" fill-opacity=".4" d="M287 98h1.4q-.6 1-1.7 1zm-176 16c.1.9-1.3 1.7-2 .7q.9-1 2-.7m205.4 2-1.3.8q.3-.9 1.3-.7m-33.2 13.2q-.6.7-1.5.7zm13 11q-.6.7-1.5.8zm7 2.8-1.3.8q.5-.8 1.3-.8M188 144a4 4 0 0 1-3 2q.7-2.1 3-2m70.2 1.2q-.5.8-1.5.7.7-.5 1.5-.7m19 12.9-1.1.7q.2-.8 1.2-.7m-20 7q-.5.8-1.5.8.7-.6 1.6-.7m-14.2 9.2q-.4.7-1.3.6.6-.4 1.3-.6m-45 9.7c0 .9-1.3 1.6-1.9.7q.7-.9 1.8-.7m-36 12q-.9 2-3 2 .8-1.9 3-2M32 320l1 .2-1.3.9zm181.9 74a4 4 0 0 1-3 1.9q.8-2.2 3-2m-102 3q-.3 1.1-1.3.7zm-7 4q-.3 1-1.3 1 .6-.7 1.3-1m6 14q.3-1.3 1.6-1.2c1.3.8-1 1.3-1.6 1.1m14 6.9c-.3 1.2-3.8 3.2-5 3 1-1.5 3.2-3.1 5-3m-67.7 12q-.7.6-1.5.7.6-.6 1.5-.7m71.5 1.2q-.2.9-1.2.7zM122 439q-.5.6-1.4.7a3 3 0 0 1 1.4-.7m-83.8 7q-.6.5-1.4.7.5-.7 1.4-.7m76.2 1.1q-.6.4-1.4.6.5-.7 1.4-.6m-11.5 3.2q-.3.7-1.2.7.6-.5 1.2-.7m.5 3.7-1.5.7q.5-.8 1.5-.7m-26.5 11q-.3 1-1.3.8zm-9.6 12-1.4.7q.5-.7 1.4-.7m79.6-.2q-.8 2-2.9 2.2.8-2 3-2.2m-96 3.4q-.3.7-1.2.7zm41.1 4.6c.3-.6 1.3-1.5 1.9-.7q-.7 1-1.9.7"/><path fill="#4f7be0" fill-opacity=".2" stroke="#4f7be0" stroke-opacity=".2" stroke-width=".5" d="M102.8 420q0 .9-.8 1.4-6.7 4.3-13.7 8.3-.2-1-1.4-1.1l14-8.2q1-.4 2-.3Zm8.1 66q-.1.9-1 1.3-6.8 4.5-13.8 8.7 0-1.3-1.4-1.3l14.3-8.3q.8-.4 2-.3Z"/><path fill="#598cfc" fill-opacity=".4" d="M307.2 133.3q-.6.7-1.5.7.6-.7 1.5-.7m-38 4.8q-.6.8-1.5.9zm-4.8 8-1.5.6a2 2 0 0 1 1.5-.7m-9.6 1q0 1-1.1.9zm2.5 3q-.7.5-1.4.6.6-.6 1.4-.6m-13.2 4.2q-.5.6-1.4.6zm24.1 4a2 2 0 0 1-1.5.6zm-29.8 2.8q-.6.5-1.4.6.4-.7 1.4-.6m-8.1 2.1q-.7.7-1.5.7.6-.6 1.5-.7m1 1.8-1.2.8q.3-1 1.2-.8m-165.2 1c-1 1-1.5 2.4-3 2q.8-1.8 3-2m32.8 6.9c-.3 1.6-3.6 2.9-5 3 1-1.3 3.2-3 5-3m-52 18q-.4 1.4-2 1.1.6-1.4 2-1.1M306 235l1.2.3-1.4.7zM37 257c-.2 1.2-2 2.7-3 1.7.2-1.2 2-1.3 3-1.7m2 49.1q-.5 1.1-2 1 .7-1.3 2-1m78.3 90.1q-.6.6-1.3.6c-.3-1 .8-.6 1.3-.6m-31.4 16q-.3 1-1.3.8zm1.5 3-1.4.7q.3-.9 1.4-.7m23.6 0q-.9 2-3 2a3 3 0 0 1 3-2m-61.7 24q-.7.5-1.5.6.6-.6 1.5-.7m34.7 22q-.3.9-1.2.7.5-.5 1.2-.7m109 1.8q-.7 2-2.8 2 .8-1.9 2.9-2m40 6c.3-.7 1.4-1.6 2-.7q-.8.9-2 .6m-175 7.3q-.2.8-1.2.7z"/><path fill="#598cfc" fill-opacity=".3" stroke="#598cfc" stroke-opacity=".3" stroke-width=".5" d="m295.3 128.3-1.3.7q.3-1 1.3-.7Zm13 12-1.3.7q.3-1.1 1.3-.7Zm-115.2.7c-1 1.5-3.2 3.2-5.1 3 .6-1.5 3.5-3.1 5.1-3Zm76.2 2.3-1.3.7q.3-1 1.3-.7ZM265 160q-.3 1-1.2.8.4-.5 1.2-.8Zm-49.1 12-.2 1.4-1-.7zm28.4 5.3-1.3.7q.3-1 1.3-.7Zm-7 4-1.3.7q.2-1.1 1.3-.7ZM219 391a6 6 0 0 1-5 3c.4-1.5 3.4-3 5-3Zm-111 26a8 8 0 0 1-5.2 3q2-2.5 5.2-3Zm-34.3 2.1q0 1-1 .8zm-13.5 13.1-1.2.8q.2-1 1.2-.8ZM117 442q-.3 1-1.3.7zm-75.8 2.3-1.2.7q.1-1.1 1.2-.7Zm54 15-1.2.7q.3-1 1.2-.8Zm-14 9-1.2.7q.2-1 1.2-.8Zm-22 14-1.2.7q.3-1 1.2-.8ZM46 483q-.3 1-1.3.7zm70-.1c-.3 1.7-3.6 2.9-5 3.2.9-1.5 3-3.3 5-3.2Z"/><path fill="#598cfc" fill-opacity=".4" d="M308.3 113.2q-.7.7-1.6.8a3 3 0 0 1 1.6-.8M56 123.8l-.2-1c.8-.7 4-3.9 5-2.4q-2.2 2-4.8 3.4m253.2-3.7-1.3.7q.4-.9 1.3-.7m12 4.2q-.7.8-1.6.6zm-86.3 7.8c-1 1.4-3.1 3.2-5 2.8 1-1.4 3.2-3 5-2.8m87.3 0-1.3.7q.3-.9 1.3-.7m-39 3q-.6.4-1.3.6.5-.7 1.4-.6m-1 14.2q-.7.6-1.6.7.7-.6 1.5-.7m-63 21q-.7.8-1.6.5.7-.5 1.6-.5m6 17.8q-.6.4-1.3.6.4-.6 1.3-.6m42.7 0q-.5 1.1-2 .9.7-1.2 2-1m4 10.8q-.2.4-.6.7 0-.6.6-.7m-3 1.2q.6-.2 1 .4-.8.7-1-.4m-237 147q.7 0 1.3.2l-1.4.8zm66.3 61-1.3.7q.3-.9 1.3-.7m-38.4 19.2q-.3.8-1.1.7zm68.4 10.8-1.4.6q.4-.7 1.4-.6m-94.4 4.2q-.2.7-1.1.7zM92.3 461q-.6.6-1.4.8.4-.8 1.4-.8m26.6 20a3 3 0 0 1-3 1.9 4 4 0 0 1 3-1.8m-62.7 3.1q-.7.5-1.5.6.7-.6 1.5-.6m35.8.8q-.9 2-3 2.2.8-2 3-2.2"/><path fill="#598cfc" fill-opacity=".3" stroke="#598cfc" stroke-opacity=".3" stroke-width=".5" d="M65.3 82q-.4 1-1.4 1.4 0-1.5 1.4-1.4ZM316 108q-.1 1-1.2.7zm-201.7 3.9q-1.2 1.8-3.3 2 .9-2.1 3.3-2Zm200 5.4q-.6.5-1.3.7.3-1.1 1.3-.7ZM291 124q-.1 1.1-1.3.7zm13 11q-.3.9-1.3.7zm-38 5q-.3 1-1.2.7zm-22.7 18.3-1.3.8q.3-1 1.3-.8Zm13 12-1.3.8q.3-1 1.3-.8ZM226 185q-.3 1-1.2.8zm-67 13q-.5.9-1.1.4.4-.4 1-.3Zm-49 2q0-1 .9-.4-.3.6-1 .5Zm-1 1-1.1-.3q.8-.6 1 .3Zm-9 203q-.3 1-1.3.7zm1.3 2.3-1.2.7q0-1 1.2-.7ZM81 415q-.3 1-1.3.7zm39 10a7 7 0 0 1-5.1 3q1.9-2.6 5-3Zm11.3 11.3-1.2.7q0-1.1 1.2-.7Zm-11 7-1.2.8q0-1.1 1.2-.8ZM98 453q-.3 1-1.3.8zm-13.7 13.3-1.2.7q0-1 1.2-.7ZM89 487c-.8 1.2-5.4 4.2-7 4 .5-1.8 3.6-2.5 4.9-3.7q.9-.6 2.1-.3Zm-40.7 2.2-1.2.8q0-1 1.2-.8Z"/><path fill="#598cfc" fill-opacity=".4" d="M319.2 106.3q-.4.7-1.5.7.8-.6 1.5-.7m-16.8 17.8-1.3.7q.3-.9 1.3-.7M69 132q.4-.9 1.5-1c1.1.8-1 1.3-1.5 1m246.4 4.1q-.6.7-1.4.7.4-.7 1.4-.7m-39 3q-.9.6-1.7.8a2 2 0 0 1 1.6-.8m16.3 3q0 1.1-1 1zM69 149c.7-1.6 3-2.7 4.6-3 1.2 1-3.6 3.2-4.6 3m227.3-1.9-1.2.8q.3-1 1.2-.8m-26 15a3 3 0 0 1-1.5.6 2 2 0 0 1 1.5-.6m-19 11-1.3.6q.3-.7 1.3-.6m-11.5 3q-.1 1-1.2.8zm-38.9 5.8q-.7 2.1-3 2.1 1-1.8 3-2m17.3 10.2-1.5.7q.6-.9 1.5-.7m-109 209-1.3.7q.4-.9 1.3-.7M156 420c-.4 1.6-3.6 3.1-5.2 3.2q2-2.6 5.2-3.2m-88.8 3.4q-.7.8-1.6.6.7-.4 1.6-.6m-19 11q-.5.7-1.5.7.7-.6 1.6-.7m-7.2 4q-.5.6-1.4.6zm69 8q-.3.7-1.3.7zM71.8 468q-.1 1-1.1 1zm262.3 12.8-1.1.5-1.9-.6c-.4-1.2 2.6-.6 3 .1m-295 6.4q-.4.9-1.5.8.6-.6 1.4-.8"/><path fill="#5383ee" fill-opacity=".2" stroke="#5383ee" stroke-opacity=".2" stroke-width=".5" d="M94 176q-.3.8-1 1.4l-8.7 5.4q-.5-.8-1.4-1l9-5.3a4 4 0 0 1 2-.5Zm24 2a2 2 0 0 1-1 1.4l-8.7 5.4q-.5-.8-1.4-1l9-5.3q1-.6 2-.4Z"/><path fill="#598cfc" fill-opacity=".5" stroke="#598cfc" stroke-opacity=".5" stroke-width=".5" d="M322.3 104.3q-.6.6-1.6.6.7-.4 1.6-.6Zm-25 16q-.7.6-1.7.7.7-.6 1.7-.8ZM183.9 129c-.3 1-1.9 2.4-3 1.5q.9-1.8 3-1.5ZM66.1 166q.1-1 1.4-1.1c1.3.8-.9 1.3-1.4 1.2Zm153 6.2-1 .5q0-1 1-.5Zm12.8 9q-.3 1-1.3.8.6-.5 1.3-.7Zm45 14.7a6 6 0 0 1-5 3q2-2.3 5-3ZM211 396c-.3.7-1.3 1.7-2 .8a2 2 0 0 1 2-.7Zm-55 24a3 3 0 0 1 2.6-1.9c1.6 1.3-1.6 2-2.6 2Zm-31 2q.5-1 1.5-1c1 .7-1 1.3-1.5 1Zm-29 32.4q-.4.7-1.4.7.6-.5 1.4-.7Zm183.9 37.9q.5-2 2.6-2.1c1.5.8-2.2 1.7-2.6 2Zm-8.1 14.8h3.4c.1 1.4-3.6 1.4-3.4 0Z"/><path fill="#6e9af9" fill-opacity=".3" d="M312.8 110q0 1-1 1 .2-.7 1-1m13.3.2q-.3.6-.9.8 0-1 1-.8m-25.8 15q-.4.6-1 .9-.2-1.1 1-1m-12.6.7q0 1.2-1 1 .4-.6 1-1m13 11q0 1-1.1 1 .5-.6 1.2-1m-38 5q.1 1-1 1zm-7.6 9.2q-.2.6-.8.9-.1-1 .8-1m-25.9 15q-.2.6-.8 1-.4-1.1.8-1m-6.6 20.8q.3 1.1-1 1zM113.7 396q.3 1-.8.9.2-.6.8-.9m183 10q.2.6-.3 1-3.2 2.1-6.2 4.6l-.4-1.5c.7-1.9 5.3-3.1 7-4m-209 5q0 1-1 .9.4-.6 1-.8m-13.4 12q-.3.7-1 1 0-1 1-1m60 11.1a2 2 0 0 1-1 .9q-.2-1 1-.9M42.7 437q.1 1.2-1 1 .3-.6 1-1m43 23q0 1-.9 1 .3-.6.8-1m1.7 4.2q-.5.6-1.2 1 0-1.2 1.2-1m-36 23q-.4.6-1.2.9 0-1 1.2-1"/><path fill="#598cfd" fill-opacity=".3" stroke="#598cfd" stroke-opacity=".3" stroke-width=".5" d="M177.1 105q-1 1.8-3 2 .8-2.1 3-2Zm-36 7a4 4 0 0 1-3 2q.8-2 3-2Zm99 17a8 8 0 0 1-5 3 7 7 0 0 1 5-3Zm48.2 3.3-1.3.7q.3-1.1 1.3-.7ZM290 144q-.3 1-1.3.8zm-12 38c-1 1.6-5.3 4.3-7 4q.4-.7 1-1.2c1.8-.7 4-3.1 6-2.8Zm-47.7 3.3-1.3.8q.3-1.1 1.3-.8ZM107 400q-.1 1-1.3.8zm-52 30q-.3 1-1.3.7zm-2.7 7.3-1.2.7q.1-1 1.2-.7Z"/><path fill="#4d82e2" fill-opacity=".2" stroke="#4d82e2" stroke-opacity=".2" stroke-width=".5" d="M114.9 428q-.5 1.2-1.5 1.8l-13 8q-.6-.8-1.5-1.2l14-8.2q1-.4 2-.3Z"/><path fill="#517be1" fill-opacity=".2" stroke="#517be1" stroke-opacity=".2" stroke-width=".5" d="M150.8 423q0 .9-.8 1.3l-11 7q-1.3.8-2.7 1.3-.6-.7-1.3-1l14-8.1a3 3 0 0 1 1.8-.4Z"/><path fill="#5185ea" fill-opacity=".2" stroke="#5185ea" stroke-opacity=".2" stroke-width=".5" d="M292.6 172.1q.6.9 1.5 1.3l-14.1 8.1a4 4 0 0 1-2 .5q.5-1.2 1.6-1.8z"/><path fill="#bac2c6" fill-opacity=".2" d="M378.2 411.8q-.2 1-1.1 1.7l-12 7.1h-2.5q6.6-4.5 13.4-8.2 1-.4 2.2-.6"/><path fill="#4d79db" fill-opacity=".2" stroke="#4d79db" stroke-opacity=".2" stroke-width=".5" d="M214.8 192.2q0 1.2 1.2 1.4c-1.7 1-11.8 6.3-12.3 7.4h-1.5q0-1 .8-1.4z"/><path fill="#598cfc" fill-opacity=".5" stroke="#598cfc" stroke-opacity=".5" stroke-width=".5" d="M230 135q-.6 1.1-1.6 1.6-2.6.5-.6-1.2 1-.4 2.2-.5Zm-45 11c0 .8-1.3 1.6-2 .7q.8-.9 2-.7Zm-86 26.9q.8-1.5 2.6-1.9c1.5 1.2-1.7 2.2-2.7 1.9Zm24 2c.4-1 2-2.5 3-1.5-.1 1.5-1.9 1.5-3 1.6Zm143 14c-.3 1.2-2 3-3 1.7.3-1 2-1.4 3-1.6Zm-76.3 318.2 3.7-.2c-.4 1.5-3.2 1.5-3.7.2Z"/><path fill="#8db0fd" d="m224.7 250 1.4.4-12 7.2q-1 .8-2 0 0-.7.8-1 5.2-3 10-6.3.9-.5 1.8-.2"/><path fill="#6393fc" fill-opacity=".8" d="m233.7 363.9.3.7q-2.5 1.4-4.6 3.4l-5.1 2.8q-1.2 0-1.2-1.2l8.8-5.2q.9-.5 1.8-.5"/><path fill="#5687f1" fill-opacity=".2" stroke="#5687f1" stroke-opacity=".2" stroke-width=".5" d="m115 379.1 2 .2-11.7 7.6q-.3-.9-1.4-1.2 5.8-3 11.1-6.6Z"/><path fill="#5b8cfd" fill-opacity=".2" stroke="#5b8cfd" stroke-opacity=".2" stroke-width=".5" d="M291 186.8h2c-.8 1.5-4.1 2.7-5.6 3.8q-2.5 1.6-5.3 2.5.2-.8.9-1.4zM267 485q.5-2 2.6-2.2c1.1 1.2-1.9 2-2.6 2.2Z"/><path fill="#346db1" fill-opacity=".1" stroke="#346db1" stroke-opacity=".1" stroke-width=".5" d="M236.2 379.2q1.8-.5 3.6 0-.7.9-1.7 1.5l-7 4q-1.2.4-2.4.3l-.5-.2q4-3 8-5.6Z"/><path fill="#4d5c7a" fill-opacity=".7" d="M180 6.2a23 23 0 0 0-7 0c0-2.5 7-2.6 7 0m57 0q-3.5-.6-7.1 0c.2-2.6 7.2-2.5 7.2 0"/><path fill="#8f94e1" d="M296 317.2q-.5 1-1.7.9.3-1.3 1.8-1m-1.7.9q-.6.8-1.6.7a2 2 0 0 1 1.6-.7m-1.6.7q-.3 1.5-1.8 1.3.4-1.4 1.8-1.3M291 320q-.3 1-1.7 1 .2-1.5 1.7-1m-1.7 1q-1.2 1.8-3.5 1.7 1.2-1.8 3.5-1.7m-3.5 1.8q-.3 1.3-1.7 1 .3-1 1.7-1m-1.7 1q-.3 1.5-1.8 1.2.4-1.2 1.8-1.1m-1.8 1.2a4 4 0 0 1-3.3 1.9v-.9q1.4-1 3.3-1M279 327q0 .7-.7 1 0-.7.7-1"/><path fill="#5075d5" fill-opacity=".2" stroke="#5075d5" stroke-opacity=".2" stroke-width=".5" d="M301.7 180.3q0 .9 1 1.3-4.6 3-9.7 5.2h-2q5.3-3.5 10.7-6.5Z"/><path fill="#598cfc" fill-opacity=".5" stroke="#598cfc" stroke-opacity=".5" stroke-width=".5" d="M172 108c-.2 1-2 2.5-3 1.7.3-1.3 2-1.5 3-1.8Zm-10 88c.3-.6 1.3-1.6 1.9-.7a2 2 0 0 1-2 .6ZM42 304q-1 1.7-3 2 .7-2.2 3-2Zm40 76h1.3a2 2 0 0 1-1.5 1zm111 83c.2-.7 1.3-1.6 2-.7a2 2 0 0 1-2 .7Zm9 10c.3-1.2 2-2.7 3-1.6-.3 1.2-2 1.2-3 1.5Zm-55 4c.2-.7 1.3-1.6 1.9-.7a2 2 0 0 1-2 .6Z"/><path fill="#588bfc" fill-opacity=".3" stroke="#588bfc" stroke-opacity=".3" stroke-width=".5" d="M315 128q-.3 1-1.3.7zm-38 5q-.3 1-1.3.7zm-14.7 14.3-1.3.7q.3-1 1.3-.7Zm13 12-1.2.7q.2-1 1.2-.7Zm-59.6 14 1.4.2-1 .5zm21.2 4.6q0 1-1.2.8zm-33.8 3q-.6 1.5-2.2 1 .9-1 2.2-1ZM42 194a8 8 0 0 1-5.2 3.1q1.9-2.8 5.2-3Zm-6 247q-.3 1-1.3.7zm43 23q-.3 1-1.3.7zm-5.7 9.3-1.2.8q0-1.1 1.2-.8Z"/><path fill="#4a91ef" fill-opacity=".2" stroke="#4a91ef" stroke-opacity=".2" stroke-width=".5" d="m129 388.3-1.6 1.4q-4.2 2.5-8.1 5.2a2 2 0 0 0-1.4-1.3q4.7-2.3 9-5.2 1-.5 2.1-.1Z"/><path fill="#5782e2" d="M237.2 90q-1 0-2.3.4-1-.3-1.6-1l8.7-5c.6-.1 1.5-1 1.9 0-.8 1.8-6.3 3.7-6.7 5.5"/><path fill="#4c7de1" fill-opacity=".2" stroke="#4c7de1" stroke-opacity=".2" stroke-width=".5" d="M187 98h2q0 .6-.5 1l-9.5 5.6a4 4 0 0 1-1.9.4q0-.9.9-1.3z"/><path fill="#4d5c7a" fill-opacity=".7" d="M125.1 5.7q-3 .9-6.2 0 3-2.8 6.2 0m169.1-.2q-3.2.8-6.6.5c1.6-1.8 4.8-2.1 6.6-.5"/><path fill="#5b8dfd" fill-opacity=".2" stroke="#5b8dfd" stroke-opacity=".2" stroke-width=".5" d="M213 174v1.4c-1 1.3-8.4 5.7-10 5.5 1-2.1 7.8-5.4 10-7Z"/><path fill="#5893fe" fill-opacity=".2" stroke="#5893fe" stroke-opacity=".2" stroke-width=".5" d="M199 119v1.3c-1 1.4-8.2 5.6-10 5.7.6-2 8-5.7 10-7Z"/><path fill="#568bfd" fill-opacity=".3" stroke="#568bfd" stroke-opacity=".3" stroke-width=".5" d="M63 168c-.4 1.6-8.4 5.8-10 7v-1.3l1.6-1.5 7-4q.8-.2 1.4-.1Z"/><path fill="#5283ef" fill-opacity=".2" stroke="#5283ef" stroke-opacity=".2" stroke-width=".5" d="M202.6 134q.5 1 1.5 1.3l-9 5.2q-1 .6-2 .5.5-1.1 1.5-1.8z"/><path fill="#5b8bfd" fill-opacity=".2" stroke="#5b8bfd" stroke-opacity=".2" stroke-width=".5" d="M190 465q-.3.9-1 1.3l-9 5.7-.1-1.4q4-2.7 8-5 1-.6 2.2-.5Z"/><path fill="#5585ed" fill-opacity=".2" stroke="#5585ed" stroke-opacity=".2" stroke-width=".5" d="M249.3 122.8q.6.5.7 1.2c-2.2.8-7.9 5.2-9.9 5 1-2.2 7-5 9.2-6.2Z"/><path fill="#5484ed" fill-opacity=".2" stroke="#5484ed" stroke-opacity=".2" stroke-width=".5" d="m228.2 384.8.5.2q.2.6 0 1c-2.3 1.1-7.6 5-9.7 5q.1-.9 1-1.4a78 78 0 0 1 8.2-4.8Z"/><path fill="#578bfd" fill-opacity=".2" stroke="#578bfd" stroke-opacity=".2" stroke-width=".5" d="M295.2 437.9q-1 2-3.1 2 .7-2.2 3-2Zm-156.2 44a2 2 0 0 1-1 1.4q-3 1.7-6 3.7v-1.4c1.6-1.3 4.9-3.7 7-3.7Z"/><path fill="#4970cb" fill-opacity=".1" stroke="#4970cb" stroke-opacity=".1" stroke-width=".5" d="M132 485.6v1.4l-7.7 4.7q-.2-1.2-1.4-1.2l9-5Z"/><path fill="#3863a9" fill-opacity=".1" stroke="#3863a9" stroke-opacity=".1" stroke-width=".5" d="M94.7 494.7q1.3 0 1.3 1.3l-6.2 3.8q-1.2.1-2.4-.2-.3-.7.5-1 3.5-1.8 6.8-4Z"/><path fill="#5a8cfc" fill-opacity=".4" stroke="#5a8cfc" stroke-opacity=".4" stroke-width=".5" d="M138 114c0 1-1.4 1.6-2 .6q.8-.9 2-.6Zm-15 61c-.5 1.4-3.6 2.9-5 3 1-1.4 3-3.3 5-3Zm148 11a3 3 0 0 1-3 2q.9-1.9 3-2ZM117.1 445q-.6.7-1.4.8.5-.7 1.4-.7Z"/><path fill="#6695f9" fill-opacity=".9" d="m289 410.2-.8 1q0-1 .8-1m-.8 1a13 13 0 0 1-5.1 2.8q0-.6.4-1 2-1.6 4.7-1.8M283 414l-1.4 2-.8.1a2 2 0 0 0-1.6 1q-.2-1-.1-2 1.8-.7 3.9-1.1"/><path fill="#5c8dfb" fill-opacity=".8" d="m289 410.2.8-.1.3 1.5a7 7 0 0 1-3.2 2.6 1 1 0 0 0-.7.7c-1.8 2.5-4.6 4.4-7.1 6.2q-.1-2 .2-4a2 2 0 0 1 1.6-1q.7 1.3.8-.2l1.4-2q2.9-.7 5-2.7z"/><path fill="#4a78d9" fill-opacity=".2" stroke="#4a78d9" stroke-opacity=".2" stroke-width=".5" d="M148.7 106.2q0 1 1 1.4c-2 .9-6.6 4.4-8.6 4.4q0-1 .8-1.4z"/><path fill="#90b0f6" d="m268 208 3 .1q0 .6-.5.8-3.5 1.5-6.4 4c-.8.1-1.6.8-2-.2l6-4.6"/><path fill="#588bfd" fill-opacity=".3" stroke="#588bfd" stroke-opacity=".3" stroke-width=".5" d="m301.3 144.3-1.3.7q.3-1 1.3-.7ZM227 164.9q-.2 1-1.2.8zm24 4q0 1-1.2.8zM124 438q-.1 1-1.1.8.5-.5 1.2-.8Zm109 31a3 3 0 0 1-3 2.2q.9-2 3-2.3ZM53 479q0 1-1.2.8zm89 1q-.7 2-3 2a3 3 0 0 1 3-2Z"/><path fill="#5393fd" fill-opacity=".2" stroke="#5393fd" stroke-opacity=".2" stroke-width=".5" d="M82 491c-.9 1.8-6.5 5.1-8.4 5.4l-.6-.1q.3-1 1.3-1.5c2.1-.8 5.6-4 7.7-3.7Z"/><path fill="#598cfc" fill-opacity=".5" stroke="#598cfc" stroke-opacity=".5" stroke-width=".5" d="m32 169.1 1.2.3-1.3.7zm15 21.8q.5-1 1.7-1.6 2.4-.3.5 1.3a4 4 0 0 1-2.2.3ZM305.3 253l1 .2-1.3.9q0-.5.3-1.1ZM39 256c.3-1 2.1-2.6 3-1.6-.1 1.5-1.9 1.6-3 1.6Zm3 48q.4-1 1.5-1c1.2.7-1 1.2-1.5 1Z"/><path fill="#d4dbdf" fill-opacity=".9" d="M347.3 504q-.6.6-1.4.8l-1.2 1-1 .1-1 .8q-1.2.3-2.5-.2l-1-.8c0-.7 6.9-1.5 8-1.7"/><path fill="#3e66b8" fill-opacity=".1" stroke="#3e66b8" stroke-opacity=".1" stroke-width=".5" d="M254.7 119.3q0 1 1 1.3-3 1.5-5.7 3.4 0-.8-.7-1.2c.5-1 4.2-2.9 5.4-3.5Z"/><path fill="#86abf8" fill-opacity=".9" d="m305.2 430.2-1 1.4q-2.6 1.3-5 2.9l-1-.6c1.6-1.6 4.6-3.7 7-3.7"/><path fill="#496cb8" fill-opacity=".7" d="M254 506.8c-2.1 1.4-3.6 1.7-5.9.2q.4-1 1.4-.7c1 .1 3.8-.3 4.5.5"/><path fill="#4d75cc" fill-opacity=".7" d="M221.7 506.2h7.6a6 6 0 0 1-6.7.8q-.6-.2-.9-.8"/><path fill="#427ac3" fill-opacity=".1" stroke="#427ac3" stroke-opacity=".1" stroke-width=".5" d="M73 496.3h.6c.3 1.1-4 3-5 3.3h-1.4q0-.8.7-1c1.3-.4 3.8-3 5-2.3Z"/><path fill="#889396" fill-opacity=".8" d="m483 483-.3 1.2c.2 1.7-2.3 2.3-3.3 3.2-.3-1.6 2.3-3.7 3.6-4.3m-3.6 4.4q-.7.4-1.6.5.6-.7 1.6-.5m-1.6.5q-.2.9-1 .8z"/><path fill="#5e8bfd" fill-opacity=".2" stroke="#5e8bfd" stroke-opacity=".2" stroke-width=".5" d="M197 476c-.5 1.6-3.6 3.1-5 4q-.2-1-1.3-1.1c2-.7 4.1-3.2 6.3-2.9Z"/><path fill="#5c8efd" fill-opacity=".2" stroke="#5c8efd" stroke-opacity=".2" stroke-width=".5" d="M69 149c-.7 1.7-3.4 3-5 4v-1.3a8 8 0 0 1 5-2.6Z"/><path fill="#c7cdd3" fill-opacity=".2" d="M351.4 488q.3-1.4-1-1.7c.6-.4 3.5-2.7 4.5-1.9q-1.5 2-3.5 3.6"/><path fill="#6086dc" fill-opacity=".2" stroke="#6086dc" stroke-opacity=".2" stroke-width=".5" d="M328.6 480.3q.3 1 1.5 1.2-2 .8-3.7 2-.6.4-1.2 0l1-1.4q1-1.1 2.4-1.8Z"/><path fill="#becdd3" fill-opacity=".4" d="m419.3 482.9-.5-1.2c1-.7 4.3-3.5 5.1-2.4q-2.1 2-4.6 3.6"/><path fill="#4d99fd" fill-opacity=".2" stroke="#4d99fd" stroke-opacity=".2" stroke-width=".5" d="M36.9 197.1c-.8 1.8-3.3 2.6-4.7 4l-.1-2.1c1.4-.6 3.2-2.3 4.8-1.9Z"/><path fill="#567ed6" d="m189.2 90-2.5.2q-.6-.5 0-1l4-2.2q.8-.2 1.2.3z"/><path fill="#a1befd" d="m109.1 208.2 2-.2c.3 1.3-3.1 2-3.8 3q-1.2.1-.9-1 1.5-.7 2.7-1.8"/><path fill="#5a8cfc" fill-opacity=".4" d="M289.4 151q-.7.5-1.7.8.7-.7 1.7-.8m-39 3-1.3.9q.2-1 1.2-1m3.4 13q0 1-1 1zM93 408.3q-.5.8-1.2.6zm13.3 43.8-1 1q0-1.1 1-1m-41 20.2q-.7.6-1.6.6.7-.5 1.6-.6m5 2.7q-.5.6-1.2 1 .1-1 1.3-1"/><path fill="#598dfd" fill-opacity=".4" d="m290.4 131.1-1.4.7q.3-.9 1.4-.7m28.6 13.8c.1 1-1.4 1.8-2 .7q.8-1 2-.7m-86.7 39.2-1.3.6q.3-.7 1.3-.6M54 340l-.1 1-1.1-.2q.5-.8 1.2-.8m65 141q.3-1.2 1.7-1.1c1.3.8-1.1 1.3-1.7 1.2"/><path fill="#566177" fill-opacity=".3" stroke="#566177" stroke-opacity=".3" stroke-width=".5" d="M335.3 388.3q2.3-.6 4.5 0-1.5 1.5-3.5 1.4-1-.4-1-1.4Z"/><path fill="#5b8dfa" fill-opacity=".2" d="m313.3 137.3-1.2.8q0-1 1.2-.8m-26.4 8.6q0 1.2-1.2.8zm-39 25q0 1-1.2.8zM104.3 404.3l-1.2.8q0-1 1.2-.8m7.6 40.6q-.2 1-1.2.8zm-71 41q0 1.1-1.2.8z"/><path fill="#4b75d2" fill-opacity=".2" stroke="#4b75d2" stroke-opacity=".2" stroke-width=".5" d="M292 458.3q0 .9 1 .5 0 .9-.7 1.3-.8 0-1.5.7-.9 0-1.7.2a4 4 0 0 1 2.9-2.7Z"/><path fill="#5d8ef8" fill-opacity=".9" d="m293.2 455.8 1 .7-2.2 1.8a4 4 0 0 0-2.9 2.7c-1.2.1-2.6.3-3 1.7q.9.9 1.8.1c0 1.5-2 2.3-3 3a8 8 0 0 1-2-4.5q1.1 0 2-.7a67 67 0 0 1 8.3-4.8"/><path fill="#588cfb" fill-opacity=".3" d="M302 117q-.3.9-1.3.7zm5.3 4.3-1.3.7q.3-1 1.3-.7M276 152.9q0 1-1.2.8zm-39.6 9.4-1.2.7q0-1.1 1.2-.7m25.6-.4q0 1-1.2.8zM63.3 430.3l-1.2.8q.1-1 1.2-.8"/><path fill="#939fa2" fill-opacity=".8" d="M499 461q.5 2.6-1.6 4.3-.5-2.7 1.6-4.4m-1.6 4.3q-.5.7-1.4 1 .3-1 1.4-1"/><path fill="#5785e9" d="M62 84.8a6 6 0 0 1-3 2.8c-1 .7-1.1-.8-1.1-1.4q2.1-.5 4.1-1.4"/><path fill="#bec3c6" fill-opacity=".2" d="M343.8 472.1a6 6 0 0 1-2.5 2.9q0-1.4-1.4-1.4 1.8-1.4 4-1.5"/><path fill="#4c73d4" fill-opacity=".2" stroke="#4c73d4" stroke-opacity=".2" stroke-width=".5" d="M267 485.1q-.9 1.8-2.7 2.6 0-1-1-1.2 1.5-1.5 3.7-1.4Z"/><path fill="#598cfc" stroke="#598cfc" stroke-width=".5" d="m110.3 285-1.3-1.4q6-3.5 12-7.3 1-.4 1.8.2zm6.8 94.3q12.4-.6 25-.1c-.4 3.3-4.7 3.5-7 4.5-2.2 2.5-2.7 3.4-6 4.6q-1.2-.5-2.2 0-4.3 3-9 5.3-1.8 1.7-4.2 2.4-.6.3-.8.9l-1 .3-1.2.6-1.8 1.2-1.3.6-.6.4-1.3.8-.7.4q-.8.2-1.2.8l-3.2 1.6-.6.4-1.3.7-5 3-.7.6-1.2.6-4 2.2q-.7.1-1 .8l-1 .3-1.2.7-1.7 1-1.2.7-2 1.1a53 53 0 0 1-6 3.4l-1 .8q-3 1.4-5.5 3.4-.9 0-1.6.6-1.8 1.2-3.9 2-.7.4-1 1.2l-.8.2q-.6.2-1.1.7a28 28 0 0 0-5 2.7q-3 1.6-5.5 3.6-.9 0-1.5.7l-4.1 2q-.7.3-1 1l-.7.3-1.4.6-5 2.8-.7.6-1.1.7-.9.2V432a3 3 0 0 0 2.2-.1l71.2-45zM270 463c5.5 14.2 10.7 24.6 24.2 33.1q-2.1 1.5-4.2 2.6l-1 1q-9.2.5-18.5 0l8.4-6.2q.8-.5.9-1.3c.4-.4 4.1-1.3 2.6-2.2q-2.1.1-2.6 2.2-1.3.2-2.5.8-5.7 3.2-11.2 6.6c-5.5.6-12.8.3-18.4 0 6-3.2 11-7.8 16.5-11.9a5 5 0 0 0 2.7-2.6c.7-.2 3.7-1 2.6-2.2q-2.1.3-2.6 2.2-2.2 0-3.8 1.3c-5.3 3.4-17.8 10-22 13.2q-9.3.6-18.4.1 20.1-15 40.1-30.2c.7-.6 5-3.4 2-3.7q2.5-1.5 5.2-2.8Z"/><path fill="#d1475b" fill-opacity=".2" stroke="#d1475b" stroke-opacity=".2" stroke-width=".5" d="M342.9 359.2a6 6 0 0 1-2.8 2.9q0-1.4-1.4-1.4c1.3-.5 2.7-2 4.2-1.5Z"/><path fill="#719cfd" fill-opacity=".6" d="M240.2 360v1q-.4 1-1.4 1v-1a2 2 0 0 1 1.4-1m-2.2 1.1q.3.6.8.9-.2 1-1.1 1a3 3 0 0 1-1.7-.9q.8-.6 2-1"/><path fill="#6092fb" fill-opacity=".4" d="M320.2 133.1q-.3.8-1 .9 0-1 1-.9m-39 3q-.1.7-.9.9-.1-1 1-.9m13 12q-.3.7-1 1 0-1 1-1m-56.4 9.8q0 1-1.1 1.1.3-.8 1-1m11.4 16.1q-.2.8-1 1 0-1 1-1m-26 15.1q-.3.8-1 .9 0-1.1 1-.9m12.8 173q.6.8 1.7 1c0 .8-2.1 1.7-2.7 2l-1-.5q0-.4-.3-.7 1-1.2 2.3-1.8M61.7 426q.2 1.1-1 1.2.3-.9 1-1.2m47.6 24.2q-.3.7-1 1 0-1 1-1m-11 6.9a2 2 0 0 1-1 1.1q0-1 1-1.1m-38.6 18q.3 1-.8 1 .1-.9.8-1"/><path fill="#6c99fd" fill-opacity=".7" d="m142 207.7 3.1.4a7 7 0 0 1-4 2zm-1 2.3q-.2 1-1.2 1 .3-1 1.2-1"/><path fill="#578cfa" fill-opacity=".2" d="M248.9 150.9q0 1-1.2.8zm-.5 4.4-1.3.8q.1-1 1.3-.8m-6 23-1.3.8q.2-1 1.2-.8M54 310v1h-1q.3-.7 1-1m41 97q-.3 1-1.3.7z"/><path fill="#e2ebef" fill-opacity=".3" d="M313 445q.6-1.8 2.5-2c1.2 1.1-1.8 1.8-2.4 2m30.8 61q0 1-1 .7.3-.5 1-.8"/><path fill="#bdc3d0" d="M268.4 201.7a11 11 0 0 1-5.5 0c1.4-1 4.5-1.4 5.5 0"/><path fill="#f9536b" fill-opacity=".6" stroke="#f9536b" stroke-opacity=".6" stroke-width=".5" d="M368.1 350.1v.9c-.6.9-1.6 2.2-2.7 1.4a5 5 0 0 1 2.7-2.3Z"/><path fill="#ecf2ff" d="M239 202h-5q.9-1.3 2.5-1.1 1.7-.2 2.6 1"/><path fill="#79a2fa" fill-opacity=".8" d="M297.1 454.1a4 4 0 0 1-3 2.4l-1-.7q1.8-1.4 4-1.7"/><path fill="#578dfa" fill-opacity=".2" d="m235.4 182.4-1.3.7q.1-1.1 1.3-.7M238 361h.8v.9zM85.3 416.4l-1.2.8q.1-1 1.2-.8m-9.4 1.6q-.2 1.1-1.3.8zm36.4 30.4-1.2.8q.1-1 1.2-.8"/><path fill="#f7516c" fill-opacity=".2" stroke="#f7516c" stroke-opacity=".2" stroke-width=".5" d="M371.1 347.9v1.5q-1.2 1.1-3 1.6v-.9q1.5-1.3 3-2.2Z"/><path fill="#4d5c7a" fill-opacity=".4" stroke="#4d5c7a" stroke-opacity=".4" stroke-width=".5" d="M71.9 57.1q.6-2 2.7-2.1c1.3 1.1-2.1 1.7-2.7 2.1ZM45.3 77l-.6 1-.4.1q0-1 1-1.1Z"/><path fill="#b66ba8" fill-opacity=".9" d="M299.1 297.7v-.7c.2-1 1.6-2.5 2.5-1.5q-.9 1.6-2.5 2.2"/><path fill="#6997fb" fill-opacity=".9" d="M292.3 460q-.4 1-1.5.8.7-.6 1.5-.7m-3.2 1 1.7-.2q-.5 2.3-2.9 2a5 5 0 0 0 1.2-1.8"/><path fill="#598cfc" fill-opacity=".3" stroke="#598cfc" stroke-opacity=".3" stroke-width=".5" d="m96.6 104 .5 1.3c-.8.7-4.3 3.8-5 2.4zm77.4 3q-.5 1.2-2 1a2 2 0 0 1 2-1Zm147.4 6.1q-.7.6-1.6.6.6-.7 1.6-.6Zm-16.7 2q0 1-1 .9zM189 126c-1 1.5-3.2 3-5 2.9 1-1.5 3.1-3.2 5-3Zm128.9 0q0 1-1.2 1 .6-.7 1.2-1Zm-38.1 4.9q0 1-1.2 1zm42.3 12q.3-1 1.4-1.1c1.2.7-.9 1.3-1.4 1.2Zm-43.3 8q0 1-1 1 .4-.6 1-1Zm-15.6 15a2 2 0 0 1-1.3.7q.4-.7 1.3-.7Zm-39 3.1-1.2.7q.1-1 1.2-.7ZM45 192.1a3 3 0 0 1-3 2 3 3 0 0 1 3-2Zm237 1a8 8 0 0 1-5 2.8c1-1.4 3.3-3 5-2.8Zm-249.9 216 1 .2q-.5.5-1.2.8zm58.2 4-1 .9q0-1 1-.9ZM292 440c-.1 1-1.5 1.8-2 .7q.7-1.1 2-.7ZM91 457.3q-.5.6-1.4.5zm198 3.7a5 5 0 0 1-1.2 1.8q-1 .7-1.7 0c.3-1.5 1.7-1.7 3-1.8Zm-87 12c-.7 1.4-3.5 3-5 3 .7-1.6 3-3.2 5-3Z"/><path fill="#598bfc" fill-opacity=".3" d="m282.3 155.3-1.3.7q.3-1 1.3-.7m-41.3.7q-.3.9-1.2.7zM71.3 425.3l-1.3.7q.2-1.1 1.3-.7M144 479q-.8 1-2 1 .6-1.3 2-1"/><path fill="#5a8bfc" fill-opacity=".4" stroke="#5a8bfc" stroke-opacity=".4" stroke-width=".5" d="M322 143q-1 1.8-3 2 .8-2.2 3-2ZM68.4 427q-.6.6-1.5.7.5-.7 1.5-.7Z"/><path fill="#5a8dfb" fill-opacity=".3" d="M252 149q-.1 1.1-1.3.7zm29 267 .7-.2q0 1.5-.8.2m-198.7 2.2-1.2.7q.1-.9 1.2-.7M131 434q-.1 1-1.3.8zm-26 15q-.3 1-1.3.8z"/><path fill="#588dfc" fill-opacity=".4" d="M294.1 122.3q-.5.7-1.4.6.8-.5 1.4-.6m-65 60.9q-.5.7-1.4.7zm-149.8 237q-.6.4-1.4.6.5-.8 1.4-.7m-34 70.8q-.5.6-1.4.8.6-.8 1.5-.8"/><path fill="#5b8cff" fill-opacity=".2" d="m254.4 171.4-1.3.7q.1-1.1 1.3-.7m-9.5 1.5q-.1 1-1.3.8zm-136 226q0 1.2-1.3.7zm-9 53q-.1 1.2-1.3.7z"/><path fill="#cd4d63" d="M319 262.7c0 1.7-3.2 1.4-4.3 1.5.3-1.8 3-1.5 4.2-1.5"/><path fill="#598bfb" fill-opacity=".2" d="M325.6 121.2q0 1-1 .5zm-101.7 45.7q0 1.2-1.2.8zM123.3 441.3l-1.2.8q0-1.1 1.2-.8"/><path fill="#588bfb" fill-opacity=".3" d="m112.3 399.3-1.2.7q0-1.1 1.2-.7m-19 12-1.2.8q0-1.1 1.2-.8m-31 69-1.2.8q.1-1 1.2-.8"/><path fill="#4d74ca" fill-opacity=".9" d="M299 498.7q1 .2 1.7.8c-.6.9-2 .3-3 .4z"/><path fill="#e2ebf2" fill-opacity=".2" d="M313 445q-.5 1.5-2 1.9l-.2-1.1q.9-1 2.2-.8"/><path fill="#5687f2" fill-opacity=".5" d="m298.6 507 3.6.1c-.6 1.3-3 1.3-3.6-.1"/><path fill="#b54f6c" d="M314.7 264.2c.1.9-1.4.8-2 .8q.7-1.4 2-.8"/><path fill="#5a8bfd" fill-opacity=".4" stroke="#5a8bfd" stroke-opacity=".4" stroke-width=".5" d="M39 256q-.8 1.1-2 1a2 2 0 0 1 2-1Z"/><path fill="#4e5d7b" fill-opacity=".4" d="M147.4 5q-1.5.3-2.8.1c.3-1.5 2.2-1.3 2.8 0"/><path fill="#6b6d6f" fill-opacity=".8" d="M349.4 503q-.7 1.3-2.1 1c-.4-1 1.5-1 2-1"/><path fill="#607bb2" fill-opacity=".5" d="M66 376.2q.8 0 .7 1-.2.5-.7.5z"/><path fill="#aeb7c8" d="M68 376.8a3 3 0 0 1 2 1c-.7.2-2.2.3-2-1"/><path fill="#b69599" d="m282.6 310.2.3.9a2 2 0 0 1-1 1q.1-1.2.7-1.9"/><path fill="#578bf9" fill-opacity=".2" d="m241.4 159.4-1.3.7q.1-1.1 1.3-.7M101.9 402.9q0 1.2-1.3.7z"/><path fill="#5a8cfa" fill-opacity=".2" d="M234.9 159.9q0 1-1.2.8zm-12.6 10.4-1.2.7q0-1.2 1.2-.7"/><path fill="#598cff" fill-opacity=".2" d="m228.4 186.4-1.3.7q.1-1.1 1.3-.7M33.2 504.8l1 .8q-1 0-1-.8"/><path fill="#6b99fd" d="m191 208.2 2.1-.2q-.5 1.2-1.8.8z"/><path fill="#848e91" fill-opacity=".9" d="m401 439-.4 1h-.5l-1-.4a2 2 0 0 1 2-.6"/><path fill="#8c979b" fill-opacity=".8" d="M469.7 408c.1 1-1.4 1-2 1.2q.5-1.4 2-1.1"/><path fill="#598ef9" fill-opacity=".2" d="M96.3 409.3q-.4.5-1.2.8 0-1 1.2-.8M83 413.9q-.2 1.1-1.2.7z"/><path fill="#535d72" fill-opacity=".5" d="m291.4 266 .4 1.8h-.5z"/><path fill="#5b8afb" fill-opacity=".2" d="m44.3 442.3-1.2.8q0-1.1 1.2-.8"/><path fill="#4d5c7a" fill-opacity=".6" d="M271.2 5q-.4 1-1.5 1 .4-.9 1.5-1"/><path fill="#798285" d="M484 411v.7l-.7.2q0-.8.7-.9"/><path fill="#99a7aa" fill-opacity=".4" stroke="#99a7aa" stroke-opacity=".4" stroke-width=".5" d="m484 411 1.1-.2q0 1-1.2 1z"/><path fill="#a7aebd" fill-opacity=".4" stroke="#a7aebd" stroke-opacity=".4" stroke-width=".5" d="m64.2 252 .9.2q-.3.5-.8.7z"/><path fill="#6393fb" d="M287 414.2q-.2.6-.8.7.1-.6.8-.7"/><path fill="#beced3" fill-opacity=".7" d="m471 407-.1.8-1.2.3q.3-1 1.2-1.1"/><path fill="#a4c1fd" fill-opacity=".5" d="M106.3 228q-.4 1-1.5 1.2.3-1 1.5-1.2"/><path fill="#598cfc" fill-opacity=".6" d="m108.4 226 .9.4q-.7.6-1.5.7z"/><path fill="#a9c4f5" fill-opacity=".5" d="M310 427q-.2 1-1.4 1.1.7-.7 1.5-1"/><path fill="#4768b1" fill-opacity=".5" d="M58 217q-.2.7-1 .8a1 1 0 0 1 1-.8"/><path fill="#a9c3fd" fill-opacity=".5" d="M131.3 215.9q-.6 1-1.7 1a3 3 0 0 1 1.7-1"/><path fill="#8eb0f7" fill-opacity=".6" d="M308.2 431a2 2 0 0 1-1.5 1q.4-1 1.5-1"/><path fill="#6794fc" fill-opacity=".8" d="m305.2 432.8-.5 1.5-1-.7q.6-.6 1.5-.8"/><path fill="#7aa2fc" fill-opacity=".3" d="M134.3 214q-.4.7-1.3 1 .2-1 1.3-1"/><path fill="#84a9fc" fill-opacity=".6" d="M136.2 213a2 2 0 0 1-1.4.9q.5-.9 1.4-.9"/><path fill="#578fff" fill-opacity=".2" d="M126.3 439.3q-.4.5-1.2.8 0-1 1.2-.8"/><path fill="#78a5ff" fill-opacity=".1" d="M240.2 360h.8q-.2.6-.9 1z"/><path fill="#bdcdd3" fill-opacity=".3" stroke="#bdcdd3" stroke-opacity=".3" stroke-width=".5" d="m401 439 1.2-.2q-.2 1.2-1.6 1.2z"/><path fill="#5a8afa" fill-opacity=".2" d="M119 441q-.2 1-1.4.6z"/><path fill="#6190fd" fill-opacity=".5" d="M139.3 211q-.7 1-1.6 1 .3-1 1.6-1"/><path fill="#5a8dfd" fill-opacity=".5" d="m32.2 270 1 .4-1.3.6z"/><path fill="#b56baa" fill-opacity=".4" stroke="#b56baa" stroke-opacity=".4" stroke-width=".5" d="m336.1 277.8-.4 1.3-.6-.4a2 2 0 0 1 1-.9Z"/><path fill="#7ba1fc" fill-opacity=".3" stroke="#7ba1fc" stroke-opacity=".3" stroke-width=".5" d="m79.8 201.7 1.4.1-.2 1.1h-1z"/><path fill="#e2e9f0" fill-opacity=".1" d="m339.1 505.7 1.1.8q-1 .3-1-.8"/><path fill="#87adf7" fill-opacity=".5" d="M300 452q-.2 1-1.3 1 .5-.8 1.3-1"/><path fill="#598bf9" fill-opacity=".2" d="M101.3 455.3q-.4.5-1.2.8 0-1.1 1.2-.8"/><path fill="#5b8ef9" fill-opacity=".2" d="M220 189q-.2 1.1-1.3.7z"/><path fill="#96646c" d="M288.2 279q-.5.7-1.3 1 .4-.8 1.3-1"/><path fill="#729efb" fill-opacity=".5" d="M295.3 457.9q-.5 1-1.5 1.1.3-1 1.5-1.1"/><path fill="#578afa" fill-opacity=".2" d="M233.9 180q-.1 1-1.2.7z"/><path fill="#547bd0" d="M274 297q-.1.7-.8 1 0-.8.9-1"/><path fill="#e0b6d1" fill-opacity=".9" d="m285 304 1.1-.1q-.2 1-1.2 1.3z"/><path fill="#e67d8d" fill-opacity=".6" d="M397.2 366.6a4 4 0 0 1-1 1.7q0-1 1-1.7"/><path fill="#5989f9" fill-opacity=".5" d="M67.4 81q-.7.9-1.6 1 .5-1 1.6-1"/><path fill="#5880db" fill-opacity=".3" stroke="#5880db" stroke-opacity=".3" stroke-width=".5" d="M70.4 79 69 80q.3-1 1.4-1Z"/><path fill="#5981e5" fill-opacity=".3" stroke="#5981e5" stroke-opacity=".3" stroke-width=".5" d="m287 74.2 1.2.4-1 .2z"/><path fill="#bccfd4" fill-opacity=".2" stroke="#bccfd4" stroke-opacity=".2" stroke-width=".5" d="m483 483 .7-.3q.3 1.3-1 1.5 0-.6.3-1.1Z"/><path fill="#4d5d79" fill-opacity=".2" stroke="#4d5d79" stroke-opacity=".2" stroke-width=".5" d="M248.2 5.2q-.5.6-1.2.8.2-1 1.2-.8Z"/><path fill="#5789f2" fill-opacity=".4" stroke="#5789f2" stroke-opacity=".4" stroke-width=".5" d="m285 71.6.3 1-1 .1q0-.9.8-1.1Z"/><path fill="#5680dc" fill-opacity=".3" stroke="#5680dc" stroke-opacity=".3" stroke-width=".5" d="M237 71.7V73l-.9-.4q.2-.6.9-.9Z"/><path fill="#e3ecf1" fill-opacity=".2" d="M345.9 504.8q0 1.1-1.2 1z"/><path fill="#a7b6b8" fill-opacity=".4" stroke="#a7b6b8" stroke-opacity=".4" stroke-width=".5" d="m441 356.2 1.3-.2q-.6 1-1.6 1z"/><path fill="#e4ebf1" fill-opacity=".3" stroke="#e4ebf1" stroke-opacity=".3" stroke-width=".5" d="m340.2 498-.2.9-1 .4q0-1.3 1.2-1.3Z"/><path fill="#598cfc" fill-opacity=".7" d="m113.3 499-.3.8-1.3.2a2 2 0 0 1 1.6-1"/><path fill="#4d5c79" fill-opacity=".5" d="M337.6 5.4q1-.3 1.6.6-.9-.2-1.6-.6"/><path fill="#7082e4" fill-opacity=".2" stroke="#7082e4" stroke-opacity=".2" stroke-width=".5" d="m319.7 262.2.5.5H319z"/><path fill="#4d5c7a" stroke="#4d5c7a" stroke-width=".5" d="M28 5.3c-2 .9-5.9 2.4-8 1.7 2.7-1.6 4.8-3.1 8-1.7Zm49.2.6c-.6 1.7-4.2.4-5.5.6q-.6 0-.9-.7.1-.5.7-.6 3-1.2 5.7.7Zm20.7-1c.6 1.7-6.2 2.8-5.9 1a7 7 0 0 1 6-.9ZM45.2 16.2q-1.2 0-1.9.7-4.2 4.2-8 8.6.7.4 1.7-.2l7.8-4.4.5 52.3q-1.4-.6-2.6.2c-2 1.5-7.6 3.8-8.7 5.7-2.5-.2-9.6 5.4-12 6.5-2.9-1-5.4-5.5-5-8.4a306 306 0 0 1 16.6-11q.3-.3.3-.9c.7-.2 4.4-1 2.6-2.1q-2.1 0-2.6 2.1c-2.4-.2-3 1.1-4.7 2.4Q22.4 71 16.1 75c-1.5-2.4-1.8-8.4-2-11.3q1 .2 2-.4 5.7-4.5 11.8-9l1-1.3c.6-.3 3.7-1 2.6-2.1A3 3 0 0 0 29 53a6 6 0 0 0-2.5.8L13.8 61c.6-7.8-.4-20.5 1.8-27.5-1.5-11.4-1.9-21.4 12-22.9 2.8.4-1 2.3 1.7 2 3.8-2.4 10.7-1.7 15-1.6 1.2.7.6 3.8.9 5Zm32-4.6q-4.9 4.1-9.9 8 .7.6 1.7.1 6.4-4.2 13.3-7.8.4-.2.4-.8h12.7c1.1.9.5 2 .6 3.3L75 29.6q-.7.4-.8 1.2c-.9.4-2.8.7-3 1.8 1 1.3 2.6-1 3-1.8l1.8-.2L95.8 19q.6 29.1 0 58.2-.6.3-1 .9c-.1 1.4-3.1.3-3.7 2q-1 .3-1.2 1.3l-2.4 1.4c-.9.1-3.2.1-3.4 1.2l-1.4.4q-3 1.6-5.7 3.3L75.9 89q-1.4 0-2.2 1-7.1.4-14.2.3-1.5 0-2.3-1l.1-21.3 13-9.1q1-.6 1.6-1.7c.6-.4 4-1 2.7-2.1q-2.1.1-2.7 2.1-1 0-2 .3l-12.6 7.8c.3-16.4-.5-35 .5-51.1 2-4.9 15.6-2.7 19.4-2.6Zm48 0-16 11.6q-.4-5.2-.5-10.5 0-1 .8-1.5c4.3 0 11.8-.4 15.7.5Zm7.5-.4q6.9-.3 13.8 0c1.4.7.1 2.2-.6 3L109.2 41c-.8-2.9-.7-13.2 0-16.1a775 775 0 0 0 23-13.1q.4-.3.5-.7Zm30 0c3.6 0 14.6-.6 17.4.2A338 338 0 0 1 159.8 26q0-6.7.3-13.3c1.1.3 3-.2 2.6-1.7Zm28-.2q3.7-.1 7.5.4.7 2 .4 4.2 0 2-.6 3.7l-28.4 20-1.4 1.5q-1.7.4-3 1.6c1.6 1.4 2.8-.7 4-1.4q15-8.3 29.5-17.1c-.5 8.5.6 38-.7 44.2q-4.5 2.2-8.7 4.6l-1.5 1.3c-8.3 3.6-20 12-27.7 15-.1-6.8-1.1-58.3 1-60q14.5-8.1 29-16.5.6-.6.6-1.5Zm29 0h28.8q1.8.6 1.3 2.6 0 1.8-1.8 2.5-6.5 4.5-13.1 8.5-.8.4-.8 1.3-2.5 0-3.1 2.1a2 2 0 0 0-2 .8c.6 1 2 .2 2-.8q2.1-.2 3-2l2-.4q6.3-4 12.8-7.6 1 .6 1 1.7v45.7q-1-.3-1.9 0a146 146 0 0 1-11 6.4q-.6.3-.8 1c-4 1.2-22.4 13.2-24.7 13.2q-.6-35.1-.4-70.2a2 2 0 0 0 2 0c1.5-1.2 6.5-2.9 6.8-4.8Zm104.3.4c4.6-.6 9.3 1.2 13.3 3.4-5 2.2-18.6 12.8-24 16.5.5-2.7-.8-12.3.8-14 2-.4 9.1-4.2 9.9-6ZM11.1 12c-.2 1.6-2.8 4-4.1 5 0-2.9 2-3.8 4.1-5Zm289.7 1.7.4 49.2c-3 .2-12.8 7-16.1 8.6q-.9.3-.9 1.1c-7.1 3-15 8.3-22 12.2l.1-49.2c1.7 1.3 3.3-1.8 4.8-2.5zm39 4.2c5.3 3.3 3.4 17.5 3.2 22.8-4.6 2.8-15.1 12.4-20.2 16.2-1 1-4 2.5-3.8 4q-1.2-.2-1.9.7c.6 1 1.8.1 2-.6q2.5-1 4.5-2.3c5.3-3.3 15.9-8.7 20.3-12q.2 6.6.8 13.2c-2.4.6-6.5 5.8-8.7 7.4q-.9.7-.4 1.6 4.9-2.2 9.1-5.2a47 47 0 0 1-6.3 26q-.3.7-1 .8l-13.3-.8c-.2-1.7 4.6-4.8 3.3-5.7l-8.4 4.6q-.9.4-1.2 1.3c-1 1.2-3.6.5-4.4-.8 0-17.2-.6-39.7.6-56.3q13.1-7 25.9-14.9ZM147 21q.5 5.7.3 11.5c-.4 14 .8 28.3-.3 42.4-2.8 1.6-4.7 3.7-8 4.5q-1-.5-2 0l-17 9.9c-2.5 1-6.7.5-9.5.8q-.8.1-1.5-.6-.3-8.8.2-17.6 5-3.1 9.9-6.7 2.6-1.8 4.8-4c.8 0 3.8-1.2 2.7-2.2a3 3 0 0 0-2.7 2.2l-1.8.1q-6.4 4-12.9 7.7-.5-13.6-.1-27.3c3.4.6 32.8-17.8 37.9-20.8ZM17.8 29c.1 1.7 2 .8 2-.4q-1-.2-2 .4Zm321.9.8q.8.2 1.2-.4-.8-.4-1.2.4Zm-2 1.3c.3 0 2-.5 1-1q-.9.2-1 1ZM65 79c-1.3-.7-5 2.4-6.4 3a5 5 0 0 0-.7 4.2c0 .6.1 2.1 1.1 1.4a6 6 0 0 0 3-2.8l.3-1 1.6-.4q1-.4 1.4-1.4h.5q1-.1 1.6-1l1.6-1 1.4-1q3.2-1.8 6.1-4 8.7-6 17.3-12.4-.9-.6-1.8-.2C87.8 65.7 67 76 65 79Zm236.2-15-.5 17.8-13.5 7.7q.5.5 1.1.5 5.3-.3 10.5.3-.2.3-.5.4c-9.4 0-18.8-.6-28-.7 4.2-5 12.6-10 16.8-15.2q.6 0 1.1-.2 6-4.9 11.7-10.1.5-.6 1.3-.5Zm-51.4 1.7v23.6q-.4.8-1.3.8l-11.3-.2c.4-1.8 6-3.7 6.7-5.6-.5-1-1.3 0-2 .1l-8.6 5q.7.7 1.6 1L216 90c5.9-5.4 17-11.5 22-16.7q1 0 1.9-.7 4.8-3.6 9.8-6.9ZM316 73q-2 .4-2 2.5c.8 1.2 2-1 2.2-1.6 1.3.7 3.6-2.2 3.1-2.7A6 6 0 0 0 316 73ZM44.3 78h.4l.2 11.5q0 .8-.6 1.2c-4.6 0-12 1.2-16.2-.9q1.3-1.2 2.9-2.3l1.9-2.2c2.8-.4 8.3-6 11.4-7.3ZM96 82.2l.2 6.4q0 .8-.7 1.4H85.1c.6-1.6 9-6.6 10.8-7.8Z"/><path fill="#262627" stroke="#262627" stroke-width=".5" d="M118.9 5.7q3 .9 6.2 0c3.4.6 16 .7 19.5-.6h2.8c7.2 2 17.8.5 25.6 1.1a23 23 0 0 1 7 0l19.5-.1c3-.6 5.4-3 8.5-1.5 5 3 16 .7 21.9 1.7q3.6-.7 7.2-.1 5 0 9.9-.2.8-.2 1.2-.8h.8q1.7.1 3.3-.1 3.4-1.5 7-.7C262.7 7 265.8 6 269.7 6q1 0 1.5-1l.8.2h3.1c4 1.8 8.3.7 12.5.8q3.4.3 6.6-.4c5 2.1 11.3-1.2 16.3-.6 2.5 1 3 .8 5.4.2h3.5l13.1.6c1.5.3 4-1.5 5.1-.4q.7.5 1.6.6c7 3 15 5.5 16.2 14.5-2.2 21.6 12.5 64.3-15.7 73.7q-.6.6-.6 1.3l-.1 164q.3 2.4 2.8 1.8 1.5.9 3.5.6a54 54 0 0 1 37.1 20.2c15.8 21 18.9 41.8 16.6 67.4 0 1.8 1.7.5 2.7.5q1-.2 1.6-.8a89 89 0 0 1 49.1 0C503 366.6 523 412.2 499 461a4 4 0 0 0-1.6 4.4q-1 0-1.4 1c-3.6 5.8-8 11-12.3 16.4l-.7.4c-1.3.6-4 2.7-3.6 4.3q-1-.2-1.7.5l-1 .8a76 76 0 0 1-85.4 11.7q-8.2-4.2-16-9.3-6.6 4.3-13.9 7.9-5.8 2.5-12 4c-.6 0-2.5 0-2.1 1-1.2.2-8 1-8.2 1.7a272 272 0 0 1-40.5 1.3 828 828 0 0 0-26.8 0q-9 0-17.8-.2c-.7-.8-3.5-.4-4.5-.5q-1-.3-1.4.7c-2.9-1.3-15-.7-18.8-.7q-3.7-.2-7.6 0a838 838 0 0 0-32 .8c-38.9.7-77.8 1.9-116.7.7-1-1-2-1-3.3-.1A49 49 0 0 0 54 507c.6-1.6-5-1.2-6-1.3a40 40 0 0 0-8.7-.8q-3-1.2-6.3-1c-10.4-.2-13-11-13.8-19.5q.3-193.5.2-387 .1-1-.4-1.8-3.7-1-7.2-3c-17.2-10.8-7.5-47-9.3-64.2.4-4 2.8-7.8 4.6-11.5 1.3-1 4-3.3 4.1-4.9q.8-.7 2-1l1.1-1h.7q1-.3 1.4-1.1 1.8-1.2 3.6-2c2.2.7 6-.8 8.2-1.7A227 227 0 0 1 46.4 5c7.4-.5 17.6 1.7 24.4 1q.3.5.9.6c1.3-.2 5 1 5.5-.6C80 7.7 89 7.6 92 5.9c-.3 1.8 6.5.7 5.9-1 2.5.5 5-1.4 7.4-.5 4.1 2.6 9 2 13.6 1.3ZM13.8 61.1l.3 2.7c.2 2.9.5 9 2 11.3q-.4 1.4 1 2c-.5 3 2 7.4 4.9 8.4a7 7 0 0 0 6.1 4.3c4.1 2.1 11.6 1 16.2.9q.8-.4.6-1.2 0-5.8-.2-11.5l.6-1.1a8 8 0 0 1 0-3.8l-.5-52.3.4-4.7c-.3-1.2.3-4.3-.8-5-4.4 0-11.3-.8-15 1.6-2.8.3 1-1.6-1.9-2-13.8 1.5-13.4 11.5-11.9 22.9-2.2 7-1.2 19.7-1.8 27.5Zm43.5 4.1v24.1q.8 1 2.2.9a206 206 0 0 0 16.5-.3q4.5.8 9 0 5.3.3 10.4 0 .7-.5.7-1.3l-.2-6.4q.4-2.1.2-4.2l-.3-1q.6-29 0-58 .4-2.4.2-4.7c0-1.2.5-2.4-.6-3.2a158 158 0 0 0-18.2.4c-3.8 0-17.5-2.3-19.4 2.6-1 16.1-.2 34.7-.5 51.1Zm51.9-42.1q-.3.9 0 1.8c-.7 3-.8 13.2 0 16l-.2.8q-.4 13.6.1 27.4-.4 1.4 0 2.8-.5 8.8-.2 17.6.6.7 1.5.7c2.8-.3 7 .2 9.5-1 .1 1.5 3.1.8 4 .7q11.2.5 22.6.1.8-.4.8-1.3.2-6.9-.4-13.8c1.1-14-.1-28.5.3-42.4q0-5.7-.3-11.5c.4-1.4 1.5-7.2-1-6.9.7-.8 2-2.3.6-3q-6.9-.3-13.8 0c-2.2 0-5.6-.7-7.5.5-3.9-.9-11.4-.5-15.7-.5q-.8.5-.8 1.5 0 5.3.5 10.5Zm51-10.4q-.4 6.6-.4 13.3c0 .8-.2 3.3 1.3 3-2.1 1.6-1.1 53.1-1 60q.2 1 1.4 1.1 4.2.3 8.6-.3l16.6.6v-.2l2.5-.2 7.3.1a2 2 0 0 0 2-.9l.2-18.5a2 2 0 0 0-.5-1.7l-.2-1c1.3-6.1.2-35.7.7-44.2-.3-.8.6-4.7-.7-4.6q.6-1.8.6-3.7.2-2.2-.4-4.2-3.7-.5-7.5-.4-5.2-.2-10.6.4c-2.8-.8-13.8-.2-17.4-.3-1.3-.2-3.6-.4-2.6 1.7Zm50.8 3q-.1 35.1.4 70.2-.4 1.3-.4 2.6c-.3 2.6 3.7 1.5 5.1 1.5l18.8.4 2.3-.5q5.7.3 11.3.2.9 0 1.2-.8V19.6q.2-1.2-1-1.7 1.4-1.5-.7-2a3 3 0 0 0 1.8-2.4q.6-2-1.3-2.5l-36.9.1c-1.1.7-.4 3.4-.6 4.6Zm51.3 20q-.3 24.6 0 49.2c0 1.2-.6 4.1.4 5q3.8.6 7.5 0c9.3.2 18.7.8 28 .8q.4 0 .6-.4 1.7-.2 2.1-1.8a29 29 0 0 0-.2-6.8l.5-18.7-.4-49.2q.5-1.6-.4-2.7l-5.3-.3q-16.2 0-32.4.4-.6.5-.5 1.3zm51.8-18.6c-1.6 1.8-.3 11.4-.8 14q0 1.1.7 1.8c-1.2 16.6-.6 39.1-.6 56.3.8 1.3 3.3 2 4.4.8q3.1.5 6.3-.2l13.3.8q.7 0 1-.7a47 47 0 0 0 6.4-26.1l-.1-3.8q-.6-6.6-.8-13.3c-.2-1.6.3-4.7-.9-6 .2-5.3 2-19.4-3.1-22.7a6 6 0 0 0-2.6-3.3c-4-2.2-8.7-4-13.3-3.4q-5.1-.9-10.3-.1c-.8 1-.9 5.2.4 6ZM32 136.3q-.3 2.4-.2 4.6v17.2q-.1 5.4.2 11l-.2 1v4l.1 11.2-.2 2.7a201 201 0 0 0 .4 13q-.6 5-.2 10.3-.2 2.3-.1 4.7l-.1 11v5.9l.2 15.9q-.1 10.6.2 21.3l-.3 1a257 257 0 0 0 0 19.2v7.7l.2 22.1q0 .6-.3 1l.2 2.6a97 97 0 0 0 0 13.1q-.3 5.1 0 10.2v1q-.2 2.6-.1 5-.1 5.6.1 11.3a692 692 0 0 0 0 34.5q-.3 5 .1 10.3l-.2 1v5.9q-.1 5.6.2 11.3-.3 2.2-.2 4.6v17l.1 11.5-.1 3.6v11.3a18 18 0 0 0-.1 4.7q-.3 5.8 1.6 11.2c.7 1.5 1.9 4.2 3.5 4.7 6.2 6.4 22.1 3.2 30.3 3.7h1.5c3.6.6 15 .6 18.7 0q1.2.3 2.4.2a236 236 0 0 0 22 .2l1.2-.2a369 369 0 0 0 24.7.1q9.3.3 18.6-.1 2.6.4 5.3-.1c5.7.4 13 .5 18.5-.1q4.4.6 8.6.1c5.7.2 12.9.5 18.4-.2 5 .7 10.6.3 15.7.2q9 .4 18.3 0 3.4.5 6.7 0c5.6.2 13 .5 18.4-.1q2.3.3 4.4.1 9.3.4 18.6 0 4.3.4 8.5.2c1 0 2.4.5 3-.4q-.6-.6-1.6-.8l-4.8-2.6c-13.5-8.5-18.7-18.9-24.2-33.1-6.2-27-2.5-55.9-3.3-83.3q-.4-.8-1.3-.7a524 524 0 0 0-25.7.2 297 297 0 0 0-122.8 0h-2q-13.1 0-26.2.9-2.7-.2-5.5-.2l-1.4.1-11.8-2.2a3 3 0 0 0-2-1l-1.4.4q0-1-.8-1-1.5-.7-2.6-1.5-9.7-5.7-10.6-17 .2-2.1 0-4.3c.5-4.2 2-8.2 1.3-12.4l.1-1q.8-2.4.7-4.8.3-6.3-.1-12.4v-.7q.3-5.6-.7-11.1v-1l.2-1q-.9-10.6-1.4-21.3 0-1-.7-1.5.6-3.4-.2-7 .2-6-.3-12.3c-.1-1.7.2-5.3-.6-6.6l2.2-27.3q2-7.5 3.8-15.2.8 0 1-.8l.4-1.7q2-3 3.8-6.4c2.4-2.7 2.4-4.4 6.6-4.2.6.2 2.2.5 2-.6q4.8 0 9.2-1.1l1-.1 21-1.3c1.5.4 6.2 1 7-.6l42.4-.7a7 7 0 0 0 4.1-1q.5 1.6 2.1 1.5a2208 2208 0 0 0 46.1.2l1.2.3c1 1.2 4 .6 5.4.4a938 938 0 0 0 52.6 0q2.8.6 5.5 0 10.9-.9 21.8.1a6 6 0 0 0 4 1.2q0 .5.3.9 4.4 2.7 6.7 7.4 1 1.8 1.8 3.8a71 71 0 0 1 2.4 18.3q0 1 .6 1.7l-.2 1a9 9 0 0 0-.1 4.9q-1 6-.4 12.1l-.3 1-.2 4.8q-.2 4.3.3 8.5.4.6 1.2.3 3.2-1.5 6.5-2.7c.5 0 2 .1 2-.8 1-.1 4.1.2 4.1-1.5h1.3q3.2.2 6-1c.9-.9.3-2.3.5-3.5v-11.4c-.2-.9.5-5.5-.6-5.5.8-1.5.9-10.7.2-11.5q.6-3.3.4-6.7v-39.2c-.2-.8.5-4.5-.5-4.6.9-3 .5-8.3.3-11.5l.1-2.6v-11.4q.3-1-.4-1.5c.9-7 .3-16.1.4-23.4v-7.7a476 476 0 0 0 0-20c0-1.8.6-3.5-2-3.4q-15.7-.9-31.6 0a7 7 0 0 0-4.6.3H287a275 275 0 0 0-20.3 0 26 26 0 0 0-8.3-.2q-10.8-.9-21.6.2a6 6 0 0 0-5.5 0q-.7-.9-1.8-.7c-13.2.6-27.6-.7-40.5.6h-2q-.6-.7-1.7-.6-10.2 0-20.6.7-1.3-.7-2.8-.6c-7.4 0-16.9-.4-24.2.6a5 5 0 0 0-3.8-.4c-8-.1-17.3-.6-25.2.3a4 4 0 0 0-3.4.1q-3.4-.6-7-.6H32.8a2 2 0 0 0-1 2zM64.1 245a51 51 0 0 0 0 8 89 89 0 0 0 .4 15.1 399 399 0 0 0 1.3 23l.2 6q0 5.5.8 10.9-.2 3 .1 6 .5 11.1-1 22.2v5.8a120 120 0 0 0 .3 14.4 17 17 0 0 0 3.4 9q.5 1.6 2 2.6 4.8 4 11.2 4 3.6.4 7.1 0 8.6.3 17.1 0 7.4.4 14.8.1 8.5.3 17.1 0 5.5.3 11 .1a636 636 0 0 0 23.8 0q8.6 0 17.1-.2 5.6.3 11.2 0 8.9.3 17.8 0H263c1.6.5 5.1.3 3.3-2.2-.2-23-2.7-46.7 5.9-68.7q.9-1.4 1-3 .6-.3.9-1a56 56 0 0 1 14-18c1.5-1.2 4.6-2.6 4-5l-.3-6.2-.4-1.8q.7-5.5.7-11 .5-2 .6-4 .3-5.6 1-11V236a42 42 0 0 0-1.5-13.1q-.7-4.8-4-8.3a9 9 0 0 0-4.2-3.7c-1.9-2.8-10-3-13-2.7h-31.9l-17-.1h-12a400 400 0 0 0-19 .2 303 303 0 0 0-21-.1q-4.2-.4-8.1-.2a271 271 0 0 0-16.9.2l-3.2-.4-1.7.1-29.2.2-1.9.2q-8.5-.3-17.2-.1-6.3-.1-12.6.2c-13.1-.9-15 28-15 36.6Zm59 21c-.2-2.2 3.8-2.1 5.3-2.7a555 555 0 0 1 106-.1c1-.1 1.9 1 .8 1.6l-12.8 2c-31.8 3.7-64-1.2-96 .5q-2 0-3.4-1.2Zm198 3c-17 4.6-29.4 19.5-36.1 35l-.2 1.3q-1.4.9-.8 2.5-1.4.8-1.5 2.5-.6.8-.7 1.8c-1.1 4.4-3 9.7-3 14.1v.9a1 1 0 0 0-.7 1 151 151 0 0 0-1 35q-.2 2.6.6 5 0 5.1 1.3 10.2 0 .9.7 1.5 4.5.3 9.2 0 8.4.3 17 0 6.5.3 12.9 0a469 469 0 0 0 23.1 0l17.1-.2c8.2-8.3 16-16.8 26.3-22.5q1-1.1.9-2.5V341q.3-2.4-.4-4.7a43 43 0 0 0-1-16.3 55 55 0 0 0-3.3-12 30 30 0 0 0-2.2-4.9c-.8-2.3-2.5-7.3-4.7-8.4q.3-1.5-1-2.5a24 24 0 0 0-5.8-8c-1-1.6-3-4.2-4.8-4.8-1.3-2-6.9-6.4-9.4-6.4 0-1.7-5.8-3.4-7.4-3.8A32 32 0 0 0 332 267q-5.7-.2-11 2Zm-181 47.8a2 2 0 0 1 1.4-1.5c24-5.2 50.4-.6 74.9-2q2.6.6.8 2.5c-16.6 5.4-60 5-77 1Zm267.1 40.1a74 74 0 0 0-47.5 46.3l-1.1 3.9a79 79 0 0 0-2.7 17q0 2.1.2 4.1a44 44 0 0 0 1.9 14c.4 1.6.8 3.8 3.1 2.7q48-15.8 95.7-32.3 1.2-.4 2.4-.5l8.4-2.8c.6-.1 2.1-.2 2-1.1l1.2-.3q10.6-2.6 20.5-6.9c1-.7-1.5-4-1.5-5q-1.3-2.5-3-4.8c-2-4.7-8.6-13.8-12.9-16.2q0-1.6-1.6-1.6c-1-2.5-5.3-5-7.3-6.7q-2-1.2-3.9-2.6a55 55 0 0 0-11.4-5.1q-3.7-1.6-7.5-2.9l-1.2.2c-5-1.8-9.9-2-15-2.4-6.5.3-12.8.4-18.8 3Zm-128.1 58.3.1 2q-.4 2-.2 4l.2 23.1a48 48 0 0 0 3.6 17.1q.3 2.6 2 4.5 3.6 8.7 10.2 15.5 2 2.7 5 4.7 3.8 3.7 8.7 6.1 3.3 2.3 7 3.5a52 52 0 0 0 23.2 3.7l1-.4a49 49 0 0 0 28-12.3q.6-.4.5-1l-8.6-10c-14.2-19.4-16.5-36.8-15.7-60.2l4.3-14.4q2.4-6.3 5.1-12.4c-.9-1-11.8 0-13.8-.2q-2.2-.7-4.5 0l-4.2-.2h-46.3c-1.2.3-4.9-.5-5.5.6q-.4 13.1-.1 26.3Zm205.9-4.3-1.1.2q-.8.1-.7 1c-21.2 6-44.1 14.5-65.4 21.4q-6 2-12.1 4.5a17 17 0 0 0-3.6.9l-1.2.3-39.3 13.2q-.5.2-.2.8l3.1 7.1q1.4 2.7 3.2 5.1A39 39 0 0 0 377 477c.3 1.6 6.5 5.9 7.8 7.4l4.7 3.1q5 3.4 10.5 5.5 1.6 1.3 3.7 1a2 2 0 0 0 1.5 1.3 72 72 0 0 0 15.6 3.6 68 68 0 0 0 67.8-37.5c.5-2.5-2 0-2.8 0q0-.9.6-1.2c6.3-3.3 7.6-12 8.6-18.4q.4.1.6-.2-.3-.3-.6.2l-1.5.1q-3 1.5-5.8 3.4 0-.8.5-1.3 3.6-2 6.8-4.4c2.5-2 1.8-10 1.9-12.8l-.2-5.6q-.5-5.2-1.7-10.3c-.3-1-.2-2.8-1.6-2.6z"/><path fill="#5889f6" fill-opacity=".7" d="M48 505.8c.9.1 6.5-.3 6 1.3-2 .6-5.3 1.3-6-1.3"/><path fill="#5585ec" fill-opacity=".9" d="M33 504q3.1-.2 6.2 1c0 1.7-4 1.5-5 .6l-1-.8z"/><path fill="#848e92" fill-opacity=".8" d="M495.1 441.7q.1-.5.6-.2-.2.4-.6.2"/><path fill="#5882de" d="M266.3 369.7c1.8 2.5-1.7 2.7-3.3 2.2q1.4-1.5 3.3-2.2"/><path fill="#4d5d7b" fill-opacity=".3" stroke="#4d5d7b" stroke-opacity=".3" stroke-width=".5" d="M319.4 5.1q-1.8.3-3.5.1c.1-2 2.9-1.7 3.5 0Zm-.4 56c0 .7-1.3 1.6-1.8.6q.6-1 1.8-.7Z"/><path fill="#4d5c7a" fill-opacity=".4" d="m252.3 5-3.3.2c0-2 2.7-1.5 3.3-.1m22.8.2H272c0-1.7 3-1.9 3.1 0m-151.3 56a3 3 0 0 1 2.7-2.2c1 1-2 2.2-2.7 2.2"/><path fill="#5785e9" d="m316 72.9.2.9c-.1.7-1.3 2.8-2.2 1.6q0-2 2-2.5"/><path fill="#4f628a" fill-opacity=".6" stroke="#4f628a" stroke-opacity=".6" stroke-width=".5" d="m316.3 73.8-.3-.9q1.4-1.5 3.3-1.8c.5.5-1.8 3.4-3 2.7Z"/><path fill="#4d5c7a" fill-opacity=".5" stroke="#4d5c7a" stroke-opacity=".5" stroke-width=".5" d="M33.9 65.2q.6-2 2.6-2.1c1.8 1.1-2 1.9-2.6 2.1Z"/><path fill="#4e5c7b" fill-opacity=".3" stroke="#4e5c7b" stroke-opacity=".3" stroke-width=".5" d="M28.9 53.1a3 3 0 0 1 2.6-2.1c1.1 1.2-2 1.8-2.6 2.1Z"/><path fill="#4e5c7a" fill-opacity=".3" stroke="#4e5c7a" stroke-opacity=".3" stroke-width=".5" d="M339.7 29.8q.4-.8 1.2-.4-.4.6-1.2.4Zm-2 1.3q.1-.8 1-1c1 .5-.7 1-1 1Z"/><path fill="#4d5d7a" fill-opacity=".5" stroke="#4d5d7a" stroke-opacity=".5" stroke-width=".5" d="M231 28c0 .9-1.4 1.7-2 .7a2 2 0 0 1 2-.8Z"/><path fill="#4d5c7a" fill-opacity=".5" stroke="#4d5c7a" stroke-opacity=".5" stroke-width=".5" d="M17.8 29q1-.6 2-.4c0 1.2-1.9 2.1-2 .4Zm56.4 1.8c-.4.9-2 3.1-3 1.8.2-1.1 2.1-1.4 3-1.8Z"/><path fill="#4c5b7a" fill-opacity=".4" stroke="#4c5b7a" stroke-opacity=".4" stroke-width=".5" d="M234 25.8q-.9 2-3 2.1.7-2.3 3-2Z"/><path fill="#5888f3" fill-opacity=".3" stroke="#5888f3" stroke-opacity=".3" stroke-width=".5" d="m75.9 89 .1 1h-2.3q.9-1.2 2.2-1Z"/><path fill="#598bfa" fill-opacity=".8" d="m65 79-3.7 4.5q.4.5 1 .3 0 .6-.3 1-2 .8-4.1 1.4-.7-2.4.7-4.3c1.4-.5 5-3.6 6.4-3"/><path fill="#598cfc" stroke="#598cfc" stroke-width=".5" d="m236.2 72.7 1.9.6c-5 5.2-16.1 11.3-22 16.7-1.4 0-5.4 1.1-5.1-1.5q0-1.3.4-2.6c2.3 0 20.7-12 24.8-13.2Zm48 0 1-.1 1.7 1.6.2.6C283 80 274.5 84.9 270.2 90q-3.7.5-7.5-.1c-1-.9-.3-3.8-.4-5 6.8-4 14.8-9.2 22-12.2ZM188 74c0 1.1 1.4 1 2.2 1.2-4.9 3.7-16.4 10.7-20 14.7q-4.4.6-8.6.3-1.2 0-1.4-1.2c7.7-3 19.4-11.4 27.8-15Zm112.8 7.8q.5 3.4.2 6.8-.4 1.6-2.1 1.8-5.2-.6-10.5-.3-.6 0-1-.6 6.8-3.6 13.4-7.7Zm23.4 8.1q-3 .7-6.3.2.3-.9 1.2-1.3 4.2-2.5 8.4-4.6c1.4 1-3.5 4-3.3 5.7Zm-218.8 8.3q-3.3 2.1-6.3 4.5-.8.7-.7 1.6l-1.7-.2-4.4 3.7c.6 1.4 4.1-1.7 5-2.4l1.1-.6 9.5-5.3q.9-.4.9-1.4c7.9-1 17.2-.4 25.2-.3-5.3 2.6-13.3 9.5-19 12.8q-.8.4-.7 1.4-2.3-.1-3.2 2-1.2 0-2 .8c.7 1 2.1.2 2-.7q2.1-.4 3.2-2.1c2.2-.7 23.3-12.3 23.5-13.8 7.3-1 16.7-.6 24.2-.6q-6.8 4-13.3 8.7l-6.7 4.4q-.8.5-.8 1.4-2.2 0-3 2-1.4-.3-2 .6c.5 1 2 .4 2-.6q2-.3 3-2c2 0 6.7-3.5 8.7-4.4 1.9-1.7 14.9-7.7 15-9.5a253 253 0 0 1 20.5-.7q1-.2 1.7.5l-9 5.8q-.7.4-.9 1.3-2.3-.1-3 2a2 2 0 0 0-2.1 1c-1 .2-2.7.4-3 1.7 1 .8 2.8-.6 3-1.8q1.4.5 2-1 2.2 0 3.1-2a4 4 0 0 0 2-.3q4.5-3 9.4-5.6.5-.4.4-1c13-1.3 27.4 0 40.6-.6q1-.2 1.8.7l-29 18.6q-1 .5-1 1.5l-2.4.7c-1.9 1.4-9.3 5.2-9.9 7.1-1.9-.2-4 1.5-5 3q-2.2-.3-3 1.5c1 .8 2.5-.4 3-1.5 1.8.1 4-1.4 5-3 1.8-.1 9-4.3 10-5.7q1.5-.3 3-1.3l34-19.6q.7-.4.8-1.3 10.8-1 21.6-.2-.2.7-.8 1l-55 35.2-8 5.1q-1 .7-1.5 1.8c-1.6-.1-4.5 1.5-5.1 3q-2.3-.1-3 2-1.2-.2-2 .7c.7 1 2 .1 2-.7q2-.3 3-2c1.9.2 4-1.5 5.1-3q1 0 2-.5l9-5.2 62-35.9q.8-.4.6-1.3a275 275 0 0 1 20.3 0l-.3 1q-16.1 9.8-32 20.2c-1.3.6-5 2.4-5.4 3.5-2.1 1.3-8.2 4-9.2 6.1a7 7 0 0 0-5 3.2c-2-.1-4 1.4-5.1 2.8q-1.2 0-2.2.5-1.9 1.6.6 1.2 1-.6 1.6-1.7c1.9.4 4-1.4 5-2.8a8 8 0 0 0 5.1-3.2c2 .3 7.7-4 9.9-5q2.8-1.8 5.8-3.3l36.4-21q.9-.7.8-1.7 15.8-1 31.6-.1c2.6 0 2 1.6 2 3.4a19 19 0 0 0-4.3 3.1q-.9 0-1.6.6l-1.5 1.4q-.8.1-1.5.7l-1.7 1-1.2.7q-1 .8-2 1.3-.7.3-1 1a8 8 0 0 0-3.5 2.2 3 3 0 0 0-1.6.8l-2 1-1 1-3 1.7-3.4 2.5q-1 .2-1.7.8l-1.5 1.3q-.8 0-1.4.6l-3 1.8q-1 .8-2 1.2-.6.4-1 1a15 15 0 0 0-3.5 2.3l-1.5.7q-.9.7-2 1l-1 1-1.8 1-1.2.8-8 5.2-5 3q-.6.4-1 1-2 .9-3.5 2.3l-1.6.7-1.8 1.2q-.6.3-1.1.9l-3 1.7-1.8 1.2-1.2.8a24 24 0 0 0-3.6 2.5l-1.4.7-1.7 1-1.2.8q-1 .8-2 1.2-.8.3-1.1 1.1-1 .3-1.8.9l-1.2.8a16 16 0 0 0-3.4 2.5q-.9.1-1.5.7l-3 1.8q-1 .8-2 1.2l-1.1.8-3.4 2.6q-.9 0-1.6.5-.7.8-1.8 1.2l-1.1.7q-.9.8-1.9 1.3c-2.1 1.5-8.8 4.8-9.8 7q-1.4-.1-2.2 1-2 .2-3 2-1-.2-1.8.7c.6 1 1.9.2 1.8-.7q2.3 0 3-2 1.6.3 2.2-1c1.5 0 8.8-4.3 9.9-5.6l3-1.4 1.1-.5 1-.8 1-.5 2-1.2q.7-.2 1.2-.7l.7-.5 1.2-.7 4.2-2q.6-.4.8-1l1-.3 1.1-.8 5-2.7.7-.6q.8 0 1.4-.6l3-1.7.6-.3 1.3-.8 5-3 .8-.4 1.2-1 4-2q.6-.1.8-.8l.8-.4q.8-.2 1.4-.6l5-2.8.6-.6q.8-.2 1.5-.7l5-2.7 5.3-3.5q.9-.2 1.6-.8l4-2q.7-.2 1-.9l.7-.4q.8-.2 1.4-.6l5-2.8.6-.5 1.4-.7 4.9-2.8a26 26 0 0 1 4-2.2q.6-.3 1-1l.8-.3 1.2-.7 7-4 5-2.8.8-.5 1.3-.7q1.8-.9 3.4-2.4.9 0 1.6-.6l3.8-2.1q.6-.2 1-.8l.4-.4v11.4h-1l-1 .5q-1.8 1-3.4 2.6l-1.5.6-1.8 1.1-1.2 1a13 13 0 0 0-3 1.7 75 75 0 0 0-6.5 4.6q-.8 0-1.5.7a49 49 0 0 0-9.4 6.3l-1.6.7q-1 .7-2 1l-1 1-1.7 1-1.3.8-3 1.9a16 16 0 0 0-3.5 2.6q-.8 0-1.5.7l-2 1-1 1a14 14 0 0 0-3 1.7 66 66 0 0 0-6.5 4.6l-1.5.6a100 100 0 0 0-9.4 6.3q-.9.1-1.6.7l-1.9 1.1-1 1-3 1.7-1.9 1.2-1.2.8-3 2-.7.6-1.3.6q-.9.7-1.9 1.2l-1.2.8q-.7.7-1.7 1l-1.2.8-1.8 1.2-1.2.8-.8.6q-.7.2-1.3.7l-1.5 1.2q-.7.2-1.5.7l-1.7 1-1.2.8-2.2 1.2q-.6.3-1 .9-.6.8-1.7 1l-1.2.8c-.8 1.4-2.7 1.5-4 2.5l-11.7 7.4q-.9.5-.8 1.3-22.2.1-44.6-.1-1.5 0-2-1.4a7 7 0 0 1-4.2 1q-21.2 0-42.4.6-.3-.9-1.1-.3-3 .3-5.8.9L81 202.9l.1-1c1.4.2 23.9-15.4 27.2-17l8.7-5.6a2 2 0 0 0 1-1.2c1.4-.2 4.5-1.7 5-3.1 1.1-.1 2.9-.1 3-1.6-1-1-2.6.6-3 1.6-2-.3-4 1.6-5 3q-1 0-2 .5l-9 5.2q-14.6 8.3-29 17c-1.7 0-6.7 1.5-7.1 3.4q-1.2-.2-2 .6c-4.4-.2-4.4 1.5-6.7 4.2a5 5 0 0 0-4.3 4c-2.2-.5-22.2 12.7-26.1 14V216q1.2 0 2.2-.7l59-38q.7-.4 1-1.3c1.3-.2 4.6-1.5 5-3.1.9.3 4.1-.7 2.6-1.9q-1.8.3-2.7 1.9c-1.8 0-4 1.7-5 3a4 4 0 0 0-2 .6q-4.4 2.7-9 5.2-25.3 14.8-51 29.6-.2-5.2.3-10.3c1.4-1.3 3.9-2 4.7-3.9a8 8 0 0 0 5.2-3q2-.2 2.8-2 1.5.1 2-1.2a4 4 0 0 0 2.3-.3q1.9-1.6-.5-1.2-1.2.5-1.8 1.5-1.5-.3-2 1.1a3 3 0 0 0-2.8 2q-3.4.3-5.2 3.1c-1.6-.4-3.4 1.3-4.8 1.9q-.3-5.5-.3-11c3 0 16-10.3 19.8-12q.7-.6 1.5-1c1.5-1.2 9.5-5.4 10-7 1.5.4 2-1 3-2 .5.2 2.7-.4 1.4-1.1q-1.2 0-1.4 1.2-2.2 0-3 2l-1.4.1-7 4q-1 .6-1.7 1.5-1.5.3-3 1.4-1.3.7-2.5 1.8-7.8 3.9-15.5 8.4l-.2-11.3c3.3-.5 25-16.4 29.5-19.2q.4-.3.5-1 1.2 0 2.3-.8c1.5-1 4.2-2.3 5-4 .9.2 5.7-2 4.5-3-1.6.3-4 1.4-4.6 3a8 8 0 0 0-5 2.7 1175 1175 0 0 0-30.7 17.6l-1.2-.2q-.4-5.6-.2-11c2.3 0 32-21.2 33.9-24q2.4 0 3.2-2.2c.6.3 2.6-.2 1.5-1q-1 .1-1.5 1a4 4 0 0 0-3.2 2.2c-6.2 2.3-26.6 15-34 19v-12.2c2.9-.2 18.5-13.3 22.2-15.5q.7-.5.7-1.4l1.4-.2q2.5-1.5 4.7-3.4c-.9-1.5-4.1 1.7-5 2.5l-1.1.4-22.7 13-.1-36.8a2 2 0 0 1 1-2h65.4q3.5 0 7 .6ZM326.6 129c-.2 7.3.4 16.3-.5 23.4q-1-.2-2.1.4a2764 2764 0 0 1-44.4 27.5q-1.1.6-1.6 1.8c-2-.3-4.2 2-6 2.8q-.6.4-1 1.2-2.1.1-3 2-1.3-.2-2 1c-1 .3-2.7.5-3 1.6 1 1.3 2.7-.5 3-1.6q1.5.3 2-1a3 3 0 0 0 3-2c1.7.3 6-2.4 7-4a4 4 0 0 0 2-.5l14.1-8q15-9 30.3-17.7a8 8 0 0 0 2.3-2v11.4c-3 .7-20.8 12.9-25 15q-5.4 3.2-10.6 6.6l-8.1 4.9a3 3 0 0 0-1 1.4c-1.7-.2-4 1.4-5 2.8q-3 .7-5 3-.6.2-.6.7.4-.3.6-.7c1.8.2 4.2-1.3 5-3q3-.3 5-2.8 3-.9 5.4-2.5c1.5-1.1 4.8-2.3 5.6-3.8q5-2.2 9.8-5.1v-.1l23.7-13.8c.2 3.2.6 8.5-.3 11.5q-1-.2-2 .3c-3.8 2.9-33.4 20.4-34 22.2q-10.9-.9-21.8-.1c-1-1.4-4.1-1-5.5 0l-23.8.3q-1-1.5-2.6-1.1-1.6-.2-2.5 1-12 0-23.7-.2c-1.2-1.2-4-.8-5.4-.4l-1.2-.2c.5-1.2 10.6-6.5 12.4-7.5l.6-.8 1.5-.7q2-1.2 4-2.1.7-.2 1-.9l.8-.4q.8 0 1.3-.6l3-1.7.7-.3 1.3-.8.7-.6q.6 0 1.3-.6l3-1.7.7-.4 1.3-.7 5.7-3.3 1.3-.7 3.9-2.3q.8-.2 1-1 .4 0 .8-.3.7-.2 1.3-.6l3-1.7.7-.3 1.3-.8q3-1.6 5.6-3.6.8 0 1.3-.7 3.1-1.3 5.6-3.3.8 0 1.5-.6l5-2.8.8-.5 1.2-.7 5-2.8q2.8-1.5 5.4-3.5 1-.2 1.7-.8l3.9-2q.6 0 .8-.9l1-.2 1.2-.8 5-2.8.6-.5 1.3-.8a62 62 0 0 0 8.9-5q.6-.2 1.2-.7l.7-.6q.8 0 1.4-.7l3.8-2q.7-.2 1-.9l.8-.3 1.3-.7q2.6-1 4.3-3.2Zm-4.5 14.2q-2.3-.3-3.1 1.8-1.2-.3-2 .7c.6 1 2.1.4 2-.7q2-.1 3-1.8c.6.1 2.7-.5 1.5-1.2q-1.1 0-1.4 1.2Zm4.5 40.8v11.3c-8 4.5-17.7 10.8-25.4 16q-2.3-4.5-6.7-7.3-.4-.4-.3-.9c7-3.8 27.4-15 32.4-19.1Zm-164.7 12q-2.1.3-3 2.2-.6 0-1 .3.7.4 1-.3 2.3-.1 3-2.2a2 2 0 0 0 2-.6c-.6-.9-1.6 0-2 .6Zm-50.1 3c.3 0 1.8-.2.8-.8a1 1 0 0 0-.8.8Zm-1.9 1.2q.7.1 1-.5-.9-.7-1 .5Zm159 0q.3 1.1 1.2.4-.4-.6-1.2-.4Zm57.8 1.6V223c-2.8.9-17.4 10.3-19.5 12.3l-1.2-.3q-.6-.7-.6-1.7A71 71 0 0 0 303 215c4.1-1.5 19-10.4 23.6-13.4Zm-247.4 6.6q6.3-.3 12.6-.2-.5.8-1.2 1.2L73.6 219q-.6-.4-.1-1 3.1-4.5 5.7-9.6Zm48.7-.4h12.2q0 .7-.6 1a799 799 0 0 0-30.3 17.5l-.9-.4q-.1-.5.3-.8c1.8-1 18.8-16 19.3-17.3Zm34 0q4-.1 8 .2-.6.8-1.3 1.2-15 8.4-29.7 17.3-1 .6-1.9 0 .2-.8.8-1.1c7.8-5.3 17-11.6 24-17.6Zm48 .1h12q-1.4 1.4-3.3 2.4a4955 4955 0 0 0-58.7 34.1 2 2 0 0 1-2 0c.4-1.1 6.4-4.4 7.6-5.3l44-30.3zm29 0q6.5 0 12.9.2-37.5 21.8-75 43.2c-1.5.6-3.1 3.5-4.7 2q33-22 65.7-44.2a3 3 0 0 0 1.2-1.2Zm45 2.8q2.7 1.2 4.2 3.7a4714 4714 0 0 0-62.1 35.9l-1.4-.3q1.4-1.6 3.2-2.8zm-227 7q-1.7 7.6-3.8 15.2c-2.4-.2-17.9 9.5-21.2 11.3l-.2-11.4a3 3 0 0 0 2.3-.2zm235.2 5q.8 1.5.8 3.2-18.6 10.5-36.9 21.5-1-.1-1.2-1.2l35.1-22.6zm34.1 7c.7.8.6 10-.2 11.5-2.3-.4-17 10-19.9 12l-1-.2q-.5-6 .5-12.1c3 0 17.1-9 20.6-11.2ZM65.1 252.2l-1-.2a51 51 0 0 1 .1-7A184 184 0 0 0 86 232.3c.8-.6 2-.4 1.5.8-7 5-15.4 13.4-22.4 19Zm228.6-16.3v4q-15.4 8.5-30.6 17.5-1-.2-1.3-1.2zm33 10.9v11.4c-2.5.5-5 2.7-7 4l-.8.5c-1.3 0-4-.3-4.2 1.5q-1.3-.6-2 .8-3.2 1.2-6.4 2.7-.7.3-1.2-.3a68 68 0 0 1-.3-8.4c2.4.5 19.7-10 21.8-12.2Zm-34 4.1q0 2.1-.6 4.1l-32.2 18.5q-4.8 3.2-9.9 6.2-1 .4-1.9-.2a3376 3376 0 0 1 44.7-28.6ZM64.8 268q-.6-1.5-.3-3 9-5.2 17.5-10.8c1-.1 2-1.7 3-.7Q75 261 64.7 268Zm1.5 29q-.5-3-.3-6c4.8-1.2 31.4-17.8 38.1-21.2q2.6-2.1 5.7-3.5 2.1-.1.5 1.3-1.2.1-2.2.9l-40 27.8q-.9.5-1.9.8Zm-14.7-30q.5 6 .3 12.4c-2.2-.2-17 9.2-20 11V279c2.6 0 16.6-9.9 19.7-12Zm280.5 0-.7 1-20 11.6q-2 .3-.5-1a78 78 0 0 0 9-8q.8-.7 1.2-1.7 5.3-2 11-1.9Zm-40.8.9h.5l.2 6.1q-1 0-2 .6-28.5 16.4-57 33.2c-2.5 0-2.8 2.1-4.4 2.3q-.7-.9.3-1.6c20.1-12.4 39.8-26.6 59.3-39.8q1.5-.6 3.1-.8Zm-226 13.4L65 279q8.1-4.6 15.9-9.7 1-.4 1.8.3zm269.8-2.5.6.4a10 10 0 0 1 1.5 3.7c-3 1.8-17.8 11.3-20 11.2.2-1.5 15.6-13.3 18-15.3Zm-226.2 5 1.3 1.3L67 314q-.3-3 0-6zm-56.8 2.5q.8.4.7 1.5.5 10.7 1.4 21.3c-2.2-.7-18.2 9.6-21 11.3l-1.1-.2-.3-22q1.2.3 2.3-.3zm247 10.8v.7c-.7-.1-7.5 6.5-9 7a23 23 0 0 0-6 3q-.5-1.6.8-2.5 1-.3 1.2-1.3 5.5-3 11-6.3zm-26 1q0 1.6-1 3-.5 0-1 .3-4.5 2.8-9 5.2a87 87 0 0 0-8 5.2q-1.2.4-2-.2l18.9-12.9q1-.6 2.2-.6ZM66 342v-6q1-.1 2-.7c20.1-11.8 41.8-23.4 61.2-35.8a3 3 0 0 1 2.5-.3q-3.7 2.8-7.6 5.4zm-24-38q-2.2-.2-3 2-1.3-.3-2 1-2 0-3 1.6c1.1 1 2.5-.8 3-1.7q1.4.3 2-.9 2-.3 3-2c.5.2 2.7-.4 1.5-1q-1 0-1.5 1Zm258.2 13.3a9 9 0 0 0-4.1-.2q0-.6.5-1 7.2-3.6 13.9-8.2a2 2 0 0 1 2.2-.3q0 .7-.6 1-6 4-11.9 8.7ZM53.1 311l.8-.1q1.2 5.5.7 11.1a2 2 0 0 0-1.6.2l-21 12q-.3-5.2 0-10.6c3.6-1.2 16.8-10.2 21-12.6Zm68.8 61H107q0-.6.5-.9c28-15.6 57-32.3 84.4-48.8q.9-.3 1.8.2c-.2 1.3-2.2 1-3 1.9Q157 347.7 123 370.7q-.9.5-1.2 1.3Zm-67.3-49.3q.6 6.1.1 12.4c-3 .6-17.8 9.7-21.5 12l-1.1-.2q-.4-5.1-.1-10.2c1.8.4 18-11 21-12.4q.7-1 1.6-1.6Zm11.7 33.4-.4-4 2.1-.8c16-9.3 32.4-18.2 48-28.1.6-.3 2.4-.6 1.7.7zm5.4 11.7a6 6 0 0 1-2-2.7q.7-.8 1.7-1.4l38.6-22.2q5-3.3 10-6.2 1-.4 1.9.2c-.4 1-4 2.4-5 2.8q-.6.9-1.4 1.6-4.5 2.4-8.9 5.1-17.5 11.3-34.9 22.8Zm229.2-17.1q.9-2 1.3-4l13.8-8.6q1.3-.9 2.8-.7l-15.2 11.7q-1.3 1-2.8 1.6Zm-151 21.3H139q0-.7.6-1c18.7-10.7 38.2-21.5 56.4-32.8q1-.4 1.9.2l-47 32.1a2 2 0 0 0-1 1.5Zm-97-31.3 1 .2c.7 4.2-.7 8.2-1.1 12.4a2 2 0 0 0-1.8 0q-9.4 5.7-19 10.9-.2-5.7-.1-11.3 1.2.6 2.4-.3zm79 2q1 0 1.2.9l-43 28.2q-3.6.4-7.2 0 .4-.8 1.1-1.3zm70.2 29.1q-5.6.3-11.2 0 .4-.9 1.2-1.2 21.7-12.2 43-25 .7-.8 1.7-.2zm-28.3.2h-7q.3-.7.8-1 12.7-7.5 25.5-14.6 3.8-2.8 7.9-5.2 1-.3 1.7.3l-27.7 19q-.9.4-1.2 1.5Zm116 6.2q.1-2.3.7-4.4l9.4-5.7q.9-1 1-2c7-4 14.4-8.1 21.1-12.6q1-.6 1.7 0L292 377.2q-1 .7-2.2 1ZM52.7 357.7q.7 11.3 10.6 17C57 377 39.2 388.4 32 392.2v-21.4c2 0 19.3-11.1 20.7-13Zm228.2 8q-1.2 1.5-3.1 2.3-.8-2.4-.5-5 2.4-1 4.7-2.6c.6-.3 2.3-.7 1.4.6a19 19 0 0 0-2.5 4.7Zm55.9-3.5q0 .8.6 1.5c-3.4 4-9.5 8.3-13.7 11.6a5 5 0 0 0-3.5-3.7q0-.4.4-.6zM234 364.6l1 .5-7.9 6.9-7.2-.1q1.4-1.5 3.2-2.3 0 1.2 1.2 1.2 2.4-1.5 5-2.8 2.2-2 4.7-3.4ZM66.7 377.2l1.3-.4c-.2 1.3 1.3 1.3 2 1l12 2.2-.2 1-46.5 26.7q-1.2.6-2.1 1.6l-1-.2q-.5-5.3-.2-10.4c2.8-.5 29.1-18.2 34-21q.5 0 .7-.5Zm48.3 2-83 48.2q-.2-5.8-.1-11.4 1.1.2 2.2-.3l54-34.3q.5-.5.7-1.3 13.1-.7 26.2-1Zm27 0q47.1-.6 94.2 0-4 2.6-8 5.6a78 78 0 0 0-8.2 4.8 2 2 0 0 0-1 1.3c-1.6 0-4.6 1.6-5 3.2q-2.2-.3-3 1.9a2 2 0 0 0-2 .7c.7.9 1.7 0 2-.7a4 4 0 0 0 3-2c1.9 0 4.2-1.4 5-3 2.2 0 7.4-3.9 9.6-5q.3-.4.1-1 1.3.2 2.4-.3l7-4q1-.6 1.7-1.5a524 524 0 0 1 25.7-.2q.9 0 1.3.7c.8 27.4-2.9 56.3 3.3 83.3q-2.8 1.2-5.2 2.8l-57.8 33.7c-5.5.7-12.7.4-18.4.2q1-.8 2.4-1.2 15.4-10.5 30.4-21.4c3-1.5 6.2-3.6 8.4-6a3 3 0 0 0 3-2.2q1.2.3 2-.6c-.6-.9-1.7 0-2 .6q-2.1.3-3 2.3-1.3 0-2.5.6l-45.7 26.5q-.9.5-1.6 1.3c-5.5.6-12.8.5-18.5.1 9.9-5.6 19-12.7 28.8-18.6q.7-.7 1.6-1.1c1.4-.9 4.5-2.4 5-4 1.6 0 4.4-1.6 5-3 1-.4 2.7-.4 3-1.6-1-1-2.7.4-3 1.5-1.8-.1-4.2 1.5-5 3.1-2.2-.3-4.2 2.2-6.3 2.9q-.7.6-1.7 1.1l-32 18.5q-.7.4-.6 1.3-9.4.4-18.6.1a2884 2884 0 0 1 51.3-33.6q.7-.5 1-1.2 2.2-.1 3-2.1a2 2 0 0 0 2-.7c-.7-.9-1.8 0-2 .7q-2.1.1-3 2-1 0-2 .5-4.2 2.4-8.1 5.1-1.5.5-2.9 1.4l-46 26.6q-.8.5-.7 1.4-8.7 0-17.3-.2l.3-.7q5.3-4 11-7.4a203 203 0 0 0 13.7-8.4 2 2 0 0 0 1-1.4q2.1.2 3-1.9 1.2.2 2-1 2.1-.1 3-2a2 2 0 0 0 1.9-.7c-.6-.9-1.7 0-2 .6q-2.1.1-2.9 2.2-1.4-.3-2 1-2.1 0-3 1.8c-2.1 0-5.4 2.4-7 3.7a120 120 0 0 0-9.1 4.9q-.6.8-1.4 1.3l-12.5 6.8a2 2 0 0 0-.8 1.3q-9.2.3-18.4-.1L96 496q7-4.2 13.9-8.7.7-.4 1-1.2c1.4-.3 4.7-1.5 5-3.2a3 3 0 0 0 3-1.8c.5.1 2.9-.4 1.6-1.2q-1.3 0-1.7 1.2-2 0-3 1.8c-1.9 0-4 1.7-5 3.2q-1-.2-2 .3l-14.2 8.3-6.8 4q-.7.1-.6 1c-3.6.5-15 .5-18.6 0 1-.5 5.2-2.3 4.9-3.3 2-.3 7.5-3.6 8.4-5.3 1.5.2 6.2-2.8 7-4q2.1-.4 3-2.2 1.2.3 1.9-.7c-.6-.8-1.6.1-1.9.7q-2.2 0-3 2.1-1.2-.2-2.1.4c-1.3 1.2-4.4 2-4.9 3.7-2.1-.3-5.6 2.9-7.7 3.7q-1 .4-1.3 1.5c-1.3-.6-3.8 2-5.1 2.2q-.8.3-.7 1.1c-8.2-.5-24.1 2.7-30.3-3.7 1.6.1 5.7-3 7-4.2q.8 0 1.5-.7l1.7-1 1.2-.7q1-.8 2-1.3.6-.3 1-1a10 10 0 0 0 3.5-2.3q.8 0 1.4-.6l3-1.9 3.1-2q1.8-1 3.5-2.4.8-.2 1.5-.7.9-.7 1.9-1l1.2-1 2.9-1.8a156 156 0 0 1 11-7q.8-.7 2-1.2.6-.4 1.1-1 1.9-1 3.5-2.3.8-.2 1.4-.8l3-1.8 2-1.1a2 2 0 0 0 1-1.1q1-.3 1.8-.9l1.2-.8.6-.6 1.5-.7q.8-.6 1.8-1 .7-.4 1-1l2-.9q.8-.3 1.1-1l3-1.8.7-.6q.8 0 1.4-.6l1.4-1.3q.8 0 1.4-.7l3-1.8 1.9-1.2 1.2-.8 1.8-1.2 1.2-.8.6-.6 1.4-.6q.8-.6 1.8-1l1.2-.8q.8-.9 2-1.3a2 2 0 0 0 1-.9l2-1.5q1.4-.5 2.7-1.2 5.4-3.7 11-7 .8-.6.8-1.3c1.6-.1 4.8-1.6 5.2-3.2 1 .2 4.2-.6 2.6-1.9q-1.7.2-2.6 2a8 8 0 0 0-5.2 3 3 3 0 0 0-1.8.5l-19.3 11.2-1 .5-1 .7-5 2.9-.6.5a68 68 0 0 1-11.4 6.4l-.7.6-1.3.7a32 32 0 0 0-5 2.7l-.8.6q-.6.2-1.2.7l-3 1.6-.7.4-1.3.8-.7.5q-.8.2-1.4.7-1.9.9-3.4 2.3-.7.1-1.5.5-2 1.2-4 2.1-.7.4-.9 1l-.9.3q-.7.2-1.2.7l-5 2.8-.8.4-1.3.8q-1.8 1.2-3.8 2.1l-1.1 1q-3 1.2-5.4 3.3-.8 0-1.6.6l-4 2q-.6.3-.8 1l-1 .4-1.2.7a31 31 0 0 0-5.7 3.3l-1.3.7-3.7 2-1.3.7-5 3-.7.5q-.8.3-1.4.8a7 7 0 0 0-4.2 3.2 27 27 0 0 1-1.6-11.2 4 4 0 0 0 2.2-.4l66.4-41.8 13-8q1-.6 1.5-1.7 3.3-.4 5-3.2c1.3.3 4.9-1.7 5-3 .6.3 2.7-.3 1.6-1a2 2 0 0 0-1.5 1c-1.8 0-4 1.6-5 3a8 8 0 0 0-5.1 3.2q-1 0-2 .3l-14 8.2-1.4 1.2q-33 18.5-65.6 37.5V464a3 3 0 0 0 2.2-.2l68-42.5q.7-.4.7-1.2a8 8 0 0 0 5.2-3q2.1 0 3-2c.5.1 2.9-.4 1.6-1.2q-1.3 0-1.6 1.1-2.1.3-3 2a7 7 0 0 0-5.2 3q-.9 0-1.8.4l-14.1 8.1q-.6.9-1.4 1.3-27 15-53.5 30.6-.2-5.7-.1-11.4c2 .7 3.6-1.2 5-2.3q.8-.2 1.3-.7 1-.4 1.8-1l1.2-.7 1.9-1.2 1.2-.8q1.9-1 3.5-2.6.8 0 1.5-.7l3-1.7a17 17 0 0 0 3.5-2.6q.8 0 1.5-.7l1.7-1 1.2-.8 3.1-2q2-1 3.5-2.5.8 0 1.5-.7l3-1.7 2-1.4q.7-.2 1-1 2-.6 3.6-2l1.4-.8 1.8-1 1.2-.8L84 417l1.2-.8.7-.5q.8-.2 1.4-.8l1.9-1 1-.9 1.8-1 1.2-.8L95 410q.8-.3 1.2-.8l.7-.5 1.3-.7q.8-.6 1.8-1l1.2-.8 1.8-1.2 1.2-.8q2-1.1 3.6-2.5.8-.3 1.3-.7.9-.7 1.9-1l1.2-.8a41 41 0 0 1 7-4.5l8-5 1.7-1.6c3.5-1 4-2 6-4.5 2.4-1 6.7-1.2 7-4.6Zm189.1 9 4.2.1q0 1 1 1.4-.4 1-1.3 1.6l-17.1 9.8c-1.2.6-2.2 2.7-3.5 1.2q8.7-6.6 16.7-14.1Zm-31 97.8q-3-2-5-4.7l32.3-18.5c2.3-1.3 4.9-3.4 7.2-4.4q2 0 .5 1.2l-5.5 3.5zm30-4.5 1-.8 1.9.6q-8.2 7.5-17.1 14.3-3.9-1.2-7.1-3.5a98 98 0 0 1 17.4-10l-1 1.4q.6.4 1.2 0 1.7-1.2 3.7-2Z"/><path fill="#598bfb" fill-opacity=".4" stroke="#598bfb" stroke-opacity=".4" stroke-width=".5" d="M37 307c-.5.8-1.9 2.6-3 1.6a3 3 0 0 1 3-1.7Z"/><path fill="#5a8bfd" fill-opacity=".5" stroke="#5a8bfd" stroke-opacity=".5" stroke-width=".5" d="M111.8 199q.1-.7.8-.9c1 .6-.5.9-.8.8Z"/><path fill="#598cfe" fill-opacity=".2" stroke="#598cfe" stroke-opacity=".2" stroke-width=".5" d="M69 132q-.8 2.2-3.2 2.1A4 4 0 0 1 69 132Z"/><path fill="#f0dfea" d="M290.2 304.7c-1.5 2.2-5.2 4.8-7.3 6.4l-.3-.9q.2-1.7 1.5-2.5a23 23 0 0 1 6-3"/><path fill="#76787e" d="M70.9 204c.1 1.2-1.5.9-2 .7q.8-.7 2-.6"/><path fill="#91949b" d="M204.9 201.3c1.4-.4 4.2-.8 5.4.4-1.4.3-4.4.8-5.4-.4"/><path fill="#565d6d" d="m107.9 200.7 1 .3c-.7 1.7-5.4 1-6.8.6z"/><path fill="#4d5d7c" stroke="#4d5d7c" stroke-width=".5" d="M198.2 69q.6.7.5 1.7l-.1 18.5a2 2 0 0 1-2 1l-7.4-.2 2.7-2.7q-.4-.6-1.2-.3-2 1.3-4 2.1-.6.6 0 1.2v.1l-16.7-.6c3.6-4 15.2-11 20-14.7q4.2-3 8.1-6.1Zm-51.3 6q.6 6.7.4 13.7 0 .9-.8 1.3-11.2.4-22.6 0c0-1.2 1.4-1 2.1-1.5l11.4-7.7a4 4 0 0 0 1.5-1.4c3.3-.8 5.2-2.9 8-4.5Z"/><path fill="#fefeff" stroke="#fefeff" stroke-width=".5" d="M78 200.7q.7 1 1.8 1l.2 1.3q-4.5 1-9.1 1c.4-1.8 5.4-3.4 7.2-3.3Zm1.3 7.6a77 77 0 0 1-5.8 9.6q-.5.6 0 1l17.2-9.6q.8-.4 1.2-1.2 8.7-.2 17.2 0a11 11 0 0 1-2.7 1.8q-.4 1.2 1 1.1c.6-1 4-1.7 3.6-3l17-.1c-.5 1.3-17.4 16.3-19.3 17.3q-.4.3-.3.8l-.6 1.1q-.8.3-1.5.9-1.2 0-1.5 1.2-2.7 2.4-5.8 4.3-.6.4-.8 1.2c-1 1-1 1 0 0l1.8-.1q15-8.8 29.6-17.7 1 0 1.7-1l1.7-.9q.9-.3 1.3-1l.5-.1q1-.1 1.4-.9.8-.3 1.5-1 1 0 1.6-1h.5q1 0 1.2-1 2.4-.2 4.1-2a271 271 0 0 1 16.9 0c-7 5.9-16.3 12.2-24 17.5q-.7.3-.9 1.1 1 .6 2 0 14.6-8.9 29.6-17.3.8-.4 1.3-1.2 8.5-.3 17-.2 0 .7-.5 1l-24.3 16.5c1.4 1.3 2.5-.6 3.7-1.3l24-13.8q.8-.5 1.4-1.5 1.3.4 1.8-.8h17q-.1.5-.6.9l-43.9 30.3c-1.2 1-7.2 4.2-7.5 5.3a2 2 0 0 0 1.9 0q29.2-17.3 58.7-34.1 1.8-1 3.3-2.4h17a3 3 0 0 1-1 1.2l-65.8 44.2c1.6 1.5 3.2-1.4 4.7-2l75-43.2q8.1-.2 16.1-.1a50 50 0 0 1-6 4.6c.5 1 1.3.3 2.1.2q2.9-2.4 6.4-4 .5-.2.5-.8c3-.3 11.1-.1 13 2.7l-56.1 36.5a13 13 0 0 0-3.2 2.8q-.9-.3-1.8.2-4.8 3.3-10 6.3-.6.3-.8 1 1 .8 2 0 6-3.8 12-7.3l62-35.8q3.4 3.5 4 8.3-1 .3-2 1l-35.2 22.5-17 10.3q-.7.2-.8 1 1 .8 2 0 8.3-5.3 17-10.1 18.3-10.9 36.9-21.5 1 5 .7 9.9l-49.6 31.7c1.5 1.3 2.6-.8 3.8-1.4l15.2-8.8q15.1-9 30.5-17.5-.6 5.6-.8 11a3376 3376 0 0 0-44.7 28.6q.8.6 2 .2 5-3 9.8-6.2 16.2-9.1 32.2-18.5a77 77 0 0 1-.8 12.8q-1.6.2-3.1.8c-19.5 13.2-39.2 27.4-59.3 39.8q-1 .7-.3 1.6c1.6-.2 1.9-2.3 4.4-2.3q28.5-16.8 57-33.2 1-.5 2-.6c.7 2.5-2.4 3.9-3.8 5.1q-.9.1-1.3 1a56 56 0 0 0-12.8 17q-.9.2-1 1-1 0-2.1.6l-18.8 12.9q.8.6 1.8.2 4-2.8 8-5.2 4.6-2.4 9-5.2l1.2-.3c-8.6 22-6 45.6-6 68.7a9 9 0 0 0-3.2 2.2h-35.9q4-3.2 7.9-6.8c.6-.3 2.8-1.3 2.7-2q1-.3 1.1-1.1 1 0 1.3-1 .8-.4.9-1l1.2-.2c.7-.1 2.5-1.2 1.4-1.9q-1 0-1.5.9-1 .3-1.1 1.1l-.8.2a2 2 0 0 0-1.4 1h-.8q-1.2.4-2 1-1.4.6-2.3 1.8-.9 0-1.8.5l-12 7.5q-9 .3-17.8 0l34.7-26.4q-.9-.5-1.8.1-21.1 13-42.9 25-.8.4-1.2 1.3-8.6.3-17 .2.2-1 1-1.5l27.8-19q-.7-.6-1.7-.3-4 2.4-8 5.2L167.7 371q-.6.4-.7 1-8.5.2-17 .1a2 2 0 0 1 1-1.5l47-32q-.8-.8-2-.3c-18.1 11.3-37.6 22-56.3 32.8q-.5.3-.6 1H122q.3-.9 1.2-1.4l67.8-46.3c.7-.9 2.7-.6 3-1.9q-1-.5-2-.2a2999 2999 0 0 1-84.3 48.8q-.5.3-.5.9-8.6.2-17-.1l43-28.2q5.3-2.8 9.9-6.3-.5-.7-1.3-.4l-9.7 5.8-48 27.8q-.7.5-1 1.3-6.4 0-11.3-4 17.3-11.5 35-22.8 4.3-2.7 8.8-5.2.8-.6 1.4-1.5c1-.4 4.6-1.8 5-2.8q-1-.6-2-.2-5 3-9.9 6.2l-38.6 22.2q-1 .6-1.7 1.4a17 17 0 0 1-3.4-9Q91.8 340 117.7 324c.7-1.3-1.1-1-1.7-.7-15.6 9.9-32 18.8-48 28q-1 .6-2 .9-.3-5 0-10.3l58-37.2q4-2.6 7.6-5.4a3 3 0 0 0-2.5.3C109.7 312 88 323.6 68 335.4q-1 .6-2 .7 1.5-11.1 1-22.2a3777 3777 0 0 0 55.8-37.4q-.8-.6-1.9-.2-5.9 3.8-12 7.3L67 308a65 65 0 0 1-.7-10.8q.9-.2 1.8-.8l40-27.8q1-.7 2.2-1 1.6-1.4-.5-1.2-3 1.4-5.7 3.5c-6.7 3.4-33.3 20-38.1 21.3q-.7-5-.6-10l17.5-11.5q-.7-.7-1.8-.3-7.8 5.1-16 9.6l-.4-10.9q10.2-7.1 20.2-14.5c-.8-1-2 .5-2.8.7q-8.7 5.6-17.6 10.8-.5-6-.1-12.1.5-.2.8-.7c7-5.7 15.3-14 22.4-19 .5-1.3-.7-1.5-1.5-.9A184 184 0 0 1 64.2 245c0-8.6 2-37.5 15-36.6Zm-17 .6-3.9 6.4-.5-2.4q.9-3.3 4.3-4Zm60.8 57q1.5 1.5 3.4 1.3c32-1.7 64.2 3.2 96-.5l12.8-2c1-.6.3-1.7-.8-1.6a555 555 0 0 0-106 .1c-1.5.6-5.5.5-5.4 2.8Zm17.1 50.8c17.1 4 60.5 4.4 77-1q1.8-2-.7-2.5c-24.5 1.4-51-3.2-74.9 2a2 2 0 0 0-1.4 1.5Zm155.9.4q2-.4 4.1.2l-23 18.6 1-8q.7-.1.7-1a4 4 0 0 0 3.3-1.8q1.5.3 1.8-1.1 1.4.2 1.7-1.2 2.3.1 3.5-1.7 1.4 0 1.7-1 1.5.1 1.8-1.3 1 0 1.6-.7 1.2.2 1.8-1Zm-7 23.8a54 54 0 0 1-12.4 9.2l.1-3.2c3.4-.9 9.4-5.9 12.4-6Zm13 5.9q-.3 2-1.3 4-9.5 8-19.9 15a19 19 0 0 1 2.5-4.8c.9-1.3-.8-1-1.4-.6q-2.2 1.5-4.7 2.7l-.3-2.2q12.4-7.2 25.2-14.1Z"/><path fill="#6a99fb" fill-opacity=".3" d="m242 358.8.2 1-1.2.1q.2-.9 1-1.1"/><path fill="#c1d4fe" fill-opacity=".5" d="m242.2 359.8-.1-1q.5-.9 1.5-.9c1.1.8-.7 1.8-1.4 1.9"/><path fill="#fff" fill-opacity=".4" d="M98.2 234.7c-1 1-1 1 0 0"/><path fill="#f9536b" stroke="#f9536b" stroke-width=".5" d="M332 267q7.4-.6 14.3 2.1a256 256 0 0 0-11.2 9.6c-2.3 2-17.7 13.8-18 15.3q-.6 0-.6.7.4-.1.7-.7c2.3 0 17-9.4 20-11.2 2.4-1.3 16-8.3 16.5-10 2.5.1 8 4.5 9.4 6.5q-1-.2-1.8.4-18 14.5-36 28.7c1.6 1.5 3.2-1.3 4.7-1.8q18.6-10.5 37-21.3.7-.4 1-1.2c2 2 4.8 5.2 5.7 8q-7.7 5.4-15.2 11-1.6.3-2.4 1.7c-.9.4-2.7.7-3 1.8 1 1.6 2.3-1.2 3-1.8l5-2 13.5-8.2c2.3 1 4 6.1 4.8 8.4a1951 1951 0 0 1-38.4 28.6q-.7.5-.7 1.3c-.7.4-3.5.9-2.8 2.1q1.6-.6 2.8-2l1.8-.3q19.3-11.6 39-22.7l1-.2q2 5 2.8 10-1 0-2 .5-10.8 8.3-21.9 16.2-.7.5-.9 1.4-2 0-3 1.8c1 1.1 2.6-1 3-1.8 4.5-1.3 20.5-11.3 25.7-14.3q1 6.3 0 12.6c-2.8 1.2-11.6 9.3-14.7 11.6l-3 2.3a5 5 0 0 0-2.7 2.3c1.2.8 2.2-.5 2.8-1.4q1.5-.5 3-1.7l.8-.3 14.2-8.1.1 13.6q0 1.5-.9 2.5c-10.4 5.7-18.1 14.2-26.3 22.5q-8.6.3-17 .2.7-1.3 1.7-2.5c1.6.1 4.7-2.6 5-4 .6-.4 3.7-1 2.7-2.3q-2 .4-2.7 2.2-2.7.2-4.5 2.2-1 .2-1.9.6-3.2 1.8-6.3 3.9h-17.2l4.8-4.5c4.2-3.3 10.3-7.7 13.7-11.6 1.5.5.8-2 2.7-1.6a6 6 0 0 0 2.7-3c.7-.3 3.7-.9 2.7-2.1q-2.1.1-2.7 2.2c-1.4-.6-2.8 1-4 1.5a4 4 0 0 1-2 1.5l-16.2 8.8q-.4.1-.4.6-7.2 3.9-14.2 8.1h-17q.6-.5.8-1.4 1.2-.4 2.1-1 16-11.8 31.8-23.8-.9-.5-1.7 0-10.2 6.8-21.2 12.6-10 5.6-19.7 11.4-1 .5-2 .7-1.2-5.1-1.3-10.2a8 8 0 0 0 3.1-2.3q10.4-6.9 20-15 1.4-.5 2.7-1.5 7.6-6 15.2-11.7-1.5-.2-2.9.7-6.8 4.4-13.7 8.6-12.7 6.9-25.2 14.1l-.3-10.8c1.8-.7 11.9-7.5 12.5-9.2 1.7.5 4.6-2.2 5.7-3.4-.8-.7-6.1 2-5.7 3.4-3 .1-9 5.1-12.4 6q-.1-5.6.4-11l23-18.6q5.8-4.6 12-8.7.5-.3.5-1a2 2 0 0 0-2.2.3q-6.7 4.6-13.9 8.2-.5.4-.5 1-1.5-.3-1.8 1a2 2 0 0 0-1.6.7q-1.4 0-1.8 1.3-1.4-.5-1.7 1-2.3-.1-3.5 1.7-1.4 0-1.7 1.2-1.4-.1-1.8 1-1.8.3-3.4 1.1c.1-4.4 2-9.7 3.1-14a2 2 0 0 0 1-1c2.1-1.6 5.8-4.2 7.3-6.4 1.4-.5 8.2-7.1 9-7q1.5-.6 2.4-2.2c-.9-1-2.3.5-2.4 1.5q-1.2 0-2.2.6-5.4 3.3-10.9 6.3h-1c6.6-15.5 19.2-30.4 36-35l-1.1 1.5a78 78 0 0 1-9.1 8q-1.4 1.4.4 1.1 10-5.7 20-11.7.6-.3.8-.9Zm64.3 101.3a9 9 0 0 0-.2 3.8l-9 5.7c-1.3.5-1.3-1-.4-1.6q4-3.3 7.8-7.1.8-.6 1.8-.8Z"/><path fill="#fb546c" fill-opacity=".3" stroke="#fb546c" stroke-opacity=".3" stroke-width=".5" d="M348.8 373.1q.8-1.9 2.7-2.2c1 1.3-2 2-2.7 2.2Z"/><path fill="#f7536a" fill-opacity=".3" stroke="#f7536a" stroke-opacity=".3" stroke-width=".5" d="M342.9 359.2q.5-2 2.6-2.2c1 1.2-2 1.8-2.6 2.2Z"/><path fill="#f8536d" fill-opacity=".3" stroke="#f8536d" stroke-opacity=".3" stroke-width=".5" d="M360.1 337.9c-.4.8-2 3-3 1.8a3 3 0 0 1 3-1.8Z"/><path fill="#f9526b" fill-opacity=".5" stroke="#f9526b" stroke-opacity=".5" stroke-width=".5" d="M340.3 333q-1.2 1.4-2.8 2c-.7-1.2 2.1-1.7 2.8-2Z"/><path fill="#f9536b" fill-opacity=".5" stroke="#f9536b" stroke-opacity=".5" stroke-width=".5" d="M356.1 304.8c-.7.6-2 3.4-3 1.8.3-1 2.2-1.4 3-1.8Z"/><path fill="#fdcad2" d="M289.2 340.9c-.4-1.3 4.9-4.1 5.7-3.4-1 1.2-4 3.9-5.7 3.4"/><path fill="#887bd1" d="M317.2 294q-.2.5-.7.7 0-.6.7-.7"/><path fill="#e3ebf0" stroke="#e3ebf0" stroke-width=".5" d="M320.2 371.6q2.7.9 3.5 3.7l-4.8 4.4q-6.4.2-13 0 7.1-4.2 14.3-8.1Zm24.1 3.7-.5 2-1.8 2.4h-6l6.4-3.8zm-59.5 13q-.6.6-.8 1.3c-.7 2.7 4.3-1.1 5-1.3q21-.2 42.1-.1-8 7.5-16.7 14.1c1.3 1.5 2.3-.6 3.5-1.2l17-9.8q1-.6 1.4-1.6 2.1.2 3.5-1.3c2 .2 13-.7 13.8.2q-2.7 6.1-5.1 12.4l-4.3 14.4c-.8 23.4 1.5 40.8 15.7 60.3l8.6 9.8q.1.7-.4 1A49 49 0 0 1 340 499l.2-1 11.2-9.9q2-1.6 3.5-3.6c-1-.8-3.9 1.5-4.5 1.9l-19.5 11.2q-1 .6-.8 1.8-7.5-.9-14.2-3.7 9-6.8 17-14.3l1.2-.5 7.2-5.8q1.7-1 2.5-2.9c.9-.4 3.4-.7 2.7-2.1a4 4 0 0 0-2.7 2.1q-2.1 0-3.9 1.4c-2 1.7-8.6 4.8-11.3 6.8q-1.3.6-2.4 1.8a98 98 0 0 0-17.4 10 36 36 0 0 1-8.8-6q15-11.4 29.6-23l5.5-3.5q1.5-1.3-.5-1.2c-2.4 1-4.9 3.1-7.2 4.4q-16.1 9.4-32.4 18.5a50 50 0 0 1-10.1-15.5c1-.7 3-1.5 3-3q2.4.3 2.9-2 1 0 1.5-.7.7-.4.7-1.3l.8.2q1-.1 1.4-1.1 7.2-4.4 13.8-9.4.7-.6.7-1.5l1.4-.1q1.5-.5 2-1.9c.6-.2 3.6-.9 2.4-2q-1.8.2-2.4 2-1.4-.2-2.3.8l-1.1.6-11 6.6-1.6 1.1q-2.2.2-4 1.7a67 67 0 0 0-8.1 4.8q-1 .6-2 .7-2-4.5-2.8-9.1c8.1-5.5 16.3-12.8 24.5-17.9l.5-1.5q.9 0 1.5-.8l12.2-8.8 2-2q1.4 0 2.1-1.2 1.2-1.2 0 0-1.5-.2-2.1 1.1a3 3 0 0 0-2.7 1.6 68 68 0 0 0-13 7.5c-2.4 0-5.4 2-7 3.7q-9.3 5.4-18.9 10.3l-.2-23.1c2.5-1.8 5.3-3.7 7-6.2q.7 0 .9-.7a7 7 0 0 0 3.2-2.6q3-2.4 6.2-4.7.4-.3.4-.9 1.5-1.2 0 0c-1.7 1-6.3 2.2-7 4l-.8.2q-.9 0-.8 1-2.7 0-4.7 1.9-.4.3-.4.9l-4 1q0-13.1.3-26.2c.6-1 4.3-.3 5.4-.5Zm73.3 53.7-1-4c3.2 0 15-8.2 18.6-9.8q2.3 0 .4 1.4zm26.1 8.6L370 462.4a10 10 0 0 0-2.1 2.9 31 31 0 0 1-3.2-5q8.8-4.8 17.3-10 1.2-.3 2.3.3Zm4 15.5c-4 3.6-8 6.4-11 10.8a16 16 0 0 1-3.8-3.7c3-1.6 11.6-7.7 14.8-7Z"/><path fill="#e4eaf1" fill-opacity=".3" d="M343.8 472.1a4 4 0 0 1 2.7-2.1c.7 1.4-1.8 1.7-2.7 2.1"/><path fill="#e4ebef" fill-opacity=".4" d="M323 420q-.7 1.2-2.1 1.1.6-1.3 2.1-1"/><path fill="#e3eaf1" fill-opacity=".4" d="M323 420q1.2-1.2 0 0"/><path fill="#aac4f5" fill-opacity=".5" d="M296.8 406q1.5-1.2 0 0"/><path fill="#668cde" d="M284.8 388.3q2.1-.3 4.2 0c-.7.2-5.7 4-5 1.3q.2-.8.8-1.3"/><path fill="#beced3" stroke="#beced3" stroke-width=".5" d="M426 353.8a50 50 0 0 1 15 2.4q0 .5-.3.8c-6.4 5.2-29.4 22.5-33.6 26.8-.5.5-3.6 1-2.6 2.3q2-.4 2.6-2.3 1.5 0 2.5-.6l39.5-22.7q.8-.6.7-1.6 6 1.9 11.4 5L432 384.6q-.8.5-.8 1.4-2 0-3 1.7c1 1 2.6-.8 3-1.7q1.3-.2 2.5-.8 15.8-9 31.5-18.5c2 1.8 6.3 4.2 7.3 6.7a209 209 0 0 0-19.2 13.5c-.8 1-3.3.5-3 2.1-1 .3-2.9.5-3.2 1.7 1 1.2 2.7-.8 3.1-1.7l2-.2q10.1-6.6 20.9-12.4.8-.5 1-1.4a47 47 0 0 1 13 16.2c-7.8 5.3-21.4 13.2-27.5 19.8a1 1 0 0 0-.2 1.1q-1.2 0-2.4.5-47.7 16.4-95.7 32.3c-2.3 1-2.7-1-3.1-2.8l18-12.4q1.9-1.5-.4-1.4c-3.6 1.6-15.4 9.8-18.5 9.8q-1-5-1-9.9a95 95 0 0 0 9.3-6.1q.6-1-.5-1.4l12-7.1q1-.6 1.2-1.7c1.5.5 4-1.5 4.9-2.8.5-.5 3.7-.9 2.5-2q-2.1 0-2.5 2c-1.9-.3-3.2 1.1-4.6 2q-.3.4-.3.8-1.2 0-2.2.6-6.9 3.7-13.4 8.1c-2 .3-5 3.4-6.6 3.5q.4-8.7 2.7-17c1.7.5 8.1-3.8 10-4.8l18-13.5a1 1 0 0 0-1-.4l-26 14.6c7.7-21.2 25.3-40.4 47.5-46.3l-10 9.8q-1 .6-1 1.7-1 .2-1.8.8-3.7 3.8-7.8 7.1c-.9.6-1 2.1.3 1.6l9-5.7q14.7-8.1 29.1-16.5 1-.6 1-1.8Zm50 32.2c-1.8-.2-3.8 1.5-5 2.6 1.3 1.1 4.3-1.3 5-2.6.8 0 3.9-.9 2.6-2q-2 0-2.7 2Zm14 9.8c0 1 2.3 4.4 1.4 5.1q-10 4.3-20.5 6.9v-.8q9.7-5.2 19-11.2Zm5 15q1.3 5 1.8 10.3a445 445 0 0 0-30.3 22q-1.8.1-2.4 1.8c-.5.3-4 1.1-2.7 2.2q2-.4 2.7-2.2c2.2 0 2.1-.3 3.8-1.7l29.1-16.5c0 2.9.6 10.8-2 12.8q-3.1 2.4-6.7 4.4-.5.6-.5 1.3c-1.7-.7-3.7 1.2-4.6 2.5.6 1 4.2-1.5 4.6-2.5q2.7-2 5.7-3.4.8-.2 1.6 0c-1 6.2-2.3 15-8.6 18.3q-.6.3-.6 1.1c-1.8-.7-3.9 1.6-5 2.8q-.6 0-.5.6.4-.1.6-.6c1.7.3 4-1.5 4.9-2.8.9.1 3.3-2.4 2.8.1a68 68 0 0 1-67.8 37.5l2.2-1.2 19.4-15q-.2-.5-.6-.2-1.8 1.2-4 1.9l-21 12.2a2 2 0 0 0-1 1.6q-5.4-1-10.6-3a2 2 0 0 1-1.5-1.3c1.7-1.5 13.9-9.4 14-10.7l1.5-.2q2.5-1.6 4.6-3.6c-.8-1.1-4.2 1.7-5 2.4l-1.2.6c-2.4 1.3-17.1 9.2-17.6 10.6a52 52 0 0 1-10.5-5.5c5.7-2.3 28.3-20.5 35.5-24.9q.9-.4.6-1.5 2.3.3 3.2-1.6c-1-1-2.5 1-3.2 1.6a1490 1490 0 0 0-40.8 23.3c-1.3-1.5-7.5-5.8-7.8-7.4 5.9-.7 33.7-22.8 40.5-27.7l2.3-2c.9-.9 2.5-.6 3-1.8-1-1.6-2.4 1-3 1.7l-2 .2c-8.7 6.2-22.3 11.6-29.7 18.8-3.2-.6-11.8 5.5-14.8 7.1q-3.2-3.6-5.6-7.9 1.2-.3 2.2-1l35-25q.7-.5.8-1.4 6-2.6 12.1-4.5c21.3-6.9 44.2-15.4 65.4-21.5-.6.8-22 16.2-24.8 18.2-1.4 1.7-1.2 1.8-3.6 2.3q-.8.5-.7 1.4-2.2 0-3 1.8c1.2.6 2.3-.7 3-1.8 4.8-.4 34.4-19.3 40.9-23Zm-95.9 28.8 1 .4c0 1-1.5.9-2.2 1.3a79 79 0 0 0-13.7 9.3q-1-.6-2.3-.3-8.5 5.2-17.3 10l-3-7.2q-.4-.6.1-.9zm48.7 54.6c.6 1.8 2.7-1 3-1.9-1-1-2.6.9-3 1.9Z"/><path fill="#bdcdd2" fill-opacity=".4" d="M481 464q-.1.4-.6.6-.2-.6.6-.6"/><path fill="#becdd5" fill-opacity=".3" d="M485.9 461.2c-1 1.3-3.2 3.1-5 2.8 1.1-1.2 3.2-3.5 5-2.8"/><path fill="#becdd4" fill-opacity=".4" d="M425.7 461c.7-.6 2.2-2.6 3.2-1.6q-1 1.9-3.2 1.7"/><path fill="#becfd1" fill-opacity=".3" d="M487.8 445.2c-.4 1-4 3.6-4.6 2.5.9-1.2 3-3.2 4.6-2.5"/><path fill="#beced3" fill-opacity=".5" d="M464 444.9q-.6 1.9-2.6 2.2c-1.4-1 2.2-1.9 2.7-2.2"/><path fill="#bfcfd2" fill-opacity=".4" d="M419.9 447.1c.6-.6 2-3.3 3-1.7-.5 1.2-2.1 1-3 1.7"/><path fill="#becfd3" fill-opacity=".4" d="M454.2 433.9c-.7 1-1.8 2.4-3 1.7q.8-2 3-1.7"/><path fill="#bed1d4" fill-opacity=".3" d="M383 409c-.8 1.3-3.3 3.3-4.8 2.8q0-.4.3-.7c1.4-1 2.7-2.4 4.5-2"/><path fill="#beced3" fill-opacity=".5" d="M383 409q.5-2 2.6-2c1.2 1.1-2 1.5-2.6 2"/><path fill="#beced4" fill-opacity=".4" d="M476 386c-.7 1.3-3.7 3.7-5 2.6 1.2-1.1 3.2-2.8 5-2.6m-25.9 3c-.5.8-2 2.8-3.1 1.6.3-1.1 2.1-1.4 3.1-1.7m-2.3 105.2c.4-1 2-2.8 3-1.9-.3.8-2.4 3.7-3 1.9"/><path fill="#c0ced1" fill-opacity=".2" d="M476 386q.6-2 2.6-2c1.3 1.1-1.8 2-2.7 2"/><path fill="#beced4" fill-opacity=".3" d="M407.1 383.8q-.6 1.8-2.6 2.3c-1-1.2 2-1.8 2.6-2.3m24 2c-.4 1-2 2.8-3 1.8a3 3 0 0 1 3-1.7"/><path fill="#e2eaef" fill-opacity=".8" d="m362.6 420.5 2.4.1q1 .4.5 1.4a95 95 0 0 1-9.3 6.1q-.3-2-.2-4.1c1.5 0 4.6-3.2 6.6-3.5"/><path fill="#4c5a78" fill-opacity=".8" d="M324 11.3c-.8 1.7-8 5.5-10 5.8-1.2-.7-1.1-4.9-.3-5.9q5.1-.8 10.3 0"/><path fill="#44506b" fill-opacity=".2" stroke="#44506b" stroke-opacity=".2" stroke-width=".5" d="M322.8 57q-.6 1.4.8 1.8-2 1.5-4.6 2.3c-.2-1.6 2.8-3 3.8-4.1Z"/><path fill="#2e4480" fill-opacity=".1" stroke="#2e4480" stroke-opacity=".1" stroke-width=".5" d="m214.8 172.7.9.7.4.6q-1.5.8-3.1 1.4V174zm-24 306.2q.9 0 1.2 1.1l-1.6 1q-.8-.2-1.4-1z"/><path fill="#202332" fill-opacity=".1" stroke="#202332" stroke-opacity=".1" stroke-width=".5" d="M162.7 11c.3 1.5-1.5 2-2.6 1.7-1-2 1.3-2 2.6-1.7Z"/><path fill="#2a437e" fill-opacity=".1" stroke="#2a437e" stroke-opacity=".1" stroke-width=".5" d="M64 151.7v1.3q-1 .8-2.2.8-.5-.2-.8-.7a8 8 0 0 1 3-1.4Z"/><path fill="none" d="m201.3 118.2.7.8q-1.5.9-3 1.3V119q1-.5 2.3-.8"/><path fill="#2c4580" fill-opacity=".1" stroke="#2c4580" stroke-opacity=".1" stroke-width=".5" d="m179.9 470.6.2 1.4-1.5 1a4 4 0 0 1-1.6-1q1.4-.9 2.9-1.4Z"/><path fill="#2f477e" fill-opacity=".1" stroke="#2f477e" stroke-opacity=".1" stroke-width=".5" d="M53 173.7v1.3l-1.4 1q-.9-.2-1.6-1 1.5-.9 3-1.3Z"/><path fill="#394d77" fill-opacity=".7" d="M69.7 507.7q1.8-1.3 3.3.1-1.6.3-3.3-.2"/><path fill="#7f3944" fill-opacity=".6" d="M341.8 261.3c.9-.3 3.2-.7 3.5.6q-1.9.3-3.5-.6"/><path fill="#8b3c48" fill-opacity=".3" stroke="#8b3c48" stroke-opacity=".3" stroke-width=".5" d="m381.6 308 .5 1.8-1 .2q.1-1 .5-2Z"/><path fill="#3a4151" fill-opacity=".6" d="M46.4 4.9q-1.4.1-2.7-.1 1.4-1.5 2.7 0"/><path fill="#54585a" fill-opacity=".5" d="M403.3 349.2q-.6.6-1.6.8.5-1 1.6-.8"/><path fill="#495b77" fill-opacity=".3" stroke="#495b77" stroke-opacity=".3" stroke-width=".5" d="M14.2 10q-.5.7-1.2 1 .1-1 1.2-1Z"/><path fill="#46536c" fill-opacity=".5" d="M16.4 9q-.6.8-1.5 1.2.3-1.2 1.5-1.2"/></svg>