<svg xmlns="http://www.w3.org/2000/svg" style="shape-rendering:geometricPrecision;text-rendering:geometricPrecision;image-rendering:optimizeQuality;fill-rule:evenodd;clip-rule:evenodd" viewBox="0 0 512 512"><path fill="#3c69ce" fill-opacity=".5" stroke="#3c69ce" stroke-opacity=".5" stroke-width=".5" d="m31.7 117 .4 1.4c-.5.3-1.2 1.5-1.8.9a3 3 0 0 1 1.4-2.3ZM486 131a5 5 0 0 1 2.6-2.7c2 .3-1.3 3-2.6 2.6Zm-154.1 7a3 3 0 0 1 2.5-2c1 1-2 1.7-2.5 2Zm28.2 15.9q.5-1.8 2.4-1.9c1.5 1.2-1.7 1.8-2.5 1.9Z"/><path fill="#3c69cf" fill-opacity=".4" stroke="#3c69cf" stroke-opacity=".4" stroke-width=".5" d="m200 141.3-1-.1q1.3-2 3.4-2.2c.9 1-2 1.8-2.5 2.3Zm-87 5.7a3 3 0 0 1 2.5-2c1.1 1-1.8 1.9-2.5 2Z"/><path fill="#3b65c4" fill-opacity=".7" d="M102.8 160q3 .5 5.5 2.1c-.3 1.1-2.6.6-3.4.5q-2-.6-2.1-2.6"/><path fill="#355db4" fill-opacity=".1" stroke="#355db4" stroke-opacity=".1" stroke-width=".5" d="M227.6 129q-.3 1.4 1 1.7-2 1.3-4.3 2.3l-.3-.6q1.7-2 3.6-3.4Z"/><path fill="#4065c9" fill-opacity=".2" stroke="#4065c9" stroke-opacity=".2" stroke-width=".5" d="M113 147a7 7 0 0 1-3 3q0-1.1-1.2-1.3 1.9-1.4 4.2-1.7Z"/><path fill="#3d69ce" fill-opacity=".3" stroke="#3d69ce" stroke-opacity=".3" stroke-width=".5" d="m159.7 121 .4 1.3c-.7.5-2 2.2-3 1.3q1-1.6 2.6-2.5Z"/><path fill="#395fb4" fill-opacity=".8" d="M278 165c1.2.2 4.5-.5 5 1-1.4.4-4.6.7-5-1"/><path fill="#3c69ce" fill-opacity=".5" stroke="#3c69ce" stroke-opacity=".5" stroke-width=".5" d="m224 132.4.4.6c-.6.5-2 2.5-3 1.4a3 3 0 0 1 2.7-2Z"/><path fill="#3d69ce" fill-opacity=".3" stroke="#3d69ce" stroke-opacity=".3" stroke-width=".5" d="M180 123v1.4c-.7.6-2 2.2-3 1.2q1.2-1.7 3-2.6Z"/><path fill="#3c69cf" fill-opacity=".4" stroke="#3c69cf" stroke-opacity=".4" stroke-width=".5" d="m48.2 136.8-.2 1.4q-.9 1.3-2.4 1.6c-.7-1 2-2.5 2.6-3Z"/><path fill="#3c69ce" fill-opacity=".3" stroke="#3c69ce" stroke-opacity=".3" stroke-width=".5" d="M299.8 138.3v-1.7c.8-.4 2-2 3-1.3a5 5 0 0 1-3 3Z"/><path fill="#3c69ce" fill-opacity=".8" d="M34.7 165H39l-.1.7c-1.3.3-3.6.8-4.3-.6"/><path fill="#3b69cd" fill-opacity=".2" stroke="#3b69cd" stroke-opacity=".2" stroke-width=".5" d="M134 148q-.3 1.3-1.8 2l-.4-1.2q1-1 2.3-.9Z"/><path fill="#3b67ce" fill-opacity=".2" stroke="#3b67ce" stroke-opacity=".2" stroke-width=".5" d="M19 161.8q1 .3 1.3 1.2-1.2 0-1.2-1.2Z"/><path fill="#3b6bd0" fill-opacity=".2" stroke="#3b6bd0" stroke-opacity=".2" stroke-width=".5" d="M39.1 165h1.1q-.2 1-1.2.7z"/><path fill="#262626" stroke="#262626" stroke-width=".5" d="M283 166c-.5-1.5-3.8-.8-5-1-9 .3-22.3-1.1-30.5 1.3-4.3-1-8.6-.2-13-.2-39 1.8-88.8 8.2-126.2-4q-2.5-1.6-5.5-2.1c-8.3-5.7-14.8-11.5-15-22.5.9-16 10.6-26 26-29.6q.8 0 1.5-.7c18.4-2.6 35.7-.7 54.2-.2l310-.5c21.6 0 34 19.8 27.1 39.8-8.9 24.1-33.3 19.9-54.1 20.6q-78.4.4-157-.5c-3.5.4-9.4-1.2-12.5-.5Zm-242.8-1h-5.5a161 161 0 0 1-14.4-2 2 2 0 0 0-1.2-1.2q-.5-.5-1.1-.7c-28.7-13.2-15.3-48.8 11.7-53.8 42.6-4.7 49.6 50.7 10.5 57.6Zm89.5-48.7q-6.8.7-13.5 2.8-1 0-1 .8c-16.2-.2-19.7 25-8 30.5q0 .6.6.3c.3 2.8 8.8 5.3 11.1 5.7q2.1.9 4.2.7c2.1 1.4 14.7 1 17.9 1l30.2-.4q4.8.5 9.5 0a2399 2399 0 0 0 64.9 0q9.3.5 18.7 0 7.2.5 14.3 0 9.8.3 19.5 0 6.3.3 12.5.1 9.3.3 18.5 0 2.8.3 5.6 0a10480 10480 0 0 1 100.4 0h33.4c14.1.7 25.3-1.7 28.2-17.5 3.5-22-25.4-25.3-40.9-26.3a21 21 0 0 0-6.5-.6c-8.2-1.1-16 1.2-23.8.5q-8.7.1-17.6 1-2.7 0-5.6.3-10 .3-20.1 1.5c-2.5-1-9 0-12-.4l-18-.7c-.8-.5-14.8 1-17 1.2a301 301 0 0 0-20.5.2 7 7 0 0 0-5.4.1c-1.3-1.5-16-.6-18.7-1q-18.3-1.1-36.5-1.3-4.5-.6-8.8-.6c-5.7 0-13-.8-18.5 0-2.5-1-7.8-.7-10.7-1a324 324 0 0 0-17.3 0q-3.4-.3-6.7-.3l-22.8.3c-13 .3-26.6.8-39.6 3Zm-110.5 33q.6 2.1 2.8 2.4c1 3.2 13.3 6 16.5 6 9.9-1.6 15.7-12.5 14.4-22a4 4 0 0 0-1-2.6c-1.5-6.9-7.2-17.2-15-18.2a3 3 0 0 0-2.6-.6c-15.1.8-26.3 24.8-15 35ZM462 226.1q10.5.1 20.6 1.7 2.5 1.5 5.5 1 3.8 2.2 8 3.7c14.4 9 18.4 24.7 7 38.1q-.9.4-1.2 1.3l-1 .2a59 59 0 0 1-22.6 9.6 3 3 0 0 0-1.7 1.4l-1-.8-13.2 2.5q-2.3-.2-4.7.3a586 586 0 0 1-81.6.2q-1-.1-2 .4c0-1.3-2.6-.6-3.4-.7q-10.7-.3-21.4-.9l-7.6-.1q-6.6-1-13.4-.9a163 163 0 0 0-18.9-.1 82 82 0 0 0-22 1.3 21 21 0 0 0-7.7-1q-7.3-.9-14.6-.5l-1.1.3c-2.6-.8-6.4 0-9.2-.2q-10.7.5-21.5 1.3c-1.3-.1-5.7-.5-6.3.7-12.1-.2-25.3 1.3-37.5 1.9-23.3.5-47 1.7-70-3l-2.6.1q-.3-1-1.3-1.1l-5.8-1.5-5.6-2.5-6.5-3.8c-12.7-9.7-12.2-23.8-2.7-35.7l1.2-1 1.1-1.4q5.8-4.5 12.4-7l9.7-2.2q7-1 14.3-1 2.1.3 4.3.2c4.1-.4 12.7 1.1 16.1 0q.1 1 1.3.9h4.9q6.7.3 13.6.3l7.4-.5q7.6.2 15.3 0c1 0 6.2.6 6.4-.5 5.6 1.3 17.5.3 23.8.6q3.8.2 7.4-.4c4.5.8 16.3.4 21.5.3q3.8.3 7.5-.3c4.8.8 17.9.4 23.5.2 1 0 6 .7 6.4-.3a79 79 0 0 0 20.6 0q3.3.9 6.6 0c4 .9 17.5.5 22.4.3q3.8.4 7.6-.2c3.4.9 13.2.3 17.3.3q3.9.3 7.7.1l12.3-.2c1.3 0 5.7.8 6.5-.4 3.5 1 9 .9 12.6.2q3.3.6 6.6.6 7.8 1.2 15.6.3 3.8.2 7.4-.5l21.4-1.4c.8.5 4.4 1.3 4.3-.2ZM34 227a28.1 28.1 0 0 1 25 46.5c-37.1 38.9-89.3-25-31.2-45.8 1.3.2 5.4.4 6.2-.7Zm386.8 5q-3.3-.5-6.5 0c-6.3.4-13.4.4-19.5 2q0-.6-.5-.8c-5.1 1-15.8-.2-20 2.4l-1.4-1q-.5-.6-1.4-.5l-15.7-.1a9 9 0 0 0-5.6-.8q-8.7-.5-17.4-.1-5.7-.3-11.5.1h-1.1c-5.4-.5-12-.4-17.4 0q-4.2-.6-8.4 0a94 94 0 0 0-17.6.1q-6.7-.7-13.5-.1-8.8-.6-17.6 0-5.7-.5-11.4 0c-5.3-.4-12.5-.6-17.6 0q-6.2-.5-12.4 0-8.7-.5-17.6-.2h-5.3c-5.4 0-12.5-.4-17.7.2q-1.7-.3-3.4 0-8.7-.6-17.4 0a9 9 0 0 0-3.8-.3c-20.1-1.8-42.7.5-38.5 27a20 20 0 0 0 10.4 14.7l1.8 1c4 1.2 12.1 4.3 15.9 1.5q0 1 1 1.7 4.9.2 9.9 0 8.9.2 17.8-.2 5.6.4 11.3.1 8.8.3 17.5 0 6.4.3 12.8.1h.9c5.2 0 12.2.4 17.3-.3q4.2.7 8.4.1 8.9.5 17.7 0 6 .5 12.3 0 8.8.6 17.6 0 3.3.6 6.5-.1h1a3426 3426 0 0 0 61 0c5.2.6 12.5.6 17.6 0q4.6.6 9.4.2 9.3.4 18.5 0 3.8.4 7.5 0 26.7.3 53.5-.1 4.3.5 8.5 0c6-.4 16.1 1.7 20.9-2.5v2.7c14.3.5 20.1-11.6 19.2-24.2q0-1-.4-1.8c-.7-12.3-17-16.5-26.5-19.1q-2.8-1-5.8-1a65 65 0 0 0-14.2-1.4q-6.3-.6-12.6-.3a77 77 0 0 0-16.5 1ZM15.1 255.2v2.7c.2 3.1 2.6 9.1 5 11q1.3 2.7 4 4c6.2 5.6 13.7 5.4 20.8 1.4q.9-.5 1.3-1.6 7.5-4.8 6.7-13.8l.2-1q.3-2.5-.7-4.9c-.5-3-2.7-9-5.8-10.2.5-1.2-.8-2-1.6-2.7-12.7-13.2-30.6-1-30 15.1Zm471.7 92q.5.7 1.5.7c20.8 8 28.4 26.4 13.7 44.8a2 2 0 0 0-1.3 1.2l-.5.1a2 2 0 0 0-1.4.8q-.7.5-1 1.2h-.6q-1 .2-1.5 1h-.6q-1 0-1.4 1-.8.6-1.5.8l-1.2.3-13.3 4c-48.4 9.3-100.7 2.1-149.7.8q-3-.3-6-.1c-3.7 0-9-1-12.6 0q-1.1 0-1.7 1c-2.3 1.4-3.8-1.1-6.2-1-5.4-.4-11 2-16.2 1q-.7-.6-1.7-.6c-4.7-.2-13.1-1.5-17.5 0a9 9 0 0 0-5.2-.1c-4.5-.6-10.7 0-15.4.1-40.7 2-87 8.5-127-.1q-1.4-.2-2.7-.1c-.3-1.3-5-2-6.2-2q-6.3-3.3-12.3-7.2l-1.1-1c-18.4-17.5-4.5-42 17.5-46.9q.9 0 1.6-.7 9.6-.4 19.2-.3l278-.1c2.5.3 4.3 1.3 7 1 22.6-.3 44.9-5 67.3.4ZM36.3 404.3a3 3 0 0 0-1.6.5c-2 .5-9.3-1-11.7-1.3-30.9-8.2-23-53.3 7.4-57.4 46.2-3 45 54.7 5.9 58.2Zm73-13.3c0 1.4 3.4 2.9 4.4 2.7l1 .2c1.6 2 11.9 3.6 14.6 3 3.5.8 7.8 1.1 11.4 0 3.6.4 14.1 0 18.5 0q2.8.3 5.5 0 9.3.3 18.5 0l13.7.2 1-.4c4.3.6 13.7.4 18.3 0q5.9.4 11.6.4l1-.4c4.9.7 13.4.3 18.5.1q7.2.4 14.4.2 9.3.1 18.5-.1 2.2.2 4.5 0a4096 4096 0 0 0 78.5 0h5.5q9.2.3 18.5 0 6.2.3 12.5 0a337 337 0 0 0 23 0q9.3.3 18.6-.1 3.3.4 6.7.2l.9-.3c4.3.7 13.5.2 18.3.3H478c13.7-.3 22.2-15 18-27.4q0-1.4-1.1-2.4c0-3.6-16-11.5-19.7-11.8a6 6 0 0 0-3.8.3 2 2 0 0 0-1-1.6q-4.5-1-9-1.1a59 59 0 0 0-16.7-.8 29 29 0 0 0-5.7-.3c-5.6.4-12.8-.2-18.1 1.3q-2.8-.8-5.7 0c-18.5.5-37 2.5-55.7 1.7q-1.8 0-3.5.9-.6-2.1-2.7-1.7-10.3.8-20.6 1.2-6.8-.3-13.4 0-9.9-.3-19.6-.2-5.3-.5-10.4-.7L270 354q-6.3-.6-12.7-.6-9.1-.5-18.4-.4a9 9 0 0 0-5.1 0q-.4-.7-1.3-.6a669 669 0 0 0-28.3-.3q-8.7-.7-17.5.1a45 45 0 0 0-12.4 0c-19.7 0-49.6.4-67.3 9.3-11.3 5.4-7 28 2.3 29.6Zm-94.5-15c.3.9 0 3.6 1.4 3.7q-.9.3-.7 1.2c14 32.4 50.3 10.9 33.4-16.3-.5-1.5-1.9-4-3.6-4.3-10.7-16-31.8-2.2-30.5 15.7Z"/><path fill="#2c52ce" stroke="#2c52ce" stroke-width=".5" d="m119.4 227.8-9.7 2.1q2.6-1.7 5.5-3 2.3-.5 4.2.9Zm317.9 3.3c-1.6 5-17.7 14-17.1 17.3l-1.3-.5a7 7 0 0 0-2.8 2.7c.8 1 2.4-.6 3-1.3l1.1-.7c9.4-5 21-11.5 29.7-17.2a65 65 0 0 1 14.2 1.3q-7 6.5-14.6 12.3-.8.7-1.4 1.7c-.7.6-2.7.5-2.8 1.6q.7.8 1.7.3c5.9-4.3 15.6-9 22.1-13q1-.7.8-1.8c9.6 2.6 25.8 6.8 26.5 19q-.7 1.6-2.5 2.2c-.6.5-3.1 2-2.3 3q1.6-.2 2.4-1.8a3 3 0 0 0 2.8-1.5c1 12.6-5 24.7-19.2 24.2v-2.7c-4.8 4.2-15 2.1-20.9 2.6 1.4-2.1 10-9 10.2-10.7a5 5 0 0 0 2.8-1.6c-1.2-.9-2.4.5-2.8 1.6-6.5 2.6-12.9 6.7-18.7 10.6q-26.7.4-53.5 0l16.9-13.6q.3-.4.3-1c.5-.3 4-1 2.5-2a3 3 0 0 0-2.5 2c-6 2.3-17.8 10-24 13.4q-.9.3-.7 1.2-9.2.5-18.5.1 11.1-9 21.9-18.2c-1.6-1-1.8 1-3 1.4-6.7 3.7-23.2 12.5-28.3 16.7-5.1.5-12.4.5-17.6 0q6.3-5.5 13-10c-1.4-1.5-2.5.3-3.6 1l-12 7q-1.6.9-2.8 2.1-27.7.1-55.5-.2l.5-.7q7.6-6.3 15.4-12.2c-1.4-1.5-2.9.7-4.1 1.4l-17.9 10.3q-.9.4-1.5 1.3-8.8.6-17.6 0l23-20c-.8-1.2-2.4 1.2-3.5 1.1L246 276.6q-1.6.9-2.7 2.2-9 .4-17.7-.1a587 587 0 0 0 18.2-15c-1-.7-2.6.6-3.5 1-3.3 2-22 12-23 14-5.2.6-12.2.3-17.4.1l.5-.8 18-16c1-1 3.4-2.6 3.5-3.9.6-.2 3.8-.8 2.5-1.9q-1.9 0-2.5 2-2.5.4-4.6 2c-5.7 3.7-27.6 15.2-31.1 18.5q-8.7.4-17.5.1l17.4-15.2q.9-.9.6-2l1.4.5q1.6-1 2.7-2.8c-.8-.8-2.3.8-2.9 1.4l-1.3.6c-3.8 2.3-28.2 15.5-29.2 17.4q-9 .4-17.8.3 9-8.3 18.5-16.5a4 4 0 0 0 1.7-2.4l1.5-.2q1.5-.9 2.3-2.4c-.8-1-2 .7-2.7 1.2l-1.3.6-30.9 18c-3.8 2.7-11.9-.4-16-1.6q1.1-.8 2.4-1.2l8.5-6.9q-1.6-.6-2.4 1a44 44 0 0 0-10.2 6.1 20 20 0 0 1-10.4-14.7c-4.2-26.5 18.4-28.8 38.5-27-.6 1.3-3.4 2.6-3 3.9q-2-.2-2.7 1.6c1 1 2.3-.9 2.7-1.6 1.3.3 5.6-2.8 6.8-3.6q8.7-.6 17.4 0l-4.3 3.2q-.7.6-.7 1.5h-1.6q-.8.4-.7 1.3.7.7 1-.1l1.4-.6 7-4q.8-.4 1.3-1.3c5.2-.6 12.3-.3 17.7-.1q-4.3 3.6-8.9 7-.8.7-1.3 1.6a9 9 0 0 0-4 2.5c1 1 1.9-.6 2.5-1q7.3-3.7 14.3-8c.5-.6 3-1.3 2.7-2.2q9-.3 17.6.2l-23 20q.7.6 1.7.3 16-9.6 32.4-18.9.9-.4 1.3-1.3c5.1-.7 12.3-.5 17.6-.2a935 935 0 0 1-22 19.1q.7.6 1.7.2 15-9 30.4-17.8.9-.4 1.3-1.4 8.8-.6 17.6 0L244.6 250c-1 1-3.4 2.4-3.5 3.8q-1.8.2-2.8 1.7c1.3.9 2.3-.7 2.8-1.7 1.4.3 3.4-1.3 4.6-2 6-3.7 27.1-15.2 31-18.4 5.2-.7 12.4-.5 17.7-.1l-18.1 15q.4.5 1 .2c2.5-.8 25-14 25.5-15.1a92 92 0 0 1 17.4 0l-.5.7-23.3 20.3c.8 1.1 2.3-.8 3-1.3l4.2-2.4c3.7-2 28.6-15.6 29.2-17.5q8.7-.4 17.4 0-6.3 5.6-12.9 10.8-1 .8-2.4 1.4c-1.5 1-.1 1.7 1 1.1l19-11.2q.7-.5.9-1.2h15.7q.9 0 1.4.6l-4.8 4c.8 1 4.3-1.6 5-2.5l1.3-.5c4.1-2.6 14.8-1.5 20-2.4q.4.3.4.8c-1 .2-2.5.2-2.7 1.5 1 1.1 2.4-.6 2.7-1.5 6.2-1.6 13.2-1.6 19.5-2a54 54 0 0 1-11.4 9.3q-.7.6-.7 1.5c-1 .2-2.8.4-3 1.7.9 1.1 2.6-1 3-1.7q.9 0 1.8-.4l16.3-9.6q.5-.3.5-.9a77 77 0 0 1 16.5-.9Zm-392.3 9q-1 0-1.6.8-3 3-5.9 6.4.8.5 1.4 0 4-2.1 7.7-4.5c3.1 1.2 5.3 7.2 5.8 10.2-.8 1.9-6.3 7-6.4 8.5l.4.5q3-1.2 5.6-3h.9q1 8.9-6.7 13.7a2 2 0 0 0-1.3 1.6c-7 4-14.6 4.2-20.8-1.4q.9 0 1.5-.7l10-12q.4-.5-.2-.9L21 267.6q-.7.5-1 1.4c-2.3-2-4.7-8-4.8-11.1q3-2.4 5.3-5.3-.7-.4-1.5.1-1.6 1.7-4 2.5c-.6-16.1 17.3-28.3 30-15.1Zm105.8 1c.2 0 1.8-.4.8-1q-.6.3-.8 1Zm155 33.2c.6 0 4-1.4 2.7-2.3q-2.1.2-2.8 2.3Zm196.1-2.3v.9c-1.5 2.7-15.5 9.5-18.8 11.8q-3.8 1.5-6.5-1.5a3 3 0 0 1 1.7-1.4 59 59 0 0 0 22.6-9.6zm-23.2 4c.2 0 1.9-.3.9-.8q-.7.1-1 .8Zm-368.9 5.4q3 .6 5.8 1.5 1 .1 1.3 1.1-5 2.5-7-2.6Zm145 1.6c2.8.2 6.6-.6 9.2.2l-.3.5c-3.2 2.1-5 2.4-8.2.3q-.6-.4-.7-1Zm24.9.3a21 21 0 0 1 7.7 1q-4.3 2.7-7.7-1Zm20.2-.4a70 70 0 0 1 9.5.2q-1.5 1.2-3.5 2-3.9 1.3-6-2.2Zm18.1 0q5.2 0 10.4.3-3 1.3-6 2.3c-1.1.1-4.2-1.4-4.4-2.6Z"/><path fill="#1f45b2" stroke="#1f45b2" stroke-width=".5" d="M174.3 352a297 297 0 0 1-23.4 20.4q-1.2 1.2.4 1.2l1.5-1.3a1283 1283 0 0 0 33.2-18.9q.7-.4.7-1.3 8.8-.8 17.5 0a884 884 0 0 1-23.9 21.2q.9.6 1.7.1 17-10.1 34.1-19.9.9-.4.9-1.5l15.5.3q.9 0 1.3.6l-10.3 8.2q-1.2 2-3.5 2.5a1 1 0 0 0-.7.8c1.5 1.5 3.2-1.2 4.6-1.9q7.2-3.8 14.2-8 1-.6.8-1.6 9.3-.1 18.4.4l-24 22q.4.6 1 .3l34.9-20q.8-.6.8-1.7l19.3.5c-6 4.3-12.7 11-18.4 16a2 2 0 0 0-.7 1.8l-1.5-.2q-1.5 1-2.4 2.5c.8 1 2.1-.6 2.8-1.2l.9-.3 28.7-16.7q1-.3 1-1.2l19.6.2q-1 .8-2 1.3l-20 18.8q.8.4 1.6 0l31.1-17.9q1.6-.9 2.7-2.2 10.3-.4 20.6-1.2l-12 9.3q.7.6 1.7.3c4-3.3 8.9-4.9 13-8q1.7-.8 3.5-.8c18.7.7 37.2-1.2 55.7-1.8a47 47 0 0 1-9.2 7.4 2 2 0 0 0-1 1.4q-1.7.3-2.8 1.7c1 1 2.6-.8 2.9-1.7 2.9-.1 12.7-6.9 15.8-8.7 5.3-1.5 12.5-1 18.1-1.3q0 .6-.5 1.1-6.7 5-13.2 10.4.7.6 1.7.1l17-10q.9-.5.7-1.3c5-.4 11.8-.4 16.7.8a864 864 0 0 1-25 22.5c.7 1 2.4-.8 2.9-1.4q2.4-1 4.3-2.4l27.8-16q1.8-.8 3.8-.3c3.8.3 19.7 8.2 19.7 11.8q-.9 0-1.5.7-3.7 3.1-7 6.5.3.4 1 .2l8.6-5c4.2 12.4-4.3 27-18 27.4q3.7-4.8 7.3-10 .4-.8-.6-.7-8.4 4.3-16.7 9.3-.7.5-.8 1.4c-4.8 0-14 .4-18.3-.3l.3-.5 11.5-10.6q-.7-.3-1.6.2l-17.2 9.8q-.6.3-.6 1.2-9.3.4-18.6 0 2.4-2.4 5.3-4.3.7-.6.8-1.6h1.5q1.6-1 2.6-2.5c-1-1-2.3.8-3 1.4l-1.2.5-9.4 5.4q-1 .4-1 1.2-9.3.3-18.6 0c7-6.2 15.1-14.7 22.8-19.9q.2-1-.8-.8L388 395.7q-.6.4-.8 1.3h-18.5l8.3-6.7 1.9-2.2c.7 0 4-1 2.6-2q-1.8.3-2.6 2-1.7.4-3.2 1.3-6.5 3.4-12.5 7.5-8.7.3-17.5 0 2.4-2.4 5.3-4.4.7-.6.8-1.5h1.4q1.4-.5 1.7-2c.7-.4 3.7-.8 2.5-2q-2.1 0-2.4 2-1.3-.2-2.2.7l-1 .6-9.5 5.4q-.8.5-1.1 1.2-28.2.3-56.5 0l12-9.3q-.7-.6-1.7-.3-6.9 4.4-14 8.4a2 2 0 0 0-.7 1.2q-9.3.3-18.6 0 11.8-11.3 24-22.3c-1.5-1.3-2 .9-3.3 1.3q-17.2 9.6-34.5 19.7-.6.4-.6 1.2c-5.1.2-13.6.6-18.4-.1q0-.2.3-.5 10-9.2 20.3-18.1.4-.6-.2-1a1652 1652 0 0 0-32.4 18.5q-.6.4-.7 1.2c-4.6.3-14 .5-18.2 0q0-.4.3-.8 11.6-10.8 23.3-21.4c-1.4-1.2-2 .9-3.1 1.4-4 2.2-34.9 19.2-35.3 20.8q-9.2.4-18.5.1 6.3-5.4 13-10.3c-1.7-1.6-3.7 1.6-5.2 2.3q-5.3 2.7-10.5 5.8-1.6.9-2.8 2.2c-4.4 0-15 .4-18.5 0 5.8-5 15-14.9 21.4-18.3q1-.6.2-1.3a2 2 0 0 0-2.2 1.2q-15 8.4-30 17.1-.8.5-.8 1.3c-2.7.6-13-1-14.6-3l.5-.7 13-11.6q.8-.8.5-2l1.6.3a7 7 0 0 0 2.5-2.6c-.8-.8-2.2.7-2.7 1.4l-1.4.6-18.4 10.4q-1 .4-1 1.3c-9.3-1.6-13.6-24.2-2.3-29.6 17.7-8.9 47.6-9.3 67.3-9.3Zm-129 8.3L35.8 371c-.8.6-.8 2 .3 1.5l12.8-8c16.9 27.2-19.5 48.7-33.4 16.3q-.1-.9.7-1.2.9 0 1.4-.6l7.2-8.4q-.3-.6-.8-.3-4.4 3-9.2 5.6c-1.3-17.9 19.8-31.8 30.5-15.7Zm431.8 4.7c1.1.2 7.2-3 4.5-3.7-1 .5-4.2 2.6-4.5 3.7Zm-171.2 30.3c.5 0 2.7-.6 1.6-1.5q-1.2.3-1.6 1.5ZM491 399l-.4.8q0 .4-.5.6l-8.6 4.2q-2.6.4-3.8-1.7 6.7-1.8 13.3-4Zm-381.4 3c1.3 0 5.9.7 6.2 2q-3.8 1.1-6.2-2Z"/><path fill="#3c69ce" stroke="#3c69ce" stroke-width=".5" d="M169.4 113.2a79 79 0 0 1-7.5 6.3q-.8.6-.5 1.5h-1.7q-1.6 1-2.6 2.6c1 .9 2.3-.8 3-1.3l1.2-.7 12.7-7.2q.7-.4.7-1.3l17.4-.2c-.4 2-10.5 7.8-10.9 10l-1.2.1a7 7 0 0 0-3 2.6c1 1 2.3-.6 3-1.2l1.3-.6q8.6-4.8 17-10 .5 0 .5-.7l17.4.2a502 502 0 0 0-22.9 20.1q.9.3 1.6-.2l31-17.9q.6-.4.9-1.1c5.5-.8 12.8 0 18.5 0-6.3 4.3-11.6 10-17.7 14.8q-2 1.5-3.5 3.4-2 .3-2.7 2c1 1.1 2.4-.9 3-1.4q2.3-1 4.2-2.3 12.7-7.1 25.1-14.6.4-.6.4-1.3 18.3.2 36.5 1.4c2.8.3 17.5-.6 18.7 1q-5.5 4.2-11 8.9l-2.3 1.4c-1.5.9-.2 1.6 1 1q8.4-5.2 17-10 .9-.6.7-1.5a301 301 0 0 1 20.6-.1 796 796 0 0 0-18.3 17.5q-2.1 1.2-3.6 3 .7.6 1.6.2l37.1-22 18 .7a188 188 0 0 0-18 16q-2 1.4-3.7 3 .7.6 1.6.3l32.2-19q10-1 20.1-1.4l-9.8 7.8a5 5 0 0 1-3.6 2.5q-.5.3-.6.8.7.7 1.7.3a465 465 0 0 1 17.1-10.1q.8-.7.9-1.6 8.8-.8 17.5-1c7.9.8 15.6-1.6 23.8-.5-6 4.7-12.9 11.6-19.3 15q-1.6 1.2.3 1.2l1.4-1.3q11.7-6.2 23-12.9 1-.4 1.1-1.4c15.5 1 44.4 4.4 41 26.3-3 15.8-14.2 18.2-28.3 17.5h-28.8q2.9-3 6.3-5.3.6-.6.9-1.3c.6-.3 3.6-1 2.6-2.2q-2 .3-2.6 2.2-1.3.2-2.5.8a66 66 0 0 0-9.3 5.8q-27.2.3-54.4-.2c2-1.5 15-11 15.2-12.4.5-.5 3.9-1.1 2.6-2q-2 0-2.6 2c-2.3.5-21.5 11.1-21.6 12.5h-39.6q1-.8 2.3-1.3l9-7.1 1.9-2.2c.6-.4 4-1 2.7-2.1a3 3 0 0 0-2.7 2.1 107 107 0 0 0-18.8 10.6q-9.2.4-18.4.1c6.3-6 15.6-13.3 21.2-19.7.5-.3 3.4-1 2.5-2q-1.7.3-2.5 2c-1.8-.4-27.8 15.4-31.6 17.6q-1.6.5-2.2 2-9.7.3-19.5 0c7.4-5.8 14.3-12.9 21.2-19.4a5 5 0 0 0 3-3c-1-.7-2.1.9-3 1.3l-.8.4-32 18.5q-1.7.8-2.7 2.1-9.3.6-18.7.1 8.2-6.3 16-13.2-1.1-.3-2.2.4l-21.1 12.8q-28.8.3-57.6 0c5.7-3.3 11.6-9.3 16.7-13.7a10 10 0 0 0 2.5-2.7c.5-.5 3.4-1.2 2.5-2.3q-2.2.3-3.4 2.2-1.6.2-2.7 1.1l-24.5 14.2q-.7.4-.6 1.2-9.7.3-19.6.1l2.3-1.6 18.8-16.5c-.7-.8-2.3.4-3 .6l-27.8 16.2q-.9.5-1 1.5c-3.1.2-15.7.5-17.8-.9l7-5.6q.7-.6.7-1.5h1.4q1.5-.7 1.9-2c.6-.5 3.6-.8 2.4-2q-2.1 0-2.4 2-1.4-.3-2.3.8l-1.1.6q-6 3.2-11.8 7c-2.4-.4-10.8-2.9-11-5.7q1.2.3 2.2-.7a7 7 0 0 0 3-3c.6-.1 3.5-1 2.4-2q-1.9.2-2.5 2-2.4.2-4.2 1.7-.7 1.2-1.6 1.7c-11.7-5.5-8.2-30.7 8-30.5l-3.9 6.6q.4.3 1 .2 7.4-4 14.7-8.4l2.7-2c13-2.3 26.5-2.8 39.6-3.1Zm-135.1 1.1q-1.4 1.2-1.2 3-.8 0-1.4-.3a3 3 0 0 0-1.4 2.3c.6.7 1.3-.6 1.8-1l.8-.3c1-.9 4-1.6 4-3 7.8 1 13.5 11.2 15 18.1a11 11 0 0 0-3.7 3.7c-.6.5-3.4 2-2.6 3q1.5-.3 2.4-1.6l1-.2 4-2.3c1.2 9.5-4.6 20.4-14.5 22-3.2 0-15.6-2.8-16.5-6a3 3 0 0 0 1.4-1l7.3-8q-.8-.5-1.7 0l-8.7 5q-1 .5-1 1.5c-11.3-10.1-.1-34.1 15-34.9Zm9.6 9.8c.2-.1 1.7-.5.8-1a1 1 0 0 0-.8 1Zm442.2 6.8c1.3.3 4.6-2.3 2.6-2.6a5 5 0 0 0-2.6 2.6Zm-126 23a3 3 0 0 0-3 1.8c.8 1.3 2.7-.7 3-1.7.7 0 4-.7 2.4-1.9q-2 0-2.5 1.9Zm-137.5 1.4c.8 0 4-1.2 3-2.3q-2.4 0-3 2.3Zm-187.4.7c.7.5 2.3-.1 1.3-1q-.9 0-1.3 1Zm423.7 1.2c.6 0 1.6-.4.7-1q-.7.2-.7 1Z"/><path fill="#3e68ce" fill-opacity=".2" stroke="#3e68ce" stroke-opacity=".2" stroke-width=".5" d="M360 154c-.2 1-2.1 3-3 1.7a3 3 0 0 1 3-1.7Z"/><path fill="#3b6acc" fill-opacity=".3" stroke="#3b6acc" stroke-opacity=".3" stroke-width=".5" d="M222.6 155.3q.6-2.2 3-2.3c1 1-2.2 2.2-3 2.3Z"/><path fill="#3d6acd" fill-opacity=".4" stroke="#3d6acd" stroke-opacity=".4" stroke-width=".5" d="M446.9 151.2q.6-1.8 2.6-2.2c1 1.2-2 1.9-2.6 2.2Z"/><path fill="#3d69ce" fill-opacity=".5" stroke="#3d69ce" stroke-opacity=".5" stroke-width=".5" d="M134 148q.5-2 2.5-2c1.2 1.2-1.8 1.6-2.4 2Z"/><path fill="#3c6acf" fill-opacity=".4" stroke="#3c6acf" stroke-opacity=".4" stroke-width=".5" d="M347.9 147.1a3 3 0 0 1 2.7-2.1c1.3 1.1-2.1 1.7-2.7 2.1Z"/><path fill="#3c69cd" fill-opacity=".5" stroke="#3c69cd" stroke-opacity=".5" stroke-width=".5" d="M396 145.2q.5-2 2.5-2c1.3.9-2 1.5-2.6 2ZM35.1 156q.3-1 1.3-1c1 .9-.6 1.5-1.3 1Z"/><path fill="#3b69cd" fill-opacity=".2" stroke="#3b69cd" stroke-opacity=".2" stroke-width=".5" d="M43.9 124q0-.7.8-1c.9.6-.6 1-.8 1Z"/><path fill="#3d68ce" fill-opacity=".4" stroke="#3d68ce" stroke-opacity=".4" stroke-width=".5" d="M459 157.2q0-.8.6-1c.9.6 0 1-.7 1Z"/><path fill="#2b49ab" fill-opacity=".7" d="M234.3 227.4q-3.7.6-7.5.4.3-.6.9-.8c2.7-.8 4-1.3 6.6.4m29 0q-3.8.6-7.6.3c2.5-1.6 5-2 7.5-.3m87 0q-3.7.6-7.6.2 3.7-2.6 7.6-.2"/><path fill="#14255b" fill-opacity=".1" stroke="#14255b" stroke-opacity=".1" stroke-width=".5" d="m31.7 117 1.4.3-.2.7-.8.4zm16.5 19.8.8 1.2-1 .2zm250.8.2.9-.4v1.7zm119.9 111q.6 0 1.3.4v.2l-1.2.7zm-174.3 2q-.2 1.5 1 1.8c-1.1.7-3.1 2.3-4.5 2 .1-1.4 2.6-2.7 3.5-3.8Zm-22.7 8.1c-.1 1.3-2.6 3-3.5 3.9q.3-1.5-1-1.8 2-1.5 4.5-2Zm-35.3 3.2 1.3-.6.2 1.4-1.4-.5zM268.7 372l1.5.2-.2.8-1 .3zm-140 7.3 1.4-.6.2 1.2-1.6-.3z"/><path fill="#2c52ce" fill-opacity=".5" stroke="#2c52ce" stroke-opacity=".5" stroke-width=".5" d="m298.9 252.3.5.8c-.7.5-2.2 2.4-3 1.4q.8-1.6 2.5-2.2Zm-57.8 1.5c-.5 1-1.5 2.6-2.8 1.7q1-1.5 2.8-1.7Zm-19.2 4.3q.6-1.8 2.5-1.9c1.3 1-1.9 1.7-2.5 2Zm190 6a3 3 0 0 1 2.5-2c1.6 1-2 1.7-2.5 2Zm55 4c.4-1.1 1.6-2.5 2.8-1.6a5 5 0 0 1-2.8 1.6Z"/><path fill="#1e3699" fill-opacity=".1" stroke="#1e3699" stroke-opacity=".1" stroke-width=".5" d="M139 233a9 9 0 0 1 4 .3c-1.3.8-5.6 4-6.9 3.6-.4-1.3 2.4-2.6 3-3.9Z"/><path fill="#2c51cb" fill-opacity=".7" d="m341.7 284.1 7.6.1q-.3.6-1 .9-3.7 1.9-6.6-1"/><path fill="#2b48a7" fill-opacity=".8" d="m97.7 275.1 6.5 3.8c-3.3.2-5.5-.4-6.5-3.8"/><path fill="#2045b2" fill-opacity=".4" stroke="#2045b2" stroke-opacity=".4" stroke-width=".5" d="M378.9 388.1a3 3 0 0 1 2.6-2c1.3 1-2 2-2.6 2Zm51.4 2.8-.4-1.1c.7-.6 2-2.3 3-1.5q-1 1.7-2.6 2.6Zm-232 5.1-.3.7-1 .4q0-1.2 1.3-1Z"/><path fill="#2c50c7" fill-opacity=".7" d="m179 226.2.8.8q.8.2 1.5.7l-7.4.5c.3-1.8 3.8-1.9 5.1-2"/><path fill="#2b4ab1" fill-opacity=".7" d="M320.3 227.4q-3.3.8-6.6 0a6 6 0 0 1 6.6 0"/><path fill="#2b48a9" fill-opacity=".8" d="M375.3 227.8h-7.7a6 6 0 0 1 6.9-.8q.6.3.8.8"/><path fill="#2c4ec0" fill-opacity=".7" d="M413.3 228q-3.3 0-6.6-.6c1.9-1.4 5.5-2.1 6.6.6"/><path fill="#2c52ce" fill-opacity=".7" d="m433.9 226.3.9.6q.8.3 1.5 1-3.8.5-7.4.4c0-2 3.7-2 5-2"/><path fill="#2a469f" fill-opacity=".7" d="M34 227c-.8 1.2-4.9 1-6.2.8q3-2.6 6.2-.7"/><path fill="#2a46a1" fill-opacity=".8" d="M233.3 284.3q-3 2.2-6.3.7c.6-1.2 5-.8 6.3-.7"/><path fill="#254bb5" fill-opacity=".1" stroke="#254bb5" stroke-opacity=".1" stroke-width=".5" d="M302.6 249q-.3 1.4 1 1.7l-4.2 2.5-.5-1q1.9-1.4 3.7-3.2Z"/><path fill="#2c52ce" fill-opacity=".4" stroke="#2c52ce" stroke-opacity=".4" stroke-width=".5" d="M136.1 236.9c-.4.7-1.8 2.6-2.7 1.6q.8-1.8 2.7-1.6Zm321.6 48.3q2.4-.4 4.7-.3c-.3 1.4-4.3 1.7-4.7.3Z"/><path fill="#2d53ce" fill-opacity=".3" stroke="#2d53ce" stroke-opacity=".3" stroke-width=".5" d="m372.9 234.7.2 1.5c-.8 1-4.2 3.5-5 2.5z"/><path fill="#193e9c" fill-opacity=".1" stroke="#193e9c" stroke-opacity=".1" stroke-width=".5" d="M442.6 370q-.3 1.4 1 1.7-2 1.4-4.3 2.4l-.4-.7z"/><path fill="#2b4cb7" fill-opacity=".8" d="m485.8 227.4 1.1.8q1-.2 1.2.8-3 .3-5.5-1.1c.4-1.1 2.4-.9 3.2-.5"/><path fill="#3258ab" fill-opacity=".1" stroke="#3258ab" stroke-opacity=".1" stroke-width=".5" d="m199 141.2 1 .1q-1.2 1.6-2.6 2.7.3-1.4-1-1.7 1-1 2.6-1.1Z"/><path fill="#2d53ce" fill-opacity=".3" stroke="#2d53ce" stroke-opacity=".3" stroke-width=".5" d="M150.8 241.2q.1-.8.8-1c1 .5-.6.9-.8 1Zm268 6.7.2 1.4c-.5.7-2 2.3-2.9 1.3q1-1.7 2.8-2.7Z"/><path fill="#1f46b2" fill-opacity=".7" d="M322 403.8h6c.3 2-6.6 2-6 0"/><path fill="#1f46b2" fill-opacity=".3" stroke="#1f46b2" stroke-opacity=".3" stroke-width=".5" d="m130.3 380-.2-1.3c.5-.7 1.9-2.2 2.7-1.4a7 7 0 0 1-2.5 2.6Z"/><path fill="#2c52ce" fill-opacity=".3" stroke="#2c52ce" stroke-opacity=".3" stroke-width=".5" d="M188 262v-1.3c.5-.6 2-2.2 2.8-1.3q-1 1.6-2.7 2.7Z"/><path fill="#1f45b2" fill-opacity=".8" d="M261 404.1q2.6-.8 5.1.1c0 1.2-5.5 1.2-5.2-.1"/><path fill="#2c53ce" fill-opacity=".4" stroke="#2c53ce" stroke-opacity=".4" stroke-width=".5" d="m161.3 259.9-.4-1.2c.7-.5 1.9-2.1 2.7-1.2q-.7 1.5-2.3 2.4Z"/><path fill="#2b51cc" fill-opacity=".3" stroke="#2b51cc" stroke-opacity=".3" stroke-width=".5" d="M494 255v1.2q-.7 1.6-2.4 1.8c-.9-1 1.7-2.5 2.3-3Z"/><path fill="#181f38" fill-opacity=".1" stroke="#181f38" stroke-opacity=".1" stroke-width=".5" d="M496.4 252.9q.4.7.4 1.8a3 3 0 0 1-2.8 1.6V255q1.5-.5 2.4-2.2Z"/><path fill="#1f44b1" fill-opacity=".4" stroke="#1f44b1" stroke-opacity=".4" stroke-width=".5" d="M268.7 372q.1.8.4 1.3c-.7.6-2 2.2-2.8 1.2q.9-1.6 2.4-2.5Z"/><path fill="#1f45b2" fill-opacity=".6" stroke="#1f45b2" stroke-opacity=".6" stroke-width=".5" d="m439 373.4.3.7c-.5.6-2.2 2.5-2.9 1.4a4 4 0 0 1 2.5-2.1Z"/><path fill="#28314f" fill-opacity=".7" d="M462 226.2c.1 1.5-3.6.7-4.3.2q2.1-.6 4.3-.2"/><path fill="#1f45b1" fill-opacity=".3" stroke="#1f45b1" stroke-opacity=".3" stroke-width=".5" d="M355 389q-.5 1.4-1.8 2l-.4-1.3q.9-.9 2.1-.7Zm136 10 1.2-.2q-.4 1.1-1.6 1.1z"/><path fill="#2d4cb3" fill-opacity=".5" d="M138 227q-2.2 0-4.3-.2 1.7-1.2 3.7-.7.8.1.6.9"/><path fill="#2a4085" fill-opacity=".6" d="M370.7 285.1c.8 0 3.4-.6 3.4.7-1 .2-3 .5-3.4-.7"/><path fill="#2e53ce" fill-opacity=".4" stroke="#2e53ce" stroke-opacity=".4" stroke-width=".5" d="m153.7 238 .3 1.2q-.3.8-1 .1-.2-.9.7-1.2Z"/><path fill="#2e51d1" fill-opacity=".2" stroke="#2e51d1" stroke-opacity=".2" stroke-width=".5" d="M201.8 226.5q1-.3 1.2.7zm284 1q1-.4 1.1.7z"/><path fill="#2a53cc" fill-opacity=".2" d="M179 226.2q1-.2.8.8zm112.8.3q1.2-.4 1.3.8z"/><path fill="#2b50c2" fill-opacity=".3" d="M503.1 270.7c0 .8 0 2.4-1.2 2.2v-.9q.3-.9 1.2-1.3"/><path fill="#2b51d0" fill-opacity=".2" stroke="#2b51d0" stroke-opacity=".2" stroke-width=".5" d="M433.9 226.3q.9-.3.9.6zM53.1 257.9l-.2 1-.8.2q.1-.9 1-1.2Z"/><path fill="#2c49af" fill-opacity=".4" d="m97.3 237-1.1 1.3q-.1-1.2 1.1-1.3m-1.1 1.3-1.2 1.1q0-1.2 1.2-1"/><path fill="#23335f" fill-opacity=".5" d="M36.3 404.3q-.7.5-1.6.5a3 3 0 0 1 1.6-.5"/><path fill="#2b4db3" fill-opacity=".4" d="m281.3 278-.5.6h-1.1q.6-.6 1.6-.7"/><path fill="#2d48a1" fill-opacity=".2" stroke="#2d48a1" stroke-opacity=".2" stroke-width=".5" d="m200.4 278-.5.8-1 .1q.5-.9 1.4-.9Z"/><path fill="#22387a" fill-opacity=".5" d="M115.3 346.2q-.7.6-1.6.7.7-.7 1.6-.7"/><path fill="#213981" fill-opacity=".5" d="M486.8 347.2q.8 0 1.5.7-1 0-1.6-.7"/><path fill="#1e44b1" fill-opacity=".4" d="M309.4 403.9q-.6.9-1.7 1 .6-1 1.7-1"/><path fill="#233975" fill-opacity=".5" d="M283.6 404.2q1 0 1.7.6-1 0-1.7-.6"/><path fill="#2b4cac" fill-opacity=".3" stroke="#2b4cac" stroke-opacity=".3" stroke-width=".5" d="M320.2 233.4h1.1a2 2 0 0 1-1.6.7z"/><path fill="#314573" fill-opacity=".5" d="M115.3 107.2q-.7.6-1.5.7.4-.8 1.5-.7"/><path fill="#2a53d0" fill-opacity=".2" stroke="#2a53d0" stroke-opacity=".2" stroke-width=".5" d="M392.8 226.5q1.1-.3 1.3.7z"/><path fill="#2f4269" fill-opacity=".5" d="M18 161q.6.3 1 .8-.6 0-1-.7"/><path fill="#1e46b2" fill-opacity=".3" stroke="#1e46b2" stroke-opacity=".3" stroke-width=".5" d="m115.2 393.2-.5.7-1-.2q.6-.6 1.5-.5Z"/><path fill="#2146b1" fill-opacity=".2" stroke="#2146b1" stroke-opacity=".2" stroke-width=".5" d="M502 392.7q-.3 1-1.3 1.2.4-.9 1.3-1.2Z"/><path fill="#243b89" fill-opacity=".2" stroke="#243b89" stroke-opacity=".2" stroke-width=".5" d="m96.2 393.8 1 1q-1 0-1-1Z"/><path fill="#3759a9" fill-opacity=".9" d="M116.2 119.1q-.3.7-1 .8 0-.8 1-.8"/><path fill="#1d45b1" fill-opacity=".3" stroke="#1d45b1" stroke-opacity=".3" stroke-width=".5" d="m229.2 396.2-.3.5-1 .4q.2-1 1.3-1Z"/><path fill="#2046b0" fill-opacity=".2" stroke="#2046b0" stroke-opacity=".2" stroke-width=".5" d="m449.2 396.2-.3.5-1 .3q.3-1 1.3-.8Z"/><path fill="#1e43a0" fill-opacity=".4" d="M497.2 396q-.5 1-1.5 1 .5-.9 1.5-1"/><path fill="#1f3f9a" fill-opacity=".6" d="M495 397q-.2 1-1.3 1 .3-1 1.4-1"/><path fill="#2d51ce" fill-opacity=".2" stroke="#2d51ce" stroke-opacity=".2" stroke-width=".5" d="m264 283.2 1.2-.3q-.4 1-1.5.8 0-.2.3-.5Z"/><path fill="#2043aa" fill-opacity=".5" d="M500.2 394q-.4 1-1.4.8a2 2 0 0 1 1.4-.8m-1.4.8q0 1-1 1.2.3-.8 1-1.2"/><path fill="#2b49ab" fill-opacity=".8" d="m291.8 226.5 1.3.8c-.4 1-5.4.3-6.4.3a7 7 0 0 1 5.1-1.1"/><path fill="#2b49ac" fill-opacity=".8" d="m201.8 226.5 1.2.7c-.2 1-5.4.5-6.4.5a7 7 0 0 1 5.2-1.2m191 0 1.3.7c-.8 1.2-5.2.5-6.5.4q2.5-1.5 5.2-1.1"/><path fill="#2b4bb1" fill-opacity=".8" d="M160.3 227.8h-4.9q-1.2.2-1.3-.9c1.6-1 5.2-.6 6.2 1"/><path fill="#2d53cb" fill-opacity=".1" stroke="#2d53cb" stroke-opacity=".1" stroke-width=".5" d="M478.7 276q.2-.6.9-.8c1 .5-.7.8-1 .8Z"/><path fill="#2c52cf" fill-opacity=".5" stroke="#2c52cf" stroke-opacity=".5" stroke-width=".5" d="M305.7 274.3q.6-2.1 2.8-2.3c1.3 1-2.1 2.2-2.8 2.3Z"/><path fill="#2c52cd" fill-opacity=".5" stroke="#2c52cd" stroke-opacity=".5" stroke-width=".5" d="M402.2 243c-.4.7-2.1 2.7-3 1.6.2-1.2 2-1.5 3-1.7Z"/><path fill="#2c52cf" fill-opacity=".5" stroke="#2c52cf" stroke-opacity=".5" stroke-width=".5" d="M394.8 234c-.3 1-1.7 2.8-2.7 1.6.2-1.3 1.8-1.3 2.7-1.5Z"/><path fill="#2045b3" fill-opacity=".4" stroke="#2045b3" stroke-opacity=".4" stroke-width=".5" d="M305.9 395.3q.4-1.2 1.6-1.5c1 .9-1 1.4-1.6 1.5Z"/><path fill="#1f45b2" fill-opacity=".5" stroke="#1f45b2" stroke-opacity=".5" stroke-width=".5" d="M405 361.9c-.2 1-1.9 2.8-2.8 1.7q1-1.4 2.9-1.7Zm-50 27q.3-2 2.4-1.9c1.2 1.2-1.8 1.6-2.4 2Z"/><path fill="#2045b2" fill-opacity=".4" stroke="#2045b2" stroke-opacity=".4" stroke-width=".5" d="M477 365c.4-1 3.5-3.2 4.6-3.7 2.7.7-3.4 3.9-4.5 3.7Z"/></svg>