<?xml version="1.0" encoding="UTF-8"?>
<!DOCTYPE svg PUBLIC "-//W3C//DTD SVG 1.1//EN" "http://www.w3.org/Graphics/SVG/1.1/DTD/svg11.dtd">
<svg xmlns="http://www.w3.org/2000/svg" version="1.1" width="512px" height="512px" style="shape-rendering:geometricPrecision; text-rendering:geometricPrecision; image-rendering:optimizeQuality; fill-rule:evenodd; clip-rule:evenodd" xmlns:xlink="http://www.w3.org/1999/xlink">
<g><path fill="#3c69ce" fill-opacity="0.506" stroke="#3c69ce" stroke-width="0.5" stroke-opacity="0.506" d="M 31.68,117.04 c 0.12,0.44 0.25,0.88 0.38,1.32 c -0.45,0.31 -1.2,1.59 -1.8,0.92 c 0.11,-0.95 0.58,-1.7 1.42,-2.24 Z M 486.09,130.93 c 0.48,-1.24 1.35,-2.12 2.59,-2.65 c 2.02,0.34 -1.24,2.94 -2.59,2.65 Z M 331.92,138.11 c 0.5,-1.11 1.33,-1.77 2.5,-1.99 c 0.91,1.01 -2.01,1.63 -2.5,1.99 Z M 360.05,153.98 c 0.35,-1.21 1.17,-1.84 2.46,-1.88 c 1.51,1.22 -1.66,1.83 -2.46,1.88 Z"/></g>
<g><path fill="#3c69cf" fill-opacity="0.388" stroke="#3c69cf" stroke-width="0.5" stroke-opacity="0.388" d="M 199.92,141.3 c -0.32,-0.05 -0.63,-0.1 -0.95,-0.14 c 0.81,-1.24 1.95,-1.95 3.42,-2.14 c 0.88,1.06 -1.96,1.82 -2.47,2.28 Z M 113.03,146.96 c 0.4,-1.17 1.22,-1.81 2.45,-1.93 c 1.15,1.06 -1.79,1.83 -2.45,1.93 Z"/></g>
<g><path fill="#3b65c4" fill-opacity="0.725" d="M 102.78,159.98 c 1.98,0.36 3.82,1.08 5.52,2.17 c -0.27,1.06 -2.62,0.55 -3.4,0.42 c -1.3,-0.41 -2,-1.27 -2.12,-2.59 Z"/></g>
<g><path fill="#355db4" fill-opacity="0.141" stroke="#355db4" stroke-width="0.5" stroke-opacity="0.141" d="M 227.6,128.97 c -0.22,0.95 0.12,1.52 1.04,1.73 c -1.3,0.89 -2.72,1.64 -4.29,2.26 c -0.1,-0.18 -0.2,-0.36 -0.3,-0.55 c 1.05,-1.28 2.23,-2.43 3.55,-3.44 Z"/></g>
<g><path fill="#4065c9" fill-opacity="0.208" stroke="#4065c9" stroke-width="0.5" stroke-opacity="0.208" d="M 113.03,146.96 c -0.65,1.35 -1.64,2.36 -2.96,3.05 c -0.1,-0.76 -0.53,-1.18 -1.29,-1.27 c 1.25,-1 2.67,-1.59 4.25,-1.78 Z"/></g>
<g><path fill="#3d69ce" fill-opacity="0.329" stroke="#3d69ce" stroke-width="0.5" stroke-opacity="0.329" d="M 159.68,121.07 c 0.16,0.4 0.31,0.8 0.46,1.2 c -0.75,0.57 -2.12,2.22 -3.07,1.34 c 0.69,-1.04 1.56,-1.89 2.61,-2.54 Z"/></g>
<g><path fill="#395fb4" fill-opacity="0.788" d="M 277.93,164.96 c 1.23,0.21 4.59,-0.45 5.09,0.98 c -1.39,0.44 -4.61,0.75 -5.09,-0.98 Z"/></g>
<g><path fill="#3c69ce" fill-opacity="0.525" stroke="#3c69ce" stroke-width="0.5" stroke-opacity="0.525" d="M 224.05,132.41 c 0.1,0.19 0.2,0.37 0.3,0.55 c -0.6,0.58 -2,2.54 -2.93,1.48 c 0.49,-1.16 1.36,-1.84 2.63,-2.03 Z"/></g>
<g><path fill="#3d69ce" fill-opacity="0.302" stroke="#3d69ce" stroke-width="0.5" stroke-opacity="0.302" d="M 180.01,123.01 c 0.02,0.46 0.04,0.91 0.06,1.37 c -0.73,0.59 -2.08,2.19 -3.01,1.22 c 0.73,-1.13 1.71,-1.99 2.95,-2.59 Z"/></g>
<g><path fill="#3c69cf" fill-opacity="0.361" stroke="#3c69cf" stroke-width="0.5" stroke-opacity="0.361" d="M 48.17,136.84 c -0.05,0.46 -0.11,0.93 -0.16,1.39 c -0.58,0.87 -1.39,1.4 -2.42,1.57 c -0.74,-0.91 2.02,-2.49 2.58,-2.96 Z"/></g>
<g><path fill="#3c69ce" fill-opacity="0.275" stroke="#3c69ce" stroke-width="0.5" stroke-opacity="0.275" d="M 299.81,138.27 c 0.03,-0.55 0.05,-1.1 0.08,-1.65 c 0.76,-0.44 1.95,-2.07 2.85,-1.29 c -0.58,1.37 -1.55,2.35 -2.93,2.94 Z"/></g>
<g><path fill="#3c69ce" fill-opacity="0.761" d="M 34.68,165.09 c 1.48,-0.13 2.96,-0.13 4.44,-0.01 c -0.05,0.2 -0.1,0.4 -0.15,0.6 c -1.28,0.3 -3.55,0.82 -4.29,-0.59 Z"/></g>
<g><path fill="#3b69cd" fill-opacity="0.224" stroke="#3b69cd" stroke-width="0.5" stroke-opacity="0.224" d="M 134.08,147.93 c -0.32,0.94 -0.93,1.6 -1.85,1.99 c -0.13,-0.39 -0.27,-0.77 -0.4,-1.16 c 0.6,-0.64 1.35,-0.91 2.25,-0.83 Z"/></g>
<g><path fill="#3b67ce" fill-opacity="0.204" stroke="#3b67ce" stroke-width="0.5" stroke-opacity="0.204" d="M 19.06,161.77 c 0.6,0.22 1.02,0.63 1.25,1.21 c -0.78,-0.03 -1.19,-0.43 -1.25,-1.21 Z"/></g>
<g><path fill="#3b6bd0" fill-opacity="0.169" stroke="#3b6bd0" stroke-width="0.5" stroke-opacity="0.169" d="M 39.12,165.08 c 0.36,-0.05 0.73,-0.11 1.09,-0.16 c -0.15,0.67 -0.57,0.93 -1.24,0.76 c 0.05,-0.2 0.1,-0.4 0.15,-0.6 Z"/></g>
<g><path fill="#262626" fill-opacity="0.996" stroke="#262626" stroke-width="0.5" stroke-opacity="0.996" d="M 283.02,165.94 c -0.5,-1.43 -3.86,-0.77 -5.09,-0.98 c -8.85,0.33 -22.22,-1.09 -30.4,1.35 c -4.38,-1.06 -8.6,-0.2 -13.03,-0.21 c -39.03,1.77 -88.85,8.15 -126.2,-3.95 c -1.7,-1.09 -3.54,-1.81 -5.52,-2.17 c -8.33,-5.7 -14.83,-11.47 -14.99,-22.48 c 0.91,-16.08 10.61,-26.07 25.96,-29.64 c 0.59,-0.03 1.1,-0.26 1.51,-0.68 c 18.41,-2.55 35.73,-0.64 54.24,-0.22 c 103.32,-0.13 206.63,-0.29 309.95,-0.49 c 21.63,0.09 34.08,19.81 27.2,39.83 c -8.94,24.14 -33.34,19.89 -54.15,20.62 c -52.31,0.23 -104.62,0.07 -156.93,-0.48 c -3.6,0.34 -9.51,-1.22 -12.55,-0.5 Z M 40.21,164.92 c -0.36,0.05 -0.73,0.11 -1.09,0.16 c -1.48,-0.12 -2.96,-0.12 -4.44,0.01 c -4.83,-0.49 -9.62,-1.19 -14.37,-2.11 c -0.23,-0.58 -0.65,-0.99 -1.25,-1.21 c -0.31,-0.3 -0.66,-0.53 -1.06,-0.71 c -28.73,-13.16 -15.29,-48.71 11.65,-53.73 c 42.6,-4.7 49.62,50.65 10.56,57.59 Z M 129.74,116.25 c -4.62,0.45 -9.13,1.42 -13.53,2.88 c -0.62,-0.06 -0.96,0.2 -1.02,0.8 c -16.17,-0.26 -19.72,25 -8,30.46 c 0,0.42 0.21,0.54 0.63,0.36 c 0.27,2.77 8.73,5.24 11.09,5.68 c 1.35,0.53 2.75,0.76 4.2,0.69 c 2.11,1.42 14.68,1.04 17.87,0.93 c 3.54,-0.1 7.09,-0.18 10.63,-0.25 c 6.54,0.08 13.09,0.06 19.63,-0.07 c 3.17,0.27 6.34,0.25 9.5,-0.05 c 19.18,0.24 38.36,0.26 57.54,0.04 c 2.44,0.25 4.88,0.24 7.32,-0.01 c 6.23,0.33 12.45,0.3 18.67,-0.08 c 4.79,0.33 9.58,0.38 14.37,0.15 c 6.5,0.12 13,0.12 19.5,0.01 c 4.17,0.15 8.34,0.17 12.51,0.04 c 6.17,0.18 12.33,0.14 18.49,-0.11 c 1.84,0.27 3.68,0.27 5.53,0.01 c 13.21,-0.03 26.43,-0.04 39.65,-0.02 c 2.13,0.33 4.26,0.29 6.38,-0.1 c 18.14,0.34 36.29,0.4 54.44,0.18 c 1.52,0.16 3.03,0.14 4.54,-0.04 c 9.6,0.12 19.2,0.15 28.8,0.09 c 14.14,0.7 25.32,-1.73 28.27,-17.51 c 3.45,-21.98 -25.44,-25.36 -40.92,-26.32 c -2.16,-0.56 -4.34,-0.78 -6.56,-0.65 c -8.13,-1.09 -15.92,1.29 -23.74,0.54 c -5.87,0.12 -11.73,0.45 -17.58,1 c -1.88,-0.06 -3.75,0.04 -5.61,0.27 c -6.76,0.21 -13.48,0.71 -20.18,1.5 c -2.44,-0.93 -9.03,0.01 -12.02,-0.39 c -6,-0.23 -12,-0.45 -18,-0.67 c -0.74,-0.49 -14.77,1.04 -16.87,1.24 c -6.87,-0.18 -13.74,-0.12 -20.6,0.17 c -1.8,-0.69 -3.58,-0.66 -5.37,0.09 c -1.25,-1.55 -15.93,-0.58 -18.72,-0.93 c -12.16,-0.8 -24.33,-1.26 -36.52,-1.37 c -2.9,-0.39 -5.82,-0.58 -8.75,-0.58 c -5.68,0 -13.03,-0.85 -18.53,-0.03 c -2.46,-0.97 -7.78,-0.67 -10.63,-0.91 c -5.78,-0.21 -11.57,-0.26 -17.36,-0.16 c -2.23,-0.13 -4.48,-0.19 -6.72,-0.19 c -5.8,0.01 -11.59,0.06 -17.39,0.16 c -1.78,-0.11 -3.56,-0.08 -5.33,0.07 c -13.12,0.3 -26.67,0.85 -39.61,3.08 Z M 19.23,149.22 c 0.32,1.47 1.23,2.3 2.74,2.49 c 0.94,3.22 13.3,5.94 16.51,6 c 9.91,-1.64 15.72,-12.56 14.45,-22 c -0.06,-0.99 -0.42,-1.85 -1.1,-2.57 c -1.45,-6.92 -7.09,-17.21 -15,-18.21 c -0.74,-0.61 -1.6,-0.81 -2.57,-0.63 c -15.06,0.8 -26.29,24.8 -15.03,34.92 Z M 462.01,226.15 c 6.92,0.13 13.8,0.71 20.64,1.75 c 1.69,0.91 3.5,1.27 5.41,1.07 c 2.56,1.4 5.21,2.62 7.96,3.65 c 14.46,8.92 18.51,24.65 7.08,38.1 c -0.57,0.28 -0.97,0.71 -1.19,1.31 c -0.34,-0.03 -0.67,0.03 -0.98,0.16 c -6.48,5.12 -14.76,7.64 -22.63,9.61 c -0.77,0.24 -1.35,0.7 -1.74,1.39 c -0.27,-0.38 -0.62,-0.64 -1.05,-0.79 c -4.37,0.8 -8.72,1.63 -13.07,2.5 c -1.58,-0.12 -3.16,-0.03 -4.73,0.26 c -27.3,2.45 -54.32,1.6 -81.65,0.25 c -0.7,-0.06 -1.36,0.07 -1.99,0.38 c 0,-1.33 -2.6,-0.62 -3.38,-0.69 c -7.13,-0.16 -14.25,-0.46 -21.37,-0.9 c -2.54,-0.11 -5.08,-0.15 -7.62,-0.1 c -4.43,-0.64 -8.88,-0.93 -13.35,-0.88 c -3.45,-0.22 -6.9,-0.33 -10.35,-0.33 c -2.87,-0.1 -5.72,-0.04 -8.56,0.18 c -3.16,-0.27 -6.33,-0.32 -9.5,-0.16 c -4.22,0.15 -8.41,0.62 -12.57,1.42 c -2.51,-0.82 -5.08,-1.15 -7.71,-1.01 c -4.82,-0.49 -9.66,-0.64 -14.51,-0.46 c -0.39,0.11 -0.79,0.21 -1.18,0.32 c -2.55,-0.75 -6.37,-0.03 -9.12,-0.21 c -7.18,0.36 -14.36,0.79 -21.53,1.28 c -1.29,-0.05 -5.69,-0.48 -6.36,0.79 c -12.08,-0.21 -25.26,1.29 -37.46,1.82 c -23.27,0.56 -47.08,1.71 -70,-2.97 c -0.88,-0.07 -1.75,-0.03 -2.62,0.13 c -0.16,-0.65 -0.6,-1.03 -1.3,-1.13 c -1.91,-0.59 -3.83,-1.1 -5.77,-1.52 c -1.84,-0.89 -3.72,-1.72 -5.63,-2.46 c -2.2,-1.23 -4.37,-2.49 -6.52,-3.77 c -12.63,-9.77 -12.17,-23.87 -2.65,-35.72 c 0.39,-0.36 0.79,-0.72 1.18,-1.08 c 0.39,-0.44 0.77,-0.9 1.13,-1.37 c 3.78,-2.96 7.91,-5.31 12.39,-7.05 c 3.21,-0.75 6.42,-1.45 9.65,-2.12 c 4.76,-0.58 9.53,-0.92 14.32,-1.04 c 1.44,0.19 2.89,0.26 4.34,0.23 c 4.1,-0.43 12.7,1.13 16.09,-0.08 c 0.09,0.72 0.53,1.03 1.32,0.94 c 1.62,0.1 3.24,0.1 4.86,-0.01 c 4.52,0.25 9.06,0.36 13.59,0.33 c 2.47,-0.1 4.94,-0.24 7.41,-0.45 c 5.11,0.13 10.22,0.12 15.33,-0.04 c 0.94,0 6.19,0.58 6.4,-0.44 c 5.62,1.21 17.47,0.29 23.81,0.55 c 2.5,0.14 4.97,0.02 7.42,-0.35 c 4.44,0.73 16.26,0.34 21.43,0.22 c 2.53,0.25 5.05,0.17 7.56,-0.22 c 4.8,0.71 17.83,0.37 23.43,0.2 c 1.01,-0.05 6.06,0.66 6.41,-0.34 c 2.37,0.8 18.55,0.96 20.61,0.03 c 2.2,0.56 4.39,0.58 6.6,0.06 c 4.02,0.8 17.53,0.43 22.46,0.22 c 2.52,0.3 5.02,0.23 7.51,-0.21 c 3.48,0.85 13.22,0.28 17.35,0.33 c 2.56,0.18 5.12,0.21 7.69,0.07 c 4.11,0.07 8.21,0.02 12.31,-0.16 c 1.33,0.05 5.68,0.75 6.52,-0.4 c 3.5,0.89 8.99,0.81 12.61,0.18 c 2.16,0.41 4.34,0.6 6.54,0.56 c 5.18,0.81 10.39,0.91 15.61,0.28 c 2.49,0.14 4.96,-0.01 7.42,-0.42 c 7.14,-0.48 14.28,-0.96 21.42,-1.45 c 0.72,0.47 4.38,1.26 4.28,-0.24 Z M 34.04,227.09 c 26.82,-2.85 41.64,26.5 25.03,46.48 c -37.2,38.9 -89.36,-24.94 -31.28,-45.8 c 1.31,0.24 5.38,0.4 6.25,-0.68 Z M 420.81,232.05 c -2.19,-0.27 -4.37,-0.23 -6.55,0.12 c -6.3,0.33 -13.31,0.37 -19.42,1.89 c -0.02,-0.35 -0.19,-0.59 -0.53,-0.72 c -5.14,0.89 -15.8,-0.25 -19.92,2.41 c -0.42,-0.46 -0.93,-0.81 -1.51,-1.03 c -0.34,-0.4 -0.79,-0.57 -1.36,-0.53 c -5.24,-0.13 -10.48,-0.17 -15.72,-0.1 c -1.76,-0.87 -3.61,-1.14 -5.56,-0.81 c -5.81,-0.32 -11.63,-0.34 -17.45,-0.08 c -3.83,-0.25 -7.65,-0.21 -11.46,0.12 c -0.38,0.01 -0.76,0.02 -1.14,0.03 c -5.42,-0.57 -12.04,-0.49 -17.43,0.01 c -2.8,-0.41 -5.6,-0.43 -8.4,-0.06 c -5.29,-0.38 -12.43,-0.57 -17.58,0.11 c -4.5,-0.45 -9,-0.49 -13.51,-0.11 c -5.84,-0.37 -11.68,-0.37 -17.53,0 c -3.82,-0.33 -7.65,-0.35 -11.47,-0.06 c -5.32,-0.29 -12.45,-0.49 -17.62,0.13 c -4.1,-0.4 -8.21,-0.44 -12.32,-0.1 c -5.86,-0.29 -11.72,-0.33 -17.59,-0.12 c -1.8,-0.16 -3.59,-0.15 -5.39,0.04 c -5.35,-0.15 -12.47,-0.47 -17.65,0.16 c -1.15,-0.23 -2.3,-0.26 -3.45,-0.11 c -5.78,-0.31 -11.57,-0.29 -17.34,0.05 c -1.26,-0.36 -2.54,-0.44 -3.84,-0.25 c -20.1,-1.85 -42.64,0.42 -38.48,26.95 c 1.11,6.59 4.58,11.5 10.4,14.71 c 0.64,0.26 1.23,0.6 1.77,1.03 c 4.06,1.13 12.17,4.29 15.94,1.49 c 0.06,0.71 0.36,1.27 0.91,1.7 c 3.32,0.13 6.65,0.15 9.99,0.05 c 5.92,0.1 11.83,0.01 17.75,-0.27 c 3.77,0.31 7.54,0.35 11.32,0.12 c 5.85,0.23 11.69,0.21 17.53,-0.07 c 4.25,0.22 8.5,0.28 12.75,0.18 c 0.31,-0.03 0.62,-0.06 0.93,-0.09 c 5.25,0.12 12.26,0.45 17.33,-0.21 c 2.8,0.43 5.59,0.45 8.39,0.07 c 5.88,0.34 11.77,0.37 17.66,0.08 c 4.13,0.26 8.24,0.23 12.36,-0.06 c 5.85,0.34 11.71,0.34 17.56,0.01 c 2.19,0.36 4.36,0.31 6.5,-0.14 c 0.37,0.01 0.74,0.02 1.11,0.02 c 18.51,0.23 37.02,0.31 55.52,0.24 c 1.8,0.2 3.59,0.14 5.37,-0.16 c 5.21,0.47 12.5,0.48 17.59,-0.03 c 3.12,0.35 6.25,0.41 9.39,0.17 c 6.19,0.24 12.39,0.2 18.58,-0.12 c 2.47,0.33 4.94,0.35 7.42,0.06 c 17.85,0.25 35.69,0.22 53.54,-0.07 c 2.83,0.34 5.68,0.36 8.52,0.06 c 5.94,-0.42 16.09,1.65 20.83,-2.52 c 0.15,0.87 0.17,1.76 0.08,2.64 c 14.25,0.56 20.09,-11.57 19.13,-24.22 c 0.08,-0.65 -0.06,-1.25 -0.4,-1.81 c -0.62,-12.24 -16.87,-16.48 -26.47,-19.08 c -1.87,-0.6 -3.79,-0.95 -5.76,-1.03 c -3.01,-0.92 -10.72,-1.45 -14.26,-1.36 c -4.19,-0.37 -8.38,-0.45 -12.59,-0.24 c -5.52,-0.29 -11.01,0.02 -16.47,0.91 Z M 15.08,255.23 c -0.06,0.88 -0.04,1.76 0.09,2.63 c 0.11,3.17 2.5,9.17 4.92,11.11 c 0.89,1.76 2.21,3.07 3.97,3.92 c 6.24,5.64 13.76,5.37 20.8,1.44 c 0.66,-0.36 1.1,-0.89 1.32,-1.61 c 5.08,-3.23 7.31,-7.83 6.71,-13.8 c 0.05,-0.35 0.11,-0.69 0.17,-1.03 c 0.19,-1.67 -0.02,-3.3 -0.61,-4.88 c -0.56,-3.02 -2.74,-9.01 -5.8,-10.23 c 0.47,-1.18 -0.89,-2.06 -1.69,-2.68 c -12.68,-13.22 -30.52,-1.01 -29.88,15.13 Z M 486.75,347.16 c 0.39,0.49 0.9,0.73 1.53,0.72 c 20.82,8.05 28.46,26.46 13.69,44.86 c -0.58,0.21 -0.99,0.6 -1.23,1.17 c -0.19,0.04 -0.38,0.07 -0.57,0.1 c -0.58,0.06 -1.04,0.31 -1.4,0.76 c -0.44,0.3 -0.76,0.7 -0.96,1.2 c -0.22,0.02 -0.44,0.03 -0.65,0.04 c -0.68,0.09 -1.16,0.44 -1.46,1.06 c -0.22,-0.05 -0.43,-0.09 -0.64,-0.14 c -0.65,0.11 -1.12,0.46 -1.41,1.05 c -0.42,0.45 -0.92,0.73 -1.5,0.85 c -0.37,0.09 -0.74,0.17 -1.11,0.26 c -4.44,1.35 -8.89,2.67 -13.36,3.96 c -48.39,9.33 -100.69,2.15 -149.67,0.8 c -1.98,-0.16 -3.97,-0.19 -5.96,-0.09 c -3.79,-0.04 -9.03,-0.97 -12.67,0.09 c -0.74,0.03 -1.29,0.35 -1.65,0.96 c -2.32,1.34 -3.83,-1.11 -6.21,-1.05 c -5.47,-0.34 -10.95,1.99 -16.24,1.03 c -0.48,-0.4 -1.04,-0.59 -1.66,-0.59 c -4.73,-0.24 -13.16,-1.48 -17.48,0.01 c -1.71,-0.57 -3.45,-0.61 -5.19,-0.11 c -4.58,-0.62 -10.71,0.07 -15.45,0.14 c -40.75,1.99 -87.04,8.43 -127.02,-0.14 c -0.88,-0.13 -1.76,-0.17 -2.65,-0.11 c -0.35,-1.34 -4.95,-2.02 -6.21,-2.01 c -4.25,-2.15 -8.37,-4.56 -12.35,-7.22 c -0.36,-0.31 -0.72,-0.63 -1.08,-0.95 c -18.37,-17.5 -4.46,-42.07 17.48,-46.91 c 0.61,-0.05 1.15,-0.27 1.62,-0.66 c 6.39,-0.32 12.8,-0.43 19.21,-0.35 c 92.66,0.08 185.32,0.04 277.98,-0.13 c 2.53,0.37 4.28,1.3 7.02,1.05 c 22.61,-0.36 44.89,-4.93 67.25,0.35 Z M 36.28,404.32 c -0.59,0.01 -1.13,0.17 -1.62,0.49 c -1.98,0.48 -9.22,-1.05 -11.65,-1.34 c -30.88,-8.16 -23.09,-53.26 7.43,-57.38 c 46.18,-3.07 45,54.75 5.84,58.23 Z M 109.32,391.04 c -0.11,1.39 3.38,2.83 4.39,2.64 c 0.33,0.08 0.66,0.16 0.98,0.24 c 1.59,1.92 11.89,3.54 14.57,2.95 c 3.59,0.83 7.87,1.14 11.42,0.06 c 3.6,0.41 14.16,0.05 18.49,-0.02 c 1.84,0.15 3.69,0.15 5.53,0.01 c 6.18,0.19 12.36,0.16 18.53,-0.08 c 4.56,0.18 9.12,0.25 13.68,0.23 c 0.36,-0.12 0.72,-0.24 1.07,-0.36 c 4.26,0.62 13.58,0.41 18.26,0.08 c 3.86,0.22 7.72,0.32 11.6,0.29 c 0.34,-0.13 0.69,-0.26 1.03,-0.38 c 4.82,0.68 13.29,0.33 18.43,0.14 c 4.81,0.22 9.62,0.25 14.43,0.11 c 6.18,0.16 12.35,0.13 18.52,-0.1 c 1.47,0.19 2.94,0.23 4.42,0.11 c 18.84,0.12 37.68,0.11 56.52,-0.03 c 1.49,0.1 2.98,0.08 4.47,-0.04 c 5.85,0.2 11.69,0.21 17.54,0.01 c 1.82,0.08 3.63,0.08 5.45,0.02 c 6.17,0.15 12.35,0.17 18.52,0.04 c 4.17,0.11 8.34,0.09 12.51,-0.06 c 6.18,0.18 12.37,0.19 18.55,0.03 c 1.51,0.11 3,0.09 4.5,-0.06 c 6.19,0.27 12.37,0.23 18.55,-0.12 c 2.22,0.31 4.45,0.39 6.69,0.23 c 0.31,-0.08 0.62,-0.17 0.93,-0.25 c 4.31,0.69 13.5,0.18 18.31,0.23 c 3.58,0.08 7.17,0.09 10.75,0.05 c 13.72,-0.33 22.24,-15.02 18.03,-27.38 c -0.06,-0.97 -0.44,-1.77 -1.14,-2.42 c 0.04,-3.64 -15.86,-11.54 -19.65,-11.8 c -1.33,-0.35 -2.61,-0.26 -3.84,0.27 c -0.1,-0.67 -0.43,-1.19 -1,-1.54 c -2.95,-0.76 -5.95,-1.15 -9,-1.15 c -4.89,-1.23 -11.64,-1.17 -16.69,-0.81 c -1.88,-0.29 -3.77,-0.4 -5.67,-0.32 c -5.61,0.39 -12.81,-0.2 -18.14,1.32 c -1.86,-0.5 -3.73,-0.51 -5.62,-0.05 c -18.59,0.6 -37.09,2.52 -55.72,1.78 c -1.24,0.01 -2.4,0.29 -3.5,0.85 c -0.4,-1.36 -1.31,-1.91 -2.72,-1.67 c -6.86,0.54 -13.73,0.94 -20.61,1.2 c -4.47,-0.2 -8.95,-0.2 -13.42,0.02 c -6.53,-0.22 -13.07,-0.29 -19.6,-0.22 c -3.46,-0.32 -6.93,-0.55 -10.4,-0.67 c -6.42,-0.24 -12.84,-0.42 -19.26,-0.53 c -4.23,-0.36 -8.47,-0.57 -12.72,-0.61 c -6.11,-0.31 -12.23,-0.45 -18.35,-0.41 c -1.73,-0.47 -3.45,-0.46 -5.16,0.05 c -0.28,-0.49 -0.72,-0.7 -1.31,-0.63 c -5.17,-0.16 -10.34,-0.26 -15.5,-0.3 c -4.26,-0.13 -8.51,-0.12 -12.76,0.05 c -5.83,-0.51 -11.65,-0.48 -17.48,0.08 c -2.45,-0.76 -9.59,-0.43 -12.44,-0.04 c -19.73,0.03 -49.57,0.44 -67.32,9.32 c -11.29,5.42 -7,27.96 2.35,29.64 Z M 14.82,375.98 c 0.24,0.88 0.07,3.63 1.36,3.7 c -0.54,0.25 -0.76,0.64 -0.65,1.19 c 13.88,32.42 50.23,10.92 33.41,-16.3 c -0.58,-1.5 -1.94,-3.88 -3.63,-4.28 c -10.67,-16.06 -31.83,-2.15 -30.49,15.69 Z"/></g>
<g><path fill="#2c52ce" fill-opacity="0.996" stroke="#2c52ce" stroke-width="0.5" stroke-opacity="0.996" d="M 119.36,227.8 c -3.23,0.67 -6.44,1.37 -9.65,2.12 c 1.73,-1.12 3.55,-2.12 5.46,-2.99 c 1.56,-0.41 2.95,-0.12 4.19,0.87 Z M 437.28,231.14 c -1.62,4.96 -17.66,13.97 -17.08,17.22 c -0.44,-0.14 -0.87,-0.29 -1.31,-0.44 c -1.18,0.65 -2.11,1.55 -2.77,2.69 c 0.83,0.98 2.36,-0.63 2.89,-1.34 c 0.41,-0.23 0.82,-0.46 1.24,-0.68 c 9.34,-4.97 20.99,-11.51 29.62,-17.21 c 3.54,-0.09 11.25,0.44 14.26,1.36 c -4.75,4.24 -9.62,8.33 -14.63,12.26 c -0.51,0.51 -0.97,1.06 -1.39,1.66 c -0.71,0.69 -2.68,0.55 -2.8,1.69 c 0.5,0.43 1.06,0.52 1.68,0.28 c 5.9,-4.35 15.58,-9.08 22.13,-13.11 c 0.61,-0.43 0.86,-1.01 0.77,-1.75 c 9.6,2.6 25.85,6.84 26.47,19.08 c -0.51,1.08 -1.31,1.79 -2.42,2.13 c -0.61,0.49 -3.19,2.07 -2.37,3 c 1.12,-0.11 1.92,-0.68 2.42,-1.73 c 1.23,-0.01 2.15,-0.54 2.77,-1.59 c 0.96,12.65 -4.88,24.78 -19.13,24.22 c 0.09,-0.88 0.07,-1.77 -0.08,-2.64 c -4.74,4.17 -14.89,2.1 -20.83,2.52 c 1.37,-2.06 10.03,-8.99 10.17,-10.68 c 1.11,-0.23 2.04,-0.76 2.78,-1.57 c -1.15,-0.87 -2.33,0.49 -2.78,1.57 c -6.54,2.63 -12.85,6.71 -18.69,10.62 c -17.85,0.29 -35.69,0.32 -53.54,0.07 c 5.58,-4.6 11.22,-9.16 16.91,-13.67 c 0.23,-0.27 0.33,-0.57 0.31,-0.92 c 0.56,-0.34 4.08,-1.02 2.56,-2.05 c -1.24,0.18 -2.1,0.86 -2.56,2.05 c -5.97,2.22 -17.74,9.95 -24.04,13.28 c -0.53,0.27 -0.73,0.68 -0.6,1.25 c -6.19,0.32 -12.39,0.36 -18.58,0.12 c 7.39,-5.98 14.7,-12.06 21.94,-18.24 c -1.59,-0.99 -1.83,0.97 -3.08,1.46 c -6.64,3.66 -23.14,12.49 -28.25,16.61 c -5.09,0.51 -12.38,0.5 -17.59,0.03 c 4.19,-3.56 8.52,-6.91 12.98,-10.05 c -1.33,-1.45 -2.49,0.37 -3.55,1.15 c -4.05,2.26 -8.08,4.56 -12.08,6.9 c -1.05,0.6 -1.95,1.32 -2.72,2.16 c -18.5,0.07 -37.01,-0.01 -55.52,-0.24 c 0.17,-0.22 0.33,-0.45 0.49,-0.68 c 5.09,-4.2 10.24,-8.28 15.43,-12.26 c -1.46,-1.5 -2.89,0.75 -4.15,1.44 c -5.99,3.37 -11.94,6.79 -17.86,10.26 c -0.65,0.31 -1.15,0.76 -1.52,1.36 c -5.85,0.33 -11.71,0.33 -17.56,-0.01 c 7.69,-6.71 15.38,-13.38 23.05,-20.03 c -0.86,-1.22 -2.44,1.17 -3.62,1.16 c -9.69,5.58 -19.37,11.18 -29.05,16.79 c -1.05,0.59 -1.96,1.3 -2.74,2.14 c -5.89,0.29 -11.78,0.26 -17.66,-0.08 c 6.17,-4.89 12.23,-9.88 18.16,-14.98 c -0.96,-0.73 -2.57,0.57 -3.47,0.93 c -3.34,1.99 -22.01,12.1 -23.08,13.98 c -5.07,0.66 -12.08,0.33 -17.33,0.21 c 0.15,-0.27 0.31,-0.54 0.47,-0.81 c 6.02,-5.35 12.04,-10.7 18.05,-16.06 c 0.93,-0.9 3.36,-2.58 3.51,-3.85 c 0.6,-0.21 3.76,-0.86 2.47,-1.9 c -1.24,0.07 -2.06,0.71 -2.47,1.9 c -1.67,0.33 -3.2,1.02 -4.59,2.06 c -5.69,3.68 -27.62,15.27 -31.12,18.57 c -5.84,0.28 -11.68,0.3 -17.53,0.07 c 5.77,-5.1 11.58,-10.17 17.43,-15.23 c 0.55,-0.55 0.76,-1.21 0.63,-1.98 c 0.45,0.15 0.89,0.3 1.34,0.45 c 1.16,-0.67 2.07,-1.57 2.74,-2.71 c -0.77,-0.82 -2.29,0.73 -2.89,1.31 c -0.43,0.21 -0.86,0.41 -1.3,0.62 c -3.8,2.3 -28.22,15.56 -29.27,17.42 c -5.92,0.28 -11.83,0.37 -17.75,0.27 c 6.07,-5.55 12.23,-11.02 18.46,-16.42 c 0.91,-0.62 1.48,-1.45 1.73,-2.48 c 0.5,-0.07 1.01,-0.14 1.52,-0.21 c 1.04,-0.54 1.82,-1.32 2.33,-2.34 c -0.86,-0.93 -2.08,0.66 -2.72,1.18 c -0.43,0.19 -0.86,0.38 -1.29,0.57 c -10.31,5.96 -20.62,11.94 -30.93,17.95 c -3.77,2.8 -11.88,-0.36 -15.94,-1.49 c 0.69,-0.52 1.46,-0.94 2.31,-1.25 c 2.87,-2.27 5.72,-4.56 8.56,-6.86 c -1.1,-0.46 -1.91,-0.12 -2.42,1.02 c -2.36,1.11 -8.77,4.24 -10.22,6.06 c -5.82,-3.21 -9.29,-8.12 -10.4,-14.71 c -4.16,-26.53 18.38,-28.8 38.48,-26.95 c -0.53,1.24 -3.41,2.53 -2.94,3.86 c -1.32,-0.11 -2.24,0.41 -2.76,1.57 c 0.94,1.04 2.29,-0.87 2.76,-1.57 c 1.31,0.31 5.53,-2.8 6.78,-3.61 c 5.77,-0.34 11.56,-0.36 17.34,-0.05 c -1.35,1.15 -2.77,2.24 -4.25,3.25 c -0.48,0.38 -0.72,0.88 -0.72,1.49 c -0.51,0.03 -1.03,0.07 -1.55,0.11 c -0.58,0.22 -0.83,0.64 -0.75,1.23 c 0.48,0.47 0.82,0.42 1.02,-0.16 c 0.46,-0.18 0.93,-0.35 1.39,-0.53 c 2.32,-1.31 4.63,-2.63 6.93,-3.98 c 0.57,-0.31 1.03,-0.75 1.38,-1.3 c 5.18,-0.63 12.3,-0.31 17.65,-0.16 c -2.85,2.42 -5.79,4.73 -8.82,6.93 c -0.5,0.51 -0.95,1.06 -1.35,1.65 c -1.54,0.53 -2.84,1.38 -3.91,2.55 c 0.91,1.01 1.8,-0.57 2.47,-1.04 c 4.84,-2.48 9.59,-5.12 14.26,-7.92 c 0.51,-0.7 2.93,-1.34 2.74,-2.21 c 5.87,-0.21 11.73,-0.17 17.59,0.12 c -7.68,6.71 -15.34,13.4 -22.98,20.08 c 0.48,0.4 1.03,0.5 1.64,0.28 c 10.73,-6.39 21.51,-12.7 32.36,-18.92 c 0.62,-0.27 1.06,-0.71 1.3,-1.34 c 5.17,-0.62 12.3,-0.42 17.62,-0.13 c -7.25,6.5 -14.57,12.87 -21.97,19.1 c 0.52,0.39 1.08,0.44 1.68,0.17 c 10.06,-6.03 20.18,-11.96 30.37,-17.79 c 0.66,-0.29 1.12,-0.76 1.39,-1.42 c 5.85,-0.37 11.69,-0.37 17.53,0 c -6.19,5.6 -12.4,11.18 -18.64,16.72 c -0.95,1.03 -3.42,2.37 -3.5,3.8 c -1.24,0.09 -2.17,0.64 -2.79,1.66 c 1.26,0.88 2.23,-0.68 2.79,-1.66 c 1.36,0.24 3.36,-1.35 4.55,-2 c 5.94,-3.72 27.15,-15.18 31.1,-18.41 c 5.15,-0.68 12.29,-0.49 17.58,-0.11 c -6.11,4.97 -12.13,10 -18.06,15.09 c 0.29,0.26 0.62,0.31 0.99,0.15 c 2.53,-0.86 25.02,-14.02 25.47,-15.18 c 5.39,-0.5 12.01,-0.58 17.43,-0.01 c -0.17,0.25 -0.34,0.49 -0.52,0.73 c -5.69,4.97 -11.39,9.94 -17.1,14.89 c -1.2,1.15 -2.43,2.26 -3.68,3.32 c -1.14,0.39 -1.96,1.11 -2.49,2.16 c 0.76,1.06 2.31,-0.87 2.97,-1.3 c 1.51,-0.78 2.93,-1.58 4.25,-2.4 c 3.68,-2.11 28.55,-15.66 29.17,-17.55 c 5.82,-0.26 11.64,-0.24 17.45,0.08 c -4.26,3.64 -8.57,7.22 -12.92,10.75 c -0.75,0.54 -1.55,1.01 -2.38,1.4 c -1.53,0.97 -0.15,1.67 1.04,1.08 c 6.26,-3.81 12.58,-7.54 18.97,-11.19 c 0.4,-0.32 0.69,-0.73 0.85,-1.23 c 5.24,-0.07 10.48,-0.03 15.72,0.1 c 0.57,-0.04 1.02,0.13 1.36,0.53 c -1.66,1.28 -3.26,2.61 -4.8,3.98 c 0.85,0.99 4.27,-1.57 4.97,-2.48 c 0.45,-0.16 0.9,-0.31 1.34,-0.47 c 4.12,-2.66 14.78,-1.52 19.92,-2.41 c 0.34,0.13 0.51,0.37 0.53,0.72 c -0.98,0.21 -2.57,0.25 -2.71,1.55 c 0.95,1.14 2.4,-0.63 2.71,-1.55 c 6.11,-1.52 13.12,-1.56 19.42,-1.89 c -2.54,3.22 -7.82,6.94 -11.32,9.27 c -0.51,0.36 -0.75,0.85 -0.71,1.47 c -1.05,0.2 -2.85,0.44 -3.1,1.74 c 0.92,1.06 2.62,-0.96 3.1,-1.74 c 0.61,-0.04 1.2,-0.16 1.77,-0.37 c 5.42,-3.27 10.87,-6.49 16.34,-9.67 c 0.27,-0.21 0.43,-0.48 0.47,-0.82 c 5.46,-0.89 10.95,-1.2 16.47,-0.91 Z M 44.96,240.1 c -0.63,0.03 -1.16,0.28 -1.58,0.76 c -2.04,2.1 -3.99,4.26 -5.86,6.49 c 0.45,0.27 0.92,0.26 1.43,-0.03 c 2.64,-1.38 5.21,-2.89 7.7,-4.54 c 3.06,1.22 5.24,7.21 5.8,10.23 c -0.81,1.85 -6.34,7.03 -6.41,8.54 c 0.13,0.14 0.26,0.27 0.4,0.41 c 1.95,-0.8 3.82,-1.77 5.61,-2.9 c 0.28,-0.05 0.56,-0.1 0.84,-0.14 c 0.6,5.97 -1.63,10.57 -6.71,13.8 c -0.75,0.28 -1.19,0.81 -1.32,1.61 c -7.04,3.93 -14.56,4.2 -20.8,-1.44 c 0.64,0.02 1.17,-0.23 1.57,-0.73 c 3.26,-4 6.58,-7.96 9.94,-11.87 c 0.23,-0.38 0.19,-0.71 -0.14,-0.99 c -4.79,2.77 -9.61,5.54 -14.45,8.33 c -0.52,0.3 -0.82,0.74 -0.89,1.34 c -2.42,-1.94 -4.81,-7.94 -4.92,-11.11 c 1.95,-1.6 3.74,-3.37 5.37,-5.3 c -0.52,-0.22 -1.03,-0.16 -1.52,0.16 c -1.15,1.09 -2.46,1.92 -3.94,2.51 c -0.64,-16.14 17.2,-28.35 29.88,-15.13 Z M 150.77,241.18 c 0.27,-0.08 1.81,-0.46 0.87,-1.02 c -0.48,0.18 -0.77,0.52 -0.87,1.02 Z M 305.74,274.28 c 0.63,-0.06 4.04,-1.35 2.8,-2.23 c -1.47,0.09 -2.41,0.83 -2.8,2.23 Z M 501.91,272.03 c 0.01,0.29 0.02,0.58 0.03,0.87 c -1.51,2.7 -15.53,9.47 -18.86,11.82 c -2.51,0.97 -4.68,0.46 -6.52,-1.53 c 0.39,-0.69 0.97,-1.15 1.74,-1.39 c 7.87,-1.97 16.15,-4.49 22.63,-9.61 c 0.31,-0.13 0.64,-0.19 0.98,-0.16 Z M 478.68,276.03 c 0.2,-0.02 1.87,-0.31 0.87,-0.85 c -0.46,0.11 -0.75,0.39 -0.87,0.85 Z M 109.81,281.37 c 1.94,0.42 3.86,0.93 5.77,1.52 c 0.7,0.1 1.14,0.48 1.3,1.13 c -3.34,1.71 -5.69,0.82 -7.07,-2.65 Z M 254.85,282.97 c 2.75,0.18 6.57,-0.54 9.12,0.21 c -0.09,0.17 -0.19,0.35 -0.29,0.52 c -3.21,2.13 -4.97,2.4 -8.21,0.3 c -0.37,-0.24 -0.58,-0.58 -0.62,-1.03 Z M 279.66,283.32 c 2.63,-0.14 5.2,0.19 7.71,1.01 c -2.85,1.8 -5.42,1.46 -7.71,-1.01 Z M 299.94,282.91 c 3.17,-0.16 6.34,-0.11 9.5,0.16 c -1.08,0.83 -2.28,1.5 -3.58,2.01 c -2.57,0.88 -4.54,0.16 -5.92,-2.17 Z M 318,282.89 c 3.45,0 6.9,0.11 10.35,0.33 c -1.9,0.86 -3.85,1.63 -5.86,2.32 c -1.2,0.07 -4.34,-1.47 -4.49,-2.65 Z"/></g>
<g><path fill="#1f45b2" fill-opacity="0.996" stroke="#1f45b2" stroke-width="0.5" stroke-opacity="0.996" d="M 174.29,352.08 c -6.98,6.57 -15.85,14.73 -23.36,20.35 c -0.83,0.79 -0.71,1.16 0.39,1.14 c 0.47,-0.45 0.96,-0.87 1.47,-1.27 c 11.16,-6.13 22.24,-12.42 33.23,-18.89 c 0.46,-0.31 0.7,-0.74 0.71,-1.29 c 5.83,-0.56 11.65,-0.59 17.48,-0.08 c -7.85,7.27 -15.8,14.37 -23.86,21.31 c 0.53,0.36 1.1,0.38 1.69,0.06 c 11.29,-6.75 22.66,-13.37 34.11,-19.87 c 0.57,-0.36 0.84,-0.88 0.82,-1.55 c 5.16,0.04 10.33,0.14 15.5,0.3 c 0.59,-0.07 1.03,0.14 1.31,0.63 c -3.37,2.79 -6.79,5.52 -10.25,8.19 c -0.82,1.34 -2.01,2.17 -3.55,2.5 c -0.34,0.15 -0.55,0.41 -0.63,0.76 c 1.48,1.51 3.19,-1.2 4.53,-1.85 c 4.81,-2.55 9.57,-5.21 14.26,-7.98 c 0.59,-0.4 0.85,-0.96 0.8,-1.67 c 6.12,-0.04 12.24,0.1 18.35,0.41 c -8.08,7.3 -16.07,14.66 -23.96,22.1 c 0.26,0.3 0.58,0.38 0.96,0.22 c 11.63,-6.67 23.25,-13.35 34.87,-20.04 c 0.59,-0.4 0.88,-0.96 0.85,-1.67 c 6.42,0.11 12.84,0.29 19.26,0.53 c -6.04,4.3 -12.65,10.99 -18.4,15.95 c -0.53,0.51 -0.74,1.12 -0.64,1.84 c -0.5,-0.06 -1.01,-0.12 -1.51,-0.18 c -1.03,0.62 -1.83,1.45 -2.4,2.47 c 0.8,1.01 2.1,-0.63 2.73,-1.15 c 0.31,-0.12 0.63,-0.24 0.94,-0.36 c 9.57,-5.57 19.15,-11.13 28.73,-16.68 c 0.61,-0.21 0.92,-0.61 0.95,-1.22 c 6.53,-0.07 13.07,0 19.6,0.22 c -0.61,0.49 -1.27,0.94 -1.97,1.34 c -6.68,6.24 -13.33,12.48 -19.95,18.73 c 0.51,0.28 1.04,0.26 1.57,-0.06 c 10.4,-5.88 20.76,-11.82 31.09,-17.82 c 1.08,-0.55 1.98,-1.28 2.68,-2.21 c 6.88,-0.26 13.75,-0.66 20.61,-1.2 c -3.96,3.14 -7.95,6.24 -11.98,9.29 c 0.49,0.45 1.05,0.56 1.7,0.32 c 3.9,-3.29 8.88,-4.9 13,-7.94 c 1.1,-0.56 2.26,-0.84 3.5,-0.85 c 18.63,0.74 37.13,-1.18 55.72,-1.78 c -1.67,2.12 -6.74,5.82 -9.25,7.34 c -0.5,0.35 -0.8,0.82 -0.9,1.42 c -1.22,0.18 -2.19,0.74 -2.9,1.69 c 0.94,1.09 2.59,-0.75 2.9,-1.69 c 2.87,-0.13 12.75,-6.87 15.77,-8.71 c 5.33,-1.52 12.53,-0.93 18.14,-1.32 c -0.04,0.45 -0.21,0.83 -0.52,1.15 c -4.5,3.37 -8.88,6.82 -13.16,10.36 c 0.52,0.38 1.07,0.42 1.66,0.14 c 5.64,-3.45 11.33,-6.81 17.09,-10.07 c 0.49,-0.28 0.69,-0.71 0.6,-1.26 c 5.05,-0.36 11.8,-0.42 16.69,0.81 c -6.18,5.75 -12.45,11.41 -18.8,16.98 c -1.21,1.14 -2.41,2.27 -3.62,3.39 c -1.15,0.34 -1.99,1.05 -2.51,2.12 c 0.66,1.07 2.38,-0.81 2.84,-1.39 c 1.59,-0.67 3.04,-1.46 4.35,-2.36 c 9.28,-5.28 18.53,-10.63 27.74,-16.05 c 1.23,-0.53 2.51,-0.62 3.84,-0.27 c 3.79,0.26 19.69,8.16 19.65,11.8 c -0.57,0.07 -1.06,0.29 -1.49,0.67 c -2.43,2.11 -4.78,4.28 -7.05,6.49 c 0.29,0.29 0.63,0.36 1.02,0.21 c 2.85,-1.71 5.74,-3.36 8.66,-4.95 c 4.21,12.36 -4.31,27.05 -18.03,27.38 c 2.5,-3.25 4.94,-6.57 7.31,-9.97 c 0.3,-0.56 0.12,-0.8 -0.52,-0.75 c -5.68,2.91 -11.27,6.02 -16.76,9.32 c -0.46,0.33 -0.72,0.78 -0.78,1.35 c -4.81,-0.05 -14,0.46 -18.31,-0.23 c 0.1,-0.17 0.2,-0.34 0.3,-0.52 c 3.9,-3.49 7.73,-7.02 11.49,-10.58 c -0.53,-0.27 -1.07,-0.22 -1.6,0.13 c -5.74,3.21 -11.46,6.49 -17.14,9.81 c -0.46,0.26 -0.69,0.65 -0.67,1.18 c -6.18,0.35 -12.36,0.39 -18.55,0.12 c 1.6,-1.64 3.34,-3.1 5.24,-4.38 c 0.5,-0.41 0.77,-0.93 0.8,-1.56 c 0.5,0 1,0 1.5,-0.01 c 1.09,-0.63 1.96,-1.49 2.62,-2.57 c -0.9,-0.86 -2.33,0.83 -3.03,1.4 c -0.4,0.2 -0.79,0.4 -1.18,0.59 c -3.13,1.78 -6.25,3.56 -9.37,5.37 c -0.56,0.24 -0.92,0.64 -1.08,1.22 c -6.18,0.16 -12.37,0.15 -18.55,-0.03 c 7.04,-6.16 15.13,-14.71 22.77,-19.87 c 0.17,-0.61 -0.09,-0.9 -0.77,-0.87 c -11.19,6.5 -22.41,13.01 -33.65,19.51 c -0.42,0.33 -0.71,0.76 -0.86,1.29 c -6.17,0.13 -12.35,0.11 -18.52,-0.04 c 2.77,-2.22 5.55,-4.42 8.33,-6.59 c 0.68,-0.72 1.32,-1.45 1.92,-2.22 c 0.68,-0.02 3.92,-1.06 2.59,-2.04 c -1.24,0.2 -2.1,0.88 -2.59,2.04 c -1.14,0.23 -2.21,0.65 -3.2,1.26 c -4.29,2.33 -8.46,4.84 -12.5,7.53 c -5.85,0.2 -11.69,0.19 -17.54,-0.01 c 1.64,-1.64 3.41,-3.1 5.33,-4.39 c 0.5,-0.39 0.75,-0.9 0.77,-1.53 c 0.47,0 0.93,0 1.4,0 c 0.9,-0.4 1.5,-1.06 1.79,-1.98 c 0.66,-0.42 3.68,-0.77 2.48,-1.98 c -1.41,-0.07 -2.23,0.59 -2.48,1.98 c -0.83,-0.12 -1.55,0.11 -2.15,0.67 c -0.35,0.2 -0.71,0.4 -1.06,0.6 c -3.12,1.85 -6.26,3.67 -9.4,5.48 c -0.54,0.26 -0.92,0.65 -1.15,1.19 c -18.84,0.14 -37.68,0.15 -56.52,0.03 c 3.92,-3.18 7.92,-6.3 11.99,-9.36 c -0.49,-0.39 -1.05,-0.48 -1.66,-0.27 c -4.58,2.9 -9.23,5.68 -13.97,8.34 c -0.4,0.3 -0.66,0.69 -0.78,1.18 c -6.17,0.23 -12.34,0.26 -18.52,0.1 c 7.87,-7.59 15.83,-15.04 23.89,-22.33 c -1.42,-1.37 -1.99,0.87 -3.19,1.32 c -11.57,6.4 -23.07,12.94 -34.49,19.62 c -0.48,0.3 -0.69,0.72 -0.64,1.28 c -5.14,0.19 -13.61,0.54 -18.43,-0.14 c 0.1,-0.18 0.21,-0.35 0.31,-0.52 c 6.72,-6.11 13.51,-12.14 20.36,-18.09 c 0.26,-0.4 0.19,-0.73 -0.21,-0.98 c -10.85,6.02 -21.65,12.17 -32.39,18.45 c -0.47,0.28 -0.7,0.69 -0.7,1.23 c -4.68,0.33 -14,0.54 -18.26,-0.08 c 0.11,-0.22 0.22,-0.45 0.33,-0.68 c 7.69,-7.26 15.47,-14.39 23.31,-21.39 c -1.43,-1.25 -1.94,0.85 -3.13,1.31 c -4.02,2.26 -34.87,19.21 -35.26,20.89 c -6.17,0.24 -12.35,0.27 -18.53,0.08 c 4.19,-3.61 8.5,-7.05 12.94,-10.33 c -1.61,-1.55 -3.69,1.65 -5.18,2.3 c -3.56,1.77 -7.05,3.69 -10.45,5.77 c -1.07,0.62 -2.02,1.37 -2.84,2.25 c -4.33,0.07 -14.89,0.43 -18.49,0.02 c 5.82,-5.1 15.05,-14.9 21.37,-18.38 c 0.64,-0.38 0.7,-0.8 0.2,-1.27 c -0.96,-0.06 -1.66,0.34 -2.12,1.21 c -10.12,5.58 -20.16,11.29 -30.12,17.15 c -0.43,0.3 -0.67,0.71 -0.75,1.23 c -2.68,0.59 -12.98,-1.03 -14.57,-2.95 c 0.16,-0.24 0.31,-0.49 0.46,-0.73 c 4.34,-3.84 8.66,-7.69 12.97,-11.57 c 0.55,-0.56 0.76,-1.23 0.62,-2.01 c 0.51,0.11 1.02,0.22 1.53,0.33 c 1.08,-0.65 1.93,-1.52 2.55,-2.62 c -0.86,-0.84 -2.25,0.69 -2.75,1.4 c -0.46,0.2 -0.91,0.41 -1.36,0.61 c -6.17,3.4 -12.31,6.86 -18.4,10.38 c -0.6,0.26 -0.93,0.7 -0.99,1.33 c -9.35,-1.68 -13.64,-24.22 -2.35,-29.64 c 17.75,-8.88 47.59,-9.29 67.32,-9.32 Z M 45.31,360.29 c -3.14,3.65 -6.32,7.26 -9.54,10.83 c -0.8,0.57 -0.77,1.96 0.29,1.51 c 4.33,-2.64 8.62,-5.33 12.88,-8.06 c 16.82,27.22 -19.53,48.72 -33.41,16.3 c -0.11,-0.55 0.11,-0.94 0.65,-1.19 c 0.58,0.09 1.06,-0.1 1.43,-0.56 c 2.48,-2.78 4.88,-5.6 7.19,-8.43 c -0.19,-0.35 -0.47,-0.46 -0.85,-0.33 c -3,1.99 -6.04,3.86 -9.13,5.62 c -1.34,-17.84 19.82,-31.75 30.49,-15.69 Z M 477.09,365.03 c 1.15,0.16 7.21,-2.98 4.53,-3.77 c -1.1,0.54 -4.26,2.69 -4.53,3.77 Z M 305.87,395.27 c 0.56,-0.03 2.69,-0.57 1.62,-1.42 c -0.84,0.13 -1.38,0.61 -1.62,1.42 Z M 491.04,399.09 c -0.14,0.28 -0.27,0.55 -0.4,0.83 c -0.1,0.26 -0.27,0.46 -0.5,0.62 c -2.92,1.34 -5.82,2.74 -8.69,4.21 c -1.61,0.2 -2.87,-0.37 -3.77,-1.7 c 4.47,-1.29 8.92,-2.61 13.36,-3.96 Z M 109.62,401.98 c 1.26,-0.01 5.86,0.67 6.21,2.01 c -2.54,0.76 -4.61,0.09 -6.21,-2.01 Z"/></g>
<g><path fill="#3c69ce" fill-opacity="0.992" stroke="#3c69ce" stroke-width="0.5" stroke-opacity="0.992" d="M 169.35,113.17 c -2.34,2.25 -4.81,4.34 -7.41,6.29 c -0.5,0.4 -0.69,0.92 -0.57,1.54 c -0.57,0.02 -1.13,0.04 -1.69,0.07 c -1.05,0.65 -1.92,1.5 -2.61,2.54 c 0.95,0.88 2.32,-0.77 3.07,-1.34 c 0.38,-0.22 0.77,-0.44 1.16,-0.65 c 4.27,-2.36 8.51,-4.77 12.72,-7.22 c 0.46,-0.31 0.68,-0.75 0.66,-1.3 c 5.8,-0.1 11.59,-0.15 17.39,-0.16 c -0.35,1.96 -10.45,7.77 -10.83,9.95 c -0.41,0.04 -0.82,0.08 -1.23,0.12 c -1.24,0.6 -2.22,1.46 -2.95,2.59 c 0.93,0.97 2.28,-0.63 3.01,-1.22 c 0.4,-0.2 0.8,-0.41 1.21,-0.61 c 5.74,-3.2 11.44,-6.5 17.08,-9.88 c 0.28,-0.18 0.43,-0.43 0.43,-0.76 c 5.79,-0.1 11.58,-0.05 17.36,0.16 c -7.82,6.48 -15.43,13.19 -22.83,20.12 c 0.55,0.16 1.09,0.09 1.6,-0.21 c 10.36,-5.92 20.71,-11.88 31.04,-17.88 c 0.38,-0.29 0.66,-0.66 0.82,-1.12 c 5.5,-0.82 12.85,0.03 18.53,0.03 c -6.33,4.31 -11.64,10 -17.71,14.74 c -1.32,1.01 -2.5,2.16 -3.55,3.44 c -1.27,0.19 -2.14,0.87 -2.63,2.03 c 0.93,1.06 2.33,-0.9 2.93,-1.48 c 1.57,-0.62 2.99,-1.37 4.29,-2.26 c 8.42,-4.78 16.78,-9.64 25.08,-14.59 c 0.29,-0.39 0.4,-0.83 0.34,-1.3 c 12.19,0.11 24.36,0.57 36.52,1.37 c 2.79,0.35 17.47,-0.62 18.72,0.93 c -3.69,2.87 -7.34,5.85 -10.95,8.94 c -0.74,0.55 -1.54,1.02 -2.38,1.41 c -1.44,0.92 -0.17,1.66 1,1.11 c 5.63,-3.49 11.33,-6.85 17.11,-10.1 c 0.53,-0.35 0.72,-0.84 0.59,-1.45 c 6.86,-0.29 13.73,-0.35 20.6,-0.17 c -6.18,5.76 -12.26,11.61 -18.25,17.56 c -1.39,0.81 -2.6,1.8 -3.65,2.96 c 0.48,0.39 1.02,0.45 1.61,0.2 c 12.39,-7.31 24.78,-14.63 37.16,-21.96 c 6,0.22 12,0.44 18,0.67 c -6.08,4.62 -12.59,10.66 -18.04,16.11 c -1.39,0.82 -2.64,1.8 -3.73,2.94 c 0.48,0.4 1.01,0.49 1.61,0.28 c 10.71,-6.34 21.44,-12.66 32.18,-18.94 c 6.7,-0.79 13.42,-1.29 20.18,-1.5 c -3.29,2.61 -6.57,5.22 -9.85,7.83 c -0.81,1.38 -2,2.22 -3.58,2.51 c -0.35,0.18 -0.56,0.46 -0.63,0.83 c 0.51,0.41 1.08,0.49 1.71,0.25 c 5.63,-3.48 11.33,-6.85 17.11,-10.09 c 0.55,-0.39 0.84,-0.92 0.85,-1.6 c 5.85,-0.55 11.71,-0.88 17.58,-1 c 7.82,0.75 15.61,-1.63 23.74,-0.54 c -6.05,4.7 -12.85,11.6 -19.3,15.1 c -1,0.77 -0.89,1.15 0.32,1.14 c 0.48,-0.45 0.96,-0.89 1.44,-1.34 c 7.77,-4.08 15.44,-8.37 23.01,-12.85 c 0.6,-0.29 0.97,-0.76 1.09,-1.4 c 15.48,0.96 44.37,4.34 40.92,26.32 c -2.95,15.78 -14.13,18.21 -28.27,17.51 c -9.6,0.06 -19.2,0.03 -28.8,-0.09 c 1.91,-1.98 4.01,-3.72 6.31,-5.23 c 0.4,-0.38 0.7,-0.81 0.91,-1.32 c 0.64,-0.34 3.58,-1.01 2.57,-2.19 c -1.28,0.22 -2.13,0.96 -2.57,2.19 c -0.86,0.14 -1.69,0.4 -2.48,0.77 c -3.27,1.69 -6.36,3.63 -9.28,5.82 c -18.15,0.22 -36.3,0.16 -54.44,-0.18 c 2.05,-1.52 15.02,-11.07 15.21,-12.45 c 0.52,-0.44 3.86,-1.06 2.54,-2.05 c -1.27,0.13 -2.12,0.82 -2.54,2.05 c -2.34,0.53 -21.48,11.18 -21.59,12.55 c -13.22,-0.02 -26.44,-0.01 -39.65,0.02 c 0.72,-0.54 1.51,-0.97 2.36,-1.3 c 2.97,-2.4 5.94,-4.8 8.91,-7.18 c 0.7,-0.66 1.35,-1.37 1.94,-2.14 c 0.59,-0.45 4,-0.99 2.67,-2.12 c -1.31,0.17 -2.2,0.87 -2.67,2.12 c -4.66,1.71 -14.36,7.43 -18.74,10.61 c -6.16,0.25 -12.32,0.29 -18.49,0.11 c 6.39,-5.97 15.64,-13.35 21.27,-19.72 c 0.49,-0.36 3.41,-0.98 2.5,-1.99 c -1.17,0.22 -2,0.88 -2.5,1.99 c -1.79,-0.38 -27.86,15.39 -31.61,17.55 c -1.09,0.37 -1.82,1.08 -2.17,2.13 c -6.5,0.11 -13,0.11 -19.5,-0.01 c 7.37,-5.91 14.22,-12.94 21.17,-19.51 c 1.38,-0.59 2.35,-1.57 2.93,-2.94 c -0.9,-0.78 -2.09,0.85 -2.85,1.29 c -0.31,0.13 -0.61,0.26 -0.91,0.39 c -10.65,6.18 -21.31,12.34 -31.98,18.48 c -1.1,0.5 -2.01,1.21 -2.73,2.14 c -6.22,0.38 -12.44,0.41 -18.67,0.08 c 5.47,-4.25 10.81,-8.64 16.03,-13.18 c -0.77,-0.24 -1.52,-0.13 -2.23,0.32 c -7.08,4.27 -14.12,8.56 -21.12,12.87 c -19.18,0.22 -38.36,0.2 -57.54,-0.04 c 5.64,-3.28 11.52,-9.29 16.64,-13.65 c 1.03,-0.76 1.87,-1.67 2.54,-2.73 c 0.51,-0.46 3.35,-1.22 2.47,-2.28 c -1.47,0.19 -2.61,0.9 -3.42,2.14 c -1.04,0.15 -1.92,0.54 -2.62,1.18 c -8.19,4.67 -16.36,9.37 -24.5,14.13 c -0.52,0.28 -0.72,0.7 -0.61,1.26 c -6.54,0.13 -13.09,0.15 -19.63,0.07 c 0.69,-0.63 1.46,-1.15 2.31,-1.58 c 6.31,-5.5 12.56,-11.01 18.77,-16.55 c -0.68,-0.72 -2.34,0.39 -3.03,0.67 c -9.23,5.43 -18.5,10.81 -27.8,16.13 c -0.57,0.37 -0.86,0.9 -0.88,1.58 c -3.19,0.11 -15.76,0.49 -17.87,-0.93 c 2.34,-1.83 4.65,-3.69 6.94,-5.58 c 0.53,-0.4 0.77,-0.93 0.72,-1.58 c 0.49,-0.02 0.98,-0.03 1.46,-0.04 c 0.92,-0.39 1.53,-1.05 1.85,-1.99 c 0.61,-0.38 3.62,-0.77 2.43,-1.87 c -1.36,-0.04 -2.17,0.59 -2.43,1.87 c -0.9,-0.08 -1.65,0.19 -2.25,0.83 c -0.39,0.21 -0.78,0.41 -1.17,0.62 c -4.03,2.16 -7.94,4.51 -11.75,7.05 c -2.36,-0.44 -10.82,-2.91 -11.09,-5.68 c 0.86,0.12 1.61,-0.13 2.25,-0.74 c 1.32,-0.69 2.31,-1.7 2.96,-3.05 c 0.66,-0.1 3.6,-0.87 2.45,-1.93 c -1.23,0.12 -2.05,0.76 -2.45,1.93 c -1.58,0.19 -3,0.78 -4.25,1.78 c -0.36,0.73 -0.89,1.28 -1.59,1.65 c -11.72,-5.46 -8.17,-30.72 8,-30.46 c -1.18,2.25 -2.46,4.45 -3.85,6.6 c 0.26,0.22 0.57,0.27 0.92,0.15 c 4.96,-2.68 9.87,-5.46 14.74,-8.34 c 0.97,-0.67 1.88,-1.37 2.74,-2.09 c 12.94,-2.23 26.49,-2.78 39.61,-3.08 Z M 34.26,114.3 c -0.9,0.83 -1.27,1.84 -1.13,3.04 c -0.49,-0.1 -0.97,-0.2 -1.45,-0.3 c -0.84,0.54 -1.31,1.29 -1.42,2.24 c 0.6,0.67 1.35,-0.61 1.8,-0.92 c 0.29,-0.13 0.58,-0.26 0.88,-0.39 c 0.91,-0.87 4.04,-1.57 3.89,-3.04 c 7.91,1 13.55,11.29 15,18.21 c -1.51,0.94 -2.73,2.17 -3.66,3.7 c -0.56,0.47 -3.32,2.05 -2.58,2.96 c 1.03,-0.17 1.84,-0.7 2.42,-1.57 c 0.33,-0.09 0.66,-0.18 0.99,-0.26 c 1.3,-0.76 2.62,-1.52 3.93,-2.26 c 1.27,9.44 -4.54,20.36 -14.45,22 c -3.21,-0.06 -15.57,-2.78 -16.51,-6 c 0.56,-0.2 1.03,-0.54 1.4,-1.02 c 2.48,-2.69 4.93,-5.38 7.35,-8.07 c -0.58,-0.26 -1.14,-0.21 -1.7,0.15 c -2.88,1.67 -5.79,3.32 -8.72,4.92 c -0.64,0.32 -1,0.83 -1.07,1.53 c -11.26,-10.12 -0.03,-34.12 15.03,-34.92 Z M 43.9,124.05 c 0.24,-0.09 1.68,-0.49 0.75,-0.96 c -0.46,0.15 -0.71,0.47 -0.75,0.96 Z M 486.09,130.93 c 1.35,0.29 4.61,-2.31 2.59,-2.65 c -1.24,0.53 -2.11,1.41 -2.59,2.65 Z M 360.05,153.98 c -1.41,-0.06 -2.42,0.52 -3.04,1.73 c 0.87,1.25 2.8,-0.69 3.04,-1.73 c 0.8,-0.05 3.97,-0.66 2.46,-1.88 c -1.29,0.04 -2.11,0.67 -2.46,1.88 Z M 222.64,155.32 c 0.75,-0.09 3.95,-1.23 2.93,-2.33 c -1.54,0.08 -2.52,0.86 -2.93,2.33 Z M 35.21,155.99 c 0.67,0.53 2.32,-0.11 1.31,-0.93 c -0.67,-0.02 -1.11,0.29 -1.31,0.93 Z M 458.94,157.15 c 0.57,0.03 1.53,-0.39 0.65,-0.96 c -0.46,0.15 -0.67,0.47 -0.65,0.96 Z"/></g>
<g><path fill="#3e68ce" fill-opacity="0.247" stroke="#3e68ce" stroke-width="0.5" stroke-opacity="0.247" d="M 360.05,153.98 c -0.24,1.04 -2.17,2.98 -3.04,1.73 c 0.62,-1.21 1.63,-1.79 3.04,-1.73 Z"/></g>
<g><path fill="#3b6acc" fill-opacity="0.282" stroke="#3b6acc" stroke-width="0.5" stroke-opacity="0.282" d="M 222.64,155.32 c 0.41,-1.47 1.39,-2.25 2.93,-2.33 c 1.02,1.1 -2.18,2.24 -2.93,2.33 Z"/></g>
<g><path fill="#3d6acd" fill-opacity="0.427" stroke="#3d6acd" stroke-width="0.5" stroke-opacity="0.427" d="M 446.9,151.2 c 0.44,-1.23 1.29,-1.97 2.57,-2.19 c 1.01,1.18 -1.93,1.85 -2.57,2.19 Z"/></g>
<g><path fill="#3d69ce" fill-opacity="0.451" stroke="#3d69ce" stroke-width="0.5" stroke-opacity="0.451" d="M 134.08,147.93 c 0.26,-1.28 1.07,-1.91 2.43,-1.87 c 1.19,1.1 -1.82,1.49 -2.43,1.87 Z"/></g>
<g><path fill="#3c6acf" fill-opacity="0.416" stroke="#3c6acf" stroke-width="0.5" stroke-opacity="0.416" d="M 347.88,147.11 c 0.47,-1.25 1.36,-1.95 2.67,-2.12 c 1.33,1.13 -2.08,1.67 -2.67,2.12 Z"/></g>
<g><path fill="#3c69cd" fill-opacity="0.482" stroke="#3c69cd" stroke-width="0.5" stroke-opacity="0.482" d="M 395.91,145.16 c 0.42,-1.23 1.27,-1.92 2.54,-2.05 c 1.32,0.99 -2.02,1.61 -2.54,2.05 Z M 35.21,155.99 c 0.2,-0.64 0.64,-0.95 1.31,-0.93 c 1.01,0.82 -0.64,1.46 -1.31,0.93 Z"/></g>
<g><path fill="#3b69cd" fill-opacity="0.239" stroke="#3b69cd" stroke-width="0.5" stroke-opacity="0.239" d="M 43.9,124.05 c 0.04,-0.49 0.29,-0.81 0.75,-0.96 c 0.93,0.47 -0.51,0.87 -0.75,0.96 Z"/></g>
<g><path fill="#3d68ce" fill-opacity="0.412" stroke="#3d68ce" stroke-width="0.5" stroke-opacity="0.412" d="M 458.94,157.15 c -0.02,-0.49 0.19,-0.81 0.65,-0.96 c 0.88,0.57 -0.08,0.99 -0.65,0.96 Z"/></g>
<g><path fill="#2b49ab" fill-opacity="0.71" d="M 234.25,227.44 c -2.45,0.37 -4.92,0.49 -7.42,0.35 c 0.15,-0.4 0.43,-0.67 0.83,-0.83 c 2.74,-0.76 4.02,-1.24 6.59,0.48 Z M 263.24,227.44 c -2.51,0.39 -5.03,0.47 -7.56,0.22 c 2.54,-1.53 4.99,-2.04 7.56,-0.22 Z M 350.26,227.4 c -2.49,0.44 -4.99,0.51 -7.51,0.21 c 2.46,-1.76 4.97,-1.83 7.51,-0.21 Z"/></g>
<g><path fill="#14255b" fill-opacity="0.082" stroke="#14255b" stroke-width="0.5" stroke-opacity="0.082" d="M 31.68,117.04 c 0.48,0.1 0.96,0.2 1.45,0.3 c -0.07,0.21 -0.13,0.42 -0.19,0.63 c -0.3,0.13 -0.59,0.26 -0.88,0.39 c -0.13,-0.44 -0.26,-0.88 -0.38,-1.32 Z M 48.17,136.84 c 0.3,0.36 0.57,0.73 0.83,1.13 c -0.33,0.08 -0.66,0.17 -0.99,0.26 c 0.05,-0.46 0.11,-0.93 0.16,-1.39 Z M 298.98,137.01 c 0.3,-0.13 0.6,-0.26 0.91,-0.39 c -0.03,0.55 -0.05,1.1 -0.08,1.65 c -0.26,-0.43 -0.54,-0.85 -0.83,-1.26 Z M 418.89,247.92 c 0.44,0.15 0.87,0.3 1.31,0.44 c 0.01,0.08 0.03,0.15 0.05,0.23 c -0.42,0.22 -0.83,0.45 -1.24,0.68 c -0.04,-0.45 -0.08,-0.9 -0.12,-1.35 Z M 244.63,250.02 c -0.22,0.95 0.13,1.55 1.05,1.8 c -1.19,0.65 -3.19,2.24 -4.55,2 c 0.08,-1.43 2.55,-2.77 3.5,-3.8 Z M 221.91,258.12 c -0.15,1.27 -2.58,2.95 -3.51,3.85 c 0.2,-0.95 -0.16,-1.55 -1.08,-1.79 c 1.39,-1.04 2.92,-1.73 4.59,-2.06 Z M 186.62,261.28 c 0.44,-0.21 0.87,-0.41 1.3,-0.62 c 0.05,0.47 0.1,0.93 0.15,1.4 c -0.45,-0.15 -0.89,-0.3 -1.34,-0.45 c -0.04,-0.11 -0.07,-0.22 -0.11,-0.33 Z M 268.72,372.03 c 0.5,0.06 1.01,0.12 1.51,0.18 c -0.08,0.26 -0.16,0.52 -0.24,0.78 c -0.31,0.12 -0.63,0.24 -0.94,0.36 c -0.11,-0.44 -0.22,-0.88 -0.33,-1.32 Z M 128.71,379.33 c 0.45,-0.2 0.9,-0.41 1.36,-0.61 c 0.06,0.4 0.13,0.81 0.2,1.22 c -0.51,-0.11 -1.02,-0.22 -1.53,-0.33 c -0.01,-0.09 -0.02,-0.18 -0.03,-0.28 Z"/></g>
<g><path fill="#2c52ce" fill-opacity="0.506" stroke="#2c52ce" stroke-width="0.5" stroke-opacity="0.506" d="M 298.89,252.29 c 0.16,0.29 0.32,0.57 0.48,0.86 c -0.66,0.43 -2.21,2.36 -2.97,1.3 c 0.53,-1.05 1.35,-1.77 2.49,-2.16 Z M 241.13,253.82 c -0.56,0.98 -1.53,2.54 -2.79,1.66 c 0.62,-1.02 1.55,-1.57 2.79,-1.66 Z M 221.91,258.12 c 0.41,-1.19 1.23,-1.83 2.47,-1.9 c 1.29,1.04 -1.87,1.69 -2.47,1.9 Z M 411.88,264.18 c 0.46,-1.19 1.32,-1.87 2.56,-2.05 c 1.52,1.03 -2,1.71 -2.56,2.05 Z M 466.89,268.08 c 0.45,-1.08 1.63,-2.44 2.78,-1.57 c -0.74,0.81 -1.67,1.34 -2.78,1.57 Z"/></g>
<g><path fill="#1e3699" fill-opacity="0.075" stroke="#1e3699" stroke-width="0.5" stroke-opacity="0.075" d="M 139.07,233.04 c 1.3,-0.19 2.58,-0.11 3.84,0.25 c -1.25,0.81 -5.47,3.92 -6.78,3.61 c -0.47,-1.33 2.41,-2.62 2.94,-3.86 Z"/></g>
<g><path fill="#2c51cb" fill-opacity="0.682" d="M 341.7,284.1 c 2.54,-0.05 5.08,-0.01 7.62,0.1 c -0.21,0.4 -0.54,0.68 -0.97,0.85 c -2.48,1.29 -4.7,0.98 -6.65,-0.95 Z"/></g>
<g><path fill="#2b48a7" fill-opacity="0.753" d="M 97.66,275.14 c 2.15,1.28 4.32,2.54 6.52,3.77 c -3.3,0.21 -5.49,-0.38 -6.52,-3.77 Z"/></g>
<g><path fill="#2045b2" fill-opacity="0.353" stroke="#2045b2" stroke-width="0.5" stroke-opacity="0.353" d="M 378.9,388.11 c 0.49,-1.16 1.35,-1.84 2.59,-2.04 c 1.33,0.98 -1.91,2.02 -2.59,2.04 Z M 430.27,390.92 c -0.14,-0.39 -0.28,-0.78 -0.41,-1.17 c 0.7,-0.57 2.13,-2.26 3.03,-1.4 c -0.66,1.08 -1.53,1.94 -2.62,2.57 Z M 198.31,396.03 c -0.11,0.23 -0.22,0.46 -0.33,0.68 c -0.35,0.12 -0.71,0.24 -1.07,0.36 c 0.17,-0.74 0.64,-1.09 1.4,-1.04 Z"/></g>
<g><path fill="#2c50c7" fill-opacity="0.741" d="M 179.02,226.22 c 0.25,0.24 0.5,0.48 0.75,0.73 c 0.54,0.18 1.05,0.44 1.52,0.77 c -2.47,0.21 -4.94,0.35 -7.41,0.45 c 0.33,-1.78 3.77,-1.87 5.14,-1.95 Z"/></g>
<g><path fill="#2b4ab1" fill-opacity="0.737" d="M 320.29,227.39 c -2.21,0.52 -4.4,0.5 -6.6,-0.06 c 2.21,-1.43 4.41,-1.41 6.6,0.06 Z"/></g>
<g><path fill="#2b48a9" fill-opacity="0.769" d="M 375.3,227.8 c -2.57,0.14 -5.13,0.11 -7.69,-0.07 c 2.15,-1.63 4.45,-1.87 6.89,-0.69 c 0.37,0.14 0.64,0.4 0.8,0.76 Z"/></g>
<g><path fill="#2c4ec0" fill-opacity="0.733" d="M 413.28,227.98 c -2.2,0.04 -4.38,-0.15 -6.54,-0.56 c 1.83,-1.39 5.48,-2.14 6.54,0.56 Z"/></g>
<g><path fill="#2c52ce" fill-opacity="0.729" d="M 433.9,226.29 c 0.25,0.24 0.54,0.44 0.85,0.59 c 0.56,0.25 1.08,0.57 1.56,0.96 c -2.46,0.41 -4.93,0.56 -7.42,0.42 c 0.09,-1.91 3.67,-1.91 5.01,-1.97 Z"/></g>
<g><path fill="#2a469f" fill-opacity="0.69" d="M 34.04,227.09 c -0.87,1.08 -4.94,0.92 -6.25,0.68 c 1.92,-1.71 4.01,-1.94 6.25,-0.68 Z"/></g>
<g><path fill="#2a46a1" fill-opacity="0.765" d="M 233.32,284.25 c -1.96,1.51 -4.08,1.78 -6.36,0.79 c 0.67,-1.27 5.07,-0.84 6.36,-0.79 Z"/></g>
<g><path fill="#254bb5" fill-opacity="0.122" stroke="#254bb5" stroke-width="0.5" stroke-opacity="0.122" d="M 302.57,248.97 c -0.2,0.95 0.15,1.54 1.05,1.78 c -1.32,0.82 -2.74,1.62 -4.25,2.4 c -0.16,-0.29 -0.32,-0.57 -0.48,-0.86 c 1.25,-1.06 2.48,-2.17 3.68,-3.32 Z"/></g>
<g><path fill="#2c52ce" fill-opacity="0.388" stroke="#2c52ce" stroke-width="0.5" stroke-opacity="0.388" d="M 136.13,236.9 c -0.47,0.7 -1.82,2.61 -2.76,1.57 c 0.52,-1.16 1.44,-1.68 2.76,-1.57 Z M 457.71,285.16 c 1.57,-0.29 3.15,-0.38 4.73,-0.26 c -0.36,1.41 -4.39,1.68 -4.73,0.26 Z"/></g>
<g><path fill="#2d53ce" fill-opacity="0.325" stroke="#2d53ce" stroke-width="0.5" stroke-opacity="0.325" d="M 372.88,234.72 c 0.05,0.5 0.11,1 0.17,1.5 c -0.7,0.91 -4.12,3.47 -4.97,2.48 c 1.54,-1.37 3.14,-2.7 4.8,-3.98 Z"/></g>
<g><path fill="#193e9c" fill-opacity="0.125" stroke="#193e9c" stroke-width="0.5" stroke-opacity="0.125" d="M 442.56,369.97 c -0.2,0.95 0.16,1.54 1.06,1.76 c -1.31,0.9 -2.76,1.69 -4.35,2.36 c -0.11,-0.24 -0.22,-0.49 -0.33,-0.73 c 1.21,-1.12 2.41,-2.25 3.62,-3.39 Z"/></g>
<g><path fill="#2b4cb7" fill-opacity="0.761" d="M 485.82,227.44 c 0.37,0.24 0.73,0.5 1.09,0.76 c 0.66,-0.14 1.04,0.11 1.15,0.77 c -1.91,0.2 -3.72,-0.16 -5.41,-1.07 c 0.4,-1.1 2.31,-0.88 3.17,-0.46 Z"/></g>
<g><path fill="#3258ab" fill-opacity="0.11" stroke="#3258ab" stroke-width="0.5" stroke-opacity="0.11" d="M 198.97,141.16 c 0.32,0.04 0.63,0.09 0.95,0.14 c -0.67,1.06 -1.51,1.97 -2.54,2.73 c 0.23,-0.95 -0.11,-1.51 -1.03,-1.69 c 0.7,-0.64 1.58,-1.03 2.62,-1.18 Z"/></g>
<g><path fill="#2d53ce" fill-opacity="0.259" stroke="#2d53ce" stroke-width="0.5" stroke-opacity="0.259" d="M 150.77,241.18 c 0.1,-0.5 0.39,-0.84 0.87,-1.02 c 0.94,0.56 -0.6,0.94 -0.87,1.02 Z M 418.89,247.92 c 0.04,0.45 0.08,0.9 0.12,1.35 c -0.53,0.71 -2.06,2.32 -2.89,1.34 c 0.66,-1.14 1.59,-2.04 2.77,-2.69 Z"/></g>
<g><path fill="#1f46b2" fill-opacity="0.663" d="M 322.05,403.76 c 1.99,-0.1 3.98,-0.07 5.96,0.09 c 0.27,1.92 -6.64,1.99 -5.96,-0.09 Z"/></g>
<g><path fill="#1f46b2" fill-opacity="0.306" stroke="#1f46b2" stroke-width="0.5" stroke-opacity="0.306" d="M 130.27,379.94 c -0.07,-0.41 -0.14,-0.82 -0.2,-1.22 c 0.5,-0.71 1.89,-2.24 2.75,-1.4 c -0.62,1.1 -1.47,1.97 -2.55,2.62 Z"/></g>
<g><path fill="#2c52ce" fill-opacity="0.294" stroke="#2c52ce" stroke-width="0.5" stroke-opacity="0.294" d="M 188.07,262.06 c -0.05,-0.47 -0.1,-0.93 -0.15,-1.4 c 0.6,-0.58 2.12,-2.13 2.89,-1.31 c -0.67,1.14 -1.58,2.04 -2.74,2.71 Z"/></g>
<g><path fill="#1f45b2" fill-opacity="0.78" d="M 260.95,404.1 c 1.74,-0.5 3.48,-0.46 5.19,0.11 c -0.08,1.23 -5.5,1.15 -5.19,-0.11 Z"/></g>
<g><path fill="#2c53ce" fill-opacity="0.424" stroke="#2c53ce" stroke-width="0.5" stroke-opacity="0.424" d="M 161.31,259.86 c -0.13,-0.39 -0.26,-0.77 -0.39,-1.16 c 0.64,-0.52 1.86,-2.11 2.72,-1.18 c -0.51,1.02 -1.29,1.8 -2.33,2.34 Z"/></g>
<g><path fill="#2b51cc" fill-opacity="0.329" stroke="#2b51cc" stroke-width="0.5" stroke-opacity="0.329" d="M 493.94,254.98 c 0.01,0.42 0.03,0.85 0.05,1.27 c -0.5,1.05 -1.3,1.62 -2.42,1.73 c -0.82,-0.93 1.76,-2.51 2.37,-3 Z"/></g>
<g><path fill="#181f38" fill-opacity="0.118" stroke="#181f38" stroke-width="0.5" stroke-opacity="0.118" d="M 496.36,252.85 c 0.34,0.56 0.48,1.16 0.4,1.81 c -0.62,1.05 -1.54,1.58 -2.77,1.59 c -0.02,-0.42 -0.04,-0.85 -0.05,-1.27 c 1.11,-0.34 1.91,-1.05 2.42,-2.13 Z"/></g>
<g><path fill="#1f44b1" fill-opacity="0.373" stroke="#1f44b1" stroke-width="0.5" stroke-opacity="0.373" d="M 268.72,372.03 c 0.11,0.44 0.22,0.88 0.33,1.32 c -0.63,0.52 -1.93,2.16 -2.73,1.15 c 0.57,-1.02 1.37,-1.85 2.4,-2.47 Z"/></g>
<g><path fill="#1f45b2" fill-opacity="0.565" stroke="#1f45b2" stroke-width="0.5" stroke-opacity="0.565" d="M 438.94,373.36 c 0.11,0.24 0.22,0.49 0.33,0.73 c -0.46,0.58 -2.18,2.46 -2.84,1.39 c 0.52,-1.07 1.36,-1.78 2.51,-2.12 Z"/></g>
<g><path fill="#28314f" fill-opacity="0.729" d="M 462.01,226.15 c 0.1,1.5 -3.56,0.71 -4.28,0.24 c 1.41,-0.42 2.83,-0.5 4.28,-0.24 Z"/></g>
<g><path fill="#1f45b1" fill-opacity="0.282" stroke="#1f45b1" stroke-width="0.5" stroke-opacity="0.282" d="M 354.95,388.99 c -0.29,0.92 -0.89,1.58 -1.79,1.98 c -0.12,-0.44 -0.24,-0.87 -0.36,-1.31 c 0.6,-0.56 1.32,-0.79 2.15,-0.67 Z M 491.04,399.09 c 0.37,-0.09 0.74,-0.17 1.11,-0.26 c -0.22,0.74 -0.73,1.11 -1.51,1.09 c 0.13,-0.28 0.26,-0.55 0.4,-0.83 Z"/></g>
<g><path fill="#2d4cb3" fill-opacity="0.451" d="M 138.02,226.99 c -1.45,0.03 -2.9,-0.04 -4.34,-0.23 c 1.12,-0.76 2.37,-1 3.74,-0.7 c 0.43,0.17 0.63,0.48 0.6,0.93 Z"/></g>
<g><path fill="#2a4085" fill-opacity="0.627" d="M 370.69,285.1 c 0.78,0.07 3.38,-0.64 3.38,0.69 c -1,0.21 -2.92,0.54 -3.38,-0.69 Z"/></g>
<g><path fill="#2e53ce" fill-opacity="0.357" stroke="#2e53ce" stroke-width="0.5" stroke-opacity="0.357" d="M 153.73,238.09 c 0.09,0.35 0.18,0.71 0.27,1.07 c -0.2,0.58 -0.54,0.63 -1.02,0.16 c -0.08,-0.59 0.17,-1.01 0.75,-1.23 Z"/></g>
<g><path fill="#2e51d1" fill-opacity="0.173" stroke="#2e51d1" stroke-width="0.5" stroke-opacity="0.173" d="M 201.82,226.51 c 0.69,-0.24 1.09,0 1.2,0.73 c -0.4,-0.24 -0.8,-0.49 -1.2,-0.73 Z M 485.82,227.44 c 0.72,-0.26 1.08,-0.01 1.09,0.76 c -0.36,-0.26 -0.72,-0.52 -1.09,-0.76 Z"/></g>
<g><path fill="#2a53cc" fill-opacity="0.216" d="M 179.02,226.22 c 0.58,-0.12 0.84,0.12 0.75,0.73 c -0.25,-0.25 -0.5,-0.49 -0.75,-0.73 Z M 291.81,226.48 c 0.77,-0.26 1.19,0.02 1.27,0.82 c -0.45,-0.23 -0.87,-0.51 -1.27,-0.82 Z"/></g>
<g><path fill="#2b50c2" fill-opacity="0.337" d="M 503.1,270.72 c -0.01,0.74 0.02,2.42 -1.16,2.18 c -0.01,-0.29 -0.02,-0.58 -0.03,-0.87 c 0.22,-0.6 0.62,-1.03 1.19,-1.31 Z"/></g>
<g><path fill="#2b51d0" fill-opacity="0.208" stroke="#2b51d0" stroke-width="0.5" stroke-opacity="0.208" d="M 433.9,226.29 c 0.59,-0.18 0.88,0.02 0.85,0.59 c -0.31,-0.15 -0.6,-0.35 -0.85,-0.59 Z M 53.06,257.89 c -0.06,0.34 -0.12,0.68 -0.17,1.03 c -0.28,0.04 -0.56,0.09 -0.84,0.14 c 0.16,-0.54 0.5,-0.93 1.01,-1.17 Z"/></g>
<g><path fill="#2c49af" fill-opacity="0.439" d="M 97.32,236.97 c -0.36,0.47 -0.74,0.93 -1.13,1.37 c -0.09,-0.85 0.29,-1.3 1.13,-1.37 Z M 96.19,238.34 c -0.39,0.36 -0.79,0.72 -1.18,1.08 c -0.03,-0.84 0.36,-1.2 1.18,-1.08 Z"/></g>
<g><path fill="#23335f" fill-opacity="0.455" d="M 36.28,404.32 c -0.49,0.31 -1.03,0.47 -1.62,0.49 c 0.49,-0.32 1.03,-0.48 1.62,-0.49 Z"/></g>
<g><path fill="#2b4db3" fill-opacity="0.392" d="M 281.28,277.93 c -0.16,0.23 -0.32,0.46 -0.49,0.68 c -0.37,0 -0.74,-0.01 -1.11,-0.02 c 0.46,-0.38 0.99,-0.6 1.6,-0.66 Z"/></g>
<g><path fill="#2d48a1" fill-opacity="0.224" stroke="#2d48a1" stroke-width="0.5" stroke-opacity="0.224" d="M 200.35,278.03 c -0.16,0.27 -0.32,0.54 -0.47,0.81 c -0.31,0.03 -0.62,0.06 -0.93,0.09 c 0.26,-0.6 0.73,-0.9 1.4,-0.9 Z"/></g>
<g><path fill="#22387a" fill-opacity="0.498" d="M 115.29,346.24 c -0.47,0.39 -1.01,0.61 -1.62,0.66 c 0.4,-0.51 0.94,-0.73 1.62,-0.66 Z"/></g>
<g><path fill="#213981" fill-opacity="0.49" d="M 486.75,347.16 c 0.61,0.04 1.12,0.28 1.53,0.72 c -0.63,0.01 -1.14,-0.23 -1.53,-0.72 Z"/></g>
<g><path fill="#1e44b1" fill-opacity="0.396" d="M 309.38,403.85 c -0.38,0.6 -0.93,0.92 -1.65,0.96 c 0.36,-0.61 0.91,-0.93 1.65,-0.96 Z"/></g>
<g><path fill="#233975" fill-opacity="0.455" d="M 283.62,404.2 c 0.62,0 1.18,0.19 1.66,0.59 c -0.61,-0.04 -1.17,-0.24 -1.66,-0.59 Z"/></g>
<g><path fill="#2b4cac" fill-opacity="0.302" stroke="#2b4cac" stroke-width="0.5" stroke-opacity="0.302" d="M 320.19,233.35 c 0.38,-0.01 0.76,-0.02 1.14,-0.03 c -0.42,0.52 -0.98,0.78 -1.66,0.76 c 0.18,-0.24 0.35,-0.48 0.52,-0.73 Z"/></g>
<g><path fill="#314573" fill-opacity="0.506" d="M 115.26,107.18 c -0.41,0.42 -0.92,0.65 -1.51,0.68 c 0.37,-0.5 0.87,-0.73 1.51,-0.68 Z"/></g>
<g><path fill="#2a53d0" fill-opacity="0.169" stroke="#2a53d0" stroke-width="0.5" stroke-opacity="0.169" d="M 392.82,226.5 c 0.73,-0.25 1.17,0 1.31,0.74 c -0.43,-0.26 -0.86,-0.51 -1.31,-0.74 Z"/></g>
<g><path fill="#2f4269" fill-opacity="0.533" d="M 18,161.06 c 0.4,0.18 0.75,0.41 1.06,0.71 c -0.49,-0.02 -0.85,-0.26 -1.06,-0.71 Z"/></g>
<g><path fill="#1e46b2" fill-opacity="0.298" stroke="#1e46b2" stroke-width="0.5" stroke-opacity="0.298" d="M 115.15,393.19 c -0.15,0.24 -0.3,0.49 -0.46,0.73 c -0.32,-0.08 -0.65,-0.16 -0.98,-0.24 c 0.4,-0.38 0.88,-0.54 1.44,-0.49 Z"/></g>
<g><path fill="#2146b1" fill-opacity="0.243" stroke="#2146b1" stroke-width="0.5" stroke-opacity="0.243" d="M 501.97,392.74 c -0.15,0.66 -0.56,1.05 -1.23,1.17 c 0.24,-0.57 0.65,-0.96 1.23,-1.17 Z"/></g>
<g><path fill="#243b89" fill-opacity="0.22" stroke="#243b89" stroke-width="0.5" stroke-opacity="0.22" d="M 96.19,393.81 c 0.36,0.32 0.72,0.64 1.08,0.95 c -0.62,-0.03 -0.98,-0.34 -1.08,-0.95 Z"/></g>
<g><path fill="#3759a9" fill-opacity="0.941" d="M 116.21,119.13 c -0.23,0.42 -0.57,0.68 -1.02,0.8 c 0.06,-0.6 0.4,-0.86 1.02,-0.8 Z"/></g>
<g><path fill="#1d45b1" fill-opacity="0.306" stroke="#1d45b1" stroke-width="0.5" stroke-opacity="0.306" d="M 229.18,396.18 c -0.1,0.17 -0.21,0.34 -0.31,0.52 c -0.34,0.12 -0.69,0.25 -1.03,0.38 c 0.19,-0.68 0.64,-0.98 1.34,-0.9 Z"/></g>
<g><path fill="#2046b0" fill-opacity="0.216" stroke="#2046b0" stroke-width="0.5" stroke-opacity="0.216" d="M 449.2,396.21 c -0.1,0.18 -0.2,0.35 -0.3,0.52 c -0.31,0.08 -0.62,0.17 -0.93,0.25 c 0.15,-0.64 0.56,-0.9 1.23,-0.77 Z"/></g>
<g><path fill="#1e43a0" fill-opacity="0.431" d="M 497.16,396.01 c -0.28,0.62 -0.77,0.97 -1.46,1.06 c 0.3,-0.62 0.78,-0.97 1.46,-1.06 Z"/></g>
<g><path fill="#1f3f9a" fill-opacity="0.604" d="M 495.06,396.93 c -0.2,0.69 -0.67,1.04 -1.41,1.05 c 0.29,-0.59 0.76,-0.94 1.41,-1.05 Z"/></g>
<g><path fill="#2d51ce" fill-opacity="0.224" stroke="#2d51ce" stroke-width="0.5" stroke-opacity="0.224" d="M 263.97,283.18 c 0.39,-0.11 0.79,-0.21 1.18,-0.32 c -0.23,0.72 -0.71,1 -1.47,0.84 c 0.1,-0.17 0.2,-0.35 0.29,-0.52 Z"/></g>
<g><path fill="#2043aa" fill-opacity="0.471" d="M 500.17,394.01 c -0.26,0.59 -0.72,0.85 -1.4,0.76 c 0.36,-0.45 0.82,-0.7 1.4,-0.76 Z M 498.77,394.77 c 0.09,0.73 -0.23,1.13 -0.96,1.2 c 0.2,-0.5 0.52,-0.9 0.96,-1.2 Z"/></g>
<g><path fill="#2b49ab" fill-opacity="0.765" d="M 291.81,226.48 c 0.4,0.31 0.82,0.59 1.27,0.82 c -0.35,1 -5.4,0.29 -6.41,0.34 c 1.57,-1.05 3.28,-1.44 5.14,-1.16 Z"/></g>
<g><path fill="#2b49ac" fill-opacity="0.776" d="M 201.82,226.51 c 0.4,0.24 0.8,0.49 1.2,0.73 c -0.21,1.02 -5.46,0.44 -6.4,0.44 c 1.58,-1.07 3.31,-1.46 5.2,-1.17 Z M 392.82,226.5 c 0.45,0.23 0.88,0.48 1.31,0.74 c -0.84,1.15 -5.19,0.45 -6.52,0.4 c 1.61,-1.02 3.35,-1.4 5.21,-1.14 Z"/></g>
<g><path fill="#2b4bb1" fill-opacity="0.757" d="M 160.29,227.84 c -1.62,0.11 -3.24,0.11 -4.86,0.01 c -0.79,0.09 -1.23,-0.22 -1.32,-0.94 c 1.56,-1.07 5.17,-0.57 6.18,0.93 Z"/></g>
<g><path fill="#2d53cb" fill-opacity="0.133" stroke="#2d53cb" stroke-width="0.5" stroke-opacity="0.133" d="M 478.68,276.03 c 0.12,-0.46 0.41,-0.74 0.87,-0.85 c 1,0.54 -0.67,0.83 -0.87,0.85 Z"/></g>
<g><path fill="#2c52cf" fill-opacity="0.486" stroke="#2c52cf" stroke-width="0.5" stroke-opacity="0.486" d="M 305.74,274.28 c 0.39,-1.4 1.33,-2.14 2.8,-2.23 c 1.24,0.88 -2.17,2.17 -2.8,2.23 Z"/></g>
<g><path fill="#2c52cd" fill-opacity="0.467" stroke="#2c52cd" stroke-width="0.5" stroke-opacity="0.467" d="M 402.23,242.91 c -0.48,0.78 -2.18,2.8 -3.1,1.74 c 0.25,-1.3 2.05,-1.54 3.1,-1.74 Z"/></g>
<g><path fill="#2c52cf" fill-opacity="0.514" stroke="#2c52cf" stroke-width="0.5" stroke-opacity="0.514" d="M 394.84,234.06 c -0.31,0.92 -1.76,2.69 -2.71,1.55 c 0.14,-1.3 1.73,-1.34 2.71,-1.55 Z"/></g>
<g><path fill="#2045b3" fill-opacity="0.427" stroke="#2045b3" stroke-width="0.5" stroke-opacity="0.427" d="M 305.87,395.27 c 0.24,-0.81 0.78,-1.29 1.62,-1.42 c 1.07,0.85 -1.06,1.39 -1.62,1.42 Z"/></g>
<g><path fill="#1f45b2" fill-opacity="0.49" stroke="#1f45b2" stroke-width="0.5" stroke-opacity="0.49" d="M 405.09,361.89 c -0.31,0.94 -1.96,2.78 -2.9,1.69 c 0.71,-0.95 1.68,-1.51 2.9,-1.69 Z M 354.95,388.99 c 0.25,-1.39 1.07,-2.05 2.48,-1.98 c 1.2,1.21 -1.82,1.56 -2.48,1.98 Z"/></g>
<g><path fill="#2045b2" fill-opacity="0.376" stroke="#2045b2" stroke-width="0.5" stroke-opacity="0.376" d="M 477.09,365.03 c 0.27,-1.08 3.43,-3.23 4.53,-3.77 c 2.68,0.79 -3.38,3.93 -4.53,3.77 Z"/></g>
</svg>
