<svg xmlns="http://www.w3.org/2000/svg" style="shape-rendering:geometricPrecision;text-rendering:geometricPrecision;image-rendering:optimizeQuality;fill-rule:evenodd;clip-rule:evenodd" viewBox="0 0 512 512"><path fill="#5fbed9" d="m242 442.4-43 24.8c.6-1.1.8-3.3 1.7-4 1.5.5 2.2-1 3.6-1.2q7-4.7 14.7-8.6l.8-1 3.5-1.4c1.1-1.3 4.5-2.8 6.2-3.8l11.2-5q.8-.3 1.3.2"/><path fill="#57849a" fill-opacity=".9" d="m144 448-.7.2q-1.2 0-1.5-1l2.2-.5 24.5-14.7c1-.4 5.5-3 6-2.6q-1 1.4-2.5 2.3-12 7-23.6 14.3z"/><path fill="#568095" d="m349.8 87.3.1.9q0 .9-.8 1.3l-10.2 5.7c-1.2.7-2.4 2.8-3.8 1.4q1.2-1.3 3-2.3zm20.3 217.9.2.7q-.6.9-1.6 1.5l-9.4 5.5q-2.5 0-.4-1.3c2.8-1.2 8.9-6 11.2-6.4M145.5 434c1.4-.1 5.6-4.2 6.5-2.7-1 .9-5.5 5-6.5 2.7"/><path fill="#547589" d="M370.6 282.1q0 1.5.2 2.8-1.5 0-2.6.7l-20.1 12q-1 .6-2 0a14 14 0 0 1 3-2.3z"/><path fill="#5a7583" d="M188 191q0 1.2-.9 2-.2-1.5 1-2m-.9 2q.1 1.5-.8 3c-.5-1.3-2-.5-2.9 0q-7 4.5-14.2 8.6-.2-.8-1-1.2 8.4-4.8 16.8-10 1-.5 2.1-.5"/><path fill="#546e82" d="M188.2 79q.8.3 1.4 1 0 .5-.3.8l-5 2.9q-.6.3-1.2-.1 2.4-2.3 5.1-4.6m-46 104.9-.2-1.8q6.6-3.6 13-7.8.7-.4 1.6-.4c1 .6.1 1.1-.5 1.6z"/><path fill="#526b7e" d="M141.4 415.9V414q8.4-4.7 16.5-9.8c.8-.3 1.5-.9 2 0q-8.3 5.7-16.9 11-.7.6-1.6.6"/><path fill="#55798e" d="m143.1 247-.2-.7 16-10q1-.6 2 .1 0 .8-.8 1-7.7 4.4-15 9.2-1 .6-2 .4"/><path fill="#54778c" d="M154.7 465.7q-.9-.2-1.6-1l11.8-7.4c.8-.3 1.5-1 2 0z"/><path fill="#536d81" d="M369.6 116v.9l-1 1.1a86 86 0 0 0-9.5 5.8 3 3 0 0 1-1.7.3q-.7-.4 0-1l10.6-6.7q.7-.3 1.6-.4"/><path fill="#466a7c" fill-opacity=".1" stroke="#466a7c" stroke-opacity=".1" stroke-width=".5" d="M358.7 379.1q0 1.2 1 1.6-1.7 1-3.7 1.8c-1.7 1.5-3.7 3.2-6 2.4q4.4-2.7 8.7-5.8Z"/><path fill="#6f979d" d="M308.7 304a2 2 0 0 1 2 .3c.2.8-4.8 3-5.5 3.5q-.6.1-1-.2c.9-1.1 3-3.4 4.5-3.6"/><path fill="#60c4e0" d="m285.2 75-4.3.4q-1.8 0-3.1-1c2.2-1.4 6-2.7 7.4.5"/><path fill="#55adcd" fill-opacity=".2" stroke="#55adcd" stroke-opacity=".2" stroke-width=".5" d="M316.6 387.2q.6.8 1.4 1c-1.6.8-4.2 3.2-6 2.7.6-1.7 3.3-2.6 4.6-3.7Z"/><path fill="#92c8ba" d="M196.9 197.2q0-1.2.3-2.2a13 13 0 0 0 3.5-1.7q.8-.3 1.2.1c-.5 1.2-3.8 3.1-5 3.8M277 317.8q0-.7.7-.4-.3.5-.7.4"/><path fill="#bfbc82" d="m172.1 341.8 6 2.6c-2.7 1-5.5.5-6-2.6"/><path fill="#99c5b0" d="m306.3 173.8.7 1.1q-2 .9-3.7 2.2-1.5.3-.9-1z"/><path fill="#6d9d9b" d="M242 345.3q1.5-.3 3.2 0c-.3 1.2-2.8 1.7-3.7 2.5q-.3-1.3.5-2.5"/><path fill="#56a3ba" d="M179 43.9q3.2 0 3.2 3.3a8 8 0 0 1-3.3-3.3"/><path fill="#54748a" fill-opacity=".9" d="M214 464q-.1 2-2.3 2l-.9-.3q1.5-1 3.3-1.7"/><path fill="#59a6bd" fill-opacity=".8" d="M370 38.3q.2.5.7.7v1q-1 0-2-.3 0-1.2 1.2-1.4m.6 1.7 1.1.2.4.8a2 2 0 0 1-1.5-1"/><path fill="#93bcaa" d="M218.2 336.8q.7.4.7 1.2h-3q1-1 2.3-1.2"/><path fill="#efc261" d="M206 162a2 2 0 0 1-1.1 1.2q0-1 1.2-1.3"/><path fill="#61c9e6" fill-opacity=".3" d="M370.7 39q1.2 0 1 1.2l-1-.2z"/><path fill="#597d7c" d="M317.1 339.1q-.3.9-1.2.7.5-.7 1.2-.7"/><path fill="#529aad" d="M175.9 318.1q0 .7-.7 1 0-.9.7-1"/><path fill="#a6945d" d="M189.2 303q-.4 1-1.4 1.1.3-1 1.4-1.1"/><path fill="#e1c675" d="M180.2 298q-.3.7-1 1 0-1 1-1"/><path fill="#55788e" fill-opacity=".3" stroke="#55788e" stroke-opacity=".3" stroke-width=".5" d="m143.3 448.3.8-.3q-.3.7-1 .7z"/><path fill="#64c7e6" fill-opacity=".2" d="M199.9 449q0 1-1.1.5z"/><path fill="#63cae6" fill-opacity=".2" stroke="#63cae6" stroke-opacity=".2" stroke-width=".5" d="M371.7 40.2q1.2 0 1.2 1.1l-.8-.3z"/><path fill="#53687c" fill-opacity=".8" d="M225.9 455.7q-.2 1-1.1 1z"/><path fill="#526476" fill-opacity=".8" d="M223 457.8q-.3 1-1.3.9.6-.6 1.3-.9"/><path fill="#525f71" fill-opacity=".8" d="M219.9 459.7q0 1-1.2 1.1z"/><path fill="#515b6f" fill-opacity=".9" d="M217 461.7q-.3 1-1.3 1z"/><path fill="#57a8c2" fill-opacity=".2" d="m244.3 463.3-1.2.8q.1-1 1.2-.8"/><path fill="#b19756" d="M239.9 151.2q-.3.7-1 .5.3-.6 1-.5"/><path fill="#eac164" d="M207.3 161q-.5.7-1.2 1 0-1 1.2-1"/><path fill="#262626" stroke="#262626" stroke-width=".5" d="m411 479.7-.3 3.3c.6 1.3-1.8 1.8-2.3 2.9a43 43 0 0 1-34 21.8q-98.4.2-196.9.2c-27.4 1-68.8 6.8-78.1-27.9a90 90 0 0 1-1.6-30.5v-377c.3-11-.6-21.3 2-32.1q.1-1.2-.2-2.2l1-1.9 1.2-5.5c1.8-3.3 4-6.6 4.4-10.5.7-.6.5 0 1.1.5q2-2 3.1-5 8.2-4.8 16.6-9.4.4-.3.9-.1a3 3 0 0 0 1.5-1.4c12.3-.2 24.7-2.1 37.1-2.6 8.9-.3 18.3.2 27-1.3q55 .9 110 3c28.8 0 57.6-1 86 3 3 3 4.8 4.3 9.5 5.5 9.2 10.5 12.4 14.3 14.9 29 3.6 135.5-2 271.4 1 407-.3 11.3-.8 20.4-3.9 31.2ZM158.5 12c2-2.2-5.7-.6-6.4.2-15.6-1.1-51.4 20.5-44.8 39.2-1.6 2-.8 5.1-1.1 7.5v20l1 23.4-.2 2.4q0 5.3.3 10.6c0 1.3-.7 5 .7 5.6-1 3-.7 8-.4 11.3 0 .7-.7 2.6.4 2.6-1 3.4-.6 7.8-1 11.3q0 2.4.2 4.7v9.6q.3.7 1 .8c-1.5 1.7-.8 3.8-1 5.8.6 3.5-.3 18 1.4 20l-.7 1q-.5 3.5.1 7a47 47 0 0 0 0 11q-.9 2 1.1 2c-2.4 2.4-1.2 17.2-1 21-.8 1.9-1.1 5.6-.2 7.4-1 2.1-.6 7.5-.6 10q.2.6.7.7-1.2 1 0 2c-1.4 2.7-.8 17-1.3 21q.5 3.9 0 8 0 5.4.4 11c-.2 1-1.5 8.7.9 7.8-2.4 2.5-1.4 8.4-1.5 11.6l-.3 2.4v14.8q-.3 5.3 0 10.4a47 47 0 0 0-.2 7.6q-.3 5.3.2 10.4l-.5 1q.3 2.2.3 4.6-.4 5.3.2 10.4c-.3 1-1.2 5.2.8 4.9-2 2.2-1.2 8.1-1 11-.3.8-.2 2.2 1 2-2.1 2.2-1 8-1 11q-.5 4.5.2 8.9c-.3 2.5-.8 8 .4 10.1q-.6.7-.3 1.6-.7 5.4 0 10.8-.3 1.7-.2 3.4c.4 2.1-.7 9.3 1.2 10.5-.9 1-1.3 4.3.8 3.6-2.2 1.7-1 17.3 0 20.2v1.2q.3 1.3 1 2.6 1 4.7 4.2 8.5 1.2 2.6 3.6 4.4c1.1 2 5.9 5.6 8.2 6.2 2 2 5.2 3.3 7.9 4l1.1-.6q0 1.3 1.3 1.8a46 46 0 0 0 9.6 2.2q6.3 2 12.9 2c3.6.8 13.6 1.3 17.4.6a29 29 0 0 0 12.7 0q9.6.3 19.2-.9c3.3 0 12.2.3 14.9-1q.4.8 1.3.6c5-.9 13-.2 17.6-1.4q.3 1 1.4.8 3.7 0 7.5-.3c1.6.8 15.5.3 18.4.3l34.6-.5c3.1 1 13.4.3 17.4.4q3.7.4 7.5-.4c6 1.2 39 0 47.6.3 21-2.4 28.7-26.6 31-44.4q0-.6-.6-.7 1.3-1.4 1.2-3.5a181 181 0 0 0 .8-24.5l.5-6.8-.6-11.3c-.2-.8.6-4.6-.7-4.5q.3-5.2-.3-10.5.2-3.7-.7-7.5c0-1.8.4-9.3-1-10.2q.4-3 .2-6-.3-5.5-.3-11.2l-.2-8.6-.1-8.7q.2-1-.7-1.5c1-1.9.4-4.6.6-6.6q0-1.6-1.6-1.3c2.3-1.8 1.5-9 1-11.3a11 11 0 0 0 0-6.7 22 22 0 0 0-.2-10.4c.7-1.3 1.4-3.8-.8-3.8 2.5-2 .9-16 1.6-19.7q0-1-.8-1.5 1.5-2 .4-4c1-2.3.5-8.4.5-11.1 0-1 .7-3.2-.6-3.5 1.5-2.7.8-8.3.7-11.3V246a67 67 0 0 0 .1-10.2q.5-4.4 0-8.8c.2-3 .8-7.6-.1-10.5q.4-1.2.3-2.6c.3-2.4 1.2-8.2-.6-10l1-1.1c0-.6.6-4.9-.4-4.7 1.2-3.1.5-8 .8-11.4v-15.1q0-3.7.4-7.6-.5-5.5.1-11.1-.4-2-.2-4c-.3-3.3.4-7.4-.5-10.4q.4-1.2.3-2.5.5-5.3-.2-10.4.8-4.2.1-8.6.6-5.2 0-10.4.6-4.2 0-8.5.2-10.3 0-20.5.2-1.2-.9-1.8c1.4-1.3 1.1-8.7 0-10.2 1-2 .6-5.3 0-7.5 0-5.9.4-12.1-1-17.8q0-1.2-1.1-1.5.6-2.5-2-2c2.6-1.8-1.2-5.3-2.3-7q-.6-.7-1.7-1c0-1.8-3-4.2-4.8-4.8-1-2.7-15.7-8.5-19-9.4q-1-.8-2-.5c-2.2-.3-4.7-1.8-6.8-.8q-.2-.6-.8-1c-4.1-.7-9.5-2.2-13.4-.8.2-2-8.4-1.5-9.8-1.4-1.7-.8-13.3-.7-15.5-.2-2.3-.3-6.5-.9-8.5.4-2.7-1-13.1-.5-16.1.2q-.7-.6-1.6-.4-5.6.7-11.3 1-9.6.5-19 1.5c-.4-.8-2.2-1-2.2 0q-2 0-4 .4-8 0-16-.5a6 6 0 0 0-3.9-.4c-3.2.2-10.6-.8-13.2-.3-.7.1-1.9-1.6-1.8-.3a9 9 0 0 0-4.1-.6 201 201 0 0 1-12.8-.9c-4.6 0-11.1-.8-15.5-.1v-.5q-8.6-.5-17.4-.1c-5.6.6-13.8-.2-18.8 2.6Zm-11.7 24.4a5 5 0 0 0 4.2-.6 133 133 0 0 1 22.1 4.2q1.2 1.1 2.8 1a5 5 0 0 0 3 2.9 8 8 0 0 0 3.3 3.3q-.2 1 .4 1.7c9.7 17.8 16.2 25.9 38.4 26.7q3 .4 6.2.6 6.7.6 13.7.6 6.1.3 12.3 0 11.3-.1 22.5-1c1.3 0 4.6.8 5.2-.4l4.3-.5c29.8-2 29-5.5 44.8-27.3 7.2-13 26.6-12.4 38.7-7.9q1 .3 2 .3.5.9 1.4 1 .4 0 .8.3l1 .8c2 1.3 5.4 6.8 7.1 7.2q-.6 1.6 1 1.6c-2.2 2-1 18.5-.8 22.2q-1 3-.2 6c-.6 3.5-.5 7.7 0 11.2q-.2.8 0 1.4c-.2 3.6-1.2 19.2.6 21.3l-.9 1.2q-.3 3.3.3 6.6c-.2 2.5-1.1 9.3.6 11.2l-.9 1c.2 1.2-1 6.8 1.4 6.1-2.3 1.5-1.6 9.8-.9 12q-.1.8.8.8c-2.2 2-1.4 9.5-.9 12.1-.4 1-.8 3.3.9 3-2.2 1.9-1.5 9.6-.7 12.1a10 10 0 0 0-.1 6.7c-.8 3-1 8.6 0 11.5-.5 1-1.1 4 .8 3.7-2.3 1.8-1.3 9.5-1 12a5 5 0 0 0 .1 4c-.6 3-1 8.4.3 11.1q-.4.9-.3 1.8c-.6 3-.8 9.4 0 12.1-.4 1-1.4 7.8.9 7-2.3 2.1-1.4 8.1-1 11-1 1.8-.5 11.2.3 13.1q-.7 1.5-.3 3c-.4 3-.9 8.6.4 11.3-.6.8-1 3 .6 2.6a62 62 0 0 0-.7 22.3c-.6.8-1 3.2.7 2.7-2.2 1.7-1.5 9.9-.8 12.2a9 9 0 0 0-.3 5.5c-.3 3.5-.6 8.9.1 12.3a14 14 0 0 0 0 7c-.5 2.5-.7 9.8.2 12.3-.5 1-1.5 7.2.8 6.6-2.3 2-1.3 10.5-1 13.1q-.4 2.1-.3 4.3c.2 3.8-.5 10.3.3 13.7-.3 1.1-1.2 5.4 1 5-2.4 1.7-1.4 10.8-.8 13.3q-.5 1.3 0 2.5c-.5 1.9-.5 13.7.7 14.1-.8 1.2-.8 3.6 1.1 3.1-2.1 2.2-.7 17.5-4.7 22.6l-2.6 4.6-1.7.5c-18.9 11.4-40.7 5.3-60.4 7.2q0-1-1-.8-1.8 0-3.3.4c-5.4-1-16.4-1-22.4-1.3q-1.5-.3-2.9 0-12-.2-24 .4-3.7-.7-7.8-.4c-6.4.1-17.4-.5-23.3.5-1-1-5.2-.4-6.7-.5q-11.6-.2-23.1.3c-1.5-.5-9.9-1-11.1.5q0-1.2-1.4-1l-32.6 1q0-.6-.5-.6-6-.2-11.4-2.6-2.3-1.4-4.2-3.2l-1.2-1.8c-2.9-2-2.5-8.3-4.5-9q.1-1-.4-1.6c-.3-5.6-.3-16.5-1-21.3q.5-1.5 0-2.8.5-5.7-.1-11.5.3-1.2.4-2.6 0-5.5-.4-11.1a297 297 0 0 0 0-20.7 166 166 0 0 0 0-13.1v-25.6q.1-1.1-.8-1.6c1-.9 1.5-3.2.1-3.9 1.4-2.5.6-9.3.7-12.4q.2-3.2.1-6.5.1-5.8-.2-11.5.3-1.7.2-3.4l.2-11.5v-1.4q.1-6-.4-11.7.6-3 .4-6.4c-.3-3 .6-9.9-.6-12.2l.8-1q-.3-3 0-6l-.3-21v-2q.6-6 0-12 .8-3 0-6c.2-5.1 1-16.7-.3-21.1a80 80 0 0 0 1-12.3q.3-1.3-.7-1.8c1.2-1.6.6-4.6.8-6.6q0-11.2-.3-22.5l.5-3.6q-.2-5.2-.2-10.6.2-1-.7-1.6 1.1-1.7.7-3.9l-.1-24.5q.2-1.2-1-1.6 1.3-2 .4-4a36 36 0 0 0 0-11.8q.2-15.2.8-30.3c.3-.9.6-3-.9-2.8 2.4-1.6 1.9-3.4 2.7-5.8l2.6-6.5q.5 0 .8-.2c2.1-3.8 6.1-6 9.8-8.1Zm130.2.4c4.6 3 15-2 17.2 4.3l-.2 2.6c-1.3 4.5-4.6 3.6-8 5-.8-1.3-2.8-.7-3.8 0-4.8-2.4-17.4 1-21-2.4-2.4-12.5 9-6.8 15.8-9.5ZM217.5 44c1.2-8.4 18.3-7.4 17-1.8-1.4 6.9-9.9 4.2-14.9 4.6q-1.8-.7-2.1-2.8Zm128.7 1.8c-2 .8-11.4 5.7-9.5 8.4.7 1.2 2.6 2.4 2 4l-4 7.9c-1 .3-.4 4-1.1 5l-2.4 4.1-10.2 5.9c-1.2-.2-5.3-.5-5.8 1q-9.5 1-19 1.7c-4.6-1.3-10.7 0-15.6-1.6q-.5 0-.6.6-5-.9-10-.9-1-1-2.5-1-8 .4-16-.4-.8 0-1.3.5-9.6-.1-19.1 1.4-4.2.3-8.5 0l-.5.5q-9.5 0-19.1.4L189.6 80a81 81 0 0 1-7.8-5.8l-3.7-4.3a62 62 0 0 1-3.4-7.8 5 5 0 0 0-1.9-3c-2.3-10.8-12.8-17.2-22.4-10.2q-1.6 0-.7-1.4c-1.4-1.4-3.3.7-4.6 1.3-7.9 3.9-4.4 18.4-4 25.3q-.2 4 .6 8 0 3.7.2 7.3c-.9.7.3 2 .7 2.6-1.5 6.4-.4 29.2-.6 37.2q-.2 1.5.4 2.9c-1 2.7-.4 8.9-.4 12 .1 2.2-.5 5 .5 7-1.2 2.5-.4 8.1-.6 11q0 3-.2 5.9l.3 2.7a131 131 0 0 0 0 11.4l.1 1.8a566 566 0 0 0 0 22.2q-.2 1 .3 1.9c-1.1 2.5-.4 7.5-.6 10.3a8 8 0 0 0 .3 3.7q-1 .5-1 1.5c0 4.5-.7 8.3 1.3 12.5-1.3 2.3-.7 7-.6 9.6q.3.6 1 .7l.3.7c-2.4 1.8-1.2 7-1.5 9.6q0 1.4 1.3 1.7c-2.3.4-1.3 3.2-.8 4.7a598 598 0 0 0-.5 39 103 103 0 0 0-.2 12.9v15c0 2.5-.7 8.6.4 10.6q-.5 0-.7.5l.3 6a82 82 0 0 0 0 12.9q-.4 5.2-.1 10.4-.5 2.3.1 4.7-.5 4.7 0 9.3.1.6.8.6c-1.9 2.7-.7 8-1 11.1q0 4 .4 8c-.8 2.7-.2 7.1-.3 10l.1 1.9.1 19.3q1 1.4 2.3.2v.5c.3 1.6-1.8.6-2.1 2.6q-.3 4.3 0 8.7.5 1 1.5 1 0 .3-.2.5-1.2.6-1.1 1.9v5.8c.6 3.9 7.5 8 11.2 8.3q.7.8 1.6 1c4 1 9.4 2.3 13.6 2.3q3.3.8 6.6 0c.8 1.5 5.4 1 7 .7q7.5.7 15.4 0c3.2.4 7.2.6 10.4-.6q1.2 0 1.6-1.1l1.5-1.3.9.4c-.5 1-1.2 2.1.7 2.3 4.6-.5 11.2 0 15.5-1.7 1.7.9 4.4.3 6.3.4q3.2.2 6.1-1.1 0 .9 1 .7l16.6-1.4q4 .5 8 0 2.4.9 4.9.5 7.6 1 15.3 1l9.8.9q3 .4 5.8.3c3.2 0 10.3 1.3 13.2.4q2 .6 4.1.3h3.9q4 .5 8 0c4.7 0 12.8 0 17-1.9a33 33 0 0 0 15.8-3.4 15 15 0 0 0 6.2-5.5q1-.3 1-1.4a154 154 0 0 1-.1-12.9q-.2-1.6-1.4-2.6c2.1-2.5.7-10.8 1.3-14.1q.3-3.6-.5-7c1.1-2.5.4-9 .5-12q.4-3-.4-6c1-2.4.5-8.2.4-11q.3-3-.2-5.9c.7-3 .3-7.9.2-11.2l.2-1.7-.2-3q.5-5.7 0-11.4c0-1.3 1-5.3-.7-5.5 1.4-2.5.6-6.8.9-9.7q0-1.5-1.6-2 1.4-1.4 1.4-3.1V319q.6-1.5-1-2.1c1.9-1.1 1.2-9.6.6-11.1l-.2-.7c1.1-4.3.4-15.2.7-20.3q-.3-1.4-.2-2.8a229 229 0 0 0-.3-18.1v-20.8c.8-1.1-.2-3-.3-4.2.9-2.6.2-7 .4-10 .8-1-.3-2.3-.9-3.2l.5-.8q.6 0 .7-.5v-9l-.8-5.5q.7-5.6 0-11.1.7-2.4 0-4.9a72 72 0 0 0 0-14 78 78 0 0 0-.2-16 649 649 0 0 0 .2-35.8c0-3.4.6-8.1-.3-11.3v-1c.8-3 .5-7.7.3-10.9q.3-2 0-4a81 81 0 0 0-.1-13 52 52 0 0 0-.2-13c1.2-2.8.4-9 .3-12q1-.4 1-1.5-.4-4.5-.3-8.8-1.5-3-4.3-4.4-3.4-1.7-7.3-2.3c-1.4-1.8-9.1-.5-11.5-.8q-.9 0-1.3.6ZM3.7 256q0-27.8 3.5-55.5c3.7-30.3 17.5-83 42.2-102.6 4.4-2 7 4.6 4.8 8-26.2 25.4-35.2 68.8-40 103.6-6 61-4.7 150.5 40.1 197.8 1.6 3.1-.7 9.6-4.8 6.6C12.5 379.6 4 303.6 3.7 256Zm452 154q.2-1 .8-2c38.7-37.7 44.4-119.8 42.4-170.5-2-41.7-10.7-102-42.2-132.5-3-5.1 3.5-7 7.4-5.7a80 80 0 0 1 15.5 18.7c32 55.2 34.2 136.8 25.2 198.5-5.3 31.6-15.8 72.2-39.8 95-2.5 2.3-8.4 2.3-9.3-1.5ZM310 165.3l1.8 2a89 89 0 0 1 13.3 25.5c-.1.8-.3 2.2.8 2.4l2.2 10.2q.5 1 1.7 1l.3.3q-1.3.5-1.3 1.7.4 5.4 1.3 10.7-.2 1.5.2 2.9 0 4.5.5 9c-1.7 1.1 0 4.3.4 5.9q-.6 6.3-.3 12.6.3.6.8.8l.4.4a2 2 0 0 0-1.4 1.7 96 96 0 0 0-.3 13.6q-1 12.6-1 25-.4 2.4 1.5 3.4c.2 1.9 6 7.9 7.2 9.8q2.4 3.2 5 6.2 4.1 7 6.2 14.9-.4 2.8-.1 5.7c-5.4 14.2-14.6 16.2-28.7 16.2q-13.4-.3-26.7-1-1.5 5.8-3.8 11.4c-14.9 30.5-59.8 29.5-70.2-4q-.3-.6-.9-.7v-.7c-.2-1.3-.5-6.4-1.6-6.9a207 207 0 0 0-33 1.5q0-1.4-1.4-1.5l-4.9-.9q-3-1.5-5.9-2.6-.3-.9-1.2-.8-.2-.6-.8-.9a26 26 0 0 1-4.4-7.1q-.6-2.7-2.1-5c0-4.4-1-7.6.4-12q1.4-2 1.7-4.3a4 4 0 0 0 2.2-2.7c1.5-.3 8.6-7 10.2-8.3q.8-.7 1-1.8 1 0 1-1c2.7-1.4 3.7-5 4-7.8q1.3-1.5-.2-3 .4-.9.4-1.9c1-.3.6-1.9.7-2.7q.3-1.6-.8-2.7V274a7 7 0 0 0-.7-3q-.6-16.5-1.4-32.8 1-1 0-2.2l.8-25q.2-1.2-1-1.7 1.4-.5 1.7-2a85 85 0 0 1 3.5-14.4q1-.6 1-1.9 5.5-15 16.5-26.7.3-.5.3-1a2 2 0 0 0 1.2-1.3q.8-.3 1.2-1l8-6.2c30.3-22.2 69.5-16.5 94.7 10.5Zm-70.1-14q-.7-.2-1 .4c-22 5.3-35.5 22.2-41.7 43.3l-.3 2.2c-1.8 3.8-2.4 8.8-3 12.9a19 19 0 0 0-.7 4.8 62 62 0 0 0-1.2 14 265 265 0 0 0 0 35.2 356 356 0 0 0 .8 24.8c-.4 4.3.7 8.7-.7 12.9q-1.5.5-2.9 1.2-1 0-1.4 1.1c-4.2 2.2-11 9.1-12 14q-.7.1-.6 1a13 13 0 0 0-.3 9.5q0 .9.8 1.4.4 2.4 2.4 3.9c2.8 4.4 8.4 3.5 12.9 3.2 2.9 0 6 .9 8.9 0 2 1.6 13 .7 16 1l3-.1c2.7-.3 4.2-2 6.8-.3q11 .3 22-.6 3.6.6 7.2.1 8 1 16.3.5c3.1 0 9 1.7 11.8 1 3.7 1 4.7.3 7.6-1.5 2.6-.8 3 .3 4.3 2 .9 1.4 4.6.7 6 1q7.5.3 15-.4.9.1 1.2-.7a24 24 0 0 0 7.1-1.2c16.8-4.4 14.2-17.9 5.5-29a5 5 0 0 0-2.7-2.9c-.1-2.1-3.7-6.3-5.3-8l-.5-1-1-2-.5-16q.3-5.4 0-11v-21q0-4.8-.5-9.8l-.2-7.2q.2-5-.8-10 0-3-.5-6a128 128 0 0 0-4-22 86 86 0 0 0-11.8-25.2l-1.9-1.9a33 33 0 0 0-10.8-9.2 33 33 0 0 0-10-4.2q-2-.9-4.1-1.3-7.5-1.6-15-1.2-10.3-.2-20.2 2.3ZM45 256c0-30 3-79.6 19.3-105.2 3.7-2.5 10.5-.1 8.4 5.3-15 26.7-16.9 68.3-17.6 98.4.4 32 2 74.8 17.8 103.1 1.3 5-5.9 6-8.6 2.7-16.1-27-19-73.3-19.3-104.3Zm393.6-102c1.1-4.8 8.5-6 10.7-1 15.8 29.3 17.6 74.8 17.5 107.5-.4 24.5-4 80.9-19.7 100-2.6 2-8.6 2.7-8.2-2 22.8-44.4 20.3-115.5 12.9-163.9a143 143 0 0 0-13.2-40.6ZM260 177c0 8.8-4.5 6.4-11.2 8.4-14.4 4.3-21.8 15.1-23.4 29.7-1 4.6-6.2 3.2-7.1-.8a38 38 0 0 1 38-40q2 1.1 3.7 2.6Zm-32 170.8a3 3 0 0 0 1 2.5c1.7 6.8 9.5 13.8 15.9 16.5q3.5 1.8 7.3 2.1c13.6 3 27.3-3.4 31.6-17a9 9 0 0 0 1.2-4.8q.5-2-1.5-2l-41.6.2h-14.2c-1 .6-.3 1.9.3 2.5Zm9.7 81.6q.6 1 1.7.9 38.8-.2 77.6.4 2.7 0 2.8 2.8c-.4 8.5-9.1 6-15 6.5q-1.4-.1-2.6.2a502 502 0 0 0-25.2 0 443 443 0 0 0-28.2 0 6 6 0 0 0-3.5.1c-6-.3-19-.7-24.3.4q-1.9-1-4.1-.6h-1.5a509 509 0 0 1-21.4-.6c-4.2-1.7-.6-9 3.9-9 11.2-.3 26.1.4 37-.8 2.3 3 2-.7 2.8-.3Z"/><path fill="#927d4b" d="M184.3 279.8q1 1.2.7 2.7c0 .8.3 2.4-.7 2.7q-.7-2.7 0-5.4"/><path fill="#4e8a9d" d="M277.8 74.4q1.4 1 3.1 1c-.6 1.2-4 .5-5.2.5a4 4 0 0 1 2-1.6"/><path fill="#61c8e4" stroke="#61c8e4" stroke-width=".5" d="M172.8 59a40 40 0 0 1-4.8 4.4c-1 .6-1 2 .3 1.6 2-.7 4.3-3.6 6.4-3q1.5 4.1 3.4 8l-8 8.6c1.3 1.9 8.5-6 11.7-4.4q3 2.5 6.4 4.9-2.7 2.2-5.1 4.5.6.5 1.2 0l5-2.8q.4-.3.3-.8 6.8 1.5 13.4 3.3l19.1-.4q-.3.8-1.1 1.4-9.2 7-18.7 13.6-.3.5.2 1 1.2-.7 2.7-1l5.4-3.8 20.5-11.7a110 110 0 0 1 19.2-1.4 1056 1056 0 0 1-47.4 35.4c-.3.3-1.4.9-.6 1.3q1.8-.8 3.5-1.3C216.4 110 261 81.3 270 81.9q5 0 10 .9c-.7 1.7-3.3 3-4.7 4.1q-27 19.5-54.6 38.5-.6.3-.8 1.1c.7.6 2.3-.7 3.1-.7q33.1-19.6 66.6-38.7 3-1.9 6.4-3.3 9.6-.6 19.1-1.8-.3.8-1.1 1.5l-13 7.8q-1.5 1-2.9 2.3.9.7 2 .1 10.2-6.6 21-12.6l10.1-5.9L369 53.6q1-.3 1 .9.3 4.3 0 8.5c0 3 .8 9.2-.4 12l-19.8 12.3-11.8 7q-1.6 1-3 2.3c1.5 1.4 2.7-.7 4-1.4l10-5.7q1-.4 1-1.3 1-.1 2-.7 9-5.2 17.9-10.7a52 52 0 0 1-.1 11.3 4 4 0 0 0-1.8.5L342.4 105l-11.3 6.6-4.9 3.2q-.4.6.2 1l2.8-.9q1.6-1 2.8-2.3l2.8-1.1q1.1-1.2 2.5-2 16.3-9 32.7-18.7.3 5.1-.1 10.2-25.4 16.5-50.7 32.5 1.2.9 2.6 0 3-2.3 6.2-4.2 21-12 41.9-24.3c.2 3.2.5 8-.3 11q-.8 0-1.6.4l-10.7 6.7q-.6.6 0 1a3 3 0 0 0 1.8-.3q4.5-3.1 9.6-5.8l1-1.1c.8 3.2.3 7.9.2 11.3q-1-.2-2 .4l-56 36-1.9.7c-25.2-27-64.4-32.7-94.7-10.5l-8 6.2q-1 0-1.2 1-1.2 0-1.2 1.2 0 .7-.3 1A80 80 0 0 0 188 191q-1.1.5-.9 2-1-.1-2.1.4-8.4 5.2-16.8 10-12 7.2-24.2 14-1 .6-2.2.9c.2-2.8-.5-7.8.6-10.3q12-7.5 24.3-14.8l5.2-3.7q-1-.6-2-.2-13.8 8.6-27.8 16.8a566 566 0 0 1 0-22.2l14-8.4c.6-.5 1.5-1 .5-1.6q-.9 0-1.6.4-6.4 4.2-13 7.8a131 131 0 0 1 0-11.4 73 73 0 0 0 16.6-12.3 324 324 0 0 0 39.3-27q-.8-.6-2-.1a2775 2775 0 0 1-46.2 27q-3.7 2.3-7.7 3.9c.1-3-.6-8.6.5-11.1a1968 1968 0 0 0 36-27c.6-.7 4.8-1.9 3-2.8-4 .8-12.6 6.9-16.2 9.4-4.4 1.9-12 7.2-15.7 8.6l-6.7 4.5-.9.3c0-3.1-.6-9.3.4-12q6.8-4.8 13.2-10l1.6-.4q1.7-1.5-.5-1.4l-1.9 1a197 197 0 0 1-12.8 7.9c.2-8-.9-30.8.6-37.2q2.7-2.1 5-4.5-.7-.7-1.6-.2a7 7 0 0 1-4 2l-.3-7.2q-.3-2.7.5-5.3l6.5-6.2q-.3-.6-1-.4-3.2 2.3-6.6 4c-.3-7-3.8-21.5 4-25.4 1.3-.6 3.3-2.7 4.6-1.3q-1 1.4.7 1.4c9.6-7 20.1-.6 22.4 10.2Zm173.4-13.2q-.5 2.6-2 5-.2.6.4 1 5.2-2.5 10-5.6 2.3-.5 4.4-.2 3.9.6 7.3 2.3c-1.2 3-25 15.6-29.3 18q-1.3 1-2.2-.2l4-7.8c.5-1.7-1.4-2.9-2.1-4.1-1.9-2.7 7.5-7.6 9.5-8.4Zm5.7 29.3q1.4-.4 2.6-1.1 6.7-4.5 13.9-8.3c1.1-.5.7-2.1-.5-1.4L353.5 73zm-124.7 1q-3 0-6.2-.5-1.2-.5-.5-1.6c2.4-1.9 6.5-1.5 6.7 2.2Zm26 .7q-6.1.3-12.3 0c4-2.4 9.8-7 12.3 0Zm70.6 40.4c.3-.1 1.7-.6.8-1q-.7.2-.8 1Zm46.2 15.6a649 649 0 0 1-.3 31.2L325 192.8q-4.6-14-13.3-25.6 0-.7.6-1.2c18.7-11.2 38.4-22.6 57.6-33.2ZM260 149c-7.2 4.9-33.4 20-40.2 23.1 3.5-4.6 17-16.4 19.2-20.3q.6.2.9-.5A73 73 0 0 1 260 149Zm15 1.3q2.3.3 4.2 1.2-10.5 6-20.9 12.3-1.8 0-.4-1.2l6.1-4q5.7-4 11-8.3Zm14.2 5.4a24 24 0 0 1 4 2.7L264.3 175c-1.8 1.1-1.9 2.2-4.3 2q0-.4.4-.9a1106 1106 0 0 0 28.8-20.4Zm10.8 9.2 1.9 1.9-2 .6q-7 4-13.9 8.3-1 .5-2.2.5.3-1 1-1.6a189 189 0 0 0 13.2-8.8q1-.6 2-.9Zm70 5q.3 5.1-.1 10.2-17.6 11.7-35.6 22.7c-1.6 1.4-3.4 1.7-4.5 3.6q-1.2.2-1.7-.9l-2.2-10.2zm.1 14a72 72 0 0 1-.2 10.2q-18 11.8-36.2 23.4-1.7 1.1-3.6 1.7-.9-5.2-1.3-10.7 0-1.3 1.3-1.7 20-11.6 40-22.8Zm-56.4 8 .7 3.1a222 222 0 0 0-18.4 10.6q-2.2.5-3.6 2-2.3.3-.5-1.1 11.1-6.9 21.8-14.5ZM186.3 196a85 85 0 0 0-2.7 11.3q-.3 1.5-1.7 2L143 231.7q-.7.3-1-.3-.3-4.7 0-9.4l27.1-17.3q7.3-4.3 14.2-8.8c.8-.4 2.4-1.2 2.9 0Zm183.6 2.8q.7 5.7 0 11.2c-11.2 5.8-26.5 16.8-37.8 23.7-1.4.6-1.2-2.1-1.3-2.8q-.5-4.5-.5-9zM193.3 215q0-2.4.7-4.8c3.6-1.1 13.4-7.2 17-9.7q1.2-.4 2 .2-10 7-19.7 14.3Zm-10.3-4-.8 25q-1.2.2-2.1.6L143 258.3q-1.3-.3-1.3-1.7c.3-2.6-.9-7.8 1.5-9.6q1 .2 2-.4 7.3-4.8 15-9.1.8-.3.8-1-1-.9-2-.1l-16 9.9q-.8 0-1-.7c-.2-2.6-.8-7.3.5-9.6l38.5-24.5q1-.6 2-.5Zm134.8 2.9q.5 3 .5 6c-3.8.1-31.7 17.5-37.3 20.6q-3.9 2.7-7.9 5.1-.9.5-1.8-.2zM370 225l-.5.8-34.5 21.5c-1 1-3 1.6-3.3 3q-.6-.2-.8-.8-.2-6.3.3-12.6c11.4-5.4 26.5-15.3 38.2-21.4 1.3.6.4 8 .6 9.5Zm-178 3.8V226q1.2 0 2-.5l8-5q1-.5 2 0-.2.8-.9 1.1-5.7 3.3-11.1 7.2Zm178.4.2c-.2 3 .5 7.4-.4 10q-19.8 12.9-39.6 25.2-.2-5.9.3-11.8a2 2 0 0 1 1.4-1.7l36.2-21q1-.6 2-.7Zm-51.4 1q.3 3.5.2 7.1l-52.3 30c-1.2.7-2.3 2.6-3.8 1.4.2-1.2 7-4.5 8.2-5.7l45.8-32q.9-.6 1.9-.9Zm-137 8.1 1.4 32.7q-21 12.3-42.1 24 0-15.9.7-31.9a17 17 0 0 0 4.4-2.2q17.7-11.4 35.6-22.6Zm188.2 5V264c-9.9 7.8-29.4 19.8-41 27q.2-12.4 1.1-25a1826 1826 0 0 1 39.9-22.9Zm-50.6 3.8v5.9q-.9 0-1.8.4-16.5 9.5-33 19.3-2 .4-3.5 2-2.3.3-.5-1.2a636 636 0 0 0 38.8-26.4Zm-127.8 17v-3q1 0 2.1-.6 8.7-4.8 17-10.2.9-.4 1.8.3L194 263.3q-1 .6-2 .8Zm173-7a2 2 0 0 0-2 1c-1 0-2.8.2-3 1.6 1.2 1 2.7-.6 3-1.6q1.5.3 2-1c.8 0 4-1 2.7-2a3 3 0 0 0-2.7 2Zm-45.2 6v5q-15 8.7-29.7 17.6-1 .5-2-.1.3-.7 1-1a1385 1385 0 0 0 30.7-21.4Zm-98.5 6q-.2 1-1.1 1.6-13.8 9-27.3 18.2l-.2-3.8c3.8-2.2 26.5-16.3 28.6-16Zm149.4 3V282L349 295.3q-1.5 1-2.9 2.3 1 .6 2 0l20-12q1.3-.6 2.7-.7c-.3 5 .4 16-.7 20.3-2.3.4-8.4 5.2-11.2 6.4q-2 1.5.4 1.3l9.4-5.5q1-.6 1.6-1.5c.6 1.5 1.3 10-.6 11q-7.5 4.8-15.2 9.1l-4 3c-1.4-.6-.5-2.6-1.2-3.7a54 54 0 0 0-6.2-14.9q1-.6 1-1.9-.7-5.3-6-4.3c-1.2-2-7-8-7.2-9.8 12.1-6 27.5-15.7 39.7-22.4Zm-186.4 2v5.8q-.6 2.7 0 5.4.2 1-.3 1.8l-40.2 23.4a6 6 0 0 1-2.4.7q0-4.5.3-9.1c1-2.7 37.3-24.7 42.6-28Zm-8.3 44.1c1-4.9 7.7-11.8 12-14q.9-.3 1.3-1.1 1.4-.7 2.9-1.2c13.3-7.8 27-15.1 39.9-23.5q1-.4 1.8.3c0 1.2-2.3.8-3 1.7L178 317.4q-1 .6-2.1.7Zm143.8-39q.3 2 .1 3.8-9 5.2-17.8 10.7-1 .5-1.9-.1zM184 290c-.3 2.8-1.3 6.4-4 7.9q-.7 0-1 1-1 .1-2 .8l-8 5.7q-1.4 1.5-1.2 3.5a4 4 0 0 1-2.2 2.7c-6.9 3.4-17.8 10.8-24.4 13.3V315q.6.1 1-.1 20-12.6 39.6-25.4 1.5-.6 2.2.7Zm136 4.9q.7 1 1 2-3.7 2-7.3 4.2a8 8 0 0 0-3 3.1 2 2 0 0 0-2.1-.3q4.6-4.4 9.6-8.3.9-.7 1.9-.7Zm-142 38.9q-2-1.5-2.4-4c14-8.8 29.4-16.5 43.3-25.6q.9-.4 1.8.3L178.6 333a1 1 0 0 0-.5.8ZM327 306q2 .8 2.7 3c-3.6 2.2-9 5.7-12.8 7q.4-.9 1-1.6zm-127.1 31.2c-3 .8-6-.1-9-.1q.1-.6.7-1l39.5-22.7q2.6-1.5 4.8-3.2 1.5-1 3-.7-19.5 14-39 27.7Zm-36-21.3c-1.2 4.5-.3 7.7-.3 12l-21.8 12.6c-1.1-2-.3-8.1-.5-10.6 1.4.2 20-12.2 22.7-14Zm66.4 17q0-1.5-.5-3 9.2-5.2 18.1-10.7c.9-.4 2.1-1.4 3-.7q-9 7-18.3 13.7-1 .6-2.3.8Zm46.8-15c-.6 3-21.3 15.5-22.2 19.3q-3.6.6-7.1-.1c.7-5.2 25.1-16.8 29.3-19.3Zm93.6 1.2v18.2q0 1.9-1.4 3.2 1.6.5 1.6 2c-.3 2.9.5 7.2-1 9.7q-26.9 17.2-53.3 35c-1.3 1-4 2-4.5 3.7q-2.4 0-3.2 2.1-1.3-.2-2 1c-.8.5-2.7.5-2.9 1.7 1 1.3 2.7-.6 3-1.6q1.5.2 2-1 2.2-.1 3-2.2c1.8.5 4.4-2 6-2.6l52.8-30.6q.3 5.7 0 11.4-1 0-1.8.5l-42.3 28.8q-2.7 1-4.6 3c1.6 1.2 2.6 0 3.5-1.2l1.5-.3q4-2.5 8-5.3l2.7-1.2a10 10 0 0 1 4.6-2.7q.7-1 1.7-2l3.7-1.4a2 2 0 0 0 1.3-1.6l.8-.8c2.4.8 4.4-1 6-2.4q2-.7 3.8-1.8c3.5-2.2 8-4 11-6.9.1 3.3.5 8.1-.2 11.2L342 405.4c-2 1.5-7.6 4.3-8.9 6q1 .8 2 .2 17.6-10.6 35.6-20.8c.1 2.9.6 8.6-.4 11.2L346 420.4c-1 1-6.8 3.9-6.9 5q1.5 0 3-.6 14.1-8.6 28.6-16.9c-.1 3 .6 9.5-.5 12-6.8 6-15 13.3-22.3 18.5q-1.5 1.3.5 1.3c4.3-1.6 19.1-13 22.3-12.8-.6 3.3.8 11.6-1.3 14q-3 2.7-5.3 5.7c1 1.4 4.8-2.8 5.8-2q.5 6.7 0 13.3a15 15 0 0 1-6.2 5.5c-1.5-1.5 3.2-6.4.2-6l-16 9.4a52 52 0 0 1-17 1.9q.6-1.6 1.5-2.8 7.2-7.4 14.7-14.3c1.4-1 .1-1.8-1.2-1a797 797 0 0 1-31 17.8c-2.9.9-10-.4-13.2-.5a227 227 0 0 1 30.4-26.3q.6-.3.7-1-1.3-.5-2.4.3l-44.3 26a118 118 0 0 1-15.3-1.1l8.2-6.3c.7-.7 2.1-1.5 2-2.7 8.4-4.5 16.1-10.7 23.8-16.8 5.9-.6 14.6 2 15-6.5q0-2.7-2.8-2.8-38.8-.6-77.6-.4-1 0-1.7-.9 8.6-5.6 17.4-11 .6-.2.7-.9-.7-.7-1.8-.2l-16.4 10c-.5.7-3 1.4-2.8 2.4-10.8 1.2-25.7.5-37 .9-4.4 0-8 7.2-3.9 8.9q10.8.6 21.5.7-1.8.8-3.4 1.8l-12.1 7-1.1.5c-3.7 2.1-30 16.7-30.5 18.4-4.2.1-9.5-1.3-13.6-2.2l12.3-8.4c-.6-1-1.3-.3-2 0l-11.9 7.3c-3.7-.2-10.6-4.3-11.1-8.2l-.1-5.8q0-1.5 1.1-1.9 1 0 1-.7l4.4-2 23.6-14.3q1.5-1 2.5-2.3c-.5-.5-5 2.2-6 2.5q-12.2 7.6-24.5 14.8l-2.2.5q-.4-4.4-.1-8.8c.3-1.9 2.4-.9 2-2.5q2-.4.1-.6-1.3 1.2-2.3-.1v-19.3q.8 0 1.5-.6 8.6-5.3 17-11c-.6-.9-1.3-.3-2 0q-8.2 5.2-16.7 9.7c0-2.9-.5-7.3.3-10l77.3-51q.6 0 .9.5c10.4 33.6 55.3 34.6 70.2 4.1q2.2-5.6 3.8-11.4 13.3.7 26.7 1c14.1 0 23.3-2 28.7-16.2q2.3-1.4 4.3-3l1.5-.4q6.8-4.5 13.8-8.4a3 3 0 0 1 2-.1Zm-77.3 5.8c-1.5 2.8-8.1 7.8-10.6 10q-2 .4-3.5 1.8-.7.4-1.1-.2c.4-1.5 2.2-2.2 1.7-4.2 2.7-1.5 11.1-6.8 13.5-7.4Zm69 8.1c1 1.6 5.5-1.6 5.9-2.5-1.1-1.5-4.6 2-5.8 2.5Zm-61.4 7.1c-1.5-.2-5.2.5-6.1-1q6.1-3.6 12.1-7.5.9-.6 1.7-.2l-7 6.7a4 4 0 0 0-.7 2ZM165.8 333q1.6 4 4.3 7.1l-28.8 17q-.2-5.1.1-10.1 10.6-7.5 21.7-14.5 1.6-1.2 2.6.5Zm158.4 4.9q-3 1.2-6.2 1.2c0-1.5 5.1-3.4 6.3-4.3.6-.3 1.8-2.3 2.5-1.2zm-153.2 3q.8 0 1.1.9c.5 3.1 3.3 3.5 6 2.6l4.8.9q.3 1.5-1.2 2l-38 22q-1.1.7-2.4 1-.3-5.3 0-10.4 1 0 1.7-.5c3.2-2.4 27.5-16.8 28-18.4Zm48 11.3q-2.2.3-3.9 1.5a8422 8422 0 0 1-73.8 42.3c.2-3.1-1-8.4.9-11a6 6 0 0 0 3.2-1q5.4-4 11.4-7 1.1-.6.7-1.9-1.3.6-2.2 1.8c-2.2.7-12.7 6.2-13.1 8a1 1 0 0 1-.9-.6q-.3-4.6.1-9.3 1-1 2.2-1.8l36.1-22.9q2.6-1.4 4.6-3.5a207 207 0 0 1 33-1.5c1 .5 1.4 5.6 1.6 6.9Zm10-2a3 3 0 0 1-1-2.4q1.5-1.2 3.4-1.5c.4.6-1.9 3.4-2.5 4Zm56-3.1q.1 2.6-1.2 4.8l-5 2.5c-.7.3-1.7 2-2.4 1zm-32.8 21.8q-3.8-.4-7.3-2l18.8-11.6q.6-.2 1 .2L252.4 368q-.3.4-.3 1ZM145.5 434c1 2.3 5.5-1.8 6.5-2.7-1-1.5-5 2.6-6.5 2.7Zm75.5 6.7c5.4-1 18.3-.7 24.3-.4q-1.4 1.4-3.3 2-.6-.4-1.3-.1l-11.2 5c-1.7 1-5 2.5-6.2 3.8l-3.5 1.4-.8 1q-7.6 4-14.7 8.6c-1.4.2-2.2 1.7-3.6 1.3-.9.6-1.1 2.8-1.6 3.9q-1.2.5-1.8 1.5-7.7.7-15.5 0c4.8-6.7 31.2-21.6 39.2-28Zm27.8-.4a443 443 0 0 1 24.4-.2q-22.4 13.5-45.3 26.6c-4.3 1.7-10.9 1.2-15.5 1.7-2-.2-1.2-1.3-.7-2.3q2.1 0 2.4-2.1a2 2 0 0 0 1.6-1.3q1 0 1.3-1a3 3 0 0 0 1.7-.9q1 0 1.2-1.1 1.2 0 1.8-1 1 0 1.3-.9 1-.2 1.8-1.2 1 0 1.1-.9.6.1 1.2-.2c2.7-2.6 20.8-13.3 21.7-15.2Zm28.2 0a502 502 0 0 1 25.2 0c-13.7 7.4-30.8 18.3-44.3 25l-16.6 1.4q-1 .2-1-.7a8 8 0 0 1 2.8-1.9l1.2-.8 9.7-6.8q.6-.5.8-1.3l1.6-.5c.5-1.8 4.7-3.4 6.4-4.3zM144.6 458c.7 2.7 7.3-2.7 8.3-3.6-1-1.9-6.7 3.8-8.3 3.6Zm-8 7.8 1.3 1.8q2 1.8 4.2 3.2-2 .6-4.1.6l-2.2-3a3 3 0 0 1 .9-2.6Z"/><path fill="#5ca5be" d="M144.6 458c1.6.2 7.4-5.5 8.3-3.6-1 .9-7.7 6.3-8.3 3.6"/><path fill="#60c6e1" fill-opacity=".4" stroke="#60c6e1" stroke-opacity=".4" stroke-width=".5" d="M307 394c-.3 1.1-2 3-3 1.7.3-1.2 2-1.2 3-1.6Z"/><path fill="#63c9e1" fill-opacity=".3" stroke="#63c9e1" stroke-opacity=".3" stroke-width=".5" d="M309 393q-.6 1.3-2 1 .5-1.2 2-1Z"/><path fill="#5ec7e1" fill-opacity=".2" stroke="#5ec7e1" stroke-opacity=".2" stroke-width=".5" d="M312 390.9q-.8 2-3 2.1.7-2.1 3-2.1Z"/><path fill="#5b9fb8" fill-opacity=".8" d="M142.2 385c.4-1.9 10.9-7.4 13.1-8.1q.9-1.3 2.2-1.8.4 1.2-.7 2-6 3-11.4 6.9-1.5 1-3.2 1"/><path fill="#5dacc5" d="M362.5 333c1.2-.5 4.7-4 5.8-2.5-.4.9-5 4.1-5.8 2.5"/><path fill="#60cae6" fill-opacity=".4" stroke="#60cae6" stroke-opacity=".4" stroke-width=".5" d="M365 257q-.6 1.3-2 1a2 2 0 0 1 2-1Z"/><path fill="#5994ab" d="m352 75 1.4-2 14.5-8.7c1.2-.7 1.6.9.5 1.4a174 174 0 0 0-13.9 8.3q-1.2.7-2.6 1"/><path fill="#b48d4d" stroke="#b48d4d" stroke-width=".5" d="M229.8 329.9q.6 1.5.5 3c-.2 1.7-3.8 3-4.6 4.8-2.6-1.7-4.1 0-6.8.3q0-.7-.7-1.2zm50 2.4c.6 2-1.2 2.7-1.6 4.2q.4.6 1 .2 1.5-1.5 3.6-1.7l-1.7 2.5q.8.8 2 1.1c-2.8.8-8.8-.8-12-.9q0-.4.4-.6zm-37.9 13q-.6 1.2-.4 2.5c.9-.8 3.4-1.3 3.7-2.5l38.3-.2q2 0 1.5 2l-8.6 8.2c.8 1 1.7-.6 2.4-1l5-2.4c-4.3 13.6-18 20-31.6 17q0-.5.3-.9l12.1-12.5q-.3-.5-1-.2L245 366.8c-6.4-2.7-14.2-9.7-16-16.5.6-.6 2.9-3.4 2.5-4q-1.8.3-3.4 1.5c-.6-.6-1.3-2-.3-2.5z"/><path fill="#61c9e5" fill-opacity=".5" stroke="#61c9e5" stroke-opacity=".5" stroke-width=".5" d="M363 258c-.4 1-2 2.6-3 1.6.1-1.4 1.9-1.5 3-1.6Z"/><path fill="#61c9e6" fill-opacity=".3" stroke="#61c9e6" stroke-opacity=".3" stroke-width=".5" d="M365 257a3 3 0 0 1 2.6-2c1.2 1-1.9 2-2.7 2Z"/><path fill="#547387" d="M323.8 117.2q0-.8.8-1c1 .4-.5.9-.8 1"/><path fill="#4f4f60" stroke="#4f4f60" stroke-width=".5" d="M177.3 9.4c-5 6.6-20.7 18.2-27.7 24.6l-2.8 2.4c-3.7 2-7.7 4.3-9.8 8.1q-.3.3-.8.2c-3.2.5-4 3.8-2.6 6.5-.8 2.4-.3 4.2-2.7 5.8l-24.6 14.3q-.3-6.1-.1-12.4c2.5-.1 20.5-16.9 23.7-19.7.5-.7 3.5-1 2.6-2.1q-2.3-.1-2.6 2.1c-3.6.5-18.2 10.1-22.6 12.2-6.6-18.7 29.2-40.3 44.8-39.2q-4.8 4.5-10.2 8.2-1.3 1.2.4 1.1l16.2-9.5c5-2.8 13.2-2 18.8-2.6Zm17.4.6c4.4-.7 10.9.1 15.5.1q-1 1.6-2.7 3c-5.8 4.7-31.2 23.2-34.4 26.9a133 133 0 0 0-22-4.2l-.3-.6q1.2-.2 2.2-.7 20.5-12 41.2-23.7.5-.3.5-.8Zm121.5.4C312.7 14.6 290 27.6 284 32c-1.9 1.2-6.2 2.4-7 4.7-6.8 2.7-18.2-3-15.8 9.5 3.6 3.4 16.2 0 21 2.4q-4.5 3-9.3 5.9-.8.3-.8 1.2c-1.4.1-4.8 1.7-5 3.2q-2.3 0-3.1 2-1.2-.3-2 .7c.6 1 2.2.2 2-.7q2.1 0 3-2 3.4-.2 5.1-3.2 1.4 0 2.6-.5 5.5-3.6 11.2-6.6c3.5-1.4 6.8-.5 8-5q28.4-15.6 56.1-32c4-1.4 9.3.1 13.4.9q.6.3.8 1a10928 10928 0 0 1-80.3 51q-.8.6-.8 1.5c-1.4-.2-5 1.7-5.1 3q-2.6-.3-3 2a2 2 0 0 0-2 .7c.6 1 2 .3 2-.7q2-.3 3-2 3.1-.5 5-3 1.1 0 2-.5l9-5.2 79-45.6c3.3 1 18 6.7 19 9.4q-11.1 7-22 14.2-1.2.3-1.3 1.4c-12.2-4.5-31.5-5.2-38.7 7.9-15.9 21.8-15 25.4-44.8 27.3-1.4-3.2-5.2-1.9-7.5-.5a4 4 0 0 0-2 1.5q-11.3.8-22.5.9c-2.5-7-8.3-2.4-12.3 0q-7 0-13.7-.6c-.2-3.7-4.3-4-6.7-2.2q-.7 1.1.5 1.6c-22.2-.8-28.7-8.9-38.4-26.7q-.6-.7-.4-1.7 0-3.3-3.3-3.3a5 5 0 0 1-3-3q24.3-14 48.5-28.2l2.7-1.1c0-1.3 1.1.4 1.8.3 2.6-.5 10 .5 13.2.3v.8q-1 0-1.8.6-6 4.2-12.3 8-.9.5-1 1.4a3 3 0 0 0-3 1.5c1.2 1 2.5-.6 3-1.5q1 0 2-.3a237 237 0 0 1 17-10.1q8 .4 16 .5 0 .6-.5.7l-17.2 10.9c-.5.6-2.3 1.1-2.2 2.1-2.3.2-5.6 3.2-7.8 4.2-1.7 3 7.3-2.3 7.8-4.2q2.7.3 4.4-1.8l19.7-11.2q.4-.3.5-.8.8 0 1.4-.3a290 290 0 0 1 19.1-1.6L227 51.5q-.7.6-.9 1.5-2.4-.3-3 2-1.4-.3-2 1c-.9.2-2.7.5-3 1.6 1.4 1 2.6-.4 3-1.7q1.5.6 2-1 2.1 0 3-1.9c2.1 0 6.7-3.5 8.7-4.4l65.4-38c3-.7 13.4-1.2 16-.2ZM396.8 29q1 .1 1.7 1c1.1 1.6 4.9 5.1 2.4 7L381 49.2c-1.7-.4-5-5.9-7-7.2q11.6-6.2 22.8-13.1ZM217.5 44q.4 2 2.1 2.8c5-.4 13.5 2.3 15-4.6 1.2-5.6-15.9-6.6-17.1 1.8Zm185.3-5q1 .3 1.2 1.5c1.3 5.7.9 11.9.8 17.8A752 752 0 0 0 381.2 73c-.2-3.7-1.4-20.1.8-22.2l20.8-12ZM359 46a12 12 0 0 0-4.4.3q-4.9 3.1-10 5.6-.7-.4-.4-1 1.5-2.4 2-5 .4-.7 1.3-.6c2.4.3 10.1-1 11.5.8Zm7.3 2.4q2.8 1.5 4.3 4.4-.1 4.5.4 8.8 0 1-1 1.5.3-4.2 0-8.5 0-1.1-1-1-18.9 11-37.8 21.7l2.4-4.2c.6-1 .1-4.6 1.2-5q.9 1.3 2.2.4c4.3-2.5 28.1-15.1 29.3-18ZM172.8 59.1q1.5 1 2 3c-2.2-.7-4.6 2.2-6.5 3-1.3.3-1.2-1-.3-1.6a40 40 0 0 0 4.8-4.4Zm232 6.6c1.2 1.5 1.5 8.9.1 10.2Q393 83.3 381 90.3c-.5-3.5-.6-7.7 0-11.3 4.8-1.7 18.3-10.3 23.8-13.3ZM141.7 82.1q-.7-4-.6-8 3.4-1.6 6.6-3.9.7-.2 1 .4l-6.5 6.2q-.8 2.6-.5 5.3ZM178 70l3.8 4.2c-3.3-1.5-10.5 6.4-11.9 4.5q4.2-4.3 8.1-8.7Zm191.5 5 .3 2L352 87.4q-1 .6-2 .7l-.2-.9zm36.1 2.8q.3 10.2.1 20.5c-3.5 1.4-19.4 12.3-24 15l-.2-.2c-1.8-2.1-.8-17.7-.7-21.3q12.5-6.8 24.8-14ZM250.4 81q.4-.6 1.2-.6 8 1 16 .5 1.5 0 2.6 1c-9-.6-53.7 28.2-64.3 34.5q-1.7.5-3.5 1.3c-.8-.4.3-1 .6-1.3A1056 1056 0 0 0 250.2 81Zm70.8 0q-10.8 6.1-21 12.7-1.1.5-2-.1 1.3-1.5 2.9-2.3l13-7.8q.9-.7 1.2-1.5c.6-1.4 4.6-1 5.9-1Zm-90 1.4q-10.2 6-20.5 11.7l-5.4 3.8q-1.5.3-2.7 1-.5-.6-.2-1 9.5-6.6 18.7-13.6.8-.6 1.1-1.4.2-.3.5-.4zm65 1.4q-3.3 1.4-6.5 3.3a6289 6289 0 0 0-66.5 38.7c-.8 0-2.4 1.3-3 .7q0-.8.7-1.1 27.6-19 54.6-38.5c1.4-1.2 4-2.4 4.6-4.2q0-.5.6-.5c5 1.6 11 .3 15.5 1.6ZM142.6 92c-.4-.7-1.6-1.9-.7-2.7q2.4-.3 4-2 1-.6 1.7.2a46 46 0 0 1-5 4.5Zm227.2-4q.5 1.5.2 2.8-16.3 9.5-32.7 18.8-1.5.7-2.5 1.9l-2.8 1q-1.2 1.5-2.8 2.4-1.5.3-2.8.9-.6-.4-.2-1 2.6-1.4 5-3.2l11.2-6.7L368 88.6a4 4 0 0 1 1.8-.6ZM131 90c.6 3.4.8 8.7 0 12-4 1.5-18.8 10.6-23.7 13.4l-.3-10.7 13.6-8.5q1.3-.8 2.2-2 .5-1 1.4-1.6a12 12 0 0 0 6.8-2.5Zm238.9 11q.3 2 0 4l-42 24.3-6.1 4.1q-1.5 1-2.6 0 25.3-15.9 50.7-32.4Zm-239.2 5q1 .4.9 1.6l.1 10.4q-1 0-1.8 1c-5.1 3.4-18.3 10-22.3 13.3-.3-3.2-.7-8.3.4-11.3zm275 .8q.7 5.3.2 10.4L381.7 132l-.1.1c-1.7-1.9-.8-8.7-.6-11.2zM131 120.2l.7-.3V132l-24.6 14c.3-3.4-.2-7.8.9-11.2q11.7-7 23-14.6Zm11.4 11.9q-.6-1.5-.4-2.9a197 197 0 0 0 12.8-8l2-1q2 0 .4 1.5l-1.6.5q-6.5 5.1-13.2 9.9Zm263.3-6.4q.7 5.2.2 10.4l-1.8.6-22.9 14.3c-.7-2.1-1.4-10.4.9-11.9zm-35.8 2.5q.3 2.2.1 4.6c-19.2 10.6-38.9 22-57.6 33.2q-.6.5-.6 1.2-1-.8-1.8-2 1 0 2-.6 28-17.8 56-36 .9-.6 2-.5Zm-213.2 32q-1 0-1.7.3-6.6 3.9-13.3 7.5l.2-5.9q4-1.5 7.8-3.8a2775 2775 0 0 0 46.3-27q1-.5 1.9.1a324 324 0 0 1-39.3 27q-.6 1.2-1.9 1.9ZM131 136q.9.5.7 1.5 0 5.4.2 10.6c-3.4.6-19.4 10.8-23.7 13.1q-.7 0-1-.8v-9.6c3-.7 19.8-12.4 23.8-14.9Zm274.6 2.6c1 3 .2 7.1.5 10.4-4 1.2-20.1 12.1-25 15-.5-2.6-1.3-10 .9-12q11.7-6.8 23.6-13.4Zm-274.2 13.2q.3 11.2.3 22.4-11.4 6.3-22.7 12.8h-.4c-1.7-2-.8-16.5-1.3-20 2.3-.5 22-13.4 24.1-15.3Zm275 1.2q-.7 5.6-.2 11c-2.8 0-21 13-25 15.1-.7-2.5-1.4-10.2.8-12.1zm-36.7 11q.6 3 .4 5.8l-44.2 25.4c-1-.2-1-1.6-.8-2.4zm36 7.7q.3 5.3.1 10.4-12.3 7.4-24.5 15.2c-1-2.9-.9-8.4-.1-11.5q12.3-6.8 24.6-14ZM370 180q.3 2 .2 3.9l-40 22.8-.3-.4c1.1-1.9 3-2.3 4.5-3.6q18-11.1 35.6-22.7Zm-239 .8q1 .6.7 1.7 0 5.3-.5 10.4c-4.5 1.8-18.2 10-23.2 13a47 47 0 0 1 .1-11c2.8-.7 19-11.8 22.9-14Zm274.9 6c-.3 3.3.4 8.3-.8 11.4q-12 7.1-24 14.8c-.3-2.5-1.3-10.2 1-12 7.2-4.4 17.3-9.5 23.8-14.2ZM142.4 208q-.5-1-.3-2 14-8.1 27.8-16.7 1-.4 2 .2l-5.2 3.7zm227.5-14q.7 2.4 0 4.8L330.4 222a6 6 0 0 1-.2-2.9q2-.6 3.6-1.7Q352 205.8 370 194Zm-239.3.9c1.2 4.4.5 16 .4 21.2-3.5 1.1-18.7 10.4-23 13 0-4-1.3-18.7 1.1-21zm37.6 8.5q.8.4 1 1.2-13.5 8.8-27.1 17.4a8 8 0 0 1-.3-3.7l2.2-.8zm235.8.6h.4c1.8 1.8.9 7.6.6 10-4.4 1.6-18.4 11.4-23.6 14.2-1.3-2.8-.8-8.3-.3-11.3q11.5-6.3 22.9-12.9Zm-222.1 5.3q1.2.5 1 1.7-1-.1-2 .5L142.4 236c-2-4.2-1.4-8-1.3-12.5q0-1 1-1.5-.3 4.7 0 9.4.3.6 1 .3zm188 .7.9 5.5q-.3 4.5 0 9-.2.5-.8.5c-.2-1.5.7-9-.6-9.5-11.7 6.1-26.8 16-38.2 21.4-.3-1.6-2.1-4.8-.4-6 .1.7 0 3.4 1.3 2.8 11.3-6.9 26.6-18 37.8-23.7Zm34.8 6.6c1 2.9.4 7.5.2 10.5-3 1.2-19.7 12.4-23.8 15-.8-2.8-.6-9.3 0-12.2zM130.9 222q.6 6 0 12a157 157 0 0 0-11.7 6.4l-11.2 6.7q-.5 0-.7-.7c0-2.5-.4-7.9.6-10q11.7-6.9 23-14.4Zm238.7 3.8c.5.9 1.6 2.2.8 3.2q-1.2.1-2.1.7l-36.2 21-.4-.4c.3-1.4 2.3-2 3.3-3zm-238.7 10.1.3 21c-2.7-.4-20.5 11.6-24.5 13.1.5-4-.1-18.2 1.3-20.8l12.2-7.4c2.5-1 8.3-5.8 10.7-5.9Zm51.2.1q1 1.2 0 2.2-18 11.1-35.6 22.6a17 17 0 0 1-4.4 2.2c-.5-1.5-1.5-4.3.8-4.7q18.4-11 37-21.7 1-.4 2.2-.6Zm187.9 3c.1 1.2 1.2 3.1.3 4.2a1826 1826 0 0 0-39.9 22.8q-.4-.9 0-1.8 19.8-12.4 39.6-25.2Zm34.7 8.8c0 3 .8 8.6-.7 11.2l-22.7 14.1a34 34 0 0 1-.3-13.1q2-.3 4-1.3a3 3 0 0 0 2 0l15.4-9q1.2-.8 2.3-2Zm0 14.8c-.1 2.7.5 8.8-.6 11.1q-11.5 6.6-22.7 13.7a26 26 0 0 1-.4-11.4c5-2 18.2-10 23.6-13.4ZM130 264h.4c1.2 2.3.3 9.3.6 12.3q-1-.6-2 0L107 289l-.2-11c3.3-.3 19-11.8 23.2-14Zm53.5 7q.7 1.5.7 3c-5.3 3.3-41.6 25.3-42.6 28q-.3-3.5-.2-7 21.1-11.8 42.1-24Zm220.2 6.7q1 .4.8 1.5c-.7 3.6.9 17.8-1.6 19.7l-21.6 13.4c-1-3-1-20.1.7-22.3q11-6 21.7-12.3Zm-273 5q.4 5.7.3 11.6-12.4 6.9-24.5 14.2c.1-3.2-.9-9 1.5-11.6zm53.2 4.3q1.5 1.5.1 3-.7-1.2-2.1-.6-19.7 12.8-39.6 25.4a1 1 0 0 1-1 0v-3.7a6 6 0 0 0 2.4-.7zm-53 8.7v11.5q-12.5 6.8-24.6 14.1v-10.4zm272.8 7a22 22 0 0 1 .2 10.4q-11.4 6.9-22.7 14.1c-.7-2.3-1.4-10.4.8-12.2q11-6 21.7-12.3Zm-273 8 .2 11.4q-12.4 6.8-24.7 14-.3-5.3 0-10.4a833 833 0 0 0 24.4-15Zm35 1q-.3 2.4-1.7 4.2c-2.8 1.8-21.3 14.2-22.7 14V325c6.5-2.5 17.5-9.9 24.4-13.3Zm204 5.3q1.5.5 1 2a3 3 0 0 0-1.9.2q-7 3.9-13.8 8.4l-1.5.4q-2 1.6-4.3 3v-5.7c.8 1-.1 3 1.3 3.6l4-2.9q7.7-4.4 15.2-9Zm34.1 2.8c.6 2.3 1.4 9.5-1 11.3q-11 6.5-21.8 14c-.7-3.5-.4-8.9 0-12.4q11.5-6.1 22.8-13Zm-240.2 8.1q1.5 2.4 2.2 5-1.2-1.6-2.7-.4-11 7-21.7 14.5l-.3-6q.2-.5.7-.5zm-33 .8c0 3 .8 9.8-.6 12.3q-11.6 6.3-22.8 13.3l-1-.2q-.5-5.3-.2-10.4c2.4.3 21.3-12.8 24.7-15ZM404 339q.9.4.7 1.5l.1 8.7-23.5 15.1c-.9-2.5-.7-9.8-.1-12.4 3.8-1.5 18.2-10.2 22.8-13Zm-233.8 1q.5.3.8.9c-.5 1.6-24.8 16-28 18.4q-.7.6-1.7.5V357q14.5-8.3 28.9-16.9Zm-40.3 4.8q1 .5.9 1.6v9.6a848 848 0 0 0-24.6 14q-.6-5.3-.2-10.4c5.8-2.9 17.8-11 24-14.8Zm53 .4q1.5 0 1.4 1.5-2 2-4.6 3.5l-36.1 22.9q-1.2.7-2.2 1.8-.5-2.4-.1-4.7 1.3-.3 2.4-1l38-22q1.5-.5 1.2-2Zm222 12.5q0 5.7.3 11.3c-2.5-.4-20.7 12.6-24.2 14.9-.3-2.6-1.2-11 1-13q11.5-6.5 22.9-13.2Zm-274.1 2.1V372c-5.6 2.3-18.8 10.4-24.8 14-.2-3-1-9 1-11.1q12-7.4 23.8-15Zm240 9.2v3c-2-.5-9.7 6-12.1 7q-4.3 3-8.8 5.8l-.8.8q-.9.6-1.3 1.6-1.7.8-3.7 1.3l-1.7 2.1a10 10 0 0 0-4.6 2.7l-2.7 1.2q-4 2.8-8 5.2l-1.5.4c-.9 1.3-1.9 2.4-3.5 1.3q2-2.1 4.6-3l42.3-29q.7-.5 1.7-.4Zm-240.1 4.7q.3 5.7 0 11.4c-2.7.3-20.9 11.6-24.7 13.8 0-3-1.1-8.8 1-11l22-13.6q.7-.4 1.7-.6ZM405 375c1.4.9 1 8.4 1 10.2q-12.6 8.2-25 16.8c-.8-3.4 0-9.9-.3-13.7 2.7.3 20.7-11.2 24.3-13.3Zm-34.5 10q.6 3 .2 5.8a1446 1446 0 0 0-35.6 20.7q-1 .7-2 0c1.3-1.8 6.8-4.6 8.9-6.1zM131 392l-.1 14-3.8 1.3q-1-.3-2 .2c-3 2-7.8 4-10.1 6.3-2.5.6-5.9 3.2-8.3 4.3-1.2-2.2-.7-7.6-.4-10.2 8.3-5 16.9-10 24.7-16Zm275.9.8q.5 5.2.2 10.5l-25.8 17c-.6-2.4-1.5-11.5.9-13.2zm-36.5 9.3q.8 3 .5 5.9-14.6 8.4-28.8 17l-2.9.6c0-1.2 5.8-4 6.9-5.1q12-9.3 24.3-18.4Zm37.4 5.7.6 11.3c-2.7-.5-22.8 15.5-26.4 18-1.2-.5-1.2-12.3-.7-14.2q13.3-7.3 26.5-15.1Zm-170 21.7c-.7-.3-.5 3.3-2.9.3-.2-1 2.3-1.6 2.8-2.4l16.4-10q1-.5 1.8.2 0 .7-.7 1-8.8 5.3-17.4 11Zm-107-9.8q.6 5.8.2 11.5c-3 1-19.3 11-23.6 13.2-1.9-1.2-.8-8.4-1.2-10.5q1 .4 2 0zm239.5.3q.8 3.4.5 7c-3.2-.1-18 11.2-22.3 12.8q-2 0-.4-1.2c7.2-5.3 15.5-12.5 22.2-18.6Zm37.6 5.9q.4 12.3-.8 24.5-1-.2-1.7.3l-14 10.8c1.3 1.2 3.7-1.3 4.7-2l9.8-5.6q.6 0 .7.6c-2.4 17.9-10.1 42-31.1 44.5-8.7-.3-41.6 1-47.6-.3q9.9-7.7 20-15c-1.7-1.5-3.3 1.2-4.7 2q-11.3 6.2-22.4 12.6-.6.2-.4.8c-4-.1-14.3.6-17.4-.4l6-4.3q.7-.3.8-1.1l1.5-.3q1.3-.6 1.8-2c.8.3 3.6-1 2.6-2q-2 .3-2.6 2a2 2 0 0 0-2.1.9l-1.2.4c-2 1.1-10 5.3-10.5 6.8h-18.6l31.4-22.5 1.6-1.6c19.7-1.9 41.5 4.2 60.4-7.2l1.7-.4c2.3 0 4.5-3 2.6-4.7 4-5 2.6-20.4 4.8-22.6zm-277 8.1c.7 4.8.7 15.7 1 21.3q-11.5 6.2-22.6 13.2l-1-.3c-1-2.9-2.3-18.5 0-20.2zm86.1 6.3q2.2-.6 4.1.5c-8 6.4-34.4 21.3-39.2 28-1.5.2-6 .8-6.9-.8l38.7-24.8c.6-1 3.5-1.7 3.3-3Zm56.3 0q2-.5 3.8 0-7 5.2-14.2 10.2c-1.7.9-5.9 2.5-6.4 4.3l-1.5.5c-2-.5-17.1 9-19.9 10.6a2 2 0 0 0-.8 1.3c-1.9-.1-4.6.4-6.3-.4q22.8-13 45.3-26.6Zm29 0q1.3-.4 2.6-.2c-7.7 6.1-15.4 12.3-23.9 16.9l-15 8.4q-4 .5-8 0c13.5-6.7 30.6-17.6 44.3-25ZM400 442q-1.9 0-2.9 1.7c.9 1.3 2.5-.9 3-1.7q1.2.3 2-.7 2-1.2-.2-1.3-1.4.6-1.9 2Zm-30.6-1q1.2 1 1.4 2.6a154 154 0 0 0 0 13q0 .9-.9 1.3.4-6.6 0-13.2c-1-1-4.8 3.3-5.8 2q2.4-3.2 5.3-5.7Zm-237.1 15.8c2 .7 1.5 7 4.4 9a3 3 0 0 0-1 2.6q-.7-.6-1.8-.2l-20.6 12.1q-3-3.7-4.2-8.4.9 0 1.6-.5c3-2.5 21.2-12 21.5-14.7Zm231.4 6.6a33 33 0 0 1-15.8 3.4l16-9.4c3-.4-1.7 4.5-.2 6Zm-225.7 8q2.2 0 4-.6 5.5 2.4 11.5 2.6.5 0 .5.6c-4 2.2-27.7 15-29 17-2.2-.6-7-4.3-8-6.2a416 416 0 0 0 21-13.4Zm50 2.6q-21.7 12-43 24.4a46 46 0 0 1-9.6-2.2q-1.2-.4-1.3-1.8l.2-.1 29.4-19.2q.4-.6.3-1.4l22.6-.8q1.3 0 1.4 1Zm34.2-.8-46 26.4q-.9.4-1 1.4c-3.7.7-13.7.2-17.3-.6l41.2-26.8q11.6-.7 23.1-.4Zm30 0q-21.8 12.8-44 25.4-1 .4-1 1.5-9.6 1.1-19.2.9 0-.7.6-1 20.3-13 40.3-26.3c6-1 17-.4 23.4-.5Zm31.8 0 .2.4q-21.7 12.1-43.1 24.7c-4.6 1.2-12.6.5-17.7 1.4q-.9.2-1.3-.6 19-12.6 38-25.5 12-.7 23.9-.4Zm3 0c5.9.3 16.9.4 22.3 1.4l-40.3 23q-.7.6-.7 1.5c-2.9 0-16.8.5-18.4-.3v-.3q17.8-11.7 35.4-23.8 1.3-.3 1.6-1.5Zm82.7 23c.9-.1 3.2-.9 2.8-2q-2.4-.3-2.8 2Z"/><path fill="#5aaec6" d="M136.2 44.7q-1.5 3.2-2.6 6.5c-1.4-2.7-.6-6 2.6-6.5m242.1 418c1.9 1.5-.3 4.6-2.6 4.5z"/><path fill="#fbc861" stroke="#fbc861" stroke-width=".5" d="M260 149q7.7-.6 15 1.2a170 170 0 0 1-17 12.3q-1.5 1.2.3 1.2l21-12.3a33 33 0 0 1 9.9 4.2Q275 166.1 260.4 176q-.4.4-.4 1-1.7-1.6-3.7-2.6a38 38 0 0 0-38 39.9c.9 4 6.1 5.4 7.1.8 1.6-14.6 9-25.4 23.4-29.7 6.7-2 11.2.4 11.2-8.5 2.4.2 2.5-.9 4.3-2l29-16.6q3.8 2.7 6.7 6.5-1 .3-2 .9a189 189 0 0 1-13.1 8.8q-.9.7-1 1.6-2-.1-2.8 1.5c.7.7 3-.4 2.7-1.5q1.2 0 2.2-.5 6.9-4.4 14-8.3.8-.4 1.9-.6 2.4 3.3 4.4 7l-3.9 2.4q-.6 1.3.9 1 1.6-1.4 3.7-2.2 4.2 8.1 6.7 17-10.7 7.6-21.8 14.5-1.8 1.4.5 1.2 1.4-1.7 3.6-2 8.9-5.8 18.4-10.7 2.3 9.4 3.3 19l-46.5 31.5q.9.7 1.8.2l8-5c5.5-3.2 33.4-20.6 37.2-20.7q1 5 .8 10-1 .3-2 .9l-45.7 32c-1.2 1.2-8 4.5-8.2 5.7 1.5 1.2 2.6-.6 3.8-1.3l52.3-30q.5 4.8.5 9.8-12.2 8.8-24.8 17.3l-14 9q-1.8 1.6.5 1.3 1.4-1.6 3.6-2 16.4-9.8 33-19.3.7-.4 1.7-.4V263a1385 1385 0 0 1-30.8 21.4q-.6.3-.8 1 .9.6 2 0 14.7-8.8 29.6-17.4.3 5.5 0 11L300 293.5q.9.6 1.9 0l17.8-10.6.4 12q-1 .1-2 .8-4.9 4-9.5 8.3c-1.5.2-3.6 2.5-4.5 3.6q.4.4 1 .2c.7-.5 5.7-2.7 5.5-3.5q2.1-.6 4-1.9 3.7-2 7-4.4c1.6 1.7 5.2 5.9 5.3 8l-9 8.4q-.7.7-1.2 1.7-.7 0-.4.6.6-.2.4-.6c4-1.4 9.3-4.9 13-7.2 8.6 11.1 11.2 24.6-5.6 29q1.5-2 2.6-4.3c-.7-1.1-2 1-2.5 1.2-1.2 1-6.3 2.8-6.3 4.3h-.9q-.8 0-1.2.7-7.5.8-15 .3.2-1 .8-2l7-6.7q-.9-.4-1.7.2-6 4-12.1 7.5c-1.3-1.6-1.7-2.7-4.3-2-2.9 2-4 2.6-7.6 1.5q-1-.3-2-1.1l1.8-2.5c2.5-2.3 9.1-7.3 10.5-10.1q.4 0 .6-.3-.6-.4-.6.3c-2.3.6-10.8 5.9-13.4 7.4l-8.4 4.8q-.4.2-.3.6-8.3.4-16.3-.5c1-3.8 21.6-16.2 22.2-19.4q.4 0 .7-.3-.6-.4-.7.3c-4.2 2.5-28.6 14.1-29.3 19.3q-11 .8-22 .6c.7-1.7 4.3-3 4.5-4.7q1.2-.2 2.3-.8 9.3-6.7 18.3-13.7c-.9-.6-2.1.3-3 .7q-9 5.6-18 10.7-6 3.4-11.7 7-1.5 0-2.2 1.1c-3.1-.2-14 .7-16.1-.8q19.5-13.6 39-27.7-1.5-.3-3 .7l-4.9 3.2-39.4 22.7q-.6.4-.7 1c-4.4.2-10 1.2-12.9-3.2q.2-.5.6-.8l42.2-28.5q-.9-.7-1.8-.3c-13.9 9.1-29.3 16.8-43.3 25.7a2 2 0 0 1-.8-1.4q-1.6-4.9.3-9.6.7 0 .7-.9 1.1 0 2.1-.7 26.6-18.4 52.8-37c.7-1 3-.6 3-1.8q-.8-.7-1.8-.3c-13 8.4-26.6 15.7-40 23.4 1.5-4.1.4-8.5.8-12.8q13.5-9.3 27.3-18.3 1-.6 1-1.6c1.2.5 4-1.1 2.4-1.8q-1.9 0-2.3 1.8c-2-.3-24.8 13.8-28.6 16q-.6-10.5-.7-21 1.2 0 2-.7l18.9-12.8q-.9-.7-1.9-.3-8.2 5.3-16.9 10.2-1 .5-2.1.7-1-16.1 0-32.3 5.5-3.9 11.2-7.2.8-.3.8-1-1-.6-2 0l-7.9 4.9q-.8.5-2 .5.1-5.6 1.2-11.1 9.7-7.4 19.7-14.3-.8-.6-2-.2c-3.6 2.5-13.4 8.6-17 9.7.6-4.1 1.2-9.1 3-12.9 1.1-.6 4.5-2.5 5-3.8q-.5-.4-1.2-.1a13 13 0 0 1-3.5 1.6c6.2-21 19.7-38 41.8-43.2-2.2 3.9-15.7 15.7-19.2 20.3q-.7.1-.3.7.5-.3.3-.7c6.8-3 33-18.2 40.2-23Zm-80.8 150q-.3 1-1 1.7c-1.7 1.4-8.8 8-10.3 8.3q-.2-2 1.1-3.5 4-3 8-5.7 1-.6 2.2-.9Zm159 5.2q5.2-1 5.8 4.3 0 1.1-1 2-2.5-3-4.9-6.3Z"/><path fill="#88c9c4" d="M316.9 316q0 .6-.5.7-.3-.6.5-.6"/><path fill="#9ec9b1" d="M221.2 269q.4-1.8 2.3-1.8c1.5.7-1.2 2.3-2.3 1.8"/><path fill="#8ec9bf" d="M219.8 172q0 .5-.3.7-.4-.6.3-.7"/><path fill="#5e6972" d="m321.2 297 .5 1a71 71 0 0 1-11 6.3 8 8 0 0 1 3.1-3q3.6-2.4 7.3-4.2"/><path fill="#9cc9b3" d="M283.9 176.1c.2 1.1-2 2.2-2.8 1.5q.9-1.7 2.8-1.5m9.5 148.8q0-.7.5-.3-.2.4-.5.3"/><path fill="#4f4f60" stroke="#4f4f60" stroke-width=".5" d="M324.8 10c2-.5 13.7-.6 15.4.2-2.2 4.3-39.1 26.4-46 30.9-2.3-6.4-12.6-1.4-17.2-4.3.8-2.3 5.1-3.5 7-4.7-.4 1.8 1.5 1.3 2.3.6l38-22q.3-.2.4-.7Zm-193 49.8q-.6 15-.8 30.3c-2.4 1.8-4 2-6.8 2.5q-.8.7-1.4 1.6h-1.9q-6.7 4.4-13.6 8.1-.7-11.7-1.1-23.4 1.4.3 2.4-.8c6.7-5.4 17.4-12.6 23.2-18.3ZM116.9 85q-1.9 0-2.8 1.5c.8 1.2 2.4-.8 2.9-1.5.5.1 2.7-.4 1.5-1.2q-1.1 0-1.5 1.2Zm102 267v.8L141.6 404a59 59 0 0 1-.3-8q37-21 73.8-42.3a8 8 0 0 1 3.8-1.5Zm-75.1 45c.5-.1 1.7-.6.7-1.1q-.8.3-.7 1Zm157.9 70.8q-3 .3-5.8-.2l.3-1q2 .7 2.7-1.3c-.8-.7-2.6.4-2.7 1.4q-1.3.1-2.3.9l-7.8-.8 44.3-26q1.2-.8 2.4-.3 0 .7-.7 1a227 227 0 0 0-30.4 26.4Z"/><path fill="#454555" fill-opacity=".2" stroke="#454555" stroke-opacity=".2" stroke-width=".5" d="M404.7 246.1v1.7l-2.3 2q-7.8 4.2-15.3 8.9a3 3 0 0 1-2.2 0z"/><path fill="#434353" fill-opacity=".2" stroke="#434353" stroke-opacity=".2" stroke-width=".5" d="M242 13c.7-.2 2.3-.4 2.2.7q-7.7 4.2-15.2 9-1 .3-2 .3.1-.9 1-1.4 6.1-3.8 12.3-8 .8-.6 1.8-.6Z"/><path fill="#4f4f60" fill-opacity=".4" stroke="#4f4f60" stroke-opacity=".4" stroke-width=".5" d="M242.1 26.8c-.5 2-9.5 7.2-7.8 4.2 2.2-1 5.5-4 7.8-4.2ZM264 61c.2 1-1.4 1.7-2 .7q.8-1 2-.7ZM117 85c-.6.8-2.1 2.8-3 1.6q1-1.5 3-1.5Zm213 378a3 3 0 0 1 2.6-2c1.4 1.5-1.7 2-2.7 2Z"/><path fill="#434356" fill-opacity=".2" stroke="#434356" stroke-opacity=".2" stroke-width=".5" d="M130.9 234v2c-2.4 0-8.2 4.7-10.7 5.8q0-1-1-1.4A157 157 0 0 1 131 234Z"/><path fill="#545464" fill-opacity=".2" stroke="#545464" stroke-opacity=".2" stroke-width=".5" d="M127 407.2q0 .5-.5.8l-11.4 7-.2-1.3c2.3-2.3 7.2-4.3 10-6.3q1-.5 2-.2Z"/><path fill="#42424d" fill-opacity=".2" stroke="#42424d" stroke-opacity=".2" stroke-width=".5" d="M330 463a2 2 0 0 1-1 1.4l-6.1 4.3H319c2.5-1.3 8.3-5.5 10.8-5.8Z"/><path fill="#4f5162" stroke="#4f5162" stroke-width=".5" d="M142.5 151c-1-2-.4-4.7-.5-7l.9-.2q1 0 1.2-1l5.5-3.5c3.7-1.4 11.3-6.7 15.7-8.6 3.6-2.5 12.2-8.6 16.2-9.4 1.8 1-2.4 2-3 2.8q-17.8 13.6-36 27Zm227.8 113 .3 8c-12.2 6.7-27.6 16.5-39.7 22.4q-2-1-1.5-3.3c11.5-7.3 31-19.3 41-27.1ZM331 468.7q-4 .5-8.1 0l6.1-4.3a2 2 0 0 0 1-1.5c1 0 4-.4 2.6-2a3 3 0 0 0-2.7 2c-2.5.3-8.3 4.5-10.8 5.8q-2.2.3-4.2-.3a797 797 0 0 0 31-17.8c1.4-.8 2.6 0 1.2 1q-7.6 6.9-14.7 14.4-1 1.2-1.4 2.7Z"/><path fill="#393946" fill-opacity=".1" stroke="#393946" stroke-opacity=".1" stroke-width=".5" d="M114.9 413.7q0 .7.2 1.3a42 42 0 0 0-7 4.4q-.9.5-1.8.2-.2-.8.3-1.6c2.4-1.2 5.8-3.7 8.3-4.3Z"/><path fill="#4f4f60" stroke="#4f4f60" stroke-width=".5" d="M404.8 236a67 67 0 0 1 0 10.1l-19.9 12.6q-1.8.9-4 1.3c-.3-2.9-1.2-8.9 1-11q11.7-6.3 23-13Zm-274 169.9.3 11c-2.7-.1-20.7 11.7-24.7 13.5q-.7-5.4-.1-10.8 1 .4 1.7-.2 3.3-2.5 7-4.4l11.5-7 .5-.8z"/><path fill="#4b4b59" fill-opacity=".2" stroke="#4b4b59" stroke-opacity=".2" stroke-width=".5" d="M292.7 59q.4.9 1.4 1.3l-9.1 5.2q-.9.6-2 .5.1-.8 1-1.4z"/><path fill="#4f4f60" fill-opacity=".3" stroke="#4f4f60" stroke-opacity=".3" stroke-width=".5" d="M267 59a3 3 0 0 1-3 2q.8-2 3-2Zm16 7a8 8 0 0 1-5 3c.2-1.3 3.7-3.2 5-3Zm98.6 47 .1.1q0 1-1 1.1zM313 491q.5-2 2.6-2c1 1-1.8 2.2-2.6 2Z"/><path fill="#444452" fill-opacity=".1" stroke="#444452" stroke-opacity=".1" stroke-width=".5" d="M233.8 47.2q-.2 1 1 1.4c-2 .9-6.7 4.5-8.8 4.4q0-.9 1-1.5z"/><path fill="#4c4c5b" fill-opacity=".9" d="m101.8 30.8-1.1 5.5-1 1.9-.7-1.5v-2.4q1-2 2.8-3.5"/><path fill="#3c596a" fill-opacity=".1" stroke="#3c596a" stroke-opacity=".1" stroke-width=".5" d="M215.4 440.2h1.5c.2 1.2-2.7 1.9-3.3 2.9q-1-.3-1.6-1.1 1.6-1 3.4-1.8Z"/><path fill="#313136" fill-opacity=".6" d="M242.1 12.2q2-.5 4 .4l-2 1c.2-1-1.4-.8-2-.6z"/><path fill="#323236" fill-opacity=".2" stroke="#323236" stroke-opacity=".2" stroke-width=".5" d="M223 11q2.2-.2 4 .6-1.2.7-2.6 1-1-.6-1.4-1.6Z"/><path fill="#4f4f5f" fill-opacity=".4" stroke="#4f4f5f" stroke-opacity=".4" stroke-width=".5" d="m106.2 354 1 .3q-.7.5-1.5.7zm190 112.8c0-1 1.9-2.1 2.7-1.4q-.7 2-2.7 1.4Z"/><path fill="#37373e" fill-opacity=".3" stroke="#37373e" stroke-opacity=".3" stroke-width=".5" d="M284 473.2q1.5-.3 3 0-.5 1.2-1.7 1.5-.3-.8-1.1-1z"/><path fill="#4f4f60" fill-opacity=".5" stroke="#4f4f60" stroke-opacity=".5" stroke-width=".5" d="M275 71c0 1-1.4 1.6-2 .7a2 2 0 0 1 2-.7ZM117 85q.3-1 1.5-1.1c1.1.8-1 1.3-1.6 1.2Z"/><path fill="#4f4f60" fill-opacity=".3" stroke="#4f4f60" stroke-opacity=".3" stroke-width=".5" d="M401.9 440q0 .7.3 1.3-.9 1-2.2.7.6-1.5 1.9-2Z"/><path fill="#35353b" fill-opacity=".5" stroke="#35353b" stroke-opacity=".5" stroke-width=".5" d="M371 14.2q1.1-.3 2 .5-.9.8-2.1 1z"/><path fill="#4f4f60" fill-opacity=".2" d="M99 34.3v2.4c-1.5 1-1.5-3.4 0-2.4"/><path fill="#37373e" fill-opacity=".5" stroke="#37373e" stroke-opacity=".5" stroke-width=".5" d="M131.7 117.9q.3 1 0 2l-.7.3q-.2-.9-1-1.3.6-1 1.7-1Z"/><path fill="#4e4e61" fill-opacity=".3" stroke="#4e4e61" stroke-opacity=".3" stroke-width=".5" d="M223 55q-.5 1.4-2 1 .6-1.3 2-1Zm-91.8 208-.8 1h-.4q.3-.9 1.2-1ZM313 491q-.5 1.3-1.8 1.9l-.3-1.1a2 2 0 0 1 2-.9Z"/><path fill="#28282a" fill-opacity=".4" stroke="#28282a" stroke-opacity=".4" stroke-width=".5" d="m268.1 12.7-1.4.3-.7-.3c0-1 1.8-.8 2.1 0Z"/><path fill="#37373c" fill-opacity=".5" stroke="#37373c" stroke-opacity=".5" stroke-width=".5" d="m296.2 466.8-.3.9a4 4 0 0 1-2 0q1-.7 2.3-1Z"/><path fill="#4e4e60" fill-opacity=".4" stroke="#4e4e60" stroke-opacity=".4" stroke-width=".5" d="M143.8 397q0-.7.7-1c1 .6-.2 1-.7 1Z"/><path fill="#505060" fill-opacity=".3" stroke="#505060" stroke-opacity=".3" stroke-width=".5" d="m134.3 494.3-.2.1-1.1.6q.2-1.1 1.3-.7Z"/><path fill="#4e4e5f" fill-opacity=".4" d="M381.6 132q0 .9-1 1z"/><path fill="#515161" fill-opacity=".3" stroke="#515161" stroke-opacity=".3" stroke-width=".5" d="M108.6 187h.4q-.3.7-1.1 1z"/><path fill="#50505e" fill-opacity=".3" d="M129.4 5a3 3 0 0 1-1.5 1.3q.2-1.2 1.5-1.4"/><path fill="#4f4f60" fill-opacity=".6" d="M209.3 467q-.4 1-1.6 1.1.4-1 1.6-1.1"/><path fill="#4e4e60" fill-opacity=".4" d="m108.2 468.1 1 .3-1.1.9z"/><path fill="#505060" fill-opacity=".3" d="m405.3 202.9-.9 1-.4.1q.4-1 1.3-1.1"/><path fill="#4f4f5f" fill-opacity=".4" d="M411 479.7c1.4.6 1.8 3.3-.3 3.3q0-1.7.3-3.3"/><path fill="#393944" fill-opacity=".1" stroke="#393944" stroke-opacity=".1" stroke-width=".5" d="M149.6 34q0 1 1.2 1.2l.2.6a5 5 0 0 1-4.2.6z"/><path fill="#4c4c5d" fill-opacity=".8" d="M110.4 15.9q-1 2.7-3 5c-.7-.6-.5-1.2-1.2-.6.3-1.6 2.6-4.2 4.2-4.4"/><path fill="#505769" d="M143.8 435.4q2 0 0 .5z"/><path fill="#4f4f60" fill-opacity=".5" stroke="#4f4f60" stroke-opacity=".5" stroke-width=".5" d="M369.7 496.2q.4-2.3 2.8-2c.4 1.1-2 1.9-2.8 2Z"/><path fill="#4e4e5f" fill-opacity=".3" stroke="#4e4e5f" stroke-opacity=".3" stroke-width=".5" d="M400 442c-.4.8-2 3-2.9 1.7q1-1.7 3-1.7Z"/><path fill="#505061" fill-opacity=".4" stroke="#505061" stroke-opacity=".4" stroke-width=".5" d="M278 69q-1 1.7-3 2 .5-2.3 3-2Z"/><path fill="#505062" fill-opacity=".3" stroke="#505062" stroke-opacity=".3" stroke-width=".5" d="M226 53a4 4 0 0 1-3 2q.6-2.3 3-2Zm46.1 2.8q-1.6 3-5 3.2c.2-1.5 3.6-3 5-3.2Z"/><path fill="#50505f" fill-opacity=".5" stroke="#50505f" stroke-opacity=".5" stroke-width=".5" d="M129.9 39.2q.2-2.2 2.6-2.1c.9 1.2-2.1 1.4-2.6 2.1Z"/><path fill="#4f4f60" fill-opacity=".5" stroke="#4f4f60" stroke-opacity=".5" stroke-width=".5" d="M227 23c-.5 1-1.8 2.4-3 1.5a3 3 0 0 1 3-1.5Zm-6 33c-.4 1.2-1.6 2.7-3 1.6.3-1.1 2.1-1.4 3-1.7Z"/></svg>