<svg xmlns="http://www.w3.org/2000/svg" style="shape-rendering:geometricPrecision;text-rendering:geometricPrecision;image-rendering:optimizeQuality;fill-rule:evenodd;clip-rule:evenodd" viewBox="0 0 512 512"><path fill="#9fbace" fill-opacity=".4" d="m362.8 130 .3 1.3c-.7.7-4.2 3.7-4.9 2.3q2.2-2 4.6-3.6m52.2 0a4 4 0 0 1-3 2q.8-2.2 3-2m-99 86a6 6 0 0 1-3 2q.9-2 3-2m142.4 32q-.6.6-1.3.8.3-.9 1.3-.7m-18 26.1-1.4.6q.5-.7 1.4-.6m-55.5 10.2q-.2.8-1.1.6zm36.3.8-1 .7q0-.9 1-.7m-43.2 3q-.3 1-1.2.8.4-.5 1.2-.7m9.4 1-1.4.6q.4-.7 1.4-.6m13.7 5.2q-.6.6-1.3.6zm-42.2 5q-.3.7-1.3.6zm33.9-.1q0 .9-1 .6zm-24.4 1-1.3.6q.3-.8 1.3-.7m-26 14.9-1.4.6q.4-.7 1.3-.6m62.5 7.8q-.7 2-3 2a4 4 0 0 1 3-2m4 11.1q-.5 1.3-2 1 .5-1.3 2-1m-128 10.2q-.3.9-1.3.7zm-19 11q-.3.7-1.2.7.4-.5 1.2-.7m9.4 1-1.2.5q.3-.8 1.2-.6m-26 14.8q-.4.5-1.2.7.4-.7 1.3-.7m-26 15.1-1.3.7q.4-.9 1.3-.7m-19 11-1.3.6q.3-.7 1.3-.6m17.7 0q-.9 1.8-3 2 .9-2 3-2m-66.2 22.8q0 1-1 1zm247.5 1.1-.6.8-1-.1q.7-.6 1.6-.7m-229 6.1q-.7.5-1.4.7.3-.9 1.4-.7m26 .1-1.3.6q.3-1 1.2-.6M170 440.3q-.5.8-1.5.6a3 3 0 0 1 1.5-.6m-7.2 4q-.3.8-1.3.6zm-21.5.8-1.5.7q.5-.8 1.5-.7m-12.5 3.1q-.3.9-1.3.7zm145 2q0 1-1.2.7zM151.3 455q-.5.6-1.3.7.3-.7 1.3-.7m119 .1-1.5.6q.5-.7 1.4-.6M137 459.2q-.3.9-1.3.8zm118 2q-.4.9-1.3.8.5-.5 1.2-.7m-1.6 4.9q-.7.5-1.6.7a2 2 0 0 1 1.6-.7m19.5 2.1q-.2.9-1.1.8zm-26 15.1q-.3.8-1.2.6zM385 98.9c-.4 1.2-1.8 2.4-3 1.6a3 3 0 0 1 3-1.6M345 212q.7-1.8 2.5-2.2c1.4 1-1.9 2-2.5 2.2m39.2 15.7q-.7 1.2-1.9 1.9-2.5.3-.4-1.3 1-.5 2.3-.6m71.8 15.4q-.5.8-1.4.7zm-7 4q-.3.8-1.3.8.6-.5 1.3-.7m-2.7 7.9-1.3.7q.3-.9 1.3-.7m-16.3 3q-.3 1-1.3.8zm29.2 0q-.5 1-1.5.9.8-.6 1.5-.8m-19.9.9q-.5.6-1.3.8.3-1 1.3-.8m-19 11a2 2 0 0 1-1.3.7q.4-.7 1.3-.7m27 0-1.2.7q.3-.8 1.2-.7m-43.3 3.3q-.3.7-1.3.7.6-.6 1.3-.7m-9.6 11.8-1.3.8q.3-1 1.3-.8m14.5 4q-.3 1-1.3.8zm-57 14q-.2 1-1.2.8.6-.5 1.2-.7m8.2 17c-1.1 1.3-3.3 3.2-5 2.8q1.8-2.4 5-2.8m-36.8 6q-.6.5-1.4.7.5-.9 1.4-.7m-16.4 3.2q-.3.7-1.2.7.4-.6 1.2-.7M278.4 352l-1.4.7q.3-.8 1.4-.7m-23.5 7.2q-.3.8-1.2.8zm-28.6 22.9-1.3.7q.4-.8 1.3-.7m-8.3 15c.2-.7 1.3-1.7 2-.8q-.8.9-2 .8m143 9.9a4 4 0 0 1-3 2q.7-2 3-2m-186.6 5q-.7.6-1.5.8.5-.7 1.5-.7m-16.6 3q0 .8-1 .9zm16.1 7.2q-.2.9-1.1.8zm186 3.8c0 .9-1.3 1.6-1.8.7q.6-1 1.8-.7m-197.6 6-1.4.7q.5-.7 1.4-.6m-7.3 1.3q-.4.8-1.3.5zm-7 4q-.5.8-1.4.6.7-.5 1.3-.6m119 17q-.4.8-1.4.7zm25 3q-.3.8-1.3.7zM143.4 460l-1.3.8q.3-1 1.3-.8m-31.1 3-1.4.7q.5-.6 1.4-.7m23 2q-.6.6-1.3.7.4-.7 1.3-.6m112.6.1q-.3 1-1.3.8zm18 7.2q-.3.6-1.2.6.6-.4 1.3-.6m-44 8q-.3.8-1.2.6.4-.5 1.2-.6m-26 14.8q-.3.9-1.2.7zm152.9-316a3 3 0 0 1 2.6-2c1.4.9-2 1.9-2.6 2m73 40.8a2 2 0 0 1-2 1q.7-1.2 2-1m-13 40q-.5 1.3-1.9 1 .5-1.4 2-1m23.4 3q-.4.6-1.1.7 0-.8 1-.7m18.6.3q-.3.6-1.2.6zM334.7 281c.8-1.2 3.5-3.3 4.9-3.1 1.2 1-3.9 3.2-4.9 3.1m79.6 8q-.4.6-1.2.6.3-.7 1.2-.7m-53 15-1.3.7q.3-1 1.3-.8M333 314.2q-.5.7-1.4.7.6-.5 1.4-.7m2.2 4.7q-.5.7-1.4.7.5-.7 1.4-.7m-55.1 12a8 8 0 0 1-5.2 3c1.1-1.5 3.2-3.3 5.2-3m133.9 0c-.8 1.6-3.3 3-5 3q1.8-2.6 5-3m21 0c-.5 1.5-5.2 4.2-7 4.1q0-.6.6-1c2.2-.9 3.6-2.8 6.3-3.2m12.3 9-.6 1-.9-.3q.5-.7 1.5-.7m-183 20.2-1.1.5q.2-.8 1-.5m-97 55.8q-.5.6-1.3.7.4-.8 1.3-.7m13.6 2.2q0 .9-1 .6zm8 11q-.3.8-1.2.7zm-29.6 21-1.3.6q.3-.9 1.3-.7m44.6-.2q-.3 1.3-1.9 1 .6-1.2 2-1m95.2 3.2q-.5.8-1.4.7.6-.5 1.4-.7M120.3 458l-1.2.7q.3-.7 1.2-.7m116 19q-.7.6-1.6.8a2 2 0 0 1 1.7-.8m-17 11-1.4.8q.4-.9 1.3-.8m-16.4 3.2q-.3.9-1.2.7a2 2 0 0 1 1.2-.7"/><path fill="#9fbace" fill-opacity=".3" d="m444.3 256.3-1.3.7q.3-1 1.3-.8M425 261q-.3 1.1-1.3.7zm.3 6.3-1.3.7q.3-1.1 1.3-.7m27 0-1.3.7q.3-1 1.3-.7M399 276q-.3 1.1-1.3.7zm-25.7 21.3-1.3.7q.2-1.1 1.3-.7m-26 15-1.2.7q0-1.1 1.2-.7m69.7 3.6c-.6 1.7-8.2 5.8-10 6 .8-1.5 8.2-6.1 10-6m-89 1.1q-.3 1-1.3.8zm91 11a7 7 0 0 1-5 3c.9-1.6 3.1-3 5-3m21 0a6 6 0 0 1-5 3q1.8-2.6 5-3m-138 4q-.3 1.1-1.3.7zm.3 6.3-1.3.7q.3-1 1.3-.7M276 347q-.3 1-1.3.7zm.3 6.2-1.3.8q.2-1 1.3-.8m-19 11-1.3.8q.3-1 1.2-.8m-26 15-1.3.8q.3-1.1 1.3-.7m-66 51q-.6.6-1.2.8 0-1.1 1.2-.7m26 0-1.2.8q0-1.2 1.2-.7m-16 10-1.3.8q.2-1 1.2-.8M319 442q-.9 2-3 2 .8-2 3-2m-195 9q-.2 1-1.3.8zm22.3 7.2-1.3.8q.3-1 1.3-.8M132 462q-.2 1-1.3.8zm111 6q-.2 1-1.3.8zm-26 15q-.3 1-1.3.8zm25 3q-.2 1-1.2.8zm-61.8 8.2q0 .4-.2.7h-1.3q.5-.8 1.5-.7m58 2q-.5.6-1.1.8 0-1.1 1.2-.7"/><path fill="#9fbace" fill-opacity=".4" d="m335 158.7-.3-.9c.9-.8 4.2-3.7 5.2-2.5l-3.3 2.8q-.7.4-1.6.6M459.3 263l-1.3.7q.4-.7 1.3-.7m-16 5.2a2 2 0 0 1-1.6.7q.7-.6 1.6-.7m-8.5 4.9q0 1-1 .8zm-28.5 5q-.6.5-1.4.7.4-.7 1.4-.7m-14 2q-.6.9-1.6.9.6-.6 1.6-.8m29.5 1q0 1-1 .8.3-.5 1-.8m-8 5q0 1-1.1.8zm-33.5 7q-.4.6-1.2.6.3-.7 1.2-.6m15 7.1-1.2.5q.2-.8 1.1-.5m-81.5 25q-.1 1-1.1.8zm2.5 4.8a2 2 0 0 1-1.2.7q.3-.9 1.2-.7m-7 4q-.7.6-1.5.7.5-.7 1.4-.6m-19 11a2 2 0 0 1-1.2.8q.2-.9 1.2-.7m-21 6.2q-.7.7-1.6.7.6-.5 1.6-.7m-26.2 15q-.6.9-1.4.7zm-7.2 4q-.3.9-1.2.7zm2.3 4.9q-.5.6-1.3.7.4-.7 1.3-.7m-44.8 26-1.4.7q.3-.9 1.4-.7M145.9 425q-.3.8-1 .8zm153 11a3 3 0 0 1-3 2 3 3 0 0 1 3-2m-156.2 4q0 1-1 1zm55.2 0c-.3 1.4-3.6 3-5 3 1.2-1.7 2.8-3.2 5-3m-62 4.1q-.3.9-1.2.8.6-.6 1.3-.7m66.2 7a8 8 0 0 1-5 3c.5-1.8 3.2-3 5-3m-58.2 4q-.2 1-1.3.7zm-33.9 4.2q-.5.7-1.4.7zm8 11q-.5.8-1.4.6.6-.4 1.3-.6m4.3 2.8-1.6.6q.7-.7 1.6-.6m106.6 3q-.3 1-1.3.7zm25.1 3.2q-.5.7-1.4.6.8-.5 1.4-.6m-26 14.8q-.4 1-1.4.8z"/><path fill="#9fbace" fill-opacity=".5" d="M417 189.9c-.4 1.2-1.7 2.4-3 1.7.2-1.4 1.9-1.5 3-1.7m-103 89c0-.8 1.4-1.5 2-.6q-.9.9-2 .6m57 13.4q-.4.8-1.2.7.4-.4 1.2-.7m31.3 3.8q-.6.4-1.4.6.5-.7 1.4-.6M345 307.3q-.4.8-1.3.6zM183.2 419l-1 .6q0-.9 1-.6m-27.9 4-1.4.6q.5-.7 1.4-.7m-18.2 9.8c-.4 1-2 2.9-3 1.7.4-1 2.1-1.2 3-1.7m43.2 4q-.5.6-1.2.8.3-.8 1.2-.7M267 439q.6-2 2.7-2c1.3 1-2 2-2.7 2m52 3a3 3 0 0 1 1.8-1.6q2.4-.5.5 1.3-1 .4-2.2.3m-185.7 8-1.2.7q.3-.7 1.2-.6m196.7 4.3c.8-1.4 3-3.6 4.6-3.4 1 1-3.6 3.5-4.6 3.4m-208-2q-.2.9-1.1.7.4-.6 1.1-.7m145.4 4.7-1.3.8q.3-1 1.3-.8M129.9 463q-.2 1-1.2 1 .5-.6 1.2-1m67 3.9c-.5 1.5-3.4 3-5 3a7 7 0 0 1 5-3m53.4 1-1.2.8q.3-.9 1.2-.8m-9.4 1.3q-.3.7-1.2.7.6-.5 1.2-.7m-7.6 9.8q-.6.5-1.4.7.4-.8 1.4-.7m-18.4 5.2q-.3.8-1.2.6zm25 3q-.2.8-1.2.6.6-.4 1.3-.6m-23.6 2.7-1.4.8q.4-.8 1.4-.8"/><path fill="#9fbace" fill-opacity=".3" d="M312 188c-.3 1.1-2.1 2.5-3 1.6q.9-1.5 3-1.6m139.3 64q-.6.8-1.5.8.6-.8 1.5-.8m-52 30.1-1 1q-.1-1.1 1-1m-26.4 9q-.2 1-1.1.8zm34.4 1.9-1 1q-.1-1 1-1m-41.5 2q0 1.1-1 1zm-19 11q0 1-1 1zm-26 15q0 1-1.1 1zm47.2 10c-.7 1.6-3.4 2.8-5 3a6 6 0 0 1 3-2.6q1-.5 2-.4m-84.7 18q-.6.7-1.4.7.5-.6 1.4-.7m-33.5 13q0 1-1.1 1zm-37.5 28q-.5.6-1.3.8.3-.9 1.3-.8m-26 15.1q-.7.6-1.5.7a2 2 0 0 1 1.6-.7M363 424a4 4 0 0 1-3 2q.8-1.9 3-2m13.2 10c-.6 1-4.3 4.3-5.1 2.8 1.2-1.4 3.1-2.9 5.1-2.8m-218.9 1-1 1q0-1 1-1m-8 5.2-1 .8q0-1 1-.8m-32.6 15q0 1-1 .8zm139.7 9-1.2.9q0-1 1.2-1m-131.6 2q0 1-1.2.9zm67.1 4a7 7 0 0 1-5 2.9q2-2.5 5-3m43.9 2q-.1 1-1.2.9zm3.5 3-1.1 1q0-1.2 1-1m-4.4 15q-.3 1-1.3.8zm187.3-303.2q-1.9 2.9-5.2 3.1a9 9 0 0 1 5.2-3.1M418 265q-.3 1.1-1.3.7zm-105 15c0 1.1-1.4 1-2 1q.5-1.2 2-1m113.3 2.3-1.3.7q.3-1 1.3-.7M406 291q-.1 1-1.2.8zm-21 13q0 1.2-1.3.7zm-20 13.1a8 8 0 0 1-5 3c.4-1.6 3.4-3.2 5-3m42 4.8q-.5 1.5-2 1 .7-1 2-1M295 336q-.3 1-1.3.7zm84 43a6 6 0 0 1-5 3q1.9-2.6 5-3m-199.7 30.3-1.3.7q.3-1.1 1.3-.7m7 8-1.3.7q0-1.2 1.3-.7M169 425q-.3 1-1.2.8zm14.3 10.3-1.3.7q.3-1 1.3-.7m-6.3.7q-.1 1.1-1.3.7zm16 7c-.3 1.5-3.7 2.7-5 3 1-1.7 2.8-3.3 5-3m69 14q-.3 1-1.2.8zm25 3q-.3 1-1.3.7zm-148.8 3.3-1.2.7q.2-1.1 1.2-.7m-31 3-1.2.7q.3-1.1 1.2-.7m98 31-.1.7-1.2.3q.2-1.2 1.3-1"/><path fill="#9fbbcd" fill-opacity=".3" d="m224 13.1 1.2-.2a2 2 0 0 1-1.3 1zM388 97q-.7 2.1-3 2a4 4 0 0 1 3-2m-43 115q-.7 1-2.1 1 .5-1.4 2.1-1m73.3 59.2-1.3.7q.3-1.1 1.3-.7m27 0-1.3.7q.3-1 1.3-.7m-34 4-1.3.7q.3-1 1.3-.7m7.6 7.6q0 1.1-1.2.8zm-26.6 3.4-1.3.7q.3-1 1.3-.7m27 0-1.2.8q0-1 1.2-.8m-21.4 9.6q0 1-1.2.8zm2.4 1.4-1.3.7q.3-1.1 1.3-.7m-34 4-1.2.7q0-1.1 1.2-.7m-26 15-1.2.7q0-1.1 1.2-.7m-19 11-1.3.7q.3-1 1.3-.7M275 334c-.4 1.7-3.3 3-5 3a7 7 0 0 1 5-3m-5.6 23.3-1.2.8q0-1.1 1.2-.8m-26 15-1.2.8q0-1 1.2-.8m-12.4.6q0 1.1-1.2.8zm-6.6 10.4-1.2.7q.2-1 1.2-.7m-26 15-1.2.7q0-1.1 1.2-.7m-25 27-1.2.7q0-1.1 1.2-.7m26 0-1.2.7q0-1.2 1.2-.7m-53 3-1.3.7q.3-1.1 1.3-.7m-31 33-1.2.7q0-1.1 1.2-.7m-10.3.7q-.3 1.1-1.3.7zm82 11a6 6 0 0 1-5.1 3q2-2.5 5-3m78.3 5.3-1.2.8q0-1 1.2-.8m-41.4.7q-.2 1-1.2.7zm35.4 3.3-1.2.8q0-1 1.2-.8M222.9 497q0 1-1.2.7z"/><path fill="#96afc2" fill-opacity=".2" stroke="#96afc2" stroke-opacity=".2" stroke-width=".5" d="M434.7 211.2q.5 1 1.4 1.1-4.6 2.5-9 5.2-1 .6-2.2.4.4-.8 1-1.2 4.4-3 8.8-5.5Zm-46.1 161q.5.8 1.4 1.1l-9 5.2q-.8.6-2 .4.4-.7 1-1.2z"/><path fill="#9fbace" fill-opacity=".4" d="m383.7 165 .2 1.2c-.6.9-4.1 4-4.8 2.5zm53 89.2q0 .9-1 .7zM414 257a9 9 0 0 1-5 3c.8-1.7 3.1-3.3 5-3m-2.9 12.2q-.5.7-1.4.6.6-.4 1.4-.6m22.2 8.7-1.3.8q.4-1 1.3-.8m-45 26.1q-.6.5-1.6.5.7-.6 1.7-.5m-34 4-1.5.7q.5-.9 1.5-.8m-66.4 32q-.2.9-1.1.9zm-73 59c-.4 1.4-3.6 2.7-5 2.9.8-1.5 3.3-3.2 5-3M178.4 422l-1 1q-.2-1.1 1-1m-16.2 7.3q-.5.6-1.4.6.7-.5 1.4-.6m5.3 15.7-1.2.9q.2-1 1.2-.9m-39 8-1.1 1q0-1 1-1m151.4 11.2q-.2.9-1.1.7z"/><path fill="#a0bacf" fill-opacity=".3" d="M313 218c-.7 1.4-3.3 3-4.8 3.2-1.2-1.2 3.8-3.5 4.9-3.2m-10 17h1q-.1 1-1.2.9zm134.3 25.3-1.3.7q.3-1 1.3-.7M427 278q-.3 1-1.3.7zM172.3 413.3l-1.3.7q.3-1.1 1.3-.7m-15.4 2.6q0 1-1 1zm19 5q0 1.2-1.2.8zm8 11.1q0 1.1-1.2.7zm-29.6 21.3-1.2.7q0-1.1 1.2-.7m42.7.8a8 8 0 0 1-5 3q1.7-2.7 5-3m97 1.9q-.3 1-1.3.8zm-68.7 28.3-1.2.8q0-1.1 1.2-.8m31 0-1.2.8q0-1 1.2-.8m-3 2-1.2.8q0-1 1.2-.8m-3 2-1.2.8q.2-1 1.2-.8M198 494q-.3 1-1.3.8zm10.3 1.3-1.2.8q0-1 1.2-.8"/><path fill="#9db6c8" fill-opacity=".2" stroke="#9db6c8" stroke-opacity=".2" stroke-width=".5" d="M210 402q-.3.8-1 1.2-8 4.8-15.7 9.8a2 2 0 0 0-1.4-1.3l16-9.2a3 3 0 0 1 2-.5Z"/><path fill="#9bb4c9" fill-opacity=".2" stroke="#9bb4c9" stroke-opacity=".2" stroke-width=".5" d="M188 446q-.3.9-1 1.3-8 4.6-15.7 9.6-.4-.9-1.4-1.2l16-9.4a4 4 0 0 1 2.1-.3Z"/><path fill="#89a6b6" fill-opacity=".2" stroke="#89a6b6" stroke-opacity=".2" stroke-width=".5" d="M192 457q-.7 1.1-1.6 1.8-6.4 4.2-13.2 7.9 0-1-1.3-1.1l14-8.2q1-.4 2-.3Z"/><path fill="#95afca" fill-opacity=".2" stroke="#95afca" stroke-opacity=".2" stroke-width=".5" d="M382.6 321.2q.6.8 1.5 1.1l-14 8.2a4 4 0 0 1-2 .5q.2-.8.9-1.4z"/><path fill="#98b4c5" fill-opacity=".2" stroke="#98b4c5" stroke-opacity=".2" stroke-width=".5" d="M265 440a2 2 0 0 1-1.1 1.2q-6.7 4.6-13.7 8.7-.3-.9-1.3-1.2l14-8.2q1-.6 2-.6Z"/><path fill="#758895" fill-opacity=".1" stroke="#758895" stroke-opacity=".1" stroke-width=".5" d="m378.8 395.2 1 1.5-2 .8q-3.1 2.6-6.9 3.8c-1 1.2-3.2 2.8-4.8 2.5.7-1.6 1.7-1.5 3.2-2.2q.5-.8 1.3-1.4 4-2.7 8.2-5Z"/><path fill="#9fbace" fill-opacity=".4" d="M284 69.2a3 3 0 0 1 2.4-2.1c1.2 1-1.8 1.9-2.5 2.1M413.3 274q-.6.5-1.4.8.3-1 1.4-.8m16.6 2.2q-.3 1-1.2.8zM402 325c0 .9-1.4 1.7-2 .7a2 2 0 0 1 2-.7m-173 49.4q-.3.8-1.3.6.6-.5 1.4-.6m145 7.7a4 4 0 0 1-3 2q.6-2.3 3-2m-146.1 25c-.4 1.5-3.4 2.7-4.9 3 .8-1.5 3.2-3.1 4.9-3m-36.7 7q-.5.6-1.4.7.5-.9 1.4-.7m-43 13-1.2.8q.3-.8 1.3-.7m40 5q-.4.6-1.1.8.1-.9 1.2-.7M103 463.4q-.4.8-1.3.6a2 2 0 0 1 1.3-.6"/><path fill="#9db7c7" fill-opacity=".3" stroke="#9db7c7" stroke-opacity=".3" stroke-width=".5" d="M325 240a3 3 0 0 1-1 1.3l-11.7 7.7q-.5-1-1.4-1.4l12.8-7.5z"/><path fill="#97aebe" fill-opacity=".2" stroke="#97aebe" stroke-opacity=".2" stroke-width=".5" d="M436 147.1q1 .6 1 1.6-6.6 3.4-12.7 7.1-.6.3-1.3.2l1-1.4z"/><path fill="#9fbacc" fill-opacity=".2" d="M422 252.2v.8c-2.1 1-5.8 3.8-8 4q.3-.8 1-1.4c2-.7 5-4.2 7-3.4m-54 41.7q-.3 1.1-1.3.8zm-123 71q-.3 1-1.3.8zm-34.7 26.4-1.2.8q.1-1.1 1.2-.8m-79 60-1.2.8q0-1 1.2-.8m173 1-1.2.7q0-1.2 1.2-.7m-158.4 1.6q0 1.1-1.2.8zm111 6q0 1.1-1.2.8zm-130 5q-.2 1-1.3.8zm6.4 1.4-1.2.8q0-1 1.2-.8M256 477.9q0 1-1.2.8zm-44.6 15.4-1.2.8q.1-1 1.2-.8"/><path fill="#8aa1ae" fill-opacity=".2" stroke="#8aa1ae" stroke-opacity=".2" stroke-width=".5" d="M375.7 415.3q0 1 1 1.3-6 3.8-12.4 7.2-.6.2-1.3.1a3 3 0 0 1 1-1.2 161 161 0 0 1 11.7-7.4Z"/><path fill="#a2bdd0" fill-opacity=".2" stroke="#a2bdd0" stroke-opacity=".2" stroke-width=".5" d="M451.9 320q.2 1 1.3 1l-.5 1c-3.9.6-9.4 6-12.8 6q.7-1 1.7-1.7z"/><path fill="#9cbace" fill-opacity=".3" stroke="#9cbace" stroke-opacity=".3" stroke-width=".5" d="M299 148q-.3-.9-1.3-1.3 4.1-2.2 8-4.7.8-.3 1.2.3-3.8 3-7.8 5.7Zm-76 262a8 8 0 0 1-5 3q1.8-2.7 5-3Z"/><path fill="#8ba1b2" fill-opacity=".8" d="m326 483.2-.3.9a37 37 0 0 0-7 4.3c-1.4.2-4.4 1.5-5-.4z"/><path fill="#90a8bc" fill-opacity=".2" stroke="#90a8bc" stroke-opacity=".2" stroke-width=".5" d="M291 441q-1.4 2-3.3 3-3 2.1-6.3 3.6l-1.5-1 9-5.2q1-.4 2-.4Z"/><path fill="#a0b7ce" fill-opacity=".2" d="M432 257q-.3.9-1.3.7zm-72.7 48.3-1.2.8q.2-1 1.2-.8m-24.4 7.6q-.2 1-1.2.8zm-72.5 48.4-1.3.8q.2-1 1.2-.8M218 413c-.9 2-5.2 3.5-7 5v-1.5c1.7-1.2 4.9-3.6 7-3.5m-65.7 25.3-1.2.8q0-1 1.2-.8m131 28-1.2.8q0-1 1.2-.8m-158 5-1.2.8q0-1 1.2-.8m137 9-1.2.8q0-1.1 1.2-.8"/><path fill="#9ab4c6" fill-opacity=".2" stroke="#9ab4c6" stroke-opacity=".2" stroke-width=".5" d="M316 444q-.3.9-1 1.3l-8.6 5.7q-.4-1-1.5-1.4l9-5.2q1-.6 2-.3Z"/><path fill="#9fb9cf" fill-opacity=".2" d="m430.4 264.3-1.3.8q.1-1.2 1.3-.8m27 0-1.3.8q0-1 1.2-.8m-70.5 18.6q-.2 1-1.2.8zm3 18q0 1.2-1.2.8zm-126 53q0 1.1-1.2.8zm-26 15q0 1.1-1.2.8zm-55 48q0 1.3-1.2.8zm-1.6 3.4-1.2.7q0-1.2 1.2-.8m-36.5 5.5q.2 1-1 1zM138 443q-.2 1-1.2.8zm32.4.4-1.2.8q0-1 1.2-.8m125 15-1.2.8q0-1 1.2-.8m-33 2-1.2.8q0-1 1.2-.8m30 0-1.2.8q0-1.1 1.2-.8M120 469q-.2 1-1.2.8zm125.4 2.4-1.2.8q.1-1 1.2-.8M231 475q-.2 1-1.3.8zm-1 18q0 1.1-1.2.8z"/><path fill="#93a8b7" fill-opacity=".2" stroke="#93a8b7" stroke-opacity=".2" stroke-width=".5" d="M270 337q-.6 1.1-1.6 1.8l-8.3 5.2q-.3-1-1.4-1.3l9.3-5.3q.9-.4 2-.4Z"/><path fill="#9bb2c3" fill-opacity=".2" stroke="#9bb2c3" stroke-opacity=".2" stroke-width=".5" d="M181.9 476q-.2.8-.9 1.3-4.5 3-9 5.5-.5-.5-1-.5.3-1 1.3-1.5l7.7-4.4q.9-.5 1.9-.4Z"/><path fill="#93abc2" fill-opacity=".2" stroke="#93abc2" stroke-opacity=".2" stroke-width=".5" d="m426.2 309.7.5.4q.2.6 0 1c-2.1.9-7.7 5.2-9.7 4.8 1.2-2.3 7-4.7 9.2-6.2Z"/><path fill="#a0b9cf" fill-opacity=".3" d="M451 246q-.3 1-1.2.8.4-.5 1.2-.8m5 14q-.1 1.1-1.2.7zm-102 42q-.2 1.1-1.3.7zm-58.7 40.3-1.3.7q.3-1.1 1.3-.7m.7 95.7c-.5 1.5-3.5 3-5 3a7 7 0 0 1 5-3m-138 9q-.2 1-1.2.8zm118.3 4.3-1.2.7q0-1.1 1.2-.7M269 453q-.1 1-1.2.8zm-1 18q-.3 1-1.3.8zm-26.7 23.3-1.2.8q0-1.1 1.2-.9"/><path fill="#9cb7d0" fill-opacity=".2" stroke="#9cb7d0" stroke-opacity=".2" stroke-width=".5" d="m375.1 311-.1 1c-2.3 1.1-7.7 5-10 5.1a2 2 0 0 1 1-1.4l7-4.3q.9-.4 2.1-.4Z"/><path fill="#7d94a5" fill-opacity=".2" stroke="#7d94a5" stroke-opacity=".2" stroke-width=".5" d="M211 416.5v1.5a85 85 0 0 1-8 4.6q0-1-1.1-1 4.5-2.7 9.1-5Z"/><path fill="#8095a5" fill-opacity=".1" stroke="#8095a5" stroke-opacity=".1" stroke-width=".5" d="M434 319.2v.8l-8 4.6a3 3 0 0 1-2 .2q.6-1 1.6-1.6 3.3-1.7 6.2-3.8 1-.5 2.1-.2Z"/><path fill="#9dbacc" fill-opacity=".3" stroke="#9dbacc" stroke-opacity=".3" stroke-width=".5" d="M311 281a12 12 0 0 1-3.4 3 31 31 0 0 1-4.7 2.7l-1-.6c1.9-1.4 6.8-5 9-5Z"/><path fill="#889dad" fill-opacity=".2" stroke="#889dad" stroke-opacity=".2" stroke-width=".5" d="M429.6 181.2q0 1 1.2 1.4c-1.9.7-6.9 4.7-8.7 4.2 1-2 5.7-4.2 7.5-5.6Z"/><path fill="#9eb4cf" fill-opacity=".3" stroke="#9eb4cf" stroke-opacity=".3" stroke-width=".5" d="M423 124q0 1 1 1.2c-2.1 1.3-6.6 4.6-9 4.9.6-1.9 6.3-4.7 8-6Z"/><path fill="#9fbdce" fill-opacity=".2" d="m431.4 279.3-1.3.8q0-1.1 1.3-.8m-20.5 8.6q0 1.1-1.2.8zm1.5 2.4-1.3.8q0-1.1 1.3-.8m11.6 34.5c-.7 2-3.1 3-5 3.3a7 7 0 0 1 5-3.3M172 439q-.3 1-1.3.8zm110 24q-.2 1.1-1.4.8z"/><path fill="#8698a9" fill-opacity=".1" stroke="#8698a9" stroke-opacity=".1" stroke-width=".5" d="m334.8 157.8.2 1-5.6 4.2q0-1.2-1-1.7 3-2 6.3-3.5Z"/><path fill="#9fb9cd" fill-opacity=".3" d="M340.3 310.2q-.7.7-1.7.8a4 4 0 0 1 1.7-.8m-12 12.8a2 2 0 0 1-1.6.7 2 2 0 0 1 1.6-.7m34.7 11q-.6 1.3-2 1 .5-1.2 2-1m-174.7 80.3q-.7.8-1.6.7.7-.6 1.6-.7m-28 5.8q-.7.5-1.5.7.5-.7 1.5-.7m36 5.2q-.6.8-1.5.6zM267 439c.2 1.1-1.3 1-2 1q.7-1.3 2-1m6.4 14-1 1q0-1 1-1m-143 15-1 1q0-1 1-1m79.9 19.2q-.6.9-1.5.8.8-.6 1.5-.8"/><path fill="#9eb9ce" fill-opacity=".3" d="m205.3 394.3-1.3.7q.3-1 1.3-.7m160.8 9.5a6 6 0 0 1-5.2 3.2q2-2.6 5.2-3.2M151 451q-.2 1.1-1.3.7zm110 24q-.3 1-1.3.8zm-38.8 11.2-1.2.8q.3-1 1.2-.8"/><path fill="#9fbace" fill-opacity=".2" d="m456.3 249.3-1.2.8q.2-1 1.2-.8M406 271.9q0 1-1.2.8zm-97 56q-.2 1-1.2.8l1.2-.7m-20.5 18.4-1.3.7q.2-1.1 1.2-.7m-97 56-1.3.8q0-1.1 1.2-.8M156.8 432q0 1.1-1.2.8zm8 11q0 1-1.2.8zm111 6q0 1.2-1.2.8zm-1 18q0 1.1-1.2.8zm5.4 1.4-1.2.8q0-1.1 1.2-.8m-3 2-1.2.8q.1-1 1.2-.8"/><path fill="#9fbbcf" fill-opacity=".3" d="M448 265q-.3 1-1.3.7zm-9.7 10.3-1.2.7q0-1.1 1.2-.7M314 278.9q-.3.9-1 1.2 0-.9 1-1.2m71.3 11.4-1.2.8q0-1 1.2-.8m8 11-1.2.7q0-1.2 1.2-.7M283 342.9q-.2 1-1.2.8zm-132.1 78q.1 1.1-1 1zm-6.5 22.4-1.2.7q.2-1 1.2-.7M131 447q0 1.1-1.2.7zm-7.6 9.3-1.2.8q.2-1 1.2-.8m151 16-1.2.8q0-1 1.2-.8"/><path fill="#8196a3" fill-opacity=".2" d="m379.9 307.4 1 .4q0 .6-.5 1-2.9 1.5-5.4 3.2l.1-1c.4-1.8 3.2-3 4.8-3.6"/><path fill="#8094a5" fill-opacity=".2" d="M427 248.2q-.3 1 .7 1.4-3 1.6-5.7 3.4v-.8c.8-2 3.2-3.3 5-4"/><path fill="#9dbbcc" fill-opacity=".2" d="M458 242q-.3 1-1.3.7zm-97 56q-.3 1-1.3.7zM165.2 417.2l-1.2.8q.2-1 1.2-.8M191 428q0 1.1-1.2.7zm88.4 21.3-1.2.7q0-1.2 1.2-.7M301 452q0 1.1-1.2.7zm-11.6 10.3-1.2.8q.1-1 1.2-.8m-3 2-1.2.8q0-1 1.2-.8m-15 10-1.2.8q0-1 1.2-.8M205 489.9q-.2 1-1.2.8z"/><path fill="#7b8fa0" fill-opacity=".1" d="m301.9 286.1 1 .6q-2.2 1.6-4.6 3-.2-1.2-1.4-1.1 2.4-1.5 5-2.5"/><path fill="#a1b8d0" fill-opacity=".3" d="m314.3 331.3-1.2.8q0-1.1 1.2-.8m-97 56-1.2.8q0-1 1.2-.8m-55 61-1.2.8q0-1.1 1.2-.8m-23.4 9.6q0 1.1-1.2.8zm111 6q0 1.1-1.2.8zm18.4 12.4-1.2.8q0-1 1.2-.8m-19.4 5.6q-.2 1-1.2.8zm77 1.3 1.1-.6q0 1.3-1.3 1.5z"/><path fill="#9ebace" fill-opacity=".4" d="M361 335a3 3 0 0 1-3 2 3 3 0 0 1 3-2m-63.8 6.1q-.5.5-1.2.6.4-.6 1.2-.6m1.7 95q.6-1 1.7-1.2c1 .8-1.2 1.3-1.7 1.1m-143 12.2q-.2.8-1.2.7.6-.5 1.3-.7"/><path fill="#a1bcce" fill-opacity=".2" d="M439 253q-.3 1-1.4.7zm1 17q-.3 1-1.3.7zm-35.7 9.3-1.2.8q0-1.1 1.2-.8M316 323.9q0 1-1.2.8zm-14.6 130.4-1.2.8q.2-1 1.2-.8m-3 2-1.2.8q0-1 1.2-.8M112 457.9q-.2 1.1-1.2.8zm116.4 24.4-1.2.8q0-1.1 1.2-.8"/><path fill="#8ba1b2" fill-opacity=".9" d="M281.3 498.9q-.3 1-1.3 1l-1.3.8h-1q-1.4 0-2.7.3l-1.2-.3q.2-.3.8-.5 3.3-.8 6.7-1.3"/><path fill="#617582" fill-opacity=".1" d="m431.4 307.3.6.6a10 10 0 0 1-5.3 2.2q-.3 0-.5-.4a9 9 0 0 1 5.2-2.4"/><path fill="#9fbccd" fill-opacity=".3" d="M380 287q-.3 1-1.2.8zm-123 71q-.3 1-1.3.8zm-107 78q-.2 1-1.2.8zm109.3 26.3-1.2.8q0-1 1.2-.8m-17 11-1.2.8q0-1 1.2-.8m5 17-1.2.8q0-1 1.2-.8m-3 2-1.2.8q0-1 1.2-.8"/><path fill="#9fbbce" fill-opacity=".3" d="M444 250q-.3 1-1.3.7zm-63 12q-.5 1.2-2 1 .8-1.2 2-1M250.4 368.3l-1.3.7q.3-1 1.3-.7m-97 56-1.3.8q.3-1 1.3-.8m-17 24-1.3.7q.3-1 1.2-.8"/><path fill="#9ab1d7" fill-opacity=".2" stroke="#9ab1d7" stroke-opacity=".2" stroke-width=".5" d="M139.7 430.1q.4.9 1.4 1.3a7 7 0 0 1-4 1.5 7 7 0 0 1 2.6-2.8Z"/><path fill="#9fbbcc" fill-opacity=".2" d="M402.9 292.9q-.1 1-1.2.8zM168.3 428.3l-1.2.8q.1-1 1.2-.8m26 0q-.5.5-1.2.7 0-1.1 1.2-.7m-15.4 6.6q0 1.2-1.3.7zm110 24q-.2 1.1-1.3.7z"/><path fill="#7889b0" fill-opacity=".1" stroke="#7889b0" stroke-opacity=".1" stroke-width=".5" d="M297.7 146.7q.9.4 1.4 1.3-1.5.7-2.8 2-.3-1-.2-1.7z"/><path fill="#6f7f8b" fill-opacity=".8" d="M239.3 506c-.5 1.6-4 1.4-5.3 1 .6-1.6 4-.9 5.3-1"/><path fill="#9db8ce" fill-opacity=".2" d="m203.4 395.3-1.3.8q.1-1 1.3-.8m-17 38-1.3.8q.1-1 1.3-.8m-33.5 16.6q-.2 1.1-1.3.7zm111 6q-.1 1.2-1.3.7zm1.4 2.4-1.2.8q0-1 1.2-.8"/><path fill="#a0b8d0" fill-opacity=".2" d="M452.9 261.9q-.2 1-1.2.8.5-.5 1.2-.8M161 412l1-.2q-.1 1.1-1.3 1.1zm-49 10 1-.3q0 1.2-1.3 1.2zm47.9 23.9q-.2 1.1-1.3.7zm-41.5 13.4-1.3.8q.1-1 1.3-.8"/><path fill="#a1bbd0" fill-opacity=".2" d="m450.4 268.4-1.3.7q0-1.2 1.3-.7m-45 26-1.3.7q0-1.1 1.3-.8m-245 138.9-1.3.8q.2-1 1.2-.8m77.5 37.6q-.1 1-1.3.8z"/><path fill="#a1bccd" fill-opacity=".2" d="M145 439q-.2 1.1-1.4.7zm-5.7 7.3-1.2.8q0-1 1.2-.8m10 10-1.2.8q.1-1 1.2-.8m99 13-1.2.8q0-1 1.2-.8"/><path fill="#a0bccd" fill-opacity=".2" d="m275 501 2.7-.3c.8 1.5-2 2.2-2.7.3"/><path fill="#9db7d1" fill-opacity=".2" d="M270.9 451.9q-.3 1.1-1.3.7zm-1 18q0 1.2-1.3.7zm10.1 30q-.3 1-1.3.8.6-.5 1.3-.7"/><path fill="#9fb9cc" fill-opacity=".2" d="m147.4 441.3-1.3.8q.1-1 1.3-.8m-21.5 8.6q-.2 1.1-1.3.7zm119 17q-.1 1.2-1.3.7z"/><path fill="#9ebcc9" fill-opacity=".1" d="M386.9 164.4q-.7.9-1.7 1.5l-.2-1.2q.6-1 1.9-.3"/><path fill="#a1b8d0" fill-opacity=".2" d="m378.4 294.3-1.3.8q.1-1 1.3-.8m-88.5 44.6q-.2 1.1-1.2.8zm-111.6 99.4-1.2.8q0-1.1 1.2-.8"/><path fill="#5c6971" fill-opacity=".7" d="M112 413.1c0 1.4-2.4.8-3.2.5.2-1 2.5-.5 3.2-.5"/><path fill="#9cb9d1" fill-opacity=".2" d="M170.9 424q-.1 1-1.3.6zm-37 37q0 1.1-1.3.6z"/><path fill="#9cb5ca" fill-opacity=".5" stroke="#9cb5ca" stroke-opacity=".5" stroke-width=".5" d="m225.2 375.8.5.2c.4 1.4-1.2.9-2 .8a2 2 0 0 1 1.5-1Z"/><path fill="#9ebcce" fill-opacity=".2" d="m151.4 425.4-1.3.7q.1-1.1 1.3-.7m6 26-1.3.7q.1-1 1.3-.8"/><path fill="#a2bbcd" fill-opacity=".2" d="M423.9 279.9q-.1 1-1.3.8zm-29 18q0 1.1-1.3.8z"/><path fill="#93a9bc" fill-opacity=".4" stroke="#93a9bc" stroke-opacity=".4" stroke-width=".5" d="m459.2 292-.4 1-.5-.1q0-.7 1-.9Z"/><path fill="#9dbace" fill-opacity=".2" d="M164 428q-.3 1-1.3.7z"/><path fill="#889cae" fill-opacity=".3" stroke="#889cae" stroke-opacity=".3" stroke-width=".5" d="m162 411 1.2-.2q-.4.9-1.3 1z"/><path fill="#6e7e8b" d="M162 411v.8l-1 .2q.3-.7 1-1"/><path fill="#58616a" fill-opacity=".4" stroke="#58616a" stroke-opacity=".4" stroke-width=".5" d="M430 379.2q-.3.6-.7.7 0-.5.6-.7Z"/><path fill="#8ca5b4" fill-opacity=".2" stroke="#8ca5b4" stroke-opacity=".2" stroke-width=".5" d="m192.1 14.2 1-.2q-.3.8-.8 1.2z"/><path fill="#5a656d" fill-opacity=".6" d="m232.6 13.4 1.5.3-1 .3z"/><path fill="#9bb9cb" fill-opacity=".3" stroke="#9bb9cb" stroke-opacity=".3" stroke-width=".5" d="M223.7 376.8q0 1.1-1 1 .3-.7 1-1Z"/><path fill="#94afc2" fill-opacity=".3" stroke="#94afc2" stroke-opacity=".3" stroke-width=".5" d="M375 454.6q-.3 1-1.3 1.4.4-.9 1.3-1.4Z"/><path fill="#788b98" fill-opacity=".8" d="M372.9 455.7q0 1-1.1 1 .4-.6 1-1"/><path fill="#91a7b9" fill-opacity=".7" d="M438.3 363q-.3.9-1.2 1 .3-1 1.2-1"/><path fill="#8698ab" fill-opacity=".3" stroke="#8698ab" stroke-opacity=".3" stroke-width=".5" d="M371.8 456.7q0 1.3-1.1 1.3.2-.9 1.1-1.3Z"/><path fill="#59666e" fill-opacity=".6" d="M369.9 457.8q0 1.2-1.3 1.2.4-.8 1.3-1.2"/><path fill="#58636c" fill-opacity=".6" stroke="#58636c" stroke-opacity=".6" stroke-width=".5" d="M313 481q0 .6-.8.8 0-.8.8-.8Z"/><path fill="#697783" fill-opacity=".8" d="M328.3 482q-.6.8-1.3.6.6-.5 1.3-.5"/><path fill="#59646d" fill-opacity=".3" stroke="#59646d" stroke-opacity=".3" stroke-width=".5" d="M252.7 348.3q0 .6-.7.6.3-.4.7-.6Z"/><path fill="#90a7b9" fill-opacity=".2" stroke="#90a7b9" stroke-opacity=".2" stroke-width=".5" d="m274.4 493-.4.7-1 .3q.3-1 1.4-1Z"/><path fill="#8093a4" fill-opacity=".4" stroke="#8093a4" stroke-opacity=".4" stroke-width=".5" d="m235.2 498-.3.7-1.1.2q.5-.8 1.4-1Z"/><path fill="#66747f" fill-opacity=".9" d="M460.4 277.7c.2.5.6 1.3-.2 1z"/><path fill="#262626" stroke="#262626" stroke-width=".5" d="M221 4.2c-.1 1.5 2.7.5 3.3.2q10.5.8 21.2.9c102 7.4 185.1 78.6 217.7 174A244.5 244.5 0 0 1 375 454.7q-.9.5-1.3 1.4l-.8-.3q-.7.4-1.1 1-1 .4-1.1 1.3l-.8-.2q-.9.4-1.3 1.2c-12 8.5-24.9 15.3-37.9 22.2l-2.4.9q-.8 0-1.3.5l-1 .6-12.2 4.8c-10.3 4.7-21.6 7.7-32.5 10.9l-6.7 1.3q-.6 0-.8.6c-11.5 2.1-22.7 4.4-34.5 5.2-1.3.1-4.7-.6-5.3 1-55 2.3-102-7.8-148.7-37.7-12.4-8.6-43.7-29.1-48.2-42.8-1.6-14 10.7-17.7 22.2-16.1 15.7 3.4 33.5 4.6 49.5 3.2.8.3 3.1.9 3.2-.5q6.8 0 13.5-1.3a200 200 0 0 0 160.3-145.5c22.1-83.9-14-178.7-88.8-223.8-7.8-6.1-28.4-10.3-26.1-23 3.1-16.9 37.6-15 50-15.3ZM193 14l-.9.2q-4.5.6-7.6 3.8c-2.8 6.2 6.7 8.4 10.4 11.4l15.2 8.9q1 1.3 2.8 1.6a483 483 0 0 1 26.7 21.2q10.5 10.6 20.6 21.3a7 7 0 0 0 2.4 3.8c1.8 2.2 4.4 6.7 6.6 8.2q.5 2 2 3.5 2.6 4.3 5.4 8.5 1 2.7 3 4.7c.8 3.1 3.2 6.2 4.5 9l.8 2q6 12.2 10.2 25.3.4.7 1 .9-.1.7.2 1.6c0 2.3 1.5 7 2.4 9.3a38 38 0 0 0 1.5 6.7q.9 5.3 2 10.5 0 2.2.5 4.6 1.3 11.7 1.9 23.3l-.2 6.1q0 .4.4.5L303 235l-.2.9a29 29 0 0 0-1 5.1 158 158 0 0 1-3 16 1 1 0 0 0-.7.8c-.3 3.9-2.5 9.3-3.4 13.3q-1.6 4.3-2.8 8.7l-6.1 15.3q-.7 1.6-1.6 2.8a234 234 0 0 1-14 26q-6.3 9.9-13.8 19.2-.3.6-.2 1.2-1.5.7-2 2.5-.3 1-1.5 1.4l-.7.7q-12.2 14-26.6 26-.3.4-.2 1a2 2 0 0 0-1.5.9q-.7.3-1 1A233 233 0 0 1 162 411q-.7 0-1 .9a477 477 0 0 1-32.3 8q-7.8 1-15.6 1.7l-1.1.4-21 .5-7.7-.5q-8.8-.5-17.5-1.2c-1-1-4.9-.8-6.3-1.2q-1.3-.3-2.2.5 0-.6-.7-1c-2.4-.4-6.6-1.3-6.7 2.2q1.4 2.7 3.4 4.9a240 240 0 0 0 9.5 10.7 68 68 0 0 0 9.1 8.4c1.1 1.2 3 3.8 4.9 3.5.4 2.4 6.4 5.5 8 7.4l4.9 3q4.4 3.6 9.4 6 2.1 1.8 4.7 2.6a29 29 0 0 0 10.3 5.4c.4 1.3 2.5 1.5 3.6 2 3 1.8 8 4.2 11.4 5q1.2 1 3 .8c0 1.3 9.4 4.2 11 4.2.2 1 2.1 1 2.9.7q.2 1 1.3 1.2a138 138 0 0 0 12.5 3.7q6 1.5 12 2.4 3.4 1 6.9 1.7h1.3c4 1.1 10 1.8 14.1 2q4.8 1 9.8 1.3l1.2-.3c4.5 1.4 11.2.7 16 1.2l12.7-.3 1.1-.2q10.7-.2 21.3-1.7a116 116 0 0 0 17.8-3.3 235 235 0 0 0 38.2-12q.7 0 .8-.7a226 226 0 0 0 86.3-60q2.8-2.1 5-5 .9-1.2-.6-1.7l1.4-.4q.8 0 1-1c3.7-3.9 15.4-17.2 16-22.1q.8.2 1.2-.6l.8-1.1q2.3-4 4.8-7.8l.4-1.4q.5 0 .6-.7c1.8-3.6 6.8-11.6 7.2-15.3q.9 0 1.2-1l3.5-7.7c1.3-4 4.4-10.4 5-14.3l.5-1a21 21 0 0 0 1.8-4.6c.8-3.3 3.6-10.2 3.6-13.4l.5-1v-1q2.2-6.2 3.2-12.8l.6-1.8q1-6 1.7-12.3l.5-1v-2q1-5.6 1-11.3c.8.3.3-.5.2-1q.6-2.1.5-4.4a148 148 0 0 0 .4-15.3q.3-5.6 0-11.3-.3-3-.1-5.7l-1.3-12.9-1-8.6q0-1.2-1-1.9c.7-1.6.1-4.9-.8-6.4 0-3.5-1-7-1.8-10.4l-.3-2-2.6-10-2.1-6.6q-1.3-4.8-2.9-9.4-.3-1-1.1-2-1.4-5-3.2-10l-2-3.5c-.7-2-2.5-7.4-4.2-8.6q0-1-.8-1.6c0-2-2.6-7.8-4.4-8.4.7-1.6-1.8-4.2-2.5-5.7q-2-3.8-4.3-7.4a1 1 0 0 0-.8-.4l-.4-1.4c-1-1.9-4-7-5.7-8q-.4-2.6-3-3.7c0-1.7-4.2-8-6-8-.2-2-2.2-4.4-4-5.2a16 16 0 0 0-6.4-7.2q.3-1.6-1.3-1.4A122 122 0 0 0 377 70.1q-1-1.3-2.5-2c-1.8-2-5.9-5.6-8.5-6.2-.1-1.5-3.5-3-4.5-4q-4.5-3.3-9.3-6.2l-4-2.6c-3-1.5-7-5-10.3-5.4-.3-1.2-3.6-2.5-4.8-2.8q-.3-.9-1.2-1.1c-9-4.2-22.7-10.8-32-13a4 4 0 0 0-2.5-1.1 144 144 0 0 0-40.6-9.8 23 23 0 0 0-7.4-1q-7.5-1.3-15.2-1.2l-1.5-.3q-1.2-.5-2.6-.4l-4.8-.1-1.1.2q-9.6-.6-19.2-.3-6 0-11.9 1.2Z"/><path fill="#7d909e" fill-opacity=".6" d="m424.1 389-.8 1.2q0-1 .8-1.1m-.8 1.2q-.3.7-1.3.6.4-.7 1.3-.6"/><path fill="#9fbace" stroke="#9fbace" stroke-width=".5" d="M205 12.8q9.5-.2 19 .3l-.1.8-6.5 8.6q.4.4.9.1L233 14l1-.3q7.6-.1 15.2 1.3l-11 11.4q.8.5 1.7.2a385 385 0 0 1 15.7-9.3q1-.3 1-1.4a144 144 0 0 1 40.6 9.8q-1.3.4-2.2 1-4.2 4.1-8.8 7.7.7.2 1.6-.2l10.7-6q.9-.6 1.3-1.5c9.2 2.3 23 9 32 13.1q.8.3 1 1.1-12 9.6-23.6 19.5c.6.8 2.5-1 3.4-1l24-14q1-.5 1.1-1.7c3.2.5 7.4 4 10.4 5.4-5 4.3-18.2 13.7-22 17.6q-1.6.7-2.8 1.6c.5 1 3.7-1.4 4.6-1.6l23-13.3q1-.6 1-1.7 5 2.9 9.3 6.2a4 4 0 0 1-2.3 1.8l-24 18.8c-.6 1.9-4.7 2.8-4.8 3.9q.9.4 1.8 0 16.3-9.7 32.7-19a2 2 0 0 0 1.2-1.5c2.6.6 6.7 4.2 8.5 6.3q-6.7 4.5-13 9.7a100 100 0 0 0-8 5.4c1.5 1.5 2.6-.8 3.9-1.5l18.4-10.4A2 2 0 0 0 377 70a126 126 0 0 1 20.4 20.2q-4 2.9-8.4 5.3-.8.4-.8 1.3-2.1.1-3.2 2-2 0-3 1.7c1.3.7 2.7-.5 3-1.7q2.4.2 3.2-2l2-.3q4.1-2.6 8.5-5c2 .8 6 5.2 6.5 7.3q-1 .3-1.8.8L365 128.5q-.7.7-.6 1.5h-1.6l-4.6 3.6c.7 1.4 4.2-1.6 5-2.3l1.1-.6 43.8-25.2q.8-.5 1-1.5c1.7 0 5.8 6.4 6 8-11.6 8.3-23.6 16.4-34.6 25.3a32 32 0 0 1-5.2 3c1.6 1.5 2.7-.8 4-1.5q18.8-10.6 37.4-21.4 1-.4 1.3-1.5c1.8.9 4.6 6 5.7 8l-.7.1c-1.7 1.4-7.4 4.2-8 6q-2.3-.3-3 2-1.2-.2-1.9.7c.6 1 1.9 0 1.9-.8a4 4 0 0 0 3-1.8c2.4-.3 6.8-3.6 9-4.9q.6 0 1 .4 2.3 3.6 4.2 7.4-20.5 14.3-40.9 29a5 5 0 0 0-1.5 2.4q-1.1-.8-1.8.3l-1.3.4-4.6 3.6c.7 1.5 4.2-1.6 4.8-2.5l1.3-.3q1-.6 1.6-1.5a8 8 0 0 0 3.2-1.4q21-12 41.6-24.3c1.9.6 4.4 6.5 4.5 8.4l-12.1 7.5-1 1.4q-1 0-2.2.4-1.9 1.7.6 1.3 1-.6 1.6-1.7.7 0 1.3-.2 6.2-3.7 12.6-7c1.7 1 3.5 6.4 4.2 8.5q-1-.2-1.8.4l-40.2 28-2 1a4 4 0 0 1-3.2 2q-.5 0-.6.6c1.6 1.5 2.7-.8 4-1.5 14.8-8.4 32.1-17 45.8-27q1.8 5 3.2 10c-3.5.7-13 8.4-16.7 10.4-1.8 1.4-6.5 3.7-7.5 5.6a9 9 0 0 0-5.2 3.1c-1 .2-2.7.4-2.9 1.7 1.3.7 2.6-.5 3-1.7q3.3-.3 5.1-3.1c1.8.5 6.8-3.5 8.7-4.2l16.6-9.8 2.9 9.4-61.7 42c-1.5 1.3-1.3 1.9-3.7 2.3q-.8.4-.7 1.3-1.2.2-2.3.6-2 1.6.4 1.3 1.2-.7 1.9-1.9l1.8-.2 66.4-38.8 2.6 10c-2.6-.3-17 10.8-20.3 12.4q-4.5 2.6-8.7 5.5-.7.4-1 1.2a3 3 0 0 0-3 2q-1.4 0-2 1l-2 .7q-2 1.5.4 1.3 1.2-.6 1.6-2a2 2 0 0 0 2-1q2.1 0 3-2 1 .1 2-.4l9-5.2 19.4-11.5c.7 3.4 1.6 7 1.7 10.4a4 4 0 0 0-1.7.6l-70.5 46.8q-.7.4-.7 1.3-2.4-.1-3.1 2.1-1.5-.2-2 1c-1.1.2-2.9.3-3.2 1.6 1.1 1.4 2.6-.8 3.1-1.6q1.5.2 2-1 2.2-.2 3.2-2.1 1.3 0 2.4-.8l69-39.8q1.3-.7 2.2-1.7 1 .6 1.1 1.9l1 8.6c-2.1-.5-29 17.6-32.8 20.1-1.9.7-4.3 2-5 4-2.2-.8-5.2 2.7-7.1 3.4q-.7.6-1 1.5c-1.9-.3-4.2 1.3-5 3q-1.5-.4-2 .9c-1 .3-2.7.5-3 1.6 1.2 1.4 2.6-.6 3-1.6q1.5.3 2-1 3-.4 5-3c2.2-.2 5.9-3 8-4q2.8-1.8 5.8-3.4l32.4-18.8 1 10.2q-1.8 0-3.3 1l-1.2.7-.7.5-1.4.7-4.8 3q-.4 0-.8.4-.7.2-1.3.7a36 36 0 0 0-5 2.7l-5 3-1 .5-1 .6-5 3q-.4 0-.7.4l-1.3.7-3.7 2.1-1.3.7-5.7 3.3-1.3.7q-3 1.6-5.6 3.6-.8.1-1.4.5l-5 3-.7.5q-.8 0-1.3.6l-5 2.8-5.4 3.5q-1 .1-1.6.8l-5 2.7-.8.6q-.6 0-1.1.6l-5 2.9-.8.4q-.7.2-1.2.7l-5 3-.8.4q-.7.2-1.2.7l-3.1 1.7-1 .3-1 1a37 37 0 0 0-5 2.7l-.8.5-1.3.7-4.9 2.8-.8.4-1.2.8-3.9 2.1-1 1q-.5 0-.8.3l-1.3.6q-1.9 1-3.4 2.3a66 66 0 0 0-6.6 3.5l-.7.6q-.8.1-1.4.7l-4.8 2.8-6 3.2-1.1 1a32 32 0 0 0-5 2.7l-.9.5-1.1.8-5 2.7-.8.6q-.7 0-1.2.7l-3.7 2-1.3.7a140 140 0 0 1-10.8 6.2l-1.2.8-.8.5-1.1.8a38 38 0 0 0-5.1 2.7l-.7.5-1.4.7-3.6 2.1-1.3.7q-2.8 1.5-5.4 3.5-.9.1-1.6.7l-5 2.8-.8.5q-.7.1-1.2.6l-5 3-.8.4-1.2.8a180 180 0 0 0-10.6 6.3l-1.4.6-5 2.8-.8.5-1.2.7-3.8 2-1.2.8-.6.6q-.8.1-1.4.6a5 5 0 0 1-2 1.1l-.5-.2.2-.9q14.3-12 26.6-26 .7 0 .7-.7 1.2-.3 1.6-1.4.9.3 1.8-.2 1.7-1.7 4-2.6l8.3-5.2q1-.7 1.5-1.8c1.7 0 4.6-1.3 5-3a8 8 0 0 0 5.2-3c.8.3 4.3-1 2.4-1.9q-1.9.2-2.4 2c-2-.4-4 1.4-5.2 2.9q-3 .4-5 3-1-.1-2 .4l-9.2 5.3q-.9 1.5-2.5 1.6l.2-1.2q7.5-9.2 13.7-19.3 1.5 0 2.5-.6c20.4-13.5 41.6-28 62-41a1 1 0 0 0 .1-1c1 0 6.1-2.2 4.9-3.2-1.4-.2-4 2-4.9 3.1-19.3 10.2-38.4 21.8-57.5 32.8l-1.2.3q4.5-8 8.2-16.3 1.3 0 2.5-.5a78 78 0 0 1 11.6-7.7q2.4-1.4 4.6-3a31 31 0 0 0 4.7-2.7 12 12 0 0 0 3.4-3c.6 0 2 .1 2-1q.8-.2 1-1 1.1.3 2-.7c-.6-1-2-.2-2 .6q-1 .3-1 1.2-1.5-.4-2 1c-2.3 0-7.2 3.6-9.1 5q-2.6.9-5 2.4l-6.4 4.3q-2.6.8-4.7 2.3l6-15.3a3 3 0 0 0 1.9-.5l56.9-39.1c1.8-1.3 1.9-2.5 4.5-2.8q1.4-1-.5-1-1 .9-2.6 1.3-.6.8-1.5 1.4a2330 2330 0 0 0-55.8 32c.9-4 3.1-9.4 3.4-13.3q.8 0 .7-.8c2.6.2 10.6-6.8 13.5-8l11.6-7.7a3 3 0 0 0 1-1.3q1.2 0 2.3-.4 2-1.6-.5-1.3-1.3.6-1.8 1.7l-1.2.1-12.8 7.5q-.6.8-1.4 1.2-4.5 2.1-8.7 4.7L299 255q1.7-7 2.7-14 1.2.2 2.3-.4l36.9-25.4 2-2q1.4 0 2.1-1.1c.6-.2 4-1.3 2.5-2.2q-1.8.3-2.5 2.2-1.5-.4-2.1 1c-13 6.2-26 14.9-39 21.9h-.9l1.8-24.1q21.6-15.3 43.3-30.3.8-.5.8-1.4c.6-.1 4-1.1 2.6-2a3 3 0 0 0-2.6 2c-1.3-.1-4.1 2-5.6 2.5l-38.7 22.6q-.6-11.7-1.9-23.3c2.8.1 22.8-15.3 26.7-18l5.6-4.3q.9-.2 1.6-.6l3.3-2.8c-1-1.2-4.3 1.7-5.1 2.5q-3.5 1.5-6.5 3.5-13 7.6-26.2 15l-2-10.4q1 0 1.6-.6l41-30.7q-.4-.5-1-.4l-43 25a37 37 0 0 1-2.4-9.3q1.3-1.2 2.8-1.9 4-2.7 7.8-5.7-.5-.7-1.2-.3-3.9 2.5-8 4.7l-1.6 1.6q-.6-.2-1-.9-4-13-10.2-25.4c2.5-.1 14.3-9.7 17-11.8.4-.6 4-1.3 2.6-2.3q-1.9.4-2.6 2.3h-2q-7.1 4.6-14.5 8.8-.8.5-1.3 1.2c-1.3-3-3.7-6-4.4-9l27-21.5q-1.6-.7-2.4.9c-9.1 4.5-18.9 10.5-27.7 15.7q-3-4-5.4-8.4a6 6 0 0 0 2.1-1.2l19.4-15q-.4-.6-1-.4-11.3 6.3-22.5 13c-2.2-1.4-4.8-6-6.6-8.1 2.2-.2 20.3-15.5 21.3-17 .7-.2 3.7-1 2.5-2.2a3 3 0 0 0-2.5 2.2c-4.7 1.4-18.6 10.2-23.7 13.2Q250 71.6 239.6 61.1l9-7.5q-.3-.5-.9-.3a86 86 0 0 0-10 6A483 483 0 0 0 212.9 40q1 0 1.7-.8l8-8.5q-.7-.3-1.6.1l-10 5.8q-1 .6-1 1.7l-11.3-6.7c1.6-.3 6.9-7.2 4-6.3a96 96 0 0 1-7.8 4.1c-3.6-2.9-13.2-5-10.4-11.3q3-3.2 7.6-3.8l.2 1q-.8 3.1-.8 6.2a214 214 0 0 0 12.6-6.9q1-.6.8-1.7ZM312 188q-2.1 0-3 1.6c.9 1 2.7-.5 3-1.6q1.1 0 2.2-.3 1.9-1.8-.6-1.3-1.1.4-1.7 1.6Zm4 28q-2.1 0-3 2c-1-.3-6 2-4.8 3.2 1.5-.2 4-1.8 4.9-3.2a6 6 0 0 0 3-2q1 .1 1.6-.7c-.5-.9-1.6 0-1.6.8Zm145.2 30.7q.5 5.7 0 11.3-1-.4-2 .2l-1.5.8-3 1.7-3 2-.8.6-1.2.6-1.8 1-1.2.8a19 19 0 0 0-3.4 2.5q-.9 0-1.6.7l-3 1.8q-1.9 1.3-3.9 2.3l-1 1-3.1 1.7-.8.5-1.1.8-7 4q-.6.4-1 1l-1.9 1-1.2.7q-1.9 1.3-3.9 2.4l-1.1.8-3.8 2.3-1.3.7-4.7 3-1.2.8-.6.6-1.3.6-1.9 1-1.2.8q-.9.8-1.8 1.3-.7.2-1.3.7l-.8.5-1 .6q-.9.7-1.9 1.2l-1.2.7q-1.5 1.5-3.7 2.3l-1.3.7q-1.7 1.6-3.8 2.7c-1.6.6-4.3 1.8-4.8 3.6q-1.2-.1-2.2.4-3.3 2.3-7 4.3a2 2 0 0 0-.9 1.4c-1.6-.2-4.6 1.4-5 3q-3 .3-5 2.8-1.2 0-2.2.4-2.1 1.8.6 1.3a4 4 0 0 0 1.6-1.7c1.8.4 4-1.5 5-2.8q3.1-.6 5-3c2.3-.1 7.6-4 10-5.1q2.5-1.8 5.4-3.2.5-.4.4-1c1.7.2 4.7-2 6-3.2q.7 0 1.6-.5a32 32 0 0 1 5-2.8l.6-.6 1.2-.5q1.8-1.3 3.8-2.2l1.3-.7.6-.6q.8-.2 1.4-.6l1.8-1 1.3-.8 1-.3.9-1a31 31 0 0 0 5-2.7l.8-.6q.7 0 1.2-.7l5-2.7.8-.5 1.1-.7 10.1-5.8.7-.5 1.3-.8 5-2.7.6-.6 1.5-.6 5-2.8.7-.6 1.2-.7 3-1.6.7-.4 1.3-.7 5-3 .7-.6q.8-.3 1.3-.7a4 4 0 0 1 2-1q0 5.6-.4 11.3-1-.1-1.9.4c-25.2 15.6-51.3 32.2-76.4 47.5l-13.6 8.4q-.6.6-1 1.4-1-.1-2 .4a6 6 0 0 0-3 2.7q-1.5-.5-2 1a3 3 0 0 0-3 1.9 2 2 0 0 0-2 .7c.7.9 1.8 0 2-.7a3 3 0 0 0 3-2q1.4.3 2-1c1.6-.2 4.3-1.4 5-3a4 4 0 0 0 2-.5l14-8.2c24.3-14.7 49.4-28.4 74-42.8l2.2-.8q0 5.7-1 11.3c-3.4.3-22.3 13.6-26.9 15.8q-1 .4-1 1.5-3 .3-5.1 2.4c-2.2 1.5-8 3.9-9.2 6.2-1.8-.1-9.2 4.5-10 6q-1.4 0-2 1-2.1.2-3 2a2 2 0 0 0-2 .7c.6 1 2 .2 2-.7q2.2 0 3-2 1.5.4 2-1c1.8-.2 9.4-4.3 10-6 2 .4 7.6-3.9 9.6-4.8q.3-.4 0-1 3-.3 5.4-2.2l26.3-15 .4.1q-.6 6.2-1.7 12.3-1-.8-2.1-.2a282 282 0 0 0-13.4 8.7q-3.4 1.6-6.6 3.7-.9.6-1 1.7-1-.3-2 .2-3 2.1-6.3 3.8-1 .6-1.6 1.6a7 7 0 0 0-5 3.3c-1.9-.2-4.1 1.3-5 2.9q-3.2.5-5 3-1.5-.3-2 1c-1 .3-2.7.5-3 1.7 1.1 1.4 2.3-1 3-1.7q1.4.3 2-1c1.7 0 4.2-1.4 5-3a7 7 0 0 0 5-3c1.9-.1 4.3-1.3 5-3.2a3 3 0 0 0 2-.2l8-4.6 22.3-13q-.9 6.7-3 13h-1.4l-10.3 6.3q-1 .6-1.7 1.7-3 .5-5 3c-2.7.3-4 2.2-6.3 3.2q-.6.3-.5 1c-1.2 0-3 .4-3 1.9a2 2 0 0 0-2 .6c.6.9 1.8.1 2-.6q2-.2 3-2c1.7.1 6.4-2.6 6.8-4.2a6 6 0 0 0 5-3c3.4.2 9-5.3 12.8-6 0 3.2-2.8 10.1-3.7 13.4a2 2 0 0 0-2 0c-19.5 12.3-38.9 25-58.4 36.9l-8.6 5.5q-.6.5-1 1.3a8 8 0 0 0-5 3q-2.4-.3-3 2-1.2-.3-2.1.6c.6 1 2 .4 2.1-.5q2-.5 3-2.1c1.9.2 4.2-1.4 5-3q1.1 0 2-.5l9-5.2q28-16 55.8-32.6l1 .2c-.6 3.9-3.7 10.3-5 14.3q-1.3 0-2.5.6-30.3 19.6-60.5 39.4a97 97 0 0 0-8.2 5l-1.3 1.4c-1.5.7-2.5.6-3.2 2.2a8 8 0 0 0-5.2 3.2q-2.1 0-3 2-1.2-.3-1.9.7c.5 1 2 .3 2-.7q2-.3 3-2c2 0 4.2-1.4 5-3.2 1.7.4 3.8-1.2 5-2.4q3.6-1.4 6.7-4l2-.7 53-30.6q2-1.3 4.4-2.2c-.4 3.7-5.4 11.7-7.2 15.3a1 1 0 0 0-.6.7l-.4 1.4q-1.5-.6-3 .3a4526 4526 0 0 0-50.2 33.7q-6 3.5-11.7 7.4a3 3 0 0 0-1 1.2q-2.2.1-3 2-1.3-.1-2 .8c.6.9 2 .2 2-.7a4 4 0 0 0 3-2q.7 0 1.3-.2 6.3-3.4 12.4-7.2l45.3-25.8c-.6 5-12.2 18.2-16 22.2q-.7 0-1 1l-1.3.3q-13.5 9-26.7 18.2a2 2 0 0 0-.8 1.4c-2 0-4 1.4-5.2 2.8.9 1.5 4.6-1.8 5.2-2.8q1.3-.1 2.4-.9 9.8-5.4 19.2-11.3l1 .1A226 226 0 0 1 313 481q-.8 0-.8.8a239 239 0 0 1-38.2 11.9l.4-.7q26.1-17.7 52-36c1-.9 3.8-1.2 3.5-2.7 1 0 5.7-2.4 4.6-3.4-1.7-.2-3.8 2-4.6 3.4h-1.2L257 495.8q-.6.4-.8 1.3-10.6 1.5-21.3 1.7l.3-.8 3-1.6 1.9-1.2 1.2-.8 1.8-1.2 1.2-.8q.8-.7 1.8-1.2l1.2-.8q.8-.7 1.8-1.2l1.2-.8q.8-.7 1.8-1.2l1.2-.8q.8-.7 1.8-1.2l1.2-.8q.8-.7 1.8-1.2l1.2-.8 1.8-1.2 1.2-.8 1.8-1.2 1.2-.8 1.8-1.2 1.2-.8 1.8-1.2 1.2-.8 1.8-1.2 1.2-.8 1.8-1.2 1.2-.8 1.8-1.2 1.2-.8 1.8-1.2 1.2-.8 3-2 1.8-1.2 1.2-.8 3-2 1.8-1.2 1.2-.8 1.8-1.2 1.2-.8 1.8-1.2 1.2-.8a6 6 0 0 1 1.8-1.3l1.2-.7q1-.9 2-1.3l8.7-5.7q.7-.5 1-1.2 2.1-.1 3-2.1 1.2 0 2.2-.3 2-1.8-.6-1.3a3 3 0 0 0-1.6 1.6q-2.3 0-3 2-1.1-.1-2 .4l-9.1 5.2q-1.7 1.6-4 2.4l-1.2.7-.6.5q-.8.2-1.4.7l-5 2.9-.7.4-1.3.8-3 1.6-.7.4-5 3-1.4.7-.8.5-1.1.7-5 2.8-.8.5-1.1.8-3.2 1.6-1.9 1.2-.8.5q-.7 0-1.2.6l-10 5.8-.7.6q-.8 0-1.4.6l-5 2.8-.7.6-1.2.6-5 2.9-.7.5q-.8 0-1.3.6l-5 3-12 6.8q-.6.6-.6 1.5c-4.8-.5-11.5.2-16-1.2l.1-.8 3-2 1.9-1.1 1.2-.8 5-3.3 1.6-1.2q.8-.2 1.3-.8l1.8-1 1.2-.8 1.9-1.1 1.2-.8 1.8-1.2 1.2-.8 3.6-2.5q.8-.2 1.4-.7l1.4-1.3q1-.2 1.7-.8.8-.6 1.8-1l1-.9 1.9-1 1.2-.8 1.8-1.2 1.2-.8 1.8-1.2 1.2-.8.8-.5 1.2-.8 1.5-1.1 1.6-.8 1.8-1.1 1.2-1 1.7-1 1.2-.7 3-2 1.8-1.2 1.9-1.3 1.3-.8q.8-.5 1.5-1.3.8-.1 1.4-.6l2-1 1-1a45 45 0 0 0 8.2-5.5q3.1-1.5 6.3-3.6a9 9 0 0 0 3.3-3c1.5 0 4.5-1.5 5-3a3 3 0 0 0 3-2c.4.2 2.7-.3 1.6-1a2 2 0 0 0-1.7 1 3 3 0 0 0-3 2 7 7 0 0 0-5 3q-1-.1-2 .4l-14.2 8.3-.8.5-1.2.7a40 40 0 0 0-5 2.9l-.7.5q-.8.2-1.4.7l-3 1.6-.6.4-1.2.8-5.1 3-.8.5q-.6.2-1.2.7a74 74 0 0 0-8.8 5l-1.3.6-.6.4-1.3.8-3.8 2.1-1.3.8-.8.4-1.2.9-5 2.7-.7.5-1.3.6-5 3-.7.5q-.7 0-1.2.6l-3.7 2-1.3.8-.8.5-1.2.6q-1.9 1-3.5 2.3-.7.2-1.5.8a61 61 0 0 0-7 3.9l-5 2.9-.8.3-1.2.7q-.6.6-.6 1.2c-4.2-.2-10.1-.9-14-2l.1-.8 70-44.3q7-4.2 13.7-8.7a2 2 0 0 0 1-1.3c.7.1 2.2.2 2-.9.7 0 4-1 2.7-2q-2.1 0-2.7 2-1.3-.3-2 1-1 0-2 .5l-14 8.2c-25.3 15-51.5 29.7-77 44.6q-6.1-.9-12.1-2.4c1.3-2 9.7-6.4 12.2-8.2q4.5-2.4 9-5.4.8-.5.9-1.3a6 6 0 0 0 5-3q3.2-.4 5-3c1.6 0 4.6-1.5 5-3 .5.2 2.7-.4 1.6-1q-1 0-1.6 1a7 7 0 0 0-5 3q-3 .4-5 3-3 .5-5 3-1-.1-2 .4l-7.6 4.4q-1 .4-1.3 1.5-1-.2-1.7.3-5.7 3.6-11.6 6.7a1 1 0 0 0-.5.8q-5-1.3-10-3-.9 0-1.2-1l31.2-19.4q6.8-3.7 13.2-8 .9-.6 1.5-1.6 3.2-.5 5.1-3a8 8 0 0 0 5-3q1.5.2 2-1.2 2 0 3.1-1.8a2 2 0 0 0 1.7-.8c-.5-1-1.7 0-1.7.8-1.7-.5-2.2.9-3.2 1.8q-1.4 0-1.8 1.1c-1.8.2-4.5 1.3-5 3.1a6 6 0 0 0-5.2 3q-1-.1-2 .3l-14 8.2q-.6.8-1.4 1.2-15.1 8.3-30.1 17-.9.6-1.3 1.5c-1.6 0-11-2.9-11-4.2a3305 3305 0 0 1 55-33.9q.6-.3 1-1.2c1.2-.3 4.6-1.5 4.8-3 1.4 0 4.7-1.6 5-3q2.2 0 3.2-2c.5.2 2.8-.3 1.5-1q-1.3-.2-1.5 1-2.1.2-3.2 2c-2.2-.2-3.8 1.3-5 3-2.1-.3-3.9 1.3-4.9 3a4 4 0 0 0-2 .3l-16 9.4c-13 7.9-26.5 15.2-39.7 23q-1 .4-1.2 1.5c-3.3-.7-8.4-3.1-11.4-4.8a5 5 0 0 0 3-1.7l1.6-.6 3-1.8 4-2.4 1-.9 3-1.7.7-.6q.8-.2 1.4-.7l2.8-1.7 3.2-2 .7-.5 1.3-.8 4.7-2.9 1.2-.8.7-.6q.8 0 1.3-.7l1.8-1 1.2-.7 1.8-1.2 1.3-.8.6-.5 1.3-.7 1.8-1 1.2-.8 5-3.3 1.8-1 1.2-.7 8-5 .8-.6 1.2-.7 1.8-1 1.2-.7 1.8-1.2 1.3-.8 1.9-1.2 1.8-1 1.2-.8q.8-.8 1.8-1.3.8-.2 1.2-.7l.7-.5 1.2-.6q.9-.7 1.9-1.2l1.2-.7 3.6-2.7q4.2-2 8.2-4.6c1.7-1.5 6-3 6.9-5q3.1-.5 5-3c1.5-.2 4.5-1.4 4.9-3a8 8 0 0 0 5-2.7c-1-1.4-4.2 1.8-5 2.7-1.7-.1-4 1.5-4.9 3a6 6 0 0 0-5 3c-2.1 0-5.3 2.3-7 3.5l-9.1 5-5.6 3.8q-.7 0-1.5.6-1.8 1.3-3.8 2l-1.3.8-.8.5-1.2.7-3.7 2.1-1.3.7-5 3q-.4 0-.7.3l-1.3.7-5 3-.6.6a3 3 0 0 0-1.5.6l-5 2.8-.7.5-1.3.7-3.6 2-1.2.9-.8.5q-.7.2-1.3.7l-3 1.6-.7.4-1.3.7-5 3-.8.4-1.3.8-5 2.8-1.9 1.3-3 1.6-.7.4-1.3.8-.8.3q-.7.4-1.2 1l-3 1.6-.9.4-1.2.9-5 2.7-.7.6q-.7 0-1.2.6a4 4 0 0 0-2.6 2.4c-1.8-.1-9.6-4-10.3-5.4a4 4 0 0 0 2.2-1l1.3-.6 3.6-2.6q.8-.2 1.4-.7l3-1.7 1.8-1.2 1.3-.8.7-.6 1.2-.7 3-1.7q1.8-1.5 4-2.2l1-1 1.8-1 1.2-.8.7-.6 1.2-.6 6.1-3.8.6-.5 1.5-.7 1.7-1 1.2-.8 3-2 1-.4 1-.8 1.8-1 1.2-.8q2-1.4 4-2.4l1-1 3-1.6.7-.6 1.3-.6q.8-.6 1.8-1l1.2-.8 3-2 .6-.5q.8-.2 1.4-.7.8-.6 1.8-1l1.2-.8q2-1.4 4-2.4.5-.3 1-1l3-1.6.8-.6q.6-.2 1.1-.6l1.8-1.1a31 31 0 0 0 4.8-3.3q.8 0 1.4-.7l2-1q7.8-5 15.8-9.8.7-.4 1-1.2c1.3-.2 4.5-1.5 5-3q2.1 0 3-2 1.2.2 2-.7c-.7-.9-1.8 0-2 .8q-2.1 0-3 2c-1.8-.3-4.2 1.4-5 2.9a3 3 0 0 0-2.1.5l-16 9.2q-2 1.2-3.6 2.6-.9 0-1.6.7-1.7 1.2-3.8 2l-1.2.7-.8.5-1 .6q-2 1.3-4 2.2l-1.2.7-.8.5-1.1.8-3.2 1.6-.6.4-1.2.8-5.1 3-.6.5q-.8.1-1.4.6l-3.8 2-1.2.8-.7.6q-.7.1-1.3.6l-5 3-.8.4q-.7.2-1.3.6l-1.7 1-1.3.8-1 .3-.9 1-5 2.7-.7.5q-.8.1-1.3.7l-3.7 2-1.3.8-.8.5-1.3.7-3 1.7-.6.4-1.3.8-.8.5q-.7 0-1.1.7l-3.2 1.7-.9.4-1 .8-5 2.8-.6.6-1.5.7-5 2.7-.6.6a2 2 0 0 0-1.3.6l-2.6 1.4a54 54 0 0 1-9.4-6q1.5-.3 2.9-1.2l22.1-18.4c-.8-.9-2.8.8-3.6 1.1q-13.3 7.5-26.2 15.5c-1.7-1.9-7.7-5-8.1-7.4L87.6 437q.4-.6-.2-.9L73.5 444l-1.6 1.4a68 68 0 0 1-9-8.4c.8-.5 4-5 3.6-5.6a21 21 0 0 1-4.2 2.3q-.8.4-1.5 1.3l-7.5-8.7a25 25 0 0 1-3.4-4.9c0-3.5 4.3-2.6 6.7-2.1q.6.3.7 1c-.1 1-1.2 6 .2 6.3 1.7-1.3 8-3.7 8.3-5.7q8.7.7 17.5 1.2-2.9 4.3-5.4 8.8.6.3 1.3 0 6-3.2 11.5-6.8.4-.8.3-1.5l21-.5-.3.8q-6 7-12.6 13.7-.7.9-.7 2 .4-.9 1.3-1.4a792 792 0 0 0 28-16q1-.2 1-1.2a477 477 0 0 0 32.3-8l-.3 1-3 2-.8.9-1 1a24 24 0 0 1-4 3l-1.1 1-1 1-5 4-1 1c-1.4.5-2.8 3.3-4.1 3.2a7 7 0 0 0-2.6 2.8c-.9.5-2.6.7-3 1.7 1 1.2 2.6-.8 3-1.7q2.2 0 4-1.5 1.8-1.4 4-2.4l1.2-.7.7-.5 1.3-.7 3-1.7.7-.3 1.3-.8.6-.5 1.4-.8q1.9-.9 3.5-2.2.7-.2 1.5-.7l3.8-2a7 7 0 0 0 2-1.4q.7-.1 1.3-.7l5-2.7.5-.5q.8-.2 1.5-.7l5-2.8q2.7-1.5 5.4-3.5.9 0 1.6-.7l5-2.8q.2-.3.6-.4l1.4-.8 5-2.8.6-.6q.7-.2 1.3-.6l1.8-1 1.3-.8.6-.2 1.3-.8 5-3 .7-.5q.9-.1 1.3-.8a34 34 0 0 0 5.7-3.2l1.4-.7 5-2.8.6-.5 1.3-.7 5-2.8 7-4.2 5-2.8.8-.6q.7-.2 1.3-.7a262 262 0 0 0 17.8-10.3l1-.5 5.1-3 .8-.5q.7-.1 1.2-.6l5-2.9.7-.5q.8-.2 1.4-.7 1.8-.9 3.5-2.2.9 0 1.4-.8l5-2.7.8-.5a2 2 0 0 0 1.2-.7l3.8-2 1.2-.8.7-.6q.7-.2 1.2-.6l5-2.8q3-1.5 5.6-3.6.9 0 1.4-.6l5.1-2.8.9-.6 6.2-3.4.5-.5q.9-.2 1.4-.7 2-.9 3.4-2.4a2 2 0 0 0 1.6-.7q3-1.3 5.5-3.3.9 0 1.4-.7a30 30 0 0 0 5.1-2.7l.7-.5q.8-.3 1.3-.7l5-2.8q2.8-1.5 5.5-3.5.7-.2 1.5-.8l5-2.7.7-.5q.8-.2 1.3-.8l5-2.7.8-.4 1.3-.8 3.6-2.1 1.3-.7 5-3 .8-.6q.8 0 1.2-.6l5-2.8.7-.6q.8-.2 1.4-.6l5-2.8.7-.4 1.3-.8a17 17 0 0 1 4-2l.9-1 5-2.8.6-.5q.8-.2 1.4-.7l5-2.8.7-.5q.8-.2 1.4-.8l5-2.7.6-.6q.8 0 1.3-.7l10-5.7.9-.6q.7 0 1-.7l5.1-2.7.7-.5q.8-.2 1.3-.8l5.7-3.2 1.3-.7q2-1 3.6-2.3.9 0 1.4-.8a38 38 0 0 0 5-2.7l.8-.5q.7-.2 1.3-.7 1.3-.8 2.8-1.4ZM401 339c.2 0 1.8-.3.8-.8q-.8 0-.8.8Z"/><path fill="#9fbace" fill-opacity=".5" d="M227.9 407c.8-.9 4-4.1 5-2.7a8 8 0 0 1-5 2.7"/><path fill="#9eb9cf" fill-opacity=".5" d="M400.9 339q0-.8.8-.8c1 .5-.6.8-.8.8"/><path fill="#9db8d0" fill-opacity=".2" stroke="#9db8d0" stroke-opacity=".2" stroke-width=".5" d="M384.2 259.9q-1 1.9-3.2 2.1.8-2.2 3.2-2.1Z"/><path fill="#9fbace" fill-opacity=".5" d="M325 240q.4-1.2 1.7-1.7 2.4-.3.5 1.3-1.2.4-2.3.4m33 97c-.2.7-1.3 1.6-2 .7a2 2 0 0 1 2-.7m13 47c0 1-1.5 1.7-2.1.6q.9-1 2.2-.5m-174 83q.5-1 1.5-1c1 .6-1 1.2-1.6 1"/><path fill="#9eb9cf" fill-opacity=".3" stroke="#9eb9cf" stroke-opacity=".3" stroke-width=".5" d="M425 217.9q-.9 2-3 2a3 3 0 0 1 3-2Z"/><path fill="#9fbace" fill-opacity=".5" d="M316 216c0-.6 1.2-1.6 1.7-.7q-.5.8-1.6.8m91 119c-.7.7-1.9 3.1-3 1.7.3-1.2 2-1.4 3-1.7M412 132c0 .8-1.3 1.6-1.9.7q.7-1 1.9-.8m-100 56q.4-1.2 1.6-1.6 2.5-.5.6 1.3-1 .5-2.3.3m108 33q-.5 1.3-1.6 1.9-2.5.1-.4-1.3 1-.5 2-.6m-13 40c-.4 1-1.8 3-3 1.6.3-1 2-1.3 3-1.6m18 76c0 .8-1.3 1.6-1.9.7a2 2 0 0 1 2-.6m-67 72c0 1-1.5 1.7-2 .7q.7-1 2-.7m-157 29q.3-1.2 1.6-1c1.3.7-1 1.2-1.5 1m6.1 10.1c0-.7 1.2-1.7 1.7-.8a2 2 0 0 1-1.7.8m94.7-337.9q.7-1.9 2.6-2.3c1.5 1-2.2 1.7-2.6 2.3M423 156q-.6 1-1.6 1.7-2.5.4-.6-1.3 1.1-.4 2.2-.4m-44 107c-.5.8-2 3-3 1.6.2-1.3 2-1.4 3-1.6m-24 60a4 4 0 0 1-1.6 1.6q-2.7.5-.6-1.3 1.1-.3 2.2-.3m-75 8a2.5 2.5 0 0 1 2.5-1.9c1.9 1-1.6 2.2-2.4 2m148 4.1a4 4 0 0 1-3 2c.2-1.5 1.9-1.9 3-2m-227 103q-.9 1.9-3 1.8a4 4 0 0 1 3-1.9m6.1 10a4 4 0 0 1-3.2 1.9c1-1 1.5-2.3 3.2-1.9"/><path fill="#9fbacf" fill-opacity=".2" d="M431.9 274.9q0 1.1-1.2.8zm-313 179q0 1.1-1.3.8zm22.4 7.4-1.2.8q.1-1 1.3-.8"/><path fill="none" d="M258.7 342.7q1.1.3 1.4 1.3-2.4.9-4 2.6-.9.5-1.8.2.3-1.8 1.9-2.5 1.6-.2 2.5-1.6M388.3 162q1 .2 1.7 1a8 8 0 0 1-3.1 1.4 5 5 0 0 1 1.4-2.5"/><path fill="#464c51" fill-opacity=".2" stroke="#464c51" stroke-opacity=".2" stroke-width=".5" d="M230 13q1.4-.1 2.6.4l.5.6q-.9.5-1.7.7-.8-.7-1.4-1.7Z"/><path fill="#495157" fill-opacity=".6" d="M221 4.2a6 6 0 0 1 3.3.2c-.6.3-3.4 1.3-3.3-.2"/><path fill="#2a2c2f" fill-opacity=".5" d="M298.8 257q0 .9-.8.8.2-.6.8-.8"/></svg>