<svg xmlns="http://www.w3.org/2000/svg" style="shape-rendering:geometricPrecision;text-rendering:geometricPrecision;image-rendering:optimizeQuality;fill-rule:evenodd;clip-rule:evenodd" viewBox="0 0 512 512"><path fill="#dedef8" fill-opacity=".9" stroke="#dedef8" stroke-opacity=".9" stroke-width=".5" d="M373.8 207.3c4.6-.3 10-1.2 14.5-.3v1q-1 .2-1.2 1.2-11.4 6.9-22.9 13.5c-.6.2-2.3 1.7-3 .7q6.4-8 12.6-16.1Z"/><path fill="#e1e1fa" fill-opacity=".4" d="M130.4 4.7q-2 .4-4.3.4c0-2 3.4-1.2 4.3-.4m85.8.1q-1.7.8-3.5 0c.5-1.4 3.7-.9 3.5 0m21 .2a6 6 0 0 1-3.5 0c.3-1.4 3.2-1.5 3.6 0m58.2 0q-1.8.6-3.6 0c.3-1.5 3-1.3 3.6 0m29 0a5 5 0 0 1-3.6-.1c.5-1.3 2.9-1.2 3.6 0m17.9-.1q-1.8.6-3.6.1c.5-1.4 3-1.5 3.6-.1m21 .1q-1.8.6-3.5 0 .5-1 1.7-1 1.4-.2 1.7 1m29-.4q-1.6 1-3.4.2c-.4-1.2 3-1 3.4-.2m84 .3q-1.8.8-3.6 0 .5-1 1.8-1 1.2 0 1.8 1M367.3 17q-.6.6-1.4.8.4-.9 1.5-.8m110 4-1.2.8q.2-.9 1.1-.8m12.3 3q0 1-1 .9zm1.7 7q-.6.6-1.3.8.3-1 1.3-.8m-52.6 5q.1 1-1 1zm30.4 1.3q-.6.6-1.5.6zm-158 9q-.5.6-1.4.6zm-10.8 7q-.6.7-1.6.7.6-.6 1.6-.6m113 4.8-1.2.7q.3-.8 1.3-.7m18.4 1.9q0 1-1 .9zm-25.3 2q-.6.5-1.4.8.4-.9 1.4-.7m73.8 4.2a2 2 0 0 1-1.5.8q.7-.5 1.5-.8m13.2-.2-1.5.8q.4-.8 1.5-.8m-154.5 5c-.2 1.6-3.5 2.7-5 3 .6-1.6 3.4-3 5-3m81.4 1.1q-.6.5-1.3.6.4-.7 1.3-.6m22 .2a2 2 0 0 1-1.7.7q.7-.5 1.6-.7m-4 6.8q-.6.5-1.3.7.3-.8 1.3-.8m29 2q-.4.6-1.2.7.3-.7 1.2-.7m-77.1 5.2q-.6.7-1.5.7.7-.6 1.5-.7m4.1.8q-.5.5-1.2.6.3-.7 1.2-.6m18 7a2 2 0 0 1-1.3.6q.4-.7 1.3-.7m45.9 4q-.6.9-1.5.9.7-.5 1.5-.8m32 1q-.4.6-1.2.7.3-.8 1.3-.7m-155 4q-.4.4-1.2.7.3-1 1.3-.6m25.8 1.2c.2.9-.7.5-1.2.5zm26.1 2q-.4.7-1.5.6.8-.5 1.5-.7m27 1a2 2 0 0 1-1.5.7q.7-.6 1.5-.7m50.2 6.8q-.6.5-1.3.7.3-.9 1.3-.7m-37.2 3.2q-.4.8-1.3.5zm2.1.8q-.4.5-1.2.5c-.4-.8.9-.4 1.2-.5m-32.9 4a2 2 0 0 1-1.4.6q.6-.7 1.4-.6m94.7-.1c.4 1.5-2.1 1.5-3 2-.1-1.6 1.9-1.9 3-2m-113.8 8.2q-.6.7-1.6.7.7-.6 1.6-.7M444 138c-.2 1.4-2 1.5-3 2q.6-2.3 3-2m-24.7 2-1.2.7q.3-.9 1.2-.7m-35.2 3.8q-.7 1.4-2.1 1a2 2 0 0 1 2-1m99.1 5.3q-.6.8-1.6.8.7-.7 1.6-.8m3.2 2.8-1.5.8q.4-.9 1.5-.8m10.8 11-.3 1-1-.3q.4-.7 1.3-.7m-251.3 2q-.6 1.3-2 1 .7-1.3 2-1m235.3 1.3a2 2 0 0 1-1.5.7q.7-.6 1.5-.7m-21 .7q-.3.6-1 .8 0-.9 1-.8m11.2 11q-.5.6-1.2.8 0-1 1.2-.8m10.6 5q0 .5-.5 1a8 8 0 0 1-4.6 1.9c0-1 4.2-3 5.1-3M426.1 200q-.5.7-1.5.7zm55 8a2 2 0 0 1-1.5.8 3 3 0 0 1 1.5-.8m7.2.9-1.3.7q.2-1 1.3-.7m-19 11-1.2.7q.2-.9 1.1-.7m-9.7 1q0 1-1.1.9zm-12.6 8.1q-.4.8-1.4.8.8-.6 1.5-.8m-29.8 21q-.6.4-1.3.5.4-.7 1.3-.6m78.5 14.8q0 1-1.2 1zm-10.6 7.2a2 2 0 0 1-1.4.8q.5-.5 1.4-.8M372 276.1a2 2 0 0 1-2 1q.6-1.3 2-1m115.3 1q-.6.4-1.4.6.5-.7 1.4-.6m-16.7 4q.1 1-1 .9zm-10.6 7.1q-.4.9-1.3.8.5-.6 1.3-.8m1.3 3.8q-.5.6-1.3.8.3-1 1.3-.8m-26.2 12.3q-.6.6-1.5.7.7-.5 1.5-.7M397 328.9q-.6 1.4-2 1 .7-1 2-1"/><path fill="#c0c3e1" fill-opacity=".9" d="M110.9 159.9q-7.3 5.7-15 10.8a22 22 0 0 1-10.9 8q-.6-2.7-.3-5.7c4.1-1.7 18.6-9.8 23-12.7q1.6-.7 3.2-1z"/><path fill="#e1e1f9" fill-opacity=".3" d="M471 16q-.3 1-1.2.8.4-.5 1.2-.8m-8 5q-.3 1-1.2.8zm-260 1q-.9 1.8-3 2 .9-1.9 3-2m267.3 3.4-1.3.8q.3-1 1.3-.9M455 26q-.1 1-1.2.8zm-8 5q-.3 1.1-1.2.7zm-117 3q-.3 1-1.3.7zm154.3 1.3q-.6.5-1.2.7 0-1.1 1.2-.7m-33 1-1.3.8q.2-1 1.3-.8M365 40.9q-.9 2-3 2.1.7-2 3-2m66 .1q-.3 1-1.2.8.4-.5 1.2-.8m-8 5q-.3 1-1.2.8zm-8 5q-.3 1-1.2.8.4-.5 1.2-.8m-8 5q-.3 1.1-1.3.7zm-110.7 2.3-1.3.7q.3-.9 1.3-.7M399 61q-.1 1-1.2.8zm-178 1q-.9 2-3 2 .8-2 3-2m68.3.3-1.3.7q.3-1.1 1.3-.7M455 64q-.2 1.1-1.3.7zm-64 2q-.3 1-1.3.7zm8.3.3-1.3.8q.3-1 1.3-.8M383 71q-.3 1-1.3.7zm-8 5q-.1 1.1-1.3.7zm-8 5q-.2 1-1.2.7zm-8 5q-.3 1-1.2.8zm-8 5q-.2 1-1.2.8.4-.5 1.2-.8m84 3q-.3 1-1.3.7zm-92 2q-.3 1-1.2.8.4-.5 1.2-.8m143 0q-.3 1.1-1.3.7zm-86 2q-.3 1.1-1.3.7zm5.3.3q-.6.5-1.3.7.3-1 1.3-.7M335 101q-.1 1.1-1.3.7zm138 3q-.1 1.1-1.2.7zm-13 8q-.3 1-1.2.8zm-2.7 6.3-1.3.8q.3-1 1.3-.8M447 120q-.3 1-1.2.8zm-57.7 6.3-1.3.8q.3-1 1.3-.8M434 128q-.3 1-1.2.8zm-13 8q-.2 1-1.2.8zm-60 4q-.3 1-1.3.7zm47 4q-.1 1.1-1.3.7zm-13 8q-.1 1.1-1.3.7zm95.3 15.3q-.6.5-1.3.7.3-1 1.3-.7M431 181q-.3 1-1.3.7zm21 3q-.3 1-1.2.8zm42 16q-.1 1.1-1.3.7zm-12.7 13.3-1.2.7q0-1.1 1.2-.7M346.1 250a8 8 0 0 1 4.5-3.1c1.5.8-3.4 3.5-4.5 3m71.9-3q-.3 1.1-1.3.7zm46 13c-1 1.6-3.1 3-5 3q2-2.6 5-3m-39 10c-.5 1.3-5.6 4.4-7 4 .7-1.3 5.5-4.3 7-4m21 27q-.1 1.1-1.3.7zm-25 16q-.2 1-1.2.8zm23 3q-.5 1.3-2 1c0-1.1 1.3-1.1 2-1m-44 11a4 4 0 0 1-3 2 4 4 0 0 1 3-2m84.7 71 .3 1.3c-.7.6-2 2.2-2.9 1.4q1-1.7 2.6-2.6"/><path fill="#e1e1f9" fill-opacity=".4" d="M185.4 5q-1.8.5-3.8 0c.4-1.5 3.2-1.4 3.8 0m68.9 0a6 6 0 0 1-3.2.3c-.2-2 2.6-1.7 3.2-.4M97.2 5l-.3 1.2-1.1-.2q.3-1 1.4-1m244.2 27-1.3.7q.3-.7 1.3-.6m20.5 11q-.5 1.2-2 1 .8-1.2 2-1m-46.7 4q-.4.7-1.2.8.3-.8 1.2-.8m110.1 4q-.4.6-1.2.7.2-.9 1.2-.7m50.4.1q0 1-1 .8zm-36 4q0 1-1 .9zm-.3 6q-.6.6-1.4.6.5-.7 1.4-.6m17.9 7q-.6.6-1.3.5.4-.6 1.3-.5m14.4 2.9q0 1-1 1zm-60.9 2q0 1-1.2.9zm9.9 12q0 1.1-1 1zm55 2q0 1-1 1zm-33 2.1q0 1-1 .8zm-60.8 2q-.1 1-1.2.8.4-.5 1.2-.8m-27.6 1q-.4.5-1.2.6.3-.7 1.2-.7m120 0-1.1.7q.1-.9 1-.8m-33 3.9a2 2 0 0 1-1.3.8q.3-1 1.2-.8m-73 6-1 .8q0-.8 1-.8m115 1a2 2 0 0 1-1.2.8q.2-1 1.3-.8m-38.6 3q0 1-1 1zm3.6 1q-.4.7-1.3.7.4-.7 1.3-.7m-62 2-1.2.8q.2-1 1.2-.8m29 2a2 2 0 0 1-1.3.8q.4-.8 1.4-.8m-9.6 1q.1 1-1 1zm87.2 20c0 1.5-3.8 3-5 3 .3-1.2 3.8-2.8 5-3m-124.1 3q0 1.1-1.2 1zm18.2 7c0 1.5-1.9 1.5-3 2q.8-2 3-2m25.4 2.1q-.6.4-1.3.6.3-.7 1.3-.6m-166.5 2c-.4 1.5-3.4 2.9-5 3 .4-1.7 3.4-3 5-3m223.8 11q0 1-1 .8zm24 1q.1 1-1 .9zm-168.8 5q-.5 1-1.8 1 .5-1.3 1.8-1m-81 2.8c0 1.6-1.7 1.6-2.8 2.1 0-1.6 1.6-1.9 2.8-2m194.9 26.2q0 1-1.1.9zm6.6 1-1.5.6q.4-.8 1.5-.7m-188.5.8c0 1.6-1.8 1.7-3 2q.8-1.9 3-2m151.3 3.1q-.4.8-1.3.6.4-.7 1.3-.6m-8.4 3.2.1 1-1.1-.5zm19.6 7.8q-.6.8-1.5 1 .3-1 1.5-1m16.9 31q-.4.7-1.2.7.3-.7 1.2-.6M219 250q-.6 1.2-2 1 .7-1.2 2-1m251 19c-.3 1.6-3.6 2.8-5 3a6 6 0 0 1 3-2.6q1-.4 2-.4m-34.8 38q-.5.6-1.1.7.3-.7 1.1-.7m-.1 46c-.2 1.4-4 3-5 3 0-1.1 3.8-3.3 5-3m35 11.8c-.1 1.3-4.3 4-5 2.9a9 9 0 0 1 5-3"/><path fill="#e1e1f9" fill-opacity=".5" d="M154.3 4.9q-1.8.7-3.6.1c.4-1.4 3-1.4 3.6-.1M474 14.3q-.1.8-1.2.7zm-8 4.9q-.2.7-1.2.7zm-16 10.1q-.3.8-1.2.6.5-.4 1.2-.6m-16 10q-.3.7-1.2.7zm58.1 1.9q-.3.8-1.3.8.6-.6 1.3-.8M426 44.3q-.3.9-1.3.7zM357 46c-.3.7-1.5 1.7-2.1.7q.8-1 2-.7m60.8 3.3q-.3.7-1.2.7.4-.6 1.2-.7m-107.5.7q-.6.6-1.3.7.4-.7 1.3-.7m99.4 4.3q-.2.9-1 .7zm-15.9 10q-.3.7-1.2.6zm-7.9 5q-.5.7-1.4.7.6-.5 1.4-.8m-8.1 5q-.3.9-1.3.7.6-.5 1.3-.7m-8 5q-.3.9-1.2.7zm-8 4.9q-.3.8-1.2.7.5-.5 1.2-.7m-8 5.1q-.3.8-1.2.7.4-.5 1.2-.7m-8 5q-.3.8-1.2.6zm-8 4.9q-.2.9-1.2.7zm140.5 6.8q-.6.5-1.3.8.3-.9 1.3-.8m-96.5 3.2q-.2.8-1.1.8.4-.5 1-.8m28.5 4.8-1.3.8q.3-.8 1.3-.8M173 123c.2-1.2 4.1-3.8 5-2.7a8 8 0 0 1-5 2.8m313 2q.1.6-.4 1c-1.6.3-3.2 2.3-4.6 2q0-.7.4-1c1.7-.5 2.8-2.4 4.6-2m5 19.2q-.3.9-1.2.8.4-.6 1.2-.8m-109 .7c-.1 1.6-2 1.5-3 2q.6-2.2 3-2m-133 18.2c.3 1.4-2.2 1.5-3 2-.3-1.5 1.9-2 3-2m226.9 48.1q-.3 1-1.3.7zm-44.6 31-1.2.5q.3-.7 1.2-.6M222 248q.5-1 1.6-1c1 .7-1.1 1.1-1.6 1m183.3 9q-.5.6-1.2.7c-.3-.8.7-.5 1.2-.6m82.7 13.2q-.3.9-1.3.8zm-28 4.7c-.2.7-1.2 1.7-1.8.8a2 2 0 0 1 1.8-.8m22.3 5.2q-.6.4-1.4.6.6-.7 1.4-.6m-19.3 6.2q-.3.8-1.2.7.4-.6 1.2-.7M395 387c0-1.3 2-2 3-1.4 0 1.5-1.9 1.5-3 1.4m37 22.1q.2-2.3 2.5-2c1.5 1-2 1.7-2.5 2"/><path fill="#e1e1f8" fill-opacity=".4" d="M120.2 21.8c-.4.8-2 2.9-3 1.8q1-1.6 3-1.9M465.3 28a2 2 0 0 1-1.3.6q.4-.7 1.3-.6m14 10-1.3.6q.4-.7 1.3-.6M360 43.9a4 4 0 0 1-2.8 2 3 3 0 0 1 2.8-2m137.3 1L497 46l-.7-.2q0-1 1-1M470.8 54q-.2 1-1.2.8zM281.2 65.3l-.4.8h-1q.6-.6 1.4-.8m3-.3q-.4.5-1.2.8.1-1 1.3-.8m110 4.1-1.1.7q.2-.9 1.1-.7m87.2 4q-.6.6-1.4.6.4-.7 1.4-.6M467 74.3q-.3.7-1.2.7.4-.6 1.2-.7m-60.9 2q-.3.7-1.2.7.4-.6 1.2-.8m2.4 2.7q-.6.5-1.4.7.5-.7 1.4-.7m75.6 3.4q-.5.6-1.4.6.6-.6 1.4-.6m4.3 1.6-1.2.8q.3-1 1.2-.8m-62 2-1.3.8q.3-.8 1.2-.8M416 88.2q-.3 1-1.3.8.6-.5 1.3-.8m-39.2 6.1q-.3.7-1.2.7.6-.6 1.2-.7m5.5-.3q-.6.5-1.3.8.3-.8 1.3-.8m18 7q-.4.6-1.2.6.3-.7 1.1-.6m52.6.3q-.3.7-1.2.7.5-.6 1.3-.7m-.6 19.8-1.2.6q.3-.7 1.2-.6m-35 4q-.6.5-1.4.7.3-1 1.5-.8m-33 4q-.6.5-1.3.6.4-.7 1.3-.6m93.7 23.2q-.3.7-1.2.7a2 2 0 0 1 1.2-.7m10.9 8.9q-.2.9-1.2.7.5-.5 1.2-.7M323.1 164a4 4 0 0 1-3.2 2q.9-2.3 3.2-2m162.3 6-1.3.8q.2-1 1.3-.8m-26.1 15q-.5.6-1.3.7.4-.8 1.3-.7m-38.3 2.2q-.3 1-1.3.8.6-.6 1.3-.8m55.3 28.9-1.4.7q.6-.8 1.4-.7m-55.2 29.2q-.5.6-1.4.6.7-.5 1.4-.6M341 253c.1.9-1.2 1.6-1.7.7q.6-.9 1.7-.7m124 19c-.8 1.5-3.1 3.2-4.9 3 1-1.5 3.3-3 5-3m-49.8 4c-.4.7-1.4 1.6-2 .6q.8-1 2-.5m60.3 8.1-1.3.7q.3-.9 1.3-.7m-26 15-1.4.6q.5-.7 1.4-.6m-11.4 3.2q-.5.8-1.4.6.6-.4 1.4-.6m4 14.6q-.7 2.2-3 2 1-1.5 3-2m-.9 50c-.4.9-2 2.8-3 1.7.2-1.2 2-1.4 3-1.7"/><path fill="#dcdcf2" fill-opacity=".2" d="M386.6 27q.4 1 1.5 1.4-8 4.5-16 9.3-1 .4-2 .2 0-.7.9-1.2 8-4.5 15.6-9.7M480 249.7q.4 0 .8.3.1.6-.2 1l-14.6 8.6q-1 .4-2 .4.3-.8 1-1.3z"/><path fill="#e1e1f8" fill-opacity=".3" d="M314 31a2 2 0 0 1-2 1q.6-1.3 2-1m20.3 5.3q-.6.5-1.2.7 0-1 1.2-.7m35.7 1.6q0 1-1 1.5a6 6 0 0 1-4 1.5q2-2.4 5-3m74.3 2.4q-.6.5-1.3.7.3-1.1 1.3-.7M319 41q-.3 1-1.2.8.4-.5 1.2-.8m-171.8.9c-.4.8-2.2 3-3 1.8a3 3 0 0 1 3-1.8m161.1 9.4-1.2.8q0-1.2 1.2-.8m110 4q-.6.5-1.3.7.3-1 1.3-.7m14 10q-.6.5-1.3.7.3-1.1 1.3-.7m54 5-1.3.8q.3-1 1.3-.8m-62 17q-.6.5-1.2.7.2-1 1.2-.7M152 96c.1 1.2-1.4 1.1-2.2 1.1a2 2 0 0 1 2.2-1m195.3.3q-.6.5-1.3.7.3-1.1 1.3-.7M427 99q-.3 1-1.2.8zm49.3 8.3-1.3.7q.3-1 1.3-.7m-35 4q-.6.5-1.3.7.3-1.1 1.3-.7M432 114q0 1.1-1.2.7zm-80.8 15c-.7 1.5-5.5 4.3-7 4 .5-1.3 5.5-4.3 7-4m97.9 6c-.6 1.4-3.6 3.2-5 3 .3-1.4 3.6-2.8 5-3m-85.7 6.3-1.2.7q0-1.1 1.2-.7M488 146q-.3 1-1.3.8zm-8.7 10.3-1.3.8q.3-1 1.3-.8m-45 26-1.3.8q.2-1.1 1.3-.8m30 0-1.2.7q0-1.1 1.2-.7m-61 76-1.3.7q.1-1.2 1.3-.7M482 274q0 1.1-1.1.7zm-1.6 7.3-1.3.8q.2-1.1 1.3-.8m-9.6 150q0-1 .9-1.1c1 .4-.6 1-.9 1"/><path fill="#e1e1f9" fill-opacity=".4" d="M355.2 18.2q-.6.7-1.6.7.7-.5 1.6-.7M485 27.3q-.4.8-1.3.6.6-.5 1.3-.6M309 34c-.2.7-1.3 1.6-2 .7q.9-1 2-.7m20.4 5.1-1.5.6q.5-.7 1.5-.6m109.8 4-1.1.7q.3-.9 1.1-.7m16.8 2.1q-.3 1-1.4.8zm-2.7 7.9-1.3.7q.4-.8 1.3-.7m42.8 3.1q-.5.9-1.4.8.6-.6 1.4-.8m-127.7 28q-.6.5-1.4.5.5-.7 1.4-.6M152 96q.5-2.1 2.6-2c1.5.9-2 1.8-2.6 2m345.2-1-.4 1.1-.7-.2q.1-1 1.1-1m-35 4q-.5.6-1.2.8.3-.7 1.2-.7m-32.9 4.2q-.6.6-1.4.7.5-.7 1.4-.7m-73 6q-.6.5-1.3.7.3-1 1.3-.7m18 7-1.1.7q0-1 1-.6m18.7 4.2q-.4.8-1.3.6.6-.4 1.3-.6m29-.1q-.2 1-1.2.7.5-.5 1.1-.7m63 16.8c0 1-1.3 1-2 1q.6-1.2 2-1m-126.8 7-1 .8q0-.9 1-.7m42 7q-.4.6-1.2.7c-.2-.9 1-.5 1.3-.6m64.7 9.3q-.3.7-1.2.7zM241 186q-.5 1.3-2.1 1 .6-1.3 2-1m234 1c.4 1.7-2 1.8-3 2-.3-1.4 2-1.9 3-2m-52.8 2q-.6.6-1.3.7.4-.7 1.3-.7m11 11-1.2.8q.2-.9 1.2-.8m55.7 3.2q-.4.7-1.3.7zM450.3 231l-1.4.7q.5-.8 1.4-.7M346 250c-1 1.5-3.3 3.2-5.2 3q2-2.5 5.2-3m54.2 8.2q-.6.9-1.6.7.6-.6 1.6-.7M459 263c-.9 1.5-3.2 3.3-5 3q2-2.4 5-3m-35.7 51-1.2.8q.2-.9 1.2-.7"/><path fill="#dfdffb" fill-opacity=".2" d="m365.3 18.3-1.2.8q0-1.2 1.2-.8m110 4-1.2.8q.2-1 1.2-.8m14 10-1.2.8q.2-1 1.2-.8M327 35.9q0 1.1-1.2.8zm139 3q0 1-1.2.8zm28 1q0 1.1-1.2.8zm-57 17q-.2 1-1.2.8zm-33 1q0 1-1.2.8zm.4 5.4-1.2.8q0-1.1 1.2-.8m87 4-1.2.8q.2-1 1.2-.8m-73 6-1.2.8q.2-1 1.2-.8m20.6.6q0 1.2-1.2.8zm-31 1q-.2 1-1.2.8zm28.4 5.4-1.2.8q0-1.1 1.2-.8m49.6.6q0 1-1.2.8zm-46 10q-.2 1-1.2.8zm-29.6 4.4-1.2.8q.2-1 1.2-.8m44.6 4.6q0 1-1.2.8zm-71 8q0 1.1-1.2.8zm19 6q0 1.2-1.2.8zm24.4 5.4-1.2.7q0-1.1 1.2-.7m-33 4-1.2.8q0-1 1.2-.8M463 126l.1 1.3c-1.6 1.2-4.9 3.8-7 3.8.6-2.1 5.3-3.7 7-5.1m21.4 27.3-1.2.8q0-1.2 1.2-.8m11 11-1.2.8q0-1.2 1.2-.8M457 180.9q-.2 1-1.2.8zm-34 5q0 1-1.2.8zm-13 8q0 1.2-1.2.8.6-.5 1.2-.7m-163 6q-.3 1.5-1.8 2l-.2-1q.8-1.1 2-1m231 10q-.3 1-1.3.8zm8.3.4-1.2.8q0-1.2 1.2-.8M423 243.9q0 1-1.2.8zm-7.6 7.4-1.2.8q0-1.1 1.2-.8m63.6 24.6q0 1.1-1.2.8zm6.4 2.4-1.2.8q.2-1 1.2-.8M454 291.9q0 1.1-1.2.8zm-25 16q0 1-1.2.8z"/><path fill="#e1e1fa" fill-opacity=".2" d="M231 28.8a7 7 0 0 1-5 3.3c.7-1.8 3.3-3.1 5-3.3m199.3 19.5-1.2.8q.2-1 1.2-.8M477 67.9q-.2 1-1.2.8zM359.3 89.3l-1.2.8q.2-1 1.2-.8m94 15-1.2.8q.2-1 1.2-.8M339.8 117l.4 1.3q-.9 1-2.2.8.5-1.5 1.8-2m18 7 .3 1.1a27 27 0 0 1-5 3.4q-1 .6-2 .4c.7-1.9 5-3.7 6.7-4.8m16.1 8q0 1-1.2.7zm-133 17c-1 1.5-3 3.2-4.8 3 .7-1.7 3.1-3 4.9-3m182 53q-.2 1-1.2.7zm1.4 3.3-1.2.8q.2-1 1.2-.8m-35.6 59.9.4 1c-.3 1-6 3.6-7 4.5q-1 .4-2 .3 0-.8.9-1.3z"/><path fill="#e3e3fa" fill-opacity=".2" d="M476 12.9q-.3 1-1.3.8zm-8.1 5q0 1-1.2.8zm-8 5q0 1-1.2.8zm-8 5q-.2 1-1.2.8zm-112.5 5.4-1.3.8q.1-1 1.3-.8m104.5-.4q-.2 1-1.2.8zm-8 5q0 1-1.2.8zm-120 5q0 1.2-1.2.8zm112 0q0 1-1.2.8zm35.4 4.4-1.2.8q0-1.1 1.2-.8m-43.4.6q-.2 1-1.2.8zm-115 2q-.1 1-1.2.8zm107 3q0 1.1-1.2.8zm61 0q0 1.1-1.2.8zm8.4 1.4-1.2.8q0-1 1.2-.8m-37 4-1.2.8q0-1 1.2-.8M396 62.9q0 1.1-1.2.8zm-8 5q0 1-1.2.8zm-8 5q-.2 1-1.2.8zm89 0q0 1-1.2.8zm-97 5q0 1.2-1.2.8zm6.4.4-1.2.8q0-1 1.2-.8m87 4-1.2.8q.1-1 1.3-.8m-101.4.6q0 1-1.2.8zm54 4q0 1.2-1.2.8zm-62 1q0 1.2-1.2.8zm36.5.4-1.3.8q0-1 1.3-.8m-44.5 4.6q-.2 1-1.2.8zm31 0q0 1.1-1.2.8zm93.5.4-1.3.8q.1-1 1.3-.8m-132.5 4.6q0 1.1-1.2.8zm26.5 5.4-1.3.8q0-1.1 1.3-.8m18 7-1.3.8q0-1.1 1.3-.8m39.5 8.7q0 1.2-1.2.7.5-.5 1.2-.7m12.4 11.3-1.2.8q0-1 1.2-.8m-70.4 6.6q-.2 1-1.2.8zm52 1q-.1 1-1.2.8zm-.6 3.4-1.2.8q0-1.2 1.2-.8m-59.4.7q0 1.2-1.2.7.5-.5 1.2-.7m122 9q0 1-1.2.7zm11 9q0 1.1-1.2.7zm-32.5 8.3-1.3.8q.1-1.2 1.3-.8m11 11-1.3.8q.2-1 1.2-.8m-56 15q-.6.5-1.3.7 0-1.2 1.3-.7m22.5-.4q0 1.2-1.2.8zm21 29q0 1-1.2.8zm3.5 2.4-1.3.8q0-1.2 1.3-.8m-1 68-1.3.8q.2-1 1.2-.8m-26 15-1.3.8q.2-1 1.3-.8"/><path fill="#c6c6da" fill-opacity=".2" d="M413.8 125.4q.1 1 1.3 1l-12.9 7.4v-1q.5-.9 1.4-1.5 5-3.2 10.2-6m50 79.9q0 1 1 1.3-1.8 1.2-3.9 2l-8.6 5.4-.3-1.2.5-.8z"/><path fill="#e0e0fa" fill-opacity=".3" d="M115.9 53q-.9 2-3 2.1a3 3 0 0 1 3-2M456 131a8 8 0 0 1-5 3 6 6 0 0 1 5-3m-5.2 82 .4 1q-5 3.4-10.3 6.4a4 4 0 0 1-2 .3q.4-.8 1-1.1 5.6-3.2 11-6.6m24.3 53q-1.7 2.8-5 3c.9-1.6 3.1-3 5-3m-70 57.7c-.7 1.9-3.2 3.3-5 3.2a8 8 0 0 1 5-3.2"/><path fill="#cacce8" d="M84.7 163v-3c3.4-.4 15.9-8.8 19.8-10.8q1.3-1 2.9-1.1c.6.7-.6 1.3-1 1.7z"/><path fill="#e2e2fa" fill-opacity=".4" d="m374.3 13-1.3.7q.4-.7 1.3-.7m110 4.1-1.3.6q.4-.6 1.3-.6M200 24c-.1.8-1.3 1.6-2 .7q.8-1 2-.7m144.2 1.2q-.6.8-1.6.8.7-.6 1.6-.8m128.1 17-1.3.5q.4-.7 1.3-.6M303.3 54q-.6.5-1.3.6.6-.7 1.3-.6m171 23-1.3.7q.4-.7 1.3-.7m-15.2 2.2q-.5.7-1.4.7.6-.6 1.4-.7m-30 1q-.5.6-1.4.7.6-.6 1.5-.7m-31.1 1q-.3.8-1.2.7zm3.4 1.7a2 2 0 0 1-1.3.7q.3-.8 1.3-.7m18 7-1.5.7q.6-.7 1.4-.7m51.6.3q-.3.7-1.3.7.6-.6 1.3-.7m23 1q-.3.8-1.4.7.6-.5 1.4-.8M342.3 99l-1.2.7q.3-.8 1.2-.7m26.7 0q-.3 1-1.3.8.6-.5 1.3-.7m112.1.2q-.4.7-1.3.6.6-.5 1.3-.6m-59.2 3q-.3.8-1.2.7zm46 5q-.3.7-1.2.7zm-28 2q-.3.8-1.2.6zm31.4.7q-.6.6-1.3.7.3-.8 1.2-.7m-97 4.2q-.6.9-1.6.7zm29 3.8q-.5.6-1.3.7.5-.8 1.4-.7m38.8 5.3q-.4.8-1.5.7.7-.6 1.5-.7m3.2 1.8q-.5.4-1.2.6.3-.7 1.2-.6m-16.2 6.1q-.5.9-1.4.7.6-.5 1.4-.7m-73.2 12q-.1.8-1.2.7zm47 4q-.3.9-1.3.7.6-.4 1.4-.6m90.4.8-1.3.7q.3-.8 1.3-.7m-26 15.1q-.5.4-1.3.6.6-.7 1.4-.6m-15.3 5.2q-.3.7-1.2.7.4-.6 1.2-.7m16 6q-.3.7-1.2.7.5-.6 1.3-.8m10.4-.2-1.5.7q.5-.8 1.5-.7m-234.7 27 .2 1-1.2-.4zm251.7 3.9q-.6.5-1.4.7.4-.8 1.4-.7m-27.2 11.3q-.6.7-1.6.7.7-.5 1.6-.7m-34.2 21q-.3.8-1.2.7a2 2 0 0 1 1.2-.7m60.3 35.7q-.5.6-1.3.8.4-.9 1.3-.8m-20.2 6.3q-.5.8-1.4.6zm-5.7 8.7q-.7.6-1.5.7.5-.7 1.5-.7m-19.2 7.3q-.6.6-1.6.6.7-.4 1.6-.6m-25 15.9q-.6.9-1.6.7z"/><path fill="#a0a6bd" fill-opacity=".2" d="M38.9 411c.1 1-1.8 1.7-2.3 2.3q-9.9 5.9-19.5 12.2-.9.6-1.8.1-.3-.6-.3-1.4l20-11.5q1.8-1.2 3.9-1.6"/><path fill="#e0e0f9" fill-opacity=".4" d="M427 63.4q-.3.6-1.3.5zm23.1 4q-.5.6-1.4.6.6-.6 1.4-.7m-22.8.7q-.6.4-1.4.6.6-.7 1.4-.6M395 101.3q-.4.8-1.3.6.6-.4 1.3-.6m41.3 12.8q-.6.6-1.4.7.5-.7 1.4-.7M341 135q-.4 1.3-1.9 1 .6-1.2 1.9-1m147 0a4 4 0 0 1-3 2q1-2 3-2m-314 27q-1.2 2.1-3.6 2.7c-1.4-1.3 2.6-2.7 3.6-2.7m191 9c-.5 1.5-5.5 4-7 4 .5-1.2 5.7-4.1 7-4m-126 16a8 8 0 0 1-5 3c.7-1.6 3.3-2.9 5-3m185.3 59-1.3.8q.4-.9 1.3-.8m-6.4 28q-.7 1.9-2.8 2 .7-1.9 2.8-2m24 58q-.3 1.6-1.7.7.6-.9 1.8-.7"/><path fill="#e2e2fa" fill-opacity=".2" d="M217.3 14.3q-.6.5-1.2.7 0-1.2 1.2-.7M349 22q-.2 1-1.2.8zm-11 7q0 1-1.2.8zm8.4.4-1.2.8q.2-1 1.2-.8m-26 15-1.2.8q0-1.1 1.2-.8M460 60.9q0 1.1-1.2.8zm2.4 4.4-1.2.8q0-1.1 1.2-.8m17 24-1.2.8q.2-1 1.2-.8m-33 4-1.2.8q0-1.1 1.2-.8M405 94.9q-.2 1-1.2.8zm-31.6 4.4-1.2.8q.2-1 1.2-.8m115 1-1.2.8q0-1.1 1.2-.8M358 106q0 1.2-1.2.7zm62.4 2.3-1.2.8q0-1.1 1.2-.8m16.6 2.6q-.2 1-1.2.8zm14.1 23.2q-.6 1.1-2 .9.5-1.3 2-1m42 8.8q-.3 1-1.3.8zM348 149l1.2.5-1 .4zm27.1 15.8a7 7 0 0 1-5 3.1c.6-1.6 3.3-3 5-3.1m103 3q-.3 1-1.3.8zm-42 10q-.3 1-1.3.8zm3.3 1.4-1.2.8q0-1.1 1.2-.8m11 11-1.2.7q.2-1 1.2-.7m-6.4 40.6q0 1.2-1.2.8zm-2.6 5.4-1.2.8q0-1 1.2-.8M430 267a7 7 0 0 1-4.8 3c.7-1.7 3-3 4.8-3m10.4 37.3-1.2.8q0-1.2 1.2-.8"/><path fill="#d5d5ed" fill-opacity=".2" d="M167.9 126.2q-.6 1-1.5 1.6l-8 5a2 2 0 0 0-1.6-1l9.2-5.3a3 3 0 0 1 1.9-.3m177 23.8v1.3q-.6 1-1.5 1.5l-8.3 5a4 4 0 0 1-2.1.1q.2-.8 1-1.2z"/><path fill="#e0e0f7" fill-opacity=".3" d="m372.3 14.3-1.2.8q0-1.2 1.2-.8m110 4q-.6.5-1.2.7 0-1.1 1.2-.7m-155 22-1.2.8q0-1 1.2-.8m143 3-1.2.8q0-1 1.2-.8m10.6 4.6q0 1.1-1.2.8zm-179.6 7.4-1.2.8q.2-1 1.2-.8m110 4-1.2.8q0-1.1 1.2-.8m61 19-1.2.8q.2-1 1.2-.8M426 81.9q-.2 1-1.2.8zm-26.6 2.4-1.2.8q0-1.1 1.2-.8m48.6 1.6q0 1-1.2.8zm-30.6 5.4-1.2.8q0-1 1.2-.8m50.7.7q-.3 1-1.3.7zm23 1q-.3 1-1.3.7zm-13 8q-.3 1-1.3.7zm-13 8q-.3 1.1-1.3.7zm4.3 2.3-1.2.8q.2-1 1.2-.8m-35 4-1.2.8q0-1 1.2-.8m-63.5.7v1.3l-1.1-.6zm81.1 1q0 1.1-1.2.7zm-50.6 2.3-1.2.8q0-1.2 1.2-.8m37.6 5.6q0 1-1.2.8zm4.4 1.4-1.2.8q0-1.1 1.2-.8m-17.4 6.6q0 1-1.2.8zm-26 16q0 1.2-1.2.8zm65.4 15.4-1.2.8q0-1.2 1.2-.8M449 170q-.3 1-1.3.8zm27.3 5.3q-.6.5-1.2.7 0-1.1 1.2-.7M444 189q0 1-1.2.7zm49.4 17.3q-.6.5-1.2.7.2-1 1.2-.7M465 217.9q-.2 1-1.2.8zm-42.6 29.4-1.2.8q.2-1 1.2-.8M410 252q0 1.1-1.2.7zm58 31q0 1.1-1.2.7zm-1.6 6.3-1.2.8q0-1 1.2-.8m-23.4 9.6q0 1-1.2.8zm-25 16q0 1.3-1.2.8z"/><path fill="#e0e0fa" fill-opacity=".2" d="M486.9 26q0 1.1-1.2.7zm-37.6 11.3-1.2.8q0-1.1 1.2-.8M458 44q0 1-1.2.8zm-144.5 4.4-1.3.8q0-1.2 1.3-.8m110 4-1.3.8q0-1 1.3-.8M293.9 57q0 1.1-1.2.8zm135 5q0 1-1.2.8zm8.4.4-1.2.8q.2-1 1.2-.8m14.6 3.6q-.2 1-1.2.8.5-.5 1.2-.8m-40.5 11.5-1.3.7q.3-1.1 1.3-.7M399.9 80q-.2 1-1.2.8zm29.5 4.4-1.3.8q.1-1.1 1.3-.8m43.5 4.6q-.2 1-1.2.8zm-120.5 4.4-1.3.8q0-1.1 1.3-.8m44.5 6.6q-.2 1-1.2.8zm84.5 4.4-1.3.8q0-1.1 1.3-.8m-39.5 3.6q-.1 1.2-1.3.8zm4.5.4-1.3.8q0-1.1 1.3-.8m-33 4-1.3.8q.1-1 1.3-.8m-18.5 6.6q-.1 1-1.2.8zm-26.6 19.4-1.2.8q0-1.2 1.2-.8M236.1 152q-.7 1.3-2 2l-.1-1.2a2 2 0 0 1 2-.8m241.3 5.3-1.3.8q.1-1 1.3-.8m-23.5 9.6q0 1-1.2.8zm16 6q-.2 1-1.2.8zm-37.6 10.4-1.2.8q0-1 1.2-.8m11 11-1.2.8q.2-1 1.2-.8M224 196.1q-.6 1.2-1.7 2l-.2-1.2c-.1-1 1.3-1 2-.8m266.9 5.8q-.2 1-1.2.8zm-55 34q0 1.2-1.2.8.5-.5 1.2-.8m-27.6 19.4q-.5.5-1.2.7 0-1.2 1.2-.7M490 269q0 1-1.2.8zm-25 16q-.1 1-1.2.8.5-.5 1.2-.8"/><path fill="#bfc2e0" fill-opacity=".4" d="M45.8 177.1c.4-.8 2.2-2.9 3-1.7a4 4 0 0 1-3 1.7m1.2 75q-2 2.5-5.2 3.6v-.8A8 8 0 0 1 47 252m-7 117.8c-.4 1.5-3.6 3-5.1 3.1.8-1.3 3.6-3.2 5.2-3m6 37.2a2 2 0 0 1-2 .8q.5-1.2 2-.8m1 22.9c-.4 1.6-3.5 2.7-5 3 .7-1.7 3.2-3 5-3m145 64c-.4 1.3-3.5 2.9-4.7 3.2-1.3-1 3.5-3.5 4.6-3.2m203.3 4-.4 1-1 .2q.2-1.2 1.4-1.2"/><path fill="#e1e1f9" fill-opacity=".5" d="m80.3 15.2-.2 1-1.4-.2q.7-.8 1.6-.8M439 141c-.7 1.2-3.6 3.2-5 3 .4-1.2 3.6-3.2 5-3m-188 2a8 8 0 0 1-5.1 3c1-1.4 3.3-3.3 5-3m128 4c.1 1-1.5 1.6-2.1.6a2 2 0 0 1 2.1-.7m-59 19c-.2.7-1.4 1.6-2 .7q.6-1 2-.8m-58 25q-.9 1.8-3 2a3 3 0 0 1 3-2m192 75a4 4 0 0 1-3 2q.9-2 3-2m-84 11a4 4 0 0 1-3 2q.7-2.2 3-2M452 413.2q.6-2 2.5-2c1.4.9-2 1.6-2.5 2"/><path fill="#aeaebf" fill-opacity=".8" d="M181.6 5q2 .4 3.8 0 1.2-.2 1.9.9h-7.6q.5-1.1 2-.8m52 0a6 6 0 0 0 3.7 0q1.2 0 1.9 1h-7.5q.5-1.1 2-1m17.5.3a6 6 0 0 0 3.2-.4q1.4 0 2 1l-7.5-.1a2 2 0 0 1 2.3-.5m22.5-.3q2 .5 3.7-.1 1.5 0 2 1H272q.6-1 1.8-.9m18.2 0q1.8.6 3.6 0 1.4-.3 1.8.9H290q.7-1 2-.9"/><path fill="#e0e0f9" fill-opacity=".3" d="M341 27q-.3 1.1-1.3.7zm120 15q-.1 1-1.2.8zm15.3 15.3q-.6.5-1.2.7.2-1 1.2-.7m-103 24-1.3.7q.3-1 1.3-.7m94 15q-.6.5-1.3.7.3-1 1.3-.7m-88 17-1.3.7q.2-1.1 1.3-.7M398 117q-.3 1-1.3.7zm93 5q.5-1 1.6-1c1.2.7-1 1.2-1.6 1m-318 1a8 8 0 0 1-5.1 3.2q1.9-2.8 5.1-3.2m197 45a7 7 0 0 1-5 3 7 7 0 0 1 5-3m-136 22a8 8 0 0 1-5 3 6 6 0 0 1 5-3m184 15q-.3 1-1.3.7zm14 101q-.3 1.1-1.3.7zm-3.7 5.3-1.3.7q.3-1.1 1.3-.7"/><path fill="#bfc2e0" fill-opacity=".5" d="M30 84q.7-.1 1 .4-.8.6-1-.4m99.8 168.2q.3-2.4 2.8-2.3c1.4 1.2-2 2-2.8 2.3M43 367.9q.6-1 1.6-1c1.1.8-1 1.3-1.6 1m6 37q.6-.8 1.5-1c1.1.8-1 1.3-1.5 1m370 33.2 1.3-.3q-.4 1-1.5 1.2zm-44 13.6c-.2 1-1.8 3.3-3 2 .3-1.2 2.2-1.5 3-2M337 468q.9-1.5 2.6-2c1.3 1-2 1.9-2.6 2m-179 2.2q.4-1.2 1.6-1.7 2.7-.5.6 1.3-1 .4-2.3.4m44 5c.3-1.1 4.2-4 5-2.8a8 8 0 0 1-5 2.7m60 0c.2-.7 1.3-1.7 1.9-.9a2 2 0 0 1-1.9.9"/><path fill="#cecee2" fill-opacity=".2" d="M391.7 154.4q.5.7 1.4 1l-16 9.2a3 3 0 0 1-2 .3q.5-1 1.5-1.7 6.3-3.7 12.3-7.6z"/><path fill="#e1e1f9" fill-opacity=".4" d="M277.4 4.9q-1.9.6-3.8.1c.6-1.4 3-1.4 3.8-.1m180.5.3q-1.6 0-3.1-.3 1-1.2 2.6-.8.8.4.5 1.1m7.5 41-1.3.6q.3-.8 1.3-.6m17.9 6.9q-.6.5-1.2.7.2-.8 1.1-.7M380.3 77a2 2 0 0 1-1.2.7q.2-.8 1.1-.7m58 52.1-1.2.6q.3-.7 1.2-.6m-67.9 7.9q-.7.6-1.5.7.6-.7 1.5-.7m89.9 42.2q-.6.8-1.6.7.6-.6 1.6-.7m16.6 6.7q-.4 1.4-1.9 1.1.6-1 1.9-1.1m-63.9 6.4q-.3.8-1.2.5.4-.4 1.2-.5m49.4 31.8q-.6.4-1.3.6.3-.7 1.3-.6m-36.6 18q0 1-1.2.8zM217 251c-.6 1.6-3.3 3-5 3 .5-1.6 3.5-3 5-3m230 78c-.4 1.7-3.5 2.7-5 3 .8-1.6 3.2-3.1 5-3"/><path fill="#3f5cbe" d="M170 206q-.5 1.2-1.8 1.2.3-1.5 1.8-1.1m-1.8 1.2-4.3 3q-1 .7-2 .7c.4-1.7 4.6-4 6.3-3.7m-6.3 3.7q-.2.9-1 1.3 0-.9 1-1.3M299 349q-.3 1.4-1.7 1.3.3-1.3 1.7-1.3m-1.7 1.3c-3 2.3-7 5.5-10.4 2.1q4.6 0 8.8-2 .7-.3 1.6-.1"/><path fill="#e1e1f9" fill-opacity=".4" d="M410.2 5q-1.7.6-3.4 0c.4-1.5 3.6-1.2 3.4 0M312 32c-.1 1.4-1.9 1.6-3 2-.1-1.6 1.8-1.9 3-2m-89 2c-.2.8-1.4 1.7-1.9.7q.8-.9 2-.6m45 40c-.4 1.6-3.5 3-5 3 0-1.2 3.8-3.3 5-3m66 0q-.5 1.3-2 1 .6-1.2 2-1m154 50q-.6 1.3-2 1 .6-1.2 2-1m-144 9c0 1.6-2 1.6-3.1 2q1-2 3.1-2m97 7q-.6 1.2-2 1 .6-1.2 2-1m-265 21a2 2 0 0 1-2 1q.6-1.2 2-1m83 32q-.5 1.2-2 1 .5-1.3 2-1"/><path fill="#9999a7" fill-opacity=".1" d="m496.7 240.3.3 1.4-14 8a4 4 0 0 1-2.2.3l-.8-.3q7.5-4.5 15-9.4.8-.5 1.7 0"/><path fill="#e0e0f9" fill-opacity=".3" d="M363 13q-.3 1-1.2.8zm-11 7q-.1 1-1.2.8.4-.5 1.2-.8m8.3 1.3-1.3.7q.3-1.1 1.3-.7M226 32q-1 1.5-3 2 .8-2.3 3-2m232.3 18.2q-.6.5-1.2.7 0-1.1 1.2-.7m-45 26-1.3.7q.3-1.1 1.3-.7M494 76q-.2 1-1.3.8zm-.7 5.3q-.6.5-1.2.7 0-1.1 1.2-.7m-62 2-1.3.7q.2-1 1.3-.7m29 2-1.3.8q.2-1.1 1.3-.8m-73 6-1.3.8q.3-1 1.3-.8m35 31-1.3.7q0-1.2 1.2-.8m9 11-1.3.7q.3-1 1.3-.7M328 161a4 4 0 0 1-3 2q.7-2.3 3-2m129 3.9q-.2 1-1.2.8zm-3.7 6.3-1.3.7q.3-1 1.3-.7m19.7-.3q-.3 1-1.3.7zm-29 2q-.2 1.1-1.3.7zm11.3 55.3-1.3.7q.3-1.1 1.3-.7M439 234q-.2 1.1-1.3.7zm-28.7 20.2-1.3.8q.1-1 1.3-.8m-5.3.8q-.1 1.1-1.3.7zm49.3 41.3-1.3.8q.3-1.2 1.3-.8"/><path fill="#e2e2f8" fill-opacity=".3" d="M317 29a3 3 0 0 1-3 2q.8-2 3-2m120.3 15.3-1.3.8q.3-1 1.3-.8m14 10-1.3.8q.3-1 1.3-.8M297 55q0 1.1-1.2.7zm172.4 6.3-1.2.8q.2-1 1.2-.8M447 69q-.1 1-1.3.8zm-52 14q-.3 1.1-1.3.7zm-28.7 2.3-1.3.7q.3-1.1 1.3-.7m94 15-1.2.8q0-1 1.2-.8m-94.4.7q0 1.1-1.2.7zm26 2q0 1-1.2.7zm58 0q-.2.9-1.2.7zm-79.2 14.3 1.4.2-1 .5zM495 131.2c0 1-1.4 1-2 .9a2 2 0 0 1 2-1m-70.7 6.2-1.2.8q0-1.2 1.2-.8m-68 8-1.3.7q.1-1.2 1.3-.7M484 182a3 3 0 0 1 2.7-2c1.3 1.2-2 1.8-2.7 2m-79 15q0 1.1-1.2.7zm26.4 4.3-1.3.7q.3-1.1 1.3-.7M486 205q-.3 1-1.3.7zm-37.7 27.3q-.6.5-1.2.7 0-1.1 1.2-.7m-27 83-1.2.7q0-1.2 1.2-.7"/><path fill="#e0e0f8" fill-opacity=".3" d="M463.3 29.3q-.6.5-1.3.7.3-1.1 1.3-.7M482 29q-.3 1-1.3.8zm-4.7 10.3-1.2.8q0-1.1 1.2-.8m18 7-1.2.8q0-1 1.2-.8M453 47q-.3 1-1.2.8zm-145 1q-.3 1-1.2.8zm160 8q-.3 1-1.3.7zm25 2q-.2 1.1-1.3.7zm-212.2 8 1.3.6-1 .4zm198.5 8.3-1.2.7q0-1.1 1.2-.7m-73 6q-.6.5-1.3.7.3-1 1.3-.7M481 84q-.3 1-1.3.7zm-68 6q-.3 1-1.3.8zm-14.7 12.3-1.2.7q0-1.1 1.2-.7M390 122q-.2 1-1.2.7zm60.4.3q-.6.5-1.3.7.3-1 1.3-.7m-68 8-1.2.7q0-1.1 1.2-.7m90 30-1.3.7q.3-1 1.3-.7M486 163q-.3 1-1.3.7zm-2.7 8.3-1.3.7q.3-1 1.3-.7M418 189q-.1 1.1-1.3.7zm13 8q-.3 1-1.3.7zm43.3 20.3q-.6.5-1.2.7 0-1.1 1.2-.7M452 226q-.3 1-1.2.8zm21.3 59.3-1.3.7q.3-1.1 1.3-.7M457 290q-.1 1-1.2.8z"/><path fill="#dadaf0" fill-opacity=".2" d="M239 169q-.5 1.2-1.6 1.8l-13 8q-.5-1-1.5-1.1l14-8.1q1-.6 2-.7"/><path fill="#e1e1f9" fill-opacity=".4" d="m472.4 24-1.4.8q.3-1 1.4-.8m13.9 10q-.6.7-1.4.7.4-.8 1.4-.7m-23 25.2q-.6.7-1.6.7.8-.6 1.5-.7M262.8 77c.2.9-1.2 1.7-1.7.8a2 2 0 0 1 1.7-.8m192.5 11.2-1.4.6q.5-.7 1.4-.6M430 97.3q-.4.8-1.4.7zm25 18q-.3.7-1.3.7.6-.6 1.4-.8M426.4 136q-.4.5-1.2.8.2-1 1.2-.8m-10.3 3.2q-.4.8-1.3.7zm-50.6.9-1.4.7q.3-.8 1.4-.8m130.8 1.1q-.5.8-1.4.8.5-.6 1.4-.8m-48 32.8-1.1.8q.2-1 1.1-.8m18.1 7q-.6.6-1.3.8.3-.9 1.3-.8m-40.1 3.3q-.6.6-1.6.6.7-.4 1.6-.6M472 189c-.1.8-1.4 1.7-2 .7a2 2 0 0 1 2-.7m-17.2 35.3q-.2.8-1 .6.3-.5 1-.6M222 248a4 4 0 0 1-3 2q.9-1.9 3-2m191.1 2.2q-.4.8-1.4.8zm62 138.7c-.1.9-1.4 1.7-2 .8q.8-1 2-.8"/><path fill="#e4e4fa" fill-opacity=".2" d="M459 306v1.3q0 .5-.4.8l-12.6 7.4q-1 .6-2 .4.3-.7 1-1.2 6.8-4.5 14-8.7"/><path fill="#c7c7da" fill-opacity=".2" d="M444.8 257.3q0 1 1 1.3l-12.4 7.2-.2-1q0-.8.8-1 5.3-3.5 10.8-6.5"/><path fill="#e1e1fa" fill-opacity=".4" d="m355.3 24-1.3.8q.3-1 1.3-.8m-7 4-1.2.8q.2-.9 1.3-.8m-15.2 4.2q-.5.9-1.4.7zm125.2-.2q-.5.6-1.3.7.3-.9 1.3-.7m25.9 14.2q-.5.8-1.4.8.5-.6 1.4-.8m6 2.9-1.1.6q.3-.9 1.2-.6M289.2 60.2c.2.9-1 .5-1.4.6zm182.2-.2-1.2.7q.3-.7 1.2-.7m16.8 1.3q-.5.6-1.4.6.6-.5 1.4-.6M218 64c0 .9-1.3 1.6-1.9.7q.7-1 2-.7m169.4 9q-.6.6-1.2.7.2-.7 1.2-.6m58 2q-.6.6-1.4.7.5-.7 1.4-.7m36 13q-.4.6-1.2.7.3-.9 1.2-.7m-33 4a2 2 0 0 1-1.3.7q.4-.7 1.3-.6m-73 6-1.2.7q.3-.9 1.3-.7m18 7q-.5.5-1.2.7.3-.9 1.3-.7m-8.1 20.3q-.5.7-1.4.7a2 2 0 0 1 1.4-.7m-8 7.8q-.4.4-1 .6.2-.8 1-.6m64.2 45-1.4.6q.5-.7 1.4-.6m5.9 9.2q-.7.6-1.6.7.7-.5 1.6-.8m5 1.8-1.3.7q.3-.9 1.3-.7m-10 114-1.2.7q.3-.9 1.2-.7"/><path fill="#b9bbd9" fill-opacity=".2" d="M158 455q-.1.6-.5 1-5.5 3.4-10.9 7-.9.6-1.9.8.1-1-.8-1.3l12.1-7q.8-.5 2-.5"/><path fill="#848799" fill-opacity=".1" d="M26.7 442.3q-.3 1-1.3 1.5l-10.2 6q-.3-.8.1-1.4l.7-1 8.9-5.2q.9-.4 1.8 0"/><path fill="#bfc2e0" fill-opacity=".3" d="M20.9 255a3 3 0 0 1-3 2q.9-1.9 3-2M15 311h.9a2 2 0 0 1-1.3 1.1zm29 97q-1 2-3.2 2 1-2 3.1-2m318.7 62.3q.6-2.2 2.8-2.3c1 1.1-2.2 2-2.8 2.3M202 475a8 8 0 0 1-5.2 3.2 7 7 0 0 1 5.2-3.2m214.6 21 .4 1-1.3-.3z"/><path fill="#bac5e2" fill-opacity=".2" d="M65.7 93.3a4 4 0 0 1 2.9-2.4c1.5 1.2-2.1 2.3-3 2.4M258.9 477a2 2 0 0 1-1 1.4q-4.3 3-8.8 5.7v-1.4q2.4-2.1 5.2-3.6c1.6-.4 3.1-2.3 4.6-2"/><path fill="#dfdffa" fill-opacity=".2" d="m468.3 26.4-1.2.7q0-1.2 1.2-.7m-71 41-1.2.7q0-1.1 1.2-.8m87 4-1.2.7q.2-1.1 1.2-.7M461 77.9q-.1 1-1.2.8.5-.5 1.2-.8m35.1 12q-.2 1-1.4.8zm-110.7 2.4-1.2.8q0-1.1 1.2-.7M371 98q-.2 1-1.2.8zm112 0q-.2 1-1.2.8zm-13 8q-.1 1-1.2.8.5-.5 1.2-.8m-13 8q0 1.2-1.2.8zm-1.5 5.4-1.3.8q.1-1 1.3-.8M444 122q0 1-1.2.8zm-56.5 5.4-1.3.8q.2-1.1 1.3-.7m43.5 2.6q-.1 1-1.2.8zm-26 16q0 1.2-1.2.8.5-.5 1.2-.8m83.4 22.4-1.2.8q.2-1 1.2-.8m-10 114-1.2.8q0-1.1 1.2-.7m-26 15-1.2.8q.2-1.1 1.3-.7M440 301q0 1.1-1.2.8.5-.5 1.2-.8"/><path fill="#bdc8e3" fill-opacity=".2" stroke="#bdc8e3" stroke-opacity=".2" stroke-width=".5" d="M73.9 492c-1.2 2.8-7 4-8.8 7q-1.5.4-3-.3l1.4-1.4c2.5-1 8.2-5.3 10.4-5.3Z"/><path fill="#c3c3d7" fill-opacity=".9" d="m320 5.3.8-.4a5 5 0 0 0 3.6 0q1.3-.2 1.8 1-3.2.1-6.5-.2zm18.7-.3q1.8.5 3.6-.1l.9.4v.5l-6.4.2q.6-1.1 1.9-1m134-.1q1.8.9 3.6 0l.8.3.1.7h-6.4q.6-1 1.9-1"/><path fill="#bbbed7" fill-opacity=".2" d="M65 468q-.7 1.1-1.6 1.8l-6.7 4.2-2 .6q-.2-.6-.8-1l9-5.2q1-.4 2-.4"/><path fill="#b3bdda" fill-opacity=".2" d="M148 476q-.7 1-1.6 1.8l-8.1 5q-.4-.8-1.4-1.2l9-5.2a4 4 0 0 1 2.1-.4"/><path fill="#a6a6b6" fill-opacity=".1" d="M331.7 103.3q.2 1.1 1.4 1.2a84 84 0 0 0-9 5.2q-.9.5-1.8.3-.2-.9.6-1.5z"/><path fill="#cdcddf" fill-opacity=".2" d="M414.7 317.3q.6.7 1.4 1l-9 5.3q-1 .5-2 .1.6-.9 1.5-1.5a83 83 0 0 1 8.1-4.9"/><path fill="#d4d4ec" fill-opacity=".2" d="M230.7 55q.5 1 1.4 1.3-4.5 2.8-9 5.3-1 .4-2 .4 0-.9.9-1.3 4.4-2.7 8.7-5.6"/><path fill="#e0e0fa" fill-opacity=".4" d="M432.3 4.8q-1.7.8-3.5.2c.2-1.5 3-1.4 3.5-.2m45 27.4q-.7.8-1.5.8zM322.3 43q-.6.6-1.3.8.3-.9 1.3-.8m110 4.1-1.2.6q.3-.7 1.2-.6m16 3q-.6.8-1.6.8zm-29.1 18.2a2 2 0 0 1-1.6.6q.7-.5 1.6-.6m70 11q-.5.7-1.6.7.7-.6 1.7-.8m-38 5a2 2 0 0 1-1.5.7q.7-.7 1.5-.7M361.4 88l-1.3.6q.3-.7 1.3-.6m46.8 5.1q-.6.8-1.5.7zm47.2 10-1.4.6q.4-.9 1.4-.6m-33 3.8-1.2.8q.1-.8 1.2-.8M348 148.3l-.1.8-1.2-.1q.6-.6 1.3-.7m67.4 44.8q-.6.5-1.3.6c-.2-.8.8-.5 1.3-.6m11 11q-.6.4-1.4.6.4-.8 1.4-.7"/><path fill="#c2c5e3" fill-opacity=".2" d="M130.8 443q0 .9-.8 1.4l-9 5.4q-.3-.6-1-1.1l9-5.2q.9-.5 1.8-.5"/><path fill="#e5e5fb" fill-opacity=".2" d="M457 322v1.2a26 26 0 0 1-10 5.8c.7-2 8-5.6 10-7"/><path fill="#b8b8c9" fill-opacity=".1" d="M352.7 109.2q.3 1.2 1.4 1.3a41 41 0 0 0-7.8 4.3q-1 .2-2.1 0 4.3-2.6 8.5-5.6"/><path fill="#bfc2e0" fill-opacity=".3" d="m54 81 1.2-.2q-.2 1.2-1.4 1zM18 257c-.4.7-1.2 2.2-2.1 1.5q.2-1.9 2-1.4m-1 179q-.2.7-.8.4.3-.3.9-.4m64 52c-.5 1.2-5.6 4.3-7.1 4 .8-1.5 5.5-4.3 7.1-4"/><path fill="#c0c2e0" fill-opacity=".3" d="M221 447c-.5 1.6-3.6 2.9-5 3.2q1.6-3 5-3.2m116 21c-.4 1.2-3.7 3.2-5 4v-1.3q2-2.4 5-2.8"/><path fill="#d7d7e9" fill-opacity=".2" d="M396.7 260.2q.4 1 1.4 1.1l-8 4.7v-1.2c1-1.8 4.8-3.5 6.6-4.6"/><path fill="#bec2e0" fill-opacity=".3" d="M34.8 149.2q.6-2 2.7-2.2c1.1 1.2-2 1.8-2.7 2.2M75 462c-.9 1.6-3.2 2.7-5 3 .2-1.4 3.7-3.4 5-3m250.7 44.7h3.4c.2 1.6-2.7 2-3.4 0"/><path fill="#a4a7bd" fill-opacity=".2" d="M41.7 255v.7q-3.3 3-7.4 5-.2-1.2-1.4-1.2a80 80 0 0 0 7.1-4q.8-.5 1.7-.6"/><path fill="#b6b7d0" fill-opacity=".2" d="m26.8 377 .2 1.2q-2.7 2.4-5.8 4.2c-1.2 1-3.3 0-1.6-1.3z"/><path fill="none" d="M216.7 12q1.8.2 3.5.7l-2.9 1.6q-1.2-.6-1.2.7c-1.8.7-3.5 2.3-5.4 2.4q.3-1.2 1.2-2l4.5-2.5q.8-.3.3-1"/><path fill="#bfc1e0" fill-opacity=".4" d="M63 323a3 3 0 0 1-3 2 3 3 0 0 1 3-2M50 428q-.9 2-3 2a3 3 0 0 1 3-2m212 47a4 4 0 0 1-3 2 3 3 0 0 1 3-2M91.4 498l-.4 1-1.2.1q.3-1 1.6-1.1"/><path fill="#3559d0" d="M256 203a73 73 0 0 1-8-.1q3-3.3 7-1.3.7.6 1 1.4"/><path fill="none" d="m346.7 149 1.2.1.2 1q-1.5.9-3.3 1.2l.1-1.3zm113.8 156q.8.2 1.5 1-1.4.9-3 1.3V306zm-2.1 16q1 .2 1.6 1-1.5.9-3 1.2V322q1 0 1.4-1"/><path fill="#c4c4d8" fill-opacity=".9" d="M406.8 5q1.7.6 3.4 0l.9.3v.6h-6.4q.6-1.2 2-1m22 0q1.8.7 3.5-.2.4 0 .8.3l.2.7q-3.3.3-6.5.1.5-1.1 2-1"/><path fill="#395ac9" d="M342.2 202.6q-3.8.6-7.4.3a4.6 4.6 0 0 1 7.4-.3"/><path fill="#d4d4e6" fill-opacity=".2" d="M365.6 120.3q.3.4 0 .8-3.1 1.8-6.2 3.9l-.3-1.2q2-2.1 4.7-3.5.9-.4 1.8 0"/><path fill="#bebed0" fill-opacity=".1" d="M471 122q0 1-.9 1.5a62 62 0 0 1-7.1 3.8V126l6-3.7q1-.5 2-.3"/><path fill="#445db4" d="M222.9 241.4q3.6-.4 7.2-.2c-1.7 2-5.3 2.4-7.2.2"/><path fill="#e1e1f7" fill-opacity=".3" d="M485 63q-.3 1-1.3.8zm-144.7 37.3-1.2.8q0-1.1 1.2-.8M382 127q-.2 1.1-1.3.7zm109.3 22.3q-.6.5-1.2.7 0-1.1 1.2-.7M484 182q-.5 1.3-1.9 1 .6-1.2 2-1m-103.8 89a3 3 0 0 1-3 2q.8-2 3-2m112.2 3.3-1.2.8q.2-1 1.2-.8"/><path fill="#e1e1f9" stroke="#e1e1f9" stroke-width=".5" d="m495.3 164.3.6-.6 1 .2q.4 11.1.3 22.2a3 3 0 0 0-2.3.1 2581 2581 0 0 1-42.4 25.8l-.5.8-1.2.2q-5.4 3.4-10.9 6.6-.6.3-1 1.1c-2 .4-1.3 1.8-2.8 2.9-3.2 1.3-14.3 9.5-17 8.3 5.4-9.3 7-14.2-1.2-22.9q.9-.2 1.4-1a29 29 0 0 0 5.7-3.3q.8-.2 1.3-.7l5-2.7.8-.5 1.2-.8 3.7-2q.8-.3 1.3-.7l5-3 .6-.6 1.5-.7 5-2.7.6-.5q.8-.3 1.3-.7l5-2.8.7-.6q.8 0 1.3-.7l5-2.7.7-.5q.8-.2 1.3-.8l1.8-1q.6-.2 1.2-.7l.9-.5q.7-.2 1.2-.8l5-2.7.5-.5 1.5-.7 5-2.8.7-.5 1.3-.8 3-1.7.6-.3q.8-.2 1.3-.7zM484 182q-1.3-.2-1.9 1c-1-.2-5 1.9-5.1 2.9q-1.3 0-1.9 1.1c-1 .1-3.2.6-3 2a2 2 0 0 0-2 .7c.7 1 1.9.1 2-.7 1-.2 3.5-.3 3-2q1.6.3 1.9-1.1a8 8 0 0 0 4.6-2q.5-.3.5-1 1.5.5 2-1c.6-.1 4-.7 2.6-1.9q-2 0-2.7 2Z"/><path fill="#4566d4" d="m250 241 7.2.1q-.4.8-1.2 1.2-3.5 1.8-6-1.3"/><path fill="#e3e3f8" fill-opacity=".3" d="m353.3 25.3-1.2.7q0-1.1 1.2-.7M424 65q-.3 1-1.3.7zm32 16q-.3 1-1.3.7zm30.3 4.3-1.2.7q0-1.1 1.2-.7m-33 4-1.2.7q0-1.1 1.2-.7m-73 6-1.2.7q.2-1 1.2-.7M353 145q0 1.3-1.2.7zm122 9q-.3.9-1.3.7zm-28.7 21.3-1.2.7q0-1.1 1.2-.7m11 11-1.3.7q.3-1 1.3-.7m-10 114-1.2.7q0-1.1 1.2-.7"/><path fill="none" d="M425.8 411.8q1 .1 1.3 1.3l-5.7 3.7c-1.7-1 .4-2.5 1.3-3.1q1.2.4 1.3-.7z"/><path fill="#e3e3fb" fill-opacity=".2" d="M360 15q-.3 1.1-1.3.7zm96.3 18.3-1.2.8q0-1.1 1.2-.8m32 17-1.2.8q.2-1 1.2-.8m-103 24-1.2.8q0-1.1 1.2-.8m1.6 13.6q0 1.1-1.2.8zm4.4 18.4-1.2.8q0-1.1 1.2-.8m19.6 2.6q0 1.1-1.2.8zm-35.6 25.4-1.2.8q.2-1 1.2-.8m92 87-1.2.8q0-1 1.2-.8M424 413q-.1 1.2-1.3.7z"/><path fill="#d7d7ee" fill-opacity=".8" d="M505.8 416.7q1 4.5-3 6.3l-.1-.8z"/><path fill="#405ec4" fill-opacity=".9" d="m400 201.2 1.8-.4q3-.2 4.4 2.4l-6.4-1.1z"/><path fill="#e6e6fa" fill-opacity=".3" d="M432 409c-.5 1.4-3.7 3.1-5 4q0-1-1.2-1.2c1.7-.8 4.4-3.1 6.2-2.8"/><path fill="#aaacc7" fill-opacity=".2" d="M216 450.2c-1 1.7-3.2 2.6-4.8 3.6a2 2 0 0 0-1.3-1c1.9-.6 4-3.4 6-2.6"/><path fill="#e2e2fa" fill-opacity=".2" d="m294.3 59.3-1.2.8q0-1.1 1.2-.8m161 10-1.2.8q0-1 1.2-.8M432 95.9q0 1.2-1.2.8zm7.4 1.4-1.2.8q.2-1 1.2-.8m23 18-1.2.8q0-1.1 1.3-.8m-52 30-1.2.8q0-1 1.3-.8m56.6 13.6q-.2 1-1.2.8zm-32.5 81.4-1.3.8q0-1.2 1.3-.8"/><path fill="#70707c" fill-opacity=".1" d="M279.7 66h1.1l.3 1q-1.5 1-3.3 1.2.3-1.5 2-2.2m161.8 282q.8.2 1.5 1-1.5 1-3.3 1.2.4-1.5 1.8-2.3"/><path fill="#9496ac" fill-opacity=".7" d="m15.1 81.2-1 .8q.3-.8 1-.8m-1 .8-.7 1.2q-.4-1 .8-1.2m-1.8.9 1.1.3-1.4 1zM11 84.2h1q-.4 1.8-2.3 1.6-.2-1.5 1.2-1.6m-1.2 1.6q.7 1.5-.5 2.6-.2-1.5.5-2.6"/><path fill="#cacff1" d="m284.3 331.7.5.3c-.2 1.6-2.5 3-3.5 4.4l-.7-3q2-.7 3.7-1.7"/><path fill="#a6afdd" d="M191 236.2q-1.5 0-3.2-.4 1.8-1.5 4-2.5.6-.5 1.2 0z"/><path fill="#7f7f90" fill-opacity=".1" d="m369.7 116.7 1 .6.4.7a15 15 0 0 1-5.5 2.3c.3-2.1 2.9-2.1 4-3.6"/><path fill="#b3b3c4" fill-opacity=".9" d="M150.7 5q1.9.6 3.6-.1 1.5-.2 1.9 1h-7.3q.5-1.3 1.8-.9"/><path fill="#e0e0fa" fill-opacity=".4" d="M86.8 38.1q0-.6.7-1c1 .5-.5 1-.7 1m235.4 1.2q-.5.6-1.4.7.6-.7 1.4-.7M446.3 57q-.6.5-1.3.7.4-.7 1.3-.7m18 7q-.4.6-1.3.7.4-.7 1.3-.7m-113 84q-.5.5-1.2.7.2-1 1.3-.7m88 28.3q-.7.7-1.6.7a3 3 0 0 1 1.5-.7m4 58.8q-.6.5-1.2.7.2-.9 1.2-.7"/><path fill="none" d="m363.3 56.2.7.8a16 16 0 0 1-5.3 2.3c.4-2 2.8-3 4.6-3.1"/><path fill="#bdbdd0" fill-opacity=".8" d="M359.8 5q1.7.6 3.4 0 1.5-.4 2 1h-7.4q.6-1.2 2-1"/><path fill="#bdbdd0" fill-opacity=".2" d="M112.9 55.1q-.8 1.8-2.5 2.6-.1-1-1.2-1.3 1.5-1.5 3.7-1.3"/><path fill="#7385c7" d="M275.8 204.7q-.5 2-2.6 2-.7-1-2.1-1 2.2-.8 4.7-1"/><path fill="#b7b7ca" fill-opacity=".9" d="M212.7 4.9q1.8.6 3.5 0l1.1 1-6.6.1a2 2 0 0 1 2-1.1"/><path fill="#c7ccf3" d="M299 255q.3 1.5.2 3c-.9.1-2.5 1.8-3.1.7q1-2.1 3-3.7"/><path fill="#c5c5d9" fill-opacity=".9" d="M454.8 4.9q1.5.5 3.1.3.9.1 1.4.7h-6.6q.7-1 2-1"/><path fill="#d2d2e9" fill-opacity=".9" d="M389 4.8q1.6.7 3.3-.2l1 1.4h-6.7q.9-1.2 2.3-1.2"/><path fill="#8fa0e5" d="M233.7 210.2c.7 1-1.5 1.6-2.1 1.7-.6-1.1 1-2 2-1.7M284.8 332l-.5-.3q.2-.7 1-.6.6.8-.5.9"/><path fill="#c5c5da" fill-opacity=".9" d="M126 5.1q2.3 0 4.4-.4l.6.5.3.5-6.5.3q.4-.9 1.3-.9"/><path fill="#d7d7ed" fill-opacity=".9" d="M97.2 5h.8q1.5.4 2.9.1.9 0 1.2 1L97 6z"/><path fill="#e1e1f9" fill-opacity=".3" d="M101 5q-1.5.3-3-.1.3-1.1 1.5-1 1.4 0 1.5 1.1m373 29q-.2 1.1-1.3.7zm-29 18q-.3 1-1.3.8zM286 62q0 1.2-1.3.7zm58 5.9c-.4 1.8-3.5 2.9-5.1 3a7 7 0 0 1 5.1-3M275 69v1q-3 3-7 3.9c.5-1.7 5.4-4 7-4.9m150.4.2-1.2.8q0-1.1 1.2-.8m-33 1q-.6.5-1.3.7.3-1.1 1.3-.7M416 70q-.3 1.1-1.3.7zm27.3 6.3-1.2.8q0-1.1 1.2-.8m52 20-1.2.8q0-1.2 1.2-.8M419 104q-.3 1-1.2.8.4-.5 1.2-.8m8.3.3-1.2.8q0-1 1.2-.8m-19 11q-.6.5-1.2.7 0-1.1 1.2-.7M338 119c-.2 1.6-3.7 2.9-5.1 2.7 1-1.3 3.3-3 5-2.7m81 2.9q-.1 1-1.3.8zm-18.2 11q0 .6.3 1.1c-4 3.2-8.5 5.2-12.8 7.8H387q0-.5.5-.9zm12.2 8q-.3.9-1.3.7zm-14.7 11.3q-.6.5-1.2.7 0-1.2 1.2-.7m-65.3 5.6c0 1.8-3.5 2.9-5 3.2.6-1.6 3.4-3 5-3.2m129 4q-.3 1.2-1.3.8zm3 14q-.3 1-1.3.8zm-44.7 14.4q-.6.5-1.2.7 0-1.1 1.2-.7M254 196c-.2 1.3-5.5 4.1-6.9 4q.3-.9 1-1.4c1.6-.5 4.4-3 6-2.6m177 43q-.2 1-1.2.7zm62 28q0 1-1.2.7zM377 273q-.5 1.3-2 1 .6-1.3 2-1"/><path fill="#395cd1" d="M235.1 202q-2.6.1-5.2-.2 1-1 2.6-1 1.8-.1 2.6 1.2"/><path fill="#dfdffa" fill-opacity=".3" d="m220.7 197.1.3 1.2c-.7 1.3-2.4 2.4-3 .4z"/><path fill="#727487" fill-opacity=".1" d="M332 470.7v1.3l-2.9 2v-2q1.2-.9 2.9-1.3"/><path fill="#8b9de5" fill-opacity=".9" d="m398.8 216.1 1 .2q-1.3 1.5-3.2 1.5c-.3-1 1.2-1.7 2.1-1.7"/><path fill="#61626e" fill-opacity=".6" d="M183.8 499.1c-.4 1.1-2 .6-3 .3 1 0 2.8-2 3-.3"/><path fill="#b8b8e6" fill-opacity=".1" stroke="#b8b8e6" stroke-opacity=".1" stroke-width=".5" d="m69 280.8.1 1.3q-1.5 1-3.3 1a4 4 0 0 1 3.2-2.3Z"/><path fill="#5b77d9" d="M191.9 242h4.2c-.8 1.3-3.7 1.6-4.2 0"/><path fill="none" d="M249 482.6v1.4l-1.4 1q-1-.2-1.6-1 1.5-1 3-1.4"/><path fill="#a7a7bd" fill-opacity=".1" d="M233.9 27.3v.7q-1.3 1-2.8.8.7-2.1 2.8-1.5"/><path fill="#e9e9fe" fill-opacity=".1" d="M277.8 68.2a4 4 0 0 1-2.8 2l-.1-1q1.2-1.5 2.9-1"/><path fill="#bdc3df" fill-opacity=".2" d="M55 328q-.6 1.3-1.9 2l-.3-1.2q.9-1 2.2-.8"/><path fill="#5f5f67" fill-opacity=".4" d="m452.7 439 3.5.1c-.5 1.5-3.2 1.4-3.5-.2"/><path fill="#626470" fill-opacity=".6" d="M342.8 507c1 0 3-.4 3.5.7-1 .2-3.4.8-3.5-.7"/><path fill="#636470" fill-opacity=".7" d="M31.3 72.9a4 4 0 0 1-3.4 1.4c-.1-1.8 2.3-1.3 3.4-1.4"/><path fill="#dfdffc" fill-opacity=".2" d="m431.7 265 .4 1.2q-.7 1-2.1.8.6-1.2 1.7-2"/><path fill="#bfc0e3" fill-opacity=".2" d="M30 376q-.5 1.2-1.7 2l-.2-1.1c-.1-1 1.2-1 1.9-1"/><path fill="#e1e1f8" fill-opacity=".1" d="m441.4 12.4-1.3.7q0-1.1 1.3-.7m-360 1.8-.5.8-.6.2q-.2-1 1-1M495 131.1q1.5-1.2 0 0"/><path fill="#e1e1fc" fill-opacity=".2" d="m317.1 113.3-2 1.7-.3-1.3q1-.7 2.3-.4"/><path fill="#e1e1f9" stroke="#e1e1f9" stroke-width=".5" d="M486.9 15.7q4 2.8 6.3 7.2a7 7 0 0 0-3.6 1.1l-1 .9-3 1.8-.7.6-1.2.6L482 29l-1.3.8q-1.9.9-3.4 2.4l-1.5.8q-1 .4-1.8 1l-1.3.7a15 15 0 0 0-3.6 2.6q-.8 0-1.5.6l-1.7 1-1.2.8a67 67 0 0 1-6.8 4.2l-1.2.8-.7.5-1.4.8-1.6 1-1.2.8q-2 .9-3.6 2.4l-1.4.7L445 52l-1.3.8-4 2.3-1 .9-3 1.7q-2 1.5-4 2.3l-1 .9-1.8 1-1.2.8-.6.7q-.8.1-1.4.5l-3 1.8q-2 1-3.5 2.6-.9 0-1.6.6l-1.6 1-6.4 4-3 1.8q-.2.3-.6.5-.7.3-1.3.8l-6 3.7-.7.6-1.2.7-1.9 1-1.2.7q-1.9 1-3.5 2.6-.8 0-1.5.7l-1.8 1-1.2.7-6.8 4.2-1.2.8-.9.6q-.6.1-1.2.7l-1.6 1-3.1 1.9-1.2.8-.7.5q-.8.3-1.3.7l-3 1.8a32 32 0 0 1-6.8 4.3l-1.2.7q-1.8 1.5-4 2.5a114 114 0 0 1-11.6 7.6l-1.3.2q-1.4.8-1.8 2c-1.8-.2-4 1.5-5.1 2.8-5.8 1-12.2 10.2-17.2 9.2q-.4-8.1-1.4-16.2l.7.2q1.2-.7 2.1-1.7 1.1-.3 2-1l1.1-.3q1.4-.8 2.1-2 .9 0 1.8-.3 4.2-2.9 9-5.2l1-.7 1.2-.6q1.7-1.2 3.8-2.1l1.2-.8.8-.5 1.2-.7 5-2.8 5-3 .8-.6q.8 0 1.2-.7a43 43 0 0 0 7-4l3.7-2q.8-.2 1.3-.7l.7-.6q.8 0 1.4-.6a35 35 0 0 1 4.9-2.8l5-3 .8-.6a2 2 0 0 0 1.1-.7 26 26 0 0 0 5.9-3.3q.6 0 1.2-.6l5-2.8.7-.5 1.2-.7 3.1-1.8.7-.2 1.3-.8 5-3 .7-.5 1.4-.7 3.7-2 1.2-.8.8-.5 1.3-.7 5-2.8 5-3 .7-.6q.8 0 1.2-.7a36 36 0 0 0 5-2.7l.8-.6 1.2-.5 5-3 2-1.1 5-2.8 5-3 .7-.2 1.3-.8 5-3 .7-.6q.8 0 1.3-.7l5-2.7.7-.6q.8 0 1.3-.6l3-1.7.7-.3 1.3-.8.7-.5 1.4-.8 1.7-1q.6-.2 1.2-.7l.7-.5q.8-.3 1.2-.8a31 31 0 0 0 5.1-2.7l.7-.6 1.3-.6z"/><path fill="#dfdff6" fill-opacity=".2" d="m436.7 351.2.3 1q-.6 1-2 .8.6-1.2 1.7-1.8"/><path fill="#e1e1fa" fill-opacity=".2" d="M439.7 350.2q-.3 1.2-1.5 1.6l-.2-1q.5-1.2 1.7-.6"/><path fill="#80808f" fill-opacity=".3" stroke="#80808f" stroke-opacity=".3" stroke-width=".5" d="M131 5.2q.9 0 1 .7l-.7-.2q0-.3-.3-.5ZM433.2 5q.7.3 1 1l-.8-.2z"/><path fill="#d1d1e6" fill-opacity=".7" stroke="#d1d1e6" stroke-opacity=".7" stroke-width=".5" d="m78.7 16 .5 1q-.2 1-1.2 1 0-1.1.7-2Z"/><path fill="#d0d1ec" fill-opacity=".7" stroke="#d0d1ec" stroke-opacity=".7" stroke-width=".5" d="M81 328.2h.7l.6 1-1.3 1q-.3-1 0-2Z"/><path fill="#5c5c65" fill-opacity=".2" stroke="#5c5c65" stroke-opacity=".2" stroke-width=".5" d="m415.7 496.7 1.3.4q-.6 1-1.8 1.1 0-.7.5-1.5Z"/><path fill="#8e8e9b" d="m80.3 15.2.6-.2q0 .8-.9 1.2zm-1.6.8 1.4.2a1 1 0 0 1-.9.8z"/><path fill="#a9b5eb" fill-opacity=".1" stroke="#a9b5eb" stroke-opacity=".1" stroke-width=".5" d="M388.3 207q1 0 1.7.2-.6.9-1.8.9z"/><path fill="#9797a6" fill-opacity=".3" stroke="#9797a6" stroke-opacity=".3" stroke-width=".5" d="M343.2 5.3q.6 0 1 .7l-1-.2zM477 5.2q.8 0 1.1.7h-1z"/><path fill="#d4d4e9" fill-opacity=".2" stroke="#d4d4e9" stroke-opacity=".2" stroke-width=".5" d="m471.8 439 2.5-.2c-.3 1.4-2.1 1.8-2.5.3Z"/><path fill="#e3e3f9" fill-opacity=".2" d="m458.4 86.4-1.3.7q.1-1.2 1.2-.7m-34.5 14.5q0 1-1.2.8.5-.5 1.2-.8"/><path fill="#757786" fill-opacity=".6" stroke="#757786" stroke-opacity=".6" stroke-width=".5" d="m91 419.1 1-.1-.2.9q-.6-.2-.8-.8Z"/><path fill="#c0c3df" fill-opacity=".3" d="M12.3 82.9 12 84l-1.1.1Q11 83 12.3 83"/><path fill="#9d9dac" d="M502.7 422.2v.8l-.9-.1q.3-.6.9-.7"/><path fill="#91919e" fill-opacity=".3" stroke="#91919e" stroke-opacity=".3" stroke-width=".5" d="M411 5.3q.9 0 1.2.6h-1z"/><path fill="#d3d3e9" fill-opacity=".3" stroke="#d3d3e9" stroke-opacity=".3" stroke-width=".5" d="M78 18q-.1.8-.7 1.4-.3-1 .7-1.5Z"/><path fill="#adb1c8" fill-opacity=".3" stroke="#adb1c8" stroke-opacity=".3" stroke-width=".5" d="M428.8 438.7v1.3h-.7q.2-.8.7-1.3Z"/><path fill="#9a9aa8" fill-opacity=".4" stroke="#9a9aa8" stroke-opacity=".4" stroke-width=".5" d="m320 5.3-.3.4-1 .2q.4-.7 1.3-.6Z"/><path fill="#dedef8" fill-opacity=".2" d="M496 74.8q-.2 1.1-1.4.8z"/><path fill="#e3e3f8" fill-opacity=".1" d="M496 156.8q-.2 1.1-1.4.9z"/><path fill="#bfbfe2" fill-opacity=".2" stroke="#bfbfe2" stroke-opacity=".2" stroke-width=".5" d="M15.2 144h.7q0 1-1 1z"/><path fill="#c0c2df" fill-opacity=".5" d="m45.2 498-.2 1h-1.4q.6-.9 1.6-1"/><path fill="#cccfeb" fill-opacity=".5" d="m81.8 328.3 1.2-.3-.7 1.2z"/><path fill="#81818d" fill-opacity=".3" stroke="#81818d" stroke-opacity=".3" stroke-width=".5" d="m279.2 11.2.8.2q-.6.3-.8-.2Z"/><path fill="#777784" fill-opacity=".2" stroke="#777784" stroke-opacity=".2" stroke-width=".5" d="M394.1 11.3h.8q-.5.9-.8 0Z"/><path fill="#6b6b74" fill-opacity=".2" stroke="#6b6b74" stroke-opacity=".2" stroke-width=".5" d="M460.1 11.4h.8q-.5.9-.8 0Z"/><path fill="#a6a6b6" d="M102.2 12.1q-.3.6-.9.8 0-.8 1-.8"/><path fill="#61616c" fill-opacity=".6" d="m70.3 251.9.4 1.1h-.6z"/><path fill="#687fd2" d="M301.2 348q-.3.8-1.3 1 .3-1 1.3-1"/><path fill="#536dc4" d="M306.1 344.9q-.4 1-1.4 1 .5-.8 1.4-1"/><path fill="#bbbbd0" fill-opacity=".2" stroke="#bbbbd0" stroke-opacity=".2" stroke-width=".5" d="M95.2 6.2V7H94q.1-1 1.2-.8Z"/><path fill="#bfc3e1" fill-opacity=".5" d="m15.1 175 1 .4q-.5.5-1.3.6z"/><path fill="#e1e1f9" stroke="#e1e1f9" stroke-width=".5" d="M133 9.2q-1 1.7-2.3 3l-9.7 8.3q-.6.4-.8 1.3-2 .2-3 1.8c1 1 2.6-1 3-1.9 3.7-.7 15.5-8.4 19.5-10.6q.5-.7.3-1.4 7.7 0 15.4.6.7.2.9 1l-31 25q.7.8 1.7.3 20.2-12 40.6-23.6.9-.5 1.5-1.4l17 .5-38 28.4q-.8.5-.9 1.4-2.2 0-3 1.8c.8 1.1 2.6-1 3-1.8l1.8-.5c16.7-9.7 33.8-18.9 50-29.3q9-1 18.1-.9l-.4.8q.4.6-.3 1l-4.5 2.4q-.9.8-1.2 2-.6-.4-1.2-.3c-1.6 1-5.6 3-6.4 4.8q-2.2.1-3.1 2-1.2-.1-2 .8c.6 1 1.9 0 2-.7q2.1-.4 3-2.1c1.7.4 6-3 7.6-3.8q.4-.4 0-.7c2-.2 3.7-1.7 5.5-2.4q.6-.2 1.2-.7l3-1.6q1-.4 1.5-1.5h34.5q-.5.8-1.3 1.3l-20 13q-1 .8-1.1 1.8-2-.6-2.8 1.5c-1.8.2-4.4 1.5-5 3.3q-2.4-.3-3 2-1.3-.3-2 .6c.5 1 1.7.1 2-.6q1.8-.5 3-2a7 7 0 0 0 5-3.3q1.6.4 2.8-.8l25.7-14.8a8 8 0 0 0 2.3-2q8.6-.3 17.3 0 .2.6.8.2c5-.7 12-.2 17.2-.3q0 .6-.7 1L222 60.7q-.7.4-1 1.3-2.2 0-3 2-1.3-.3-2 .7c.6 1 2 .1 2-.7q2.1 0 3-2 1.2.1 2-.4l9-5.3 74.6-43.1q1.6-.6 2.2-2l35.4-.1q-.1.6-.7 1-2.2 1-4 2.7a51 51 0 0 0-6.6 3.7q-.6.4-.6 1-2.7.2-3.6 2.7-.9-.5-1.8 0l-9 5.5a2 2 0 0 0-.9 1.3q-2.3 0-3 2-1.5-.3-2 1c-1.2.1-3.1.4-3 2q-1.1-.3-2 .7c.7 1 1.7 0 2-.7 1.1-.4 2.9-.6 3-2a2 2 0 0 0 2-1q2.1 0 3-2 1 0 2-.3l8.4-5q1-.4 1.3-1.5 3 0 3.6-2.6c2.1.8 5.2-1.8 6.7-3 2.2-1.4 7.7-3.2 8.9-5.5h17.3q-.7 1.3-2.2 1.9l-1.2.8-1.9 1.1-1.2.8q-1.9 1.1-3.5 2.5-.9.2-1.6.7l-2.9 1.9-1.8 1.1-1.2.8-3.5 2.5q-.9.2-1.6.7l-2.9 1.8L338 29l-1.2.8q-2 1.1-3.6 2.5l-1.4.7-1.7 1-1.3.8-3 2q-1.9 1-3.5 2.6-.9 0-1.4.7l-3 1.7-3.1 2q-2 1-3.5 2.6l-1.5.6-1.7 1-1.2.9-3.1 1.9q-2 1-3.4 2.6-1 0-1.6.7l-1.8 1-1.2.7L294 57l-1.2.8-3.6 2.5q-.8.1-1.4.6-.7.8-1.8 1.2l-1.2.7q-1.5 1.4-3.5 2.6-.7.2-1.5.7a3 3 0 0 0-2 2.2q-1.6-.5-2.8 1c-1.6.7-6.5 3.1-7 4.8-1.1-.3-4.9 1.8-5 3a2 2 0 0 0-1.7.7c.5 1 1.9 0 1.7-.8 1.6.1 4.7-1.3 5-2.9q4-1 7-3.8 2-.3 2.9-2 1.8-.2 3.3-1.2l1-.4 1-.8 1.2-.8 5-2.7q1.7-1.5 3.8-2.2l1.2-.8q.4 0 .7-.3l1.2-.7 5.1-3 .7-.6q.8-.2 1.3-.6l5-2.8.8-.6q.7-.1 1.3-.7l3-1.7.6-.5q.8 0 1.2-.8a27 27 0 0 0 5.1-2.7l.7-.5q.8-.2 1.3-.8l5-2.7.6-.6q.8-.1 1.4-.6l5-2.8 5-3 .8-.6 1.3-.6 3.7-2 1.2-.8.8-.5 1.2-.8a78 78 0 0 0 7-4l5-2.7 5-3 .6-.5q.7-.2 1.5-.8l5-2.7.6-.6 1.3-.7q1.6-.5 2.5-1.9 8.6-.1 17.3.2.2.9.7 0l17.4-.3-.8 1q-7 4.2-14 8.8L386.6 27q-7.6 5-15.6 9.7-.7.4-1 1.2-3 .6-5 3-2.3 0-3 2.1-1.5-.2-2 1a3 3 0 0 0-3 2q-1.2-.3-2 .6c.6 1.1 1.8.1 2-.7q2.1-.2 3-2 1.3.4 2-.9 2.1-.1 3-2 2.2-.1 4-1.6 1-.4 1-1.5 1 .1 2-.2l16-9.3q13.7-8.4 27.7-16a2 2 0 0 0 1.1-1.2q8.7-.2 17.4 0c-.2 1.4-1.8 1-2.6 1.8l-67.3 41.7q-1 .5-1 1.5c-1.8.2-4.2 1.1-4.6 3.1q-.6-.3-1.2-.2l-4.5 2.6-8 5q-.7.5-1 1.2a7 7 0 0 0-5.1 3c-1.6 0-4.4 1.5-5 3q-1.3 0-1.8 1-2 .5-3.2 2-1.1 0-1.8.8c.6 1 1.8 0 1.8-.8q2.2.2 3.2-2 1.5.5 1.9-1c1.4-.2 4.7-1.3 4.9-3 1.6-.1 4.7-1.2 5.1-3a3 3 0 0 0 2-.4l7.6-4.5q.4-.6.2-1.2 1.1.3 2.3-.1c.4-.6 3.3-1.4 2.6-2.4q2.9-.6 5.3-2.3l77.4-44.6q.6-.6.6-1.3 9-.1 18.1.2.2 1 .8 0c5.3-.3 11-.5 16.3.5q-.2 1-1.3 1-.7.4-1.2 1a50 50 0 0 1-8 5q-.4 0-.7.4l-3 1.8-1.2.8-3.1 1.9-5 3.1-1.8 1.1-1.2.8-.8.6q-.7.1-1.2.6l-3 1.8L444 33l-1.2.8q-2 1.4-4 2.3l-1 1-3 1.7-.9.6-1.1.6-3 1.9L428 43l-1.2.8-.8.6-1.3.7-1.6 1-1.2.8-3.1 2-.8.5q-.7 0-1.2.7l-3 1.8L412 53l-1.2.8-.9.6-1 .7a154 154 0 0 0-11 6.8l-2 1.1-1.1.8-.8.5-1.3.7-2.9 1.8L388 68l-1.2.8-.7.5q-.8.3-1.4.8l-1.6 1-1.3.7L380 73l-1.2.8-.8.6q-.8.2-1.3.7l-1.6 1-1.3.7L372 78l-1.2.8-2 1.3-1.7 1-1.2.7L364 83l-1.2.8-.8.5q-.7.2-1.3.7l-2.8 1.9-3.1 2-.8.5q-.7.2-1.2.7l-3 1.8L348 93l-1.2.8-.8.6-1.2.6-4.8 3-1.2.8-.9.5-1 .7q-.9.7-1.8 1l-1.3.8-2 1.6q-4.6 2.5-8.8 5.2-.8.6-.6 1.5-.8 1.2-2 2-1-1.6-1.2.3-.9.7-2 1-1.2-.2-2.3.4l-.5.5c-3-11.2-7.3-20.7-20.3-21.5-2.3-4.3-6-2.6-9.3-.5q-1 .4-1.8 1.5l-1 .2-1.1.5c-2.8 1-3.6 1.9-5.5 3.7q-4 .9-3.5 4.9c-13.9 32.5-.7 64-4.7 97.6q0 1.3-1.2 1.8l-10 .6a3 3 0 0 0-.9-1.4q-4-2.1-7 1.3-2 .1-4.3-.2l.2-.6 1.3-.2q1.5-.5 1.8-2c1.4.2 6.7-2.6 7-4 1-.3 2.8-.4 3-2q1.5.5 2-1 2.1 0 3-2 1.2.3 1.8-.7c-.5-.8-1.6.1-1.8.8q-2.1 0-3 2-1.4-.3-2 1-2.3 0-3 2c-1.7-.3-4.5 2-6 2.6a2 2 0 0 0-1 1.4q-1.3-.2-2 .8l-1.3.3-1 .6a1 1 0 0 0-.5 1q-3.7.3-7-.7-1-1.4-2.7-1.2-1.5 0-2.6 1a294 294 0 0 0-40-.6q1-1.3 2.4-2.3c2.8-1.2 2.9-1.8 4.7-3.9a4 4 0 0 0 2-.5 1444 1444 0 0 1 38.4-23.7q1.1-.6 1.6-1.9a2 2 0 0 0 2-.8c1.2-.6 2.9-.6 3-2.2q1.3.4 2-.8c.8-.5 3.3-.6 3-2 .5.1 2.8-.5 1.6-1.2a2 2 0 0 0-1.6 1.2c-1.1 0-3.3.5-3 2q-1.5-.4-2 .8c-1.3.3-3 .5-3 2.2q-1.2-.3-2 .8-1 .1-2 .7l-14 8-6.5 4.3q-4.7 2.2-9.2 4.9-5.2 2.9-10.2 6.2c-5 2.2-11.1 7.2-16.1 8.4-3.7-1.7-6.8 2-10 3.3a2 2 0 0 0-1 1.4q-1.5-.4-1.8 1c-1.7-.1-5.9 2.2-6.4 3.8q-.7.4-1 1.3a29 29 0 0 0-3.3 4q-3.5 1.4-6.6 3.3l-65.9 38c-1.4 1-1.2-2.1-1.5-2.7q.4-3.9.4-7.8 4.4-1.8 8.1-4.5 46.8-29.3 93.7-58.3l1.4-1.2c12.1-7 24.9-15 36.4-22.9 1.6-.7 9.1-4.5 9.2-6l1.4-.2q1.3-.5 2-2c1.8.3 3.9-1.4 4.9-2.8 1.5-.1 4.5-1.5 4.9-3a8 8 0 0 0 5-3q1.2 0 2-.8c-.6-1-1.8 0-2 .8-1.7-.3-4 1.5-5 3-1.6 0-4.6 1.3-5 3-1.7-.1-4.1 1.2-4.8 2.9a2 2 0 0 0-2.1.8l-1.3.5q-23.2 13.2-46.2 26.7-51.1 29.7-102.5 59l.5-22.1a5 5 0 0 0 2.5-.6c25.2-15.6 50.7-31.8 76.2-46.7 1.6-1.1.1-2.4-1.3-1.4-25 15.7-51.5 30.4-77.4 45l.2-10.2q9-6 18.4-11.1c3.8-2.8 8.1-4.8 12.1-7.3 1.7-1 .2-2.3-1.3-1.3q-13.5 8.3-27.1 16.2-1 .6-2.1.5l.3-21.3a22 22 0 0 0 11-8q1.5.4 3-.2l67.4-42.7q.9-.7 1.5-1.6a8 8 0 0 0 5.1-3.1 8 8 0 0 0 5-2.8c-.9-1.1-4.8 1.5-5 2.8a7 7 0 0 0-5.1 3 3 3 0 0 0-1.9.4l-9.2 5.4c-15 9.3-31.9 17.2-46 28l.1-.6q-1.5.3-3.2 1c-4.4 2.9-18.9 11-23 12.7v-10l21.7-13.2c.4-.4 1.6-1 1-1.7q-1.5 0-2.9 1c-4 2.1-16.4 10.5-19.9 11l-.9-47c3.3-.7 15.4-9.4 19.5-11.5 1-.4 1.3-2.8-.3-2.2a149 149 0 0 1-19.3 11.8Q83 94.6 82 78c2.6-.4 24.3-17.7 28.3-20.3q1.7-.8 2.5-2.6 2.1-.2 3-2l2.2-.5q2-1.5-.5-1.3-1 .6-1.7 1.7a3 3 0 0 0-3 2.1q-2 0-3.7 1.3l-27 15.8V59.8C88 56.4 97.4 48 102.8 43.2c1-.7 3.7-1.3 4-2.7-1.2-1.3-3.7 1.6-4 2.7-3.1-.1-17 9-20.3 11.1-.2-15.3-2.1-39 18.7-41.4-1.4 3-5 7-7 9.6q.4.4 1 0 1.5-1.5 3.8-1.9l16-9.2q.6-.5.6-1.4 8.6-1.2 17.3-.8Zm321.7 6c.6-.4 4.3-1 3-2.2q-2.5 0-3 2.2Zm40.6 13.6a62 62 0 0 1 1.6 10.4 3 3 0 0 0-3 .7l-1.2.8-.7.5q-.7.2-1.2.8l-3 1.7-3.6 2.5q-.9.2-1.4.8a13 13 0 0 0-3.1 1.7q-2 1.4-4 2.4l-1 .8-1.8 1-1.2.8-2 1.2-1.7 1-1.3.8q-1.8 1-3.5 2.5-.7 0-1.5.7l-3 1.8-5 3L452 66a5 5 0 0 0-1.8 1.4q-.8 0-1.4.7l-1.7 1-1.3.8a13 13 0 0 0-3.5 2.5q-.8.2-1.6.7l-3 1.7-4.9 3q-2 1-3.5 2.6-.9 0-1.5.7l-3 1.7a25 25 0 0 1-4 2.3l-1 1q-1 .4-1.8 1-.7.2-1.2.7l-.7.5q-.8.3-1.3.8l-1.7 1-1.3.8q-1.8.9-3.5 2.4l-1.5.7-1.8 1-1.2.8a71 71 0 0 1-6.8 4.2l-1.2.8-.7.6q-.7.2-1.3.6l-3 1.8q-2 1.1-3.6 2.5-.7.2-1.5.7l-3 1.8-.7.5q-.7.3-1.1.8l-1.8 1-1.3.7q-1.6 1.4-3.4 2.5l-1.6.7q-.9.7-2 1l-1 .8c-1.2 1.5-3.8 1.5-4 3.6q-1-.4-1.9 0-2.7 1.3-4.7 3.6l-1.3.2c-1.7 1-6 3-6.8 4.8-1.4-.2-6.4 2.8-7 4q-2.1.2-3.1 2-1.3 0-1.9 1.1c-1 .2-2.8.4-3 1.7 1 1 2.5-.8 3-1.7q1.5.3 1.9-1c1.1-.4 3.1-.4 3.1-2 1.6.3 6.4-2.5 7-4q1 0 2-.5 2.9-1.4 5.1-3.4l1.3-.1q3-2.1 6.2-3.9.3-.4 0-.8a15 15 0 0 0 5.5-2.3l1-.4 1-.8 1.1-.6q1.8-1.3 3.8-2.2l1.3-.7q1.7-1.5 3.8-2.2l1.2-.8.8-.5 1.2-.8a28 28 0 0 0 5-2.7l.8-.6q.8-.2 1.3-.7l5-2.7.7-.7q.8 0 1.1-.6a55 55 0 0 0 8.9-5q.7-.2 1.2-.7l.7-.6q.8 0 1.3-.7l5-2.7.6-.6 1.4-.7 5-2.7.7-.5q.8-.3 1.2-.8a15 15 0 0 0 3.1-1.7l2-1 5-3 .7-.5q.8-.2 1.3-.8l5-2.7.6-.6q.8-.1 1.4-.7a80 80 0 0 0 10.7-6.4q.8 0 1.3-.5l5-2.8.7-.6q.9 0 1.3-.7l5-2.7.8-.6 1.2-.7a134 134 0 0 0 12-7l5-2.7.8-.6 1.2-.6 5.9-3.3.7.3q.5 5 .3 10l-1 .1q-.8.2-1.5.8l-3 1.7q-2 1-3.6 2.6-.8 0-1.4.6l-1.8 1-1.3.8q-1.9.9-3.5 2.4l-1.5.8-3 1.7a19 19 0 0 1-4 2.3l-1 1q-.9.3-1.8 1-.7.2-1.2.7l-.8.6q-.7.1-1.2.7l-1.7 1-1.3.7L461 78q-.7.3-1.2.8l-.6.6q-.9 0-1.4.7l-1.7 1-1.3.7q-1.9 1-3.5 2.6-.8 0-1.5.7l-3 1.7-5 3.2-1.8 1-1.2.8-5 3L432 96l-1.2.8-.7.6-1.4.7-2.8 1.8-3.2 1.9-.7.6-1.2.7-1.7 1-1.3.8q-2 1-3.6 2.5-.7 0-1.5.7l-3 1.7q-1.8 1.4-4 2.3l-.9 1-3 1.7-5 3-1.8 1.2-1.2.8-.7.6q-.8.2-1.3.6l-1.8 1-1.2.8q-2 1-3.5 2.6a2 2 0 0 0-1.4.7q-1 .3-1.8 1l-1.3.7q-1.9 1-3.5 2.5-.9.1-1.6.7l-1.7 1-1.2.8a67 67 0 0 1-6.8 4.2l-1.2.8-5 3q-.7.8-1.8 1.3-.7.2-1.2.7l-.8.4-1.2.8-1.7 1.1-1.2.7q-1.7 1.5-3.8 2.6-.8 0-1.3.7l-1.8 1-11 6.7a2 2 0 0 0-1 1.2c-1.5.2-4.3 1.5-4.9 3.2q-2.2-.3-3 2-1.5-.3-2 1-2.2-.4-3 1.8-1.4-.2-2 .8c.6 1 1.8 0 2-.8a4 4 0 0 0 3-1.9q1.5.2 2-1 2 0 3-2c1.5-.2 5-1.3 5-3a4 4 0 0 0 2-.3l8.4-4.9q1-.5 1.4-1.5 1.8-.3 3.3-1.3l1-.4 1-1q.8 0 1.3-.6l5.8-3.2 1-.7 5.1-2.8.7-.6q.8 0 1.4-.6l1.7-1 1.2-.8.6-.6q.8-.1 1.5-.7a51 51 0 0 0 6.9-3.9l5-2.8.7-.6q.8-.2 1.3-.6l3-1.7.7-.3 1.3-.8 5-3 .6-.6q.9 0 1.4-.6l5-2.8.7-.6q.8-.1 1.4-.7l5-2.7.7-.5 1.2-.8 3-1.7.7-.5q.9 0 1.4-.8l5-2.7.7-.5 1.3-.8a107 107 0 0 0 10.6-6q.8-.2 1.3-.7l5-3 .7-.5a2 2 0 0 0 1.2-.8 23 23 0 0 0 5.1-2.7l.7-.6q.9 0 1.3-.6l5-2.8.7-.6 1.4-.6 1.7-1 1.2-.7.7-.3 1.3-.8 5-3 .8-.6q.7 0 1.2-.6l3.8-2 1.2-.8.7-.5q.8-.3 1.3-.7l3.8-2 1.2-.8.7-.6q.8 0 1.3-.6l1.8-1 1.2-.8.7-.2 1.3-.8 5-3 .6-.5q.8-.2 1.5-.8l3.9-2a146 146 0 0 0 0 11l-1.3-.2-1.4.8-.6.4-1.3.7q-1.9 1-3.4 2.5-1 .2-1.7.8l-3 1.7-.6.7q-.8 0-1.4.6l-1.6 1-1.3.7q-1.9 1.3-4 2.3l-1 1-1.8.9-1.2.8-.7.6q-.8 0-1.3.7l-1.7 1-1.3.7L463 95l-1.3.8q-1.8.9-3.5 2.4-.8.2-1.5.8l-3 1.7-.8.6q-.7.1-1.2.7l-1.7 1-1.3.7q-2 1.4-4 2.4l-1 .9-1.8.9-1.3.8-.7.6-1.2.6-3 1.8-5 3-3.6 2.6-1.3.5-1.9 1.2q-.7.2-1.2.7l-.8.5q-.6.2-1 .7l-3.2 1.8q-1.8 1.4-4 2.7-5 2.7-10 5.9-1 .5-1.5 1.5-.8 0-1.4.3-6.7 3.8-13.3 8-.5.3-.5.8-2.3 0-3 2a2 2 0 0 0-2 1q-2.4-.2-3 2a2 2 0 0 0-2.1.7c.6 1 2.2.4 2.1-.7 1-.5 2.9-.4 3-2q1.5.5 2-1c1.1-.4 3-.4 3-2h1.3c4.3-2.6 8.9-4.6 12.8-7.8q.6 0 1.1-.3l12.9-7.3.8-.7q.8-.2 1.4-.8a40 40 0 0 1 5-2.8q1.5-1.5 3.8-2.2l1.2-.7.7-.7q.8 0 1.2-.5l5.1-2.8.6-.5q.8-.2 1.4-.7l5-2.8 5-3 .7-.6q.9 0 1.3-.7a36 36 0 0 0 5.7-3.2l1.4-.7 5-2.8.5-.6q.8-.2 1.3-.7l5.1-2.7 5-3 .9-.5 1-.8a35 35 0 0 0 5.1-2.7l.8-.7q.8 0 1.2-.6l5-2.7.8-.5 1.2-.8a66 66 0 0 0 9-5v11l-1.3-.1-1.4.8-.6.5q-.8.3-1.4.8l-3 1.7-4.9 3L483 98l-1.2.8-.6.6q-.8 0-1.3.6a109 109 0 0 0-11.1 6.8l-.7.6-1.3.7a38 38 0 0 0-6.7 4l-1.2.8-2 1.1-1.1.8-.7.5-1.3.8a52 52 0 0 0-8 4.8l-1.8 1a5 5 0 0 0-1.8 1.5q-.8 0-1.5.7a55 55 0 0 0-7.8 4.8l-3.1 1.9-.7.5q-.8.2-1.3.7l-3 1.8-8 5-.7.5q-.8.3-1.3.7l-1.7 1-1.3.8-5 3-1.8 1.2q-.7.3-1.2.8l-.7.6q-.9 0-1.4.6-.7.7-1.7 1l-1.2.8q-1.6 1.5-3.7 2.3l-1.3.7q-.6 1.4-2 1.7l-2.8 1.2q-6 3.9-12.3 7.6-1 .6-1.6 1.7c-1.7 0-4.4 1.5-5 3.1a7 7 0 0 0-5 3c-1.3-.1-6.5 2.8-7 4-.9.4-2.8.4-3 1.7 1 1.4 2.3-1 3-1.6 1.4 0 6.5-2.6 7-4.2q3.2-.3 5-2.9a7 7 0 0 0 5-3.1 3 3 0 0 0 2-.3l21.3-12.3.7-.6q.8-.2 1.3-.6 1.8-1.2 3.7-2l1.3-.8a14 14 0 0 1 3.8-2.2l1.2-.8.8-.6q.8 0 1.3-.6l3.7-2 1.2-.8.8-.5 1.2-.7 5-2.8.8-.5 1.2-.8a60 60 0 0 0 8.8-5q.6-.2 1.2-.7l.8-.6 1.2-.6 3.8-2 1.2-.8.8-.6q.7-.1 1.2-.6l5-2.8.8-.6 1.1-.6 3.1-1.8.7-.2 1.3-.8 5-3 .7-.5q.8-.2 1.3-.7l5-2.8.7-.6q.8 0 1.2-.7l5.1-2.7.8-.5q.8-.2 1.3-.8l3-1.7.7-.5q.8-.1 1.3-.8l5-2.7.6-.5q.7-.1 1.2-.7l3.9-2 1.2-.8.8-.5.7.2q.5 5 .5 10a5 5 0 0 0-2.3.6q-2.5 1.4-4.7 3.3-2.7.9-4.8 3-3 .8-5 3-4.5 2-8.5 4.7-.7.5-1 1.4-1 0-2 .3l-6 3.7c-1.7 1.3-6.4 3-7 5a6 6 0 0 0-5 3q-1.4-.3-2 1c-1.4.2-4.7 1.6-5 3q-2.4 0-3 2-1.5-.2-2 1c-1.4-.2-4.6 1.8-5 3q-1-.2-1.8.6c.5 1 1.7.2 1.8-.6 1.4.2 4.3-1.8 5-3q1.4.2 2-1c1-.4 2.8-.5 3-2 1.4.2 4.4-1.7 5-3q1.4.3 2-1 3-.5 5-3c2.1 0 5.4-2.5 7-3.7q3.6-1.7 7.1-3.8.9-.5 1-1.5 1.4-.1 2.6-.6 11.5-7.4 23.4-13.8l.1 33.5-1 .1q-.9.2-1.4.8l-3.1 1.7-.7.5q-.8.2-1.2.8-1 .4-1.8 1l-1.3.8q-1.8.9-3.5 2.4-.9.1-1.6.8a22 22 0 0 0-3.6 2.3 2 2 0 0 0-1.2.7q-1 .4-1.8 1l-1.3.7q-1.9 1.4-4 2.3l-1 1-3 1.7-.8.6-1.2.7-1.8 1-1.2.7-3.7 2.3-1.2.7-3.1 2-.7.6q-.8 0-1.2.7-1 .3-1.8 1l-1.3.7a144 144 0 0 0-10 6.3l-3 1.7-3.7 2.3-1.3.7q-1.9 1-3.5 2.6l-1.6.6-3 1.8-.6.5q-.8.3-1.3.8l-1.7 1-5 3.3q-.7 0-1.2.5l-1.9 1.2q-.7.2-1.2.7a10 10 0 0 1-3.7 2.3l-1.3.7c-.9 1.4-2.6 1.6-4 2.4l-1 .6q-.5.4-.6 1.1c-16.2-1.9-39.3-.3-56 .8a4.6 4.6 0 0 0-7.3.3q-10 .5-19.7 0a3 3 0 0 0-2-1.9c-1.8-22.5 3-47 2.6-70 5 1 11.4-8.2 17.2-9.2 1.4.2 5-1.1 5-2.7q1.4 0 2.3-.8.8-.6.9-1.6l3-2q1.2.4 2.2.1 3.7-2.5 7.8-4.3l1-.7 1.2-.7q1.8-1.2 3.7-2.1l1.3-.7q1.7-1.5 3.8-2.2l1.3-.8.8-.5 1-.8a37 37 0 0 0 5.1-2.7l.8-.6 1.3-.7 5-2.7.6-.5q.8-.2 1.3-.8l3-1.7.7-.2 1.3-.8 5-3 .8-.6q.6 0 1.2-.6l5-2.8.8-.6q.8 0 1.3-.7l5-2.7.6-.6q.8-.2 1.4-.7l1.7-1 1.2-.6.7-.4 5-3q.8-.2 1.3-.7l.7-.7q.8 0 1.3-.5l3.8-2 1.2-.8.6-.6q.8-.2 1.4-.6l5-2.8 5-3 .6-.6q.8 0 1.5-.6l5-2.8.6-.6q.8-.2 1.3-.7l5-2.7.7-.5q.8-.3 1.3-.7l5-2.8 5-3 .8-.5 1.3-.7 5-2.8.6-.6q.8 0 1.3-.6l5-2.8.7-.6q.8-.1 1.3-.6l5-2.8.6-.6q.9 0 1.4-.7l1.8-1q.6-.2 1.2-.7l.7-.5q.8-.2 1.3-.8 2-.9 4-2.2ZM86.8 38.1c.2 0 1.7-.5.7-1a1 1 0 0 0-.7 1ZM90 86c-1.2-.2-3 .1-3.2 1.6 1.2 1 3-.4 3.2-1.6.8-.1 3.5-.8 2.5-2q-2 0-2.5 2Zm62 10a2 2 0 0 0-2.2 1.1l-1.2.2-3.4 2.4q-4.7 2.2-9.2 5-1.2 1.4-3 1.7-6.8 3.7-13.4 7.7L114 119q.1-1.5-1.1-.7Q99.1 126 85.3 134c-.9.7-1.4 6.5 1 5.6 7.8-4.4 16.3-12.3 23.7-17.6q.5 1.6 2 .5l26-17c2-1.7 8.4-5.6 11.2-7q.8-.4.6-1.4c.8 0 2.3 0 2.2-1 .6-.3 4.1-1.3 2.6-2.2q-2.1 0-2.6 2.1Zm-43.2 1.4c.5-.2 2.8-.7 1.6-1.6q-1.5.1-1.6 1.6Zm183.6.4q2.2 1 2.8 3.2c-1.3.9-4.3 3-5.8 3q-.6-.4-.1-1.2 1.7-2.4 3.1-5ZM491 122c-1.1.1-3.1.4-3 2q-1.4-.2-2 1c-1.8-.4-3 1.5-4.6 2a1 1 0 0 0-.4 1q-1.2-.2-1.9.7c.6 1 2 0 1.9-.8 1.4.4 3-1.6 4.6-1.9q.4-.3.4-1 1.4.3 2-1c.9-.5 3.4-.5 3-2 .5.2 2.8-.3 1.6-1q-1.1 0-1.6 1Zm-189.4 3q.3 2.4.2 4.9l-5.6 2.8q-.6.3-.9-.2 3-3.9 6.3-7.5ZM279 137.2q-.3-2.1-.1-4.1a22 22 0 0 0 5.2-2.7q.6-.3 1 .2c0 1.3-4.8 6.2-6.1 6.6Zm216-6.1a2 2 0 0 0-2 .9c-1.2.2-4.7 1.8-5 3q-2 0-3 2-1.3-.2-1.9 1-2.4-.3-3 2-1.5-.4-2 .6c.5 1 2 .4 2-.6q1.9-.3 3-2c.7 0 2 0 2-1q2-.2 3-2c1.1 0 5-1.5 5-3 .6 0 2 0 2-1q1.5-1 0 0Zm2.3 14.9v11l-1.2-.2-1.4.9q-.4 0-1 .4l-.8.9q-1 .3-1.9 1-.6.2-1.2.7l-2 1.2-1.7 1-1.3.8q-2 1-3.5 2.7-.8 0-1.5.6l-3 1.7a79 79 0 0 1-6.8 4.2l-1.2.8-.6.5q-.8.3-1.4.8l-1.7 1-1.3.7q-2 1-3.4 2.5-1 0-1.6.7l-3 1.8-5 3q-2 1-3.4 2.6-.9.1-1.6.7l-1.8 1-1.2.7-4 2.4-1 .9-3 1.7-3.7 2.3-1.3.7q-1.8 1-3.5 2.5l-1.5.7-3 1.8-5 3q-.7.7-.7 1.6-4.8-2.2-9.8-4a5 5 0 0 0-4.4-2.5q2.7-1.2 5-3.2 1 .1 1.4-.6 1.8-1.2 3.9-2 .7-.2 1.2-.7l.8-.6q.7-.2 1.3-.6 1.7-1.2 3.7-2l1.2-.8.7-.6q.8 0 1.3-.7a114 114 0 0 0 10-5.7l.7-.2 1.3-.8 5-3 .7-.6q.8-.2 1.4-.6l5-2.8.6-.5 1.2-.8 5.1-2.7 5.8-3.5q.8-.2 1.2-.8a32 32 0 0 0 5-2.7l.7-.6q.8 0 1.4-.6l5-2.8 5-3 .6-.2 1.3-.8 5-3 .6-.5 1.5-.8 5-2.7.6-.6 1.3-.7zm-321.1 15q-1.4-.2-2 1c-1.1 0-5 1.4-3.7 2.7a6 6 0 0 0 3.6-2.7 2 2 0 0 0 2-1c.8-.1 4-1 2.6-2q-2 .2-2.5 2Zm65 25q-1.5-.3-2.1 1c-1.7.1-4.3 1.4-5 3a6 6 0 0 0-5 3c-1.8 0-4.4 1.4-5 3-.6 0-2-.1-1.9.9l-1.4.2-2.7 1.6c.6 2 2.3.9 3-.4l1.3-.3q1-.7 1.7-2a7 7 0 0 0 5-3q3-.3 5-3 3-.4 5-3 1.5.3 2-1c1 0 4.1-.8 2.6-2q-1.8.3-2.5 2Zm256.1 2v11q-1.8-.1-3.2 1l-1.3.7-3 2-.7.5-3 1.8a40 40 0 0 0-4.8 3.2 3 3 0 0 0-1.5.8l-3 1.7-.8.5-1.3.7-2.8 1.9a16 16 0 0 0-3.6 2.5q-.9.2-1.6.7l-3 1.7q-1.8 1.4-4 2.3l-1 1-3 1.7-.8.6q-.6 0-1 .6L452 226l-1.3.8a16 16 0 0 0-3.6 2.4q-.8.2-1.4.8l-3 1.7-5 3-3 2-.7.6a2 2 0 0 0-1.2.7q-1 .4-1.8 1l-1.3.7-5 3.2-1.8 1-1.2.8-.6.6q-.8.2-1.4.6l-3 1.8a44 44 0 0 0-5 3.3l-1.8 1-1.2.7q-1.6 1.5-3.7 2.3l-1.3.7q-1.6 1.5-3.4 2.5-1 .1-1.6.7-1 .8-2 1.3c-1.8 1.1-5.6 2.8-6.6 4.6l-1.4.4q-4 2.2-7.7 4.5a2 2 0 0 0-1 1.3q-2.1 0-3 2-1.5-.2-2 1-2.2 0-3 2-1.2-.1-2 1-2.3-.2-3 2a2 2 0 0 0-2 .7c.6.9 1.8 0 2-.8a4 4 0 0 0 3-1.9 2 2 0 0 0 2-1 4 4 0 0 0 3-2q1.5.3 2-1a3 3 0 0 0 3-2q1 0 2-.3c1.1-1 6.8-3.5 7-4.6l1-.1 13.3-7.7.8-.6q.7 0 1.2-.6l1.8-1 1.2-.8q.4 0 .7-.3l1.2-.8q1.8-1.4 3.9-2.1l1.2-.8.7-.6q.8 0 1.3-.6l5-2.8.7-.6q.8-.2 1.3-.7l10-5.7.8-.6q.8 0 1.2-.6l5-2.8.8-.5 1.2-.7 5-2.8.6-.5 1.4-.7 3.7-2 1.3-.8 5-3 .8-.6q.7-.1 1.3-.6l7-4 5-2.8.5-.6q.8 0 1.4-.6l5-2.8 5-3 .8-.5q.7-.2 1.2-.8l5-2.7.7-.6q.8-.2 1.4-.7a3 3 0 0 1 1.8-1v22q-1.2-.7-2.5.2l-50 31.1q-5.4 3-10.7 6.4-.8.3-.8 1.2l-1.5.2q-1.2.6-1.8 1.9c-1.8 0-4 1.2-4.8 3-1.6-.3-6.4 2.7-7.2 4q-2 .1-2.8 2-1.2-.3-2 .6c.6 1 1.6 0 2-.5q2-.2 2.8-2.2c1.5.5 6.6-2.6 7.2-4q3-.3 4.8-2.9 1.5.4 2.2-.8l1.3-.4 12.4-7.2q25.7-15 51.5-29.7c-.3 3.6.3 8-.6 11.4q-.9-.5-1.8 0-7.3 4.8-15 9.4l-15 9q-.7.4-.9 1.3a7 7 0 0 0-5 3q-3 .6-5 3-2.1 0-3 2-1.3-.3-2.1.6c.6 1 2 .4 2-.6q2.2-.3 3-2c1.9.3 4.2-1.6 5.1-3 1.9 0 4-1.4 5-3q1 .1 2-.4l14.6-8.5q.4-.6.2-1.1a4 4 0 0 0 2.3-.4l13.9-7.9q-.1 11.7.3 23.4l-1.5-.1-1.2 1-1.6 1-3.1 1.9-1.2.8-.7.5a12 12 0 0 0-2.8 2q-.8.2-1.5.8l-1.8 1-1.2.7-3 2a18 18 0 0 0-3.6 2.6q-.8.2-1.4.6l-2 1.2-1 .9-3 1.7-3 2-.7.6q-.7.1-1.2.7l-1.7 1.2q-.8.2-1.3.8-1 .4-1.8 1l-1.2.8-3.1 1.9q-2 1-3.5 2.6l-1.6.6-1.6 1-1.3.8q-.8.8-1.8 1.2l-1.2.8-3 2-.7.6q-.8.2-1.4.6l-1.4 1.3q-.8.3-1.5.8l-1.8 1-4.2 2.7-3.6 2.5-1.5.7-4.7 3-1.2.8q-.5 1.3-2 1.6a83 83 0 0 0-8.1 4.9q-1 .6-1.5 1.5a8 8 0 0 0-5 3.2q-2.1.3-3 2-1.5 0-2.2 1-1.9.2-2.8 1.7c1 .9 2.6-.6 2.8-1.7q1.5.4 2.1-1 2.1-.2 3-2c1.9 0 4.4-1.3 5-3.2q1.1.4 2-.1l14.3-8.3.8-.5 1.2-.7 5-2.8 5-3 .8-.6q.6-.1 1.1-.7a31 31 0 0 0 5.1-2.7l.8-.5 1.2-.7 3.8-2 1.2-.8.7-.6q.8-.2 1.4-.6l3-1.7.6-.3 1.3-.8 5-3 .8-.5q.8-.2 1.3-.8l5-2.7.5-.6q.8 0 1.5-.7l5-2.7.7-.5 1.3-.7 3-1.7.6-.3 1.3-.8.6-.6q.8 0 1.4-.6l1.8-1 1.2-.8.7-.6q.8-.1 1.4-.6l5-2.8.6-.5q.8-.2 1.3-.8 1.5-.6 2.7-1.4l.3 11.4a3 3 0 0 0-2.4.2 3438 3438 0 0 1-50 31.5q-.6.5-1 1.2c-.6 0-2 0-1.9 1q-2 .5-3 2-1.2 0-1.8.9c.6 1 1.8 0 1.8-.9q2.3.2 3-2 1.5.5 2-1 1 .2 2-.4l12.6-7.4q.4-.3.5-.7 1.5-.5 2.9-1.4l35-20.2.3 11.2q-1.2 0-2.4.5-18.2 11.8-36.5 23.4-.4 1-1.5 1c-1.8 1.6-9.2 5.2-10 7a7 7 0 0 0-5 3q-1 0-1.7.8 1.3.9 1.8-.7c1.5-.3 4.6-1.3 5-3 1.7 0 9-4.3 10-5.8q1.5-.2 3-1.2l37.2-21.3V312q-1.2 0-2.3.6L441.5 348q-1.5.7-1.8 2.2-1.2-.6-1.7.6l-1.3.4q-1.2.6-1.7 1.8c-1.1-.3-5 1.9-5 3l-2 .6q-2.1 1.5.3 1.2 1.2-.6 1.7-1.8c1.1 0 5-1.6 5-3q1.4.3 2-.9l1.2-.3q1.1-.4 1.5-1.6 1.8 0 3.3-1.2l54.1-31.3v11.5q-1-.1-1.8.5a3415 3415 0 0 0-51 35l-2.8 1.3q-.4.3-.4.9c-1 .3-2.8.5-3 1.7 1 1 2.6-.8 3-1.7 2.3.3 2.6-.9 4.2-2q26-14.7 52-29.9v12c-2.6-.7-16 9.9-18.8 12l-7.5 4.5q-.9.4-1 1.3a9 9 0 0 0-5 2.9c.8 1.2 5-1.6 5-3l2-.2q12.6-7.4 25.3-14.6V373a4 4 0 0 0-2.3.6l-15 11a4 4 0 0 1-3 2.2l-1.9 2q-1.2 0-2 .9c.6 1 1.9 0 2-.8 2.8-.8 17.9-10.4 22-12.1v12.5c-1.8-.5-8.2 6-10.1 7.2q-.8.8-.8 1.8l-1.5-.2q-1.7.8-2.6 2.6c1 .8 2.2-.8 3-1.4l1.2-.7 10.8-5.9c.6 19.6 3.3 37.4-22.1 39.7q-11.3.6-22.4.3-.9.2-1.5-.5c2.3-1.4 3.4-4 5.9-5l1.8-2.1c.7-.6 3.5-.7 2.6-2q-1.6.6-2.6 2-1.3.3-2.4.9l-8.1 4.6q-1.1.5-1.3 1.7c-5.9.2-10.7-1.9-16.4.2q-.6 0-1-.6.4-1.4 1.5-2.2c3.8-1.9 17.3-13.2 20.8-16.5.5-.4 3.9-1.1 2.5-2q-2 .1-2.5 2c-4 1-16 9-20.6 11.1q-6.3 3.7-12.3 7.8l-11-.1c-1-1.4-3.5.1-4.7-1.6l15.9-11.7c1.7-1.3 1-3.7-1.2-2.2l-23.9 14c1.4 1.8 7-.1 8 1.3l-45.1-.7q0-.6.6-1c11-7 21.4-14.9 32.6-21.6q1.7-1.4-.5-1.7-19.8 12-40 23.4-.6.3-.7.9h-17c.5-1.7 3.9-3.3 5.3-4.5q23.7-16.2 47.7-32c1.8-1 .7-2.6-1.1-1.3l-61.1 35.1q-2.1 1.2-3.8 2.8-7.5 0-14.8.4c-1.1-.1-3.2-1-1.3-2 22.3-14.7 44.7-30.2 67.2-44.1q1.5-1.4-.5-1.7c-27 16.4-55.2 32.2-82.7 48l-16 .3q0-.6.4-1.2 29-19.2 58.9-37.3 1.5-1.5-.5-1.6c-22 13.4-44.7 26.3-67.2 39.1q-.5.5-.5 1.1l-14 .7q.1-.6-.5-.9-1.3 0-2.3-.5.1-.6.7-1c17.2-10.5 34-21.8 51.3-32q1.7-1.5-.5-1.6l-8.3 5.1q-26.2 15.3-52.6 30.2-.6.3-.8.9-6.5.1-13 .6-5-.4-.8-3.1l93.2-59.7c1.5-1 0-2.2-1.3-1.3-19.7 12.5-40.5 23.3-60.6 35.5q-24 14-48.2 27.7-.9.4-1.3 1.4-5 .1-10 .5-2.4-.7-4.9-1.2.5-1.5 1.7-2.2 11-7 22.3-13.4 2.6-2.2 5.6-3.5 1.5-.7 2.1-2.1-.9-.7-1.9-.1a910 910 0 0 1-37.4 22q-.4.3-.5.8l-14 .2q.3-2.6 2.5-4.1 18.7-11.6 37.6-22.7 1.8-1.3-.4-1.4c-1.8.4-7.9 4.2-9.7 5.7-4.1 2.4-37.5 21.2-38 22.5l-13-.1q-.6-2.5 1.6-4c24.3-15 48.5-30.4 73.1-44.7q1.5-.8 2.2-2-1-.8-2-.2-3.5 2.4-6.9 4.4l-78 45.1q-1.5.6-3.2.9-12.5-1.1-24.5-4.6-1-.1-1.4-1.2c1.4-2.2 9-5 9-6.8q2.4 0 3.1-2 1.5.5 2.1-1a4 4 0 0 0 3-1.7l6-1.9c33-20.4 65.8-41.1 99.1-60.8q1.7-1.6-.5-1.6c-41.3 24.8-83.7 48.3-125.2 72.8q-1.4.6-2.7.8a67 67 0 0 1-6-4.4q-.5-1.8 1.2-2.7 23.7-14.4 47.5-28.4c1-1 3-1.3 3.4-2.7q-.8-1-2-.3c-13.4 8.1-26.4 16.1-40.4 23.2-2.6 2.5-9.9 5.2-11.5 7.7l-1 .1a51 51 0 0 1-8-17c48.2-30 96.5-60.3 145.2-89.5q.7-.3.8-1.1-1-1-2-.2c-47.3 28.3-95.6 55.6-143.3 83.1q-1 .6-2.4.5l-.8-6.7q.2-2.1 1.8-3.2c38-23.3 75.7-47 113.8-69.5 1.7-1 .4-2.4-1.2-1.4l-14.4 9L80 381q-.5-16.5 0-33 1.5-.5 3-1.4 10.3-6 20.5-12.6c8.9-5.2 17.8-10.1 26.6-15.6q1.6-1.2-.5-1.4-.8 0-1.4.6l-46.1 27.2a3 3 0 0 1-2.1.2l.2-10q5.1-2.5 9.9-5.5l71.8-44.2c7.9-5.2 16.7-8.7 23.8-15q2-1.1 4-1.9c-.6-1.4-2.8-.4-3.7.2l-81.2 46.9c-7 4.3-15.2 7.5-21.8 12.5l-1.3.3-.7-.1q-.3-4.5 0-9.2l77.8-47.9q10.5-5.2 20.2-11.7c1.5-1.1.4-2.4-1.3-1.2L84 312.4c-2.5 1.7-2-1-2.8-2.4l.6-7 97-59.8q.7-.5 1-1.4l.4-.4 11.7.6c.5 1.6 3.4 1.3 4.2 0l26.8-.6c1.9 2.2 5.5 1.8 7.2-.2l20-.2q2.3 3 6 1.3.6-.4 1-1.2h9.3q.8.4.9 1.2c.8 26.7-3.7 53.7-.9 80.9 1.1 12 5.3 29.5 20.5 29.1 3.4 3.4 7.4.2 10.4-2.1q1.4 0 1.7-1.3h1q.8 0 1.2-1 1.8-.8 3.5-2 1 0 1.4-1c1.7 0 3.2-3.3 3.6-4.6 8.7-30.3 1.5-65.8 3.7-97.3q1-.7 1.8-1.9c8.2-1.2 17.6-.9 25.8-.2 1.9 3 4.6 2.6 7.2.7 2.5-.4 7.5.2 10 .7q.1 1 .7 0 16 .8 32 .5c1.3 0 3.3.6 4.2-.8a47 47 0 0 0 24-10.1c2.7 1.2 13.8-7 17-8.3 1.4-1 .8-2.5 2.9-2.9a4 4 0 0 0 2-.3l10.2-6.3h1l8.7-5.6q2.1-.7 3.8-1.9a805 805 0 0 1 32.5-18.7Zm-195.1 14q1.5.6 2.3 2.1l-12.1 7.5q-.6.1-1-.2 5.6-4.4 10.8-9.5ZM198 206q-10 6.3-20.3 11.8-.6-.5-.2-1.1l5.4-9.8c4.3-1.2 10.7-1 15.1-.8Zm73.2-.2q1.3 0 2.1 1L244.8 223a1 1 0 0 1 0-1.1q5.4-6.8 10.2-14 8.2-.7 16.2-2.2Zm-58 .9q3 0 6 .3l-1.2 1.3q-6.2 3.8-12.7 7.2-.5.3-1 0 4.4-4.6 8.9-8.8Zm140.9.5a3 3 0 0 0 1.3 1.5q-20.8 11.7-41.3 24-1 .5-1.8-.2 14.6-12 29-24.5 6.3 0 12.8-.8Zm-38.9.4 9 .7-20.8 12.3q-.6.3-1-.2zm89.7 3.1 1.4 1.4c-.3.8-5.4 3.5-6.4 4.2l-1-.2.6-1.2c1.6-1.2 3.2-4.4 5.4-4.2Zm-154 25.3q-5 .3-10.1 0c1.5-2.5 20.7-12.7 24.7-15q1-.8 2.4-.5l-16 14q-.6.6-1 1.5Zm-28 1.2q-9 .6-18 .2 13.5-8.1 27.1-15.9c.8-.2 1.4-1 2-.1q-5.7 7.8-11.1 15.8Zm119.1-1.5q-8-.3-16 0 11.8-7.3 24-14.3c.9-.6 2.7-.8 1.7.8q-5 6.7-9.7 13.5ZM156 222c-.6 4.1 1.3 7.6 2.9 11.2l-1.6.6q-5.5 3.9-11.5 7.2a99 99 0 0 0-10 6.8c-10.3 2.4-44.3 26-53 28.2l.3-10q33.7-20.5 67.2-41.4c1.6-.8 3.9-2.8 5.7-2.6Zm211 14c-2.6-.2-5.5 1-8 .2 0-1.4 12.9-7.6 14.6-9.3q.9-.7 2.1-.4-4.6 4.5-8.7 9.4Zm-192-3.7q-1.5 0-2.1-1.5 2.5-1.5 5.1-3.4c.8-.6 2.4-.6 1.6.7a22 22 0 0 0-4.5 4.2Zm99 4q-3 .2-6-.4l1.2-1.2q5.8-3.2 11.4-6.8 1-.6 2.2-.3-4.5 4.3-8.7 8.8Zm115.2 1q-3.6 0-7.1-.6l10-6q.9-.6 1.8-.2zM160 234.6c3.8 2.7 7.3 5.4 12 6.3q.7 1.7-1 2.4L88.5 291q-3 2-6.4 3 0-5.2.5-10.3 34.5-21 68.8-42.2c1.5-1.5 4.8-2 4.8-4.5zM280.4 247q-.2-1.5-.2-3.2 5.8-3.3 11.3-7 1.1-.8 2.3-.3 0 .7-.6 1-2 1-3.6 2.4c-2.4 2-6.6 6-9.3 7Zm-58.3.9q-2.1.1-3 2-1.3-.2-2 1c-1.5 0-4.5 1.4-5 3q-2.1.1-3 2-1.6-.3-2.1 1.1a4 4 0 0 0-3.3 1.8q-1.8.5-2.9 2.1-1.5-.4-2 .9-1.7.4-2.6 1.8c.9 1.4 2.5-.8 2.6-1.8q1.4.4 2-.9 2.2 0 3-2 2.1.2 3.2-1.9 1.4 0 2-1 2.2-.3 3-2.2c1.8 0 4.5-1.3 5.1-3q1.5.3 2-.8 2.1-.4 3-2.1c.5.1 2.6-.3 1.6-1q-1.1 0-1.6 1Zm124 2a8 8 0 0 0-5 3q-1.2-.1-1.8.7c.5.9 1.8.2 1.7-.7 2 .2 4.1-1.5 5.2-3 1.1.4 6-2.3 4.5-3.1a8 8 0 0 0-4.5 3Zm141 8-10.4 6.2q-1 .7-1.5 1.7a7 7 0 0 0-5 3.1q-1.2-.1-2.1.5a6 6 0 0 0-3 2.6c-1.7-.1-4 1.4-5 2.8a2 2 0 0 0-1.8.8c.6 1 1.6-.1 1.8-.8 1.8.3 4-1.4 5-2.8 1.4-.3 4.7-1.5 5-3a6 6 0 0 0 5-3.2q1.1.2 2-.3l8.4-4.8 1.6-1.4c.9-.3 4.1-1.2 2.6-2.5q-1.5 0-2.7 1Zm-207.1 5v-3c1-.3 3.5-2.8 4.1-1.5q-1.5 2.8-4.1 4.5Zm22 44.8v4.1q-3 1.2-5.6 3-.7.3-1-.4 3-3.6 6.6-6.7Zm-23.5 13.4q-.4-2.6-.3-5 3.1-.9 5.6-3 .7-.3 1.1.3-3.3 3.7-6.4 7.7ZM85.4 356c1 .2 5-1.3 3.2-2.8a5 5 0 0 0-3.2 2.8Zm-3.6 2.2q1.2 0 2.1-1c-.7-1-2.1 0-2.1 1ZM395 386.9a9 9 0 0 0-5.7 3.6c1.3.5 5.3-2.1 5.7-3.6 1.1 0 3 0 3-1.4-1-.5-3 .1-3 1.4Zm37 22.1c-1.8-.3-4.5 2-6.2 2.8L424 413l-1.3.7c-1 .6-3 2.1-1.3 3.1l5.7-3.8c1.2-.9 4.4-2.6 4.9-4 .4-.3 4-1 2.5-2q-2.4-.3-2.5 2Zm-355 9 4.4 6.9h-4.5c-.6-2-3.3-5.5 0-6.9Zm6.3 8.4q3.5 3.2 7.7 5.7c-4.7 4.5-10.2.4-7.7-5.7Zm387.5 4.9c.2-.2 1.8-.7.7-1.1q-.6.3-.7 1Z"/><path fill="#d9daf3" fill-opacity=".4" d="M395 387c-.4 1.4-4.4 4-5.7 3.5a9 9 0 0 1 5.7-3.6"/><path fill="#d2d4ee" fill-opacity=".5" d="M81.8 358.3c0-1 1.4-2 2.1-1q-.9 1-2.1 1"/><path fill="#d3d4ef" fill-opacity=".7" d="M85.4 356a5 5 0 0 1 3.2-2.7c1.8 1.5-2.1 3-3.2 2.8"/><path fill="#e1e1fa" fill-opacity=".4" d="M375 274a4 4 0 0 1-3 2q.8-2 3-2"/><path fill="#e2e2f9" fill-opacity=".5" d="M451 268c0 1-1.5 1.6-2.1.6q.8-.9 2-.6"/><path fill="#d1d2ec" fill-opacity=".4" d="M200.7 261q-.6 1.2-2 .9.5-1.3 2-.9"/><path fill="#d3d4f0" fill-opacity=".4" d="M203.6 259q-.6 2-2.9 2 1-1.6 3-2"/><path fill="#d9d9ee" fill-opacity=".2" d="M487 258v1.4l-1.6 1.4-8.3 4.8q-1 .4-2 .3.5-1 1.5-1.7z"/><path fill="#6f6f7b" fill-opacity=".1" d="M487 259.4V258q1-1 2.6-1.1c1.5 1.3-1.7 2.2-2.6 2.5"/><path fill="#d5d9f0" fill-opacity=".3" d="M206.9 257.2q-1 2-3.3 1.7a4 4 0 0 1 3.3-1.7"/><path fill="#d8d8f2" fill-opacity=".3" d="M209 256q-.7 1.2-2.1 1.1.5-1.5 2-1"/><path fill="#dadff9" fill-opacity=".3" d="M212 254q-.9 1.9-3 2 .9-1.9 3-2"/><path fill="#e1e1fa" fill-opacity=".2" d="M229 193a7 7 0 0 1-5 3c.6-1.6 3.2-3 5-3"/><path fill="#e0e0f9" fill-opacity=".5" d="M241 186a3 3 0 0 1 2.6-2c1.5 1.2-1.7 2-2.5 2"/><path fill="#e2e2fa" fill-opacity=".3" d="M241 168a2 2 0 0 1-2 1q.8-1.2 2-1"/><path fill="#e2e2f9" fill-opacity=".5" d="M249 163q.4-1 1.6-1.1c1.2.7-1.1 1.3-1.6 1.2"/><path fill="#cbcce9" d="M90 85.9c-.3 1.2-2 2.6-3.2 1.6.2-1.5 2-1.8 3.2-1.6"/><path fill="#dbdcf5" fill-opacity=".5" d="M90 85.9q.5-2 2.5-2c1 1.2-1.7 1.9-2.5 2"/><path fill="#e1e1f9" fill-opacity=".5" d="M332 75q-.9 2-3 1.9 1-1.5 3-2M108.9 97.4q.2-1.5 1.6-1.6c1.2.9-1 1.4-1.6 1.6M483 138q-1.1 1.5-3 1.9.6-2.3 3-2m-307 23q.7-2 2.6-2.1c1.3 1-1.8 1.9-2.5 2m219 168.8c-.3 1-2 2.6-3 1.7q1-1.5 3-1.7"/><path fill="#d3d3ea" fill-opacity=".2" d="M353 61.7h.8q.2.8-.2 1.3l-7.6 4.5q-1 .6-2 .4.4-.8 1-1.3z"/><path fill="#ababbc" fill-opacity=".1" d="M358.7 59.3c.8 1-2.2 1.8-2.6 2.4q-1 .4-2.3 0h-.8l4.5-2.6q.6-.1 1.2.2"/><path fill="#e2e2f9" fill-opacity=".5" d="M102.9 43.2c.3-1.1 2.9-4 4-2.7-.3 1.4-3 2-4 2.7m148 99.9c.2-.7 1.4-1.7 2-.8q-.7.8-2 .8m11 47.9c.3-.7 1.4-1.6 2-.8q-.7 1-2 .8"/><path fill="#e5e5fb" fill-opacity=".2" d="M328.7 22.2q-.3 1.1-1.3 1.6l-8.3 4.9q-1 .4-2 .4 0-.9.9-1.4l8.9-5.5q.9-.5 1.8 0"/><path fill="#72727c" fill-opacity=".1" d="M332.3 19.6q-.7 2.7-3.6 2.6a4 4 0 0 1 3.6-2.6"/><path fill="#d1d1e4" fill-opacity=".2" d="M210.7 17.4q.3.3 0 .7c-1.6.8-6 4.2-7.6 3.8.8-1.7 4.8-3.7 6.4-4.8q.6-.2 1.2.3"/><path fill="#e1e1f9" fill-opacity=".5" d="M454.7 15.2q.5-2.3 3-2.2c1.4 1.1-2.4 1.8-3 2.2M115.9 53q.6-1 1.7-1.7 2.4-.3.5 1.3zm213 23.9c0 .7-1.2 1.8-1.7.8q.6-1 1.7-.8m152 51c.1.9-1.2 1.9-1.8.8q.7-1 1.9-.8M339 136c-.5.9-2 2.7-3 1.7.2-1.3 2-1.5 3-1.7m141 4c0 1-1.5 1.7-2 .6q.5-1 2-.6m-46 4c0 .8-1.3 1.6-1.8.7q.7-.9 1.8-.6m-76 31c-.7.7-2 3.1-3 1.7.2-1.3 2.1-1.3 3-1.6m9 104c-.2.7-1.4 1.6-2 .7a2 2 0 0 1 2-.8m72 39.9c0 .8-1.2 1.9-1.8.9q.6-1 1.8-.9m-9 37.1q-.5 1.2-1.7 1.8-2.4.3-.4-1.2 1-.4 2.2-.6m28.8 69q1-1.3 2.6-2c1 1.4-1.9 1.5-2.6 2"/><path fill="#b5b7d2" fill-opacity=".2" d="M115 422c-.2 1.9-7.7 4.6-9 6.8h-1.3q.2-.8-.6-.8.3-.8 1.2-1.2 4-2 7.7-4.4 1-.5 2-.4"/><path fill="#bfc1e0" fill-opacity=".4" d="M120.1 419q-.6 1.5-2 1 .5-1.2 2-1"/><path fill="#bfc2e0" fill-opacity=".5" d="M43 368q-.7 2-3 2a4 4 0 0 1 3-2m6 37q-.9 1.8-3 2 .6-2.1 3-2m74.1 12.3a4 4 0 0 1-3 1.7q.6-2.4 3-1.7M49.9 428c.4-.6 1.5-1.6 2-.7q-.8.9-2 .7M75 462c.6-1.3 3.3-3 4.6-3 1.3 1-3.7 3-4.6 3m120 30q-.9 2-3 2a4 4 0 0 1 3-2m-80.8 6-.2 1h-1.4q.6-.8 1.6-1"/><path fill="#bfc2e0" fill-opacity=".3" d="M60 325c-.3 1.4-3.6 3-5 3 .8-1.7 3.1-2.9 5-3m58 95q-.7 2-3 2a3 3 0 0 1 3-2m42 34c.1 1-1.3 1.1-2 1q.5-1.2 2-1"/><path fill="#cdcfea" fill-opacity=".5" d="M198.7 261.9c0 1-1.7 3.2-2.6 1.8q1-1.5 2.6-1.8"/><path fill="#adbdd6" fill-opacity=".2" d="m145.8 241 .2 1.2q0 .8-.9 1.4c-2.3.7-7.1 5-9.3 4.2a99 99 0 0 1 10-6.8"/><path fill="#c0c3e1" stroke="#c0c3e1" stroke-width=".5" d="M156.1 237.1c0 2.5-3.3 3-4.8 4.5l-68.8 42.2.4-7.8c8.6-2.2 42.6-25.8 53-28.2 2.1.7 7-3.4 9.2-4.2q.9-.5 1-1.4c1.8 0 4.2-2 5.6-3zm-26.3 15c.7-.2 4.2-1 2.8-2.2q-2.4 0-2.8 2.3Zm-36 170.1q-1.2-1-2-2.3l.2-.9c1.6-2.5 9-5.2 11.5-7.7 14-7 27-15.1 40.4-23.2q1.2-.7 2 .3c-.3 1.4-2.4 1.8-3.4 2.7q-23.8 14-47.5 28.4-1.6.9-1.2 2.7Z"/><path fill="#9da3c7" d="M354 207.2q1.5-.3 3.2-.1-.6 1.2-2 1.6a3 3 0 0 1-1.2-1.5"/><path fill="#6f6f78" fill-opacity=".2" stroke="#6f6f78" stroke-opacity=".2" stroke-width=".5" d="m242.7 201.7 1.2.4-.2.6h-1.5q0-.7.5-1Z"/><path fill="#e2e2f9" fill-opacity=".3" d="M489 43q-.3 1-1.2.8zm-38.7 29.3q-.6.5-1.3.7.3-1.1 1.3-.7M464 76q-.1 1.1-1.3.7zm-30 1q-.3 1-1.3.7zm-31 1q-.3 1-1.2.8.4-.5 1.2-.8m60 17q-.3 1-1.3.8zm-89 1q-.3 1-1.3.7zm60.3 4.3q-.6.5-1.3.7.3-1.1 1.3-.7m-73 6-1.2.7q0-1.2 1.2-.7M379 111q-.1 1.1-1.3.7zm26.3 37.3-1.2.7q0-1.1 1.2-.7m22 38-1.3.7q.3-.9 1.3-.7m11 11-1.3.7q.3-1 1.3-.7M473 213q-.1 1-1.2.8zm-43.7 30.3-1.3.7q.3-1.1 1.3-.7"/><path fill="#bfc2e0" stroke="#bfc2e0" stroke-width=".5" d="M54 81q0 .5-.2.8-6 6-12.5 11.6.9.4 1.7 0a514 514 0 0 1 18.7-11q1-.5 1.1-1.5l7.5.3q.6.6.4 1.4l1 50A2137 2137 0 0 1 70.1 253c-.6 1.2-3 .7-4.1 1.3-2.4 4-5.4 5-9 7.6.7-1.8-1.5-1.4-2.3-.7l-39.8 23-.1-11.4c2.5.1 16.5-10.2 19.5-12.3q4-2 7.5-5 3-1 5.2-3.6c.7 0 4.4-.7 2.5-1.8q-1.8 0-2.5 1.8a8 8 0 0 0-5.3 3q-1 0-1.7.5a80 80 0 0 1-7 4 214 214 0 0 1-18.3 10.5l.2-23.2q1 .1 1.8-.4 11-7.8 22.4-14.9.9-.3.7-1.3c1 0 6-2.2 4.8-3.3-1.4 0-4.1 2-4.8 3.3-2.4.2-21.2 12-25 13.8l.2-11.4q.8.1 1.7-.4 6.5-4.7 13.4-8.7.8-.4.7-1.2a4 4 0 0 0 3.3-2.2 2 2 0 0 0 1.8-.8c-.6-1-1.8 0-1.8.8q-2.4 0-3.3 2.2h-1.2q-4.5 3-9 5.6-2.9 1.5-5.8 2.5 0-6 .2-11.7a2 2 0 0 0 1.7-.3q21.8-16.2 44-32.2 1.2-.9 2-2.1c1-.7 2.7-.5 3.2-1.7-1-1.7-2.3 1.2-3.1 1.7l-1.9.2Q38 197.9 14.8 211v-12q1.2.2 2.3-.5c6.4-4.6 25-16 28.7-21.4a4 4 0 0 0 3-1.7c-.8-1.2-2.6.9-3 1.7-10.6 4.9-20.5 11.7-30.9 17.1l-.1-12.2q1.2 0 2.2-.5c4.3-3.7 28.4-20.7 30-23.4.8.2 3.7-1 2.5-2.1q-1.8.4-2.6 2.1a293 293 0 0 0-30.7 17.3l-1.1-.3q-.5-5.7 0-11.3c1.6.1 18-12.6 19.7-14.6.7-.4 3.8-1 2.7-2.2q-2.1 0-2.7 2.2c-2.6 0-16.8 9.2-20 10.9l.2-12.4q1 0 1.6-.5 7.7-5.7 15-11.6-1.6-.6-2.4 1.1l-2.2.8-11 6.4-.8.1q-.6-21.1-.2-42.4C15.2 80.2 37.6 79 54 81Zm-24 3q.2 1 1 .4a1 1 0 0 0-1-.4Zm35.7 9.3c.8-.1 4.4-1.1 2.9-2.4q-2.1.4-3 2.4Zm18 19.7-.1-1.8a149 149 0 0 0 19.3-11.8c1.6-.6 1.2 1.7.3 2.2-4.1 2-16.2 10.8-19.5 11.4Zm-66 5.3c.2 1.6 4.5-2.3 5-2.8-.7-1.2-4.6 1.6-5 2.8Zm96.3.7-4 3c-7.4 5.3-16 13.2-23.7 17.6-2.4.9-1.9-4.9-1-5.6q13.8-8 27.6-15.7 1.2-.7 1.1.7Zm-29.5 97.9v-3.7c25.9-14.6 52.3-29.3 77.4-45 1.4-1 3 .3 1.3 1.4-25.5 14.9-51 31.1-76.2 46.7a5 5 0 0 1-2.5.6Zm102-37q-.5 1.8.6 3l-1.4 1.3L92 242.5a48 48 0 0 1-8 4.5l.1-8q51.3-29.3 102.5-59ZM84.7 203v-3q1 0 2-.5 13.8-8 27.2-16.2c1.5-1 3 .2 1.3 1.3-4 2.5-8.3 4.5-12 7.3A321 321 0 0 0 84.6 203ZM197 193l-.1 2c-1.8 2.1-1.9 2.7-4.7 3.9q-1.3 1-2.3 2.3-3.9.7-7.8 1.1l-1.2-.9c5-1.2 11.1-6.2 16.1-8.4Zm-39.6 23.2q-1.2 2.8-1.5 5.8c-1.8-.2-4.1 1.8-5.7 2.6q-33.5 21-67.2 41.4l.4-11.2c.3.6.1 3.8 1.5 2.7l66-38q3-2 6.5-3.3ZM172 241l.8.1q.5 1.1 1.7 1.2l5.3-.5q-.2.9-1 1.3l-97 60 .2-9q3.4-1 6.4-3l82.5-47.7q1.6-.7 1-2.4ZM20.9 255q-2.1.1-3 2-1.8-.4-2 1.5c.9.7 1.7-.8 2-1.4a3 3 0 0 0 3-2.2q1.2.3 2-.6c-.6-1-1.6 0-2 .6Zm60 64 .3-9c.7 1.3.3 4.1 2.8 2.4q47-27 93.7-54.2c1.7-1.2 2.8.1 1.3 1.2q-9.7 6.3-20.1 11.7zm-.7 16c.2-1.4-.2-3.7.8-4.9q.7-.3 1.3-.9l.7-1.2c6.6-5 14.7-8.2 21.8-12.6l81.2-46.8c.9-.6 3.1-1.6 3.7-.2q-2 .8-4 2c-7 6.2-16 9.7-23.8 14.9L90 329.5q-4.8 3-9.9 5.5Zm-11.1-53q.5 0 .6.6-1 26.3-1.7 52.7-1-.4-2 0l-51.3 29.8.3-11.3c1.9.3 31.6-20.2 36-22.5q.6-.5.7-1.3H53q1.2-.7 2-2c1.3 0 4.6-1.6 4.9-3a3 3 0 0 0 3-2c.4.2 2.7-.4 1.5-1.1a2 2 0 0 0-1.6 1.2q-2 0-3 1.9c-1.8.1-4 1.3-4.9 3q-1.3-.2-2.2.8l-1 .5q-18.4 10.6-37 21v-33.4q1.2.2 2.3-.4l47.3-31.6q1.2-.6 1.4-1.8 1.8 0 3.3-1Zm13.8 120-1.6-7q1.3 0 2.4-.6c47.7-27.5 96-54.8 143.2-83.1q1.2-.7 2 .2 0 .8-.7 1.1c-48.7 29.1-97 59.5-145.3 89.4Zm-2.4-13.8q-.5-3.6-.5-7.2l100.5-58q7.2-4.3 14.4-8.9c1.6-1 2.9.4 1.2 1.4-38 22.6-75.8 46.2-113.8 69.5q-1.6 1-1.8 3.2ZM80 348v-3a3 3 0 0 0 2.1-.2l46.1-27.3q.7-.4 1.5-.5 2 .2.4 1.4c-8.8 5.5-17.7 10.4-26.6 15.6q-10.1 6.5-20.6 12.6-1.5.9-3 1.4Zm-64.3-10c-.1 3 6.3-1.5 4.9-2.1-2 .1-2.6 2-4.9 2Zm52.2-.2q0 14.5-.5 29.1-1.2 0-2.4.6l-50 28.9q.3-11.8 0-23.6 1 0 1.7-.5l49.4-32.7zm55.2 79.5q-2.4-.6-3 1.7-1.5-.2-2 1a3 3 0 0 0-3.1 2q-1-.1-2 .4-3.7 2.4-7.7 4.4-.9.5-1.2 1.2a8 8 0 0 1-4.3-1.4q1.4-.2 2.7-.8c41.6-24.5 83.9-48 125.2-72.8q2.2 0 .5 1.6C195 374.3 162 395 129 415.4zm-80-49.4q-2.1.2-3 2c-1.6-.1-4.4 1.8-5.2 3.1q-3 .4-5 3c-.6-.1-1.9 0-1.8.9l-1.3.1-7.2 4.1c-1.7 1.2.4 2.3 1.6 1.3q3-1.8 5.8-4.2l1.3-.3q1.2-.6 1.7-2a6 6 0 0 0 4.9-2.9c1.5-.1 4.7-1.6 5.2-3q2 0 3-2c.5.2 2.6-.3 1.4-1q-1 0-1.5 1Zm24.8 1c.3 16.3 1.4 34.4 9 49.1-3.3 1.3-.6 4.8 0 6.8q-31.5 18-62.8 36.4c.5-3.2 0-8.4 1.1-11.3l10.2-6q1-.6 1.3-1.6 1.8-.3 3.3-1.3l11-6.7q.7-.4 1-1.3c1.5-.3 4.6-1.4 5-3q2.1 0 3-2 1 .2 2-.7c-.7-.9-1.7 0-2 .7q-2.1 0-3 2c-1.8 0-4.3 1.3-5 3a4 4 0 0 0-2 .3l-8.4 5q-.9.5-1.6 1.3a4 4 0 0 0-3.3 2.7q-.9-.5-1.8-.1l-8.9 5.1-.7 1q-1-11.3 0-22.7.9.5 1.8-.1 9.7-6.3 19.5-12.2c.5-.6 2.4-1.4 2.3-2.3q1.5.3 2-1 2.2 0 3.1-2a2 2 0 0 0 2-1q2.1-.2 3-2c.5.2 2.6-.3 1.5-1a2 2 0 0 0-1.5 1q-2.4-.1-3 2-1.4-.3-2 1-2.2 0-3 2a2 2 0 0 0-2.1 1q-2 .5-4 1.7L15 424.2l-.2-21.2q1.2 0 2.2-.6l48.4-31.5zM222 433.7l-19 .5q.4-1 1.3-1.4 24.2-13.7 48.2-27.7c20-12.2 40.9-23 60.6-35.5 1.4-.9 2.8.2 1.3 1.3q-46.5 30-93.2 59.7-4.2 2.7.8 3.1Zm-77 1.4q-6.6 0-13.2-.5l3.3-.9 77.9-45 6.9-4.5q1-.6 2 .1-.7 1.4-2.2 2.1c-24.6 14.3-48.8 29.7-73.1 44.7q-2.2 1.5-1.6 4Zm159.2-3.5-17.2.2c27.4-15.8 55.5-31.6 82.6-48q2 .3.5 1.7c-22.5 14-45 29.4-67.2 44-1.9 1.1.2 2 1.3 2.1Zm-33.2.5-9 .1q0-.6.5-1 33.9-19.3 67.2-39.2 2.1 0 .5 1.6a1653 1653 0 0 0-58.9 37.3q-.4.6-.3 1.2Zm61-1h-13q1.7-1.6 3.8-2.7l61-35.1c1.9-1.3 3 .2 1.2 1.2q-24 15.9-47.7 32.1c-1.4 1.2-4.8 2.8-5.3 4.6Zm-84 1.8-13 .2q.3-.6.8-.9 26.4-15 52.6-30.2l8.3-5.1q2.3.2.5 1.7c-17.3 10.1-34.1 21.4-51.3 32q-.6.2-.7.9 1 .6 2.3.5.6.2.5.9Zm-82 2.3h-8c.5-1.3 33.9-20.1 38-22.5a43 43 0 0 1 9.8-5.7q2.1 0 .3 1.4-18.9 11.1-37.6 22.7a6 6 0 0 0-2.5 4Zm191-4-8-.1q.1-.6.7-1 20.1-11.3 40-23.3 2.2.2.5 1.7c-11.2 6.7-21.7 14.6-32.6 21.6q-.6.4-.6 1Zm-164 3.5q-6.5.3-13 .3 0-.5.5-.8 19-10.6 37.4-22 1-.6 2 0-.7 1.5-2.1 2.2-3.1 1.3-5.7 3.5-11.3 6.5-22.3 13.4-1.2.8-1.7 2.2l5 1.2Zm215-2.7-6-.2c-.8-1.4-6.5.5-7.9-1.3l24-14c2.1-1.5 2.8 1 1 2.2l-15.8 11.7c1.2 1.7 3.7.2 4.7 1.6Zm23.3-7.7-.2 5.4q-1.1.9-1.4 2.2c-2 .9-8.2.1-10.7.2q6-4 12.3-7.8ZM82 425.7l1.2.7c-2.5 6.1 3 10.2 7.7 5.7l3 1.5Q54.8 456 15.8 479q-.7-.5-.7-1.4l-.8-8.7 3.3-1.7zM17 436q-.6 0-.9.4.6.2.9-.4c.5.2 2.7-.4 1.5-1.1q-1.2 0-1.5 1Zm378.3 1q-6 4.1-12 9-3.3 1.5-5.8 4.2-1.8 0-2.5 1.5c-.9.5-2.8.8-3 2 1.1 1.3 2.7-1 3-2 2.1.4 2.2-.3 3.8-1.5l20.8-12q.3-.6 0-1.2c5.8.3 13.9 0 19.3 1l-.2 1q-14.7 11.3-29.5 22.3.7.6 1.7.4 18.4-11.1 37-21.6l.7-.1q1.2 18 .5 36c-2.4-.4-5.5 4.5-6.4 6.3q-2.2-.3-2.5 2 1.8-.2 2.5-2 3-.7 5.4-2.7a25 25 0 0 1-6.6 14.8c-2.1-.5-3 1.1-5 1.6l-.9.7q-.5.8-.5 1.5c-.5-.2-2.5-.4-2 .7q-9 .9-18.3.1l.4-1 14.3-15.4q-.7-.4-1.6.1c-3.3 2.4-26.3 14.3-26.8 16.3q-27.8.3-55.5.2 0-.6.6-1 17.8-13 35.1-26.4 1-.6 1.4-1.6c.6-.3 3.9-1 2.8-2.2q-2.2 0-2.8 2.2c-5.4.4-41.3 23-48.8 27.4q-.8.5-.8 1.4-9.2.4-18.5.1l1.3-1.4 36-25.7c1.2-.8 4.6-2.8 5-4 .5-.2 4-1 2.6-2q-1.7.3-2.6 2-3 .3-5 2.7-1.5.3-3 1.3L285 497.5q-1 .6-.8 1.8l-57.5-.2c.8-1.1 18.3-12.3 21-14q.7-.7 1.5-1l8.9-5.8a2 2 0 0 0 1-1.4 4 4 0 0 0 3-1.9 2 2 0 0 0 1.8-.8c-.5-.8-1.6.2-1.8.8q-2.1 0-3 2c-1.6-.3-3.1 1.6-4.7 2q-2.8 1.5-5.2 3.6-1.7.5-3 1.4-12 6.7-23.8 13.6-1 .4-1 1.5-18.7.6-37.5 0c-.2-1.7-2 .3-3 .3q-7.5.1-15-.2 0-.7.7-1.1 14-9 28.1-17.8 1.4-1 2.2-2a8 8 0 0 0 5.2-3.3c1.8 0 3.8-1.4 5-2.7-.8-1.3-4.7 1.7-5 2.7a7 7 0 0 0-5.2 3.2c-2.5.3-14.5 7.6-17.3 9.7-4.8 2-12.5 7.1-17.5 9.7q-.7.7-.7 1.5-9.3.6-18.5 0 0-.6.6-1 34-22 67.8-44.3c1.6-1 3.8-2 4.7-3.6 1.5-.3 4.6-1.6 5-3.2q2-.2 3.1-2c.5.2 2.6-.4 1.5-1q-1 0-1.5 1a3 3 0 0 0-3 2 7 7 0 0 0-5 3.2c-2-.8-4.2 2-6 2.5-25.7 15-51.9 30-77.7 44.9q-1 .4-1 1.5-8.7.7-17.3 0l.2-1.1 16.9-10.6q.6-.7 1.4-1.3 3-1.4 5.8-3.2l8.1-5q1-.9 1.6-1.9a7 7 0 0 0 5-3c1.3 0 4.6-1.6 5-3q1.1 0 2.2-.3 2.1-1.8-.6-1.3-1.2.5-1.7 1.7c-1.7-.4-4 1.5-5 2.9-1.7.1-4.3 1.3-4.9 3a4 4 0 0 0-2 .4l-9 5.2q-.7.8-1.5 1.3-13.2 7-26.2 14.7-1 .5-1 1.4c-4.3.5-13.4.9-17.3 0l.3-1q27-17 53.4-34.2 1-.2 2-.7 5.3-3.7 10.8-7.2.4-.3.4-.9c.8.1 2.2 0 2-1q2-.5 3.1-2c.5.2 2.5-.4 1.4-1q-.8 0-1.4 1-2.1 0-3 2-1.5-.2-2 1-1.2 0-2 .6l-12 7c-20 11.8-40.6 23.3-60.7 35q-1 .4-1 1.4-8.7.9-17.2 0c1.8-3 7.6-4.2 8.8-7 1.5.3 6.6-2.8 7.1-4q2.1-.2 3-2 1.3.2 2-1c.8.1 4.2-.8 2.6-2q-2 0-2.7 2-1.2-.2-2 1-2 0-2.9 2c-1.6-.3-6.4 2.5-7.1 4-2.2 0-8 4.3-10.4 5.3l-1.4 1.4a65 65 0 0 1-17.1.3l.2-1q36-22.7 71.8-45.6.7-.4 1-1 1.8-.4 3-1.6l9-5.4q.9-.4.8-1.5.8-.9 1.2-1.9 21.2.2 42.3-.4c73.6-3 147.4-5.3 221-3.7ZM275 492c-1.3-.3-8 4-8.7 4.8.6 2 8.4-3.8 8.7-4.9 1 0 2.9 0 3-1.4-1-1.2-2.6.4-3 1.4Zm-80 0q-2.1.1-3 2c-1.2-.3-6 2.1-4.7 3.2 1.2-.3 4.3-1.9 4.6-3.2q2.2 0 3.2-2 1 .2 1.8-.7c-.5-.9-1.7 0-1.9.7Zm168 6.3c.7.2 2.6-.6 1.5-1.4q-1.3.1-1.5 1.4Z"/><path fill="#bdc0e3" fill-opacity=".3" d="M275 492c-.3 1-8.1 6.8-8.7 4.8.6-.9 7.4-5.1 8.7-4.9"/><path fill="#bfc2e0" fill-opacity=".4" d="M84 486q-.9 1.8-3 2 .9-2 3-2m2-1q-.7 1.2-2 1 .6-1.2 2-1m277 13.3q.1-1.2 1.5-1.4c1.1.8-.8 1.6-1.5 1.4"/><path fill="#bec1df" fill-opacity=".3" d="M153 473a7 7 0 0 1-5 3c.6-1.7 3.3-2.9 5-3"/><path fill="#5f6171" fill-opacity=".1" d="M30 439.6v1.4q-1.4 1-3.3 1.3a4 4 0 0 1 3.3-2.7"/><path fill="#bec1e3" fill-opacity=".2" d="M42 433q-.3.9-1 1.3L30 441v-1.4l1.6-1.4 8.3-4.9a4 4 0 0 1 2.2-.3"/><path fill="#c0c0e2" fill-opacity=".2" d="M41 410q-.7 1.2-2.1 1a2 2 0 0 1 2-1"/><path fill="#bfc2e0" fill-opacity=".5" d="M47 252a3 3 0 0 1 2.5-1.8c1.9 1-1.8 1.8-2.5 1.8m16 71q.4-1 1.5-1.1c1.3.8-1 1.3-1.5 1.2M17 436q.4-1 1.6-1.1c1.2.8-1 1.3-1.5 1m207 9q.5-1 1.5-1c1.1.6-1 1.2-1.5 1m-61 7q.5-1 1.4-1c1.1.6-.9 1.2-1.4 1"/><path fill="#bfc2e0" fill-opacity=".4" d="M34 220a4 4 0 0 1-3.2 2.3 3 3 0 0 1 3.3-2.2M21 255c.4-.6 1.4-1.6 2-.7q-.8.9-2 .6M224 445a4 4 0 0 1-3 2 3 3 0 0 1 3-2m-66 25c-.4 1.4-3.7 3-5 3 1-1.4 3.2-3.2 5-3"/><path fill="#c0c2e0" fill-opacity=".5" d="M34 220c0-.7 1.3-1.6 1.9-.7a2 2 0 0 1-1.8.8M423 482.4a3 3 0 0 1-2.6 2q.3-2.4 2.6-2m-337 2.7q.7-2 2.7-2c1.6 1.2-1.8 2.1-2.7 2m109.2 7c.1-.7 1.3-1.6 1.8-.7q-.7.9-1.9.7"/><path fill="#bfc1e0" fill-opacity=".3" d="M47 158.1q.6-1.9 2.6-2.1c1.1 1-1.8 2.3-2.6 2.1m-12.1 215a6 6 0 0 1-5 2.8 7 7 0 0 1 5-2.9"/><path fill="#bfc2e0" fill-opacity=".4" d="M17.6 118.3c.4-1.2 4.4-4 5.1-2.8-.5.5-4.8 4.4-5 2.8M62.8 184c.8-.5 2-3.4 3-1.7-.4 1.2-2 1-3 1.7m-23 46.1c.7-1.3 3.4-3.3 4.8-3.3 1.2 1.1-3.8 3.3-4.8 3.3M15.7 338c2.3 0 2.8-1.9 4.9-2 1.4.7-5 5-4.9 2M163 452a4 4 0 0 1-3 2q.9-2 3-2m112 40c.4-1 2-2.5 3-1.4-.1 1.3-2 1.4-3 1.4"/><path fill="#bfc2e0" stroke="#bfc2e0" stroke-width=".5" d="M70.1 253h.6c-.7 6.2-.1 23-1.7 27.8q-2.2.3-3.2 2.3a3 3 0 0 0-1.8.3L16 311h-1q-.3-10.6-.2-21.3 1 0 1.7-.6L57 262c3.6-2.7 6.6-3.6 9-7.6 1.1-.6 3.4-.2 4.1-1.3Zm26 181.6c11.6 4.2 23.8 5.2 36 6.4l-1.3 2q-.9 0-1.8.5l-9 5.2q.6.5 1 1.1-1.2 1.2-3 1.5-1-.9-2.3 0l-79.9 46q-1 .7-.8 1.9c-4.6-.2-8.6-2.4-12.4-4.9l3-1.1q14.8-9 29.2-18.6 1 0 1.9-.6l6.7-4.2q1-.6 1.5-1.8c1.9.2 4.1-1.4 5.1-3 1.8-.2 4.1-1.3 5-3 .9 0 5.9-2 4.6-3-1.3 0-4 1.7-4.6 3-1.3-.3-4.8 1.7-5 3a7 7 0 0 0-5 3q-1.1-.1-2 .4l-9.1 5.2c-10.1 6.3-20.6 11.9-31 18q-.7.5-1 1.4a20 20 0 0 1-5.3-9q1.3.1 2.4-.4l74-47.1q1.2-1.5 3-1.9Z"/><path fill="#272727" stroke="#272727" stroke-width=".5" d="m97 6.2 5.3-.3h22.5l6.5-.2.7.2h55.3q11.7-.1 23.4.1l6.6-.1h21.9l9.7-.1a310 310 0 0 0 23 .1h7.4a265 265 0 0 1 17.9 0h21.6l.9-.2q3.3.3 6.5.2l10.6.1q3.3 0 6.5-.2l1 .2h49l17.8-.1h67.1q10.4-.4 19.4 5c19.1 13.7 11.4 48.5 11.6 68.6 1.2 76.3.2 152.7.5 229a274 274 0 0 0-.5 31c.7 25 5.3 53.3-3.4 77.2l-3.1 5.5q-.6.1-.9.7c-2.6 7.6-19.6 15.7-27.5 16q-1.3 0-2.5.2c-5.4.2-10.3 1-15.6 0l-3.5-.2q-4.7.1-9.2-.9-.9-.1-1.6.5a270 270 0 0 1 1.7 23c-.2 42.8-31.1 48.7-67.1 47.5q-15-.9-30.2-1.3c-.5-1-2.6-.6-3.5-.7q-6.9 0-13.7-.3l-3.4.1q-15 0-30.2.9h-256c-18.8-1.3-36.7-5.5-37-28.2-1.3-104.3.5-208.7-.3-313 .6-23.3-5.5-57.6 7-78.1q1.2-1.2.5-2.6 1.8.2 2.3-1.7l1.4-.9.8-1.2 1-.8c3.6-3.1 8-5.9 12.7-7a4 4 0 0 0 3.4-1.3c13-2.7 24-2.2 37.2-.7q1.8.3 2-1.3c-1.1-18.5-1.8-34.6 6.8-51.5q.6-.7.7-1.5 1 0 1.2-1 .7 0 .9-.8.6-.3.8-1.1l.4-.8A35 35 0 0 1 94 7h1.2q1.2.3 1.7-.9Zm18.7 3.8a49 49 0 0 0-13.5 2.1q-.9 0-.9.8c-20.8 2.5-18.9 26-18.7 41.4q-.5 2.8-.5 5.5v12.4q.8 2.8 0 5.8a1759 1759 0 0 1 2.6 95q-.1 3 .3 5.7a1160 1160 0 0 0-.5 34.5v3.7l-.6 30.1q0 3.9-.4 7.8l-.4 11.2-.2 10q0 3.9-.4 7.8-.4 5.1-.5 10.2l-.2 9-.6 7a248 248 0 0 0-.2 20c-1 1.2-.6 3.5-.7 5q-.3 5-.3 10v3a604 604 0 0 0 .5 40l.8 6.8L83 402a51 51 0 0 0 9 17.9q.7 1.2 1.9 2.3 2.9 2.4 6 4.4a8 8 0 0 0 4.3 1.4q0 .7.6.8h1.2q.4 1 1.4 1.2a128 128 0 0 0 37.7 5q6.5.4 13 .2h8l14-.2a355 355 0 0 0 23-.8l32-1.1 13-.2 14-.7 9-.1 16-.3 17.2-.2a382 382 0 0 1 27.8-.4l17-.1h8a2944 2944 0 0 1 62 1c2.5-.1 8.6.7 10.7-.2q.3.4.9.6c5.7-2 10.5 0 16.4-.2q2 .9 4 0 .7.6 1.6.4 11.3.3 22.4-.3c25.4-2.3 22.7-20 22.1-39.7q.3-1.7 0-3.4l.2-16.3a741 741 0 0 1 0-26v-12q0-3-.3-5.8.3-5.7.1-11.5l.1-5.7-.1-26.2.2-2.8-.3-11.4q.3-3.2.3-6.5-.5-11.7-.3-23.4 0-.8-.3-1.4c.9-3.4.3-7.8.6-11.4v-2.8a1627 1627 0 0 1 0-40q0-11.1-.4-22.2l.3-1v-5.8a273 273 0 0 1 0-16V90l.1-15a146 146 0 0 1 0-11l-.1-7.8q0-5-.3-10l.3-1.3-.3-5.6a62 62 0 0 0-1.6-10.4q-.9-3-2.1-5.9-2.2-4.4-6.3-7.2a18 18 0 0 0-9.7-4c-5.2-1-11-.7-16.3-.3h-.8a282 282 0 0 0-26-.3 529 529 0 0 0-22 0q-8.6-.1-17.3.2h-.7q-8.7-.3-17.3-.2h-79.6c-5.2.1-12.2-.4-17.2.3q-.5 0-.8-.2-8.6-.3-17.3 0h-44.8q-9.1-.2-18.1 1-6.4.5-12.9 0l-17-.6c-2.5-.6-11-1.5-12.8-.4q-.2-.6-.9-1L140 9.8q-3.4-.6-6.9-.5a107 107 0 0 0-17.3.8ZM15.2 144q0 .6-.3 1v2.7l-.2 12.4.3 3.7q-.3 5.7.1 11.3l-.2 1-.1 5.9v29.1q0 3.9.2 7.6a565 565 0 0 0 0 28.1l-.2 26.1.1 16.8.2 21.4-.4 1q.3 2.4.1 4.8l.2 36.9-.3 11.3.3 7.7a404 404 0 0 1-.2 30.2l.2 21.2q0 .8.3 1.4-.9 11.4 0 22.8-.5.7 0 1.5c-1.1 3-.7 8-1.1 11.3v7.6l1 8.7q-.2.9.6 1.4a12 12 0 0 0 .8 5.1c1.2 3.3 2.7 6.7 5.4 9l.6 1.3c3.8 2.5 7.8 4.7 12.4 4.9a39 39 0 0 0 10-.2c4.5.5 13 .8 17.1-.3q1.5.8 3 .3 8.6.9 17.1 0 3.7.9 7.6.1l1.2-.1c4 .9 13 .5 17.3 0q2.1.8 4.3 0h1.4q8.7.9 17.2 0c3.4 1 8 .5 11.6.1q9.2.6 18.5 0 2.3.4 4.4 0 7.5.5 15.2.3c.8.4 2.5.8 3-.3q18.6.6 37.3 0 2.7.4 5.4 0h68.1q9.3.3 18.5-.1 6.2.5 12.5.2 27.7.1 55.5-.2 6.3.6 12.7.2l1-.2q9.1 1 18.4-.1a2 2 0 0 0 1.9-.7q1.1-.2 1.8-1.1c1.2-.4 4.1-1.5 4.6-2.7 3.5-4.2 6.5-9.2 6.6-14.8q1-1.7 1-3.5.8-18-.4-36.1v-1.3c-.4-1.4-7-.9-8.5-.8l-1.3.2c-5.4-1.2-13.5-.8-19.2-1l-4.5-.1c-73.6-1.7-147.4.7-221 3.7q-21 .4-42.3.3c-12.1-1.2-24.3-2.2-36-6.4l-2-1-3-1.5a42 42 0 0 1-7.8-5.7l-1.1-.7q-.1-.6-.7-.8l-4.5-6.9c-7.6-14.7-8.7-32.8-9-49.1q0-1-.5-2 .5-14.6.5-29l.1-2.6q.7-26.4 1.7-52.7 0-.5-.6-.5v-1.3c1.5-4.8.9-21.6 1.6-27.8l-.4-1.1c1.8-39 1.8-80.2 1.4-119.4l-1-50q.2-.7-.4-1.3l-7.5-.3-8.7.1c-16.5-2.1-38.9-.8-39 20.6q-.6 21.3.1 42.4ZM294 92.7c13 .8 17.3 10.3 20.3 21.5v.6q1 8.1 1.4 16.2c.3 23-4.4 47.5-2.7 70q0 2 2 2 9.9.3 19.8 0 3.8.1 7.4-.4c16.6-1 39.7-2.7 55.9-.8l1.7.3 6.4 1.1 9.8 4.1q.6 1.2 1.9 1.7c8.2 8.7 6.6 13.6 1.2 22.9a47 47 0 0 1-24 10.1c-1 .1-4-.5-4.2.8a516 516 0 0 1-32-.5h-.6c-2.6-.5-7.6-1.2-10.1-.7-.6-1-6-.5-7.2-.7-8.2-.7-17.6-1-25.8.2q-2.3-.3-1.8 1.9c-2.2 31.4 5 67-3.7 97.3-.4 1.3-1.9 4.6-3.6 4.6a2 2 0 0 0-1.4 1q-1.7 1.2-3.5 2-1 0-1.3 1h-.9q-1.4 0-1.7 1.3h-1.6a22 22 0 0 1-8.8 2.1c-15.2.4-19.4-17-20.5-29.1-2.8-27.2 1.7-54.2.9-80.9q0-.8-1-1.1h-9.1l-7.1-.2-27.2.4-31 .6-11.7-.6-.4.4c-.6-1-5.7-.6-7-.7h-.8c-4.8-1-8.3-3.7-12.1-6.4q0-1-1-1.5c-1.6-3.6-3.5-7-2.9-11.2q.3-3 1.5-5.8a29 29 0 0 1 3.4-4q.8-.3 1-1.3 1 0 2-.6 2.3-1.5 4.3-3.1 1.3 0 1.8-1.1l12.2-3.8q3.9-.4 7.8-1.1a294 294 0 0 1 45.1.8q3.5 1 7.1.7h1.5q2.2.4 4.3.2 4 .3 8 .1 5 0 9.9-.6 1.2-.5 1.2-1.8c4-33.6-9.2-65 4.7-97.6 1.2-.1 3-3.8 3.5-4.9 2-1.8 2.7-2.7 5.5-3.7q.9.3 1.2-.5l1-.2q5.4-1 11-1Zm-15.2 40.4v4.1c-.5 21 1.9 44.7.2 65.3l-.4.7q-1.5.4-2.8 1.5-2.5.2-4.7 1-8.1 1.6-16.2 2.3h-20q-7.8-.9-15.8-1l-6-.3a86 86 0 0 0-15.2-.6c-4.4-.1-10.8-.4-15 .8-13.8.3-17.2 11-11.6 22.4q.5 1 1.5 1.5.6 1.3 2.2 1.5a49 49 0 0 0 16 3.8c3.8 1.2 10 1 14 1.3q9 .4 17.9-.2c5.5-.4 12.6 0 17.9-1.2q5 .3 10.1 0l17-.1q3 .5 6 .5 2.6.4 5 1.2 1.4 3 1.2 6.3l.2 3.2-.4 15.9a530 530 0 0 0-1.5 58.2c.4 4 .6 8.3 2.2 12.1l.7 3q2.3 5.6 7.4 8.6c15.4 6.5 12.8-24.8 13.3-33l-.1-4c.4-16.9-1.5-33.2-2.7-49.9l-.2-3c1.1-17.3 12.3-18.2 27-19.4q8-.1 16 .1l16.9.5c2.5.9 5.4-.4 8-.3q7.5 0 15 .8 3.6.6 7.2.5c17 2.6 30.8-11 17-25.1q-.5-.8-1.3-1.4a26 26 0 0 0-14.8-3.5q-.7-.3-1.7-.2c-4.5-.8-10 0-14.5.3q-8.2.5-16.6-.2H354q-6.5.9-12.9 1l-17 .2-9-.7q-5.6-1-10.7-3.5-.7-1.5-2.4-2.2c-5.8-12.7-.2-31.8-.4-45.6a664 664 0 0 0 0-31.3c-.5-8.7-.8-16-5.6-23.5q-.3-.4-.8-.5a5 5 0 0 0-2.8-3.2c-7-4.9-11.8 4.2-11.8 10.2q-1.8 12.5-1.8 25Z"/><path fill="#4b61ac" d="M395 242c-.8 1.4-2.8.9-4.1.8.3-1.3 3.2-.7 4.2-.8"/><path fill="#4161cd" d="M341 240.9c1.2.2 6.6-.2 7.2.7-2.6 1.9-5.3 2.3-7.2-.7"/><path fill="#4b5ea2" d="M172.8 241.1c1.3.1 6.4-.2 7 .7l-5.3.5q-1.2 0-1.7-1.2"/><path fill="#92929f" fill-opacity=".9" d="m95.2 6.2.6-.2 1.1.1q-.5 1.1-1.7.9z"/><path fill="#bec1e0" fill-opacity=".2" d="M70 465c-1 1.6-3.2 3.2-5 3q1.8-2.6 5-3"/><path fill="#2d53ce" stroke="#2d53ce" stroke-width=".5" d="M294 92.7q-5.6 0-11 1 .6-1 1.8-1.6c3.1-2 7-3.7 9.2.6Zm-1.6 5.1-3.1 5q-.5.8.2 1.3c1.4 0 4.4-2.2 5.7-3q.5 0 .8.4c4.8 7.5 5 14.8 5.6 23.5a96 96 0 0 0-6.3 7.5q.3.5 1 .2 2.7-1.6 5.5-2.8.1 13.2-.1 26.4c0 13.8-5.5 32.9.4 45.6q-5.2 5-10.8 9.5.4.4 1 .2l12.2-7.5q5 2.4 10.6 3.5l-12.8 12.8q.4.5 1 .2 10.6-6 20.8-12.3l17-.3a1050 1050 0 0 1-29 24.5q.9.7 1.9.2 20.5-12.3 41.3-24 1.3-.4 1.9-1.6 8.2.7 16.6.2l-12.5 16.1c.6 1 2.3-.5 3-.7q11.6-6.6 22.8-13.5a3 3 0 0 0 1.1-1.1q1.2 0 1.9-1c5-.3 10.5 1 14.7 3.6-2.2-.2-3.8 3-5.4 4.2l-.6 1.2c-1 0-2.5.7-2.2 1.7q2 0 3.2-1.6c1-.6 6.1-3.3 6.4-4.1 13.7 14.1-.1 27.7-17 25.1q2.1-3.4 4.7-6.7-1-.4-1.9.2l-10 6q-7.5-.8-15.1-.8 4.2-4.8 8.7-9.4-1.1-.2-2.1.4c-1.7 1.7-14.6 7.9-14.6 9.3l-16.9-.5q4.6-6.8 9.7-13.5c1-1.6-.8-1.4-1.7-.8q-12.2 7-24 14.2c-14.7 1.2-25.8 2-27 19.4q-1.8 1.6-3 3.7c.7 1 2.3-.6 3.2-.7 1.2 16.7 3 33 2.7 49.8q-3.6 3-6.6 6.7.3.7 1 .4 2.7-1.8 5.7-3c-.5 8.2 2 39.5-13.3 33q-5.3-3-7.4-8.6c1-1.2 3.3-2.7 3.5-4.3q1 0 .6-.9-1 0-1 .6-1.9 1-3.8 1.6c-1.6-3.8-1.8-8-2.2-12.1q3-4 6.4-7.7-.4-.6-1-.2a16 16 0 0 1-5.7 2.9 530 530 0 0 1 1.8-53.2q2.6-1.7 4.1-4.5c-.6-1.3-3.2 1.2-4 1.5l.3-13c2.6-1 6.8-5 9.2-7q1.6-1.4 3.6-2.4.6-.3.6-1-1.2-.6-2.2.3-5.5 3.7-11.4 7 0-3.3-1.1-6.3l-5-1.2q4.2-4.5 8.7-8.8-1.2-.3-2.2.3-5.6 3.6-11.4 6.8-.6.5-1.1 1.2h-17.1l1-1.4 16-14q-1.3-.3-2.4.4c-4 2.4-23.2 12.6-24.7 15.1-5.3 1.2-12.4.8-18 1.2q5.5-8 11.2-15.8c-.6-1-1.2-.1-2 .1l-27 15.9c-4-.2-10.2 0-14-1.3l2-2.7q-.6-.6-1.2-.1-2 1-4 2.5c-4.3-.7-8.9-1.6-12.8-3.5q2-2.4 4.5-4.2c.8-1.3-.8-1.3-1.6-.7l-5.1 3.4q-1-.5-1.5-1.5c-5.6-11.4-2.2-22.1 11.5-22.4l-5.4 9.8q-.4.7.2 1 10.4-5.4 20.3-11.6c5-.1 10.3-.2 15.2.6q-4.5 4.3-8.9 8.8.5.3 1 0 6.5-3.5 12.8-7.2l1.1-1.3q8 .1 15.8 1-.8 1-1.2 2.2c-1-.3-2.7.6-2.1 1.7.6-.1 2.8-.7 2-1.7q2.4-.2 3.6-2l17.7-.2q-4.8 7.2-10.2 14a1 1 0 0 0 0 1l28.6-16.2q2-.2 2.5-2.1 1.3-.9 2.8-1.5l.4-.7c1.7-20.6-.7-44.3-.1-65.3 1.3-.4 6-5.3 6-6.6q-.3-.5-1-.2a22 22 0 0 1-5.1 2.7q0-12.6 1.8-25c0-6 4.8-15.2 11.8-10.3ZM181 201.4l1.2 1L170 206q.3-.8 1-1.4c3.2-1.3 6.4-5 10-3.3Z"/><path fill="#cdd1f4" d="m235 208 2.2.1q-1.2 2-3.5 2.1.4-1.2 1.2-2.2"/><path fill="#3051bd" d="M275.3 98.1c-.5 1-2.3 4.8-3.5 4.9q-.4-4 3.5-4.9"/><path fill="#4c4d54" fill-opacity=".3" stroke="#4c4d54" stroke-opacity=".3" stroke-width=".5" d="M421.6 494.4c-.5 1.2-3.4 2.3-4.6 2.7l-.4-1c2-.6 2.9-2.2 5-1.7Z"/><path fill="#4d4d52" fill-opacity=".3" stroke="#4d4d52" stroke-opacity=".3" stroke-width=".5" d="M217.1 11.2h4.7q-.4 1.1-1.6 1.5-1.7-.5-3.5-.7z"/><path fill="#3955b0" d="M313 201a3 3 0 0 1 2 2q-2 0-2-2"/><path fill="#4258a1" d="M315.2 241.1q-.7 1.2-1.8 1.9-.5-2.2 1.8-1.9"/><path fill="#333537" fill-opacity=".5" d="M415.2 498.2a2 2 0 0 1-2 .7c-.5-1.1 1.5-1 2-.7"/><path fill="#383846" fill-opacity=".1" stroke="#383846" stroke-opacity=".1" stroke-width=".5" d="m398.8 200.7 1.1.5-.1.9-1.7-.3q0-.7.7-1Z"/><path fill="#393939" fill-opacity=".2" stroke="#393939" stroke-opacity=".2" stroke-width=".5" d="M104 428q.9 0 .7.8-.6 0-.6-.8Z"/><path fill="#35457b" d="M282 94q-.3.8-1.2.4z"/><path fill="#45454c" fill-opacity=".1" stroke="#45454c" stroke-opacity=".1" stroke-width=".5" d="m314.3 114.2.5-.5.3 1.3-.8-.2z"/><path fill="none" d="M358.3 242.3h.6q-.5 1-.6 0"/></svg>