<svg xmlns="http://www.w3.org/2000/svg" style="shape-rendering:geometricPrecision;text-rendering:geometricPrecision;image-rendering:optimizeQuality;fill-rule:evenodd;clip-rule:evenodd" viewBox="0 0 512 512"><path fill="#fefefe" stroke="#fefefe" stroke-width=".5" d="M72 216.4q2.8.8 5.5.8 5.9 0 11.6.2l-.8.6-1.6.2q-7.6 5-15.7 9.4-.6.4-.9 1-7.8 4.2-15.4 8.6-1 .7-2 .6a59 59 0 0 1-1.4-8.2q.5-1.2 1.7-1.8z"/><path fill="#808a99" d="m80.2 162-1-.2q.3-.8 1.1-1l13.7-8.2q1-.7 2 0 0 .7-.8 1-5.6 2.8-10.6 6.5c-1.3.5-3 2.2-4.4 2m187.6 34v1.2q0 .5-.5.8-7.5 4.7-15.1 8.8-.7.3-1-.3zM136.3 318l-1.1-.3 18.6-11.3a9 9 0 0 0 4.3-2.8q1.3-.8 2.7 0a4 4 0 0 0-2.7 2l-4 2-16 10.2q-.7.6-1.8.2m19 3-.2-1.1q0-.6.3-.8 7.3-4.3 14.4-8.8 2.4-.8 4.3-2.6 1.4-.6 2.7-.2l-1.3.4q-1.5 1.8-3.4 3-1 0-2 .6z"/><path fill="#86909e" d="M214.8 166.2q0 .3.3.4c-2.3 1.4-8 5.7-10.5 5.5h-.5l8.8-5.6q.9-.6 1.8-.3m30 10.9v1q0 .6-.5.9a144 144 0 0 0-12.2 7.4 2 2 0 0 1-2 .1q0-.7.9-1 6.8-4.3 13.8-8.4m74 23 .2 1.3q-1.3 1.3-3 2.2l-11.4 6.4-3.5 2.5q-1.5.3-3 1.2-.5.3-.8-.2 4.7-3 9.3-6.2zm-157.4 19.6-.2-.4c.7-1.4 10-6.3 12-7.5 1.5-.7 3.6-3.7 5.5-2.4q-1.7.4-2.6 2.1c-4.6 1.9-9.3 5.8-13.8 8.4q-.6.3-.9-.2m79.8 90q-.2-1-1.1-1l11.9-7.4q1-.4 1.9.2l-2.8 2.2c-2.9.9-6.8 4.7-9.9 6"/><path fill="#838c9b" d="m293.7 101 1 .3q0 .3-.4.5-7.4 4.5-15.2 8.7l-6 3.9q-1 .6-2 0 .8-1.1 2-1.8c4-1.4 18.3-12 20.6-11.5m-73.8 61.2-.8.6q.3-.5.8-.6m-22.7 87.6v-1q-.3-.5.2-.8 7.2-4.2 14.4-8.8l1.8-.7q2.1-.3.6 1.1c-5.8 2.4-11.3 7.2-17 10.2m97.6 35.6v.2l-.7 1-8.8 5.3q-.8.3-1.3-.3c.9-1.5 7.8-5.2 9.7-6.4q.6 0 1 .2"/><path fill="#7e8897" d="M172.8 96.2v1.1q0 .8-.8 1.2a74 74 0 0 0-7.7 4.4q-.8.3-1.1-.3l4.3-3.3zm-38.6 66.7.2-2 10.7-6c1.3-.9 2.2-2.7 3.8-1.4q-7.2 4.8-14.7 9.4m15 133.9q0-1-1.1-1l22.5-13.4q2.4-.3.6 1.2-2.4 1-4.6 2.3-8.5 5.8-17.5 10.9"/><path fill="#7a8494" d="m71 216.1 1 .3-19 11.4-.2-1q0-.5.5-.8l16-9.5q.8-.4 1.7-.4m108.3 104.5q-.2-.7-1-.9.3-.6 1-1l13.8-7.9c1.7-1 3.4-3.3 5.6-2.5l-4.6 3.5-1.4.4a301 301 0 0 1-13.4 8.5"/><path fill="#6b7788" d="m227.8 78.2.1 1q.1.5-.2.8c-2 .8-4.7 3.2-6.9 3.2q-.7-.3-.7-1c2 .4 5.6-3.4 7.7-4m-66.7 175.7q0-1.3-1.3-1.4 12-6.9 24-14.2.9-.6 1.9-.8 2.3-.3.5 1.1l-7.1 3.9q-8.7 6-18 11.4"/><path fill="#8992a0" d="M341.8 200v1.2q0 .5-.3.7-6.8 4.3-13.9 8a16 16 0 0 1-5 2.9c-1.2-.4-.3-1 .3-1.4a477 477 0 0 0 18.9-11.3M239 359.7v-1q0-.7.8-1c3.3-1.6 6.1-4.3 9.5-5.3 2 .7-1.2 1.9-1.8 1.8q-4 3.2-8.5 5.5m-3 25.6 1-.2q-.3.6-1 .9z"/><path fill="#747e8e" d="M308 79.3q.6.3 1 .8 0 .5-.5.8l-21 12q-2.6 2-5.5 3.7-1.6 0-2.8 1-.6.3-.9-.2z"/><path fill="#707b8c" d="M204.9 127.2v1q0 .9-.9 1.2l-10 6a2 2 0 0 1-2 .1q.2-.8.9-1.1zM88.3 218q-.7 1.2-1.8 2L70 229.8v-1.2q.3-.7 1-1 8-4.5 15.6-9.5.7-.3 1.6-.2"/><path fill="#7c8696" d="M121.2 152.8q0-1-1-1.1l16.8-10.3a2 2 0 0 1 1.8.2c-.1 1.2-1.6.8-2.4 1.3l-8.8 6.2z"/><path fill="#ca414b" fill-opacity=".2" stroke="#ca414b" stroke-opacity=".2" stroke-width=".5" d="M317.8 450c.1 1.2-2.8 1.7-3.4 2.9-4.5 2.5-8.5 6-13.4 8q-.6-.3-.9-.9 8.1-4.5 15.9-9.7.8-.4 1.7-.3Z"/><path fill="#dd4752" stroke="#dd4752" stroke-width=".5" d="m313.3 328.9 1.6.3c-4.4 5.2-5 8.2-1.5 14.6l-1.3 2c-2.6 0-5 2.6-7 3.8q-16.3 9.2-32.3 18.6-.7-1-.4-2.2c.7-2.6 1.4-8.7 2.8-10.7q15.8-10.4 31.3-21.3c1.2-1.1 3.6-1.1 3.6-3.1h1q.7.2 1-.6.8-.6 1.2-1.4Zm.7 110.8c2 2 6.5 4.9 7.2 7.6a6 6 0 0 0-3.4 2.7q-1 0-1.8.3-7.8 5.2-15.9 9.7-3-2.8-5.7-6-.4-.5-.2-1.1l.9-.2q9.5-6.4 18.9-13Z"/><path fill="#8e97a4" d="m335.9 217.2.2 1c.2 1-2.5 1.8-3 2.4q-7.2 4.4-14.7 8.1c-1-.3.1-1 .5-1.3q8.6-5 17-10.2"/><path fill="#f3c5c8" d="m372 272.7 2 .6-15 9.3q-1 .3-1.7-.2l12.7-8.8q1-.6 2-.9"/><path fill="#969eaa" d="m61 266.3-1.1-.6q8-4.4 15.8-9.2c.7-.3 1.6-1.1 2.1-.3l-2.7 2.2-10 6a12 12 0 0 1-4.1 1.9m145.9 65.9.3.6-1.2.1q.3-.4.9-.7"/><path fill="#c84249" fill-opacity=".2" stroke="#c84249" stroke-opacity=".2" stroke-width=".5" d="M367.9 476.1q-1 1.3-2.2 2.2l-10.5 6.6q0-1.2-1.3-1.4l12-6.9q1-.5 2-.5Z"/><path fill="#d4414a" fill-opacity=".3" stroke="#d4414a" stroke-opacity=".3" stroke-width=".5" d="M443.7 365.1q.4 1 1.4 1.4-6.5 3.6-12.8 7.4H431q1.3-1.5 3-2.5 5-3 9.7-6.3Z"/><path fill="#cc3e47" fill-opacity=".2" stroke="#cc3e47" stroke-opacity=".2" stroke-width=".5" d="M414.7 304.2q0 1 1 1.5l-12.3 7.2H402q.5-1 1.5-1.6z"/><path fill="#858e9c" d="M234.2 376.1q-.6 0-1.1-.3l11.6-7.5q1-.3 2 .1-1.7.4-2.6 2.2l-1.5.5c-1.5 1.2-6.7 5.2-8.4 5"/><path fill="#d53b44" fill-opacity=".2" stroke="#d53b44" stroke-opacity=".2" stroke-width=".5" d="m492 349.8.2 1.5-9.1 5.4q-1 .4-2.1.3.3-.9 1-1.3l8-5.1q.8-.6 2-.8Z"/><path fill="#768090" d="m253.2 321-.9-.2q0-.4.3-.7 4.8-2.7 9.3-5.8 1-.5 2 .1-.6 1.3-2.2 1.5a96 96 0 0 1-7.4 5q-.6.3-1.1 0"/><path fill="#b53e45" fill-opacity=".1" stroke="#b53e45" stroke-opacity=".1" stroke-width=".5" d="m493.7 403.8.5 2.1-8.2 4.6q-.9.6-1.9.5 0-.9.8-1.4 4.5-2.8 8.8-5.8Z"/><path fill="#ccc" fill-opacity=".1" d="M297.6 161.3q.1 1 1.1 1.3c-2.2 1-6.5 4.6-9 4.4l-.7-.2a85 85 0 0 1 8.6-5.5"/><path fill="#cf424c" fill-opacity=".2" stroke="#cf424c" stroke-opacity=".2" stroke-width=".5" d="m482 398.3 1 1c-2.2 1-6.8 4.7-9 4.7q.5-1.2 1.6-1.9 3-2.1 6.4-3.8Z"/><path fill="#d49095" d="M443 340q-.4.6-1 1 0-.8 1-1m-1 1a4 4 0 0 1-1.8 2.8c-1.8 0-3.1 1.4-4.8 2-1-.5.2-1.1.5-1.4z"/><path fill="#939da7" fill-opacity=".2" stroke="#939da7" stroke-opacity=".2" stroke-width=".5" d="m240.7 85.3.2 1c-1.2 1-3.3 2.8-4.9 2.7 1-2.1 2.9-2.6 4.7-3.7ZM236 89q-.5 1.4-1.8.9c-.2-1 1.2-1 1.8-.9ZM120.9 243q-.6 1.3-2 1 .5-1.3 2-1Z"/><path fill="#fff" fill-opacity=".2" d="m289 166.8.8.2c-.3 1.7-5.3 4-6.8 4.1.3-2 4.6-3.4 6-4.3m-168 93.1q0 1-1.2 1 .5-.7 1.1-1"/><path fill="#e04f57" fill-opacity=".2" stroke="#e04f57" stroke-opacity=".2" stroke-width=".5" d="M313 409c-1 2-3.3 2.8-5 4v-1.3a7 7 0 0 1 5-2.7Z"/><path fill="#7f8594" fill-opacity=".1" stroke="#7f8594" stroke-opacity=".1" stroke-width=".5" d="m338.9 168.9 1 .4c-1 1.3-3.1 2.9-4.8 2.6 0-1.4 2.6-2.5 3.8-3Z"/><path fill="#697683" fill-opacity=".1" stroke="#697683" stroke-opacity=".1" stroke-width=".5" d="M288.8 150.2c-.9 1.7-3 2.9-4.8 2.7.9-1.4 3-3.5 4.8-2.7Z"/><path fill="#c85f67" d="M348.7 362.8a5 5 0 0 1-1.6-2 6 6 0 0 1 3.3-1.6c.3.3-1.6 2.9-1.7 3.6"/><path fill="#625f5f" d="m429.7 313.2 2-.2h3.2q.8 0 1 .6l-4.5.4q-1.2.2-1.7-.9"/><path fill="#515d74" fill-opacity=".6" d="M88 294.2c-.1 1.7-2.6 2.6-4 2.6.6-1.2 2.8-2 4-2.6"/><path fill="#4f5d72" fill-opacity=".6" d="M339 117.3c0 1.7-2.5 2-3.7 2.9 0-1.8 2.4-2.3 3.7-3"/><path fill="#e07e85" d="m425 411.2 1.3.9a5 5 0 0 1-2.7 1.6c-.8-.8 1-2 1.4-2.5"/><path fill="#da6c74" d="M338.3 324.1q1.2.6 1.8 1.8-4.5 2.5-1.8-1.8"/><path fill="#596679" fill-opacity=".7" d="M113.9 279.4q-.2.4-.7.7 0-.7.7-.7m-.7.7a3 3 0 0 1-3.3 1.6q1.4-1.6 3.3-1.6"/><path fill="#737a87" fill-opacity=".2" stroke="#737a87" stroke-opacity=".2" stroke-width=".5" d="M118.9 244c.1 1.6-1.8 2-3 2q.6-2.1 3-2Z"/><path fill="#515e68" fill-opacity=".1" stroke="#515e68" stroke-opacity=".1" stroke-width=".5" d="M107.2 301a3 3 0 0 1-3 2c-.3-1.8 1.7-2 3-2Z"/><path fill="#49636a" fill-opacity=".1" stroke="#49636a" stroke-opacity=".1" stroke-width=".5" d="M117.3 263q-.4 1.1-1.1 2l-2.3.4V264q1.5-1.2 3.4-1Z"/><path fill="#fff" fill-opacity=".4" d="m328.8 175.1.2 1.3-1.2-.6zm-53.8 1q-.7 1-2 .9.5-1.2 2-1m-149.3 81q0 1-.9 1z"/><path fill="#9c9ea1" d="M221.8 40.2q.3 1 1.2 1.6-1.6.3-3.3-.2a4 4 0 0 1 2-1.4"/><path fill="#e1848a" d="m407.1 420.3-1-1.2 2.2-.8c.8.9-.4 1.8-1.2 2"/><path fill="#9099a5" fill-opacity=".3" stroke="#9099a5" stroke-opacity=".3" stroke-width=".5" d="M324.8 95.3a2 2 0 0 1-1.7.7q.3-1.5 1.7-.7Zm-199 144.8q-.3 1-1.5.9c-.4-1 1-1.1 1.6-.9Z"/><path fill="#515e6d" fill-opacity=".1" stroke="#515e6d" stroke-opacity=".1" stroke-width=".5" d="M114.1 247q-.7 2-2.8 1.9l-.6-.6q1.4-1.5 3.4-1.3Z"/><path fill="#8f939a" fill-opacity=".7" stroke="#8f939a" stroke-opacity=".7" stroke-width=".5" d="M110.9 353.6q.8.6 1.2 1.3l-1.1-.2h-2.1zm1.2 1.3 1.3.8-1.2.1z"/><path fill="#7e838c" d="M146.7 52.2v1c0 .9-2 1-2.7 1a4 4 0 0 1 2.7-2"/><path fill="#6b848f" fill-opacity=".2" stroke="#6b848f" stroke-opacity=".2" stroke-width=".5" d="M335 172q-.9 2-3.1 2.1.7-2.4 3.2-2.2Z"/><path fill="#abb0b7" d="M295.8 59.9v.9q-1 0-2-.8c.2-1.3 2.2-1.1 2-.1"/><path fill="#6a7486" fill-opacity=".3" stroke="#6a7486" stroke-opacity=".3" stroke-width=".5" d="M275.8 158c0 .9-1.3.7-1.8.8a2 2 0 0 1 1.8-.8Zm-1.8.8q0 .7-.8 1 0-.9.8-1Z"/><path fill="#a9acb0" d="M153.2 50.2q.7 0 1 .5l-1 .2zm128 3c.8-.2.8 1.2 1 1.6q-.7 0-1-.6z"/><path fill="#fcfcfc" d="M150.7 50.3q1.3-.2 2.5 0v.6l-1.3.5q-.9-.3-1.2-1m-2 .8q.8 0 1.6-.3l-.2 1-1.2.3z"/><path fill="#fae6e7" fill-opacity=".4" stroke="#fae6e7" stroke-opacity=".4" stroke-width=".5" d="M434.9 312v1h-3.2c.2-1.3 2.3-1 3.2-1Z"/><path fill="#adafb1" d="M150.7 50.3q.3 1 1.2 1.1-.7.5-1.8.5l.2-1q-.2-.8.4-.6"/><path fill="#9ea3ac" d="M297.2 60.2q1.5.5 1.1 2-1-.3-1-1.1z"/><path fill="#8f9297" fill-opacity=".7" d="M310.8 69q1.3 0 2.5.2l-.6 1.2q-1.3-.3-2-1.4m1.9 1.4q1.1-.2 1.4 1-.9-.4-1.4-1"/><path fill="#6e7889" fill-opacity=".3" stroke="#6e7889" stroke-opacity=".3" stroke-width=".5" d="M233 91.1q-.7 1-2 1 .5-1.4 2-1Zm-2 1-.8.8q0-1 .9-.7Z"/><path fill="#626f80" fill-opacity=".5" d="M324 179.1q-.7.8-1.8 1 .3-1.5 1.8-1m-1.8 1-1 .7q0-.9 1-.7"/><path fill="#b7b9bc" d="M208.8 387.3q1.6-.5 3.3 0l.2.5q-2 .6-3.5-.6"/><path fill="#dadde1" d="m230.8 386 2.3-.3q.6.5 1.1 1.2c-1 0-3 .4-3.4-.9"/><path fill="#df4752" fill-opacity=".2" stroke="#df4752" stroke-opacity=".2" stroke-width=".5" d="M388 433q-.5 1.2-1.7 2l-.4-1.3q.8-1 2-.8Z"/><path fill="#727e8d" fill-opacity=".3" stroke="#727e8d" stroke-opacity=".3" stroke-width=".5" d="M118.8 294.1q-.6.8-1.7.8.5-1 1.7-.8Zm-1.7.8q0 .8-1 .9.1-.9 1-.9Z"/><path fill="#777f8b" d="m172.8 382.7 3.4.7c-1 1-3.1 1-3.4-.7"/><path fill="#aeb0b4" d="m79.7 113.4.1.7c.1 1-1.3.9-1.8 1 .1-.7 1-2.2 1.7-1.7"/><path fill="#b9b9c1" fill-opacity=".1" d="M114 264v1.4l.3 1q-1-.3-2-.1l-.3-1q.8-.8 2-1.3"/><path fill="#5d6a7d" fill-opacity=".7" d="M116.2 265q.7-.9 1-2 .8-.2.6-1l1.1-.1q1 0 .8-1 1 0 1.2-1l1.2-.2q.9.3.6-.7l1.5-.3q.6-.2.6-.7 1 0 1-1l1.1-.4q1 .4.8-.6 1.3-.1 2.2-1.1 1 0 .8-.8l4.7-2.2q4-3.1 9-5.2c2.5-2.6 6.2-4 9.2-6.3q1-.3 2 0-1.6.4-2.7 1.9L121 262.5q-2.4 1.5-4.8 2.5m-2.3.4q1.1 0 2.3-.4-.6 1-1.9 1.4zm-1.7.9h2.1q-1.4 1.7-3.5 1.5zm-1.4 1.5c.2 1.8-1.6 2.2-3 2q1.2-1.4 3-2m-3 2c.3 1.2-1.2 1.3-2 1.1q.9-.7 2-1.1m-2 1.1c.5 1.5-1.9 2.3-3 2q1.3-1.5 3-2m-3 2q0 .9-.8 1.5L83.5 286l-3.5 1.7q0-.9.7-1.5l5.5-3.6q6.7-3.6 13-8z"/><path fill="#566476" fill-opacity=".6" d="M333.9 120.4q-.1 1.6-1.9 1.4.6-1.2 1.9-1.4"/><path fill="#4f5c70" fill-opacity=".6" d="M331 122.3q-.2 1.6-2 1.6.5-1.3 2-1.6"/><path fill="#c2888c" d="M327.2 342.2q2.4-.6 1.6 1.8-1.2-.6-1.6-1.8"/><path fill="#e8a3a8" d="M313.4 343.8q.6.5.7 1.3-.7 1.1-2 .8z"/><path fill="#d5d7d8" d="m126 307.2-.2.8c.2 1.1-1.5 1.2-2.2 1.3a3 3 0 0 1 2.3-2.1"/><path fill="#939ca9" fill-opacity=".1" stroke="#939ca9" stroke-opacity=".1" stroke-width=".5" d="M115.8 246q-.5 1.2-1.7 1 .3-1.5 1.7-1Z"/><path fill="#929da8" fill-opacity=".1" stroke="#929da8" stroke-opacity=".1" stroke-width=".5" d="M104.1 303q-.3.8-1 1.3l-.9-.5c-.4-1 1.4-1 2-.8Z"/><path fill="#ebd8d9" d="M350.2 273.7q-.7 1.6-2.5 1.6.7-1.6 2.5-1.6"/><path fill="#ae3f47" fill-opacity=".8" d="M317.3 422q-.4.9-1.5.8.4-.8 1.5-.8m-1.5.8q0 1-1 1 .3-1 1-1"/><path fill="#727982" fill-opacity=".6" d="m267 48 1.1.3v1.6a2 2 0 0 1-1.1-.6z"/><path fill="#a1a5aa" d="M148.8 51.1v1q0 .6-.6.6v-.6q0-.7.6-1"/><path fill="#fff" fill-opacity=".1" d="M277.9 60.8q0 1.2-1 .7zm-23 15q-.3.9-1 .7z"/><path fill="#aeaeaf" fill-opacity=".9" d="m150.8 375.8 2.5.5-1.3 1-.9-.2z"/><path fill="#8c9196" d="M132.7 367.7q1.5 0 2.3 1.3-1.8.4-2.3-1.3"/><path fill="#7d8392" fill-opacity=".1" stroke="#7d8392" stroke-opacity=".1" stroke-width=".5" d="M284 153q-.5 1.2-1.9 1 .5-1.3 1.9-1Z"/><path fill="#fff" fill-opacity=".1" d="M347.9 162.9q0 1-1 .6zm-268 103q-.1 1-1 .6z"/><path fill="#949ca7" fill-opacity=".2" stroke="#949ca7" stroke-opacity=".2" stroke-width=".5" d="M113.9 297q-.5 1.1-1.5 1c-.6-1 .8-1.2 1.5-1Z"/><path fill="#c2434c" fill-opacity=".7" d="M455.1 342.2q-.2.8-.8 1.1-.3-1 .8-1.1m-.8 1.1a2 2 0 0 1-1.5.7q.5-.8 1.5-.7"/><path fill="#939ba8" fill-opacity=".4" d="M111 298v1.4l-.9.3q-.4-1.4.9-1.7"/><path fill="#949ca8" fill-opacity=".2" stroke="#949ca8" stroke-opacity=".2" stroke-width=".5" d="M331.9 174.1q-.5 1-1.6 1 0-1.5 1.6-1Z"/><path fill="#737c8c" fill-opacity=".3" stroke="#737c8c" stroke-opacity=".3" stroke-width=".5" d="m327.8 175.8 1.2.6q-.9.6-2.1.7z"/><path fill="#949ca9" fill-opacity=".1" stroke="#949ca9" stroke-opacity=".1" stroke-width=".5" d="M108.8 300.1q-.4 1-1.6 1 0-1.5 1.6-1Z"/><path fill="#919aa7" fill-opacity=".3" stroke="#919aa7" stroke-opacity=".3" stroke-width=".5" d="M326.9 177q-.6 1-1.8 1 .6-1.1 1.8-1Z"/><path fill="#616a76" fill-opacity=".3" stroke="#616a76" stroke-opacity=".3" stroke-width=".5" d="m82 328.7.9.4q.2 1.2-.6 1.9l-.2-2.3Z"/><path fill="#5b697b" fill-opacity=".9" d="M116 278.2a1 1 0 0 1-.9.7q.2-.6.9-.7"/><path fill="#d5454f" fill-opacity=".4" d="m404.4 496-.3.7-1.3.3q.4-1 1.6-1"/><path fill="#586578" fill-opacity=".5" d="M138.9 231.9q-.1.6-.7.9 0-.8.7-.9"/><path fill="#657182" fill-opacity=".7" d="m144 229-.6.7q-.2-.6.5-.8"/><path fill="#576478" fill-opacity=".6" d="M316.9 182.9q-.1.6-.7.8 0-.6.7-.8"/><path fill="#838c99" fill-opacity=".5" stroke="#838c99" stroke-opacity=".5" stroke-width=".5" d="M319.8 181.2q-.2.4-.5.5 0-.5.5-.5Z"/><path fill="#ececed" d="M117.1 301.7q-.2 1-1.1 1.2.2-.9 1.1-1.2"/><path fill="#f5cacd" d="M313.3 328.9q-.4.9-1.2 1.4 0-1.2 1.2-1.4"/><path fill="#566276" fill-opacity=".3" stroke="#566276" stroke-opacity=".3" stroke-width=".5" d="M325.1 178q-.3.8-1.1 1.1.2-.9 1.1-1.2Z"/><path fill="#899d9d" fill-opacity=".1" stroke="#899d9d" stroke-opacity=".1" stroke-width=".5" d="M121.9 242q-.1 1-1 1 .1-.9 1-1Z"/><path fill="#d8d8d8" d="m206.9 332.2 1.4-.4q-.3.9-1 1z"/><path fill="#b97c81" d="M347 333q.7.3 1 1-.8-.3-1-1"/><path fill="#525f72" fill-opacity=".8" d="M78 300.1q-.3.8-1 .8.1-.6 1-.8"/><path fill="#fff" fill-opacity=".5" stroke="#fff" stroke-opacity=".5" stroke-width=".5" d="M130.7 254q.3 1-.8.9z"/><path fill="#87919f" fill-opacity=".6" d="M264 164.9q-.4.8-1.3.8z"/><path fill="#fff" fill-opacity=".2" stroke="#fff" stroke-opacity=".2" stroke-width=".5" d="M127.7 256q.2 1-.8.6.3-.4.8-.6Z"/><path fill="#b1b1c4" fill-opacity=".1" stroke="#b1b1c4" stroke-opacity=".1" stroke-width=".5" d="M124.8 258q0 .5-.6.7 0-.6.6-.7Z"/><path fill="#fff" fill-opacity=".1" stroke="#fff" stroke-opacity=".1" stroke-width=".5" d="M122.7 259q.3 1-.6.7 0-.6.6-.7Z"/><path fill="silver" fill-opacity=".5" stroke="silver" stroke-opacity=".5" stroke-width=".5" d="m100.2 345.6 1 1q-1.3.3-1-1Z"/><path fill="#d8dbdb" fill-opacity=".4" stroke="#d8dbdb" stroke-opacity=".4" stroke-width=".5" d="m101.1 346.7.8.4q-.2.8-.8 1.2z"/><path fill="#586679" fill-opacity=".4" d="m268.9 162.2-.6.5q0-.6.6-.5"/><path fill="#848e97" fill-opacity=".1" stroke="#848e97" stroke-opacity=".1" stroke-width=".5" d="M276.8 157q0 1-1 1 .4-.7 1-1Z"/><path fill="#fff" fill-opacity=".2" stroke="#fff" stroke-opacity=".2" stroke-width=".5" d="m111 354.7 1 .3.2.8q-1.2 0-1.2-1.1Z"/><path fill="#f0f0f8" fill-opacity=".1" d="M361.9 153.9q0 1-1 .6z"/><path fill="#7e8897" fill-opacity=".8" d="M317.1 131.2q-.4.6-1 .7.3-.6 1-.7"/><path fill="#c0c4c8" fill-opacity=".7" stroke="#c0c4c8" stroke-opacity=".7" stroke-width=".5" d="M123.7 362.7q1 .3 1.6 1l-1.7.2z"/><path fill="#8c95a2" fill-opacity=".9" d="M320 129.3q-.3.5-1 .6.4-.6 1-.6"/><path fill="#99a0ac" d="M322.8 127.3q0 .6-.7.7 0-.5.7-.7"/><path fill="none" d="M117.8 262q.2.8-.5 1-.2-.6.4-1"/><path fill="#647183" fill-opacity=".8" d="M325.1 126.2q-.5.5-1.1.8.3-.8 1.1-.8"/><path fill="#758190" fill-opacity=".9" d="M328 124.2q-.3.6-1 .8.3-.6 1-.8"/><path fill="#5d697c" fill-opacity=".9" d="M90 293.2q-.2.6-.8.8 0-.8.8-.8"/><path fill="#818b9b" fill-opacity=".5" stroke="#818b9b" stroke-opacity=".5" stroke-width=".5" d="M207.8 380.2v.7l-1-.2z"/><path fill="#8b93a0" fill-opacity=".6" d="M313 102q-.4.5-1.3.7z"/><path fill="#5d687d" fill-opacity=".4" d="M317.8 99.3q-.2.4-.6.3 0-.5.6-.3"/><path fill="#868f9d" fill-opacity=".6" d="M221 97.9q-.4.7-1.3.8z"/><path fill="#cbcccd" d="m235 385 1.2.2v.7l-1.2.1z"/><path fill="#fff" fill-opacity=".4" stroke="#fff" stroke-opacity=".4" stroke-width=".5" d="m321.7 96 .3 1.2q-.6 0-1.1-.3z"/><path fill="#838992" d="M212.1 387.3h1l-.8.5z"/><path fill="#536173" fill-opacity=".4" d="M225.8 95.2q-.1.3-.5.5 0-.6.5-.5"/><path fill="#8c94a5" fill-opacity=".2" stroke="#8c94a5" stroke-opacity=".2" stroke-width=".5" d="m228.8 93.3-.4.4q-.2-.5.4-.4Z"/><path fill="#57667a" fill-opacity=".5" d="M126.8 289.3q0 .3-.5.3 0-.4.5-.3"/><path fill="#dedfe0" d="m146.7 52.2 1.5-.1v.6l-1.5.4z"/><path fill="#566476" fill-opacity=".9" d="M97 289.2q-.2.6-.8.8 0-.7.8-.8"/><path fill="#7a8593" fill-opacity=".3" stroke="#7a8593" stroke-opacity=".3" stroke-width=".5" d="M175 49q0 .8-1 1.1.2-.9 1-1.2Z"/><path fill="#6e788a" fill-opacity=".6" d="M132 286q-.2.4-.8.7 0-.6.7-.7"/><path fill="#546175" fill-opacity=".8" d="m104 285.3-.9.8q.1-.8 1-.8"/><path fill="#ba434c" d="M329.1 423.1q-.3.8-1.1 1 .2-1 1.1-1"/><path fill="#cdcdd5" fill-opacity=".1" d="m239.2 41.6-1.1.5q.2-1 1.1-.5"/><path fill="#a6abb3" d="m196.2 40.8 1 1h-1z"/><path fill="#262626" stroke="#262626" stroke-width=".5" d="M128.8 23.4q1.2.7 2.6 0 3.3-1.5 7-2.7.6-.5.8-1.2 1 .4 2.1.2a243 243 0 0 1 36-9.8c5.1-1.8 5.9-5.3 11.3-2 2.8-.2 12.3-.3 14.2-2.6 3.4-1.3 4.7.6 7.7 1 5.3-.2 12 .5 17-1.2q2.7.7 5.2 1.6a199 199 0 0 1 139.5 68.4A208 208 0 0 1 418 262.5l.2 1.8q10.1 3 20 7c94 41.4 92 180.6.8 224-65.9 30.3-144.8 2.4-172.2-65.6q-2.5-7.1-4.6-14.3-.7-.5-1.5-.2c-8.6 2.6-17.6 3-26 6-6.1-1.1-16.6.6-23.1.8l-23.8-1.4c-13-2-25-4.5-37.7-8.2q-12.6-4.7-25-9.8-12.7-6.6-25-14A334 334 0 0 1 76.4 371c-61.6-53.2-90.8-135.8-66-215a201 201 0 0 1 71-104c12.1-11.2 32.6-20.4 47.3-28.6Zm38.1-7.2c-.9 0-4.6.6-5 1.4a83 83 0 0 0-20.7 7.6c-8.9 1.5-33.4 15-41.5 21.1a199 199 0 0 0-53.4 57.8q-.6.8-.6 1.8a7 7 0 0 0-2.7 4c-1.4 2.6-7.5 12.8-7 15q-1.5 1.2-2.1 2.8-.9 1-1 2.4-5 12-8.7 24.5-.4 1.2-.2 2.4a20 20 0 0 0-2.3 8q-3.6 12.9-4.5 26.2c-.1 1.4-1.6 5-.2 6-1.5 2.1-1.1 8.4-.8 11q-1.1 3.7-.1 7.5-.6 5.2.1 10.5-.3 1.4 0 2.6 0 5.2 1 10.3-.5 1.8.8 3.1c-.6 3.3.3 6.7 1.2 9.9-.3 1.3-.2 3.4 1.8 2.8-2 1.7-.1 8.4 1.3 9.4a5 5 0 0 0 .7 4.6c.3 1.7 1.6 8.3 3 9.1q0 3.6 2 6.8c.7 1.7 2 8.2 4.1 8.3-1 1.6.4 3.3 1.2 4.7 1.1 2.5 2.4 6.2 4.3 8.2.2 1.7 1.6 5.2 3.4 5.8.2 2.5 2.4 6 4.3 7.6q0 2.7 2.7 3.5c-.3 2.5 3 5.4 4.2 7.4q1 2 2.8 3.5c1 1.9 4.3 6.2 6 7.2q.3 1.5 2 1.7c.2 2 4 6.2 6.2 6.4q-.4 1.3.8 1.9c1.5 1.6 4.8 6.5 7.2 6.1-.6 2 2 3.9 3.7 3.9.4 2.3 4.6 4.9 6.4 6.4 1.2 1.3 3.8 4 5.7 4 .5 2 5.4 4.7 7.2 6q1 1.2 2.8 1.7a26 26 0 0 0 8.2 5.2c1.2 1.3 2.8 2.9 4.6 2.4.8 1.7 7.2 5.6 9.4 4.5q-.4 2 1.8 1.9c1.1 1.2 8.3 5 10.2 4.2-.1 1.9 1.8 1.4 2.8.7q-.4 1.2.7 1.7c4.6 1.7 18.2 8 22.4 6.3q-.4 1.1.6 1.6 4 1.4 8.3 1.5.5.9 1.4.9 13.8 3 27.9 3.8c2.6.4 6 1 8.7.2q.6.8 1.7.7 8.2 0 16.5-.8 1.8.3 3.7-.1 11.3-.7 22.3-3 3 0 6-1c1-.6.8-2.6-.2-2.4q-1.2-12.7-1.6-25.6.4-.5.4-1-1.4 0-2.6.8a2 2 0 0 0-1.5-.6c-5 1.3-11.3 3.3-16.4 3.2q-.9 0-1.2.8l-1 .2-1.1-.2q-1.2 0-2 .7-1.1.3-2.2.3-8.9 1-17.6 1.3h-1a7 7 0 0 0-3.4 0q-2-.3-4 0-4.5-.6-8.8-.3c-.7-1.7-5.8-.5-7.3-.3l-2.2-1.5q-5.3-.3-10.3-1.8l-3.4-.7q.2-.6-.4-.8-2.8.3-5.5-.5-1.2 0-2.5-.3c-1.1-1.6-8.8-2.6-11.1-4.8l-2.5-.5c-.2-1-2.4-.7-3.1-1.1a62 62 0 0 0-7.8-3 4 4 0 0 0-3.8-1.5q-.3-.9-1.1-1.2a3 3 0 0 0-2.3-1.3q.3-.6-.3-.9-3-.6-5.5-2.1l-1.6-1q-.7-.7-1.6-1 0-.7-.6-1.2l-8.3-3.8q-.4-1.2-1.4-2-.5-.5-1.3-.7l-1.2-1.4c-3.5-1-6.1-4.6-9-6.5l-.8-.4-.9-1q-1-.6-2.1-.6c-.6-1.2-5.5-7.2-7.2-7.3q-.3-.4-.9-.6l-7.1-8a37 37 0 0 0-8.1-7.4q.5-3.3-2.8-2.8 1-1.2.2-2.6c-1.6-1.4-3.4-4.8-5.3-5.5q.3-2.1-1.9-2.8c0-1.8-3.7-7.5-5.2-8.2.1-1.6-1.6-5.5-3.8-4.9q.8-1 .5-2a51 51 0 0 0-4.1-7q0-2-1.4-3.4-1.4-4-3.2-8-.7-1-2-.7.7-.8 1-1.5-.6-2.8-2-5.2-1.4-4.8-3-9.5-.1-1.8-1-3.6c-.6-1.7-1.6-9.3-2.7-10q.2-1.2 0-2.2l-1.7-11.1c0-.6.6-2.6-.4-2.5l-.2-8.8a2 2 0 0 0-.9-1.8 3 3 0 0 0 .9-2.5v-9.7q.2-1.2-.9-1.6c1.8-.8 1.1-4.6 1.7-6.3q0-.5-.6-.4c1.3-3 1.3-7.5 2-10.8q0-1.3-1.2-1.6c2.2-1.9 2.8-2.5 2.2-5.9q5-15.7 10.9-31 2-3.2 3.5-6.8c2.3-8 22.2-34.8 23.5-38.2 11.6-12 22.3-22 35.8-31.7 3.8-4.3 30.2-16.5 31.3-17 .7 0 2.7-.1 2.7-1l1.5-.5q.6 0 .7-.6l1.2-.2q1 0 1.8-.5l1.3-.5 1-.2c9.4-4 22-5.2 30.7-8.5q.7 1 2 .6l9.2-1h1.2a177 177 0 0 1 25.8 0 107 107 0 0 1 13.6 1.2l7.3 1c.4.6 13.3 2 15.8 3.8l7.2 1.5 1 .6c1.8.3 3.6 1.7 5.1.3-1 1 1.8 2.3 2.6 2.6l5.5 1.4q.3.6 1 .7l1.9.5c1.9 1 4.7 2.7 6.8 2.5q1 1.6 3 2 .8.8 2 .9l1.3.3q.3 1 1.1 1.1c.3.9 2.4.7 3.1.8-.3.9 1 1 1.6 1q3.7 2.7 7.8 5 .6 1 1.9 1.4.6.6 1.4 1l1.9-.5c0 1.7 5.8 7 8.3 6.1q0 1.8 1.7 2c2.2 2.1 5.5 5.3 8.3 6.4A4 4 0 0 0 337 88q3.4 3.8 7.2 7.2 2.1 2.7 4.8 4.7c1.3 1.6 5 7.6 7.1 7q-.6 2.7 1.9 3.8c1.2 2 3.9 7.2 6.3 7.5-.9 1.8 1.3 4.6 2.7 5.6.7 2 3.3 7.2 5 8.2q-.5 2.6 2 2.9c-.7 2.3 2.2 7.1 3.5 9q-.3 2 1.5 3.1c-.2 1.4 2.1 8.6 3.2 9.1q-.4 1.3.8 1.9c-.2 3 1.4 7 2.3 9.9q0 .7.7 1c-.4 3.2 1 6.1 1.3 9.3q.3.6.8.8-.6 2.4.2 4.8.8 4.7 1 9.5.3.5.9.7-1.2 2.8 0 5.8-.3 5.7 0 11.3l-.1 2.5a86 86 0 0 1-.9 10.7q.1.8 1 .7-1.6 1.5-1 3.8-1.3 6.2-1.7 12.6l-.4 1.4q-2 8.7-3.7 17.3 10.4.7 21.2 1.7 1.1.1 1.7-1c1-5.5 3.3-12.5 3.4-18l.5-.8q.9-5.2 1.4-10.6a2 2 0 0 0-.7-1.9 3 3 0 0 0 1-2.5c0-3.2.9-8.3 0-11.1.6-1.2 1.3-4.2-.9-4 2-2.2 1.1-6.6 1-9.5q-.3-.7-1.1-.6 1.5-1.5.8-3.6l-.9-8.7a1 1 0 0 0-1-.8c1.1-1 .4-6.6-.8-6.6q.1-5-1.4-9.6c-.4-1.2-.3-4.3-1.6-4.6.2-3-1.2-6.4-2.2-9.2q0-1-.8-1.7c-.2-2.2-1.4-7.4-3.3-8.5q.8-1.6-.7-2.6c0-2-2-7-3.2-8.3q0-2.4-1.8-3.8c0-1.5-2.6-7.7-4.3-8q.5-2.6-1.7-3.8c-.2-2.2-2.1-4.6-3.1-6.5q-.8-1-2-.8c1.7-1.7-1.4-5.2-2.9-6.1.2-1.4-3.8-7-5-7.7q-.6-2.6-3-4c-.3-1.7-3.8-6.3-5.4-7-.3-1.8-3-4.8-4.5-5.8-1.4-2-4-5.6-6.4-6.5A5 5 0 0 0 353 74c-1.7-2-4.6-5.4-7.2-6.2q-.3-2.4-2.7-2.5c-.2-1.6-5.6-6.4-7-6.3q-.7-2.4-3.1-2c.4-1.8-5.7-6-7.4-6q-.3-2.1-2.4-1.7c-.6-2.2-5.6-4.6-7.4-5.7-1.8-1.6-4.3-3.8-6.8-3.8-.8-1.8-7.1-5-9.2-5-.5-1.9-4-3.4-5.8-3-2.4-2.6-18.5-10-22.3-9q.5-.9-.4-1.5c-2.5-.4-7.3-3.5-9.4-1.4q.3-1.5-1.3-1.9-11.7-3-23.6-5c-2.1-.2-5.2-1.8-7 0q.1-.6-.5-.8a76 76 0 0 0-20.4-1 183 183 0 0 0-42.2 5Zm9.8 32.1q-1-.3-1.6.6-1 .3-1 1.2l-1-.2-1 .3q-1.2-.3-2.4 0L155 54.8c-30.4 13.8-54 29.5-74.3 56.5l-1 2c-.8-.4-1.6 1.1-1.7 1.8l-4.3 6.9q-.1 1 .9 1c-6.7 4.1-13.8 25.3-16.8 32.9q-.7 3-1.7 5.8 0 1.5 1.5 1.4c-3.8 1.6-3.7 9.5-4.8 13-1.3.6 0 2.6-.5 3.7-.6 3.1-2.2 9.8-1 12.6q.3.4.3 1a5 5 0 0 0-1 5.6c-1 2.7-.6 8-.5 11q-.1 3.6.2 7 0 4.8.8 9.4.6 1 1.7.3l.2 1.1q-1.2.6-1.7 1.8a59 59 0 0 0 1.4 8.2q-.8 1.2.4 2.1c.1 2.7.8 6.7 1.9 9.1q.5 4 2 7.8c.3 1.7 1.6 8 2.9 9l1 .5a2 2 0 0 0-.5 2c.7 1.7 2 7 3.5 7.8q-.3 1.5 1.1 2-.5 2.2 1 4 1.5 4 3.9 8 .2 1.9 2 2.2h.7q-.6 1-.6 2l3.6 6.9q1.1 1.6 2.4 2.8 0 1.2.9 2.1a55 55 0 0 0 6.3 8.8c.6.8 2.8 5 3.6 5q2.7 4 6 7.1.8 1.4 2 2.3 3 4 7 6.9.5 1.2 1.8 1.1c.3 2.4 4.6 5.4 6.5 6.7q1.4 1.6 3 2.8c2 1.3 5.8 5.2 8 5.2a7 7 0 0 0 2.6 2.8q8.2 5 16.6 9.5c1.5.9 2.6-1.1 4.3-1l.1.5c-3 1.2-1 3 1.3 2.7q1.6 1.6 3.7 2.2c3.1 1.1 8 4 11.3 3.4.6 2 7.8 3 9.8 3.9 4.9.8 10.5 3.8 15.2.7v1q-.6 0-.8.7c1 1.5 9.3 1.7 11.1 2q1.5 0 2.7-.3c.8 1.2 4.6.7 5.8.6l1 .2c11.6.5 15.6 1.4 25.3-5l1 .2c0 1.7-4.8 2.4-3.5 3.9 5.7.3 13-1.4 18.7-2.3 2-1 9.5-4 9.8-6.2 6-49.4 38-86.2 83.7-104.1q.8.3 1.2-.4c4-1.3 9.6-2 13-4.5q.6.5 1.4.5 6.3-1 12.8-1.2.6-.4.7-1.2.5-4 1.5-8a1 1 0 0 0-.7-.6c2.6-1.7 3.1-9.7 3.5-12.7.6-.6 1.3-2.5-.3-2.4 1-.6 1.7-3 0-2.9q1.5-1.5.7-3c2.4-2.4 1.7-18.3 1.3-22l-.4-1.5q.5-1 .5-2.2 0-5.3-1.2-10.4.4-1.6-.8-2.9c.7-2.5-.7-6.7-1.1-9.3q0-1.8-1.6-2c1.9-1.6-1-7.6-1.5-9.7q-.3-1.5-1-3-.9-4.6-3-8.8a8 8 0 0 0-2-4.3q.2-1.2-.5-2.2c-.5-1.4-3-7.9-4-8.5q-2.6 1-5.3 1.6l-.7-.2-.1-.3q3-.7 5.3-2.9-.6-3.6-3.3-1.2-.7-.4-1.1-1a3 3 0 0 0 1.9-2.6q-1.5-3.9-4.1-7-.4-1.5-1.6-2.9a38 38 0 0 0-5.4-7.7q-.3-1.5-1.6-2a5 5 0 0 0-2-3.2c-1-1.5-4.8-7.4-6.4-7.6 0-1.6-4.7-6-6-7.2a35 35 0 0 0-5-5.1q-.2-.6-.6-1l-9.5-8.7a56 56 0 0 0-7.7-5.9q-3.3-3-7.1-5.3a1 1 0 0 0-.6-.9q-3.2-1.5-6.3-3.4c-3-2.1-6-4.6-9.8-5.3q0 .3-.2.4-.4-2-2.5-1.8c.6-1.2-3-1.9-3.7-2.2q0-.6-.5-.7l-7-3c-.9-.2-3-1-3.4 0a4 4 0 0 0-2.7-2.7c-2.6 0-10.2-4.6-12.2-2.5q0-1-.9-1.5l-7-2c-6-1.2-28-5.6-32.2-2.5 0-1.1-1.7-1.2-2.4-1.3l-12.4.5q-10.3.8-20.4 3.2ZM217 72.1c2.5 2.7 2.5 6.6 3.2 10q0 1 .7 1.1c-2 5 1.3 11.5-6.3 14.8-11.6 2.8-6.3-14-7.5-20 1.7-6.4 5.3-5.2 9.9-5.9Zm-34 50.2c.1.5 0 1.6.7 1.5q10.6 23 19.2 46.9a2 2 0 0 0 1.3 1.4h.5q-.5 1-.5 2.3c2.9 7 10.8 30.7 14.7 35.3q20.3 3.3 40.7 6.1 2.7.4 5.4.4 1.5.8 3 .6c2.9 1.3 13 0 10.5 5.2-6.7 8.6-16.3-1.6-24.7 2.4l-.3-.4q-.6-1-1.9-1.2c-14.3-1.7-32.6-1.3-45-9.8q-21-49.5-41.6-99.5c-.3-3.2 2.6-7.3 6.1-6.2 5.6 2.7 8.6 10.2 12 15Zm-69 3-.7-.6q.7-1 .5-2c-2.3-2.9-4.6-7.2 0-9.4 7.5-4.5 14.5 6.8 19 11.3 5.6 7.3-1.6 9.1-7.8 8l-8.5-7.3q-1.3-.6-2.5 0Zm178.2 4.7c3.8-4.4 13.9-16.5 21.3-15.5 5.1 1-7.5 11.6-9.4 12.9a18 18 0 0 1-10.5 3.7q-1.2 0-1.4-1.1Zm-203 87.4-11.6-.2q-2.8 0-5.4-.8-.6 0-1-.3 0-4.6 4.4-6c4-1.1 20.7-1.2 23.6 1.2 4.1 4-8.3 5.4-10 6.1Zm256.9-6.9q2.3.6 4.7 0c1.2.5 5.5.2 4 2.6-4.3 3-9.2 2.4-14.1 3a27 27 0 0 1-4.5 2l-.2-.9c1.6-.1 1.3-1.3-.3-1.3q-3.8.2-7.3-.7-1.4-.7-.3-1.6c4.9-3.4 12.4-2.2 18-3Zm28.3 59.3c-8 .3-16.4 1.6-24.1 3.9q-1.8 0-2.5 1.6l-1.5-.3a105 105 0 0 0-69.3 74.3q-1.5 2.7-1.7 6c-1.4 2-2 8.1-2.8 10.7q-.3 1.2.4 2.2c-1.2 1.1-1.2 4.1-1.6 5.7a72 72 0 0 0-.3 9.6q.3.7 1 .8a3 3 0 0 0-1 3.6q-.5 5.6.4 11 0 1 1 1.3a7 7 0 0 0-.3 4.8q.8 5.3 2.3 10.3c.4.8.4 3.6 1.5 3.4-.2 2.6 1.8 7 3 9.4q.2 1 .8 2a56 56 0 0 0 6.6 11.7 26 26 0 0 0 5.6 8.4l1.1 2q.5.6 1.3.7-.2.6.2 1.2a82 82 0 0 0 6.6 6.8c1.6 1.9 5.8 6.8 8.3 7-.4 1.8 5.6 4.8 6.7 6.4 2 .7 4.7 3.6 6.7 3.6 1.2 2 6.8 4.8 9.3 5.4q.6.9 1.6 1.3a68 68 0 0 0 11.5 4.7q1.2 1 2.7.5c.9 2 10.1 3.8 12.5 4.2a6 6 0 0 0 4.2.8c10 3 24 3.5 34.5 2.4l3.8-.2 1.3-.3c42.5-5 73.3-33.4 86-73.6a14 14 0 0 0 .9-3.9q2.4-6.4 3.2-13.3 1-1.2.7-2.7c.4-3.2 1.8-8.5 1.1-11.5q1.1-1.6.7-3.3.8-5.4.1-10.7.3-3.3 0-6.6-1.5-9.5-3.7-18.8 0-1-1-1l-.2-1.5a29 29 0 0 0-3-9q-.3-1.6-1.2-2.8 0-.7-.7-.7a23 23 0 0 0-4-8.7c-.3-.8-.9-2.5-1.9-2.3-.4-3-3.5-6.2-5-8.7q-.6-1.2-2-1.3c-.3-2.6-3.9-6-5.9-7.7q-.8-2.5-3.4-2.5c.5-2.2-5.2-6.8-7.1-7.1 0-1.7-3.3-3.4-4.5-4.3-2.5-1.9-6.3-5.5-9.5-5.9.2-1.4-1.8-1.7-2.8-1.8q-.1-1-1.1-1.4l-7.9-4a9 9 0 0 0-5.1-1.6q-.1-.9-1.1-1.2a60 60 0 0 0-9.8-3.3q-3.1-1.7-6.7-1.6a76 76 0 0 0-30.1-3.4c-.6-.2-4.8-1.5-4.8-.7ZM130 294.2q3.2-.7 4.4 2.3a6 6 0 0 1-2.3 5q-3 2.7-6 5.7-1.8.4-2.4 2.1h-.8q-1.8 1.8-4.2 2.6a3 3 0 0 0-1.3 1.4c-2-.5-5.3 1.7-6-1-.5-3 3.8-6.7 4.7-9.4q1-.2 1.1-1.2c0-1.5.8.7 2 0 3.3-4 6.7-5 10.8-7.5Zm280.7 32.6q4.8-4.6 10-8.8.8-.7 0-1.7l2.4-1.3 1.5.5q2.7-1 5.2-2.4.6 1 1.7.9 2.3 0 4.6-.4c3.7.6 6.3 3.4 9.2 5.5q.4 1.3 1.7 1.7c0 2.3 6.5 6.5 8 8.5l.7.5c6.4 9-1.1 9-.5 12.4q-1 0-.8 1.1-1 0-1.5.7-1 .9-1.1 2.2a299 299 0 0 0-37.4 36.4c-.4 2.1 5.5 7 6.9 8.6l19.6 17.7 1.3-.1c.6 4.3 19.8 17 13.4 26.2-7 6.8-18 23.5-29.3 20-15.3-11-28.3-27.4-42.2-40.3-1.5-1.6-3.6 1.3-4.8 2.1-12.5 11.2-21.6 27.3-36.2 35.7-9.1 4.8-15.1.8-21.8-5.2-.7-2.7-5.2-5.6-7.2-7.6q-.6-1-1.6-1.6c-6.7-8.2 1.3-9.7 2.5-14.4q1 0 1-.9.9 0 1.4-.8a4 4 0 0 0 1-2.2 478 478 0 0 0 35.4-34.4q.2-1.1-.7-2a148 148 0 0 0-21-19.6q-9.4-8.8-18-18.7 0-.8-.6-1.3c-3.4-6.4-2.9-9.4 1.5-14.6 8.3-6.4 14.3-17.9 26.4-15.8 11.9 5.2 26 24.6 36.3 33.5 1.3 1 6.6 7 7.8 6.9 8.6-5.3 18.8-19 25.2-27Zm-83.4 15.4q.4 1.2 1.6 1.8c3.4 1.8 4.8 5 7.8 7.1a4 4 0 0 0 2 2c1 1.7 6.8 7.2 8.5 7.7q.6 1.2 1.6 2l8.3 7.2q1.2 1.8 3 3c2.2 3.2 7 8.4 6 12.5-3.5 5.9-20.5 19-22.3 22.7l-.6-.1a4 4 0 0 0-2.3 2c-3.3 3.2-10 9-11.7 13q-1 0-1.1 1c-1.4 2-4.3 4.8-4.6 7.4.2 1.4 2.7 3.6 3.7 4.6a50 50 0 0 0 5.8 5.2q1.8 2.3 4 4.4 1 .7 2.1-.2l29-30c8.4-8 14.3-14.8 26-7.5q1.7 1.8 3.6 3l9.5 9.3A591 591 0 0 0 425 439c1.2 1.3 6 7.3 7.5 7l10.8-10.1q2.3-2 1.4-5-.7-2.5-2.7-4a294 294 0 0 1-15.6-14.8q-.6-.6-1.3-.9c-.8-2-6-6.5-7.9-8q-1.2-2-3.1-3.2c-3.3-4.2-11.4-11-13.8-15l.6-2.2q.8 0 1.2-.8l1.1-1 .8-.8c11.3-12.9 26-22.5 36.3-36.4a4 4 0 0 0 1.7-2.8q.7-.3 1-1c.7-1.5 2.6-3 1.3-4.6a94 94 0 0 0-10-9.7 5 5 0 0 0-2-2q-1-2.4-3.2-1.2c-10.6 11.6-22.8 21.2-32.5 33.5-4.3 4.7-8.8 8.8-15.6 8.8-1.8-1-3.1-.9-4.6-2.7a177 177 0 0 0-10-10q-3.9-4.2-8.1-8a7 7 0 0 0-2.2-2.1 67 67 0 0 0-8-8q-.3-.7-1-1-3.1-4-7-7-.5-1.3-1.7-1.9c-.6-1.1-2-2.9-3.4-1.7l-11 11c-2.3 3.2.6 7 3.3 8.8Zm-107.3-3a9 9 0 0 0-.1 4.8c-1 4.3.3 7.7-5.4 8.9q-3.5.9-6.5-.9a13 13 0 0 1-1.2-4.9q.7-7 .5-14.3 1-.1 1-1 1.6-.4 2.8-1.6l3.7-.9c5.8-.1 5.3 5.8 5.2 9.9Z"/><path fill="#9fa1a5" d="M235 385v1q0 .7-.8.9-.5-.7-1.1-1.2.7-.8 1.9-.7"/><path fill="#d6747b" d="m404 380.2-.9.7q0-.6.8-.7m-.9.7q-.5.7-1 1 0-1 1-1m-1 1q-.6.9-1.3 1 .4-.8 1.2-1m-1.3 1-.6 2a7 7 0 0 0-4 2q-.6.5-1-.3c.2-1.3 4.3-3.2 5.6-3.8"/><path fill="#8c95a2" d="m195 115.1-.2 1c-2.6 3.4-8.5 4.4-11.2 7.7-.7 0-.6-1-.6-1.5q5.7-3.8 12-7.2m-31.8 73.6-.1-1c-.3-1.1 8.3-5.6 9.6-6.2 1.7-.7 3-3.4 5-2.1q-1.7.5-2.6 2zm90.2 35.3.3.4c.3 1.2-6 4-7 4.7l-3.5 2.5q-1.2.7-2.1 0 4-3 8.3-5.7zM188 377.8v-1c-.3-1 3-1.9 3.4-2.9a204 204 0 0 0 11.3-6.6l2-.9q2.1-.3.5 1.2c-5.9 2.6-11.3 7.3-17.2 10.2"/><path fill="#d7d9dc" d="M281.2 53.3v1l-5.5-1.5c1.2-2.5 4.5-1.7 5.5.5"/><path fill="#dbdde0" fill-opacity=".9" d="M192.8 39.6q2 0 3.4 1.2v1l-9.3 1q1-.7 1-1.9c1.8.5 3-1.2 4.9-1.3"/><path fill="#283952" stroke="#283952" stroke-width=".5" d="M209.1 11.2c-3.4 4.2-24.4 14.8-25.2 17.8-1.8-.2-4.4 1.2-4.9 3-1.4-.2-4.7 1.8-5 3q-2 0-3 1.6c1 1 2.6-.6 3-1.5q3.5 0 5-3a7 7 0 0 0 5-3q1.8-.4 3.4-1.3c3.4-2 27.1-15 27.6-16.8q7.3 0 14.5 1.2.6.2.5.8l-40.4 26.2q-1 .6-1.7 1.7-1.7.3-3 1.3c-8.8 3.2-21.3 4.4-30.6 8.5q-.5-.5-1.1-.5l-2.5.1q-.6 0-.5.5l-1.4.3q-.7.3-.6 1l-1.5.1a4 4 0 0 0-2.7 2c-1.1.5-27.5 12.7-31.3 17a255 255 0 0 0-35.8 31.6 34 34 0 0 1-6.8 3.4c-2-.7-7 3.5-9.2 4.3q-.7.4-1 1.1-12 6.5-24 13.4c-.4-2.4 5.7-12.5 7.1-15 2.3-1.8 9.9-5.7 11-8 1.4.3 4.6-1.8 5-3q2-.3 3.1-2c.6.2 2.6-.4 1.4-1.2q-1.3 0-1.4 1.1c-1.2.2-3 .5-3 2.1-1.6 0-4.8 1.4-5.2 3-2.1-.2-6 3-8.2 4q0-1.2.6-2 21-34.2 53.4-57.7c8.1-6.1 32.6-19.6 41.5-21.1-2.8 3.7-21.3 15.9-22 17.6-1 .4-4 1.5-4.1 2.8 1.5.9 3.5-1.6 4-2.8 2.7.4 37.9-21.2 43.2-24q1.3-.8 2.8-1.1l1.8-1.5a183 183 0 0 1 42.2-5ZM237 13q12 2 23.6 5 1.6.3 1.3 1.9-16.3 10.5-32.6 21.3c-2.6-2-4.4-3-7.5-1a4 4 0 0 0-2 1.4q-11.3-.6-22.5.1l-1-1q-1.5-1-3.5-1L236 14.3q.7-.5 1-1.4Zm-97.8 6.5q-.1.8-.8 1.2-3.7 1.2-7 2.8-1.5.6-2.6-.1c3-1.3 6.8-5.2 10.4-3.9Zm160.6 15.3c2 0 8.3 3.2 9.2 5q-12.6 7.6-25 15.6l-1.9-.5c0-.5 0-1.9-.9-1.6-1-2.2-4.3-3-5.5-.5-.8-.3-3.6-1.6-2.6-2.6zm16 8.8c1.8 1 6.8 3.5 7.3 5.7q-11 6.6-21.7 13.7c-.7-.1-2.8 0-3.1-.8q.5-1.5-1.2-2l-1.3-.3c.2-1-1.8-1.2-2 0q-1.8-.4-2.9-2zM197.2 45l12.4-.5c.7 0 2.4.2 2.4 1.3q-34 19.6-68 39.5-.9.6-1.8 0 .2-.6.8-1c17.4-11.2 34.5-24.3 51.7-36.1a5 5 0 0 0 2.5-3.2Zm47 3.2 7 2.1q.9.4.9 1.5L216.9 72c-4.6.7-8.2-.5-10 5.9q-16.8 9.9-34 19.3l-.1-1.1a7776 7776 0 0 0 71.3-47.9Zm-72.2 2-.2.7q-.1.5-.5.8l-32.5 18.7-1.5 1.3q-1.9 0-.5-1.2 9-5.6 17-12.3c.7-.8 3.3-2.8 1-3.4l14.8-4.6q1.2-.3 2.4 0Zm153.5.8c1.7 0 7.8 4.2 7.4 6l-19.7 12.2q-1.2-.2-2.5-.2a86 86 0 0 1-7.8-5zm-61.3 3.4A4 4 0 0 1 267 57l-33.2 19.4q-3 1.6-5.9 2.7v-1q16.6-10.7 33.4-21.1a9 9 0 0 0 3-2.6ZM336 59c1.4-.1 6.8 4.7 7 6.3L324.3 77c-2.5.9-8.3-4.4-8.3-6.1q10-5.8 20-12Zm-54.6 4q2.3-.1 2.6 1.8l-85.4 49.6-3.8 1.6v-.9L221 98h1.3l.7-.7q1-.9 2.3-1.5l.5-.5 3-2q.8 0 1.4-.4.5-.2.9-.7 1.2 0 1.8-1a2 2 0 0 0 1.3-1.2q1.3.5 1.8-.9c1.6 0 3.7-1.6 5-2.6Q261.4 75 281.5 63Zm64.3 4.8c2.6.8 5.4 4.2 7.2 6.2q-9.5 5.5-18.7 11.4c-2.8-1.1-6-4.3-8.3-6.4q10-5.5 19.8-11.2ZM294 69.7q3 1.8 6.3 3.4.6.3.6.9-1.5 0-2.7.8l-92 53.1-1.4.4v-1.1l85.4-55.6a23 23 0 0 1 3.8-2Zm61.6 8c2.4 1 5 4.4 6.4 6.5q-9 5.7-18 11-3.8-3.3-7.1-7 9.5-5.1 18.7-10.5Zm-40 7.5q1.9 1.2 3.2 2.8-1.7.3-3.2 1.2l-21 12-1-.1 1.3-1.4q10.3-6.3 20.4-12.8.9-.6.4-1.7Zm50.9 4.8c1.6.6 5 5.3 5.4 7L356 107c-2.2.5-5.8-5.4-7.1-7q9-4.7 17.6-10Zm-292 33q-1 0-.9-1l4.3-7c.5 0 1.9 0 1.8-.9q10.6-5.7 21-11.7c2-.8 11.5-8 12.8-6.9Q94 109.1 74.5 123Zm250.2-27.7 1.1-.4q2.8 2.3 5 5.1L215 166.6l-.4-.4q1.8-2.2 4.4-3.4l.8-.6 91.8-59.4q.8-.3 1.3-.9l1.2-.2.8-.5q1-1 2.2-1.6.4 0 .6-.3l1.5-.5.8-.6q1-.3 2-1l1-1.2a2 2 0 0 0 1.7-.7ZM375 101c1.3.6 5.3 6.3 5.1 7.7q-8 4.6-15.7 9.6c-2.4-.3-5.1-5.5-6.3-7.5a336 336 0 0 0 17-9.8Zm8 13.8q1.2-.1 2 .8c1 2 2.9 4.3 3.1 6.5q-8 4.8-16 10c-1.7-1-4.3-6.2-5-8.2zm-37.6 3.2q1.3.6 1.6 2a6843 6843 0 0 0-96.2 55.4q-2.8 1.6-5.8 2.8V177q9-5.6 17.8-11.4.9 0 1.3-.8h1.2l.9-.7q.9-1 2.2-1.5.4-.2.6-.5 2-1.5 4.3-2.5.7-.2.8-1c.5 0 1.9.2 1.8-.7q1 0 1-1h1.4l.8-.7q1-.3 1.9-1a2 2 0 0 0 1.2-1.3q1.5.3 1.9-1c1.8 0 4-1.2 4.8-2.8a16 16 0 0 0 3.6-1.4l50.7-29.2q1.2-.7 2.2-1.6Zm-232 6.8.6.5-56.3 37.8q-1.5 0-1.5-1.4 1-3 1.7-5.8l51.9-29.7q1.5-1 3.5-1.4Zm276.4 1c1.7.4 4.3 6.6 4.3 8.1q-8.4 4.7-16.5 10.1c-1.3-1.9-4.2-6.7-3.5-9zm6 11.9a19 19 0 0 1 3.3 8.3l-16.8 10.2a22 22 0 0 1-3.2-9zM50 147.9q-6 15.3-10.9 31-11 6-21.8 12.3.9-13.3 4.5-26.2 1.2.3 2.4-.2zm349.8.7c2 1 3 6.3 3.3 8.4l-16 9.6c-.8.5-.6 1.8-1.7 1.4-.9-3-2.5-6.8-2.3-10q8.3-4.5 16.7-9.4Zm-34 6.3a8 8 0 0 1 2 4.3q-50 28.7-99.7 57.6-1.7.2-3-.6 25.4-16.5 51.2-32.5.5-.2.7-.8a5 5 0 0 0 2.4-1.2q.3 0 .5-.5l1.4-.4 1-.7q1-.2 1.8-1 .8-.3 1.1-1.2 1.2 0 1.8-.8 1.2 0 2.1-.7.8-.5 1.2-1.3 1.2 0 1.7-1 2.2-.2 3.2-2.1c1.7.2 3.8-1.4 4.8-2.7 5.4-2 20-11 25.8-14.4Zm38.1 4c1 2.7 2.4 6.1 2.2 9q-9 5.4-17.9 11.2-.5-.2-.8-.8c-.2-3.2-1.7-6.1-1.3-9.3zm-324.6 3 1 .1q-.6.8-1.3 1.3c-4.1 2.3-24 16-26.6 16.5.6-1-.8-3 .5-3.6 4-.8 21.1-12 26.4-14.4Zm55 0v1l-81.7 53q-1 .8-2.3 1-.3-3.3-.1-6.9 39.9-23.3 80-46.3 1.8-1.3 4.1-1.9ZM371 168q.6 1.4.9 2.9-26.2 15.6-52.8 30.4l-.1-1.3 49-30.8q1.4-1 3-1.2Zm-340 4q-2.4-.4-3.1 1.8a2 2 0 0 0-2 1c-1.3.2-4.5 1.7-5 2.8.7 1.3 4.7-1.5 5-2.8.7.2 2.2.2 2-1q2 0 3.1-1.8a2 2 0 0 0 1.8-.8c-.6-.9-1.8 0-1.8.7Zm376.5.5q1.5 4.7 1.4 9.6-9.5 5.8-18.8 11.9-.6-.2-.8-.7a112 112 0 0 0-1.1-9.5zm-34.3 8.1q1.6.2 1.6 2c-11.1 5.7-22 13.2-33.1 18.5V200zm-336.5 4.1q1.3.3 1.2 1.6c-.7 3.2-.7 7.9-2 10.7l-19.8 11.2c-.3-2.7-.7-9 .8-11.1q10-6 19.8-12.4Zm126.3 3v1L58.8 256.2q-.7.5-1.7.5-1.5-3.7-2-7.8 1 0 2-.5l103.3-59.7a9 9 0 0 1 2.8-1Zm246.8 1q.6 0 1 .7.3 4.5.8 8.8-10.8 6.1-21.5 13-.3-5.8 0-11.4a503 503 0 0 0 19.7-11Zm-34 3.2q1.2 1.2.9 3l-24.2 14q-1.1.7-2 1.6-2.2.5-4.6 0l2.7-1.3zm35 9.9q.8 0 1 .6c.2 2.9 1.1 7.3-.9 9.6L390 225q-.7 0-.9-.7.8-5.3.9-10.7zm-376 2q1 .4 1 1.6-.2 4.8-.1 9.7l-19.6 11q-.7-5.2-.1-10.5zm377 12c.9 3 0 8 0 11.2a3 3 0 0 0-1.9.3q-11.2 7.2-22.5 14 .4-6.3 1.7-12.5a510 510 0 0 0 22.7-13Zm-377 1.8q1 .6 1 1.8v8.8A280 280 0 0 0 17.1 239q-1-5.1-1-10.2.7 0 1.5-.5zm126.3 1.6.2.4q-.6.9-1.5 1.6L67 280.7q-.7.5-1 1.3a4 4 0 0 1-1-3.8l45-27.9q.8-.6 1.3-1.4 2 0 2.8-1.9 1.2.2 1.7-1c1.3 0 3.2-.4 3-2q1.5.3 2-1 1 0 1-1h1.5l1-1q1.2.2 1.6-.9a5 5 0 0 1 2.4-1.3l.7-.5q1.8-1.8 4.3-2.5l.7-.6a15 15 0 0 1 4.2-2.5q.6-.2.7-.8l4.4-2.2q.5-.3.6-.8 8.6-5 17.3-9.6Zm-91 9.4-.1 1.2-15.1 9.4q-1 .6-2 .6-1-.9-.3-2.1 1 0 2-.6 7.5-4.5 15.4-8.5Zm340.7 1q.9.6.7 1.8l-1.4 10.6q0-1.5-1.4-1l-19.4 12q-.7.5-.1 1 1 .2 1.7-.4 9.2-5.7 18.7-10.8c0 5.5-2.4 12.5-3.4 18q-.6 1-1.7 1-10.6-1-21.3-1.7l3.8-17.3q2-.6 3.7-1.5l20-11.8Zm-374.5 1q.7 5.7 1.7 11.2c-2.4-.2-15.9 8.4-18.9 10.2-.9-3.2-1.8-6.6-1.2-9.9q9.4-5.3 18.4-11.4Zm339.5 6.2c1.6-.1.9 1.8.3 2.4a8143 8143 0 0 0-75.8 43.6q-2.7 1.6-5.7 2.7v-.2c2.2-3 22.8-15.4 27.3-18.7q.2 1 1.3.9 3-2 6.4-3.4l1.2-1.3q1 0 1.1-.8c1.2-.2 3-.6 2.9-2.1q1.5.3 2-1 2.5 0 3-2.1c2 0 4.8-1 5.4-3q3.6-1.4 6.7-3.2zM38 244c1 .8 2.1 8.4 2.7 10.1-1.5 0-16 8.8-18.5 10.2-1.4-1-3.2-7.7-1.3-9.4q8.7-5.3 17.1-10.9Zm159 4.8.1 1-66.2 42.8a3 3 0 0 0-1.1 1.6c-4 2.4-7.5 3.6-10.8 7.5-1.2.7-2-1.5-2 0q-1 .3-1.1 1.2c-2.6.5-23.3 14.5-27.2 17-.8 0-3-4.2-3.6-5q9-5.1 17.9-10.6.7-.5 1-1.3 2.1 0 3-2 1.3.2 1.7-.9l1.3-.5.9-.2 1.4-1.3q1 0 1.5-1l2.3-1.4q.7 0 1-.8 1 0 1.6-.8a6 6 0 0 1 2.4-1.3l.7-.6a35 35 0 0 1 4.9-2.9q2-1.6 4.5-2.6.4-.3.6-.7l61.1-35.3q2-1.3 4.1-2Zm175.6 3.2q.5 0 .7.6-1 4-1.5 8 0 .8-.7 1.1-6.5.3-12.8 1.3-.8 0-1.4-.5zm29 6.2c1.2 0 4.5-1.2 4.6-2.7-1.1-.8-4.1 1.6-4.7 2.7Zm-360-.5q1.8 4.7 3 9.5-9.4 5.1-18.7 10.8c-1.4-.8-2.7-7.4-3-9 2.7-.8 15.2-9.4 18.7-11.3ZM379 270.5q-2.5 1.6-5.2 2.8l-1.9-.6q1.4-1.2 2.3-2.9c0-.8 4.2.5 4.8.7Zm-333.2 3.4q1.2-.4 1.9.8l3.2 7.9c-3.6 1-14.8 8.2-18.9 10.5-2-.1-3.4-6.6-4.1-8.3 3.2-1.1 14.1-8.7 17.9-11Zm362.4.8q2.4.4 3 3-.6.9-1.7 1.6l-36.7 21-4.9 3.3c-1.4 1.2-2.9-.1-1.1-1.1a1945 1945 0 0 0 39.2-26.7zm-292.4 6 1.2 1a1301 1301 0 0 1-38.2 24.4q-.7-.9-.9-2.1zM52.4 286q2.4 3.3 4 7 .4 1-.4 2l-18.4 11c-2-2-3.2-5.7-4.3-8.2A281 281 0 0 0 52.4 286Zm95.7 9.8q1 0 1 1l-49 30.9q-1.5 1-3.2 1.6a7 7 0 0 1-2-2.3c1.3-2 19.1-11 22.4-13.7q.4-.9 1.3-1.4 2.4-.8 4.2-2.6.5-.2.8 0c.7-.1 2.4-.2 2.2-1.3a9 9 0 0 0 3.5-1.4zm-88.3 4c1.5.7 5.1 6.5 5.2 8.2l-19.7 11.4a14 14 0 0 1-4.3-7.6zm7.1 11.1c2 .7 3.7 4.1 5.3 5.5q.7 1.4-.2 2.6l-19.8 11.3c-1.2-2-4.5-5-4.2-7.4zm68.3 6.7 1.1.3a226 226 0 0 1-30.7 19.4q-1.4 0-1.8-1.1.7-.9 1.6-1.4zm20 2.2v1q-19.4 12-38.7 24.3-1.2.6-1.3 1.7-1.8-1.1-3.1-2.8l37.2-21.4q2.8-1.8 5.8-2.8Zm23.1 0q.8 0 1 .8-27 17-53.6 34.2-1.7-1.1-2.6-2.8 27.1-16.7 55.2-32.3Zm74 1 .9.1-1.3 1.5-32.1 21.6q-.6-2.4.1-4.8a933 933 0 0 1 32.4-18.4Zm-177.5 1c1.3.2 8 6.8 8 7.3l-.7-.4c-4.3 2.1-18.3 10-21.1 12.3-1.7-1-5-5.3-6-7.2zm8 7.3 7.2 8-20.8 12c-2.2-.2-6-4.4-6.3-6.4q9.6-6 19.4-11.8.8-.6.6-1.8Zm8 8.7c1.8 0 6.7 6 7.3 7.3l-20.9 12c-2.4.4-5.7-4.5-7.2-6.1l18.5-11q1.5-.9 2.3-2.2Zm11 9.3c3 1.9 5.6 5.5 9 6.5l-1.9 1q-10.7 6.5-21.6 12.8c-1.8-1.5-6-4-6.3-6.4l20-12.7q.8-.4.9-1.2Zm105 0q0 2.6 1.1 5l-34 22.3q-.9.6-1.1 1.6c-2-1-9.2-2-9.8-4l41-23.7q1.2-.9 2.7-1.2Zm-92 10.6 8.3 3.8q.6.4.6 1.2l-.1 1.2q-11.9 6.6-23.4 13.4c-1.8-1.2-6.7-4-7.2-6zm124.4 1v.9a1183 1183 0 0 1-32.4 21.1c-1.3.1-5 .6-5.8-.6l35.3-20.3a9 9 0 0 1 2.9-1.1Zm-112.3 6q2.6 1.5 5.5 2.1.6.3.3.9.5 1.7 2.3 1.3.9.3 1 1.2-12.2 7.2-24.8 14.2c-2.9-1.2-6-3.1-8.2-5.3zm144 23.2a3 3 0 0 1 1-3.6l32-19q1.1-.5 2 .2-16.3 11-33 21.8-.9.5-2 .6Zm-131-16.2q3.9 1.2 7.8 3c.7.4 2.9 0 3.1 1l.3 1.4c-2.4-.1-22.2 12-25.9 14.1-2.2 1.1-8.6-2.8-9.4-4.5zm13.4 4.6c2.3 2.2 10 3.2 11.1 4.8-8.7 5.9-18 11-27.2 16.2-2 .8-9-3-10.2-4.2a847 847 0 0 0 26.3-16.8Zm13.6 5.1q2.7.8 5.5.5.6.3.4.8c.3 1.8 2.4 1.7 3.4.7q5 1.5 10.3 1.8 1.3.7 2.2 1.5c1.5-.2 6.6-1.4 7.3.3l-32.9 19c-4.2 1.7-17.8-4.6-22.4-6.3q-1.1-.6-.7-1.7zm89.3.2L201.6 413q-.5.3-.3.8-14-.9-28-3.8-.9 0-1.3-.9c5.5-3.6 29.9-18.7 32.8-21.9h4q1.5 1.2 3.5.6l.9-.6q8.7-.2 17.6-1.2c.4 1.3 2.4 1 3.4.9q.7-.2.8-.9l1.1-.1q.7-.2 1-1 .3-.6 1.2-.7c5.1.1 11.4-2 16.4-3.3q.8 0 1.5.7Zm2.2.2q.4 12.7 1.6 25.6c-1.3 1-5.5 2-5.9 3.3q-11 2.4-22.2 3.1 8.1-5.7 16.7-10.8.3-.3.2-.8 2.1-.4 3.2-2.2a2 2 0 0 0 2-.7c-.6-1-2.2-.3-2 .7q-2.3 0-3.2 2.2-2.7.3-5 2-7.3 4.8-15.2 9-.4.2-.4.7-8.3.9-16.5.8-1 .2-1.7-.7 24.3-16 48.4-32.2ZM166.7 393q.8 0 1.2-.6-.9-.3-1.2.6Zm-6.8 4c-1.3.1-4.7 1.5-4.9 3-1.7-.1-3.2 1.2-4.7 2q-.5 1.3 1 1c.9-.8 3.6-1.7 3.7-3 1.5 0 4.7-1.6 5-3 1.6.2 3.9-1.6 5-2.7-.8-1.3-4.8 1.7-5 2.6Zm29 13q-1-.3-1.8.7c.6 1 2 .2 1.9-.8.7.1 4-1 2.6-1.9q-2 0-2.6 2Z"/><path fill="#dd4752" stroke="#dd4752" stroke-width=".5" d="M374.3 269.8q-1 1.5-2.3 2.9-1 .3-2 .9l-12.7 8.8q.7.6 1.7.2l15-9.3 5-2.8a76 76 0 0 1 30.2 3.4l-.9.8-2.2 1q-19.4 13.7-39.2 26.8c-1.8 1-.3 2.3 1.1 1.1l5-3.2 36.7-21.1q1-.6 1.6-1.7c1.5.3 3.3-1.4 4.6-2q5 1 9.8 3.2 1 .3 1.1 1.2a132 132 0 0 0-20.5 14q-1.2.2-1 1.4-2.7-1-3.1 1.7-3-.5-3 2.3-3-1.2-2.8 1.9a3 3 0 0 0-2.4.2l-14.7 9.9q.3.5 1 .4 1.4-1.2 3.3-1.6l6-4.2c2.3-1.5 5.1-1.8 6.7-4.2q1.2.4 1.6-.6 2.1-.3 3-2.1 1.8 0 3-1.1 14.1-8 28-16.4l7.9 4q1 .4 1 1.4l-26.1 17.2-11 7q-1.1.7-1.6 1.7a3 3 0 0 0-3.1 2.2q-1.2-.3-1.9.6c.6.9 1.6 0 1.9-.6a4 4 0 0 0 3-2.2h1.4l39.2-22.8a2 2 0 0 0 1.1-1.3c3.2.4 7 4 9.5 5.9-6.7 3.7-23.2 15-30.2 20.3q-1.2.8-2.3 1.3a972 972 0 0 0-34.5 23.4c-1 .8-3 .5-3.1 2q-2.1.4-3 2.3-1.2-.3-1.9.7c.6.9 1.8 0 1.9-.7a3 3 0 0 0 3-2.3h2a5 5 0 0 1 3-1.9q2.7-1.9 5.5-3.6 8.6-4.5 17-9.4c-6.4 8-16.6 21.7-25.2 27-1.2.2-6.5-6-7.8-7-10.3-8.8-24.4-28.2-36.3-33.4-12-2-18.1 9.4-26.4 15.8l-1.6-.3q-1.2.3-1.2 1.4-.3.7-1 .7-.6-1.2-1-.1c-2.8.4-7.3 4.2-10.1 5.5q-11.4 6.6-23 12.9c8.3-34 35.4-64 69.2-74.3l-1.2 1.7c.6.7 3-.3 2.7-1.4q1.8 0 2.5-1.6c7.7-2.3 16-3.5 24-3.9Zm83.4 29.2c1.9.3 7.6 5 7.2 7.2-2.3.2-15.5 9.9-18.6 11.5a2 2 0 0 0-1 1.4c-3-2.1-5.6-4.9-9.3-5.5a1 1 0 0 0-1-.5l-.1-1c1.8-.2 22.4-12 22.8-13.1Zm10.5 9.6c2 1.8 5.6 5 6 7.7-1.9-.2-15.7 9.5-18.3 11.1q-1 .7-1 1.9c-1.5-2-8-6.2-8-8.5 3-1 17.7-9.7 21.3-12.2Zm7.8 9c1.6 2.5 4.7 5.7 5.1 8.7q-1-.2-1.8.3a776 776 0 0 1-24.2 15.6c-.6-3.3 6.9-3.3.5-12.3 3.2-1.8 19.3-10.1 20.4-12.3Zm-43.8 6q1.2.9 2 2a42 42 0 0 0-8.2 4.8q-.8.4-1.6 0zm50.8 5a23 23 0 0 1 4 8.7h-1l-52 34q-1.7 1.2-3 2.6-1.2 0-2.2.5-1.8 1.6.6 1.2 1-.6 1.6-1.7h1.3q6.3-3.9 12.8-7.4l43.8-25.7a29 29 0 0 1 3 9l-2 .8q-3.9 2.7-8 5.1-.6.4-1 1.3a3 3 0 0 0-3 2q-1.2-.2-2 .9-2 .3-3 2-1 1.3 0 0 2.3 0 3-2 1.5.5 2-.9 2.2 0 3-2 1.2 0 2.2-.3l9-5.4q1 0 1 1 2.3 9.4 3.6 18.8-1.2 0-2.3.7l-52 35.2q-1.1.6-1.6 1.9l-19.6-17.7c-1.4-1.7-7.3-6.5-7-8.6 10-11.3 25.6-27.5 37.5-36.4 6.2-2.2 24.4-13.5 31.3-17.6Zm-127 13.3q1.3.9 2.2 2.2-2.1 1.7-4.5 2.7-.6-.3-.2-1 1.7-1.6 2.5-3.9Zm-42 3.2q8.6 9.9 18 18.7L271.4 399q-.9-5.6-.4-11 1.1-.2 2-.7 16.7-10.8 33-21.8-.9-.7-2-.2l-32 19q-.7 0-1-.7a72 72 0 0 1 .3-9.7l35.4-24 5-2.9q.5-.5.5-1.1 1.3.3 2-.8Zm24.7 8a4 4 0 0 1-2.1-2q.5-.8 1.4-1.5 1.5-.9 3.3-1.6c.5.8-2.5 4.1-2.6 5.1Zm27.6-1a7 7 0 0 1 1.7 1.8l-3.5 2c-1-1 1.7-2.7 1.8-3.8Zm125.5 10.1q.8 0 1.2-.7-.9-.3-1.2.7Zm-115.5-.1c1.4 1.8 2.8 1.6 4.6 2.7q-4 2.9-8.3 5-.5-.3-.2-.8a45 45 0 0 0 4-7Zm93.4 2q.8-.1 1.2-.7-.9-.3-1.2.6Zm-136.8.7a148 148 0 0 1 20.1 18.6q.9.9.7 2-7 7.8-14.7 15a478 478 0 0 1-20.8 19.4c-2.3.3-33 18-33.9 19.5q-2.7-4.4-4.7-9.3 1.3.3 2.5-.2l26-16.8c1.6-1.2 4-2 4.9-4 1.4.1 4.8-1.5 4.9-3q2.3 0 3.2-2c.7.2 2.7-.4 1.4-1.2q-1.2 0-1.4 1.1a4 4 0 0 0-3.2 2q-3 .6-5 3.1-3 .3-4.8 2.7-1.7.3-3 1.3l-26.4 15.1c-1-2.4-3.1-6.8-2.9-9.4 1.7.4 19.8-12.2 22.6-14.1q11.6-7.3 23-15l11.7-7.2q.6-.3.8-1-.9-.6-2 0l-11.6 7.4c-3.4 2-30.6 17.1-31 18.2q-.9 0-1.4.8c-3.2.9-10.4 5.6-13.6 7.5q-1.5-5-2.3-10.3 1 .3 2-.3l42-28.3q.8-.3.9-1.1 8.3-4.7 16-10.5ZM360 373q-1.8-1.4-3-3l6.6-3.8c1 .8-2.9 5.9-3.6 6.8Zm136.8 4.6a40 40 0 0 1 0 10.7q-7.6 4.8-14.8 9.9a57 57 0 0 0-6.4 3.8q-1.2.7-1.7 2-1.5-.5-1.9.9a4 4 0 0 0-3 1.6c1 1.2 2.6-.7 3-1.6q1.4.3 2-1c2.2 0 6.8-3.6 9-4.6l13-7.7c.7 3-.7 8.3-1 11.5q-.8 0-1.3.6-4.2 3-8.8 5.8-.8.5-.8 1.4c-1.4-.3-4.7 1.8-5.2 3-1 .2-2.6.4-2.9 1.6 1 1 2.6-.6 3-1.6 1.9.3 4-1.5 5.1-3q1 0 2-.5l8-4.6q-.7 6.9-3.1 13.3a6 6 0 0 0-2 1q-9.5 6.3-18.5 13-1.8 0-2.4 1.6-2 .3-3 1.9c1 1.2 2.6-1 3-1.9h2q9.7-6.3 20-11.8c-12.7 40.3-43.5 68.6-86 73.7q0-.4.3-.7 6-4.6 12.2-8.9.4-.4.1-1 1.3.1 2.5-.5 1.7-1.6-.6-1.2-1.2.6-1.9 1.7-8.6 4.4-16.8 9.3-1 .6-.9 1.7a99 99 0 0 1-34.5-2.3l29-19.6c2-1.4 1.9-2.4 4.6-2.8q1.5-1-.4-1-1.1 1-2.7 1.4l-.8.8a1582 1582 0 0 0-33.3 19q-.7.4-.6 1.4c-2.4-.4-11.6-2.2-12.5-4.2l7.4-5q5.3-3.1 10.4-6.5 1.4-1 2.3-2.2c.7 0 2.2 0 2-1 .7-.2 4-1.1 2.7-2.2q-2.2 0-2.7 2.1-1.4-.3-2 1.1-1 0-2 .5l-12 7c-2.2 2.2-7 3.2-8.8 5.7a68 68 0 0 1-11.5-4.7l2.5-1q7.5-4.8 14.9-10l10.1-6q.9-.5.7-1.4 3.1-.6 5.2-3c-.9-1.3-4.8 1.9-5.2 3-1.6-.2-2.2 1.3-3.8 1.6L333.4 482l-1.4 1.3c-2.5-.6-8-3.5-9.3-5.5l61.3-41.5q.6-.5.7-1.2l1.6-.2q1.3-.6 1.6-2 2.2 0 3.1-2 1.2.3 1.8-.7c-.5-.8-1.6 0-1.8.7q-2.1.2-3 2-1.3 0-2 .8l-1.3.6-66.7 38.4q-1 .6-2 1.6c-1-1.6-7-4.6-6.7-6.5q1.2-.6 1.7-1.7a2 2 0 0 0 1.9-.8c-.6-.9-1.7.1-1.9.8-1.1-.2-2.7.3-1.7 1.7-2.5-.1-6.7-5-8.3-7 4.9-1.9 8.9-5.4 13.4-8 .6-1 3.6-1.6 3.4-2.8q1.3-2 3.4-2.7c6.7 6 12.7 10 21.8 5.2 14.6-8.4 23.7-24.5 36.2-35.7 1.2-.8 3.3-3.7 4.8-2.1 14 12.9 27 29.3 42.2 40.3 11.3 3.4 22.3-13.3 29.3-20 6.4-9.2-12.8-22-13.4-26.3q1 0 1.9-.5zM329.1 423c1.8-4 8.4-9.8 11.7-13q2.1 0 2.3-2h.6l2.3-.8c7.3-4.2 15-8 21.8-13q1.2-.7 2.6-1c1.7 1.4-2.2 2.2-3 2.6L331 422.5q-.9.6-1.9.7Zm84.9-23q1.9 1.1 3.1 3l-5.8 3.5c-1.5.7-1-1-.6-1.6q1.5-2.6 3.3-5Zm-16.4 11q-2-1.5-3.5-3.1c.4-.3 8-5.6 6.6-2.7a50 50 0 0 0-3.1 5.7Zm-64.7 30.1a50 50 0 0 1-5.8-5 672 672 0 0 0 33.9-19.5 2 2 0 0 1 1.7-.2 1138 1138 0 0 1-29.8 24.7Zm-18-17.5c-1.2 4.8-9.2 6.2-2.5 14.4-2.6-.2-16.3 8.5-19.5 10.3q-1 .7-1.1 1.8a26 26 0 0 1-5.6-8.4zm127 3.1q2.1 1.6 2.7 4l-6.3 3.9q-.6.4-1-.2 2-4 4.6-7.7Zm-17 12.2a27 27 0 0 1-3.9-3.9q1-.1 2-.6l5.5-3.3q.5.5.2 1z"/><path fill="#fefefe" stroke="#fefefe" stroke-width=".5" d="M229.3 41.2v1q-3.1-.3-6.3-.4-.9-.7-1.2-1.6c3-2 5-1 7.5 1Zm10 .4 1.5-1c1.2 0 6.2 2.2 3.2 3.4l-7.3-1a2 2 0 0 1 1.4-1q.6 0 1.1-.4Zm-42 3.5a5 5 0 0 1-2.6 3.2C177.5 60 160.4 73.2 143 84.5q-.6.3-.8 1 .9.5 1.8-.1l68-39.5c4.2-3 26.2 1.3 32.1 2.4a7776 7776 0 0 1-71.3 47.9l-5.3 3-4.3 3.4q.3.6 1 .3 3.8-2.3 7.8-4.4.8-.4.9-1.2 17.2-9.4 34-19.3c1.3 6-4 22.8 7.6 20 7.6-3.3 4.2-9.8 6.3-14.8 2.2 0 4.8-2.4 6.8-3.2q.5-.3.3-.9 3-1 5.9-2.7Q250.2 66.6 267 57c.5-.9 2.5 0 3.4 0q3.4 1.6 7 3 .5.3.5.8l-1 .7-22 14.3-1 .7q-6.7 4.3-13.2 8.8c-1.8 1.1-3.7 1.6-4.7 3.7-.6 0-2 0-1.8.9q-1 .1-1.3 1.2-1.5-.5-1.8 1-.9 0-1 .7l-1.3.5q-.6-.2-.4.4a42 42 0 0 0-6.1 4.2H221l-1.3.8-24.8 16.4a165 165 0 0 0-12 7.2c-3.3-4.8-6.3-12.3-11.9-15-3.5-1.1-6.4 3-6 6.2a9115 9115 0 0 0 41.5 99.5c12.4 8.5 30.7 8.1 45 9.8q1.3 0 1.9 1.2l-4 2-8.3 5.6q1 .7 2 0l3.5-2.5c1.1-.6 7.4-3.4 7.1-4.7 8.4-4 18 6.2 24.7-2.4 2.4-5.2-7.6-3.9-10.5-5.2q49.8-29 99.8-57.6 2.1 4.2 3.2 8.9-1.6.1-3 1.2L319 200q-6 3.8-12.3 7.2l-9.3 6.2q.3.5.8.2 1.5-.9 3-1.2l3.5-2.5q5.8-3 11.4-6.4 1.7-.9 3-2.2 26.6-14.8 52.8-30.4c.5 2 3.4 8.1 1.5 9.7L341.9 200a477 477 0 0 1-19 11.3c-.5.4-1.4 1-.2 1.4q2.7-1 5-3 7-3.6 13.9-7.9.3-.2.3-.7c11-5.3 22-12.8 33-18.5.5 2.6 2 6.8 1.2 9.3l-27.3 17.3q-1.4.8-2.7 1.2c-5.6.9-13.1-.3-18 3.1q-1.2 1 .3 1.6 3.6.9 7.3.7c1.5 0 1.8 1.2.3 1.3q-8.4 5.3-17 10.2c-.4.3-1.5 1-.5 1.3q7.5-3.8 14.7-8c.5-.7 3.2-1.6 3-2.5a27 27 0 0 0 4.5-2.1c5-.6 9.8 0 14-3 1.5-2.4-2.7-2.1-4-2.5q.9-1 2-1.6 12.2-6.8 24.2-14a55 55 0 0 1 1.2 10.3q-1-.1-1.7.4-4.2 2.8-8.7 5.5-1.2.9-.6 2.2-2-1.5-2 1-1.8 0-3.5 1l-5.6 4q-1.2.8-2.7 1.1l-2.3 2-13.9 8q-6.2 4.6-13 8.2l-.9 1-12.8 7.6c.7 1 3.9-1.2 4.4-2q2.3-.8 4.2-2l59-34.2c.3 3.6 1 19.5-1.3 21.8q-18 11.5-35.9 23.4c-.8.8-2.8 1.3-2.9 2.6a8 8 0 0 0-4.9 3.1q-1.7.4-3.1 1.6l-7.8 5.1c-4.5 3.3-25 15.8-27.2 18.7q-.5-.3-1.1-.1c-2 1-8.8 4.8-9.7 6.3q.6.6 1.3.3l8.8-5.3q.5-.4.6-1 3-1 5.7-2.7 37.7-22 75.8-43.6c-.4 3-1 11-3.5 12.7L357 262.5c-3.4 2.4-9 3.2-13 4.5l-1.2.4C297 285.3 265 322 259 371.5c-.3 2.2-7.7 5.3-9.8 6.1-5.7 1-13 2.7-18.7 2.4-1.3-1.4 3.4-2.2 3.6-3.9 1.7.2 7-3.8 8.4-5l1.5-.6a4 4 0 0 1 2.6-2q-1-.5-2-.2-5.7 3.9-11.7 7.5c-9.6 6.5-13.6 5.6-25.1 5l-.1-.6q15.8-10 31.3-20.6 4.5-2.4 8.5-5.5c.6 0 3.7-1 1.8-1.8-3.4 1-6.2 3.7-9.5 5.3q-.7.4-.8 1a9 9 0 0 0-2.8 1.2Q218.7 370 201 380q-1.2.3-2.7.3c-1.8-.3-10.2-.5-11.1-2q.2-.6.8-.6c6-3 11.3-7.6 17.2-10.2q1.7-1.5-.6-1.2l-1.9.9a204 204 0 0 1-11.3 6.6c-.5 1-3.7 2-3.4 2.8-4.7 3.1-10.3.1-15.2-.7q.3-1 1.1-1.6l34-22.4q3 1.8 6.5.9c5.7-1.2 4.3-4.6 5.4-9l32.1-21.5 1.3-1.5q.5.3 1 0 3.9-2.3 7.5-5 1.5-.2 2.2-1.5-1-.7-2 0-4.5 3-9.3 5.7-.4.3-.3.7-16.3 8.8-32.4 18.4c0-4.1.5-10-5.2-9.9l-3.7.9q.3-1.1 1.2-1.6l29-19c3.1-1.2 7-5 9.9-5.9q1.5-1 2.8-2.2-1-.6-2-.2l-11.8 7.4-41.3 23.9c-1.3 1-4.2 1.8-5 3.4-1.4.1-4.5 1.6-5 3q-1.3-.2-1.8.9c-1.7.4-4.3 1.4-5.1 3q-1 0-2 .6l-30 17.3q-1.9.9-3.3 2.5c-1.7-.1-2.8 1.9-4.3 1q-8.5-4.5-16.6-9.5a4901 4901 0 0 1 67-42.6l1.4-.4 4.6-3.5c-2.2-.7-3.9 1.5-5.6 2.5l-13.8 8q-.7.2-1 1-28 15.4-55.2 32.1c-2.2.1-6-3.8-8-5q.2-1.4 1.4-1.8 19.3-12.2 38.7-24.2l14.9-9.5 2-.7q2-1 3.4-2.9l1.3-.4q-1.5-.4-2.7.2-2 1.8-4.3 2.6-7.1 4.6-14.4 8.7-.3.4-.3.9-3 1-5.8 2.8L112 344c-2-1.4-6.2-4.3-6.5-6.7a226 226 0 0 0 30.7-19.4q1 .4 1.9-.2l15.9-10.2 4-2a4 4 0 0 1 2.6-2q-1.4-.7-2.6 0a9 9 0 0 1-4.3 2.8 971 971 0 0 1-48.4 28.5q-1 .5-1.6 1.4a29 29 0 0 1-7-7q1.8-.5 3.2-1.5l66.6-41.8q2.2-1.3 4.6-2.3 1.8-1.5-.6-1.2-1 .3-1.8.9-10.3 6.4-20.8 12.4l-18.7 10.9a9 9 0 0 1-3.5 1.4l.1-.8 6-5.7a6 6 0 0 0 2.4-5q-1.2-3-4.4-2.3a3 3 0 0 1 1-1.6l66.3-42.8c5.6-3 11.2-7.9 17-10.2q1.5-1.4-.6-1.1l-1.8.7q-7.2 4.6-14.4 8.8-.5.3-.3.8-2.2.6-4 1.9L131.8 286q-.6 0-.7.7-2.4 1-4.4 2.6-.6-.1-.5.3-2.3 1.2-4.4 2.7-.7-.2-.7.5a6 6 0 0 0-2.4 1.3q-1.2-.4-1.7.8-.9 0-1 .9l-2 1.2c-.7-.3-2 0-1.5 1l-1.4-.1q-1.4.3-.9 1.7l-1.3.4q-1.5-.6-1.6 1c-1.3-.2-3.3.1-3 1.9-.6-.1-2.4-.2-2 .8a6 6 0 0 0-2.2.6l-14.1 8q-1 .9-1.1 2a55 55 0 0 1-6-8.3q19.5-11.8 38.3-24.4l22.8-14.2q1-.4 1-1.3c1.8-.5 10.9-5.8 11.4-7.2 1.7.2 7.1-4 8.8-5.1q9.2-5.4 18-11.4l7.1-3.9q1.8-1.4-.6-1.1l-1.8.8q-12 7.3-24 14.2l-8.7 5.3c-4 2.2-8.3 4.3-11.9 7-3.7 1.5-13.5 7.8-17.8 10a2 2 0 0 0-1.2 1.5c-.5 0-2.3 0-1.8 1q-1-.2-1.4.7l-1 .2q-.7 0-.9.7l-1.2.5q-.7 0-.7.7-2 0-3.3 1.6l-1 .6c-1.2.3-3.6 1.2-3.9 2.6l-1 .4q-.7 0-.9.8l-1.2.2c-1.2.3-3.5 1.4-4 2.6l-1 .3q-.6 0-.8.8l-1.2.2c-1.2.8-3.4 1.2-4 2.7l-.9.3q-.7 0-.8.8l-1.2.2c-1.2.6-3.4 1.4-4 2.6l-1.1.4q-2.3 1-4 2.6l-1 .3q-.7.1-.9.8l-1.4.3-3.6-6.8q0-1.1.6-2 2.8-1.2 5.3-3 .8-.5.8-1.4l1.3-.2 3.5-1.7q9.2-6 18.5-11.7.8-.6.8-1.5c1.1.3 3.5-.5 3-2 .8.2 2.3 0 2-1.1 1.3.2 3.2-.2 3-2q2.1.2 3.5-1.4 1.3-.2 1.9-1.4 2.4-1 4.8-2.5l31.8-20.2q1-1.5 2.9-1.8-1-.3-2.1-.1c-3 2.2-6.7 3.7-9.3 6.3-3.3 1.4-6 3.2-9 5.2l-4.6 2.2-.8.8q-.9 1-2.2 1l-.8.7-1.2.4-.9 1q-.6 0-.6.7l-1.5.3q-.6.1-.6.7l-1.3.2q-.7.3-1 1-.7.3-.9 1h-1.2q-.7.4-.4 1.2-2-.3-3.4 1-1 .4-1.9 1.3-20.4 11.5-40.7 23.2-1 .5-1.5 1.4a52 52 0 0 1-3.8-8q.3-.8 1-1.3l93-59.4 1.4-1.6q.3.5.9.2c4.4-2.5 9.2-6.5 13.8-8.4q1-1.5 2.6-2.1c-1.9-1.3-4 1.7-5.6 2.5-2 1-11.2 6-11.9 7.4q-8.7 4.6-17.3 9.7-.6 0-.6.7L139 232q-.7.1-.7.9a15 15 0 0 0-4.2 2.4q-.7-.2-.7.6-2.4.7-4.3 2.5-.8-.3-.7.6a5 5 0 0 0-2.5 1.2c-.5-.2-1.9 0-1.5.9q-1 0-1 1H122q-.9.3-1 1-1.5-.3-2 1-2.4-.1-3 2-1.5-.5-1.8 1a4 4 0 0 0-3.4 1.3A3247 3247 0 0 0 65 274.6q-1 .6-1 1.6c-1.5-.9-2.8-6.1-3.5-7.8a2 2 0 0 1 .5-2 12 12 0 0 0 4.1-1.8q5-3.2 10.1-6l2.7-2.3c-.5-.8-1.5 0-2 .3q-7.9 4.8-16 9.2c-1.2-.8-2.5-7.2-2.8-9q1 .2 1.7-.4l104.5-67.6q6-3.8 11.9-7.2.8-1.5 2.6-2.1c-2-1.3-3.3 1.4-5 2-1.3.7-9.9 5.2-9.6 6.4a9 9 0 0 0-2.8 1q-51.6 30-103.3 59.7-1 .5-2 .5c-1-2.4-1.8-6.4-2-9q1-.1 2-.7A1586 1586 0 0 1 86.5 220q1-.7 1.8-2l.8-.5c1.7-.7 14.1-2.2 10-6-2.9-2.5-19.5-2.4-23.6-1.3q-4.5 1.4-4.5 6-.9 0-1.8.4l-16 9.5-.4.7q-1 .8-1.7-.3-.9-4.5-.9-9.4 1.3-.3 2.3-1l96.4-62.5c-1.6-1.3-2.5.5-3.8 1.3q-5.4 3-10.7 6.2-.4.3-.2.8-2.2.6-4.2 1.9-40 23-80 46.3c0-3-.4-8.3.5-11l70.7-46.2 6.4-3.7 8.8-6.2c.8-.5 2.3-.1 2.4-1.3a2 2 0 0 0-1.9-.2q-8.3 5.3-16.8 10.3c-16.6 9.8-33.5 19-49.8 29.3-4.4 2.5-15.5 8.4-19 11.4-1.2-2.8.4-9.5 1-12.6 2.6-.4 22.5-14.2 26.6-16.5l1.3-1.3c1.3.3 3.1-1.4 4.4-1.9q5-3.7 10.6-6.5.7-.3.8-1-1-.7-2 0l-13.7 8.1q-.8.4-1.1 1.1c-5.3 2.3-22.3 13.6-26.4 14.4 1.1-3.6 1-11.5 4.8-13.1l56.3-37.8q1.2-.6 2.4 0 4.4 3.6 8.6 7.4c6.2 1 13.4-.7 7.8-8-4.5-4.6-11.5-15.8-19-11.3-4.6 2-2.3 6.4 0 9.3q.2 1-.5 2-2 .4-3.6 1.5-25.8 15-51.8 29.7c3-7.6 10.1-28.8 16.8-32.8l39-27.6c-1.3-1.1-10.8 6-12.7 6.9q-10.5 6-21 11.7l-.2-.7q.3-1.2 1-2c20.4-27.1 43.9-42.8 74.3-56.6 2.2.6-.4 2.6-1 3.4q-8.3 6.7-17 12.3-1.5 1.2.4 1.2l1.5-1.3 32.5-18.7q.3-.2.5-.8 1 0 1.1-1l1 .2q1-.3 1-1.2c.5 0 2 .2 1.7-.6q10.2-2.4 20.5-3.2Zm69.8 3-.1 1.2-7.2-1.5q3.8-3.5 7.3.3Zm-44.8 2.6q-1.5 0-2 1.3-2.2-.3-3 1.8-1.4 0-2.2.9c.7 1 2-.1 2.1-1q2.2.4 3-1.7 1.5.1 2.1-1.3c.9.4 3.5-.8 2.3-1.7q-1.8 0-2.3 1.7Zm42 3.7q-1.2 1.6-3 2.6-16.8 10.5-33.5 21.2c-2 .6-5.7 4.4-7.7 4-.7-3.5-.7-7.4-3.2-10L252 51.8c2-2.1 9.5 2.5 12.2 2.5Zm31.5 5.5q.7 0 1.3.3l.1.9-1.3-.3zm-1.7 9.8-3.8 1.9-85.4 55.6-12 7.2q-.7.3-1 1.1a2 2 0 0 0 2.2-.1l10-6q.8-.3.8-1.1.8 0 1.4-.4l92-53.1q1.2-.8 2.7-.8 3.8 2.3 7 5.3-15 9-29.7 18.1.3.5 1 .3 1.1-1 2.7-1l5.6-3.8 21-12q.4-.2.4-.8 3.6 2.3 6.8 5.1.5 1-.4 1.7-10 6.5-20.4 12.8l-1.3 1.4c-2.3-.4-16.7 10-20.6 11.5q-1.2.6-2 1.8 1 .6 2 0l6-4 15.2-8.6q.4-.1.4-.5l21-12q1.5-1 3.2-1.3l6.4 5.9-.5 1.4q-1.3-.6-1.7.7h-1.4l-.8.9q-.6.6-.8 1.3-1-.3-.8.6l-1.5.5q-.6-.2-.6.3-1.2.7-2.2 1.6-.6-.2-.8.5l-1.1.2-1.4.9-91.8 59.4q-.5 0-.8.6-2.7 1.2-4.3 3.4-1-.3-1.8.3-4.5 2.6-8.9 5.6a2 2 0 0 1-1.3-1.4q-8.5-24-19.2-47c2.7-3.2 8.6-4.2 11.3-7.7l3.8-1.6 85.6-50c3.7.7 6.8 3.2 9.8 5.2Zm36.8 30.3c1.3 1.2 6 5.6 6 7.2a2 2 0 0 0-1.9.3l-14.9 9q.5.7 1.2.5l7.8-4.4a31 31 0 0 1 7-4q.6-.6.8-1.4c1.6.2 5.4 6 6.5 7.6l-1.3.4q-1.5.3-2.2 1.7l-.9.4c-1.3.6-3.7 1-3.7 2.9q-.8 0-1.4.2-1.3.1-1.9 1.4l-1 .5q-1.5.3-2 1.6l-1 .3q-.7.1-1 .8-1 .3-1.9 1.2-.8 0-1.1.8l-1.2.3a1 1 0 0 0-.7.7l-2 1.3q-.8 0-1 .6l-2 1.3q-.7 0-1 .7-13 8.4-26.2 16.5-.9.7-1.2 1.8c-1.8-.8-3.8 1.3-4.7 2.7q-1.5-.2-1.9 1-1 .3-1.3 1.4-.7.7-1.8 1-1-.3-.8.7h-1.4q-.6.3-1 1a2 2 0 0 0-1.8.8q-.8.1-.8 1-2.3.8-4.3 2.4-.6-.1-.6.5-1.3.5-2.3 1.5-.8 0-.8.7H264l-1.3.8q-8.8 6-17.9 11.4-7 4-13.8 8.4-.7.3-1 1a2 2 0 0 0 2.1 0q6-4.1 12.2-7.5.5-.3.6-.8 3-1.3 5.8-2.8 48-28.2 96.2-55.4 3.2 3.5 5.4 7.7-1.2 0-2.4.5L289 166.8c-1.4 1-5.7 2.3-6 4.3-1.8-.2-4 1.3-5 2.9q-2.2 0-3 2-1.5-.2-2 1l-2.1.4q-2 1.6.5 1.3 1.2-.6 1.6-1.7 1.3.2 2-1 2-.2 3-2a7 7 0 0 0 5-2.9c1.5 0 6.5-2.4 6.8-4 2.4.1 6.7-3.6 9-4.5l55-32q2.7 3.1 4.2 7a3 3 0 0 1-2 2.6q-21.3 13.2-42.5 26.8a1 1 0 0 0-.3 1c-1.6.1-4.9 1.3-5 3.2-.5 0-2.2-.2-1.9 1q-1 0-1.2 1-1.5-.5-1.8 1-1 0-1 1c-2-.7-5.3 2.8-7.2 3.5q-.7.3-1 1.2c-2.9 1-7.5 4.1-10 6.3q-1.6.5-3.1 1.4l-13.2 8.5q-8.4 5-16.6 10.4.3.6 1 .3 7.6-4.2 15.1-8.8.5-.3.6-.8.7 0 1.5-.4l13.3-7.7q1.5-.6 2.2-1.7c3.4-1 7-4 10.2-5.7l6.6-3.6q1-.3 1-1.3c1.3-.1 3.2-.3 3.2-2q2.3 0 4.2-1.5.8-.5.9-1.4 1.6.5 1.8-1.1 1.2.1 2.2-.4l40.6-23.5q.4-.5.4-1.1 2.7-.7 5.3-1.6c1 .6 3.5 7 4 8.5a5 5 0 0 0-3.4 1.2l-1 .6-13 8.4-1 .6-8 5.4c-1.2.5-3.8 1.6-3.8 3q-2.5-.1-3.2 2.2-1.6-.5-1.6 1h-1.5l-1 .7-1 1.3q-1-.3-1.7.8-1 .3-1.1 1.2-1.5-.5-1.8 1-1-.1-1 .7l-1.4.4q-.5 0-.5.4a5 5 0 0 1-2.4 1.3 1 1 0 0 0-.7.8L265 216.2q-2.8 0-5.5-.4-20.4-2.8-40.7-6.1c-3.9-4.6-11.8-28.4-14.7-35.4q0-1.1.5-2.2c2.5.2 8.2-4 10.5-5.5zm-38.8 30q.2 1 1.4 1.1 5.8-.2 10.5-3.7c1.9-1.3 14.5-12 9.4-13-7.4-1-17.5 11.2-21.3 15.6ZM116 302.9c-1 2.7-5.2 6.5-4.7 9.5.7 2.6 4 .4 6 .9-3.3 2.7-21 11.6-22.5 13.7a44 44 0 0 1-6-7.1c3.9-2.5 24.6-16.5 27.2-17ZM338.3 324q-2.7 4.4 1.8 1.8a53 53 0 0 1 7.8 8.1q4.4 3.5 8 8-.7 2.2-2.4 3.9-.4.6.2 1 2.4-1 4.5-2.8 4.2 3.9 8 8c0 1.1-2.6 2.8-1.7 3.8l3.5-2 8.3 8.1a45 45 0 0 1-4 7q-.1.5.3.8 4.4-2.1 8.3-5c6.8 0 11.3-4 15.6-8.8 9.7-12.3 22-22 32.5-33.5q2.1-1.2 3.2 1.2l-7.8 6.6q.7.6 1.6.1 3.8-2.9 8.1-4.7 5.4 4.5 10 9.7c1.4 1.6-.5 3.1-1.1 4.6q-1 .2-1 1-3.1 1.5-6.1 3.4c-.3.3-1.4 1-.5 1.3 1.7-.5 3-1.9 4.8-1.9-10.3 13.9-25 23.5-36.3 36.4q-.6 0-.8.7-1 0-1 1-.9.2-1.3 1c-1.3.5-5.4 2.4-5.7 3.7q.4.8 1.2.3a7 7 0 0 1 4-2c2.3 4 10.5 10.9 13.7 15.1l-3.3 5c-.5.7-.9 2.3.6 1.6l5.8-3.5c1.9 1.6 7.1 6 7.9 8.1-.4.6-2.2 1.7-1.4 2.5q1.6-.4 2.7-1.6 7.5 7.6 15.6 14.7-2.5 3.7-4.7 7.7.5.5 1 .2l6.4-3.9q.8 3-1.4 5L432.4 446c-1.6.2-6.3-5.7-7.5-7l3.8-6.7q.3-.6-.2-1l-5.5 3.2q-1 .5-2 .6-7-7.3-13.9-14.9c.8-.1 2-1 1.2-1.9l-2.3.8-8.4-8 3.1-5.8c1.5-2.9-6.2 2.4-6.6 2.7-11.8-7.3-17.7-.5-26.1 7.5l-29 30q-1 .9-2.1.2-2.1-2.2-4-4.5 15-12 29.8-24.7a2 2 0 0 0-1.7.2 672 672 0 0 1-33.9 19.4c-1-1-3.5-3.2-3.7-4.6.4-2.6 3.2-5.3 4.6-7.3q.8-.4 1.1-1 1-.2 1.9-.8l36.4-26.5c.8-.4 4.7-1.2 3-2.6q-1.4.3-2.6 1c-6.8 5-14.5 8.8-21.8 13q-1 .6-2.3.9c1.8-3.6 18.8-16.8 22.3-22.8 1-4-3.8-9.2-6-12.3.7-1 4.5-6 3.6-6.8L357 370q-4-3.7-8.3-7.2c0-.7 2-3.3 1.7-3.6a6 6 0 0 0-3.3 1.6c-1.7-.5-7.4-6-8.4-7.7.1-1 3.1-4.3 2.6-5q-1.8.7-3.3 1.5-.9.7-1.4 1.5c-3-2-4.4-5.3-7.8-7.1q.9-2.4-1.6-1.8c-2.7-1.8-5.6-5.6-3.3-8.8l11-11c1.5-1.2 2.8.6 3.4 1.7Zm-28.3 7c0 2-2.4 2-3.6 3q-15.5 11-31.3 21.4.1-3.3 1.7-6 11.7-6.3 23.1-13c2.8-1.2 7.3-5 10.1-5.4Zm-104.1 2h1.2q.2 7.1-.5 14.2-1.5.3-2.7 1.2l-41 23.8c-3.3.7-8.2-2.3-11.3-3.4q27-18 54.3-35.8ZM312 346q0 .6-.5 1.1-2.6 1.4-5 3l-35.4 24c.4-1.7.4-4.7 1.6-5.8q16-9.5 32.2-18.6c2.2-1.2 4.6-3.8 7.1-3.8Z"/><path fill="#fefefe" fill-opacity=".5" d="M273 177q-.4 1.2-1.6 1.7-2.6.4-.5-1.3z"/><path fill="#fff" fill-opacity=".3" d="M278 174a4 4 0 0 1-3 2 3 3 0 0 1 3-2m5-2.9a7 7 0 0 1-5 2.9c1-1.6 3.2-3.1 5-2.9"/><path fill="#aeb4bd" fill-opacity=".7" d="M336.9 107.2q-.1.9-.9 1.3a31 31 0 0 0-7 4.1l-7.7 4.4q-.8.2-1.2-.4 7.3-4.8 15-9.1a2 2 0 0 1 1.8-.3"/><path fill="#e3e6e9" fill-opacity=".5" d="M217.2 53.8c-.1.8-1.4 1.9-2 .9q.8-1 2-1"/><path fill="#e7e8ec" fill-opacity=".5" d="M220.3 52q-.9 2.1-3 1.8.7-2.1 3-1.8"/><path fill="#e0e3e5" fill-opacity=".3" d="M222.3 50.7q-.5 1.5-2 1.3.5-1.3 2-1.3"/><path fill="#e6e8ea" fill-opacity=".3" d="M222.3 50.7q.4-1.6 2.3-1.7c1.2 1-1.4 2-2.3 1.7"/><path fill="#dd4752" fill-opacity=".5" stroke="#dd4752" stroke-opacity=".5" stroke-width=".5" d="M370 475q.3-2.3 2.6-2c1.3 1-2 2-2.7 2Z"/><path fill="#dd4752" fill-opacity=".3" stroke="#dd4752" stroke-opacity=".3" stroke-width=".5" d="M468.1 434.8c-.4.8-2 3.1-3 1.9q1-1.6 3-1.9ZM370 475c.2 1.1-1.3 1-2 1.1q.5-1.4 2-1Z"/><path fill="#de4853" fill-opacity=".3" stroke="#de4853" stroke-opacity=".3" stroke-width=".5" d="M317.9 406c-.1 1.5-3.5 3.1-5 3a7 7 0 0 1 5-3Zm73.1 25q-.9 2-3 2a4 4 0 0 1 3-2Z"/><path fill="#de4953" fill-opacity=".3" stroke="#de4953" stroke-opacity=".3" stroke-width=".5" d="M474 404q-.6 1.3-2 1 .5-1.5 2-1Z"/><path fill="#dd4852" fill-opacity=".4" stroke="#dd4852" stroke-opacity=".4" stroke-width=".5" d="M321 404q.3-1.2 1.5-1.1c1.3.7-.8 1.3-1.4 1Zm158 10c-.4 1-2 2.6-3 1.6.3-1.2 2-1.4 3-1.6Zm-168 52q-.6 1.3-1.7 1.8c-1-1.4.6-1.9 1.7-1.7Zm180.8-103.8q.3-1.1 1.2-.7-.4.6-1.2.7Zm-22.1 1.8q.3-.9 1.2-.6-.4.6-1.2.6ZM311 466c.2-.6 1.3-1.6 1.9-.7a2 2 0 0 1-1.9.8Z"/><path fill="#dd4752" fill-opacity=".4" stroke="#dd4752" stroke-opacity=".4" stroke-width=".5" d="M475.9 359.9q-.7 2-3 2a4 4 0 0 1 3-2Zm-114 106.4c.3-1.2 4.2-4.4 5-3a9 9 0 0 1-5 3Z"/><path fill="#dd4752" fill-opacity=".3" stroke="#dd4752" stroke-opacity=".3" stroke-width=".5" d="M478 359q-.6 1.3-2.1.9.8-1 2-.9Zm6.1 52c-1 1.5-3.2 3.3-5.2 3 .5-1.2 3.8-3.3 5.2-3Z"/><path fill="#dc4652" fill-opacity=".3" stroke="#dc4652" stroke-opacity=".3" stroke-width=".5" d="M481 357q-.9 2-3 2a3 3 0 0 1 3-2Z"/><path fill="#dd4752" fill-opacity=".4" stroke="#dd4752" stroke-opacity=".4" stroke-width=".5" d="M383 341.7a3 3 0 0 1-3 2.3q1-1.9 3-2.3Z"/><path fill="#dd4752" fill-opacity=".5" stroke="#dd4752" stroke-opacity=".5" stroke-width=".5" d="M399 315c-.3.7-1.3 1.6-1.9.7q.7-.9 1.9-.6Zm32 59q-.6 1.1-1.6 1.6-2.5.4-.6-1.2 1-.5 2.2-.5Z"/><path fill="#dd4752" fill-opacity=".4" stroke="#dd4752" stroke-opacity=".4" stroke-width=".5" d="M402 312.9a4 4 0 0 1-3 2.2 3 3 0 0 1 3-2.2Zm-81 91q-.8 2.3-3.1 2a4 4 0 0 1 3.2-2Zm151 1.1c-.4.9-2 2.8-3 1.6a4 4 0 0 1 3-1.6Zm-81 26c.2-.7 1.3-1.6 1.8-.8q-.6 1-1.8.7Zm25.7 55.1q.7-1 2-1.7 2.1-.4.5 1.3-1.2.5-2.5.4Z"/><path fill="#b59193" d="M343 408q0 2.3-2.2 2a4 4 0 0 1 2.2-2"/><path fill="#dc4652" fill-opacity=".4" stroke="#dc4652" stroke-opacity=".4" stroke-width=".5" d="M473 362q-1.2 1.2 0 0Z"/><path fill="#dd4652" fill-opacity=".5" stroke="#dd4652" stroke-opacity=".5" stroke-width=".5" d="M380 344c0 .8-1.2 1.6-1.8.7q.7-1 1.9-.8Z"/><path fill="#f6cdd0" d="m311 331-.9-.1q.5-1.1 1 0"/><path fill="#f1bec3" d="M346.2 275q.7 0 1.5.3c.4 1-2 2.1-2.7 1.4q.7-.8 1.2-1.7"/><path fill="#3c4b62" fill-opacity=".9" d="m200.4 331.8.3 1.2-1.9-.4zm-1.6.8q-.7 1-.8 2.3-1 0-1.1 1h-3c.7-1.5 3.6-2.3 5-3.3m-5 3.4q-.6.9-.9 1.9-1.5-.5-2 1a5 5 0 0 0-2.1 0c.5-1.3 3.6-2.8 5-3m-5 3q-.6 1-1.8.9.5-1 1.8-1m-1.8.9c-.7 1.8-3.4 2.6-5.1 3 .8-1.6 3.4-2.6 5-3m-5.1 3-1 1.4q-3 .9-5 3.3Q162 355 148.6 363q-1 .6-2 .8l-.1-.5c1-1 2-2 3.4-2.5l30-17.3z"/><path fill="#393a51" fill-opacity=".8" d="M320.3 388.8q.8 0 1 .9-11.3 7.5-23 14.9-.6-.7-1.6-.4l-5.4 3-2-.2c.4-1 27.6-16.2 31-18.2"/><path fill="#3b4a61" fill-opacity=".9" d="m284.1 186.2.8 1.2q-.8 1-2.2 1.7l-13.3 7.7q-.7.4-1.5.4V196l13.1-8.5q1.5-1 3.1-1.4m-124.3 66.3q1.3.1 1.3 1.4c-1.7 1-7 5.3-8.8 5l-1.2-1z"/><path fill="#2f3f58" fill-opacity=".7" d="m151.2 257.8 1 1.1c-.4 1.5-9.5 6.8-11.2 7.3q-.9-.8-1.8-1.3c3.6-2.8 7.9-5 12-7"/><path fill="#2a3e54" fill-opacity=".5" d="m139.2 264.9 1.8 1.3q-.3.9-1 1.3l-23 14.2-1.2-1v-.4q3.3-1.2 5.6-3.7-.5-.4-1.3-.3a2 2 0 0 1 1.2-1.5c4.3-2.2 14-8.5 17.8-10m-1 2q.8-1 0 0m-5.2 2.2q.2.7.8.4-.2-.5-.8-.5m-12.8 7.2q-.6.9-1.8 1c-.5-1 1.3-1 1.8-1m-1.8 1-1.4.7q.4-.9 1.4-.7"/><path fill="#213244" fill-opacity=".2" stroke="#213244" stroke-opacity=".2" stroke-width=".5" d="m410.2 242-.5 1q-9.5 5-18.7 10.7-.7.5-1.7.5-.6-.6 0-1.1l19.5-12q1.4-.6 1.4 1Z"/><path fill="#253350" fill-opacity=".2" stroke="#253350" stroke-opacity=".2" stroke-width=".5" d="M188.8 339a5 5 0 0 1 2-.1q0 1-.8 1.4-5.6 3.6-11.5 6.8l-2.2 2-.5-1.5q2.2-2.4 5.1-3.3l1-1.5c1.7-.3 4.4-1.1 5-3q1.4.2 1.9-.9Z"/><path fill="#283952" stroke="#283952" stroke-width=".5" d="M294 31.7a946 946 0 0 0-25.9 16.6l-1-.2q-3.6-3.7-7.3-.3c-2.5-1.8-15.4-3.2-15.8-3.8 3-1.2-2-3.3-3.2-3.4l31-17.7c3.7-1.2 19.8 6.3 22.2 8.8ZM268 36q-2.1 0-3 2a2 2 0 0 0-1.9.8c.6 1 1.9 0 2-.8q2.1 0 3-2c1 .3 7.7-2.7 6.5-4-1.1-.1-6.2 3-6.6 4ZM120.1 151.7q1 0 1 1.1L50.6 199q-1-3.1 1.1-5.6 0-.6-.4-1c3.7-3 14.8-9 19.1-11.4 16.3-10.2 33.2-19.5 49.8-29.3Zm120 157q1 0 1.1 1l-29 18.9q-.9.5-1.2 1.6-1.2 1.2-2.7 1.6l-1.4.4-1 .7-54.2 35.8a9 9 0 0 1-3.7-2.2q14-9 28.3-17.4l2.2-2q6-3.1 11.5-6.8.9-.5.9-1.4c.7.2 2.2 0 2-1q2.3 0 3-2h1q1-.1 1.1-1 2.1 0 2.7-2l-.3-1.1z"/><path fill="#6c3e51" d="M321.4 389.7q-.3-.9-1.1-.9 5.7-3.8 11.7-7.4 1-.6 2 0-.3.8-1 1z"/><path fill="#1f2c3b" fill-opacity=".2" stroke="#1f2c3b" stroke-opacity=".2" stroke-width=".5" d="M54 102c-1.1 2.3-8.7 6.2-11 8q.6-2.6 2.7-4c2.1-1 6.1-4.2 8.2-4Z"/><path fill="#34445b" fill-opacity=".8" d="m329.8 261.6 1 .3v1l-1.1 1.3q-3.3 1.5-6.4 3.4-1.1 0-1.3-.9z"/><path fill="#27364d" fill-opacity=".2" stroke="#27364d" stroke-opacity=".2" stroke-width=".5" d="M70.1 106.2q-4.6 3.8-9.9 6.9l-.4-1.5q.4-.7 1.1-1c2.1-1 7.1-5.1 9.2-4.4Z"/><path fill="#693242" fill-opacity=".1" stroke="#693242" stroke-opacity=".1" stroke-width=".5" d="M316.9 375.3q-.2.8-.8 1.1l-6.8 4.4q0-1-1-1.4c2.2-1 5.9-4.2 8.6-4.1Z"/><path fill="#3e4d64" fill-opacity=".9" d="M340.8 254.3q-.3 1.3-.9 2.6h-2c0-1.3 2-1.8 2.9-2.6m-3 2.6-.8 2.1q-1.7-.6-2.1 1-1-.3-2 0a8 8 0 0 1 5-3m-4.9 3a2 2 0 0 0-.9 2l-1.1-.1-1.1-.3q1.5-1.2 3.1-1.6"/><path fill="#273851" fill-opacity=".3" stroke="#273851" stroke-opacity=".3" stroke-width=".5" d="M268 36c.4-1 5.5-4.2 6.6-4 1.2 1.2-5.6 4.2-6.6 4Z"/><path fill="#3f4e63" fill-opacity=".6" d="M78.7 288q0 .9-.8 1.5a33 33 0 0 1-5.3 2.9l-.7-.1 3.3-2.7q1.8-.7 3.5-1.7"/><path fill="#262d39" fill-opacity=".4" stroke="#262d39" stroke-opacity=".4" stroke-width=".5" d="m167 16.2-2 1.5q-1.4.4-2.7 1l-.4-1.1c.4-.8 4.1-1.3 5-1.4Z"/><path fill="#44546a" fill-opacity=".5" d="M109 282.3c.2 1.6-2.9 2.2-4 2.6.3-1.4 2.7-2.3 4-2.6"/><path fill="#4e5b70" fill-opacity=".6" d="M94.9 290.2c0 1.8-2.6 2.5-4 2.7.6-1.5 2.8-2 4-2.7"/><path fill="#455468" fill-opacity=".6" d="M82.9 297.2c.4 1.7-2.9 2.4-4 2.6q1.7-1.7 4-2.6"/><path fill="#485669" fill-opacity=".6" d="M101.9 286.3c.2 1.7-2.8 2.1-4 2.6.5-1.2 2.8-2.3 4-2.6"/><path fill="#4a576f" fill-opacity=".4" d="M321.7 96h1.4l-1 1.2zm-.8.9 1.1.3q-.9.7-2 1 .3-.8.9-1.3m-.8 1.3-.8.6q0-.9.8-.6"/><path fill="#4a2d3c" fill-opacity=".2" stroke="#4a2d3c" stroke-opacity=".2" stroke-width=".5" d="m402.2 297.1 1.4.1q0 .4.3.8-1.2 1-3 1z"/><path fill="#6e2428" fill-opacity=".1" stroke="#6e2428" stroke-opacity=".1" stroke-width=".5" d="M308 411.7v1.3l-1.6 1q-.8-.2-1.4-1 1.5-1 3-1.3Z"/><path fill="#894053" fill-opacity=".3" stroke="#894053" stroke-opacity=".3" stroke-width=".5" d="m399.2 299.4 1.8-.3q-1 1.8-3 2 .3-1 1.2-1.7Z"/><path fill="#2d3850" fill-opacity=".6" d="m289.3 407 2 .3c-.4 1-2.5.6-3.4.5q.5-.8 1.4-.8"/><path fill="#653235" fill-opacity=".5" stroke="#653235" stroke-opacity=".5" stroke-width=".5" d="M495 403.2q.1 1.6-.8 2.7l-.5-2.1z"/><path fill="#47566a" fill-opacity=".6" d="M342.1 115.2q-.4 1.8-2.2 1.7.7-1.4 2.2-1.7"/><path fill="#262b33" fill-opacity=".4" stroke="#262b33" stroke-opacity=".4" stroke-width=".5" d="M33.9 127.7q.4.9 1.3 1.4a6 6 0 0 1-2.3 1q.1-1.4 1-2.4Z"/><path fill="#84353c" fill-opacity=".2" stroke="#84353c" stroke-opacity=".2" stroke-width=".5" d="M293 452.2q1 .1 2 .5l-.8.2q-.8 0-1.3-.7Z"/><path fill="#3f4147" fill-opacity=".7" d="M176.8 48.3c.1.8-1.3.7-1.7.6q.6-.9 1.7-.6"/><path fill="#81383e" fill-opacity=".3" stroke="#81383e" stroke-opacity=".3" stroke-width=".5" d="M487 337.3q.7 0 .7.7-1 0-1.7-.6z"/><path fill="#823f52" fill-opacity=".3" stroke="#823f52" stroke-opacity=".3" stroke-width=".5" d="m396.4 301.3 1.6-.2q-.5 1.2-1.7.7z"/><path fill="#513b51" fill-opacity=".8" d="m406.3 294-1 1.4q-.2-1.2 1-1.3m-1 1.4-1.7 1.8-1.4-.1q.4-2.7 3.1-1.7m-3.1 1.7-1.2 2-1.8.3q0-2.8 3-2.3m-3 2.3q-.9.7-1.2 1.8h-1.6q0-3 2.8-1.8m-2.8 1.9v.5c-1.7 2.4-4.5 2.7-6.8 4.2l-6 4.2q-1.8.4-3.3 1.6-.6.1-1-.4 7.4-4.8 14.7-9.9a3 3 0 0 1 2.4-.2"/><path fill="#151d29" fill-opacity=".1" stroke="#151d29" stroke-opacity=".1" stroke-width=".5" d="M367 213.4q-.8 1-2 1 0-2.4 2-1Z"/><path fill="#404f65" fill-opacity=".8" d="m377.5 207.5.4 1.6-59 34.1q-2 1.3-4.2 2c-.5.9-3.6 3-4.4 2.1l12.8-7.7 1-1q6.6-3.5 13-8 6.8-4.2 13.8-8.2l2.3-1.9q1.5-.3 2.7-1.1 2.8-2.2 5.6-4 1.7-1 3.5-1 1.3 0 2-1z"/><path fill="#44536b" fill-opacity=".4" d="m134 235.2-.7.6q0-.7.7-.6"/><path fill="#283651" fill-opacity=".1" stroke="#283651" stroke-opacity=".1" stroke-width=".5" d="m124.3 241-1 1q0-1 1-1Z"/><path fill="#27364d" fill-opacity=".1" stroke="#27364d" stroke-opacity=".1" stroke-width=".5" d="M328.8 175.1h1.5q-.6.8-1.3 1.3z"/><path fill="#263955" fill-opacity=".1" stroke="#263955" stroke-opacity=".1" stroke-width=".5" d="M111 298h1.4q-.6.9-1.4 1.4z"/><path fill="#3e5066" fill-opacity=".6" d="m266 164.2-.8.7q0-.8.9-.7"/><path fill="#253851" fill-opacity=".2" stroke="#253851" stroke-opacity=".2" stroke-width=".5" d="m279 156.3-.8.7q0-1 .8-.7Z"/><path fill="#3f4c63" fill-opacity=".6" d="m315 101.2-.8.5q0-.6.8-.5"/><path fill="#3e4d63" fill-opacity=".7" d="m223 97.2-.7.7q0-.8.7-.7"/><path fill="#39393d" fill-opacity=".3" stroke="#39393d" stroke-opacity=".3" stroke-width=".5" d="M325.3 93.9q.4.4.6 1l-1 .4z"/><path fill="#465168" fill-opacity=".1" stroke="#465168" stroke-opacity=".1" stroke-width=".5" d="M234.2 89.9a2 2 0 0 1-1.3 1.2q.3-.9 1.3-1.2Z"/><path fill="#44536c" fill-opacity=".3" d="m121.9 292.3-.7.5q0-.7.7-.6"/><path fill="#273851" fill-opacity=".5" stroke="#273851" stroke-opacity=".5" stroke-width=".5" d="m330.9 261.9 1.1.2q-.2.8-1.1.8z"/><path fill="#6a4346" d="M344 267q-.4.7-1.2.4z"/><path fill="#3b4862" fill-opacity=".4" stroke="#3b4862" stroke-opacity=".4" stroke-width=".5" d="m172 50.2 1-.3q-.1 1-1 1z"/><path fill="#283951" fill-opacity=".2" stroke="#283951" stroke-opacity=".2" stroke-width=".5" d="M133 269q.6 0 .8.5-.6.4-.8-.5Z"/><path fill="#34445c" fill-opacity=".3" stroke="#34445c" stroke-opacity=".3" stroke-width=".5" d="m129 238.3-.7.5q0-.8.7-.5Z"/><path fill="#343951" fill-opacity=".9" d="m332 363.8 1 1q-7.8 5.8-16.1 10.5c-2.7-.1-6.4 3-8.7 4.1l-36 20.8q-.9-.3-1-1.2 30.4-17.7 60.9-35.2"/><path fill="#2d3d56" fill-opacity=".9" d="M376.6 231q.8 1.5-.6 3a937 937 0 0 1-25 15.6q-2 2.1-5 3a2 2 0 0 0-.6 1.3c-.6 2-3.5 3-5.5 3q.6-1.2.9-2.6 17.8-11.8 35.8-23.4"/><path fill="#3b4b61" fill-opacity=".8" d="m356 140.2 1.1 1-3 2.4q-3.8 1.7-7.2 3.9l-1.6 1.5q-2.4.7-4.2 2.5-2.4.9-4.6 2.4L318 165.6q-.7.3-.9 1.1-2.1 0-3.9 1.4a1 1 0 0 1 .3-1q21.2-13.7 42.6-26.9m-.7 5.4.7.2q0 .6-.4 1.1L315 170.4q-1 .5-2.2.4c1.2-1.3 4.6-2 4.3-4l1.2-.1c2.4-1.1 4.3-1.5 6.2-3.6q2.9-1 5.5-2.6l6.8-4.4q9.4-5 18.5-10.5m-42 22.5a22 22 0 0 1-5 3.1c0-1.9 3.3-3.1 5-3.1m-5 3.1q-1 .7-2 1c-.3-1.2 1.4-1 2-1m4.5-.4q-.2 1.6-1.8 1 .6-.8 1.8-1m-6.5 1.3-1.2 1.1q.1-1 1.2-1m4.7-.2q0 .8-1 1.4a7 7 0 0 1-4 1.5 14 14 0 0 1 5-3m-5.9 1.3-1.8 1q.3-1.6 1.8-1m-1.8 1-1 1q0-1 1-1m-1 1q-2.5 1.8.4 1.6 0 .9-1 1.3l-6.6 3.7-1-2q.3-.7 1-1.1c2-.6 5.2-4.2 7.1-3.5m3.6-.4c0 1.7-2 1.9-3.2 2q1.2-1.5 3.2-2m-9.6 4.8q.6-.4 0 0"/><path fill="#2e3e57" fill-opacity=".6" d="m294.2 179.9 1 1.9c-3.3 1.5-7 4.5-10.3 5.6l-.8-1.2c2.5-2.2 7.1-5.3 10-6.3m-95.4 152.7q1 0 1.9.4-.6 1.9-2.7 1.9 0-1.2.8-2.3"/><path fill="#253950" fill-opacity=".3" stroke="#253950" stroke-opacity=".3" stroke-width=".5" d="M296.3 179.6q.6-.4 0 0ZM155 400c-.1 1.3-2.8 2.2-3.7 3q-1.5.3-1-1c1.5-.8 3-2.1 4.7-2Z"/><path fill="#223148" fill-opacity=".2" stroke="#223148" stroke-opacity=".2" stroke-width=".5" d="M317.1 166.7c.3 2-3.1 2.8-4.3 4a3 3 0 0 0-1.8 1.2 14 14 0 0 0-5 3q-2.1.3-3.3 1.9-2.8.2-.5-1.6l1.1-1 1.8-1 1.2-1q1-.3 2-1 2.6-1.2 5-3.1a7 7 0 0 1 3.8-1.4Z"/><path fill="#3b4252" fill-opacity=".1" stroke="#3b4252" stroke-opacity=".1" stroke-width=".5" d="M188 41q-.2 1.1-1.1 1.8-1.3.5-2-.6 1.3-1 3-1.3Z"/><path fill="#283950" fill-opacity=".4" stroke="#283950" stroke-opacity=".4" stroke-width=".5" d="M166.7 393q.3-.9 1.2-.6-.4.6-1.2.6Z"/><path fill="#223057" fill-opacity=".2" stroke="#223057" stroke-opacity=".2" stroke-width=".5" d="M184 29a7 7 0 0 1-5 3c.5-1.8 3.1-3.2 5-3Z"/><path fill="#283852" fill-opacity=".4" stroke="#283852" stroke-opacity=".4" stroke-width=".5" d="M252 400q-1 2-3.2 2.2a3.4 3.4 0 0 1 3.2-2.2Z"/><path fill="#273851" fill-opacity=".4" stroke="#273851" stroke-opacity=".4" stroke-width=".5" d="M193.8 336h2q-.6 2-2.9 1.9.3-1 1-2ZM160 397c-.2 1.4-3.4 3-4.9 3 .2-1.5 3.6-2.9 5-3Zm29 13c.3.9-1.2 1.7-1.8.7q.7-1 1.9-.8Z"/><path fill="#273851" fill-opacity=".5" stroke="#273851" stroke-opacity=".5" stroke-width=".5" d="M401.7 258.2c.5-1 3.5-3.5 4.6-2.7 0 1.5-3.4 2.6-4.7 2.7ZM252 400c-.2-1 1.4-1.7 2-.7a2 2 0 0 1-2 .7Z"/><path fill="#273852" fill-opacity=".3" stroke="#273852" stroke-opacity=".3" stroke-width=".5" d="M26 175c-.3 1.2-4.3 4-5 2.7.5-1.1 3.7-2.6 5-2.8Zm311.8 82q1-.3 2.1-.1-.5 2.2-3 2.1z"/><path fill="#283950" fill-opacity=".3" stroke="#283950" stroke-opacity=".3" stroke-width=".5" d="M28 174c.2 1.1-1.3 1.1-2 1a2 2 0 0 1 2-1Zm110 92.8q.9-1 0 0Z"/><path fill="#273952" fill-opacity=".4" stroke="#273952" stroke-opacity=".4" stroke-width=".5" d="M31.1 172a4 4 0 0 1-3.1 2q.7-2.3 3.1-2Z"/><path fill="#273851" fill-opacity=".5" stroke="#273851" stroke-opacity=".5" stroke-width=".5" d="M31.1 172c0-.7 1.2-1.6 1.8-.7a2 2 0 0 1-1.8.7Zm301.8 88q1-.3 2 0c0 1.5-1.7 1.9-2.9 2a2 2 0 0 1 1-2ZM198 335q-.2.9-1.1 1 .2-1 1.1-1Zm-38 62c.2-.9 4.2-3.9 5-2.6-1.1 1.1-3.4 2.9-5 2.6Zm29 13q.6-1.8 2.6-1.9c1.4 1-2 2-2.6 2Z"/><path fill="#273851" stroke="#273851" stroke-width=".5" d="M77 102.9c-1.4 3.4-21.3 30.2-23.6 38.2-3-.5-25.2 13.5-29.4 16q-.1-1.3.2-2.5 3.7-12.6 8.7-24.5a6 6 0 0 0 2.3-1l25-16q5.1-3.1 10-6.9 3.5-1.3 6.7-3.3Z"/><path fill="#263851" fill-opacity=".3" stroke="#263851" stroke-opacity=".3" stroke-width=".5" d="M59 99c-.4 1.3-3.6 3.3-5 3 .3-1.6 3.5-3 5-3Zm134 239c0 1-1.4 1.2-2.1 1q.5-1.5 2-1Z"/><path fill="#273851" fill-opacity=".4" stroke="#273851" stroke-opacity=".4" stroke-width=".5" d="M265 38c0 .7-1.3 1.7-1.9.7a2 2 0 0 1 2-.8Zm-145.8 4.8c-.6 1.3-2.6 3.7-4.1 2.8.1-1.3 3-2.4 4-2.8Z"/><path fill="#273851" fill-opacity=".4" stroke="#273851" stroke-opacity=".4" stroke-width=".5" d="M268 36q-.7 2-3 2 .9-2 3-2ZM62.1 97a4 4 0 0 1-3 2c0-1.6 1.8-1.9 3-2ZM337 259q-.6 1.3-2.1 1 .5-1.6 2-1Z"/><path fill="#273851" fill-opacity=".5" stroke="#273851" stroke-opacity=".5" stroke-width=".5" d="M174 35c-.5 1-2 2.5-3 1.6q1-1.5 3-1.6ZM62 97q0-1.3 1.4-1.2c1.2.8-.7 1.4-1.4 1.1Z"/><path fill="#263750" fill-opacity=".3" stroke="#263750" stroke-opacity=".3" stroke-width=".5" d="M179 32q-1.6 3-5 3c.3-1.2 3.6-3.2 5-3Z"/></svg>