<svg xmlns="http://www.w3.org/2000/svg" style="shape-rendering:geometricPrecision;text-rendering:geometricPrecision;image-rendering:optimizeQuality;fill-rule:evenodd;clip-rule:evenodd" viewBox="0 0 512 512"><path fill="#cd9200" fill-opacity=".1" stroke="#cd9200" stroke-opacity=".1" stroke-width=".5" d="M196 287q-.1.6-.5 1l-18.3 11.7a3 3 0 0 1-2.6.2l.3-1q8-5 16-9.6c1.5-.5 3.6-2.5 5-2.2Zm103.4 42.2.9-.3q.8 0 1.5.4 0 .8-.7 1.1-5.7 2.9-11 6.4a11 11 0 0 1-5 2q.1-.8.9-1.2l11.6-7.6z"/><path fill="#ffbc00" fill-opacity=".3" stroke="#ffbc00" stroke-opacity=".3" stroke-width=".5" d="M232.2 70.8q-1 2-3.2 2.2.8-2.2 3.2-2.2ZM237 101q-.6 1.3-2 1 .6-1.2 2-1Zm-66 16q0-.6.7-.5zm91 10a3 3 0 0 1-3 1.9 3 3 0 0 1 3-1.8Zm-90 6c-.4 1.4-3.7 3.1-5.1 3.1.8-1.5 3.3-3.3 5-3.1Zm-10 95c-.3 1.4-3.7 3-5 3 .7-1.6 3.2-3 5-3Zm20 2a8 8 0 0 1-5 3q1.9-2.5 5-3Zm129.6 25q.4-.9 1.3-.6-.4.6-1.3.7ZM280 265.8l-1-.7a72 72 0 0 1 7.7-5q.8-.2 1.2.3l-3.3 2.8q-2.2 1.4-4.6 2.6Zm-133-.7q-.9 2-3 2a3 3 0 0 1 3-2Zm54 19a7 7 0 0 1-5 3q1.9-2.3 5-3Zm97 31q.4-1 1.5-1c1.1.7-.9 1.2-1.4 1Z"/><path fill="#ffbc00" fill-opacity=".5" d="M265 36c0 1.2-1.9.8-2.6 1.9a2 2 0 0 1-1.4 0q1.5-2 4-2m-36 37c.1 1-1.5 1.6-2 .6a2 2 0 0 1 2-.6m-2.7 17.9q-.8 1.1-2 1.8-2.4.5-.4-1.2 1.1-.4 2.4-.6M173.9 99a3 3 0 0 1 2.6-2c1.5 1-1.7 2.3-2.6 2M284 98c-.5 1-4.2 4-5 2.5 1.2-1.2 3.2-2.6 5-2.6m8 44q-.7 2-3 2a3 3 0 0 1 3-2m-34 4.8c0 .9-1.3 1.7-2 .8a2 2 0 0 1 2-.7m44 18.1c0 .9-1.4 1.6-2 .6q.8-.9 2-.6m6 24q-.9 2-3 2 .8-1.8 3-2m67 10.1c-1 1.4-3.2 3.1-5 3 .9-1.6 3.3-3.2 5-3m-199 6c.5-1.2 4-4.1 5-2.8a8 8 0 0 1-5 2.8m-58.8-1.1 1 .3-1.3.9zm67.7 24q-.7 2-2.8 2a4 4 0 0 1 2.8-2m3.1 26c.5-1.2 4-4 5-2.7-1.1 1.2-3.3 2.7-5 2.6"/><path fill="#eda901" d="M126.9 328.7q-1.8 1-3 2.5-3.1 1.1-5.6 3.1l-1.2-.2c-.1-1.2-.7-5.1.7-5.7 1.7 0 7.9-.5 9 .3"/><path fill="#e8a300" fill-opacity=".2" stroke="#e8a300" stroke-opacity=".2" stroke-width=".5" d="M142 367q-.3.8-1 1.2-4.3 3-8.8 5.6-.3-.9-1.3-1.2l9.6-5.6zm54 19c-.4 1.5-8 5.9-9.8 7q-.3-1-1.3-1.4l9-5.2q1-.4 2.1-.3Z"/><path fill="#f4ae00" fill-opacity=".4" stroke="#f4ae00" stroke-opacity=".4" stroke-width=".5" d="M285 338.8c-.8 1.8-3 3.3-5 3.2q1.9-2.6 5-3.2Zm1.8 34.4q.6-2.1 2.8-2.2c1.2 1-2.3 1.7-2.8 2.2Zm-112.5 9-1 .7q0-1 1-.8Zm26.6.7q-.4 1.3-1.8 1 .5-1 1.8-1Zm-35 1.3q-.3.8-1.2.7zm284.8 2.1c-.2 1.1-4.5 4-5.6 3.2.4-.8 4.2-4.2 5.6-3.2ZM227.9 393q-.4 1.4-1.9 1.1.6-1.2 2-1.1Zm73.1 1q0-.5.6-.4-.1.3-.6.5Zm-192 11.2a9 9 0 0 1-5.2 3.1q2-2.7 5.2-3.1Zm-7.3 16q0 1-1 1z"/><path fill="#efa600" fill-opacity=".2" stroke="#efa600" stroke-opacity=".2" stroke-width=".5" d="m245.6 396 .5 1.4q-9.3 5.1-18.4 10.8-1.4.7-2.7.4.7-.8 1.6-1.5 9.7-5.3 19-11Z"/><path fill="#efb400" fill-opacity=".2" stroke="#efb400" stroke-opacity=".2" stroke-width=".5" d="M311.6 129.2q0 1 1.1 1.5l-16.7 9.8q-.9.6-1.9.5.4-1.2 1.5-1.8z"/><path fill="#fb0" fill-opacity=".3" stroke="#fb0" stroke-opacity=".3" stroke-width=".5" d="M185 166q-.3.9-1 1.3l-8.8 5.7a2 2 0 0 0-1.2-1.3l9-5.2a3 3 0 0 1 2-.4Zm184.1-.1a8 8 0 0 1-5.2 3.2q2-2.7 5.2-3.2Zm-19 35a7 7 0 0 1-5.1 3q2-2.5 5-3Z"/><path fill="#f6ab00" fill-opacity=".3" stroke="#f6ab00" stroke-opacity=".3" stroke-width=".5" d="M229.2 356q-1.5 1 0 0ZM193 369q-.2.6-.6 1l-5.9 4.1a3 3 0 0 1-1.7.5l-1-1c2.4-.8 7-4.9 9.2-4.6Zm210.9 8.3c0-1.3 6.6-5.7 7.7-5.5 1.8 1.6-6.6 4.9-7.7 5.5Zm-275.7 36-1.2.8q.2-1 1.2-.8Z"/><path fill="#fb0" fill-opacity=".3" stroke="#fb0" stroke-opacity=".3" stroke-width=".5" d="M293.7 92.2c-.4 1.6-8.2 5.7-9.7 5.8.4-1.8 6.5-4.4 7.9-5.8q.9-.5 1.8 0Zm86.4 103.7c0-1 5.4-5 5-2.7-.7 1.3-3.5 3-5 2.7Zm-60.4 53.2.5 1.2a2 2 0 0 1-2.1.7q.4-1.2 1.6-2ZM144 267q-.6 1-2 1 .5-1.5 2-1Z"/><path fill="#e2a600" fill-opacity=".2" stroke="#e2a600" stroke-opacity=".2" stroke-width=".5" d="M383.6 156.3q.3 1 1.4 1l-14 8.2q-.9.6-1.9.4.4-1 1.5-1.7z"/><path fill="#ffbc00" fill-opacity=".3" stroke="#ffbc00" stroke-opacity=".3" stroke-width=".5" d="m206 65.1 1.1-.2q-.2 1-1.4 1.2 0-.6.3-1Zm-64.7 52h.5q0 1-1 1zm9.7 55a3 3 0 0 1-3 1.9 3 3 0 0 1 3-2Zm164 12.7c-.6 1.8-3.2 3-5 3.2.9-1.8 3.1-3 5-3.2Zm3.1 66.2a6 6 0 0 1-3.7 2.7c-1.2-1.5 2.7-2.7 3.7-2.7Zm-130 3c-.8 1.6-3.4 2.9-5 3.1.6-1.8 3.1-3 5-3.2Z"/><path fill="#e2a100" fill-opacity=".2" stroke="#e2a100" stroke-opacity=".2" stroke-width=".5" d="M324.6 150.2q.2 1 1.1 1.4l-13.6 8a4 4 0 0 1-2 .3q0-.8.9-1.2 6.7-4.5 13.6-8.5Z"/><path fill="#f5b700" fill-opacity=".2" stroke="#f5b700" stroke-opacity=".2" stroke-width=".5" d="m334.2 130.3.9 1.1-14.7 8.5q-.7.2-1.4 0 .6-.8 1.5-1.4l11.8-7.5q.9-.5 1.9-.7Z"/><path fill="#f4b800" fill-opacity=".2" stroke="#f4b800" stroke-opacity=".2" stroke-width=".5" d="m365.2 139.7.5.5q.3.5 0 .9l-12.7 7.4a3 3 0 0 1-2 .4q.4-.7 1-1.2 6.4-4.2 13.2-8Z"/><path fill="#ffc100" fill-opacity=".2" stroke="#ffc100" stroke-opacity=".2" stroke-width=".5" d="M142 268q-.3.9-1 1.4l-10.4 6.6-1.8.6q-.3-.4-.7-.3a2 2 0 0 1 1.2-1.6l10.7-6.1a4 4 0 0 1 2-.5Z"/><path fill="#f3b700" fill-opacity=".3" stroke="#f3b700" stroke-opacity=".3" stroke-width=".5" d="M176 205q0 .6-.5 1-5.6 3.3-10.8 7-.9.6-1.8.7-.2-.7-.8-.4.2-1.1 1.2-1.6l10.7-6.1q1-.6 2-.5Z"/><path fill="#9e7500" fill-opacity=".1" stroke="#9e7500" stroke-opacity=".1" stroke-width=".5" d="m376.8 133.2-.2 1q.3.4-.2.7l-8.3 4.8a5 5 0 0 1-2.4.5l-.5-.5 9.8-6.3a2 2 0 0 1 1.7-.2Z"/><path fill="#f5ad00" fill-opacity=".3" stroke="#f5ad00" stroke-opacity=".3" stroke-width=".5" d="M175.2 355.8c-.7 1.4-3.6 3.5-5.3 3.1a10 10 0 0 1 5.3-3.1ZM301 394a3 3 0 0 1-3 2q.8-2 3-2Zm153 4.8v1.6q-.7.8-1.6 1.2-1.8.3-.6-1.3zm-319.8 10.4-1.1.8q.1-1 1.1-.8ZM395 417a3 3 0 0 1 2.5-2c1.2 1.1-1.8 1.9-2.5 2Z"/><path fill="#bf8800" fill-opacity=".1" stroke="#bf8800" stroke-opacity=".1" stroke-width=".5" d="M128 276.3q.5 0 .8.3-5 3.6-10.4 6.8l-.4-1 .2-1c2.8-1.6 6.7-4.6 9.9-5.1Z"/><path fill="#f0af00" fill-opacity=".2" d="M148 174q-.3.9-1 1.3a50 50 0 0 0-7.4 4.8q-.7.5-1.7.6l-1-1 9-5.3q1-.5 2-.4m-6 224q-.3 1.1-1.3.7zm-26 15q-.3 1.1-1.3.7z"/><path fill="#f1a900" fill-opacity=".2" stroke="#f1a900" stroke-opacity=".2" stroke-width=".5" d="M359.7 194.1q.4 1 1.4 1.3l-9 5.2q-1 .5-2 .3c.6-1.9 7.8-5.3 9.6-6.8Z"/><path fill="#e7a200" fill-opacity=".2" stroke="#e7a200" stroke-opacity=".2" stroke-width=".5" d="M223 396q-.2.9-1 1.3-4.2 2.9-8.7 5.5-.4-1-1.3-1.1l9-5.3q1-.4 2-.3Z"/><path fill="#ffc000" fill-opacity=".3" stroke="#ffc000" stroke-opacity=".3" stroke-width=".5" d="M198 175q-.2.6-.5.9-4 2.4-7.9 5.2-.7.5-1.7.6-.3-.6-1-1l9.6-5.6q.8-.3 1.4 0Z"/><path fill="#f0b100" fill-opacity=".3" d="M270.6 138q.5 1 1.4 1.3l-8.9 5.5q-1 .4-2.1.1.1-.5.5-.8 4.7-2.8 9.1-6"/><path fill="#f0af00" fill-opacity=".2" stroke="#f0af00" stroke-opacity=".2" stroke-width=".5" d="M183 257.1q-.7 1-1.6 1.7l-8 5a2 2 0 0 0-1.5-1.1q4.6-2.5 9-5.3 1-.4 2.1-.3Z"/><path fill="#ffc000" fill-opacity=".2" stroke="#ffc000" stroke-opacity=".2" stroke-width=".5" d="M177 233q-.3.9-1 1.4-4.4 2.7-8.7 5.6a2 2 0 0 0-1.4-1.3l9-5.2q1-.6 2-.4Z"/><path fill="#f0b200" fill-opacity=".2" stroke="#f0b200" stroke-opacity=".2" stroke-width=".5" d="M271.7 120.1q.4.9 1.3 1.2c-2.4 1.2-8.6 5.8-11 5.8q.3-.8 1-1.4z"/><path fill="#f4ae00" fill-opacity=".3" stroke="#f4ae00" stroke-opacity=".3" stroke-width=".5" d="M175 337q-.5 1.3-2 1a2 2 0 0 1 2-1Zm24 47q-.7 2-3 2a3 3 0 0 1 3-2Zm-30.7 2.3-1.2.7q0-1 1.2-.7ZM154 391q-.1 1.1-1.3.7zm72 3q-.9 2-3 2 .9-2 3-2Zm151 20.2q.6-2 2.7-2.2c1.1 1.1-2 2-2.7 2.2Z"/><path fill="#ffbc00" fill-opacity=".4" d="M261 144.9a3 3 0 0 1-3 2q.9-1.8 3-2m85 7.2c0 1-1.4 1-2 .9q.5-1.4 2-1m-193 18.8q-.5 1.2-2 1.2.6-1.4 2-1.2m-34.8 19 1 .3-1.3 1zm277 33-.2 1.2-1.1-.4q.3-.8 1.2-.8m-3.4 39.2q0-.8.9-1c1 .5-.7 1-1 1M149 264q-.5 1.3-2 1 .6-1.2 2-1m53.9 19c.3 1-1.2 1.1-2 1q.5-1.2 2-1"/><path fill="#dba300" fill-opacity=".2" d="M166.9 136.1q-.5 1-1.5 1.7-3 2.1-6 3.8-.3-1-1.5-1l7.1-4.1a3 3 0 0 1 1.9-.4"/><path fill="#e29f00" fill-opacity=".2" stroke="#e29f00" stroke-opacity=".2" stroke-width=".5" d="m183 331-.2 1.3q0 .9-.7 1.2c-1.7.6-5.5 3.7-7 3.4.8-2 6-4.4 7.8-6Z"/><path fill="#f4ae00" fill-opacity=".4" d="M364.2 361.8c0 1.3-2.3 3-3.2 1.9.3-1.2 2.2-1.5 3.1-1.9m-186.9 18.3-1 .9q0-1 1-.9M140 399.3q-.4.8-1.3.7.5-.6 1.3-.7m.4 5.7-1 1q-.2-1 1-1m287 6.9-.5-1.1c.6-.6 2-2.3 2.8-1.3a6 6 0 0 1-2.3 2.4"/><path fill="#ffbd00" fill-opacity=".3" stroke="#ffbd00" stroke-opacity=".3" stroke-width=".5" d="M240.2 98.8a3 3 0 0 1-3.2 2.2 3 3 0 0 1 3.2-2.2ZM298 315.1c-1 1.8-3.4 2.6-4.9 4q0-.8-.3-1.4a10 10 0 0 1 5.2-2.6Z"/><path fill="#e3ae00" fill-opacity=".1" d="m279 265 1 .7-4.7 3.1q-.5-.7-1.4-1.2z"/><path fill="#f4ae00" fill-opacity=".5" d="M335.8 334.2q.5-2.2 2.8-2.3c1.5 1.2-2.2 2-2.8 2.3M117 334l1.2.2-1.4.8zm111 58.9a3 3 0 0 1 2.7-2c1.5 1.1-1.9 2.2-2.7 2"/><path fill="#8a6500" fill-opacity=".1" stroke="#8a6500" stroke-opacity=".1" stroke-width=".5" d="M390.8 418.7q1 .3 1.3 1.4c-1.2-.3-1.5 1.2-2.4 1.8q-1.7.3-3.4-.2 2.1-1.7 4.4-3Z"/><path fill="#f5ae00" fill-opacity=".5" d="M280 342c-.3 1-2 2.5-3 1.6q.9-1.8 3-1.6m63.7 88q2.4-.5 4.7 0c-.3 1.3-4.3 1.7-4.7 0"/><path fill="#e69900" fill-opacity=".4" stroke="#e69900" stroke-opacity=".4" stroke-width=".5" d="m302.8 456 .3 1.2c-.7.8-4 3.8-4.9 2.4q2.1-2 4.6-3.5Z"/><path fill="#f4af00" fill-opacity=".3" d="M180 376q-.1 1.1-1.3.7zm-14.7 12.3-1.2.8q0-1 1.2-.8M134.9 402q0 1-1.2.7.6-.5 1.2-.7m202.2 12q-1 2-3.1 2 .7-2 3-2m-228 3q-.1 1-1.2.8z"/><path fill="#f3ae00" fill-opacity=".4" d="M384.1 375.7c-.4 1-2 3.1-3 2 .2-1.2 2-1.5 3-2M303 392.1q.6-.1 1 .4-.8.6-1-.4m-170 11.1q-.1 1-1.2.8zm-23.9 1.9c0-.8 1.2-1.8 1.8-.9q-.6 1-1.8.9"/><path fill="#e59a00" fill-opacity=".3" stroke="#e59a00" stroke-opacity=".3" stroke-width=".5" d="M251 467v-1.3c.7-.7 4-3.9 4.8-2.4a26 26 0 0 1-4.7 3.7Z"/><path fill="#feb800" fill-opacity=".3" d="M364 318.1v-1.4c.7-.8 3.9-3.3 4.7-2.2z"/><path fill="#f4ae00" fill-opacity=".3" d="m320.3 319.1-.3.6-1.4.2q.6-.8 1.7-.8M99 376.1q-1 2-3.1 2 1-1.9 3.1-2m-32.8 5 1-.4q0 1-1.1 1zm71.3 26-1.1.8q0-1 1-.8m-16.2 3.1q-.5.9-1.5.8.8-.6 1.5-.8"/><path fill="#f3ae00" fill-opacity=".4" d="M193 369a3 3 0 0 1 1.6-1.8q2.6-.3.6 1.4-1 .4-2.1.4m-9.7 7q-.7.5-1.6.6.7-.9 1.6-.7m-5.3 1.3c.2.9-1 .5-1.3.6a2 2 0 0 1 1.3-.6M146.2 401q-.6.6-1.4.8a2 2 0 0 1 1.4-.8M107 418.2q-.4 1-1.4.8.6-.6 1.4-.8"/><path fill="#f4ae00" fill-opacity=".4" d="M142 367q.6-2 2.6-2c1.5.9-2 1.8-2.6 2m38.3 11.2q-.6.5-1.4.4.5-.7 1.4-.4m-21.4 10.1q-.3.7-1.2.7zM143.2 403q-.5.6-1.4.7.5-.7 1.4-.7"/><path fill="#f4ae00" fill-opacity=".5" d="M173 338c.2 1.6-2 2.7-3 1.7q1-1.5 3-1.8m-21 54.3q-.3.8-1.3.6.6-.4 1.4-.6m-2.8 7q-.7.4-1.6.4.7-.6 1.6-.4m-23.3 8q-.3.8-1.2.6z"/><path fill="#ffbc00" fill-opacity=".4" d="m274.1 47-.2 1q-.5 0-1.1-.3.5-.6 1.3-.7M368 203.1q-.2.7-.8.3.3-.5.8-.3m-203 22.8q-.9 2-3 2.2.9-2 3-2.2"/><path fill="#f8bd00" fill-opacity=".2" stroke="#f8bd00" stroke-opacity=".2" stroke-width=".5" d="M395 417a7 7 0 0 1-3 3q0-1-1.3-1.3 2-1.5 4.3-1.7Z"/><path fill="#f4ae00" fill-opacity=".4" d="M324.1 358.8c-.3 1-2 3.1-3.1 1.8.3-1.1 2.2-1.4 3.1-1.8M114 414.4q-.4.6-1.3.5.6-.5 1.3-.5"/><path fill="#c69b00" fill-opacity=".2" stroke="#c69b00" stroke-opacity=".2" stroke-width=".5" d="m186 329.1.7-.2q1.2 0 2.4.4l-3 1.8q-.3-1-1.3-1.4z"/><path fill="#f3ae00" fill-opacity=".3" d="M161 387q-.3 1.1-1.3.7zm1.3 3.3-1.2.8q0-1.1 1.2-.8m135.6 5.7q-.5 1.4-1.7 1.8l-.3-1q.7-1 2-.8"/><path fill="#cc9909" d="m206 65.1-.3 1q-.7.8-1.5 1-.9-.4-1.9-.4c-.2-.8 3-1.6 3.7-1.6"/><path fill="#8a5d00" fill-opacity=".1" stroke="#8a5d00" stroke-opacity=".1" stroke-width=".5" d="M251 465.7v1.3l-2.8 2q.2-1-.5-1.7 1.5-1.2 3.2-1.6Z"/><path fill="none" d="M383.7 319.6h-1.4c-.2-1.2 1.8-2 2.5-1.2z"/><path fill="#805e00" fill-opacity=".1" d="M295.6 90q.8.3 1.4 1-1.4 1-3.3 1.2.4-1.5 1.9-2.2"/><path fill="#e69900" fill-opacity=".4" stroke="#e69900" stroke-opacity=".4" stroke-width=".5" d="M271 499.2h-.9l-1-.4q.8-1.3 2.1-1.8.3 1.2-.1 2.2Z"/><path fill="#865e0a" fill-opacity=".1" stroke="#865e0a" stroke-opacity=".1" stroke-width=".5" d="M453 384.3q.6-.2.7.4-1 1.6-3 1.6.3-2 2.3-2Z"/><path fill="#e59a00" fill-opacity=".2" stroke="#e59a00" stroke-opacity=".2" stroke-width=".5" d="M253.8 434q0 .7.3 1.3-.9.8-2.2.8.6-1.4 1.9-2Z"/><path fill="#ffbd00" fill-opacity=".2" stroke="#ffbd00" stroke-opacity=".2" stroke-width=".5" d="M254 5h-2c0-1.6 2-1 2 0Z"/><path fill="#f6ae00" fill-opacity=".2" d="m159.3 392.3-1.2.8q0-1 1.2-.8m-37 25-1.2.8q0-1.1 1.2-.8"/><path fill="#876013" fill-opacity=".8" d="M218.8 497.2c.7-.2 2-.2 2 .9-.7-.1-2 0-2-1"/><path fill="#f3af00" fill-opacity=".3" d="M173 380q-.3 1-1.3.7zm-1.8 4.3-1.1.7q0-1.1 1.1-.7"/><path fill="#f4ad00" fill-opacity=".2" d="M174.9 379q0 1.1-1.2.6zm-21.6 17.3-1.2.8q0-1 1.2-.8"/><path fill="#fdbb00" fill-opacity=".2" stroke="#fdbb00" stroke-opacity=".2" stroke-width=".5" d="M405 289c1.4 0 1.1 2 0 2z"/><path fill="#f5ac00" fill-opacity=".3" d="M225.8 358q0-.6.8-.8c1 .6-.5.9-.8.9m-94.5 53.3-1.2.8q0-1.1 1.2-.9"/><path fill="#f6b000" fill-opacity=".2" d="M168 383q-.3 1.1-1.3.7z"/><path fill="#f5ac00" fill-opacity=".2" d="M149 394q-.2 1-1.4.7z"/><path fill="#e79a00" fill-opacity=".2" stroke="#e79a00" stroke-opacity=".2" stroke-width=".5" d="m285 499 .9-.1q0 1.1-1.1.7z"/><path fill="#c98906" fill-opacity=".5" d="M258.1 504.4h1.3q-.7.4-1.6.6z"/><path fill="#f4b000" fill-opacity=".2" d="M104 420q-.2 1-1.4.7z"/><path fill="#c58908" fill-opacity=".4" stroke="#c58908" stroke-opacity=".4" stroke-width=".5" d="M313 431.3h1.4a2 2 0 0 1-1.8.7z"/><path fill="#f3ae00" fill-opacity=".2" d="m150.3 398.3-1 1q-.2-1.2 1-1"/><path fill="#ffbd00" fill-opacity=".2" stroke="#ffbd00" stroke-opacity=".2" stroke-width=".5" d="M117.2 253h.7q-.1.7-1 1z"/><path fill="#ce8b06" fill-opacity=".5" d="M247.7 504.4h1.2l-.2.8z"/><path fill="#e69900" fill-opacity=".3" stroke="#e69900" stroke-opacity=".3" stroke-width=".5" d="M199 457h1q-.2.8-.8 1.4z"/><path fill="#f3b202" fill-opacity=".4" stroke="#f3b202" stroke-opacity=".4" stroke-width=".5" d="m372.7 123.6.2 1.4q-.6 0-1.1-.3.3-.7 1-1Z"/><path fill="#f3af00" fill-opacity=".3" d="M146.8 395q0 1-1 1z"/><path fill="#805b15" fill-opacity=".3" stroke="#805b15" stroke-opacity=".3" stroke-width=".5" d="M305.2 487.7q-.3 1.2-1.5 1.4.4-1 1.5-1.4Z"/><path fill="#987512" fill-opacity=".3" stroke="#987512" stroke-opacity=".3" stroke-width=".5" d="M204.3 56.2q-.5.7-1.5 1 .4-1.1 1.5-1Z"/><path fill="#f5ac00" fill-opacity=".2" d="m156.3 394.3-1.2.8q0-1 1.2-.8"/><path fill="#7f5c15" fill-opacity=".6" d="M289.4 497.2a2 2 0 0 1-1.4.6q.4-.9 1.4-.6"/><path fill="#a0690f" fill-opacity=".2" stroke="#a0690f" stroke-opacity=".2" stroke-width=".5" d="m220.7 498 1.5.3q-.7.4-1.5-.2Z"/><path fill="#966910" fill-opacity=".8" d="M270.1 499.2h1q-.5.8-1.4.5z"/><path fill="#f2b000" fill-opacity=".2" d="m125.3 415.3-1.2.8q0-1.1 1.2-.8"/><path fill="#e59900" stroke="#e59900" stroke-width=".5" d="M246.1 397.4q2.2-.8 4 .2c-4.4 4.7-25.6 18-32.4 22.8q-1 .6-.7 1.8h-15c3.8-3.4 17.7-10.7 23-13.6q1.4.3 2.7-.4 9-5.7 18.4-10.8Zm15.9 24.8h-9q0-1 1-1.5a621 621 0 0 0 36.3-21c1-1 1.6.3 2.3.9q-5.2 3.5-10.8 6.7l-19 13.1a2 2 0 0 0-.8 1.8Zm26.3 9q-3.7 3-7.8 5.8l-.3.7c-.7.2-3.7 1.2-2.7 2.4q2-.3 2.7-2.4 1.3.3 2.6-.3 3.9-2.9 8.2-5 .5-.4.7-1 10.6-.4 21.3-.2l-.4.8q-10.2 7.4-20.1 15.3-1.3.1-2.1 1 .6.7 1.6.4l8.6-5.6c3.8-2 15-7.2 17.1-10.4q.7 6.8-1 13.5c-1.6.2-9.6 7.1-11.7 8.3a2 2 0 0 0-.8 1.6h-1.4q-2.5 1.5-4.6 3.5c.9 1.4 4.2-1.6 5-2.5l1.2-.4 11.8-6.8c-4.6 22.4-21.7 45-45.1 49.3q.4-1 .1-2.2-1.4.5-2.1 1.7-1 .5-1.2 1.5a68 68 0 0 1-30.5-3.2q-1-.1-1-1.1c5.6-4.8 18-13.2 22.4-17.7.7-.3 3.8-1 2.8-2.2q-2 .3-2.8 2.2c-7.7 3-18.1 10.1-26 14.2q-1 .7-.8 1.9c-2-.9-9.6-4.5-10-6.6 1.5.4 23-16.7 26.2-18.6q1.4-1.2 2.9-2a26 26 0 0 0 4.7-3.8c-.8-1.5-4.1 1.7-4.9 2.4q-1.8.4-3.2 1.6l-28.4 16.3q-1 .4-1.1 1.4-4.3-3-7.3-7.3 19-13.6 37.6-27.7c1-1 3.6-1.1 3.3-2.9l2.3-.5q2-1.5-.4-1.3a4 4 0 0 0-1.9 1.8c-5.8 2.5-42.5 22.8-44.5 26.2q-3.2-4.3-5.6-9.4 1-.9 2.5-1.3l32.5-26q-1.8-.5-2.5 1Q217 447.2 200 457h-1c-2.4-1.7-5.3-20.8-5-24.5q0-.9.7-1.3 46.8-.4 93.6 0Zm-36.4 4.9q-1.8 0-2.8 1.5c.9 1 2.6-.5 2.8-1.5q1.3 0 2.2-.8 1.6-1.2-.3-1.3-1.3.8-1.9 2Zm2.2 60c-1.2 0-3.7.7-3.4 2.3 1.2 1 2.8-1.5 3.4-2.3q1 0 1.8-.8c-.6-.9-1.7 0-1.8.8Zm29.2 3.8c-1.3 1.6-6 4-8 4.9q-2.6.5-4.7-1.5c.7-1.3 10.8-3 12.7-3.4Zm-50.4 2 6.6 1.4q.6.2.5.8c-1.5.1-2.7 1.1-4.3.3a4 4 0 0 1-2.8-2.5Zm16 2.5q4.5-.4 9.2 0l-.3.6c-3.1 1.8-6.3 3.7-9 .2z"/><path fill="#262626" stroke="#262626" stroke-width=".5" d="M252 5h2c26.1-1.6 39 19.7 33.3 43.6q-.2.8.3 1.3 9 2.5 17.7 5.5c46.4 15.1 82.6 46.5 94.6 95.1 11.6 44.5 5.3 93 5.1 138.5v2c.6 27 2 59 25.6 76.8 18.4 4.1 44.7 6.5 44.8 31.2-2.4 35.5-46.9 35-72.9 33.9q-14.3-.9-28.5-2l-.7-.5q-3.3-1-6.5.2a87 87 0 0 0-18.4-.6q-2.4-.5-4.7 0c-2.1-.2-12.4 0-13.4 1.7q1.3 32.7-23 54.5-1 0-1 1-.4.9-1.1.5-1.2.4-1.5 1.4-7 4.5-14.3 8-1-.1-1.4.7l-.7.5q-1.4-.2-2.4.7c-.5 0-1.9 0-1.6 1-2 .3-12 2-12.7 3.3-2.1-.8-8.7.7-11.2 1h-1.3q-4.5-.3-9.2 0l-1.2.1c-2.1-.5-5.7-1.7-7.7-.2q0-.6-.5-1l-6.6-1.3q-5.4-1.5-10.7-3.6l-1.5-.2c.2-1-1.2-1-1.9-1a63 63 0 0 1-37-64.6q.2-.8-.5-1.3L68.5 431c-37.5 1.3-42.5-50.3-8-59 34-3 41.9-21 45.4-52.5 4.7-80-20.7-175.7 49.1-236a154 154 0 0 1 47.8-26.3q1-.3 1.5-1 9.9-3 19.9-5.6.5-.4.4-1C221 32 226.3 14.4 244 7.3c2.1-.5 6-2.3 8-2.3Zm-28.1 54a5 5 0 0 0-2 .6c-4.8 2-10.3 2.7-14.8 5.3l-1.1.2c-.7 0-4 .9-3.7 1.6-19 5.8-52.2 33-61 50.4l-.6 1q-2.5 2.5-4 5.8l-.6 1c-2.3 4-7 12-7.9 16.4q-1.6 2.7-2.5 5.7-.6.3-.6.9c-.6 4.1-3.6 9.3-3.1 13.4a8 8 0 0 0-.9 5.5 75 75 0 0 0-2.9 23.2l-.3 1.1q-.3 1-.2 1.9-.7.2-.4 1-.5 5-.1 10l-.3 1.2q-.5 2.4 0 4.8-.7 6-.6 12.2a209 209 0 0 0 0 15.3q0 .9.7 1.2-.8 1.7 0 3.2-.6 5.6.1 11.1l-.1 1v2q-.2 5.7.3 11.4a6 6 0 0 0 .1 3.3c0 2.4-.7 9 .7 10.7l-.1 1c-1.3-.3-.7 1.4-.3 1.9a72 72 0 0 0 .3 12.5l-.9 21.7q0 .8.6 1.3 10.6.3 21.3.2h124.9a2136 2136 0 0 0 50.4-.2q2 .4 4.3 0l1.4-.1a7 7 0 0 0 2.5.3h56a15 15 0 0 0 3.8-.4h1.3q5.4.8 10.7.2l.5-.5c0-12.6 1.4-29.5.9-41.6q.5-2.7.2-5.5a655 655 0 0 0 .1-27c-.2-6.2.4-15.3-1-21.1l.1-1.2V219a61 61 0 0 0-1.1-11.3V203q.4-1.6-.9-2.8c.2-3-1.5-20.2-3.3-21.5q.5-1.5 0-2.8a270 270 0 0 0-4.5-19.9c-.9-1.6-2-8.9-3.7-9.4a3 3 0 0 0-.9-3.3c0-2.5-1.8-5.5-2.6-8q-.3-1-1.5-1.2l.1-.9c-.3-2.5-2.2-6.2-3.8-8.2l-.2-1.4q-.6-1.4-1.8-2.4c-.1-1.7-3.6-7.8-5.2-8.3q.3-1.2-.9-1.8c-1-2.3-3.8-7-6-8q0-1.5-1.5-2-2.7-4.3-6.5-7.5a44 44 0 0 0-4.5-4.5c-2.1-1.6-6-6-8.6-6.2 0-1.5-2.5-2.8-3.9-2.8q0-1-.8-1.4c-2.1-1.2-6-4.3-8.2-4.5q-.9-1.5-2.5-.9c-1-2.7-18.4-9.5-21.6-9.5.2-1-5-2-6-1.7q.1-.5-.3-.7-6.2-1.8-12.5-2.7-2.4-.6-4.8-1.8c-2.5-1.8-2.3-6.2-3.2-8.9l.2-1q.3-2.4-.2-4.8c1.3-4.5.7-17.4-2.7-20.4q-.4-1.8-2.1-2.5c-1.4-4.2-12.7-6.6-16.6-6.3-17 1-16.5 26.4-14.9 38.5-.2 6.7-8.8 6.7-13.7 7.6ZM117 334l-.2 1a8 8 0 0 0-.6 3.7q-1.7 8.4-4.7 16.4l-2.2 3.5c-7 11.6-19.4 15-31.6 18.7-3.7.8-7.4 1.3-10.6 3.4q-.6 0-1 .3c-11.4 3.6-18.4 10.5-16.3 23.1.2 1.2-.1 3.2 1.3 3.6-.2 2.8 3.6 7.5 6.1 8.2.5 1.5 5.8 4.3 7.3 3.8 1.3 1.9 11.5 3.6 13.7 3q1.6 1 3.2.2c1.8 1.8 13.9 1 16.7.8q7.8.4 15.4-.7 10.5-.3 20.8-1.3a47 47 0 0 0 9.2-.7c11.6 0 23 1.6 34.7.8q2.7.6 5.4.3H262q20.1.2 40.2-.2 1.3.3 2.7.2l1-.2a2555 2555 0 0 0 61.8 0 96 96 0 0 0 18.6-.2q1.7.4 3.4.2a296 296 0 0 0 26.2.2l1.1-.2q5.9.3 11.6.9c15.1 2 41.6-7.6 33.2-27.1q0-1.6-1.5-2.6a16 16 0 0 0-6.6-8.4q0-.6-.7-.4-.4-2-2.5-2l-11.5-1.6q-1.4-1.1-3.3-.7 0-.5-.3-.6a66 66 0 0 1-31.3-18.2 55 55 0 0 1-9-20.1q-.3-5.3-.2-10.6 0-1.1-.9-2c-5.6.2-12.8-.6-18.2.7-2-1.3-5.8-.8-8-.3q-.5-.9-1.4-.6-31.1 0-62.3.4c-.9-.8-3.4-1.3-3.8.2l-.9.3c-1.6-1.7-21.3-.7-24.6-.1q-3.5-1-6.8.2a1 1 0 0 0-.8-.8c-15.3-.1-30.8-.7-46.1.4q-3.7-1-7.3 0-.4-.7-1.5-.6l-22.2.3q-1.8-1.2-3.4.3l-.7.2a1 1 0 0 0-.8-.7c-8 .2-16.2-.4-24.3.5a7 7 0 0 0-4 0q-.5-.8-1.5-.5-14.2 0-28.5.3c-1.2-.8-7.4-.3-9-.3-1.5.6-.9 4.5-.8 5.7Zm82 123q0 .8.2 1.4.8 3 2.4 5.5a48 48 0 0 0 9.2 13.8q3 4.3 7.3 7.3c.7 1.1 2.4 3 3.7 2.7.5 2.1 8 5.7 10 6.6q2 1.6 4.4 1.6.1 1 1.1 1.1c10.4 3.2 19.7 4.7 30.5 3.2l1.8-.5q.9.3 1.4-.5c23.4-4.3 40.5-26.9 45.1-49.3q.7-1.8.5-3.7 1.7-6.7 1-13.5c.6-2-2-1.8-3.3-1.4H313q-10.6-.3-21.2 0a5625 5625 0 0 0-97-.2q-.9.5-.7 1.4c-.4 3.7 2.5 22.8 5 24.5Z"/><path fill="#b07a0a" fill-opacity=".8" d="m287.3 498.3-1.4.6-1 .1q1-.9 2.4-.7m-2.4.7-.1.6q-.7.4-1.5.3c-.3-.9 1-1 1.6-.9"/><path fill="#e49900" fill-opacity=".3" stroke="#e49900" stroke-opacity=".3" stroke-width=".5" d="M254 496c-.5.9-2 3.4-3.3 2.4-.3-1.6 2.2-2.3 3.4-2.3Z"/><path fill="#e59800" fill-opacity=".3" stroke="#e59800" stroke-opacity=".3" stroke-width=".5" d="M258.8 478.2q.8-2 2.7-2.2c1.1 1.2-2 2-2.7 2.2Z"/><path fill="#e69a00" fill-opacity=".4" stroke="#e69a00" stroke-opacity=".4" stroke-width=".5" d="M251.8 447.1a4 4 0 0 1 1.9-1.8q2.4-.3.4 1.3z"/><path fill="#e59800" fill-opacity=".4" stroke="#e59800" stroke-opacity=".4" stroke-width=".5" d="M280.2 437.7a3 3 0 0 1-2.7 2.4c-1-1.2 2-2.1 2.7-2.4Z"/><path fill="#e59900" fill-opacity=".4" stroke="#e59900" stroke-opacity=".4" stroke-width=".5" d="M252 436c-.3 1-2 2.7-2.9 1.6q1-1.5 2.8-1.5Zm2 60c.2-.6 1.3-1.6 1.9-.7q-.7.8-1.8.8Z"/><path fill="#ffbc00" stroke="#ffbc00" stroke-width=".5" d="M269 19.3q-.8.1-1.4.8-3.7 3.6-7.2 7.3.3.4.9.2 5-2.7 10-5.8c3.3 3 3.9 15.9 2.6 20.4-14 8.5-27.1 18.8-41 27.3q-.9.4-.7 1.3-2.4 0-3.2 2.2a2 2 0 0 0-2 .6c.5 1 2.1.4 2-.6q2.1-.4 3.2-2.2l1.8-.2 38.8-22.9 1 .3c1 2.7.8 7.1 3.3 8.9-2.4-.2-39 25.4-44 28.9a29 29 0 0 1-4 3c-.8 1-3.2.3-2.9 2l-2.3.7q-2 1.5.5 1.3 1-.8 1.8-2c2.2.3 2.5-1 4.1-2q25.2-14.3 50.3-28.8.8-.5 1.3-1.3 6.3.9 12.5 2.7.4.2.3.7L241 97.6q-.8.4-.8 1.2-2.3 0-3.2 2.2-1.4-.2-2 1-1.9.1-3 1.6c1 1.4 2.5-.6 3-1.5q1.5.1 2-1.1 2.2 0 3.2-2.2l1.9-.1q28.6-17 57.6-33.4 1-.5 1-1.5c3.2 0 20.7 6.8 21.6 9.5l-1.8.7q-10.6 6.7-21 13.9l-4 2q-1.4.8-1.8 2.3-.9-.4-1.8 0c-1.4 1.4-7.4 4-7.9 5.8-1.8 0-3.8 1.4-5 2.6.8 1.4 4.5-1.4 5-2.6 1.5-.1 9.3-4.2 9.7-5.8q1.8-.1 3.3-1.2l2.6-1.9A682 682 0 0 0 324 75.4q.6-.5.8-1.2c2.3.2 6.1 3.3 8.2 4.5q1 .5.8 1.4-.7 0-1.5.6c-20.2 13-40.2 26.9-60.6 39.4l-8.7 5.6q-.7.5-1 1.4-2.1-.1-3 1.8a2 2 0 0 0-2 .8c.7.9 2 0 2-.8q2.1 0 3-1.8c2.4 0 8.6-4.6 11-5.8l64-37q.8-.5.7-1.4c2.7.3 6.5 4.6 8.6 6.2-25.1 16-50.6 33.3-75.7 49q-4.5 3.2-9.1 6l-.5.8q-2.1.2-3 2a2 2 0 0 0-2 .8c.7 1 2 .1 2-.7a3 3 0 0 0 3-2.1q1 .2 2.1-.1 4.4-3 9-5.5l78.7-45.7q3.9 3.3 6.5 7.4a4 4 0 0 0-2.4.6l-59.3 37.6q-1 .6-1.5 1.8c-.8-.1-2.2-.1-2.1 1a3 3 0 0 0-3 2q-1.1-.2-1.8.7c.5 1 1.8.2 1.8-.6q2.3 0 3-2 1.5.2 2.1-1 1 0 2-.6 8.2-5.1 16.6-9.8l45.4-26.2q.8-.5.7-1.4c2.3 1 5 5.7 6 8a483 483 0 0 0-30.6 19.2q-1 .1-1.9.7l-11.8 7.4q-.9.6-1.5 1.6-2.1 0-3 2-1.5-.3-1.9 1.1a5 5 0 0 0-2.2.4q-2 1.5.5 1.2 1-.6 1.7-1.6 1.4 0 1.9-1.2 2.1 0 3-2 .8.2 1.4 0l14.7-8.5 29.6-17.1q1-.5 1-1.4c1.6.5 5 6.6 5.2 8.3q-23.4 14.2-46.3 29-6.9 4-13.6 8.5a2 2 0 0 0-1 1.2c-1.8.2-4 1.5-5 3q-2.2.2-3 2.1-1.2-.3-2 .6c.6 1 2 .3 2-.6q2-.2 3-2c1.5.3 4.4-1.6 5-3a4 4 0 0 0 2-.3l13.7-8q23.2-13.4 46-27l1.2.3c1.6 2 3.5 5.7 3.8 8.2a2 2 0 0 0-1.7.2l-9.8 6.3q-6.7 3.8-13.2 8-.6.4-1 1.2a7 7 0 0 0-5 3.2q-1.5-.4-2 .9-2.1.3-3 2-1.2-.2-1.9.7c.6.9 1.9.2 1.8-.7q2.3 0 3-2c.7 0 2.1.1 2-1 1.8-.2 4.5-1.3 5-3.1a3 3 0 0 0 2.1-.4l12.6-7.4q.4-.4.1-1a5 5 0 0 0 2.4-.5l8.3-4.7q.5-.3.2-.8 1.2.1 1.5 1.3c.8 2.4 2.6 5.4 2.6 8q-.9-.2-1.6.3l-59.5 37.6c-1.5 1.2-1.5 1.7-3.7 2.2q-.9.3-.8 1.3c-2 .2-4.2 1.4-5.1 3.2q-1.6-.5-2 1-2.2.2-3 2-1.2-.2-1.8.7c.5 1 1.8.2 1.8-.7q2.1 0 3-2 1.5.3 2-1c1.8-.1 4.4-1.4 5-3.2l2-.2q31.2-18.4 62.7-36.4 1-.6 2-1.6c1.7.5 2.7 7.8 3.6 9.4l-1.7.3q-6.5 3.8-13 8-1 .5-1.5 1.6-3.3.5-5.2 3.2c-1.7-.3-3.9 1.5-4.9 2.8q-1.5-.3-2 1.2c-1 .1-2.7.4-3 1.5 1 1.4 2.4-.7 3-1.5q1.5.1 2-1.2c1.6.1 4.3-1.3 5-2.8a8 8 0 0 0 5.1-3.2q1 .2 2-.4l14-8.2.6-.5q2.4 9.5 4.1 19a3 3 0 0 0-1.9.5q-14 9-28.2 17.8c-1.8 1.5-9 5-9.6 6.8a8 8 0 0 0-5.1 3 3 3 0 0 0-3 2.2 2 2 0 0 0-2.1.8c-1 .2-2.7.3-3 1.6 1.4.7 2.7-.3 3-1.6.7.1 2.2.3 2.2-.8a4 4 0 0 0 2.9-2.2 7 7 0 0 0 5-3q1.1.1 2-.3l9-5.2 28.8-16.7c1.8 1.3 3.5 18.6 3.3 21.5q-.5 0-1.1.3l-70 47.2a2 2 0 0 0-.8 1.3h-1.5q-1.2.8-1.6 2c-1 0-5 1.2-3.7 2.7a6 6 0 0 0 3.7-2.7 2 2 0 0 0 2.1-.7l1.2-.6 72.6-42a61 61 0 0 1 1.1 11.3q-1.1-.4-2.2.2l-40.3 27c-1.5 1.4-1.5 1.8-3.7 2.3q-.9.4-.7 1.3c-2 .1-3.8 1.5-5.2 2.9.9 1.4 4.7-1.8 5.2-2.9q1 0 1.8-.3 22-12.7 43.9-25.8l1.1.4c1.4 5.8.8 14.9 1 21q-1-.3-2 .2l-22 15.2q-1 .4-.8 1.4c-2 0-3.9 1.5-5.1 2.8.8 1.3 4.4-1.7 5.1-2.8q1.2-.2 2.4-.8l22.5-13.2-.2 24.3c-2.2.1-17.2 14-20.4 16q-1 1.3-2.2 2.2c.9.7 2.5-.8 3.4-1 5.3-3.7 14.5-7.7 19-11.7.5 12.1-.9 29-1 41.6q0 .3-.4.5a47 47 0 0 1-10.7-.2l1.2-1.2c-.7-.9-2.7 0-2.5 1.2a15 15 0 0 1-3.8.4h-56a7 7 0 0 1-2.5-.3l.3-.6c12.5-5.9 21.5-14.7 32.3-23l.2-.9c.6-.4 4-1 2.6-2.1q-1.9.2-2.6 2.1c-3 .7-7.6 4-10.5 5.5-3 2.4-28 17.6-28 19.1q-21.2.4-42.3.2c7.8-7.1 20.2-14.1 29.2-20.4q.6-.3.6-1-1.2-.9-2.5 0-16.9 10.6-34.2 20.1a2 2 0 0 0-1.1 1.3h-35.1c3.2-6.7 21.4-14.4 26.4-19.1 1.7 0 22.5-15.2 26-17q.4-.2.5-.8c.4-.3 4.4-1.1 2.8-2.1q-2.2 0-2.8 2.1c-8.9 3.9-17.3 9.7-26 14.3q-1.2 1.1-1.5 2.9-.8-1.6-2.4-.6-16.2 9.7-32.8 19a2 2 0 0 0-1.1 1.3h-17q12.8-9 25.9-17.6c1.5-.8-.3-2 1-2.3q1.2 0 2.1-.6l50-33.8a45 45 0 0 0 8-5.4q-.6-.6-1.3-.3a72 72 0 0 0-7.7 5l-5 2.6q-.7.8-1.5 1.2-23 12.7-45.6 26.1c-6.8 4.3-39 22.4-43 25.1h-38q0-1 1-1.6a183 183 0 0 0 11-7c5-3 11.4-6 16.2-9.2l-.6-1.2 1.1-1.1a3 3 0 0 0 2.6-.2l18.3-11.8q.4-.3.4-.8a7 7 0 0 0 5-3.1c.8.1 2.3 0 2-1 .7-.4 4.1-.8 2.7-2q-1.7.3-2.7 2-1.4-.3-2 1-3 .6-5 3c-1.4-.2-3.5 1.8-5 2.3q-8 4.6-16 9.6c-4.7 2.7-34.6 18.9-36 21.1q-10.5.1-21.2-.2-.7-.5-.6-1.3l1-21.7c19.1-8 37.5-21.8 55.2-33l8-5q1-.7 1.7-1.7c1.7-.2 4.3-1.5 5-3.2 1.7.1 3.9-1.4 5-2.6-1-1.3-4.5 1.5-5 2.6-1.8.2-4.3 1.4-5 3.2q-1-.2-2 .3l-9 5.3c-17.9 10.7-36.3 20.9-54.2 31.3a72 72 0 0 1-.1-9.7l.7-.9q5.4-3.1 10.3-6.8 1-.1 2-.6l10.3-6.6q.7-.6 1-1.3 1.4 0 2-1 2.1-.2 3-2 1.4 0 2-1.1 2.1-.1 3-2c.5.2 2.8-.3 1.6-1q-1 0-1.6 1-2.1 0-3 2-1.4-.2-2 1a3 3 0 0 0-3 2q-1.4-.3-2 1a4 4 0 0 0-2 .6l-10.7 6.1a2 2 0 0 0-1.2 1.6c-3.3.5-7 3.5-10 5.1-1.4-1.8-.8-8.3-.7-10.7q.9.2 1.6-.3a5000 5000 0 0 1 57-36l1-1.3a8 8 0 0 0 5-3.1q2.3 0 3-2l1.5-.2q.8-.4 0-1-1.2 0-1.6 1.2-2 .2-2.8 2a7 7 0 0 0-5.2 3q-1 0-2 .5l-9 5.2q-23.2 13.7-46.6 27-1 .7-2 1.7a103 103 0 0 1-.3-11.4q1 .1 2-.4c10.9-7.3 22.4-13.7 33-21.3q3-.7 5-3.3c1.3 0 4.7-1.6 5-3q2.1 0 3-2c.6.2 3-.3 1.6-1.1q-1.3-.1-1.6 1-2.1.3-3 2.2c-1.8-.1-4.3 1.3-5 3-1.9-.2-4.4 1.3-5 3.2q-1.5-.1-2.7.4-5.1 2.8-9.8 6.1L117.9 253l-.8.1q-.6-5.6-.2-11 1.2.6 2.4-.3 21.8-13.8 43.6-28 .9 0 1.8-.6 5.3-3.7 10.8-7.2.4-.3.5-.8a8 8 0 0 0 5-2.8c-1-1.3-4.5 1.6-5 2.8q-1.2 0-2 .5l-10.7 6.1q-1 .5-1.3 1.6c-1.6-.4-40.1 22.6-45 25.4q-.7-.3-.6-1.2l-.1-9.7q1.2 0 2.3-.7 34.8-22.5 69.3-45.4 1-.2 1.7-.6 3.9-2.8 7.9-5.2l.5-.9q2-.2 3-2c.5.2 2.7-.3 1.5-1q-1 0-1.5 1a3 3 0 0 0-3 2h-1.5l-9.5 5.7c-22.1 13.5-45.2 26-67.6 39.1q-1.7 1-3.1 2.4-.2-6 .6-12.2 1.2 0 2.1-.6a6486 6486 0 0 1 65-42.1q.7-.4 1-1.2 2.1-.1 3-2c.5.1 2.8-.4 1.6-1.2a2 2 0 0 0-1.6 1.1 3 3 0 0 0-3 2 3 3 0 0 0-2 .5l-9 5.2q-28 16.2-55.8 32.6l-1-.3q-.4-5 .1-10 .7-.3.4-1c2.9 0 17-10.2 20.2-12.3q1-.2 1.7-.6a50 50 0 0 1 7.4-4.8q.7-.4 1-1.3 2.1 0 3-2 1.5.1 2-1.1c.8 0 4.3-.7 2.6-1.9a3 3 0 0 0-2.6 1.9q-1.4 0-2 1.2a3 3 0 0 0-3 1.9q-1.2-.1-2 .4l-9 5.2-.8.9q-8.7 4.5-17 9.7l-1-.2a75 75 0 0 1 3-23.2c4-1.8 32.2-21.1 38.2-25.2q3-1.7 6-3.8 1-.6 1.5-1.7c1.4 0 4.7-1.7 5-3.1 1.1-.2 3-.1 3.1-1.6-1-1-2.6.6-3 1.6-1.8-.2-4.3 1.6-5.1 3.1a3 3 0 0 0-1.9.4l-7 4-1.5 1.3-34.5 19.5c-.5-4.1 2.5-9.3 3-13.4l1.3-.2 39.3-26.5q1.4-.9 2.2-2.1 2.2 0 3.1-2l.8-.6q-.6 0-.8.5-2.2 0-3 2.1c-3.1.1-9.5 5-12.5 6.7a987 987 0 0 0-27.2 15.5c.9-4.4 5.6-12.3 7.9-16.5q.8 0 .6-.9 1.2 0 2.3-.6 15.5-10.5 30.8-21.2c1-.9 4.3-1.3 4.1-3 1 .3 4-1 2.6-2a3 3 0 0 0-2.6 2q-2.7.6-4.7 2.5-13.8 7.5-27.4 15.4l-.5.1c8.8-17.5 42-44.6 61-50.4q1 0 1.9.5c-4.7 3.3-9.1 7.5-13.8 10.7a1 1 0 0 0-.2 1q-2.1-.3-3 1.7c1 1 2.5-1 3-1.7q5.3-2.6 10.5-5.6a506 506 0 0 0 22-13.1q1-.2 1.2-1.1c5-.9 13.5-1 13.7-7.6C236 39.4 235.4 14 252.5 13c4-.3 15.2 2 16.6 6.3ZM268 34q-2.2-.3-3 2-2.4-.1-4 1.9-2.2 0-3 2.2-1.5-.4-2 .8c-1.7.1-4.4 1.6-5 3.2a2 2 0 0 0-2.1.8c-1.4.1-4.5 1.7-4.8 3.1q-1.5-.3-2 1-1.2 0-2.3.4-2.2 1.5.5 1.2 1.2-.5 1.7-1.6 1.4.2 2-1c1.7 0 4.2-1.5 4.9-3q1.4.1 2-1c1.6-.1 4.5-1.5 5-3.1q1.5.4 2-.8 2.2-.1 3.1-2.2.8.2 1.4 0c.7-1.1 2.7-.6 2.7-2a4 4 0 0 0 3-2c.5.3 2.7-.3 1.4-1q-1 0-1.4 1Zm-28.3 1c.2 0 2-.4 1-.9q-.7.3-1 1Zm-66.8 80q.3 1.1 1.1.4-.3-.7-1-.4Zm207.3 80.8c-1.6 0-4.7 1.5-5 3.2-1.8-.2-4.2 1.4-5.1 3q-1.5-.5-2 1-.6 0-.9.3.6.3.8-.3 1.5.3 2-1c2 .1 4-1.7 5.2-3a8 8 0 0 0 5-3.2c1.5.3 4.3-1.4 5-2.7.4-2.4-5 1.7-5 2.7ZM311.7 255q.9-.1 1.3-.7-.9-.3-1.3.7Zm80.2 7c.2 0 2-.5.9-1q-.8.2-1 1Zm-184.1 18q.8 0 1.2-.7-.9-.3-1.2.6ZM148 291.8q-2 .3-3 2-1-.2-1.7.5 1.2 1 1.7-.5 2.2 0 3-2 .7.2 1.5 0 .7-.6 0-1-1.2 0-1.5 1ZM298 315q-3 .5-5.1 2.6-1.5 1 .4 1.4c1.4-1.4 3.8-2.2 4.8-4 .5.1 2.5-.5 1.4-1.2q-1 0-1.4 1.2Zm66 1.6c-1.1.2-1.3 1.6 0 1.4l4.7-3.6c-.8-1.1-4 1.4-4.7 2.2Z"/><path fill="#fdbb00" fill-opacity=".5" d="M145 294q-.6 1.3-1.7.4.7-.6 1.7-.5"/><path fill="#ffbd00" fill-opacity=".4" d="M281.8 283.1q.6-2 2.8-2.1c1.6 1-2.4 1.8-2.8 2.1"/><path fill="#ffbd00" fill-opacity=".2" stroke="#ffbd00" stroke-opacity=".2" stroke-width=".5" d="M157 231a9 9 0 0 1-5 3.3c.6-1.9 3.1-3.4 5-3.3Z"/><path fill="#ffbc00" fill-opacity=".5" d="M188 164q.4-1 1.6-1c1.2.7-1.2 1.2-1.7 1m-35 6.9a3 3 0 0 1 2.6-1.9c1.7 1.3-1.8 2-2.6 1.9m32 57q.3-1 1.5-1 .8.4 0 1-.7.2-1.6 0m129.3-84.8q-.7 1-1.7 1.6-2.6.3-.5-1.2a5 5 0 0 1 2.2-.4m26.8 12c0 .8-1.2 1.5-1.7.6q.6-.9 1.7-.7m-1 51.8c-.3 1.3-1.6 2.3-3 1.6.3-1.3 2-1.4 3-1.6m-192 85q.4-1 1.7-1 .6.4-.1 1-.7.2-1.5 0"/><path fill="#ffbc00" fill-opacity=".4" stroke="#ffbc00" stroke-opacity=".4" stroke-width=".5" d="M319 140q-.9 2-3 2 .9-2 3-2Zm32 8.9c-.6 1.8-3.3 3-5 3.2.8-1.8 3.1-3 5-3.2Zm-6 55a4 4 0 0 1-3 2.2 3 3 0 0 1 3-2.2Z"/><path fill="#ffbc00" fill-opacity=".4" d="M259 128.9c0 .9-1.3 1.7-2 .8a2 2 0 0 1 2-.8m57 13q-.6 1.2-1.9 1.2.5-1.3 1.9-1.2M188 164q-.9 2-3 2a3 3 0 0 1 3-2m171 8q-.5 1.3-2 1 .5-1.4 2-1m-158 1a4 4 0 0 1-3 2 3 3 0 0 1 3-2m141 33c0 1.2-1.4 1-2.1.9a2 2 0 0 1 2.2-.8"/><path fill="#ffbd00" fill-opacity=".3" stroke="#ffbd00" stroke-opacity=".3" stroke-width=".5" d="M171 117q-1 2-3.2 2.1.9-2 3.1-2Zm123 24q-.6 1.3-2.1 1c-.1-1.1 1.3-1.1 2.1-1Zm16 19c-.7 1.4-3.6 3.3-5.2 3 1-1.6 3.3-2.9 5.1-3Zm-.1 28q-.5 1.3-2 1 .4-1.5 2-1Zm70 8a8 8 0 0 1-5 3.1c.4-1.7 3.5-3.1 5-3.2Z"/><path fill="#fb0" fill-opacity=".4" d="M172.8 115q.8-.1 1.1.5-.8.7-1-.4M305 163q-.8 1.8-3 2 .9-2 3-2m59 6c-.6 1.6-3.2 3-4.9 3 1-1.4 3.2-3.2 5-3m7.3 92.9c-.7 1-4.3 4.1-5.1 2.8 1.2-1.3 3.1-2.8 5.1-2.8"/><path fill="#ffbc00" fill-opacity=".5" d="M256 40.9c-.6 1.6-3.5 3-5 3.2.6-1.6 3.3-3.1 5-3.2m-7.1 4a6 6 0 0 1-4.8 3.1c.3-1.4 3.4-3 4.8-3M152 262q.6-1 1.6-1c1.2.8-1 1.3-1.6 1M261 37.9q-.9 2-3 2.2a3 3 0 0 1 3-2.2m83 115q-.9 2.2-3 2.1a4 4 0 0 1 3-2m-179 73q.3-1.1 1.6-1c1.3.8-1 1.3-1.6 1m-13 36q-.8 2-3 2 .9-1.8 3-2m-4 30q-.8 2-3 2a4 4 0 0 1 3-2M268 34a4 4 0 0 1-3 2q.8-2.3 3-2m-26 15q-.6 1.1-1.7 1.6-2.7.3-.5-1.2 1-.4 2.3-.4m-7 53c-.5 1-2 3-3 1.6q1.1-1.5 3-1.5m-63 31c.4-1 2-2.7 3-1.6-.1 1.5-2 1.4-3 1.6m117 11c0 .9-1.3 1.6-1.8.7q.6-.9 1.8-.6m-88 29q.5-1 1.5-1c1.1.7-1 1.2-1.5 1m156 0c-.6.9-2 3-3 1.7.3-1.2 2-1.5 3-1.6m-52 18c0 .9-1.3 1.6-1.8.7q.6-.9 1.8-.7m65 11q-.6 1.5-2 1.1.5-1.5 2-1m-162.3 78q.3-.9 1.2-.6-.4.6-1.2.6m-4.8 3q.9-1.7 2.7-2c1.4 1.2-2 1.6-2.7 2m149.9 12.2q.7-1.9 2.6-2.1c1.5 1.1-2 1.7-2.6 2.1"/><path fill="#ffba00" fill-opacity=".2" stroke="#ffba00" stroke-opacity=".2" stroke-width=".5" d="M239.6 35.1q.3-.6 1-.9c1 .6-.8 1-1 1Z"/><path fill="#ffbc00" fill-opacity=".5" d="M268 34q.4-1 1.5-1.1c1.3.7-.9 1.3-1.4 1m-10 6q-.8 1.1-2 .9.5-1 2-.8m-7 4q-.7 1.1-2.1 1a2 2 0 0 1 2-1m-7 4q-.5 1.2-2 1 .6-1.3 2-1m-53.6 31c-.6.6-2 2.7-3 1.7q.8-2 3-1.7m158 171c-.6 1-4.4 4.2-5.3 2.8 1.4-1.3 3.2-2.8 5.2-2.9"/><path fill="#f4ae00" stroke="#f4ae00" stroke-width=".5" d="M227 295a19 19 0 0 1 1 5.1c-1.4.2.4 1.5-1.1 2.3q-13.1 8.7-25.9 17.6h-17c3.9-2.7 36-20.8 43-25Zm45 25h-8q.3-.9 1-1.3 17.5-9.5 34.3-20 1.3-1 2.5 0 0 .6-.6 1c-9 6.2-21.4 13.2-29.2 20.3Zm-97-21-.4 1-1.1 1.1.6 1.2c-4.8 3.1-11.1 6.2-16.3 9.2a183 183 0 0 1-11 7q-1 .6-.8 1.6h-7c1.3-2.2 31.2-18.4 36-21.1Zm79.3 1.4 1 .6c-5 4.7-23.2 12.5-26.4 19.1h-11q.4-.9 1.2-1.3 16.6-9.3 32.8-19 1.5-1 2.4.6ZM156.8 329l-45.2 26q3-8 4.7-16.4 4.1-2.9 7.7-6.2 1.1-.9-.1-1.3 1.2-1.5 3-2.5 14.2-.4 28.5-.3 1-.2 1.4.6Zm29.2.1-3 1.9c-1.9 1.5-7.1 4-8 6a2 2 0 0 0-2 1q-2 .2-3 1.7c1 1 3.2-.1 3-1.7q1.5.3 2-1c1.6.2 5.4-3 7-3.5q1-.3.8-1.2a9 9 0 0 0 3.3-1.2l3-1.8 1-.7 22.2-.3q1 0 1.5.6l-37.7 25.6q-.8.5-.9 1.3a10 10 0 0 0-5.3 3.1c-.9.3-2.6.6-2.8 1.7 1 1.2 2.7-.6 2.8-1.7 1.7.5 4.6-1.6 5.3-3.1 4.3-.2 38.5-21.5 45-25.2q.9-.6.9-1.7c15.3-1 30.8-.5 46.1-.4q.6.2.8.8-17.3 11.4-34.4 23-.8.5-1.4 1.4c-1 .7-3.3.4-3 2.2q-1.5 1.2 0 0a5 5 0 0 0 3.7-1.8l41.2-23.7q.7-.4.7-1.3c3.3-.6 23-1.6 24.6.1l-1.8.8-11.6 7.6q-.7.4-1 1.2-3 .6-5 3.2-2.1-.2-3 1.6c1 1 2.7-.5 3-1.6 2 .1 4.2-1.4 5-3.2a11 11 0 0 0 5-2q5.4-3.4 11-6.4.7-.4.8-1l2.3-.7q31.1-.4 62.3-.4.9-.3 1.4.6-18.7 12.4-37.3 25.2c-1.7 1.9-3.7 2.8-6 3.9l-.4.8c-1 .4-2.8.7-3.1 1.9 1.1 1.2 2.8-1 3.1-2q3-.9 5.8-2.5l44.8-25.8q1-.3 1-1.1c5.5-1.4 12.7-.6 18.3-.7q1 .7.9 2l.1 10.5q-1 0-2 .5-13.5 9-26.5 18.6-1.8 0-2.3 1.6c-1 .4-2.9.7-3.2 1.9.9 1 3.1-.6 3.2-1.9 2.2 0 2 0 3.7-1.5 5.6-3.5 24.2-13 27.8-16.7a55 55 0 0 0 8.4 17.6c-6.6 4.2-12.5 9.4-19.1 13.4q-.7.3-.9 1.1c-1 .5-2.8.8-3 2 1 1.1 2.7-1 3-2h2q9.4-5.9 19-11.2.8-.5.8-1.5c9 8.7 17.7 12.8 29.5 16.4q.4.1.3.6l-8.7 6.5q-.8.4-.8 1.3c-1 .3-2.9.6-3 1.9 1 1.2 2.5-1.1 3-1.9l1.8-.3q5.7-3.1 11-6.7l11.5 1.5q2 0 2.5 2-2 0-2.3 2c-1.4-1-5.2 2.4-5.6 3.2 1.1.8 5.4-2 5.6-3.2q2 0 3-1.6a16 16 0 0 1 6.6 8.4 74 74 0 0 1-8.5 7.2q-1.3 1.5.6 1.3.9-.4 1.6-1.2l1-.4 6.8-4.3c8.4 19.5-18 29-33.2 27.1l-11.6-.9.2-.7 8-7.6a2 2 0 0 0 .6-1.9l1.6.2a6 6 0 0 0 2.3-2.4c-.8-1-2.2.7-2.8 1.3l-1.2.5-15.9 9q-1 .6-.8 1.8-9.6.1-19.3-.2c.9-.6 1.2-2 2.4-1.8a7 7 0 0 0 3-3.1c.7-.1 3.6-.9 2.4-2q-1.8.2-2.5 2-2.4.2-4.2 1.7-2.4 1.3-4.5 3c-5 .8-13.3.6-18.6.3l7.3-5.7 1.9-2c.7-.2 3.8-1.2 2.7-2.3q-2.1.3-2.7 2.2c-2.6.1-9.3 5-12 6.2q-1.2.6-.8 1.7-29 .3-58.1-.2l.2-.7 21.5-15.9q1-.7 2.3-1 1.4-1-.3-1c-1.2 1.2-2.5.7-3.5 2.3-3.9 1.4-23.4 13.6-24 16.3q-20.1.5-40.2.3 0-1 .9-1.8l19-13 10.8-6.8c-.8-.6-1.4-1.9-2.4-1q-17.8 11.1-36.2 21.1-1 .4-1.1 1.5h-36q-.3-1.2.7-1.8c6.8-4.8 28-18.1 32.5-22.8 1.8.6 33.7-22.2 36.6-24.4.5-.5 4-1.1 2.8-2.2q-2.2 0-2.8 2.2H285c-12.3 8.3-26.3 15.5-39.3 22.9q-9.3 5.7-19 11l-1.6 1.5c-5.3 2.9-19.2 10.2-23 13.6l-18.3-.1c0-1 1.5-4 .7-4.6l-5.8 3.6q-.3.3-.3.7c-11.6.8-23-.8-34.7-.7l42.6-28.2c1.7-1 9.4-5.4 9.8-6.8q2.2-.1 3-2.1 1.4.2 2-1c.5-.2 4.2-1.1 2.6-2q-2.1 0-2.7 2-1.4-.2-1.8 1a3 3 0 0 0-3 2q-1.2-.1-2.1.4l-9 5.3-48.7 28.1a3 3 0 0 0-2 1.9 277 277 0 0 1-20.7 1.3 436 436 0 0 0 19.5-13l4.3-2.9q.8-.7 2-1l2.4-2.4q.8 0 1.4-.7 1-.5 1.6-1.2.8-.2 1.4-.8a3 3 0 0 0 1.4-1.3q.9 0 1.6-.4l1.1-1 4.8-3.2 1.2-.8 1.8-1.2 1.2-.8 1.8-1.2 1.2-.8 1.8-1.2 1.2-.8 1.8-1.3 4.1-2.7 2-1.4 1-.8 2-1.1 2.7-2.4q.8 0 1.4-.4l1.5-1.6q.8 0 1.5-.7l1.6-1.3a3 3 0 0 0 1.7-.5l6-4.2q.3-.3.5-.9 1 .1 2-.4 2-1.7-.5-1.3a3 3 0 0 0-1.5 1.7c-2.2-.3-6.8 3.9-9.1 4.6a10 10 0 0 1-4 2.4l-1.3.7-.7.6-4.3 2.3-.7.4-1.3.7-5 3-.9.5-1.1.7-12 6.8-.6.6q-.8 0-1.4.6l-1.8 1-1.2.8-.9.4-1 .9a40 40 0 0 0-7.1 4 34 34 0 0 0-5 2.7l-.8.5-1.2.8-5 2.8-.8.5-1.2.6q-1.9.9-3.5 2.4-.7 0-1.5.6l-5 2.8-.7.7q-.8 0-1.3.5l-5 2.9-.7.4q-.8.3-1.4.8l-3 1.7-.9.4-1 1q-1.5.6-2.4 1.6c-3 .2-15 1-16.7-.8Q92 416 103 409.5q.9-.4.7-1.3a9 9 0 0 0 5.2-3.1q1.2 0 1.8-.9c-.5-.9-1.7.1-1.8.9a8 8 0 0 0-5.2 3.1c-1.5-.2-2.3 1.3-3.8 1.6q-6 3.2-11.5 7-4.7 2.2-9.2 5-.7.2-1 1c-2.2.5-12.4-1.2-13.7-3.1q34.1-22.5 67.6-45.9 4.5-2.7 8.8-5.6.7-.5 1-1.2c.6-.2 4-1.1 2.6-2q-2 0-2.6 2h-1.5l-9.6 5.6q-.7.8-1.5 1.2l-71.1 40.8q-1 .4-1 1.3c-2.5-.7-6.3-5.4-6-8.2q.8.1 1.6-.4c13.5-9 28.2-20.4 42.2-27.8q.9-.4.7-1.4 2.2 0 3.1-2c.6.1 3-.4 1.7-1.2q-1.3 0-1.7 1.1-2.2.3-3.1 2.1c-1.4 0-3.6 1.8-4.7 2.6Q70.4 392 50 404c-2.1-12.6 4.9-19.5 16.2-23l-.1.6-3.5 4.8q.3.3.8.2l13.5-8.1q.9-.4 1-1.3c12.2-3.6 24.5-7.1 31.6-18.7.3 1.2 1.2.5 2 .2q24.6-14.2 49.3-28.7.4-.6.2-1.2c8-.9 16.2-.3 24.3-.5q.6 0 .8.7Zm149.8 5c.6-.3 4.3-1 2.8-2.2q-2.3 0-2.8 2.3Zm-110 24c.3 0 1.9-.4.8-1q-.8.3-.8 1ZM404 377.3c1.1-.6 9.5-3.9 7.7-5.5-1.1-.2-7.7 4.2-7.7 5.5Zm-176 15.6q-1.4 0-2 1.1-2.2 0-3 2-1-.1-2 .4a405 405 0 0 0-15.5 9.4c-2.2 1-10.3 4.9-11 6.9q-.5 1 0 1.7a537 537 0 0 0 27.5-17q.7-.5 1-1.4 2 0 3-2 1.4.3 2-1.1c.7.2 4-.9 2.6-2q-1.8.3-2.7 2Zm74.9-.8q.2 1 1 .4-.4-.6-1-.4ZM301 394q-2.2 0-3 2-1.5-.3-2 .8-2 1 .1 1 1.4-.5 1.8-1.8a3 3 0 0 0 3.1-2q.5-.2.6-.5-.4 0-.6.5Zm36 20q-2.2 0-3 2c-1.7-.2-7.3 2.5-5.5 4.8 1.8-1.4 4.3-2.6 5.5-4.7q2.2 0 3-2.1l2.1-.4q2-1.6-.5-1.3-1 .6-1.5 1.7Z"/><path fill="#f5b500" fill-opacity=".2" stroke="#f5b500" stroke-opacity=".2" stroke-width=".5" d="M334 416c-1.2 2.2-3.7 3.4-5.5 4.8-1.8-2.3 3.8-5 5.5-4.7Z"/><path fill="#f4ad00" fill-opacity=".4" stroke="#f4ad00" stroke-opacity=".4" stroke-width=".5" d="M99 376q.3-1.2 1.6-1c1.3.7-1.1 1.2-1.7 1Zm327.2 11.8c-.5.8-2 3.1-3 1.8.1-1.2 2-1.5 3-1.8Z"/><path fill="#f4ae00" fill-opacity=".5" d="M170 359c-.2 1-2 2.8-3 1.6.3-1 2-1.4 3-1.7m31 24q.5-2 2.6-2c1.6.9-2.1 1.8-2.7 2m136 31q.6-1.2 1.6-1.7 2.4-.2.5 1.3z"/><path fill="#f5ad00" fill-opacity=".3" d="M128 406q-.3 1-1.3.8zm178.2 15.2-.2.7-1 .2q0-1.1 1.2-.9m111 0-.2.7-1.1.2q.3-1 1.3-1"/><path fill="#483d1f" fill-opacity=".8" d="M366.8 430.6q3.2-1.2 6.5-.2l.7.5a36 36 0 0 0-5.6.2z"/><path fill="#5d4c1d" fill-opacity=".3" stroke="#5d4c1d" stroke-opacity=".3" stroke-width=".5" d="M393.2 200.2q1 1.2.8 2.8l-2-2.5q.5-.3 1.1-.3Z"/><path fill="none" d="M184.8 329.8q1 .2 1.3 1.3-1.5.9-3.3 1.2l.1-1.3z"/><path fill="#363024" fill-opacity=".5" d="M304.1 328.7q-1 .4-2.3.6-.7-.4-1.5-.4c.4-1.5 3-1 3.8-.2"/><path fill="#141414" fill-opacity=".1" stroke="#141414" stroke-opacity=".1" stroke-width=".5" d="M269 498.8q.6 0 1.1.3l-.4.6-1.8.5q.2-1.1 1.2-1.5Z"/><path fill="#2a2725" fill-opacity=".5" d="M223.9 59q-.1 1-1.2 1.2l-.8-.6a5 5 0 0 1 2-.5"/><path fill="#151413" fill-opacity=".3" d="M383.6 156.3q.9 0 1.7-.3l.4.8-.7.5q-1 0-1.4-1"/><path fill="#312d24" fill-opacity=".5" d="m118 282.3.4 1.1-.7.9c-.4-.5-1-2.2.3-2"/><path fill="#373222" fill-opacity=".4" d="M117.7 193q.3.7-.4 1-.2-.9.4-1"/><path fill="#262626" fill-opacity=".4" d="m125.7 147 .6.7-1.2.2q0-.6.6-.9"/><path fill="#54461c" fill-opacity=".3" stroke="#54461c" stroke-opacity=".3" stroke-width=".5" d="M136.7 124q.2.8-.6.8z"/><path fill="#6b4f18" fill-opacity=".9" d="m307.2 486.2-1 1q0-1 1-1"/><path fill="#302d25" fill-opacity=".5" d="m190.1 328.6-1 .7-2.4-.4q1.5-1.4 3.4-.3"/></svg>