<svg xmlns="http://www.w3.org/2000/svg" style="shape-rendering:geometricPrecision;text-rendering:geometricPrecision;image-rendering:optimizeQuality;fill-rule:evenodd;clip-rule:evenodd" viewBox="0 0 512 512"><path fill="#8ec348" fill-opacity=".8" d="M462.8 317.8v2a7 7 0 0 0-2.6 1 241 241 0 0 1-16.1 10q-1.2.6-2-.3.8-1.1 2.1-2 7.6-4.2 14.9-9a9 9 0 0 1 3.7-1.7"/><path fill="#3b87d1" fill-opacity=".2" stroke="#3b87d1" stroke-opacity=".2" stroke-width=".5" d="M79 235q-.2.9-1 1.3L59.2 248q.1-1.2-1-1.5l18.8-11q1-.4 2-.4Z"/><path fill="#b7e168" d="M346.3 270.9q-3.8.4-7.3-.2c2-1.7 5.7-3 7.3.2m26.7.4h-7q2.4-3.2 6-1.7 1 .6 1 1.7m23-.2h-7c1.4-2.2 6.5-3.3 7 0"/><path fill="#8cc246" fill-opacity=".7" d="M161.9 304q0-1.2-1.2-.9-3.7 2.5-7.5 4.3l.1-1.6 10.9-5.8q2-1.2 3.7-2.8 1 0 .9 1-1 .8-2 1.2-1.4 1-2.3 2.5z"/><path fill="#438de2" fill-opacity=".4" stroke="#438de2" stroke-opacity=".4" stroke-width=".5" d="M358 63q.7-1.2 1.8-1.8c1.4.6-.8 2-1.7 1.8ZM41 70q.4-1.4 1.6-1.8 2.2-.1.4 1.2zm294 56a3 3 0 0 1-3 2 3 3 0 0 1 3-2Zm-26 3c0 .8-1.2 1.7-1.8.7q.6-1 1.9-.7Zm-148 28c.5-1 4-4 5-2.7a8 8 0 0 1-5 2.7Zm78 51a3 3 0 0 1 2.6-2c1.5 1.3-1.7 2-2.6 2ZM30 252q-.5 1.3-2 1c0-1.1 1.3-1 2-1Z"/><path fill="#3b90da" fill-opacity=".2" stroke="#3b90da" stroke-opacity=".2" stroke-width=".5" d="M84 150a2 2 0 0 1-1 1.3l-10 6.4-3-.1q6-3.7 12-7 1-.6 2-.7Z"/><path fill="#80b93d" fill-opacity=".5" stroke="#80b93d" stroke-opacity=".5" stroke-width=".5" d="M494 252c.3-.8 1.2-2.2 2.2-1.5q-.4 1.7-2.3 1.4Zm-357.3 18q.6-1.2 1.8-1.8 2 0 .4 1.2-1 .5-2.2.6ZM488 291a4 4 0 0 1-3 1.9q.7-2 3-2Zm-29 139.7c0 .9-1.3 1.9-2 .9q.8-1 2-.9Zm-336 35.1c0-1.3 4.2-3.5 4.8-2.5-1.2 1.3-3.2 2-4.9 2.6Zm115.3 6.1-.4.9-1.2.1q.4-1 1.6-1Zm64.9 0-.3.9-1.4.2q.6-1 1.6-1.1Z"/><path fill="#3e8cd9" fill-opacity=".2" stroke="#3e8cd9" stroke-opacity=".2" stroke-width=".5" d="M191 220q-.1.8-1 1.4-5.3 3.1-10.4 6.6-.9.6-1.8.6-.2-.7-.9-1c3.2-1.5 11.2-7 14-7.6Z"/><path fill="#438de2" fill-opacity=".4" stroke="#438de2" stroke-opacity=".4" stroke-width=".5" d="m276 38 1.2-.2q-.4 1.2-1.6 1.2zm-136 95q-.9 1.8-3 2a3 3 0 0 1 3-2Zm219.8 94q0 1-1 .8zM126 232q-.5.9-1.2.4.5-.4 1.2-.4Zm179.7 25.1q.8-1.8 2.8-2c1.1 1-2 2-2.8 2Zm-250.8 5c-.6 1-5.5 4-7 3.9.6-1.4 5.6-4.4 7-4Z"/><path fill="#96c94e" d="M264.1 278q.3.6 1 .7a148 148 0 0 0-11 7c-1.4 1-2.8-.2-1.2-1.1 2.2-1.3 9.4-6.6 11.2-6.7"/><path fill="#b3de65" d="M201.9 446q3.1-.2 6.3 0c-1.2 2.5-5 2.7-6.3 0m51-.3h7.1c-1.7 2.6-5.6 3.1-7 0"/><path fill="#448de2" fill-opacity=".3" stroke="#448de2" stroke-opacity=".3" stroke-width=".5" d="m10 42.7-.1 1.2-.7.3q0-1 .8-1.5Zm229 165.2a6 6 0 0 1-5 3q1.8-2.4 5-3Zm121 21.7-1 .4q0-1 1-.4Zm-274 1.3c-.5 1.5-5.5 4-7 4.1.5-1.4 5.6-4.3 7-4.1ZM343 265v.7l-1.2.5q.1-1.1 1.3-1.2Z"/><path fill="#7bae3b" fill-opacity=".2" stroke="#7bae3b" stroke-opacity=".2" stroke-width=".5" d="M372.7 260q.4 1 1.4 1.3l-9.1 5.2q-1.1.3-2.2.2 4.8-3.6 10-6.6Z"/><path fill="#438de2" fill-opacity=".3" stroke="#438de2" stroke-opacity=".3" stroke-width=".5" d="M353 162c-.5 1.6-3.3 2.8-5 3 .5-1.5 3.3-3 5-3Zm-29 53 .2.8c-.7 1-4 4.1-5 2.9.3-1 3.8-3 4.7-3.7Zm-131 4c.1 1.2-1.4 1-2 1q.5-1.3 2-1ZM25 255q-.5 1.2-2 1 .8-1.2 2-1Z"/><path fill="#438de2" fill-opacity=".5" stroke="#438de2" stroke-opacity=".5" stroke-width=".5" d="M358 63c-.8 1.3-6 5-6.9 3.7 1.7-1.3 4.8-3.5 7-3.7Zm-26 65c0 .8-1.3 1.6-1.9.7q.7-.8 2-.8Zm-139 91q.5-2 2.6-2c1.1 1-2 1.8-2.6 2ZM58 260q.6-1 1.5-1c1.2.7-1 1.2-1.5 1Z"/><path fill="#b3dc6a" fill-opacity=".2" d="M281 422q-.3.8-1 1.4l-8.6 5.5q-.6-.9-1.7-1l9.3-5.4a4 4 0 0 1 2-.5"/><path fill="#97c34f" fill-opacity=".2" stroke="#97c34f" stroke-opacity=".2" stroke-width=".5" d="M373.7 291.2q.3 1 1.4 1.1-4.7 2.4-9.2 5.2-.7.5-1.6.2 0-.6.7-1 4.5-2.5 8.7-5.5Z"/><path fill="#3f93e6" fill-opacity=".3" stroke="#3f93e6" stroke-opacity=".3" stroke-width=".5" d="M137 135q-.3.9-1 1.2l-9 5.8q-.3-.6-1-.9c1-1.7 7.6-4.5 9.5-6q.8-.3 1.5 0Z"/><path fill="#3d8ada" fill-opacity=".2" stroke="#3d8ada" stroke-opacity=".2" stroke-width=".5" d="M221.4 129.7q.6.5.6 1.2c-2.3 1.1-7.8 5.2-10 5.1.8-2 7.2-5.2 9.4-6.3Z"/><path fill="#80b93d" fill-opacity=".5" stroke="#80b93d" stroke-opacity=".5" stroke-width=".5" d="M492 253c-.4 1-4.4 4.2-5 2.7a9 9 0 0 1 5-2.6Zm-7 40c-.1.7-1.4 1.6-2 .7a2 2 0 0 1 2-.7Zm-359 82q.4-1 1.6-1.1c1.1.8-1 1.3-1.6 1.2Zm68 85q-.6 2.2-3 2 .9-2 3-2Z"/><path fill="#376397" fill-opacity=".7" d="M214.4 30.8a12 12 0 0 1-5.6-.1c.6-1 5-1.2 5.6.1m34-.1q-3 .6-5.8 0 1.3-1 2.9-.8c.8.2 2.4-.2 2.8.8m29 0q-3 .6-5.7 0c1.4-1.1 4.3-1.2 5.7 0"/><path fill="#81b93d" fill-opacity=".4" stroke="#81b93d" stroke-opacity=".4" stroke-width=".5" d="m119 360 1.2.3-1.4.8zm366.6 69.1q.7-2 3-2.2c1.2 1.4-2.2 1.9-3 2.2ZM191.1 462c-.7 1.3-3.6 2.8-5 3 .4-1.4 3.5-3.2 5-3Zm-68 4q-.5 1.4-1.8.8c-.2-.9 1.1-1 1.7-.9Z"/><path fill="#afd565" d="M161.2 285.7a20 20 0 0 1-7 6.9q-.5-1.5.5-2.5 2.8-2.2 5.2-4.9c.7-.3 1.5-.5 1.3.5"/><path fill="#3b72b1" fill-opacity=".9" d="M93.9 276c-2.7 1-4.1 2.3-6.6 0q.1-1 1.2-.8c1.2.3 5-.8 5.4.7"/><path fill="#3f98e7" fill-opacity=".2" stroke="#3f98e7" stroke-opacity=".2" stroke-width=".5" d="M359.9 156.6q1.1.5 1.3 1.7-3.4 1.5-6.9 3.5-.7.2-1.4.1c1-2 5.4-3.5 7-5.3Z"/><path fill="#b3d1f3" d="M117 208h4c-.2 1.6-3.3 1.4-4 0m31 0h4q0 .6-.6.9-2 .7-3.4-.8m61 0h4q0 .6-.6 1-2 .5-3.4-1"/><path fill="#3d86d3" fill-opacity=".8" d="M193.1 109.3q0 .3-.3.5-2.3 1.5-4.4 3.3-1.5.3-2.6 1.2-1.2-.3-.5-1.4c1.6-.8 6.1-4.3 7.8-3.6"/><path fill="#e4eef9" fill-opacity=".9" d="m159 157.7 2.1.4 1.8 2q-3.6.2-7.1-.3 1.4-1.5 3.2-2.1"/><path fill="#2f7ebb" fill-opacity=".1" stroke="#2f7ebb" stroke-opacity=".1" stroke-width=".5" d="M329.7 211q0 1.2 1 1.6c-1.1.6-5.3 3.5-6.5 3.2q0-.5-.3-.8z"/><path fill="#80aa45" fill-opacity=".1" stroke="#80aa45" stroke-opacity=".1" stroke-width=".5" d="M284.7 437.1c.5 1.4-2 1.9-2.7 2.4l-1.2 1.5-2.7-.3c0-.8 4.2-2.5 4.9-3.3q.7-.4 1.7-.3Z"/><path fill="#a9d260" d="M281 446h6c-1.1 2.9-4.7 2.8-6 0"/><path fill="#b3de75" d="M200.8 268.8h2.1q.8.9 1.4 2.1-3.3.4-6.6 0 1-1.8 3.1-2.1"/><path fill="#3b71af" fill-opacity=".8" d="M33.8 31.1c0 1-5 .6-5.7.8l.2-.8a4 4 0 0 1 4.2-.9q.9.1 1.3.9"/><path fill="#3b6da7" fill-opacity=".7" d="M151.3 30.8q-2.7.3-5.6 0c.5-1.2 5.3-1.3 5.6 0m153-.1a14 14 0 0 1-5.7 0c1.3-1.2 4.4-1.2 5.7 0"/><path fill="#b8e269" fill-opacity=".9" d="M238.5 445.9c-.5 1.4-4 1.8-5.3 2.6a5 5 0 0 0-1.9-2q.9-1 2.1-.8 2.6 0 5 .2"/><path fill="#4b93cc" fill-opacity=".8" d="m295 262 1.2.2q-1.6 1.2-3.4 1.7l-.8.1q.9-2 3-2m-3 2-.3 1q-1 1.2-2.4 1.3.2-2.4 2.7-2.3m-2.7 2.3q-.6.8-1.6.9.4-1 1.6-.9"/><path fill="#81b83c" fill-opacity=".3" stroke="#81b83c" stroke-opacity=".3" stroke-width=".5" d="m147.7 245.9.6.8-1.5.3zm36.3 220c-.4 1.7-3.3 3-4.7 3.3-.6-1.6 3.4-3 4.7-3.2Zm282.2 6.3-.2.7-1 .3q0-1.2 1.2-1Z"/><path fill="#346bb3" fill-opacity=".1" stroke="#346bb3" stroke-opacity=".1" stroke-width=".5" d="M126 141.1q.7.3 1 .9l-4.7 2.7q0-1.2-1.2-1.2 2.3-1.4 4.8-2.4Z"/><path fill="#abd85e" d="M271.8 346q0-1 .3-2l4.4-2c1.2 1.2-3.4 4.2-4.7 4"/><path fill="#448ee2" fill-opacity=".3" stroke="#448ee2" stroke-opacity=".3" stroke-width=".5" d="m161 157 .1 1-2.1-.3q.8-.9 2-.7ZM48 266c-.3 1-4.3 4.2-5 2.7.4-1.2 3.7-2.8 5-2.7Z"/><path fill="#aad55f" d="M399 360v-2l4.4-1.9q.3.4-.1 1a5 5 0 0 1-4.3 3"/><path fill="#81b93d" fill-opacity=".4" stroke="#81b93d" stroke-opacity=".4" stroke-width=".5" d="M420 244h1.4q-.6 1-1.7 1zm74 8q-.5 1.3-2 1 .5-1.2 2-1ZM123 377c-.7 1.3-2.7 3-4 2.4 0-1.4 2.7-2.5 4-2.4Z"/><path fill="#ebf3fc" d="m195.1 160-3.1.4-3.2-.5c1-2 5.6-2.6 6.3 0"/><path fill="#9bc84a" fill-opacity=".2" stroke="#9bc84a" stroke-opacity=".2" stroke-width=".5" d="m405 291.4 1.1.8c-1.9.6-4 3.2-6.1 2.8l1-1.4z"/><path fill="#4b8ce3" fill-opacity=".2" stroke="#4b8ce3" stroke-opacity=".2" stroke-width=".5" d="M234 211c-.4 1.6-3.6 3-5 4q0-1-1.2-1.2c2-.7 4.1-3 6.1-2.8Z"/><path fill="#7da536" fill-opacity=".2" stroke="#7da536" stroke-opacity=".2" stroke-width=".5" d="M155.8 325a4 4 0 0 1-1.7 2.2q-.9 0-1.6.8l-1.2.9v-1.6q1.9-1.9 4.5-2.3Z"/><path fill="#88be43" fill-opacity=".8" d="m154 329.2-1.5-1.2a3 3 0 0 0 1.6-.8 4 4 0 0 0 1.7-2.2q.6-1.2 1.7-2 4-1.9 7.7-4.5.6-.5 1.3 0c1-2 3.8-2.6 5.4-4.1.7-.4 1.1.7.4 1.1q-9.3 6.6-18.4 13.6"/><path fill="#7db0eb" d="m270.8 186-.2-1.7a6 6 0 0 1 3.8-2.3q.1.6-.2 1a8 8 0 0 1-3.4 3"/><path fill="#3c72b0" fill-opacity=".8" d="M65.2 30.6q-2.3.8-4.4 0c1-.8 3.5-1 4.4 0m30-.2q-2.2.9-4.5.4c.8-1.5 3.3-.8 4.5-.4"/><path fill="#a0d054" fill-opacity=".3" stroke="#a0d054" stroke-opacity=".3" stroke-width=".5" d="M400 295c-1 1.6-3 3-5 3 .2-1.4 3.6-3.2 5-3Z"/><path fill="#83b941" fill-opacity=".9" d="M154.8 309.5q-1.2 2.7-3.7 4.5v-2.4a18 18 0 0 0 3.7-2"/><path fill="#adc5e0" d="M283.3 158.7q-3 1-6.3 1.4c.3-1.3 5.5-3.4 6.3-1.4"/><path fill="#91969b" d="M215 207.1q-.7.9-2 .9h-4l-1.3-.3c1.5-.7 5.6-.8 7.4-.6"/><path fill="#468fe0" stroke="#468fe0" stroke-width=".5" d="M105 165c3.3 0 9.1-.6 12.1.3v.6l-3.7 2.8q-5.7 2.8-11.3 6l-2.8 2q-3 1.3-6 3.1-.7.4-1.7.4c-.5-1 1-2 1.5-2.7l9.6-9.3q1.5-1.4 2.4-3.2Zm58.2 79q-1 1.2-2.5 2L136 260.3q-.7.6-1.6.1 6.4-6.5 12.5-13.4-.1 1.5 1.2 1.1.7-.3 1.3-.9l4-2.5 1.8-1q4-.7 8 .3Z"/><path fill="#80b83d" fill-opacity=".4" stroke="#80b83d" stroke-opacity=".4" stroke-width=".5" d="M296 293q0 .6-.5.7-.2-.6.5-.6Zm-3 2.2q0-.8.7-1c.9.6-.3 1-.7 1Zm-172 2.7c-.4.7-1.1 2.3-2.1 1.6q.2-1.9 2-1.6Zm146 148.3 1.4-.2a2 2 0 0 1-1.7 1z"/><path fill="#438ee1" fill-opacity=".2" stroke="#438ee1" stroke-opacity=".2" stroke-width=".5" d="M41 70a7 7 0 0 1-3 3q0-1-1.2-1.2 1.9-1.6 4.3-1.8Z"/><path fill="#82b940" d="M154.1 327.2a3 3 0 0 1-1.6.8q.7-.7 1.6-.8m-1.6.8q.6.7 1.4 1.2l-2.7 1.7.1-2z"/><path fill="#80b93c" fill-opacity=".5" stroke="#80b93c" stroke-opacity=".5" stroke-width=".5" d="M121 298a3 3 0 0 1 2.6-2c1.4 1.2-2 1.7-2.6 2Zm39 171q-.6 1.3-2 1 .5-1.3 2-1Z"/><path fill="#c4dbf6" d="M84.9 208H88c-.1 1.5-3 1.5-3.2 0m84 0h3.3c-.3 1.4-3 1.5-3.3 0"/><path fill="#a4c8f1" d="M48.7 184v-2c3.7-1 3.5-1.5 1.3 1.6q-.6.4-1.3.4"/><path fill="#376fa9" d="m359.8 112.8-.5 1.9q-1.8.3-3.6 0l.7-1z"/><path fill="#7893b2" d="M314.7 201.3q-1.7.8-3.7.6 0-.5.6-.8c2.3-1.2 1.2-.7 3.1.2"/><path fill="#448de2" fill-opacity=".4" stroke="#448de2" stroke-opacity=".4" stroke-width=".5" d="M37.9 198.6v1.3l-1.1-.2zM58 260q-.9 1.8-3 2 .6-2.3 3-2Z"/><path fill="#5a7b34" fill-opacity=".5" stroke="#5a7b34" stroke-opacity=".5" stroke-width=".5" d="M247 275.3q1.7-.2 3.2.3-1.8 1-3.9 1.4.2-1 .8-1.7Z"/><path fill="#3a6da7" fill-opacity=".8" d="M367.8 49q1 0 1 1l.1 1.2a4 4 0 0 1-1-2.2m1.1 2.2h.7q.6 1.5.4 2.8a3 3 0 0 1-1-2.8"/><path fill="#a5d55a" fill-opacity=".7" d="M338 447h4q-1 1.2-2.7 1.7-.7-.6-1.6-.9z"/><path fill="#438de2" stroke="#438de2" stroke-width=".5" d="M183.2 37.3q-1.6 1.7-3.8 2.6L132 72.4q-.9.7-1 1.8c-5.3-1.5-20 1-26.8-.3v-.7q30.6-17.5 61-35.5 9-.5 18-.4Zm-113.4 87H97c-6.5 3.7-12 9-18.2 13q-1.5-.9-3.2 0l-60.6 35a133 133 0 0 1-.2-11.4q1.2 0 2.2-.6L68.2 126q1-.7 1.6-1.6Zm36 120.7q-1 6-1.1 12-.6.4-.7 1l-2 .7-18.8 11-17.5.3q0-.6.7-.8l34.9-21.5q1-1-.3-1.7c2-1.8 3 .4 4.8-1Z"/><path fill="#4082cb" fill-opacity=".6" d="M338.3 30.9q-3 .4-5.7-.3c.6-.9 5.4-1.2 5.7.3"/><path fill="#3a6ea9" fill-opacity=".7" d="M128.4 30.8q-3 .5-5.7-.1a6 6 0 0 1 3.8-.8 2 2 0 0 1 1.9.9"/><path fill="#81b93c" fill-opacity=".3" stroke="#81b93c" stroke-opacity=".3" stroke-width=".5" d="M493 288a4 4 0 0 1-3 2q.8-2 3-2Zm-374 57 1 .3q-.5.6-1.2.7z"/><path fill="#73aaeb" fill-opacity=".5" d="M56.3 166.6a3 3 0 0 0 1.8.4c-.2 1-2.2 2.5-3 1.6a4 4 0 0 0 1.2-2"/><path fill="#639fe6" fill-opacity=".6" d="m75.9 169 .8.2c.4 1.2-2.2 1.4-3 1.8q.2-2 2.1-2"/><path fill="#3b6ea9" fill-opacity=".8" d="M182.2 30.6q-2.3.8-4.5-.1a5 5 0 0 1 4.5 0"/><path fill="#b5d2f4" d="M186 208h4c0 1.5-3.9 1.5-4 0"/><path fill="#68a9e3" fill-opacity=".6" d="M58.7 165.4q1.5-.4 3.3-.4-1.2 1.4-3 1.8 0-.7-.3-1.5"/><path fill="#9bcf51" fill-opacity=".4" stroke="#9bcf51" stroke-opacity=".4" stroke-width=".5" d="M395 298q-.9 1.7-3 2 .8-2 3-2Z"/><path fill="#3166b1" fill-opacity=".2" stroke="#3166b1" stroke-opacity=".2" stroke-width=".5" d="M360.7 72.2c1 1.8-1.5 2-2.6 1.6z"/><path fill="#438ce1" stroke="#438ce1" stroke-width=".5" d="M358 52.1q1 .2 1.2 1.1c2 5 3.6 14 1.5 19l-2.6 1.6c-3.8 1-6-.2-9.6-.5-5 1.4-21.5 1-26 .7q-.6-.3-.5-.9a1747 1747 0 0 0 36-21Zm0 10.9c-2 .2-5.2 2.4-6.9 3.7.8 1.3 6-2.4 7-3.7.9.3 3-1.2 1.7-1.8q-1.2.6-1.7 1.8Zm2.7 151.6q.5 6.3 0 12.7l-1-.3-.9.8c-1 1.1-3 1.7-2.8 3.5l-3 3q-13 .3-26 .1a5 5 0 0 1 4-4.4q-.2 1.6 1.3 1.3 14.4-8.1 28.4-16.7Z"/><path fill="#416c60" fill-opacity=".1" stroke="#416c60" stroke-opacity=".1" stroke-width=".5" d="M363.6 252q0 1.2 1.1 1.7-.7.4-1.7.3 0-1.2.6-2Z"/><path fill="#80b93d" stroke="#80b93d" stroke-width=".5" d="M379.6 244.1q9.4-1 18.7-.2 0 .7-.7 1l-24.9 15.2q-5.1 3-9.9 6.6c-2 .9-5 1.5-4.8 4.2q-5.9.4-11.8 0c-1.5-3.1-5.1-1.9-7.2-.2q-2.1.5-4.3 0a24 24 0 0 0 7.1-4.4l1.2-.5c6.8-3.3 14-7.4 20-11.9q1 .2 1.7-.2l14.3-8.3q.8-.4.6-1.3Zm-6.5 31.3h7.8q-3 1.4-5.7 3.2c-1-1-3-.3-4.3-.7 1-1 2.3-.8 2.2-2.5ZM224.1 379q0-1.6.8-3.3.8-.1 1-.8 12.8-7.4 25.4-15.1 2.6-1.5 5.2-2.6.9.9-.2 1.6l-11.4 6.6zm118 68 21.6.2.1.5-3.2 1.3-38.8 22.4q-1 .6-.8 1.7c-4.6-.1-13.8.5-18-.2l.2-1q16-10 31.9-20.5 1.1-.7-.1-1.2 1.2-1.4 2.7-2.4.4 1.1 1.6.9 1.6-.5 2.7-1.7Z"/><path fill="#506b30" fill-opacity=".5" stroke="#506b30" stroke-opacity=".5" stroke-width=".5" d="M300 446.3q1.2-.2 2.2.4-1 .7-2 1z"/><path fill="#4b93cd" fill-opacity=".7" d="M290.8 250.8c.2 1.2-1.2 1.4-2 1q.6-1 2-1m-2 1q0 1-1 1 .2-.7 1-1"/><path fill="#c0d9f5" d="m58 207.8 3.2.3q-.2.5-.8.8-1.8.6-2.5-1.1"/><path fill="#5296e5" d="m327 181 .2 2c-3.2.5-2.3-1.7-.3-2"/><path fill="#82868a" d="m90.2 207.7-2 .3h-3.3l-2-.3c.5-1 6.8-1.1 7.3 0m33 0-2.2.3h-4l-1.2-.3c1-1 6.8-1.1 7.3 0m31 0-2.1.4q-2.1-.3-4.1 0l-1.3-.5c1.5-1 6.2-1 7.4 0"/><path fill="#bdd0e7" d="m321.2 205.7.9.3q-2.4 1.5-4.9 2.8c-.7.4-3.2.5-3-.9.7-1 5.5-1.4 7-2.2"/><path fill="#5499b5" d="M352 243.8h3c-.5 1-9.7 6.5-11.2 6.3 1-2.6 7.4-4.2 8.1-6.3M154 268q-.2.8-.8.5.3-.6.8-.5"/><path fill="#468dd7" fill-opacity=".7" d="M132 243.3q-.6.8-1.6 1.4l-7.8 4c-1.5-.5 1.5-3.9 1.5-5q4 .3 8-.4"/><path fill="#75a63a" fill-opacity=".4" d="M505.3 240.8c1.1.5.6 2.4.3 3.3q-.4-.6-.6-1.4z"/><path fill="#77ab3b" fill-opacity=".9" d="M507.3 471.8q-.1 1.5-1.3 2.2-.3-1.7 1.3-2.2M506 474l-.1.8-.7.4q0-.9.8-1.2"/><path fill="#4b92cc" fill-opacity=".7" d="m294.8 266.3.2.4q-.6 1.5-2 1.3.3-1.5 1.8-1.7"/><path fill="#80b73c" fill-opacity=".3" stroke="#80b73c" stroke-opacity=".3" stroke-width=".5" d="M150.8 292q.8 0 1.2.5-.9.8-1.2-.4ZM497 336l-.1 1h-.8q0-.7 1-1Z"/><path fill="#396699" fill-opacity=".6" d="M9.2 44.2q.4 0 .7-.3.3 1.3-.6 2.2-.2-1 0-1.9"/><path fill="#669896" fill-opacity=".2" stroke="#669896" stroke-opacity=".2" stroke-width=".5" d="M285.7 268.2q.4.8.6 1.7l-1-.1c-.2-.5-.5-1.6.3-1.6Z"/><path fill="#81ba3f" fill-opacity=".3" d="M497.1 360v.7l-1 .3q.2-.8 1-1m-324 87 1-.2q0 1.3-1.4 1.1z"/><path fill="#3c85d1" fill-opacity=".8" d="M284.1 89.3q-.1.7-.9 1 0-1 1-1m-.9 1q-.7.4-1.5.5.7-.6 1.5-.5"/><path fill="#9fce55" fill-opacity=".4" d="M392 300q-.5 1-1.8 1 .5-1.4 1.9-1"/><path fill="#70777f" d="M323 205.2q0 .8-1 .8l-.8-.3q.7-.8 1.8-.5"/><path fill="#448de0" fill-opacity=".2" stroke="#448de0" stroke-opacity=".2" stroke-width=".5" d="m28.3 31-.2 1-1.2.2q.2-1 1.4-1.1ZM193 109.4l.7-.5q.2 1.2-1 1z"/><path fill="#80b93d" stroke="#80b93d" stroke-width=".5" d="M500 237.9q3.7-.4 5.3 2.9l-.3 2a52 52 0 0 0-5-5Zm-376 5.7c.1 1.2-2.9 4.6-1.4 5.2q3.8-2.2 7.8-4.1 1-.6 1.7-1.4h18l-.3.5-1 1-1 1-1 1.2q-6.1 6.8-12.5 13.4.7.6 1.6-.1l24.8-14.3q1.5-.8 2.5-2c5.2-.6 12.7-.5 18 0a10 10 0 0 1-2.7 3q-.3.3-.2.8l-1.7.6q-1.3 1-2.1 2.6c-3 2-19.8 15.3-20.5 17a1 1 0 0 0-.8.5q.6.3.8-.5 1.2.3 2-.4c4.7-2.8 39-22 40-23.7q8.5-.6 17.2 0a4 4 0 0 1-1.2 1.5l-8.8 6c1.4 1.3 2.5-.4 3.6-1.2l9.5-5.4.7-1c4.8-.2 12.7-.6 17.1.1-5 5.5-26.2 18.6-33.3 24.9q-2.1.4-3 2.2c-.8 1.2-13.5.8-15.7 1.7.2-3.2-3.6-4.4-6-3l-5 2.9q0 1 1 1c-1.3.4-4 .2-4.8 1.2q-2.7 5.6-6 11c.1-1.1-.7-1-1.4-.6l-5.2 5q-1 .9-.5 2.4c-1.3.7-3.4 2.5-4.7.8-.5 2.4-3.8 3-5.7 3.9q-1.3-.6-1.6.7-1 0-1 1.2c-2.5-1-19.4 10.5-23 12.1q-.3-12.2-1-24.5c1.9-.3 19.5-15.5 19.6-16.7q1.2-.2 2.2-.6 1.5-1.4-.4-1.2-1.2.7-1.8 1.8c-6.9 3.1-13.3 7.2-19.8 11.1-.4-5.4-.8-10.3 0-15.5a2 2 0 0 0 1.6-.6l6-6.5c-1-1-2.4 1-3.5 1.2q-1 .3-1.4 1.5l-.7-.3q-1 .2-1.4 1.1h-.9c-.5-5.5-1.5-19.2 7.4-18.5Zm121 .3q9-.6 17.9-.1v1l-.8.1q-1 .3-1.5 1.3L228 268.7q-.7.4-.8 1.2l-23 1q-.4-1.2-1.3-2c5.8-3.7 39.9-22.3 42.2-25Zm32 0q9.2-.6 18.3 0-.2.6-.8.9-18 11.3-35.7 23.6-1.6 0-2.7 1.2l-23.1.4v-1l.7-.2q1.2.2 2.2-.4l39.8-23a3 3 0 0 0 1.4-1.5Zm26 0c5.5-.4 12.7-.6 18 0l-.7 1-24.2 15.7a2 2 0 0 0-1 1.4q-2.2 0-3.1 2-2.6 0-2.7 2.3-1.2-.1-1.6.9l-.5-.3q-1.2 0-1.5 1.3c-.9 0-.6 1-.5 1.6q-13.1.1-26.2-.1l-.2-.7c7.1-2 20.5-11 27.3-15q1-.2 1.1-1l.6-.1q1-.2 1-1.1c.8.4 2.2.2 2-1q1 .1 2.1-.4l8.8-5a3 3 0 0 0 1.4-1.6Zm32 0q8.4-.6 17-.1c-.8 2.1-7.1 3.6-8.2 6.3-1.6-.2-3.8 1.3-4.7 2.5.5 1 5-1.3 4.7-2.5 1.5.1 10.7-5.3 11.2-6.2q8.6-.6 17.3 0 0 .6-.7 1a13 13 0 0 0-4.4 2.8 2 2 0 0 0-1.4 1.1 128 128 0 0 0-22 14.2c-2.2-.2-10.5 6-12.6 7.7q-20.1 0-40.1-.7l-.2-.7a2 2 0 0 0 1.4-1.4l.6.1q1.5.1 2-1.3c2 0 39.8-22.1 40-22.8Zm67.7.2c4-.7 13.5-.9 17.3 0l-.3 1q-20 12.1-39.7 24.5-.6.5-.8 1.4-3 .3-6.2.3 0-1-1-1.7-3.6-1.5-6 1.7-4 0-8-.4c-.2-2.7 2.9-3.3 4.8-4.2l2.2-.2 9-5.2q13.8-8.2 27.7-16 .9-.3 1-1.2Zm24 0c5.8-.9 12.7-.6 18.6-.3-.6 2.9-39.1 22.3-41 26.8a61 61 0 0 1-8.3.5c-.5-3.3-5.6-2.2-7 0h-7.4l44.4-25.8q.6-.4.8-1.2Zm30 0q9.4-1 18.6-.2-.5.8-1.4 1.3l-38.2 24q-.4.3-.4.8-11.7 1-23.5.7 22.2-12.3 44.3-25.2.8-.6.6-1.5Zm31 0c11.4-2.3 9.3 10 9.2 17.2q-.8 0-1.5.5l-38.5 23.7q-1 .6-1 1.6c-5.7-6.2-3.5-14.7-13.2-16.2l44.3-25.5q.7-.4.7-1.3Zm6.2 7.8q-1.4 0-1.8 1.2a9 9 0 0 0-5 2.6c.5 1.4 4.5-1.7 5-2.6q1.5.1 1.8-1.2 1.8.3 2.3-1.4c-1-.7-1.9.7-2.3 1.4Zm-195.8 23.5c-17 9.9-35.5 20-52 30.4q-1.2.7-2-.2.7-1.4 2.1-2 19.5-13 38.6-26.2.8-.6 1.3-1.5c1.4-1 9.8-.3 12-.5Zm60 0c-6.5 3.7-47.1 25.4-49 28.5q-2 .4-4 0 19.4-13.3 39.1-26.2 1.3-.9 2.2-2 5.9-.4 11.6-.3Zm53.9.4-71.2 41q-2-1-3.6-2.7a287 287 0 0 0 27.1-16.4q.9.3 1.6-.2l9.2-5.2c2.8-2.4 26.5-14.4 26.6-16.2l4.8-.7q2.9-.1 5.5.4Zm-231 0q3-.6 6 .1-.6 1.2-1.7 1.7-5.5 3.4-11.4 6.2 0-1.2.9-1.7c1.3-.4 6-4.7 6.3-6.3Zm23.1 0q6.6-.5 13.2 0 0 .8-.7 1.1l-9 6.1q-.4.3-.4.8c-3 3.8-21.9 12.6-27.1 17-1.2.9-2.4-.3-1.1-1.3q11.7-10.2 23-21 1.5-1 2.1-2.8Zm62-.1q1.3-.3 2.7.1c-.1 1.1-2.8 2.3-3.7 3a1 1 0 0 1-1-.9zm166.6.4q3 0 4.2 2.6-1 0-2 .5L350.4 328q-.8.7-.8 1.8-.8-1.2-1.3-2.6c10.5-6 21.8-13.7 31.9-20.6 2.7-1.9 8.1-3 10-5.7q1.3.3 1.9-.9 2-.3 3-2c1.8 0 4-1.4 4.9-3 2 .4 4.2-2.2 6.1-2.8q12.7-7.6 25.6-14.8 1-.4 1-1.3Zm-190.8 3.8c-3.8.4-2.8 1.9-5.5 3.9-8.3 4.5-17.6 9.5-25.3 14.8-.7.1-3.4 1.6-3.8.8q14.5-10.2 28.6-21 3 1 5.7 0 .4.6.3 1.4Zm129-2c1.3.4 3.2-.3 4.3.7-14.7 8.8-29.8 16.9-44.1 26.1-.9.7-2.7.4-1.8-.8 13.4-9 27.9-17.3 41.6-26Zm69.4 7.4c.7.3 1.8 3.7 2 4.6q-.7.9-1.7 1.3l-60.7 35c-1.2 1-7 5.2-8.4 4.8-1.5-.9 2-2.3 2.4-2.8 22-13 43.2-27.2 64.8-40.8q1.2-.7 1.5-2.1Zm-289.5 6.8q.3 1.3 1.2.4-.4-.6-1.2-.4Zm-29.8 5.8q-2-.2-2.1 1.6c1 .7 1.7-1 2-1.6.7-.2 4.1-.7 2.7-2q-2 .3-2.6 2Zm19 3.2.7-.2q-.7 7.8-1.8 15.4c-1.5-.5-17.3 9.7-20 11-.2-3.4-1-8.4 0-11.5q10.7-7.2 21.2-14.7Zm321-.3c2.5.8 2.2 4 1.9 6.1a537 537 0 0 0-39.2 22.8q-2.2-.4-4-1.6c12-8.7 28.6-19 41.4-27.3Zm35.7 3q.4 5.7.2 11.6c-1.4-.8-17 10.8-19.8 11.9q0-6.2-.2-12.3c2.5-.3 17.5-9.2 19.8-11.3ZM303 311c-.8 2-5.8 6.4-7.4 8.2-.4.6-1.2 1-.3 1.6 1.9 0 14.4-8 16.8-9.5 2.5.2 8.7 2.5 10 4.5q-4.8 4.5-10.3 8.5c-.5.5-1.3 1-.4 1.6l4.5-2.3 9.2-5.6c5.4 1.6 15.2 19.8 15.7 25.9l-22 18.3c-1.7 1.3-.4 2.3 1.2 1.1q10.8-6.7 22.2-12.6c2.2 14.5.2 32.9-10.2 44.1a174 174 0 0 0-19 11c-2.6 1-12.5.2-14.4-1.8 1.5-2.5 9.8-8.2 10-9.7q-.2-.8-1-.4l-11.7 6.7a2 2 0 0 0-1.2 2c-1.6-.3-8-4.8-8.7-6.7q4.8-4 10-7.5c1.3-.8.4-2.3-1.2-1.4-2.8 2.5-6.3 3.8-9.4 5.9q-.7.6-1 1.7a32 32 0 0 1-3.7-4.8q-1.5-1.6-2-3.9 11-9.8 22.4-19.3c1.6-1.4.3-2.3-1.3-1.2q-12 7.4-24.2 13.8a63 63 0 0 1-4-33.3c1.4.2 6-2.8 4.8-4l-4.4 2c3-14.7 13.9-33.3 31-32.9Zm-164.4 9.6a245 245 0 0 0-1 14.6c-1.5-.3-15.3 8.6-17.6 10q-.6 0-1-.3-.6-5.7 0-11.3.8.2 1.6-.3zm358.4 2V334c-2.7-.2-18.3 11.2-22 13 .3-3.6.5-10.3 1.8-13.4 2.4.2 17-9.3 20.1-11Zm-34.3 7.5q.3 2.8.2 5.7c-6.2 2.3-14.9 8.2-21 11.5q-1.5.9-1.3 2.5-1-2.3-1.6-4.7c3.6-1.2 19-12.5 23.7-15Zm-281 6.9q-1 2-2.5 3.6-.6-.6-1.4-.3a541 541 0 0 1-26.5 18.5V354zm19.6.9q-.6 1.5-1.7 3-.5.5 0 .9c1.8-.6 4.2-1.5 4.7-3.5q1.2.3 1.9 1.4-4.4 3.8-9.3 6.6c-1.3.6-1 2 .3 1.4 2.5-1.7 9.2-4.9 10.9-6.6 11 9.3 10 35.6-6.8 38.2-18.5-1.3-22.4-42.8-.9-42q.6 0 .8.6Zm294.8-1h.8q.4 10.2 0 20.2-10 6-19.5 12.6l-1.5.6a85 85 0 0 1-.8-21.7q10.5-5.6 21-11.7Zm-358.4.7q.3 6.3 0 12.6c-2.9 1-14.3 7.7-17.5 10l-1.2-.2c-1-2.7 0-8-.2-11.1 2.4.7 15.7-9.8 19-11.3Zm287.3 8.1q-2.2 2-4.2 4.3-1.6 2.5 1.2 1.3 2.6-1.2 4.4-3.2c4.4 10.9 3 24.3-8.5 30-11 3.7-17-9.6-18.9-18.2a5 5 0 0 0 4.3-3q.5-.5 0-.9l-4.3 2q0-3.7.5-7.2c2.5-13.9 18.6-18 25.5-5Zm38 .4q.2 2.8 0 5.6L441 364q-.1-1.5.2-3 10.8-7.6 21.8-15Zm-291.9 13.5-1.1 1-16.8 9.8q0-1.5 1.3-2.4l14.5-8.4c.5-.2 2-1 2.1 0Zm2.6 0q.3 1.6 0 3.1c-2.4 1.6-21.7 15.3-22.4 15.1q-.2-2 0-4 1 .2 1.7-.5l15.7-10q1.2-.7 2-1.8 2-.1 3-1.8ZM496 361q.6 0 1-.3c1.2 1.8.4 8.2.7 10.5-2.7.4-18.2 11.8-21.7 14q-.3-6.7-.2-13.3c2.6-.1 16.7-9.2 20.2-10.9Zm-33 2q.4 2.5.1 4.9a237 237 0 0 0-28 16c-1.4 1-2.9-.3-1.2-1.3zm-286.6 10.2q.9 1.7 1.5 3.7-13.5 8.4-26.7 17-.4-2.4-.1-4.8l24-13.7a5 5 0 0 0 1.3-2.2Zm46.2 2.1c.3 1 1.7.6 2.3.4q-.7 1.6-.8 3.3l-60.6 40a2 2 0 0 0-.8 1.8L156 416a17 17 0 0 1 7.2-4.4c11.4-8.6 26.9-15.2 39-23.5 8.6-1 15.8-5.5 20.4-12.8Zm3.3-.4q-.3.6-1 .8.4-.6 1-.8ZM173.1 430c-1.3-.8-3.7-2.9-3.8-4.4q2.2-1 4-2.7c27.3-15.1 56.1-31.6 82.6-47.8 1.6-1 2.8.5 1.2 1.3-28.4 17.2-56 35.8-84 53.6Zm-35-47.3q.7 5.7.5 11.3l-11.2 6.7-10.5 5.6q-.2-5.4.4-10.7 10.5-6.1 20.9-12.9ZM151 407a4 4 0 0 1 0-2.8l2-.6a501 501 0 0 1 18.4-10.6q3.8-2.3 7.5-4.8c1.7-1.1 3 .4 1.2 1.3q-4.8 2.6-9.5 5.6-8.7 5.9-17.6 11.3-1 .6-2 .6Zm346.7-16.2c0 3.2.7 9.6-.6 12.4-2.1-.1-30.8 22-34.7 25-.7.5-3.7 1.4-3.2 2.6q-1.4 0-2.1.9c.7 1 2 0 2-.9 4.3-1.7 32.5-18.1 38.6-22.1q-.4 13.8-.6 27.7-1-.2-1.7.4l-14.1 12.5q1.2.5 2.2-.3 7-3.8 13.6-8l-1.6 31.2c-.4 1.6-3.4.6-4.6.6l-.2-1c.6-.7 2.3-3 .9-3.5l-5.8 3q-1 .7-.7 1.8-9.6 0-19-.2v-.7l5.6-5.5a1 1 0 0 0-1-.2q-5.1 2.6-10 5.6-.5.4-.5.9-9.3.4-18.6 0 12-11 24-21.3c-1-1-1.8 0-2.5.9q-16.7 9.3-33.2 18.9-1 .6-.8 1.6h-19.4l16-11.9q1.7-.6 3-1.5c-1.5-1.7-3.5 1-4.5 1.9q-9.4 5-18.6 10.5-.4.3-.3.8-9.3.5-18.7.2 17.7-13.4 35.7-26.3.9-.7.3-1.6l3.4-.2a5 5 0 0 0 4.5 2.8c1.8-.5 5.6-2.4 6.6-3.8 2-.4 8.4-.8 9.7-1.7a75 75 0 0 1 17.6-20.3c10.7-5.6 11-6.7 12-19 1 .6 7.4-3.2 7.5-4.6q1.2-.2 2.1-.8 6-3.3 11.6-6.8Zm-359.1 4.9q.5 5.7.2 11.5-11.6 6.3-23 13 0-5.7.6-11.2 1.2 0 2.3-.7 10-6.5 19.9-12.6ZM182 441a5 5 0 0 1-4.9-3.8q1.5 0 3-.8c22.5-13.1 47.4-25.8 68.8-40.2q1.2-.7 2.1.1c-.3 1.3-2 1.7-2.9 2.5-20.7 12.4-41.9 26.5-62.5 39.4q-2 1.2-3.6 2.8Zm102.7-3.9q-1-.1-1.7.3c-.7.8-5 2.5-5 3.3q-4 1-8 .3a3 3 0 0 1 1.3-1.2l50.7-29.3q1-.5 1.2-1.6l8.6-5c1.5-.6 3.2-3.3 4.9-2.7 1.9.4 2-1.2 3.8-1.3q.8 1-.3 1.7c-16 9.4-33.3 22-48.8 32a12 12 0 0 0-6.7 3.5Zm25 4q-5.9.4-11.7 0 .3-.9 1-1.3 30.7-17.5 61-35.5c1.6-1.2 2.8.2 1.2 1.3a2195 2195 0 0 0-46.1 31c-1.5 1.2-4.5 2.8-5.3 4.5Zm-30.3-36q1.8.3 2.5 2c-16 11.2-35.6 22.6-51 33.9a43 43 0 0 1-12 0q3-2.4 6.4-4.3 27.2-15.5 54-31.6Zm-140.6 4.7c.3 4.2-.4 6.8 2.3 10.4-2.6.5-22.4 12.6-26.2 14.8q0-5.7.9-11.2 11.7-6.7 23-14Zm198 31.2q-5.2.5-10.7 0 0-.5.5-.9 23.7-13 47-27.2 2.4.2.6 1.7-18.3 12.1-36.2 25-.8.5-1.2 1.4ZM146 422.6c2.9.7 10 2.7 10 6.5-2.4-.1-36 20.4-40.8 23.2q-.4-5.7-.3-11.4 1.2.4 2.3 0zm281 18.6q-7 .1-14-.2.2-.6.6-1 14.7-8.1 29.2-16.7 1.5 0 .3 1.2c-5.6 5.3-11.4 10.7-16.1 16.7Zm-67-.2q-3.4.5-6.7 0 0-.6.5-.8 11.7-6.3 23-13.3 1.5-.1 1 1.1c-2.5 1.7-17.3 11.2-17.8 13Zm125.6-12c.8-.3 4.2-.8 3-2.2q-2.2.2-3 2.2Zm-64.5 16.3c0 1-3.4 1.3-4.2 2L375 471.6q-.7.6-.8 1.5-9.2.2-18.5-.2l22-15c3.5-1.2 13.3-8.3 14.2-11.3q14.5-.8 29.2-1.3Zm-176.1.4h8c1.4 3 5.3 2.5 7 0q3.6-.1 7 .4l-.3.8-42.8 24.5q-.7.6-.7 1.6-10.1.3-20.2.2l2-.8 39.1-24.9q1-.7.9-1.8Zm93 1.2-.3.8q-1.6 1-2.7 2.4-1 0-1.7.6l-36.2 20.9q-.7.6-.8 1.3-17.8.3-35.5 0 0-.5.5-.8 15.4-9.4 30.6-19.2c3-1.7 5.8-2.6 8.3-5.2l2-1c11.9-.7 23.8.3 35.8.2Z"/><path fill="#5b9ea2" d="M343.8 250c.2 1.3-4.2 3.6-4.7 2.6.8-1.2 3.1-2.7 4.7-2.5"/><path fill="#262726" stroke="#262726" stroke-width=".5" d="m33.8 31.1 27-.6q2.1 1 4.4 0 12.8.6 25.5.3 2.3.5 4.5-.4c4.6.9 21.7.5 27.5.3q2.9.6 5.7 0 8.7.3 17.3 0 2.9.5 5.6.1c6 0 21.6.5 26.4-.3q2.3.9 4.5 0 13.3.5 26.6.2 2.7.7 5.6.1h28.2q3 .5 5.7-.1 11.7.2 23.4 0 2.8.6 5.7 0 10.5.3 21.2 0 3 .6 5.7 0c6.4.3 23 .4 28.3 0q2.9.6 5.7.2c7.4 0 12.8-.2 19.3 4q.6.9 1.3 1.4l1 1a30 30 0 0 1 8 11.7 4 4 0 0 0 1 2.2q0 1.7 1 2.9c11 41 4 90.1 2.3 132.4-.2 14.4-2 33 .9 47q.9 1 2.4.9c28 1 56-.3 84-1.3 13.3 0 28.4-1.8 40.5 4.8q2.7 2.3 5 4.8.1.8.6 1.4c3.8 7.6 4.4 16 5.2 24.3.5 31-.7 62-1 93.1-3.2 23.4 1.4 47.6 1.6 71q0 1 .6 1.5v10q-.7.6-.7 1.5.2 12.6-4 24.5-.3.9 0 1.8-1.5.4-1.3 2.2-1 .3-.8 1.2l-.5.9q-3 3-6.7 5.3-2.2.8-4.5.6c-102.3 1.6-204.6-.2-307 .4-23.8-3.6-49.5 6-72.3-1.6q-.5-.6-1.3-1c-1.3.3-5.1-4.3-5.9-5.3a12 12 0 0 1-2.3-7V277.6q0-.7-.6-1.2-5.1-1-10.2-.5c-.4-1.5-4.2-.4-5.4-.7q-1-.2-1.2.8c-6.2-1.3-15.3 1.2-21.8 1-9 .5-26.4 1.6-34.4-.7q-2-.4-4.1-.5l-.8.5q-.3-1.2-1.5-1c-11.3-4.6-19.1-10.9-22-23.3 2.3-35.7-.3-71-2-106.6v-7q.2-1-.7-1.4v-31q.7-.6.7-1.5C.7 91 3 78.5 4.2 65.2q.8-.5.8-1.4A308 308 0 0 1 9.3 46q.9-.9.6-2.1v-1.3l.2-.5a2 2 0 0 0 1-1q6.6-6.8 15.8-9 .6 0 1.1-.3c.9-.2 5.8.3 5.8-.8ZM46.7 38c-2.5-.9-10-.9-12.4 0-16-.8-20.3 17.7-20 30.2q-.2 1.8 0 3.6.6 2.5 3.2 2.3c5.1 0 11.9.4 16.8-.3l2.5.2c11.4-.6 23.1.8 34.6.1 7.8-1.4 15.5 1.2 23.2-.6 3.3.3 6 1 9.5.4 6.9 1.4 21.5-1.2 26.9.3q1.8.1 3.7-.1h12.7c5.4-1.4 9.5.2 14.7 0q3.2.4 6.5 0h6.8c6.5-1.5 12.1.7 18.6 0q1.9.3 3.8.1a62 62 0 0 0 12.6-.8 44 44 0 0 0 14.3.6q7.5.6 14.7-.6 5 1.2 10 .5c2.2.9 6.8.4 9.3.2q4.5.2 8.8-.7 7.5 1.2 14.8.5c1.9 1.3 4.5-.8 6.6-.6a97 97 0 0 0 21.4.6 9 9 0 0 0 8.2-1.6l3.5.8q-.1.6.5 1c4.5.2 21 .6 26-.8 3.5.3 5.9 1.5 9.6.5 1 .4 3.6.2 2.6-1.6 2-5 .4-14-1.5-19q-.2-1-1.2-1c-.2-2.1-2.7-6.1-5-6-.3-2.6-5.7-5.2-8-5.5q-.3-.6-1-.7c-2.6-.7-4.5-2.6-7-.9.6-1.5-2.7-1.6-3.5-1.8q-6.2-.6-12.5-.5l-16 .9c-1.5-1-17.1 0-20 .2a19 19 0 0 0-7.8-.1l-1.1.2c-5.1-.7-12.2-.7-17.4 0-3-.9-8.1-.4-11.4-.1-6.2-.5-12.4-.7-18.6.2q-1.4-.7-3.2-.7-5.2-.1-10.6.4-.7-.7-1.5-.5-9.3 0-18.4.5-6-.7-11.8-.5-9-.1-18.1.4c-1.2-.8-10.8-.4-12.9-.4a399 399 0 0 0-23 0h-18.4c-2.7 0-13.1-.7-15 .7.2-1-1.8-.6-2.3-.8l-14.7.1-12.5.1c-6.4.2-13.4-.5-19.6.6Zm-31 46v.6q-.9 1.5-.7 3.4a31 31 0 0 0 .3 10.1l-.4.9a2 2 0 0 0-.5 1.6l.8 13.7q.6.4 1.4.4c3.2 0 20.9.6 22.3-.3a123 123 0 0 0 14 .3h18c2.3 0 6 .3 8-.6 5 1 12.7.3 18 .6 2.4 0 8.1.5 10.1-.6q.3 1 1.5.8l16.5-.3q5 .2 10-.2 9.4.3 18.9.3c2.6 0 9 .5 11.1-.7q.3 1 1.5.9l21.3-.2q2.6.2 5.1-.5c5.2 1 12.6.3 18 .4l4-.2 18.9.3c2.9-.1 7.5.3 10.1-.4q9.5.4 18.9.5c3.1-.3 8.4.3 11.2-.6q9.3.5 18.8.5 3.6.2 7.2-.5c18.4 1 37.2.3 55.7.4q1.8.5 3.6 0 1.8.5 2.3-1.3 0-16.5-.9-33.2c.4-1.9-6.7-.7-7.8-.8q-8.4-.3-16.8 0c-3-.1-11.8-.9-14 .5-2.4-1.4-13-.6-16.3-.5-1.8.1-4.6-1-5.9.8.5-1.5-6-1.2-6.8-.3-3.4-1.3-13.3-.6-17.4-.5a303 303 0 0 0-27 0 24 24 0 0 0-5.4 0q-8.7-.3-17.2 0-5.6-.4-11.2 0-8.9-.3-17.8 0a94 94 0 0 0-9.3 0 5 5 0 0 0-3.8.5c-2-1.3-13-.6-15.8-.5a53 53 0 0 0-9.4 0q-9.3-.1-18.6 0-5-.4-10 0-8-.3-16 0c-3.7-.1-13-.7-16.1.3q-16.5-.8-33-.3c-4.5-.1-14.1-.6-18 .2-5-.7-11.8-.4-16.9-.2l-1.4.1q-2.2-.5-4.5-.2c-1.8.2-5.9-.6-7.4.3a8 8 0 0 0-1.2 4.4Zm-.8 50.3q-.2 3.3 0 6.7a488 488 0 0 0 0 20q-.3 5.6 0 11.4-.2 2.7 0 5.6-.3 5.6 0 11.2v4.5q-.2 5.7 0 11.3v19.3a17 17 0 0 0 .2 5.5 56 56 0 0 0-.4 11.4q-.8 3.9.1 7.8a23 23 0 0 0 11.3 16.3q1.4 1 3 .6 0 1 1.1 1.3 14 4.5 28.6 3.1c.5.5 2.2 1 2.3 0q2.2.2 4.6-.3l21.2-.3h1q8.1.1 16.1-.2c1.1-.7.5-9 .7-10.7V257q0-6 1-12 4.2-9.3 14.3-10.6 1.5.8 2.9-.3l47.1-.2 1-.1 23.2-.1q3.3.3 6.5 0 63.1.6 126.4.7a478 478 0 0 0 33.3-.5c1-.9.2-3.9.3-5.1v-1.5q.5-6.3 0-12.7.5-3.6 0-7.2l.3-17.3.2-31.8q1-1.2 0-2.3.6-5.3-.1-10.4.6-3.7.6-7.4c-.3-2 .5-10.3-.5-11.3 1.6-3.3-2.6-3.1-4.4-2v-.2a237 237 0 0 0-19.7-.4q-52.5-.2-105 .3a4 4 0 0 0-3.4.5q0-1-1.2-.8H15.7q-.8.3-.8 1.2zM99.3 157q2.1.6 4.4.2l52 2.6q3.6.5 7.2.3 12 .8 24 .6c1.2.2 4.3.8 5-.3l3.2-.4c8.9-.3 31.1-4.5 32.7 8.7 1 12.7 3.8 34.4-12.7 38.4-1.8-.2-5.9-.1-7.4.6q-8.3 0-16.5-.4c-1.7-.3-5-.8-6.4.4l-10.6-.3q-3.2-.8-6.4-.1-6.8.3-13.7.3c-1.2-1-6-1-7.4 0l-23.6.2c-.5-1.2-6.3-1.1-7.2-.1a647 647 0 0 0-25.7 0c-.5-1.1-6.8-1-7.2 0q-1.8 0-3.3.5c-1.6-1.3-6.4-.5-8.4-.2l-8-.7c-1.4-.3-4.3-.8-5.4.5q-4.4.4-8.8.4-2-.7-4.2-1c-2.8-2.4-4.5-4.7-7-7.3v-1.3c-.6-1.2-1-5-2-5.4l-.2-12.6q.3-1 .3-2.2c0-4.4.5-6.9 3.1-10.5l5.6-3.6q5.6-2.7 11.6-4.1c4.4-1 9.5-1 13.7-2.6l3 .1zm208-.3q.7.3 1.6.3c.6.7 16 3.4 18.3 4 .4 1.4 2.7 1.8 3.9 2-.4.4 6.8 5.9 6.6 8.7 5 15 .9 28-14.7 33.5q-1-.3-1.8.5c-1.5.8-6.3 1.2-7 2.2-11.6.6-39.3 3.7-48.4-4.3-10.6-10.3-11.4-33.8 4-40.4l7.2-3.1q3.1-.4 6.3-1.4c8-1.6 15.9-1.3 24-2ZM48.7 182v2q-1.5 6.8 1.1 13.2c1 2.6 3.5 4.8 6.4 3.7q-.2 1.2 1.2 1.1H83q8.4.3 16.9 0 8 .3 16 0h31a533 533 0 0 0 21 0 1757 1757 0 0 1 40 0c1.4-.2 6 .7 6.8-.7 1.5-8.2 5.2-32.8-5.6-36-3.8-.7-10.1-.4-14.1-.4q-8.5-.3-17 0-7.9-.5-15.9 0-8.6-.3-17.2 0h-9q-9-.2-17.8.3h-1c-3-.8-8.9-.2-12.1-.2l-21-.2-1 .4a436 436 0 0 0-25.7-.3c-.9-1-3.5-.6-4.7-.5q-3.8.3-4 4 .6 6.9 0 13.6Zm221.8 2.3.1 1.7c.8 9.8 7 15.8 17 14.3.6 1 5.9 1 7.1 1a59 59 0 0 0 20 0c10-2 12.7-8.7 12.4-18.3q0-1-.3-2c-.2-9.4-8.5-13.9-16.8-15a25 25 0 0 0-8-.6c-3.3-.9-22.1.2-25.2 1.1-5.3 3.6-7.8 12-6.3 17.8Zm-153.9 77.9q-.2 1.8.3 3.5c-.8 5.2-.4 10.1 0 15.5q0 2.9.3 5.6l1 24.5c.2.8-.7 4.6.6 4.5-1 3-.2 8.2 0 11.4q-.4 3.3.1 6.5-.5 5.6 0 11.3l-.2 1v3c.2 3-.7 8.4.2 11l-.1 1.1c-.8 1.3-.5 5-.6 6.7q-.5 11.7-.7 23.3-.6 2.2-.3 4.6-.6 5.4-.4 10.7l-.5 2.6q-.6 5.5-.5 11.2c0 .7-1 3.5-.1 3.6q-1 5.5-1 11.2v6q-.1 5.6.3 11.3 0 3.4 1.3 6.5c-.1 2 2.5 8.4 4.8 8 .1 3 6.7 4.7 8.9 5.7a20 20 0 0 0 5.7.5c2.9 1 13.2 1.7 15.7.3 2.6 1.7 15.7.5 19.4.6l1 .2q9.2 0 18.3-.4 6.5.3 12.8-.4l20.2-.2a162 162 0 0 0 14.8-.2c4.5.7 13.2 0 18.1.2h4.7a1401 1401 0 0 0 40.8 0l1.4-.2c4.2.7 13.4.1 18 .2h10.6q9.4.2 18.8 0 2.7.2 5.3-.1 9.3.4 18.5 0 6.3.3 12.4.1 9.4.3 18.7-.2 2.3.3 4.4.2l32-.1q9.2.4 18.5 0l4.7.2 1.1-.3a602 602 0 0 0 24 .3l.9-.4c1.2 0 4.2 1 4.6-.6l1.6-31.3v-4.5q0-14 .6-27.7c-.2-1.2.8-5.1-.6-5.5 1.3-2.8.6-9.2.5-12.4a8 8 0 0 0 0-2.7q.4-5.7 0-11.3v-5.6c-.2-2.3.6-8.7-.6-10.5l.1-.7a3 3 0 0 0-.2-2.8q.4-10 0-20.1l.1-1.1.1-2-.2-18.6q.1-6-.2-11.7.4-3.2.1-6.5.2-16.2-.1-32.3l.4-1-.2-2.6c.1-7.3 2.2-19.4-9.2-17.2-1.7-1.2-10-.4-12.4-.2q-9.2-.8-18.6.1c-2.1-1-8.8-.3-11.4-.2a95 95 0 0 0-18.5.3 8 8 0 0 0-5.4 0H420c-3.8-.9-13.3-.7-17.3 0q-2.1-.6-4.4-.2-9.3-.7-18.7.2c-1.5-1.1-5.4-.3-7.3-.2q-8.7-.6-17.3 0-1.5-.3-3-.1-8.6-.5-17 0a71 71 0 0 0-14 .1c-5.3-.6-12.5-.4-18 0q-2.6-.6-5.2.1-1.3-.3-2.5-.1-9.2-.6-18.2 0c-2.9-.3-7.3-1-9.8.8.2-1.5-2.3-1-3.1-1h-1.3q-9-.3-17.8.2a43 43 0 0 0-11 0c-4.4-.7-12.3-.3-17.1-.1h-3.8q-8.7-.4-17.3 0-5.6-.7-11 .3a7 7 0 0 0-3.6-.2c-5.4-.4-12.9-.5-18.1 0q-4-1-8-.2a8 8 0 0 0-5.1-.4h-18a29 29 0 0 1-8 .3c-8.9-.7-8 13-7.4 18.6Zm110.5 7.7h4.5l1.3.1 23-.4 3 .1q13.2.3 26.2.1l1.1.1q2 0 3.6.3l1.2-.2a881 881 0 0 0 43.6.8q2.1.3 4.3 0 3.6.5 7.3 0 5.8.6 11.7.1 4 .4 8 .4h7q3 0 6.2-.3h2.5q3.6.3 7.3.1h7a61 61 0 0 0 8.2-.5q3.9.4 7.6.1 11.8.3 23.5-.7 3.8.3 7.3 1c9.8 1.4 7.6 9.9 13.2 16 5.8 6.7 13.9 5.4 18 14.7 1.1 1 2.2 8 3 8l.1 5.3.2 12.3-.8 5.4q-.2 1 .6 1c-1.3 3.1-1.4 9.8-1.8 13.4q-.4.7 0 1.6a85 85 0 0 0 .8 21.7l-.1 1.5.2 13.3q0 2-.2 3.7.1 7 .6 14c-1 12.4-1.3 13.5-12 19q-10.7 8.7-17.6 20.4c-1.3.9-7.7 1.3-9.6 1.7q-5.7 0-11.2 1a23 23 0 0 0-5 .4l-29.1 1.2-26.6.5-1.6.1a714 714 0 0 0-25.7-.2c-12 .1-24-.9-35.8-.2q-.9-.8-2.1-.5a631 631 0 0 1-23.2-.4l-8.5.1-1.4.2q-3.4-.4-7-.4h-15q-3-.3-6-.2a789 789 0 0 0-37.1.4 904 904 0 0 0-27.7.8q-.6 0-1.1.3a1 1 0 0 0-.7-.8c-5.3-.8-10.4-10-13.5-14.3a4 4 0 0 0-3-3c0-3.7-7.1-5.7-10-6.4l-4.8-2.4c-2.7-3.6-2-6.2-2.3-10.4v-2.6a84 84 0 0 0-.2-13q.2-5.8-.4-11.4V380l-.5-29.7a121 121 0 0 0 0-15 245 245 0 0 1 1.2-19q1-7.6 1.8-15.3 0-.6.3-1 0-.5.3-.8l.9-1.2q1 0 1.6-.7c1.9-.9 5.2-1.5 5.7-3.9 1.3 1.7 3.4 0 4.7-.8q4.5-2.5 7-6.9 3.5-5.2 6-11c1-1 3.6-.7 4.9-1q5-.7 10-1c2.2-1 14.9-.5 15.6-1.7q3.3.3 6.6-.1zm-6.5 6.1a9 9 0 0 0-3.3-.1q-6.7-.5-13.3-.2-8.6-.3-17.1.2-3-.8-6 0a5 5 0 0 0-4.2.4l-2 5.8q-1 .5-.9 1.7-5.6 7.5-14 11.5l-7.8 3.3c-.9 3-.8 7.5-.9 10.7v4.7q-.4 6.6 0 13.3l.1 1.6q-.2 1 0 2v28c.2 3.7-.6 8.8.5 12.3-1.3-.2-.6 2-.5 2.7v4a126 126 0 0 0-.2 16q-.4 5.2-.1 10.3a4 4 0 0 0 0 2.8c-.8 4.4.3 7.9 5 9l6.7 4.8c1.7.7 5 5.1 6.6 5 .1 1.5 2.5 3.5 3.8 4.3 1.7 2.3 3 4.2 4 7.1a5 5 0 0 0 4.9 3.8q18.4.3 37 0c3 .5 9 .6 11.9 0 4.8 1 13.1.2 18.2.2a9 9 0 0 0 3.6-.1c5.4.5 12 .6 17.3-.1q4 .7 8-.3 1.5 0 2.8.3c4.5.6 12.4.4 17.2 0q5.9.6 11.8 0 8.1.5 16.3 0 5.4.5 10.7 0 8.3.4 16.4 0 3.3.4 6.7 0 26.6.3 53 0 7 .4 14 .2 5.2 0 10.5-.3 2-4.3 4.4-8.5a39 39 0 0 1 19.9-14.3q.7-.3 1-1a522 522 0 0 0 .1-38.1c.9-3.2.3-7.8.3-11.1q.3-2.4 0-4.8a145 145 0 0 0-.1-17 222 222 0 0 0-.2-16q.5-5.1 0-10.3v-2q.5-5.5 0-10.9c.4-2 .7-5.3-1.7-6-4.4-3.5-13.7-4.7-18.9-11 0-.9-1.2-4.4-2-4.6q-1.3-3.5-3.3-6.6a4 4 0 0 0-4.2-2.7q-2.2-.7-4.6-.7-8 0-16.1.4-2.7-.4-5.5-.3l-4.8.7q-2.7-1.4-5.3 0-.3-.6-1-.7H358q-6 0-11.7.3c-5.4-.2-12.1-.6-17.4.2l-3-.4q-1.6-.3-3.1.5 0-.5-.5-.6H298c-2 .2-10.5-.5-11.9.5-1.7-1-14.5-.3-17.3 0q-1.3-.5-2.8-.2-7.8-.5-15.8 0-1.5-.6-3.1-.4h-8c-6 .3-12.6-.2-18.4.7Zm84.4 28q2 .4 4 0a52 52 0 0 1 31.8 13 77 77 0 0 1 8.8 12.9 62 62 0 0 1-13 71.4c-1.6-.6-3.4 2.1-4.8 2.7l-8.7 5a57 57 0 0 1-41.1-2q-.7-1.5-2.5-1.9c-34.7-27.9-21.6-96.6 25.6-101.2Zm-32.9 40-.3 2a63 63 0 0 0 4 33.3q.5 3.9 3 6.8.6 2.1 2 3.8a32 32 0 0 0 5.3 6c.7 2 7 6.5 8.7 6.8a7 7 0 0 0 3.9 1.4c1.9 2 11.8 2.7 14.3 1.8 7.5.5 14.9-5.2 19.1-11 10.3-11.2 12.4-29.6 10.1-44.1q0-3.6-1.3-6.9c-.5-6-10.3-24.2-15.7-25.8q-.9-2-3-2.2c-1.3-2-7.5-4.3-10-4.5q-4.5-1.2-9.2-.3c-17-.4-28 18.2-30.9 33Zm-49.5 31.3a28 28 0 0 1-20.4 12.8c-11 .2-17.6-2.3-24.3-11.2q-.7-2-1.6-3.7a45 45 0 0 1-2.6-10.4q.3-1.5 0-3v-.6q1-9.9 5.5-18.5 1.5-1.7 2.5-3.6c23.7-24.7 59.6 6.3 41 38.2Zm197.1-47.2q1.9 1.2 4 1.6a28 28 0 0 1 17 20.2 80 80 0 0 1 .3 14.2c-16.9 48.7-71.6 17.3-48.6-23.4 6.7-10.9 15-13.3 27.3-12.6Zm-211.6 13a3 3 0 0 0-2-1.3q-.6-1-1.8-1.4-1.5-.6-3-.4-.3-.5-.9-.6c-21.5-.8-17.6 40.7 1 42 16.8-2.6 17.7-28.9 6.7-38.2Zm191 17v2c1.7 8.5 7.8 21.8 18.8 18 11.5-5.6 12.9-19 8.5-30a6 6 0 0 0-1.4-2.3c-6.9-12.9-23-8.8-25.5 5q-.5 3.6-.5 7.2Z"/><path fill="#82b83c" fill-opacity=".2" stroke="#82b83c" stroke-opacity=".2" stroke-width=".5" d="M149.8 243.8q0 1-1 1z"/><path fill="#6ba97a" fill-opacity=".5" d="M262 245q-.2.9-1.4 1.2.4-1 1.5-1.3"/><path fill="#448de3" fill-opacity=".5" d="M195.3 107.9a2 2 0 0 1-1.6 1q.7-1 1.6-1"/><path fill="#4089dd" fill-opacity=".6" d="M198.3 106.2q-.6.7-1.6 1 .5-1 1.6-1"/><path fill="#3982cb" fill-opacity=".4" d="M203 102.9v1l-1.2.2q.3-.9 1.3-1.3"/><path fill="#366294" fill-opacity=".6" d="M24.7 275.3q1.2-.2 1.5 1-.9-.1-1.5-1"/><path fill="#7eb63b" fill-opacity=".3" stroke="#7eb63b" stroke-opacity=".3" stroke-width=".5" d="m141 300-.3 1h-.6q0-.8.9-1Z"/><path fill="#458ee3" fill-opacity=".2" stroke="#458ee3" stroke-opacity=".2" stroke-width=".5" d="m83 165.3 1-.5q-.2 1.2-1.3 1.2z"/><path fill="#377cc2" fill-opacity=".3" stroke="#377cc2" stroke-opacity=".3" stroke-width=".5" d="M281.7 90.8q.3 1.3-1 1.3.4-.8 1-1.3Z"/><path fill="#5498b6" fill-opacity=".4" d="M291 269.3v.7l-1 .2q0-.8 1-1"/><path fill="#437cb6" fill-opacity=".7" d="M233 269v1h-1.3q.4-1 1.4-1"/><path fill="#3885c9" fill-opacity=".4" d="M271.1 79.7q-.2 1.2-1.4 1.3.3-1 1.4-1.3"/><path fill="#82b73f" fill-opacity=".2" stroke="#82b73f" stroke-opacity=".2" stroke-width=".5" d="m505.2 475.2.7-.4q-.3 1-1.2 1.2z"/><path fill="#468ee1" fill-opacity=".3" stroke="#468ee1" stroke-opacity=".3" stroke-width=".5" d="m117.1 165.3 1-.1q-.2.6-1 .7z"/><path fill="#559cb3" fill-opacity=".2" stroke="#559cb3" stroke-opacity=".2" stroke-width=".5" d="M262.9 243.8h1.3q-.1 1-1.2 1z"/><path fill="#458fe4" fill-opacity=".2" d="M292.3 268a2 2 0 0 1-1.4 1.3q.2-1.2 1.4-1.4"/><path fill="#5195bf" fill-opacity=".7" d="M287.2 266.9q-.5.9-1.5 1.3.3-1.2 1.5-1.3"/><path fill="#82b83f" fill-opacity=".2" d="M148.8 244.7q-.1 1-1 1.2z"/><path fill="#80ba3c" fill-opacity=".4" d="M497 263.8q0 .6-.3 1l-1-.2z"/><path fill="#438fe4" fill-opacity=".2" d="M292 264h.8q0 1-1.1 1z"/><path fill="#386ba6" fill-opacity=".3" d="M5 63.8a2 2 0 0 1-.8 1.5q0-1 .8-1.5"/><path fill="#5ea19a" fill-opacity=".6" d="M119 261q-.2 1.2-1.4 1.1.4-1 1.4-1"/><path fill="#428be0" fill-opacity=".3" d="M368.7 50q1.2 0 1 1.2h-.8z"/><path fill="#599ea6" fill-opacity=".4" d="M121.1 259.8q-.2 1.2-1.4 1.4.3-1 1.4-1.4"/><path fill="#3c75b4" fill-opacity=".3" stroke="#3c75b4" stroke-opacity=".3" stroke-width=".5" d="M344 40q.7 0 1 .7l-.8.1z"/><path fill="#418ee1" fill-opacity=".2" d="m152.2 245.4-.8.6q-.3-1 .8-.6"/><path fill="#4f94cc" fill-opacity=".2" d="M287.2 253q-.2.8-1.1 1 0-1 1.1-1"/><path fill="#bee76c" fill-opacity=".4" stroke="#bee76c" stroke-opacity=".4" stroke-width=".5" d="m363.7 447.2 1.6-.1q-.6.7-1.5.6z"/><path fill="#4791dc" fill-opacity=".3" d="M367.2 247.7q-.2 1-1.4 1.1.5-1 1.4-1.1"/><path fill="#448ce1" fill-opacity=".2" d="m148.3 246.7 1 .5q-.6.6-1.3.9z"/><path fill="#4189dc" fill-opacity=".7" d="M198 109q-.3.8-1 .8 0-.7 1-.9"/><path fill="#438de2" stroke="#438de2" stroke-width=".5" d="M66.3 37.4c-3.5 3.1-18.6 15.8-20.1 18.5-.5 0-3.7 1-2.6 2q1.7-.5 2.6-2a308 308 0 0 0 32.6-18.6h14.7c.5 0 2.5-.4 2.3.7-11 8.6-26.6 19-35.7 28.8a2 2 0 0 0-2 1c.7.9 2-.1 2-1l3.6-1.5q22-13 44.4-25.7 1.6-.8 2.7-2.2 9.3-.3 18.5 0l-17.8 11.7a5 5 0 0 1-3.6 2.4q-.8.5-.8 1.4-2.1-.2-3 1.7c1 1 2.6-1 3-1.7q1 0 2-.3 11.1-6.9 22.6-13.3 1.4-.7 2.2-2h18.3l-45.5 32c-.6.5-5.5 3.4-2.7 3.9v.7c-3.4.6-6-.1-9.4-.5-7.7 1.9-15.4-.7-23.2.7-11.5.7-23.2-.7-34.6 0q.1-1.2 1.3-1a7 7 0 0 0 3-3.1l1.9-.6q1.8-1.4-.4-1.2-1.2.5-1.5 1.8-2.4.2-4.3 1.8l-2.5 2c-5 .7-11.7.3-16.8.3q-2.6.2-3.2-2.3 1.3-.6 2.4-1.5l11.9-10.7c-1.6-.8-1.9 1-3 1.6q-5 2.4-9.7 5.3l-1.6 1.7c-.3-12.5 4-31 20-30.2q-4.5 5.8-8.8 11.9-.3.5.2.9Q36 45.2 46 39.3q.6-.6.8-1.3c6.2-1.1 13.2-.4 19.6-.6Zm148.6.4q-1 .2-2 .8l-50 33.8a2 2 0 0 0-.8 1.8c-5.2 0-9.2-1.5-14.7 0l-12.7-.1q0-.6.7-.8l58.8-33.7q1-.7.8-1.8 9-.5 18.4-.5.8-.2 1.5.5Zm90-.1q-27.2 17.2-54.2 34.6-1 .6-1.4 1.6-5 .7-9.9-.5-7.2 1.2-14.7.6 0-.6.7-.8 29.5-16.6 58.8-33.6 1-.6.8-1.7c2.8-.2 18.5-1.2 20-.2Zm16.1-.9q6.3-.1 12.5.5c.8.2 4 .3 3.4 1.8a3 3 0 0 0-1.6.6L283 72.5q-.6.6-.6 1.4-7.4.7-14.7-.5-4.5.9-8.9.7 30.6-18 61.4-35.6.9-.6 1-1.7Zm-92.3 1.3a89 89 0 0 1 18.6-.2q0 .6-.7 1-26 16.5-51.8 33.4-1 .6-.8 1.8c-6.5.7-12-1.5-18.6 0h-6.8q0-.6.7-1 29.5-16.6 58.8-33.6.8-.5.6-1.4Zm30 0c5.2-.8 12.3-.8 17.4-.1l-.5 1L223 72.4q-.8.6-.8 1.7-6 .4-11.7-.7a62 62 0 0 1-12.6.8q0-.7.7-1 29.7-16.7 59.2-33.8 1-.4 1-1.3Zm85.5 2.7h.7c2.4.2 7.8 2.8 8.1 5.4a2961 2961 0 0 0-42 26.4q-.7.4-.7 1.3a97 97 0 0 1-21.4-.6q.2-.7.8-1.1 27.3-15.5 54.5-31.4ZM24.3 79.2 15.7 84q0-2.3 1.2-4.4c1.5-.9 5.6 0 7.4-.3Zm22.8.3c3.9-.8 13.5-.3 18-.2Q48 89.3 30.7 99q-.5-.9.3-1.5zm51 .1c3-1 12.4-.4 16-.2A740 740 0 0 1 81.5 98q-.6-.5 0-1.1 8.2-8.8 16.5-17.4Zm32-.3q5.1-.4 10.1 0l-22.1 13.4c-1 .7-2.5.5-1.6-.7 2.2-1.9 13-10.7 13.6-12.7Zm28.7 0a53 53 0 0 1 9.4 0q-12 7.3-24.2 14.1c-1.7 1.2-2.7.3-1.1-1 5.4-5 9.6-9.6 16-13.1Zm29 0a94 94 0 0 1 9.4 0A513 513 0 0 1 169.5 95q-.5-.5 0-1.1c3.3-3.2 9.6-9.8 13.6-11.6q.7-.5 1-1.2 2.4-.2 3.7-2Zm27 0q5.7-.5 11.3 0-13.6 8.4-27.6 15.8c-.8-.7 0-1 .4-1.7 5.2-4.8 10.1-10 16-14Zm34 0q2.7-.4 5.4 0l-1.9 1.5-24 14c-1.5.7-1.5-.7-.5-1.5l6.3-5.7c.4-.6 3-.7 2.8-1.3l1-.4q5.7-3 10.9-6.5Zm44.3.5c.9-1 7.3-1.2 6.8.3-3.8 1.2-11.4 7.4-15.8 9.2q0-1.2.8-2 4.2-3.7 8.2-7.5Zm29 0c2.2-1.3 11-.6 14-.5q-14.7 8.6-29.5 16.8-.5-1 .4-1.6zm30.8-.5c1 .1 8.2-1 7.8.8q-10.4 6-21.2 11.9c-.9-.6.1-1.1.4-1.6q6.4-5.7 13-11.1ZM14.9 99l.4-.9 6-3q.5.3 0 .8l-5.1 5.8c-1.7 1-1.5-2-1.3-2.7Zm38 14-1.2.3a7 7 0 0 0-2.6 1.5q-5.1 0-10.2-.4 1-1 2.4-1.7 13-7.6 26.1-14.8.5.5 0 1c-4.7 5.2-9 9.8-14.5 14Zm221 1.2c-2.7 1-8 .3-11.1.6q.4-.8 1-1.4 12.7-6.7 24.8-14.3 1.1 0 .9 1zm-166.9-.1c-2 1.1-7.7.6-10.2.6 3.6-2.7 16.9-9.5 21.5-13q1-.6 2.3-.2zm28 .3q-5 .5-10 .2l1.7-1.5 21.8-12.2.3.4q-2.9 3.6-6.4 6.6a60 60 0 0 1-7.5 6.4Zm30-.4c-2 1.2-8.5.7-11.1.7l1.7-1.6 21.9-12.2q0 .3.3.4c-.7 1.7-10.8 10.8-12.8 12.8Zm79 .3c-2.7.7-7.3.3-10.2.4l1.8-1.6q10.8-6.2 21.9-12.2.3 1-.5 1.6c-3.7 3.4-9 9.3-13 11.8Zm56 0q-3.6.6-7.2.4l1.1-1.2q9-5 17.7-10.1.3.8-.4 1.3-5.5 5-11.2 9.5ZM78.9 114c-2 1-5.7.5-8 .7q.4-.8 1-1.3l17.6-9.6q.3.6-.1 1a96 96 0 0 1-10.5 9.2Zm118-4.2c.3 1.2-3 3.5-4 4.3q-2.5.6-5.1.5 3-1.5 5.8-3.4l3.3-1.5Zm18 4.5q-2 .3-4 .2l1-1q3.6-1.6 6.8-3.6.9-.3 1.3.3a10 10 0 0 1-5 4.1Zm-181.6 10q-9.3 4.8-18.4 9.9v-8.8q0-.9.8-1.2zm6.6 0q12.6-.3 25.3 0-1.5.9-3.1 1.2L14.8 153v-12q1.2.3 2.3-.2c4.6-3.8 19.8-12.9 22.8-16.4Zm57.1 0q65.3-.3 130.5-.2 1.2-.1 1.2.8l-1.6.6q-3 2-5.7 4.1c-2.2 1.1-8.6 4.2-9.4 6.4-1.4-.3-4.8 1.6-5 2.9q-2.2 0-3 2-1.5-.3-2 1-1 0-2.1.5-2.1 1.5.4 1.3 1.3-.6 1.7-1.9 1.4.3 2-.8 2-.4 3-2.1c1.7 0 4.3-1.3 5-3 2.2.2 7.7-4 10-5q4-2.5 8-4.7l2-1.7q52.5-.6 105-.3l-.3.9q-1.2-.3-1.7.9a3 3 0 0 0-3 1.8q-1.2 0-1.9.8c.6 1 2 0 2-.8a3 3 0 0 0 3-1.8c.4 0 2 0 1.6-1q1.4.1 2.2-.8 9-.2 17.9.4v.3l-2.2 1-43.3 27.7q-1 .5-1 1.4-1.8.3-3 1.6c-8.1.7-16 .4-24 2-.8-2-6 .1-6.3 1.4l-7.3 3.1c-15.3 6.6-14.5 30-4 40.4 9.2 8 36.9 5 48.5 4.3-.3 1.4 2.2 1.3 3 1a47 47 0 0 0 5.8-3.8c15.6-5.5 19.7-18.3 14.7-33.4.2-2.8-7-8.3-6.6-8.7q15-8.5 30-17.4.6 5.3.1 10.4l-1.3.6c-1.6 1.8-6 3.3-7 5.3-1.6 0-4.4 1.6-4.8 3.2-.7-.1-2.2-.2-2 .9-1 .3-2.8.6-3.1 1.7 1 1.1 3.1-.2 3-1.7q1.5.3 2-1c1.7-.2 4.4-1.4 5-3l1.3-.2q3.4-2 7-3.6L361 190q-1-.4-2 .2L324 215c-1 .7-4.5 2.7-4.8 3.7 1 1.2 4.3-2 5-2.9 1.2.3 5.4-2.6 6.5-3.2l30.4-17.6q0 6.1-.4 12.3c-4.5 2.6-24 18.4-29.7 22.7a5 5 0 0 0-4 4.4l-126.3-.6L229 215c1.3-1 4.4-2.4 4.8-4a6 6 0 0 0 5-3c1 0 4.2-.7 2.7-2a3 3 0 0 0-2.6 2q-3.2.5-5 3c-2-.2-4.3 2.1-6.2 2.8q-.8.8-1.8 1.2a943 943 0 0 0-31.8 18.7q-11.6.2-23.3.1 0-.6.5-.8c2-1.5 4.8-2.4 6.3-4.4q1 0 2-.5 5-3.6 10.3-6.7a2 2 0 0 0 1-1.4c.6 0 2.1.2 2-1 .6-.2 3.7-1 2.6-2q-2.1 0-2.6 2-1.5-.3-2 1c-2.9.5-11 6.1-14 7.6l-.9.8c-1.4.8-6.3 2.9-6.9 4.3q-1.3 0-2 1-22.2.4-44.4.4c-.2-1.6-2 .3-2.8.3q-10.2 1.3-14.2 10.6c-1.8 1.4-2.8-.8-4.8 1l-39.7 22.8q-.6.3-1 1l-1.6.5q-14.5 1.4-28.5-3.1-1-.3-1.1-1.3a3 3 0 0 0 1.6-.5 3203 3203 0 0 1 47.3-29q.8-.5 1-1.4c1.5 0 6.5-2.6 7-4.1q2 0 3-1.9 1.6.4 2-1.1c.7 0 4-.9 2.6-1.9q-2.1 0-2.7 1.9-1.4-.1-1.9 1.1-2.2 0-3 1.9c-1.5-.2-6.5 2.7-7 4.1q-1 0-2 .5l-18.7 10.9-30 17.2q-1.2.7-2.2 1.7A23 23 0 0 1 14.8 249q1.2.3 2.3-.2 31-19.8 62-39.3.6-.5.6-1.3 1.5-.5 3.3-.5l1.9.4c.2 1.4 3 1.4 3.2-.1q1 0 2-.3a647 647 0 0 1 25.7 0l1.3.3c.6 1.5 3.7 1.6 4 0l2-.2q12-.3 23.6-.2l1.3.5q1.4 1.5 3.4.8.6-.3.7-.8l2-.5q6.8 0 13.7-.3.3.7 1 .7c.3 1.5 3 1.5 3.4 0q1.2 0 2-.6l10.6.3q.6 0 1.1.3c.2 1.5 4.2 1.5 4.1 0q.8 0 1.2-.7l17.8.6q1.3 1.8 3.4 1 .7-.3.7-1 1.2 0 2-.8c16.5-4 13.8-25.7 12.7-38.4-1.6-13.2-23.8-9-32.7-8.7-.7-2.7-5.4-2.2-6.3 0q-1.2-.2-2 .7-12 .2-23.9-.6l-1.8-2-.2-1a8 8 0 0 0 5-2.8c-.8-1.4-4.4 1.7-5 2.7q-1-.1-2 .7a8 8 0 0 0-3.1 2l-52.1-2.5q0-.7.6-1 9.2-5.4 18-11.5l4.7-2.7 9-5.8q.7-.4 1-1.1 2.1-.3 3-2.2c.5.3 2.7-.2 1.5-1a2 2 0 0 0-1.5 1 3 3 0 0 0-3 2.2q-.8-.3-1.5 0c-1.9 1.5-8.5 4.3-9.6 6q-2.5 1-4.8 2.4l-21 12.2q-.6.5-.8 1.3l-26.3.7 10-6.4a2 2 0 0 0 1-1.4c1.5.1 4.6-1.5 5-2.9.9 0 4.5-.8 2.5-1.8q-1.8 0-2.5 1.8c-1.4-.3-4.6 1.7-5 3q-1 0-2 .5l-12 7.1c-4.2 1.6-9.3 1.7-13.7 2.6q-1.8-3-5-1.5L41 164.6q-1.6 1.3-1.9 3.3c-2.6 3.6-3 6-3.1 10.5q-1-.6-2-.1l-19 11q-.4-5.7-.1-11.3 1 .1 2.1-.4l61.8-40.2c6.2-4 11.7-9.4 18.2-13Zm215 2.7a3 3 0 0 0-3 1.9q-1.1-.3-1.8.7c.6 1 1.8 0 1.9-.7a3 3 0 0 0 3-2 2 2 0 0 0 1.8-.7c-.6-1-1.7 0-1.9.8Zm49.2-.2c1 1 .2 9.4.5 11.3-2.9 0-29 18.7-33.7 21.4q-.7.5-.8 1.4c-2.2-.6-17.7-3.4-18.3-4l2.1-1q25.3-14.4 50.2-29.1ZM78.2 165a19 19 0 0 1 4.8.3l-.3.7q-3 1.4-6 3.1l-.9-.1q1.5-2 2.3-4Zm57.8-.1h9a2 2 0 0 1-1 1.5c-7 4-16.5 8.4-22.7 13.2q-1 0-.8-.7c5.5-4.2 10.6-9.2 15.5-14Zm26.2 0q8-.5 16 0c-5 4.3-25.4 14.9-32.2 19.5q-.8.5-1.7 0l15-15.6a17 17 0 0 0 3-4Zm32.9 0c4 0 10.3-.3 14.1.4l-29.3 17q-.8.7-1.7.2l12.9-13q2.2-2.2 4-4.6Zm107 .5a25 25 0 0 1 8 .7q-.4.8-1.2 1.2-7.6 4.6-15.4 8.7l-.3-.4zM35.7 180.6q.4 6.3.4 12.6c-2.4.3-18 10-21.2 11.8l.2-11.3c1.6.3 19.1-11.2 20.6-13ZM116 202q-8 .5-16 0 0-.5.6-.8 15.3-8.4 30.4-17.4c.7-.2 1.4-1 2-.2-1.2 2.5-14.5 15-17 18.4Zm-59.7-1c-3 1-5.4-1.1-6.4-3.7q1-.2 2-.7 10.5-6 20.8-12.3.6-.1 1 .3L60.4 198zm90.7 1q-7 .3-14 0 .3-.8 1.2-1.2 14.4-7.9 28.5-16.4c1.3-.8 1.6.7.5 1.4q-7.7 7.3-15.2 14.8-.7.7-1 1.5Zm-64 0q-5 .3-9.9 0 0-.5.5-.8 12-6.2 23.4-13.5.8-.7 1.7 0zm211.8-.6c-1.2 0-6.5 0-7-1l14.9-9q.7-.3 1.2.2-4.7 4.8-9 9.8ZM168 202h-4q.1-.6.7-1 3.1-1.6 6.1-3.6.8-.4 1.3.1c-.6 1.8-3.8 2.3-4 4.5Zm40 0h-6c.3-1.2 6.4-4 7.6-4.7q.5.4.3 1-1.4 1.7-1.8 3.7Zm-171.1-2.3 1.1.2c2.5 2.6 4.2 5 7 7.3q-14.8 8.7-30 17l-.1-11.3q1.2.4 2.3-.1c4.6-3.4 16-10 19.7-13.1Zm26.5 7.6q4 .2 8 .7-.2.6-.7 1a3217 3217 0 0 0-56 32.2c-.4-.7.3-10 .5-11.4 2.6-.2 28.5-17.6 33.1-20.1q1-.5 1-1.5 4.3 0 8.7-.4.7 1.7 2.5 1 .6 0 .8-.7 1.2 0 2.1-.8ZM129 230a3 3 0 0 0-2.9 2q-.6-.1-1.2.4.9.5 1.2-.4a3 3 0 0 0 3-2c.4.2 2.8-.3 1.5-1a2 2 0 0 0-1.6 1Zm231.1-.4.7-.8c0 1.2.7 4.2-.3 5.1q-3.8.6-7.4.3 1.5-1.2 3-2.9 1.6-.4 3-1.3.6 0 1-.4ZM184.8 244q5.6-1 11.1-.2c-.9 1.7-35.2 21-39.9 23.7q-1 .7-2 .4c.7-1.7 17.5-15 20.5-17q.8-1.6 2.1-2.6.7.5 1.7.3zm28.4-.2 3.8-.1-.7 1-9.5 5.4c-1 .8-2.2 2.5-3.6 1.3l8.8-6q.8-.7 1.2-1.7Zm21 0a43 43 0 0 1 10.9 0c-2.3 2.7-36.4 21.3-42.2 25l-2-.1c7-6.3 28.1-19.4 33.2-24.9Zm42.9 0a3 3 0 0 1-1.4 1.5l-39.8 23q-1 .6-2.2.4 16.7-12.3 33.6-24.1c2.5-1.8 7-1.1 9.8-.8Zm20.7.1q2.6-.6 5.3-.2a3 3 0 0 1-1.4 1.6l-8.8 5q-1 .6-2.1.4 3-2.7 6.3-5.2.7-.7.7-1.6Zm23.2 0a71 71 0 0 1 14-.1 538 538 0 0 1-40 22.8l-.2-.4 9.2-7 1.8-2.2c.8 0 4-1 2.8-2q-2 .2-2.8 2c-3 .7-6.8 3.5-9.6 5H295a2 2 0 0 1 1-1.5l24.2-15.8q.4-.3.7-.9Zm44.8 4.8c.3 1.2-1.8 2.1-2.2 3.2a3 3 0 0 0-.6 2 133 133 0 0 1-20 11.8v-.7l.9-2.1a128 128 0 0 1 22-14.1ZM30 252c-.7 0-2-.1-2 1q-2.1.1-3 2-1.2-.2-2 1-1.8 0-3 1.6c1.1 1 2.7-.6 3-1.7q1.4.4 2-.9 2.2 0 3-2 1.5.3 2-1c1 0 3 0 3-1.5-1.2-.6-2.7.2-3 1.5Zm28 8q-2.4-.3-3 2c-1.4-.4-6.4 2.6-7 4-1.3-.1-4.6 1.5-5 2.7.7 1.5 4.7-1.7 5-2.7 1.5 0 6.4-2.8 7-4q2.1-.2 3-2c.5.2 2.7-.3 1.5-1a2 2 0 0 0-1.5 1Zm45.8-.9 1-.3c-.3 1.7.3 10-.8 10.7q-8 .3-16 .3 0-.9 1-1.3z"/><path fill="#438de2" fill-opacity=".5" stroke="#438de2" stroke-opacity=".5" stroke-width=".5" d="M129 230q.5-1 1.5-1c1.3.7-1 1.2-1.6 1Zm-99 22c.3-1.3 1.8-2.1 3-1.5 0 1.5-2 1.6-3 1.5Z"/><path fill="#438de3" fill-opacity=".4" stroke="#438de3" stroke-opacity=".4" stroke-width=".5" d="M89 147c-.4 1.4-3.5 3-5 3 .4-1.3 3.6-3.3 5-3Zm259 18q-.5 1.3-2 1c-.1-1.1 1.4-1 2-1ZM89 229a3 3 0 0 1-3 1.9q.8-2 3-1.9Z"/><path fill="#448ee1" fill-opacity=".4" stroke="#448ee1" stroke-opacity=".4" stroke-width=".5" d="M204 141q-.6 1.2-2 1 .6-1.3 2-1Z"/><path fill="#438ce1" fill-opacity=".3" stroke="#438ce1" stroke-opacity=".3" stroke-width=".5" d="M212 136c-.7 1.7-3.3 3-5 3 .2-1.3 3.6-3.2 5-3Z"/><path fill="#448de2" fill-opacity=".4" stroke="#448de2" stroke-opacity=".4" stroke-width=".5" d="M140 133q.5-1 1.5-1c1.2.6-1 1.2-1.5 1Zm172-6a3 3 0 0 1-3 2 3 3 0 0 1 3-2ZM91 228q-.4 1.5-2 1.1.5-1.2 2-1.1Zm-63 25q-.8 2-3 2.1.9-1.9 3-2Z"/><path fill="#438de3" fill-opacity=".3" stroke="#438de3" stroke-opacity=".3" stroke-width=".5" d="M312 127c.2-.6 1.3-1.6 2-.7a2 2 0 0 1-2 .8Z"/><path fill="#448de2" fill-opacity=".3" stroke="#448de2" stroke-opacity=".3" stroke-width=".5" d="M336.7 125.2c.4.9-1.2.9-1.7.9q.5-1.2 1.7-1ZM207 139a4 4 0 0 1-3 2q.8-2 3-2ZM23 256c-.3 1-1.9 2.5-3 1.5q1.2-1.5 3-1.6Z"/><path fill="#448de2" fill-opacity=".5" stroke="#448de2" stroke-opacity=".5" stroke-width=".5" d="M60.1 66.9c0 .8-1.3 1.8-2 .8a2 2 0 0 1 2-.9ZM89 147a3 3 0 0 1 2.5-1.8c2 1-1.6 1.9-2.5 1.8Zm40 83a3 3 0 0 1-3 2 3 3 0 0 1 3-2Z"/><path fill="#438de2" fill-opacity=".5" stroke="#438de2" stroke-opacity=".5" stroke-width=".5" d="M46.2 55.9a4 4 0 0 1-2.6 2c-1.2-1 2.1-2 2.6-2Zm155.8 86q-.4 1.3-1.7 1.9-2.5.2-.4-1.4zm144 24c.1 1.6-2 3-3 1.8.3-1.1 2.1-1.4 3-1.7ZM91 228q.5-2 2.6-1.9c1.4 1-2 2-2.7 1.9Z"/><path fill="#438ce2" fill-opacity=".4" stroke="#438ce2" stroke-opacity=".4" stroke-width=".5" d="M107.1 52.9c-.4.8-2 2.7-3 1.7q.9-1.9 3-1.7Z"/><path fill="#838586" d="M63.3 207.3q-1 .8-2 .8-1.8 0-3.4-.3c1.1-1.4 4-.8 5.4-.5"/><path fill="#87898a" d="M188.8 160q1.5 0 3.2.4c-.8 1.1-4 .5-5.2.3q.8-.8 2-.8m-21 47.3q3.2-.7 6.4.1-.8.7-2 .7l-3.3-.1q-.8 0-1.1-.7m23.4 0q-.5.7-1.2.7h-4l-1.2-.3c1.4-1.2 4.7-.7 6.4-.4"/><path fill="#bee76e" stroke="#bee76e" stroke-width=".5" d="M182 272.7q-5 .3-10 1-.7-.2-1-1.1l5-2.9c2.5-1.4 6.3-.2 6 3Zm57 2.6a9 9 0 0 1-3 3.1q-14.2 10.8-28.7 21c.4.8 3-.7 3.8-.7 7.7-5.4 17-10.4 25.3-15 2.7-1.9 1.7-3.4 5.5-3.8a7 7 0 0 0 4.4-3q2.1-.3 3.9-1.3 8-.3 15.8.1l-1.9 2.2c-1.8 0-9 5.4-11.2 6.7-1.6.9-.2 2.1 1.2 1.2a148 148 0 0 1 11-7c.9-.7 3.6-1.9 3.7-3 2.8-.2 15.6-1 17.3 0q-.5 1-1.3 1.6-19.2 13.3-38.6 26.1-1.3.8-2.1 2.1.8 1 2 .2c16.5-10.4 35-20.5 52-30.4H314l-2.7 2.4-59.2 41q-5 3.4-10.3 6.6c-1.6 1-.4 2.3 1.2 1.2 27.6-17 56.7-33 84.7-49.4a3 3 0 0 0 1.3-1.3c5.3-.8 12-.4 17.4-.1q-.9 1-2.2 1.9-19.7 12.9-39.2 26.2c-47.2 4.6-60.3 73.3-25.6 101.2q-27 16.1-54.1 31.6a42 42 0 0 0-6.3 4.3q-18.6.3-37 0 1.6-1.6 3.6-2.7c20.6-13 41.8-27 62.5-39.4 1-1 2.6-1.3 3-2.6q-1-.8-2.2-.1c-21.4 14.4-46.3 27-68.9 40.2a5 5 0 0 1-2.9.8c-1-3-2.3-4.8-4-7.1 28-17.8 55.6-36.4 84-53.6 1.6-.8.4-2.3-1.2-1.3a2179 2179 0 0 1-82.6 47.8q-1.8 1.7-4 2.7c-1.5.2-4.9-4.2-6.6-4.9q0-1 .8-1.7a11525 11525 0 0 1 81.4-53.7l11.4-6.6q1-.7.2-1.6-2.6 1.1-5.2 2.6a739 739 0 0 1-25.4 15q-.6.3-1 1c-.6.1-2 .6-2.3-.5 18.7-31.8-17.2-62.9-40.9-38.2l-30.3 17q-.2-11.5-.2-23.2l2.7-1.7q9-7 18.4-13.7c.7-.4.3-1.5-.4-1.1-1.5 1.5-4.5 2.2-5.4 4.1q-.7-.5-1.3 0-3.6 2.6-7.7 4.4-1 1-1.7 2-2.6.5-4.6 2.4-.3-6.7 0-13.3 2.4-1.8 3.6-4.5 3.8-2.4 7-5.5l2.7-2q1-1.7 2.3-2.6l2-1.1q.1-1-1-1.1-1.5 1.6-3.6 2.8-5.4 3-10.9 5.8-.2.7-.1 1.6l-2 1.9c0-3.2 0-7.7.9-10.7l7.8-3.3a37 37 0 0 0 14-11.5q6-2.7 11.4-6.2 1.2-.5 1.7-1.7 8.6-.5 17.1-.2-.6 1.8-2 2.9a790 790 0 0 1-23.1 21c-1.3 1-.1 2 1 1.2 5.3-4.4 24.3-13.2 27.2-17q.8 0 1.7-.3l10.8-6.1q1-.4 1-1.4c5.9-.9 12.4-.4 18.3-.7Zm119 .1h15.1c.1 1.7-1.2 1.6-2.2 2.5-13.7 8.7-28.2 17-41.6 26-1 1.2 1 1.5 1.8.8 14.3-9.2 29.4-17.3 44-26.1l5.8-3.3q7.3.2 14.5.1.7 0 1 .8L365 296.8q-.6.3-.7 1a298 298 0 0 1-27 16.3A52 52 0 0 0 309 304c2-3.1 42.6-24.8 49-28.5Zm70.1 0q0 .8-.8 1.4-11.3 7-22.4 14.6l-4 2.2-1 1.4c-1.3-.2-4.7 1.6-4.9 3q-2.2 0-3 2-1.3-.4-1.8 1c-1.9 2.6-7.3 3.7-10 5.6-10.1 7-21.4 14.6-32 20.6q-3.2-5.4-7.4-10.3 35.5-20.7 71.2-41.1 8-.5 16.1-.5Zm-247 .4a18 18 0 0 1-6.3 6.3l2-5.8a5 5 0 0 1 4.3-.5Zm255.8 3q2 3 3.4 6.5-.4 1.3-1.6 2.2c-21.6 13.5-42.9 27.8-64.8 40.7-.5.5-3.9 2-2.3 2.8 1.3.4 7-3.8 8.3-4.8l60.7-35q1-.4 1.6-1.3c5.2 6.3 14.5 7.5 18.9 11-12.8 8.3-29.5 18.5-41.4 27.2-12.3-.7-20.6 1.7-27.3 12.6-23 40.7 31.7 72.2 48.6 23.4q11.2-6 22-12.3.3 5.7 0 11.3l-29 19.5c-1.8 1-.3 2.3 1.1 1.4 3.7-2.9 24.5-15.1 28-16.1 0 3.3.6 7.9-.3 11-1 .7-4.1 1.7-3.7 3.1q-2.2-.4-3 1.6c.8.7 3-.4 3-1.6l4-1.1q.4 18-.4 36.3-.3.6-1 .9a38 38 0 0 0-19.9 14.3q-2.4 4.2-4.4 8.5l-10.5.3c4.7-6 10.5-11.4 16.1-16.7q1.2-1-.3-1.2-14.5 8.6-29.2 16.7-.5.4-.6 1-26.4.3-53 0c.5-1.8 15.3-11.3 17.8-13q.5-1.4-1-1.1-11.3 7-23 13.2-.6.3-.5.9-8.3.4-16.4 0 .4-.9 1.2-1.4 17.9-12.9 36.2-25 1.8-1.5-.5-1.7-23.2 14.1-47.1 27.2a1 1 0 0 0-.4 1q-8.3.3-16.4 0c.8-1.7 3.8-3.3 5.3-4.5q22.9-15.8 46-31c1.7-1 .5-2.5-1.2-1.4q-30.2 18.1-60.8 35.6a2 2 0 0 0-1 1.3c-5 .3-12.8.5-17.3-.1q.4-.8 1.2-1.5c.7-.5 3.2-1 2.7-2.4q2.7-2.8 6.7-3.5c15.5-10 32.9-22.6 48.8-32q1-.7.3-1.7c-1.7 0-1.9 1.7-3.8 1.3a62 62 0 0 0 13-71.4q0-1 .7-1.8l84.5-48.8q1-.5 2-.5Zm-3 27.2q2.5.4 4-1.7l10.3-5.7c.5-.5 1.5-1 .5-1.6-5.1 1.9-9.5 5.4-14.3 8zm29 .9q.3 5.5-.1 11-2 .3-3.7 1.5-7.2 4.9-14.9 9.2-1.3.7-2.2 2 1 .8 2 .2a241 241 0 0 0 16.2-10 7 7 0 0 1 2.5-1q.6 5.2.1 10.4c-4.7 2.5-20 13.8-23.7 15a28 28 0 0 0-15.4-15.5 537 537 0 0 1 39.2-22.8ZM303 311.1q4.5-.9 9 .3c-2.3 1.4-14.8 9.5-16.7 9.5-1-.5-.1-1 .3-1.6 1.7-1.8 6.6-6.1 7.4-8.2Zm19.1 4.8q2.1.4 3 2.2-4.4 3-9.2 5.6l-4.5 2.3c-.9-.6-.1-1 .4-1.6q5.4-4 10.3-8.5Zm140.8 20v10.3L441.2 361q0-5.5-.5-11.1 0-1.6 1.3-2.5c6.1-3.3 14.8-9.2 21-11.5Zm-261.7 2q1.5 0 3 .5c-.6 2-3 2.9-4.7 3.5q-.4-.4 0-1 1.2-1.2 1.6-3Zm-22 2.8q-4.7 8.7-5.7 18.5a3 3 0 0 0-2.5.5c-.2-1-1.6-.2-2 0l-14.6 8.4q-1.2.8-1.3 2.3l-1.4.8c-1-3.5-.3-8.6-.5-12.3q13.6-8.8 26.5-18.5.9-.3 1.4.3Zm26.9-.9q1.2.4 1.9 1.4c-1.7 1.7-8.4 4.9-10.9 6.5-1.3.8-1.6-.7-.3-1.3q5-2.8 9.3-6.6Zm134.7 4.1q1.2 3.3 1.4 6.9-11.4 6-22.2 12.6c-1.6 1.2-2.9.2-1.3-1q11.1-9.1 22-18.4Zm84.1 2a6 6 0 0 1 1.4 2.3 14 14 0 0 1-4.4 3.2q-3 1.2-1.2-1.3 2-2.3 4.2-4.3ZM376 357c1.5-.8 10.1-5.5 10.3-6.6-.9-1.5-10.4 4.6-10.3 6.6Zm-202.2 5.8q.7 5.4 2.5 10.4a5 5 0 0 1-1.3 2.2L151 389q0-5.6.3-11.2c.7.2 20-13.5 22.4-15Zm105 23.3q-2.5-3-3-6.8 12.2-6.5 24.1-13.7c1.6-1.2 3-.3 1.3 1.1q-11.4 9.5-22.4 19.4Zm-100.9-9.2c6.7 8.9 13.3 11.4 24.3 11.2-12.1 8.3-27.6 15-39 23.5a17 17 0 0 0-7.2 4.4c-4.7-1.1-5.8-4.6-5-9q1 0 2-.6 9-5.4 17.6-11.3 4.6-3 9.5-5.6c1.7-.9.5-2.4-1.2-1.3l-7.5 4.8a501 501 0 0 0-18.4 10.6l-2 .6q-.3-5 .2-10.3 13.2-8.6 26.7-17Zm108.2 19a4 4 0 0 1-1.5-1.2q0-1 .9-1.7c3.1-2 6.6-3.4 9.4-5.8 1.6-1 2.5.5 1.2 1.3q-5.2 3.5-10 7.5Zm12.6 8.2a7 7 0 0 1-3.9-1.4 2 2 0 0 1 1.2-2l11.7-6.7q.8-.4 1 .4c-.2 1.5-8.5 7.2-10 9.7Zm33.4-9.2c-4.2 5.8-11.6 11.5-19 11a174 174 0 0 1 19-11ZM282 407a57 57 0 0 0 41.3 1.9q-.3 1.1-1.2 1.6l-50.7 29.3a3 3 0 0 0-1.3 1.2c-5.3.7-12 .6-17.3.1.3-1.2 16.5-10.8 18.7-12.2l8.6-5.5q.7-.6 1-1.4c1.7 0 4.4-1.4 5-3.1.7.2 2.1.2 2-1 .5-.1 4.2-1 2.6-2q-1.7.4-2.6 2a2 2 0 0 0-2 1 8 8 0 0 0-5 3.1 4 4 0 0 0-2 .5l-9.3 5.4-19.8 11.5q-1 .6-.8 1.9c-5.1 0-13.4.7-18.2-.3 15.4-11.3 35-22.7 51-34Zm-79.2 32.4c2.3-.2 14.6-8 17.5-9.8 1.3-.6 1-2.1-.4-1.4q-7.2 4.4-14.7 8.4a4 4 0 0 0-2.4 2.8Zm234.5 4.6a17 17 0 0 1-6.7 3.7 5 5 0 0 1-4.5-2.7q5.6-1 11.1-1Z"/><path fill="#9bcd52" d="M202.7 439.4a4 4 0 0 1 2.4-2.8q7.5-4 14.7-8.4c1.3-.7 1.7.8.4 1.4-2.9 1.8-15.2 9.6-17.5 9.8"/><path fill="#bee76d" fill-opacity=".3" d="M286 418.9c-.6 1.7-3.3 3.1-5 3.1a8 8 0 0 1 5-3.1"/><path fill="#bee66d" fill-opacity=".5" d="M288 418a4 4 0 0 1 2.6-2.1c1.6 1-2 1.9-2.6 2"/><path fill="#9ecf55" d="M434 306q0-.6.5-1c4.7-2.6 9-6.1 14.2-8 1 .6 0 1.2-.6 1.6l-10.2 5.7q-1.5 2.1-4 1.7m-58 51c-.1-2 9.4-8.1 10.3-6.6-.2 1-8.8 5.8-10.3 6.6"/><path fill="#bfe76d" fill-opacity=".4" d="M288 418c.1 1-1.3 1-2 .9a2 2 0 0 1 2-1"/><path fill="#89c045" fill-opacity=".5" d="M459 382c0 1.2-2 2.3-2.9 1.6q.8-2 3-1.6"/><path fill="#84bd40" fill-opacity=".4" stroke="#84bd40" stroke-opacity=".4" stroke-width=".5" d="m462.8 379 .3 1.9-4 1.1c-.4-1.4 2.8-2.4 3.7-3Z"/><path fill="#74a339" fill-opacity=".2" stroke="#74a339" stroke-opacity=".2" stroke-width=".5" d="M173.7 359.2v.6q-1 1.6-3 1.8 0-.8-.7-.8l1.1-1.1a3 3 0 0 1 2.6-.5Z"/><path fill="#7db43d" fill-opacity=".9" d="M239 275.3h8q-.5.7-.7 1.7a7 7 0 0 1-4.4 2.8q.1-.7-.3-1.5-3 1.2-5.7.1a9 9 0 0 0 3.1-3"/><path fill="#0d4e61" stroke="#0d4e61" stroke-width=".5" d="M30.2 79.3c5-.2 12-.4 16.9.2l-16 18q-.9.6-.4 1.5Q48 89.3 65 79.3q16.5-.5 33 .3L81.5 97q-.5.6 0 1.1 16.5-9 32.6-18.8 8-.3 16 0c-.6 2-11.4 10.8-13.6 12.7-.9 1.2.7 1.4 1.5.7l22.2-13.4q9.3-.1 18.6 0c-6.3 3.5-10.5 8.2-15.9 13-1.6 1.4-.6 2.3 1 1.1q12.3-6.8 24.3-14c2.8-.2 13.8-1 15.7.4l.2 1.4q-1 0-1 1.2c-4 1.8-10.3 8.4-13.7 11.6q-.4.6.1 1.1a513 513 0 0 0 27.6-15.9q9-.1 17.8.2c-5.9 4-10.8 9.2-16 14-.4.6-1.2 1-.4 1.7q14-7.5 27.6-15.7 8.5-.4 17.2 0a77 77 0 0 0-6.5 5.6l.1 1.3c.1.6-2.4.7-2.8 1.3q-3 3-6.3 5.7c-1 .8-1 2.2.4 1.4l24.1-13.9 2-1.6q9-.1 18 .1-.4.4-1.2.4-1 .3-1.4 1.3l-7.7 5.7q0 1 1 1 5.5-3.8 11.4-6.8.9-.7 1.3-1.6c4 0 14-.8 17.4.5l-8.2 7.6q-.8.7-.8 1.9-1 0-.9 1-.8-.2-1.5.5t-1 1.3a5 5 0 0 0-2.5 2.7q-1.8.3-3 1.7c1 1.3 2.7-.7 3-1.7q.5.3 1.1 0 13.5-7.5 26.5-15.5c3.3-.1 13.9-.9 16.3.5l-15 14.6q-1 .7-.5 1.7Q321.4 88 336 79.3q8.4-.3 16.8 0-6.6 5.4-13 11.1c-.3.5-1.3 1-.4 1.5q10.7-5.7 21.2-11.8 1 16.5.9 33.2-.5 1.8-2.3 1.4l.5-1.9q.5-.8-.3-1.4c-.6.4-3.8 1.3-3.1 2.4l-.7.8c-18.5-.1-37.3.5-55.7-.4q5.8-4.5 11.2-9.5.7-.6.4-1.3L294 113.5l-1.2 1.2q-9.5 0-18.8-.5l15.5-14q.3-1.2-.9-1.1-12 7.5-24.7 14.3-.8.6-1.1 1.4-9.4 0-18.9-.5c4-2.5 9.4-8.4 13-11.8q1-.7.6-1.6l-22 12.2-1.7 1.6q-9.4 0-18.8-.3 3.1-1.2 5-4.1-.4-.6-1.2-.3l-6.8 3.6-1.1 1c-5.4-.1-12.8.5-18-.4 1-.8 4.3-3 4-4.4q1 0 1-.9c1 .1 5-4.2 6.4-4.7q1.6-1.3 2.5-2.8-.3-.6-1-.2-1.4.3-1.8 1.6h-1q-.9.4-1.2 1.3l-3.5 2q-1.1 0-1.6 1-.6.5-1.4.8-1 0-1.5 1-.4.1-.7.4c-1.7-.7-6.2 2.8-7.8 3.6q-.7 1 .5 1.4l.3.3-19.6.3q-1.2.1-1.5-.9c2-2 12.1-11 12.8-12.7l-.3-.4q-11 6-21.9 12.2l-1.7 1.6q-9.5.1-19-.4 4-2.8 7.5-6.4 3.6-3 6.4-6.6l-.3-.4-21.8 12.2-1.7 1.5-16.5.3q-1.2.1-1.5-.8l13.6-12.6q-1.2-.4-2.3.2c-4.6 3.5-18 10.3-21.5 13-5.2-.3-13 .5-17.9-.6a96 96 0 0 0 10.5-9.2q.5-.4 0-1L72 113.5q-.6.5-1 1.3-9-.3-18 0l-.1-.8.1-1a113 113 0 0 0 14.5-14q.5-.6 0-1.1l-26.1 14.8q-1.4.7-2.4 1.7c-1.4.9-19.1.2-22.3.3q-.8 0-1.4-.4l-.8-13.7q0-1 .5-1.6c-.2.8-.4 3.7 1.3 2.8l5.1-5.9q.5-.4 0-.9l-6 3.1a31 31 0 0 1-.3-10q1.5.2 2.3-1 5-2.5 9.6-5.7a1 1 0 0 1 1 0l1.4-1.2q.6-.3 1-.9ZM260 89.1q.7 0 1.1-.7-1-.3-1 .7Z"/><path fill="#306595" fill-opacity=".5" stroke="#306595" stroke-opacity=".5" stroke-width=".5" d="M28.8 79.4h1.4q-.3.5-.9.8zm.5.8L28 81.3q0-1.2 1.3-1.1Z"/><path fill="#fefeff" stroke="#fefeff" stroke-width=".5" d="M56.3 160.2q-6 1.5-11.6 4L39 168q.3-2.1 1.9-3.3l10.3-6q3.2-1.5 5 1.6Zm1 4.8q-1 .5-1 1.6a4 4 0 0 1-1.2 2c.8 1 2.8-.6 3-1.6l1-.2q1.5-.5 2.9-1.8h16q-1 2-2.3 4-2 0-2 2-1 .6-1.9 1.4l-3.6 4q.9.3 1.6-.2l17-9.8q.8-.6.8-1.5l17.4.1a10 10 0 0 1-2.4 3.2l-9.7 9.3c-.4.7-2 1.7-1.4 2.7q.9 0 1.8-.4 2.7-1.8 6-3.1l2.7-2q5.6-3.2 11.3-6l3.7-2.8q.8 0 1-.7 9-.5 17.9-.3c-5 4.8-10 9.8-15.5 14q0 .8.8.7c6.2-4.8 15.6-9.2 22.7-13.2a2 2 0 0 0 1-1.5q8.6-.3 17.2 0a17 17 0 0 1-3 4l-14.9 15.5q.9.5 1.7 0c6.8-4.7 27.3-15.2 32.2-19.5q8.4-.3 16.9 0a35 35 0 0 1-4 4.6l-12.9 13q1 .5 1.7-.1l29.3-17c10.8 3 7 27.7 5.6 36-.7 1.3-5.4.4-6.8.6q.6-2 1.7-3.7.3-.6-.2-1c-1.3.6-7.3 3.5-7.5 4.6l-34 .1c.2-2.1 3.4-2.7 4-4.5q-.6-.5-1.3-.1-3 2-6.1 3.7-.5.3-.6.8-8.5.2-17 0 .3-.8 1-1.4 7.4-7.5 15.2-14.8c1.1-.7.9-2.2-.5-1.4q-14.1 8.5-28.5 16.4-.9.3-1.2 1.3h-17c2.5-3.4 15.8-16 17-18.5-.6-.9-1.3 0-2 .2q-15 9-30.4 17.4-.5.3-.6.9-8.5.3-17 0l15.7-14.5q-.8-.6-1.7.1-11.4 7.3-23.4 13.5a1 1 0 0 0-.5.8q-7.8.2-15.6.1-1.3 0-1.2-1.1l4-3q6.8-6.6 13.4-13.4-.4-.5-1-.2-10.2 6.3-20.7 12.2l-2.1.8a23 23 0 0 1-1.2-13.3q.8.1 1.3-.4c2.2-3 2.4-2.7-1.2-1.6q.4-6.7 0-13.5 0-3.8 3.9-4.1c1.2 0 3.8-.5 4.6.6Zm244.9.4-9 10.2.3.4q7.8-4.2 15.4-8.7.7-.4 1.2-1.2c8.3 1 16.6 5.5 16.8 14.8-2 .4-3 2.6.3 2.1.3 9.6-2.4 16.3-12.5 18.3-1.9-.9-.8-1.4-3.1-.2q-.6.3-.6.8c-3 .3-14 .6-16.2-.5l9-9.9q-.4-.6-1.1-.2l-15 9c-10 1.5-16.2-4.5-17-14.3a8 8 0 0 0 3.5-3q.4-.4.2-1a6 6 0 0 0-3.8 2.3c-1.5-5.9 1-14.2 6.3-17.8 3-.9 21.9-2 25.3-1ZM172.8 197c.3 0 1.7-.4.8-1q-.8.3-.8 1Z"/><path fill="#8dbaed" d="M172.8 197q0-.7.8-1c.9.6-.5 1-.8 1"/><path fill="#80b93d" stroke="#80b93d" stroke-width=".5" d="m495.8 264.6.9.3q.3 16.1.1 32.3-10.2 6-20 12.6c-.8-.1-1.9-7-3-8.1-4.1-9.3-12.2-8-18-14.6q1.5 0 3-.8 18.6-10.5 37-21.7ZM314 275.4h8.4q.5 0 .5.6l-2.4 1q-5.8 3.6-11.4 7.6l-4 2.1q-1.3 1.6-3.2 1.8-.9.4-.7 1.4c-.7 0-2.4 0-2.1 1.2q-2.2 0-3.2 2-.6 0-.4.6.4-.2.5-.7 2 0 3-2 1.6.3 2.2-1.1 2.5-.2 4.1-2 8.3-4.9 16.7-9.6 2.1-1.1 4-2.8 1.5 0 3 .4a3 3 0 0 1-1.3 1.3c-28 16.3-57 32.5-84.7 49.4-1.6 1.1-2.8-.2-1.2-1.2q5.3-3.2 10.3-6.6l59.2-41zM493 288q-2.2-.2-3 2-1.4-.4-2 1-2.2-.2-3 1.9a2 2 0 0 0-2 .7c.6 1 1.9 0 2-.7q2.1-.2 3-2 1.5.2 2-1 2.1 0 3-2c.6.2 2.8-.3 1.6-1q-1.2 0-1.5 1Zm-200 7c.4 0 1.6-.4.7-1q-.7.4-.7 1Zm-155.2 60.6.5 24.3c-2.9-.1-17.2 9.1-20.7 11.1q.2-11.6.7-23.4c1.8.5 16.6-10.7 19.5-12ZM126 375.1q-2.1 0-3 2c-1.3-.2-4 .9-4 2.3 1.3.6 3.3-1.1 4-2.4q2 0 3-2c.6.2 2.8-.3 1.6-1.1q-1.2 0-1.6 1.2Zm371.6 1.7q.4 5.6 0 11.3-6.4 4-12.7 8.3-1 .8-1 2c-.1 1.4-6.5 5.2-7.5 4.6l-.6-14.1c2 .5 20-10.5 21.8-12.1ZM159 432c3 4.2 8.2 13.5 13.5 14.3q.6.2.7.8l-.4.8a2736 2736 0 0 0-42.6 24.6c-2.2-1-8.8-2.7-8.8-5.7q1.5.6 1.7-.8c1.7-.6 3.8-1.3 4.9-2.6-.6-1-4.8 1.2-4.9 2.6-.6-.1-2 0-1.7.8-2.4.4-5-6-5-8q20.8-12.6 41.4-25.6.8-.3 1.2-1.2Zm80.1 13.6-.6.3q-2.4-.3-5-.2-1.2-.2-2.1.7 1.2.8 2 2-21.8 12.4-43.1 25.3-9.2.4-18.2.3-.3-1.9-1 0c-3.8-.3-17 1-19.5-.7-2.5 1.4-12.8.6-15.7-.3q0-.6.6-.8a2541 2541 0 0 0 38.6-23.7q1-.6.9-1.7 13-.6 26-.8c1.3 2.7 5 2.5 6.3 0a789 789 0 0 1 30.8-.5Zm37.9.3 4 .1c1.4 2.8 5 2.9 6.1 0l13 .2.2 1.6c-2.5 2.6-5.3 3.5-8.3 5.2q0-1.2-1.2-1l-33.9 19.4q-.9.6-.7 1.7c-5-.1-13.6.5-18.1-.2l.4-.9 37.7-24.4q.8-.6.8-1.7Zm91.8 1.2 23.2-.5c-1 3-10.7 10-14.2 11.4q-.3-1.5-1.7-.7l-23 13.3c-.5.8-3.2 1.4-2.6 2.4q-9.4.4-18.8 0 0-.6.7-.9c4.6-3 35.5-22.6 36.4-25Zm-174.6 13q-2.2 0-3 1.9c-1.5-.2-4.6 1.6-5 3q-1.5-.2-2.1 1c-1.3.1-5.3 1.6-4.7 3.2 1.4-.3 4.3-1.6 4.7-3.2a2 2 0 0 0 2-1c1.5-.2 4.4-1.7 5-3q2.4.2 3-2c.6.2 2.8-.3 1.5-1.1q-1.2 0-1.4 1.2Zm-34.1 9q-1.5-.4-2 .8c-1 .3-3 .8-3 2q-.6 0-1.1.5.8.5 1.1-.4 2.1 0 3-2 1.5.3 2-1c1.9.3 3.7-1.6 5-2.7-.8-1.3-5 1.8-5 2.7Z"/><path fill="#80b93d" fill-opacity=".6" d="M160 469c0-.9 4.2-4 5-2.7-1.3 1-3.1 3-5 2.7"/><path fill="#81ba3e" fill-opacity=".3" stroke="#81ba3e" stroke-opacity=".3" stroke-width=".5" d="M186 465a2 2 0 0 1-2 1q.6-1.2 2-1Z"/><path fill="#80b83d" fill-opacity=".5" stroke="#80b83d" stroke-opacity=".5" stroke-width=".5" d="M194 460q.3-1.2 1.5-1.1c1.3.8-.9 1.3-1.4 1.2Zm-36 10q-.9 2-3 2c0-1.3 2-1.8 3-2Z"/><path fill="#80b93d" fill-opacity=".4" stroke="#80b93d" stroke-opacity=".4" stroke-width=".5" d="M299 291a4 4 0 0 1-3 2q.9-1.8 3-2Zm-173 84q-1 2-3 2 .9-1.9 3-2Z"/><path fill="#81ba3c" fill-opacity=".3" stroke="#81ba3c" stroke-opacity=".3" stroke-width=".5" d="M490 290q-.6 1.2-2 1 .6-1.2 2-1Z"/><path fill="#80ba3e" fill-opacity=".3" stroke="#80ba3e" stroke-opacity=".3" stroke-width=".5" d="M301.2 289.9q-.5 1.4-2.1 1.2c-.3-1.2 1.4-1.2 2.1-1.2Z"/><path fill="#81ba3c" fill-opacity=".3" stroke="#81ba3c" stroke-opacity=".3" stroke-width=".5" d="M493 288q.4-1 1.6-1c1.2.7-1 1.2-1.5 1Z"/><path fill="#81b93e" fill-opacity=".4" stroke="#81b93e" stroke-opacity=".4" stroke-width=".5" d="M155 472q-.2 1-1.1.4.4-.5 1.2-.4Zm335.7-.1.2 1-1 .3q.3-.8.8-1.3Z"/><path fill="#223f62" fill-opacity=".1" stroke="#223f62" stroke-opacity=".1" stroke-width=".5" d="m359.8 227 1 .3q0 .8-.2 1.5l-.6.8q-1-.6-1 .4-1.4.9-3 1.3c-.2-1.8 1.8-2.4 2.8-3.5q1 .3 1-.8Z"/><path fill="#2e3e4b" fill-opacity=".5" d="M150 243.3a8 8 0 0 1 5.1.3l-1.7 1.1c-.5-1-2.6-.6-3.6-.9z"/><path fill="#243c54" fill-opacity=".2" stroke="#243c54" stroke-opacity=".2" stroke-width=".5" d="M184 79.8q1.7-1.1 3.8-.6a5 5 0 0 1-3.7 2z"/><path fill="#21658f" fill-opacity=".4" stroke="#21658f" stroke-opacity=".4" stroke-width=".5" d="m359.8 112.8-3.4 1c-.7-1.1 2.5-2 3.1-2.4q.8.5.3 1.4Z"/><path fill="#2d4a66" fill-opacity=".6" stroke="#2d4a66" stroke-opacity=".6" stroke-width=".5" d="M51.7 113.4q.4.4 1 .6l.2.7h-3.8a7 7 0 0 1 2.5-1.3Z"/><path fill="#1d6185" fill-opacity=".3" stroke="#1d6185" stroke-opacity=".3" stroke-width=".5" d="M204.3 104.2q0-.8-.3-1.4.5-1.2 1.8-1.6.7-.4 1 .2-1 1.6-2.5 2.8Z"/><path fill="#265689" fill-opacity=".1" stroke="#265689" stroke-opacity=".1" stroke-width=".5" d="m310.3 155.2.7.8-2 1-1.8-.3q1.4-1.3 3.1-1.5Z"/><path fill="#265885" fill-opacity=".1" stroke="#265885" stroke-opacity=".1" stroke-width=".5" d="M36.8 71.8q1.1.1 1.3 1.3-1.2-.2-1.3 1l-2.5-.3z"/><path fill="none" d="m57.3 165 1.4.4q.4.6.3 1.4l-.9.2a3 3 0 0 1-1.8-.4q0-1.1 1-1.6"/><path fill="#2f4660" fill-opacity=".3" stroke="#2f4660" stroke-opacity=".3" stroke-width=".5" d="m85.6 268.3 1.3 1.4h-3.7q.9-1 2.4-1.4Z"/><path fill="#345274" fill-opacity=".7" d="M122.9 234.1q-1.4 1-3 .3c1 0 2.7-2 3-.3"/><path fill="#204771" fill-opacity=".1" stroke="#204771" stroke-opacity=".1" stroke-width=".5" d="M227.9 213.8q1 .1 1.2 1.2l-1.5 1q-1 0-1.6-1 1-.5 1.9-1.2Z"/><path fill="#365b87" fill-opacity=".3" stroke="#365b87" stroke-opacity=".3" stroke-width=".5" d="M27 275.8q2.1 0 4.1.5c-1.1.6-4 1.6-4.1-.5Z"/><path fill="#4c6131" fill-opacity=".4" stroke="#4c6131" stroke-opacity=".4" stroke-width=".5" d="M258.8 268.4v.6l.2.7h-3q1.2-1.2 2.8-1.3Z"/><path fill="#495f2f" fill-opacity=".4" stroke="#495f2f" stroke-opacity=".4" stroke-width=".5" d="M151.8 371.2q.2 1.3 1.2 2.2-.7.7-1.7.5c-.1-.7-.7-3 .5-2.7Z"/><path fill="#325072" fill-opacity=".6" d="M361.2 156q1 1 0 2.3-.2-1.2-1.3-1.7z"/><path fill="#465a2e" fill-opacity=".5" d="M132 471.4q-.2.7 0 1.4-1 0-2-.4 1-.8 2-1"/><path fill="#2c3540" fill-opacity=".2" stroke="#2c3540" stroke-opacity=".2" stroke-width=".5" d="M169.2 232.7q.9.3.8 1.2-1.5.1-2.8-.1.7-1 2-1.1Z"/><path fill="#2e4156" fill-opacity=".5" stroke="#2e4156" stroke-opacity=".5" stroke-width=".5" d="M104.7 257v1.8l-.9.3.2-1q.1-.7.7-1Z"/><path fill="#35577d" fill-opacity=".5" d="M357.6 35q1.3 0 1.3 1.3zm1.3 1.3q1.2 0 1 1z"/><path fill="#26282a" fill-opacity=".4" stroke="#26282a" stroke-opacity=".4" stroke-width=".5" d="m58.8 270.3 1.6-.5.7.5c-.1 1-1.8.5-2.3 0Z"/><path fill="#4b622f" fill-opacity=".4" stroke="#4b622f" stroke-opacity=".4" stroke-width=".5" d="M143.8 297.3q-.7.7-1.6.7.3-1.3 1.6-.7Z"/><path fill="#4d632f" fill-opacity=".4" d="M112.9 479.8q.8.4 1.3 1-1.1.1-1.3-1"/><path fill="#2a2a27" fill-opacity=".4" d="M142.2 298a3 3 0 0 1-1 1.2q0-1 1-1.2"/><path fill="#38608b" fill-opacity=".3" stroke="#38608b" stroke-opacity=".3" stroke-width=".5" d="M11 41.1a2 2 0 0 1-1 1.1q0-1 1-1Z"/><path fill="#314d6b" fill-opacity=".5" stroke="#314d6b" stroke-opacity=".5" stroke-width=".5" d="M337 124.3q1-.3 1.9 0-.9 1-2.2.9z"/><path fill="#0e4d61" fill-opacity=".5" stroke="#0e4d61" stroke-opacity=".5" stroke-width=".5" d="M278.2 94.8c-.3 1-2 3-3 1.7q1.2-1.4 3-1.7Z"/><path fill="#0e4f63" fill-opacity=".4" stroke="#0e4f63" stroke-opacity=".4" stroke-width=".5" d="M260 89q0-.9 1-.6-.4.6-1 .7Z"/><path fill="#0d4e60" fill-opacity=".4" stroke="#0d4e60" stroke-opacity=".4" stroke-width=".5" d="M15.7 84.6q.2 1.8 1.6 2.5-.8 1.2-2.3 1-.2-1.9.7-3.5Z"/></svg>