<svg xmlns="http://www.w3.org/2000/svg" style="shape-rendering:geometricPrecision;text-rendering:geometricPrecision;image-rendering:optimizeQuality;fill-rule:evenodd;clip-rule:evenodd" viewBox="0 0 512 512"><path fill="#41ab4e" fill-opacity=".9" d="M393.8 333q1.7 0 3.4.5c-.8 2.5-9.8 6-12.2 8q-.8.5-1.6 0c1.3-2.4 1.7-5 4.3-6.5q.4 1.2 1.6 1c1.2-.7 4-1.9 4.4-3"/><path fill="#389b42" fill-opacity=".2" stroke="#389b42" stroke-opacity=".2" stroke-width=".5" d="M125.9 106.2q.8.6.9 1.7a192 192 0 0 0-12.5 7H113q4.8-3.9 10-7.3a7 7 0 0 1 2.9-1.4Z"/><path fill="#3e9d48" fill-opacity=".3" stroke="#3e9d48" stroke-opacity=".3" stroke-width=".5" d="M114 85q1.3.4 1 1.7-5.5 3-10.8 6.2c-1.2.6-1.4-.7-.2-1.3z"/><path fill="#40ad4e" fill-opacity=".3" stroke="#40ad4e" stroke-opacity=".3" stroke-width=".5" d="M38 63c.3-1 2-2.6 2.9-1.6A3 3 0 0 1 38 63Zm52 8c-.4 1-2 2.6-2.9 1.6q1-1.5 2.9-1.6Zm2.8 200a4 4 0 0 1 2.7-2c1.1 1.2-2 2-2.7 2Zm32 6q0 .8.3 1.4c-.7.5-2.1 2.2-3 1.3a7 7 0 0 1 2.7-2.6Z"/><path fill="#41ac4e" fill-opacity=".4" stroke="#41ac4e" stroke-opacity=".4" stroke-width=".5" d="M57 83.2c.1-1.3 1.6-2.3 2.8-1.7q-.7 1.8-2.8 1.7ZM15 137l1.2.3-1.3.8zm109.7 45.2a3 3 0 0 1 3-2.2c1.3 1.1-2.3 2-3 2.2Zm-61.9 63q.6-2 2.7-2.1c1.5 1-2 1.7-2.7 2.1ZM302 468c0-.9 1.4-1.6 2-.7q-.8.9-2 .7Zm-25.2 4.2q.1-.8 1-1c1 .5-.8.9-1 1Z"/><path fill="#41ac4d" fill-opacity=".3" stroke="#41ac4d" stroke-opacity=".3" stroke-width=".5" d="M225 370c-.3.7-2 2.9-2.9 1.6a3 3 0 0 1 3-1.7Zm132.1 13q-.5 1.5-2.2 1c0-1.1 1.4-1.1 2.2-1Zm-57 62.1c-1 1.7-3.4 2.6-4.9 3.9l-.4-1.3a9 9 0 0 1 5.2-2.6Zm41.6 58.9h2.6c-.1 1.3-2.1 1.2-2.6 0Z"/><path fill="#41ab4f" fill-opacity=".3" stroke="#41ab4f" stroke-opacity=".3" stroke-width=".5" d="M138.9 350a3 3 0 0 1 2.6-2c1.2 1.2-1.9 2-2.6 2Zm160 120c-.2 1.5-5.5 3.8-6.6 5l-.2-1.1q0-.6.4-.8c1.8-.8 4.6-3.3 6.5-3Z"/><path fill="#40ab51" fill-opacity=".3" stroke="#40ab51" stroke-opacity=".3" stroke-width=".5" d="M70 181q-.3-.7-1-1 3.3-2.4 7-4.7c.7-.3 1.4-.9 2 0q-4 3-8 5.7Z"/><path fill="#3e9e49" fill-opacity=".2" stroke="#3e9e49" stroke-opacity=".2" stroke-width=".5" d="m364.7 377.2.2 1q0 .9-.8 1.3c-1.6.7-5.5 3.5-7 3.5.7-2 5.8-4.6 7.6-5.8ZM432 409q.3.9.1 1.7c-1.6 1.1-6.3 4.3-8 4.2.8-2 6-4.4 7.8-5.9Z"/><path fill="#41ac4e" fill-opacity=".5" stroke="#41ac4e" stroke-opacity=".5" stroke-width=".5" d="M82.8 200.2a3 3 0 0 1 2.7-2.1c1.8 1-2 2-2.7 2Zm100.2 146 .3 1c-.7.4-2.2 2.5-3 1.3a4 4 0 0 1 2.7-2.3Zm291.7 99q.9-1.8 2.9-2.2c1.4 1.2-2.2 2-2.9 2.2Z"/><path fill="#32943e" fill-opacity=".2" stroke="#32943e" stroke-opacity=".2" stroke-width=".5" d="M290.7 474.3v.9c-.3 1.4-3.5 2.8-4.6 3.7-.6 0-1.9.1-1.8-.7q2.9-2.5 6.4-4Z"/><path fill="#41ac4e" fill-opacity=".3" stroke="#41ac4e" stroke-opacity=".3" stroke-width=".5" d="M201 353v1.3q-1.2 1.1-2.8 1.7v-.8q1.2-1.2 2.7-2.3Zm223 62q-.5 1.3-2 1c-.1-1.2 1.4-1.1 2-1Zm-65 32a3 3 0 0 1-3 2.2 3 3 0 0 1 3-2.2Z"/><path fill="#348a3c" fill-opacity=".1" stroke="#348a3c" stroke-opacity=".1" stroke-width=".5" d="M69 180q.7.3 1 1l-4.6 3q-.1-1.2-1.5-1.4 2.4-1.5 5-2.6Z"/><path fill="#399448" fill-opacity=".9" d="m403 328 .7-.3 2.5.1c.7.5 4 1.4 4 2.2q-3.6 0-6.7-1.3z"/><path fill="#3fa950" fill-opacity=".2" stroke="#3fa950" stroke-opacity=".2" stroke-width=".5" d="M26 119c-.8 1.8-3.4 3-5 4v-1.3a8 8 0 0 1 5-2.7Z"/><path fill="#3ea951" fill-opacity=".2" stroke="#3ea951" stroke-opacity=".2" stroke-width=".5" d="M295 413c-1 1.7-3.3 3-5 4v-1.3q2-2.4 5-2.7Z"/><path fill="#399743" fill-opacity=".2" stroke="#399743" stroke-opacity=".2" stroke-width=".5" d="M186.6 343q-.3 1.4 1 1.7l-4.3 2.4-.3-.9z"/><path fill="#3a8843" fill-opacity=".8" d="M387.3 506.3c-.3 1-1.7.5-2.4.4a7 7 0 0 0-3.1.4l-1-.4c1.8-1.1 4.5-.6 6.5-.4"/><path fill="#379041" fill-opacity=".2" stroke="#379041" stroke-opacity=".2" stroke-width=".5" d="M170 383a5 5 0 0 1-2.7 2.7q0-1-1-1.2a5 5 0 0 1 3.6-1.5Z"/><path fill="#41ac4e" fill-opacity=".3" stroke="#41ac4e" stroke-opacity=".3" stroke-width=".5" d="M55 115q-1 2-3 2.2a3 3 0 0 1 3-2.2Zm351.2 212.8h-2.5q1.3-1.3 2.5 0Z"/><path fill="#35b840" fill-opacity=".2" stroke="#35b840" stroke-opacity=".2" stroke-width=".5" d="M227.7 367q-.3 1.5 1.4 1.4a7 7 0 0 1-4 1.5 7 7 0 0 1 2.6-3Z"/><path fill="#43af4e" fill-opacity=".3" stroke="#43af4e" stroke-opacity=".3" stroke-width=".5" d="M38 63a9 9 0 0 1-3 3q-.4-.6-1-.9a5 5 0 0 1 4-2Z"/><path fill="#389041" fill-opacity=".2" stroke="#389041" stroke-opacity=".2" stroke-width=".5" d="M228.7 350.3q0 1 1 1.2-1.4 1.5-3.5 1.3a5 5 0 0 1 2.5-2.5Z"/><path fill="#359041" fill-opacity=".2" stroke="#359041" stroke-opacity=".2" stroke-width=".5" d="M138.9 350a4 4 0 0 1-2.7 2.7q0-1.2-1.3-1.2 1.8-1.4 4-1.5Z"/><path fill="#46ab4f" fill-opacity=".2" stroke="#46ab4f" stroke-opacity=".2" stroke-width=".5" d="m93 68.7 1 .1a5 5 0 0 1-4 2.2 4 4 0 0 1 3-2.3Z"/><path fill="#41ac4e" fill-opacity=".6" d="m198.1 355.2.1.8c-.5.6-2.1 2.8-2.9 1.5q1-1.7 2.8-2.3m160.6 150.7q2.2-.1 4.6.2c-.3 1.2-4.2 1.5-4.6-.2"/><path fill="#3fa24b" fill-opacity=".9" d="M412.1 503.2c-.6 1.4-3 1-4.2.8.5-1.5 3-1.4 4.2-.8"/><path fill="#33c43a" fill-opacity=".1" stroke="#33c43a" stroke-opacity=".1" stroke-width=".5" d="M116.6 216q1.2-.2 1.4 1-1.4 1-3 1 .3-1.4 1.6-2Z"/><path fill="#40ad4d" fill-opacity=".2" d="M381.8 507.1q1.5-.5 3-.4c.3 2-2.6 1.7-3 .4"/><path fill="#3a8c44" fill-opacity=".7" d="M281 367c.5.1 2.2 0 2.2.9a2 2 0 0 1-2.3-1m2.2.9q.7.1 1.2.8-1.2.3-1.2-.8"/><path fill="#40ae4f" fill-opacity=".2" stroke="#40ae4f" stroke-opacity=".2" stroke-width=".5" d="m190.8 322 .4 1.3q-.9.9-2.2.7.3-1.4 1.8-2Z"/><path fill="#36773e" fill-opacity=".6" d="M312.9 496.9a7 7 0 0 1 3.2.8c-1 0-3.2.8-3.2-.8"/><path fill="#3a8744" fill-opacity=".3" stroke="#3a8744" stroke-opacity=".3" stroke-width=".5" d="M289.9 372.5c.7-.5 2.4-.6 2 .8z"/><path fill="#327e41" fill-opacity=".8" d="M377.8 329c.2 1-1.3 1-2 .8 0-.8 1.4-.8 2-.9"/><path fill="#41a94c" fill-opacity=".3" stroke="#41a94c" stroke-opacity=".3" stroke-width=".5" d="M292.6 372.9q1.2 0 1.5 1.3-1-.3-1.5-1.3Z"/><path fill="#42ae4d" fill-opacity=".3" stroke="#42ae4d" stroke-opacity=".3" stroke-width=".5" d="M131 228v.8l-1 .2q.1-.8 1-1Z"/><path fill="#41ae4c" fill-opacity=".2" stroke="#41ae4c" stroke-opacity=".2" stroke-width=".5" d="M332.3 368.8q-.3 1-1.2 1.5.1-1 1.2-1.5Z"/><path fill="#378040" fill-opacity=".5" d="M414.4 502q-.5.9-1.5.9.4-1 1.5-.8"/><path fill="#35994a" stroke="#35994a" stroke-width=".5" d="M104.9 12.4c2.9.2 11.4 1.9 12.3 5l-3.9 5c1.2.4 6-2.4 6.7-3.4 2.3 1 7.2 6.9 7 9.8q-2 2.2-3.7 4.6c1.6.7 4-1.3 5-2.4q4 7.9 8.7 15.5c7.4 12.4 26.1 36.4 31 48.2-1.7 0-4.4 2.8-6.1 3.5q-1.6.8-2.6 2.2.7.5 1.7.2l8-5c8.6 18 11.8 36.4-4.5 51.3q-.6.6-1.4.5L91 16.3q-.6-1.3.5-2.1 2.7-1 5.7-1.1a14 14 0 0 1-.9 3.5q.7.5 1.6 0zm286.3 314.3q-6.8 1.3-13.4 2.2 0-.5.6-.8l8.1-4q3 0 4.6 2.6Zm-1 5.6q-1.6 1-2.5 2.7c-2.6 1.6-3 4.1-4.3 6.5q.7.5 1.6 0c2.4-2 11.4-5.5 12.2-8q11.6 5 22 12.2c-.8 3.6-5 7.8-7 11q-.1.6.2 1.1 6-3 11.6-6.4 1.2-.8 1-2.3c15.3 10.5 32 17.3 47.9 26.5 16.4 10 28.9 23.4 22.1 44q-.2.7-.8 1-51-27.4-101.9-55.5-.9-.4-1.3-1.3l9-5.3a5 5 0 0 0 2-2.9q-.4-.4-1 0l-11.6 6.4a1 1 0 0 0-.4 1l-23.8-12.6q-2.2-1.3-.4-3.1c7.2-6.4 14.7-16.1 25.5-15Z"/><path fill="#262626" stroke="#262626" stroke-width=".5" d="M112 6.3c1.2 1 5.2.8 6.8 1h1q.5.6 1.4.6 0 1 .8 1.1c14.8 7 17.7 16.2 25.1 29.4 9.9 15.6 47.2 69.2 42.5 85.9-7.3 31.7-58 46.9-54.5 79.2 23.4 63.6 81 110.2 131 153 4.6 3.3 9.8 7.9 14.8 10.5a2 2 0 0 0 2.3.9q0 1 1.2.8 2.3 2.4 5.5 3.8l2 .8.7-.4q.4.9 1.5 1.3c9.6 6 30 5.8 37-4q.9-.4 1.2-1.4.3 0 .5-.3 1 .1 1-.8c13.5-15.4 21.9-29.2 42-37.9.7.2 2.2.2 2-.9q6.6-.9 13.3-2.2 5.9 1.4 11.9 1.3 0 .5.5.7 3.2 1.3 6.6 1.3l2.2 1.3c21 7.9 40.8 22.4 60.2 33.7 25.3 9.3 41.7 28 34.2 56.3-12.7 39-52.8 71.7-92.3 80.8q-1 0-1.5.8l-.8.3c-1.1-.6-3.8-.7-4.2.8-5.3-.1-14.8 1.8-20.6 2.3-2-.2-4.7-.7-6.5.4q-8.7-.6-17.5-.6a19 19 0 0 0-4.6-.2l-14.4-2-2.6.1q-4.2-1.6-8.6-2.1c-1-1-4-1-5.3-.8a205 205 0 0 0-15-4.2 351 351 0 0 1-118.1-62.2C109 364.7 8 264 3.3 146.5c-.6-52.9 13.5-93 57.3-124.3C75.7 11.7 93.2 3 112.1 6.2ZM97.4 13q-3 0-5.7 1-1 .9-.5 2.2l72 131q.8.3 1.4-.4c16.3-14.9 13-33.3 4.4-51.3a2 2 0 0 0-1-.9C163.1 83 144.5 59 137 46.5q-4.5-7.5-8.6-15.5c-.3-.6 0-3.2-1.3-2.2.2-3-4.7-8.8-7-9.8q-.9-2-2.8-1.6c-.9-3.1-9.4-4.8-12.3-5q-4-.8-7.7.7ZM32 66a2.5 2.5 0 0 0-1.7 2.7c-3 4.7-6 11.1-7.2 16.5Q21.5 88 20.9 91a145 145 0 0 0-4.7 20.8 39 39 0 0 0-1.1 12.6q-.3 1.4 0 2.6-1 5-.1 10.1v1q-.3 2.4.1 4.8.4 10.8 2.6 21.3c.4 1.2 0 4 1 4.7.2 2 1 8.2 2.5 9.6-.6 1 .5 6.4 1.6 6.4.6 5.8 3.5 12.8 5.2 18.5l1.7 4.6a241 241 0 0 0 9.3 22.2 68 68 0 0 0 4.2 9.2q.8 2 1.8 3.8 2.2 4.7 4.7 9.2.3 1 1.2 1.6c.8 2.4 3.4 7.8 5.3 9.2 0 1.3 1.4 4.5 2.7 4.6.9 3.3 7.6 14.5 10.3 16.6-.4 1.7 1.5 3.5 2.4 4.7l5.3 8.4c1.1 1 2.4 4.4 4 4.4 1 3.1 3.8 7 6.2 9.2q0 .6.7.8c1 3 4.3 6.2 6 8.9l2.8 3q8.5 12 18.4 22.7l2.8 3.7c2.1 1.7 5 6.4 7.4 7.2q.3 1.6 1.4 2.7c2 1.6 5.4 6.5 7.7 7.2-.1 1.3 3.3 4.8 4.7 4.8-.2 1.8 5 5.6 6 7.3 1.3.7 3.5 4.2 5.1 3.5-.2 2.3 5.3 6 6.8 7.6q.6 1.1 2 1.3a23 23 0 0 0 7.1 7q1.5 2 3.6 3.3c4.5 4.1 10.6 10 15.7 13 .2 1.5 3.1 3.3 4.3 4q7.7 6.7 16 12.3l3 2.8q4.6 3.3 9.3 6.2 2.2 2 4.8 3.5 4 3 8.3 5.5 2.7 1.9 5.6 3.5c2.3 1.6 7 5 9.6 5.3.3 1.3 5 4 6.5 3.7 1 2 7.4 5.2 9.5 5.4a3 3 0 0 0 2.4 1.6c2.8 1.9 16 8.5 19.7 9.4 0 .8 1.2.7 1.8.7.8 1.4 8 3.8 9.9 4.4q2.8 1.4 5.7 2.4c8 2.7 16.3 5.8 24.5 7.5l1.5.6q13.1 3.3 26.5 5l4.5.1c5.1 1.5 11.3 1.1 16.6 1q2.7.3 5.4 0c10.6 0 20.1-2.5 30.4-4.5 28.8-6.4 60.7-31.9 75.2-57q.6-.8.8-1.5c.5-1.1 4.4-4.4 3.1-5.6L447.6 408a29 29 0 0 0-6.9-3q0-.7-.7-.6c-1-1.7-39.8-22.4-45-25l-1.9-1.6-14.1-7-1.7-1.4q-6.6-3.9-13.6-7 .1-.4-.4-1c-1.7-.3-6.8-4-8.3-3.4l-12 14.4c-.1.9-8 5-9.1 6a49 49 0 0 1-23.9 6.5l-13.2-1.5a10 10 0 0 0-5.5-1.2c-.7-1.2-17.7-8.1-20.5-9.4a9 9 0 0 0-5.5-3.4 124 124 0 0 0-17.6-12.4c.2-1.5-1.7-2.3-2.7-2.8l-8-7.4q-1-.6-2.1-.7c.2-1.5-5.1-5-6.2-6.3a5 5 0 0 0-2-1c0-1.3-2.4-3.1-3.6-3.5-1-2.3-5.4-5.1-7-7.4l-5.7-4.7a30 30 0 0 0-7.6-7q-.6-1.1-1.4-2l-7.6-6.5c.2-1.1-1.8-2.7-2.5-3.6L171 281.7a84 84 0 0 1-10-11.2q-.7-.6-1.7-1.1c-1-1.8-4.7-6.8-6.5-7.4.2-1.3-2.5-4.5-3.7-4.8-.8-2.3-4.4-6.7-6.2-8.5-.3-1.2-1.4-3.5-2.8-3.4-1.5-4.3-6.6-12.3-9.1-16.5v-.9l-2.6-5.8-2.2-7.8a2 2 0 0 0-1.4-1.7q1.5-1 .1-2.3l-.2-11.6a9 9 0 0 0 .2-3.6c1.6-6.1 4.4-11.7 6.4-17.6q.3-.3.7-.2 0 .5.3.6.8-1 .8-2 9.4-10.3 20.5-18.7.3-.7-.1-1.3l-7.6-14.1-1.4-1.7q-4.6-9.3-9.7-18.4-.7-1.5-2-2.5c-.4-2.5-4.2-9-6-11.3q0-1-1-1.7c-2.9-6-7-14.3-10.8-19.5q.3-1.3-1-1.6c-2.3-6.6-7.9-15-11.1-21.5l-1.2-1.5q-9.2-18-19.4-35.5 0-1-1.2-1.3c-.5-1.5-1.2-5.7-3.5-5.2-16.3 8.2-38.5 29.5-45.6 46Zm357 297q.9.6 2 .7.4.9 1.3 1.3 51 28 101.9 55.6.6-.4.8-1.1c6.8-20.6-5.7-34-22.1-44-16-9.2-32.6-16-48-26.5q-2.8-1.5-5.7-3.4-10.4-7.2-22-12.2a10 10 0 0 0-3.4-.6 5 5 0 0 0-3.5-.6c-10.8-1.1-18.3 8.6-25.5 15q-1.7 1.8.4 3z"/><path fill="#41a64c" fill-opacity=".5" d="M119.8 7.2q1 0 1.4.7-.8 0-1.4-.7m1.4.7q.8.3.8 1.1-.9-.2-.8-1.1"/><path fill="#41ac4e" stroke="#41ac4e" stroke-width=".5" d="m81.1 25.3-1.6.7a63 63 0 0 0-6.3 5.4c1.2 1 7.8-3.8 9.1-4.7A837 837 0 0 1 101.7 62l-7.2 5q-.8.7-1.4 1.6A4 4 0 0 0 90 71q-2 0-3 1.6c1 1 2.5-.6 2.9-1.6a5 5 0 0 0 4-2.2c1.4 0 8-4 8.9-5.2 3.2 6.5 8.8 14.9 11 21.5l-9.9 6.5c-1.2.6-1 1.9.2 1.3l10.8-6.2a132 132 0 0 1 10.9 19.5 7 7 0 0 0-3 1.4 143 143 0 0 0-10 7.3 4 4 0 0 0-2.8 1.7c1 1.1 2.6-.7 2.9-1.7h1.3q6.2-3.7 12.5-7c1.8 2.3 5.6 8.8 6 11.3-3.8 1.6-18.8 13.5-23.9 16.2q-.8.5-.7 1.4c-2 .2-3.7 1.5-5 2.9 1 1.7 4.4-1.7 5-2.9 1.9-.1 25-13.4 26.6-15.1q5 9 9.7 18.4-3.6 3-7.5 5.4-.7.5-.8 1.4a8 8 0 0 0-5.3 3c-1 .3-2.6.6-2.9 1.7 1 1.2 2.7-.7 3-1.7 2 .2 4-1.3 5.2-3q.9 0 1.8-.4l7.9-4.7 7.6 14.1q.3.6.1 1.3a139 139 0 0 0-22.3 20.3c-2 6-4.8 11.5-6.4 17.6a98 98 0 0 0-16.8 12.6q-2 .3-3 2c1 1.3 2.6-1.1 3-2 2.7.2 13.8-7.2 16.6-9l.2 11.6-1.5.6-6.8 5q-1.3.7-1.6 2.2-2-.3-3 1.5c1 1.2 2.5-.8 3-1.5q1.6-.1 3-1.2 3.5-1.9 6.8-4.2a2 2 0 0 1 1.4 1.6l2.2 7.8c-3 3-24.8 19.9-25.2 21.8q-2 0-3 1.7c.9 1.3 2.6-1 3-1.7h1.1L130 229l1-.2c2.5 4.2 7.6 12.2 9.1 16.5-3 .8-16.6 13.7-21.1 16.2-1.5.8 0 1.6 1 1q10.5-6.3 21.5-12.5l1.4-1.3c1.8 1.8 5.4 6.2 6.2 8.5a196 196 0 0 0-23 19.8h-1.3a7 7 0 0 0-2.6 2.7c.8.9 2.2-.9 3-1.3l1-.7 25.5-14.5a2 2 0 0 0 1-1.2c2 .6 5.5 5.6 6.6 7.4l-9 7c1 .9 1.7-.7 2.5-1.1a42 42 0 0 0 8.2-4.8q3 3.9 6.3 7.5c-4.2 3.5-17.4 13.7-20.2 16.8q-1.9.3-2.9 1.8c.6 1 3-.5 2.9-1.8 3.2 0 20-10.8 24-13.1l20.2 22.3q-1.2 0-2.3.7l-21.7 17.7q1.2.6 2.3-.2c7.5-5.3 16.6-9.4 24.2-14.6l7.6 6.5q-4.3 3-8.5 6.3-.7.6-.6 1.6h-1.5q-1.4.5-1.7 2a3 3 0 0 0-3 1.7c1 1.2 2.5-1 3-1.7q1.2.2 2-.7l1.3-.6 9.3-5.4q1-.3 1-1.3a30 30 0 0 1 7.7 7.1L186.6 343l-3.6 3.2a4 4 0 0 0-2.7 2.3c.8 1.2 2.3-1 3-1.4l4.4-2.4c5-3.1 25.5-14.2 28.4-17 1.6 2.4 6 5.2 7 7.5a825 825 0 0 0-20.2 16.2q-.8.8-.5 1.8l-1.5-.3q-1.6 1-2.8 2.3a5 5 0 0 0-2.8 2.3c.8 1.3 2.4-1 3-1.5q1.6-.5 2.8-1.7l1.3-.6 24-13.8q.4-.5.4-1.2a5 5 0 0 1 1.9 1c1 1.3 6.4 4.8 6.2 6.3-1.7.2-4.7 3.4-6.2 4.3a5 5 0 0 0-2.5 2.5q-2.1 0-3 1.8c.8 1.2 2.7-.9 3-1.8q2.1.2 3.6-1.3c2.7-1.6 5-2.4 7.2-4.8l8 7.4c-1.7-.2-14.6 11.5-17.3 12.9a7 7 0 0 0-2.6 3q-2 0-3 1.6c1 1.2 2.6-.9 3-1.7q2.2 0 4-1.5 8.7-5.2 17.6-10.2.9-.4 1-1.4c4 2 13.8 9.2 17.6 12.5l-25 20q.7.6 1.7.3l28.8-17c2.7 1.4 19.8 8.3 20.5 9.5L272 396.5q-.8.4-.8 1.3c-1 .3-2.8.7-3 1.8.9 1.3 2.6-1 3-1.8 2.1.2 21-11.5 24.5-13.4q1-.3 1-1.1l13.3 1.5q0 .7-.5 1.2l-33.1 26.3c1.4 1.6 3.1-1.2 4.6-1.7q26.7-15.1 53.1-30.6l29-16.6q.8-.3.6-1 7 3 13.6 6.9-1 .7-2.4 1-5 3.5-10.2 6.8c-1.8 1.3-6.9 4-7.6 5.8-.8 0-2.2 0-2.2 1.1q-1.8.2-2.9 1.7c.9 1.1 3.2 0 3-1.7q1.5.5 2.1-1c1.5 0 5.4-2.9 7-3.5q.8-.4.8-1.3 1.2 0 2.1-.6l12-7 14.1 7c-6.7.4-23.4 17.2-31.2 20q-.8.4-.8 1.3-2.4 0-3.2 2.1c-1.7-.2-3.6 1.4-4.8 2.5 1.3 1 4.1-1.2 4.8-2.5q2.2-.3 3.2-2.1 1 0 2-.3a367 367 0 0 1 30.3-17.7q1.1-.6 1.6-1.6c5.1 2.6 44 23.3 45 25a2 2 0 0 0-1.7.4q-3 2.3-6.4 4.3c-1.9 1.4-7 3.8-7.8 6-.7-.1-2.2-.2-2 1q-2 .1-3.1 1.7c1 1.2 3.2-.2 3-1.8q1.5.5 2-1c1.8 0 6.5-3.1 8.1-4.2l8.3-4.8q.4-.5.3-1 3.6 1 7 3l42.5 23.4c1.3 1.1-2.6 4.4-3.1 5.6q-1 .3-.8 1.5c-14.5 25.1-46.4 50.5-75.2 57-10.3 2-19.8 4.6-30.4 4.5l15-10.7q3.5-2.6 7.4-4.7.8-.4.7-1.3c.7 0 4.3-1 2.8-2.1q-2 .1-2.8 2c-2.3-.1-2.9 1.2-4.7 2.4l-23 13.1q-.8.6-.8 1.4c-5.3 0-11.5.4-16.6-1q8.7-6.2 17.6-12.1c1-.9 3.9-1 3.6-2.7.5 0 2.6-.5 1.6-1.3q-1 .3-1.6 1.3c-1.5-.2-2.5 1.2-3.9 1.6q-10.5 6.4-21.4 12.3-.4.2-.4.7-13.5-1.7-26.5-5 9.5-6.4 19.4-12.3.9-.4.8-1.4c1 0 6-2 4.7-3.2-1.4 0-4 1.9-4.7 3.2q-3 .3-4.8 2.5l-16.1 9q-1 .6-.8 1.6c-8.2-1.7-16.5-4.8-24.5-7.5q26-17 52-34.4l2.2-2q2.3-.3 3-2.3 1.2.2 2-.7c-.6-1-1.7 0-2 .7q-2.2 0-3 2.2l-2 .1-58 34c-1.8-.6-9-3-9.8-4.4 1.1-.9 4.3-2.3 4.7-3.7l1.5-.2c1.1-1.2 6.4-3.5 6.7-5q2.1 0 3-2 1 .2 2-.7c-.7-1-2.1-.2-2 .7q-2.3.1-3 2c-1.9-.2-4.7 2.3-6.5 3a1 1 0 0 0-.4.9q-.8 0-1.4.3-3.5 1.5-6.4 4c-3.7-.9-17-7.5-19.7-9.4 3.1-2.4 28.9-18.4 29.1-19.7l1.5-.1c1.5-1.3 3.8-2.2 4.8-3.9q1.3 0 2.1-1c.7-.2 3.8-1.2 2.5-2.2q-2.3 0-2.5 2.2-1.5-.3-2 1-3 .5-5.3 2.6l-1 .7-30.5 17.3a2 2 0 0 0-1.1 1.5c-2.2-.3-8.6-3.5-9.5-5.4 22.8-15.2 45.5-31.4 68.4-46.3q.9-.5.7-1.4c1 0 5.9-2 4.7-3.2-1.7-.2-3.8 2-4.7 3.2-2.8.3-7.7 4.3-10.5 5.7q-32 18.2-64 36.8-1 .5-1.1 1.5c-2.7-.3-7.3-3.7-9.6-5.3L290 417c1.7-1 4-2.3 5-4a3 3 0 0 0 3-2c.5.2 2.8-.3 1.5-1.1q-1.2 0-1.6 1.2-2 0-2.8 2-3 .2-5.1 2.6-1.6.4-3 1.4l-56 32.2q-4.3-2.6-8.3-5.5c10-7.6 20.9-18 31.4-24.2q.6-.3.6-1c-1.5-1.2-2 .9-3.3 1.3q-16.3 9.1-32.5 18.6-1 .6-1 1.8-4.7-3-9.2-6.2 11.7-8.5 23-17.5-1.7-.5-2.5 1a432 432 0 0 0-23.5 13.7q-8.5-5.7-16-12.4l28-22.2c-1.5-1.6-3.2 1.2-4.7 1.7l-26.7 15.3q-1 .5-1 1.4c-5.1-3-11.2-9-15.8-13 7.5-5.7 18.3-16 26.1-20 .1-2.3-4 1.2-4.5 1.6-4.2 2.6-22.9 12.7-25.1 15a23 23 0 0 1-7.2-7A79 79 0 0 0 170 383c.9.2 3.7-1 2.7-2a3 3 0 0 0-2.7 2 5 5 0 0 0-3.7 1.4c-2.4 1.7-7.6 4-9.3 6-1.6-1.6-7-5.3-6.8-7.6 2.3-.3 23.1-18.4 26.6-21.2q-1.7-.6-2.6 1-14.7 8-29.1 16.6c-1-1.6-6.2-5.4-6-7.2q14.5-12 28.7-24.3c-.7-.7-2.3.4-3 .7L135 365.6q-.9.6-.7 1.6c-2.3-.7-5.6-5.6-7.7-7.2a161 161 0 0 0 9.6-7.3 4 4 0 0 0 2.7-2.7c.7 0 3.8-.8 2.6-2a3 3 0 0 0-2.6 2q-2.2.1-4 1.6l-9.7 5.7c-2.4-.8-5.3-5.5-7.4-7.2 2.8 0 20-15.7 23.8-18q.3-.5.2-1 1.2 0 2.3-.5 1.8-1.6-.5-1.3-1.2.5-1.8 1.8a389 389 0 0 0-26.8 15.3 259 259 0 0 1-18.4-22.6c6.1-5.1 16-12.4 21.3-17.6.5-.3 3.8-1.2 2.6-2.1q-2.1.1-2.6 2c-5 1.7-17.4 9.7-22.9 12.6q-.9.8-1.3 2c-1.6-2.7-4.9-5.9-6-8.9q2.6-1.2 4.7-3 1-.6 1.6-1.7c.8 0 3.5-1 2.5-2.1q-2.2 0-2.5 2c-1.5 0-6.7 2.5-6.9 4-2.4-2.3-5.3-6-6.3-9.2a2 2 0 0 0 2-.4q12.8-11 25.8-21.7-.7-.7-1.6-.4l-30 18q-2.8-4-5.4-8.3c5.5-4.6 17-12.9 21.2-18 .7 0 3.8-.8 2.7-2q-2 .4-2.7 2l-1.1.1q-11.3 6.4-22.5 13.2A61 61 0 0 1 59 267.7q.9.1 1.8-.4l26-21.6a1 1 0 0 0-1-.3l-28.4 16.3q-1 .4-1 1.4c-2-1.4-4.6-6.8-5.4-9.3q1 .2 1.8-.5 4.4-3.7 9.4-6.7.7-.6.7-1.4c.6-.4 4.2-1 2.7-2.1q-2.1 0-2.7 2.1l-1.8.2q-5.6 3.6-11.3 6.9-2.5-4.4-4.7-9.2c2.8-.4 22-16 25.7-18.8q1.5-.7 3-1.7c-1.6-1.6-3.4 1-4.5 2q-13.1 7-26 14.7-2.5-4.4-4.3-9.3 1.2.4 2.1-.3c13-9 27.4-20.8 41-28.3q.8-.4.8-1.2c.7 0 4.5-1 2.7-2.1a3 3 0 0 0-2.7 2c-2.2-.2-3 1.4-4.7 2.5q-20.7 11.4-41 23.7a241 241 0 0 1-7.4-18.4l1.8-.8L78 175.4c-.5-1-1.2-.4-2-.1q-3.6 2.2-7 4.7-2.6 1-5 2.6l-36 20.7c-1.7-5.7-4.6-12.7-5.2-18.5q1.2.1 2.2-.5l49.6-35.1c2-1.5 3.9-1.8 5.4-4 .7 0 3.5-1.2 2.5-2.2q-2 0-2.5 2.2-1-.1-2 .1l-56.8 33c-1.6-1.3-2.3-7.4-2.4-9.5l42.5-28.9q.5-.2.5-.8c.7 0 4-1 2.8-2.1q-2.2 0-2.8 2.1-3 0-4.6 2.5-20 11-39.5 22.5a125 125 0 0 1-2.6-21.3c3-.4 30.6-20.7 35.3-24q.9-.7 1.6-1.6 2-.3 3-2.2c.4.2 2.7-.3 1.6-1q-1.1 0-1.7 1a3 3 0 0 0-3 2.2 6 6 0 0 0-2.5.7q-16.7 9.5-33.2 19.4L15 137q-1-5 .1-10l6-4c1.5-1 4-2.2 5-4q3-.4 4.8-2.7c-.8-1.3-4.6 1.7-4.9 2.7a8 8 0 0 0-5 2.7l-6 2.6a39 39 0 0 1 1.2-12.5q.9.5 1.8-.1L54.8 85q1.3-.8 2.2-1.9 2 .1 2.8-1.7c-1.2-.6-2.7.4-2.8 1.7q-.7 0-1.3.2l-36.8 21.1q-.7 1-1.8 1.5A145 145 0 0 1 21 91c2.5.4 23.9-16.3 27.4-19q1.7-.7 3.4-1.8 0-.9-1-.7L23 85.4a60 60 0 0 1 7.2-16.6q2.5-1.1 4.7-2.8a9 9 0 0 0 3-3q2 0 2.9-1.6c-1-1-2.6.7-2.9 1.6a5 5 0 0 0-4 2.1q-1 .7-2 1c7-16.5 29.3-37.8 45.6-46 2.2-.5 3 3.7 3.5 5.2Zm43.6 157c.7-.2 4.3-1.2 3-2.3q-2.2.2-3 2.2Zm-86 31.7q.8 0 1.2-.6-.8-.3-1.2.6Zm-2 1.2c.1 0 1.9-.5.9-1q-.7.3-.9 1Zm382.5 130.5 5.8 3.4q.2 1.5-1 2.3-5.7 3.4-11.6 6.4-.4-.5-.1-1.1c1.9-3.2 6.1-7.4 7-11Zm-55.6 16.7q-1.4-.7-2.7-.1l-12.6 7.5-5.3 2.5 12-14.4c1.5-.6 6.6 3 8.3 3.5q.4.4.3 1Zm111.1 82.9c.7-.3 4.3-1.1 2.9-2.3q-2 .3-2.9 2.2Zm-198 26.9c.2-.1 2-.5 1-1q-.9.2-1 1Zm135 20.2c.9 0 4.3-1.5 2.8-2.3q-2.1.3-2.7 2.3Z"/><path fill="#42ab4d" fill-opacity=".4" stroke="#42ab4d" stroke-opacity=".4" stroke-width=".5" d="M403.8 483.2q.7-2 2.8-2.1c1.5 1-2 2-2.8 2Z"/><path fill="#42ab4e" fill-opacity=".3" stroke="#42ab4e" stroke-opacity=".3" stroke-width=".5" d="M302.1 444.1q-.8 1-2 1 .5-1.3 2-1Z"/><path fill="#40ac4e" fill-opacity=".3" stroke="#40ac4e" stroke-opacity=".3" stroke-width=".5" d="M298 411a3 3 0 0 1-3 2q.8-2 3-2Z"/><path fill="#41ac4e" fill-opacity=".6" stroke="#41ac4e" stroke-opacity=".6" stroke-width=".5" d="M358 401c-.8 1.3-3.6 3.6-4.9 2.5 1.2-1 3-2.7 4.8-2.5Z"/><path fill="#42ab4e" fill-opacity=".3" stroke="#42ab4e" stroke-opacity=".3" stroke-width=".5" d="M361.1 398.9q-1 1.9-3.2 2.1 1-2.1 3.2-2.1Z"/><path fill="#42ab50" fill-opacity=".3" stroke="#42ab50" stroke-opacity=".3" stroke-width=".5" d="M170 383a3 3 0 0 1 2.6-2c1 1-1.8 2.2-2.6 2Z"/><path fill="#40ac4f" fill-opacity=".3" stroke="#40ac4f" stroke-opacity=".3" stroke-width=".5" d="M226.2 352.8c-.3 1-2.2 3-3 1.8a4 4 0 0 1 3-1.8Z"/><path fill="#41ac4e" fill-opacity=".4" stroke="#41ac4e" stroke-opacity=".4" stroke-width=".5" d="M189 324c-.4.8-2 2.9-2.8 1.7a3 3 0 0 1 2.9-1.7Zm113 144q-.9 2-3 2 .8-1.9 3-2Zm45.9 12.1c.7-1.3 3.3-3.2 4.7-3.2 1.3 1.1-3.8 3.2-4.7 3.2Z"/><path fill="#42ab4f" fill-opacity=".3" stroke="#42ab4f" stroke-opacity=".3" stroke-width=".5" d="M94 307q.4-2 2.5-2c1 1-1.7 2.2-2.5 2Z"/><path fill="#40ac4e" fill-opacity=".5" stroke="#40ac4e" stroke-opacity=".5" stroke-width=".5" d="M117.9 306.2q.5-2 2.6-2.1c1.2.9-2 1.8-2.6 2Z"/><path fill="#41ad4f" fill-opacity=".4" stroke="#41ad4f" stroke-opacity=".4" stroke-width=".5" d="M103.2 243.9c-.4.7-2.2 3-3 1.7a3 3 0 0 1 3-1.7Z"/><path fill="#42ab4d" fill-opacity=".3" stroke="#42ab4d" stroke-opacity=".3" stroke-width=".5" d="M115 218c-.5.8-2 2.8-3 1.6q1-1.8 3-1.5Z"/><path fill="#41ac4d" fill-opacity=".3" stroke="#41ac4d" stroke-opacity=".3" stroke-width=".5" d="M108 207.7c-.3.9-1.8 3.3-2.9 2a4 4 0 0 1 3-2Z"/><path fill="#43aa4f" fill-opacity=".3" stroke="#43aa4f" stroke-opacity=".3" stroke-width=".5" d="M136.2 146.9c-1.1 1.7-3.2 3.2-5.3 3a8 8 0 0 1 5.3-3Z"/><path fill="#41ac4e" fill-opacity=".4" stroke="#41ac4e" stroke-opacity=".4" stroke-width=".5" d="M80 145.2q.4-2 2.5-2.2c1 1-1.8 2.1-2.5 2.2Zm-43.3 70q.2-.7.9-1c1 .5-.8 1-.9 1Zm375 277.2q.7-2 2.8-2.3c1.5.8-2 2.4-2.7 2.3Z"/><path fill="#40ab4e" fill-opacity=".4" stroke="#40ab4e" stroke-opacity=".4" stroke-width=".5" d="M108.2 136.8c-.6 1.2-4 4.6-5 2.9 1.3-1.3 3-2.7 5-2.9Zm22.7 13.1c-.2 1-1.9 2.9-2.9 1.7.3-1.1 2-1.4 3-1.7Zm167 261.2q.4-1.3 1.6-1.2c1.3.8-1 1.3-1.6 1.2Z"/><path fill="#41ac4e" fill-opacity=".5" stroke="#41ac4e" stroke-opacity=".5" stroke-width=".5" d="M61.8 139.1q.6-2.1 2.8-2.1c1.2 1-2.1 2-2.8 2.1Zm293.1 245c.3 1.5-2 2.7-2.9 1.6q1-1.4 3-1.7Zm-52.8 60q.2-2.2 2.5-2.1c1.3 1-1.8 1.9-2.5 2.1Z"/><path fill="#40ac4d" fill-opacity=".4" stroke="#40ac4d" stroke-opacity=".4" stroke-width=".5" d="M26 119c.3-1 4.1-4 5-2.7a8 8 0 0 1-5 2.7Zm12.7 95q.5-.9 1.2-.6-.5.6-1.2.6Zm108.4 80.8c.2 1.3-2.3 2.8-2.9 1.8q1-1.5 2.9-1.9ZM359 447c.2-.7 1.3-1.6 1.8-.7q-.7.9-1.8.7Zm21 37.2q.4-1 1.5-1.3c1 .8-1 1.3-1.6 1.3Z"/><path fill="#41ac4e" fill-opacity=".5" stroke="#41ac4e" stroke-opacity=".5" stroke-width=".5" d="M113 115c-.3 1-2 2.8-3 1.6a4 4 0 0 1 3-1.7Zm28.8 216q.6-1.2 1.8-1.7 2.3-.2.5 1.3-1 .4-2.3.4Z"/><path fill="#41ac4e" fill-opacity=".4" stroke="#41ac4e" stroke-opacity=".4" stroke-width=".5" d="M55 115q.4-1 1.6-1c1.1.7-1.2 1.2-1.7 1Zm216.2 282.8c-.4.8-2.1 3-3 1.8.2-1.1 2-1.5 3-1.8Zm50.6 16.3c1-1.2 3-3.4 4.7-3.2 1.2 1.1-3.7 3.2-4.7 3.2Zm100.3 1.8c0 1.6-2.2 3-3.1 1.8q1.2-1.5 3-1.8Z"/><path fill="#205825" fill-opacity=".1" stroke="#205825" stroke-opacity=".1" stroke-width=".5" d="m201 353 1.4.2v.5l-1.3.6zm162.6 9.4q.3.7-.5 1L334 380a2 2 0 0 1-.2-1.7c1-1 9-5.1 9-6q2.9-1.2 5.4-2.5l12.6-7.5q1.4-.6 2.7 0Z"/><path fill="#2b7233" fill-opacity=".1" stroke="#2b7233" stroke-opacity=".1" stroke-width=".5" d="M21 121.7v1.3l-5.9 4q-.3-1.4 0-2.7z"/><path fill="#2c6733" fill-opacity=".2" stroke="#2c6733" stroke-opacity=".2" stroke-width=".5" d="M34 65.1q.6.3 1 .9-2.2 1.6-4.7 2.8 0-1.9 1.7-2.6z"/><path fill="#2e663a" fill-opacity=".5" d="M112 6.3q3.3-.3 6.4-.2.7.3.4 1.1c-1.5 0-5.5.1-6.7-1"/><path fill="#34703c" fill-opacity=".7" d="M327.8 501.2c1.3-.2 4.3-.4 5.3.7-1-.2-5.4.8-5.3-.7"/><path fill="#205527" fill-opacity=".1" stroke="#205527" stroke-opacity=".1" stroke-width=".5" d="M290 415.7v1.3l-1.5 1q-.8-.1-1.5-1 1.4-.9 3-1.3Z"/><path fill="#335f37" fill-opacity=".6" stroke="#335f37" stroke-opacity=".6" stroke-width=".5" d="M133 175.9q0 1-.7 2-.5 0-.3-.6.2-1 1-1.4Z"/><path fill="#336a3a" fill-opacity=".9" d="M333.8 367.7q0 1-1 .8z"/></svg>