<?xml version="1.0" encoding="UTF-8"?>
<!DOCTYPE svg PUBLIC "-//W3C//DTD SVG 1.1//EN" "http://www.w3.org/Graphics/SVG/1.1/DTD/svg11.dtd">
<svg xmlns="http://www.w3.org/2000/svg" version="1.1" width="512px" height="512px" style="shape-rendering:geometricPrecision; text-rendering:geometricPrecision; image-rendering:optimizeQuality; fill-rule:evenodd; clip-rule:evenodd" xmlns:xlink="http://www.w3.org/1999/xlink">
<g><path fill="#41ab4e" fill-opacity="0.914" d="M 393.75,332.93 c 1.19,-0.02 2.35,0.17 3.46,0.58 c -0.8,2.46 -9.82,6.08 -12.24,7.97 c -0.53,0.29 -1.05,0.29 -1.56,0.01 c 1.31,-2.39 1.69,-4.91 4.27,-6.45 c 0.3,0.76 0.86,1.06 1.66,0.9 c 1.18,-0.63 3.87,-1.83 4.41,-3.01 Z"/></g>
<g><path fill="#389b42" fill-opacity="0.243" stroke="#389b42" stroke-width="0.5" stroke-opacity="0.243" d="M 125.89,106.18 c 0.55,0.44 0.86,1.03 0.91,1.75 c -4.24,2.16 -8.4,4.47 -12.47,6.94 c -0.44,0.11 -0.9,0.13 -1.35,0.05 c 3.21,-2.58 6.53,-5.01 9.96,-7.31 c 0.87,-0.71 1.86,-1.19 2.95,-1.43 Z"/></g>
<g><path fill="#3e9d48" fill-opacity="0.267" stroke="#3e9d48" stroke-width="0.5" stroke-opacity="0.267" d="M 113.95,85.07 c 0.87,0.2 1.22,0.76 1.04,1.68 c -3.65,1.97 -7.23,4.02 -10.77,6.15 c -1.25,0.59 -1.39,-0.73 -0.21,-1.27 c 3.33,-2.17 6.64,-4.35 9.94,-6.56 Z"/></g>
<g><path fill="#40ad4e" fill-opacity="0.349" stroke="#40ad4e" stroke-width="0.5" stroke-opacity="0.349" d="M 38.01,63.01 c 0.29,-0.96 1.93,-2.63 2.86,-1.6 c -0.6,1.13 -1.56,1.67 -2.86,1.6 Z M 89.95,71.03 c -0.32,0.94 -1.94,2.55 -2.85,1.57 c 0.65,-1.06 1.6,-1.58 2.85,-1.57 Z M 92.78,271.09 c 0.56,-1.16 1.46,-1.85 2.71,-2.07 c 1.13,1.17 -2.02,1.93 -2.71,2.07 Z M 124.75,277.07 c 0.13,0.43 0.26,0.87 0.39,1.31 c -0.71,0.47 -2.18,2.2 -2.97,1.28 c 0.62,-1.08 1.48,-1.95 2.58,-2.59 Z"/></g>
<g><path fill="#41ac4e" fill-opacity="0.447" stroke="#41ac4e" stroke-width="0.5" stroke-opacity="0.447" d="M 56.96,83.2 c 0.18,-1.31 1.66,-2.34 2.86,-1.75 c -0.5,1.27 -1.45,1.85 -2.86,1.75 Z M 15,137.02 c 0.4,0.09 0.8,0.19 1.2,0.28 c -0.38,0.32 -0.81,0.58 -1.27,0.77 c 0.02,-0.35 0.05,-0.7 0.07,-1.05 Z M 124.69,182.23 c 0.51,-1.35 1.49,-2.11 2.94,-2.26 c 1.38,1.15 -2.25,2.09 -2.94,2.26 Z M 62.84,245.22 c 0.37,-1.33 1.26,-2.04 2.64,-2.14 c 1.48,1.09 -2.06,1.7 -2.64,2.14 Z M 301.93,468.04 c -0.04,-0.94 1.41,-1.69 1.99,-0.73 c -0.53,0.59 -1.19,0.83 -1.99,0.73 Z M 276.69,472.17 c 0.11,-0.52 0.43,-0.87 0.94,-1.03 c 1.03,0.57 -0.72,0.95 -0.94,1.03 Z"/></g>
<g><path fill="#41ac4d" fill-opacity="0.306" stroke="#41ac4d" stroke-width="0.5" stroke-opacity="0.306" d="M 225.07,369.91 c -0.41,0.8 -2.02,2.94 -2.92,1.73 c 0.62,-1.14 1.6,-1.72 2.92,-1.73 Z M 357.1,382.95 c -0.36,1 -1.08,1.35 -2.17,1.06 c -0.03,-1.14 1.38,-1.12 2.17,-1.06 Z M 300.04,445.11 c -0.99,1.69 -3.3,2.59 -4.81,3.85 c -0.13,-0.42 -0.26,-0.84 -0.4,-1.26 c 1.47,-1.43 3.21,-2.29 5.21,-2.59 Z M 341.68,504 c 0.88,-0.13 1.76,-0.14 2.64,-0.03 c -0.13,1.34 -2.15,1.22 -2.64,0.03 Z"/></g>
<g><path fill="#41ab4f" fill-opacity="0.298" stroke="#41ab4f" stroke-width="0.5" stroke-opacity="0.298" d="M 138.88,350.02 c 0.49,-1.19 1.36,-1.86 2.63,-2.02 c 1.15,1.19 -1.9,1.93 -2.63,2.02 Z M 298.98,470.08 c -0.24,1.4 -5.55,3.7 -6.7,4.94 c -0.06,-0.39 -0.12,-0.77 -0.19,-1.16 c 0.02,-0.33 0.17,-0.6 0.44,-0.8 c 1.74,-0.76 4.59,-3.26 6.45,-2.98 Z"/></g>
<g><path fill="#40ab51" fill-opacity="0.329" stroke="#40ab51" stroke-width="0.5" stroke-opacity="0.329" d="M 70.03,180.99 c -0.22,-0.49 -0.59,-0.81 -1.11,-0.97 c 2.3,-1.64 4.63,-3.22 7.02,-4.75 c 0.75,-0.24 1.47,-0.84 1.98,0.08 c -2.56,1.95 -5.19,3.83 -7.89,5.64 Z"/></g>
<g><path fill="#3e9e49" fill-opacity="0.216" stroke="#3e9e49" stroke-width="0.5" stroke-opacity="0.216" d="M 364.73,377.15 c 0.07,0.37 0.14,0.73 0.21,1.1 c -0.02,0.58 -0.3,0.99 -0.84,1.23 c -1.62,0.67 -5.46,3.52 -7,3.47 c 0.72,-1.94 5.83,-4.52 7.63,-5.8 Z"/></g>
<g><path fill="#3e9e49" fill-opacity="0.188" stroke="#3e9e49" stroke-width="0.5" stroke-opacity="0.188" d="M 431.92,409.02 c 0.24,0.56 0.31,1.13 0.21,1.72 c -1.63,1.06 -6.28,4.21 -8.04,4.19 c 0.82,-2.1 5.95,-4.48 7.83,-5.91 Z"/></g>
<g><path fill="#41ac4e" fill-opacity="0.494" stroke="#41ac4e" stroke-width="0.5" stroke-opacity="0.494" d="M 82.78,200.15 c 0.48,-1.23 1.38,-1.92 2.71,-2.05 c 1.83,1.08 -2.02,2.03 -2.71,2.05 Z M 182.98,346.24 c 0.11,0.3 0.22,0.6 0.34,0.89 c -0.74,0.43 -2.22,2.59 -3.03,1.38 c 0.53,-1.17 1.43,-1.93 2.69,-2.27 Z M 474.72,445.25 c 0.53,-1.28 1.48,-2.02 2.85,-2.22 c 1.44,1.16 -2.19,2 -2.85,2.22 Z"/></g>
<g><path fill="#32943e" fill-opacity="0.227" stroke="#32943e" stroke-width="0.5" stroke-opacity="0.227" d="M 290.74,474.25 c 0.01,0.31 0.01,0.63 0.02,0.95 c -0.32,1.43 -3.53,2.8 -4.69,3.73 c -0.54,0.02 -1.85,0.09 -1.77,-0.77 c 1.94,-1.64 4.08,-2.95 6.44,-3.91 Z"/></g>
<g><path fill="#41ac4e" fill-opacity="0.271" stroke="#41ac4e" stroke-width="0.5" stroke-opacity="0.271" d="M 200.91,352.93 c 0.04,0.47 0.09,0.94 0.14,1.4 c -0.81,0.77 -1.75,1.32 -2.82,1.67 c -0.04,-0.27 -0.08,-0.53 -0.12,-0.8 c 0.88,-0.82 1.81,-1.58 2.8,-2.27 Z M 424.09,414.93 c -0.36,0.92 -1.04,1.26 -2.03,1.01 c -0.17,-1.1 1.34,-1.04 2.03,-1.01 Z M 358.98,446.96 c -0.54,1.39 -1.55,2.14 -3.05,2.25 c 0.52,-1.41 1.53,-2.16 3.05,-2.25 Z"/></g>
<g><path fill="#348a3c" fill-opacity="0.145" stroke="#348a3c" stroke-width="0.5" stroke-opacity="0.145" d="M 68.92,180.02 c 0.52,0.16 0.89,0.48 1.11,0.97 c -1.58,0.95 -3.12,1.95 -4.63,3 c -0.15,-0.83 -0.64,-1.3 -1.47,-1.42 c 1.6,-1 3.26,-1.85 4.99,-2.55 Z"/></g>
<g><path fill="#399448" fill-opacity="0.851" d="M 402.96,328.01 c 0.25,-0.09 0.5,-0.18 0.75,-0.27 c 0.83,0.05 1.65,0.07 2.48,0.07 c 0.71,0.51 4.03,1.39 3.93,2.15 c -2.28,0.03 -4.48,-0.37 -6.62,-1.21 c -0.33,-0.15 -0.51,-0.4 -0.54,-0.74 Z"/></g>
<g><path fill="#3fa950" fill-opacity="0.196" stroke="#3fa950" stroke-width="0.5" stroke-opacity="0.196" d="M 26.04,119.04 c -0.88,1.73 -3.39,2.92 -4.96,3.99 c -0.05,-0.44 -0.09,-0.89 -0.13,-1.34 c 1.38,-1.52 3.08,-2.41 5.09,-2.65 Z"/></g>
<g><path fill="#3ea951" fill-opacity="0.22" stroke="#3ea951" stroke-width="0.5" stroke-opacity="0.22" d="M 295.08,413.01 c -0.99,1.72 -3.37,2.95 -5.06,3.95 c -0.01,-0.42 -0.03,-0.84 -0.05,-1.27 c 1.37,-1.56 3.08,-2.45 5.11,-2.68 Z"/></g>
<g><path fill="#399743" fill-opacity="0.153" stroke="#399743" stroke-width="0.5" stroke-opacity="0.153" d="M 186.63,342.97 c -0.24,0.95 0.1,1.53 1.02,1.73 c -1.35,0.85 -2.8,1.66 -4.33,2.43 c -0.12,-0.29 -0.23,-0.59 -0.34,-0.89 c 1.18,-1.12 2.39,-2.21 3.65,-3.27 Z"/></g>
<g><path fill="#3a8843" fill-opacity="0.824" d="M 387.29,506.28 c -0.32,0.95 -1.67,0.55 -2.4,0.46 c -1.07,-0.12 -2.12,0.01 -3.13,0.36 c -0.32,-0.13 -0.65,-0.27 -0.97,-0.4 c 1.79,-1.13 4.48,-0.6 6.5,-0.42 Z"/></g>
<g><path fill="#379041" fill-opacity="0.192" stroke="#379041" stroke-width="0.5" stroke-opacity="0.192" d="M 169.95,383.04 c -0.57,1.22 -1.46,2.1 -2.69,2.64 c -0.03,-0.67 -0.38,-1.08 -1.04,-1.23 c 1.05,-0.98 2.29,-1.45 3.73,-1.41 Z"/></g>
<g><path fill="#41ac4e" fill-opacity="0.29" stroke="#41ac4e" stroke-width="0.5" stroke-opacity="0.29" d="M 54.91,115.02 c -0.58,1.28 -1.56,2.01 -2.94,2.19 c 0.48,-1.39 1.46,-2.12 2.94,-2.19 Z M 406.19,327.81 c -0.83,0 -1.65,-0.02 -2.48,-0.07 c 0.84,-0.82 1.66,-0.79 2.48,0.07 Z"/></g>
<g><path fill="#35b840" fill-opacity="0.157" stroke="#35b840" stroke-width="0.5" stroke-opacity="0.157" d="M 227.69,366.96 c -0.19,1.11 0.28,1.59 1.4,1.44 c -1.2,0.94 -2.53,1.44 -4.02,1.51 c 0.59,-1.23 1.46,-2.21 2.62,-2.95 Z"/></g>
<g><path fill="#43af4e" fill-opacity="0.286" stroke="#43af4e" stroke-width="0.5" stroke-opacity="0.286" d="M 38.01,63.01 c -0.76,1.23 -1.76,2.21 -3.01,2.94 c -0.28,-0.37 -0.62,-0.65 -1.03,-0.85 c 1,-1.34 2.35,-2.03 4.04,-2.09 Z"/></g>
<g><path fill="#389041" fill-opacity="0.165" stroke="#389041" stroke-width="0.5" stroke-opacity="0.165" d="M 228.65,350.28 c 0.09,0.68 0.47,1.09 1.14,1.24 c -1.02,1 -2.23,1.42 -3.64,1.27 c 0.53,-1.14 1.37,-1.97 2.5,-2.51 Z"/></g>
<g><path fill="#359041" fill-opacity="0.184" stroke="#359041" stroke-width="0.5" stroke-opacity="0.184" d="M 138.88,350.02 c -0.45,1.31 -1.33,2.19 -2.64,2.64 c -0.08,-0.76 -0.52,-1.13 -1.32,-1.11 c 1.17,-0.93 2.49,-1.44 3.96,-1.53 Z"/></g>
<g><path fill="#46ab4f" fill-opacity="0.22" stroke="#46ab4f" stroke-width="0.5" stroke-opacity="0.22" d="M 93.06,68.65 c 0.34,0.05 0.67,0.1 1.01,0.15 c -1,1.42 -2.37,2.16 -4.12,2.23 c 0.61,-1.34 1.65,-2.13 3.11,-2.38 Z"/></g>
<g><path fill="#41ac4e" fill-opacity="0.643" d="M 198.11,355.2 c 0.04,0.27 0.08,0.53 0.12,0.8 c -0.54,0.59 -2.15,2.8 -2.9,1.52 c 0.6,-1.15 1.52,-1.92 2.78,-2.32 Z"/></g>
<g><path fill="#41ac4e" fill-opacity="0.557" d="M 358.69,505.87 c 1.54,-0.11 3.06,-0.03 4.58,0.23 c -0.3,1.23 -4.18,1.46 -4.58,-0.23 Z"/></g>
<g><path fill="#3fa24b" fill-opacity="0.851" d="M 412.11,503.17 c -0.56,1.38 -2.94,1.08 -4.18,0.85 c 0.42,-1.52 3.03,-1.46 4.18,-0.85 Z"/></g>
<g><path fill="#33c43a" fill-opacity="0.09" stroke="#33c43a" stroke-width="0.5" stroke-opacity="0.09" d="M 116.59,215.94 c 0.76,-0.06 1.22,0.27 1.37,0.99 c -0.86,0.68 -1.84,1.05 -2.93,1.13 c 0.16,-0.96 0.68,-1.66 1.56,-2.12 Z"/></g>
<g><path fill="#40ad4d" fill-opacity="0.2" d="M 381.76,507.1 c 1.01,-0.35 2.06,-0.48 3.13,-0.36 c 0.24,1.9 -2.67,1.68 -3.13,0.36 Z"/></g>
<g><path fill="#3a8c44" fill-opacity="0.678" d="M 280.94,366.97 c 0.54,0.17 2.3,0.04 2.25,0.88 c -0.95,0.21 -1.7,-0.08 -2.25,-0.88 Z M 283.19,367.85 c 0.5,0.13 0.89,0.4 1.18,0.81 c -0.74,0.19 -1.14,-0.08 -1.18,-0.81 Z"/></g>
<g><path fill="#40ae4f" fill-opacity="0.212" stroke="#40ae4f" stroke-width="0.5" stroke-opacity="0.212" d="M 190.82,322.07 c 0.12,0.41 0.24,0.81 0.35,1.22 c -0.58,0.56 -1.29,0.81 -2.12,0.75 c 0.2,-0.99 0.79,-1.65 1.77,-1.97 Z"/></g>
<g><path fill="#36773e" fill-opacity="0.631" d="M 312.89,496.9 c 1.14,0 2.21,0.26 3.22,0.78 c -0.92,0.1 -3.22,0.84 -3.22,-0.78 Z"/></g>
<g><path fill="#3a8744" fill-opacity="0.298" stroke="#3a8744" stroke-width="0.5" stroke-opacity="0.298" d="M 289.89,372.46 c 0.75,-0.48 2.42,-0.57 1.95,0.82 c -0.68,-0.2 -1.33,-0.48 -1.95,-0.82 Z"/></g>
<g><path fill="#327e41" fill-opacity="0.796" d="M 377.76,328.94 c 0.26,1.06 -1.26,1.04 -1.89,0.88 c -0.02,-0.84 1.31,-0.77 1.89,-0.88 Z"/></g>
<g><path fill="#41a94c" fill-opacity="0.29" stroke="#41a94c" stroke-width="0.5" stroke-opacity="0.29" d="M 292.63,372.85 c 0.78,0.12 1.27,0.57 1.46,1.34 c -0.71,-0.21 -1.2,-0.65 -1.46,-1.34 Z"/></g>
<g><path fill="#42ae4d" fill-opacity="0.259" stroke="#42ae4d" stroke-width="0.5" stroke-opacity="0.259" d="M 130.94,227.95 c 0.01,0.28 0.02,0.56 0.04,0.85 c -0.32,0.07 -0.63,0.15 -0.94,0.23 c 0.09,-0.54 0.39,-0.9 0.9,-1.08 Z"/></g>
<g><path fill="#41ae4c" fill-opacity="0.184" stroke="#41ae4c" stroke-width="0.5" stroke-opacity="0.184" d="M 332.3,368.82 c -0.21,0.64 -0.61,1.12 -1.19,1.45 c 0.14,-0.69 0.53,-1.18 1.19,-1.45 Z"/></g>
<g><path fill="#378040" fill-opacity="0.471" d="M 414.36,502.06 c -0.32,0.53 -0.81,0.81 -1.45,0.83 c 0.3,-0.58 0.78,-0.86 1.45,-0.83 Z"/></g>
<g><path fill="#35994a" fill-opacity="0.996" stroke="#35994a" stroke-width="0.5" stroke-opacity="0.996" d="M 104.87,12.37 c 2.9,0.19 11.43,1.9 12.31,5.05 c -1.28,1.65 -2.56,3.29 -3.85,4.91 c 1.17,0.45 5.92,-2.31 6.64,-3.36 c 2.35,1.01 7.24,6.92 7.06,9.8 c -1.38,1.44 -2.61,3 -3.69,4.67 c 1.51,0.68 4,-1.35 4.97,-2.44 c 2.69,5.26 5.58,10.42 8.66,15.47 c 7.45,12.43 26.16,36.41 30.98,48.24 c -1.69,0.04 -4.35,2.8 -6.06,3.46 c -1.04,0.58 -1.91,1.32 -2.6,2.22 c 0.51,0.41 1.08,0.46 1.7,0.18 c 2.69,-1.56 5.33,-3.2 7.93,-4.93 c 8.65,17.98 11.91,36.4 -4.45,51.25 c -0.39,0.43 -0.87,0.58 -1.42,0.47 c -24.07,-43.64 -48.04,-87.32 -71.92,-131.06 c -0.4,-0.86 -0.24,-1.57 0.49,-2.15 c 1.81,-0.67 3.69,-1.04 5.63,-1.1 c -0.12,1.2 -0.39,2.37 -0.81,3.5 c 0.49,0.37 1,0.36 1.53,-0.02 c 2.35,-1.31 4.65,-2.7 6.9,-4.16 Z M 391.15,326.72 c -4.45,0.87 -8.92,1.61 -13.39,2.22 c 0.06,-0.38 0.28,-0.65 0.65,-0.81 c 2.66,-1.45 5.36,-2.79 8.11,-4.04 c 2.06,-0.05 3.6,0.82 4.63,2.63 Z M 390.26,332.25 c -1.06,0.74 -1.92,1.67 -2.58,2.79 c -2.58,1.54 -2.96,4.06 -4.27,6.45 c 0.51,0.28 1.03,0.28 1.56,-0.01 c 2.42,-1.89 11.44,-5.51 12.24,-7.97 c 7.74,3.35 15.08,7.43 22.01,12.23 c -0.82,3.54 -5.05,7.75 -6.96,10.96 c -0.21,0.43 -0.15,0.81 0.17,1.13 c 3.89,-2.01 7.73,-4.15 11.52,-6.4 c 0.81,-0.56 1.16,-1.35 1.03,-2.35 c 15.3,10.57 31.94,17.31 47.89,26.5 c 16.39,9.96 28.88,23.39 22.16,43.97 c -0.13,0.5 -0.41,0.88 -0.84,1.14 c -33.99,-18.39 -67.94,-36.91 -101.86,-55.56 c -0.59,-0.3 -1.05,-0.74 -1.38,-1.31 c 3.04,-1.73 6.05,-3.51 9.03,-5.34 c 1.03,-0.72 1.71,-1.68 2.04,-2.86 c -0.31,-0.32 -0.65,-0.35 -1.03,-0.1 c -3.85,2.18 -7.71,4.36 -11.56,6.53 c -0.32,0.27 -0.45,0.61 -0.39,1.02 c -7.94,-4.24 -15.88,-8.47 -23.82,-12.71 c -1.49,-0.83 -1.62,-1.85 -0.41,-3.07 c 7.23,-6.43 14.65,-16.12 25.45,-15.04 Z"/></g>
<g><path fill="#262626" fill-opacity="0.996" stroke="#262626" stroke-width="0.5" stroke-opacity="0.996" d="M 112.08,6.28 c 1.17,1.06 5.17,0.84 6.76,0.93 c 0.32,0.01 0.64,0.02 0.96,0.03 c 0.35,0.47 0.83,0.7 1.43,0.66 c -0.08,0.6 0.18,0.97 0.78,1.13 c 14.81,7.04 17.64,16.15 25.12,29.35 c 9.86,15.66 47.17,69.2 42.45,85.92 c -7.25,31.73 -58.04,46.88 -54.47,79.17 c 23.4,63.61 80.99,110.25 130.99,152.94 c 4.64,3.4 9.76,7.98 14.84,10.56 c 0.55,0.8 1.3,1.09 2.25,0.88 c 0.04,0.73 0.44,1 1.18,0.81 c 1.55,1.66 3.39,2.93 5.52,3.8 c 0.62,0.34 1.27,0.62 1.95,0.82 c 0.27,-0.15 0.53,-0.29 0.79,-0.43 c 0.26,0.69 0.75,1.13 1.46,1.34 c 9.65,5.97 30.07,5.8 37.02,-3.92 c 0.58,-0.33 0.98,-0.81 1.19,-1.45 c 0.17,-0.1 0.35,-0.2 0.52,-0.3 c 0.61,0.09 0.92,-0.18 0.93,-0.79 c 13.6,-15.38 21.92,-29.24 42.12,-37.91 c 0.63,0.16 2.15,0.18 1.89,-0.88 c 4.47,-0.61 8.94,-1.35 13.39,-2.22 c 3.71,0.86 7.99,1.41 11.81,1.29 c 0.03,0.34 0.21,0.59 0.54,0.74 c 2.14,0.84 4.34,1.24 6.62,1.21 c 0.75,0.4 1.47,0.85 2.17,1.35 c 21,7.89 40.79,22.44 60.22,33.69 c 25.26,9.31 41.67,28.03 34.23,56.34 c -12.7,38.92 -52.82,71.66 -92.38,80.72 c -0.67,-0.03 -1.15,0.25 -1.45,0.83 c -0.26,0.09 -0.53,0.18 -0.8,0.28 c -1.15,-0.61 -3.76,-0.67 -4.18,0.85 c -5.3,-0.13 -14.87,1.83 -20.64,2.26 c -2.02,-0.18 -4.71,-0.71 -6.5,0.42 c -5.82,-0.4 -11.66,-0.6 -17.52,-0.6 c -1.52,-0.26 -3.04,-0.34 -4.58,-0.23 c -4.78,-0.65 -9.58,-1.28 -14.37,-1.9 c -0.88,-0.11 -1.76,-0.1 -2.64,0.03 c -2.78,-1.05 -5.66,-1.76 -8.62,-2.13 c -0.95,-1.06 -3.93,-0.91 -5.24,-0.72 c -3.86,-1.27 -7.77,-2.43 -11.71,-3.47 c -1.01,-0.52 -2.08,-0.78 -3.22,-0.78 c -44.11,-13.21 -82.03,-33.78 -118.23,-62.17 c -85.64,-70.1 -186.52,-170.83 -191.4,-288.23 c -0.56,-52.89 13.49,-93.01 57.34,-124.33 c 15.14,-10.43 32.57,-19.13 51.48,-15.89 Z M 97.25,13.05 c -1.94,0.06 -3.82,0.43 -5.63,1.1 c -0.73,0.58 -0.89,1.29 -0.49,2.15 c 23.88,43.74 47.85,87.42 71.92,131.06 c 0.55,0.11 1.03,-0.04 1.42,-0.47 c 16.36,-14.85 13.1,-33.27 4.45,-51.25 c -0.22,-0.42 -0.54,-0.73 -0.97,-0.93 c -4.82,-11.83 -23.53,-35.81 -30.98,-48.24 c -3.08,-5.05 -5.97,-10.21 -8.66,-15.47 c -0.32,-0.61 -0.05,-3.16 -1.28,-2.23 c 0.18,-2.88 -4.71,-8.79 -7.06,-9.8 c -0.54,-1.24 -1.47,-1.76 -2.79,-1.55 c -0.88,-3.15 -9.41,-4.86 -12.31,-5.05 c -2.62,-0.49 -5.16,-0.27 -7.62,0.68 Z M 31.96,66.18 c -1.16,0.48 -1.72,1.36 -1.67,2.63 c -2.97,4.7 -5.91,11.12 -7.19,16.51 c -1.05,1.71 -1.79,3.56 -2.24,5.53 c -1.52,4.98 -2.77,10.04 -3.75,15.18 c -0.6,1.86 -0.9,3.77 -0.87,5.72 c -1.07,4.14 -1.46,8.33 -1.16,12.59 c -0.16,0.87 -0.14,1.73 0.04,2.59 c -0.67,3.35 -0.71,6.71 -0.12,10.09 c -0.02,0.35 -0.05,0.7 -0.07,1.05 c -0.18,1.57 -0.11,3.14 0.21,4.69 c 0.23,7.2 1.08,14.33 2.54,21.38 c 0.37,1.13 0.07,3.97 1.1,4.61 c 0.08,2.11 0.83,8.24 2.4,9.64 c -0.59,0.99 0.54,6.37 1.59,6.37 c 0.62,5.84 3.5,12.84 5.25,18.54 c 0.54,1.55 1.1,3.08 1.69,4.6 c 2.22,6.23 4.69,12.34 7.41,18.36 c 0.47,1.33 1.07,2.6 1.83,3.79 c 1.18,3.18 2.58,6.26 4.22,9.23 c 0.57,1.3 1.18,2.58 1.82,3.84 c 1.47,3.11 3.04,6.16 4.71,9.16 c 0.24,0.66 0.64,1.18 1.21,1.57 c 0.78,2.41 3.4,7.86 5.33,9.24 c -0.06,1.26 1.32,4.48 2.65,4.57 c 0.91,3.32 7.65,14.51 10.32,16.68 c -0.4,1.61 1.53,3.42 2.37,4.68 c 1.73,2.81 3.52,5.6 5.35,8.35 c 1.07,0.94 2.4,4.43 3.9,4.42 c 0.98,3.15 3.9,6.95 6.3,9.23 c 0.05,0.41 0.27,0.68 0.66,0.8 c 1.06,2.99 4.33,6.14 5.94,8.88 c 0.89,1.08 1.85,2.1 2.88,3.06 c 5.69,7.89 11.81,15.44 18.36,22.65 c 0.9,1.28 1.85,2.52 2.86,3.72 c 2.07,1.71 4.95,6.37 7.36,7.18 c 0.18,1.05 0.64,1.95 1.38,2.72 c 2.09,1.58 5.44,6.43 7.7,7.15 c -0.11,1.28 3.32,4.77 4.73,4.8 c -0.16,1.8 4.96,5.59 5.99,7.27 c 1.33,0.76 3.5,4.25 5.11,3.58 c -0.18,2.26 5.25,5.95 6.77,7.56 c 0.46,0.75 1.12,1.2 1.97,1.34 c 1.24,2.32 4.85,5.56 7.16,6.9 c 0.98,1.35 2.16,2.48 3.55,3.41 c 4.51,4.06 10.62,9.98 15.71,13.03 c 0.26,1.44 3.16,3.18 4.38,3.88 c 5.08,4.46 10.42,8.6 16.02,12.39 c 0.95,0.97 1.96,1.88 3.01,2.73 c 3.02,2.18 6.09,4.25 9.24,6.23 c 1.49,1.3 3.08,2.46 4.79,3.46 c 2.68,1.99 5.44,3.85 8.3,5.57 c 1.81,1.24 3.66,2.41 5.56,3.5 c 2.33,1.55 6.96,5 9.64,5.31 c 0.27,1.3 5.09,4.02 6.49,3.65 c 0.92,1.93 7.36,5.16 9.51,5.4 c 0.52,0.91 1.33,1.44 2.42,1.58 c 2.75,1.9 16.03,8.57 19.68,9.39 c -0.08,0.86 1.23,0.79 1.77,0.77 c 0.83,1.36 8.05,3.76 9.89,4.42 c 1.88,0.86 3.81,1.65 5.77,2.36 c 7.93,2.69 16.3,5.8 24.49,7.47 c 0.45,0.28 0.94,0.49 1.47,0.6 c 8.75,2.2 17.59,3.87 26.54,5.01 c 1.49,0.07 2.99,0.12 4.48,0.15 c 5.09,1.46 11.3,1.08 16.57,1.03 c 1.8,0.15 3.59,0.12 5.38,-0.09 c 10.65,0.11 20.15,-2.47 30.42,-4.49 c 28.8,-6.44 60.75,-31.86 75.24,-57.03 c 0.37,-0.43 0.62,-0.92 0.76,-1.47 c 0.55,-1.14 4.45,-4.44 3.13,-5.6 c -14.17,-7.83 -28.37,-15.62 -42.58,-23.38 c -2.17,-1.34 -4.48,-2.36 -6.91,-3.08 c -0.01,-0.48 -0.26,-0.66 -0.74,-0.56 c -0.89,-1.64 -39.83,-22.36 -44.97,-24.95 c -0.68,-0.49 -1.32,-1.04 -1.91,-1.63 c -4.7,-2.39 -9.42,-4.75 -14.15,-7.08 c -0.51,-0.49 -1.05,-0.92 -1.63,-1.32 c -4.43,-2.57 -8.99,-4.88 -13.67,-6.93 c 0.07,-0.38 -0.04,-0.71 -0.34,-0.97 c -1.7,-0.41 -6.85,-4.07 -8.31,-3.53 c -3.94,4.88 -7.94,9.7 -12.01,14.44 c -0.09,0.89 -8.02,4.96 -9.13,5.99 c -7.39,4.21 -15.34,6.39 -23.85,6.54 c -4.42,-0.4 -8.83,-0.92 -13.23,-1.55 c -1.73,-0.93 -3.55,-1.32 -5.47,-1.17 c -0.73,-1.17 -17.76,-8.15 -20.49,-9.45 c -0.9,-1.56 -3.69,-3.13 -5.48,-3.39 c -3.88,-3.28 -13.56,-10.54 -17.63,-12.42 c 0.2,-1.41 -1.74,-2.22 -2.75,-2.77 c -2.69,-2.42 -5.35,-4.89 -7.97,-7.4 c -0.67,-0.37 -1.38,-0.59 -2.14,-0.66 c 0.23,-1.49 -5.1,-5.01 -6.16,-6.29 c -0.57,-0.48 -1.21,-0.82 -1.93,-1.02 c -0.01,-1.28 -2.47,-3.14 -3.66,-3.54 c -1.02,-2.25 -5.42,-5.1 -6.99,-7.4 c -1.9,-1.56 -3.81,-3.11 -5.73,-4.64 c -1.77,-2.14 -5.13,-5.95 -7.6,-7.09 c -0.39,-0.73 -0.87,-1.39 -1.43,-1.99 c -2.49,-2.17 -5,-4.31 -7.53,-6.42 c 0.17,-1.15 -1.86,-2.73 -2.54,-3.66 c -6.79,-7.4 -13.55,-14.83 -20.27,-22.29 c -1.26,-1.18 -2.48,-2.4 -3.67,-3.66 c -2.21,-2.42 -4.34,-4.91 -6.39,-7.47 c -0.5,-0.44 -1.04,-0.83 -1.63,-1.16 c -1.09,-1.82 -4.71,-6.82 -6.55,-7.42 c 0.24,-1.26 -2.47,-4.44 -3.64,-4.78 c -0.83,-2.25 -4.39,-6.69 -6.21,-8.53 c -0.36,-1.16 -1.39,-3.41 -2.82,-3.36 c -1.5,-4.3 -6.58,-12.26 -9.12,-16.5 c -0.02,-0.29 -0.03,-0.57 -0.04,-0.85 c -0.78,-2 -1.61,-3.95 -2.51,-5.88 c -0.74,-2.6 -1.49,-5.2 -2.23,-7.8 c -0.17,-0.82 -0.64,-1.36 -1.41,-1.62 c 0.97,-0.75 1,-1.54 0.11,-2.37 c 0.02,-3.86 -0.04,-7.71 -0.18,-11.57 c 0.29,-1.18 0.35,-2.38 0.16,-3.58 c 1.6,-6.17 4.39,-11.69 6.46,-17.59 c 0.17,-0.25 0.39,-0.31 0.66,-0.21 c -0.08,0.34 0.03,0.52 0.32,0.56 c 0.48,-0.58 0.73,-1.25 0.76,-2.01 c 6.36,-7.04 12.94,-13.02 20.53,-18.67 c 0.14,-0.44 0.09,-0.86 -0.14,-1.27 c -2.58,-4.69 -5.1,-9.41 -7.58,-14.16 c -0.42,-0.6 -0.9,-1.15 -1.42,-1.67 c -3.07,-6.22 -6.31,-12.36 -9.71,-18.42 c -0.46,-0.99 -1.11,-1.82 -1.96,-2.48 c -0.43,-2.54 -4.23,-8.97 -6,-11.28 c -0.05,-0.72 -0.36,-1.31 -0.91,-1.75 c -2.95,-5.93 -7.04,-14.27 -10.9,-19.43 c 0.18,-0.92 -0.17,-1.48 -1.04,-1.68 c -2.29,-6.59 -7.82,-14.98 -11.09,-21.46 c -0.38,-0.52 -0.77,-1.04 -1.17,-1.55 c -6.17,-11.96 -12.62,-23.76 -19.36,-35.41 c -0.12,-0.74 -0.53,-1.19 -1.22,-1.35 c -0.48,-1.48 -1.26,-5.69 -3.48,-5.18 c -16.3,8.17 -38.56,29.51 -45.67,46.06 Z M 389.04,363.07 c 0.55,0.46 1.19,0.71 1.91,0.75 c 0.33,0.57 0.79,1.01 1.38,1.31 c 33.92,18.65 67.87,37.17 101.86,55.56 c 0.43,-0.26 0.71,-0.64 0.84,-1.14 c 6.72,-20.58 -5.77,-34.01 -22.16,-43.97 c -15.95,-9.19 -32.59,-15.93 -47.89,-26.5 c -1.95,-1.05 -3.88,-2.16 -5.76,-3.34 c -6.93,-4.8 -14.27,-8.88 -22.01,-12.23 c -1.11,-0.41 -2.27,-0.6 -3.46,-0.58 c -1.08,-0.65 -2.24,-0.88 -3.49,-0.68 c -10.8,-1.08 -18.22,8.61 -25.45,15.04 c -1.21,1.22 -1.08,2.24 0.41,3.07 c 7.94,4.24 15.88,8.47 23.82,12.71 Z"/></g>
<g><path fill="#41a64c" fill-opacity="0.537" d="M 119.8,7.24 c 0.64,-0.06 1.11,0.16 1.43,0.66 c -0.6,0.04 -1.08,-0.19 -1.43,-0.66 Z M 121.23,7.9 c 0.47,0.19 0.73,0.57 0.78,1.13 c -0.6,-0.16 -0.86,-0.53 -0.78,-1.13 Z"/></g>
<g><path fill="#41ac4e" fill-opacity="0.996" stroke="#41ac4e" stroke-width="0.5" stroke-opacity="0.996" d="M 81.11,25.3 c -0.59,0.12 -1.13,0.36 -1.61,0.72 c -2.22,1.65 -4.31,3.43 -6.27,5.33 c 1.15,1.05 7.8,-3.8 9.1,-4.7 c 6.74,11.65 13.19,23.45 19.36,35.41 c -2.38,1.71 -4.78,3.39 -7.19,5.04 c -0.58,0.43 -1.06,0.95 -1.44,1.55 c -1.46,0.25 -2.5,1.04 -3.11,2.38 c -1.25,-0.01 -2.2,0.51 -2.85,1.57 c 0.91,0.98 2.53,-0.63 2.85,-1.57 c 1.75,-0.07 3.12,-0.81 4.12,-2.23 c 1.31,0.08 8,-3.97 8.79,-5.19 c 3.27,6.48 8.8,14.87 11.09,21.46 c -3.3,2.21 -6.61,4.39 -9.94,6.56 c -1.18,0.54 -1.04,1.86 0.21,1.27 c 3.54,-2.13 7.12,-4.18 10.77,-6.15 c 3.86,5.16 7.95,13.5 10.9,19.43 c -1.09,0.24 -2.08,0.72 -2.95,1.43 c -3.43,2.3 -6.75,4.73 -9.96,7.31 c -1.23,0.16 -2.2,0.74 -2.89,1.72 c 0.94,1.11 2.65,-0.72 2.89,-1.72 c 0.45,0.08 0.91,0.06 1.35,-0.05 c 4.07,-2.47 8.23,-4.78 12.47,-6.94 c 1.77,2.31 5.57,8.74 6,11.28 c -3.78,1.64 -18.85,13.49 -23.88,16.21 c -0.53,0.33 -0.78,0.8 -0.74,1.41 c -2.02,0.14 -3.73,1.52 -5.05,2.86 c 1.01,1.72 4.49,-1.7 5.05,-2.86 c 1.88,-0.14 25.1,-13.41 26.58,-15.14 c 3.4,6.06 6.64,12.2 9.71,18.42 c -2.38,1.94 -4.87,3.73 -7.48,5.36 c -0.46,0.36 -0.74,0.83 -0.82,1.41 c -2.14,0.31 -3.89,1.32 -5.25,3.02 c -0.94,0.33 -2.64,0.56 -2.9,1.72 c 1.01,1.16 2.65,-0.69 2.9,-1.72 c 2.09,0.2 4.17,-1.31 5.25,-3.02 c 0.63,-0.04 1.23,-0.18 1.82,-0.42 c 2.6,-1.61 5.23,-3.17 7.9,-4.68 c 2.48,4.75 5,9.47 7.58,14.16 c 0.23,0.41 0.28,0.83 0.14,1.27 c -7.59,5.65 -14.17,11.63 -20.53,18.67 c -0.62,0.29 -0.98,0.77 -1.08,1.45 c -0.27,-0.1 -0.49,-0.04 -0.66,0.21 c -2.07,5.9 -4.86,11.42 -6.46,17.59 c -1.58,0.22 -15.95,11.03 -16.8,12.58 c -1.33,0.19 -2.31,0.85 -2.95,1.98 c 1.03,1.29 2.56,-1.12 2.95,-1.98 c 2.69,0.22 13.84,-7.19 16.64,-9 c 0.14,3.86 0.2,7.71 0.18,11.57 c -0.53,0.12 -1.03,0.32 -1.49,0.59 c -2.23,1.75 -4.51,3.44 -6.82,5.07 c -0.88,0.46 -1.4,1.16 -1.56,2.12 c -1.36,-0.15 -2.35,0.37 -2.96,1.57 c 0.91,1.14 2.45,-0.8 2.96,-1.57 c 1.09,-0.08 2.07,-0.45 2.93,-1.13 c 2.38,-1.28 4.66,-2.7 6.83,-4.28 c 0.77,0.26 1.24,0.8 1.41,1.62 c 0.74,2.6 1.49,5.2 2.23,7.8 c -2.95,3.02 -24.85,19.91 -25.24,21.8 c -1.33,0.04 -2.3,0.63 -2.91,1.77 c 0.77,1.24 2.55,-1.02 2.91,-1.77 c 0.37,0.17 0.74,0.16 1.12,-0.02 c 8.57,-4.94 17.15,-9.88 25.73,-14.82 c 0.31,-0.08 0.62,-0.16 0.94,-0.23 c 2.54,4.24 7.62,12.2 9.12,16.5 c -3.03,0.83 -16.57,13.66 -21.14,16.17 c -1.46,0.86 -0.05,1.58 1.04,1.11 c 7.08,-4.32 14.24,-8.52 21.48,-12.61 c 0.55,-0.36 1.03,-0.79 1.44,-1.31 c 1.82,1.84 5.38,6.28 6.21,8.53 c -3.67,2.71 -21.83,17.21 -22.94,19.77 c -0.48,0.04 -0.96,0.07 -1.44,0.11 c -1.1,0.64 -1.96,1.51 -2.58,2.59 c 0.79,0.92 2.26,-0.81 2.97,-1.28 c 0.38,-0.22 0.76,-0.44 1.14,-0.66 c 8.48,-4.79 16.95,-9.62 25.39,-14.49 c 0.56,-0.26 0.93,-0.68 1.1,-1.26 c 1.84,0.6 5.46,5.6 6.55,7.42 c -3.02,2.39 -6.04,4.75 -9.04,7.06 c 0.98,0.83 1.74,-0.74 2.47,-1.19 c 2.91,-1.26 5.64,-2.83 8.2,-4.71 c 2.05,2.56 4.18,5.05 6.39,7.47 c -4.21,3.43 -17.47,13.67 -20.27,16.73 c -1.23,0.22 -2.18,0.84 -2.85,1.87 c 0.6,1.02 3.04,-0.51 2.85,-1.87 c 3.24,-0.02 20.06,-10.75 23.94,-13.07 c 6.72,7.46 13.48,14.89 20.27,22.29 c -0.82,-0.01 -1.58,0.22 -2.26,0.69 c -7.3,5.89 -14.54,11.8 -21.71,17.73 c 0.79,0.37 1.56,0.3 2.31,-0.22 c 7.45,-5.24 16.55,-9.35 24.2,-14.54 c 2.53,2.11 5.04,4.25 7.53,6.42 c -2.81,2.1 -5.62,4.23 -8.42,6.39 c -0.51,0.39 -0.72,0.9 -0.62,1.53 c -0.5,0.03 -0.99,0.07 -1.49,0.1 c -0.98,0.32 -1.57,0.98 -1.77,1.97 c -1.3,-0.02 -2.25,0.52 -2.86,1.64 c 0.87,1.19 2.39,-0.92 2.86,-1.64 c 0.83,0.06 1.54,-0.19 2.12,-0.75 c 0.4,-0.2 0.8,-0.39 1.2,-0.59 c 3.09,-1.81 6.2,-3.6 9.32,-5.37 c 0.6,-0.24 0.97,-0.67 1.09,-1.29 c 2.47,1.14 5.83,4.95 7.6,7.09 c -7.92,6.61 -15.83,13.23 -23.75,19.84 c -1.26,1.06 -2.47,2.15 -3.65,3.27 c -1.26,0.34 -2.16,1.1 -2.69,2.27 c 0.81,1.21 2.29,-0.95 3.03,-1.38 c 1.53,-0.77 2.98,-1.58 4.33,-2.43 c 4.97,-3.14 25.56,-14.19 28.46,-16.93 c 1.57,2.3 5.97,5.15 6.99,7.4 c -6.81,5.31 -13.55,10.72 -20.2,16.25 c -0.54,0.49 -0.71,1.1 -0.53,1.81 c -0.49,-0.1 -0.97,-0.2 -1.46,-0.3 c -0.99,0.69 -1.92,1.45 -2.8,2.27 c -1.26,0.4 -2.18,1.17 -2.78,2.32 c 0.75,1.28 2.36,-0.93 2.9,-1.52 c 1.07,-0.35 2.01,-0.9 2.82,-1.67 c 0.44,-0.2 0.87,-0.4 1.31,-0.6 c 8.05,-4.53 16.06,-9.15 24.02,-13.84 c 0.31,-0.34 0.44,-0.73 0.38,-1.18 c 0.72,0.2 1.36,0.54 1.93,1.02 c 1.06,1.28 6.39,4.8 6.16,6.29 c -1.63,0.19 -4.61,3.41 -6.2,4.26 c -1.13,0.54 -1.97,1.37 -2.5,2.51 c -1.35,0.09 -2.36,0.71 -3.03,1.85 c 0.91,1.15 2.73,-0.91 3.03,-1.85 c 1.41,0.15 2.62,-0.27 3.64,-1.27 c 2.68,-1.66 5.06,-2.44 7.2,-4.84 c 2.62,2.51 5.28,4.98 7.97,7.4 c -1.7,-0.21 -14.61,11.48 -17.27,12.88 c -1.16,0.74 -2.03,1.72 -2.62,2.95 c -1.32,0.01 -2.3,0.59 -2.92,1.73 c 0.9,1.21 2.51,-0.93 2.92,-1.73 c 1.49,-0.07 2.82,-0.57 4.02,-1.51 c 5.82,-3.45 11.67,-6.85 17.57,-10.19 c 0.59,-0.28 0.94,-0.73 1.05,-1.36 c 4.07,1.88 13.75,9.14 17.63,12.42 c -8.41,6.65 -16.75,13.34 -25.02,20.07 c 0.49,0.41 1.05,0.49 1.66,0.26 c 9.57,-5.71 19.18,-11.36 28.84,-16.94 c 2.73,1.3 19.76,8.28 20.49,9.45 c -6.42,4.82 -12.86,9.61 -19.32,14.37 c -0.49,0.32 -0.75,0.77 -0.8,1.34 c -0.96,0.33 -2.79,0.65 -3.08,1.82 c 0.95,1.24 2.65,-1.01 3.08,-1.82 c 2.12,0.15 21.09,-11.5 24.53,-13.46 c 0.54,-0.2 0.89,-0.56 1.06,-1.08 c 4.4,0.63 8.81,1.15 13.23,1.55 c -0.01,0.46 -0.18,0.86 -0.5,1.2 c -11.07,8.8 -22.12,17.57 -33.15,26.31 c 1.48,1.55 3.16,-1.25 4.63,-1.75 c 17.76,-10.12 35.47,-20.32 53.14,-30.59 c 9.64,-5.54 19.29,-11.08 28.94,-16.62 c 0.51,-0.18 0.7,-0.52 0.58,-1.02 c 4.68,2.05 9.24,4.36 13.67,6.93 c -0.7,0.52 -1.5,0.86 -2.4,1.01 c -3.36,2.34 -6.76,4.62 -10.19,6.85 c -1.8,1.28 -6.91,3.86 -7.63,5.8 c -0.79,-0.06 -2.2,-0.08 -2.17,1.06 c -1.22,0.16 -2.19,0.71 -2.92,1.65 c 0.89,1.19 3.16,-0.04 2.92,-1.65 c 1.09,0.29 1.81,-0.06 2.17,-1.06 c 1.54,0.05 5.38,-2.8 7,-3.47 c 0.54,-0.24 0.82,-0.65 0.84,-1.23 c 0.74,-0.08 1.43,-0.3 2.09,-0.66 c 4,-2.28 7.97,-4.61 11.92,-6.98 c 4.73,2.33 9.45,4.69 14.15,7.08 c -6.74,0.34 -23.38,17.1 -31.18,19.83 c -0.53,0.31 -0.79,0.77 -0.79,1.37 c -1.58,0 -2.64,0.71 -3.18,2.14 c -1.77,-0.23 -3.65,1.38 -4.84,2.47 c 1.28,1.08 4.1,-1.24 4.84,-2.47 c 1.41,-0.21 2.47,-0.92 3.18,-2.14 c 0.64,-0.07 1.27,-0.17 1.9,-0.29 c 2.86,-1.84 5.74,-3.64 8.65,-5.4 c 7.28,-4.04 14.53,-8.15 21.74,-12.34 c 0.72,-0.32 1.25,-0.83 1.59,-1.54 c 5.14,2.59 44.08,23.31 44.97,24.95 c -0.61,-0.12 -1.17,0.01 -1.66,0.4 c -2.08,1.53 -4.21,2.98 -6.4,4.35 c -1.88,1.43 -7.01,3.81 -7.83,5.91 c -0.69,-0.03 -2.2,-0.09 -2.03,1.01 c -1.29,0.15 -2.31,0.73 -3.07,1.74 c 0.95,1.26 3.19,-0.17 3.07,-1.74 c 0.99,0.25 1.67,-0.09 2.03,-1.01 c 1.76,0.02 6.41,-3.13 8.04,-4.19 c 2.78,-1.59 5.54,-3.21 8.28,-4.86 c 0.31,-0.29 0.41,-0.64 0.31,-1.05 c 2.43,0.72 4.74,1.74 6.91,3.08 c 14.21,7.76 28.41,15.55 42.58,23.38 c 1.32,1.16 -2.58,4.46 -3.13,5.6 c -0.69,0.25 -0.95,0.74 -0.76,1.47 c -14.49,25.17 -46.44,50.59 -75.24,57.03 c -10.27,2.02 -19.77,4.6 -30.42,4.49 c 4.96,-3.59 9.96,-7.16 14.98,-10.69 c 2.39,-1.72 4.88,-3.3 7.46,-4.72 c 0.52,-0.27 0.77,-0.7 0.74,-1.29 c 0.69,0.01 4.3,-1.07 2.72,-2.08 c -1.37,0.09 -2.28,0.79 -2.72,2.08 c -2.36,-0.19 -2.93,1.14 -4.72,2.32 c -7.75,4.29 -15.45,8.67 -23.1,13.15 c -0.43,0.34 -0.68,0.77 -0.74,1.32 c -5.27,0.05 -11.48,0.43 -16.57,-1.03 c 5.81,-4.06 11.67,-8.09 17.57,-12.07 c 0.94,-0.83 3.89,-1.05 3.63,-2.68 c 0.51,0.04 2.59,-0.48 1.58,-1.26 c -0.7,0.19 -1.23,0.61 -1.58,1.26 c -1.53,-0.18 -2.5,1.17 -3.86,1.61 c -7.03,4.27 -14.16,8.38 -21.41,12.31 c -0.3,0.14 -0.44,0.36 -0.41,0.68 c -8.95,-1.14 -17.79,-2.81 -26.54,-5.01 c 6.36,-4.24 12.84,-8.33 19.43,-12.28 c 0.56,-0.28 0.81,-0.74 0.76,-1.36 c 0.96,-0.05 6,-2.11 4.74,-3.19 c -1.41,-0.02 -4.07,1.84 -4.74,3.19 c -1.93,0.12 -3.52,0.96 -4.76,2.5 c -5.43,2.88 -10.82,5.87 -16.15,8.97 c -0.57,0.37 -0.82,0.89 -0.75,1.57 c -8.19,-1.67 -16.56,-4.78 -24.49,-7.47 c 17.35,-11.39 34.67,-22.85 51.97,-34.39 c 0.8,-0.68 1.54,-1.38 2.23,-2.11 c 1.5,-0.11 2.51,-0.86 3.05,-2.25 c 0.76,0.14 1.37,-0.08 1.84,-0.68 c -0.53,-0.9 -1.58,0.07 -1.84,0.68 c -1.52,0.09 -2.53,0.84 -3.05,2.25 c -0.67,-0.03 -1.32,0.01 -1.98,0.12 c -19.36,11.29 -38.7,22.63 -57.99,34.02 c -1.84,-0.66 -9.06,-3.06 -9.89,-4.42 c 1.16,-0.93 4.37,-2.3 4.69,-3.73 c 0.51,-0.06 1.02,-0.12 1.52,-0.18 c 1.15,-1.24 6.46,-3.54 6.7,-4.94 c 1.4,-0.05 2.38,-0.73 2.95,-2.04 c 0.8,0.1 1.46,-0.14 1.99,-0.73 c -0.58,-0.96 -2.03,-0.21 -1.99,0.73 c -1.46,0.04 -2.44,0.72 -2.95,2.04 c -1.86,-0.28 -4.71,2.22 -6.45,2.98 c -0.27,0.2 -0.42,0.47 -0.44,0.8 c -0.45,0.13 -0.9,0.26 -1.35,0.39 c -2.36,0.96 -4.5,2.27 -6.44,3.91 c -3.65,-0.82 -16.93,-7.49 -19.68,-9.39 c 3.09,-2.38 28.85,-18.38 29.11,-19.66 c 0.5,-0.05 1,-0.1 1.5,-0.15 c 1.51,-1.26 3.82,-2.16 4.81,-3.85 c 0.86,0 1.55,-0.34 2.07,-1.01 c 0.68,-0.2 3.78,-1.15 2.53,-2.15 c -1.55,-0.07 -2.39,0.64 -2.53,2.15 c -0.98,-0.23 -1.67,0.11 -2.07,1.01 c -2,0.3 -3.74,1.16 -5.21,2.59 c -0.37,0.22 -0.73,0.44 -1.1,0.66 c -10.16,5.74 -20.29,11.53 -30.41,17.36 c -0.63,0.31 -1,0.8 -1.12,1.47 c -2.15,-0.24 -8.59,-3.47 -9.51,-5.4 c 22.86,-15.14 45.49,-31.42 68.44,-46.27 c 0.56,-0.31 0.78,-0.77 0.67,-1.39 c 0.98,-0.01 5.9,-2.11 4.71,-3.22 c -1.68,-0.23 -3.77,1.98 -4.71,3.22 c -2.84,0.23 -7.74,4.24 -10.45,5.65 c -21.4,12.21 -42.76,24.47 -64.09,36.8 c -0.67,0.32 -1.02,0.84 -1.06,1.56 c -2.68,-0.31 -7.31,-3.76 -9.64,-5.31 c 17.29,-11.64 34.61,-23.23 51.96,-34.76 c 0.44,-0.45 0.94,-0.82 1.5,-1.11 c 1.69,-1 4.07,-2.23 5.06,-3.95 c 1.34,-0.05 2.3,-0.69 2.87,-1.93 c 0.55,0.14 2.87,-0.4 1.58,-1.22 c -0.87,-0.02 -1.4,0.39 -1.58,1.22 c -1.41,0 -2.37,0.65 -2.87,1.93 c -2.03,0.23 -3.74,1.12 -5.11,2.68 c -1.07,0.28 -2.05,0.74 -2.93,1.4 c -18.69,10.73 -37.36,21.48 -56.04,32.24 c -2.86,-1.72 -5.62,-3.58 -8.3,-5.57 c 9.97,-7.51 20.87,-17.87 31.39,-24.2 c 0.4,-0.19 0.6,-0.5 0.6,-0.93 c -1.46,-1.24 -2.04,0.83 -3.25,1.31 c -10.91,6.08 -21.76,12.26 -32.56,18.54 c -0.62,0.44 -0.95,1.05 -0.97,1.82 c -3.15,-1.98 -6.22,-4.05 -9.24,-6.23 c 7.79,-5.67 15.46,-11.48 23,-17.45 c -1.1,-0.37 -1.91,-0.01 -2.44,1.06 c -5.62,2.98 -11.18,6.09 -16.67,9.32 c -2.4,1.3 -4.7,2.75 -6.9,4.34 c -5.6,-3.79 -10.94,-7.93 -16.02,-12.39 c 9.41,-7.38 18.76,-14.81 28.03,-22.27 c -1.46,-1.55 -3.21,1.23 -4.63,1.77 c -8.92,5.07 -17.82,10.18 -26.71,15.3 c -0.59,0.27 -0.94,0.71 -1.07,1.32 c -5.09,-3.05 -11.2,-8.97 -15.71,-13.03 c 7.46,-5.65 18.21,-16.03 26.06,-19.89 c 0.12,-2.34 -4.03,1.12 -4.54,1.59 c -4.16,2.58 -22.85,12.63 -25.07,14.89 c -2.31,-1.34 -5.92,-4.58 -7.16,-6.9 c 2.94,-1.83 5.74,-3.85 8.42,-6.05 c 1.23,-0.54 2.12,-1.42 2.69,-2.64 c 0.84,0.15 3.64,-1.03 2.61,-2.07 c -1.29,0.15 -2.16,0.84 -2.61,2.07 c -1.44,-0.04 -2.68,0.43 -3.73,1.41 c -2.38,1.67 -7.66,3.89 -9.35,5.94 c -1.52,-1.61 -6.95,-5.3 -6.77,-7.56 c 2.34,-0.35 23.1,-18.39 26.56,-21.26 c -1.1,-0.4 -1.95,-0.07 -2.54,1.01 c -9.82,5.36 -19.53,10.92 -29.13,16.67 c -1.03,-1.68 -6.15,-5.47 -5.99,-7.27 c 9.66,-8.05 19.23,-16.15 28.71,-24.32 c -0.72,-0.63 -2.34,0.39 -3.04,0.71 c -9.87,5.79 -19.78,11.53 -29.71,17.23 c -0.57,0.37 -0.8,0.9 -0.69,1.58 c -2.26,-0.72 -5.61,-5.57 -7.7,-7.15 c 3.32,-2.34 6.54,-4.79 9.67,-7.37 c 1.31,-0.45 2.19,-1.33 2.64,-2.64 c 0.73,-0.09 3.78,-0.83 2.63,-2.02 c -1.27,0.16 -2.14,0.83 -2.63,2.02 c -1.47,0.09 -2.79,0.6 -3.96,1.53 c -3.21,1.95 -6.45,3.87 -9.73,5.76 c -2.41,-0.81 -5.29,-5.47 -7.36,-7.18 c 2.81,-0.01 19.92,-15.7 23.76,-18.03 c 0.24,-0.32 0.31,-0.67 0.2,-1.05 c 0.8,-0.01 1.57,-0.15 2.32,-0.43 c 1.18,-1.07 1.01,-1.51 -0.51,-1.32 c -0.84,0.34 -1.44,0.92 -1.81,1.75 c -8.61,4.34 -18.48,10.23 -26.82,15.36 c -6.55,-7.21 -12.67,-14.76 -18.36,-22.65 c 6.14,-5.07 16,-12.36 21.26,-17.57 c 0.55,-0.3 3.8,-1.2 2.61,-2.12 c -1.37,0.1 -2.24,0.81 -2.61,2.12 c -5.04,1.6 -17.36,9.65 -22.83,12.5 c -0.66,0.52 -1.1,1.19 -1.31,2.01 c -1.61,-2.74 -4.88,-5.89 -5.94,-8.88 c 1.63,-0.84 3.17,-1.83 4.63,-2.98 c 0.66,-0.45 1.18,-1.04 1.54,-1.77 c 0.81,0.1 3.58,-1.04 2.59,-2.07 c -1.44,0.02 -2.3,0.71 -2.59,2.07 c -1.48,-0.13 -6.66,2.42 -6.83,3.95 c -2.4,-2.28 -5.32,-6.08 -6.3,-9.23 c 0.7,0.19 1.32,0.05 1.88,-0.42 c 8.63,-7.3 17.27,-14.54 25.94,-21.71 c -0.47,-0.46 -1.02,-0.57 -1.66,-0.33 c -10.04,5.98 -20.06,11.99 -30.06,18.04 c -1.83,-2.75 -3.62,-5.54 -5.35,-8.35 c 5.51,-4.67 17.11,-12.91 21.2,-17.93 c 0.69,-0.14 3.84,-0.9 2.71,-2.07 c -1.25,0.22 -2.15,0.91 -2.71,2.07 c -0.37,-0.14 -0.73,-0.13 -1.09,0.05 c -7.57,4.27 -15.07,8.67 -22.48,13.2 c -2.67,-2.17 -9.41,-13.36 -10.32,-16.68 c 0.65,0.12 1.24,-0.02 1.77,-0.41 c 8.7,-7.24 17.39,-14.43 26.07,-21.58 c -0.27,-0.32 -0.6,-0.42 -1.01,-0.3 c -9.47,5.45 -18.94,10.9 -28.42,16.34 c -0.61,0.27 -0.97,0.73 -1.06,1.38 c -1.93,-1.38 -4.55,-6.83 -5.33,-9.24 c 0.66,0.06 1.25,-0.11 1.77,-0.53 c 2.97,-2.48 6.1,-4.73 9.38,-6.76 c 0.51,-0.31 0.77,-0.75 0.78,-1.34 c 0.58,-0.44 4.12,-1.05 2.64,-2.14 c -1.38,0.1 -2.27,0.81 -2.64,2.14 c -0.63,-0.01 -1.26,0.05 -1.87,0.19 c -3.71,2.37 -7.46,4.66 -11.27,6.87 c -1.67,-3 -3.24,-6.05 -4.71,-9.16 c 2.82,-0.39 22.03,-15.93 25.74,-18.79 c 1.06,-0.48 2.03,-1.05 2.92,-1.7 c -1.52,-1.6 -3.36,1 -4.46,1.94 c -8.76,4.75 -17.43,9.66 -26.02,14.71 c -1.64,-2.97 -3.04,-6.05 -4.22,-9.23 c 0.74,0.21 1.44,0.1 2.1,-0.32 c 13,-9.06 27.34,-20.82 41.03,-28.29 c 0.53,-0.27 0.77,-0.7 0.7,-1.29 c 0.69,-0.02 4.54,-0.97 2.71,-2.05 c -1.33,0.13 -2.23,0.82 -2.71,2.05 c -2.19,-0.28 -3.02,1.35 -4.68,2.4 c -13.79,7.69 -27.45,15.59 -40.98,23.71 c -2.72,-6.02 -5.19,-12.13 -7.41,-18.36 c 0.64,-0.15 1.24,-0.42 1.78,-0.81 c 11.28,-7.73 22.58,-15.43 33.91,-23.1 c 1.51,-1.05 3.05,-2.05 4.63,-3 c 2.7,-1.81 5.33,-3.69 7.89,-5.64 c -0.51,-0.92 -1.23,-0.32 -1.98,-0.08 c -2.39,1.53 -4.72,3.11 -7.02,4.75 c -1.73,0.7 -3.39,1.55 -4.99,2.55 c -11.9,7 -23.87,13.91 -35.91,20.73 c -1.75,-5.7 -4.63,-12.7 -5.25,-18.54 c 0.79,0.11 1.52,-0.04 2.19,-0.47 c 16.58,-11.67 33.13,-23.38 49.66,-35.14 c 2.01,-1.46 3.88,-1.76 5.35,-3.99 c 0.77,-0.05 3.57,-1.18 2.56,-2.21 c -1.4,0.13 -2.26,0.86 -2.56,2.21 c -0.69,-0.06 -1.37,-0.01 -2.03,0.14 c -18.85,11.14 -37.77,22.17 -56.76,33.09 c -1.57,-1.4 -2.32,-7.53 -2.4,-9.64 c 14.26,-9.52 28.44,-19.13 42.55,-28.83 c 0.29,-0.18 0.44,-0.44 0.46,-0.78 c 0.69,-0.11 4.04,-1.12 2.78,-2.16 c -1.47,0.01 -2.4,0.73 -2.78,2.16 c -1.96,-0.03 -3.5,0.79 -4.61,2.46 c -13.3,7.25 -26.46,14.76 -39.5,22.54 c -1.46,-7.05 -2.31,-14.18 -2.54,-21.38 c 2.99,-0.34 30.52,-20.66 35.26,-23.93 c 0.63,-0.45 1.15,-0.99 1.57,-1.62 c 1.38,-0.18 2.36,-0.91 2.94,-2.19 c 0.5,0.2 2.82,-0.33 1.65,-1.11 c -0.72,0.12 -1.27,0.49 -1.65,1.11 c -1.48,0.07 -2.46,0.8 -2.94,2.19 c -0.91,0.02 -1.78,0.23 -2.59,0.64 c -11.13,6.37 -22.19,12.85 -33.18,19.45 c -0.4,-0.09 -0.8,-0.19 -1.2,-0.28 c -0.59,-3.38 -0.55,-6.74 0.12,-10.09 c 2.04,-1.26 4.02,-2.56 5.96,-3.9 c 1.57,-1.07 4.08,-2.26 4.96,-3.99 c 1.98,-0.25 3.64,-1.29 4.87,-2.73 c -0.77,-1.33 -4.57,1.64 -4.87,2.73 c -2.01,0.24 -3.71,1.13 -5.09,2.65 c -1.97,0.85 -3.93,1.73 -5.87,2.65 c -0.3,-4.26 0.09,-8.45 1.16,-12.59 c 0.6,0.35 1.19,0.31 1.77,-0.1 c 12.27,-8.85 24.55,-17.69 36.84,-26.53 c 0.81,-0.55 1.52,-1.19 2.11,-1.92 c 1.41,0.1 2.36,-0.48 2.86,-1.75 c -1.2,-0.59 -2.68,0.44 -2.86,1.75 c -0.43,0.01 -0.85,0.08 -1.26,0.2 c -12.23,7.06 -24.49,14.11 -36.78,21.13 c -0.47,0.69 -1.07,1.18 -1.81,1.5 c 0.98,-5.14 2.23,-10.2 3.75,-15.18 c 2.55,0.4 23.9,-16.3 27.44,-18.96 c 1.15,-0.53 2.27,-1.12 3.36,-1.75 c -0.03,-0.6 -0.37,-0.85 -1.01,-0.76 c -9.17,5.3 -18.36,10.62 -27.55,15.94 c 1.28,-5.39 4.22,-11.81 7.19,-16.51 c 1.68,-0.75 3.25,-1.7 4.71,-2.86 c 1.25,-0.73 2.25,-1.71 3.01,-2.94 c 1.3,0.07 2.26,-0.47 2.86,-1.6 c -0.93,-1.03 -2.57,0.64 -2.86,1.6 c -1.69,0.06 -3.04,0.75 -4.04,2.09 c -0.62,0.44 -1.29,0.8 -2.01,1.08 c 7.11,-16.55 29.37,-37.89 45.67,-46.06 c 2.22,-0.51 3,3.7 3.48,5.18 Z M 124.69,182.23 c 0.69,-0.17 4.32,-1.11 2.94,-2.26 c -1.45,0.15 -2.43,0.91 -2.94,2.26 Z M 38.74,213.96 c 0.48,0.01 0.88,-0.16 1.18,-0.53 c -0.54,-0.24 -0.93,-0.06 -1.18,0.53 Z M 36.7,215.23 c 0.14,-0.1 1.88,-0.51 0.88,-0.98 c -0.48,0.15 -0.78,0.47 -0.88,0.98 Z M 419.22,345.74 c 1.88,1.18 3.81,2.29 5.76,3.34 c 0.13,1 -0.22,1.79 -1.03,2.35 c -3.79,2.25 -7.63,4.39 -11.52,6.4 c -0.32,-0.32 -0.38,-0.7 -0.17,-1.13 c 1.91,-3.21 6.14,-7.42 6.96,-10.96 Z M 363.65,362.36 c -0.91,-0.42 -1.82,-0.45 -2.74,-0.1 c -4.18,2.53 -8.37,5.03 -12.58,7.51 c -1.75,0.9 -3.53,1.75 -5.34,2.53 c 4.07,-4.74 8.07,-9.56 12.01,-14.44 c 1.46,-0.54 6.61,3.12 8.31,3.53 c 0.3,0.26 0.41,0.59 0.34,0.97 Z M 474.72,445.25 c 0.66,-0.22 4.29,-1.06 2.85,-2.22 c -1.37,0.2 -2.32,0.94 -2.85,2.22 Z M 276.69,472.17 c 0.22,-0.08 1.97,-0.46 0.94,-1.03 c -0.51,0.16 -0.83,0.51 -0.94,1.03 Z M 411.79,492.36 c 0.78,0.12 4.18,-1.43 2.68,-2.22 c -1.39,0.14 -2.28,0.88 -2.68,2.22 Z"/></g>
<g><path fill="#42ab4d" fill-opacity="0.42" stroke="#42ab4d" stroke-width="0.5" stroke-opacity="0.42" d="M 403.84,483.18 c 0.44,-1.29 1.35,-1.99 2.72,-2.08 c 1.58,1.01 -2.03,2.09 -2.72,2.08 Z"/></g>
<g><path fill="#42ab4e" fill-opacity="0.333" stroke="#42ab4e" stroke-width="0.5" stroke-opacity="0.333" d="M 302.11,444.1 c -0.52,0.67 -1.21,1.01 -2.07,1.01 c 0.4,-0.9 1.09,-1.24 2.07,-1.01 Z"/></g>
<g><path fill="#40ac4e" fill-opacity="0.318" stroke="#40ac4e" stroke-width="0.5" stroke-opacity="0.318" d="M 297.95,411.08 c -0.57,1.24 -1.53,1.88 -2.87,1.93 c 0.5,-1.28 1.46,-1.93 2.87,-1.93 Z"/></g>
<g><path fill="#41ac4e" fill-opacity="0.624" stroke="#41ac4e" stroke-width="0.5" stroke-opacity="0.624" d="M 357.95,401.03 c -0.74,1.23 -3.56,3.55 -4.84,2.47 c 1.19,-1.09 3.07,-2.7 4.84,-2.47 Z"/></g>
<g><path fill="#42ab4e" fill-opacity="0.349" stroke="#42ab4e" stroke-width="0.5" stroke-opacity="0.349" d="M 361.13,398.89 c -0.71,1.22 -1.77,1.93 -3.18,2.14 c 0.54,-1.43 1.6,-2.14 3.18,-2.14 Z"/></g>
<g><path fill="#42ab50" fill-opacity="0.29" stroke="#42ab50" stroke-width="0.5" stroke-opacity="0.29" d="M 169.95,383.04 c 0.45,-1.23 1.32,-1.92 2.61,-2.07 c 1.03,1.04 -1.77,2.22 -2.61,2.07 Z"/></g>
<g><path fill="#40ac4f" fill-opacity="0.251" stroke="#40ac4f" stroke-width="0.5" stroke-opacity="0.251" d="M 226.15,352.79 c -0.3,0.94 -2.12,3 -3.03,1.85 c 0.67,-1.14 1.68,-1.76 3.03,-1.85 Z"/></g>
<g><path fill="#41ac4e" fill-opacity="0.388" stroke="#41ac4e" stroke-width="0.5" stroke-opacity="0.388" d="M 189.05,324.04 c -0.47,0.72 -1.99,2.83 -2.86,1.64 c 0.61,-1.12 1.56,-1.66 2.86,-1.64 Z M 301.93,468.04 c -0.57,1.31 -1.55,1.99 -2.95,2.04 c 0.51,-1.32 1.49,-2 2.95,-2.04 Z M 347.88,480.14 c 0.67,-1.35 3.33,-3.21 4.74,-3.19 c 1.26,1.08 -3.78,3.14 -4.74,3.19 Z"/></g>
<g><path fill="#42ab4f" fill-opacity="0.278" stroke="#42ab4f" stroke-width="0.5" stroke-opacity="0.278" d="M 93.96,307.07 c 0.29,-1.36 1.15,-2.05 2.59,-2.07 c 0.99,1.03 -1.78,2.17 -2.59,2.07 Z"/></g>
<g><path fill="#40ac4e" fill-opacity="0.459" stroke="#40ac4e" stroke-width="0.5" stroke-opacity="0.459" d="M 117.87,306.19 c 0.37,-1.31 1.24,-2.02 2.61,-2.12 c 1.19,0.92 -2.06,1.82 -2.61,2.12 Z"/></g>
<g><path fill="#41ad4f" fill-opacity="0.38" stroke="#41ad4f" stroke-width="0.5" stroke-opacity="0.38" d="M 103.19,243.87 c -0.36,0.75 -2.14,3.01 -2.91,1.77 c 0.61,-1.14 1.58,-1.73 2.91,-1.77 Z"/></g>
<g><path fill="#42ab4d" fill-opacity="0.263" stroke="#42ab4d" stroke-width="0.5" stroke-opacity="0.263" d="M 115.03,218.06 c -0.51,0.77 -2.05,2.71 -2.96,1.57 c 0.61,-1.2 1.6,-1.72 2.96,-1.57 Z"/></g>
<g><path fill="#41ac4d" fill-opacity="0.282" stroke="#41ac4d" stroke-width="0.5" stroke-opacity="0.282" d="M 108.08,207.71 c -0.39,0.86 -1.92,3.27 -2.95,1.98 c 0.64,-1.13 1.62,-1.79 2.95,-1.98 Z"/></g>
<g><path fill="#43aa4f" fill-opacity="0.255" stroke="#43aa4f" stroke-width="0.5" stroke-opacity="0.255" d="M 136.17,146.88 c -1.08,1.71 -3.16,3.22 -5.25,3.02 c 1.36,-1.7 3.11,-2.71 5.25,-3.02 Z"/></g>
<g><path fill="#41ac4e" fill-opacity="0.365" stroke="#41ac4e" stroke-width="0.5" stroke-opacity="0.365" d="M 79.97,145.16 c 0.3,-1.35 1.16,-2.08 2.56,-2.21 c 1.01,1.03 -1.79,2.16 -2.56,2.21 Z M 36.7,215.23 c 0.1,-0.51 0.4,-0.83 0.88,-0.98 c 1,0.47 -0.74,0.88 -0.88,0.98 Z M 411.79,492.36 c 0.4,-1.34 1.29,-2.08 2.68,-2.22 c 1.5,0.79 -1.9,2.34 -2.68,2.22 Z"/></g>
<g><path fill="#40ab4e" fill-opacity="0.408" stroke="#40ab4e" stroke-width="0.5" stroke-opacity="0.408" d="M 108.18,136.83 c -0.56,1.16 -4.04,4.58 -5.05,2.86 c 1.32,-1.34 3.03,-2.72 5.05,-2.86 Z M 130.92,149.9 c -0.25,1.03 -1.89,2.88 -2.9,1.72 c 0.26,-1.16 1.96,-1.39 2.9,-1.72 Z M 297.95,411.08 c 0.18,-0.83 0.71,-1.24 1.58,-1.22 c 1.29,0.82 -1.03,1.36 -1.58,1.22 Z"/></g>
<g><path fill="#41ac4e" fill-opacity="0.475" stroke="#41ac4e" stroke-width="0.5" stroke-opacity="0.475" d="M 61.79,139.14 c 0.38,-1.43 1.31,-2.15 2.78,-2.16 c 1.26,1.04 -2.09,2.05 -2.78,2.16 Z M 354.93,384.01 c 0.24,1.61 -2.03,2.84 -2.92,1.65 c 0.73,-0.94 1.7,-1.49 2.92,-1.65 Z M 302.11,444.1 c 0.14,-1.51 0.98,-2.22 2.53,-2.15 c 1.25,1 -1.85,1.95 -2.53,2.15 Z"/></g>
<g><path fill="#40ac4d" fill-opacity="0.373" stroke="#40ac4d" stroke-width="0.5" stroke-opacity="0.373" d="M 26.04,119.04 c 0.3,-1.09 4.1,-4.06 4.87,-2.73 c -1.23,1.44 -2.89,2.48 -4.87,2.73 Z M 38.74,213.96 c 0.25,-0.59 0.64,-0.77 1.18,-0.53 c -0.3,0.37 -0.7,0.54 -1.18,0.53 Z M 147.07,294.75 c 0.19,1.36 -2.25,2.89 -2.85,1.87 c 0.67,-1.03 1.62,-1.65 2.85,-1.87 Z M 358.98,446.96 c 0.26,-0.61 1.31,-1.58 1.84,-0.68 c -0.47,0.6 -1.08,0.82 -1.84,0.68 Z M 379.91,484.19 c 0.35,-0.65 0.88,-1.07 1.58,-1.26 c 1.01,0.78 -1.07,1.3 -1.58,1.26 Z"/></g>
<g><path fill="#41ac4e" fill-opacity="0.514" stroke="#41ac4e" stroke-width="0.5" stroke-opacity="0.514" d="M 112.98,114.92 c -0.24,1 -1.95,2.83 -2.89,1.72 c 0.69,-0.98 1.66,-1.56 2.89,-1.72 Z M 141.79,331.05 c 0.37,-0.83 0.97,-1.41 1.81,-1.75 c 1.52,-0.19 1.69,0.25 0.51,1.32 c -0.75,0.28 -1.52,0.42 -2.32,0.43 Z"/></g>
<g><path fill="#41ac4e" fill-opacity="0.431" stroke="#41ac4e" stroke-width="0.5" stroke-opacity="0.431" d="M 54.91,115.02 c 0.38,-0.62 0.93,-0.99 1.65,-1.11 c 1.17,0.78 -1.15,1.31 -1.65,1.11 Z M 271.19,397.82 c -0.43,0.81 -2.13,3.06 -3.08,1.82 c 0.29,-1.17 2.12,-1.49 3.08,-1.82 Z M 321.8,414.13 c 0.94,-1.24 3.03,-3.45 4.71,-3.22 c 1.19,1.11 -3.73,3.21 -4.71,3.22 Z M 422.06,415.94 c 0.12,1.57 -2.12,3 -3.07,1.74 c 0.76,-1.01 1.78,-1.59 3.07,-1.74 Z"/></g>
<g><path fill="#205825" fill-opacity="0.09" stroke="#205825" stroke-width="0.5" stroke-opacity="0.09" d="M 200.91,352.93 c 0.49,0.1 0.97,0.2 1.46,0.3 c 0,0.17 -0.01,0.33 -0.01,0.5 c -0.44,0.2 -0.87,0.4 -1.31,0.6 c -0.05,-0.46 -0.1,-0.93 -0.14,-1.4 Z M 363.65,362.36 c 0.12,0.5 -0.07,0.84 -0.58,1.02 c -9.65,5.54 -19.3,11.08 -28.94,16.62 c -0.34,-0.53 -0.43,-1.1 -0.27,-1.71 c 1.11,-1.03 9.04,-5.1 9.13,-5.99 c 1.81,-0.78 3.59,-1.63 5.34,-2.53 c 4.21,-2.48 8.4,-4.98 12.58,-7.51 c 0.92,-0.35 1.83,-0.32 2.74,0.1 Z"/></g>
<g><path fill="#2b7233" fill-opacity="0.137" stroke="#2b7233" stroke-width="0.5" stroke-opacity="0.137" d="M 20.95,121.69 c 0.04,0.45 0.08,0.9 0.13,1.34 c -1.94,1.34 -3.92,2.64 -5.96,3.9 c -0.18,-0.86 -0.2,-1.72 -0.04,-2.59 c 1.94,-0.92 3.9,-1.8 5.87,-2.65 Z"/></g>
<g><path fill="#2c6733" fill-opacity="0.196" stroke="#2c6733" stroke-width="0.5" stroke-opacity="0.196" d="M 33.97,65.1 c 0.41,0.2 0.75,0.48 1.03,0.85 c -1.46,1.16 -3.03,2.11 -4.71,2.86 c -0.05,-1.27 0.51,-2.15 1.67,-2.63 c 0.72,-0.28 1.39,-0.64 2.01,-1.08 Z"/></g>
<g><path fill="#2e663a" fill-opacity="0.541" d="M 112.08,6.28 c 2.12,-0.17 4.24,-0.24 6.36,-0.21 c 0.46,0.27 0.59,0.65 0.4,1.14 c -1.59,-0.09 -5.59,0.13 -6.76,-0.93 Z"/></g>
<g><path fill="#34703c" fill-opacity="0.651" d="M 327.82,501.15 c 1.31,-0.19 4.29,-0.34 5.24,0.72 c -0.92,-0.19 -5.38,0.87 -5.24,-0.72 Z"/></g>
<g><path fill="#205527" fill-opacity="0.071" stroke="#205527" stroke-width="0.5" stroke-opacity="0.071" d="M 289.97,415.69 c 0.02,0.43 0.04,0.85 0.05,1.27 c -0.56,0.29 -1.06,0.66 -1.5,1.11 c -0.59,-0.19 -1.08,-0.51 -1.48,-0.98 c 0.88,-0.66 1.86,-1.12 2.93,-1.4 Z"/></g>
<g><path fill="#335f37" fill-opacity="0.596" stroke="#335f37" stroke-width="0.5" stroke-opacity="0.596" d="M 133.08,175.88 c -0.03,0.76 -0.28,1.43 -0.76,2.01 c -0.29,-0.04 -0.4,-0.22 -0.32,-0.56 c 0.1,-0.68 0.46,-1.16 1.08,-1.45 Z"/></g>
<g><path fill="#336a3a" fill-opacity="0.918" d="M 333.75,367.73 c -0.01,0.61 -0.32,0.88 -0.93,0.79 c 0.34,-0.23 0.64,-0.5 0.93,-0.79 Z"/></g>
</svg>
