<?xml version="1.0" encoding="UTF-8"?>
<!DOCTYPE svg PUBLIC "-//W3C//DTD SVG 1.1//EN" "http://www.w3.org/Graphics/SVG/1.1/DTD/svg11.dtd">
<svg xmlns="http://www.w3.org/2000/svg" version="1.1" width="512px" height="512px" style="shape-rendering:geometricPrecision; text-rendering:geometricPrecision; image-rendering:optimizeQuality; fill-rule:evenodd; clip-rule:evenodd" xmlns:xlink="http://www.w3.org/1999/xlink">
<g><path fill="#f9ac9a" fill-opacity="0.992" stroke="#f9ac9a" stroke-width="0.5" stroke-opacity="0.992" d="M 187.76,38.73 c 3.68,0.33 5.86,5.3 7.31,8.12 c -4.2,0.32 -17.12,12.32 -22.1,14.71 c -0.8,0.59 -0.85,1.25 -0.16,1.98 c -1.72,1.99 -3.06,0.08 -4.78,1.46 c -0.66,-5.22 0.41,-10.05 1.16,-15.16 c 3.3,-0.31 14.05,-7.75 17.8,-9.5 c 0.55,-0.39 0.81,-0.93 0.77,-1.61 Z"/></g>
<g><path fill="#f3f9fc" fill-opacity="0.957" stroke="#f3f9fc" stroke-width="0.5" stroke-opacity="0.957" d="M 489.82,77.65 c 2.1,1.64 3.09,7.93 3.2,10.55 c -3.28,2.17 -15.09,10.94 -18.77,9.91 c -0.97,-3.38 -1.73,-6.8 -2.27,-10.26 c 4.95,-2.17 13.05,-7.08 17.84,-10.2 Z"/></g>
<g><path fill="#f9ac9a" fill-opacity="0.361" d="M 137.18,5.12 c -0.19,0.57 -0.58,0.86 -1.16,0.88 c 0.13,-0.6 0.51,-0.9 1.16,-0.88 Z M 189.97,90.03 c 0.44,-1.26 1.33,-1.95 2.66,-2.07 c 1.38,1.2 -1.99,1.77 -2.66,2.07 Z M 225.12,94.95 c -0.52,1.56 -3.42,3.08 -5.04,3.01 c 0.08,-1.24 3.8,-3.24 5.04,-3.01 Z M 84.03,123.97 c 0.38,0.09 0.76,0.18 1.14,0.27 c -0.4,0.38 -0.86,0.67 -1.38,0.87 c 0.08,-0.38 0.16,-0.76 0.24,-1.14 Z M 119,166.23 c 0.39,-0.14 0.78,-0.27 1.18,-0.4 c -0.14,0.86 -0.64,1.21 -1.5,1.07 c 0.11,-0.22 0.21,-0.45 0.32,-0.67 Z M 197.22,207.79 c -0.6,1.9 -3.42,2.77 -5.14,3.26 c 0.07,-1.64 3.72,-3.08 5.14,-3.26 Z M 99.89,274.93 c 1.01,-0.68 1.01,-0.68 0,0 Z M 97.93,276.08 c -0.62,1.61 -3.45,2.83 -5.04,3.12 c 0.56,-1.73 3.36,-2.98 5.04,-3.12 Z"/></g>
<g><path fill="#bd7d75" fill-opacity="0.125" stroke="#bd7d75" stroke-width="0.5" stroke-opacity="0.125" d="M 241.8,206.23 c 0.03,0.84 -0.01,1.68 -0.11,2.52 c -4.43,2.45 -8.85,4.91 -13.27,7.39 c -0.15,-0.38 -0.3,-0.75 -0.45,-1.13 c 4.58,-2.98 9.19,-5.91 13.83,-8.78 Z"/></g>
<g><path fill="#f9ac9a" fill-opacity="0.337" d="M 25.94,150.64 c 0.03,0.54 0.07,1.07 0.1,1.61 c -0.48,0.35 -1.2,1.63 -1.89,1.07 c 0.21,-1.13 0.81,-2.02 1.79,-2.68 Z M 95.98,155.02 c -0.38,0.82 -1.04,1.16 -1.99,1.01 c 0.4,-0.85 1.06,-1.19 1.99,-1.01 Z M 175.09,193.83 c -0.63,1.26 -1.65,1.98 -3.07,2.16 c 0.55,-1.37 1.57,-2.09 3.07,-2.16 Z M 116.02,250.1 c -0.7,1.26 -1.76,1.97 -3.18,2.14 c 0.62,-1.36 1.68,-2.07 3.18,-2.14 Z M 57,273 c -0.55,1.23 -1.49,1.84 -2.84,1.84 c 0.47,-1.32 1.42,-1.93 2.84,-1.84 Z M 152.92,341.95 c -0.5,1.43 -1.48,2.07 -2.95,1.92 c 0.74,-0.99 1.73,-1.63 2.95,-1.92 Z M 178.23,362.08 c 0.22,0.01 0.44,0.03 0.66,0.04 c -0.07,0.63 -0.46,0.92 -1.16,0.85 c 0.17,-0.29 0.33,-0.59 0.5,-0.89 Z"/></g>
<g><path fill="#f5f9fd" fill-opacity="0.235" d="M 365.92,145.01 c -0.47,1.46 -7.01,5.85 -8.26,5.75 c -2.5,-1.31 7.08,-5.58 8.26,-5.75 Z M 472.96,148 c 0.03,0.41 0.06,0.81 0.08,1.22 c -1.32,1.54 -2.97,2.46 -4.96,2.75 c 0.06,-1.3 3.81,-3.16 4.88,-3.97 Z"/></g>
<g><path fill="#eea896" fill-opacity="0.251" d="M 98.93,166.02 c -0.87,1.75 -10.65,7.28 -12.86,9.02 c -0.13,-0.65 -0.53,-0.99 -1.21,-1.01 c 0.08,-0.33 0.16,-0.66 0.24,-0.99 c 0.4,0.04 0.79,0.01 1.17,-0.09 c 3.77,-2.33 7.57,-4.59 11.4,-6.78 c 0.41,-0.15 0.83,-0.2 1.26,-0.15 Z"/></g>
<g><path fill="#e39a89" fill-opacity="0.18" stroke="#e39a89" stroke-width="0.5" stroke-opacity="0.18" d="M 236.75,87.19 c 0.28,0.44 0.34,0.9 0.18,1.39 c -2.08,1.3 -9.77,6.47 -11.81,6.37 c 0.04,-0.59 0.32,-1.03 0.83,-1.34 c 2.7,-1.69 5.37,-3.42 8.01,-5.18 c 0.95,-0.39 1.88,-0.8 2.79,-1.24 Z"/></g>
<g><path fill="#b37f74" fill-opacity="0.102" stroke="#b37f74" stroke-width="0.5" stroke-opacity="0.102" d="M 241.66,193.15 c 0.12,0.85 0.15,1.7 0.08,2.56 c -2.92,1.59 -5.81,3.24 -8.68,4.93 c -0.62,0.32 -1.27,0.41 -1.96,0.28 c 0.18,-0.52 0.46,-0.98 0.84,-1.37 c 3.25,-2.12 6.49,-4.25 9.72,-6.4 Z"/></g>
<g><path fill="#8f9293" fill-opacity="0.067" d="M 320.02,131.27 c 0.32,0 0.55,0.14 0.7,0.42 c -2.8,2.09 -5.68,4.1 -8.64,6.03 c -0.69,0.32 -1.39,0.34 -2.09,0.05 c -0.42,0.13 -0.61,0 -0.59,-0.4 c 0.25,-0.37 0.51,-0.74 0.77,-1.1 c 2.71,-1.55 5.42,-3.08 8.16,-4.59 c 0.52,-0.34 1.08,-0.48 1.69,-0.41 Z"/></g>
<g><path fill="#f2f8fb" fill-opacity="0.98" stroke="#f2f8fb" stroke-width="0.5" stroke-opacity="0.98" d="M 472.08,45.99 c 0.3,-0.07 0.59,-0.13 0.89,-0.19 c 2.08,1.55 4.47,4.76 5.17,7.23 c -4.91,2.94 -9.74,6 -14.51,9.19 c -0.79,0.7 -0.67,1.26 0.38,1.69 c -1.11,0.78 -2.28,1.48 -3.49,2.11 c -2.69,-3.08 -5.56,-5.99 -8.61,-8.72 c 1.16,-0.59 3.7,-1.2 4.13,-2.56 c 1.63,0.02 5.1,-2.64 6.51,-3.63 c 3.25,-1.56 6.43,-3.27 9.53,-5.12 Z M 326.87,127.78 c 0.44,0.15 0.76,0.44 0.98,0.86 c 0.33,2.81 3.5,8.02 2.3,10.49 c -0.28,0.31 -0.56,0.62 -0.84,0.92 c -0.58,-1.16 -1.11,-1.12 -1.61,0.15 c -1.76,-0.81 -5.82,2.62 -7.27,3.63 c -1.65,0.96 -5.98,2.26 -6.59,4.17 c -1.78,-1.4 -4.2,-7.93 -3.85,-10.23 c 0.7,0.29 1.4,0.27 2.09,-0.05 c 2.96,-1.93 5.84,-3.94 8.64,-6.03 c -0.15,-0.28 -0.38,-0.42 -0.7,-0.42 c 0.51,-1.95 2.9,-2.92 4.56,-1.68 c 0.84,-0.5 1.6,-1.1 2.29,-1.81 Z"/></g>
<g><path fill="#f2fafd" fill-opacity="0.227" d="M 345.04,172.05 c -0.28,0.48 -0.64,0.89 -1.06,1.24 c -2.93,1.91 -5.82,3.84 -8.68,5.8 c -0.32,-0.75 -0.89,-1.13 -1.71,-1.13 c 3.15,-1.77 6.28,-3.59 9.39,-5.46 c 0.65,-0.34 1.33,-0.49 2.06,-0.45 Z"/></g>
<g><path fill="#f9ac9b" fill-opacity="0.286" d="M 90.08,146.11 c -0.53,0.76 -2.21,2.81 -3.07,1.56 c 0.69,-1.14 1.71,-1.66 3.07,-1.56 Z M 135.06,158.02 c -0.46,0.74 -1.13,1.09 -2.01,1.04 c 0.38,-0.87 1.05,-1.22 2.01,-1.04 Z M 227.68,202.16 c 0.08,0.33 0.16,0.66 0.24,0.99 c -1.33,1.55 -2.99,2.47 -4.98,2.78 c 0.77,-1.68 3.31,-2.66 4.74,-3.77 Z M 209.88,240.94 c -0.27,0.93 -0.91,1.26 -1.91,0.99 c 0.41,-0.75 1.04,-1.07 1.91,-0.99 Z"/></g>
<g><path fill="#e09c8c" fill-opacity="0.925" d="M 137.18,5.12 c 0.33,-0.06 0.65,-0.11 0.98,-0.17 c 0.91,0.02 1.82,0.11 2.71,0.26 c 1.02,0.16 1.8,0.68 2.34,1.56 c -2.69,0.19 -5.38,0.31 -8.08,0.35 c 0.04,-0.3 0.08,-0.59 0.12,-0.88 c 0.26,-0.08 0.51,-0.16 0.77,-0.24 c 0.58,-0.02 0.97,-0.31 1.16,-0.88 Z M 134.13,7.17 c 0.33,-0.02 0.67,-0.04 1,-0.05 c -0.62,0.63 -1.39,0.94 -2.31,0.92 c 0.21,-0.6 0.64,-0.89 1.31,-0.87 Z"/></g>
<g><path fill="#d69a8c" fill-opacity="0.161" d="M 195.69,305.28 c 0.04,0.68 0.38,1.13 1.03,1.34 c 0.02,0.03 -6.07,3.51 -6.69,3.94 c -0.66,0.33 -1.34,0.43 -2.06,0.28 c 0.66,-1.45 6.13,-4.57 7.72,-5.56 Z"/></g>
<g><path fill="#b78c8c" fill-opacity="0.957" d="M 224.94,364.8 c 1,-0.05 1.74,0.35 2.2,1.21 c -2.72,1.48 -5.51,2.84 -8.36,4.09 c 1.45,-2.36 4.23,-3.35 6.16,-5.3 Z"/></g>
<g><path fill="#cdd0d3" fill-opacity="0.165" d="M 327.86,77.24 c -0.6,1.22 -1.56,2.02 -2.87,2.38 c 0.12,-0.61 -0.12,-1.01 -0.72,-1.19 c 1.01,-0.95 2.2,-1.35 3.59,-1.19 Z M 356.88,92.07 c -0.58,1.34 -1.57,2.22 -2.97,2.61 c 0.25,-0.65 0.04,-1.07 -0.63,-1.27 c 0.98,-0.95 2.18,-1.4 3.6,-1.34 Z"/></g>
<g><path fill="#c2897c" fill-opacity="0.745" d="M 83.14,37.21 c -0.29,0.37 -0.62,0.69 -1.01,0.97 c 0.05,-0.62 0.39,-0.95 1.01,-0.97 Z M 82.13,38.18 c -0.45,0.3 -0.94,0.46 -1.48,0.47 c 0.45,-0.28 0.94,-0.44 1.48,-0.47 Z M 80.65,38.65 c 0.09,0.44 0.02,0.84 -0.21,1.22 c -1.62,1.63 -3.01,3.43 -4.16,5.41 c -0.92,-3.66 1.58,-5.17 4.37,-6.63 Z"/></g>
<g><path fill="#cb8e80" fill-opacity="0.91" d="M 20.3,143.06 c 0.23,0.02 0.47,0.03 0.7,0.04 c 1.48,0.33 2.95,0.26 4.4,-0.22 c 0.31,0.18 0.63,0.36 0.95,0.54 c -2.31,0.45 -4.61,0.97 -6.91,1.55 c -0.59,0.02 -1.17,-0.07 -1.73,-0.27 c 0.43,-0.23 0.86,-0.45 1.3,-0.67 c 0.59,-0.11 1.02,-0.43 1.29,-0.97 Z M 17.71,144.7 c -0.25,0.98 -0.9,1.34 -1.96,1.07 c 0.52,-0.59 1.17,-0.94 1.96,-1.07 Z"/></g>
<g><path fill="#f9ac9a" fill-opacity="0.506" d="M 171.17,45.13 c 0.38,0.03 0.75,0.05 1.12,0.08 c -0.4,0.47 -0.92,0.76 -1.54,0.84 c 0.14,-0.31 0.28,-0.61 0.42,-0.92 Z M 25.4,142.88 c -1.45,0.48 -2.92,0.55 -4.4,0.22 c 0.07,-0.81 0.54,-1.19 1.42,-1.16 c 0.89,0 2.63,-0.19 2.98,0.94 Z M 218.07,209.07 c -0.18,0.73 -1.33,1.62 -1.89,0.67 c 0.47,-0.63 1.1,-0.85 1.89,-0.67 Z M 59,272.03 c 0.21,-1.51 1.08,-2.2 2.62,-2.08 c 1.48,0.85 -2.09,1.84 -2.62,2.08 Z"/></g>
<g><path fill="#f9ac9a" fill-opacity="0.208" d="M 140.87,5.21 c -0.89,-0.15 -1.8,-0.24 -2.71,-0.26 c -0.65,-1.4 3.33,-1.52 2.71,0.26 Z M 135.25,6.24 c -0.04,0.29 -0.08,0.58 -0.12,0.88 c -0.33,0.01 -0.67,0.03 -1,0.05 c -0.01,-0.77 0.37,-1.08 1.12,-0.93 Z M 105.04,113.06 c -0.66,1.32 -1.74,1.98 -3.27,1.99 c 0.63,-1.4 1.72,-2.07 3.27,-1.99 Z M 20.3,143.06 c -0.27,0.54 -0.7,0.86 -1.29,0.97 c 0.16,-0.67 0.6,-0.99 1.29,-0.97 Z M 38.14,247.3 c 0.27,-0.12 0.54,-0.24 0.81,-0.36 c -0.2,0.57 -0.59,0.95 -1.17,1.13 c 0.12,-0.25 0.24,-0.51 0.36,-0.77 Z"/></g>
<g><path fill="#df9889" fill-opacity="0.2" d="M 117.86,202.15 c -0.56,1.53 -3.15,2.66 -4.46,3.6 c -0.38,-0.49 -0.87,-0.83 -1.47,-1.02 c 1.87,-0.42 3.96,-3.27 5.93,-2.58 Z"/></g>
<g><path fill="#4d5c7a" fill-opacity="0.753" d="M 215.7,506.08 c 2.17,-0.44 4.32,-0.37 6.42,0.22 c 0.09,1.24 -5.85,1.74 -6.42,-0.22 Z"/></g>
<g><path fill="#d4dbde" fill-opacity="0.149" d="M 350.6,35.97 c -0.22,0.95 0.13,1.53 1.04,1.73 c -0.64,0.27 -3.71,2.87 -4.54,1.94 c 0.97,-1.4 2.13,-2.63 3.5,-3.67 Z"/></g>
<g><path fill="#df9b8c" fill-opacity="0.706" d="M 184.36,31.01 c -2.19,0.58 -4.41,0.93 -6.66,1.05 c 0.39,-1.79 5.91,-3.03 6.66,-1.05 Z"/></g>
<g><path fill="#a4a8a9" fill-opacity="0.094" d="M 403.26,35.87 c 0.67,0.22 1.25,0.58 1.75,1.08 c -1.06,0.63 -2.13,1.25 -3.19,1.86 c -0.52,0.02 -1.03,0.01 -1.55,-0.04 c -0.06,-0.29 0.01,-0.55 0.19,-0.78 c 1.1,-0.53 2.04,-1.24 2.8,-2.12 Z"/></g>
<g><path fill="#eca798" fill-opacity="0.875" d="M 178.86,359.95 c 1.15,0 2.31,-0.03 3.46,-0.08 c -0.45,0.45 -0.97,0.8 -1.57,1.03 c -0.36,0.27 -0.71,0.55 -1.06,0.84 c -0.27,0.12 -0.53,0.25 -0.8,0.38 c -0.22,-0.01 -0.44,-0.03 -0.66,-0.04 c -0.11,-0.8 0.1,-1.51 0.63,-2.13 Z M 178.23,362.08 c -0.17,0.3 -0.33,0.6 -0.5,0.89 c -0.27,0.01 -0.55,0.02 -0.82,0.03 c 0.23,-0.59 0.67,-0.89 1.32,-0.92 Z"/></g>
<g><path fill="#d0937c" fill-opacity="0.133" d="M 100.85,84.07 c -0.51,1.28 -1.37,2.25 -2.57,2.92 c 0.01,-0.78 -0.36,-1.28 -1.11,-1.49 c 1.05,-0.94 2.28,-1.42 3.68,-1.43 Z"/></g>
<g><path fill="#f8ae9b" fill-opacity="0.227" d="M 227.97,215.01 c 0.15,0.38 0.3,0.75 0.45,1.13 c -0.66,0.71 -1.47,0.98 -2.43,0.8 c 0.44,-0.87 1.1,-1.51 1.98,-1.93 Z M 100.1,288.1 c -0.52,0.72 -1.13,1.35 -1.82,1.9 c -0.13,-0.4 -0.25,-0.8 -0.38,-1.21 c 0.55,-0.71 1.28,-0.95 2.2,-0.69 Z"/></g>
<g><path fill="#997d80" fill-opacity="0.129" stroke="#997d80" stroke-width="0.5" stroke-opacity="0.129" d="M 153.63,363.21 c 0.21,1.1 -0.07,2.05 -0.86,2.85 c -0.19,0.01 -0.39,0.01 -0.58,0.02 c -0.37,-0.04 -0.73,-0.09 -1.1,-0.13 c -0.06,-0.98 1.83,-2.09 2.54,-2.74 Z"/></g>
<g><path fill="#eaa696" fill-opacity="0.839" d="M 157.88,361.26 c 1.33,-0.35 2.68,-0.47 4.05,-0.36 c -2.19,1.65 -4.48,3.18 -6.86,4.59 c -0.72,0.38 -1.48,0.57 -2.3,0.57 c 0.79,-0.8 1.07,-1.75 0.86,-2.85 c 0.45,-0.18 0.9,-0.36 1.36,-0.54 c 0.53,0.16 0.81,-0.03 0.83,-0.56 c 0.49,-0.08 0.99,-0.16 1.48,-0.24 c 0.2,-0.2 0.4,-0.4 0.58,-0.61 Z"/></g>
<g><path fill="#f3f9fd" fill-opacity="0.365" d="M 326.26,113.83 c -0.09,0.39 -0.18,0.79 -0.27,1.19 c -0.27,-0.02 -0.53,-0.03 -0.8,-0.05 c 0.03,-0.67 0.38,-1.05 1.07,-1.14 Z M 444.73,150.26 c 0.55,-1.31 1.51,-2.06 2.89,-2.26 c 1.45,1.16 -2.21,2.03 -2.89,2.26 Z"/></g>
<g><path fill="#c8897a" fill-opacity="0.176" d="M 144.92,311.24 c -0.62,1.3 -1.64,1.86 -3.06,1.7 c -0.19,0.14 -0.39,0.28 -0.58,0.42 c -0.05,-1.62 2.25,-2.61 3.64,-2.12 Z"/></g>
<g><path fill="#5a657b" fill-opacity="0.129" stroke="#5a657b" stroke-width="0.5" stroke-opacity="0.129" d="M 229.92,453.66 c 1.09,-0.09 1.51,0.4 1.27,1.48 c -1,0.46 -2.05,0.74 -3.14,0.85 c 0.33,-0.99 0.95,-1.76 1.87,-2.33 Z"/></g>
<g><path fill="#797e7e" fill-opacity="0.059" d="M 474.39,146.94 c 0.63,0.17 1.16,0.49 1.58,0.97 c -0.88,0.64 -1.86,1.08 -2.93,1.31 c -0.02,-0.41 -0.05,-0.81 -0.08,-1.22 c 0.51,-0.31 0.99,-0.66 1.43,-1.06 Z"/></g>
<g><path fill="#6e7687" fill-opacity="0.231" stroke="#6e7687" stroke-width="0.5" stroke-opacity="0.231" d="M 354.67,194.32 c 0.51,0.58 0.9,1.23 1.18,1.94 c -1.02,-0.12 -1.98,-0.42 -2.89,-0.89 c 0.4,-0.67 0.98,-1.02 1.71,-1.05 Z"/></g>
<g><path fill="#c48b7d" fill-opacity="0.737" d="M 243.76,73.09 c 0.59,0.14 1.18,0.29 1.76,0.47 c -0.68,0.18 -1.26,0.02 -1.76,-0.47 Z M 245.52,73.56 c 0.28,0.36 0.56,0.74 0.82,1.12 c -0.83,0.08 -1.11,-0.3 -0.82,-1.12 Z M 246.34,74.68 c 0.38,0.65 0.67,1.33 0.86,2.05 c -1.31,0.39 -1.29,-1.29 -0.86,-2.05 Z"/></g>
<g><path fill="#696b6d" fill-opacity="0.286" d="M 495.04,98.05 c 0.7,0.46 1,1.12 0.92,1.99 c -0.75,-0.44 -1.4,-0.99 -1.95,-1.66 c 0.34,-0.11 0.69,-0.22 1.03,-0.33 Z"/></g>
<g><path fill="#fbab9f" fill-opacity="0.169" d="M 231.1,200.92 c -0.44,0.86 -1.08,1.53 -1.91,2 c -0.05,-0.37 -0.11,-0.73 -0.16,-1.1 c 0.46,-0.75 1.15,-1.04 2.07,-0.9 Z"/></g>
<g><path fill="#f3f8fe" fill-opacity="0.22" d="M 455.76,96.02 c 0.09,0.41 0.18,0.83 0.27,1.24 c -0.48,0.69 -1.15,0.96 -2.03,0.82 c 0.33,-0.9 0.92,-1.59 1.76,-2.06 Z"/></g>
<g><path fill="#f8ad99" fill-opacity="0.294" d="M 220.35,66.09 c -0.15,0.24 -0.31,0.48 -0.46,0.72 c -0.24,0.1 -0.48,0.2 -0.72,0.3 c 0.03,-0.74 0.42,-1.08 1.18,-1.02 Z M 222.94,205.93 c -0.29,0.9 -0.93,1.26 -1.91,1.07 c 0.37,-0.8 1.01,-1.16 1.91,-1.07 Z"/></g>
<g><path fill="#a07f80" fill-opacity="0.145" stroke="#a07f80" stroke-width="0.5" stroke-opacity="0.145" d="M 124.13,361.3 c 0.53,-0.13 1.06,-0.16 1.59,-0.09 c -0.27,0.63 -0.71,0.78 -1.32,0.47 c -0.09,-0.13 -0.18,-0.25 -0.27,-0.38 Z"/></g>
<g><path fill="#dbe1e3" fill-opacity="0.486" stroke="#dbe1e3" stroke-width="0.5" stroke-opacity="0.486" d="M 304.91,66.16 c 0.2,0.86 -0.03,1.57 -0.69,2.13 c -0.17,-0.73 -0.6,-2.36 0.69,-2.13 Z"/></g>
<g><path fill="#f3f9ff" fill-opacity="0.161" stroke="#f3f9ff" stroke-width="0.5" stroke-opacity="0.161" d="M 496.23,101.97 c -0.08,0.38 -0.16,0.76 -0.24,1.14 c -0.31,-0.01 -0.61,-0.02 -0.92,-0.03 c 0.18,-0.59 0.56,-0.96 1.16,-1.11 Z M 494.28,136.92 c -0.16,0.37 -0.32,0.73 -0.49,1.1 c -0.24,0.02 -0.48,0.04 -0.72,0.06 c 0.22,-0.58 0.62,-0.96 1.21,-1.16 Z"/></g>
<g><path fill="#e1e7ea" fill-opacity="0.675" stroke="#e1e7ea" stroke-width="0.5" stroke-opacity="0.675" d="M 306.37,64 c -0.04,1.04 -0.53,1.76 -1.46,2.16 c -0.26,-1.24 0.23,-1.96 1.46,-2.16 Z"/></g>
<g><path fill="#b68276" fill-opacity="0.902" d="M 218.75,75.92 c 0.01,0.26 0.02,0.52 0.02,0.78 c -0.28,0.07 -0.56,0.13 -0.84,0.2 c 0.14,-0.45 0.41,-0.77 0.82,-0.98 Z M 217.93,76.9 c -0.04,0.27 -0.09,0.54 -0.13,0.81 c -0.32,0.06 -0.64,0.12 -0.95,0.18 c 0.31,-0.39 0.67,-0.72 1.08,-0.99 Z"/></g>
<g><path fill="#b3b7ba" fill-opacity="0.616" stroke="#b3b7ba" stroke-width="0.5" stroke-opacity="0.616" d="M 331.33,31.08 c -0.44,0.48 -0.99,0.68 -1.64,0.59 c 0.5,-0.32 1.05,-0.52 1.64,-0.59 Z M 329.69,31.67 c 0.11,0.66 -0.08,1.2 -0.6,1.62 c 0.02,-0.62 0.21,-1.16 0.6,-1.62 Z"/></g>
<g><path fill="#eda694" fill-opacity="0.169" stroke="#eda694" stroke-width="0.5" stroke-opacity="0.169" d="M 218.01,67.23 c 0.04,0.2 0.07,0.39 0.1,0.59 c -0.38,0.13 -0.76,0.25 -1.14,0.38 c -0.01,-0.72 0.34,-1.04 1.04,-0.97 Z"/></g>
<g><path fill="#afb1b3" fill-opacity="0.424" stroke="#afb1b3" stroke-width="0.5" stroke-opacity="0.424" d="M 307.19,63 c -0.15,0.44 -0.42,0.77 -0.82,1 c -0.08,-0.62 0.19,-0.95 0.82,-1 Z"/></g>
<g><path fill="#b37c73" fill-opacity="0.329" stroke="#b37c73" stroke-width="0.5" stroke-opacity="0.329" d="M 90.21,33.22 c -0.21,0.56 -0.62,0.85 -1.22,0.89 c 0.08,-0.72 0.49,-1.02 1.22,-0.89 Z"/></g>
<g><path fill="#cbd2d2" fill-opacity="0.286" stroke="#cbd2d2" stroke-width="0.5" stroke-opacity="0.286" d="M 472.37,44.59 c 0.26,0.37 0.46,0.77 0.6,1.21 c -0.3,0.06 -0.59,0.12 -0.89,0.19 c 0.1,-0.47 0.2,-0.94 0.29,-1.4 Z"/></g>
<g><path fill="#86625b" fill-opacity="0.396" d="M 177.17,32.05 c -0.21,0.65 -0.64,1.06 -1.29,1.25 c 0.1,-0.76 0.53,-1.18 1.29,-1.25 Z"/></g>
<g><path fill="#d89387" fill-opacity="0.259" stroke="#d89387" stroke-width="0.5" stroke-opacity="0.259" d="M 156.74,361.39 c 0.38,-0.04 0.76,-0.09 1.14,-0.13 c -0.18,0.21 -0.38,0.41 -0.58,0.61 c -0.19,-0.16 -0.37,-0.32 -0.56,-0.48 Z"/></g>
<g><path fill="#f8ad9a" fill-opacity="0.267" stroke="#f8ad9a" stroke-width="0.5" stroke-opacity="0.267" d="M 223.19,344.84 c -0.14,0.37 -0.28,0.73 -0.42,1.09 c -0.25,0.03 -0.5,0.07 -0.75,0.1 c 0.21,-0.58 0.6,-0.97 1.17,-1.19 Z"/></g>
<g><path fill="#faad99" fill-opacity="0.196" d="M 180.75,360.9 c 0,0.7 -0.35,0.98 -1.06,0.84 c 0.35,-0.29 0.7,-0.57 1.06,-0.84 Z"/></g>
<g><path fill="#999c9e" fill-opacity="0.373" stroke="#999c9e" stroke-width="0.5" stroke-opacity="0.373" d="M 332.36,30.08 c -0.33,0.35 -0.67,0.68 -1.03,1 c -0.11,-0.77 0.23,-1.1 1.03,-1 Z"/></g>
<g><path fill="#dea095" fill-opacity="0.576" d="M 176.91,363 c -0.05,0.71 -0.43,1.05 -1.16,1.04 c 0.25,-0.5 0.63,-0.85 1.16,-1.04 Z"/></g>
<g><path fill="#cbd0d3" fill-opacity="0.773" stroke="#cbd0d3" stroke-width="0.5" stroke-opacity="0.773" d="M 365.3,23.06 c -0.31,0.38 -0.67,0.69 -1.08,0.95 c 0.04,-0.65 0.4,-0.97 1.08,-0.95 Z"/></g>
<g><path fill="#f0f7ff" fill-opacity="0.129" d="M 383.23,19.56 c -0.38,0.16 -0.74,0.34 -1.1,0.54 c 0.04,-0.73 0.41,-0.91 1.1,-0.54 Z"/></g>
<g><path fill="#e2a293" fill-opacity="0.408" stroke="#e2a293" stroke-width="0.5" stroke-opacity="0.408" d="M 151.09,365.95 c 0.37,0.04 0.73,0.09 1.1,0.13 c -0.18,0.63 -0.6,1.01 -1.26,1.13 c 0.06,-0.42 0.11,-0.84 0.16,-1.26 Z"/></g>
<g><path fill="#f9aa99" fill-opacity="0.176" d="M 241.38,222.96 c -0.09,0.3 -0.18,0.59 -0.27,0.89 c -0.34,0.07 -0.68,0.15 -1.02,0.22 c 0.11,-0.73 0.54,-1.1 1.29,-1.11 Z"/></g>
<g><path fill="#d9dce0" fill-opacity="0.286" stroke="#d9dce0" stroke-width="0.5" stroke-opacity="0.286" d="M 466.03,74.28 c 0.3,-0.11 0.61,-0.22 0.92,-0.33 c -0.15,0.55 -0.46,0.99 -0.94,1.3 c 0,-0.32 0.01,-0.65 0.02,-0.97 Z"/></g>
<g><path fill="#c29090" fill-opacity="0.506" d="M 232.39,373.94 c -0.33,0.66 -0.85,1.08 -1.58,1.26 c 0.22,-0.79 0.75,-1.21 1.58,-1.26 Z"/></g>
<g><path fill="#7c7283" fill-opacity="0.412" d="M 229.1,375.77 c -0.14,0.8 -0.63,1.23 -1.45,1.28 c 0.41,-0.5 0.9,-0.93 1.45,-1.28 Z"/></g>
<g><path fill="#f5fafa" fill-opacity="0.192" d="M 411.22,47.02 c 0.29,-0.06 0.59,-0.12 0.88,-0.17 c -0.15,0.76 -0.6,1.04 -1.37,0.86 c 0.16,-0.23 0.33,-0.46 0.49,-0.69 Z"/></g>
<g><path fill="#f9ac99" fill-opacity="0.157" stroke="#f9ac99" stroke-width="0.5" stroke-opacity="0.157" d="M 217.93,76.9 c 0.28,-0.07 0.56,-0.13 0.84,-0.2 c 0.15,0.8 -0.18,1.14 -0.97,1.01 c 0.04,-0.27 0.09,-0.54 0.13,-0.81 Z"/></g>
<g><path fill="#f3fafb" fill-opacity="0.565" d="M 428.12,18.08 c 0.39,-0.06 0.78,-0.11 1.17,-0.17 c -0.25,0.68 -0.75,1.05 -1.49,1.12 c 0.1,-0.32 0.21,-0.64 0.32,-0.95 Z"/></g>
<g><path fill="#faab99" fill-opacity="0.561" d="M 195.92,49.68 c 0.01,0.4 0.01,0.79 0.02,1.18 c -0.36,-0.03 -0.71,-0.07 -1.07,-0.1 c 0.16,-0.53 0.51,-0.89 1.05,-1.08 Z"/></g>
<g><path fill="#bc8273" fill-opacity="0.208" stroke="#bc8273" stroke-width="0.5" stroke-opacity="0.208" d="M 247.2,76.73 c 0.33,0.46 0.39,0.95 0.18,1.48 c -0.15,-0.48 -0.21,-0.97 -0.18,-1.48 Z"/></g>
<g><path fill="#babebe" fill-opacity="0.231" stroke="#babebe" stroke-width="0.5" stroke-opacity="0.231" d="M 336.76,148.96 c 0.03,0.29 0.07,0.58 0.14,0.86 c -0.24,0.06 -0.48,0.13 -0.72,0.19 c 0.19,-0.35 0.39,-0.7 0.58,-1.05 Z"/></g>
<g><path fill="#bdc5c5" fill-opacity="0.275" stroke="#bdc5c5" stroke-width="0.5" stroke-opacity="0.275" d="M 298.14,84.8 c -0.07,0.45 -0.14,0.91 -0.21,1.36 c -0.22,0.01 -0.44,0.02 -0.66,0.03 c -0.07,-0.71 0.22,-1.18 0.87,-1.39 Z"/></g>
<g><path fill="#eaa593" fill-opacity="0.333" stroke="#eaa593" stroke-width="0.5" stroke-opacity="0.333" d="M 237.05,282.97 c -0.11,0.33 -0.22,0.65 -0.32,0.98 c -0.17,0.01 -0.34,0.02 -0.5,0.03 c 0.04,-0.52 0.31,-0.86 0.82,-1.01 Z"/></g>
<g><path fill="#dd9a8b" fill-opacity="0.267" stroke="#dd9a8b" stroke-width="0.5" stroke-opacity="0.267" d="M 241.94,137.62 c -0.03,0.41 -0.06,0.82 -0.09,1.23 c -0.27,0.07 -0.54,0.13 -0.81,0.19 c 0.15,-0.57 0.45,-1.04 0.9,-1.42 Z"/></g>
<g><path fill="#f1fafa" fill-opacity="0.22" stroke="#f1fafa" stroke-width="0.5" stroke-opacity="0.22" d="M 408.06,15.3 c 0.34,-0.18 0.68,-0.36 1.02,-0.54 c -0.15,0.75 -0.61,1.14 -1.38,1.18 c 0.12,-0.21 0.24,-0.42 0.36,-0.64 Z"/></g>
<g><path fill="#efa794" fill-opacity="0.384" stroke="#efa794" stroke-width="0.5" stroke-opacity="0.384" d="M 44.1,262.13 c 0.35,0.05 0.7,0.1 1.05,0.16 c -0.28,0.41 -0.64,0.73 -1.09,0.96 c 0.02,-0.37 0.03,-0.75 0.04,-1.12 Z"/></g>
<g><path fill="#f1f7fa" fill-opacity="0.639" stroke="#f1f7fa" stroke-width="0.5" stroke-opacity="0.639" d="M 309.29,135.88 c 0.29,0.13 0.59,0.26 0.88,0.39 c -0.26,0.36 -0.52,0.73 -0.77,1.1 c -0.04,-0.5 -0.08,-0.99 -0.11,-1.49 Z"/></g>
<g><path fill="#dee4e7" fill-opacity="0.51" stroke="#dee4e7" stroke-width="0.5" stroke-opacity="0.51" d="M 330.04,92.84 c -0.13,0.38 -0.26,0.76 -0.39,1.14 c -0.32,-0.08 -0.65,-0.16 -0.97,-0.24 c 0.32,-0.49 0.77,-0.79 1.36,-0.9 Z"/></g>
<g><path fill="#f1f7f9" fill-opacity="0.361" stroke="#f1f7f9" stroke-width="0.5" stroke-opacity="0.361" d="M 497.17,119.92 c -0.16,0.35 -0.31,0.7 -0.47,1.05 c -0.28,-0.08 -0.56,-0.15 -0.84,-0.23 c 0.25,-0.53 0.69,-0.8 1.31,-0.82 Z"/></g>
<g><path fill="#6e534e" fill-opacity="0.792" d="M 216.97,68.2 c -0.28,0.4 -0.67,0.52 -1.15,0.34 c 0.35,-0.21 0.73,-0.32 1.15,-0.34 Z"/></g>
<g><path fill="#8d6762" fill-opacity="0.184" stroke="#8d6762" stroke-width="0.5" stroke-opacity="0.184" d="M 121.41,14.12 c -0.47,0.42 -0.95,0.81 -1.46,1.18 c 0.25,-0.69 0.73,-1.08 1.46,-1.18 Z"/></g>
<g><path fill="#f9ac9a" fill-opacity="0.996" stroke="#f9ac9a" stroke-width="0.5" stroke-opacity="0.996" d="M 142.35,12.07 c -1.62,2.12 -3.28,4.22 -4.97,6.28 c 0.25,0.22 0.54,0.26 0.87,0.12 c 1.56,-1.05 6.26,-2.78 6.84,-4.48 c 4.23,4.62 7.13,9.98 8.7,16.06 c -9.66,5.34 -19.29,10.75 -28.88,16.23 c -0.12,-9.36 1.04,-40.84 17.44,-34.21 Z M 100.31,31.9 c -0.2,0.35 -0.5,0.56 -0.91,0.63 c -2.91,0.16 -5.81,0.32 -8.71,0.51 c 0.12,-0.36 0.37,-0.6 0.74,-0.72 c 3.2,-1.17 5.91,-3.61 8.88,-0.42 Z M 99.32,37.87 c -1.49,2.44 -3.09,4.8 -4.82,7.08 c -0.22,0.64 -1.06,1.37 -0.15,1.86 c 3.65,-1.97 6.84,-3.02 9.6,-6.18 c 3.8,6.36 6.65,13.11 8.54,20.27 c -2.18,2.53 -4.42,5.01 -6.72,7.44 c -0.46,0.73 -0.93,1.45 -1.43,2.15 c 0.51,0.44 1.06,0.46 1.64,0.04 c 2.49,-1.29 4.86,-2.75 7.11,-4.37 c 0.55,0.3 0.81,0.78 0.78,1.44 c 3.42,28.7 -2.95,57.78 -1.46,86.71 c 0.65,6.53 -0.14,9.17 6.59,11.92 c -0.11,0.22 -0.21,0.45 -0.32,0.67 c -10.47,5.93 -20.9,11.92 -31.31,17.97 c -1.08,0.68 -2.09,1.45 -3.03,2.32 c 0.22,-4.07 0.36,-8.14 0.43,-12.21 c 0.43,0.02 0.87,0.04 1.3,0.06 c 2.21,-1.74 11.99,-7.27 12.86,-9.02 c 1.02,0.45 4.12,-1.04 2.54,-1.8 c -1.18,0.12 -2.03,0.72 -2.54,1.8 c -0.43,-0.05 -0.85,0 -1.26,0.15 c -3.83,2.19 -7.63,4.45 -11.4,6.78 c -0.38,0.1 -0.77,0.13 -1.17,0.09 c 0.07,-15.34 -0.99,-30.69 -1.28,-46.04 c 0.78,0.28 1.54,0.21 2.26,-0.2 c 2.35,-1.65 15.3,-10.03 15.69,-11.75 c 1.53,-0.01 2.61,-0.67 3.27,-1.99 c 1.01,0.2 1.65,-0.16 1.93,-1.07 c 0.56,-0.23 3.98,-1.16 2.54,-2.11 c -1.18,0.27 -2.03,0.97 -2.54,2.11 c -0.94,-0.17 -1.58,0.19 -1.93,1.07 c -1.55,-0.08 -2.64,0.59 -3.27,1.99 c -2.37,-0.07 -13.92,7.51 -16.6,9.19 c -0.38,-0.09 -0.76,-0.18 -1.14,-0.27 c -0.66,-3.35 -0.92,-6.73 -0.79,-10.15 c 7.2,-4.74 14.33,-9.6 21.38,-14.59 c 0.79,-0.63 1.53,-1.3 2.21,-2.02 c 0.63,-0.43 3.83,-1.06 2.69,-2.23 c -1.33,0.2 -2.23,0.95 -2.69,2.23 c -2.25,0.1 -20.4,11.08 -23.74,13.13 c -0.16,-4.13 -0.29,-8.26 -0.39,-12.39 c 2.56,0.15 12.63,-9.3 15.58,-10.96 c 1.2,-0.67 2.06,-1.64 2.57,-2.92 c 0.82,0.05 3.91,-0.97 2.7,-2.11 c -1.26,0.23 -2.16,0.94 -2.7,2.11 c -1.4,0.01 -2.63,0.49 -3.68,1.43 c -4.79,2.76 -9.57,5.53 -14.34,8.31 c -0.5,-0.28 -0.7,-0.72 -0.6,-1.33 c -0.13,-4.25 -0.22,-8.5 -0.28,-12.75 c 1.94,0.18 8.83,-8.64 10.65,-10.18 c -1.54,-0.81 -1.94,0.83 -3.08,1.39 c -2.63,1.22 -5.18,2.58 -7.65,4.06 c -0.36,-9.92 -0.54,-42.54 17.45,-37.13 Z M 185.28,37.05 c -2.17,2.4 -10,5.87 -12.99,8.16 c -0.37,-0.03 -0.74,-0.05 -1.12,-0.08 c 1.59,-7.49 7.47,-8.28 14.11,-8.08 Z M 156.18,41.66 c 0.8,3.82 1.11,7.68 0.94,11.58 c -1.95,-0.32 -18.93,13.86 -21.6,16.05 c -0.92,0.27 -1.79,0.64 -2.61,1.12 c -0.9,0.81 -0.76,1.19 0.39,1.13 c 6.07,-5.74 18.34,-8.72 24.36,-14.65 c 1.05,33.91 -4.2,67.5 -2.26,101.37 c 0.24,4.93 2.9,7.25 7.92,6.55 c 4.09,-2.18 4.56,-7.43 5.38,-11.52 c 2.07,-24.39 -0.99,-50.48 -1.21,-75.06 c -0.2,-4.43 -0.03,-8.84 0.54,-13.23 c 1.72,-1.38 3.06,0.53 4.78,-1.46 c 7.38,-4.22 14.73,-8.47 22.06,-12.78 c 0.36,0.03 0.71,0.07 1.07,0.1 c 1.42,1.21 2.11,7.46 2.17,9.37 c -0.6,0.14 -1.17,0.35 -1.71,0.64 c -6.05,4.33 -12.2,8.53 -18.43,12.59 c -0.59,0.3 -0.84,0.77 -0.75,1.41 c -2.02,0.07 -3.9,1.41 -5.15,2.84 c 0.61,1.25 4.64,-1.8 5.15,-2.84 c 6.58,-2.69 15.08,-8.27 21.43,-12 c 2.07,26.59 -1.23,54.65 -1.07,81.39 c 0.07,5.31 0.63,10.56 1.7,15.76 c -0.82,-0.2 -1.59,-0.1 -2.33,0.3 c -9.41,6.37 -18.88,12.64 -28.41,18.82 c -0.51,0.45 -0.98,0.96 -1.38,1.53 c -1.07,0.67 -3.34,0.38 -2.98,2.22 c -1.97,0.01 -3.97,1.44 -5.2,2.81 c 0.97,1.34 4.55,-1.73 5.2,-2.81 c 3.42,-0.13 30.52,-17.24 35.58,-20.23 c 3.71,2.96 6.42,2.25 10.08,-0.3 c 1.5,-0.71 0.88,-5.19 1.16,-6.63 c 1.9,0.33 26.35,-14.56 30.04,-16.69 c 0.27,-0.06 0.54,-0.12 0.81,-0.19 c 0.16,3.74 0.26,7.47 0.3,11.21 c -0.77,-0.21 -1.5,-0.13 -2.2,0.24 c -20.71,13.66 -41.29,27.46 -61.75,41.38 c -1.04,0.79 -3.11,0.46 -3.11,2.15 c -1.5,0.07 -2.52,0.79 -3.07,2.16 c -0.85,-0.17 -1.54,0.08 -2.08,0.73 c 0.68,0.9 1.83,0.04 2.08,-0.73 c 1.42,-0.18 2.44,-0.9 3.07,-2.16 c 0.65,-0.01 1.31,-0.09 1.95,-0.21 c 21.22,-13.03 43.39,-25.28 65.09,-37.85 c 0.12,7.47 0.11,14.94 -0.06,22.41 c -0.64,-0.03 -1.23,0.14 -1.77,0.49 c -12.87,8.56 -25.77,17.07 -38.69,25.55 c -0.55,0.41 -1.02,0.89 -1.42,1.45 c -0.97,0.7 -3.34,0.4 -2.97,2.12 c -1.42,0.18 -5.07,1.62 -5.14,3.26 c -1.4,-0.18 -2.43,0.32 -3.09,1.5 c 1.05,0.89 2.59,-0.57 3.09,-1.5 c 1.72,-0.49 4.54,-1.36 5.14,-3.26 c 0.62,0.04 1.22,-0.03 1.81,-0.22 c 14.24,-8.49 28.6,-16.77 43.09,-24.84 c -0.11,3.08 0.4,7.53 -0.46,10.42 c -3.23,2.15 -6.47,4.28 -9.72,6.4 c -0.38,0.39 -0.66,0.85 -0.84,1.37 c -0.92,-0.14 -1.61,0.15 -2.07,0.9 c -0.45,0.11 -0.9,0.23 -1.35,0.34 c -1.43,1.11 -3.97,2.09 -4.74,3.77 c -0.9,-0.09 -1.54,0.27 -1.91,1.07 c -1.48,0.04 -2.46,0.73 -2.96,2.07 c -0.79,-0.18 -1.42,0.04 -1.89,0.67 c 0.56,0.95 1.71,0.06 1.89,-0.67 c 1.38,-0.14 2.37,-0.83 2.96,-2.07 c 0.98,0.19 1.62,-0.17 1.91,-1.07 c 1.99,-0.31 3.65,-1.23 4.98,-2.78 c 0.42,-0.08 0.85,-0.15 1.27,-0.23 c 0.83,-0.47 1.47,-1.14 1.91,-2 c 0.69,0.13 1.34,0.04 1.96,-0.28 c 2.87,-1.69 5.76,-3.34 8.68,-4.93 c 0.35,3.5 0.37,7.01 0.06,10.52 c -4.64,2.87 -9.25,5.8 -13.83,8.78 c -0.88,0.42 -1.54,1.06 -1.98,1.93 c -1.5,-0.02 -2.48,0.67 -2.95,2.08 c -0.98,-0.21 -1.63,0.14 -1.95,1.07 c -1.04,0.1 -2.81,0.3 -3.05,1.58 c 1.07,1.07 2.41,-0.84 3.05,-1.58 c 0.88,0.04 1.52,-0.32 1.95,-1.07 c 1.41,-0.09 2.39,-0.79 2.95,-2.08 c 0.96,0.18 1.77,-0.09 2.43,-0.8 c 4.42,-2.48 8.84,-4.94 13.27,-7.39 c 0.21,3.46 0.21,6.92 -0.02,10.38 c -9.21,6.23 -18.46,12.38 -27.75,18.47 c -0.56,0.26 -0.83,0.69 -0.82,1.3 c -1.5,0.01 -2.57,0.69 -3.22,2.04 c -0.87,-0.08 -1.5,0.24 -1.91,0.99 c -0.88,0.54 -2.72,0.53 -2.96,1.72 c 1.08,1.36 2.72,-0.61 2.96,-1.72 c 1,0.27 1.64,-0.06 1.91,-0.99 c 1.54,0.07 2.61,-0.61 3.22,-2.04 c 0.91,-0.05 1.78,-0.25 2.62,-0.61 c 8.09,-4.78 16.22,-9.52 24.37,-14.22 c 0.34,-0.07 0.68,-0.15 1.02,-0.22 c 0.88,1.07 -0.18,29.63 -0.22,33.44 c -0.63,-0.47 -1.28,-0.49 -1.95,-0.08 c -15.13,10.47 -30.85,20.62 -45.41,31.72 c -2.13,0.76 -3.89,2.02 -5.28,3.77 c -1.1,0.73 -3.21,0.33 -3.18,2.18 c -1.42,-0.13 -2.39,0.44 -2.91,1.71 c 1.06,0.84 2.46,-0.83 2.91,-1.71 c 0.67,0 1.32,-0.11 1.95,-0.33 c 18.02,-10.61 36.08,-21.14 54.18,-31.58 c -0.17,4.51 -0.92,8.92 -2.22,13.24 c -0.71,-0.07 -1.36,0.09 -1.96,0.46 c -13.82,9.49 -27.59,19.03 -41.33,28.61 c -1.59,0.99 -7.06,4.11 -7.72,5.56 c -1.37,0.19 -2.36,0.89 -2.97,2.11 c -0.75,0.01 -1.46,0.16 -2.15,0.44 c -1.3,1.11 -1.12,1.53 0.54,1.26 c 0.72,-0.39 1.25,-0.96 1.61,-1.7 c 1.55,0.07 2.54,-0.63 2.97,-2.11 c 0.72,0.15 1.4,0.05 2.06,-0.28 c 0.62,-0.43 6.71,-3.91 6.69,-3.94 c 13.13,-7.62 26.3,-15.17 39.51,-22.64 c 0.16,-0.01 0.33,-0.02 0.5,-0.03 c -1.5,5.17 -3.09,10.31 -4.76,15.41 c -0.37,-0.37 -0.81,-0.52 -1.33,-0.45 c -7.59,5.1 -15.08,10.35 -22.46,15.76 c -0.83,0.91 -2.88,0.74 -3.05,2.15 c -0.49,0.47 -4.13,1.2 -2.78,2.28 c 1.29,-0.28 2.21,-1.04 2.78,-2.28 c 2.72,-0.37 21.64,-11.96 25.67,-14.07 c -1.66,5.17 -3.26,10.37 -4.79,15.58 c -1.75,0.17 -26,20.14 -26.92,21.54 c -1.25,0.13 -2.19,0.72 -2.82,1.77 c 0.7,1.27 2.54,-1 2.82,-1.77 c 4.16,-0.92 20.38,-11.43 25.29,-13.87 c -0.91,5.05 -1.38,10.14 -1.42,15.26 c -0.61,0 -1.15,0.19 -1.61,0.6 c -3.36,3.16 -6.7,6.33 -10.02,9.49 c 0.28,0.3 0.61,0.37 1,0.21 c 3.21,-1.86 6.44,-3.71 9.69,-5.53 c 0.25,-0.03 0.5,-0.07 0.75,-0.1 c 0.37,2.56 0.75,5.11 1.15,7.66 c 0.19,0.86 -0.02,1.57 -0.64,2.14 c -7.1,0.16 -14.2,0.17 -21.3,0.03 c -1.39,-2.92 -5.88,0.32 -6.37,-1.54 c 0.18,-0.43 0.08,-0.77 -0.29,-1.03 c -2.05,0.31 -2.69,2.23 -5.13,2.32 c -4.02,0.21 -8.04,0.31 -12.06,0.29 c -0.73,-0.83 -1.66,-1.26 -2.8,-1.29 c -1.34,-0.12 -2.46,0.27 -3.36,1.2 c -2.41,0.09 -4.82,0.11 -7.23,0.09 c 6.41,-4.94 12.7,-10 18.88,-15.2 c -1.09,-0.41 -1.91,-0.07 -2.45,1.01 c -8.27,4.38 -16.4,9.03 -24.37,13.95 c -5.43,-2.16 -14.06,1.1 -20.27,0.18 c -0.68,0.13 -1.14,-0.11 -1.38,-0.71 c 2.14,-1.29 4.11,-2.8 5.9,-4.53 c 1.5,-0.87 5.36,-2.62 5.84,-4.39 c 1.59,0.02 2.62,-0.73 3.08,-2.24 c 1.47,0.15 2.45,-0.49 2.95,-1.92 c 0.55,0.24 2.96,-0.23 1.65,-1.06 c -0.83,-0.05 -1.38,0.3 -1.65,1.06 c -1.22,0.29 -2.21,0.93 -2.95,1.92 c -1.48,0.13 -2.5,0.88 -3.08,2.24 c -1.43,-0.23 -14.92,7.72 -17.03,9.29 c -5.29,0.85 -8.15,-2.08 -13.68,0.17 c -3.1,0.1 -6.2,0.14 -9.31,0.12 c 12.42,-8.37 24.85,-16.75 37.29,-25.12 c 0.56,-0.34 0.78,-0.84 0.68,-1.48 c 1.01,0.11 5.81,-2.1 4.69,-3.13 c -1.35,-0.08 -3.97,1.9 -4.69,3.13 c -4.54,1.38 -8.25,4.85 -12.53,6.68 c -4.47,2.97 -31.69,17.64 -33.25,19.85 c -1.85,0.12 -3.7,0.22 -5.55,0.28 c -1.51,-0.07 -2.08,-0.86 -1.7,-2.37 c 0.21,-2.27 0.61,-4.5 1.21,-6.69 c 0.62,0.06 1.19,-0.09 1.7,-0.45 c 15.42,-10.68 30.84,-21.34 46.27,-31.98 c 0.46,-0.39 0.75,-0.88 0.87,-1.47 c 1.42,0.16 2.44,-0.4 3.06,-1.7 c 1.45,-0.15 2.45,-0.89 3,-2.21 c 0.49,0.16 2.73,-0.34 1.61,-1.11 c -0.72,0.1 -1.26,0.47 -1.61,1.11 c -1.53,0 -2.53,0.73 -3,2.21 c -1.39,-0.49 -3.69,0.5 -3.64,2.12 c -0.71,-0.18 -1.38,-0.1 -2.02,0.24 c -15.33,8.89 -30.66,17.75 -46.01,26.59 c 0.3,-11.22 -1.37,-19.08 -5.44,-29.3 c 0.69,0.05 1.33,-0.12 1.9,-0.52 c 10.59,-7.13 21.21,-14.21 31.86,-21.22 c 0.88,-0.58 1.65,-1.24 2.31,-2 c 1.42,-0.21 2.43,-0.96 3.02,-2.26 c 0.49,0.27 2.76,-0.21 1.64,-0.99 c -0.68,0.12 -1.22,0.45 -1.64,0.99 c -1.44,0.17 -2.45,0.92 -3.02,2.26 c -1.97,-0.21 -33.16,18.58 -37.67,21.22 c -2.16,-2.39 -4.35,-4.78 -6.55,-7.17 c 0.85,-0.12 1.64,-0.38 2.39,-0.79 c 4.44,-3.33 9.07,-6.38 13.89,-9.14 c 0.45,-0.28 0.74,-0.67 0.87,-1.18 c 0.49,-0.03 0.98,-0.06 1.47,-0.09 c 0.69,-0.55 1.3,-1.18 1.82,-1.9 c 1.41,-0.09 2.39,-0.79 2.95,-2.09 c 0.9,0.13 1.55,-0.2 1.92,-1 c 1,-0.6 2.57,-0.38 3.01,-1.62 c -1.01,-1.19 -2.66,0.61 -3.01,1.62 c -0.91,-0.15 -1.55,0.18 -1.92,1 c -1.52,-0.02 -2.5,0.68 -2.95,2.09 c -0.92,-0.26 -1.65,-0.02 -2.2,0.69 c -0.37,0.18 -0.74,0.36 -1.12,0.54 c -5.39,3.32 -10.89,6.42 -16.51,9.31 c -0.62,0.32 -1.04,0.81 -1.25,1.47 c -1.38,-1.26 -6.73,-5.73 -7.14,-7.16 c 0.65,-0.08 1.25,-0.3 1.8,-0.66 c 3.04,-1.92 5.96,-3.98 8.77,-6.18 c 3.26,-1.8 6.5,-3.66 9.7,-5.57 c 0.56,-0.28 0.8,-0.73 0.74,-1.34 c 1.59,-0.29 4.42,-1.51 5.04,-3.12 c 0.71,-0.01 2.21,-0.03 1.96,-1.15 c 1.01,-0.68 1.01,-0.68 0,0 c -0.96,-0.13 -1.62,0.25 -1.96,1.15 c -1.68,0.14 -4.48,1.39 -5.04,3.12 c -1.51,-0.15 -3.62,1.6 -4.73,2.52 c -0.71,0.31 -1.42,0.59 -2.15,0.84 c -2.9,1.66 -5.74,3.43 -8.53,5.29 c -1.47,0.61 -6.42,2.42 -6.34,4.26 c -2.28,-0.77 -6.35,-5.33 -8.51,-6.9 c 6.13,-2.59 28.02,-18.25 35.44,-22.75 c 2.46,-2.14 10.56,-7.01 14.04,-8.97 c 0.53,-0.25 0.78,-0.67 0.73,-1.25 c 1.42,-0.17 2.48,-0.88 3.18,-2.14 c 0.53,0.11 2.8,-0.42 1.53,-1.21 c -0.88,-0.03 -1.39,0.37 -1.53,1.21 c -1.5,0.07 -2.56,0.78 -3.18,2.14 c -1.17,-0.4 -11.86,6.72 -13.83,7.25 c -13.06,7.52 -26.06,15.13 -39,22.84 c -1.55,-1.56 -6.41,-5.07 -5.85,-7.49 c 1.35,0 2.29,-0.61 2.84,-1.84 c 0.97,0.21 1.64,-0.11 2,-0.97 c 0.53,-0.24 4.1,-1.23 2.62,-2.08 c -1.54,-0.12 -2.41,0.57 -2.62,2.08 c -1.02,-0.31 -1.69,0.01 -2,0.97 c -1.42,-0.09 -2.37,0.52 -2.84,1.84 c -0.46,0.14 -0.92,0.11 -1.36,-0.08 c -2.17,-2.41 -4.21,-4.93 -6.11,-7.55 c 0.84,0.06 1.64,-0.09 2.4,-0.45 c 19.85,-13.19 39.69,-26.41 59.51,-39.64 c 2.51,-1.55 5.02,-3.07 7.55,-4.57 c 0.56,-0.31 0.82,-0.77 0.77,-1.41 c 0.77,0.01 2.23,-0.08 2,-1.23 c 0.71,-0.25 4.06,-0.77 2.7,-1.98 c -1.39,-0.02 -2.29,0.64 -2.7,1.98 c -0.98,-0.1 -1.64,0.31 -2,1.23 c -0.45,-0.04 -0.88,0.02 -1.3,0.19 c -23.55,13.51 -47.04,27.16 -70.47,40.96 c -0.35,-0.06 -0.7,-0.11 -1.05,-0.16 c -1.65,-0.97 -3.79,-6.07 -4.53,-7.97 c 0.86,-0.12 1.67,-0.4 2.44,-0.83 c 23.77,-15.9 47.57,-31.76 71.39,-47.58 c 1.31,-0.94 3.9,-2.07 4.46,-3.6 c 1.49,-0.19 4.6,-1.75 5.14,-3.2 c 0.47,-0.31 4.26,-0.99 2.63,-2.03 c -1.38,0.03 -2.25,0.7 -2.63,2.03 c -1.65,-0.24 -4.37,1.77 -5.14,3.2 c -1.97,-0.69 -4.06,2.16 -5.93,2.58 c -24.28,14.13 -48.61,28.2 -72.98,42.21 c -0.27,0.12 -0.54,0.24 -0.81,0.36 c -1.57,-0.83 -3.04,-9.07 -4.1,-11.06 c 2.2,-0.23 5.93,-4.89 7.35,-6.64 c -1.08,-0.83 -3.87,1.66 -5.08,2.05 c -1.26,0.53 -2.26,1.37 -2.99,2.5 c -1.3,-3.97 -2.51,-7.98 -3.62,-12.01 c 3.42,-3.36 6.66,-6.87 9.72,-10.54 c -0.7,-0.21 -1.37,-0.1 -2.01,0.34 c -3.13,1.76 -6.25,3.54 -9.36,5.33 c -2.21,-6.7 -4.22,-13.46 -6.03,-20.28 c 1.91,-0.08 6.1,-5.86 7.48,-7.37 c -1.22,-0.74 -2.85,0.98 -3.99,1.39 c -1.75,0.71 -3.19,1.81 -4.33,3.28 c -0.37,-2.66 -3.09,-11.3 -1.84,-13.43 c 1.98,-1.63 1.74,-2.01 -0.71,-1.14 c -0.46,-0.2 -0.71,-0.56 -0.74,-1.07 c -1.15,-7.88 -4.62,-27.27 6.92,-29.15 c 0.61,-0.2 1.15,-0.08 1.6,0.35 c -0.16,0.27 -0.31,0.53 -0.47,0.79 c -0.98,0.66 -1.58,1.55 -1.79,2.68 c 0.69,0.56 1.41,-0.72 1.89,-1.07 c 0.67,-0.21 3.23,-0.99 2.59,-2.01 c 5.79,-0.45 15.88,10.8 18.46,15.76 c -1.72,0.59 -3.5,2.95 -4.62,4.34 c 0.45,0.36 0.94,0.37 1.47,0.05 c 1.58,-0.75 3.07,-1.65 4.48,-2.69 c 1.56,3.2 3.99,6.93 4.71,10.4 c -0.63,0.15 -1.18,0.46 -1.64,0.9 c -2.63,2.94 -5.38,5.76 -8.24,8.44 c 0.57,0.32 1.17,0.32 1.78,-0.01 c 2.71,-2.29 7.74,-3.84 9.59,-6.67 c 2.62,6.73 5.03,13.53 7.23,20.41 c -2.06,0.87 -5.76,5.78 -7.64,7.48 c -0.72,0.99 -1.42,1.99 -2.1,3.01 c 0.62,0.39 1.26,0.36 1.9,-0.08 c 3.34,-1.93 6.66,-3.88 9.98,-5.85 c 0.97,3.47 3.67,7.02 4.18,10.45 c -0.57,0.24 -1.1,0.56 -1.58,0.95 c -2.13,2.18 -4.33,4.3 -6.58,6.35 c -0.47,0.36 -0.72,0.84 -0.74,1.43 c -1.03,0.78 -1.03,0.78 0,0 c 3.79,-1.45 7.66,-3.66 10.79,-6.21 c 11.32,7.18 13.59,-21.22 13.98,-26.91 c 0.71,0.17 1.38,0.06 2.01,-0.33 c 11.7,-7.94 23.42,-15.86 35.15,-23.77 c 0.82,-0.63 1.09,-1.43 0.82,-2.4 c 3.89,-6 4.21,-14.01 4.64,-20.94 c 0.69,-28.39 -2.02,-56.8 -2.09,-85.21 c 5.34,-1.5 25.03,-14.27 31.61,-17.48 Z M 228.33,71.26 c -1.44,0.92 -8.4,5.57 -9.56,5.44 c 0,-0.26 -0.01,-0.52 -0.02,-0.78 c 1.62,-2.33 3.7,-4.13 6.24,-5.41 c 1.03,-0.49 3.11,-0.84 3.34,0.75 Z M 233.74,77.77 c 1.82,0.54 3.21,7.64 3.01,9.42 c -0.91,0.44 -1.84,0.85 -2.79,1.24 c -2.64,1.76 -5.31,3.49 -8.01,5.18 c -0.51,0.31 -0.79,0.75 -0.83,1.34 c -1.24,-0.23 -4.96,1.77 -5.04,3.01 c -0.75,0.09 -1.47,0.27 -2.17,0.55 c -1.4,0.96 -1.27,1.4 0.39,1.33 c 0.85,-0.38 1.44,-1.01 1.78,-1.88 c 1.62,0.07 4.52,-1.45 5.04,-3.01 c 2.04,0.1 9.73,-5.07 11.81,-6.37 c 1.44,1.42 1.98,8.35 2.28,10.52 c -2.71,0.03 -24.22,15.49 -28.15,18.13 c -0.02,-9.11 -0.1,-18.21 -0.23,-27.32 c 0.84,0.47 1.67,0.43 2.49,-0.13 c 6.85,-3.93 13.65,-7.93 20.42,-12.01 Z M 189.97,90.03 c -1.02,-0.27 -1.67,0.07 -1.95,1.02 c -0.37,-0.03 -0.67,0.09 -0.9,0.36 c 0.4,0.18 0.7,0.06 0.9,-0.36 c 0.95,0.15 1.6,-0.19 1.95,-1.02 c 0.67,-0.3 4.04,-0.87 2.66,-2.07 c -1.33,0.12 -2.22,0.81 -2.66,2.07 Z M 186.03,105 c -1.04,0.19 -2.75,0.39 -3.01,1.65 c 1.04,1.03 2.58,-0.71 3.01,-1.65 c 1.45,0.25 9.18,-4.04 7.61,-5.15 c -1.26,-0.07 -7.11,3.93 -7.61,5.15 Z M 239.82,103.73 c 0.87,9.11 1.48,18.24 1.84,27.39 c -5.91,2.79 -23.88,15.74 -30.75,19.92 c 0.06,-10.41 0.11,-20.82 0.15,-31.22 c 3.8,-1 23.67,-13.37 28.76,-16.09 Z M 187.03,134.05 c -0.78,-0.17 -1.41,0.05 -1.89,0.65 c 0.56,0.89 1.76,0.11 1.89,-0.65 c 0.68,-0.38 3.89,-0.88 2.53,-2.08 c -1.29,0.14 -2.13,0.84 -2.53,2.08 Z M 90.08,146.11 c -1.36,-0.1 -2.38,0.42 -3.07,1.56 c 0.86,1.25 2.54,-0.8 3.07,-1.56 c 0.51,0.09 2.58,-0.46 1.45,-1.2 c -0.75,0.09 -1.24,0.49 -1.45,1.2 Z M 95.98,155.02 c -0.93,-0.18 -1.59,0.16 -1.99,1.01 c -1.35,-0.01 -2.35,0.56 -3.01,1.69 c 0.73,1.27 2.74,-0.74 3.01,-1.69 c 0.95,0.15 1.61,-0.19 1.99,-1.01 c 0.54,-0.21 4.16,-1.19 2.62,-2.09 c -1.21,0.24 -2.09,0.93 -2.62,2.09 Z M 135.06,158.02 c -0.96,-0.18 -1.63,0.17 -2.01,1.04 c -1.38,-0.09 -2.41,0.46 -3.08,1.64 c 0.88,1.29 2.67,-0.73 3.08,-1.64 c 0.88,0.05 1.55,-0.3 2.01,-1.04 c 0.55,-0.23 3.95,-1.17 2.54,-2.06 c -1.24,0.17 -2.09,0.85 -2.54,2.06 Z M 36.9,159.13 c 0.37,-0.08 1.74,-0.52 0.74,-1.05 c -0.47,0.19 -0.72,0.54 -0.74,1.05 Z M 237.75,169.37 c 0.54,-0.13 2.96,-0.62 1.77,-1.49 c -0.99,0.04 -1.58,0.53 -1.77,1.49 Z M 203.04,359.99 c 3.71,-0.16 7.34,0.24 10.91,1.22 c -4.63,2.8 -12.25,8.2 -17.34,9.12 c -4.65,3.08 -10.3,6.83 -15.39,9.34 c -0.65,0.17 -1.29,0.16 -1.92,-0.02 c 7.25,-5.7 14.51,-11.39 21.79,-17.07 c 0.94,-0.65 1.6,-1.51 1.95,-2.59 Z M 98,360.87 c 3.05,0.05 6.09,0.17 9.13,0.36 c -6.48,4.12 -13.07,8.05 -19.79,11.78 c -0.47,0.14 -0.82,-0.01 -1.02,-0.44 c 0.62,-1.64 1.31,-3.26 2.04,-4.86 c 0.6,0.03 1.19,-0.04 1.76,-0.23 c 1.44,-1.45 8.21,-4.48 7.88,-6.61 Z M 125.72,361.21 c 2.36,-0.4 4.7,-0.3 7,0.29 c -4.64,1.02 -8.3,6.68 -11.11,10.13 c -3.54,1.99 -7.08,3.99 -10.61,5.99 c -0.84,0.14 -1.4,-0.2 -1.66,-1.02 c 3.22,-3.66 6.65,-7.15 10.3,-10.45 c 1.01,-1.49 4.63,-2.77 4.76,-4.47 c 0.61,0.31 1.05,0.16 1.32,-0.47 Z"/></g>
<g><path fill="#fbaa98" fill-opacity="0.176" stroke="#fbaa98" stroke-width="0.5" stroke-opacity="0.176" d="M 149.97,343.87 c -0.46,1.51 -1.49,2.26 -3.08,2.24 c 0.58,-1.36 1.6,-2.11 3.08,-2.24 Z"/></g>
<g><path fill="#faac99" fill-opacity="0.247" d="M 147.92,309.03 c -0.55,1.32 -1.55,2.06 -3,2.21 c 0.47,-1.48 1.47,-2.21 3,-2.21 Z"/></g>
<g><path fill="#f8ae99" fill-opacity="0.353" d="M 147.92,309.03 c 0.35,-0.64 0.89,-1.01 1.61,-1.11 c 1.12,0.77 -1.12,1.27 -1.61,1.11 Z"/></g>
<g><path fill="#faac9b" fill-opacity="0.435" d="M 207.97,241.93 c -0.24,1.11 -1.88,3.08 -2.96,1.72 c 0.24,-1.19 2.08,-1.18 2.96,-1.72 Z"/></g>
<g><path fill="#fcab9c" fill-opacity="0.204" stroke="#fcab9c" stroke-width="0.5" stroke-opacity="0.204" d="M 213.1,238.9 c -0.61,1.43 -1.68,2.11 -3.22,2.04 c 0.65,-1.35 1.72,-2.03 3.22,-2.04 Z"/></g>
<g><path fill="#f9ac9a" fill-opacity="0.408" d="M 59.27,224.91 c -1.03,0.78 -1.03,0.78 0,0 Z M 116.02,250.1 c 0.14,-0.84 0.65,-1.24 1.53,-1.21 c 1.27,0.79 -1,1.32 -1.53,1.21 Z M 185.07,294.88 c -0.45,0.88 -1.85,2.55 -2.91,1.71 c 0.52,-1.27 1.49,-1.84 2.91,-1.71 Z"/></g>
<g><path fill="#faab99" fill-opacity="0.278" d="M 118.92,219.91 c 0.23,1.15 -1.23,1.24 -2,1.23 c 0.36,-0.92 1.02,-1.33 2,-1.23 Z"/></g>
<g><path fill="#f7ac9a" fill-opacity="0.255" d="M 225.99,216.94 c -0.56,1.29 -1.54,1.99 -2.95,2.08 c 0.47,-1.41 1.45,-2.1 2.95,-2.08 Z"/></g>
<g><path fill="#f7ad9a" fill-opacity="0.306" d="M 123,198.95 c -0.54,1.45 -3.65,3.01 -5.14,3.2 c 0.77,-1.43 3.49,-3.44 5.14,-3.2 Z M 187.97,310.84 c -0.43,1.48 -1.42,2.18 -2.97,2.11 c 0.61,-1.22 1.6,-1.92 2.97,-2.11 Z"/></g>
<g><path fill="#f9ac9a" fill-opacity="0.424" d="M 172.02,195.99 c -0.25,0.77 -1.4,1.63 -2.08,0.73 c 0.54,-0.65 1.23,-0.9 2.08,-0.73 Z M 221.03,207 c -0.59,1.24 -1.58,1.93 -2.96,2.07 c 0.5,-1.34 1.48,-2.03 2.96,-2.07 Z M 118.92,219.91 c 0.41,-1.34 1.31,-2 2.7,-1.98 c 1.36,1.21 -1.99,1.73 -2.7,1.98 Z M 99.89,274.93 c 0.25,1.12 -1.25,1.14 -1.96,1.15 c 0.34,-0.9 1,-1.28 1.96,-1.15 Z"/></g>
<g><path fill="#fca898" fill-opacity="0.204" stroke="#fca898" stroke-width="0.5" stroke-opacity="0.204" d="M 133.05,159.06 c -0.41,0.91 -2.2,2.93 -3.08,1.64 c 0.67,-1.18 1.7,-1.73 3.08,-1.64 Z"/></g>
<g><path fill="#f9ac9a" fill-opacity="0.314" d="M 36.9,159.13 c 0.02,-0.51 0.27,-0.86 0.74,-1.05 c 1,0.53 -0.37,0.97 -0.74,1.05 Z M 223.04,219.02 c -0.43,0.75 -1.07,1.11 -1.95,1.07 c 0.32,-0.93 0.97,-1.28 1.95,-1.07 Z"/></g>
<g><path fill="#f7ac99" fill-opacity="0.243" d="M 93.99,156.03 c -0.27,0.95 -2.28,2.96 -3.01,1.69 c 0.66,-1.13 1.66,-1.7 3.01,-1.69 Z M 103.05,286.01 c -0.56,1.3 -1.54,2 -2.95,2.09 c 0.45,-1.41 1.43,-2.11 2.95,-2.09 Z"/></g>
<g><path fill="#faab9a" fill-opacity="0.302" d="M 106.97,111.99 c -0.28,0.91 -0.92,1.27 -1.93,1.07 c 0.35,-0.88 0.99,-1.24 1.93,-1.07 Z M 104.97,285.01 c -0.37,0.8 -1.02,1.13 -1.92,1 c 0.37,-0.82 1.01,-1.15 1.92,-1 Z"/></g>
<g><path fill="#fbab9c" fill-opacity="0.263" d="M 186.03,105 c 0.5,-1.22 6.35,-5.22 7.61,-5.15 c 1.57,1.11 -6.16,5.4 -7.61,5.15 Z"/></g>
<g><path fill="#f9ac9a" fill-opacity="0.494" d="M 220.08,97.96 c -0.34,0.87 -0.93,1.5 -1.78,1.88 c -1.66,0.07 -1.79,-0.37 -0.39,-1.33 c 0.7,-0.28 1.42,-0.46 2.17,-0.55 Z M 106.97,111.99 c 0.51,-1.14 1.36,-1.84 2.54,-2.11 c 1.44,0.95 -1.98,1.88 -2.54,2.11 Z M 187.03,134.05 c -0.13,0.76 -1.33,1.54 -1.89,0.65 c 0.48,-0.6 1.11,-0.82 1.89,-0.65 Z M 95.98,155.02 c 0.53,-1.16 1.41,-1.85 2.62,-2.09 c 1.54,0.9 -2.08,1.88 -2.62,2.09 Z M 192.08,211.05 c -0.5,0.93 -2.04,2.39 -3.09,1.5 c 0.66,-1.18 1.69,-1.68 3.09,-1.5 Z M 126.9,284.89 c 0.42,-0.54 0.96,-0.87 1.64,-0.99 c 1.12,0.78 -1.15,1.26 -1.64,0.99 Z M 185,312.95 c -0.36,0.74 -0.89,1.31 -1.61,1.7 c -1.66,0.27 -1.84,-0.15 -0.54,-1.26 c 0.69,-0.28 1.4,-0.43 2.15,-0.44 Z"/></g>
<g><path fill="#f9ac9a" fill-opacity="0.443" d="M 188.02,91.05 c -0.2,0.42 -0.5,0.54 -0.9,0.36 c 0.23,-0.27 0.53,-0.39 0.9,-0.36 Z M 135.06,158.02 c 0.45,-1.21 1.3,-1.89 2.54,-2.06 c 1.41,0.89 -1.99,1.83 -2.54,2.06 Z M 98.93,166.02 c 0.51,-1.08 1.36,-1.68 2.54,-1.8 c 1.58,0.76 -1.52,2.25 -2.54,1.8 Z M 237.75,169.37 c 0.19,-0.96 0.78,-1.45 1.77,-1.49 c 1.19,0.87 -1.23,1.36 -1.77,1.49 Z M 123,198.95 c 0.38,-1.33 1.25,-2 2.63,-2.03 c 1.63,1.04 -2.16,1.72 -2.63,2.03 Z M 221.09,220.09 c -0.64,0.74 -1.98,2.65 -3.05,1.58 c 0.24,-1.28 2.01,-1.48 3.05,-1.58 Z M 104.97,285.01 c 0.35,-1.01 2,-2.81 3.01,-1.62 c -0.44,1.24 -2.01,1.02 -3.01,1.62 Z"/></g>
<g><path fill="#f9ac9a" fill-opacity="0.471" d="M 189.97,90.03 c -0.35,0.83 -1,1.17 -1.95,1.02 c 0.28,-0.95 0.93,-1.29 1.95,-1.02 Z M 186.03,105 c -0.43,0.94 -1.97,2.68 -3.01,1.65 c 0.26,-1.26 1.97,-1.46 3.01,-1.65 Z M 205.13,316.82 c -0.57,1.24 -1.49,2 -2.78,2.28 c -1.35,-1.08 2.29,-1.81 2.78,-2.28 Z M 152.92,341.95 c 0.27,-0.76 0.82,-1.11 1.65,-1.06 c 1.31,0.83 -1.1,1.3 -1.65,1.06 Z"/></g>
<g><path fill="#fbab99" fill-opacity="0.239" d="M 100.85,84.07 c 0.54,-1.17 1.44,-1.88 2.7,-2.11 c 1.21,1.14 -1.88,2.16 -2.7,2.11 Z"/></g>
<g><path fill="#f9ac9a" fill-opacity="0.392" d="M 177.22,74.87 c -0.51,1.04 -4.54,4.09 -5.15,2.84 c 1.25,-1.43 3.13,-2.77 5.15,-2.84 Z M 106.83,97.21 c 0.46,-1.28 1.36,-2.03 2.69,-2.23 c 1.14,1.17 -2.06,1.8 -2.69,2.23 Z M 187.03,134.05 c 0.4,-1.24 1.24,-1.94 2.53,-2.08 c 1.36,1.2 -1.85,1.7 -2.53,2.08 Z M 90.08,146.11 c 0.21,-0.71 0.7,-1.11 1.45,-1.2 c 1.13,0.74 -0.94,1.29 -1.45,1.2 Z M 164.18,182.89 c -0.65,1.08 -4.23,4.15 -5.2,2.81 c 1.23,-1.37 3.23,-2.8 5.2,-2.81 Z M 59,272.03 c -0.36,0.86 -1.03,1.18 -2,0.97 c 0.31,-0.96 0.98,-1.28 2,-0.97 Z M 126.9,284.89 c -0.59,1.3 -1.6,2.05 -3.02,2.26 c 0.57,-1.34 1.58,-2.09 3.02,-2.26 Z M 144.84,329.09 c 0.72,-1.23 3.34,-3.21 4.69,-3.13 c 1.12,1.03 -3.68,3.24 -4.69,3.13 Z M 199.09,339.87 c -0.28,0.77 -2.12,3.04 -2.82,1.77 c 0.63,-1.05 1.57,-1.64 2.82,-1.77 Z"/></g>
<g><path fill="#7f6e77" fill-opacity="0.914" d="M 195.61,354.22 c 0.49,1.86 4.98,-1.38 6.37,1.54 c -2.18,-0.15 -4.34,-0.09 -6.5,0.18 c -2.35,0.37 -1.13,-1.56 0.13,-1.72 Z"/></g>
<g><path fill="#5e5d6e" d="M 178.13,355.8 c -2.06,0 -4.11,-0.03 -6.16,-0.09 c 0.9,-0.93 2.02,-1.32 3.36,-1.2 c 1.14,0.03 2.07,0.46 2.8,1.29 Z"/></g>
<g><path fill="#262626" fill-opacity="0.996" stroke="#262626" stroke-width="0.5" stroke-opacity="0.996" d="M 411.04,388.63 c -0.55,0.35 -0.98,0.81 -1.31,1.37 c -2.45,4.64 -9.61,13.39 -11.62,17.01 c -1.18,0.21 -5.05,3.93 -4.97,5.35 c -15.64,13.39 -28.62,20.68 -48.07,27.75 c -2.41,-0.24 -11.02,3.22 -14.36,3.25 c -0.42,0.19 -0.71,0.49 -0.88,0.92 c -2.68,-0.54 -15.05,2.42 -18.87,2.47 c -1.45,0.13 -2.89,0.26 -4.34,0.37 c -18.36,1.8 -37.32,1.25 -55.67,-0.46 c -1.43,-0.42 -2.93,-0.63 -4.48,-0.65 c -0.83,-0.01 -1.24,0.4 -1.21,1.21 c -4.44,16 11.02,52.26 -12.75,57.89 c -2.79,0.43 -7.96,0.05 -10.39,1.19 c -2.1,-0.59 -4.25,-0.66 -6.42,-0.22 c -6.01,0.01 -15.05,-0.47 -20.67,0.61 c -1.17,-0.08 -2.34,-0.01 -3.5,0.23 c -3.27,-1.21 -12.74,-0.88 -16.16,-0.09 c -1.25,-0.18 -2.5,-0.18 -3.75,-0.01 c -4.47,-1.02 -9.82,-0.95 -14.29,0.07 c -1.17,-0.15 -2.34,-0.2 -3.51,-0.15 c -4.07,-1 -8.44,-0.98 -12.53,0.15 c -0.86,-0.06 -1.72,-0.06 -2.58,0 c -5.89,-1.26 -13.51,-1.51 -19.34,0.05 c -0.93,-0.07 -1.85,-0.08 -2.78,-0.02 c -4.82,-1.89 -13.06,-0.59 -18.39,-0.9 c -0.65,0.02 -1.14,0.32 -1.45,0.88 c -0.26,-0.04 -0.51,-0.08 -0.77,-0.12 c -1.09,-0.11 -2.17,-0.11 -3.26,0 c -10.7,-2.21 -20.89,3.02 -22.4,-14.32 c -0.89,-13.48 1.99,-26.59 1.53,-39.96 c -0.48,-26.32 -7.83,-59.6 1.78,-84.48 c 0.16,-0.61 0.21,-1.23 0.13,-1.85 c 1.22,-0.67 3.6,-4.93 3.15,-6.4 c 0.52,-0.59 1.14,-1.09 1.86,-1.5 c 3.28,-17.13 1.9,-41.02 -11.22,-54.32 c -23.11,-21.43 -40.24,-35.4 -48.17,-67.91 c -4.26,-20.3 -9.12,-40.43 -14.19,-60.58 c -3.45,-14.11 -5.73,-23.72 10.56,-29.69 c 1.06,0.27 1.71,-0.09 1.96,-1.07 c 0.56,0.2 1.14,0.29 1.73,0.27 c 2.3,-0.58 4.6,-1.1 6.91,-1.55 c 3.38,0.16 6.77,0.38 10.15,0.66 c 19.63,3.93 26.45,25.36 33.11,41.74 c 0.72,1.32 1.21,1.23 1.45,-0.29 c 0.39,-1.99 0.68,-4 0.86,-6.03 c 1.03,-25.84 -2.61,-52.15 -3.68,-78 c -0.5,-16 -0.57,-42.31 8.04,-56.22 c 1.15,-1.98 2.54,-3.78 4.16,-5.41 c 0.23,-0.38 0.3,-0.78 0.21,-1.22 c 0.54,-0.01 1.03,-0.17 1.48,-0.47 c 0.39,-0.28 0.72,-0.6 1.01,-0.97 c 1.09,-0.87 2.25,-1.61 3.48,-2.25 c 0.67,0.04 1.2,-0.21 1.59,-0.74 c 0.26,-0.03 0.52,-0.07 0.78,-0.11 c 0.6,-0.04 1.01,-0.33 1.22,-0.89 c 0.16,-0.06 0.32,-0.12 0.48,-0.18 c 2.9,-0.19 5.8,-0.35 8.71,-0.51 c 0.41,-0.07 0.71,-0.28 0.91,-0.63 c 0.97,0.93 9.95,2.19 12.14,2.83 c 0.39,-0.29 0.61,-0.69 0.64,-1.19 c 0.07,-6.92 2.36,-13 6.86,-18.24 c 0.51,-0.37 0.99,-0.76 1.46,-1.18 c 3.26,-2.72 7.22,-5.22 11.41,-6.08 c 0.92,0.02 1.69,-0.29 2.31,-0.92 c 2.7,-0.04 5.39,-0.16 8.08,-0.35 c 18.21,0.15 25.67,12.02 25.82,28.7 c 0.35,0.43 0.78,0.51 1.29,0.25 c 1.54,-0.7 3.87,-2.52 5.56,-2.42 c 0.65,-0.19 1.08,-0.6 1.29,-1.25 c 0.18,0.01 0.35,0.01 0.53,0.01 c 2.25,-0.12 4.47,-0.47 6.66,-1.05 c 22.27,0.74 28.47,19.28 27.76,38.4 c 0.73,1.23 2.78,-0.65 3.7,-0.87 c 0.48,0.18 0.87,0.06 1.15,-0.34 c 0.38,-0.13 0.76,-0.25 1.14,-0.38 c 0.9,0.13 1.49,-0.2 1.78,-1.01 c 2.76,-0.41 5.55,-0.68 8.38,-0.8 c 6.3,-0.13 11.47,2.23 15.49,7.08 c 0.5,0.49 1.08,0.65 1.76,0.47 c -0.29,0.82 -0.01,1.2 0.82,1.12 c -0.43,0.76 -0.45,2.44 0.86,2.05 c -0.03,0.51 0.03,1 0.18,1.48 c 1.09,2.15 2.12,4.34 3.1,6.55 c -0.5,1.02 -0.27,1.77 0.7,2.23 c -0.17,0.84 0.06,1.53 0.68,2.08 c 10.72,49.32 -1.15,104.93 0.24,155.43 c 0.41,4.01 0.92,8.01 1.53,11.99 c -0.92,22.63 -11.48,43.29 -16.38,65.17 c -2.02,5.93 -3.57,30.61 -0.06,34.59 c 16.69,8.52 4.52,35.42 7.89,50.16 c 0.88,0.82 1.95,1.19 3.2,1.11 c 3.55,0.43 7.12,0.57 10.69,0.44 c 3.11,0.5 6.23,0.74 9.37,0.74 c 3.5,0.19 7.01,0.35 10.51,0.5 c 0.38,-0.18 0.75,-0.35 1.12,-0.53 c 2.56,0.65 7.5,0.46 10.25,0.18 c 3.74,0.1 8.16,0.58 11.62,-1.14 c 2.24,1.06 6.07,0.2 8.5,0.01 c 44.59,-5.02 64.31,-27.05 68.51,-71.22 c 0.45,-6.54 1.37,-51.3 -1.79,-52.94 c -15.02,-4.59 -3.98,-27.99 -8.72,-31.32 c -28.7,0.76 -25.39,-28.62 -24.79,-48.9 c -0.02,-0.42 -0.13,-0.83 -0.32,-1.2 c -40.7,-25.74 -59.42,-66.19 -45.96,-113.91 c 0.45,-0.62 0.66,-1.31 0.66,-2.07 c 0.07,-0.45 0.14,-0.91 0.21,-1.36 c 1.8,-5.59 3.82,-11.09 6.08,-16.51 c 0.66,-0.56 0.89,-1.27 0.69,-2.13 c 0.93,-0.4 1.42,-1.12 1.46,-2.16 c 0.4,-0.23 0.67,-0.56 0.82,-1 c 5.76,-11.04 13.06,-20.94 21.9,-29.71 c 0.52,-0.42 0.71,-0.96 0.6,-1.62 c 0.65,0.09 1.2,-0.11 1.64,-0.59 c 0.36,-0.32 0.7,-0.65 1.03,-1 c 34.72,-31.18 75.79,-34.66 117.66,-15.63 c 72.93,34.4 79.15,144.43 9.85,185.89 c -0.45,0.28 -0.79,0.66 -1,1.14 c 0.09,6.33 0.11,12.67 0.06,19.02 c -0.6,16.33 -6.05,32.19 -25.32,31.63 c -0.18,0.16 -0.36,0.32 -0.54,0.48 c -0.13,5.29 -0.16,10.59 -0.08,15.89 c -0.11,5.91 -2.41,10.62 -7.91,13.13 c -0.36,0.4 -0.56,0.87 -0.59,1.42 c 1.27,10.77 2,21.59 2.17,32.45 c -0.19,27.69 -4.26,48.08 -15.62,73.13 Z M 124.91,46.28 c -0.46,4.28 -0.58,8.56 -0.34,12.86 c 0.07,28.41 2.78,56.82 2.09,85.21 c -0.43,6.93 -0.75,14.94 -4.64,20.94 c -0.61,0.2 -1.22,0.39 -1.84,0.54 c -0.4,0.13 -0.79,0.26 -1.18,0.4 c -6.73,-2.75 -5.94,-5.39 -6.59,-11.92 c -1.49,-28.93 4.88,-58.01 1.46,-86.71 c 0.03,-0.66 -0.23,-1.14 -0.78,-1.44 c 0.15,-1.79 -0.05,-3.54 -0.6,-5.26 c -1.89,-7.16 -4.74,-13.91 -8.54,-20.27 c -1.24,-1.45 -2.78,-2.37 -4.63,-2.76 c -17.99,-5.41 -17.81,27.21 -17.45,37.13 c 0.08,1.58 0.11,3.15 0.08,4.73 c 0.06,4.25 0.15,8.5 0.28,12.75 c -0.1,0.61 0.1,1.05 0.6,1.33 c -0.46,1.36 -0.5,2.74 -0.13,4.14 c 0.1,4.13 0.23,8.26 0.39,12.39 c 0,1.16 0.05,2.32 0.15,3.48 c -0.13,3.42 0.13,6.8 0.79,10.15 c -0.08,0.38 -0.16,0.76 -0.24,1.14 c -0.04,0.63 -0.03,1.26 0.03,1.89 c 0.29,15.35 1.35,30.7 1.28,46.04 c -0.08,0.33 -0.16,0.66 -0.24,0.99 c -0.03,0.32 -0.06,0.64 -0.09,0.95 c -0.07,4.07 -0.21,8.14 -0.43,12.21 c -0.2,1.52 -0.3,3.06 -0.3,4.6 c -0.39,5.69 -2.66,34.09 -13.98,26.91 c -0.27,-1.14 -0.9,-1.98 -1.89,-2.52 c -0.51,-3.43 -3.21,-6.98 -4.18,-10.45 c -0.59,-1.58 -1.3,-3.1 -2.14,-4.56 c -2.2,-6.88 -4.61,-13.68 -7.23,-20.41 c -0.36,-0.97 -0.86,-1.86 -1.49,-2.66 c -0.72,-3.47 -3.15,-7.2 -4.71,-10.4 c -0.42,-0.59 -0.86,-1.16 -1.33,-1.7 c -2.58,-4.96 -12.67,-16.21 -18.46,-15.76 c -0.67,-0.56 -1.41,-0.68 -2.22,-0.39 c -0.45,-0.43 -0.99,-0.55 -1.6,-0.35 c -11.54,1.88 -8.07,21.27 -6.92,29.15 c 0.03,0.51 0.28,0.87 0.74,1.07 c 2.45,-0.87 2.69,-0.49 0.71,1.14 c -1.25,2.13 1.47,10.77 1.84,13.43 c 0.38,0.86 0.66,1.77 0.84,2.7 c 1.81,6.82 3.82,13.58 6.03,20.28 c 0.44,1.67 0.99,3.29 1.65,4.87 c 1.11,4.03 2.32,8.04 3.62,12.01 c 0.33,0.67 0.57,1.36 0.72,2.09 c 1.06,1.99 2.53,10.23 4.1,11.06 c -0.12,0.26 -0.24,0.52 -0.36,0.77 c 0.23,2.15 0.82,4.18 1.79,6.09 c 0.74,1.9 2.88,7 4.53,7.97 c -0.01,0.37 -0.02,0.75 -0.04,1.12 c 1.04,1.21 1.92,2.53 2.63,3.96 c 1.9,2.62 3.94,5.14 6.11,7.55 c 0.44,0.19 0.9,0.22 1.36,0.08 c -0.56,2.42 4.3,5.93 5.85,7.49 c 0.86,0.97 1.74,1.93 2.62,2.88 c 2.16,1.57 6.23,6.13 8.51,6.9 c 0.07,0.43 0.32,0.71 0.74,0.84 c 0.41,1.43 5.76,5.9 7.14,7.16 c 0.21,0.36 0.43,0.72 0.64,1.09 c 2.2,2.39 4.39,4.78 6.55,7.17 c -0.07,1.24 0.46,2.08 1.6,2.52 c 4.07,10.22 5.74,18.08 5.44,29.3 c -0.2,2.21 -0.28,4.43 -0.23,6.65 c -0.6,2.19 -1,4.42 -1.21,6.69 c -0.38,1.51 0.19,2.3 1.7,2.37 c 1.85,-0.06 3.7,-0.16 5.55,-0.28 c 2.6,0.26 5.2,0.28 7.81,0.07 c 3.11,0.02 6.21,-0.02 9.31,-0.12 c 5.53,-2.25 8.39,0.68 13.68,-0.17 c 1.8,0.44 3.56,0.31 5.29,-0.37 c 0.24,0.6 0.7,0.84 1.38,0.71 c 6.21,0.92 14.84,-2.34 20.27,-0.18 c 2.64,0.17 5.29,0.25 7.94,0.24 c 2.41,0.02 4.82,0 7.23,-0.09 c 2.05,0.06 4.1,0.09 6.16,0.09 c 4.02,0.02 8.04,-0.08 12.06,-0.29 c 2.44,-0.09 3.08,-2.01 5.13,-2.32 c 0.37,0.26 0.47,0.6 0.29,1.03 c -1.26,0.16 -2.48,2.09 -0.13,1.72 c 2.16,-0.27 4.32,-0.33 6.5,-0.18 c 7.1,0.14 14.2,0.13 21.3,-0.03 c 0.62,-0.57 0.83,-1.28 0.64,-2.14 c -0.4,-2.55 -0.78,-5.1 -1.15,-7.66 c 0.14,-0.36 0.28,-0.72 0.42,-1.09 c -0.19,-1.18 -0.26,-2.38 -0.23,-3.58 c 0.04,-5.12 0.51,-10.21 1.42,-15.26 c 0.57,-2.55 1.12,-5.1 1.63,-7.67 c 1.53,-5.21 3.13,-10.41 4.79,-15.58 c 0.24,-1.18 0.63,-2.31 1.17,-3.39 c 1.67,-5.1 3.26,-10.24 4.76,-15.41 c 0.1,-0.33 0.21,-0.65 0.32,-0.98 c 0.79,-2.21 1.44,-4.46 1.93,-6.76 c 1.3,-4.32 2.05,-8.73 2.22,-13.24 c -0.21,-1.89 -0.31,-3.78 -0.31,-5.68 c 0.04,-3.81 1.1,-32.37 0.22,-33.44 c 0.09,-0.3 0.18,-0.59 0.27,-0.89 c 0.25,-1.26 0.34,-2.54 0.29,-3.83 c 0.23,-3.46 0.23,-6.92 0.02,-10.38 c 0.1,-0.84 0.14,-1.68 0.11,-2.52 c 0.31,-3.51 0.29,-7.02 -0.06,-10.52 c 0.07,-0.86 0.04,-1.71 -0.08,-2.56 c 0.86,-2.89 0.35,-7.34 0.46,-10.42 c 0.16,-1.52 0.14,-3.04 -0.05,-4.55 c 0.17,-7.47 0.18,-14.94 0.06,-22.41 c 0,-1.9 0.01,-3.81 0.02,-5.71 c -0.04,-3.74 -0.14,-7.47 -0.3,-11.21 c 0.03,-0.41 0.06,-0.82 0.09,-1.23 c 0.04,-2.17 -0.06,-4.34 -0.28,-6.5 c -0.36,-9.15 -0.97,-18.28 -1.84,-27.39 c -0.17,-1.55 -0.37,-3.09 -0.61,-4.63 c -0.3,-2.17 -0.84,-9.1 -2.28,-10.52 c 0.16,-0.49 0.1,-0.95 -0.18,-1.39 c 0.2,-1.78 -1.19,-8.88 -3.01,-9.42 c 0.76,-1.91 -1.49,-4.21 -2.52,-5.62 c -0.77,-1.02 -1.74,-1.32 -2.89,-0.89 c -0.23,-1.59 -2.31,-1.24 -3.34,-0.75 c -2.54,1.28 -4.62,3.08 -6.24,5.41 c -0.41,0.21 -0.68,0.53 -0.82,0.98 c -0.41,0.27 -0.77,0.6 -1.08,0.99 c -1.4,3.21 -6.09,8.53 -6.02,12.02 c 0.13,9.11 0.21,18.21 0.23,27.32 c 0.03,0.86 0.03,1.72 0,2.59 c -0.04,10.4 -0.09,20.81 -0.15,31.22 c 0.08,1.56 0.11,3.12 0.09,4.69 c -0.28,1.44 0.34,5.92 -1.16,6.63 c -3.66,2.55 -6.37,3.26 -10.08,0.3 c 0.22,-0.93 0.06,-1.82 -0.48,-2.64 c -1.07,-5.2 -1.63,-10.45 -1.7,-15.76 c -0.16,-26.74 3.14,-54.8 1.07,-81.39 c -0.12,-0.89 -0.3,-1.77 -0.54,-2.64 c -0.06,-1.91 -0.75,-8.16 -2.17,-9.37 c -0.01,-0.39 -0.01,-0.78 -0.02,-1.18 c -0.26,-0.95 -0.54,-1.89 -0.85,-2.83 c -1.45,-2.82 -3.63,-7.79 -7.31,-8.12 c 0.29,-0.99 -1.88,-1.23 -2.48,-1.68 c -6.64,-0.2 -12.52,0.59 -14.11,8.08 c -0.14,0.31 -0.28,0.61 -0.42,0.92 c -0.63,1.21 -1.15,2.47 -1.56,3.79 c -0.75,5.11 -1.82,9.94 -1.16,15.16 c -0.57,4.39 -0.74,8.8 -0.54,13.23 c 0.22,24.58 3.28,50.67 1.21,75.06 c -0.82,4.09 -1.29,9.34 -5.38,11.52 c -5.02,0.7 -7.68,-1.62 -7.92,-6.55 c -1.94,-33.87 3.31,-67.46 2.26,-101.37 c -0.03,-1.24 -0.21,-2.46 -0.54,-3.65 c 0.17,-3.9 -0.14,-7.76 -0.94,-11.58 c -0.41,-3.95 -1.21,-7.82 -2.39,-11.61 c -1.57,-6.08 -4.47,-11.44 -8.7,-16.06 c -0.75,-0.87 -1.66,-1.51 -2.74,-1.92 c -16.4,-6.63 -17.56,24.85 -17.44,34.21 Z M 385.74,16.95 c -7.07,1.17 -13.88,3.21 -20.44,6.11 c -0.68,-0.02 -1.04,0.3 -1.08,0.95 c -3.76,0.39 -11.29,4.82 -14.83,6.83 c -15.99,9.51 -28.24,22.52 -36.74,39.05 c -0.77,1.17 -1.36,2.42 -1.76,3.76 c -2.11,5 -3.82,10.13 -5.13,15.4 c -0.16,1.25 -0.41,2.49 -0.75,3.72 c -0.67,4.14 -1,8.3 -1.02,12.5 c -0.02,1.53 0.02,3.05 0.13,4.58 c 0.07,3.81 0.37,7.61 0.89,11.4 c 0.55,2.27 1.12,4.52 1.71,6.74 c 0.33,1.85 0.93,6.82 2.57,7.89 c 0.03,0.5 0.07,0.99 0.11,1.49 c -0.02,0.4 0.17,0.53 0.59,0.4 c -0.35,2.3 2.07,8.83 3.85,10.23 c 0.01,0.37 0.02,0.73 0.02,1.09 c 1.33,3.09 2.72,6.14 4.18,9.16 c 0.53,0.65 1.05,1.3 1.55,1.97 c 1.25,3.03 3.25,6.28 5.3,8.76 c 0.43,1.06 0.98,2.06 1.64,2.99 c 1.73,2.24 3.55,4.41 5.46,6.5 c 0.71,0.35 1.24,0.18 1.6,-0.51 c 0.82,0 1.39,0.38 1.71,1.13 c -1.72,-0.04 -2.03,0.62 -0.92,1.97 c 1.81,1.89 3.73,3.66 5.75,5.32 c 1.12,1.05 2.3,2.04 3.52,2.98 c 2.86,2.38 5.97,4.38 9.31,6.01 c 0.91,0.47 1.87,0.77 2.89,0.89 c 2.29,-0.1 2.06,2.36 4.18,3 c 2.85,1.53 5.83,2.8 8.93,3.82 c 2.59,0.96 6.28,2.14 9.02,2.44 c 8.55,1.79 23.76,3.57 31.92,0.94 c 1.11,0.68 6.26,0.8 7.06,-0.26 c 1.11,-0.08 2.21,-0.26 3.29,-0.56 c 13.23,-3.21 25.5,-8.59 36.82,-16.14 c 15.87,-10.51 33.29,-32.72 36.72,-51.48 c 0.17,-0.37 0.33,-0.73 0.49,-1.1 c 0.53,-1.19 0.79,-2.44 0.81,-3.75 c 0.89,-3.29 2.05,-8.9 1.61,-12.2 c 0.16,-0.35 0.31,-0.7 0.47,-1.05 c -0.11,-1.95 -0.1,-3.89 0.02,-5.83 c 0.09,-3.72 -0.31,-7.38 -1.2,-10.98 c 0.08,-0.38 0.16,-0.76 0.24,-1.14 c -0.12,-0.64 -0.21,-1.29 -0.27,-1.93 c 0.08,-0.87 -0.22,-1.53 -0.92,-1.99 c 0.34,-1.34 -0.9,-9.71 -2.02,-9.85 c -0.11,-2.62 -1.1,-8.91 -3.2,-10.55 c 0.36,-1.06 0.18,-2.05 -0.52,-2.95 c -0.96,-3.05 -2.04,-6.04 -3.24,-8.99 c -0.53,-0.56 -0.94,-1.19 -1.23,-1.9 c -1.52,-3.08 -3.15,-6.1 -4.89,-9.06 c -0.47,-0.71 -1.07,-1.28 -1.8,-1.72 c -0.7,-2.47 -3.09,-5.68 -5.17,-7.23 c -0.14,-0.44 -0.34,-0.84 -0.6,-1.21 c -0.38,-0.28 -0.79,-0.5 -1.23,-0.68 c -1.18,-2.68 -4.34,-5.8 -6.97,-7.08 c -0.44,-1.75 -3.78,-3.29 -4.85,-4.9 c -2.74,-1.78 -5.48,-3.55 -8.22,-5.33 c -1.97,-1.11 -4.03,-2.04 -6.16,-2.79 c -0.41,-1.13 -8.39,-3.78 -9.92,-4.23 c -1.87,-0.68 -3.78,-1.24 -5.73,-1.67 c -0.39,0.06 -0.78,0.11 -1.17,0.17 c -0.94,-1.59 -9.97,-2.23 -11.93,-2.49 c -2.37,-0.31 -4.74,-0.58 -7.11,-0.83 c -0.34,0.18 -0.68,0.36 -1.02,0.54 c -7.71,-0.52 -14.76,0.19 -22.32,1.65 Z M 400.27,38.77 c 0.52,0.05 1.03,0.06 1.55,0.04 c 6.55,0.04 13.03,0.73 19.44,2.06 c 1.4,0.77 2.88,1.11 4.44,1.03 c 0.21,0.35 0.5,0.62 0.87,0.8 c 3.84,1.5 7.65,3.05 11.42,4.67 c 2.15,2.6 3.53,2.67 6.6,1.8 c 1.47,0.01 4.39,-1.01 4.45,1.32 c -0.48,1.08 -0.8,2.2 -0.96,3.35 c 1.25,1.18 2.53,2.33 3.83,3.46 c 3.05,2.73 5.92,5.64 8.61,8.72 c 1.84,2.75 3.68,5.5 5.51,8.26 c -0.01,0.32 -0.02,0.65 -0.02,0.97 c 0.31,0.21 0.62,0.43 0.94,0.64 c 1.5,3.4 2.86,6.84 4.08,10.34 c 0.17,0.62 0.49,1.16 0.95,1.62 c 0.54,3.46 1.3,6.88 2.27,10.26 c 0.6,3.77 0.92,7.58 0.96,11.41 c -0.05,0.64 0.18,1.13 0.67,1.46 c -0.63,1.14 -0.32,1.9 0.91,2.27 c -2.5,2.72 -2.35,12.83 -3.82,16.82 c -0.48,1.29 -0.89,2.62 -1.21,3.96 c -4.58,11.94 -13.01,23.35 -25.35,27.91 c -1.62,0.23 -4.06,-0.67 -2.56,-2.61 c 3.57,-3.79 6.76,-7.87 9.57,-12.25 c 0.74,-0.93 0.67,-1.81 -0.22,-2.62 c 0.87,-0.67 1.67,-1.43 2.41,-2.25 c 7.45,-13.62 8.97,-31.54 5.11,-46.47 c -2.65,-1.51 -1.08,-0.98 -0.97,-3.15 c -3.31,-11.59 -9.52,-21.32 -18.65,-29.17 c -0.45,-0.23 -0.85,-0.17 -1.2,0.2 c -7.39,10.05 -14.71,20.15 -21.97,30.3 c -0.19,0.39 -0.21,0.79 -0.07,1.2 c 24.61,28.33 -27.6,54.76 -39.35,21.87 c -3.23,-14.32 8.48,-26.19 22.16,-27.59 c 3.2,0.13 6.39,0.24 9.56,0.34 c 7.7,-10.32 15.31,-20.7 22.85,-31.15 c 1.05,-1.71 -0.82,-2.44 -2.16,-2.8 c -0.54,-1.04 -1.41,-1.59 -2.6,-1.66 c -4.34,-3.16 -9.14,-5.29 -14.39,-6.4 c -0.43,-0.62 -1.04,-0.91 -1.83,-0.88 c -0.29,0.05 -0.59,0.11 -0.88,0.17 c -2.92,-1.77 -11.97,-1.87 -15.5,-1.62 c -29.97,3.47 -49.73,27.45 -55.64,55.81 c -0.05,0.83 -0.12,1.66 -0.22,2.48 c -2.18,14.93 1.15,29.81 9.51,42.35 c 2.98,3.97 6.07,7.84 9.29,11.59 c -0.11,1.23 -0.77,2.04 -1.97,2.45 c -4.58,2.26 -8.9,3.21 -12.26,-1.4 c -0.41,-0.25 -0.83,-0.45 -1.27,-0.62 c -0.16,-1.43 -5.1,-6.85 -6.26,-8.24 c -0.07,-0.28 -0.11,-0.57 -0.14,-0.86 c -0.31,-0.31 -0.61,-0.61 -0.92,-0.92 c -1.44,-2.71 -2.82,-5.46 -4.15,-8.23 c -0.39,-0.5 -0.9,-0.72 -1.54,-0.68 c 1.2,-2.47 -1.97,-7.68 -2.3,-10.49 c -0.22,-0.42 -0.54,-0.71 -0.98,-0.86 c 0.9,-2.4 -0.69,-9.82 -0.88,-12.76 c 0.09,-0.4 0.18,-0.8 0.27,-1.19 c 0.29,-1.57 0.14,-3.08 -0.47,-4.53 c 0.41,-0.2 0.7,-0.51 0.87,-0.93 c 0.75,-4.85 1.75,-9.64 2.99,-14.39 c 0.13,-0.38 0.26,-0.76 0.39,-1.14 c 0.47,-0.82 0.81,-1.69 1.03,-2.61 c 12.65,-28.69 37.8,-48.07 69.2,-51.46 Z M 405.16,100.21 c -0.93,-0.89 -2.04,-1.29 -3.32,-1.21 c -12.42,-2.96 -16.03,17.76 -3.02,23.59 c 17.59,3.84 13.6,-21.57 6.34,-22.38 Z M 423.83,215.92 c -2.66,-0.09 -5.26,0.29 -7.79,1.15 c -13.64,1.4 -27.19,0.8 -40.64,-1.82 c -1.73,0.3 -3.38,0.73 -4.96,1.31 c 0.52,-0.53 1.82,-1.72 0.92,-2.46 c -4.91,-1.64 -9.81,-3.28 -14.69,-4.9 c -1.11,0.65 -0.3,5.09 -0.57,6.33 c 0.05,1.01 0.56,1.66 1.53,1.95 c -5.2,8.75 -0.51,19.78 8.23,23.58 c 1.86,0.97 3.83,1.58 5.91,1.83 c 0.67,0.19 1.33,0.4 1.99,0.63 c 15.94,1.43 31.54,-2.19 47.52,-1.21 c 25.67,3.79 27.43,-11.87 24.54,-33.62 c -0.22,-0.36 -0.51,-0.45 -0.89,-0.26 c -6.89,2.9 -13.93,5.39 -21.1,7.49 Z M 401.97,279.15 c 3.67,0 7.34,0.05 11.01,0.13 c 1.47,-0.24 4.89,0.02 5.99,-0.87 c 3.02,-7.22 1.09,-17.26 1.27,-25 c -0.2,-0.94 -0.79,-1.37 -1.77,-1.29 c -11.65,-0.01 -23.3,0 -34.94,0.01 c -0.57,-0.08 -1.04,0.1 -1.42,0.51 c -1.59,21.31 -4.2,26.74 19.86,26.51 Z M 328.79,411.05 c -6.21,0.6 -12.44,1.01 -18.67,1.2 c -5.39,-0.22 -10.78,-0.22 -16.18,0.01 c -1.59,-0.13 -3.16,0 -4.7,0.39 c -3.55,-0.96 -12.34,-0.31 -16.44,-0.35 c -1.8,-0.19 -3.59,-0.15 -5.37,0.1 c -5.53,-0.35 -11.08,-0.44 -16.64,-0.26 c -1.49,0.09 -4.59,-0.79 -5.6,0.52 c -0.12,0.98 -0.14,1.96 -0.05,2.94 c -0.13,8.49 0.01,16.98 0.41,25.45 c 0.32,0.3 0.7,0.46 1.14,0.49 c 3.92,0.06 10.74,1.85 14.28,-0.18 c -0.13,0.67 0.07,1.19 0.61,1.55 c 2.62,-0.38 14.65,1.67 16.03,-0.03 c 0.46,0.65 1.09,0.95 1.89,0.9 c 3.84,0.17 7.66,0.06 11.47,-0.34 c 0.92,0.91 10.97,-0.83 12.95,-0.23 c 5.71,-0.96 16.36,-1.01 21.1,-4.22 c 0.18,2.38 4.71,0.43 5.82,-0.39 c 9.84,-0.21 34.77,-11.23 43.03,-18.26 c 8.78,-5.68 25.59,-25.47 27.32,-35.21 c 1.39,-0.99 1.98,-2.32 1.78,-4 c 3.1,-4.95 6.65,-17.07 6.9,-22.63 c 0.94,-0.83 2.44,-6.59 0.03,-5.47 c 6.05,-7.42 3.85,-57.01 1.98,-68.42 c -0.33,-0.46 -0.78,-0.67 -1.36,-0.63 c -6.64,-0.05 -13.28,-0.02 -19.91,0.11 c -0.43,0.37 -0.57,0.83 -0.45,1.38 c 4.41,51.46 -1.1,112.56 -61.37,125.58 Z M 161.93,360.9 c -1.37,-0.11 -2.72,0.01 -4.05,0.36 c -0.38,0.04 -0.76,0.09 -1.14,0.13 c -0.72,-0.15 -1.45,-0.23 -2.19,-0.24 c -1.85,0.11 -3.65,0.3 -5.39,0.58 c -22.24,3.37 -23.92,26.44 -23.81,44.55 c 0.04,1.21 0.09,2.41 0.13,3.61 c 0.23,7.71 0.29,15.42 0.18,23.13 c -0.06,1.96 -0.16,3.91 -0.3,5.86 c -0.02,0.28 -0.04,0.55 -0.06,0.82 c -0.39,6.74 -0.36,13.47 0.09,20.2 c 0.48,5.78 1.38,11.48 2.69,17.12 c 0.67,2.45 1.55,4.82 2.64,7.11 c 1.28,2.66 2.9,5.1 4.86,7.31 c 0.96,1.05 1.98,2.02 3.07,2.92 c 3.04,2.59 6.51,4.23 10.43,4.93 c 2.83,1.23 5.8,1.73 8.91,1.49 c 16.41,0.03 32.82,0.05 49.23,0.05 c 2.82,0.19 5.63,0.14 8.44,-0.14 c 5.29,0.16 10.59,0.21 15.88,0.16 c 0.49,0.08 0.89,-0.06 1.21,-0.43 c -0.78,-15.08 -1.21,-30.16 -1.31,-45.26 c -0.08,0 -0.17,-0.01 -0.25,-0.02 c 0.24,-1.08 -0.18,-1.57 -1.27,-1.48 c 0.75,-0.29 1.29,-0.8 1.61,-1.52 c 0.21,-7.42 0.59,-14.83 1.15,-22.23 c 0.27,-3.64 0.44,-7.28 0.52,-10.93 c 0.68,-7.77 1.26,-15.54 1.73,-23.32 c 0.06,-1.91 0.15,-3.82 0.27,-5.72 c -0.07,-3.15 -0.19,-6.29 -0.35,-9.42 c -0.03,-0.78 -0.37,-1.37 -1.03,-1.76 c 0.35,-1.67 0.18,-3.28 -0.51,-4.85 c -1.18,-3.34 -3.23,-5.97 -6.17,-7.9 c -0.46,-0.86 -1.2,-1.26 -2.2,-1.21 c -1.6,-1.96 -8.37,-3.58 -10.99,-3.59 c -3.57,-0.98 -7.2,-1.38 -10.91,-1.22 c -4.38,-0.01 -12.22,-1.04 -16.08,0.72 c 0.2,-1.43 -3.79,-0.7 -4.64,-0.84 c -1.15,0.05 -2.31,0.08 -3.46,0.08 c -5.45,0.26 -10.89,0.41 -16.34,0.45 c -0.29,0.06 -0.49,0.22 -0.59,0.5 Z M 83.18,385.23 c -0.23,1.48 -0.27,2.97 -0.11,4.46 c -0.18,8.83 -0.08,17.65 0.29,26.46 c -0.31,0.89 -0.38,1.8 -0.21,2.73 c -0.14,7.46 -0.12,14.91 0.05,22.37 c -0.15,0.93 -0.28,1.86 -0.39,2.8 c 0.39,15.79 0.5,31.58 0.33,47.37 c -0.27,12.29 17.61,9.86 24.79,8.83 c 1.73,1.17 4.94,0.82 6.86,0.22 c 0.87,0.29 1.77,0.45 2.69,0.47 c 2.73,-0.31 10.41,0.59 12.41,-0.51 c -0.8,-0.49 -1.62,-0.95 -2.48,-1.37 c -1.87,-1.03 -3.87,-5.31 -6.03,-5.07 c 0.33,-0.32 0.31,-0.55 -0.07,-0.67 c -0.09,-0.85 -0.26,-1.68 -0.51,-2.5 c -13.8,-34.07 -13.07,-85.23 0.81,-119.19 c 2.81,-3.45 6.47,-9.11 11.11,-10.13 c -2.3,-0.59 -4.64,-0.69 -7,-0.29 c -0.53,-0.07 -1.06,-0.04 -1.59,0.09 c -5.66,-0.38 -11.33,-0.4 -17,-0.07 c -3.04,-0.19 -6.08,-0.31 -9.13,-0.36 c -2.28,0.09 -4.56,0.17 -6.84,0.25 c -2.22,-0.01 -4.44,-0.05 -6.66,-0.1 c -0.58,-0.07 -1.04,0.13 -1.38,0.59 c -0.19,7.87 -0.17,15.75 0.06,23.62 Z"/></g>
<g><path fill="#d7dee4" d="M 401.84,99 c 1.28,-0.08 2.39,0.32 3.32,1.21 c -0.7,0.69 -3.28,2.62 -4.09,1.51 c 0.37,-0.87 0.63,-1.78 0.77,-2.72 Z"/></g>
<g><path fill="#4d5c7a" fill-opacity="0.333" d="M 191.53,506.92 c 1.16,-0.24 2.33,-0.31 3.5,-0.23 c 0.33,1.92 -2.71,1.73 -3.5,0.23 Z"/></g>
<g><path fill="#4d5c7a" fill-opacity="0.361" stroke="#4d5c7a" stroke-width="0.5" stroke-opacity="0.361" d="M 166.69,489.24 c 0.52,-1.26 1.46,-1.96 2.81,-2.1 c 1.47,0.78 -1.97,2.37 -2.81,2.1 Z M 153.82,506.74 c 1.17,-0.05 2.34,0 3.51,0.15 c -0.54,1.52 -3.11,1.9 -3.51,-0.15 Z M 171.62,506.82 c 1.25,-0.17 2.5,-0.17 3.75,0.01 c -0.43,1.57 -3.03,1.66 -3.75,-0.01 Z"/></g>
<g><path fill="#c7cdd2" d="M 418.87,204.15 c 0.17,0.76 0.63,1.26 1.38,1.49 c -1.08,0.3 -2.18,0.48 -3.29,0.56 c 0.23,-1.05 0.87,-1.73 1.91,-2.05 Z"/></g>
<g><path fill="#e29d8d" fill-opacity="0.882" d="M 222.74,64.88 c 1.32,0.42 2.67,0.55 4.05,0.41 c 0.7,-0.16 1.19,0.08 1.48,0.72 c -2.83,0.12 -5.62,0.39 -8.38,0.8 c 0.15,-0.24 0.31,-0.48 0.46,-0.72 c 0.72,-0.56 1.52,-0.97 2.39,-1.21 Z M 218.01,67.23 c 0.39,-0.04 0.78,-0.08 1.16,-0.12 c 0.24,-0.1 0.48,-0.2 0.72,-0.3 c -0.29,0.81 -0.88,1.14 -1.78,1.01 c -0.03,-0.2 -0.06,-0.39 -0.1,-0.59 Z"/></g>
<g><path fill="#faac9a" fill-opacity="0.459" d="M 226.79,65.29 c -1.38,0.14 -2.73,0.01 -4.05,-0.41 c 0.24,-1.26 4.86,-1.56 4.05,0.41 Z"/></g>
<g><path fill="#424e63" fill-opacity="0.992" stroke="#424e63" stroke-width="0.5" stroke-opacity="0.992" d="M 429.15,195.75 c -0.22,0.68 -0.63,1.22 -1.23,1.61 c -3.12,2.13 -6.13,4.39 -9.05,6.79 c -1.04,0.32 -1.68,1 -1.91,2.05 c -0.8,1.06 -5.95,0.94 -7.06,0.26 c 5.79,-3.2 11.47,-6.59 17.04,-10.15 c 0.71,-0.3 1.45,-0.49 2.21,-0.56 Z M 381.87,196.78 c 0.02,1.04 0.17,2.06 0.44,3.06 c -0.51,2.35 -2.91,3.01 -4.63,4.29 c -0.23,0.51 -0.13,0.98 0.3,1.39 c -2.74,-0.3 -6.43,-1.48 -9.02,-2.44 c 3.99,-0.51 9.13,-4.58 12.91,-6.3 Z M 373.76,243.52 c 1.42,-0.42 2.86,-0.75 4.32,-0.99 c 1.54,-1.82 4.95,-3.72 4.96,-6.32 c 0.79,0.18 1.45,-0.03 1.99,-0.65 c 1.85,-2.17 11.47,-10.54 11.83,-12.53 c 0.71,-0.47 3.34,-0.76 2.55,-1.95 c -1.35,0 -2.2,0.65 -2.55,1.95 c -1.84,0.06 -30.5,16.43 -31,18.03 c -8.74,-3.8 -13.43,-14.83 -8.23,-23.58 c -0.97,-0.29 -1.48,-0.94 -1.53,-1.95 c 0.27,-1.24 -0.54,-5.68 0.57,-6.33 c 4.88,1.62 9.78,3.26 14.69,4.9 c 0.9,0.74 -0.4,1.93 -0.92,2.46 c 1.58,-0.58 3.23,-1.01 4.96,-1.31 c 13.45,2.62 27,3.22 40.64,1.82 c -1.47,1.69 -6.07,5.11 -6.25,7.26 c -1.14,-0.36 -1.94,0.02 -2.39,1.14 c 0.59,0.92 2.1,-0.41 2.39,-1.14 c 1.95,-0.92 13.81,-6.95 14.04,-8.41 c 7.17,-2.1 14.21,-4.59 21.1,-7.49 c 0.38,-0.19 0.67,-0.1 0.89,0.26 c 2.89,21.75 1.13,37.41 -24.54,33.62 c -15.98,-0.98 -31.58,2.64 -47.52,1.21 Z M 424.03,237.98 c 0.44,1.93 2.73,-0.94 2.85,-1.71 c -0.82,-1.01 -2.72,0.65 -2.85,1.71 Z M 412.98,279.28 c -3.67,-0.08 -7.34,-0.13 -11.01,-0.13 c 1.38,-2.04 9.6,-5.94 12.05,-7.67 c 0.76,-0.48 2.17,-0.58 1.5,0.79 c -1.2,2.22 -2.05,4.55 -2.54,7.01 Z M 409.9,353.03 c -1.75,1.61 -10.45,9.18 -10.77,10.73 c -1.68,0.37 -2.95,1.28 -3.81,2.74 c 0.93,1.1 3.7,-1.44 3.81,-2.74 c 1.71,0.75 8.77,-4.45 10.74,-5.26 c -0.25,5.56 -3.8,17.68 -6.9,22.63 c -0.59,0.09 -1.13,0.3 -1.63,0.63 c -5.37,3.94 -10.73,7.8 -16.1,11.58 c 0.53,0.4 1.12,0.49 1.77,0.27 c 2.05,-1.27 4.06,-2.61 6.04,-4 c 2.78,-1.38 5.49,-2.87 8.14,-4.48 c -1.73,9.74 -18.54,29.53 -27.32,35.21 c -8.26,7.03 -33.19,18.05 -43.03,18.26 c 2.36,-1.8 4.72,-3.6 7.08,-5.38 c 0.78,-0.58 1.45,-1.27 1.99,-2.07 c 0.8,0.04 3.68,-1.13 2.66,-2.15 c -1.42,0.09 -2.3,0.8 -2.66,2.15 c -0.9,0.04 -1.75,0.26 -2.56,0.65 c -4.1,2.42 -8.21,4.82 -12.33,7.19 c -4.74,3.21 -15.39,3.26 -21.1,4.22 c 0.66,-1.53 1.67,-2.79 3.03,-3.77 c 10.53,-7.68 21.11,-15.25 31.72,-22.71 c -1.6,-1.62 -3.32,0.97 -4.56,1.86 c -13.87,7.78 -27.7,15.63 -41.49,23.54 c -0.63,0.34 -1.18,0.77 -1.65,1.31 c -3.81,0.4 -7.63,0.51 -11.47,0.34 c -0.8,0.05 -1.43,-0.25 -1.89,-0.9 c 0.31,-0.89 0.72,-1.73 1.23,-2.52 c 3.96,-5.35 7.9,-10.69 11.85,-16.03 c -0.59,-0.12 -1.14,0.01 -1.65,0.37 c -9.33,5.59 -18.69,11.14 -28.07,16.66 c -3.54,2.03 -10.36,0.24 -14.28,0.18 c -0.44,-0.03 -0.82,-0.19 -1.14,-0.49 c -0.4,-8.47 -0.54,-16.96 -0.41,-25.45 c 2.11,-0.81 3.99,-1.96 5.65,-3.46 c 5.56,-0.18 11.11,-0.09 16.64,0.26 c -2,2.04 -4.04,4.02 -6.1,5.95 c 0.55,0.31 1.12,0.32 1.7,0.02 c 3.27,-2.02 6.52,-4.04 9.77,-6.07 c 4.1,0.04 12.89,-0.61 16.44,0.35 c -1.4,1.22 -2.75,2.48 -4.04,3.77 c 0.31,0.26 0.65,0.3 1.02,0.1 c 2.63,-1.33 5.2,-2.75 7.72,-4.26 c 5.4,-0.23 10.79,-0.23 16.18,-0.01 c -3.96,5.38 -7.88,10.78 -11.75,16.2 c 0.26,0.27 0.57,0.33 0.93,0.16 c 9.65,-5.62 19.31,-11.23 28.98,-16.82 c 0.28,-0.18 0.45,-0.42 0.51,-0.74 c 60.27,-13.02 65.78,-74.12 61.37,-125.58 c -0.12,-0.55 0.02,-1.01 0.45,-1.38 c 6.63,-0.13 13.27,-0.16 19.91,-0.11 c 0.58,-0.04 1.03,0.17 1.36,0.63 c 1.87,11.41 4.07,61 -1.98,68.42 Z M 76.91,359.77 c 0.45,1.47 -1.93,5.73 -3.15,6.4 c -1.43,-3.12 0.57,-5.04 3.15,-6.4 Z M 91.16,361.12 c -1.05,2.15 -1.98,4.35 -2.8,6.59 c -0.73,1.6 -1.42,3.22 -2.04,4.86 c 0.2,0.43 0.55,0.58 1.02,0.44 c 6.72,-3.73 13.31,-7.66 19.79,-11.78 c 5.67,-0.33 11.34,-0.31 17,0.07 c 0.09,0.13 0.18,0.25 0.27,0.38 c -0.13,1.7 -3.75,2.98 -4.76,4.47 c -3.65,3.3 -7.08,6.79 -10.3,10.45 c 0.26,0.82 0.82,1.16 1.66,1.02 c 3.53,-2 7.07,-4 10.61,-5.99 c -13.88,33.96 -14.61,85.12 -0.81,119.19 c 0.25,0.82 0.42,1.65 0.51,2.5 c -2.69,0.22 -10.2,5.97 -13.38,6.93 c -7.18,1.03 -25.06,3.46 -24.79,-8.83 c 0.17,-15.79 0.06,-31.58 -0.33,-47.37 c 0.78,-0.09 1.49,-0.35 2.14,-0.78 c 1.93,-1.69 3.94,-3.27 6.04,-4.75 c 0.44,-0.37 0.73,-0.82 0.86,-1.37 c 1.5,-0.08 2.57,-0.78 3.2,-2.12 c 0.53,-0.4 3.65,-0.91 2.47,-1.93 c -1.35,-0.01 -2.18,0.64 -2.47,1.93 c -1.67,-0.16 -2.74,0.54 -3.2,2.12 c -1.95,-0.48 -6.65,3.31 -8.65,4.1 c -0.17,-7.46 -0.19,-14.91 -0.05,-22.37 c 0.56,-0.09 1.05,-0.3 1.5,-0.64 c 3.34,-2.56 6.67,-5.08 10.01,-7.57 c -0.48,-0.47 -1.05,-0.6 -1.7,-0.4 c -3.09,2.12 -6.29,4.08 -9.6,5.88 c -0.37,-8.81 -0.47,-17.63 -0.29,-26.46 c 0.69,-0.31 1.29,-0.74 1.81,-1.28 c 2.62,-2.57 5.2,-5.17 7.73,-7.8 c -0.54,-0.27 -1.07,-0.25 -1.6,0.06 c -2.58,1.56 -5.19,3.08 -7.83,4.56 c -0.23,-7.87 -0.25,-15.75 -0.06,-23.62 c 0.34,-0.46 0.8,-0.66 1.38,-0.59 c 2.22,0.05 4.44,0.09 6.66,0.1 Z M 125.48,409.89 c -0.04,-1.2 -0.09,-2.4 -0.13,-3.61 c 5,-2.68 9.85,-5.59 14.56,-8.74 c 1.52,-1.06 2.89,0.18 1.38,1.2 c -4.96,2.61 -11.14,9.22 -15.81,11.15 Z M 84.72,403.36 c 0.8,0.12 4.04,-1.33 2.73,-2.23 c -1.38,0.17 -2.28,0.91 -2.73,2.23 Z M 310.34,407.72 c -2.43,0.19 -6.26,1.05 -8.5,-0.01 c 1.98,-1.73 7.26,-3.31 8.5,0.01 Z M 268.34,408.7 c -3.14,0 -6.26,-0.24 -9.37,-0.74 c -0.02,-0.1 -0.05,-0.21 -0.08,-0.32 c 3.25,-1.84 7.44,-3.27 9.45,1.06 Z M 290.22,408.85 c -2.75,0.28 -7.69,0.47 -10.25,-0.18 c 0.11,-0.13 0.21,-0.27 0.31,-0.41 c 3.06,-2.33 8.12,-4.24 9.94,0.59 Z M 398.11,407.01 c -0.03,3.12 -2.74,3.95 -4.97,5.35 c -0.08,-1.42 3.79,-5.14 4.97,-5.35 Z M 160.89,414.18 c -3.06,2.64 -6.36,5.43 -10.16,6.79 c -1.54,2.22 -22.73,18.03 -25.37,17.91 c 0.14,-1.95 0.24,-3.9 0.3,-5.86 c 5.07,-0.4 27.66,-16.6 35.23,-18.84 Z M 162.96,430.12 c -1.42,1.16 -5.55,4.89 -7.52,5.75 c -9.48,6.91 -18.98,13.79 -28.51,20.65 c -0.6,1.07 -0.98,2.22 -1.14,3.46 c -0.14,-0.03 -0.27,-0.05 -0.4,-0.08 c -0.45,-6.73 -0.48,-13.46 -0.09,-20.2 c 1.46,2.03 0.34,7.35 0.61,9.87 c -0.05,0.51 0.14,0.87 0.58,1.07 c 11.38,-6.44 22.69,-13 33.92,-19.69 c 0.79,-0.46 1.64,-0.74 2.55,-0.83 Z M 246.65,438.2 c 1.13,0 3.4,-0.78 2.85,-2.2 c -1.43,0.13 -2.38,0.86 -2.85,2.2 Z M 345.07,440.11 c -3.39,2.09 -6.91,4.03 -10.58,5.83 c -1.86,0.32 -3.41,-0.24 -4.66,-1.66 c 0.17,-0.43 0.46,-0.73 0.88,-0.92 c 3.34,-0.03 11.95,-3.49 14.36,-3.25 Z M 89.65,465.28 c 0.77,0.13 4.52,-1.13 2.84,-2.17 c -1.42,0.12 -2.36,0.84 -2.84,2.17 Z M 152.17,464.74 c 1.26,0.24 2.53,0.3 3.81,0.18 c -7.28,5.51 -19.02,12.9 -25.26,19.21 c -1.09,-2.29 -1.97,-4.66 -2.64,-7.11 c 6.4,-1.01 17.21,-9.94 24.09,-12.28 Z M 164.98,475.12 c -3.1,2.72 -21.3,15.74 -26.33,19.24 c -1.09,-0.9 -2.11,-1.87 -3.07,-2.92 c 8.76,-4.93 17.45,-9.98 26.07,-15.15 c 1.04,-0.6 2.15,-0.99 3.33,-1.17 Z M 121.38,493.99 c 2.16,-0.24 4.16,4.04 6.03,5.07 c 0.86,0.42 1.68,0.88 2.48,1.37 c -2,1.1 -9.68,0.2 -12.41,0.51 c -0.92,-0.02 -1.82,-0.18 -2.69,-0.47 c 2.27,-2.07 4.39,-4.27 6.36,-6.6 c 0.08,0.04 0.15,0.08 0.23,0.12 Z"/></g>
<g><path fill="#f3f9fc" fill-opacity="0.992" stroke="#f3f9fc" stroke-width="0.5" stroke-opacity="0.992" d="M 408.06,15.3 c -0.12,0.22 -0.24,0.43 -0.36,0.64 c -7.89,5.59 -15.8,11.13 -23.74,16.63 c -0.47,0.27 -0.74,0.67 -0.81,1.2 c -0.89,0.56 -2.91,0.64 -3.09,1.89 c 0.99,1.26 2.69,-1.03 3.09,-1.89 c 0.65,-0.01 1.29,-0.05 1.93,-0.13 c 10.27,-6.2 20.64,-12.22 31.11,-18.05 c 1.96,0.26 10.99,0.9 11.93,2.49 c -0.11,0.31 -0.22,0.63 -0.32,0.95 c -5.38,3.59 -20.17,14.39 -24.54,16.84 c -0.76,0.88 -1.7,1.59 -2.8,2.12 c -0.18,0.23 -0.25,0.49 -0.19,0.78 c -31.4,3.39 -56.55,22.77 -69.2,51.46 c -3.1,0.38 -22.75,12.66 -27.08,15.04 c 0.02,-4.2 0.35,-8.36 1.02,-12.5 c 2.27,0.39 17.21,-11.11 19.98,-13.15 c 1.31,-0.36 2.27,-1.16 2.87,-2.38 c 1.52,-0.33 4.65,-1.68 5.05,-3.35 c 1.03,-0.57 2.56,-0.29 3.07,-1.51 c -1.06,-1.53 -2.26,0.96 -3.07,1.51 c -1.69,0.15 -4.85,1.43 -5.05,3.35 c -1.39,-0.16 -2.58,0.24 -3.59,1.19 c -6.18,3.54 -12.35,7.08 -18.51,10.62 c 1.31,-5.27 3.02,-10.4 5.13,-15.4 c 0.73,0.13 1.41,0 2.05,-0.39 c 4.93,-3.65 9.86,-7.31 14.78,-10.97 c 1.06,-0.44 2.04,-0.96 2.92,-1.58 c -0.25,-0.33 -0.58,-0.46 -0.99,-0.39 c -2.97,1.92 -6,3.77 -9.12,5.54 c -2.65,1.29 -5.28,2.63 -7.88,4.03 c 8.5,-16.53 20.75,-29.54 36.74,-39.05 c 3.54,-2.01 11.07,-6.44 14.83,-6.83 c -4.48,4.02 -9.02,8 -13.62,11.96 c -1.37,1.04 -2.53,2.27 -3.5,3.67 c 0.83,0.93 3.9,-1.67 4.54,-1.94 c 10.16,-5.88 20.32,-11.75 30.49,-17.6 c 0.36,-0.2 0.72,-0.38 1.1,-0.54 c 0.88,-0.76 2.73,-1.15 2.51,-2.61 c 7.56,-1.46 14.61,-2.17 22.32,-1.65 Z M 435.02,19.58 c 1.53,0.45 9.51,3.1 9.92,4.23 c -3.34,3.06 -22.24,15 -23.68,17.06 c -6.41,-1.33 -12.89,-2.02 -19.44,-2.06 c 1.06,-0.61 2.13,-1.23 3.19,-1.86 c 9.85,-5.82 20.04,-11.55 30.01,-17.37 Z M 451.1,26.6 c 2.74,1.78 5.48,3.55 8.22,5.33 c -2.66,3.02 -17.25,11.92 -21.33,15.44 c -3.77,-1.62 -7.58,-3.17 -11.42,-4.67 c -0.37,-0.18 -0.66,-0.45 -0.87,-0.8 c 0.87,-1.25 22.02,-12.28 25.4,-15.3 Z M 464.17,36.83 c 2.63,1.28 5.79,4.4 6.97,7.08 c -5.12,3.12 -10.19,6.33 -15.21,9.65 c -0.72,0.52 -0.69,0.91 0.11,1.18 c -0.43,1.36 -2.97,1.97 -4.13,2.56 c -1.3,-1.13 -2.58,-2.28 -3.83,-3.46 c 0.16,-1.15 0.48,-2.27 0.96,-3.35 c -0.06,-2.33 -2.98,-1.31 -4.45,-1.32 c 1.34,-1.98 17.26,-9.39 19.58,-12.34 Z M 411.22,47.02 c -0.16,0.23 -0.33,0.46 -0.49,0.69 c -2.83,2.09 -5.73,4.09 -8.7,6 c -0.44,0.57 -0.94,1.09 -1.5,1.55 c -1.15,0.01 -1.94,0.51 -2.39,1.5 c -0.91,0.57 -2.7,0.75 -3.02,1.93 c 0.66,1.03 3.11,-0.63 3.02,-1.93 c 0.66,0.03 1.32,0.02 1.97,-0.04 c 4.05,-2.72 8.23,-5.2 12.57,-7.45 c 0.63,-0.34 1.05,-0.85 1.25,-1.54 c 5.25,1.11 10.05,3.24 14.39,6.4 c -6.87,4.24 -13.44,8.96 -19.76,13.78 c -2.14,0.79 -3.93,2.06 -5.35,3.81 c -1.04,0.78 -3.23,0.37 -2.99,2.17 c -1.39,0 -2.43,0.58 -3.11,1.75 c 1.02,0.99 2.51,-1.02 3.11,-1.75 c 0.63,-0.01 1.24,-0.1 1.83,-0.28 c 9.12,-5.57 18.35,-10.97 27.67,-16.2 c 0.68,-0.34 1.08,-0.88 1.2,-1.62 c 1.34,0.36 3.21,1.09 2.16,2.8 c -7.54,10.45 -15.15,20.83 -22.85,31.15 c -3.17,-0.1 -6.36,-0.21 -9.56,-0.34 c -13.68,1.4 -25.39,13.27 -22.16,27.59 c 11.75,32.89 63.96,6.46 39.35,-21.87 c -0.14,-0.41 -0.12,-0.81 0.07,-1.2 c 7.26,-10.15 14.58,-20.25 21.97,-30.3 c 0.35,-0.37 0.75,-0.43 1.2,-0.2 c 9.13,7.85 15.34,17.58 18.65,29.17 c -0.11,2.17 -1.68,1.64 0.97,3.15 c 3.86,14.93 2.34,32.85 -5.11,46.47 c -0.74,0.82 -1.54,1.58 -2.41,2.25 c 0.89,0.81 0.96,1.69 0.22,2.62 c -2.81,4.38 -6,8.46 -9.57,12.25 c -1.5,1.94 0.94,2.84 2.56,2.61 c 12.34,-4.56 20.77,-15.97 25.35,-27.91 c 3.17,-0.13 20.21,-10.91 24.1,-13.29 c 0.28,0.08 0.56,0.15 0.84,0.23 c 0.44,3.3 -0.72,8.91 -1.61,12.2 c -2.15,0.06 -17.59,11.78 -20.7,13.77 c -0.44,0.4 -0.92,0.75 -1.43,1.06 c -1.07,0.81 -4.82,2.67 -4.88,3.97 c -0.91,0.42 -2.8,0.44 -3.06,1.61 c 1.02,1.12 2.56,-0.74 3.06,-1.61 c 1.99,-0.29 3.64,-1.21 4.96,-2.75 c 1.07,-0.23 2.05,-0.67 2.93,-1.31 c 5.5,-3.35 11.48,-6.42 17.1,-9.83 c 0.24,-0.02 0.48,-0.04 0.72,-0.06 c -3.43,18.76 -20.85,40.97 -36.72,51.48 c -11.32,7.55 -23.59,12.93 -36.82,16.14 c -0.75,-0.23 -1.21,-0.73 -1.38,-1.49 c 2.92,-2.4 5.93,-4.66 9.05,-6.79 c 0.6,-0.39 1.01,-0.93 1.23,-1.61 c 0.65,-0.25 3.72,-0.59 2.41,-1.77 c -1.01,0.3 -1.81,0.89 -2.41,1.77 c -0.76,0.07 -1.5,0.26 -2.21,0.56 c -5.57,3.56 -11.25,6.95 -17.04,10.15 c -8.16,2.63 -23.37,0.85 -31.92,-0.94 c -0.43,-0.41 -0.53,-0.88 -0.3,-1.39 c 1.72,-1.28 4.12,-1.94 4.63,-4.29 c 0.58,0.39 1.17,0.39 1.76,-0.01 c 3.7,-2.6 24.7,-16.47 25.66,-18.72 c 1.47,-0.15 2.58,-0.85 3.35,-2.1 c 0.73,0.08 1.31,-0.16 1.75,-0.73 c -0.55,-0.84 -1.59,0.09 -1.75,0.73 c -1.47,0.14 -2.59,0.84 -3.35,2.1 c -1.5,0.83 -3.09,1.55 -4.76,2.17 c -7.73,4.45 -15.43,8.95 -23.1,13.5 c -3.78,1.72 -8.92,5.79 -12.91,6.3 c -3.1,-1.02 -6.08,-2.29 -8.93,-3.82 c 16.9,-12.11 33.86,-24.13 50.88,-36.06 c 0.62,-0.73 1.28,-1.42 1.98,-2.07 c 1.49,-0.07 2.56,-0.79 3.2,-2.15 c 0.96,0.23 1.59,-0.08 1.89,-0.95 c 0.83,-0.87 0.83,-0.87 0,0 c -1,-0.31 -1.63,0.01 -1.89,0.95 c -1.53,0.03 -2.6,0.74 -3.2,2.15 c -3.21,0.49 -9.96,5.41 -13.31,6.91 c -15.05,8.63 -30.02,17.38 -44.91,26.28 c -0.73,0.03 -1.31,0.38 -1.71,1.05 c -3.34,-1.63 -6.45,-3.63 -9.31,-6.01 c 4.23,-0.35 39.52,-25.91 45.92,-30.22 c 0.88,-0.58 1.63,-1.28 2.24,-2.08 c 0.4,-0.36 4.42,-1.07 2.79,-2.05 c -1.2,0.3 -2.12,0.99 -2.79,2.05 c -2.16,0.83 -4.23,1.86 -6.22,3.08 c -15.16,8.73 -30.32,17.48 -45.46,26.24 c -2.02,-1.66 -3.94,-3.43 -5.75,-5.32 c -1.11,-1.35 -0.8,-2.01 0.92,-1.97 c 2.86,-1.96 5.75,-3.89 8.68,-5.8 c 0.42,-0.35 0.78,-0.76 1.06,-1.24 c 1.35,-0.08 2.32,-0.74 2.91,-1.97 c 0.55,0.14 2.89,-0.38 1.59,-1.2 c -0.86,-0.02 -1.39,0.38 -1.59,1.2 c -1.37,0.1 -2.34,0.76 -2.91,1.97 c -0.73,-0.04 -1.41,0.11 -2.06,0.45 c -3.11,1.87 -6.24,3.69 -9.39,5.46 c -0.36,0.69 -0.89,0.86 -1.6,0.51 c -1.91,-2.09 -3.73,-4.26 -5.46,-6.5 c 2.11,-2.44 16.87,-9.78 17.9,-13.29 c 3.36,4.61 7.68,3.66 12.26,1.4 c 1.2,-0.41 1.86,-1.22 1.97,-2.45 c -3.22,-3.75 -6.31,-7.62 -9.29,-11.59 c -8.36,-12.54 -11.69,-27.42 -9.51,-42.35 c 1.84,0.6 11.98,-7.57 14.05,-9.01 c 1.4,-0.39 2.39,-1.27 2.97,-2.61 c 2.57,-0.27 6,-3.11 8.01,-4.68 c -0.54,-1.21 -7.54,3.1 -8.01,4.68 c -1.42,-0.06 -2.62,0.39 -3.6,1.34 c -4.45,2.5 -8.85,5.1 -13.2,7.8 c 5.91,-28.36 25.67,-52.34 55.64,-55.81 c 3.53,-0.25 12.58,-0.15 15.5,1.62 Z M 479.94,54.75 c 1.74,2.96 3.37,5.98 4.89,9.06 c -1.13,-0.36 -2.19,-0.22 -3.2,0.42 c -4.87,3.27 -9.77,6.51 -14.68,9.72 c -0.31,0.11 -0.62,0.22 -0.92,0.33 c -1.83,-2.76 -3.67,-5.51 -5.51,-8.26 c 1.21,-0.63 2.38,-1.33 3.49,-2.11 c 5.31,-3.03 10.61,-6.09 15.93,-9.16 Z M 486.06,65.71 c 1.2,2.95 2.28,5.94 3.24,8.99 c -3.39,0.37 -14.86,9.15 -18.27,11.53 c -1.22,-3.5 -2.58,-6.94 -4.08,-10.34 c 5,-1.57 13.56,-8.06 19.11,-10.18 Z M 445.72,74.29 c 0.54,-0.06 2.9,-0.49 1.72,-1.38 c -0.9,0.05 -1.48,0.51 -1.72,1.38 Z M 448.01,86.97 c -0.82,-0.16 -1.49,0.07 -2,0.71 c 0.61,1 1.93,0.16 2,-0.71 c 0.79,0.04 3.82,-0.91 2.55,-2.01 c -1.24,0.16 -2.09,0.83 -2.55,2.01 Z M 493.02,88.2 c 1.12,0.14 2.36,8.51 2.02,9.85 c -0.34,0.11 -0.69,0.22 -1.03,0.33 c -6.09,4.14 -12.14,8.34 -18.13,12.6 c -0.49,-0.33 -0.72,-0.82 -0.67,-1.46 c -0.04,-3.83 -0.36,-7.64 -0.96,-11.41 c 3.68,1.03 15.49,-7.74 18.77,-9.91 Z M 328.68,93.74 c 0.32,0.08 0.65,0.16 0.97,0.24 c -1.24,4.75 -2.24,9.54 -2.99,14.39 c -0.17,0.42 -0.46,0.73 -0.87,0.93 c -6.94,3.95 -13.87,7.93 -20.78,11.95 c -0.52,-3.79 -0.82,-7.59 -0.89,-11.4 c 0.65,0.37 1.3,0.35 1.94,-0.06 c 7.63,-5.24 15.17,-10.59 22.62,-16.05 Z M 454,98.08 c -1.5,-0.1 -2.52,0.56 -3.06,1.96 c -0.89,-0.14 -1.56,0.18 -1.99,0.96 c -0.88,0.5 -2.71,0.46 -2.92,1.67 c 1.06,1.28 2.62,-0.62 2.92,-1.67 c 0.96,0.19 1.62,-0.12 1.99,-0.96 c 1.41,-0.06 2.43,-0.71 3.06,-1.96 c 0.88,0.14 1.55,-0.13 2.03,-0.82 c 1.14,-0.63 1.05,-1.04 -0.27,-1.24 c -0.84,0.47 -1.43,1.16 -1.76,2.06 Z M 495.07,103.08 c 0.31,0.01 0.61,0.02 0.92,0.03 c 0.89,3.6 1.29,7.26 1.2,10.98 c -0.78,-0.24 -1.52,-0.16 -2.23,0.23 c -7.4,5.19 -14.73,10.44 -21.99,15.75 c 1.47,-3.99 1.32,-14.1 3.82,-16.82 c 4.91,-1.9 13.24,-7.48 18.28,-10.17 Z M 325.19,114.97 c 0.27,0.02 0.53,0.03 0.8,0.05 c 0.19,2.94 1.78,10.36 0.88,12.76 c -0.69,0.71 -1.45,1.31 -2.29,1.81 c -1.66,-1.24 -4.05,-0.27 -4.56,1.68 c -0.61,-0.07 -1.17,0.07 -1.69,0.41 c -2.74,1.51 -5.45,3.04 -8.16,4.59 c -0.29,-0.13 -0.59,-0.26 -0.88,-0.39 c -1.64,-1.07 -2.24,-6.04 -2.57,-7.89 c 0.24,-1.17 16.23,-11.51 18.47,-13.02 Z M 452.99,127.07 c -0.93,-0.22 -1.6,0.1 -1.98,0.96 c -0.88,0.51 -2.69,0.46 -2.99,1.59 c 1.03,1.35 2.59,-0.61 2.99,-1.59 c 0.92,0.14 1.58,-0.18 1.98,-0.96 c 0.79,-0.08 3.78,-0.96 2.57,-2.13 c -1.35,0.1 -2.21,0.8 -2.57,2.13 Z M 351.6,139.3 c 1.82,-0.03 4.11,-1.73 5.31,-2.98 c -0.84,-1.28 -4.87,1.83 -5.31,2.98 Z M 330.15,139.13 c 0.64,-0.04 1.15,0.18 1.54,0.68 c 1.33,2.77 2.71,5.52 4.15,8.23 c -6.05,3.21 -11.98,6.61 -17.8,10.21 c -1.46,-3.02 -2.85,-6.07 -4.18,-9.16 c 0.78,0.16 1.52,0.05 2.21,-0.33 c 2.2,-1.49 4.34,-3.05 6.42,-4.66 c 1.48,-0.95 3.01,-1.82 4.59,-2.62 c 0.46,-0.3 0.67,-0.73 0.62,-1.28 c 0.54,-0.05 1.07,-0.1 1.61,-0.15 c 0.28,-0.3 0.56,-0.61 0.84,-0.92 Z M 365.92,145.01 c -1.18,0.17 -10.76,4.44 -8.26,5.75 c 1.25,0.1 7.79,-4.29 8.26,-5.75 c 1.98,-0.17 3.77,-1.29 5.01,-2.71 c -0.78,-1.36 -4.49,1.73 -5.01,2.71 Z M 444.73,150.26 c 0.68,-0.23 4.34,-1.1 2.89,-2.26 c -1.38,0.2 -2.34,0.95 -2.89,2.26 Z M 336.18,150.01 c 0.24,-0.06 0.48,-0.13 0.72,-0.19 c 1.16,1.39 6.1,6.81 6.26,8.24 c -3.84,1.41 -12.92,7.36 -17.2,9.55 c -0.6,0.27 -0.96,0.73 -1.07,1.37 c -2.05,-2.48 -4.05,-5.73 -5.3,-8.76 c 3.76,-0.86 12.71,-7.98 16.59,-10.21 Z"/></g>
<g><path fill="#ebf2f6" fill-opacity="0.475" d="M 429.15,195.75 c 0.6,-0.88 1.4,-1.47 2.41,-1.77 c 1.31,1.18 -1.76,1.52 -2.41,1.77 Z"/></g>
<g><path fill="#f3fafb" fill-opacity="0.451" d="M 413.08,179.01 c 0.16,-0.64 1.2,-1.57 1.75,-0.73 c -0.44,0.57 -1.02,0.81 -1.75,0.73 Z"/></g>
<g><path fill="#f3f9fb" fill-opacity="0.408" d="M 351.6,139.3 c 0.44,-1.15 4.47,-4.26 5.31,-2.98 c -1.2,1.25 -3.49,2.95 -5.31,2.98 Z M 468.08,151.97 c -0.5,0.87 -2.04,2.73 -3.06,1.61 c 0.26,-1.17 2.15,-1.19 3.06,-1.61 Z M 391.81,157.06 c 0.67,-1.06 1.59,-1.75 2.79,-2.05 c 1.63,0.98 -2.39,1.69 -2.79,2.05 Z M 347.95,170.08 c 0.2,-0.82 0.73,-1.22 1.59,-1.2 c 1.3,0.82 -1.04,1.34 -1.59,1.2 Z"/></g>
<g><path fill="#f5f6fe" fill-opacity="0.231" d="M 452.99,127.07 c 0.36,-1.33 1.22,-2.03 2.57,-2.13 c 1.21,1.17 -1.78,2.05 -2.57,2.13 Z"/></g>
<g><path fill="#f2fafb" fill-opacity="0.463" d="M 448.95,101 c -0.3,1.05 -1.86,2.95 -2.92,1.67 c 0.21,-1.21 2.04,-1.17 2.92,-1.67 Z"/></g>
<g><path fill="#f3f9fc" fill-opacity="0.314" d="M 450.94,100.04 c -0.37,0.84 -1.03,1.15 -1.99,0.96 c 0.43,-0.78 1.1,-1.1 1.99,-0.96 Z M 452.99,127.07 c -0.4,0.78 -1.06,1.1 -1.98,0.96 c 0.38,-0.86 1.05,-1.18 1.98,-0.96 Z M 413.08,179.01 c -0.77,1.25 -1.88,1.95 -3.35,2.1 c 0.76,-1.26 1.88,-1.96 3.35,-2.1 Z"/></g>
<g><path fill="#f3fafe" fill-opacity="0.251" d="M 454,98.08 c -0.63,1.25 -1.65,1.9 -3.06,1.96 c 0.54,-1.4 1.56,-2.06 3.06,-1.96 Z M 416.09,158.98 c -0.64,1.36 -1.71,2.08 -3.2,2.15 c 0.6,-1.41 1.67,-2.12 3.2,-2.15 Z"/></g>
<g><path fill="#f2fafd" fill-opacity="0.427" d="M 448.01,86.97 c -0.07,0.87 -1.39,1.71 -2,0.71 c 0.51,-0.64 1.18,-0.87 2,-0.71 Z"/></g>
<g><path fill="#f0fbfc" fill-opacity="0.255" d="M 332.91,73.89 c -0.4,1.67 -3.53,3.02 -5.05,3.35 c 0.2,-1.92 3.36,-3.2 5.05,-3.35 Z"/></g>
<g><path fill="#f3f9fc" fill-opacity="0.502" d="M 445.72,74.29 c 0.24,-0.87 0.82,-1.33 1.72,-1.38 c 1.18,0.89 -1.18,1.32 -1.72,1.38 Z M 451.01,128.03 c -0.4,0.98 -1.96,2.94 -2.99,1.59 c 0.3,-1.13 2.11,-1.08 2.99,-1.59 Z"/></g>
<g><path fill="#f3fafc" fill-opacity="0.435" d="M 332.91,73.89 c 0.81,-0.55 2.01,-3.04 3.07,-1.51 c -0.51,1.22 -2.04,0.94 -3.07,1.51 Z M 365.92,145.01 c 0.52,-0.98 4.23,-4.07 5.01,-2.71 c -1.24,1.42 -3.03,2.54 -5.01,2.71 Z"/></g>
<g><path fill="#f4f9fc" fill-opacity="0.341" d="M 398.14,56.76 c 0.09,1.3 -2.36,2.96 -3.02,1.93 c 0.32,-1.18 2.11,-1.36 3.02,-1.93 Z M 448.01,86.97 c 0.46,-1.18 1.31,-1.85 2.55,-2.01 c 1.27,1.1 -1.76,2.05 -2.55,2.01 Z M 356.88,92.07 c 0.47,-1.58 7.47,-5.89 8.01,-4.68 c -2.01,1.57 -5.44,4.41 -8.01,4.68 Z M 417.98,158.03 c 0.83,-0.87 0.83,-0.87 0,0 Z M 347.95,170.08 c -0.59,1.23 -1.56,1.89 -2.91,1.97 c 0.57,-1.21 1.54,-1.87 2.91,-1.97 Z"/></g>
<g><path fill="#f3f9fc" fill-opacity="0.388" d="M 383.15,33.77 c -0.4,0.86 -2.1,3.15 -3.09,1.89 c 0.18,-1.25 2.2,-1.33 3.09,-1.89 Z M 400.22,73.89 c -0.6,0.73 -2.09,2.74 -3.11,1.75 c 0.68,-1.17 1.72,-1.75 3.11,-1.75 Z M 417.98,158.03 c -0.3,0.87 -0.93,1.18 -1.89,0.95 c 0.26,-0.94 0.89,-1.26 1.89,-0.95 Z"/></g>
<g><path fill="#4d5c7a" fill-opacity="0.996" stroke="#4d5c7a" stroke-width="0.5" stroke-opacity="0.996" d="M 383.04,236.21 c -0.01,2.6 -3.42,4.5 -4.96,6.32 c -1.46,0.24 -2.9,0.57 -4.32,0.99 c -0.66,-0.23 -1.32,-0.44 -1.99,-0.63 c -1.27,-5.07 7.9,-9.98 11.27,-6.68 Z M 412.98,279.28 c 0.49,-2.46 1.34,-4.79 2.54,-7.01 c 0.67,-1.37 -0.74,-1.27 -1.5,-0.79 c -2.45,1.73 -10.67,5.63 -12.05,7.67 c -24.06,0.23 -21.45,-5.2 -19.86,-26.51 c 0.38,-0.41 0.85,-0.59 1.42,-0.51 c 11.64,-0.01 23.29,-0.02 34.94,-0.01 c 0.98,-0.08 1.57,0.35 1.77,1.29 c -0.18,7.74 1.75,17.78 -1.27,25 c -1.1,0.89 -4.52,0.63 -5.99,0.87 Z M 178.86,359.95 c -0.53,0.62 -0.74,1.33 -0.63,2.13 c -0.65,0.03 -1.09,0.33 -1.32,0.92 c -0.53,0.19 -0.91,0.54 -1.16,1.04 c -3.3,2.41 -6.57,4.88 -9.82,7.4 c -1.42,0.91 -0.16,1.72 1.05,1.09 c 6.64,-3.97 13.3,-7.91 19.98,-11.82 c 3.86,-1.76 11.7,-0.73 16.08,-0.72 c -0.35,1.08 -1.01,1.94 -1.95,2.59 c -7.28,5.68 -14.54,11.37 -21.79,17.07 c 0.63,0.18 1.27,0.19 1.92,0.02 c 5.09,-2.51 10.74,-6.26 15.39,-9.34 c 5.09,-0.92 12.71,-6.32 17.34,-9.12 c 2.62,0.01 9.39,1.63 10.99,3.59 c -1.93,1.95 -4.71,2.94 -6.16,5.3 c -0.7,-0.18 -1.26,0.02 -1.68,0.6 c 0.49,0.83 1.65,0.1 1.68,-0.6 c 2.85,-1.25 5.64,-2.61 8.36,-4.09 c 2.94,1.93 4.99,4.56 6.17,7.9 c -0.31,0.01 -0.61,0.02 -0.92,0.03 c -0.83,0.05 -1.36,0.47 -1.58,1.26 c -0.5,0.44 -1.06,0.63 -1.71,0.57 c -0.55,0.35 -1.04,0.78 -1.45,1.28 c -9.57,6.83 -19.14,13.64 -28.72,20.46 c -0.57,0.28 -0.83,0.73 -0.75,1.36 c -0.42,0.01 -0.73,0.18 -0.94,0.52 c 0.5,0.21 0.81,0.04 0.94,-0.52 c 3.13,-0.11 30.7,-17.25 35.64,-20.11 c 0.66,0.39 1,0.98 1.03,1.76 c 0.16,3.13 0.28,6.27 0.35,9.42 c -0.79,-0.19 -1.55,-0.08 -2.26,0.34 c -11.63,8.5 -23.29,16.95 -34.99,25.35 c -0.5,0.27 -0.76,0.68 -0.78,1.24 c -1.33,0.06 -2.33,0.64 -3,1.76 c 0.92,1.17 2.55,-0.99 3,-1.76 c 3.94,-0.15 32.12,-17.93 37.76,-21.21 c -0.47,7.78 -1.05,15.55 -1.73,23.32 c -1.96,1.44 -5.78,3.35 -7.26,4.93 c -7.77,5.78 -15.57,11.52 -23.39,17.23 c -0.62,0.41 -1.09,0.94 -1.41,1.59 c -1.36,0.18 -2.37,0.84 -3.05,1.98 c 0.94,1.32 2.71,-1.1 3.05,-1.98 c 2.95,0.06 20.05,-11.08 24.06,-12.98 c 0.84,-0.77 1.38,-1.71 1.63,-2.83 c 0.36,0.55 0.87,0.82 1.52,0.79 c 0.99,-0.66 2.04,-1.18 3.15,-1.55 c 0.35,1.23 0.6,2.49 0.75,3.77 c 0.15,-0.01 0.29,-0.01 0.43,-0.02 c -0.56,7.4 -0.94,14.81 -1.15,22.23 c -0.32,0.72 -0.86,1.23 -1.61,1.52 c -0.92,0.57 -1.54,1.34 -1.87,2.33 c -1.34,-0.06 -2.3,0.5 -2.88,1.68 c 0.84,1.1 2.51,-0.88 2.88,-1.68 c 1.09,-0.11 2.14,-0.39 3.14,-0.85 c 0.08,0.01 0.17,0.02 0.25,0.02 c 0.1,15.1 0.53,30.18 1.31,45.26 c -0.32,0.37 -0.72,0.51 -1.21,0.43 c -5.29,0.05 -10.59,0 -15.88,-0.16 c 2,-2.7 3.98,-5.4 5.93,-8.1 c -0.26,-0.27 -0.56,-0.32 -0.92,-0.16 c -2.1,1.31 -13.02,6.56 -13.45,8.4 c -16.41,0 -32.82,-0.02 -49.23,-0.05 c -1.13,-0.35 -2.29,-0.57 -3.49,-0.67 c -1.81,-1.14 3.58,-3.67 4.24,-3.98 c 1.55,-2.33 4.53,-2.04 5.37,-4.84 c -0.63,-1.02 -1.48,-0.28 -2.28,0.06 c -1.7,1.22 -3.33,1.68 -4.59,3.48 c -2.97,1.04 -5.69,2.52 -8.16,4.46 c -3.92,-0.7 -7.39,-2.34 -10.43,-4.93 c 5.03,-3.5 23.23,-16.52 26.33,-19.24 c 0.41,-0.5 4.01,-1.16 2.54,-2.16 c -1.51,-0.05 -2.35,0.67 -2.54,2.16 c -1.18,0.18 -2.29,0.57 -3.33,1.17 c -8.62,5.17 -17.31,10.22 -26.07,15.15 c -1.96,-2.21 -3.58,-4.65 -4.86,-7.31 c 6.24,-6.31 17.98,-13.7 25.26,-19.21 c 4.17,-3.2 8.4,-6.28 12.68,-9.25 c -0.48,-0.48 -1.05,-0.62 -1.71,-0.43 c -4.67,3.11 -9.44,6.06 -14.32,8.85 c -0.27,0.14 -0.42,0.36 -0.46,0.65 c -6.88,2.34 -17.69,11.27 -24.09,12.28 c -1.31,-5.64 -2.21,-11.34 -2.69,-17.12 c 0.13,0.03 0.26,0.05 0.4,0.08 c 0.16,-1.24 0.54,-2.39 1.14,-3.46 c 9.53,-6.86 19.03,-13.74 28.51,-20.65 c 1.97,-0.86 6.1,-4.59 7.52,-5.75 c 0.59,-0.24 4.18,-1 2.59,-2 c -1.36,0.05 -2.23,0.71 -2.59,2 c -0.91,0.09 -1.76,0.37 -2.55,0.83 c -11.23,6.69 -22.54,13.25 -33.92,19.69 c -0.44,-0.2 -0.63,-0.56 -0.58,-1.07 c -0.27,-2.52 0.85,-7.84 -0.61,-9.87 c 0.02,-0.27 0.04,-0.54 0.06,-0.82 c 2.64,0.12 23.83,-15.69 25.37,-17.91 c 3.8,-1.36 7.1,-4.15 10.16,-6.79 c 0.65,-0.02 4.38,-1.05 2.68,-2.04 c -1.37,0.08 -2.27,0.76 -2.68,2.04 c -7.57,2.24 -30.16,18.44 -35.23,18.84 c 0.11,-7.71 0.05,-15.42 -0.18,-23.13 c 4.67,-1.93 10.85,-8.54 15.81,-11.15 c 1.51,-1.02 0.14,-2.26 -1.38,-1.2 c -4.71,3.15 -9.56,6.06 -14.56,8.74 c -0.11,-18.11 1.57,-41.18 23.81,-44.55 c 0.68,0.05 1.24,0.31 1.69,0.8 c -2.2,2.32 -4.16,4.85 -5.88,7.57 c -0.35,-0.06 -0.61,0.06 -0.79,0.36 c 0.4,0.25 0.66,0.13 0.79,-0.36 c 2.29,-0.31 4.28,-1.28 5.96,-2.89 c 0.66,-0.12 1.08,-0.5 1.26,-1.13 c 0.19,-0.01 0.39,-0.01 0.58,-0.02 c 0.82,0 1.58,-0.19 2.3,-0.57 c 2.38,-1.41 4.67,-2.94 6.86,-4.59 c 0.1,-0.28 0.3,-0.44 0.59,-0.5 c 5.45,-0.04 10.89,-0.19 16.34,-0.45 Z M 173.82,384.37 c 0.68,-0.35 4.33,-1.25 2.83,-2.41 c -1.41,0.23 -2.36,1.03 -2.83,2.41 Z M 194.83,401.02 c 0.37,0 1.74,-0.29 0.77,-0.87 c -0.47,0.1 -0.73,0.39 -0.77,0.87 Z M 212.14,451.78 c -1.22,0.34 -2.23,0.96 -3.05,1.87 c 0.97,1.51 2.59,-1.09 3.05,-1.87 c 2.1,0.34 2.22,-0.36 3.76,-1.52 c 3.19,-1.77 6.37,-3.56 9.54,-5.37 c 1.7,-0.74 1.76,-3.14 -0.51,-2.67 c -3.36,2.35 -6.62,4.83 -9.78,7.41 c -0.85,0.72 -2.88,0.83 -3.01,2.15 Z M 166.69,489.24 c 0.84,0.27 4.28,-1.32 2.81,-2.1 c -1.35,0.14 -2.29,0.84 -2.81,2.1 Z M 191.74,498.24 c 0.91,-0.29 3.26,-0.87 2.75,-2.15 c -1.5,0.01 -2.41,0.73 -2.75,2.15 Z"/></g>
<g><path fill="#4d5d79" fill-opacity="0.404" stroke="#4d5d79" stroke-width="0.5" stroke-opacity="0.404" d="M 191.74,498.24 c 0.34,-1.42 1.25,-2.14 2.75,-2.15 c 0.51,1.28 -1.84,1.86 -2.75,2.15 Z"/></g>
<g><path fill="#4d5d79" fill-opacity="0.451" stroke="#4d5d79" stroke-width="0.5" stroke-opacity="0.451" d="M 164.98,475.12 c 0.19,-1.49 1.03,-2.21 2.54,-2.16 c 1.47,1 -2.13,1.66 -2.54,2.16 Z"/></g>
<g><path fill="#4d5b7a" fill-opacity="0.322" stroke="#4d5b7a" stroke-width="0.5" stroke-opacity="0.322" d="M 228.05,455.99 c -0.37,0.8 -2.04,2.78 -2.88,1.68 c 0.58,-1.18 1.54,-1.74 2.88,-1.68 Z"/></g>
<g><path fill="#4d5c7a" fill-opacity="0.498" stroke="#4d5c7a" stroke-width="0.5" stroke-opacity="0.498" d="M 212.14,451.78 c -0.46,0.78 -2.08,3.38 -3.05,1.87 c 0.82,-0.91 1.83,-1.53 3.05,-1.87 Z"/></g>
<g><path fill="#4d5b79" fill-opacity="0.471" stroke="#4d5b79" stroke-width="0.5" stroke-opacity="0.471" d="M 162.96,430.12 c 0.36,-1.29 1.23,-1.95 2.59,-2 c 1.59,1 -2,1.76 -2.59,2 Z"/></g>
<g><path fill="#4c5b7b" fill-opacity="0.337" stroke="#4c5b7b" stroke-width="0.5" stroke-opacity="0.337" d="M 197.17,416.87 c -0.45,0.77 -2.08,2.93 -3,1.76 c 0.67,-1.12 1.67,-1.7 3,-1.76 Z"/></g>
<g><path fill="#4d5b79" fill-opacity="0.482" stroke="#4d5b79" stroke-width="0.5" stroke-opacity="0.482" d="M 160.89,414.18 c 0.41,-1.28 1.31,-1.96 2.68,-2.04 c 1.7,0.99 -2.03,2.02 -2.68,2.04 Z"/></g>
<g><path fill="#4d5b79" fill-opacity="0.298" stroke="#4d5b79" stroke-width="0.5" stroke-opacity="0.298" d="M 194.83,401.02 c 0.04,-0.48 0.3,-0.77 0.77,-0.87 c 0.97,0.58 -0.4,0.87 -0.77,0.87 Z"/></g>
<g><path fill="#4c5c79" fill-opacity="0.396" stroke="#4c5c79" stroke-width="0.5" stroke-opacity="0.396" d="M 173.82,384.37 c 0.47,-1.38 1.42,-2.18 2.83,-2.41 c 1.5,1.16 -2.15,2.06 -2.83,2.41 Z"/></g>
<g><path fill="#57627e" fill-opacity="0.522" stroke="#57627e" stroke-width="0.5" stroke-opacity="0.522" d="M 218.78,370.1 c -0.03,0.7 -1.19,1.43 -1.68,0.6 c 0.42,-0.58 0.98,-0.78 1.68,-0.6 Z"/></g>
<g><path fill="#4c5b7a" fill-opacity="0.263" stroke="#4c5b7a" stroke-width="0.5" stroke-opacity="0.263" d="M 198.18,398.87 c -0.13,0.56 -0.44,0.73 -0.94,0.52 c 0.21,-0.34 0.52,-0.51 0.94,-0.52 Z"/></g>
<g><path fill="#424e63" fill-opacity="0.976" d="M 233.2,418.98 c -0.08,3.65 -0.25,7.29 -0.52,10.93 c -0.14,0.01 -0.28,0.01 -0.43,0.02 c -0.15,-1.28 -0.4,-2.54 -0.75,-3.77 c -1.11,0.37 -2.16,0.89 -3.15,1.55 c -0.65,0.03 -1.16,-0.24 -1.52,-0.79 c 0.08,-0.86 0.66,-3.15 -0.89,-3.01 c 1.48,-1.58 5.3,-3.49 7.26,-4.93 Z"/></g>
<g><path fill="#3c4759" fill-opacity="0.788" d="M 157.99,500.78 c -3.11,0.24 -6.08,-0.26 -8.91,-1.49 c 2.47,-1.94 5.19,-3.42 8.16,-4.46 c 1.26,-1.8 2.89,-2.26 4.59,-3.48 c 0.8,-0.34 1.65,-1.08 2.28,-0.06 c -0.84,2.8 -3.82,2.51 -5.37,4.84 c -0.66,0.31 -6.05,2.84 -4.24,3.98 c 1.2,0.1 2.36,0.32 3.49,0.67 Z"/></g>
<g><path fill="#3c4657" fill-opacity="0.906" d="M 250.95,446.66 c -0.37,0.3 -0.75,0.59 -1.14,0.87 c -1.56,0.63 -3.07,0.53 -4.55,-0.31 c -0.03,-0.81 0.38,-1.22 1.21,-1.21 c 1.55,0.02 3.05,0.23 4.48,0.65 Z"/></g>
<g><path fill="#404b5e" fill-opacity="0.718" d="M 156.74,361.39 c 0.19,0.16 0.37,0.32 0.56,0.48 c -0.49,0.08 -0.99,0.16 -1.48,0.24 c -0.31,0.13 -0.59,0.32 -0.83,0.56 c -0.46,0.18 -0.91,0.36 -1.36,0.54 c -0.71,0.65 -2.6,1.76 -2.54,2.74 c -0.05,0.42 -0.1,0.84 -0.16,1.26 c -1.68,1.61 -3.67,2.58 -5.96,2.89 c 1.72,-2.72 3.68,-5.25 5.88,-7.57 c -0.45,-0.49 -1.01,-0.75 -1.69,-0.8 c 1.74,-0.28 3.54,-0.47 5.39,-0.58 c 0.74,0.01 1.47,0.09 2.19,0.24 Z"/></g>
<g><path fill="#414c61" fill-opacity="0.592" d="M 306.62,447.12 c 1.45,-0.11 2.89,-0.24 4.34,-0.37 c -0.01,0.9 -0.48,1.32 -1.41,1.27 c -1.15,0.16 -2.12,-0.14 -2.93,-0.9 Z"/></g>
<g><path fill="#654e48" fill-opacity="0.682" d="M 250.48,84.76 c 0.54,0.64 0.78,1.39 0.7,2.23 c -0.97,-0.46 -1.2,-1.21 -0.7,-2.23 Z M 251.18,86.99 c 0.79,-0.29 0.57,1.67 0.68,2.08 c -0.62,-0.55 -0.85,-1.24 -0.68,-2.08 Z"/></g>
<g><path fill="#535455" fill-opacity="0.627" d="M 297.27,86.19 c 0.22,-0.01 0.44,-0.02 0.66,-0.03 c 0,0.76 -0.21,1.45 -0.66,2.07 c 0.01,-0.68 0.01,-1.36 0,-2.04 Z"/></g>
<g><path fill="#404b60" fill-opacity="0.345" d="M 411.04,388.63 c -0.1,0.78 -0.54,1.24 -1.31,1.37 c 0.33,-0.56 0.76,-1.02 1.31,-1.37 Z"/></g>
<g><path fill="#414d62" fill-opacity="0.325" d="M 280.28,408.26 c -0.1,0.14 -0.2,0.28 -0.31,0.41 c -0.37,0.18 -0.74,0.35 -1.12,0.53 c 0.16,-0.79 0.64,-1.1 1.43,-0.94 Z"/></g>
<g><path fill="#415064" fill-opacity="0.2" stroke="#415064" stroke-width="0.5" stroke-opacity="0.2" d="M 250.95,446.66 c 0.01,0.82 -0.37,1.11 -1.14,0.87 c 0.39,-0.28 0.77,-0.57 1.14,-0.87 Z"/></g>
<g><path fill="#424e64" fill-opacity="0.502" d="M 98.2,506.02 c -0.29,0.58 -0.77,0.87 -1.45,0.88 c 0.31,-0.56 0.8,-0.86 1.45,-0.88 Z"/></g>
<g><path fill="#52433f" fill-opacity="0.416" d="M 88.21,34.22 c -0.39,0.53 -0.92,0.78 -1.59,0.74 c 0.39,-0.52 0.92,-0.77 1.59,-0.74 Z"/></g>
<g><path fill="#424c68" stroke="#424c68" stroke-width="0.5" d="M 401.84,99 c -0.14,0.94 -0.4,1.85 -0.77,2.72 c 0.81,1.11 3.39,-0.82 4.09,-1.51 c 7.26,0.81 11.25,26.22 -6.34,22.38 c -13.01,-5.83 -9.4,-26.55 3.02,-23.59 Z"/></g>
<g><path fill="#424f63" fill-opacity="0.388" d="M 116.59,506.92 c 0.93,-0.06 1.85,-0.05 2.78,0.02 c -0.93,1.2 -1.86,1.19 -2.78,-0.02 Z M 138.71,506.89 c 0.86,-0.06 1.72,-0.06 2.58,0 c -0.87,1.26 -1.73,1.26 -2.58,0 Z"/></g>
<g><path fill="#414e63" fill-opacity="0.357" d="M 92.72,506.78 c 1.09,-0.11 2.17,-0.11 3.26,0 c 0.14,1.94 -3.05,1.62 -3.26,0 Z"/></g>
<g><path fill="#424e64" fill-opacity="0.329" stroke="#424e64" stroke-width="0.5" stroke-opacity="0.329" d="M 246.65,438.2 c 0.47,-1.34 1.42,-2.07 2.85,-2.2 c 0.55,1.42 -1.72,2.2 -2.85,2.2 Z"/></g>
<g><path fill="#444e64" fill-opacity="0.224" stroke="#444e64" stroke-width="0.5" stroke-opacity="0.224" d="M 95.05,435.03 c -0.63,1.34 -1.7,2.04 -3.2,2.12 c 0.46,-1.58 1.53,-2.28 3.2,-2.12 Z"/></g>
<g><path fill="#424e63" fill-opacity="0.514" stroke="#424e63" stroke-width="0.5" stroke-opacity="0.514" d="M 95.05,435.03 c 0.29,-1.29 1.12,-1.94 2.47,-1.93 c 1.18,1.02 -1.94,1.53 -2.47,1.93 Z"/></g>
<g><path fill="#434e63" fill-opacity="0.306" stroke="#434e63" stroke-width="0.5" stroke-opacity="0.306" d="M 339.91,431.15 c 0.36,-1.35 1.24,-2.06 2.66,-2.15 c 1.02,1.02 -1.86,2.19 -2.66,2.15 Z"/></g>
<g><path fill="#414e63" fill-opacity="0.486" stroke="#414e63" stroke-width="0.5" stroke-opacity="0.486" d="M 399.13,363.76 c -0.11,1.3 -2.88,3.84 -3.81,2.74 c 0.86,-1.46 2.13,-2.37 3.81,-2.74 Z M 89.65,465.28 c 0.48,-1.33 1.42,-2.05 2.84,-2.17 c 1.68,1.04 -2.07,2.3 -2.84,2.17 Z"/></g>
<g><path fill="#445269" fill-opacity="0.153" stroke="#445269" stroke-width="0.5" stroke-opacity="0.153" d="M 424.03,237.98 c 0.13,-1.06 2.03,-2.72 2.85,-1.71 c -0.12,0.77 -2.41,3.64 -2.85,1.71 Z"/></g>
<g><path fill="#424e63" fill-opacity="0.408" stroke="#424e63" stroke-width="0.5" stroke-opacity="0.408" d="M 409.79,224.33 c -0.29,0.73 -1.8,2.06 -2.39,1.14 c 0.45,-1.12 1.25,-1.5 2.39,-1.14 Z M 84.72,403.36 c 0.45,-1.32 1.35,-2.06 2.73,-2.23 c 1.31,0.9 -1.93,2.35 -2.73,2.23 Z"/></g>
<g><path fill="#445063" fill-opacity="0.455" stroke="#445063" stroke-width="0.5" stroke-opacity="0.455" d="M 396.86,223.03 c 0.35,-1.3 1.2,-1.95 2.55,-1.95 c 0.79,1.19 -1.84,1.48 -2.55,1.95 Z"/></g>
<g><path fill="#4b5a7b" fill-opacity="0.275" stroke="#4b5a7b" stroke-width="0.5" stroke-opacity="0.275" d="M 201.14,442.73 c -0.34,0.88 -2.11,3.3 -3.05,1.98 c 0.68,-1.14 1.69,-1.8 3.05,-1.98 Z"/></g>
<g><path fill="#444d66" fill-opacity="0.118" stroke="#444d66" stroke-width="0.5" stroke-opacity="0.118" d="M 144.97,370.1 c -0.13,0.49 -0.39,0.61 -0.79,0.36 c 0.18,-0.3 0.44,-0.42 0.79,-0.36 Z"/></g>
</svg>
