<svg xmlns="http://www.w3.org/2000/svg" style="shape-rendering:geometricPrecision;text-rendering:geometricPrecision;image-rendering:optimizeQuality;fill-rule:evenodd;clip-rule:evenodd" viewBox="0 0 512 512"><path fill="#f9ac9a" stroke="#f9ac9a" stroke-width=".5" d="M187.8 38.7c3.6.4 5.8 5.3 7.3 8.1-4.2.4-17.2 12.4-22.1 14.8q-1.2.8-.2 2c-1.7 2-3 0-4.8 1.4-.6-5.2.4-10 1.2-15.2 3.3-.3 14-7.7 17.8-9.5q.8-.6.8-1.6Z"/><path fill="#f3f9fc" stroke="#f3f9fc" stroke-width=".5" d="M489.8 77.7c2.1 1.6 3.1 7.9 3.2 10.5-3.3 2.2-15 11-18.8 10q-1.5-5.2-2.2-10.4c5-2.1 13-7 17.8-10.2Z"/><path fill="#f9ac9a" fill-opacity=".4" d="M137.2 5.1q-.3.9-1.2.9.2-.9 1.2-.9m52.8 85q.6-2 2.6-2.1c1.4 1.2-2 1.7-2.6 2m35 5c-.5 1.5-3.4 3-5 3 0-1.3 3.8-3.3 5-3M84 124l1 .2q-.5.6-1.3 1zm34.9 42.2 1.2-.4q-.3 1.3-1.5 1.1zm78.2 41.6c-.6 1.9-3.4 2.8-5.1 3.2 0-1.6 3.7-3 5.1-3.2M100 274.9q1.5-.9 0 0m-2 1.2c-.6 1.6-3.4 2.8-5 3.1.5-1.7 3.3-3 5-3.1"/><path fill="#bd7d75" fill-opacity=".1" stroke="#bd7d75" stroke-opacity=".1" stroke-width=".5" d="m241.8 206.2-.1 2.6-13.3 7.3-.4-1z"/><path fill="#f9ac9a" fill-opacity=".3" d="M26 150.6v1.6c-.4.4-1.2 1.7-1.8 1.1a4 4 0 0 1 1.7-2.7m70 4.4q-.6 1.3-2 1 .6-1.2 2-1m79 38.8q-.8 2-3 2.2.9-2 3-2.2m-59 56.3a4 4 0 0 1-3.2 2.1q1-2 3.2-2.1M57 273a3 3 0 0 1-2.8 1.8q.6-2 2.8-1.8m96 69q-.9 2-3 1.9a5 5 0 0 1 3-2m25.2 20 .7.1q0 1-1.2.9z"/><path fill="#f5f9fd" fill-opacity=".2" d="M366 145c-.5 1.5-7 5.9-8.3 5.8-2.5-1.4 7-5.6 8.2-5.8m107 3v1.2a8 8 0 0 1-5 2.8c.1-1.3 3.9-3.2 5-4"/><path fill="#eea896" fill-opacity=".3" d="M99 166c-1 1.8-10.7 7.3-13 9q-.1-1-1.1-1l.2-1h1.2q5.6-3.5 11.4-6.8z"/><path fill="#e39a89" fill-opacity=".2" stroke="#e39a89" stroke-opacity=".2" stroke-width=".5" d="M236.8 87.2q.3.6.1 1.4c-2 1.3-9.7 6.5-11.8 6.4q0-.8.9-1.4l8-5.2z"/><path fill="#b37f74" fill-opacity=".1" stroke="#b37f74" stroke-opacity=".1" stroke-width=".5" d="M241.7 193.2v2.5l-8.6 5a3 3 0 0 1-2 .2l.8-1.3z"/><path fill="#8f9293" fill-opacity=".1" d="M320 131.3q.5 0 .7.4l-8.6 6q-1 .5-2.1 0-.6.2-.6-.3l.8-1.1 8.1-4.6q.9-.6 1.7-.4"/><path fill="#f2f8fb" stroke="#f2f8fb" stroke-width=".5" d="m472 46 1-.2c2 1.6 4.4 4.8 5.1 7.2q-7.3 4.5-14.5 9.2-1.1 1 .4 1.7-1.7 1.2-3.5 2.1-4-4.6-8.6-8.7c1.2-.6 3.7-1.2 4.1-2.6 1.7 0 5.1-2.6 6.5-3.6q5-2.4 9.6-5.1Zm-145 81.8q.6.2 1 .8c.3 2.9 3.5 8 2.3 10.5l-.9 1q-.9-1.8-1.6.1c-1.8-.8-5.8 2.6-7.3 3.6-1.6 1-6 2.3-6.6 4.2a18 18 0 0 1-3.8-10.2q1 .4 2 0 4.6-3 8.7-6.1l-.7-.4c.5-2 3-3 4.6-1.7z"/><path fill="#f2fafd" fill-opacity=".2" d="M345 172q-.4.8-1 1.3l-8.7 5.8q-.5-1.1-1.7-1.1l9.4-5.5q1-.5 2-.4"/><path fill="#f9ac9b" fill-opacity=".3" d="M90 146.1c-.5.8-2.1 2.8-3 1.6a3 3 0 0 1 3-1.6m45 12a2 2 0 0 1-2 1q.6-1.5 2-1m92.7 44 .2 1a8 8 0 0 1-5 2.8c.8-1.6 3.4-2.6 4.8-3.7M209.9 241q-.5 1.5-2 1 .7-1 2-1"/><path fill="#e09c8c" fill-opacity=".9" d="m137.2 5.1 1-.1 2.7.2q1.4.2 2.3 1.6l-8 .3v-.9l.8-.2q.9 0 1.2-.9m-3 2h1a3 3 0 0 1-2.4 1q.3-1 1.3-1"/><path fill="#d69a8c" fill-opacity=".2" d="M195.7 305.3q0 1 1 1.3l-6.7 4a3 3 0 0 1-2 .2c.6-1.4 6.1-4.5 7.7-5.5"/><path fill="#b78c8c" d="M225 364.8q1.5 0 2.1 1.2-4 2.2-8.3 4.1c1.4-2.4 4.2-3.4 6.1-5.3"/><path fill="#cdd0d3" fill-opacity=".2" d="M327.9 77.2q-.9 1.9-3 2.4.3-.9-.6-1.2 1.5-1.4 3.6-1.2m29 14.9a4 4 0 0 1-3 2.6q.4-1-.6-1.3 1.5-1.5 3.6-1.3"/><path fill="#c2897c" fill-opacity=".7" d="M83.1 37.2q-.3.6-1 1 0-1 1-1m-1 1q-.7.4-1.4.4zm-1.4.4q0 .7-.3 1.3-2.4 2.4-4.1 5.4c-1-3.7 1.6-5.2 4.4-6.6"/><path fill="#cb8e80" fill-opacity=".9" d="m20.3 143 .7.1q2.3.5 4.4-.2l1 .5-7 1.6q-.9 0-1.7-.3l1.3-.7q.9 0 1.3-1m-2.6 1.7q-.3 1.5-2 1 .9-.8 2-1"/><path fill="#f9ac9a" fill-opacity=".5" d="m171.2 45.1 1 .1q-.5.8-1.4.8 0-.4.4-.9M25.4 143q-2.2.7-4.4.2 0-1.2 1.4-1.2c1 0 2.7-.2 3 1m192.7 66c-.2.7-1.4 1.6-2 .6q.8-.9 2-.6M59 272q.3-2.4 2.6-2.2c1.5.9-2 1.9-2.6 2.1"/><path fill="#f9ac9a" fill-opacity=".2" d="m140.9 5.2-2.7-.3c-.7-1.3 3.3-1.5 2.7.3m-5.7 1v1h-1q0-1.2 1-1M105 113.1q-1 2-3.2 2 1-2.1 3.2-2m-84.7 30q-.4.7-1.3 1 .3-1 1.3-1m17.8 104.2.8-.4q-.2.9-1.1 1.2z"/><path fill="#df9889" fill-opacity=".2" d="M117.9 202.2c-.6 1.5-3.2 2.6-4.5 3.6a3 3 0 0 0-1.5-1c1.9-.5 4-3.3 6-2.7"/><path fill="#4d5c7a" fill-opacity=".8" d="M215.7 506q3.3-.6 6.4.3c.1 1.2-5.8 1.7-6.4-.2"/><path fill="#d4dbde" fill-opacity=".1" d="M350.6 36q-.3 1.5 1 1.7c-.6.3-3.7 2.9-4.5 2a16 16 0 0 1 3.5-3.7"/><path fill="#df9b8c" fill-opacity=".7" d="M184.4 31q-3.3 1-6.7 1c.4-1.7 6-3 6.7-1"/><path fill="#a4a8a9" fill-opacity=".1" d="M403.3 35.9q1 .3 1.7 1l-3.2 2-1.5-.1q0-.5.2-.8 1.5-.8 2.8-2.1"/><path fill="#eca798" fill-opacity=".9" d="m178.9 360 3.4-.1q-.7.6-1.5 1l-1.1.8-.8.4h-.7q-.1-1.2.7-2.2m-.7 2-.5 1h-.8q.3-.9 1.3-1"/><path fill="#d0937c" fill-opacity=".1" d="M100.9 84a6 6 0 0 1-2.6 3q0-1.2-1.1-1.5 1.5-1.5 3.6-1.4"/><path fill="#f8ae9b" fill-opacity=".2" d="m228 215 .4 1.1q-1 1-2.4.8.5-1.2 2-1.9m-128 73.1q-.7 1.1-1.8 1.9l-.4-1.2q.9-1.1 2.2-.7"/><path fill="#997d80" fill-opacity=".1" stroke="#997d80" stroke-opacity=".1" stroke-width=".5" d="M153.6 363.2a3 3 0 0 1-.8 2.9h-.6l-1.1-.2c0-1 1.8-2 2.5-2.7Z"/><path fill="#eaa696" fill-opacity=".8" d="M157.9 361.3a12 12 0 0 1 4-.4 75 75 0 0 1-6.8 4.6q-1.2.6-2.3.6a3 3 0 0 0 .8-2.9l1.4-.5q.8.2.8-.6l1.5-.2z"/><path fill="#f3f9fd" fill-opacity=".4" d="m326.3 113.8-.3 1.2h-.8q0-1 1-1.2m118.4 36.5q.8-2 3-2.3c1.4 1.2-2.3 2-3 2.3"/><path fill="#c8897a" fill-opacity=".2" d="M145 311.2a3 3 0 0 1-3.1 1.7l-.6.5c0-1.7 2.2-2.6 3.6-2.2"/><path fill="#5a657b" fill-opacity=".1" stroke="#5a657b" stroke-opacity=".1" stroke-width=".5" d="M230 453.7q1.5-.1 1.2 1.4-1.5.8-3.1.9.4-1.5 1.8-2.3Z"/><path fill="#797e7e" fill-opacity=".1" d="M474.4 147q1 .1 1.6 1-1.4.8-3 1.2V148z"/><path fill="#6e7687" fill-opacity=".2" stroke="#6e7687" stroke-opacity=".2" stroke-width=".5" d="M354.7 194.3q.7.8 1.2 2-1.5-.3-3-1 .7-1 1.8-1Z"/><path fill="#c48b7d" fill-opacity=".7" d="m243.8 73 1.7.6q-1 .2-1.7-.5m1.7.6.8 1q-1.2.3-.8-1m.8 1 .9 2.1c-1.3.4-1.3-1.3-.9-2"/><path fill="#696b6d" fill-opacity=".3" d="M495 98a2 2 0 0 1 1 2q-1.1-.7-2-1.6z"/><path fill="#fbab9f" fill-opacity=".2" d="M231.1 201q-.6 1.2-2 2v-1.2q.6-1 2-.9"/><path fill="#f3f8fe" fill-opacity=".2" d="m455.8 96 .2 1.3q-.7 1-2 .8.5-1.5 1.8-2"/><path fill="#f8ad99" fill-opacity=".3" d="m220.4 66-.5.8-.7.3q0-1 1.1-1m2.5 140q-.4 1.3-1.9 1 .6-1.2 2-1"/><path fill="#a07f80" fill-opacity=".1" stroke="#a07f80" stroke-opacity=".1" stroke-width=".5" d="M124.1 361.3q.8-.2 1.6 0-.4.8-1.3.4z"/><path fill="#dbe1e3" fill-opacity=".5" stroke="#dbe1e3" stroke-opacity=".5" stroke-width=".5" d="M305 66.2a2 2 0 0 1-.8 2c-.1-.6-.6-2.3.7-2Z"/><path fill="#f3f9ff" fill-opacity=".2" stroke="#f3f9ff" stroke-opacity=".2" stroke-width=".5" d="m496.2 102-.2 1.1h-1q.3-1 1.2-1.1Zm-2 35q0 .4-.4 1h-.7q.3-.8 1.2-1Z"/><path fill="#e1e7ea" fill-opacity=".7" stroke="#e1e7ea" stroke-opacity=".7" stroke-width=".5" d="M306.4 64q0 1.5-1.5 2.2-.4-2 1.5-2.2Z"/><path fill="#b68276" fill-opacity=".9" d="M218.8 76v.7l-.9.2q.2-.7.9-1m-.9.9-.1.8-1 .2z"/><path fill="#b3b7ba" fill-opacity=".6" stroke="#b3b7ba" stroke-opacity=".6" stroke-width=".5" d="M331.3 31q-.6.9-1.6.7.7-.6 1.6-.6Zm-1.6.7q.2 1-.6 1.6 0-1 .6-1.6Z"/><path fill="#eda694" fill-opacity=".2" stroke="#eda694" stroke-opacity=".2" stroke-width=".5" d="m218 67.2.1.6-1.1.4q0-1 1-1Z"/><path fill="#afb1b3" fill-opacity=".4" stroke="#afb1b3" stroke-opacity=".4" stroke-width=".5" d="M307.2 63q-.2.6-.8 1-.1-1 .8-1Z"/><path fill="#b37c73" fill-opacity=".3" stroke="#b37c73" stroke-opacity=".3" stroke-width=".5" d="M90.2 33.2q-.3.9-1.2 1 0-1.2 1.2-1Z"/><path fill="#cbd2d2" fill-opacity=".3" stroke="#cbd2d2" stroke-opacity=".3" stroke-width=".5" d="m472.4 44.6.6 1.2-1 .2z"/><path fill="#86625b" fill-opacity=".4" d="M177.2 32q-.3 1-1.3 1.3 0-1.2 1.3-1.2"/><path fill="#d89387" fill-opacity=".3" stroke="#d89387" stroke-opacity=".3" stroke-width=".5" d="m156.7 361.4 1.2-.1-.6.6z"/><path fill="#f8ad9a" fill-opacity=".3" stroke="#f8ad9a" stroke-opacity=".3" stroke-width=".5" d="m223.2 344.8-.4 1.1-.8.1q.3-.9 1.2-1.2Z"/><path fill="#faad99" fill-opacity=".2" d="M180.8 360.9q0 1-1.1.8z"/><path fill="#999c9e" fill-opacity=".4" stroke="#999c9e" stroke-opacity=".4" stroke-width=".5" d="m332.4 30-1 1q-.2-1 1-1Z"/><path fill="#dea095" fill-opacity=".6" d="M177 363q-.1 1-1.3 1a2 2 0 0 1 1.2-1"/><path fill="#cbd0d3" fill-opacity=".8" stroke="#cbd0d3" stroke-opacity=".8" stroke-width=".5" d="m365.3 23-1 1q0-1 1-1Z"/><path fill="#f0f7ff" fill-opacity=".1" d="m383.2 19.6-1 .5q0-1.1 1-.5"/><path fill="#e2a293" fill-opacity=".4" stroke="#e2a293" stroke-opacity=".4" stroke-width=".5" d="M151 366h1.2q-.3 1-1.3 1.2z"/><path fill="#f9aa99" fill-opacity=".2" d="m241.4 223-.3.9-1 .2q.1-1.2 1.3-1.1"/><path fill="#d9dce0" fill-opacity=".3" stroke="#d9dce0" stroke-opacity=".3" stroke-width=".5" d="m466 74.3 1-.3q-.3.8-1 1.3z"/><path fill="#c29090" fill-opacity=".5" d="M232.4 374q-.5.9-1.6 1.2.3-1.2 1.6-1.3"/><path fill="#7c7283" fill-opacity=".4" d="M229.1 375.8q-.2 1.2-1.4 1.2.6-.7 1.4-1.2"/><path fill="#f5fafa" fill-opacity=".2" d="m411.2 47 .9-.1q-.2 1-1.4.8z"/><path fill="#f9ac99" fill-opacity=".2" stroke="#f9ac99" stroke-opacity=".2" stroke-width=".5" d="m218 76.9.8-.2q.2 1.2-1 1z"/><path fill="#f3fafb" fill-opacity=".6" d="M428.1 18h1.2q-.4 1-1.5 1z"/><path fill="#faab99" fill-opacity=".6" d="M196 49.7v1.2l-1.1-.1q.2-1 1-1.1"/><path fill="#bc8273" fill-opacity=".2" stroke="#bc8273" stroke-opacity=".2" stroke-width=".5" d="M247.2 76.7q.5.7.2 1.5-.2-.7-.2-1.5Z"/><path fill="#babebe" fill-opacity=".2" stroke="#babebe" stroke-opacity=".2" stroke-width=".5" d="m336.8 149 .1.8-.7.2z"/><path fill="#bdc5c5" fill-opacity=".3" stroke="#bdc5c5" stroke-opacity=".3" stroke-width=".5" d="m298.1 84.8-.2 1.4h-.6q-.1-1 .8-1.4Z"/><path fill="#eaa593" fill-opacity=".3" stroke="#eaa593" stroke-opacity=".3" stroke-width=".5" d="m237 283-.3 1h-.5q0-.8.9-1Z"/><path fill="#dd9a8b" fill-opacity=".3" stroke="#dd9a8b" stroke-opacity=".3" stroke-width=".5" d="m242 137.6-.2 1.3-.8.1q.3-.8 1-1.4Z"/><path fill="#f1fafa" fill-opacity=".2" stroke="#f1fafa" stroke-opacity=".2" stroke-width=".5" d="m408 15.3 1-.5q0 1-1.3 1.1z"/><path fill="#efa794" fill-opacity=".4" stroke="#efa794" stroke-opacity=".4" stroke-width=".5" d="m44.1 262.1 1 .2q-.4.6-1 1z"/><path fill="#f1f7fa" fill-opacity=".6" stroke="#f1f7fa" stroke-opacity=".6" stroke-width=".5" d="m309.3 135.9.9.4-.8 1z"/><path fill="#dee4e7" fill-opacity=".5" stroke="#dee4e7" stroke-opacity=".5" stroke-width=".5" d="m330 92.8-.3 1.2-1-.3a2 2 0 0 1 1.3-.9Z"/><path fill="#f1f7f9" fill-opacity=".4" stroke="#f1f7f9" stroke-opacity=".4" stroke-width=".5" d="m497.2 120-.5 1-.8-.3q.4-.8 1.3-.8Z"/><path fill="#6e534e" fill-opacity=".8" d="M217 68.2q-.4.6-1.2.3.5-.3 1.2-.3"/><path fill="#8d6762" fill-opacity=".2" stroke="#8d6762" stroke-opacity=".2" stroke-width=".5" d="m121.4 14.1-1.5 1.2q.5-1 1.5-1.2Z"/><path fill="#f9ac9a" stroke="#f9ac9a" stroke-width=".5" d="m142.4 12-5 6.4q.3.3.8 0c1.6-1 6.3-2.7 6.9-4.4q6.3 7 8.7 16l-28.9 16.3c-.1-9.4 1-40.9 17.4-34.2Zm-42 19.9q-.4.6-1 .6l-8.7.5q.2-.5.7-.7c3.2-1.1 6-3.6 9-.4Zm-1 6-4.9 7c-.2.7-1 1.4-.1 2 3.6-2 6.8-3.1 9.5-6.3a78 78 0 0 1 8.6 20.3l-6.7 7.4-1.5 2.2q.8.6 1.7 0 3.7-2 7-4.3.9.4.9 1.4c3.4 28.7-3 57.8-1.5 86.7.7 6.5-.1 9.2 6.6 12l-.3.6-31.3 18q-1.6 1-3 2.3l.4-12.2H86c2.2-1.7 12-7.2 12.8-9 1 .5 4.1-1 2.6-1.8a3 3 0 0 0-2.6 1.8l-1.2.2-11.4 6.7q-.6.2-1.2.1c0-15.3-1-30.7-1.3-46q1.2.4 2.3-.2c2.3-1.7 15.3-10 15.7-11.8q2.3 0 3.2-2 1.5.4 2-1c.5-.2 4-1.2 2.5-2.1q-1.8.4-2.5 2-1.4 0-2 1.2-2.3-.2-3.2 2c-2.4-.1-14 7.5-16.6 9.1L84 124q-1-5.1-.8-10.2 10.8-7 21.4-14.6l2.2-2c.7-.4 3.9-1 2.7-2.2q-2 .4-2.7 2.2c-2.2.1-20.4 11-23.7 13.1L82.7 98c2.6.2 12.6-9.3 15.6-11q1.8-1 2.5-2.8c.9 0 4-1 2.7-2.1q-1.8.3-2.7 2-2.1 0-3.6 1.5l-14.4 8.3q-.7-.4-.6-1.3L82 79.7c2 .2 8.9-8.6 10.7-10.2-1.5-.8-2 .9-3 1.4A82 82 0 0 0 82 75c-.4-10-.6-42.5 17.4-37.1Zm85.9-.9c-2.2 2.4-10 6-13 8.2h-1.1c1.6-7.6 7.4-8.4 14-8.2Zm-29.1 4.7q1.1 5.7 1 11.5c-2-.3-19 13.9-21.7 16q-1.4.5-2.6 1.2-1.4 1.2.4 1.1c6-5.7 18.3-8.7 24.4-14.6 1 33.9-4.2 67.5-2.3 101.4q.3 7.4 8 6.5c4-2.2 4.5-7.4 5.3-11.5 2-24.4-1-50.5-1.2-75A76 76 0 0 1 168 65c1.7-1.4 3 .5 4.8-1.5l22-12.7h1.1c1.5 1.3 2.1 7.5 2.2 9.4l-1.7.7q-9 6.4-18.4 12.6-1 .4-.8 1.4c-2 0-3.9 1.4-5.1 2.8.6 1.3 4.6-1.8 5.1-2.8 6.6-2.7 15.1-8.3 21.4-12 2.1 26.6-1.2 54.6-1 81.4q0 8 1.7 15.7-1.2-.2-2.4.3l-28.4 18.8q-.8.7-1.3 1.6c-1.1.6-3.4.3-3 2.2-2 0-4 1.4-5.2 2.8 1 1.3 4.5-1.7 5.2-2.8 3.4-.1 30.5-17.3 35.6-20.2 3.7 3 6.4 2.2 10-.3 1.5-.8 1-5.2 1.2-6.7 1.9.4 26.3-14.5 30-16.7q.5 0 .8-.2.3 5.7.3 11.3-1.1-.3-2.2.2a5186 5186 0 0 0-61.7 41.4c-1 .8-3.1.4-3.1 2.1q-2.2.1-3 2.2a2 2 0 0 0-2.2.7c.7 1 1.9 0 2.1-.7q2.2-.3 3-2.2l2-.2c21.3-13 43.4-25.3 65.1-37.8v22.4a3 3 0 0 0-1.8.5l-38.7 25.5-1.4 1.5c-1 .7-3.4.4-3 2-1.4.3-5 1.7-5.1 3.4q-2.2-.3-3.1 1.5c1 .8 2.6-.6 3-1.5 1.8-.5 4.6-1.4 5.2-3.3l1.8-.2q21.4-12.8 43.1-24.9c0 3.1.4 7.6-.4 10.5l-9.8 6.4-.8 1.3q-1.4-.2-2 1-.8 0-1.4.3c-1.5 1-4 2-4.8 3.7q-1.3 0-1.9 1.1-2.2 0-3 2-1.1-.2-1.8.7c.5 1 1.7.1 1.9-.6q2-.3 3-2.1 1.4.3 1.8-1a8 8 0 0 0 5-2.8l1.3-.3q1.3-.6 1.9-2a3 3 0 0 0 2-.3l8.6-4.9q.6 5.3.1 10.5-7 4.3-13.8 8.8-1.4.6-2 2-2.3 0-3 2-1.4-.2-2 1c-1 .2-2.7.4-3 1.7 1.1 1 2.4-.9 3-1.6a2 2 0 0 0 2-1q2.1-.3 3-2.2 1.5.3 2.4-.8l13.3-7.3q.3 5.1 0 10.3-13.8 9.4-27.8 18.5-.8.4-.8 1.3-2.3 0-3.2 2-1.3 0-2 1c-.8.6-2.7.6-2.9 1.8 1 1.3 2.7-.7 3-1.8q1.5.5 1.9-1a3 3 0 0 0 3.2-2q1.5 0 2.6-.6l24.4-14.2 1-.2c.9 1-.2 29.6-.2 33.4q-1-.7-2 0c-15 10.4-30.8 20.5-45.4 31.6q-3.2 1.2-5.2 3.8c-1.2.7-3.3.3-3.2 2.2q-2.2-.2-3 1.7c1.1.8 2.5-.8 3-1.7l2-.3q27-16 54.1-31.6-.4 6.8-2.2 13.2a3 3 0 0 0-2 .5l-41.3 28.6c-1.6 1-7 4-7.7 5.5q-2.1.3-3 2.2-1.1 0-2.1.4-2 1.6.5 1.3 1-.6 1.6-1.7 2.3 0 3-2.2a3 3 0 0 0 2-.2l6.7-4 39.5-22.6h.5q-2.2 7.7-4.7 15.4-.5-.6-1.4-.5-11.3 7.7-22.4 15.8c-.9.9-2.9.7-3 2.1-.6.5-4.2 1.2-2.9 2.3q2-.4 2.8-2.3c2.7-.3 21.7-12 25.7-14q-2.6 7.7-4.8 15.5c-1.7.2-26 20.2-27 21.6q-1.8.2-2.7 1.7c.7 1.3 2.5-1 2.8-1.7 4.1-1 20.4-11.5 25.3-13.9q-1.5 7.5-1.4 15.3-1 0-1.7.6l-10 9.5q.4.4 1 .2l9.7-5.6h.8l1.1 7.6q.3 1.3-.6 2.1-10.6.3-21.3 0c-1.4-2.9-5.9.4-6.4-1.5q.2-.6-.3-1c-2 .3-2.7 2.2-5.1 2.3l-12 .3a4 4 0 0 0-2.9-1.3 4 4 0 0 0-3.3 1.2l-7.3.1q9.6-7.5 19-15.2-1.8-.5-2.5 1-12.4 6.5-24.4 14c-5.4-2.2-14 1-20.3.1q-1 .3-1.4-.7a33 33 0 0 0 6-4.5c1.4-.9 5.3-2.6 5.8-4.4q2.4 0 3-2.2 2.3.2 3-2c.6.3 3-.2 1.7-1q-1.3 0-1.7 1a5 5 0 0 0-3 2q-2.1.2-3 2.2a100 100 0 0 0-17 9.3c-5.3.9-8.2-2-13.7.2h-9.3l37.3-25q.7-.6.6-1.5c1 .1 5.8-2.1 4.7-3.1-1.3-.1-4 1.9-4.7 3-4.5 1.5-8.2 5-12.5 6.8-4.5 3-31.7 17.6-33.2 19.8l-5.6.3q-2.2 0-1.7-2.4.3-3.3 1.2-6.7 1 .2 1.7-.4l46.3-32q.6-.6.9-1.5 2.1.3 3-1.7 2.3-.1 3-2.2c.5.2 2.7-.3 1.6-1a2 2 0 0 0-1.6 1q-2.2 0-3 2.2c-1.4-.4-3.7.5-3.6 2.2q-1-.3-2 .2l-46 26.6a67 67 0 0 0-5.5-29.3q1 0 2-.5 15.8-10.7 31.8-21.2l2.3-2q2.1-.4 3-2.3c.5.3 2.8-.2 1.6-1q-1 .2-1.6 1-2.2.3-3 2.3c-2-.3-33.2 18.5-37.7 21.2l-6.5-7.2a7 7 0 0 0 2.3-.8q6.7-5 14-9.1.6-.4.8-1.2l1.5-.1q1-.8 1.8-1.9 2.1-.1 3-2 1.3 0 1.9-1c1-.7 2.5-.5 3-1.7-1-1.2-2.7.6-3 1.6q-1.5-.2-2 1-2.3 0-2.9 2.1-1.5-.4-2.2.7l-1.1.5q-8.2 5.1-16.5 9.3-1 .6-1.3 1.5c-1.4-1.2-6.7-5.7-7.1-7.1q.9-.1 1.8-.7 4.6-3 8.7-6.2l9.7-5.6q.8-.3.8-1.3c1.6-.3 4.4-1.5 5-3.1.7 0 2.2 0 2-1.2q1.5-.9 0 0-1.4-.1-2 1.2c-1.7.1-4.5 1.4-5 3.1-1.5-.1-3.6 1.6-4.7 2.5l-2.2.9q-4.3 2.4-8.5 5.3c-1.5.6-6.4 2.4-6.4 4.2-2.2-.8-6.3-5.3-8.5-6.9 6.2-2.6 28-18.2 35.5-22.7a132 132 0 0 1 14-9q.8-.4.7-1.3a4 4 0 0 0 3.2-2.1c.5.1 2.8-.4 1.5-1.2q-1.2 0-1.5 1.2-2.2 0-3.2 2.1c-1.1-.4-11.8 6.8-13.8 7.3l-39 22.8c-1.5-1.5-6.4-5-5.8-7.5q2 0 2.8-1.8 1.4.3 2-1c.5-.2 4.1-1.2 2.6-2q-2.3-.3-2.6 2-1.5-.5-2 1-2.2 0-2.8 1.8a2 2 0 0 1-1.4 0 92 92 0 0 1-6.1-7.6q1.2.1 2.4-.4l59.5-39.7 7.5-4.5q1-.5.8-1.5c.8 0 2.2 0 2-1.2.7-.2 4-.8 2.7-2q-2.1 0-2.7 2-1.4 0-2 1.2-.7 0-1.3.2-35.2 20.3-70.5 41l-1-.2c-1.7-1-3.8-6-4.5-8a7 7 0 0 0 2.4-.8l71.4-47.5c1.3-1 3.9-2.1 4.5-3.6 1.4-.2 4.6-1.8 5.1-3.2.5-.4 4.3-1 2.6-2q-2 0-2.6 2c-1.7-.3-4.4 1.7-5.1 3.2-2-.7-4.1 2.1-6 2.5Q75.5 226 39 247l-.8.4c-1.5-.8-3-9-4-11 2.1-.3 5.9-5 7.3-6.7-1-.8-3.9 1.7-5 2a7 7 0 0 0-3 2.6q-2-6-3.7-12 5.1-5.2 9.7-10.6-1-.3-2 .3l-9.4 5.4q-3.3-10-6-20.3c2 0 6.1-5.9 7.5-7.4-1.2-.7-2.9 1-4 1.4q-2.6 1-4.3 3.3c-.4-2.7-3.1-11.3-1.9-13.4q3-2.5-.7-1.2-.6-.3-.7-1c-1.2-8-4.6-27.3 7-29.2q.8-.2 1.5.4l-.5.7a4 4 0 0 0-1.8 2.7c.7.6 1.5-.7 2-1s3.2-1 2.5-2c5.8-.5 16 10.7 18.5 15.7-1.7.6-3.5 3-4.6 4.3q.7.6 1.4 0 2.4-1 4.5-2.6c1.6 3.2 4 7 4.7 10.4q-1 .3-1.6.9a134 134 0 0 1-8.3 8.4q.9.6 1.8 0c2.7-2.3 7.8-3.8 9.6-6.6q3.9 10 7.2 20.4c-2 .8-5.7 5.8-7.6 7.5l-2 3q.8.5 1.8-.1l10-5.9c1 3.5 3.7 7 4.2 10.5q-.9.3-1.6 1l-6.6 6.3q-.7.5-.7 1.4-1.5 1.2 0 0 5.8-2.2 10.8-6.2c11.3 7.2 13.5-21.2 14-27q1 .4 2-.2 17.5-12 35.1-23.8 1.1-.9.8-2.4c4-6 4.2-14 4.7-21 .6-28.3-2-56.7-2.1-85.2 5.3-1.5 25-14.2 31.6-17.4Zm72.1 29.6c-1.4.9-8.4 5.5-9.5 5.4v-.8q2.3-3.4 6.2-5.4c1-.5 3.1-.8 3.3.8Zm5.4 6.5c1.9.5 3.3 7.6 3 9.4l-2.7 1.2-8 5.2q-.8.5-.9 1.3c-1.2-.2-5 1.8-5 3q-1.2.1-2.2.6-2.1 1.5.4 1.3 1.3-.5 1.8-1.8c1.6 0 4.5-1.5 5-3 2 0 9.8-5.1 11.8-6.4 1.5 1.4 2 8.3 2.3 10.5-2.7 0-24.2 15.5-28.1 18.1l-.3-27.3q1.3.7 2.5-.1zM190 90q-1.5-.3-2 1a1 1 0 0 0-.9.4q.6.3 1-.4 1.3.3 1.9-1c.6-.3 4-.8 2.6-2q-2 .1-2.6 2Zm-4 15c-1 .2-2.7.4-3 1.7 1 1 2.6-.8 3-1.7 1.5.3 9.2-4 7.6-5.1a20 20 0 0 0-7.6 5.1Zm53.8-1.3q1.3 13.7 1.9 27.4c-6 2.8-24 15.8-30.8 20l.2-31.3c3.8-1 23.6-13.3 28.7-16ZM187 134.1q-1.1-.3-1.9.6c.6.9 1.8.1 2-.6.6-.4 3.8-1 2.5-2.1q-2 .2-2.6 2Zm-97 12a3 3 0 0 0-3 1.6c.9 1.2 2.6-.8 3-1.6.6.1 2.7-.4 1.5-1.2q-1 .2-1.4 1.2Zm6 9q-1.5-.5-2 1-2.1 0-3 1.6c.7 1.3 2.7-.7 3-1.7q1.4.3 2-1c.5-.2 4.1-1.2 2.6-2q-1.7.3-2.6 2Zm39 3q-1.4-.5-2 1a3 3 0 0 0-3 1.6c.8 1.3 2.6-.7 3-1.6a2 2 0 0 0 2-1c.6-.3 4-1.2 2.6-2.1a3 3 0 0 0-2.5 2Zm-98 .9c.4 0 1.7-.5.7-1q-.6.3-.7 1Zm200.9 10.3c.5-.2 3-.7 1.7-1.5q-1.5 0-1.7 1.5ZM203 360q5.6-.3 11 1.2c-4.7 2.8-12.3 8.2-17.4 9.1-4.6 3.1-10.3 6.9-15.4 9.4h-1.9l21.8-17.1a5 5 0 0 0 2-2.6Zm-105 .9 9.1.3q-9.6 6.2-19.8 11.8-.7.2-1-.4l2-4.9q1 0 1.8-.2c1.5-1.5 8.2-4.5 7.9-6.6Zm27.7.3q3.6-.6 7 .3c-4.6 1-8.3 6.7-11 10.1l-10.7 6q-1.2.3-1.7-1 5-5.5 10.3-10.4c1-1.5 4.7-2.8 4.8-4.5q.9.4 1.3-.5Z"/><path fill="#fbaa98" fill-opacity=".2" stroke="#fbaa98" stroke-opacity=".2" stroke-width=".5" d="M150 343.9q-.7 2.2-3.1 2.2a4 4 0 0 1 3-2.2Z"/><path fill="#faac99" fill-opacity=".2" d="M148 309q-.9 2-3 2.2.6-2.1 3-2.2"/><path fill="#f8ae99" fill-opacity=".4" d="M148 309q.5-1 1.5-1c1.2.7-1 1.2-1.6 1"/><path fill="#faac9b" fill-opacity=".4" d="M208 242c-.3 1-2 3-3 1.7.2-1.2 2-1.2 3-1.8"/><path fill="#fcab9c" fill-opacity=".2" stroke="#fcab9c" stroke-opacity=".2" stroke-width=".5" d="M213.1 238.9a3 3 0 0 1-3.2 2q1-2 3.2-2Z"/><path fill="#f9ac9a" fill-opacity=".4" d="M59.3 225q-1.5 1 0 0m56.7 25q.3-1.2 1.5-1.2c1.3.8-1 1.3-1.5 1.2m69 44.8c-.4.9-1.8 2.5-2.8 1.7q.8-2 2.9-1.7"/><path fill="#faab99" fill-opacity=".3" d="M119 220c.2 1-1.3 1.1-2 1.1q.5-1.4 2-1.2"/><path fill="#f7ac9a" fill-opacity=".3" d="M226 217q-.8 1.9-3 2 .8-2 3-2"/><path fill="#f7ad9a" fill-opacity=".3" d="M123 199c-.5 1.4-3.6 3-5.1 3.1.7-1.4 3.4-3.4 5.1-3.2m65 111.8q-.8 2.3-3 2.1.9-1.8 3-2"/><path fill="#f9ac9a" fill-opacity=".4" d="M172 196c-.2.8-1.4 1.6-2 .7a2 2 0 0 1 2-.7m49 11q-.8 1.9-3 2 .8-2 3-2m-102 13q.5-2 2.6-2c1.4 1.1-2 1.7-2.7 2m-19.1 55c.2 1-1.3 1-2 1q.5-1.2 2-1"/><path fill="#fca898" fill-opacity=".2" stroke="#fca898" stroke-opacity=".2" stroke-width=".5" d="M133 159c-.4 1-2.1 3-3 1.7a3 3 0 0 1 3-1.6Z"/><path fill="#f9ac9a" fill-opacity=".3" d="M36.9 159.1q0-.7.7-1c1 .5-.3 1-.7 1m186.1 60a2 2 0 0 1-2 1q.5-1.5 2-1"/><path fill="#f7ac99" fill-opacity=".2" d="M94 156c-.3 1-2.3 3-3 1.7a3 3 0 0 1 3-1.7m9 130q-.8 2-2.9 2.1.7-2.1 3-2"/><path fill="#faab9a" fill-opacity=".3" d="M107 112q-.5 1.4-2 1 .6-1.3 2-1m-2 173q-.6 1.2-2 1 .5-1.2 2-1"/><path fill="#fbab9c" fill-opacity=".3" d="M186 105c.5-1.2 6.4-5.2 7.6-5.1 1.6 1-6.1 5.3-7.6 5.1"/><path fill="#f9ac9a" fill-opacity=".5" d="M220 98q-.4 1.3-1.7 1.8-2.5.2-.4-1.3 1-.5 2.2-.5m-113 14a4 4 0 0 1 2.5-2.1c1.5 1-2 1.9-2.5 2m80 22c-.1.8-1.3 1.6-1.9.7q.8-.9 2-.6m-91 21a4 4 0 0 1 2.6-2c1.5.8-2 1.8-2.6 2m96 56c-.4 1-2 2.4-3 1.6q1-1.8 3-1.5M127 285q.7-.8 1.6-1c1.2.8-1.1 1.3-1.6 1m58.1 28q-.6 1.2-1.6 1.8-2.6.3-.6-1.3 1-.4 2.2-.4"/><path fill="#f9ac9a" fill-opacity=".4" d="M188 91q-.3.7-.9.4.4-.4 1-.4m-53 67a3 3 0 0 1 2.6-2c1.4.9-2 1.8-2.5 2m-36 8a3 3 0 0 1 2.5-1.8c1.6.8-1.5 2.3-2.6 1.8m138.8 3.4q.2-1.5 1.7-1.5c1.2.8-1.2 1.3-1.7 1.5M123 198.9q.6-2 2.6-2c1.7 1-2.1 1.7-2.6 2m98 21.2c-.5.7-1.9 2.6-3 1.6.3-1.3 2-1.5 3-1.6m-116 65c.3-1.1 2-2.9 3-1.7-.5 1.2-2 1-3 1.6"/><path fill="#f9ac9a" fill-opacity=".5" d="M190 90q-.6 1.3-2 1 .5-1.3 2-1m-4 15c-.4 1-2 2.7-3 1.7.3-1.3 2-1.5 3-1.7m19.1 211.8q-.8 1.9-2.7 2.3c-1.4-1 2.2-1.8 2.7-2.3M153 342q.4-1 1.7-1c1.3.8-1.1 1.3-1.7 1"/><path fill="#fbab99" fill-opacity=".2" d="M100.9 84a4 4 0 0 1 2.6-2c1.3 1.1-1.8 2.1-2.7 2"/><path fill="#f9ac9a" fill-opacity=".4" d="M177.2 74.9c-.5 1-4.5 4-5.1 2.8 1.2-1.4 3.1-2.8 5.1-2.8m-70.4 22.3q.8-2 2.7-2.2c1.2 1.1-2 1.8-2.7 2.2m80.2 36.9q.6-2 2.6-2.1c1.3 1.2-1.9 1.7-2.6 2m-97 12q.5-1 1.5-1.2c1.2.8-1 1.3-1.4 1.2m74.2 36.8c-.7 1-4.2 4.1-5.2 2.8 1.2-1.4 3.2-2.8 5.2-2.8M59 272q-.5 1.3-2 1 .5-1.5 2-1m67.9 12.9q-.9 1.9-3 2.3.9-2 3-2.3m18 44.2c.7-1.2 3.3-3.2 4.6-3.1 1.2 1-3.6 3.2-4.7 3m54.2 10.8c-.3.7-2.1 3-2.8 1.7q.9-1.5 2.8-1.7"/><path fill="#7f6e77" fill-opacity=".9" d="M195.6 354.2c.5 1.9 5-1.4 6.4 1.6q-3.3-.2-6.5.1c-2.4.4-1.1-1.5.1-1.7"/><path fill="#5e5d6e" d="M178.1 355.8H172a4 4 0 0 1 3.3-1.3q1.8 0 2.8 1.3"/><path fill="#262626" stroke="#262626" stroke-width=".5" d="M411 388.6a4 4 0 0 0-1.3 1.4c-2.4 4.6-9.6 13.4-11.6 17-1.2.2-5 4-5 5.4a141 141 0 0 1-48 27.7c-2.4-.2-11 3.2-14.4 3.3q-.6.3-.9.9c-2.7-.6-15 2.4-18.8 2.5q-2.3 0-4.4.3a295 295 0 0 1-60.1-1q-1.3-.1-1.2 1.1c-4.5 16 11 52.3-12.8 58-2.8.3-8 0-10.4 1.1q-3-1-6.4-.2c-6 0-15-.5-20.7.6l-3.5.2a44 44 0 0 0-16.1 0q-1.9-.3-3.8 0c-4.4-1.1-9.8-1-14.3 0q-1.7-.2-3.5-.2-6.2-1.6-12.5.2h-2.6a45 45 0 0 0-19.3 0h-2.8c-4.8-1.9-13-.6-18.4-.9q-1 0-1.4.9l-.8-.1h-3.3c-10.7-2.2-20.9 3-22.4-14.3-.9-13.5 2-26.6 1.6-40-.5-26.3-7.9-59.6 1.7-84.5q.3-.9.2-1.8c1.2-.7 3.6-5 3.1-6.4q.8-.9 1.9-1.5c3.3-17.2 1.9-41-11.2-54.3-23.2-21.5-40.3-35.4-48.2-68q-6.5-30.4-14.2-60.5c-3.5-14.1-5.7-23.8 10.6-29.7q1.5.3 2-1.1.7.3 1.6.3l7-1.6 10.1.7c19.6 4 26.5 25.3 33.1 41.7q1 2 1.5-.3.6-3 .8-6c1-25.8-2.6-52.1-3.7-78-.5-16-.5-42.3 8-56.2q1.8-3 4.2-5.4.4-.6.3-1.2.8 0 1.4-.5.7-.4 1-1 1.7-1.3 3.5-2.2 1 0 1.6-.8h.8q.9-.1 1.2-1l.5-.2 8.7-.5q.6 0 1-.6c.9 1 9.9 2.2 12 2.8q.7-.4.7-1.2 0-10.4 6.9-18.2l1.4-1.2c3.3-2.7 7.2-5.2 11.4-6a3 3 0 0 0 2.3-1l8.1-.3c18.2.1 25.7 12 25.8 28.7q.6.6 1.3.2c1.6-.7 3.9-2.5 5.6-2.4q.9-.3 1.3-1.2h.5q3.4-.3 6.7-1c22.2.7 28.4 19.2 27.7 38.3.8 1.2 2.8-.6 3.7-.9q.8.3 1.2-.3l1.1-.4q1.4.3 1.8-1a80 80 0 0 1 8.4-.8q9.4-.2 15.5 7 .7.8 1.7.6-.4 1.3.8 1c-.4.8-.4 2.5.9 2.1l.2 1.5 3 6.6q-.6 1.5.8 2.2a2 2 0 0 0 .7 2c10.7 49.4-1.2 105 .2 155.5l1.5 12c-.9 22.6-11.4 43.3-16.3 65.2-2 5.9-3.6 30.6-.1 34.6 16.7 8.5 4.5 35.4 7.9 50.1q1.4 1.2 3.2 1.1 5.3.7 10.7.5 4.6.7 9.3.7l10.5.5 1.2-.5c2.5.6 7.5.4 10.2.2 3.8 0 8.2.5 11.6-1.2 2.3 1 6.1.2 8.5 0 44.6-5 64.3-27 68.5-71.2.5-6.5 1.4-51.3-1.7-53-15-4.5-4-28-8.8-31.3-28.7.8-25.4-28.6-24.8-48.9l-.3-1.2c-40.7-25.7-59.4-66.1-46-113.9q.7-1 .7-2l.2-1.4a211 211 0 0 1 6.8-18.6q1.4-.7 1.5-2.2.5-.4.8-1 8.6-16.6 21.9-29.7.7-.6.6-1.6 1 0 1.6-.6l1-1C367.2-1.1 408.2-4.6 450 14.5c73 34.4 79.2 144.4 9.9 185.8q-.7.5-1 1.2v19c-.6 16.3-6 32.2-25.3 31.6l-.5.5q-.3 8-.1 15.9c-.1 6-2.4 10.6-8 13.1q-.5.6-.5 1.5 2 16 2.2 32.4c-.2 27.7-4.3 48-15.7 73.1ZM125 46.3a79 79 0 0 0-.4 12.8c0 28.4 2.8 56.9 2 85.2-.4 7-.7 15-4.6 21l-1.8.5-1.2.4c-6.7-2.7-6-5.4-6.6-11.9-1.5-29 4.9-58 1.5-86.7q0-1-.8-1.4.2-2.7-.6-5.3-2.8-10.8-8.5-20.3a8 8 0 0 0-4.7-2.7C81.3 32.5 81.5 65 82 75v4.7l.3 12.8q0 .9.6 1.3l.4 20q0 5.1.8 10.2l-.2 1.1v1.9c.3 15.4 1.4 30.7 1.3 46l-.2 1-.1 1a332 332 0 0 1-.8 16.8c-.3 5.7-2.6 34-14 26.9q-.3-1.7-1.8-2.5c-.5-3.5-3.2-7-4.2-10.5l-2.1-4.5q-3.4-10.4-7.3-20.4-.5-1.5-1.5-2.7c-.7-3.5-3.1-7.2-4.7-10.4l-1.3-1.7c-2.6-5-12.7-16.2-18.5-15.8q-1-.7-2.2-.3-.6-.7-1.6-.4c-11.5 1.9-8 21.3-7 29.2q.2.7.8 1 3.7-1.3.7 1.2c-1.2 2 1.5 10.7 1.9 13.4l.8 2.7a357 357 0 0 0 7.7 25.1 263 263 0 0 0 4.3 14.1c1.1 2 2.6 10.3 4.1 11.1q0 .4-.3.8.3 3.2 1.8 6c.7 2 2.9 7 4.5 8v1.2q1.5 1.8 2.6 4a92 92 0 0 0 6.1 7.5q.6.3 1.4 0c-.6 2.5 4.3 6 5.8 7.5l2.6 3c2.2 1.5 6.3 6 8.5 6.8q.2.6.8.8c.4 1.5 5.7 6 7.1 7.2l.7 1.1 6.5 7.2q0 1.8 1.6 2.5a67 67 0 0 1 5.5 29.3l-.3 6.6q-.9 3.4-1.2 6.7-.6 2.3 1.7 2.4 2.8 0 5.6-.3 3.9.4 7.8 0h9.3c5.5-2.3 8.4.6 13.7-.2q2.7.6 5.3-.4.3 1 1.3.7c6.2 1 14.9-2.3 20.3-.1a117 117 0 0 0 15.2.1 210 210 0 0 0 18.2-.2c2.4 0 3-2 5.1-2.3q.6.4.3 1c-1.3.2-2.5 2.1-.1 1.7q3.2-.4 6.5-.1h21.3q.9-1 .6-2.2l-1.1-7.7.4-1q-.3-1.8-.2-3.6a90 90 0 0 1 3-23l6-19 4.7-15.3.3-1q1.2-3.3 2-6.8 2-6.4 2.2-13.2l-.3-5.7c0-3.8 1-32.4.2-33.5l.3-.8.3-3.9q.3-5.1 0-10.4l.1-2.5a56 56 0 0 0-.1-13c.8-3 .3-7.4.4-10.5q.3-2.3 0-4.5a577 577 0 0 0 0-28.1q0-5.7-.3-11.3l.1-1.2-.2-6.5a491 491 0 0 0-2.5-32c-.3-2.2-.8-9.1-2.3-10.5q.3-.8-.2-1.4c.2-1.8-1.1-8.9-3-9.4.8-2-1.5-4.2-2.5-5.7q-1.2-1.5-2.9-.8c-.2-1.6-2.3-1.3-3.3-.8q-3.8 1.9-6.3 5.4-.5.3-.8 1l-1 1c-1.5 3.2-6.1 8.5-6 12a2262 2262 0 0 1 .1 65.8c-.3 1.5.3 6-1.2 6.7-3.6 2.5-6.3 3.2-10 .3q.3-1.5-.5-2.7-1.6-7.8-1.7-15.7c-.2-26.8 3.1-54.8 1-81.4l-.5-2.7c0-1.9-.7-8.1-2.2-9.3v-1.2l-.8-2.9c-1.5-2.8-3.7-7.7-7.3-8 .2-1-2-1.3-2.5-1.8-6.7-.2-12.5.6-14.1 8.1l-.5 1q-.9 1.8-1.5 3.7c-.8 5.1-1.8 10-1.2 15.2a76 76 0 0 0-.5 13.2c.2 24.6 3.3 50.7 1.2 75-.8 4.2-1.3 9.4-5.4 11.6q-7.5 1-7.9-6.5c-2-34 3.3-67.5 2.3-101.4a15 15 0 0 0-.6-3.7q.3-5.8-1-11.5-.5-6-2.3-11.7-2.4-9-8.7-16a7 7 0 0 0-2.8-2C126 5.5 124.8 37 125 46.4ZM385.6 17q-10.5 1.7-20.4 6-1 0-1 1c-3.8.4-11.4 4.8-15 6.8A95 95 0 0 0 311 73.6a104 104 0 0 0-5.9 19.2 80 80 0 0 0-.9 17q0 5.8 1 11.4l1.6 6.8c.4 1.8 1 6.8 2.6 7.9l.1 1.5q0 .6.6.4a17 17 0 0 0 3.8 10.2v1l4.2 9.3 1.6 2c1.2 3 3.2 6.2 5.3 8.7q.6 1.5 1.6 3l5.5 6.5q1 .4 1.6-.5 1.2 0 1.7 1-2.5 0-1 2a66 66 0 0 0 9.3 8.4q4.4 3.5 9.4 6 1.3.6 2.8.9c2.3-.1 2.1 2.3 4.2 3q4.4 2.3 9 3.8c2.5 1 6.2 2.1 9 2.4 8.5 1.8 23.7 3.6 31.9 1 1.1.6 6.3.8 7-.3q1.8 0 3.4-.6 19.7-4.8 36.8-16.1c15.8-10.5 33.3-32.7 36.7-51.5l.5-1q.8-1.9.8-3.8c.9-3.3 2-9 1.6-12.2l.5-1v-6q0-5.4-1.2-10.9l.2-1.1-.2-2a2 2 0 0 0-1-2c.4-1.3-.9-9.7-2-9.8 0-2.6-1-9-3.2-10.6q.6-1.5-.5-2.9c-1-3-2-6-3.2-9a6 6 0 0 1-1.3-1.9l-4.9-9q-.6-1.1-1.8-1.8a16 16 0 0 0-5.1-7.2l-.6-1.2-1.3-.7a17 17 0 0 0-7-7c-.4-1.8-3.7-3.4-4.8-5l-8.2-5.3q-3-1.6-6.2-2.8a36 36 0 0 0-9.9-4.2q-2.9-1-5.7-1.7l-1.2.2c-1-1.6-10-2.3-12-2.5l-7-.8-1 .5c-7.8-.5-14.8.2-22.4 1.6Zm14.6 21.8h1.5q9.8 0 19.5 2 2 1.2 4.4 1.1.3.5.9.8 5.7 2.2 11.4 4.7c2.1 2.6 3.5 2.6 6.6 1.8 1.5 0 4.4-1 4.4 1.3q-.6 1.6-1 3.3l4 3.5q4.5 4 8.5 8.7l5.5 8.3v1l1 .6q2.2 5 4 10.3.3 1 1 1.7.8 5.1 2.3 10.2.8 5.7 1 11.4-.2 1 .6 1.5-.9 1.7.9 2.3c-2.5 2.7-2.4 12.8-3.8 16.8q-.8 2-1.2 4a46 46 0 0 1-25.4 27.8c-1.6.3-4-.6-2.5-2.6q5.3-5.7 9.5-12.2 1.2-1.5-.2-2.6 1.3-1 2.4-2.3c7.5-13.6 9-31.5 5.1-46.5-2.6-1.5-1-1-1-3.1A59 59 0 0 0 441 63.4q-.6-.3-1.2.2l-22 30.3q-.3.6 0 1.2c24.6 28.4-27.6 54.8-39.4 21.9-3.2-14.3 8.5-26.2 22.2-27.6l9.5.3L433 58.6c1-1.7-.8-2.4-2.2-2.8a3 3 0 0 0-2.6-1.7 37 37 0 0 0-14.4-6.4 2 2 0 0 0-1.8-.8l-.9.1c-2.9-1.7-12-1.8-15.5-1.6-30 3.5-49.7 27.5-55.6 55.8l-.2 2.5a60 60 0 0 0 9.5 42.3q4.4 6 9.3 11.6-.2 1.9-2 2.5c-4.6 2.2-9 3.2-12.3-1.4l-1.2-.6c-.2-1.5-5.1-6.9-6.3-8.3l-.1-.8-1-1-4.1-8.2q-.7-.7-1.5-.7c1.2-2.4-2-7.6-2.3-10.5q-.4-.6-1-.8c.9-2.4-.7-9.8-1-12.8l.4-1.2q.4-2.2-.5-4.5.6-.3.9-1a144 144 0 0 1 3-14.3l.3-1.2q.8-1.2 1-2.6a85 85 0 0 1 69.3-51.4Zm4.9 61.4q-1.4-1.3-3.4-1.2c-12.4-3-16 17.8-3 23.6 17.6 3.8 13.6-21.6 6.4-22.4ZM423.8 216q-3.9 0-7.8 1.2-20.5 2.1-40.6-1.9-2.6.6-5 1.4c.6-.6 1.9-1.8 1-2.5l-14.7-4.9c-1.1.7-.3 5-.6 6.3a2 2 0 0 0 1.5 2c-5.2 8.7-.5 19.8 8.3 23.6a17 17 0 0 0 5.9 1.8l2 .6c15.9 1.5 31.5-2.2 47.5-1.2 25.7 3.8 27.4-11.9 24.5-33.6q-.3-.6-.9-.3-10.4 4.4-21 7.5ZM402 279.1l11 .2c1.5-.3 4.9 0 6-.9 3-7.2 1-17.3 1.2-25q-.2-1.5-1.7-1.3h-35q-.8 0-1.4.5c-1.6 21.3-4.2 26.8 19.9 26.5Zm-73.2 132q-9.3.9-18.7 1.1a194 194 0 0 0-20.9.4c-3.5-1-12.3-.3-16.4-.3a22 22 0 0 0-5.4.1q-8.2-.4-16.6-.3c-1.5.1-4.6-.8-5.6.6v2.9q-.2 12.8.4 25.4.5.5 1 .5c4 .1 10.8 1.9 14.4-.1q-.3.9.6 1.5c2.6-.4 14.6 1.7 16 0q.7 1 1.9.9 5.8.2 11.5-.4c.9 1 11-.8 13-.2 5.6-1 16.3-1 21-4.2.2 2.4 4.7.4 5.8-.4 9.9-.2 34.8-11.2 43-18.3 8.8-5.6 25.7-25.4 27.4-35.2a4 4 0 0 0 1.8-4c3-5 6.6-17 6.9-22.6 1-.8 2.4-6.6 0-5.5 6-7.4 3.8-57 2-68.4q-.6-.7-1.4-.6h-19.9q-.6.8-.4 1.5c4.4 51.4-1.1 112.5-61.4 125.5Zm-166.9-50.2a12 12 0 0 0-4 .4h-1.2l-2.1-.2q-2.8.2-5.4.6c-22.3 3.4-24 26.5-23.8 44.6v3.6a525 525 0 0 1 0 29l-.1.8a119 119 0 0 0 2.8 37.3q1 3.7 2.6 7.1a32 32 0 0 0 8 10.3q4.5 3.9 10.4 4.9 4.2 1.8 8.9 1.5l57.7-.1 15.8.2q.8 0 1.3-.5a1005 1005 0 0 1-1.6-45.3q.3-1.5-1.3-1.4 1.2-.4 1.6-1.6.3-11.1 1.2-22.2.4-5.4.5-11a867 867 0 0 0 2-29l-.3-9.4a2 2 0 0 0-1-1.7q.4-2.5-.6-4.9-1.7-5-6.2-7.9a2 2 0 0 0-2.2-1.2c-1.6-2-8.3-3.6-11-3.6q-5.2-1.5-10.9-1.2c-4.3 0-12.2-1-16 .7.2-1.4-3.8-.7-4.7-.8H179q-8.3.5-16.4.5-.4 0-.6.5Zm-78.7 24.3a424 424 0 0 0 .2 31q-.5 1.2-.2 2.7-.3 11.1 0 22.4l-.4 2.7q.6 23.7.3 47.4c-.2 12.3 17.7 9.9 24.8 8.9 1.8 1.1 5 .8 6.9.2q1.3.4 2.7.4c2.7-.3 10.4.6 12.4-.5q-1.2-.8-2.5-1.3c-1.9-1-3.9-5.3-6-5.1q.5-.5 0-.7l-.6-2.5c-13.8-34-13-85.2.8-119.2 2.8-3.4 6.5-9 11.1-10.1q-3.4-.9-7-.3l-1.6.1q-8.4-.6-17 0a198 198 0 0 0-22.6-.3q-.8 0-1.4.6-.2 11.9 0 23.6Z"/><path fill="#d7dee4" d="M401.8 99q2 0 3.4 1.2c-.7.7-3.3 2.6-4.1 1.5q.5-1.3.7-2.7"/><path fill="#4d5c7a" fill-opacity=".3" d="M191.5 507q1.8-.4 3.5-.3c.4 2-2.7 1.7-3.5.2"/><path fill="#4d5c7a" fill-opacity=".4" stroke="#4d5c7a" stroke-opacity=".4" stroke-width=".5" d="M166.7 489.2q.8-1.9 2.8-2c1.5.7-2 2.3-2.8 2Zm-12.9 17.5q1.8 0 3.5.2c-.5 1.5-3 1.9-3.5-.2Zm17.8.1q1.9-.3 3.8 0c-.5 1.6-3 1.7-3.8 0Z"/><path fill="#c7cdd2" d="M418.9 204.2q.2 1 1.4 1.4l-3.3.6q.3-1.5 1.9-2"/><path fill="#e29d8d" fill-opacity=".9" d="M222.7 64.9q2 .6 4 .4 1.2-.3 1.6.7a80 80 0 0 0-8.4.8l.5-.7q1-.9 2.3-1.2m-4.7 2.3h1.2l.7-.4q-.4 1.3-1.8 1z"/><path fill="#faac9a" fill-opacity=".5" d="M226.8 65.3a10 10 0 0 1-4-.4c.2-1.3 4.8-1.6 4 .4"/><path fill="#424e63" stroke="#424e63" stroke-width=".5" d="M429.2 195.8a3 3 0 0 1-1.3 1.6 127 127 0 0 0-9 6.8q-1.5.5-2 2c-.7 1-5.9 1-7 .3q8.7-4.8 17-10.2l2.2-.6Zm-47.3 1q0 1.5.4 3c-.5 2.4-2.9 3-4.6 4.3q-.3.8.3 1.4a46 46 0 0 1-9-2.4c4-.5 9-4.6 12.9-6.3Zm-8.1 46.7 4.3-1c1.5-1.8 5-3.7 5-6.3q1 .3 2-.6c1.8-2.2 11.4-10.6 11.8-12.6.7-.4 3.3-.7 2.5-2q-2 0-2.5 2c-1.9 0-30.5 16.5-31 18-8.8-3.7-13.5-14.8-8.3-23.5a2 2 0 0 1-1.5-2c.3-1.2-.5-5.6.6-6.3l14.7 4.9c.9.7-.4 2-1 2.5q2.4-.9 5-1.3 20.1 3.9 40.6 1.8c-1.4 1.7-6 5-6.2 7.2q-1.8-.5-2.4 1.2c.6.9 2.1-.4 2.4-1.2 2-.9 13.8-7 14-8.4q10.8-3 21.1-7.5.6-.2 1 .3c2.8 21.7 1 37.4-24.6 33.6-16-1-31.6 2.6-47.5 1.2ZM424 238c.5 2 2.8-1 2.9-1.7-.8-1-2.7.6-2.9 1.7Zm-11 41.3-11-.2c1.4-2 9.6-5.9 12-7.6.8-.5 2.2-.6 1.5.8q-1.8 3.3-2.5 7Zm-3.1 73.7c-1.7 1.6-10.4 9.2-10.8 10.8q-2.6.4-3.8 2.7c1 1.1 3.7-1.4 3.8-2.7 1.7.7 8.8-4.5 10.8-5.3a65 65 0 0 1-7 22.6l-1.6.7-16 11.5q.7.6 1.7.3l6-4a109 109 0 0 0 8.2-4.5c-1.7 9.8-18.5 29.6-27.3 35.2-8.3 7-33.2 18-43 18.3l7-5.4q1.2-1 2-2c.8 0 3.7-1.2 2.7-2.2q-2.1 0-2.7 2.1-1.3 0-2.5.7L325 439c-4.7 3.2-15.4 3.2-21 4.2a9 9 0 0 1 3-3.8q15.7-11.4 31.7-22.7c-1.6-1.6-3.4 1-4.6 1.9L292.6 442q-1 .6-1.6 1.3a77 77 0 0 1-11.5.4 2 2 0 0 1-1.9-1q.4-1.3 1.2-2.4l11.9-16a2 2 0 0 0-1.7.3l-28 16.7c-3.6 2-10.4.2-14.3.1q-.6 0-1.1-.4-.6-12.8-.5-25.5 3.2-1.2 5.7-3.5 8.4-.1 16.6.3l-6 6q.7.4 1.6 0l9.8-6.1c4.1 0 12.9-.6 16.4.4l-4 3.7q.5.4 1 .1l7.7-4.2a194 194 0 0 1 16.2 0q-6 8-11.7 16.2.3.4.9.1l29-16.8q.4-.3.5-.7c60.3-13 65.8-74.2 61.4-125.6q-.2-.9.4-1.4l20-.1q.8 0 1.3.6c1.9 11.4 4 61-2 68.4Zm-333 6.8c.5 1.4-2 5.7-3.1 6.4-1.5-3.2.5-5 3.1-6.4Zm14.3 1.3-2.8 6.6q-1.2 2.4-2 4.9.2.6 1 .4 10-5.6 19.7-11.8 8.6-.5 17 .1l.3.4c-.1 1.7-3.8 3-4.8 4.5q-5.4 4.9-10.3 10.4.5 1.3 1.7 1l10.6-6c-13.9 34-14.6 85.1-.8 119.2l.5 2.5c-2.7.2-10.2 6-13.4 7-7.2 1-25 3.4-24.8-8.9q.3-23.7-.3-47.3 1.2-.2 2.1-.8l6-4.8q.7-.5 1-1.3Q94 437 95 435c.6-.4 3.7-.9 2.5-1.9q-2 0-2.5 2-2.4-.3-3.2 2c-1.9-.4-6.6 3.4-8.6 4.2q-.3-11.3 0-22.4.8-.1 1.4-.7l10-7.5q-.7-.7-1.6-.4-4.6 3-9.6 5.9-.6-13.3-.3-26.5 1-.4 1.8-1.3l7.7-7.8q-.7-.4-1.6 0l-7.8 4.6q-.4-11.7 0-23.6.4-.6 1.3-.6zm34.3 48.8-.1-3.6q7.5-4 14.5-8.8c1.5-1 2.9.2 1.4 1.2-5 2.6-11.2 9.3-15.8 11.2Zm-40.8-6.5c.8 0 4-1.4 2.7-2.3a3 3 0 0 0-2.7 2.3Zm225.6 4.3c-2.4.2-6.2 1-8.5 0 2-1.7 7.3-3.3 8.5 0Zm-42 1q-4.7 0-9.3-.7l-.1-.4c3.2-1.8 7.4-3.2 9.4 1.1Zm22 .2a44 44 0 0 1-10.3-.2q0-.3.3-.4c3-2.4 8.1-4.3 10 .5ZM398 407c0 3.1-2.7 4-5 5.4 0-1.5 3.8-5.2 5-5.4Zm-237 7.2a34 34 0 0 1-10.2 6.8c-1.5 2.2-22.7 18-25.3 17.9l.3-5.9c5-.4 27.6-16.6 35.2-18.8Zm2 16c-1.4 1-5.5 4.8-7.5 5.7L127 456.5q-1 1.5-1.1 3.5l-.4-.1a162 162 0 0 1-.1-20.2c1.5 2 .3 7.4.6 9.9q0 .7.6 1a1759 1759 0 0 0 34-19.7q1-.6 2.5-.8Zm83.8 8c1 0 3.4-.8 2.8-2.2a3 3 0 0 0-2.8 2.2Zm98.4 2q-5.1 3-10.6 5.7-2.8.6-4.7-1.6.3-.7 1-1c3.2 0 11.9-3.4 14.3-3.2Zm-255.4 25c.7.2 4.5-1 2.8-2a3 3 0 0 0-2.8 2Zm62.5-.5q1.8.4 3.8.2c-7.3 5.5-19 13-25.3 19.2q-1.6-3.4-2.6-7c6.4-1 17.2-10 24-12.4Zm12.8 10.4a695 695 0 0 1-26.4 19.3l-3-3q13-7.4 26-15.1 1.5-.9 3.4-1.2ZM121.4 494c2.1-.2 4.1 4 6 5l2.5 1.4c-2 1.1-9.7.2-12.4.5q-1.4 0-2.7-.4 3.5-3.2 6.3-6.6z"/><path fill="#f3f9fc" stroke="#f3f9fc" stroke-width=".5" d="m408 15.3-.3.6L384 32.6q-.7.3-.9 1.2c-.8.5-2.9.6-3 1.9 1 1.2 2.6-1 3-2h2q15.4-9.4 31-18.1c2 .3 11 .9 12 2.5l-.3 1c-5.4 3.5-20.2 14.3-24.5 16.8q-1.2 1.3-2.8 2a1 1 0 0 0-.2.9A85 85 0 0 0 331 90.2c-3.1.4-22.8 12.7-27.1 15q0-6.2 1-12.4c2.3.4 17.2-11.1 20-13.2a4 4 0 0 0 2.9-2.4c1.5-.3 4.6-1.6 5-3.3 1-.6 2.6-.3 3-1.5-1-1.6-2.2 1-3 1.5-1.7.1-4.8 1.4-5 3.3q-2.1-.2-3.6 1.2L305.8 89q2-7.8 5-15.4 1.2.2 2.1-.3l14.8-11 3-1.6a1 1 0 0 0-1-.4 184 184 0 0 1-17 9.6 95 95 0 0 1 36.7-39c3.5-2 11-6.5 14.8-6.9l-13.6 12a16 16 0 0 0-3.5 3.6c.8 1 3.9-1.6 4.5-1.9l31.6-18.1c1-.8 2.8-1.2 2.5-2.7a85 85 0 0 1 22.4-1.6Zm27 4.3c1.5.4 9.5 3 10 4.2-3.4 3-22.3 15-23.7 17q-9.7-2-19.5-2L405 37zm16.1 7 8.2 5.3c-2.6 3-17.2 12-21.3 15.5q-5.7-2.5-11.4-4.7l-.9-.8c.9-1.2 22-12.3 25.4-15.3Zm13 10.2a16 16 0 0 1 7 7.1q-7.5 4.6-15.2 9.7-1 .8.1 1.1c-.4 1.4-3 2-4 2.6l-4-3.5q.3-1.7 1-3.3c0-2.3-3-1.3-4.4-1.3 1.3-2 17.3-9.4 19.6-12.4ZM411.3 47l-.5.7q-4.2 3.1-8.7 6-.7.9-1.5 1.6-1.7 0-2.4 1.5c-.9.5-2.7.7-3 1.9.7 1 3.1-.6 3-2h2q6-4 12.6-7.4.9-.6 1.2-1.6 7.9 1.7 14.4 6.4A245 245 0 0 0 408.6 68q-3.3 1.2-5.4 3.8c-1 .8-3.2.4-3 2.2q-2.1 0-3 1.7c1 1 2.4-1 3-1.7q1 0 1.9-.3 13.6-8.4 27.6-16.2 1-.5 1.2-1.6c1.4.4 3.2 1 2.2 2.8l-22.9 31.1-9.5-.3c-13.7 1.4-25.4 13.3-22.2 27.6 11.8 32.9 64 6.4 39.4-21.9q-.3-.6 0-1.2l22-30.3q.6-.5 1.2-.2a59 59 0 0 1 18.6 29.2c0 2.2-1.6 1.6 1 3.1 3.9 15 2.4 32.9-5 46.5l-2.5 2.3q1.4 1.2.2 2.6-4.2 6.6-9.6 12.2c-1.5 2 1 2.9 2.6 2.6a46 46 0 0 0 25.4-27.9c3.1-.1 20.2-10.9 24-13.3l.9.3c.4 3.3-.7 8.9-1.6 12.2-2.2 0-17.6 11.8-20.7 13.7l-1.4 1c-1.1.8-4.9 2.7-5 4-.8.4-2.7.4-3 1.6 1 1.1 2.6-.8 3-1.6q3-.4 5-2.8 1.6-.3 3-1.3l17-9.8h.8c-3.4 18.7-20.9 40.9-36.7 51.4q-17 11.4-36.8 16.1-1.2-.3-1.4-1.5 4.3-3.6 9-6.7.9-.6 1.3-1.7c.6-.2 3.7-.5 2.4-1.7q-1.5.5-2.4 1.7-1.2.2-2.3.6-8.3 5.4-17 10.2c-8.2 2.6-23.4.8-32-1q-.5-.6-.2-1.4c1.7-1.2 4.1-2 4.6-4.3q.9.6 1.8 0c3.7-2.6 24.7-16.4 25.6-18.7q2.2-.2 3.4-2 1 0 1.7-.8c-.5-.9-1.6 0-1.7.7q-2.2.3-3.4 2.1l-4.7 2.2q-11.7 6.7-23.1 13.5c-3.8 1.7-9 5.8-13 6.3q-4.5-1.5-8.9-3.8l51-36.1q.8-1 1.9-2 2.3-.2 3.2-2.2 1.5.3 1.9-1 1.2-1.2 0 0-1.5-.5-2 1-2.1 0-3.1 2.1c-3.2.5-10 5.4-13.3 7q-22.5 12.9-45 26.2a2 2 0 0 0-1.6 1 46 46 0 0 1-9.3-6c4.2-.3 39.5-25.8 45.9-30.2a9 9 0 0 0 2.2-2c.4-.4 4.4-1.1 2.8-2q-1.8.3-2.8 2-3.2 1.2-6.2 3L340 186.4q-3-2.5-5.7-5.3-1.7-2 .9-2l8.7-5.8 1-1.2q2.1-.2 3-2c.5.1 2.8-.4 1.5-1.2q-1.2 0-1.5 1.2-2.1 0-3 2-1-.1-2 .4l-9.4 5.5q-.6 1-1.6.5-2.9-3.2-5.5-6.5c2.1-2.5 16.9-9.8 18-13.3 3.3 4.6 7.6 3.6 12.2 1.4q1.8-.6 2-2.5-4.9-5.6-9.3-11.6a60 60 0 0 1-9.5-42.3c1.8.6 12-7.6 14-9a4 4 0 0 0 3-2.6c2.6-.3 6-3.1 8-4.7-.5-1.2-7.5 3-8 4.7q-2.1 0-3.6 1.3-6.7 3.8-13.2 7.8c6-28.2 25.8-52.2 55.7-55.8 3.6-.2 12.6-.1 15.5 1.6Zm68.7 7.8 5 9a4 4 0 0 0-3.3.4L467 74l-.9.3-5.5-8.3 3.5-2zm6.2 11q1.8 4.3 3.2 8.9c-3.4.4-14.9 9.1-18.3 11.5q-1.8-5.3-4-10.3c5-1.6 13.5-8 19-10.2Zm-40.4 8.5c.6 0 3-.5 1.7-1.4q-1.3 0-1.7 1.4ZM448 87a2 2 0 0 0-2 .7c.6 1 2 .1 2-.7.8 0 3.8-1 2.6-2a3 3 0 0 0-2.6 2Zm45 1.2c1.1.1 2.4 8.5 2 9.9l-1 .3q-9 6.1-18.1 12.6-.7-.5-.7-1.5 0-5.7-1-11.4c3.7 1 15.5-7.7 18.8-9.9Zm-164.3 5.5 1 .3a144 144 0 0 0-3 14.4q-.3.6-1 .9l-20.7 12q-.7-5.7-.9-11.4 1 .5 2-.1zM454 98.1q-2.2-.2-3 2-1.5-.3-2 .9c-1 .5-2.8.5-3 1.7 1 1.2 2.6-.7 3-1.7q1.4.3 2-1 2 0 3-2 1.4.3 2-.7 1.7-1-.2-1.3-1.4.8-1.8 2Zm41 5h1q1.4 5.4 1.2 11-1.2-.3-2.2.2-11.1 7.8-22 15.8c1.4-4 1.3-14.1 3.8-16.8 4.9-2 13.2-7.5 18.3-10.2ZM325.3 115h.8c.2 3 1.8 10.4.9 12.8l-2.3 1.8c-1.7-1.2-4-.3-4.6 1.7q-1-.2-1.7.4l-8.1 4.6-1-.4c-1.6-1-2.2-6-2.5-8 .3-1 16.2-11.4 18.5-13ZM453 127q-1.4-.2-2 1c-.9.5-2.7.5-3 1.6 1 1.4 2.6-.6 3-1.6q1.4.3 2-1c.8 0 3.8-.9 2.6-2q-2.1 0-2.6 2Zm-101.4 12.3c1.8 0 4.1-1.7 5.3-3-.8-1.3-4.9 1.9-5.3 3Zm-21.5-.2q1 0 1.6.7l4.1 8.2q-9 4.8-17.8 10.2l-4.1-9.1q1.1.2 2.2-.3 3.3-2.2 6.4-4.7 2.2-1.5 4.6-2.6.6-.5.6-1.3l1.6-.1zm35.8 6c-1.2 0-10.7 4.3-8.2 5.7 1.2 0 7.8-4.3 8.2-5.8q3.1-.4 5-2.7c-.7-1.4-4.5 1.7-5 2.7Zm78.8 5.2c.7-.3 4.4-1.1 3-2.3q-2.2.3-3 2.3Zm-108.5-.3.7-.2c1.2 1.4 6.1 6.8 6.3 8.3-3.9 1.4-13 7.3-17.2 9.5q-1 .4-1.1 1.4-3.2-4-5.3-8.8c3.8-.8 12.7-8 16.6-10.2Z"/><path fill="#ebf2f6" fill-opacity=".5" d="M429.2 195.8q.8-1.4 2.4-1.8c1.3 1.2-1.8 1.5-2.5 1.7"/><path fill="#f3fafb" fill-opacity=".5" d="M413 179c.2-.6 1.3-1.6 1.8-.7q-.6.8-1.7.7"/><path fill="#f3f9fb" fill-opacity=".4" d="M351.6 139.3c.4-1.1 4.5-4.3 5.3-3-1.2 1.3-3.5 3-5.3 3M468.1 152c-.5.8-2 2.7-3 1.6.2-1.2 2-1.2 3-1.6m-76.3 5q1-1.5 2.8-2c1.6 1-2.4 1.7-2.8 2M348 170q.4-1 1.6-1.1c1.3.8-1 1.3-1.6 1.2"/><path fill="#f5f6fe" fill-opacity=".2" d="M453 127q.5-2 2.6-2c1.2 1.1-1.8 2-2.6 2"/><path fill="#f2fafb" fill-opacity=".5" d="M449 101c-.4 1-2 3-3 1.7.2-1.2 2-1.2 3-1.7"/><path fill="#f3f9fc" fill-opacity=".3" d="M451 100q-.6 1.3-2 1 .5-1.2 2-1m2 27q-.6 1.3-2 1 .6-1.2 2-1m-40 52q-1 2-3.3 2.1 1.3-2 3.4-2"/><path fill="#f3fafe" fill-opacity=".3" d="M454 98a3 3 0 0 1-3 2q.7-2 3-2m-38 61q-.9 2-3.1 2.1a3 3 0 0 1 3.2-2.1"/><path fill="#f2fafd" fill-opacity=".4" d="M448 87c0 .8-1.4 1.7-2 .7a2 2 0 0 1 2-.7"/><path fill="#f0fbfc" fill-opacity=".3" d="M333 73.9c-.5 1.7-3.6 3-5.1 3.3.2-1.9 3.3-3.2 5-3.3"/><path fill="#f3f9fc" fill-opacity=".5" d="M445.7 74.3q.4-1.3 1.7-1.4c1.2.9-1.1 1.3-1.7 1.4M451 128c-.4 1-2 3-3 1.6.3-1.1 2.1-1 3-1.6"/><path fill="#f3fafc" fill-opacity=".4" d="M333 73.9c.7-.6 2-3 3-1.5-.5 1.2-2 1-3 1.5m33 71.1c.4-1 4.2-4 5-2.7a8 8 0 0 1-5 2.7"/><path fill="#f4f9fc" fill-opacity=".3" d="M398.1 56.8c.1 1.3-2.3 3-3 1.9.3-1.2 2.1-1.4 3-2m50 30.2a3 3 0 0 1 2.5-2c1.2 1-1.8 2-2.6 2m-91.2 5c.5-1.5 7.5-5.8 8-4.6-2 1.6-5.4 4.4-8 4.7m61 66q1.5-1.2 0 0m-70 12a3 3 0 0 1-2.9 2 3 3 0 0 1 3-2"/><path fill="#f3f9fc" fill-opacity=".4" d="M383.2 33.8c-.5.8-2.2 3.1-3.1 1.9.1-1.3 2.2-1.4 3-2m17 40c-.6.8-2 2.8-3 1.8a3 3 0 0 1 3-1.7M418 158q-.5 1.3-2 1 .5-1.5 2-1"/><path fill="#4d5c7a" stroke="#4d5c7a" stroke-width=".5" d="M383 236.2c0 2.6-3.4 4.5-5 6.3l-4.2 1-2-.6c-1.3-5 7.9-10 11.2-6.7Zm30 43q.7-3.6 2.5-7c.7-1.3-.7-1.2-1.5-.7-2.4 1.7-10.6 5.6-12 7.6-24 .3-21.5-5.2-19.9-26.5q.6-.6 1.4-.5h35q1.4 0 1.7 1.3c-.1 7.7 1.8 17.8-1.2 25-1.1.9-4.5.6-6 .9ZM178.9 360q-.9 1-.7 2-.9.1-1.3 1l-11 8.4c-1.4 1-.1 1.8 1 1.1l20-11.8c4-1.8 11.8-.7 16.1-.7q-.5 1.6-2 2.6l-21.7 17q1 .3 2 0c5-2.4 10.7-6.2 15.3-9.3 5.1-.9 12.7-6.3 17.4-9 2.6 0 9.3 1.5 11 3.5-2 2-4.8 3-6.2 5.3q-1-.3-1.7.6c.5.8 1.7.1 1.7-.6l8.3-4q4.4 2.8 6.2 7.8h-1q-1.1 0-1.5 1.3-.7.6-1.7.6-.8.5-1.4 1.2l-28.8 20.5q-.8.4-.7 1.4a1 1 0 0 0-1 .5q.8.3 1-.5c3.1-.1 30.7-17.3 35.6-20.1q1 .6 1 1.7l.4 9.4a3 3 0 0 0-2.3.4q-17.3 12.8-35 25.3-.6.4-.7 1.3-2.1 0-3 1.7c.9 1.2 2.5-1 3-1.7 4-.2 32-18 37.7-21.2q-.6 11.6-1.7 23.3c-2 1.4-5.8 3.3-7.3 5l-23.3 17q-1 .6-1.5 1.6a4 4 0 0 0-3 2c1 1.3 2.7-1 3-2 3 0 20-11 24.1-13q1.3-1.1 1.6-2.8.6.9 1.6.8 1.5-1 3.1-1.5.5 1.8.8 3.7h.4q-.9 11.1-1.2 22.2-.4 1.2-1.6 1.6-1.4.8-1.8 2.3-2 0-3 1.7c1 1 2.6-1 3-1.7q1.5-.2 3-.9h.3q.2 22.7 1.4 45.3-.6.6-1.3.4-7.8.1-15.8-.1l5.9-8.1q-.4-.4-1-.2c-2 1.3-13 6.6-13.4 8.4H158q-1.7-.6-3.5-.7c-1.8-1.1 3.6-3.7 4.2-4 1.6-2.3 4.6-2 5.4-4.8-.6-1-1.5-.3-2.3 0-1.7 1.3-3.3 1.7-4.6 3.5q-4.4 1.5-8.1 4.5-6-1-10.4-5c5-3.4 23.2-16.5 26.3-19.2.4-.5 4-1.1 2.5-2.1q-2.2 0-2.5 2.1-1.8.3-3.3 1.2-13 7.8-26.1 15.1-3-3.3-4.9-7.3c6.3-6.3 18-13.7 25.3-19.2q6.3-4.8 12.7-9.2-.7-.8-1.7-.5a247 247 0 0 1-14.4 8.9q-.3.2-.4.6c-7 2.4-17.7 11.3-24.1 12.3q-2-8.4-2.7-17.1h.4q.3-1.8 1.1-3.4 14.3-10.2 28.5-20.6c2-.9 6.1-4.6 7.6-5.8.6-.2 4.1-1 2.6-2q-2.1 0-2.6 2-1.5.2-2.6.8a1759 1759 0 0 1-34 19.7q-.5-.3-.5-1c-.3-2.6.9-7.9-.6-9.9v-.8c2.7.1 23.9-15.7 25.4-18a34 34 0 0 0 10.2-6.7c.6 0 4.4-1 2.7-2q-2.1 0-2.7 2c-7.6 2.2-30.2 18.4-35.2 18.8q0-11.6-.2-23.1c4.7-2 10.8-8.6 15.8-11.2 1.5-1 .1-2.2-1.4-1.2q-7 4.8-14.5 8.8c-.2-18.1 1.5-41.2 23.8-44.6q1 0 1.7.8a49 49 0 0 0-6 7.6q-.4-.1-.7.4.6.3.8-.4 3.5-.5 6-2.9.9-.2 1.2-1.1h.6q1.2 0 2.3-.6a75 75 0 0 0 7.4-5.1q8.3 0 16.4-.5Zm-5 24.4c.6-.4 4.2-1.3 2.7-2.4q-2 .3-2.8 2.4Zm21 16.6c.3 0 1.7-.3.7-.9q-.7.1-.8 1Zm17.2 50.8q-1.8.5-3 1.8c1 1.6 2.6-1 3-1.8 2.1.3 2.3-.4 3.8-1.5l9.5-5.4c1.7-.7 1.8-3.1-.5-2.7a165 165 0 0 0-9.8 7.4c-.8.7-2.8.9-3 2.2Zm-45.4 37.4c.8.3 4.3-1.3 2.8-2q-2 .1-2.8 2Zm25 9c1-.2 3.3-.8 2.8-2.1q-2.2 0-2.8 2.1Z"/><path fill="#4d5d79" fill-opacity=".4" stroke="#4d5d79" stroke-opacity=".4" stroke-width=".5" d="M191.7 498.2q.6-2.1 2.8-2.1c.5 1.3-1.8 1.9-2.8 2.1Z"/><path fill="#4d5d79" fill-opacity=".5" stroke="#4d5d79" stroke-opacity=".5" stroke-width=".5" d="M165 475.1q.3-2.2 2.5-2.1c1.5 1-2.1 1.6-2.5 2.1Z"/><path fill="#4d5b7a" fill-opacity=".3" stroke="#4d5b7a" stroke-opacity=".3" stroke-width=".5" d="M228 456c-.3.8-2 2.8-2.8 1.7a3 3 0 0 1 2.9-1.7Z"/><path fill="#4d5c7a" fill-opacity=".5" stroke="#4d5c7a" stroke-opacity=".5" stroke-width=".5" d="M212.1 451.8c-.4.8-2 3.4-3 1.8q1.2-1.4 3-1.8Z"/><path fill="#4d5b79" fill-opacity=".5" stroke="#4d5b79" stroke-opacity=".5" stroke-width=".5" d="M163 430.1q.5-2 2.6-2c1.5 1-2 1.8-2.6 2Z"/><path fill="#4c5b7b" fill-opacity=".3" stroke="#4c5b7b" stroke-opacity=".3" stroke-width=".5" d="M197.2 416.9c-.5.7-2.1 2.9-3 1.7a4 4 0 0 1 3-1.7Z"/><path fill="#4d5b79" fill-opacity=".5" stroke="#4d5b79" stroke-opacity=".5" stroke-width=".5" d="M160.9 414.2q.6-2 2.7-2c1.7 1-2 2-2.7 2Z"/><path fill="#4d5b79" fill-opacity=".3" stroke="#4d5b79" stroke-opacity=".3" stroke-width=".5" d="M194.8 401q0-.7.8-.9c1 .6-.4 1-.8 1Z"/><path fill="#4c5c79" fill-opacity=".4" stroke="#4c5c79" stroke-opacity=".4" stroke-width=".5" d="M173.8 384.4a3 3 0 0 1 2.8-2.4c1.6 1.1-2.1 2-2.8 2.4Z"/><path fill="#57627e" fill-opacity=".5" stroke="#57627e" stroke-opacity=".5" stroke-width=".5" d="M218.8 370.1c0 .7-1.2 1.4-1.7.6q.6-.9 1.7-.6Z"/><path fill="#4c5b7a" fill-opacity=".3" stroke="#4c5b7a" stroke-opacity=".3" stroke-width=".5" d="M198.2 398.9q-.2.8-1 .5a1 1 0 0 1 1-.5Z"/><path fill="#424e63" d="M233.2 419q0 5.4-.5 11h-.5l-.7-3.8q-1.7.5-3.2 1.5-.9 0-1.5-.8c.1-.8.7-3.1-.9-3 1.5-1.6 5.3-3.5 7.3-5"/><path fill="#3c4759" fill-opacity=".8" d="M158 500.8q-4.6.3-9-1.5 3.9-3 8.2-4.5c1.3-1.8 3-2.2 4.6-3.5.8-.3 1.7-1 2.3 0-.8 2.8-3.8 2.5-5.4 4.8-.6.3-6 2.9-4.2 4q1.8.1 3.5.7"/><path fill="#3c4657" fill-opacity=".9" d="m251 446.7-1.2.8a5 5 0 0 1-4.5-.3q0-1.2 1.2-1.2 2.3 0 4.4.7"/><path fill="#404b5e" fill-opacity=".7" d="m156.7 361.4.6.5-1.5.2q-.5.1-.8.6l-1.4.5c-.7.7-2.6 1.8-2.5 2.8l-.2 1.2a11 11 0 0 1-6 2.9q2.6-4 6-7.6-.7-.7-1.7-.8l5.4-.5z"/><path fill="#414c61" fill-opacity=".6" d="M306.6 447.1q2.3 0 4.4-.4 0 1.5-1.5 1.3-1.6.3-2.9-.9"/><path fill="#654e48" fill-opacity=".7" d="M250.5 84.8q.8 1 .7 2.2-1.5-.7-.7-2.2m.7 2.2c.8-.3.6 1.7.7 2a2 2 0 0 1-.7-2"/><path fill="#535455" fill-opacity=".6" d="M297.3 86.2h.6q0 1-.6 2z"/><path fill="#404b60" fill-opacity=".3" d="M411 388.6q0 1.2-1.3 1.4.6-.9 1.3-1.4"/><path fill="#414d62" fill-opacity=".3" d="m280.3 408.3-.3.4-1.2.5q.3-1.2 1.5-1"/><path fill="#415064" fill-opacity=".2" stroke="#415064" stroke-opacity=".2" stroke-width=".5" d="M251 446.7q0 1.1-1.2.8z"/><path fill="#424e64" fill-opacity=".5" d="M98.2 506q-.5.9-1.4.9.5-.9 1.4-.9"/><path fill="#52433f" fill-opacity=".4" d="M88.2 34.2q-.7.8-1.6.8.7-.8 1.6-.8"/><path fill="#424c68" stroke="#424c68" stroke-width=".5" d="M401.8 99q-.2 1.5-.7 2.7c.8 1.1 3.4-.8 4-1.5 7.3.8 11.3 26.2-6.3 22.4-13-5.8-9.4-26.6 3-23.6Z"/><path fill="#424f63" fill-opacity=".4" d="M116.6 507h2.8q-1.5 1.7-2.8 0m22.1-.1h2.6q-1.3 2-2.6 0"/><path fill="#414e63" fill-opacity=".4" d="M92.7 506.8H96c.1 2-3 1.6-3.3 0"/><path fill="#424e64" fill-opacity=".3" stroke="#424e64" stroke-opacity=".3" stroke-width=".5" d="M246.7 438.2a3 3 0 0 1 2.8-2.2c.6 1.4-1.7 2.2-2.8 2.2Z"/><path fill="#444e64" fill-opacity=".2" stroke="#444e64" stroke-opacity=".2" stroke-width=".5" d="M95 435q-1 2-3.2 2.1.8-2.3 3.2-2Z"/><path fill="#424e63" fill-opacity=".5" stroke="#424e63" stroke-opacity=".5" stroke-width=".5" d="M95 435q.5-2 2.5-1.9c1.2 1-2 1.5-2.5 2Z"/><path fill="#434e63" fill-opacity=".3" stroke="#434e63" stroke-opacity=".3" stroke-width=".5" d="M340 431.2q.5-2 2.6-2.2c1 1-1.9 2.2-2.7 2.2Z"/><path fill="#414e63" fill-opacity=".5" stroke="#414e63" stroke-opacity=".5" stroke-width=".5" d="M399.1 363.8c0 1.3-2.9 3.8-3.8 2.7a6 6 0 0 1 3.8-2.7ZM89.6 465.3a3 3 0 0 1 2.9-2.2c1.7 1-2 2.3-2.9 2.2Z"/><path fill="#445269" fill-opacity=".2" stroke="#445269" stroke-opacity=".2" stroke-width=".5" d="M424 238c.2-1 2-2.7 2.9-1.7-.1.7-2.4 3.6-2.9 1.7Z"/><path fill="#424e63" fill-opacity=".4" stroke="#424e63" stroke-opacity=".4" stroke-width=".5" d="M409.8 224.3c-.3.8-1.8 2-2.4 1.2q.8-1.7 2.4-1.2Zm-325 179a3 3 0 0 1 2.6-2.2c1.4 1-1.9 2.4-2.7 2.3Z"/><path fill="#445063" fill-opacity=".5" stroke="#445063" stroke-opacity=".5" stroke-width=".5" d="M396.9 223q.5-2 2.5-2c.8 1.3-1.8 1.6-2.5 2Z"/><path fill="#4b5a7b" fill-opacity=".3" stroke="#4b5a7b" stroke-opacity=".3" stroke-width=".5" d="M201.1 442.7c-.3 1-2 3.3-3 2a4 4 0 0 1 3-2Z"/><path fill="#444d66" fill-opacity=".1" stroke="#444d66" stroke-opacity=".1" stroke-width=".5" d="M145 370.1q-.2.7-.8.4.3-.5.8-.4Z"/></svg>