<svg xmlns="http://www.w3.org/2000/svg" style="shape-rendering:geometricPrecision;text-rendering:geometricPrecision;image-rendering:optimizeQuality;fill-rule:evenodd;clip-rule:evenodd" viewBox="0 0 512 512"><path fill="#e3e7ea" stroke="#e3e7ea" stroke-width=".5" d="M251 459.2c8.5 6.4 13.7 11.5 25.2 12l-26.4 15.2q-1 .6-1 1.9a123 123 0 0 1-16-15.4q7.7-5.4 15.3-11zm-4.7 16.8c1.4 1.8 4.4-1.7 5.5-2.7-.6-1.1-4.8 2-5.5 2.7Z"/><path fill="#e4e8eb" stroke="#e4e8eb" stroke-width=".5" d="M130.2 175.8q4.8 4.4 9.1 9.3a564 564 0 0 1-19.7 11.6l-1 .6c-1.5-1.4-6.4-5.7-6.9-7.4 2.4.1 7.9-5.2 10.3-6.4q1.2-.9.2-2.1c2-1.6 3.4-1.7 5.8-2z"/><path fill="#f76c82" fill-opacity=".4" stroke="#f76c82" stroke-opacity=".4" stroke-width=".5" d="M72.2 59.9c-.4.7-2.2 3-3 1.8a4 4 0 0 1 3-1.8Zm26 17c-.5.8-2 2.6-3 1.7a3 3 0 0 1 3-1.7ZM417 208.7l-.2-.7c.8-1 4.2-3.8 5.2-2.6l-3.3 2.6zM199.8 332.1l.2 1.2c-.9 1-3.3 2.8-4.6 2.8l-.2-.5q2.2-2 4.6-3.5Zm-13 63q.8-1.9 2.7-2.2c1.2 1.3-2 1.9-2.7 2.3Z"/><path fill="#e5e2e6" fill-opacity=".9" d="M421 218.6q0 1.2 1.1 1.5a73 73 0 0 1-8.2 6.2q-1.5-.7-1.8-2.3z"/><path fill="#ab4c5c" fill-opacity=".1" stroke="#ab4c5c" stroke-opacity=".1" stroke-width=".5" d="M494.7 178.1c-.1.7.4 2.5-.5 2.7-2 .8-6.2 4.3-8.1 4q.4-1 1.3-1.8 3.3-2.2 6.4-4.7z"/><path fill="#e4e7ec" fill-opacity=".3" d="M345.2 198c-.3.8-2.3 2.9-3 1.7a3 3 0 0 1 3-1.8M284 375c.3-1 2-2.7 3-1.6q-1 1.7-3 1.7m-37.7 101c.7-.7 4.9-3.8 5.5-2.7-1 1-4.1 4.5-5.5 2.7"/><path fill="#f76c82" fill-opacity=".5" stroke="#f76c82" stroke-opacity=".5" stroke-width=".5" d="M133 69c-.5.7-2 3.2-3 1.6.4-1 2.2-1.4 3-1.6Zm261.8 85.2c.4-1.2 1.8-2.3 3-1.8q-.8 2-3 1.8ZM159 296c-.3.8-2 2.6-2.7 1.4q1-1.2 2.7-1.4Zm68 34c-.6.7-2 3.1-3 1.7q1.2-1.4 3-1.7Z"/><path fill="#f8648d" fill-opacity=".3" stroke="#f8648d" stroke-opacity=".3" stroke-width=".5" d="M51 115c-.4 1.5-6.6 4.9-7.9 6.2q-.2-1-1.3-1.4c2-1 7.1-5 9.2-4.7Z"/><path fill="#d15f71" fill-opacity=".9" d="M52.7 7q1.5.3 3.2.3h1.3q-4.5 1.4-9 2.4l.1-.8q2-1.4 4.4-2"/><path fill="#f66c82" fill-opacity=".3" stroke="#f66c82" stroke-opacity=".3" stroke-width=".5" d="M56 7.3q-1.7 0-3.3-.3c.7-1.5 3.7-1.4 3.2.3ZM133 69c0-1.2 3-2.3 3.7-3q1.6-.5 1 1c-1.3.7-3 2.2-4.6 2Zm18 303q-.7 2-3 2.1c0-1.6 1.9-1.6 3-2Zm44.9 32.2q.6-2 2.7-2.2c1.2 1.1-2 2-2.7 2.2Z"/><path fill="#cf596e" fill-opacity=".2" stroke="#cf596e" stroke-opacity=".2" stroke-width=".5" d="M474.7 162.3q0 1 1 1.4c-1.2.8-5 3.5-6.6 3.2q.5-1.2 1.4-1.9 2-1.5 4.2-2.7Z"/><path fill="#9e4554" fill-opacity=".1" stroke="#9e4554" stroke-opacity=".1" stroke-width=".5" d="M426 216.2q.7.1 1 .8a32 32 0 0 1-4.9 3.1q-1-.3-1.2-1.5 2.4-1.6 5.1-2.4Z"/><path fill="#cc5a6b" fill-opacity=".1" stroke="#cc5a6b" stroke-opacity=".1" stroke-width=".5" d="m416.7 208 .2.7a20 20 0 0 1-5.6 4q0-1-1-1.3c1.6-.7 4.6-3.3 6.4-3.4Z"/><path fill="#d2527b" fill-opacity=".2" stroke="#d2527b" stroke-opacity=".2" stroke-width=".5" d="M219.6 304.4q.8 0 1.3.6c-1.9.5-5 3.4-6.9 2.9l.5-.9c1.2-.7 3.8-3.3 5.1-2.6Z"/><path fill="#b8476c" fill-opacity=".1" stroke="#b8476c" stroke-opacity=".1" stroke-width=".5" d="M144 376.2q.4 0 .9.4a13 13 0 0 1-4.6 3.3q-1.5-.3-1-1.6 2.2-1.4 4.6-2Z"/><path fill="#f56b81" fill-opacity=".6" stroke="#f56b81" stroke-opacity=".6" stroke-width=".5" d="M452.1 232.7q-.4 1.9-2.3 2.3-1 0-2 .4h-.8l.1-.6c1.7-.6 3.3-4 5-2.1Z"/><path fill="#f95f91" fill-opacity=".2" stroke="#f95f91" stroke-opacity=".2" stroke-width=".5" d="m42.7 88 .2.6-4.5 3.3q-.5-1-1.4-1.2c1.4-.7 4-3 5.7-2.6Z"/><path fill="#f76d83" fill-opacity=".3" stroke="#f76d83" stroke-opacity=".3" stroke-width=".5" d="m78 13 1.1-.2q-.1 1.1-1.3 1zm-9.4 127.2q.8-2 3-2.2c1 1.1-2.2 2.2-3 2.2Zm355.3 48a3 3 0 0 1 2.6-2.2c1.2 1.2-1.9 2-2.6 2.2Z"/><path fill="#e4e7ea" fill-opacity=".3" d="M172 141v1.3c-1 1-3.3 3-4.6 2.8l-.3-.4q2.3-2 4.8-3.7"/><path fill="#ecaab7" d="M185.7 426.3q-.7-.5-1.1-1.2c1-.8 3.6-3 4.8-3q.6.4.1 1-2.1 1.5-3.8 3.2"/><path fill="#e4e8ea" fill-opacity=".3" d="m268.9 371 .2 1.2q-.8 1-2 .9.4-1.5 1.8-2M263 405c-.3.9-2.1 3-3 1.7a3 3 0 0 1 3-1.7"/><path fill="#6b6c6d" fill-opacity=".9" d="M176.3 232q-.6 1-1.9 1-2.2-.3-4.4-.3 3-1.1 6.3-.7"/><path fill="#f86c85" fill-opacity=".3" stroke="#f86c85" stroke-opacity=".3" stroke-width=".5" d="M57 14q.3.8 1.2 1.2-1.8 1.1-3.8 2c-1-1.1 1.8-2.6 2.5-3.3Z"/><path fill="#f76e83" fill-opacity=".3" stroke="#f76e83" stroke-opacity=".3" stroke-width=".5" d="M430 214a6 6 0 0 1-3 3q-.3-.6-1-.8 1.4-2 4-2.2Z"/><path fill="#f86a88" fill-opacity=".3" stroke="#f86a88" stroke-opacity=".3" stroke-width=".5" d="M148 374.1a5 5 0 0 1-3.2 2.5q-.3-.3-.9-.4 1.5-2.1 4.1-2Z"/><path fill="#c3c6c7" fill-opacity=".2" d="M397.7 249.4q.3 1 1.4 1c-1.2.5-2.6 2-4 1.4q.8-1.8 2.6-2.4"/><path fill="#bfc0c3" fill-opacity=".2" d="M157.7 132.3q0 1 1 1.2-1.5 1.5-3.6 1.3a5 5 0 0 1 2.6-2.5"/><path fill="#bec0c4" fill-opacity=".2" d="M359.2 204.3q-.6 1 .5 1.3c-.9.5-2.2 1.8-3.6 1.2a5 5 0 0 1 3-2.5"/><path fill="#c0c2c5" fill-opacity=".2" d="M347.8 195.3q0 1 1.3 1.1a7 7 0 0 1-4 1.5 4 4 0 0 1 2.6-2.6"/><path fill="#f76d82" fill-opacity=".3" stroke="#f76d82" stroke-opacity=".3" stroke-width=".5" d="m448 108.1 1.4.2a2 2 0 0 1-1.7.6zm-386 24c-.6.6-2.1 3-3 1.6q1-1.7 3-1.6Z"/><path fill="#c08993" fill-opacity=".1" stroke="#c08993" stroke-opacity=".1" stroke-width=".5" d="m74.7 148.3.3 1q-.7 1.4-2.1 1.6l-.7-.6z"/><path fill="#e4e8eb" fill-opacity=".8" d="M168.7 233q.6-.3 1.3-.3 2.3 0 4.4.4a5 5 0 0 1-5 .7q-.6-.2-.7-.9"/><path fill="#e3e8ea" fill-opacity=".3" d="m181 169 .1 1.2c-.7.7-2 2.2-3 1.5q1-1.7 2.8-2.7"/><path fill="#f56b82" fill-opacity=".2" stroke="#f56b82" stroke-opacity=".2" stroke-width=".5" d="m61.3 13.3-1.2.8q.2-1 1.2-.8ZM232.1 327q-.9 2-3 2 .7-2 3-2Z"/><path fill="#f76c82" fill-opacity=".2" stroke="#f76c82" stroke-opacity=".2" stroke-width=".5" d="m165 310.8.1 1.4c-.7.7-2.1 2.4-3 1.5a8 8 0 0 1 3-3Z"/><path fill="#f84fa2" fill-opacity=".2" stroke="#f84fa2" stroke-opacity=".2" stroke-width=".5" d="m490.4 167.9-.4 1q-1.3 1.1-2.9 1c.2-1.6 2-2 3.3-2Z"/><path fill="#f76c83" fill-opacity=".5" d="M78.3 6Q76 6.3 74 6c.1-1.8 3.5-1.4 4.2 0"/><path fill="#a9acac" fill-opacity=".1" d="M264.6 403q.8.3 1.4 1-1.3 1-3 .9.4-1.3 1.6-2"/><path fill="#626270" fill-opacity=".1" stroke="#626270" stroke-opacity=".1" stroke-width=".5" d="m265.1 350.3 1.2-.1c.9.5-.3 1.7-1.1 1.7q-.2-.9 0-1.6Z"/><path fill="#f46c84" fill-opacity=".1" stroke="#f46c84" stroke-opacity=".1" stroke-width=".5" d="m160.4 294 1 .8q-.7 1.3-2.4 1.2.3-1.2 1.4-2Z"/><path fill="#e3e8ea" fill-opacity=".3" d="m135.9 113 .2 1.2q-.8 1-2 .9.4-1.5 1.8-2.1"/><path fill="#d9dcdf" fill-opacity=".4" stroke="#d9dcdf" stroke-opacity=".4" stroke-width=".5" d="M152 231.7q1.8-.1 3.2 1c-1 .1-3.5.9-3.3-1Z"/><path fill="#e0d5da" fill-opacity=".7" d="m395.7 207.2 1.6-.1-.5 2a2 2 0 0 1-1.2-.8z"/><path fill="#efa2b0" fill-opacity=".5" d="m372 170 2.1.1q-.7.7-1.8.7z"/><path fill="#f76c82" stroke="#f76c82" stroke-width=".5" d="m448 108.1-.3.8c-2.9 2.4-18.4 13-19.6 14.9q-2 0-3 1.9c1 1.3 2.7-1.1 3-2a128 128 0 0 0 25.7-14.6 35 35 0 0 1 12.5 4.3c-8.9 4.7-18.2 12.7-26.5 18.8-2 2-6.1 2.4-8.7 3.5-12.2 4.8-22.5 18.1-31.5 27.3a7 7 0 0 0-.3 4c-1.4 1.3-2.8 1.3-3.6 3.3q-3 .3-5.3 2.5c-1.8 1-9.6 4.7-10.3 6.2-2.1.2-6 3.5-8.4 4.2l-1 .1q-3.1-3-5.8-6.3 3.8-3 7.4-6.2 1 0 1.8-.7l18.8-14 2-2q2 .3 2.9-1.7c-1.2-.5-2.6.6-3 1.7a308 308 0 0 0-25 14l-.7.5-8.2 4.6c-.9-1.2-5-3-3-4.8l40.5-40.5a56 56 0 0 1 49.5-19.8Z"/><path fill="#f56d83" fill-opacity=".3" stroke="#f56d83" stroke-opacity=".3" stroke-width=".5" d="M428.2 123.8c-.4.8-2.2 3.2-3 1.9a4 4 0 0 1 3-2Z"/><path fill="#e0dee2" fill-opacity=".7" stroke="#e0dee2" stroke-opacity=".7" stroke-width=".5" d="m425.3 235-.5 2a2 2 0 0 1-1.3-.9q.6-1 1.8-1Z"/><path fill="#eeaab6" fill-opacity=".4" d="M438 243h2.1q-.6.6-1.3.9-.6-.3-.9-.9"/><path fill="#eac8cf" fill-opacity=".3" d="M430.3 231.9q-.4.8-1.3 1.1.1-1.2 1.3-1.1"/><path fill="#f96b82" fill-opacity=".2" stroke="#f96b82" stroke-opacity=".2" stroke-width=".5" d="M24.2 22.8q-.3 1-1.3 1.5.3-1 1.3-1.5Z"/><path fill="#e7d7df" fill-opacity=".3" d="M402.2 204.2q-.4.6-1.2.9.1-1 1.2-1"/><path fill="#e2e6eb" fill-opacity=".2" stroke="#e2e6eb" stroke-opacity=".2" stroke-width=".5" d="m291 278.1 1-.2q-.4.9-1 1.5z"/><path fill="#f46c81" fill-opacity=".3" stroke="#f46c81" stroke-opacity=".3" stroke-width=".5" d="m191 288.1 1.2.1a2 2 0 0 1-1.4.6z"/><path fill="#f76d82" fill-opacity=".4" stroke="#f76d82" stroke-opacity=".4" stroke-width=".5" d="m165 289.2 1.2-.4q-.3 1-1.5 1.2z"/><path fill="#e2e9e9" fill-opacity=".1" d="M120.9 195.9q-.1 1-1.3.8z"/><path fill="#f66c81" d="m477.2 208.5-.6.6q-.3-.7.6-.6"/><path fill="#e098a4" fill-opacity=".8" stroke="#e098a4" stroke-opacity=".8" stroke-width=".5" d="m370.7 183.3 1-.1.1.8q-.6-.1-1.1-.7Z"/><path fill="#e86b82" fill-opacity=".2" stroke="#e86b82" stroke-opacity=".2" stroke-width=".5" d="m48.3 9-.2.7-1.4.4q.4-1 1.6-1.2Z"/><path fill="#e4e9ed" fill-opacity=".2" stroke="#e4e9ed" stroke-opacity=".2" stroke-width=".5" d="m256.2 491.2-.4.7-1.2.1q.6-.9 1.6-.8Z"/><path fill="#e7c8ce" fill-opacity=".7" d="M429 233q-.2.9-1.1.6.3-.6 1.2-.6"/><path fill="#f298a5" fill-opacity=".5" d="m369.7 168.2.6.5-1.2-.1z"/><path fill="#c2c6ca" fill-opacity=".2" stroke="#c2c6ca" stroke-opacity=".2" stroke-width=".5" d="M265.2 351.9q-.3 1-1.2 1.1.3-1 1.2-1.1Z"/><path fill="#c7cacd" fill-opacity=".3" stroke="#c7cacd" stroke-opacity=".3" stroke-width=".5" d="M264 353q-.2 1-1 1 .2-.7 1-1Z"/><path fill="#bfc3c3" fill-opacity=".3" stroke="#bfc3c3" stroke-opacity=".3" stroke-width=".5" d="M263 354q-.3.8-1 .9.3-.6 1-.9Z"/><path fill="#d19da6" fill-opacity=".3" stroke="#d19da6" stroke-opacity=".3" stroke-width=".5" d="M262 354.9q0 .7-.7 1 0-.8.7-1Z"/><path fill="#ec7084" fill-opacity=".7" d="M261.3 355.9q-.4 1-1.4 1 .4-.8 1.4-1"/><path fill="#8a4753" fill-opacity=".6" d="M26.3 21.9a2 2 0 0 1-1.3 1.3q0-1.2 1.3-1.3"/><path fill="#cdd0d3" d="M103.8 142.2q-.1.4-.6.6 0-.6.6-.6"/><path fill="#c9cdd0" fill-opacity=".3" stroke="#c9cdd0" stroke-opacity=".3" stroke-width=".5" d="M222.6 463.3h1.5l-.4.6q-.7-.2-1-.6Z"/><path fill="#c15a6a" fill-opacity=".4" d="M37.8 74.6V76l-.5-.1q0-.7.5-1.2"/><path fill="#f86c81" fill-opacity=".3" d="M19.2 47h.8q-.1 1-1.3 1.2z"/><path fill="#eacad3" fill-opacity=".7" d="M401 205q-.2 1-1.1.6.3-.5 1.1-.5"/><path fill="#262626" stroke="#262626" stroke-width=".5" d="M74 6q2.1.3 4.2 0a76 76 0 0 1 38.9 16.4c33.7 30.5 64.2 65.2 97 96.7 32.8 30.2 29 81-10 103.4a72 72 0 0 1-27.9 9.4q-3.2-.4-6.2.8l-1.3.2c-3.2.6-11.1-.8-13.4-.2q-1.5-1-3.4-1c-26-4.6-45.2-30.4-63-48.1L43.4 138c-18.8-18-40-35.2-40.6-63.6-1-20.8 6.7-35.2 20.1-50.2q1-.4 1.3-1.5l.8.4a2 2 0 0 0 1.3-1.3q9.4-7.3 20.4-11.8.8 0 1.4-.4l9-2.3A66 66 0 0 1 74 6Zm-12.1 6c-1 0-3.1-.4-3.6.9-15.7.7-35.7 18.9-39.1 34.2l-.5 1c-1 .7-1.3 3.5-1.5 4.6A38 38 0 0 0 15 67.3V72a62 62 0 0 0 3.7 17.2q1.8 5.4 4.6 10.2.4 1.1 1.6 1.5c.3 2.3 4.2 7.6 6.4 8.3.1 1.6 2.1 3.6 3.7 3.8.3 1.4 5.5 7.1 6.8 7q.4.8 1.3 1.3c.3 1.4 5.5 7 7.1 6.6a171 171 0 0 0 22.7 23 5 5 0 0 0 2.7 3.3q1 1.4 2.4.2 38.3-38 76.3-76.3 1-1 .4-2.2c-1.4-1-3.8-5.2-5.8-4.5-.6-3-11.4-12.6-13.8-15.5A36 36 0 0 0 131 52a150 150 0 0 0-8.8-9.2c-2-1-6.3-7.3-8.3-6.8.2-1.6-3.5-5-5-5-.3-2-5.9-7-8-7.4 0-1.3-2.8-2.7-4-2.7-.4-1.7-8-5-10-5.3-1.6-1.4-5.6-2.3-7.8-2.9l-1 .2a36 36 0 0 0-16.2-1Zm-9.3 86.8q0-1.5-1.4-1.5c-1-2.4-6-7-8.3-8.7l-.2-.5c-2-4.2-4-7.7-5-12.2l.1-1.3q0-1.4-.5-2.6c.8-8.8 3-16.4 10.3-22 2-1.7 11.3-3.5 9.2 1.3-18.4 21.7 3.8 38.6 18.3 53 4 3.8-7.6 6.7-10.3 5.3q-6-5.5-12.2-10.8Zm51.2 43.4q-.6 0-.6.6a330 330 0 0 0-19 18.8c-.8 1.8 2.9 3.9 4 4.8-.2.8 3.5 4.5 4.6 4.3a21 21 0 0 0 7.3 7.5 6 6 0 0 0 2.6 3q3.9 4.3 8 8.2.4.4 1 .5c.5 1.7 5.4 6 7 7.4q2.3 2.6 5 5c7.9 8 15.5 15.3 26 20q1.5 1 3.3.8c.5 1.6 9.7 3.2 11.6 3.4 2.6-.4 2.7-.4 5 .5 30 1.3 52.2-24.1 54-52.7 1-4.3-1.7-24-4.4-26.3q-.9-3.2-2.1-6.2c-2-1.9-3.7-7.3-6.3-8.1q.1-1-.5-2c-2.3-2-4.8-5.7-7.4-7.1a8 8 0 0 0-4-3.7c-.2-1.6-5.3-6.8-7-7 0-1.6-2.6-3.2-3.5-4.3-2-1.8-5.2-6-7.6-6.9a3 3 0 0 0-1.5-2.1c-2-1.9-5-5.9-7.5-7 0-1-3.4-4.4-4.6-4.6a44 44 0 0 0-4-4.7q-1.2-.6-2.2.3c-18.7 18.8-39.2 38.5-57.2 57.6Zm172 121.8a65 65 0 0 1 19.4-47.3c31-31.3 62.7-62 93.2-93.8 26.6-26.5 62.3-34.6 94.5-12a65 65 0 0 1 6.7 99.2l-77 77c-18.8 20.4-38.2 41.3-68.1 41.7-37.6.4-68.5-26.3-68.8-64.8Zm85.1-90.7q1.5 2.2 4 3.7 2.7 3.3 5.8 6.3.5.5 1.1.7.7 1.5 2 2.2c1.4 1.6 5.5 6.6 7.4 6.6 0 1.8 3.6 4.5 5 5.6-.1.9 5.6 5.9 6.6 6.8q.8 1.4 2.3 2l.5 1q.5.7 1.2.8a62 62 0 0 0 8 7.8 21 21 0 0 0 7.3 7.2q.3 1.6 1.8 2.3a61 61 0 0 0 7.2 7q1 1.6 2.4 2.8.5.7 1.3 1 3 3.7 6.8 7a13 13 0 0 0 3.6 3.3q.8 1.8 2.3.6 5.6-5.9 11.6-11.5.6-.6.7-1.5 1.8-.3 2.3-2.3c1.3-.3 21.9-20.7 24.5-23.6l.6-.6c6.5-8 15.4-17 17-27.7 1-.2.4-2 .5-2.7a25 25 0 0 0 2-14.7c.6-3.3-.5-6.6-.8-9.9q0-.9-1-1.2.4-2.3-.5-4.4a47 47 0 0 0-3.5-9.1c-1-1.1-2.3-5.4-3.8-5.5-.9-3-4-6.2-6.1-8.6q-1.5-1.2-2.6-2.6c-2.2-1.8-6-5.4-8.6-6.2q-1.5-1.5-3.5-2.5a33 33 0 0 0-12.5-4.2q-2.1-1.3-4.4-.9l-1.5-.2a56 56 0 0 0-49.5 19.8l-40.5 40.5c-2 1.8 2.1 3.6 3 4.8Zm78.9-41.1c.2 1.3 1.9 1 2.8.8q7.9 1 15.5 3.6l.9.2c1.1 2.3 10.3 5.8 7.4 9-9.4 11.3-21.3-13.7-36.8.4-7.9 5-19.8 25.5-30.3 20.9q-.4-2.2.3-4c9-9.3 19.3-22.6 31.5-27.4 2.6-1.1 6.6-1.6 8.7-3.5ZM151 179q0 .8.6 1.3c7.5 8 16.4 14.2 27.4 8.3 3-2.6 11.2-8 14.3-3.3 2.4 5.6-13.2 12.1-17.3 13.2a34 34 0 0 1-34-10.7q-1.2-1.6-2.7-2.7-4.3-4.8-9-9.3c-2.3-2.5-7.2-5.5-2.9-8.9 9.7-8.5 17.7 10.5 23.6 12.1Zm142.6 58.8-1.7 4c-3.5 7-5 30.6-.9 36.3v1.3q.8 2.8 2 5.5 4 9 10.6 16.5.9 1.3 2.3 1.6c4.3 7.2 23.7 16.2 32.4 16.2q5.7.3 11.3-.2a56 56 0 0 0 28-11.7q25-24.1 49.4-48.7 1-1 .3-2.2c-3.7-3.6-11.3-12-15.2-14.5q-.2-1.2-1.1-2-7-6.9-14-14.1l-3.6-3.1c-6.7-7-16.2-17.3-23.6-23q-.3-1.6-1.5-2.7-3.9-3.4-7.3-7.3l-2.6-2-8.5-8.8q-.8-1-2-.5-22.5 22.5-44.8 45.1-5.8 6.4-9.5 14.3Zm17.8 33.1-.5-2.8c-2.1-21.5 15.7-31.4 28.8-44.8 2.6-1.5 9.8-2.7 9.2 2.1-1.2 2.6-17 17.5-19.9 21q-4.9 5.6-5.9 13c1.2 1.5 2-.1 2.9-1 1 .2 2.9-1.6 3.5-1q-2.8 2.3-6 4.5-.6.7-.5 1.5c.4 6.6 3.7 11.5 7.5 16.5q.3 1.8-1.3 2.9c-9.7 7.2-15.4-3.8-17.8-11.9Zm-198 72.1c1.6-57.7 68.6-86 112.6-49.5 26.6 25.2 52.3 51.8 78.2 77.8 20.2 19.5 43 37.4 43 68.2 1.3 61.1-72.3 90.5-116.2 49L152.5 410c-20-18.2-40-37.7-39-67Zm59-54.3c-1-2-4.6-.3-6.2.1l-1.2.4a54 54 0 0 0-38 41.4 62 62 0 0 0 6.6 40.4c1.3 2 3.4 6.7 5.7 7.3q-.5 1.3 1 1.6c-.2 1.2 5.7 7 7 7.1 0 1.2 3.4 4.7 4.5 4.7 4.2 5.3 9.4 10.3 14.5 14.7q.5 1 1.4 1.7 3.9 4.2 8.1 8.3.9 1.1 2.1 1.4c.1 1.5 5.4 6 6.7 7.3q.4.7 1 1.2c1.2.9 2.4 3.3 4 1.8l63.5-63.5q3.6-3.6 6.8-7.6 1-.2 1.4-1.1.6-.3.7-1 .7 0 1-.9.8 0 1-1 .9-.3 1.2-1.2c.8.1 2-1 1-1.6q-7-7.5-14.3-14.6-2.4-3-5.5-5.4a27 27 0 0 0-7.7-7.3q0-.6-.6-.5c-.5-1.9-5.7-6.8-7.4-7.5 0-1.2-1.7-2.2-2.4-3a97 97 0 0 0-7.4-7q-.5-.5-1.3-.5c.3-1.5-6.6-7.1-7.6-7h-1c.3-2.4-8.1-5.6-10.1-6.3a26 26 0 0 0-8.7-2.9H191c-4.1-1.2-14.9-2.2-18.5.5Zm5.7 80.4q.7 1 1.5 1.8l6.8 7c1.6 2.7-3.5 4-5.2 4.7-6 1.8-7.2-2-11.5-4.7a4 4 0 0 0-2.6-2.7c-4.3-6-12.5-11.8-15.5-18.5q-.4-1-1.3-1.7c-3.2-11.9-1.7-24.7 9-32.2 1.9-1.1 10.3-3 8.4 1.5-14.4 17.2-4 33 10.4 44.8Zm18 67.3q2 2.6 4.5 4.5 3.3 4 7.4 7.3 2 2.8 4.8 4.8 3.2 3.9 7.2 7.2 1 1.8 2.6 3.1.5.5 1.1.6a66 66 0 0 0 9.2 9 123 123 0 0 0 15.8 15.4l6 3.7 1-.1c1.3 1.9 8.9 4.3 11.3 4.4.4.9 4.6 1.1 5.8 1.5 25.2 2.1 45.5-7.9 56.7-30.9q.5-.7 0-1.6-2.4 1.7-5.2 2.5-.2-.5.1-.9l2.8-1.2c5.4-5.3 6.8-11.2 7.1-18.8.1-1.6 1-5.7-.2-6.9 0-7.6-2.4-15.2-5-22.2l-1.8-3q-1.9-4.4-5.4-8a7 7 0 0 0-2.7-3.1 86 86 0 0 0-12-12.7q-3.5-3.7-7.2-7.1l-3.8-4.3q-.8-.3-1.4-.9l-13.7-13.8q-1-.7-2-.9c-.6-2.2-3.8-4.4-5.2-6.2q-1.3-1.3-3-.3l-76 75.9q-1.2 2.1 1.1 3Zm84 34.3q-2 .5-3.9.4c-11.5-.4-16.7-5.5-25.2-12-.3-2-7-7.8-8.8-9.4a3 3 0 0 0-2-1.5c-.8-1.9-5.3-4.8-1.8-6.3q3.4-1.8 7.3-2.4c4.4-.8 19 18 23.7 20.7 17.3 14.5 25.2-5.7 34.6-1.6 2.7 4-19.5 13.4-24 12Z"/><path fill="#f76c82" stroke="#f76c82" stroke-width=".5" d="m78 13-.2.8Q65.6 24.3 53.3 34.3q.7.6 1.7.3l32-19c1.9.3 9.5 3.7 9.9 5.4-3 1-20.1 15.4-24.3 18.1l-1.4 1.6c-.7.7-2.8.5-2.9 1.6 1.5 1.4 2.4-.4 3.6-1.1l27.8-16a2 2 0 0 0 1.1-1.5c2.2.4 7.8 5.4 8.2 7.4q-1 0-1.7.6L73.5 58q-.9.6-1.3 1.8-2 0-3 1.8c.8 1.2 2.6-1 3-1.8 6.3-2.2 32.5-18.5 40.5-22.7q.8-.4 1.2-1c2-.6 6.4 5.6 8.3 6.7q-1.5.2-2.8 1l-11.3 8.5q-3.3 1.5-6 4.3c-.6.7-2.8.5-2.8 1.7 1.5 1.3 2.7-1 4-1.6q10.6-5.7 20.7-12 3.7 3.6 7 7.4a2 2 0 0 0-1.7.5q-15 11.6-30.4 22.8-.8.5-.7 1.5-2.1 0-3 1.7c1 1 2.5-1 3-1.7 2.6-.5 35.2-19.2 36.8-21.1 2.5 3 13.3 12.5 13.9 15.5-1 .3-2.6.2-2.8 1.3.8 1.3 2.5-.4 2.8-1.3 2-.7 4.4 3.5 5.8 4.5q.6 1.2-.4 2.2-38 38.3-76.3 76.3-1.3 1.3-2.4-.2c3.8-4.8 10.6-9.5 14.1-13.8q-.3-.5-1-.3l-12.5 8-1.5.4-2.5 2c-2.6-1.4-22-21-22-22.5.9.2 3.5-1 2.4-1.9q-1.8.3-2.4 1.9c-1.6.4-6.8-5.2-7-6.6 1.2-1.3 7.4-4.7 7.8-6.1.7-.1 4.2-.8 2.5-2q-1.8.1-2.5 2c-2-.2-7.2 3.7-9.2 4.7-1.3.3-6.5-5.5-6.8-7a459 459 0 0 0 17-12.4q.8-.7.6-1.6 6.3 5.2 12.2 10.8c2.7 1.4 14.2-1.5 10.3-5.3C60.6 90 38.4 73 56.8 51.3c2.1-4.8-7.2-3-9.2-1.3-7.3 5.6-9.5 13.2-10.3 22-2.9-.2-17.1 9-20.5 11A62 62 0 0 1 15 72c2.1-.2 20.4-15 23.6-17.5q-.2-.3-.8-.1a666 666 0 0 0-22.8 13 38 38 0 0 1 2.2-14.7q.8.2 1.5-.4 7-6 14-11.6a1 1 0 0 0-1-.4L20 47h-.8c3.4-15.1 23.4-33.3 39.1-34q-.2 1.1-1.4 1c-.7.7-3.4 2.2-2.5 3.3a31 31 0 0 0 5.7-3.1l1.2-.8q.8-.5.6-1.4A36 36 0 0 1 78 13.1ZM53.7 62.4c.8 0 3.8-1.3 2.8-2.4q-2.2.2-2.8 2.4Zm79.4 6.6c-1 .2-2.7.5-3 1.6 1 1.6 2.4-.9 3-1.6 1.6.2 3.3-1.3 4.6-2q.5-1.5-1-1c-.7.7-3.7 1.8-3.6 3Zm-95.8 6.8h.4c1 4.6 3 8 5 12.3-1.6-.5-4.3 2-5.7 2.6-4.2 3-10.2 5.2-13.7 8.6a53 53 0 0 1-4.6-10.2c2.6.5 15.5-11.5 18.6-13.3Zm28.4 13.4c.8 0 4-1.1 2.8-2.2q-2 .2-2.8 2.2Zm-22.8-.6a38 38 0 0 1 8.3 8.7c-3 .8-15.2 8.6-18.9 10.4q-1 .4-1 1.4c-2.2-.6-6-6-6.4-8.3 1.7.4 11.2-7.9 13.5-9q2.3-1.5 4.5-3.2Zm426.9 27.3c2.6.8 6.4 4.4 8.6 6.2a566 566 0 0 1-20.3 14.5q-7.5-2.7-15.5-3.6c3.1-2.9 21.4-12.6 26.4-15.7q.8-.5.8-1.4Zm11.2 8.8c2 2.4 5.2 5.5 6.1 8.6a2 2 0 0 0-1.8.3l-40 30.8q.5.3 1 .2l44.6-25.8q2.2 4.5 3.5 9.1-10.2 6.9-19.7 14.4-2.2 1.2-4.2 2.7-1 .7-1.4 1.9a4 4 0 0 0-3.2 2q-1.1 0-1.8.8c.6 1 2 0 1.8-.8q2.1-.2 3.2-2c1.6.3 5.4-2.4 6.6-3.2q9.8-5.5 19.3-11.4.9.3.9 1.2c.3 3.3 1.4 6.6.7 9.9q-.7-.3-1.6.2a13 13 0 0 1-4 3q-.7.4-.6 1.3c-1.3 0-3.1.4-3.3 2q-2 0-3 1.7c1 1.1 2.7-.8 3-1.7q1.5.1 2.9-1 3.5-2 6.8-4.3c.3 4.2.1 9.9-2.1 13.5l-.9.2q-3 2.4-6.4 4.7-.9.7-1.3 1.8a2 2 0 0 0-2 1.2c-1 .5-2.8.5-3 1.7 1 1.6 2.4-1 3-1.7q1.5.3 2-1.2c1.9.3 6.2-3.2 8-4-1.5 10.6-10.4 19.7-17 27.7q-.8-.2-.5.6a413 413 0 0 1-24.5 23.6c-1.7-1.9-3.3 1.5-5 2l-.1.7q-1-.1-1.7.3-5 3-10.1 5.7v.3q-2 .8-3.6 2.4a51 51 0 0 1-6.8-7l.5-2h.4q1.2 0 1.6-1.3l.6-.2q1 .3 1.1-.6.9-.3 1.3-1.1c3.1-.8 15-11.7 18.3-14.3q-1.6-.6-2.5 1c-7.6 4.3-18.1 9.7-25 14.8a61 61 0 0 1-7.2-7 73 73 0 0 0 8.2-6.3q2.6-1.4 4.9-3.1a6 6 0 0 0 3-3 3 3 0 0 0 2.9-1.6c-1-1.2-2.5.8-3 1.6q-2.6 0-3.9 2.2-2.7.8-5 2.4-4.5 2.6-8.9 5.4a21 21 0 0 1-7.3-7.2c1.8.3 5-3.2 6.5-4.1a20 20 0 0 0 5.6-4l1.7-.7 3.3-2.6c-1-1.2-4.4 1.7-5.2 2.6-1.8.1-4.8 2.7-6.4 3.4-1.5 1.3-6.5 2.6-6.5 4.9a62 62 0 0 1-7-7.3l.5-2 .5.3q1.2-.5 1.6-1.5l.5-.2q1 .3 1.1-.5.8-.3 1.2-1c4-2.1 18.5-12.8 21.7-16 .7-.2 3.8-1 2.6-2a3 3 0 0 0-2.6 2c-7.3 3-15.6 8.5-22.7 12.5l-8.4 4.6c-1-1-6.7-5.9-6.7-6.8 2-1.4 7-4 7.3-6.6q1.2.3 2.3-.4l34-25.8q-.4-.5-.9-.3a2306 2306 0 0 0-40.6 23.4c-2.6 2-3.2 3-6.6 3.7q-.4 0-.4.4c-2 0-6-5-7.4-6.6 1.6-1 7.8-4.6 8.2-6.1 2.8-.8 8.7-6.1 11.7-7.8q1.2-1 2-2c.8-2 2.2-2 3.6-3.2 10.5 4.6 22.4-16 30.3-21 15.5-14 27.4 11 36.8-.3 2.9-3.2-6.3-6.7-7.4-9 2.6.3 19.9-10.4 22-12Zm-419 7.4q-2 0-3 1.6c.9 1.3 2.4-1 3-1.6.5.1 2.6-.5 1.5-1.2q-1.2 0-1.5 1.2Zm6.6 8c.8 0 4-1 3-2.1q-2.2 0-3 2.2Zm379.2 95.3 2-.4q0 .9-.8 1.5L437.6 248q-1.5 1.1-2.3-.6c1.1-.9 3.2-2 3.6-3.5l1.3-.8q4.2-3.6 7.7-7.7ZM190.9 288v.7q-12.1 10-23.8 20.6l-2 1.4a8 8 0 0 0-3 2.9c.9.9 2.3-.8 3-1.4l1-.3c3.8-2.6 34.5-19.1 34.8-20.9 2 .7 10.4 3.9 10.1 6.3q-1-.2-1.4 1c-1.5-1-3.8 1.3-4.5 2.6a4 4 0 0 0-3 1.7c1 1.1 2.6-.8 3-1.7 1.5 0 4-1.1 4.5-2.7q1.4-.1 2.4-1c1 0 8 5.6 7.6 7-1.3-.6-3.9 2-5.1 2.7l-.5.9q-1.8.2-2.8 1.8c.8 1.4 2.5-1 2.8-1.8 1.9.5 5-2.4 7-3a97 97 0 0 1 7.3 7c-2.7 0-22.5 15.8-26.3 18.6q-.8.7-.7 1.8l-1.5-.2q-2.5 1.5-4.6 3.5l.2.5c1.3 0 3.7-1.8 4.6-2.8l1.3-.6 28.7-16.4q.8-.5.7-1.4c1.7.7 7 5.6 7.4 7.5-1.7.7-5.3 2.7-6 4.5q-2.3 0-3 2c-.8 0-2.2 0-2 1.1q-2 .3-3 1.7c1 1.5 2.3-1 3-1.7q1.5.3 2-1 2.1 0 3-2.1 1 0 1.9-.5c1-1 5-1.8 4.7-3.5 2.6 1 6 5.1 7.7 7.3l-40.1 31.2q.8.6 1.7 0l43.9-25.8q7.5 7 14.4 14.6H265l-1 .3q-8.8 6.8-18.3 12.9-1.7 1.4.5 1.2l11.7-7q.9-.5 2-.6-3.2 4-7 7.6L189.7 428c-1.6 1.5-2.8-.9-4-1.8q1.8-1.8 4-3.2.3-.6-.2-1c-1.2 0-3.9 2.2-4.8 3-1.2-1.4-6.6-5.8-6.7-7.3 2-.3 16.3-11.6 18-13.6.7-.2 3.9-1 2.7-2.2q-2.1.1-2.7 2.2c-3.6.7-14.9 8.1-19 10.2q-1 .7-1 2-4.3-4-8.2-8.3 1.3.2 2.4-.4l14.5-10.5 2.2-2c.7-.4 3.9-1 2.7-2.3q-2 .4-2.7 2.3l-1.9.1q-9.2 5.7-18.6 11.1c-5.1-4.4-10.3-9.4-14.5-14.7q1 .3 2-.3 7.4-6 15.2-11.9.8-.6.7-1.6c4.3 2.7 5.6 6.5 11.5 4.7 1.7-.7 6.8-2 5.2-4.7l-6.8-7q6.3-4.3 12.1-9.3-1.7-.6-2.6 1a75 75 0 0 0-11 6.5c-14.4-11.8-24.8-27.6-10.3-44.8 1.8-4.5-6.6-2.6-8.4-1.5-10.8 7.5-12.2 20.3-9 32.3l-19.2 11.2c-5.2-11.8-6-23-4.2-35.7a2 2 0 0 0 2-.3q10.2-9 20.6-17.7a1 1 0 0 0-.9-.2q-10 5.7-19.8 11.7c5.5-16.9 19-30 36-35l-.2 1-4.3 3.9q-1 .8-1.4 2-1.6.2-2.7 1.4c.7 1.2 2.4-.6 2.7-1.4q1.7.2 2.4-1.2c1.7 0 9.2-5 11-6 3.6-2.8 14.4-1.8 18.5-.7Zm63.9 57.1c.7 0 4.2-1 2.7-2.1q-2 .3-2.8 2.1Zm-103.2 11.5c3 6.7 11.2 12.5 15.5 18.6a146 146 0 0 0-19.8 11.7c-1.3 0-7.2-5.9-7-7.1q2.5-1.2 4.6-3.3a5 5 0 0 0 3.1-2.5q2.3 0 3-2c.6.1 2.7-.5 1.6-1.2q-1.2.2-1.6 1.2c-1.1.4-3 .4-3 2q-2.5 0-4 2.1-2.5.7-4.7 2c-2.3-.5-4.4-5.3-5.7-7.2 4.6-3.8 14.8-10 18-14.3Zm9.1 42q.8.2 1.1-.4-.7-.3-1 .5Z"/><path fill="#e4e8eb" stroke="#e4e8eb" stroke-width=".5" d="M167.2 89 138 111.5q-.7.5-.8 1.4H136q-1.5.7-1.9 2.2-1.9 0-3 1.5c1 1.5 2.5-.8 3-1.5q1.4.2 2.1-1l1.3-.4q17.3-9.9 34.4-20c2.4 1 5.4 5 7.5 6.9q-1.3.3-2.4 1l-13.9 9.9q-.6.5-.9 1.3a4 4 0 0 0-3.2 2.1q-1.3 0-1.9 1-.5 0-.8.5.6.3.8-.4 1.4.3 2-1 2.2-.1 3.1-2.2 1 0 1.9-.4 8.4-4.7 16.8-9.7c2.4.9 5.6 5 7.6 6.9-6 3-24 17.9-30.8 22.7a5 5 0 0 0-2.5 2.5q-2 .1-3 1.8c1 1.3 2.6-1 3-1.8q2 .2 3.7-1.3c4.4-2.8 31.5-17.6 33.1-19.6 1.6.2 6.8 5.4 7 7l-25 18.6q-.8.7-.7 1.8l-1.4-.3a36 36 0 0 0-4.8 3.7l.3.4c1.3.2 3.6-1.8 4.6-2.8l1.2-.7q15-8.1 29.7-17c2.6 1.4 5 5.2 7.4 7.1-2.8.4-8.5 5.2-10.7 7.2q-3.2 1.4-5.4 3.8c-.6 1-3 .5-3 1.6q.9.6 1.8.3l17.8-11c2.6 1 4.3 6.3 6.3 8.2q-1.5.4-2.6 1.2L183 167.5q-.6.5-.7 1.4H181a7 7 0 0 0-2.8 2.8c1 .7 2.3-.8 3-1.5l1.3-.5c4.6-3 35.3-19.6 36.8-21.7 2.7 2.3 5.4 22 4.4 26.3-1.8 28.6-24 54-54 52.7-2.3-.9-2.4-.9-5-.5-2-.2-11.1-1.8-11.6-3.4 1.6-.1 12.7-9.2 15-10.9l1.7-2c.6-.2 4-1 2.8-2.1q-2 .3-2.8 2c-3.2 1.7-19.5 9.6-20 12.3a87 87 0 0 1-26-20.1 79 79 0 0 0 18.3-14.5 34 34 0 0 0 34 10.7c4.1-1 19.7-7.6 17.3-13.2-3.1-4.7-11.4.7-14.3 3.3-11 5.9-20-.3-27.4-8.3a5 5 0 0 0 2.5-.8l8.5-6.9q-1.7-.7-2.4 1.1a58 58 0 0 0-7.9 4q-.9.4-1.3 1.3c-6-1.6-13.9-20.6-23.6-12-4.3 3.3.6 6.3 2.8 8.8q-1.2 1.8-2.2 3.7c-2.4.2-3.7.3-5.8 1.9l-10.3 6a3 3 0 0 0-1.3 2l-8-8.2c3.5-.1 24.4-18 29.4-20.7q1-.4.8-1.4c.7 0 4-1 2.7-2q-1.9.3-2.7 2c-10 4.6-21.4 12.3-31.5 17.6q-.9.5-1.2 1.5c-1.8-.7-6.8-5.6-7.3-7.4a1397 1397 0 0 0 34.7-26.2c-.4-1-2.7 1-3.5 1q-18 10.3-35.8 20.8c-1.1-1-4.8-3-4-4.8a330 330 0 0 1 19.6-19.4c18-19.1 38.5-38.8 57.2-57.6q1-.9 2.2-.3l4 4.7Zm-91.6 65a5 5 0 0 1-2.7-3.2q1.4-.3 2-1.6 1-.5 1.3-1.4l12.5-7.9q.6-.2 1 .3c-3.5 4.3-10.3 9-14.1 13.8ZM369 168.6l1.2.1 1.6 1.2.4.9q-3.6 3.2-7.4 6.2-2.5-1.4-4-3.8zm-10.7 19c-2.7.6-6 4.3-8.5 5.8q-.6 1.5-2.1 1.9a4 4 0 0 0-2.6 2.6q-2 0-3 1.8c.7 1.2 2.7-1 3-1.8q2.1 0 3.9-1.5c.8-1.1 9.9-5.7 11.9-6.7q3.4 3.9 7.3 7.3l-9.1 7.3a5 5 0 0 0-3.1 2.5q-2.2.3-3 2.3-2 0-3 1.5c.9 1 2.6-.6 3-1.5q2.4 0 3-2.3c1.4.6 2.7-.7 3.6-1.2l10.1-6c7.5 5.8 16.9 16.1 23.6 23q-1.3 0-2.5.7c-6.6 5.2-24.7 17.8-29.7 22.5q-1.6.7-2.8 1.5.3.5.8.3a740 740 0 0 0 37.9-21.8l14 14.2q-6.8 4.5-13.3 9.4a4 4 0 0 0-2.5 2.4c-2 .1-3.9 1.5-5 2.9.4 1.2 4.6-1.7 5-2.9 1.3.6 2.7-.9 3.9-1.4 2-2.3 12.3-5.8 13-8.5 4 2.5 11.5 10.9 15.2 14.5q.8 1.2-.3 2.2a3483 3483 0 0 1-49.3 48.7 56 56 0 0 1-28 11.7q15.3-12.3 31-24.4-.4-.5-1-.4-2 1.7-4.4 2.4-18 10.7-36.2 21-.7.7-.8 1.6c-8.7 0-28-9-32.4-16.2 2-.2 16-10.7 18.7-12.8 3.5-2.2 8.3-5.3 11.3-8a8 8 0 0 0 3-1.9c-1-1.5-2.3 1.3-3 1.8-1.2 0-9.1 4.7-10.4 5.7q-10.5 5.5-20.6 11.5-1.2.8-1.3 2.1-6.7-7.4-10.5-16.5c2-.7 17.5-12.3 18.4-14 2.3 8 8 19 17.8 11.9q1.5-1 1.2-2.9c-3.8-5-7.1-10-7.5-16.4q-.1-1 .6-1.6l6-4.5c-.7-.6-2.7 1.2-3.6 1-.8.9-1.6 2.6-2.9 1q1-7.4 6-13c2.9-3.5 18.7-18.4 19.8-21 .6-4.8-6.6-3.6-9.2-2.1-13.1 13.4-31 23.3-28.8 44.8-3.4-.2-15 8.2-19 9.8l-.9.2c-4.2-5.7-2.6-29.2.9-36.3q1.2.2 2.2-.3c2.1-2 13.8-9.8 14.6-11.4.5-.4 4.4-1.1 2.8-2.2q-1.8.5-2.8 2.2l-1.2.2-11.9 6.8q-1 .6-2 .7 3.6-7.8 9.5-14.3 22.2-22.7 44.8-45.1 1.2-.4 2 .5zM380 179q.8.8 2 1c-.5 1.6-6.7 5.3-8.3 6.2q-1.3-.8-2-2.2l-.1-.8c2.3-.7 6.3-4 8.4-4.2Zm-166 9c-1 .4-2.8.4-3 1.7 1 1.1 2.5-.9 3-1.6.9 0 4-1 2.5-2.1q-2 .1-2.5 2Zm174.1.7q3.4.3 5.2 3.1c-.2 2.6-5.3 5.2-7.3 6.6-1.3-1-5-3.8-4.9-5.6q0-.3.4-.4c3.5-.7 4-1.6 6.6-3.7Zm13 12a8 8 0 0 1-2 3.1q-2.1 1.5-4.1 3.4-1.5-.6-2.3-2zM142.7 214c.7-.2 4.1-1 2.9-2.2q-2.3 0-3 2.2Zm28 10.3c.8 0 4-1.3 2.8-2.4a3 3 0 0 0-2.8 2.4Zm264.6 17.3q1.5.3 2.6 1.3.3.6 1 .9c-.5 1.5-2.6 2.6-3.7 3.5a13 13 0 0 1-3.6-3.3q1.5-1.6 3.7-2.4Zm-102.7 13.5c.8 0 4-1 3-2.3q-2.2.3-3 2.3ZM294 265c-1 .4-2.7.4-3 1.6.7 1.4 2.5-1 3-1.6a2 2 0 0 0 1.9-.9c-.6-.8-1.7.2-2 .9Zm28 39.9q-2 0-3 1.7c.9 1.3 2.5-1 3-1.7q1.2.2 1.9-.7c-.6-1-1.8 0-2 .7Zm-57 45.4v1.5q-.8.3-1 1.2-.9.3-1.2 1-.6.3-1 .9-.7.2-.6 1-1 .2-1.4 1-1 .3-1.9.8l-11.7 6.9q-2.2.2-.4-1.2 9.3-6 18.3-12.9zm14 13.7q-1.2.6-2.2 1.4-.6.9-1.5 1.6-3 1.1-5.2 3.7l-1.3.3q-1.4.6-1.8 2c-1 .4-2.8.4-3 1.6.9 1 2.5-.6 3-1.5q1.2 0 2-.9 1-.5 1.1-1.5 1.3.3 2.5-.4 3-2.5 7-4 1-.5 1.4-1.4l13.7 13.8 1.4 1c-6.5 3.3-21.2 15.8-28.2 20.7a7 7 0 0 1-3.4 2.5q-1.2.7-1.5 2-2.1 0-3 1.7c.9 1.3 2.7-.8 3-1.7q1.5.1 2.9-1l32.6-18.8q.8-.4 1.5-1.2 3.6 3.4 7 7.1l-40.8 31.3c1 1 1.7-.6 2.3-1.1q2.3-.8 4.3-2l37.3-21.5q.8-1.1 2-2 3.7 3.8 7 8c-5.3 2.3-22.7 17-29.2 20.9q-.8.4-.8 1.2c-.8.6-2.9.7-3 1.8.9 1.3 2.7-.9 3-1.8l1.9-.2q14.6-8.7 29.6-17.3 1-.5 1.3-1.5 3.3 3.6 5.3 8L309 428.6c-.8.8-3.1.7-3 2.2-1 .3-2.8.4-3 1.8 1.3.8 2.5-.7 3-1.8l2-.2 21-12.8c2.6 7 5 14.6 5 22.2-2.2 1-25.7 20-27 21.8q-1.8.2-2.9 1.9c.9 1.3 2.6-1.2 3-2 4.6-1 21.7-12 27.1-14.8-.3 7.6-1.7 13.5-7.1 18.8l-2.8 1.2q-.3.4-.1.9a4 4 0 0 0-3.3 2.3q-.7-.1-.6.5.5-.2.6-.5 2.4 0 3.3-2.3 2.9-.9 5.3-2.5.3.7-.1 1.6c-11.2 23-31.5 33-56.7 31q1-1 2.2-1.4l17.7-14.8q-1.5-.5-2.4.9a172 172 0 0 0-23.3 13.7c-2.4 0-10-2.5-11.2-4.4l.4-.7 23-18.5q1-.8.8-2c4.5 1.3 26.7-8 24-12-9.4-4.2-17.3 16-34.7 1.5-4.7-2.7-19.2-21.5-23.6-20.7q-3.9.5-7.3 2.4c-3.5 1.5 1 4.4 1.7 6.3-3 1.6-19.1 10-20.1 12q-4-3.2-7.2-7.2a2204 2204 0 0 0 34.7-27c1-.8 3.4-1.3 3.4-2.8.3-.5 4.1-1.2 2.6-2.2q-1.7.6-2.6 2.2l-1.3.2-40.5 23.3q-.8.4-1 1.5a52 52 0 0 1-7.5-7.3q18-13.7 36.2-27.2a1 1 0 0 0-1-.4c-1.1 1.1-2.5 1-3.5 2.3a605 605 0 0 0-36.2 20.8q-2.4-.9-1.1-3l76-76q1.7-1 3 .4c1.4 1.8 4.6 4 5.2 6.2Zm4.9 11q-2 0-3 1.6c1 1 2.6-.6 3-1.5q2 0 3-1.7c-1-1-2.7.6-3 1.7Zm39 59q-1-.1-1.8.7c.6.9 1.8.1 1.9-.6.7-.3 3.8-1 2.5-2.2q-2 .1-2.5 2.2Zm-68.2 6.2c.2 0 1.8-.6.7-1a1 1 0 0 0-.7 1Zm-12.6 9.5c1.8 1.6 8.5 7.5 8.8 9.5l-3 2.8q0-1.2-1.3-1l-14.9 8.4q-1 .8-1 2a66 66 0 0 1-7-7.5l.3-.6z"/><path fill="#ebeef0" fill-opacity=".3" d="M324.3 467.8q-.9 2.3-3.3 2.3a4 4 0 0 1 3.3-2.3"/><path fill="#e4e9ec" fill-opacity=".4" d="M307.2 461.8c-.4.8-2.1 3.2-3 1.9q1-1.6 3-2"/><path fill="#e3e9ec" fill-opacity=".3" d="M254.8 440.2q0-.7.7-1c1.1.4-.5 1-.7 1"/><path fill="#e5e7ec" fill-opacity=".3" d="M322 305c-.5.7-2.1 3-3 1.7q1-1.5 3-1.7"/><path fill="#e4e9eb" fill-opacity=".5" d="M294 265c.2-.6 1.3-1.6 1.9-.7a2 2 0 0 1-2 .7m42 17.1c.6-.5 1.9-3.3 3-1.8a8 8 0 0 1-3 1.8M322 305c.1-.8 1.3-1.6 1.9-.7q-.7.9-2 .7m-32.8 120.8c-.3 1-2.1 3.1-3 1.8.1-1.1 2.2-1.2 3-1.8"/><path fill="#e6eaec" fill-opacity=".3" d="M332.6 255.2a3 3 0 0 1 3-2.3c1 1.2-2.2 2.3-3 2.3"/><path fill="#e5e8eb" fill-opacity=".3" d="M395.2 251.8c-.4 1.2-4.6 4.1-5 2.9a8 8 0 0 1 5-2.9M321 470.1l-.6.5q0-.6.6-.5"/><path fill="#e4e8eb" fill-opacity=".5" d="M308.7 230a5 5 0 0 1 2.8-2c1.6 1-2.3 1.7-2.8 2"/><path fill="#e4e8eb" fill-opacity=".3" d="M170.7 224.4a3 3 0 0 1 2.8-2.4c1.2 1-2 2.4-2.8 2.4M294 265c-.5.6-2.3 3-3 1.6.3-1.2 2-1.2 3-1.6m29 169q.6-2 2.6-2.2c1.3 1.2-1.8 1.9-2.5 2.2"/><path fill="#e4e8eb" fill-opacity=".5" d="M353 209c-.3 1-2 2.6-2.9 1.6q1-1.6 3-1.5m-46.9 221.8c-.5 1.1-1.7 2.6-3 1.8.2-1.4 2-1.5 3-1.8"/><path fill="#e4e9ea" fill-opacity=".4" d="M169.7 210.2a4 4 0 0 1 2.8-2.1c1.3 1-2.2 1.9-2.8 2"/><path fill="#e4e8eb" fill-opacity=".4" d="M214.1 188c-.5.8-2 2.8-3 1.7.2-1.3 2-1.3 3-1.6m-71.4 26q.5-2.1 2.9-2.1c1.2 1.2-2.2 2-3 2.2"/><path fill="#ebeef0" fill-opacity=".2" d="M214.1 188q.5-1.9 2.5-2c1.4 1.1-1.6 2.1-2.5 2"/><path fill="#e4e6ec" fill-opacity=".3" d="M155.1 134.8c-.4.9-2 3-3 1.9a3 3 0 0 1 3-1.9"/><path fill="#e4e7ea" fill-opacity=".4" d="M157 116q-.2.7-.8.4.3-.4.8-.4"/><path fill="#e5e8eb" fill-opacity=".4" d="M159 115q-.5 1.3-2 1 .6-1.2 2-1m-26.3 44a3 3 0 0 1 2.7-2c1.4 1-2 2-2.7 2M267 373c-.5.9-2.1 2.5-3 1.5.2-1.2 2-1.2 3-1.5"/><path fill="#e5e8eb" fill-opacity=".3" d="M162.1 112.8a3 3 0 0 1-3.2 2.1 4 4 0 0 1 3.2-2.1m194 94q-.6 2.3-3 2.3.8-2 3-2.3"/><path fill="#f76d83" fill-opacity=".4" stroke="#f76d83" stroke-opacity=".4" stroke-width=".5" d="M151 372q.5-1 1.5-1.1c1.2.8-1 1.3-1.5 1.2Z"/><path fill="#f76c83" fill-opacity=".5" stroke="#f76c83" stroke-opacity=".5" stroke-width=".5" d="M254.8 345.2q.7-1.9 2.7-2.1c1.5 1.1-2 2.1-2.8 2.1Z"/><path fill="#f86c82" fill-opacity=".4" stroke="#f86c82" stroke-opacity=".4" stroke-width=".5" d="M205 301c-.3 1-2 2.8-3 1.7a4 4 0 0 1 3-1.7Z"/><path fill="#f96c84" fill-opacity=".2" stroke="#f96c84" stroke-opacity=".2" stroke-width=".5" d="M209.7 298.3c-.6 1.6-3 2.8-4.6 2.6.7-1.2 3-3.5 4.6-2.6Z"/><path fill="#f86c81" fill-opacity=".3" stroke="#f86c81" stroke-opacity=".3" stroke-width=".5" d="M430 214c.4-.8 1.9-2.8 2.9-1.6a3 3 0 0 1-3 1.6Zm-216 93.9c-.3.8-2 3.2-2.8 1.8q1-1.6 2.9-1.8Z"/><path fill="#f66c82" fill-opacity=".2" stroke="#f66c82" stroke-opacity=".2" stroke-width=".5" d="M486 184.8q-.3 1.5-2 1.2a2 2 0 0 1 2-1.2Z"/><path fill="#f66b83" fill-opacity=".3" stroke="#f66b83" stroke-opacity=".3" stroke-width=".5" d="M487.1 169.9c-.3 1-2 2.8-3 1.7q1-1.6 3-1.7Z"/><path fill="#f86c82" fill-opacity=".3" stroke="#f86c82" stroke-opacity=".3" stroke-width=".5" d="M469 166.9q-1 1.8-3.1 2a4 4 0 0 1 3.2-2Zm-240 162q-.5 1.5-2 1.1c-.1-1.1 1.3-1.1 2-1Z"/><path fill="#f76c82" fill-opacity=".5" stroke="#f76c82" stroke-opacity=".5" stroke-width=".5" d="M51 115q.6-1.8 2.6-1.8c1.6 1-1.8 1.8-2.6 1.9Zm11 17.1q.3-1 1.5-1.2c1.1.7-1 1.3-1.5 1.2Zm403.9 36.8c.1.9-1.2 1.8-1.8.8q.6-1 1.8-.8ZM160.7 398.8q.4-.8 1.1-.5-.3.6-1 .5Z"/><path fill="#f66a83" fill-opacity=".3" stroke="#f66a83" stroke-opacity=".3" stroke-width=".5" d="M65.7 89.2q.7-2 2.8-2.2c1.2 1.1-2 2.3-2.8 2.2Z"/><path fill="#f76c82" fill-opacity=".5" stroke="#f76c82" stroke-opacity=".5" stroke-width=".5" d="M148.9 71.3c-.3 1-2 2.6-2.8 1.3.2-1.1 1.9-1 2.8-1.3Zm-98.7 56.5q.7-1.6 2.4-1.9c1.1 1-1.5 2.1-2.4 1.9ZM484 186c-.5.7-2 3.3-3 1.7.3-1.2 2.1-1.2 3-1.7Z"/><path fill="#f86c82" fill-opacity=".4" stroke="#f86c82" stroke-opacity=".4" stroke-width=".5" d="M53.7 62.4q.6-2.2 2.8-2.4c1 1-2 2.4-2.8 2.4Z"/><path fill="#e4e8eb" fill-opacity=".5" d="M134 115c-.5.8-2 3-3 1.6q1.1-1.5 3-1.5m265.4 90.8q-.4 1-1.6 1.5.1-1.5 1.6-1.5m27.9 28q-.4 1.2-1.6 1.3a2 2 0 0 1 1.6-1.3M284 375.1c-.4 1-2 2.5-3 1.5q1-1.5 3-1.5m-33.1 48.1a4 4 0 0 1 2.6-2.2c1.5 1-2.2 1.7-2.6 2.2m72.2 10.9c-.1.7-1.3 1.5-1.9.6q.7-.9 1.9-.6"/><path fill="#4e193c" fill-opacity=".1" stroke="#4e193c" stroke-opacity=".1" stroke-width=".5" d="M61.9 12q0 .8-.6 1.3-1-.4-1.2.8l-1.9 1.1A3 3 0 0 1 57 14q1.2.1 1.4-1c.5-1.3 2.6-.9 3.6-1Z"/><path fill="#7c3742" fill-opacity=".1" stroke="#7c3742" stroke-opacity=".1" stroke-width=".5" d="M211 297.4h1q-1 .7-2.4 1 .3-1.2 1.4-1Z"/><path fill="#2d2d2d" fill-opacity=".1" stroke="#2d2d2d" stroke-opacity=".1" stroke-width=".5" d="M395 207.2h.7v1q-.4-.4-.6-1Z"/></svg>