<?xml version="1.0" encoding="UTF-8"?>
<!DOCTYPE svg PUBLIC "-//W3C//DTD SVG 1.1//EN" "http://www.w3.org/Graphics/SVG/1.1/DTD/svg11.dtd">
<svg xmlns="http://www.w3.org/2000/svg" version="1.1" width="512px" height="512px" style="shape-rendering:geometricPrecision; text-rendering:geometricPrecision; image-rendering:optimizeQuality; fill-rule:evenodd; clip-rule:evenodd" xmlns:xlink="http://www.w3.org/1999/xlink">
<g><path fill="#f4bea8" fill-opacity="0.314" d="M 238.08,308.9 c -1.24,1.76 -2.94,2.81 -5.09,3.15 c 1.23,-1.8 2.93,-2.85 5.09,-3.15 Z M 28.94,356.02 c -0.57,1.28 -1.54,1.95 -2.92,2 c 0.6,-1.17 1.58,-1.84 2.92,-2 Z M 93.94,372.92 c -0.45,1.48 -5.49,3.92 -6.96,5.05 c -0.07,-0.3 -0.15,-0.61 -0.22,-0.92 c 0.72,-0.9 1.58,-1.63 2.59,-2.19 c 1.59,-0.38 2.98,-2.26 4.59,-1.94 Z M 381.96,395.87 c -0.25,0.96 -0.89,1.35 -1.91,1.17 c 0.37,-0.8 1,-1.19 1.91,-1.17 Z M 145.19,396.84 c -0.65,1.37 -1.73,2.1 -3.23,2.19 c 0.6,-1.42 1.67,-2.15 3.23,-2.19 Z M 408.99,410.92 c -0.66,1.7 -3.23,3.04 -4.99,3.02 c 1.24,-1.71 2.9,-2.72 4.99,-3.02 Z M 75.91,457.85 c 0.37,0.05 0.73,0.11 1.09,0.17 c 0.08,0.32 0.16,0.63 0.23,0.94 c -0.74,-0.01 -1.18,-0.39 -1.32,-1.11 Z"/></g>
<g><path fill="#917267" fill-opacity="0.082" stroke="#917267" stroke-width="0.5" stroke-opacity="0.082" d="M 153.81,286.2 c -0.23,0.51 -0.59,0.89 -1.09,1.15 c -6.03,3.15 -11.94,6.57 -17.7,10.24 c -0.64,0.27 -1.3,0.37 -2,0.3 c 0.41,-0.68 0.93,-1.25 1.57,-1.71 c 4.54,-2.93 9.03,-5.87 13.49,-8.82 c 1.81,-0.95 3.72,-1.33 5.73,-1.16 Z"/></g>
<g><path fill="#f4c0a7" fill-opacity="0.263" d="M 171.23,396.91 c -0.75,1.21 -1.83,1.9 -3.24,2.06 c 0.63,-1.4 1.71,-2.09 3.24,-2.06 Z M 202.1,427.77 c -0.29,0.96 -2,3.07 -2.96,1.89 c 0.62,-1.15 1.61,-1.78 2.96,-1.89 Z M 349.88,456.04 c -0.1,0.56 -0.39,0.98 -0.89,1.26 c -2.95,1.95 -5.93,3.85 -8.94,5.7 c 0,-0.44 -0.01,-0.88 -0.01,-1.32 c 0.47,-0.55 1,-1.02 1.6,-1.42 c 1.9,-0.73 6.46,-4.54 8.24,-4.22 Z"/></g>
<g><path fill="#ecb6a5" fill-opacity="0.216" d="M 394.62,387.1 c 0.33,0.63 0.82,1.08 1.48,1.35 c -4.03,2.3 -8.06,4.61 -12.09,6.92 c -0.64,0.37 -1.32,0.53 -2.05,0.5 c 0.25,-0.49 0.59,-0.9 1.01,-1.25 c 3.89,-2.5 7.77,-5.01 11.65,-7.52 Z"/></g>
<g><path fill="#f4bfa8" fill-opacity="0.51" d="M 127.92,300.93 c -0.24,1.13 -1.71,2.99 -2.84,1.71 c 0.26,-1.1 1.95,-1.34 2.84,-1.71 Z M 199.9,300.95 c 0.12,0.85 -1.17,1.71 -1.73,0.77 c 0.42,-0.57 1,-0.83 1.73,-0.77 Z M 98.95,370.05 c 0.13,1.02 -1.24,1 -1.92,1.04 c 0.33,-0.9 0.97,-1.25 1.92,-1.04 Z M 419.07,388.08 c -0.18,0.75 -1.36,1.48 -1.92,0.6 c 0.51,-0.58 1.15,-0.78 1.92,-0.6 Z M 377.06,399.03 c -0.12,0.76 -1.3,1.67 -1.87,0.71 c 0.46,-0.62 1.09,-0.86 1.87,-0.71 Z M 400.96,416.07 c -0.33,0.57 -1.29,1.49 -1.86,0.63 c 0.47,-0.62 1.09,-0.83 1.86,-0.63 Z M 294.03,434.09 c -0.13,0.77 -1.34,1.49 -1.89,0.61 c 0.49,-0.6 1.12,-0.81 1.89,-0.61 Z M 349.06,438.92 c 0.26,-0.79 0.79,-1.33 1.58,-1.61 c 1.63,-0.22 1.81,0.22 0.54,1.31 c -0.68,0.29 -1.38,0.4 -2.12,0.3 Z M 77.89,458.99 c 0.67,-0.06 1.35,-0.13 2.02,-0.2 c 0.42,0.07 0.84,0.14 1.25,0.22 c 0.03,0.3 0.06,0.61 0.09,0.91 c -0.76,0.01 -3.65,0.5 -3.36,-0.93 Z"/></g>
<g><path fill="#e9bba7" fill-opacity="0.2" d="M 64.02,406.96 c -0.76,2.05 -6.61,4.36 -8.32,6.07 c -0.63,0.34 -1.31,0.56 -2.02,0.64 c -0.02,-0.52 -0.28,-0.88 -0.77,-1.08 c 3.02,-1.71 6.03,-3.45 9.03,-5.22 c 0.66,-0.3 1.36,-0.44 2.08,-0.41 Z"/></g>
<g><path fill="#f4bfa8" fill-opacity="0.471" d="M 204.93,297.94 c -0.19,0.52 -0.5,0.96 -0.91,1.32 c -1.17,1.1 -2.55,1.67 -4.12,1.69 c 1.31,-1.64 2.98,-2.64 5.03,-3.01 Z M 486.32,358.99 c 0.33,0.04 0.66,0.08 0.99,0.12 c -0.45,0.46 -0.99,0.75 -1.63,0.86 c 0.21,-0.33 0.43,-0.65 0.64,-0.98 Z M 98.95,370.05 c 0.87,-0.79 0.87,-0.79 0,0 Z M 421.93,385.93 c -0.4,1.46 -1.35,2.17 -2.86,2.15 c 0.56,-1.21 1.51,-1.93 2.86,-2.15 Z M 141.96,399.03 c -0.37,0.67 -0.9,1.18 -1.58,1.53 c -1.56,0.31 -1.75,-0.1 -0.57,-1.22 c 0.69,-0.29 1.4,-0.39 2.15,-0.31 Z M 62.24,445.02 c -0.07,0.33 -0.13,0.66 -0.2,0.98 c -0.47,0.01 -0.93,0.02 -1.4,0.03 c 0.35,-0.62 0.89,-0.95 1.6,-1.01 Z"/></g>
<g><path fill="#e7b29d" fill-opacity="0.2" d="M 247.78,302.12 c 0.24,0.59 0.68,0.98 1.3,1.17 c -3.07,1.68 -6.09,3.42 -9.07,5.22 c -0.6,0.34 -1.24,0.47 -1.93,0.39 c 0.95,-2.11 7.67,-5.14 9.7,-6.78 Z"/></g>
<g><path fill="#c89383" fill-opacity="0.153" d="M 441.76,373.26 c -0.06,0.72 0.27,1.17 0.98,1.33 c -2.26,1.02 -6.57,4.63 -9.06,4.43 c -0.21,-0.13 -0.43,-0.26 -0.64,-0.38 c 2.82,-1.95 5.72,-3.75 8.72,-5.38 Z"/></g>
<g><path fill="#d3a28f" fill-opacity="0.165" d="M 86.76,377.05 c 0.07,0.31 0.15,0.62 0.22,0.92 c -2.54,1.57 -5.07,3.15 -7.6,4.73 c -0.17,-0.77 -0.66,-1.15 -1.47,-1.13 c 1.98,-0.81 7.04,-4.54 8.85,-4.52 Z"/></g>
<g><path fill="#f4bfa8" fill-opacity="0.4" d="M 175.99,282.95 c 0.36,-0.06 0.73,-0.13 1.1,-0.2 c -0.08,0.83 -0.54,1.26 -1.37,1.31 c 0.09,-0.37 0.18,-0.74 0.27,-1.11 Z M 68.75,346.1 c 0.83,-1.19 3.43,-3.27 4.84,-3.16 c 1.13,1.01 -3.81,3.35 -4.84,3.16 Z M 118.78,404.14 c 0.5,-1.28 1.42,-2.01 2.76,-2.18 c 1.58,1.01 -2.34,1.77 -2.76,2.18 Z M 250.93,412.03 c 0.08,1.05 -1.32,1.02 -2.01,0.88 c 0.39,-0.84 1.06,-1.13 2.01,-0.88 Z"/></g>
<g><path fill="#f7c8b4" fill-opacity="0.216" d="M 343.92,442.01 c -0.2,0.52 -0.5,0.98 -0.91,1.36 c -1.81,1.24 -3.62,2.49 -5.42,3.73 c -0.6,0.26 -1.23,0.45 -1.87,0.59 c -0.05,-0.52 -0.32,-0.89 -0.82,-1.11 c 2.29,-0.94 6.78,-4.54 9.02,-4.57 Z"/></g>
<g><path fill="#f4bfac" fill-opacity="0.259" d="M 275.92,467.94 c -0.8,1.32 -1.9,2.36 -3.29,3.11 c -1.47,1.02 -3.03,1.87 -4.68,2.56 c -0.31,-0.2 -0.66,-0.33 -1.03,-0.39 c 1.53,-1.38 3.22,-2.56 5.07,-3.54 c 1.19,-0.85 2.5,-1.43 3.93,-1.74 Z"/></g>
<g><path fill="#308cac" d="M 376.28,342.96 c -2.55,2.72 -5.27,2.95 -8.18,0.71 c 2.68,-0.36 5.41,-0.59 8.18,-0.71 Z"/></g>
<g><path fill="#7a5f54" fill-opacity="0.063" d="M 21.03,360.69 c 0,0.43 -0.01,0.85 -0.01,1.28 c -0.76,0.64 -1.63,1.01 -2.6,1.12 c -1.53,-1.3 1.74,-2.17 2.61,-2.4 Z M 415.48,405.95 c 0.63,0.14 1.13,0.47 1.5,0.99 c -0.98,0.71 -2.06,1.16 -3.25,1.35 c 0.19,-1.07 0.77,-1.85 1.75,-2.34 Z M 340.04,461.68 c 0,0.44 0.01,0.88 0.01,1.32 c -0.57,0.27 -1.09,0.62 -1.54,1.06 c -0.58,-0.19 -1.07,-0.51 -1.48,-0.97 c 0.91,-0.67 1.91,-1.14 3.01,-1.41 Z"/></g>
<g><path fill="#f6bea7" fill-opacity="0.227" d="M 446.14,404.9 c -0.05,0.36 -0.1,0.72 -0.16,1.08 c -2.02,0.87 -5.98,4.01 -8.02,4.06 c 0.22,-0.55 0.56,-1.01 1.01,-1.38 c 2.13,-1.04 4.76,-3.88 7.17,-3.76 Z"/></g>
<g><path fill="#c39987" fill-opacity="0.149" d="M 450.63,401.27 c 0.12,0.66 0.51,1.08 1.16,1.26 c -1.96,1.07 -3.9,2.22 -5.81,3.45 c 0.06,-0.36 0.11,-0.72 0.16,-1.08 c 0.7,-1.74 2.93,-2.77 4.49,-3.63 Z"/></g>
<g><path fill="#f6bbab" fill-opacity="0.227" d="M 433.04,378.64 c 0.21,0.12 0.43,0.25 0.64,0.38 c -0.21,1.62 -5.02,4.16 -6.61,3.92 c 0.21,-1.7 4.82,-3.02 5.97,-4.3 Z"/></g>
<g><path fill="#be9284" fill-opacity="0.141" d="M 266.92,473.22 c 0.37,0.06 0.72,0.19 1.03,0.39 c -1.44,1.16 -2.97,2.18 -4.6,3.05 c -0.12,-0.68 -0.53,-1.06 -1.24,-1.14 c 1.48,-1.03 3.08,-1.8 4.81,-2.3 Z"/></g>
<g><path fill="#23b1e2" fill-opacity="0.427" d="M 474.92,149.16 c -0.18,0.61 -0.61,0.86 -1.28,0.74 c 0.42,-0.25 0.85,-0.5 1.28,-0.74 Z M 455.95,160.3 c -0.27,0.47 -0.7,0.65 -1.29,0.55 c 0.39,-0.27 0.82,-0.46 1.29,-0.55 Z M 461.32,165.07 c -0.41,0.32 -0.86,0.57 -1.34,0.74 c 0.23,-0.59 0.68,-0.83 1.34,-0.74 Z M 428.37,184 c -0.39,0.32 -0.81,0.6 -1.24,0.85 c 0.14,-0.62 0.55,-0.9 1.24,-0.85 Z M 430.15,200.78 c -0.38,0.89 -1.99,2.69 -2.97,1.83 c 0.57,-1.23 1.56,-1.84 2.97,-1.83 Z"/></g>
<g><path fill="#23b0e1" fill-opacity="0.369" d="M 462.86,156.26 c -0.19,0.59 -0.61,0.82 -1.26,0.69 c 0.39,-0.29 0.81,-0.52 1.26,-0.69 Z M 443.79,167.08 c -0.08,0.59 -0.43,0.87 -1.05,0.83 c 0.32,-0.32 0.67,-0.59 1.05,-0.83 Z M 447.24,173.09 c -0.42,0.38 -0.9,0.61 -1.46,0.71 c 0.36,-0.48 0.85,-0.71 1.46,-0.71 Z M 395.38,203.1 c -0.39,0.25 -0.8,0.47 -1.21,0.68 c 0.15,-0.59 0.55,-0.81 1.21,-0.68 Z M 399.9,211.24 c 0.27,-1.48 1.18,-2.22 2.71,-2.23 c 1.27,1.1 -2.19,1.67 -2.71,2.23 Z"/></g>
<g><path fill="#23a5d3" fill-opacity="0.847" d="M 372.4,295.79 c -2.58,0.4 -5.15,0.77 -7.72,1.13 c 0.69,-1.39 6.45,-3.26 7.72,-1.13 Z"/></g>
<g><path fill="#f5c1a5" fill-opacity="0.216" d="M 26.02,358.02 c -0.66,1.63 -3.54,2.99 -5,3.95 c 0,-0.43 0.01,-0.85 0.01,-1.28 c 1.32,-1.54 2.99,-2.43 4.99,-2.67 Z"/></g>
<g><path fill="#2490b6" fill-opacity="0.702" d="M 354.09,303.06 c -0.33,0.64 -0.84,0.84 -1.56,0.61 c 0.49,-0.28 1.01,-0.48 1.56,-0.61 Z M 352.53,303.67 c 0.67,1.48 -1.5,3.12 -2.82,3.05 c -0.23,-1.86 1.85,-1.97 2.82,-3.05 Z M 349.71,306.72 c 0.01,0.6 -0.22,1.09 -0.67,1.48 c 0.02,-0.6 0.24,-1.09 0.67,-1.48 Z"/></g>
<g><path fill="#bfb1a7" d="M 368.89,337.42 c -0.76,-0.24 -1.45,-0.59 -2.08,-1.08 c 1.47,-0.82 3,-1.51 4.58,-2.06 c 0.58,0.68 -1.85,2.85 -2.5,3.14 Z"/></g>
<g><path fill="#1c93bc" fill-opacity="0.165" stroke="#1c93bc" stroke-width="0.5" stroke-opacity="0.165" d="M 470.53,123.96 c -0.05,1.1 0.47,1.59 1.57,1.49 c -1.13,0.75 -2.35,1.3 -3.63,1.68 c -0.77,-1.05 1.5,-2.43 2.06,-3.17 Z"/></g>
<g><path fill="#248fb5" fill-opacity="0.875" d="M 333.4,21.16 c -1.05,0.72 -1.91,2.9 -3.29,2.86 c -0.01,-0.66 -0.32,-1.11 -0.94,-1.37 c 1.26,-0.89 2.67,-1.39 4.23,-1.49 Z"/></g>
<g><path fill="#cda08c" fill-opacity="0.153" d="M 204.75,425.29 c 0.13,0.72 0.57,1.1 1.32,1.16 c -1.27,0.48 -2.51,1.99 -3.97,1.32 c 0.56,-1.18 1.45,-2.01 2.65,-2.48 Z"/></g>
<g><path fill="#1f93bd" fill-opacity="0.137" stroke="#1f93bd" stroke-width="0.5" stroke-opacity="0.137" d="M 386.68,205.97 c -0.16,1.09 0.31,1.56 1.41,1.42 c -0.95,0.23 -3.28,2.6 -3.96,1.26 c 0.62,-1.09 1.46,-1.99 2.55,-2.68 Z"/></g>
<g><path fill="#efb69a" fill-opacity="0.361" d="M 411.11,304.09 c 0.35,-0.12 0.7,-0.24 1.04,-0.36 c -0.13,0.81 -0.61,1.25 -1.43,1.34 c 0.13,-0.33 0.26,-0.65 0.39,-0.98 Z M 376.89,373.13 c 0.49,-1.14 1.34,-1.82 2.55,-2.06 c 1.35,1.03 -1.87,2 -2.55,2.06 Z"/></g>
<g><path fill="#0d798d" fill-opacity="0.059" stroke="#0d798d" stroke-width="0.5" stroke-opacity="0.059" d="M 378.63,259.64 c -0.82,0.55 -1.65,0.55 -2.5,0.02 c 0.73,-0.71 1.57,-1.27 2.5,-1.67 c 1.82,-0.27 1.78,1.26 0,1.65 Z"/></g>
<g><path fill="#c1a498" fill-opacity="0.212" stroke="#c1a498" stroke-width="0.5" stroke-opacity="0.212" d="M 418.87,432.36 c -0.77,1.08 -1.82,1.54 -3.16,1.39 c -0.18,-0.03 -0.28,-0.13 -0.32,-0.31 c 0.96,-1.08 2.12,-1.44 3.48,-1.08 Z"/></g>
<g><path fill="#ebb8a2" fill-opacity="0.678" d="M 260.78,503.95 c 1.84,-0.06 3.69,-0.01 5.53,0.13 c -0.25,1.41 -2.94,0.73 -3.88,0.88 c -0.85,0.07 -1.4,-0.27 -1.65,-1.01 Z"/></g>
<g><path fill="#23b0e2" fill-opacity="0.337" stroke="#23b0e2" stroke-width="0.5" stroke-opacity="0.337" d="M 351.17,31.77 c -0.45,0.84 -2.03,2.97 -3.05,1.85 c 0.72,-1.06 1.74,-1.68 3.05,-1.85 Z M 414.39,192 c -0.4,0.3 -0.85,0.53 -1.34,0.69 c 0.27,-0.53 0.72,-0.76 1.34,-0.69 Z"/></g>
<g><path fill="#23b0e2" fill-opacity="0.463" stroke="#23b0e2" stroke-width="0.5" stroke-opacity="0.463" d="M 287.74,65.17 c 0.61,-1.18 1.54,-1.94 2.78,-2.28 c 1.59,1.06 -2.36,1.83 -2.78,2.28 Z M 467.92,153.24 c -0.2,0.55 -0.61,0.81 -1.23,0.77 c 0.37,-0.32 0.78,-0.57 1.23,-0.77 Z"/></g>
<g><path fill="#927265" fill-opacity="0.106" d="M 186.27,325.21 c 0.16,0.12 0.32,0.24 0.48,0.36 c -1.18,0.89 -2.51,1.46 -3.99,1.72 c 0.44,-1.9 1.61,-2.59 3.51,-2.08 Z"/></g>
<g><path fill="#23b0e2" fill-opacity="0.384" stroke="#23b0e2" stroke-width="0.5" stroke-opacity="0.384" d="M 471.11,140.86 c -0.41,0.77 -2,2.88 -2.89,1.79 c 0.6,-1.16 1.56,-1.75 2.89,-1.79 Z M 421.25,188.04 c -0.37,0.33 -0.81,0.54 -1.29,0.64 c 0.29,-0.46 0.72,-0.67 1.29,-0.64 Z"/></g>
<g><path fill="#ac897a" fill-opacity="0.816" d="M 293.7,492.71 c 0.05,0.43 0.09,0.87 0.14,1.3 c 0.24,1.19 -2.45,0.81 -3.09,0.96 c 0.91,-0.82 1.89,-1.57 2.95,-2.26 Z"/></g>
<g><path fill="#2491b8" fill-opacity="0.804" d="M 396.27,196.97 c -0.5,0.93 -1.2,1.64 -2.09,2.14 c -0.24,-0.49 -0.54,-0.94 -0.89,-1.36 c 0.14,-0.85 2.35,-0.72 2.98,-0.78 Z"/></g>
<g><path fill="#c49c8a" fill-opacity="0.898" d="M 58.64,453.88 c 1.26,0.22 3.79,-0.44 4.36,1.06 c -1.77,0.83 -3.23,0.48 -4.36,-1.06 Z"/></g>
<g><path fill="#23afe2" fill-opacity="0.31" stroke="#23afe2" stroke-width="0.5" stroke-opacity="0.31" d="M 433.3,181.28 c -0.38,0.31 -0.8,0.56 -1.26,0.75 c 0.14,-0.68 0.56,-0.93 1.26,-0.75 Z M 360.13,218.92 c -0.06,-0.38 -0.11,-0.76 -0.17,-1.14 c 0.33,-0.58 0.83,-0.88 1.51,-0.91 c 0.89,0.81 -0.67,1.78 -1.34,2.05 Z"/></g>
<g><path fill="#c7aca1" fill-opacity="0.141" stroke="#c7aca1" stroke-width="0.5" stroke-opacity="0.141" d="M 346.84,473 c 0.05,0.63 0.11,1.26 0.19,1.88 c -0.74,-0.03 -1.49,-0.07 -2.23,-0.14 c -0.21,0.01 -0.35,-0.08 -0.43,-0.27 c 0.74,-0.62 1.56,-1.12 2.47,-1.47 Z"/></g>
<g><path fill="#247996" fill-opacity="0.714" d="M 466.74,53.89 c 0.54,0.22 1.07,0.47 1.59,0.74 c -0.71,0.14 -1.24,-0.1 -1.59,-0.74 Z M 468.33,54.63 c 0.6,0.65 0.92,1.42 0.97,2.32 c -1.06,-0.44 -1.38,-1.21 -0.97,-2.32 Z M 469.3,56.95 c 0.46,0.3 0.7,0.76 0.7,1.37 c -0.44,-0.35 -0.67,-0.81 -0.7,-1.37 Z"/></g>
<g><path fill="#24afe2" fill-opacity="0.365" stroke="#24afe2" stroke-width="0.5" stroke-opacity="0.365" d="M 264.76,107.2 c 0.14,-0.74 1.51,-2.08 2.05,-0.92 c -0.14,0.77 -1.6,2.21 -2.05,0.92 Z M 466.25,162.02 c -0.44,0.36 -0.93,0.6 -1.47,0.73 c 0.37,-0.46 0.86,-0.71 1.47,-0.73 Z"/></g>
<g><path fill="#22b1e3" fill-opacity="0.357" d="M 479.06,120.95 c -0.07,0.37 -0.13,0.74 -0.2,1.11 c -0.32,-0.1 -0.65,-0.21 -0.98,-0.31 c 0.31,-0.39 0.7,-0.65 1.18,-0.8 Z M 277.71,136.02 c 0.05,0.27 0.11,0.54 0.16,0.81 c -0.38,-0.04 -0.77,-0.09 -1.15,-0.13 c 0.33,-0.22 0.66,-0.45 0.99,-0.68 Z M 437.15,171.24 c -0.33,0.5 -0.81,0.74 -1.43,0.71 c 0.42,-0.36 0.89,-0.6 1.43,-0.71 Z"/></g>
<g><path fill="#257e9e" fill-opacity="0.655" d="M 473,63.05 c 0.48,0.26 0.69,0.66 0.62,1.21 c -0.18,-0.42 -0.39,-0.82 -0.62,-1.21 Z M 473.62,64.26 c 1.19,-0.11 1.72,0.45 1.57,1.68 c -0.98,-0.12 -1.5,-0.68 -1.57,-1.68 Z"/></g>
<g><path fill="#23afe2" fill-opacity="0.412" d="M 402.31,199.11 c -0.38,0.31 -0.81,0.54 -1.28,0.66 c 0.24,-0.52 0.67,-0.74 1.28,-0.66 Z M 392.79,200.03 c 0.06,0.68 -0.25,0.92 -0.93,0.72 c 0.26,-0.3 0.57,-0.54 0.93,-0.72 Z M 391.86,200.75 c -0.1,0.6 -0.44,0.95 -1.03,1.07 c 0.32,-0.38 0.67,-0.73 1.03,-1.07 Z"/></g>
<g><path fill="#b38f7f" fill-opacity="0.984" d="M 77,458.02 c 1.1,-0.18 2.07,0.08 2.91,0.77 c -0.67,0.07 -1.35,0.14 -2.02,0.2 c -0.22,-0.01 -0.44,-0.02 -0.66,-0.03 c -0.07,-0.31 -0.15,-0.62 -0.23,-0.94 Z"/></g>
<g><path fill="#22afe1" fill-opacity="0.263" d="M 449.17,128.93 c 0.27,0.01 0.53,0.03 0.8,0.04 c -0.2,0.52 -0.57,0.87 -1.11,1.04 c 0.1,-0.36 0.21,-0.72 0.31,-1.08 Z M 452.31,170.28 c -0.38,0.3 -0.8,0.56 -1.25,0.77 c 0.11,-0.71 0.52,-0.97 1.25,-0.77 Z M 389.85,202.73 c -0.07,0.62 -0.42,0.95 -1.04,0.98 c 0.34,-0.33 0.69,-0.66 1.04,-0.98 Z"/></g>
<g><path fill="#23b1e4" fill-opacity="0.255" d="M 278.1,138.13 c -0.18,0.32 -0.36,0.64 -0.54,0.96 c -0.36,-0.66 -0.18,-0.98 0.54,-0.96 Z M 471.33,159.28 c -0.4,0.3 -0.81,0.56 -1.26,0.78 c 0.13,-0.69 0.55,-0.96 1.26,-0.78 Z M 400.32,200.27 c -0.39,0.31 -0.81,0.57 -1.27,0.78 c 0.14,-0.68 0.56,-0.94 1.27,-0.78 Z"/></g>
<g><path fill="#24b0e1" fill-opacity="0.302" d="M 469.98,152 c -0.13,0.71 -0.55,0.96 -1.27,0.76 c 0.42,-0.26 0.84,-0.51 1.27,-0.76 Z M 459.31,166.25 c -0.38,0.33 -0.81,0.58 -1.27,0.77 c 0.16,-0.67 0.58,-0.93 1.27,-0.77 Z M 407.32,196.28 c -0.39,0.31 -0.82,0.56 -1.28,0.74 c 0.14,-0.71 0.57,-0.95 1.28,-0.74 Z"/></g>
<g><path fill="#247a98" fill-opacity="0.655" d="M 457.14,41.61 c 0.41,0.27 0.8,0.58 1.17,0.91 c -0.82,0.22 -1.21,-0.08 -1.17,-0.91 Z M 458.31,42.52 c 0.32,0.54 0.52,1.12 0.59,1.75 c -0.61,-0.42 -0.81,-1.01 -0.59,-1.75 Z M 458.9,44.27 c 0.72,-0.05 1.05,0.29 0.98,1.02 c -0.33,-0.34 -0.65,-0.68 -0.98,-1.02 Z"/></g>
<g><path fill="#256f8a" fill-opacity="0.651" d="M 327.04,70.85 c -0.1,0.57 -0.36,1.05 -0.78,1.43 c -0.17,-0.73 0.08,-1.2 0.78,-1.43 Z M 326.26,72.28 c -0.44,0.32 -0.93,0.52 -1.47,0.6 c 0.38,-0.46 0.87,-0.66 1.47,-0.6 Z M 324.79,72.88 c 0.03,0.76 -0.35,1.17 -1.12,1.21 c 0.29,-0.47 0.67,-0.88 1.12,-1.21 Z"/></g>
<g><path fill="#a78677" fill-opacity="0.812" d="M 341.3,399.92 c -0.41,0.81 -1.09,1.17 -2.03,1.09 c -0.33,-1.08 1.41,-1.04 2.03,-1.09 Z"/></g>
<g><path fill="#2384a5" fill-opacity="0.639" d="M 331.25,68.25 c -0.25,0.41 -0.55,0.78 -0.92,1.1 c -0.06,-0.69 0.24,-1.05 0.92,-1.1 Z M 330.33,69.35 c -0.45,0.23 -0.93,0.35 -1.43,0.37 c 0.39,-0.41 0.87,-0.53 1.43,-0.37 Z"/></g>
<g><path fill="#f4bda9" fill-opacity="0.173" d="M 93.2,462.9 c 0.28,-0.07 0.56,-0.14 0.84,-0.21 c 0.45,0.09 0.89,0.19 1.34,0.28 c -0.41,1.05 -2.4,1.68 -2.18,-0.07 Z"/></g>
<g><path fill="#23b1e3" fill-opacity="0.286" stroke="#23b1e3" stroke-width="0.5" stroke-opacity="0.286" d="M 450.98,163 c -0.13,0.71 -0.56,0.94 -1.27,0.7 c 0.42,-0.23 0.85,-0.47 1.27,-0.7 Z M 397.92,230.92 c -0.65,-0.61 -0.65,-0.61 0,0 Z"/></g>
<g><path fill="#24b2e4" fill-opacity="0.22" d="M 464.93,154.93 c -0.15,0.68 -0.58,0.94 -1.28,0.78 c 0.4,-0.3 0.83,-0.56 1.28,-0.78 Z M 388.81,203.71 c -0.08,0.65 -0.46,1.01 -1.11,1.06 c 0.37,-0.36 0.74,-0.71 1.11,-1.06 Z"/></g>
<g><path fill="#25728e" fill-opacity="0.808" d="M 449.81,34.93 c 0.59,0.12 1.08,0.41 1.45,0.86 c -0.69,0.06 -1.18,-0.23 -1.45,-0.86 Z M 451.26,35.79 c 0.47,0.19 0.8,0.51 0.99,0.96 c -0.71,0.07 -1.04,-0.25 -0.99,-0.96 Z"/></g>
<g><path fill="#c79e8c" fill-opacity="0.922" d="M 91.91,461.97 c 0.81,-0.03 1.52,0.21 2.13,0.72 c -0.28,0.07 -0.56,0.14 -0.84,0.21 c -0.32,-0.03 -0.65,-0.06 -0.97,-0.09 c -0.11,-0.28 -0.21,-0.56 -0.32,-0.84 Z"/></g>
<g><path fill="#249dc9" fill-opacity="0.506" d="M 433.14,173.14 c -0.3,0.61 -0.79,0.8 -1.47,0.6 c 0.37,-0.47 0.87,-0.67 1.47,-0.6 Z M 431.67,173.74 c 0.13,0.81 -0.21,1.21 -1.03,1.2 c 0.34,-0.4 0.68,-0.8 1.03,-1.2 Z"/></g>
<g><path fill="#c39b88" fill-opacity="0.749" d="M 462.43,359.88 c -0.47,0.88 -1.22,1.25 -2.23,1.13 c -0.14,-1.06 1.56,-1.05 2.23,-1.13 Z"/></g>
<g><path fill="#23afe2" fill-opacity="0.443" d="M 279.27,136.83 c -0.06,-0.35 -0.13,-0.69 -0.19,-1.04 c -0.04,-0.37 0.13,-0.59 0.5,-0.65 c 0.47,0.64 0.37,1.2 -0.31,1.69 Z"/></g>
<g><path fill="#a08173" fill-opacity="0.816" d="M 141.65,281.07 c 0.32,1.05 -1.41,0.93 -2,0.98 c 0.43,-0.77 1.1,-1.09 2,-0.98 Z"/></g>
<g><path fill="#22b1e3" fill-opacity="0.176" stroke="#22b1e3" stroke-width="0.5" stroke-opacity="0.176" d="M 375.1,14.05 c 0.34,-0.04 0.67,-0.07 1,-0.11 c -0.19,0.72 -0.65,0.98 -1.39,0.79 c 0.13,-0.23 0.26,-0.45 0.39,-0.68 Z M 387.7,204.77 c -0.09,0.61 -0.43,1.01 -1.02,1.2 c 0.33,-0.41 0.67,-0.81 1.02,-1.2 Z"/></g>
<g><path fill="#9b7e70" fill-opacity="0.812" d="M 410.33,376.93 c -0.37,0.87 -1.04,1.22 -2.02,1.05 c -0.39,-1.02 1.48,-0.95 2.02,-1.05 Z"/></g>
<g><path fill="#8a6e60" fill-opacity="0.847" d="M 368.64,380.96 c 0.46,1 -1.31,1.07 -1.87,1.06 c 0.31,-0.83 0.93,-1.19 1.87,-1.06 Z"/></g>
<g><path fill="#91776b" fill-opacity="0.506" stroke="#91776b" stroke-width="0.5" stroke-opacity="0.506" d="M 220.72,382.17 c 0.89,-0.22 2.48,-0.26 2.33,1.11 c -0.89,-0.14 -1.67,-0.5 -2.33,-1.11 Z"/></g>
<g><path fill="#8e7065" fill-opacity="0.149" stroke="#8e7065" stroke-width="0.5" stroke-opacity="0.149" d="M 219.14,392 c 0.65,0.04 1.29,0.12 1.93,0.22 c -0.63,0.33 -1.29,0.57 -1.98,0.72 c 0.02,-0.31 0.03,-0.62 0.05,-0.94 Z"/></g>
<g><path fill="#f4bca5" fill-opacity="0.133" d="M 285.08,506.95 c 0.64,0.03 1.29,0.07 1.93,0.12 c 0.11,1.14 -1.96,1.46 -1.93,-0.12 Z"/></g>
<g><path fill="#94786c" fill-opacity="0.784" d="M 238.97,388.96 c 0.61,0.02 1.23,0.06 1.84,0.13 c 0,0.28 0,0.56 0.01,0.84 c -0.89,0.16 -1.51,-0.16 -1.85,-0.97 Z"/></g>
<g><path fill="#f4bea7" fill-opacity="0.525" stroke="#f4bea7" stroke-width="0.5" stroke-opacity="0.525" d="M 281.9,503.91 c 0.35,0.13 0.71,0.26 1.06,0.39 c -0.09,0.32 -0.17,0.65 -0.26,0.97 c -0.34,-0.41 -0.61,-0.86 -0.8,-1.36 Z"/></g>
<g><path fill="#dca98f" fill-opacity="0.627" stroke="#dca98f" stroke-width="0.5" stroke-opacity="0.627" d="M 325.13,383.09 c -0.34,0.55 -0.84,0.81 -1.5,0.79 c 0.39,-0.47 0.89,-0.73 1.5,-0.79 Z"/></g>
<g><path fill="#95796c" fill-opacity="0.827" d="M 28.18,338.48 c -0.24,0.19 -0.51,0.32 -0.81,0.4 c -0.03,-0.59 0.24,-0.72 0.81,-0.4 Z"/></g>
<g><path fill="#c89a83" fill-opacity="0.741" d="M 423.2,336 c -0.24,0.53 -0.65,0.77 -1.23,0.72 c 0.32,-0.39 0.73,-0.63 1.23,-0.72 Z"/></g>
<g><path fill="#23b1e3" fill-opacity="0.396" stroke="#23b1e3" stroke-width="0.5" stroke-opacity="0.396" d="M 371.85,302.25 c 0.48,-0.01 0.96,-0.01 1.44,-0.02 c -0.33,0.34 -0.72,0.54 -1.19,0.59 c -0.09,-0.19 -0.17,-0.38 -0.25,-0.57 Z"/></g>
<g><path fill="#2582a2" fill-opacity="0.216" stroke="#2582a2" stroke-width="0.5" stroke-opacity="0.216" d="M 355.18,302.13 c -0.29,0.39 -0.66,0.71 -1.09,0.93 c 0.03,-0.69 0.4,-1 1.09,-0.93 Z"/></g>
<g><path fill="#238bb1" fill-opacity="0.396" d="M 364.13,297.06 c -0.19,0.6 -0.6,0.94 -1.23,1.03 c 0.09,-0.72 0.51,-1.07 1.23,-1.03 Z"/></g>
<g><path fill="#c29787" fill-opacity="0.376" stroke="#c29787" stroke-width="0.5" stroke-opacity="0.376" d="M 151.76,277.91 c 0.61,0.13 1.11,0.42 1.51,0.89 c -0.38,0.02 -0.76,0.05 -1.14,0.08 c -0.12,-0.32 -0.25,-0.65 -0.37,-0.97 Z"/></g>
<g><path fill="#f6bea7" fill-opacity="0.216" stroke="#f6bea7" stroke-width="0.5" stroke-opacity="0.216" d="M 294.07,503.17 c 0.34,-0.1 0.69,-0.21 1.04,-0.32 c -0.11,0.78 -0.57,1.17 -1.36,1.17 c 0.1,-0.28 0.21,-0.56 0.32,-0.85 Z"/></g>
<g><path fill="#d0a491" fill-opacity="0.318" stroke="#d0a491" stroke-width="0.5" stroke-opacity="0.318" d="M 14.06,418.12 c 0.3,-0.05 0.61,-0.1 0.91,-0.14 c -0.1,0.53 -0.38,0.96 -0.82,1.28 c -0.03,-0.38 -0.06,-0.76 -0.09,-1.14 Z"/></g>
<g><path fill="#24aee4" fill-opacity="0.224" d="M 393.35,204.28 c -0.4,0.31 -0.83,0.57 -1.28,0.79 c 0.11,-0.74 0.54,-1 1.28,-0.79 Z"/></g>
<g><path fill="#22b1e3" fill-opacity="0.322" d="M 390.83,201.82 c -0.07,0.58 -0.4,0.88 -0.98,0.91 c 0.33,-0.31 0.65,-0.61 0.98,-0.91 Z"/></g>
<g><path fill="#24b3e0" fill-opacity="0.196" d="M 412.35,193.3 c -0.4,0.3 -0.82,0.56 -1.27,0.78 c 0.1,-0.73 0.52,-0.99 1.27,-0.78 Z"/></g>
<g><path fill="#f6c0aa" fill-opacity="0.224" d="M 39.28,439.28 c -0.14,0.21 -0.28,0.42 -0.42,0.63 c -0.32,0.1 -0.64,0.2 -0.96,0.3 c 0.17,-0.73 0.63,-1.04 1.38,-0.93 Z"/></g>
<g><path fill="#23b1e1" fill-opacity="0.231" d="M 419.33,189.28 c -0.39,0.31 -0.81,0.57 -1.26,0.78 c 0.09,-0.74 0.51,-1 1.26,-0.78 Z"/></g>
<g><path fill="#23b2e0" fill-opacity="0.259" d="M 426.33,185.27 c -0.39,0.31 -0.82,0.57 -1.28,0.77 c 0.13,-0.72 0.55,-0.98 1.28,-0.77 Z"/></g>
<g><path fill="#f3c1a8" fill-opacity="0.161" d="M 379.89,453.93 c -0.09,0.71 -0.46,0.89 -1.12,0.54 c 0.38,-0.17 0.75,-0.35 1.12,-0.54 Z"/></g>
<g><path fill="#23a3cf" fill-opacity="0.706" d="M 462.06,182.84 c -0.11,0.66 -0.5,0.96 -1.15,0.91 c 0.23,-0.48 0.62,-0.78 1.15,-0.91 Z"/></g>
<g><path fill="#24b1e1" fill-opacity="0.333" d="M 440.31,177.01 c -0.38,0.47 -0.87,0.73 -1.47,0.79 c 0.34,-0.51 0.83,-0.77 1.47,-0.79 Z"/></g>
<g><path fill="#f2bda7" fill-opacity="0.227" stroke="#f2bda7" stroke-width="0.5" stroke-opacity="0.227" d="M 90.84,461.79 c 0.36,0.06 0.72,0.12 1.07,0.18 c 0.11,0.28 0.21,0.56 0.32,0.84 c -0.78,0.08 -1.24,-0.26 -1.39,-1.02 Z"/></g>
<g><path fill="#23afe1" fill-opacity="0.4" d="M 454.23,169 c -0.38,0.36 -0.81,0.63 -1.31,0.8 c 0.23,-0.58 0.67,-0.84 1.31,-0.8 Z"/></g>
<g><path fill="#21b0e2" fill-opacity="0.239" d="M 457.95,158.96 c -0.14,0.71 -0.57,0.97 -1.29,0.76 c 0.4,-0.3 0.83,-0.56 1.29,-0.76 Z"/></g>
<g><path fill="#22b1e2" fill-opacity="0.408" d="M 473.24,157.9 c -0.12,0.31 -0.24,0.62 -0.35,0.93 c -0.31,-0.03 -0.62,-0.06 -0.93,-0.08 c 0.25,-0.53 0.68,-0.81 1.28,-0.85 Z"/></g>
<g><path fill="#21aede" fill-opacity="0.271" stroke="#21aede" stroke-width="0.5" stroke-opacity="0.271" d="M 328.9,69.72 c -0.03,0.81 -0.45,1.28 -1.24,1.42 c 0.23,-0.63 0.65,-1.1 1.24,-1.42 Z"/></g>
<g><path fill="#dcac99" fill-opacity="0.314" stroke="#dcac99" stroke-width="0.5" stroke-opacity="0.314" d="M 175.21,473.22 c -0.11,0.2 -0.22,0.4 -0.33,0.59 c -0.39,0.04 -0.78,0.07 -1.17,0.1 c 0.33,-0.58 0.83,-0.81 1.5,-0.69 Z"/></g>
<g><path fill="#dfb399" fill-opacity="0.157" stroke="#dfb399" stroke-width="0.5" stroke-opacity="0.157" d="M 240.81,389.09 c 0.71,-0.1 1.09,0.21 1.13,0.92 c -0.37,-0.03 -0.75,-0.06 -1.12,-0.08 c -0.01,-0.28 -0.01,-0.56 -0.01,-0.84 Z"/></g>
<g><path fill="#f4bfa8" fill-opacity="0.996" stroke="#f4bfa8" stroke-width="0.5" stroke-opacity="0.996" d="M 151.76,277.91 c 0.12,0.32 0.25,0.65 0.37,0.97 c -3.46,0.92 -6.95,1.65 -10.48,2.19 c 0.14,-0.39 0.4,-0.68 0.78,-0.87 c 3.01,-1.15 5.95,-4.58 9.33,-2.29 Z M 283.27,280.04 c -11.85,7.3 -23.68,14.66 -35.49,22.08 c -2.03,1.64 -8.75,4.67 -9.7,6.78 c -2.16,0.3 -3.86,1.35 -5.09,3.15 c -1.79,-0.1 -4.15,1.41 -5.01,2.98 c -0.76,-0.13 -1.36,0.1 -1.81,0.7 c 0.54,0.94 1.81,0.12 1.81,-0.7 c 1.76,0.03 4.16,-1.48 5.01,-2.98 c 2.15,-0.34 3.85,-1.39 5.09,-3.15 c 0.69,0.08 1.33,-0.05 1.93,-0.39 c 2.98,-1.8 6,-3.54 9.07,-5.22 c 11.48,-6.75 23.01,-13.43 34.59,-20.04 c 0.61,-0.28 1,-0.75 1.15,-1.4 c 4.75,2.61 7.53,11.37 6.85,16.54 c -1.05,9.51 -6.17,15.56 -15.37,18.15 c -2.15,0.41 -0.03,-1.15 -0.74,-2.32 c -2.99,1.64 -6.18,3.61 -9.58,4.33 c -13.7,3.79 -54.68,5.5 -63.65,15.22 c -6.55,7.67 -7.17,19.77 -9.65,29.22 c -0.8,0.17 -1.55,0.46 -2.25,0.88 c -14.8,10.62 -29.64,21.19 -44.51,31.7 c -0.49,0.28 -0.73,0.71 -0.73,1.27 c -1.56,0.04 -2.63,0.77 -3.23,2.19 c -0.75,-0.08 -1.46,0.02 -2.15,0.31 c -1.18,1.12 -0.99,1.53 0.57,1.22 c 0.68,-0.35 1.21,-0.86 1.58,-1.53 c 1.5,-0.09 2.58,-0.82 3.23,-2.19 c 2.58,-0.06 6.27,-3.69 8.78,-4.39 c 12.63,-7.26 25.24,-14.56 37.82,-21.89 c 1.56,2.87 2.25,5.75 4.4,8.46 c -4.01,1.69 -18.73,13.09 -23.65,16.11 c -0.73,0.39 -1.17,0.98 -1.31,1.78 c -1.53,-0.03 -2.61,0.66 -3.24,2.06 c -0.81,-0.17 -1.44,0.07 -1.91,0.72 c 0.58,0.98 1.86,0.1 1.91,-0.72 c 1.41,-0.16 2.49,-0.85 3.24,-2.06 c 0.84,-0.14 1.63,-0.43 2.36,-0.87 c 8.39,-4.83 16.8,-9.62 25.23,-14.36 c 6.49,5.13 12.8,7.3 20.32,10.32 c -0.02,0.32 -0.03,0.63 -0.05,0.94 c -0.65,0.11 -1.24,0.36 -1.77,0.75 c -11.49,8.69 -25.3,20.94 -37.37,27.8 c -1.02,0.78 -0.89,1.13 0.37,1.05 c 0.47,-0.41 0.93,-0.83 1.37,-1.28 c 1.46,-0.57 2.87,-1.25 4.22,-2.06 c 13.54,-7.75 27.05,-15.56 40.54,-23.41 c 0.83,-0.69 1.81,-0.91 2.94,-0.67 c 3.28,1.34 6.56,2.7 9.82,4.08 c -0.65,0.6 -1.42,1.04 -2.3,1.3 c -10.76,8.21 -21.48,16.47 -32.16,24.79 c -1.2,0.47 -2.09,1.3 -2.65,2.48 c -1.35,0.11 -2.34,0.74 -2.96,1.89 c 0.96,1.18 2.67,-0.93 2.96,-1.89 c 1.46,0.67 2.7,-0.84 3.97,-1.32 c 0.38,-0.52 0.85,-0.94 1.4,-1.27 c 2.8,-1.14 37.6,-20.97 38.41,-22.35 c 8.56,2.42 16.53,5.82 25.4,7.44 c 0.28,0.11 0.45,0.31 0.5,0.59 c -10.43,7.74 -20.82,15.53 -31.17,23.37 c -1.47,1.63 -1.6,2.03 -4.03,2.77 c -0.21,0.28 -0.32,0.59 -0.34,0.93 c -0.4,-0.01 -0.72,0.15 -0.95,0.46 c 0.42,0.18 0.74,0.03 0.95,-0.46 c 14.68,-7.41 28.94,-16.48 43.48,-24.56 c 0.58,-0.25 0.93,-0.68 1.05,-1.28 c 19.93,2.4 38.58,-1.37 56.35,-10.52 c 0.68,-0.32 1.4,-0.5 2.15,-0.56 c -0.79,1.88 -1.61,1.73 -3.27,2.59 c -12.58,9.14 -25.28,18.1 -38.1,26.89 c -0.5,0.28 -0.74,0.71 -0.74,1.27 c -1.58,0.08 -2.63,0.86 -3.13,2.33 c -0.77,-0.2 -1.4,0.01 -1.89,0.61 c 0.55,0.88 1.76,0.16 1.89,-0.61 c 1.44,-0.26 2.49,-1.04 3.13,-2.33 c 0.64,0.04 1.25,-0.02 1.86,-0.19 c 16.86,-9.91 33.77,-19.76 50.73,-29.56 c 0.5,0.05 0.96,-0.05 1.39,-0.29 c 2.31,-2.73 12.02,-6.08 12.67,-9.16 c 14.76,-5.1 29.59,-9.96 44.5,-14.58 c -0.77,1.29 -1.88,2.1 -3.35,2.42 c -3.37,2.35 -6.82,4.58 -10.34,6.7 c -3.88,2.51 -7.76,5.02 -11.65,7.52 c -0.42,0.35 -0.76,0.76 -1.01,1.25 c -0.91,-0.02 -1.54,0.37 -1.91,1.17 c -1.4,0.13 -2.39,0.79 -2.99,1.99 c -0.78,-0.15 -1.41,0.09 -1.87,0.71 c 0.57,0.96 1.75,0.05 1.87,-0.71 c 1.4,-0.04 2.39,-0.71 2.99,-1.99 c 1.02,0.18 1.66,-0.21 1.91,-1.17 c 0.73,0.03 1.41,-0.13 2.05,-0.5 c 4.03,-2.31 8.06,-4.62 12.09,-6.92 c 6.27,-3.75 12.57,-7.44 18.91,-11.08 c 0.59,-0.87 3.11,-1.35 2.74,-2.48 c 10.92,-3.96 31.95,-11.81 42.45,-13.88 c -0.05,0.44 -0.28,0.75 -0.68,0.95 c -6.02,3.59 -11.94,7.36 -17.76,11.3 c -3,1.63 -5.9,3.43 -8.72,5.38 c -1.15,1.28 -5.76,2.6 -5.97,4.3 c -1.45,0.02 -2.45,0.69 -3.02,2.02 c -0.9,-0.09 -1.61,0.24 -2.12,0.97 c -1.35,0.22 -2.3,0.94 -2.86,2.15 c -0.77,-0.18 -1.41,0.02 -1.92,0.6 c 0.56,0.88 1.74,0.15 1.92,-0.6 c 1.51,0.02 2.46,-0.69 2.86,-2.15 c 1,0.24 1.71,-0.08 2.12,-0.97 c 1.42,-0.04 2.43,-0.71 3.02,-2.02 c 1.59,0.24 6.4,-2.3 6.61,-3.92 c 2.49,0.2 6.8,-3.41 9.06,-4.43 c 4.3,-2.5 26.56,-14.24 28.22,-16.81 c 4.75,-2.47 11.04,-1.92 15.36,1.21 c -0.21,0.33 -0.43,0.65 -0.64,0.98 c -23.36,15.38 -46.76,30.71 -70.2,45.98 c -0.98,0.49 -1.56,1.27 -1.75,2.34 c -1.81,-0.95 -3.87,1.2 -4.74,2.63 c -2.09,0.3 -3.75,1.31 -4.99,3.02 c -1.6,-0.11 -2.61,0.6 -3.04,2.13 c -0.77,-0.2 -1.39,0.01 -1.86,0.63 c 0.57,0.86 1.53,-0.06 1.86,-0.63 c 1.02,-0.49 2.86,-0.76 3.04,-2.13 c 1.76,0.02 4.33,-1.32 4.99,-3.02 c 1.98,-0.16 3.56,-1.04 4.74,-2.63 c 1.19,-0.19 2.27,-0.64 3.25,-1.35 c 25,-14.34 49.96,-28.77 74.88,-43.27 c 2.13,2.5 3.48,5.36 4.06,8.58 c -2.33,-0.02 -40.09,25.62 -45.29,29.02 c -1.56,0.86 -3.79,1.89 -4.49,3.63 c -2.41,-0.12 -5.04,2.72 -7.17,3.76 c -0.45,0.37 -0.79,0.83 -1.01,1.38 c -1.73,-0.09 -3.91,1.43 -4.96,2.67 c 0.77,1.42 4.6,-1.66 4.96,-2.67 c 2.04,-0.05 6,-3.19 8.02,-4.06 c 1.91,-1.23 3.85,-2.38 5.81,-3.45 c 14.92,-8.53 29.77,-17.17 44.55,-25.94 c 0.23,0.28 0.36,0.61 0.38,0.98 c -0.07,7.33 -3.02,13.21 -8.86,17.64 c -23.91,10.7 -46.45,23.86 -68.99,37.15 c -1.36,-0.36 -2.52,0 -3.48,1.08 c 0.04,0.18 0.14,0.28 0.32,0.31 c 0.54,1.55 -3.32,1.22 -4.17,2.17 c -0.56,0.65 -0.96,1.39 -1.22,2.21 c -0.88,-0.22 -1.78,-0.26 -2.68,-0.11 c -9.28,5.23 -18.54,10.53 -27.75,15.91 c -0.37,0.19 -0.74,0.37 -1.12,0.54 c -10.61,6.24 -21.25,12.41 -31.93,18.53 c -0.91,0.35 -1.73,0.85 -2.47,1.47 c 0.08,0.19 0.22,0.28 0.43,0.27 c 0.27,1.55 -2.81,1.25 -3.7,1.9 c -13.97,8.07 -31.23,14.96 -47.26,17.37 c -0.05,-0.43 -0.09,-0.87 -0.14,-1.3 c 0.65,-0.11 1.24,-0.34 1.8,-0.69 c 14.29,-9.4 28.62,-18.72 43.01,-27.96 c 0.45,-0.44 0.97,-0.79 1.54,-1.06 c 3.01,-1.85 5.99,-3.75 8.94,-5.7 c 0.5,-0.28 0.79,-0.7 0.89,-1.26 c 1.88,-0.06 3.76,-1.49 5.06,-2.68 c -1.52,-1.41 -4.16,1.46 -5.06,2.68 c -1.78,-0.32 -6.34,3.49 -8.24,4.22 c -0.6,0.4 -1.13,0.87 -1.6,1.42 c -1.1,0.27 -2.1,0.74 -3.01,1.41 c -17.66,10.15 -35.34,20.34 -53.03,30.56 c -1.07,0.64 -2,1.43 -2.79,2.37 c -6.15,0.54 -12.31,0.54 -18.47,0 c 24.41,-15.99 48.74,-32.1 72.98,-48.33 c 0.64,-0.14 1.27,-0.33 1.87,-0.59 c 1.8,-1.24 3.61,-2.49 5.42,-3.73 c 0.41,-0.38 0.71,-0.84 0.91,-1.36 c 1.63,0.01 4.59,-1.56 5.14,-3.09 c 0.74,0.1 1.44,-0.01 2.12,-0.3 c 1.27,-1.09 1.09,-1.53 -0.54,-1.31 c -0.79,0.28 -1.32,0.82 -1.58,1.61 c -1.89,-0.09 -4.03,1.66 -5.14,3.09 c -2.24,0.03 -6.73,3.63 -9.02,4.57 c -1.1,1.63 -3.32,1.8 -4.88,2.93 c -25.18,14.49 -50.31,29.07 -75.39,43.75 c -0.93,0.63 -1.98,0.86 -3.13,0.71 c -3.56,-0.97 -7.07,-2.08 -10.55,-3.33 c 0.66,-0.4 1.37,-0.71 2.12,-0.93 c 6.75,-4.37 13.51,-8.72 20.28,-13.05 c 1.63,-0.87 3.16,-1.89 4.6,-3.05 c 1.65,-0.69 3.21,-1.54 4.68,-2.56 c 1.39,-0.75 2.49,-1.79 3.29,-3.11 c 0.96,0.19 1.63,-0.15 2,-1.04 c 1.46,0.03 2.51,-0.62 3.14,-1.93 c 0.5,0.19 2.53,-0.31 1.45,-1.04 c -0.68,0.08 -1.16,0.43 -1.45,1.04 c -1.45,0 -2.5,0.64 -3.14,1.93 c -0.87,-0.03 -1.53,0.31 -2,1.04 c -1.43,0.31 -2.74,0.89 -3.93,1.74 c -1.85,0.98 -3.54,2.16 -5.07,3.54 c -1.73,0.5 -3.33,1.27 -4.81,2.3 c -8.03,4.66 -16.08,9.32 -24.14,13.96 c -3.54,-0.71 -7.06,-1.54 -10.55,-2.5 c -0.66,-0.05 -1.11,-0.36 -1.35,-0.92 c 6.21,-3.88 12.41,-7.81 18.58,-11.79 c 0.77,-0.66 1.49,-1.36 2.16,-2.1 c 1.56,-0.13 4.67,-1.66 5.24,-3.14 c 1.32,-0.16 2.3,-0.83 2.94,-2.01 c 0.5,0.18 2.74,-0.34 1.62,-1.13 c -0.74,0.1 -1.28,0.48 -1.62,1.13 c -1.43,0.03 -2.41,0.69 -2.94,2.01 c -2.23,0.22 -3.98,1.27 -5.24,3.14 c -0.87,-0.01 -1.69,0.2 -2.46,0.62 c -5.85,3.56 -11.77,6.98 -17.75,10.28 c -1.06,0.83 -3.26,1.34 -3.5,2.84 c -3.9,-0.85 -7.77,-1.82 -11.62,-2.89 c -0.66,-0.09 -1.15,-0.41 -1.46,-0.96 c 0.62,-0.09 1.18,-0.32 1.69,-0.69 c 13.26,-9.47 26.54,-18.88 39.87,-28.22 c 0.89,-0.54 1.61,-1.23 2.16,-2.06 c 0.99,-0.65 2.69,-0.5 3.16,-1.74 c -1.06,-1.63 -2.24,1.3 -3.16,1.74 c -1.96,0.75 -3.86,1.65 -5.69,2.7 c -15.38,8.88 -30.76,17.76 -46.15,26.66 c -3.01,-0.44 -5.98,-1.06 -8.92,-1.87 c -1.28,-0.29 -2.5,-0.72 -3.66,-1.28 c 1.29,-0.77 2.45,-1.71 3.49,-2.8 c -0.6,-0.33 -1.22,-0.33 -1.86,0 c -1.12,1.41 -2.58,2.22 -4.38,2.41 c -3.95,-0.85 -7.84,-1.89 -11.69,-3.1 c 0.11,-0.19 0.22,-0.39 0.33,-0.59 c 10.12,-7.69 20.23,-15.4 30.31,-23.14 c 1,-1.01 3.5,-1.31 3.37,-3.02 c 0.55,-0.22 4.15,-0.94 2.65,-1.92 c -1.29,0.08 -2.17,0.72 -2.65,1.92 c -1.24,0.07 -41.5,23.07 -42.83,24.74 c -9,-2.28 -18.33,-4.62 -27.31,-6.81 c 12.15,-9.48 24.36,-18.87 36.64,-28.19 c 0.57,-0.44 1.06,-0.96 1.47,-1.55 c 0.62,-0.68 3.66,-1.03 2.65,-2.32 c -1.36,0.2 -2.25,0.97 -2.65,2.32 c -0.89,-0.05 -1.73,0.12 -2.52,0.51 c -15.38,8.99 -30.82,17.84 -46.34,26.57 c -3.52,-0.71 -7.03,-1.49 -10.52,-2.36 c -0.7,-0.03 -1.15,-0.37 -1.33,-1 c 11.97,-8.85 23.9,-17.77 35.77,-26.75 c 0.75,-0.61 1.38,-1.3 1.87,-2.08 c 0.99,-0.35 2.76,-0.5 3.05,-1.74 c -0.9,-1.19 -2.63,0.92 -3.05,1.74 c -2.58,1 -5.06,2.23 -7.45,3.68 c -12.49,7.22 -24.98,14.42 -37.49,21.61 c -0.65,0.52 -0.97,1.2 -0.96,2.04 c -9.61,-2.44 -19.22,-4.84 -28.82,-7.2 c 9.21,-6.31 18.38,-12.67 27.53,-19.09 c 1.74,-1.37 1.96,-2.46 4.47,-2.79 c 0.91,-0.62 0.78,-0.98 -0.38,-1.1 c -0.77,0.73 -1.66,1.2 -2.69,1.44 c -0.42,0.52 -0.91,0.95 -1.48,1.3 c -10.28,5.67 -20.5,11.47 -30.67,17.39 c -0.63,0.48 -1,1.11 -1.09,1.91 c -4.32,-0.85 -8.55,-1.96 -12.72,-3.33 c 0.07,-0.32 0.13,-0.65 0.2,-0.98 c 16.21,-11.47 32.29,-23.08 48.26,-34.85 c 2.75,-1.75 6.29,-3.46 8.28,-6.03 c 0.42,-0.41 4.34,-1.17 2.76,-2.18 c -1.34,0.17 -2.26,0.9 -2.76,2.18 c -0.63,0.05 -1.26,0.1 -1.89,0.14 c -21.69,12.75 -43.42,25.44 -65.19,38.09 c -1.88,0.93 -12.19,-0.87 -12.84,-2.46 c 0.14,-0.21 0.28,-0.42 0.42,-0.63 c 20.45,-13.01 40.9,-26.03 61.34,-39.05 c 0.83,-0.61 1.57,-1.27 2.22,-1.98 c 2.11,-0.44 3.84,-1.48 5.21,-3.14 c 0.87,-0.15 5.79,-2.06 4.56,-3.16 c -1.41,0.04 -4.03,1.67 -4.56,3.16 c -2.26,0.19 -3.99,1.23 -5.21,3.14 c -2.41,0.08 -14.55,7.68 -17.36,9.61 c -15.39,8.56 -30.69,17.27 -45.92,26.15 c -2.63,1.42 -5.14,3.01 -7.53,4.76 c -4.05,-0.77 -7.53,-2.63 -10.43,-5.57 c 3.35,0.31 27.77,-16.63 32.08,-19.53 c 0.71,-0.08 1.39,-0.3 2.02,-0.64 c 1.71,-1.71 7.56,-4.02 8.32,-6.07 c 1.6,-0.09 4.48,-1.4 4.89,-3.05 c 1.44,0.02 2.46,-0.63 3.07,-1.97 c 0.92,0.17 1.59,-0.15 2.01,-0.96 c 0.98,0.13 4.23,-0.68 2.67,-1.97 c -1.28,0.15 -2.16,0.81 -2.67,1.97 c -0.98,-0.23 -1.66,0.09 -2.01,0.96 c -1.32,0.22 -2.34,0.88 -3.07,1.97 c -2.06,0.33 -3.69,1.34 -4.89,3.05 c -0.72,-0.03 -1.42,0.11 -2.08,0.41 c -3,1.77 -6.01,3.51 -9.03,5.22 c -0.41,0.52 -0.91,0.93 -1.49,1.23 c -9.89,5.45 -19.72,11.03 -29.48,16.75 c -0.57,0.36 -0.85,0.87 -0.82,1.55 c -2.31,-0.81 -5.26,-6.37 -5.48,-8.86 c 0.84,-0.18 1.63,-0.48 2.38,-0.9 c 20.45,-13.23 40.91,-26.44 61.36,-39.66 c 2.53,-1.58 5.06,-3.16 7.6,-4.73 c 1.47,-1.13 6.51,-3.57 6.96,-5.05 c 1.31,-0.17 2.34,-0.78 3.09,-1.83 c 0.68,-0.04 2.05,-0.02 1.92,-1.04 c 0.87,-0.79 0.87,-0.79 0,0 c -0.95,-0.21 -1.59,0.14 -1.92,1.04 c -1.63,-0.5 -2.08,1 -3.09,1.83 c -1.61,-0.32 -3,1.56 -4.59,1.94 c -1.01,0.56 -1.87,1.29 -2.59,2.19 c -1.81,-0.02 -6.87,3.71 -8.85,4.52 c -0.41,0.51 -0.88,0.94 -1.44,1.28 c -20.56,11.57 -41.06,23.28 -61.5,35.13 c -0.3,0.04 -0.61,0.09 -0.91,0.14 c -0.61,-3.11 -0.87,-6.25 -0.78,-9.41 c 0.7,-0.92 1.54,-1.69 2.51,-2.32 c -0.11,-0.11 -0.22,-0.21 -0.33,-0.32 c -1.03,0.28 -2.41,1.92 -2.45,-0.48 c 0.32,-7.54 0.92,-15.06 1.8,-22.56 c 0.78,-0.07 1.51,-0.3 2.18,-0.71 c 16.82,-11.55 33.88,-24.25 51.17,-34.76 c 0.56,-0.34 0.75,-0.83 0.59,-1.46 c 1.03,0.19 5.97,-2.15 4.84,-3.16 c -1.41,-0.11 -4.01,1.97 -4.84,3.16 c -16.93,8.73 -33.55,19.18 -50.43,28.59 c -1.1,0.69 -2.11,1.51 -3.02,2.45 c 0.31,-4.2 0.45,-8.41 0.41,-12.62 c -0.66,-10.26 -3.66,-25.5 11.66,-25.64 c -1.82,3.45 -3.81,6.81 -5.95,10.07 c -0.09,0.68 0.22,0.93 0.9,0.75 c 3.35,-2.3 19,-10.34 20.62,-12.52 c 20.03,-2.25 47.54,-22.12 64.99,-32.79 c 8.5,-5.77 30.72,-16.13 40.15,-17.03 c -4.46,2.95 -8.95,5.89 -13.49,8.82 c -0.64,0.46 -1.16,1.03 -1.57,1.71 c -1.5,-0.01 -2.49,0.69 -2.94,2.11 c -0.91,-0.11 -1.63,0.2 -2.16,0.93 c -0.89,0.37 -2.58,0.61 -2.84,1.71 c 1.13,1.28 2.6,-0.58 2.84,-1.71 c 0.98,0.22 1.7,-0.08 2.16,-0.93 c 1.39,-0.11 2.38,-0.82 2.94,-2.11 c 0.7,0.07 1.36,-0.03 2,-0.3 c 5.76,-3.67 11.67,-7.09 17.7,-10.24 c 0.5,-0.26 0.86,-0.64 1.09,-1.15 c 7.27,-1.89 14.66,-2.97 22.18,-3.25 c -0.09,0.37 -0.18,0.74 -0.27,1.11 c -19.25,13.12 -38.5,26.25 -57.73,39.41 c -0.46,0.36 -0.72,0.82 -0.8,1.39 c -1.64,-0.09 -4.64,1.67 -5.13,3.17 c -0.92,0.44 -2.79,0.43 -3.09,1.6 c 1.05,1.25 2.68,-0.57 3.09,-1.6 c 1.57,0.1 4.41,-1.69 5.13,-3.17 c 2.84,-0.39 6.53,-3.62 9.44,-4.71 c 21.15,-12.23 42.31,-24.44 63.47,-36.65 c 0.56,-0.42 0.86,-0.98 0.87,-1.69 c 13.13,-0.51 26.26,-0.78 39.39,-0.83 c -1.56,1.36 -3.17,2.65 -4.83,3.89 c -3.25,1.78 -6.45,3.66 -9.59,5.67 c -0.45,0.34 -0.69,0.8 -0.73,1.36 c -2.28,0.08 -4.02,1.1 -5.2,3.07 c -2.13,0.24 -3.82,1.23 -5.08,2.97 c -2.05,0.37 -3.72,1.37 -5.03,3.01 c -0.73,-0.06 -1.31,0.2 -1.73,0.77 c 0.56,0.94 1.85,0.08 1.73,-0.77 c 1.57,-0.02 2.95,-0.59 4.12,-1.69 c 0.41,-0.36 0.72,-0.8 0.91,-1.32 c 2.13,-0.24 3.83,-1.23 5.08,-2.97 c 2.15,-0.29 3.89,-1.31 5.2,-3.07 c 0.62,-0.08 1.22,-0.25 1.8,-0.49 c 5.29,-3.06 10.59,-6.1 15.91,-9.12 c 0.42,-0.4 0.7,-0.88 0.85,-1.44 c 6.81,-0.43 13.63,-0.76 20.45,-1 c 0.15,1.15 -1.67,1.11 -2.32,1.63 c -20.87,13.99 -42.82,27.18 -63.4,41.41 c -1.46,0.12 -2.21,0.89 -2.23,2.32 c -1.9,-0.51 -3.07,0.18 -3.51,2.08 c -0.86,-0.49 -1.41,-0.3 -1.68,0.58 c -0.48,0.06 -0.96,0.12 -1.44,0.19 c -1.56,1.25 -5.87,3.18 -6.57,4.94 c -1.42,-0.01 -2.45,0.63 -3.1,1.94 c -0.8,-0.15 -1.44,0.08 -1.93,0.71 c 0.59,0.97 1.81,0.1 1.93,-0.71 c 1.34,-0.2 2.37,-0.85 3.1,-1.94 c 0.68,0 1.33,-0.17 1.93,-0.5 c 1.79,-0.94 3.45,-2.03 4.97,-3.29 c 0.45,-0.07 0.91,-0.14 1.36,-0.2 c 0.58,-0.49 1.06,-1.06 1.43,-1.72 c 1.48,-0.26 2.81,-0.83 3.99,-1.72 c 26.08,-15.06 52.16,-30.13 78.25,-45.19 c 0.46,-0.34 0.71,-0.8 0.76,-1.38 c 5.96,-1.59 11.8,-1.25 17.51,1.04 Z M 203.99,286 c -0.49,0.29 -4.23,1.06 -2.61,2.1 c 1.25,-0.2 2.12,-0.9 2.61,-2.1 c 0.59,0.21 2.94,-0.28 1.59,-1.12 c -0.85,-0.05 -1.38,0.32 -1.59,1.12 Z M 28.94,356.02 c -1.34,0.16 -2.32,0.83 -2.92,2 c -2,0.24 -3.67,1.13 -4.99,2.67 c -0.87,0.23 -4.14,1.1 -2.61,2.4 c 0.97,-0.11 1.84,-0.48 2.6,-1.12 c 1.46,-0.96 4.34,-2.32 5,-3.95 c 1.38,-0.05 2.35,-0.72 2.92,-2 c 0.8,0.11 1.45,-0.13 1.97,-0.74 c -0.59,-0.91 -1.75,0.04 -1.97,0.74 Z M 39,391.98 c -1.48,0.05 -2.45,0.75 -2.91,2.12 c -0.97,-0.24 -1.69,0.08 -2.17,0.93 c -1.35,0.06 -2.34,0.69 -2.96,1.9 c -1.38,-0.01 -7.49,2.89 -7.19,4.48 c 0.89,0.64 6.96,-3.23 7.19,-4.48 c 1.44,0.09 2.43,-0.54 2.96,-1.9 c 0.9,0.09 1.62,-0.22 2.17,-0.93 c 1.26,-0.29 2.23,-0.99 2.91,-2.12 c 0.76,0.12 1.38,-0.12 1.84,-0.72 c -0.55,-0.89 -1.67,0.04 -1.84,0.72 Z M 14.64,394.04 c 0.28,1.63 2.94,0.38 3.32,-0.72 c -0.79,-1.38 -2,1 -3.32,0.72 Z M 196.06,394.92 c -0.82,-0.09 -1.47,0.2 -1.96,0.84 c 0.64,0.92 1.86,-0.06 1.96,-0.84 c 0.74,-0.14 3.76,-0.81 2.49,-2.01 c -1.24,0.15 -2.07,0.82 -2.49,2.01 Z M 250.93,412.03 c -0.95,-0.25 -1.62,0.04 -2.01,0.88 c -0.38,0.01 -0.64,0.18 -0.79,0.51 c 0.45,0.22 0.71,0.05 0.79,-0.51 c 0.69,0.14 2.09,0.17 2.01,-0.88 c 0.8,-0.01 3.97,-0.94 2.69,-2.11 c -1.33,0.14 -2.23,0.84 -2.69,2.11 Z M 279.88,425.27 c 1.44,0.11 7.24,-3.25 7.07,-4.64 c -0.59,-1 -6.89,3.47 -7.07,4.64 Z M 101.7,448.22 c 0.72,-0.09 3.97,-1.16 2.87,-2.28 c -1.46,0.14 -2.41,0.9 -2.87,2.28 Z M 162.07,462.11 c -1.37,-0.09 -2.4,0.44 -3.07,1.6 c 0.81,1.25 2.63,-0.77 3.07,-1.6 c 0.5,0.1 2.53,-0.5 1.44,-1.21 c -0.72,0.13 -1.2,0.53 -1.44,1.21 Z M 197.71,471.32 c 0.7,-0.12 3.94,-1.26 2.83,-2.31 c -1.46,0.15 -2.4,0.92 -2.83,2.31 Z M 294.07,503.17 c -0.11,0.29 -0.22,0.57 -0.32,0.85 c -2.22,1.06 -4.46,2.08 -6.74,3.05 c -0.64,-0.05 -1.29,-0.09 -1.93,-0.12 c -0.9,-0.4 -1.7,-0.96 -2.38,-1.68 c 0.09,-0.32 0.17,-0.65 0.26,-0.97 c 3.68,-0.64 7.38,-1.01 11.11,-1.13 Z"/></g>
<g><path fill="#f2bfa9" fill-opacity="0.255" d="M 252.05,469.03 c -0.57,1.48 -3.68,3.01 -5.24,3.14 c 1.26,-1.87 3.01,-2.92 5.24,-3.14 Z"/></g>
<g><path fill="#f6bfaa" fill-opacity="0.255" d="M 277.92,466.9 c -0.37,0.89 -1.04,1.23 -2,1.04 c 0.47,-0.73 1.13,-1.07 2,-1.04 Z"/></g>
<g><path fill="#f5c0a8" fill-opacity="0.31" d="M 162.07,462.11 c -0.44,0.83 -2.26,2.85 -3.07,1.6 c 0.67,-1.16 1.7,-1.69 3.07,-1.6 Z"/></g>
<g><path fill="#f4bfa8" fill-opacity="0.337" d="M 176.86,435.25 c 0.4,-1.35 1.29,-2.12 2.65,-2.32 c 1.01,1.29 -2.03,1.64 -2.65,2.32 Z M 236.24,437.93 c -0.21,0.49 -0.53,0.64 -0.95,0.46 c 0.23,-0.31 0.55,-0.47 0.95,-0.46 Z M 101.7,448.22 c 0.46,-1.38 1.41,-2.14 2.87,-2.28 c 1.1,1.12 -2.15,2.19 -2.87,2.28 Z"/></g>
<g><path fill="#f4bfa8" fill-opacity="0.361" d="M 248.92,412.91 c -0.08,0.56 -0.34,0.73 -0.79,0.51 c 0.15,-0.33 0.41,-0.5 0.79,-0.51 Z M 281.06,464.97 c -0.63,1.31 -1.68,1.96 -3.14,1.93 c 0.64,-1.29 1.69,-1.93 3.14,-1.93 Z"/></g>
<g><path fill="#f3bdaa" fill-opacity="0.161" d="M 413.73,408.29 c -1.18,1.59 -2.76,2.47 -4.74,2.63 c 0.87,-1.43 2.93,-3.58 4.74,-2.63 Z"/></g>
<g><path fill="#f4bfa8" fill-opacity="0.349" d="M 73.99,400.98 c -0.42,0.81 -1.09,1.13 -2.01,0.96 c 0.35,-0.87 1.03,-1.19 2.01,-0.96 Z M 153.79,430.14 c 0.42,-0.82 2.15,-2.93 3.05,-1.74 c -0.29,1.24 -2.06,1.39 -3.05,1.74 Z M 297.16,431.76 c -0.64,1.29 -1.69,2.07 -3.13,2.33 c 0.5,-1.47 1.55,-2.25 3.13,-2.33 Z M 254.99,467.02 c -0.64,1.18 -1.62,1.85 -2.94,2.01 c 0.53,-1.32 1.51,-1.98 2.94,-2.01 Z M 197.71,471.32 c 0.43,-1.39 1.37,-2.16 2.83,-2.31 c 1.11,1.05 -2.13,2.19 -2.83,2.31 Z"/></g>
<g><path fill="#f3beaa" fill-opacity="0.247" d="M 30.96,396.93 c -0.23,1.25 -6.3,5.12 -7.19,4.48 c -0.3,-1.59 5.81,-4.49 7.19,-4.48 Z"/></g>
<g><path fill="#f3bfa8" fill-opacity="0.329" d="M 36.09,394.1 c -0.55,0.71 -1.27,1.02 -2.17,0.93 c 0.48,-0.85 1.2,-1.17 2.17,-0.93 Z M 71.98,401.94 c -0.61,1.34 -1.63,1.99 -3.07,1.97 c 0.73,-1.09 1.75,-1.75 3.07,-1.97 Z"/></g>
<g><path fill="#f4bfa8" fill-opacity="0.49" d="M 39,391.98 c 0.17,-0.68 1.29,-1.61 1.84,-0.72 c -0.46,0.6 -1.08,0.84 -1.84,0.72 Z M 196.06,394.92 c -0.1,0.78 -1.32,1.76 -1.96,0.84 c 0.49,-0.64 1.14,-0.93 1.96,-0.84 Z M 349.88,456.04 c 0.9,-1.22 3.54,-4.09 5.06,-2.68 c -1.3,1.19 -3.18,2.62 -5.06,2.68 Z"/></g>
<g><path fill="#f5bfa9" fill-opacity="0.384" d="M 28.94,356.02 c 0.22,-0.7 1.38,-1.65 1.97,-0.74 c -0.52,0.61 -1.17,0.85 -1.97,0.74 Z M 167.99,398.97 c -0.05,0.82 -1.33,1.7 -1.91,0.72 c 0.47,-0.65 1.1,-0.89 1.91,-0.72 Z"/></g>
<g><path fill="#f4bea8" fill-opacity="0.373" d="M 173.07,333 c -0.73,1.09 -1.76,1.74 -3.1,1.94 c 0.65,-1.31 1.68,-1.95 3.1,-1.94 Z M 196.06,394.92 c 0.42,-1.19 1.25,-1.86 2.49,-2.01 c 1.27,1.2 -1.75,1.87 -2.49,2.01 Z M 349.06,438.92 c -0.55,1.53 -3.51,3.1 -5.14,3.09 c 1.11,-1.43 3.25,-3.18 5.14,-3.09 Z"/></g>
<g><path fill="#f4bea9" fill-opacity="0.29" d="M 179.64,328.06 c 0.11,0.38 0.22,0.76 0.33,1.15 c -1.52,1.26 -3.18,2.35 -4.97,3.29 c -0.6,0.33 -1.25,0.5 -1.93,0.5 c 0.7,-1.76 5.01,-3.69 6.57,-4.94 Z M 427.07,382.94 c -0.59,1.31 -1.6,1.98 -3.02,2.02 c 0.57,-1.33 1.57,-2 3.02,-2.02 Z M 33.92,395.03 c -0.53,1.36 -1.52,1.99 -2.96,1.9 c 0.62,-1.21 1.61,-1.84 2.96,-1.9 Z M 108.05,395.11 c -1.37,1.66 -3.1,2.7 -5.21,3.14 c 1.22,-1.91 2.95,-2.95 5.21,-3.14 Z M 250.93,412.03 c 0.46,-1.27 1.36,-1.97 2.69,-2.11 c 1.28,1.17 -1.89,2.1 -2.69,2.11 Z"/></g>
<g><path fill="#f2c0ab" fill-opacity="0.169" d="M 182.76,327.29 c -0.37,0.66 -0.85,1.23 -1.43,1.72 c -0.08,-0.38 -0.16,-0.76 -0.25,-1.14 c 0.27,-0.88 0.82,-1.07 1.68,-0.58 Z"/></g>
<g><path fill="#f3bea9" fill-opacity="0.267" d="M 117.19,324.86 c -0.72,1.48 -3.56,3.27 -5.13,3.17 c 0.49,-1.5 3.49,-3.26 5.13,-3.17 Z M 68.91,403.91 c -0.41,1.65 -3.29,2.96 -4.89,3.05 c 1.2,-1.71 2.83,-2.72 4.89,-3.05 Z"/></g>
<g><path fill="#f4bfa8" fill-opacity="0.471" d="M 227.98,315.03 c 0,0.82 -1.27,1.64 -1.81,0.7 c 0.45,-0.6 1.05,-0.83 1.81,-0.7 Z M 14.64,394.04 c 1.32,0.28 2.53,-2.1 3.32,-0.72 c -0.38,1.1 -3.04,2.35 -3.32,0.72 Z M 73.99,400.98 c 0.51,-1.16 1.39,-1.82 2.67,-1.97 c 1.56,1.29 -1.69,2.1 -2.67,1.97 Z M 208.89,447.06 c 0.48,-1.2 1.36,-1.84 2.65,-1.92 c 1.5,0.98 -2.1,1.7 -2.65,1.92 Z"/></g>
<g><path fill="#f4bfa8" fill-opacity="0.424" d="M 232.99,312.05 c -0.85,1.5 -3.25,3.01 -5.01,2.98 c 0.86,-1.57 3.22,-3.08 5.01,-2.98 Z M 169.97,334.94 c -0.12,0.81 -1.34,1.68 -1.93,0.71 c 0.49,-0.63 1.13,-0.86 1.93,-0.71 Z M 380.05,397.04 c -0.6,1.28 -1.59,1.95 -2.99,1.99 c 0.6,-1.2 1.59,-1.86 2.99,-1.99 Z M 437.96,410.04 c -0.36,1.01 -4.19,4.09 -4.96,2.67 c 1.05,-1.24 3.23,-2.76 4.96,-2.67 Z M 404,413.94 c -0.18,1.37 -2.02,1.64 -3.04,2.13 c 0.43,-1.53 1.44,-2.24 3.04,-2.13 Z M 281.06,464.97 c 0.29,-0.61 0.77,-0.96 1.45,-1.04 c 1.08,0.73 -0.95,1.23 -1.45,1.04 Z M 254.99,467.02 c 0.34,-0.65 0.88,-1.03 1.62,-1.13 c 1.12,0.79 -1.12,1.31 -1.62,1.13 Z"/></g>
<g><path fill="#f5bda8" fill-opacity="0.251" d="M 133.02,297.89 c -0.56,1.29 -1.55,2 -2.94,2.11 c 0.45,-1.42 1.44,-2.12 2.94,-2.11 Z"/></g>
<g><path fill="#f4bea9" fill-opacity="0.318" d="M 210.01,294.97 c -1.25,1.74 -2.95,2.73 -5.08,2.97 c 1.26,-1.74 2.95,-2.73 5.08,-2.97 Z"/></g>
<g><path fill="#f6bba8" fill-opacity="0.204" d="M 215.21,291.9 c -1.31,1.76 -3.05,2.78 -5.2,3.07 c 1.18,-1.97 2.92,-2.99 5.2,-3.07 Z"/></g>
<g><path fill="#f4bfa8" fill-opacity="0.435" d="M 203.99,286 c -0.49,1.2 -1.36,1.9 -2.61,2.1 c -1.62,-1.04 2.12,-1.81 2.61,-2.1 Z M 112.06,328.03 c -0.41,1.03 -2.04,2.85 -3.09,1.6 c 0.3,-1.17 2.17,-1.16 3.09,-1.6 Z M 97.03,371.09 c -0.75,1.05 -1.78,1.66 -3.09,1.83 c 1.01,-0.83 1.46,-2.33 3.09,-1.83 Z M 39,391.98 c -0.68,1.13 -1.65,1.83 -2.91,2.12 c 0.46,-1.37 1.43,-2.07 2.91,-2.12 Z M 108.05,395.11 c 0.53,-1.49 3.15,-3.12 4.56,-3.16 c 1.23,1.1 -3.69,3.01 -4.56,3.16 Z M 253.74,451.09 c 0.92,-0.44 2.1,-3.37 3.16,-1.74 c -0.47,1.24 -2.17,1.09 -3.16,1.74 Z M 162.07,462.11 c 0.24,-0.68 0.72,-1.08 1.44,-1.21 c 1.09,0.71 -0.94,1.31 -1.44,1.21 Z"/></g>
<g><path fill="#f5bea7" fill-opacity="0.333" d="M 203.99,286 c 0.21,-0.8 0.74,-1.17 1.59,-1.12 c 1.35,0.84 -1,1.33 -1.59,1.12 Z M 130.08,300 c -0.46,0.85 -1.18,1.15 -2.16,0.93 c 0.53,-0.73 1.25,-1.04 2.16,-0.93 Z M 424.05,384.96 c -0.41,0.89 -1.12,1.21 -2.12,0.97 c 0.51,-0.73 1.22,-1.06 2.12,-0.97 Z M 279.88,425.27 c 0.18,-1.17 6.48,-5.64 7.07,-4.64 c 0.17,1.39 -5.63,4.75 -7.07,4.64 Z"/></g>
<g><path fill="#262626" fill-opacity="0.996" stroke="#262626" stroke-width="0.5" stroke-opacity="0.996" d="M 437.67,25 c 0.38,0.55 0.89,0.96 1.51,1.21 c 0.33,-0.11 0.62,-0.04 0.88,0.21 c 3.24,2.84 6.49,5.68 9.75,8.51 c 0.27,0.63 0.76,0.92 1.45,0.86 c -0.05,0.71 0.28,1.03 0.99,0.96 c 1.69,2.11 2.41,3.5 4.89,4.86 c -0.04,0.83 0.35,1.13 1.17,0.91 c -0.22,0.74 -0.02,1.33 0.59,1.75 c 0.33,0.34 0.65,0.68 0.98,1.02 c 2.34,2.82 4.63,5.69 6.86,8.6 c 0.35,0.64 0.88,0.88 1.59,0.74 c -0.41,1.11 -0.09,1.88 0.97,2.32 c 0.03,0.56 0.26,1.02 0.7,1.37 c 0.98,1.59 1.98,3.17 3,4.73 c 0.23,0.39 0.44,0.79 0.62,1.21 c 0.07,1 0.59,1.56 1.57,1.68 c 0.01,0.44 0.1,0.87 0.27,1.27 c 1.98,3.42 3.87,6.89 5.68,10.4 c 0.03,0.63 0.26,1.16 0.7,1.6 c 29.18,65.75 -0.61,126.45 -64.45,153.71 c -5.91,2.43 -11.81,4.87 -17.71,7.31 c -0.43,0.32 -0.65,0.75 -0.67,1.28 c 0.22,11.28 0.77,25.27 -13.5,27.49 c -13.59,-0.49 -38.89,6.71 -42.29,-12.54 c -1.14,-9 -0.21,-18.41 0.34,-27.44 c -3.64,-36.25 20.94,-36.8 48.79,-43.2 c 33.18,-8.18 44.45,-31.88 44.9,-64.32 c -1,-42.98 -46.12,-75.94 -87.3,-62.18 c -4.72,1.75 -15.01,6.32 -18.7,8.93 c -0.68,0.05 -0.98,0.41 -0.92,1.1 c -0.56,-0.16 -1.04,-0.04 -1.43,0.37 c -0.59,0.32 -1.01,0.79 -1.24,1.42 c -0.21,-0.1 -0.41,-0.19 -0.62,-0.29 c -0.7,0.23 -0.95,0.7 -0.78,1.43 c -0.6,-0.06 -1.09,0.14 -1.47,0.6 c -0.45,0.33 -0.83,0.74 -1.12,1.21 c -13.03,14.06 -14.29,38.41 -21.37,55.86 c -10.07,28.49 -50.56,26.08 -53.1,-5.45 c -1.67,-22.53 13.08,-61.4 29.75,-77.04 c 4.53,-4.61 9.12,-9.11 13.77,-13.5 c 0.7,0.03 1.23,-0.25 1.58,-0.86 c 0.35,-0.37 0.71,-0.73 1.08,-1.08 c 42.35,-35.29 97,-40.17 142.29,-7.02 Z M 353.24,16.65 c -0.4,-0.6 -0.96,-0.88 -1.7,-0.83 c -6.17,1.13 -12.44,2.69 -18.14,5.34 c -1.56,0.1 -2.97,0.6 -4.23,1.49 c -22.92,9.85 -43.4,26.85 -54.59,49.42 c -0.78,0.72 -1.19,1.61 -1.24,2.65 c -2.91,5.15 -5.08,10.59 -6.5,16.34 c -0.45,0.96 -0.77,1.96 -0.96,3 c -1.23,8.59 -5.3,20.77 -3.66,29.3 c 0.14,4.51 7.44,15.14 11.78,15.34 c 0.83,0.49 1.72,0.82 2.66,0.99 c 9.22,0.43 12.85,-6.73 14.81,-14.55 c 5.34,-41.6 18.8,-56.03 55.51,-74.41 c 15.42,-4.54 27.13,-5.94 43.31,-3.89 c 1,0.67 2.1,1.09 3.3,1.28 c 4.24,1.33 8.39,2.88 12.47,4.64 c 1.09,0.88 2.27,1.61 3.55,2.18 c 5.88,3.92 11.41,8.3 16.57,13.14 c 0.5,1.35 1.42,2.26 2.76,2.72 c 2.55,3.92 10.01,15.89 12.26,18.55 c -0.47,1.09 -0.21,1.93 0.78,2.51 c 1.84,5.88 3.51,11.81 5.03,17.78 c 0.12,0.8 0.53,1.37 1.23,1.74 c -0.47,1.43 -0.48,2.89 -0.02,4.36 c 0.49,4.39 0.81,8.79 0.95,13.19 c -0.1,0.36 -0.21,0.72 -0.31,1.08 c -0.07,0.96 -0.01,1.9 0.16,2.85 c -2.55,15.07 -6.24,26.65 -15.7,38.92 c -0.18,0.44 -0.24,0.89 -0.18,1.36 c -0.6,-0.07 -1.1,0.13 -1.47,0.6 c -0.35,0.4 -0.69,0.8 -1.03,1.2 c -10.1,10.68 -20.94,16.59 -34.37,22.03 c -0.63,0.06 -2.84,-0.07 -2.98,0.78 c -10.75,3.17 -21.74,4.65 -32.76,6.32 c -2.61,1.82 -4.69,12.91 -4.26,16.2 c -0.26,0.5 -0.25,1 0.03,1.48 c -1.97,4.1 -1.26,10.02 -1.25,14.47 c -0.18,2.22 -0.11,4.44 0.2,6.64 c 0.15,3.9 0.87,7.67 2.18,11.34 c 0.52,1.08 0.97,3.56 2.52,3.46 c 0.39,1.3 1.29,2 2.7,2.09 c 3.66,-0.08 10.25,1.39 13.48,-0.09 c 0.85,0.53 1.68,0.53 2.5,-0.02 c 10.35,1.26 6.29,-14.76 8.06,-20.88 c 0.17,-0.56 0.31,-1.12 0.45,-1.69 c 0.43,-1.27 1.04,-2.44 1.81,-3.53 c 2.78,-0.76 5.58,-1.43 8.4,-1.99 c 0.27,-0.15 0.46,-0.36 0.57,-0.63 c 22.69,-2.98 51.77,-25.51 62.81,-45.76 c 0.14,-0.46 0.21,-0.92 0.18,-1.41 c 0.65,0.05 1.04,-0.25 1.15,-0.91 c 1.8,-2.36 3.32,-4.89 4.57,-7.59 c 2.12,-5.15 5.22,-10.97 6.26,-16.42 c 0.11,-0.31 0.23,-0.62 0.35,-0.93 c 1.21,-1.9 2.31,-6.23 2.48,-8.59 c 1.13,-3.33 2.21,-8.16 2.18,-11.63 c 0.24,-0.82 0.21,-1.63 -0.1,-2.42 c 1.81,-2.9 1.32,-9.8 1.06,-13.2 c 0.07,-0.37 0.13,-0.74 0.2,-1.11 c 0.11,-1.57 0.04,-3.13 -0.2,-4.69 c -0.04,-4.55 -0.45,-9.08 -1.24,-13.57 c -0.4,-1.58 -0.82,-3.15 -1.26,-4.71 c -0.64,-3.33 -4.07,-17.73 -6.56,-19.32 c 0.25,-0.97 0,-1.76 -0.74,-2.37 c -1.32,-3.06 -9.26,-19.36 -12.18,-19.22 c 0,-1.27 -0.51,-2.31 -1.52,-3.11 c -2.17,-2.6 -13.59,-15.38 -16.47,-14.77 c -0.02,-1.3 -0.68,-1.95 -1.99,-1.95 c -0.92,-1.69 -7.92,-7.08 -10.12,-7.27 c -0.46,-1 -1.24,-1.68 -2.33,-2.05 c -6.73,-4.08 -13.86,-7.31 -21.38,-9.67 c -1.95,-0.61 -3.91,-1.2 -5.88,-1.76 c -5.06,-1.23 -10.18,-2.01 -15.36,-2.35 c -1.9,-0.26 -3.81,-0.32 -5.73,-0.2 c -0.33,0.04 -0.66,0.07 -1,0.11 c -7.12,0.2 -15.54,-1 -21.86,2.6 Z M 220.72,382.17 c 0.66,0.61 1.44,0.97 2.33,1.11 c 4.88,2 10.75,4.83 15.92,5.68 c 0.34,0.81 0.96,1.13 1.85,0.97 c 0.37,0.02 0.75,0.05 1.12,0.08 c 14.53,5.01 31.16,7.5 44.74,14.72 c 0.83,0.23 1.57,0.08 2.24,-0.47 c 21.54,-21.05 43.08,-42.1 64.61,-63.17 c 0.27,-0.4 0.31,-0.82 0.12,-1.27 c -11.67,-8.91 -13.27,-19.72 -4.61,-31.62 c 0.45,-0.39 0.68,-0.88 0.67,-1.48 c 1.32,0.07 3.49,-1.57 2.82,-3.05 c 0.72,0.23 1.23,0.03 1.56,-0.61 c 0.43,-0.22 0.8,-0.54 1.09,-0.93 c 1.84,-1.11 3.72,-2.12 5.65,-3.03 c 0.62,-0.1 1.06,-0.44 1.32,-1 c 0.25,0 0.5,-0.01 0.75,-0.01 c 0.63,-0.09 1.04,-0.43 1.23,-1.03 c 0.19,-0.05 0.37,-0.1 0.55,-0.14 c 2.57,-0.36 5.14,-0.73 7.72,-1.13 c 5.07,-0.47 9.83,0.54 14.26,3.01 c 1.87,1.3 3.76,2.54 5.66,3.74 c 1.87,-1.73 3.89,-3.29 6.04,-4.7 c 18.6,-10.88 45.88,2.76 42.91,25.7 c -3.03,14.86 -16.36,27.39 -24.52,39.79 c -0.32,0.53 -1.23,1.83 -0.32,2.27 c 25.7,-5.37 56.44,-29.08 82.06,-12.54 c 14.64,11.81 14.59,33.44 0.55,45.68 c -57.9,35.71 -119.68,64.33 -178.75,97.94 c -7.71,3.21 -16.96,4.82 -25.18,6.17 c -0.35,0.11 -0.7,0.22 -1.04,0.32 c -3.73,0.12 -7.43,0.49 -11.11,1.13 c -0.35,-0.13 -0.71,-0.26 -1.06,-0.39 c -5.19,0.24 -10.39,0.29 -15.59,0.17 c -1.84,-0.14 -3.69,-0.19 -5.53,-0.13 c -56.32,-4 -111.26,-26.01 -165.4,-40.98 c -0.45,-0.09 -0.89,-0.19 -1.34,-0.28 c -0.61,-0.51 -1.32,-0.75 -2.13,-0.72 c -0.35,-0.06 -0.71,-0.12 -1.07,-0.18 c -2.58,-0.81 -5.15,-1.64 -7.72,-2.5 c -0.64,-0.13 -1.3,-0.23 -1.96,-0.28 c -0.41,-0.08 -0.83,-0.15 -1.25,-0.22 c -0.84,-0.69 -1.81,-0.95 -2.91,-0.77 c -0.36,-0.06 -0.72,-0.12 -1.09,-0.17 c -4.21,-1.37 -8.52,-2.34 -12.91,-2.91 c -0.57,-1.5 -3.1,-0.84 -4.36,-1.06 c -21.36,-6.01 -48.13,0 -55.32,-27.56 c -6.23,-23.56 0.81,-49.57 -1.06,-73.82 c 1.07,-31.18 40.68,-18.71 59.24,-30.56 c 23.07,-19.14 49.12,-32.44 78.15,-39.89 c 0.59,-0.05 2.32,0.07 2,-0.98 c 3.53,-0.54 7.02,-1.27 10.48,-2.19 c 0.38,-0.03 0.76,-0.06 1.14,-0.08 c 39.54,-8.48 80.76,-8.84 121.06,-10.22 c 32.98,0.42 42.62,40.3 12.6,53.7 c -17.4,7.65 -40.63,8.72 -59.43,10.81 c -11.11,1.62 -18.16,7.82 -21.15,18.6 c -3.94,15.23 1.1,23.45 14.37,30.48 Z M 265.76,279 c -3.87,-0.03 -7.71,0.25 -11.54,0.85 c -6.82,0.24 -13.64,0.57 -20.45,1 c -1.14,-0.09 -2.28,-0.04 -3.41,0.13 c -13.13,0.05 -26.26,0.32 -39.39,0.83 c -4.65,-0.05 -9.28,0.26 -13.88,0.94 c -0.37,0.07 -0.74,0.14 -1.1,0.2 c -7.52,0.28 -14.91,1.36 -22.18,3.25 c -2.01,-0.17 -3.92,0.21 -5.73,1.16 c -9.43,0.9 -31.65,11.26 -40.15,17.03 c -17.45,10.67 -44.96,30.54 -64.99,32.79 c -4.94,0.35 -9.85,0.78 -14.76,1.3 c -0.57,-0.32 -0.84,-0.19 -0.81,0.4 c -15.32,0.14 -12.32,15.38 -11.66,25.64 c 0.04,4.21 -0.1,8.42 -0.41,12.62 c -0.28,1.96 -0.45,3.92 -0.49,5.89 c -0.88,7.5 -1.48,15.02 -1.8,22.56 c 0.04,2.4 1.42,0.76 2.45,0.48 c 0.11,0.11 0.22,0.21 0.33,0.32 c -0.97,0.63 -1.81,1.4 -2.51,2.32 c -0.09,3.16 0.17,6.3 0.78,9.41 c 0.03,0.38 0.06,0.76 0.09,1.14 c 0.29,1.42 0.79,2.75 1.49,4 c 0.22,2.49 3.17,8.05 5.48,8.86 c 0.05,0.41 0.2,0.77 0.48,1.08 c 2.9,2.94 6.38,4.8 10.43,5.57 c 1.95,0.51 3.91,0.99 5.87,1.44 c 0.32,-0.1 0.64,-0.2 0.96,-0.3 c 0.65,1.59 10.96,3.39 12.84,2.46 c 0.05,0.66 0.35,1.18 0.91,1.54 c 2.69,0.64 5.37,1.35 8.03,2.12 c 0.47,-0.01 0.93,-0.02 1.4,-0.03 c 4.17,1.37 8.4,2.48 12.72,3.33 c 1.39,0.5 2.83,0.81 4.31,0.94 c 9.6,2.36 19.21,4.76 28.82,7.2 c 2.67,1.03 5.43,1.53 8.26,1.5 c 0.18,0.63 0.63,0.97 1.33,1 c 3.49,0.87 7,1.65 10.52,2.36 c 3.53,1.12 7.11,2.01 10.75,2.66 c 8.98,2.19 18.31,4.53 27.31,6.81 c 2.55,0.7 5.1,1.4 7.65,2.11 c 0.39,-0.03 0.78,-0.06 1.17,-0.1 c 3.85,1.21 7.74,2.25 11.69,3.1 c 1.8,-0.19 3.26,-1 4.38,-2.41 c 0.64,-0.33 1.26,-0.33 1.86,0 c -1.04,1.09 -2.2,2.03 -3.49,2.8 c 1.16,0.56 2.38,0.99 3.66,1.28 c 2.94,0.81 5.91,1.43 8.92,1.87 c 2.27,0.82 5.74,2.21 8.12,1.61 c 0.31,0.55 0.8,0.87 1.46,0.96 c 3.85,1.07 7.72,2.04 11.62,2.89 c 0.98,0.18 1.97,0.23 2.97,0.15 c 0.24,0.56 0.69,0.87 1.35,0.92 c 3.49,0.96 7.01,1.79 10.55,2.5 c 1.05,0.24 2.05,0.63 2.98,1.16 c 3.48,1.25 6.99,2.36 10.55,3.33 c 1.15,0.15 2.2,-0.08 3.13,-0.71 c 0.06,0.72 0.39,1.27 0.99,1.64 c 2.36,0.48 4.73,0.85 7.12,1.12 c 6.16,0.54 12.32,0.54 18.47,0 c 3.21,-0.15 6.38,-0.5 9.54,-1.05 c 0.64,-0.15 3.33,0.23 3.09,-0.96 c 16.03,-2.41 33.29,-9.3 47.26,-17.37 c 0.89,-0.65 3.97,-0.35 3.7,-1.9 c 0.74,0.07 1.49,0.11 2.23,0.14 c 21.76,-11.05 42.55,-23.92 63.29,-36.75 c 0.26,-0.82 0.66,-1.56 1.22,-2.21 c 0.85,-0.95 4.71,-0.62 4.17,-2.17 c 1.34,0.15 2.39,-0.31 3.16,-1.39 c 22.54,-13.29 45.08,-26.45 68.99,-37.15 c 5.84,-4.43 8.79,-10.31 8.86,-17.64 c -0.02,-0.37 -0.15,-0.7 -0.38,-0.98 c 0.31,-1.47 0.17,-2.92 -0.42,-4.34 c -0.58,-3.22 -1.93,-6.08 -4.06,-8.58 c -1.25,-1.78 -2.76,-3.31 -4.55,-4.56 c -0.33,-0.04 -0.66,-0.08 -0.99,-0.12 c -4.32,-3.13 -10.61,-3.68 -15.36,-1.21 c -2.97,0.17 -5.81,0.87 -8.53,2.1 c -0.67,0.08 -2.37,0.07 -2.23,1.13 c -10.5,2.07 -31.53,9.92 -42.45,13.88 c -2.53,0.46 -5,1.14 -7.42,2.04 c -0.54,0.1 -2.41,0.03 -2.02,1.05 c -14.91,4.62 -29.74,9.48 -44.5,14.58 c -2.4,1.04 -14.26,3.81 -15.05,5.67 c -1.87,-0.89 -5.42,1.34 -7.46,1.69 c -0.62,0.05 -2.36,0.01 -2.03,1.09 c -0.75,0.06 -1.47,0.24 -2.15,0.56 c -17.77,9.15 -36.42,12.92 -56.35,10.52 c -2.97,-0.63 -5.97,-1.04 -8.99,-1.23 c -0.05,-0.28 -0.22,-0.48 -0.5,-0.59 c -8.87,-1.62 -16.84,-5.02 -25.4,-7.44 c -0.06,-0.32 -0.23,-0.57 -0.51,-0.74 c -2.14,-0.79 -4.2,-1.75 -6.16,-2.89 c -3.26,-1.38 -6.54,-2.74 -9.82,-4.08 c -1.13,-0.24 -2.11,-0.02 -2.94,0.67 c -0.01,-2.71 -3.65,-2.36 -5.38,-3.57 c -0.64,-0.1 -1.28,-0.18 -1.93,-0.22 c -7.52,-3.02 -13.83,-5.19 -20.32,-10.32 c -0.82,-0.94 -1.7,-1.83 -2.63,-2.66 c -2.15,-2.71 -2.84,-5.59 -4.4,-8.46 c 1.09,-1.33 -0.59,-5.53 0.89,-7.57 c 2.48,-9.45 3.1,-21.55 9.65,-29.22 c 8.97,-9.72 49.95,-11.43 63.65,-15.22 c 3.4,-0.72 6.59,-2.69 9.58,-4.33 c 0.71,1.17 -1.41,2.73 0.74,2.32 c 9.2,-2.59 14.32,-8.64 15.37,-18.15 c 0.68,-5.17 -2.1,-13.93 -6.85,-16.54 c -0.43,-0.68 -0.94,-1.28 -1.55,-1.81 c -5.71,-2.29 -11.55,-2.63 -17.51,-1.04 Z M 357.69,325.3 c 0.18,0.98 0.47,1.92 0.89,2.82 c 1.94,3.56 4.68,6.3 8.23,8.22 c 0.63,0.49 1.32,0.84 2.08,1.08 c 12.55,6.19 19.81,-11.63 15.89,-21.7 c 0.02,-0.61 -0.08,-1.19 -0.32,-1.76 c -1.49,-4.13 -3.98,-7.55 -7.45,-10.26 c -1.21,-0.57 -2.45,-1.06 -3.72,-1.47 c -0.48,0.01 -0.96,0.01 -1.44,0.02 c -10.69,-5.16 -19.37,14.65 -14.16,23.05 Z M 399.21,315.37 c -0.53,1.12 -0.61,2.28 -0.25,3.48 c -1.66,12.82 -10.79,20.58 -22.68,24.11 c -2.77,0.12 -5.5,0.35 -8.18,0.71 c -1.71,-0.12 -3.24,0.33 -4.59,1.33 c -12.6,12.07 -25.16,24.19 -37.66,36.35 c -0.51,0.48 -0.75,1.06 -0.72,1.74 c -0.61,0.06 -1.11,0.32 -1.5,0.79 c -3.32,3.09 -6.58,6.24 -9.79,9.46 c -0.5,0.5 -0.87,1.09 -1.11,1.76 c -0.49,-0.01 -0.77,0.23 -0.84,0.72 c -2.03,1.82 -3.95,3.72 -5.76,5.71 c 0.31,0.38 0.71,0.49 1.19,0.34 c 12.75,-4.21 25.49,-8.48 38.21,-12.8 c 4.55,-1.2 8.98,-3.87 13.5,-4.65 c 2.59,-0.75 5.18,-1.55 7.74,-2.4 c 0.56,0.01 2.33,-0.06 1.87,-1.06 c 9.58,-2.62 20.04,-5.75 29.08,-9.82 c 5.26,-7.52 21.19,-27.5 24.25,-34.42 c 0.58,0.05 0.99,-0.19 1.23,-0.72 c 0.52,-1.14 7.93,-9.93 3.76,-10.1 c 2.88,-1.01 1.65,-3.87 1.76,-6.23 c -1.02,-5.6 -3.93,-9.9 -8.75,-12.88 c -1.42,-1.8 -5.65,-2.65 -7.82,-3.06 c -0.34,0.12 -0.69,0.24 -1.04,0.36 c -4.91,-0.86 -16.86,6.12 -11.9,11.28 Z"/></g>
<g><path fill="#23b0e2" fill-opacity="0.996" stroke="#23b0e2" stroke-width="0.5" stroke-opacity="0.996" d="M 403.07,18.25 c 7.52,2.36 14.65,5.59 21.38,9.67 c -2.17,1.98 -4.16,4.13 -5.95,6.44 c 0.47,0.25 0.97,0.24 1.48,-0.03 c 2.1,-1.14 4.19,-2.33 6.26,-3.58 c 0.27,-0.21 0.45,-0.47 0.54,-0.78 c 2.2,0.19 9.2,5.58 10.12,7.27 c -0.62,-0.1 -1.13,0.1 -1.52,0.61 c -1.76,2.18 -3.64,4.27 -5.63,6.25 c -0.41,0.43 -0.49,0.89 -0.25,1.36 c 0.39,-0.43 0.81,-0.83 1.27,-1.18 c 2.5,-1.15 4.92,-2.44 7.27,-3.87 c 0.5,-0.26 0.78,-0.67 0.85,-1.22 c 2.88,-0.61 14.3,12.17 16.47,14.77 c -0.83,-0.07 -1.52,0.2 -2.08,0.8 c -2.31,2.93 -4.59,5.86 -6.84,8.8 c 0.05,0.07 0.11,0.14 0.17,0.21 c 3.03,-1.96 6.16,-3.77 9.39,-5.43 c 0.5,-0.28 0.8,-0.7 0.88,-1.27 c 2.92,-0.14 10.86,16.16 12.18,19.22 c -0.63,0 -1.15,0.23 -1.57,0.7 c -1.37,1.49 -2.72,2.96 -4.08,4.42 c 0.47,0.39 0.98,0.44 1.56,0.15 c 1.51,-1.12 3.12,-2.09 4.83,-2.9 c 2.49,1.59 5.92,15.99 6.56,19.32 c -2.96,3.54 -5.96,7.03 -9.02,10.47 c 1.44,0.29 9.07,-4.47 10.28,-5.76 c 0.79,4.49 1.2,9.02 1.24,13.57 c -2.91,2.41 -5.68,4.98 -8.33,7.7 c -0.56,0.74 -2.83,2.12 -2.06,3.17 c 1.28,-0.38 2.5,-0.93 3.63,-1.68 c 1.98,-1.16 3.91,-2.39 5.78,-3.7 c 0.33,0.1 0.66,0.21 0.98,0.31 c 0.26,3.4 0.75,10.3 -1.06,13.2 c -1.12,-0.05 -4.15,3.03 -5.32,3.73 c -0.68,0.46 -1.14,1.09 -1.37,1.87 c -1.33,0.04 -2.29,0.63 -2.89,1.79 c 0.89,1.09 2.48,-1.02 2.89,-1.79 c 2.5,-0.26 4.45,-2.36 6.79,-3.18 c 0.03,3.47 -1.05,8.3 -2.18,11.63 c -0.27,-0.05 -0.53,-0.1 -0.8,-0.15 c -0.43,0.24 -0.86,0.49 -1.28,0.74 c -1.21,0.73 -2.43,1.43 -3.66,2.1 c -0.43,0.25 -0.85,0.5 -1.27,0.76 c -0.26,0.16 -0.53,0.32 -0.79,0.48 c -0.45,0.2 -0.86,0.45 -1.23,0.77 c -0.59,0.31 -1.18,0.61 -1.76,0.92 c -0.45,0.22 -0.88,0.48 -1.28,0.78 c -0.27,0.19 -0.53,0.37 -0.79,0.55 c -0.45,0.17 -0.87,0.4 -1.26,0.69 c -1.22,0.67 -2.43,1.34 -3.65,2.01 c -0.46,0.2 -0.89,0.46 -1.29,0.76 c -0.24,0.19 -0.48,0.39 -0.71,0.58 c -0.47,0.09 -0.9,0.28 -1.29,0.55 c -1.2,0.76 -2.43,1.48 -3.68,2.15 c -0.42,0.23 -0.85,0.47 -1.27,0.7 c -1.93,1.21 -3.9,2.34 -5.92,3.38 c -0.38,0.24 -0.73,0.51 -1.05,0.83 c -1.97,0.93 -3.83,2.04 -5.59,3.33 c -0.54,0.11 -1.01,0.35 -1.43,0.71 c -0.86,0.39 -1.72,0.79 -2.58,1.19 c -0.06,-0.47 0,-0.92 0.18,-1.36 c 9.46,-12.27 13.15,-23.85 15.7,-38.92 c 0.55,-0.22 1.05,-0.51 1.51,-0.87 c 1.74,-1.8 3.47,-3.57 5.17,-5.34 c -0.56,-0.31 -1.13,-0.29 -1.7,0.04 c -1.2,1 -2.54,1.76 -4.03,2.28 c -0.27,-0.01 -0.53,-0.03 -0.8,-0.04 c -0.14,-4.4 -0.46,-8.8 -0.95,-13.19 c 0.5,-0.13 0.94,-0.36 1.32,-0.71 c 2.48,-2.81 5.08,-5.51 7.78,-8.09 c 0.64,-0.66 0.7,-1.88 -0.41,-1.26 c -0.74,1.33 -1.86,2.11 -3.37,2.36 c -1.84,1 -3.61,2.11 -5.3,3.34 c -0.7,-0.37 -1.11,-0.94 -1.23,-1.74 c -1.52,-5.97 -3.19,-11.9 -5.03,-17.78 c 0.71,-0.37 1.32,-0.86 1.82,-1.48 c 0.82,-0.84 1.47,-1.78 1.95,-2.81 c -1.25,-1.42 -3.55,0.95 -4.55,1.78 c -2.25,-2.66 -9.71,-14.63 -12.26,-18.55 c 1.66,-0.05 5.99,-7.2 7.6,-8.53 c 0.18,-0.34 0.16,-0.65 -0.07,-0.93 c -3.08,1.7 -6.16,3.45 -9.21,5.25 c -0.66,0.29 -1.02,0.79 -1.08,1.49 c -5.16,-4.84 -10.69,-9.22 -16.57,-13.14 c 2.16,-2.31 4.13,-4.76 5.93,-7.33 c -0.5,-0.24 -1,-0.21 -1.52,0.1 c -2.32,1.3 -4.64,2.63 -6.95,3.99 c -0.39,0.31 -0.73,0.66 -1.01,1.06 c -4.08,-1.76 -8.23,-3.31 -12.47,-4.64 c 2.09,-2.12 4.11,-4.28 6.05,-6.5 c -0.54,-0.28 -1.08,-0.23 -1.61,0.14 c -2.25,1.29 -4.5,2.58 -6.76,3.85 c -0.58,0.23 -0.9,0.64 -0.98,1.23 c -16.18,-2.05 -27.89,-0.65 -43.31,3.89 c 1.7,-2.6 6.53,-4.81 9.08,-6.73 c -0.76,1.79 1.41,1.46 2.26,0.75 c 14.35,-8.32 28.71,-16.62 43.08,-24.92 c 0.74,-0.34 1.3,-0.87 1.67,-1.58 Z M 471.33,159.28 c 0.21,-0.18 0.42,-0.35 0.63,-0.53 c 0.31,0.02 0.62,0.05 0.93,0.08 c -1.04,5.45 -4.14,11.27 -6.26,16.42 c -0.82,-0.11 -1.58,0.06 -2.27,0.52 c -11.07,8.03 -22.22,15.95 -33.44,23.75 c -0.49,0.28 -0.74,0.71 -0.77,1.26 c -1.41,-0.01 -2.4,0.6 -2.97,1.83 c 0.98,0.86 2.59,-0.94 2.97,-1.83 c 2.63,-0.1 26.09,-14.93 30.76,-17.03 c 0.03,0.49 -0.04,0.95 -0.18,1.41 c -11.04,20.25 -40.12,42.78 -62.81,45.76 c -0.65,-0.61 -0.65,-0.61 0,0 c -0.11,0.27 -0.3,0.48 -0.57,0.63 c -2.82,0.56 -5.62,1.23 -8.4,1.99 c -0.77,1.09 -1.38,2.26 -1.81,3.53 c -1.95,-0.37 -28.44,14.97 -29.71,17.13 c -1.31,-3.67 -2.03,-7.44 -2.18,-11.34 c 0.63,0.03 1.21,-0.13 1.74,-0.49 c 14.41,-10.27 28.71,-20.65 42.91,-31.13 c 0.52,-0.56 3.98,-1.13 2.71,-2.23 c -1.53,0.01 -2.44,0.75 -2.71,2.23 c -0.67,-0.02 -1.33,0 -1.99,0.04 c -14.18,8.49 -28.46,16.8 -42.86,24.94 c -0.01,-4.45 -0.72,-10.37 1.25,-14.47 c 1.5,-0.38 2.41,-1.34 2.72,-2.88 c 0.37,0.02 0.74,0.03 1.11,0.05 c 0.67,-0.27 2.23,-1.24 1.34,-2.05 c -0.68,0.03 -1.18,0.33 -1.51,0.91 c -0.45,0.25 -0.77,0.61 -0.94,1.09 c -1.26,-0.18 -2.17,0.29 -2.75,1.4 c -0.43,-3.29 1.65,-14.38 4.26,-16.2 c 11.02,-1.67 22.01,-3.15 32.76,-6.32 c 0.35,0.42 0.65,0.87 0.89,1.36 c -0.49,0.26 -0.95,0.57 -1.39,0.92 c -0.36,0.18 -0.67,0.42 -0.93,0.72 c -0.36,0.34 -0.71,0.69 -1.03,1.07 c -0.33,0.3 -0.65,0.6 -0.98,0.91 c -0.35,0.32 -0.7,0.65 -1.04,0.98 c -0.37,0.35 -0.74,0.7 -1.11,1.06 c -0.35,0.39 -0.69,0.79 -1.02,1.2 c -1.09,0.69 -1.93,1.59 -2.55,2.68 c 0.68,1.34 3.01,-1.03 3.96,-1.26 c 1.29,-0.83 2.62,-1.61 3.98,-2.32 c 0.45,-0.22 0.88,-0.48 1.28,-0.79 c 0.27,-0.16 0.54,-0.33 0.82,-0.5 c 0.41,-0.21 0.82,-0.43 1.21,-0.68 c 1.21,-0.71 2.43,-1.4 3.67,-2.05 c 0.46,-0.21 0.88,-0.47 1.27,-0.78 c 0.24,-0.16 0.47,-0.33 0.71,-0.5 c 0.47,-0.12 0.9,-0.35 1.28,-0.66 c 1.24,-0.72 2.48,-1.41 3.73,-2.09 c 0.46,-0.18 0.89,-0.43 1.28,-0.74 c 1.22,-0.79 2.47,-1.52 3.76,-2.2 c 0.45,-0.22 0.87,-0.48 1.27,-0.78 c 0.23,-0.21 0.47,-0.41 0.7,-0.61 c 0.49,-0.16 0.94,-0.39 1.34,-0.69 c 1.25,-0.6 2.47,-1.25 3.68,-1.94 c 0.45,-0.21 0.87,-0.47 1.26,-0.78 c 0.21,-0.2 0.42,-0.4 0.63,-0.6 c 0.48,-0.1 0.92,-0.31 1.29,-0.64 c 1.29,-0.62 2.56,-1.29 3.8,-2 c 0.46,-0.2 0.89,-0.46 1.28,-0.77 c 0.26,-0.14 0.53,-0.28 0.8,-0.42 c 0.43,-0.25 0.85,-0.53 1.24,-0.85 c 1.22,-0.66 2.44,-1.32 3.67,-1.97 c 0.46,-0.19 0.88,-0.44 1.26,-0.75 c 1.9,-1.07 3.75,-2.23 5.54,-3.48 c 0.6,-0.06 1.09,-0.32 1.47,-0.79 c 1.96,-0.84 3.78,-1.91 5.47,-3.21 c 0.56,-0.1 1.04,-0.33 1.46,-0.71 c 1.29,-0.65 2.56,-1.33 3.82,-2.04 c 0.45,-0.21 0.87,-0.47 1.25,-0.77 c 0.2,-0.16 0.41,-0.32 0.61,-0.48 c 0.5,-0.17 0.93,-0.44 1.31,-0.8 c 1.3,-0.6 2.57,-1.26 3.81,-1.98 c 0.46,-0.19 0.89,-0.44 1.27,-0.77 c 0.22,-0.15 0.44,-0.29 0.67,-0.44 c 0.48,-0.17 0.93,-0.42 1.34,-0.74 c 1.27,-0.6 2.42,-1.38 3.46,-2.32 c 0.54,-0.13 1.03,-0.37 1.47,-0.73 c 1.31,-0.58 2.58,-1.23 3.82,-1.96 c 0.45,-0.22 0.86,-0.48 1.26,-0.78 Z M 386.69,238.76 c -1.77,6.12 2.29,22.14 -8.06,20.88 c 1.78,-0.39 1.82,-1.92 0,-1.65 c -0.93,0.4 -1.77,0.96 -2.5,1.67 c -3.23,1.48 -9.82,0.01 -13.48,0.09 c -1.41,-0.09 -2.31,-0.79 -2.7,-2.09 c 1.61,0.33 23.54,-16.75 26.74,-18.9 Z M 371.85,302.25 c 0.08,0.19 0.16,0.38 0.25,0.57 c -1.42,1.83 -2.71,3.74 -3.87,5.71 c 0.29,0.33 0.65,0.39 1.07,0.18 c 2.72,-1.46 5.29,-3.13 7.71,-5.01 c 3.47,2.71 5.96,6.13 7.45,10.26 c -0.89,-0.14 -1.67,0.1 -2.32,0.72 c -1.21,1.65 -2.48,3.22 -3.8,4.72 c 0.54,0.23 1.06,0.15 1.56,-0.23 c 1.82,-0.91 3.45,-2.06 4.88,-3.45 c 3.92,10.07 -3.34,27.89 -15.89,21.7 c 0.65,-0.29 3.08,-2.46 2.5,-3.14 c -1.58,0.55 -3.11,1.24 -4.58,2.06 c -3.55,-1.92 -6.29,-4.66 -8.23,-8.22 c 0.81,-0.08 1.5,-0.4 2.08,-0.97 c 1.81,-2.07 3.51,-4.2 5.08,-6.39 c -0.89,-1 -1.23,1.35 -2.2,1.46 c -2.07,0.79 -4.02,1.82 -5.85,3.08 c -5.21,-8.4 3.47,-28.21 14.16,-23.05 Z"/></g>
<g><path fill="#23b0e2" fill-opacity="0.996" stroke="#23b0e2" stroke-width="0.5" stroke-opacity="0.996" d="M 375.1,14.05 c -0.13,0.23 -0.26,0.45 -0.39,0.68 c -7.91,5.36 -15.25,11.24 -23.23,16.27 c -0.22,0.21 -0.32,0.47 -0.31,0.77 c -1.31,0.17 -2.33,0.79 -3.05,1.85 c 1.02,1.12 2.6,-1.01 3.05,-1.85 c 0.64,0.01 1.27,-0.03 1.9,-0.1 c 9.22,-5.56 18.51,-11.01 27.88,-16.36 c 0.4,-0.31 0.69,-0.7 0.88,-1.17 c 5.18,0.34 10.3,1.12 15.36,2.35 c -0.96,0.4 -1.9,0.85 -2.82,1.34 c -12.75,8.75 -25.53,17.47 -38.31,26.17 c -2.55,1.92 -7.38,4.13 -9.08,6.73 c -36.71,18.38 -50.17,32.81 -55.51,74.41 c -1.96,7.82 -5.59,14.98 -14.81,14.55 c 0.3,-0.2 0.6,-0.4 0.9,-0.6 c 0.18,-0.32 0.36,-0.64 0.54,-0.96 c -0.08,-0.44 -0.15,-0.87 -0.23,-1.3 c 0.47,0 0.94,0 1.4,0 c 0.68,-0.49 0.78,-1.05 0.31,-1.69 c -0.37,0.06 -0.54,0.28 -0.5,0.65 c -0.46,0.08 -0.92,0.15 -1.37,0.23 c -0.33,0.23 -0.66,0.46 -0.99,0.68 c -0.99,0.56 -1.89,1.23 -2.72,2 c -4.34,-0.2 -11.64,-10.83 -11.78,-15.34 c -1.64,-8.53 2.43,-20.71 3.66,-29.3 c 0.76,0.15 1.49,0.03 2.17,-0.36 c 6.07,-4.33 12.25,-8.52 18.51,-12.57 c 1.78,-1.26 2.04,-2.42 4.49,-2.72 c 0.99,-0.71 0.87,-1.09 -0.37,-1.15 c -1.19,0.78 -2.36,1.57 -3.5,2.38 c -6.74,3.88 -13.52,7.69 -20.34,11.42 c 1.42,-5.75 3.59,-11.19 6.5,-16.34 c 0.6,0.26 1.16,0.18 1.69,-0.23 c 4.35,-3.01 8.59,-6.12 12.71,-9.32 c 0.42,-0.45 4.37,-1.22 2.78,-2.28 c -1.24,0.34 -2.17,1.1 -2.78,2.28 c -3.66,1.17 -7.17,3.41 -10.28,5.63 c -1.01,0.31 -1.97,0.73 -2.88,1.27 c 11.19,-22.57 31.67,-39.57 54.59,-49.42 c 0.62,0.26 0.93,0.71 0.94,1.37 c -3.48,3.19 -15.94,12.98 -17.97,15.85 c -1.32,0.67 -3.4,0.97 -3.85,2.63 c 0.89,0.97 3.67,-1.45 3.85,-2.63 c 0.63,-0.07 1.24,-0.23 1.83,-0.47 c 13.2,-7.4 26.28,-14.99 39.27,-22.75 c 6.32,-3.6 14.74,-2.4 21.86,-2.6 Z M 264.76,107.2 c 0.45,1.29 1.91,-0.15 2.05,-0.92 c -0.54,-1.16 -1.91,0.18 -2.05,0.92 Z"/></g>
<g><path fill="#23b1e3" fill-opacity="0.584" stroke="#23b1e3" stroke-width="0.5" stroke-opacity="0.584" d="M 312.14,39.87 c -0.18,1.18 -2.96,3.6 -3.85,2.63 c 0.45,-1.66 2.53,-1.96 3.85,-2.63 Z"/></g>
<g><path fill="#efb69a" fill-opacity="0.996" stroke="#efb69a" stroke-width="0.5" stroke-opacity="0.996" d="M 411.11,304.09 c -0.13,0.33 -0.26,0.65 -0.39,0.98 c -3.97,3.29 -7.81,6.73 -11.51,10.3 c -4.96,-5.16 6.99,-12.14 11.9,-11.28 Z M 419.97,306.79 c 4.82,2.98 7.73,7.28 8.75,12.88 c -0.11,2.36 1.12,5.22 -1.76,6.23 c -16.33,11.11 -32.35,23.1 -48.44,34.21 c -0.72,0.4 -1.19,1 -1.39,1.8 c -1.93,-0.02 -3.85,1.49 -5.04,2.81 c 0.74,1.5 4.51,-1.8 5.04,-2.81 c 0.87,-0.15 1.69,-0.45 2.45,-0.89 c 14.12,-8.13 28.24,-16.23 42.39,-24.3 c -3.06,6.92 -18.99,26.9 -24.25,34.42 c -9.04,4.07 -19.5,7.2 -29.08,9.82 c 2.21,-2.42 4.67,-4.56 7.39,-6.42 c 0.43,-0.38 0.72,-0.85 0.86,-1.41 c 0.68,-0.06 3.9,-1.03 2.55,-2.06 c -1.21,0.24 -2.06,0.92 -2.55,2.06 c -4.43,1.33 -12.54,6.92 -17.09,9.2 c -0.72,0.53 -0.98,1.22 -0.77,2.09 c -4.52,0.78 -8.95,3.45 -13.5,4.65 c -12.72,4.32 -25.46,8.59 -38.21,12.8 c -0.48,0.15 -0.88,0.04 -1.19,-0.34 c 1.81,-1.99 3.73,-3.89 5.76,-5.71 c 0.48,-0.04 0.96,-0.07 1.43,-0.11 c 11.57,-8.11 23.17,-16.17 34.8,-24.19 c 0.5,-0.26 0.74,-0.68 0.7,-1.24 c 0.6,-0.21 4.04,-1.16 2.65,-2.16 c -1.27,0.23 -2.15,0.95 -2.65,2.16 c -0.42,-0.07 -0.83,-0.03 -1.23,0.1 c -1.06,0.91 -2.26,1.54 -3.61,1.91 c -6.19,3.76 -12.47,7.37 -18.85,10.8 c -0.03,-0.68 0.21,-1.26 0.72,-1.74 c 12.5,-12.16 25.06,-24.28 37.66,-36.35 c 1.35,-1 2.88,-1.45 4.59,-1.33 c 2.91,2.24 5.63,2.01 8.18,-0.71 c 11.89,-3.53 21.02,-11.29 22.68,-24.11 c 1.81,-0.07 20.18,-10.6 21.01,-12.06 Z M 363.81,392.56 c -0.65,3.08 -10.36,6.43 -12.67,9.16 c -0.43,0.24 -0.89,0.34 -1.39,0.29 c -0.24,-1.28 -0.57,-2.54 -0.99,-3.78 c 0.79,-1.86 12.65,-4.63 15.05,-5.67 Z"/></g>
<g><path fill="#efb699" fill-opacity="0.384" d="M 348.82,370.28 c 0.5,-1.21 1.38,-1.93 2.65,-2.16 c 1.39,1 -2.05,1.95 -2.65,2.16 Z"/></g>
<g><path fill="#f0b69b" fill-opacity="0.376" d="M 377.13,361.91 c -0.53,1.01 -4.3,4.31 -5.04,2.81 c 1.19,-1.32 3.11,-2.83 5.04,-2.81 Z"/></g>
<g><path fill="#134758" fill-opacity="0.094" stroke="#134758" stroke-width="0.5" stroke-opacity="0.094" d="M 276.72,136.7 c 0.38,0.04 0.77,0.09 1.15,0.13 c 0.08,0.43 0.15,0.86 0.23,1.3 c -0.72,-0.02 -0.9,0.3 -0.54,0.96 c -0.3,0.2 -0.6,0.4 -0.9,0.6 c -0.94,-0.17 -1.83,-0.5 -2.66,-0.99 c 0.83,-0.77 1.73,-1.44 2.72,-2 Z"/></g>
<g><path fill="#246076" fill-opacity="0.447" d="M 295.38,32.02 c -0.37,0.35 -0.73,0.71 -1.08,1.08 c -0.06,-0.76 0.3,-1.12 1.08,-1.08 Z M 294.3,33.1 c -0.35,0.61 -0.88,0.89 -1.58,0.86 c 0.35,-0.57 0.88,-0.85 1.58,-0.86 Z"/></g>
<g><path fill="#62544c" fill-opacity="0.271" stroke="#62544c" stroke-width="0.5" stroke-opacity="0.271" d="M 81.16,459.01 c 0.66,0.05 1.32,0.15 1.96,0.28 c -0.6,0.27 -1.22,0.48 -1.87,0.63 c -0.03,-0.3 -0.06,-0.61 -0.09,-0.91 Z"/></g>
<g><path fill="#254654" fill-opacity="0.486" d="M 437.67,25 c 0.79,0.06 1.29,0.46 1.51,1.21 c -0.62,-0.25 -1.13,-0.66 -1.51,-1.21 Z"/></g>
<g><path fill="#25576c" fill-opacity="0.38" d="M 362.15,298.1 c -0.26,0.56 -0.7,0.9 -1.32,1 c 0.15,-0.71 0.59,-1.04 1.32,-1 Z"/></g>
<g><path fill="#24505e" fill-opacity="0.498" d="M 481.14,77.61 c 0.39,0.46 0.63,0.99 0.7,1.6 c -0.44,-0.44 -0.67,-0.97 -0.7,-1.6 Z"/></g>
<g><path fill="#25667d" fill-opacity="0.216" stroke="#25667d" stroke-width="0.5" stroke-opacity="0.216" d="M 475.19,65.94 c 0.5,0.31 0.59,0.73 0.27,1.27 c -0.17,-0.4 -0.26,-0.83 -0.27,-1.27 Z"/></g>
</svg>
