<svg xmlns="http://www.w3.org/2000/svg" style="shape-rendering:geometricPrecision;text-rendering:geometricPrecision;image-rendering:optimizeQuality;fill-rule:evenodd;clip-rule:evenodd" viewBox="0 0 512 512"><path fill="#f4bea8" fill-opacity=".3" d="M238 308.9a7 7 0 0 1-5 3.2q1.9-2.8 5-3.2M29 356q-.9 2-3 2a4 4 0 0 1 3-2m65 17c-.5 1.4-5.6 3.8-7 5l-.2-1q1-1.3 2.6-2.1c1.5-.4 3-2.3 4.5-2m288 22.9q-.5 1.5-2 1.1.6-1.2 2-1.1m-236.8 1a4 4 0 0 1-3.2 2.1 3 3 0 0 1 3.2-2.2m263.8 14c-.7 1.7-3.2 3-5 3a7 7 0 0 1 5-3M76 458l1 .1.2 1q-1.1 0-1.3-1.1"/><path fill="#917267" fill-opacity=".1" stroke="#917267" stroke-opacity=".1" stroke-width=".5" d="M153.8 286.2q-.3.7-1 1.2-9.1 4.7-17.8 10.2a4 4 0 0 1-2 .3q.7-1 1.6-1.7l13.5-8.8q2.7-1.5 5.7-1.2Z"/><path fill="#f4c0a7" fill-opacity=".3" d="M171.2 397a4 4 0 0 1-3.2 2q1-2.1 3.2-2m30.9 30.8c-.3 1-2 3-3 1.9a4 4 0 0 1 3-2M349.9 456q-.1.9-1 1.3-4.3 3-8.8 5.7v-1.3q.7-.9 1.5-1.4c2-.8 6.5-4.6 8.3-4.3"/><path fill="#ecb6a5" fill-opacity=".2" d="M394.6 387.1q.4.9 1.5 1.4l-12 6.9q-1 .5-2.1.5l1-1.3z"/><path fill="#f4bfa8" fill-opacity=".5" d="M128 301c-.3 1-1.8 3-3 1.6.3-1 2-1.3 3-1.7m71.9 0c.1.8-1.2 1.7-1.7.7q.6-.9 1.7-.8m-101 69c.2 1-1.2 1-1.9 1q.6-1.2 2-1m320.2 18c-.2.8-1.4 1.6-2 .7q.9-.9 2-.6m-42 11c-.2.8-1.3 1.7-2 .7q.8-.9 2-.7m23.9 17c-.4.6-1.3 1.6-1.9.7q.7-.9 1.9-.6m-107 18c-.1.9-1.3 1.6-1.9.7q.8-.9 2-.6m55 5q.5-1.3 1.6-1.7 2.5-.3.6 1.3a4 4 0 0 1-2.1.3M78 459l2-.2 1.3.2v1c-.7 0-3.6.4-3.3-1"/><path fill="#e9bba7" fill-opacity=".2" d="M64 407c-.7 2-6.6 4.3-8.3 6q-1 .6-2 .7 0-1-.8-1.1l9-5.2q1-.5 2.1-.4"/><path fill="#f4bfa8" fill-opacity=".5" d="m205 298-1 1.3a6 6 0 0 1-4.1 1.6 8 8 0 0 1 5-3m281.3 61 1 .1a3 3 0 0 1-1.6.9zM99 370q1.2-1 0 0m323 16q-.7 2.1-3 2 .9-1.7 3-2m-280 13q-.6 1-1.6 1.6-2.4.5-.6-1.3 1-.5 2.2-.3m-79.8 46-.2 1h-1.4q.6-1 1.6-1"/><path fill="#e7b29d" fill-opacity=".2" d="M247.8 302.1q.3.9 1.3 1.2-4.6 2.5-9 5.2a3 3 0 0 1-2 .4c1-2.1 7.7-5.1 9.7-6.8"/><path fill="#c89383" fill-opacity=".2" d="M441.8 373.3q-.2 1 1 1.3c-2.3 1-6.6 4.6-9.1 4.4l-.7-.4q4.3-3 8.8-5.3"/><path fill="#d3a28f" fill-opacity=".2" d="m86.8 377 .2 1-7.6 4.7q-.3-1.1-1.5-1.1c2-.8 7-4.6 8.9-4.5"/><path fill="#f4bfa8" fill-opacity=".4" d="m176 283 1-.3q0 1.3-1.3 1.4zM68.8 346c.8-1.2 3.4-3.3 4.8-3.2 1.1 1-3.8 3.4-4.8 3.2m50 58q.8-1.9 2.7-2.1c1.6 1-2.3 1.7-2.7 2.1m132.1 8c.1 1-1.3 1-2 .8q.5-1.2 2-.9"/><path fill="#f7c8b4" fill-opacity=".2" d="m344 442-1 1.4-5.4 3.7q-.9.5-1.9.6 0-.8-.8-1.1c2.3-1 6.8-4.6 9-4.6"/><path fill="#f4bfac" fill-opacity=".3" d="M276 468a9 9 0 0 1-3.4 3q-2.1 1.6-4.7 2.6l-1-.4a25 25 0 0 1 5-3.5q2-1.3 4-1.8"/><path fill="#308cac" d="M376.3 343q-3.9 4.1-8.2.7z"/><path fill="#7a5f54" fill-opacity=".1" d="M21 360.7v1.3q-1 1-2.6 1c-1.5-1.2 1.8-2 2.6-2.3M415.5 406q.9 0 1.5 1-1.4 1-3.3 1.3a3 3 0 0 1 1.8-2.3M340 461.7v1.3l-1.5 1q-.8-.1-1.5-1 1.5-.9 3-1.3"/><path fill="#f6bea7" fill-opacity=".2" d="m446.1 404.9-.1 1c-2 1-6 4-8 4.1q.3-.8 1-1.3c2.1-1 4.7-4 7.1-3.8"/><path fill="#c39987" fill-opacity=".1" d="M450.6 401.3q.1.9 1.2 1.2-3 1.6-5.8 3.5l.1-1.1c.7-1.7 3-2.8 4.5-3.6"/><path fill="#f6bbab" fill-opacity=".2" d="m433 378.6.7.4c-.2 1.6-5 4.2-6.6 4 .2-1.8 4.8-3 6-4.4"/><path fill="#be9284" fill-opacity=".1" d="M267 473.2q.4 0 1 .4-2.2 1.8-4.7 3 0-1-1.2-1 2.2-1.7 4.8-2.4"/><path fill="#23b1e2" fill-opacity=".4" d="M475 149.2q-.4.9-1.4.7zm-19 11.1q-.5.8-1.3.6.5-.4 1.2-.6m5.3 4.8-1.3.7q.3-.9 1.3-.7m-33 18.9-1.2.9q.3-1 1.3-.9m1.8 16.8c-.3.9-2 2.7-3 1.8q.9-1.8 3-1.8"/><path fill="#23b0e1" fill-opacity=".4" d="M462.9 156.3q-.3.8-1.3.6.6-.4 1.3-.6M443.8 167q0 1-1 .8zm3.4 6q-.6.6-1.4.7.5-.7 1.4-.7m-51.8 30-1.2.7q.2-.9 1.2-.7m4.5 8.1q.5-2.1 2.7-2.2c1.3 1.1-2.2 1.7-2.7 2.2"/><path fill="#23a5d3" fill-opacity=".8" d="m372.4 295.8-7.7 1.1c.7-1.4 6.4-3.2 7.7-1.1"/><path fill="#f5c1a5" fill-opacity=".2" d="M26 358c-.6 1.6-3.5 3-5 4v-1.3q2-2.2 5-2.7"/><path fill="#2490b6" fill-opacity=".7" d="M354 303q-.4 1-1.5.7.7-.4 1.6-.6m-1.5.7c.7 1.5-1.5 3-2.8 3-.2-1.8 1.9-2 2.8-3m-2.8 3q0 .9-.7 1.5 0-.8.7-1.5"/><path fill="#bfb1a7" d="M368.9 337.4q-1.2-.4-2-1a29 29 0 0 1 4.5-2.1c.6.7-1.9 2.8-2.5 3.1"/><path fill="#1c93bc" fill-opacity=".2" stroke="#1c93bc" stroke-opacity=".2" stroke-width=".5" d="M470.5 124q0 1.5 1.6 1.4-1.7 1.1-3.6 1.7c-.8-1 1.5-2.4 2-3.1Z"/><path fill="#248fb5" fill-opacity=".9" d="M333.4 21.2c-1 .7-2 2.9-3.3 2.8q0-.9-1-1.4a8 8 0 0 1 4.3-1.4"/><path fill="#cda08c" fill-opacity=".2" d="M204.8 425.3q0 1 1.3 1.2c-1.3.4-2.5 2-4 1.3q.9-1.8 2.7-2.5"/><path fill="#1f93bd" fill-opacity=".1" stroke="#1f93bd" stroke-opacity=".1" stroke-width=".5" d="M386.7 206q-.3 1.5 1.4 1.4c-1 .2-3.3 2.6-4 1.2q1-1.6 2.6-2.6Z"/><path fill="#efb69a" fill-opacity=".4" d="M411.1 304q.6 0 1-.3-.1 1.2-1.4 1.4zM377 373.2a3 3 0 0 1 2.5-2c1.4 1-1.8 2-2.5 2"/><path fill="#0d798d" fill-opacity=".1" stroke="#0d798d" stroke-opacity=".1" stroke-width=".5" d="M378.6 259.6q-1.2.9-2.5 0 1.2-1 2.5-1.6c1.8-.3 1.8 1.2 0 1.6Z"/><path fill="#c1a498" fill-opacity=".2" stroke="#c1a498" stroke-opacity=".2" stroke-width=".5" d="M418.9 432.4q-1.1 1.5-3.2 1.4-.3 0-.3-.4 1.5-1.6 3.5-1Z"/><path fill="#ebb8a2" fill-opacity=".7" d="M260.8 504h5.5c-.2 1.5-3 .8-3.9 1q-1.2 0-1.6-1"/><path fill="#23b0e2" fill-opacity=".3" stroke="#23b0e2" stroke-opacity=".3" stroke-width=".5" d="M351.2 31.8c-.5.8-2 3-3 1.8q1-1.6 3-1.8ZM414.4 192l-1.3.7q.3-.8 1.3-.7Z"/><path fill="#23b0e2" fill-opacity=".5" stroke="#23b0e2" stroke-opacity=".5" stroke-width=".5" d="M287.7 65.2q1-1.8 2.8-2.3c1.6 1-2.3 1.8-2.8 2.3Zm180.2 88q-.3 1-1.2.8z"/><path fill="#927265" fill-opacity=".1" d="m186.3 325.2.4.4a9 9 0 0 1-4 1.7q.7-3 3.6-2"/><path fill="#23b0e2" fill-opacity=".4" stroke="#23b0e2" stroke-opacity=".4" stroke-width=".5" d="M471.1 140.9c-.4.7-2 2.8-2.9 1.8a3 3 0 0 1 3-1.8ZM421.2 188q-.5.6-1.2.7.4-.7 1.2-.7Z"/><path fill="#ac897a" fill-opacity=".8" d="m293.7 492.7.1 1.3c.3 1.2-2.4.8-3 1q1.3-1.3 2.9-2.3"/><path fill="#2491b8" fill-opacity=".8" d="M396.3 197q-.7 1.3-2.1 2.1l-1-1.4c.2-.8 2.4-.7 3-.7"/><path fill="#c49c8a" fill-opacity=".9" d="M58.6 453.9c1.3.2 3.8-.5 4.4 1q-2.6 1.3-4.4-1"/><path fill="#23afe2" fill-opacity=".3" stroke="#23afe2" stroke-opacity=".3" stroke-width=".5" d="m433.3 181.3-1.3.7q.3-1 1.3-.7Zm-73.2 37.6-.1-1.1q.4-.9 1.5-1c.9.9-.7 1.8-1.4 2.1Z"/><path fill="#c7aca1" fill-opacity=".1" stroke="#c7aca1" stroke-opacity=".1" stroke-width=".5" d="m346.8 473 .2 1.9-2.2-.2q-.4 0-.4-.2 1-.9 2.4-1.5Z"/><path fill="#247996" fill-opacity=".7" d="m466.7 53.9 1.6.7q-1 .3-1.6-.7m1.6.7q1 1 1 2.4-1.5-.7-1-2.4m1 2.4q.7.4.7 1.3-.6-.5-.7-1.3"/><path fill="#24afe2" fill-opacity=".4" stroke="#24afe2" stroke-opacity=".4" stroke-width=".5" d="M264.8 107.2c.1-.7 1.5-2 2-1-.1.8-1.6 2.3-2 1ZM466.3 162q-.7.5-1.5.8.5-.8 1.4-.8Z"/><path fill="#22b1e3" fill-opacity=".4" d="m479 121-.1 1-1-.2q.5-.6 1.2-.8m-201.3 15 .2.8-1.2-.1zm159.5 35.2q-.6.8-1.5.8l1.4-.8"/><path fill="#257e9e" fill-opacity=".7" d="M473 63q.8.4.6 1.3zm.6 1.3q1.8-.2 1.6 1.6-1.5 0-1.6-1.6"/><path fill="#23afe2" fill-opacity=".4" d="M402.3 199.1q-.6.5-1.3.7.4-.9 1.3-.7m-9.5 1q0 1-1 .7zm-1 .7q0 .8-1 1z"/><path fill="#b38f7f" d="M77 458q1.6-.3 3 .8l-2.1.2h-.7z"/><path fill="#22afe1" fill-opacity=".3" d="M449.2 129h.8q-.3.7-1.1 1 0-.6.3-1m3.1 41.3-1.2.7q0-1.1 1.2-.7M390 202.7q-.2 1-1 1z"/><path fill="#23b1e4" fill-opacity=".3" d="m278.1 138.1-.5 1q-.6-1 .5-1m193.2 21.2-1.2.8q.2-1 1.2-.8m-71 41-1.3.7q.3-1 1.3-.7"/><path fill="#24b0e1" fill-opacity=".3" d="M470 152q-.2 1-1.3.8zm-10.7 14.3-1.3.7q.3-1 1.3-.7m-52 30-1.3.7q.3-1.1 1.3-.7"/><path fill="#247a98" fill-opacity=".7" d="m457.1 41.6 1.2 1q-1.2.2-1.2-1m1.2 1q.4.7.6 1.7-.9-.6-.6-1.8m.6 1.7q1 0 1 1z"/><path fill="#256f8a" fill-opacity=".7" d="M327 70.9q0 .8-.7 1.4-.3-1 .7-1.4m-.7 1.4-1.5.6q.6-.7 1.5-.6m-1.5.6q0 1-1.1 1.2.4-.7 1-1.2"/><path fill="#a78677" fill-opacity=".8" d="M341.3 400q-.5 1-2 1c-.4-1 1.4-1 2-1"/><path fill="#2384a5" fill-opacity=".6" d="m331.3 68.3-1 1q0-1 1-1m-1 1q-.6.4-1.4.4.6-.6 1.4-.4"/><path fill="#f4bda9" fill-opacity=".2" d="m93.2 462.9.8-.2q.8 0 1.4.3c-.4 1-2.4 1.6-2.2-.1"/><path fill="#23b1e3" fill-opacity=".3" stroke="#23b1e3" stroke-opacity=".3" stroke-width=".5" d="M451 163q-.2 1.1-1.3.7zm-53 68q-1-1 0 0Z"/><path fill="#24b2e4" fill-opacity=".2" d="M465 155q-.3 1-1.3.7zm-76.2 48.7q-.1 1-1.1 1z"/><path fill="#25728e" fill-opacity=".8" d="M449.8 35q.8 0 1.5.8-1 0-1.5-.9m1.5.8q.7.3 1 1-1.1 0-1-1"/><path fill="#c79e8c" fill-opacity=".9" d="M92 462a3 3 0 0 1 2 .7l-.8.2h-1q0-.5-.3-1"/><path fill="#249dc9" fill-opacity=".5" d="M433.1 173.1q-.5.9-1.4.6.5-.6 1.4-.6m-1.4.6q.2 1.4-1 1.2z"/><path fill="#c39b88" fill-opacity=".7" d="M462.4 359.9q-.6 1.3-2.2 1.1c-.1-1 1.6-1 2.2-1.1"/><path fill="#23afe2" fill-opacity=".4" d="m279.3 136.8-.2-1q0-.6.5-.7.6 1-.3 1.7"/><path fill="#a08173" fill-opacity=".8" d="M141.7 281c.3 1.1-1.5 1-2 1q.6-1 2-1"/><path fill="#22b1e3" fill-opacity=".2" stroke="#22b1e3" stroke-opacity=".2" stroke-width=".5" d="M375.1 14h1q-.2 1.1-1.4.7zm12.6 190.8q0 .9-1 1.2z"/><path fill="#9b7e70" fill-opacity=".8" d="M410.3 377q-.5 1.2-2 1c-.4-1 1.5-1 2-1"/><path fill="#8a6e60" fill-opacity=".8" d="M368.6 381c.5 1-1.3 1-1.8 1q.4-1.2 1.8-1"/><path fill="#91776b" fill-opacity=".5" stroke="#91776b" stroke-opacity=".5" stroke-width=".5" d="M220.7 382.2c1-.2 2.5-.3 2.4 1q-1.4 0-2.4-1Z"/><path fill="#8e7065" fill-opacity=".1" stroke="#8e7065" stroke-opacity=".1" stroke-width=".5" d="m219.1 392 2 .2q-1 .6-2 .7z"/><path fill="#f4bca5" fill-opacity=".1" d="M285 507h2c.1 1.2-2 1.5-2 0"/><path fill="#94786c" fill-opacity=".8" d="M239 389h1.8v1q-1.3.1-1.8-1"/><path fill="#f4bea7" fill-opacity=".5" stroke="#f4bea7" stroke-opacity=".5" stroke-width=".5" d="M281.9 504q.6 0 1 .3l-.2 1z"/><path fill="#dca98f" fill-opacity=".6" stroke="#dca98f" stroke-opacity=".6" stroke-width=".5" d="M325.1 383q-.4.9-1.5.9.7-.7 1.5-.8Z"/><path fill="#95796c" fill-opacity=".8" d="m28.2 338.5-.8.4q0-.9.8-.4"/><path fill="#c89a83" fill-opacity=".7" d="M423.2 336q-.3.8-1.2.7a2 2 0 0 1 1.2-.7"/><path fill="#23b1e3" fill-opacity=".4" stroke="#23b1e3" stroke-opacity=".4" stroke-width=".5" d="M371.9 302.3h1.4q-.4.5-1.2.5z"/><path fill="#2582a2" fill-opacity=".2" stroke="#2582a2" stroke-opacity=".2" stroke-width=".5" d="m355.2 302.1-1.1 1q0-1 1-1Z"/><path fill="#238bb1" fill-opacity=".4" d="M364.1 297q-.3 1-1.2 1 0-1 1.2-1"/><path fill="#c29787" fill-opacity=".4" stroke="#c29787" stroke-opacity=".4" stroke-width=".5" d="M151.8 278q.8 0 1.5.8H152z"/><path fill="#f6bea7" fill-opacity=".2" stroke="#f6bea7" stroke-opacity=".2" stroke-width=".5" d="m294 503.2 1.1-.3q-.2 1-1.4 1.1z"/><path fill="#d0a491" fill-opacity=".3" stroke="#d0a491" stroke-opacity=".3" stroke-width=".5" d="m14 418.1 1-.1a2 2 0 0 1-.8 1.3z"/><path fill="#24aee4" fill-opacity=".2" d="m393.4 204.3-1.3.8q0-1.1 1.3-.8"/><path fill="#22b1e3" fill-opacity=".3" d="M390.8 201.8q0 .9-1 1z"/><path fill="#24b3e0" fill-opacity=".2" d="m412.4 193.3-1.3.8q0-1 1.3-.8"/><path fill="#f6c0aa" fill-opacity=".2" d="m39.3 439.3-.4.6-1 .3q.3-1 1.4-1"/><path fill="#23b1e1" fill-opacity=".2" d="m419.3 189.3-1.2.8q0-1.1 1.2-.8"/><path fill="#23b2e0" fill-opacity=".3" d="m426.3 185.3-1.3.7q.3-1.1 1.3-.7"/><path fill="#f3c1a8" fill-opacity=".2" d="M379.9 454q-.2 1-1.1.5z"/><path fill="#23a3cf" fill-opacity=".7" d="M462 182.8q0 1-1 1 .2-.7 1-1"/><path fill="#24b1e1" fill-opacity=".3" d="M440.3 177a2 2 0 0 1-1.5.8q.6-.8 1.5-.8"/><path fill="#f2bda7" fill-opacity=".2" stroke="#f2bda7" stroke-opacity=".2" stroke-width=".5" d="m90.8 461.8 1.1.2.3.8q-1.2 0-1.4-1Z"/><path fill="#23afe1" fill-opacity=".4" d="M454.2 169q-.5.6-1.3.8.4-.9 1.3-.8"/><path fill="#21b0e2" fill-opacity=".2" d="M458 159q-.3 1.1-1.3.7z"/><path fill="#22b1e2" fill-opacity=".4" d="m473.2 157.9-.3 1-1-.1q.4-.9 1.3-.9"/><path fill="#21aede" fill-opacity=".3" stroke="#21aede" stroke-opacity=".3" stroke-width=".5" d="M328.9 69.7q0 1.2-1.2 1.4.3-.8 1.2-1.4Z"/><path fill="#dcac99" fill-opacity=".3" stroke="#dcac99" stroke-opacity=".3" stroke-width=".5" d="m175.2 473.2-.3.6-1.2.1q.5-.9 1.5-.7Z"/><path fill="#dfb399" fill-opacity=".2" stroke="#dfb399" stroke-opacity=".2" stroke-width=".5" d="M240.8 389q1 0 1.1 1h-1z"/><path fill="#f4bfa8" stroke="#f4bfa8" stroke-width=".5" d="m151.8 278 .3.9a99 99 0 0 1-10.4 2.2q.1-.6.7-.9c3-1.1 6-4.6 9.4-2.3Zm131.5 2-35.5 22.1c-2 1.7-8.8 4.7-9.7 6.8a7 7 0 0 0-5.1 3.2c-1.8-.2-4.2 1.4-5 3q-1.2-.3-1.8.6c.5 1 1.8.1 1.8-.7a7 7 0 0 0 5-3 7 7 0 0 0 5-3.1 3 3 0 0 0 2-.4l9-5.2q17.3-10.1 34.7-20a2 2 0 0 0 1.1-1.5c4.8 2.7 7.5 11.4 6.9 16.6q-1.6 14.3-15.4 18.1c-2.2.4 0-1.1-.7-2.3-3 1.7-6.2 3.6-9.6 4.3-13.7 3.8-54.7 5.5-63.7 15.3-6.5 7.6-7.1 19.7-9.6 29.2q-1.2.3-2.3.9L146 395.6q-.7.4-.7 1.2-2.3 0-3.2 2.2-1.2 0-2.2.3-1.8 1.8.6 1.3 1-.6 1.6-1.6 2.2 0 3.2-2.2c2.6 0 6.3-3.6 8.8-4.3l37.8-22c1.5 3 2.2 5.8 4.4 8.5-4 1.7-18.7 13.1-23.7 16.1q-1 .6-1.3 1.8-2.3 0-3.2 2-1.2-.2-2 .8c.7 1 2 0 2-.7q2.1-.3 3.2-2 1.3-.3 2.4-1l25.2-14.3c6.5 5.1 12.8 7.3 20.3 10.3v1q-1 0-1.8.7c-11.5 8.7-25.3 21-37.4 27.8q-1.4 1.2.4 1l1.4-1.2q2.2-.9 4.2-2.1l40.5-23.4q1.4-1.1 3-.7l9.8 4.1q-1 .9-2.3 1.3l-32.2 24.8q-1.7.7-2.6 2.5-2 0-3 1.9c1 1.1 2.7-1 3-2 1.5.7 2.7-.8 4-1.2q.5-.9 1.4-1.3c2.8-1.2 37.6-21 38.4-22.4 8.5 2.5 16.5 5.9 25.4 7.5q.4 0 .5.6l-31.2 23.3c-1.5 1.7-1.6 2-4 2.8l-.4 1a1 1 0 0 0-1 .4q.7.3 1-.5c14.7-7.4 29-16.4 43.5-24.5q1-.4 1-1.3c20 2.4 38.6-1.4 56.4-10.5q1-.5 2.2-.6c-.8 1.9-1.6 1.7-3.3 2.6q-18.9 13.7-38.1 26.9-.7.4-.7 1.3-2.4 0-3.2 2.3-1.1-.3-1.9.6c.6.9 1.8.2 2-.6q2.1-.4 3-2.3l2-.2q25.2-15 50.6-29.6.8 0 1.4-.3c2.3-2.7 12-6 12.7-9.1q22.2-7.7 44.5-14.6a5 5 0 0 1-3.3 2.4q-5.1 3.6-10.4 6.7l-11.6 7.5-1 1.3q-1.5 0-2 1.1-2 .3-3 2-1.1-.2-1.8.7c.6 1 1.7 0 1.9-.7q2 0 3-2 1.5.3 1.9-1.1 1 0 2-.5l12.1-7 19-11c.5-.9 3-1.4 2.6-2.5 11-4 32-11.8 42.5-13.9q0 .6-.7 1-9 5.3-17.7 11.3-4.6 2.4-8.8 5.3c-1.1 1.3-5.7 2.6-6 4.3a3 3 0 0 0-3 2q-1.4 0-2 1-2.1.4-3 2.2-1-.3-1.9.6c.6.9 1.8.1 2-.6q2.2 0 2.8-2.2 1.5.5 2.1-1 2.3 0 3-2c1.7.3 6.5-2.3 6.7-3.9 2.5.2 6.8-3.4 9-4.4 4.3-2.5 26.6-14.3 28.3-16.8 4.7-2.5 11-2 15.3 1.2l-.6 1-70.2 46a3 3 0 0 0-1.8 2.3c-1.8-1-3.8 1.2-4.7 2.6q-3.2.5-5 3-2.4-.1-3 2.2-1.2-.3-1.9.6c.6.9 1.5 0 1.9-.6 1-.5 2.8-.8 3-2.2 1.8 0 4.3-1.3 5-3q3-.2 4.7-2.6 1.8-.3 3.3-1.4 37.5-21.4 74.9-43.2 3 3.7 4 8.5c-2.3 0-40 25.7-45.3 29-1.5 1-3.8 2-4.5 3.7-2.4-.1-5 2.7-7.1 3.8q-.7.5-1 1.3c-1.8 0-4 1.5-5 2.7.8 1.4 4.6-1.7 5-2.7 2 0 6-3.2 8-4q2.8-1.9 5.8-3.5 22.5-12.7 44.5-26 .4.6.4 1 0 11.1-8.8 17.7a699 699 0 0 0-69 37.2q-2.1-.6-3.5 1 0 .3.3.3c.5 1.6-3.3 1.3-4.2 2.2q-.8 1-1.2 2.2-1.4-.3-2.7 0l-28.8 16.4-34.4 20q0 .3.4.2c.3 1.6-2.8 1.3-3.7 2-14 8-31.2 14.9-47.3 17.3l-.1-1.3q.9-.1 1.8-.7a4650 4650 0 0 1 53.5-34.7q.8-.4.9-1.3c1.9 0 3.7-1.5 5-2.6-1.5-1.5-4.1 1.4-5 2.6-1.8-.3-6.4 3.5-8.3 4.3l-1.6 1.4q-1.5.3-3 1.4l-53 30.5q-1.6 1-2.8 2.4-9.2.9-18.5 0a8688 8688 0 0 0 73-48.3q1-.1 1.9-.6l5.4-3.7 1-1.4c1.5 0 4.5-1.6 5-3a4 4 0 0 0 2.2-.4q1.8-1.5-.6-1.3-1.2.4-1.5 1.6c-2 0-4 1.7-5.2 3.1-2.2 0-6.7 3.6-9 4.6-1.1 1.6-3.3 1.8-4.9 3q-37.8 21.6-75.4 43.7-1.4.9-3.1.7-5.3-1.5-10.6-3.4l2.2-.9 24.8-16q2.6-1.1 4.7-2.7a9 9 0 0 0 3.3-3q1.5.2 2-1.1 2.2 0 3.2-2c.5.3 2.5-.2 1.4-1q-1 .2-1.4 1-2.2 0-3.2 2-1.3 0-2 1-2 .5-4 1.8a25 25 0 0 0-5 3.5q-2.5.8-4.8 2.3l-24.1 14q-5.3-1.1-10.6-2.5-.9 0-1.3-1l18.5-11.7 2.2-2.1c1.6-.2 4.7-1.7 5.2-3.2q2-.2 3-2c.5.2 2.7-.3 1.6-1.1a2 2 0 0 0-1.6 1.1 3 3 0 0 0-3 2q-3.3.3-5.2 3.2a5 5 0 0 0-2.5.6q-8.7 5.3-17.7 10.3c-1 .8-3.3 1.3-3.5 2.8l-11.6-2.9q-1 0-1.5-1 1 0 1.7-.6l39.9-28.3q1.3-.8 2.1-2c1-.7 2.7-.5 3.2-1.8-1-1.6-2.2 1.3-3.2 1.8q-3 1-5.7 2.7L202 480.4a74 74 0 0 1-12.6-3.1q2-1.2 3.5-2.8-.9-.4-1.9 0a6 6 0 0 1-4.3 2.4q-6-1.3-11.7-3 0-.4.3-.7l30.3-23.1c1-1 3.5-1.3 3.4-3 .5-.3 4.1-1 2.6-2q-1.9.2-2.6 2a553 553 0 0 0-42.8 24.7l-27.4-6.8q18.3-14.2 36.7-28.2.8-.6 1.5-1.6c.6-.6 3.6-1 2.6-2.3a3 3 0 0 0-2.6 2.3 5 5 0 0 0-2.6.6q-23 13.5-46.3 26.5l-10.5-2.3q-1 0-1.4-1l35.8-26.8q1.2-1 1.9-2c1-.4 2.7-.6 3-1.8-.9-1.2-2.6 1-3 1.7q-3.8 1.6-7.5 3.7l-37.5 21.6q-1 .8-1 2l-28.7-7.1 27.5-19.1c1.7-1.4 2-2.5 4.5-2.8q1.3-1-.4-1.1-1.2 1-2.7 1.4-.7.8-1.5 1.3a1525 1525 0 0 0-30.7 17.4q-1 .7-1 2Q68.2 448 62 446l.2-1q24.3-17.2 48.3-34.8c2.7-1.8 6.3-3.5 8.3-6 .4-.5 4.3-1.2 2.7-2.2q-2 .2-2.7 2.1l-2 .2-65.1 38c-1.9 1-12.2-.8-12.8-2.4l.4-.6 61.3-39q1.3-1 2.2-2a9 9 0 0 0 5.2-3.2c1-.1 5.8-2 4.6-3.2-1.4 0-4 1.7-4.6 3.2q-3.4.3-5.2 3.1c-2.4.1-14.5 7.7-17.3 9.7q-23 12.8-46 26.1a65 65 0 0 0-7.5 4.8q-6-1.2-10.4-5.6c3.3.3 27.8-16.6 32-19.5q1.2-.1 2.1-.7c1.7-1.7 7.6-4 8.3-6 1.6-.1 4.5-1.4 5-3a3 3 0 0 0 3-2q1.4.2 2-1c1 .1 4.2-.7 2.7-2q-2 .2-2.7 2-1.5-.5-2 1-2 .3-3 2-3.2.3-5 3-1-.1-2 .4l-9 5.2q-.7.8-1.6 1.2Q36.6 422 22 430.6q-.8.4-.8 1.5c-2.3-.8-5.2-6.3-5.5-8.8q1.4-.3 2.4-1l61.4-39.6L87 378c1.4-1.2 6.5-3.6 7-5q1.9-.3 3-2c.7 0 2 0 2-1q1.2-1 0 0-1.4-.2-2 1c-1.6-.4-2 1-3 2-1.7-.4-3 1.5-4.7 1.9q-1.5.8-2.5 2.2c-1.9 0-7 3.7-8.9 4.5q-.6.8-1.4 1.2A5525 5525 0 0 0 15 418l-1 .1q-.9-4.6-.7-9.4 1-1.5 2.5-2.3l-.3-.3c-1 .2-2.5 1.9-2.5-.5q.5-11.3 1.8-22.6a5 5 0 0 0 2.2-.7c16.8-11.5 33.9-24.2 51.2-34.7q.8-.6.5-1.5c1 .2 6-2.2 4.9-3.2-1.4 0-4 2-4.9 3.2-16.9 8.7-33.5 19.2-50.4 28.6l-3 2.4q.4-6.3.4-12.6C15 354.3 12 339 27.4 339q-2.8 5.2-6 10-.1 1 1 .8c3.3-2.3 19-10.3 20.5-12.5 20-2.3 47.6-22.1 65-32.8 8.5-5.8 30.7-16.1 40.2-17l-13.5 8.8q-1 .6-1.6 1.7-2.2 0-3 2.1-1.3-.2-2 1c-1 .3-2.7.5-3 1.6 1.2 1.3 2.7-.5 3-1.7q1.4.4 2-.9 2.3-.1 3-2.1a4 4 0 0 0 2-.3q8.7-5.5 17.7-10.3.8-.3 1.1-1.1 11-2.8 22.2-3.3l-.3 1.2-57.7 39.4a2 2 0 0 0-.8 1.4c-1.7-.1-4.7 1.6-5.1 3.1-1 .5-2.8.5-3.1 1.6 1 1.3 2.6-.5 3-1.6 1.6.1 4.5-1.7 5.2-3.1 2.8-.4 6.5-3.7 9.4-4.8l63.5-36.6q.9-.6.9-1.7 19.6-.8 39.4-.8l-4.9 3.9-9.6 5.6q-.6.6-.7 1.4a6 6 0 0 0-5.2 3 7 7 0 0 0-5 3 8 8 0 0 0-5.1 3q-1 0-1.7.8c.5 1 1.8.1 1.7-.8a6 6 0 0 0 4.1-1.6q.6-.6 1-1.4a7 7 0 0 0 5-3 8 8 0 0 0 5.2-3l1.8-.5 16-9.1q.5-.6.8-1.5l20.4-1c.2 1.2-1.7 1.2-2.3 1.7-20.9 14-42.8 27.2-63.4 41.4q-2.2.2-2.2 2.3-3-.7-3.5 2-1.4-.6-1.7.7-.8 0-1.5.2c-1.5 1.2-5.8 3.1-6.5 4.9q-2.2 0-3.1 2-1.2-.3-2 .6c.6 1 1.8.1 2-.7q2-.3 3-1.9a4 4 0 0 0 2-.5q2.7-1.4 5-3.3l1.3-.2q.8-.7 1.5-1.7 2.2-.4 4-1.7l78.2-45.2q.7-.6.8-1.4 9-2.4 17.5 1Zm-79.3 6c-.5.3-4.2 1-2.6 2.1q1.8-.3 2.6-2.1c.6.2 3-.3 1.6-1.1q-1.3 0-1.6 1.1ZM29 356q-2.1.3-3 2-3 .4-5 2.7c-.8.2-4.1 1-2.6 2.4q1.5-.2 2.6-1.1c1.5-1 4.4-2.4 5-4q2.1 0 3-2a2 2 0 0 0 2-.7c-.7-1-1.8 0-2 .7Zm10 36q-2.2 0-3 2.1-1.4-.4-2 1-2.1 0-3 1.8c-1.4 0-7.5 3-7.2 4.5.9.7 7-3.2 7.2-4.5q2.1.2 3-1.9 1.2.2 2-.9 2-.4 3-2.1 1.2.2 1.8-.7c-.5-1-1.6 0-1.8.7Zm-24.4 2c.3 1.7 3 .4 3.4-.7-.8-1.4-2 1-3.4.7Zm181.5 1a2 2 0 0 0-2 .8c.6.9 1.9-.1 2-.9.7-.1 3.7-.8 2.5-2q-2 .2-2.5 2Zm54.8 17q-1.5-.4-2 1-.6-.1-.8.4.7.3.8-.5c.7.1 2.1.2 2-.9.8 0 4-1 2.7-2a3 3 0 0 0-2.7 2Zm29 13.3c1.4 0 7.2-3.3 7-4.7-.5-1-6.8 3.5-7 4.7Zm-178.2 23c.7-.2 4-1.2 2.9-2.4q-2.2.3-2.9 2.3Zm60.4 13.8a3 3 0 0 0-3.1 1.6c.8 1.3 2.6-.8 3-1.6.6.1 2.6-.5 1.5-1.2q-1 .2-1.4 1.2Zm35.6 9.2c.7-.1 4-1.2 2.8-2.3a3 3 0 0 0-2.8 2.3Zm96.4 31.9-.4.8q-3.3 1.6-6.7 3h-2q-1.2-.6-2.3-1.7l.3-1q5.4-1 11-1.1Z"/><path fill="#f2bfa9" fill-opacity=".3" d="M252 469c-.5 1.5-3.6 3-5.2 3.2q2-2.9 5.2-3.2"/><path fill="#f6bfaa" fill-opacity=".3" d="M278 466.9q-.6 1.3-2 1 .5-1 2-1"/><path fill="#f5c0a8" fill-opacity=".3" d="M162 462.1c-.4.8-2.2 2.9-3 1.6a3 3 0 0 1 3-1.6"/><path fill="#f4bfa8" fill-opacity=".3" d="M176.9 435.3a3 3 0 0 1 2.6-2.4c1 1.3-2 1.7-2.6 2.4m59.3 2.6q-.3.8-1 .5a1 1 0 0 1 1-.5m-134.5 10.3a3 3 0 0 1 2.9-2.3c1 1.2-2.2 2.2-2.9 2.3"/><path fill="#f4bfa8" fill-opacity=".4" d="M249 413q-.2.7-.9.4.3-.5.8-.5m32 52q-.9 2-3 1.9.9-2 3-2"/><path fill="#f3bdaa" fill-opacity=".2" d="M413.7 408.3a6 6 0 0 1-4.7 2.6c.9-1.4 3-3.6 4.7-2.6"/><path fill="#f4bfa8" fill-opacity=".3" d="M74 401q-.6 1.2-2 1 .5-1.5 2-1m79.8 29.1c.4-.8 2.1-2.9 3-1.7-.3 1.2-2 1.4-3 1.7m143.4 1.7q-1 1.8-3.2 2.3a3 3 0 0 1 3.2-2.3M255 467a4 4 0 0 1-3 2 3 3 0 0 1 3-2m-57.3 4.3a3 3 0 0 1 2.8-2.3c1.2 1-2 2.2-2.8 2.3"/><path fill="#f3beaa" fill-opacity=".2" d="M31 397c-.3 1.2-6.3 5-7.2 4.4-.3-1.6 5.8-4.5 7.2-4.5"/><path fill="#f3bfa8" fill-opacity=".3" d="M36 394.1q-.8 1-2 1 .6-1.4 2-1m36 7.8a3 3 0 0 1-3 2q1-1.5 3-2"/><path fill="#f4bfa8" fill-opacity=".5" d="M39 392c.2-.7 1.3-1.6 1.8-.7q-.6.9-1.8.7m157 3c0 .7-1.3 1.7-1.9.8a2 2 0 0 1 2-.9M350 456c.9-1.2 3.5-4 5-2.6-1.3 1.2-3.1 2.6-5 2.6"/><path fill="#f5bfa9" fill-opacity=".4" d="M29 356c.2-.7 1.3-1.6 2-.7a2 2 0 0 1-2 .7m139 43c0 .8-1.3 1.7-2 .7q.8-1 2-.7"/><path fill="#f4bea8" fill-opacity=".4" d="M173 333q-1 1.5-3 2 .9-2 3-2m23 62a3 3 0 0 1 2.6-2c1.2 1.1-1.8 1.8-2.5 2m153 44c-.5 1.5-3.4 3-5 3 1-1.4 3.2-3.2 5-3"/><path fill="#f4bea9" fill-opacity=".3" d="m179.6 328 .4 1.2a29 29 0 0 1-5 3.3 4 4 0 0 1-2 .5c.8-1.8 5-3.7 6.6-5m247.5 55q-.9 1.9-3 2a3 3 0 0 1 3-2M33.9 395q-.7 2-3 2a3 3 0 0 1 3-2m74.2.1a9 9 0 0 1-5.3 3.1q1.9-2.8 5.3-3m142.8 17a3 3 0 0 1 2.7-2.2c1.3 1.2-1.9 2.1-2.7 2.1"/><path fill="#f2c0ab" fill-opacity=".2" d="M182.8 327.3q-.6 1-1.5 1.7l-.2-1.1q.3-1.4 1.7-.6"/><path fill="#f3bea9" fill-opacity=".3" d="M117.2 324.9c-.7 1.4-3.6 3.2-5.1 3.1.5-1.5 3.5-3.2 5-3.1m-48.3 79c-.4 1.7-3.3 3-4.9 3a7 7 0 0 1 5-3"/><path fill="#f4bfa8" fill-opacity=".5" d="M228 315c0 .8-1.3 1.7-1.8.7q.6-.9 1.8-.7M14.6 394c1.4.3 2.6-2 3.4-.7-.4 1.1-3 2.4-3.4.7m59.4 7a3 3 0 0 1 2.7-2c1.5 1.3-1.7 2.1-2.7 2m134.9 46a3 3 0 0 1 2.6-1.9c1.5 1-2 1.7-2.6 2"/><path fill="#f4bfa8" fill-opacity=".4" d="M233 312c-.9 1.6-3.3 3-5 3 .8-1.5 3.2-3 5-3m-63 23c-.2.7-1.4 1.6-2 .6q.8-.9 2-.7m210 62q-.7 2-3 2a4 4 0 0 1 3-2m58 13c-.4 1-4.2 4.1-5 2.7 1-1.2 3.2-2.7 5-2.7m-34 4c-.2 1.3-2 1.6-3 2q.6-2.3 3-2m-123 51q.5-1 1.5-1c1 .7-1 1.2-1.4 1m-26 2q.5-1 1.6-1.1c1.1.8-1.1 1.3-1.6 1.1"/><path fill="#f5bda8" fill-opacity=".3" d="M133 297.9q-.7 2-3 2.1.7-2.1 3-2.1"/><path fill="#f4bea9" fill-opacity=".3" d="M210 295a7 7 0 0 1-5 3 7 7 0 0 1 5-3"/><path fill="#f6bba8" fill-opacity=".2" d="M215.2 291.9a8 8 0 0 1-5.2 3q1.8-3 5.2-3"/><path fill="#f4bfa8" fill-opacity=".4" d="M204 286a3 3 0 0 1-2.6 2.1c-1.6-1 2.1-1.8 2.6-2.1m-92 42c-.3 1-2 2.9-3 1.6.3-1.1 2.1-1.1 3-1.6m-15 43q-1 1.6-3 2c1-1 1.4-2.4 3-2m-58 21a4 4 0 0 1-3 2.1q.8-2 3-2.1m69 3.1c.6-1.5 3.2-3.1 4.6-3.2 1.2 1.2-3.7 3-4.5 3.2m145.7 56c1-.5 2.1-3.4 3.2-1.8-.5 1.3-2.2 1.1-3.2 1.8m-91.6 11q.3-1 1.4-1.2c1.1.7-1 1.3-1.4 1.2"/><path fill="#f5bea7" fill-opacity=".3" d="M204 286q.3-1.2 1.6-1.1c1.3.8-1 1.3-1.6 1.1m-74 14q-.6 1.3-2 1 .8-1.2 2-1m294 85q-.6 1.3-2 1 .7-1.2 2-1m-144 40.3c.2-1.2 6.5-5.7 7-4.7.2 1.4-5.6 4.8-7 4.7"/><path fill="#262626" stroke="#262626" stroke-width=".5" d="M437.7 25q.6.9 1.5 1.2.5-.1.9.2l9.7 8.5q.4 1 1.5.9-.1 1 1 1c1.6 2 2.4 3.5 4.8 4.8q0 1.2 1.2 1-.3 1 .6 1.7l1 1 6.8 8.6q.6 1 1.6.7-.5 1.7 1 2.4 0 .8.7 1.3l3.6 6q0 1.5 1.6 1.6 0 .8.3 1.3l6.3 12c29.2 65.8-.6 126.5-64.4 153.7l-17.7 7.3q-.6.6-.7 1.3c.2 11.3.8 25.3-13.5 27.5-13.6-.5-38.9 6.7-42.3-12.5-1.1-9-.2-18.5.4-27.5-3.7-36.2 20.9-36.8 48.7-43.2 33.2-8.2 44.5-31.9 45-64.3-1-43-46.2-76-87.4-62.2-4.7 1.8-15 6.3-18.7 9q-1 0-.9 1-.8-.2-1.4.4-.9.5-1.2 1.4l-.7-.2q-1.1.3-.7 1.4-.9 0-1.5.6t-1.1 1.2c-13 14-14.3 38.4-21.4 55.9-10 28.4-50.6 26-53.1-5.5-1.7-22.5 13-61.4 29.7-77q6.9-7 13.8-13.5 1 0 1.6-.9l1-1c42.4-35.4 97-40.3 142.4-7.1Zm-84.5-8.4q-.6-.9-1.7-.8a75 75 0 0 0-18.1 5.4A108 108 0 0 0 265.9 94c-1.2 8.6-5.3 20.7-3.7 29.3.2 4.5 7.5 15.1 11.8 15.3a8 8 0 0 0 2.7 1c9.2.4 12.8-6.7 14.8-14.6 5.3-41.6 18.8-56 55.5-74.4a96 96 0 0 1 43.3-3.9q1.4 1 3.3 1.3 6.3 2 12.5 4.7A128 128 0 0 1 426.2 68a4 4 0 0 0 2.7 2.7c2.6 4 10 15.9 12.3 18.6q-.7 1.5.8 2.5 2.7 8.8 5 17.7.1 1.2 1.2 1.8a7 7 0 0 0 0 4.3q.7 6.6 1 13.2l-.3 1.1q-.1 1.5.1 2.9a80 80 0 0 1-15.7 38.9q-.2.6-.2 1.3-.9 0-1.4.6l-1 1.2a91 91 0 0 1-34.4 22c-.7.1-2.9 0-3 .9-10.8 3.1-21.7 4.6-32.8 6.3-2.6 1.8-4.7 12.9-4.2 16.2q-.4.8 0 1.4c-2 4.2-1.3 10-1.2 14.5a30 30 0 0 0 .1 6.7q.3 5.8 2.2 11.3c.6 1 1 3.6 2.6 3.5q.5 2 2.6 2c3.7 0 10.3 1.4 13.5 0q1.3.8 2.5 0c10.4 1.2 6.3-14.8 8-21q.4-.7.5-1.6.7-2 1.8-3.6l8.5-2q.3-.2.5-.6c22.7-3 51.8-25.5 62.8-45.7q.3-.8.2-1.4 1 0 1.2-1 2.7-3.5 4.5-7.6c2.1-5.1 5.2-11 6.3-16.4l.3-.9c1.2-1.9 2.3-6.2 2.5-8.6a40 40 0 0 0 2.1-14c1.8-3 1.3-9.8 1-13.2l.3-1.2a21 21 0 0 0-.2-4.6q0-6.9-1.3-13.6l-1.2-4.7c-.7-3.3-4.1-17.7-6.6-19.3q.3-1.5-.7-2.4c-1.4-3-9.3-19.4-12.2-19.2q0-2-1.5-3.1c-2.2-2.6-13.6-15.4-16.5-14.8q0-2-2-2c-1-1.7-8-7-10.1-7.2q-.7-1.5-2.4-2a97 97 0 0 0-48.3-14h-1c-7.1.2-15.5-1-21.9 2.6ZM220.7 382.3q1 1 2.4 1c4.8 2 10.7 5 15.9 5.8q.5 1.1 1.8 1h1.1c14.6 5 31.2 7.5 44.8 14.7q1.3.4 2.2-.4l64.6-63.2q.4-.6.2-1.3-17.6-13.5-4.7-31.6.7-.6.7-1.5c1.3 0 3.5-1.5 2.8-3q1.2.3 1.6-.6.6-.4 1-1l5.7-3q.9-.1 1.3-1h.8q.9-.1 1.2-1l.6-.2 7.7-1.1q7.5-.7 14.3 3l5.6 3.7a46 46 0 0 1 6-4.7c18.7-10.8 46 2.8 43 25.7-3 14.9-16.4 27.4-24.5 39.8-.4.6-1.3 1.9-.4 2.3 25.7-5.4 56.5-29 82-12.5a29.6 29.6 0 0 1 .6 45.6c-57.9 35.8-119.6 64.4-178.7 98-7.7 3.2-17 4.8-25.2 6.2l-1 .3q-5.7.1-11.1 1.1l-1.1-.4a225 225 0 0 1-21.1 0c-56.3-4-111.3-26-165.4-41l-1.4-.2a3 3 0 0 0-2-.7l-1.2-.2-7.7-2.5-2-.3-1.2-.2q-1.2-1-2.9-.8l-1-.1a71 71 0 0 0-13-3c-.6-1.5-3.1-.8-4.4-1-21.3-6-48 0-55.3-27.6-6.2-23.5.8-49.5-1-73.8 1-31.2 40.6-18.7 59.2-30.6a198 198 0 0 1 78.2-39.8c.5-.1 2.3 0 2-1a99 99 0 0 0 10.4-2.2l1.2-.1c39.5-8.5 80.7-8.8 121-10.2 33 .4 42.7 40.3 12.6 53.7-17.4 7.6-40.6 8.7-59.4 10.8a24 24 0 0 0-21.1 18.6c-4 15.2 1 23.4 14.3 30.5Zm45-103.2q-5.7 0-11.5.9l-23.8 1q-19.8.1-39.4 1a88 88 0 0 0-15 1q-11.3.4-22.2 3.3-3-.3-5.7 1.2c-9.4.9-31.7 11.2-40.2 17-17.4 10.7-45 30.5-65 32.8q-7.3.5-14.7 1.3-1-.5-.8.4C12 339 15 354.3 15.7 364.5a152 152 0 0 1-.9 18.5q-1.3 11.2-1.8 22.6c0 2.4 1.4.7 2.5.5l.3.3q-1.5 1-2.5 2.3a43 43 0 0 0 .9 10.6q.3 2 1.4 4c.3 2.4 3.2 8 5.5 8.8q0 .6.5 1.1 4.4 4.4 10.4 5.6l5.9 1.4 1-.3c.6 1.6 11 3.4 12.8 2.5a2 2 0 0 0 1 1.5l8 2.1H62a107 107 0 0 0 17 4.3l28.9 7.2q4 1.5 8.3 1.5.2 1 1.3 1l10.5 2.3q5.3 1.7 10.8 2.7l35 9 1-.2q5.9 1.8 11.8 3.1 2.7-.3 4.4-2.4.9-.5 1.8 0-1.5 1.6-3.5 2.8 1.8.9 3.7 1.3 4.5 1.2 8.9 1.8c2.3.9 5.7 2.3 8.1 1.7q.5.7 1.5 1 5.7 1.6 11.6 2.8 1.5.3 3 .2.4.8 1.3.9 5.2 1.5 10.6 2.5 1.5.3 3 1.1 5.2 2 10.5 3.4 1.8.2 3.1-.7a2 2 0 0 0 1 1.6 82 82 0 0 0 25.6 1.1q4.8-.2 9.6-1c.6-.2 3.3.2 3-1 16-2.4 33.3-9.3 47.3-17.4.9-.6 4-.3 3.7-1.9l2.2.2c21.8-11 42.6-24 63.3-36.8q.5-1.2 1.2-2.2c.9-1 4.8-.6 4.2-2.1q2 .1 3.2-1.4a699 699 0 0 1 69-37.2 21 21 0 0 0 8.8-17.6q0-.6-.4-1 .5-2.3-.4-4.3-1-4.9-4-8.6a18 18 0 0 0-4.6-4.6l-1-.1a15 15 0 0 0-15.3-1.2q-4.4.3-8.6 2c-.6.2-2.3.2-2.2 1.2-10.5 2-31.5 10-42.4 13.9q-3.8.7-7.5 2c-.5.1-2.4 0-2 1q-22.3 7-44.5 14.7c-2.4 1-14.2 3.8-15 5.6-2-.9-5.5 1.4-7.5 1.7-.6 0-2.4 0-2 1.1q-1.2 0-2.2.6a95 95 0 0 1-56.3 10.5q-4.5-.9-9-1.2 0-.4-.5-.6c-8.9-1.6-16.9-5-25.4-7.5l-.5-.7q-3.2-1.2-6.2-2.9l-9.8-4q-1.7-.5-3 .6c0-2.7-3.6-2.4-5.3-3.6l-2-.2c-7.5-3-13.8-5.2-20.3-10.3l-2.6-2.7c-2.2-2.7-2.8-5.6-4.4-8.4 1-1.4-.6-5.6.9-7.6 2.5-9.5 3-21.6 9.6-29.2 9-9.7 50-11.5 63.7-15.2 3.4-.8 6.6-2.7 9.6-4.4.7 1.2-1.4 2.8.7 2.3a19.6 19.6 0 0 0 15.4-18.1c.7-5.2-2.1-14-6.9-16.5l-1.5-1.9a27 27 0 0 0-17.5-1Zm92 46.3q.3 1.6.9 2.8a20 20 0 0 0 8.2 8.2q1 .8 2 1.1c12.6 6.2 19.9-11.6 16-21.7q0-1-.3-1.7-2.3-6.3-7.5-10.3l-3.7-1.5h-1.5c-10.6-5.1-19.3 14.7-14.1 23.1Zm41.5-10a5 5 0 0 0-.2 3.5c-1.7 12.9-10.8 20.6-22.7 24.2l-8.2.7q-2.5-.2-4.6 1.3-19 18-37.7 36.4-.7.6-.7 1.7-.8 0-1.5.8-5 4.6-9.8 9.4-.7.8-1 1.8-.8 0-1 .7-3 2.7-5.7 5.7.5.6 1.2.4l38.2-12.8c4.6-1.2 9-3.9 13.5-4.7l7.8-2.4c.5 0 2.3 0 1.8-1 9.6-2.7 20-5.8 29.1-9.9 5.3-7.5 21.2-27.5 24.3-34.4q.8 0 1.2-.7c.5-1.1 8-10 3.8-10.1 2.8-1 1.6-3.9 1.7-6.2q-1.6-8.5-8.7-13c-1.5-1.7-5.7-2.6-7.9-3l-1 .4c-4.9-.9-16.9 6.1-11.9 11.3Z"/><path fill="#23b0e2" stroke="#23b0e2" stroke-width=".5" d="M403 18.3a97 97 0 0 1 21.4 9.6 51 51 0 0 0-5.9 6.5q.8.3 1.5 0l6.2-3.6q.5-.4.6-.8c2.2.2 9.2 5.5 10.1 7.2q-.9 0-1.5.6a78 78 0 0 1-5.6 6.3q-.7.6-.3 1.4.6-.7 1.3-1.2 3.8-1.8 7.2-3.9.8-.5.9-1.2c2.9-.6 14.3 12.2 16.5 14.8q-1.4-.1-2.1.8l-6.9 8.8.2.2q4.6-3 9.4-5.5.8-.4.9-1.2c2.9-.2 10.8 16.1 12.2 19.2a2 2 0 0 0-1.6.7l-4 4.4q.6.6 1.5.2 2.2-1.7 4.8-3c2.5 1.7 6 16 6.6 19.4l-9 10.4c1.4.3 9-4.4 10.2-5.7q1.2 6.7 1.3 13.6-4.4 3.6-8.4 7.7c-.5.7-2.8 2-2 3.1q2-.5 3.6-1.6 3-1.7 5.8-3.8l1 .4c.2 3.4.7 10.3-1.1 13.2-1.1 0-4.1 3-5.3 3.7q-1 .6-1.4 1.9-2 0-2.9 1.7c1 1.1 2.5-1 3-1.7 2.4-.3 4.4-2.4 6.7-3.2 0 3.4-1 8.3-2.2 11.6l-.8-.1-5 2.8-1.2.8-.8.4-1.2.8-1.8 1-1.2.7-.8.6q-.8.2-1.3.6l-3.6 2-1.3.8-.7.6q-.8.1-1.3.5L451 163l-1.3.7-6 3.4-1 .8q-3 1.4-5.5 3.3-.8.2-1.5.7l-2.6 1.2q0-.7.2-1.3a80 80 0 0 0 15.7-39q.8-.3 1.5-.8l5.2-5.4q-.9-.4-1.7 0-1.8 1.5-4 2.4h-.8q-.3-6.7-1-13.3l1.3-.7q3.8-4.2 7.8-8c.7-.7.7-2-.4-1.3a5 5 0 0 1-3.4 2.3q-2.7 1.5-5.3 3.4-1-.6-1.2-1.8-2.3-9-5-17.7 1-.6 1.8-1.5 1.2-1.3 2-2.8c-1.3-1.5-3.6 1-4.6 1.7-2.2-2.6-9.7-14.6-12.3-18.5 1.7 0 6-7.2 7.6-8.5q.3-.6 0-1l-9.2 5.3q-1 .5-1.1 1.5-7.8-7.3-16.6-13.2a67 67 0 0 0 6-7.3q-.8-.3-1.6.1l-7 4-1 1q-6-2.6-12.4-4.6l6-6.5q-.7-.4-1.6.2l-6.7 3.8q-1 .3-1 1.2a96 96 0 0 0-43.3 4c1.7-2.7 6.5-4.9 9-6.8-.7 1.8 1.5 1.5 2.3.7l43.1-24.9q1-.4 1.7-1.6Zm68.3 141 .7-.6.9.1c-1 5.5-4.1 11.3-6.3 16.5q-1.2-.3-2.2.5-16.7 12-33.5 23.7-.7.4-.7 1.3-2.2 0-3 1.8c1 .9 2.6-1 3-1.8 2.6-.1 26-15 30.7-17l-.2 1.4c-11 20.2-40 42.7-62.8 45.7q-.9-.9 0 0-.1.5-.5.6l-8.4 2q-1.2 1.7-1.9 3.6c-2-.4-28.4 15-29.7 17.1q-2-5.5-2.1-11.3 1 0 1.7-.5a3194 3194 0 0 0 42.9-31.2c.5-.5 4-1 2.7-2.2q-2.2 0-2.7 2.2h-2a1984 1984 0 0 1-42.8 25c0-4.4-.8-10.4 1.2-14.5a4 4 0 0 0 2.7-2.8h1.1c.7-.3 2.3-1.2 1.4-2q-1 0-1.5.9a2 2 0 0 0-1 1q-1.8-.2-2.7 1.5c-.5-3.3 1.6-14.4 4.2-16.2 11-1.7 22-3.2 32.8-6.4l.9 1.4-1.4 1-1 .7-1 1-2 2-1.1 1-1 1.2q-1.7 1-2.6 2.6c.7 1.4 3-1 4-1.2l5.3-3.1.8-.5 1.2-.7 5-2.8.6-.5q.8-.3 1.3-.7l5-2.8 5-3 .7-.6 1.4-.7 5-2.7.6-.6q.7-.1 1.2-.7a60 60 0 0 0 7.2-4l3.6-2 1.3-.7q2.8-1.6 5.5-3.5.9 0 1.5-.8 3-1.2 5.5-3.2.8-.1 1.4-.7l5.1-2.8.6-.5q.8-.2 1.3-.8l5.1-2.7.7-.5q.8-.3 1.3-.7 1.9-.9 3.5-2.4.8 0 1.4-.7a37 37 0 0 0 5.1-2.7Zm-84.6 79.5c-1.8 6 2.3 22.1-8 20.8 1.7-.4 1.8-1.9 0-1.6q-1.5.6-2.6 1.7c-3.2 1.4-9.8 0-13.5 0q-2.1 0-2.7-2c1.7.3 23.6-16.8 26.8-19Zm-14.8 63.4.2.6a54 54 0 0 0-3.9 5.7q.5.5 1.1.2 4-2.2 7.7-5 5.3 4 7.5 10.3-1.4-.3-2.4.7l-3.8 4.7q.9.3 1.6-.2 2.8-1.4 4.9-3.5c3.9 10-3.4 28-16 21.7.7-.3 3.2-2.4 2.6-3.1a29 29 0 0 0-4.6 2 20 20 0 0 1-8.2-8.2q1.2 0 2-1 2.9-3 5.1-6.3c-.9-1-1.2 1.3-2.2 1.4q-3 1.2-5.8 3.1c-5.2-8.4 3.5-28.2 14.1-23Z"/><path fill="#23b0e2" stroke="#23b0e2" stroke-width=".5" d="m375.1 14-.4.7c-7.9 5.4-15.2 11.3-23.2 16.3l-.3.8q-2 .2-3 1.8c1 1.1 2.5-1 3-1.8l1.9-.1q13.8-8.4 27.8-16.4.6-.4 1-1.2 7.7.6 15.3 2.4-1.6.6-2.8 1.3L356 44c-2.6 2-7.4 4.1-9.1 6.7-36.7 18.4-50.2 32.8-55.5 74.4-2 7.9-5.6 15-14.8 14.6l.9-.6.5-1-.2-1.3h1.4q.9-.7.3-1.7-.6.1-.5.7l-1.4.2-3.7 2.7c-4.3-.2-11.6-10.8-11.8-15.3-1.6-8.6 2.4-20.8 3.7-29.3a3 3 0 0 0 2.2-.4q9-6.4 18.5-12.6c1.7-1.2 2-2.4 4.4-2.7q1.6-1-.3-1.1l-3.5 2.3q-10.1 5.9-20.4 11.5a65 65 0 0 1 6.5-16.4q1 .4 1.7-.2 6.6-4.5 12.7-9.3c.5-.5 4.4-1.3 2.8-2.3a4 4 0 0 0-2.8 2.3 39 39 0 0 0-10.2 5.6q-1.5.4-3 1.3a108 108 0 0 1 54.7-49.5q.9.5 1 1.4c-3.6 3.2-16 13-18 15.9-1.4.6-3.5 1-4 2.6 1 1 3.8-1.5 4-2.6l1.8-.5q19.8-11.1 39.2-22.8c6.4-3.6 14.8-2.4 21.9-2.6Zm-110.3 93.2c.4 1.3 1.9-.1 2-1-.5-1-1.9.3-2 1Z"/><path fill="#23b1e3" fill-opacity=".6" stroke="#23b1e3" stroke-opacity=".6" stroke-width=".5" d="M312.1 39.9c-.1 1.1-3 3.6-3.8 2.6.4-1.7 2.5-2 3.8-2.6Z"/><path fill="#efb69a" stroke="#efb69a" stroke-width=".5" d="m411.1 304-.4 1q-6 5-11.5 10.4c-5-5.2 7-12.2 12-11.3Zm8.9 2.8q7.2 4.5 8.7 12.9c0 2.3 1.1 5.2-1.7 6.2-16.4 11.1-32.4 23.1-48.5 34.2q-1 .6-1.4 1.8c-1.9 0-3.8 1.5-5 2.8.7 1.5 4.5-1.8 5-2.8q1.3-.1 2.5-.9l42.4-24.3c-3 7-19 27-24.3 34.4-9 4.1-19.5 7.2-29 9.9q3.3-3.7 7.3-6.5.8-.5.9-1.4c.7 0 3.9-1 2.5-2q-1.8.3-2.5 2c-4.4 1.4-12.5 7-17.1 9.2q-1 .8-.8 2.1c-4.5.8-9 3.5-13.5 4.7l-38.2 12.8q-.7.2-1.2-.4 2.8-3 5.8-5.7h1.4l34.8-24.3q.8-.4.7-1.2c.6-.2 4-1.2 2.7-2.2q-2 .4-2.7 2.2h-1.2q-1.6 1.4-3.6 2-9.3 5.7-18.9 10.8 0-1 .8-1.7l37.6-36.4q2-1.5 4.6-1.3 4.4 3.3 8.2-.7c11.9-3.6 21-11.3 22.7-24.1 1.8-.1 20.1-10.6 21-12.1Zm-56.2 85.8c-.6 3-10.4 6.4-12.7 9.1q-.6.5-1.4.3-.3-1.9-1-3.8c.9-1.8 12.7-4.6 15.1-5.6Z"/><path fill="#efb699" fill-opacity=".4" d="M348.8 370.3q.8-1.8 2.7-2.2c1.4 1-2 2-2.7 2.2"/><path fill="#f0b69b" fill-opacity=".4" d="M377.1 362c-.5 1-4.3 4.2-5 2.7 1.2-1.3 3.1-2.8 5-2.8"/><path fill="#134758" fill-opacity=".1" stroke="#134758" stroke-opacity=".1" stroke-width=".5" d="m276.7 136.7 1.2.1.2 1.3q-1 0-.5 1l-1 .6a8 8 0 0 1-2.6-1q1.2-1.2 2.7-2Z"/><path fill="#246076" fill-opacity=".4" d="m295.4 32-1.1 1.1q0-1.2 1-1m-1.1 1.1q-.5.9-1.6.9.6-.9 1.6-.9"/><path fill="#62544c" fill-opacity=".3" stroke="#62544c" stroke-opacity=".3" stroke-width=".5" d="m81.2 459 2 .3q-1 .5-2 .6z"/><path fill="#254654" fill-opacity=".5" d="M437.7 25q1.2 0 1.5 1.2-.9-.3-1.5-1.2"/><path fill="#25576c" fill-opacity=".4" d="M362.2 298.1q-.5.9-1.4 1 .3-1 1.3-1"/><path fill="#24505e" fill-opacity=".5" d="M481.1 77.6q.6.7.7 1.6-.6-.7-.7-1.6"/><path fill="#25667d" fill-opacity=".2" stroke="#25667d" stroke-opacity=".2" stroke-width=".5" d="M475.2 66q.8.4.3 1.2-.3-.6-.3-1.3Z"/></svg>