<svg xmlns="http://www.w3.org/2000/svg" style="shape-rendering:geometricPrecision;text-rendering:geometricPrecision;image-rendering:optimizeQuality;fill-rule:evenodd;clip-rule:evenodd" viewBox="0 0 512 512"><path fill="#bfc2e0" stroke="#bfc2e0" stroke-width=".5" d="m352 81-.9 1.8-9 12.7q1 .7 1.9 0l15.1-8.9q.9-2.7 1-5.7.8.6.7 1.7V137q-1.5.6 0 1.1c0 2.4.3 11.3-1.6 12.7q-10.1.3-20.2.3l9.5-13q1.3-2.7-1.5-1.7c-5.3 2.4-8.4 6.3-12.9 9.5a1 1 0 0 1-.9 0c-2.6-3-3.1-9.8-3.6-13.6 2.3-.6 8.6-7.7 10.1-9.8q-.4-.5-1-.3l-8.3 4.9c-1 1-.4 3.8-.8 5.2a277 277 0 0 1 1.1-30.9q.3-9.9.2-19.8.6-.8 1.6-.8zm0 42.2c2.6-.1 10.7-4.9 7.5-8a26 26 0 0 0-7.5 8Z"/><path fill="#ad8e54" d="M137.3 193.8q0-.9-1-1.2v-.2l14.2-8.4c1.5-1 2.2-2.6 4.3-1.6q-1.8.4-2.7 2.1-7.6 4.6-14.8 9.3m8.9 11q0-1-1-1l16.8-10.4q1-.4 2 .2l-3 2.2-2 .6c-3.8 3.3-8.6 5.7-12.8 8.5M147 320q0-.9-.8-1.2a925 925 0 0 1 28.8-17q3.5-2 6.7-4.4c1.6-.5 2.2-1.5 4-1-2 1-3.6 1.4-4.7 3.3a15 15 0 0 0-5 3z"/><path fill="#ab8b50" fill-opacity=".4" stroke="#ab8b50" stroke-opacity=".4" stroke-width=".5" d="M378 26q-.2 1-1.2.8zm-43 27q-.2 1-1.2.8zM15 209l1.2.3q-.4.8-1.4.8zm192.9 91c.8-1 2.7-2 2.1-3.6l11.8-7q9.8-5.2 19.4-10.7l1-1c1.7-.9 3.9-1.4 5-3q3.4-2.2 7.2-3.9c1-1.7 1.6-.9 3-1.9 1.4-1.3 3.3-3.2 5.3-2.3-2 0-2 1-3.3 2l-8.6 4.7q-2.3 1.6-4.4 3.4-3 .9-5 3l-19.4 12-10.6 7q-1.5 1.3-3.6 1.3Zm0 0c0 1-1.4.9-2 .9q.8-.7 2-1Zm-2 .9q0 1-1.2 1zm-1.2 1c.4 1.1-1.3.9-1.8.8zm-1.8.8q-.2 1-1.2 1.1zm-1.2 1.1c.5 1.2-1.1 1-1.7 1q.7-.7 1.7-1Z"/><path fill="#aa8d57" d="M148.1 253.8q.2-.8-.1-1.4l26.8-16.2 1.8-.9q2.4-.2.6 1.3l-1.7.4c-2 .8-2.9 2.5-4.9 3q-11 7.4-22.5 13.8M116 296.9v.5c-1.7 1-3.6 1.5-4.8 3.2l-1.5.5c-8.8 5.4-17.4 11.1-26.6 16V315l1.8-.6 28.9-17z"/><path fill="#375bd0" fill-opacity=".9" d="m273 423.9.2.7c-8.4 5-19 13.2-27.3 17.5l-1 .2q-1-.1-2 .2-3.7 2.4-7.6 4.4 0 .8.7 1.3-.3.8-1.2.7-2.5-.7-5-.4l41.2-24.1q1-.5 2-.5"/><path fill="#e8a612" fill-opacity=".3" stroke="#e8a612" stroke-opacity=".3" stroke-width=".5" d="M15.3 350v-2l.6-.7q15.5-8.5 30.6-17.3 3.3-2 6.5-4.4c.8-.3 2-1 2.8-.3l-4.8 3.4q-2.2 1-4.3 2.2-15.6 9.7-31.4 19Z"/><path fill="#f2ad14" fill-opacity=".4" stroke="#f2ad14" stroke-opacity=".4" stroke-width=".5" d="M175.4 4.9h-3.7q.5-1 1.8-.9a2 2 0 0 1 1.8.9Zm224 0h-3.8c.6-1.3 3.4-1.5 3.7 0ZM15.2 161.2q-.5-1-.3-2 1 0 2-.5l17-10.3q1-.6 2 0-1.4 1.5-3 2.4l-1.3.4q-8 5.4-16.4 10Zm35.7 6-12.3 8q-2.2 1.5-4.8 2.2l-1-.1c2.7-2 15.3-10.3 18-10.1Z"/><path fill="#f3b013" fill-opacity=".4" stroke="#f3b013" stroke-opacity=".4" stroke-width=".5" d="M181.2 27.3q.3.3.9.3-.1.7-.7 1L170 35.8q-2 .9-3.7 2-2.6.3-.5-1.3 6.9-4 13.5-8.5.8-.5 1.8-.6ZM51.8 125.7a1 1 0 0 0-.8-.5l2.6-2q5.7-3.2 11-6.8l2.1-1q2.4-.3.3 1.1-7.4 4.9-15.2 9.2Z"/><path fill="#e5a611" fill-opacity=".3" stroke="#e5a611" stroke-opacity=".3" stroke-width=".5" d="M295.8 50q0 1.4 1.3 1.5-10.4 5.5-20.2 11.8l-3.4 1.6-7.3 4.7-1.9.3q-.1-.5.4-.7c2.3-.7 3.5-2.9 6.3-3.6A746 746 0 0 1 295.8 50Z"/><path fill="#7a7685" fill-opacity=".8" d="M83 424.2v-2.3q1.7-.2 3.2-1.1c9.2-5.7 18.6-10.6 27.5-16.5q1-.1 2 .2-3.2 2.4-7 3.8-.5.8-1.3 1.3c-5 1.9-8.3 6.2-13.3 8q-5.2 3.8-11 6.6"/><path fill="#e09f13" fill-opacity=".3" stroke="#e09f13" stroke-opacity=".3" stroke-width=".5" d="M269.2 13.3h2.8l-10 6.2-13.4 7.4-5.5 3.8q-1 .4-2-.2 4.8-3 9.5-6.2a445 445 0 0 1 18.6-11Z"/><path fill="#f2ae14" fill-opacity=".4" stroke="#f2ae14" stroke-opacity=".4" stroke-width=".5" d="M343.2 48.2q-.5.8-1.4.8.6-.5 1.4-.8Zm3.2 5-1.4.5q.5-.7 1.4-.6ZM15.3 324l-.2-2a223 223 0 0 0 23.8-13.8c1.2 0 2.8-1.9 3.9-1q-13.5 8.6-27.5 16.8Z"/><path fill="#f2af13" fill-opacity=".4" stroke="#f2af13" stroke-opacity=".4" stroke-width=".5" d="m115.4 5-3.7-.1c.6-1.5 3-1 3.7 0Zm32-.1h-3.8c.6-1.3 3.1-1.3 3.8 0Zm56 0h-3.7c.6-1.4 2.8-1.2 3.7 0Zm22.8 0h-3.4q.5-1 1.7-1t1.7 1Zm64.2 0h-3.8c.7-1.3 3-1.2 3.8 0Zm66 0-3.7-.1c.7-1.2 3.1-1.2 3.7.1ZM413 25.3q-.5.6-1.4.6.7-.6 1.4-.6ZM30.8 113.8q-.2-.4-.8-.6c4-3.5 9.2-5.6 13.6-8.6q1.1-.7 2.2-.3-1.3 1.2-2.7 2.2z"/><path fill="#edab12" fill-opacity=".3" stroke="#edab12" stroke-opacity=".3" stroke-width=".5" d="M298.2 24.6q.8.4.8 1.3A636 636 0 0 1 272.4 41c-.7-.6 0-1 .6-1.3z"/><path fill="#b5924d" d="M222.2 258q-1.3 1.6-3.1 2.7l-22 13.1q0-1.1-1.2-1.3l22.2-12.7c1.6-1.2 1.9-2 4-1.9"/><path fill="#b08f52" d="M157 214.9q.1-1.2-1.1-1.3 11.2-6.4 22-13.1a2 2 0 0 1 2 0c-.2 1.3-1.6 1-2.5 1.5l-16.7 11z"/><path fill="#eda712" fill-opacity=".3" stroke="#eda712" stroke-opacity=".3" stroke-width=".5" d="M221.7 56q.3 1 1.4 1.5l-18.6 10.4a15 15 0 0 1-5.3 3.1c-.4-1.9 3.3-2.8 4.5-3.4z"/><path fill="#d49a17" fill-opacity=".7" d="M95.9 5q0 .5-.5.8-3.8.9-7.4 2.8-1 .4-2.3 0l2-1.6q3-1.3 5.9-3 1.5 0 2.3 1M85.7 8.6c.3 1.3-1.3 1.4-2 1q1-.7 2-1m-2 1c.4 1.4-1.3 1.5-2.2 1zm-2.2 1c.7 2-1.3 2.3-2.8 2.2q1.1-1.6 2.8-2.2m-2.8 2.2c.4 1.3-1.5 1.1-2.2.7zm-2.2.7q.4.7.1 1.5c-1.1.9-4 3.1-5.4 3.2q.7-1.5 1.9-2.7 1.8-.8 3.4-2"/><path fill="#ab8d56" d="m174.2 220.9-1-.3q1.3-1.2 2.8-2a239 239 0 0 0 17-10q1-.4 2 0 0 .7-.8 1-2.4 1-4.6 2.3-6.7 4.6-13.6 8.8-.7.5-1.8.1"/><path fill="#eca912" fill-opacity=".3" stroke="#eca912" stroke-opacity=".3" stroke-width=".5" d="M203.6 39q.6 1 1.5 1.4l-15.4 8.7c-1.5.6-3.6 3.4-5.1 2.9-1.5-1 1.4-1.5 1.8-1.8q8.6-5.7 17.2-11.1Z"/><path fill="#5d79da" d="M176.8 157v-.8q0-.7.7-1.1 7.5-4.2 14.5-8.8.9-.4 1.8.2l-14.7 10q-1 .7-2.3.5"/><path fill="#d99b11" fill-opacity=".3" stroke="#d99b11" stroke-opacity=".3" stroke-width=".5" d="M131.7 42.2q0 1 1 1.5a68 68 0 0 1-8.1 4.6l-6.5 4.2q-1 .4-2 0 7.6-5.4 15.6-10.3Z"/><path fill="#5170d7" d="M192 416.7q-.2 1-1 1.5a230 230 0 0 1-14 8.8v-2q6.6-3.7 12.9-7.8z"/><path fill="#af8d49" fill-opacity=".7" stroke="#af8d49" stroke-opacity=".7" stroke-width=".5" d="m95.1 126.9-2-.2 9.9-6.3q.9-.3 1.8.2a97 97 0 0 0-8 5.8q-.7.6-1.7.5Zm-10.4 5.3c-.5 1.4-2.5 1.4-3.4 2.6q0-1 .4-2 1.5-.6 3-.7Z"/><path fill="#c99526" fill-opacity=".4" stroke="#c99526" stroke-opacity=".4" stroke-width=".5" d="M140.7 359.3q.2 1 1.4 1-5.4 3.8-11.1 7.1-1 .6-2 .6c-1.8-1 .5-.9 1-1.4l1.6-1.5z"/><path fill="#8a7e76" d="m83.9 305 .2-2q1.3-.3 2.5-1 4.8-2.7 9.4-5.7 1-.6 2 0a3 3 0 0 1-2.4 1.5A175 175 0 0 1 84 305"/><path fill="#e7a412" fill-opacity=".3" stroke="#e7a412" stroke-opacity=".3" stroke-width=".5" d="M53.2 85q-.3-1-1.3-1.4 6-3.3 11.8-7a2 2 0 0 1 2-.2q-6 4.5-12.5 8.5Z"/><path fill="#5a76d9" d="M394.9 143.2c.4 1-2.3 2.5-2.8 1.5q.9-1.8 2.8-1.5m-218 231.9-.1-2q3.5-1.6 6.8-3.7.8-.3 1.4 0l-5 4q-1.5 1-3.1 1.7"/><path fill="#94826c" d="M104.1 179.7q0-.9-.9-.8l8.5-5.5q1-.7 2.1-.1-4.7 3.3-9.7 6.4"/><path fill="#d29e12" fill-opacity=".2" stroke="#d29e12" stroke-opacity=".2" stroke-width=".5" d="M70.6 328.2v1.7l-8.3 4.9q-.5-.9-1.4-1.2 4.8-2.8 9.7-5.4Z"/><path fill="#edbd57" d="M399.9 81c.8 0 3.2-.8 3 .7l-11.2 5.6q.3-.8.7-1.2 3.9-2.4 7.5-5.1"/><path fill="#f1ae14" fill-opacity=".4" d="M245.4 5h-3.7c.5-1.5 3.1-1.4 3.7 0m136-.2q-1.8.3-3.7 0c.6-1.3 3-1 3.7 0M410.3 16q-.6.5-1.3.7.4-.7 1.3-.7m-21.2 24.2q-.5.9-1.4.7.6-.5 1.4-.7m13.2-.2q-.6.5-1.3.7.3-.7 1.3-.7m-26 15q-.5.7-1.4.7.5-.7 1.5-.7m-27.6 10q0 1-1.1 1zm8.6 1q-.7.5-1.5.8.5-.8 1.5-.8m-37 2q-.5.6-1.2.8.1-.8 1.2-.8m20.4 2q0 1-1 1z"/><path fill="#728adf" d="m179.2 168-.2-.9q3-1.7 6-3.8c.7-.3 1.4-1 2 0l-6 4.2a3 3 0 0 1-1.8.5m140.5 177c.4.9-1.2 1.6-1.7.6q.6-.9 1.7-.6"/><path fill="#9e8762" d="M160.4 160c-1.5 1.2-6.4 5.3-8.2 5l-1.2-.2 7-4.5q1.1-.3 2.4-.4"/><path fill="#a3854b" d="M82.3 121.9q-.3-1.6.5-3 2.7-1.6 5.7-3 0 .3.3.4-3.2 3-6.5 5.6"/><path fill="#818ec7" d="M266.2 141.6q-.3-.6-1.2-.5c.6-1.4 4-2.4 5-3.5q.9-.7 1.8-.2c-1.3 2-3.6 3-5.6 4.2"/><path fill="#f2af14" fill-opacity=".3" d="M270 5h-4c0-1.9 4.4-1.4 4 0m113 18q-.3 1-1.3.7zm-5.7 12.3-1.3.7q.3-1.1 1.3-.7M340 50q-.2 1-1.2.8zm11.3.3q-.6.5-1.3.7.3-1 1.3-.7m-19 11-1.3.7q.3-.9 1.3-.7m18 9-1 .7q0-1.1 1-.7M14.9 234h1q-.2.8-1 1z"/><path fill="#f4ae13" fill-opacity=".3" d="M399 13q-.1 1.1-1.3.7zm19 9q-.2 1.1-1.3.7zm-8 5q-.3 1-1.3.7zm4.3 6.3-1.3.7q.2-1.1 1.3-.7M364 34.9q-.2 1-1.2.8zm43.4 2.4-1.2.8q0-1 1.2-.8M356 39.9q0 1-1.2.8zm-11.6 14.4-1.2.7q.2-1 1.2-.7M321 61.9q0 1.1-1.2.8zm4.4 3.4-1.3.7q.3-1 1.3-.7"/><path fill="#c79018" fill-opacity=".7" d="M9.8 81.7q0 1.1-1.2.9zm-1.2.9c1 1.9-1 4.1-2.3 5.4-.7-2.5.7-3.9 2.3-5.4"/><path fill="#f3ae14" fill-opacity=".4" d="M394 16.3q-.4.7-1.3.7.5-.6 1.4-.7m-2.6 10.8-1.5.7q.4-.9 1.5-.7M367 33q-.4 1-1.5.8zm30.1 2.1q-.5.8-1.5.8zm-46 8q-.6.9-1.6.8.7-.6 1.5-.8m32.1 7.8q-.4.6-1.2.7.3-.7 1.2-.7m-19 11q-.6.6-1.3.7.5-.8 1.4-.6m-48.1 3.3q-.5.7-1.5.7.8-.6 1.5-.7M15 406.9l1.2.4-1.4.8z"/><path fill="#f3ae15" fill-opacity=".3" d="m403.3 20.3-1.3.7q.3-1.1 1.3-.7M375 28q-.1 1-1.2.8zm46.3 1.3-1.3.7q.3-1 1.3-.7m-37 2-1.3.7q.3-1 1.3-.7m11 13q-.6.5-1.3.7.3-1.1 1.3-.7M332 55q-.3 1-1.3.7zm33 0q-.1 1.1-1.3.7zm-8 5q-.3 1-1.2.8zM15 273h1a2 2 0 0 1-1.1 1.1z"/><path fill="#abafca" d="M197.8 464.2q2.1-.3 4.3-.1c-.7 1.4-3.4 1.3-4.3.1m26-.1h4.3c-.9 1.2-3.5 1.4-4.2 0"/><path fill="#f2ae12" fill-opacity=".2" d="m408.3 17.3-1.2.8q.2-1 1.2-.8M372 29.9q0 1.2-1.2.8zm28.4 11.4-1.2.8q.2-1 1.2-.8M329 56.9q0 1.1-1.2.8zm33 0q0 1.1-1.2.8zm-8 5q0 1.1-1.2.8zm-8 5q0 1-1.2.8z"/><path fill="#b18419" fill-opacity=".7" d="M64.8 439c-1.6 1.8-3 .2-4.8-.2.4-.8 5.5-1.2 4.8.2"/><path fill="#f1af15" fill-opacity=".4" d="m398.4 23.1-1.5.7q.4-.9 1.5-.7m17.9 8.9-1.3.8q.3-.9 1.3-.8m-36.9 2q-.6.6-1.4.7.4-.9 1.4-.7m10.8 13q-.5.5-1.3.8.5-.7 1.3-.8m-62.8 17-1.4.7q.4-.9 1.4-.6m-19.5 6.3q-.2.8-1.1.6z"/><path fill="#edbd57" d="M238 81h3a7 7 0 0 1-4.4 2.2q.5-1.2 1.4-2.3"/><path fill="#ad801a" fill-opacity=".8" d="M428.8 73.8c1 2.2-1.6 2.7-2.8 1.3q1.3-.9 2.8-1.3"/><path fill="#7c91e1" d="M390.3 173.8a1 1 0 0 1 0-.9q2-1.1 1 .8-.5.3-1 .1M227.1 378q.5-1.7 2.4-1.8c1.6.8-1.5 2.1-2.4 1.8m51.3 25c-.6-1 1-1.4 1.5-.6q-.6.9-1.5.6m-83.2 12c-.4-1 1.2-1.5 1.7-.6q-.7.8-1.7.5m78.8 7q1.5-.3 2.8 0c0 1.2-2.5 2.2-3.6 2.7l-.2-.7a5 5 0 0 1 1-2"/><path fill="#e7a91d" fill-opacity=".8" d="m93.2 126.7 2 .2c-.1 1.5-11.7 8.9-13.4 10.4q-.6-1.2-.5-2.5c1-1.2 2.9-1.2 3.4-2.7 1.8-2.3 5.9-3.8 8.5-5.4"/><path fill="#f0af12" fill-opacity=".3" d="m289 13.3 1.2-.3q-.3 1-1.4 1zM402 32q-.3 1.1-1.3.7zm-31.7 7.3-1.3.7q.3-1.1 1.3-.7m-8 24-1.2.8q0-1 1.2-.8M313 67q-.2 1-1.2.7z"/><path fill="#7e8dc8" d="M395 464q2.6-.1 5 .2-.8.9-2 1.1c-.9-.2-2.8 0-3-1.2"/><path fill="#50609f" d="m176 100.3 1.9-.4q-1 1.7-2.3 3.3c-.9-.5.3-2.2.4-3"/><path fill="#e1dadd" d="M178.9 80.9q-1 2-.9 4l-1-.2c-.5-1.5-.6-4.5 1.9-3.8"/><path fill="#8b95c1" d="M413 174.7q.2 2.6-2.1 3.3.4-2.1 2.1-3.3"/><path fill="#868fb1" d="M372 464.2a15 15 0 0 1 4.3 0c-.8 1.4-3.3 1-4.4 0"/><path fill="#9199ba" d="M338.9 464.2q2.1-.3 4.2-.2c-.6 1.5-3.3 1.4-4.2.2"/><path fill="#989ebd" d="M305.8 464.1q2.1-.2 4.2 0c-1 1.2-3.6 1.5-4.2 0"/><path fill="#667098" d="M354.8 191.2q2.3-.6 4.4.6c-1.3 0-3.6.8-4.4-.6"/><path fill="#9ba1c3" d="M287.9 464.3q2.1-.5 4.4-.2-.9 1-2.2 1.2z"/><path fill="#a4a8c5" d="M254 464.3q2-.5 4.3-.2c-.8 1.4-3.3 1.1-4.4.2"/><path fill="#f3af14" fill-opacity=".2" d="m389.3 28.3-1.2.8q.2-1 1.2-.8m4.6 8.6q0 1.1-1.2.8zm-12.6 15.4-1.2.8q0-1 1.2-.8m-63 17-1.2.8q0-1.1 1.2-.8"/><path fill="#8f9ee1" d="M383.8 191.3q2.1-.5 4.3-.5-2 2.1-4.3.5"/><path fill="#d39a19" fill-opacity=".4" stroke="#d39a19" stroke-opacity=".4" stroke-width=".5" d="M317.4 4.7q-1.9.5-3.7 0c.7-1.2 3-1 3.7 0Z"/><path fill="#a28a5e" fill-opacity=".5" stroke="#a28a5e" stroke-opacity=".5" stroke-width=".5" d="M194.7 308.3q-.2 1.2-1.5 1.4-.3-1.7 1.5-1.4Z"/><path fill="#908071" fill-opacity=".4" stroke="#908071" stroke-opacity=".4" stroke-width=".5" d="M191.8 310.2q-.4.6-1 .9.3-.7 1-.9Zm-1 .9q-.6.7-1.7.7a2 2 0 0 1 1.8-.7Z"/><path fill="#f1af15" fill-opacity=".3" d="M391 18q-.2 1.1-1.3.7zm-43 27q-.3 1.1-1.3.7zm40.3 3.3q-.6.5-1.3.7.3-1 1.3-.7"/><path fill="#cf9718" fill-opacity=".4" stroke="#cf9718" stroke-opacity=".4" stroke-width=".5" d="M339.2 4.8q-1.7.3-3.5 0c.6-1.1 3.2-1.3 3.5 0Z"/><path fill="#262627" stroke="#262627" stroke-width=".5" d="M95.9 5a297 297 0 0 0 19.5 0 1103 1103 0 0 0 32-.1 583 583 0 0 0 28 0 683 683 0 0 0 28 0q9.7.3 19.3 0h22.7l20.6.2 4-.1a417 417 0 0 0 20.4-.1 476 476 0 0 0 27-.2 186 186 0 0 0 21.8.1q6.7.3 13.5 0 1.8.3 3.6.1a543 543 0 0 0 25.1 0 181 181 0 0 0 18 0l14.1.2c26.2 2.2 29.8 27.9 28.4 49.4 0 9.3-1.6 20.6-.3 29.6 21.4 28.9 67.2 48 68.3 88.4q-.2 99.5-.1 199c-4 22.6.5 44.5 1.6 67q0 1 .6 1.5v25q-.4.1-.7.7c-2.3 28.6-16.8 42.7-45.8 42-67.3.4-134.8-.2-202 .1-15.9-.6-32.9 0-49-.4q-1.7 0-3.5.4c.3-1.6-4.6-.5-5.5-.8q-1-.2-1.5.7c-32.9-1.1-66.4 1.3-99.1.1.2-1.3-3.5-.6-4.2-.8-28.4-3.5-32.9-28.3-31.6-52.5q.9-7.5 1-15c-1.2-1.5-3.7-1.2-5.3-.5.7-1.4-4.4-1-4.8-.2-4-.6-14.1.4-19 .2h-2a58 58 0 0 1-16.2-2.2c-8.4-1.5-18.5-10.6-19.1-19.3-3.2-105.3-1.3-210.7-1.4-316 0-5 2.5-9 4-13.5 1.3-1.3 3.2-3.5 2.3-5.4q1.2.3 1.2-1a318 318 0 0 1 61.4-63.3c1.3 0 4.3-2.3 5.4-3.2q.4-.8-.1-1.5c.7.4 2.6.7 2.2-.7 1.5.1 3.5-.3 2.8-2.2.9.5 2.6.4 2.1-1 .8.4 2.4.3 2.1-1q1.2.4 2.3 0 3.6-1.8 7.4-2.8.5-.3.5-.8Zm35.8 6.3c-4.8.6-12 .2-16.4 1.8H114a148 148 0 0 0-32.8 6.7c-15.8 16.2-32.7 31.3-49 47-3.1 3.4-14 16.1-14.2 20.3q-1 0-1.1.9a7 7 0 0 0-1.7 5.6q-.3 6 0 11.7a10 10 0 0 0 0 4.4 77 77 0 0 0 0 14q-.5 10.8-.2 21.7-.5 1.6 0 3.3a35 35 0 0 0 .3 12.4c-1 1.7-1 8.1-.2 9.9l-.3 1q-.3 2 0 4a56 56 0 0 0 .2 12.7q-.5 10.2 0 20.4l-.2 1q-.2 1.5 0 2.9l.1 21v1q-.5 4-.1 8-.4 5.7 0 11.4-.3 4.1.2 8.3-.6 5.1 0 10.3l-.1 1.1a7 7 0 0 0 .2 3.6q-.7 5.2 0 10.6a65 65 0 0 0 0 23.5 57 57 0 0 0 .2 12.3c-.8 2.7-.3 7.4-.3 10.2v2.7c.2 3.4-.5 8 .4 11.1v2c-.8 2.8-.4 7.4-.2 10.4l-.3 2.6V378q0 5.1.3 10.2l-.2 1q-.3 3.8.2 7.7c-.2 2.4-.9 8 0 10.1l-.3 1.2a14 14 0 0 0 .9 6q.9 4.8 4.2 8.3c1 1.3 4.3 4.7 6 4.4 3.4 4.3 23.9 6.4 29.3 5a6 6 0 0 0 4.5.3q5.3 0 10.5-.5.5-.4.4-1.2.1-3.8-.3-7.4.4-13.6.4-27.3l-.1-2.5v-15.4q.3-1-.4-1.6c.9-4.4.3-10.7.4-15.4v-15.3q.3-1-.5-1V343c1.2-3.2.2-9.6.6-13.2v-26.2q0-.3-.4-.6.4-11.7.4-23.4.2-1-.6-1.5c.9-1.6.4-4.1.5-5.9q.2-6.3-.3-12.5l.4-2.8q-.2-6 .4-12v-1.1q.5-1.2.7-2.6a130 130 0 0 0 0-19q.3-6.8-.8-13.5.1-2.3-.2-4.7a399 399 0 0 0-2-25L67 142.4c.5-20 1.6-37.2 10.9-55.1 1.5-.5 3.1-2.9 3.8-4.3 4-3.9 12.5-8.7 17.9-9.6L197 73q33 0 66-.7l50.6-.4a982 982 0 0 0 33.3.2h1a1046 1046 0 0 0 45.1 1q1.3.6 2.8.9h6.3q3.9 0 7.8.6 3.6.4 7.3.4l1.2-.2q3.7.6 7.6.4c1.2 1.4 3.8 1 2.8-1.3q1.6-4.2 1.2-8.6 1.5-5.7 1-11.6v-4.3a37 37 0 0 0-1.8-13.3 31 31 0 0 0-7.8-15q-4-4.2-9.4-6.4-5.1-2.4-10.7-3.3c-11.5-1.7-24-1-35.6-.2q-4.2 0-8.4.9l-1.2.2q-18.1.7-36.3 1a6 6 0 0 0-3.5-.1A58 58 0 0 0 298 13h-7.8l-1.2.4a164 164 0 0 0-19.8 0q-9.2-.5-18.5-.3-3.1-.3-6.4-.1a812 812 0 0 0-39-1.6c-5.6-.4-12-1-17.4-.2-2.4-1.3-7.8-.7-10.6-.9q-8.2-.3-16.5.2-5.2-.4-10.6-.1zM101.3 81c-14.4.1-17.7 27.1-18.5 37.9q-.7 1.4-.6 3l-.5 11q-.4.8-.4 2-.1 1.2.5 2.4C80.6 140 81 146 81 149a25 25 0 0 0 0 5.2 140 140 0 0 0 0 15.8q0 10.7.5 21.4-.6 1.5 0 3-.5 5 .3 9.9-.1 4.4.1 8.7 0 5.3.6 10.4-.5 3 .2 5.7 0 5.1.3 10.1-.1 3 .2 6 0 5 .5 9.9l.2 6.2.2 10.8v6q0 5.6.2 11c.2.8-.5 3.6.3 4q-.7 5-.6 10l-.2 2q-.9 5-1 10l.1 2q.3 10.5.2 21-.5 3 0 6.2v14.9q-.4 5 0 10v1q-.3 4.4-.1 8.7v45.4l.2 32.8q-.6 5.1 0 10.3l-.2 1.4v8.8q0 .9.7 1.2l.3 1.3c-.3 2.4 1 6.8 3 8.2q0 1.4 1.1 1.6c0 2 6 6.5 8.1 6.4-.1 1.3 4.9 2.3 5.9 1.8q0 .6.4.7 7.5 2 15.4 1.4 4.5.6 8.8 0l1.2-.2q9.6 0 19.2-1 3.3.4 6.5-.2 4.8.4 9.8.4c1.5-.9.8-4.8.4-6.2l.2-1a109 109 0 0 0 0-15q.4-2 0-3.9.4-6.4.2-13c0-.9.3-3.4-1.3-3.1q1-1 1-2.3a3749 3749 0 0 0-.2-108l.1-2.4V343c5.1-21.6 22.3-23.7 41.4-24.2h3.3a892 892 0 0 0 98.8 1.2c26.5.5 69.5-7 93.4 3.8q1.5 1.5 3.4 2.6c2.8 2.1 4.4 5.3 6.6 7.9l.3.9q0 1 .5 1.7.1 1.6 1.6 2.5c-.2 2.3.6 5 1.6 7l.4 1.7a420 420 0 0 1 2 26 8132 8132 0 0 1-1.1 124.4q.4.9 1.3.7l6.8-.4q4.8.2 9.4-.1h1.2q8.3 1.3 16.5 1.3 5.3.9 10.4.8c15 .5 33.5-3 35-21l.1-2.5q.5-7.1.5-14.2l-.1-3.9q.3-11.7-.1-23.5.6-2 .5-4.3 0-1.6-1.6-1.3c2.3-2 1.3-5.6 1.5-8.3 1-.6-.8-3.3-.5-3.9.6-1.8 1-5-.2-6.6 1-2.3 1-9 .2-11.5q1-2.8.1-5.7.8-5.7 0-11.4.6-2.2 0-4.6.3-10.6 0-21.4.3-1.8 0-3.7c.1-3.1.7-8.4-.4-11.2v-.4c1.1-2.9.3-8 .5-11.2l-.2-16.4v-2.4q.5-4.8-1.2-9.2l.3-1.2v-3a201 201 0 0 1-.4-15.7l.2-11.5q.3-2.4.2-4.7c0-3.5 1.5-9 .6-12.3l.1-1.8a31 31 0 0 0 .9-12 36 36 0 0 0 1-10.2q.2-1.2.1-2.4l.9-10.4v-22.1q-.2-.6-.7-1c.6-2.2-.2-6.5-.3-9q.2-1.2-.8-1.9.2-4.6-1.1-9.2l-.8-3.9a60 60 0 0 0-3.3-9q-.8-3-2.3-5.7c-.8-1.9-3.5-7.6-5.1-8.5a17 17 0 0 0-4.9-6.4 25 25 0 0 0-6.5-6.6q-1-1.6-2.6-2.5l-11-11c-3.1-3.4-9-10.6-12.6-13.2q-.1-.6-.9-.8c0-1.3-5.5-7.4-7.2-6.8q.3-.8 0-1.4a53 53 0 0 0-9.7-8 38 38 0 0 0-8.8-5.9c-1.4-.8-4.9-3.6-5.4-.6q-.3 2.3-.3 4.7-.6 5.4 0 10.7-.4 2 0 4 0 10.7 1 21.3v.8q.2 11.3.9 22.4-.5 2.1 0 4.4-.2 6.8-1.4 13.3l.2 2c-1.3 2-2.7 5.3-3 7.7a5 5 0 0 0-2.2 3.3 40 40 0 0 1-22.8 12.8q-2.2 0-4.3.5-12.3.8-24.6.5-2.1-1.2-4.4-.6-3-.5-5.8.2-1 0-2-.4-.4-1-1.5-.8-6.2-.1-12.4-.7-4.5-.5-9-.5-8-.3-16-.2-4.5-.5-9.2-.5l-10.8.5q-4.5-.1-9 .3-12.4 0-25 1a13 13 0 0 0-6.2.6c-23.5.7-44.6 5.5-67.8-1.5-.3-1.6-3.7-3.2-5-4.2q-1.2-1.9-3-3l-3.4-6q-3-9-5-18a403 403 0 0 1-.7-53.2 312 312 0 0 0 1-17.7c-.2-1.4 1.1-5.4-.5-6q-4.8-.3-9.5 0-2.5-.3-5.1-.1l-20.9-.7a163 163 0 0 0-26.8.7ZM373 84.1l-.3 1.9q.3 20.4 1.3 41l-.2 3c-.6 18-7.5 29.3-27.2 27.6a133 133 0 0 1-26.5-5.4c-2.7-11-2.2-22-2.5-33.2v-3q.6-13.5.2-26.9v-1c.2-1.5.8-6.2-.5-7q-3.6-.5-7.3 0-2.5-.4-4.9-.2l-35 .1q-6.1-.3-12.2 0a390 390 0 0 0-20 0q-8.5-.2-17 0a256 256 0 0 0-16 0 480 480 0 0 0-26.1-.1c-2.5-.7-2.4 2.3-2 3.8a1 1 0 0 0-.5.9l-.4 14.6c-.1.8-1.3 2.5-.4 3a442 442 0 0 0-.7 31.7q0 10.3 1.2 20.5 0 .6.6.8l.1.8a20 20 0 0 0 2.2 10.1l.2.9q1 4.5 3.8 8 .1.8.7 1.2 3 3.9 7.3 6.3a31 31 0 0 0 12.2 3.4q6.3 1.5 12.7.7 3.5.5 7 0l14.3-.8q4.8-.2 9.8-.8 9-.5 17.9-1.2l16.3-.9 20.8-.5q8.4.2 16.9 0 3.5.6 7 .3l28 1.3q8.5.2 17-.1 6 .5 12 .1h12.6q.9 0 1.4-.6a72 72 0 0 0 7.9-34.3q.3-6-.2-12v-3.2l-1.6-21v-4c-.1-.8.2-2.8-1-2.8 1.4-2 .4-8.8.1-11.3q.4-1.5.2-3c.8.1 0-.8 0-1q.9-5 .6-10.1c.2-1.5-2.2-.8-3-.8q-9-.8-18.2 0-1.5-.3-3 0-.2-.7-1.1-.6c-3.4 1-5.1-1.1-4.5 3.8Zm-43.5 48.1c.5 3.8 1 10.6 3.6 13.6q.4 2.5 2 4.5c.8 1 2.6.6 3.8.7q10.1 0 20.2-.3c1.9-1.4 1.6-10.3 1.6-12.7V82.6q.2-1-.8-1.7h-8l-19.5-.2q-1 0-1.6.8l-.2 19.8a277 277 0 0 0-1.1 30.9Zm-126.7 197a59 59 0 0 0-15 3c-13.5 3.4-10.6 10.2-11 21.7q-.3 3-.1 6a155 155 0 0 0 0 15.2q-.2 5.5 0 11.1 0 4.4.2 8.6-.3 5.7-.1 11.2l.1 7.9a180 180 0 0 0 0 13.2 203 203 0 0 0 0 13v16.4c.7 2 6.5.2 8.1.3q3.5 1.3 7 .1 1 .1 1.8-.4a3.4 3.4 0 0 0 4.2.6q7.8.6 15.8.2a4 4 0 0 0 3.8 0c2.2-.2 5.3.8 7-1q0 .6.7.9c2.7.2 14 .8 16.5-.7 2.1 1.4 10.6 1.5 13 .6a53 53 0 0 0 17-.5c2.8 1.4 11.4.4 15 1q1.2 0 1.8-1.4.4 1.2 1.6 1.2c10.6-.2 22.2.5 32.6-.6 2.5.4 10.3 1.8 12.1.5 2-.7 2.8-2.5 5-2-.3.8-1.4 2 .4 2.2q8.3 0 16.5-.4 7.5.6 15.1 0c4.6.3 13.9 1 17.9-.5q2.6 1.7 4.8-.5.3 1.3 1.7 1.3c1.4-.3 6 .8 6.6-1a233 233 0 0 1-1-20.2q1-8 1-16.3.3-3.5.2-6.9a613 613 0 0 0 1.8-32 173 173 0 0 0-.2-17.2q0-5.4-.8-10.7 0-2.1-.7-4.1-.4-4.6-2.3-9-.9-3.3-3-6-2.2-3.2-5.7-4.8-12.2.2-24.2.7c-2.3-.1-2.9-1-5 0a143 143 0 0 0-20-.7q-8.7-.5-17.2-.3c-1-1-11.8-.8-13.8-.8l-16-.4q-8.4-.7-17-.6a402 402 0 0 0-23.1-.2q-8.4-.3-17 .2-8-.3-16 .3-10 .4-20 1.7Zm29.2 34.7h2a773 773 0 0 0 32.8-.2c28.3.3 56.8-.2 85 1.2l5 .5q2 .4 3.8 1c-3 2-8 1.7-11.5 2.7H345c-.6 0-2-.4-2 .6-37.8-1-75.6 2.2-113.3 0-2.1-.4-10.7.1-10.5-3 3.3-3.3 8.6-2.4 12.9-2.8Zm25 50.8q2.3.3 4.7 0c32 .5 64-.4 95.9 1.7q.5.5 1.1.4 1.1 0 2 .8-1 .9-2.3 1.2a194 194 0 0 1-25.6 2.2 553 553 0 0 0-30 .4 399 399 0 0 0-28.9.5h-30c-1-.4-32.6-.3-23.6-5 7-3.3 27.9-1.2 36.6-2.2Zm-67 84.8 1.1-.5q17 .6 34 .7.6-.2.8-.8a63 63 0 0 0 15.2.3c4.6-.3 17.3 1 21 0l1-.2c5 0 15.6 1.1 20 .4l1-.5c3.3.1 21 1.5 22.8.5l1.2-.4c2.5.9 30 1.3 32.1.3 5-.4 18 1 21.9 0l1-.3c2.7 1 14.3.6 17.1-.2q3 1.1 6.4.4 3.7.5 7.6 0l7.4.2q1 0 1.5-.9.3-16.5 0-33c0-1.8-1.8-1.5-3-1.2q-2.6-.6-5-.2-2.7-.2-5.2.3a150 150 0 0 0-18-.2q-2.2-.3-4.6 0a7 7 0 0 0-3.5.2 567 567 0 0 0-24.9-.2 960 960 0 0 0-37.6 0 108 108 0 0 0-13.4.1 1267 1267 0 0 0-42 0 287 287 0 0 0-22-.2h-45.4q-.8 0-1.3.6a827 827 0 0 0-.1 33.7q.3 1 1.2 1c3 .3 9 .9 11.7 0Z"/><path fill="#a08763" fill-opacity=".4" stroke="#a08763" stroke-opacity=".4" stroke-width=".5" d="M88 367.2q-.7.7-1.8.8.6-1 1.7-.8Zm-1.8.8q-.3.7-1 .6.2-.7 1-.7Z"/><path fill="#f2af15" fill-opacity=".2" d="M386 42q-.3 1-1.3.7zm-22.7 1.3-1.2.8q.2-1 1.2-.8m14.6 3.6q-.2 1-1.2.8z"/><path fill="#e6a91f" fill-opacity=".7" d="m164 342.9-.1 1.3q-1 .6-2.2.9l.2-.9q.5-1.6 2-1.3"/><path fill="#6179ce" d="M183 176h2.1a2 2 0 0 1-1.4 1.2q-.6-.4-.7-1.1"/><path fill="#c09644" fill-opacity=".6" stroke="#c09644" stroke-opacity=".6" stroke-width=".5" d="M181.7 316.2q0 .9-.8.6zm-.8.6q-.1.7-.8 1z"/><path fill="#abb1d3" d="M411.6 336.8q1.7.6 1.6 2.5a3 3 0 0 1-1.6-2.5"/><path fill="#f2b016" fill-opacity=".2" d="M370 52q-.2 1.1-1.3.7zm-32.7 6.3-1.2.8q0-1 1.2-.8"/><path fill="#f2ae13" fill-opacity=".6" d="m356 12.2 1.3-.2q-.6 1-1.7 1zm20.1 70.1q-.5.5-1 .3z"/><path fill="#4d6ace" d="M221 453.8q-.6 1.5-2.1 1.3.8-1.1 2-1.3"/><path fill="#5b76d5" d="M226 451a2 2 0 0 1-2 1.2q.5-1.2 2-1.3"/><path fill="#f1ae14" fill-opacity=".2" stroke="#f1ae14" stroke-opacity=".2" stroke-width=".5" d="M39 439h2c.1 1.2-1.8 1.4-2 0Z"/><path fill="#f1ae15" fill-opacity=".4" d="M386.2 21.3q-.6.6-1.6.6.7-.5 1.6-.6m-14 16.7q-.3.6-1.1.8.2-1 1.2-.8"/><path fill="#8188a7" d="M345 369.2q-.7 1.1-2 .5c0-1 1.4-.6 2-.5"/><path fill="#dea324" fill-opacity=".6" stroke="#dea324" stroke-opacity=".6" stroke-width=".5" d="M178.7 318q.2 1-.7.9z"/><path fill="#8d6e29" d="M402.3 91.7c0 .3.8 1.2 0 1.1z"/><path fill="#f2ad14" fill-opacity=".4" d="M365.3 42.1q-.6.4-1.3.6.4-.8 1.3-.6"/><path fill="#f2ae15" fill-opacity=".5" d="m15 388 1.2.4-1.3.7z"/><path fill="#ba9445" fill-opacity=".4" stroke="#ba9445" stroke-opacity=".4" stroke-width=".5" d="M183.7 315.2q0 .8-.6.6z"/><path fill="#d7a32f" fill-opacity=".4" stroke="#d7a32f" stroke-opacity=".4" stroke-width=".5" d="M186.8 313.2q0 .7-.8.6z"/><path fill="#4e5da2" fill-opacity=".2" stroke="#4e5da2" stroke-opacity=".2" stroke-width=".5" d="m83.3 369 .5.2q0 .6-.6.8z"/><path fill="#f1ac15" fill-opacity=".3" d="m396.3 24.3-1.2.7q0-1.1 1.2-.7"/><path fill="#f2ad13" fill-opacity=".3" d="m369.3 59.3-1.3.7q.3-1.1 1.3-.7"/><path fill="#cf9c35" fill-opacity=".6" stroke="#cf9c35" stroke-opacity=".6" stroke-width=".5" d="M175.7 320.3q0 .6-.6.5z"/><path fill="#f3ac12" fill-opacity=".2" d="M309.9 68.9q-.1 1-1.2.8z"/><path fill="#f2ad14" fill-opacity=".6" d="M71 243.9v1l-1.2-.2q.4-.6 1.2-.8"/><path fill="#bc9647" fill-opacity=".5" stroke="#bc9647" stroke-opacity=".5" stroke-width=".5" d="m90.9 365.1-.6.6q0-.5.6-.6Z"/><path fill="#d59b16" fill-opacity=".6" d="M18 87.1q-.4.8-1.2.9.3-.9 1.2-.9"/><path fill="#5774d8" fill-opacity=".9" d="m245 442.3 1-.2q-.3.8-1 .9z"/><path fill="#365bd1" fill-opacity=".9" d="M238 447.2q-.3.7-1 .7.3-.4 1-.7"/><path fill="#f3af13" fill-opacity=".4" d="M409.3 36q-.4.6-1.2.7.3-.7 1.2-.7"/><path fill="#f2ae13" fill-opacity=".5" d="M114 13.2h1.3q-.6.7-1.5.7z"/><path fill="#e6a920" fill-opacity=".7" stroke="#e6a920" stroke-opacity=".7" stroke-width=".5" d="m93.2 364.2-1 .7q0-.9 1-.7Z"/><path fill="#80797f" fill-opacity=".7" d="M144.2 358.8q-.2 1.2-1.3 1.3.2-1.2 1.3-1.3"/><path fill="#7a7785" fill-opacity=".4" d="M147.4 357q-.5.8-1.5 1.1.3-1 1.5-1.2"/><path fill="#5163ab" fill-opacity=".5" d="M152.4 353.9q-.6.9-1.7.8.7-.8 1.7-.8"/><path fill="#8c8073" fill-opacity=".6" stroke="#8c8073" stroke-opacity=".6" stroke-width=".5" d="M169.9 324.3q-.1.5-.7.5.2-.5.7-.5Z"/><path fill="#455cad" d="m360.7 136.9.1 1.1q-1.5-.5 0-1.1"/><path fill="#f0af14" fill-opacity=".2" stroke="#f0af14" stroke-opacity=".2" stroke-width=".5" d="m348.3 71.3-.4.7h-1q.5-.9 1.4-.7Z"/><path fill="#2c52ce" stroke="#2c52ce" stroke-width=".5" d="M421 84q4.9 2.3 9 5.8-7.6 4.2-14.6 9-.6-5.3 0-10.7c1.5-1.2 4.8-2.3 5.7-4Zm-222.9 6a5 5 0 0 1 2.1 3l-8.2 5.3q-.4.4-1 0 0-.8.7-1.2 3-3.7 6.4-7.1Zm47 1.7a6 6 0 0 1 .9 3.5l-.7.7q-8.3 4.7-16.3 9.7-1 .5-1.8-.1a413 413 0 0 1 18-13.8Zm188 .4q3.5 2.7 6.5 5.8.3.8 0 1.4-.5-.3-1-.3a89 89 0 0 0-15.5 9.7q.3.7 1.1.4l6.4-4 7.8-4.3a2 2 0 0 0 1.2-1.5c1.7-.6 7.3 5.5 7.2 6.8q-1-.1-1.8.5L416.3 124q-1-10.7-1-21.3 9-5.1 17.7-10.7Zm14.6 14.8c3.6 2.6 9.5 9.8 12.7 13.2q-21.7 13.5-43.1 27.2l-1-22.4q15.9-8.7 31.4-18Zm-44.7 3v4c-5.8 2.2-22.2 12.7-29 16.1q-.1-1.5.1-3a91 91 0 0 1 7.2-4.9q1.3 0 1.5-1.2a2 2 0 0 0 1.6-.7q1.3 0 1.3-1.2c3.2-.2 13.6-7.5 17.3-9Zm-228.1 25q-.3-3-.2-6 10-5.3 19.7-11l5.6-3.6q1-.5 1.7.3l-25.2 19.5q-.7.6-1.6.8ZM317.7 116v3a78 78 0 0 0-9.6 5.7l-2.2.4q0-.7.5-1 5.9-3.8 11.3-8Zm147.2 8.7 6.4 6.4q-27.8 16.8-55.4 34 1.2-6.8 1.4-13.4c1.5.1 42.4-24.3 47.6-27Zm9 8.9a25 25 0 0 1 6.5 6.6l-1.1 1-1.7.7-1.7 1-1.2.8q-2 1-3.4 2.5l-1.6.8-3 1.7q-2 1.2-3.6 2.5l-1.4.7-1.8 1-1.2.8a22 22 0 0 0-3.5 2.5l-1.5.7-3 1.8q-2 1-3.5 2.6-.9.2-1.6.7l-1.7 1-1.2.7q-2 1.1-3.6 2.5l-1.5.8-1.7 1-1.2.7q-1.9 1-3.5 2.6-.8 0-1.5.6l-1.8 1-1.2.8q-1.9 1-3.5 2.6-.8 0-1.5.6t-1.8 1l-1.2.8a17 17 0 0 0-3.5 2.6q-.8.1-1.5.7l-3 1.7-3.6 2.6q-.8.2-1.3.6l-1.9 1-1.2.8a23 23 0 0 0-3.6 2.6l-1.5.6-1.6 1-1.3.8q-2 1.2-3.6 2.6-.8.2-1.4.6l-1.7 1-1.3.8-3 2-.8.6-1.2.7-1.7 1-1.2.8-3.9 2.4-1.2.7-3 1.8-3 2-.6.6q-.9 0-1.4.6-.9.7-1.9 1l-1.2 1-3 1.8-.6.5-1.3.8a42 42 0 0 0-6 3.7q-2 1.4-4 2.3l-1 1a12 12 0 0 0-3 1.7q-1.9 1.3-4 2.3l-1 .9-3 1.8q-2 1.5-4 2.4l-2.8 1.9q-.6.2-1.2.7-1.8 1.4-3.7 2.6l-25.8 15.4q-1.3.6-2.2 1.8c1.7 1 4-1.8 5.5-2.5l23.6-13.4.8-.9q.9 0 1.4-.7l5-2.7.8-.6 1.2-.6 3-1.7.7-.3 1.3-.8 5-3 .7-.6q.8 0 1.3-.6l5-2.8.7-.5 1.4-.7 5-2.8.7-.5 1.2-.7 3.7-2 1.3-.8 5-3 .7-.6q.8-.1 1.3-.5l5-3 .7-.5q.7-.2 1.3-.7l5-2.7.8-.6q.7 0 1.2-.6 2-.9 3.6-2.4.8 0 1.3-.5 3-1.5 5.6-3.4l1.6-.6 5-3 .5-.4q.8-.2 1.4-.8a101 101 0 0 0 12-6.9q3-1.4 5.5-3.3.8-.2 1.5-.7l3.8-2 1.2-.8.7-.6q.8 0 1.3-.6l5-2.8a68 68 0 0 0 7-4.3l5-2.7.9-.6q.6 0 1.1-.6l5-2.8.6-.5q.8-.2 1.5-.7l4.9-2.8q2.8-1.6 5.5-3.5l1.5-.7 3.8-2 1.2-.8.7-.5 1.4-.8 3.6-2q.8-.3 1.3-.7l.8-.6 1.3-.5 1.9-1.6c1.6 1 4.3 6.6 5.1 8.5l-1.4-.2-1.3.8q-1.8 1.1-3.5 2.5-.7.2-1.5.8l-3 1.7q-2 1.2-3.6 2.5-.8.2-1.4.8a13 13 0 0 0-3 1.7l-3.5 2.5q-.8.1-1.5.7-1.9 1-3.5 2.3a61 61 0 0 0-12.5 7.5q-1.9 1-3.5 2.6-.8 0-1.4.7a15 15 0 0 0-3.1 1.7q-2 1-3.5 2.6-.8.1-1.6.7l-7 4-.9 1q-2 .8-3.5 2.3-.8.1-1.5.7l-3 1.7-3.6 2.5q-.8.2-1.4.7l-3 1.8q-1.9 1.1-3.5 2.5a2 2 0 0 0-1.4.8l-3.1 1.7q-1.8 1.3-3.9 2.3l-1.2.9-1.7 1-1.2.8-.8.6a2 2 0 0 0-1.2.6q-.8.7-2 1l-1 1.1q-1 .3-1.8.9l-1.2.8-.8.5q-.7.3-1.2.8l-1.8 1-1.2.7q-2 1.1-3.4 2.5-1 .1-1.7.7l-1.7 1-1.2.8q-2 1-3.4 2.6-.8 0-1.5.7l-3.1 1.7-4 2.4-1 .9-3 1.7-.7.6q-.8.2-1.3.6-.8.7-1.8 1l-1.2.8-2 1.6q-5.6 3-11 6.5-12 7.6-24.6 14.8c-.4.4-1.3.7-.6 1.3q1.6-.9 3.5-1.3l1.9-1.5 32.2-18.5.7-.8q.8-.2 1.4-.6 1.8-1.2 3.9-2.1l1.2-.8.7-.5 1.2-.8a51 51 0 0 0 7-4l1.9-1 1.2-.7.7-.5q.8 0 1.3-.7a66 66 0 0 0 7-4l5-2.8.6-.7q.8 0 1.5-.5l5-2.8 5-3 .6-.2 1.3-.8a42 42 0 0 1 5-3l.8-.6q.7 0 1.2-.7a101 101 0 0 0 10.7-6q.8-.3 1.3-.7l5.5-3.5q.9-.2 1.6-.8l5-2.7.7-.5 1.2-.7 5-2.8.7-.6q.8-.3 1.2-.7a59 59 0 0 0 10.6-6.2q.8-.2 1.5-.8l5-2.7.7-.5 1.3-.7 3.7-2 1.3-.8.7-.6q.8 0 1.3-.6 1.9-1 3.5-2.3l1.6-.7q2.8-1.4 5.5-3.3l1.5-.7 5-2.8.6-.6q.8 0 1.4-.6l4.9-2.8.4-.5q2 4.4 3.3 9h-1l-1.4 1q-.5 0-.9.4l-1 .7-8 4.9a12 12 0 0 0-3.5 2.5q-.8 0-1.4.6l-3.1 1.8-.8.6q-.7.2-1.3.7l-1.7 1-1.2.7-3.9 2.4-1 .8-1.9 1-1.3.8-.7.6-1.2.6-1.8 1-1.2.8-5 3q-2 1-3.4 2.6-.9 0-1.6.6l-3 1.8-.8.6q-.7 0-1.2.6l-1.8 1-1.2.8q-2 1.2-3.6 2.5l-1.5.8-3 1.7-.7.6q-.7.2-1.3.6l-1.7 1-1.2.8-4 2.4-1 .8q-.9.7-1.8 1l-1.2.8-.8.4-1.2.7-1.8 1.2-1.2.7q-1.6 1.5-3.7 2.3l-1.3.7q-1.7 1.4-3.5 2.5-2.3 1-4.3 2.2-14.2 9-28.7 17.3-1.5.6-2.2 1.8a2 2 0 0 0 2-.1q3-2.2 6-3.9 14.1-7.8 28.1-16 3-1.8 5.7-4 .9.1 1.6-.4 1.8-1.2 3.7-2l1.2-.8.8-.5 1.2-.7q1.7-1.2 3.8-2l1.2-.8.7-.5q.7-.1 1.3-.7l5-2.8 5-3 .7-.5q.7-.2 1.3-.7l5-2.8.7-.6q.8 0 1.3-.6l3.7-2 1.3-.8.6-.5q.9-.2 1.4-.8l3-1.7.7-.2 1.3-.8 5-3 .7-.5 6.3-3.5.8-.6q.6-.2 1.1-.7l5.1-2.7.8-.5 1.2-.7 3-1.8.8-.6 1.3-.6q3-1.4 5.5-3.4.8 0 1.4-.6l4.7-2.8.8-.6q1.3 4.5 1.1 9.2l-5.7 3.9-27 15.8q-2.3 1.5-4.1 2.9 1 .6 2 .1 4-2.4 7.9-5.1l27.7-15.7c.1 2.5 1 6.8.3 9q-4.5 3.2-9.2 5.5l-4.8 3.4c1.2 1.8 3.9-1.5 5.2-2a67 67 0 0 0 9.5-5.9v20.3l-11.1 6.2a72 72 0 0 0-9.6 6.4q.4.7 1.2.3l11.3-6.8 8.2-4.3-.9 10.4q-13 7.5-25.8 15.3-.7.6-.7 1.4-1.2 0-2.4.3-14.6 8.6-28.8 17.5l-3.2 1.6q-2 1.7.5 1.2 1.8-1.2 3.7-1.9c9.4-6.6 20.5-11.4 30-18l26.6-15a36 36 0 0 1-1 10.2q-13.8 8.5-27.7 16.5-1.5.9-3 2.2 1 .6 2 .1 4.2-2.5 8.1-5.2l20.7-11.5a31 31 0 0 1-1 10l-35 21.4-9.6 5.3-4 2.8q.3.6 1 .3 1.2-1 2.9-1.3c1.2-1.9 2.9-2.2 5-2.8l5.6-3.8 33.4-19 .6-1.2c.9 3.2-.5 8.8-.6 12.3-1.7-.8-3.6 1.3-5.1 2l-1.3.7q-1.9 1.1-3.6 2.6-.7 0-1.5.6l-1.7 1-1.2.8-4 2.4-1 1q-2 .7-3.6 2.2l-1.4.6q-.7.6-1.8 1l-1.2.8q-2 1-3.4 2.6-1 0-1.7.6l-1.7 1-1.2.8-.7.6q-.7.2-1.3.6-.8.6-1.7 1l-3.1 2-1.2.8-.7.5-1.4.8-3 1.7q-1.8 1.3-3.8 2.4l-1.1.8-3 1.8-.7.5-1.4.7q-.7.6-1.7 1l-1.2.8-3.6 2.5-1.4.7-3 1.8a67 67 0 0 1-6.8 4.2l-1.3.8-.8.4-1 .8-1.9 1-1.2.8-4 2.4-1 .7q-.8.8-1.8 1.2l-1.2.7-2.6 2c-.7 0-2.4-.1-2.3 1-23.9-10.7-66.9-3.3-93.4-3.8a892 892 0 0 1-98.8-1.3l2.5-1 11.5-7.4 2.6-1.2q10.4-6.3 20.5-12.8c2.3-.6 4.4-2.5 6-4-1-.7-2.6.9-3.7 1.2q-11.9 7.4-24.1 14.1-.6.9-1.5 1.3l-17.2 9.6v.3c-19 .5-36.2 2.6-41.2 24.2q-1.7-.3-2 1.3-2.2.5-3.9 1.5l-75 43.2v-10l92-58q.7 0 .6-.7 1.2-.3 2.3-1.3.9 0 .7-.9l1.4-.2q.6-.3.8-1 1 .3.8-.6l1.4-.4q.6 0 .6-.6l2.3-1.4q.9 0 .8-.6l2.3-1.4q1.1 0 1.8-.7l1-.9 1.3-.5q1.3-.2 1.4-1.4 2.8-1.6 5.3-3.7c.5.2 2.1.3 1.7-.8q1-.2 1.2-1.2c.5.1 2.2.3 1.8-.8q1 0 1.2-1c.6 0 2 .1 2-1q1.9 0 3.5-1.1l10.6-7.2 19.3-12q2.2-2 5-3l4.5-3.3 8.6-4.6c1.3-1 1.2-2 3.3-2-2-1-4 1-5.3 2.2-1.4 1-2 .2-3 2q-3.9 1.5-7.2 3.8c-1.1 1.6-3.3 2.1-5 3l-1 1q-9.6 5.5-19.4 10.7l-11.8 7q-51.2 29.3-102.2 58.9a196 196 0 0 0-14.5 9q-1-.2-1 .7l-1.3.2q-.6 0-.6.6-1.3.5-2.4 1.5-1-.2-1.7.8-.9 0-1 .6l-1.4.6-.5-.1q-.5-5-.2-10 32-19.4 64-39.2l29-17.3a15 15 0 0 1 5-3c1.1-1.9 2.8-2.4 4.7-3.2-1.9-.6-2.4.4-4 1q-3.3 2.3-6.7 4.3a925 925 0 0 0-28.8 17L83 355l.1-10.8q4.5-2 8.8-5 52.6-32.5 105.2-65.4l22-13.1a10 10 0 0 0 3-2.8c1.7.4 3.8-1.6 4.9-2.5-.8-1.3-5 1.7-4.8 2.5-2.2 0-2.5.7-4.1 1.9q-11.1 6.5-22.2 12.7L83.1 338v-21c9-4.8 17.7-10.5 26.5-16q.8 0 1.5-.4c1.2-1.7 3-2.2 4.7-3.2v-.5c.7-.2 4.2-.7 2.8-2q-2.1 0-2.7 2l-2.2.5-28.9 17-1.8.6q0-5 .9-10 6-3.3 11.7-7.1a3 3 0 0 0 2.4-1.5q-1-.7-2 0-4.7 3-9.5 5.7-1 .6-2.4.8 0-5 .5-9.9 32-19.4 63.5-39.2 11.5-6.5 22.5-13.7c2-.6 3-2.3 4.9-3.1l1.7-.4q1.8-1.5-.6-1.3l-1.8.9-26.8 16.2q-32 18-63.6 36.6-.2-5.4-.1-11 2.9-1.1 5.4-2.8l76-48.1c2.2-1.7 7-4.1 8.5-6.2q1 .3 1.8-.2 7-4.2 13.6-8.8 2.2-1.4 4.6-2.3.7-.3.8-1-1-.4-2 0a239 239 0 0 1-17 10q-1.6.8-2.7 2-44.7 25.5-89 51.4-.5-5.4-.3-10.8 36.7-22.8 73-46.3l3.7-1.8 16.7-11.1c1-.5 2.3-.2 2.6-1.4a2 2 0 0 0-2-.1q-11 6.7-22.1 13Q120 234.8 83.8 255q-.6-5-.5-9.9l62.9-40.2c4.2-2.8 9-5.2 12.9-8.4l2-.7 2.9-2.2q-1-.6-2-.2l-17 10.4-62 35.4-.3-10.2 54.5-35.2 14.8-9.3q.9-1.6 2.7-2.1c-2.1-1-2.8.7-4.3 1.6l-14.3 8.4v.2l-53.6 30.7q-.7-5.2-.6-10.3c23.4-15.7 47.6-31.6 70.2-48 1.8.3 6.7-3.8 8.2-5 1.2.5 2.4-1.4 3.2-2q2 9 5.1 18c-1.2 2.5.4 5.7 3.3 6q2 1.1 3 3 .5 4.7 5.1 4.2c23.2 7 44.3 2.2 67.8 1.5 1.7 1.6 5.2 1.8 6.3-.5q12.4-1.2 25-1.1 3 4.6 7.5 1.2a3 3 0 0 0 1.4-1.5l10.8-.5c1.5 5 6.8 4 9.2.5l16 .2c2.3 4.7 5.7 2.2 9 .5q6.2.6 12.4.7 1 0 1.4.8-2.8 1.3-5.5 3c-8 5-16 10.2-24.2 14.7q-1.3.6-2.2 1.8 1 .6 2.1 0c1-1.5 3.4-2.4 5-3l26.9-16.1q2.8-.7 5.8-.2c.8 1.4 3 .7 4.4.6q12.3.3 24.6-.5 2.4 1.7 4.3-.5a40 40 0 0 0 23-12.8q2.3-.7 2.1-3.3a25 25 0 0 1 3.1-7.8c19.1-10.5 39.2-22 57.8-33.3Zm-69.3 1.3v3.2l-7.6 4.4q-1 .6-2.1.7 0-.7.5-1.3 4.7-3.3 9.2-7ZM265 141.1q.9-.2 1.2.5l-57.9 40.1a13 13 0 0 0-5.1 5.2 31 31 0 0 1-12.2-3.4l72.4-41.8zm139.8 9v5c-1.5 0-4.9 3-6.7 3.5q-2 2-4.6 3-2 .1-.6-1.2 2.2-1.2 4-3zm-84.7 2.1q1.6.2 2.8.9a1413 1413 0 0 1-41.3 30q-.5.3-.5.8-8 .6-16.3.9 27.6-16.5 55.3-32.6Zm-39.1 9.6q0 .8-.6 1.1a1223 1223 0 0 0-31.4 20.7 6 6 0 0 0-2 2.4q-5 .6-9.9.8l35-20.2c2.8-1.2 5.8-4.8 8.9-4.8Zm73 23.3q-6 0-12-.6l29.5-17.5q1-.8 2.2-.5c-6.1 6-14.2 12.2-19.7 18.6Zm-28-1.4q-3.6.2-7.1-.2l25-15q1-.5 2 0-.1.7-.8 1c-5.7 2.5-14 10.2-19.2 14.2Zm64.3-9.9c-.6 3-6.3 7.6-7.5 11.2q-6 .4-12-.1c1.7-1.7 17.2-11 19.5-11ZM235 177q-.4.8-1.2 1.3-4.5 3-9.2 5.8-1.5 1.4-1.6 3.6-3.6.4-7.1 0l17-10.4q1-.5 2.1-.3Zm-69.3 15q.8 0 1.2-.5-.8-.4-1.2.5ZM496 270.8q0 5.8-.2 11.5-1.6-.2-2.7.8a41 41 0 0 0-4.8 3.2l-1.6.7-1.7 1-1.2.8q-2 1-3.4 2.5-.9.2-1.6.7l-3 1.8a20 20 0 0 0-3.5 2.5q-.8.1-1.5.7l-3 1.8-8 5-.7.6-1.3.6-1.8 1-1.2.8q-1.9 1-3.5 2.5-.8.1-1.6.7l-3 1.8a21 21 0 0 1-3.9 2.3l-1 1-3 1.7-.8.5q-.8.2-1.3.7l-6 3.8-.8.6q-.6 0-1 .6l-1.9 1-1.2.8-3.6 2.5a3 3 0 0 0-1.4.7l-1.8 1-1.2.8Q416 331 414 332l-1.2.7-2 1.5c-2.2-2.6-3.8-5.8-6.6-7.9q.4-.2.6-.8-.3-1.1 0-2.3l1-.5q.8 0 1.5-.5 1.8-1.3 3.7-2.2.8-.3 1.3-.7 1.7-1.5 3.8-2.2l1.3-.8 2-1.3 5-2.7.6-.5 1.4-.7 5-2.8a40 40 0 0 1 7-4l5-3 .8-.6q.6 0 1.1-.6l12-6.8.6-.6q.8 0 1.4-.6l5-2.8q3-1.7 5.6-3.5.8 0 1.4-.7 3-1.4 5.4-3.4a44 44 0 0 0 19.1-11Zm-.2 16q0 5.6.3 11.3-1-.2-2 .3a9423 9423 0 0 1-77 47.5q-1 .4-2.2.4c-1-2-1.8-4.6-1.6-7q.1-1.7-1.6-2.4-.5-.7-.5-1.7c1.2.5 3.7-1.7 5-2l1.2-.8.8-.6 1-.5q2-1.2 4-2.1a6 6 0 0 0 1.8-1.4q.8-.2 1.4-.7l5-2.7a60 60 0 0 1 7-4l5-3 .5-.6 1.6-.6 5-2.8.7-.5 1.2-.8 5-2.7.7-.5q.8-.2 1.4-.7l1.7-1 1.2-.8.7-.5q.8 0 1.3-.8a42 42 0 0 0 7-3.9l3.7-2 1.3-.8.6-.6q.8-.1 1.5-.7l5-2.7.5-.6q.8-.1 1.4-.6 1.8-1 3.6-2.3.8-.1 1.4-.7 3-1.3 5.4-3.4ZM223 327.4q8-.6 16-.3a25 25 0 0 1-5 3.4L200.5 350q-.6-.8.3-1.5 11.3-10.3 22.2-21Zm32.9-.5h6.1q-.3 1-1.1 1.4l-19 11.2q-1 .6-1.9 0c.4-1.7 14.2-9.1 15.9-12.6Zm23.1.2q8.5 0 17 .6l-60.8 35q-.9.4-1.3 1.1h-2l.5-.7 40.4-30.7q3.3-2.4 6.2-5.3Zm33 1c2 0 12.9-.2 13.8.8a2733 2733 0 0 1-57.9 33.7 2 2 0 0 0-1 1h-4zm-109.2 1q-9 5.7-18.4 10.6-.6-.7 0-1.7l3.4-5.8a59 59 0 0 1 15-3Zm140.1.1a19 19 0 0 1 4 0q0 .5-.4.7-11 6-21.6 12.7-1 .4-2.1.4.4-1.2 1.6-2 9.6-5.5 18.5-11.8Zm25 .7q-.2.9-1 1.4a958 958 0 0 0-28 16.4q-1 .4-2 .4 0-1 1-1.6 12-7.4 24-15.2.8-.6 1.1-1.4c2.1-1 2.7-.1 5 0Zm129.2.2c-.2 3.1.7 8.3-.6 11.2q-1-.5-1.7.1a479 479 0 0 1-21.8 13.2q-.6.3-.9 1 .4.6 1 .3a5 5 0 0 1 2.8-1.3q9.6-6 19.6-11.4 1-.6 1-1.5c1.2 2.8.6 8.1.6 11.2-4.5.6-31.6 19.4-37.5 23.1L438 389.4q-1.5 1-2.9 2.2l.3.3a36 36 0 0 0 10.3-5.7l15-8.5q18-10.7 36.2-21 .4 10.6.2 21.3-1.2 0-2.3.5a4037 4037 0 0 1-59.7 39q.8.7 1.9.2 8.3-5.4 17-10.1.7-.9 1.5-1.4 20.9-11.6 41.4-23.6.9 5.7.2 11.4-1.3 0-2.2.6L452.7 423l-14.7 9.4q-.7.3-.9 1 1 .4 2 0 7.2-4.8 14.6-8.8 21.6-12.6 43.3-25c.7 2.4.9 9.2-.2 11.5q-.7 0-1.5.5l-50.9 35.7q.3.5.8.2 1.3-.9 2.8-1.2l49-28.6c-.3.6 1.5 3.3.5 4-.2 2.6.8 6.2-1.5 8.2a812 812 0 0 0-31.5 23.2 33 33 0 0 1-5.1 3.2c1.4 1.6 2.7-1 4-1.5l33.7-19.3q.4 11.8 0 23.5-1 0-2 .6l-12.8 10.7q.7.6 1.7.3a182 182 0 0 1 13.3-7.7q0 7.1-.5 14.2l-6.5 6.2q.9.6 1.7 0c1.2-1.3 4.3-2 4.6-3.8-1.4 18.2-20 21.6-34.9 21q8.3-7.7 15.9-16-.3-.5-1-.3-12 7.4-24.3 14.3-1 .3-1 1.3-8.3 0-16.5-1.3l.4-.6q12-9.5 23.5-19.4c-1-1.4-2.4 1.2-3.2 1.6q-15.3 8.5-30.5 17.4-.8.3-.8 1l-6.7.5q-1 .1-1.4-.7-.1-10.8.1-21.7.9.2 1.8-.4 5-3.9 10.3-7.5a5 5 0 0 1 3.8-2.3q.6-.2.7-.8c-1.6-1.3-3.5 1-4.6 2q-5.3 2.7-10.3 5.7a6 6 0 0 0-1.5 2q.8-50.7.9-101.3 2-.9 3.7-2.1-.1 1.5 1.3 1.1zm-99.2 3.8q2.1 3 3 6.2-22.3 12.2-44 25.3l-5-.5q22.8-15.6 46-31Zm-234.2 12.8a265 265 0 0 0 0 14.6q-2.8 1-5.4 2.6-12.7 7.2-25.3 14.7L83 407v-10l44.8-27.6q1-.5 1-1.4 1.2 0 2-.6 5.8-3.3 11.2-7.2l.8-.1q1.1-.1 1.3-1.3 1 0 1.7-.7 1-.3 1.5-1.2a12 12 0 0 0 3.3-2.2q1 0 1.7-.8c3.7-2 8.2-4.6 11.4-7.2Zm13 13.2q-.1-3 .1-6c3.6-.9 6.3-3.4 9.6-4.8 1-.4 2.1-2.8 3.2-1.5L178.3 359q-.7.7-1.5 1Zm226.5-11q.7 2.1.7 4.2-15 8.8-30.3 17.2-.9-.4-.8-1.3zm-239.2 14q.6 45.9 0 91.8 0 1.4-1 2.3l-65.7 37.8q-1 .5-1 1.5c-2.1.1-8.2-4.4-8-6.4l45.7-27.1 4.8-3.3q-1.5-.5-2.7.3l-13 8-36 20.5c-2-1.4-3.3-5.8-3-8.2a329 329 0 0 0 26-15.6q2-1 4-1.7 1.5-1 2.8-2.2a2 2 0 0 0-2-.2l-31 18.4q-.9-.3-.7-1.2-.3-4.5-.1-8.8 1.5-.3 3-1.3 6.8-4.5 14.1-8.4 16.4-9.7 32.5-19.9 1.5-1 3.4-1.6l3.4-2.5 1.6-.5q.9-1.5 2.7-2-1-.6-2-.2-4.3 3-8.8 5.5l-34 19.6-.8.9-13 7.3-1.7 1.6q-.7-5.1-.1-10.3a536 536 0 0 0 18.7-11.6q-1-.7-2 0a89 89 0 0 0-8.1 5q-.7.4-1.6.5-3.3 2.5-7.1 4.1l-.1-30.8q5.8-3 11-6.6c5-1.8 8.3-6.1 13.3-8l1.4-1.3q3.8-1.4 6.8-3.8-.9-.4-1.9-.2c-9 5.9-18.3 10.8-27.5 16.5q-1.4 1-3.2 1.1v-9.8q3-1.2 5.7-3l45.9-28.1q.3-.7 0-1.3 1.3.4 2.4-.2zm13 32q-.3-4.2-.2-8.6c12-5.8 26.5-14.7 38.2-21.8q.9-.5 1.8.1 0 .7-.7 1c-12.7 7.1-27.1 20.3-39.1 29.3Zm227.8-31q.3 3 .2 6.3-23 13-46 26.4-1 .5-2.2.7a3 3 0 0 1 1.2-1.6c15-10 31.8-22.6 46.8-31.8Zm-59.8 5.4q2.1-.3 4.2-.1-.4.8-1.2 1.2-7.7 4.3-15.3 9-1.4.7-2.9 1 .2-1.1 1-1.8l11-7q.8-.8 1.2-1.8 1.3.6 2-.5ZM227.1 378l-1.8 1.8-48.3 34.1-.1-7.9q4-1.8 7.6-4c8.4-4.4 36.3-21.7 42.6-24Zm48 27q-.5 1.2-1.6 2-5.4 3-10.6 6.5-.7.4-1 1.2-2.5.3-4.9 0 8.2-4.2 16-9.4a5 5 0 0 1 2.2-.3Zm128.1 8-.2 7a776 776 0 0 0-21.7 12.6q-1.8 0-.3-1.1c7-4.9 15.2-13.1 22.2-18.5ZM303 421.4q1.5-.4 2.8 0l-47.6 32.8q.6-3.7-2.4-5.7zm29.9-.4h3.2q-18.5 14.2-37.1 28c-.3-1.3-2.3-.6-3-.3l-11.7 6.3c-1-.8-.2-4-.5-5.3l47.9-27.5q.8-.3 1.2-1.2ZM195 428q-.8 1.5-2.4 2.3-7.8 5.1-15.7 9.8l.1-2.9q1-.2 2-.7l13.9-8q1-.5 2.1-.5Zm145 27.3c-2.3-.5-3.1 1.3-5 2-2.4-.1-4.1-.4-1.4-2.1q1.9-2.4.1-4.8 17.3-9.6 34.2-20 1-.4 1.6.3-13.5 11.1-26.7 22.8a12 12 0 0 1-2.9 1.8Zm62-19.1q.3 1.9 0 3.8-2.3.8-4.5 2-.4-.5 0-1 2.2-2.6 4.5-4.8Zm-25.8 16c-.1-2.9-2-3.6-4.5-4.4q7.3-4 14.2-8.5a2 2 0 0 1 1.6.2q-5.9 6.1-11.3 12.7Zm-212 7.9q.1 6.5-.2 12.9-1.1 0-2.1.6l-43.1 24.9q-.9.6-.9 1.6-7.8.6-15.4-1.4l-.4-.7zm81.7 4.2q2.1-.4 4.2 0-4.7 3.3-9.6 5.8c-.9-.6-.2-1.2.3-1.7q3-1.6 5-4Zm46.3-.2h9q-11.6 7-23 13.6c-1.5.7-1.4-.7-.5-1.4l12.3-11q1.3 0 2.2-1.2Zm97.6.3q2.5-.4 5.1-.3c.2 1.1 2.1 1 3 1.2a498 498 0 0 1-20.7 12.4c-1.4.8-1.5-.6-.5-1.4q7-5.5 13-12Zm-225.7 12.5q.3 6 0 12.2c-2 0-16.6 8.4-17 9.8q-9.6 1-19.2 1l.3-.7zm76.9 22.3a63 63 0 0 1-15.2-.3q.2-.5.7-.8 18-10 35.8-20.2.4.6 0 1c-6.8 7-14.7 13.2-21.3 20.2Zm99.1.1h-11.8a3 3 0 0 1-2.2-.8l33.7-20c1.6-1 2.7-.4 1.2 1.1-4.9 4.7-17.5 15-20.9 19.7Zm-149-.3-1.2.5c-1.5-.7-5.9.5-6.8-1q9.7-5.9 19.6-11.4.7-.4 1.1.3c-2 3.2-11.9 9-12.8 11.6Zm117 0-1.3.4-4.4-.2q-.8-.2-1.3-.8 9.9-5.5 19.4-11.5 1.9.3.5 1.6l-2.6 1.6c-1.5 1.6-10 7.3-10.4 8.9Zm54.8 0-1 .3c-1-.4-3 .3-3.7-.8q3-2 6.2-3.5c1.4-.8 3.5-3.8 5.1-2.3a68 68 0 0 1-5.8 4.7q-.7.6-.8 1.6Zm33.8-7.2c.7 1.4-2.7 5.5-2.6 7.4q-3.8.4-7.6 0zM163 493l.8-.2c.4 1.4 1.1 5.3-.4 6.2q-5 0-9.8-.4 4.8-2.6 9.4-5.6Zm121 5.8-1 .5q-1.5 0-2.9-1 3.9-2 7.4-4.5 1.4 0 1 1.2c-.9.6-4.7 2.5-4.5 3.8Z"/><path fill="#7f7980" d="M222.2 258c-.2-1 4-3.9 4.8-2.7-1.1 1-3.2 3-4.8 2.6m-106.3 39q.6-2.2 2.7-2c1.4 1.2-2 1.7-2.7 2"/><path fill="#847b7b" d="M165.7 192q.4-.8 1.2-.5-.5.5-1.2.5"/><path fill="#c0c5e8" fill-opacity=".8" d="M403.1 322.6q.7.8 1.8.6-.4 1.1 0 2.3-.3.5-.7.8l-3.4-2.6c-.1-1.1 1.6-1 2.3-1"/><path fill="#9ba2c8" d="M254.2 190.2c-1.1 2.3-4.6 2.1-6.3.5q3-1 6.3-.5"/><path fill="#c4c6e2" d="M175 185c1.4 1 4.8 2.6 5.2 4.2q-4.7.5-5.1-4.2"/><path fill="#e0e0f9" stroke="#e0e0f9" stroke-width=".5" d="M186.9 81q9-.2 18.2 0l-7 9-6.4 7q-.6.6-.7 1.4.6.3 1-.1l8.2-5.2A220 220 0 0 0 221 81q8.4-.2 17 0-.8 1-1.4 2.2-1.8-.5-2.4 1.4c.6.5 3.2-.5 2.4-1.4q2.6-.3 4.3-2.2 8.5-.2 17.1 0c-.9 1.8-10.9 8.3-12.8 10.7a413 413 0 0 0-18 13.8q.9.6 1.8.1l16.3-9.7.7-.7c2.5-1 22.9-12.4 24.1-14.2h35.1q-.4.8-1.2 1.4-8.6 6-17.5 11.6l-.6 1q-2 0-3 1.7c.9.7 3.2-.4 3-1.7 2.2.2 2.4-.7 4-1.8l19-10.9q.7-.4 1.2-1.2 3.6-.4 7.3 0c1.3.8.7 5.5.6 7q-.5.2-.7.6c-1-.1-6.6 2.5-4.9 3.4 1.2-.1 4.8-2 4.9-3.4l.6.4q.3 13.5-.2 27-5.4 4.1-11.3 8-.5.3-.5 1-2-.2-2.8 1.5c.6 1 3.2-.5 2.8-1.5q1.2 0 2.2-.4 4.5-3.2 9.6-5.7c.3 11.2-.2 22.3 2.5 33.2q-27.8 16.1-55.3 32.6-9 .8-18 1.2a6 6 0 0 1 2-2.4q15.8-10.6 31.5-20.6.6-.4.6-1.2c.9.4 3.7-.8 2.6-1.7q-1.8 0-2.6 1.7c-3 0-6 3.6-9 4.9q-17.5 9.9-34.8 20.1-7.2.3-14.2.9 0-2.1 1.6-3.6 4.8-2.7 9.2-5.8.9-.5 1.2-1.3c1.1 0 3-.1 3-1.6-1-.9-2.8.4-3 1.6q-1 0-2 .3l-17.1 10.3q-6.4.7-12.7-.7 1.8-3.3 5.1-5.2l58-40c2-1.2 4.2-2.4 5.5-4.3q-.9-.5-1.8.2c-1 1.1-4.4 2.1-5 3.5l-1.6.6-72.4 41.8a22 22 0 0 1-7.3-6.3 2 2 0 0 0 1.4-1.2c.6.2 2.6-.4 1.4-1.2q-1.3 0-1.4 1.2h-2q-3-3.5-3.9-8a3 3 0 0 0 1.8-.5l6-4.2c-.6-1-1.3-.3-2 0l-6 3.8a20 20 0 0 1-2.2-10q1.2 0 2.3-.5 7.4-5.2 14.7-10-.8-.7-1.8-.3-7 4.6-14.5 8.8-.6.4-.8 1-.4 0-.6-.7-1.2-10.2-1.2-20.5.9-.2 1.6-.8l25.2-19.5q-.7-.7-1.7-.3l-5.6 3.7q-9.7 5.7-19.7 11 0-13 .9-25.8 1.2-1.5 2.3-3.3 2.6-2.4 4.8-5.3a1 1 0 0 0-1-.1Q179 96 176 97q0-5.7.5-11.5 0-.6.5-.9l1.1.2a2 2 0 0 0 2 .4c1.3-.9 6.5-3 6.9-4.4ZM352 81h8q0 2.9-.9 5.6l-15.1 9q-.9.5-1.8 0 4.2-6.5 9-12.8zm29.7 0q9-.9 18.2 0a91 91 0 0 1-7.5 5l-.7 1.3q-1.8-.6-2.6 1.3c.6.6 3-.3 2.6-1.3l11.2-5.6a49 49 0 0 1-.6 11.1q-1.2.3-2.3.9-10.1 6.9-20.5 13.3-.4.5-.3 1c-1.1.2-3 .3-3.2 1.7.9 1.2 2.7-.8 3.2-1.6l1.9-.4q9.1-6 18.9-11.3 1-.4 2.1-.6c.3 2.5 1.3 9.3 0 11.3a112 112 0 0 0-16.4 12q-1.6-.4-1.3 1.1-1-.1-1.6.7-1.3 0-1.5 1.2-1 0-1.4 1l-5.8 3.8a1274 1274 0 0 1-1.4-41c1.8.8 8.8-3.3 9-5Zm21.3 32.8 1.6 21.1q-4.4 3.7-9.2 7a2 2 0 0 0-.5 1.3q-2-.3-2.8 1.5c.5 1 3.2-.6 2.8-1.5q1 0 2.1-.7l7.6-4.4q.5 6 .2 12l-7.9 7.3a24 24 0 0 1-4 3q-1.3 1.4.6 1.3 2.6-1.2 4.6-3.1c1.8-.5 5.2-3.6 6.6-3.5a72 72 0 0 1-7.8 29.3 2 2 0 0 1-1.4.7h-12.7c1.2-3.6 7-8.2 7.5-11.3q.5.1 1-.1 1-2-1-.8v1c-2.3 0-17.8 9.3-19.4 11q-8.5.3-17 .1c5.6-6.3 13.7-12.5 19.8-18.5q-1.2-.3-2.2.5L342 184.5l-16-.8c5.1-4 13.4-11.7 19.1-14.2q.7-.3.8-1-1-.5-2 0l-25 15-17-.1q1.5-1 2.3-2.6c1.5.7 6.4-3.3 7.6-4.3-1-1.3-7.6 3.4-7.6 4.3q-3.3 1-6.3 2.9l-16.7.2q-.1-.5.4-.8 21-14.7 41.3-30 11.8 3.3 23.8 4.5c19.7 1.7 26.6-9.5 27.2-27.6 6.9-3.4 23.3-14 29-16.2Zm-51 9.4c.7-2.3 5.4-6.6 7.5-8 3.2 3.1-5 7.9-7.5 8Zm-22.4 9c.4-1.4-.2-4.2.8-5.2l8.3-4.9q.6-.1 1 .3a41 41 0 0 1-10.1 9.8ZM339 151c-1.2-.1-3 .3-3.8-.7a9 9 0 0 1-2-4.5h1c4.4-3.2 7.5-7.1 12.8-9.5q2.8-1 1.5 1.8zm-170.3 25q1.8 3 3.3 6c-3-.3-4.5-3.5-3.3-6ZM299 188.2q4.5 0 9.2.5c-2.4 3.4-7.7 4.5-9.2-.5Zm-19.7.8q4.5-.5 9-.3a3 3 0 0 1-1.5 1.5q-4.5 3.5-7.5-1.2Zm44.9 0q4.5-.1 9 .4c-3.3 1.7-6.7 4.2-9-.5Zm-101 138.3a895 895 0 0 1-22.2 21q-.9.7-.3 1.5l33.4-19.4q2.7-1.4 5-3.4 8.6-.5 17-.2c-1.7 3.5-15.5 11-15.9 12.6q.9.6 1.9 0 9.4-5.7 19-11.2.9-.5 1.1-1.3h17q-2.9 3-6.2 5.4L232.5 363q-.4.2-.4.8c-4.3.4-9.6-.5-12.9 2.8-.2 3.1 8.4 2.6 10.4 3 37.8 2.2 75.6-1 113.4 0l-1.1 1.8-11 7q-1 .7-1.1 1.8c-1.3-.9-7.5 3.4-7.8 4.3.7 1 8.3-3.5 7.8-4.3q1.5-.3 3-1 7.4-4.7 15.2-9 .8-.5 1.2-1.2c3.6-1 8.5-.7 11.5-2.6a18 18 0 0 0-3.8-1.1q21.8-13.1 44-25.3 1.9 4.2 2.4 8.9L373 369l-11.9 7.7a3 3 0 0 0-1.3 1.5q-1.7-.2-2.6 1.4c.6.7 3-.3 2.6-1.4q.9 0 1.6-.3l12.1-7 .3-.6Q389 361.9 404 353q.9 5.2.8 10.7c-15 9.2-31.8 21.8-46.8 31.8q-.9.6-1.2 1.6c-1.3-.6-5.2 2.2-3.4 2.6.8-.1 3.8-1.5 3.4-2.6q1.2-.2 2.2-.7 23-13.4 46-26.4v11l-44 32.5q-.9.6-1.2 1.6-1.5-.3-2.1 1.2c-32-2.1-63.9-1.2-95.9-1.7q.4-.7 1.1-1.2 5.2-3.4 10.6-6.6 1-.7 1.7-1.9 2-.1 3.1-2.1 1 .3 1.6-.6c-.4-.8-2-.4-1.6.6-1 .3-3.2.5-3.1 2.1a5 5 0 0 0-2.2.3q-7.8 5.2-16 9.4c-8.7 1-29.5-1.1-36.6 2.1-9 4.8 22.7 4.7 23.6 5.2a41 41 0 0 1-5.7 3.7l-52.3 30q-.8.3-.9 1c-1.6 0-7.4 1.8-8-.2V440q7.8-4.7 15.6-9.8 1.5-.8 2.4-2.3c1.9 0 4.5-1.6 5.2-3.3 1.2.7 3.8-1.5 4.7-2.3-1-1.3-5 1.5-4.7 2.3-1.4.3-5.2 1.6-5.2 3.3q-1.1-.1-2.1.4l-14 8.2q-.9.4-1.9.6V427a230 230 0 0 0 13.9-8.9q.8-.4 1-1.5 2.4.5 3.2-1.9 1 .3 1.7-.5c-.5-1-2.1-.3-1.7.5-1 .3-3 .6-3.1 2q-1.2 0-2.2.4A232 232 0 0 1 177 425q-.3-5.5 0-11.1l48.2-34.1q1-.8 1.8-1.8c.9.2 4-1 2.4-2q-1.9.2-2.4 2c-6.3 2.4-34.3 19.6-42.6 24q-3.7 2.2-7.6 4-.1-5.5.1-11.2c12-9 26.4-22.2 39.1-29.3q.6-.3.7-1-.9-.6-1.8 0c-11.7 7-26.2 16-38.2 21.7q-.2-5.5 0-11.1 1.8-.6 3.2-1.7 2.7-1.9 5-4-.6-.3-1.4 0a53 53 0 0 1-6.8 3.6q-.3-6.5 0-13.1.9-.3 1.5-1l11.4-11.3c-1.1-1.3-2.2 1-3.2 1.5-3.3 1.4-6 4-9.6 4.8.4-11.5-2.5-18.3 11-21.7l-3.4 5.8q-.6 1 0 1.7 9.4-5 18.4-10.6 10-1.3 20.1-1.7Zm73 .3q8 0 16 .4L263 363.5q-14.4.4-28.9.2.4-.7 1.3-1zm29.8 1.2q8.5-.1 17.1.3-9 6.3-18.5 11.9-1.2.5-1.6 2-2.4-.3-3.2 2-1-.3-1.7.6c.5 1 2.1.3 1.7-.6 1-.5 3.3-.5 3.2-2q1 0 2.1-.5 10.6-6.6 21.6-12.7.3-.2.5-.7 8 0 16 .7-.3.9-1.1 1.4a794 794 0 0 1-24 15.2q-1 .6-1 1.6c-1.6-.2-4.8 1.7-5.1 3.2q-2-.6-3 1.2c.9.6 3 0 3-1.2 1.3.1 5-2 5-3.2q1.2 0 2.1-.4 13.9-8.4 28-16.4.8-.5 1-1.4 12.2-.5 24.3-.7 3.5 1.6 5.7 4.7a2923 2923 0 0 0-46 31c-28.3-1.4-56.8-1-85-1.2a2 2 0 0 1 1-1.1q29.1-16.5 57.9-33.7Zm79 61q-.7 11.7-1.7 23.1c-7 5.4-15.1 13.6-22.2 18.5q-1.5 1.2.3 1.1a776 776 0 0 1 21.7-12.7 196 196 0 0 1-1 16.3q-2.3 2.3-4.4 4.8-.5.5 0 1 2.2-1.2 4.5-2 .1 8.2.9 16.5c-.6 1.7-5.2.6-6.7 1q-1.2-.2-1.6-1.4l2-2.7c-1.7-.2-5.2 2.4-6.8 3.2-4 1.5-13.3.8-17.9.5q2-2.7 4.3-4.9 5.4-6.6 11.3-12.7a2 2 0 0 0-1.6-.2q-7 4.5-14.2 8.5c-2.7 1.9-13.6 7.3-15 9.3l-16.4.4c-1.8-.2-.7-1.3-.4-2.2q1.5-.7 3-1.8 13-11.7 26.6-22.8-.6-.8-1.6-.3-17 10.4-34.2 20l-10.9 6.4c-10.4 1-22 .4-32.6.6q-1.2 0-1.6-1.2Q294 453 299 449q18.6-13.7 37-27.8 11.3-.5 22.5-2.3 1.3-.3 2.3-1.2-.9-.8-2-.8 1-.5 1-1.6l4-1.8a1813 1813 0 0 1 41-23.4ZM350.6 401q.8 0 1.2-.5-.9-.4-1.2.5ZM303 421.4l-61 35.1c-2.5 1.5-14 1-16.6.7q-.6-.3-.7-1c1.6-1 10.2-5.5 10.1-7.3q.9 0 1.2-.7l1-.3q.7 0 1-.7 3.7-1.6 7-4.2.7-.1 1-.9c8.2-4.3 18.8-12.5 27.2-17.5 1-.5 3.5-1.5 3.6-2.8q13-.7 26.1-.4Zm2.9 0q13.5-.6 27-.4-.5.9-1.2 1.2l-59.8 34.4a53 53 0 0 1-17 .5q1.4-1.8 3.3-3zm-56 .5H274a5 5 0 0 0-1 2q-1 0-2 .5a3014 3014 0 0 1-45 26.5q-1.5 0-2 1.2-1.8.5-3 1.7-1.4.2-2.1 1.3-2.4 1.4-5 2.2-8 .4-15.8-.3 0-.5.6-.8 5.3-3.1 10.3-6.6.9-.7 1.3-1.8.9 0 1.6-.5l9.2-5.9c.9-1.3 3.6-1.6 3.7-3.2 7-3.3 18.4-11.6 25.2-16.3Z"/><path fill="#6a83dd" d="M278.4 402.9q-1 2-3.2 2.1c-.1-1.6 2-1.8 3.2-2.1"/><path fill="#6c85dd" d="M356.8 397.2c.4 1-2.6 2.5-3.4 2.6-1.8-.4 2.1-3.2 3.4-2.6"/><path fill="#6781dc" d="M322.9 343c0 1.6-2.2 1.6-3.2 2.1q.8-2.3 3.2-2m14 5.1c0 1.3-3.7 3.3-5 3.2.3-1.5 3.5-3.4 5-3.2m-7.1 32.2c.5.8-7.1 5.4-7.8 4.3.4-1 6.5-5.2 7.8-4.3m21 20.7q.2-1 1-.5-.4.5-1 .5"/><path fill="#8397e3" d="M304.2 180.8c0-.9 6.5-5.6 7.6-4.3-1.2 1-6 5-7.6 4.3"/><path fill="#788ee0" d="M235 177c.2-1.2 2-2.5 3-1.6 0 1.5-1.9 1.7-3 1.6m96.9 174.3c0 1.1-2.1 1.8-3 1.2q1-1.8 3-1.2m27.9 26.9c.3 1.1-2 2-2.7 1.4q.8-1.5 2.6-1.4"/><path fill="#6f87de" d="M185.1 176q0-1.2 1.4-1.2c1.2.8-.8 1.4-1.4 1.2m10 238.8q-.6 2.4-3 2c.2-1.4 2-1.7 3-2m5.2 10c-.3-.9 3.8-3.7 4.7-2.4-.9.8-3.5 3-4.7 2.3"/><path fill="#758bdf" d="M281 161.8a3 3 0 0 1 2.6-1.8c1 1-1.7 2.2-2.6 1.8"/><path fill="#eac16f" d="M286 95c.2 1.3-2.2 2.4-3 1.7q.9-1.7 3-1.7"/><path fill="#e5d4c0" fill-opacity=".6" d="M317.3 88.7c-.1 1.4-3.7 3.3-4.9 3.4-1.7-.9 4-3.5 4.9-3.4"/><path fill="#ebc372" d="M391.7 87.3c.3 1-2 2-2.6 1.3q.7-2 2.6-1.3"/><path fill="#eac680" d="M236.6 83.2c.8 1-1.8 2-2.4 1.4q.6-1.9 2.4-1.4"/><path fill="#6d83d2" d="M359.8 415.2q0 1.1-1 1.6-.6 0-1.1-.4.5-1.5 2.1-1.2"/><path fill="#5572d8" d="M373 369q-.2.9.7 1.3 0 .3-.3.6l-12 7-1.6.3a3 3 0 0 1 1.2-1.5zm-172.7 55.7a6 6 0 0 1-5.2 3.3c0-1.7 3.8-3 5.2-3.3"/><path fill="#4a63b8" d="M304.2 180.8q-.8 1.5-2.2 2.6-2 .5-4 .3 2.9-1.9 6.2-3"/><path fill="#627ddb" d="M306 125c.3 1-2.3 2.6-2.9 1.6a3 3 0 0 1 2.8-1.5"/><path fill="#d8ad54" d="M385.7 119q0 1.3-1.3 1.2-.2-1.5 1.3-1.2m-1.3 1.2a2 2 0 0 1-1.6.7q.6-.9 1.6-.7m-1.6.7q-.1 1.2-1.5 1.2.1-1.2 1.5-1.2m-1.5 1.2q-.5.9-1.4 1 .4-1 1.4-1"/><path fill="#e6c27b" d="M379.2 108c-.5.9-2.3 3-3.2 1.7.2-1.4 2-1.5 3.2-1.6"/><path fill="#e3dae8" fill-opacity=".2" stroke="#e3dae8" stroke-opacity=".2" stroke-width=".5" d="M318 88v1.1l-.7-.4q.2-.4.6-.7Z"/><path fill="#f2ae14" stroke="#f2ae14" stroke-width=".5" d="m150.2 10.3-35.7 25.6c-4 2.4-10.2 7.4-14.3 9q-.1.4.2.6 2.2-1.5 4.6-2 27.1-16 54.4-31.7 1-.4 1.4-1.4 8.3-.6 16.5-.2-1 1.8-2.7 2.8l-40.7 27.5a3 3 0 0 1-2.2 1.7q-8 5-15.6 10.3 1 .5 2 0 3.2-2.2 6.5-4.2 4.2-2 8.1-4.6L187 12.3q.6-.4.8-1.2c5.5-.8 12-.2 17.5.2l-24.1 16q-1 0-1.8.6-6.6 4.5-13.5 8.5-2 1.5.5 1.3 1.8-1.1 3.7-2l11.3-7q.6-.4.7-1 .9.2 1.6-.3 13.7-7.8 27.2-16 16.7.5 33.4 1.5 0 .7-.7 1c-13.6 8-26.5 17.3-40 25.2l-17.2 11c-.4.4-3.3 1-1.8 1.9 1.5.5 3.6-2.3 5-2.9l15.5-8.7c14.5-8.9 30-17.3 44.8-26q.6-.6.8-1.4 9.3 0 18.5.3a445 445 0 0 0-28 17.2q.8.6 1.9.2l5.5-3.8 13.4-7.4 10-6.2q8.4-.5 17 0l-.2.7c-22.5 13.6-44.7 28.4-67.1 42l-18 11.6c-1.2.6-4.9 1.5-4.5 3.4l-2.2 2q-48.8 0-97.4.3c-5.4.9-13.9 5.7-18 9.6q-3.6.6-3.7 4.3c-9.3 18-10.5 35.2-11 55.1a18 18 0 0 0-3.6 1.4l-45 26q-1.2.7-2.2 1.7l-1-.4c-.7-1.8-.9-8.2.2-9.9q8.4-4.6 16.4-10l1.3-.4q1.6-1 3-2.3-1-.7-2 0-8.6 5-17 10.2-1 .4-2 .5a35 35 0 0 1 0-10.4 2 2 0 0 0 1.7-.3q17.7-11.2 35.1-22.7 7.8-4.4 15.2-9.2 2.1-1.5-.3-1l-2 .9q-5.5 3.6-11.1 6.7a14 14 0 0 0-2.6 2.2c-1.8-.2-5 2.6-6.6 3.6L15 145.4q-.2-11 .1-21.7l4.5-2.5 11.2-7.4q6-3.7 12.3-7.3 1.5-1 2.7-2.2-1.1-.5-2.2.3c-4.4 3-9.6 5.1-13.6 8.6l-14.9 8a77 77 0 0 1 .2-11.5q1 .3 1.7-.2l48.8-33.1a2 2 0 0 0-2 .1q-6 3.8-11.9 7-.5.8-1.4 1.4-16.7 9.2-33.2 18.8l-2 1.6q-.5-5.8 0-11.7l1.8-.8q15.8-10.8 31.2-22c2.8-.5 2.4-3.1 5.4-3.3q-2.3-.9-3.5 1.2-1.6.7-3 2L18 87c.1-4.1 11-17 14.3-20.4C48.5 51.1 65.4 36 81 19.7c8.3-3.1 23.8-5.8 33-6.5l-.3.7C100.9 23.6 86.5 36.5 73 44.5q-1.7 1.1.3 1 .8-.6 1.3-1.3a786 786 0 0 0 57-32.9zm251 1q-1 1-2.3 1.6l-1.2.8q-2 1.2-3.6 2.6-.9 0-1.4.6l-1.7 1-1.3.8a15 15 0 0 0-3.5 2.6q-.8 0-1.6.6l-2.9 1.8a39 39 0 0 1-4.9 3.1l-3 2-3.1 2-3.6 2.4q-.8.2-1.5.7l-1.7 1-1.2.8q-2 1-3.5 2.6-.8 0-1.5.6l-1.8 1-1.2.8q-2 1.2-3.6 2.5-.8.2-1.5.8l-1.6 1a41 41 0 0 0-4.8 3.2l-1.5.8-3 1.7-4.9 3.1L332 55l-1.3.7q-.8.8-1.8 1.2l-1.2.8q-2 1.5-4 2.3l-1 1-3 1.7q-2 1-3.5 2.6-.8 0-1.5.7l-1.8 1-1.2.7L310 69l-1.2.8-.8.5-1.1.7q-.4.4-.6 1l-43.3.3 1.4-2.3q1 0 2-.3l7.2-4.8 3.4-1.5q9.8-6.3 20.2-11.8l1.5-1.4q32.4-18 64.4-36.8c.5-.7 2.9-1.2 2.7-2.2a163 163 0 0 1 35.6.2Zm10.8 3.3q5.5 2.2 9.4 6.4-1.9-.3-3.5 1l-1.2.7q-2 1-3.6 2.6-.8 0-1.4.6-.7.6-1.8 1l-1.2.8q-2 1.1-3.6 2.5-.8 0-1.4.7l-3 1.8q-1.8 1.1-3.5 2.5-.8.3-1.5.8l-3 1.7q-2 1.1-3.6 2.5-.8.1-1.4.7l-3 1.8q-2 1.5-4 2.3l-1 .9-1.8 1-1.2.8q-2 1.4-4 2.3l-1 .9-1.8 1-1.2.8-5 3q-.8.8-1.8 1.2l-1.2.8a67 67 0 0 1-6.8 4.2l-1.2.8a23 23 0 0 1-4 2.3l-1.1 1-1.7 1q-.6.2-1.2.7-2 1.5-4 2.3l-1 1q-.6.3-.6 1-12.8 0-25.5-.2l3.5-1.7 1.2-.8.8-.5q.7-.2 1.2-.8l5-2.7.7-.6q.8-.1 1.3-.6l5-2.8 5-3 .7-.5 1.3-.7 7-4 5-2.8q2.9-1.5 5.5-3.5.9 0 1.6-.7l5-2.8.6-.6 1.3-.6 5-2.8.8-.5q.7-.2 1.2-.8a79 79 0 0 0 7.1-4l4.9-2.7a40 40 0 0 1 5-3l.6-.5 1.5-.7 4.9-2.8.6-.6q.8 0 1.4-.6a39 39 0 0 1 5-2.8l5-3 .7-.6q.8-.2 1.3-.7 1.1-.3 1.6-1.4Zm13.6 12q2.5 4.4 3.6 9.4-1.3-.6-2.5.2l-55.8 34.3-2.8 2.1L348 72l.4-.7 1-.3 1-.7q2.8-1.5 5.5-3.5.8-.3 1.5-.8l5-2.7.7-.6q.8-.1 1.4-.6l4.9-2.8q3-1.6 5.6-3.6.8 0 1.5-.6l5-2.8.7-.6q.8-.1 1.2-.7a149 149 0 0 0 12-6.7l5-3 .7-.6q.7-.2 1.3-.7l5-2.7.8-.6q.7-.1 1.2-.7l5-2.7.7-.5 1.3-.8 5-2.7zm4.2 12a37 37 0 0 1 1.1 10.7q-.9-.2-1.6.3l-35.5 21.8q-1 .5-.8 1.6-10.7 0-21.3-.3l56-32.3zm1.2 15q.5 6-1 11.6c-2.4.6-10.2 5.9-12.8 7.6l-1.2.6q-3.5-1.5-6 1-4-.4-8-.5c-.1-1.6-3.3-.7-2.6-1.9q16-8.8 31.6-18.4ZM111 80.3q-7.7 4.8-15.6 9.4-.4-.9.2-1.6c1.9-1.7 4.8-4.8 5.7-7.1q4.9-.7 9.7-.6Zm17 0h5q-5.4 3-10.7 6.3-1.2.4-1-.7 3.7-2.5 6.7-5.6Zm250.8.6a9 9 0 0 1-3.8 1.7q-.3 1.5-1.9 1.5c-.6-5 1.1-2.8 4.5-3.8q1-.2 1.1.6Zm-229.9 0 5 .1q0 .5-.6.8l-14.5 8.4-1.8 1.5q-1.5 0-2.5.8c-1.3-1.3 3.1-2.2 3.6-2.8zm30 0h8c-.4 1.3-5.6 3.5-6.9 4.4a2 2 0 0 1-2-.4q0-2 .9-4Zm26.2 0a256 256 0 0 1 15.9 0c-3.1 2.5-16.3 10-20.8 12.2a5 5 0 0 0-2.1-3.1zm53 0 12 .1A190 190 0 0 1 246 95.2a6 6 0 0 0-.8-3.5c2-2.4 11.9-9 12.8-10.8Zm47.1 0q2.5-.1 4.9.1-.4.8-1.2 1.3l-19 11c-1.6 1-1.8 1.9-4 1.7q.1-.6.6-1 9-5.6 17.5-11.6.8-.6 1.2-1.5ZM421.1 84c-.9 1.8-4.2 2.9-5.7 4l.3-4.6c.5-3 4-.3 5.4.6ZM164 87.1q0 2-.3 4-8.7 5.4-17.8 10.2l-1.6 1.4q-2 0-.4-1.3l5.5-3.5q7.2-5.6 14.6-10.8Zm266 2.7q1.6 1 3 2.3-8.7 5.6-17.7 10.7-.3-2 0-4 7.1-4.8 14.6-9Zm-27.7 3q.1 1.5-.2 3-1.1.2-2.1.6-9.7 5.3-19 11.3l-1.8.4q0-.6.3-1 10.4-6.5 20.5-13.4 1-.6 2.3-.9ZM177.9 100q-1 0-2 .3v-3q3-1 5.8-2.7.6-.3 1 0a63 63 0 0 1-4.8 5.4Zm-15 4.9v3.4q-8 4.5-15.9 9.5l-2.2.6c-.7.5-1.5 2.3-2.4 1q9.4-6.6 18.6-13.7zM402 107c1.2 0 .9 2 1 2.8-3.7 1.6-14.1 8.8-17.3 9.1a112 112 0 0 1 16.3-12ZM81 154a25 25 0 0 1 .1-5.2c8.9-5.6 19.4-10.6 27.9-16.6q1-.3 1.7.3Q96 143.4 81.1 154Zm-13.7-10 1.5 35.3q-.8-.1-1.4.4-25.6 14.7-51 29.7L15 209q-.5-10.2 0-20.4 1 .1 2-.4a284 284 0 0 1 14.7-9 7 7 0 0 0 2.2-2q2.5-.7 4.8-2.2l12.3-8c.8 0 4.2-1 2.6-2.1q-2.2 0-2.6 2c-2.8 0-15.4 8.2-18.1 10.2q-.9.1-1.6.5L15 187.3q-.7-5.6-.2-11.4 1.2.3 2.2-.2zm13.9 26q-.3-2.4-.2-5l2-.6 19.1-11q4-2.3 7.8-5 1.3-1 2.8-.7zm70-5 1.1.1c-22.6 16.4-46.8 32.3-70.2 48q-.3-4.5-.1-8.8a48 48 0 0 0 7.2-3.6zm-47.9 14q.9 0 1 .8l-22.6 14.6q-.6-1.5 0-3zm-34.4 1.8q1.4 11.7 2 23.4c-.7-1.2-2.3-.5-3.2 0L16 234h-1q-.4-10.5-.2-21 1.2.1 2.2-.4c17.3-10.6 34.4-22 51.8-31.9Zm67.5 11.9q1 .3 1 1.2L82.8 229q-.8-2.9-.2-5.7zm8.8 11.2q1.1 0 1 1-31.3 20.3-62.8 40.3-.4-3-.2-6zm-74.1 5q1 6.8.8 13.5a2 2 0 0 0-1.8.1l-55.1 32q-.5-5.7-.1-11.4 1.1.2 2.3-.3zm84.9 4.8q1.2 0 1.1 1.3-36.2 23.5-73 46.3-.3-3-.2-6.2 36.3-20.4 72.1-41.4Zm17.4 7 1 .2c-1.7 2.2-6.4 4.6-8.7 6.3l-76 48a27 27 0 0 1-5.3 3q-.3-3 0-6.1 44.3-26 89-51.4Zm-101.3 7q.1 6.8-.2 13.7-1.2.1-2.2.8L16 273h-1q-.6-5.1 0-10.3 1 .2 1.7-.3 27.8-17.2 55.3-34.8Zm-2.2 17.1 1.2.2q-.5 6-.3 12.1-1 0-1.7.3l-54 31q-.6-5.2.1-10.6.9.2 1.6-.3zm78.2 7.7q.3.6.1 1.4-31.6 19.8-63.4 39.2c-.8-.4-.1-3.2-.3-4q31.7-18.5 63.6-36.6Zm-77.7 7.4q.5 6.2.3 12.5l-3.3 1.4-52.5 30.4v-11q1.2 0 2.2-.5zM196 272.5q1.2.3 1.3 1.3L91.9 339.3a70 70 0 0 1-8.8 5q-.3-3.2 0-6.3zm-125.8 5.7q.8.5.6 1.5.1 11.7-.4 23.4-1.2 0-2.3.5l-53 30.7c0-2.8-.5-7.6.2-10.2q14-8.1 27.6-16.9c-1.1-.8-2.7 1-4 1.1q-5.5 3.3-11.1 7A223 223 0 0 1 15 322q-.5-5 0-10.3.9.1 1.6-.3zM210 296.3c.6 1.7-1.3 2.5-2.1 3.6q-1.2 0-2 .9l-1.2 1-1.8.8-1.2 1.2q-1 .2-1.7.8l-5.2 3.7q-1.8-.4-1.5 1.4l-1.4.5q-.7 0-1 .9a2 2 0 0 0-1.7.7q-1 .8-2.3 1.3l-.7.7-2.4 1.4-.6.6-1.4.4-.8.6-.8 1-1.4.2-.7.9q-1 .9-2.3 1.3l-.6.6-5.9 4-86.1 54q-.2-4.4 0-8.8.7-.1.7-.8l1.4-.6q.7 0 1-.7 1 0 1.7-.7 1-1 2.4-1.5.5-.1.6-.6l1.3-.2 1-.8a196 196 0 0 1 14.5-9q51-29.5 102.2-58.8Zm-139.2 7.4v24.5q-5 2.5-9.8 5.4-.6.7-1.4 1.2-22.4 12.4-44.4 25.6c-.2-3-.6-7.6.2-10.4q15.8-9.4 31.4-19.1 2.1-1.2 4.3-2.2 2.5-1.5 4.8-3.4c-.7-.6-2 0-2.8.3l-6.5 4.5q-15.1 8.7-30.6 17.2l-.6.7c-.9-3.1-.2-7.7-.4-11q1.1.3 2.2-.2 27-16.4 53.6-33Zm75.6 15q1 .2.7 1.2l-63.9 39.2V355zm-75.6 11.2c-.4 3.6.6 10-.6 13.2q-1.2 0-2 .4L15 374.3l-.2-11.3q1.2.2 2.3-.3l45.2-28zm-.7 14.5q.9.2.7 1.1v11.7a5 5 0 0 0-2.2.7q-26.3 15-52.3 30.5l-1.1-.3-.3-10.2q1.2 0 2.2-.5c17.6-10.9 35.5-22.4 53-33Zm92-.2-.3.9-21 14.1-9.1 6q-.9.6-1.5 1.4c-.6.5-2.9.5-1.2 1.4q0 1-1 1.4L83.1 397v-8l75-43.3q1.8-1 3.8-1.5Zm-91.4 16.6c-.1 4.6.5 11-.4 15.4l-1.8.7q-26.2 15-52.2 30.4l-1.2-.4c-.8-2.2-.1-7.7.1-10.2q.9 0 1.6-.5L68.4 363q1.3-1 2.2-2Zm0 17v15.4q-24.3 13.4-48.3 27.5-1.4.6-2.4 1.7a16 16 0 0 1-4.2-8.3L68.5 380a9 9 0 0 0 2.1-2.1Zm62.5.8q.6.9 1.6 1 .1.8-.1 1.3l-46 28.2a37 37 0 0 1-5.5 3v-5zm-62.4 17.1q.1 13.7-.4 27.3c-2.8.2-11.2 6-14.4 7.5q-.7.5-.7 1.4c-5.4 1.3-26-.8-29.4-5q21.4-14.3 42.7-29a10 10 0 0 0 2.2-2.2Zm-.4 27.3q.5 3.6.3 7.4.1.8-.4 1.2-5.2.6-10.5.4l8.3-6.5z"/><path fill="#f2ae14" fill-opacity=".5" d="M51 167q.4-2 2.6-2c1.6 1.2-1.8 2-2.6 2"/><path fill="#bfb9bc" fill-opacity=".9" d="M399.4 72c-.7 1.2 2.5.4 2.7 1.9h-6.3c.4-1.1 2.7-1.2 3.6-1.9"/><path fill="#f1ae14" fill-opacity=".3" d="M380.7 45q0 1-1 .9zm-22.3 1q-.6.7-1.6.8a2 2 0 0 1 1.6-.7m14.4 4q0 1-1 .9zm-49.2 10q.2 1-1 1z"/><path fill="#f2af15" fill-opacity=".4" d="M405.1 30.2q-.4.9-1.4.7.6-.6 1.4-.7m-46 8.1a2 2 0 0 1-1.4.6q.7-.5 1.5-.6m-19.8 18.8-1.3.7q.4-.8 1.3-.8M15.1 171l1 .4-1.3.7z"/><path fill="#2d52cd" stroke="#2d52cd" stroke-width=".5" d="M111 80.4q8.6-.6 17 0-3 3-6.6 5.5-.3 1.2.9.7l10.7-6.2 15.9.6-10.8 8.7c-.5.6-5 1.5-3.6 2.8q1.1-1 2.5-.8l1.8-1.5 14.5-8.4q.5-.3.7-.8h9.5c1.6.7.3 4.7.5 6.1q-7.5 5.2-14.6 10.8l-5.5 3.5q-1.6 1.3.5 1.3l1.5-1.4q9-4.7 17.8-10.2-.2 6.8-.7 13.7l-2 .8q-9.2 7.1-18.6 13.8c1 1.2 1.7-.7 2.4-1.1l2.2-.6q8-4.9 16-9.5c-1 16.8-.4 33 .7 49.8-1 .6-2 2.5-3.3 2q-1.2 0-2.4.3l-7 4.5-62 35.8a48 48 0 0 1-7.1 3.6q-.7-5-.3-10l32.2-21q-1-.5-2.1.2l-8.5 5.5-21.6 12.4q-.6-10.7-.5-21.4l31.6-22.3q-1.5-.3-3 .7a97 97 0 0 1-7.7 5l-19 11-2 .7q-.2-5.5 0-10.9 15-10.5 29.7-21.5-.7-.6-1.7-.3c-8.5 6-19 11-27.9 16.6 0-3-.5-9 .7-11.5 1.7-1.6 13.3-9 13.3-10.5q1 .1 1.8-.5 3.8-3 7.9-5.8-.9-.5-1.8-.2-4.9 3.3-9.8 6.3c-2.6 1.6-6.7 3-8.5 5.4q-1.5 0-3 .8.1-5.5.6-11l6.5-5.6-.3-.3q-3 1.2-5.7 2.8c.8-10.7 4-37.7 18.5-37.8-.9 2.3-3.8 5.4-5.7 7.1q-.6.7-.2 1.6 7.9-4.5 15.6-9.4Zm384 221.3 1 .4q1.6 4.5 1 9.2l-4.6 2.5q-7 4.3-14 9l-3.4 1.5-27.8 17.3q.8.8 2 .2l5.5-3.8q12.3-6.8 24.4-14a309 309 0 0 1 18-10.3q.3 5.7.2 11.4-1.2-.4-2.3 0l-77.6 49a420 420 0 0 0-2-26q3.8-2.4 7.8-4.4a189 189 0 0 1 21-12.3z"/><path fill="#163072" stroke="#163072" stroke-width=".5" d="M210.3 447.8q-.3 1-1.3 1.8-5 3.4-10.3 6.6a1 1 0 0 0-.6.9q-2.3 1-4.2-.6 5.3-3 10.2-6.2c2.5-.3 3.8-2.6 6.2-2.5Zm24.5 1c.1 1.9-8.5 6.4-10.1 7.5-1.7 1.8-4.8.8-7 1a4 4 0 0 1-3.8 0q2.6-.9 5-2.2 1.5 0 2-1.3 1.4-1.2 3-1.7a2 2 0 0 0 2-1.2l3.9-2.4q2.5-.2 5 .4Zm64.2.1q-5 3.9-10.3 7.3-.6 1.3-1.8 1.5c-3.6-.7-12.1.3-15-1l12-7c.2 1.3-.6 4.5.4 5.3q6-3 11.7-6.3c.7-.3 2.7-1 3 .2Zm72.8-1c2.4.7 4.4 1.4 4.5 4.3q-2.4 2.2-4.3 5-7.5.4-15.1 0c1.3-2.1 12.2-7.5 15-9.4Zm-116 .6q3 2 2.4 5.7-2 1-3.3 2.9c-2.4.9-10.8.8-13-.6zm78 1.9q1.7 2.4 0 4.8c-2.8 1.7-1 2 1.2 2-1.8 1.4-9.6 0-12-.4zm60.9 5.7q-2.2 2.2-4.8.5c1.7-.8 5-3.4 6.8-3.2zm-197 8.1c1 1.2 3.7 1.3 4.4-.1h21.8c.7 1.4 3.3 1.2 4.2 0q9 0 17.9.2-2.3 2.5-5 4.1c-.6.5-1.3 1-.5 1.7q5.2-2.4 9.7-5.8 1.8-.4 3.7 0c1.1 1 3.6 1.3 4.4-.2l29.6.2 2.2 1-12.3 11c-.9.7-1 2.1.4 1.4l23-13.5h4.5c.7 1.4 3.4 1 4.3 0a960 960 0 0 1 28.9 0c.9 1.2 3.6 1.3 4.2-.1q10.4 0 20.6.3a23 23 0 0 1-3.7 3c-.4.6-1.2 1-.5 1.7 2.1-1 6.4-3 7.8-4.9q2.2-.3 4.6 0c1 1 3.6 1.4 4.4 0q6.7-.3 13.5.2-6 6.3-13 11.9c-1 .8-1 2.2.4 1.4 7-4 14-8 20.8-12.4q1.2-.4 2-1c1.2-.3 3.1-.6 3.2 1.2q.1 16.5-.1 33-.5.9-1.5.9l-7.4-.2c-.1-2 3.3-6 2.6-7.4q1.5-1.4 2-3.2-1-.4-1.7.2l-16.5 9.3q-.3.1-.4.6c-2.8 1-14.5 1.2-17.2.3q0-1 .8-1.6 3-2.2 5.8-4.7c-1.6-1.5-3.7 1.5-5.1 2.3q-3.2 1.5-6.2 3.5c.6 1.1 2.7.4 3.8.8-4 1-17-.4-21.9 0 3.4-4.7 16-15 20.9-19.7 1.5-1.5.4-2-1.2-1q-17 9.8-33.7 19.9a3 3 0 0 0 2.2.8h11.8c-2.1 1-29.6.6-32-.3.3-1.6 8.8-7.3 10.3-9l2.6-1.5q1.5-1.3-.5-1.6-9.5 6-19.4 11.5.6.6 1.3.8l4.4.2c-1.9 1-19.5-.4-22.8-.5-.3-1.3 3.6-3.2 4.5-3.8q.4-1.4-1-1.2a59 59 0 0 1-7.4 4.6q1.3.9 3 .9c-4.5.7-15.1-.3-20.1-.4a13 13 0 0 1 4.5-4q.6-.6-.1-1.1-4.3 2.1-8.3 4.7 1.3.7 2.9.7c-3.7 1-16.4-.4-21-.2 6.6-7 14.5-13.3 21.2-20.1q.6-.6.1-1l-35.8 20q-.5.3-.7.8t-.8.8q-17 0-34-.7c.9-2.6 10.7-8.4 12.8-11.6q-.4-.7-1.1-.3l-19.6 11.3c1 1.6 5.2.4 6.8 1-2.7.9-8.7.3-11.7 0q-.9 0-1.2-1a827 827 0 0 1 0-33.7q.6-.7 1.4-.6z"/><path fill="#f2ae14" stroke="#f2ae14" stroke-width=".5" d="m316.3 13-1.3 1.4q-4.5 2.4-8.6 5.4-4.2 2.1-8.2 4.8L273 39.7c-.6.4-1.3.7-.6 1.3a636 636 0 0 0 34.2-19.8l12.4-6.9q.6-.3.7-1l36.3-1.1q0 .4-.4.9l-57.2 35.7-2.6 1.3A746 746 0 0 0 271 65.6c-2.8.7-4 2.8-6.3 3.5q-.6.3-.4.8l-1.4 2.3q-33 .7-66 .7l2.3-1.9a15 15 0 0 0 5.3-3.1L223 57.4q37-21.6 74-42.9 1-.7.8-1.6a58 58 0 0 1 18.4.2Z"/><path fill="#2a4ec1" fill-opacity=".3" stroke="#2a4ec1" stroke-opacity=".3" stroke-width=".5" d="M496.8 252v1.7l-.7 1.2-33.4 19q-3 1.8-5.7 3.8c-2 .6-3.7 1-5 2.8q-1.6.3-2.8 1.3-.6.2-1-.3l4-2.8 9.5-5.3 35.1-21.5Zm-44.2 154q.3 1.3 1.5 1.4-8.7 4.8-17 10.2-1 .5-2-.2z"/><path fill="#284bbb" fill-opacity=".3" stroke="#284bbb" stroke-opacity=".3" stroke-width=".5" d="M88.2 489.8q-1.2-.3-1-1.6l35.8-20.5 13-8q1.4-.7 2.8-.4l-4.8 3.4q-22.8 13.6-45.8 27Z"/><path fill="#2b51cf" fill-opacity=".4" stroke="#2b51cf" stroke-opacity=".4" stroke-width=".5" d="M450.3 167q-.5.6-1.1.7.2-.7 1.1-.6Zm30 1q-.6.6-1.4.8.4-.8 1.5-.7Zm-37 3-1.4.8q.3-.8 1.4-.8Zm-15 27q-.6.6-1.5.8.6-.8 1.6-.8Zm7.8 8.2q-.4.8-1.5.8zm3.2 1q-.6.4-1.3.6.3-.8 1.3-.7Zm-75.5 5.8q0 1.1-1.2 1zm30 1q0 1-1.1 1zm29 0q0 1.1-1.2 1zm-76.4 13q-.7.7-1.4.7.4-.7 1.4-.6Zm126 17-.2.6c-9.6 6.7-20.7 11.5-30.1 18.1q-2 .7-3.7 2-2.6.3-.5-1.3 1.5-.9 3.2-1.5 14.3-9 28.8-17.6 1.2-.4 2.5-.3Zm5.3 32q0 1-1 1zm.6 5a3 3 0 0 1-1.6.7q.6-.6 1.6-.7Zm-7 4.1q-.6.6-1.4.7.5-.7 1.4-.7Zm19 5-1.4.7q.4-.7 1.4-.7Zm-38 5.9-1.3.8q.3-.9 1.3-.8Zm-7 4.1q-.4.6-1.1.6c-.4-.8.8-.5 1.2-.6Zm19 5q-.5.6-1.3.7.4-.9 1.3-.8Zm-54.5 13q0 1-1.1.7zm12.3 9.1q-.5.7-1.4.7a3 3 0 0 1 1.4-.7Z"/><path fill="#294dca" fill-opacity=".3" stroke="#294dca" stroke-opacity=".3" stroke-width=".5" d="M100.2 459q-.3-1-1.3-1.5l34.2-19.7q4.4-2.5 8.7-5.5 1-.4 2 .1-1.7.5-2.7 2.1l-1.6.4q-1.5 1.4-3.4 2.6-1.8.6-3.4 1.6-16.2 10.2-32.5 19.9Z"/><path fill="#2c52ce" fill-opacity=".4" stroke="#2c52ce" stroke-opacity=".4" stroke-width=".5" d="M484.2 158.2q-.5.8-1.5.8.8-.6 1.5-.8Zm-53 13.1q-.6.8-1.5.6.7-.5 1.5-.6Zm-8 5q-.6.6-1.5.6.7-.6 1.6-.6Zm38 2.8q-.4.4-1.2.7.3-.9 1.3-.7Zm-46 2.2q-.7.6-1.5.7.7-.6 1.5-.7Zm57 6.7q-.5.5-1.1.7.3-.8 1.1-.7Zm-10.3 2.3q-.3.8-1.2.6zm-43.8 8.9q-.5.8-1.4.8.6-.6 1.4-.8Zm28.2 3.9q-.6.5-1.3.6.4-.7 1.3-.6Zm-67 5q-.6.4-1.3.5.4-.6 1.3-.6Zm-15 26.9-1.3.8q.3-1 1.2-.8Zm87.7 57.2q-.4.9-1.4.8zm7 12.1q-.4.8-1.3.6.6-.4 1.4-.6Zm-6.6 7.7-1.3.8q.3-.9 1.3-.8Zm-34.6 1.1q-.1.9-1 .8zm-10.5 9.1q-.7.5-1.5.5.5-.8 1.5-.5Zm19 4.8q-.6.5-1.4.7.5-.7 1.4-.7ZM84 480l-.2-1.3 31-18.4a2 2 0 0 1 2 .2q-1.2 1.2-2.9 2.2-2 .6-3.9 1.7A329 329 0 0 1 84 480Z"/><path fill="#2d51c9" fill-opacity=".4" stroke="#2d51c9" stroke-opacity=".4" stroke-width=".5" d="M498 183q.9.6.7 1.8-13.9 8-27.7 15.6-3.9 2.8-8 5.2-1 .5-2-.1l4.1-2.9 27.1-15.8z"/><path fill="#2b4ec2" fill-opacity=".3" stroke="#2b4ec2" stroke-opacity=".3" stroke-width=".5" d="M405.2 225.2q-.1 1 1 1.4-14 8.1-28.2 15.9-3 1.7-6 3.9a2 2 0 0 1-2 0q.9-1 2.2-1.7 14.6-8.3 28.7-17.3z"/><path fill="#2c52ce" fill-opacity=".4" stroke="#2c52ce" stroke-opacity=".4" stroke-width=".5" d="M439.1 166.2q-.4.8-1.5.8zm53.6 5q0 .9-1 .7zm-45.4 10.1q-.7.6-1.5.7.6-.6 1.4-.7Zm-12 12.8-1.2.7q.3-.9 1.2-.7Zm-17.4 23q-.2 1-1.2.7zm-36.6 5.1q-.7.6-1.6.7.6-.6 1.6-.7Zm-28 1-1.3.6q.3-.9 1.4-.7Zm144.4 16.7a5 5 0 0 1 0 2l-20.6 11.6-8 5.2q-1 .6-2-.1 1.2-1.3 3-2.2 13.9-8.1 27.6-16.5ZM486 271.2q-.4.7-1.5.7.7-.6 1.5-.6Zm-56.3 51q-.1.9-1 .7.4-.4 1-.6Z"/><path fill="#294bc4" fill-opacity=".3" stroke="#294bc4" stroke-opacity=".3" stroke-width=".5" d="m347 191 2 .4-27 16c-1.4.7-4 1.6-4.9 3q-1 .7-2 .1.8-1.2 2.1-1.8 12.3-7 24.2-14.8z"/><path fill="#2851cb" fill-opacity=".3" stroke="#2851cb" stroke-opacity=".3" stroke-width=".5" d="M446.8 106.1q.7.2 1 .8-15.7 9.3-31.5 18v-.9l28.7-17.4q.8-.6 1.8-.5Z"/><path fill="#294ac3" fill-opacity=".3" stroke="#294ac3" stroke-opacity=".3" stroke-width=".5" d="m478.3 322.8.7 1.2q-12 7.2-24.4 14l-5.6 3.8q-1 .6-1.9-.2l27.8-17.3z"/><path fill="#294fc7" fill-opacity=".3" stroke="#294fc7" stroke-opacity=".3" stroke-width=".5" d="M442.7 330q.4 1 1.4 1.4-5.2 3-10.5 5.6-5.3 3.2-10.5 6.8-4 2-7.9 4.2l-.4-1.8q1.2 0 2.2-.4z"/><path fill="#274ac8" fill-opacity=".3" stroke="#274ac8" stroke-opacity=".3" stroke-width=".5" d="M324 238.3q.5.8 1.1 1.3L301.5 253c-1.5.7-3.7 3.5-5.5 2.5q.9-1.2 2.2-1.8z"/><path fill="#2a4dc5" fill-opacity=".3" stroke="#2a4dc5" stroke-opacity=".3" stroke-width=".5" d="M225.2 309a2 2 0 0 0-1.3-1.5q12.3-6.7 24.1-14.1c1.1-.3 2.8-2 3.8-1.1-1.7 1.4-3.8 3.3-6 3.8q-10.3 6.6-20.6 12.9Z"/><path fill="#2c4fc9" fill-opacity=".4" stroke="#2c4fc9" stroke-opacity=".4" stroke-width=".5" d="M342.8 245.8q1.2 0 1.2 1.2l-21 12.2-1.9 1.4q-1.8.3-3.5 1.3c-.7-.6.2-.9.6-1.3q12.4-7.2 24.7-14.8Z"/><path fill="#2849c0" fill-opacity=".3" stroke="#2849c0" stroke-opacity=".3" stroke-width=".5" d="M459.7 376q0 1.2 1 1.7l-15 8.5-3.6 2.6q-3.1 1.8-6.6 3.1l-.3-.3q1.3-1.2 2.9-2.2z"/><path fill="#2a4eca" fill-opacity=".3" stroke="#2a4eca" stroke-opacity=".3" stroke-width=".5" d="M496.6 341.3v.4q0 .9-1 1.5-10 5.4-19.6 11.4a5 5 0 0 0-2.8 1.3q-.6.2-1-.3.2-.7.9-1a479 479 0 0 0 21.8-13.2q.8-.6 1.7-.1Z"/><path fill="#2c52ce" fill-opacity=".5" stroke="#2c52ce" stroke-opacity=".5" stroke-width=".5" d="M439.6 99.3a2 2 0 0 1-1.2 1.5q-3.8 2.3-7.8 4.2-3 2.2-6.4 4-.8.5-1.1-.3a89 89 0 0 1 15.4-9.7q.6 0 1.1.3Zm43.8 48.9-1.3.5q.4-.8 1.3-.5Zm-20.1 23q-.6.8-1.6.8a3 3 0 0 1 1.6-.8Zm5 3.9q-.6.5-1.3.6.4-.7 1.3-.6Zm11 9-1.2.7q.2-.9 1.2-.7Zm-93 20q-.5.5-1.2.6.3-.7 1.2-.6Zm10.6 8.2q-.3.8-1.1.6a2 2 0 0 1 1.1-.6Zm-38 4q-.2.8-1.2.7zm114.3 63q-.6.6-1.5.6zm-13.2 8q-.4.6-1.3.6.6-.4 1.3-.6Z"/><path fill="#2b50c8" fill-opacity=".5" stroke="#2b50c8" stroke-opacity=".5" stroke-width=".5" d="m499.8 215.1-.1 1.8-8.2 4.3-11.3 6.8q-.7.4-1.2-.3a72 72 0 0 1 9.6-6.4z"/><path fill="#2c52cd" fill-opacity=".5" stroke="#2c52cd" stroke-opacity=".5" stroke-width=".5" d="m83.3 457-.1-2q3.8-1.5 7.1-4l1.6-.5a89 89 0 0 1 8-5.2q1.2-.7 2.1 0A536 536 0 0 1 83.2 457Z"/><path fill="#274dc0" fill-opacity=".3" stroke="#274dc0" stroke-opacity=".3" stroke-width=".5" d="M452.7 423.1q0 1.2 1 1.6-7.4 4-14.6 8.7-1 .6-2 0 .1-.6.9-1 7.4-4.5 14.7-9.3Z"/><path fill="#2b50c8" fill-opacity=".5" stroke="#2b50c8" stroke-opacity=".5" stroke-width=".5" d="M499 193.9q.5.3.7 1a67 67 0 0 1-9.5 5.7c-1.3.6-4 3.9-5.2 2.1q2.4-1.5 4.8-3.4a71 71 0 0 0 9.2-5.4Z"/><path fill="#183182" fill-opacity=".1" stroke="#183182" stroke-opacity=".1" stroke-width=".5" d="m353.7 239.3 1.4 1.3q-5.7 3-11 6.4 0-1.2-1.3-1.2 5.2-3.5 10.9-6.5Z"/><path fill="#2243a4" fill-opacity=".3" stroke="#2243a4" stroke-opacity=".3" stroke-width=".5" d="m203.2 450 1 .3q-5 3.2-10.3 6.2-.7.5-1.8.4a3 3 0 0 1 1.5-1.7q3.9-2 7.6-4.5z"/><path fill="#2f54cf" stroke="#2f54cf" stroke-width=".5" d="m405 381-.2 9a1813 1813 0 0 0-41 23.4l-4 1.8q.3-1 1.2-1.6 21.8-16.5 44-32.5Zm-161 41q3-.3 6 0c-6.8 4.6-18.3 13-25.2 16.2q-.9-.1-1.8.2l-16.6 9.7c-.6.6-3.4 1-3.2 1.8l-2 .8q-3.7 2.6-7.6 4.5a3 3 0 0 0-1.5 1.7 11 11 0 0 1-7-.1q.1-.9 1-1.2l52.2-30q3-1.6 5.7-3.6Z"/><path fill="#3357cf" fill-opacity=".5" stroke="#3357cf" stroke-opacity=".5" stroke-width=".5" d="M245 442.3v.7a32 32 0 0 1-7 4.2q-.7.3-1 .7l-1 .3q-.7-.5-.7-1.3 4-2 7.7-4.4 1-.4 2-.2Z"/><path fill="#2b52cd" fill-opacity=".3" d="m455.3 164.3-1.3.7q.3-1.1 1.3-.7M420 177.9q-.2 1-1.2.8zm32 0q0 1.1-1.2.8zm-40 5q-.2 1-1.2.8zm28.4 8.4-1.3.7q.3-1.1 1.3-.7m11 9-1.3.7q.3-1.1 1.3-.7M441 203q-.2 1-1.2.7zm-55 16q-.2.9-1.2.7zm-27.6 1.3-1.3.7q.3-1 1.3-.7M485 288q0 1.1-1.2.7zm-1.6 6.3-1.3.7q.3-1.1 1.3-.7m-47.4 7.6q-.2 1-1.2.8zm21.4 7.4-1.3.7q.3-1.1 1.3-.7m-19 11-1.3.7q.3-1.1 1.3-.7m-7 4q-.6.5-1.3.7.3-.9 1.3-.7"/><path fill="#274ab9" d="m263 499-1 .3q-1.5 0-2.8-.7 4-2.7 8.3-4.7.6.5.2 1.1a13 13 0 0 0-4.6 4"/><path fill="#1f389a" fill-opacity=".3" stroke="#1f389a" stroke-opacity=".3" stroke-width=".5" d="m496.8 477.2-.2 2.4c-.3 1.8-3.4 2.5-4.6 3.8q-1 .6-1.7 0z"/><path fill="#2c52cf" fill-opacity=".4" d="M463 151.2q-.4.8-1.3.7zm24.4 13-1.4.5q.5-.7 1.4-.6m-32.3 12q-.4 1-1.4.8zm-48 10q-.5.7-1.3.7.6-.5 1.3-.6m-8 5q-.4.9-1.5.7zm6.2 1.8q-.6.6-1.4.8.5-.8 1.4-.8m25.6 16.3q-.3.8-1.2.6.5-.5 1.2-.6m-42 8q-.3.7-1.2.7l1.2-.8m1.5 2.8a3 3 0 0 1-1.5.6q.6-.7 1.5-.6m94.9 73q-.6.4-1.4.6.6-.7 1.4-.6m10.7 8-.3 1.2-1-.4q.6-.6 1.3-.8m-62.7 6.2-1.4.7q.4-.9 1.4-.7m26 1q-.6.5-1.4.7.3-1 1.4-.7m-8.2 1q-.6.9-1.6.8.7-.6 1.6-.7"/><path fill="#2749b4" d="M363.8 464.4q1.7-.5 3.5-.2c-1.4 2-5.7 4-7.8 5-.7-.8.1-1.2.5-1.8a23 23 0 0 0 3.7-3"/><path fill="#2d52ce" fill-opacity=".4" d="M479.3 141.3q-.7.6-1.7.6.7-.4 1.6-.6m-8 4.9a2 2 0 0 1-1.6.8zm-2 9.9-1.5.7q.6-.7 1.5-.7m11 23.2q-.6.8-1.5.6.6-.5 1.4-.6m-26 3.7q-.7.6-1.5.8.5-.8 1.5-.8m-15 3.3q-.7.8-1.7.7.7-.5 1.6-.7m26 5.8-1.3.7q.4-.9 1.4-.7m-93 20q-.6.5-1.3.6.4-.7 1.3-.5m1 15.2q-.7.6-1.5.7.7-.6 1.5-.7m-16 11.9-1.5.6q.4-.9 1.4-.6m108 45q-.7.9-1.7.7.7-.6 1.7-.6m-46.1 47-1.1.5q.2-.9 1-.5"/><path fill="#2d53ce" fill-opacity=".3" d="M468 148q-.3 1-1.3.7zm-8.7 32.3-1.2.7q.2-1 1.2-.7m11 9-1.2.7q0-1.1 1.2-.7m-11.4 2.6q-.2 1-1.2.8zm-81.6 17.4-1.2.7q.2-1.1 1.2-.7m-15 27-1.2.7q0-1.1 1.2-.7m121 42q-.6.5-1.3.7.3-.9 1.3-.7m-26 15-1.2.8q0-1 1.2-.8m-26 15-1.2.8q.2-1 1.2-.8m-19 11-1.3.7q.3-1.1 1.3-.7M427 324q0 1-1.2.8zm-2.6 4.4-1.2.7q0-1.1 1.2-.7"/><path fill="#2c52ce" fill-opacity=".5" d="M457.4 163q-.7.6-1.5.8.4-.9 1.5-.8m-15.2 27q-.4.4-1.2.7.3-.9 1.2-.7m-16 4.3a2 2 0 0 1-1.5.7q.7-.5 1.5-.7m27.1 4.7q-.6.6-1.4.8.5-.8 1.4-.8m-9.4 2.3q-.3.8-1.2.6.5-.5 1.2-.6m-69 4.9q-.2.9-1.2.7zm-7.8 5q-.4.9-1.4.7.6-.5 1.4-.6m-6.8 7.9-1.2.7q.3-.9 1.2-.7m11 12q-.6.5-1.3.6.3-.8 1.3-.7m-11.3 4.2q-.4.8-1.3.6.6-.5 1.3-.6"/><path fill="#2d53cd" fill-opacity=".4" d="m476.4 152-1.4.8q.4-.8 1.4-.7m-29.2 9.3q-.6.8-1.6.7.7-.5 1.6-.7m21 6.9q-.6.8-1.5.7.7-.6 1.5-.7M424.3 182q-.7.5-1.5.7.6-.8 1.5-.7m-15 27q-.4.5-1.2.6.3-.7 1.2-.7m18 5q-.6.6-1.3.7.3-.7 1.3-.7m-7 4-1.2.7q.1-1 1.2-.7m-93 20q-.6.5-1.4.6.3-.9 1.4-.7m153 53.1q-.6.9-1.6.7.7-.5 1.6-.7m-8.1 5q-.6.7-1.4.7.5-.5 1.4-.6"/><path fill="#2b52cf" fill-opacity=".4" d="M455.2 156.2q-.6.8-1.5.7zm21 7q-.5 1-1.5.8.6-.6 1.4-.8m15.1 13.9q-.6.5-1.4.6.5-.7 1.4-.6m-93 20-1.5.7q.6-.7 1.6-.7m51 1.2q-.7.6-1.6.6.7-.5 1.6-.6m-39.1 6q-.5.7-1.4.7a2 2 0 0 1 1.4-.8M383.3 224q-.5.6-1.3.8.3-1 1.3-.8m88 77.1-1.3.6q.4-.7 1.3-.6m-44.9 10-1.3.7q.3-.9 1.3-.7m19 5-1.5.6a2 2 0 0 1 1.5-.6"/><path fill="#2b52cd" fill-opacity=".4" d="M431.3 178a2 2 0 0 1-1.3.7q.4-.7 1.3-.6m-40.2 18.3q-.5.6-1.4.6.7-.5 1.4-.6m25.2 8.7q-.6.6-1.4.7.5-.7 1.4-.7m-82 29.1-1.2.6q.3-.8 1.2-.6m154 52.1q-.7.9-1.7.7zm-29 5.9q-.6.4-1.4.6.4-.7 1.4-.6m19 4.9q-.5.6-1.4.7.6-.6 1.5-.7m-39.3 3.2q-.3 1-1.4.7zm-1 17q-.4.9-1.4.7.6-.5 1.3-.7"/><path fill="#2d52cf" fill-opacity=".3" d="m481.3 149.3-1.3.7q.3-1 1.3-.7m7.7 5.6q-.3 1-1.3.8zm-22.7 21.4-1.3.7q.3-1.1 1.3-.7m18.7-.3q-.2 1-1.2.8zm-89 17q-.3 1-1.3.7zm27 3q-.2 1.1-1.3.7zm-13 26q0 1.2-1.2.7zm-53 15q0 1.1-1.3.7zm134 31q-.3 1-1.3.7z"/><path fill="#2b52ce" fill-opacity=".3" d="M473.4 172.1q-.7.5-1.6.7.6-.8 1.6-.7m11 9-1.3.6q.3-.7 1.3-.6m-53.7 9.9q0 1-1 1zm-39.4 10.2q-.8.4-1.4.5.5-.6 1.4-.5M347.7 223q.1 1-1 1zm28.6 5.1a2 2 0 0 1-1.3.7q.3-.8 1.3-.7m-11.6 4q0 1-1 .9zm78 81.9q0 1-1 1zm-23.3 1-1.3.8q.3-1 1.3-.8"/><path fill="#2d50ce" fill-opacity=".3" d="M481 160q-.3 1-1.3.7zm-45 8q-.3 1-1.3.7zm-6.7 11.3-1.2.7q0-1.1 1.2-.7m42.6 4.6q0 1.1-1.2.8zm-57 17q0 1-1.2.8zm-.6 5.4-1.3.7q.3-1 1.3-.7m11 9-1.2.7q0-1.1 1.2-.7m-93 20-1.3.7q.1-1.2 1.3-.8"/><path fill="#2c52cd" fill-opacity=".3" d="m492.3 161.3-1.3.7q.2-1.1 1.3-.7m-82 29-1.3.7q.3-1.1 1.3-.7M388 198q-.3 1.1-1.3.7zm7.3 19.3-1.3.7q.3-1.1 1.3-.7M457 289q-.3 1-1.3.7zm7 12q-.1 1-1.2.8zm-25.7 3.3-1.3.7q.3-1.1 1.3-.7m-310 195-.3.6-1.2.2q.3-1.1 1.5-.9"/><path fill="#242f4c" fill-opacity=".7" d="M211 507.8q-3.5.5-7-.1.5-.9 1.4-.7c1 .3 5.9-.8 5.6.8"/><path fill="#2d51ce" fill-opacity=".2" d="m407.3 210.3-1.2.8q.2-1 1.2-.8m11 9-1.2.7q0-1.1 1.2-.7m-48.4 9.6q0 1.2-1.2.8zm-41 6q0 1.4-1.2.8zm121.4 62.4-1.2.8q0-1.1 1.2-.8m19 5-1.2.8q.2-1 1.2-.8m-21.4 8.6q-.2 1-1.2.8z"/><path fill="#2b52cf" fill-opacity=".2" stroke="#2b52cf" stroke-opacity=".2" stroke-width=".5" d="M463.9 189q-.2 1-1.2.7zm-79 11q-.2 1-1.2.7zm-14.5 13.3-1.3.8q0-1.2 1.3-.8Zm20.5 2.6q-.2 1-1.2.8zm52.5 85.4-1.3.8q.1-1 1.3-.8Zm19 5-1.3.8q.1-1 1.3-.8ZM431.9 321q-.2 1-1.2.8z"/><path fill="#2c53cd" fill-opacity=".3" d="m462.3 160.3-1.3.7q.3-1 1.3-.7m-15 27-1.3.7q.3-.9 1.3-.7m11 9-1.3.8q.2-1.1 1.3-.8m-93 20-1.3.8q.3-1 1.3-.8M356 218q-.2 1-1.2.8zm134.3 56.3-1.3.7q.3-1 1.3-.7m2.7 8.7q-.3 1-1.3.7z"/><path fill="#344ea9" d="M81.7 83c-.7 1.3-2.3 3.7-3.8 4.2q0-3.8 3.8-4.3"/><path fill="#2c53cf" fill-opacity=".2" stroke="#2c53cf" stroke-opacity=".2" stroke-width=".5" d="m463.3 193.3-1.2.8q0-1.2 1.2-.8ZM399 210.9q0 1-1.2.8zm-46 9q0 1-1.2.8zm-8 5q-.2 1-1.2.8zm124 73q0 1.1-1.2.8zm-50 31q0 1.3-1.2.8z"/><path fill="#2b52cd" fill-opacity=".3" d="M460 153q-.3 1.1-1.3.7zm-16 10q-.3 1.1-1.3.7zm41.3 2.3-1.2.7q0-1.1 1.2-.7M449 294q-.2 1-1.2.7.6-.5 1.3-.7m27.4 4.3-1.3.7q.3-1 1.3-.7m-20.4 7.6q-.2 1-1.2.8z"/><path fill="#2b52d0" fill-opacity=".3" d="M476 143q-.3 1-1.3.7zm-3 22q-.3 1.1-1.3.7zm-24.7 3.3-1.2.8q0-1.2 1.2-.8m-15 27-1.2.8q.2-1 1.2-.8M407 205.9q0 1-1.2.8zm-55.6 18.4-1.2.8q0-1.1 1.2-.8"/><path fill="#2d51ce" fill-opacity=".2" stroke="#2d51ce" stroke-opacity=".2" stroke-width=".5" d="M477 181q-.3 1-1.3.7zm-39.6 27.3-1.3.8q.1-1 1.3-.8Zm-76.5 6.6q-.2 1-1.2.8zm-16.6 13.4-1.2.8q0-1.1 1.2-.8ZM407 320q0 1.1-1.2.7zm10.4 12.3q-.5.5-1.2.7 0-1.2 1.2-.7Z"/><path fill="#2c51cf" fill-opacity=".3" d="M452 158q-.3 1-1.3.7zm-8 25q-.3 1.1-1.3.7zm-66 41q-.3 1-1.3.7zm72.3 89.3-1.2.7q0-1 1.2-.7m-35.4 1.6q0 1-1.2.8z"/><path fill="#2b51cc" fill-opacity=".2" d="m381.3 225.3-1.2.8q0-1.1 1.2-.8m-44.4 4.6q-.2 1-1.2.8zm125 56q0 1-1.2.8zm-37.6 26.4-1.2.8q.2-1.1 1.2-.8m19 5-1.2.8q0-1 1.2-.8"/><path fill="#2c54d0" fill-opacity=".3" d="M496 174.3q-.3.5-1 .7.1-.9 1-.7m-92.7 20-1.2.7q0-1.1 1.2-.7m24.6 16.6q-.2 1-1.2.8zm-39.6 10.4-1.2.7q0-1.1 1.2-.7m88.6 71.6q-.2 1-1.2.8z"/><path fill="#2a53d0" fill-opacity=".2" stroke="#2a53d0" stroke-opacity=".2" stroke-width=".5" d="M495 169.9q-.2 1-1.4.8zm-38.6 27.4-1.3.8q.1-1 1.3-.8ZM419.9 216q0 1.2-1.2.7zm-56.5 1.3-1.3.8q.1-1.1 1.3-.7Zm56.5 94.6q-.2 1-1.2.8z"/><path fill="#2a53cc" fill-opacity=".2" stroke="#2a53cc" stroke-opacity=".2" stroke-width=".5" d="M432.9 208q0 1.1-1.2.7zm-64 2q0 1-1.2.7zm-7 24q0 1.1-1.2.7zm79 65q0 1.1-1.2.7z"/><path fill="#283356" fill-opacity=".6" d="M100.7 507c.7.2 4.4-.5 4.2.8-1 .2-4.1.7-4.2-.8"/><path fill="#2c53cd" fill-opacity=".4" d="M417.4 186.1q-.7.6-1.6.6.6-.7 1.6-.6M401.8 209q0 1-1.2.9zm11.6 13.1q-.7.5-1.6.5c0-1 1.2-.3 1.6-.5m-81.7 11q0 1.1-1 .7z"/><path fill="#2b52ce" fill-opacity=".3" d="m477.3 185.3-1.3.7q.3-1 1.3-.7M404 188q0 1.1-1.2.7zm-19.6 17.3-1.3.7q.3-1 1.3-.7m-15 27-1.2.7q0-1 1.2-.7"/><path fill="#2d50cd" fill-opacity=".2" stroke="#2d50cd" stroke-opacity=".2" stroke-width=".5" d="m482.4 182.3-1.3.8q0-1.2 1.3-.8Zm-82 32-1.3.8q0-1 1.2-.8Zm-26 15-1.3.8q.2-1 1.2-.8Zm43 87-1.3.8q0-1.1 1.3-.8Z"/><path fill="#624e21" fill-opacity=".5" d="M22.8 436.8q1.8 0 3.3.9c-1 .1-3.2.8-3.3-.9"/><path fill="#2b50cf" fill-opacity=".2" stroke="#2b50cf" stroke-opacity=".2" stroke-width=".5" d="m337.4 232.4-1.3.7q0-1.1 1.2-.8Zm116.5 58.5q-.1 1-1.2.8zM164 491.9l-.2 1-.8.2q.2-.9 1-1.2Z"/><path fill="#2d52cf" fill-opacity=".4" d="M466.8 187q0 1-1 .9zm-127 41q0 1-1 .9zm104 69q0 1-1.1 1z"/><path fill="#2d53cf" fill-opacity=".3" d="M428 173q-.3 1.1-1.3.7zm42 108q-.3 1-1.3.7z"/><path fill="#2d53ce" fill-opacity=".4" d="M474.9 182.3q-.3.9-1.3.7zm-92 19q-.2.8-1.2.7z"/><path fill="#2e54cd" fill-opacity=".2" d="M446 200q-.3 1-1.3.7zm-18 107q-.3 1.1-1.3.7z"/><path fill="#2b50d0" fill-opacity=".2" stroke="#2b50d0" stroke-opacity=".2" stroke-width=".5" d="M376.9 204.9q0 1-1.2.8zm63 111q0 1.1-1.2.8z"/><path fill="#3f5391" fill-opacity=".4" stroke="#3f5391" stroke-opacity=".4" stroke-width=".5" d="m416 73.4 1.2-.6-.4 1.5zm.8.9q.9-.1 1.6.4l-1.2.2z"/><path fill="#364c98" d="m416 73.4.8.9.4.5q-3.6.2-7.3-.4 2.7-2.5 6-1"/><path fill="#2e52cc" fill-opacity=".2" stroke="#2e52cc" stroke-opacity=".2" stroke-width=".5" d="M460.9 302.9q0 1.1-1.2.8.5-.5 1.2-.8Zm-24.6 18.5-1.2.7q0-1.2 1.2-.7Z"/><path fill="#2c53ce" fill-opacity=".4" d="M431.1 305.2q-.5.7-1.4.7z"/><path fill="#2c54cf" fill-opacity=".3" d="M415 219q-.1 1.2-1.3.7z"/><path fill="#2b469e" fill-opacity=".3" stroke="#2b469e" stroke-opacity=".3" stroke-width=".5" d="m435.2 498-.4.6h-1.2q.7-.6 1.6-.6Z"/><path fill="#2d51cf" fill-opacity=".3" d="m402.3 213.3-1.3.8q.3-1 1.3-.8"/><path fill="#2b52ce" fill-opacity=".3" d="M460 173q-.3 1-1.3.7zm-23.7 2.3-1.3.7q.3-1.1 1.3-.7M454 195q-.3 1-1.3.7zm-32.7 7.3-1.3.7q.3-1.1 1.3-.7m-41.3.7q-.3 1-1.2.8zm-8 5q-.3 1-1.2.8zm60.3 3.3-1.3.7q.3-1.1 1.3-.7m-93 20-1.3.8q.3-1.1 1.3-.8m125 58-1.3.7q.3-1.1 1.3-.7M423 310q-.2 1.1-1.2.7zm12 9q-.1 1-1.2.8zm-21 13q0 1.2-1.2.7z"/><path fill="#2b51cd" fill-opacity=".3" d="m474.3 153.3-1.2.8q.2-1 1.2-.8m-30 51-1.2.8q0-1.1 1.2-.8m38.6 68.6q0 1.1-1.2.8z"/></svg>