<svg xmlns="http://www.w3.org/2000/svg" style="shape-rendering:geometricPrecision;text-rendering:geometricPrecision;image-rendering:optimizeQuality;fill-rule:evenodd;clip-rule:evenodd" viewBox="0 0 512 512"><path fill="#66d4f1" fill-opacity=".3" d="m178.2 6-.2.9q-.5 0-1.1.3.1-1.2 1.3-1.3m39.8 4 1.1-.1q-.2 1-1.3.9zm-82 8.2q.9 0 1.3.6l-1 .1zm135.3 14q-.6.6-1.3.8.3-1 1.3-.7M299 39q-.3 1-1.3.8zm-23 2c-.3 1.7-3.4 2.7-5 3 .6-1.6 3.4-3 5-3m-32 1q-.1 1-1.2.8zm8.3 1.3-1.3.7q.3-1 1.3-.7M218 44c-.2 1.5-3.6 2.9-5 2.8 1-1.5 3.2-3 5-2.8m53.3 20.2-1.3.7q.3-1.1 1.3-.7m21 6-1.3.7q.3-1.1 1.3-.7m-92 3-1.3.7q.3-1.1 1.3-.7M275 75q-.2 1-1.2.8zm-48.7 15.3-1.3.7q.3-1 1.3-.7M211.9 95q0 1.1-1.2.7zm151 1q-.1 1-1.1.7zm3.4 7.3-1.3.7q.3-1 1.3-.8m-138 4-1.3.7q0-1.2 1.3-.7m148 10-1.3.7q.3-1.1 1.3-.7m-36 1-1.3.7q.3-1 1.3-.8m29 3-1.3.7q.3-1 1.3-.7M272 127c-.2 1.7-3.5 2.8-5 3 .6-1.6 3.3-3 5-3m39 2q-.3 1-1.2.8zm29 2q-.3 1-1.2.8zm-215.7 10.3-1.3.7q.1-1 1.3-.8m-56 4-1.3.7q.2-1 1.2-.8M374 147c-.5 1.3-5.7 4.1-7 3.9.3-1.2 5.6-4.4 7-4m-85.7 1.2-1.3.7q.3-1.1 1.3-.7M299 157q-.1 1.1-1.3.7zm-29.7 2.3-1.3.7q.3-1.1 1.3-.7M32 162q-.3 1-1.3.8zm227 0q-.1 1.1-1.3.7zm-154.7 11.3-1.3.7q.2-1 1.3-.8m175 0-1.3.7q.3-1 1.3-.7m-36 1-1.3.7q.3-1 1.3-.8m-223 2-1.3.7q.1-1 1.2-.8m45 3-1.3.7q.3-1 1.2-.8m22.7.7q-.3 1-1.3.8zm170 3q-.3 1-1.3.8zM37.2 197.2l-1.2.8q.1-1 1.2-.8M237 197c-.3 1.7-3.5 2.7-5 3a6 6 0 0 1 3-2.6q1-.5 2-.4m-173.7 2.3-1.2.8q0-1.1 1.2-.8m310 6-1.3.7q.3-1.1 1.3-.7M43 206q-.3 1-1.3.7zm9.3.3-1.2.8q.1-1 1.2-.8m251 1-1.3.7q.2-1.1 1.3-.7M189 216c-.6 1.6-3.5 2.8-5 3 .5-1.7 3.3-3 5-3m201 2q-.3.9-1.2.7.4-.5 1.2-.8m-370.7 9.2-1.3.7q.2-1 1.2-.7m113.7.7q-.2 1-1.2.8zm-.8 4.2-1.2.8q.3-1 1.2-.8m252.9 8q-.2 1-1.2.8zm-28.7 4.3-1.3.7q.3-1 1.3-.7M131 249q-.1 1-1.3.8zm235.3 8.3-1.3.7q.3-1 1.3-.7m-36 2-1.3.7q.3-1 1.3-.7M321 262q-.3 1.1-1.3.7zm-180 1q-.1 1.2-1.3.7zm177 20q-.1 1.1-1.3.7zm-282 1q-.3 1-1.2.8zm112 4q-.3 1-1.3.7zm157 4c-.4 1.7-3.5 2.8-5.1 2.9 1-1.4 3.3-3 5.1-2.8m-244.8 6.2-1.2.8q.1-1 1.2-.8m70 5q-.5.5-1.2.8.3-1 1.3-.7M81 315c-.2 1.8-3.4 3-4.9 3.2.5-1.8 3.3-2.8 4.9-3.2m81 5q-.2 1-1.2.8zm42.2 6.2-1.2.8q.3-1 1.2-.8M354 329c-.1 1.6-1.9 1.7-3 2q.7-2 3-2m-182 13q-.1 1-1.2.8zm27 3q-.3 1-1.3.8zm-82 1q-.3 1.1-1.3.7zm56 14q-.3 1-1.3.8zm-77.8 5.2-1.2.8q.1-1 1.2-.8M262 378.1q0 .5-.5.8l-9.2 6-.4-1.3q.4-.6 1-1c2.1-.8 7.3-4.9 9-4.6m38 3.9q-1 1.9-3.1 2 .7-2 3-2m-172 4q-.2 1-1.2.8zm2.3 7.3-1 .6q0-.9 1-.6"/><path fill="#66d4f1" fill-opacity=".4" d="M311.3 41q-.6.6-1.3.7.4-.7 1.3-.6m-40.2 3c-1 1.5-3.2 3.1-5.1 3 1-1.5 3.2-3 5-3m-61.2 5c-.2.7-1.3 1.7-2 .7q.8-1 2-.8m30.4 1q-.6.5-1.4.8.4-.8 1.4-.8m20 14.3q-.7.7-1.6.7.6-.6 1.6-.7m29 1.9a2 2 0 0 1-1.6.7q.7-.5 1.5-.7m-90.2 5q-.5.8-1.4.7zm-3.8 5-1.3.6q.3-.9 1.3-.7M99.9 79q-1 1.8-3 2.2a3 3 0 0 1 3-2.2m140.5 3q-.6.5-1.4.8.3-.8 1.4-.8m20.9 6.1q-.4.5-1.2.6.3-.7 1.2-.6M169 91c0 .9-1.3 1.7-2 .8q.8-1 2-.8m197.2 3.3q-.6.7-1.5.7.7-.5 1.5-.7m-151.9 3-1.2.6q.1-.9 1.2-.7m-13 5q-.6.8-1.7.8.7-.6 1.6-.8m24.7 4q-.3.8-1.3.8zm128.3 4-1.2.5q.3-.7 1.2-.6m7.4 6.7q0 1-1 1zM96.2 127.1q-.5.6-1.3.7.4-.9 1.3-.7m247 2.1q-.5.8-1.4.7.5-.6 1.3-.7m-76.1.8c-1.1 1.5-3.2 3.2-5.2 3 1-1.6 3.3-3 5.2-3m-204 1q-.5 1.3-2 1 .5-1.2 2-1m275.3 8.1q-.6.5-1.2.7.2-.9 1.2-.7m-17.6 3.9q0 1-1 .9zM63 144.2q-.4.8-1.4.7zm55.4.9-1.4.7q.4-.8 1.4-.7m225 8q-.7.6-1.5.7.6-.7 1.4-.7m-41.1 2.1q-.6.8-1.7.8.7-.6 1.7-.8m-254 2.8q-.6.6-1.4.7.5-.7 1.4-.7m340 0q-.6.5-1.4.8.4-.8 1.5-.8M88 160.2q-.3.9-1.3.7zm236.4 4q-.6.4-1.4.6.5-.7 1.4-.7m-67 1.8q-.6.6-1.3.8.3-.9 1.3-.8m60 2q-.6.6-1.3.7.4-.7 1.3-.6m-241 4.1-1.5.7q.6-.7 1.5-.7m23.8 1.2q-.5.6-1.4.7a2 2 0 0 1 1.4-.7m139.7.7q0 1.1-1 1 .3-.6 1-1m-138.6 1q-.6.6-1.3.8.4-.7 1.3-.7m197 4.2a2 2 0 0 1-1.4.5q.5-.8 1.4-.5m-30.8 1-1.4.5q.4-.7 1.4-.6m-6.3 1q-.4.7-1.3.7zm75.2 7-1.3.6q.3-.9 1.3-.7m44 8q-.7.7-1.6.7zM184 199.2a9 9 0 0 1-5 3c1-1.6 3.1-3.4 5-3m-167 2q-.3 1-1.3.7.6-.5 1.3-.6m31 2q-.3 1-1.2.8.4-.6 1.2-.7m252.1 3.2q-.5.6-1.4.6.6-.6 1.4-.6M49.3 208a3 3 0 0 1-1.5.7q.6-.7 1.5-.7m304 5.3q-.7.6-1.6.7.7-.6 1.6-.7m50 3.8q-.5.5-1.2.6.4-.7 1.3-.6M22 218.3q-.3.9-1.2.7.5-.6 1.2-.7m374.3 2.8-1.2.7q.3-.9 1.2-.7m-53.9 2q-.6.4-1.3.6.4-.7 1.3-.6m39.8.1q-.4.8-1.3.8.6-.6 1.3-.8m-213 4q-.4.9-1.4.6zm233.2 2a2 2 0 0 1-1.5.7q.7-.6 1.4-.7m-76.2 1.1q-.6.7-1.5.7.7-.6 1.5-.7m-164.3.8q0 1-1 .8.3-.5 1-.8m-32.6 2.9q-.6.5-1.4.7.5-.6 1.4-.7m277.2.1-1.3.7q.3-.9 1.3-.7m-81 27.9-1.3.8q.2-1 1.3-.8m23.8 1.3a2 2 0 0 1-1.4.6zM67 266q-.2 1-1.1.8zm246.3 1.2q-.4.8-1.5.6zm-176.8.7q-.7.6-1.5.7.5-.7 1.5-.7m42.5 2.3q-.2.8-1.1.5zm-88 2q-.3.9-1.2.7zm37.4.7q-.7.6-1.5.8a2 2 0 0 1 1.5-.8m-62 1q-.7.6-1.5.8.6-.8 1.5-.7m269 1q-.6.6-1.3.8.4-.8 1.3-.7m-215 3q-.7.6-1.6.7.7-.6 1.6-.6m171.6 3c0 .8-1.2 1.6-1.8.7q.6-1 1.8-.8m-227 6.2q-.3.9-1.2.7zm3.4 5.9a3 3 0 0 1-1.5.7q.6-.8 1.6-.7m137.8 2q.3-1.1 1.4-1.2c1.2.7-1 1.3-1.4 1.1m93.8-.2q-.8 1.9-2.8 2.2.5-2.2 2.8-2.2m-217.7 2.3q-.4.9-1.5.8.7-.6 1.5-.8m-36.3 1q-.3.8-1.3.7zm29 3q-.3.9-1.3.8zm33 10q-.1.8-1.2.8zm142 4.7c-.2 1.4-3.6 3.2-5 3 1-1.5 3.2-3 5-3m-141.7 1q-.5.6-1.3.8.4-.7 1.3-.7m104 4.2-1.2.6q.3-.7 1.2-.6m-9.4 3q-.1 1-1.1.8zm-120.7 2.1q-.5.7-1.3.7zm121.8 16q-.3.9-1.3.7.6-.5 1.3-.6m-82 1q-.3.8-1.3.8zm54.3 1a2 2 0 0 1-1.3.5q.4-.6 1.3-.6m29 .8a2 2 0 0 1-1.4.7 2 2 0 0 1 1.4-.7M96 358.2q-.3.9-1.3.7.6-.6 1.3-.7m84.4 2.9q-.7.5-1.5.7.4-.8 1.5-.7m-37.1 4q-.6.4-1.4.6.4-.7 1.4-.6m76.6 11.9q-.5 1.2-2 .9.8-1 2-.9M106 380.3q-.3.5-1 .8.4-.5 1-.8m27 3q-.3.7-1.3.7.6-.5 1.4-.7m67 18.6q-.8 2-3 2.2.8-2 3-2.2"/><path fill="#66d4f0" fill-opacity=".3" d="m157.7 17 1.6.3-1.2.8zm120.7 11-1.2.9q0-1 1.2-.8m29.3 26q0 1.1-1 .9zm-29.4 6.2-1.4.6q.5-.7 1.4-.6m-134.1.8c-1 1.3-3.5 3.2-5.2 3q2-2.7 5.2-3m152.5 0q0 1-1 1zm-84 1q0 1-1 1zm44 4q0 1-1 .9zm42.6 0q-.7.6-1.5.8.6-.8 1.5-.8m-13.6 2.1q0 1-1 .8zm-78.4.9-1.1 1q0-1 1-1m52 2-1.2.8q.2-.9 1.1-.7m-7 4.1-1 1q0-1 1-1m21.1 6q-.5.6-1.1.9 0-1 1.1-.9M172.1 89q-1 2-3.1 2 .9-2 3-2m82.2 3a2 2 0 0 1-1.2.8q.3-.8 1.2-.8m-9.5 2q0 1-1.1 1zm-11 7q0 1-1 1 .3-.6 1-1m-36 3q0 1-1 .8zm183.3 1q-.3 1-1.5.9zm-48.4 10q0 1-1 .9zM205 120c-.9 1.6-2.9 3.3-5 3 .4-1.4 3.6-3 5-3m145.7 4q0 1.1-1 .9zm-255 1q.1 1.1-.9.8zm3.6 0-1 1q-.2-1 1-1m278.5 2q0 1.2-1.1 1zM141 130c-.7 1.6-3.3 2.8-5 3.1.7-1.8 3.2-3 5-3.2m209.4 2-1 1q-.2-1.1 1-1m19.4 0q0 1-1.2 1zm-8 5q-.1 1-1.2 1zm.5 5-1.5.7q.5-.6 1.5-.7m-241.1 1-1 1q0-1.1 1-1m210.2 0a2 2 0 0 1-1.4.7q.5-.7 1.4-.6m-36.1 1-1 .9q0-1 1-1m60 2-1 1q0-1 1-1m-74.6 2q0 1-1 .9zm29 2q0 1-1 1zm90.7 1-1 1q-.1-1.1 1-1m-298.6 1q0 1-1 1zm-50.5 4-1.2 1q.1-1 1.2-1m324.5 2q0 1-1.2 1zm-351 8q0 1-1 1zm349.6 0-1 1q-.1-1.1 1-1m-298.6 1q0 1-1.1 1zm31 2q.1 1-1 .8zm-27.6 1-1 1q0-1 1-1m277.6 0q0 1-1 .9zm-1.5 7a2 2 0 0 1-1.5.8q.6-.7 1.5-.7m-298.6 1q0 1-1 .9zm-6.4 4.2q-.6.8-1.6.6.7-.5 1.6-.6m30.5 1.8q0 1-1.1 1zm172.5 4.1q-.3.6-1 .8 0-1 1-.8m-157.3 6a7 7 0 0 1-5 2.9c.8-1.7 3.2-3 5-3m284.4 7q-.7.4-1.7.6.7-.6 1.7-.6m-218.2 12-1 .9q-.1-1.2 1-1m126.6 0q0 1-1 .8zm65.5 2.9-1 1q0-1 1-1m-324 4q-.4.6-1 1 0-1.1 1-1m110 7-1 1q0-1 1-1m32 0-1.1.9q0-1.2 1.1-1m163 0a2 2 0 0 1-1.5.7q.6-.8 1.6-.7m-209.6 5q0 1-1 1zm242 0q0 1.1-1 1zm-218 6q0 1-1 1zm207 1q0 1-1 1zm6.6 1.2q-.7.5-1.5.6.6-.7 1.5-.6m-253 5.8-1 1q0-1 1-1m32 .1-1 1q0-1 1-1m-18.6 7q0 1-1 .9zm249.6 0a3 3 0 0 1-1.6.7 2 2 0 0 1 1.6-.7m-35.9 2-1 1q0-1.1 1-1m22.3 1q.2 1-1 .8zm-14 8.9q.1 1-1 1zm-212 2q.1 1-1 1zm213.6 1q-.5.7-1 1 0-1 1-1m-246 4.1-1 .9q0-1 1-.9m-46.5 1q0 1-1.1.8zm112 4q0 1-1.1 1 .4-.7 1-1m-108.4 2-1.2.9q0-1.1 1.2-1m110 0-1.1.9q0-1 1-.9M28.6 288q0 .8-1 .9a2 2 0 0 1 1-1m112.5 4.2q-.6.8-1.6.7zM52.7 294q0 1-1 1zm35.6 4-1 1q-.1-1 1-1m50 .1-1.1.9q0-1 1-.9m-75.6 9.8q0 1.2-1.1 1zm118 1q.1 1.3-1 1zm-80.4 13.2-1 .8q0-1 1-.8m-52 .9a3 3 0 0 1-1.5 1q.4-1 1.5-1m142.4 8q0 1-1 1zm-121 2q.2 1-1 1zm122 16q0 1-1 1zm-81.9 1q0 1-1.1 1zm47.5 6.1-1 .9q0-1 1-.9m-54 4-1 .8q0-1 1-.9m63 4.2q-.7.6-1.6.6a3 3 0 0 1 1.5-.6m3 3.8-1.1.8q0-1 1-.8m-28 17.9-1 1q0-1.1 1-1m38.8 2q-.7 1.2-2.1 1 .6-1.3 2-1m17 16c-.6 1.3-3.7 2.9-5 3 .7-1.5 3.1-3.3 5-3"/><path fill="#66d4f1" fill-opacity=".4" d="M304.3 45q-.7.6-1.5.7a2 2 0 0 1 1.5-.6m14.5 2.1q0 1-1 .8zm6.6 4q-.7.6-1.5.6.4-.8 1.5-.6m-198.6 2q0-.7.8-1c1 .6-.4 1-.8 1m106.6 1q-.7.6-1.6.6a2 2 0 0 1 1.6-.6M228.7 84q0 1-1 1zm4.6 2-1.3.8q.3-.8 1.3-.8m22.5 1q-.2 1-1.2 1zm117.5 12-1.3.8q.3-.8 1.3-.8m-166 2q-.6.8-1.4.8.4-.8 1.5-.7m136.4 7q.1 1-1 1zM116 114c-.5 1.5-3.7 3-5.1 3 .8-1.4 3.3-3.2 5-3m231.3 0q-.7.6-1.5.8.6-.7 1.5-.8M174 120q-.6 1.3-2 1 .5-1.4 2-1M61 132a8 8 0 0 1-5 3.1c.6-1.8 3.3-3 5-3.1m21.4 4-1.1 1q0-1.1 1-1M70 140.3q-.4.8-1.5.8zm51 1q-.3.9-1.3.6.7-.5 1.3-.6m170.6-.2q0 1-1 1zm54 6q.2 1.1-1 1zm21.2 4q-.8 2-2.9 2a3 3 0 0 1 3-2m-259.6 1-1 1q0-1 1-1m230.4 0q0 1.1-1 .9zM134 154q-.6 1.2-2 1 .5-1.3 2-1m195.7 3q.1 1-1 1zM34.3 167l-1 1q0-1 1-1m245.4 2q0 1-1 .9zm-29.4 1-1 .7q0-.9 1-.7m60 2.1q-.6.6-1.5.7.6-.9 1.5-.7m-275.4 7a3 3 0 0 1-3 1.8 3 3 0 0 1 3-1.9m58.4 1-1 1q0-1 1-1m244.5 2q0 1-1 .8zm68.5 4q-.7.6-1.5.7.5-.7 1.5-.7m-324 .9-1 1q0-1 1-1m305.5 4q0 1-1 1 .3-.6 1-1m-58.5 1q-.6.8-1.5.8.6-.8 1.5-.8m-10.5 2q0 1-1.1 1zm-294.6 3.2q-.5.9-1.4.8.6-.6 1.4-.8m31 2q-.7.8-1.6.8.8-.5 1.5-.7m57.8-.2a7 7 0 0 1-5 3q1.9-2.5 5-3m-92.7 9-1.2 1q0-1 1.2-1m340.5 0q0 1-1 1zM29 214.2q-.3.8-1.3.8zm122.4 5.8-1.1 1q0-1 1-1m182.4 5.1q-.1 1-1.2.8zm55.5-.1q-.7.6-1.5.8.5-.9 1.5-.8m10 13q-.6.6-1.4.8.5-.8 1.4-.8m-53.6 8q0 1-1 1zm28.2 1q-.1 1.1-1.3 1zm-206 1c.2 1.1-1.2 1-1.9 1q.6-1.3 2-1m-68.7 5-1 .9q0-1 1-1m32.2.1-1.2 1q0-1.1 1.2-1m-57.5 9.1q-.2.9-1.1.7zm24.2 6q-.5.9-1.4.7zM90.4 279l-1.1.8q0-1 1-.8m204.7-.2a3 3 0 0 1-3.2 2q1-1.8 3.2-2m33.3.2-1.3.7q.3-.7 1.3-.7M72 283.2q-.3.8-1.3.7zM367 295q-.5 1.3-2 .9a2 2 0 0 1 2-.9M49.4 305l-1 1q0-1.1 1-1m187.7 0a2 2 0 0 1-2 1q.5-1.2 2-1m-121.9 2.2q-.4.9-1.5.7zm-42.8 1-1 .8q0-1 1-.9m112 .9-1 .8q-.2-1 1-.8m-65 1-1.1.9q0-1 1.1-1M86 312q-1 1.5-2.9 2 .6-2.1 2.9-2m-21.7 1-1.2.9q.3-1 1.2-1m-8 5-1 .8q0-1 1-.8m153.5 2q0 1.1-1 1 .4-.6 1-1M89 322.3q-.3.8-1.3.6zm68.4 3.7-1 .9q0-1 1-.9m65 8-1 1q0-1.1 1-1m-11.2 4.3q-.5.8-1.4.6zm-81.8 1q-.7.5-1.5.6.7-.6 1.5-.6m50 2.8-1 .9q0-1 1-1M113 376q-.1 1-1.2.9zm42.4 1-1 .8q0-1 1-.8m62.6.8q-.9 2-3 2.2.9-2 3-2.2m-77.6 1.4q-.7.8-1.6.6.7-.5 1.6-.6"/><path fill="#66d4f2" fill-opacity=".4" d="M267.2 27.2q-.5.9-1.6.8.7-.6 1.6-.8m6 3.8-1.3.7q.5-.7 1.4-.7m18 13.2q-.6.7-1.5.7.6-.5 1.4-.7m31 1q-.6.8-1.5.7zm-45 8q-.6.8-1.5.8.7-.6 1.5-.7m-58.1 5q-.5.9-1.4.7zm75.1 10.9-1 .7q0-.9 1-.7m-91.9 3q-.6.5-1.3.6.3-.7 1.3-.7m45 6-1.3.7q.3-.9 1.3-.7m21 6q-.6.4-1.3.6.4-.8 1.3-.6m-9.1 1.2q-.5.7-1.5.7.6-.6 1.5-.7m-55 15q-.5.7-1.5.7zm142.7 6q-.3.8-1.2.7zm18.2 8.9q-.4.8-1.5.7.7-.5 1.5-.7m16 10.1q-.5.8-1.4.6.6-.4 1.3-.6M144 128q-1 2-3.1 2a4 4 0 0 1 3-2M93 129l-1.1.8q.1-1 1.1-.8m-53 3a7 7 0 0 1-4.9 3c.8-1.5 3.2-3.1 5-3m305.5 3.1q-.6.6-1.4.6.5-.7 1.4-.6m-50.2 4.2a2 2 0 0 1-1.5.6q.7-.6 1.5-.6m29 2a2 2 0 0 1-1.5.6q.7-.4 1.6-.6m-34 5.8q-.5.4-1.1.6.3-.7 1.1-.6m60.2 2-1.4.7q.3-.9 1.4-.7m44.9 5-1.3.7q.3-.8 1.3-.7m-350 6q-.7.4-1.5.6.7-.7 1.6-.6m219 2-1.4.7q.5-.9 1.4-.8M30 163q-.2 1-1.1 1zm82.2 3q-.4 1-1.3.7zm171 1.2q-.5.6-1.4.6zm77 .9q-.5.7-1.4.7zm9.2.9-1.3.7q.4-.7 1.3-.7m27.7 5c.4-1.5 3.3-2.8 4.6-3.2 1.2 1-3.6 3.4-4.6 3.2m-154-2q-.2 1.1-1.3.8zm98 8.2q-.4.7-1.2.7zm-255.1 1q-.3.8-1.2.7.5-.5 1.2-.7m4.4.8-1.5.7q.5-.8 1.5-.7m-11 7q-.7.5-1.5.7.6-.7 1.5-.8M101 191a9 9 0 0 1-5 3 6 6 0 0 1 5-3m-55.6 1-1.6.8q.6-.8 1.6-.7m330 12.1-1.4.7q.4-.8 1.3-.7m-218.5 10q0 1-1.2.8zm192.4 4.9-1.3.8q.4-.9 1.3-.8M15 222.3q-.4.7-1.4.7.7-.6 1.4-.7m133.4-.3q-.7.6-1.6.8.6-.9 1.6-.8m-132.1 7q-.7.6-1.6.7.7-.6 1.6-.7m114.8.2q-.5.7-1.5.7.8-.5 1.5-.7m129.8 1.7q-.6 2.4-3 2a5 5 0 0 1 3-2m-106 4.3q-.2.8-1.1.8.5-.6 1.1-.8m163.3 0q-.4 1-1.4.8.6-.6 1.4-.8m73 1q-.6.8-1.6.7.8-.5 1.5-.7m-42.1 8q-.5.8-1.4.8.6-.6 1.4-.7m-220.1 6q-.4 1-1.3.8.6-.5 1.3-.7m209.1 1q-.4.9-1.4.7zM96.3 255q-.7.6-1.5.7.5-.7 1.5-.7m32 0q-.7.6-1.5.8.4-.9 1.5-.7m240 1-1.3.7q.4-.7 1.3-.7m-36 2.1-1.2.7q.3-.9 1.2-.7m-193.3 6c.2 1-.8.6-1.3.7zm251 3.9c-.1 1.3-2 1.6-3 2q.8-2 3-2m-205.8 1q-.6.6-1.5.7.5-.9 1.5-.7M60 270.2q-.3.9-1.3.7.6-.5 1.3-.7m282.4.8-1.4.8q.4-.8 1.4-.8m-170.5 3.3q-.3.8-1.2.6zm152.2 5q-.5.8-1.4.6.6-.4 1.4-.6M87.2 281q-.7.4-1.5.6a2 2 0 0 1 1.5-.6m-53.1 4.2q-.5.6-1.3.6.6-.4 1.3-.6m10.2 2.8-1.5.7q.5-.8 1.5-.7m101.6 1.1q-.3.9-1.3.7a3 3 0 0 1 1.4-.7m-88 2q-.2.8-1.2.7zm239.2 5.9c-.4.7-1.5 1.5-2 .6q.6-1 2-.6m-229 8q-.5.9-1.4.9zm117.9 1.2q-.3.9-1.4.6.6-.4 1.4-.6m-139.6.7a3 3 0 0 1-1.6.7q.7-.6 1.5-.7m69.8 5.1q-.6.6-1.3.6.5-.6 1.3-.6m79.7 16.2q-.3.8-1.1.6a2 2 0 0 1 1.1-.6m-120.8 2q-.5.6-1.3.6zm95 13q-.4.8-1.3.7l1.2-.7m21.2 10.7q-.7.6-1.6.8a2 2 0 0 1 1.6-.8m-20.2 7.2q-.6.7-1.4.8.6-.6 1.4-.8m-82 1q-.5.9-1.5.8zm11.2-.1q-.7.6-1.5.7.6-.7 1.5-.7m18 19-1.5.7a2 2 0 0 1 1.5-.8m64.8 5a4 4 0 0 1-3 2q.8-2 3-2m-44.8 2-1.4.7q.4-.8 1.4-.8m61.6 13.8c.4-.6 1.4-1.5 2-.7q-.8 1-2 .7"/><path fill="#66d4f1" fill-opacity=".4" d="M264.2 29.2q-.4.8-1.5.8zm24 17q-.5.7-1.5.7.7-.5 1.5-.7M214.5 65q-.6.5-1.4.6.5-.8 1.4-.6m65.8 12-1 .7q.2-.9 1-.7m-13 3q-.6 1-1.5.8a3 3 0 0 1 1.5-.7M214.7 93q0 1-1 1zm140.4 8.3q-.5.6-1.4.6zm-119.7 1.9-1.3.6q.3-.9 1.3-.6m16.6 4.7q-.5 1.4-2 1.1.5-1.2 2-1m121.1 2.3q-.4.9-1.3.8.5-.6 1.3-.8m10.2 2.9-1.2.6q.3-.8 1.2-.6M251 124a4 4 0 0 1-3.2 2q1-2 3.2-2m106.2 4q-.4.6-1.2.8.2-1 1.2-.8M89 129.2q-.4.8-1.3.7zm214.3 5q-.7.8-1.6.8zm28.9 2q-.4.8-1.5.7.7-.5 1.5-.7m-30 3.9q-.5.4-1.1.6.2-.7 1.2-.6m51.6 2q0 1-1 .9zm-288.5 5-1 .8q0-1 1-.9m321.8 4.2q-.5.7-1.4.6zm-23 1.6a2 2 0 0 1-2 1.1q.5-1.2 2-1m-87.8 2.1q-.4.6-1.1.8.2-.9 1.1-.8m14.8 7.2q-.4.9-1.4.7.7-.5 1.4-.7m31 0q-.5.7-1.4.7zm-71 5q-.5.7-1.4.7zm63.2.1q-.6.8-1.6.6.7-.5 1.6-.6m-28 1.8q-.5.4-1.3.6.5-.6 1.4-.6M69 171.3q-.3.8-1.2.6.5-.5 1.2-.6m237.2.9q-.5.7-1.4.7zm56.1.9-1.2.6q.3-.7 1.3-.6m-93.5 3q0 1-1 .8zM37 178q-.6 1-2 1 .6-1.3 2-1m37 10q-.4 1-1.4.8zm176.2 0q-.3 1.1-1.4 1zm-202 2q-.6.6-1.4.7.5-.7 1.5-.7m226.8 1.8a3 3 0 0 1-1 1.4 5 5 0 0 1-4.1 1.6q2-2.4 5-3M71.3 194q-.7.5-1.5.7.6-.7 1.5-.7m290 18q-.5.5-1.2.8.3-1 1.3-.8m-245.2.9a15 15 0 0 1-7.2 4q.9-1.5 2.4-2.1c1.6-.3 3.2-2.4 4.8-2m277.2 3.2q-.7.7-1.6.7.7-.5 1.6-.7m-241.6.7q0 1-1 1zm132.6 1.2q-.7.5-1.5.7.4-1.1 1.5-.7M145 221.1q-.4.8-1.3.6zm-25.9 15q-.4.7-1.3.6zm269.1 2q-.4.8-1.3.6.6-.6 1.3-.6M143 242q-.3 1-1.2.8zm157.2 5c-1 1.4-3.3 3.2-5 2.8.3-1.2 3.6-3.1 5-2.8m44.3 4-1.3.7q.3-.9 1.3-.8m-9.6 1.9q0 1-1.1 1zM206 255q-.5 1.2-1.8 1.1.4-1.5 1.8-1m-89 2.2q-.3.9-1.2.7.5-.4 1.3-.7M88.4 260l-1 1q0-1 1-1m32 0q-.8.6-1.5.8a2 2 0 0 1 1.5-.8m234 4-1.4.7q.6-.7 1.5-.6m40.6 1c-.2 1.4-3.5 3.3-5 3a9 9 0 0 1 5-3m-268 6.3q-.3.8-1.2.6.6-.6 1.3-.6m-79 5.9q-.3 1-1.3.8.6-.5 1.3-.8m112 4q-.3.9-1.3.7zm161-.1q0 1-1 .7zm-242 4.8q-.6.5-1.4.8.5-.9 1.4-.8m78 0q-.7.7-1.6.7a3 3 0 0 1 1.6-.7m-53 2q-.7.6-1.5.8.6-.8 1.6-.7m-8 5q-.7.7-1.6.7.7-.7 1.5-.6m37.6 3.3q-.3.8-1.3.6zM88 311q-.5 1.3-2 1 .5-1.2 2-1m-32 1.1q-.3 1-1.3.8l1.2-.7m117.8 1.2q-.2.8-1.1.6.5-.4 1.1-.6M89.3 329a3 3 0 0 1-1.6.7q.7-.7 1.6-.7m261.7 2c0 .8-1.3 1.7-1.9.7q.7-1 1.9-.8m-160.8 4q-.5.6-1.3.8.3-.8 1.3-.8m-127.4 2.2q0 1-1.2.7zm102.2 9.1q-.4.7-1.3.7zm-7 4q-.4.8-1.3.6zM88 352c.1 1.1-1.4 1-2 1q.5-1.3 2-1m106.3 0q-.7.6-1.5.8.5-.8 1.4-.7m-9.4 1.3q-.3.8-1.2.6.4-.5 1.2-.6m-73.6 1.7q-.7.6-1.5.8.4-.8 1.5-.8m47.6 13.3q-.3.7-1.1.6zm7.4 1.8q-.6.5-1.5.6a2 2 0 0 1 1.5-.6m-45 8.9-1 1q0-1 1-1M224 27a4 4 0 0 1-2.9 2.1q.6-2.1 3-2m42.3 8-1.4.7q.5-.9 1.4-.7m-.3 12q-.5 1.3-2 1 .5-1.4 2-1m-32.8 2.2q-.7.7-1.6.7.7-.6 1.6-.7m59.2 3-1.4.6q.4-.7 1.4-.7m20.9 5.8-1.4.7q.5-.7 1.4-.7m-13 1.3q-.7.6-1.7.6zm-79 1.7q-.6.5-1.3.8.3-1 1.3-.8m45 6.1-1.2.6q.3-.7 1.3-.6m-20.2 6q-.4.9-1.3 1 .6-.6 1.3-1m41.1 0q-.4.4-1.2.7.3-.8 1.2-.8m-102 7.2q-.5.8-1.4.6zm52 19q-.6.8-1.5.6.6-.4 1.4-.6m-41.9 9q-.6.3-1.3.3.3-.7 1.3-.4M354.2 122q-.5.7-1.4.7zm-154 .8a4 4 0 0 1-3.1 2q.8-2.2 3-2m164.2 1.1-1.3.7q.3-.9 1.3-.7M82 133.3q-.4.7-1.3.6.6-.4 1.3-.6m227.3 2.8-1.3.7q.3-.8 1.3-.7m-230 2q-.7.5-1.5.7.6-.8 1.5-.8m290 0-1.3.6q.5-.7 1.4-.6m28.9 6.2q-.5.7-1.4.6.6-.5 1.4-.6m-85 4q-.5.7-1.5.7.8-.6 1.5-.8m-30 2.8q-.4.4-1.2.7.3-.9 1.3-.7m-10 2.1q-.5.8-1.4.8.6-.6 1.4-.8m-168.8.8a3 3 0 0 1-1.6.8q.6-.8 1.5-.8m-14.2 9q-.5.6-1.4.8.5-.8 1.5-.8m203.1 2.1q-.6.4-1.3.6.4-.7 1.3-.6m-181 3-1.6.6q.6-.6 1.5-.5m-81 1-1.5.7q.5-.9 1.5-.8M222 186c-.8.9-4 4-5 2.5 1-1.2 3.1-2.6 5-2.5m108.1 1q-.5.9-1.4.8.6-.5 1.4-.7M36 190.3q-.3.9-1.3.8zm31 2.1q-.4.8-1.3.6zm327.3.8-1.4.6q.5-.7 1.4-.6m-83.2 6.2q-.5.6-1.3.6.6-.5 1.3-.6m6.2-.3q-.6.5-1.2.7.3-.8 1.2-.7m51 9.1q-.6.4-1.4.6.6-.7 1.4-.6m-351 2-1.4.7q.5-.8 1.4-.8m274 4-1.2.7q.2-.9 1.2-.7m-253 .9q-.5.6-1.4.8.5-.8 1.4-.8m99.8 10.3q-.5.7-1.4.6.6-.5 1.4-.6m233 5q-.5.6-1.4.6zm6.2 1.7q-.6.5-1.2.7.3-.8 1.2-.7M112 240.2q-.5.7-1.4.7.6-.5 1.4-.7m6.2 1q-.6.4-1.4.6.4-.8 1.4-.7m32-.1-1.5.6a2 2 0 0 1 1.5-.6m237 4-1.4.7q.6-.7 1.4-.7m-251.4 1q-.2 1-1.3.9zm215.5 1-1.4.7q.5-.9 1.4-.7m11.7 7.2q-.5.7-1.4.7.6-.6 1.4-.7m-1.7 5.8q-.6.5-1.4.6.5-.7 1.4-.6M110 261.3q-.4.8-1.4.7zm34.4 1.8q-.8.4-1.7.6.6-.7 1.7-.6m-35 3.9q-.7.6-1.5.7.5-.8 1.4-.7m10.7 8.3q-.6.7-1.5.7.7-.5 1.5-.7m-79 6q-.5.8-1.4.6.6-.4 1.3-.6m14.2-.3q-.6.6-1.4.8.5-.8 1.4-.8m97.7 4.2q-.4.9-1.3.7zm240.7 6.2q.3-1.5 1.8-1.5c1.2 1-1.3 1.3-1.8 1.5M146.3 293l-1.5.7q.6-.7 1.5-.7m-19.4 7q0 1-1.2.8zm-88 2.2q-.3.6-1.2.5zm88.4 2.8q-.7.5-1.6.7a2 2 0 0 1 1.6-.7m-78.4 11.1q-.3 1-1.2.8zm118.2 1q-.5.9-1.5.8zm66.2 9.9-1.5.6q.5-.9 1.5-.6m-87 6q-.7.5-1.5.7.5-.9 1.6-.7m-68 3q-.7.6-1.5.7.6-.7 1.5-.7m141 0-1.5.6q.7-.6 1.6-.7m-42.4 3q-.3 1-1.2.8zm-57.7 11q-.7.4-1.5.6.8-.5 1.5-.6m31.8 4.2q-.4.8-1.3.6.5-.5 1.3-.6m27 3q-.4.8-1.4.6zm-23.7.8q-.7.5-1.5.6.7-.7 1.5-.6m-62 8.9a3 3 0 0 1-1.6.7q.7-.7 1.5-.7m59.6 5.3q-.3.8-1.2.6zm.3 6.7q-.7.5-1.5.7.7-.6 1.5-.7"/><path fill="#66d4f0" fill-opacity=".3" d="M258 33q-.3 1.1-1.3.7zm58 16q-.3 1-1.3.7zm-25.7 4.3-1.2.8q0-1.1 1.2-.8m21 6-1.2.8q0-1.1 1.2-.8m-92 3-1.2.8q0-1.1 1.2-.8M210 64q-.1 1-1.2.8zm44 4q-.3 1.1-1.3.7zm-1 21q-.3 1.1-1.3.7zm10.9 11.2.2 1c-1.7 1.3-7.1 5.2-9.1 4.7 1.2-1.5 6.8-4.6 8.9-5.7m-63.6 5q-.6.5-1.3.8.3-1.1 1.3-.7m159 2q-.6.5-1.3.8.3-1 1.3-.7m-166 2-1.2.8q0-1.2 1.2-.7M330 117q0 1-1.2.7zm3.4 5.3-1.3.7q.3-1 1.3-.7M84 132q-.3 1-1.3.7zm216 4q-.3 1.1-1.3.7zm7.3 1.3-1.2.7q.2-1 1.2-.7m60 2-1.2.7q.2-1.1 1.2-.7M289 143q-.3 1-1.3.7zm29 2q-.3 1.1-1.3.7zm-.7 6.3-1.3.7q.3-1.1 1.3-.7m66.6 1.6q0 1.2-1.2.8zm-329.6 1.4-1.2.8q0-1 1.2-.8m272.6 4.6q0 1-1.2.8zm-8 5q0 1.2-1.1.8zm-27.6 2.4-1.2.7q0-1.1 1.2-.7m-209 2-1.2.8q0-1 1.2-.8m165.6.6q0 1.2-1.2.8zm55 5q0 1.2-1.2.8zm.4 2.4-1.2.7q0-1.2 1.2-.7m-31 1-1.2.7q0-1.1 1.2-.7M32 180.9q-.4 1.5-2 1.2.5-1.4 2-1.2m53.3 4.4-1.2.8q.1-1 1.2-.8m256 0-1.3.7q.3-1 1.3-.7M38 189q-.3 1-1.3.8zm31 2q-.3 1-1.3.8zm323.3 3.3-1.2.7q0-1.1 1.2-.7m-77 6-1.3.7q.3-1 1.3-.7m96.8 3.6q-.3 1-1.4.8zM297 208q-.3 1.1-1.3.7zm-7.7 7.3-1.3.7q.2-1.1 1.3-.7m-135 3-1.2.8q0-1.1 1.2-.8M410 224q-.3 1-1.3.8zm-79 3q-.2 1-1.2.8zm44.3 6.3-1.2.7q0-1.1 1.2-.7m-54 2-1.3.7q.1-1.2 1.3-.7M114 239q-.2 1.1-1.3.7zm271.3 7.3-1.2.7q0-1.1 1.2-.7M343 248q-.3 1-1.3.8zm6.3.3-1.2.7q0-1.1 1.2-.7m-215 3-1.2.8q0-1 1.2-.8M88 254q-.3 1-1.2.8zm3.3 4.3-1.2.8q0-1 1.2-.8M357 258q-.1 1-1.2.8.4-.5 1.2-.8m-245 2q-.3 1-1.3.8zm10 14q-.3 1-1.3.8zm-36 1q-.3 1-1.2.8zm37.3 1.3-1.2.8q.1-1 1.2-.8m-8 5-1.2.8q0-1 1.2-.8m45 3-1.2.8q0-1 1.2-.8M96 289q-.3 1-1.3.8zm-56.7 2.3-1.2.8q0-1.1 1.2-.8M129 299q-.3 1-1.3.8zm40 17q-.3 1-1.3.8zm56 14q0 1-1.2.8zm-82 1q-.3 1-1.2.8.4-.5 1.2-.8m82.3 1.3-1.2.7q0-1.2 1.2-.7m-84 4-1.2.8q0-1.1 1.2-.8m-68 3-1.2.8q0-1.1 1.2-.8m109 1-1.2.8q0-1.1 1.2-.8m-68 13-1.2.8q0-1.1 1.2-.8m38.7-.3q-.3 1-1.3.8zm19.3 13.3-1.2.8q0-1.1 1.2-.8M127 368q-.3 1-1.3.8zm27 3q-.3 1-1.3.8zm4.3 4.3-1.2.7q0-1 1.2-.7m-45 9-1.3 1q0-1.3 1.3-1"/><path fill="#66d4f1" fill-opacity=".3" d="M275 22q-.1 1-1.2.8.4-.5 1.2-.8m-46 2a3 3 0 0 1-3 2q.7-2 3-2m16.3 23.3-1.3.7q.3-1 1.3-.7M133 48.8q-.7 2.2-3 2.2.9-2 3-2.2m94 4.1q-.1 1.1-1.3.8zm13 24q-.1 1.1-1.3.8zm24 5q-.3 1-1.3.8zm-38 4q-.1 1.2-1.3.8zm-6.7 8.4q-.6.5-1.3.7.3-1.1 1.3-.7m21 6-1.2.7q.2-1 1.2-.7M352 103q-.3 1-1.3.8zm18 9q-.2 1-1.2.7zm-26.7 24.3-1.3.7q.3-1.1 1.3-.7M329 138q-.3 1-1.3.7zm-271 9q-.2 1-1.3.8zm51 1q-.3 1-1.3.8zm1.3 2.3-1.2.7q0-1.1 1.2-.7M90 159q-.3 1-1.3.8zm172.3 4.3-1.3.7q.3-1 1.3-.7m25.7.7q-.3 1-1.3.7zm34.3 1.3-1.3.7q.3-1.1 1.3-.7m42.7-.3q-.2 1.1-1.3.7zm2.3 5.3-1.3.7q.3-1 1.3-.7M64 174q-.1 1-1.3.8zm31 2q-.3 1-1.3.7zm309 5q-.3 1-1.2.8zm-177 2a7 7 0 0 1-5 3 6 6 0 0 1 5-3m-152.7 9.3-1.2.8q0-1.1 1.2-.8M377 198q-.3 1.1-1.3.7zm-353.7 8.3-1.3.7q.3-1 1.3-.7M401 211q-.2 1-1.2.8zm-242 2q-.1 1.2-1.2.8zm191 2q-.3 1-1.3.7zm-326 2q-.3 1-1.3.8zm377.3 1.3-1.3.7q.3-1.1 1.3-.7m-54 2-1.3.7q.3-1 1.3-.7m-204 5-1.2.8q0-1 1.2-.8m268 6-1.3.7q.3-1 1.3-.8m-247 1-1.2.7q0-1.1 1.2-.7M157 234q-.2 1-1.3.8zm214 15q-.3 1-1.3.7zm-39 6q-.1 1-1.2.7zm-208.7 3.3-1.2.7q0-1 1.2-.7m77.8-.3c-.6 1.5-3.7 2.8-5.1 3.2.7-2 3-3.2 5-3.2m-61.8 8.3-1.2.7q0-1.1 1.2-.7M62 269q-.3 1-1.3.7zm69.3 2.3-1.2.8q0-1 1.2-.8m48 1-1.2.7q0-1.1 1.2-.7m-5.3.7q0 1-1.3.8zm-91.7 11.3-1.3.7q.3-1 1.3-.7M60 290q-.3 1-1.3.7zm10 14q-.3 1-1.3.8zm-28.7 6.3-1.3.8q.1-1 1.2-.9M83 314q-.9 1-2.2.8.8-1 2.2-.8m19.9 0q-.3.9-1.3.7zm65.3 5.2-1.2.8q0-1 1.2-.8m-76 8-1.2.8q0-1.1 1.2-.8M198 327q-.3 1-1.3.7zm-73.8 50.3-1.2.7q.3-1 1.2-.8M215 380c-.2 1.4-3.5 2.8-5 2.8a7 7 0 0 1 5-2.8"/><path fill="#66d4f1" fill-opacity=".4" d="M305.2 35.3q-.5.7-1.4.7.6-.6 1.4-.7m-55 3a2 2 0 0 1-1.5.6zm-2.8 7.7q-.6.5-1.3.8.3-.8 1.3-.8m63.8 6.2q-.5.8-1.5.8.8-.6 1.5-.8m-109 17q-.5.8-1.5.8.7-.6 1.5-.8m30.1 13a3 3 0 0 1-1.6.8q.7-.7 1.6-.7m-4 6.8q-.6.5-1.4.7.5-.7 1.4-.7m-7 4.1-1.3.6q.4-.6 1.3-.6m21 6q-.4.4-1.2.6.3-.7 1.3-.6m126 3-1.3.7q.4-.8 1.4-.7m-166 2q-.6.5-1.4.6.4-.9 1.4-.7m159 2q-.6.5-1.3.6.3-.8 1.3-.7m-25 7.2q-.7.7-1.7.7.7-.6 1.6-.7m6 3.8q-.5.4-1.2.6.3-.7 1.1-.6m-17.2 3a2 2 0 0 1-1.4.9zm46.3-.1-1.5.7q.4-.8 1.5-.7m-36 1.1-1.4.7q.4-.8 1.3-.7M114 145.2q-.4.9-1.3.7zm170.2 1a2 2 0 0 1-1.5.8q.7-.6 1.5-.8M56 148.3q-.3.7-1.3.7.6-.5 1.3-.7m6.4.8-1.6.7a2 2 0 0 1 1.6-.7m44.5 0q-.2 1-1.2.8zm212.4 1q-.6.4-1.3.6.4-.7 1.3-.6m59.9 6q-.6.8-1.5.8.7-.6 1.5-.7M37 159.3q-.4.9-1.4.8.6-.5 1.3-.8M245.3 173l-1.1.8q0-1 1.1-.8m-172 1.1q-.7.6-1.5.7.5-.8 1.5-.7m-11.4 1.2q-.2.7-1.2.6zm243.4-.2-1.2.8q.3-1 1.2-.8m44 0q-.6.9-1.6.8a3 3 0 0 1 1.6-.7m-75 1q-.5.5-1.3.7.3-.8 1.4-.7M93 177q-.3 1-1.3.9.6-.6 1.3-.8m205.2.2q-.4.8-1.4.6a2 2 0 0 1 1.3-.6m108.8 2q-.4.8-1.4.7zm-63.7 4.7-1.3.7q.4-.7 1.3-.7m55.9.3q-.6.7-1.5.7.6-.6 1.5-.7m-167 15.7c-.4 1-4.4 4.1-5.1 2.7 1.1-1.3 3.2-2.7 5-2.7m-200.8 1q-.7.6-1.5.7.5-.7 1.5-.6m341 .2q-.6.8-1.6.7.7-.6 1.5-.7m-80.1 10q-.5 1-1.6.8.7-.6 1.6-.8m-133 4-1.2.5q.3-.9 1.2-.6m186 3q-.5.8-1.5.8zM27 222q-.5.6-1.4.7.6-.6 1.5-.7m296 12q-.4.7-1.1.7.2-.9 1-.6m37 3.3a2 2 0 0 1-1.5.7q.7-.6 1.5-.7m17 7.9q-.5.8-1.5.8zm-269.9 3q-.7.4-1.5.6.5-.8 1.5-.7m32-.1-1.4.6q.5-.7 1.4-.6m-53.3 7q-.4.8-1.3.8.6-.5 1.3-.7m295 6c-1 1.4-3.2 3-5 3q1.8-2.7 5-3M98.4 274q-.7.4-1.6.6.7-.7 1.6-.6M84 276.3q-.5.7-1.4.7zm81.1 4.7q-.5.6-1.4.7.6-.7 1.4-.7M94 290.2q-.3.9-1.2.8zM33.3 295q-.6.6-1.5.7.6-.7 1.5-.7m24 5q-.7.6-1.5.7.7-.7 1.5-.7m43.7 15.2q-.4.8-1.4.7zm72.3.8q-.6.6-1.4.8.4-.9 1.4-.8m-76 8q-.8.6-1.5.7.5-.7 1.5-.7m125.7 7.3q-.4.8-1.4.6zm-82 1q-.3.8-1.3.6.6-.4 1.3-.6M127.3 345q-.7.5-1.5.6.6-.7 1.5-.6m38 6q-.8.6-1.5.7.5-.7 1.4-.7m-40.4 18.1q-.3 1-1.3.8zM182 374a8 8 0 0 1-5 3c.8-1.5 3.2-3.2 5-3m-56 13.3q-.3.7-1.1.6.5-.4 1.1-.6"/><path fill="#66d5f1" fill-opacity=".2" d="M254.9 34.9q0 1-1.2.8zm2.5 5.4-1.3.8q0-1.1 1.3-.8m-50.5 25.6q-.1 1-1.2.8zm44 4q-.1 1-1.2.8zm21 7q0 1-1.2.8zm-35 2q0 1-1.2.8zm-5.6 8.4-1.2.8q0-1.1 1.2-.8m21 6-1.2.8q0-1 1.2-.8M360 97.9q-.2 1-1.2.8zm11.4 2.4-1.2.8q0-1.1 1.2-.8m-138 4-1.2.8q0-1.1 1.2-.8m115.6.6q0 1.2-1.2.8zm-71 17.7.9.5c-1.3 1.7-4.7 4-6.8 3.9q.4-.8 1-1.3zm105 1.3q-.2 1-1.2.8zm-27.5 5.4-1.3.8q.1-1 1.3-.8m19.5-.4q0 1-1.2.8zm-67 2q-.1 1-1.2.8zm29 2q0 1-1.2.8zm-7.6 11.4-1.2.8q.2-1 1.2-.8m-272 8-1.2.8q.1-1 1.2-.8M46 153.9q-.2 1-1.2.8zm51 1q0 1-1.2.8zm2.4 2.4-1.2.8q.1-1 1.2-.8m235 1-1.2.8q0-1.2 1.3-.8m45 5-1.2.8q0-1.2 1.3-.8m-123.4.6q-.1 1-1.2.8zm-170.6 2.4-1.2.8q.1-1 1.2-.8m163 5-1.2.7q0-1.1 1.3-.7m-146.4.6q-.2 1-1.2.8zm258.5 2.4-1.3.8q.2-1 1.3-.8m-17.5 4.6q0 1.2-1.2.8zm-88 6q0 1.3-1.2.8zm3.4.4-1.2.7q0-1.2 1.2-.7m134.6 2.6q0 1-1.2.8zm-69 3q0 1-1.2.8zm-257.6 6.4-1.2.8q0-1 1.2-.8M409 206q0 1-1.2.8zm4.3 5-.3 1-.9.2q.3-1 1.1-1.1m-382.3 2q-.2 1-1.2.8zm116 7q0 1-1.3.8zm240 0q0 1-1.2.8zm20 6q0 1-1.2.8zm-271.6 4.4-1.2.8q0-1 1.2-.8M329 256.9q0 1-1.2.8zm-253 4q-.2 1-1.3.8zm7.4 2.4-1.2.8q.2-1 1.2-.8m233 4-1.2.7q0-1.2 1.2-.7m10 13-1.2.8q0-1.1 1.3-.8M74 281.9q0 1-1.2.8zm59.4 19.4-1.2.8q.2-1 1.2-.8M58 310.9q-.2 1-1.2.8zm121.4 1.4-1.2.7q0-1.2 1.2-.7M212 319q0 1.2-1.2.7zm-121 2q-.1 1.1-1.3.7zm61.4 8.3-1.2.8q.2-1 1.2-.8m76 1-1.2.7q0-1.2 1.2-.7m-32 1-1.2.8q0-1.1 1.2-.8m-10.4 2.6q0 1.1-1.2.8zm27 3q0 1-1.2.8zm-46 8q-.2 1-1.2.8zm-62 8q-.1 1-1.2.8zm56.4 20.4-1.2.8q0-1 1.2-.8m-46.4 1.6q-.1 1.1-1.3.8zm12.4.4-1.2.8q.1-1 1.2-.8"/><path fill="#66d4f1" fill-opacity=".3" d="M261 31q-.1 1-1.2.8zm10 26q-.3 1-1.2.7zm-23.7 39.3-1.3.7q.3-1 1.3-.7m8.8 24.8c-1 1.3-3.3 3.1-5 2.9.1-1.3 3.7-3.2 5-2.9m129.9 1q-.3.8-1.2.7zM35 135a7 7 0 0 1-5 2.9c.7-1.7 3.3-3 5-3M395 146q-.3 1-1.2.8zm-70.7 1.3-1.3.7q.3-1.1 1.3-.7M51 151q-.3 1-1.3.7zm81 4q-.9 1.9-3 2 .8-2 3-2m197.3 6.3-1.3.7q.3-1 1.3-.7M346 177q-.3 1-1.2.8zm2.3 4.3-1.3.7q.3-1 1.3-.7M396 186q-.2 1-1.2.8zm-27 17q-.3 1-1.2.8zm-333 7q-.3 1-1.3.7zm5.3 3.3-1.3.7q.3-1 1.3-.7m367 1-1.3.7q.3-1.1 1.3-.7M342 220q-.1 1-1.2.8zm-79 10q-.6 1.3-2 1 .5-1.4 2-1m65.3 1.3-1.3.7q.1-1.2 1.3-.7m70.7-.3q-.2 1-1.2.8zM81 258q-.2 1.1-1.3.7zm305 0a7 7 0 0 1-5 3 7 7 0 0 1 5-3M79 279q-.3 1-1.3.7zm242.3 4.3-1.3.7q.2-1.2 1.3-.7m-172 8-1.3.7q.1-1 1.2-.8M89 293q-.3 1-1.3.7zm7 25q-.3 1-1.2.8zm119.3 1.3-1.3.7q0-1.2 1.2-.8m-134 15-1.3.7q.2-1 1.2-.8M218 334q-.3 1-1.3.7zm-34.8 25.2-1.2.8q.1-1 1.2-.8M177 377a8 8 0 0 1-5 3c.8-1.6 3.2-3 5-3m1 12q-.9 2-3 2 .8-2 3-2"/><path fill="#66d5f2" fill-opacity=".3" d="M226 26q-.6 1.2-2 1 .6-1.2 2-1m59 22q-.1 1.1-1.2.7zm12.3 1.3-1.3.7q.3-1.1 1.3-.7M130 51q0 .5-.6.5zm188.3 4.3-1.3.7q.3-1 1.3-.7m-92 3-1.3.7q.3-1 1.3-.7M196 73q-.2 1-1.2.8zm27 35q0 1.2-1.2.8.4-.5 1.2-.8m-1.7 3.3-1.3.7q.2-1.2 1.3-.7M322 122q-.1 1.1-1.2.7zm-7.7 11.3-1.3.7q.3-1.1 1.3-.7m60 2-1.3.7q.3-1.1 1.3-.7M77 136q-.3 1.1-1.3.7zm193 19q-.3 1.1-1.3.7zm28.3 7.3-1.3.7q.3-1 1.3-.7m-247 26-1.3.7q.3-1 1.2-.8m275.7.7q-.1 1-1.2.8zm72.3 1.3-1.3.7q.3-1.1 1.3-.7M31 193q-.3 1-1.3.7zm31 2q-.3 1-1.3.7zm260.3 1.3-1.3.7q.3-1.1 1.3-.7M308 201q-.1 1-1.2.8zm-11.7 10.3-1.3.7q.3-1.1 1.3-.7M379 225q-.1 1-1.2.8zm-110.8 2a9 9 0 0 1-5.2 3 6 6 0 0 1 5.2-3m114.1 2.3-1.3.7q.3-1.1 1.3-.7m-261 10-1.3.7q.1-1 1.2-.8m32 0-1.3.7q.3-1 1.3-.7m239 3-1.3.7q.3-1 1.3-.7M107 243q-.3 1-1.3.7zm-2 21q-.3 1-1.3.7zm7.2 1.2-1.2.8q.1-1 1.2-.8m-43 7-1.2.8q.3-1 1.2-.8M332 274q-.1 1.1-1.3.7zm-217 4q-.2 1-1.3.8zm-43.8 13.2-1.2.8q.3-1 1.2-.8m298.9 1.8a4 4 0 0 1-3 2q.6-2 3-2M122 303q-.3 1.1-1.3.7zm113 3q-.9 2-3 2a3 3 0 0 1 3-2m-58.7 8.3-1.3.7q0-1.1 1.3-.7m-27 17-1.3.7q.3-1 1.3-.7M136 335q-.2 1-1.2.8zm-13.7 13.3-1.3.7q.3-1.1 1.3-.7m75 2-1.3.7q.1-1 1.2-.8M146 357q-.3 1-1.3.7zm.2 6.2-1.2.8q.3-1 1.2-.8M120 372q-.3 1-1.3.7zm27 3q-.3 1-1.3.7z"/><path fill="#65d5f2" fill-opacity=".2" d="m108.2 32-.2 1-1 .3q0-1.2 1.2-1.3m130.1 19.3-1.2.8q.2-1 1.2-.8M294 62.9q-.2 1-1.2.8zm-85 34q0 1-1.2.8zm3.4 1.4-1.2.8q0-1 1.2-.8m114 28-1.2.8q0-1.1 1.2-.8m21.6-.4q-.2 1-1.2.8zm38.4 2.4-1.2.8q0-1 1.2-.8m-315 15-1.2.8q0-1.2 1.2-.8m271.6 5.6q0 1-1.2.8zm-65 1q-.2 1-1.2.8zm29 2q0 1-1.2.8zm28 2q0 1-1.2.8zm-24.6 1.4-1.2.8q.2-1 1.2-.8m5 14-1.2.8q0-1 1.2-.8m38.6 2.6q-.2 1-1.2.8zm-330.6 2.4-1.2.8q.2-1 1.2-.8m45 3-1.2.8q0-1 1.2-.8m28 1-1.2.8q.1-1 1.2-.8m238 11-1.2.8q0-1.1 1.2-.8m-294 6-1.2.8q0-1.1 1.2-.8M19 199.9q-.2 1-1.2.8zm31 2q-.1 1-1.2.8zm-16.6 16.4-1.2.8q.1-1 1.2-.8m361 4-1.2.8q0-1 1.2-.8m10 13-1.2.7q.2-1 1.2-.7M95 249.9q-.2 1-1.2.8zm9.4 20.4-1.2.8q0-1 1.2-.8m-11.4.6q0 1.1-1.2.8zm236 5q0 1-1.2.8zm-267.6 1.4-1.2.8q0-1 1.2-.8m110 0-1.2.8q0-1.1 1.2-.8m-68.4 7.6q0 1-1.2.8zm33 10q0 1-1.2.8zm-72.6 1.4-1.2.8q.2-1 1.2-.8m12 10-1.2.8q0-1 1.2-.8m34.6 3.6q-.2 1.1-1.2.8zm-42.6 1.4-1.2.8q.2-1.1 1.2-.8m36 9-1.2.8q0-1 1.2-.8m46.6 6.6q0 1.1-1.2.8zm-16.6 14.4-1.2.8q0-1.1 1.2-.8m67 7-1.2.8q0-1 1.2-.8m-94 10-1.2.8q.1-1 1.2-.8m27.6 5.6q-.2 1-1.2.8zm1 18q0 1.1-1.2.8zm-1.6 9.4-1.2.8q0-1 1.2-.8M192 407q-.4.8-1 1.3-3 1.7-6 3.8v-1.4c1.5-1.3 5-3.8 7-3.7"/><path fill="#66d4f1" fill-opacity=".5" d="M221.1 29.1c-.5.5-1.4 1.5-2 .6q.8-1 2-.6m52.3 34q-.6.4-1.3.6.3-.7 1.3-.6M116 114c.2-1 2-2.7 3-1.6-.2 1.4-2 1.6-3 1.6m257 16.3q-.4.7-1.3.7zm-56.6 1.8q-.6.5-1.3.7.2-.9 1.3-.7m-54.4 1a4 4 0 0 1-3 1.8 3 3 0 0 1 3-1.8m114.4 1-1.4.7q.5-.8 1.4-.8M362 154a4 4 0 0 1-3.1 1.8 3 3 0 0 1 3.1-1.9m-61.6 7-1.3.8q.2-1 1.3-.8M59.3 183a4 4 0 0 1-1.6.8q.6-.7 1.6-.8m58.8 13q-1 1.8-3.1 2 .9-2 3-2m180.2 14-1.2.7q.3-.7 1.2-.6m-129.1 19a2 2 0 0 1-1.4.6q.5-.6 1.4-.5m189.1 14q-.4.5-1.2.8.3-.9 1.2-.7m-187.4 3q-.7 1.9-3 2 .9-2 3-2m124.1 4a4 4 0 0 1-3 2q.8-2.3 3-2m81 14c0 .9-1.3 1.6-1.8.7q.6-.9 1.7-.7m-37.8 6.2q-.4.9-1.5.7.8-.6 1.5-.7M237 305c.3-1 2-2.7 3-1.6q-1 1.5-3 1.6m-146 4q-.9 2-3 2 .8-2 3-2m69 12.3q-.3.8-1.3.7zm-5.6 6.7q-.6.5-1.3.8.3-1 1.3-.8m32.8 9.1q-.6.6-1.4.7.5-.7 1.4-.7M91 350q-.9 1.8-3 2 .8-2 3-2m53 8.2q-.3.8-1.2.8zm206-.2c-.2.5-1 1.6-1.7.8q.6-1 1.8-.9"/><path fill="#5ccce6" fill-opacity=".2" stroke="#5ccce6" stroke-opacity=".2" stroke-width=".5" d="M86 200a4 4 0 0 1-1.6 1.8L76 207q-.2-1-1.3-1c2.1-1.5 9-6.1 11.2-6Zm87.9 5c-.9 2.3-7.5 5.3-9.6 6.9q-.5-.9-1.4-1.3l9-5.2q1-.4 2-.4Zm140.8 32.2q.5.9 1.4 1.2l-9 5.2a3 3 0 0 1-2 .3c1.1-2.1 7.4-5.1 9.6-6.7Z"/><path fill="#65d5f0" fill-opacity=".3" d="m264.3 36.3-1.2.8q.2-1 1.2-.8m3.6 22.6q-.2 1-1.2.8zm-3.6 9.4-1.2.7q.2-1 1.2-.7m21 6-1.2.8q0-1.2 1.2-.8M177.1 86a7 7 0 0 1-5 3q0-.6.4-1 2-1.7 4.6-2m193.5 5q0 1.1-.9.7.4-.4 1-.6M231 103q-.2 1-1.2.7zm110 7q0 1.1-1.2.7zm18 9q0 1.1-1.2.7zm3.4 6.3-1.2.7q.2-1 1.2-.7m-81 27-1.2.7q.2-1.1 1.2-.7m-4.4 18.6q-.2 1-1.2.8zm-11 7q-.2 1-1.2.8zm50 18q-.2 1-1.2.8zm-137 6.2a7 7 0 0 1-5.1 3 7 7 0 0 1 5.1-3m187.3 7.2-1.2.7q0-1.1 1.2-.7M140 223.9q0 1.1-1.2.8zm236 3q0 1.2-1.2.8zm-22 14q0 1-1.2.8zm-48.9 3c-.6 1.7-3.1 3-5 3.2.7-1.8 3.3-3 5-3.2m-167 1q-.3 1-1.3.8zm-35.7 6.4-1.2.8q.1-1 1.2-.8m257 10-1.2.7q0-1.1 1.2-.7m-16.4 5.6q-.2 1-1.2.8zM93.3 277.3l-1.2.8q.1-1 1.2-.8M43 279.9q0 1.1-1.2.8zm112 4q0 1.1-1.2.8zm-47.6 2.4-1.2.8q.1-1 1.2-.8m-8 5-1.2.8q.1-1 1.2-.8m42 5-1.2.8q0-1 1.2-.8M41 300.9q0 1.1-1.2.8zm11.4 2.4-1.2.8q.1-1 1.2-.8M51 314.9q0 1.1-1.2.8zm128 23q-.2 1.1-1.2.8zm1 18q0 1.1-1.2.8z"/><path fill="#66d3f2" fill-opacity=".2" d="m235.1 19.8.7.3c-1.6 2-4.4 3.7-6.9 4 .4-1.8 4.9-3.2 6.2-4.3m36.8 4.1q-.2 1-1.2.8zm-48 31q-.1 1-1.2.8zm-11.6 11.4-1.2.8q0-1.1 1.2-.8m70.6 3.6q0 1-1.2.8zm-25.6 2.4-1.2.8q.2-1 1.2-.8M223 87.9q0 1.2-1.2.8zm158.5 26.4-1.3.8q.2-1 1.3-.8m-62.5 9.6q0 1-1.2.8zm-228 4q0 1.2-1.2.8zm268 11q-.2 1-1.2.8zm-58.5 2.4-1.3.8q0-1.2 1.3-.8m50.5 2.6q0 1.2-1.2.8zm-237.6 4.4-1.2.8q.1-1 1.2-.8m278.6-.4q-.2 1-1.2.8zm-125 9q-.2 1-1.2.8zM20 169q0 1-1.2.9zm51 1q0 1.1-1.3.8zm213.4.4-1.2.8q0-1.2 1.2-.8M76 186.9q0 1.1-1.2.8zm205.8.1.3 1.2q-.5 1-2 .8.6-1.2 1.7-2M26.3 204.3l-1.2.8q0-1.1 1.2-.8m94.6 30.6q0 1.1-1.2.8zm3.4 2.4-1.2.8q.1-1 1.2-.8m32 0-1.2.8q.2-1 1.2-.8m186 15-1.2.8q.1-1 1.3-.8M119 255.9q-.2 1-1.2.8zm233.4 9.4-1.2.8q.2-1 1.2-.8m-280 5-1.2.8q0-1 1.2-.8m56.6-.4q-.2 1-1.2.8zm23.4 19.4-1.2.8q0-1.1 1.2-.8M176 312q0 1.2-1.2.7zm-124.6 9.3-1.2.8q0-1.1 1.2-.8m156 3-1.2.8q0-1 1.2-.8m-123 8-1.2.8q.1-1 1.2-.8m130 7-1.2.8q0-1 1.2-.8m-54.4 9.6q-.2 1.1-1.2.8zm-12.6 33.4-1.2.8q0-1 1.2-.8"/><path fill="#66d3f2" fill-opacity=".4" d="M274.2 55.2q-.6.8-1.5.8.6-.6 1.5-.8m11.2.8-1.2.7q.1-.9 1.2-.7m-69.3 4.2q-.4.8-1.5.8.8-.6 1.5-.8m90.2 1.8q-.5.6-1.3.7.4-.7 1.3-.7m-28.1 11.3q-.6.7-1.5.7.7-.6 1.5-.7m50 51.7q-.5.6-1.1.7.2-.9 1.1-.7m-14 2.2q-.6.7-1.5.7.7-.6 1.5-.7m74.2-.1-1.5.6q.5-.7 1.5-.6m-76 26.9q-.6.5-1.4.7.5-.8 1.4-.7m-50.2 6.3q-.6.6-1.6.6.7-.5 1.6-.6m106 3q-.6.7-1.5.7.6-.6 1.4-.8M62.1 181q-.6.6-1.4.7.5-.7 1.5-.7M43 186.3q-.4.6-1.3.7.6-.6 1.3-.7M387.4 197l-1.3.7q.3-.8 1.3-.7m-327.2 4q-.5.5-1.3.6.4-.7 1.3-.7m250.1 2-1.3.6q.4-.9 1.3-.7m-29 15.1q-.6 1-1.6.8.7-.6 1.5-.8m-120 16-1.5.5a2 2 0 0 1 1.5-.6m209 1.8-1.2.7q.3-.7 1.2-.7m10 13.1-1.2.7q.3-.9 1.2-.7m-287.4 2.2q-.3.8-1.2.6.4-.4 1.2-.6m231.3 9q-.7.6-1.5.6.7-.4 1.5-.6M77.3 267q-.6.5-1.4.7.5-.7 1.4-.7m258 5.3a2 2 0 0 1-1.5.7q.6-.6 1.4-.7m-159 1.7a2 2 0 0 1-1.4.7q.4-.8 1.3-.7m-64 9q-.6.5-1.4.8a2 2 0 0 1 1.4-.8m-11.2 3.3q-.5.8-1.4.7.6-.5 1.3-.7m64.3 34.7q-.8.5-1.7.6.7-.6 1.7-.6m64.9 6.2q-.5 1-1.5.8.6-.6 1.5-.8m-82.3 1.1q-.4.8-1.3.6.6-.5 1.3-.6m53.4-.2q-.7.6-1.6.6.7-.6 1.6-.6m-63 10a4 4 0 0 1-1.7.6 3 3 0 0 1 1.7-.6m-52.5 14.8c-.2 1.2-4.3 4.1-4.9 2.8.5-1.2 3.6-2.6 5-2.8m46.1 12.4q-.4.7-1.3.7.6-.6 1.3-.7m.3 6.7-1.5.9q.5-1 1.5-1"/><path fill="#68d5f2" fill-opacity=".2" d="m283.3 25.3-1.2.8q0-1 1.2-.8M296 40.9q0 1.1-1.2.8zm-12.5 16.4-1.3.8q.2-1 1.3-.8m21 6-1.3.8q0-1.1 1.2-.8m-216 69-1.3.8q0-1 1.2-.8M56 135c-2 2.4-7.4 5-10 6.9l-.1-1.4q.6-.8 1.6-1.4l6.4-3.7q1-.5 2-.4m317 25q-.2 1-1.2.8zm-332.6 3.4-1.2.8q.1-1 1.2-.8m4.6 21.6q-.1 1-1.2.8zm340.4 13.4-1.2.8q0-1.1 1.2-.8m-77 6-1.2.8q0-1.1 1.2-.8m-264 7-1.2.8q.1-1 1.2-.8M286 215q0 1.2-1.2.7zm82.4 22.3-1.2.8q.2-1 1.2-.8m13.6 4.6q0 1-1.2.8zm-3.6 8.4-1.2.8q.2-1 1.2-.8M48 296.9q0 1.1-1.2.8zm11.4 19.4-1.2.8q0-1 1.2-.8m90 45-1.2.8q0-1.1 1.2-.8m11.6 5.6q-.2 1-1.2.8zm49 16q-.5 1.3-1.7 2l-.4-1.2q.9-1 2.2-.7"/><path fill="#59bbd5" fill-opacity=".2" stroke="#59bbd5" stroke-opacity=".2" stroke-width=".5" d="M71 321.1q-.7 1-1.6 1.7L55 331.6q-.8.6-1.7 0-.8.3-1.1-.4 8.3-5 16.8-9.8 1-.4 2-.3Z"/><path fill="#56b6ce" fill-opacity=".2" stroke="#56b6ce" stroke-opacity=".2" stroke-width=".5" d="M396.1 133.2c.8-.3.7 1 .7 1.4q-8 4.4-15.8 9a3 3 0 0 1-2 .3 4 4 0 0 1 1.6-1.7c2.3-1.4 13.9-9 15.5-9Z"/><path fill="#67d6f3" fill-opacity=".2" d="m309.3 42.3-1.2.8q.2-1 1.2-.8M241 43.9q0 1-1.2.8zm41 6q0 1.1-1.2.8zm70.4 61.4-1.2.8q0-1 1.2-.8M65 142.9q-.4 1-1.3.8zm51 1q-.2 1.2-1.3.8zm-8.7 27.4-1.2.8q0-1.1 1.2-.8M411.1 183l-.2 1h-.9q.3-.8 1-1m-356.8 3.3-1.2.8q0-1.2 1.2-.8M365 233.9q-.2 1-1.2.8zm-251.6 10.4-1.2.8q0-1.1 1.2-.8m32 0-1.2.8q.2-1 1.2-.8M305.1 273l-.1 1-8.5 4.9H295q.1-.8.9-1.1 3.6-2 7-4.5 1-.4 2.1-.3m-100 50q-.2 1.1-1.2.7zm-44.6 1.3-1.2.8q.2-1 1.2-.8M124 341.9q-.2 1-1.2.8zm47.4 5.4-1.2.8q.2-1 1.2-.8M108 378.9q0 1.1-1.2.8z"/><path fill="#66d4f1" fill-opacity=".3" d="M229.8 51q0 1-1.1 1zm13 24q0 1.1-1.2 1zm12.2 31q-.8 2-3 2 1-1.8 3-2m66.4 23q-.7.6-1.6.7a2 2 0 0 1 1.6-.6m59.9 2q-.7.6-1.5.7.6-.7 1.5-.6m-76 27.1q-.7.5-1.6.6.7-.6 1.6-.6m-212 2.9-1 1q0-1 1-1m6.9 86.2q-.7.6-1.6.7zM166 249c-.5 1.6-3.4 2.9-5 3a7 7 0 0 1 5-3m38.1 7.1a4 4 0 0 1-3 1.9q.8-2 3-1.9m-96 26.1q-.4.9-1.3.8.5-.6 1.3-.8M47.3 286l-1 1q0-1.1 1-1m107.8 38.2q-.3.9-1.3.8.5-.6 1.3-.8m-24.7 18.9-1.3.8q.3-1 1.3-.8m37.8 5.9-.9 1q-.1-1 1-1m-29 12.3q-.7.6-1.6.5z"/><path fill="#5ecde8" fill-opacity=".2" stroke="#5ecde8" stroke-opacity=".2" stroke-width=".5" d="M161 252q-.7 1-1.6 1.8l-13.1 8.1q-.5-.9-1.4-1.3l14.1-8.1q1-.5 2-.5Z"/><path fill="#64d6f1" fill-opacity=".2" d="m278.4 78.3-1.3.8q.2-1 1.3-.8m99.5 28.6q0 1-1.2.8zm-11 27q-.2 1-1.2.8zm-92.5 22.4-1.3.8q.2-1 1.3-.8m21.5 2.6q-.1 1-1.2.8zm9 44q0 1.2-1.2.8zm-249.6 1.4-1.2.8q0-1 1.2-.8m310.6.6q0 1-1.2.8zm-6.6 8.4-1.2.8q.2-1 1.2-.8m-20.4 8.6q0 1.2-1.2.8zm-194 19q0 1.1-1.3.8zm223 10q-.2 1-1.2.8zm23.1 4a7 7 0 0 1-5 3.2 7 7 0 0 1 5-3.2m-275.7 8.4-1.2.8q0-1.1 1.2-.8m202.6.7q0 1.1-1.2.7zM50 276q0 1.1-1.2.7zm112 4q-.2 1-1.2.7zm-87.6 9.3-1.2.8q0-1.1 1.2-.8M65 335.9q-.2 1-1.3.8zm122 16q-.2 1-1.2.8zm-48.6 16.4-1.2.8q.2-1 1.2-.8"/><path fill="#5dbdd6" fill-opacity=".2" stroke="#5dbdd6" stroke-opacity=".2" stroke-width=".5" d="M232 308a2 2 0 0 1-1 1.3q-6.7 4.4-13.7 8.3-.3-1-1.4-1l14-8.2q1-.4 2-.3Z"/><path fill="#5bb6cd" fill-opacity=".8" d="M124.1 23q-.2.9.6 1.2 0 .3-.3.5l-9.5 4.8a3 3 0 0 1-2.2.2l2-1.8q4-1.2 7-4zm-11.4 6.7c.5 1.3-1.3 1.3-2 1q.8-.7 2-1m-2 1c.6 1.4-1.5 2.3-2.7 2.3l.2-1q1.2-.8 2.4-1.3"/><path fill="#64cce8" fill-opacity=".2" stroke="#64cce8" stroke-opacity=".2" stroke-width=".5" d="M108 202q-.7 1-1.6 1.7-6.5 4.3-13 8.1-.6-.9-1.5-1.1l14-8.2q1-.5 2.1-.5Z"/><path fill="#4eaac2" fill-opacity=".1" stroke="#4eaac2" stroke-opacity=".1" stroke-width=".5" d="M294.7 29.2h1l.4.8-13 7.6a3 3 0 0 1-2 .2q0-.8.9-1.2c4.3-2.2 8.2-5.6 12.7-7.4Z"/><path fill="#56bbd4" fill-opacity=".2" stroke="#56bbd4" stroke-opacity=".2" stroke-width=".5" d="M294.7 179.2q.2 1.2 1.4 1.3l-12.8 7.4-.1-1q0-.9.8-1.2z"/><path fill="#68d3ef" fill-opacity=".2" d="m219.9 42.2.2 1q-.7 1-2.1.9a4 4 0 0 1 1.8-2m85 13.7q-.2 1-1.2.8zM193 75q0 1.1-1.2.8zm.4 2.4-1.2.7q0-1.2 1.2-.7m45 6-1.2.8q0-1.2 1.2-.8M242 96q-.1 1-1.2.8zm99.4 58.4-1.2.7q.2-.9 1.2-.7M39 157.9q-.2 1-1.2.8zm347.4 1.4-1.2.7q.2-1 1.2-.7m-131 8-1.2.7q.2-1 1.2-.7m55.6 1.6q0 1.2-1.2.8zm-45.6 12.4-1.2.7q0-1.1 1.2-.7m69.6 2.6q0 1.1-1.2.8zm23 26q0 1-1.2.8zM22.3 225.3l-1.2.8q0-1 1.2-.8m301 38-1.2.7q0-1.1 1.2-.7m10 13-1.2.8q0-1 1.2-.8m-283 8-1.2.8q.1-1 1.2-.8m41 12-1.2.8q0-1 1.2-.8M84 324.9q0 1-1.2.8zm14 32q0 1.1-1.2.8z"/><path fill="#65d3f1" fill-opacity=".4" d="M301.8 37q0 1-1 .9zm-42.5 2-1.2.7q.3-.8 1.2-.6m-12.5 1.1q0 1-1.2.9zM213 47q-.9 1.9-3 2 .8-2 3-2m-24.6 33q-.7.6-1.7.8.6-.9 1.7-.7M44 155.4q-.4.7-1.3.6.6-.5 1.3-.6m51 .9q-.4.8-1.4.7zm241.3.9-1.2.6q.2-.8 1.2-.6m45 5-1.2.7q.3-.9 1.2-.8m-121 21.9-1.2.9q0-1 1.2-.9m-226 15-1 1q-.2-1 1-1m369.5 10q0 1-1.1 1zm-85.6 57.1-1.2.7q.1-1 1.2-.7m-282 27-.9.9q-.1-1 1-1m44.2 10-1.5.6q.5-.7 1.5-.6M184 335.3q-.3.8-1.3.7.6-.6 1.3-.7m-113.7 5.8-1 1q0-1.2 1-1m138 1.9-1 1q0-1 1-1M103 354.3q-.4.8-1.2.7a2 2 0 0 1 1.2-.7"/><path fill="#64cce7" fill-opacity=".3" stroke="#64cce7" stroke-opacity=".3" stroke-width=".5" d="M187.1 111.2q.3.8 1 1.2-.7 0-1.5.5-5.2 3.5-10.6 6.5-1 .6-2 .6a4 4 0 0 1 1.6-1.9q5.8-3.3 11.5-6.9Z"/><path fill="#5ccae6" fill-opacity=".2" stroke="#5ccae6" stroke-opacity=".2" stroke-width=".5" d="M201 298a3 3 0 0 1-1 1.3q-5.3 3.2-10.4 6.8l-1.7.6q0-.8-.8-.4.2-1 1.1-1.5l10.8-6.2q1-.6 2-.6Z"/><path fill="#5cb9d1" fill-opacity=".7" d="M107 33.3q-.5.8-1.2.5.5-.6 1.2-.5m-1.2.5c.4 1.3-1.4 1.2-2.1.9q1-.7 2-1m-2.1.9q.1 1-.8 1.7l-8 5.1q-1 .5-2.1.5-.6 0-1-.3 3.5-2.2 7.2-4.2 2-2 4.7-2.8"/><path fill="#51aac2" fill-opacity=".2" d="M309.8 269.2q0 1.2 1.3 1.3-3.2 1.5-6.1 3.5l.1-1c.6-1.8 3-3 4.7-3.8m74.9 14q0 1 1 1.4L380 288v-.9c.8-2.1 3-2.7 4.7-3.9"/><path fill="#4d97b2" fill-opacity=".1" stroke="#4d97b2" stroke-opacity=".1" stroke-width=".5" d="M245.2 13q1.5 0 2.7.2l-2.8 2.2c-2.6 1.1-6.7 4.6-9.3 4.7q-.4 0-.7-.3z"/><path fill="#64cae6" fill-opacity=".2" stroke="#64cae6" stroke-opacity=".2" stroke-width=".5" d="M104 220.1q-1.1 1.7-3 2.6l-7 4.3q0-1.1-1.1-.7c.8-1.8 7.3-4.5 9-5.9q1-.4 2-.3Z"/><path fill="#63c9e7" fill-opacity=".2" stroke="#63c9e7" stroke-opacity=".2" stroke-width=".5" d="M25 185q-.6 1-1.6 1.8-3.8 2.2-7.3 4.6-.9.5-1.8.4a3 3 0 0 1 0-1.8c3.6-.7 7.4-4.7 10.6-5Z"/><path fill="#55cee7" fill-opacity=".2" stroke="#55cee7" stroke-opacity=".2" stroke-width=".5" d="M196 261.2a5 5 0 0 1-1.6 1.6l-8 5q-.5-.9-1.5-1.2l9-5.2a3 3 0 0 1 2-.2Z"/><path fill="#67d6f1" fill-opacity=".3" d="m245.3 79.3-1.3.7q.3-1.1 1.3-.7m21 6-1.3.7q.3-1.1 1.3-.7m-181 49-1.3.7q.3-1 1.2-.8m263 16-1.3.7q.2-1.1 1.3-.7m45 5-1.3.7q.3-1 1.3-.7M83 163q-.3 1-1.3.7zm-45.7 2.3-1.2.7q0-1.1 1.2-.7M17 221q-.3 1-1.2.8zm306 11q0 1.2-1.3.7zM80.2 265.2l-1.2.8q.3-1 1.2-.8m260.1 7q-.6.5-1.3.8.3-1.1 1.3-.7m-229 43-1.3.8q.3-1 1.3-.8M77 329q-.2 1-1.2.8zm116.3 4.3-1.3.7q.3-1 1.3-.8m18 8-1.3.7q.1-1.1 1.3-.7M91 361q-.3 1-1.3.8zm44.2 9.2-1.2.8q.2-1 1.2-.8m9 14-1.2.8q.2-1.1 1.2-.7"/><path fill="#62cde7" fill-opacity=".2" stroke="#62cde7" stroke-opacity=".2" stroke-width=".5" d="M314.7 285q.4 1 1.4 1.3-4.7 2.5-9 5.2a4 4 0 0 1-2 .6c.8-2.3 7.4-5.4 9.6-7Z"/><path fill="#60cbe5" fill-opacity=".2" stroke="#60cbe5" stroke-opacity=".2" stroke-width=".5" d="M363.6 322q.4 1 1.5 1.4l-9 5.2a4 4 0 0 1-2.1.4q.2-.8 1-1.3z"/><path fill="#60d5f0" fill-opacity=".2" stroke="#60d5f0" stroke-opacity=".2" stroke-width=".5" d="M245 319q-.3.8-1 1.3l-8.7 5.7q-.5-1-1.6-1l9.3-5.5q.8-.5 2-.6Z"/><path fill="#62c6e4" fill-opacity=".2" stroke="#62c6e4" stroke-opacity=".2" stroke-width=".5" d="M236.6 176.1q.5.9 1.5 1.2-4.6 2.5-9 5.2a4 4 0 0 1-2.1.5q.5-1.2 1.6-1.9z"/><path fill="#5fd7f3" fill-opacity=".2" stroke="#5fd7f3" stroke-opacity=".2" stroke-width=".5" d="M172 380c-1 1.9-8 5.5-10 7q-.4-.6-1-.8.4-.9 1.3-1.4c2.3-.8 7.6-5.1 9.7-4.7Z"/><path fill="#62c6e4" fill-opacity=".2" stroke="#62c6e4" stroke-opacity=".2" stroke-width=".5" d="M215.2 113.3q.1.7.9 1l-9 5.3q-1 .4-2.1.3.7-1 1.6-1.6a71 71 0 0 0 6.7-4.3z"/><path fill="#62c8e5" fill-opacity=".2" stroke="#62c8e5" stroke-opacity=".2" stroke-width=".5" d="M246.7 190.2q.4.9 1.4 1l-9 5.3a4 4 0 0 1-2.1.5q.5-1.2 1.6-1.8z"/><path fill="#5fc7e5" fill-opacity=".2" stroke="#5fc7e5" stroke-opacity=".2" stroke-width=".5" d="M110.9 117q0 1-.9 1.4-4.3 2.8-8.8 5.4-.3-1-1.3-1l9-5.3q1-.6 2-.4Z"/><path fill="#65d2f3" fill-opacity=".2" d="m259.4 89.3-1.3.8q.1-1.1 1.3-.8M194.9 106q0 1.2-1.2.7zm141.4 34.3-1.2.8q.2-1 1.2-.8m-240 19-1.2.8q0-1.2 1.2-.8m288.6 33.6q0 1.1-1.2.8zm-44.6 31.4-1.2.8q.2-1 1.2-.8M164 230q0 1.2-1.2.7zm232 3q0 1-1.2.7zM69 265q-.2 1-1.2.7zm112 4q0 1.2-1.2.7zM67 286q-.2 1-1.2.7zm10 14q0 1.1-1.2.7zm6.4 1.3-1.2.8q0-1.1 1.2-.8m39 7-1.2.8q0-1.1 1.2-.8m83.6 32.6q0 1.1-1.2.8zm-45.6 13.4-1.2.8q0-1.1 1.2-.8m26 3-1.2.8q0-1 1.2-.8"/><path fill="#62c3e6" fill-opacity=".2" stroke="#62c3e6" stroke-opacity=".2" stroke-width=".5" d="M184 219.1q-.7 1-1.6 1.7l-8 5a3 3 0 0 0-1.5-1.1q4.7-2.4 9-5.2 1-.5 2-.4Z"/><path fill="#5fc4e4" fill-opacity=".2" stroke="#5fc4e4" stroke-opacity=".2" stroke-width=".5" d="M277.8 220.1q.3.9 1.3 1.2l-9.1 5.2q-.9.5-1.8.5 0-.8.8-1.4z"/><path fill="#61d9f3" fill-opacity=".2" stroke="#61d9f3" stroke-opacity=".2" stroke-width=".5" d="M129 157c-.6 1.5-4 2.8-5.3 4q-2.2 1.6-4.8 2.7l-.8-.6q.7-1 1.9-1.6l7-4.1q1-.6 2-.3Z"/><path fill="#52bbd6" fill-opacity=".2" stroke="#52bbd6" stroke-opacity=".2" stroke-width=".5" d="M399.4 249q1.2-.1 1.6 1c-2.2 1-8 5.4-10 5a5 5 0 0 1 1.6-1.8z"/><path fill="#61d8f3" fill-opacity=".2" stroke="#61d8f3" stroke-opacity=".2" stroke-width=".5" d="m266.3 114.9-.3 1-8 4.8-2 .4q.3-.8 1-1.4a71 71 0 0 0 7-4.3 6 6 0 0 1 2.3-.5Z"/><path fill="#4fa7c3" fill-opacity=".2" d="M287 117.3q-.3 1 .8 1.3c-2.2 1.2-6.6 4.4-9 4.5l-.9-.5z"/><path fill="#52bad3" fill-opacity=".2" stroke="#52bad3" stroke-opacity=".2" stroke-width=".5" d="M140.6 43.2q0 1 1.1 1.4l-6.7 4q-1 .5-2 .2c.4-1.4 6.2-4.7 7.6-5.6Z"/><path fill="#5fd5f2" fill-opacity=".2" stroke="#5fd5f2" stroke-opacity=".2" stroke-width=".5" d="M380 287.1v.9l-8.5 5H370q.1-.8.9-1.3 3.6-2 7-4.4 1-.5 2-.2Z"/><path fill="#44b5cb" fill-opacity=".1" stroke="#44b5cb" stroke-opacity=".1" stroke-width=".5" d="M159.7 400.2q-.1.8-.7 1.2l-5.3 3.4q-1-.2-1.6-1c1.5-1 5.9-4.6 7.6-3.6Z"/><path fill="#5ec2e2" fill-opacity=".2" stroke="#5ec2e2" stroke-opacity=".2" stroke-width=".5" d="M136 133.1c-1.2 2-6 4.6-8.1 5.6q0-.9-.8-.3 0-1.2 1.2-1.7 3-1.5 5.7-3.3 1-.5 2-.3Z"/><path fill="#60c5df" fill-opacity=".8" d="M185.9 5q-.4 1-1.3 1l-6.6.9.2-1c2.8-1.2 4.7-2.8 7.7-.9"/><path fill="#5ab9cf" fill-opacity=".1" stroke="#5ab9cf" stroke-opacity=".1" stroke-width=".5" d="M151.7 55.4q0 .9 1 1.2c-1.7 1-6.7 4.4-8.5 4.4q.2-.8.8-1.4 3.3-2.3 6.7-4.2Z"/><path fill="#53a8c2" fill-opacity=".2" d="M271 111.3q-.3 1 .8 1.3-3 1.5-5.8 3.4 0-.6.3-1.1c.1-1.6 3.5-3 4.7-3.6"/><path fill="#4fa3bd" fill-opacity=".1" d="M161 386.2q.6.2 1 .7l-5.1 2.8q.2-1-1-1.1 2.4-1.6 5-2.4"/><path fill="#4da3bc" fill-opacity=".1" d="m118.1 163.1.8.6q-2.2 1.6-4.7 3 0-1-1.3-1.1a24 24 0 0 1 5.2-2.5"/><path fill="#59bfd7" fill-opacity=".2" d="M181.6 82.2q.6.8 1.5 1c-2 .6-4 3.2-6 2.8.5-1.8 3.1-2.7 4.5-3.8"/><path fill="#8d7763" fill-opacity=".1" stroke="#8d7763" stroke-opacity=".1" stroke-width=".5" d="M456.6 430q-.3 1.4 1 1.8-2 1.3-4.5 2.2c-.4-1.5 2.7-3 3.5-4Z"/><path fill="#5ebfd8" fill-opacity=".7" d="M271 413.8c0 2-5 2.5-6.3 1.9.9-1.2 4.9-1.7 6.4-1.9"/><path fill="#8f7763" fill-opacity=".1" stroke="#8f7763" stroke-opacity=".1" stroke-width=".5" d="M465.7 441q-.5 1.4 1 1.7c-1 .6-3 2.2-4.6 2.2q1.3-2.4 3.6-4Z"/><path fill="#3a7c8b" fill-opacity=".1" d="M74.7 206q1.1 0 1.3 1-2 1.2-4.2 1.8-.5-.2-.8-.8z"/><path fill="#3c9bb0" fill-opacity=".1" stroke="#3c9bb0" stroke-opacity=".1" stroke-width=".5" d="M92.9 226.3q1-.3 1.1.7-2 1.2-4.3 1.8-.4-.2-.7-.7 1.8-1.4 3.9-1.8Z"/><path fill="#62868c" fill-opacity=".8" d="m357 353-1.8 2q-.4-2.2 1.7-2m-3.2 2h1.4q-.6.6-1.3 1zm-1 .9q.6 0 1.1.2-.2.8-1 .8zm0 1q-.1.8-1 .9a2 2 0 0 1 1-.9"/><path fill="#44b8cc" fill-opacity=".2" d="m251.9 383.6.4 1.3q-1.5 1.2-3 1.7-.5-.7-1.4-1 2-1.2 4-2"/><path fill="#66d4f1" fill-opacity=".7" d="M219.2 3h-5.5c.3-1.7 5.5-1.4 5.5 0"/><path fill="#51aac1" fill-opacity=".2" d="M296.9 384q-.7 2.2-3 1.8l-.8.5c.2-1.6 2.4-2.4 3.8-2.2"/><path fill="#a38670" fill-opacity=".4" stroke="#a38670" stroke-opacity=".4" stroke-width=".5" d="m357.2 386-.2-1.4c.7-.5 2-2 2.9-1.2q-1 1.7-2.7 2.5Z"/><path fill="#836d5e" fill-opacity=".8" d="M474.1 507.8c-.3 2-4 1.5-5.4 1 1-1 4-.9 5.4-1"/><path fill="#967c69" fill-opacity=".7" d="m381.3 343.8-2 .6c-.5-1.8 1.3-1.8 2-.6m-2 .6q-.4 2-2.4 2 .4-2 2.4-2"/><path fill="#336978" fill-opacity=".1" d="M46 140.6v1.4q-.9.3-1.6 1-.8-.1-1.4-1 1.4-.8 3-1.4"/><path fill="#69cfe9" fill-opacity=".3" stroke="#69cfe9" stroke-opacity=".3" stroke-width=".5" d="M352.8 355.9v1a2 2 0 0 0-1 .9l-1.8.2q.7-2 2.8-2.1Z"/><path fill="#477f8e" fill-opacity=".7" d="M243 4c1.1 0 4-.6 4.4 1-1.3.1-3.6.3-4.5-1"/><path fill="#262626" stroke="#262626" stroke-width=".5" d="M213.7 3h5.5q12 0 23.8 1c.8 1.3 3 1.1 4.4 1 153.2 21.7 229.7 200.7 140.2 327a2 2 0 0 0-.3 1.4 19621 19621 0 0 0 92.7 87.1 159 159 0 0 1 21.7 24.7q.4.9 1.5 1.2l-.5.7 1 1.2 4 7.4q2.4 5.6 4.3 11.4V478l-.6.6c-4.1 15.6-20.4 25.3-35.1 29q-1.1.3-2.2.2c-1.4.2-4.3 0-5.4 1-4.2-1-8.3-.7-12.4-2.1a4 4 0 0 0-2.4-.6l-1-.3q-.2-.6-.9-1c-8.4-2.4-19.5-11.6-26-17.6q-50.7-48-102-95.7-.6-.4-1.3-.1A240 240 0 0 1 273 413q-.9 0-1.1.9h-.8c-1.5 0-5.5.6-6.4 1.8-11.7 2.3-23.5 4.7-35.3 6.3H227a152 152 0 0 1-43.2-1.3q-6.3-1.2-12.7-2-.9-1-2.4-.8-7.2-1.6-14.4-3.7a6 6 0 0 0-2.7-.3h-.4q-.4-.7-1.2-1l-12.4-4q-5-2.3-10.3-4.1-.6-.7-1.4-1.1c-6.6.5-41.2-23.2-47.8-28.5A203 203 0 0 1 .7 229.7q-.2-.6-.7-.7v-29q.5-.2.6-.7A203 203 0 0 1 47 84.3q.6-.7.6-1.7 1.5.2 1.3-1.4.9-.2 1.2-1 .8-.5 1.2-1.1Q65.6 63.5 82 50.4q4.8-3.8 9.9-7.1.6-.4.8-1.3 1 0 2-.5l8.1-5q1-.7.8-1.8c.7.3 2.5.4 2-1q.9.4 1.3-.4.6 0 1-.3c1.2 0 3.3-.9 2.6-2.3.8.3 2.6.3 2-1a3 3 0 0 0 2.3-.2l9.5-4.8q.3-.2.3-.5c2.2-1 10.4-3.7 11.5-5.3h1.1q19.3-7.6 39.6-11.7l1.1-.3q3.3-.3 6.6-1 .9 0 1.3-.9 1.2.3 2.6.2A366 366 0 0 1 213.7 3ZM200 9.8a69 69 0 0 0-13.6 1.3 190 190 0 0 0-28.7 5.9q-1 0-1.8.6c-6.1 1.8-12 3.4-17.6 6.5C108 35 78 59.5 57.8 84.4q-.7 1-.7 2-.8-.2-1.2.6l-5.2 6.7-.8 1.2c-3.7 6.3-8.1 12.3-11.2 19l-.8 1-4.8 9c-1.5 4-5.5 11.5-6.1 15.5q-.5-.1-.6.2c-1.3 4.5-4 10-4.5 14.7q-.6 0-.6.9l-.5 1.7q-2.2 7-3.6 14.3-.9 3.4-1.3 6.9c-.6 3-1.8 9-1.6 12a3 3 0 0 0 0 1.7 41 41 0 0 0-1.3 11.5 354 354 0 0 0 0 19.8q0 3.4.7 6.9c.1 3-.1 7.8 1.4 10.4a8 8 0 0 0 0 3.7l2.8 13.8q.8 4.4 2 8.7.1.9 1 1.3-.3 2.2.7 4.1c.8 2.5 5 15.8 6.2 16.9q1.2 3.6 3 7l4.4 9.4q1.6 3 3.4 5.8l4.6 8.3q1.6 2.4 3.6 4.6c1 2 3.3 6.2 5.4 7.2q.3.7 1.1.4c-1 2.2 4.2 7.7 6 8.4-.2 1.7 2.6 3.7 3.5 5.2q9.9 10.8 21.1 20.3l4 3.8q8.3 6.3 17.1 11.8c2 1.7 4.5 3.6 7 4.1.7 1.6 7.3 4.7 9 5.6a191 191 0 0 0 19.8 9c2.6 1.4 8.5 4.3 11.3 4q.7.8 1.6 1c3.9 1.2 8.5 3.3 12.6 3.3.2 1.4 2.9 1 3.9 1-3.7.3 14.5 3.8 13.8 3.2 4.5 1.4 9.2 1.7 13.9 2.2l3 .5 5.8.2a167 167 0 0 0 56-6.3c.6 0 2.3.1 2-1 25.3-4.1 71-30.1 87.2-50.1q.7-.1 1-.9.8 0 1-.8.9-.5 1.3-1.1l1.8-2q-.1-.6.4-1a171 171 0 0 0 33.4-46.6 177 177 0 0 0 7.9-17.1c1.2-2.9 4.8-10.8 4.3-13.6q1 .2 1-.8l.7-2.2q.5 0 .3-.5l6-27.2a4 4 0 0 0 0-1.8c1.3-4 .9-8.2 1.7-12.3l.5-6.8c-.3-3.2.6-8.3-.3-11.2l.3-1V204c-.4-5.9-.8-14.4-2.3-20l.2-1q-.2-2.5-.9-5a221 221 0 0 0-9.2-34l-.8-1c-.4-2.3-1.7-6.7-3.4-8.4 0-.4 0-1.7-.7-1.4 0-3-2.3-5.8-3.3-8.6l-2.7-4.5a65 65 0 0 0-4.2-8.3c-1.5-2-2.8-5.6-4.8-6.8a20 20 0 0 0-5.1-8 44 44 0 0 0-4-6.2q-5.7-7.4-12-14.1-1-1.7-2.8-2.5c-.4-1.4-5.8-7.2-7.4-7.3a4 4 0 0 0-2.6-2.7c-.7-2-6.5-5.8-8.2-7.6a3 3 0 0 0-2.6-1.3c-.9-2.4-5.5-4.7-7.3-6.7l-5.8-3.7a49 49 0 0 0-10.2-6.2c-1.6-1.6-4.7-3.7-7-3.8a1 1 0 0 0-.5-.9 119 119 0 0 0-10-4.8h-.9q-.2-.9-1.1-1.2l-9.5-4-7.6-3a187 187 0 0 0-15.4-4.5 186 186 0 0 0-13.2-3.3q-1.3-.2-2.7-.2-7.5-1.8-15.3-2.3-5.4-1-10.8-.8H218q-9-.9-18 0Zm179.3 334.6q-2 0-2.4 2c-.7 1.9-6.8 6.3-8.2 8.7-1 .9-3.6 2.6-3.6 4a267 267 0 0 1-30.7 24.8q-.5 1.1.4 2a88 88 0 0 0 8.4 7.3q.8 1.6 2.4 2.7 3.8 4 8 7.5 1.9 2.1 4.1 3.5l27 25.6q.8 1 2 1.4 10.8 11 22 21.4l2.3 1.8a137 137 0 0 0 10.8 9.7c1.3 1.9 6 6.9 8.1 7.2.3 1.8 3.2 4 4.7 5q7 7.8 15.5 14.3a8 8 0 0 0 6.6 2.8c6.4.3 12.2-5.3 17-8.7 12.9.6 25.6 2.5 25.2-14.7l.1-4.4a38 38 0 0 0-8-21.2q-1.7-2.7-3.6-5.3l-7.1-8-3-2.8a209 209 0 0 0-10-10L444 402a4 4 0 0 0-2.9-2c-.4-1.3-6.4-6.8-8.1-7.1q-.5-1.7-1.8-3c-5.2-3.8-11.2-10.8-16.3-14.2a17 17 0 0 0-4.7-4.7c-1.8-2-5.6-6.4-8.1-7a3.4 3.4 0 0 0-2.8-2.7 95 95 0 0 0-14.4-13.7q-1.4-2.2-3.6-3.8c-.7-1.2-2.5-1.2-2 .6Z"/><path fill="#54a3b7" fill-opacity=".7" d="M49 81.2q.2 1.5-1.3 1.4.4-1 1.3-1.4m-1.4 1.4q0 1-.6 1.6 0-.9.6-1.6"/><path fill="#69d1f2" fill-opacity=".2" d="m199.4 11.4-1.3.7q.2-1.1 1.3-.7m-49.2 11.2-1 .5q0-1 1-.6"/><path fill="#8d7463" fill-opacity=".3" stroke="#8d7463" stroke-opacity=".3" stroke-width=".5" d="M500.7 444.2q1.2-.2 1 1zm1 1q1.2 0 1.5 1.2-1-.3-1.5-1.2Z"/><path fill="#64d4f0" fill-opacity=".2" stroke="#64d4f0" stroke-opacity=".2" stroke-width=".5" d="M227 422h2.4c-.5 1-2.3 1.6-2.4 0Z"/><path fill="#68d6f1" fill-opacity=".1" stroke="#68d6f1" stroke-opacity=".1" stroke-width=".5" d="m183.8 420.7 2.4.2c-.3 1.4-2.3 1.6-2.4-.2Z"/><path fill="#467d8c" fill-opacity=".2" stroke="#467d8c" stroke-opacity=".2" stroke-width=".5" d="m400.2 143 .8 1q-1.1 0-2.2-.4.7-.4 1.4-.5Z"/><path fill="#54a1b5" fill-opacity=".4" stroke="#54a1b5" stroke-opacity=".4" stroke-width=".5" d="M168.7 418q1.5-.3 2.4.7-1.5.6-2.4-.8Z"/><path fill="#62c9e1" fill-opacity=".2" stroke="#62c9e1" stroke-opacity=".2" stroke-width=".5" d="M151.6 414a6 6 0 0 1 2.7.2c-.3 1.2-2.4 1-2.7-.3Z"/><path fill="#897262" fill-opacity=".9" d="M454 506a4 4 0 0 1 2.3.7q-1 .3-2 0z"/><path fill="#519daf" fill-opacity=".6" d="M137.6 409q1.5 0 2.6.8c-.8.1-2.4.3-2.6-.8"/><path fill="#4d8ea0" fill-opacity=".8" d="M264.8 408c.2 1-1.5 1-2 .9q.5-1.1 2-1"/><path fill="#66d4f1" stroke="#66d4f1" stroke-width=".5" d="m218 10-.2.8q-33.1 22.2-66 44.6a78 78 0 0 0-6.8 4.2q-.6.6-.8 1.4-3.3.3-5.2 3l-2 .6q-2 1.5.4 1.3 1.1-.6 1.6-1.8c1.7.1 4.1-1.8 5.2-3.1 1.8 0 6.8-3.4 8.5-4.4l76.4-44q1-.8.8-2 7.8.6 15.3 2.4l-10 6.8c-1.4 1-6 2.5-6.3 4.3q-2.1-.1-3 1.8-1.3-.1-1.9 1.1-2.3 0-2.9 2.1-1.2-.4-2 .6c.5 1 1.5 0 2-.6a4 4 0 0 0 3-2q1.3 0 1.9-1.2a3 3 0 0 0 3-1.8c2.4-.3 5.2-2 6.8-4 2.6-.1 6.6-3.6 9.3-4.7l2.8-2.2q6.8 1.4 13.2 3.3l-2.1 1c-9.4 6.2-19.4 11.8-28.5 18.4-1.7.8-8.8 4.5-9.3 6l-1.3.3a4 4 0 0 0-2 1.9c-1.7-.2-4 1.3-4.9 2.8q-2.1.1-3 2-1.4-.2-2 .8c.6 1 1.7 0 2-.8q2.1-.1 3-2c1.4 0 4.8-1.3 5-2.8q1.4.2 2.1-1l1.2-.5 43.7-25q5.8 1.5 11.5 3.3a2 2 0 0 1-1.5 1l-1.3.9-3 2q-1.8 1-3.5 2.4-.9.2-1.6.8l-1.4 1.2-1.5.8-1.7 1-1.2.8-3 2-2 1.1-1.1.8q-1.9 1.1-3.5 2.5l-1.5.7a59 59 0 0 1-6 3.9q-.7.6-1.8 1.1l-1.2.8-6.5 4.5q-.9.1-1.6.7t-1.8 1l-1.1 1a74 74 0 0 0-12.6 8.3q-.8.2-1.5.8l-2 1-1 1-1.6 1-1.2.8a71 71 0 0 0-9.7 6.4l-1.4.7-3 1.9-3 2-6.5 4.5-1.4.6q-1 .8-2.2 1.3c-1.4 1-4 2-4.5 3.8q-2.6.3-4.6 2-.4.4-.4 1-2.2 0-3.1 2-1.2-.3-2 .7c.7 1 2 .1 2-.8q2.1 0 3-2a7 7 0 0 0 5.1-2.9c2 .4 4-2.2 6-2.7l3.6-2.6q1-.2 1.7-.7l3.7-2 1.2-.7.7-.5 1.3-.7 5-2.8.7-.6q.8 0 1.3-.6l3.9-2.2 1-1a21 21 0 0 0 5.8-3.2q.8-.1 1.4-.6l5-2.8.6-.5q.8-.2 1.3-.8a58 58 0 0 0 10.5-6.2q.9 0 1.6-.7l5-2.8.5-.5q.8-.2 1.4-.8l5-2.7.8-.5q.8-.3 1.3-.8l4.9-2.7 5-3 .8-.6 1.2-.6 5-2.8.6-.6q.9-.2 1.4-.7l5-2.7.6-.6a185 185 0 0 0 11.4-6.4q.6-.4.8-1.3l9.5 4q1 .3 1.1 1.2c-4.5 1.8-8.4 5.2-12.7 7.4q-.9.5-1 1.2-3.1.6-5 3.1c-1.6.1-4.4 1.5-5 3-1.8 0-4 1.6-5 3q-1.5-.3-2 1.1c-1 .3-2.7.5-3 1.6 1 1.4 2.5-.7 3-1.6q1.5.3 2-1c1.9.1 4-1.5 5-3 1.6-.2 4.7-1.3 5-3a6 6 0 0 0 5-3.2 3 3 0 0 0 2-.2l13.1-7.6 1-.3q4.3 2 8.5 4.3.5.3.5.9l-.9.4q-.8 0-1.4.7l-3 1.9-3 1.9-3.1 2-3.6 2.4q-.8.2-1.4.8l-1.5 1.2q-.8.2-1.5.7l-1.7 1-1.2.9-3.1 2-3.5 2.5q-.8 0-1.5.7l-1.5 1.2q-.9.2-1.5.8l-6 3.7a58 58 0 0 0-6.4 4.6q-1 0-1.6.7l-2 1-1 .9-1.8 1-4.2 2.8-5 3.3a37 37 0 0 0-6 3.8l-3 1.9q-2 1-3.4 2.6-1 0-1.6.7l-2 1-1 1a25 25 0 0 0-4.8 3l-1.2.7q-3.4 2.4-7 4.3l-1 1-3 1.7L209 97l-1.2.8q-1.9 1.2-3.5 2.5l-1.5.8q-.8.4-1.5 1.2-.9.2-1.6.8-.9.7-1.8 1l-1 .9q-.9.7-1.9 1l-1.2.8a212 212 0 0 1-18.1 11.4 4 4 0 0 0-1.6 1.9q-1.5-.4-2 1c-1 .3-2.7.6-3 1.7 1 1.3 2.5-.8 3-1.7q1.4.3 2-1 1 0 2-.5 5.4-3.1 10.6-6.6.8-.5 1.5-.5a16 16 0 0 1 4-2.4l1.2-.7.6-.6q.8 0 1.4-.5 1.7-1.3 3.7-2.2.8-.3 1.3-.7l.6-.6q.8-.1 1.4-.7 2-.8 3.5-2.2.9 0 1.6-.7l5-2.8.7-.5 1.2-.7 5-2.8.7-.6 1.3-.6 5-2.8.6-.6q.8-.1 1.4-.7l3-1.7.6-.5 1.4-.8 5-2.7.7-.5q.8-.2 1.3-.8l3.7-2 1.3-.7.7-.5q.8-.3 1.3-.7 2-1.3 4-2l1-1 3.8-2 1.2-.8 2-1.2 5-2.8.8-.6 1.3-.6 5-2.8.7-.6q.7 0 1.3-.6 1.8-1 3.5-2.3a46 46 0 0 0 8.5-4.8l5-2.7.6-.5q.8-.3 1.3-.7a37 37 0 0 1 5-2.8q2.9-1.5 5.5-3.6.8 0 1.5-.6a55 55 0 0 0 7-4q1.8-.4 1.8-2.4 5.4 2.5 10.2 6.2-.6 0-1 .3l-1.6.7q-.9.7-1.9 1.2l-1 .8a39 39 0 0 0-6.6 4.3q-.7.2-1.5.8l-3 1.9-1.8 1-1.2.8q-1.9 1-3.5 2.6l-1.6.6q-.9.7-1.9 1.1l-1 1-3 1.7-3.5 2.5-1.6.7-3 2-1.7 1-1.2.8a21 21 0 0 0-3.5 2.6q-.9 0-1.5.7l-3 1.8-3 1.9q-2 1.1-3.6 2.5a3 3 0 0 0-1.4.7l-1.7 1-4.8 3.4q-.8 0-1.5.7l-2 1-1 1-1.8 1-1.2.7q-3.3 2.4-7 4.3l-1 1a38 38 0 0 0-6.6 4.3q-.8 0-1.4.6l-2 1.1-1 1-1.8 1-1.2.7q-1.8 1.5-3.7 2.5l-1.3.8-1.7 1-1.3.8a74 74 0 0 0-6.5 4.5l-1.9.7a71 71 0 0 1-6.7 4.3q-1 .7-1.6 1.6c-1.4.2-4.6 1.7-5 3.1q-2.2-.2-3 2a2 2 0 0 0-2 .7c.7 1 1.8 0 2-.8a4 4 0 0 0 3-1.9c2.1.4 4.1-1.3 5-3q1 0 2-.4l14.3-8.3c.9-1.3 4.3-2.3 5.7-3.3l1.3-.7q1.8-1.3 3.8-2.2l1.2-.8.8-.5 6.2-3.5.8-.6q.7-.2 1.3-.6a34 34 0 0 1 5-2.8l5-3 .7-.5a59 59 0 0 0 6.2-3.5l.8-.6 1.2-.6 5-2.8.7-.6q.8 0 1.3-.6 1.9-1.2 4-2.1.6-.3 1.1-.9l5-2.8.8-.5 1-.7 5.1-2.8.6-.5q.8-.2 1.3-.8l5.1-2.7.8-.5 1.1-.7q2-.8 3.6-2.3.8-.2 1.5-.8l5-2.7.7-.6q.8 0 1.3-.6l5-2.8.6-.6 1.4-.6 3.7-2 1.3-.8q3-1.6 5.6-3.6.8 0 1.4-.6 2.1-.9 3.8-2.5c1.8 2 6.4 4.3 7.3 6.7q-1 0-1.8.7l-69 43q-.3.4-.3 1-.8 0-1.5.2a43 43 0 0 0-8.8 5.7q-2 .5-3 2-1.4 0-2 1.1-2.1 0-3 2a2 2 0 0 0-1.9.7c.6.9 1.6-.1 2-.7a3 3 0 0 0 2.9-2q1.5.3 2-1 2.3 0 3-2c2 .4 7.4-3.5 9.1-4.8l1.2-.5 72.9-42a2 2 0 0 0 .8-2c1.7 1.7 7.5 5.5 8.2 7.5q-1-.1-1.9.5L271 111.3c-1.3.5-4.6 2-4.7 3.6a6 6 0 0 0-2.4.5 71 71 0 0 1-7 4.3 2 2 0 0 0-.9 1.4c-1.2-.3-4.8 1.6-5 2.9q-2.1 0-3 2-1.5-.2-2 1-1.2 0-2.1.4-2 1.7.5 1.2a3 3 0 0 0 1.6-1.5q1.4 0 2-1.1a4 4 0 0 0 3-2c1.8.2 4.1-1.6 5-2.9q1 0 2-.4l8-4.7q2.9-2 5.7-3.4l77-44.4q.9-.4 1.1-1.3c1.6 0 7 6 7.4 7.3q-1.2 0-2.2.5l-68 42.6a206 206 0 0 0-14 8.4q-.6.5-1 1.3c-1.7 0-4.4 1.4-5 3a7 7 0 0 0-5 3 3 3 0 0 0-3 1.9 2 2 0 0 0-2.1.8c.6 1 2.2.2 2-.8a4 4 0 0 0 3-1.9c2 .2 4.1-1.5 5.2-3 1.4-.2 4.7-1.3 4.9-3 2 0 5.5-2.2 6.8-3.9 2.4-.1 6.8-3.3 9-4.5 23.9-14 48.3-27.7 72.2-42q6.3 6.9 12 14.2l-1.4.3-.9.6q-1.8 1.1-3.5 2.5-.8.2-1.5.7l-1.7 1-1.3.8-3 2q-2 1-3.6 2.6l-1.4.6-4.8 3-1.2.8-.8.6-1.3.7q-.8.6-1.9 1l-1 1-1.8 1-1.2.7a18 18 0 0 0-3.5 2.6q-.8 0-1.6.6l-2 1.1-.9.9-3 1.8-3.6 2.5-1.4.8-1.7 1-1.2.7-3.1 2q-1.9 1.1-3.5 2.5-.8.1-1.5.7L311 129l-1.2.8-3.1 1.9q-2 1-3.4 2.6l-1.6.7a36 36 0 0 0-6.5 4.3q-.8 0-1.5.6-1 .7-2 1.1l-1 1a158 158 0 0 1-10 6l-1 .9-3 1.8q-1.9 1.1-3.5 2.5-.8.2-1.4.8-1 .4-1.8 1l-3 2q-.8.2-1.3.7-1.9 1-3.5 2.6-.7 0-1.6.6l-1.6 1-3.1 2-1.2.8q-2 1-3.5 2.6l-1.5.6-1.8 1-1.2.8q-1.7 1.5-3.7 2.5l-1.3.7q-.8.8-2 1.1l-1 1-2.1 1.1-8 5q-1.1.7-1.6 1.9a6 6 0 0 0-5 3c-1.8 0-3.8 1.4-5 2.6 1 1.5 4.3-1.6 5-2.5q3.2-.6 5-3.1a4 4 0 0 0 2-.5 213 213 0 0 1 13-7.5l1.3-.8.9-.4 1.1-.8q.8-.6 1.8-1 .7-.2 1.2-.7l1-.6 1-.7 5-2.7.7-.5q.8-.2 1.3-.8l5-2.7.6-.5q.9-.2 1.4-.8l5-2.7 5-3 .9-.5q.7-.2 1.1-.8l5-2.7.7-.5 1.3-.7 5-2.9.8-.5q.6-.2 1.1-.7l10.1-5.7.8-.6 1.2-.6 5-2.8.7-.5 1.2-.7 5.1-2.8.8-.5q.7-.2 1.3-.7 1.9-.9 3.3-2.4 1-.1 1.7-.7l5-2.7.7-.6q.6 0 1.1-.7l5.1-2.7.7-.5q.8-.3 1.3-.7l5-2.9.8-.5q.7 0 1.1-.6 2-1 3.6-2.3.8-.2 1.5-.8l5-2.7.8-.6q.6 0 1.2-.6l5-2.8.7-.6q.8 0 1.3-.7l5-2.8.7-.4 1.4-.7 1.7-1 1.2-.8.7-.5 1.3-.8q1.8-.5 2.7-2a20 20 0 0 1 5.1 8l-1.5.9-1.7 1-1.2.8a24 24 0 0 0-3.6 2.5q-.8.2-1.3.8-1 .3-1.8 1l-1.3.7-5 3.2q-1 .7-2 1l-1 1-1.8 1-1.2.8-5 3.2-2 1.2-1 .8-3 1.8-3.6 2.5q-.8 0-1.3.7L340 131l-1.2.8-1.9 1.1-1.2.8q-1.9 1-3.5 2.4l-1.5.8-1.7 1-1.3.8a17 17 0 0 0-3.4 2.6q-.9.2-1.6.6l-2 1-1 1-1.8 1-1.2.8q-1.8 1.1-3.5 2.5-.8.2-1.5.8l-2 1-1 1-1.8 1q-.6.2-1.2.7a19 19 0 0 0-3.4 2.5q-1 .3-1.7.8l-2.9 1.7-1.8 1.2-1.2.8-3.6 2.5q-.8.2-1.4.7l-1.7 1-1.3.8q-1.9 1.1-3.5 2.6-.8.2-1.5.6-1 .7-2 1.1l-1 .9-3 1.8a80 80 0 0 1-8 5.2l-1.8 1-1.2.8q-2 1.2-3.6 2.5l-1.3.7-3 1.8q-.9.8-1.9 1.3l-1.2.7q-1.6 1.5-3.6 2.5l-1.3.9q-1.2.4-2.1 1l-8.1 5q-1.1.7-1.6 2-1-.2-2 .3a6 6 0 0 0-3 2.6c-1.8 0-3.9 1.4-5 2.7.6 1.4 4.7-1.8 5-2.7 1.5-.3 4.7-1.3 5-3a4 4 0 0 0 2-.5 263 263 0 0 1 13.3-7.6q.7-.2 1-.8 1.8-1.2 3.8-2l1.2-.8.8-.4 1.2-.9 5-2.7.7-.6 1.3-.6 5-2.8.7-.5q.8-.2 1.4-.7l10-5.8.6-.6q.8 0 1.4-.6l5-2.8.6-.6q.8-.2 1.3-.6l5.8-3.3 1.3-.7q1.8-.9 3.3-2.4.9 0 1.6-.6l5-2.8.7-.6q.8-.2 1.4-.7a68 68 0 0 0 6.9-3.9l5-2.8a42 42 0 0 1 5-3l.7-.6q.8 0 1.4-.7l5-2.7.7-.5q.6-.2 1.2-.7l5-2.8.7-.6q.8 0 1.4-.6 1.8-1.2 4-2.2l1-.9 5-2.7.7-.5q.8-.2 1.2-.8a32 32 0 0 0 5-2.7l.7-.5 1.3-.7 5-2.8.6-.6 1.4-.7 3.7-2 1.3-.7 5-3 .8-.6 1.2-.6q1.2-.8 2.6-1.3 2.4 4 4.2 8.3c-1.5-.2-2.9 1.3-4.1 2q-.6.2-1.2.7l-3.1 2-.7.5q-.8.1-1.3.6l-2 1.2-1 .9-3 1.7-.6.6-1.4.7-2 1-1 1-3 1.7-4 2.4-1 .8-6.9 4.2-1 .9-3.1 1.7-4 2.4-1 1-1.8.8-1.2.8-4 2.4-1 .7-1.8 1.1-1.2.8q-2 1.4-4 2.3l-1 1-1.8 1-1.2.7q-1.8 1-3.6 2.5l-1.4.7-1.7 1-1.3.8q-2 1-3.5 2.6-.7 0-1.5.6l-3 1.8-3.6 2.5q-.8.2-1.4.7l-3 1.8-3.6 2.6a2 2 0 0 0-1.3.6q-1 .8-2.1 1.3l-10.7 6.5q-.7.4-.8 1.2l-1.5.1q-1.1.8-1.6 2a7 7 0 0 0-5.1 2.9q-3 .6-5.1 3-2 .3-3 2.1-1.2-.3-2 .7c.6 1 2.1.3 2-.7q2.1-.4 3-2.1a5 5 0 0 0 4-1.6 3 3 0 0 0 1-1.4c2 .2 4.2-1.2 5.2-2.9q1.3.3 2-.8l1.1-.3 12.9-7.4.7-.8q.9 0 1.4-.5 1.8-1.2 3.9-2.2l1.2-.7.8-.5 1.2-.7q2-1 3.5-2.3.9 0 1.5-.7l3.8-2a6 6 0 0 0 2-1.4q.6-.2 1.1-.6l5.1-2.8.6-.5 1.4-.7 5-2.8 5-3 .8-.6 1.2-.7a51 51 0 0 0 7-3.9l5-2.8.7-.5 1.3-.7 4-2.2q.6-.3 1-.9 3-1.2 5.5-3.3l1.5-.7 5-2.7.7-.6 1.4-.7 5-2.7.6-.5 1.4-.8q2-.8 3.4-2.3.8 0 1.5-.6a55 55 0 0 0 7-4l4.5-2.5c1 2.8 3.2 5.7 3.3 8.6-1.6 0-13.2 7.6-15.5 9a4 4 0 0 0-1.5 1.7c-1.8 0-4.4 1.4-5 3.2-1.5-.5-6.8 2.7-7.2 3.9q-2 0-2.9 2-1.4-.2-2 1a3 3 0 0 0-3.1 2 2 2 0 0 0-2 .7c.7.8 2 0 2-.8a4 4 0 0 0 3.1-1.9 2 2 0 0 0 2-1q2.1 0 3-2c1.3.2 6.5-2.6 7-4a7 7 0 0 0 5-3.1 3 3 0 0 0 2-.3q7.8-4.6 15.8-9c1.7 1.7 3 6 3.4 8.5q-.8 0-1.4.5l-.6.7q-.9 0-1.4.6l-1.8 1-3 2-1.3.8q-2 1-3.6 2.6-.8.2-1.4.6l-3 1.8-3.5 2.5q-.8.1-1.5.7l-2 1.1-1 1-3 1.7q-2 1.1-3.6 2.5-.8.2-1.4.8l-8 5-1.9 1-1 .9-1.9 1-1.2.8q-1.9 1-3.4 2.5a3 3 0 0 0-1.6.7l-3 1.9-1.8 1.1-1.2.8-.8.5-1.1.8-2 1-1 1a55 55 0 0 0-8 5l-3 1.8-3.1 1.9q-1.8 1.3-4 2.2l-1 1.1a26 26 0 0 0-6.6 4.3q-.8 0-1.3.6l-3 1.9-3.1 1.9q-2 1-3.6 2.6-.8 0-1.4.6l-3 1.8-3.5 2.5q-.9.2-1.6.8l-1.8 1.1-1 .8-3.1 1.8q-1.7 1.5-3.5 2.5-.8.2-1.5.8l-2 1.1-8.7 5.5q-.8.6-.8 1.4c-2-.1-4.4 1.2-5.2 3q-1.5-.4-2 1a5 5 0 0 0-3.1 2 2 2 0 0 0-1.8.7c.6.9 2 .1 1.8-.8q2.4.4 3-2 1.5.5 2.1-.9 3-.6 5.2-3 .9 0 1.8-.5l9-5.2a72 72 0 0 1 12.3-7.2l5.8-3.4 1.2-.6 3.7-2.1 5-3q.8-.3 1.3-.7l.7-.6 1.3-.7 5-2.7.8-.6q.6-.2 1.2-.7a122 122 0 0 0 12-7l5-2.7.7-.5q.8-.3 1.3-.7l5-2.8.7-.6q.8-.3 1.3-.7l5-2.7q3-1.5 5.5-3.5.9 0 1.5-.7l5-2.8.7-.6 1.2-.7 5.1-2.7.7-.5 1.3-.7 4-2.2q.6-.3 1.1-.9l5-2.7.7-.5 1.2-.8 5-2.7.6-.5q.8-.2 1.4-.8l3.7-2q.8-.3 1.3-.7l.7-.5q.8-.3 1.2-.7l4.1-2.2q.6-.3 1.1-.9l2.5-1.3q4.6 13.9 7.3 28.4l-1.2-.3-1.4.9-.7.5-1.3.8-1.6 1-1.3.8q-2 1-3.5 2.5-.9 0-1.5.7l-3 1.8-3 1.9q-2 1.3-3.9 2.3-.6.4-1 1l-1.9 1-1.2.7q-1.9 1-3.5 2.6-.8 0-1.5.6l-1.8 1-1.2.8-3.5 2.5q-.8 0-1.5.7L369 203l-1.2.8-1.9 1.1-1.2.8a21 21 0 0 1-4 2.3l-1 1-3 1.7q-1.9 1.1-3.5 2.5l-1.5.8-3 1.7q-2 1.2-3.6 2.6-.8.2-1.4.7l-3 1.8-3 1.9-5 3.2-1.7 1.1-1.2.8q-2 1-3.7 2.5-.8 0-1.5.7l-1.6 1a30 30 0 0 0-4.8 3.2q-.9.3-1.4.8l-2 1.2c-2.3 1.6-8.6 4.6-9.8 6.7-1.7.1-4.4 1.4-5 3.2-1.3-.3-4.6 1.6-5 2.8q-2.3 0-3 2a2 2 0 0 0-2 .8c.6 1 2.1.2 2-.8q2-.2 3-2c1.8.4 4-1.4 5-2.8 1.8-.3 4.3-1.5 5-3.2a3 3 0 0 0 2-.3l9.1-5.2q1.8-1.5 4-2.4.6-.2 1.2-.8l.8-.5q.6 0 1-.6a35 35 0 0 1 5.2-2.8q2.9-1.6 5.5-3.6a268 268 0 0 0 13.5-7.4l.7-.5 1.3-.8 4-2 1-1a25 25 0 0 0 5-2.7l2-1.2 5-2.8.6-.6q.8-.2 1.4-.6l5-2.8.7-.5 1.3-.7a11 11 0 0 0 3.4-2.4q1 0 1.7-.6l5-2.8.7-.5 1.3-.7 5-2.8.5-.6 1.4-.6 3.7-2 1.3-.8a75 75 0 0 0 7-4.2l3.7-2h1c1.4 5.5 1.8 14 2.1 20l-1-.2-1.4.8-3 2q-2 1.4-4 2.3l-1 1-1.7 1-1.2.8a62 62 0 0 0-6.6 4.4q-.7.2-1.5.7l-3 1.9-3 1.9q-2 1.1-3.6 2.5-.8.3-1.3.7l-3 1.9-1.9 1.1-1.2.8a21 21 0 0 0-3.5 2.5l-1.5.7-2 1.2-1 .9-3 1.7q-2 1-3.5 2.6-.7.1-1.5.7l-2 1-1 1-3 1.7q-2 1.2-3.6 2.6-.8.1-1.4.7l-2 1-1 1q-1 .3-1.7 1l-1.3.7-3.6 2.5-1.4.7-1.9 1.1-1.1 1-1.7 1-1.2.7-3.1 2q-2 1-3.5 2.6-.8 0-1.5.6l-1.7 1-1.3.8q-.8.8-1.8 1.3l-1.2.7-3.5 2.6q-.8.2-1.5.6-1 .8-2 1.3c-1.5.9-4 2-4.6 3.8q-1.2-.1-2.2.3-3.3 2.5-6.9 4.4-.7.4-1 1.2-2.1.2-3 2-1.3 0-2 .8c.7.9 2 .1 2-.8a3 3 0 0 0 3-2h1.5l19.8-11.6.7-.5 1.2-.7 5.1-2.8.8-.5 1.3-.8 3.6-2q.8-.3 1.3-.7l.8-.5 1.2-.7q2-1.4 4-2l1.1-1 5-2.8.7-.5 1.3-.8 5-2.7.6-.6 1.3-.6 5-2.9.8-.4 1.2-.7q1.8-1 3.5-2.3.8 0 1.5-.6l5-3 .8-.5 1.2-.7 5-2.7.8-.6q.6-.2 1.2-.7a112 112 0 0 0 12-7 37 37 0 0 0 5-2.7l.7-.5 1.2-.7 5.1-2.8.8-.6q.7-.2 1.2-.6l5-2.8 3.7-2.2 1-.2c.8 2.9 0 8 .2 11.2q-1.9-.4-3.2.9l-1.3.7-3 2q-1.9 1-3.5 2.5-.8.1-1.4.7l-3 2-1.9 1-1.2.8-3.6 2.5q-.7.2-1.5.7l-1.5 1.4q-.8 0-1.3.6l-3 1.9-3.1 2q-1.8.9-3.4 2.4l-1.6.8-4.8 3-1.2.7-1.8 1.2-1.2.8q-2 1-3.6 2.6-.8 0-1.4.7l-2 1-1 1q-1 .4-1.7 1l-1.3.8a49 49 0 0 0-6.5 4.5q-.8.2-1.4.6l-2 1-1 1-3.1 1.8-3.5 2.5q-.8 0-1.5.7l-1.5 1.4q-.8 0-1.4.7-1 .4-1.8 1l-1.3.7q-.8.7-1.8 1.2l-1.2.8q-2 1.2-3.6 2.6-.8.2-1.4.6-.9.7-1.9 1.2L318 283l-1.2.7q-.5 1.3-2 1.3c-2.2 1.7-8.8 4.8-9.7 7-1.8-.2-4 1.5-5.1 2.9q-2.3 0-2.8 2.2-1.4-.4-2 .6c.5 1 1.6 0 2-.6q2-.4 2.8-2.2c1.6-.1 4.7-1.2 5.1-2.9a4 4 0 0 0 2-.5 208 208 0 0 1 14.3-8.2q1.7-1.5 3.8-2.2l1.2-.8.8-.5 1.3-.7 5-2.8.6-.5q.8-.3 1.3-.7l5-2.8.7-.5 1.4-.8 3.8-2q.6-.4 1-1a38 38 0 0 0 5.1-2.7l.6-.6 1.5-.6 5-2.8.6-.6q.8 0 1.4-.6l5-2.9.6-.5q.8-.3 1.3-.7 2-.8 3.4-2.2a3 3 0 0 0 1.6-.7l3.8-2 1.2-.8.8-.6 1.2-.6 3.8-2 1.2-.8.6-.5 1.4-.7 5-2.8a62 62 0 0 0 7-4.3l5-2.7.8-.6a31 31 0 0 0 5-2.7l1.2-.8q.5-.8 1.4-1.3c-.8 4-.4 8.3-1.8 12.3q-5.8 3.2-11.5 6.8l-6.8 4.2a5 5 0 0 0-1.6 1.7 7 7 0 0 0-5 3.2 7 7 0 0 0-5 3 7 7 0 0 0-5 3q-1.2-.3-1.8.6c.5.8 1.8.2 1.7-.7 2 .2 4-1.5 5.1-3q3-.4 5-3a7 7 0 0 0 5-3c2 .4 7.8-4 10-5l10-6q-3.2 13.5-6 27.2l-1.3.3q-9.6 5.7-19 11.7c-1.7 1.1-3.9 1.8-4.6 3.9q-1.2-.2-2.2.2-3.3 2.4-7 4.4-.6.5-.8 1.3-2.4 0-3 2a2 2 0 0 0-2.1.9q-2.2.3-3 2.2-1-.3-1.8.6c.5.9 1.7.1 1.8-.6q2.3-.2 3-2.2 1.4.5 2-.9 2.1-.1 3-2h1.5l8.5-5 5.7-3.4q8.4-5.4 17.3-10c.5 2.9-3 10.8-4.3 13.7q-.8 0-.3.7-3.4 8.4-7.6 16.4a2 2 0 0 0-1.8.1 1745 1745 0 0 1-34 22.2q-.8.5-1 1.3-2.2 0-3 2-1.2-.2-1.9.7c.6 1 1.9 0 1.9-.8 1.1-.2 2.9-.3 3-1.9a4 4 0 0 0 2-.4l9-5.2q11.5-7 23.4-13.3a171 171 0 0 1-31 41.8q-.5.5-.5 1.1-2.1-.2-1.7 2h-1.4l-1 .8q-2 .3-2.8 2.1-1.2 0-1.8.9c.6.8 1.5-.3 1.8-.9l1.9-.1c-16.3 20-62 46-87.1 50.2 3-5.2 28.4-18.2 29-22.2q2.4.5 3-1.8 2.2-.1 3.1-2c1-.2 3-.2 3-1.6-1-1-2.6.6-3 1.6q-2.3 0-3 2c-1.5-.1-3.6.7-3.8 2.3q-1-.2-1.9.3L250 410.5q-1 .6-.9 1.7a167 167 0 0 1-42.3 3q.6-.9 1.4-1.4 20.6-13.4 41.1-27.2 1.7-.6 3-1.7l9.3-6q.5-.3.5-.8a5 5 0 0 0 2.2-.4q2-1.8-.6-1.3-1.2.5-1.6 1.7c-1.8-.3-7 3.7-9 4.5q-.8.4-1.1 1-2 .8-4 2-23.5 13.8-47.2 27.3l-1.8 1-1 .7c-4.7-.6-9.5-.9-14-2.3l1.2-.2q2.8-2.1 5.9-3.8l1-1.3c1.4-.1 4.5-1.7 5-3q2.2 0 3-2.1 1 .3 2-.7c-.7-.8-1.7.1-2 .7q-2.2.3-3 2.2c-1.8-.4-4.2 1.4-5 2.9-2 0-5.5 2.4-7 3.7q-1 .5-1 1.6c.7.6-17.5-2.9-13.8-3.2q17.7-11.6 35.7-22.9.7-.3.8-1.2l1.5-.1q1.2-.7 1.8-2c1.4 0 4.6-1.4 5-2.8q2-.3 2.9-2.2 1.5.4 2-.9c1 .2 4.3-.8 2.7-2q-1.8.3-2.7 2-1.2 0-2 .9-2.1.4-3 2.2-3 .3-5 2.8-1.2 0-2 .8l-1.1.6-39.4 22.6q-.9.5-1 1.2c-4.2 0-8.8-2-12.7-3.3q2.7-1.5 5.3-3.4.6-.5.7-1.2 1.8 0 3.3-1.2l11-6.8q.7-.4 1-1.2 2.1 0 3-2 1.4.2 2-1 2.1-.2 3-2c.6.2 2.7-.3 1.6-1.1q-1 0-1.5 1.1-2.2 0-3 2-1.5-.3-2.1 1-2.2 0-3 2a3 3 0 0 0-2.2.4l-8.2 4.8q-1 .7-1.6 1.5-2.6.2-3.3 2.5c-1.7-1-6 2.6-7.6 3.6-2.9.3-8.7-2.6-11.3-4l16-10.1 5.2-2.8c2-1.4 9-5 10-6.8q3-.6 5-3 3-.7 5-3 1.2 0 2.2-.4 2-1.8-.6-1.3-1.2.5-1.6 1.6c-1.8-.2-4.2 1.5-5 3a6 6 0 0 0-5 3c-2.1-.4-7.4 4-9.7 4.8q-.9.5-1.3 1.4-2.7.8-5 2.4-3.5 2-6.6 4.2-4.5 2-8.6 4.6-.7 1-1.8 2-5.7-2.3-11.1-5l1.4-.5 1-.6q.8-.7 1.8-1.2l1.2-.8 3.6-2.5 1.4-.8 2-1 1-1 1.7-1 1.2-.7 3.1-2a13 13 0 0 0 3.4-2.6q.8-.2 1.5-.7l2-1 1.1-.9 1.8-1 1.2-.8 1.8-1.2 1.2-.8q2-1 3.5-2.6.9 0 1.5-.7l1.9-1 1-1 3.1-1.7 6.6-4.5q.7-.2 1.5-.7a59 59 0 0 1 5.9-3.8l3.4-2.5q.9-.2 1.6-.8l1.5-1.2 1.4-.7 3-1.9 3.1-1.9q1.9-1 3.5-2.6.8 0 1.4-.7l2-1 1-1 1.8-1 1.3-.7q.8-.7 1.8-1.2l1.2-.8q1.9-1 3.5-2.6l1.6-.7 1.9-1 1-1 3-1.7q.8-.9 1.8-1.3l1.2-.7q1.7-1.4 3.5-2.6l1.5-.6q.8-.9 2-1l8.7-5.8q.7-.5 1-1.4c1.3.2 4.7-1.7 5-3 1 0 2.9 0 3-1.5-1-1-2.6.6-3 1.5-2 0-4 1.5-5 3q-1.2 0-2 .6l-19.2 11.3-.8.4-1.4.7-3.6 2.1-1.3.7-5 3-.7.6q-.7.2-1.3.6l-5 2.8-.8.6q-.7.2-1.3.6l-4.9 2.8-6 3.4q-.6.4-1 1a37 37 0 0 0-5 2.6l-.8.5-1.2.7-5 2.8-.7.5-1.4.7-3.6 2.1-1.3.7-.7.5q-.8.2-1.3.7-2 .9-3.5 2.4l-6.6 3.4-.7.6-1.2.6-5 2.8-.8.6q-.6 0-1.2.6L147 375l-1.3.7q-2.9 1.5-5.5 3.6-.8 0-1.5.6l-5 2.8-.6.6q-.8.2-1.4.7a26 26 0 0 0-5 2.8l-.8.5q-.6.2-1.1.6l-1.9 1-1.3.8q-.6.4-.6 1.1c-1.7-.9-8.3-4-9-5.6l1.3-1q1.8-1 3.5-2.4.8-.2 1.5-.8l2-1 1-1 1.7-1 1.2-.8 3.1-1.9q1.9-1 3.5-2.4a4 4 0 0 0 1.5-1q1-.3 1.7-.9l1.2-.8 3.1-1.9q2-1 3.6-2.6.8 0 1.4-.6l1.7-1.1 1.2-.8 1.9-1.1 1.2-.8q2-1 3.5-2.6.8 0 1.5-.6l2-1.1 1-.9 1.8-1 1.2-.8q1.8-1.1 3.5-2.5.8-.1 1.4-.7l2.1-1 1-1.1 1.8-1 1.2-.7 3.6-2.6q.8 0 1.3-.6l2-1.1 1-1 3.1-1.7 3.5-2.5q.8-.2 1.4-.7l1.6-1.3q.8-.2 1.4-.8l1.8-1a81 81 0 0 0 7.8-5.3q.9 0 1.6-.6a43 43 0 0 1 6-3.8 46 46 0 0 1 6.6-4.3l1.2-.8 2-1.6q7.1-4 13.8-8.3a2 2 0 0 0 1-1.2q2 0 3-2a2 2 0 0 0 2-1.1q2 0 3-1.6c-1-1.1-2.7.5-3 1.6q-1.5-.2-2 1a3 3 0 0 0-3 2q-1.2-.1-2 .4l-14.1 8.1a10 10 0 0 1-4 2.5l-1.3.7-.8.4q-.6.4-1 1l-5.2 2.6-.8.5-1.1.7-3.7 2-1.3.8-.8.6a2 2 0 0 0-1.1.6q-2 1.2-4.1 2l-1 1-5 2.8-.7.6q-.7.1-1.3.7l-5 2.7-.8.4-1.2.8-5 3-.7.4-1.2.7-3.2 1.7-.6.6-1.3.7-5 2.7-.8.6-1.2.6-5 2.9-.7.5q-.8 0-1.4.6l-4.9 2.8-.8.5-1.2.8q-2 .9-3.6 2.3-.7.1-1.5.5l-5 3-.6.5q-.8.1-1.3.7l-5 2.8-.8.4-1.3.8-4.9 2.7-5 3-.8.5-1.2.8a36 36 0 0 0-5 2.7l-.7.6q-.6.2-1 .8-8.7-5.5-17.2-11.8 1.8-.4 3-1.6.8-.1 1.4-.7l1.8-1 1.2-.8a19 19 0 0 0 3.6-2.4q.7-.1 1.5-.7l2-1.2 1-.9 1.8-1q.6-.2 1.2-.7 1.8-1 3.4-2.5.9-.2 1.6-.8a34 34 0 0 0 6.4-4.3q.8 0 1.5-.6l1.8-1 1.3-.8a18 18 0 0 0 3.5-2.6q.8 0 1.5-.6l3-2 1.8-1 1.2-.8q2-1 3.4-2.6a4 4 0 0 0 1.7-.6l1.7-1 1.2-.8 3.5-2.5q.8-.2 1.6-.7l1.6-1 3-2 1.3-.8 2-1.3 2-1.1 1-.9 1.8-1q.6-.2 1.2-.7 2-1 3.4-2.6 1-.1 1.7-.7l1.7-1q.6-.2 1.2-.7l3.6-2.5q.8-.2 1.4-.8a25 25 0 0 0 4.8-3l1.2-.7q1.8-1.7 4-2.4l1-.8 3.6-2.4 1.7-.6q5.1-3.6 10.4-6.8a3 3 0 0 0 1-1.3q1.3.2 2-1 2.1-.2 3-2c.5.2 2.6-.4 1.5-1.1q-1 0-1.4 1.1-2.4 0-3.1 2-1.4-.2-2 1-1.2 0-2 .6l-10.8 6.2q-1 .4-1 1.5H186q-.8.2-1.4.6-1.7 1.4-3.8 2l-1.2 1q-1.7 1.4-3.7 2l-1.3.8-.8.6q-.6.2-1.1.6l-12 6.9-.7.5q-.7.2-1.3.7-2 .9-3.6 2.2-.8.2-1.3.8a35 35 0 0 0-5.1 2.7l-.7.6q-.8 0-1.3.6l-5.7 3.4q-.7 0-1.3.6L136 335l-1.2.8a26 26 0 0 0-5.5 3.5q-.8 0-1.5.6l-5.1 2.8-.9.4-1.2.9-3.6 2-1.3.7-5.9 3.3-1.1 1-5 2.7-.7.6a2 2 0 0 0-1.2.7 29 29 0 0 0-5.1 2.7l-.7.5q-.8.1-1.3.7l-3.7 2-1.3.9-.7.4-1.4.8-1.7 1q-.7.2-1.2.7l-.8.8q-11.2-9.5-21.2-20.3c2.5 0 4.3-2.5 6.6-3.2l1-1 1.8-1q.6-.2 1.2-.7l3.5-2.5q.8-.1 1.5-.7l1.7-1 3-2 1.3-.8q2-1 3.4-2.6a27 27 0 0 0 8-5q.9-.2 1.6-.7l2-1 1-1a32 32 0 0 0 6.6-4.3q.8-.2 1.3-.7 1-.4 1.8-1l6.2-3.9 2-1.1 1.1-1 1.8-1 1.2-.7q1.8-1 3.4-2.5.9-.2 1.5-.7l1.8-1 1.3-.8 1.8-1.2 1.2-.8 3.9-2.3 1-.9 1.9-1 1.2-.8 3.5-2.5 1.5-.7 1.7-1.1 1.2-.8 3.1-1.9q2-1 3.4-2.6 1 0 1.6-.7l3-1.7q1.9-1.1 3.5-2.6.8 0 1.4-.7l2-1 1.1-.9 3-1.8a22 22 0 0 0 3.6-2.6q.9 0 1.3-.7l1.8-1 1.3-.7 3.4-2.6q.9-.1 1.5-.7 1-.7 2.2-1.2l8-5a5 5 0 0 0 1.6-1.6c1.4-.4 4.5-1.7 5-3.2a4 4 0 0 0 3.1-1.9q1.3 0 1.8-1 2.1 0 3.2-1.7c-1-1.1-2.7.6-3.2 1.6q-1.5-.3-1.8 1.1-2.2-.1-3 1.9c-2 0-4.4 1.2-5.1 3.2a3 3 0 0 0-2 .2l-9 5.2q-1.8 1.6-4 2.4-.8.3-1.3.7l-.8.6q-.6.1-1.1.5a24 24 0 0 1-3.8 2.2l-1.3.8-.8.5-1.2.6-4 2.2q-.6.3-1 1a36 36 0 0 0-7 3.8l-5 2.8-.8.5-1.2.7-5 2.8-.8.5-1.3.7q-1.8 1-3.4 2.3-.8.2-1.6.7a133 133 0 0 0-11.9 6.9l-.8.4-1.2.7a138 138 0 0 0-10.6 6.3l-1.5.7-3.7 2-1.3.8-1.9 1.3a33 33 0 0 0-5 2.8l-.7.4-1.4.7-4.8 2.9-3.9 2.1-1.3.8-.7.6-1.3.6-5 2.8-.5.5q-.8.2-1.3.7l-5 3q-.4 0-.8.3l-1.3.7q-2 1.2-4 2l-1 1.1a26 26 0 0 0-5 2.7l-.9.5-1.2.7c-.7.5-2.5 1-2.4 2.1-1.7-.7-6.8-6.2-5.9-8.4q1 .6 1.7 0l14.4-8.8q1-.6 1.6-1.7 3.2-.5 5-3c1.5-.3 4.7-1.4 4.9-3.2q1.3.2 2.2-.8 1.8-.5 2.9-2 1.5 0 2-1 2.1-.2 3-2a2 2 0 0 0 2-.8c-.7-.9-1.7 0-2 .7q-2.2 0-3 2-1.5-.2-2 1-2.3 0-2.9 2-1.5-.2-2.2 1c-1.6.3-4.4 1.3-4.9 3a6 6 0 0 0-5 3.1q-1-.2-2 .3-8.5 4.8-16.8 9.8c-2.1-1-4.4-5.1-5.4-7.2a3 3 0 0 0 1.5-1l3-1.7 4-2.4 1-.8 3-1.8q1.8-1.3 3.8-2.3.8-.4 1.2-1l1.8-1 1.2-.7q2-1.4 4-2.3l1-.9 3-1.8q2-1 3.6-2.6l1.5-.6 1.7-1 1.2-.8q1.8-1.4 4-2.3l1-1a11 11 0 0 0 3-1.7q2-1 3.4-2.6.9 0 1.5-.6l3.1-1.8q1.8-1.1 3.5-2.5.9-.2 1.6-.7l1.7-1 1.2-.8q2-1.2 3.5-2.6.8 0 1.5-.7l3-1.7q2-1 3.4-2.6 1 0 1.6-.6l1.8-1 1.2-.8q1.9-1.1 3.5-2.5.7-.2 1.5-.8l1.8-1 1.2-.7 3.6-2.6q.8-.1 1.5-.7l1.7-1 1.2-.7 3.4-2.6q.8 0 1.7-.6.7-.9 1.9-1.2l13-8.1q1.2-.7 1.7-1.8c1.6-.1 4.4-1.4 5-3 .7 0 2 .1 2-1q2.1-.1 2.9-2c.4.1 2.7-.3 1.6-1q-1 0-1.6 1-2.1 0-3 2-1.3-.3-1.9 1a7 7 0 0 0-5 3q-1 0-2 .5l-14 8.1q-2 1.4-4 2.4l-2 1.2-1.3.6q-1.8 1.5-4 2.2l-1 1-5 2.7-.7.5q-.8.1-1.3.7l-5 2.9-.6.5q-.8.2-1.5.7l-4.9 2.8q-3 1.5-5.6 3.4-.8.2-1.3.8a33 33 0 0 0-7.2 4 34 34 0 0 0-4.9 2.8l-.8.4-1.2.8-3.7 2-1.3.7-5.5 3.5q-.8.2-1.5.8a35 35 0 0 0-5 2.7l-.8.5-1.3.8a37 37 0 0 0-4.9 2.8l-.7.4-1.3.8-4 2-1.1 1-5 2.7-.7.4-1.2.8-5 2.8-.8.5-1.2.8-4.5 2.4-4.6-8.3H40l1.2-.9a16 16 0 0 0 3.6-2.5 3 3 0 0 0 1.5-.7l2-1 1-1 3-1.7q1.9-1.1 3.5-2.6.9-.1 1.5-.7l3-1.8 3-2q1.9-1 3.5-2.4a3 3 0 0 0 1.5-.7L70 292l1.2-.8 3.1-1.9q2-1 3.5-2.6.8-.2 1.5-.7l1.7-1 4.7-3.3q.8 0 1.5-.6l2-1.2 1.1-.8 3-1.8q1.9-1.2 3.5-2.6.8-.2 1.5-.6l2-1.2 1-.8 1.8-1 1.2-.8q2-1.2 3.6-2.6.8 0 1.4-.7l1.7-1 1.2-.8 3.1-1.9q2-1 3.4-2.5.9-.2 1.6-.8l1.8-1 1.2-.7 3.5-2.5 1.5-.7q.8-.7 2-1l1-1 1.8-1 1.2-.8 3.6-2.6q.8 0 1.4-.6 1-.7 2-1l1-1 1.8-1 1.2-.8q1.9-1 3.5-2.6.8 0 1.5-.6l1.7-1 1.3-.8q.8-.7 1.8-1.2l1.2-.8q2-1 3.5-2.6.8 0 1.5-.6l1.8-1 1.2-.8 3.5-2.7q.8 0 1.4-.5 1-.8 2-1.2l1.1-1 2.1-1.1 8-5q.9-.6 1.5-1.7c1.6-.2 4.5-1.4 5-3a8 8 0 0 0 5-3.1c1 .2 5.9-2.1 4.7-3.1-1.7-.2-3.7 1.8-4.7 3a7 7 0 0 0-5 3.2c-1.6 0-4.4 1.3-5 3q-1-.1-2 .4-4.4 2.8-9 5.2l-3.7 2.6-1.5.5q-1.7 1.3-3.8 2.2l-1.2.7-.9.4q-.7.3-1 .8l-5 2.9-.9.4q-.6.2-1.1.8l-4 2-1.1 1a39 39 0 0 0-7 3.9l-5.8 3.2-1.3.9-4.9 2.8-.7.5q-.8.2-1.3.7l-4 2-1 1a39 39 0 0 0-5 2.7l-.7.5q-.8.3-1.3.7l-5 2.9-.7.5-1.4.7-3.6 2-1.3.7q-3 1.6-5.6 3.6l-1.5.6-5 2.8-.7.6-1.2.7a27 27 0 0 0-5 2.8l-.6.5-1.4.7-5 2.7-5 3-.7.5-1.3.7-5 2.8-.8.5-1.2.7-5 2.8-.7.4-1.3.8q-2 1.2-4 2.1l-1 1a25 25 0 0 0-5.8 3.1l-1.3.8-5 2.8-.7.6-1.2.5q-1.6.9-2.5 2.5l-4.5-9.3 1.1-.3q.9 0 1.5-.7l2-1 1-1 1.8-1 1.2-.7 3.5-2.5 1.5-.7 2-1.2 1-.9a43 43 0 0 0 6.6-4.2q.8-.2 1.4-.8l1.9-1 1.2-1 3-1.7q1.8-1.1 3.4-2.5l1.5-.7L68 273l1.2-.8 3.1-1.9a18 18 0 0 0 3.6-2.6q.8-.2 1.4-.7l1.7-1 1.2-.8 3.1-1.9 4-2.4 1-1 3-1.6q1.8-1.2 3.5-2.6.7 0 1.5-.7l2-1.1 1-1 1.8-.8 1.2-.8 3.5-2.5q.8-.2 1.5-.7l2-1.1 1-1 1.8-1 1.2-.7 3.6-2.5q.8-.2 1.4-.7l3-1.9 3-2q1.9-1 3.5-2.5.8-.2 1.4-.7l1.8-1 1.2-.8 3.1-1.9q2-1.4 4-2.3l1-1 1.8-1 1.2-.7 3.5-2.5q.9-.2 1.6-.8t1.9-1l1-1 1.8-1 1.2-.7 3.6-2.6q.8-.2 1.3-.6.8-.8 2-1.2l1-.9 2-1.1c2.2-1.6 8.8-4.6 9.7-6.9a7 7 0 0 0 5.1-3q3-.6 5-3c.8.3 4.4-1 2.5-1.8q-1.8 0-2.5 1.9c-1.9-.4-4 1.4-5 3a7 7 0 0 0-5.1 3q-1-.2-2 .3l-9 5.2q-1.7 1.6-3.9 2.4l-1.2.8-.9.4-1.2.7a17 17 0 0 1-4 2l-1 1-5 2.8-.8.6-1.3.6-5 2.8-.5.6q-.9 0-1.4.6l-5 2.9-.6.4q-.8.2-1.5.7-1.8 1.2-3.9 2l-1 1-5 2.8-.7.6-1.3.6-5 2.8-.7.5q-.7.2-1.3.7L107 243l-1.3.7q-2.8 1.5-5.5 3.5l-1.6.7-3.7 2-1.2.8-.8.6q-.7 0-1.2.6l-5 3q-.3 0-.7.3-.8.2-1.3.7a103 103 0 0 1-8.8 5l-1.3.8-.7.5-1.1.7-5.1 2.8-.8.4-1.1.8-5.1 2.8-.7.5q-.8.2-1.3.7l-4 2.1-1 1-5 2.7-.8.5q-.8.3-1.3.8l-5 2.7-.6.6-1.3.6-5 2.9-.7.5-1.2.6q-2 1.2-4 2a2 2 0 0 0-1 1c-1.2-1-5.4-14.4-6.2-16.9l67.7-42.2q.4-.4.4-1 2.3-.6 4.3-1.8l7-4.3a8 8 0 0 0 3-2.6 7 7 0 0 0 5-3 15 15 0 0 0 7-4.1c.8-.1 4-1 2.6-2.1q-1.8.5-2.5 2c-1.6-.4-3.2 1.7-4.8 2q-1.5.6-2.4 2.2a7 7 0 0 0-5 3q-1 0-2 .3c-1.7 1.4-8.2 4.1-9 5.9q-2.1.5-3.9 1.8l-67 38.6q-.8.3-1 1.2-1-.3-1-1.3-1.4-4.4-2.1-8.7 1 .2 2.1-.3 36.7-23.1 73.3-45.8l13-8q1.1-.7 1.7-1.8a7 7 0 0 0 5-3q1.5.3 2-1 2-.2 3-2c.6.2 2.5-.4 1.5-1a2 2 0 0 0-1.4 1q-2.2 0-3.2 2-1.3-.3-1.9 1a7 7 0 0 0-5 3q-1 0-2 .5l-14.1 8.2-75 43.6-1.9-10.2q1 .1 2-.4l54.3-34q.4-.3.5-.9 2.2-.6 4.2-1.8l8.4-5.2a4 4 0 0 0 1.5-1.8c2 .1 4.2-1.4 5-3q3.2-.5 5.1-3 3-.6 5-3c.5.1 2.6-.4 1.5-1q-1 0-1.5 1a6 6 0 0 0-5 3c-1.8 0-4.2 1.3-5 3-1.8 0-4.3 1.4-5 3-2.3-.1-9.2 4.5-11.3 6l-3.7 2-56 32.4c-1.4-2.6-1.2-7.5-1.3-10.4l1-.3q.9 0 1.6-.7l3-1.7q.8-.7 1.8-1.2l1.2-.8q1.9-1 3.5-2.6.8 0 1.5-.7l2-1q.6-.4 1-1l3-1.7 3.6-2.5q.8-.1 1.4-.8l3-1.7q.8-.8 1.8-1.2l1.2-.8a16 16 0 0 0 3.5-2.6q.8 0 1.5-.7l1.8-1 1.2-.7L54 205l1.2-.8q2-1 3.6-2.6.8 0 1.3-.7l3-1.7L65 198l1.2-.8q1.9-1 3.5-2.5l1.5-.7 1.8-1 1.2-.8 3.5-2.5q.8-.2 1.5-.8l2-1 1-1a28 28 0 0 0 6.5-4.2l1.5-.7q1-.7 2-1l1-1 1.8-1 1.2-.8 3.6-2.5q.8-.3 1.3-.7l4.9-3 1.2-.8 3.4-2.6q.7-.1 1.5-.5l2-1.5q2.5-1.4 4.7-3 2.5-1.2 4.8-2.6c1.2-1.3 4.7-2.6 5.3-4q2.1-.3 3-2.1 1.4.2 2-1c.9-.4 2.7-.5 3-1.7-1-1.2-2.7.6-3 1.7q-1.4-.3-2 1-2.2 0-3 2-1-.1-2 .4l-7 4q-1.2.7-1.9 1.7a24 24 0 0 0-5.2 2.5l-.8.6-1.4.6q-1.8 1.4-4 2.2l-.8.8q-2 1.2-4 2.1l-1.2.8-.6.6a2 2 0 0 0-1.4.7 31 31 0 0 0-5 2.7l-.7.5q-.8.2-1.3.7l-5 2.9-.8.5q-.7.2-1.2.7l-4 2-1 1a31 31 0 0 0-5 2.7l-.7.5-1.4.7-4.9 2.9-.7.5-1.3.6-3.7 2-1.3.8q-3 1.6-5.6 3.6-.7.2-1.5.7l-5 2.7-.6.5q-.7.1-1.2.7l-5 2.8-10.9 6.2-1.2.8-.7.5-1.3.8a26 26 0 0 0-5 2.8l-.8.5q-.7.1-1.2.7l-5 2.8-.7.5q-.8.1-1.4.7H13l-.1-11 1.2.2 1.3-.9.6-.5 1.4-.8 1.8-1 1.2-1 1.7-1 4.3-2.7q1.9-1 3.5-2.6.7 0 1.5-.6t2-1l1-1.1 1.7-1 1.2-.8 3.1-2q1.8-1 3.5-2.4l1.5-.7 1.5-1.3q.8-.1 1.4-.8l1.8-1 1.2-.8 3.1-2q1.9-1 3.4-2.4a4 4 0 0 0 1.6-.8l1.5-1.2q.8 0 1.4-.7l3-1.9 3.1-2q1.9-1 3.5-2.5.8 0 1.5-.6l1.5-1.3 1.5-.7 2-1.2 1-.8a30 30 0 0 0 4.8-3l1.2-.8a21 21 0 0 0 3.5-2.5q.8-.2 1.4-.8l2-1q.7-.5 1.1-1a28 28 0 0 0 4.8-3l1.2-.7q1.9-1 3.5-2.6a3 3 0 0 0 1.5-.7l2-1 1-1 1.8-1 1.2-.7 1.8-1.2 1.2-.8 3.7-2.5 1.4-.7q.8-1 1.8-1.1l1-1 1.8-1 1.2-.8 3.7-2.5c2.1-1 7-3.7 8-5.6 1.8-.3 4.4-1.5 5-3.2q2.2.2 3.1-2 1.2.3 1.9-.6c-.6-1-1.7 0-1.9.7q-2.1.2-3 2c-1.8.2-4.3 1.3-5 3.1q-1 0-2 .3l-5.7 3.3q-1 .6-1.2 1.7c-1.6-.6-4.6 2-6 2.8l-1.3.6q-1.8 1.3-3.9 2.2l-1.2.7-.7.5-1.3.7-5 2.9q-.4 0-.8.3l-1.2.8q-2 1.2-4 2.1l-1 1a43 43 0 0 0-7 4l-5 2.8-.8.4q-.7.2-1.3.7l-10.8 6-1.1 1-5 2.8-.8.6q-.7.2-1.2.6a37 37 0 0 0-5 3l-.8.3-1.2.7-4 2.2-1 .8q-2.9 1.4-5.4 3.3-.9.2-1.7.6l-5 3-.6.4q-.7.3-1.3.8a33 33 0 0 0-5 2.8l-.7.4-1.3.8a37 37 0 0 0-5 2.7 57 57 0 0 0-7 4.3 28 28 0 0 0-5 2.7l-.7.5q-.8.1-1.3.6l-2.7 1.5a41 41 0 0 1 1.3-11.5q1 .1 1.7-.4l7.4-4.6q1-.6 1.5-1.9c2 .3 4-1.4 5.2-2.8q1.5.3 1.9-1.2a3 3 0 0 0 3-1.9q1.4.3 2-1 2-.1 3-2 1.1.2 1.9-.7c-.6-.9-1.7 0-2 .7q-2.2 0-2.9 2-1.4-.2-2 1a3 3 0 0 0-3 2q-1.5-.3-2 1.1a7 7 0 0 0-5 2.8c-3.3.4-7 4.4-10.7 5.1-.2-2.9 1-8.8 1.5-12a4 4 0 0 0 3.2-1l1.2-.8 3.1-2q3.3-2 6.5-4.4.8-.2 1.5-.8l2-1 1-1 1.7-1 1.3-.7 3-2q2-1 3.4-2.6 1-.2 1.7-.6l1.5-1.4q.8 0 1.4-.7l1.8-1 1.2-1 6-3.7 3.5-2.5 1.6-.8q.9-.7 1.9-1l1-1 1.7-1 3-2q.8-.3 1.3-.7l6.5-4.5q.8-.2 1.5-.8 1-.7 2-1l1-1 3-1.8 3-2 5-3.2 1.6-1.2q.8 0 1.3-.7 1-.8 2-1.1l1.1-1 2-1.2 8.7-5.4q.8-.4.9-1.3c1.4-.1 4.6-1.6 5-3.1 1.2 0 3-.2 3.1-1.6-1-1-2.8.5-3 1.6-1.8-.2-4.3 1.6-5.1 3q-1 0-2 .5a254 254 0 0 1-13.2 7.5l-.9.8q-1.7 1.5-3.9 2.1l-1.2.8-.7.5q-.8.3-1.3.7l-3.7 2-1.3.8-.7.6q-.7 0-1.3.6L77 136l-1.3.7-7 4.3-5 2.7-.7.5-1.4.7-4.9 2.9-.7.5q-.7.1-1.3.7l-3.7 2-1.3.7-5 3-.7.6q-.8.2-1.3.6l-3.8 2-1.2.8a44 44 0 0 1-7.8 4.5l-1.1.8-4 2-1 1a28 28 0 0 0-5 2.7q-.6 1-1.6 1.5 1.4-7.3 3.6-14.3c2.5.6 19.8-12.3 23.6-13.9q.7-.7 1.6-1c2.7-1.9 8.1-4.5 10-6.9q3.2-.6 5-3.1 1.5.3 2-1c.5-.2 4.1-1.2 2.6-2q-2.3-.3-2.6 2-1.5-.2-2 1c-1.7.2-4.4 1.3-5 3.1q-1-.1-2 .4l-6.4 3.7q-1 .6-1.6 1.4-1.6.5-3 1.4-10.5 6.2-21.1 12.2c.5-4.5 3.2-10.1 4.5-14.6q.2-.4.6-.2 2.1.7 3-1.4a7 7 0 0 0 5-3q3-.5 5-3a10 10 0 0 0 5-2.7c-.9-1.3-4.7 1.7-5 2.7-1.8-.2-4.2 1.5-5 3-1.7 0-4.3 1.3-5 3a3 3 0 0 0-3 1.4c.6-4 4.6-11.4 6-15.5q1-.3.8-1.3 1.2.4 2.2-.2l46-30.9c3.6-3.3 11.3-6.8 14.9-10.3q2-.4 3-2.2 1.2.2 1.9-.7c-.6-.9-1.6 0-1.9.7q-2.2 0-3 2.2c-1.2-.2-9.1 4.6-10.4 5.6-15 8-31.6 18-46.4 26.7q-.8.4-1.4.4c3-6.7 7.5-12.7 11.2-19q1-.1.8-1.2h1.5l30.2-20.8c.9-1 3.6-1.2 3.4-2.7.6-.2 4.6-1 2.7-2a3 3 0 0 0-2.7 2c-1.4-.3-2.3 1.3-3.8 1.5l-.9 1q-2.2.8-4 2-10.2 5.7-20 11.7 0-1.2.7-2c20.2-25 50.2-49.3 80.5-60.3a112 112 0 0 1-17.4 13.5c-1 2-1.7 1.5-3.4 2.4l-.4.9q-1.6.5-3 1.7c1 1.5 2.4-1 3-1.7q2.3.2 3.8-1.6a2256 2256 0 0 0 38.4-22q.6-.4.5-1 13.1-3.6 26.6-5.2l-45.8 32.1c-1.4 1-7.2 4.2-7.6 5.6q-2.1.2-3 2.2l-.6.5q.5 0 .6-.5 2.3 0 3-2.2 1 .3 2-.2l6.7-4 57.7-33.2q.6-.7.6-1.6 9-.8 18 .2Zm-82 8.2.2.7c-1.1 1.6-9.3 4.4-11.5 5.3q-.7-.4-.6-1.2l8.6-4.7q1.6-.4 3.3 0ZM91.7 41.8l1.1.2q-.1.9-.8 1.3-5.1 3.4-9.9 7 0-1.9 1.3-3.3zM126.8 53c.4 0 1.8-.4.8-1a1 1 0 0 0-.8 1Zm127 84.9q.6 0 1.1-.6-.9-.3-1.1.6ZM397 174a9 9 0 0 0-5 2.6c.9 1.4 4.6-1.7 5-2.5 1 .2 5.8-2.2 4.6-3.2-1.3.4-4.2 1.7-4.6 3.2Zm-8.2 5q.8 0 1.1-.6-.8-.3-1 .6Zm11.2 83q-3.1.5-5 3a9 9 0 0 0-5 3q-2.2 0-3 2-1.3-.3-2 .7c.5 1 2 .3 2-.7 1-.4 2.9-.7 3-2 1.4.3 4.7-1.6 5-3a6 6 0 0 0 5-3c1 .3 6.3-2.1 4.6-3q-3 .5-4.6 3Zm-6.3 29.4c.5-.2 3-.6 1.8-1.5q-1.5 0-1.8 1.5ZM90.9 350q-2.2 0-3 2-1.2-.2-2 1c-1.3 0-4.4 1.5-4.9 2.7.6 1.3 4.7-1.6 5-2.8.6.2 2.1.2 2-.9q2-.2 3-2c.4.2 2.7-.3 1.6-1q-1 0-1.7 1Z"/><path fill="#336a79" fill-opacity=".1" d="M163 397.7v1.3q-1.4 1-3.3 1.2a3.4 3.4 0 0 1 3.3-2.5"/><path fill="#67d2f2" fill-opacity=".2" stroke="#67d2f2" stroke-opacity=".2" stroke-width=".5" d="M175 391q-.3.8-1 1.2l-11 6.8v-1.3l1.6-1.5q4.2-2.2 8.3-4.8a3 3 0 0 1 2.1-.4Z"/><path fill="#67d5f1" fill-opacity=".5" d="M362 298c0 .8-1.3 1.6-1.8.7q.6-.9 1.9-.6"/><path fill="#68d4f2" fill-opacity=".3" stroke="#68d4f2" stroke-opacity=".3" stroke-width=".5" d="M203 297q-.6 1.2-2 1 .5-1.2 2-1Z"/><path fill="#62cdf2" fill-opacity=".2" stroke="#62cdf2" stroke-opacity=".2" stroke-width=".5" d="M400 262a7 7 0 0 1 4.6-3c1.7.9-3.5 3.3-4.6 3Z"/><path fill="#66d4f0" fill-opacity=".5" d="M292 252c.1 1-1.4 1.7-2 .7a2 2 0 0 1 2-.8m-72 125a3 3 0 0 1 2.6-2c1.6 1.2-1.8 2.2-2.7 2"/><path fill="#68d2f0" fill-opacity=".3" stroke="#68d2f0" stroke-opacity=".3" stroke-width=".5" d="M109 217a7 7 0 0 1-5 3.1 7 7 0 0 1 5-3Z"/><path fill="#66d5f1" fill-opacity=".4" d="M194 213a8 8 0 0 1-5 3 7 7 0 0 1 5-3"/><path fill="#65d3f2" fill-opacity=".4" stroke="#65d3f2" stroke-opacity=".4" stroke-width=".5" d="M115 198q-.5 1.3-2 1 .6-1.3 2-1Zm91 97a4 4 0 0 1-3 2q.8-2 3-2Z"/><path fill="#65d2f0" fill-opacity=".2" stroke="#65d2f0" stroke-opacity=".2" stroke-width=".5" d="M91 197a6 6 0 0 1-5 3c.7-1.6 3.2-3 5-3Z"/><path fill="#66d5f1" fill-opacity=".5" d="M269.9 194.9q-.8 1.9-3 2.1 1-1.9 3-2.1m95 101q-.6 2-2.8 2.2.7-2 2.9-2.2"/><path fill="#65d3f1" fill-opacity=".3" stroke="#65d3f1" stroke-opacity=".3" stroke-width=".5" d="M30 182.1c-1 1.4-3.1 3.2-5 2.8q1.9-2.5 5-2.8Zm250 7c-.9 1.6-3.1 3-5 2.8q2-2.6 5-2.9ZM400 262a6 6 0 0 1-5 3q1.9-2.6 5-3Z"/><path fill="#66d5f1" fill-opacity=".5" d="M397 174c-.4 1-4.1 4-5 2.6 1.2-1.2 3.2-2.5 5-2.5"/><path fill="#66d5f4" fill-opacity=".2" stroke="#66d5f4" stroke-opacity=".2" stroke-width=".5" d="M379 143.9a7 7 0 0 1-5 3.2c.7-1.8 3.3-3.2 5-3.2ZM76 318a8 8 0 0 1-5 3 6 6 0 0 1 5-3Z"/><path fill="#61d4f5" fill-opacity=".2" stroke="#61d4f5" stroke-opacity=".2" stroke-width=".5" d="M30 138q-.9 2.1-3 1.4a3 3 0 0 1 3-1.4Z"/><path fill="#66d5f1" fill-opacity=".6" d="M40 132c.3-1 4.1-4 5-2.7a10 10 0 0 1-5 2.7m154 81c1-1.2 3-3.3 4.6-3.1 1.2 1-3.6 3.3-4.7 3"/><path fill="#67d5f1" fill-opacity=".4" d="M248 126q-.6 1.3-2 1 .5-1.2 2-1"/><path fill="#66d4f1" fill-opacity=".5" d="M85.8 70.2a3 3 0 0 1 2.7-2c2 1-2 1.8-2.7 2M250 109a3 3 0 0 1-3 2 3 3 0 0 1 3-2m-78 12c-.5 1-2 3-3 1.7.3-1.1 2-1.4 3-1.7m25 4c-.2.7-1.3 1.7-2 .7a2 2 0 0 1 2-.8m-63 29c.3-1.1 2-3 3-1.6-.3 1.1-2.1 1.2-3 1.6m-94 22q-.9 2-3 2 .7-2 3-2m348.8 3q.3-1 1.1-.6-.4.6-1 .6m-272.7 34q.7-1.7 2.5-2.1c1.3 1-1.8 2-2.5 2M91 309c.3-.6 1.3-1.6 2-.7a2 2 0 0 1-2 .7m0 41q.5-1 1.5-1c1.2.7-1.1 1.2-1.6 1m171 28q.4-1.1 1.6-1.6 2.6-.5.6 1.3a5 5 0 0 1-2.2.3m-79 8q.6-1 1.6-1.1c1.1.8-1 1.3-1.5 1.1M139 64q-.5 1.3-1.6 1.9-2.4 0-.4-1.3zm114.8 74q.3-.9 1.1-.6-.4.6-1.1.6m105.1 18c0 .7-1.3 1.5-2 .7a2 2 0 0 1 2-.8M101 191q.4-1 1.5-1c1 .6-1 1.2-1.5 1m83 8a2.5 2.5 0 0 1 2.5-1.8c1.9.9-1.7 2.1-2.5 1.9m83-2c0 1-1.5 1.7-2 .7q.6-1 2-.7m-9.1 36c.2.8-1.2 1.6-1.8.7a2 2 0 0 1 1.8-.8m-52 22c.5-1 2.1-2.7 3.2-1.6q-1 1.8-3.2 1.6m181 15c.1 1-1.4 1.7-2 .7q.8-1 2-.7"/><path fill="#66d4f1" fill-opacity=".5" d="M117.1 40.9c-.6.7-2 3.2-3 1.7q1.4-1.2 3-1.7m147 7.1c-.6.9-2 3-3 1.6.2-1 2-1.3 3-1.6M99.8 79c.3-.6 1.3-1.6 1.9-.7q-.7.9-1.9.7M247 111c-.3.6-1.2 1.5-1.8.7a2 2 0 0 1 1.8-.7m-103 17c.2-.7 1.3-1.6 1.9-.7q-.7.9-1.9.7m102-1a3 3 0 0 1-1.6 1.6q-2.6.5-.5-1.2 1-.4 2-.3m-183 4q.4-2.3 2.6-2c1.6.8-2.1 1.8-2.6 2m196 3.9c0 1-1.5 1.8-2.1.8a2 2 0 0 1 2-.8M40 176c.2-.6 1.3-1.5 1.9-.7q-.8.9-2 .7m78 20a2 2 0 0 1 1.5-1c1 .6-1 1.2-1.4 1m52.9 50q.7-1 1.6-1c1.1.7-1.2 1.1-1.6 1m79 70c.5-1 2.2-2.7 3.2-1.6-.2 1.5-2 1.4-3.1 1.5M182 374q.4-1.1 1.6-1.6 2.6-.6.6 1.3-1 .4-2.2.3m118 8c.3-1 2-2.7 3-1.6-.2 1.4-2 1.4-3 1.6"/><path fill="#63d3f3" fill-opacity=".2" stroke="#63d3f3" stroke-opacity=".2" stroke-width=".5" d="M281 37.8a6 6 0 0 1-5 3.1q1.9-2.6 5-3Z"/><path fill="#66d2f4" fill-opacity=".2" d="M123 389q-.2 1-1.4.7z"/><path fill="#488090" fill-opacity=".7" d="M57.1 86.4q-.5.5-1.2.6.5-.7 1.2-.6"/><path fill="#4d9baa" fill-opacity=".3" stroke="#4d9baa" stroke-opacity=".3" stroke-width=".5" d="M150 413q.9.1 1.2.9-1 .1-1.2-1Z"/><path fill="#3f6c77" fill-opacity=".6" d="m21.9 154.3-.6.9q0-.7.6-1"/><path fill="#447d8e" fill-opacity=".2" stroke="#447d8e" stroke-opacity=".2" stroke-width=".5" d="M273 413q-.2 1-1.1.9.3-.7 1.1-.9Z"/><path fill="#65cfed" fill-opacity=".4" stroke="#65cfed" stroke-opacity=".4" stroke-width=".5" d="M50.2 80.2q-.3.8-1.2 1 0-1.1 1.2-1Z"/><path fill="#53a0b4" fill-opacity=".8" d="M404 274q0 .9-1 .7.4-.6 1-.8"/><path fill="#549daf" fill-opacity=".3" stroke="#549daf" stroke-opacity=".3" stroke-width=".5" d="M38.7 113.9q0 .9-.8 1z"/><path fill="#62bfd8" fill-opacity=".2" stroke="#62bfd8" stroke-opacity=".2" stroke-width=".5" d="M51.4 79q-.5.8-1.2 1.2 0-1.2 1.2-1.2Z"/><path fill="#6fd3de" fill-opacity=".1" stroke="#6fd3de" stroke-opacity=".1" stroke-width=".5" d="m353.8 355 .1 1-1-.1z"/><path fill="#64d3f3" fill-opacity=".2" d="m15.3 211.3-1.3.9q.2-1.1 1.3-.9"/><path fill="#6d5a51" fill-opacity=".3" stroke="#6d5a51" stroke-opacity=".3" stroke-width=".5" d="M502.7 447.1q1.3 0 1 1.2z"/><path fill="#6a5a4f" fill-opacity=".6" d="M452 504.8q.7.4.9 1-.7-.2-.9-1"/><path fill="#a48672" fill-opacity=".3" d="m452.9 505.8 1 .2.3.8q-1.1 0-1.3-1"/><path fill="#67d5f3" fill-opacity=".2" d="M409 177.8q-.2 1-1.4.9z"/><path fill="#65d5ef" fill-opacity=".2" d="M86 364q-.3 1-1.3.7z"/><path fill="#a38671" stroke="#a38671" stroke-width=".5" d="M385 347.6c3.8 3 11.7 10.1 14.3 13.7l-13 11q.7.7 1.7.3l14-8.6c2.6.6 6.4 5 8.2 7L392 387.4q-1.3 1.3.4 1.2a823 823 0 0 0 22.6-12.9c5 3.3 11 10.4 16.3 14.3l-9.2 7.5-2 2.1q-1.5.6-2.6 1.7.7.7 1.6.3 6-3.9 12.6-7.5.9-.5 1.4-1.2c1.7.2 7.7 5.8 8.1 7.2q-1 .2-1.7.8l-12.1 10.5q.7.5 1.7.1c2-2 14.7-7.7 15-9.6l23.3 19-10.7 9c-.8 1.1-3.9 2.6-3.5 4a2 2 0 0 0-2 .8c.7 1 1.9.1 2-.7q2.6-.9 4.5-2.3 5.6-3.1 11.3-6.5a2 2 0 0 0 .4-2.2q4.2 3.9 8 8l-11.6 10q-2.2 1.5-3.6 3.9-2-.2-2.8 1.6c1.1.7 2.4-.6 2.8-1.6 1.5 0 3.6-1.6 4.5-2.2 2.3-1.7 13.4-6.6 13.7-9q3.7 4 7 8.1l-21 19.6q.9.4 1.7 0c2.8-2.4 22.6-12.4 23-14.3 4.6 6 7.9 13.5 8 21.2-3.4 1.4-7.9 8.1-12 10.2-1.6 1.3-.1 1.5 1 1q5.4-3.5 11-6.8c.3 17.2-12.4 15.3-25.2 14.7-5 3.4-10.7 9-17.1 8.7l15-14.6a1 1 0 0 0-1-.2q-10.4 5.7-20.6 12-8.4-6.4-15.5-14.4l21-19.3c-1.1-.9-1.7.2-2.4 1q-12 6.4-23.3 13.4c-2.1-.3-6.8-5.3-8.1-7.2a3 3 0 0 0 1.8-.8l13-11.3q-.3-.6-1-.4l-15 8.7q-1 .6-1.7 1.4a137 137 0 0 1-8-7.3q1-.2 1.8-.8l9.2-8 1.9-2c.4-.6 3.7-1.2 2.6-2.2q-2.1 0-2.6 2.1c-2.1.4-14.8 7-15 9.1q-11.4-10.6-22.1-21.4c2.3-.1 11.7-9.3 14-11.3q-1.6-.5-2.5 1a215 215 0 0 0-12.3 6.8 3 3 0 0 0-1.3 2q-4.2-3.5-8-7.6l13-11.2q-1.2-.4-2.2.2l-13.5 8.5-16.1-15.4q.9-.4 1.7-1l17.2-16.2q-.7-.5-1.6 0L355 401.4q-1 .8-1.2 2a91 91 0 0 1-8-7.5c1.2-1.9 10.4-8 10-9.8l1.5-.2q1.7-.9 2.7-2.5c-1-.8-2.2.7-3 1.2l-1.3.7c-1.6 1.5-12.2 6.2-12.4 7.9a88 88 0 0 1-8.4-7.3q-.9-.9-.4-2a267 267 0 0 0 30.7-24.9q2.5-.9 4.6-2.2 7.7-4.5 15.2-9.2Zm-15.3 64.7c1 0 3.1-.4 3.1-1.8-1.3-.7-2.7.5-3 1.8Z"/><path fill="#a38670" fill-opacity=".5" stroke="#a38670" stroke-opacity=".5" stroke-width=".5" d="M462 444.9c-.3 1-1.6 2.3-2.7 1.7q.7-1.9 2.8-1.7Z"/><path fill="#a38571" fill-opacity=".5" stroke="#a38571" stroke-opacity=".5" stroke-width=".5" d="M369.7 412.3c.4-1.4 1.8-2.5 3.1-1.8 0 1.4-2 1.8-3 1.8Zm54 34q.6-2.2 2.7-2.2c1 1-2.2 1.6-2.6 2.1Z"/><path fill="#a48672" fill-opacity=".3" stroke="#a48672" stroke-opacity=".3" stroke-width=".5" d="M453.1 434c-.1.8-1.3 1.6-2 .7a2 2 0 0 1 2-.7Z"/><path fill="#51453e" fill-opacity=".2" stroke="#51453e" stroke-opacity=".2" stroke-width=".5" d="M368.7 355q.3 1 1 1.8-2.1 1.3-4.6 2.2c0-1.4 2.6-3 3.5-4Z"/><path fill="#2f535c" fill-opacity=".1" stroke="#2f535c" stroke-opacity=".1" stroke-width=".5" d="m157.7 17 .4 1-1.8.8-.4-1.2q.7-.7 1.8-.6Z"/><path fill="#3e6169" fill-opacity=".2" stroke="#3e6169" stroke-opacity=".2" stroke-width=".5" d="m200.7 413 .3 2-1.7-.2-.4-.9z"/><path fill="#282c2c" fill-opacity=".5" d="M159.9 16.2q0 .8-.6 1l-1.6-.2q.9-.9 2.2-.8"/><path fill="#242424" fill-opacity=".2" stroke="#242424" stroke-opacity=".2" stroke-width=".5" d="m51.8 92.6.4 1-1.5.1z"/><path fill="#3c616a" fill-opacity=".3" d="M126 403.7q.7.4 1.2 1-1.2.2-1.3-1"/><path fill="#2d3638" fill-opacity=".5" stroke="#2d3638" stroke-opacity=".5" stroke-width=".5" d="M50.7 93.7q.1 1-.8 1.2z"/><path fill="#39565e" fill-opacity=".5" d="M295.6 29.3q.8 0 1.4.4l-.9.3z"/><path fill="#252525" fill-opacity=".3" d="m403.7 271.5 1.3-.3q0 .5-.3.5z"/><path fill="#3b616b" fill-opacity=".5" d="m198.9 413.9.4.9-1.4-.3z"/><path fill="#3b5e66" fill-opacity=".5" stroke="#3b5e66" stroke-opacity=".5" stroke-width=".5" d="m398.7 288.3-.3.7q-.5-.7.3-.7Z"/><path fill="#2b3234" fill-opacity=".4" stroke="#2b3234" stroke-opacity=".4" stroke-width=".5" d="M33.8 122.6q.2 1-.7 1.3z"/></svg>