<svg xmlns="http://www.w3.org/2000/svg" style="shape-rendering:geometricPrecision;text-rendering:geometricPrecision;image-rendering:optimizeQuality;fill-rule:evenodd;clip-rule:evenodd" viewBox="0 0 512 512"><path fill="#9595a3" fill-opacity=".1" d="m126 181.4-.4.3-.5 1.2-2.1.7a37 37 0 0 1-7 4l-2.3 1.7q-8.2 4.8-16.8 9.3l-1.5 1.2q-8.7 5-17.5 9.7-7.8 5-15.8 9.5 0-1.2-1-1l.1-1q3.1-1 5.8-2.6l21.3-12.6q2.2-1.3 4.8-2.3 1-1 2.2-1.8l23.7-13.3q2.6-2 5.6-3.4.8 0 1.4.4"/><path fill="#dfdff6" stroke="#dfdff6" stroke-width=".5" d="M164.8 458.9c-3.7 8-10.9 18.3-21 14.2q4-3.4 8.5-6.3.6-.6 0-1.2c-.5-1.8 2.5-2.4 3.3-1 2.8-2.2 5.9-4.5 9.2-5.7Z"/><path fill="#e1e1fa" fill-opacity=".4" d="M260 35.2q-.4.9-1.4.7zm15.2 7q-.5.7-1.4.7.6-.5 1.4-.7m-3 2.1q-.7.6-1.6.6.7-.6 1.6-.6m-23 1.7-1.2.8q.3-.9 1.2-.8m20 .3q-.5.6-1.4.7.6-.6 1.4-.7m-3 2q-.6.7-1.6.7.7-.6 1.6-.7m-3 1.9q-.4.9-1.5.8.7-.5 1.5-.8m-3 2q-.5.8-1.5.8.7-.6 1.5-.8m-3 2q-.6.9-1.5.8.7-.6 1.5-.7m-3 2q-.5.8-1.4.8zm-3 2.1q-.7.6-1.5.7.7-.7 1.6-.7m-3 2a2 2 0 0 1-1.5.7q.8-.6 1.5-.8m-24.8.8-1.4.6q.4-.8 1.4-.7m21.9 7-1.3.6q.3-.9 1.3-.7M201 71q-.3 1-1.4.9zm3.3 1-1.2.7q.3-.7 1.2-.7M194 75q-.3 1-1.3.9zm71.3 1-1.2.6q.3-.8 1.2-.5m-90.4 10q-.3 1-1.3.8zm3.4 1-1.3.7q.3-.8 1.3-.8m61 4q-.6.5-1.2.7.2-.8 1.2-.7m-39 3-1.4.7q.3-1 1.4-.7m16 7.1a2 2 0 0 1-1.6.7q.7-.6 1.5-.7m-3.2 2.1q-.4.7-1.5.7.7-.5 1.5-.7m-2.8 2q-.7.6-1.6.6a3 3 0 0 1 1.6-.6m-3 2q-.7.6-1.6.6zm-3.6 1.7q.3 1.1-1 .9zm-77.4 8q-.6.6-1.3.8.4-.7 1.3-.8m6.7 6.2q-.3.8-1.3.7.6-.6 1.3-.7m-25.7 4.9-1.3.6q.4-.7 1.3-.6m261.6 1q0-.5.4-.8.3.6-.4.9m-255 5.2q-.3.7-1.2.7.6-.5 1.3-.7m353 5c0 .7-1.4 1.3-2 .4q.8-1 2-.5M140.2 141q-.6.6-1.4.8.4-.9 1.4-.8m-3 2q-.7.5-1.5.8.6-.9 1.5-.7m-3 2-1.4.8q.5-.9 1.5-.8m-6 4q-.6.6-1.4.7.5-.7 1.4-.7m-3 2-1.5.8q.6-.8 1.5-.8m-3 2.1-1.6.6a2 2 0 0 1 1.6-.6m-3 1.9q-.7.5-1.5.7.7-.7 1.6-.7M62 164.3q-.4.8-1.3.6zm15 11q-.3.8-1.3.7zM315 219a4 4 0 0 1-3 2q.9-2 3-2m129.8 15q.5 1 1.5 1-1.8 1.2-3.8 2c-1.2-1 1.8-2.3 2.3-3M330 236a3 3 0 0 1-3 2 4 4 0 0 1 3-2M82 298q0-.7.7-.5a1 1 0 0 1-.8.5m122 8.8c.4-.6 1.5-1.6 2-.6q-.7.9-2 .6m230.2 14.3q-.4.8-1.5.8zm-340 7.9q-.3.6-.9.3a1 1 0 0 1 1-.3m322.3 7q-.7.5-1.5.6.4-.7 1.5-.7m-45 26-1.4.6q.5-.7 1.4-.6"/><path fill="#e1e1f9" fill-opacity=".4" d="m263.3 38-1.2.7q.3-.7 1.2-.7M253 39.3q-.3.7-1.3.7.7-.5 1.3-.7m3.4 2.7q-.6.6-1.2.8.2-1 1.2-.8m15 11.1-1.3.7q.4-.9 1.4-.7m-41 4q-.5.4-1.3.7.4-.8 1.4-.8m-17.2 7.1q-.5.8-1.4.8.6-.5 1.4-.8m39.2-.2q-.6.6-1.3.7.4-.7 1.3-.7m-41 4q-.6.6-1.4.7.6-.6 1.4-.6m61 4-1.3.8q.3-.8 1.4-.8m72.9 1.8c-.1.8-1.3 1.9-2 1q.8-1 2-1m-119 5.3-1.2.7q.3-.8 1.3-.7M185.4 83q-.4.6-1.2.8.1-1 1.2-.8m61 4-1.2.8q.2-.8 1.2-.8M168 90.3q-.4.7-1.3.7zm39.3 0q-.6.4-1.3.6.3-.8 1.3-.7m-48 7.9-1.3.7q.3-.7 1.3-.7m-10.2 3q-.4 1-1.4.8zm71.2 1-1.3.7q.4-.8 1.3-.7M160 108q.6-1.1 1.7-1.6 2.7-.5.6 1.3-1.2.3-2.3.3m-19.6 1-1.4.8q.5-.8 1.4-.8m-17.3 7.2q-.3.9-1.3.7zm35 12.9a3 3 0 0 1 2.6-2.2c1.5 1-2 1.8-2.5 2.2m-29 16.1q-.3.9-1.3.7.6-.5 1.3-.7m-41 4q-.4.8-1.3.8.6-.6 1.3-.7m8 15q-.4 1-1.4.8.7-.5 1.3-.7m9 14.8c.6-1.4 3.2-3 4.6-3 1.2 1-3.7 3-4.6 3m284.1 3.7c.4-.5 1.3-1.3 1.8-.5q-.7 1-1.8.5m-156 24.2c-.1.8-1.4 1.8-2 .8a2 2 0 0 1 2-.8m-212 19.1v.6l-1.5.3a2 2 0 0 1 1.5-1M325 239q-.3.6-.9.5.3-.6.9-.5m152 6q-.5 1.3-2 1c-.2-1.1 1.4-1 2-1m-309 10q.7-1 1.6-1.1c1 .8-1.1 1.3-1.6 1m98 70.9q.6-1 1.7-1.6 2.4-.3.4 1.3zm164.4 2.2-1.3.7q.3-.9 1.2-.7M389 347.2q-.3.9-1.2.8zm8.3 0-1.3.6q.3-.8 1.3-.7m-19 10.9-1.2.7q.3-.8 1.3-.7M172 407.9c0 .8-1.2 1.7-1.8.8q.7-1 1.8-.8"/><path fill="#e1e1f9" fill-opacity=".3" d="m261.3 39.2-1.3.8q.3-1 1.3-.8m-52 30q-.6.6-1.3.8.3-1 1.3-.7m61 4q-.6.6-1.3.8.3-1.1 1.3-.7m-39 3q-.6.5-1.3.8.3-1.1 1.3-.7m-41 4q-.6.6-1.3.9.3-1 1.3-.8m54 8q-.6.5-1.3.8.3-1 1.3-.7m-39 3q-.6.5-1.3.8.1-1.1 1.3-.8M163 93q-.3 1-1.3.7zm1.3 2.3-1.3.7q.3-1.1 1.3-.7m61 4-1.3.7q.3-1 1.3-.7M143 137q-.2 1.1-1.3.6zm-41 4q-.2.9-1.3.6zm-26 15q-.2 1.1-1.3.7zm29 23a7 7 0 0 1-5.1 3q2-2.5 5.1-3m131.1 25.8q-.9 2-3 2.1.8-2.1 3-2M220 255q-.9 2-3 2.2.9-2 3-2.2m-117.7 4.9 1 .5-1.3.7zm101.7 34c-.2 1.6-3.7 3-5 3.4q1.6-2.9 5-3.4m224.4 35.4-1.3.7q.3-1 1.3-.8m-45 26-1.3.7q.2-1.1 1.3-.7m-26 15-1.3.8q.2-1 1.3-.8M59 384a3 3 0 0 1 2.5-2.1c1.2 1.1-1.8 2-2.5 2m322.2 48.7 1 .6q-.5.4-1.2.6zM361 456.1a7 7 0 0 1-2 2.2v-1.5q.5-1.2 2-.7"/><path fill="#e1e1fa" fill-opacity=".4" d="M240 29q0-.5.4-.7.2.5-.3.7m-87.8.7H150q1-1.1 2.3 0m90 20.4-1.2.6q.4-.8 1.3-.6m42 15q-.5.6-1.3.7.4-.9 1.4-.7m39.7 2.6 1 .4a2 2 0 0 1-2 .8zm-85.5 4.4q-.6.5-1.4.6.5-.8 1.4-.6m-41.2 4-1.1.7q.2-.9 1.1-.7m61 4-1.1.7q.2-1 1.2-.8m-39 3q-.5.5-1.3.7.4-.9 1.4-.7m-48 8-1.2.6q.3-.7 1.2-.6m61.1 4q-.4.4-1.2.7.3-.9 1.2-.8m-76.2 2q-.6 1-1.5.8.7-.6 1.5-.7m-3.9 5q-.6.5-1.3.6.5-.7 1.3-.6m61.1 4-1.4.6q.5-.7 1.4-.7m-76.6 2q0 1-1 .8zm64 3q0 1-1 .8zm-70.7 1.2q-.3.8-1.3.6zm9.8 7q-.2.8-1.2.6zm-20.6 1.7-1 .8q0-1 1-.8m-16 6.1.8.1q-.3 1-1.3 1zm-2.9 4.9q-.6.6-1.3.8.3-1 1.3-.8M95.6 145q-.5.8-1.4.7a3 3 0 0 1 1.4-.7M51 159q0-.9.7-.6zm33 12.2q-.4.9-1.3.7zm84 83.7q-.9 2-3 2 .9-1.7 3-2m273 62.3q-.3.9-1.4.7zm-19.1 11q-.3 1-1.2.7zM272 338.1a4 4 0 0 1 2.6-2.2c1.3 1-2 2-2.6 2.2m137.4 1.9q-.6.6-1.3.7.3-.8 1.3-.7m-13.5 3.3q-.3.8-1.2.6zM376.7 354q0 1-1 .9zm-6.7 4.2q-.4.7-1.3.7.5-.6 1.3-.7m-5.7 7.7-1.2.9q.3-.9 1.2-.9m15.4 67.1.3 1.1c-.6.6-1.8 2.3-2.7 1.3q.9-1.5 2.4-2.4"/><path fill="#e2e2f9" fill-opacity=".3" d="M269.3 54.3q-.6.5-1.3.7.3-1.1 1.3-.7M215 63q-.3 1-1.2.8zm-19 11q-.3 1-1.3.7zm-98 89q-.3 1-1.3.8zm223.7 51 .2 1.1a19 19 0 0 1-5 3.4 4 4 0 0 1-2 .5c.6-1.6 5.4-4 6.8-5m.5 13.8a6 6 0 0 1-5.2 3.2c1-1.8 3.3-2.9 5.2-3.2m9.8 7.1q-.5 1.5-2 1a2 2 0 0 1 2-1m-112 2q-.9 2-3 2.2a3 3 0 0 1 3-2.2m269.3 1.4q-.6.5-1.3.7.3-1.1 1.3-.7m-9.2 4.7a4 4 0 0 1-3 2q.6-2.1 3-2m-84.8 105.3-1.3.7q.2-1.1 1.3-.7M128.1 407l-.1-1.4c.6-.6 2-2.4 2.9-1.4q-1.1 1.7-2.8 2.7"/><path fill="#e1e1f9" fill-opacity=".4" d="M268.2 35q-.3.6-1.1.7.3-.8 1.1-.7m82.6 72.2q.7-1.8 2.6-2.2c.7 1.4-1.7 1.8-2.6 2.2m-144.5 3-1.1.7q.2-1 1.1-.8m176.8 17.6q0 .7-.8.6.2-.6.8-.6M146.4 137l-1.2.8q0-1.2 1.2-.8m148.2 46.3c.5-1.7 3.5-3.3 5-3.5 1.2 1.2-4 3.4-5 3.5m-127.2 14.8-1.4 1.2q.1-1.3 1.4-1.2M317 231a3 3 0 0 1-3 2 4 4 0 0 1 3-2M91.2 251.8c-.2.2-.5 1.2-.9.6q.3-.5.9-.6m214.9 40c-.3 1-2 2.7-3 1.8a4 4 0 0 1 3-1.9M435.2 325l-1.1.7q.2-.9 1.1-.7m-339 2.8q-.6 1.4-2 1.2c-.4-1.2 1.2-1.2 2-1.2m318.8 4.3q-.4.7-1.3.6zm-221.9 98.7q-.2.8-.9.5.3-.5 1-.5m-27.4 9.1c.6-.6 2.2-2.8 3.2-1.7-.3 1.4-2 1.5-3.2 1.7m109.4 4q-.7 1.3-2.1 1 .6-1.3 2-1m-6.2 55.2q-.2 1-1.2.8.6-.6 1.2-.8"/><path fill="#e5e5fa" fill-opacity=".2" d="M192 288c-.5 1.2-7.2 5.9-8.3 5.7-2.6-1.2 7-5.6 8.2-5.7m135 6.9a3 3 0 0 1-3 2 3 3 0 0 1 3-2m-57 152q-.3.9-1 1.4-3.9 2.1-7.4 4.8-.7.5-1.6.5l-1-.4q.5-.9 1.3-1.3c2.3-1.1 7.3-5.1 9.7-5"/><path fill="#e0e0f8" fill-opacity=".3" d="m273.3 32.3-1.2.8q.2-1 1.2-.8m-19 11-1.3.7q.3-1.1 1.3-.7m35 19-1.3.7q.3-1.1 1.3-.7m-39 3-1.3.7q.3-1.1 1.3-.7m-7 4-1.2.7q0-1.1 1.2-.7m-41 4-1.2.8q0-1.1 1.2-.8m61 4-1.3.8q.3-1 1.3-.8m-39 3-1.3.7q.3-1 1.3-.7m-41 4-1.3.7q.3-1.1 1.3-.7m-7 4-1.2.8q.2-1 1.2-.8m-6.3.7q-.3 1-1.3.8zm67.3 3.3-1.2.8q0-1 1.2-.8m-80 7-1.3.7q.3-1 1.3-.7m174.5 3.8c.4-.8 2.1-2.9 3.1-1.7q-1.1 1.5-3.1 1.7m-113.5.2-1.3.7q.3-1 1.3-.7M109 137q-.2 1-1.3.8zm52 102h1q-.3 1-1.3.9zm279.3 83.3-1.2.7q.2-1 1.2-.7M266 325.9c-.7 1.6-3.5 3.1-5 4.2l-.1-1.4q2.1-2 5-2.8m144 9q-.3 1-1.3.8zm-138 3.2q-.6 1.2-1.8 1.7l-.3-1q.8-1.1 2.1-.7m104.3 21.2-1.3.7q.3-1 1.3-.7m-7 4-1.2.8q0-1 1.2-.8"/><path fill="#b3b3c4" fill-opacity=".2" d="M216.8 324.1q-.9 1.3-2.2 2.2l-15 9.4q-.5-.9-1.5-1.3l17-9.8q.6-.5 1.7-.5"/><path fill="#e1e1f9" fill-opacity=".3" d="M364.8 30.2q1.1-.1 1.4 1h-1.3zm-98.1.9q0 1-1.1.8zm-19 11q0 1-1 .8zm-31.3 23q-.6.6-1.3.7.3-.7 1.2-.7m61 4q-.6.5-1.3.6.3-.7 1.2-.6M181.7 82q-.1 1-1.2 1zm69.5 2q-.5.7-1.2.7.3-.9 1.2-.7m-39 3-1.2.8q.3-.9 1.2-.8m-67 19-1.2.9q.3-1 1.2-.9m-7 4q-.5.6-1.1 1 0-1 1-1m59.4 4.3 1.6-.2q-.7 1.1-1.6.2M120.8 130q0 1-1.1.9zm22.5 9.1-1 1q-.2-1.2 1-1m-7.3 2q-.3 1-1.3.8zm-19.3 11q0 1-1 1zM450 216.8l-.1 1.2h-.6q-.1-1 .7-1.2m-193 6.1c0 .8-1.2 1.7-1.8.8a2 2 0 0 1 1.9-.8m84 31.2c-1 1.5-3.2 3.2-5 2.8 1-1.4 3.1-3.1 5-2.8M204 307a3 3 0 0 1-3 2 4 4 0 0 1 3-2m-2 14c0 1-1.4 1.8-2 .8q.7-1 2-.8m226.7 3.2q0 1-1 .9zm-25.8 15q-.3 1-1.3.8zM69 160.2q-.4.9-1.3.7zM342 241a9 9 0 0 1 4.6-3.1c1.2 1-3.5 3.4-4.7 3M41 261a5 5 0 0 1-3.2 2.1 4 4 0 0 1 3.2-2m365 23.1q.6-1.9 2.6-2c1.2 1-1.9 1.8-2.6 2M324 297c0 1-1.3 1.7-2 .8a2 2 0 0 1 2-.8m-56 10q.6-1 1.5-1c1.2.7-.9 1.3-1.4 1M381 372q-.5 1.3-2 1 .6-1.2 2-1m-247.6 55-.4-1.3c1-1 4.4-4 5.9-3.2z"/><path fill="#e2e2fa" fill-opacity=".2" d="M240 29q-.5 1.2-1.5 2l-.8-.8q.8-1.5 2.4-1.2m26.4 7.3-1.3.8q0-1.1 1.3-.8m-26 15-1.3.8q0-1.1 1.2-.8m-26 15-1.3.8q0-1.1 1.3-.8M202.9 70q0 1.1-1.2.8zm60 0q-.2 1-1.2.8zm12.5.4-1.3.8q.1-1 1.3-.8M259.9 72q-.1 1-1.2.8zm-23.5 1.4-1.3.8q0-1 1.2-.8m20.5.6q0 1.2-1.2.8zm-3 2q0 1-1.2.8zm-58.6 1.4-1.2.8q0-1 1.2-.8m54 8-1.2.8q.1-1 1.3-.8m-39 3-1.2.8q.1-1.2 1.3-.8m-41 4-1.2.8q0-1.1 1.2-.8m61 4-1.2.8q.2-1 1.2-.8m-87 11-1.2.8q0-1.1 1.2-.8M142 118q0 1.2-1.3.7zm-56 52q-.2 1-1.2.7zm10.4.3-1.2.8q0-1 1.2-.8m-6 4-1.2.8q0-1 1.2-.8M217 239q-.7 1.2-2 2v-1.3q.6-1.1 2-.7m216.4 87.2-1.3.8q.1-1.1 1.3-.8m-26 15-1.3.8q.1-1.1 1.3-.8m-35.5 15.6q0 1.1-1.2.8zm-9.5 10.4-1.3.8q.2-1 1.3-.8"/><path fill="#e0e0f9" fill-opacity=".3" d="M255 38q-.3 1-1.3.7zm-66 40q-.3 1-1.3.8zm-45 26q-.3 1-1.3.7zm-12.7 10.3-1.3.7q.3-1 1.3-.7M128 126q-.3 1-1.3.8zm30 3a2 2 0 0 1-2 1q.6-1.4 2-1m-34 19q-.3 1.1-1.3.7zm-41 4q-.3 1-1.3.7zm-32 7q-.7 2-2.8 1.7A3 3 0 0 1 51 159m-8 128.7h3.2c-.3 1.8-3.3 2-3.2 0m378.3 45.6-1.3.7q.3-1.1 1.3-.7M51 377v-1.3a9 9 0 0 1 4.5-2.7q.2.8-.6 1.3-1.8 1.5-3.9 2.7"/><path fill="#e1e1fb" fill-opacity=".2" d="M360 30.2q0 1-1 1 0-1 1-1m-98 3.7q-.3 1-1.3.8zm-26 15q-.3 1.1-1.3.8zm26.3 9.4-1.2.8q.2-1 1.2-.8m-40.4.6q0 1.1-1.2.8zm-45 26q-.2 1-1.2.8zm-26 15q0 1.2-1.2.8zm-35 33q0 1-1.2.8zm15 11q0 1.2-1.2.8zm-41 4q0 1.2-1.2.8zm-8.6 32.4-1.2.8q0-1 1.2-.8m-3 2-1.2.8q0-1 1.2-.8m-3 2-1.2.8q0-1 1.2-.8m-3 2-1.2.8q0-1.1 1.2-.8M260 220.8q-.7 2.1-3 2.1.8-2 3-2.1m128.2 131.5-1.2.8q0-1.2 1.2-.8M225.1 428q-.8 1.4-2 2.3l-.3-1.5q.9-1 2.3-.8m-81.3 53h2.5c-.4 1.1-2.3 1.3-2.5 0"/><path fill="#cfcfe4" fill-opacity=".9" d="M58 332.2h1.8l-3.7 3.5c-1.7 1-7.2 5.5-9 5.2q0-.6.4-1l9.6-7.3q.4-.4 1-.4"/><path fill="#72727e" fill-opacity=".1" d="m247.3 11 1-.1q2-.2 3.7.7-3 2-6.4 3.3c-1.1-.7 1.5-3 1.7-4M212 259.6v1.4l-1.5 1q-.8-.2-1.5-1a9 9 0 0 1 3-1.4M424.5 359q.8.3 1.5 1.1-1.5 1-3 1.3V360z"/><path fill="#e2e2fa" fill-opacity=".2" d="M278 60q-.3 1.1-1.3.7zm-9 6q-.3 1.1-1.3.7zm-3 2q-.3 1-1.3.7zm-9.7 13.3-1.2.8q0-1.1 1.2-.8M125 115q0 1-1.2.7zm31.1 15c-1 1.8-3.3 2.9-5 4v-1.2q2-2.3 5-2.8m-51 29q-.3 1-1.3.8zm-41 4q-.2 1-1.2.8zm15 11q-.3 1-1.3.7zm138 83q-.6 1.2-1.7 1.9l-.2-1q.6-1.1 1.9-.8m174 89q-.3 1-1.3.7z"/><path fill="none" d="M337.7 204.2q.9.6 1.2 1.5l-9.4 5.2q-.7.1-1.3-.1-.1-.8.7-1.4a93 93 0 0 0 7.4-4.9q.6-.5 1.4-.3"/><path fill="#d7d7ec" fill-opacity=".2" d="M393.7 363.1q.5.9 1.4 1.3l-9 5.3q-1 .3-2 .2.1-.8.9-1.1z"/><path fill="#d3d3ec" fill-opacity=".2" d="M201 309a2 2 0 0 1-1 1.3l-8.6 5.5q-.7-.8-1.6-1l9.2-5.3a4 4 0 0 1 2-.5"/><path fill="#e0e0f9" fill-opacity=".3" d="m276.3 50.3-1.3.7q.3-1.1 1.3-.7M208 67q-.2.9-1.2.7zm-19 33q-.9 2-3 2 .9-2 3-2m-98 67q-.3 1-1.2.8zm355 32.7v1.2l-1 .1q0-.9 1-1.3M416.2 292l-.4-1.4c.8-.6 4.2-3.4 5-2.3q-2.2 2-4.6 3.7m-14 52.3-1.3.7q.3-1.1 1.3-.7"/><path fill="#d3d3ec" fill-opacity=".2" d="M99.9 182c-1 2.2-7.5 5.2-9.7 6.9a2 2 0 0 0-1.3-1.2q4.7-2.4 9-5.2 1-.6 2-.5"/><path fill="#e0e0fb" fill-opacity=".2" d="M132 111q-.3 1.1-1.3.7zm72.4.3-1.3.7q0-1.2 1.2-.7M63 141l-.6.7q0-.7.6-.7m48.8 14q-.2 1-1.2.7zm-41 4q0 1-1.2.7zm13.4 19.3-1.2.8q0-1 1.2-.8m404.6 57.6q0 1.1-1.2.8zm-275.1 22.2.1 1.1q-.6 1.2-1.9 1.8v-1.4q.8-.8 1.8-1.5M416.9 331q0 1.1-1.2.8zm-19 11q-.2 1-1.2.8zm-270.7 21.8q0 .6-.6.9-.3-.7.6-.9M225 428q1-1.3 0 0m45.8 69.9q0 1-1.1.7z"/><path fill="#c4c4d9" fill-opacity=".2" d="M81.8 298.1c.2 1.3-2.6 2.9-3.2 4l-1.3-1.9q2.1-1.4 4.5-2.1M243.7 423q-.5 1.4 1 1.8c-.7.3-3.7 2.6-4.6 1.8a20 20 0 0 1 3.6-3.6"/><path fill="#e4e4fb" fill-opacity=".2" d="M423 360v1.3c-1.2 1.7-3.7 2.4-5.3 3.7q-2.2 1.4-4.6 2.1 0-.8.9-1.5 4.5-3 9-5.6"/><path fill="#7f7f8d" fill-opacity=".1" d="m110.7 221.7.4 2q-1.2.8-2 1.8a69 69 0 0 1-7.3 3.9q.1-1.3 1-2z"/><path fill="#dfdffa" fill-opacity=".2" d="M269 30q-.2 1.1-1.4.7zm-39.7 47.3-1.2.8q.1-1 1.2-.8M245 82q-.1 1-1.2.8zm-3 2q-.1 1-1.2.8zm-79.6 12.4-1.2.8q.2-1 1.2-.8m-29 30-1.2.8q0-1 1.2-.8M123 129q0 1.2-1.3.8zm4.4 1.4-1.2.8q.1-1 1.2-.8m-12 8-1.2.8q.1-1 1.2-.8m-3 2-1.2.8q0-1 1.2-.8m-3 2-1.2.8q.1-1 1.2-.8m-3 2-1.2.8q0-1 1.2-.8m-4 22-1.2.8q.1-1 1.2-.8m-3 2-1.2.8q.1-1 1.2-.8m-50 229.4q.7.3.9 1.2-1.2 0-1-1.2"/><path fill="#e2e2f9" fill-opacity=".4" d="M186.9 79.2q-.3.8-1.2.8.5-.5 1.2-.8M133.3 113l-1.2.8q.3-.8 1.2-.8m-7.4 14.2q-.2 1-1.2.8zm272.8 5.7q.3 1.1 1.4.9a7 7 0 0 1-3.5 2c-1-.7 1.7-2.2 2-2.9M220 237a3 3 0 0 1 1.6-1.5q2.2-.4.5 1.2-1 .5-2.1.3m203.3 95-1.2.8q.3-.8 1.2-.8M361 456q1-1.2 0 0"/><path fill="#d6d6e8" fill-opacity=".2" d="M197.3 94.3q-.4 1.2.8 1.2a58 58 0 0 0-7 4q-1 .5-2 .5 0-.6.4-1l5.9-4z"/><path fill="#6a6a79" fill-opacity=".1" d="M490.4 235.3a4 4 0 0 1 1.6 1.4l-2.7 1.6q-1-.3-1.3.7c-1.2.3-3.6 2.7-4.7 1.7l.1-.8q2.4-1.2 4.3-3.2 1.2.4 1.2-.8z"/><path fill="#bebed2" fill-opacity=".9" d="M58.8 111q1.3.3 2.5 0 1.5 0 2 1.1l-9.3 1.5.3-.5c.6-1 3.2-1.9 4.5-2"/><path fill="#bdbdd8" fill-opacity=".1" d="m154.7 111 .2.7q-3.7 2.9-7.6 5-.2-1-1.4-1 4.3-2.8 8.8-4.8"/><path fill="#e1e1f9" fill-opacity=".5" d="M342 241c-.3 1-2 2.5-2.9 1.6a3 3 0 0 1 2.8-1.6m-6 16c-.5.9-1.9 2.7-3 1.6.2-1.4 1.9-1.5 3-1.7m-134 64a3 3 0 0 1 2.6-2c1.6.9-2.1 1.8-2.6 2m-15.8 132.2 1.2-.2q-.6 1-1.7 1zm175.7 18q0-.6.5-.8.2.6-.5.7"/><path fill="#dfdff7" fill-opacity=".3" d="m247.3 47.3-1.2.8q0-1.1 1.2-.8M281 57.9q0 1.1-1.2.8zm-6 4q0 1.1-1.2.8zm-3 2q0 1.1-1.2.8zm10.4 2.4-1.2.8q0-1.1 1.2-.8m-65 18-1.2.8q0-1 1.2-.8m-67 19-1.2.8q.2-1 1.2-.8m61 4-1.2.8q0-1 1.2-.8m-87 11-1.2.8q0-1 1.2-.8M135 122q-.1 1-1.2.8zm33.3 75-1 1.2q-.1-1.1 1-1.2M436 320q0 1.1-1.2.7zm-21.6 17.3-1.2.8q0-1 1.2-.8"/><path fill="#e3e3f9" fill-opacity=".2" d="m130.3 128.3-1.2.8q.1-1 1.2-.8m-6 4-1.2.8q.1-1 1.2-.8m-3 2-1.2.8q0-1 1.2-.8m-3 2-1.2.8q.1-1 1.2-.8m-18 12-1.2.8q.1-1 1.2-.8m-3 2-1.2.8q0-1 1.2-.8M78 155q-.2 1.1-1.2.7zm7.4 3.4-1.2.8q.2-1 1.2-.8m-3 2-1.2.8q0-1 1.2-.8m-6 4-1.2.8q0-1 1.2-.8m-3 2-1.2.8q0-1 1.2-.8m-3 2-1.2.8q0-1 1.2-.8m-3 2-1.1.9q0-1.1 1.1-.9"/><path fill="#c1c1d5" fill-opacity=".9" d="M360 30.2h1.1q1.5.3 2.8 0h.9l.1 1q-3.5 1-7.2.5l1.3-.5q1 0 1-1m-2.3 1.5c.4 1.2-1.3 1.2-2 1.2q.8-1 2-1.2"/><path fill="#e1e1f9" fill-opacity=".3" d="M363.9 30.3H361c-.2-2 2.9-1.8 2.8 0m-204 77.7c-.3 1.5-3.6 3.2-5 3.7l-.2-.8c1-1.4 3.5-2.7 5.2-2.9m-98.6 3q-1.3.4-2.5 0c.2-1.4 2.1-1.1 2.5 0M456 122q0 .6.2 1a4 4 0 0 1-3.3 2 6 6 0 0 1 3-3m-108 6.2v-1.5c.6-.6 2-2.3 2.8-1.3a8 8 0 0 1-2.9 2.8M193.3 205l-.4-1.2c.8-.8 4-3.5 5-2.3zm-91.6 24.4a9 9 0 0 1-4.4 2.7c-1.2-.6 3.3-3.7 4.4-2.7M65.3 279l-.4-1.2c.6-.7 2-2.2 3-1.4q-1 1.6-2.6 2.6M413 367.1a9 9 0 0 1-5.1 3c.8-1.7 3.2-3.3 5-3"/><path fill="#e1e1f8" fill-opacity=".3" d="M101 260v1.3c-.7.6-2 2.2-3 1.3q1.1-1.7 3-2.7m195 156c-1 1.7-3.2 2.7-5 3.1q1.2-2.1 3.7-3z"/><path fill="#74747e" fill-opacity=".9" d="M263 5h3.3a2 2 0 0 1 2 .9c-1-.1-5 .5-5.3-.9m192 107 .6-.1h3.7q1.5 0 2 1.2-2.8-.4-5.7-.4-.6 0-.7-.7"/><path fill="#e2e2f9" fill-opacity=".3" d="M98 130.7q0 1.4-1.3 1.2zm61.4 82.4-1.3 1.1q0-1.2 1.3-1M174.9 405l.1 1.3a5 5 0 0 1-3 1.6 8 8 0 0 1 3-3M362 471q-.5 1-1.4 2l-1.4-.2q.7-2 2.8-1.8"/><path fill="#cdcde3" fill-opacity=".2" d="M96.7 131.9q-.3 1.7 1.4 1.7a30 30 0 0 0-5 3.1q-1.1.6-1.8-.2z"/><path fill="#c6c6da" fill-opacity=".9" d="M171 195q-.4.7-1.4.6zm-1.4.6c.8 2.3-1.9 4-2.6 6q-.3.3-.8.2l-.2-1.7v-.7l1.4-1.2 1-1.2z"/><path fill="#babacd" fill-opacity=".9" d="M161.8 211q-.3.6-1 .5zm-1 .5v1.7q-1.2 2.7-2.6 5-.2-1.5 0-3.2v-.8z"/><path fill="#e1e1f9" fill-opacity=".4" d="m275.1 31.1-1 .7q.1-.7 1-.7m-127 26.7q0 .5-.4.8-.2-.6.5-.8m37.9 44.1c-.2.7-1.2 1.8-1.8.8q.6-1 1.8-.8M453 125c-.1.9-1.4 1.6-2 .7q.7-.9 2-.7m-346 13.2q-.3.8-1.2.7.5-.5 1.3-.7m51.2 76.8v3.3q-1.4-.5-1.2-1.8-.2-1.5 1.2-1.5m316.9 31q-.3.7-1 .4a1 1 0 0 1 1-.4M220 255q.6-1 1.6-1c1.1.7-1.1 1.2-1.6 1m-28 33c.5-1 4-4.1 5-2.7a8 8 0 0 1-5 2.7m15 4a4 4 0 0 1-3 2 3 3 0 0 1 3-2m9.8 32.1c.8-1.2 3.3-3.2 4.8-3.2 1.2 1.1-3.8 3.2-4.8 3.2m225.5-3-1.4.7q.5-.7 1.4-.7m-34.4 15q-.3 1-1.2.8zm-109 78q-1 1.5-2.9 2a3 3 0 0 1 3-2"/><path fill="#cccce1" fill-opacity=".7" d="M493.1 283.7h.9c.2 2.2-6.5 3.1-7.2 1.5a32 32 0 0 0 6.3-1.5"/><path fill="#adadbe" fill-opacity=".8" d="M220.9 50c.4 2.6-3 2.9-4.9 2.8l.1-.5c2-.8 2.3-2.5 4.8-2.4"/><path fill="#e0e0f9" fill-opacity=".3" d="m235.3 54.3-1.3.7q.3-1.1 1.3-.7M111 123q-.3 1-1.3.7zm1.3 2.3-1.3.7q.3-1.1 1.3-.7m-.4 240.9q.2-.5.6-.8 0 .6-.6.8m161 78.8a3 3 0 0 1-3 2 3 3 0 0 1 3-2"/><path fill="#c0c0d4" fill-opacity=".8" d="M11.1 232.1q-.5.8-1.4.6.6-.5 1.4-.6m-1.4.6q.1.6-.2 1.2-1.5 2-3.5 3.4c0-3 1.4-3.4 3.7-4.6"/><path fill="#c5c5dc" fill-opacity=".1" d="M372.6 100q-.3 1.4 1 1.8c-.8.5-3 2.2-4.4 2q1.3-2.3 3.4-3.8"/><path fill="#dadaf1" fill-opacity=".7" d="M187.9 174.8c0 1.5-2.7 4.2-4.1 4.3-.1-1.7 2.4-4.3 4.1-4.3"/><path fill="#6f6f79" fill-opacity=".9" d="M453.3 399q-.9 1.2-2.2 1.3-2.2-.6-4.5-.2l-.9-.5c1.4-1.1 5.8-.5 7.6-.5"/><path fill="#9e9eb4" fill-opacity=".1" d="m259 453.2 1 .5-3.3 2.4q-1-.4-1.7-1 1.8-1.4 4-2"/><path fill="#e2e2f9" fill-opacity=".3" d="M241 46.2q-.3.8-1.4.8zM257.4 61q-.5.7-1.3.8.3-.8 1.3-.8m202 51-3.7-.1c.7-1.2 3.5-1.3 3.8 0M110 156.3q-.5.8-1.4.6z"/><path fill="#66666e" fill-opacity=".2" stroke="#66666e" stroke-opacity=".2" stroke-width=".5" d="M68.2 391q.9.4 1.9.4c-1.3.8-3.4 1.8-5 1.3q1.2-1.5 3-1.6Z"/><path fill="#b1b1c3" fill-opacity=".9" d="M49 397q2.7.7 5.2 1.7l-.8.4-2.2-.3h-1q-.1-.8-1-1.1z"/><path fill="#70707e" fill-opacity=".1" d="M51 375.7v1.3c-1.1.4-2.5 2.5-3.8 1.7v-.6q1-.6 1.7-1.6 1-.6 2-.8"/><path fill="#797983" fill-opacity=".9" d="M141.6 480c1.4.2 5.6-.5 6.4.8l-1.7.2h-2.5q-1.5.2-2.2-1"/><path fill="#bdbdd0" fill-opacity=".2" d="M83.7 224.4q0 .9 1 1.2a4 4 0 0 1-3.6 1.2q.8-1.8 2.6-2.4"/><path fill="#e3e3fa" fill-opacity=".2" d="m221.3 62.3-1.2.8q.2-1 1.2-.8m-104 60-1.2.8q0-1.1 1.2-.8M106 126q-.3 1-1.3.8zm337 189.9q-.3 1-1.3.8zm-19 11q-.2 1.1-1.4.8z"/><path fill="#b4b4c9" fill-opacity=".2" d="m330.4 293.2.5.3a6 6 0 0 1-3.9 1.4q1-2.2 3.4-1.7"/><path fill="#e2e2f8" fill-opacity=".3" d="M118 119q-.3 1.1-1.3.7zm266 251a3 3 0 0 1-3 2q.9-2 3-2"/><path fill="#e7e7f9" fill-opacity=".2" d="M149.7 133.1q0 .6.3 1.1-.7 1-1.7 1.7-.4-.8-1.3-1.2z"/><path fill="#92929f" fill-opacity=".9" d="M248.8 361q2.7-.3 5.4.7l-1.2.3h-2.3q-1.5.3-2-1"/><path fill="#b3b3c8" fill-opacity=".2" d="m263.1 219.2.6-.5c.1 1.6-2.3 2.5-3.7 2q1-2 3.1-1.5"/><path fill="#7f7f8b" fill-opacity=".4" stroke="#7f7f8b" stroke-opacity=".4" stroke-width=".5" d="M428.8 127q-.6 1.2-1.9 1 .7-1 2-1ZM126.2 406.4l.8-.3-.3 1 .3 1q-1-.6-.8-1.7Z"/><path fill="#7b7b87" fill-opacity=".3" stroke="#7b7b87" stroke-opacity=".3" stroke-width=".5" d="M427 128q-.6 1-2 .9.8-1 2-.9Zm-74.3 244.3q-.6 1-1.7.3.7-.7 1.7-.3Z"/><path fill="#e4e4f8" fill-opacity=".1" d="M274.8 107v1.3l-.7-.5q0-.6.7-.9m-216 58.9q0 1-1.2.8zm11 124.3.7-.8q0 .7-.7.8M65.2 307h.7q0 .6-.9 1z"/><path fill="#767680" fill-opacity=".8" d="M488 226c1 .1 4.2-.7 4.3 1.1-1.3 0-3.7.4-4.3-1"/><path fill="#70707e" fill-opacity=".1" d="M328.2 210.8q-.7 2.2-3.2 2.5V212q1.4-1.2 3.2-1.2"/><path fill="#e1e1f9" fill-opacity=".6" stroke="#e1e1f9" stroke-opacity=".6" stroke-width=".5" d="M446.6 400q2.2-.2 4.5.2c0 1.1-4 1.3-4.5-.1Z"/><path fill="#787883" fill-opacity=".7" d="M505.8 275.7q0 .9-.5 1.6-.1-.9.5-1.6m-.5 1.6q-.3.6-1 1 0-1 1-1m-1 1-1.2.8q.3-1 1.3-.7m-1.2.8q-.4.9-1.5.6.7-.5 1.5-.6"/><path fill="#878794" fill-opacity=".9" d="M241 5h2q1 .3 2.1.4l-4 .5z"/><path fill="#dfdff8" fill-opacity=".1" d="M266.4 5H264c.1-1.6 2.1-1.2 2.4 0M64.3 139.7l.5 1q-.7.5-1.7.3.3-1 1.2-1.3"/><path fill="#e0e0f8" fill-opacity=".4" d="M271.9 28.2q-.2.9-1.2.8zM291.3 61q-.6.4-1.3.6.4-.8 1.3-.6M179 68l1.2-.2q-.6 1-1.7 1zm173.7 363.2q0-.7.6-1 0 .6-.6 1"/><path fill="#7b7b86" fill-opacity=".9" d="M468.3 287q-.7 1.2-2.2 1.3l-1.7-.5c0-1.4 3-.7 4-.8"/><path fill="#888894" fill-opacity=".9" d="M41.6 287a7 7 0 0 1 4.6.8q-1.5-.3-3.2 0-.8 0-1.4-.8"/><path fill="#e0e0fa" fill-opacity=".3" d="M359.2 482q1.5 0 3 .4c-.7.8-3.6 1-3-.5"/><path fill="#e1e1f9" fill-opacity=".9" d="M149.9 29.6q1 .2 2.3 0 1.5.3 2.1 1.6-3.3-.3-6.7 0 .7-1.5 2.3-1.6M357.6 481h6.7q-.7 1.3-2.2 1.5l-2.9-.5a2 2 0 0 1-1.6-1"/><path fill="#848491" fill-opacity=".9" d="M21.2 226.2q1.5-.2 3 .1-1.5.8-3 .5z"/><path fill="#9696a5" fill-opacity=".7" d="M201.7 456.8q1.8 0 3.5.8c-1 .4-3.5.7-3.5-.8"/><path fill="#63636c" fill-opacity=".7" d="m192.2 172.2-.8 1q-.3-1.2.8-1m-.8 1q-.6.4-1.1 1.2 0-1.2 1-1.3m-2 .7.8.5-1 .5z"/><path fill="#e0e0f8" fill-opacity=".2" d="M291 419.1q-.6 1.2-1.8 1.9l-.3-1.3a2 2 0 0 1 2.1-.6"/><path fill="#898996" fill-opacity=".8" d="m231.2 11.3-.9.8q0-1 .9-.8m-.9.8q-.6.6-1.6.5a3 3 0 0 1 1.6-.5m-1.6.5q.4 1-.6 1 .1-.5.7-1"/><path fill="#aaaabc" fill-opacity=".6" stroke="#aaaabc" stroke-opacity=".6" stroke-width=".5" d="m364.2 361.1.4.2q0 1-1.3 1 0-1 1-1.2Zm-.8 1.2q-.7.5-1.6.5.6-.6 1.6-.5Z"/><path fill="#bdbdce" fill-opacity=".4" stroke="#bdbdce" stroke-opacity=".4" stroke-width=".5" d="M303.7 53.4c.8-.4 3.8-.8 3.5.7q-1.8 0-3.5-.7Z"/><path fill="#e1e1f9" fill-opacity=".5" d="M166 200q.4.9.3 1.8l-.3 1.2-.8.2c-.2-.6-.6-3.8.9-3.1"/><path fill="#dedefa" fill-opacity=".2" d="m103.3 146.3-1.2.8q0-1 1.2-.8m-15 10-1.2.8q0-1 1.2-.8m5 16-1.2.8q0-1 1.2-.8"/><path fill="#e1e1f7" fill-opacity=".2" d="M406 284.1q-.6 1.2-1.7 1.8l-.4-1q.7-1.1 2.1-.8"/><path fill="#dedef8" fill-opacity=".2" d="m103.4 130.4-1.3.7q.1-1.1 1.3-.7M284.8 358l1.2-.2q0 1-1.2 1zm-8 107.8q0 1-1 .6z"/><path fill="#e1e1f9" fill-opacity=".2" d="M381 96.7v1.2l-1 .2q.4-.8 1-1.4M105.9 255.9q0 1-1 .8zM48.2 396.7l.8.3.3.7q-1.2.1-1.1-1"/><path fill="#d4d4eb" fill-opacity=".6" d="m152 235.8.3 1-.6 2.4h-.5c-.2-.9-.5-3.4.7-3.4"/><path fill="#7b7b86" d="M152.2 235h.6c0 .4.3 1.8-.5 1.8l-.4-1zm197.5 70 .5.7-1 .3q0-.7.5-1"/><path fill="#8f8f9d" fill-opacity=".7" d="M19.7 227c.3 1-1.3 1-1.8.8q.6-1.1 1.8-.7m-2.6 1.3.8-.5q0 1-1 1z"/><path fill="#7e7e89" fill-opacity=".9" d="M310.7 55.3q1.1-.3 2.2 0l.2.4q-1.4.4-2.4-.4"/><path fill="#75757f" fill-opacity=".2" stroke="#75757f" stroke-opacity=".2" stroke-width=".5" d="M195 63.8q-.2 1-1.1 1.1l-1-.2a5 5 0 0 1 2.2-.9Z"/><path fill="#c9c9df" fill-opacity=".4" stroke="#c9c9df" stroke-opacity=".4" stroke-width=".5" d="M465.7 223.3q1.6-.6 2.7.8-1.6 0-2.7-.8Z"/><path fill="#ddddf6" fill-opacity=".1" stroke="#ddddf6" stroke-opacity=".1" stroke-width=".5" d="M245.1 5.4q-1.1 0-2.1-.4c.2-1.8 2.3-1 2.1.4Z"/><path fill="#cacae0" fill-opacity=".6" stroke="#cacae0" stroke-opacity=".6" stroke-width=".5" d="m101 127.8.7.3c.2 1-1.4.8-2 .7q.6-.7 1.4-1Z"/><path fill="#777783" fill-opacity=".8" d="M215.1 460a3 3 0 0 1 2.1.7l-2 .1z"/><path fill="#777781" fill-opacity=".9" d="m179 458.4-.6 1q-.3-1 .6-1m-.6 1-1.2.8q.3-.8 1.2-.8"/><path fill="#5e5e65" fill-opacity=".5" d="M433.8 124.4q-.7.6-1.8.5.7-1 1.8-.5"/><path fill="#8f8f9d" fill-opacity=".9" d="M315.9 454v1h-.5l-1.2-.3q.6-.8 1.7-.7"/><path fill="#dfdff7" fill-opacity=".1" d="m51.2 398.8 2.2.3c-.6 1.1-2.6 1.4-2.2-.3"/><path fill="#7d7d87" fill-opacity=".2" stroke="#7d7d87" stroke-opacity=".2" stroke-width=".5" d="m207.1 398 2 .2q-1 .6-2.1.8z"/><path fill="#e2e2fa" fill-opacity=".2" d="M250.7 362h2.3c.4 1.3-1.9 1-2.3 0"/><path fill="#9595a2" fill-opacity=".5" stroke="#9595a2" stroke-opacity=".5" stroke-width=".5" d="M289.7 155.3c.7 0 2.5-.3 2.5.8q-1.4-.2-2.5-.8Z"/><path fill="#9393a3" fill-opacity=".5" stroke="#9393a3" stroke-opacity=".5" stroke-width=".5" d="M284.8 358.1v.8l-2-.2a3 3 0 0 1 2-.6Z"/><path fill="#7e7e8a" d="M210.9 122v1h-.5l-1.2-.3q.6-.8 1.7-.6"/><path fill="#cecee3" fill-opacity=".6" stroke="#cecee3" stroke-opacity=".6" stroke-width=".5" d="M47 340.9q0 .9-1 1.2h-.8q.2-1.6 1.8-1.2Z"/><path fill="#dfdffa" fill-opacity=".2" d="M243 45q-.3 1.1-1.3.7zM87.2 176.2l-1.2.8q0-1 1.2-.8"/><path fill="#63636a" fill-opacity=".6" d="m47.4 117.1-1 1.2q-.2-1.2 1-1.2m-1 1.2q-.6.7-1.5 1 .3-1.2 1.5-1"/><path fill="#e1e1f8" fill-opacity=".7" stroke="#e1e1f8" stroke-opacity=".7" stroke-width=".5" d="m59.3 330.6.5.3v1.3H58q.5-.9 1.2-1.6Z"/><path fill="#82828f" fill-opacity=".2" stroke="#82828f" stroke-opacity=".2" stroke-width=".5" d="M445.9 315.2q0 .5-.5.9l-1.4-.8q.9-.4 1.9-.2Z"/><path fill="#5b5b61" fill-opacity=".6" d="M118.8 197.9q.3 1.2-.5 2.3l-.4-1q.3-.8.9-1.3"/><path fill="#e3e3f8" fill-opacity=".3" d="m228.3 58.3-1.3.7q.3-1 1.3-.7m-123 71-1.3.8q.3-1 1.3-.8"/><path fill="#787881" fill-opacity=".2" stroke="#787881" stroke-opacity=".2" stroke-width=".5" d="M425 128.9q-.4 1.5-2.1 1 .9-1 2.2-1Z"/><path fill="#d6d6ed" fill-opacity=".8" d="m464.4 287.8 1.7.5a3 3 0 0 1-2 1z"/><path fill="#5d5d64" fill-opacity=".6" d="M312.2 63.3q1-.1 1.8.4c-.4.1-2 .5-1.8-.4"/><path fill="#9393a0" fill-opacity=".9" d="M494.8 283v.8h-.8l-.9-.2q.7-.6 1.7-.6"/><path fill="#828294" fill-opacity=".1" stroke="#828294" stroke-opacity=".1" stroke-width=".5" d="M422.9 129.9c.3 1.2-1.2 1.3-2 .7a4 4 0 0 1 2-.7Z"/><path fill="#dcdcf4" fill-opacity=".9" d="M102 127.2h1.1l-.4 1h-1z"/><path fill="#81818d" d="m102 127.2-.3 1-.6-.4q.2-.6 1-.6"/><path fill="#72727c" fill-opacity=".8" d="M497.2 282q-.4.7-1.3.7z"/><path fill="#6c6c75" fill-opacity=".7" d="M107.4 253.8q.3.7-.2 1z"/><path fill="#848493" fill-opacity=".2" stroke="#848493" stroke-opacity=".2" stroke-width=".5" d="M313 55.3q1-.3 1 .7l-1-.3z"/><path fill="#a5a5b5" fill-opacity=".3" stroke="#a5a5b5" stroke-opacity=".3" stroke-width=".5" d="m54.3 113-.3.6-1 .5q.2-1 1.3-1Z"/><path fill="#bcbcce" fill-opacity=".5" stroke="#bcbcce" stroke-opacity=".5" stroke-width=".5" d="M350.7 303.7q0 1-1 1.3z"/><path fill="#c2c2d7" fill-opacity=".4" stroke="#c2c2d7" stroke-opacity=".4" stroke-width=".5" d="m349.2 306 1-.3q-.3 1.3-1.6 1.3z"/><path fill="#5d5d64" fill-opacity=".6" d="M348.6 307q0 .7-.7 1z"/><path fill="#e0e0f8" fill-opacity=".4" d="M131.3 147q-.7.5-1.5.7a2 2 0 0 1 1.5-.7"/><path fill="#75757f" fill-opacity=".6" d="m151.2 239.1.5.1q0 .5-.3 1z"/><path fill="#b0b0c3" fill-opacity=".2" stroke="#b0b0c3" stroke-opacity=".2" stroke-width=".5" d="M216.1 52.3v.5l-1.1.1q.2-.9 1.1-.6Z"/><path fill="#81818e" fill-opacity=".4" stroke="#81818e" stroke-opacity=".4" stroke-width=".5" d="M59.4 329.9q.5.4.4 1l-.5-.3z"/><path fill="#c3c3d8" fill-opacity=".5" stroke="#c3c3d8" stroke-opacity=".5" stroke-width=".5" d="M330.8 330.6q.3 1-.6 1.4 0-.8.6-1.4Z"/><path fill="#9494a2" fill-opacity=".9" d="m233 50-.3 1-.8.1q.3-.8 1-1"/><path fill="#cacade" fill-opacity=".7" stroke="#cacade" stroke-opacity=".7" stroke-width=".5" d="M330.2 332q-.4.7-1 1.1 0-1 1-1Z"/><path fill="#c3c3d7" fill-opacity=".4" stroke="#c3c3d7" stroke-opacity=".4" stroke-width=".5" d="M329.1 333.1q-.3.9-1.4.9.6-.7 1.4-.9Z"/><path fill="#d6d6e7" fill-opacity=".3" stroke="#d6d6e7" stroke-opacity=".3" stroke-width=".5" d="M165.3 219h.5q-.3 1-1 1.1z"/><path fill="#9797a5" fill-opacity=".4" stroke="#9797a5" stroke-opacity=".4" stroke-width=".5" d="m153.1 234-.3 1h-.6q-.1-1 1-1Z"/><path fill="#cdcde3" fill-opacity=".5" stroke="#cdcde3" stroke-opacity=".5" stroke-width=".5" d="m45.2 342.1-.1.8h-1.4q.4-.8 1.5-.8Z"/><path fill="#777781" d="M45.2 342.1h.8a1 1 0 0 1-1 .8z"/><path fill="#7e7e89" fill-opacity=".6" d="M43.7 343q0 .8-.6 1 0-.6.6-1"/><path fill="#6f6f79" fill-opacity=".7" d="M41.2 231.5q-.5.2-1 .1.4-.2 1 0"/><path fill="#b8b8c9" fill-opacity=".5" stroke="#b8b8c9" stroke-opacity=".5" stroke-width=".5" d="M212.7 352.9q.9 0 1.5.9-1 0-1.5-1Z"/><path fill="#5b5b63" fill-opacity=".5" d="M365.7 38.4q.8 0 1.4.5-.9 0-1.4-.5"/><path fill="#a5a5b6" fill-opacity=".4" stroke="#a5a5b6" stroke-opacity=".4" stroke-width=".5" d="m12.3 231-1.2 1.1q0-1 1.2-1Z"/><path fill="#5f5f67" fill-opacity=".6" d="m355.2 33.4-1.4.6q.3-.9 1.4-.6"/><path fill="#b0b0c4" fill-opacity=".4" stroke="#b0b0c4" stroke-opacity=".4" stroke-width=".5" d="m210.9 122 1.2-.1q-.1 1-1.1 1z"/><path fill="#dbdbf3" fill-opacity=".4" stroke="#dbdbf3" stroke-opacity=".4" stroke-width=".5" d="m189.3 173.9-.2 1H188q.4-1 1.4-1Z"/><path fill="#e1e1fa" fill-opacity=".6" stroke="#e1e1fa" stroke-opacity=".6" stroke-width=".5" d="M277 29.6q0 .8-.2 1.4l-.9-.4q.4-.7 1.1-1Z"/><path fill="#7a7a88" fill-opacity=".3" stroke="#7a7a88" stroke-opacity=".3" stroke-width=".5" d="M192.7 382.2q1.2 0 1.4 1.1z"/><path fill="#74747f" d="M154 158.2a2 2 0 0 1-1 1q.3-.8 1-1"/><path fill="#e1e1f8" fill-opacity=".1" d="M79.9 383.9q0 1.2-1.1.5z"/><path fill="#b2b2c5" fill-opacity=".4" stroke="#b2b2c5" stroke-opacity=".4" stroke-width=".5" d="M228.1 13.7a4 4 0 0 1-.8 1.6q0-1.1.8-1.6Z"/><path fill="#cccce2" fill-opacity=".6" stroke="#cccce2" stroke-opacity=".6" stroke-width=".5" d="M125.6 181.7q.3.9-.5 1.2z"/><path fill="#68686f" fill-opacity=".7" d="M14.2 230.4q-.6.5-1.3.3.4-.7 1.3-.3"/><path fill="#72727d" fill-opacity=".2" stroke="#72727d" stroke-opacity=".2" stroke-width=".5" d="m15.2 229.1-1 1.3q-.2-1.2 1-1.3Z"/><path fill="#acacbc" fill-opacity=".3" stroke="#acacbc" stroke-opacity=".3" stroke-width=".5" d="M268.3 160.1h1q-.5.8-1.4.9z"/><path fill="#9696a1" fill-opacity=".2" stroke="#9696a1" stroke-opacity=".2" stroke-width=".5" d="M183.8 179q0 .8-.5 1.3-.3-.9.5-1.2Z"/><path fill="#64646e" fill-opacity=".4" stroke="#64646e" stroke-opacity=".4" stroke-width=".5" d="m165.2 203.2.8-.2-.6 1.3z"/><path fill="#868697" fill-opacity=".3" stroke="#868697" stroke-opacity=".3" stroke-width=".5" d="M17 228.3v.5l-1 .3q.1-1 1-.8Z"/><path fill="#cdcde2" fill-opacity=".3" stroke="#cdcde2" stroke-opacity=".3" stroke-width=".5" d="m315.9 454 1.2-.2q0 1-1.2 1.1z"/><path fill="#6d6d76" fill-opacity=".5" d="M98.8 128.8q0 .9-.8 1z"/><path fill="#ddddf1" fill-opacity=".1" stroke="#ddddf1" stroke-opacity=".1" stroke-width=".5" d="m241 5 .1 1-1.2.3Q240 5 241 5Z"/><path fill="#cacadf" fill-opacity=".2" stroke="#cacadf" stroke-opacity=".2" stroke-width=".5" d="M214 460h1.1l.1.8q-.9 0-1.2-.8Z"/><path fill="#5a5a60" fill-opacity=".3" stroke="#5a5a60" stroke-opacity=".3" stroke-width=".5" d="M432 125q0 .7-.9.8.1-.7.9-.9Z"/><path fill="#d4d4e6" fill-opacity=".3" stroke="#d4d4e6" stroke-opacity=".3" stroke-width=".5" d="m279.3 468-.5 1h-.5q0-1 1-1Z"/><path fill="#d5d5eb" fill-opacity=".5" stroke="#d5d5eb" stroke-opacity=".5" stroke-width=".5" d="m291.3 470 .9.3-1.3.8z"/><path fill="#797985" fill-opacity=".6" d="m359 472.9 1.5.1-.6 1z"/><path fill="#ddddf5" fill-opacity=".2" stroke="#ddddf5" stroke-opacity=".2" stroke-width=".5" d="m494.8 283 1.1-.3q0 1.1-1 1z"/><path fill="#e1e1f9" stroke="#e1e1f9" stroke-width=".5" d="M253.9 10.2c2.7 0 12 .5 13.4 3l-16 16.3q.7.6 1.7 0 9.8-6 20-11.8c2 2.5 2.7 5.8 3.4 9l-2.4.2-1.3.8-.8.5-1.2.8-3 1.7q-.6 0-1 .3l-1.1.9-5 2.8-.7.5-1.3.7-4.9 2.9-.8.5q-.6.2-1.3.7l-3.8 2-1.2 1-5 2.7-.6.5q-.8.3-1.4.8l-5 2.7-.7.6-1-.3q2-8 2-16.3c1.6 0 2.5-1.8 3.6-2.7q1-.8 1.6-2 .6-.2.3-.7-.4.2-.3.7-1.7-.3-2.4 1.1-1.5.3-2.8 1.2-.3-7.2 1.6-14.3c1.7-6 5.3-6 10.8-6-.2.8-2.9 3.2-1.8 4a36 36 0 0 0 8.4-4.8ZM159.2 47c-2 .1-6 5.7-7.7 7a22 22 0 0 0-3.3 3.8q-.7.2-.5.8.4-.3.5-.8l1-.1c-.2 0 4.6-2.2 3.4-2 2-1.4 8.4-3.6 8.9-6q3.6 4.9 6.8 10-1.4 0-2.3.9l-10.6 10.8q.7.6 1.6.1 6-3.8 12-7.1.7-.5 1-1.4.6 0 1.1.4c3 4 2.6 4.7 8 4.7l-.4.8c-4.8 4.4-14.3 10.7-18.4 14.8q-2.4 1-4 2.6c1.1 1 1.6-.6 2.4-1.1A304 304 0 0 0 195 63.8q1 .4 1.7-.6c9.2-3 18.7-6.6 28.4-7.1Q224 58 222 58.9l-1.2.8-.8.6-1.2.6-5 3-.6.3q-.8.3-1.4.8a38 38 0 0 0-5 2.8l-5 2.9-.7.5-1.4.8-3.6 2-1.3.7-.7.5-1.3.8-5 2.8-.8.4q-.7.3-1.2.8l-3.9 2-1.2 1-3.7 2-1.2.7-.8.5a43 43 0 0 0-6.2 3.6l-.7.4-1.3.7-8.8 5-1.3.8-.6.5q-.8.1-1.4.7l-5 2.8-.5.5-1.4.7-3.7 2-1.3.8-6 3.3-1 1-5 2.7-.7.6-1.3.6-5 2.8-.7.5-1.3.7-3.7 2-1.3.8-7 4-5 3-.7.5h-.9c.4-2.6 26.4-28.7 30.3-31.2 1.3-4.3-.8-8.6-1.8-12.8q4.9-4.5 9-9.6c-1.3-1.2-2 .8-3.1 1.3-2.5.6-5.7 3-8 4.4a66 66 0 0 1-5.5-10.1c2.8-.9 5.8-5 7.5-7.2q2.3-1.6 4.1-3.6-1.8-.4-2.4 1.3a66 66 0 0 0-10 5.6c-2.5-.5-2.6-10.2-1.3-12 10.4-11 26.4-24.7 37.3-6.3Zm206.5-8.6q.6.5 1.4.5c4.5 1.3 8.3 5.5 12.1 8q0 .7-.7 1l-33 25a1 1 0 0 0-.3.9q-1.2 0-2 1c.6.9 1.9-.2 2-1 11.5-5.6 26.1-15 37.8-21.4a2 2 0 0 0 1-1.5c11.1 6.2 5.6 16 1 24.2q-1 .1-.8 1.1-1.2-.1-1 1c-2 6-3.5 10.6-3.2 17-1.9.2-5.6 4.6-7.4 5.8q-2.2 1.5-3.4 3.8-2 .2-3 1.7c1.3.7 2.4-.6 3-1.7 1.4.2 3.6-1.5 4.4-2l6.5-3.7.9-.2 5.2 8-1.8 1q-3 3-6.1 5.4.8.6 1.7.1 3.8-2.6 7.8-4.8l7.5 7.3-9.9 10q-1 1.5-2.3 2.9a1 1 0 0 0-.8.6q.7.2.8-.6c3.4-1.1 12.7-6.7 16-9q3.9 3.3 7.3 7.2c-1 1.6-6.6 5.2-6.3 7.1l-1.4-.2c-.4.7-3.2 2.2-2 3a7 7 0 0 0 3.4-2.1 52 52 0 0 0 8-4.8q1.8.6 3 2.3c3.1 2 6.4-.7 9.8-.7.8.6 2.3.6 2-.7q1.6.5 2.2-1 1.2.2 1.8-.9 1.4.2 2-1 .8 0 .9-1l1.3-.2q.8 0 .9-.9 1 .2 1.8-.5c5.8-3.3 12.5-7.5 19.4-4.9 1 .5 3 1.2 2.7 2.5a6 6 0 0 0-3 3q-1.2-.2-1.9.8c.6.8 1.9 0 2-.7q2-.3 3.2-2l.7-.3a78 78 0 0 1 10 16.4q-1.1-.4-2 .5c.6.9 2 .3 2-.5q.9.2 1.2 1.1c10.2 19.4-7.6 24.4-20 34.4-1.2 1-8 6.2-7.6 7.7q2.4 5.5 3.8 11.4a359 359 0 0 1-17 16.6q.8.6 1.8 0 7.8-4.8 16-9.4h.8c1.4 1.6 2 8.7 3 11a68 68 0 0 0-14.8 13.9q-1.8 0-2.8 1.6c.8 1.2 2.5-.8 2.8-1.6 3.6-.7 11.4-6.4 15.2-8l.6.1 3.5 9c-1.2 1.3-7.2 5.3-7.2 6.9l-1.4.1c-.6.7-3.5 2-2.3 3q2-.8 3.8-2c1.4-1.5 8.2-4 8.6-5.7q6.7.6 13.6.8 1 0 1.3.7l-17.7 14.9c-.7.8-3.7 1.4-3.8 2.7q.8.5 1.7 0 14.4-8.9 29.1-16.8 6 .7 11.3 3.7l-1.5.6-1.2.8a17 17 0 0 1-4.3 3.2q-.3.4 0 .8c-1.3.3-3.3.6-3.3 2.3q-2.4-.1-3 2c-.7 0-2.3-.1-2 1a1 1 0 0 0-1 .4q.7.2 1-.4 1.4.3 2-1a4 4 0 0 0 3-2q2.6 0 3.2-2.3c1 1 3.5-1.4 4.7-1.7q.8-.2 1.3-.7l2.6-1.6a13 13 0 0 1 5.2 8.6c-1.7-.2-23.4 16.1-25.6 18-.9.3-2.4.2-2.3 1.5-.9.6-3 .6-3.1 1.9 1 1.2 2.6-1.1 3.1-1.9 2 .3 2.2-.6 3.7-1.6q12.6-7 25-14.5c.4 12.7 3.4 30-13.1 32.2l3-3.8q.1-.6-.5-.8-3.2 1.5-6.2 3.4-.6.6-.8 1.3c-6.1 1-25.4-.5-27.8 6.8l-2.5 12.5q-1-.6-2 0l-13.7 10.1c1.2.9 1.5-.8 2.4-1.2q6.3-3.1 12.4-6.5c-.2 3.9-2.3 8.6-3.2 12.5q-1-.3-2 0l-1 .7-1.2.8-.7.5-1.4.7-5 2.8q-.1.3-.5.5l-1.5.8-4 2-1 1a36 36 0 0 0-5 2.7l-.7.5-1.2.7-5 2.8-.7.5-1.3.6-3.7 2.2-1.3.7-.8.4-1.2.8-3.9 2.2-1.2.8-3.7 2-1.3.8-.7.6-1.2.6-5 2.8-.7.5-1.2.8a29 29 0 0 0-5 2.7l-6 3.3-1.1 1-5 2.7-.7.6q-.8 0-1.3.7-2.3.8-4 2.3l-.5-.2q0-.6.3-1.1a149 149 0 0 0 17.4-23c6-10.4 10.5-21 15-32.2 2 .4 14.4-10 17.1-11.4q.8-.7.6-1.7l1.7.3q2.4-1.7 4.5-3.7c-.7-1.1-4 1.7-4.9 2.3l-1.2.7q-8.6 4.7-17 9.7l3.5-13.2q1.2-.8.5-2 1.2-6.9 2-13.8 1.3.2 2.3-.5 5.4-4.4 10.6-9-1.5-.5-2.3 1a74 74 0 0 0-10.3 5.8q.6-6.6.8-13.4c2.3.2 7.8-5.7 9.7-7.3l-.8-.3q-4.4 2.4-8.7 5-.2-6.3-.7-12.4 1-.3 2-1.1 6.9-6.5 13.3-13.2-.7-.8-1.6-.2-6.9 4.2-14.1 7.8l-1.9-11.4a3 3 0 0 0 1.6-.7q7.9-8 16-15.5-.3-.4-.9-.3c-1.5 2-14.3 8.3-17.4 10.1-1.7-1-2.4-7.6-3.2-9.6l1.5-.7 29-23.5q-.3-.4-1-.3-1.3 1.4-3 1.7c-8.7 5.4-21 11.1-28.5 17.2-1-4.3-6.7-15.1-7-18.5q1 .5 1.8-.5c-.5-.8-1.4 0-1.8.5q-.6 0-1-.3a132 132 0 0 0-21.4-30.4q3.8-3.8 7.1-8c.8-.4 3.3-.6 2.7-1.8q-1.7.5-2.7 1.9c-3 .6-7.1 3.7-9.9 5.2a94 94 0 0 0-8.2-8c2.7 0 10.8-10 13.2-12.1q.7-.3.4-.9a1 1 0 0 0-.4.9c-6 2.2-11.3 6-17 9.2l-8.3-6.5 4.3-3.7a8 8 0 0 0 3-2.8c-1-1-2.3.7-2.9 1.3l-1 .3-6 3.3-9.4-5.2c5-4.8 15.5-13 19.2-17.9 1-.4 3.3-.8 2.6-2.2q-1.9.4-2.6 2.2c-3.2.3-21.3 12-25.7 14-2-.1-9.5-2.8-10.6-4.5a101 101 0 0 0 17.3-13.6q2 0 3.1-1.7c-1-1.2-2.7 1-3.1 1.7q-2.1.5-3.8 1.5-9.2 5.2-18.3 10.8-12-3-24.4-5.3-1 0-1.4-1c4.9-2.8 26.7-20.3 33-25a10 10 0 0 0 2-2l2.1-.7q2-1.4-.3-1.2-1.3.6-1.8 1.9c-15 7.4-29.3 16.7-44.1 24.8q-.6.3-.7.9c-12.5-.3-24.7-1-37.1-.2q-.4-.8-.9.1-5.2 1-10.6 1.6a166 166 0 0 0-35.5 10.6q0-1.5 1-2.4 3.2-1.2 5.5-3.5.8 0 1.2.3 1 .9 1.6-.2 1.8-1.3 3.8-2.1l1.2-.7.9-.4 1.1-.8 5-2.8.6-.6q.8-.1 1.4-.7l10-5.7q.4 0 .7-.3.8-.3 1.3-.7l5-3 .8-.5q.8-.3 1.2-.8l5-2.7.8-.5q.6-.2 1.2-.7l5-2.9.8-.4 1.2-.8 1.8-1 1.3-.7.7-.6q.8 0 1.2-.7a31 31 0 0 0 5-2.7l.8-.5 1.2-.8a54 54 0 0 0 7-3.9l5-2.9.7-.4 3.1-1.7 1.3-.8.7-.6q.8 0 1.2-.6l5-2.8.7-.5q.6-.1 1.3-.7l5-2.8.7-.6q.7-.1 1.3-.6a3 3 0 0 0 2-2.4q9.5 2 19 4.6c-.2 1 1.3.5 1.7.4q5.3 1.5 10.2 3.6l-.3.4-1 1.2q-1 0-1.7.8c.6.9 1.8 0 1.8-.8a2 2 0 0 0 2-.9c21.9 1.6 24-33.7 40.7-29.6ZM377 81q-2-.3-2.9 1.5c1 .9 2.5-.6 2.9-1.5.8 0 4-1 2.6-2.2q-2 .2-2.6 2.2Zm-167.8 41.6 1.2.3-54.3 34.6q-1 .6-2 .6.1-1 1-1.6 22.6-24 54-34Zm59 37.4-.3.9q-19.7 13.5-38.3 28.3-1.8 0-2.4 1.5-1.8.6-3 1.8c.9 1.6 2.3-1.3 3-1.8h1.9c14.8-9.5 31.5-18.3 46.9-27.5q.8-.5.8-1.5c4.8.2 9.7 2.1 14.3 3.4l-2.8 1.5-50.8 36.4q-1 .6-1.3 1.7-2.4 0-3.1 2.1a2 2 0 0 0-2 .8c.6 1 1.9 0 2-.8q2.1-.2 3-2 1-.2 1.9-.6l59.6-34.3 1.6-1.3a98 98 0 0 1 19 12q-1.1.3-2.2 1c-16.9 11.6-34.2 23-50.5 35.2q-2 .3-2.4 2.3-2.1-.5-3 1.6-2.2.2-3 2.1a2 2 0 0 0-2 .8c.7 1 1.9 0 2-.8q2.3 0 3-2.1c1.3.4 3.7-.5 3.6-2.1q1 .2 2-.3l55.9-32.2a5 5 0 0 0 1.5-1.4c1.7 1.6 5.6 5.2 6.1 7.3-14.6 9.7-29.8 19.3-43.7 29.8-3.3 1.4-10 7.7-12.6 7.8q-.5 0-.6.6.7.7 1.7.4 3-2.3 6.3-4.1l50.7-29.2a2 2 0 0 0 1-1.4c1.8.4 5.9 6.8 5.7 8.2q-.9-.2-1.4.3a93 93 0 0 1-7.4 5q-.9.4-.7 1.3-1.8 0-3.2 1.2-1.5.5-2 2h-1.3c-1.4 1-6.2 3.4-6.7 5q-2.1 0-3 2-1.2-.3-2 .7c.7 1 1.8 0 2-.7a4 4 0 0 0 3-2 4 4 0 0 0 2-.5q2.7-1.3 5-3.4l1.2-.1q1-.7 1.8-1.7 2.5-.3 3.2-2.5.6.3 1.3.1l9.4-5.2q2.6 4 4.2 8.6a2 2 0 0 0-1.8.3l-19 12.4q-.2.3-.1.8c-2 .4-4.2 1.5-5.2 3.2a4 4 0 0 0-3 2q-1.2-.2-1.9.7c.6.9 1.9.1 1.8-.7a3 3 0 0 0 3-2c2 0 4.4-1.4 5.3-3.2q1.3 0 2.5-.5 9.5-6.2 19.3-11.7c5 14.8 7.7 28.9 7.7 44.5q-1.2.1-2.3.8l-38.8 27.3c-1.4 1.3-1.5 1.8-3.7 2.3q-.7.4-.8 1.3a4 4 0 0 0-3 1.8c1 .9 2.7-.8 3-1.8l2-.2q21.3-12.7 43-24.9.3 6.3-1 12.5c-2.5-.4-15 9.7-17.6 11.7q-2.2.3-2.1 2.3-2.4-.6-3.4 1.7a3 3 0 0 0-3 2 2 2 0 0 0-2 .8c.7.9 2 .1 2-.8a3 3 0 0 0 3-2q2.2 0 4-1.4l18.2-10.6c-1.9 6.1-2.3 12.1-7 16.8l-2.9 1.2q-.4.6-.4 1.3c-2.1-.7-6.2 3.2-7.7 4.5.7.9 7.2-3 7.8-4.5.7 0 4.5-3 3.6-.2a90 90 0 0 1-58.9 47.1c.2-.8 12.2-10.1 13.8-11.5q-.3-.4-.8-.3l-6.4 3.5q-8.9 5-17.6 10.4a1 1 0 0 0-.4.9q-10.3 1-20.6 1l16.3-11.8q.6-.4.8-1.2l1.4-.3q1.2-.6 1.8-1.7c.6-.2 4-1.2 2.6-2.1q-1.7.5-2.6 2-1.4-.3-2.1.8l-1.2.5-23 13c-1.6.5-12.3-1-13-2.4q.2-.6.8-.9a1114 1114 0 0 0 25.5-17.6q.8-.6.7-1.7l1.4.4c1.4-1 4.2-2.6 4.9-4.2q1 0 2.1-.3 2-1.6-.5-1.3-1 .6-1.6 1.6-3 .7-5.2 2.8l-1.2.7c-4.1 2.3-32.1 17.4-32.8 19.6q-6-2-12-4.6 1.5-.5 2.8-1.3l45.3-31.9 2-2q2.3 0 3.2-2.3c.5.3 2.5-.3 1.4-1a2 2 0 0 0-1.4 1 4 4 0 0 0-3.3 2.3q-3 .4-5.3 2.7-24.6 13.7-49.1 28-.9.4-1.2 1.3c-3.4-.9-6.6-3.7-9.6-5.4l15-9.5q1.4-.9 2.2-2.2c1 0 6-2 4.8-3.2-1.5 0-4 2-4.8 3.2q-1 0-1.8.5l-16.9 9.8a94 94 0 0 1-14-13c-.7-1.5 1.5-3 2.7-3.2a7 7 0 0 1 4.6-2.4l8.6-5.5a2 2 0 0 0 1-1.3 3 3 0 0 0 3-2q1.2.2 2-.7c-.6-1-1.7 0-2 .6q-2.1.5-3 2a4 4 0 0 0-2 .6l-9.2 5.3a3 3 0 0 1-2.7 1.8c-1.4 1.2-4.2 3.7-5.9 1.6l-4.4-6c0-1.4 2.1-1 3-1.8q8.3-5.7 16.8-11.1l2.3-2c1.3-.4 4.8-1.8 5-3.4a4 4 0 0 0 3-1.8c.6 0 2.7-.4 1.6-1.2q-1 .2-1.5 1.2-2.1 0-3 1.8-3.4.5-5.1 3.4-1.5-.1-2.5.5l-9.8 6q-4.8 2.4-9.3 5-.8.4-1.3 1.3c-1.5-.7-3.9-6.4-4.5-8.1l2-2 5.4-3.7q-.5-.5-1.2 0-3 1.4-5.7 3.3-1.6 1-2.4-.8l-2.9-7.8q1 0 2-.7L212 261q1.2-.6 2-1.8l1.3-.3q1-.7 1.7-1.8 2.1-.2 3-2.1c.5.2 2.7-.3 1.6-1a2 2 0 0 0-1.6 1q-2.1.2-3 2-1.3-.2-2 .8l-1.2.3q-1 .7-1.8 1.5a3118 3118 0 0 0-46.4 26.6c-1.2-1-2.5-8.3-2.9-10.2a4 4 0 0 0 2.4-.5l47.9-33.1q.8-.7.8-1.7l1.2.3q1.3-.5 2-2 2.1 0 3-2 1 0 2-.4 1.7-1.6-.4-1.2a3 3 0 0 0-1.6 1.5q-2.2 0-3 2.2-1.5-.4-2 .7l-1 .2-52.3 30.3a126 126 0 0 1-1.7-23.5q1 .8 2 0l46.9-33.5a4 4 0 0 1 3.1-2q1.5-1-.2-1-1.2 1.2-2.8 1.4a4 4 0 0 1-3 1.9L162 239h-1c-.5-4.2 1.3-9 2-13.3q1 .4 2-.2l26-19q.7-.7.7-1.8l1.6.2 4.6-3.5c-1-1.2-4 1.5-5 2.3l-1.2.6-26 14.7h-.5c15-42.4 60-63.5 103-58.9Zm26.4 23.3c1-.1 6.1-2.3 5-3.5-1.5.2-4.5 1.8-5 3.5Zm-169.5-.5c-1 4.4-4.5 10.6-6.3 15l-.9 1.3q-17.3 12.3-34.2 25.2-1.7.6-2.6 2.4-2.1.2-3 2.1-1.2.1-2.2.7-1.7 1.5.4 1.1 1.2-.6 1.7-1.8 2.4 0 3.1-2.1a4 4 0 0 0 3.6-1.2l30.7-17.4q-2.1 6.3-3.5 13l-1.2.5q-3.9 3-7.8 5.6-1 .8-1 2c-1.2-1-5.7 2-4.5 2.7a9 9 0 0 0 4.4-2.7 69 69 0 0 0 7.3-3.8q.8-1 2-1.7l-2.2 14.3c-2.2-.4-13.3 10.2-15.5 12.2q-1.5 0-2.2 1.5a1 1 0 0 0-.9.6c.4.6.7-.4.9-.6l1.9-.1c4-3.2 10.6-6.1 15-9a90 90 0 0 1-1 12.1l-.5 1.5-.8-.5-1 1c-.6.7-3.1 2-2.5 3l-1.4.1a7 7 0 0 0-2.8 2.7c.9.9 2.2-.7 2.9-1.3l1-.3q.8-.3 1.3-.7 2-1.2 3.8-2.7c.9.7.5 10.8.7 12.6q-1-.4-1.8.3l-7.7 6.9q.7.4 1.6-.1 4-2.2 8.1-4.7.9 6.3 1.3 12.5-1.2 0-2 .7l-15 14.6q.8.4 1.7 0l16.3-9.8 2.6 10.4q-1 0-2 .6l-8.5 6.8q1.5.3 2.3-1.1 4.4-1.9 8-4.6c1.3.6 3 8.3 3.6 10-3.1.4-16.1 12.1-19.9 14.2q-.4.4-.3 1c-.7 0-2.3 0-2 1.2a1 1 0 0 0-.9.3q.6.4 1-.3 1.5.2 2-1.2 10.6-5.2 20.9-12 1 .4 1.1 1.3a167 167 0 0 0 20 36 50 50 0 0 0-11 10.5c3.1-.6 11.4-5.4 13.8-8a129 129 0 0 0 48.8 36q1 .3 1.2 1.3c-1.8.2-11.9 8.8-14 10.5a2 2 0 0 0-.7 1.7l-1.4-.2a8 8 0 0 0-2.9 3q-1.1-.2-1.8.7c.6 1 1.8 0 1.8-.8a5 5 0 0 0 3-1.6l1.3-.6 17.9-10.1q1-.6.8-1.6l12.1 4-.1 1q-1 .2-1.7.7l-30 23.7q.4.3 1 .2C181 420.9 215 402 216 400q6.7 1.6 13.5 2.2.4 0 .4.4c-10.6 8-21.3 16.9-32.3 24.5-1.4 1.6-1.6 2-4 2.8l-.4 1a1 1 0 0 0-.9.4q.6.3 1-.5c14.6-7.2 30.3-17.3 45-25.4q.8-.6.7-1.8 13.1.5 26.3.4a908 908 0 0 0-21.5 18.9 20 20 0 0 0-3.6 3.6c.9.8 4-1.5 4.5-1.8 4-2.8 35.9-19.8 36.2-21.8a138 138 0 0 0 69-29.1q1.2-.2 1.2-1.2 1.1.6 1.7-.4l1-1.5q1.2.6 2.3.3l1.3-.8 5-3 .8-.4 1.2-.9 5-2.7.6-.6q.8 0 1.5-.6l5-2.8.7-.4 4.2-2.6.7-.2 1.3-.8 5-3 .7-.6q.8-.3 1.3-.7l5-2.7.7-.5 1.3-.7 5-2.8 5-3 .8-.6q.8 0 1.3-.7l5-2.7.5-.5q.8-.2 1.5-.8l5-2.7.7-.5q.6-.2 1.2-.8l5-2.7.8-.5 1.2-.7 1.8-1 1.3-.8.7-.5 1.1-.7 5.1-2.8.6-.5 1.4-.7q.8-1 2-1c-.7 3.8-3.2 9.5-3.3 13.2-4.7 1.3-33.4 21.4-40.1 25.2-1.4 1.7-5.2 3.1-7.2 4.6l-8.7 5.7q-.7.3-1 1.1-2.1.1-3 2.1-1.5-.2-2 1c-.9.5-2.8.5-3 1.7 1 1.3 2.6-.6 3-1.6q1.5.1 2-1.1a3 3 0 0 0 3-2q1 0 2-.3l9-5.3 46.7-27q1-.4 1.1-1.3c2.3 1.2 6.7 4.1 8.3 5.9L414 365.6q-.7.7-1 1.5c-1.9-.3-4.2 1.3-5 3-1.7-.2-3.9 1.4-5 2.6.8 1.4 4.4-1.7 5-2.6q3-.6 5-3 2.5-.8 4.7-2c1.6-1.4 4.1-2 5.3-3.8q1.5-.3 3-1.3 14.1-8 28-16.4c6.4 4.3 14.7 10 17.2 17.5q-.9.4-1.6 1-4 4.3-8.3 8.2.7.7 1.7.3a59 59 0 0 1 7-4.3l2-1.6c-.3 5.5-8.8 19.3-11.7 24.2a11 11 0 0 1-12.6 3.1q1.8-2.4 4-4.4c-1.4-.8-2.1.8-3.2 1.3q-2.3.2-2.6 2.4-5.8-2.4-11.2-5.3l12.9-13.4q-1.5-.5-2.3 1-7.3 3.7-14.4 8-1 .6-.8 1.7c-6.6-2.2-14.5-4.4-20 1.3q-15.2 15.9-30.6 31.4c-3 3.7 2.3 11.1 3.3 15q-1.6.3-1.6 1.8l-1.5.3q-1.5.9-2.4 2.4c.9 1 2.1-.7 2.7-1.3l1-.2q.7-.2 1.2-.6l.7-.8c1.5.5 3.2 8.8 3.8 10.5q-3.4 3-6.4 6.3c1.4.4 5.5-2.7 7-3.3q.6.4.7 1.3c1.3 8 5 12.5-3.7 17.2-7 3-16.5 13.1-24.4 9.3l.6-.9q.9-.7 1.4-1.9.6-.1.5-.7-.5.2-.5.7-2-.2-2.9 1.8c-2.2-.6-5-7-7.3-8.6 2.5-.4 5.2-4.6 7.3-6a7 7 0 0 0 2-2.2q1-1.2 0 0-1.4-.4-2 .7l-1 .3c-1.5 1.3-6.9 3.2-7.2 5-2-1.3-4.5-7-6-9 1.8-.8 2.4-2.2 3.7-3.5-1.3-.8-3.1 1-4.3 1.7q-3.1-3.4-6.8-6.3-.4-.4-.3-1 7-5.3 13.7-11 1.5-.2 2-1.7.6-.4.6-1-.6.3-.6 1c-2.5-.4-1.6 1-3.3 2q-2.2 1.4-4.5 2.4-6 3.9-11.8 8.2c-7.3 1.3-16.5 5-24 6.8-6.3 2.2-21 4-26 7q-2.9 3.2-3.4 7.5-1.5 0-3 .7l-1 .6-39.2 22.7a82 82 0 0 1-2.7-19.4c1.7.1 19.7-11.9 22.7-13.7l3.4-2.5q.9 0 1.6-.5 3.5-2.7 7.4-4.8.7-.6 1-1.4a3 3 0 0 0 3-1.9q1.4.2 2-1c1-.2 4-.7 2.6-2q-1.8.3-2.5 2-1.5-.3-2.1 1a3 3 0 0 0-3 2c-2.4-.2-7.4 3.8-9.7 5q-.8.3-1.3 1.2-2.2.4-4 1.8-10.5 6-20.8 12.3-1-.6-1-1.8a86 86 0 0 1-.3-8.5l1.8-.8 52.2-34q.7-.4.8-1l1.5-.2q1-.7 1.8-1.9c1.8-.4 4-1.4 5-3q1.9-.5 3-2c.4 0 2.7-.4 1.6-1.2q-1.2.2-1.7 1.1a3 3 0 0 0-2.9 2l-1.3.2a6 6 0 0 0-3.7 3 2 2 0 0 0-2 .5l-1.2.6Q258.5 437 229.4 454q-.9.4-1.2 1.4-12.3-2.4-24.7-5.4-.8 0-1.4-.8 10.5-9.6 21-18.8 1.2-1 2-2.3 1-1.3 0 0-1.4-.2-2.3.8l-.8.3a331 331 0 0 0-26 18.1c-6.7-1.3-12.8-5.7-19.4-1-3.2.5-11.2 13-11.8 12.6a38 38 0 0 0-9.2 5.7c-.8-1.3-3.8-.8-3.3 1-2.6.6-8.6 4.6-11.4 5.8-2.4-1.8-5.5-3.7-7-6.3 6.8-5 28.2-19.2 31.8-25 1.1-.2 2.9-.3 3.1-1.7-.9-1-2.5 1-3 1.7-12.2 6-25.6 14.5-37.6 21.3-3.6-1-5.8-4.7-6.6-8.1 2.3 0 21.6-15.8 23.2-17.7 2.7-1.2 4.5-3.1 6.9-5-1.7-.8-1.9 1-3.2 1.6q-13.5 7.3-26.7 15c2.2-6.7 7.4-12.1 9.2-19.4q1-.4 2.4-.6l5.5-4.6c-1.5-.8-5 2.1-5.9 3.2l-1.3.3a25 25 0 0 0-4.7-18l-.3-1h1.4a8 8 0 0 0 2.8-2.7c-.8-1-2.3.8-3 1.4l-.9.3q-.5 0-.8.3-12.7-11.8-24.4-24.6-1.8-1-4-1l14.1-14.5c-9.8 4-22.2 12.5-32 17.7l-1.1.5c-2.1 1.7-9.3 5-10.6 6.7q-2 .2-3 1.6c-7.5 2.9-15.4-8.3-18-14 1.3.8 2.7-1.3 3.8-1.7q2-1.2 4-2.7.6-.5.5-1.4a9 9 0 0 0-4.6 2.8l-2 .7q-.7 1-1.7 1.7-1.2 0-1.6-1.3A57 57 0 0 1 41 358l1.3-.2 18.3-14.1c-1.7-.8-1.8.8-3 1.5-3.7 1.3-7.1 4.5-11 5 7.3-7 18.1-11.8 24.8-19.9q-3-8.4-5.4-17c2.2 0 10.1-9.5 12.6-11.2.6-1 3.4-2.6 3.2-3.9q.6 0 .8-.5-.6-.2-.8.5-2.4.8-4.5 2.1L66 307l-.7.1a28 28 0 0 1-2.3-11c1.8-.8 5.5-4 6.9-5.8q.7-.1.7-.8-.5.3-.7.8c-2.6-.1-5.6 2.9-8 3.8a47 47 0 0 0-4-10c2-.3 6.2-3.2 6-5.4l1.5.4q1.6-1 2.5-2.6c-.9-.8-2.3.7-3 1.4l-1.2.5c-1.2 1-6.6 2.9-6.5 4.5q-7.5-.9-15.1-1.5.5-1.5 2-2l22.7-18.7q-1.7-.5-2.6 1c-3.8 2.1-30.4 16.3-30.9 18.5a28 28 0 0 1-12.5-3.3q-.5-.2-.7-.7 1-.2 2-.8 7.3-5.7 15-10.8.9-.4.8-1.4 2-.3 3.2-2 1 0 1.8-.8c-.6-.9-1.7 0-1.8.8a4 4 0 0 0-3.2 2 152 152 0 0 0-20 11.3q-4-4.1-3.8-9.7.9 0 1.6-.5l40.8-30.4a4 4 0 0 0 1.5-1.7c.7-.2 3.8-1 2.7-2.1q-2.2 0-2.7 2c-3.1.3-37.3 21.1-43 24.2-.7-9.4-2.6-24.6 11.4-24q-2.6 5-5.6 9.8-.3.4 0 .8 8.3-4.5 16.4-9.3.8-.6.9-1.7l2.1-.2h1.1c7.6-1.8 15.3-4 18.8-11.6q.9-.3.7-1h1.4q8-4.5 15.8-9.5 8.9-4.6 17.5-9.7l1.5-1.2q8.5-4.5 16.8-9.3 1.2-.7 2.3-1.7a37 37 0 0 0 7-4zM332 235a2 2 0 0 0-2 1 4 4 0 0 0-3 2.2q-1.5-.4-2 .9a1 1 0 0 0-.9.5q.6.1.9-.5 1.4.4 2-1a3 3 0 0 0 3-2q1.5.3 2-1c1.2 0 9.6-4.1 7.6-5.1-1.5-.2-6.9 3.6-7.6 5Zm10 6a3 3 0 0 0-2.9 1.7c.9 1 2.6-.6 2.8-1.6 1.2.3 6-2 4.7-3.1a9 9 0 0 0-4.7 3Zm3.7 10.3c-1.8-.7-4 1.3-4.7 3-1.9-.4-4 1.3-5 2.7-1.1.2-2.8.4-3 1.7 1.1 1 2.5-.7 3-1.7 1.8.4 4-1.3 5-2.8 1.6-.2 4-1.3 4.7-3 .9.1 4.4-.8 2.9-2.2q-2.4 0-2.9 2.3ZM168 254.9q-2.1.2-3 2-1.2 0-2.2.5-2 1.5.5 1.3 1.2-.5 1.7-1.7 2.1-.2 3-2c.5.2 2.7-.4 1.6-1.1q-1 .2-1.6 1Zm238 29.2q-1.4-.4-2 .8-.7 0-1 .6.6.4 1.3.4 1-.6 1.7-1.8c.7-.2 3.8-1 2.6-2q-2 .1-2.6 2Zm-214 4c-1.2 0-11 4.4-8.3 5.6 1.1.2 7.8-4.5 8.2-5.7a8 8 0 0 0 5-2.7c-.8-1.4-4.4 1.7-5 2.7Zm10 32.8q-1.3-.3-2 .8c.6 1 2 .3 2-.8.5-.1 4.2-1 2.6-2q-1.8.3-2.6 2Zm-84.4 18.4c.8-.2 4.5-1.1 3-2.3q-2.1.3-3 2.3ZM59 384c-1.1-.3-4.4.9-4 2.2 1.2 1.5 3.5-1.2 4-2.2.7-.2 3.7-1 2.5-2.1a3 3 0 0 0-2.5 2Zm107 2c.7-.4 4-.9 2.6-2.2q-2 .1-2.6 2.1Zm20.2 67-.5 1q-3.2 2.3-6.7 4.2c1-3 3.2-9.5 7.2-5.1Zm128 1.6 1.2.4a848 848 0 0 0-23.2 15.2l-1-.3c.3-1.6-.2-8.8.6-9.7q11.3-2.6 22.4-5.6ZM278.3 469h.5a303 303 0 0 1-6 28.2l-1.9.7-1.1.7-.9.6q-.6.2-1.2.8-.6.2-.5 1c-9 1.2-22.9 1.8-28.3-7 2.2-.1 34.7-22 39.4-25Zm-26.6 29c.3 0 1.9-.4.9-1a1 1 0 0 0-.9 1Z"/><path fill="none" d="M251.7 498.1q0-.7.9-1c1 .6-.6 1-.9 1"/><path fill="#e6e6fc" fill-opacity=".2" d="M59 384c-.5 1.1-2.8 3.8-4 2.3-.4-1.3 2.9-2.5 4-2.2"/><path fill="#e3e3fa" fill-opacity=".3" d="M117.6 339.3q.9-2 3-2.3c1.5 1.2-2.2 2-3 2.3"/><path fill="#e2e2f7" fill-opacity=".2" d="M268 307a3.4 3.4 0 0 1-3.2 2.2 4 4 0 0 1 3.3-2.3"/><path fill="#e6e6fa" fill-opacity=".3" d="M339 302.2c-.6 1.5-7.1 5.4-7.8 4.5 1.5-1.3 5.6-5.2 7.8-4.5"/><path fill="#e6e6fb" fill-opacity=".2" d="M345.7 251.2c-.6 1.6-3 2.7-4.7 3 .6-1.7 2.9-3.7 4.7-3"/><path fill="#71717c" fill-opacity=".1" d="M345.7 251.2q.6-2.2 2.9-2.3c1.5 1.4-2 2.3-2.9 2.3"/><path fill="#e9e9fd" fill-opacity=".1" d="M483.3 240.7q-.6 2.3-3.2 2.3c0-1.7 2-2 3.2-2.3"/><path fill="#e5e5fa" fill-opacity=".2" d="M332 235c.7-1.5 6.2-5.3 7.6-5.1 2 1-6.5 5.1-7.6 5"/><path fill="#dfdffb" fill-opacity=".3" d="M57.9 232q.5-1.9 2.7-2c1 1.1-2 1.9-2.7 2m107 25q-.3 1.2-1.6 1.7-2.4.2-.5-1.3 1-.4 2.2-.4"/><path fill="#e3e3fb" fill-opacity=".2" d="M81.1 226.8q-.7 2.3-3 2.1.9-2 3-2.1"/><path fill="#e1e1f9" fill-opacity=".5" d="M312 221c-.2.7-1.3 1.7-2 .7q.8-1 2-.7m15 17q-.5 1.4-2 1 .5-1.3 2-1m-120 54q.5-1 1.5-1c1 .7-1 1.2-1.5 1m92 122q.4-1 1.6-1c1.1.7-1.2 1.2-1.7 1m70.3-310.2c-.6 1.1-1.7 2.5-3 1.7q1-1.5 3-1.7m-142 87c-.7.5-2.1 3.4-3 1.8q1.2-1.2 3-1.8M377 81c-.4 1-2 2.4-2.9 1.6q.9-1.8 2.9-1.5M434 226c-.3.8-2 2.8-2.8 1.6q1-1.5 2.8-1.6m-356 3q-.6 1.2-1.7 1.8-2.3.3-.5-1.1 1-.5 2.2-.7m235.8 4c0 1-1.2 1.7-1.8.8q.7-.9 1.8-.7m155.3 32c-.5.7-2.1 3-3.1 1.8.1-1.3 2.2-1.3 3.1-1.9M408 370c-.6 1-4.2 4-5 2.6 1.1-1.2 3.3-2.8 5-2.6m-242 16q.6-2 2.6-2.2c1.4 1.3-2 1.8-2.6 2.1"/><path fill="#e2e2fa" fill-opacity=".4" d="M318.9 82q.6-1.2 1.8-1.8 2.3-.1.3 1.2z"/><path fill="#e1e1f9" fill-opacity=".5" d="M323 69c0 .7-1.2 1.6-1.8.7q.6-1 1.8-.8m50.8 75q1-1.3 2.7-1.8c.6 1.2-2 1.4-2.7 1.9M41 261c.1-.6 1.2-1.6 1.8-.7q-.7.9-1.8.8m338 112c-.4 1-2 3-3 1.7.2-1.3 2.1-1.2 3-1.6m-104 71a3 3 0 0 1 2.6-2c1.4 1.3-1.6 1.8-2.5 2"/><path fill="#7b7b88" fill-opacity=".2" stroke="#7b7b88" stroke-opacity=".2" stroke-width=".5" d="m237 107.6-.9.1q.5-.9.9 0Z"/><path fill="#e0e0fa" fill-opacity=".4" d="m233 50 1 .3q-.4.9-1.3.8 0-.6.3-1m31.3 7-1.4.7q.6-.7 1.4-.7M220 60.3q-.3.8-1.2.6zm-117 100q-.3.9-1.2.6.6-.5 1.3-.6M390.4 351l-1.3.7q.3-.8 1.3-.7"/><path fill="#e0e0f8" fill-opacity=".3" d="M274 27q-.2 1-1.3.7zM65.2 201h.5q0 .8-.9 1zM384 350q-.3 1-1.3.7z"/><path fill="#262626" stroke="#262626" stroke-width=".5" d="M245.1 5.4c5.8-1.3 12-.4 17.9-.4.3 1.4 4.2.8 5.3.9 31.7-4.2 14.2 40.6 27 45.4q4.2 1.5 8.4 2.1 1.7.8 3.5.6l.7.1q.4 1 1.4.8l1.4.4q1 .8 2.4.4l.9.2 10.2 3.2c1.8-.2 4.6 2 5.9.5a64 64 0 0 1 18.2-22.5q2.4-2.1 5.5-3l1.4-.7.5-.5c.7 0 2.4 0 2-1.2q3.7.6 7.2-.5h1.3A42 42 0 0 1 389 41.4c9 4.1 15.4 9.1 14 20.2-1.7 10.5-13 23.6-13.4 32.7q8.2 6.5 16 13.8 7.5 7.4 14.3 15.6 1.2.8 2.4 0a105 105 0 0 1 32.6-11.6q.1.6.7.7 2.8 0 5.7.4 8.2 2.4 12 10.2c2.2 7.5 8.8 11.6 10.5 19.3 4 17.7-19.6 27.9-30.8 36.9q-.6.3-.8 1l4 8.8q6.6 16 7.9 33.2.4 1 1.6.8 1.2 1 2.7.8a143 143 0 0 0 19.6 2c.6 1.4 3 1 4.3 1 7.3-.3 14.5 3 16.3 10.6.6 10.4 6 30-2.8 38q-.6.7-.5 1.6-1 0-1 1-.9 0-1.2.8-.8 0-1.5.6a8 8 0 0 1-4.4 2.4l-1.3.6-1 .3q-1 0-1.8.7a73 73 0 0 1-24.8 3.3c-1 .1-3.8-.6-4 .8l-.3 1.6c-1.6 13-7 25.7-10.8 38.3-1.3 2.9 2 4.2 3.8 5.7 7.1 6 20.8 11.9 25.3 20 4.2 8 1.3 15.7-4 22.3-4.3 10.7-12.2 22.7-25 23.4-1.8 0-6.2-.6-7.6.6q-14.4-2.3-26.6-10.4-.8-.3-1.5-.2L403 403.6q-6 6-13 11-.9 1.8.2 3.4c6.2 16 25 38.8.6 49.3a67 67 0 0 1-26.6 13.6h-6.7c-8.7-2-15.2-8.6-20.4-15.5q-5-7-9.8-14.3c-1.7-.8-8.2 2.5-10.3 2.7l-1.2.2q-1.2-.1-1.7.7-11.3 3-22.4 5.6c-.8 1-.3 8-.6 9.7q0 .6-.3 1c-1.6 40.4-23 37.7-55.4 34.9-19.3-3.8-8.2-38.3-18.3-45.2a3 3 0 0 0-2-.6l-1.2-.1a187 187 0 0 0-12.4-3.2q-7.1-1.7-14.2-3.8l-1.2.2c-4-4.4-6.2 2.2-7.2 5.1q-1 .2-.6 1.1-.9 0-1.2.8c-7 10.8-15.9 19.2-29.2 20.6-.8-1.3-5-.6-6.4-.8-9.7-1.2-16-8.6-24.6-12.4-11.7-7.3-9.3-20.6-2.7-30.6 1.8-5 7.6-14.4 8.1-19.2q-8.2-6.6-15.9-13.8-7.6-7.5-14.4-15.6-1-.6-2.1 0c-10.4 6.1-23.5 12.2-35.8 10.3L49 397l-.9-.3c-12.7-6.3-17.7-21.5-20.7-34.4-.9-6.6 10.2-15.8 15.7-18.2q.8-.3.6-1.1l1.4-.1a1 1 0 0 0 1-.8q.8-.3 1-1.2c1.8.3 7.3-4.2 9-5.2l3.7-3.5V331q.1-.6-.4-1a98 98 0 0 1-11.1-40.4q-.6-1.5-2-1.7a7 7 0 0 0-4.7-.8l-22.3-1.2q-.7-.6-1.5-.8C-3.4 282.7-2 251.1 6 237.3q2-1.4 3.5-3.4.3-.6.2-1.2.8 0 1.4-.6l1.2-1 .6-.4q.8.2 1.3-.4l1-1.2h.8l1-.3q.8 0 1-1c.4.1 2 .3 1.7-.7l1.4-.3q1.7.3 3.1-.5a65 65 0 0 1 22.3-2.3q.9 0 1.3-.6c1.7-13.7 7.4-26.8 11.2-40q0-2.5-2.4-3.6l-23-16a18 18 0 0 1-5.6-16.3c.7-3.7 14-28.5 17-28.3q.8 0 1.4-1l1-1q1.5-1.8 3.6-1.9.9-.4 1.3-1l.6-.2 1.1-.5 9.4-1.5c10.8.8 20.5 5 29.5 10.6q1.6.9 2.8-.5 11.7-13.9 26.2-24.8.9-1.7-.2-3.4c-6.1-16-25-38.9-.7-49.3a67 67 0 0 1 26.6-13.6h6.7c9.1 2.2 15 8.4 20.5 15.5l9.8 14.2q.9.4 1.8.1 14.1-4.8 28.6-8l1-.1c1.8 0 5.3-.3 4.9-2.9a70 70 0 0 1 7.2-36.2q1 0 .6-1 1 0 1.6-.6l.9-.8q3.3-3.3 7.6-4.8.6.3 1.1-.2l1.2-.4zm3.1 5.4-.9.2c-5.5 0-9 0-10.7 6a44 44 0 0 0-1.7 16.7q0 8.3-2 16.3-.7.3-1 1.1a10 10 0 0 1-6.7 5c-9.7.5-19.2 4.2-28.4 7.1q-1 0-1.7.6a5 5 0 0 0-2.2 1q-6.3 1.3-12.6 3.1l-1.2.2c-5.4 0-5-.7-8-4.7q-.5-.4-1.1-.4a4 4 0 0 0-1.7-3.2 166 166 0 0 0-9-12.8c-11-18.4-27-4.7-37.4 6.2-1.2 1.9-1.2 11.6 1.4 12-1 1.1.1 3 .7 4a66 66 0 0 0 5.6 10q.5 2.3 2 4c1 4.2 3.2 8.5 1.8 12.8-3.9 2.5-30 28.6-30.3 31.1h-1q-.8 0-1 .7-.9.3-1.3 1h-1l-.8 1c-6.2 2-8.2 2-13.9-1.2q-3.6-1.5-7-3.5a101 101 0 0 0-11-4.4q-2.3-1-4.8-.9c-11.6-1-16.9 17-20.3 25.5a6 6 0 0 0-.4 5.8c.2 2.9 4.8 9.7 7.6 9.6 0 2.1 7 5.5 8.6 6.7 1.8.8 6.2 4.8 8 4.3 1 2.8 5.4 4.2 6.4 7.5.7 1.5-2.4 6.6-2.4 8.6-1.7 4-3.2 9-3.6 13.3l-.4 1-.6 2.7A89 89 0 0 1 61 218l-.3 1q-.6.3-.8 1c-3.5 7.7-11.2 9.8-18.8 11.5l-1 .1q-1.2.3-2.2.2-6 .5-11.7.3c-14-.5-12.1 14.7-11.4 24.1q-1.1 4.2-1 8.5-.1 5.7 4 9.7.9 1 2.1 1.7.3.6.7.7 5.8 3 12.5 3.3c1 1.2 7.1.8 8.8 1.2l15.1 1.5.8 1.3a47 47 0 0 1 4 10 2 2 0 0 0 1 1.9 28 28 0 0 0 2.3 11l-.2 1 1 5.1q2.5 8.7 5.4 17.1c-6.7 8-17.5 12.9-24.7 20-2.8-.2-5.1 4.3-5 6.8a1 1 0 0 0-.7 1c.4 7 2 12.4 4.6 18.8q.4 1.2 1.6 1.3v.6c2.6 5.7 10.5 16.9 18 14 1.5.5 3.6-.5 4.9-1.3 8.4-3 18.9-11 27.8-10.6q2.1-.1 3.9 1 11.8 12.6 24.4 24.5-.3 1 .8 1.7a25 25 0 0 1 4.7 18q-.5.7-.7 1.7c-1.8 7.3-7 12.7-9.2 19.4q-1 3-.2 6c.8 3.5 3 7.1 6.6 8.2-.2 1.2 4.5 3.9 5.7 3.7 1.5 2.6 4.6 4.5 7 6.3q1.5.8 2.9 1.8c10.1 4 17.3-6.3 21-14.3.6.4 8.6-12.1 11.8-12.7 6.6-4.6 12.7-.2 19.5 1.1.7 1.2 4.7 1.8 6 2q.6.6 1.4.7 12.3 3 24.7 5.4c0 .9 4 1.5 4.7 1.7q0 4.2.3 8.5 0 1.2 1 1.8-.7 1.2-.3 2.5.1 9.9 2.7 19.4.6 2.7 2.3 4.7c5.4 9 19.4 8.3 28.3 7 3.4.2 5.5.4 5.6-3.7a303 303 0 0 0 6-28.3l.5-.9q-.3-1.6.5-2.8.5-4.3 3.4-7.5c5-3 19.7-4.8 26-7 7.5-1.8 16.7-5.5 24-6.8h3.9q0 .6.3 1 3.7 2.9 6.8 6.4 0 .9.5 1.8c1.6 2 4.2 7.7 6.2 9q.1 1.2.8 2.1c2.3 1.8 5.1 8.1 7.4 8.7q.3.6.8 1c8 3.8 17.4-6.3 24.4-9.3 8.8-4.7 5-9.2 3.7-17.2q0-.9-.8-1.3 0-1.5-.4-3c-.7-1.7-2.4-10-3.9-10.5l-.1-1.6c-1-3.9-6.3-11.3-3.3-15q15.5-15.5 30.5-31.4c5.6-5.7 13.5-3.5 20.1-1.3l4.6 2.7a139 139 0 0 0 13 6q7.4 2.6 12.6-3.1c2.9-5 11.4-18.7 11.6-24.2 0-.9.2-3.2-.7-3.6-2.5-7.6-10.8-13.2-17.2-17.5a7 7 0 0 0-2.9-1.7c-1.6-1.7-6-4.6-8.3-5.8a8 8 0 0 1-1.8-2.8c.1-3.7 2.6-9.4 3.3-13.3q.7-2 1-4 .5-.3.6-.8c1-4 3-8.6 3.2-12.5l1-2.4 2.4-12.5c2.4-7.3 21.7-5.9 27.8-6.8q2.3.3 4.5 0c16.5-2.2 13.5-19.6 13-32.3q-.2-1.7-.7-3.5a13 13 0 0 0-5.2-8.5 4 4 0 0 0-1.5-1.4q-5.3-3-11.3-3.7-4.5-1-9.3-.8-.3-.8-1.3-.7-6.7-.2-13.6-.8l-1.5-2.3-3.5-9v-1.2q-.8-2.4-1-4.8c-1-2.3-1.6-9.4-3-11v-1.3q-.4-3-1.6-6-1.4-5.7-3.8-11.3c-.3-1.5 6.4-6.6 7.6-7.7 12.4-10 30.2-15 20-34.4q-.3-1-1.3-1a72 72 0 0 0-9.9-16.5q0-.8-1-.8c.2-1.4-1.8-2-2.7-2.5-6.9-2.6-13.6 1.6-19.4 4.9q-1-.4-1.8.5-.7.1-.9.9l-1.3.2-1 1q-1.2 0-1.8 1a2 2 0 0 0-2 .9q-1.2 0-2.1 1a4 4 0 0 0-2 .7c-3.3 0-6.7 2.6-9.9.7a6 6 0 0 0-3-2.3 5 5 0 0 0-1.6-3q-3.5-3.9-7.2-7.3l-3.9-3.8-9-9-5.3-8v-1.2q-.2-1.4-1-2.5c-.3-6.4 1.2-11 3.1-17q.7-.4 1.1-1l.8-1c4.6-8.3 10.2-18-1-24.3-.2-1.7-3.6-3-4.8-4-3.8-2.5-7.6-6.7-12.1-8q-.6-.5-1.4-.5C348.9 34.3 346.9 69.6 325 68q0-.7-.8-.7a102 102 0 0 0-12-4q-9.4-2.7-19-4.6l-9-2.5c-6-1-5-1.9-5.3-7.5l-.8-7.7q0-5.1-1.3-10l.2-1.4q0-1.5-.6-2.9c-.7-3.2-1.3-6.5-3.4-9-1-1.7-3.6-4.8-5.7-4.5-1.4-2.5-10.7-3-13.4-3-1.3-.1-5.2-.9-5.7.6Zm25.9 97 .8.5c2.1.5 7.1 1.8 9 .8q.3 1 1.4 1 12.3 2.3 24.4 5.3c1.3.7 3.3 2 4.8 1.3 1.1 1.7 8.5 4.4 10.6 4.6.6 1.3 5.1 2.9 6.5 3.8l9.4 5.2q1 1.2 2.6 1.6l12 9.4a94 94 0 0 1 8.3 8q1.5 1.2 2.8 2.7 12.9 13.7 21.4 30.4.4.5 1 .3c.3 3.4 6 14.2 7 18.5l2 5.6c.8 2 1.6 8.5 3.2 9.6-1.2 1 .7 5.1.7 6.4l1.9 11.4q0 3.4.4 6.7a168 168 0 0 1 .5 15 299 299 0 0 1-1 16.1l-2.1 13.8q-.7 1-.5 2a313 313 0 0 1-4.3 17 248 248 0 0 1-15.7 33.4q-7.4 11.6-16.7 21.8-.3.5-.3 1.1-1 0-.8 1.2-1-.2-1.6.5l-8 8-1.1 1.5q-1-.4-1.7.3l-1.1 1.2a138 138 0 0 1-84.7 30.3q-13.2.1-26.3-.4-4.5-.7-9-1-.2-.4-.5-.4a108 108 0 0 1-20.3-4q-1-.3-2-.3l-12-4q-2-1.1-4.1-1-.2-1-1.2-1.3-28.7-12-48.8-36-1.2-1.5-2.8-2.5a171 171 0 0 1-20-36 2 2 0 0 0-1.1-1.3q.2-1.7-.8-3.1c-.5-1.8-2.3-9.5-3.5-10.1V301q-1.1-5.3-2.5-10.4 0-2.8-1-5.5a174 174 0 0 0-1.5-15c-.2-1.7.2-11.8-.7-12.5q.3-.8-.5-1.3l.6-1.5q.5-.3.2-1 .7-5.5.7-11.2.6-2.2.8-4.5l2.2-14.3q1.2-1 .8-2.6a130 130 0 0 1 6.4-21q.8-1 .5-2.3c1.8-4.4 5.3-10.6 6.3-15q.8-.3.5-1.2l.4-.3q.7-.5 1-1.3.8-.3.9-1c15-27.2 35.2-44.7 62.1-59.2q5-1.7 9.7-3.8a166 166 0 0 1 37.3-8.5c12.4-.8 24.6 0 37 .2Zm-62 14-1.2.3q-1-.2-1.7.6-31.5 10-54.2 33.9-.7.6-1 1.6-.7.2-1 1c-55.3 65-38.7 179.8 37.3 222q1.2.7 2.4 1l1.4 1.1a142 142 0 0 0 87.2 10.4c84.2-14.1 124.5-90.3 107.4-170.7-19-83.1-95.7-123-176.6-101.1Zm77.6 33.5a6 6 0 0 0 3.1.8q.4.8 1.2 1.2 2.4.5 4.7 1.5c62 26.1 81 84.9 52 145l-1 1.2q-.5.4-.5 1l-.6 1-.7 1a103 103 0 0 1-17 22.6q-.7.6-.7 1.4-1 0-1 1.1-1 0-1.5.9a113 113 0 0 1-37.7 22.5q-.9.3-1.9.3a2 2 0 0 0-1.4 1l-.7.1-1.2.2a3 3 0 0 0-2 .6q-14.1 3.2-28.6 3-2.7-1-5.4-.8a184 184 0 0 1-20-3q-7.2-2.3-14.6-4.1-.6-.7-1.5-1-.1-.6-1-.2c-48.5-18.7-70.6-61.4-60.3-112.4q.3-.5.3-1l.6-2.4c.8 0 .6-1.4.5-1.8l.3-1q2-8 5-15.7 1.6-2.4 2.6-5 .3-.9 0-1.8.8.2 1.1-.6a53 53 0 0 1 4.2-7.9l.3-1.2q.3.1.7-.2c.7-2 3.4-3.7 2.6-6q1 .2 1.5-.6 5.6-7.7 12.2-14.7.4-.6.5-1.2c1.4 0 4-2.8 4.1-4.3h1.2q.6 0 1.2-.4l1-1.3 1-1a98 98 0 0 1 97.4-16.8ZM165.3 219l-.5 1.2-1.8 5.5c-.7 4.2-2.5 9-2 13.3l-.3.9c-.9 1.3-.5 5.2-.7 6.9a126 126 0 0 0 2.7 29.2c.4 2 1.7 9.2 3 10.2q0 2.6 1 4.8l3 7.8q.6 1.7 2.3.8a32 32 0 0 1 5.7-3.4q.7-.3 1.2.1a67 67 0 0 0-7.4 5.7c.6 1.7 3 7.4 4.5 8q.2 1.2.8 2.1l4.4 6.1c1.7 2.1 4.5-.4 6-1.6a3 3 0 0 0 2.6-1.8q1 .2 1.6 1-2.8.4-4.6 2.4c-1.2.3-3.4 1.7-2.7 3.2a94 94 0 0 0 15.5 14.3c3 1.8 6.2 4.6 9.6 5.5.5 1.3 4.4 2.5 5.6 3.2a107 107 0 0 0 12 4.5q2.8 1.2 5.9 1c.7 1.4 11.4 3 13 2.4 1.3 1 4.4.5 6 .7q10.3.2 20.6-1 4.8-1 9.7-1.7c.5-.2 2-.3 1.7-1.2a90 90 0 0 0 58.9-47.1c.9-2.8-3 .1-3.7.2q0-.8.4-1.3l2.8-1.2c4.8-4.7 5.2-10.7 7.1-16.9l.8-3.6q1.4-6.2 1.1-12.5.9-3.2.6-6.6c0-15.6-2.8-29.7-7.7-44.5l-1-1.3q-1.6-4.5-4-8.6-.4-.9-1.3-1.5c.1-1.4-3.9-7.8-5.7-8.2q-.3-2.6-2.8-3.9c-.5-2.1-4.4-5.7-6-7.3l-5-4.1a98 98 0 0 0-27.1-15.5c-4.6-1.3-9.5-3.3-14.3-3.4-.2-1-6.2-1.3-7.5-1.7h-1c-43.1-4.7-88.1 16.5-103 59Z"/><path fill="#d9d9f0" fill-opacity=".6" stroke="#d9d9f0" stroke-opacity=".6" stroke-width=".5" d="m228.9 357.8 5.3 1.1c0 1.2-1.8 1-2.6.8a3 3 0 0 1-2.7-1.9Z"/><path fill="#888896" fill-opacity=".6" d="M283.8 349.1c.2 1-1.3 1-1.8 1.2q.1-1.5 1.8-1.2"/><path fill="#65656d" fill-opacity=".5" d="M307.9 54.1q1 0 1.4.8-1 0-1.4-.8m-15.1 102q1.2 0 1.2 1.2-.8-.5-1.2-1.2"/><path fill="#e1e1f9" stroke="#e1e1f9" stroke-width=".5" d="m275.1 31.1.8-.5 1 .4q1.3 5 1.2 10a3 3 0 0 0-2.9 1.2q-.8.2-1.4.7-1 .6-1.6 1.4-.9 0-1.6.6t-1.3 1.4q-.9 0-1.5.7-1 .5-1.6 1.3-.9.1-1.6.7l-1.4 1.2q-.8.3-1.5.8-.8.5-1.5 1.2-.8.2-1.5.8-.8.5-1.5 1.3-.8 0-1.5.7l-1.6 1.2-1.3.8q-.9.4-1.5 1.3-1 0-1.6.7-.8.5-1.5 1.2-.8.2-1.5.8-24.9 16.4-49.4 33.3l-2 .7-5.8 4-.5 1q-2.1 0-3 2-1.2-.2-1.8.7c.6 1 1.6-.1 1.8-.8q2.1 0 3-2 1 .2 2-.4a58 58 0 0 1 7.1-4l.8-.7 1.4-.7q1.8-1.2 3.7-2l1.3-.8.7-.5q.8-.1 1.3-.7l1.8-1 1.3-.8.7-.5 1.2-.8 5-2.7.6-.5 1.4-.7 5-2.8.7-.5 1.3-.7 3-1.8.7-.2 1.3-.8 5-3 .7-.6q.9 0 1.4-.6l5-2.8.6-.6 1.3-.7 5-2.7.7-.6q.8-.1 1.3-.7l1.8-1 1.9-1.2q.8 0 1.3-.8l5-2.7.7-.6 1.3-.7 5-2.7.7-.5 1.4-.7a36 36 0 0 1 5-2.8l2.5-1.6c.4 5.6-.6 6.5 5.3 7.5a43 43 0 0 0-10.5 6.5q-.7.8-1.8 1.2l-1.2.8q-.7.8-1.8 1.2l-1.2.8q-.7.8-1.8 1.2l-1.2.8-1.8 1.2-1.2.8-3 2-1.8 1.2-1.2.8-1.8 1.2-1.2.8-3 2-1.8 1.2-1.2.8-3 2-1.8 1.2-1.2.8q-12.3 8.1-24.5 16.5-.8 0-1.5.7l-1.6 1.4q-.7.2-1.5.7t-1.3 1.4a3 3 0 0 0-1.6.6q-.8.4-1.5 1.3-.8 0-1.5.6l-2 1.1-1 .9q-1 .8-2 1.2l-1 .8q-1.5.7-2 2.4-.4-.3-1.2-.3a16 16 0 0 1-5.5 3.5q-1 .9-1 2.4a144 144 0 0 0-62.1 59.1q-.8.3-.8 1-1 .3-1.1 1.4-.7-.4-1.4-.4-3 1.4-5.6 3.4l-23.7 13.4q-1.2.6-2.2 1.7-2.6 1-4.8 2.3L67 214.4q-2.7 1.7-5.8 2.5 2-6 3-12.1l2.8-1.3L90.2 189c2.2-1.7 8.8-4.7 9.7-6.9a7 7 0 0 0 5.1-3c1 0 5.8-2 4.6-3-1.4 0-4 1.6-4.6 3a7 7 0 0 0-5.1 3q-1 0-2 .5l-9 5.3-6.4 4q-8.4 4.4-16.8 9.2h-.5a44 44 0 0 1 3.6-13.2q1.3 0 2.3-.7l1.2-.8L74 185l1.2-.8L77 183l1.2-.8L80 181l1.2-.8L83 179l1.2-.8 3-2 3-2 1.8-1.1 1.2-1 3-2 3-2 3-1.9q7.9-5.2 15.5-10.6.9-.2 1.5-.7.8-.6 1.4-1.3l1.5-.6 1.6-1.3 1.5-.8 1.6-1.3q.8 0 1.4-.7.8-.5 1.5-1.3.7-.2 1.5-.7l1.6-1.2 1.5-.8 1.4-1.2 1.5-.7 1.6-1.3q.8-.2 1.4-.8l2-1 1-.9q.8-.8 1.9-1.2l4.8-3.7 1-.2c1.7-1.1 4-2.2 5-4a2 2 0 0 0 2-1c.6-.3 4.1-1.1 2.5-2.1a3 3 0 0 0-2.4 2.2q-1.5-.4-2 .9-3 .5-5 2.8l-1.4.3-2.7 1.6a32 32 0 0 1-5.3 3q-1.7 1.5-3.8 2.2l-1.3.8-.6.5q-.8.3-1.3.7l-5 2.8-.7.5q-.8.2-1.3.7l-3.7 2-1.3.8-6 3.4-1 1a35 35 0 0 0-5 2.6l-.7.6-1.4.6-4.9 2.9-.7.5q-.8 0-1.3.6l-5 2.9-.8.5q-.7.2-1.3.7l-4.8 2.8-5.1 3q-.4.1-.7.4l-1.3.7-7 4a11 11 0 0 0-4.5 3.3c-1-3.3-5.4-4.7-6.5-7.5l1.4-.5 1.2-.9 3-2 3-2L75 165l1.2-.8a138 138 0 0 1 9-6l3-2A341 341 0 0 1 102 147l1.2-.8 1.8-1.2 1.2-.8 3-2 3-2 1.8-1.2 1.2-.8 3-2 1.8-1.2 1.2-.8 1.8-1.1 1.2-1 3-2 3-2 3-2 1.8-1 1.2-1 1.8-1 1.2-1 1.8-1 1.2-1 1.8-1.2 1.2-.7 2-1.5q4-2.3 7.6-5c1.4-.6 4.7-2.3 5-3.8q1.2 0 2.3-.3 2-1.7-.6-1.3-1 .5-1.7 1.6a9 9 0 0 0-5.2 3q-4.6 1.9-8.8 4.7a13 13 0 0 1-4 2.3l-1.3.7-.8.5-1.2.7-4.8 3q-.4 0-.8.3-.8.2-1.3.7l-5 3-.8.3-1.2.8-3 1.7-.9.3-1.1.9-5 2.8-.7.6q-.8.2-1.3.7a34 34 0 0 0-5.6 3.2q-.8.2-1.3.7a139 139 0 0 0-10.1 5.8l-.6.5a55 55 0 0 0-6.4 3.5l-.7.6q-.8 0-1.3.7l-3.7 2-1.3.7-5 3q-.4 0-.7.3l-1.3.7-5 3-.7.5q-.8.3-1.3.7a39 39 0 0 0-5 3l-.7.4-1.3.6-1.8 1-1.3.8-.8.7c-1.7-1.2-8.6-4.6-8.6-6.7q2 .3 2.8-1.7.4-.2.7-.6-.7-.3-.7.6-2 0-2.8 1.7c-2.8 0-7.4-6.7-7.6-9.5q1.2-.2 2.1-1 5.2-5.7 10.2-11.5c-.8-.9-1.3.5-1.7 1a127 127 0 0 0-10.2 5.6c3.4-8.5 8.7-26.4 20.3-25.5l-3 4q-.5.6.2 1.1c1.5 0 6.1-3.3 7.5-4.2a101 101 0 0 1 11.2 4.4c-2.2 2.3-12 12.4-13 14.6q-.9.3-1.1 1.3-.6 0-.6.7l.6-.7q.9 0 1.8-.3c6.2-4.3 13.8-7 19.2-12.1 5.7 3.2 7.7 3.3 13.9 1.1v1l-1.3 1.2-5.4 4.7q.7.6 1.7.2a30 30 0 0 1 5.1-3.2l.9-.8q.8-.2 1.3-.8l3-1.6.7-.3 1.3-.8.7-.6 1.4-.6 4.9-2.8 5-3 .9-.5 1-.8a39 39 0 0 0 5.1-2.7l.7-.5q.7-.2 1.3-.8l5-2.7.8-.5 1.2-.8 3.9-2q.7-.3 1-1l.7-.2 1.4-.8 3-1.7.8-.4 1.2-.9 5-2.7.6-.6q.8-.1 1.3-.6l5.1-2.8.7-.5 1.3-.7 3-1.8.7-.2 1.3-.8 5-3 .7-.6 1.3-.6 5-2.8.7-.5q.6-.2 1.3-.8l5-2.7.8-.5q.8-.2 1.2-.8l3-1.7.7-.2 1.3-.8 5-3 .8-.5 1.1-.7 3.9-2 1.2-.8.8-.5 1.2-.7 5-2.8.6-.6q.8-.2 1.4-.6l1.8-1 1.3-.8.7-.5q.7 0 1.3-.7l3.7-2 1.2-.8.7-.6q.8-.2 1.4-.6l5-2.8.6-.5q.8-.2 1.4-.8l4.9-2.7 5-3 .7-.6 1.3-.6 5-2.8.7-.5 1.2-.8 5.1-2.7.8-.5q.6-.2 1.2-.8l5-2.8.8-.5 1.2-.7 3-1.7.8-.6q.8 0 1.1-.7a39 39 0 0 0 5.1-2.7l.8-.5q.6-.2 1-.7Z"/><path fill="#e0e0fa" fill-opacity=".2" d="m255.4 62.3-1.3.8q.1-1 1.3-.8M250.9 78q-.1 1-1.2.8zm126 3.2q.7-2 2.7-2.2c1.4 1.2-1.8 2.2-2.6 2.2M248 80q0 1-1.2.8zm-59.6 1.4-1.2.8q0-1.2 1.2-.8M158 96q-.2 1-1.3.8zm65.4 4.4-1.2.8q.2-1 1.2-.8m-78 18-1.2.7q0-1.2 1.2-.7m-3 2-1.2.8q0-1 1.2-.8m-3 2-1.2.8q0-1 1.2-.8m-3 2-1.2.8q0-1 1.2-.8M138 140q0 1.2-1.2.8zm-41 4q0 1-1.2.8zm228 68 .1 1.4q-.7 1-1.8 1.7l-.2-1q.5-1.5 2-2m56.4 144.4-1.2.8q.2-1 1.2-.8"/><path fill="#505058" fill-opacity=".1" d="M151.5 54q-.2 1.4 1.1 1.8c1.2-.3-3.6 1.8-3.3 1.9h-1.1q1.4-2 3.3-3.7M347 127q.6 0 1-.3v1.5zm51.7 6 1.4.1v.7q-1 .2-1.4-.9m-207 71.3 1.3-.6.3 1.2-1.6-.2zM214 240l1-.3v1.3l-1.2-.3zM63.6 278.3l1.3-.5.4 1.2-1.6-.4zm351.1 13 1.2-.7.4 1.4q-.9 0-1.7-.3zm-155 38 1.2-.6.2 1.4-1.4-.4zM175 405l1.3.2v.5l-1.3.6z"/><path fill="#414145" fill-opacity=".1" stroke="#414145" stroke-opacity=".1" stroke-width=".5" d="M272.8 497.2c0 4.1-2.2 4-5.6 3.7q0-.6.5-1 1 .2 1.2-.7l.9-.6q1 .3 1.1-.7z"/><path fill="#353537" fill-opacity=".4" d="M253.9 10.2q-.6 1-1.9 1.4a8 8 0 0 0-3.8-.7c.5-1.6 4.4-.8 5.7-.7M429.8 126q0 .9-1 1 .4-.7 1-1"/><path fill="#3d3d41" fill-opacity=".5" d="M111.9 221.2q.4 1.6-.8 2.6l-.4-2z"/><path fill="#515156" fill-opacity=".6" d="M321.8 58.3c.8-.1 2.4-.3 2.4.8q-1.3 0-2.4-.8"/><path fill="#47474c" fill-opacity=".5" d="M196.8 63.2q-.6 1-1.8.6.8-.7 1.8-.6"/><path fill="#57575e" fill-opacity=".4" stroke="#57575e" stroke-opacity=".4" stroke-width=".5" d="M401.7 285.8q.6 1.2-.5 2-.2-1 .5-2Z"/><path fill="#48484c" fill-opacity=".5" d="M17.8 285q.8.2 1.5.8-1 0-1.5-.8"/><path fill="#53535a" fill-opacity=".6" d="M324.2 67.4q.7 0 .8.6l-1.2-.3z"/><path fill="#2b2b2b" fill-opacity=".4" d="m385 75.1-.8 1.1q-.1-1 .8-1"/><path fill="#272727" fill-opacity=".1" stroke="#272727" stroke-opacity=".1" stroke-width=".5" d="m384.2 76.2-1 1q-.2-1.1 1-1Z"/><path fill="#535356" fill-opacity=".4" d="M52.3 114.2q-.4.8-1.3 1.1 0-1.2 1.3-1"/><path fill="#39393e" fill-opacity=".4" d="M60.8 219q0 .7-.8 1 .2-.7.8-1"/><path fill="#4c4c50" fill-opacity=".7" d="M381.9 337q-.2.8-.7 1.2.1-.6.7-1.1"/><path fill="#49494f" fill-opacity=".9" d="M211.8 352.6q.8-.5.9.3z"/><path fill="#262626" fill-opacity=".4" d="m41.7 357 .6.7-1.3.2q0-.6.7-1"/><path fill="#59595f" fill-opacity=".3" d="M288.1 356.8q0 1.2-1.4 1 .5-.8 1.4-1"/><path fill="#505056" fill-opacity=".5" d="M348.3 37.1a2 2 0 0 1-1.3 1q0-1 1.3-1"/><path fill="#2d2d2d" fill-opacity=".4" d="M351 372.7q0 1-1.1 1.1z"/><path fill="#57575e" fill-opacity=".8" d="M240 6.3q-.6.5-1.2.2.5-.3 1.1-.2"/><path fill="none" d="M127 180q-.3.8-1 1.4 0-1.2 1-1.3"/><path fill="#54545a" fill-opacity=".5" d="M127.9 179q-.2.8-.8 1 0-.7.8-1"/><path fill="#29292a" fill-opacity=".2" d="m131.7 426 1.3-.3.4 1.4q-1.3.2-2.4.6.1-1 .7-1.7"/></svg>