<svg xmlns="http://www.w3.org/2000/svg" style="shape-rendering:geometricPrecision;text-rendering:geometricPrecision;image-rendering:optimizeQuality;fill-rule:evenodd;clip-rule:evenodd" viewBox="0 0 512 512"><path fill="#afa69c" fill-opacity=".9" d="M197.4 47c-.4 1-3 1.7-4 2.2q-2 .1-3.7-.6 3.7-1.5 7.7-1.7m-13.5 291.2v.7h-1l-.8.2q.6-1 1.8-1m-1.8.9-.4.9-.7.1h-1.1q.7-1.3 2.2-1m-2.2 1-.1.9q-.8.6-2 .7-.6.3-1 1-2 .5-4 0c1.7-.8 5.1-2.5 7-2.6"/><path fill="#bbb0a5" fill-opacity=".9" d="m157 491.2-.3.8q-1.5 1.2-3.2 2l-2.7.8a2 2 0 0 0-1.1.9q-2 .9-4.1 0 5.5-2.6 11.4-4.5"/><path fill="#c3b8ac" fill-opacity=".8" d="m198.3 196-1.6 1-1 .8c-1.8 1.9-5.5 1.6-7-.7q5-.3 9.6-1"/><path fill="#dbd1c4" fill-opacity=".4" d="m324 41.3-.1.7-1 .2q0-1 1.2-1M172.5 113q-.6-.8-1.4-1.4 1.5-1 3.4-1.5c.7.9-1.9 1.7-2 2.8m273.4 57q.4.6.3 1.4-.6.6-1 0 0-.9.7-1.4m-332.6 71.8q.5 0 .8-.2-.1.8-.6 1.4zm215 145.9q0 .6-.6.8-.2-.6.6-.8M433.9 412a5 5 0 0 1 1.8-2q2.4-.1.4 1.2z"/><path fill="#c9c0b5" fill-opacity=".9" d="m430 267.2-.2.8q-.9.6-1.9.8-.7.3-1.2 1l-.8.1q-.9.3-1.1 1.1l-1-.2q-1.2-.2-2.5 0l-1.5-.2q4.5-1.6 8.9-3.4z"/><path fill="#b2a89e" fill-opacity=".8" d="m127.1 311.4 1.7-.2q.5.9 1.5.8l1 .3c-1.3 1-7.6 1.4-9.5 1.5 1.2-.5 2.8-2 4-1.9q.9.3 1.3-.5"/><path fill="#dbd1c4" fill-opacity=".3" d="M309 34.1q-.7 1.4-2 2.1v-1.4q.6-1.2 2-.7m-165.1 13c.4-.7 2-3 3-1.8a3 3 0 0 1-3 1.8m265.8 200c.6-.7 2.2-2.8 3.2-1.8a4 4 0 0 1-3.1 1.8m-279.6 21-.1 1-1.1.1q.2-1 1.2-1m169.7 115.2q0-.8.6-1c1 .4-.3.9-.6 1"/><path fill="#b2aaa1" fill-opacity=".9" d="M176 415.2v.6l-.7.3H174q.7-1 2-.9m-2 .9-.3 1c-1.4.2-2.3 2-3.7 1.6q-1.6-.2-3.3.5l-1-.6q4.2-1.5 8.3-2.5"/><path fill="#dcd2c4" fill-opacity=".3" d="M350 26c.4-.7 1.2-2.3 2.2-1.5q-.4 1.8-2.2 1.4M214.2 237.8c-.3.8-2.2 3.2-2.9 1.9a3 3 0 0 1 2.9-1.9M171.3 389l-.3-1.2c.8-.7 4-3.7 4.8-2.3q-2.1 1.8-4.5 3.5m-4.6 30.3q1.6-.6 3.3-.5c.4 1.7-2.5 1.9-3.3.5"/><path fill="#d1c5b8" fill-opacity=".4" d="m93.3 98-.3 1-.8.1q0-1 1.1-1M211 165.3a3 3 0 0 1 2.7-2.3c1.2 1.2-2 2-2.7 2.3M64.7 270q.5 1 1.6 1l-.2.9-3.5 1c-.9-.8 1.7-2.4 2.1-3m62.4 41.4q-.3.9-1.3.5.4-.8 1.3-.5"/><path fill="#dbd1c4" fill-opacity=".6" d="m220.1 90.3-5.4-.2c0-1.5 5.6-2 5.4.2M381.7 276l6.3-.2c.5 2-4.6.9-5.5 1a1 1 0 0 1-.8-.8"/><path fill="#d9cfc3" fill-opacity=".7" d="M260 44.7q3.6.3 7.4.3c-1.2 2-6.9 3.2-7.5-.3"/><path fill="#e4dccc" fill-opacity=".4" d="M264.3 262.6c.4-.8 4-4.5 4.7-3.2.2 1.5-3.6 3.5-4.8 3.2M247 295.1q-.8 1-1.9 1.8l-.2-1.1q.8-1.2 2.1-.7"/><path fill="#d1c5b8" fill-opacity=".6" d="M191.1 158.3q-3 .2-6.2-.3c0-1.5 6.7-1.8 6.2.3M106.7 505l1.2-.3 3.1.4c.2 1.6-4 1.4-4.3-.1"/><path fill="#beb4a8" fill-opacity=".8" d="M218.9 453.6q.5 2.6-2 3.2l-1.3 1.1q-1 .8-2.4 1 0-.8.8-1.4 2.5-1.8 4.9-3.9"/><path fill="#747069" fill-opacity=".1" d="M264.6 136q-.3 1.5 1.2 1.8-2.1 1.4-4.6 2.1 1.3-2.2 3.4-4m-94.8 252.3 1.2-.6.3 1.2-1.6-.2z"/><path fill="#cec4b8" fill-opacity=".8" d="M85.4 389q-3.5.1-6.7-1 0-.5.7-.7 3.6-1.3 6 1.7"/><path fill="#dbd1c4" fill-opacity=".5" d="m72.8 167.1.2 1.3q-.9 1.2-2.4 1.3c-.5-.7 1.7-2.2 2.2-2.6m69.1 89q0-.6.7-.4-.2.3-.7.5m220.8 4q.3-.6.8-.5a1 1 0 0 1-.8.5M142 389.1q.6 0 1-.4l-.6 1.6zm-6.8 8.8c-.2.8-1.4 1.7-2 .8a2 2 0 0 1 2-.8"/><path fill="#e5dbcd" fill-opacity=".5" d="m272 85.6-.1 1.2h-1.1q.4-.8 1.2-1.2m5.1 45.2-.2 1.2-1-.3q.3-.9 1.2-1m-8.9 65a3 3 0 0 1 2.4-1.9c1.6 1.2-1.6 2-2.4 2M245.1 268q.6-1.5 2.3-1.9c.9 1-1.8 1.7-2.3 1.9"/><path fill="#dbd1c4" fill-opacity=".5" d="M214.1 115.2v-1.5q1-1.5 2.6-1.3-1.5 1.3-2.6 2.8M57.1 412l-.1-1.3 1.5-1.2c.9.5-1 2-1.3 2.5"/><path fill="#dbd1c4" fill-opacity=".4" d="m284.2 36.9-.2-1.2c.5-.6 1.9-2.1 2.6-1.2q-.7 1.6-2.4 2.4M54.3 220c.5-.5 1.9-1.6 2.3-.5-.2 1.2-2 1.8-2.3.5M174 416.1h1.3a2 2 0 0 1-1.6 1z"/><path fill="#e3d9cb" fill-opacity=".4" d="M240 99.9q-.3.8-1 1 0-.8 1-1m-.8 109c0-1.7 2.5-3 3.6-2.6q-1 2.5-3.6 2.5m33.9 77.4-.8.7q0-.9.8-.7"/><path fill="#d1c4b8" fill-opacity=".4" d="M411.2 155.9q-.3.7-1 .4.4-.4 1-.4m-211.3 26.3q0-.6.4-.9.3.6-.4.9m-2.7 124.7q-.9 1.9-2.7 2.2c-1-1.3 2-1.8 2.7-2.2m-68.4 4.3q.9 0 1.5.8-1 0-1.6-.8m283 178q.1-.9.8-.5a1 1 0 0 1-.9.4"/><path fill="#bfb8ac" fill-opacity=".2" d="M138.6 394q-.3 1.5 1 1.6-2 1.5-4.5 2.3 1.2-2.5 3.5-4"/><path fill="#c8beb3" fill-opacity=".1" d="M269.6 286q0 1.7 1.6 1.6l-3.9 2.1q-.6.4-1.2 0a17 17 0 0 1 3.5-3.7"/><path fill="#d1c4b8" fill-opacity=".5" d="M102.2 324.9c-.5.2-1.3 2-2 1.5q.6-1.3 2-1.5M180 340h1q-.1.9-1.1.9zm-28 126.1q.4-2.2 2.7-2.2c1.3 1.2-2.2 1.5-2.7 2.2"/><path fill="#d2c5b8" fill-opacity=".3" d="m157 491.2 1-.4q0 1.2-1.3 1.2 0-.4.3-.8m268.9 4.8c-.2 1-2 3-2.9 1.6a3 3 0 0 1 2.9-1.6M77.1 507.3l2 .1c-.4.7-2 1-2 0"/><path fill="#ded4c7" fill-opacity=".7" d="M276.9 124q.3 3 .2 6.2c-2.2.3-.1-4.5-2-4q.5-1.5 1.8-2.3"/><path fill="#e5dbcd" fill-opacity=".3" d="M249.9 246.3q0-.7.4-1 .2.7-.4 1m13.9-1.5v1.5c-.4.6-1.6 2-2.4 1.2a10 10 0 0 1 2.4-2.7m8 38.9q0 1-1 1z"/><path fill="#d1c5b8" fill-opacity=".7" d="m288.1 275 1.1-.2q-.3.8-1.1 1.5zm152.2 191-6.3.2q0-1.3 1.4-1.3c1.2.3 4.6-.6 4.9 1.1"/><path fill="#77716b" d="M185 158q3 .5 6.1.3c-2.1 1.1-5 .6-7.3.2z"/><path fill="#aea59b" d="M90.2 308.2H92l.8-.1 1 1.2q.2.7 1 .9l.2.9c-1-.4-4.8-1.9-4.8-2.9"/><path fill="#aea299" fill-opacity=".1" d="M386.9 181.1a7 7 0 0 1-2.6 2.9q-.1-1.2-1.4-1.5 1.8-1.4 4-1.4"/><path fill="#b7afa3" fill-opacity=".2" d="M139.6 245q-.2 1.6 1.5 1.5a7 7 0 0 1-4 1.4 8 8 0 0 1 2.5-3"/><path fill="#b5ada4" fill-opacity=".1" d="M431.5 253q0-1.5-1.6-1.4 1.7-1.2 3.6-1.7c1 1-1.5 2.3-2 3.1"/><path fill="#8b857e" fill-opacity=".7" d="M306.7 217.2h2.2v.8q-1.4 0-2.2-.8m2.1.8 1.1.2q1 0 1.1 1-1.3-.1-2.2-1.2M172 272.2l.1.8h-2q.5-1.2 2-.8"/><path fill="#d1c6b8" fill-opacity=".4" d="M390 179q0-.7.6-.6zm-220.9 9q0-.9.6-.6-.2.5-.6.6m209 140.8.2 1.4q-.5.8-1.2.2 0-1.1 1-1.6M40.7 484q.3-.7.9-.5a1 1 0 0 1-.9.5m71.4 19.9 1.2-.2q-.3 1.1-1.5 1.2z"/><path fill="#d1c6b8" fill-opacity=".6" d="M327.3 158q-2.8.3-5.6 0 1-1.3 2.8-1c.9 0 2.7-.2 2.8 1"/><path fill="#d1c5b8" fill-opacity=".9" d="M75.8 506.1q2.8-.4 5.5-.1-.7 1.2-2.1 1.4-1-.2-2.1 0l-1-.4z"/><path fill="#dbd1c4" fill-opacity=".5" d="m215.7 101.1.3 1.2c-.3.6-2 2.1-2.5 1.2q.9-1.4 2.2-2.4"/><path fill="#cabeb2" fill-opacity=".7" d="M131.8 352.1q1.2 0 2.4-.4 1.5 0 2.9.4c0 1.2-3 .7-3.7.9q-1.2 0-1.6-.9"/><path fill="#635f5a" fill-opacity=".9" d="M139.4 351q-1 1.2-2.3 1.1-1.5-.4-3-.4c1.4-1.1 3.6-.8 5.3-.7"/><path fill="#aba39a" d="m134 427-.3 1-.8-.2-3.2.3-.8-.5a11 11 0 0 1 5.2-.6"/><path fill="#dbd1c4" fill-opacity=".4" d="M314.8 20q0-.6.8-1c1 .5-.5 1-.8 1m54.3 69.8c-.4.8-2 3-2.9 1.9a3 3 0 0 1 2.9-2M54.9 205a3 3 0 0 1 2.6-2c.6 1.3-1.7 1.6-2.6 2m264.8 28.2c0 .9-1-.5 0 0m106.2 36.6q0 1-1.1 1.1.3-.8 1.1-1M129.8 428.1q1.5-.3 3.1-.3c.3 1.9-2.8 1.6-3.1.3"/><path fill="#d1c4b7" fill-opacity=".3" d="M390 179a5 5 0 0 1-3.2 2.1 3 3 0 0 1 3.2-2M63.7 464.3q1.1-.2 1.3 1l-.8-.3z"/><path fill="#9c948b" fill-opacity=".9" d="m298 153.3 2-.2h.7l.2 1q-1.7.1-3-.8m3 .9h1q.6 0 1 .7-1.2 0-2-.7"/><path fill="#d1c5b8" fill-opacity=".4" d="m300 153.1-2 .2-1.4-.3c.5-1.3 3.4-1.7 3.4.1m157.2 103.7q0 .6-.5.8-.3-.6.5-.8m-235.1 5-.2 1.2-.6.2q0-1 .8-1.5"/><path fill="#d1c6b7" fill-opacity=".5" d="m111.8 179.8-.1 1-1 .1q.4-.8 1-1.1m49 297.4q.9-1.8 2.7-2.3c1.6 1-2.2 1.9-2.6 2.3"/><path fill="#c7bcb0" d="m60 463.1 2-.1.8.3.9 1 .5.7c-1.4 0-3.7-.5-4.3-1.9"/><path fill="#dcd1c5" fill-opacity=".2" d="M131.8 90.1q0-.5.5-.8.3.7-.5.8m177 127.1q1.1 0 1.1 1l-1-.2zm71 179.9q0-.8.9-1c1 .5-.7.9-1 1m-28 15q0-.7.8-.9c.8.6-.3.9-.7 1"/><path fill="#858079" fill-opacity=".6" d="M206.7 130c1.4.1 3.5-.4 4.6.6-1.4.4-3.9 1.1-4.6-.6"/><path fill="#d3c9bc" fill-opacity=".6" d="M321.3 127.9c-.2 1.7-3.5 1.1-4.6.6q2.2-.9 4.6-.6"/><path fill="#dcd1c5" fill-opacity=".4" stroke="#dcd1c5" stroke-opacity=".4" stroke-width=".5" d="M93 429.7h4.3c0 1.6-4.3 2.2-4.4 0Z"/><path fill="#958f87" fill-opacity=".9" d="M426 429.2v.6q-2.2.6-4.3 0 2-1.3 4.3-.6"/><path fill="#a9a299" fill-opacity=".6" stroke="#a9a299" stroke-opacity=".6" stroke-width=".5" d="m356.9 118.2-.2.9-1-.4q.5-.5 1.2-.5Zm-1.3.5c1 1.8-2 1.1-2.8 1q1.3-.8 2.8-1Z"/><path fill="#dbd1c4" fill-opacity=".5" d="M309 34.1q1-1.2 0 0m-90 63.1 1.1-.5q-.2 1-1 1zm258.9 240q-.7 1.3-1.8.3.7-1 1.8-.3"/><path fill="#9d968e" fill-opacity=".9" d="M283.2 46.3q2-.6 4 0c-.7 1-3 .5-4 .6z"/><path fill="#9b9289" fill-opacity=".9" d="M146.1 198.2q2.1-.5 4.2.4-2 1-4.1.3z"/><path fill="#d1c9be" fill-opacity=".4" stroke="#d1c9be" stroke-opacity=".4" stroke-width=".5" d="m356 274.8 4.3.3c-.2 1.2-4.3 1.7-4.3-.3Z"/><path fill="#b1a99f" fill-opacity=".3" stroke="#b1a99f" stroke-opacity=".3" stroke-width=".5" d="M257.2 5h-4.5c.6-1.7 4.2-1.4 4.5 0Z"/><path fill="#8d7571" fill-opacity=".2" stroke="#8d7571" stroke-opacity=".2" stroke-width=".5" d="M336.9 89.2A4 4 0 0 1 335 91q0-1-1-1.4 1.4-.9 2.9-.4Z"/><path fill="#d1c2ba" fill-opacity=".1" d="m455.9 503.8 1.2-.2 1.5.1c1 1.6-2.2 2.4-2.7 0"/><path fill="#cbbeb3" fill-opacity=".3" d="M88.6 307.3c.8-.2 4-.9 3.3 1h-1.7q-1-.3-1.6-1"/><path fill="#918b83" fill-opacity=".1" d="M160.4 94.3q.3 1 1.3 1.3-1 .6-2 .7 0-1.1.6-2"/><path fill="#5e5b56" fill-opacity=".6" d="M198.3 6.3q-1.5 1-3.5.7c.2-1.5 2.6-1 3.5-.7"/><path fill="#d0c5b7" fill-opacity=".4" d="m471.2 293.9-.3 1q-.6 0-1-.2.3-.8 1.3-.8m-362.4 38.4q0-.6.6-.9 0 .6-.6.9m361 150q0-.6.5-.8.3.6-.5.7"/><path fill="#dbd4c0" fill-opacity=".3" d="M470 326q0 1 1 1a3 3 0 0 1-2 .9 2 2 0 0 1 1-2"/><path fill="#b3aca2" fill-opacity=".3" stroke="#b3aca2" stroke-opacity=".3" stroke-width=".5" d="m151.2 14.4-2.2 1-1-.2c-.4-1.8 2.3-1.2 3.2-.8Z"/><path fill="#8a837b" fill-opacity=".9" d="M132 196.2q1.8-.5 3.2.4a7 7 0 0 1-3 .3z"/><path fill="#c9c0b4" fill-opacity=".3" stroke="#c9c0b4" stroke-opacity=".3" stroke-width=".5" d="m338 271.8.8-.1 2.3.5c-.5 1.3-3.1 1.4-3.2-.4Z"/><path fill="#b2aaa0" fill-opacity=".8" d="M196.8 87.4q1.5-.6 3-.1v.7q-1.5.2-3-.6"/><path fill="#7e7871" fill-opacity=".9" d="M417.8 351.2v.8H415q1-1.4 2.8-.8"/><path fill="#d1c6b8" fill-opacity=".3" stroke="#d1c6b8" stroke-opacity=".3" stroke-width=".5" d="M359.3 158h-3.6c.7-1.5 3.2-1.5 3.6 0Z"/><path fill="#968e85" fill-opacity=".7" d="M100 352q1.8-.2 3.3.7-1.6.4-3.3 0z"/><path fill="#cfc4b8" fill-opacity=".1" d="M165.3 200h2.5q0 1.3-1.3 1-1.4.3-1.2-1"/><path fill="#d1c5b8" fill-opacity=".9" d="M164 199.2a16 16 0 0 1 5.4-.2q-.7.7-1.6 1h-2.5l-1.4-.1z"/><path fill="#dcd0c5" fill-opacity=".2" d="M426.7 388h-2.4q0-1.2 1.2-1 1.4-.2 1.2 1"/><path fill="#dbd1c4" fill-opacity=".9" d="m423 388.3 1.3-.3h2.4l1.3.2v.7q-2.5.8-5 0z"/><path fill="#cec4b9" fill-opacity=".6" stroke="#cec4b9" stroke-opacity=".6" stroke-width=".5" d="m73.7 427.8 3.4.5v.5c-1 .2-3.3.5-3.4-1Z"/><path fill="#a49d94" fill-opacity=".2" stroke="#a49d94" stroke-opacity=".2" stroke-width=".5" d="M236 5h-3c0-1.6 3-1.6 3 0Z"/><path fill="#c9c0b4" fill-opacity=".9" d="M454.3 424.8q-1.9.3-3.6-.2c.9-.6 3.2-1.3 3.6.2"/><path fill="#7b7670" fill-opacity=".5" d="M392.3 235h-3.6c.5-1.6 3-1.3 3.6 0"/><path fill="#dcd0c4" fill-opacity=".3" d="m350 239.1 1.1-.2q-.2 1-1.4 1zM469 328q0 .4-.5.6-.2-.4.4-.6m-335 99h1.3q-.5 1-1.6 1z"/><path fill="#d4cabe" fill-opacity=".3" stroke="#d4cabe" stroke-opacity=".3" stroke-width=".5" d="m104.3 389-3.7.2c.6-1.6 3.5-1.8 3.7-.2Z"/><path fill="#a29c93" d="m166.9 52.1-.2.7h-2.5q1-1.1 2.7-.7"/><path fill="#dbd1c4" fill-opacity=".6" d="m166.9 52.1 1.4-.2q-.7.9-1.6.9zm-4 1 1.3-.3h2.5c.8 1.7-3.2 1.1-4 1z"/><path fill="#d2c6b9" fill-opacity=".3" d="M92.8 308q1.2 0 1 1.3zm89.3 31.1.9-.2q-.1 1-1.3 1.1zM75 505.8l.8.3.3.9q-1-.2-1.1-1.2"/><path fill="#706a68" fill-opacity=".5" d="M179.2 413.8q-.6 1.5-2.2 1 .9-1 2.2-1"/><path fill="#c3b6ac" fill-opacity=".2" stroke="#c3b6ac" stroke-opacity=".2" stroke-width=".5" d="M38.8 404.5q1.5-.8 2.5.2l-1 .5z"/><path fill="#cfc6ba" fill-opacity=".4" stroke="#cfc6ba" stroke-opacity=".4" stroke-width=".5" d="m281 45.7 2.1.6v.6q-1.8.6-2.2-1.2Z"/><path fill="#e5dbcd" fill-opacity=".3" d="m265.4 244.7.9.6q-.6.5-1.3.7zm4.4 134.3q0-.7.8-1c1 .7-.5 1-.8 1"/><path fill="#dbcfc3" fill-opacity=".3" stroke="#dbcfc3" stroke-opacity=".3" stroke-width=".5" d="m142 242.2 1-.5q0 1.3-1.3 1.3zm277 22.9-.1.6-.9.6q0-1 1-1.3Z"/><path fill="#64615c" fill-opacity=".7" d="M360 116.8q-.2 1.5-1.8 1 .6-1 1.9-1"/><path fill="#d0c6b7" fill-opacity=".3" d="M300.7 153q1.2 0 1.3 1.2h-1zm-238 310.3q1.3-.2 1 1z"/><path fill="#706b64" fill-opacity=".4" stroke="#706b64" stroke-opacity=".4" stroke-width=".5" d="M247.7 426q0 1-1 .8zm-1 .8q.2 1-1 1z"/><path fill="#8e8881" fill-opacity=".9" d="m147.2 14.8.9.4.9.2q-.9.7-1.9.5z"/><path fill="#d2c5b8" fill-opacity=".1" stroke="#d2c5b8" stroke-opacity=".1" stroke-width=".5" d="m405 505.7 2.2.2c-.2 1.4-2.2 1.7-2.2-.2Z"/><path fill="#75706b" fill-opacity=".8" d="M321.2 267.2q1.2-.2 1.8.8l-1.9-.1z"/><path fill="#827b76" fill-opacity=".2" stroke="#827b76" stroke-opacity=".2" stroke-width=".5" d="M333.3 379.4q.9-.4 1.8-.2-1 .7-2.1.7 0-.3.3-.5Z"/><path fill="#dccfc2" fill-opacity=".2" d="M374.1 63h.9q-.3 1-1.3 1zm-237 185q-1.3 1 0 0"/><path fill="#c5bbaf" fill-opacity=".4" stroke="#c5bbaf" stroke-opacity=".4" stroke-width=".5" d="M398.7 430h2.6q-1.3 1.7-2.6 0Z"/><path fill="#d1c5b8" fill-opacity=".5" stroke="#d1c5b8" stroke-opacity=".5" stroke-width=".5" d="m208.2 155-.3.7q-.6 0-1.2.4.4-1 1.5-1.2Zm8.9 241.7-.5 1.3h-.4q0-1 .9-1.3Z"/><path fill="#8b847c" fill-opacity=".6" d="M211 459.7q-.1 1.2-1.3.9l1.2-.9m-1.3.9q.2 1.2-1 1.3z"/><path fill="#cec5b5" fill-opacity=".1" d="m62 463-2 .1c0-1.6 2.2-1.4 2-.1"/><path fill="#746f6a" fill-opacity=".9" d="M336.8 271.5q1-.6 2 .2h-.9q-.6 0-1.1-.2"/><path fill="#dbd1c2" fill-opacity=".2" stroke="#dbd1c2" stroke-opacity=".2" stroke-width=".5" d="M199.8 87.3q1.1-.2 1.3 1l-1.3-.3zM317.3 120l-.4 1-1 .2q.2-1.2 1.4-1.2Z"/><path fill="#928983" fill-opacity=".5" stroke="#928983" stroke-opacity=".5" stroke-width=".5" d="M160.1 489.7q-.4 1.7-2.1 1a3 3 0 0 1 2.1-1Z"/><path fill="#d3c4ba" fill-opacity=".2" d="M177.9 341.7q0 1.1-1 1 .3-.7 1-1m39 115.1q-.1 1-1.3 1.1.6-.7 1.2-1"/><path fill="#7c7772" fill-opacity=".8" d="M221.2 339.1h.7q-.3.6-1 1zm-1 1.1.8-.1q-.2.7-.7 1.2z"/><path fill="#8d867e" d="M93.3 98h.7q-.3.9-1 1zm-1.1 1.1.8-.1q-.3.7-1 1z"/><path fill="#e4dccd" fill-opacity=".4" d="M242.2 98q-.2-.7.5-.6-.2.5-.5.6m30.7 184.9q-.2.8-1 .8z"/><path fill="#bdb5a9" fill-opacity=".4" stroke="#bdb5a9" stroke-opacity=".4" stroke-width=".5" d="M95.3 97.2q-.5.8-1.3.9h-.7c-.5-1.4 1.2-1 2-.9Z"/><path fill="#716b65" fill-opacity=".7" d="M36.6 497.8q1.5 0 2.5 1.2-1.7.3-2.5-1.2"/><path fill="#d1c3b9" fill-opacity=".3" d="m460 316 .1 1.2q-.5 1-1.2.2 0-1 1-1.5"/><path fill="#736d69" fill-opacity=".8" d="M464.1 501.2c0 .8-1.3.7-2 .7 0-1 1.4-.8 2-.7"/><path fill="#d9d2c6" fill-opacity=".2" d="M216.9 247q0 1-1.1.5zm4.3 92.1-.2 1-.8.1q-.2-1.2 1-1"/><path fill="#79736e" fill-opacity=".7" d="M186.2 337.4a2 2 0 0 1-1.2.4 1 1 0 0 1 1.2-.4"/><path fill="#c5b9ae" fill-opacity=".6" stroke="#c5b9ae" stroke-opacity=".6" stroke-width=".5" d="m460.9 502.2 1.3-.3q-.4.8-1.3.8z"/><path fill="#d3c6b9" fill-opacity=".2" d="M93.7 309.3q1.2-.4 1.1.9-.8-.2-1-.9"/><path fill="#d2c6b6" fill-opacity=".2" d="m446 296.2 1-.2q-.3 1-1.2.9z"/><path fill="#a49a90" fill-opacity=".2" stroke="#a49a90" stroke-opacity=".2" stroke-width=".5" d="M409 312.2v.5l-1 .2q0-.7 1-.7Z"/><path fill="#979188" fill-opacity=".3" stroke="#979188" stroke-opacity=".3" stroke-width=".5" d="M108.3 313.3q.6 0 .9.6H108z"/><path fill="#79716c" fill-opacity=".4" stroke="#79716c" stroke-opacity=".4" stroke-width=".5" d="M223.2 315.6q-.2 1.3-1.5 1.3.5-.9 1.5-1.3Z"/><path fill="#b1a59d" fill-opacity=".3" stroke="#b1a59d" stroke-opacity=".3" stroke-width=".5" d="m418 317.3 1.1-.5q-.2 1.2-1.4 1.3z"/><path fill="#979086" fill-opacity=".7" d="m221.3 263.2.6-.2q-.2.8-.6 1.4z"/><path fill="#e5dacb" fill-opacity=".3" d="M270.7 284.8q0 .9-1 1.2z"/><path fill="#d2c5b9" fill-opacity=".2" stroke="#d2c5b9" stroke-opacity=".2" stroke-width=".5" d="m379.3 188-.4.7-1 .5q.3-1 1.4-1.2Z"/><path fill="#aba49a" fill-opacity=".7" d="M223.2 337q-.3.8-1.2.8.2-.9 1.2-.9"/><path fill="#ccc1b5" fill-opacity=".2" stroke="#ccc1b5" stroke-opacity=".2" stroke-width=".5" d="m183.9 338.2 1.1-.4q0 1-1.1 1z"/><path fill="#d9cec2" fill-opacity=".7" stroke="#d9cec2" stroke-opacity=".7" stroke-width=".5" d="m222 337.8-.1 1.2-.7.1q0-.9.8-1.3Z"/><path fill="#bbafa3" fill-opacity=".4" stroke="#bbafa3" stroke-opacity=".4" stroke-width=".5" d="m358.7 340.4.3.5h-1.3q.3-.7 1-.5Z"/><path fill="#b2a99e" d="m289.2 274.8-1 .2q0-1.5 1-.2"/><path fill="#c6b9ac" fill-opacity=".2" stroke="#c6b9ac" stroke-opacity=".2" stroke-width=".5" d="m133.3 344-.4.8-1 .2q.4-1 1.4-1Z"/><path fill="#d2c9be" fill-opacity=".4" stroke="#d2c9be" stroke-opacity=".4" stroke-width=".5" d="m172 272.2 1.3-.3q-.3 1-1.3 1.1z"/><path fill="#d3c8b7" fill-opacity=".2" stroke="#d3c8b7" stroke-opacity=".2" stroke-width=".5" d="m92.2 99.1-.2.9-.9.2q0-1 1-1Z"/><path fill="#aaa29a" fill-opacity=".4" stroke="#aaa29a" stroke-opacity=".4" stroke-width=".5" d="M302.6 349.2q1 0 1.4 1-.8-.4-1.4-1Z"/><path fill="#88817a" d="M66.3 271h.5q0 .8-.7.9z"/><path fill="#857e77" fill-opacity=".3" stroke="#857e77" stroke-opacity=".3" stroke-width=".5" d="M66.4 269.8q.4.5.4 1.1l-.5.2z"/><path fill="#bbafa6" fill-opacity=".3" stroke="#bbafa6" stroke-opacity=".3" stroke-width=".5" d="m417.8 351.2 1.4-.5q-.2 1.2-1.4 1.3z"/><path fill="#b5ac9d" fill-opacity=".2" stroke="#b5ac9d" stroke-opacity=".2" stroke-width=".5" d="M99 352h1v.8q-1 .2-1-.8Z"/><path fill="#dbd2c5" fill-opacity=".2" d="M427.9 268.8q0 1-1.2 1 .4-.7 1.2-1"/><path fill="#dad2c3" fill-opacity=".5" d="m430 267.2 1.4-.4q-.4 1.2-1.6 1.2z"/><path fill="#e5dbcb" fill-opacity=".2" stroke="#e5dbcb" stroke-opacity=".2" stroke-width=".5" d="M237.3 375h.6a2 2 0 0 1-1.2 1.2z"/><path fill="#b2aaa2" fill-opacity=".4" stroke="#b2aaa2" stroke-opacity=".4" stroke-width=".5" d="m395 55.8-.2 1h-.6q0-.7.7-1Z"/><path fill="#989189" fill-opacity=".6" d="m162.9 53.1-.1.7-1.1-.2z"/><path fill="#dad2c3" fill-opacity=".3" stroke="#dad2c3" stroke-opacity=".3" stroke-width=".5" d="M423 388.3v.5l-1 .5q0-1 1-1Z"/><path fill="#d2ccbf" fill-opacity=".2" stroke="#d2ccbf" stroke-opacity=".2" stroke-width=".5" d="M428 388.2q.8 0 1 .8l-1-.1z"/><path fill="#bcb3a8" fill-opacity=".5" stroke="#bcb3a8" stroke-opacity=".5" stroke-width=".5" d="M240.1 390.2h1.1q-.4.6-1 1z"/><path fill="#c9bfb3" fill-opacity=".4" stroke="#c9bfb3" stroke-opacity=".4" stroke-width=".5" d="m356.9 118.2 1.3-.3q-.3 1-1.5 1.2z"/><path fill="#dbd2c5" fill-opacity=".6" d="m82 396.3 1.4-.3-1 1.1q0-.5-.4-.8"/><path fill="#968f85" fill-opacity=".7" d="M218 395.7q0 1-1 1 .3-.7 1-1"/><path fill="none" d="M161 46.2a1 1 0 0 1-1 .7q.2-.9 1-.7"/><path fill="#ddd0c3" fill-opacity=".1" stroke="#ddd0c3" stroke-opacity=".1" stroke-width=".5" d="m150 24.3 1-.5q0 1-1.3 1.1z"/><path fill="#e4dccc" fill-opacity=".4" d="m265 243.8.4 1h-1.6z"/><path fill="#cfc7bb" fill-opacity=".3" stroke="#cfc7bb" stroke-opacity=".3" stroke-width=".5" d="m176 415.2 1-.5q0 1-1 1z"/><path fill="#b5a9a0" fill-opacity=".5" stroke="#b5a9a0" stroke-opacity=".5" stroke-width=".5" d="M243 418.7q0 1-1 1 .1-.8 1-1Z"/><path fill="#908980" fill-opacity=".8" d="M195.8 420.9q0 .9-.7 1.3 0-.9.7-1.3"/><path fill="#e5dbcf" fill-opacity=".3" d="M237 144h1q-.4.8-1.2 1z"/><path fill="#91887e" fill-opacity=".3" stroke="#91887e" stroke-opacity=".3" stroke-width=".5" d="M248.9 424.6q0 1.2-1.2 1.4.3-1 1.2-1.4Z"/><path fill="#a0978f" fill-opacity=".5" stroke="#a0978f" stroke-opacity=".5" stroke-width=".5" d="M297.8 212.3q.9 0 1.2.8z"/><path fill="#8f8981" fill-opacity=".7" d="M77.1 428.3q.7 0 1 .3l-1 .2z"/><path fill="#7a746f" fill-opacity=".4" stroke="#7a746f" stroke-opacity=".4" stroke-width=".5" d="M145.2 16.2q-.4.9-1.3 1 .2-1 1.3-1Z"/><path fill="#9a9388" fill-opacity=".3" stroke="#9a9388" stroke-opacity=".3" stroke-width=".5" d="m426 429.2 1.2-.5q-.2 1-1.2 1.1z"/><path fill="#dacfc2" fill-opacity=".3" stroke="#dacfc2" stroke-opacity=".3" stroke-width=".5" d="M296.8 211.2q1.1 0 1 1-.5 0-1-.3z"/><path fill="#8e8881" fill-opacity=".9" d="M295.6 211.2h1.2v.7z"/><path fill="#d0c3b5" fill-opacity=".1" stroke="#d0c3b5" stroke-opacity=".1" stroke-width=".5" d="m163 199 1 .2-.1.7q-.9 0-1-.9Z"/><path fill="#d5c9be" fill-opacity=".4" stroke="#d5c9be" stroke-opacity=".4" stroke-width=".5" d="M147.2 14.8v1l-1.5.2q.3-1 1.5-1.2Z"/><path fill="#c7bcae" fill-opacity=".5" stroke="#c7bcae" stroke-opacity=".5" stroke-width=".5" d="M213.2 459q-.5 1-1.5 1 .5-1 1.5-1Z"/><path fill="#aea29b" fill-opacity=".4" d="m144.8 198 1.3.2v.7q-.9 0-1.3-.9"/><path fill="#d0c6b6" fill-opacity=".2" d="M196.7 197q.2 1-1 .8z"/><path fill="#bfb4a9" fill-opacity=".3" stroke="#bfb4a9" stroke-opacity=".3" stroke-width=".5" d="m319.8 266.8 1.4.4v.7q-1.2 0-1.4-1Z"/><path fill="#d0c5b8" fill-opacity=".5" d="m114.1 468.3 1-.5a3 3 0 0 1-.8 1.4z"/><path fill="#aba499" fill-opacity=".4" stroke="#aba499" stroke-opacity=".4" stroke-width=".5" d="M490 486.2q-.3.9-1.3.8.5-.8 1.4-.8Z"/><path fill="#d3c7bb" fill-opacity=".2" d="M142.9 486.9q-.1 1.1-1.1.6z"/><path fill="#c1b6ab" fill-opacity=".6" d="m145.9 488 .2.9-1.4.1q.3-1 1.2-1"/><path fill="#928a82" d="M145.9 488h.9q0 .8-.7.9z"/><path fill="#c6b9af" fill-opacity=".4" stroke="#c6b9af" stroke-opacity=".4" stroke-width=".5" d="m130.9 195.9 1.2.3v.7q-1 0-1.2-1Z"/><path fill="#bab1a5" fill-opacity=".3" stroke="#bab1a5" stroke-opacity=".3" stroke-width=".5" d="m189 192-.1.7-1 .5q.3-.8 1.1-1.1Z"/><path fill="#ccc2b9" fill-opacity=".4" stroke="#ccc2b9" stroke-opacity=".4" stroke-width=".5" d="m238.1 10.3.9-.6-.6 1.5z"/><path fill="#d0c6b9" fill-opacity=".3" d="M150.8 494.8q0 1-1.1.8a2 2 0 0 1 1.1-.8"/><path fill="#948c84" fill-opacity=".9" d="M454.8 497q0 1-1 .9.4-.6 1-.8"/><path fill="#d1c4b7" fill-opacity=".5" stroke="#d1c4b7" stroke-opacity=".5" stroke-width=".5" d="M325 190.2v.7l-1.3.1q.4-1 1.4-.8Z"/><path fill="#928c80" fill-opacity=".2" stroke="#928c80" stroke-opacity=".2" stroke-width=".5" d="M110 190q.8.2 1.3.8-1 .1-1.3-.8Z"/><path fill="#b8ae9f" fill-opacity=".3" stroke="#b8ae9f" stroke-opacity=".3" stroke-width=".5" d="m50 501.8 1.2.9q-.9 0-1.3-1Z"/><path fill="#d2c5b7" fill-opacity=".2" d="M51.2 502.7q.7.4 1 1-1.2.2-1-1"/><path fill="#b0a79d" fill-opacity=".3" stroke="#b0a79d" stroke-opacity=".3" stroke-width=".5" d="m96.3 96-1 1.2q0-1 1-1.2Z"/><path fill="#d1c5b8" stroke="#d1c5b8" stroke-width=".5" d="M116.4 155q-2.7 4-5 8-.6 1 0 1.7 5-2.5 9.6-5.3 1-.7.8-1.6l12.6 3.5q.5.2.6.6c-2.3 1-5.4 8.8-7.6 10.7q.3.3.8 0l13.9-8.1q.8-.6.6-1.5l15.6 2a262 262 0 0 0-9.2 13.4c.9 1.1 1.5-1 2.4-1.3 7.1-3.2 14-7.5 20.5-11.9a173 173 0 0 0 45.4-5.3l6-2.7q.6.4.7 1.3l.2 23.6c-2.4-.3-10.8 5.3-12.9 6.8q-.5.4-.3 1a156 156 0 0 1-22.2 2.8l.1-.6 7-6.5c.9-1.2 3.8-2 4-3.4q.6-.3.3-.9a1 1 0 0 0-.4.9c-2 0-14.3 7.6-17 9.2q-1 .6-.9 1.9c-17.1.8-34.5-.6-51.2-4.4l8.9-12.2a1 1 0 0 0-1-.2l-14.4 8q-1 .6-1.2 1.7c-3.1-.9-9.4-2.8-11.4-5.3v-1.1q2.9-3.4 5-7.2c-1.5-.8-7 3.5-8.7 4.1q-.8.7-1 1.6a29 29 0 0 1-10.4-8q3.1-4.2 5.8-8.8l-.1-.3-9.2 5.1c-18.9-26.2-7.9-56.7 17.8-73q1-.6 2 .3a68 68 0 0 0 21.3 17.7q.6.4.5 1l-12.2 7.7c-14.5 9.6-26 22.8-6.2 35Zm282-60a37 37 0 0 0-4.4 6.9q.4.4 1.2 0 3.9-2.2 7.9-4.2c10.6 8.4 19.6 17.2 23.7 30.4-5.4 2.5-14.3 8-19.9 11.3-2.1-14.6-19-21.7-30.1-28.7q1-.6 1.2-1.7c6.4-4.6 12.4-8.8 17.9-14.6q1.5-.8 2.5.7Zm28.9 36.9q1 6 .8 12.3a2 2 0 0 0-2.2.2 91 91 0 0 1-10.3 7.8l-1.4 1.5c-.8.9-3 .7-3 2.2q-.6 0-1 .4.7.3 1-.4l5.5-2.6 11.1-6.5c-3.5 25.5-25.7 37.6-48.9 41.9l.4-.7 5-4q1.8-1 2.6-2.9 2-.4 3.1-2 .5-.3.6-.7-.6-.2-.6.6-2.2 0-3.1 2.1-2.2 0-4 1.4c-1.9 1.6-7.6 4.3-10 6q-1 .6-.8 1.7-11.2 1.6-22.5 1.8l24-18.4a1 1 0 0 0-1-.3q-1.4 1.2-3.1 1.7l-26.7 15.4q-1 .6-.8 1.8a106 106 0 0 1-17-1.3v-.7q3.7-4.4 7.7-8.6-.8-.3-1.6.2c-2 1.6-12.6 6.2-12.9 8.3-5 .1-11.2-1.7-16.3-2.3l8.8-12.6q.1-.5-.2-.8-1.3 1.7-3.5 2c-4.8 3.2-10 5-14 9-1.1-.5-4.5-.7-5-2q-.2-12.4.1-24.8.4-.6 1.2-.4a89 89 0 0 0 11.8 3.9c-1.1 1.2-8.3 10.4-7.3 11.8q7.7-4 15.2-8.5.8-.5.8-1.5 8.7 1 17.6 1.1l-9.1 13.5q.4.3 1 0 10.8-6 21.4-12.2 1-.4 1.1-1.3 9.8-.8 19.4-2-.8 1.5-2 2.9l-8.8 9.4q.3.4.8.1l24-13.5q.7-.8.5-2a77 77 0 0 0 20.2-7.6c1.8-1.2 10.3-7.4 9.9-9.4q1.3.8 2.5-.1zM217 153.1c-.6 1.3-7.7 2.7-9.2 2.6q0-.4.3-.8c3.3-1.9 5-3.2 8.9-1.8Zm58.6 7.9-.5 6q-2.7.8-4.7 2.6-.6-.2-.7-.6l.4-2c1.2-2 2.9-5.4 5.5-6Zm-64.8 4.2c.7-.2 4-1 2.7-2.3a3 3 0 0 0-2.7 2.3ZM241 178c0 .7-.5 3.2 1 2.8l-5.2 4.2v-6c1.7.6 2.6-.9 4.2-1Zm-71.9 10c-1.1 0-3 .2-3.2 1.7 1 1.2 2.8-.8 3.2-1.7q.5-.2.6-.6-.7-.3-.6.6Zm292.2 62a39 39 0 0 0-4.1 6.8q-.8.2-.5.8.4-.2.5-.8c1.8 0 4.7-2.1 6.2-3.2q6.5 14 8 29.2c-4 .4-19.6 11-24.4 13.2l-1 .2c1.4-7.7 2-14.5.5-22.2q-1.6-6.5-3-13.1 8.1-5.6 15.5-12.4 1.9-.8 2.3 1.5Zm-395 19.8-1.6.2c-.4.5-3 2-2.1 2.8l3.5-.9c-1.4 9.1-3.2 18 .3 27q-2.2 3.2-4.7 6.1-.7.7-.3 1.6c1.3-2 4.5-2.6 6.4-4q3.6 4.5 7.5 8.5a31 31 0 0 0-3 4.4q0 2 1.8 1c1.2-1 4.7-1.9 4.9-3.7a65 65 0 0 0 16.8 4.8c1.7.6 9.9 0 10.5 1.5q-2.5 2.5-4 5.7-1.4.3-2 1.6c.6.5 1.4-1.3 2-1.6 1.5.2 10.8-5.3 11.7-6.7q9.2-.5 18.3-2c-1.7 4-9 11.7-11.9 15.6q-.3.6.2 1l35-20.4c.8-.7 3-1.3 3.2-2.4 23-9.5 44-17.8 62.1-35.6.7-.1 2.5-2 3-.8q.3 6.7.3 13.6-1.2-.3-2.3.3-12 9.3-24 18.2-.7.4-.7 1.3c-.6.4-3.7 1-2.7 2.2q2-.4 2.7-2.2c5.7-2 20.7-11.6 27-15-.6 3.4 1 14.1-1.8 16a115 115 0 0 1-51.7 30c1.7-3.7 10.3-9.3 13.9-11.8q0-1-1-.8l-25.2 14.5a2 2 0 0 0-1.2 1.3q-12 3.3-24.2 3.7l.3-.8q23-17 45.4-34.5c-1.7-.8-1.9 1-3.2 1.5Q147 327 119 343.5q-1 .6-.9 1.6a60 60 0 0 1-17.3-2.3 159 159 0 0 0 8.1-10.5c-3.9.8-12.9 7-17 9.2-1.8-.2-12.3-2.9-12.7-4.4q2.4-2.2 4.6-4.8a2 2 0 0 0-1.7.3q-1.5 1.6-3.6 2.2a3 3 0 0 0-1.3 1.5A58 58 0 0 1 56.7 324l3.8-6.5c-1-.6-6.2 2.3-6.5 3.6-3-2.8-5.2-6.5-7.3-10q3.1-3.7 5.9-7.8a1 1 0 0 0-.9 0 25 25 0 0 1-4.8 3l-1.7 1.8c-8-19.5-3.7-39.5 4.2-58.3q.7-1 1.6-.2a72 72 0 0 0 17.5 14.3c.7 1-.5 2.8-.7 3.9-.1 1.4-2 .7-1.4 2Zm174-18.7q-.6 1.2.7 2c.3 2-2.5 4.3-4.3 5v-6a5 5 0 0 0 3.5-1ZM41.5 280c.6 1.5 2.7-1.1 3-1.7-.9-.4-2.6.6-3 1.6Zm250.5-1.4a123 123 0 0 0 38.1 24.6c-2.5 1.7-4.2 5.6-5.7 8.1 1.7.4 9.2-4.5 10.6-5.8 1.8 1 10.6 3.3 11.3 4.5a51 51 0 0 1-4.7 5q-.6.8-.1 1.3c1.6-2.5 7.3-2.5 7.6-5.7l13.2 3.8q-3 4.2-5.8 8.5a7 7 0 0 1-2.2 3.5l.2.2 17.6-10q7 1 14 1.6l-9 12q.6.7 1-.1l.8-.3 16.2-9.3q.9-.6 1-1.7 11 .3 21.8-1.6 0 .4-.3.7l-9.5 10.7q-.5 1.5 1 1.2 30.5-17.4 60.6-35.2l1 .3a27 27 0 0 1-9.3 19.9q-.5.4-.4 1.2l-1.2-.2q-1 .5-1 1.5.7.7 1.2-.2a2 2 0 0 0 1-1.1c1.2 0 .8 1.4.3 2a73 73 0 0 1-49.5 27.8l18.5-16c.7-.7 2.5-1.7 2.3-2.8l1.6-.2q1.5-.9 2.4-2.4c-.8-.9-2.3.6-2.8 1.3l-1.3.6-32.8 18.8q-1.1.6-1.8 1.6-7.2 0-14.5-.8-1 0-1.5-.9 5.8-6.4 11.9-12.7c.3-.4 1.3-1.5.5-2l-1.8 1.8c-2.4 1.1-19.3 10-19.4 11.8a53 53 0 0 1-14.2-3.1l-.3-.5 7-9.1q0-.5-.2-.9l-12.5 7.2q-.7.5-.9 1.3-6.8-2-13.3-4.5l6.7-10-.2-.2q-5.7 3-11.3 6.4a3 3 0 0 0-1 1.2 499 499 0 0 1-24.4-12.6q3-3.6 5-7.7c-1.5-.4-7.8 3.5-8.6 4.8-3.1-1.8-17-10.5-16.9-13.9l-.1-21.7c1.5.4 3-1.1 4.1-2ZM419.3 311q-4 1-8 1.6H409v-.4l6.5-3q2.6-.3 3.8 1.8Zm-311 2.3-.3.5c-1.2 0-7.8-.7-7.8-1.7 2.9-1.5 6.2-2.1 8 1.2ZM70.9 318c.5 0 1.5-.3.7-.9a1 1 0 0 0-.7.9Zm385.9 1.2c.4 0 2-.4.8-1q-.9.1-.8 1Zm-133.1 4c.3 0 1.7-.3.8-1q-.8.3-.8 1ZM216.2 398l.4.1q.1.5-.1 1a83 83 0 0 1-18.9 21 4 4 0 0 1-1.8.9c.8-3.1 15.5-17.7 18.6-21q.3-1.5 1.8-2Zm111 42.7c-2.1.7-2.8 3.1-3.8 4.8q.7.7 1.6.2l5-2.9q5.7 2.8 11.1 6-1 .2-1.7 1.2a81 81 0 0 1-5 7.9q-.3.5.1.8c2.2-1.3 11.2-5.8 11.7-7.7q5.8 3 11.9 5.4c-2.5 1.8-4.4 6.5-6.2 9.1q-.7 1-.5 2.1c2.5-1.5 12.5-6.2 13.6-8.3q11.4 4.6 23.3 7.8l-7.8 12q-.3.4.2.7 8-4.2 15.7-9.1c3.3-1.3 11.3 1.4 15 2q-3.9 4.8-7.2 9.9 1 .3 1.7-.3l12-6.9q.9-.6 1-1.5c2.8 0 17 0 18.5 1.2l-7 7.4a2 2 0 0 0 2.2-.2c1.5-1.9 12.1-6.5 12.2-8.2 33.5-4 34.2-27.4 22-53.1q2.7-.6 2-3.3.6.3 1.1-.1l13.7-9.6c1.7-.2 2.1 2 2.7 3.2-2 0-3.8 3.8-5 5.3 1.6.7 5.7-2.1 6-3.7 9 14.4 14.6 43 4.3 57.5-7 10.5-24.5 24.6-36.8 26.9l15-14.9c-3.5.2-26 14.5-30.9 17.3q-.9.6-1 1.7-8.6 1-17.3.7-.4-1-1.2-1.7c-5.2 2.3-11.3.7-16.8-.2 1.1-2 9.3-9.4 9.1-10.9q.6 0 1-.5-.7-.2-1 .5c-4.3 2-12.5 6.5-15.9 9.4q-6.2-1.4-12.2-3.4 4.4-5.6 8.3-11.5-.4-.3-1 0l-13 7.8q-1 .6-1.1 1.7-6.2-2.4-12.1-5 3.9-5.5 7.2-11.5c-.7-1-2 .9-2.6 1.2-1.8 1.3-10.6 5.3-11.1 7-7.5-2.7-14.5-6.9-21.6-10.7l6-9.8a1 1 0 0 0-.9 0c-1.9 1.6-9.8 4.6-10 7q-5.4-3.8-11-7.2 2.3-3.3 4.2-6.8c1.5-3.7-6.3 2.2-7 2.2q-1 .6-1.1 1.7c-1.6-1.6-9.7-6.3-9.9-8.1.7-.7 4.4-5.1 3.7-5.7a64 64 0 0 0-6.6 4c-1.8-1.4-8.3-6.3-9-8l1.2-1.7c.7.2 2.3-.7 1.3-1.3q-.9.3-1.3 1.3-1.7 1.2-3.3 0l-8.2-7.4c1.5-.3 2.9-2 3-3.4-1-1.7-3.6 1.1-4.6 1.5q-5.4-5.5-10.3-11.6c-.6-1-4.1-4-2.7-5.3a63 63 0 0 0 11.5-16.5q.3-.4.8-.6 3.6 6 7.9 11.9 5.8 6.6 12 12.9.9 1.7 1.2 3.5 1.3-.9 2.7-.3 4.6 3.2 8.8 7zM84 473.2l-7.7 8.2c1.4 1 1.9-.9 3-1.4q5.3-2.6 10.3-5.6.9-.4 1.2-1.5 11.5-2.5 23.2-4.6l.2.9q-6.4 7.8-13.6 14.9-.7.6-.1 1.3l1.1-1.2q22.5-12.4 44.6-25.4.6-.4.1-1.2v-.1a240 240 0 0 0 64.7-37.6c5.4-1.7 18-11.6 22.9-10.9l5.4 7.1q-15.8 10.6-31.4 21.6-1 1.6-3 2.1a4 4 0 0 1-3 1.8q-.7.2-.7.8c1.5 1.4 2.7-.9 4-1.6a1563 1563 0 0 0 36.6-21c-.3 9.2-27.4 32.7-35.2 38.3a223 223 0 0 1-59.9 30q.9-1.5 2.2-2.4 5.7-4 11.5-7.7.4-.2.4-.8c.4-.4 4.2-1.3 2.7-2.3q-2 .6-2.7 2.3l-1.3.1a7 7 0 0 1-3.7 1.9l-5.4 3.6a79 79 0 0 0-8.7 4.7l-4.2 2.5q-.5.7-.6 1.6a262 262 0 0 1-31.2 7.2l1-1.3q22.9-15.3 45.1-31.3c.5-.7 4-1 2.7-2.2q-2.3 0-2.7 2.2c-2.7.2-5 3-7 3.3l-50 28.9q-1 .6-.8 1.8c-2.8.1-17.7 1-19 0q6.5-7.5 13.4-14.6-.2-.5-.7-.3-1.5 1.6-3.8 2.2l-18.3 10.8c-2.5 1.9-12.8-.9-14.7-2 1.5-.5 6.3-6.4 7.6-7.9h-.9c-1.6 1-10.3 5-10.6 6.5a45 45 0 0 1-10.4-5c.7-1.4 4-4.4 4-5.8q.6 0 .9-.5-.6-.2-.9.5c-1.9.8-5.6 2-6 4.3-21.9-16-20.3-44.3-13.3-67.6q1.8-6.5 4.4-12.6c1.6-.7 1.9 1.9 2.8 2.5q.8 0 1.4.4 8 5.4 16.5 9.7L41 433.5c-8 21-2.1 35.2 20.5 39.5 1.1.7-.8 2-1.3 2.6q.5.3 1 0c5.2-3.2 16.6-1 22.9-2.4Zm216.8-45.1c.4-.1 1.6-.4.8-1a1 1 0 0 0-.8 1Zm-13 1.8q.6.1 1-.4-.7-.4-1 .4ZM85.1 467.3c-1.7.1-8 .8-9.2 0q2.6-1.4 5.6-2c1.1.3 3.6.4 3.6 2Zm411.7 11.4c.5 3.5-3 4.6-4.7 6.9q-1 .8-2 .6 0-.7.3-1.3 3.4-2.9 6.4-6.2ZM426 496a3 3 0 0 0-2.9 1.6c.9 1.3 2.7-.5 2.9-1.6q1.2 0 2.2-.4 2-1.6-.5-1.3-1.2.6-1.7 1.7Z"/><path fill="#d0c4b7" stroke="#d0c4b7" stroke-width=".5" d="M234 409c-5-.7-17.5 9.2-22.9 11-.3-1 12.7-13.8 13.8-16.6 1.1-1 3-4.2 5-2.7a98 98 0 0 0 4.1 8.3Z"/><path fill="#262626" stroke="#262626" stroke-width=".5" d="M233 5h24.2c38.7-.1 74.2-.8 111.5 11.1q.6.8 1.7.9c31 11.2 45.3 34.2 32.6 66.6a2 2 0 0 0 .3 1.5c22.5 12.3 43.4 36.2 37 63.6q-.1.7.2 1.3c28.3 17.9 45.4 54.7 28 86q-.3.5-.2 1c12.7 19.7 20.6 45.5 12.4 68.3l-3.8 9.1 7.2 9.1c15.3 20.5 24.7 50 9 73q-.4.7-.3 1.6c19 25.4 25.6 54 4 80.6q-3 3.4-6.4 6.2-.3.6-.3 1.3-.9 0-1.4.8a104 104 0 0 1-24.6 14.2c-.6-.1-2-.2-2 .7l-1.3.3q-1 0-1.8.6-1.1 0-2 .8l-1.1.2c-16.4 4.6-32 5.1-48.7 2.1l-2.2-.2-19.8-3q-.6-.6-1.5-.6A226 226 0 0 1 259 422.7h-8q-1.2.7-2 1.9-.9.4-1.2 1.4l-1 .8-1 1a182 182 0 0 1-31.7 29.7 2 2 0 0 0-.8 1.5q-1 0-1.5 1l-.8-.3-1.2.9-1 1.3a260 260 0 0 1-50.7 28.9l-1 .4q-6 2-11.4 4.5a297 297 0 0 1-32.3 8.1l-1.2.2a8 8 0 0 0-4.2.6l-1.2.3c-8.5.6-16.7 1.5-25.4 1l-5.5.2q-.5 0-.8-.3-9.4-.8-18.7-2c-.4-1.3-4.1-1.2-5.3-1.5l-1-.5-11-2.8a3 3 0 0 0-2.4-1.2c-37.3-12.5-41.3-55.8-24-86.5l6.7-10.8q.1-.6-.2-1.1c-18.6-27.3-3.4-59.9 15.7-82l.2-.9-3.7-8.5c-6.7-18.1-3-38.2 5-55.3q3.4-6.7 7-13.2l-4-9.5c-8.5-25.9 2.7-53.2 22-71q5-4.2 10-7.9l-.7-8.6c-.2-18.4 8.5-29.7 20.4-42.3l.9-.2q.7-.3 1-1 .7-.1 1-1 .8 0 1.3-.8l1-1.2q5.9-3.9 12-7.2.6-.5.8-1.3l-2.8-12c-3-16.7.4-31.5 12.4-43.8q1 0 1-.9A76 76 0 0 1 144 17.2q.9-.1 1.3-1l.5-.2 1.4-.1q1 .2 1.9-.5l2.2-1c12.7-3.5 30.6-7 43.6-7.4q1.9.3 3.5-.7c11.6-.4 23-1.4 34.7-1.3Zm-12.2 6-19.6 2c-.6 0-2.3-.3-1.9.8-8.3 0-17.2 2.5-25.4 3.9q-11.7 2.1-22.8 6l-1 .5c-21.5 5.4-30.5 16-33.8 37.8a19 19 0 0 0 .6 6.7c-.1 2.2 1.4 9.6 3.4 10.5q-.2 1.4.9 2.6 2.7 4.9 6.5 8.8c1.4 1 2.7-.4 4.1-.6q-1 1.5-2.5 2.4a84 84 0 0 0 9.7 7.9q2.3 1.8 5 2.7c4.9 3.3 21 12.2 26.8 10.2q-1.6 1.5.5 2.3 5.8 1.6 11.6 2.8 1.9 1 3.8.5.6 1 1.8 1l12.6 2.4q2.8 0 5.6.7c4.6 0 12.7 1.3 17 .2 1-1.5.3-22.3.3-25.6-.3-1-3-.6-3.9-1l-1 .6c-4-.3-13.4-2-16.9-.6-1.1.4-2.7 2.9-4 2l2.6-3.1q-.4-.6-1.3-.6a234 234 0 0 1-34.2-8.2l-12.4-4.8-2.5-1.9a41 41 0 0 1-9-6.8C132 61.2 151.6 51.3 160 47c-.2 1.4 1.4 1.3 2.3 1 7.6-2.3 18.6-2.7 25.3-6.7 1.3-.3 1.1 1 2 1.5q10.7-1.6 21.6-2.7a1510 1510 0 0 1 37-2q6.5.5 12.9.3.6.6 1.5.4h14.9q2 0 4-1.3.3 1.5 1.9 2l19.6.8c1 .9 13.4 1 16 1.6l3.7.5 1-.3 14.5 2 5.6 1.2q6.6 1.4 13 3.2l3.8 1.6c6.5 3 11.7 5.7 13.4 13l-.4 1q-1 2.7-2.8 4.8c-.2 5-28.6 18.6-34 20.4q-1.5-.5-2.9.4a226 226 0 0 1-25.7 6q-9.7 1-19.7 1.4-.7.5-.7 1.5l.2 24.9q.5.6 1.4.5l8.8-.8q9 0 17.6-2h1q11.3-1.2 22.5-4.2c4.8-1 8-4.5 12.5-5.6q-1.2.6-1.3 1.8-.3 0-.4.4.5.1.4-.4 3-.2 5.6-1.5c17.6-7 32.7-16.2 38-35.6l1.7-8q.5-5.7-1-11.2v-1q-.9-1.8-1.4-3.8a53 53 0 0 0-25.3-24c-5-2.5-23.6-9.7-28-9.4-1.4 0-4 3-5 2 .6-.6 3-2.7 1.2-3.5-2.5-.4-12.8-3.1-14.6-1.7q-1 1.8-2.6 1c.2-.5 2.4-1.7 1.2-2.4a215 215 0 0 0-14.6-2q-6.8-.9-13.7-1.3-7.6-.8-15.3-.7c-5.3-.1-12.4-.8-17.5-.1q-8.2-.5-16.6 0a16 16 0 0 1-3.7-.2l-.9.6c-5-.6-12.1.8-17.3.8Zm5.3 33.6c-9.8.1-19.1.9-28.7 2.2q-4 .3-7.7 1.7c-6.9.5-14.9 1.2-21.4 3.3l-1.4.2q-1.6-.4-2.7.7-.7 0-1.3.3l-1.2.5c-6 1.7-14.4 6.9-8.6 13.9 9.6 10.9 30 16.7 43.7 19.9q1.5.8 3 .6l1.3.3a111 111 0 0 0 19 2c1.2-.2 4 .2 4.8-1 6.3-33.3 58-33.8 62.4 0q.3.7 1.2.7 12.9-1.9 25.8-4.3 17.7-3.3 34.7-9c5.5-2 20.6-8.8 10-15.3-19.7-10.7-49.7-12.3-71.9-15.1a7 7 0 0 0-4 0l-2.2-.6q-6.8 0-13.5-.7l-7.5-.3a991 991 0 0 0-33.2-.4q-.5 0-.6.4Zm11 99.3-.3 1q-.1 2.4.1 4.7l-.1 35.3q-.1 19.7.1 39.3v.5q-.3 13.5-.3 27.2v6q0 21.2.3 42.2a182 182 0 0 0 0 17l-.2 3.8q0 27 .6 54l-.6 1.2 3.4 14v1q.7.8.8 1.9c3 6.3 7.7 19.1 16.2 19.2 13.3-2.1 17.4-42.5 17.7-52.6q1 0 1-1.2c2-24.9 1-50-.1-74.9q0-.9-.7-1.5.4-2 .4-4c-1-22.6-1.8-45.2-.2-67.7 0-1.2-.3-2-1.5-1.5q-3 1.2-5.4 3-.2-1 .7-1.4c2.8-1.7 4.7-2.4 5.4-6q-.4-18.8.8-37.5l.5-6 .6-14v-2c.5-4.4 1-8.4.6-13l.2-1.2v-.6l-.2-6.3c.1-10.4-.4-27.9-5-37.1l.1-1.2-1.6-2.6q-2.4-5.3-7.3-8.4c-2.2-1.1-5.3-2.6-7.7-1.5-.5-1.6-4.5.2-5.6.2-11 3.3-13 16.5-13.4 26.3q0 22.2.7 44.4ZM93 166.3q1.4 2.3 3.5 4c2.5 2.8 7 7 10.4 8 .5 1.2 2.6 2 3.7 2.6h1c2 2.5 8.3 4.4 11.5 5.3q3.7 1.6 7.6 2.7 25.2 5.6 51.2 4.4 3-.3 6 0l.9-.6a156 156 0 0 0 34.5-5.8c1.2-.7.5-3.6.9-4.8l-.2-23.6q0-.9-.8-1.2-3 1-6 2.6c-15.1 4-29.5 5.4-45.3 5.3l-13.7-.3-15.6-1.9c-2.2-.5-5.5-1.6-7.7-1a1 1 0 0 0-.6-.7l-12.6-3.5q-2.6-1.6-5.4-2.9c-19.8-12-8.4-25.3 6.1-34.9l12.3-7.7a1 1 0 0 0-.6-1A68 68 0 0 1 113 93.6q-1-.9-2.1-.3c-25.7 16.3-36.7 46.8-17.8 73ZM378 109a2 2 0 0 0-1.9.7q-.3 1 .7 1c11 7 28 14 30.1 28.7q-.7 1.7-1.1 3.5c.4 2-8.1 8.2-10 9.4a77 77 0 0 1-20.1 7.6q-7.2 2-14.5 3.1-9.6 1.2-19.4 2h-14.4q-9 0-17.6-1l-8.6-2q-6-1.4-11.9-3.8-.7-.2-1.2.4-.4 12.4 0 24.8c.4 1.3 3.8 1.5 4.9 2l9 2.4c5 .6 11.3 2.4 16.3 2.3q2.5.9 5.4 1l1.3-.2a106 106 0 0 0 24.7 1.1 165 165 0 0 0 28.3-2.8l1-.5c23-4.3 45.3-16.4 48.8-41.9l.3-2.6q.2-6.1-.8-12.3l-.4-3.8c-4.2-13.2-13.2-22-23.8-30.4q-2.2-1.5-4.7-2.6-1-1.5-2.5-.7c-5.5 5.7-11.5 10-17.9 14.6Zm-18 7.8q-1.2 0-1.8 1l-1.3.4q-.8 0-1.3.5-1.5.2-2.8 1c-10.3 3.5-21 5.6-31.5 8.2q-2.4-.3-4.6.6-13.5 1.7-27.2 2.5-.9 0-1.4.6c-.2 4.5-.5 13.6.1 17.7a28 28 0 0 0 8.4 3.7l1.3.2q1.3 1 3 1 .9.7 2.1.7 9.3 2.2 18.7 3.1 2.8.3 5.6 0c6.4 1.4 21.7 1.2 28.4 0h3.6a109 109 0 0 0 21.7-4.4c6.6-2.3 16.8-7.3 12.9-16-5.3-10.2-18.5-16.5-28.3-21.7-1.7-1.1-3.6 1-5.5.8Zm-176.2 41.7c2.2.4 5.2 1 7.3-.2q8-.5 15.6-2.2l1.2-.4c1.5 0 8.6-1.3 9.1-2.6q1.5 0 3-.7c2.7-1.3 4.5-1.2 4-4.9q.2-8-.2-15.8-.5-.6-1.3-.6-5.6 0-11.2-.5c-1.1-1-3.3-.5-4.6-.6a221 221 0 0 1-63.2-14 65 65 0 0 0-22.5 15.5c-6.4 7-2.3 14.3 5 18 16.5 8.2 39.7 9.7 57.8 9ZM49.2 208.2v1.8c3.1 23.4 12.1 39.6 34 50q2.2 1.5 4.6 2.4a112 112 0 0 0 41 6.8l1.2-.2q10 .4 20.1-.8c6-.5 12.7-1.3 18.5-3a166 166 0 0 0 32.8-9.4c2.2-.5 6.8-4.2 8.7-3.6q6.9-2.7 13.3-6.3.9-1.2.7-2.6 0-5.2.2-10.3-.3-1.8-.3-3.7l.1-10.9q0-.9-.7-1.3l-9 5.8a137 137 0 0 1-41 14.9l-25.6 4.2-4.8-.3-1 .5h-17q-5.4-.1-10.9-.5l-.8.2c-3.8-.8-12.4-2.9-15.9-1.1q-.6.1-1.1-.2 1-1.2-.3-2c-35.8-12.2-28-35.8-6.5-58.5 1-1.7-2.7-3.2-3.5-4.2l-1.6-2a84 84 0 0 1-6-7.6c-1.2-1-2.7.5-4 .5-.3-1.1 4-2.3.7-6.4q-1-.6-2 0a65 65 0 0 0-23.8 47.7Zm385-19.5q-.8.8-1.3 1.8c.3 2.4 3.9 6.7 5 9.2l.6.3q1.6-.6 3.3-.6a4 4 0 0 0-2 3q1.4 7.3 1.4 14.6c-5.6 15.2-23.2 19.6-37.5 22q-4.2 1-8.4 1.1-9.3.6-18.7.8c-2 .1-5.5-.9-7.2.2-1.3-1.3-11.6-1.3-14.1-1.5q-2.1-.6-4.2-.7l-1 .2c-4.7-1.2-12.8-3.5-16.9-.3a1 1 0 0 1-1-.2c.5-.7 2.6-1.8 1.2-2.7-3.6-.9-10.2-3.2-13.7-2.6q.1-.7-.4-1c-11.4-4.3-20.8-6.7-30.2-14.8q-.6-.4-1 .1-.4 13.4 0 26.8a61 61 0 0 0 17.3 7.5q1.6-.7 3-1.6.5 1.5-1 2.6-.1.5.3 1 5.6 2.4 11.4 4.1.7.7 1.7 1a143 143 0 0 0 16.9 4.8c1 1.6 11 3.1 13.3 3.5 1.3.6 3.3 1.3 4.7.5q.6 1 1.8 1 6.7 1.2 13.6 1.5 4.8.8 9.7.7 9.6 0 19.3-.8c6-1.2 12.1-1.7 18-4l.8-.5c20-3.2 39-22.8 43-42.7q.4-2 .4-4c.8-3.4 1.7-11-.4-14q.7-.2.5-1-.5-4.2-1.5-8.3l-1.6-4a48 48 0 0 0-13.5-21.6c.4-2-3.5-4.3-4.5-5.8q-3-4.2-6.7-.4-5.5 7.5-12.3 13.9c-1.2 1.6 2 2.6 2.7 3.8l6.1 7.8c.6.8 2.3-.7 3.1-.7ZM198.3 196q-4.7.7-9.5 1c-5.7 1.3-13.6 1.2-19.4 2a16 16 0 0 0-5.5.1l-1-.2q-6.3 0-12.6-.4a6 6 0 0 0-4.2-.4l-10.9-1.6q-1.5-.8-3.1-.4l-1.2-.3q-10-2.1-19.6-5.1l-1.3-.8-10-4.6q-1-.4-2 .2-6.6 7.1-11.3 15.7c-6.3 11.3-3.2 22.8 9.3 27.4 31.9 11.6 101-.3 127.4-22.7 1.3-2 .6-11.6.5-14.4q-.5-.6-1.4-.5-12 3-24.2 5Zm184.8-.3q-2.1.3-4.3.9c-12.8 4.1-38.5 4.2-52.4 3.2q-11.8-1.4-23.7-3.1-7-1.6-14.1-2.7-.7.5-.7 1.4c.6 4-1.6 9 2.5 11.6a72 72 0 0 0 6.4 4.8l1 .4 1.2.8a115 115 0 0 0 12 6q9.4 3 18.7 6.5a236 236 0 0 0 62.6 9.3c18.1-.9 45.7-6.2 33.5-31.2a81 81 0 0 0-12.3-17.7q-1-1.3-2.5-.7c-8.8 4.6-18.2 8.4-27.8 10.5Zm63 100.4-.4.7a36 36 0 0 1-26.6 19.9l-1 .5q-11 2-22 1.6-5 .3-9.9-.6l-14-1.6q-4.8-1.5-9.8-2.2l-13.2-3.9q-1.3-.8-2.8-.5c-.7-1.2-9.5-3.5-11.3-4.5l-4.9-2.3q-21.3-8.7-38-24.6l-3-4q-.9-1.2-1 .3l-.1 1.3q-.2 2.2-.1 4.4l.1 21.7c0 3.4 13.8 12 17 13.9q1.5 1.5 3.5 3a499 499 0 0 0 24.4 12.5l5.8 2.5q6.6 2.7 13.3 4.6l5.6 2h1.3c4.2 1.5 9.7 3 14.2 3.1 1.2.8 7.5 2 8.8 1.1q.5 1 1.5.9a110 110 0 0 0 28.4-.1 73 73 0 0 0 49.5-27.8c.5-.6.9-2-.3-2q-.1-.7.4-1.2a27 27 0 0 0 9.4-20l.3-1q1-5.5.1-11.1a84 84 0 0 0-10-32.8q-.3-2.2-2.3-1.5-7.3 6.8-15.6 12.4l3 13.1c1.6 7.7 1 14.5-.4 22.2Zm-401 12q.9 1.3 1.6 3c2.1 3.4 4.3 7.1 7.3 9.9l2.7 2.9c5 4.4 14 10.8 20.4 12.3 0 .9 1.3.8 2 .8.4 1.5 10.9 4.2 12.7 4.3 1.9.5 7.3 2.6 8.9 1.4A60 60 0 0 0 118 345q7 .1 14-.1l1-.2q12.3-.4 24.2-3.7 1.7.3 3.3-.2 5.3-1 10.2-3a115 115 0 0 0 51.7-30c2.7-1.9 1.2-12.6 1.8-16q-.3-2.4 0-4.8 0-6.9-.3-13.7c-.5-1-2.3.8-3 .9-18.1 17.8-39 26.1-62 35.6-4.2.2-20.7 5.6-26.6 6.2q-9 1.5-18.3 2c-2.2.1-5.7 0-7.7 1-.6-1.6-8.8-1-10.5-1.5a65 65 0 0 1-16.8-4.8q-1.5-1.5-3.7-1.6a122 122 0 0 1-7.5-8.6l-1.4-3.7c-3.5-9-1.7-17.9-.3-27q.8-.1.8-1 0-.6-.5-1.1c-.5-1.3 1.3-.6 1.4-2 .2-1 1.4-3 .7-3.9A72 72 0 0 1 51 249.6q-1-.9-1.6.2c-8 18.8-12.1 38.8-4.2 58.3Zm128.2-36.3-1.4.3q-1.2-.3-2 .7c-31.5 5.5-58.7 7-89.5-3.8q-1.4-.5-2.4.4c-2.7 13.1-1.8 29.8 10.6 37.8q.7.7 1.6 1c0 1 3.9 2.4 4.8 2.8q2.5 1 5.2 1c0 1 6.6 1.6 7.8 1.7l1.2.1a87 87 0 0 0 22-1.6 49 49 0 0 0 9.8-1.7c28.2-7.4 61.6-23.3 80.3-46.2q.4-.6.6-1.4l.2-1.3q1 0 .5-1 1 .2 1.6-.7l-.2-4.5q0-1.2-1-1.2-24 11.4-49.7 17.6Zm234.7 41 1-.2h2.3l8-1.7 5.7-3.3c13-8 11.6-29 6.4-40.9l-1.4.4h-1.3l-9 3.4a156 156 0 0 1-59.4 4.5l-4.3-.3a286 286 0 0 1-17.2-3.1q-1-.8-2-.2-6.8-2-13.8-3.5-.6-1-1.8-.8l-1.4-.4a225 225 0 0 1-30.5-11.6c-1.5-.5-1.5 1.2-1 2.1 20.6 31 83.1 58.2 119.7 55.6Zm-186.3 4a277 277 0 0 1-35.5 20.5 1 1 0 0 0-1.2.4l-1.1.4q-1.2-.2-1.8.9-1.5-.3-2.2 1c-2 0-5.4 1.8-7.2 2.6-10.8 3.6-22 7.1-33.3 8.3-1.7-.1-4-.4-5.2.7l-2.4.4q-14.2 1.4-28.5.6-1.4-.9-3.3-.6h-1q-6.8-1-13.3-2.4-8.3-1.8-16.2-4.8-.9 0-1.3.8c-10.8 15.6-16 37.2 8.4 42.2q1 .3 2 .2 3.4 1 6.8.9 7.6.7 15.3.2l3.6-.2c37.2-4.3 89.2-20.2 116-47.6q.5-.6.7-1.3.6-.4.9-1l.1-1.3q.9 0 1.2-.9a51 51 0 0 0 0-21.3 3 3 0 0 0-1.5 1.3Zm81 32.3q.6.6 1.3 1a238 238 0 0 0 118 39.1l1-.4q2.5.8 5 0h1c13.6-.6 28.4-6.6 23.6-23.2a62 62 0 0 0-11.6-21l-1.7.1a94 94 0 0 1-20.2 6q-.6 0-1.3.4-1.8-.6-2.8.8c-39.1 6-75.4-3.9-109.4-23q-8.7-5.2-17-10.8-.9 1-.7 2.3c.4 8.5-2 12.9 4.6 19.5 3.4 3.3 6.1 6.5 10.1 9.2ZM37.7 403q.4.8 1 1.4l1.4.7c1.2 1.8 12.2 9.6 15.7 6.8-.7.9-1.5 1.9 0 2.6q6 2.1 12 3.7l5.9 1.7c12.3 1.6 26 3.5 38.4 2 5.3.5 11.1.2 16.4-.9 8.6-.3 17.1-2.8 25.6-4l8.2-2.3q.8-.2 1.4-.7c19.5-4.7 47.1-16.9 60.8-32 .7-2.6-.5-13-.5-16.4l.2-4.6-.2-11.7q0-.6-.6-1l-6.7 6.8c-14.6 13.2-43.3 24.7-61.7 30.2l-12 3.3-1 .5c-6.8 1.2-16 2.8-22.2 4.8-4-.6-9.7 1.1-13.8 1.2a272 272 0 0 1-22.7.8q-.8 0-1.4.3L66.7 394q-2.6-1.2-5.3-2.1c-25.2-11-13.8-34-1.6-50.6q.3-.8-.2-1.4l-10.5-7-8-8.1q-.4-.5-1 0c-13.5 22.8-26.2 53.8-4.8 76.4q1.1 1.2 2.5 1.9ZM464 379c-.7 2.2-4 5.3-4.2 7.1-2.8 2-9.5 6.6-12.9 6.6q-9 2.8-18.7 3.4-10.1.1-20.2-.4c-2 .9-6.7-1.1-8.1.3q.1-.6-.4-.8a203 203 0 0 1-33.3-6.2c-5-.4-10.7-4.5-15.4-1.7q.6-1.2 0-2.4-5.4-2-10.8-3.3-2.4-1.3-4.9-2.4-.9-.1-1.8.2c-3-1.8-10.4-6.3-14-4.6q0-.6.6-1.3-.1-.8-.9-1.1l-10.8-5.7a107 107 0 0 1-11.8-8.5q-4.2-3.7-7.9-7.8a1 1 0 0 0-.6 1q0 11.6-.6 23.3-.1 1 .8 1c-.3 1.4-1.7 3-.5 4.3 6.6 4.2 13.5 9.7 20.5 13.2q1.5 1.8 4 1.9c.6 2.2 20.7 11 24 12.2a3 3 0 0 0 2 .8q.2.4.6.7a270 270 0 0 0 23 7.9q1.2.3 2.6.3c.8 1.1 4.1 1.1 5.5 1.8q7 1.6 14 2.6l13.2 1.9c6 0 12.3.8 18.3-.2q2.7.6 5.5 0c9.6-1 18.5-.5 26.9-5.8q1.3 0 1.8 1.2c23.5-7.6 39.4-22.6 39.3-48.7q0-2.4-.6-4.6c.8-4.7-7.3-26.3-10.3-28-.2-1.9-5.6-10-6.8-10.1q-.3-.9-1.1-1.2-.2-1.2-1.3-.7l-8.9 8-7.4 5.5q4.5 6.9 8 14.4A34 34 0 0 1 464 379Zm-284.8 34.8q-1.3 0-2.2 1l-1 .4q-1.3 0-2 .9-4.2 1-8.2 2.5c-9.8 3.8-20.4 5.7-30.5 8.3h-1.2a191 191 0 0 1-60.4.8q-8.6-1.5-17.1-3.5c-1.6.3-4.5 10-5 11.8-3.1 9.2-2.3 23.4 8.3 27.1.6 1.4 2.9 1.9 4.3 2l.8.1c3 2 7.3 1.8 10.9 2.2 1.2.7 7.5 0 9.2 0 36.3-2.8 81.1-23 110-45.2q.7-.4.7-1.3a4 4 0 0 0 1.8-.8q11.3-9 18.9-21.1.2-.5.1-1l.5-1.3q.9 0 .9-1l.7-1.3q-.4-.3-1 0a220 220 0 0 1-38.5 19.4ZM283 432.4l1.6 1.9 8.2 7.4q1.6 1.2 3.3 0-.6.7-1.1 1.7c.6 1.7 7.1 6.6 9 8q1.1 1.3 2.8 1.6c.2 1.9 8.3 6.6 9.9 8.2q2 1.3 4 2.9l10.8 7.1a24 24 0 0 1 5 3c7 3.7 14 7.9 21.6 10.7 1.2 1.4 4.7 2.5 6.5 3.2l12 5 7 2q6 2 12.1 3.4l6.8 1.5c5.5.9 11.6 2.5 16.9.1q.7.8 1 1.8 8.8.3 17.5-.7 8-.7 15.8-3.4 1 .1 1-.7c12.3-2.3 29.8-16.4 36.8-26.9 10.3-14.5 4.7-43-4.2-57.5a3 3 0 0 0-1.1-1.6c-.6-1.2-1-3.4-2.7-3.2l-13.7 9.6a1 1 0 0 1-1 .1c-1.7.3-4 1.5-2 3.3 12.1 25.7 11.4 49.1-22 53.1q-3.9 0-7.5 1c-1.4-1.2-15.7-1.1-18.5-1.2-1.1-1-5.9-.8-7.5-1.2-3.7-.6-11.7-3.3-15-2a2 2 0 0 0-1-1.6l-7.1-2a184 184 0 0 1-30.2-10.7q-6-2.4-11.9-5.4l-5-2.3-11.2-5.9-2.8-2.1q-6-3.6-12.3-7.1-4-4-8.7-7.1-1.5-.7-2.7.3-.4-1.8-1.1-3.5-6.3-6.3-12.1-13-4.3-5.7-7.9-11.8a1 1 0 0 0-.8.6q-4.5 9.2-11.5 16.5c-1.4 1.3 2.1 4.3 2.7 5.3q4.8 6 10.3 11.6Zm-72-12.5a242 242 0 0 1-64.7 37.6v.1q-15.5 5.5-31.4 10.2l-.9.5q-11.6 2.1-23.2 4.6l-6.8.3c-6.3 1.4-17.7-.8-22.9 2.5a1 1 0 0 1-1-.1c.5-.6 2.4-1.9 1.3-2.6-22.6-4.3-28.5-18.5-20.5-39.5l5.4-12.7q-8.4-4.3-16.4-9.7-.6-.4-1.4-.4c-.9-.6-1.3-3.3-2.8-2.5q-2.7 6.1-4.4 12.6c-7 23.3-8.6 51.6 13.3 67.6l2 1.6a45 45 0 0 0 10.4 5 8 8 0 0 0 4 1.2c1.7 1.2 12.1 4 14.6 2q0 1.1.9 1.7 4.2.5 8.6.4c1.2 1 16 0 18.9-.1q5.9-.4 11.7-1.4a262 262 0 0 0 39-9.8l1.3-.1q.7 0 .7-.8a223 223 0 0 0 59.9-30c7.8-5.6 35-29 35.2-38.4q1 0 1.1-1a7 7 0 0 0-3.6-2.6q-2.6-3.7-5.4-7a98 98 0 0 1-4.1-8.4c-2-1.5-3.9 1.6-5 2.7-1.1 2.8-14 15.5-13.8 16.5Zm223 46.3 6.3-.2c26.9-1 26-23.5 14-41.2-.4-1.5-2.7-.8-3.6-.2-5.2 1.1-19 4.6-23.5 4.1l-1.2.5q-2.3-.7-4.3.5a268 268 0 0 1-23 .3c-29-1.4-55.1-8.6-81.4-20.7q-8-3.9-15.8-8-.6.4-.3 1a69 69 0 0 0 19.8 21.2c30.3 21.8 75.7 40.6 113 42.7Z"/><path fill="#aca399" d="m112 504-.2 1h-.7q-1.5 0-3.2-.4a8 8 0 0 1 4.2-.6"/><path fill="#9a9289" d="M460.9 502.2v.5l-2 .1q.9-.7 2-.6m-2 .6-.3.9-1.5-.1q.7-.9 1.9-.8"/><path fill="#d1c4b8" fill-opacity=".4" d="m434.3 326.9-.4-1.1c.5-.7 2-2.2 2.8-1.3q-.9 1.5-2.4 2.4m24.7 176 2-.2c0 1.6-1.3 1.4-2.4 1z"/><path fill="#b6aca1" fill-opacity=".9" d="M51 502.3c1.2.3 4.9.2 5.3 1.5q-2.1.8-4.1-.1-.3-.7-1-1z"/><path fill="#aba298" fill-opacity=".8" d="M224.2 260q-.6.9-1.6.7.7-.6 1.6-.7m-1.6.7q.5 1-.5 1z"/><path fill="#9c958c" fill-opacity=".6" d="M350.6 113.1q.1.6-.4.4 0-.3.4-.4"/><path fill="#7f7a74" fill-opacity=".8" d="M201.2 13q-.6 1.2-1.9 1c-.4-1.2 1.2-1 1.9-1"/><path fill="#d1c4b8" fill-opacity=".5" d="M425.9 496q.6-1.2 1.7-1.7 2.4-.3.5 1.3-1 .4-2.2.4"/><path fill="#d2cab4" fill-opacity=".3" d="M296.2 441.7q.4-.9 1.3-1.3c1 .6-.6 1.5-1.3 1.3"/><path fill="#d0c4b8" fill-opacity=".2" d="M288 430q.1-1 .8-.5-.3.5-.9.4"/><path fill="#d1c8b6" fill-opacity=".1" d="M301 428q0-.6.7-.8c.8.5-.4.8-.8.9"/><path fill="#d0c6b8" fill-opacity=".2" d="M456.8 319.2q0-.9.8-1c1.1.6-.4 1-.8 1"/><path fill="#d5c6b8" fill-opacity=".1" d="M71 318q0-.7.6-.9c.8.6-.2.9-.7.9"/><path fill="#d1c5b7" fill-opacity=".6" d="M41.6 280c.4-1 2.1-2 3-1.6-.3.6-2.4 3.2-3 1.6"/><path fill="#d1c3ba" fill-opacity=".3" d="M169.1 188c-.4.9-2.2 2.9-3.2 1.7.3-1.5 2-1.7 3.2-1.7"/><path fill="#d1c7b8" fill-opacity=".2" d="M323.7 323.2q0-.7.8-1c1 .7-.5 1-.8 1"/><path fill="#dbd1c4" stroke="#dbd1c4" stroke-width=".5" d="m238.1 10.3.3 1q-1.5 1-2.3 2.5c-.7.5-3.3 1-2.6 2.2a3 3 0 0 0 2.6-2.2 9 9 0 0 0 4.5-1.6c.7-.6 2.5-1 2.1-2.2q8.3-.6 16.6-.1-6 8.8-12.6 17.1c-.1.4-1 1.3-.2 1.5q1.3-1.6 3.5-2.2c3.4-1.9 26.4-14.5 26.8-16.3q7.7 0 15.3.7l-11.9 16.6q.4.4 1 .1 11.7-7 23.9-14 .6-.4.7-1.3 7.3.6 14.6 1.9c1.2.7-1 1.9-1.2 2.5q1.7.5 2.6-1c1.8-1.6 12 1.2 14.6 1.6 1.8.7-.6 2.9-1.2 3.5 1 1 3.6-2 5-2 4.4-.4 23 7 28 9.4l-3.8 4.7q-.4.6.2 1a73 73 0 0 0 6.5-4.1A53 53 0 0 1 393.5 52q-9.2 5.7-18.5 11h-.9c-1.7-7.3-7-10-13.4-13q2.3-3.4 5-6.5-.9-.4-1.7.2-3.7 2.1-7.2 4.7-6.3-1.9-12.9-3.2 2.7-3.3 5-7c.2-.5 2.6-1.1 1.4-1.9q-5.6 3-11 6.3-1 .3-1 1.3l-14.4-2 .2-.6 2.6-3.8q-.4-.5-1-.3a63 63 0 0 0-6.3 3.7q-.4.4-.3 1c-2.6-.7-15-.8-16-1.7l5.9-6.1q1-1.3 0 0-1.4-.4-2 .7l-1 .3c-1.4 1.2-7 3-6.8 5l-15.7-.7q-1.5-.5-2-2a9 9 0 0 1-4 1.3h-14.8q-.9.2-1.5-.4 5-7 10.4-13.7-.7-.6-1.7 0a4 4 0 0 1-3 1.8l-17.6 10.2q-1 .4-1 1.5-10.2.7-20.6.9c3.2-5 7.6-9.5 10-14.8q.6 0 .9-.6-.7-.3-.8.6c-3.6 1-21.1 12-25.9 14.4q-.7.5-.6 1.4l-21.6 2.6c-.9-.4-.7-1.8-2-1.4-6.7 4-17.7 4.4-25.4 6.7-.8.3-2.4.4-2.2-1a1 1 0 0 0 1-.7q1.8-.2 3-2 2-.6 3.9-1.8l50-28.8a6 6 0 0 0 2.8-2.5c5.2 0 12.4-1.4 17.3-.8Zm76.7 9.8c.3-.1 1.8-.6.8-1q-.7.2-.8 1Zm35.2 5.8q1.9.4 2.2-1.4c-1-.8-1.8.8-2.2 1.4Zm-66 9.8c-1.3.3-1.2 1.8.2 1.2q1.6-.7 2.4-2.4c-.7-.9-2.1.6-2.6 1.2Zm-92.3 3.6c.7 0 4-1.2 2.7-2.1q-2.1 0-2.7 2Zm44.4 4.9c-3.1 2.4-7 4.3-10 .5q.2-.3.6-.4 4.8.3 9.4-.1Zm158.1 12.6h.6q1.6 5.5 1 11.2a241 241 0 0 0-26.7 21.8q-2 0-2.9 1.9c1 1.1 2.5-1.1 2.9-2 4.5-1 20-11 25-13.7-5.2 19.4-20.3 28.7-38 35.6a17 17 0 0 1-5.5 1.5q.1-1.2 1.3-1.9c1-.2 3.1-.9 2.6-2.2q-2 .4-2.6 2.2c-4.4 1.2-7.7 4.7-12.5 5.6a142 142 0 0 1-22.5 4.2l.4-1c3.8-3 35.4-27.5 35.6-28.8q.8-.3.5-1-.5.4-.5 1l-1.3.1-52.6 30.4a2 2 0 0 0-.7 1.4l-8.8.8q-.9.2-1.4-.5-.2-12.4-.2-25 0-.8.7-1.4 10-.4 19.7-1.4a226 226 0 0 0 25.7-6c0 .9-.2 2.2 1 1.4a4 4 0 0 0 1.9-1.8c5.4-1.8 33.8-15.3 34-20.4q1.2 1 2.4.2zm-320 110-1.4.3c-.5.4-2.7 1.9-2.2 2.6q1.5 0 2.4-1.3 1-.6 1.3-1.6c1.3 0 2.8-1.6 4-.5a84 84 0 0 0 6 7.7q-3.8 3.8-8 7.3.8.6 1.7.1a74 74 0 0 1 7.4-4.5q.5-.3.5-1c.8 1 4.6 2.5 3.5 4.2-21.5 22.7-29.3 46.3 6.5 58.4q1.4 1 .3 2 .5.5 1.1.3c3.5-1.8 12 .3 16 1.1v1.2q-3.6 4.4-6.9 9.3c.5.6 1.5-.2 2-.4q8.5-4.6 16.5-9.7 8.5-.3 17.1 0l-.3.7-2.1 2q-1.7 1.2-2.4 2.9-1.5 1 0 0 2.1-.1 3.9-1.4c1.2-1.2 6.2-3.3 6.7-4.5q12.7-2.2 25.6-4.2-6.3 6.5-13 12.5.7.6 1.7.1 11.8-7.2 23.9-14 1.5-.7 1-2c8.2-2.1 19.8-7.4 27.5-11.5l9-5.8q.7.5.6 1.3l-.1 10.8c-1.5.4-9.7 7.3-9.8 8.6q-2 .1-2.9 1.9c.7 1.3 2.6-1.1 2.9-1.9 3.4-.2 7.9-4.5 10.1-4.8l-.2 10.3c-2 0-5.2 2.8-7.2 3.6l-1.1.6q-2.3 1.5-5 2.9-.9.6-.7 1.8c-1.9-.6-6.5 3.1-8.7 3.6a166 166 0 0 1-32.8 9.3l27-23.4a1 1 0 0 0-1-.3l-43.7 25q-.9.7-.8 1.8-10 1-20.1.8l.1-.8c1.3-1.7 12-11.1 11.8-12q.5-.1.7-.5-.6-.3-.7.5a121 121 0 0 0-21.7 12.9q-7.8-.5-15.5-2 2-1.9 3.3-4a5 5 0 0 0 3.6-2.5c-1.9-.5-2.9.8-3.6 2.5-1.9-.6-5.4 2.4-7.1 3.2q-6.6-1.5-13-3.9c2.2-.9 5.7-7 7-9.2q.7-.2.5-.8a1 1 0 0 0-.5.8c-1.6-.3-11.5 5.2-11.7 6.8-21.9-10.4-30.8-26.6-34-50 2.4-.6 4.4-3 5.7-5 .9-.3 3.3-.6 2.6-2a3 3 0 0 0-2.6 2q-3.2.9-5.7 3.1c0-18.6 9.9-35.6 23.8-47.6q1-.8 2 0c3.3 4-1 5.2-.7 6.3Zm-20.6 23.4c.5 0 1.9-.5.8-1.1q-.8.3-.8 1ZM462 205c2 3 1.2 10.5.4 14-2.2-.3-17 12.1-18.2 13.7q-2 .1-3 1.8c1 1.1 2.6-1 3-1.8 3.6-.7 14.2-7.4 17.8-9.8-4 19.9-23 39.5-43 42.8l.2-.8c2.5-3.4 9-8.7 12.4-12 .5-.8 3-2 2-3.1q-2 .6-3.6 1.7-14.4 8.5-29 16.8-1 .7-.8 1.8-9.6.8-19.3.8.2-.6.7-1.1c7-5.7 23.1-17 28.3-22.8q2 0 3-1.8c-1-1-2.5 1-3 1.8q-2 .4-3.8 1.6L372 268.4q-1 .6-.8 2-6.7-.4-13.6-1.5-1.2 0-1.8-1.1l6.8-6.7q.3-.4.2-1 .6 0 .8-.5-.5-.2-.8.5c-2.3 1.1-11 5.2-11.7 7.2-2.3-.4-12.3-1.9-13.3-3.5l6.6-6.9q.4-.8 0-1.4l-1.7 1.8c-2.2.7-8.4 4-9.5 5.6q-6.3-1.6-12.3-4 1.7-1.7 3-3.8.5 0 .8-.5-.6-.3-.8.5c-1.6.4-4 1.1-4.7 3a100 100 0 0 1-11.4-4.3q-.5-.3-.2-1 1.3-1 1-2.5-1.5 1-3.1 1.6c-1.6.5-16.6-6.3-17.3-7.5q-.3-13.5 0-26.8.4-.5 1 0c9.4 8 18.8 10.4 30.2 14.7q.6.3.4 1c-1-.5 0 .9 0 0 3.5-.5 10 1.8 13.7 2.6 1.4 1-.7 2-1.2 2.7q.5.3 1 .2c4-3.2 12.2-1 16.8.3l-.3.9q-1 3-4 4.1-.6.7-.1 1.3l1-1.2q4.7-2 8.7-4.6c2.5.2 12.8.2 14.1 1.5l-6 6.8q-.2 1 1 1l12-7q.4-.4.3-1 9.3-.2 18.6-.8-4.2 4-7.9 8.2.7.6 1.6.2 7.5-4 14.5-8.5.5-.4.2-1c14.3-2.4 32-6.8 37.5-22q10.6-5.5 20.7-12ZM54.3 220c.4 1.3 2 .7 2.3-.5-.4-1-1.8 0-2.3.5Zm275.5 21c.4 0 1.7-.4.8-1a1 1 0 0 0-.8 1Zm55 10c.2 0 1.8-.4.8-.9a1 1 0 0 0-.8.9ZM49.1 333c-2.5 1.7-6.3 7-8.7 9.3q1.1.4 2.2-.3c2.8-1.7 8.2-4.3 10.5-6.4l6.5 4.3q.5.8.2 1.4C47.6 358 36.2 381 61.4 392a89 89 0 0 0-5.1 7.8q-.1.6.3.9 4.8-2.4 9.4-5.3.7-.4.7-1.3l15.3 2.3.5.8q-1.7 1-2.4 2.7-.7.2-.5.8.5-.2.5-.8 3.5-.8 6.3-3 .3-.2.3-.8 9.8 0 19.4-.8l-10.4 11.9q-.7.7-.4 1.6l23.3-13.5q.9-.4 1.3-1.2c6.3-2 15.4-3.6 22.1-4.8l.4 1q-1.5 2.3-3.8 3.8a10 10 0 0 0-3.4 4 2 2 0 0 0-2 .7c.6.9 1.8 0 2-.8q2.4-.8 4.5-2.2l14.9-8.7q.8-.6.5-1.6c18.4-5.5 47.1-17 61.7-30.2l6.7-6.8q.6.4.6 1l.2 11.7q-1.2-.4-2.3.2c-7.8 6.1-17.3 12.6-24.5 18.9-.5.4-2.2.2-2.1 1.1 1.4 1.4 2.3-.4 3.5-1.1l25.2-14.5c0 3.4 1.2 13.8.5 16.5-13.7 15-41.3 27.2-60.8 32a3 3 0 0 1 1-1.8q3.3-2.5 6.1-5.2c.6-.5 3.7-1 2.6-2.2a3 3 0 0 0-2.6 2.2 47 47 0 0 0-16.7 9.8c-8.5 1.3-17 3.8-25.6 4.1q.2-.7.8-1 20-14.6 39.6-29.6.9-.7.7-1.8l1.6.2q2.4-1.7 4.5-3.5c-.9-1.4-4 1.6-4.8 2.3l-1.2.6q-28.3 16.1-56.5 32.4-1 .4-1.1 1.4c-12.3 1.5-26.1-.5-38.4-2.1q.8-1 2-1.7c1.5-2.3 5.3-5.8 6-8.2q.6 0 .8-.5-.7-.3-.7.5c-3 .5-11.7 5.7-14 8.3q-6-1.7-12-3.8c-1.5-.7-.7-1.7 0-2.6h1.3c.3-.5 2.2-2 1.3-2.5l-1.5 1.2q-1 .3-1.1 1.3c-3.5 2.8-14.5-5-15.7-6.8l1.1-.4c.6.4 1 1.2 1.6.6q2.3-3.4 3.9-7-.9-.5-1.8.1a52 52 0 0 0-7.2 4.6q-1.5-.7-2.5-1.8c-21.4-22.7-8.7-53.7 4.9-76.6q.5-.3.8 0zm420.9-7a2 2 0 0 0-1 1.9q-.9 0-.5.6.5 0 .4-.6a3 3 0 0 0 2.2-.8 28 28 0 0 1 6.8 10.1q-1-.7-1.8.3 1 .9 1.8-.3c3 1.7 11.1 23.3 10.3 28-5 2-19 10.5-24.2 13.8 2.5-9.4.6-17.4-3.6-26q-3.6-7.4-8-14.3l7.4-5.6 8.9-7.9q1.1-.4 1.3.7Zm-161.8 40.7q-.7 0-1 .9c.6 1 1-.6 1-1l10.8 5.8q.8.3.9 1.1-.5.6-.5 1.3-.9 0-1.3.8c.6.8 1-.4 1.3-.8 3.5-1.7 10.9 2.8 13.9 4.6l-.3.5a60 60 0 0 0-4.8 7.9q-.7.2-.6.8.4-.2.6-.8c2 .2 9.7-5 11.8-6.2q5.4 1.3 10.7 3.3.7 1.2.1 2.4-1-.5-1.7.3-1.5 2.3.9.9.6-.4.8-1.2c4.7-2.8 10.5 1.3 15.4 1.7q-3.1 3.6-6.6 7-.5.5 0 1 .8 0 1.5-.5l9.8-6.2q14.1 3.5 28.6 5 .5 0 .4.7l-5.2 6-1.4 2.5q.8.7 1.7.1l12.7-7.5q.4-.6.3-1.4 10.1.4 20.2.4-.6 1-1.8 1.8l-9 12.4q1 .5 2-.3 13.8-7.8 27.4-15.9.4-.7.1-1.4c3.5 0 10-4.5 13-6.6 5.3-2 22.7-12.7 29-16.3 0 26.1-15.9 41-39.4 48.8q-.5-1.5-1.8-1.3c-8.4 5.3-17.3 4.9-27 5.9q.6-.9 1.4-1.4 5.7-4.5 11.5-8.7.3-.4.2-1 1.1-.2 2.2-.7 2-1.4-.4-1.2a5 5 0 0 0-1.8 2l-1.8.5q-1.2 1.5-3 1.8-6.4 3.5-12.7 7.2-1 .3-1 1.4c-6 1-12.3.2-18.3.2 0-.7 10.2-14 11.5-15.9q-.2-.5-.8-.2c-6.3 3.9-18.6 10.2-24 14.2q-7-1-14-2.6c1.7-1.9 7.1-9.4 8.8-10.2-1.5-.8-1.8.9-3 1.4q-5.2 2.6-10.2 5.7-1 .3-1 1.3-1.4 0-2.6-.3a270 270 0 0 1-23-8l-.5-.6q2.7-2.6 5.3-5.4c-1.4-1.2-1.9 1-3 1.4-1.3.5-4.4 1.5-4.5 3.2-3.2-1.2-23.3-10-24-12.2 1.8-.3 4.4-6 5.5-7.6-1.3-.8-7 3.6-8.5 4.1a2 2 0 0 0-1 1.6c-6.9-3.5-13.8-9-20.4-13.2-1.2-1.2.2-3 .5-4.3q.3.1.5-.2-.3-.1-.5.2-1 0-.8-1 .6-11.7.6-23.3 0-.6.6-1 3.8 4 7.8 7.8 5.7 4.5 12 8.5Zm-8.4 16.6c.3-.1 1.6-.6.6-1a1 1 0 0 0-.6 1Zm80 13.8c.2-.1 2-.5.9-1q-.7.2-1 1Zm-28 15c.5 0 1.6-.3.8-.9q-.7.1-.7 1Zm-255 6.2c.4 1.4 2.9-1.2 3-1.9-1.2-.9-2.7.8-3 2Z"/><path fill="#ddcfc5" fill-opacity=".2" d="M81.9 410.1q0-.8.7-.5-.2.5-.7.5"/><path fill="#dad2c5" fill-opacity=".3" d="M171 407.2a3 3 0 0 1 2.5-2.2c1.1 1.2-2 1.7-2.6 2.2"/><path fill="#d8d0c6" fill-opacity=".3" d="M350.8 387.3q-.2.8-.8 1.2-2.4 1.4-1-1 .9-.6 1.8-.2"/><path fill="#dad2c7" fill-opacity=".5" d="M108 263c.7-1.6 1.7-3 3.6-2.4q-1.2 2-3.6 2.5"/><path fill="#dcd0c3" fill-opacity=".3" d="M94.9 253.2q0-.6.5-.8.2.6-.5.8"/><path fill="#dcd1c5" fill-opacity=".3" d="M329.8 241q0-.7.8-1c.9.6-.4 1-.8 1m-6 14.1q.2-.8.8-.5a1 1 0 0 1-.8.5"/><path fill="#dad0c3" fill-opacity=".3" d="M444.1 232.8c-.4.9-2 3-3 1.8a4 4 0 0 1 3-1.8"/><path fill="#dbd2c2" fill-opacity=".2" d="M53.6 190.2q0-1 .8-1.1c1 .6-.3 1-.8 1"/><path fill="#dcd1c3" fill-opacity=".4" d="M351.9 111.3q.6-1.9 2.6-2.3c.5 1.3-1.6 2-2.6 2.2m-255.2 307c.4-1 2-2.8 3.1-1.9-.1.7-2.6 3.3-3 2"/><path fill="#dbd1c4" fill-opacity=".4" d="M352.9 91.2q0-.6.5-1 .3.7-.5 1m32 159.8q0-.7.7-.9c1 .5-.6.8-.8.9"/><path fill="#dbd1c4" fill-opacity=".5" d="M191.7 39.3q.6-2.1 2.7-2.1c1.3.9-2 2-2.7 2"/><path fill="#ded0c6" fill-opacity=".3" d="M236 13.8a3 3 0 0 1-2.5 2.2c-.7-1.2 2-1.7 2.6-2.2"/><path fill="#dad0c3" fill-opacity=".2" d="m421.3 270.7 2.5.1q.2 1.4-1.3 1.3t-1.2-1.4M288 375.7q.2-.4.5-.2-.2.4-.5.2M80 399.8q0 .6-.5.8-.2-.7.5-.8"/><path fill="#dad1c3" fill-opacity=".3" d="M237.8 24.2q0-.8.8-.6a1 1 0 0 1-.8.6"/><path fill="#e5dbcd" stroke="#e5dbcd" stroke-width=".5" d="M255.4 73.1q-4 4.8-7.7 10c-.2.4-1.1 1.2-.4 1.5l13.8-8a8 8 0 0 1 2-2q5 3 7.3 8.4-4.9 5-10 9.4c.7 1 1.7-.8 2.4-1.1q4-2 8-4.6h1c4.7 9.3 5.2 26.8 5 37.2q-1.2 1-1.8 2.3l-10.4 9.8a13 13 0 0 0-3.4 4q-.8 0-.5.6.5-.1.5-.7 2.4-.7 4.6-2.1l10-6 1 .2c.4 4.6 0 8.6-.5 13-2.2-.3-3.7 2.3-5.3 3.5q-.6.6-.9 1.4c-1.3.4-3.3 1-3.7 2.5.7 1.2 3.5-1.5 3.7-2.5q1 0 2-.5l4.2-2.4-.6 14c-2.7.6-4.3 4-5.5 6q-1.2 0-2.2.6-3 3-5.8 6.2-.7 0-.6.7.5-.2.6-.7c2.5-.6 6.4-2.5 7.6-4.9q.2.4.6.7 2.2-1.7 4.8-2.6-1.2 18.8-.9 37.4c-.6 3.7-2.5 4.4-5.3 6q-.9.6-.7 1.5-.8 0-.9.7l.9-.7q2.4-1.8 5.4-3c1.2-.6 1.4.3 1.4 1.5-1.5 22.5-.7 45.1.3 67.7l-.4 4q-.9-.1-.7.7H273l-1 .9-1.2 1-1 1.3a17 17 0 0 0-3.6 3.6q.6.5 1.2.1l4-2.1 1-.6.8-.7a7 7 0 0 0 1.2-3.5q.6 0 .7-.7.7.6.7 1.5c1.1 25 2 50 0 74.9q.2 1.2-.9 1.1c-1.4-2-6.4 2.7-6.6 4.2l-2 1q-1.5 2 .8.7.8-.7 1.2-1.7 2.1-.1 3.8-1.4l2.8-2.7c-.3 10.1-4.4 50.5-17.7 52.5-8.5 0-13.1-12.8-16.3-19.1q1.2 0 2.1-.8l5.6-5.2q.4-.4.3-.9.6 0 .8-.6-.6-.2-.8.6l-1.8.5q-3 1.7-5.8 3.6l-1-.1q-2-4.8-2.6-10 .2-.8.8-1.3 5.2-4.5 10.2-9.2-1.6-.7-2.4.9a61 61 0 0 0-8.3 4.3l-.6.1q-.6-27-.6-54c2.1.5 9.3-7.4 10.2-9q2.6-.5 3.8-2.7c-1.9-.2-3 1.3-3.8 2.8-2.1-.1-8 4-10 5.2q-.4-7.2-.2-14.4 1.3.3 2.3-.4c.7-1 5-4.2 4.8-5.3l1.3-.3 2-1.8q.8-1.2 0 0-1.5-.4-2.2.7l-1.3.6-6.7 3.9q-.3-21.2-.2-42.3c1.8-.6 4.6-2.9 4.3-5q1.2.4 2.3-.3c1-1 6.4-5.5 6.6-6.4q.7-.3.4-1-.4.4-.4 1c-2.7.5-7 3.4-9.7 4.8a5 5 0 0 1-3.6 1l.3-27.3q1.8.6 3.4 0 2.4-2 4.3-4.2-.7-.5-1.6 0a51 51 0 0 0-6 3.7q-.4-19.6-.2-39.3l5.2-4.2q2.7-2.4 5-5.3 2-1.2 3.7-2.8-.3-.6-1-.4l-7.6 4.4-1 1.3c-1.7.1-2.6 1.6-4.4 1l.2-29.3q1 .1 1.8-.5l11.8-11.1q.3-.5.2-.9.7-.1.7-.8-.6.3-.7.8c-3.3 1.1-9.2 5-12.7 6.8h-1l-.6-44.4c.4-9.7 2.4-23 13.4-26.3 1.1 0 5-1.8 5.6-.2ZM242.2 98a3 3 0 0 0-1.3 1q-.7 0-.9.9-1 .2-1 1c-1 1-1 1 0 0q.7-.2 1-1 .8-.2.9-1 .9-.1 1.3-1 .3 0 .5-.5-.6-.2-.5.6Zm.5 63a21 21 0 0 0-4.5 2.4c1.9 1.5 3.5-.2 4.7-1.6.9-.5 3-1.3 2.4-2.7q-1.6.5-2.6 2Zm25.5 34.9c.8 0 4-.8 2.4-2q-1.8.3-2.4 2Zm-29 13q2.6 0 3.6-2.6c-1-.4-3.7 1-3.6 2.5Zm25.7 34.9-1.1 1a10 10 0 0 0-2.4 2.6c.8 1 2-.5 2.5-1.1l1.1-.3q.8-.2 1.3-.7c1.5-.9 4.4-2.3 2.2-4.2q-1.8.6-2.5 2.4-.4.6-1 .3Zm-.6 18.8c1.1.3 5-1.8 4.7-3.2-.7-1.3-4.3 2.4-4.8 3.2ZM245 268q-1.9-.4-2 1.4c.7 1 1.9-.7 2-1.4.5-.2 3.2-.9 2.3-1.9q-1.7.3-2.3 1.9Zm28.6 32.3q-.8 0-1.3.5a84 84 0 0 0-8.2 8c2.6-.3 7-3.4 9.3-4.8q1-1.8.2-3.7.6-.3.9-.8-.7 0-.9.8Zm-5.7 46.9q-1-.2-2 .4-1.4 2.3 1 .8.6-.5 1-1.2 1.8.2 2-1.5c-1-1.3-2 .7-2 1.5Zm-23.3 8c-1.3 0-5 1.2-4.4 3 1.6 1 3.7-1.7 4.4-3q1.7-1.2 0 0Zm25.1 23.8c.3 0 1.9-.3.8-1q-.8.3-.8 1ZM250 401c-1.3 0-3.7.7-3.1 2.4.9.8 2.7-1.6 3-2.3q.5 0 .6-.5-.6-.2-.5.4Z"/><path fill="#e4d8cc" fill-opacity=".3" d="M250 401c-.2.8-2.1 3.2-3 2.4-.6-1.7 1.8-2.4 3-2.3"/><path fill="#e5dccc" fill-opacity=".5" d="M250 401q0-.7.6-.4-.1.4-.5.4"/><path fill="#e2dccd" fill-opacity=".4" d="M268.2 363.8q-.4 1-1.2 1.7-2.3 1.3-.9-.8z"/><path fill="#e3ddcf" fill-opacity=".1" d="M244.7 355.2q1.7-1.2 0 0"/><path fill="#e5dacb" fill-opacity=".4" d="m268 347.2-1 1.3q-2.4 1.4-1-.9 1-.6 2-.4"/><path fill="#dcd3cc" fill-opacity=".1" d="M268 347.2c0-.8 1-2.8 2-1.5q-.2 1.7-2 1.5"/><path fill="#e6dbcc" fill-opacity=".6" d="M247 312c.8-1.4 1.8-2.9 3.7-2.7q-1.3 2.2-3.8 2.8"/><path fill="#e6dbcd" fill-opacity=".4" d="M247 295q.9-1 0 0"/><path fill="#e4decb" fill-opacity=".1" d="M245 268c0 .7-1.2 2.5-2 1.4q.3-1.8 2-1.4"/><path fill="none" d="m268.3 211.9-.9.7q0-.7.9-.7"/><path fill="#e7dcce" fill-opacity=".3" d="M262.2 173.8q0 .5-.5.7-.3-.6.5-.7"/><path fill="#dfd4c7" fill-opacity=".3" d="m242.7 161 .2.8c-1.2 1.4-2.8 3.1-4.7 1.6a21 21 0 0 1 4.5-2.4"/><path fill="#e5dbcd" fill-opacity=".7" d="m242.9 161.8-.2-.8q1-1.5 2.6-1.9c.6 1.4-1.5 2.2-2.4 2.7"/><path fill="#e6dacd" fill-opacity=".6" d="M270.1 150c-.2 1-3 3.6-3.7 2.4.4-1.5 2.4-2 3.7-2.5"/><path fill="#e5dcce" fill-opacity=".4" d="M261.2 140q0 .4-.5.6-.2-.6.5-.7m-12.4 246.2q.2-.7.8-.6a1 1 0 0 1-.8.6"/><path fill="#e5ddce" fill-opacity=".3" d="M242.2 98q-.4.7-1.3 1a3 3 0 0 1 1.3-1"/><path fill="#e4dbce" fill-opacity=".2" d="m264.2 308.8-.7.8q0-.6.7-.8"/><path fill="#cfbfbf" fill-opacity=".1" d="M273.7 300.3q.1-.9.9-.8z"/><path fill="#e4dbcc" fill-opacity=".4" d="M250.7 137.2q.1-.5.7-.8 0 .6-.7.8"/><path fill="#e3dacc" fill-opacity=".4" d="M239 101q-1.5 1.2 0 0"/><path fill="#e2d9cc" fill-opacity=".3" d="M240.9 99q0 .7-.9.9 0-.9.9-1"/><path fill="#dbd1c4" stroke="#dbd1c4" stroke-width=".5" d="m199.3 14-1.3 1.5Q181.4 29 164.7 42.2a2 2 0 0 0-.7 2q-1 1.8-3 2-.8-.2-1 .7c-8.3 4.4-27.9 14.4-18.7 26.3q4 4 9 6.8-1.5 2.7-3.7 5-.5.6-.4 1.3c.6.6 1-.9 1.5-1 1-.7 5.2-1.9 5.2-3.4l12.4 4.8-5 7.6q-.5.9-.7 2c-.9-.4.5.8 0 0q1.2 0 2.1-.7c1.8-1.4 10-4.6 10-6.8q13.8 3.9 27.8 6 .9.1 1.3.7-1.5 1.5-2.6 3c1.3 1 2.9-1.5 4-1.9 3.5-1.3 12.8.3 16.9.6v.6l-2 3.3h-1.4q-1.3 1-2.2 2.4c.5 1 2.2-.6 2.5-1.3l1.2-.4q3.6-2 6.8-4.2c0 3.3.6 24.1-.3 25.6-4.3 1-12.4-.2-17-.2l10-10.6q-1.7-.1-2.6 1.3l-1 .4-11.2 6.4q-.9.6-.8 1.8l-12.6-2.3q-1.2-.1-1.8-1.1 2-2.3 4-4.3-.8-.4-1.7.2-3 1.6-6 3.6-6-1.2-11.7-2.8-2.1-.8-.5-2.3l1.6-.3c.1-1.1 2.7-2 2-2.8q-1.8.5-3.4 1.5l-.2 1.6c-5.7 2-22-6.9-26.8-10.2 1.7-.9 3.2-4.5 4.4-6q.7-1 .2-1.9l-9.6 5.1a84 84 0 0 1-9.7-7.8q1.6-.9 2.5-2.4.8 0 .5-.8a1 1 0 0 0-.5.8c-1.4.2-2.7 1.6-4 .6a40 40 0 0 1-6.6-8.8c1.2-.5 6.2-5.7 5.2-6.5l-1 1.2q-3 .6-5.1 2.7c-2-1-3.5-8.3-3.4-10.5a199 199 0 0 0 27-21.7q2 0 3-1.8c-1-1.1-2.6 1-3 1.8-5.1 1.4-21.4 12.3-27.6 15 3.3-21.9 12.3-32.4 33.8-37.8l-.4.6-15.3 16.5q.7.4 1.6-.1 18.5-11 37.2-21.7 1.1-.6.7-1.8c8.2-1.4 17.1-3.8 25.4-3.9ZM183 95c.2 0 1.7-.4.7-.9a1 1 0 0 0-.7 1Zm263 75q-.8.6-.8 1.4.4.7 1 0 .2-.7-.3-1.3a48 48 0 0 1 13.5 21.7q-3.3 4.5-7 8.7l.3.3q4.2-2.4 8.3-5.1 1 4 1.6 8.3 0 .8-.6 1-10.2 6.5-20.7 12-.1-7.3-1.3-14.5.3-2 2-3-1.8 0-3.4.5l-.6-.3c-1.1-2.5-4.7-6.8-5-9.2l1.3-1.8q1.4.2 1.6-1c-.7-.8-1.2.5-1.6 1-.7 0-2.5 1.5-3.1.7l-6.1-7.8c-.6-1.2-3.9-2.2-2.7-3.8q6.8-6.3 12.3-13.9 3.6-3.8 6.7.4c1 1.5 4.9 3.8 4.5 5.8Zm-19.2 9.2c.2 0 1.7-.4.9-1q-.7.3-1 1Zm16.1 18.8q.7.2 1-.5-.9-.4-1 .5Z"/><path fill="#dcd5c2" fill-opacity=".3" d="M434.2 188.7c.4-.5 1-1.8 1.6-1q-.3 1.3-1.6 1"/><path fill="#dbd0c6" fill-opacity=".3" d="M426.7 179.2q0-.7.9-1c.8.6-.7 1-1 1m16.1 18.8q.1-1 1-.5-.3.6-1 .5"/><path fill="#dcd5c6" fill-opacity=".1" d="M159.6 96.3c.5.8-.9-.4 0 0"/><path fill="#ddd1c2" fill-opacity=".3" d="M182.9 95q0-.6.7-.9c1 .5-.5.9-.7 1"/><path fill="#52504d" fill-opacity=".6" d="M383.2 195.8c0 2-3.3.9-4.4.9q2.2-.6 4.3-.9"/><path fill="#515134" fill-opacity=".2" stroke="#515134" stroke-opacity=".2" stroke-width=".5" d="M378 109q-.2 1.2-1.2 1.7-1.1 0-.7-1a2 2 0 0 1 1.9-.7Z"/><path fill="#272727" fill-opacity=".1" stroke="#272727" stroke-opacity=".1" stroke-width=".5" d="M470 326q.8.2 1 1-1 0-1-1Z"/><path fill="#514f4c" fill-opacity=".9" d="M119.8 30.8q-.2 1-1.1 1z"/><path fill="#55504e" fill-opacity=".4" d="M368.7 16.1q1 0 1.7.9-1-.1-1.7-.9"/><path fill="#56544f" fill-opacity=".5" d="M383.7 502q.9.1 1.5.7-.8 0-1.5-.6"/></svg>