<svg xmlns="http://www.w3.org/2000/svg" style="shape-rendering:geometricPrecision;text-rendering:geometricPrecision;image-rendering:optimizeQuality;fill-rule:evenodd;clip-rule:evenodd" viewBox="0 0 512 512"><path fill="#ef9685" stroke="#ef9685" stroke-width=".5" d="M304.1 277.2q9-.3 18-.2a29 29 0 0 1-5.3 4.3l-2 3.6c-1.8 0-4.4 1.5-5 3.3q-.6 1.8-2.5 2l-6.6-10.3.4-.9q.9-.7 2-.9.6-.3 1-.9Z"/><path fill="#e0b9a1" fill-opacity=".6" d="M266 244q1 .8 1.1 2l-2.4 1q-7.3 4.3-14.8 8.3c-.6.7-3.7 2.9-4.4 2.2a10 10 0 0 1 3-2.5q.8-1.6 2.2-2.6.8.4 1-.3 2.4-.4 4-1.8A49 49 0 0 0 266 244m214.8 87q0 1.1-1.1 1zm4.4 4-.9 1q0-1 .9-1m-103.3 12c.9-1.8 2.5-2 4-3.1q1.5-.3.7 1.1c-1.5.8-3 2-4.7 2m77.4 3-1 1q-.1-1 1-1m-36.5 18q0 1-1 1zM407 380l-.8 1q-.3-1 .8-1m-178.2 3a6 6 0 0 1-5 3c.9-1.6 3.3-3 5-3m66.5 56-1.2 1q0-1.2 1.2-1m-98.6 9.1q0 1-1 .9zm-94.5 14-1 1q0-1.2 1-1M423 488q-1 1.9-3.2 2.1.8-2.2 3.2-2.2M40.7 491q.1 1-1 1z"/><path fill="#e9c4aa" fill-opacity=".4" d="M417 239c-1.4 1.7-2.6 3.2-5 3 .7-1.5 3.4-2.9 5-3m66.8 90q0 1-1 1zm-36.4 28.1q-.6.5-1.4.5.5-.6 1.4-.5M383 363q-1 1.8-3.1 2 .8-2 3.1-2m45.3 5q-.7.6-1.4.8.3-.9 1.4-.7m-7 4.1q-.6.6-1.3.6.3-.7 1.2-.6M234 380a7 7 0 0 1-5 3q1.9-2.6 5-3m169.8 0q0 1.1-1.1.9zM386 392a4 4 0 0 1-3.1 2q.8-2 3-2m-63 29.1a3 3 0 0 1-3 1.9 3 3 0 0 1 3-1.9m174.1 1.7-.3 1.2-1-.3a2 2 0 0 1 1.4-.9m-193.8 11.3-1.2.8q0-1.1 1.2-.8m-94.2 7.1q-.5 1-1.5.8a3 3 0 0 1 1.5-.8m28-.3q-.3 1-1.5 1zm-25.9 1.1q-.7.6-1.5.7.4-1 1.5-.7m74.7.3q-.3.8-1.3.7zm-161.8 1q-.6.6-1.5.7a3 3 0 0 1 1.5-.7M336 447q-1 2-3.2 2 1-2 3.2-2m-153.2 9.2q-.2.9-1.2.7.5-.5 1.2-.7m28 0q-.1 1-1.2.8.6-.6 1.3-.7m49.1 1q-.4.9-1.3.7.6-.5 1.3-.6m-161.9 1q-.4.8-1.5.7zm71.3 9.9-1.2.8q.2-1 1.2-.8m50.6 0q-.6 1.2-2 1 .6-1.2 2-1m-64 3 1 .2q-.4.7-1.3.7zm78 1.2q-.4.9-1.3.7.4-.6 1.2-.7m-155.8 4.8-1.3.7q.3-.8 1.3-.7m62 9a3 3 0 0 1-1.5.5q.7-.5 1.6-.5m-91 8.9-.9 1q0-1 1-1m91 2.3q-.7.6-1.5.6zm358 4 1.2-.5q-.6 1-1.7 1zM320.3 268l-.4.8-1.2.3q.5-1 1.6-1m98 56q-.6 1-1.7 1 .7-.7 1.7-1m54.9 12.2q-.6.7-1.6.7.7-.6 1.6-.7M347 351c-.9 1.5-3.3 3.3-5 3q2-2.6 5-3m107.4 2q-.5.6-1.4.7.4-.8 1.4-.7m-312.5 11c-.6 1.6-3.2 3-5 3 .8-1.6 3.4-2.7 5-3m238 1q-.5 1.1-2 1 .8-1.2 2-1M53 388q-.8 1.9-3 2 1-1.9 3-2m202 9q-.7 2-3 2 1-2 3-2m159 29a3 3 0 0 1 2.7-2c1.3 1-2 2-2.7 2m-311 5a3 3 0 0 1-2.9 2q.8-2.1 3-2m186.5 12q-.7.6-1.6.7.7-.7 1.6-.7m-53 1q-.8.6-1.7.7a2 2 0 0 1 1.6-.6m-6.6 1.3q-.1.9-1.2.7zm49.2 1q-.4.8-1.3.6.6-.5 1.3-.6m-162 1q-.4.8-1.3.6zm95.3 11.8-1.5.7q.5-.8 1.5-.7m-36.4 1.3q-.4.6-1.3.5.6-.5 1.3-.5m28-.1q-.3.8-1.2.7.5-.6 1.3-.7m49 .9q-.3.9-1.3.7.6-.5 1.4-.7m-162.2 1q-.4.8-1.4.7.6-.6 1.4-.7m8.3 1.8q-.6.5-1.4.6.5-.6 1.4-.6m157 0-1.4.7q.4-.8 1.3-.7m-95 9-1.5.7q.6-.7 1.5-.7m-91 8.9q-.7.6-1.5.8a2 2 0 0 1 1.5-.8m60.6 4.3q-.3.8-1.3.6zM289.4 498l-.3 1-1.2.1q.5-1 1.5-1m-170.6 9a15 15 0 0 1 3.7.1 2 2 0 0 1-2 .9q-1.2 0-1.7-1"/><path fill="#ea9786" d="M277.8 267.8q.8 1.5 1.3 3c-3.9 1.1-12 6.7-16 8.9-1.4 1.1-2.4-.1-1.1-1.2q6.6-4.9 13-10 1.2-1 2.8-.7"/><path fill="#e9c4aa" fill-opacity=".5" d="M412 242c-1.7 2.3-4.2 3.1-6.6 4.2-1-1 5.5-4.3 6.6-4.1M15 342.2l1.1.2q-.6.6-1.3.8zm360 8.9q-.7 2-3 2a4 4 0 0 1 3-2M99 374q.4-1 1.5-1c1.2.7-1 1.2-1.6 1m140 3a7 7 0 0 1-5 3c1-1.6 3.2-3 5-3m175 49c0 .8-1.3 1.6-1.9.7q.6-.9 1.8-.7m47 1c0 .8-1.3 1.6-2 .7a2 2 0 0 1 2-.7m-4 19c-.4.8-1.8 2.6-2.8 1.6q.6-2 2.8-1.6M25 465q-.5 1.4-2 1c0-1.1 1.4-1 2-1m199.9 0q-.4 1.3-1.9 1 .4-1.3 1.9-1m198 23a3 3 0 0 1 2.6-1.8c2 1-1.8 1.8-2.5 1.8m-397 1q-.7 2-3 2 .9-1.9 3-2m-5 3q-.5 1.3-1.8 1.8c-1-1.5.8-2 1.9-1.7"/><path fill="#e9c4aa" fill-opacity=".3" d="M421.9 236c-.4 1.4-3.5 3.2-4.8 3 .2-1.1 3.6-3.1 4.8-3m48 102q0 1.1-1.1.7zm-117.7 9.9a7 7 0 0 1-5.2 3c1-1.7 3.2-2.9 5.2-3m38.9 41.2a7 7 0 0 1-5 3c.8-1.8 3-3.2 5-3m-343.2 2q-.8 1.8-2.8 2 .7-2.1 2.8-2M320 423a8 8 0 0 1-5 3c.8-1.8 3.1-3 5-3m-113.7 22.3q-.6.5-1.2.7 0-1 1.2-.7M225 448q-.3 1-1.3.8zm264 4q-.2.7-.8.4.3-.4.8-.3m-241 12q-.2 1-1.2.8.4-.5 1.2-.8m-162 1q-.1 1-1.3.8zm94 9q-.2 1-1.2.8zm57.3 2.3-1.2.8q.2-1 1.2-.8M145 478q-.3 1-1.3.8zm-9.7 11.3-1.3.7q.3-1 1.3-.7M465 236q-.6 1.2-2 1 .6-1.3 2-1m29.7 86q0 1-1 1zm-2.5 9a3 3 0 0 1-1.4.8q.5-.7 1.4-.7M380 348a3 3 0 0 1-3 2 4 4 0 0 1 3-2M96 376q-.5 1-1.8 1 .6-1.2 1.9-1m329 8.9q-.5 1.5-2 1.1.8-1.1 2-1.1M98 434a8 8 0 0 1-5 3 6 6 0 0 1 5-3m121.2 3-1 .9q-.1-1 1-.9m88.8 11c-.4 1.5-3.7 2.9-5.1 3 1-1.5 3.2-3.3 5-3m-192.6 6-1 .9q-.2-1 1-.9M218 469a4 4 0 0 1-3 2 3 3 0 0 1 3-2m-69.7 12-1 .8q-.1-1 1-.9m18 1q-.7 1-1.6.8zm-113.1 2.2q-.7.6-1.6.7.6-.6 1.6-.7m106.2 7.8-1.2.8q0-1 1.2-.8m-47.4 5.3q-.4.6-1.3.5.7-.4 1.3-.5m39.4-.4-1.2 1q0-1 1.2-1"/><path fill="#e9c4aa" fill-opacity=".4" d="M466.8 234q.5 2-1.8 2a9 9 0 0 1 1.8-2m-3.8 3c-.6 1.3-3.7 3.2-5 3 .8-1.4 3.4-2.8 5-3m17.3 101-1.3.7q.4-.7 1.3-.7M342 354q-.5 1.4-2 1 .5-1.3 2-1m98.2 3.2q-.5.9-1.5.7.7-.5 1.5-.7M142 363.9q.6-.8 1.6-1c1.1.8-1 1.3-1.6 1m241 30.2c-.1.7-1.2 1.5-1.9.6q.8-1 2-.6m-59.8 27c0-.8 1.2-1.8 1.8-.8q-.6 1-1.8.8m-218.2 8.8q-.5 1.5-2 1 .7-1 2-1m206 16a3 3 0 0 1-3 2q1-1.7 3-2m-43.6 11a2 2 0 0 1-1.4.8q.5-.8 1.4-.7m-85 3.2q-.6.4-1.4.6.5-.7 1.4-.6m44.7 16.1q-.3.8-1.3.8zm-162 1q-.4.8-1.4.7zm59 13q-.3 1-1.3.8zM23 491q-.5 1.3-2 1 .5-1.3 2-1m124.8 16.1q1.8-.8 3.6 0-.7 1-2 .9-1.2.2-1.6-.9"/><path fill="#eac3aa" fill-opacity=".2" d="M265 242q-.1 1-1.2.9.4-.6 1.2-1m232.2 86-.3 1h-.8q.2-.8 1-1m-63.3 33q0 1.1-1.2.7zm-7.6 8.3-1.2.8q.2-1 1.2-.8M91 378.8c-.6 1.6-9.2 6-11 7.5q-2.4.5-.8-1.4c2.3-1 9.8-6.4 11.8-6m112.8 65q0 1.1-1.2.8.6-.5 1.2-.7m77 1q0 1.1-1.2.8zm-162 1q0 1.1-1.2.8zm74.4 7.4-1.2.8q0-1.1 1.2-.8m-83 4-1.2.8q0-1.1 1.2-.8m152 3-1.2.8q.2-1 1.2-.8m-181 15-1.2.8q.1-1 1.2-.8m51.6 9.6q-.2 1-1.2.8zm28 0q-.2 1.1-1.2.8zm49 1q0 1.1-1.2.8zm-162 1q-.2 1.1-1.2.8.5-.5 1.2-.7m74.4 10.4-1.3.8q.2-1.1 1.3-.8"/><path fill="#eac4aa" fill-opacity=".4" d="M26.8 267.2q.4-2 2.7-2.2c.8 1.1-2 2.2-2.7 2.2M422.3 280a2 2 0 0 1-1.6 1.1q.5-1 1.6-1.1m51 62a2 2 0 0 1-1.2.8q.3-.9 1.2-.8m-96.4 8q-.4 1.3-1.8 1c-.2-1.1 1.2-1.1 1.8-1m93 57c-.3 1.2-4 4-4.8 2.7 1-1.3 3.1-2.7 4.9-2.8m-6 18a3 3 0 0 1-2.9 2 3 3 0 0 1 3-2M190.4 455q-.7.6-1.6.6.7-.7 1.6-.6M412 466.2q.8-1.9 2.7-2c1.3 1-2.1 1.9-2.7 2M20 468c0 .9-1.3 1.6-1.8.7q.6-.9 1.8-.7m165.1 3.2q-.5.7-1.4.7zm-113 2.2q-.5.6-1.4.6zm162.3 4.7q-.7.5-1.5.5.7-.5 1.5-.5m-26.2 9.2q-.6.8-1.4.6zM90.7 507h3.5c-.4 1.7-3 1.5-3.5 0"/><path fill="#e9c4aa" fill-opacity=".3" d="m491.3 268-.3.8-1.2.5q.3-1.2 1.4-1.3M437 359q-.3 1-1.2.8zm3.3 2.3-1.3.7q.3-1 1.3-.7M94 377q-.9 1.9-3 2 .8-2 3-2m-79 8h.9q-.4.8-1.2 1.2zm118.8 1a7 7 0 0 1-5 3c.8-1.6 3.4-2.9 5-3m357 65q-.5 1.4-2 1 .5-1.4 2-1m-224 2q0 1.1-1.2.7zm-162 1q0 1-1.2.7zm59 13q0 1.1-1.2.7zm35.3.3-1.2.7q.3-1 1.2-.8M215 471c-.4 1.5-3.7 2.6-5 3 .5-1.8 3.2-3.2 5-3m-23.7 1.2-1.3.7q.3-1 1.3-.7m202.6 20.6c-.3.9-2 3-2.9 1.8a4 4 0 0 1 3-1.8"/><path fill="#e2c0a5" fill-opacity=".2" d="M210 474q-.3.9-1 1.3-8 4.7-15.7 9.7-.3-1-1.4-1.3l16-9.3q1-.6 2.2-.3"/><path fill="#e2c2a5" fill-opacity=".2" d="M247 402q-.3.9-1 1.2a409 409 0 0 0-15.6 9.8q-.4-.9-1.5-1.3l16.6-9.6q.8-.3 1.4 0"/><path fill="#dbb99b" fill-opacity=".2" d="M400.8 382.1q.3.9 1.3 1.3l-7.7 4.5-.2-1.2c-.1-1 5.6-3.8 6.5-4.6m-89 44.9.3 1.3c-.4 1-5.3 3.6-6.6 4.4q-.6-.6-1.5-1.1 4-2.1 7.8-4.6"/><path fill="#e3c1a5" fill-opacity=".2" d="M88 439.9q-.5 1.2-1.6 1.8-8 4.4-15.4 9.3-.1-1-1.3-1 8-4.9 16.3-9.6.9-.5 2-.5"/><path fill="#e3c1a0" fill-opacity=".2" d="M45 393q-.3.9-1 1.2L28 404q0-1-1.2-1.3l16.7-9.6a3 3 0 0 1 1.6 0"/><path fill="#e8c4aa" fill-opacity=".3" d="M388 360a7 7 0 0 1-4.9 3c.2-1.4 3.6-3 5-3m26.3 16.3-1.3.7q.3-1 1.3-.7M428 383q-.8 2-3 1.9a3 3 0 0 1 3-2m-212 54q0 1.2-1.2.8zm77.1 1q-.3 1-1.2.8zm-61.7 9.3-1.3.7q.3-1 1.3-.8m-108 1.8-.3 1h-1q.3-1.1 1.3-1m100 3.2-1.3.7q.3-1.1 1.3-.7m-8 5-1.3.7q.1-1.1 1.3-.7m44 5-1.3.7q.3-1 1.3-.7m-82 1-1.3.7q.3-1 1.3-.7m-83 4-1.2.7q0-1 1.2-.7m62 9-1.3.7q.3-1.1 1.3-.7M173 478q-.2 1.1-1.3.7zm-113 2q-.3 1.1-1.3.7zm59 13q-.2 1.1-1.3.7zm77 1q-.2 1-1.3.8z"/><path fill="#e1bca4" fill-opacity=".2" d="M137 367q-.7 1.1-1.6 1.8l-13 8.1q-.5-.9-1.5-1.2l14-8.1q1-.6 2-.5"/><path fill="#a08a79" fill-opacity=".1" d="M26.8 402.7q1 .3 1.2 1.3l-12.6 8q-.4-1.3-.2-2.5 6-3 11.7-6.7"/><path fill="#e9c4aa" fill-opacity=".5" d="M407.1 378.2q-.3.9-1.3.7zM423 386a3 3 0 0 1-2.9 2q.8-1.9 2.9-2m-122.7 50.1a2 2 0 0 1-1.1.7q.1-1 1.1-.7m-86.4 2.2c.5.8-.5.6-1 .5zm77.2 1q-.3.8-1.3.6.6-.4 1.3-.6m20 6.7q.4-1 1.6-1.1c1.2.8-1.1 1.3-1.6 1M23 466q-.8 2-3 2a4 4 0 0 1 3-2m200 0q-1 2-3 2 .9-1.8 3-2m-42.6 13-1.3.8q.3-.9 1.3-.8m39.7 1.2q-.6.8-1.5.8.7-.6 1.5-.8m11.3-.1q-.7.6-1.7.6a2 2 0 0 1 1.7-.6M58 481q-.3 1-1.3.8zm114.3 2.9q-.6.6-1.4.7.5-.7 1.4-.7m21.7 11.3q-.4.8-1.3.6.6-.4 1.3-.6"/><path fill="#eeae9d" fill-opacity=".2" stroke="#eeae9d" stroke-opacity=".2" stroke-width=".5" d="M326.1 277.2q1.5-.4 2.8.1 0 .4-.4.6-6 3-11.5 6.7-1 .4-2.2.4l1-1.8c3.7-.6 5.8-3.4 9.2-4.8z"/><path fill="#e9c4aa" fill-opacity=".5" d="M61 252c-.6 1-1.6 2.5-2.8 1.6q1-1.5 2.8-1.6m8.2 13.8q-.6 1.2-1.8 1.9-2.3.3-.5-1.3 1-.4 2.3-.6m374.1 2.2-.5.8-1.2.2q.6-1 1.7-1M378 366c-.2 1.1-2 2.5-3 1.6q1-1.8 3-1.6m-270 62q-.7 2.2-3 2a4 4 0 0 1 3-2m-83 37.1q.3-1.2 1.5-1.2c1.1.7-1 1.3-1.5 1.2m1 23.8q.3-1.1 1.6-1 .9.4 0 1-.7.2-1.6 0"/><path fill="#c5a48e" fill-opacity=".2" d="M316.7 339.3q.2 1.2 1.4 1.1-2.2 1.5-4.8 2.3c-1.9 1.3-3.8 3.5-6.3 3 2-2.4 7-4.5 9.7-6.4"/><path fill="#ecc8a8" fill-opacity=".3" d="M333 449q-.3.8-1 1.2-4 2.5-8 5.3-.5.2-1 .1l-1-.4q2-1.8 4.4-3.2l5-3z"/><path fill="#dcb7a0" fill-opacity=".2" d="M302.9 451q0 .9-.9 1.3-3.8 2.2-7.3 4.8-1 .5-2 .6 0-1-.8-1l9-5.3q1-.4 2-.4"/><path fill="#e9c5ab" fill-opacity=".2" d="m201 235 1.2-.3q-.2 1.3-1.5 1zm270.3 108.3-1.2.8q.2-1 1.2-.8M445 353.9q0 1-1.2.8zm-221 32.2a5 5 0 0 1-1.6 1.9l-.3-1.1q.6-1.1 2-.8m168.8 1 .3 1q-.5 1.2-2 1a3 3 0 0 1 1.7-2m-77.6 39a6 6 0 0 1-1.8 1.9l-.4-1.2q.9-1.1 2.2-.7m-142.8 40.2-1.2.8q.1-1 1.2-.8m14.6 3.6q0 1-1.2.8zm-113 2q0 1.1-1.2.8zm-21.6 21.4-1.2.8q.2-1 1.2-.8m102 2-1.2.8q.2-1 1.2-.8"/><path fill="#eac3ab" fill-opacity=".3" d="m348.4 268-.3.8-1.3.4q.3-1.2 1.6-1.1m118 78q-.5.6-1.1 1 0-1 1.1-1M426 366q-.1 1-1.2 1zm71.4 12-.5.9h-.5q0-.9 1-1m-205 63-1 .9q0-1 1-.8m-11 7-1 1q0-1 1-1m-174 11.1-1.1 1q0-1.1 1.1-1m91.4 3.8q.1 1-1 1zm-7 4q0 1.1-1 1zm-112.9 2q0 1.2-1.1 1zm7.5 3.2-1 .8q0-1 1-.8m51.4 10q0 1-1 .8zm77.1.9q0 1-1 .9zm8.6 2.1-1.2.8q0-1 1.2-.8m-56.1 2-1 .8q0-.9 1-.9m-39.9 7-1.2.8q.1-1 1.2-.9"/><path fill="#e8c4aa" fill-opacity=".4" d="m391.3 268.1-.4.7-1.1.4q.2-1.3 1.5-1m96 59.1q-.6.9-1.6.8.7-.6 1.5-.8M99 374.1a4 4 0 0 1-3 1.8 3 3 0 0 1 3-1.8m21.3 77q-.6.5-1.3.6.4-.8 1.3-.7m76.7 13q-.4 1-1.3.8zm7.3 0-1.2.7q.3-.9 1.2-.8m41.8 1.1q-.5.7-1.4.7zm-162.2 1q-.4.9-1.3.8.6-.5 1.3-.7m7.4 2.8-1.3.7q.4-.7 1.3-.7m105 0q-.6.6-1.4.7.5-.7 1.4-.7m-43 9q-.4.6-1.3.8.4-1 1.4-.8m67 9-1.5.8q.7-.8 1.5-.8"/><path fill="#ecc6af" fill-opacity=".2" d="M438 377v1l-8 4.7q-1 .4-2 .3.3-.8 1-1.3 3.6-1.9 7-4.4 1-.4 2-.3"/><path fill="#b89a8b" fill-opacity=".1" d="M476.7 416.3q0 1 1 1.3c-1.8 1-6.7 4.6-8.7 4.4l1-1.5a58 58 0 0 1 6.7-4.2"/><path fill="#e8c5aa" fill-opacity=".3" d="M382 347c0 1-1.4 1-2 1q.5-1.4 2-1m51.3 18.3q-.6.5-1.2.7 0-1.1 1.2-.7m26.8 78.5q-.8 2.2-3.1 2.2.9-2 3-2.2M274 449q-.3 1-1.3.7zm-162 1q-.3 1-1.3.8zm73.3 8.3-1.2.8q0-1.1 1.2-.8m20.7.7q-.3 1-1.3.8zm-54 15q-.3 1-1.3.8zm77 1q-.3 1-1.3.7zm-2.7 8.3-1.2.8q0-1 1.2-.8M154 489q-.2 1-1.2.8z"/><path fill="#dabc9c" fill-opacity=".2" d="M220.7 387.2q0 .5.2.9 0 .5-.4.8l-6.5 4q-.3-.5-.9-.5.1-1.2 1.2-1.6 3-1.9 6.3-3.6"/><path fill="#ecceae" fill-opacity=".2" d="M476.9 401.7q1.2 0 1.1 1.3c-2 .8-6.1 4.2-8 4 .8-2 5.2-3.8 6.9-5.3"/><path fill="#cc8174" d="M283.9 277.7q1 .9 1.1 2.4c-2-.1-4 2-5.7 2.7s-1.6-.7-.4-1.4q2.6-1.6 5-3.7"/><path fill="#c0a18a" fill-opacity=".2" d="M482.7 398.2q0 1 1 1.4-3 1.5-5.7 3.4 0-1.2-1.2-1.3 3-1.6 5.8-3.5"/><path fill="#d59c8a" fill-opacity=".2" d="M449.6 290q0 1.2 1.1 1.6h.1l-5.5 3.1q-.6.3-1.3.1 3-2.2 5.6-4.8"/><path fill="#e9c3a9" stroke="#e9c3a9" stroke-width=".5" d="M139.2 276.3q8-.4 15.8-.3c-14 9.3-32.8 19.1-47.6 28.1q-1.3 0-.8-1.2c9.3-7.4 25.4-18 32.6-26.6Zm335.4.7h5.4a68 68 0 0 1-6.4 4.1L437.3 302c-1.5.6-1.5-1-.4-1.6 1.9-1.4 5.3-5.2 7-5.6h1.4l5.5-3.1 23-13.4q1-.3.8-1.3Zm-72.9 40.3c-2.3 0-14.8 8.4-17.8 10.2q-.8.6-.8 1.7a6 6 0 0 1-3-1.2q-.7-1.6 1-2.3l33.6-19.5c1.3-.6 1.5.8.4 1.4a29 29 0 0 0-8.1 6.7c-2.4 1.4-3.7.3-5.3 3Z"/><path fill="#c88173" d="m226 324.7-.8-1 5.5-3.7q.8-.3 1 .4l-4.2 3.6z"/><path fill="#e7c4aa" fill-opacity=".3" d="m425.9 276.7 1.3.6q-.4.6-1.1 1zm66 47.2q0 1-1.2.8zm-39.6 30.4q-.6.5-1.2.7 0-1.1 1.2-.7m-168 92-1.2.8q.2-1 1.2-.8m61.7 13.3-.1 1.3-.8.2q.1-.9.9-1.5m-253 1.3q-.3 1.1-1.3.8zm50.3 23.4-1.2.8q0-1.1 1.2-.8m61 13-1.3.8q.3-1 1.3-.8m-160 1-1.3.7q.2-1.1 1.3-.7m185 0-.3.5-1.1.5q.2-1.2 1.4-1"/><path fill="#ba9e89" fill-opacity=".2" d="M442.7 373.4q0 .9 1 1.2-3 1.5-5.7 3.4v-1c1-1.9 2.9-2.9 4.7-3.6"/><path fill="#e9c4aa" fill-opacity=".5" d="M458 240c-.7 1.2-4 4-5 2.6a9 9 0 0 1 5-2.6M108 428c.3-.5 1.4-1.5 2-.6a2 2 0 0 1-2 .6m259.3 70-.3.9q-.7 0-1.3.3.6-1 1.6-1.1"/><path fill="#b49c7f" fill-opacity=".2" stroke="#b49c7f" stroke-opacity=".2" stroke-width=".5" d="M401.7 334.3q0 1 1 1.3l-4.5 2.5-2.2-.6q3-1.4 5.7-3.2Z"/><path fill="#eabfa6" fill-opacity=".9" d="M410 329a130 130 0 0 1-14 8.5l-1.3-.8 12-7.5c.8 0 3.6-2.3 3.4-.3"/><path fill="#e9c5a9" fill-opacity=".3" d="M448 352q-.2 1-1.2.8zm-348 81q-.6 1-2 1 .6-1.2 2-1m98.3 17-1 1q0-1 1-1m19.4 2.1q0 1-1 .8zm52.5 3-1.2.9q.2-1 1.2-.8m-29.2 13q-.2.9-1.3.6zm-57.8 9.1-1.2.8q.3-1 1.2-.8m-8 5q-.4.6-1.2.8.3-1 1.3-.7m-118 8-1.2.8q.3-1 1.2-.8"/><path fill="#bb9c87" fill-opacity=".1" d="M135.6 261.3q0 1 1.2 1.3l-5.6 3 .1-.6c0-1.6 3-2.7 4.3-3.7"/><path fill="#c8a691" fill-opacity=".9" d="m265 239.9 1.1 2h-1q-.9.4-1.3 1l-.7.2-1-.1c0-1.4 1.9-2.4 2.9-3.1m-3 3.1q0 .6-.3 1l-.9-.2q.4-.6 1.2-.8m-1.2.8q0 .8-.6 1.2 0-.8.6-1.2"/><path fill="#d4b39c" fill-opacity=".8" d="M385 465.2c2.5 1.6-1.2 2.4-2 3.4q-.9.4-1.9.3c.2-1.2 3-3 4-3.7"/><path fill="#e8c2ab" fill-opacity=".3" d="M478.3 339.3q-.6.5-1.2.7.2-1.1 1.2-.7M412 374.9q0 1.1-1.2.8zm-112 59q0 1.2-1.2.8zm-135.6 37.4-1.2.8q0-1 1.2-.8M67 476q-.3 1-1.3.8zm6.3 4.3-1.2.8q.1-1 1.2-.8M126 489q-.3 1-1.3.7zm77 1q-.3 1-1.3.7.6-.5 1.2-.7m12.3.3-1.2.8q0-1.1 1.2-.8"/><path fill="#e7c5a9" fill-opacity=".2" d="M466.9 340q-.2 1-1.2.7zm-21.6 18.3-1.2.8q0-1.1 1.2-.8m-327 94-1.2.8q0-1 1.2-.8m143.6 3.6q0 1-1.2.8zm-162 1q0 1.1-1.2.8zm-10.6 13.4-1.2.8q0-1.1 1.2-.8m105 0-1.2.8q.1-1 1.2-.8m-43 9-1.2.8q.2-1 1.2-.8m-9.4 16.6q0 1.1-1.2.8z"/><path fill="#d5897a" d="M396.9 347.1c1 .7 5 1.7 5 2.7-2.3 0-4.8.4-5-2.7"/><path fill="#e9c2a9" fill-opacity=".3" d="M50 390q-.7 1.3-2 1 .5-1.2 2-1m202 9q-.6 1.3-2 1 .5-1.2 2-1m-62 53q-.3 1-1.3.7zm17.2 10.2-1.2.8q.1-1 1.2-.8M147 493q-.3 1-1.3.7zm-113 2q-.3 1-1.3.7z"/><path fill="#7b504c" fill-opacity=".2" stroke="#7b504c" stroke-opacity=".2" stroke-width=".5" d="M397.7 176.8q-.3 1.8 1.5 1.6l-4 2.3q-.6.5-1.1 0 1.6-2.1 3.6-3.9Z"/><path fill="#ebc4ac" fill-opacity=".2" d="m419.3 373.3-1.2.8q0-1.1 1.2-.8M491 451a3 3 0 0 1 2.7-2.1c1.3 1.2-1.8 2.2-2.7 2m-306 4q-.2 1-1.2.7zm17.4 10.3-1.2.8q0-1 1.2-.8m-72 27-1.2.8q0-1.1 1.2-.8"/><path fill="#ebaf98" fill-opacity=".3" stroke="#ebaf98" stroke-opacity=".3" stroke-width=".5" d="M314.8 285c-.6 1.9-3.2 2.7-5 3.2.6-1.8 3.2-3.4 5-3.2Z"/><path fill="#a88d76" fill-opacity=".1" d="m322 455.2 1 .4-3.3 2.5q-1-.3-1.7-1 2-1.4 4-1.9"/><path fill="#ab8978" fill-opacity=".1" d="M213.1 392.4q.7 0 1 .6-1.9.8-3.5 2a3 3 0 0 1-1.6-1c1-.5 3-2 4.1-1.6"/><path fill="#b29784" fill-opacity=".8" d="M145.8 506.1h7.3q-.5 1-1.7 1a5 5 0 0 0-3.6 0q-1.4.2-2-1"/><path fill="#ebc5aa" fill-opacity=".3" d="M250 400q-.9 2-3 2a3 3 0 0 1 3-2m-79 63q-.2 1-1.2.8.4-.5 1.2-.8m51 16q-.3 1-1.3.8zm-156.8 6.2-1.2.8q.2-1 1.2-.8"/><path fill="#715e54" fill-opacity=".2" stroke="#715e54" stroke-opacity=".2" stroke-width=".5" d="M260.7 227q1.8 1.8 1.2 4l-1.5-.2q-.6-1.5-.6-3.2z"/><path fill="#836f5e" fill-opacity=".1" d="M69.7 450q1.2 0 1.4 1-2.2 1.3-4.5 1.9l-.6-.8z"/><path fill="#817064" fill-opacity=".9" d="M449.4 506a2 2 0 0 1-2 1H443c1.4-1.6 4.4-1 6.4-1"/><path fill="#c8a08d" d="M214.8 239.2q0-1 .4-2.3c1.1.3 3-1.7 3.5-.6q-1.2 1.5-2.7 2.5z"/><path fill="#aa917f" fill-opacity=".9" d="M124.4 506.2q-.8.9-2 .9a15 15 0 0 0-3.7-.1l-.9-.4c1.2-1.2 5-.5 6.6-.5"/><path fill="#bb9d87" fill-opacity=".2" d="m463.1 442.1.8.4q-1.7 1.5-3.8 1.3.9-2 3-1.7"/><path fill="#ef9584" fill-opacity=".4" stroke="#ef9584" stroke-opacity=".4" stroke-width=".5" d="m373.1 307-.2-1.1c.6-.8 1.9-2.2 2.9-1.5a6 6 0 0 1-2.7 2.6Z"/><path fill="#8d5c57" fill-opacity=".3" stroke="#8d5c57" stroke-opacity=".3" stroke-width=".5" d="M221.9 219.3v-1.5c.7-.7 2-2.4 3-1.4a7 7 0 0 1-3 2.8Z"/><path fill="#ecb09a" fill-opacity=".6" d="m368.1 280.8.6.5c.3.8-2.6 1.8-3.2 1.9-1.1-1.4 1.8-2 2.6-2.4"/><path fill="#eac5a9" fill-opacity=".2" d="m140 235 1.1-.3q-.1 1.3-1.3 1zm92 209q-.3 1-1.3.7zm41.3 9.3-1.2.8q0-1 1.2-.8m-95.4 5.6q0 1.1-1.2.8zm77 1q-.2 1-1.2.8.6-.5 1.2-.7"/><path fill="#ebc3a9" fill-opacity=".2" d="M124 392q-.6 1.2-1.8 2l-.2-1.2q.6-1 2-.8m-10 104q-.3 1.1-1.3.7zm77 1q-.3 1-1.3.7z"/><path fill="#8c5d56" fill-opacity=".4" stroke="#8c5d56" stroke-opacity=".4" stroke-width=".5" d="m86.8 160.2.2-1.6c.5-.5 2-2.1 2.6-1.2a6 6 0 0 1-2.8 2.8Z"/><path fill="#e8c3ac" fill-opacity=".2" d="M213 455q-.3 1.1-1.3.7zm-54 15q-.3 1-1.3.8.6-.6 1.3-.8m77 1q-.3 1.1-1.3.7zm-57.7 9.3-1.2.8q.1-1 1.2-.8"/><path fill="#e8c4a8" fill-opacity=".2" d="M456 347q-.3 1-1.3.7zm-168 94q-.3 1.1-1.3.7zm-36.7 26.3-1.2.8q.1-1 1.2-.8m-89 23-1.2.8q0-1.1 1.2-.8"/><path fill="#d9b7a0" fill-opacity=".4" stroke="#d9b7a0" stroke-opacity=".4" stroke-width=".5" d="M200.6 507h3.7c-.6 1.5-3 1.3-3.7 0Z"/><path fill="#e9c5ab" fill-opacity=".5" d="m27 235.2 1-.4q0 .8-.7 1.3zM164.4 489q-.6.6-1.2.7.2-.9 1.2-.7m93 8.9-.3.8-1.3.3q.4-1 1.5-1.1"/><path fill="#eac3a9" fill-opacity=".4" d="M462.3 343.2a2 2 0 0 1-1.6.8q.6-.6 1.6-.8M202 445.2q-.4.9-1.3.8.6-.6 1.3-.7m43.4 25.9-1.6.7a2 2 0 0 1 1.6-.7"/><path fill="#867467" fill-opacity=".8" d="M505.2 494.8c0 1 .2 3.5-1.4 3.3q-.2-2 1.4-3.4"/><path fill="#e8c3ab" fill-opacity=".3" d="M459 345q-.3 1.1-1.3.7zM248.3 469.3l-1.3.7q.1-1.1 1.3-.7"/><path fill="#b68b7c" fill-opacity=".9" d="m374.9 235.6.9.3q-.5 1.4-2 .9z"/><path fill="#7c6d61" fill-opacity=".6" d="m507.7 480.7.2 2.2-.7-.1a3 3 0 0 1 .5-2.1"/><path fill="#877669" fill-opacity=".2" stroke="#877669" stroke-opacity=".2" stroke-width=".5" d="M133 471q.8.3.8 1.2 0 .6-.5 1z"/><path fill="#73655a" fill-opacity=".8" d="M24.2 226.1H26q-.6 1-1.9.8z"/><path fill="#eac3a9" fill-opacity=".4" d="M297.8 435.2c.4.9-.6.7-1 .8zm-96.8 56q-.4.9-1.3.7.6-.5 1.3-.6"/><path fill="#77675d" fill-opacity=".5" d="m10.3 234.2-1 1q0-1.1 1-1m-1 1a2 2 0 0 1-1 .8q0-1 1-.8"/><path fill="#e8c3a9" fill-opacity=".3" d="M414.8 373q0 1-1.2 1zM212.4 492l-1 1q-.1-1 1-1"/><path fill="#b69a87" fill-opacity=".5" stroke="#b69a87" stroke-opacity=".5" stroke-width=".5" d="M60.7 507h2.7q-1.4 1.8-2.7 0Z"/><path fill="#e8c3ab" fill-opacity=".5" d="M262 243h1.1q-.3 1-1.4 1z"/><path fill="#e9c4a9" fill-opacity=".5" d="m15 359.1 1.2.3-1.5.8z"/><path fill="#e3bca5" fill-opacity=".4" d="M260.2 245q-.4 1-1.6 1 .6-1 1.6-1"/><path fill="#c2a790" fill-opacity=".4" stroke="#c2a790" stroke-opacity=".4" stroke-width=".5" d="m8.3 236-1 1.3q-.3-1.3 1-1.3Z"/><path fill="#8b5d55" fill-opacity=".4" d="M369 235h1.3q-.6.9-1.6 1z"/><path fill="none" d="M250.7 252.4q.6 0 1-.3-.2.7-1 .3"/><path fill="#937e70" fill-opacity=".9" d="M47 406.8q0 1-1 1 .3-.7 1-1"/><path fill="#dcb89f" fill-opacity=".3" stroke="#dcb89f" stroke-opacity=".3" stroke-width=".5" d="m201.1 256.9-.4 1.1h-.7q.3-.9 1.1-1.1Z"/><path fill="#d8b69f" fill-opacity=".4" stroke="#d8b69f" stroke-opacity=".4" stroke-width=".5" d="m498.3 263.9-.6 1.1q-.6 0-1-.3.5-.8 1.5-.8Z"/><path fill="#94806f" fill-opacity=".2" stroke="#94806f" stroke-opacity=".2" stroke-width=".5" d="M24.2 226.1v.8H23q.2-.9 1.1-.8Z"/><path fill="#e6bfa7" fill-opacity=".2" stroke="#e6bfa7" stroke-opacity=".2" stroke-width=".5" d="m416.3 344.3-.4.6h-1q.3-1.2 1.4-.6Z"/><path fill="#a88f7e" fill-opacity=".9" d="M123.3 449h.7q0 1-1 1z"/><path fill="#8b5c56" fill-opacity=".5" d="m73.2 211.1 1 .3q-.6.4-1.4.6z"/><path fill="#b19883" fill-opacity=".3" stroke="#b19883" stroke-opacity=".3" stroke-width=".5" d="M490.2 239.7q.5.4.7 1l-.7.3z"/><path fill="#8d5d57" fill-opacity=".3" d="M399.3 175.8q-.6 1-1.6 1z"/><path fill="#ed9e8c" fill-opacity=".5" d="m15.2 307 1 .3q-.6.6-1.4.9z"/><path fill="#eac3a9" fill-opacity=".5" d="M426.2 319q-.4 1-1.5 1 .6-.8 1.5-1"/><path fill="#f19886" fill-opacity=".5" d="M97.2 269.2v.6l-1.5.4q.5-1 1.5-1"/><path fill="#ec9a8b" fill-opacity=".3" stroke="#ec9a8b" stroke-opacity=".3" stroke-width=".5" d="m465 277.2 1-.4q0 1.2-1.3 1.2z"/><path fill="#efbea3" fill-opacity=".2" stroke="#efbea3" stroke-opacity=".2" stroke-width=".5" d="M304.1 277.2q-.4.6-1 1 0-1.2 1-1Z"/><path fill="#a7917e" fill-opacity=".3" stroke="#a7917e" stroke-opacity=".3" stroke-width=".5" d="m507.2 482.8.7.1q0 1-.8 1.1z"/><path fill="#856a5f" fill-opacity=".7" d="m301 279-.3.9q-.6-.7.4-.9"/><path fill="#272626" stroke="#272626" stroke-width=".5" d="M270.2 5.8q2.7 0 2.6 2.7c5.7 72.1-16.5 144.5 0 216q.3 1.5 1.7 1.6h73q1 0 1.5-.7c5.8-45.4 15.5-91.2 26.3-135.7 6.7-24.9 13.3-53 26-75.4l1-2.4-.3-.6q2.1-.3 2.2-2.3 1.8-1.2 3.9-1.8.7-.4 1-1l.8-.4 3 .7 4 3.5c.8 3 3.6 6.4 3.1 9.5-4.4 68.3-13.5 137.8-1.8 205.8q.4.8 1.3.8c16.6-.4 36.9 1 53-1 32.4-3 39 16.2 38.2 44.4-.7 22.8-2 46.2-1.9 69 .3 48 6.2 94.2-1.1 142.2a3 3 0 0 0-.5 2.1l-.1 1.2c-.4 2.9-2.1 8.2-1.9 10.8q-1.5 1.3-1.4 3.3c.7 2.4-3 2.1-4.4 2.7l-1.2.4c-4.1-.2-12 1.4-16.5 1.8l-8.3 1c-1.8.2-9.6.5-10.7 1.7-3.1-1.2-9.5.9-13.3.4-2 0-5-.7-6.4.8-79.7 5.5-159 2-238.7.2l-3.7-.1-26.4-.4c-1.5-.8-4.1-1.1-5.4.2-4.8-1-10.7-.3-15.6-.7h-28.8c-1.6 0-5.4-.6-6.6.5-4.8-.7-18 .3-23.5.3h-3.6c-9.3-.2-18 1.4-27.3.2q-1.4-.3-2.7 0c-17 .2-42 6.2-54.6-8.6-3.6-5-4.3-54-4.4-63-.5-49 2.5-98 .2-147-.4-16.8-3.3-36 5.4-51.2l1-1.3a2 2 0 0 0 1-.8l1-1c3-3.8 8.2-5.8 12.7-7.2h1.1q1.3.1 2-1 15.7-1.9 31.4 0 .9 0 1.4-.6 9.6-67.5 25.4-133.7c6.8-25.4 13.3-54.6 26.9-77.3q.9-1 1-2.4l-.2-.6q1-.5 1-1.4 1 0 1.4-1l2.4-1.4q2 .2 3.7-.5a8 8 0 0 1 6.2 4.1c1.9 2 3.5 4.5 3.3 7.3-4.5 67-13.6 139.5-2 206q0 1.5 1.5 1.6h73q.9 0 1.5-.7 7-42.5 14.3-84.8c6.6-34 13.4-68.8 25.4-101.3 2.7-6.5 7.8-19.3 12.7-24q1.5-3.3 4-5.4a5 5 0 0 0 1-1.8q.4-.9 1.3-.9zM80.8 162c-.4 1.2-.7 3.2 1.2 3-4.2 3.8-5 23.1-6.7 29.2a7 7 0 0 0-.1 2.7 72 72 0 0 0-2 14.2l-.4 1c-.1 1-.4 3 1.2 3-1.4 1.4-3.8 9.6-2.4 10.8q15.4.3 31 .2a75 75 0 0 0 10.6-.5q1.3-1.5 1-3.2-1.7-11.2-2.5-22.7 0-1-.9-1.8 1-2.2.2-4.7c-.2-2.5.5-11-1.1-12.6q1-1.2-.1-2.5a416 416 0 0 0 .2-28q.8-26.7 1.9-53.4.4-1.2-.6-2c3.3-5.3 4.9-54.3 5.6-64.2a9 9 0 0 0-.5-3.5 2 2 0 0 0-.8 1.3L105.4 61a950 950 0 0 0-24.6 101ZM220 199.3q-.9 2.5-.9 5.4a345 345 0 0 0-2.2 18.1c-1 4.2-1.6 9.7-1.7 14.1l-.4 2.3h-.2l-1.4 17q-.9 6.1-1.2 12.6l-1.1 6.4c-.5 0-2 12.2-1.7 13.6l-.5 2.3c-.5 2.5.3 10.8.6 13.7v3.3a96 96 0 0 0 7.5 24 64 64 0 0 0 14.3 20.2 56 56 0 0 0 14 9.1c3.7 1.4 13.5 4 17 2.8 14.8-1.1 29.3-16.9 33-30.2q1.5-2 2-4.4c1.7-1 4.9-17.5 3.2-19.4l-.5-2.5a48 48 0 0 0-8-17.5 4 4 0 0 0-2-3.3c0-1.4-3.5-6.4-4.8-6.8q0-1.5-1.1-2.4-2.2-3.6-4.8-6.8-.5-1.6-1.4-3.1-2.3-4.6-5-8.8a11 11 0 0 0-1.7-4q-1.6-4.6-3.9-9 0-1.2-1-2v-2.2L265 240c-.7-2-1.9-7.6-3.1-8.9q.6-2.3-1.2-4c-.3-4.2-1-7.5-2.8-11.3 0-2-.3-10.8-1.9-11.7q.5-1.4 0-2.7-.4-6.3-1.1-12.6c-.2-1.4.2-3.7-.9-4.9a858 858 0 0 1 5-106c0-.7.4-2.7-.7-2.7 2.7-8.2 3.2-36.5 3.8-46.7q0-.8-.5-1.3A968 968 0 0 0 220 199.3ZM369.3 172c-.2.8-1 3 .3 3-3.7 10-6.2 33.7-7.4 45.1 0 1.4-2.4 6.4.7 5.7a785 785 0 0 0 37.7 0q2 .7 3.8.1 1-1.4-.6-2.3 1-2.2.2-4.4-.9-5.4-1.2-10.8 0-1.1-1-1.6.8-2.7.2-5.6c-.6-4-.9-21.4-1.8-23.6q-.3-1-1-1.9c2.2-2 .3-10.9 1.1-14-.2-.6 0-2.7-1-2.7a39 39 0 0 0 0-15.6c2.2-12 1.8-32.7 3-45.8l4.7-69.3q.1-.8-.5-1.3a907 907 0 0 0-37.3 145Zm79.5 61.9-5.7.2c-7 .8-14.5.3-21.2 1.8q0-.5-.5-.6c-5.3-.2-11.2-1.1-16.4-.4l-9.7-.6q-.8 0-1.2.5c-4 0-15.4-.8-18.4 1l-.8-.3c.2-1.5-3.7-.9-4.6-.6H369c-1.2 0-4-1.4-4.8-.1q-9-.4-18.2-.1-3.3-.2-6.7 0-9.2-.4-18.5.2l-3.5-.2a898 898 0 0 0-35.6.1c-2.3-.1-7.4-1-4.6 3q3 8.7 7.6 16.8.5.3 1 .2c0 3.4 3.3 7.7 5.1 10.5q.5.9 1.3 1.4 0 1.5 1.5 2a510 510 0 0 0 25 .3q.8 0 1.3-.3a725 725 0 0 0 27 .4l1.1-.4 41.8.4 1.1-.4a1210 1210 0 0 0 50.7.2l1.2-.2a1781 1781 0 0 0 47 .5l1.2-.5q2.7.6 5.4.2c1.4-.5 1.4-2.8 1.3-4l.5-1.1q0-3.4-.2-6.7.3-9.9-7-16.5l-.8-1a37 37 0 0 0-7-3.7 45 45 0 0 0-16.4-2q-.6-.7-1.5-.6-8.2 0-16.5.6Zm-367.6 1c-7.5.3-17.3-2.3-23.4 3.5l-3.6 1.4q.4-1.8 2.4-1.8 1.1-1.6 2.5-2.7-1-1-2.6-.8l-29.4.6c-15.6-.2-12.5 23.4-12.3 33.4-.1 2.9 6.9 1 8.5.6q1 .6 2.4.9a5214 5214 0 0 1 70 0l1.5-.3q13.8.5 27.8-.1a950 950 0 0 0 28.7.4q11.6 0 23.2-.3 11.2.5 22.5.2.7-.6.7-1.4.6-5.2.6-10.6l.4-1.1-.1-1.6q.9-6.8 1.2-13.4c.2-1.8 1.6-6 0-7.2l-1.2.4c-4.9-.9-13.1-.5-18.2-.1q-4.3-.6-8.5-.2a253 253 0 0 0-18.5 0 212 212 0 0 0-15.9.1q-9-.5-17.9 0l-12.6-.5q-.8-.2-1.3.5-9.2-.6-18.3.2c-1.9-.2-7.1-1.1-8.6 0ZM15 286q0 10.5.3 21l-.4 1.2c-.1 3.8.1 4.2 4.1 4a83 83 0 0 1 38.9 20 51 51 0 0 0 15 10.3q5.4 2.4 11.3 3 7.5 1 15-1.3c30.8-8.2 58.5-41.5 92.7-30.7l3 1c.9.3 3.3 2.1 4 .8a1218 1218 0 0 1 .7-32.1c0-1.4.7-6.2-.2-7q-6-.3-12.3-.2h-32q-7.8-.1-15.8.3-28-.6-56 0-6.7-.6-13.4 0a999 999 0 0 0-54.3 0q-.7.4-.6 1.2zm288.2-7.9q-1.1.1-2 1-1 0-.4.8l6.6 10.2a73 73 0 0 1 5.4 17.6q.3 5 .9 9.9A53 53 0 0 1 337 311q4.5-.2 9 .8l12.2 3.3c-.1 1 1.3.9 1.9.8q0 1 1 1.4 9.7 4.8 19 10.7 1.3 1 3 1.2.1.6.9.7c.2 1.2 9.1 5.9 10.7 6.8l1.3.8 2.1.6c0 1.2 3 1.6 3.7 2.3A59 59 0 0 0 423 346c29.5.3 43.4-30.6 73.4-33.1q.7-.5.7-1.4L497 298q.2-6 .1-12l-.1-7.6q0-1.4-1.5-1.4H480l-5.4.1-8.6-.2-1 .4q-18.9-.4-37.8 0l-1.3-.5q-1.7.4-3.5.3a1006 1006 0 0 0-28.4 0 553 553 0 0 0-22 .1 457 457 0 0 0-26-.1c-4.5.2-13-.5-17.1.3q-1.5-.5-2.8-.1-2-.3-4-.2-9-.1-18 .2-1-.2-1 1Zm-1.4 69.4c-25.7 31-78.5 30.5-97.1-7.5-1.7-2.6-3-10.2-5.7-11.5-35.9-16.4-50.5-4.1-78.3 16.5-14.3 9.5-30.3 9.7-46.6 5.8a314 314 0 0 1-26-9.9q-.3-.9-1.2-1.2l-10-5q-1.3-1.5-3.5-2c-2.4-2.3-7.4-4.9-10.4-6.6l-2.7-2.2c-5.8-3.3-5-4.3-5.5 3.2q.3 1.8 0 3.8 0 5.6.4 11.2l-.3 1v4.8q0 5.6.3 11.2l-.4 1q.3 1.8.2 3.5V385l-.2 1.2.2 2.5a432 432 0 0 0 .3 23.2c-.9 2.9-.3 7.4-.3 10.5l-.2 3.6a243 243 0 0 1 0 17l.2 16.7q0 11.3-1 22.7l.2 2.4c.3 2.9 1.8 8.2 5 9-.1 2.6 7.8 4.8 9.8 5.5q6.3 1.1 12.7.7c12.6-1 25-.8 37.7-1q6 .3 12.3 0a815 815 0 0 0 28 .1h18.5a607 607 0 0 0 32.4 0h49.7l7.5.2 1.2-.5c4.3.9 13.3 0 18.1.4h8.6l1.3-.4c3.5.7 13.2.4 17.2.2q6.7.3 13.6.1l1.2-.1q9 .3 18 .2l4.7-.1a547 547 0 0 0 25 0h29l1.3-.3c5 .3 13.5.7 18.2-.6 3.7 2 15.1.5 19.8 1h57.5c10.2-.2 31.8 4.6 34.3-9.9q.6-32.6.1-65.3l.4-1.2-.1-4.5-.1-11.6v-3.4q.2-5.7 0-11.6l.2-1.7q0-5.6-.5-11.1l.5-1q-.2-3.2-.2-6.6v-32.1a67 67 0 0 0-.2-10.3l.3-1v-6.6c.3-2.2-3.2-1-4.2-.8-30.8 8.1-43.7 41.7-81.2 32.2l-9.8-2.9c-.2-1-4.2-2-5.1-2.7-3.5-1-20.5-12.4-22.6-11.3q-4 1.5-7.6 3.5c0-1.9 2.4-2 3.6-2.7.6-1 3.8-2.1 2-3.3-7.5-4.1-15-8.5-23.4-10.6a9 9 0 0 0-4-.8c0-1.1-4.8-1.2-5.7-1.5-6.7-1.1-23.6 1.8-27.5 7.6-2.8 7-5.5 13.4-10 19.6Zm13.4 35.5c3-35 50.6-26.8 44.3 1-6.1 23-42.6 25.5-44.3-1Zm-166.5 2c2-33.7 50-28 44 1.3-5.6 23-43.5 24.7-44-1.3Zm177.8-6c.1 11.9 13.1 21.7 20.1 9.2 7.5-18.9-18.6-29.7-20.1-9.2ZM160 381c0 18.3 21.6 19.7 21.1 3.5.8-15.8-19.5-21.4-21.1-3.5Zm287.2 6q1 .3 2 .3 3.3 1.5 6.4 3.6 2.4 2.1 4.4 4.5.7 1.5 1.7 2.7c7 37.2-48.5 40.6-43.4 6.6 3.3-14.2 14.6-21.3 28.9-17.8Zm-359.8 8.3q0 1.7 1.3 2.6 3 5.8 2.4 12.4v2.4c-6 14.3-13 17.5-28.2 17.6l-4.5-.7q-5.7-2.2-9.4-7l-1.6-3.7c-1.3-4-1-7-1.2-11.2q1 0 .8-.9l.2-2.5c8.2-18.8 24.6-20 40.2-9ZM428.9 406c2.4 21.5 26.7 16.1 20.3-3.7-4.3-12.6-20.8-10.4-20.3 3.7Zm-371.5 1.9c3.5 22.7 25.2 15.9 21-.9-3.1-14.2-20.2-14.4-21 .9Zm181 33.9-1.3-1c-2-5.3-2.3-9-2.3-14.8a84 84 0 0 1 3.7-8.2c11.2-19 43.8-11.4 41 11.3-2.4 19.7-29.4 26.7-41.2 12.6ZM246 426c.3 18.3 21.3 20 21.4 3.5-.1-16.5-19.7-20.7-21.4-3.5Zm-99.9 4.9q3 .4 5.8.2 0 .4.5.7c7.6 2.3 13.8 7.1 15.2 15.4l.3 3.6a22 22 0 0 1-11.6 19.2q-.5.4-.3 1.2a70 70 0 0 1-22.3 1q0-.9-.8-1.2-1.5-.6-2.9-1.8c-6-4.4-7.2-12-7-19.1q.8-.2 1-1.2.3-3 2-5.6a22 22 0 0 1 20.1-12.4ZM385 465.2c-1 .7-3.7 2.5-3.9 3.7a28 28 0 0 1-7 3 34 34 0 0 1-19.8-1.2c-4.1-2-6.3-6-8.4-9.8v-1.3q0-1-.5-1.7c-2-42.1 62.5-30.6 39.6 7.3ZM134.4 450c.5 18.5 21.4 19.7 21.4 3.4 0-15.7-18.8-21.3-21.5-3.4Zm238.4-8q0-.6-.3-1.1c-5.7-4-12.8-1.7-15 4.8-5 21.2 20.8 26 20.4 7.7.5-2.7-2-11.2-5-11.4Z"/><path fill="#8c796c" d="m174.2 506.6-.8.3-3.7.1-1-.2c1.4-1.3 4-1 5.5-.2"/><path fill="#90615a" fill-opacity=".8" d="M89.8 235.1c-2.6 3-11 6.8-15 8.2-1.2 1.9-1.8 2.5-4.1 2.6l-1.6-.2c2.7-4 9.2-7 12.1-10.7 1.5-1 6.8-.1 8.6.1"/><path fill="#e9c4aa" stroke="#e9c4aa" stroke-width=".5" d="M259.8 227.6q0 1.6.6 3.2l-10.4 6.9c-1.2.9-2.5-.3-1-1.3l3-2zm207 6.4a9 9 0 0 0-1.8 2q-1.4-.3-2 1c-1.6.2-4.2 1.5-5 3a9 9 0 0 0-5 2.6c1 1.4 4.3-1.4 5-2.6 1.3.2 4.4-1.7 5-3q1.4.2 2-1 2.3 0 1.8-2c5.9-.6 11 .5 16.5 2L432 267.6q-.6.7-.7 1.5-20.1.1-40.4-.3l.4-.7 56.7-32.8q.6-.5.8-1.3 8.3-.7 16.5-.6.9-.2 1.5.6Zm-23.7.2q-.1.5-.7.8L389 267.4q-1 .7-.9 1.8-20 0-40-.4l.4-.7c7.7-4.8 16.6-8.6 23.5-14.3 2.4 0 30.2-16.3 33-18.8 5.3-.7 11.2.2 16.5.4q.5 0 .5.6c-1.2-.1-4.6 1.9-4.8 3-1.7.1-4.4 1.5-5 3-1.2-.1-7.7 3.2-6.7 4.2 2.4-1 5-2 6.6-4.1 2.4.1 3.6-1.4 5-3 1.4.1 4.5-1.7 4.9-3 6.7-1.6 14.3-1 21.2-2Zm-416 1 .2 1q-2.5 3.7-4.9 7.8-.6.9 0 1.8 8.4-4.4 16.7-9.3.9-.6.9-1.7l16.5-.2q1.5 0 2.6.8-1.5 1.2-2.5 2.7-2 0-2.4 1.7c-1 .6-3.8 1.4-4 2.7 1.4 1 3.5-1.4 4-2.7l3.6-1.4c6-5.7 15.9-3 23.4-3.4-3 3.6-9.4 6.7-12.1 10.7a9 9 0 0 0-5.4 4.5q-2.1-.3-2.7 1.8-1.9 0-2.8 1.6c1.2.9 2.2-.6 2.8-1.6q2 0 2.7-1.8 2.4-.3 4.3-1.8c.6-.8 3.2-1.4 2.7-2.5 2.3 0 2.9-.7 4.1-2.6 4-1.4 12.4-5.1 15-8.2q9-.8 18.3-.2c-7 7.3-21.2 15.5-27 22.2q-1.8.3-3.1 1.5-4.2 3.3-8.5 6.3a1 1 0 0 0-.3.9q-1.2 0-2.3.6-1.8 1.6.5 1.3 1.2-.7 1.8-2l1.9-.3 10-6a7 7 0 0 0 1.7-2.1A262 262 0 0 0 122 235q9-.7 18 0l-.3.8L95 268.4a2 2 0 0 0-.7 1.9l-68.5-.3q-1.3-.2-2.4-.8c-1.6.3-8.6 2.3-8.5-.6-.2-10-3.3-33.6 12.3-33.4Zm128.7-.3a253 253 0 0 1 18.5-.1q0 .7-.7 1-19.2 12.6-38 25.5c-1.2 1-4.3 2-4.3 3.7-2.5-.2-2.8 1.2-3.9 3q-1 1-2.4 1.7-14 .6-27.8.1v-.6l3.8-1.7 54-31.2q.6-.6.8-1.4Zm165 .1q9.3-.6 18.5-.2 0 .7-.7 1-24 14.4-47.8 29.6c-1.8-2.8-5.2-7-5-10.5 3-2 5.2-4 8.9-5a28 28 0 0 0 11-5.8q6-3.4 12.3-6.7c.6-.8 3-1.3 2.8-2.4Zm25.2-.2q9-.3 18.2 0l-.7 1-7.2 4.9c.6 1 1.9.5 2.8.6-2 1.1-4.3-.5-6.1 1.1l-40 25.1q-.9.7-.6 1.5-9.5 0-18.8-.2-1.4-.5-1.5-2l1.6-.6 51.4-29.7q1-.6 1-1.7Zm48 .1c-.7 1.6-24.3 15.7-27.8 17.7q-1 .6-1.1 1.7c-2-.5-19.9 11.8-23 13.4q-.6.6-.8 1.5-10.7 0-21.4-.4l.4-.8q24-13.5 47.7-27.4 3-1.5 5.8-3.8 1.5.5 2-1c3-1.7 14.3-1 18.3-.9Zm96.1 6.1q.5 0 .8-.3 7.4 6.7 7.1 16.5c-3 .8-13.6 8.3-17.2 10.2q-.9.6-.7 1.9-18.6 0-37.3-.5l.5-.8zm-287.9.8q-.3 6.7-1.2 13.5a2 2 0 0 0-1.7.3q-5.6 3.4-10.8 7.3-3.3 1.6-6.3 3.7l-5.3 3.2q-11.6.3-23.2.3 0-.6.7-.9 24-13.5 47.8-27.4Zm11 14.3.2-3.3 7.3-4.5q1.5-.6 1 .8-4.5 3.2-8.5 7ZM271 255a11 11 0 0 1 1.8 4.1q-8.9 4.6-17.5 9.7-.6.3-1.1-.1 0-.7.7-1.2c3.3-2.1 13.4-11.5 16.1-12.5Zm-60 20.2q.7-3.2 1-6.4c5.3-2.9 11.3-6 16-9.5.9-.6 2.3-.3 1.7.8-6.4 4-12.5 11.7-18.7 15.1Zm-184.1-8c.8 0 3.5-1 2.7-2.2q-2.2.1-2.7 2.2Zm469.8-2.5 1.1.3c.1 1.2 0 3.5-1.3 4q-2.7.4-5.4-.2 0-.5.3-.8 3-1.2 5.3-3.3ZM33 276c-5 3.1-12.7 8.1-18.1 10v-8.5q0-.8.6-1.2 8.8-.3 17.5-.3Zm36.8.3q6.8-.6 13.4 0A281 281 0 0 1 50.6 296q-.6-.8.2-1.6 9.3-9 19-18ZM172 276h15c-.7 1.4-6 3.8-7.5 5q-22.8 13.2-45.9 26-.5-.9.4-1.6a1444 1444 0 0 0 38-29.4Zm150 1 4.1.2-1.2 1.2c-3.3 1.4-5.4 4.2-9 4.8a3 3 0 0 1 1-1.9q2.8-1.8 5.1-4.3Zm24 0h9c-1 1.3-18.1 10.7-21 12.4-1.5 1.1-2.8.2-1.2-1 2.2-1.7 12.9-9.5 13.2-11.4Zm48 0h11l-23.7 14q-1 0-.8-1c2.4-2 12.8-11 13.5-13Zm-194.5 6.2-.4 3.8c-4.4 1-23.3 13-28.8 15.9-1.4.6-1.6-.8-.4-1.5q13.7-9.8 27-19.8 2.5-1.4 2.6 1.6Zm297.7-2.3v5q-2.5.8-4.7 2.1-15 8.7-30 17-.5-.4 0-1c7.9-6.3 16-12.5 24.8-17.4q.4-.3.5-.8c2 0 7.4-4 9.4-5Zm-151.2 31q-4.5-1.1-9-1 .8-1.4 2.4-2 9.4-5.7 19-10.8.6.4.2 1l-12 10.9a2 2 0 0 0-.6 1.8Zm151-14q.3 2.6.1 5l-18.6 10.2q-.5-1 .4-1.7c3.1-2.2 15.8-12.8 18-13.5ZM57.8 332.2l-6-4.7L86 307.1c.8-.6 2.3-.2 1.6 1q-15.2 11.6-29.7 24.1Zm137-17.6q-1.5-.7-3-1.1c.6-2.1 4-3.1 5.7-4.2q.4 1.4-.3 2.6-1.1 1.4-2.4 2.7Zm-122 28a51 51 0 0 1-7-4c7.7-6.4 32.2-18.8 42.1-25.4 1.5-1 2.7.2 1.2 1.2a1174 1174 0 0 0-36.3 28.1Zm26.2 1.6a37 37 0 0 1-15 1.4q22.2-12.4 44-25.3c1.4-1.1 2.4.1 1 1.2-3.3 2.6-29.8 21.1-30 22.7Zm398.1-23q-1.3 0-2.4.8l-1 1a13 13 0 0 0-3 1.7l-3.5 2.5q-.9.2-1.5.8l-1.9 1-1 1a12 12 0 0 0-3.1 2 47 47 0 0 0-6.5 4.2q-.8.1-1.6.7l-1.6 1-1.3.8-3 2q-1.9 1-3.5 2.5-.9.2-1.5.8a36 36 0 0 0-4.8 3l-1.2.7a18 18 0 0 0-3.5 2.6q-.8 0-1.5.6l-4.8 3-1.2.8q-1.9 1.1-3.5 2.5-.8.2-1.5.7l-3 1.9-1.8 1.1-1.2.8q-2 1-3.5 2.6-1 0-1.6.7l-1.8 1-1.1 1-2 1-1 1q-2 .8-3.6 2.3-.8 0-1.4.6-.9.7-1.9 1.2l-1.2.9-2.9 1.7a34 34 0 0 1-7 4.3l-1 .9q-1 .8-2 1.2c-1 .8-6.6 3.7-6.5 4.6l-1.5.5a3 3 0 0 0-1.6 1.9c-2-.2-4.2 1.2-5 3q-2.4-.3-3.1 2-1.2-.4-2 .6c.6 1 1.8 0 2-.6q2.1-.3 3-2a7 7 0 0 0 5-3q1.4.2 2-1l1.4-.2 11.9-6.9.8-1 1-.2q.6-.2 1.2-.8a39 39 0 0 1 5-2.7l5-3 .8-.6q.7 0 1.2-.6l5-2.8.7-.5q.8-.2 1.4-.7l4.9-2.8.6-.5q.9-.2 1.3-.8a80 80 0 0 0 10.1-5.7l.7-.6q.8-.2 1.4-.6l5-2.8.6-.6q.9 0 1.4-.7l3.8-2 1-1 .8-.2 1.4-.7a18 18 0 0 1 3.9-2l1.1-1.1a47 47 0 0 0 6.9-4l5-2.7.7-.6 1.3-.7 4-2 .9-1 1-.3q.6-.2 1.1-.6 1.9-1 3.5-2.3a42 42 0 0 0 5.2-2.7l.9-.2q.4 5.2.1 10.3l-1.6.6-52.7 33.6c-1.8.7-3.8 1.7-4.6 3.6q-1.2-.1-2.2.3-3.3 2.5-7 4.4-.6.5-1 1.3-2 0-3 1.9-1.3 0-2 1.1-2.1.1-2.9 2-1.2-.2-1.9.7c.6.9 1.8.1 2-.7a3 3 0 0 0 2.8-2q1.5.3 2-1.1 2.3 0 3-2 1.2.2 2.2-.2 3.9-2.5 7.9-4.7 2.8-2 5.8-3.4l53.3-30.9V355q-1.1 0-2.2.5l-46.2 29.8q-1.1.6-1.6 1.6c-14.3-3.5-25.6 3.6-28.9 17.8-5 34 50.3 30.6 43.4-6.6 5.7-1.7 27.5-15.7 34.7-19.2h.5q.5 5.6.5 11a3 3 0 0 0-2.4.3l-18 11.5c-1.7 1.5-6 3.3-7 5.2a8 8 0 0 0-4.8 2.8c.9 1.3 4.4-1.5 4.9-2.8 1.9.3 6-3 8-3.9q2.8-2 5.7-3.4 6.8-3.8 13.3-7.9.4 5.9.1 11.6c-1.9-.5-17.7 11.3-20.4 13a58 58 0 0 0-6.8 4.2l-.9 1.5c-1.4-.3-4.6 1.6-5 3a3 3 0 0 0-3 2 2 2 0 0 0-2 .7c.7.9 2 .1 2-.7q2.1-.3 3-2a7 7 0 0 0 5-3c2 .2 6.9-3.5 8.7-4.4q9.6-5.6 19.3-10.9.3 5.8.2 11.6c-2-.5-28 19-31.7 21.6q-1.9.3-2.4 2.2-2.1-.3-3 1.7-2.2.3-3.1 2.2-2.1-.3-2.9 1.6c1 1 2.5-.8 2.9-1.6q2.3 0 3-2.2 2.3.2 3.9-1.3a1275 1275 0 0 0 32-18.8l1 .3q.4 32.7 0 65.3c-2.6 14.5-24.2 9.7-34.5 9.9h-53.7q4.8-4.2 10.2-7.7.6-.6.9-1.3 2.2-.2 3.2-2.2c.7 0 4.5-.7 2.5-1.8q-1.8 0-2.5 1.8-2.4 0-3.2 2.2c-2-.2-3.8 1.5-5.3 2.7q-4.5 2-8.7 4.5a2 2 0 0 0-.8 1.9c-4.7-.6-16 1-19.8-1-4.7 1.2-13.1.8-18.2.5q0-.4.3-.8 21.8-15.5 43.8-30.5.8-.4.8-1.3c.6-.1 4-1 2.7-2q-2 .1-2.7 2c-1.8-.5-10.3 5.9-12.6 6.6l-43 24.8q-1 .5-1 1.5-9.4.2-18.6 0 0-.5.7-.8 16-10.2 31.6-20.9 1.1-.8-.1-1.2 1.9-1.8 4-2.8.9-.6 1.2-1.4 3.7-1 7-3 1 0 1.9-.4c.8-1 4.5-1.8 2-3.4 23-37.9-41.6-49.4-39.6-7.3q-1.3 0-2.5.7l-67.6 39q-1 .5-1 1.4c-4.1.2-13.9.5-17.3-.2l.2-.8 62.5-40 3.3-2.4 1-.1q4-2.8 8-5.3.7-.4 1-1.2 2.1 0 3-2c.6.2 2.6-.3 1.5-1q-1 0-1.4 1-2.3 0-3.2 2h-1.4l-5.1 3q-2.4 1.4-4.4 3.2-2.1.6-4 1.9l-70 40.4q-1 .6-.8 1.7c-4.8-.3-13.8.5-18.1-.4l.3-.5 61.4-39q1.1-.6 2-1.6 1-.1 2-.6 3.5-2.5 7.3-4.8.8-.4.9-1.3c1.4-.1 4.6-1.5 5-3a3 3 0 0 0 3-2c.6.2 2.9-.3 1.7-1.1q-1.2 0-1.6 1-2.1.3-3 2c-2-.2-4.1 1.6-5.1 3.1q-1-.1-2 .4l-9 5.2-.8.9a6803 6803 0 0 0-70 40.2 2 2 0 0 0-.8 1.3q-9.3.3-18.6.2.3-1 1.3-1.1l1.3-.8q2-1.2 3.5-2.6.9 0 1.5-.7l2-1 1-1 3-1.7 3.5-2.5q.8-.3 1.5-.8l2-1 1-.9 1.8-1 1.2-.8a22 22 0 0 0 3.4-2.6q1 0 1.6-.6.8-.6 1.5-1.5.8 0 1.5-.6l1.8-1q.6-.2 1.2-.7 3.3-2.1 6.5-4.5l1.6-.7 1.6-1 1.2-.8 3.1-2a24 24 0 0 0 3.6-2.5l1.3-.7a46 46 0 0 0 6.1-3.8q2-1 3.6-2.6.8 0 1.4-.7l1.7-1 1.2-.8 3.1-2q1.9-1 3.4-2.4.9-.1 1.5-.8l2-1 1.2-1 2.9-1.7q2-1.2 3.5-2.6.9 0 1.6-.7l1.9-1.1 1-.9 3-2q2-1 3.7-2.2a2 2 0 0 0 1.2-.7 6 6 0 0 1 2-1.2l1.2-.8q.9-.9 2-1.4c1.3-.8 6.2-3.3 6.6-4.4l1.3-.3a6 6 0 0 0 1.8-2q3-.4 5-3 2 0 3-1.9 1 0 1.8-.8c-.6-1-1.8 0-1.8.8a3 3 0 0 0-3 1.9c-2 0-4.3 1.2-5 3q-1.5-.4-2.2.8l-1.2.2q-3.7 2.5-7.8 4.6-1.6 1.6-4 2.4l-1.2.7-2 1.3-5 2.8-.7.5-1.3.6-3 1.8-.7.5-1.3.8-5 2.7-.7.6q-.8 0-1.3.6l-5 2.8-.7.5-1.4.7-4.9 2.8-5 3-.7.6q-.8.1-1.4.6l-3.7 2-1.2.8-.7.5q-.8.2-1.4.7L248 464l-1.3.8-.6.4-1.4.7-5 2.8-5 3-.8.6q-.7.1-1.2.7a30 30 0 0 0-5 2.7l-.7.5-1.3.8-5 2.8-.6.4q-.8.2-1.5.8l-3.8 2-1 .9-5.1 2.8-.6.6-1.4.6-5 2.8-.7.6q-.7.2-1.3.6l-3.7 2-1.3.9-.7.5q-.8 0-1.3.6l-1.8 1-1.2.8q-.7.6-.5 1.4h-18.6l1.4-1.4q3.6-2 7.1-4.2.7-.8 1.6-1.3l12.5-7.2q7.8-5 15.8-9.7.7-.4 1-1.2c1.3-.4 4.6-1.5 5-3a4 4 0 0 0 3-2q1.4.2 2-1 2-.2 3-2 1.5.2 1.9-1.2c2 .2 3.7-1.3 5-2.6-.7-1.3-4.7 1.8-5 2.6q-1.5-.3-1.9 1.1-2.1.2-3 2-1.4 0-2 1a3 3 0 0 0-3 2c-1.8 0-4.5 1.3-5 3q-1-.1-2 .4l-16 9.3-6.5 4.2q-9 4.5-17.5 9.7-.8.5-.7 1.4-9.3.2-18.7.2.7-.7 1.6-1.2l1.2-1 1.7-1 1.2-.7q2-1.3 3.9-2.3l1.2-1 1.7-1q.6-.2 1.2-.7l.8-.5q.6-.1 1.2-.7l2-1.2 1-.9q2-.8 3.6-2.3.8 0 1.4-.7l1.7-1 1.3-.7q.8-.7 1.8-1.2l1.2-.8.8-.5 1.3-.8 1.6-1 1.2-.8 3.5-2.4q1 0 1.7-.8l1.6-1 3-2q.8-.2 1.3-.7l.6-.6q.8-.1 1.4-.7l1.7-1 1.2-.7 3.1-2 2-1.3 3-1.8q1.8-1 3.5-2.4.8-.2 1.5-.7l1.7-1.1a31 31 0 0 0 4.8-3.3l1.6-.7 2.9-1.7q1.8-1.2 3.5-2.6.8-.1 1.5-.6l3-1.8q1.8-1.1 3.4-2.5l1.6-.7q1.7-.6 2-2.3c11.8 14 38.8 7 41.1-12.6 2.8-22.8-29.7-30.4-40.9-11.4a84 84 0 0 0-3.7 8.2c-5.6 2.4-9 7-13.7 10-.4-2.7-3.8.7-5.1 1l-1.3.8-.9.5-1 .5-3.6 2.4a49 49 0 0 1-6.5 3.5l-.8.6q-.7 0-1.2.7l-4 2.1-.9.9-.7.4q-.8 0-1.5.6l-3.6 2-1.3.7-5 3-.8.5q-.7.2-1.2.7l-5 2.8-.8.7q-.8 0-1.3.5L171 463l-1.3.8-.8.5q-.7.1-1.2.6l-5 2.8-5 3-.7.6-1-.1q0-.7.4-1.2a22 22 0 0 0 11.6-19.2q1 0 2-.5 30-18.8 60.4-37.3a409 409 0 0 1 15.6-9.8q.7-.3 1-1.2 2.1 0 3-2 1.5.3 2-1 2 0 3-2a2 2 0 0 0 2-.8c-.7-.8-1.8.1-2 .8q-2.3 0-3 2-1.5-.2-2 1a3 3 0 0 0-3 2h-1.5l-16.6 9.7c-20 12.2-40.9 23.6-61.2 35.5-1.4-8.3-7.6-13-15.2-15.4a1 1 0 0 1-.5-.8q1 0 1.7-.6a7661 7661 0 0 1 66.8-41.5q.4-.3.3-.8l1.5-.1a5 5 0 0 0 1.6-2 6 6 0 0 0 5-3 7 7 0 0 0 5.1-3 7 7 0 0 0 5-3c.6.1 2.5-.4 1.4-1q-.9 0-1.3 1a7 7 0 0 0-5 3q-3.3.4-5.2 3a7 7 0 0 0-5 3q-1.3-.4-1.9.9l-1.4.3-6.3 3.6q-1 .4-1.2 1.6c-1-.4-3.1 1.1-4 1.6L149 428.6q-1.6 1-2.8 2.3a22 22 0 0 0-20.2 12.4q-.9-.7-1.8 0a89 89 0 0 0-8.5 4.6l-3.7 2-1.3.8-.7.6q-.7.1-1.3.7a104 104 0 0 0-10 5.7l-.6.5-1.5.7-5 2.8-.6.6q-.8 0-1.4.7l-4.9 2.8-.8.5q-.7.2-1.3.7l-3.8 2-1.2 1-5 2.7-.5.6-1.5.7-4.9 2.7-.7.5q-.8.2-1.4.7l-4.9 2.8-.7.5q-.8.2-1.3.7-2 .9-3.5 2.4-1 0-1.6.7l-3.7 2q-.7.2-1.2.7l-.7.6-1.4.6q-2 1.2-4 2l-.8 1.1-.8.2q-.8.2-1.3.8l-5 2.7c-1.1 1-4.2 1.7-3.7 3.6-2-.7-9.9-2.9-9.8-5.5q1.3-.5 1.9-1.7 1.3 0 2-1 2.1 0 3-2.2h1.5q.8-.6 0-1-1.2-.2-1.6 1-2.1.3-3 2.1-1.5-.3-2 1c-1-.1-2.8.3-1.8 1.8-3.2-.8-4.8-6.1-5-9q.9.2 1.8-.3l50.3-30.7q.5-.4.3-.9 2.3-.6 4.4-1.9 7.5-4.8 15.4-9.3 1-.6 1.5-1.8c1.9.3 4.2-1.4 5.2-2.9q3-.4 5-3 1.2 0 2-1a3 3 0 0 0 2.8-2q1.5.3 2-1 2.3 0 3-2.1a2 2 0 0 0 2-.6c-.5-1-1.6 0-2 .6a4 4 0 0 0-3 2 2 2 0 0 0-2 1q-2.1 0-2.9 2-1.4 0-2 1.2a6 6 0 0 0-5 3q-3 .3-5 2.8-1.2 0-2 .5l-20 11.7-49.7 28.6-2.2 1.7q1-11.4.9-22.7.9 0 1.7-.5a3215 3215 0 0 0 46.1-28.9C78 430.2 85 427 91 412.7l4-2 6.6-4.6q7.5-4.2 15.1-8.8c1-1.2 4.1-1.8 4-3.6l1.5.3q1.2-.8 1.8-2c1.9.1 4.1-1.4 5-3a7 7 0 0 0 5-3c1.5 0 4.5-1.5 5-3 .5.2 2.5-.4 1.5-1.1q-1 .2-1.6 1.1c-1.8-.2-4 1.6-5 3-1.7.1-4.3 1.4-5 3q-3 .4-5 3-1.2-.4-1.9.8l-1.3.5q-8.2 4.5-16.2 9.6L91 410.2q.6-6.4-2.4-12.3a3374 3374 0 0 1 46.8-29.1q1-.7 1.6-1.7c1.7-.1 4.3-1.5 5-3.2.5.3 2.6-.2 1.5-1q-1 .2-1.6 1c-1.6.3-4.2 1.5-5 3.2q-1 0-2 .5l-14 8c-11 7-22.5 12.9-33.6 19.7-15.6-11-32-9.8-40.2 9-2.3 0-28 15.7-32.1 18 0-3-.6-7.5.3-10.4L28 404l16-9.8q.7-.4 1-1.2 2.1 0 3-2 1.3.3 2-1 2-.1 3-2 1.1.2 2-.7c-.7-1-1.8 0-2 .7q-2.2 0-3 2-1.5-.2-2 1-2.2 0-3 2h-1.5l-28.4 16.4q-.3-10.4-.1-20.7.9 0 1.6-.5L52 366c8-4.9 15.3-9 22-15.2 16.3 4 32.4 3.7 46.7-5.8 27.8-20.6 42.4-32.9 78.3-16.5 2.6 1.3 4 8.9 5.7 11.4 18.6 38.1 71.4 38.6 97.1 7.6 1.5.4 3.7-1.5 5.3-1.8 2.5.5 4.4-1.7 6.3-3q2.6-.9 4.8-2.3l1.5-1.3 29.3-16.4c8.3 2.1 15.9 6.5 23.3 10.6 1.9 1.2-1.3 2.2-2 3.3-1.1.8-3.5.8-3.5 2.7q-.6-.4-1.2-.3l-12.6 7.6q-.7.4-.7 1.3c-2 .1-4.3 1.3-5.2 3q-3 .6-5 3-1.5-.2-2 1.2c-1 .4-2.8.4-3 1.6 1 1.5 2.3-1 3-1.6q1.5.3 2-1.2c1.7.3 4.1-1.4 5-3a7 7 0 0 0 5.2-3q.9.2 1.8-.4l12.7-7.4q.3-.3 0-.8 3.6-2 7.6-3.5c2.1-1.1 19.1 10.4 22.6 11.3.2 3.1 2.7 2.7 5 2.7l9.9 2.9c37.5 9.5 50.4-24 81.2-32.2 1-.2 4.5-1.4 4.1.8ZM20.2 324q0 .6-.8.8a23 23 0 0 0-4.7 2.3c.4-7.5-.3-6.5 5.5-3.2Zm205-.2.8.9q-4.7 3.6-9.2 7.3-.9-1-1.2-2.3c1.6-2 7.2-4.6 9.6-6ZM23 326c3 1.7 8 4.3 10.4 6.7-4 1.3-13 7-17.2 9.5l-1-.2-.4-11.2c1.8 1 7.5-3.3 8.1-4.8Zm274.3 3.5q-.6 2.4-2.2 4.4c-2.6-.4-4.7 4-6.7 2.4q4-3.2 7.8-6.8.6-.4 1 0ZM414 329q.3 1-.7 1.8c-2.3 2.2-10.4 7.3-11.5 9.6-.8-.7-3.7-1.1-3.6-2.3a228 228 0 0 0 15.8-9Zm25.1 2c-.6 3.7-15 12-16.1 15q-3.6 0-7-1 0-.4.3-.7zm-208 21.3-3.4-3.4q.6-1.2 1.8-1.9l25-14q.3.5-.2 1c-5 3.9-18.6 16-23.2 18.3ZM36.9 334.7l9.9 5q.9.3 1.2 1.3a835 835 0 0 0-31.8 18.4l-1.1-.3q-.3-5.6-.3-11.2 1.2.5 2.3 0 9.7-6.7 19.8-13.2ZM245 361.4l-5.3-2.7 24.2-14.4q.9-.3 1.6.2l-18.6 16zM381.9 347q-1.5-.4-2 1-2 .3-3 2c-.6-.1-2-.1-1.8 1q-2.1.2-3 2a2 2 0 0 0-2 .7c.7 1 1.6-.1 2-.8q2.1 0 3-2 1.5.4 1.9-.9a3 3 0 0 0 3-2c.6 0 2 0 2-1 1.6 0 3.1-1.2 4.6-2q.8-1.4-.7-1.1c-1.5 1.1-3.1 1.3-4 3Zm6.1 13c-1.3 0-4.7 1.6-4.9 3q-2.3 0-3.1 2-1.5-.2-2 1-2.1-.1-3 1.6c1 .9 2.7-.5 3-1.6q1.2.1 2-1 2-.2 3.1-2a7 7 0 0 0 5-3c1.5.2 11-5 9.5-6.2-1 0-9.4 5-9.6 6.1Zm-72.9 23c1.7 26.5 38.2 24 44.3 1 6.3-27.8-41.4-36-44.3-1Zm182-23.4v11.7c-2.6-.4-32.7 21-37.2 24q-2-2.3-4.4-4.3-3-2.2-6.4-3.7 24-13.6 48-27.7ZM148.6 385c.5 26 38.4 24.3 44 1.3 6-29.4-42-35-44-1.3ZM99 374a3 3 0 0 0-3 2q-1.3-.2-2 1-2.1 0-3 2c-1.9-.4-9.4 5-11.7 6q-1.5 1.8.8 1.4c1.8-1.5 10.4-5.9 11-7.5q2.1 0 3-2 1.3.3 1.9-1 2 0 3-1.8c.5.1 2.7-.4 1.6-1.2q-1.2.1-1.6 1.2Zm-53 33.7c.2 4.1 0 7.2 1.3 11.2-5.6 1.9-25.8 14.6-32.5 18.2V426c3.1 0 26.2-16.3 31.3-18.3Zm2.9 14.9q3.7 4.8 9.4 7-21.8 12-43.4 24.7l-.2-11.3q1.2.3 2.4-.2zm365 3.4q-1.2-.2-1.8.7c.6 1 1.9.1 1.8-.7.8 0 4-1 2.7-2a3 3 0 0 0-2.7 2Zm77 25q-1.5-.4-2 1-.5 0-.7.5.5.2.8-.4 1.4.3 2-1.1c.8 0 3.9-1 2.6-2.1a3 3 0 0 0-2.7 2Zm-368.8-1h1c-.2 7.1 1 14.8 7 19.2q-1 .8-2.5 1l-47.3 27.4q-1 .4-1 1.5c-12.6.2-25 0-37.6 1q.3-1 1.3-1l1.3-.9q2-1.3 4-2.2l1-1 1.8-1q.6-.2 1.2-.7l5-3 3.6-2.5q.8-.2 1.4-.8l1.7-1 1.2-.8q2-1 3.6-2.4.8-.2 1.5-.8a59 59 0 0 0 8-4.9l1.8-1 1.2-.8.7-.5 1.4-.8 1.9-1.1 1-.8 1.8-1 1.2-.8.7-.6 1.3-.7 1.8-1q.6-.2 1.2-.7l3.6-2.5q.8-.1 1.4-.7l2-1 1-1 3.9-2 1.1-1 1.8-1 1.2-.8q2-1.3 4-2.3l1-.9 1.8-1 1.2-.8.7-.6q.8 0 1.3-.7zm223 11h.8c2.1 3.7 4.3 7.7 8.4 9.7-3.1 5-16.3 7-17.4 10.6-1.4-.3-25.7 14.2-29 16.1q-1 .7-.9 1.8l-18-.2q0-.6.3-1zm-320 4c-.7 0-2.2-.1-2 1a4 4 0 0 0-3.2 2q-1.2-.3-1.8.7c.5.9 1.9.2 1.8-.7q2.3 0 3.2-2 1.5.4 2-1c.4.2 2.5-.4 1.4-1.1q-1.2 0-1.5 1.2Zm131 6.2-.4.8a27 27 0 0 0-5 2.8l-.7.5a83 83 0 0 1-12.3 6.7l-1 .9-5 2.8-.8.6-1.3.6-5 2.8-.7.5-1.2.8-5 2.7-5 3-.7.7q-.7 0-1.3.5t-.5 1.3l-18.5-.1c.6-2.2 36.7-23 41.6-26q.5-.3.5-1c8 1.2 14.4.3 22.3-1Zm237.8 21.7a4 4 0 0 0-2.9 1.8c1 1.2 2.6-1 3-1.8q1 .3 1.8-.6c-.5-.9-1.5 0-1.9.6Zm91 4.2q0 .8.6.9c.9-.6-.2-1-.7-.9Zm13.3 4.1-.5.7c-3.7 1.4-9.8 7.6-13.8 4.6q-1.2-1.6-2.2-3.5c4.5-.4 12.4-2 16.5-1.8Zm-24.8 2.8c-3 2.3-7.1 5.2-10.7 1.7 1-1.2 8.9-1.5 10.7-1.7Z"/><path fill="#e9c4a9" fill-opacity=".6" d="M224.9 465c.3-.9 4.3-4 5-2.6-1.3 1.2-3 2.7-5 2.5"/><path fill="#ebc2ac" fill-opacity=".3" d="M93 437c-.9 1.5-3.2 3.2-5 2.9q2-2.5 5-2.9"/><path fill="#e7c4a9" fill-opacity=".2" d="M129 389a6 6 0 0 1-5 3q1.8-2.5 5-3"/><path fill="#eac5aa" fill-opacity=".4" d="M139 383q.5-1 1.5-1.1c1 .7-1 1.3-1.6 1.1"/><path fill="#d9bd9c" fill-opacity=".2" d="M388 360c.2-1.2 8.6-6.2 9.6-6.2 1.6 1.3-8 6.4-9.6 6.1"/><path fill="#e9c4aa" fill-opacity=".5" d="M372 353c-.3.6-1.2 1.6-1.9.7a2 2 0 0 1 2-.8m-32 2c-.7.7-2 3.2-3 1.7.2-1.2 2-1.2 3-1.6m-101 22q.5-1 1.4-1c1.1.6-.8 1.2-1.3 1m181 11c0 .8-1.3 1.6-1.9.7q.7-.9 2-.7"/><path fill="#cfac96" fill-opacity=".2" d="M366.7 339.3q.3.4 0 .9l-12.7 7.3q-.9.6-1.8.4 0-.9.7-1.3l12.6-7.6q.6 0 1.2.3"/><path fill="#e7c7ac" fill-opacity=".2" d="M63.7 250.2q-.7 1.9-2.7 1.8.6-2.1 2.7-1.8"/><path fill="#e9c2a9" fill-opacity=".4" d="M54.2 239.9c-.5 1.2-2.6 3.6-4 2.6.2-1.3 3-2.1 4-2.6"/><path fill="#885a54" fill-opacity=".9" d="M403.9 223.7q1.5.9.5 2.3-1.8.6-3.8 0 1.4-1.4 3.3-2.3"/><path fill="#bd3b39" fill-opacity=".1" stroke="#bd3b39" stroke-opacity=".1" stroke-width=".5" d="M111.3 94.8q1.1.6.6 2l-1.9.2q.3-1.3 1.3-2.2Z"/><path fill="#7a524e" fill-opacity=".4" d="M402.2 12q-.2 1.1-.8 2.2c-.4-.7-.5-2.6.8-2.3"/><path fill="#7a524d" fill-opacity=".6" d="M112.2 12q-.2 1.3-1 2.4c-.1-.8-.3-2.7 1-2.4"/><path fill="#895a55" fill-opacity=".6" d="M404.3 9q-.2 2.1-2.3 2.3.3-1.9 2.2-2.4"/><path fill="#8c5c56" fill-opacity=".5" d="M114.4 9q-.4 1-1.3 1c-.3-.8.9-.7 1.3-1m-1.3 1q-.3.9-1 1.3 0-1.1 1-1.3m116.8 184.2c0-1.5 1.6-2.6 2.8-1.8q-1.2 1-2.8 1.8"/><path fill="#875a53" fill-opacity=".8" d="m416.9 10-4-3.5-3-.7v-.3q6-1.8 7 4.5"/><path fill="#825751" fill-opacity=".7" d="M270.2 5.8q-3.8.5-7.5 1.4 1.2-1.3 2.8-2.2c1.4 0 3.8-.5 4.7.8"/><path fill="#ef9584" stroke="#ef9584" stroke-width=".5" d="M33 276q18.4-.1 36.8.3a731 731 0 0 0-19 18q-.9.7-.2 1.6c2.3-.1 29.5-17 32.6-19.6q28-.6 56 0c-7.2 8.6-23.3 19.2-32.6 26.7q-.4 1 .8 1.1c14.8-9 33.6-18.8 47.6-28.1h17a1444 1444 0 0 1-38 29.4q-.9.7-.4 1.7 23.1-12.9 45.9-26.2c1.6-1 6.8-3.5 7.5-4.9l12.3.2c1 .8.2 5.6.2 7q0-3-2.5-1.6l-27 19.8c-1.3.7-1.1 2.1.2 1.5 5.6-3 24.5-15 29-16q-.4 14.3-.5 28.4c-.6 1.3-3-.5-3.9-.7l2.4-2.6q.8-1.4.3-2.7c-1.7 1-5 2-5.7 4.2-34.2-10.8-61.9 22.5-92.8 30.7.2-1.6 26.7-20 30-22.7 1.4-1.1.4-2.3-1-1.2q-21.8 12.9-44 25.3-5.7-.7-11.2-3Q90.6 328 109 314.3c1.5-1 .3-2.3-1.2-1.1-9.9 6.5-34.4 18.9-42.1 25.4a75 75 0 0 1-8-6.5q14.5-12.5 29.7-24.2c.7-1-.8-1.5-1.6-.9l-34 20.4a83 83 0 0 0-33-15.2 23 23 0 0 0 6.6-4.3q6.3-6 12.2-12.3-.8-.6-1.7 0-10 5.7-19.8 11.6l-1-.2q-.4-10.5-.3-21c5.4-2 13-7 18.1-10Zm295.9 1.3c4-.8 12.6-.1 17.1-.3-.3 1.9-11 9.7-13.2 11.3-1.6 1.3-.3 2.2 1.2 1.1 2.9-1.8 20-11 21-12.4l17 .1-3.9 3.7c-.8.3-3.7 1-2.7 2.4.7-.1 3.6-1.1 3.3-2l7.6-4.1q8.8-.2 17.7-.1c-.7 2-11.1 11-13.5 13q-.4 1 .8 1l23.7-14h17.4a19 19 0 0 1-4.9 4.1c-1.3 1.4-1.1 2.3-3.5 2.6q-1.2.9.2.9 1.2-.9 2.7-1.2 1.5-1.7 3.8-2.3a2 2 0 0 0 1.6-1.1q1.5-1.5 3.8-1.8.7-.3 1.1-1 18.9-.4 37.9 0l-.4.8-15 12a67 67 0 0 1-5.7 4.8c-1.8.4-5.3 4.2-7.1 5.6-1.1.7-1 2.2.4 1.6l36.3-20.9a68 68 0 0 0 6.4-4.1h15.5q1.5 0 1.5 1.3a2 2 0 0 0-1.6.5q-3.7 3-7.4 5.7-1 .6-.2 1.3 0 .5-.5.8a187 187 0 0 0-24.8 17.4q-.5.6 0 1 15-8.3 30-17 2.1-1.4 4.6-2 .1 6-.1 12c-2.4.6-15 11.2-18 13.4q-1 .7-.5 1.7l18.6-10.1v8.6q0 .8-.7 1.3c-30 2.5-43.9 33.4-73.4 33.1 1.1-3 15.5-11.3 16.1-15 3.6-2 8.2-4.4 10.7-7.9.7-.2 3.8-.9 2.7-2q-2 .2-2.7 2a11 11 0 0 0-5.3 2.8l-2.2.8-25.3 14.9-4 2.8q-5.8-1.5-11.2-4c1.1-2.3 9.2-7.4 11.5-9.6q.9-.7.7-1.8 1-.4 1.7-1 1-.1 1.7-1c2-1.3 14.4-9.5 14.2-10.6.6-.3 4.2-1.3 3-2.4q-2.3.3-3 2.4c-1-.3-4.4 2-5.4 2.6q-1 .2-1.5 1a35 35 0 0 1-6.4 4q-1 .3-1.7 1-1.9 1-3.5 2.5l-3 1.5c.2-2-2.6.2-3.4.2a215 215 0 0 0-12 7.5c-1.6-1-10.6-5.6-10.7-6.8l5.3-3c2-1 12.4-7.8 12.4-9.6 1.6-2.7 3-1.6 5.3-3q3.4-4.1 8.1-6.7c1.1-.6.9-2-.4-1.4L381 325.7q-1.6.7-1 2.3-9-6-18.9-10.7-1-.4-1-1.4c2-1 11.8-6.7 11.7-8.9h1.3a6 6 0 0 0 2.7-2.6c-1-.6-2.3.7-2.9 1.5l-1.3.5-12.6 7.2q-.9.6-.8 1.6l-12.2-3.4a2 2 0 0 1 .6-1.8l12-11q.4-.5-.2-1-9.6 5.2-19 10.9-1.6.6-2.4 2c-8.6.1-15.8 3-23.4 6.7q-.7-4.9-.9-9.9-1.6-9.1-5.4-17.6 2 0 2.5-1.9c1.8-.5 4.4-1.3 5-3.2q1.2 0 2.2-.4 5.6-3.6 11.5-6.7.4 0 .4-.6Zm-120.2 13.8.5-2.3c5.4-2.7 10.9-6 15.7-9.3 1.4-1 2.7.1 1.2 1.1q-8.5 6-16.6 13c-1-.1-.5-1.9-.8-2.5Zm81-4.2q2 1.1 2.1 3.3-.9-.1-1.8.5l-13.8 8.2c-1.3.6-1.5-.9-.3-1.5l4.7-3.2a119 119 0 0 0 9.1-7.3ZM209.3 308v-3.3a147 147 0 0 0 16.4-9.5q1.8 0 .5 1.4l-6.6 4.4-8.3 6.6q-1 .6-2 .4Zm90.4-.4.6 2.5c-.4 1.4.6 3.5-1.2 4.3l-19.2 11c-.7.2-2 2.4-2.7 1q0-.8.7-1 11.4-8.3 21.9-17.8Z"/><path fill="#ee9685" fill-opacity=".3" stroke="#ee9685" stroke-opacity=".3" stroke-width=".5" d="M449.8 323.1a4 4 0 0 1 2.7-2c1.1 1.1-2 1.8-2.7 2Z"/><path fill="#eba893" fill-opacity=".4" stroke="#eba893" stroke-opacity=".4" stroke-width=".5" d="M431.6 316.4a3 3 0 0 1 3-2.4c1.2 1-2.4 2.1-3 2.4Z"/><path fill="#e9c4aa" fill-opacity=".4" d="M389.3 327q-.6.8-1.6 1 .6-1 1.6-1m28 0q-.5.9-1.6 1 .5-1 1.7-1m70 7q-.4.6-1.2.7.3-.7 1.2-.6m-26 15q-.6.6-1.3.8.4-.9 1.4-.7m-10.1 1.3q-.6.7-1.5.6.7-.4 1.5-.6m-22 14a2 2 0 0 1-1.6.7q.6-.6 1.6-.7m6-.3q-.4.6-1.2.8.3-1 1.2-.8m-17 7.3q-.5.8-1.5.6.6-.6 1.4-.6m-9 7.7q-.4.6-1.2.8.1-1 1.3-.8M139 383c-.5 1.5-3.5 3-5 3 1-1.4 3.1-3.2 5-3m-86 5c.2-.7 1.4-1.6 2-.7q-.9.9-2 .7m202 9c.2-.7 1.3-1.6 2-.7a2 2 0 0 1-2 .7m81 50q.4-1 1.5-1c1.1.7-1 1.2-1.4 1m-132.7 0-1.6.7a2 2 0 0 1 1.6-.7m-8.2 2.4q-.6.6-1.5.6zm27.8-.1q-.3.8-1.2.6zm5.4-.2q-.7.5-1.5.6.6-.7 1.5-.6m43.7 1q-.3 1-1.4.8zm6.2-.1q-.6.6-1.5.8.7-.7 1.5-.8M110 451.3q-.3.8-1.3.7.6-.6 1.3-.7m110.4 2.7-1.6.7a2 2 0 0 1 1.6-.7m-51.5 10.3q-.3.8-1.2.6zM83.4 474l-1.4.8q.4-.9 1.4-.8m105 0q-.7.6-1.7.8.6-.9 1.7-.8m-38.4 1.3q-.4.8-1.3.6a2 2 0 0 1 1.3-.6m27.9 0c.2.8-.9.5-1.3.6zm-18.9 11q-.3.8-1.3.7.6-.5 1.3-.7m-96.7.7q-.6.6-1.4.8.4-1 1.4-.8M46 488.3q-.4.8-1.4.6zm106 1.9q-.3.9-1.3.7.6-.6 1.3-.7m-19.6.8q-.6.6-1.4.7.5-.7 1.4-.7M39 492.2q-.4.9-1.3.8.6-.6 1.3-.8m355 .7c.3-.5 1.3-1.5 1.8-.6q-.6.9-1.9.6M209.2 494q-.6.6-1.5.7.6-.7 1.5-.7m275.5 3.1c.5 0 1.6.3.7.9q-.7-.1-.7-.9m-315 10 3.6-.2c-.5 1.6-3.1 1.5-3.7.1m273.9-.1h3.7c-.7 1.4-3.2 1.5-3.7 0"/><path fill="#ecbea7" fill-opacity=".3" stroke="#ecbea7" stroke-opacity=".3" stroke-width=".5" d="M372 277.1q2-.3 4.3 0l-7.6 4.2-.6-.5z"/><path fill="#8c5c56" stroke="#8c5c56" stroke-width=".5" d="M126.7 11.2a8 8 0 0 0-6.2-4.1q-1.9.6-3.7.5a8 8 0 0 1 6.5-2.3 6 6 0 0 1 3.4 6Zm134.7-3.1a5 5 0 0 1-1 1.8 14 14 0 0 0-4 5.3c-.6-3.9 1.7-5.8 5-7.1Zm-150 86.7q-1 .9-1.3 2.2-1.5 0-1.8 1.4c.7.6 1.3-1 1.8-1.4q1 0 1.9-.3-1.1 26.7-1.9 53.5-1 0-1.7.6-4 4.4-8.6 8.4-1.2 1.2.4 1.5 4.8-3.3 9.8-6 .3 11.7-.1 23.4c-2.1.8-3.9 3.1-5.7 4.4q-.7.6-.6 1.5 3.3-1.3 6.4-3.4c1.6 1.7.9 10.1 1 12.6l-1.4.8-11.2 10.4q.7.6 1.6.1l11-6.6q.8.7.8 1.8.8 11.4 2.5 22.7.3 1.8-1 3.2a75 75 0 0 1-10.7.5 963 963 0 0 1-30.9-.2c-1.4-1.2 1-9.4 2.3-10.8q5.3-5 10.7-9.4-1-.4-2.2.2l-8.2 5.5-1-.3q.3-7.2 2-14.2 2.6-1.2 3.8-3.9c.9-.4 3-.6 2.5-1.9q-2 0-2.5 2-2 0-3.7 1c1.7-6 2.5-25.3 6.7-29.1q2.7-2.2 4.8-4.8a6 6 0 0 0 2.8-2.8c-.7-1-2.1.7-2.6 1.2l-1 .4-5.2 3a950 950 0 0 1 24.6-101l10.2-32.7q.2-.8.8-1.3a9 9 0 0 1 .5 3.5c-.7 9.9-2.3 58.9-5.7 64.2Zm147-19.7-4.7 5.3q.6.6 1.4 0 2-1.5 4-2.6a858 858 0 0 0-5 106q-6.5 6-13 11.6-1.2 1.2.3 1.2l1.5-1.3 12.1-6.6q.7 6.3 1 12.6-.9 0-1.6.5-3.7 3.2-7 6.6.7.4 1.7-.2 3.6-1.8 7-4.2c1.6.9 2 9.7 1.9 11.7 1.7 3.8 2.5 7.1 2.8 11.4l-.9.5-7.8 6.8-3 2c-1.5 1-.2 2.2 1 1.3l10.4-6.9 1.5.2c1.2 1.3 2.5 6.9 3 8.9-1 .7-2.8 1.7-2.9 3.1q-.8.1-1.2.8-.7.5-.6 1.2a2 2 0 0 0-1.6 1c-.7.9-6 3.4-3 4.3a8 8 0 0 1-3.8 1.8l-1 .3q-1.5 1-2.3 2.6a10 10 0 0 0-3 2.5c.7.7 3.8-1.5 4.4-2.2q7.6-4 14.8-8.3l2.4-1q2.2 4.4 4 9c-2.8 1-12.9 10.3-16.1 12.4a2 2 0 0 0-.8 1.2q.5.4 1.1 0 8.7-5 17.5-9.6l5 8.8q-1.5-.3-2.8.6-6.4 5.3-13 10.1c-1.3 1-.3 2.3 1 1.2 4-2.2 12.2-7.8 16.1-8.8q2.6 3.2 4.8 6.8a41 41 0 0 1-5 3.7c-1.2.7-1.3 2.2.4 1.4s3.6-2.8 5.7-2.7c1.3.4 4.8 5.4 4.7 6.8a119 119 0 0 1-13.8 10.5c-1.2.6-1 2 .3 1.5l13.8-8.2q.9-.6 1.8-.5a48 48 0 0 1 8 17.5 246 246 0 0 1-21.9 17.7q-.6.4-.7 1c.7 1.5 2-.7 2.7-1l19.2-10.9c1.8-.8.8-2.9 1.2-4.3 1.7 1.9-1.5 18.5-3.1 19.4q-.5-.4-1.1 0-3.8 3.6-7.8 6.8c2 1.6 4.1-2.8 6.7-2.4-3.6 13.3-18.1 29.1-32.8 30.2a4 4 0 0 0 .9-1.9q-.8-.5-1.4 0-3 1.5.5 2c-3.6 1.1-13.4-1.5-17.1-2.9l2-1 18.5-15.8q-.7-.7-1.6-.3-12 7.3-24.2 14.4-4.7-2.8-8.7-6.4c4.6-2.3 18.3-14.5 23.2-18.3q.6-.5.1-1l-24.9 14q-1.2.7-1.8 2-6.8-7.7-11-17 4.6-3.8 9.3-7.3l1.5-.7 4.3-3.6q-.3-.7-1.1-.4l-5.5 3.8c-2.4 1.3-8 3.8-9.5 6a97 97 0 0 1-6.4-21.7q1 .2 2-.4l8.3-6.6 6.6-4.4q1.3-1.4-.5-1.4-3.9 2-7.3 4.6-4.5 2.6-9.1 5c-.3-3-1.1-11.3-.6-13.8.3.6-.1 2.4.8 2.5q8-7 16.6-13c1.6-1 .2-2.1-1.2-1-4.8 3.2-10.3 6.5-15.7 9.2a66 66 0 0 1 1.7-13.6c6.2-3.4 12.3-11.2 18.7-15 .6-1.2-.8-1.5-1.6-.9-4.8 3.6-10.8 6.6-16 9.5q.3-6.4 1.2-12.6 4-4 8.5-7.1.5-1.4-1-.8-3.8 2.1-7.3 4.5l1.2-13.6h.2q.6 0 1.2-.4 1.6-1 2.7-2.5c-.5-1.1-2.4 1-3.5.6.1-4.4.7-10 1.7-14 2-.2 3.3-2.7 5-3.6a7 7 0 0 0 3-3c-1-.9-2.3.8-3 1.5l-.9.3-4 2.3q.9-8 2.1-15.7c2.8-1.7 8.6-7.6 10.8-10.5q1.6-.7 2.8-1.8c-1.2-.8-2.8.3-2.8 1.8-1.6-.6-8.3 4-10 5a919 919 0 0 1 41.7-172.1q.5.6.5 1.3c-.6 10.2-1 38.5-3.7 46.7Zm141 84q-4 3.5-8 7.3 1.2.5 2.4-.2 3.2-2.3 6.6-4.3c-.8 3 1.1 12-1 14l-1.6 1a33 33 0 0 0-3.6 3.7q.5.6 1.2.2 1.9-1.3 4-2.4l.9-.7c1 2.2 1.2 19.7 1.8 23.6a2 2 0 0 0-1.7.5l-13 12.6q.9.5 1.7.1l12.7-7.6q1 .5 1.1 1.6.3 5.4 1.2 10.8c-1.6.1-6.4 5-6.8 6.6q-17 .5-34.3 0 6.6-5.8 12.6-12.3-.7-.5-1.5 0-6 3.2-11.8 6.6c1.2-11.4 3.7-35 7.4-45 1-1.3 3.5-2.8 3.7-4.5 1 .4 2.7-.5 2.1-1.6-.6 0-2.8.6-2 1.6a14 14 0 0 0-4.1 1.4 907 907 0 0 1 37.2-145q.6.5.5 1.3-2.2 34.7-4.7 69.3c-1.2 13-.8 33.9-3 45.8a39 39 0 0 1 0 15.6Zm-29.6 31.1s2-.6.9-1q-.7.3-1 1Zm-259.5 23q1-.6 0-1.2l-1.5.1a6 6 0 0 0-2.4 2.4c.6 1.2 2.8-1.3 4-1.2ZM122 235a262 262 0 0 1-39.2 22.3l-1.8-.2c5.9-6.7 20-15 27-22.2q.6-.6 1.4-.5zm242.2-.1c.9-1.3 3.6 0 4.8.2l-.3.9-9.6 5.3c-1-.1-2.2.4-2.8-.6q3.5-2.6 7.2-4.8zm29.9 0q.5-.6 1.2-.5l9.6.6a248 248 0 0 1-33 18.8q.4-.9-.4-1.3c-2.4 1-3.6 2-6.4 1.8q0-1.2 1-1.7c3.6-2 27.2-16 28-17.7Z"/><path fill="#d7af9a" d="M262.2 364.2q-3.5-.3-.5-2 .8-.3 1.4.1a4 4 0 0 1-1 2"/><path fill="#8c5c55" fill-opacity=".4" stroke="#8c5c55" stroke-opacity=".4" stroke-width=".5" d="M108.7 212.1q.6.9 1.5 1.2c-1 0-3.3 2.4-4 1.2a6 6 0 0 1 2.5-2.4Zm1.5-.1q1 .6 0 1.3z"/><path fill="#8b5b57" fill-opacity=".4" stroke="#8b5b57" stroke-opacity=".4" stroke-width=".5" d="M79 193a2.4 2.4 0 0 1 2.5-1.9c.5 1.3-1.6 1.6-2.5 2Z"/><path fill="#8d5e58" fill-opacity=".2" stroke="#8d5e58" stroke-opacity=".2" stroke-width=".5" d="M369.7 190.2q0-.7.9-1c1 .4-.8 1-1 1Z"/><path fill="#8b5b57" fill-opacity=".3" stroke="#8b5b57" stroke-opacity=".3" stroke-width=".5" d="M373.3 170.7c-.7-1 1.5-1.6 2.1-1.6.6 1.1-1.1 2-2 1.6Z"/><path fill="#8d5c55" fill-opacity=".4" stroke="#8d5c55" stroke-opacity=".4" stroke-width=".5" d="M110 97c-.5.3-1 2-1.8 1.4q.3-1.4 1.8-1.4Z"/><path fill="#e9c4aa" stroke="#e9c4aa" stroke-width=".5" d="M182.8 235c5-.4 13.3-.8 18.2 0q0 .4-.3.7l-49 32.6q-.9.7-.6 2l-26.1-.6q1.3-.6 2.4-1.7c1.1-1.8 1.4-3.2 4-3l-.2.5 5.6-2.8v-.1l45.3-26.1q.7-.6.7-1.5Zm98.9 0a898 898 0 0 1 35.6-.2q-.1.6-.7 1-10.2 6.5-20.7 12.6-.9.6-1.2 1.6c-3.7 1-6 3-9 5q-.5 0-1-.3-4.5-8.1-7.6-16.8c1.3-.3 4.5-1.5 4.6-3ZM200 258h.7q0 5.3-.6 10.6 0 .9-.7 1.4-11.2.3-22.5-.2l5.3-3.2q1.5.6 2.8 0zm145 64q-14.3 8.6-28.2 17.4c-2.7 1.9-7.8 4-9.7 6.4-1.6.3-3.8 2.2-5.3 1.9a85 85 0 0 0 10-19.6c3.9-5.8 20.8-8.7 27.5-7.6.9.3 5.7.4 5.7 1.5ZM50 341.7q11.9 5 24 9.1c-6.8 6.2-14.2 10.3-22.1 15.2q-.6-1.3-1.9-.6L16 385h-1q-.2-10.5 0-21.4c2.4 0 30.6-19 35-22ZM234.8 426c0 5.8.3 9.5 2.3 14.9l-1.4 1-5 2.8-.9.6-1.2.7-4.9 2.8-.8.5-1.2.6q-2 1.3-4 2.2l-1 .8-5 2.8-.7.6q-.8 0-1.3.7a33 33 0 0 0-5.7 3.3q-.8 0-1.3.7l-4 2-1 1-.7.2q-.8.3-1.3.7-2 1.4-4 2l-1 1-5 2.8-.7.5-1.3.7-5 2.9-.8.4-1.3.7-3.6 2.1-1.3.7q-2.8 1.5-5.5 3.5l-1.5.7-5 2.8-.7.6q-.8.2-1.3.7l-5 2.8-.7.4q-.8.1-1.3.7l-12 7q-.6.4-.5 1.2h-18.5q.3-1 1.3-1l1.3-.8q2-1.4 4-2.4.6-.3 1.1-.9l3-1.7.6-.7q.8 0 1.4-.6l1.7-1 1.2-.7q2-1 3.4-2.7.9 0 1.6-.5l3-1.8a22 22 0 0 1 4-2.4l1-.9a21 21 0 0 0 3.8-2.3q.8 0 1.3-.7l1.7-1 1.2-.7 3.5-2.5 1.5-.7 1.8-1 1.2-.8 5-3.2 3-1.8a41 41 0 0 1 5-3l3.6-2.6q.8-.1 1.4-.6l1.8-1 1.2-.8q2-1 3.4-2.6 1 0 1.6-.6l1.8-1 1.2-.8q2-1.4 4-2.4.6-.4 1-1a9 9 0 0 0 3.4-2.2l1.6-.7 1.8-1q.6-.2 1.2-.7 1.8-1.2 3.5-2.6.8 0 1.5-.7l1.8-1 1.2-.7a10 10 0 0 1 4-2.3l.9-.9 2-1.1c4.5-3 8-7.6 13.6-10Zm119.5 44.7A34 34 0 0 0 374 472q-.3.9-1.1 1.4-2.3 1-4.1 2.8c-1.7.2-5 2.6-6.4 3.6q-15.8 8.7-31.5 17.8a2 2 0 0 0-.7 1.5q-9.3.2-18.6 0 .2-.6.7-.9l24.6-15.8q1.2-.8 0-1.1c1-3.6 14.2-5.5 17.3-10.6Z"/><path fill="#ddb49c" stroke="#ddb49c" stroke-width=".5" d="M326.4 379c1.5-20.5 27.6-9.7 20.1 9.2-7 12.5-20 2.7-20.1-9.2Zm-166.5 2c1.6-18 22-12.3 21.1 3.5.5 16.2-21 14.8-21.1-3.5Zm269 25c-.5-14.1 16-16.3 20.3-3.7 6.4 19.8-17.9 25.2-20.3 3.7Zm-371.5 1.9c.8-15.3 17.9-15 21-.9 4.2 16.8-17.5 23.6-21 .9ZM246.1 426c1.7-17.2 21.3-13 21.4 3.5-.1 16.5-21 14.8-21.4-3.5Zm-111.7 24c2.6-17.8 21.3-12.2 21.4 3.5 0 16.3-20.9 15.1-21.5-3.4Zm238.4-8c-1.9 0-7.8 2.8-7.6 5.4 1.3-.5 7.8-4 7.6-5.3 3.1.2 5.6 8.6 5 11.4.5 18.3-25.2 13.5-20.4-7.7a9.6 9.6 0 0 1 15-4.8q.4.5.4 1Z"/><path fill="#eac2aa" fill-opacity=".3" d="M469 422a7 7 0 0 1-5 3c.4-1.4 3.6-3.3 5-3m-254.7 18.3-1.2.7q0-1.2 1.2-.7m158.5 1.8c.2 1.2-6.4 4.8-7.6 5.3-.2-2.6 5.7-5.5 7.6-5.3"/><path fill="#743e39" fill-opacity=".1" stroke="#743e39" stroke-opacity=".1" stroke-width=".5" d="M109.8 178.1q1 1.3 0 2.5-3 2-6.3 3.4-.2-.9.6-1.5c1.9-1.3 3.6-3.7 5.7-4.4Z"/><path fill="#421615" fill-opacity=".1" stroke="#421615" stroke-opacity=".1" stroke-width=".5" d="M373.3 170.7c-.2 1.7-2.6 3.2-3.7 4.5-1.4-.2-.5-2.3-.3-3a14 14 0 0 1 4-1.5Z"/><path fill="#864441" fill-opacity=".1" stroke="#864441" stroke-opacity=".1" stroke-width=".5" d="M79 193q-1.2 2.6-3.8 3.9a7 7 0 0 1 .1-2.7q1.8-1 3.7-1.2Z"/><path fill="#59413f" fill-opacity=".4" d="M409.1 6.1q-.4.7-1 1 0-1 1-1"/></svg>