<svg xmlns="http://www.w3.org/2000/svg" style="shape-rendering:geometricPrecision;text-rendering:geometricPrecision;image-rendering:optimizeQuality;fill-rule:evenodd;clip-rule:evenodd" viewBox="0 0 512 512"><path fill="#eea600" d="M124.6 194c2.5-1 6.5-4.5 8.9-5 1.5 1.2-8.5 7.3-8.9 5m-4.7 33-.8.6c-1 1-2.2 2.7-3.8 2.4v-.8l.8-1q.5-.7 1.4-1.2 4.9-2.7 9.4-5.8c.8-.2 2.2-1.4 3-.8-1 2.3-7.8 5.5-10 6.7"/><path fill="#e39801" fill-opacity=".7" d="M227.2 410.2q0 .6-.3 1c-.6 2-2.7 2-3.8 3.4q-.9.7-1.8.4c-.9-1.7-3.4-4.8-2.8-6.7z"/><path fill="#dd9000" fill-opacity=".2" stroke="#dd9000" stroke-opacity=".2" stroke-width=".5" d="M448.8 257.1q.3.9 1.3 1.2l-14 8.1q-1 .5-2 .5.5-1 1.5-1.7 6.5-4.2 13.1-8Z"/><path fill="#d59b06" fill-opacity=".8" d="M323.8 398a22 22 0 0 1-6.5 2.3c-.4-1.6 6.5-4.2 6.5-2.3m-6.4 2.4-1.4.4h-1.2q1-1 2.6-.5m-2.6.4-.1 1.2a9 9 0 0 1-5.4 2.3c-.2-2.7 3.7-3 5.5-3.5"/><path fill="#ce8a00" fill-opacity=".2" stroke="#ce8a00" stroke-opacity=".2" stroke-width=".5" d="M288.8 90.8q.2 1.2 0 2.4l-8.1 5q-1.2.6-2.4.7 0-.8.6-1.3c3.2-2 7.2-4.1 9.8-6.8Z"/><path fill="#e59900" fill-opacity=".3" stroke="#e59900" stroke-opacity=".3" stroke-width=".5" d="M91.9 100q-.2 1-1.2 1zm328.4 13-.5 1h-.5q-.1-1 1-1Zm-311.7 26q1.8-1.5 4-2.1c1.1 1-2.1 3.6-4 2ZM138 395a14 14 0 0 1-7 4q.8-1.5 2.3-2.1c1.6-.4 3-2.4 4.7-1.8Z"/><path fill="#db9700" fill-opacity=".2" stroke="#db9700" stroke-opacity=".2" stroke-width=".5" d="M126 402c-1.1 2.3-6.3 4.3-8.3 6q-1 .5-2 .6a1 1 0 0 0-.8-.4 3 3 0 0 1 1.4-1.4c2.4-1 7.4-5 9.7-4.8Z"/><path fill="#f4a700" fill-opacity=".2" stroke="#f4a700" stroke-opacity=".2" stroke-width=".5" d="m322.8 126.7 1 .6a3 3 0 0 1-1.4 1.5q-4.4 2-8.3 4.9-1 .4-1.9.1 0-.4.4-.7z"/><path fill="#dba306" fill-opacity=".8" d="M202.7 107.8q.2 1.5-1.3 2.2-3 1.2-6.4 2l.2-.8a16 16 0 0 1 7.5-3.4m-8.7 4.4 1-.2q-.7 1.1-2.1.6.4-.4 1.1-.4m-1.1.4q-.7 1.4-2.3 1.2 1-.9 2.3-1.2"/><path fill="#f4af00" fill-opacity=".3" stroke="#f4af00" stroke-opacity=".3" stroke-width=".5" d="M163 333c-.4 1.4-7.7 5-9 6.3l-1.2.3-.8-1q4.5-2.4 9-5.2 1-.4 2-.3Z"/><path fill="#ba7f09" fill-opacity=".9" d="M176 120.4c.8-.4 1 .8.3 1.3a7 7 0 0 1-3.3 1.2l.3-1q1.5-.7 2.6-1.5m-4.8 2.7h.8l1-.2q-.3 1.5-1.9 1.2zm-1.3 1.2 1.2-.2q-.9 2.2-3.3 1.6.8-1.2 2.1-1.4"/><path fill="#a9750c" fill-opacity=".9" d="m246.9 9.7-1.5 3.2q-2 1.3-3.5 3.1c-.4-3.7 2.3-4.8 5-6.3"/><path fill="#c48507" fill-opacity=".7" d="M100.3 208.1c-.5 1.2-5.2 2.5-6.4 3.4q-1 .5-2.2.3.8-1 2-1.9 1.8-.3 3-1.5 1.8-.6 3.6-.3"/><path fill="#b37801" fill-opacity=".2" stroke="#b37801" stroke-opacity=".2" stroke-width=".5" d="M402 243q0 1.1.9 1v1q-3.2 1-5.7 2.9 0-1 .3-2z"/><path fill="#ac770b" fill-opacity=".8" d="m346.9 383.3.3 1-2 1q-.6-2.3 1.7-2m-1.7 2q-.3.5-1 .4t-1.3.3q1-1.2 2.3-.7m-2.3.7-.2 1-.9-.3q.4-.6 1.1-.7m-1 .8q0 1.5-1.6 1.6 0-1.5 1.5-1.6m-1.6 1.6-1.3.4q.4-.8 1.3-.4"/><path fill="#f2aa00" fill-opacity=".5" stroke="#f2aa00" stroke-opacity=".5" stroke-width=".5" d="M396 232a8 8 0 0 1-5 3q0-.4.5-1c1.5-.7 2.6-2.2 4.5-2Zm-5 3q-.5 1.3-2 1a2 2 0 0 1 2-1Z"/><path fill="#bd8500" fill-opacity=".1" stroke="#bd8500" stroke-opacity=".1" stroke-width=".5" d="M160.1 234.1q1.1-.4 1.9.5-2.3 1.6-4.7 3-.2-1-1.4-1z"/><path fill="#e99e00" fill-opacity=".8" d="M189 217.2a1 1 0 0 0-1 .9 8 8 0 0 1-4.4 2 36 36 0 0 1-7.6 4.4q-.7 1.4-1.6 2.5c-4 2.5-8 5.8-12.4 7.6q-.8-1-1.9-.5-.8 0-1.2.8l-3 1.8q-1 1.4-2.8 1.5l.8-1.9q2.6-1.2 4.7-3.2c2-1 3.6-1 5-2.7q4.8-3 9.9-5.4a8 8 0 0 1 5.1-2.8 6 6 0 0 0 2.8-2.2q3.2-1.7 6.2-3.8 6.5-3.5 12.5-7.6.8-.3 1.4-.2l-1.7 1.9q-3.3 2.3-7 4zm-24.6 14q.3.8 0 0"/><path fill="#ea0" fill-opacity=".3" stroke="#ea0" stroke-opacity=".3" stroke-width=".5" d="M339.8 135q.3.9 1 1.2c-1.5 1.3-3.7 2.8-5.9 2.6z"/><path fill="#d7a007" fill-opacity=".8" d="M318.7 113a13 13 0 0 1 4 0q.3.9 1.1 1.3l2.4-.2c-1.8 1.9-5.8.6-7.5-1"/><path fill="#e59900" fill-opacity=".5" stroke="#e59900" stroke-opacity=".5" stroke-width=".5" d="m94 100.4-.8-.4q.5-1.5 2-1.8a4 4 0 0 1-1.3 2.2ZM444 230l1.2.3q-.7.5-1.5.7zM237.6 446.3a3 3 0 0 1 3-2.3c1.4 1.1-2.3 2.1-3 2.3Z"/><path fill="#bb8008" fill-opacity=".8" d="M88.1 74.2a5 5 0 0 1 5.2.7q.5.3.8 1-3 .2-5.9-1z"/><path fill="#996b0f" fill-opacity=".9" d="M410.8 433.4c1.5.3 5.3.4 6.3 1.6l-.8.1q-1.8-.4-3.7-.3a3 3 0 0 1-1.8-1.4"/><path fill="#d09005" fill-opacity=".3" stroke="#d09005" stroke-opacity=".3" stroke-width=".5" d="M163.9 365c-.4 1.5-2.2 1.8-3.2 2.8q-1.1 0-1.6-.8z"/><path fill="#e49900" fill-opacity=".3" stroke="#e49900" stroke-opacity=".3" stroke-width=".5" d="m173.3 122-.3 1h-1q.2-1 1.3-1ZM139 364.7q.8.3.9 1l-.7.3zM342.9 386l1.2-.3q-.2 1.2-1.4 1.3zm-64.8 56c-.3.7-2.3 3-2.8 1.7a3 3 0 0 1 2.8-1.8Z"/><path fill="#efaa01" fill-opacity=".4" stroke="#efaa01" stroke-opacity=".4" stroke-width=".5" d="m400.7 228.7.2 1.3c-1.5.5-3.3 2.1-4.9 2q1.9-2.2 4.7-3.3Z"/><path fill="#e59a00" fill-opacity=".3" stroke="#e59a00" stroke-opacity=".3" stroke-width=".5" d="M358 395a6 6 0 0 1-3 3q0-.9-1.2-1.2 1.8-1.5 4.1-1.9Z"/><path fill="#825b03" fill-opacity=".1" stroke="#825b03" stroke-opacity=".1" stroke-width=".5" d="M353.8 396.8q1 .1 1.3 1.2c-1.2-.4-1.6 1.3-2.3 1.9q-1-.3-1.7-1.2l2.7-2Z"/><path fill="#c78606" fill-opacity=".7" d="M244 499.9q1.2 1 .6 2.5-.5-1.2-.6-2.5m.6 2.5q2.1-.5 2.7 1.7-1.6-.4-2.7-1.7"/><path fill="#e59800" fill-opacity=".4" stroke="#e59800" stroke-opacity=".4" stroke-width=".5" d="M149.2 118.9c-.4.8-2.1 3-3 1.7a4 4 0 0 1 3-1.7Zm-40 144.1 1 .3q-.7.6-1.3.7z"/><path fill="#a1700e" fill-opacity=".7" d="M507 260.7q0 1-.6 1.7-.3-1 .6-1.7m-.6 1.7-2 2q-.4-2.4 2-2m-2 2a3 3 0 0 1-1.7.8q.6-1 1.7-.8"/><path fill="#e59900" fill-opacity=".4" stroke="#e59900" stroke-opacity=".4" stroke-width=".5" d="M44 261q-.5 1.3-2 1 .5-1.5 2-1Zm342.2 84.2h1q-.5.9-1.4 1zM141 393c.1-.7 1.3-1.6 1.9-.7a2 2 0 0 1-2 .7Z"/><path fill="#e59800" fill-opacity=".3" d="M394 166q-.3 1-1.3.7zM83 437h3c-.3 1.4-2.8 1.7-3 0"/><path fill="#e99e00" fill-opacity=".4" stroke="#e99e00" stroke-opacity=".4" stroke-width=".5" d="M167 362.9q-.7 2.4-3.1 2a5 5 0 0 1 3-2Z"/><path fill="#efa800" fill-opacity=".3" stroke="#efa800" stroke-opacity=".3" stroke-width=".5" d="M157 256q-.9 2-3 1.9a4 4 0 0 1 3-2Z"/><path fill="#aa750b" fill-opacity=".6" d="M437 417.9c1.7-.1 1 3.2.7 4.1-.9-.3-.6-3.3-.7-4.1"/><path fill="#e59800" fill-opacity=".2" d="m426 90-.2 1h-.7q0-.7 1-1m-333 12-.8 1.2q-.3-1 .8-1.2m78.1 21v1l-1.3.2q.2-1.2 1.3-1.2"/><path fill="#e59900" fill-opacity=".3" d="M412.6 434.8q2-.2 3.7.3-.6 1-1.8 1-1.5 0-1.9-1.3"/><path fill="#d08c04" fill-opacity=".7" d="M437.7 89.8c.3 1 .6 3-.7 3.6q-.3-2 .7-3.6"/><path fill="#e59900" fill-opacity=".4" stroke="#e59900" stroke-opacity=".4" stroke-width=".5" d="M429 270c0 .8-1.3 1.6-1.9.7q.6-1 1.9-.8Zm-379.7 4-.4.8h-1.3q.7-.8 1.7-.8Z"/><path fill="#a27200" fill-opacity=".1" stroke="#a27200" stroke-opacity=".1" stroke-width=".5" d="m324.8 126.1 1.2.2c-.1 1-1.6.8-2.3 1l-1-.6q1-.7 2.1-.6Z"/><path fill="#b0790a" fill-opacity=".8" d="m501.8 245.1 1.8.4q-1.2.6-1.8-.4m1.8.4.7 1q-1.2.3-.7-1m.7 1q.6.8.8 1.8-1-.6-.8-1.7"/><path fill="#795815" fill-opacity=".4" d="m259 5.2-3-.3c.2-1.4 3-1.4 3 .3"/><path fill="#946810" fill-opacity=".8" d="M335.1 117q0 .9.2 1.6c-1.9.1-3-1.7-.2-1.6"/><path fill="#f3aa00" fill-opacity=".4" stroke="#f3aa00" stroke-opacity=".4" stroke-width=".5" d="M158.8 255q-.5 1.3-1.8 1 .6-1 1.8-1Z"/><path fill="#d99500" fill-opacity=".2" stroke="#d99500" stroke-opacity=".2" stroke-width=".5" d="M266.7 10q1.2.2 1.3 1.4-.9-.5-1.4-1.4ZM411 133.2l-.4.9-.3-.3q-.2-.8.7-.6Z"/><path fill="#e39700" fill-opacity=".3" stroke="#e39700" stroke-opacity=".3" stroke-width=".5" d="m88.1 74.2.1.6-1.3.2q.3-1 1.2-.8ZM31 244.2l1.1-.5q-.4.9-1.3 1.2z"/><path fill="#7b5a16" fill-opacity=".6" stroke="#7b5a16" stroke-opacity=".6" stroke-width=".5" d="M377 99.2a3 3 0 0 1-2 .9q.6-1.3 2-1Z"/><path fill="#815e14" fill-opacity=".5" stroke="#815e14" stroke-opacity=".5" stroke-width=".5" d="M46 238.1q-.7 1-2 .6a2 2 0 0 1 2-.6Z"/><path fill="#f0ab00" fill-opacity=".4" stroke="#f0ab00" stroke-opacity=".4" stroke-width=".5" d="m235 100.3 2.2-.2-.3.8q-1 .2-2 .1z"/><path fill="#876a16" fill-opacity=".4" stroke="#876a16" stroke-opacity=".4" stroke-width=".5" d="M196.6 402q1.5 0 2.5.7c-.7.2-2.3.4-2.5-.6Z"/><path fill="#815e15" fill-opacity=".4" stroke="#815e15" stroke-opacity=".4" stroke-width=".5" d="M375 100q-.6 1.2-1.7.7c-.1-.8 1.2-.7 1.7-.6Z"/><path fill="#845f11" fill-opacity=".2" stroke="#845f11" stroke-opacity=".2" stroke-width=".5" d="M423.7 103.2v1q-1 0-2-.6 1-.7 2-.4Z"/><path fill="#b37a0a" fill-opacity=".9" d="M175.9 392.7q.5.2.7.7-.8.8-2 .6.6-.8 1.3-1.3"/><path fill="#856714" fill-opacity=".3" stroke="#856714" stroke-opacity=".3" stroke-width=".5" d="M208.8 113.2q-.6 1-1.7.5a2 2 0 0 1 1.7-.5Z"/><path fill="#855f13" fill-opacity=".2" stroke="#855f13" stroke-opacity=".2" stroke-width=".5" d="M489.2 249q.6.3.6 1.1 0 .7-.7 1z"/><path fill="#eda400" fill-opacity=".4" stroke="#eda400" stroke-opacity=".4" stroke-width=".5" d="M168.9 362q-.5 1.3-2 .9a2 2 0 0 1 2-.9Z"/><path fill="#855e14" fill-opacity=".5" d="M418.2 301.9q-.6 1.6-2.3.9a3 3 0 0 1 2.3-1"/><path fill="#865e13" fill-opacity=".2" stroke="#865e13" stroke-opacity=".2" stroke-width=".5" d="M129.4 352.8q.6.9.3 1.8l-.5.5z"/><path fill="#bd8e0c" fill-opacity=".7" d="M381 351.6q0 1.2-1.2 1.3.4-.8 1.3-1.3m-1.2 1.3q.2 1.2-1 1.2.1-.9 1-1.2"/><path fill="#f3ab00" fill-opacity=".3" stroke="#f3ab00" stroke-opacity=".3" stroke-width=".5" d="M331.7 141.2c.3 1-1.2.8-1.7.7q.6-1.1 1.7-.7Z"/><path fill="#c48406" fill-opacity=".3" stroke="#c48406" stroke-opacity=".3" stroke-width=".5" d="M149.2 373.8q.4.3.7 1h-.6z"/><path fill="#986d11" fill-opacity=".3" stroke="#986d11" stroke-opacity=".3" stroke-width=".5" d="M485.4 275q-.6.9-1.5.8.4-.8 1.5-.7Z"/><path fill="#9e6d0e" fill-opacity=".5" d="M328.3 113q-.6.8-1.3 1.2 0-1.2 1.3-1.1"/><path fill="#ffbc00" fill-opacity=".3" d="M322.6 113q1.4 0 1.2 1.3-.7-.4-1.2-1.3"/><path fill="#866114" fill-opacity=".4" d="M487 274q-.1 1-1.1.9.3-.9 1.2-1"/><path fill="#e59800" fill-opacity=".3" d="m99.2 384 1 .3q-.5.8-1.4.8z"/><path fill="#a7740c" fill-opacity=".8" d="M337.8 389v1.2l-1-.4q.4-.6 1-.8"/><path fill="#e39900" fill-opacity=".2" stroke="#e39900" stroke-opacity=".2" stroke-width=".5" d="m337.8 389 1.2-.2q0 1-1.3 1.4z"/><path fill="#dd9303" fill-opacity=".4" stroke="#dd9303" stroke-opacity=".4" stroke-width=".5" d="M336.9 389.8q0 1.2-1.2 1.3.3-.9 1.2-1.3Z"/><path fill="#ca8806" fill-opacity=".5" stroke="#ca8806" stroke-opacity=".5" stroke-width=".5" d="m335.1 391 .2 1.3q-1.9-.6-.2-1.4Z"/><path fill="#9e6e0f" fill-opacity=".5" d="M330.3 112.1q-.6.8-1.5.9.4-1 1.5-.9"/><path fill="#ffbc00" fill-opacity=".2" d="m195.2 111.2-.2.8-1 .2q0-1.2 1.2-1"/><path fill="#8e6511" fill-opacity=".9" d="M394.7 168q.1.7-.7.7z"/><path fill="#7d5b16" fill-opacity=".2" stroke="#7d5b16" stroke-opacity=".2" stroke-width=".5" d="M227 102.4q0 .5-.7.3.3-.5.8-.3Z"/><path fill="#785f18" fill-opacity=".5" d="M194.7 401.2q.8 0 1.4.7-.8 0-1.4-.7"/><path fill="#ffbe00" fill-opacity=".2" d="M314.8 400.8h1.2q0 1.2-1.3 1.2z"/><path fill="#ac770b" d="M480.6 267.9q0 1-1 .9a2 2 0 0 1 1-1"/><path fill="#f4ae00" fill-opacity=".9" d="M189 217.2a2 2 0 0 1-1 .9q.3-.7 1-1"/><path fill="#f2a900" fill-opacity=".4" stroke="#f2a900" stroke-opacity=".4" stroke-width=".5" d="M389 236a2 2 0 0 1-1 1q.1-.8 1-1Z"/><path fill="#986b0f" fill-opacity=".9" d="M282.7 439.7q.3 1-.7 1z"/><path fill="#7a5914" fill-opacity=".4" stroke="#7a5914" stroke-opacity=".4" stroke-width=".5" d="M7.3 247.9q-.6.8-1.5 1.5.5-1 1.5-1.5Z"/><path fill="#e49900" fill-opacity=".4" d="M416 248.3h1.2l-1.4.7z"/><path fill="#e49800" fill-opacity=".4" d="m237 458.3 1.2.1-1.2.7z"/><path fill="#e49800" stroke="#e49800" stroke-width=".5" d="M288.8 93.2q.6-.2 1.1.3l3.8 9.1c-2.4.8-13.6-1.7-16.7-2.2l1.3-1.5q1.2 0 2.4-.7zM402.1 151l-6 14.2a1 1 0 0 0-1 .7H394l-1.3.8c-.5.9-2.8 1.3-2.4 2.4-1.4-.2-6-7-6-8q.5-1 1.2-1.7c1.6.6 5.9-1.9 6.7-3.3l1.8-.6q4-2.5 8-4.5Zm-269.4 6q-6 8-11.7 16.4c-1.5 1.3-3-5.8-3.3-6.6 2.4.5 8-5.6 10.3-6.9a8 8 0 0 0 3-2.4q.7-.6 1.7-.5Zm357 93.1c14.6 4.8-2 18-9 17.8 0-.8 1.8-1.9.8-2.5l-12.4 7q-1 .4-.8 1.4l-1.2.5q-.9-.2-1 .6-1.1.1-2.2.5-24.2 9.9-48.6 19.3-1.7.8-3.5.9c.8-.5 2-1.6 0-1.7q3.3-1.8 6.3-4c-.8 1.9 1.3 1.6 2.2.8l68.8-39.7q.6-.2.7-.9ZM229 410.4c12.9 2 26 1.7 39 1.7l-1 1.6q-19.1 10.3-37.6 21.6c-2.1 0-3.3-6.8-3.8-8.4l20-13.4a6 6 0 0 0-3.6.2q-9 5.1-17.7 10.5c-.9-2.9-2.9-6.3-3-9.2q.9.2 1.8-.4c1.1-1.5 3.2-1.5 3.8-3.4q1.2-.2 2-.8Z"/><path fill="#262626" stroke="#262626" stroke-width=".5" d="m256 4.9 3 .3c2.8 0 5.4 3.4 7.6 4.8q.5.8 1.4 1.4 0 1.4 1.3 1.2-.1 1 .6 1.8c17.3 27.6 27.9 62 39.7 92.3.4 1 7.7 5.4 9 6.3 1.8 1.7 5.8 3 7.6 1l.8.2q.8-.5 1.3-1.1l.5-.1q.9-.2 1.5-.9c28.5-12.8 59.3-30.7 89.3-38.9 15-3.1 20 1.3 18.1 16.6q-1.1 1.6-.7 3.6v.5q-1 .4-.9 1.4c-8.8 30.3-24 60.6-36.6 89.7-.5 1.6 6.8 15.7 7.2 18.7a3 3 0 0 0 1.6 1.6c30.3 12.1 65.7 23 93.5 39.8q.6 1 1.8.4-.6 1.3.7 1 0 1.2.8 1.8 6 5.4 1.9 12.3-.9.8-.6 1.8-2.4-.4-2 2-1.2-.2-1.7.8l-1.5.6a3 3 0 0 0-1.5 1.3l-11.9 6.8h-.7q-.9.1-1.2 1-.3 0-.5.2-1 0-1.5.7c-21.8 9-43.8 17.4-65.7 26a3 3 0 0 0-2.3 1c-1.8.6-8.7 2.7-9.6 4-1 2.7-7.3 15.5-6.9 17.2a1430 1430 0 0 1 27.3 61c4 10.6 8.5 21.6 10.3 32.9.1.8-.2 3.8.7 4.1-1 14.7-7.8 14.4-20.6 13-1-1.2-4.8-1.3-6.3-1.6-28.9-8.8-57.2-22.7-84.8-34.9q-1.1-.4-2.2-.5c0-1.9-6.9.7-6.5 2.3q-1.5-.6-2.5.5c-1.9.4-5.7.8-5.5 3.5-12 29.3-22 61.4-37.7 89-5.7 9-13 19.4-24.3 10.7q-.6-2.1-2.7-1.6.6-1.5-.6-2.6c-6.1-7.1-10.2-16.7-14.4-25.1q-14.7-34.3-27.2-69.5a3.5 3.5 0 0 0-3.3-2.5q-1.1-.7-2.5-.6l-.5-.3q-.5-.6-1.4-.6c-2.6-.9-7.4-4.3-10-3a36 36 0 0 1-8.4 3.5c-28.2 12-59.4 28.2-89 35-1.1-1.2-4-1-5.3 0-7.9-1.2-8.6-7.5-8-14.2 7.1-31.7 24.8-64.5 37.7-94.4q.8-1.8 0-3.4-4-8.3-7-17-.4-.6-1-1l-88.4-35.3c-8.8-4.5-17.2-12-9.5-22q.9-.7 1.5-1.5c22.5-18.4 57.7-25 84.4-36q1.2 0 2.2-.4c1.2-.9 5.9-2.2 6.4-3.4 7.7-1 8-13.2 11.7-18.6q.3-1 .1-2c-12.2-27.7-26-55-35-84-3.5-11.4-7.3-28 9.7-28.6h1.4q2.8 1.2 5.9 1c31.2 7.7 64.1 24.8 93.9 37.7q1.2.7 2.6.1 1.5.3 2.3-1 1.4.3 2.1-.7 3.3-.8 6.4-2 1.5-.7 1.2-2.2C215.1 77.7 225.4 44 242 16q1.5-1.8 3.5-3.1l1.5-3.2c2.6-2.1 5.4-5 9-4.8ZM230.6 69a7 7 0 0 0-1.3 3.7q-7 15.5-13 31.2 0 1.2 1.2 1a180 180 0 0 0 12.2-3q2.8.6 5.2-.9l2-.1q20-1.7 40-.5c3.2.5 14.4 3 16.8 2.2l-3.8-9.1a1 1 0 0 0-1-.4l-.2-2.3q-2.8-7.8-5.4-15.7-.3-1-1.4-.9.5-1.5-.2-3l-8.9-24.3q-1.6-5.3-4.1-10.2-.5-2.4-2-4.5c-1.3-3.2-9.5-22.7-14.7-17.6-3.5 7.3-8.6 22.5-12 30.9q-5.2 11.6-9.4 23.5ZM377 99.3q-1.4-.4-2 .9c-.5 0-1.8-.2-1.7.6l-4.5 2.6c-3.7-.1-28.5 11.4-33.7 13.7-2.8-.1-1.7 1.7.2 1.6q1.8 2 4.3 2.2c2.3 2.5 8.4 5.9 11.4 8l3.7 2.9c2.2 1.4 8.8 8 10.6 8.4a4 4 0 0 0 2.7 2.5c.6 2 6.2 7 8 8.7q.5 1.2 1.7 1.5c1.2 2.7 4.2 6.2 6.5 8.2 0 1.1 4.7 7.9 6 8l.2.7q.4 2.3 2.1 4a8 8 0 0 0 1.5-5q.9 0 .7-.8l.1-1q1.2-.3 1.2-1.7l6.8-16.4q.8.2 1-.6l6.9-14.1.4-.9 2.8-5q3.1-7 5.9-14.2l.5-1a61 61 0 0 0 3.4-9.8c1.4-3.5 2.8-8.5 2-12.2q.3-.5.3-1 .3-4-1.7-7.1c-1.2-.8-2.7-3.4-4.3-2.4q-21.6 9-43 18.7ZM90 102c0 .6-.1 2 .8 1.8.7 4 3.6 9.7 5.4 13.6q.4 1.8 1.5 3.6c2 4.5 11.5 28.2 13.5 30.3q0 2.5 1.4 4.6l3.5 8.4q.4.6 1 .6c0 .5-.3 2 .6 2 .3.7 1.8 7.8 3.3 6.5q5.7-8.4 11.7-16.4c10-10.6 21.7-22 34.2-29.6q1-.6.9-1.7 2.4.6 3.3-1.6 1.4.3 2-1.2a7 7 0 0 0 3.2-1.2c.7-.5.5-1.7-.4-1.3a114 114 0 0 1-19.4-8.2l-27-13.1c-3.1-1.5-8.6-4.5-11.8-4.9-.7-1.3-5.8-3.3-7.3-3-1.4-2-10-4.3-12.6-5q-2.7-1-5.6-1c-12.5-1.4-7 9.3-3.4 15.5q.4.9 1.3 1.3Zm118.8 11.2a2 2 0 0 0-1.7.5c-32 7.4-71.3 43.7-82.5 74.4-3.6 5-7 17.5-9 23.7l-1.4 5.2-2.7 11.8q-.6 2.1-.5 4.2a83 83 0 0 0-1.7 16c-.5 4.2-1.2 10-.1 14l-.3 1v5q0 5 1 10c.2.7 0 4 1.1 3.7q-.3 1.5 0 3.2a83 83 0 0 0 3.3 14l3.4 10.2a98 98 0 0 0 4.8 11.1 192 192 0 0 0 10.6 17.8c1.6 2 3.9 6.1 6.1 7.3q0 1.2 1.2 1.6.3 1.4 1.3 2.3a185 185 0 0 0 17.4 16.8q.5 1 1.6.8c1 2.4 6 5 8 6.8l5.1 3.5q8.7 5.5 18 10a29 29 0 0 0 7 2.9c3.3 2 8.5 3.8 12.3 4.7q1.8 1 3.8 1.5a143 143 0 0 0 30 6.2q9 1 18 1 7.6 0 15.1-.5A132 132 0 0 0 390.3 318l.7-.8q4.5-13 7.8-26.4l.4-2.8q1.4-6 2.1-12 .9-4 1-8 1.8-11.6.5-23.1v-1.8q0-1.7-.4-3.4a52 52 0 0 0-1.5-9.8l-.2-1.3a51 51 0 0 0-1.3-7 89 89 0 0 0-5.6-18q-.3-1.6-.9-2.8l-4.9-11a124 124 0 0 0-16.7-26.2l-1.6-2-5.4-6-3-3a259 259 0 0 0-13-12c-2-1-5-4.7-7.5-4.5q0-1-1-1.1c0-1.2-4.6-3.5-5.5-4.3-1.4-.7-7.2-4.7-8.3-4.5l-1.2-.2c.2-1.4-4.6-3-5.6-3.7-3.1-1.3-6.9-3.5-10.2-4q-.9-.9-2-1.3a342 342 0 0 0-17.7-5.7q-6.6-1.6-13.2-2.6-2-.6-4-.8c-20.2-2.5-44-1.8-63.3 5.2ZM99.2 217C82 223 63 231 46 238.1a2 2 0 0 0-2 .6q-1 .9-2.3 1.3-5 1.2-9.6 3.7l-1.1.4c-5.2 2.4-14.7 3.3-15.4 10.2 1.3 8.8 20.3 16 27.5 18.5q2.1 1.5 4.5 2H49c.6 1.7 9.3 3.6 11.1 4.6q1.5.7 3.2.6.2 1 1.2 1c3.5.9 7.3 3 10.8 3.2.8 1.1 7 3 8.7 3q.6.7 1.4 1a210 210 0 0 1 15.2 6.3c.7-.5-.8-4.4-.8-5.3q-.8-5.3-2-10.4 0-3.8-.9-7.5a177 177 0 0 0-.2-14.1q.5-6.8.2-13.4l.6-.9q.8-1-.3-1.8 2-11.9 4.7-23.6c.5-3-2.7-1.3-2.6-.5Zm313.1 5.3q0 1.4.5 2.6c.5 2 1 9.4 2.3 10.5q-.2.7-.1 1.3c0 3-.1 8.9 1 11.6l-.2.7q-.5 2.4.4 4.7c-1 14.3-2.6 27.6-6 41.5-.7 1.6.9 1.5 1.6.4q1.8-.1 3.5-1 24.5-9.3 48.6-19.2l2.3-.5.9-.6 1.2-.5q5.8-2 11.4-5 1 0 1-1c7 .3 23.6-13 9-17.7q.1-.7-.5-1.2-1.5-1.1-3.3-.7 0-.6-.3-1.2c-3-1.4-6.5-3.6-9.6-4.2a430 430 0 0 0-24-10.1c-1.5-.4-5.6-2.7-6.7-2.3l-1.2-.3c-.9-1.5-8.2-3.5-10.2-4.4a4 4 0 0 0-2.6-.3c-.8-1.9-8.3-3.9-10.4-4.6a8 8 0 0 0-5-1.6c-.3-1-5.5-3.3-4.7-.8zm-26 122.9-.5 1c-1-.3-4.2 4.5-4.8 5.4l-1.2 1.3q-.9.3-1 1.2v.5l-1.6 1.1a184 184 0 0 1-30.3 27.6q-2.2-.3-1.7 2-1.4-.6-2.3.7-.6 0-1 .7-1.6.2-1.6 1.7-.9-.4-1.3.4l-1.2.2q-.6.3-1 .8-.8.4-1.2 1.3l-.5-.2q-1.6.9.2 1.4 2 1.7 4.9 1.6c.4 1.4 9.2 4.9 11 4.8q.5 1 1.6 1.1 5 2.5 10.3 4.5c1.2.6 3.1 1.9 4.5 1.4 1.4 2 8.7 4.4 11.3 5.2 1.6 1 6 3.4 7.7 2.8.9 1.8 9.6 5 11.7 5.4q.9 1.1 2.4.6c1 1.6 22.5 11.5 25.6 10q.6 0 .6-.6c3.7-6-7.4-25.2-10-31.4q0-2.1-1.6-3.6a88 88 0 0 0-4.1-10.8q-.3-1-1.2-1.1c0-.6.1-2.1-.9-2-1.3-5.8-5.8-14.9-8.4-20.6a16 16 0 0 0-1.3-3.7c-1-1.8-3-8.6-4.7-9.2.7-1.6-.8-3.2-1.3-4.7-.6-.9-1-4.5-2.7-4-1.3 1.6-4 5.4-4.5 7.2ZM117.6 343q-.6.8-.7 1.8c-1.3 3.8-5.3 10.9-6 14.4a29 29 0 0 0-4.7 9.6c-2.5 4.7-5.5 10.2-7.2 15.3l-.3 1c-1.8 1.1-3.2 5.8-3.9 7.8a124 124 0 0 0-7.2 18.1q-.5.8-.4 1.8c-.5 1.3-3.4 12-1.2 12q-.3 1 .2 2.1.5 2.3 2.9 2.3c6.9.7 27.3-11 35-13.2a2 2 0 0 0 2-1q2-.7 3.9-1.7l39.9-17q2.4-1 4.7-2.3 1 .2 2-.6l-.8-.8a14 14 0 0 0-5.9-3.4c-.3-.9-17.8-12.8-20.1-14.5q-.3-.6-.7-.9c-2.2-2-6.8-7-9.2-8q-.1-.8-1-1 0-1.2-.9-2c-2.4-1.6-6-7.5-8.4-8.2q.3-.9-.3-1.8-1.3-1.2-2.2-2.7c-1-1-5.1-8-6.2-8 0-1-1.3-4.2-2.2-1.8zM268 412c-13 0-26 .4-39-1.7q-.8-.2-1.7-.2l-8.7-1.9c-.6 1.9 2 5 2.8 6.7.1 3 2.1 6.4 3 9.2q.4 1.4 1.2 2.7c.6 1.6 1.8 8.3 3.9 8.4q-.9 1.8.3 3.7c1 2.9 5.8 18.3 7.4 19.3l-.1.8q.5 2.5 1.6 4.9 1.6 4.8 3.7 9.3.6 2.4 2 4.5c1 2.2 2.8 8.7 5 9.5q-.1 2.1 1.3 3.6c1.3 2 5.6 8.4 8.5 6.6 4.2-4 12-28.4 14.6-35.3 2.7-6.2 6.8-15.2 8.3-21.6q.9 0 .7-.9a6 6 0 0 0 1.2-3.5 467 467 0 0 0 11.8-28.6q-.5-.6-1.1-.4-13.2 3-26.7 5Z"/><path fill="#e6a000" fill-opacity=".2" stroke="#e6a000" stroke-opacity=".2" stroke-width=".5" d="M402.8 148.8q0 1.2-.8 2.2a95 95 0 0 0-8 4.5l-1.8.6q0-1 .8-1.5z"/><path fill="#b67d0a" fill-opacity=".6" d="M268 11.4q.9.1 1.3 1.2-1.3.1-1.3-1.2m1.3 1.2q.6.8.6 1.8-.7-.7-.6-1.8"/><path fill="#ffbc00" stroke="#ffbc00" stroke-width=".5" d="M272 108q0 1.6-1.3 2.4-8.8 5.7-17.8 11.1c-1.7 1-.2 2.2 1.2 1.3 3-2.7 21.2-12 22-14q6.6 1 13.1 2.6a19 19 0 0 1-5 4.3q-22.6 15-45.4 29.8c-1.8 1-.2 2.3 1.3 1.3q25-15.1 50.6-29.6 3-1.7 5.6-3.8L307 117c-1 2.8-12.3 8.3-15.2 10.3-1.8 1-.4 2.4 1.3 1.4q4.7-3 9.6-5.4 3-1.7 5.7-3.8.4-.5.6-1.3c3.3.6 7 2.8 10.2 4.1a8 8 0 0 1-3.7 3.6 5437 5437 0 0 1-66.7 43.4q-.6.4-.8 1.1 1 1 2 .2c14.5-9 29.4-17 44.1-25.2 5-4.4 10.6-6.4 16.2-9.9l1.9-1.8q.9.3 1.9-.1 4-2.7 8.3-5a3 3 0 0 0 1.3-1.4c.7-.2 2.2 0 2.3-1 1-.2 7 3.8 8.2 4.5q.1 1.2-.9 2a11035 11035 0 0 1-83 54.1c-.6 1.5.9 1.5 1.8 1l2.5-1.9q28.8-17 58-33c5.7-4.1 10.8-8 17.4-11 .5 0 2 .1 1.7-.8q1-2 3.2-2.4c2.2.2 4.4-1.3 6-2.6 2.3-.3 5.4 3.4 7.4 4.5.2 2.2-2.6 3-4 4.2a7945 7945 0 0 1-85 55c-.9 1.2 1 1.5 1.8.9a1832 1832 0 0 1 94.2-54l6 5.8a2078 2078 0 0 1-56 35.4c-.8 1.1 1 1.5 1.8.8 17.3-10.9 35.5-20.8 53.1-31.2a19 19 0 0 1 4.1-2q2.9 3 5.4 6.2c-2.7 3.2-20.3 12.7-24.8 15.7-1.7 1-.1 2.3 1.2 1.4q12.4-7.8 25.2-15.2l5.3 7a1059 1059 0 0 1-45.8 28.8c-1.7 1 0 2.3 1.3 1.4a974 974 0 0 1 46.5-27.1q5.4 7.7 9.4 16.2-3 0-5.5 2-17.2 12-35.3 22.5-1.5.6-2.2 2 1 .8 2 .2 21-12.8 42-24.8l3.9 9q-1.5 0-2.6.7l-52.7 33.6a3 3 0 0 0-1.5 1.5c-2.4.2-4 2.1-6 3q-.8.4-1.1 1.2-2 .5-3 2-1.5-.2-2 1c-.5.4-4.3 1.3-2.6 2.2q1.9-.4 2.5-2.2 1.5.2 2-1 2.2 0 3.1-2h1.4c1.7-1.3 5-2 5.7-4.2q1.4 0 2.5-.6l53.4-30.8 1.8-1.7a89 89 0 0 1 5.6 18.2l-97.1 63.1c-.6 1.5.9 1.6 1.8 1 26-16.8 56-31.1 81.3-48a9 9 0 0 1 2.6-.9q.6-.3 1-1 1.5.3 2-1a8 8 0 0 0 5-3c1.6.1 3.4-1.5 4.9-2a52 52 0 0 1 1.5 9.8c-8.5 3.6-21.5 14.2-30 19-6.7 4.7-13.5 9.6-20.8 13.3q-12 7.4-23.4 15.3c.7 1 3.5-1 4.5-1.2q32.3-19.4 64.5-38.3 2.6-2 5.6-3 1.3 11.7-.5 23.2-1.2 0-2.2.7c-23.8 15.7-48.2 32.6-72.3 47.7-1.5.9-.4 2.4 1.3 1.4 4.4-3.4 9.7-6 14.5-8.9l56.4-32.6q.6-.3 1.3-.3-.7 6-2.1 12l-17.4 10.4c-1.4.8-.3 2.3 1.3 1.3 4.1-2.4 11.4-7.7 15.7-8.9-2.1 9-5 17.7-7.8 26.4q-1 0-.7.8-3.7 10-9 19c-9.4 7-19 14.5-28.9 20.9-.7 1.1.9 1.6 1.7 1 5.4-4.2 12.2-7.5 18.1-11q1.4-1 2.3.2a132 132 0 0 1-96.5 55.7q-1-.8-.5-2Q298 387 319 372.4q1.3-1.2-.5-1.6-4.9 3.3-10 6.3l-43.9 25.3q-1.2.6-1.7 2-9 0-18.2-1 11-7 21.7-14.4c1.4-.7 8.3-4.3 8.3-5.6q-.8-1-2-.3c-10.5 7.2-22.2 12.9-32.9 19.6-8.4-.9-16.8-3.1-25-5.5.7-2.9 19.6-13.5 23.3-15.6 1.5-.9.4-2.5-1.3-1.4-7.7 4.6-16.6 9.5-24.3 14.1q-.8.6-1.5 1.4c-3.8-1-9-2.6-12.2-4.7 2.2-3.2 3-4.6 7.5-4.9a34 34 0 0 0 5-2.2 4165 4165 0 0 1 67.4-44.5q1.5-.7 2-2.1-.9-.7-1.9 0l-87.1 50.9q-9.3-4.5-18-10.1.3-1 1.1-1.6c25.5-16.2 50.5-33.3 76.3-49 1.5-.8.3-2.3-1.3-1.3-26 16.1-53.2 31.1-79.8 46.6q-.9.8-1.3 1.8c-2.1-1.7-7-4.4-8.1-6.8 1-1 2.8-1.3 3.2-2.9q2.4.4 3-2 1.5.5 2-.9c2.1-2.5 7.8-4 10.6-6.1q39-26.7 79-52c1.2-.4 2.1-2.3.1-2a4399 4399 0 0 1-105 60.5 185 185 0 0 1-11.9-12.2q.5-.9 1.3-1.5 27-17.3 54.2-34.2c1-.7 1-2.1-.5-1.5q-6.7 4-13.8 7.4c-4.7 1.8-8.4 7.9-13.3 8l-3 2c-1.3 1.2-1.4 2.6-3.6 2.7q-1-.1-2 .3-4.5 2.8-9 5.2l-1.5 1.3q-5.7 3-11.3 6.4c-2.2-1.2-4.5-5.2-6-7.3l3-1.4q20.9-13.5 42-26c1.6-.8.3-2.3-1.3-1.3-14 8.9-28.6 16.8-42.8 25.4q-1.5.6-3.1.3-4.6-7.2-8.5-14.8a1412 1412 0 0 1 47.7-29.6c1.6-1 .4-2.4-1.3-1.4-14.5 9.2-29.9 17.7-44.8 26.5q-1.5.8-3 1.3l-3.4-8 25.5-15.5c1.6-.8.4-2.3-1.3-1.3a402 402 0 0 1-25 14.9l-2.6-8.1c17.1-12.3 36-23.4 53.9-34.4 1.5-1 .4-2.4-1.3-1.4l-6.9 4.5c-6.7 3.9-42.5 26.2-47 26.3q-1.3-4.5-2-9.1c2.7 0 29.6-18.6 34-21.5q1-.7 0-1.3c.7-1 7.3-4.6 9-5.2q2.1.2 3-2 1.3.4 1.8-.8c1.4-2.6 7.8-4 10.3-5.8q13-9.6 27-17.8c1.5-.8.5-2.5-1.2-1.5-26.8 16.6-55 32-82.3 48q-1.2.9-2.7 1-1-5-1-10a4 4 0 0 0 2-.7 3116 3116 0 0 0 51-33.7c4.5-1.8 8.4-5 12.5-7.6l1.6-2.4a36 36 0 0 0 7.6-4.5q2.5-.3 4.5-2 .6-.3.8-1l3.9-2.8q3.7-1.6 7-4l1.7-1.9q-.8 0-1.4.2-6 4.1-12.5 7.6-3 2.1-6.2 3.8-1 1.5-2.8 2.3-3 .3-5.1 2.7a117 117 0 0 0-9.8 5.4c-1.5 1.8-3.1 1.7-5 2.7q-2.2 2-4.9 3.2l-.7 2c-2.6 2-6.8 3.7-9.8 5.5l-33.1 19.5q-.6 0-1-.3c-1-4-.4-9.8 0-14l.5.2c.2 1.1 1.3.6 1.4-.4 6.3-1.4 9-7 15-8.3q25.9-18.3 53-35c1.6-.8.5-2.3-1.2-1.2-21.6 13.5-44.1 26-66.3 38.8q-1.2.8-2.2-.3a83 83 0 0 1 1.6-9.8c1.6-1.3 3.3-.8 4.3-3 1.6.3 2.7-1.4 3.8-2.4q.5 0 .7-.5c2.3-1.2 9.1-4.4 10-6.7-.7-.6-2 .6-2.9.8q-4.5 3-9.5 5.8-.8.4-1.3 1.2-.6.3-.9 1c-1.3.1-3 1.5-3.7-.4l2.7-11.7c.6.8 1.4-.2 2-.4 15-9.9 29.7-20 44.9-29.3 1.5-1 0-2.2-1.2-1.3-13.2 8.6-27.5 16.4-41.1 24.4q-1.5.8-3.2 1.3c2-6.2 5.4-18.7 9-23.7 11.2-30.7 50.5-67 82.5-74.4q1 .4 1.7-.5c19.3-7 43.1-7.7 63.2-5.2Zm-29.1 7c.5 2.2 9.2-4 9.3-4.6-1-1.5-7.8 4-9.3 4.6Zm36.8 20q.6.9 1.6.6 1.8-1.4-.5-1.2zm-51 17q1.6 1.5 2.4-.4c-.7-1-1.6 0-2.3.5Zm104.4 33c0 2 4-.6 4-1.5-1-1.2-3.3.9-4 1.6Zm-208.5 9c.4 2.3 10.4-3.8 8.9-5-2.4.5-6.4 4-8.9 5Zm116.3-1q.4.9 1.3.6 1.7-1.4-.4-1.2zm92.7 30q.6.8 1.7.5 1.6-1.4-.5-1.2zm-169.2 8.3q.3.6 0 0ZM160 234l-1.2.8q.4-.8 1.2-.8Zm19.5 50q.7.8 1.6.5 1.7-1.4-.4-1.2zm113.2 7q.4.8 1.5.5 1.8-1.4-.5-1.2zm-26 6q.8 1.4 2 0c.5-1.4-1.6-.5-2 0Zm103 9c.8 1.8 3-.5 4-1 .8-2.4-3.3.7-4 1Zm-187.1 1c.7 1.8 4.1-.5 4.2-1.6-.8-1.1-3.4 1.1-4.2 1.5Zm202 14.2c.8.1 4.4-1.4 3-2.2q-2.2 0-3 2.2Zm-14.6 9.7c1.4.8 10.6-6.1 11.6-6.8q.6-.8 0-1.3c-2.9 1.1-10.5 5.3-11.6 8.1Zm-124.3 44c.6 2 3-.4 4-.9.5-2.4-3.2.7-4 1Z"/><path fill="#eaa000" fill-opacity=".9" d="M370.1 331c1.1-2.8 8.7-7 11.5-8.1q.7.6.1 1.3c-1 .6-10.2 7.6-11.6 6.8"/><path fill="#fdb900" fill-opacity=".5" d="M324 243.9q-.7 1.8-2.6 2.2c-1.7-1 2.1-1.8 2.5-2.2"/><path fill="#fbba00" fill-opacity=".4" d="M326 243q-.6 1-2 .9.5-1.2 2-1"/><path fill="#feba00" fill-opacity=".3" stroke="#feba00" stroke-opacity=".3" stroke-width=".5" d="M329 241q-.9 1.8-3 2a4 4 0 0 1 3-2Z"/><path fill="#fdbb00" fill-opacity=".3" stroke="#fdbb00" stroke-opacity=".3" stroke-width=".5" d="M336.1 236.7c-.7 2.2-4 2.9-5.7 4.2q-.7.2-1.4 0 .4-.7 1-1.2c2.2-.9 3.7-2.8 6.1-3Z"/><path fill="#f3ac00" d="m279.7 135 1.1-.6q2.3-.1.5 1.2-1 .3-1.6-.5m53.9 88 1.2-.7q2.1 0 .5 1.2-1 .3-1.7-.5m-154 61 1.2-.6q2-.2.4 1.2-1 .3-1.6-.6m113.2 7 1-.6q2.3-.1.5 1.2-1 .3-1.5-.6m-26 6c.4-.4 2.5-1.3 2 .2q-1.2 1.3-2-.2m103 9c.7-.2 4.8-3.3 4-.8-1 .4-3.2 2.7-4 .8m-124 69c.8-.2 4.5-3.3 4-.9-1 .5-3.4 3-4 1"/><path fill="#f1aa00" d="M242.9 115c1.5-.5 8.3-6.1 9.3-4.6 0 .7-8.8 6.8-9.3 4.6m-14.1 37c.6-.4 1.6-1.4 2.3-.4q-.8 1.8-2.3.5M333 185c.7-.6 3-2.7 4-1.5 0 1-4 3.5-4 1.6m-92.2 8 .9-.6q2.2-.1.4 1.2-.9.3-1.3-.6m-58.2 114c.8-.4 3.4-2.6 4.2-1.5 0 1.1-3.5 3.4-4.2 1.5"/><path fill="#efa600" fill-opacity=".4" stroke="#efa600" stroke-opacity=".4" stroke-width=".5" d="M384.7 321.3q.8-2 3-2.2c1.4.8-2.2 2.3-3 2.2Z"/><path fill="#e59a00" fill-opacity=".9" d="M402.4 239.8q.4 1.6.4 3.4l-.7-.1-4.6 2.9q-.4.9-.3 1.9l-64.5 38.3c-1 .2-3.8 2.3-4.4 1.2a580 580 0 0 1 23.3-15.3c7.3-3.7 14-8.6 20.7-13.3 8.6-4.8 21.6-15.4 30.1-19"/><path fill="#e59900" d="M266.7 32.3q-.8-.2-1.4.4l-10.5 10.7q-.8.6-.1 1.4c1 .2 13.4-7 14-8.1q2.4 5 4.2 10.2-1 .2-1.8.8l-18.8 16.6q.7.6 1.7.2c6.3-4.6 15-8 20.7-12.8l7 19.4c-4.9.1-41.7 23.2-48.8 27.4q-1 .7-1.2 1.6l-1.8 1.1-.2.6a5 5 0 0 1-2.6.6q-.5-.2-.8.3-4.4 1.3-8.8 2.2-1.2.2-1.2-1 6-15.7 13-31.2 1.8-.5 3-2 2.7-2 4.6-4.6c.5-.5 3.4-.8 2.6-2q-2 0-2.6 2c-1.4-.6-2.4 1.1-3.4 1.7q-1.5.3-2.9 1.2 4.3-12 9.4-23.5c3.4-8.4 8.5-23.6 12-31 5.2-5 13.4 14.5 14.7 17.7m8 31.7q.9 0 1.3-.7-.9-.2-1.3.7m7.2 10.2q1-.1 1.4 1l5.4 15.6c-2.5 2.7-6.6 4.8-9.8 6.8q-.7.5-.6 1.3l-1.3 1.5q-20.1-1.2-40.1.5l.3-.8q22.5-12.9 44.7-25.9m142.4 8.7a4 4 0 0 0-2.4.3l-69.3 44q-1 .7-1.6 1.6c-3-2.1-9-5.5-11.4-8 3.8-2.6 28-15.6 29.2-17.5l4.5-2.6q1.1.4 1.7-.6a1635 1635 0 0 1 45-19.6c1.6-1 3.1 1.6 4.3 2.4M92.3 85q-1 2.2-1.5 4.6l.5.5c1.9-.5 5.3-2.4 6.5-4 2.6.7 11.2 3 12.6 5a120 120 0 0 0-6.6 9.9c-.3.6-1 1.2-.2 1.7q6.8-3.5 13.4-7.4.7-.4.8-1.2c3.1.4 8.6 3.4 11.6 4.9-3 3-7 6.8-9.2 10.4q.9.7 1.8.2c2.9-2 11-5.8 13-8l21.5 10.4c-1.7 1.9-6.6 4.7-7.3 6.8a4 4 0 0 0-3 1.7c.9 1.2 2.6-.9 3-1.7 2.7-.5 7.4-3.6 9.8-5.3q5.7 2.2 11.3 4.8l-2 1.3q-8 6.7-16 13.7.7.5 1.6 0l11.9-7q1-.5 2-.7 0 1-.9 1.7a182 182 0 0 0-34.2 29.6q-1-.1-1.7.5-1.2 1.6-3 2.4-.1-1.2-1.3-.8c-1.7.9-9 4.6-9.6 5.8q-.6 0-1-.6l-3.5-8.4 15.2-13.3q-.9-.3-1.8.2l-14.8 8.5c-2-2-11.6-25.8-13.5-30.3q3.8-4.5 8-8.5-1.8-.6-2.5 1a62 62 0 0 0-7 3.9c-1.8-3.9-4.7-9.5-5.4-13.6q.9.1 1.5-.5l.8-1.2q.6-.8.8-1.7a4 4 0 0 0 1.4-2.2q-1.7.1-2.1 1.8h-1.3l-1.1 1q-.7.3-.7 1-.9-.4-1.3-1.3c-3.6-6.3-9.1-16.9 3.4-15.6M425 91h.7c.7 3.7-.7 8.6-2 12.1q-1.1-.2-2 .4l-55.4 35.3a2 2 0 0 0-1 1.2c-2-.5-8.5-7-10.7-8.4zm-153 17q2 0 4 .7c-.8 2-19 11.3-22 14-1.4 1-2.9-.3-1.2-1.3l17.8-11q1.3-1 1.3-2.5m17.1 3.3 7 2a36 36 0 0 1-5.5 3.8q-25.5 14.4-50.6 29.6c-1.4 1-3.1-.3-1.3-1.3q22.8-14.7 45.3-29.8 3-1.7 5.1-4.3m130.2 2.6h.4q-2.7 7.2-5.9 14.2-1.1 0-.7 1.1-1-.6-2.3-.2a2076 2076 0 0 0-35 22.2c-1.7-1.6-7.3-6.7-7.9-8.7q1 .3 2-.3 24.5-14.4 49.3-28.3M307 117l2 1.3q0 .8-.6 1.4l-5.7 3.7q-5 2.4-9.6 5.4c-1.7 1-3-.4-1.3-1.4 2.9-2 14.2-7.5 15.2-10.3m12.2 5.4c1 .8 5.8 2.3 5.6 3.7q-1 0-2 .6l-10.2 6.4-.4.7-2 1.8c-5.5 3.5-11.1 5.5-16.1 9.9-14.7 8.3-29.6 16.3-44 25.2q-1.2.7-2-.2 0-.7.7-1 33.6-21.6 66.7-43.5a8 8 0 0 0 3.7-3.6m15 8.4c1 .8 5.7 3 5.6 4.3l-4.9 3.7a5 5 0 0 0-3.2 2.4q-1-.3-1.7.7c-6.6 3-11.7 7-17.4 11a2269 2269 0 0 0-58 33.1l-2.5 1.9c-1 .5-2.4.5-1.8-1l83-54q1-.9 1-2.1m76.2 3 .3.3q-3.3 7-6.9 14l-1 .7-9.9 5.8q-.7.5-.7 1.5c-.8 1.4-5 3.9-6.7 3.3l-1.3 1.6c-2.3-2-5.3-5.5-6.5-8.2zM108.6 139c1.9 1.5 5.1-1 4-2.1q-2.2.6-4 2m239.7 1.7 7 6c-31.2 16.4-64 36-94.2 54-.9.7-2.7.4-1.8-.8q42.7-27.2 85-55c1.4-1.1 4.2-2 4-4.2m13 12 3 3a19 19 0 0 0-4 1.9c-17.7 10.4-36 20.3-53.2 31.2-.8.6-2.6.3-1.7-.8l1.9-1.4a2078 2078 0 0 0 54-34m8.4 9 1.6 2q-12.7 7.4-25.2 15.2c-1.3 1-3-.4-1.2-1.4 4.6-3 22.1-12.5 24.8-15.7m24.3 7a8 8 0 0 1-1.5 5 8 8 0 0 1-2.1-4c1 .8 2.6-.7 3.6-1m-17.4 2 2 3a974 974 0 0 0-46.5 27.2c-1.3 1-3-.4-1.3-1.4a1059 1059 0 0 0 45.8-28.7m-262.4 46.4 1.4-5.3q1.7-.5 3.2-1.3c13.6-8 28-15.8 41-24.4 1.4-1 2.8.4 1.3 1.3-15.2 9.3-30 19.4-44.8 29.3-.7.2-1.5 1.2-2 .4M388 190l1 2q-21 12-42 24.7-1 .7-2-.2.7-1.4 2.2-2 18.1-10.5 35.3-22.5 2.5-2 5.5-2m-276.9 58.8-1.4.4-.4-.2q-.4-3 .1-6.2 1 1 2.2.3c22.2-12.8 44.7-25.3 66.3-38.8 1.7-1 2.8.4 1.3 1.3a897 897 0 0 0-53 34.9c-6 1.3-8.8 6.8-15.1 8.3m-14-7.7q-.7.3-1.2 1l-1.9.6-50 29q-.6.3-.9 1.1c-7.3-2.6-26.3-9.7-27.5-18.5.7-7 10.2-7.8 15.4-10.2l-.2.8q-1 1-1.6 2.4.2.6.8.4 5.6-3.6 11.2-6.9.5-.2.5-.8 1.3-.4 2.4-1.3 1.2.4 1.9-.6c17-7 36-15.2 53.2-21-.5.5-2 1.2-.8 2 1.7 0 3-1.6.8-2-.2-1 3.1-2.6 2.6.4q-2.7 11.7-4.6 23.6m318.8-22a8 8 0 0 0-3.6 3.2l-1.1-3.9c-.8-2.5 4.4-.3 4.7.8m5 1.7c2 .7 9.6 2.7 10.4 4.6q-8.3 4.6-16.2 10c-1.4-1-1.8-8.4-2.3-10.5 2.4.3 6.3-2.6 8-4.1m-21.5 1a51 51 0 0 1 1.3 7q-2.8 1-4.7 3.2c-1.9-.2-3 1.3-4.5 2l-.5 1a2 2 0 0 0-2 1 1 1 0 0 0-1 1 9 9 0 0 0-2.6 1C360 254.8 330 269 304 285.9c-1 .6-2.4.5-1.8-1zm34.6 3.9c1.9 1 9.2 2.9 10.1 4.4l-.3 1q-13.5 8.2-26.6 17.2H416c-1-2.7-1-8.5-1-11.6q1.2.2 2-.4l15.3-8.7zM119.8 227l-.7.5zm-3.7 1.1-.9 1q.3-.7.9-1m-4.6.6c.7 2 2.4.5 3.7.3v.9c-.9 2.2-2.6 1.7-4.2 3q0-2.1.5-4.2m47.3 26.3q-1.2-.2-1.8.8a4 4 0 0 0-3 2c-1.7.6-8.3 4.2-9 5.2-1.9 0-8.4 5-10.7 5.7-5 3.2-19.6 10.7-23.3 14-1.2.1-.9-3-1-3.8q1.4-.1 2.6-1c27.2-16 55.5-31.4 82.3-48 1.7-1 2.7.7 1.2 1.5a314 314 0 0 0-27 17.8c-2.5 1.9-9 3.2-10.3 5.8M452 232.6q11.3 4.3 22.1 9.1-1 .3-2 .9l-36.4 22.6q-1 .6-1.6 1.7-1.5-.3-2 1.2-2.1 0-3 1.8-1.2 0-1.8.8c.5 1 1.8 0 1.8-.8q2 0 3-1.8 1.5.2 2-1.2 1 0 2-.5l14-8q12.3-7.4 24.6-14.3.9-.6 1.4-1.3c3.1.6 6.7 2.8 9.6 4.2q.4.6.3 1.2a3 3 0 0 0-1.9.5c-22 13.7-43.8 28-66 41.3q-2.9 2.1-6.1 3.9-1 .5-1.7 1.3c3.4-13.9 5-27.2 6-41.5 2.2-.8 33.4-18.1 35.7-21m4.9 8.6c1.2 0 4.5-1.8 5-2.8-1-1.3-5 1.9-5 2.8m-360 2.6q.1 6.6-.2 13.4c-2.6 0-31 17.5-35.8 20.2a2 2 0 0 0-.8 2c-1.8-1-10.5-2.9-11.1-4.6l.4-.8q23.8-15 47.5-30.2M47 259q-2.4-.4-3 2-1.5-.5-2 1c-1.7 0-4 1.4-5 2.7.8 1.3 4.5-1.6 5-2.7q1.5.3 2-1 2-.5 3-2c1.4.1 4.5-1.5 5-2.6-.7-1.3-4.9 1.6-5 2.6m49.6-.3q.4 6.3.3 12.6c-1.7-.3-17.8 10-20.6 11.3q-1 .4-1 1.6c-3.6-.2-7.4-2.3-10.9-3.2q-1 0-1.2-1c10.7-6.5 23.4-14.1 33.4-21.3m17.7 41.3-1.4-5c4.6 0 40.4-22.4 47.1-26.3l7-4.5c1.6-1 2.7.5 1.2 1.4-18 11-36.8 22.1-54 34.4m288-32q-.1 4.1-1 8-.6 0-1.3.4L343.6 309c-4.8 3-10 5.5-14.5 8.9-1.7 1-2.8-.5-1.3-1.4 24.1-15 48.5-32 72.3-47.7q1-.6 2.3-.7M97.8 278.9q1.2 5.1 2 10.4c-1.6.3-4 1.1-3.7 3.2q-5.2-2.3-10.7-4.2a3 3 0 0 1-1.4-1c3.1-.8 10.9-6.2 13.8-8.4m301.5 9.3-.4 2.8c-4.3 1.2-11.6 6.5-15.7 9-1.6 1-2.7-.7-1.3-1.4zm-276.7 33.1-1.4-3.2q1.5-.5 3-1.3c15-8.8 30.3-17.3 44.8-26.5 1.7-1 2.9.5 1.3 1.4q-24.2 14.3-47.7 29.6m-4.8-11.1-.8-2q12.8-7 25-14.9c1.7-1 2.9.5 1.3 1.3zm51.2 52a2 2 0 0 0-2 .8 5 5 0 0 0-3 2l-4.8 2.1q-3-2.1-5.5-4.6c34.7-19.1 70.8-40.3 105-60.5 2-.4 1.1 1.5 0 2q-40 25.3-79.1 52c-2.8 2-8.5 3.6-10.6 6.1m-36-23.3-2-2.8q1.5.3 3-.4c14.3-8.5 29-16.4 43-25.3 1.5-1 2.8.5 1.2 1.3q-21.1 12.6-42 26-1.5.9-3 1.3m8.6 11.3a5 5 0 0 1-1.3-2.3q6.3-4 12.4-8.3.6 0 1.1-.3c1.4-1.4 8.7-5 9.1-6.3 2.2 0 2.3-1.4 3.7-2.7q1.5-.8 2.9-2c5 0 8.6-6.1 13.3-8q7-3.4 13.8-7.3c1.4-.6 1.6.8.5 1.5q-27.2 17-54.2 34.2-.8.6-1.3 1.5m32.1 27.9-5-3.5q.4-1 1.3-1.8c26.6-15.5 53.7-30.5 79.8-46.6 1.6-1 2.8.5 1.3 1.4-25.8 15.6-50.8 32.7-76.3 49q-.9.5-1 1.5m25 12.9a29 29 0 0 1-7-2.8q43.7-25.3 87.1-51 1-.6 2 0-.8 1.5-2 2.2a4165 4165 0 0 0-67.4 44.5 34 34 0 0 1-5 2.2c-4.5.2-5.4 1.7-7.6 4.9m182.4-53.8q-3 5.6-6.7 11-1-1.2-2.3-.3c-5.9 3.6-12.7 6.9-18 11-1 .7-2.5.2-1.7-1 9.8-6.3 19.4-13.8 28.7-20.7m12.2 4.8c-2.2-.4-4.7 1.8-6.1 3.3l-1-.1c.3-1.8 3.1-5.6 4.4-7.1 1.7-.6 2 3 2.7 4m-272.4.1c1 0 5.1 7 6.2 8q-8.1 4.2-16.1 9.1c.6-3.5 4.6-10.6 6-14.4q.7-.2 1-1 1.8 0 2.9-1.7m273.7 4.6c1.8.6 3.6 7.5 4.7 9.2-3.4 2.2-9 7-11.9 10l-2.5 1.6q-1.4 1 .3 1.2.7-.1 1.3-.6 7.2-4 14.2-8.5c2.5 5.7 7 14.8 8.3 20.6-1.8.4-4 3-5 4.5-.6.7-2.7.7-2.7 1.7q.7.8 1.6.3 3.3-2.6 7-4.5.9.2 1.2 1.1 2.4 5.3 4.2 10.8-1.3-.2-2.1.7-3.2 3.6-6 7.6c1.5.7 7.7-4 9.5-4.7 2.7 6.2 13.8 25.5 10.1 31.5q-.6 0-.6.5c-3.1 1.5-24.5-8.4-25.6-10a26 26 0 0 0 4-4.2c-1-.3-4.4 1.6-5.4 2.1q-1 .4-1 1.5c-2-.4-10.8-3.6-11.7-5.4l9.8-11.7q.7-.9.1-1.7c-5.6 2.4-11.1 6.3-16.6 9.2q-.8.6-1 1.4c-2.6-.8-10-3.3-11.3-5.2q5.4-4.2 10.1-9a1 1 0 0 0-1-.2q-7 3.6-13.6 7.8-5.3-2-10.3-4.4c.7-.6 1-2.3 2.3-1.8a6 6 0 0 0 2.8-3.2c.6-.1 4-.7 2.6-1.8q-1.7.1-2.6 1.8-2.3.5-4.1 1.9-1.4.8-2.7 2c-1.7 0-10.5-3.5-11-4.9q.9-.1 1.5-.7 8.7-7.2 17-14.6c-.8-1-2.3 1.3-3.6 1.1a67 67 0 0 0-7.8 4.6l-.3-1c10-7.3 22.5-18.1 30.3-27.6a4 4 0 0 0 2.8-.3c2.3-1.7 11.6-6.4 14.7-8.7m-265.5 8.4.5-.5c2.5.7 6 6.6 8.4 8.3q-1.5.3-2.8.8-17.7 10-35.1 20.6l-1-.2c1.6-5.1 4.6-10.6 7-15.3a2 2 0 0 0 1.8-.1zm10 10.9.8-.2c2.4 1 7 6 9.2 8-3.6.6-7.6 4.3-11.2 5.7L89 408a124 124 0 0 1 6-15c2.2.2 39.2-23.8 44.4-27m261.7 6.3q1.7 0 2.2-1.6-1.9-.2-2.2 1.6M278 403.9q-7.5.4-15 .4.5-1.3 1.7-2l43.9-25.2q5.1-3 10-6.3 1.9.4.5 1.6-21 14.7-41.6 29.5-.4 1.1.5 2m-128.7-29.1h.6c2.3 1.6 19.8 13.5 20.1 14.4a803 803 0 0 0-40.2 23c-1.3.3-3.7 1.3-3.7 2.8q-1.5-.4-1.8 1c-7.8 2.2-28.2 13.9-35.1 13.2q-2.3 0-2.9-2.3l28.1-17q.8-.6 1.3-1.3 1 0 2-.6c2-1.7 7.2-3.7 8.3-6 2 0 4-1.3 5-3a14 14 0 0 0 7-4q2.1 0 3-2a2 2 0 0 0 1.9-.7c-.6-.9-1.8 0-2 .7a3 3 0 0 0-2.9 2c-1.6-.5-3 1.5-4.6 1.9q-1.7.6-2.4 2.1a7 7 0 0 0-5 3c-2.3-.2-7.3 3.8-9.7 4.8a3 3 0 0 0-1.4 1.4q-.9 0-1.6.5-13.7 7.9-27.2 16c-2.2.1.7-10.6 1.2-12q1 .3 1.7-.3zm65.6 22.4q-2-.5-3.8-1.5l1.5-1.4c7.7-4.6 16.6-9.5 24.3-14.1 1.7-1 2.8.5 1.3 1.4-3.6 2-22.6 12.7-23.3 15.6m30 6.2-5-.7c10.7-6.7 22.4-12.4 33-19.6q1.1-.7 1.9.3c0 1.3-7 4.9-8.3 5.6q-10.8 7.3-21.7 14.4m39 32.8-5 4.2a3 3 0 0 0-.8 1.5 3 3 0 0 0-2.8 1.8c.5 1.4 2.5-1 2.8-1.8 1.1.6 2.7-1.1 4-1.3-1.6 6.4-5.7 15.4-8.4 21.6-2.6 6.8-10.4 31.3-14.6 35.3-3 1.7-7.2-4.6-8.5-6.6l5-6.2c-1.3-1-4.8 2-6.2 2.6-2.3-.8-4-7.3-5.1-9.5q1-.4 1.8-1.2l12.5-12q-.3-.4-.9-.3l-15.4 9q-2-4.5-3.7-9.3l19.1-16.4q-.3-.4-1-.3l-17.1 9.9q-.8.5-1.4 1.2H237c-1.6-1.1-6.5-16.5-7.4-19.4 4-1 31.2-20.2 36.9-24q.4-.6.4-1.3l1-1.6q13.4-1.7 26.6-5 .6 0 1.1.4a467 467 0 0 1-11.8 28.7m-46.3 10.1c.7-.2 4.4-1.2 3-2.3a3 3 0 0 0-3 2.3"/><path fill="none" stroke="#e59900" stroke-width=".5" d="M266.7 32.3q-.8-.2-1.4.4l-10.5 10.7q-.8.6-.1 1.4c1 .2 13.4-7 14-8.1q2.4 5 4.2 10.2-1 .2-1.8.8l-18.8 16.6q.7.6 1.7.2c6.3-4.6 15-8 20.7-12.8l7 19.4c-4.9.1-41.7 23.2-48.8 27.4q-1 .7-1.2 1.6l-1.8 1.1-.2.6a5 5 0 0 1-2.6.6q-.5-.2-.8.3-4.4 1.3-8.8 2.2-1.2.2-1.2-1 6-15.7 13-31.2 1.8-.5 3-2 2.7-2 4.6-4.6c.5-.5 3.4-.8 2.6-2q-2 0-2.6 2c-1.4-.6-2.4 1.1-3.4 1.7q-1.5.3-2.9 1.2 4.3-12 9.4-23.5c3.4-8.4 8.5-23.6 12-31 5.2-5 13.4 14.5 14.7 17.7Zm8 31.7q.9 0 1.3-.7-.9-.2-1.3.7Zm7.2 10.2q1-.1 1.4 1l5.4 15.6c-2.5 2.7-6.6 4.8-9.8 6.8q-.7.5-.6 1.3l-1.3 1.5q-20.1-1.2-40.1.5l.3-.8q22.5-12.9 44.7-25.9Zm142.4 8.7a4 4 0 0 0-2.4.3l-69.3 44q-1 .7-1.6 1.6c-3-2.1-9-5.5-11.4-8 3.8-2.6 28-15.6 29.2-17.5l4.5-2.6q1.1.4 1.7-.6a1635 1635 0 0 1 45-19.6c1.6-1 3.1 1.6 4.3 2.4ZM92.3 85q-1 2.2-1.5 4.6l.5.5c1.9-.5 5.3-2.4 6.5-4 2.6.7 11.2 3 12.6 5a120 120 0 0 0-6.6 9.9c-.3.6-1 1.2-.2 1.7q6.8-3.5 13.4-7.4.7-.4.8-1.2c3.1.4 8.6 3.4 11.6 4.9-3 3-7 6.8-9.2 10.4q.9.7 1.8.2c2.9-2 11-5.8 13-8l21.5 10.4c-1.7 1.9-6.6 4.7-7.3 6.8a4 4 0 0 0-3 1.7c.9 1.2 2.6-.9 3-1.7 2.7-.5 7.4-3.6 9.8-5.3q5.7 2.2 11.3 4.8l-2 1.3q-8 6.7-16 13.7.7.5 1.6 0l11.9-7q1-.5 2-.7 0 1-.9 1.7a182 182 0 0 0-34.2 29.6q-1-.1-1.7.5-1.2 1.6-3 2.4-.1-1.2-1.3-.8c-1.7.9-9 4.6-9.6 5.8q-.6 0-1-.6l-3.5-8.4 15.2-13.3q-.9-.3-1.8.2l-14.8 8.5c-2-2-11.6-25.8-13.5-30.3q3.8-4.5 8-8.5-1.8-.6-2.5 1a62 62 0 0 0-7 3.9c-1.8-3.9-4.7-9.5-5.4-13.6q.9.1 1.5-.5l.8-1.2q.6-.8.8-1.7a4 4 0 0 0 1.4-2.2q-1.7.1-2.1 1.8h-1.3l-1.1 1q-.7.3-.7 1-.9-.4-1.3-1.3c-3.6-6.3-9.1-16.9 3.4-15.6Zm332.8 6h.7c.7 3.7-.7 8.6-2 12.1q-1.1-.2-2 .4l-55.4 35.3a2 2 0 0 0-1 1.2c-2-.5-8.5-7-10.7-8.4zm-153 17q2 0 4 .7c-.8 2-19 11.3-22 14-1.4 1-2.9-.3-1.2-1.3l17.8-11q1.3-1 1.3-2.5Zm17.1 3.3 7 2a36 36 0 0 1-5.5 3.8q-25.5 14.4-50.6 29.6c-1.4 1-3.1-.3-1.3-1.3q22.8-14.7 45.3-29.8 3-1.7 5.1-4.3Zm130.2 2.6h.4q-2.7 7.2-5.9 14.2-1.1 0-.7 1.1-1-.6-2.3-.2a2076 2076 0 0 0-35 22.2c-1.7-1.6-7.3-6.7-7.9-8.7q1 .3 2-.3 24.5-14.4 49.3-28.3ZM307 117l2 1.3q0 .8-.6 1.4l-5.7 3.7q-5 2.4-9.6 5.4c-1.7 1-3-.4-1.3-1.4 2.9-2 14.2-7.5 15.2-10.3Zm12.2 5.4c1 .8 5.8 2.3 5.6 3.7q-1 0-2 .6l-10.2 6.4-.4.7-2 1.8c-5.5 3.5-11.1 5.5-16.1 9.9-14.7 8.3-29.6 16.3-44 25.2q-1.2.7-2-.2 0-.7.7-1 33.6-21.6 66.7-43.5a8 8 0 0 0 3.7-3.6Zm15 8.4c1 .8 5.7 3 5.6 4.3l-4.9 3.7a5 5 0 0 0-3.2 2.4q-1-.3-1.7.7c-6.6 3-11.7 7-17.4 11a2269 2269 0 0 0-58 33.1l-2.5 1.9c-1 .5-2.4.5-1.8-1l83-54q1-.9 1-2.1Zm76.2 3 .3.3q-3.3 7-6.9 14l-1 .7-9.9 5.8q-.7.5-.7 1.5c-.8 1.4-5 3.9-6.7 3.3l-1.3 1.6c-2.3-2-5.3-5.5-6.5-8.2zM108.6 139c1.9 1.5 5.1-1 4-2.1q-2.2.6-4 2Zm239.7 1.7 7 6c-31.2 16.4-64 36-94.2 54-.9.7-2.7.4-1.8-.8q42.7-27.2 85-55c1.4-1.1 4.2-2 4-4.2Zm13 12 3 3a19 19 0 0 0-4 1.9c-17.7 10.4-36 20.3-53.2 31.2-.8.6-2.6.3-1.7-.8l1.9-1.4a2078 2078 0 0 0 54-34Zm8.4 9 1.6 2q-12.7 7.4-25.2 15.2c-1.3 1-3-.4-1.2-1.4 4.6-3 22.1-12.5 24.8-15.7Zm24.3 7a8 8 0 0 1-1.5 5 8 8 0 0 1-2.1-4c1 .8 2.6-.7 3.6-1Zm-17.4 2 2 3a974 974 0 0 0-46.5 27.2c-1.3 1-3-.4-1.3-1.4a1059 1059 0 0 0 45.8-28.7Zm-262.4 46.4 1.4-5.3q1.7-.5 3.2-1.3c13.6-8 28-15.8 41-24.4 1.4-1 2.8.4 1.3 1.3-15.2 9.3-30 19.4-44.8 29.3-.7.2-1.5 1.2-2 .4ZM388 190l1 2q-21 12-42 24.7-1 .7-2-.2.7-1.4 2.2-2 18.1-10.5 35.3-22.5 2.5-2 5.5-2Zm-276.9 58.8-1.4.4-.4-.2q-.4-3 .1-6.2 1 1 2.2.3c22.2-12.8 44.7-25.3 66.3-38.8 1.7-1 2.8.4 1.3 1.3a897 897 0 0 0-53 34.9c-6 1.3-8.8 6.8-15.1 8.3Zm-14-7.7q-.7.3-1.2 1l-1.9.6-50 29q-.6.3-.9 1.1c-7.3-2.6-26.3-9.7-27.5-18.5.7-7 10.2-7.8 15.4-10.2l-.2.8q-1 1-1.6 2.4.2.6.8.4 5.6-3.6 11.2-6.9.5-.2.5-.8 1.3-.4 2.4-1.3 1.2.4 1.9-.6c17-7 36-15.2 53.2-21-.5.5-2 1.2-.8 2 1.7 0 3-1.6.8-2-.2-1 3.1-2.6 2.6.4q-2.7 11.7-4.6 23.6Zm318.8-22a8 8 0 0 0-3.6 3.2l-1.1-3.9c-.8-2.5 4.4-.3 4.7.8Zm5 1.7c2 .7 9.6 2.7 10.4 4.6q-8.3 4.6-16.2 10c-1.4-1-1.8-8.4-2.3-10.5 2.4.3 6.3-2.6 8-4.1Zm-21.5 1a51 51 0 0 1 1.3 7q-2.8 1-4.7 3.2c-1.9-.2-3 1.3-4.5 2l-.5 1a2 2 0 0 0-2 1 1 1 0 0 0-1 1 9 9 0 0 0-2.6 1C360 254.8 330 269 304 285.9c-1 .6-2.4.5-1.8-1zm34.6 3.9c1.9 1 9.2 2.9 10.1 4.4l-.3 1q-13.5 8.2-26.6 17.2H416c-1-2.7-1-8.5-1-11.6q1.2.2 2-.4l15.3-8.7zM119.8 227l-.7.5zm-8.3 1.7c.7 2 2.4.5 3.7.3v.9c-.9 2.2-2.6 1.7-4.2 3q0-2.1.5-4.2Zm47.3 26.3q-1.2-.2-1.8.8a4 4 0 0 0-3 2c-1.7.6-8.3 4.2-9 5.2-1.9 0-8.4 5-10.7 5.7-5 3.2-19.6 10.7-23.3 14-1.2.1-.9-3-1-3.8q1.4-.1 2.6-1c27.2-16 55.5-31.4 82.3-48 1.7-1 2.7.7 1.2 1.5a314 314 0 0 0-27 17.8c-2.5 1.9-9 3.2-10.3 5.8ZM452 232.6q11.3 4.3 22.1 9.1-1 .3-2 .9l-36.4 22.6q-1 .6-1.6 1.7-1.5-.3-2 1.2-2.1 0-3 1.8-1.2 0-1.8.8c.5 1 1.8 0 1.8-.8q2 0 3-1.8 1.5.2 2-1.2 1 0 2-.5l14-8q12.3-7.4 24.6-14.3.9-.6 1.4-1.3c3.1.6 6.7 2.8 9.6 4.2q.4.6.3 1.2a3 3 0 0 0-1.9.5c-22 13.7-43.8 28-66 41.3q-2.9 2.1-6.1 3.9-1 .5-1.7 1.3c3.4-13.9 5-27.2 6-41.5 2.2-.8 33.4-18.1 35.7-21Zm4.9 8.6c1.2 0 4.5-1.8 5-2.8-1-1.3-5 1.9-5 2.8Zm-360 2.6q.1 6.6-.2 13.4c-2.6 0-31 17.5-35.8 20.2a2 2 0 0 0-.8 2c-1.8-1-10.5-2.9-11.1-4.6l.4-.8q23.8-15 47.5-30.2ZM47 259q-2.4-.4-3 2-1.5-.5-2 1c-1.7 0-4 1.4-5 2.7.8 1.3 4.5-1.6 5-2.7q1.5.3 2-1 2-.5 3-2c1.4.1 4.5-1.5 5-2.6-.7-1.3-4.9 1.6-5 2.6Zm49.6-.3q.4 6.3.3 12.6c-1.7-.3-17.8 10-20.6 11.3q-1 .4-1 1.6c-3.6-.2-7.4-2.3-10.9-3.2q-1 0-1.2-1c10.7-6.5 23.4-14.1 33.4-21.3Zm17.7 41.3-1.4-5c4.6 0 40.4-22.4 47.1-26.3l7-4.5c1.6-1 2.7.5 1.2 1.4-18 11-36.8 22.1-54 34.4Zm288-32q-.1 4.1-1 8-.6 0-1.3.4L343.6 309c-4.8 3-10 5.5-14.5 8.9-1.7 1-2.8-.5-1.3-1.4 24.1-15 48.5-32 72.3-47.7q1-.6 2.3-.7ZM97.8 278.9q1.2 5.1 2 10.4c-1.6.3-4 1.1-3.7 3.2q-5.2-2.3-10.7-4.2a3 3 0 0 1-1.4-1c3.1-.8 10.9-6.2 13.8-8.4Zm301.5 9.3-.4 2.8c-4.3 1.2-11.6 6.5-15.7 9-1.6 1-2.7-.7-1.3-1.4zm-276.7 33.1-1.4-3.2q1.5-.5 3-1.3c15-8.8 30.3-17.3 44.8-26.5 1.7-1 2.9.5 1.3 1.4q-24.2 14.3-47.7 29.6Zm-4.8-11.1-.8-2q12.8-7 25-14.9c1.7-1 2.9.5 1.3 1.3zm51.2 52a2 2 0 0 0-2 .8 5 5 0 0 0-3 2l-4.8 2.1q-3-2.1-5.5-4.6c34.7-19.1 70.8-40.3 105-60.5 2-.4 1.1 1.5 0 2q-40 25.3-79.1 52c-2.8 2-8.5 3.6-10.6 6.1Zm-36-23.4-2-2.8q1.5.3 3-.4c14.3-8.5 29-16.4 43-25.3 1.5-1 2.8.5 1.2 1.3q-21.1 12.6-42 26-1.5.9-3 1.3Zm8.6 11.3a5 5 0 0 1-1.3-2.3q6.3-4 12.4-8.3.6 0 1.1-.3c1.4-1.4 8.7-5 9.1-6.3 2.2 0 2.3-1.4 3.7-2.7q1.5-.8 2.9-2c5 0 8.6-6.1 13.3-8q7-3.4 13.8-7.3c1.4-.6 1.6.8.5 1.5q-27.2 17-54.2 34.2-.8.6-1.3 1.5Zm32.1 27.9-5-3.5q.4-1 1.3-1.8c26.6-15.5 53.7-30.5 79.8-46.6 1.6-1 2.8.5 1.3 1.4-25.8 15.6-50.8 32.7-76.3 49q-.9.5-1 1.5Zm25 12.9a29 29 0 0 1-7-2.8q43.7-25.3 87.1-51 1-.6 2 0-.8 1.5-2 2.2a4165 4165 0 0 0-67.4 44.5 34 34 0 0 1-5 2.2c-4.5.2-5.4 1.7-7.6 4.9Zm182.4-53.8q-3 5.6-6.7 11-1-1.2-2.3-.3c-5.9 3.6-12.7 6.9-18 11-1 .7-2.5.2-1.7-1 9.8-6.3 19.4-13.8 28.7-20.7Zm12.2 4.8c-2.2-.4-4.7 1.8-6.1 3.3l-1-.1c.3-1.8 3.1-5.6 4.4-7.1 1.7-.6 2 3 2.7 4Zm-272.4.1c1 0 5.1 7 6.2 8q-8.1 4.2-16.1 9.1c.6-3.5 4.6-10.6 6-14.4q.7-.2 1-1 1.8 0 2.9-1.7Zm273.7 4.6c1.8.6 3.6 7.5 4.7 9.2-3.4 2.2-9 7-11.9 10l-2.5 1.6q-1.4 1 .3 1.2.7-.1 1.3-.6 7.2-4 14.2-8.5c2.5 5.7 7 14.8 8.3 20.6-1.8.4-4 3-5 4.5-.6.7-2.7.7-2.7 1.7q.7.8 1.6.3 3.3-2.6 7-4.5.9.2 1.2 1.1 2.4 5.3 4.2 10.8-1.3-.2-2.1.7-3.2 3.6-6 7.6c1.5.7 7.7-4 9.5-4.7 2.7 6.2 13.8 25.5 10.1 31.5q-.6 0-.6.5c-3.1 1.5-24.5-8.4-25.6-10a26 26 0 0 0 4-4.2c-1-.3-4.4 1.6-5.4 2.1q-1 .4-1 1.5c-2-.4-10.8-3.6-11.7-5.4l9.8-11.7q.7-.9.1-1.7c-5.6 2.4-11.1 6.3-16.6 9.2q-.8.6-1 1.4c-2.6-.8-10-3.3-11.3-5.2q5.4-4.2 10.1-9a1 1 0 0 0-1-.2q-7 3.6-13.6 7.8-5.3-2-10.3-4.4c.7-.6 1-2.3 2.3-1.8a6 6 0 0 0 2.8-3.2c.6-.1 4-.7 2.6-1.8q-1.7.1-2.6 1.8-2.3.5-4.1 1.9-1.4.8-2.7 2c-1.7 0-10.5-3.5-11-4.9q.9-.1 1.5-.7 8.7-7.2 17-14.6c-.8-1-2.3 1.3-3.6 1.1a67 67 0 0 0-7.8 4.6l-.3-1c10-7.3 22.5-18.1 30.3-27.6a4 4 0 0 0 2.8-.3c2.3-1.7 11.6-6.4 14.7-8.7ZM129.1 355l.5-.5c2.5.7 6 6.6 8.4 8.3q-1.5.3-2.8.8-17.7 10-35.1 20.6l-1-.2c1.6-5.1 4.6-10.6 7-15.3a2 2 0 0 0 1.8-.1zm10 10.9.8-.2c2.4 1 7 6 9.2 8-3.6.6-7.6 4.3-11.2 5.7L89 408a124 124 0 0 1 6-15c2.2.2 39.2-23.8 44.4-27Zm261.7 6.3q1.7 0 2.2-1.6-1.9-.2-2.2 1.6ZM278 403.9q-7.5.4-15 .4.5-1.3 1.7-2l43.9-25.2q5.1-3 10-6.3 1.9.4.5 1.6-21 14.7-41.6 29.5-.4 1.1.5 2Zm-128.7-29.1h.6c2.3 1.6 19.8 13.5 20.1 14.4a803 803 0 0 0-40.2 23c-1.3.3-3.7 1.3-3.7 2.8q-1.5-.4-1.8 1c-7.8 2.2-28.2 13.9-35.1 13.2q-2.3 0-2.9-2.3l28.1-17q.8-.6 1.3-1.3 1 0 2-.6c2-1.7 7.2-3.7 8.3-6 2 0 4-1.3 5-3a14 14 0 0 0 7-4q2.1 0 3-2a2 2 0 0 0 1.9-.7c-.6-.9-1.8 0-2 .7a3 3 0 0 0-2.9 2c-1.6-.5-3 1.5-4.6 1.9q-1.7.6-2.4 2.1a7 7 0 0 0-5 3c-2.3-.2-7.3 3.8-9.7 4.8a3 3 0 0 0-1.4 1.4q-.9 0-1.6.5-13.7 7.9-27.2 16c-2.2.1.7-10.6 1.2-12q1 .3 1.7-.3zm65.6 22.4q-2-.5-3.8-1.5l1.5-1.4c7.7-4.6 16.6-9.5 24.3-14.1 1.7-1 2.8.5 1.3 1.4-3.6 2-22.6 12.7-23.3 15.6Zm30 6.2-5-.7c10.7-6.7 22.4-12.4 33-19.6q1.1-.7 1.9.3c0 1.3-7 4.9-8.3 5.6q-10.8 7.3-21.7 14.4Zm39 32.8-5 4.2a3 3 0 0 0-.8 1.5 3 3 0 0 0-2.8 1.8c.5 1.4 2.5-1 2.8-1.8 1.1.6 2.7-1.1 4-1.3-1.6 6.4-5.7 15.4-8.4 21.6-2.6 6.8-10.4 31.3-14.6 35.3-3 1.7-7.2-4.6-8.5-6.6l5-6.2c-1.3-1-4.8 2-6.2 2.6-2.3-.8-4-7.3-5.1-9.5q1-.4 1.8-1.2l12.5-12q-.3-.4-.9-.3l-15.4 9q-2-4.5-3.7-9.3l19.1-16.4q-.3-.4-1-.3l-17.1 9.9q-.8.5-1.4 1.2h-1.1c-1.6-1.1-6.5-16.5-7.4-19.4 4-1 31.2-20.2 36.9-24q.4-.6.4-1.3l1-1.6q13.4-1.7 26.6-5 .6 0 1.1.4a467 467 0 0 1-11.8 28.7Zm-46.3 10.1c.7-.2 4.4-1.2 3-2.3a3 3 0 0 0-3 2.3Z"/><path fill="#e49900" fill-opacity=".2" stroke="#e49900" stroke-opacity=".2" stroke-width=".5" d="M131 399c-1 1.6-3 3-5 3a7 7 0 0 1 5-3Z"/><path fill="#e59900" fill-opacity=".5" stroke="#e59900" stroke-opacity=".5" stroke-width=".5" d="M358 395a3 3 0 0 1 2.5-1.9c1.4 1-2 1.7-2.6 1.8Z"/><path fill="#e59900" fill-opacity=".5" d="M400.9 372.3q.4-1.9 2.2-1.6-.4 1.6-2.2 1.6"/><path fill="#e59900" fill-opacity=".4" stroke="#e59900" stroke-opacity=".4" stroke-width=".5" d="M42 262c-.5 1-4.2 4-5 2.7 1-1.3 3.3-2.7 5-2.7Zm99 131q-.9 2-3 2a3 3 0 0 1 3-2Z"/><path fill="#e59900" fill-opacity=".5" stroke="#e59900" stroke-opacity=".5" stroke-width=".5" d="M47 259q-1 1.5-3 2 .6-2.4 3-2Z"/><path fill="#e59900" fill-opacity=".6" d="M47 259c.1-1 4.3-4 5-2.6-.5 1.1-3.6 2.7-5 2.6m409.8-17.8c0-1 4-4 5-2.8-.5 1-3.8 2.7-5 2.8"/><path fill="#e59900" fill-opacity=".4" stroke="#e59900" stroke-opacity=".4" stroke-width=".5" d="M99.2 217c2.2.5 1 2.1-.8 2-1.2-.7.3-1.4.8-2ZM432 268a3 3 0 0 1-3 2 3 3 0 0 1 3-2Z"/><path fill="#e49900" fill-opacity=".5" stroke="#e49900" stroke-opacity=".5" stroke-width=".5" d="M236.9 66.1q.6-1.9 2.6-2c.8 1.2-2.1 1.6-2.7 2Z"/><path fill="#e59a00" fill-opacity=".3" stroke="#e59a00" stroke-opacity=".3" stroke-width=".5" d="M434 267q-.5 1.3-2 1 .5-1.4 2-1Z"/><path fill="#eeb003" fill-opacity=".9" d="M231.7 100.2q1.6-.3 3.4.1l-.2.7a6 6 0 0 1-5.2.8l.2-.6z"/><path fill="#e69800" fill-opacity=".2" stroke="#e69800" stroke-opacity=".2" stroke-width=".5" d="M274.7 64q.4-.9 1.3-.7-.4.7-1.3.7Z"/><path fill="#614303" fill-opacity=".1" stroke="#614303" stroke-opacity=".1" stroke-width=".5" d="m394 166 1-.1-.2 1v1q-.6.3-.8.8c-1 .3-2.5 1.8-3.6 1l-.1-.6c-.5-1 2-1.5 2.4-2.4q1 .3 1.3-.7Z"/><path fill="#72581c" fill-opacity=".2" stroke="#72581c" stroke-opacity=".2" stroke-width=".5" d="m129.8 412.3.3 1-4 1.7c0-1.5 2.4-2.5 3.7-2.7Z"/><path fill="#352708" fill-opacity=".1" stroke="#352708" stroke-opacity=".1" stroke-width=".5" d="M411.9 293.9c1.8.1.7 1.2-.1 1.7-.8 1-2.3 1.2-1.6-.4q.7-.8 1.7-1.3Z"/><path fill="#664c19" fill-opacity=".5" d="M97.2 241.1q1 .8.2 1.8-.6-.6-1.5-.9.5-.6 1.2-.9"/><path fill="#684e1a" fill-opacity=".4" stroke="#684e1a" stroke-opacity=".4" stroke-width=".5" d="m87.7 411 1.3 1.4q-.7.6-1.7.4-.1-1 .4-1.7Z"/><path fill="#5e481a" fill-opacity=".5" stroke="#5e481a" stroke-opacity=".5" stroke-width=".5" d="m117.7 343 .4.8q-.3.8-1 1 0-1 .6-1.8Z"/><path fill="#443920" fill-opacity=".4" stroke="#443920" stroke-opacity=".4" stroke-width=".5" d="M126.1 415q-.6 1-1.8 1 .3-1.5 1.8-1Z"/><path fill="#3b3323" fill-opacity=".5" d="M396 165.2q0 1.3-1.2 1.8l.2-1.1a1 1 0 0 1 1-.7"/><path fill="#6c5018" fill-opacity=".5" stroke="#6c5018" stroke-opacity=".5" stroke-width=".5" d="M403.8 148.2q-.2.8-1 .6.4-.4 1-.6Z"/><path fill="#393422" fill-opacity=".3" stroke="#393422" stroke-opacity=".3" stroke-width=".5" d="m391 317.3-.7.8q-.3-1 .7-.8Z"/><path fill="#262626" fill-opacity=".4" d="m414 128.2-.8 1.1q-.3-1 .7-1.1"/><path fill="#322d24" fill-opacity=".4" stroke="#322d24" stroke-opacity=".4" stroke-width=".5" d="m467 274.3-.8.6q0-.8.9-.6Z"/><path fill="#654c19" fill-opacity=".3" stroke="#654c19" stroke-opacity=".3" stroke-width=".5" d="M489.2 273q-.2 1-1.4.9.5-.7 1.4-1Z"/><path fill="#343423" fill-opacity=".2" stroke="#343423" stroke-opacity=".2" stroke-width=".5" d="m402 243 .8.2v.8q-1 .1-.7-1Z"/><path fill="#624a1a" fill-opacity=".4" d="M501.2 265.8q-.3 1.1-1.4 1.3.5-.9 1.4-1.3"/><path fill="#5f491c" fill-opacity=".5" d="M437 94q0 .8-.9 1.3 0-1 .8-1.4"/><path fill="#6f5317" fill-opacity=".5" stroke="#6f5317" stroke-opacity=".5" stroke-width=".5" d="M427 429.2q-.1.5-.6.5 0-.6.5-.5Z"/><path fill="#705018" fill-opacity=".1" stroke="#705018" stroke-opacity=".1" stroke-width=".5" d="M339.8 135q1 .2 1 1.2-.7-.3-1-1.1Z"/><path fill="#785716" d="m87.3 436.8-1.2.2H83l-1-.4c1.3-.9 4.2-1 5.3.1"/><path fill="#5e481a" fill-opacity=".4" stroke="#5e481a" stroke-opacity=".4" stroke-width=".5" d="m227.2 410.2 1.8.2q-1 .6-2 .9z"/></svg>