<?xml version="1.0" encoding="UTF-8"?>
<!DOCTYPE svg PUBLIC "-//W3C//DTD SVG 1.1//EN" "http://www.w3.org/Graphics/SVG/1.1/DTD/svg11.dtd">
<svg xmlns="http://www.w3.org/2000/svg" version="1.1" width="512px" height="512px" style="shape-rendering:geometricPrecision; text-rendering:geometricPrecision; image-rendering:optimizeQuality; fill-rule:evenodd; clip-rule:evenodd" xmlns:xlink="http://www.w3.org/1999/xlink">
<g><path fill="#eea600" fill-opacity="0.996" d="M 124.6,194.05 c 2.46,-1.04 6.5,-4.59 8.86,-4.98 c 1.55,1.12 -8.49,7.27 -8.86,4.98 Z M 119.85,227.08 c -0.28,0.14 -0.55,0.32 -0.78,0.55 c -1.02,0.99 -2.16,2.66 -3.79,2.34 c -0.03,-0.27 -0.05,-0.55 -0.07,-0.82 c 0.3,-0.3 0.59,-0.6 0.87,-0.92 c 0.39,-0.49 0.85,-0.92 1.37,-1.27 c 3.25,-1.77 6.4,-3.69 9.46,-5.76 c 0.84,-0.19 2.16,-1.45 2.94,-0.79 c -0.92,2.25 -7.72,5.47 -10,6.67 Z"/></g>
<g><path fill="#e39801" fill-opacity="0.749" d="M 227.2,410.23 c -0.08,0.34 -0.17,0.68 -0.26,1.02 c -0.6,1.89 -2.71,1.86 -3.87,3.37 c -0.55,0.44 -1.14,0.56 -1.8,0.37 c -0.86,-1.67 -3.38,-4.79 -2.74,-6.67 c 2.88,0.63 5.78,1.27 8.67,1.91 Z"/></g>
<g><path fill="#dd9000" fill-opacity="0.224" stroke="#dd9000" stroke-width="0.5" stroke-opacity="0.224" d="M 448.75,257.11 c 0.24,0.62 0.68,1.03 1.31,1.22 c -4.65,2.74 -9.33,5.44 -14.05,8.09 c -0.62,0.36 -1.29,0.52 -2,0.5 c 0.35,-0.74 0.88,-1.31 1.61,-1.71 c 4.33,-2.77 8.71,-5.47 13.13,-8.1 Z"/></g>
<g><path fill="#d59b06" fill-opacity="0.812" d="M 323.76,398.03 c -2.01,1.1 -4.15,1.88 -6.41,2.32 c -0.4,-1.69 6.44,-4.25 6.41,-2.32 Z M 317.35,400.35 c -0.42,0.19 -0.86,0.34 -1.31,0.46 c -0.41,0.01 -0.83,0.02 -1.25,0.03 c 0.71,-0.76 1.56,-0.93 2.56,-0.49 Z M 314.79,400.84 c -0.03,0.39 -0.07,0.78 -0.1,1.16 c -1.55,1.36 -3.34,2.11 -5.4,2.27 c -0.23,-2.66 3.66,-3.04 5.5,-3.43 Z"/></g>
<g><path fill="#ce8a00" fill-opacity="0.204" stroke="#ce8a00" stroke-width="0.5" stroke-opacity="0.204" d="M 288.75,90.84 c 0.19,0.77 0.22,1.53 0.09,2.31 c -2.71,1.68 -5.43,3.35 -8.17,5.01 c -0.75,0.39 -1.55,0.65 -2.38,0.77 c -0.07,-0.58 0.14,-1.04 0.64,-1.36 c 3.17,-1.95 7.22,-4.12 9.82,-6.73 Z"/></g>
<g><path fill="#e59900" fill-opacity="0.341" stroke="#e59900" stroke-width="0.5" stroke-opacity="0.341" d="M 91.85,100.04 c -0.08,0.64 -0.44,0.94 -1.1,0.9 c 0.35,-0.32 0.72,-0.62 1.1,-0.9 Z M 420.28,112.95 c -0.16,0.34 -0.32,0.69 -0.49,1.03 c -0.14,0.02 -0.29,0.05 -0.44,0.07 c -0.13,-0.71 0.18,-1.08 0.93,-1.1 Z M 108.64,138.97 c 1.17,-0.99 2.48,-1.69 3.94,-2.09 c 1.17,1.03 -2.12,3.59 -3.94,2.09 Z M 138,395.05 c -0.67,1.27 -5.39,3.98 -6.96,3.98 c 0.48,-1.02 1.25,-1.74 2.31,-2.16 c 1.58,-0.39 3.02,-2.34 4.65,-1.82 Z"/></g>
<g><path fill="#db9700" fill-opacity="0.212" stroke="#db9700" stroke-width="0.5" stroke-opacity="0.212" d="M 126.02,402 c -1.14,2.27 -6.33,4.26 -8.35,6.03 c -0.63,0.29 -1.29,0.48 -1.97,0.59 c -0.17,-0.26 -0.42,-0.39 -0.76,-0.38 c 0.29,-0.64 0.75,-1.12 1.38,-1.45 c 2.37,-0.97 7.38,-5 9.7,-4.79 Z"/></g>
<g><path fill="#f4a700" fill-opacity="0.208" stroke="#f4a700" stroke-width="0.5" stroke-opacity="0.208" d="M 322.79,126.67 c 0.31,0.2 0.61,0.41 0.92,0.61 c -0.26,0.66 -0.7,1.16 -1.31,1.51 c -2.9,1.45 -5.68,3.08 -8.34,4.9 c -0.61,0.25 -1.23,0.28 -1.86,0.11 c 0.05,-0.28 0.18,-0.53 0.39,-0.73 c 3.45,-2.07 6.85,-4.21 10.2,-6.4 Z"/></g>
<g><path fill="#dba306" fill-opacity="0.82" d="M 202.65,107.76 c 0.17,1.08 -0.26,1.82 -1.26,2.24 c -2.08,0.82 -4.2,1.47 -6.35,1.97 c 0.06,-0.25 0.12,-0.5 0.18,-0.74 c 1.5,-1.61 5.21,-3.09 7.43,-3.47 Z M 194.01,112.17 c 0.35,-0.07 0.69,-0.13 1.03,-0.2 c -0.53,0.73 -1.26,0.95 -2.18,0.65 c 0.3,-0.29 0.68,-0.45 1.15,-0.45 Z M 192.86,112.62 c -0.45,0.91 -1.21,1.28 -2.27,1.13 c 0.64,-0.6 1.4,-0.97 2.27,-1.13 Z"/></g>
<g><path fill="#f4af00" fill-opacity="0.267" stroke="#f4af00" stroke-width="0.5" stroke-opacity="0.267" d="M 163,333.05 c -0.37,1.31 -7.67,4.86 -9.08,6.27 c -0.36,0.17 -0.73,0.27 -1.12,0.3 c -0.26,-0.34 -0.54,-0.67 -0.83,-0.99 c 3.07,-1.61 6.07,-3.35 9,-5.21 c 0.64,-0.32 1.32,-0.44 2.03,-0.37 Z"/></g>
<g><path fill="#ba7f09" fill-opacity="0.867" d="M 175.94,120.37 c 0.87,-0.4 1.06,0.82 0.36,1.31 c -1,0.7 -2.1,1.12 -3.29,1.25 c 0.09,-0.32 0.19,-0.63 0.28,-0.95 c 0.92,-0.48 1.8,-1.01 2.65,-1.61 Z M 171.21,123.09 c 0.27,-0.03 0.54,-0.05 0.81,-0.07 c 0.33,-0.03 0.66,-0.06 0.99,-0.09 c -0.26,0.94 -0.89,1.34 -1.9,1.18 c 0.03,-0.34 0.06,-0.68 0.1,-1.02 Z M 169.94,124.25 c 0.39,-0.05 0.78,-0.09 1.17,-0.14 c -0.63,1.44 -1.74,1.97 -3.31,1.59 c 0.47,-0.82 1.18,-1.31 2.14,-1.45 Z"/></g>
<g><path fill="#a9750c" fill-opacity="0.91" d="M 246.9,9.66 c -0.57,1.05 -1.07,2.13 -1.52,3.23 c -1.32,0.86 -2.47,1.91 -3.44,3.15 c -0.48,-3.71 2.24,-4.79 4.96,-6.38 Z"/></g>
<g><path fill="#c48507" fill-opacity="0.733" d="M 100.29,208.11 c -0.53,1.15 -5.19,2.5 -6.37,3.38 c -0.71,0.26 -1.45,0.37 -2.21,0.33 c 0.56,-0.74 1.22,-1.37 1.96,-1.92 c 1.19,-0.19 2.21,-0.71 3.08,-1.53 c 1.16,-0.35 2.34,-0.43 3.54,-0.26 Z"/></g>
<g><path fill="#b37801" fill-opacity="0.192" stroke="#b37801" stroke-width="0.5" stroke-opacity="0.192" d="M 402.07,243.08 c -0.14,0.67 0.12,0.99 0.79,0.95 c -0.01,0.31 -0.02,0.62 -0.04,0.93 c -2.04,0.65 -3.9,1.62 -5.6,2.91 c -0.1,-0.67 -0.02,-1.31 0.26,-1.92 c 1.55,-0.92 3.08,-1.88 4.59,-2.87 Z"/></g>
<g><path fill="#ac770b" fill-opacity="0.827" d="M 346.9,383.31 c 0.1,0.33 0.2,0.66 0.3,0.99 c -0.61,0.43 -1.27,0.75 -1.98,0.97 c -0.39,-1.5 0.17,-2.16 1.68,-1.96 Z M 345.22,385.27 c -0.24,0.38 -0.61,0.51 -1.1,0.4 c -0.39,0.11 -0.79,0.23 -1.18,0.34 c 0.56,-0.83 1.32,-1.08 2.28,-0.74 Z M 342.94,386.01 c -0.09,0.34 -0.17,0.67 -0.25,1.01 c -0.29,-0.09 -0.58,-0.18 -0.87,-0.27 c 0.26,-0.41 0.63,-0.66 1.12,-0.74 Z M 341.82,386.75 c 0.02,1.02 -0.49,1.56 -1.54,1.62 c 0,-1.01 0.52,-1.55 1.54,-1.62 Z M 340.28,388.37 c -0.42,0.19 -0.85,0.32 -1.3,0.39 c 0.31,-0.48 0.74,-0.61 1.3,-0.39 Z"/></g>
<g><path fill="#f2aa00" fill-opacity="0.471" stroke="#f2aa00" stroke-width="0.5" stroke-opacity="0.471" d="M 396,232.01 c -1.26,1.64 -2.91,2.65 -4.95,3.04 c 0.02,-0.37 0.15,-0.69 0.41,-0.96 c 1.55,-0.81 2.65,-2.31 4.54,-2.08 Z M 391.05,235.05 c -0.43,0.83 -1.14,1.15 -2.12,0.97 c 0.49,-0.78 1.2,-1.1 2.12,-0.97 Z"/></g>
<g><path fill="#bd8500" fill-opacity="0.106" stroke="#bd8500" stroke-width="0.5" stroke-opacity="0.106" d="M 160.11,234.12 c 0.73,-0.28 1.34,-0.12 1.84,0.47 c -1.52,1.11 -3.09,2.11 -4.7,3.01 c -0.16,-0.69 -0.6,-1 -1.33,-0.93 c 1,-0.58 1.99,-1.17 2.98,-1.77 c 0.47,-0.16 0.87,-0.42 1.21,-0.78 Z"/></g>
<g><path fill="#e99e00" fill-opacity="0.776" d="M 188.94,217.17 c -0.48,0.11 -0.77,0.41 -0.87,0.91 c -1.27,1.12 -2.76,1.8 -4.47,2.03 c -2.36,1.79 -4.9,3.27 -7.64,4.44 c -0.42,0.87 -0.94,1.68 -1.54,2.44 c -4.1,2.52 -8.05,5.79 -12.47,7.6 c -0.5,-0.59 -1.11,-0.75 -1.84,-0.47 c -0.56,0.01 -0.97,0.27 -1.21,0.78 c -0.99,0.6 -1.98,1.19 -2.98,1.77 c -0.72,0.95 -1.67,1.47 -2.85,1.57 c 0.15,-0.7 0.41,-1.34 0.78,-1.94 c 1.76,-0.8 3.35,-1.86 4.77,-3.16 c 1.95,-1 3.55,-0.97 5.05,-2.76 c 3.17,-1.93 6.43,-3.71 9.79,-5.34 c 1.37,-1.61 3.1,-2.54 5.18,-2.79 c 1.17,-0.49 2.1,-1.25 2.8,-2.29 c 2.14,-1.11 4.2,-2.37 6.17,-3.76 c 4.29,-2.34 8.46,-4.86 12.53,-7.56 c 0.43,-0.25 0.88,-0.32 1.35,-0.21 c -0.66,0.53 -1.23,1.13 -1.72,1.82 c -2.16,1.6 -4.48,2.94 -6.97,4.02 c -1.29,0.95 -2.57,1.92 -3.86,2.9 Z M 164.39,231.27 c 0.23,0.47 0.23,0.47 0,0 Z"/></g>
<g><path fill="#eeaa00" fill-opacity="0.278" stroke="#eeaa00" stroke-width="0.5" stroke-opacity="0.278" d="M 339.81,135.08 c 0.16,0.52 0.49,0.88 1,1.09 c -1.5,1.29 -3.73,2.82 -5.86,2.6 c 1.67,-1.14 3.29,-2.38 4.86,-3.69 Z"/></g>
<g><path fill="#d7a007" fill-opacity="0.843" d="M 318.68,113.04 c 1.31,-0.21 2.62,-0.21 3.93,-0.02 c 0.29,0.54 0.7,0.98 1.21,1.32 c 0.8,-0.12 1.6,-0.22 2.41,-0.27 c -1.82,1.9 -5.85,0.6 -7.55,-1.03 Z"/></g>
<g><path fill="#e59900" fill-opacity="0.455" stroke="#e59900" stroke-width="0.5" stroke-opacity="0.455" d="M 93.92,100.37 c -0.24,-0.13 -0.49,-0.26 -0.73,-0.39 c 0.31,-1.04 0.99,-1.63 2.06,-1.76 c -0.18,0.82 -0.63,1.54 -1.33,2.15 Z M 444.12,230.12 c 0.39,0.1 0.77,0.19 1.16,0.28 c -0.44,0.34 -0.94,0.56 -1.49,0.67 c 0.11,-0.32 0.22,-0.63 0.33,-0.95 Z M 237.64,446.3 c 0.45,-1.41 1.42,-2.16 2.89,-2.26 c 1.44,1.08 -2.24,2.09 -2.89,2.26 Z"/></g>
<g><path fill="#bb8008" fill-opacity="0.847" d="M 88.12,74.18 c 1.85,-0.73 3.58,-0.49 5.17,0.72 c 0.4,0.24 0.65,0.59 0.77,1.03 c -2.04,0.1 -4,-0.26 -5.86,-1.1 c -0.02,-0.22 -0.05,-0.44 -0.08,-0.65 Z"/></g>
<g><path fill="#996b0f" fill-opacity="0.949" d="M 410.76,433.36 c 1.54,0.3 5.36,0.44 6.3,1.6 c -0.26,0.05 -0.53,0.1 -0.79,0.15 c -1.2,-0.31 -2.41,-0.42 -3.64,-0.34 c -0.8,-0.2 -1.43,-0.67 -1.87,-1.41 Z"/></g>
<g><path fill="#d09005" fill-opacity="0.349" stroke="#d09005" stroke-width="0.5" stroke-opacity="0.349" d="M 163.9,364.93 c -0.4,1.56 -2.16,1.9 -3.24,2.88 c -0.7,0.07 -1.22,-0.19 -1.55,-0.79 c 1.58,-0.74 3.18,-1.44 4.79,-2.09 Z"/></g>
<g><path fill="#e49900" fill-opacity="0.329" stroke="#e49900" stroke-width="0.5" stroke-opacity="0.329" d="M 173.29,121.98 c -0.09,0.32 -0.19,0.63 -0.28,0.95 c -0.33,0.03 -0.66,0.06 -0.99,0.09 c 0.12,-0.67 0.55,-1.02 1.27,-1.04 Z M 139.09,364.74 c 0.47,0.19 0.78,0.53 0.91,1.02 c -0.24,0.07 -0.48,0.15 -0.72,0.22 c -0.06,-0.41 -0.13,-0.83 -0.19,-1.24 Z M 342.94,386.01 c 0.39,-0.11 0.79,-0.23 1.18,-0.34 c -0.14,0.81 -0.62,1.26 -1.43,1.35 c 0.08,-0.34 0.16,-0.67 0.25,-1.01 Z M 278.06,441.93 c -0.26,0.72 -2.22,3.12 -2.79,1.75 c 0.58,-1.13 1.51,-1.71 2.79,-1.75 Z"/></g>
<g><path fill="#efaa01" fill-opacity="0.357" stroke="#efaa01" stroke-width="0.5" stroke-opacity="0.357" d="M 400.73,228.71 c 0.04,0.42 0.09,0.84 0.14,1.27 c -1.48,0.54 -3.29,2.15 -4.87,2.03 c 1.25,-1.54 2.82,-2.64 4.73,-3.3 Z"/></g>
<g><path fill="#e59a00" fill-opacity="0.271" stroke="#e59a00" stroke-width="0.5" stroke-opacity="0.271" d="M 357.92,394.91 c -0.56,1.39 -1.51,2.44 -2.85,3.14 c -0.14,-0.7 -0.56,-1.13 -1.27,-1.29 c 1.24,-0.93 2.61,-1.54 4.12,-1.85 Z"/></g>
<g><path fill="#825b03" fill-opacity="0.094" stroke="#825b03" stroke-width="0.5" stroke-opacity="0.094" d="M 353.8,396.76 c 0.71,0.16 1.13,0.59 1.27,1.29 c -1.18,-0.47 -1.53,1.25 -2.29,1.8 c -0.69,-0.17 -1.24,-0.54 -1.66,-1.12 c 0.83,-0.73 1.73,-1.39 2.68,-1.97 Z"/></g>
<g><path fill="#c78606" fill-opacity="0.678" d="M 244.03,499.85 c 0.74,0.7 0.94,1.53 0.57,2.51 c -0.32,-0.8 -0.51,-1.64 -0.57,-2.51 Z M 244.6,502.36 c 1.41,-0.31 2.31,0.25 2.72,1.69 c -1.13,-0.2 -2.03,-0.76 -2.72,-1.69 Z"/></g>
<g><path fill="#e59800" fill-opacity="0.424" stroke="#e59800" stroke-width="0.5" stroke-opacity="0.424" d="M 149.15,118.86 c -0.34,0.84 -2.08,2.99 -2.95,1.78 c 0.7,-1.02 1.69,-1.62 2.95,-1.78 Z M 109.15,263.03 c 0.34,0.1 0.68,0.21 1.02,0.31 c -0.39,0.32 -0.83,0.56 -1.31,0.71 c 0.09,-0.34 0.19,-0.68 0.29,-1.02 Z"/></g>
<g><path fill="#a1700e" fill-opacity="0.737" d="M 507,260.65 c -0.06,0.66 -0.27,1.26 -0.63,1.79 c -0.14,-0.72 0.07,-1.32 0.63,-1.79 Z M 506.37,262.44 c -0.68,0.63 -1.34,1.27 -1.98,1.93 c -0.27,-1.6 0.39,-2.24 1.98,-1.93 Z M 504.39,264.37 c -0.46,0.44 -1.01,0.71 -1.65,0.81 c 0.35,-0.66 0.9,-0.93 1.65,-0.81 Z"/></g>
<g><path fill="#e59900" fill-opacity="0.4" stroke="#e59900" stroke-width="0.5" stroke-opacity="0.4" d="M 43.93,260.94 c -0.27,0.94 -0.91,1.28 -1.93,1.02 c 0.31,-0.9 0.95,-1.24 1.93,-1.02 Z M 386.24,345.18 c 0.34,0.03 0.68,0.06 1.02,0.1 c -0.38,0.49 -0.88,0.82 -1.49,0.97 c 0.16,-0.36 0.31,-0.72 0.47,-1.07 Z M 140.95,393 c 0.18,-0.73 1.36,-1.59 1.94,-0.7 c -0.52,0.59 -1.16,0.82 -1.94,0.7 Z"/></g>
<g><path fill="#e59800" fill-opacity="0.259" d="M 393.96,165.95 c -0.16,0.67 -0.59,0.92 -1.27,0.75 c 0.4,-0.29 0.82,-0.54 1.27,-0.75 Z M 82.99,436.98 c 1.03,0.04 2.06,0.05 3.09,0.04 c -0.43,1.33 -2.93,1.65 -3.09,-0.04 Z"/></g>
<g><path fill="#e99e00" fill-opacity="0.373" stroke="#e99e00" stroke-width="0.5" stroke-opacity="0.373" d="M 166.98,362.9 c -0.47,1.55 -1.5,2.22 -3.08,2.03 c 0.76,-1.08 1.79,-1.75 3.08,-2.03 Z"/></g>
<g><path fill="#efa800" fill-opacity="0.325" stroke="#efa800" stroke-width="0.5" stroke-opacity="0.325" d="M 156.96,255.93 c -0.52,1.42 -1.52,2.08 -2.99,1.97 c 0.68,-1.13 1.68,-1.79 2.99,-1.97 Z"/></g>
<g><path fill="#aa750b" fill-opacity="0.608" d="M 436.96,417.89 c 1.72,-0.11 0.95,3.22 0.73,4.14 c -0.88,-0.33 -0.57,-3.31 -0.73,-4.14 Z"/></g>
<g><path fill="#e59800" fill-opacity="0.192" d="M 426.02,89.99 c -0.07,0.34 -0.15,0.69 -0.23,1.04 c -0.25,0.01 -0.49,0.02 -0.73,0.03 c 0.13,-0.53 0.46,-0.89 0.96,-1.07 Z M 93.13,102.13 c -0.26,0.4 -0.52,0.8 -0.8,1.19 c -0.22,-0.76 0.04,-1.15 0.8,-1.19 Z M 171.21,123.09 c -0.04,0.34 -0.07,0.68 -0.1,1.02 c -0.39,0.05 -0.78,0.09 -1.17,0.14 c 0.09,-0.74 0.52,-1.13 1.27,-1.16 Z"/></g>
<g><path fill="#e59900" fill-opacity="0.302" d="M 412.63,434.77 c 1.23,-0.08 2.44,0.03 3.64,0.34 c -0.34,0.68 -0.92,0.98 -1.75,0.9 c -0.98,0.07 -1.61,-0.34 -1.89,-1.24 Z"/></g>
<g><path fill="#d08c04" fill-opacity="0.71" d="M 437.71,89.77 c 0.3,1.05 0.57,3.08 -0.69,3.6 c -0.25,-1.31 -0.02,-2.52 0.69,-3.6 Z"/></g>
<g><path fill="#e59900" fill-opacity="0.412" stroke="#e59900" stroke-width="0.5" stroke-opacity="0.412" d="M 428.96,269.94 c 0.04,0.83 -1.23,1.71 -1.81,0.78 c 0.44,-0.61 1.04,-0.87 1.81,-0.78 Z M 49.27,273.98 c -0.12,0.27 -0.25,0.54 -0.38,0.82 c -0.42,0 -0.85,0 -1.28,0 c 0.45,-0.49 1,-0.76 1.66,-0.82 Z"/></g>
<g><path fill="#a27200" fill-opacity="0.137" stroke="#a27200" stroke-width="0.5" stroke-opacity="0.137" d="M 324.81,126.1 c 0.38,0.06 0.77,0.13 1.16,0.19 c -0.09,0.92 -1.6,0.85 -2.26,0.99 c -0.31,-0.2 -0.61,-0.41 -0.92,-0.61 c 0.6,-0.46 1.27,-0.65 2.02,-0.57 Z"/></g>
<g><path fill="#b0790a" fill-opacity="0.765" d="M 501.76,245.11 c 0.6,0.17 1.21,0.31 1.82,0.43 c -0.75,0.33 -1.36,0.18 -1.82,-0.43 Z M 503.58,245.54 c 0.22,0.35 0.46,0.69 0.7,1.04 c -0.84,0.1 -1.07,-0.24 -0.7,-1.04 Z M 504.28,246.58 c 0.44,0.48 0.71,1.05 0.8,1.71 c -0.6,-0.41 -0.87,-0.98 -0.8,-1.71 Z"/></g>
<g><path fill="#795815" fill-opacity="0.424" d="M 259.08,5.18 c -1.03,-0.13 -2.06,-0.22 -3.1,-0.28 c 0.24,-1.43 3.09,-1.39 3.1,0.28 Z"/></g>
<g><path fill="#946810" fill-opacity="0.839" d="M 335.11,117.03 c -0.1,0.56 -0.03,1.1 0.2,1.61 c -1.91,0.07 -2.98,-1.75 -0.2,-1.61 Z"/></g>
<g><path fill="#f3aa00" fill-opacity="0.388" stroke="#f3aa00" stroke-width="0.5" stroke-opacity="0.388" d="M 158.83,255.07 c -0.33,0.82 -0.95,1.11 -1.87,0.86 c 0.44,-0.68 1.07,-0.97 1.87,-0.86 Z"/></g>
<g><path fill="#d99500" fill-opacity="0.208" stroke="#d99500" stroke-width="0.5" stroke-opacity="0.208" d="M 266.65,10 c 0.82,0.1 1.26,0.57 1.33,1.39 c -0.6,-0.31 -1.04,-0.77 -1.33,-1.39 Z M 411.13,133.2 c -0.15,0.29 -0.29,0.59 -0.44,0.89 c -0.11,-0.09 -0.22,-0.17 -0.32,-0.25 c -0.11,-0.58 0.14,-0.79 0.76,-0.64 Z"/></g>
<g><path fill="#e39700" fill-opacity="0.251" stroke="#e39700" stroke-width="0.5" stroke-opacity="0.251" d="M 88.12,74.18 c 0.03,0.21 0.06,0.43 0.08,0.65 c -0.45,0.04 -0.9,0.08 -1.35,0.12 c 0.2,-0.63 0.62,-0.88 1.27,-0.77 Z M 30.99,244.13 c 0.38,-0.13 0.76,-0.27 1.15,-0.41 c -0.31,0.54 -0.74,0.92 -1.31,1.15 c 0.05,-0.25 0.11,-0.49 0.16,-0.74 Z"/></g>
<g><path fill="#7b5a16" fill-opacity="0.557" stroke="#7b5a16" stroke-width="0.5" stroke-opacity="0.557" d="M 377.01,99.18 c -0.56,0.55 -1.23,0.85 -2.02,0.9 c 0.43,-0.84 1.1,-1.14 2.02,-0.9 Z"/></g>
<g><path fill="#815e14" fill-opacity="0.506" stroke="#815e14" stroke-width="0.5" stroke-opacity="0.506" d="M 46,238.14 c -0.49,0.64 -1.13,0.85 -1.91,0.6 c 0.53,-0.53 1.17,-0.73 1.91,-0.6 Z"/></g>
<g><path fill="#f0ab00" fill-opacity="0.427" stroke="#f0ab00" stroke-width="0.5" stroke-opacity="0.427" d="M 235.05,100.32 c 0.73,-0.13 1.46,-0.22 2.19,-0.26 c -0.12,0.27 -0.24,0.54 -0.35,0.81 c -0.66,0.17 -1.33,0.22 -2.01,0.15 c 0.06,-0.24 0.11,-0.47 0.17,-0.7 Z"/></g>
<g><path fill="#876a16" fill-opacity="0.424" stroke="#876a16" stroke-width="0.5" stroke-opacity="0.424" d="M 196.63,402.07 c 0.92,-0.08 1.75,0.14 2.5,0.67 c -0.75,0.14 -2.31,0.38 -2.5,-0.67 Z"/></g>
<g><path fill="#815e15" fill-opacity="0.373" stroke="#815e15" stroke-width="0.5" stroke-opacity="0.373" d="M 374.99,100.08 c -0.36,0.75 -0.93,0.97 -1.7,0.65 c -0.09,-0.81 1.21,-0.7 1.7,-0.65 Z"/></g>
<g><path fill="#845f11" fill-opacity="0.157" stroke="#845f11" stroke-width="0.5" stroke-opacity="0.157" d="M 423.73,103.2 c -0.02,0.35 -0.04,0.7 -0.05,1.04 c -0.71,-0.03 -1.35,-0.26 -1.93,-0.67 c 0.61,-0.42 1.27,-0.54 1.98,-0.37 Z"/></g>
<g><path fill="#b37a0a" fill-opacity="0.925" d="M 175.88,392.65 c 0.35,0.16 0.6,0.43 0.73,0.79 c -0.54,0.47 -1.19,0.66 -1.94,0.54 c 0.36,-0.48 0.77,-0.92 1.21,-1.33 Z"/></g>
<g><path fill="#856714" fill-opacity="0.29" stroke="#856714" stroke-width="0.5" stroke-opacity="0.29" d="M 208.84,113.17 c -0.43,0.67 -1.02,0.85 -1.78,0.56 c 0.5,-0.49 1.09,-0.68 1.78,-0.56 Z"/></g>
<g><path fill="#855f13" fill-opacity="0.231" stroke="#855f13" stroke-width="0.5" stroke-opacity="0.231" d="M 489.15,248.93 c 0.44,0.27 0.65,0.66 0.62,1.17 c -0.02,0.45 -0.25,0.76 -0.69,0.92 c 0.03,-0.7 0.06,-1.39 0.07,-2.09 Z"/></g>
<g><path fill="#eda400" fill-opacity="0.424" stroke="#eda400" stroke-width="0.5" stroke-opacity="0.424" d="M 168.88,362.02 c -0.32,0.87 -0.95,1.17 -1.9,0.88 c 0.47,-0.64 1.1,-0.93 1.9,-0.88 Z"/></g>
<g><path fill="#855e14" fill-opacity="0.471" d="M 418.17,301.86 c -0.39,1.08 -1.13,1.39 -2.24,0.94 c 0.6,-0.63 1.35,-0.94 2.24,-0.94 Z"/></g>
<g><path fill="#865e13" fill-opacity="0.196" stroke="#865e13" stroke-width="0.5" stroke-opacity="0.196" d="M 129.37,352.81 c 0.44,0.55 0.54,1.16 0.3,1.82 c -0.15,0.14 -0.31,0.29 -0.46,0.43 c 0,-0.75 0.05,-1.5 0.16,-2.25 Z"/></g>
<g><path fill="#bd8e0c" fill-opacity="0.651" d="M 381.05,351.59 c -0.06,0.8 -0.48,1.24 -1.27,1.3 c 0.32,-0.53 0.74,-0.96 1.27,-1.3 Z M 379.78,352.89 c 0.17,0.77 -0.14,1.17 -0.95,1.21 c 0.11,-0.57 0.42,-0.97 0.95,-1.21 Z"/></g>
<g><path fill="#f3ab00" fill-opacity="0.29" stroke="#f3ab00" stroke-width="0.5" stroke-opacity="0.29" d="M 331.74,141.18 c 0.23,0.93 -1.22,0.82 -1.74,0.75 c 0.4,-0.7 0.98,-0.95 1.74,-0.75 Z"/></g>
<g><path fill="#c48406" fill-opacity="0.341" stroke="#c48406" stroke-width="0.5" stroke-opacity="0.341" d="M 149.16,373.82 c 0.35,0.21 0.58,0.51 0.7,0.9 c -0.17,0.03 -0.35,0.05 -0.53,0.08 c -0.06,-0.32 -0.11,-0.65 -0.17,-0.98 Z"/></g>
<g><path fill="#986d11" fill-opacity="0.349" stroke="#986d11" stroke-width="0.5" stroke-opacity="0.349" d="M 485.36,275.05 c -0.34,0.51 -0.84,0.78 -1.49,0.79 c 0.32,-0.56 0.82,-0.83 1.49,-0.79 Z"/></g>
<g><path fill="#9e6d0e" fill-opacity="0.494" d="M 328.27,113.07 c -0.33,0.47 -0.75,0.86 -1.24,1.17 c 0.02,-0.81 0.43,-1.2 1.24,-1.17 Z"/></g>
<g><path fill="#ffbc00" fill-opacity="0.329" d="M 322.61,113.02 c 0.85,0.03 1.26,0.47 1.21,1.32 c -0.51,-0.34 -0.92,-0.78 -1.21,-1.32 Z"/></g>
<g><path fill="#866114" fill-opacity="0.404" d="M 487.07,273.96 c -0.13,0.64 -0.52,0.95 -1.18,0.93 c 0.2,-0.55 0.59,-0.86 1.18,-0.93 Z"/></g>
<g><path fill="#e59800" fill-opacity="0.341" d="M 99.15,384.06 c 0.35,0.07 0.7,0.14 1.05,0.21 c -0.31,0.52 -0.77,0.82 -1.39,0.88 c 0.11,-0.37 0.23,-0.73 0.34,-1.09 Z"/></g>
<g><path fill="#a7740c" fill-opacity="0.843" d="M 337.83,389.02 c -0.03,0.39 -0.07,0.78 -0.1,1.17 c -0.28,-0.13 -0.57,-0.27 -0.85,-0.41 c 0.23,-0.36 0.55,-0.61 0.95,-0.76 Z"/></g>
<g><path fill="#e39900" fill-opacity="0.216" stroke="#e39900" stroke-width="0.5" stroke-opacity="0.216" d="M 337.83,389.02 c 0.38,-0.09 0.77,-0.18 1.15,-0.26 c -0.05,0.79 -0.47,1.27 -1.25,1.43 c 0.03,-0.39 0.07,-0.78 0.1,-1.17 Z"/></g>
<g><path fill="#dd9303" fill-opacity="0.38" stroke="#dd9303" stroke-width="0.5" stroke-opacity="0.38" d="M 336.88,389.78 c -0.01,0.81 -0.42,1.25 -1.23,1.34 c 0.23,-0.61 0.64,-1.06 1.23,-1.34 Z"/></g>
<g><path fill="#ca8806" fill-opacity="0.529" stroke="#ca8806" stroke-width="0.5" stroke-opacity="0.529" d="M 335.13,390.93 c 0.05,0.45 0.1,0.91 0.15,1.37 c -1.23,-0.36 -1.28,-0.82 -0.15,-1.37 Z"/></g>
<g><path fill="#9e6e0f" fill-opacity="0.475" d="M 330.32,112.14 c -0.4,0.45 -0.89,0.72 -1.48,0.81 c 0.25,-0.64 0.74,-0.91 1.48,-0.81 Z"/></g>
<g><path fill="#ffbc00" fill-opacity="0.18" d="M 195.22,111.23 c -0.06,0.24 -0.12,0.49 -0.18,0.74 c -0.34,0.07 -0.68,0.13 -1.03,0.2 c 0.03,-0.79 0.43,-1.1 1.21,-0.94 Z"/></g>
<g><path fill="#8e6511" fill-opacity="0.859" d="M 394.72,167.94 c 0.07,0.56 -0.17,0.81 -0.72,0.75 c 0.15,-0.34 0.39,-0.59 0.72,-0.75 Z"/></g>
<g><path fill="#7d5b16" fill-opacity="0.231" stroke="#7d5b16" stroke-width="0.5" stroke-opacity="0.231" d="M 227.09,102.38 c -0.15,0.33 -0.39,0.45 -0.75,0.34 c 0.14,-0.33 0.39,-0.44 0.75,-0.34 Z"/></g>
<g><path fill="#785f18" fill-opacity="0.549" d="M 194.74,401.16 c 0.57,0.03 1.03,0.26 1.39,0.69 c -0.6,0.03 -1.06,-0.2 -1.39,-0.69 Z"/></g>
<g><path fill="#ffbe00" fill-opacity="0.216" d="M 314.79,400.84 c 0.42,-0.01 0.84,-0.02 1.25,-0.03 c -0.09,0.8 -0.54,1.2 -1.35,1.19 c 0.03,-0.38 0.07,-0.77 0.1,-1.16 Z"/></g>
<g><path fill="#ac770b" fill-opacity="0.961" d="M 480.64,267.88 c 0.03,0.66 -0.29,0.96 -0.98,0.89 c 0.23,-0.41 0.55,-0.7 0.98,-0.89 Z"/></g>
<g><path fill="#f4ae00" fill-opacity="0.918" d="M 188.94,217.17 c -0.18,0.4 -0.48,0.7 -0.87,0.91 c 0.1,-0.5 0.39,-0.8 0.87,-0.91 Z"/></g>
<g><path fill="#f2a900" fill-opacity="0.373" stroke="#f2a900" stroke-width="0.5" stroke-opacity="0.373" d="M 388.93,236.02 c -0.18,0.44 -0.47,0.77 -0.89,1 c 0.06,-0.55 0.36,-0.88 0.89,-1 Z"/></g>
<g><path fill="#986b0f" fill-opacity="0.906" d="M 282.69,439.7 c 0.14,0.61 -0.07,0.93 -0.65,0.94 c 0.16,-0.35 0.38,-0.66 0.65,-0.94 Z"/></g>
<g><path fill="#7a5914" fill-opacity="0.392" stroke="#7a5914" stroke-width="0.5" stroke-opacity="0.392" d="M 7.31,247.89 c -0.41,0.58 -0.91,1.08 -1.48,1.49 c 0.27,-0.72 0.76,-1.22 1.48,-1.49 Z"/></g>
<g><path fill="#e49900" fill-opacity="0.443" d="M 415.91,248.25 c 0.43,0.01 0.87,0.02 1.31,0.03 c -0.41,0.33 -0.87,0.57 -1.38,0.7 c 0.02,-0.24 0.04,-0.49 0.07,-0.73 Z"/></g>
<g><path fill="#e49800" fill-opacity="0.369" d="M 237.06,458.31 c 0.4,0.04 0.79,0.08 1.18,0.12 c -0.42,0.24 -0.85,0.48 -1.28,0.71 c 0.03,-0.28 0.07,-0.55 0.1,-0.83 Z"/></g>
<g><path fill="#e49800" fill-opacity="0.988" stroke="#e49800" stroke-width="0.5" stroke-opacity="0.988" d="M 288.84,93.15 c 0.41,-0.11 0.77,0 1.06,0.31 c 1.23,3.07 2.49,6.13 3.79,9.17 c -2.38,0.8 -13.57,-1.77 -16.72,-2.27 c 0.46,-0.46 0.9,-0.93 1.32,-1.43 c 0.83,-0.12 1.63,-0.38 2.38,-0.77 c 2.74,-1.66 5.46,-3.33 8.17,-5.01 Z M 402.05,150.97 c -1.95,4.77 -3.95,9.51 -6.02,14.24 c -0.46,0.02 -0.79,0.25 -0.99,0.67 c -0.36,0.02 -0.72,0.05 -1.08,0.07 c -0.45,0.21 -0.87,0.46 -1.27,0.75 c -0.48,0.86 -2.84,1.32 -2.4,2.38 c -1.41,-0.19 -6.08,-6.93 -6.05,-8.07 c 0.4,-0.57 0.83,-1.12 1.28,-1.64 c 1.61,0.63 5.84,-1.84 6.65,-3.29 c 0.65,-0.08 1.25,-0.28 1.82,-0.6 c 2.61,-1.63 5.3,-3.14 8.06,-4.51 Z M 132.69,156.99 c -4.01,5.38 -7.91,10.84 -11.67,16.4 c -1.53,1.28 -3.04,-5.82 -3.36,-6.55 c 2.43,0.49 8.04,-5.64 10.3,-6.89 c 1.23,-0.55 2.26,-1.38 3.08,-2.47 c 0.48,-0.39 1.03,-0.56 1.65,-0.49 Z M 489.77,250.1 c 14.51,4.77 -2.13,17.95 -9.13,17.78 c 0.11,-0.81 1.83,-1.86 0.86,-2.5 c -4.15,2.3 -8.27,4.67 -12.36,7.09 c -0.64,0.24 -0.93,0.68 -0.86,1.32 c -0.4,0.17 -0.8,0.35 -1.2,0.53 c -0.54,-0.16 -0.84,0.02 -0.9,0.55 c -0.78,0.12 -1.53,0.3 -2.27,0.56 c -16.14,6.6 -32.34,13.01 -48.62,19.25 c -1.12,0.52 -2.3,0.81 -3.54,0.88 c 0.84,-0.48 1.99,-1.55 0.11,-1.68 c 2.17,-1.15 4.25,-2.44 6.23,-3.89 c -0.78,1.79 1.32,1.56 2.22,0.76 c 22.9,-13.27 45.83,-26.52 68.77,-39.73 c 0.44,-0.16 0.67,-0.47 0.69,-0.92 Z M 228.97,410.36 c 12.88,2.1 25.97,1.74 38.97,1.78 c -0.21,0.57 -0.52,1.09 -0.94,1.54 c -12.71,6.89 -25.26,14.09 -37.65,21.58 c -2.07,-0.05 -3.29,-6.73 -3.8,-8.39 c 6.71,-4.47 13.42,-8.94 20.13,-13.41 c -1.25,-0.29 -2.47,-0.2 -3.68,0.26 c -5.98,3.35 -11.87,6.84 -17.69,10.46 c -0.88,-2.83 -2.89,-6.26 -3.04,-9.19 c 0.66,0.19 1.25,0.07 1.8,-0.37 c 1.16,-1.51 3.27,-1.48 3.87,-3.37 c 0.74,-0.15 1.42,-0.45 2.03,-0.89 Z"/></g>
<g><path fill="#262626" fill-opacity="0.996" stroke="#262626" stroke-width="0.5" stroke-opacity="0.996" d="M 255.98,4.9 c 1.04,0.06 2.07,0.15 3.1,0.28 c 2.69,0.11 5.36,3.45 7.57,4.82 c 0.29,0.62 0.73,1.08 1.33,1.39 c -0.01,0.92 0.44,1.32 1.34,1.22 c -0.12,0.7 0.08,1.29 0.59,1.76 c 17.33,27.64 27.88,62 39.7,92.37 c 0.4,0.9 7.67,5.32 9.07,6.3 c 1.7,1.63 5.73,2.93 7.55,1.03 c 0.27,0.06 0.54,0.11 0.8,0.17 c 0.49,-0.31 0.91,-0.7 1.24,-1.17 c 0.19,-0.04 0.38,-0.08 0.57,-0.12 c 0.59,-0.09 1.08,-0.36 1.48,-0.81 c 28.47,-12.88 59.32,-30.76 89.33,-38.91 c 15.01,-3.15 19.86,1.25 18.06,16.54 c -0.71,1.08 -0.94,2.29 -0.69,3.6 c -0.02,0.18 -0.04,0.36 -0.07,0.54 c -0.61,0.24 -0.89,0.69 -0.82,1.36 c -8.81,30.35 -24.12,60.63 -36.64,89.72 c -0.53,1.6 6.79,15.66 7.24,18.69 c 0.31,0.75 0.83,1.3 1.57,1.64 c 30.31,12.12 65.67,22.91 93.46,39.79 c 0.46,0.61 1.07,0.76 1.82,0.43 c -0.37,0.8 -0.14,1.14 0.7,1.04 c -0.07,0.73 0.2,1.3 0.8,1.71 c 4.07,3.62 4.71,7.74 1.92,12.36 c -0.56,0.47 -0.77,1.07 -0.63,1.79 c -1.59,-0.31 -2.25,0.33 -1.98,1.93 c -0.75,-0.12 -1.3,0.15 -1.65,0.81 c -0.51,0.18 -1.01,0.38 -1.5,0.6 c -0.66,0.27 -1.15,0.72 -1.49,1.34 c -3.48,2.04 -7.01,3.98 -10.59,5.84 c -0.54,0.17 -0.98,0.48 -1.33,0.92 c -0.25,0.03 -0.51,0.05 -0.76,0.08 c -0.59,0.07 -0.98,0.38 -1.18,0.93 c -0.17,0.05 -0.35,0.1 -0.53,0.16 c -0.67,-0.04 -1.17,0.23 -1.49,0.79 c -21.74,8.97 -43.79,17.4 -65.7,26.02 c -0.89,0 -1.64,0.31 -2.24,0.94 c -1.81,0.62 -8.69,2.72 -9.66,3.97 c -1.06,2.7 -7.3,15.51 -6.87,17.26 c 9.56,20.1 18.65,40.41 27.26,60.93 c 4.1,10.66 8.51,21.61 10.3,32.93 c 0.16,0.83 -0.15,3.81 0.73,4.14 c -0.99,14.64 -7.84,14.41 -20.63,12.93 c -0.94,-1.16 -4.76,-1.3 -6.3,-1.6 c -28.82,-8.73 -57.18,-22.7 -84.75,-34.85 c -0.73,-0.28 -1.47,-0.43 -2.25,-0.48 c 0.03,-1.93 -6.81,0.63 -6.41,2.32 c -1,-0.44 -1.85,-0.27 -2.56,0.49 c -1.84,0.39 -5.73,0.77 -5.5,3.43 c -11.93,29.37 -21.97,61.48 -37.67,89.01 c -5.69,9.02 -13,19.46 -24.3,10.77 c -0.41,-1.44 -1.31,-2 -2.72,-1.69 c 0.37,-0.98 0.17,-1.81 -0.57,-2.51 c -6.13,-7.19 -10.23,-16.72 -14.38,-25.16 c -9.81,-22.86 -18.9,-46.01 -27.25,-69.45 c -0.55,-1.53 -1.64,-2.36 -3.27,-2.5 c -0.75,-0.53 -1.58,-0.75 -2.5,-0.67 c -0.17,-0.07 -0.33,-0.15 -0.5,-0.22 c -0.36,-0.43 -0.82,-0.66 -1.39,-0.69 c -2.62,-0.81 -7.47,-4.24 -10.09,-3 c -2.63,1.55 -5.41,2.75 -8.35,3.59 c -28.17,11.89 -59.43,28.2 -88.98,35 c -1.14,-1.23 -4.02,-1.03 -5.33,-0.11 c -7.88,-1.11 -8.6,-7.48 -7.97,-14.14 c 7.11,-31.67 24.79,-64.49 37.65,-94.43 c 0.52,-1.12 0.56,-2.26 0.11,-3.41 c -2.69,-5.5 -5.03,-11.14 -7.04,-16.92 c -0.26,-0.44 -0.62,-0.76 -1.09,-0.96 c -29.43,-11.85 -58.89,-23.64 -88.36,-35.38 c -8.76,-4.51 -17.14,-11.97 -9.46,-22.02 c 0.57,-0.41 1.07,-0.91 1.48,-1.49 c 22.51,-18.37 57.66,-24.91 84.4,-36.07 c 0.76,0.04 1.5,-0.07 2.21,-0.33 c 1.18,-0.88 5.84,-2.23 6.37,-3.38 c 7.71,-0.93 7.93,-13.22 11.7,-18.63 c 0.23,-0.65 0.27,-1.31 0.13,-1.98 c -12.19,-27.69 -26.07,-55.06 -35.03,-84.02 c -3.48,-11.39 -7.33,-28.03 9.76,-28.53 c 0.45,-0.04 0.9,-0.08 1.35,-0.12 c 1.86,0.84 3.82,1.2 5.86,1.1 c 31.28,7.7 64.17,24.82 93.9,37.67 c 0.87,0.41 1.74,0.46 2.63,0.15 c 1.06,0.15 1.82,-0.22 2.27,-1.13 c 0.92,0.3 1.65,0.08 2.18,-0.65 c 2.15,-0.5 4.27,-1.15 6.35,-1.97 c 1,-0.42 1.43,-1.16 1.26,-2.24 c 12.41,-30.06 22.75,-63.7 39.29,-91.72 c 0.97,-1.24 2.12,-2.29 3.44,-3.15 c 0.45,-1.1 0.95,-2.18 1.52,-3.23 c 2.62,-2.08 5.44,-5.04 9.08,-4.76 Z M 230.6,69.05 c -0.81,1.11 -1.25,2.35 -1.31,3.7 c -4.58,10.29 -8.92,20.68 -12.99,31.18 c -0.03,0.77 0.36,1.11 1.16,1.02 c 2.98,-0.67 5.94,-1.41 8.88,-2.23 c 0.36,0.11 0.6,-0.01 0.75,-0.34 c 0.91,0.04 1.77,-0.15 2.58,-0.57 c 1.86,0.49 3.6,0.22 5.21,-0.79 c 0.68,0.07 1.35,0.02 2.01,-0.15 c 13.34,-1.07 26.71,-1.24 40.08,-0.51 c 3.15,0.5 14.34,3.07 16.72,2.27 c -1.3,-3.04 -2.56,-6.1 -3.79,-9.17 c -0.29,-0.31 -0.65,-0.42 -1.06,-0.31 c 0.13,-0.78 0.1,-1.54 -0.09,-2.31 c -1.89,-5.21 -3.72,-10.44 -5.47,-15.7 c -0.2,-0.71 -0.66,-1.03 -1.38,-0.94 c 0.31,-1.04 0.26,-2.07 -0.15,-3.09 c -2.34,-6.47 -4.69,-12.94 -7.05,-19.4 c -0.53,-1.63 -1.15,-3.23 -1.85,-4.8 c -1.13,-3.52 -2.52,-6.93 -4.16,-10.23 c -0.35,-1.61 -1.01,-3.08 -1.97,-4.43 c -1.3,-3.25 -9.56,-22.79 -14.74,-17.67 c -3.47,7.34 -8.62,22.52 -11.98,30.92 c -3.44,7.73 -6.58,15.58 -9.4,23.55 Z M 377.01,99.18 c -0.92,-0.24 -1.59,0.06 -2.02,0.9 c -0.49,-0.05 -1.79,-0.16 -1.7,0.65 c -1.52,0.81 -3.02,1.67 -4.49,2.56 c -3.71,-0.1 -28.48,11.41 -33.69,13.74 c -2.78,-0.14 -1.71,1.68 0.2,1.61 c 1.16,1.29 2.6,2.01 4.29,2.16 c 2.33,2.51 8.35,5.86 11.4,8.01 c 1.16,1.05 2.4,2.02 3.71,2.89 c 2.19,1.44 8.77,7.91 10.64,8.39 c 0.4,1.35 1.28,2.2 2.67,2.55 c 0.58,2 6.22,7.01 7.97,8.69 c 0.33,0.79 0.89,1.27 1.7,1.43 c 1.17,2.74 4.25,6.29 6.55,8.25 c -0.03,1.14 4.64,7.88 6.05,8.07 c 0.03,0.2 0.06,0.4 0.09,0.6 c 0.33,1.54 1.04,2.88 2.13,4.03 c 1.05,-1.5 1.55,-3.18 1.49,-5.02 c 0.55,0.06 0.79,-0.19 0.72,-0.75 c 0.03,-0.33 0.05,-0.66 0.08,-0.99 c 0.81,-0.28 1.22,-0.87 1.23,-1.74 c 2.07,-4.73 4.07,-9.47 6.02,-14.24 c 0.5,-0.63 0.75,-1.35 0.76,-2.15 c 0.52,0.08 0.85,-0.13 0.99,-0.63 c 2.41,-4.65 4.71,-9.35 6.89,-14.1 c 0.15,-0.3 0.29,-0.6 0.44,-0.89 c 0.73,-1.27 1.42,-2.56 2.08,-3.86 c 0.31,-0.35 0.55,-0.74 0.73,-1.17 c 2.09,-4.67 4.04,-9.4 5.85,-14.19 c 0.17,-0.34 0.33,-0.69 0.49,-1.03 c 1.35,-2.81 2.49,-5.71 3.4,-8.71 c 0.01,-0.34 0.03,-0.69 0.05,-1.04 c 1.41,-3.49 2.81,-8.45 2.06,-12.17 c 0.08,-0.35 0.16,-0.7 0.23,-1.04 c 0.17,-2.56 -0.42,-4.94 -1.76,-7.13 c -1.13,-0.76 -2.7,-3.37 -4.28,-2.39 c -14.41,6.03 -28.74,12.27 -42.97,18.71 Z M 90.06,102.04 c -0.07,0.51 -0.18,1.99 0.75,1.74 c 0.64,4.1 3.59,9.73 5.37,13.58 c 0.36,1.28 0.86,2.49 1.5,3.65 c 1.93,4.51 11.54,28.2 13.54,30.28 c -0.02,1.68 0.45,3.21 1.41,4.61 c 1.11,2.84 2.28,5.65 3.5,8.44 c 0.24,0.34 0.57,0.52 0.98,0.55 c -0.07,0.53 -0.32,1.93 0.55,1.95 c 0.32,0.73 1.83,7.83 3.36,6.55 c 3.76,-5.56 7.66,-11.02 11.67,-16.4 c 10.09,-10.6 21.71,-21.92 34.23,-29.58 c 0.61,-0.4 0.91,-0.97 0.88,-1.71 c 1.57,0.38 2.68,-0.15 3.31,-1.59 c 1.01,0.16 1.64,-0.24 1.9,-1.18 c 1.19,-0.13 2.29,-0.55 3.29,-1.25 c 0.7,-0.49 0.51,-1.71 -0.36,-1.31 c -1.9,-0.6 -3.78,-1.26 -5.65,-1.96 c -3.73,-1.7 -7.51,-3.3 -11.32,-4.79 c -0.79,-0.57 -1.63,-1.06 -2.51,-1.47 c -7.17,-3.53 -14.35,-7.03 -21.55,-10.48 c -1.81,-0.89 -3.64,-1.76 -5.49,-2.61 c -3.02,-1.44 -8.5,-4.5 -11.67,-4.83 c -0.76,-1.36 -5.89,-3.32 -7.37,-3.06 c -1.37,-1.97 -9.96,-4.23 -12.54,-4.89 c -1.8,-0.73 -3.67,-1.11 -5.6,-1.14 c -12.58,-1.3 -7.01,9.31 -3.45,15.58 c 0.27,0.59 0.69,1.03 1.27,1.32 Z M 208.84,113.17 c -0.69,-0.12 -1.28,0.07 -1.78,0.56 c -31.99,7.39 -71.26,43.68 -82.5,74.41 c -3.55,4.98 -7.01,17.47 -8.94,23.68 c -0.52,1.73 -0.98,3.48 -1.41,5.23 c -0.94,3.9 -1.85,7.81 -2.72,11.73 c -0.36,1.4 -0.53,2.81 -0.5,4.25 c -0.72,3.23 -1.24,6.48 -1.57,9.76 c -0.36,2.07 -0.41,4.15 -0.17,6.23 c -0.43,4.19 -1.11,9.94 -0.1,14.01 c -0.1,0.34 -0.2,0.68 -0.29,1.02 c -0.07,1.62 -0.05,3.24 0.06,4.86 c 0.03,3.4 0.37,6.77 1,10.12 c 0.19,0.72 -0.1,3.9 1.11,3.72 c -0.28,1.04 -0.26,2.09 0.05,3.13 c 0.45,3.09 1.07,6.14 1.86,9.15 c 0.42,1.65 0.86,3.3 1.32,4.94 c 0.89,2.7 1.78,5.4 2.68,8.1 c 0.24,0.67 0.51,1.34 0.78,2 c 1.01,2.69 2.13,5.32 3.37,7.91 c 0.48,1.08 0.96,2.16 1.43,3.24 c 2.6,5.06 5.42,10 8.46,14.81 c 0.68,1 1.39,1.97 2.14,2.92 c 1.53,2.1 3.86,6.15 6.1,7.35 c 0.01,0.78 0.39,1.3 1.13,1.57 c 0.25,0.91 0.71,1.69 1.38,2.35 c 3.78,4.25 7.74,8.31 11.9,12.2 c 1.71,1.67 3.54,3.21 5.48,4.6 c 0.33,0.6 0.85,0.86 1.55,0.79 c 1.12,2.37 6,5.06 8.1,6.81 c 1.67,1.18 3.37,2.34 5.07,3.48 c 5.77,3.73 11.76,7.09 17.97,10.06 c 2.23,1.25 4.59,2.2 7.07,2.83 c 3.27,2.08 8.39,3.8 12.19,4.7 c 1.22,0.68 2.5,1.19 3.84,1.54 c 8.19,2.37 16.56,4.6 25.04,5.46 c 1.63,0.3 3.26,0.54 4.9,0.73 c 6.03,0.67 12.07,0.98 18.14,0.92 c 5.01,0 10.02,-0.17 15.02,-0.49 c 39.73,-4.53 73.36,-22.76 96.54,-55.66 c 2.43,-3.56 4.66,-7.24 6.69,-11.03 c 3.62,-6.05 6.64,-12.39 9.06,-19.02 c 0.23,-0.26 0.45,-0.53 0.67,-0.8 c 2.9,-8.75 5.74,-17.45 7.81,-26.44 c 0.18,-0.94 0.31,-1.89 0.41,-2.84 c 0.92,-3.96 1.63,-7.95 2.13,-11.98 c 0.55,-2.64 0.89,-5.3 1.04,-7.99 c 1.13,-7.69 1.29,-15.4 0.47,-23.13 c 0.02,-0.31 0.03,-0.62 0.04,-0.93 c -0.01,-0.29 -0.03,-0.57 -0.04,-0.86 c 0,-1.12 -0.12,-2.24 -0.38,-3.33 c -0.21,-3.34 -0.73,-6.63 -1.57,-9.86 c -0.05,-0.43 -0.1,-0.85 -0.14,-1.27 c -0.29,-2.34 -0.74,-4.64 -1.35,-6.92 c -1.31,-5.99 -3.02,-12.59 -5.61,-18.14 c -0.17,-0.96 -0.46,-1.89 -0.87,-2.79 c -1.22,-3 -2.5,-5.98 -3.83,-8.94 c -0.35,-0.65 -0.71,-1.3 -1.07,-1.95 c -2.71,-5.63 -5.83,-11.03 -9.36,-16.2 c -0.65,-1.03 -1.32,-2.03 -2.02,-3.02 c -1.71,-2.39 -3.48,-4.73 -5.31,-7.02 c -0.53,-0.65 -1.06,-1.3 -1.57,-1.96 c -1.75,-2.09 -3.56,-4.13 -5.43,-6.12 c -0.98,-1.02 -1.96,-2.03 -2.94,-3.04 c -2,-1.99 -4.03,-3.95 -6.09,-5.87 c -2.29,-2.05 -4.61,-4.05 -6.96,-6.01 c -2.06,-1.11 -5.11,-4.78 -7.51,-4.56 c -0.04,-0.63 -0.38,-1 -1,-1.09 c 0.06,-1.2 -4.59,-3.52 -5.56,-4.31 c -1.32,-0.64 -7.19,-4.66 -8.28,-4.48 c -0.39,-0.06 -0.78,-0.13 -1.16,-0.19 c 0.2,-1.42 -4.58,-2.93 -5.59,-3.68 c -3.16,-1.34 -6.89,-3.52 -10.25,-4.08 c -0.55,-0.58 -1.19,-0.99 -1.94,-1.25 c -3.57,-1.29 -7.16,-2.53 -10.77,-3.7 c -2.33,-0.68 -4.66,-1.33 -7.01,-1.97 c -4.35,-1.09 -8.74,-1.95 -13.17,-2.59 c -1.32,-0.44 -2.67,-0.72 -4.05,-0.82 c -20.13,-2.5 -43.95,-1.78 -63.19,5.16 Z M 99.24,217.03 c -17.28,5.91 -36.2,13.98 -53.24,21.11 c -0.74,-0.13 -1.38,0.07 -1.91,0.6 c -0.74,0.53 -1.52,0.97 -2.36,1.3 c -3.37,0.8 -6.57,2.03 -9.59,3.68 c -0.39,0.14 -0.77,0.28 -1.15,0.41 c -5.16,2.35 -14.72,3.26 -15.41,10.2 c 1.27,8.8 20.27,15.91 27.54,18.48 c 1.34,1.02 2.84,1.68 4.49,1.99 c 0.43,0 0.86,0 1.28,0 c 0.58,1.72 9.28,3.58 11.12,4.61 c 1.01,0.48 2.07,0.66 3.18,0.57 c 0.15,0.62 0.56,0.96 1.24,1.01 c 3.44,0.89 7.27,3.03 10.8,3.18 c 0.72,1.14 7.05,3.02 8.71,3.07 c 0.38,0.44 0.85,0.75 1.41,0.93 c 3.61,1.31 7.18,2.71 10.7,4.21 c 1.5,0.67 2.98,1.39 4.43,2.15 c 0.73,-0.57 -0.79,-4.38 -0.75,-5.32 c -0.52,-3.51 -1.2,-6.99 -2.03,-10.44 c 0.08,-2.53 -0.2,-5.02 -0.85,-7.48 c 0.08,-4.2 0,-8.4 -0.22,-12.61 c -0.03,-0.5 -0.02,-1 0.01,-1.5 c 0.25,-4.48 0.31,-8.95 0.18,-13.42 c 0.19,-0.27 0.38,-0.55 0.57,-0.82 c 0.55,-0.69 0.47,-1.31 -0.24,-1.84 c 1.29,-7.9 2.84,-15.76 4.65,-23.57 c 0.5,-3.04 -2.75,-1.34 -2.56,-0.5 Z M 412.32,222.27 c -0.02,0.92 0.14,1.8 0.48,2.65 c 0.54,2.04 0.91,9.42 2.31,10.46 c -0.14,0.44 -0.18,0.9 -0.12,1.36 c -0.04,3.02 -0.11,8.83 0.92,11.51 c -0.03,0.24 -0.05,0.49 -0.07,0.73 c -0.3,1.62 -0.2,3.21 0.31,4.76 c -1.03,14.26 -2.52,27.57 -5.94,41.47 c -0.68,1.62 0.84,1.48 1.54,0.35 c 1.24,-0.07 2.42,-0.36 3.54,-0.88 c 16.28,-6.24 32.48,-12.65 48.62,-19.25 c 0.74,-0.26 1.49,-0.44 2.27,-0.56 c 0.3,-0.18 0.6,-0.37 0.9,-0.55 c 0.4,-0.18 0.8,-0.36 1.2,-0.53 c 3.92,-1.38 7.71,-3.06 11.38,-5.02 c 0.69,0.07 1.01,-0.23 0.98,-0.89 c 7,0.17 23.64,-13.01 9.13,-17.78 c 0.03,-0.51 -0.18,-0.9 -0.62,-1.17 c -0.99,-0.73 -2.08,-0.98 -3.28,-0.75 c 0.09,-0.43 0,-0.81 -0.29,-1.14 c -2.9,-1.48 -6.45,-3.67 -9.63,-4.29 c -0.5,-0.57 -1.14,-0.91 -1.91,-1.03 c -7.29,-3.24 -14.66,-6.27 -22.12,-9.1 c -1.38,-0.32 -5.51,-2.66 -6.64,-2.22 c -0.39,-0.09 -0.77,-0.18 -1.16,-0.28 c -0.9,-1.53 -8.25,-3.5 -10.17,-4.46 c -0.84,-0.38 -1.71,-0.48 -2.61,-0.28 c -0.88,-1.84 -8.36,-3.84 -10.47,-4.62 c -1.18,-1.05 -3.39,-1.59 -5,-1.58 c -0.26,-1.03 -5.47,-3.32 -4.71,-0.74 c 0.37,1.29 0.75,2.56 1.16,3.83 Z M 386.24,345.18 c -0.16,0.35 -0.31,0.71 -0.47,1.07 c -1.03,-0.32 -4.17,4.44 -4.72,5.34 c -0.53,0.34 -0.95,0.77 -1.27,1.3 c -0.53,0.24 -0.84,0.64 -0.95,1.21 c 0.01,0.16 0.01,0.31 0.01,0.46 c -0.63,0.31 -1.17,0.7 -1.62,1.17 c -7.8,9.42 -20.3,20.27 -30.32,27.58 c -1.51,-0.2 -2.07,0.46 -1.68,1.96 c -0.96,-0.34 -1.72,-0.09 -2.28,0.74 c -0.49,0.08 -0.86,0.33 -1.12,0.74 c -1.02,0.07 -1.54,0.61 -1.54,1.62 c -0.56,-0.22 -0.99,-0.09 -1.3,0.39 c -0.38,0.08 -0.77,0.17 -1.15,0.26 c -0.4,0.15 -0.72,0.4 -0.95,0.76 c -0.59,0.28 -1,0.73 -1.23,1.34 c -0.18,-0.07 -0.35,-0.13 -0.52,-0.19 c -1.13,0.55 -1.08,1.01 0.15,1.37 c 1.44,1.12 3.07,1.66 4.9,1.6 c 0.47,1.42 9.18,4.88 10.94,4.83 c 0.42,0.58 0.97,0.95 1.66,1.12 c 3.35,1.67 6.79,3.15 10.31,4.43 c 1.17,0.66 3.14,1.9 4.52,1.41 c 1.38,1.92 8.72,4.4 11.25,5.26 c 1.64,0.87 6.03,3.4 7.78,2.78 c 0.85,1.73 9.61,5.01 11.62,5.36 c 0.63,0.76 1.43,0.97 2.4,0.62 c 1.12,1.55 22.53,11.5 25.69,9.99 c 0.34,-0.02 0.53,-0.21 0.57,-0.55 c 3.72,-6 -7.45,-25.22 -10.09,-31.45 c 0.02,-1.43 -0.47,-2.64 -1.48,-3.6 c -1.15,-3.68 -2.54,-7.26 -4.16,-10.76 c -0.18,-0.64 -0.59,-1.03 -1.23,-1.16 c 0.07,-0.62 0.16,-2.09 -0.84,-1.97 c -1.28,-5.8 -5.8,-14.91 -8.37,-20.59 c -0.3,-1.28 -0.76,-2.51 -1.37,-3.69 c -1.04,-1.78 -2.9,-8.6 -4.7,-9.19 c 0.71,-1.59 -0.76,-3.28 -1.29,-4.72 c -0.63,-0.92 -1.03,-4.54 -2.68,-3.93 c -1.27,1.56 -4.06,5.27 -4.47,7.09 Z M 117.71,342.96 c -0.42,0.55 -0.65,1.18 -0.67,1.87 c -1.37,3.79 -5.32,10.85 -5.96,14.4 c -2.24,2.92 -3.76,6.06 -4.81,9.57 c -2.45,4.75 -5.51,10.17 -7.12,15.26 c -0.11,0.36 -0.23,0.72 -0.34,1.09 c -1.77,1.08 -3.16,5.8 -3.88,7.79 c -2.35,4.9 -4.38,9.94 -6.07,15.11 c -0.43,0.98 -0.81,1.98 -1.15,3 c -0.35,0.52 -0.49,1.1 -0.42,1.73 c -0.46,1.3 -3.43,12.06 -1.22,11.93 c -0.16,0.76 -0.08,1.5 0.25,2.21 c 0.36,1.48 1.32,2.25 2.86,2.32 c 6.88,0.63 27.31,-11.04 35.11,-13.26 c 0.78,0.01 1.39,-0.31 1.82,-0.96 c 1.35,-0.53 2.68,-1.1 3.98,-1.73 c 13.31,-5.61 26.6,-11.25 39.88,-16.93 c 1.65,-0.62 3.22,-1.41 4.7,-2.38 c 0.75,0.12 1.4,-0.07 1.94,-0.54 c -0.13,-0.36 -0.38,-0.63 -0.73,-0.79 c -1.18,-1.33 -4.23,-3.18 -5.87,-3.45 c -0.29,-0.87 -17.85,-12.83 -20.15,-14.48 c -0.12,-0.39 -0.35,-0.69 -0.7,-0.9 c -2.14,-1.96 -6.8,-7.03 -9.16,-8.06 c -0.13,-0.49 -0.44,-0.83 -0.91,-1.02 c -0.15,-0.71 -0.47,-1.34 -0.96,-1.87 c -2.43,-1.67 -5.97,-7.56 -8.46,-8.24 c 0.24,-0.66 0.14,-1.27 -0.3,-1.82 c -0.83,-0.8 -1.53,-1.68 -2.13,-2.66 c -1.12,-1.01 -5.16,-8.04 -6.24,-8.01 c -0.01,-0.96 -1.28,-4.25 -2.24,-1.88 c -0.32,0.91 -0.67,1.81 -1.05,2.7 Z M 267.94,412.14 c -13,-0.04 -26.09,0.32 -38.97,-1.78 c -0.58,-0.17 -1.17,-0.21 -1.77,-0.13 c -2.89,-0.64 -5.79,-1.28 -8.67,-1.91 c -0.64,1.88 1.88,5 2.74,6.67 c 0.15,2.93 2.16,6.36 3.04,9.19 c 0.31,0.95 0.72,1.85 1.24,2.69 c 0.51,1.66 1.73,8.34 3.8,8.39 c -0.58,1.29 -0.47,2.53 0.31,3.74 c 0.96,2.87 5.81,18.27 7.4,19.31 c -0.03,0.28 -0.07,0.55 -0.1,0.83 c 0.36,1.68 0.92,3.29 1.68,4.83 c 1.03,3.2 2.26,6.32 3.69,9.37 c 0.42,1.59 1.06,3.09 1.94,4.48 c 1.05,2.15 2.8,8.69 5.1,9.48 c -0.15,1.37 0.26,2.57 1.24,3.6 c 1.28,1.98 5.57,8.35 8.46,6.57 c 4.23,-3.92 11.98,-28.42 14.59,-35.3 c 2.72,-6.2 6.86,-15.17 8.38,-21.53 c 0.58,-0.01 0.79,-0.33 0.65,-0.94 c 0.77,-1.02 1.18,-2.18 1.22,-3.46 c 4.25,-9.44 8.18,-19 11.79,-28.69 c -0.3,-0.34 -0.68,-0.46 -1.15,-0.39 c -8.78,2.1 -17.65,3.76 -26.61,4.98 Z"/></g>
<g><path fill="#e6a000" fill-opacity="0.224" stroke="#e6a000" stroke-width="0.5" stroke-opacity="0.224" d="M 402.81,148.82 c -0.01,0.8 -0.26,1.52 -0.76,2.15 c -2.76,1.37 -5.45,2.88 -8.06,4.51 c -0.57,0.32 -1.17,0.52 -1.82,0.6 c -0.01,-0.65 0.25,-1.14 0.78,-1.49 c 3.28,-1.95 6.56,-3.87 9.86,-5.77 Z"/></g>
<g><path fill="#b67d0a" fill-opacity="0.647" d="M 267.98,11.39 c 0.66,0.14 1.11,0.55 1.34,1.22 c -0.9,0.1 -1.35,-0.3 -1.34,-1.22 Z M 269.32,12.61 c 0.41,0.51 0.6,1.1 0.59,1.76 c -0.51,-0.47 -0.71,-1.06 -0.59,-1.76 Z"/></g>
<g><path fill="#ffbc00" stroke="#ffbc00" stroke-width="0.5" d="M 272.03,108.01 c -0.02,1.03 -0.45,1.84 -1.31,2.42 c -5.92,3.73 -11.86,7.43 -17.82,11.11 c -1.7,0.95 -0.19,2.2 1.18,1.28 c 3,-2.68 21.19,-12 22,-13.99 c 4.43,0.64 8.82,1.5 13.17,2.59 c -1.45,1.73 -3.16,3.15 -5.14,4.27 c -15,10.09 -30.1,20.03 -45.3,29.81 c -1.81,0.96 -0.16,2.3 1.27,1.31 c 16.74,-10.07 33.6,-19.96 50.59,-29.65 c 1.98,-1.08 3.85,-2.34 5.59,-3.77 c 3.61,1.17 7.2,2.41 10.77,3.7 c -1.05,2.85 -12.34,8.34 -15.21,10.33 c -1.77,0.95 -0.42,2.36 1.28,1.37 c 3.11,-1.94 6.3,-3.75 9.58,-5.43 c 1.97,-1.14 3.87,-2.38 5.7,-3.71 c 0.35,-0.36 0.55,-0.8 0.59,-1.31 c 3.36,0.56 7.09,2.74 10.25,4.08 c -0.83,1.59 -2.07,2.78 -3.72,3.57 c -22.11,14.64 -44.33,29.13 -66.66,43.45 c -0.46,0.22 -0.74,0.58 -0.83,1.08 c 0.6,0.6 1.29,0.67 2.05,0.22 c 14.43,-8.96 29.3,-16.97 44.04,-25.26 c 4.95,-4.35 10.59,-6.35 16.17,-9.87 c 0.72,-0.52 1.37,-1.12 1.93,-1.81 c 0.63,0.17 1.25,0.14 1.86,-0.11 c 2.66,-1.82 5.44,-3.45 8.34,-4.9 c 0.61,-0.35 1.05,-0.85 1.31,-1.51 c 0.66,-0.14 2.17,-0.07 2.26,-0.99 c 1.09,-0.18 6.96,3.84 8.28,4.48 c 0.05,0.85 -0.25,1.53 -0.9,2.07 c -27.61,18.15 -55.31,36.17 -83.08,54.07 c -0.6,1.47 0.91,1.54 1.82,0.96 c 0.81,-0.68 1.66,-1.29 2.55,-1.85 c 19.15,-11.3 38.47,-22.31 57.94,-33.04 c 5.69,-4.12 10.86,-8.01 17.42,-11.05 c 0.52,0.07 1.97,0.18 1.74,-0.75 c 0.71,-1.28 1.78,-2.08 3.21,-2.41 c 2.13,0.22 4.36,-1.31 5.86,-2.6 c 2.4,-0.22 5.45,3.45 7.51,4.56 c 0.17,2.13 -2.66,3.03 -4.01,4.17 c -28.22,18.53 -56.55,36.88 -84.99,55.04 c -0.89,1.2 0.91,1.44 1.74,0.83 c 30.29,-18.12 63.02,-37.66 94.22,-54.03 c 2.06,1.92 4.09,3.88 6.09,5.87 c -17.87,11.61 -35.9,22.94 -54.11,33.99 c -0.64,0.44 -1.28,0.89 -1.91,1.36 c -0.87,1.16 0.92,1.49 1.75,0.86 c 17.26,-10.91 35.46,-20.86 53.15,-31.25 c 1.28,-0.8 2.63,-1.44 4.06,-1.92 c 1.87,1.99 3.68,4.03 5.43,6.12 c -2.7,3.26 -20.29,12.72 -24.87,15.76 c -1.68,0.98 -0.11,2.29 1.25,1.35 c 8.29,-5.21 16.69,-10.26 25.19,-15.15 c 1.83,2.29 3.6,4.63 5.31,7.02 c -14.99,10 -30.35,19.56 -45.78,28.75 c -1.74,0.97 -0.05,2.32 1.28,1.39 c 15.13,-9.36 30.86,-18.6 46.52,-27.12 c 3.53,5.17 6.65,10.57 9.36,16.2 c -2.03,0.1 -3.85,0.78 -5.46,2.04 c -11.52,7.97 -23.21,15.5 -35.35,22.47 c -0.96,0.45 -1.7,1.12 -2.2,2.02 c 0.62,0.56 1.31,0.61 2.06,0.16 c 13.86,-8.48 27.87,-16.72 42.02,-24.74 c 1.33,2.96 2.61,5.94 3.83,8.94 c -0.92,0.12 -1.8,0.37 -2.63,0.76 c -17.55,11.22 -35.12,22.4 -52.69,33.54 c -0.68,0.35 -1.16,0.87 -1.45,1.58 c -2.38,0.14 -3.96,2.1 -6.11,2.92 c -0.43,0.35 -0.78,0.77 -1.02,1.28 c -1.33,0.22 -2.33,0.89 -3.01,2.02 c -0.94,-0.17 -1.63,0.14 -2.07,0.94 c -0.41,0.43 -4.26,1.26 -2.48,2.21 c 1.22,-0.27 2.05,-1.01 2.48,-2.21 c 0.94,0.14 1.63,-0.17 2.07,-0.94 c 1.4,-0.07 2.4,-0.74 3.01,-2.02 c 0.48,0.11 0.96,0.09 1.43,-0.04 c 1.7,-1.3 4.93,-2.01 5.7,-4.16 c 0.89,0.04 1.71,-0.15 2.48,-0.59 c 17.77,-10.27 35.57,-20.55 53.38,-30.83 c 0.64,-0.5 1.23,-1.06 1.78,-1.67 c 2.59,5.55 4.3,12.15 5.61,18.14 c -32.35,21.07 -64.71,42.11 -97.08,63.13 c -0.6,1.45 0.88,1.56 1.8,0.98 c 25.92,-16.85 55.93,-31.15 81.27,-47.92 c 0.84,-0.46 1.73,-0.78 2.67,-0.96 c 0.42,-0.23 0.71,-0.56 0.89,-1 c 0.98,0.18 1.69,-0.14 2.12,-0.97 c 2.04,-0.39 3.69,-1.4 4.95,-3.04 c 1.58,0.12 3.39,-1.49 4.87,-2.03 c 0.84,3.23 1.36,6.52 1.57,9.86 c -8.52,3.6 -21.55,14.13 -30.13,18.95 c -6.65,4.73 -13.38,9.65 -20.69,13.32 c -7.94,4.94 -15.73,10.04 -23.37,15.32 c 0.63,1.06 3.46,-1.05 4.42,-1.19 c 21.56,-12.95 43.07,-25.74 64.55,-38.37 c 1.7,-1.29 3.56,-2.26 5.6,-2.91 c 0.82,7.73 0.66,15.44 -0.47,23.13 c -0.81,0.08 -1.57,0.31 -2.28,0.71 c -23.81,15.68 -48.17,32.64 -72.23,47.66 c -1.55,0.9 -0.41,2.44 1.27,1.41 c 4.44,-3.4 9.67,-5.91 14.45,-8.87 c 18.85,-10.84 37.68,-21.72 56.48,-32.64 c 0.4,-0.19 0.83,-0.29 1.27,-0.28 c -0.5,4.03 -1.21,8.02 -2.13,11.98 c -5.77,3.49 -11.55,6.95 -17.35,10.4 c -1.46,0.79 -0.34,2.36 1.26,1.38 c 4.13,-2.44 11.45,-7.74 15.68,-8.94 c -2.07,8.99 -4.91,17.69 -7.81,26.44 c -0.59,-0.09 -0.82,0.17 -0.67,0.8 c -2.42,6.63 -5.44,12.97 -9.06,19.02 c -9.34,6.98 -18.94,14.41 -28.78,20.8 c -0.75,1.14 0.82,1.65 1.67,0.98 c 5.41,-4.15 12.22,-7.47 18.12,-11 c 0.86,-0.64 1.62,-0.55 2.3,0.25 c -23.18,32.9 -56.81,51.13 -96.54,55.66 c -0.6,-0.55 -0.77,-1.2 -0.53,-1.93 c 13.8,-9.93 27.67,-19.76 41.6,-29.5 c 0.93,-0.83 0.78,-1.37 -0.45,-1.6 c -3.26,2.21 -6.61,4.31 -10.04,6.29 c -14.62,8.42 -29.25,16.84 -43.87,25.26 c -0.85,0.42 -1.43,1.07 -1.73,1.97 c -6.07,0.06 -12.11,-0.25 -18.14,-0.92 c 7.26,-4.74 14.48,-9.55 21.67,-14.43 c 1.35,-0.7 8.33,-4.27 8.27,-5.58 c -0.52,-0.67 -1.15,-0.76 -1.89,-0.28 c -10.56,7.2 -22.26,12.84 -32.95,19.56 c -8.48,-0.86 -16.85,-3.09 -25.04,-5.46 c 0.73,-2.9 19.65,-13.55 23.28,-15.66 c 1.5,-0.85 0.38,-2.46 -1.28,-1.4 c -7.74,4.6 -16.56,9.55 -24.3,14.15 c -0.58,0.38 -1.09,0.84 -1.54,1.37 c -3.8,-0.9 -8.92,-2.62 -12.19,-4.7 c 2.28,-3.16 3.1,-4.64 7.56,-4.86 c 1.75,-0.61 3.43,-1.36 5.05,-2.24 c 22.32,-15.04 44.77,-29.86 67.37,-44.46 c 0.87,-0.53 1.52,-1.24 1.97,-2.14 c -0.58,-0.46 -1.21,-0.47 -1.88,-0.06 c -28.95,17.14 -58,34.11 -87.14,50.93 c -6.21,-2.97 -12.2,-6.33 -17.97,-10.06 c 0.16,-0.66 0.52,-1.19 1.08,-1.58 c 25.47,-16.24 50.5,-33.33 76.26,-48.97 c 1.53,-0.82 0.37,-2.34 -1.25,-1.33 c -26.08,16.11 -53.2,31.09 -79.78,46.56 c -0.6,0.51 -1.06,1.12 -1.38,1.84 c -2.1,-1.75 -6.98,-4.44 -8.1,-6.81 c 1.08,-0.98 2.84,-1.32 3.24,-2.88 c 1.58,0.19 2.61,-0.48 3.08,-2.03 c 0.95,0.29 1.58,-0.01 1.9,-0.88 c 2.13,-2.51 7.8,-4.03 10.62,-6.12 c 25.96,-17.74 52.43,-35.21 79.05,-51.91 c 1.15,-0.54 2.06,-2.44 0.09,-2.09 c -34.24,20.2 -70.38,41.38 -105.01,60.52 c -4.16,-3.89 -8.12,-7.95 -11.9,-12.2 c 0.31,-0.62 0.74,-1.14 1.28,-1.56 c 18.02,-11.47 36.07,-22.87 54.16,-34.19 c 1.11,-0.67 0.95,-2.11 -0.47,-1.52 c -4.47,2.69 -9.06,5.16 -13.77,7.41 c -4.7,1.8 -8.42,7.89 -13.36,7.96 c -0.88,0.8 -1.85,1.46 -2.92,1.99 c -1.38,1.33 -1.41,2.64 -3.65,2.74 c -0.71,-0.07 -1.39,0.05 -2.03,0.37 c -2.93,1.86 -5.93,3.6 -9,5.21 c -0.43,0.49 -0.92,0.9 -1.47,1.24 c -3.78,2.1 -7.54,4.24 -11.28,6.43 c -2.24,-1.2 -4.57,-5.25 -6.1,-7.35 c 1.09,-0.31 2.13,-0.76 3.11,-1.34 c 13.77,-8.97 27.91,-17.64 41.98,-26.02 c 1.57,-0.82 0.33,-2.29 -1.27,-1.29 c -14.01,8.88 -28.6,16.82 -42.88,25.35 c -0.98,0.44 -2.01,0.56 -3.08,0.38 c -3.04,-4.81 -5.86,-9.75 -8.46,-14.81 c 15.7,-10.21 31.58,-20.1 47.66,-29.67 c 1.59,-0.88 0.42,-2.4 -1.26,-1.34 c -14.56,9.22 -29.9,17.67 -44.85,26.44 c -0.95,0.56 -1.94,1 -2.98,1.33 c -1.24,-2.59 -2.36,-5.22 -3.37,-7.91 c 8.45,-5.23 16.93,-10.41 25.44,-15.54 c 1.61,-0.86 0.43,-2.36 -1.25,-1.33 c -8.13,5.25 -16.46,10.21 -24.97,14.87 c -0.9,-2.7 -1.79,-5.4 -2.68,-8.1 c 17.14,-12.27 35.95,-23.39 53.91,-34.42 c 1.52,-0.87 0.39,-2.39 -1.25,-1.35 c -2.27,1.56 -4.56,3.05 -6.89,4.48 c -6.77,3.9 -42.54,26.26 -47.09,26.35 c -0.79,-3.01 -1.41,-6.06 -1.86,-9.15 c 2.61,-0.04 29.54,-18.63 33.93,-21.5 c 0.72,-0.46 0.7,-0.87 -0.06,-1.24 c 0.73,-1.06 7.33,-4.62 9.02,-5.24 c 1.47,0.11 2.47,-0.55 2.99,-1.97 c 0.92,0.25 1.54,-0.04 1.87,-0.86 c 1.34,-2.57 7.76,-3.9 10.24,-5.73 c 8.7,-6.43 17.71,-12.39 27.03,-17.89 c 1.53,-0.73 0.48,-2.5 -1.25,-1.41 c -26.78,16.58 -55.02,32.05 -82.28,48.05 c -0.82,0.49 -1.7,0.8 -2.65,0.94 c -0.63,-3.35 -0.97,-6.72 -1,-10.12 c 0.74,0 1.43,-0.19 2.07,-0.57 c 15.52,-10.11 30.93,-20.36 46.26,-30.74 c 1.61,-0.9 3.18,-1.9 4.7,-3.01 c 4.42,-1.81 8.37,-5.08 12.47,-7.6 c 0.6,-0.76 1.12,-1.57 1.54,-2.44 c 2.74,-1.17 5.28,-2.65 7.64,-4.44 c 1.71,-0.23 3.2,-0.91 4.47,-2.03 c 0.39,-0.21 0.69,-0.51 0.87,-0.91 c 1.29,-0.98 2.57,-1.95 3.86,-2.9 c 2.49,-1.08 4.81,-2.42 6.97,-4.02 c 0.49,-0.69 1.06,-1.29 1.72,-1.82 c -0.47,-0.11 -0.92,-0.04 -1.35,0.21 c -4.07,2.7 -8.24,5.22 -12.53,7.56 c -1.97,1.39 -4.03,2.65 -6.17,3.76 c -0.7,1.04 -1.63,1.8 -2.8,2.29 c -2.08,0.25 -3.81,1.18 -5.18,2.79 c -3.36,1.63 -6.62,3.41 -9.79,5.34 c -1.5,1.79 -3.1,1.76 -5.05,2.76 c -1.42,1.3 -3.01,2.36 -4.77,3.16 c -0.37,0.6 -0.63,1.24 -0.78,1.94 c -2.61,2.03 -6.74,3.77 -9.72,5.57 c -11.11,6.46 -22.17,12.97 -33.18,19.53 c -0.34,-0.1 -0.68,-0.21 -1.02,-0.31 c -1.01,-4.07 -0.33,-9.82 0.1,-14.01 c 0.16,0.05 0.32,0.1 0.48,0.16 c 0.19,1.16 1.31,0.6 1.37,-0.42 c 6.3,-1.41 9.05,-6.91 15.01,-8.31 c 17.2,-12.05 35.07,-23.98 53.06,-34.89 c 1.55,-0.9 0.41,-2.35 -1.23,-1.31 c -21.68,13.56 -44.16,26.06 -66.34,38.82 c -0.81,0.55 -1.54,0.46 -2.18,-0.28 c 0.33,-3.28 0.85,-6.53 1.57,-9.76 c 1.62,-1.36 3.33,-0.85 4.29,-3.06 c 1.63,0.32 2.77,-1.35 3.79,-2.34 c 0.36,-0.05 0.62,-0.24 0.78,-0.55 c 2.28,-1.2 9.08,-4.42 10,-6.67 c -0.78,-0.66 -2.1,0.6 -2.94,0.79 c -3.06,2.07 -6.21,3.99 -9.46,5.76 c -0.52,0.35 -0.98,0.78 -1.37,1.27 c -0.41,0.2 -0.7,0.51 -0.87,0.92 c -1.31,0.16 -3.03,1.59 -3.72,-0.37 c 0.87,-3.92 1.78,-7.83 2.72,-11.73 c 0.64,0.83 1.4,-0.12 2.07,-0.34 c 14.84,-9.9 29.67,-19.98 44.8,-29.27 c 1.51,-0.99 0.11,-2.26 -1.19,-1.32 c -13.18,8.55 -27.5,16.33 -41.12,24.34 c -1,0.57 -2.05,1.03 -3.15,1.36 c 1.93,-6.21 5.39,-18.7 8.94,-23.68 c 11.24,-30.73 50.51,-67.02 82.5,-74.41 c 0.76,0.29 1.35,0.11 1.78,-0.56 c 19.24,-6.94 43.06,-7.66 63.19,-5.16 Z M 242.9,115.04 c 0.46,2.16 9.23,-3.98 9.29,-4.66 c -1.01,-1.53 -7.83,4.11 -9.29,4.66 Z M 279.67,135.05 c 0.39,0.59 0.92,0.78 1.6,0.55 c 1.18,-0.93 1.03,-1.35 -0.47,-1.25 c -0.39,0.21 -0.77,0.44 -1.13,0.7 Z M 228.78,152.05 c 1,0.89 1.77,0.73 2.31,-0.5 c -0.72,-0.91 -1.64,0.07 -2.31,0.5 Z M 333.09,185.06 c 0.06,1.96 3.96,-0.63 3.92,-1.57 c -0.89,-1.16 -3.16,0.9 -3.92,1.57 Z M 124.6,194.05 c 0.37,2.29 10.41,-3.86 8.86,-4.98 c -2.36,0.39 -6.4,3.94 -8.86,4.98 Z M 240.86,193.03 c 0.27,0.6 0.73,0.79 1.38,0.57 c 1.17,-0.89 1.03,-1.3 -0.44,-1.24 c -0.35,0.17 -0.66,0.39 -0.94,0.67 Z M 333.55,223.04 c 0.48,0.48 1.05,0.65 1.71,0.51 c 1.13,-0.91 0.97,-1.31 -0.47,-1.21 c -0.42,0.21 -0.83,0.45 -1.24,0.7 Z M 164.39,231.27 c 0.23,0.47 0.23,0.47 0,0 Z M 160.11,234.12 c -0.34,0.36 -0.74,0.62 -1.21,0.78 c 0.24,-0.51 0.65,-0.77 1.21,-0.78 Z M 179.57,284.03 c 0.41,0.59 0.96,0.8 1.67,0.62 c 1.11,-0.94 0.96,-1.37 -0.48,-1.28 c -0.41,0.19 -0.81,0.41 -1.19,0.66 Z M 292.8,291.04 c 0.32,0.58 0.81,0.77 1.46,0.57 c 1.2,-0.91 1.05,-1.32 -0.42,-1.23 c -0.36,0.2 -0.71,0.42 -1.04,0.66 Z M 266.71,297.02 c 0.59,0.98 1.31,1.03 2.16,0.17 c 0.4,-1.53 -1.64,-0.61 -2.16,-0.17 Z M 369.8,306.01 c 0.81,1.87 2.93,-0.45 4.06,-0.84 c 0.73,-2.47 -3.4,0.66 -4.06,0.84 Z M 182.7,307.04 c 0.69,1.85 4.14,-0.4 4.16,-1.5 c -0.76,-1.18 -3.32,1.08 -4.16,1.5 Z M 384.72,321.33 c 0.77,0.12 4.41,-1.41 2.97,-2.25 c -1.52,0.08 -2.51,0.82 -2.97,2.25 Z M 370.13,331 c 1.33,0.79 10.6,-6.15 11.62,-6.77 c 0.36,-0.5 0.31,-0.95 -0.14,-1.33 c -2.81,1.1 -10.38,5.32 -11.48,8.1 Z M 245.79,375.03 c 0.59,2.01 2.98,-0.46 4,-0.88 c 0.5,-2.47 -3.16,0.63 -4,0.88 Z"/></g>
<g><path fill="#eaa000" fill-opacity="0.929" d="M 370.13,331 c 1.1,-2.78 8.67,-7 11.48,-8.1 c 0.45,0.38 0.5,0.83 0.14,1.33 c -1.02,0.62 -10.29,7.56 -11.62,6.77 Z"/></g>
<g><path fill="#fdb900" fill-opacity="0.518" d="M 323.92,243.9 c -0.43,1.2 -1.26,1.94 -2.48,2.21 c -1.78,-0.95 2.07,-1.78 2.48,-2.21 Z"/></g>
<g><path fill="#fbba00" fill-opacity="0.392" d="M 325.99,242.96 c -0.44,0.77 -1.13,1.08 -2.07,0.94 c 0.44,-0.8 1.13,-1.11 2.07,-0.94 Z"/></g>
<g><path fill="#feba00" fill-opacity="0.345" stroke="#feba00" stroke-width="0.5" stroke-opacity="0.345" d="M 329,240.94 c -0.61,1.28 -1.61,1.95 -3.01,2.02 c 0.68,-1.13 1.68,-1.8 3.01,-2.02 Z"/></g>
<g><path fill="#fdbb00" fill-opacity="0.271" stroke="#fdbb00" stroke-width="0.5" stroke-opacity="0.271" d="M 336.13,236.74 c -0.77,2.15 -4,2.86 -5.7,4.16 c -0.47,0.13 -0.95,0.15 -1.43,0.04 c 0.24,-0.51 0.59,-0.93 1.02,-1.28 c 2.15,-0.82 3.73,-2.78 6.11,-2.92 Z"/></g>
<g><path fill="#f3ac00" d="M 279.67,135.05 c 0.36,-0.26 0.74,-0.49 1.13,-0.7 c 1.5,-0.1 1.65,0.32 0.47,1.25 c -0.68,0.23 -1.21,0.04 -1.6,-0.55 Z M 333.55,223.04 c 0.41,-0.25 0.82,-0.49 1.24,-0.7 c 1.44,-0.1 1.6,0.3 0.47,1.21 c -0.66,0.14 -1.23,-0.03 -1.71,-0.51 Z M 179.57,284.03 c 0.38,-0.25 0.78,-0.47 1.19,-0.66 c 1.44,-0.09 1.59,0.34 0.48,1.28 c -0.71,0.18 -1.26,-0.03 -1.67,-0.62 Z M 292.8,291.04 c 0.33,-0.24 0.68,-0.46 1.04,-0.66 c 1.47,-0.09 1.62,0.32 0.42,1.23 c -0.65,0.2 -1.14,0.01 -1.46,-0.57 Z M 266.71,297.02 c 0.52,-0.44 2.56,-1.36 2.16,0.17 c -0.85,0.86 -1.57,0.81 -2.16,-0.17 Z M 369.8,306.01 c 0.66,-0.18 4.79,-3.31 4.06,-0.84 c -1.13,0.39 -3.25,2.71 -4.06,0.84 Z M 245.79,375.03 c 0.84,-0.25 4.5,-3.35 4,-0.88 c -1.02,0.42 -3.41,2.89 -4,0.88 Z"/></g>
<g><path fill="#f1aa00" d="M 242.9,115.04 c 1.46,-0.55 8.28,-6.19 9.29,-4.66 c -0.06,0.68 -8.83,6.82 -9.29,4.66 Z M 228.78,152.05 c 0.67,-0.43 1.59,-1.41 2.31,-0.5 c -0.54,1.23 -1.31,1.39 -2.31,0.5 Z M 333.09,185.06 c 0.76,-0.67 3.03,-2.73 3.92,-1.57 c 0.04,0.94 -3.86,3.53 -3.92,1.57 Z M 240.86,193.03 c 0.28,-0.28 0.59,-0.5 0.94,-0.67 c 1.47,-0.06 1.61,0.35 0.44,1.24 c -0.65,0.22 -1.11,0.03 -1.38,-0.57 Z M 182.7,307.04 c 0.84,-0.42 3.4,-2.68 4.16,-1.5 c -0.02,1.1 -3.47,3.35 -4.16,1.5 Z"/></g>
<g><path fill="#efa600" fill-opacity="0.431" stroke="#efa600" stroke-width="0.5" stroke-opacity="0.431" d="M 384.72,321.33 c 0.46,-1.43 1.45,-2.17 2.97,-2.25 c 1.44,0.84 -2.2,2.37 -2.97,2.25 Z"/></g>
<g><path fill="#e59a00" fill-opacity="0.89" d="M 402.44,239.84 c 0.26,1.09 0.38,2.21 0.38,3.33 c -0.25,-0.03 -0.5,-0.06 -0.75,-0.09 c -1.51,0.99 -3.04,1.95 -4.59,2.87 c -0.28,0.61 -0.36,1.25 -0.26,1.92 c -21.48,12.63 -42.99,25.42 -64.55,38.37 c -0.96,0.14 -3.79,2.25 -4.42,1.19 c 7.64,-5.28 15.43,-10.38 23.37,-15.32 c 7.31,-3.67 14.04,-8.59 20.69,-13.32 c 8.58,-4.82 21.61,-15.35 30.13,-18.95 Z"/></g>
<g><path fill="#e59900" fill-opacity="0.992" d="M 266.72,32.25 c -0.57,-0.1 -1.06,0.06 -1.47,0.48 c -3.46,3.55 -6.93,7.09 -10.41,10.63 c -0.57,0.45 -0.62,0.94 -0.16,1.45 c 1.07,0.2 13.41,-6.99 14.01,-8.13 c 1.64,3.3 3.03,6.71 4.16,10.23 c -0.66,0.1 -1.26,0.37 -1.78,0.8 c -6.24,5.59 -12.48,11.14 -18.73,16.64 c 0.5,0.37 1.05,0.42 1.63,0.16 c 6.3,-4.58 14.97,-7.93 20.73,-12.8 c 2.36,6.46 4.71,12.93 7.05,19.4 c -4.92,0.11 -41.74,23.22 -48.89,27.35 c -0.63,0.4 -1.02,0.96 -1.17,1.69 c -0.58,0.36 -1.19,0.73 -1.83,1.09 c -0.06,0.19 -0.13,0.38 -0.19,0.57 c -0.81,0.42 -1.67,0.61 -2.58,0.57 c -0.36,-0.1 -0.61,0.01 -0.75,0.34 c -2.94,0.82 -5.9,1.56 -8.88,2.23 c -0.8,0.09 -1.19,-0.25 -1.16,-1.02 c 4.07,-10.5 8.41,-20.89 12.99,-31.18 c 1.18,-0.37 2.21,-1.03 3.09,-1.96 c 1.71,-1.35 3.2,-2.9 4.47,-4.66 c 0.53,-0.48 3.47,-0.87 2.64,-1.99 c -1.33,0.04 -2.21,0.71 -2.64,1.99 c -1.38,-0.67 -2.36,1.11 -3.39,1.65 c -1.04,0.23 -2,0.65 -2.86,1.27 c 2.82,-7.97 5.96,-15.82 9.4,-23.55 c 3.36,-8.4 8.51,-23.58 11.98,-30.92 c 5.18,-5.12 13.44,14.42 14.74,17.67 Z M 274.74,64.01 c 0.51,-0.04 0.92,-0.26 1.23,-0.67 c -0.59,-0.19 -1,0.03 -1.23,0.67 Z M 281.9,74.2 c 0.72,-0.09 1.18,0.23 1.38,0.94 c 1.75,5.26 3.58,10.49 5.47,15.7 c -2.6,2.61 -6.65,4.78 -9.82,6.73 c -0.5,0.32 -0.71,0.78 -0.64,1.36 c -0.42,0.5 -0.86,0.97 -1.32,1.43 c -13.37,-0.73 -26.74,-0.56 -40.08,0.51 c 0.11,-0.27 0.23,-0.54 0.35,-0.81 c 14.94,-8.52 29.83,-17.14 44.66,-25.86 Z M 424.26,82.86 c -0.83,-0.12 -1.61,-0.01 -2.37,0.35 c -23.08,14.68 -46.17,29.36 -69.25,44.03 c -0.69,0.38 -1.23,0.9 -1.64,1.57 c -3.05,-2.15 -9.07,-5.5 -11.4,-8.01 c 3.75,-2.64 28.02,-15.6 29.2,-17.51 c 1.47,-0.89 2.97,-1.75 4.49,-2.56 c 0.77,0.32 1.34,0.1 1.7,-0.65 c 0.79,-0.05 1.46,-0.35 2.02,-0.9 c 14.23,-6.44 28.56,-12.68 42.97,-18.71 c 1.58,-0.98 3.15,1.63 4.28,2.39 Z M 92.24,85.14 c -0.66,1.48 -1.15,3.01 -1.48,4.59 c 0.18,0.16 0.35,0.33 0.53,0.5 c 1.91,-0.56 5.33,-2.41 6.55,-3.95 c 2.58,0.66 11.17,2.92 12.54,4.89 c -2.36,3.19 -4.57,6.48 -6.61,9.9 c -0.26,0.66 -1.04,1.2 -0.21,1.76 c 4.57,-2.31 9.05,-4.79 13.46,-7.43 c 0.46,-0.26 0.71,-0.65 0.73,-1.17 c 3.17,0.33 8.65,3.39 11.67,4.83 c -3.03,3.06 -6.95,6.81 -9.18,10.41 c 0.54,0.49 1.13,0.56 1.79,0.21 c 2.83,-2 11.01,-5.79 12.88,-8.01 c 7.2,3.45 14.38,6.95 21.55,10.48 c -1.62,1.82 -6.52,4.69 -7.31,6.71 c -1.26,0.16 -2.25,0.76 -2.95,1.78 c 0.87,1.21 2.61,-0.94 2.95,-1.78 c 2.72,-0.49 7.48,-3.56 9.82,-5.24 c 3.81,1.49 7.59,3.09 11.32,4.79 c -0.62,0.46 -1.28,0.88 -1.98,1.25 c -5.39,4.56 -10.73,9.12 -16.04,13.7 c 0.54,0.38 1.09,0.39 1.66,0.02 c 3.98,-2.27 7.93,-4.59 11.85,-6.95 c 0.63,-0.36 1.3,-0.6 2.02,-0.73 c 0.03,0.74 -0.27,1.31 -0.88,1.71 c -12.52,7.66 -24.14,18.98 -34.23,29.58 c -0.62,-0.07 -1.17,0.1 -1.65,0.49 c -0.82,1.09 -1.85,1.92 -3.08,2.47 c -0.06,-0.8 -0.49,-1.09 -1.27,-0.87 c -1.67,0.92 -8.9,4.58 -9.58,5.81 c -0.41,-0.03 -0.74,-0.21 -0.98,-0.55 c -1.22,-2.79 -2.39,-5.6 -3.5,-8.44 c 5.07,-4.44 10.11,-8.86 15.13,-13.26 c -0.59,-0.25 -1.17,-0.2 -1.73,0.17 c -4.92,2.86 -9.86,5.68 -14.81,8.48 c -2,-2.08 -11.61,-25.77 -13.54,-30.28 c 2.54,-2.95 5.19,-5.8 7.94,-8.55 c -1.11,-0.36 -1.9,0 -2.38,1.1 c -2.43,1.11 -4.78,2.38 -7.06,3.8 c -1.78,-3.85 -4.73,-9.48 -5.37,-13.58 c 0.58,0.1 1.09,-0.06 1.52,-0.46 c 0.28,-0.39 0.54,-0.79 0.8,-1.19 c 0.34,-0.55 0.61,-1.14 0.79,-1.76 c 0.7,-0.61 1.15,-1.33 1.33,-2.15 c -1.07,0.13 -1.75,0.72 -2.06,1.76 c -0.45,0.02 -0.89,0.04 -1.34,0.06 c -0.38,0.28 -0.75,0.58 -1.1,0.9 c -0.44,0.23 -0.67,0.59 -0.69,1.1 c -0.58,-0.29 -1,-0.73 -1.27,-1.32 c -3.56,-6.27 -9.13,-16.88 3.45,-15.58 Z M 425.06,91.06 c 0.24,-0.01 0.48,-0.02 0.73,-0.03 c 0.75,3.72 -0.65,8.68 -2.06,12.17 c -0.71,-0.17 -1.37,-0.05 -1.98,0.37 c -18.4,11.84 -36.86,23.61 -55.36,35.3 c -0.52,0.26 -0.87,0.67 -1.04,1.22 c -1.87,-0.48 -8.45,-6.95 -10.64,-8.39 c 23.42,-13.55 46.87,-27.1 70.35,-40.64 Z M 272.03,108.01 c 1.38,0.1 2.73,0.38 4.05,0.82 c -0.81,1.99 -19,11.31 -22,13.99 c -1.37,0.92 -2.88,-0.33 -1.18,-1.28 c 5.96,-3.68 11.9,-7.38 17.82,-11.11 c 0.86,-0.58 1.29,-1.39 1.31,-2.42 Z M 289.25,111.42 c 2.35,0.64 4.68,1.29 7.01,1.97 c -1.74,1.43 -3.61,2.69 -5.59,3.77 c -16.99,9.69 -33.85,19.58 -50.59,29.65 c -1.43,0.99 -3.08,-0.35 -1.27,-1.31 c 15.2,-9.78 30.3,-19.72 45.3,-29.81 c 1.98,-1.12 3.69,-2.54 5.14,-4.27 Z M 419.35,114.05 c 0.15,-0.02 0.3,-0.05 0.44,-0.07 c -1.81,4.79 -3.76,9.52 -5.85,14.19 c -0.73,0.04 -0.98,0.42 -0.73,1.17 c -0.74,-0.48 -1.51,-0.54 -2.32,-0.19 c -11.71,7.28 -23.34,14.67 -34.9,22.18 c -1.75,-1.68 -7.39,-6.69 -7.97,-8.69 c 0.69,0.16 1.35,0.06 1.96,-0.3 c 16.37,-9.61 32.82,-19.04 49.37,-28.29 Z M 307.03,117.09 c 0.75,0.26 1.39,0.67 1.94,1.25 c -0.04,0.51 -0.24,0.95 -0.59,1.31 c -1.83,1.33 -3.73,2.57 -5.7,3.71 c -3.28,1.68 -6.47,3.49 -9.58,5.43 c -1.7,0.99 -3.05,-0.42 -1.28,-1.37 c 2.87,-1.99 14.16,-7.48 15.21,-10.33 Z M 319.22,122.42 c 1.01,0.75 5.79,2.26 5.59,3.68 c -0.75,-0.08 -1.42,0.11 -2.02,0.57 c -3.35,2.19 -6.75,4.33 -10.2,6.4 c -0.21,0.2 -0.34,0.45 -0.39,0.73 c -0.56,0.69 -1.21,1.29 -1.93,1.81 c -5.58,3.52 -11.22,5.52 -16.17,9.87 c -14.74,8.29 -29.61,16.3 -44.04,25.26 c -0.76,0.45 -1.45,0.38 -2.05,-0.22 c 0.09,-0.5 0.37,-0.86 0.83,-1.08 c 22.33,-14.32 44.55,-28.81 66.66,-43.45 c 1.65,-0.79 2.89,-1.98 3.72,-3.57 Z M 334.25,130.77 c 0.97,0.79 5.62,3.11 5.56,4.31 c -1.57,1.31 -3.19,2.55 -4.86,3.69 c -1.43,0.33 -2.5,1.13 -3.21,2.41 c -0.76,-0.2 -1.34,0.05 -1.74,0.75 c -6.56,3.04 -11.73,6.93 -17.42,11.05 c -19.47,10.73 -38.79,21.74 -57.94,33.04 c -0.89,0.56 -1.74,1.17 -2.55,1.85 c -0.91,0.58 -2.42,0.51 -1.82,-0.96 c 27.77,-17.9 55.47,-35.92 83.08,-54.07 c 0.65,-0.54 0.95,-1.22 0.9,-2.07 Z M 410.37,133.84 c 0.1,0.08 0.21,0.16 0.32,0.25 c -2.18,4.75 -4.48,9.45 -6.89,14.1 c -0.4,0.1 -0.73,0.3 -0.99,0.63 c -3.3,1.9 -6.58,3.82 -9.86,5.77 c -0.53,0.35 -0.79,0.84 -0.78,1.49 c -0.81,1.45 -5.04,3.92 -6.65,3.29 c -0.45,0.52 -0.88,1.07 -1.28,1.64 c -2.3,-1.96 -5.38,-5.51 -6.55,-8.25 c 10.92,-6.31 21.81,-12.61 32.68,-18.92 Z M 108.64,138.97 c 1.82,1.5 5.11,-1.06 3.94,-2.09 c -1.46,0.4 -2.77,1.1 -3.94,2.09 Z M 348.32,140.73 c 2.35,1.96 4.67,3.96 6.96,6.01 c -31.2,16.37 -63.93,35.91 -94.22,54.03 c -0.83,0.61 -2.63,0.37 -1.74,-0.83 c 28.44,-18.16 56.77,-36.51 84.99,-55.04 c 1.35,-1.14 4.18,-2.04 4.01,-4.17 Z M 361.37,152.61 c 0.98,1.01 1.96,2.02 2.94,3.04 c -1.43,0.48 -2.78,1.12 -4.06,1.92 c -17.69,10.39 -35.89,20.34 -53.15,31.25 c -0.83,0.63 -2.62,0.3 -1.75,-0.86 c 0.63,-0.47 1.27,-0.92 1.91,-1.36 c 18.21,-11.05 36.24,-22.38 54.11,-33.99 Z M 369.74,161.77 c 0.51,0.66 1.04,1.31 1.57,1.96 c -8.5,4.89 -16.9,9.94 -25.19,15.15 c -1.36,0.94 -2.93,-0.37 -1.25,-1.35 c 4.58,-3.04 22.17,-12.5 24.87,-15.76 Z M 394,168.69 c 0.06,1.84 -0.44,3.52 -1.49,5.02 c -1.09,-1.15 -1.8,-2.49 -2.13,-4.03 c 1.11,0.81 2.58,-0.64 3.62,-0.99 Z M 376.62,170.75 c 0.7,0.99 1.37,1.99 2.02,3.02 c -15.66,8.52 -31.39,17.76 -46.52,27.12 c -1.33,0.93 -3.02,-0.42 -1.28,-1.39 c 15.43,-9.19 30.79,-18.75 45.78,-28.75 Z M 114.21,217.05 c 0.43,-1.75 0.89,-3.5 1.41,-5.23 c 1.1,-0.33 2.15,-0.79 3.15,-1.36 c 13.62,-8.01 27.94,-15.79 41.12,-24.34 c 1.3,-0.94 2.7,0.33 1.19,1.32 c -15.13,9.29 -29.96,19.37 -44.8,29.27 c -0.67,0.22 -1.43,1.17 -2.07,0.34 Z M 388,189.97 c 0.36,0.65 0.72,1.3 1.07,1.95 c -14.15,8.02 -28.16,16.26 -42.02,24.74 c -0.75,0.45 -1.44,0.4 -2.06,-0.16 c 0.5,-0.9 1.24,-1.57 2.2,-2.02 c 12.14,-6.97 23.83,-14.5 35.35,-22.47 c 1.61,-1.26 3.43,-1.94 5.46,-2.04 Z M 111.1,248.76 c -0.46,0.14 -0.91,0.28 -1.37,0.42 c -0.16,-0.06 -0.32,-0.11 -0.48,-0.16 c -0.24,-2.08 -0.19,-4.16 0.17,-6.23 c 0.64,0.74 1.37,0.83 2.18,0.28 c 22.18,-12.76 44.66,-25.26 66.34,-38.82 c 1.64,-1.04 2.78,0.41 1.23,1.31 c -17.99,10.91 -35.86,22.84 -53.06,34.89 c -5.96,1.4 -8.71,6.9 -15.01,8.31 Z M 97.15,241.1 c -0.53,0.16 -0.94,0.47 -1.26,0.92 c -0.65,0.14 -1.27,0.37 -1.86,0.69 c -16.66,9.67 -33.33,19.31 -50.03,28.9 c -0.44,0.29 -0.73,0.69 -0.88,1.2 c -7.27,-2.57 -26.27,-9.68 -27.54,-18.48 c 0.69,-6.94 10.25,-7.85 15.41,-10.2 c -0.05,0.25 -0.11,0.49 -0.16,0.74 c -0.65,0.74 -1.18,1.55 -1.59,2.42 c 0.13,0.4 0.4,0.53 0.8,0.37 c 3.68,-2.39 7.41,-4.68 11.2,-6.86 c 0.31,-0.17 0.47,-0.42 0.49,-0.76 c 0.84,-0.33 1.62,-0.77 2.36,-1.3 c 0.78,0.25 1.42,0.04 1.91,-0.6 c 17.04,-7.13 35.96,-15.2 53.24,-21.11 c -0.55,0.55 -1.99,1.29 -0.84,2.04 c 1.73,0.06 2.96,-1.58 0.84,-2.04 c -0.19,-0.84 3.06,-2.54 2.56,0.5 c -1.81,7.81 -3.36,15.67 -4.65,23.57 Z M 415.87,219.18 c -1.5,0.68 -2.69,1.71 -3.55,3.09 c -0.41,-1.27 -0.79,-2.54 -1.16,-3.83 c -0.76,-2.58 4.45,-0.29 4.71,0.74 Z M 420.87,220.76 c 2.11,0.78 9.59,2.78 10.47,4.62 c -5.55,3.1 -10.96,6.43 -16.23,10 c -1.4,-1.04 -1.77,-8.42 -2.31,-10.46 c 2.42,0.29 6.29,-2.57 8.07,-4.16 Z M 399.38,221.79 c 0.61,2.28 1.06,4.58 1.35,6.92 c -1.91,0.66 -3.48,1.76 -4.73,3.3 c -1.89,-0.23 -2.99,1.27 -4.54,2.08 c -0.26,0.27 -0.39,0.59 -0.41,0.96 c -0.92,-0.13 -1.63,0.19 -2.12,0.97 c -0.53,0.12 -0.83,0.45 -0.89,1 c -0.94,0.18 -1.83,0.5 -2.67,0.96 c -25.34,16.77 -55.35,31.07 -81.27,47.92 c -0.92,0.58 -2.4,0.47 -1.8,-0.98 c 32.37,-21.02 64.73,-42.06 97.08,-63.13 Z M 433.95,225.66 c 1.92,0.96 9.27,2.93 10.17,4.46 c -0.11,0.32 -0.22,0.63 -0.33,0.95 c -8.99,5.53 -17.85,11.27 -26.57,17.21 c -0.44,-0.01 -0.88,-0.02 -1.31,-0.03 c -1.03,-2.68 -0.96,-8.49 -0.92,-11.51 c 0.71,0.06 1.37,-0.08 2,-0.41 c 5.04,-2.94 10.09,-5.85 15.16,-8.75 c 0.55,-0.69 1.15,-1.33 1.8,-1.92 Z M 119.85,227.08 c -0.16,0.31 -0.42,0.5 -0.78,0.55 c 0.23,-0.23 0.5,-0.41 0.78,-0.55 Z M 116.08,228.23 c -0.28,0.32 -0.57,0.62 -0.87,0.92 c 0.17,-0.41 0.46,-0.72 0.87,-0.92 Z M 111.49,228.78 c 0.69,1.96 2.41,0.53 3.72,0.37 c 0.02,0.27 0.04,0.55 0.07,0.82 c -0.96,2.21 -2.67,1.7 -4.29,3.06 c -0.03,-1.44 0.14,-2.85 0.5,-4.25 Z M 158.83,255.07 c -0.8,-0.11 -1.43,0.18 -1.87,0.86 c -1.31,0.18 -2.31,0.84 -2.99,1.97 c -1.69,0.62 -8.29,4.18 -9.02,5.24 c -1.81,-0.05 -8.37,4.87 -10.63,5.62 c -5.06,3.28 -19.64,10.75 -23.29,13.99 c -1.21,0.18 -0.92,-3 -1.11,-3.72 c 0.95,-0.14 1.83,-0.45 2.65,-0.94 c 27.26,-16 55.5,-31.47 82.28,-48.05 c 1.73,-1.09 2.78,0.68 1.25,1.41 c -9.32,5.5 -18.33,11.46 -27.03,17.89 c -2.48,1.83 -8.9,3.16 -10.24,5.73 Z M 451.92,232.62 c 7.46,2.83 14.83,5.86 22.12,9.1 c -0.73,0.2 -1.42,0.49 -2.07,0.87 c -7.73,4.88 -15.47,9.73 -23.22,14.52 c -4.42,2.63 -8.8,5.33 -13.13,8.1 c -0.73,0.4 -1.26,0.97 -1.61,1.71 c -1.06,-0.2 -1.74,0.18 -2.04,1.15 c -1.36,0.06 -2.36,0.68 -3.01,1.87 c -0.77,-0.09 -1.37,0.17 -1.81,0.78 c 0.58,0.93 1.85,0.05 1.81,-0.78 c 1.37,-0.01 2.38,-0.63 3.01,-1.87 c 1.02,0.16 1.71,-0.22 2.04,-1.15 c 0.71,0.02 1.38,-0.14 2,-0.5 c 4.72,-2.65 9.4,-5.35 14.05,-8.09 c 8.12,-4.87 16.3,-9.63 24.55,-14.28 c 0.54,-0.33 0.99,-0.77 1.34,-1.3 c 3.18,0.62 6.73,2.81 9.63,4.29 c 0.29,0.33 0.38,0.71 0.29,1.14 c -0.67,-0.03 -1.28,0.13 -1.84,0.5 c -22,13.7 -43.83,28.03 -65.94,41.31 c -1.98,1.45 -4.06,2.74 -6.23,3.89 c -0.61,0.36 -1.16,0.81 -1.65,1.33 c 3.42,-13.9 4.91,-27.21 5.94,-41.47 c 2.26,-0.88 33.41,-18.17 35.77,-21.12 Z M 456.8,241.23 c 1.2,-0.09 4.54,-1.8 5.02,-2.84 c -0.96,-1.28 -4.96,1.88 -5.02,2.84 Z M 96.82,243.76 c 0.13,4.47 0.07,8.94 -0.18,13.42 c -2.67,0.05 -31.09,17.52 -35.82,20.23 c -0.64,0.51 -0.92,1.18 -0.81,2 c -1.84,-1.03 -10.54,-2.89 -11.12,-4.61 c 0.13,-0.28 0.26,-0.55 0.38,-0.82 c 15.91,-9.98 31.76,-20.05 47.55,-30.22 Z M 47.04,258.98 c -1.61,-0.2 -2.65,0.46 -3.11,1.96 c -0.98,-0.22 -1.62,0.12 -1.93,1.02 c -1.71,-0.01 -3.97,1.44 -4.99,2.72 c 0.81,1.3 4.5,-1.59 4.99,-2.72 c 1.02,0.26 1.66,-0.08 1.93,-1.02 c 1.33,-0.22 2.36,-0.88 3.11,-1.96 c 1.34,0.16 4.43,-1.44 5.02,-2.62 c -0.78,-1.27 -4.93,1.68 -5.02,2.62 Z M 96.63,258.68 c 0.22,4.21 0.3,8.41 0.22,12.61 c -1.6,-0.27 -17.7,10.03 -20.59,11.3 c -0.67,0.32 -1.01,0.85 -1.03,1.58 c -3.53,-0.15 -7.36,-2.29 -10.8,-3.18 c -0.68,-0.05 -1.09,-0.39 -1.24,-1.01 c 10.71,-6.51 23.37,-14.11 33.44,-21.3 Z M 114.26,299.97 c -0.46,-1.64 -0.9,-3.29 -1.32,-4.94 c 4.55,-0.09 40.32,-22.45 47.09,-26.35 c 2.33,-1.43 4.62,-2.92 6.89,-4.48 c 1.64,-1.04 2.77,0.48 1.25,1.35 c -17.96,11.03 -36.77,22.15 -53.91,34.42 Z M 402.35,268.09 c -0.15,2.69 -0.49,5.35 -1.04,7.99 c -0.44,-0.01 -0.87,0.09 -1.27,0.28 c -18.8,10.92 -37.63,21.8 -56.48,32.64 c -4.78,2.96 -10.01,5.47 -14.45,8.87 c -1.68,1.03 -2.82,-0.51 -1.27,-1.41 c 24.06,-15.02 48.42,-31.98 72.23,-47.66 c 0.71,-0.4 1.47,-0.63 2.28,-0.71 Z M 97.7,278.77 c 0.83,3.45 1.51,6.93 2.03,10.44 c -1.59,0.26 -4.01,1.14 -3.68,3.17 c -3.52,-1.5 -7.09,-2.9 -10.7,-4.21 c -0.56,-0.18 -1.03,-0.49 -1.41,-0.93 c 3.11,-0.87 10.85,-6.22 13.76,-8.47 Z M 399.18,288.06 c -0.1,0.95 -0.23,1.9 -0.41,2.84 c -4.23,1.2 -11.55,6.5 -15.68,8.94 c -1.6,0.98 -2.72,-0.59 -1.26,-1.38 c 5.8,-3.45 11.58,-6.91 17.35,-10.4 Z M 122.52,321.22 c -0.47,-1.08 -0.95,-2.16 -1.43,-3.24 c 1.04,-0.33 2.03,-0.77 2.98,-1.33 c 14.95,-8.77 30.29,-17.22 44.85,-26.44 c 1.68,-1.06 2.85,0.46 1.26,1.34 c -16.08,9.57 -31.96,19.46 -47.66,29.67 Z M 117.72,310.07 c -0.27,-0.66 -0.54,-1.33 -0.78,-2 c 8.51,-4.66 16.84,-9.62 24.97,-14.87 c 1.68,-1.03 2.86,0.47 1.25,1.33 c -8.51,5.13 -16.99,10.31 -25.44,15.54 Z M 168.88,362.02 c -0.8,-0.05 -1.43,0.24 -1.9,0.88 c -1.29,0.28 -2.32,0.95 -3.08,2.03 c -1.61,0.65 -3.21,1.35 -4.79,2.09 c -1.94,-1.39 -3.77,-2.93 -5.48,-4.6 c 34.63,-19.14 70.77,-40.32 105.01,-60.52 c 1.97,-0.35 1.06,1.55 -0.09,2.09 c -26.62,16.7 -53.09,34.17 -79.05,51.91 c -2.82,2.09 -8.49,3.61 -10.62,6.12 Z M 133.12,338.95 c -0.75,-0.95 -1.46,-1.92 -2.14,-2.92 c 1.07,0.18 2.1,0.06 3.08,-0.38 c 14.28,-8.53 28.87,-16.47 42.88,-25.35 c 1.6,-1 2.84,0.47 1.27,1.29 c -14.07,8.38 -28.21,17.05 -41.98,26.02 c -0.98,0.58 -2.02,1.03 -3.11,1.34 Z M 141.73,350.22 c -0.67,-0.66 -1.13,-1.44 -1.38,-2.35 c 4.25,-2.62 8.4,-5.37 12.45,-8.25 c 0.39,-0.03 0.76,-0.13 1.12,-0.3 c 1.41,-1.41 8.71,-4.96 9.08,-6.27 c 2.24,-0.1 2.27,-1.41 3.65,-2.74 c 1.07,-0.53 2.04,-1.19 2.92,-1.99 c 4.94,-0.07 8.66,-6.16 13.36,-7.96 c 4.71,-2.25 9.3,-4.72 13.77,-7.41 c 1.42,-0.59 1.58,0.85 0.47,1.52 c -18.09,11.32 -36.14,22.72 -54.16,34.19 c -0.54,0.42 -0.97,0.94 -1.28,1.56 Z M 173.83,378.1 c -1.7,-1.14 -3.4,-2.3 -5.07,-3.48 c 0.32,-0.72 0.78,-1.33 1.38,-1.84 c 26.58,-15.47 53.7,-30.45 79.78,-46.56 c 1.62,-1.01 2.78,0.51 1.25,1.33 c -25.76,15.64 -50.79,32.73 -76.26,48.97 c -0.56,0.39 -0.92,0.92 -1.08,1.58 Z M 198.87,390.99 c -2.48,-0.63 -4.84,-1.58 -7.07,-2.83 c 29.14,-16.82 58.19,-33.79 87.14,-50.93 c 0.67,-0.41 1.3,-0.4 1.88,0.06 c -0.45,0.9 -1.1,1.61 -1.97,2.14 c -22.6,14.6 -45.05,29.42 -67.37,44.46 c -1.62,0.88 -3.3,1.63 -5.05,2.24 c -4.46,0.22 -5.28,1.7 -7.56,4.86 Z M 381.23,337.16 c -2.03,3.79 -4.26,7.47 -6.69,11.03 c -0.68,-0.8 -1.44,-0.89 -2.3,-0.25 c -5.9,3.53 -12.71,6.85 -18.12,11 c -0.85,0.67 -2.42,0.16 -1.67,-0.98 c 9.84,-6.39 19.44,-13.82 28.78,-20.8 Z M 393.39,342.02 c -2.24,-0.43 -4.65,1.79 -6.13,3.26 c -0.34,-0.04 -0.68,-0.07 -1.02,-0.1 c 0.41,-1.82 3.2,-5.53 4.47,-7.09 c 1.65,-0.61 2.05,3.01 2.68,3.93 Z M 121,342.14 c 1.08,-0.03 5.12,7 6.24,8.01 c -5.48,2.75 -10.87,5.78 -16.16,9.08 c 0.64,-3.55 4.59,-10.61 5.96,-14.4 c 0.54,-0.15 0.89,-0.5 1.05,-1.04 c 1.23,-0.08 2.2,-0.63 2.91,-1.65 Z M 394.68,346.74 c 1.8,0.59 3.66,7.41 4.7,9.19 c -3.39,2.18 -8.9,6.95 -11.85,10 c -0.91,0.42 -1.77,0.93 -2.57,1.53 c -0.92,0.79 -0.8,1.19 0.35,1.21 c 0.46,-0.11 0.89,-0.3 1.29,-0.56 c 4.81,-2.69 9.53,-5.52 14.15,-8.49 c 2.57,5.68 7.09,14.79 8.37,20.59 c -1.78,0.42 -3.95,2.99 -4.98,4.46 c -0.62,0.72 -2.69,0.69 -2.76,1.73 c 0.47,0.46 1.01,0.56 1.63,0.29 c 2.17,-1.72 4.49,-3.23 6.95,-4.51 c 0.64,0.13 1.05,0.52 1.23,1.16 c 1.62,3.5 3.01,7.08 4.16,10.76 c -0.81,-0.13 -1.49,0.1 -2.06,0.68 c -2.1,2.47 -4.09,5.01 -5.97,7.62 c 1.51,0.66 7.69,-4 9.51,-4.7 c 2.64,6.23 13.81,25.45 10.09,31.45 c -0.38,0 -0.57,0.18 -0.57,0.55 c -3.16,1.51 -24.57,-8.44 -25.69,-9.99 c 1.48,-1.26 2.8,-2.66 3.97,-4.22 c -0.94,-0.31 -4.3,1.64 -5.33,2.16 c -0.64,0.28 -0.99,0.76 -1.04,1.44 c -2.01,-0.35 -10.77,-3.63 -11.62,-5.36 c 3.3,-3.89 6.55,-7.81 9.76,-11.77 c 0.49,-0.53 0.53,-1.07 0.12,-1.61 c -5.63,2.36 -11.15,6.26 -16.61,9.16 c -0.53,0.35 -0.88,0.83 -1.05,1.44 c -2.53,-0.86 -9.87,-3.34 -11.25,-5.26 c 3.57,-2.81 6.94,-5.82 10.11,-9.03 c -0.3,-0.22 -0.63,-0.27 -1,-0.13 c -4.64,2.41 -9.18,4.99 -13.63,7.75 c -3.52,-1.28 -6.96,-2.76 -10.31,-4.43 c 0.76,-0.55 1.11,-2.27 2.29,-1.8 c 1.34,-0.7 2.29,-1.75 2.85,-3.14 c 0.58,-0.12 3.94,-0.72 2.57,-1.77 c -1.2,0.08 -2.06,0.67 -2.57,1.77 c -1.51,0.31 -2.88,0.92 -4.12,1.85 c -0.95,0.58 -1.85,1.24 -2.68,1.97 c -1.76,0.05 -10.47,-3.41 -10.94,-4.83 c 0.54,-0.1 1.02,-0.34 1.43,-0.71 c 5.77,-4.79 11.45,-9.66 17.05,-14.62 c -0.86,-0.89 -2.39,1.29 -3.63,1.14 c -2.71,1.35 -5.32,2.88 -7.83,4.59 c -0.1,-0.33 -0.2,-0.66 -0.3,-0.99 c 10.02,-7.31 22.52,-18.16 30.32,-27.58 c 0.97,0.23 1.9,0.11 2.79,-0.35 c 2.3,-1.69 11.59,-6.37 14.67,-8.64 Z M 129.21,355.06 c 0.15,-0.14 0.31,-0.29 0.46,-0.43 c 2.49,0.68 6.03,6.57 8.46,8.24 c -0.97,0.19 -1.92,0.46 -2.84,0.81 c -11.78,6.74 -23.47,13.6 -35.09,20.59 c -0.35,-0.07 -0.7,-0.14 -1.05,-0.21 c 1.61,-5.09 4.67,-10.51 7.12,-15.26 c 0.6,0.23 1.18,0.19 1.74,-0.14 c 7.04,-4.57 14.11,-9.1 21.2,-13.6 Z M 139.28,365.98 c 0.24,-0.07 0.48,-0.15 0.72,-0.22 c 2.36,1.03 7.02,6.1 9.16,8.06 c -3.61,0.6 -7.59,4.33 -11.15,5.65 c -16.44,9.47 -32.82,19 -49.15,28.58 c 1.69,-5.17 3.72,-10.21 6.07,-15.11 c 2.2,0.22 39.19,-23.78 44.35,-26.96 Z M 400.87,372.29 c 1.17,0 1.92,-0.53 2.25,-1.61 c -1.19,-0.15 -1.94,0.38 -2.25,1.61 Z M 278,403.85 c -5,0.32 -10.01,0.49 -15.02,0.49 c 0.3,-0.9 0.88,-1.55 1.73,-1.97 c 14.62,-8.42 29.25,-16.84 43.87,-25.26 c 3.43,-1.98 6.78,-4.08 10.04,-6.29 c 1.23,0.23 1.38,0.77 0.45,1.6 c -13.93,9.74 -27.8,19.57 -41.6,29.5 c -0.24,0.73 -0.07,1.38 0.53,1.93 Z M 149.33,374.8 c 0.18,-0.03 0.36,-0.05 0.53,-0.08 c 2.3,1.65 19.86,13.61 20.15,14.48 c -4.88,2.1 -33.46,18.85 -40.23,23.06 c -1.29,0.26 -3.65,1.22 -3.67,2.76 c -0.97,-0.27 -1.58,0.04 -1.82,0.96 c -7.8,2.22 -28.23,13.89 -35.11,13.26 c -1.54,-0.07 -2.5,-0.84 -2.86,-2.32 c 9.37,-5.72 18.74,-11.41 28.12,-17.08 c 0.48,-0.35 0.89,-0.76 1.26,-1.22 c 0.68,-0.11 1.34,-0.3 1.97,-0.59 c 2.02,-1.77 7.21,-3.76 8.35,-6.03 c 1.96,0.08 4,-1.35 5.02,-2.97 c 1.57,0 6.29,-2.71 6.96,-3.98 c 1.39,-0.11 2.37,-0.8 2.95,-2.05 c 0.78,0.12 1.42,-0.11 1.94,-0.7 c -0.58,-0.89 -1.76,-0.03 -1.94,0.7 c -1.46,0.03 -2.44,0.71 -2.95,2.05 c -1.63,-0.52 -3.07,1.43 -4.65,1.82 c -1.06,0.42 -1.83,1.14 -2.31,2.16 c -2.14,0.22 -3.81,1.21 -5.02,2.97 c -2.32,-0.21 -7.33,3.82 -9.7,4.79 c -0.63,0.33 -1.09,0.81 -1.38,1.45 c -0.6,-0.06 -1.15,0.08 -1.65,0.41 c -9.12,5.24 -18.19,10.6 -27.22,16.06 c -2.21,0.13 0.76,-10.63 1.22,-11.93 c 0.65,0.16 1.23,0.02 1.75,-0.42 c 20.05,-12.6 40.15,-25.12 60.29,-37.56 Z M 214.9,397.23 c -1.34,-0.35 -2.62,-0.86 -3.84,-1.54 c 0.45,-0.53 0.96,-0.99 1.54,-1.37 c 7.74,-4.6 16.56,-9.55 24.3,-14.15 c 1.66,-1.06 2.78,0.55 1.28,1.4 c -3.63,2.11 -22.55,12.76 -23.28,15.66 Z M 244.84,403.42 c -1.64,-0.19 -3.27,-0.43 -4.9,-0.73 c 10.69,-6.72 22.39,-12.36 32.95,-19.56 c 0.74,-0.48 1.37,-0.39 1.89,0.28 c 0.06,1.31 -6.92,4.88 -8.27,5.58 c -7.19,4.88 -14.41,9.69 -21.67,14.43 Z M 283.91,436.24 c -1.71,1.3 -3.37,2.69 -4.98,4.17 c -0.44,0.42 -0.73,0.93 -0.87,1.52 c -1.28,0.04 -2.21,0.62 -2.79,1.75 c 0.57,1.37 2.53,-1.03 2.79,-1.75 c 1.16,0.55 2.71,-1.18 3.98,-1.29 c -1.52,6.36 -5.66,15.33 -8.38,21.53 c -2.61,6.88 -10.36,31.38 -14.59,35.3 c -2.89,1.78 -7.18,-4.59 -8.46,-6.57 c 1.73,-2.03 3.4,-4.11 5.01,-6.22 c -1.36,-0.96 -4.85,2.05 -6.25,2.62 c -2.3,-0.79 -4.05,-7.33 -5.1,-9.48 c 0.68,-0.29 1.3,-0.69 1.85,-1.19 c 4.1,-4.08 8.26,-8.07 12.48,-11.96 c -0.21,-0.33 -0.51,-0.44 -0.9,-0.34 c -5.16,2.92 -10.29,5.92 -15.37,9.01 c -1.43,-3.05 -2.66,-6.17 -3.69,-9.37 c 6.33,-5.53 12.68,-10.98 19.06,-16.35 c -0.23,-0.35 -0.55,-0.46 -0.96,-0.32 c -5.7,3.29 -11.41,6.58 -17.15,9.86 c -0.52,0.34 -0.97,0.76 -1.35,1.27 c -0.39,-0.04 -0.78,-0.08 -1.18,-0.12 c -1.59,-1.04 -6.44,-16.44 -7.4,-19.31 c 4.07,-0.95 31.2,-20.24 36.89,-23.98 c 0.29,-0.4 0.44,-0.85 0.45,-1.34 c 0.42,-0.45 0.73,-0.97 0.94,-1.54 c 8.96,-1.22 17.83,-2.88 26.61,-4.98 c 0.47,-0.07 0.85,0.05 1.15,0.39 c -3.61,9.69 -7.54,19.25 -11.79,28.69 Z M 237.64,446.3 c 0.65,-0.17 4.33,-1.18 2.89,-2.26 c -1.47,0.1 -2.44,0.85 -2.89,2.26 Z"/><path fill="none" stroke="#e59900" stroke-width="0.5" stroke-opacity="0.992" d="M 266.72,32.25 c -0.57,-0.1 -1.06,0.06 -1.47,0.48 c -3.46,3.55 -6.93,7.09 -10.41,10.63 c -0.57,0.45 -0.62,0.94 -0.16,1.45 c 1.07,0.2 13.41,-6.99 14.01,-8.13 c 1.64,3.3 3.03,6.71 4.16,10.23 c -0.66,0.1 -1.26,0.37 -1.78,0.8 c -6.24,5.59 -12.48,11.14 -18.73,16.64 c 0.5,0.37 1.05,0.42 1.63,0.16 c 6.3,-4.58 14.97,-7.93 20.73,-12.8 c 2.36,6.46 4.71,12.93 7.05,19.4 c -4.92,0.11 -41.74,23.22 -48.89,27.35 c -0.63,0.4 -1.02,0.96 -1.17,1.69 c -0.58,0.36 -1.19,0.73 -1.83,1.09 c -0.06,0.19 -0.13,0.38 -0.19,0.57 c -0.81,0.42 -1.67,0.61 -2.58,0.57 c -0.36,-0.1 -0.61,0.01 -0.75,0.34 c -2.94,0.82 -5.9,1.56 -8.88,2.23 c -0.8,0.09 -1.19,-0.25 -1.16,-1.02 c 4.07,-10.5 8.41,-20.89 12.99,-31.18 c 1.18,-0.37 2.21,-1.03 3.09,-1.96 c 1.71,-1.35 3.2,-2.9 4.47,-4.66 c 0.53,-0.48 3.47,-0.87 2.64,-1.99 c -1.33,0.04 -2.21,0.71 -2.64,1.99 c -1.38,-0.67 -2.36,1.11 -3.39,1.65 c -1.04,0.23 -2,0.65 -2.86,1.27 c 2.82,-7.97 5.96,-15.82 9.4,-23.55 c 3.36,-8.4 8.51,-23.58 11.98,-30.92 c 5.18,-5.12 13.44,14.42 14.74,17.67 Z M 274.74,64.01 c 0.51,-0.04 0.92,-0.26 1.23,-0.67 c -0.59,-0.19 -1,0.03 -1.23,0.67 Z M 281.9,74.2 c 0.72,-0.09 1.18,0.23 1.38,0.94 c 1.75,5.26 3.58,10.49 5.47,15.7 c -2.6,2.61 -6.65,4.78 -9.82,6.73 c -0.5,0.32 -0.71,0.78 -0.64,1.36 c -0.42,0.5 -0.86,0.97 -1.32,1.43 c -13.37,-0.73 -26.74,-0.56 -40.08,0.51 c 0.11,-0.27 0.23,-0.54 0.35,-0.81 c 14.94,-8.52 29.83,-17.14 44.66,-25.86 Z M 424.26,82.86 c -0.83,-0.12 -1.61,-0.01 -2.37,0.35 c -23.08,14.68 -46.17,29.36 -69.25,44.03 c -0.69,0.38 -1.23,0.9 -1.64,1.57 c -3.05,-2.15 -9.07,-5.5 -11.4,-8.01 c 3.75,-2.64 28.02,-15.6 29.2,-17.51 c 1.47,-0.89 2.97,-1.75 4.49,-2.56 c 0.77,0.32 1.34,0.1 1.7,-0.65 c 0.79,-0.05 1.46,-0.35 2.02,-0.9 c 14.23,-6.44 28.56,-12.68 42.97,-18.71 c 1.58,-0.98 3.15,1.63 4.28,2.39 Z M 92.24,85.14 c -0.66,1.48 -1.15,3.01 -1.48,4.59 c 0.18,0.16 0.35,0.33 0.53,0.5 c 1.91,-0.56 5.33,-2.41 6.55,-3.95 c 2.58,0.66 11.17,2.92 12.54,4.89 c -2.36,3.19 -4.57,6.48 -6.61,9.9 c -0.26,0.66 -1.04,1.2 -0.21,1.76 c 4.57,-2.31 9.05,-4.79 13.46,-7.43 c 0.46,-0.26 0.71,-0.65 0.73,-1.17 c 3.17,0.33 8.65,3.39 11.67,4.83 c -3.03,3.06 -6.95,6.81 -9.18,10.41 c 0.54,0.49 1.13,0.56 1.79,0.21 c 2.83,-2 11.01,-5.79 12.88,-8.01 c 7.2,3.45 14.38,6.95 21.55,10.48 c -1.62,1.82 -6.52,4.69 -7.31,6.71 c -1.26,0.16 -2.25,0.76 -2.95,1.78 c 0.87,1.21 2.61,-0.94 2.95,-1.78 c 2.72,-0.49 7.48,-3.56 9.82,-5.24 c 3.81,1.49 7.59,3.09 11.32,4.79 c -0.62,0.46 -1.28,0.88 -1.98,1.25 c -5.39,4.56 -10.73,9.12 -16.04,13.7 c 0.54,0.38 1.09,0.39 1.66,0.02 c 3.98,-2.27 7.93,-4.59 11.85,-6.95 c 0.63,-0.36 1.3,-0.6 2.02,-0.73 c 0.03,0.74 -0.27,1.31 -0.88,1.71 c -12.52,7.66 -24.14,18.98 -34.23,29.58 c -0.62,-0.07 -1.17,0.1 -1.65,0.49 c -0.82,1.09 -1.85,1.92 -3.08,2.47 c -0.06,-0.8 -0.49,-1.09 -1.27,-0.87 c -1.67,0.92 -8.9,4.58 -9.58,5.81 c -0.41,-0.03 -0.74,-0.21 -0.98,-0.55 c -1.22,-2.79 -2.39,-5.6 -3.5,-8.44 c 5.07,-4.44 10.11,-8.86 15.13,-13.26 c -0.59,-0.25 -1.17,-0.2 -1.73,0.17 c -4.92,2.86 -9.86,5.68 -14.81,8.48 c -2,-2.08 -11.61,-25.77 -13.54,-30.28 c 2.54,-2.95 5.19,-5.8 7.94,-8.55 c -1.11,-0.36 -1.9,0 -2.38,1.1 c -2.43,1.11 -4.78,2.38 -7.06,3.8 c -1.78,-3.85 -4.73,-9.48 -5.37,-13.58 c 0.58,0.1 1.09,-0.06 1.52,-0.46 c 0.28,-0.39 0.54,-0.79 0.8,-1.19 c 0.34,-0.55 0.61,-1.14 0.79,-1.76 c 0.7,-0.61 1.15,-1.33 1.33,-2.15 c -1.07,0.13 -1.75,0.72 -2.06,1.76 c -0.45,0.02 -0.89,0.04 -1.34,0.06 c -0.38,0.28 -0.75,0.58 -1.1,0.9 c -0.44,0.23 -0.67,0.59 -0.69,1.1 c -0.58,-0.29 -1,-0.73 -1.27,-1.32 c -3.56,-6.27 -9.13,-16.88 3.45,-15.58 Z M 425.06,91.06 c 0.24,-0.01 0.48,-0.02 0.73,-0.03 c 0.75,3.72 -0.65,8.68 -2.06,12.17 c -0.71,-0.17 -1.37,-0.05 -1.98,0.37 c -18.4,11.84 -36.86,23.61 -55.36,35.3 c -0.52,0.26 -0.87,0.67 -1.04,1.22 c -1.87,-0.48 -8.45,-6.95 -10.64,-8.39 c 23.42,-13.55 46.87,-27.1 70.35,-40.64 Z M 272.03,108.01 c 1.38,0.1 2.73,0.38 4.05,0.82 c -0.81,1.99 -19,11.31 -22,13.99 c -1.37,0.92 -2.88,-0.33 -1.18,-1.28 c 5.96,-3.68 11.9,-7.38 17.82,-11.11 c 0.86,-0.58 1.29,-1.39 1.31,-2.42 Z M 289.25,111.42 c 2.35,0.64 4.68,1.29 7.01,1.97 c -1.74,1.43 -3.61,2.69 -5.59,3.77 c -16.99,9.69 -33.85,19.58 -50.59,29.65 c -1.43,0.99 -3.08,-0.35 -1.27,-1.31 c 15.2,-9.78 30.3,-19.72 45.3,-29.81 c 1.98,-1.12 3.69,-2.54 5.14,-4.27 Z M 419.35,114.05 c 0.15,-0.02 0.3,-0.05 0.44,-0.07 c -1.81,4.79 -3.76,9.52 -5.85,14.19 c -0.73,0.04 -0.98,0.42 -0.73,1.17 c -0.74,-0.48 -1.51,-0.54 -2.32,-0.19 c -11.71,7.28 -23.34,14.67 -34.9,22.18 c -1.75,-1.68 -7.39,-6.69 -7.97,-8.69 c 0.69,0.16 1.35,0.06 1.96,-0.3 c 16.37,-9.61 32.82,-19.04 49.37,-28.29 Z M 307.03,117.09 c 0.75,0.26 1.39,0.67 1.94,1.25 c -0.04,0.51 -0.24,0.95 -0.59,1.31 c -1.83,1.33 -3.73,2.57 -5.7,3.71 c -3.28,1.68 -6.47,3.49 -9.58,5.43 c -1.7,0.99 -3.05,-0.42 -1.28,-1.37 c 2.87,-1.99 14.16,-7.48 15.21,-10.33 Z M 319.22,122.42 c 1.01,0.75 5.79,2.26 5.59,3.68 c -0.75,-0.08 -1.42,0.11 -2.02,0.57 c -3.35,2.19 -6.75,4.33 -10.2,6.4 c -0.21,0.2 -0.34,0.45 -0.39,0.73 c -0.56,0.69 -1.21,1.29 -1.93,1.81 c -5.58,3.52 -11.22,5.52 -16.17,9.87 c -14.74,8.29 -29.61,16.3 -44.04,25.26 c -0.76,0.45 -1.45,0.38 -2.05,-0.22 c 0.09,-0.5 0.37,-0.86 0.83,-1.08 c 22.33,-14.32 44.55,-28.81 66.66,-43.45 c 1.65,-0.79 2.89,-1.98 3.72,-3.57 Z M 334.25,130.77 c 0.97,0.79 5.62,3.11 5.56,4.31 c -1.57,1.31 -3.19,2.55 -4.86,3.69 c -1.43,0.33 -2.5,1.13 -3.21,2.41 c -0.76,-0.2 -1.34,0.05 -1.74,0.75 c -6.56,3.04 -11.73,6.93 -17.42,11.05 c -19.47,10.73 -38.79,21.74 -57.94,33.04 c -0.89,0.56 -1.74,1.17 -2.55,1.85 c -0.91,0.58 -2.42,0.51 -1.82,-0.96 c 27.77,-17.9 55.47,-35.92 83.08,-54.07 c 0.65,-0.54 0.95,-1.22 0.9,-2.07 Z M 410.37,133.84 c 0.1,0.08 0.21,0.16 0.32,0.25 c -2.18,4.75 -4.48,9.45 -6.89,14.1 c -0.4,0.1 -0.73,0.3 -0.99,0.63 c -3.3,1.9 -6.58,3.82 -9.86,5.77 c -0.53,0.35 -0.79,0.84 -0.78,1.49 c -0.81,1.45 -5.04,3.92 -6.65,3.29 c -0.45,0.52 -0.88,1.07 -1.28,1.64 c -2.3,-1.96 -5.38,-5.51 -6.55,-8.25 c 10.92,-6.31 21.81,-12.61 32.68,-18.92 Z M 108.64,138.97 c 1.82,1.5 5.11,-1.06 3.94,-2.09 c -1.46,0.4 -2.77,1.1 -3.94,2.09 Z M 348.32,140.73 c 2.35,1.96 4.67,3.96 6.96,6.01 c -31.2,16.37 -63.93,35.91 -94.22,54.03 c -0.83,0.61 -2.63,0.37 -1.74,-0.83 c 28.44,-18.16 56.77,-36.51 84.99,-55.04 c 1.35,-1.14 4.18,-2.04 4.01,-4.17 Z M 361.37,152.61 c 0.98,1.01 1.96,2.02 2.94,3.04 c -1.43,0.48 -2.78,1.12 -4.06,1.92 c -17.69,10.39 -35.89,20.34 -53.15,31.25 c -0.83,0.63 -2.62,0.3 -1.75,-0.86 c 0.63,-0.47 1.27,-0.92 1.91,-1.36 c 18.21,-11.05 36.24,-22.38 54.11,-33.99 Z M 369.74,161.77 c 0.51,0.66 1.04,1.31 1.57,1.96 c -8.5,4.89 -16.9,9.94 -25.19,15.15 c -1.36,0.94 -2.93,-0.37 -1.25,-1.35 c 4.58,-3.04 22.17,-12.5 24.87,-15.76 Z M 394,168.69 c 0.06,1.84 -0.44,3.52 -1.49,5.02 c -1.09,-1.15 -1.8,-2.49 -2.13,-4.03 c 1.11,0.81 2.58,-0.64 3.62,-0.99 Z M 376.62,170.75 c 0.7,0.99 1.37,1.99 2.02,3.02 c -15.66,8.52 -31.39,17.76 -46.52,27.12 c -1.33,0.93 -3.02,-0.42 -1.28,-1.39 c 15.43,-9.19 30.79,-18.75 45.78,-28.75 Z M 114.21,217.05 c 0.43,-1.75 0.89,-3.5 1.41,-5.23 c 1.1,-0.33 2.15,-0.79 3.15,-1.36 c 13.62,-8.01 27.94,-15.79 41.12,-24.34 c 1.3,-0.94 2.7,0.33 1.19,1.32 c -15.13,9.29 -29.96,19.37 -44.8,29.27 c -0.67,0.22 -1.43,1.17 -2.07,0.34 Z M 388,189.97 c 0.36,0.65 0.72,1.3 1.07,1.95 c -14.15,8.02 -28.16,16.26 -42.02,24.74 c -0.75,0.45 -1.44,0.4 -2.06,-0.16 c 0.5,-0.9 1.24,-1.57 2.2,-2.02 c 12.14,-6.97 23.83,-14.5 35.35,-22.47 c 1.61,-1.26 3.43,-1.94 5.46,-2.04 Z M 111.1,248.76 c -0.46,0.14 -0.91,0.28 -1.37,0.42 c -0.16,-0.06 -0.32,-0.11 -0.48,-0.16 c -0.24,-2.08 -0.19,-4.16 0.17,-6.23 c 0.64,0.74 1.37,0.83 2.18,0.28 c 22.18,-12.76 44.66,-25.26 66.34,-38.82 c 1.64,-1.04 2.78,0.41 1.23,1.31 c -17.99,10.91 -35.86,22.84 -53.06,34.89 c -5.96,1.4 -8.71,6.9 -15.01,8.31 Z M 97.15,241.1 c -0.53,0.16 -0.94,0.47 -1.26,0.92 c -0.65,0.14 -1.27,0.37 -1.86,0.69 c -16.66,9.67 -33.33,19.31 -50.03,28.9 c -0.44,0.29 -0.73,0.69 -0.88,1.2 c -7.27,-2.57 -26.27,-9.68 -27.54,-18.48 c 0.69,-6.94 10.25,-7.85 15.41,-10.2 c -0.05,0.25 -0.11,0.49 -0.16,0.74 c -0.65,0.74 -1.18,1.55 -1.59,2.42 c 0.13,0.4 0.4,0.53 0.8,0.37 c 3.68,-2.39 7.41,-4.68 11.2,-6.86 c 0.31,-0.17 0.47,-0.42 0.49,-0.76 c 0.84,-0.33 1.62,-0.77 2.36,-1.3 c 0.78,0.25 1.42,0.04 1.91,-0.6 c 17.04,-7.13 35.96,-15.2 53.24,-21.11 c -0.55,0.55 -1.99,1.29 -0.84,2.04 c 1.73,0.06 2.96,-1.58 0.84,-2.04 c -0.19,-0.84 3.06,-2.54 2.56,0.5 c -1.81,7.81 -3.36,15.67 -4.65,23.57 Z M 415.87,219.18 c -1.5,0.68 -2.69,1.71 -3.55,3.09 c -0.41,-1.27 -0.79,-2.54 -1.16,-3.83 c -0.76,-2.58 4.45,-0.29 4.71,0.74 Z M 420.87,220.76 c 2.11,0.78 9.59,2.78 10.47,4.62 c -5.55,3.1 -10.96,6.43 -16.23,10 c -1.4,-1.04 -1.77,-8.42 -2.31,-10.46 c 2.42,0.29 6.29,-2.57 8.07,-4.16 Z M 399.38,221.79 c 0.61,2.28 1.06,4.58 1.35,6.92 c -1.91,0.66 -3.48,1.76 -4.73,3.3 c -1.89,-0.23 -2.99,1.27 -4.54,2.08 c -0.26,0.27 -0.39,0.59 -0.41,0.96 c -0.92,-0.13 -1.63,0.19 -2.12,0.97 c -0.53,0.12 -0.83,0.45 -0.89,1 c -0.94,0.18 -1.83,0.5 -2.67,0.96 c -25.34,16.77 -55.35,31.07 -81.27,47.92 c -0.92,0.58 -2.4,0.47 -1.8,-0.98 c 32.37,-21.02 64.73,-42.06 97.08,-63.13 Z M 433.95,225.66 c 1.92,0.96 9.27,2.93 10.17,4.46 c -0.11,0.32 -0.22,0.63 -0.33,0.95 c -8.99,5.53 -17.85,11.27 -26.57,17.21 c -0.44,-0.01 -0.88,-0.02 -1.31,-0.03 c -1.03,-2.68 -0.96,-8.49 -0.92,-11.51 c 0.71,0.06 1.37,-0.08 2,-0.41 c 5.04,-2.94 10.09,-5.85 15.16,-8.75 c 0.55,-0.69 1.15,-1.33 1.8,-1.92 Z M 119.85,227.08 c -0.16,0.31 -0.42,0.5 -0.78,0.55 c 0.23,-0.23 0.5,-0.41 0.78,-0.55 Z M 111.49,228.78 c 0.69,1.96 2.41,0.53 3.72,0.37 c 0.02,0.27 0.04,0.55 0.07,0.82 c -0.96,2.21 -2.67,1.7 -4.29,3.06 c -0.03,-1.44 0.14,-2.85 0.5,-4.25 Z M 158.83,255.07 c -0.8,-0.11 -1.43,0.18 -1.87,0.86 c -1.31,0.18 -2.31,0.84 -2.99,1.97 c -1.69,0.62 -8.29,4.18 -9.02,5.24 c -1.81,-0.05 -8.37,4.87 -10.63,5.62 c -5.06,3.28 -19.64,10.75 -23.29,13.99 c -1.21,0.18 -0.92,-3 -1.11,-3.72 c 0.95,-0.14 1.83,-0.45 2.65,-0.94 c 27.26,-16 55.5,-31.47 82.28,-48.05 c 1.73,-1.09 2.78,0.68 1.25,1.41 c -9.32,5.5 -18.33,11.46 -27.03,17.89 c -2.48,1.83 -8.9,3.16 -10.24,5.73 Z M 451.92,232.62 c 7.46,2.83 14.83,5.86 22.12,9.1 c -0.73,0.2 -1.42,0.49 -2.07,0.87 c -7.73,4.88 -15.47,9.73 -23.22,14.52 c -4.42,2.63 -8.8,5.33 -13.13,8.1 c -0.73,0.4 -1.26,0.97 -1.61,1.71 c -1.06,-0.2 -1.74,0.18 -2.04,1.15 c -1.36,0.06 -2.36,0.68 -3.01,1.87 c -0.77,-0.09 -1.37,0.17 -1.81,0.78 c 0.58,0.93 1.85,0.05 1.81,-0.78 c 1.37,-0.01 2.38,-0.63 3.01,-1.87 c 1.02,0.16 1.71,-0.22 2.04,-1.15 c 0.71,0.02 1.38,-0.14 2,-0.5 c 4.72,-2.65 9.4,-5.35 14.05,-8.09 c 8.12,-4.87 16.3,-9.63 24.55,-14.28 c 0.54,-0.33 0.99,-0.77 1.34,-1.3 c 3.18,0.62 6.73,2.81 9.63,4.29 c 0.29,0.33 0.38,0.71 0.29,1.14 c -0.67,-0.03 -1.28,0.13 -1.84,0.5 c -22,13.7 -43.83,28.03 -65.94,41.31 c -1.98,1.45 -4.06,2.74 -6.23,3.89 c -0.61,0.36 -1.16,0.81 -1.65,1.33 c 3.42,-13.9 4.91,-27.21 5.94,-41.47 c 2.26,-0.88 33.41,-18.17 35.77,-21.12 Z M 456.8,241.23 c 1.2,-0.09 4.54,-1.8 5.02,-2.84 c -0.96,-1.28 -4.96,1.88 -5.02,2.84 Z M 96.82,243.76 c 0.13,4.47 0.07,8.94 -0.18,13.42 c -2.67,0.05 -31.09,17.52 -35.82,20.23 c -0.64,0.51 -0.92,1.18 -0.81,2 c -1.84,-1.03 -10.54,-2.89 -11.12,-4.61 c 0.13,-0.28 0.26,-0.55 0.38,-0.82 c 15.91,-9.98 31.76,-20.05 47.55,-30.22 Z M 47.04,258.98 c -1.61,-0.2 -2.65,0.46 -3.11,1.96 c -0.98,-0.22 -1.62,0.12 -1.93,1.02 c -1.71,-0.01 -3.97,1.44 -4.99,2.72 c 0.81,1.3 4.5,-1.59 4.99,-2.72 c 1.02,0.26 1.66,-0.08 1.93,-1.02 c 1.33,-0.22 2.36,-0.88 3.11,-1.96 c 1.34,0.16 4.43,-1.44 5.02,-2.62 c -0.78,-1.27 -4.93,1.68 -5.02,2.62 Z M 96.63,258.68 c 0.22,4.21 0.3,8.41 0.22,12.61 c -1.6,-0.27 -17.7,10.03 -20.59,11.3 c -0.67,0.32 -1.01,0.85 -1.03,1.58 c -3.53,-0.15 -7.36,-2.29 -10.8,-3.18 c -0.68,-0.05 -1.09,-0.39 -1.24,-1.01 c 10.71,-6.51 23.37,-14.11 33.44,-21.3 Z M 114.26,299.97 c -0.46,-1.64 -0.9,-3.29 -1.32,-4.94 c 4.55,-0.09 40.32,-22.45 47.09,-26.35 c 2.33,-1.43 4.62,-2.92 6.89,-4.48 c 1.64,-1.04 2.77,0.48 1.25,1.35 c -17.96,11.03 -36.77,22.15 -53.91,34.42 Z M 402.35,268.09 c -0.15,2.69 -0.49,5.35 -1.04,7.99 c -0.44,-0.01 -0.87,0.09 -1.27,0.28 c -18.8,10.92 -37.63,21.8 -56.48,32.64 c -4.78,2.96 -10.01,5.47 -14.45,8.87 c -1.68,1.03 -2.82,-0.51 -1.27,-1.41 c 24.06,-15.02 48.42,-31.98 72.23,-47.66 c 0.71,-0.4 1.47,-0.63 2.28,-0.71 Z M 97.7,278.77 c 0.83,3.45 1.51,6.93 2.03,10.44 c -1.59,0.26 -4.01,1.14 -3.68,3.17 c -3.52,-1.5 -7.09,-2.9 -10.7,-4.21 c -0.56,-0.18 -1.03,-0.49 -1.41,-0.93 c 3.11,-0.87 10.85,-6.22 13.76,-8.47 Z M 399.18,288.06 c -0.1,0.95 -0.23,1.9 -0.41,2.84 c -4.23,1.2 -11.55,6.5 -15.68,8.94 c -1.6,0.98 -2.72,-0.59 -1.26,-1.38 c 5.8,-3.45 11.58,-6.91 17.35,-10.4 Z M 122.52,321.22 c -0.47,-1.08 -0.95,-2.16 -1.43,-3.24 c 1.04,-0.33 2.03,-0.77 2.98,-1.33 c 14.95,-8.77 30.29,-17.22 44.85,-26.44 c 1.68,-1.06 2.85,0.46 1.26,1.34 c -16.08,9.57 -31.96,19.46 -47.66,29.67 Z M 117.72,310.07 c -0.27,-0.66 -0.54,-1.33 -0.78,-2 c 8.51,-4.66 16.84,-9.62 24.97,-14.87 c 1.68,-1.03 2.86,0.47 1.25,1.33 c -8.51,5.13 -16.99,10.31 -25.44,15.54 Z M 168.88,362.02 c -0.8,-0.05 -1.43,0.24 -1.9,0.88 c -1.29,0.28 -2.32,0.95 -3.08,2.03 c -1.61,0.65 -3.21,1.35 -4.79,2.09 c -1.94,-1.39 -3.77,-2.93 -5.48,-4.6 c 34.63,-19.14 70.77,-40.32 105.01,-60.52 c 1.97,-0.35 1.06,1.55 -0.09,2.09 c -26.62,16.7 -53.09,34.17 -79.05,51.91 c -2.82,2.09 -8.49,3.61 -10.62,6.12 Z M 133.12,338.95 c -0.75,-0.95 -1.46,-1.92 -2.14,-2.92 c 1.07,0.18 2.1,0.06 3.08,-0.38 c 14.28,-8.53 28.87,-16.47 42.88,-25.35 c 1.6,-1 2.84,0.47 1.27,1.29 c -14.07,8.38 -28.21,17.05 -41.98,26.02 c -0.98,0.58 -2.02,1.03 -3.11,1.34 Z M 141.73,350.22 c -0.67,-0.66 -1.13,-1.44 -1.38,-2.35 c 4.25,-2.62 8.4,-5.37 12.45,-8.25 c 0.39,-0.03 0.76,-0.13 1.12,-0.3 c 1.41,-1.41 8.71,-4.96 9.08,-6.27 c 2.24,-0.1 2.27,-1.41 3.65,-2.74 c 1.07,-0.53 2.04,-1.19 2.92,-1.99 c 4.94,-0.07 8.66,-6.16 13.36,-7.96 c 4.71,-2.25 9.3,-4.72 13.77,-7.41 c 1.42,-0.59 1.58,0.85 0.47,1.52 c -18.09,11.32 -36.14,22.72 -54.16,34.19 c -0.54,0.42 -0.97,0.94 -1.28,1.56 Z M 173.83,378.1 c -1.7,-1.14 -3.4,-2.3 -5.07,-3.48 c 0.32,-0.72 0.78,-1.33 1.38,-1.84 c 26.58,-15.47 53.7,-30.45 79.78,-46.56 c 1.62,-1.01 2.78,0.51 1.25,1.33 c -25.76,15.64 -50.79,32.73 -76.26,48.97 c -0.56,0.39 -0.92,0.92 -1.08,1.58 Z M 198.87,390.99 c -2.48,-0.63 -4.84,-1.58 -7.07,-2.83 c 29.14,-16.82 58.19,-33.79 87.14,-50.93 c 0.67,-0.41 1.3,-0.4 1.88,0.06 c -0.45,0.9 -1.1,1.61 -1.97,2.14 c -22.6,14.6 -45.05,29.42 -67.37,44.46 c -1.62,0.88 -3.3,1.63 -5.05,2.24 c -4.46,0.22 -5.28,1.7 -7.56,4.86 Z M 381.23,337.16 c -2.03,3.79 -4.26,7.47 -6.69,11.03 c -0.68,-0.8 -1.44,-0.89 -2.3,-0.25 c -5.9,3.53 -12.71,6.85 -18.12,11 c -0.85,0.67 -2.42,0.16 -1.67,-0.98 c 9.84,-6.39 19.44,-13.82 28.78,-20.8 Z M 393.39,342.02 c -2.24,-0.43 -4.65,1.79 -6.13,3.26 c -0.34,-0.04 -0.68,-0.07 -1.02,-0.1 c 0.41,-1.82 3.2,-5.53 4.47,-7.09 c 1.65,-0.61 2.05,3.01 2.68,3.93 Z M 121,342.14 c 1.08,-0.03 5.12,7 6.24,8.01 c -5.48,2.75 -10.87,5.78 -16.16,9.08 c 0.64,-3.55 4.59,-10.61 5.96,-14.4 c 0.54,-0.15 0.89,-0.5 1.05,-1.04 c 1.23,-0.08 2.2,-0.63 2.91,-1.65 Z M 394.68,346.74 c 1.8,0.59 3.66,7.41 4.7,9.19 c -3.39,2.18 -8.9,6.95 -11.85,10 c -0.91,0.42 -1.77,0.93 -2.57,1.53 c -0.92,0.79 -0.8,1.19 0.35,1.21 c 0.46,-0.11 0.89,-0.3 1.29,-0.56 c 4.81,-2.69 9.53,-5.52 14.15,-8.49 c 2.57,5.68 7.09,14.79 8.37,20.59 c -1.78,0.42 -3.95,2.99 -4.98,4.46 c -0.62,0.72 -2.69,0.69 -2.76,1.73 c 0.47,0.46 1.01,0.56 1.63,0.29 c 2.17,-1.72 4.49,-3.23 6.95,-4.51 c 0.64,0.13 1.05,0.52 1.23,1.16 c 1.62,3.5 3.01,7.08 4.16,10.76 c -0.81,-0.13 -1.49,0.1 -2.06,0.68 c -2.1,2.47 -4.09,5.01 -5.97,7.62 c 1.51,0.66 7.69,-4 9.51,-4.7 c 2.64,6.23 13.81,25.45 10.09,31.45 c -0.38,0 -0.57,0.18 -0.57,0.55 c -3.16,1.51 -24.57,-8.44 -25.69,-9.99 c 1.48,-1.26 2.8,-2.66 3.97,-4.22 c -0.94,-0.31 -4.3,1.64 -5.33,2.16 c -0.64,0.28 -0.99,0.76 -1.04,1.44 c -2.01,-0.35 -10.77,-3.63 -11.62,-5.36 c 3.3,-3.89 6.55,-7.81 9.76,-11.77 c 0.49,-0.53 0.53,-1.07 0.12,-1.61 c -5.63,2.36 -11.15,6.26 -16.61,9.16 c -0.53,0.35 -0.88,0.83 -1.05,1.44 c -2.53,-0.86 -9.87,-3.34 -11.25,-5.26 c 3.57,-2.81 6.94,-5.82 10.11,-9.03 c -0.3,-0.22 -0.63,-0.27 -1,-0.13 c -4.64,2.41 -9.18,4.99 -13.63,7.75 c -3.52,-1.28 -6.96,-2.76 -10.31,-4.43 c 0.76,-0.55 1.11,-2.27 2.29,-1.8 c 1.34,-0.7 2.29,-1.75 2.85,-3.14 c 0.58,-0.12 3.94,-0.72 2.57,-1.77 c -1.2,0.08 -2.06,0.67 -2.57,1.77 c -1.51,0.31 -2.88,0.92 -4.12,1.85 c -0.95,0.58 -1.85,1.24 -2.68,1.97 c -1.76,0.05 -10.47,-3.41 -10.94,-4.83 c 0.54,-0.1 1.02,-0.34 1.43,-0.71 c 5.77,-4.79 11.45,-9.66 17.05,-14.62 c -0.86,-0.89 -2.39,1.29 -3.63,1.14 c -2.71,1.35 -5.32,2.88 -7.83,4.59 c -0.1,-0.33 -0.2,-0.66 -0.3,-0.99 c 10.02,-7.31 22.52,-18.16 30.32,-27.58 c 0.97,0.23 1.9,0.11 2.79,-0.35 c 2.3,-1.69 11.59,-6.37 14.67,-8.64 Z M 129.21,355.06 c 0.15,-0.14 0.31,-0.29 0.46,-0.43 c 2.49,0.68 6.03,6.57 8.46,8.24 c -0.97,0.19 -1.92,0.46 -2.84,0.81 c -11.78,6.74 -23.47,13.6 -35.09,20.59 c -0.35,-0.07 -0.7,-0.14 -1.05,-0.21 c 1.61,-5.09 4.67,-10.51 7.12,-15.26 c 0.6,0.23 1.18,0.19 1.74,-0.14 c 7.04,-4.57 14.11,-9.1 21.2,-13.6 Z M 139.28,365.98 c 0.24,-0.07 0.48,-0.15 0.72,-0.22 c 2.36,1.03 7.02,6.1 9.16,8.06 c -3.61,0.6 -7.59,4.33 -11.15,5.65 c -16.44,9.47 -32.82,19 -49.15,28.58 c 1.69,-5.17 3.72,-10.21 6.07,-15.11 c 2.2,0.22 39.19,-23.78 44.35,-26.96 Z M 400.87,372.29 c 1.17,0 1.92,-0.53 2.25,-1.61 c -1.19,-0.15 -1.94,0.38 -2.25,1.61 Z M 278,403.85 c -5,0.32 -10.01,0.49 -15.02,0.49 c 0.3,-0.9 0.88,-1.55 1.73,-1.97 c 14.62,-8.42 29.25,-16.84 43.87,-25.26 c 3.43,-1.98 6.78,-4.08 10.04,-6.29 c 1.23,0.23 1.38,0.77 0.45,1.6 c -13.93,9.74 -27.8,19.57 -41.6,29.5 c -0.24,0.73 -0.07,1.38 0.53,1.93 Z M 149.33,374.8 c 0.18,-0.03 0.36,-0.05 0.53,-0.08 c 2.3,1.65 19.86,13.61 20.15,14.48 c -4.88,2.1 -33.46,18.85 -40.23,23.06 c -1.29,0.26 -3.65,1.22 -3.67,2.76 c -0.97,-0.27 -1.58,0.04 -1.82,0.96 c -7.8,2.22 -28.23,13.89 -35.11,13.26 c -1.54,-0.07 -2.5,-0.84 -2.86,-2.32 c 9.37,-5.72 18.74,-11.41 28.12,-17.08 c 0.48,-0.35 0.89,-0.76 1.26,-1.22 c 0.68,-0.11 1.34,-0.3 1.97,-0.59 c 2.02,-1.77 7.21,-3.76 8.35,-6.03 c 1.96,0.08 4,-1.35 5.02,-2.97 c 1.57,0 6.29,-2.71 6.96,-3.98 c 1.39,-0.11 2.37,-0.8 2.95,-2.05 c 0.78,0.12 1.42,-0.11 1.94,-0.7 c -0.58,-0.89 -1.76,-0.03 -1.94,0.7 c -1.46,0.03 -2.44,0.71 -2.95,2.05 c -1.63,-0.52 -3.07,1.43 -4.65,1.82 c -1.06,0.42 -1.83,1.14 -2.31,2.16 c -2.14,0.22 -3.81,1.21 -5.02,2.97 c -2.32,-0.21 -7.33,3.82 -9.7,4.79 c -0.63,0.33 -1.09,0.81 -1.38,1.45 c -0.6,-0.06 -1.15,0.08 -1.65,0.41 c -9.12,5.24 -18.19,10.6 -27.22,16.06 c -2.21,0.13 0.76,-10.63 1.22,-11.93 c 0.65,0.16 1.23,0.02 1.75,-0.42 c 20.05,-12.6 40.15,-25.12 60.29,-37.56 Z M 214.9,397.23 c -1.34,-0.35 -2.62,-0.86 -3.84,-1.54 c 0.45,-0.53 0.96,-0.99 1.54,-1.37 c 7.74,-4.6 16.56,-9.55 24.3,-14.15 c 1.66,-1.06 2.78,0.55 1.28,1.4 c -3.63,2.11 -22.55,12.76 -23.28,15.66 Z M 244.84,403.42 c -1.64,-0.19 -3.27,-0.43 -4.9,-0.73 c 10.69,-6.72 22.39,-12.36 32.95,-19.56 c 0.74,-0.48 1.37,-0.39 1.89,0.28 c 0.06,1.31 -6.92,4.88 -8.27,5.58 c -7.19,4.88 -14.41,9.69 -21.67,14.43 Z M 283.91,436.24 c -1.71,1.3 -3.37,2.69 -4.98,4.17 c -0.44,0.42 -0.73,0.93 -0.87,1.52 c -1.28,0.04 -2.21,0.62 -2.79,1.75 c 0.57,1.37 2.53,-1.03 2.79,-1.75 c 1.16,0.55 2.71,-1.18 3.98,-1.29 c -1.52,6.36 -5.66,15.33 -8.38,21.53 c -2.61,6.88 -10.36,31.38 -14.59,35.3 c -2.89,1.78 -7.18,-4.59 -8.46,-6.57 c 1.73,-2.03 3.4,-4.11 5.01,-6.22 c -1.36,-0.96 -4.85,2.05 -6.25,2.62 c -2.3,-0.79 -4.05,-7.33 -5.1,-9.48 c 0.68,-0.29 1.3,-0.69 1.85,-1.19 c 4.1,-4.08 8.26,-8.07 12.48,-11.96 c -0.21,-0.33 -0.51,-0.44 -0.9,-0.34 c -5.16,2.92 -10.29,5.92 -15.37,9.01 c -1.43,-3.05 -2.66,-6.17 -3.69,-9.37 c 6.33,-5.53 12.68,-10.98 19.06,-16.35 c -0.23,-0.35 -0.55,-0.46 -0.96,-0.32 c -5.7,3.29 -11.41,6.58 -17.15,9.86 c -0.52,0.34 -0.97,0.76 -1.35,1.27 c -0.39,-0.04 -0.78,-0.08 -1.18,-0.12 c -1.59,-1.04 -6.44,-16.44 -7.4,-19.31 c 4.07,-0.95 31.2,-20.24 36.89,-23.98 c 0.29,-0.4 0.44,-0.85 0.45,-1.34 c 0.42,-0.45 0.73,-0.97 0.94,-1.54 c 8.96,-1.22 17.83,-2.88 26.61,-4.98 c 0.47,-0.07 0.85,0.05 1.15,0.39 c -3.61,9.69 -7.54,19.25 -11.79,28.69 Z M 237.64,446.3 c 0.65,-0.17 4.33,-1.18 2.89,-2.26 c -1.47,0.1 -2.44,0.85 -2.89,2.26 Z"/></g>
<g><path fill="#e49900" fill-opacity="0.235" stroke="#e49900" stroke-width="0.5" stroke-opacity="0.235" d="M 131.04,399.03 c -1.02,1.62 -3.06,3.05 -5.02,2.97 c 1.21,-1.76 2.88,-2.75 5.02,-2.97 Z"/></g>
<g><path fill="#e59900" fill-opacity="0.502" stroke="#e59900" stroke-width="0.5" stroke-opacity="0.502" d="M 357.92,394.91 c 0.51,-1.1 1.37,-1.69 2.57,-1.77 c 1.37,1.05 -1.99,1.65 -2.57,1.77 Z"/></g>
<g><path fill="#e59900" fill-opacity="0.518" d="M 400.87,372.29 c 0.31,-1.23 1.06,-1.76 2.25,-1.61 c -0.33,1.08 -1.08,1.61 -2.25,1.61 Z"/></g>
<g><path fill="#e59900" fill-opacity="0.388" stroke="#e59900" stroke-width="0.5" stroke-opacity="0.388" d="M 42,261.96 c -0.49,1.13 -4.18,4.02 -4.99,2.72 c 1.02,-1.28 3.28,-2.73 4.99,-2.72 Z M 140.95,393 c -0.58,1.25 -1.56,1.94 -2.95,2.05 c 0.51,-1.34 1.49,-2.02 2.95,-2.05 Z"/></g>
<g><path fill="#e59900" fill-opacity="0.486" stroke="#e59900" stroke-width="0.5" stroke-opacity="0.486" d="M 47.04,258.98 c -0.75,1.08 -1.78,1.74 -3.11,1.96 c 0.46,-1.5 1.5,-2.16 3.11,-1.96 Z"/></g>
<g><path fill="#e59900" fill-opacity="0.631" d="M 47.04,258.98 c 0.09,-0.94 4.24,-3.89 5.02,-2.62 c -0.59,1.18 -3.68,2.78 -5.02,2.62 Z"/></g>
<g><path fill="#e59900" fill-opacity="0.6" d="M 456.8,241.23 c 0.06,-0.96 4.06,-4.12 5.02,-2.84 c -0.48,1.04 -3.82,2.75 -5.02,2.84 Z"/></g>
<g><path fill="#e59900" fill-opacity="0.373" stroke="#e59900" stroke-width="0.5" stroke-opacity="0.373" d="M 99.24,217.03 c 2.12,0.46 0.89,2.1 -0.84,2.04 c -1.15,-0.75 0.29,-1.49 0.84,-2.04 Z M 431.97,268.07 c -0.63,1.24 -1.64,1.86 -3.01,1.87 c 0.65,-1.19 1.65,-1.81 3.01,-1.87 Z"/></g>
<g><path fill="#e49900" fill-opacity="0.475" stroke="#e49900" stroke-width="0.5" stroke-opacity="0.475" d="M 236.85,66.13 c 0.43,-1.28 1.31,-1.95 2.64,-1.99 c 0.83,1.12 -2.11,1.51 -2.64,1.99 Z"/></g>
<g><path fill="#e59a00" fill-opacity="0.282" stroke="#e59a00" stroke-width="0.5" stroke-opacity="0.282" d="M 434.01,266.92 c -0.33,0.93 -1.02,1.31 -2.04,1.15 c 0.3,-0.97 0.98,-1.35 2.04,-1.15 Z"/></g>
<g><path fill="#eeb003" fill-opacity="0.933" d="M 231.69,100.15 c 1.13,-0.18 2.25,-0.12 3.36,0.17 c -0.06,0.23 -0.11,0.46 -0.17,0.7 c -1.61,1.01 -3.35,1.28 -5.21,0.79 c 0.06,-0.19 0.13,-0.38 0.19,-0.57 c 0.64,-0.36 1.25,-0.73 1.83,-1.09 Z"/></g>
<g><path fill="#e69800" fill-opacity="0.243" stroke="#e69800" stroke-width="0.5" stroke-opacity="0.243" d="M 274.74,64.01 c 0.23,-0.64 0.64,-0.86 1.23,-0.67 c -0.31,0.41 -0.72,0.63 -1.23,0.67 Z"/></g>
<g><path fill="#614303" fill-opacity="0.051" stroke="#614303" stroke-width="0.5" stroke-opacity="0.051" d="M 393.96,165.95 c 0.36,-0.02 0.72,-0.05 1.08,-0.07 c -0.08,0.36 -0.16,0.72 -0.24,1.07 c -0.03,0.33 -0.05,0.66 -0.08,0.99 c -0.33,0.16 -0.57,0.41 -0.72,0.75 c -1.04,0.35 -2.51,1.8 -3.62,0.99 c -0.03,-0.2 -0.06,-0.4 -0.09,-0.6 c -0.44,-1.06 1.92,-1.52 2.4,-2.38 c 0.68,0.17 1.11,-0.08 1.27,-0.75 Z"/></g>
<g><path fill="#72581c" fill-opacity="0.235" stroke="#72581c" stroke-width="0.5" stroke-opacity="0.235" d="M 129.78,412.26 c 0.11,0.34 0.21,0.68 0.31,1.03 c -1.3,0.63 -2.63,1.2 -3.98,1.73 c 0.02,-1.54 2.38,-2.5 3.67,-2.76 Z"/></g>
<g><path fill="#352708" fill-opacity="0.11" stroke="#352708" stroke-width="0.5" stroke-opacity="0.11" d="M 411.86,293.88 c 1.88,0.13 0.73,1.2 -0.11,1.68 c -0.7,1.13 -2.22,1.27 -1.54,-0.35 c 0.49,-0.52 1.04,-0.97 1.65,-1.33 Z"/></g>
<g><path fill="#664c19" fill-opacity="0.482" d="M 97.15,241.1 c 0.71,0.53 0.79,1.15 0.24,1.84 c -0.39,-0.47 -0.89,-0.78 -1.5,-0.92 c 0.32,-0.45 0.73,-0.76 1.26,-0.92 Z"/></g>
<g><path fill="#684e1a" fill-opacity="0.412" stroke="#684e1a" stroke-width="0.5" stroke-opacity="0.412" d="M 87.71,411.05 c 0.44,0.44 0.89,0.87 1.33,1.31 c -0.52,0.44 -1.1,0.58 -1.75,0.42 c -0.07,-0.63 0.07,-1.21 0.42,-1.73 Z"/></g>
<g><path fill="#5e481a" fill-opacity="0.486" stroke="#5e481a" stroke-width="0.5" stroke-opacity="0.486" d="M 117.71,342.96 c 0.13,0.28 0.26,0.56 0.38,0.83 c -0.16,0.54 -0.51,0.89 -1.05,1.04 c 0.02,-0.69 0.25,-1.32 0.67,-1.87 Z"/></g>
<g><path fill="#443920" fill-opacity="0.439" stroke="#443920" stroke-width="0.5" stroke-opacity="0.439" d="M 126.11,415.02 c -0.43,0.65 -1.04,0.97 -1.82,0.96 c 0.24,-0.92 0.85,-1.23 1.82,-0.96 Z"/></g>
<g><path fill="#3b3323" fill-opacity="0.471" d="M 396.03,165.21 c -0.01,0.87 -0.42,1.46 -1.23,1.74 c 0.08,-0.35 0.16,-0.71 0.24,-1.07 c 0.2,-0.42 0.53,-0.65 0.99,-0.67 Z"/></g>
<g><path fill="#6c5018" fill-opacity="0.463" stroke="#6c5018" stroke-width="0.5" stroke-opacity="0.463" d="M 403.8,148.19 c -0.14,0.5 -0.47,0.71 -0.99,0.63 c 0.26,-0.33 0.59,-0.53 0.99,-0.63 Z"/></g>
<g><path fill="#393422" fill-opacity="0.349" stroke="#393422" stroke-width="0.5" stroke-opacity="0.349" d="M 390.96,317.34 c -0.22,0.27 -0.44,0.54 -0.67,0.8 c -0.15,-0.63 0.08,-0.89 0.67,-0.8 Z"/></g>
<g><path fill="#262626" fill-opacity="0.443" d="M 413.94,128.17 c -0.18,0.43 -0.42,0.82 -0.73,1.17 c -0.25,-0.75 0,-1.13 0.73,-1.17 Z"/></g>
<g><path fill="#322d24" fill-opacity="0.357" stroke="#322d24" stroke-width="0.5" stroke-opacity="0.357" d="M 467.08,274.32 c -0.3,0.18 -0.6,0.37 -0.9,0.55 c 0.06,-0.53 0.36,-0.71 0.9,-0.55 Z"/></g>
<g><path fill="#654c19" fill-opacity="0.318" stroke="#654c19" stroke-width="0.5" stroke-opacity="0.318" d="M 489.16,272.96 c -0.16,0.71 -0.6,1.01 -1.33,0.92 c 0.35,-0.44 0.79,-0.75 1.33,-0.92 Z"/></g>
<g><path fill="#343423" fill-opacity="0.173" stroke="#343423" stroke-width="0.5" stroke-opacity="0.173" d="M 402.07,243.08 c 0.25,0.03 0.5,0.06 0.75,0.09 c 0.01,0.29 0.03,0.57 0.04,0.86 c -0.67,0.04 -0.93,-0.28 -0.79,-0.95 Z"/></g>
<g><path fill="#624a1a" fill-opacity="0.42" d="M 501.24,265.78 c -0.2,0.77 -0.7,1.22 -1.49,1.34 c 0.34,-0.62 0.83,-1.07 1.49,-1.34 Z"/></g>
<g><path fill="#5f491c" fill-opacity="0.463" d="M 436.95,93.91 c -0.02,0.61 -0.29,1.06 -0.82,1.36 c -0.07,-0.67 0.21,-1.12 0.82,-1.36 Z"/></g>
<g><path fill="#6f5317" fill-opacity="0.471" stroke="#6f5317" stroke-width="0.5" stroke-opacity="0.471" d="M 426.92,429.15 c -0.04,0.34 -0.23,0.53 -0.57,0.55 c 0,-0.37 0.19,-0.55 0.57,-0.55 Z"/></g>
<g><path fill="#705018" fill-opacity="0.125" stroke="#705018" stroke-width="0.5" stroke-opacity="0.125" d="M 339.81,135.08 c 0.62,0.09 0.96,0.46 1,1.09 c -0.51,-0.21 -0.84,-0.57 -1,-1.09 Z"/></g>
<g><path fill="#785716" fill-opacity="0.965" d="M 87.32,436.75 c -0.42,0.09 -0.83,0.18 -1.24,0.27 c -1.03,0.01 -2.06,0 -3.09,-0.04 c -0.33,-0.11 -0.67,-0.22 -1,-0.34 c 1.31,-0.92 4.19,-1.12 5.33,0.11 Z"/></g>
<g><path fill="#5e481a" fill-opacity="0.361" stroke="#5e481a" stroke-width="0.5" stroke-opacity="0.361" d="M 227.2,410.23 c 0.6,-0.08 1.19,-0.04 1.77,0.13 c -0.61,0.44 -1.29,0.74 -2.03,0.89 c 0.09,-0.34 0.18,-0.68 0.26,-1.02 Z"/></g>
</svg>
