<svg xmlns="http://www.w3.org/2000/svg" style="shape-rendering:geometricPrecision;text-rendering:geometricPrecision;image-rendering:optimizeQuality;fill-rule:evenodd;clip-rule:evenodd" viewBox="0 0 512 512"><path fill="#6cb578" stroke="#6cb578" stroke-width=".5" d="m291.7 178-.7 6-98 56.5c-1.7 1.3-2.8.2-1.2-1.2l8.2-8.5c12.6-4.6 23-9.8 32.1-20.1a2 2 0 0 1 1.6-.5q2.8-1 5.4-2.6l47-27q2.6-1.6 5.6-2.7Z"/><path fill="#fdfefd" stroke="#fdfefd" stroke-width=".5" d="M394.9 337a15 15 0 0 1-6.8 14q-1 .1-1 1l-1.1.1q-.8.2-1.1.9c-7.6 4.1-13 3-21 1.8q.2-.7.8-1c2.6.4 4.4-2 6.6-3.2q11.9-6.7 23.6-13.7Z"/><path fill="#6bb577" fill-opacity=".3" d="m243 5-.7 1q-.3-1 .7-1m21.3 19.3q-.6.5-1.3.7.3-1 1.3-.7M226 27c-.3 1.7-3.6 2.8-5 3 .8-1.6 3.2-3 5-3m-32.7 38.3q-.6.5-1.3.7.3-1.1 1.3-.7M186 67q-.2 1-1.2.8zm216 0q-.3.7-1 1 .2-.8 1-1m-293.2 8a3 3 0 0 1-3 2q.7-2 3-2m293 19q0 1-1.2.7zm-29.6 6.3q-.6.5-1.3.7.3-1.1 1.3-.7m31 0-1.3.7q.3-1.1 1.3-.7M417 103q-.3 1.1-1.3.7zm-85.7 5.3-1.3.7q.2-1.1 1.3-.7m21.7-.3q-.1 1-1.2.8zm-6.7 7.3q-.6.5-1.2.7 0-1.1 1.2-.7M365 117q-.2 1-1.2.8zm-252 5q-.5 1.3-2 1 .5-1.2 2-1m108-.1c-.4 1.7-3.5 2.8-5.1 3q1.2-1.6 3-2.5a4 4 0 0 1 2.2-.5m221.3.4-1.3.7q.3-1.1 1.3-.7m-137 1-1.3.8q.2-1.1 1.3-.8M370 132q-.3 1-1.2.7zm6.3.3-1.3.7q.3-.9 1.3-.7M439 135q-.3 1-1.3.7zm-22.7 2.3-1.3.7q.3-1.1 1.3-.7M328 140q-.3 1-1.2.8zm4.3 1.3-1.3.7q.3-1.1 1.3-.7m125.8.8c-.6 1.4-3.4 3.2-5.1 3 .2-1.5 3.7-3 5-3m-107.8 5.2-1.3.7q.3-1 1.3-.7M410 153q-.3 1.1-1.3.7zm-3.7 8.3-1.3.7q.3-1 1.3-.7M359 167q-.1 1-1.2.8.4-.5 1.2-.8m22 4q-.2 1.1-1.3.7zm-.7 5.3-1.3.7q.3-1.1 1.3-.7M110 178q-.3 1.1-1.3.7zm235.3.3-1.3.7q.2-1.1 1.3-.7M469 180q-.3 1-1.3.8zm-117 9q-.3 1.1-1.3.7zm-268 4q-.3 1-1.3.7zm373.3.3-1.3.7q.3-1 1.3-.7M405 196q-.6 1.1-2 1 .5-1.5 2-1m-296 .9q-.3 1.1-1.3.7zm-1.8 4.3-1.2.7q.3-1 1.2-.7m-8 5-1.2.7q.3-1 1.3-.7m223.8.7q-.1 1.1-1.2.7zm-240 5q-.2 1-1.3.7zm-44 7q-.3 1-1.3.7zm427 25q-.3 1-1.2.8zm-392 6q-.3 1.1-1.3.7zm394.3.3-1.3.7q.3-1 1.3-.7m-444 3-1.3.7q.2-1 1.2-.8m51 0-1.2.7q0-1.1 1.2-.7M48 265q-.3 1-1.3.7zm-22.7 19.3-1.3.7q.2-1.1 1.3-.7m453 1-1.3.7q.3-1.1 1.3-.7m-26 15-1.3.7q.3-1.1 1.3-.7M419 317q-.2 1-1.2.8zM57 373c-.2 1.3-4.4 3.8-5 2.7.5-1.2 3.6-2.7 5-2.8m400 5c-.1 1.5-3.4 3.3-5 3 .8-1.6 3.3-3 5-3m-286.7 41.3-1.3.7q.3-1 1.3-.8M259 422a8 8 0 0 1-5 2.9q0-1 .9-1.4 1.8-1.5 4-1.5M142 429q-.3 1-1.3.7zm-26 15q-.3 1-1.2.7zm74 1q-.3 1.1-1.3.7zm114 1q-.3 1-1.3.7zm4.2.2-1.2.8q.3-1 1.2-.8m-129 10-1.2.8q.3-1 1.2-.8m112 1-1.2.8q.3-1 1.2-.8M164 460q-.2 1.1-1.3.7zm114 1q-.2 1.1-1.3.7zm88.2 19.2.9-.3q-.2 1.2-1.4 1.1zM221 483q-.6 1.3-2 1 .6-1.3 2-1"/><path fill="#6bb577" fill-opacity=".4" d="M253 23.2q-.3.8-1.3.7zm52 4.7q-.9 2-3 2a3 3 0 0 1 3-2m-80.8 14.4q-.5.7-1.5.7zM214.4 53q-.6.5-1.4.6.4-.7 1.3-.6M395 65.3q-.5.8-1.4.6.6-.5 1.4-.6M188.3 68q-.5.5-1.3.6.4-.8 1.3-.6M199 78c-.3.9-1.9 2.5-2.9 1.6q1-1.5 3-1.7m179.5 3-1.4.7q.3-.8 1.4-.8m15 7q-.7.5-1.4.6.5-.7 1.4-.6m30.9-.1-1.4.8q.4-.8 1.4-.8m-42.4 2.2q-.3.8-1.2.8zM352.4 96q-.5.6-1.3.7.3-.9 1.3-.7m44.8 1.3q-.7.6-1.5.6.7-.6 1.5-.6m-29.8 5.8q-.7.5-1.4.6.4-.8 1.4-.6M435 109c-.7 1.6-5.6 4-7 4 .2-1 5.7-4.2 7-4m-87.2 2.3q-.2.8-1.2.7zm49.5 8.8-1.3.7q.4-.9 1.3-.7m-11.3 2.2q-.3.8-1.3.7.6-.5 1.3-.7m44.3 1q-.7.7-1.5.7a2 2 0 0 1 1.5-.7m7 1.8q-.5.6-1.3.6.5-.7 1.4-.6m-223.2.9q-1 2-3.1 2a4 4 0 0 1 3.1-2m107.9 1.3c.3.9-.8.4-1.2.5zm31.3 1.7-1.2.8q.3-1 1.2-.8m88.8 4.3q-.5.7-1.4.6zm-70.7 1.8-1.4.6q.5-.6 1.4-.6m-19.5 8.3q-.3.6-1.1.5zm75.4 5.7-1.3.6q.5-.6 1.3-.6m-35 2q-.4.4-1.2.7.3-.8 1.2-.7m-17.4 6.1q-.2.9-1.2.7zm26.4 7q-.6.4-1.4.6.5-.7 1.4-.7m-34.9 1.9q-.6.5-1.3.5.4-.6 1.3-.5m-25.6 12.2q-.2.8-1 .6.4-.4 1-.6m-.4 2.7q-.6.5-1.4.8.3-1 1.4-.8m138 .1-1.4.7q.5-.8 1.4-.7M333 183.3q-.5.8-1.4.6.6-.5 1.4-.6m131 0q-.5.6-1.4.6.6-.5 1.4-.7m-375.2 7q-.3.7-1.2.6zm362.3 1q-.6.6-1.5.7.8-.6 1.5-.7M86.2 196l-1.3.7q.4-.9 1.3-.7m18 6.9-1.4.7q.5-.7 1.4-.7m325.7 1.3q-.4.7-1.3.6zm-99.7.8-1.2.6q.3-.7 1.2-.6M149 206.9c.2-.7 1.4-1.5 2-.6q-.8.9-2 .6m-52.6 1.2-1.2.7q.3-.9 1.2-.7m326 1.1q-.7.8-1.6.7a3 3 0 0 1 1.5-.7m-104.4 1q0 1-1 .7.4-.6 1-.7m91 7q-.3.8-1.2.8zm-7.7 5q-.6.7-1.5.8.8-.6 1.5-.8m-384 8.9.8.2q-.5.5-1.2.8zm472.1 6.9-1.3.7q.4-.8 1.3-.7m-444 2q-.7.6-1.5.8.4-.8 1.5-.8m48 2a2 2 0 0 1-1.4.7q.4-.7 1.4-.7m-7.3 1.2q-.4.9-1.3.7zm377.4 10-1.3.5q.4-.7 1.3-.6M21.3 255q-.6.6-1.5.7.5-.9 1.5-.8m31.7 7q-.3.9-1.3.9zm-1.7 5.9q-.6.6-1.4.7.4-.7 1.4-.7M467 287.2q-.5.9-1.4.7zm6.2.9-1.3.7q.4-.9 1.3-.7M422 315.3q-.3.8-1.2.6zm-325.7 3.6q0 .6-.3 1l-1-.3q.6-.5 1.3-.7m317.6 1.3q0 1-1 .7.4-.5 1-.7M69 366q-.6 1.2-2 .8.7-1 2-.8m380 17c-.3.5-1.4 1.5-2 .6a2 2 0 0 1 2-.7m-257 17.2q-.5.8-1.4.7.6-.6 1.3-.7m48 16q-.4.9-1.3.6a2 2 0 0 1 1.2-.6m-72.7 4.8-1.5.6q.6-.7 1.5-.6m166.6 8c.2-.8 1.3-1.7 1.9-.8a2 2 0 0 1-2 .8m-213 12.1q-.3 1-1.3.8.6-.6 1.2-.8m117 7.8q-.9 2-3 2a3 3 0 0 1 3-2m64.3 1.1q-.6.4-1.4.6.5-.7 1.4-.6m-118 3-1.1.7q.3-.9 1.1-.7m-15.4 4.1q-.3.9-1.2.7zm7.4.8q-.7.6-1.6.7.7-.7 1.6-.7m106.7.3q-.4.7-1.3.6.6-.4 1.3-.6m2.3 2.7-1.5.8q.6-.8 1.5-.8M257 473.2q-.3.8-1.2.7zm22 5.8c.8-1.3 3.3-3.1 4.7-3 1.3 1-3.6 3.1-4.6 3M246.7 27q0 1-1 1zm-20.3 19a2 2 0 0 1-1.4.6q.5-.7 1.4-.6m173.3 33q0 1-1 1zm-232.6 1c-.1.8-1.3 1.7-2 .7q.8-.9 2-.7m251 4.3q-.6.8-1.4.6zm-60 4q-.5.7-1.4.7.6-.5 1.3-.7m6.2.8-1 .7q0-.8 1-.7M127 95c-.6 1.4-3.6 3-5.2 3 1-1.6 3.3-3.1 5.2-3m247 .2q-.4.7-1.5.7.7-.5 1.6-.7m51 3q-.5.9-1.4.7.6-.5 1.4-.6m10 10.8a8 8 0 0 1 4.4-3c1.3 1.1-3.5 3.1-4.5 3m-54-1.7q-.6.8-1.4.6.6-.4 1.4-.6m10.3-.2q-.7.5-1.6.7.6-.7 1.6-.7m25 2q-.6.5-1.3.7.3-.8 1.3-.7m-12.6 1.9q0 1-1.1 1zm5.6 2-1.5.7a2 2 0 0 1 1.5-.6m-44 9q-.6.7-1.4.6.4-.6 1.3-.6m89.7 3.2q-.5.9-1.4.7.6-.6 1.4-.7m-111 5.1q-.6.7-1.4.6a2 2 0 0 1 1.3-.6M230 135q-.6 1.5-2 1.2.5-1.4 2-1.2m209.2 7q-.7.8-1.5.9.4-.8 1.5-.8m-13.2 1.4q-.4.8-1.5.6.7-.6 1.5-.6m-82 4.9q-.5.8-1.4.7a3 3 0 0 1 1.4-.7m-37 5.2q-.4.7-1.3.6.4-.6 1.3-.7m71.3 5.7-1.2.6c-.3-.8.8-.4 1.2-.6m18.7 2.2q-.5.8-1.4.7.6-.5 1.4-.7m-30 1q-.5.7-1.4.6zm-242.8 9.9-1.2.6q.2-.9 1.2-.6m244 10.8q-.5.6-1.2.7.3-.7 1.3-.7m-271 6.1-1.3.7q.4-.7 1.3-.7m23.5 1.2q-.2.8-1 .6.3-.5 1-.6m221.5 7.8-1.3.5q.4-.7 1.3-.5m103 2q-.6.6-1.4.7.6-.7 1.5-.6m-122.1 9q-.4.4-1 .6c-.5-.8.5-.6 1-.6m103.1 2-1.2.7q.3-.9 1.2-.7m-375.2 1.2q-.5.8-1.4.7.6-.6 1.4-.7m61.9.6q-.9 2-3 2.2.8-2 3-2.2m306.3 2.2q-.4.6-1.3.6.4-.7 1.3-.6m-368 3-1.4.6a2 2 0 0 1 1.5-.7m-19.2 5.1q-.4 1-1.4.8.6-.6 1.4-.8m40.3-.2q-.6.6-1.4.7.3-.8 1.4-.7m327.9 3q-.4.6-1.2.8.2-1 1.2-.8M50 231.2q-.5.8-1.4.8.6-.6 1.4-.8m6.1 1.8-1.3.7q.4-.7 1.3-.7m-25 9.3q-.6.6-1.6.6.7-.5 1.6-.6m451.1-.3q-.5.6-1.3.7.3-.8 1.3-.7m-394 3.1q-.7.4-1.5.6.7-.7 1.5-.6M442 259.4q-.6.6-1.4.5zm-401 9.8q-.4 1-1.4.8.6-.5 1.4-.8m389.3 3-1.6.5q.6-.6 1.6-.6m-392 3.9q-.7.6-1.5.7.6-.7 1.5-.7M459 292.3q-.5.6-1.4.6.6-.6 1.4-.6m-8 5q-.6.8-1.5.6.7-.5 1.5-.6m-37 25q-.4.3-1 .4.2-.9 1-.5m33 8.8q-.9 2-3 2 .9-2 3-2m-406 5c-.4 1.4-3.6 2.8-5 3 1-1.7 2.8-3.2 5-3m21 34c-1 1.6-3.1 3.1-5 3q2-2.6 5-3m132.4 34-1.5.7q.6-.7 1.5-.7m-14 3.2q-.8.7-1.5.7.5-.6 1.4-.7M421 414a3 3 0 0 1-3 2q.8-2 3-2m-159 6a4 4 0 0 1-3 2.1q.8-2 3-2m-34.3 3.3q-.2.8-1.1.7.5-.5 1.1-.7m-3.5 4.8q-.6.4-1.3.6.4-.7 1.3-.6m-89 13q-.5.5-1.4.6.5-.7 1.4-.7m170 7q-.6.5-1.4.6.5-.6 1.5-.6m-148.2 16.2q-.5.7-1.5.7zm88 16q-.4.7-1.4.7.7-.6 1.4-.8"/><path fill="#65b06f" fill-opacity=".2" stroke="#65b06f" stroke-opacity=".2" stroke-width=".5" d="M468.1 317.7q.8.4.9 1.2l-15 8.8q-2.4 1.5-5 2.3c1.2-2.4 16-10.5 19.1-12.3Zm-282.4 72.2q.1 1-.7 1.5-7 4.1-13.8 8.5-1 .6-2.2.9-.8-.4-1-1l16-9.4q.8-.4 1.7-.5ZM209 410q-1 1.4-2.3 2.3-9 5.2-17.7 10.7-.1-1.2-1.4-1 9.9-6 20.1-11.7.6-.3 1.3-.3Z"/><path fill="#6bb577" fill-opacity=".4" d="M252.4 31.1q-.7.6-1.5.6.6-.6 1.5-.6m21.6 28q-1 1.9-3 2 .8-2 3-2m-81.9 4q-.3 1-1.4 1 .6-.6 1.4-1m195 7.2q-.5.9-1.5.7zM274 73a8 8 0 0 1-5 3 5 5 0 0 1 5-3m116.2 1q-.6.6-1.4.6.5-.8 1.4-.6m27 17.9q-.7.6-1.5.7.5-.7 1.4-.7m17.8 6.2q-.4.5-1.2.5.4-.7 1.2-.5m-98 3q-.6.8-1.5.8.7-.6 1.5-.8m24 2.1q-.5.9-1.5.7a2 2 0 0 1 1.4-.7m-.9 3.8q-.5.4-1.1.6.3-.7 1.2-.6m-40.8 8q-.6.5-1.3.6.3-.7 1.3-.6m-255.3 4q-.6 1.5-1.9.5a2 2 0 0 1 2-.5m270.4 3q-.4.6-1.1.9 0-1 1-1m43.8 5.2q-.5.8-1.4.8zm44 1.1q-.6.7-1.5.6zm8.1.7q-.5.6-1.3.8.4-.8 1.3-.8m-66 10.1-1.1.7q.2-.8 1.2-.7m40.2 5a2 2 0 0 1-1.3.7q.3-.9 1.3-.7m48.6 1c-1.3 1.7-2.7 3-5 3 .8-1.7 3.2-3 5-3m-138 3.2q-.3.9-1.2.7zm5.2-.3q-.4.7-1.3.7.5-.7 1.3-.7m68 1.3q-.6.6-1.4.6zm-49.8 4.8q-.5.6-1.2.6.3-.7 1.2-.6m-7.4 2.1q-.3.9-1.2.6zm63.3 11.8q-.7.8-1.5.6.6-.6 1.5-.6M122 171.2q0 1-1.2.8zm-51 2.9a14 14 0 0 1-7 4c.7-1.4 5.7-4.4 7-4m297.2 5.2q-.4.7-1.5.7.7-.6 1.5-.7m-34.9 5.8-1 .6c-.4-.8.6-.5 1-.6m138 0q-.6.5-1.4.6.6-.7 1.5-.7M96 186.2q-.2.8-1.1.7.5-.5 1.1-.7m347.3 10q-.6.6-1.4.6.5-.6 1.4-.6m-104.2 1q-.3.8-1.3.6zm64-.3c-.6 1.3-3.6 3.2-5 3 .3-1.3 3.6-2.8 5-3M78.4 201q-.6.6-1.4.7.5-.7 1.4-.7m16.6 4.3q-.3.8-1.2.5zm20 6.6q-.6 1.1-2 1 .8-1.3 2-1m-89.8 15.3q-.5.7-1.4.7.6-.6 1.4-.6m39.1.7q-.5.6-1.3.7.5-.6 1.3-.7m-40 18.3q-.6.7-1.4.6a2 2 0 0 1 1.3-.6m432 10.7q-.6.7-1.4.7a2 2 0 0 1 1.4-.7m-397 6q-.6.5-1.4.7.5-.7 1.4-.7m374.7 1.3q-.4.6-1.3.6.6-.6 1.3-.6m32.3 27.7q-.4.5-1.2.8.3-1 1.2-.8m-26 15q-.4.7-1.3.7.5-.7 1.2-.6m11.7 74a3 3 0 0 1-2.9 2q.6-2 2.9-2m-249.7 18q-.6.7-1.4.8.5-.7 1.4-.7m61.6 20q-.4 1.3-1.8 1 .3-1.5 1.8-1m-109.8 3.2q-.5.9-1.5.8.8-.6 1.5-.8m62.3 10.9-1.5.7q.6-.7 1.5-.7m-73.1 2.9q-.6.5-1.3.7.4-.7 1.3-.7m-15.2 1.2q-.3 1-1.4.8.6-.6 1.4-.8m74 1q-.4.9-1.4.7.6-.6 1.4-.7m113.9 1.1c.3 1-.8.6-1.3.7zm-26 15q-.4.8-1.2.7.4-.6 1.2-.6m-1.7 4.7-1.4.8q.3-1 1.4-.8m-17 11q-.6.7-1.4.7.4-.7 1.5-.6M259.4 27.1q-.7.6-1.5.6.6-.6 1.5-.6m-26 15-1.4.6q.4-.7 1.3-.6M195 61q-.5.9-1.4.8zm75.8 0q-.5 1.1-1.9.9.6-1.2 2-1m126.4 9q-.6.5-1.3.6.4-.7 1.3-.6m15 6.9-1.2.8q.3-1 1.3-.8M395.2 82q-.5 1-1.4.8.5-.6 1.4-.8m-29 1.1q-.5.8-1.4.6zm5.3 1.7-1.4.8q.4-1 1.4-.8M345 96q-.3.9-1.2.7zm53.4 6.8q-.4.5-1.2.8.1-1 1.2-.8m.9 11.3q-.6.7-1.5.7.7-.5 1.5-.7m-58 3.8-1.1.7q.1-.9 1.2-.7m-6.2 1.1q-.4.9-1.4.7zm-219 .8q-1 1.8-3 2 .7-2.3 3-2m244.2.3q-.7.7-1.5.7.6-.6 1.4-.7m49 16q-.5.8-1.4.6.6-.4 1.4-.6m24.9 2q-.5.7-1.3.6a2 2 0 0 1 1.3-.6m12.1-.3q-.4.6-1.2.7.3-.7 1.2-.7m-35 2a2 2 0 0 1-1.2.6q.4-.6 1.3-.5m-88.2 3.3q-.5.7-1.4.7.6-.5 1.4-.6m4.3.7-1.3.7q.3-.8 1.3-.7M154 153c-.3 1.4-3.6 3-5 3 .8-1.5 3.2-3 5-3m231.4 2q-.6.6-1.4.6.5-.6 1.4-.6m19.8 1.3q-.6.7-1.5.7.7-.5 1.5-.7M376 174.2q-.4.9-1.4.8zm-261.1 1.2q-.3.8-1.3.6.6-.5 1.3-.6m260.4 3.6-1.4.7q.5-.7 1.4-.7m-270 5q-.6.5-1.4.7.6-.6 1.5-.7m241.7 8.3q-.4.7-1.3.7zm-233 1.9q-.4.8-1.4.7.6-.5 1.4-.7m235.4-.2q-.6.6-1.3.7.4-.9 1.3-.7m102.9 2.1q-.7.5-1.3.5.4-.6 1.3-.5M149 206.9a4 4 0 0 1-3 2.2q.8-2 3-2.2m-89.7 6.2q-.6.6-1.4.7.4-.8 1.4-.7m29.1 0q-.5.5-1.2.6.1-.9 1.2-.7m-44.5 3.2q-.4.8-1.2.6.5-.5 1.2-.6m36.4 1.7q-.7.6-1.5.7a2 2 0 0 1 1.5-.7M43 235.3q-.4.8-1.2.6zm434.1 2q-.5.6-1.4.6.6-.6 1.4-.7M79 247.2q-.3.8-1.2.6zm-62 3q-.3.7-1 .6.3-.6 1-.5m63.5-.3q-.6.6-1.3.7.4-.7 1.3-.7m356.9 18.1q-.5.6-1.3.7.4-.8 1.3-.7m53.6 4.2q-.3.8-1.2.7.5-.6 1.3-.7m-72.7 2q-.5.8-1.4.6.6-.5 1.4-.6m65 3q-.6.7-1.6.6zm-453 3.8-1.3.7q.5-.8 1.4-.7m417.2 22q-.6.5-1.3.6.3-.9 1.3-.7m-26.4 15q-.4.6-1.2.7.3-.8 1.2-.7M67 367q-.9 1.7-3 2c.2-1.5 1.9-1.8 3-2m106 44.4q-.3.8-1.4.6.7-.6 1.5-.6m48 15.8q-.5.8-1.4.7.6-.5 1.4-.7m-26 15q-.3 1-1.3.8zm5.3.8q-.6.7-1.5.7.6-.8 1.5-.7m108.5.3q-.3.7-1.2.7zM192.3 448l-1.3.7q.3-.9 1.3-.7M332 461c-.1-1 1.4-1.6 2-.7a2 2 0 0 1-2 .7m-106 19q-.5 1-2 1.1.5-1.3 2-1m12 4.3q-.3.8-1.3.7.4-.6 1.2-.7"/><path fill="#6bb577" fill-opacity=".3" d="M271.2 20a2 2 0 0 1-1.2.8q.3-1 1.2-.8m33.8 8c.2-.8 1.3-1.6 1.9-.7q-.7.9-2 .6M200.4 61l-1.4.7q.4-.7 1.4-.7m-11.6 4q0 1-1.1 1zm189.9 9.8q0 1-1 1zm4.6 3.1q-.5.7-1.3.7.4-.7 1.3-.7m3.5 9q0 1.1-1 1zm23 2q-.1 1-1.1.9zm.4 7q-.4.7-1.2.7.3-.8 1.2-.7m-81.5 10.2q0 1-1 .8zm44 5.8q0 1-1 1zm-60.5 7-1.2.8q.3-.9 1.2-.8m122.5 1q0 1-1 1zm-108 4.1q.2 1-1 .8zm120 5.9q.2 1-1 1zm11.6 1.1q-.6.6-1.5.6.6-.6 1.5-.6m-225.4 1.8a3 3 0 0 1-2.9 2 3 3 0 0 1 3-2m190.5.2-1.4.6q.4-.7 1.4-.6m-87.7 2q0 1-1 .8zm3.6 2-1 .7q0-.9 1-.7m17.4 3q0 1-1 1zm.5 3-1 .8q0-1 1-.8m60.6 5q0 .9-1 .9.4-.6 1-1m-104.4 4q-.5.5-1.2.6.3-.7 1.2-.7m17.8 6q-.5.6-1.3.5.4-.7 1.3-.6m57.5 8q0 1-1 .8zm-43 9q0 1-1 .8zm-229.3 2-1 .9q-.2-1 1-.9m-13.6 5.1c.3.8-.8.5-1.2.7zm257 1.7q0 1-1.2 1zm96 4.2q0 1-1.2 1 .5-.7 1.1-1m8.5 1a2 2 0 0 1-1.4.7q.5-.9 1.4-.7m-341 2-1 .8q0-1 1-.8m-21.4 10.2q-.3.7-1.2.7.5-.6 1.2-.7m332.8-.2q0 1-1 .8zm-104 .8q0 1.3-1.1 1zm-260.3 4.2-1.2 1q0-1.2 1.2-1m22.4 33.1q0 .9-1 .8zm382.5 6.8q-.7.6-1.5.8.4-1 1.5-.8m-408.5 8.1q0 1-1.2 1zm383 0q0 1-1.1.9zm-382.4 4-1.1 1q0-1.2 1.1-1m381.8 3q-.4.6-1.3.6.5-.7 1.3-.7m10.1 35q-.6.4-1.3.6.4-.8 1.3-.6m-16.6 6q0 1-1 .9zm-8 5q0 1-1 .9zM389 405q-.6 1.1-2 .9.7-1 2-1m-175 2a4 4 0 0 1-3 2q.9-2 3-2m-27.6 2-1.2.9q.1-1 1.2-.8m-25.4 9.2q-.3.8-1.3.7.6-.5 1.3-.7m79.2-.1-1 .8q-.1-1 1-.8m-105 15.2q-.5.7-1.5.7.6-.6 1.4-.7m73.8.9q-.3.9-1.2.8.4-.5 1.2-.8M127.3 446l-1 1q-.1-1 1-1m55.5 3.2q-.1.9-1 .7zm114 1q0 1-1 .7zm-61.8.8q-.6 1.3-2 1 .5-1.5 2-1m97 10a3 3 0 0 1-3 2 3 3 0 0 1 3-2m-74.6 18-1 1q-.2-1 1-1m-17 11-1.2 1q0-1 1.1-1"/><path fill="#6ab577" fill-opacity=".3" d="M212 50q-.3 1-1.3.7zm.3 4.3q-.6.5-1.2.7 0-1 1.2-.7M391.9 67q0 1-1.2.7zm-209 2q0 1.2-1.2.7zm96 1a7 7 0 0 1-4.8 3c.4-1.6 3.3-3 4.9-3m63 28q0 1.1-1.2.7zm52 1q0 1.1-1.2.7zm-37 23q0 1.1-1.2.7zm78.4 4.3-1.3.7q.3-1.1 1.3-.7m-84 4-1.3.7q.3-1.1 1.3-.7m18 6q-.6.5-1.3.7.3-1 1.3-.7m-20.4 8.6q0 1-1.2.8zm-200 11c-.8 1.7-3 3.2-5 3q2-2.4 5-3m223 3q-.2 1-1.2.8zm27.4 6.4q-.6.5-1.2.7 0-1.1 1.2-.7m-35 2-1.3.7q.3-1 1.3-.7m-237 3-1.2.7q0-1.2 1.2-.7m245.6 5.6q0 1-1.2.8zm-309 2.2a7 7 0 0 1-5 3 7 7 0 0 1 5-3m274 1.9q0 1.1-1.2.7zm.4 2.3-1.2.7q0-1.2 1.2-.8M91 189q-.3 1-1.3.7zm253 5q-.3 1.1-1.3.7zm-262.7 5.3-1.2.7q0-1.1 1.2-.7M65 204q-.3 1-1.3.7zm263.3 2.3-1.3.7q0-1.2 1.3-.7m98.6-.4q0 1-1.2.8zm-335.6 5.4-1.2.7q0-1.1 1.2-.7m314.6 7.6q0 1.1-1.2.8zm-370.6 9.4-1.2.7q0-1 1.2-.7m446.6 5.6q0 1.1-1.2.8zm5.4 5.4-1.3.7q.3-1 1.3-.7M96.3 256l-.5 1H95q.3-.9 1.2-1M55 261q-.3 1-1.3.7.6-.5 1.3-.7m-21.7 18.3-1.2.8q0-1.1 1.2-.8m446.6-.4q0 1.1-1.2.8zm-63.6 1.4-1.3.7q.3-1 1.3-.7M449 330q-.6 1.2-2 1 .6-1.2 2-1m-255 69q-.3 1-1.3.7zm48 16 .3.7-1.4-.2zm-19 11q-.2 1.1-1.3.7.6-.5 1.2-.7m-68.7 3.3-1.2.7q0-1.1 1.2-.7M123 440q-.3 1-1.3.7zm80.3 1.3-1.2.8q0-1 1.2-.8m-8 5-1.2.7q0-1.1 1.2-.7m-24.4 9.7q0 1.1-1.2.7.6-.5 1.3-.7m114 1q0 1-1.2.8zm-24.6 20.3-1.2.8q0-1.1 1.2-.8m-17 11-1.2.7q0-1 1.2-.7"/><path fill="#6bb577" fill-opacity=".3" d="M241 31q-.3 1-1.3.7zm40 24c-.8 1.3-5.5 4.2-7 4 .4-1.2 5.5-4.3 7-4M170 78q-.9 2-3 2 .8-2 3-2m206.2 4.3q-.6.5-1.3.7.3-1 1.3-.7M366 100q-.3 1-1.3.7zm55.3 6.3q-.6.5-1.3.7.3-1.1 1.3-.7m-68 5q-.6.5-1.3.7.3-1.1 1.3-.7m31 0-1.3.7q.2-1.1 1.3-.7M383 124q-.3 1-1.3.7zm-150 9c.2-1.3 2.9-2.2 3.7-3q1.6-.5 1 1c-1.4.9-3 2.2-4.8 2m218.3 2.3-1.2.7q0-1.1 1.2-.7M393 146q-.3 1-1.3.7zm-2.7 6.3-1.3.7q.3-1.1 1.3-.7m-54.3.7q-.1 1.1-1.3.7zm51.3 19.3q-.6.5-1.3.7.3-1.1 1.3-.7M80 182a8 8 0 0 1-5 3c.4-1.6 3.3-3 5-3m28.2.2-1.3.8q.3-1 1.3-.8m246 9-1.3.8q.3-1 1.3-.7M448 193q0 1-1.2.7zM43.3 223.2l-1.2.8q.3-1 1.2-.8M38 238q-.3 1.1-1.3.7zm58.2 1.8-.3 1.2H95q.3-.8 1.2-1.2m-56 3.5-1.2.7q.1-1.1 1.3-.7m402.1 22-1.3.7q.3-1.1 1.3-.7M415 276q-.1 1-1.2.8zm11.3 39.3q-.6.5-1.3.7.3-1 1.3-.7M36 339c-.2.6-1.3 1.5-2 .6q.9-.9 2-.6m356 64q-.9 2-3 2 .8-2 3-2m-224 11q-.3 1-1.3.7zm-5.7 10.3-1.2.8q0-1 1.2-.8M216 430q-.2 1.1-1.3.7zm-28.7 21.2-1.3.8q.3-1 1.3-.8M279 479a7 7 0 0 1-5 3q1.8-2.5 5-3m-46 8q-.3 1-1.3.8zM141.2 34l-.3.7-1.2.6q.3-1.2 1.5-1.3m90.1 9.3-1.2.8q.2-1 1.2-.8M209 51.9q0 1-1.2.8zm175 20q0 1.1-1.2.8zm21 4q-.2 1-1.2.8zm5.4 2.4-1.2.8q0-1.1 1.2-.8m-41 8-1.3.7q.3-1 1.3-.7m39.6 21.6q0 1.1-1.2.8zm5.4 2.4-1.2.8q0-1 1.2-.8m-69.4 2.6q0 1-1.2.8zm-32 3q-.2 1-1.2.8zm127 1q0 1.1-1.2.8zm-69.6 2.4-1.2.8q.2-1 1.2-.8M111 123q-.4 1.2-1.5 1.8l-8.3 5.3-.1-1.4c2.8-2.4 6.4-4.6 10-5.7m251 14q-.2 1-1.2.7zm82.4 2.3-1.2.7q0-1.1 1.2-.7m-101 12-1.3.7q.3-1 1.3-.7m75 3-1.2.8q.2-1 1.2-.8m-35 2-1.3.7q.3-1.1 1.3-.7m77.6 28.6q0 1-1.2.8zm-360.6 2.4-1.2.8q.1-1 1.2-.8m247 8-1.2.7q0-1.1 1.2-.7m92.6 2.6q-.2 1-1.2.8zm-368 2q0 1.1-1.2.8.6-.5 1.2-.7m352.4 12.4q-.6.5-1.2.7 0-1.1 1.2-.7M398 223.9q0 1.1-1.2.8zm92 5q0 1.1-1.2.8zm-430.6 2.4-1.2.8q0-1.1 1.2-.8m-32 2-1.2.8q0-1.1 1.2-.8m17.6.6q0 1.1-1.2.8l1.2-.7m17.4 27.4-1.2.8q0-1.2 1.2-.8M439 261q0 1-1.2.8zm-3.6 8.4-1.2.7q0-1 1.2-.7M36 272q0 1.1-1.2.8zm428 17q0 1.1-1.2.8zm-44.6 30.4-1.3.7q0-1.2 1.3-.7M201 394.9q0 1.1-1.2.8zm-3.6 7.4-1.2.8q0-1 1.2-.8M211 409q-.6 1-2 1 .6-1.5 2-1m-36 .8q-.3 1.1-1.3.8zm44.3 21.4-1.2.8q0-1.2 1.2-.8m92 13-1.2.8q0-1.2 1.2-.8m-159.4 22.6q0 1-1.2.8zm88 16q0 1.1-1.2.8z"/><path fill="#6bb578" fill-opacity=".4" d="M250.1 25.3q-.5.7-1.4.7.6-.6 1.4-.7M221 30a4 4 0 0 1-3 2q.6-2.4 3-2m0 14.3q-.3.8-1.2.8.5-.5 1.2-.8m-13.6 12.8-1.3.7q.3-.8 1.3-.7m200.8 17.1q-.6.7-1.6.7zM269 76q-.6 1.3-2.1 1c0-1.1 1.3-1 2-1M386 92q-.4.5-1.2.8.3-1 1.2-.8m-40.9 8a2 2 0 0 1-1.3.6q.4-.7 1.3-.6m43.9 2.2q-.6.8-1.6.7zm22.8 4q-.3.8-1.3.7zm-85.6 4.9-1.3.7q.3-.9 1.3-.7m-10.4 3.1q-.3.8-1.3.8zm127.1 1q-.5.9-1.4.7.6-.5 1.4-.7m-70.7 2.9-1.2.7c-.3-.9.7-.6 1.2-.7m17.9 6-1.3.7q.3-.9 1.3-.7m-38.2 1.1q-.5.7-1.4.7.6-.5 1.4-.7m-5.8 8-1.3.5q.4-.7 1.3-.6m18.6 2q-.3.9-1.3.7zM345.4 150a2 2 0 0 1-1.3.7q.3-.9 1.3-.7m75 3.1-1.4.7q.4-.9 1.3-.7M354 170.3q-.5.6-1.4.6zm5.4-.3-1.3.8q.3-1 1.3-.8M85 179c-.4 1.3-3.6 3-5 3 .8-1.5 3.2-3.2 5-3m-15 22.3q-.4.8-1.3.6.6-.5 1.3-.6m-1 18.9q-.3.9-1.4.7zm338.4 1.8q-.6.5-1.3.7.3-.8 1.3-.7m-367 3q-.7.6-1.6.8.6-.8 1.5-.8m-8 5-1.5.8q.4-.9 1.5-.8m452.7 2.3q-.5.7-1.5.6.8-.5 1.5-.6M59.9 258q-.3 1-1.2.8zm366.3 11q-.6.9-1.5.8zm-392.4 4q0 1-1.2.8zm458.5 4q-.4.4-1.2.6.3-.7 1.2-.6m-17.2 5.1q-.4.9-1.4.8.5-.6 1.4-.8M444 333q-.7 1.2-2.2 1 .7-1.2 2.1-1M96 372.8l-.3 1.2-.8-.2q0-1 1-1M210.4 394l-1.5.6q.5-.7 1.5-.6m-11.5 2.2q-.3.7-1.2.7a2 2 0 0 1 1.2-.7M159.3 426l-1.4.7q.5-.7 1.4-.7m-8 5.1q-.6.6-1.4.6.5-.7 1.3-.6m57 7-1.4.6q.5-.7 1.3-.6m-32.4 15.1q-.3 1-1.3.8.6-.6 1.3-.8m88 16q-.2.9-1.2.7.6-.5 1.2-.7M224.1 481a4 4 0 0 1-3.1 2 3 3 0 0 1 3-2m30.2 0a3 3 0 0 1-1.4.7q.5-.9 1.4-.7"/><path fill="#95ca9e" d="m289.8 196 .1 2c-4.4 2.2-11.2 5.4-14.9 8.7q-.9.4-1.8-.2a290 290 0 0 1 14.7-10 4 4 0 0 1 2-.5M200 320q.8-1.5-.7-1.7l15.3-9q2.6-.3.6 1.3-7.7 4.5-15.2 9.3"/><path fill="#599d62" fill-opacity=".2" stroke="#599d62" stroke-opacity=".2" stroke-width=".5" d="M441.6 173.3q.2 1 1.1 1.3l-25.7 15q-1 .4-2 .3.2-.9 1-1.3 12.6-7.8 25.6-15.3Z"/><path fill="#5ca265" fill-opacity=".2" stroke="#5ca265" stroke-opacity=".2" stroke-width=".5" d="M329.6 185.2q.2 1.2 1.5 1.4-12.5 7-24.7 14.2-.5.3-1.1.2 0-.8.7-1.4 11.9-7 23.6-14.4Z"/><path fill="#6bb577" fill-opacity=".3" d="M244 29q-.2 1-1.2.8zm-43 48a2 2 0 0 1-2 1 2 2 0 0 1 2-1m170 3q-.2 1.1-1.3.7zm34.2 1.2-1.2.8q.3-.8 1.2-.8m-6.9 4q-.6.6-1.3.8.3-1 1.3-.7M357.4 93q-.4.7-1.2 1 0-1 1.2-1m-17.6 23q0 1-1 1 .4-.7 1-1m62.5 1.3-1.3.8q.3-1 1.3-.8m30 29-1.3.7q.3-1 1.3-.7m-61 16.7q-.3.6-1 1 0-1 1-1M153 172a3 3 0 0 1-3 2q.8-2 3-2m-25 14c.3 1-.5.9-1.3.7zm282 7a9 9 0 0 1-5 3 6 6 0 0 1 5-3m-294.7 3.3-1.3.7q.2-1 1.3-.8m323 8-1.3.7q.1-1 1.3-.7M58 208q-.3 1-1.3.7zm356 6q-.1 1.1-1.2.7zM32.3 248.2l-1.3.8q.1-1 1.3-.8m425.7.8q-.2 1-1.2.8zm-34.6 27-1 1q-.2-1.1 1-1M22 280q-.3 1-1.3.7zm165 123q-.3 1-1.2.8zm-8.8 11.3-1.2.7q.3-1 1.2-.8M235 419q-.2 1-1.2.8zm-2 33q-.7 2-3 2a4 4 0 0 1 3-2m41.2 16.2-1.2.8q.3-1 1.2-.8M252 476q-.3 1-1.3.7z"/><path fill="#65b970" fill-opacity=".2" stroke="#65b970" stroke-opacity=".2" stroke-width=".5" d="M254 425a2 2 0 0 1-1 1.3l-11 6.7v-1.2q.7-1 1.6-1.6c2.3-1 8.3-5.4 10.4-5.2Zm75 38q-.2.8-1 1.3l-9 5.8q0-1-1.2-1.3c2.5-1 8.9-5.8 11.2-5.8Z"/><path fill="#a5d2ac" d="m319.7 284.4.3.7c-.2 1.4-3.4 2.6-4.6 3-.7-.7.2-1 .6-1.5zm-11.5 63.2-.1-.8q0-.8.9-1.2c.8-.2 3.1-2.4 3.8-1.3-1 1-2 2-3.2 2.8zm-16 29.1q-.1-.9-1-1l9.8-6.3a2 2 0 0 1 1.8.2q-3.5 2.4-6.8 5-1.8 1.2-3.9 2.1"/><path fill="#61a66a" fill-opacity=".2" stroke="#61a66a" stroke-opacity=".2" stroke-width=".5" d="M442.6 277.2q.2 1 1.2 1.4-9.6 5.2-18.8 10.8-1 .6-2 .3.6-.9 1.6-1.5z"/><path fill="#5a9d64" fill-opacity=".2" stroke="#5a9d64" stroke-opacity=".2" stroke-width=".5" d="M300.7 42.3q0 .9 1 1.3L283 54.5a3 3 0 0 1-1.9.4q0-.9.8-1.3 9.3-5.8 18.8-11.3Z"/><path fill="#67ac74" fill-opacity=".2" stroke="#67ac74" stroke-opacity=".2" stroke-width=".5" d="M108 216c-.8 1.7-3.2 2.5-4.5 3.7q-7.8 4.4-15.4 9.3-.2-1.2-1.4-1.2l16.3-9.5q2.3-1.4 5-2.3Z"/><path fill="#6bb578" fill-opacity=".3" d="M186.3 69.3q-.6.5-1.3.7.2-1.1 1.3-.7M392 84q0 1.1-1.2.7zm4.4 20.3-1.2.7q0-1.1 1.2-.7m-18.4 4.6q0 1.1-1.2.8zm-46 12q0 1.2-1.2.8zm17 6q0 1.1-1.2.8zm57 11q0 1.2-1.2.8zm25 2q0 1-1.2.8zm-105.6 5.4-1.3.7q.3-1 1.3-.7m-13.4 4.6q-.2 1-1.2.8zm113.4.4-1.3.7q.3-.9 1.3-.7M351 171.9q0 1-1.2.8zm-235 21q0 1.2-1.2.8.6-.5 1.2-.7m334.4 4.4q-.6.5-1.2.7.2-1 1.2-.7M419 210.9q-.2 1-1.2.8zm-373 4q0 1.1-1.2.8.6-.5 1.2-.7m359.4 8.4-1.2.8q0-1.1 1.2-.8M81 246q-.3 1.1-1.3.7zm2.3 2.3-1.2.8q0-1.1 1.2-.8m378 6-1.3.7q.2-1.1 1.3-.7m10.6 29.6q-.2 1-1.2.8zM205.3 397.3l-1.2.8q0-1 1.2-.8M331 431c-.5 1.4-3.5 2.9-5 2.8.8-1.5 3.2-3 5-2.8m-184.7 3.2-1.2.8q.2-1 1.2-.8m50.6 6.7q0 1.1-1.2.7.6-.5 1.2-.7m97.4 14.3-1.2.8q0-1 1.2-.8"/><path fill="#6bb577" fill-opacity=".5" d="M302 29.9c-.1.8-1.3 1.7-2 .8a2 2 0 0 1 2-.8m-84 2c.1 1-1.4 1.8-2 .8q.7-1 2-.8m22.2 6.2a2 2 0 0 1-1.2.6q.4-.8 1.2-.6m183 66.9q-.4.6-1.2.7.3-.7 1.3-.7m30.1 29-1.2.8q.2-1 1.2-.8M396 144.2q-.3 1-1.3.8zm-69.5 16.9q-.7.5-1.5.5c-.2-.9 1-.4 1.5-.5m145.8 17.3q-.7.6-1.5.5.7-.6 1.5-.6m-358.8.7-1.3.7q.3-.9 1.3-.7m243 11-1.3.7q.3-.9 1.3-.7m-244.1 8q-.6.5-1.3.7.3-.9 1.3-.7M63 205.3q-.4.8-1.2.6zm-27 33.9q-.2.8-1.1.8.5-.6 1.1-.8M29.4 250q-.7.6-1.6.7.6-.7 1.6-.7M27 277.3q-.4.8-1.3.7.6-.6 1.3-.7m402.9 33q-.2.9-1.1.6.5-.4 1.1-.6m47 25.6q-.8 1.9-2.9 2 .6-2 3-2m-257.9 68q-.9 2-3 2.2c.1-1.5 1.8-1.9 3-2.1m-43.7 12q-.7.8-1.5.9.5-.8 1.5-.8m242.8 0c-.1.9-1.4 1.7-2 .8a2 2 0 0 1 2-.7m-249.8 47.2q-.7.6-1.6.6a2 2 0 0 1 1.6-.6m100 9-1.5.6q.6-.6 1.5-.6M231 488.3q-.4.8-1.3.6z"/><path fill="#63a16c" fill-opacity=".2" stroke="#63a16c" stroke-opacity=".2" stroke-width=".5" d="M322.6 161.2q.3 1.2 1.5 1.3-8 4.5-16 9.3-1.5.7-3 1v-.6a479 479 0 0 1 17.5-11Z"/><path fill="#6bb577" fill-opacity=".4" d="M217.8 46q0 1-1.2.9zm161.6 50.1a3 3 0 0 1-1.5.7q.4-.7 1.5-.7m-41 8-1.4.6q.4-.8 1.3-.7m111 13.9a2 2 0 0 1-1.4.7q.3-.8 1.3-.7M308 119.3q-.3.7-1.3.7.6-.5 1.3-.7m83 0q-.3.8-1.4.6zm-7.7 8.8-1.2.7q.3-.9 1.2-.7m17.8 13.2q-.5.7-1.3.7zm12.2 15.7q-.6.6-1.3.7.3-.7 1.3-.7M155 171a2 2 0 0 1-1.9 1q.5-1.3 2-1m197.4 3-1.3.8q.3-.8 1.3-.8m124.3 1q0 1-1 1zm-345.4 11-1.1 1q0-1.2 1.1-1M77 197.2q-.4.9-1.4.8.6-.5 1.4-.8m-1 19q-.4.9-1.3.7.6-.5 1.3-.6M24.3 235l-1 1q-.2-1 1-1m24 3-1 1q0-1 1-1m437 43q-.6.5-1.4.7.4-.7 1.5-.6M477 336q.6-1 1.6-1c1.3.8-1 1.3-1.6 1M64 368.9q-.5 1.3-2 1 .7-1 2-1m141.8 23.4q-.2.8-1.1.6zm10.2 13.8a2 2 0 0 1-2 1c-.2-1.2 1.2-1.2 2-1m16.3 16.9q-.6.6-1.4.7.5-.7 1.4-.7m101.7 6a4 4 0 0 1-3 2 3 3 0 0 1 3-2m-63 36.3q-.4.7-1.3.7.4-.5 1.2-.7"/><path fill="#6ab576" fill-opacity=".2" stroke="#6ab576" stroke-opacity=".2" stroke-width=".5" d="M358 105q-.3 1-1.3.7zm-40.7 11.3-1.2.8q0-1.2 1.2-.8Zm57.6 12.6q0 1-1.2.8zm-34 3q-.2 1-1.2.8zm21.4 8.4-1.2.8q.2-1 1.2-.8Zm-212.2 33.6q-.7 1.4-2.2 1 .7-1 2.2-1Zm-30.8 1.4-1.2.8q0-1 1.2-.8Zm-21.4 9.6q0 1.1-1.2.8zm43 27.2c-.4 1.4-8.5 5.6-10 6.7a3 3 0 0 1-1.9 0q.7-1 1.6-1.6l8.9-5.1zm323.4 81.2-1.2.7q0-1.1 1.2-.7Zm-16.4 5.6q0 1-1.2.8zM292 453q0 1.1-1.2.8z"/><path fill="#92c99b" d="M255.2 345a2 2 0 0 0-1-1.7l15.4-9q2.5-.3.6 1.3-7.5 4.4-15 9.3"/><path fill="#66af6f" fill-opacity=".2" stroke="#66af6f" stroke-opacity=".2" stroke-width=".5" d="M428.8 327q.3.9 1.3 1.3l-14.7 8.5q-1.5 1.1-3.5 1 8.2-5.6 16.9-10.7Z"/><path fill="#5da366" fill-opacity=".2" stroke="#5da366" stroke-opacity=".2" stroke-width=".5" d="m237.7 111 .2 1.8-15 8.6q-.7.6-1.8.5.5-1 1.5-1.7 7.5-4.8 15.1-9.1Z"/><path fill="#5ca565" fill-opacity=".2" stroke="#5ca565" stroke-opacity=".2" stroke-width=".5" d="M144 159q-.5 1.2-1.6 1.8-5 3-9.8 6.3-1.5 1-3.4 1.6-.3-1-1.3-1.1l14-8.1q1-.6 2-.5Z"/><path fill="#67ad6f" fill-opacity=".2" stroke="#67ad6f" stroke-opacity=".2" stroke-width=".5" d="M156 394.3q-.3.6-1 1l-16 9.7q0-1-1.3-1.2l16.3-9.4q1-.5 2-.1Z"/><path fill="#528f5b" fill-opacity=".1" stroke="#528f5b" stroke-opacity=".1" stroke-width=".5" d="M453.7 223.3q0 1 1 1.3l-13.7 8q-1 .5-2 .5l-1-.4z"/><path fill="#67b673" fill-opacity=".2" stroke="#67b673" stroke-opacity=".2" stroke-width=".5" d="M230 454a2 2 0 0 1-1 1.2q-8 4.7-15.7 9.8-.4-.9-1.4-1.3 8.2-4.5 16-9.5a5 5 0 0 1 2.1-.3Z"/><path fill="#548c5b" fill-opacity=".1" stroke="#548c5b" stroke-opacity=".1" stroke-width=".5" d="M436.7 247.2q0 1 1 1.5l-13.7 7.9q-1.2.3-2-.5 7.5-4.3 14.7-8.9Z"/><path fill="#629f6a" fill-opacity=".2" stroke="#629f6a" stroke-opacity=".2" stroke-width=".5" d="M218.8 65.3q0 1.2 1.3 1.2l-14 8.2q-1 .3-2 .3.2-.9.9-1.3 6.6-4.5 13.8-8.4Z"/><path fill="#5eaa68" fill-opacity=".2" stroke="#5eaa68" stroke-opacity=".2" stroke-width=".5" d="M58.9 181q-.4 1.2-1.5 1.8l-13 8q-.5-1-1.5-1.2l14-8.1q1-.6 2-.4Z"/><path fill="#61b16c" fill-opacity=".2" stroke="#61b16c" stroke-opacity=".2" stroke-width=".5" d="M148 175q-.6 1.2-1.6 1.8l-13 8q-.5-.8-1.4-1l14-8.2q.8-.6 2-.6Z"/><path fill="#5ea268" fill-opacity=".2" stroke="#5ea268" stroke-opacity=".2" stroke-width=".5" d="m294 60.2 1 1.3-14 8q-1 .5-2 .5.6-1.1 1.6-1.8z"/><path fill="#62b16d" fill-opacity=".2" stroke="#62b16d" stroke-opacity=".2" stroke-width=".5" d="M258 405q1.5-.2 3 .3-7 4.5-14 8.7-.2-1-1.4-1 5-3.2 10-6a10 10 0 0 0 2.4-2Z"/><path fill="#59a061" fill-opacity=".2" stroke="#59a061" stroke-opacity=".2" stroke-width=".5" d="M318.7 129.4q.2 1 1.4 1-2 1.4-4.1 2-4.2 3-8.7 5.4l-.3-1q0-.5.4-.8 5.6-3.4 11.3-6.6Z"/><path fill="#6ab576" fill-opacity=".3" d="M257.3 28.3q-.6.5-1.2.7 0-1 1.2-.7M238 32.9q0 1-1.2.8zm157.4 38.4q-.6.5-1.2.7 0-1 1.2-.7M363 84.9q-.2 1-1.2.8zm23 19q0 1-1.2.8zm-46.6 15.4-1.3.7q.3-1 1.3-.7m70 22-1.3.7q.3-1 1.3-.7m-24.4 9.6q0 1-1.2.8zm-268 23q0 1.2-1.2.8zm256.4 6.4q-.6.5-1.3.7.3-1 1.3-.7m-319 36-1.2.8q0-1 1.2-.8M18.9 249q0 1.1-1.2.7zm412 17q0 1-1.2.7zm14.4 38.3-1.3.7q.3-1.1 1.3-.7m-19.2 106.4c-.7 2-3 3.2-5 3.3.3-1.6 3.5-3 5-3.3m-214.8 25.6-1.2.8q0-1.2 1.2-.8m99.6 5.7q0 1.2-1.2.8.6-.6 1.3-.8"/><path fill="#9ecea6" d="M292 165v2.8c-2.8.6-8 4.3-10.9 5.9q-.5 0-.8-.3 5.7-4.6 11.7-8.4"/><path fill="#58aa60" fill-opacity=".2" stroke="#58aa60" stroke-opacity=".2" stroke-width=".5" d="M314.7 212.3q.5 1 1.4 1.1l-11 6q-1.1.8-1.8 1.8l-.4-1.5q5.8-3.9 11.8-7.4Z"/><path fill="#487c4d" fill-opacity=".1" stroke="#487c4d" stroke-opacity=".1" stroke-width=".5" d="M262.8 487.8q1.1 0 1.3 1.2-3.9 2.2-7.3 4.8-1.8.3-3.7 0 4.7-3.3 9.7-6Z"/><path fill="#6db377" fill-opacity=".2" stroke="#6db377" stroke-opacity=".2" stroke-width=".5" d="m108.3 52.9-.2 1q-.5 0-1 .4 0-1.2 1.2-1.4Zm90 9.4-1.2.8q.2-1 1.2-.8ZM384 89q0 1.1-1.2.8zm-6.6 8.4-1.2.8q.2-1 1.2-.8ZM326 107.9q0 1-1.2.8zm17 69q-.2 1-1.2.8zm89 26q0 1-1.2.8zM78 215q-.2 1-1.2.8zm346 99q0 1.1-1.2.8zm33.2 64c0-1.1 5.3-4.3 6.4-4.1 1 1.4-5.2 4.4-6.4 4.1Z"/><path fill="#64b970" fill-opacity=".2" stroke="#64b970" stroke-opacity=".2" stroke-width=".5" d="M75 185q-.2.9-1 1.3L63 193v-1.3c1.5-2 7.7-4.6 10-6.3q1-.5 2-.3Z"/><path fill="#66a873" fill-opacity=".2" stroke="#66a873" stroke-opacity=".2" stroke-width=".5" d="M179.6 71.1q.6.9 1.5 1.3l-9 5.2q-1 .5-2 .4 0-.9.9-1.3z"/><path fill="#67ad71" fill-opacity=".2" stroke="#67ad71" stroke-opacity=".2" stroke-width=".5" d="m274 482-1 1.4-9 5.7q0-1.2-1.2-1.3c2.4-1 9-6 11.2-5.8Z"/><path fill="#6bb573" fill-opacity=".2" stroke="#6bb573" stroke-opacity=".2" stroke-width=".5" d="m438 232.7 1 .4q-.6 1-1.6 1.7l-8.4 4.8q-1 .5-2.1.1a210 210 0 0 1 11-7Z"/><path fill="#6ab578" fill-opacity=".2" d="M260.8 18q0 1-1 .7zm75.5 87.3-1.2.8q0-1.1 1.2-.8m45 24-1.2.8q0-1 1.2-.8m-48.4 7.6q-.2 1-1.2.8zm53 31q-.2 1-1.2.8zm-35.6 7.4-1.2.8q0-1 1.2-.8m6.6 10.6q0 1-1.2.8zM79 196q0 1.1-1.2.8zm31.4 3.4-1.2.8q.1-1 1.2-.8m230 0-1.2.8q.2-1 1.2-.8m77 17-1.2.8q.2-1 1.2-.8m-398 22-1.2.8q0-1.2 1.2-.8M432 308.9q0 1-1.2.8zm-224 82q0 1.1-1.2.8zm89.4 62.4-1.2.8q.1-1 1.2-.8M273 463.9q0 1-1.2.8zm-56.8 22.2c-.5.6-1.5 1.5-2 .6q.7-.9 2-.6"/><path fill="#95c39d" d="m289.3 220.1 1.4 2.5c-2.5.2-6.2 3-8.4 4.3q-.8.4-1.3-.3a77 77 0 0 1 7-5q.8-.7 1.3-1.5"/><path fill="#64ad6f" fill-opacity=".2" stroke="#64ad6f" stroke-opacity=".2" stroke-width=".5" d="M401.7 396q.4 1 1.4 1.3-4.7 2.5-9 5.2-1 .6-2.1.5.2-.9 1-1.3z"/><path fill="#84a088" fill-opacity=".1" d="M194.9 355.2c-1.2 2-3 2-4.5 3.6-1.4.2-2.9 2.6-4.2 2v-1q.3-.8 1.1-1.1 3-1.4 5.7-3.3.9-.5 1.9-.2"/><path fill="#65aa6f" fill-opacity=".2" stroke="#65aa6f" stroke-opacity=".2" stroke-width=".5" d="m235.1 20.7.7.3q-.3 1.2-1.4 1.8l-6.4 3.7q-1 .6-2 .5 0-.9 1-1.4z"/><path fill="#96ca9f" fill-opacity=".9" d="M287.8 210v1.8l-8.5 4.3q0-.3-.3-.4 3.4-2.8 7-5.2a3 3 0 0 1 1.8-.4"/><path fill="#509359" fill-opacity=".1" stroke="#509359" stroke-opacity=".1" stroke-width=".5" d="M101 128.7v1.4l-7.7 4.7q0-1-1-1.4v-.1q4.2-2.5 8.7-4.6Z"/><path fill="#65b56e" fill-opacity=".2" stroke="#65b56e" stroke-opacity=".2" stroke-width=".5" d="M122 98a23 23 0 0 1-7.9 5.7l-1.2-1.1c2-.8 7-4.8 9-4.5Z"/><path fill="#69b675" fill-opacity=".2" d="m205.3 58.3-1.2.8q0-1.1 1.2-.8M415 85.9q0 1.1-1.2.8zm-81 17q0 1-1.2.8zm10.4 31.4-1.2.8q0-1 1.2-.8M328 158q0 1.2-1.2.7zm66 5q0 1-1.2.7zm-29 18q0 1-1.2.7zM73.3 204.2l-1.2.8q.1-1 1.2-.8m248 6-1.2.7q0-1.2 1.2-.7m77 17-1 .8q-.2-1 1-.8m82 16q-.6.5-1.2.7 0-1 1.2-.7M62 256.9q-.2 1-1.2.8zm116 195q0 1.1-1.2.8z"/><path fill="#8fc598" d="M252.3 172q.4-1.5.5-2.8 2.7-1 5-2.7.6-.5 1.2 0l-5 4.9a2 2 0 0 1-1.7.5"/><path fill="#6bb779" fill-opacity=".3" d="m391.3 89.3-1.3.7q.2-1.1 1.3-.7M379 92q-.2 1-1.2.7zm-28.6 5.3q-.6.5-1.3.7.3-1.1 1.3-.7m45 24q-.6.5-1.3.7.3-1.1 1.3-.7M320 144.9q0 1-1.2.8zM83.3 216.3l-1.2.7q0-1.1 1.2-.7m339.6 54.6q0 1-1.2.8zM149 425q0 1-1.2.7zm110 47q-.3 1-1.2.8zm-40 12a4 4 0 0 1-3 2.1q.8-2.3 3-2"/><path fill="#6bb678" fill-opacity=".3" d="M245.4 35q-.7.6-1.5.7.4-.8 1.5-.7m182.9 67-1.4.7q.5-.7 1.4-.7m-212.4 23q-.3 1.3-1.8 1c-.2-1 1.1-1.1 1.8-1m111.4 1.3-1.3.5q.3-1 1.2-.5m70 21.8q-.5.6-1.3.6.5-.7 1.4-.6m-17.6 6q.1 1-1 1zm-18.4 33q-.5.5-1.1.6.2-.7 1.1-.6M146 209q-.5 1.2-2 .8c-.1-1 1.3-1 2-.8m-99.8 62-1 .8q0-1 1-.9M433.3 311l-1.2.8q.3-.9 1.2-.8m-270 155-1 .9q0-1 1-.9"/><path fill="#6ab376" fill-opacity=".9" d="M243 5c1.7-.3 5.5 0 6.3 2a58 58 0 0 1-8.3 0l.3-.7 1-.3z"/><path fill="#6ab676" fill-opacity=".3" d="M215 48q-.3 1-1.2.7zm4.3 2.3-1.3.8q.3-1 1.3-.8M350 93q-.2 1-1.2.8zm-29 18q-.1 1.1-1.3.7zm37.3 15.3-1.3.8q.3-1.1 1.3-.8M414 133q-.3 1-1.2.7zM89.3 194.3l-1.3.7q.3-1 1.3-.7m246 8q-.6.5-1.3.7.3-1.1 1.3-.7m77 17-1.3.8q.3-1.1 1.3-.8M57 227q-.3 1-1.3.7zm370 85q-.3 1-1.2.7zM171.3 461.3l-1.3.7q.3-1 1.3-.7"/><path fill="#6cb576" fill-opacity=".2" d="M268.8 5.2q1.1 0 1.3 1l-1-.1zm-66 50.7q0 1-1.1.8zm194.2 8q-.3 1-1.3.8zm-45.7 48.4-1.2.8q0-1 1.2-.8m-41 8-1.2.8q0-1.3 1.2-.8m66.6 35.6q-.2 1-1.2.8zm-265.6 24.4-1.2.8q0-1 1.2-.8m-6.4.6q0 1-1.3.8zm-1 19q0 1.2-1.3.8zm-1.6 4.4-1.2.8q0-1 1.2-.8M411 215.9q0 1.2-1.2.8zm46.4 81.4-1.2.8q0-1.1 1.2-.8"/><path fill="#6cb477" fill-opacity=".3" d="m422.3 89.3-1.3.7q.3-1.1 1.3-.7m-57 15-1.3.7q.3-1.1 1.3-.7m-41 8-1.3.7q.3-1 1.3-.7m71.6 3.7q0 1.1-1.2.7zm6 42q0 1.1-1.2.7zm74.4 24.3-1.2.8q.2-1 1.2-.8M90 208q-.3 1-1.3.7zm-14.7 13.3-1.2.8q0-1 1.2-.8M20 230q-.2 1.1-1.3.7zm451.3 59.3-1.3.7q.3-1 1.3-.7m-194 177-1.2.8q.2-1 1.2-.8"/><path fill="#6bb575" fill-opacity=".3" d="M238.3 39.3q-.6.5-1.2.7 0-1.1 1.2-.7M429.9 95q0 1.1-1.2.7zm-52.6 20.3q-.6.5-1.3.7.3-1.1 1.3-.7M427 125q-.2.9-1.2.7zm4.4 83.3q-.6.5-1.2.7 0-1.1 1.2-.7m-369 3-1.2.7q0-1 1.2-.7M64 223q-.3 1.1-1.3.7zm410 16q-.3 1-1.3.7zM54.2 266.3l-1.2.7q0-1.1 1.2-.7m433.6 7.6q0 1-1.2.8zM29 276q0 1-1.1.8z"/><path fill="#62a46d" fill-opacity=".8" d="M107 54.3q-.4.7-1.3.4.7-.4 1.3-.4m-1.3.4c.4 1.6-1.3 2.4-2.7 2.2l.2-1zm-3.8 2.7 1-.5q0 1-1.2 1zM228.1 505q2.6-.3 5 0c-.7 1.4-3.9 1.6-5 .6z"/><path fill="#6cb378" fill-opacity=".3" d="m384.3 93.3-1.2.8q0-1.2 1.2-.8m-41 8-1.2.7q0-1.1 1.2-.7m45 24-1.2.8q0-1 1.2-.8m-31 46-1.2.8q0-1.1 1.2-.8M336 198.9q-.2 1-1.2.8zM71 219q-.2 1-1.2.8.6-.5 1.2-.7m419.4 59.4-1.2.7q0-1.1 1.2-.7M456 293.9q0 1-1.2.8zM138.3 439.3l-1.2.8q.2-1 1.2-.8M266 467.9q0 1.1-1.2.8z"/><path fill="#6bb379" fill-opacity=".2" d="m196.4 14.1-.5.7-1 .5q.2-1.2 1.5-1.2m166 76.2-1.3.8q0-1.1 1.2-.8m25.5 30.6q0 1.1-1.2.8zm10 22q0 1.2-1.2.8zm-21.6 17.4-1.2.8q0-1.2 1.2-.8m-258 34-1.2.8q0-1 1.2-.8m209.6 9.6q0 1.2-1.2.8zM70.3 256.3l-1.2.8q0-1 1.2-.8M230 421.9q-.2 1-1.2.8zm50.4 42.4-1.2.8q0-1.1 1.2-.8"/><path fill="#6cb679" fill-opacity=".2" d="M205.9 54q0 1-1.2.7zm126.4 69.3q-.6.5-1.2.7 0-1.1 1.2-.7m70 22-1.2.8q0-1 1.2-.8M364 163.9q0 1-1.2.8zm-240 6q0 1.2-1.2.8.5-.5 1.2-.7m242.4 14.4-1.2.8q0-1.1 1.2-.8M440 303.9q0 1.1-1.2.8zm-1.6 4.4-1.2.7q.2-1.1 1.2-.7m-196 107.4 1 .6-1.1.8zM406 457.1l1-.4q0 1.2-1.2 1.5z"/><path fill="#6ab575" fill-opacity=".2" d="m396.3 86.3-1.2.8q0-1 1.2-.8m-41 8-1.2.8q0-1.1 1.3-.8m45 24-1.2.8q0-1.2 1.2-.7M367 134q0 1-1.2.8zm2.5 30.4-1.3.8q0-1.2 1.3-.8M356 169q-.2 1-1.2.8.5-.5 1.2-.8m-22.6 34.4-1.2.8q.2-1 1.2-.8m-255 48q-.4.5-1.2.8 0-1.2 1.2-.8M237 418q0 1.2-1.2.6z"/><path fill="#5ebd6b" fill-opacity=".2" stroke="#5ebd6b" stroke-opacity=".2" stroke-width=".5" d="M326 434c-.8 2-3.3 2.8-5 4q0-1.1-1.2-1.2c2-.7 4-3.1 6.2-2.9Z"/><path fill="#3b8142" fill-opacity=".1" stroke="#3b8142" stroke-opacity=".1" stroke-width=".5" d="m238.4 17.9 1.7-.3q.8.3 1.2 1.2c-1.7.7-3.5 2.7-5.5 2.2l-.7-.3q1.8-1.2 3.3-2.8Z"/><path fill="#6ab778" fill-opacity=".2" d="M350 110q-.3 1.1-1.3.7zm-12.6 28.3-1.3.8q.1-1 1.3-.8m16.5 3.6q0 1.2-1.2.8zm1.4 2.4-1.2.8q0-1 1.2-.8m22.6 28.6q-.2 1-1.2.8zM69 253q-.2 1-1.2.8zm245.4 189.4q-.6.5-1.2.7 0-1.2 1.2-.7M185 447.9q-.1 1-1.2.8zm114 1q0 1.1-1.2.8z"/><path fill="#60bc69" fill-opacity=".2" stroke="#60bc69" stroke-opacity=".2" stroke-width=".5" d="M106 77c0 1.4-4 3.2-5 4q0-1-1.2-1.2c1.7-.8 4.2-3.1 6.1-2.8Z"/><path fill="#6bb577" fill-opacity=".7" d="M246.7 506q3.3-.4 6.7-.1c-.8 2-6.4 2-6.7.1"/><path fill="#95db9d" fill-opacity=".2" d="M191.3 339.3h1.4c-.1 1.5-2.7 1.8-3.5 2.8H187v-.8l1-.4 1.4-.6q1.1 0 1.9-1"/><path fill="#89c493" fill-opacity=".6" d="M228 136c-.5.9-2 2.5-3 1.6a3 3 0 0 1 3-1.5m-70 33q-1 1.7-3 2 .8-2.2 3-2m-87 5q.5-2 2.6-2c1.2 1-2 1.9-2.6 2m327 26q-1.1 1.7-3 2 .7-2.2 3-2M192.8 339.4h-1.4q-.2-.8.4-1.2l12.8-7.2q4.7-3.4 9.8-6.3 1.2-1 2.4.1-3 1.9-6.2 3.1l-5.3 4q-5.5 3.1-10.9 6.9zM474 338c-.3.7-1.4 1.6-2 .7a2 2 0 0 1 2-.7m-282.7 1.3q-.8 1-2 1c-.4-1.2 1.2-1.2 2-1m-2 1-1.3.6q.3-.9 1.4-.6M219 404c.2-.7 1.4-1.5 2-.6a2 2 0 0 1-2 .6m168 1.9c-.4.8-2 2.8-3 1.7.3-1.3 2-1.5 3-1.7"/><path fill="#69b774" fill-opacity=".2" d="M317.9 112.9q0 1.2-1.2.8zm72 35q0 1-1.2.8zm-46.6 31.4-1.2.8q0-1.1 1.2-.8m138 0-1.2.8q.2-1 1.3-.8M86 192q0 1.2-1.3.7zm-1 19q0 1.1-1.3.8zm195 249q-.2 1.1-1.2.7zm89 18.9q0 1-1 1.1 0-1 1-1.1"/><path fill="#69b478" fill-opacity=".2" d="M346.9 95q0 1.1-1.2.7zm-10 23q0 1.1-1.2.7zm-25.5 35.3-1.3.8q0-1 1.3-.8M95 237.9q-.2 1-1.4.8zm321 81q-.1 1.3-1.3.8zM211 433q-.3 1-1.3.8zm-28.7 21.4-1.2.8q0-1.1 1.2-.8M227 505l1 .1v.6q-1 .2-1-.7"/><path fill="#c7e3cb" fill-opacity=".2" stroke="#c7e3cb" stroke-opacity=".2" stroke-width=".5" d="M270.4 90.3q1.2-.5 2.6-.1c-.4.2-6.6 4.4-5.7 2.1l1-1.1q1-.3 2-.9Z"/><path fill="#aec8b2" d="M267.3 82.6q-2.3.7-4.4.4 1.5-1.5 3.6-2 2 .1.8 1.6"/><path fill="#e9f7e1" d="m173.3 327.9.1 1-.1 1.1c-1.8-.2-2.3.9-3.8 1.2-1.1-1.4 2.7-3.2 3.8-3.3"/><path fill="#6db678" fill-opacity=".2" d="m103.2 56-.2.9-1 .5a2 2 0 0 1 1.2-1.5M349 191q0 1-1.2.7zm-264.6 6.3-1.2.8q0-1.2 1.2-.8m352 8-1.2.8q0-1 1.2-.8M493 271q-.2 1-1.2.8zM190.3 449.3l-1.2.8q.1-1 1.2-.8"/><path fill="#6bb375" fill-opacity=".2" d="M324.9 142q-.1 1-1.2.7zm70.4 7.3-1.2.8q0-1.2 1.2-.8m-10 24-1.2.8q0-1 1.2-.8m-26 15-1.2.8q0-1.2 1.3-.8m72 124-1.2.8q.1-1 1.3-.8M228 489.9q0 1.1-1.2.8z"/><path fill="#6ab777" fill-opacity=".2" d="M355 90q-.3 1.1-1.3.7zm-36.7 59.3-1.2.8q0-1 1.2-.8m18 6-1.2.7q0-1.1 1.2-.7m-210 34q-.6.5-1.2.7 0-1.2 1.2-.7m-35 54-1.2.8q.1-1 1.2-.8M204 436.9q0 1-1.2.8z"/><path fill="#47794f" fill-opacity=".1" stroke="#47794f" stroke-opacity=".1" stroke-width=".5" d="M319.8 436.8q1.2 0 1.3 1.2-1.4 1-3.2 1.7 0-.6-.6-.5c-.5-1.2 1.8-1.8 2.5-2.4Z"/><path fill="#6db377" fill-opacity=".2" d="m217.3 51.3-1.2.8q0-1 1.2-.8m139 76-1.2.8q0-1.2 1.2-.8m-262 82-1.2.8q0-1 1.2-.8m-8 5q-.4.5-1.2.8 0-1 1.2-.8m324 6-1.2.8q0-1.1 1.2-.8M50 264q-.1 1.1-1.3.8z"/><path fill="#6db475" fill-opacity=".2" d="m358.3 108.3-1.2.8q0-1.1 1.2-.8M97 203.9q0 1.1-1.2.8zm-9 38q0 1.2-1.2.8.5-.5 1.2-.7m147.4 179.4-1.2.8q0-1.1 1.2-.8m-8 5-1.2.8q0-1.1 1.2-.8"/><path fill="#3f6d48" fill-opacity=".1" stroke="#3f6d48" stroke-opacity=".1" stroke-width=".5" d="M310 104q-1.4 1-3.3 1.2c-1.4-1 3.8-3.6 3.3-1.3Z"/><path fill="#677e6b" fill-opacity=".8" d="m185.3 341.1 1.7.2v.8q-.8.6-.8 1.7l-.5 1.2q-.4-1.9-.4-3.9"/><path fill="#6ab477" fill-opacity=".2" d="M371 97q-.3 1-1.3.7zm-66 24q-.1 1.1-1.3.7zm36 29q-.3 1-1.3.7zm-218 39q-.3 1.1-1.3.7zm-30.7 3.3-1.2.8q.1-1 1.2-.8"/><path fill="#6bb577" fill-opacity=".9" d="m265.9 4.7 2 .3.9.2.3.9a17 17 0 0 1-5.3 0q.5-1.3 2-1.4"/><path fill="#3f6f49" fill-opacity=".1" stroke="#3f6f49" stroke-opacity=".1" stroke-width=".5" d="M117 224.9q1.4 0 2.8.4a6 6 0 0 1-4 2q.3-1.4 1.1-2.4Z"/><path fill="#6da476" d="M386 270a3 3 0 0 1-2.9 2 3 3 0 0 1 2.9-2"/><path fill="#5f9c6a" fill-opacity=".7" d="m406 457-.3 1.2-.7-.2q0-.9 1-1m-1 1q-.5 1.3-2 1.3.5-1.5 2-1.3m-2 1.3q-.2.6-1 .7.3-.9 1-.7"/><path fill="#ccddcf" d="m197 231.2 3-.4q-.6 1.5-1.8 2-1-.4-1.1-1.6"/><path fill="#62a46e" fill-opacity=".4" stroke="#62a46e" stroke-opacity=".4" stroke-width=".5" d="m296.3 8-3.6-.1q1.1-1.4 3-.7.4.3.6.9Z"/><path fill="#79907c" fill-opacity=".1" d="M187 342.1h1v.9q-.7.6-1.8.8 0-1 .7-1.7"/><path fill="#87c391" fill-opacity=".9" d="m268 90 2.4.3-2.1.9zm.3 1.2-1 1.1q-.2-1.2 1-1.1"/><path fill="#9bcda3" d="M251 112.1c2.9-.6 1.6 1.6.1 2z"/><path fill="#609e6a" fill-opacity=".6" d="M90.4 85q0 .2.3.3c.2 1-1.1 1-1.7 1q.3-1 1.4-1.2"/><path fill="#6cb577" fill-opacity=".2" d="m268 5-2.1-.3c.5-1 2.3-.9 2 .3"/><path fill="#476d4f" fill-opacity=".2" stroke="#476d4f" stroke-opacity=".2" stroke-width=".5" d="M411.8 278q.1 1-.2 2.2l-.6-1.4q.3-.6.8-.9Z"/><path fill="#52845a" fill-opacity=".4" stroke="#52845a" stroke-opacity=".4" stroke-width=".5" d="M374 475.9q0 1-1 1 .2-1 1-1Z"/><path fill="#5e9968" fill-opacity=".4" stroke="#5e9968" stroke-opacity=".4" stroke-width=".5" d="M136.3 37q-.4.9-1.4 1.1.2-1 1.4-1.2Z"/><path fill="#578c62" fill-opacity=".3" stroke="#578c62" stroke-opacity=".3" stroke-width=".5" d="m134.3 38.2-1.3.8q.3-1 1.3-.8Z"/><path fill="#fff" fill-opacity=".3" d="M188 342.1h1.1l-1 .9z"/><path fill="#729e79" d="M388 351q-.1.9-1 1 .2-.9 1-1"/><path fill="#99c39f" d="M386 352.1q-.3.8-1.1.9.4-.7 1-.9"/><path fill="#588962" fill-opacity=".2" stroke="#588962" stroke-opacity=".2" stroke-width=".5" d="m108.2 387.2.9-.1q-.3.6-1 .7z"/><path fill="#67af73" fill-opacity=".9" d="M49 139q-.2.9-1 1.3 0-1 1-1.3"/><path fill="#88bc91" d="M371 394q-.2.7-1 1 .2-.9 1-1"/><path fill="#68af74" fill-opacity=".3" stroke="#68af74" stroke-opacity=".3" stroke-width=".5" d="m494 234.7-.2 1.3-.5-.1q0-.8.7-1.2Z"/><path fill="#67b072" fill-opacity=".5" stroke="#67b072" stroke-opacity=".5" stroke-width=".5" d="M451.4 397q-.6 1-1.6 1 .6-1 1.6-1Z"/><path fill="#496d4d" fill-opacity=".3" stroke="#496d4d" stroke-opacity=".3" stroke-width=".5" d="m120.4 46.2-1.4.8q.2-1 1.4-.8Z"/><path fill="#87c396" fill-opacity=".1" stroke="#87c396" stroke-opacity=".1" stroke-width=".5" d="M394 333v1l-.8-.3q0-.6.7-.7Z"/><path fill="#51845a" fill-opacity=".3" stroke="#51845a" stroke-opacity=".3" stroke-width=".5" d="M115.3 49a2 2 0 0 1-1.3 1.2q0-1.2 1.3-1.2Z"/><path fill="#6bb877" fill-opacity=".2" stroke="#6bb877" stroke-opacity=".2" stroke-width=".5" d="m241.3 6.3-.3.8-1.2.1q.3-1.1 1.5-1Z"/><path fill="#646464" fill-opacity=".2" stroke="#646464" stroke-opacity=".2" stroke-width=".5" d="M394.8 226.9q1 0 1.3 1-.6 0-1.1-.2z"/><path fill="#b3dd9c" fill-opacity=".7" stroke="#b3dd9c" stroke-opacity=".7" stroke-width=".5" d="M169.1 227q.8 0 .8.9h-.7z"/><path fill="#5d9766" fill-opacity=".6" d="M370.1 478.1q-.5.6-1.2.7.5-.6 1.2-.7"/><path fill="#578a5f" fill-opacity=".6" d="M112.4 51q-.4.9-1.3 1.3 0-1.2 1.3-1.3"/><path fill="#588d61" fill-opacity=".3" stroke="#588d61" stroke-opacity=".3" stroke-width=".5" d="M400 460.8q0 1.2-1.3 1.3.4-1 1.3-1.3Z"/><path fill="#588e61" fill-opacity=".5" d="M372.3 477a2 2 0 0 1-1.4 1q.4-1 1.4-1"/><path fill="#4a7352" fill-opacity=".2" stroke="#4a7352" stroke-opacity=".2" stroke-width=".5" d="M376 475q-.2.9-1.1.9a2 2 0 0 1 1.1-.9Z"/><path fill="#69b375" fill-opacity=".4" stroke="#69b375" stroke-opacity=".4" stroke-width=".5" d="M352.1 38.2h1.2q-.7.7-1.7.8z"/><path fill="#6bb577" stroke="#6bb577" stroke-width=".5" d="M209.3 12q-6.6 1.5-13.4 2.8l.5-.7c3.8-1.4 9.7-7.5 13-2.1Zm34.6 5.3q9.1-.4 18.4 0-.7.6-1.5.7l-1 .7q-3.5 2.2-6.7 4.5l-1.4.7-1.6 1.4q-.8 0-1.4.7l-2 1-1 1-3 1.8-3 2q-.7.6-1.8 1.1l-1.2.8q-6.3 4.2-12.5 8.6l-1.5.7-1.7 1.3q-.7.3-1.2.8l-3.2 1.8q-.7.6-1.6 1l-1.2.9-1.9 1.1-1.2.8q-.7.8-1.8 1.2l-1.2.8L206 54l-1.2.8-3 2-6.6 4.5q-.8.2-1.4.7l-1.6 1.3q-.8.3-1.4.8a54 54 0 0 0-9 5.7l-2 1.4-8.7 5.6a2 2 0 0 0-1 1.3q-2.1 0-3 2-1.1-.2-1.8.7c.6 1 1.8.1 1.9-.7q2.1 0 3-2 1 .1 2-.4a335 335 0 0 0 14.2-8.3l.7-.6q.8 0 1.3-.6l5-2.8 5-3 .7-.5 1.4-.7 5-2.8.7-.4 1.3-.8 4.9-2.8.7-.6q.8 0 1.3-.6l3-1.8.7-.2 1.3-.8q3-1.6 5.7-3.6.8 0 1.4-.6l5-2.8.6-.6q.8-.1 1.3-.6l5-2.8.7-.6a2 2 0 0 0 1.2-.6q2-.9 3.7-2.4.7 0 1.5-.7 3-1.4 5.5-3.3.8 0 1.5-.6l5-2.8.5-.6q.8 0 1.5-.6l4.9-2.8 7-4.3q1.5-.5 2.5-1.8 7.8.7 15.4 1.8-35.3 22.5-70.4 45.3-7.1 3.9-13.8 8.4-.8.4-.8 1.3-2.3-.1-3.2 2a2 2 0 0 0-2 1q-2 0-3 1.7c1 1 2.6-.7 3-1.7a2 2 0 0 0 2-1q2.1-.2 3.2-2 .9 0 1.8-.3l14-8.2q.7-.8 1.6-1.3L295.2 23q1-.6 1.7-1.5c3.7.8 25.1 4.6 26.5 6.5l-22.7 14.2q-9.5 5.5-18.8 11.3-.7.4-.7 1.3c-1.6-.2-6.7 2.9-7.2 4.2q-2.2 0-3 2-1.5-.4-2 .9-1 .1-2 .6-2.2 1.5.3 1.3 1.3-.6 1.7-2 1.5.4 2-.8 2.1 0 3-2c1.6.2 6.3-2.8 7.2-4.2a3 3 0 0 0 1.8-.4q9.5-5.4 18.7-10.9 12.9-7.2 25.4-15l9.6 3.2q1.1 0 1.2 1.2l-44 27.2-13.3 8q-1 .7-1.6 1.8c-1.6 0-4.5 1.4-5 3a6 6 0 0 0-5 3c-.7 0-2-.1-2 1-1 .3-2.7.5-3 1.6 1 1.5 2.5-.8 3-1.6q1.5.3 2-1 3.1-.5 5-3 3.3-.4 5-3 1 0 2-.4l14-8.1q.7-.8 1.6-1.3a2778 2778 0 0 0 44-25.1q.9-.5 1.4-1.4c2.2 1 8.7 2.8 10.1 4.5l-.5.8-69.3 43.7q-1 .5-1 1.5a46 46 0 0 0-14-1.5q1.3-1.5-.8-1.6-2.1.5-3.6 2c-14 3.8-22.6 12.1-24.3 27q-.6.3-.9 1-7.6 4.4-15.1 9.2-1 .6-1.5 1.7a4 4 0 0 0-2.1.5 7 7 0 0 0-3.1 2.6c-.7-.1-2 0-1.8 1q-2 0-3.1 2a2 2 0 0 0-1.8.7c.5 1 1.8 0 1.8-.8q2.2 0 3.1-2 1.5.5 1.8-1c1.6-.2 4.7-1.2 5.2-3q1 .1 1.9-.5l14.9-8.6 1 .1c3.6 36.8 6.8 92.8-35.2 109.4-4 2-15 4.5-19 3.5-14.3-12.6-36.5-6-53.8-7 1.5-1.1 9.6-5.3 10-6.7q2.3 0 3.1-2.2 1.5.4 2-.8a4 4 0 0 0 3-2.2q1.2.3 1.9-.6c-.6-1-1.7 0-2 .6q-2.1.1-2.9 2.2c-.6-.2-2.1-.3-2 .8q-2.2.1-3 2.2h-1.5l-8.9 5.1q-1 .7-1.6 1.6c-14.7 1.3-34.4-2.6-32.7 19.2H95l-1.3.8-.8.5-1.1.8a38 38 0 0 0-5.1 2.7l-.7.5-1.3.7-5 2.8-.7.6q-.8.1-1.3.7l-10 5.7-1 .4-1 1a43 43 0 0 0-5.8 3l-1.2.8-5 2.8-.7.5-1.3.8-3 1.7q-.4 0-.7.3l-1.3.7a77 77 0 0 0-7 4.3 39 39 0 0 0-5 2.7l-.9.5-1.2.7-4.8 2.9-.8.5q-.8 0-1.2.7l-3.8 2-1.3.7q-2.2 1.5-4.6 2.6-.8-5.2-.8-10.3 1.4.2 2.4-.7l65.6-40.5q.4-.3.5-.9 2.2-.7 4.3-1.9 7.5-4.8 15.4-9.3c1.3-1.2 3.7-2 4.4-3.7q1.5.2 2-1 2.3 0 3-2 1.4.1 2-1c1 0 6-2 4.7-3.1-1.2-.2-4.5 1.9-4.6 3.1q-1.5-.2-2 1-2.3 0-3 2-1.5-.2-2 1-2.7.9-5 2.3L83 230l-68 39.3V258c1.9.8 3.5-1.1 5-2.1q.8 0 1.4-.7L23 254l1.2-.8q2-1 3.6-2.5.9 0 1.6-.7l1.6-1 1.3-.8 8-5 3.5-2.4q.8-.2 1.5-.8l2-1 1-1a71 71 0 0 0 8-5l3-1.7q2-1 3.6-2.6.8 0 1.3-.7a48 48 0 0 0 6.8-4.3q.8 0 1.4-.7l2.9-1.7a18 18 0 0 0 3.5-2.6q.8 0 1.5-.7l4.8-2.9q.8-.3 1.2-.8l.9-.6q.7-.1 1.2-.7l1.7-1q.6-.2 1.2-.7l3-2a33 33 0 0 1 5-3l1.8-1.2 1.8-1.4 1.4-.7 1.7-1 1.2-.7 3.1-2 .7-.5q.7-.2 1.3-.7.8-.7 1.7-1l3-2 1.3-.8q1.8-1.4 4-2.4l1-.8q.8-.7 1.8-1l1.2-.8q1.8-1.5 3.9-2.3l1.1-1 2-1.1 13.1-8q1-.7 1.5-2 1.5.5 2.2-1 2 0 3-1.8a2 2 0 0 0 2-1.1q1.8-.3 3-2c.5.2 2.5-.4 1.4-1.1q-1 .1-1.4 1.1-2.4-.1-3 2-1.5-.2-2 1-2.3 0-3 2-1.5-.2-2.2 1-1 0-2 .6L128 186l-1.2.7a12 12 0 0 1-3.8 2.3l-1.2.7a69 69 0 0 1-9 5.2l-5 2.8-5 3-.8.6q-.8 0-1.2.7a38 38 0 0 0-5 2.7l-.8.7-1.2.5-3.7 2-1.3.8-5 3q-.4 0-.7.3l-6.3 3.7-.7.6q-.8.2-1.3.6l-5 2.8-.8.5-1.3.7-4.9 2.8-7 4-5.6 3.5q-.8.2-1.4.8a37 37 0 0 0-7 4l-5 2.7-.8.5q-.6.3-1.1.8a10 10 0 0 0-3.6 2.3q-.9 0-1.6.7-3 1.4-5.5 3.3a56 56 0 0 0-6.5 3.4l-.7.7q-.6 0-1 .5l-.9.4q0-5.9 1-11.6 1.2 0 2.1-.6l1.2-.8q2-1.4 4-2.3l1-1a12 12 0 0 0 3-1.7q2-1.2 3.6-2.5l1.5-.8 2.9-1.7 3.5-2.5q.8-.2 1.5-.8l1.7-1 1.2-.8q3.4-2 6.7-4.5l1.5-.7 1.7-1q.6-.2 1.2-.7 2-1.2 3.6-2.5.8-.1 1.4-.7.8-.6 1.8-1l1.2-.8q3.3-2.4 6.9-4.3l1.2-1 1.7-1q.6-.2 1.2-.7l3.6-2.5q.8-.1 1.4-.7l1.8-1 1.2-.8 3-2 .7-.5q.8-.2 1.3-.7.8-.7 1.7-1l4.3-2.8 3.7-2.5 1.3-.7 1.8-1 1.2-.8q2-1.2 3.6-2.6.8-.2 1.5-.7l2.9-1.8 3-2q.4 0 .8-.4a42 42 0 0 0 6-3.7l1.2-.8a28 28 0 0 1 5-3.1q.7-.8 1.8-1.2l1.2-.7 2-1.6q1.7-.6 3.3-1.6 4.8-3.3 9.8-6.3 1.1-.6 1.6-1.8c1.8.1 4.1-1.4 5-3 1.4 0 4.7-1.6 5-3q3-.5 5-2.6c-.8-1.3-4.9 1.6-5 2.6a7 7 0 0 0-5 3q-3.2.5-5 3-1 0-2 .5l-14 8q-2 1.6-4 2.5-.8.2-1.3.7l-2 1.3-5 2.7-.8.7q-.8 0-1.2.6a109 109 0 0 0-10 5.7l-1 .5-1.1.7-5 2.8-1.8 1.3-3.8 2-1.3.7-.8.5-1.2.7a40 40 0 0 0-5 2.8l-5 3-.7.5q-.8.3-1.4.8l-5 2.7-.6.6q-.8 0-1.3.6l-5 2.8-.7.6-1.2.6-5 2.8q-3 1.7-5.7 3.6-.8 0-1.4.7l-5 2.7-.8.6q-.7.2-1.2.6l-5 2.8-5.6 3.5q-.8.2-1.4.8-3 1.3-5.6 3.4-.8 0-1.4.6l-5 2.7-.6.6-.9-.2c-.4-3.2.7-8.2 1.7-11.4q1 0 1.8-.5L74 186.3q.8-.4 1-1.2 3.1-.6 5-3c1.4-.2 4.6-1.8 5-3a9 9 0 0 0 5-2.8c-.7-1.3-5 1.7-5 2.7-1.8-.2-4.2 1.5-5 3-1.6 0-4.5 1.4-5 3q-1-.1-2 .4c-2.3 1.7-8.5 4.3-10 6.3q-1.5.4-3 1.3l-38.4 22.2q-1 1.3-2.7 1.7l3-13c2.5.2 18.8-11.6 22.5-13.1l13-8q1-.6 1.5-1.7a7 7 0 0 0 5-3c1.7 0 6.3-2.7 7-4 .8-.2 4-1.1 2.7-2q-2.1 0-2.6 2c-1.4-.4-6.4 2.6-7 4a7 7 0 0 0-5.1 3q-1-.1-2 .4l-14 8q-.7.9-1.5 1.3A526 526 0 0 0 23 201.3c.2-3.5 2.3-9 3.4-12.6q.4-.2.3-.7l4.5-14q1.1-.2.7-1.2 1.1.5 2.3 0l67-42.7 8.3-5.3q1.1-.6 1.5-1.8 1.5.3 2-1 2.2-.2 3.1-2c1.8 0 3.8-1.5 5-2.7-.8-1.2-4.9 1.8-5 2.7q-2.3-.3-3 2-1.5-.2-2 1c-3.6 1-7.2 3.3-10 5.7q-4.5 2.2-8.8 4.6-28.4 16.7-57.2 33c.8-4.3 5.5-12 7.1-16.5a2 2 0 0 0 2 0l70-46.1c1.7-.6 7.2-4 7.9-5.6 1.5 0 4.6-1.7 5-3.1 1 .4 4.4-1 2.5-1.9q-1.8.2-2.4 1.9a6 6 0 0 0-5.1 3c-2-.2-7 3.8-9 4.6q-.7.8-1.6 1.3-30.3 17-60.4 34.6a5 5 0 0 1-2 .5c-.1-4.2 17.7-27.7 21.3-32.3 1.5-2.5 9.3-10.2 10-12l1.2-.2q2-1.8 4.5-3A341 341 0 0 1 101 81c1-.8 5-2.6 5-4q2-.2 3-2c.9.4 4.4-1 2.5-1.9q-1.9.2-2.6 2-2.2-.2-3 1.9c-1.9-.3-4.4 2-6 2.8L98 81l-7.3 4.3-.3-.2q-.3-1 .5-1.6c28.6-27.2 68.7-51.5 107.4-59.6q0 .6-.7 1c-16 10.6-32.7 22-48.1 33.3q-2.1 1.6-4.5 2.4-.7.4-.9 1.3l-2.1.7q-2 1.4.3 1.2 1.2-.7 1.8-1.9 2.4.2 3.7-1.7 32.7-18.6 65.3-37.6c.5-.8 3.3-1.5 2.6-2.6q11.2-2 22.7-2.1c-1 1-2 2-3.3 2.8l-8.1 5a2 2 0 0 0-1 1.3 6 6 0 0 0-5 3q-2.4-.4-3 2-1.2-.3-2 .7c.6 1 2.1.2 2-.8a4 4 0 0 0 3-1.9c1.4-.2 4.7-1.3 5-3q1 0 2-.5l6.4-3.7q1-.6 1.4-1.8c2 .5 3.8-1.5 5.6-2.2q1.4-.4 2.5-1.5ZM165.2 25a182 182 0 0 0-23 9.7H141l.3-.7q9.8-5.2 19.5-10.7 2.7-.6 4.5 1.7ZM305 28q-2.1 0-3 1.9a2 2 0 0 0-2 .8c.6 1 1.9 0 2-.8q2.1 0 3-2 1.1.3 1.9-.6c-.6-1-1.7 0-2 .6Zm56 13.6 10.3 5.1q-1.3 0-2.4.6L295 94a46 46 0 0 0-11-8.8q1.7 0 3-.7 37.2-21.4 74.1-43Zm27.7 16.3c3 .2 7 4.2 9.7 5.8l-1.4.1-1.3 1-.7.5q-.8.1-1.4.6l-1.7 1-1.2.8-3.7 2.6q-.8.2-1.4.7l-1.7 1-1.2.7q-1.9 1.5-4 2.2l-1 1a148 148 0 0 0-13 8l-3 1.8q-2 1.2-3.7 2.6-.7.2-1.3.7l-1.8 1q-.6.2-1.2.7a71 71 0 0 1-6.8 4.2l-1.2.8-.8.5-1.2.7-1.8 1-1.2.8q-2 1.2-3.6 2.5-.8.2-1.5.8l-3 1.7-5 3.3-3 1.7-4.9 3-1.8 1.2-1.2.8-.7.5-1.3.8a38 38 0 0 0-6.7 4.3q-.7.2-1.3.7l-3 1.7-1 .7c-1-4.1-2.4-9.2-1.5-13.4 1.2-1.4 5.5-2 5.5-3.8q1.9 0 3.3-1.2 1.7-.6 3-1.8l74.6-43q1-.4 1.1-1.3Zm24.1 17.7c2.8 1.2 6.3 5.2 8.7 7.3q-2.1-.2-3.4 1.4l-1.4.6-1.8 1-1.2.8q-1.8 1.3-3.9 2.3l-1.1.9-8 4.8q-1.9 1-3.5 2.6-.8 0-1.5.6-.9.7-1.8 1l-1.2.8-3.5 2.5-1.6.7-1.7 1-1.2.8a21 21 0 0 0-3.6 2.6q-.8.2-1.4.6l-1.8 1-1.2.8a20 20 0 0 1-4 2.3l-1 1a90 90 0 0 0-11.6 7.3q-.8 0-1.4.7l-3 1.7q-2 1.2-3.6 2.5-.8.2-1.4.7l-1.8 1-1.2.8q-2 1.1-3.7 2.6a2 2 0 0 0-1.3.6l-1.8 1-1.2.8-4 2.4-1 .8-1.8 1-1.2.8-5 3-1.8 1.2-1.2.8-.7.7q-.8 0-1.4.6l-1.7 1q-.6.2-1.2.7l-3.7 2.6-1.3.7a40 40 0 0 0-6.6 4.3q-.9 0-1.3.7l-1 .2c0-4.6-1.1-10.8-.5-15.2q1 0 1.6-.7l1.4-.5q4.5-2.5 8.7-5.3 2.1-.8 4-2a90 90 0 0 1 12.3-7.2l.9-.4q.7-.3 1-1a34 34 0 0 0 5.1-2.6l.8-.5 1.2-.7 5-2.8 5-3q.4 0 .7-.3.8-.2 1.3-.7l5-3 .8-.6q.6-.1 1.1-.6l5.1-2.8.7-.6q.8 0 1.3-.6l5-2.8 5-3 .6-.5q.8-.1 1.4-.7l5.7-3.4q.8-.2 1.2-.7l5.1-2.7.7-.6q.8 0 1.3-.6l3-1.8.7-.2 1.3-.8a140 140 0 0 1 10.8-6.2l1.2-.8.8-.5a3 3 0 0 0 1.3-.9q.6-.5.4-1.3Zm12.3 11q4 3.4 7 7.6-1.2 0-2.2.8l-1.2.7q-2 1.2-3.6 2.6-.8.2-1.4.6l-8 4.8-5 3.2-1.8 1-1.2.8q-1.8 1.3-3.9 2.2l-1.1 1a11 11 0 0 0-3.5 2.4q-.8.2-1.6.7l-2.9 1.7-3.6 2.5-1.5.7-3 1.8-.6.6q-.7.2-1.3.7l-3 1.7q-2 1.2-3.6 2.5l-1.4.8-3 1.7-5 3-1.8 1.2-1.2.8-.8.5-1.3.7-1.7 1-1.2.8-4 2.4-1 1-1.8.8-1.2.8-.8.7a2 2 0 0 0-1.2.5q-.8.6-1.8 1l-1.2.8-3.6 2.5-4.4 2.5q-1.7 1.4-3.7 2.3l-1.3.7a77 77 0 0 1-8 5q-1.9 1.6-4 2.5a479 479 0 0 0-17.6 11c-.9-4.3 0-11.7-.3-16.3 1.8 1 3.7-1.2 5.3-1.8l1.2-.8.9-.7q.7 0 1.2-.6l5-2.7.5-.6q.9 0 1.3-.7a30 30 0 0 0 5.1-2.7l.7-.6 1.3-.7a61 61 0 0 0 8.8-5q.6-.2 1.3-.7l.9-.5 1-.7 5-2.8.7-.7q.7 0 1.3-.5l5-2.8.8-.5 1.2-.8 3-1.7.7-.2 1.3-.8q3-1.6 5.7-3.7.8 0 1.3-.6a40 40 0 0 0 5-2.7l.9-.5 1.2-.7 5-2.8 6.9-4q2.8-1.5 5.5-3.5.9-.2 1.6-.7l3.7-2 1.2-.8.8-.5q.8-.3 1.2-.8a94 94 0 0 0 12-7q3-1.3 5.5-3.3.9 0 1.4-.7a32 32 0 0 0 7-4q.8-.5.9-1.4Zm-143.8 9.7c1-.2 1.4 2 1.8 2.5q-2.7 1.1-5 3-.7.8-1.8.6-.4-.6.2-1.3 2.9-2.1 4.8-4.8Zm153.8 1.9.9-.4q6 7.4 11.9 15a9 9 0 0 0-4.7 2.4q-.9.2-1.5.7l-1.8 1-1.2.8-4 2.4-1 .9q-2 .8-3.4 2.3l-4.6 2.4q-2 1.1-3.6 2.6l-1.5.6-7.9 4.8q-1.8 1.1-3.5 2.6l-1.5.6-3 1.8q-2 1.2-3.7 2.6l-1.2.7a12 12 0 0 0-3.1 1.7l-.8.5-1.3.8-1.6 1-1.3.7-1.8 1.2q-.7.3-1.2.8l-.6.6-1.3.6-3.1 1.8q-2 1.4-4 2.3l-1 1-1.8 1q-.7.2-1.2.7l-3.8 2.3-1.2.7a17 17 0 0 0-3.6 2.6q-.8.2-1.4.6l-3 1.8-6.8 4.2q-.7.3-1.2.8l-.7.6-1.4.6-1.7 1-1.2.8q-2 1.4-4 2.4l-1 .9-3 1.7-1 .6-1 .6q-.8.7-1.8 1l-1.2.8-3.6 2.6q-.9 0-1.4.6l-2 1.3-23.7 14.4q-.8.5-.7 1.4a4 4 0 0 1-4 1c1.1-6.9 2.6-23.5 3.9-29.1l2.9-1.1q8-4.8 16-9.3l.8-.9q.8 0 1.5-.5l3.5-2.5q.8.2 1.3-.6l5.1-2.7.9-.6q.7 0 1.2-.6 1.7-1.2 3.6-2l1.3-.8.8-.6q.8 0 1.3-.7l5-2.7 5-3 .7-.4 1.1-.8 5.1-2.8.8-.5 1.1-.7 5.1-2.8.7-.6q.8-.2 1.4-.6a34 34 0 0 1 4.9-2.8l5-3 .8-.5 1.2-.7 3.8-2 1.2-.8 5.7-3.3q.8-.2 1.3-.7l2-1.2 3-1.7.7-.3 1.3-.8q3-1.7 5.6-3.6l1.5-.6 5-2.8.7-.5q.8-.2 1.3-.7l5-2.8.6-.6q.8 0 1.3-.7a14 14 0 0 0 3.6-2.2l1.4-.7q3-1.4 5.6-3.4.8 0 1.2-.5Zm0 10.8c-1.4-.2-6.9 3-7.1 4q-2.1 0-3 1.6c1 1 2.6-.4 3-1.6 1.4 0 6.3-2.4 7-4 1 .1 5.8-1.9 4.5-3a8 8 0 0 0-4.5 3ZM63.8 119a2 2 0 0 0-1.9.5q1.4 1 2-.5 1.1.1 2.2-.4 2-1.7-.6-1.3-1.2.4-1.7 1.7Zm225.4.1q1 1.2.8 2.8c-2.7.3-6.6 3.1-8.8 4.7q-1.9 0-.4-1.2 3.5-2.4 6.5-5.4.9-.6 2-.9ZM233 133a3 3 0 0 0-2.9 2q-1.4 0-2 1.2a3 3 0 0 0-3 1.5c1 1 2.5-.7 3-1.5q1.5.3 2-1.2a3 3 0 0 0 3-2c1.7.3 3.3-1 4.7-2q.5-1.3-1-.9c-.8.8-3.5 1.7-3.8 3Zm226.2-3.2c4 6.6 11 18.4 13 25.6q-1-.2-1.8.3l-28.7 17.7q-13 7.5-25.6 15.3-.9.4-1 1.3c-1.6 0-4.5 1.5-5 3.1a6 6 0 0 0-5 3q-1.5-.3-2 1c-1.4.1-4.7 1.7-5 3q-2.3-.2-3 2-1.2-.3-2 .7c.6 1 2 .3 2-.7q1.9-.3 3-2c1.4.2 4.4-1.7 5-3q1.4.3 2-1a9 9 0 0 0 5-3 7 7 0 0 0 5-3.1q1 .2 2-.4l56.3-32.9q4 8.5 7 17.2-2 .3-3.6 1.3l-1 1q-2 .7-3.5 2.2-.9 0-1.5.6l-3 1.8-3.6 2.5q-.8.1-1.4.7l-3 1.8-4 2.4q-.6.3-1 1a10 10 0 0 0-3.5 2.2q-.7.1-1.5.7l-3 1.7q-1.9 1-3.5 2.6-.8 0-1.4.6l-3.1 1.8a44 44 0 0 1-5 3.2l-3 1.8-.7.6-1.3.6-1.8 1-1.2.8q-1.9 1.1-3.5 2.5a3 3 0 0 0-1.5.7l-1.8 1-1.2.8-5 3q-.8.7-1.8 1.2l-1.2.8-.8.5-1.2.8-3 1.7q-1.8 1.1-3.5 2.5-.8.2-1.5.7l-1.8 1-1.2.8q-1.3.7-2.4 1.8 0 .4.5.3l.2 1c-16-4.4-34.5-1.7-50.8-.2.2-2.5-3.6-2.2-4.2.3-8.7.1-30.8.7-36.7-6.7q.7-1 1.8-1.7l11-6q1.8-1.5 4-2.5l1.2-.7.9-.6q.6 0 1-.6l3.8-2 1.3-.9.8-.5 1.2-.6 1.8-1 1.2-.8q.4 0 .7-.3.8-.2 1.3-.7l5-3 .7-.7q.8 0 1.3-.5l5-2.8.8-.6q.8-.1 1.3-.7l5-2.7.7-.6q.8 0 1.2-.6l1.8-1 1.3-.8 2-1.2 7-4 3.6-2 1.3-.8.6-.6 1.4-.7a78 78 0 0 0 10-5.7q.4 0 .7-.3.8-.2 1.3-.7 2.9-1.6 5.5-3.7.8 0 1.5-.6l5-2.7.6-.5q.8-.1 1.4-.7l5-2.8q3-1.7 5.7-3.6.7 0 1.3-.7l5-2.7.7-.5 1.3-.7 5-2.8.7-.6 1.3-.6a38 38 0 0 1 5-2.8l5.5-3.5q.8-.2 1.5-.8a36 36 0 0 0 5-2.7l.7-.6q.8 0 1.2-.7l5.1-2.7.8-.5 1.2-.8q2-.8 3.5-2.3.8 0 1.5-.6t.8-1.4ZM254.4 139q-.5-1.4-.2-2.9 1.2-.3 2.4-1c.7-.4 2.5-2.8 3.3-1.4zm36.8-5q.9 1.5.3 2.9c-.6 1.7-7.4 4.6-9.1 5.8-1.4.7-1.5-.5-.4-1.2q3.8-3.2 7.4-6.7a3 3 0 0 1 1.8-.8Zm167 8.2c-1.4 0-4.9 1.5-5.1 3-1.8 0-4.2 1.3-5 3-1.4-.4-4.8 1.8-5 3q-1.2-.3-1.9.6c.6 1 2 .2 1.8-.7 1.9.1 4.1-1.4 5-3 2.4.1 3.8-1.2 5.1-3 1.7.3 4.5-1.5 5-2.9.6.1 2.8-.4 1.6-1.2q-1.2 0-1.5 1.2Zm-196 5.7a58 58 0 0 1-7.2 7q-.2-1.8 0-3.7zm30 2.1v3a74 74 0 0 0-9.1 5.7q-1 .3-1.7-.3 4.7-3.6 9-7.5a4 4 0 0 1 1.8-.9Zm189.3 29.4.7-.5 2.9 9.1q-1 .2-2 .8l-73 45q-.7.5-1 1.4c-4-2-7-5-11.4-6.3l-.4-.7 1.1-.8.8-.5q.8-.2 1.2-.8l5-2.7.8-.6q.7-.2 1.3-.7l3-1.7.6-.2 1.3-.8 5-3 .7-.7q.9 0 1.3-.5l5-2.8.8-.5 1.2-.7 5-2.8 5-3q.4 0 .7-.3l1.3-.7 5.6-3.5q.7-.1 1.5-.7l5-2.8.6-.7q.6 0 1.3-.5l5-2.8q3-1.7 5.6-3.5.9 0 1.4-.7 3-1.4 5.5-3.5.8 0 1.5-.6l5-2.7.7-.5 1.4-.7 1.7-1zm-452.6 8c.7-.4 4.3-1.2 2.9-2.3q-2.4 0-2.9 2.2Zm457.5 5.5q1.4 4.5 2 9.1l-34.6 21.4-26.8 16.4c-3.2.8-9.4 6.2-11.4 6.7a24 24 0 0 0-5.8-9.3q38.4-22 76.6-44.3Zm4.6 24.8q1.1.6 1.2 1.9.7 4.2 1 8.6-1.7-.3-3.2.8l-1.2.8-3.6 2.6q-.8 0-1.5.6l-1.7 1-1.2.8q-2 1.2-3.6 2.5-.8.1-1.4.7l-1.8 1-1.2.8-8 5-16 10.3a41 41 0 0 0-6.6 4.4l-1.4.5-1.8 1-1.2.8q-2 1.2-3.7 2.6-.8 0-1.3.6l-1.8 1-1.2.8-3.6 2.5-1.4.7-1.8 1-1.2.8q-1.9 1-3.5 2.6-.8 0-1.4.6l-3 1.9-2 1.1q-.6.3-.8.9-4.2-3.4-8.6-6.4 4.7-4.1 9.1-8.5 1.2-1.5 2.1-3.3c1.3-.1 6.6-3.9 8.4-4.5q.8.9 2 .5l13.8-7.9q26.6-15.4 53.1-31Zm-371.1 7.7c3-.9 8-.4 11.2-.5-2.2 2.6-14 8.7-17.7 11q-1.2 0-.9-1c.8-1.3 2.4-7.3 3.5-7.5q2.3-.2 3.9-2Zm176 3.7q3.2 1.5 6.3 3.2-.7.9-1.8 1.5L254 260.5a36 36 0 0 0-4.9 3.3q-.9.4-1.8-.2l48.1-33.8q.5-.1.5-.7Zm76.4 4.3q3.5-.4 6.8.7-.2.8-1 1.2l-52 30q-3.4 2.4-7 4.4-.9.5-1.8-.1l53.3-34.5q1-.6 1.7-1.7Zm-27.3 1q4.5-.5 9-.3-1.2 1.4-3 2.3l-52 30a33 33 0 0 0-6.1 4.2q-1.3.8-2.5 0 27.4-18 54.6-36.2Zm-30 .6q5.6 0 11 .4l-60.2 35c-1.3.5-2 2.3-3.5 1.1l51.6-35.1q1-.6 1.1-1.4Zm78.3 1.3a16 16 0 0 1 4.9 4.6 5071 5071 0 0 0-76.1 43.7q-1 .5-2 .6l-.3-.7a4422 4422 0 0 0 73.5-48.2ZM95 241h1q.3 6.8 0 13.3l-1.6.5-74.1 42.8-2.2 1.7q-1-5.2-1-10.5c1.6 0 5.2-3 7-3.8l1.2-.7 3.6-2.5a3 3 0 0 0 1.4-.7l1.8-1 1.2-.8q2-1 3.5-2.6.8 0 1.5-.7l7-4 1-1q2-.8 3.6-2.3.9 0 1.4-.7a38 38 0 0 0 6.6-4.3q.8-.2 1.4-.7l3-1.7q2-1.4 4-2.3l1.1-1 3-1.7 4.9-3L77 252l1.2-.8.8-.6q.8 0 1.3-.7l1.7-1 1.2-.7a16 16 0 0 0 3.5-2.6q.8-.2 1.5-.6l1.8-1 1.2-.8.6-.6q.8 0 1.4-.7zm400 7.7q0 10.8-.2 21.5a5 5 0 0 0-1.9.7l-1.2.8-.8.6q-.7 0-1.2.7l-1.8 1q-.6.2-1.2.7l-3.6 2.5-1.5.7-1.7 1-1.2.8-5 3.3a61 61 0 0 0-9.8 6l-1.2.7q-2 1.2-3.6 2.6-.8 0-1.4.6l-1.8 1-1.2.8q-2 1-3.6 2.6-.8 0-1.5.6l-1.7 1-1.2.8q-2 1.4-4 2.3l-1 1-3 1.7q-2 1.4-4 2.4l-1 .8-3 1.8-.8.6q-.6.2-1.1.6l-1.8 1-1.3.8q-.8.8-1.8 1.2l-1.2.8-.8.6-1.2.6-3 1.9-1.8 1.2-1.2.7-.9.5q-.6.2-1 .6c-1 .5-3.3 2.5-.8 2.6q-2.9 2.3-6.1 3.8 0-1.1-1-.9a20 20 0 0 0-2.7-4.1 47 47 0 0 0-5-4.8q.2-.6.8-.8 15-5.7 17.3-21.7.6-.1.9-.7.6 0 1-.4 1.8-3.5 5.7-4 1.2.2 2-.4 9.4-5.6 18.9-10.7 24.4-14.3 48.9-28.4zM95 257h.8c.7 3.3.4 9.5 0 13.1q-.9 0-1.8.5c-24.2 14-49.6 27.5-73 42.6L18.9 303q1.2.1 2.3-.3zm307.1 2c-1.6 7.7-9.1 10.1-16.1 10.9 3.4-3.4 11.7-8.3 16.1-11Zm-19 12.8a8 8 0 0 0-.5 3.8q-1.4.3-2.6 1l-27 15.8-1.5.5c-1.5.5-3.7 4-5.3 2.5q0-.7.7-1 17.3-10.6 34-21.9a5 5 0 0 1 2.2-.7ZM96.3 274q-.3 7 0 14.1-1.3 0-2.3.4l-68.4 39.8c-1.1-2.8-2.6-6.4-2.5-9.5q.9.1 1.6-.4Q60.5 296 96.3 274Zm11.7 13 .2-3c1.5-3.1 9.5-6.4 12.8-8.6.6-.1 1.4-1 1.9 0l-1.4 1.6zm77.3 9.9V292l2.4-.9q12-6.7 23.8-14.2c.9 0 3.6-2.2 4.1-1.5q-15.1 10.5-30.3 21.4ZM393.1 279q3.8 1.5 6 5l-71.6 41c-1.3.6-1.8 2.6-3.5 1.3q.2-.6.8-1c23-14.8 45.9-30.6 68.2-46.4Zm-235.3 10 .5 2c-1.6 1.3-4.7 3.9-6.8 4q-.6-.9.4-1.6 3-2 6-4.5Zm-61.6 1.9-.2 24.3-1.7.6L36 349.6l-1.8 1.6Q30.8 342 27 333q1.2 0 2.1-.7zm396.7 1-2 12.3q-1 0-1.9.4l-20.9 13.1c-3.2 1.8-17.9 9.9-19.1 12.3q-1.5-.2-2 1-2.1 0-3 2-1.4-.2-2 1l-2 .6q-2.2 1.5.4 1.1 1-.6 1.6-1.7 1.4.2 2-1 2.1 0 3-2 1.4.2 2-1 2.6-.8 5-2.3l36-21.1c.1 5.4-9.4 39.2-12.3 40.8L393 401.6q-.8.6-1 1.4-2.3 0-3 2-1.3-.3-2 .9c-1 .2-2.7.4-3 1.7 1 1 2.6-1 3-1.7q1.3.2 2-1 2.1 0 3-2 1 .2 2-.4l9-5.2 71.9-41.5a231 231 0 0 1-20 36.4q-1 0-.6 1.2-1.2-.7-2.4-.2c-3.6 2.4-24.8 15.5-25.8 17.5-1.5.3-4.7 1.7-5 3.3q-2.2 0-3 2a2 2 0 0 0-2 .7c.6.9 1.9.1 2-.7q2-.2 3-2c2-.1 4.2-1.3 5-3.3q1.3.1 2.5-.5 10.5-6.3 21.2-12.3.3 1-.4 2A229 229 0 0 1 361 471q-1.2-.3-1.9.8a221 221 0 0 1-73.4 20.1q.2-.6.7-.8l41.6-26.9q.8-.5 1-1.3a3 3 0 0 0 3-2 2 2 0 0 0 2-.7c-.6-1-2.1-.3-2 .7q-2.1 0-3 2c-2.3 0-8.7 4.7-11.2 5.8L316 470l-37.7 21.7a2 2 0 0 0-1.1 1.3q-10.2 1-20.4.8 3.4-2.6 7.3-4.8l9-5.6.9-1.4a7 7 0 0 0 5-3c1 .1 5.9-2 4.6-3-1.4-.1-3.9 1.7-4.6 3a7 7 0 0 0-5 3c-2.2-.2-8.8 4.7-11.2 5.8q-5 2.7-9.6 6c-5.7.4-11.7-.8-17.4-1q1.5-1 3.5-1.7l1-1.1 3-1.8q4.8-3 9.6-6.4a3 3 0 0 0 1.4-.7q1-.7 2-1.1l1-1 3-1.7 6.5-4.6q.8 0 1.5-.6l1.6-1.4q.8 0 1.5-.6t1.6-1l1.2-.9 1.9-1.1 1.2-.8 1.8-1.2 1.2-.8 3.5-2.5q.8-.3 1.5-.8l1.6-1.2 1.4-.8 1.7-1 1.2-.8 1.9-1.1 1.2-.8 1.8-1.2 1.2-.8q2-1.1 3.6-2.6.8-.2 1.4-.6l1.6-1.4q.8 0 1.4-.6l3-1.9 1.8-1.1 1.2-.8q.8-.9 1.8-1.3.6-.2 1.2-.7a27 27 0 0 1 6.7-4.3c1.7-1.2 4.2-2 5-4 1.5 0 4.5-1.5 5-3q2 0 3-2a2 2 0 0 0 1.9-.7c-.6-.9-1.7 0-2 .7a3 3 0 0 0-2.9 2c-1.8-.1-4.2 1.4-5 3-2.1-.3-4.2 2.1-6.2 2.8-.7.6-3 1.2-2.5 2.4l-1.3.1-1.3.7-5 2.7-.9.6-1.2.7-3.6 2-1.3.7-5 3-.9.5q-.6.2-1 .7l-5.1 2.8-.7.7q-.8 0-1.3.6a31 31 0 0 0-5 2.7l-.7.5-1.3.7-3 1.7-.7.4-1.3.7-5 3-.8.6q-.7.2-1.2.7l-5 2.7-.8.5q-.6.1-1.2.7L259 472l-1.2.8-.9.4q-.6.2-1.2.7l-5 2.8a63 63 0 0 0-7 4.3l-5 2.7-.8.5q-.7.2-1.2.8l-5 2.8-.7.5-1.2.6-3.1 1.8-.9.6c-13.2-1-26.7-4.7-39.5-8.3q-.9-.2-1.2-1 14-8.6 28.2-17 7.7-5 15.7-9.8a2 2 0 0 0 1-1.3q2.3.1 3-2 1.5.5 2-1 2.1 0 3-1.9c.7.2 2.8-.4 1.5-1.1q-1.2 0-1.4 1.1-2.2 0-3.1 2-1.5-.5-2 1-2.1 0-3 2a5 5 0 0 0-2.1.2q-7.8 5-16 9.5l-30 17.6q-4.9-1.1-9.6-3-1.1-.4-1.3-1.4a9077 9077 0 0 0 82-50.6 2 2 0 0 0 1-1.3q3.1-.5 5-2.9 2.1-.3 3-2 1.5.2 2-1c1 0 4.3-.8 2.7-2a3 3 0 0 0-2.7 2q-1.5-.5-2 1-2.1 0-3 2-2.2 0-4 1.5-1 .4-1 1.4c-2.1-.2-8 4.2-10.4 5.2q-.9.6-1.6 1.6-1.6.2-3 1.2l-70.7 40.8q-1.5.6-2.2 2c-2-1-9.5-3.3-10.3-5l6.5-4q.6-.2 1-.8a9 9 0 0 0 3.4-2.3q.9 0 1.6-.6t1.7-1l1.3-.8a15 15 0 0 0 3.4-2.6q1 0 1.6-.7l1.7-1 1.2-.8 3.1-2 .9-.4 1.2-.7 1.6-1.1 1.3-.8 3-2q.4 0 .7-.4l3-1.8 1.3-.7q1.9-1.1 3.5-2.6.9 0 1.5-.7l1.8-1 1.2-.7q2-1.1 3.6-2.6.8-.2 1.3-.6l3.1-1.8q2-1.2 3.6-2.5l1.5-.7 1.7-1 1.2-.8 3.7-2.6q.8 0 1.3-.6l1.8-1 1.2-.8q2-1 3.6-2.6.8 0 1.4-.7l3-1.7q1.8-1.5 4-2.4l.9-.8 2-1 1.1-.8q1.7-1.4 3.7-2.3l14-8.8c34.7-.3 69.5 0 104.4-1.4 16.4-1.3 30.3-20.7 22.1-36q-2-3.3-4.4-6.2 4.5-1.4 8.8-3.2c8-4.1 11.8-10.5 15-18.6 2.5.5 2.6-2 5-2q1.9.1 3.5-1l14.7-8.5zm-307.6 22v-3.8q9.6-5.7 19.1-11l7.4-4.9q.9-.5 1.9-.7 2.1-.3.5 1.1-2.2 0-3.1 2c-8.9 5.3-17.2 11.5-25.8 17.4ZM403 293.2q.6 4-.6 7.7l-.8-.2-19 10.5q-.6.4-.6 1c-3.4 1.1-7.3 1.7-8.1 5.9a1926 1926 0 0 0-36.8 21.4q-1 .7-2 .1.1-.7.8-1 31.5-21.4 62.8-43.2 2-1.6 4.3-2.2Zm-294.5 24.7q-.3-2.8-.2-5.6l2.4-2 18.8-10.4q.5 1-.5 1.8c-4.2 2.8-17.3 14.6-20.5 16.2Zm90.8.5q1.5.3.7 1.6-7.5 5-14.6 10.1v-3.9c3.4-1.2 10.4-5.7 13.9-7.8Zm-104.4 1.3 1 .3q.4 6.2.2 12.3-1 0-1.8.5l-52 30a2 2 0 0 0-1.2 1.5c-1.1-.7-3.8-6.6-4.5-8.1q29.3-18 58.3-36.5Zm100 35.5q-1-.2-2 .3a36 36 0 0 1-5.6 3.3q-.8.3-1 1.1c-1.6 0-.9-2.8-1-3.8 20.6-11.4 41.7-23.5 61.7-35.6q1-.6 2 0c-.1 1.4-2.7 2-3.7 2.5l-41 26.8q-1.2.4-2.7.6-.7 2.1-3 2c-1.3 1.7-1.3 2.7-3.7 2.8Zm189-33c1.5.3 3.6 1.5 4.1 3l-38.7 22.6a1 1 0 0 1-1-.4q18-12.2 35.7-25.2ZM41 336c-2.1-.2-3.9 1.3-4.9 3q-1.1-.2-2 .7c.7 1 1.8 0 2-.6 1.4-.3 4.6-1.7 5-3.1a15 15 0 0 0 6.8-3.7c-.4-1.1-6.5 2.4-6.9 3.7Zm352.3-2.3.8.2c1.2.2 1 2.2.9 3q-11.7 7-23.6 13.7c-2.2 1.1-4 3.6-6.6 3.2 6.2-4.3 23.2-17.3 28.5-20ZM477 336q-2.3 0-2.9 2a2 2 0 0 0-2 .8c.6 1 1.7 0 2-.7q2.1-.3 3-2.1c.5.3 2.8-.2 1.5-1q-1 0-1.6 1Zm-380.8 1.8q0 17.3-.3 34.4-.9-.1-1.8.3l-33.1 19-1.7 2a233 233 0 0 1-15.5-24.2q1.2 0 2.4-.5zM232.9 378q-.8-.9-2-.3l-8.6 5q-1 .3-1 1.4c-1.9-.3-4-1.8-5.3-3q36.3-20.2 72-41.7a2 2 0 0 1 1.9.2q-.2.6-.7 1a94 94 0 0 0-7.6 4.5l-37.3 25.6-2.7.6q-.7 2-3 2-.8 2-2.9 2a6 6 0 0 1-2.8 2.7Zm21.4-34.7q.9.6.9 1.6a2622 2622 0 0 0-47 31.1c-2 .1-4.4-1.4-6.1-2.2zm53.8 3.5.1.8-69.3 48q-5-1.2-9-4.3 38.2-21.7 76.2-43.7.9-.6 2-.8ZM117 381.4c-3.6-.4-7-1.4-7.9-5.4a904 904 0 0 0 32.3-19.1q1.2-.8 2.3-.3c-.2 2-26.5 21-26.7 24.8ZM69 366q-1.3-.3-2 .8c-1.1.3-2.8.6-3 2q-1.3 0-2 1-3 .6-5 3c-1.4.1-4.5 1.6-5 2.8.6 1.1 4.8-1.4 5-2.8 1.9.2 4-1.3 5-3q1.5.3 2-1 2.1-.1 3-2 1.4.4 2-.8c.8 0 4.4-.7 2.7-2a3 3 0 0 0-2.8 2Zm297.3-2.2q3.4 1 5.6 3.8-8.9 4.8-17.6 9.9-.6.4-1.2 0 6.8-6.7 13.2-13.7ZM292 397.2q-5 .2-10-.3.5-.7 1.2-1.2l36.1-21.1c1-.4 2.8-1.8 3.8-1.1q-1.5 1.5-3.3 2.9c-3.3 2.3-27.5 19.1-27.8 20.8ZM95 373.8l.8.2c1.8 7 4.6 12.5 12.5 13.2l-.1.6-2 .7q-17 9.7-34 19.9c-4.1-3.8-7.9-9-11.5-13.4zm362.2 4.1c-1.8.1-4.3 1.5-5.1 3.2q-2.3-.2-2.9 2a2 2 0 0 0-2 .6c.6 1 1.7 0 2-.7q2-.2 2.9-2c1.6.3 4.9-1.5 5-3 1.3.2 7.6-2.8 6.5-4.2-1-.2-6.4 3-6.5 4.1Zm-165.9-2.1q.9 0 1 1c-5.8 4.3-24.4 16.7-28.4 20.5-3.4.5-7.4.5-10.9 0q19.2-10.6 38.3-21.5Zm-130.4 1.6q-.1 2-.8 3.7l-4.3-.1q2.3-2.1 5.1-3.6Zm216.3.7q.6 1.3.6 2.8-2.1 0-3.7 1.7-.6.3-1-.3.9-1.6 2-2.7zM320 397.8q-6.2.2-12.2-.4c9.1-5.4 19-10.5 27.8-16.4q1.1 0 .9 1c-5.5 3.4-12 11.1-16.5 15.8Zm-122-14.9c4 2 8 4.3 11.2 7.2l-1.4.8-1.2.8-.9.6-1.1.6-5 2.8-.8.6-6.2 3.4-.7.6q-.7.1-1.3.6a121 121 0 0 0-10.5 6.4q-.8 0-1.4.7a33 33 0 0 0-5.1 2.7l-.6.6q-.8.1-1.5.7a80 80 0 0 0-10.6 6.2q-.8.1-1.3.7-3 1.4-5.6 3.3-.7.2-1.5.8l-4.9 2.7-5.7 3.3-1.3.7a56 56 0 0 0-7 4.3q-3 1.4-5.6 3.2-.8.1-1.4.8a32 32 0 0 0-5 2.7l-.8.5-1.2.7-5 2.8q-1 .6-1.7 1.7c-1.7-1-7.3-5-8.1-6.4q.9-.2 1.8-.7l78.3-48q.9-.4.7-1.4c3.3-3.8 8.7-2.8 12.4-7Zm-58.7 5c-3.9 0-7.1 2.8-10.4 4.5l-45.1 26q-1 .8-1 2-4-3.5-7.1-7.5 20.6-12.5 40.8-25.4 0-.3-.5-.5.3-.9 1.4-.8 10.1 0 20.2.8 1.2 0 1.7.9Zm209.4 9.2c-3 1-8.6.7-11.8.6q0-.4.5-.7a332 332 0 0 0 19.1-11q1.2 0 .7 1c-2.3 2.6-7.2 7.2-8.5 10.1Zm-182.7-10q.3 1.5-1 2.5c-3.1 1-6 4.2-9 4.7q-1.2-.4-2.1 0l-20 11.8-39.6 22.8q-.8.4-1.4 1.2a47 47 0 0 1-7.3-7 7 7 0 0 0 2.3-.7l56.1-34.8q11 .6 22-.5Zm46 4.7c15.2 13.5 27.1 11 45.9 13.2a10 10 0 0 1-2.4 2q-5 2.8-10 6a35 35 0 0 1-4.7 2.5l-.8.8a2 2 0 0 0-1.3.6l-3.1 1.7-.7.4-1.2.8a21 21 0 0 1-3.9 2.1l-1.2.8-.9.6q-.6.2-1.1.7l-5 2.7-.7.5q-.8.1-1.4.7a164 164 0 0 1-10 5.8l-.6.5-1.2.8a28 28 0 0 0-5.1 2.7l-.6.5q-.8 0-1.4.7l-5 2.8-.7.6-1.3.7-5 2.7-7 4.2-3.8 2-1.2.8-.8.5q-.8.2-1.2.8l-7 3.9-3.7 2-1.3.8q-3 1.6-5.6 3.6-.7.2-1.5.7l-5 2.7-.7 1q-9.6-4.9-19.2-10.4 1.2-.3 2.3-.9l51.3-31.6q.4-.4.4-1c1.3.3 3-1.4 4.4-1.8l17.6-10.7q1.4-.9 2.3-2.3 1.4.2 2-1 2.1 0 3-2a2 2 0 0 0 2-1q2.1-.1 3-2a2 2 0 0 0 2-.6c-.6-.9-1.8-.1-2 .6-1.2.2-2.9.6-3 2-.7-.1-2.2-.1-2 1q-2.1 0-3 2-1.4-.2-2 1-.7 0-1.3.3A639 639 0 0 0 184 424l-56 32.4a36 36 0 0 1-8.3-5.6l6.6-3.8 1-1a44 44 0 0 0 6.6-4.3q.8 0 1.4-.7l1.8-1q.6-.2 1.2-.7 2-1.2 3.7-2.6.7-.2 1.3-.7l3-1.7a21 21 0 0 0 3.6-2.6q.8 0 1.3-.6l1.9-1 1.2-.8q2-1.2 3.6-2.6l1.4-.7a39 39 0 0 0 6.6-4.3q.8 0 1.5-.6t1.6-1l1.3-.9 3.5-2.4q.8-.2 1.5-.8l1.7-1 1.2-.7 8.2-5.2q3.3-2 6.4-4.3.8-.2 1.5-.7l1.8-1 1.2-.8q2-1.2 3.6-2.5.8-.1 1.4-.7l3-1.8q2-1.2 3.6-2.6l1.5-.6q1.5-.7 1.8-2.3Zm14 88.3q-1.5-.4-2 1a3 3 0 0 0-3.1 2q-1.5-.5-2 1-2.2-.2-3 2-1-.3-2 .6c.6 1 1.6 0 2-.6q2.1-.3 3-2 1.5.1 2-1 2-.2 3-2 1.4 0 2-1c.9 0 4.2-.9 2.6-2q-2 0-2.6 2Zm140 .1-.4.8-13.6 7.6q-2.4.9-4.4-.5.6-.9 1.7-1.2 7.5-2.8 14.7-6.3 1-.4 2-.4ZM311.4 499c-.2 1-5.6 3.4-6.8 4a5 5 0 0 1-4.8-1.9zm-28 5.1c-.4.8-4.8 2.3-5.8 2.6-1-.1-3.5-.4-3.5-1.8q4.5-1 9.3-.8Z"/><path fill="#6cb577" fill-opacity=".5" stroke="#6cb577" stroke-opacity=".5" stroke-width=".5" d="M238 449q.3-1.2 1.5-1.1c1.3.8-.8 1.3-1.4 1.1Z"/><path fill="#6bb779" fill-opacity=".3" stroke="#6bb779" stroke-opacity=".3" stroke-width=".5" d="M110 215q-.8 1.2-2 1 .5-1.2 2-1Z"/><path fill="#6db676" fill-opacity=".3" stroke="#6db676" stroke-opacity=".3" stroke-width=".5" d="M144 210q-.8 2-3 2 .8-2 3-2Z"/><path fill="#6bb577" fill-opacity=".5" stroke="#6bb577" stroke-opacity=".5" stroke-width=".5" d="M115 212c.1-1.2 3.4-3.3 4.6-3.1 1.2 1-3.7 3.1-4.6 3.1Zm-30-33c0-1 4.3-4 5-2.7a9 9 0 0 1-5 2.7Z"/><path fill="#6bb577" fill-opacity=".6" stroke="#6bb577" stroke-opacity=".6" stroke-width=".5" d="M154 153c.1-1 4.2-3.9 5-2.6a10 10 0 0 1-5 2.6Z"/><path fill="#6cb678" fill-opacity=".3" stroke="#6cb678" stroke-opacity=".3" stroke-width=".5" d="M458 142.1q.4-1 1.6-1.2c1.2.8-1 1.3-1.5 1.2Zm-43 47.8a7 7 0 0 1-5 3.1c.5-1.6 3.4-3 5-3.1Z"/><path fill="#6bb577" fill-opacity=".5" stroke="#6bb577" stroke-opacity=".5" stroke-width=".5" d="M211 128c0 .8-1.3 1.7-1.8.7a2 2 0 0 1 1.8-.8Zm232 23c0 .9-1.3 1.7-1.9.7q.7-.9 1.8-.7Zm-48 51c0 1-1.4 1.7-2 .7q.8-1 2-.7ZM41 336c.2-1.3 6.4-4.8 6.8-3.7A15 15 0 0 1 41 336Zm401-2q-.6 1.2-1.6 1.7-2.6.4-.5-1.1l2-.6Z"/><path fill="#6cb477" fill-opacity=".6" stroke="#6cb477" stroke-opacity=".6" stroke-width=".5" d="M116 120c.1-1 4.2-3.9 5-2.7-1.2 1.2-3.2 2.7-5 2.7Z"/><path fill="#6db476" fill-opacity=".3" stroke="#6db476" stroke-opacity=".3" stroke-width=".5" d="M204.2 75q-1 1.8-3.2 2 .8-2.1 3.2-2Z"/><path fill="#6bb577" fill-opacity=".5" stroke="#6bb577" stroke-opacity=".5" stroke-width=".5" d="M144.1 61.9q-.6 1.2-1.8 1.9-2.3.2-.4-1.2zm125 0q-.6 1.5-1.8 2-2.5.2-.4-1.3zM108.8 75a3 3 0 0 1 2.6-1.9c1.8 1-1.6 2.3-2.6 2Zm158 2c-.4.8-1.8 3-3 1.6.4-1 2.2-1.3 3-1.6ZM127.2 95q.4-1.8 2.4-1.9c1.9.9-1.5 2.3-2.4 1.9ZM428 113c-.4 1.2-2 2.6-3 1.6a3 3 0 0 1 3-1.6Zm-364 6q.3-1.3 1.6-1.7 2.5-.4.6 1.3-1 .4-2.3.4Zm384 29c-1 1.6-3.2 3.2-5 3 .2-1.1 3.6-3.3 5-3Zm-290 21q.5-1 1.5-1.1c1.1.7-1 1.3-1.4 1.1ZM28.9 187.2q.5-2.2 2.9-2.2c1.4 1.1-2.2 2-2.9 2.2ZM69 366.1a3 3 0 0 1 2.7-2c1.6 1.3-1.9 2-2.8 2Zm195 53a3 3 0 0 1 2.7-2c1.6 1.2-1.8 2-2.7 2Zm-38 61q.6-2 2.6-2c1.6 1.1-1.7 2-2.6 2Z"/><path fill="#262626" stroke="#262626" stroke-width=".5" d="M263.8 6.1q2.6.5 5.3 0l1 .2A436 436 0 0 1 296.3 8c104.1 12.5 177.5 83.2 202.6 183.7q0 1.7.8 3.2c5.3 19.1 8 39.8 10 59.6a274 274 0 0 1-3.9 46.9 237 237 0 0 1-78.4 138.4l-16.7 13.9q-2.6.1-2.3 2.6-1-.4-1.6.3l-.9.4q-.7 0-.9.9-1.5-.3-2 1.3-.7-.1-1 .7l-2 .8a2 2 0 0 0-1.3 1.3c-1 .2-2.8 2-3.7 1.7q-.8.4-1.3 1.1a359 359 0 0 1-20.8 12l-.6.2q-1 0-1.4.8l-.8.2q-.7 0-1.2.7-1 .2-1 1.1h-.8l-1 .3q-1 0-2 .4-7.2 3.4-14.7 6.3-1 .4-1.7 1.2c-2-.3-15.1 5.1-18.3 5.7q-9 2.7-18.1 5.1l-11.6 2.1-16.4 3a40 40 0 0 0-9.3.8l-20.6 1q-3.4-.2-6.7.2l-19.7-1c-31.7-3.3-60-10.7-88.6-24.8A231 231 0 0 1 20.2 343q-.4-.9-1-1.3-.2-1.5-.6-2.8c-36.8-105.2-10.4-212.5 81-279q1-.9 2-2.1 1.1 0 1.4-1c1.4.2 3.1-.6 2.7-2.2q.9.3 1.3-.4l1.1-.5q.7 0 1-.6 1-.4 1.2-1.5l.8.6q.9-.4 1.3-1.3.7-.6 1.5-.7a2 2 0 0 0 1.4-1.3l5-2.8q2.9-1.8 5.7-3 .9-.3 1.3-1 2.7-1.8 5.7-3.2l1.3-.8.6-.1q1-.2 1.4-1.2c1 0 2.5-2.1 3.4-1.6l1.2-.6h1.3q11.2-5.7 23-9.7c9.5-4.1 19.7-6.8 29.7-9.7l1-.5q6.8-1.2 13.4-2.8 15.2-2.8 30.5-4.8L241 7q4 .1 8.3-.2zM240 17.6l-1.7.3q-11.4 0-22.7 2.1-7.8 1.2-15.4 3c-.6 0-2.2 0-2 .9-38.7 8-78.8 32.4-107.4 59.6q-.8.7-.5 1.6-1.2.1-1.4 1.2l-4.3 3.5q-2.3 2.3-4.4 5c-.7 1.7-8.5 9.4-10 12-3.6 4.5-21.4 28-21.2 32.2q-1 .3-1 1.3c-2.8 2.7-3.8 6.4-6 9.5-1.6 4.5-6.3 12.2-7.1 16.6q-2 3-3.2 6.4L31 174l-4.8 14.7c-1 3.6-3.2 9-3.4 12.6l-1 2.5-3 13v3c-1 3-2.1 8-1.7 11.3l-.4 1q-1 3.7-.7 7.6-1 5.7-1 11.6l-.2 6.6.1 11.4q0 1.8.3 3.6 0 5.3.8 10.4c0 1.5-.1 4.4 1 5.5a48 48 0 0 0 1.7 14.1l2.3 10.4c.6 1.2.8 5 2 5.5-.1 3 1.4 6.7 2.5 9.5q.5 2.4 1.3 4.7 3.9 9 7.3 18.2 1.4 2.4 2.4 4.9c.7 1.5 3.4 7.4 4.5 8A233 233 0 0 0 60.6 395c3.6 4.5 7.4 9.7 11.6 13.5 0 1.2 2.6 3.6 3.6 4.5q3.3 4 7 7.5a10 10 0 0 0 3 2.7 47 47 0 0 0 7.3 7A6 6 0 0 0 95 432c1.7 1.4 6 6.1 8.1 6q0 1.6 1.8 2c.8 1.4 6.4 5.3 8.1 6.4 1.3 1 5.3 4.3 6.7 4.4 1.7 1.9 6 4.4 8.3 5.6l2.7 2q9.6 5.4 19.2 10.3c1.8.6 4 2.4 5.9 2.1.8 1.7 8.3 4 10.3 5a7 7 0 0 0 4.9 1.1q.3 1 1.3 1.4 4.7 1.9 9.7 3 1.5 1 3 .7.4.8 1.3 1c12.8 3.6 26.3 7.3 39.5 8.3 1.9 1 7.5 1.2 10 1.6 5.7.1 11.7 1.3 17.4.8q1.8.4 3.6.1 10.2.3 20.4-.8 4.3.5 8.5-1a221 221 0 0 0 73.4-20.1 2 2 0 0 0 2-.8 229 229 0 0 0 88.3-71.2q.7-1 .4-2 1 0 1.6-.8l3.6-4.9a231 231 0 0 0 22.8-42.9 2 2 0 0 0-.1-2c3-1.5 12.5-35.3 12.3-40.7l1-2.4 2.2-16.2q1-6 1.1-12 .5-3 .5-5.8l-.1-24.2q0-5-.9-10l.2-1.3-.8-6.6-1.1-8.6a2 2 0 0 0-1.1-1.9q.5-1.6 0-3.4c-.1-3-1.1-6.6-1.9-9.5q0-1.5-.7-2.8-.7-4.6-2.1-9a273 273 0 0 0-4.2-14.2q-.7-2.5-1.8-4.9-3-8.7-7-17.2-.2-1.1-1.1-1.3c-2-7.2-9.1-19-13.1-25.6q-1.2-2.5-2.8-4.8l-5.3-8.2a553 553 0 0 0-15-19 23 23 0 0 0-3.8-3.5Q429 90 425 86.6q-1.6-2-3.6-3.7c-2.4-2-5.9-6.1-8.7-7.3q-.8-1.8-2.6-2.5a27 27 0 0 0-8.1-6.2q-1.5-2-3.7-3.2c-2.7-1.6-6.6-5.6-9.7-5.8.3-1.3-1.6-1.7-2.4-2.3a57 57 0 0 0-10.2-5.9q-2.2-1.8-4.8-3a392 392 0 0 0-18-8.5H352c-1.4-1.7-7.9-3.5-10.1-4.5a7 7 0 0 0-4.1-.7q0-1-1.2-1.2l-9.6-3.1a5 5 0 0 0-3.7-.6c-1.4-1.9-22.8-5.7-26.5-6.5q-.8-.6-1.8-.6-3-.3-5.9-1a398 398 0 0 0-27-2.7q-9-.4-18.3 0c-1.1 0-3-.8-3.8.3Zm41.1 66.5q1.3 1 2.8 1.1a46 46 0 0 1 11 8.8q.6 1.3 1.6 2.2c2.2 4.1 3 8.5 4.6 12.8-1 4.2.5 9.3 1.4 13.4q-.5 1 0 1.7.4 7.5 1.7 14.9c-.6 4.4.5 10.6.6 15.2v1.7c.2 4.6-.7 12 .2 16.3v.7c-1.2 5.7-2.7 22.2-3.8 29.2a30 30 0 0 0 .7 17.3q.4.4 1 .3l.3 1.5c6 7.4 28 6.8 36.7 6.7l4.2-.3c16.3-1.5 34.8-4.2 50.8.1l1 .3 1.2.2q0 .4.4.6c4.4 1.3 7.5 4.4 11.4 6.3q0 1 .7 2 4 3.9 5.8 9.3 1.3 7.5-1.9 14.2l-2 3.3q-4.4 4.5-9.2 8.5 4.5 2.9 8.6 6.4.1.8.6 1.4.6 1 1.6 1.6c1.2 4.4 2.3 7.7 2.2 12.4l-.1.7a26 26 0 0 1-17.3 21.7q-.6.3-.7.8 2.6 2.2 5 4.8 1.5 1.9 2.6 4.1l1 .9c1 4.4 1 8 1 12.6-3.2 8.1-7 14.5-15 18.6q-4.3 1.7-8.8 3.2 2.4 3 4.4 6.2c8.2 15.3-5.7 34.7-22.1 36-34.9 1.5-69.7 1.1-104.5 1.5q-1.5-.6-3-.2c-18.7-2.2-30.6.2-45.7-13.3l-2.9-1.7q-5-4.4-11.2-7.2c-17-8.4-17.2 2-32 4.2q-11 1-22 .5a6 6 0 0 0-4.7.3q-.6-1-1.7-.9-10.1-.9-20.2-.8-1 0-1.4.9c-1.7-.9-5 0-7 0l-1 .1c-7.8-.7-10.6-6.3-12.4-13.2l.3-1.2-.2-.7a942 942 0 0 0 .3-39.9q.1-6-.2-12.3l.3-1-.2-3.7a1975 1975 0 0 0-.1-45c.3-3.6.6-9.8-.1-13.2l.5-1q0-.8-.3-1.7.3-6.6 0-13.3l.2-1.2V238c-1.6-21.8 18-18 32.8-19.2a3 3 0 0 0 1.9 0c17.3 1 39.5-5.6 53.9 7a43 43 0 0 0 19-3.5c41.9-16.6 38.7-72.6 35.1-109.4q.2-1.5-.3-3c1.7-14.8 10.3-23.1 24.3-26.9q2.3.3 4.4-.4 7-.3 14 1.5Zm-30.1 28v2a141 141 0 0 0 3 22q-.3 1.5.2 2.8l.5 16a334 334 0 0 1-2.5 17 87 87 0 0 1-17.6 36.2q-.7.9-1 2.1a2 2 0 0 0-1.6.5 72 72 0 0 1-32.1 20.1q-1.5 0-3 .4-5.1 1.3-10.5 2-.7 0-1 .7a3221 3221 0 0 0-.2 92.2v15q0 2 .4 4c-.8 2.8-.2 7.9-.4 11 .1.9-.6 3.7 1 3.7v1q-1 1.2-1 2.7c.3 1.4-.5 7.5.5 8.2 6 .2 10.5.9 16.3 2 1.7 1 4 2.4 6 2.3 0 1.1 6.8 4.1 7.9 5.1 1.4 1.2 3.4 2.7 5.2 3q0 .8.6 1.2l8.1 6q4 3 9 4.4l4.6 1.1 9.2.8.2-.2c3.5.4 7.5.4 11-.1q0 .5.6.3l17.5-.7q4.9.5 9.9.3 8 .5 15.9.2 6 .6 12.2.4h17c3.2 0 8.8.3 11.8-.7 5.8 0 16.1.7 21.1-2.2q.9 0 1.2-.9c5.1-2.6 6.5-7.7 6.7-13.1q0-1.5-.6-2.8-1-6-5.3-10.4-2.2-2.7-5.6-3.8c-2.3-2-5.6-1.5-8.4-2.4-3.6-2.7 4.2-6.2 6-6.7 8 1.2 13.4 2.3 21-1.8q.8-.1 1-.9h1.2q.7-.3 1-1a15 15 0 0 0 6.8-14.2c0-.8.3-2.8-1-3v-1a11 11 0 0 0-5.9-7.9c-.5-1.4-2.6-2.6-4-2.9-2.6-2.4-8.2-2.5-10.1-4.1.8-4.2 4.7-4.8 8.1-5.9 8.7.3 18.1-1.6 20.4-11.3q1.2-3.8.6-7.7-.4-5.4-4-9.2-2-3.5-5.9-4.9c-2.8-2.6-7.1-1.7-10.5-3.3q-.2-1.9.5-3.8a3 3 0 0 0 2.9-2c7-.7 14.5-3.1 16.1-10.9 2.6-4.7-.2-14.4-4-18.2a16 16 0 0 0-5-4.7c-4.6-2.9-8.9-2.3-14.1-2.1q-3.3-1.1-6.8-.7-9.2-.4-18.2.7-4.5 0-9 .3-9.6.8-19 1-5.6-.4-11-.4-6.6-.9-13-2.7-3-1.7-6.2-3.2l-3.4-3.7-3-5.2a34 34 0 0 1-1.6-10L290 198v-2q1.4-6 1.2-12l.6-6a128 128 0 0 0 .3-13 83 83 0 0 0 0-15.1c.1-2.3.5-11.7-.6-13.1q.6-1.5-.2-2.9.1-6-1.1-12 .2-1.6-.8-2.8a49 49 0 0 0-6.2-20.3c-.4-.6-.9-2.7-1.8-2.5q-3-4.9-8.3-6.1-1.4-.4-2.6.1l-2.3-.3c-11.8 1.8-18.6 10-17 22.1ZM131 224.8c-3.4.1-8.2-.4-11.3.5q-1.4-.4-2.9-.4l-6.4.1q-.8.4-.8 1.3A728 728 0 0 0 108 287l.5 30.8.6 58.2c.9 4 4.3 5 7.9 5.4q17.6-.5 35.1-.1 1.8-.4 3.6-.3 2 .3 4.3 0h10.5q.9 0 1.4-.6a337 337 0 0 0 1.4-50.4l.1-1.1q.6-.6-.1-1a1550 1550 0 0 1-.5-51 181 181 0 0 1 1-25.8V247c.3-4-.4-16.6-3.9-19a1 1 0 0 0-.8-1c-2.6-4.3-32.4-1.7-38-2Z"/><path fill="#68af74" fill-opacity=".6" d="M410.7 453.8c.6 1.3-1.7 1.7-2.3 2.6q-.3-2.4 2.3-2.6m-2.3 2.6q-.7.4-1.6.3.6-.7 1.6-.3"/><path fill="#747673" d="M173.3 327.9q.7.4.1 1z"/><path fill="#a7baaa" d="m344.2 227.6-4.2.3c.6-2.5 4.4-2.8 4.2-.3"/><path fill="#619f6b" fill-opacity=".6" d="M110.3 51.7q-.2 1-1.1 1.5 0-1.2 1.1-1.5m-2 1.2.9.3q-.4.5-1 .6z"/><path fill="#496f50" fill-opacity=".7" d="M200.3 23q-.7 1.2-2 .9c-.2-1 1.4-.9 2-.8"/><path fill="#aee090" stroke="#aee090" stroke-width=".5" d="M169.1 227c-4.4-1.3-7.4 2.5-10.5 5q-.6.9 0 1.6l10.6-5.8h.7c3.5 2.5 4.2 15.2 3.8 19.1q-5 3.5-9 8-.6.6-.2 1.2l9.2-5a181 181 0 0 0-.9 25.8q-7.7 5.8-15 12a43 43 0 0 1-6 4.5q-.9.7-.3 1.7c2-.2 5.2-2.8 6.8-4q7.5-3.7 14.5-8 0 22.5.5 44.8c-1.1.1-4.9 1.9-3.8 3.3 1.5-.3 2-1.4 3.8-1.2q.3 5.5.3 11-6.2 5.8-12.7 11.4c-2 1.9 1 1.7 2.2 1.3q5.1-3.2 10.6-5.7-.1 16.2-1.8 32.4-.6.8-1.4.6H160q.6-1.6.8-3.6c.7-.4 3.7-2.5 2.6-3.4l-3.5 1.4-7 4q-1 .7-.8 1.9-17.6-.4-35.1 0c.2-3.6 26.5-22.8 26.7-24.7q-1.2-.6-2.3.3-16 10-32.3 19.1 0-29.1-.6-58.2c3.2-1.6 16.3-13.4 20.5-16.2q1-.7.5-1.8l-18.8 10.4-2.4 2-.3-25.2 13.5-10q.8-.7 1.3-1.7c-.4-.8-1.2 0-1.8.1-3.3 2.2-11.3 5.5-12.8 8.5q-.5-28.8 1.5-57.6 0-.9.8-1.3l6.4-.1q-1 1-1 2.4c-1.1.2-2.7 6.2-3.5 7.4q-.4 1.3 1 1c3.5-2.2 15.4-8.3 17.6-10.9 5.7.4 35.5-2.2 38.1 2.1Zm-58.4 136c.2 0 1.9-.3.9-1q-.7.3-1 1Z"/><path fill="#fefffe" stroke="#fefffe" stroke-width=".5" d="m268 90 .3 1.2q-1.2 0-1 1.1c-1 2.3 5.3-1.9 5.7-2.1q5.4 1.3 8.3 6-2 2.9-4.8 4.9-.6.6-.2 1.3 1 0 1.8-.5 2.3-2 5-3a49 49 0 0 1 6.2 20.2q-1 .3-1.9.9-3 3-6.5 5.4-1.5 1.3.4 1.2c2.2-1.6 6-4.4 8.8-4.7q1.3 6 1 12a3 3 0 0 0-1.8.8q-3.6 3.5-7.4 6.7c-1 .7-1 1.9.4 1.2 1.7-1.2 8.4-4.1 9-5.8 1.1 1.4.8 10.8.7 13.1a4 4 0 0 0-1.7.9q-4.3 3.9-9 7.5.7.6 1.7.2 4.4-3 9.1-5.5.4 6 0 12-6.1 3.9-11.8 8.4.3.5.8.3c2.8-1.5 8.1-5.3 11-6q0 5.3-.4 10.2-3 1-5.7 2.7l-47 27q-2.4 1.7-5.3 2.6.3-1.2 1-2.1c9.3-11 14-22.4 17.6-36.2a2 2 0 0 0 1.7-.5l5-4.9q-.5-.5-1.2 0-2.3 1.7-5 2.7 1.2-7.2 2-14.4a58 58 0 0 0 7.3-7q1-.9 0 0l-7.2 3.3-.6-12.2 5.5-5.3c-.8-1.4-2.6 1-3.3 1.4q-1.2.7-2.4 1a141 141 0 0 1-3-22c1.5-.3 2.8-2.5 0-1.9-1.6-12 5.2-20.4 17-22.1Zm23 94q.3 6-1.2 12a4 4 0 0 0-1.9.5q-7.6 4.8-14.7 10 .9.6 1.9.2c3.6-3.3 10.4-6.4 14.8-8.7l-2 12a3 3 0 0 0-1.9.5 72 72 0 0 0-7 5.2l.3.4 8.5-4.3q.3 4.2 1.5 8.3-.5.8-1.2 1.5a77 77 0 0 0-7 5q.5.7 1.2.3c2.2-1.3 5.9-4.1 8.4-4.3q.6 1.6 1.7 2.7l3.4 3.7q0 .5-.5.7l-48 33.8q.7.6 1.8.2a36 36 0 0 1 4.9-3.3l46.3-26.7q1-.6 1.8-1.5 6.3 1.7 12.8 2.7-.3.8-1 1.4l-51.7 35.1c1.6 1.2 2.2-.5 3.5-1.2q30.2-17.3 60.2-34.9a387 387 0 0 0 19-1l-54.6 36.1q1.2.9 2.5 0 2.9-2.4 6.1-4.1l52-30q1.8-.9 3-2.3 9.2-1.2 18.3-.7-.6 1-1.7 1.7l-53.3 34.5q.9.6 1.8.1 3.6-2 7-4.4l52-30q.8-.4 1-1.2c5.2-.2 9.5-.8 14.2 2.1a4422 4422 0 0 1-77.2 50.5c-.4.5-1.3.8-.6 1.5 1.2-.4 4.4-1.6 4.6-3q1-.1 2-.6 37.9-22.2 76-43.7c3.9 3.8 6.7 13.5 4.1 18.2-4.4 2.7-12.7 7.6-16.1 11q-2 0-2.9 2a5 5 0 0 0-2.1.6q-16.9 11.3-34 22-.7.1-.8.9c1.6 1.4 3.8-2 5.3-2.5l1.5-.5 27-15.8q1.2-.7 2.6-1c3.4 1.6 7.7.7 10.5 3.3a2137 2137 0 0 1-68.2 46.5q-.6.3-.8 1c1.7 1.2 2.2-.8 3.5-1.4L399 284q3.6 3.9 4 9.2-2.4.6-4.3 2.2-31.2 22-62.8 43.1-.6.4-.8 1.1 1 .6 2 0a1926 1926 0 0 1 36.8-21.5c1.9 1.6 7.5 1.7 10 4.1q-17.4 13-35.6 25.2.4.5 1 .4L388 325a11 11 0 0 1 6 8q-.7 0-.8.7c-5.3 2.8-22.3 15.8-28.5 20q-.6.5-.7 1.1c-2 .5-9.7 4-6 6.7 2.7 1 6 .3 8.3 2.4q-6.4 7-13.2 13.6.6.4 1.2.1l17.6-10q4.4 4.5 5.3 10.5-1.2.6-2.1 1.5-1.3 1.2-2 2.7.3.6 1 .3 1.5-1.7 3.7-1.7c-.2 5.4-1.6 10.5-6.7 13.1q-.9.1-1.2 1c-5 2.8-15.3 2.1-21 2.1 1.2-3 6.1-7.5 8.4-10.1q.5-1-.7-1a332 332 0 0 1-19 11 1 1 0 0 0-.6.7q-8.6.3-17 0c4.5-4.6 11-12.3 16.5-15.6q.3-1-.9-1.1c-8.7 6-18.7 11-27.8 16.4q-8 .2-16-.2c.4-1.7 24.6-18.5 28-20.9l3.2-2.8c-1-.7-2.8.7-3.8 1q-18 10.8-36.1 21.2-.7.4-1.1 1.2l-17.5.7q-.4 0-.7-.3c4-3.8 22.6-16.2 28.3-20.6q2.1-.9 3.9-2.2l6.8-4.9a2 2 0 0 0-1.8-.3l-9.8 6.5-38.3 21.6-.2.2-9.2-.8-4.6-1.1 69.3-48 1.4-.6 3.2-2.8c-.7-1.1-3 1.1-3.8 1.3q-.7.4-1 1.2l-2 .8q-37.9 22-76 43.7l-8.2-6a42 42 0 0 0 11.1-7.3 6 6 0 0 0 2.8-2.7q2.1 0 3-2 2.1 0 3-2 1.3 0 2.6-.6l37.3-25.6a94 94 0 0 1 7.6-4.6q.5-.3.7-1a2 2 0 0 0-2 0q-35.6 21.3-72 41.6c-1-1-7.7-4-7.8-5a2622 2622 0 0 1 62-40.5q2-1.5-.5-1.3l-15.3 9-52.2 30.5a93 93 0 0 0-16.3-2.1c-1-.7-.2-6.8-.5-8.2q0-1.5 1-2.7c1.2.6 2.7-1.8 4.1-2 1.6-1.6 3.3-1.6 4.5-3.7 2.4 0 2.4-1 3.7-2.8q2.3.1 3-2 1.5-.2 2.8-.6l41-26.8c.9-.5 3.5-1.1 3.5-2.4q-.8-.7-2-.1a1862 1862 0 0 1-61.6 35.6c.2-3-.4-8.1.4-11l.6-1.2q1-.2 1.7-.8l1.2-.9c.8-1 3.4-1.3 3.5-2.8l1.6-.6q5.3-3.7 11-7l5.2-3.9q3.3-1.3 6.2-3-1.2-1.1-2.4-.2-5.1 2.9-9.8 6.3l-12.8 7.2q-.6.4-.4 1.2c-.8-.2-2.4-.2-2 1q-.9-.3-1.3.6l-1 .4-1.7-.2v-11l14.7-10.2q7.4-4.8 15.2-9.3 1.9-1.6-.6-1.2l-15.3 9c-3.5 2-10.5 6.5-14 7.7V314q12.8-9.2 25.8-17.5a3 3 0 0 1 3.1-1.9q1.5-1.4-.5-1.1-1 .2-1.9.7-3.6 2.6-7.4 4.8l-19 11v-13q15-11 30.2-21.4c-.5-.7-3.2 1.4-4 1.5a511 511 0 0 1-24 14.2q-1 .6-2.3.9-.1-29.1.3-58.2.2-.6 1-.8 5.3-.6 10.5-1.9 0 1.2 1.1 1.7l-6.4 6.4c-1.6 1.4-.5 2.4 1.2 1.2zm-121.9 43 .1.8-10.7 5.8q-.5-.7 0-1.6c3.2-2.5 6.2-6.3 10.6-5Zm4.6 20q.3 2 0 4.1-4.5 2.6-9.2 5-.3-.6.1-1.1 4.2-4.5 9.1-8Zm-.9 30q.5 3 0 6.2-7 4.2-14.5 7.9l-.5-2.2q7.3-6.2 15-12Zm229.6 23.8c-2.3 9.7-11.7 11.6-20.4 11.3q0-.6.5-1l19-10.5q.5 0 .9.2ZM173.6 341v7q-5.4 2.6-10.5 5.7c-1.1.4-4.1.6-2.2-1.3q6.5-5.6 12.7-11.4Z"/><path fill="#b1d7b7" fill-opacity=".5" d="M262 147.8q1.2-.9 0 0"/><path fill="#8cca84" fill-opacity=".4" d="M110.7 363.1q0-.7.9-1c1 .7-.7 1-1 1"/><path fill="#6bb577" stroke="#6bb577" stroke-width=".5" d="M376 49.7q5.5 2.4 10.3 5.9-1.5.4-2.9 1.3L313 100.4q-1.8 1.2.2 1.8-1.5 1.2-3.1 1.8c.5-2.4-4.7.1-3.3 1.2 0 1.8-4.3 2.4-5.5 3.8-1.6-4.3-2.4-8.7-4.6-12.8q1.3-.2 2.4-.7l76.1-44q1-.6 1-1.8ZM402.2 67a27 27 0 0 1 8 6.2q-1 .3-2 1.1l-1.5.7-1.7 1-1.2.8a21 21 0 0 1-4 2.3l-1 1q-2 1-3.6 2.2-.9.3-1.4.8l-1.8 1-1.2.7-3.9 2.4-1 1a12 12 0 0 0-3.1 1.6l-3.8 2.3-1.2.7-3.5 2.5q-.8.2-1.6.7l-1.7 1-1.2.8-5 3-3.7 2.6a2 2 0 0 0-1.4.7l-1.7 1-1.2.7-6.8 4.2-1.2.8-.9.6-1.2.7-3 1.7a18 18 0 0 1-3.9 2.2l-1 1-3 1.8-.7.5-1.4.7q-.7.6-1.7 1l-1.2.8q-1.8 1.5-4 2.4l-1 .8q-2 1.1-3.7 2.4l-1.2.5-2 1.6q-5.8 3.2-11.4 6.6l-.4.8q-1 .5-1 1.5-.7.6-1.7.7-1.3-7.5-1.7-14.9h1.4l1.3-.8q1.7-1.5 3.8-2.2l1.2-.8.7-.5 1.2-.8a35 35 0 0 0 5.8-3.3q.9 0 1.4-.6l4.9-2.8.8-.5 1.3-.7 4.9-2.8 5-3 .7-.6 1.3-.7 5-2.7.7-.7q.9 0 1.3-.6l5-2.7.8-.6q.8 0 1.3-.7l3-1.7.8-.3q.8-.3 1.2-1l5-2.7.8-.5 1-.7 5.1-2.8.7-.5 1.4-.8 3.6-2q.8-.2 1.3-.7l.7-.5 1.4-.7q2-1 3.6-2.4.8 0 1.3-.7 3-1.3 5.6-3.3.9 0 1.4-.6l5-2.8.7-.6q.8 0 1.3-.6l3.7-2q.8-.4 1.1-1.2Zm49 49.8 5.2 8.2-2.6 1-7 4-1 1.1q-2 .8-3.6 2.3-.8.2-1.4.6-.9.7-1.7 1l-1.3.8q-2 1.2-3.6 2.6a19 19 0 0 0-8 5q-.7 0-1.5.6-3.3 2.3-6.8 4.2-.7.3-1 .9l-8 4.7a18 18 0 0 0-3.6 2.6q-.8.2-1.5.7a42 42 0 0 0-8 5l-3 1.7q-2 1.4-4 2.4l-1 .8-1.8 1-1.2.8-5 3-1.8 1.2-1.2.8-.7.5-1.4.8-1.7 1-1.2.7q-2 1.2-3.6 2.6-.7 0-1.5.7l-1.7 1-1.2.7q-1.8 1.5-4 2.2l-1 1-1.8 1-1.2.8a71 71 0 0 1-6.8 4.2l-1.2.8-.7.6-1.3.7-3 1.7-3.7 2.6-1.3.6-3 1.8q-1.8 1.4-4 2.3l-1.1 1-1.7 1q-.6.2-1.2.7-1.7 1.4-3.7 2.3l-1.3.7q-1.7 1.5-3.8 2.5-.6.2-1 .7l-2.2 1.4q-6 3.6-11.8 7.4-.4.2-.9-.3a30 30 0 0 1-.7-17.3q2.5.6 4-1.1l1-.2q12.3-7.2 24.8-14.2l1-.9q.6 0 1.1-.6a37 37 0 0 1 5.1-2.8l.7-.5q.8-.2 1.4-.8l3-1.6.6-.4 1.3-.7 5-3 .8-.5 1.3-.8a56 56 0 0 0 7-4l8.7-5q.6-.2 1.3-.7l1-.4q.6-.3.9-.9l5-2.7.9-.6q.6-.2 1.1-.6l5-2.8.7-.7q.8 0 1.4-.6l4.9-2.7.8-.5 1.2-.7 3-1.8.7-.6q.8 0 1.4-.6l5-2.8.7-.5q.8-.1 1.3-.7l5-2.8.6-.6a77 77 0 0 0 25.3-14.4l.7-.6q.8 0 1.4-.6a33 33 0 0 1 4.9-2.8 75 75 0 0 0 7-4.3 3 3 0 0 0 1.7-1.3Zm38 88c.8 2.9 1.8 6.5 1.8 9.5a3220 3220 0 0 0-54.2 33q-7.2 4.5-14.7 8.9c-1.8.7-7 4.4-8.4 4.5q3.2-6.8 2-14.2c2-.5 8-5.9 11.3-6.7q1 .4 2.1-.1l8.4-4.8q1-.7 1.6-1.7 1 0 2-.5l13.8-8q17.1-9.8 34.3-20Zm4.2 31.2h.5q1 5 .8 10.1-.8-.1-1.7.3l-68.3 42q-1 .5-1.7 1.4a7 7 0 0 0-5.6 4.1l-1.1.4h-.8c0-4.7-1-8-2.3-12.4a11 11 0 0 0 3.2-1.5q3-1.9 6-3.3l1-1q3-1.3 5.5-3.3l1.6-.6 4.9-2.8.7-.5q.8-.1 1.3-.7l5-2.8q3-1.6 5.6-3.6.9 0 1.3-.7 3-1.3 5.7-3.3.9 0 1.4-.7l5-2.7.8-.6 1.2-.6a35 35 0 0 1 5-2.8q2.9-1.6 5.5-3.5.8-.2 1.5-.8l5-2.7.7-.6q.8 0 1.3-.7l5-2.7.7-.6q.8-.3 1.3-.7zm1 40q0 6.2-1 12-1.3 0-2.3.5L428.8 327q-8.7 5.1-16.9 10.7c-2.4 0-2.5 2.4-5 2 0-4.6 0-8.2-1-12.6q3.3-1.5 6.1-3.8l1-.7q.8 0 1.2-.5 1.8-1.2 3.9-2.2l1.2-.7a37 37 0 0 1 5.7-3.3q.8-.2 1.3-.7l5-3 .8-.5 1.2-.8a38 38 0 0 0 5-2.7l.7-.6q.9 0 1.2-.6a70 70 0 0 0 7.2-4l4.9-2.8 5-3 .7-.6q.8 0 1.3-.6l5-2.8.8-.5q.7-.2 1.2-.8l5-2.7.7-.5 1.3-.7 5-2.8q3-1.6 5.6-3.6l1.5-.6 3.7-2 1.2-.8.8-.6q.8 0 1.2-.6 1-1 2-1.1ZM198.1 383c-3.7 4.2-9.1 3.2-12.4 7q-1 0-1.7.6l-16 9.2q.2.9 1 1l-1.6 1.3q-1-1-2.4-.4l-61 35.1q-.6.4-.9 1.2c-2.2.2-6.4-4.5-8.1-6l38.6-23.7q1-.3 1.2-1.3c1.6.3 2.8-1.4 4.2-1.9l16-9.7q.7-.3 1-1c3-.5 6-3.7 9.1-4.7q1.3-1 1-2.5c14.8-2.2 15-12.6 32-4.2Z"/><path fill="#3e6841" fill-opacity=".1" stroke="#3e6841" stroke-opacity=".1" stroke-width=".5" d="M86.7 227.8q1.3 0 1.3 1.2-2 1.2-4.3 1.9l-.7-.9zm159 185.1q1 0 1.4 1.1-2.1 1-3.8 2.3l-1-.6-.4-.7z"/><path fill="#3d5c43" fill-opacity=".4" stroke="#3d5c43" stroke-opacity=".4" stroke-width=".5" d="M84.7 89.8q0 1.4 1.3 1.7-2.5 1-4.5 3l-1.2.3q2-2.7 4.4-5Z"/><path fill="#355c3b" fill-opacity=".1" stroke="#355c3b" stroke-opacity=".1" stroke-width=".5" d="M63 191.7v1.3l-1.6 1q-.9 0-1.4-1 1.5-.9 3-1.3Zm179 240v1.3l-1.5 1a3 3 0 0 1-1.5-1q1.4-.9 3-1.2Z"/><path fill="#416644" fill-opacity=".1" stroke="#416644" stroke-opacity=".1" stroke-width=".5" d="M137.7 403.8q1.2 0 1.4 1.2c-1.5.5-2.7 2.2-4.4 1.9l-.7-.8q2-1 3.7-2.3Z"/><path fill="#3c6943" fill-opacity=".1" stroke="#3c6943" stroke-opacity=".1" stroke-width=".5" d="M187.6 422q1.2-.2 1.5 1c-1.3.4-3.1 2.1-4.4 1.8l-.7-.8z"/><path fill="#405b45" fill-opacity=".4" stroke="#405b45" stroke-opacity=".4" stroke-width=".5" d="M244 17.3q-1.2.9-2.6 1.5-.5-.9-1.3-1.2c.8-1.1 2.7-.3 3.8-.3Z"/><path fill="none" d="M317.8 468.8q1 .3 1.3 1.3a4 4 0 0 0-1.5 1q-1-.2-1.6-1.1zm-218-389q1 .2 1.3 1.2-.9.4-1.5 1-1-.2-1.6-1z"/><path fill="#374b3a" fill-opacity=".6" d="M498.9 191.8c1.4-.2 1.2 2.4.8 3.2q-1-1.4-.8-3.2"/><path fill="#3e5641" fill-opacity=".2" stroke="#3e5641" stroke-opacity=".2" stroke-width=".5" d="M295 21q1.1 0 1.9.6-.7.9-1.7 1.4z"/><path fill="#3f5843" fill-opacity=".6" stroke="#3f5843" stroke-opacity=".6" stroke-width=".5" d="M361 471.1a2 2 0 0 1-1.9.8q.7-1 2-.8Z"/><path fill="#242424" fill-opacity=".1" stroke="#242424" stroke-opacity=".1" stroke-width=".5" d="M405 326.3q1-.2.9.9z"/><path fill="#3e5643" fill-opacity=".4" stroke="#3e5643" stroke-opacity=".4" stroke-width=".5" d="M415.4 294.2h.8q-.3.6-.9.7z"/><path fill="#3e5843" fill-opacity=".3" d="M19.1 341.8q.8.5 1.1 1.2-1.2 0-1-1.2"/><path fill="#426045" fill-opacity=".4" stroke="#426045" stroke-opacity=".4" stroke-width=".5" d="M127.3 42.2q-.4.7-1.3 1 .1-1.2 1.3-1Z"/><path fill="#252525" fill-opacity=".3" stroke="#252525" stroke-opacity=".3" stroke-width=".5" d="m455 392.2-.7 1.2q-.4-1.2.7-1.2Z"/><path fill="#405d46" fill-opacity=".5" stroke="#405d46" stroke-opacity=".5" stroke-width=".5" d="M26.6 188q.1.4-.3.7z"/><path fill="#3b5140" fill-opacity=".4" d="M395 463.8q0 1-1.3 1.1.5-.7 1.3-1.1"/><path fill="#252525" fill-opacity=".6" d="M31.8 172.8q.3 1-.7 1.2z"/><path fill="#37483a" fill-opacity=".6" d="M238.6 110q.6 1.4.3 3l-1-.2q0-1-.2-1.7.3-.8.9-1.1"/></svg>