<svg xmlns="http://www.w3.org/2000/svg" style="shape-rendering:geometricPrecision;text-rendering:geometricPrecision;image-rendering:optimizeQuality;fill-rule:evenodd;clip-rule:evenodd" viewBox="0 0 512 512"><path fill="#de4b56" stroke="#de4b56" stroke-width=".5" d="M138 184.4q-.6 0-.7.6l-13.5 10.2a14 14 0 0 1-4.6-6.1q24.9-14.3 49.4-29 1.3 0 1 1c-10 5.2-22.2 16.3-31.5 23.3Zm-10 4.5c-1.2.2-2.9.5-3 2q-1.1 0-1.9.8c.6 1 1.8 0 2-.8 1.1.2 3-.6 2.9-2q1.1.3 2-.6c-.6-.9-2-.2-2 .6Zm-.3 64.2-.9-2.2q2.4-2 3.3-5c18.1-10 37.1-20.6 54.7-31.7q.8-.5 1.8-.7 2.1-.2.6 1c-3.4 0-3.2 3-6.3 3.7l-51.3 34.4a4 4 0 0 1-2 .4Z"/><path fill="#dd4954" stroke="#dd4954" stroke-width=".5" d="M203 124.1q5.5 0 11.1.3l-59.2 34.4c-2.4-2-4.7-1.2-7.1-2.4l54-31.2q.8-.3 1.2-1Zm-45 29c-1-.7-6 2-4.6 3 1.4-.3 4-1.6 4.5-3 1.1-.1 4.1-.7 2.5-2.3a3 3 0 0 0-2.5 2.3Z"/><path fill="#dd4752" fill-opacity=".4" d="M309.2 31.3a2 2 0 0 1-1.6.7q.7-.5 1.6-.7m13.1.7-1.2.8q.3-1 1.2-.8m4.7 8.2q-.3.9-1.2.7.4-.5 1.2-.7m-8 5.1q-.5.8-1.4.6zm25.1 1q-.4.8-1.5.6zm-60 1q-.4.7-1.5.7.8-.6 1.5-.7m27 3q-.5.6-1.3.7.6-.6 1.3-.7m38.3.8q-.6.6-1.2.6c-.3-.8.8-.4 1.2-.6m5 13q-.6.5-1.4.6.4-.9 1.4-.7m10.7 5.1q-.5.9-1.4.7.6-.5 1.4-.7m-84.8 3-1.3.6q.4-.8 1.3-.7m-29 1-1.2.6q.2-.9 1.2-.7m106 1.1a2 2 0 0 1-1.6.7q.7-.6 1.6-.7m-8.2 5q-.5.7-1.4.7.6-.6 1.4-.7m4.3 3.7q-.5.7-1.4.7.4-.8 1.4-.7m-12.2 1.2a2 2 0 0 1-1.6.8q.7-.5 1.6-.8M278.3 92q-.6.5-1.3.7.4-.8 1.3-.7m91 .1q-.5.5-1.3.7.3-.8 1.4-.7m-42 6q-.5.4-1.2.6.4-.7 1.2-.6m22 .2a2 2 0 0 1-1.7.6q.7-.4 1.7-.6m-89.4 1q-.2.8-1.2.7.6-.6 1.2-.7m81.3 4q-.4.8-1.5.7.6-.6 1.5-.8m-88.8 3.8q-.6.6-1.4.7.5-.8 1.4-.7m91 0q-.6.5-1.4.6.5-.7 1.4-.7m-102.6 4.2q-.2.8-1.2.7zM76.9 136c.6-1 4.2-4 5.1-2.7a8 8 0 0 1-5 2.7m12 21.3q-.4.8-1.3.7.6-.6 1.2-.7m4.5 1.7-1.3.7q.3-.9 1.3-.7M63 172.3q-.4.7-1.3.7.6-.5 1.3-.7m5.3 2.8-1.5.7q.5-.9 1.5-.7m59.7 13.8c0-.8 1.4-1.5 2-.6q-.8.9-2 .6m-84.7 2.2q-.7.5-1.5.5.6-.6 1.5-.5m55-.1q-.5.6-1.3.6.4-.7 1.3-.6m-19.4 7.3q-.4.8-1.3.6zm.3 4.7a3 3 0 0 1-1.4.8q.5-.9 1.4-.8m22 3.1-1.3.6c-.2-.9.9-.5 1.4-.6m-8 5-1 .7q0-1 1-.6M77 218.3q-.4.9-1.3.7zM41.3 227a3 3 0 0 1-1.4.7q.5-.7 1.4-.7m47.6.3q-.3.7-1.2.7.4-.5 1.2-.7m-6.9 4q-.4.6-1.3.6.6-.6 1.3-.7m-31 2q-.4.7-1.3.7.5-.6 1.3-.8m34.3.7q-.7.5-1.6.7.7-.6 1.6-.7m-8 5q-.6.5-1.4.8.5-.9 1.5-.7m-34 3q-.4.5-1.2.7.3-.8 1.3-.7m26 2q-.7.6-1.6.7.7-.6 1.7-.6m28.1 1-1.4.8q.4-1 1.4-.8m388.6 6q-.5 1.3-2 1 .6-1.2 2-1m-41.6 13q-.6.6-1.3.7.3-.9 1.3-.6M36 276.3q-.4.9-1.3.8zm-7 4.1q-.4.9-1.4.7.6-.6 1.3-.7m104.4 25.8-1.2.6c-.3-.8 1-.4 1.1-.6m-21 12.9q-.6.6-1.4.6.4-.7 1.4-.6m50.6 8q-1 1.8-3 2 .6-2.3 3-2m311.1 7.2q-.4.8-1.5.8.7-.6 1.5-.8m.2 6.8-1.2.8q0-1 1.2-.8m-14 2.2q-.7.7-1.5.7a3 3 0 0 1 1.4-.7m-412.2 9q-.5.9-1.4.7zm407.3-.2q-.6.6-1.4.7.5-.7 1.4-.7m-398 1q-.7.6-1.7.7a2 2 0 0 1 1.7-.6M193 370a7 7 0 0 1-5 3c1-1.6 3.2-3 5-3m4.8 11.3q0 .9-1 .6.4-.4 1-.6m205.5.7-1.1.8q.1-1 1.1-.8m-229 16a2 2 0 0 1-1.4.7q.5-.8 1.4-.7m218.7 7a3 3 0 0 1-3 2 4 4 0 0 1 3-2m-212 2.3q-.5.8-1.4.6.6-.4 1.4-.6m-8.6 10.7q-.7.6-1.5.7.4-.7 1.5-.7m-45.4 4.3q-.4.8-1.4.6.6-.5 1.4-.6m28 0q-.3.7-1.3.6zm9.3.7q-.6.6-1.5.7.6-.7 1.4-.7m-8 5.1-1.5.6q.6-.6 1.5-.6m-37 3.9q-.7.6-1.5.8.5-.8 1.4-.8m-18.4 5.2q-.3.9-1.3.7.7-.6 1.3-.7m187.4 6q-.7.5-1.5.5.6-.7 1.5-.6m-18.3 7q-.4.9-1.3.8zm4.4 1.8-1.3.8q.3-1 1.3-.8m22.6 1.3q-.4.7-1.4.7.6-.6 1.4-.7m-5.6 6.8a3 3 0 0 1-1.6.6q.6-.7 1.6-.6m-47.4 5q-.3 1-1.3.8.6-.5 1.3-.7m-90 1.8a4 4 0 0 1-3 2.2q.8-2 3-2.2M274 471q-.6.6-1.4.7.5-.7 1.4-.7"/><path fill="#dd4752" fill-opacity=".4" stroke="#dd4752" stroke-opacity=".4" stroke-width=".5" d="M305.7 33q0 1.1-1 1zm31.6 6a2 2 0 0 1-1.4.8q.5-.8 1.4-.8Zm-29 1q-.6.5-1.4.7.6-.7 1.5-.6Zm53 4.1q-.6.6-1.5.7.6-.7 1.5-.7Zm-128.2 4.8c-.9 1.6-3.3 3-5.1 3a8 8 0 0 1 5-3ZM335.4 59a2 2 0 0 1-1.5.7q.6-.7 1.5-.7Zm12.4 4q0 1-1 1zM231 65c.1 1.1-1.3 1.1-2 1q.5-1.2 2-1Zm109.3 7q-.4.6-1.1.7.2-.9 1.1-.7Zm45.5 3q-.2 1-1.2 1zm-91 2q0 1-1.2 1zm83 3q-.2 1-1.2 1zm-140.4 1a2 2 0 0 1-1.4.7q.4-.8 1.4-.6Zm81.3 0q0 1-1 .9zm-43 8q0 1-1 1zm63.6 2q-.7.6-1.5.8.5-.8 1.5-.8ZM243 93q-1 2-3.1 2 .9-2 3-2Zm46.7 6.1q0 1-1 .8zm65.6 1a3 3 0 0 1-1.6.6 2 2 0 0 1 1.6-.6Zm-41.7 1q0 1-1 .8zm-8 5q0 1-1 .8zm7.7 0q-.6.6-1.3.6.4-.7 1.3-.6Zm-15.6 5q0 1-1.1 1zm31.4 3.9q-.3.6-1 .8.1-.8 1-.8ZM103 149.3q-.5.7-1.4.6.7-.5 1.4-.6Zm11.9 13q0-.9.7-1c1 .5-.3.9-.7 1Zm-38 1.9q-.3 1-1.2.8.5-.6 1.2-.8Zm-5.5 8.9-1 1q-.2-1.2 1-1ZM46.2 189l-1 1q0-1 1-1Zm17.1 24-1 1q0-1 1-1Zm-41 18.2q-.6.9-1.6.8.7-.7 1.5-.8ZM494 246c-1.3 1.7-2.7 3.2-5 3q1.8-2.5 5-3ZM68.3 263l-1 .8q0-1 1-.8Zm-43.1 1q-.4 1-1.5 1 .6-.7 1.5-1Zm35.1 3.9-1 .9q0-1 1-1Zm-17.2 4.3q-.4.7-1.3.7.5-.6 1.3-.7Zm387.1-.3q-.6.6-1.4.7.5-.6 1.4-.7ZM138 300.3q-.2.8-1.2.7.6-.5 1.2-.7Zm-9.6 8.8-1.1.8q0-1 1.1-.8Zm-61 2.2q-.7.7-1.5.7.5-.7 1.4-.7ZM158 330c-.6 1.6-3.3 3-5 3.2.7-1.8 3.2-3 5-3.2Zm285 10a3 3 0 0 1-3 2 3 3 0 0 1 3-2Zm-388 8.4a2 2 0 0 1-1.5.7 2 2 0 0 1 1.5-.7Zm351-.3a8 8 0 0 1-5 3c.7-1.7 3-3 5-3Zm54.3 1.1a2 2 0 0 1-1.5.6q.6-.7 1.5-.6Zm-17.6 5q0 1-1 .9zm-239.6 26-.9 1q-.3-1.1.9-1ZM380 395q-.9 1.9-3 2 .6-2.1 3-2Zm-185.2 4.3q0 1-1.1.8zm-53.9 15q-.3 1-1.3.8zm28.4.1q-.7.6-1.6.6a3 3 0 0 1 1.6-.6Zm136 17.8-1.1.9q-.1-1.1 1-1Zm25.7 2c-.4 1.3-3.6 3-5 3 .8-1.6 3.2-3.3 5-3Zm-216.6 1q-.4.5-1.2.9 0-1 1.1-1Zm176.9 6-1 .8q0-1 1-.8Zm-7.3 1.2q-.5.7-1.4.7zm27.2 4.8-1 1q-.2-1.2 1-1Zm6.9 12a4 4 0 0 1-3 1.9q.6-2 3-2Zm-78 27q-.4 1-1.4.8zm6.3 3-1.1.9q0-1 1-1Zm-61.7 7.9q1 0 1.6.8-1.1 0-1.6-.8Z"/><path fill="#dd4752" fill-opacity=".4" d="M134.2 53.8c-.7 1-1.7 2.6-3.1 1.8a3 3 0 0 1 3.1-1.8m247 5.5q-.6.8-1.5.6zm-86.2 1q-.4.7-1.3.7zm4.4.7q-.6.5-1.4.7.4-.8 1.4-.7m-29.1 1a2 2 0 0 1-1.3.7q.3-.8 1.3-.7m103 2.3q-.7.6-1.7.6.7-.5 1.7-.6m-86.4 1q-.3.8-1.2.7zm36.5.7-1.2.8q.2-.8 1.2-.8m-44.5 4.2q0 .9-1.2.7.6-.5 1.2-.7m27.3.1a2 2 0 0 1-1.6.7q.7-.5 1.6-.7m-61 1.9a2 2 0 0 1-1.5.7q.7-.6 1.6-.7m127.1-.1-1.2.6q.3-.8 1.2-.6m-101.5 3q0 1.1-1 .7.4-.5 1-.6m57.5 4-1.2.6q.3-.8 1.2-.6m-31 2a2 2 0 0 1-1.3.6q.3-.8 1.2-.6m91-.1a2 2 0 0 1-1.3.7q.4-.8 1.3-.7m-168.1 7.2q-.6.7-1.4.7.5-.6 1.4-.7m5.1-.2q-.4.5-1.2.6.3-.7 1.2-.6m80.7 1.3q-.3.8-1.2.6.4-.5 1.2-.6m-3.6 4.7-1.4.8q.4-.8 1.4-.8m-1.1 19q-.4.7-1.2.7.2-.8 1.2-.6m23.6.2q-.3.9-1.3.7zm-7.5 8.9-1.4.6q.4-.7 1.4-.6M92 141q.3-1.4 1.6-1.2c1.3.8-1 1.3-1.6 1.2m23 1.2q-.5.7-1.4.6.6-.4 1.4-.6M465 181c-.7 1.6-3.2 2.8-5 3 .5-1.5 3.5-3 5-3m-421 2.2q-.3.8-1.1.7zm422 8.9c.2 1-1.3 1-2 1q.5-1.4 2-1M60 209.2q-.4.9-1.3.7zM33.3 232q-.5.6-1.4.7.5-.6 1.4-.7m18 5-1.4.7q.5-.7 1.4-.6m438 1.1-1.2.7q.3-.7 1.2-.7M32 244.3q-.4.8-1.3.6zm29.3 4.8q-.6.6-1.4.7.5-.9 1.4-.7m19.6 1q-.3 1-1.3.9.6-.6 1.3-.8m-27.5 4-1.5.7q.4-.8 1.5-.8m-31 1q-.6.5-1.4.6.4-.7 1.3-.6m14.4 2.2q-.1.9-1.2.7zm385.1 15q-.3.9-1.2.7zm-316.7 17q-.7.6-1.6.7.7-.6 1.6-.8m-9.9 9.8-1.2.7q.3-.9 1.2-.7m319.7 6.8q-.6 1.5-2 1 .5-1.2 2-1m-312 2c-.6 1.3-5.6 4.3-7 4 .8-1.5 5.5-4 7-4M74.2 312l-1.4.6q.5-.7 1.3-.6m-21 13q-.7.5-1.5.5.5-.6 1.5-.6m46 2-1.3.7q.4-.8 1.3-.7M34 330.3q-.4.8-1.4.6.6-.5 1.4-.6m33 11q-.4.8-1.3.6.6-.4 1.3-.6m210 10.8q.3-1.2 1.5-1.2c1.3.8-1 1.3-1.5 1.2m171.3 4-1.2.7q.3-.9 1.2-.7m-16 5q-.6 1-1.6 1zm-14 9.3q-.7.6-1.6.6.7-.6 1.5-.6m4 .6-1.2.8q.2-.9 1.1-.8m-227 14.2-1 .5q0-.8 1-.5m-16.4 7q-.3 1-1.2.8.4-.6 1.2-.8m28 0q-.2.9-1.2.7zm170 4.8c.2 1-1.3 1.7-1.9.7q.8-1 2-.7m-224 10.3q-.3.8-1.2.6zM140.3 419l-1.2.7q.3-.8 1.3-.7m-4.4 14.3q-.3.8-1.3.6.6-.4 1.3-.6m166.5.7q-.7.5-1.5.7.4-.9 1.5-.7m-162 4-1.5.6q.5-.7 1.5-.6m-8.2 5a2 2 0 0 1-1.3.5q.5-.6 1.3-.5m-7.9 5q-.7.5-1.5.6.6-.7 1.5-.7m184 1-1.2.6q.2-.7 1.1-.6M138 451c-.7 1.8-3.3 2.9-5 3.1.9-1.5 3.2-3 5-3m180 8.1q.4-1 1.5-1.1c1.2.7-1 1.3-1.4 1.1m-40 5.3q-.4.8-1.4.7.6-.6 1.3-.7m-53 12q-.3.8-1.3.7.6-.5 1.3-.7m18.3 14.7q-.6.6-1.4.7.5-.7 1.4-.7"/><path fill="#dd4752" fill-opacity=".3" d="M340 32q-.1 1-1.3.7zm-16 10q-.1 1-1.2.8zm-8 5q-.3 1-1.2.8zm-16 10q-.1 1-1.2.8zm4.3 1.3q-.6.5-1.2.7 0-1.1 1.2-.7m17.6 1.7q0 1-1.2.7zm6.4 3.3q-.6.5-1.3.7.3-1.1 1.3-.7M370 66q-.2 1-1.2.8zm-199 5q-.6 1.3-2 1 .5-1.5 2-1m191 0q-.1 1-1.2.8zm-59 1q-.3 1.1-1.3.7zm30.3 4.3-1.3.7q.3-.9 1.3-.7m-31 2-1.3.7q.3-1.1 1.3-.7M346 81q0 1-1.2.7zm-62 3q0 1-1.1.8zm23.4 7.3q-.6.5-1.2.7 0-1.1 1.2-.7m25 4-1.3.7q.3-1.1 1.3-.7m5.7 9.7q-.3 1-1.2.8.4-.5 1.2-.8m-31.7 5.3q-.6.5-1.2.7 0-1.1 1.2-.7m16 9q-.6.5-1.2.7 0-1.1 1.2-.7M76.9 136a7 7 0 0 1-4.9 3c.6-1.6 3.2-2.9 5-3m33 9q0 1.1-1.2.7zm-26 15q0 1.1-1.2.7zm41.2 31c-.2.7-1.4 1.6-2 .7q.8-1 2-.8m-89.9 5.2-1.2.8q.1-1 1.2-.8M98 206q0 1.2-1.2.8zm-43 6q-.3 1.1-1.3.7zm.3 6.3q-.6.5-1.2.7 0-1.1 1.2-.7m20 4-1.2.8q0-1 1.2-.8m-8 5-1.3.7q.3-1.1 1.3-.7m29-.3-.3.9-1 .2q.3-1 1.2-1.1m-60 3.3-1.3.7q.3-1 1.3-.7m458 5-1.2.7q0-1.1 1.2-.7m-448 5-1.2.8q0-1 1.2-.8m26 2-1.3.7q.2-1 1.2-.8M27 247q-.3 1-1.3.7zm37.3.3-1.2.8q0-1 1.2-.8M5 250.7q.3 1.8-.1 3.6c-1.5-.5-1.4-3.2 0-3.6M76 253q-.3 1-1.3.7zm-58.8 5.2-1.2.9q0-1.1 1.2-.9M32 260q-.3 1.1-1.3.7zm18 8q-.3 1.1-1.3.7zm373.3 8.3-1.2.7q0-1 1.2-.7m1.6 23.6c-.4 1.7-3.3 3-4.9 3.1.6-1.6 3.2-3 4.9-3m-288.6 4.4q-.6.5-1.2.7 0-1.1 1.2-.7M482 329q-.3 1-1.3.8l1.2-.8m-354 5q-.5 1.3-2 1 .6-1.2 2-1m320 3c-1.2 1.8-2.7 3.4-5 3 .3-1.2 3.7-3.2 5-3m20 1q-.3 1-1.3.7zm11.3.3-1.3.7q.3-1 1.3-.7M62 344q-.3 1-1.3.7zm391.3 9.3q-.6.5-1.2.7 0-1.1 1.2-.7m-19 11-1.3.8q.3-1 1.3-.8M174 395q-.3 1-1.3.8zm28 0q-.3 1-1.3.7zm193 8.9q-.5 1.5-2 1 .5-1.2 2-1M92 407q-.6 1-1.9.9c-.3-1.1 1.2-1.1 1.9-1m64.3 2.2-1.3.7q.3-1.1 1.3-.7m3 17-1.3.7q.3-1 1.3-.7m-8 5-1.3.7q.1-1.1 1.3-.7M131 436q-.3 1.1-1.3.7zm166.2 20.2-1.2.8q.3-1 1.2-.8m-31 1-1.2.8q.3-1 1.2-.8m6.8 9.8q-.3 1-1.3.7z"/><path fill="#dd4752" fill-opacity=".4" d="M352.2 41.2q-.5.8-1.5.8a3 3 0 0 1 1.5-.8m-34 9a2 2 0 0 1-1.2.4q.4-.6 1.3-.5m-28.9.8q-.7.6-1.5.7a2 2 0 0 1 1.5-.7m53.1 4-1.7.8q.7-.7 1.7-.8m48.8 6q-.4.7-1.3.7.4-.8 1.3-.7m-74.8 9a4 4 0 0 1-1.6.8q.6-.7 1.5-.7m90.9 0a2 2 0 0 1-1.4.8q.5-.8 1.4-.8m-80.1 6.3q-.5.7-1.5.7.7-.6 1.5-.7m-5.8 6.8q-.6.4-1.3.6.3-.7 1.3-.6M218.3 92q-.4.6-1.2.8.2-1 1.2-.8m79.8 2.2q-.5.8-1.4.8zM240 95q-.6 1.3-2 1 .6-1.1 2-1m-34 2.3q-.3.8-1.3.5zm114.4 4.8-1.7.6q.7-.6 1.7-.6m-71.2 4.2a2 2 0 0 1-1.6.7zm87.2 4.7q-.7.6-1.6.8a2 2 0 0 1 1.6-.8m-42 6q-.6.5-1.3.8.3-.8 1.2-.8m16 9.1q-.5.6-1.3.7.3-.9 1.3-.7M92 141.1q-.9 2-3 1.8a4 4 0 0 1 3-1.8m4 12.2q-.5.8-1.4.6.6-.5 1.4-.6m62-.2c-.7 1.4-3.2 2.7-4.6 3-1.5-1 3.6-3.7 4.5-3M57.3 182q-.7.6-1.6.8.6-.9 1.6-.8m33 14.1q-.7.5-1.5.7.5-.8 1.4-.7m-58 1.9a3 3 0 0 1-1.5.8q.5-.8 1.4-.8M84 214.3q-.6.7-1.5.7.6-.6 1.5-.7m-43 6q-.5.7-1.4.7.6-.7 1.4-.7m429.1 22q-.7.6-1.5.7zm12.2-.2a2 2 0 0 1-1.5.7q.4-.9 1.5-.7m-20.3 5.2q-.4.7-1.3.6.5-.5 1.3-.6m-7.9 5q-.5.6-1.4.7.6-.6 1.4-.7m-410 1q-.6.6-1.6.7zm18 8q-.6.6-1.6.6.8-.6 1.5-.7m-43.9 7q-.6.6-1.6.7.7-.6 1.6-.7m3 5.7q-.7.6-1.5.7a2 2 0 0 1 1.5-.7m15 9a3 3 0 0 1-1.5.7q.6-.6 1.5-.7m-8 5.1q-.7.6-1.5.7.5-.8 1.5-.7M86 300.4q-.4.6-1.2.5.5-.5 1.2-.5m55.4.7q-.6.5-1.4.7.5-.8 1.4-.7M340 324q-.5 1.5-2 1 .6-1.2 2-1m-247 2.4q-.4.6-1.3.5.6-.6 1.3-.5m40 4.6c-.5 1.3-3.6 2.8-5 3 .5-1.3 3.6-3.2 5-3m307 11q-.6 1.3-2 1 .6-1.2 2-1m27.3 3.1-1.6.7a2 2 0 0 1 1.6-.7m-402 3q-.7.5-1.6.5.7-.6 1.6-.6m376 12a2 2 0 0 1-1.4.7q.5-.9 1.5-.8m-397 .9q-.7.6-1.5.7.5-.8 1.5-.7M93 395c.2 1.1-1.2 1-1.9 1q.6-1.2 2-1m67 8.3q-.3.8-1.2.6.4-.5 1.2-.6m28 0q-.3.8-1.2.6.5-.6 1.3-.6m233.2.6q-.7 1.3-2.1 1 .8-1 2-1m-326.2 1q-.7 2-2.9 2.2.9-2 3-2.2m32.4 22.2q-.7.6-1.5.6.6-.6 1.5-.6m175.6 4.2q-.3.8-1.2.6.5-.5 1.2-.6m-185.7 13q-.6.6-1.4.7.5-.6 1.4-.7m132 23.7a2 2 0 0 1-1.4.7q.5-.7 1.5-.7m28 1-1.4.8q.5-.8 1.5-.8m-18 6.2a2 2 0 0 1-1.5.8q.7-.6 1.5-.8m87.7 7.1.2.4-1.1.6q0-1 .9-1m-140.8 5q-.4.6-1.5.7.8-.7 1.5-.8"/><path fill="#dd4852" fill-opacity=".3" stroke="#dd4852" stroke-opacity=".3" stroke-width=".5" d="m347.3 52.3-1.2.8q0-1.1 1.2-.8ZM239 59.9c-.4 1.8-3.2 3-4.8 3.2.1-1.6 3.4-3 4.8-3.2Zm114 0q0 1.1-1.2.8zm-84.6 3.4-1.2.8q0-1.2 1.2-.8Zm102 10-1.2.8q.2-1 1.2-.8ZM239 75.9q-.1 1-1.2.8zm147.4 6.4-1.2.8q.2-1 1.2-.8ZM214 91.9q-.1 1-1.2.8zm-97 49q-.2 1-1.2.8.6-.5 1.2-.7Zm-71 41q0 1-1.2.8zm117 3.1a1 1 0 0 1-1 .8q.2-.9 1-.8Zm313 .9q-.3 1.4-2 1.2.6-1.4 2-1.2Zm11.4 53.4-1.2.8q0-1.2 1.2-.8ZM34 242.9q0 1.1-1.2.8.5-.5 1.2-.7Zm433 1q-.2 1-1.2.8zm-384 5q-.2 1-1.2.8zm376 0q0 1-1.2.8zm-420 7q0 1.2-1.2.8zm-14.6 16.4-1.2.8q.2-1 1.2-.8ZM91 314.9q0 .9-.9 1.4L77.3 324l-.4-1.3q6-3.8 12-7.3 1-.5 2-.5Zm-55 14q0 1.1-1.2.8zm33 11q0 1.1-1.2.8zm377.4 17.4q-.6.5-1.2.7 0-1.1 1.2-.7Zm-26 15-1.2.8q.2-1 1.2-.8Zm-8.4 1.6q0 1.1-1.2.8zM183 376c-.7 1.5-3.3 3-5 3.1a6 6 0 0 1 5-3Zm-18.7 28.3-1.2.8q.2-1 1.2-.8ZM325 419c-.5 1.3-3.5 2.9-5 3 .5-1.8 3.3-3.2 5-3Zm-215.7 19.2-1.2.8q0-1 1.2-.8ZM241 453.9c-.7 1.7-3.3 3.2-5.1 3.2q2-2.7 5.1-3.2Zm-14 21q-.3 1.1-1.3.8z"/><path fill="#db4752" fill-opacity=".9" stroke="#db4752" stroke-opacity=".9" stroke-width=".5" d="M125.4 251.6q1 1.2.1 2.5l-9.3 5.7q-3 1.9-6.3 3.2c1.9-8.4 8-10 15.5-11.4Z"/><path fill="#dd4752" fill-opacity=".4" d="M344.2 35q-.6.6-1.4.7a2 2 0 0 1 1.4-.7m-63.4 14.1q0 1-1 .8zm92.6 4-1.4.7q.4-.8 1.4-.7m-7.1 4-1.5.7a2 2 0 0 1 1.5-.7M255.8 65q0 1-1.1 1zm57.9 0q.1 1-1 1zm-50.3 1a3 3 0 0 1-1.6.8q.6-.8 1.6-.7m130.4 4.1q0 1-1.1.8zm-28.4 6q-.7.6-1.5.7.4-.8 1.5-.7M266.3 80a2 2 0 0 1-1.5.7q.4-.9 1.5-.7m24 5q-.6.7-1.4.7.5-.7 1.4-.7m91 0q-.5.7-1.4.7.4-.8 1.5-.6m-27.6 10q.1 1-1 1zM295.2 98q-.5.5-1 .6 0-.9 1-.6m-31 2-1 .7q0-.9 1-.7m25.6 16q0 1-1.2.9zM121 141v.8l-.9.1q.2-.7.9-1m-24.8 16-1 1q-.1-1.2 1-1m-45 22.3q-.7.7-1.6.7.7-.5 1.5-.6m41.6 10.9q-.4.7-1.3.7.7-.5 1.3-.7M71.3 208q-.7.6-1.4.7.5-.7 1.4-.7m19.5 2.2q0 .9-1 .6zm-2.6 3.8a2 2 0 0 1-1.1.7q.2-.9 1.1-.7m7.5 9q0 1-1 1zm390.5 9.3q-.6.7-1.5.7.7-.5 1.5-.7m-461 4.8-1 .8q0-1 1-.8m44.9 1.2q-.6.7-1.5.6.7-.6 1.5-.6m17.8 8c.2.8-1 .4-1.3.6q.6-.5 1.3-.6M456.2 257q-.5.6-1.3.7.4-.8 1.4-.7M52.4 273l-1 1q0-1 1-1m-8 5.1q-.6.4-1.4.6.5-.7 1.4-.6m63 44-1 .8q0-1 1-.8m-66 4.2q-.7.6-1.7.6zm45 8.8-1.5.7q.7-.8 1.6-.7m-12.1 2.2q-.6.7-1.5.7.7-.6 1.5-.7m382.5 7.7q.2 1-1 1zm-41.3 30q-.6.5-1.3.7.3-.9 1.3-.7m-229.5 13.2q-.3.8-1.2.7zm-3.5 4.9a3 3 0 0 1-1.5.7q.5-.8 1.5-.7m-34 20.9q-.7.7-1.6.8.5-.8 1.5-.8M115 429.2q-.4.9-1.5.8.7-.6 1.5-.8m28 0q-.5.9-1.4.8.6-.6 1.4-.8m168 16q-.3.9-1.3.6.6-.4 1.4-.6m-33.8 4.9-1 1q0-1 1-1m-31.2 1c-1 1.3-3.2 3.1-5.1 2.8q2-2.4 5-2.9m11.7 6q0 1-1.1.9.5-.6 1-.8m36.6 1-1.2.8q0-1 1.2-.9M151 469q-.6 1.2-1.8.7.6-1 1.7-.7m81.2 3.2a2 2 0 0 1-1.5.6zM315.3 36q-.7.5-1.5.8.5-.8 1.5-.8m-20 4.3q-.7.6-1.7.7a3 3 0 0 1 1.6-.7m-25.2 16q-.6.8-1.4.6.6-.5 1.4-.6m3.2 20-1.2.3q.3-.7 1.2-.4m-10.2 4c.1 1-1 .5-1.5.6q.7-.5 1.5-.6m24 2q-.3.7-1.4.7.6-.7 1.4-.8M117.1 95q.3-1 1.4-1.2c1 .7-1 1.3-1.4 1.2M317 118.3q-.3.8-1.3.6zm-7.8 5q-.6.7-1.6.6.7-.6 1.6-.7M107.3 150q-.6.6-1.4.7.5-.7 1.4-.7m-25 15.9q-.7.6-1.5.8.5-1 1.5-.8m-12.4 2.2q-.1 1-1.2.8.5-.5 1.2-.8M460 184q-.5 1.3-2 1 .6-1.2 2-1m-332 5c0 1.3-1.8 2-3 2 .1-1.6 1.9-1.9 3-2m341 1a4 4 0 0 1-3 2q.6-2.3 3-2M80.3 219.2q-.7.6-1.5.6.6-.7 1.5-.6m-28 1-1.4.7q.4-1 1.4-.8M63 242q-.4 1-1.3.8.5-.6 1.3-.7m400.2 11a2 2 0 0 1-1.2.6q.4-.7 1.2-.6m-418 6-1.4.7q.5-.7 1.5-.7m385 8.2q-.6.6-1.5.7.7-.6 1.6-.7m7 .8q-.5.5-1.1.7.3-.9 1.2-.7m-416.8 25-1.5.6q.5-.7 1.5-.7M420 303a7 7 0 0 1-5 2.8c1-1.4 3.2-3 5-2.9m-289 1.2q-.5.8-1.4.6zm-71 11.1q-.5.7-1.4.7zm217 36.9c-.7.8-2.1 2.9-3.2 1.5.4-1.1 2.1-1.4 3.1-1.5m-146 8c-.8 1.3-3.6 2.8-5.2 3 1-1.5 3.2-3.3 5.1-3m272.8 19.1q-.2 1-1.2.8.4-.6 1.2-.8m-242.5 26.9q-.7.6-1.6.6.7-.7 1.6-.6M260 480q-.7.6-1.5.7a2 2 0 0 1 1.5-.7m-39 6q-.7.6-1.5.8.6-.7 1.5-.7"/><path fill="#c6414c" fill-opacity=".2" stroke="#c6414c" stroke-opacity=".2" stroke-width=".5" d="M83.9 146.1q-.2.9-.9 1.3l-13.6 8.4q-.3-1.1-1.5-1.3l14-8q1-.6 2-.4Zm152 311q-.6 1-1.5 1.7l-13.2 8q0-1.2-1.3-1.3l14-8q1-.6 2-.4Z"/><path fill="#dd4752" fill-opacity=".3" stroke="#dd4752" stroke-opacity=".3" stroke-width=".5" d="M311.4 54q-.5.7-1.4.8.4-.8 1.4-.8Zm-29 1-1 1q0-1 1-1Zm102 10.1q-.5.6-1.1.9 0-1 1-.9Zm-75 9q-.5.6-1.1.9 0-1 1.1-1Zm91 0-1 1q0-1.1 1-1Zm-30.6 11q0 1-1.2 1zm-55.4 2-1 .8q-.1-1 1-.8ZM216.6 90q.3 1-.9 1zm-99.5 5a4 4 0 0 1-3 2q.6-2.3 3-2Zm94.2 1q-.4.5-1 .8-.2-1 1-.8Zm110.4-.1q0 1-1 1zm148.4 82a8 8 0 0 1-5 3 7 7 0 0 1 5-3Zm-306 5 1.9-.2a3 3 0 0 1-3 2.2 3 3 0 0 1 1.1-2Zm309.9 4c-.9 1.5-3.4 3.1-5 3 .7-1.4 3.4-2.8 5-3Zm-442.2 3q0 1-1.2.9zM82.3 201l-1 .9q0-1.1 1-.9Zm-34.1 15.2a2 2 0 0 1-1.6.7 3 3 0 0 1 1.6-.7ZM38.3 245l-1 1q0-1 1-1Zm-18.7 6q.1 1.1-1 1zm49.6 6.2q-.5 1-1.5.8.6-.6 1.5-.8Zm7 .8-1 1q0-1.1 1-1Zm16.5 38q.1 1.2-1 1zm26.4 15.3q-.5.7-1.4.7.6-.6 1.4-.7Zm-23 .7a7 7 0 0 1-5.2 3 8 8 0 0 1 5.1-3Zm246.8 10a3 3 0 0 1-3 2 3 3 0 0 1 3-2ZM52.3 356l-1 1q0-1 1-1Zm376.3 7q.1 1-1 1zM188 373a8 8 0 0 1-5 3 7 7 0 0 1 5-3Zm19.4 23-1.2 1q0-1 1.2-1Zm-40.4 3.4q-.4.7-1.3.6.5-.5 1.3-.6Zm2.3 1.7-1 1q-.2-1.1 1-1Zm254.8 1a3 3 0 0 1-3 1.8q.8-2 3-1.8ZM328 416.9a3 3 0 0 1-3 2.2q.8-2 3-2.2Zm-203.8 23.4q-.6.8-1.5.6a2 2 0 0 1 1.5-.6ZM133 454c-.6 1.2-4 3.8-5 2.6 1-1.3 3.3-2.6 5-2.6Zm133 17.4q-.5.6-1.3.6.5-.6 1.3-.6Zm-2.9 6.6q-.4.6-1 1 0-1 1-1Zm-50.4 5.1q0 1-1 .9z"/><path fill="#dd4752" fill-opacity=".5" stroke="#dd4752" stroke-opacity=".5" stroke-width=".5" d="M226 53c0 1.6-1.8 2.6-3 1.6q1.2-1.5 3-1.5Zm0 15c.2 1-1.4 1.6-2 .7a2 2 0 0 1 2-.7Zm229 119c-.1.8-1.4 1.7-2 .7q.7-1 2-.7Zm35.9 86.3q.3-1.3 1.7-1.5c1 1-1.1 1.4-1.7 1.5Zm-388 34.7a3 3 0 0 1 2.7-2c1.1 1-1.8 2.1-2.6 2Zm33.2 21.1q.1-1.4 1.4-1.2c1.3.8-.8 1.3-1.4 1.2Zm265 22c-.7 1-4.2 4-5.1 2.6 1.1-1.2 3.3-2.8 5.1-2.6Zm-270 9c.2-1.4 6.2-5 6.8-3.8a16 16 0 0 1-6.9 3.7Zm6.9 90.8c.2-1 6.3-4.7 6.9-3.5-1.6 1-5 3.8-7 3.6Zm113-2.9a8 8 0 0 1-5 3q2-2.5 5-3Z"/><path fill="#dd4853" fill-opacity=".3" stroke="#dd4853" stroke-opacity=".3" stroke-width=".5" d="M292 42q-.1 1.1-1.3.7zm62.3 6.3q-.6.5-1.3.7.3-1 1.3-.7Zm5 13-1.3.7q.3-1 1.3-.7ZM234 63a4 4 0 0 1-3 2q.8-2 3-2Zm106 5q-.3 1-1.2.7zm-29 18q-.3.9-1.2.7zm37.3 18.3q-.6.5-1.3.7.3-1 1.3-.7ZM88.9 142.9c-.6 1.8-3.3 3-5 3.2q1.8-2.6 5-3.2Zm-3.7 21.3-1.2.8q.3-1 1.2-.8ZM100 186q-.3 1-1.3.7zm-28 35q-.2 1.1-1.3.7zm16.2 11.2-1.2.8q.3-1 1.2-.8Zm4 16-1.2.8q.1-1 1.2-.8Zm2 82-1.2.8q.3-.9 1.2-.8ZM81 333q-.3 1-1.3.7zm45 2c-.9 1.6-3.1 3.1-5 3q2-2.5 5-3Zm-40 64.1c-1 1.4-3.2 3-5 2.9.8-1.6 3.3-3 5-2.9Zm4.1 8.9q-.9 1.9-3 2.1.6-2.1 3-2.1Zm85.9 2q-.3 1.1-1.3.7zm-.7 6.2-1.3.8q.2-1 1.3-.8ZM122 425q-.3 1-1.3.7zm143 28q-.2 1.1-1.3.7zm15.3 14.3-1.3.7q.1-1.1 1.3-.7Z"/><path fill="#dd4752" fill-opacity=".5" d="M277.3 58q-.6.6-1.3.7.3-.7 1.2-.7m-18 5.3q-.7.8-1.6.6.7-.6 1.5-.6M229 66a4 4 0 0 1-3 2q.6-2.2 3-2m-60 6c-.2 1.2-2 3-3 1.7a4 4 0 0 1 3-1.7m226.2 5.1q-.4.6-1.2.7.3-.9 1.2-.7M234 79.3q-.3.8-1.2.7.4-.4 1.2-.7m44.8 8q0 .9-1 .7zm78.3 6q-.5.7-1.4.6.6-.5 1.4-.6m-150.9 6-1.1.5q.1-.9 1.1-.6M118.4 143l-1.3.7q.3-.9 1.2-.7M37 187.3q-.4.8-1.3.6zM93.3 229l-1.1.8q0-1 1-.8m377 20-1.3.7q.4-.7 1.3-.7m-381 1a3 3 0 0 1-1.5.7q.7-.6 1.5-.6m-8 5.1q-.7.5-1.5.7.5-.9 1.5-.7M98 293.4q-.5.7-1.4.5a2 2 0 0 1 1.4-.5m65 33.6c.2-.7 1.3-1.6 1.8-.7q-.6.9-1.8.7m-137 7 .8.3-.6 1zm14.8 22.3q-.3.9-1.2.6.5-.4 1.2-.6M429.4 367q-.7.6-1.4.8.3-1 1.4-.8M92.9 395c.2-1 3.7-4.2 5-2.6-1.1 1-3.3 2.5-5 2.6m79 1.3q-.4.7-1.3.7zm16.5 11.7q-.7.6-1.6.8.7-.8 1.6-.8m-8 5-1.6.8q.6-.7 1.5-.7M331 434a3 3 0 0 1 2.6-2c1.6 1.2-1.7 2.3-2.6 2m-70.7 27.1q-.6.6-1.4.7.5-.7 1.4-.7M154 467q.6-1 1.6-1c1.2.8-1 1.3-1.6 1m116.9 1.3q-.2.9-1.1.8zm-52.9 12q-.3 1-1.4.7.6-.5 1.4-.7"/><path fill="#bb3841" fill-opacity=".2" stroke="#bb3841" stroke-opacity=".2" stroke-width=".5" d="m159.1 186 1.8.1q0 .9-.8 1.3l-21.2 13.1q-.4.3-1 .3-1 0-1.7-.6 1.4-1.4 3.3-2.3l7.2-3.7q1.3-1 2.2-2.3a3 3 0 0 0 3.2-1.8 2 2 0 0 0 1.8-1.1q2.3 0 3.3-1.8 1.3-.1 2-1.2Z"/><path fill="#e25f69" fill-opacity=".8" d="M171 179.3c-.2 2-3.2 3.8-5 3.5l-1.9.1 4.5-3q1-.6 2.4-.6m-6.9 3.6a3 3 0 0 0-1.2 2.1q-.8 0-1 .8l-1 .3-1.8-.1q1.3-1.5 3-2.4zm-5 3q-.6 1.2-1.9 1.3.5-1.2 2-1.2m-1.9 1.3a4 4 0 0 1-3.3 1.8q1-2 3.3-1.8M154 189q-.6 1-1.8 1 .6-1 1.8-1m-1.8 1a3 3 0 0 1-3.2 2 4 4 0 0 1 3.2-2m-3.2 2q-.9 1.3-2.2 2.2l-7.2 3.7q-1.8.8-3.3 2.3l-1.4-.3q.7-1.1 1.9-1.6 5.3-2.7 10.2-5.8 1-.6 2-.6"/><path fill="#dd4753" fill-opacity=".3" d="M361 55q-.3 1.1-1.3.7zm-85.7 4.3q-.6.5-1.3.7.3-1 1.3-.7M377.9 61q0 1-1.2.7zm-86 1q0 1.1-1.2.7zm-39 5q0 1-1.2.7zm31 0q0 1.1-1.2.7.6-.5 1.2-.7m93.4 2.3q-.6.5-1.2.7 0-1 1.2-.7m-99 4q-.6.5-1.3.7.3-1 1.3-.7m115 5-1.3.7q.3-1 1.3-.7M227.9 83q0 1-1.2.7zm37 13q0 1.1-1.2.7zm65 14q0 1-1.2.7zm146 75.9a9 9 0 0 1 4.7-3c1.2 1.2-3.5 3.3-4.6 3m-437 0q0 1.2-1.2.8zm35.4 20.4-1.2.7q0-1.1 1.2-.7M36 223q-.3 1-1.3.7zm22 22q-.2 1.1-1.3.7zm410.3 5.3q-.6.5-1.3.7.3-1 1.3-.7m-412 2-1.2.7q0-1.1 1.2-.7m362.6 21.6q0 1.1-1.2.8zM29 333q0 1.2-1.2.8zm425 14q0 1-1.2.8zm-393.6 4.4-1.2.8q0-1.1 1.2-.8M43 355q-.2 1-1.3.8zm384.3 13.3-1.2.7q0-1.1 1.2-.7m-305 62-1.2.7q0-1 1.2-.7m21 6-1.2.7q0-1.1 1.2-.7m-8 5-1.2.7q0-1.1 1.2-.7m145 7-1.2.8q0-1.1 1.2-.8M219.9 479q0 1.1-1.2.7zm29.4 8.3-1.2.8q0-1 1.2-.8"/><path fill="#c4404a" fill-opacity=".2" stroke="#c4404a" stroke-opacity=".2" stroke-width=".5" d="M286.7 101.4q.3 1 1.4 1-4.4 2.1-8.4 4.8l-2.2.8a31 31 0 0 1-10.1 6q-.3-1 .5-1.4 8.8-5.3 17.5-10.8a2 2 0 0 1 1.3-.4Z"/><path fill="#df4752" fill-opacity=".3" d="M303 35q-.3 1-1.3.7zm46 8q-.1 1.1-1.3.7zm-19 12q-.3 1-1.3.7zm-80.7 19.3q-.6.5-1.3.7.3-1.1 1.3-.7M246 108q0 1.1-1.2.7zm4.4.3-1.3.7q.3-1.1 1.3-.7M91 156q0 1.1-1.2.7.6-.5 1.2-.7m-41.6 31.3-1.2.8q0-1.2 1.2-.8m44 7-1.2.8q.1-1 1.2-.8M84 230q-.3 1-1.3.7zm-29.7 5.3-1.2.8q0-1 1.2-.8M65 241q-.3 1-1.3.7zm429 5q.2-.7.8-.4zm-468.7 7.3-1.2.8q0-1 1.2-.8m417.6 5.6q-.2 1-1.2.8zm-402.6 3.4-1.2.7q0-1 1.2-.7m16.6 1.6q0 1.1-1.2.8zm378 0q0 1.1-1.2.8zm-402.6 3.4-1.2.8q0-1 1.2-.8m45 43-1.2.8q0-1 1.2-.8M55 318q-.3 1.1-1.3.7zm1.3 5.3-1.2.8q0-1 1.2-.8M153 333c-.8 1.4-3.3 3-5 3 .5-1.7 3.3-3.2 5-3m-117.7 3.2-1.2.7q.1-1 1.2-.7m46 2-1.2.7q0-1 1.2-.7m358.6 17.6q0 1-1.2.8zm-296.6 61.4-1.2.7q0-1.1 1.2-.7m-24 34-1 .7q0-1.1 1-.7m94 40-.2.5-1.5-.2q.7-.6 1.7-.4"/><path fill="#dd4752" fill-opacity=".2" stroke="#dd4752" stroke-opacity=".2" stroke-width=".5" d="m175.7 67 .2 1.2c.1 1-1.3 1-1.9.9q.6-1.3 1.7-2Zm78.2 36q0 1.1-1.2.7zm-140.6 43.3-1.2.8q0-1 1.2-.8Zm-15.4 5.6q-.2 1-1.2.8zM475 175c.2-.9 5.8-5 7-3.4-.4 1-5.7 3.7-7 3.5ZM91.3 212.4l-1.2.7q0-1.1 1.2-.7Zm-5.4.6q0 1.2-1.2.8zm28 101q0 1.1-1.2.8zm34 22.1c-.6 1.8-5.3 3.7-6.9 5v-1.3c1.4-1.4 5-3.9 7-3.7Zm37.4 55.3-1.2.8q0-1.1 1.2-.8Zm4.6 10.6q0 1.1-1.2.8zM315 461q-.5 1.5-2 1 .6-1.2 2-1Z"/><path fill="#df545e" fill-opacity=".6" d="m239 148.4.3.9q-9.3 5.9-18.9 11-.3-1 .6-1.6 3.4-2.3 7.2-4 4-3 8.4-5.5z"/><path fill="#dd4752" fill-opacity=".5" stroke="#dd4752" stroke-opacity=".5" stroke-width=".5" d="M238 96c-.7.7-2 3-3 1.6.2-1.3 2-1.5 3-1.5Zm-80 57a3 3 0 0 1 2.4-2.2c1.6 1.6-1.4 2.2-2.5 2.3Zm300 32a3 3 0 0 1-3 2q.8-2 3-2ZM338 325a4 4 0 0 1-3 2q.8-2.3 3-2Zm-202 4.1c-1 .8-1.5 2.3-3 1.8a3 3 0 0 1 3-1.8ZM438 343a4 4 0 0 1-3 2q.6-2.3 3-2Zm-166.8 77c1 0 4-3 4.7-1.7-.8 1-3.6 3.6-4.7 1.7Z"/><path fill="#d1434e" fill-opacity=".2" stroke="#d1434e" stroke-opacity=".2" stroke-width=".5" d="M178 379.1q-.3.9-1 1.2-7.9 4.6-15.6 9.6a2 2 0 0 0-1.5-1.3l16-9.2a3 3 0 0 1 2-.3Z"/><path fill="#e77b83" d="M206 273q.3-1.2-.8-1.6l15.4-9q2.6-.4.6 1.2z"/><path fill="#d6454f" fill-opacity=".2" stroke="#d6454f" stroke-opacity=".2" stroke-width=".5" d="M121 366q-.3.9-1 1.3l-14.4 8.7q-.7.5-1.7.6l-1-.4q.5-.9 1.4-1.4l14.6-8.5a4 4 0 0 1 2-.3Z"/><path fill="#cd3d45" fill-opacity=".2" stroke="#cd3d45" stroke-opacity=".2" stroke-width=".5" d="M104.7 168q.2.8-.7 1.4-7 3.9-13.7 8.5-.4-1-1.4-1.3l14-8.1z"/><path fill="#dd4554" fill-opacity=".3" stroke="#dd4554" stroke-opacity=".3" stroke-width=".5" d="M245 92q-.6 1.3-2 1 .6-1.3 2-1Zm166 253a7 7 0 0 1-5 3c.8-1.6 3.2-3.2 5-3ZM81 402a33 33 0 0 1-11.6 7c-1-1.4 10-7 11.5-7Z"/><path fill="#cf424c" fill-opacity=".2" stroke="#cf424c" stroke-opacity=".2" stroke-width=".5" d="m464.4 326.7.3.4q.3.5 0 1-7.5 4.2-14.6 8.6-1 .4-2.1.4.2-.9 1-1.4l13-8q1-.7 2.4-1Z"/><path fill="#db4853" fill-opacity=".2" d="M329 39q-.3 1-1.3.7zm-8.1 5q0 1.1-1.2.7zm-8 5q0 1-1.2.7zm-3.6 6.3-1.2.8q0-1.1 1.2-.8M337 70q0 1-1.2.8zm-29 18q0 1.2-1.2.8zm4.5.4-1.3.8q0-1.1 1.3-.8M210.9 94q0 1.2-1.2.8zm-1.6 3.4q-.5.5-1.2.7 0-1.2 1.2-.7m52.6.6q0 1-1.2.8zm-157 50q0 1.2-1.2.8zm-77.6 53.4-1.2.8q.2-1 1.2-.8m43 24-1.2.8q0-1 1.2-.8m-50 15-1.2.8q0-1 1.2-.8M22 250q-.1 1-1.3.8zm73 45q-.1 1-1.3.8zm-1.6 5.4-1.2.8q0-1 1.2-.8m38 7-1.2.8q.2-1 1.2-.8M121 310q-.1 1-1.2.8zm-83 48q0 1.1-1.3.8zm394.4 7.4-1.2.8q0-1.1 1.2-.8m-239 21-1.2.8q0-1.1 1.2-.8M169 397.9q0 1.1-1.2.8zm-30.6 22.4-1.2.8q.2-1 1.2-.8m165 32-1.2.8q.1-1 1.2-.8M268 470q-.2 1-1.2.8z"/><path fill="#bb3942" fill-opacity=".2" stroke="#bb3942" stroke-opacity=".2" stroke-width=".5" d="m444.9 287.3.9 1.4-13.8 7.9q-1 .5-2 .2.2-.8 1-1.2 6.9-4.3 13.9-8.3Z"/><path fill="#de4752" fill-opacity=".4" d="M228 51.9q-.5 1.4-2 1.2.5-1.5 2-1.2m128.2 6.4q-.6.6-1.5.7.7-.6 1.5-.7m-8.9 9.8q-.4.5-1.2.6.3-.8 1.2-.6m-103 9-1.3.7q.3-.8 1.3-.8m24 17.2q-.7.8-1.6.6a3 3 0 0 1 1.5-.6m-23 16.8q-.4.6-1.2.7.3-.9 1.3-.7m200.9 146.1q-.7.7-1.5.7zM29.2 269l-1.3.8q.4-.8 1.4-.8m82.7 46.3q-.3.8-1.2.6a2 2 0 0 1 1.2-.6M91 396a8 8 0 0 1-5 3.1c.6-1.7 3.4-3 5-3.1m6 8q-.5 1.3-2 1 .5-1.4 2-1m233 11.9q-.5 1.3-2 1a2 2 0 0 1 2-1m-196 2.4q-.4.8-1.3.6.4-.5 1.2-.6m143 27.9q-.4.8-1.3.8.5-.6 1.2-.8M235.3 477q-.7.6-1.5.7.5-.8 1.5-.7m-2.2 13.1q-.4.7-1.5.7a3 3 0 0 1 1.5-.7"/><path fill="#d64752" fill-opacity=".2" stroke="#d64752" stroke-opacity=".2" stroke-width=".5" d="M259.6 82q.4.9 1.5 1.3c-3.3 1.6-13.4 8.3-16.1 8.7q.4-1.2 1.6-1.8z"/><path fill="#c43742" fill-opacity=".2" stroke="#c43742" stroke-opacity=".2" stroke-width=".5" d="M253.8 50.3q0 1 1 1.4l-12.5 7v-.9q0-.7.7-1 5.3-3.5 10.7-6.5Z"/><path fill="#c2434a" fill-opacity=".2" stroke="#c2434a" stroke-opacity=".2" stroke-width=".5" d="m75.6 323.2.1.9q.2.8-.7 1.2l-9.3 5.8-1.9.7q.4-1-.5-1.4z"/><path fill="#b73a45" fill-opacity=".2" stroke="#b73a45" stroke-opacity=".2" stroke-width=".5" d="M425.7 335.2q0 1 1 1.4-6 3.7-12.3 7l-.1-.7q0-.9.7-1.2 5.3-3.4 10.7-6.5Z"/><path fill="#c24049" fill-opacity=".2" stroke="#c24049" stroke-opacity=".2" stroke-width=".5" d="M445.9 179.4q0 .9.9 1.2L434 188v-1q.3-.9 1-1.3 5.4-3.4 10.9-6.3Z"/><path fill="#c3424d" fill-opacity=".2" stroke="#c3424d" stroke-opacity=".2" stroke-width=".5" d="M354.7 123.2q0 1 1 1.4L343 132l.2-1q0-.9.8-1.3z"/><path fill="#c8414b" fill-opacity=".2" stroke="#c8414b" stroke-opacity=".2" stroke-width=".5" d="M407.6 395.2q.3 1.2 1.5 1.3l-12 6.9q-1 .5-2.1.5.6-1 1.6-1.7 5.6-3.4 11-7Z"/><path fill="#cb434c" fill-opacity=".2" stroke="#cb434c" stroke-opacity=".2" stroke-width=".5" d="m246 40.3.7 1.4-11.7 6.7q-.8.6-2 .4.7-1 1.6-1.6z"/><path fill="#d2434d" fill-opacity=".2" stroke="#d2434d" stroke-opacity=".2" stroke-width=".5" d="M116 341q-.7 1.2-1.6 1.8l-10.3 6.2-.1-1.3 1.6-1.5c2.3-1 8.3-5.5 10.4-5.2Z"/><path fill="#de4553" fill-opacity=".3" stroke="#de4553" stroke-opacity=".3" stroke-width=".5" d="M352.3 65.3q-.6.5-1.3.7.3-1 1.3-.7Zm-27 34-1.2.7q0-1.1 1.2-.7Zm16 9-1.3.7q.3-1 1.3-.7ZM314 119.9q0 1-1.2.8zM74.3 171.3l-1.2.8q0-1 1.2-.8Zm4.6 45.7q0 1.1-1.2.7zm19.4 80.3-1.2.7q0-1.1 1.2-.7Zm327.6 67.6q0 1.1-1.2.8zm-40.8 27a6 6 0 0 1-5 3c.3-1.3 3.5-3 5-3Zm-202.2 14q-.2 1.2-1.2.8zm-54 15q0 1.1-1.2.8.6-.5 1.2-.7Zm179.4 9.4-1.2.7q0-1.2 1.2-.7ZM271.9 449q0 1.1-1.2.7.6-.5 1.3-.7Zm-5.6 27.3-1.2.8q0-1.1 1.2-.8Z"/><path fill="#de4753" fill-opacity=".4" d="M325.3 46q-.5.6-1.3.8.4-.8 1.3-.8m-29 1a2 2 0 0 1-1.2.7q.3-.9 1.2-.7m6.6 8.3q-.3.8-1.3.6.6-.5 1.3-.6m22.4 3a2 2 0 0 1-1.7.7q.7-.6 1.6-.7m9.8 13q-.5.8-1.4.6.6-.5 1.4-.6m-2 37q-.5.6-1.4.6zM489 249q-1.2 1.5-3.1 1.8.6-2.2 3-1.8M54.8 265.4q-.3.6-1.2.5.6-.5 1.2-.5M418.3 279q-.6.6-1.4.7.5-.7 1.4-.7M79 304.2q-.3.9-1.3.8zm7 26q-.4.9-1.3.8.5-.5 1.2-.8M32.2 338q-.7.6-1.5.6.7-.4 1.5-.6m46 2a2 2 0 0 1-1.5.7q.6-.7 1.4-.7M390 407q-.2.4-.6.6 0-.4.6-.6m-241.7 26a3 3 0 0 1-1.5.8q.5-.9 1.5-.8m147.5 2.3q-.2.9-1.2.6zm-43.8 44q-.4.9-1.3.7.6-.5 1.3-.6"/><path fill="#d2454e" fill-opacity=".3" stroke="#d2454e" stroke-opacity=".3" stroke-width=".5" d="M415.1 423.2q.1.9.6 1.6l-10.5 6c-1.4.7-1.6-.6-.2-1.2z"/><path fill="#dc4653" fill-opacity=".4" d="M333.2 53.3q-.6.8-1.6.6a3 3 0 0 1 1.6-.6m13 33.8q-.4.4-1 .6.1-.8 1-.6m-74.8 9-1.4.7q.4-.9 1.4-.7m90.9 0q-.6.6-1.2.7.3-.7 1.2-.7M85.9 194.3q-.4.8-1.3.6zm-13.5 29.8-1.4.6q.4-.7 1.4-.6m-7.4 1.1q-.4.9-1.3.7zm429.1 2.1q-.4.8-1.5.6zm-436.1 2q-.5.7-1.2.7.5-.5 1.2-.7m-19.2 11q-.2.7-1.1.6zm399.5 22q-.7.6-1.6.6.6-.6 1.6-.6m-401 1.8q-.7.6-1.6.6.7-.6 1.6-.6m83 50q-.6.4-1.3.6.4-.7 1.3-.6m276 71.8q-.7.8-1.6.8.5-1 1.5-.8M162 418.2q-.4.8-1.3.8zm-54.1 15.1q-.2.8-1.2.6zm-1.7 6.8q-.7.5-1.5.5.7-.5 1.5-.5m197.7 9q-.2 1-1.2 1zm-53 12.3q-.3.7-1.1.5.4-.5 1-.5"/><path fill="#d2454d" fill-opacity=".2" stroke="#d2454d" stroke-opacity=".2" stroke-width=".5" d="M326 437c-1 2.1-7.5 5.5-9.8 6.9q-.3-1-1.3-1.2 4.6-2.5 9-5.2 1-.6 2.1-.5Z"/><path fill="#dd4753" fill-opacity=".3" d="M323.3 47.3q-.6.5-1.3.7.3-1.1 1.3-.7m-29 1q-.6.5-1.3.7.3-1.1 1.3-.7m27 19-1.2.7q0-1.1 1.2-.7m5 13-1.3.7q.3-1.1 1.3-.7m-103 9q-.6.5-1.3.7.3-1.1 1.3-.7m76 25q-.6.5-1.2.7 0-1 1.2-.7m16 9q-.6.5-1.2.7 0-1.1 1.2-.7m-9.4 1.6q0 1-1.2.8zM83.3 217.3l-1.2.7q0-1 1.2-.7m367.6 36.6q-.2 1-1.2.8zM81 303q-.2 1-1.2.8.6-.5 1.2-.7m21.4 22.4-1.2.8q0-1 1.2-.8M87.9 329q0 1.1-1.2.7.6-.5 1.2-.7m110.4 54.3-1.2.7q0-1.1 1.2-.7M154.9 406q0 1.1-1.2.7.6-.5 1.2-.7m143 28q0 1.1-1.2.7.6-.5 1.2-.7m-44 44q0 1.1-1.2.7.6-.5 1.2-.7"/><path fill="#dc4650" fill-opacity=".3" d="M378.3 50.3q-.6.5-1.3.7.3-1 1.3-.7M275.9 72q0 1-1.2.7zm56 1q0 1.1-1.2.7zm19.4 11.3-1.2.7q0-1.1 1.2-.7m-75 9q-.6.5-1.3.7.3-1 1.3-.7m91 0-1.2.7q0-1.1 1.2-.7M321.9 115q0 1.1-1.2.7zM81 197q0 1.1-1.2.7zm-28 35q0 1.1-1.2.7zm147 148q0 1.2-1.2.7zm201.4 3.3-1.3.7q.3-1 1.3-.8m-224 13-1.2.7q0-1 1.2-.7M157 421q-.3 1-1.3.7zm-54 15q-.3 1-1.3.7.6-.5 1.3-.7m211.3 9.3-1.2.7q0-1.2 1.2-.7m-15.4 6.7q0 1-1.2.7.6-.5 1.3-.7m-53 12q0 1.1-1.2.7.6-.5 1.3-.7"/><path fill="#e5848b" d="M326.7 204v.9q-4.1 3-8.6 5.5-1 .8-2.1.2.1-.8 1-1.2a88 88 0 0 0 8-5q.7-.5 1.7-.5"/><path fill="#ea8b92" d="M222 331v-1l8.7-5.5c.6-.2 1.8-1.4 2.1-.2l-8.8 6.2q-1 .6-2 .6"/><path fill="#dd4654" fill-opacity=".2" stroke="#dd4654" stroke-opacity=".2" stroke-width=".5" d="m319.3 84.3-1.2.8q.2-1 1.2-.8Zm-103 9-1.2.8q0-1.1 1.2-.8Zm94.6 9.6q0 1-1.2.8zm-18.6 15.4-1.2.8q0-1.1 1.2-.8Zm16 9-1.2.8q.2-1 1.2-.8Zm-204 59.8a3 3 0 0 1-1.2 1q0-1 1.2-1Zm-37.4 36.8q0 1.1-1.2.8zM430 297q-1.7 2.8-5.1 3 2-2.5 5.1-3Zm-342 2q-.3 1.1-1.3.8zm74 103q-.3 1.1-1.3.8zm121.3 44.4-1.2.8q0-1 1.2-.8Z"/><path fill="#d3464f" fill-opacity=".2" stroke="#d3464f" stroke-opacity=".2" stroke-width=".5" d="M114 97.1q-4.6 3.5-9.6 6.8-.6-.9-1.5-1.3 4.5-2.5 9-5.3 1-.4 2.2-.2Z"/><path fill="#cd404f" fill-opacity=".2" stroke="#cd404f" stroke-opacity=".2" stroke-width=".5" d="M72 139q-.3.8-1 1.4l-8.6 5.5q-.4-.9-1.5-1.2l9-5.2q1-.6 2.1-.4Z"/><path fill="#b5353c" fill-opacity=".1" stroke="#b5353c" stroke-opacity=".1" stroke-width=".5" d="m362.3 310 .7 1c-1.8 1-7.3 4.8-9 4.8h-.8c0-1.5 7.6-5.1 9-5.8Z"/><path fill="#dd4751" fill-opacity=".3" stroke="#dd4751" stroke-opacity=".3" stroke-width=".5" d="M338 86q-.1 1-1.2.8zm-80.7 18.3-1.3.8q.2-1.1 1.3-.8ZM77 234q-.3 1-1.3.7zm13.3 68.3-1.3.7q.2-1.1 1.3-.7Zm-21 13-1.3.7q.3-1 1.3-.7Zm56.6 47.7c-.3 1.5-3.5 3-5 3 .8-1.6 3.3-3 5-3Zm275 18q0 1-1.1.8zm-210.6 7.3-1.3.7q.3-1 1.3-.7Zm-7 23-1.3.7q.3-1.1 1.3-.7Zm55 64-1.3.7q.3-1 1.3-.7Z"/><path fill="#db4751" fill-opacity=".3" d="M317 26q-.3 1-1.3.7zm15 11q-.3 1.1-1.3.7zm-1.7 6.3q-.6.5-1.3.7.3-.9 1.3-.7m-29 1q-.6.5-1.3.7.3-1 1.3-.7M354 76q-.1 1.1-1.3.7zm-123.7 9.3-1.3.7q.3-1 1.3-.7M346 100q-.3 1.1-1.3.7zM60.3 180.3l-1.3.7q.3-1 1.3-.7m20 57-1.3.7q.3-1 1.3-.8m20 6-1.3.7q.3-1 1.3-.8m15 74-1.3.7q.1-1 1.2-.8m32.8 93q-.3.9-1.3.7zm19.3 11.3-1.3.7q.1-1.1 1.3-.7M291 438q-.3 1-1.2.8zm-38.8 28.2-1.2.8q.2-1 1.2-.8M247 482q-.1 1-1.2.8z"/><path fill="#df4951" fill-opacity=".2" d="m371.3 54.3-1.2.8q0-1.1 1.2-.8M264 59.9q-.2 1-1.2.8zm135 7q0 1-1.2.8zm-54.6 21.4-1.2.8q.2-1 1.2-.8M295 96q0 1.2-1.2.7zm-25.6 1.3-1.2.8q0-1.1 1.2-.8m91 0-1.2.8q.2-1 1.2-.8M88 192.9q0 1.1-1.2.8zm395 41q-.2 1-1.2.8zM23.3 291.3l-1.2.8q0-1.1 1.2-.8m109.6 11.6q0 1.1-1.2.8zm31 114q0 1.1-1.2.8zm-54 15q0 1.1-1.2.8zm196 16q0 1.1-1.2.8zm-53 12q0 1.1-1.2.8z"/><path fill="#d13843" fill-opacity=".2" stroke="#d13843" stroke-opacity=".2" stroke-width=".5" d="M316.7 423.3v.8c-.1 1.6-5 3.8-6.3 4.7q-.4-.9-1.5-1.2 3.9-2.3 7.8-4.3Z"/><path fill="#d13d48" fill-opacity=".2" stroke="#d13d48" stroke-opacity=".2" stroke-width=".5" d="M183.7 62.1q.5.9 1.4 1.3l-7.7 4.5-.3-1.1c.1-1 5.4-4 6.6-4.7Z"/><path fill="#de4851" fill-opacity=".3" d="M256.8 101q0 1-1 1zm-138.5 60.5-.9-.4q-.1-.5.2-.8.5.4.7 1.2m-22 47.6-1 .8q-.3-1 1-.8m-52 16.1-1.3.8q.1-1 1.2-.8m-15.5 1.9q-.1 1-1.1.8zm446.5 19.2-1.3.7q.3-1.1 1.3-.7M50.8 249q0 1-1 .9.4-.6 1-1m48.9 43q0 .9-.9 1zm3.5 2.1-1.2.8q.1-1 1.2-.8m-29.5 13q0 1-1 1zm8.5.2q-.5.5-1.2.8.3-1 1.2-.8m43.8-.2q-.3 1-1.3.7zm289 65q-.1 1-1.2.8zm-215.7 29-1 .9q0-1 1-.8"/><path fill="#d33841" fill-opacity=".2" stroke="#d33841" stroke-opacity=".2" stroke-width=".5" d="M393 386.4q.2.5.8.4 0 1-1 1.5c-2 .6-5.9 4.2-7.7 3.6 1.2-2 5.6-4.4 7.8-5.5Z"/><path fill="#e34750" fill-opacity=".2" stroke="#e34750" stroke-opacity=".2" stroke-width=".5" d="M313 462c-1.2 2-6 4.6-8 6q-.4-.7-1.1-1 3.4-2.5 7-4.5 1-.5 2.2-.4Z"/><path fill="#b93c45" fill-opacity=".2" stroke="#b93c45" stroke-opacity=".2" stroke-width=".5" d="m138 341-.2 1.1c-.8 2-5 3.4-6.7 5q-.2-1.1-1.2-1.2 3.9-2.5 8.1-4.9Z"/><path fill="#ed9ba1" d="m228.8 196.3.2.8q0 .8-1 1.4-3 1.3-5.7 3.4-.8.4-1.3-.2.7-1.3 2.2-2 3-1.5 5.6-3.4"/><path fill="#dc4651" fill-opacity=".3" d="m297.3 62.3-1.2.8q0-1.1 1.2-.8m13.6 4.6q0 1.1-1.2.8zm-15.6 15.4-1.2.8q0-1 1.2-.8m-267 153-1.2.8q0-1.1 1.2-.8m3 51-1.2.8q.2-1 1.2-.8m359 8.8-.4.7-1 .2q.3-1 1.4-1m-267 17.2-1.2.8q.1-1 1.2-.8m349 30q-.6.5-1.2.7 0-1 1.2-.7M181 390.9q-.2 1-1.2.8zm-43 41q0 1.1-1.2.8.6-.5 1.2-.7m142 31q-.2 1-1.2.8zm3.4 2.4-1.2.8q0-1 1.2-.8m-56 17-1.2.8q0-1 1.2-.8"/><path fill="#de4651" fill-opacity=".2" stroke="#de4651" stroke-opacity=".2" stroke-width=".5" d="M240.8 58.1q0 .6.3 1.1-.7 1.2-2.2.7.7-1 1.9-1.8Zm21.5 43.2-1.2.8q0-1.1 1.2-.8Zm-160 52-1.2.8q0-1 1.2-.8ZM95 188.9q0 1-1.2.8zm44.9 151.2.2 1q-.1.7-.7.8l-.3-1q.2-.7.8-.8Zm273 2.9.2 1.2a2 2 0 0 1-2 .9 4 4 0 0 1 1.8-2.1Zm-153 113q0 1-1.2.7z"/><path fill="#dc4653" fill-opacity=".4" d="m292.3 65-1.2.7q.3-.7 1.1-.6M402 65q-.4 1-1.5 1zM231.3 81.2q-.7.6-1.7.6.7-.6 1.7-.6m-164 123.9q-.7.8-1.7.8zm-8 26.9-1.4.7q.4-.8 1.5-.7m418.8 5.2q-.5.7-1.4.7a2 2 0 0 1 1.4-.7M30.3 250.1l-1.5.7q.5-.9 1.5-.7m31 69.9q-.5.6-1.4.7a2 2 0 0 1 1.5-.7m-21 13q-.6.7-1.6.7.7-.6 1.6-.6m430.5 3q0 1-1.1.9zM263.4 459q-.7.5-1.6.7.6-.7 1.6-.7m21.6 1.2q-.4.9-1.4.7.6-.5 1.4-.7"/><path fill="#db4854" fill-opacity=".3" d="m271.3 77.3-1.2.7q0-1.2 1.2-.7m52.6.6q-.2 1-1.2.8zm-32 1q0 1-1.2.8zm8.4 16.4q-.6.5-1.2.7 0-1.1 1.2-.7M475 238.9q0 1.1-1.2.8zm-13.6 15.4q-.6.5-1.2.7 0-1.1 1.2-.7m-422 27-1.2.8q0-1.2 1.2-.8m105 18-1.2.8q0-1.1 1.2-.8m-97 60-1.2.8q0-1.1 1.2-.8M398 383q0 1.2-1.2.7zm-156.6 90.3-1.2.8q0-1 1.2-.8"/><path fill="#df4952" fill-opacity=".2" d="m290.3 66.3-1.2.8q0-1.1 1.2-.8M250 68.9q-.1 1-1.2.8zm66 14q0 1.1-1.2.8zm-22.6 16.4-1.2.7q0-1.2 1.2-.7M41 238.9q0 1.1-1.2.8zm49 6q0 1-1.2.8zm98 142q0 1.1-1.2.8zm14.4 12.4-1.2.8q0-1.1 1.2-.8m95 38-1.2.8q.1-1 1.2-.8M287 458.9q0 1.1-1.2.8z"/><path fill="#b23f48" fill-opacity=".8" d="M307.3 11c-.8-.1-6 0-5.9-.9q.3-.7 1-1 3-.6 5 1.9"/><path fill="#d74651" fill-opacity=".8" d="M288.3 8c-1.4.3-6 .5-6.3-1 2-1 5-1.3 6.3 1"/><path fill="#a33d44" fill-opacity=".8" d="M241 6c-.9 1.3-3.2.5-4.5.7q-1.2.3-1.4-.8a5 5 0 0 1 6 .1"/><path fill="#e1646f" fill-opacity=".6" d="M274 128.7c0 2.2-4.5 3.4-6.2 4q0-1 .7-1.5z"/><path fill="#e67981" fill-opacity=".6" d="m160 259.4-4 3.2q-1 .5-2 .5l-.2-1.2q1 0 1-.8l3.9-1.8z"/><path fill="#e47078" fill-opacity=".8" d="M258.1 138q-.1 1-1.2 1 .3-.9 1.2-1m-1.2 1q-.3 1.3-1.7 1c-.3-1 1.1-1 1.8-1m-1.7 1q-.5.9-1.4 1 .2-1.1 1.4-1m-1.4 1q-.7 1-2 1 .5-1.5 2-1m-2 1q-.4 1.2-1.6 1.3 0-1.5 1.6-1.3m-2.7.8 1.1.5-1 .5z"/><path fill="#be424b" fill-opacity=".9" d="M205.7 501.2a14 14 0 0 1 6.6 1c-2.2 2-4.8 1-6.6-1"/><path fill="#dd4752" fill-opacity=".7" d="M260.3 6a21 21 0 0 1-6.5 0q.8-1.2 2.1-1.6c2.6-.7 2.9-.4 4.4 1.7"/><path fill="#dc4650" fill-opacity=".2" d="m338.4 73.3-1.3.8q.1-1.1 1.3-.8m-57.5 12.6q0 1-1.2.8zm30.5 21.4-1.3.8q.1-1 1.3-.8m16 9-1.3.8q.1-1 1.3-.8M92.9 209q0 1.1-1.2.7.5-.5 1.2-.7m316 166.9q0 1-1.2.8zm-212 22q-.1 1-1.3.8zm-54 15q0 1.1-1.2.8z"/><path fill="#e2666f" fill-opacity=".6" d="M267 132.6c-.2 2-3.3 3-5 3.4q.1-.9 1-1.5zm-5 3.4q-.2.8-1 .9.2-.9 1-.9"/><path fill="#de4754" fill-opacity=".2" d="m345.3 69.3-1.2.8q.2-1 1.2-.8m-103 9-1.2.8q0-1.2 1.2-.8m1 34-1.3.8q.2-1.1 1.3-.8m51.6.6q0 1-1.2.8zM91 226q0 1-1.2.8.6-.5 1.2-.7m-28.6 4.4-1.2.8q0-1 1.2-.8M136 416.9q0 1.1-1.2.8zm143 28q0 1.1-1.2.8z"/><path fill="#df4550" fill-opacity=".2" d="M305 54q-.3 1-1.3.7zm-8.1 5q-.1 1-1.2.7zm-13.6 11.3-1.2.8q0-1.1 1.2-.8M236 78q0 1.2-1.2.8.4-.5 1.2-.8m99 29q0 1.2-1.2.8zm-92 3q-.1 1-1.2.8zM96.3 192.3l-1.2.8q0-1.2 1.2-.8m1 136-1.2.8q0-1 1.2-.8"/><path fill="#ac6e73" fill-opacity=".1" d="M135.8 273.2c.2 1.4-3.3 2.5-4.5 2.5l-.6-.4c1-.5 4-3 5-2.1"/><path fill="#eba8ad" d="m111.5 276.2-.6-1.1a10 10 0 0 0 3.8-2q.9-.4 1.3.2-2.1 1.7-4.5 3"/><path fill="#f29ea4" fill-opacity=".2" stroke="#f29ea4" stroke-opacity=".2" stroke-width=".5" d="m145.7 267-1 1.6q-1.3.2-2 1-.9 0-1.6.3a7 7 0 0 1 4.6-2.9Z"/><path fill="#eba4a9" d="m139 286-2-.2c.5-1.3 3.6-4 4.9-2.5q-1.5 1.2-2.9 2.7"/><path fill="#db4851" fill-opacity=".2" d="M345 65q-.3 1-1.3.7zM224.8 85q0 1-1.2.7zm94 13q0 1-1.2.7zM110.3 320.2l-1.2.8q0-1.1 1.2-.8M95 324.9q0 1-1.2.8zm344.4 36.4-1.2.8q0-1.1 1.2-.8m-288 51-1.2.8q0-1 1.2-.8"/><path fill="#dc4752" fill-opacity=".5" d="M496 234v1l-.9-.2q.1-.9 1-.8M392.9 356q.3-.9 1.1-.6-.3.6-1.1.6m-6 53.2q0-.8.7-1c1.1.5-.4.9-.7 1m-97.8 30q-.3.8-1.3.8zM246.4 470q-.7.5-1.6.5.7-.6 1.6-.5m10.8 12q-.6.5-1.3.6.5-.6 1.3-.6m-12.3 1.2q-.2.8-1.1.7a2 2 0 0 1 1.1-.7"/><path fill="#dd4a4f" fill-opacity=".2" d="M318.9 116.9q0 1.2-1.2.8.5-.5 1.2-.8m-217 68q0 1.1-1.3.7zm322 86q-.1 1-1.2.8.5-.5 1.2-.8m-220 123q-.1 1-1.3.8zm63 58q-.2 1.1-1.2.7zm5.4 1.4-1.2.8q0-1 1.2-.8"/><path fill="#fffdfd" d="m339.8 158.3 1.5-.3h.6a5 5 0 0 1-2.8 3.2l.1-2.3q.6 0 .6-.6"/><path fill="#e5747c" d="M149 125h3c-.1 1-2.4 1.9-3.3 2.2q-.4-1.2.4-2.2"/><path fill="#ad3e46" fill-opacity=".8" d="M9.2 212.9c-.3 1.2 0 4.4-1.2 5.1l-.3-.6.3-2.6q-.3-1.5 1.2-2"/><path fill="#f0b0b5" d="M326.6 151.1v.9a6 6 0 0 1-3.2 2c-1.4-.8 2.6-2.7 3.2-2.9"/><path fill="#dd4553" fill-opacity=".2" d="m235.3 82.3-1.2.8q.1-1 1.2-.8m-140 164-1.2.8q.1-1 1.2-.8m44.6 52.6q-.2 1-1.2.8zm32.4 100.4-1.2.8q0-1.1 1.2-.8M286 440.9q0 1.1-1.2.8z"/><path fill="#dd4852" fill-opacity=".2" d="M79 163q-.3 1.1-1.3.7zm12.3 67.3-1.2.8q0-1 1.2-.8m-50 13-1.2.8q0-1 1.2-.8M423 366.9q0 1.1-1.2.8zm-136.6 96.4-1.2.8q.2-1 1.2-.8"/><path fill="#f18286" fill-opacity=".1" stroke="#f18286" stroke-opacity=".1" stroke-width=".5" d="M133.3 167.2q1.3-.7 2.5 0a4 4 0 0 1-3.5 1.5q.1-1 1-1.5Z"/><path fill="#e77e86" fill-opacity=".9" d="M247.7 144.2q0 .8-.8.8zm-.8.8q-.6 1-1.8 1 .6-1 1.8-1m-1.8 1q-.3.7-1 .8z"/><path fill="#e04b54" fill-opacity=".3" stroke="#e04b54" stroke-opacity=".3" stroke-width=".5" d="M248.1 142.7h1l.1 1-1.5.5-.8.8a2 2 0 0 0-1.8 1l-1 .8-1.4.5q-.4.2-.7.6-1.2.8-2.7 1.4l-.4-1a30 30 0 0 1 9.2-5.6Z"/><path fill="#eb989f" fill-opacity=".4" d="m153.8 261.9.2 1.2q-.3.9-1.3.7h-1.3a5 5 0 0 1 2.4-1.9"/><path fill="#af616c" fill-opacity=".1" d="M141 269.9q0 1.2-1.2 1.7l-2 .6q.6-2.5 3.3-2.3"/><path fill="#e0646d" fill-opacity=".8" d="M151.4 263.8h1.3q.2.6-.3 1l-5.5 3.6q-1.2.5-2.2.2l1-1.6q1.2 0 1-1l1.6-.3q.7 0 .7-.8a3 3 0 0 1 2.4-1.1m-6.7 4.8c.5 1.7-1 1.5-2 1q.7-.8 2-1M141 270l1.5-.2c.7 1.9-1.4 2.5-2.8 2q1-.6 1.3-1.8m-3.3 2.3 2-.6q.1.8-.4 1.3L123 283.4q-.9.6-1.2 1.4-1.5.3-2.3-.8l10.7-6.5q.8-.7 1.1-1.8c1.2 0 4.7-1 4.5-2.5q1.2-.1 2-1"/><path fill="#de4851" fill-opacity=".2" d="M217.3 8q-1.4.2-2.7.1 1.2-1.7 2.7-.2M8 214.7q0 1.3-.3 2.6c-.8-.6-1-2.7.3-2.6"/><path fill="#dc4552" fill-opacity=".2" d="m316.3 51.3-1.2.8q.2-1 1.2-.8M303 107.9q0 1.1-1.2.8zM106.3 292.3l-1.2.8q0-1 1.2-.8M305 430q0 1.2-1.2.7.5-.5 1.2-.7"/><path fill="#b9434a" fill-opacity=".4" stroke="#b9434a" stroke-opacity=".4" stroke-width=".5" d="M403.2 252q.5.8 0 1.8-1 .1-2-.1a3 3 0 0 1 2-1.8Z"/><path fill="#a85550" fill-opacity=".9" d="M336.8 136.3c0 .8-1.2.7-1.8.6q.7-.9 1.8-.6m-3.6.5q.9.4 1.8.1-.7 1.2-2.1 1z"/><path fill="#ce454e" fill-opacity=".4" d="M320.8 13.3c1-.3 3.5-.9 3.3 1-.9-.3-2.9 0-3.3-1"/><path fill="#e04653" fill-opacity=".2" stroke="#e04653" stroke-opacity=".2" stroke-width=".5" d="M320 422a6 6 0 0 1-1.7 1.9l-.2-1.1c0-1 1.4-.8 2-.7Z"/><path fill="#a83d45" fill-opacity=".7" d="M165.2 30.2q-1 1-2.3 1.7l.4-.7q.5-1.5 1.9-1"/><path fill="#d74650" fill-opacity=".5" d="M13.2 191.7c0 1 .2 3.1-1 3.4-.3-1-.4-3.3 1-3.4"/><path fill="#a03c43" fill-opacity=".3" stroke="#a03c43" stroke-opacity=".3" stroke-width=".5" d="M108.3 289.3q.6.3.5 1l-.5.8zm0 1.8-1.3.9q.2-1 1.3-.9Z"/><path fill="#df4653" fill-opacity=".2" d="M436.9 357.9q-.2 1-1.2.8zm-23.6 18.4-1.2.8q0-1.1 1.2-.8"/><path fill="#dc4b51" fill-opacity=".1" stroke="#dc4b51" stroke-opacity=".1" stroke-width=".5" d="m5.3 266.9-.2 2.4c-1.6-.4-1.4-2.4.2-2.4Z"/><path fill="#fff0ee" fill-opacity=".7" stroke="#fff0ee" stroke-opacity=".7" stroke-width=".5" d="M341.9 158h-.6q0-1.2 1.3-1c1 .6-.1.9-.7 1Z"/><path fill="#fbbbb6" fill-opacity=".5" stroke="#fbbbb6" stroke-opacity=".5" stroke-width=".5" d="m339.1 158.1.7.2q0 .5-.6.6z"/><path fill="#e15d67" d="m138 184.4-.7.6q0-.6.8-.6"/><path fill="#ecd0ce" d="M339.2 194q1.5.4 0 1z"/><path fill="#ff8371" fill-opacity=".3" d="m371.1 139 1-.1q-.2 1-1.2 1z"/><path fill="#d2444f" fill-opacity=".2" stroke="#d2444f" stroke-opacity=".2" stroke-width=".5" d="M503.8 300.7q.2 1-.8 1.3.1-.8.7-1.3Z"/><path fill="#e6767f" fill-opacity=".9" d="M242.7 147.3q0 .6-.7.6.3-.5.7-.6"/><path fill="#c5414a" fill-opacity=".3" stroke="#c5414a" stroke-opacity=".3" stroke-width=".5" d="M473 359q0 .6-.3 1l-.4-.2q0-.6.7-.7Z"/><path fill="#d3454f" d="m117.4 161 .9.5-1 .6z"/><path fill="#cb424d" fill-opacity=".6" d="M463.1 380q-.3.9-1.2.9.3-.8 1.2-.9"/><path fill="#fff" fill-opacity=".1" d="M146.8 266q0 1-1.1 1a2 2 0 0 1 1-1"/><path fill="#d84651" fill-opacity=".5" d="M446.3 407q-.5 1-1.5.8.5-.8 1.5-.8"/><path fill="none" d="M149 265q0 .6-.7.7 0-.7.7-.8"/><path fill="#c4424d" fill-opacity=".3" stroke="#c4424d" stroke-opacity=".3" stroke-width=".5" d="m30.3 175.9.3.1q0 .7-.6 1 0-.6.3-1.1Z"/><path fill="#e46f78" d="M174 177.2q-.3.4-.8.5.2-.6.8-.5"/><path fill="#fff" fill-opacity=".4" d="M154.8 261q0 1-1 .9z"/><path fill="#e35e68" fill-opacity=".8" d="M260.2 137q-.6.8-1.6.9.6-.7 1.6-1"/><path fill="#dd4752" stroke="#dd4752" stroke-width=".5" d="m255.8 14.9-69.9 45.7q-.6 1.4-2.2 1.5c-1.2.7-6.5 3.6-6.6 4.7l-1.4.2q-1 .8-1.7 2-2.2 0-3 2-1.5-.5-2 1a4 4 0 0 0-3 1.7c1 1.2 2.8-.5 3-1.7q1.4.3 2-1 2.1 0 3-2c.6.1 2 .1 2-.8l1.4-.2 7.7-4.6 81-46.9q.9-.4 1-1.5l13.4 1.2q1.2 0 1.8 1L246 40.3l-11.4 7q-1 .5-1.5 1.6a8 8 0 0 0-5.1 3q-1.5-.3-2 1.2-1.9 0-3 1.5c1.2 1 3 0 3-1.5q1.5.2 2-1.2c1.8 0 4.2-1.4 5-3q1.2.1 2-.5l11.7-6.7 41.4-24.1q6.8.4 13.3 2.4-.2.6-.7.9-23.6 14.3-47 29.4-5.4 3-10.7 6.4-.7.4-.8 1.2l-1.5.2q-1 .7-1.8 1.8c-1.4.1-4.7 1.6-4.8 3.2q-2.3-.3-3.1 1.9-1.5-.2-2 1-2.4-.2-3 2a2 2 0 0 0-2 .7c.6 1 2.2.3 2-.7q2-.2 3-2c.7.1 2.1.1 2-1q2-.2 3-2c1.7-.1 4.5-1.3 5-3.1q1.3.4 2-.7l1.3-.5q6.3-3.4 12.4-7l51-29.6q.3-.6.2-1.3 7.2 1.5 14.3 3.6a40 40 0 0 0-11 7q-.9 0-1.6.6-.9.6-2 1l-1 1-2.9 1.7q-3.5 2.2-6.5 4.6a3 3 0 0 0-1.6.7l-2.9 1.7q-.8.8-1.8 1.2l-1.2.8q-2 1.1-3.6 2.6-.7.1-1.5.7l-1.8 1.1-1 .8-1.9 1-1.2.8q-3.4 2.2-6.6 4.6-.8 0-1.4.6l-3 1.9-3 2a16 16 0 0 0-3.5 2.5q-.9 0-1.5.6-.9.7-2 1l-1 1.2-3 1.6L250 69l-1.2.8q-2 1-3.4 2.5-1 0-1.7.7t-1.7 1l-1.2.8q-.7.8-1.8 1.2l-1.2.8-3 2-.7.6-1.2.7q-1 .4-1.5 1.3-1 0-1.7.6t-1.7 1l-1.2.8L225 85l-1.2.8a23 23 0 0 0-3.5 2.5q-.8 0-1.4.7-1 .7-2.2 1l-.9 1a23 23 0 0 0-4.8 3q-.7.3-1.2.8l-3.7 2.6-1.3.5q-1.2.6-1.8 1.8.3.8 1 .7-2.3 1.7-5 3.2c-1.2.3-1.7-1-2.9 0-4.5 2.4-12.7 8.2-16 10.7-21.9-1.4-52.1-.7-59.2 25q-2 .6-3.9 1.8-.6.2-1.2.7l-.7.6q-.8 0-1.4.6l-10 5.8-.6.6q-.8 0-1.4.6l-3.7 2-1.2.8-.7.6q-.8.2-1.4.6l-5 2.8-.8.6q-.6.1-1.2.7l-3.6 2-1.3.7-5 3-.8.5q-.7.3-1.2.8a34 34 0 0 0-5 2.7l-.8.5q-.8.3-1.2.8l-5 2.7-.7.6q-.8.2-1.3.7a119 119 0 0 0-12 7 33 33 0 0 0-5 2.7l-.8.5-1.1.7-11 6-1.2 1q-3 1.5-5.6 3.4c.5-4.3 2-9.6 4-13.5q20.3-12.3 40.4-25l13.6-8.4q.8-.4.8-1.3c1.8-.2 4.4-1.4 5.1-3.2q2.2.2 3.1-1.8c.6.1 3-.4 1.6-1.2q-1.3 0-1.6 1.2-2.1 0-3 1.8a8 8 0 0 0-5.2 3.2q-.9 0-1.8.3l-14 8.1q-.7.9-1.6 1.3L30.6 176l-.3-.1q2.3-7.2 5-14.1 1 .5 1.7 0 12.6-8.2 25.4-15.9l8.6-5.5 1-1.3q3-.5 5-3a8 8 0 0 0 5-2.8c-1-1.3-4.5 1.7-5 2.7-1.8.1-4.4 1.4-5 3q-1 0-2 .5l-9 5.2q-11.5 6.8-23 13.3l-1 .2c1.3-5 4.1-10.8 6.3-15.4q1 .5 1.7 0l59.4-39q5-3.2 9.7-6.7 2-.3 3-2c.5.1 2.5-.5 1.4-1.2q-1 .1-1.4 1.2-2.4-.3-3 2-1.2-.1-2.2.2-4.5 2.8-9 5.3-.7.8-1.5 1.2L47 135a230 230 0 0 1 81.5-87c6.3-4 28.8-15.8 34.8-16.8l-.4.7c-9.3 6.8-18.4 14.2-28 20.6q-.8.4-.7 1.3-2 0-3.1 1.8c1.4.8 2.4-.8 3.1-1.8l3.5-1.4q23.2-13.5 46.5-26.8 1-.8.9-2l2.8-1q32.7-8.7 66.5-8.2.8-.2 1.4.5Zm107.8 27c1.7 0 10.4 3.7 10.2 5.2l-6 3.7-8 5q-2 1-3.6 2.5-.8.1-1.5.7l-3 1.7q-1.8 1.4-3.9 2.3l-1 1-3.1 1.7-6.8 4.2-1.2.8-.6.6q-.8.1-1.4.6l-1.8 1-1.2.8q-2 1-3.5 2.6-.8 0-1.5.7l-3 1.7q-2 1.5-4 2.3l-1 .9-3 1.8-6.8 4.2-1.9 1.3q-.7.1-1.3.7l-3 1.8-3.6 2.5-1.4.8-3 1.7q-1.8 1.5-4 2.4l-1 .7-2 1.6a2 2 0 0 0-1.3.4q-8.7 5.5-17.5 10.8-.8.4-.5 1.3l-.4.8-26.4-.7q.5-.9 1.4-1l1.3-.7.8-.5q.7-.2 1.3-.7l5-2.8.6-.5q.8-.1 1.4-.7l1.7-1 1.2-.8.7-.2 1.3-.8 5-3 .9-.5 1-.7 5.1-2.8.7-.6q.8-.1 1.4-.6l5-2.8.6-.6q.8-.2 1.3-.7l3-1.7.7-.2 1.3-.8q3-1.6 5.6-3.6.9 0 1.4-.7a38 38 0 0 0 7-4 174 174 0 0 0 17.4-10.2l1.6-.7 3.8-2 1.2-.8.8-.5 1.3-.8 3.6-2q.8-.3 1.3-.7 3-1.6 5.6-3.6.8 0 1.5-.7 2.9-1.4 5.3-3.2l1.7-.8 3.7-2q.6-.2 1.2-.7l.8-.6q.8 0 1.3-.6a32 32 0 0 1 4.9-2.8q2.8-1.5 5.5-3.5.9 0 1.5-.7c.8-.4 2.7-1 2.3-2.2ZM394 59.2a27 27 0 0 1 8 5.8l-1.5 1-3 1.8-5 3.2-8 5-8 5-6.8 4.1-1.2 1a231 231 0 0 0-12.9 8l-2 1-1 1a10 10 0 0 0-3.4 2.3q-.9 0-1.6.6l-3 1.8-3.5 2.5q-.9.2-1.5.8l-3 1.8-3 1.9-.6.5-1.4.7-1.8 1-1.2.8-1.8 1.2-1.2.8-.8.5-1.3.7q-.7.7-1.7 1l-1.2.8-3 2-.7.6-1.3.6-3 1.8q-1.9 1-3.5 2.6-.9 0-1.6.6l-1.7 1-1.2.8q-2.2 1.2-4 3a160 160 0 0 0-12.9-8.4q1.8-.3 3.3-1.2l1.2-.8.8-.5q.7-.2 1.2-.8l5-2.7.8-.6q.7 0 1.2-.6l5-2.8 5-3 .8-.6q.8 0 1.3-.6 2.9-1.4 5.3-3.4l1.7-.6 5-2.8.7-.6q.7 0 1.2-.6l5-2.8q2.8-1.5 5.5-3.5.8 0 1.5-.8a33 33 0 0 0 5-2.7l.8-.6q.7 0 1.1-.6l5.1-2.8.7-.6q.9 0 1.4-.7l4.9-2.7q3-1.7 5.6-3.5.8-.1 1.5-.7l5-2.8.7-.6 1.2-.6 3.7-2 1.3-.8 6-3.3q.7-.3 1-.9 3-1.4 5.6-3.4.9 0 1.3-.7a4 4 0 0 0 2.7-1.8Zm14 10.1a68 68 0 0 1 13.9 12.8l-78 47.6q-.8.4-.8 1.2l-1.4.1c-1.5 1.3-8.4 4.2-8.6 5.8l-.3 1.2c-6.6 6-26.5-3.8-30-8.2 1.4.4 3-1.3 4.2-1.7l1.2-.8.8-.5q.8 0 1.3-.7l5-2.8.6-.6 1.4-.6 4.9-2.8 5-3 1-.5q.6-.2 1-.8 3-1.2 5.5-3.2.9-.2 1.6-.8a161 161 0 0 0 11.9-6.7q3-1.6 5.5-3.6a3 3 0 0 0 1.6-.6l5-2.8.7-.5q.6-.1 1.2-.7l5-2.8.7-.5q.8-.2 1.4-.7 1.8-1.2 3.6-2l1.3-.8q3-1.7 5.6-3.6.8 0 1.5-.6l5-2.8.6-.6q.8 0 1.3-.7l5-2.7.7-.5q.8-.1 1.2-.7a18 18 0 0 1 4.1-2l1.1-1q2.9-1.4 5.5-3.3.9 0 1.4-.8.5-.1.8-.7Zm33.8 32.3c1.3 2 5 5.2 5.2 7.4q-15 9.4-30.2 18.4-2 1.2.2 1.9-1.5 1-3.1 1.7c.3-2.6-4.6 0-3.3 1.1.2 1.4-1.4 1.7-2.4 2.1l-21.7-.2q.2-.5.8-.8 26.3-14.7 52.3-30 1.3-.7 2.2-1.6Zm15.9 21q5 7.5 9.5 15.4a3719 3719 0 0 0-51.2 31.2q-.2-11.3 0-22.4 21-11.7 41.7-24.1ZM171.9 124h14c-1.6 2.5-23.5 14.2-27.7 16.7q-.2-1 .5-1.6 6.9-7.3 13.2-15Zm59.3.3h16.7l-62.5 36.3q-2.3.3-.5-1.2c15.1-10.5 30.3-22.8 45.2-33.9a3 3 0 0 0 1-1.2Zm33.9 0c2.6.5 5.8.5 8.3 1.7a32 32 0 0 1-4.4 3.4l-19.4 11.9q-.8.5-1.5 1.4a30 30 0 0 0-9.2 5.7q-1.2.3-2.3.8a91 91 0 0 0-8.4 5.5 64 64 0 0 0-7.2 4q-.9.6-.6 1.7-50.1 29.2-100.4 58-.6.4-1 0 2.8-4.2 5.2-8.5c6.5-.4 15.4.6 13.7-9.1q.6 0 1-.3l21.2-13q.7-.6.8-1.4l1-.3a1 1 0 0 0 1-.8q2.3 0 3.1-2.1c1.8.2 4.8-1.6 5-3.6q.7-1.5 2.2-1.6.5 0 .8-.5 45.4-26.6 91-52.9ZM138.6 150c-1.7-1-2.4-3.3-3-5.1a168 168 0 0 1 10.4-6.2c.6-.2 1.2-1 1.8-.2q-3.8 5-8 9.5zM387 138.6a796 796 0 0 0-29 17q-1.1.2-.9-1 5-6.1 11.8-10.4l9-5.5q4.6-1 9.1-.1Zm-93.1 0q1.2.7 2.1 1.5a3 3 0 0 1-1.1 1.1q-14 8-28 16.4-2.8.9-5 3-2.2.2-3.6 2-2.1.1-.5-1.2 18.3-11 36-22.8Zm173.9 1.4c1.8 1.4 4 6.5 5 8.8q-1 0-2 .5L416 183q0-6.7.2-13.3 1.4.3 2.6-.3l48.4-28q.8-.5.8-1.4Zm-69 1.2c4 1.6 4 2.5 3.9 6.8q-13.7 7.2-26.7 15.5c-1.5 1-2.8 0-1.2-1.1 4.5-3.5 22-17.6 24-21.2Zm-278.7.7.8-.1q1.2 4 2.8 8l4 7.8q0 .6-.6 1-4.7.7-9 2.9 0-.8-.6-1.2-.4.3-.2.8l-.2 1-3 2.4c-2-.5-8.2 1-9.5 3.4q-1 0-1.7.6l-14 8q-.7.9-1.6 1.3L20 216.3c-.3-3.6 1.5-8.9 2.2-12.5q1 .3 1.7-.3l3.3-2.2q2-1.1 3.6-2.5a3 3 0 0 0 1.4-.8l1.7-1 1.2-.8q3.6-2 6.6-4.6.7 0 1.5-.5l2-1.1 1-1a14 14 0 0 0 3-1.7l6.5-4.5q.9-.2 1.6-.8l1.6-1 1.3-.7 6.5-4.5 1.5-.7 2-1 1.1-1 1.7-1 1.2-.8 6.5-4.5q.8-.2 1.5-.8l3-1.8 1.8-1.1 1.2-.8 3-2 .8-.6 1.3-.7 1.8-1 1-1a14 14 0 0 0 3-1.7l1.9-1.2 1.2-.8 3.6-2.5q.8-.1 1.4-.7l1.7-1 1.2-.8 1.9-1.2 1.2-.8 3-2 .8-.5 1.2-.7q.9-.7 2-1.2Zm185 3.4c1.1.9 7.7 2.7 7.9 3.5q-40.6 23.8-81.4 47.4a7 7 0 0 1-2.7.9l-.2-.8q38.3-25.3 76.5-51Zm-190.3 17c.4-.1 1.7-.5.7-1q-.7.2-.7 1Zm363.9-.6c4.8 10.9 9.8 26 11.8 37.6q-.7-.6-1.7 0l-64 39.2q-1.5.9-.1 2.1-3.9 1.7-7.4 4.3-.8.1-1.4-.2-.3-24 0-47.7c7.4-1.4 10-7 16.7-10q.4 1 1.3 1l12.8-7.4q14.8-8.8 29.9-17.3 1.2-.6 2-1.6Zm-152.5 2.1q.5 1.5.4 3-1-.2-2 .2L302 180.6a5 5 0 0 0-2.2.7q-1.5 1.5-3.5 2.5a1 1 0 0 1-1-.4zm-190.5 3.4a6 6 0 0 1 4-.3q0 .6-.5.9l-9 4.8q-.6.3-1-.1l3-3.8q2.1.2 3.5-1.4ZM475 175c-1.7 0-4.3 1.3-5 3a7 7 0 0 0-5 3c-1.5 0-4.5 1.5-5 3q-1.4-.2-2 1-2.3 0-3 2-1.3-.3-2 .7c.6 1 1.9 0 2-.7a3 3 0 0 0 3-2q1.4.3 2-1c1.8-.2 4.3-1.4 5-3q3.2-.5 5-3c1.8 0 4.3-1.3 5-3 1.3.2 6.6-2.4 7-3.5-1.2-1.5-6.8 2.5-7 3.5Zm-71.5 8.1q.3 2.3 0 4.7l-20.4 12.7c-1.6 1-3 0-1.3-1.2 2.7-2.1 20-16.1 21.7-16.2ZM476 186q-1.5 0-2 1.2c-1.6.1-4.3 1.5-5 3q-2.5-.4-3 2-1.5-.5-2 1c-1.8-.3-3.9 1.5-5 2.5.9 1.5 4.3-1.5 5-2.5.6 0 2.1 0 2-1q2-.5 3-2c1.6 0 4.1-1.6 5-3q1.5.1 2-1.2c1 .3 5.8-1.8 4.6-3a9 9 0 0 0-4.6 3Zm-371.7 1 .8-.3c0 4.6 2.4 8.4 4.1 12.4a94 94 0 0 1-12.4 7.6Q95 208 92.9 209q-.7.2-1.2.7l-.9.5-1 .6Q88 212 86 212.9l-1.2.8-.6.6q-.8.1-1.5.7l-5 2.7-.7.5-1.3.7-4.9 2.8-5 3-.7.5q-.8.3-1.3.7l-3.8 2-1.2.8-.7.6q-.7.2-1.2.7a37 37 0 0 0-5.1 2.7l-.7.5q-.8.3-1.3.8l-3 1.7q-.4 0-.7.3l-1.3.7-5 3-.9.5-1.1.7-3.8 2-1.2.8-.7.6q-.7.2-1.3.6l-3.7 2-1.3.8-5 3-1 .4-1 1a9 9 0 0 0-3.4 2.2q.1-6.3 1-12.6 1.6.6 2.8-.6l1.2-.8 4-2.4 2.8-1.8 1.2-.8q2-1.2 3.6-2.5.8-.1 1.4-.8l1.7-1 1.3-.7q2-1.2 3.6-2.6a110 110 0 0 0 12.4-7.7l1.8-1q.6-.2 1.2-.7 3.4-2.3 7-4.4l1-.8q3.5-2 6.6-4.4.8-.1 1.4-.7l1.8-1 1.2-.7 3.5-2.5 3.5-1.8 1-.9q3.5-2 6.6-4.3l1.4-.7 1.8-1 1.2-.8 3-2 .7-.7q.8 0 1.3-.6a59 59 0 0 0 6-4Zm222.3 1.8.1 3q-.6 0-1.1.2l-17.2 9.8c-1.7 2-2.3 1.7-4.5 2.4q-1.7 1.5-3.8 2.4-.5.1-.8-.3zm77.2 11v6c-6.6 3-12.6 7-18.7 10.9-1.6 1-2.6-.4-1.2-1.3q10-7.5 19.9-15.5ZM353 212.4q-1.2-.6-2.2-1.5l8-5.3c1.6-1.1 3 0 1.3 1.2q-4 2.3-7.2 5.6Zm140.9 4.4q1.5 5.1 1.3 10.5l-1.2.1-1.5.6-1.7 1-1.2.8a14 14 0 0 0-3.5 2.6q-.8.2-1.5.7a33 33 0 0 0-6.6 4.3 2 2 0 0 0-1.4.7 30 30 0 0 0-6.5 4.2q-.8.3-1.5.8l-3 1.7q-2 1.2-3.6 2.6-.8 0-1.3.6l-3.1 1.8q-1.9 1.1-3.5 2.5-.8.3-1.5.8a46 46 0 0 0-6.5 4.2l-1.6.7-1.7 1-1.2.8q-1.9 1-3.5 2.6-.8 0-1.5.6l-1.8 1-1.2.8q-1.9 1-3.5 2.6-.7 0-1.5.7l-1.8 1q-.6.2-1.2.7l-3 2-.8.6-1.2.7-3 1.7q-.6 1.2-1.9 1.3l.1-15a4 4 0 0 0 2.1-.3zM326.6 218q.3 3 .1 6c-2.1 0-21.7 12-25.2 14-1.7 2-4 1.4-5.4 3.5q-1 .6-2 0c1.4-2 7.2-4.7 9.4-6.6a675 675 0 0 0 23.1-16.9Zm57.3 16c.8-2.2 14.7-12.5 17.6-14.9q.7-.7 1.6-.4c.3 1.3.8 4.3-.6 5.2-2.8 1.2-16.8 10.3-18.6 10.2ZM120 241.4q-1.2-.3-1.9-1.2 14-8.2 27.5-16.8l2 .2q-1.8.1-2.7 1.8a16 16 0 0 0-4.9 3.3q-10 6-20 12.7Zm233.2-11.5-1.3-1q.4-.8 1-1.4c2.8-1 4.7-4 7.5-4.3q.7.9-.2 1.5a49 49 0 0 0-7 5.2ZM95 228l.9-.2q.4.3.5.8.4 6 3.4 11.1a15 15 0 0 0-5 2.2l-1.2.7-5 3-.8.6q-.8.1-1.3.6l-5 2.8-.7.5q-.8.3-1.3.8l-3.6 2-1.3.7q-3 1.5-5.6 3.5-.8.2-1.4.8-3 1.4-5.6 3.2-.7.1-1.5.7l-5 2.8-.7.7q-.6 0-1.2.5l-5 2.8q-3 1.6-5.6 3.6-.8 0-1.4.7a37 37 0 0 0-5 2.7l-.7.5-1.3.8-5 2.7-.8.6q-.8.2-1.3.7l-3.6 2-1.3.7a39 39 0 0 0-5.6 3.7 1 1 0 0 1-.9-.8q-.6-4.3-.8-8.8 2.3-1.2 4.4-3 .8-.2 1.4-.8l3.1-1.7 3.6-2.5 1.4-.8 3-1.7q2-1 3.4-2.6.9 0 1.6-.6l3-1.8 3.5-2.5 1.5-.7 1.8-1 1.2-.8 3.6-2.5q.8-.2 1.5-.8l1.7-1 1.2-.7 3.6-2.5q.8-.1 1.4-.7l1.8-1 1.2-.8a16 16 0 0 0 3.4-2.6q1 0 1.7-.6l2.8-1.9a22 22 0 0 0 3.7-2.4l1.5-.7q.7-.7 1.6-1l1.3-.8q1.8-1 3.4-2.6.9-.2 1.6-.7l3-1.8L90 231l1.2-.8.9-.5 1-.8zm399.2 7.2.8-.5 1 .3c1 5.6.7 15 1 21a3 3 0 0 0-2.2.2l-50 31-14 8.3q-.7.5-.9 1.2a8 8 0 0 0-5.1 3.1c-1.7.1-4.3 1.5-4.9 3.1-1.8-.1-4 1.5-5 3q-1.5-.5-2 1-1.9.2-2.9 1.6c1 1.2 2.7-.5 2.8-1.6q1.5.3 2-1a7 7 0 0 0 5.1-3c1.6-.1 4.5-1.4 4.9-3q3.4-.3 5.1-3.2 1 .3 2-.2l13.7-7.9L497 259q-1.5 17.8-5 35.3-1-.1-1.7.4l-75.3 47q-.7.3-.7 1.2h-1.5a4 4 0 0 0-1.8 2.2c-1.8-.3-4.2 1.3-5 2.9-1.8 0-4.2 1.3-4.9 3-1.9-.1-4 1.5-5.2 2.7 1 1.5 4.5-1.7 5.2-2.6a8 8 0 0 0 5-3.1q3-.5 5-3a2 2 0 0 0 2-.8l1.3-.5 12.4-7.1q32-18.6 64.2-37c-.4 3.7-1.5 9.5-3.1 12.7q-.9-.1-1.6.4-10.6 7-21.6 13.4l-.3.6q-1.3.3-2.4 1l-13 8q-.8.5-1 1.4c-1.3-.3-4.7 1.7-5 2.9a3 3 0 0 0-3 2q-1.5-.2-2 1-2.4-.3-3 2-1.2-.3-2 .7c.5 1 2.1.3 2-.7q2-.3 3-2 1.5.2 2-1a3 3 0 0 0 3-2c2.3.4 3.8-1.2 5-3q1 0 2-.3l14.6-8.6q.4-.5.1-1 1.2 0 2.4-.5l20.5-11.8q-1.2 7-3.8 13.6-1 0-1.9.6l-1.2.7-6.6 4.5q-.8.2-1.5.8l-1.8 1-1.2.9-2.9 1.8-6.5 4.5a3 3 0 0 0-1.4.7q-1 .7-2.1 1l-1 1-1.8 1-1.2.8-9.9 6.3-1 1a45 45 0 0 0-6.1 3.7 23 23 0 0 0-3.5 2.5l-1.5.8-2 1-1 1-1.8 1q-.6.2-1.2.7L423 367l-1.2.8a13 13 0 0 0-3.5 2.6q-.8.1-1.5.7l-1.7 1-1.2.8-3 2-2 1.1-1.1.8-6.7 4.3-1.2.8-1.9 1.2-1.2.7-3.8 2.7c-2.2 1-6.6 3.4-7.8 5.5-1.5 0-4.7 1.7-5 3q-2.5-.1-3.1 2-1.2-.2-2 .8c.6 1 2.1.2 2-.7q2.1-.3 3-2a6 6 0 0 0 5-3.1c2 .6 5.8-3 7.7-3.6q1-.4 1-1.6h1q.9 0 1.5-.8l5.1-2.7.9-.4 1.1-.8 1.8-1q.6-.2 1.2-.7l.7-.2 1.3-.8 5-3 .8-.6 1.3-.7a72 72 0 0 0 6.8-4l5.1-2.7.7-.5q.8-.2 1.4-.8l3-1.7.6-.2 1.3-.8 5-3 .6-.5q.8 0 1.5-.8l5-2.7.7-.5 1.2-.7 5-2.8.7-.7q.8 0 1.4-.6 1.9-1 3.5-2.3.8 0 1.5-.6 2.8-1.4 5.3-3.3l1.6-.7 5.8-3.3 1.2-.8a31 31 0 0 0 5-2.7q.5-1.1 2-1.3a191 191 0 0 1-5.4 15.3q-1-.5-2 0l-77.3 49.9q-1 .6-1.7 1.7-1.5-.2-1.9 1-2.1.3-3 2-.6.3-.6.7.5-.1.6-.6a3 3 0 0 0 3-2q1.5.4 2-1.1 1 0 2-.5l12-7 1.5-1.2q31-17.5 61.8-35.4l.4.2c-2.2 5.4-4.7 11.6-8.1 16.3q-.7-.5-1.6 0-16.2 10.5-32.5 20.8-.9.6-1.3 1.7c-1.5 0-5 1.7-5.1 3.3q-2.2-.2-3 1.8-1.4 0-2.1 1c-1 .3-2.7.6-3 1.7 1.1 1.1 2.7-.4 3-1.7q1.4.3 2-1 2 0 3.1-1.8a7 7 0 0 0 5.1-3.3q1.3 0 2.5-.5c9.7-6.3 20.1-11.7 30.2-17.4 0 3.5-8.4 15.8-10.7 19.2q-1.1-.5-2.3.1l-33.8 23q-5.1 3-10.1 6.4c-1.4.6-1.2 1.9.2 1.3l10.5-6q14.4-8.7 29-17c.7 3.9-24 29.6-28.7 33.2q-.8 0-.8.8l-1.4.4q-2.1.4-1.6 2.4a203 203 0 0 1-65.1 38l-.2-.4q19.3-15 38.8-29.7-1.8-.7-2.5 1a3782 3782 0 0 0-61.2 35c-.5.7-3 1.4-2.7 2.2l-2 1q-12.7 2.7-25.5 4l60.2-40.2c2-1.3 2.4-2.8 5-3.2q.6-.2.8-.7c-1.7-1.5-3.5.9-4.6 2-3.7 2-7.4 3.6-10.8 6.1a6124 6124 0 0 0-62.4 35.8q-.7.5-.7 1.2-9.9.5-19.7.2 20.4-13 40.7-26.3l4.7-2.8c2-1.3 6.8-3.9 8-5.8q1.5.3 2-1.1 2.1-.2 3-2c.6.2 2.6-.4 1.5-1.1q-1 .1-1.4 1.1-2.4 0-3 2-1.5-.2-2 1-1.2 0-2.1.5a72 72 0 0 0-7.1 4.5q-2.5 1-4.7 2.5l-45.2 26q-.8.6-.8 1.5a167 167 0 0 1-17.4-1.2 41 41 0 0 0 6.1-4q.8-.2 1.4-.8l2-1 1-1 1.8-1 1.2-.7 6.6-4.6q.8 0 1.3-.6l1.6-1.4q.8 0 1.5-.7l2-1 1-1 3-1.7q3.3-2.1 6.5-4.6.8 0 1.4-.7.9-.5 1.6-1.2l1.5-.8 1.7-1 1.3-.7 1.8-1.2 1.2-.8 3-2q2-1 3.5-2.6.9 0 1.6-.7l1.8-1.1 1.2-.9 5.9-3.7 3-2 5-3.2q.9-.7 2-1l.9-1q.9-.7 1.9-1l1.2-.8q.8-.9 2-1.4c2.2-1.4 8.6-4.8 9.7-6.9 1.4 0 4.6-1.6 5-3 1 .3 4.2-.8 2.6-2a3 3 0 0 0-2.6 2c-1.8-.2-4.2 1.5-5 3q-1 0-2 .5l-9 5.2-3.8 2.5q-.9 0-1.4.6-1.8 1.2-3.9 2.1l-1.2.8-.8.5-1.2.8-5 2.7-.7.6q-.8 0-1.4.6l-3 1.7-.6.4-1.3.7-5 3-.7.5q-.8.1-1.4.7l-5 2.8-.7.6q-.7 0-1.3.7l-3.6 2-1.3.7-.9.5-1 .8-1.9 1q-.7.2-1.2.7l-.6.7q-.8 0-1.3.6a23 23 0 0 0-5.6 3.2q-.8.2-1.5.8l-5 2.7-.7.6q-.8.2-1.3.7a38 38 0 0 0-5 2.8l-.8.5a2 2 0 0 0-1.1.7 14 14 0 0 0-3.7 2.2l-1.4.7q-3 1.4-5.6 3.3l-7.1 4.1c-3.8-.6-9.4-1-12.9-2.5l.2-.6 6.5-4.4 1.5-.7 3-1.9q.7-.6 1.8-1.1l1.2-.8 6.5-4.5q.8-.1 1.5-.7l3-1.8q.8-.7 1.8-1.2l1.2-.8q2-1.1 3.5-2.7.9 0 1.6-.5l1.4-1.4q.8 0 1.5-.7l1.7-1 1.2-.8 3.1-2 3.6-2.4q.8-.1 1.4-.7.8-.6 1.5-1.4.9-.2 1.6-.7l1.6-1 1.2-.8 6.1-4q.4 0 .8-.4l1.3-.8 1.9-1 1-1 1.8-1 1.2-.7 1.8-1.2 1.2-.8q2-1 3.5-2.7.7 0 1.5-.5.9-.7 2-1.2l1-.8 3-1.8 1.8-1.2 1.2-.8a24 24 0 0 0 3.6-2.5q.8-.2 1.5-.7.8-.7 1.8-1.1l1-1 1.9-1 1.2-.7q.9-.9 2.1-1.5c1.3-1 6.2-3.1 6.3-4.7l1.6-.2a6 6 0 0 0 1.7-1.9c1.5 0 4.5-1.6 5-3a3 3 0 0 0 3-2.1q1.5.3 2-1c.7.2 4-1 2.6-2q-2 .3-2.6 2a2 2 0 0 0-2 1q-2.2.1-3 2.2c-1.7-.2-4.5 1.2-5 3-.5-.2-2-.3-1.9.7l-1.4.5-7.8 4.2q-1.6 1.7-4 2.5-.7.2-1.2.7l-.8.6q-.7 0-1.2.6l-3.8 2-1.2.8-.9.6-1.2.6-4.9 2.9-.7.4-1.3.7-3 1.8-.7.6q-.8.2-1.4.7l-5 2.7-.7.5q-.7.2-1.2.8a45 45 0 0 0-7 4l-1.8 1-1.3.6-.6.4-1.3.7-5 3-1 .5q-.6.2-1 .8l-5 2.7-.8.7q-.8 0-1.1.5l-5.1 2.8-.7.5q-.8.1-1.3.7l-5 2.8q-3 1.5-5.5 3.6l-1.5.6-5 2.8-.7.6q-.7.2-1.3.7a38 38 0 0 0-5 2.7l-.7.5q-.8.2-1.4.7l-3.8 2.2-1 .9q-3 1.3-5.7 3.2-.8.1-1.5.8-1 .9-2.6 1.4-5.7-1-11.3-2.7a1 1 0 0 1-.5-.8 1649 1649 0 0 0 31-19.1l13.2-8q.9-.6 1.5-1.7c1.8 0 4.4-1.5 5.1-3.2 1.9.3 4-1.5 5-2.9a8 8 0 0 0 5-3 2 2 0 0 0 1.9-.7c-.6-1-1.8 0-1.9.7q-3 .5-5 3-3 .5-5 3a8 8 0 0 0-5.1 3q-1 0-2 .4-7 4.2-14 8.1-.6.9-1.4 1.3-15.2 8.3-30.2 17-.9.6-1.2 1.6c-3-.8-10-2.4-12-4.3a6052 6052 0 0 0 64.5-40q.8-.4 1-1.2 10-.1 18.4-5.4c34.4-24.2-10.3-96.2 35.6-127.3 5.1-4.6 28-12.5 33.4-11.3 13.8 9 31.7 5.8 47.2 5.4-.2 1.3-2.3 1.5-3.2 2q-4.4 3-8.7 5.5a2 2 0 0 0-1 1.2c-1.5.7-9 4.2-9.1 5.7-1.7.2-9.7 4.8-10.3 6.2a3 3 0 0 0-3 2q-1.3-.1-1.8 1.1-2.4-.3-3 2a2 2 0 0 0-2 .7c.5 1 2 .2 2-.7a4 4 0 0 0 3-2q1.5.5 1.9-1a3 3 0 0 0 2.9-2q1.1 0 2.2-.3c1.6-1.4 8.3-4.3 9-6 1.6 0 7-3.8 8.9-4.7l15-8.6q.6-.4.8-1.2 11.2 0 22.6-.4c11.4-2 15.4-9.9 14.6-21l1-.2q.7 0 1.3-.6l3.7-2 1.3-.7q3-1.5 5.4-3.6.9 0 1.5-.7a27 27 0 0 0 5.9-3.2q.6-.2 1.2-.7l3.7-2 1.3-.8.8-.7q.8 0 1.3-.5l4.9-2.8a53 53 0 0 0 7-4.3 28 28 0 0 0 5.7-3.3l6.3-3.4.7-.6 1.3-.7 3.7-2q.8-.3 1.3-.7 3-1.7 5.6-3.5.8 0 1.5-.7l5-2.8.7-.5 1.2-.7zm-90.7.8v1.7c-2.8 3.3-8.7 5.5-12.3 8.1-1.4.7-1.5-.8-.4-1.5 3-1.3 10-8.8 12.7-8.3Zm-76.9.9v4c-8.1 3.9-15.7 9.5-23.8 13.3q-.7.8-1.6 1.3-2 0-.4-1.1 13-8.6 25.8-17.5ZM101 241.8q3 2.8 6.3 5.4.7.4.4 1.2-3 2.8-5.9 5.8a27 27 0 0 0-6 17.8 45 45 0 0 0-6.8 4q0-1.5-1.3-1l-3.7 2q-31.5 18-62.8 36.3-.6 0-1-.6-2-9-3.1-18 1 0 1.8-1 .8-.2 1.5-.7l2.9-1.7q1.9-1.1 3.5-2.5.8-.2 1.5-.7l1.8-1 1.2-.8q2-1 3.5-2.6a3 3 0 0 0 1.5-.7 14 14 0 0 0 3-1.7q2-1.2 3.6-2.6.8 0 1.4-.6l7-4 1-1 7-4.2 1-1a372 372 0 0 0 15-9l1-.9a13 13 0 0 0 3.5-2.2q.8-.2 1.5-.7.8-.7 1.7-1l1.3-.8 3.6-2.6q.8 0 1.4-.6a37 37 0 0 1 4.8-3l1.2-.8L99 244l1.2-.8q.7-.5.7-1.4Zm251 6.3q-.5-1.3-2-1.1 0-.7.5-1 3.5-1.4 6.4-3.8c1.6-1 2.7.4 1.2 1.4a32 32 0 0 0-6.1 4.5Zm142-2.1a8 8 0 0 0-5 3q-2.4-.3-3 2-1.5-.2-2 1c-1.8-.2-3.8 1.5-5 2.6 1 1.4 4.4-1.5 5-2.6q1.5.3 2-1 2-.4 3-2c2.4.2 3.8-1.3 5-3q.6 0 .8-.4-.6-.2-.7.4Zm-281 42.8-8.1-3 63-37.4q1-.4 1.8.3c0 1-2.2.8-2.8 1.5q-26.7 19.4-53.8 38.6Zm-86.2-37.9.9 2.1q0 .9-.7 1.2L109.2 266q0-1.5.7-3 3.3-1.4 6.3-3.2 4.6-3 9.3-5.7 1-1.3-.1-2.5zm38.2 33.8q-4 .4-8 .4 0-.6.6-1c18.4-10.5 37.7-21 55.5-32.4q1.2-.8 2.5-.2l-1.8.7a39 39 0 0 0-5.8 4.4q-1.5.7-3 1.7zm161.7-30.6v5.8q-14.8 8.1-29.4 16.8-2.4.3-.4-1.3 15-10.4 29.8-21.3Zm74.5-.4q1 .3 2 .1.6 2 .3 4-9.4 5.3-18.4 11c-1.5 1-2.7-.3-1.2-1.4 4.7-2.8 13.2-12 17.3-13.7ZM223 299.3q-1.6-1.9-2.6-4.2l43.7-25.7c1-.2 3.8-2.4 4.6-2l-41.3 29.3a23 23 0 0 1-4.4 2.6ZM352 284q-.3-2 0-3.8c1.7-4.4 11.3-7.4 14.9-10.8 1.3-1 2.6.2 1.1 1.3q-8.2 6.3-16 13.3Zm-146.9-12.5q1 .4.8 1.6a385 385 0 0 0-16 11l-6-.2q.1-.4.7-.7 10.4-5.6 20.5-11.7Zm285.7 2c.6-.1 2.8-.7 1.7-1.6q-1.4.2-1.7 1.5ZM223 318l1-8q22.6-12.9 45-26.4c1.1-.7 1.9.7.4 1.4zm119-33.6c.6 2.8-1.7 5.2 0 7.7q-.3 1-.1 2a9 9 0 0 1-3-8q1.5-1.2 3-1.7Zm54.1 4.3c-1.8 1-10.7 5.4-10.7 7.3H379q0-.6.6-.9a300 300 0 0 0 18.4-10.7q.5-.3.9.2-.3 2.8-2.8 4Zm-287.3 1.6 1.2.1c11.4 6.1 22.7 5.9 35.2 5.9l-6.5 3.4-.8.5-1.2.8a37 37 0 0 0-5 2.7l-.8.6q-.7 0-1.3.6l-4.9 2.8-5 3-.6.6q-.8.1-1.4.7l-5 2.7-.8.6a124 124 0 0 0-11.2 6.4q-.4 0-.7.3l-1.3.7-5 3-.7.7q-.8 0-1.3.5l-5 2.8-.8.5q-.7.3-1.2.8a79 79 0 0 0-10.5 6.3q-.8 0-1.5.7a36 36 0 0 0-5 2.7l-.7.6q-.7.2-1.2.6l-5 2.8q-3 1.6-5.7 3.6a55 55 0 0 0-6.5 3.4l-.5.5q-.8.2-1.4.7l-5 2.8-.8.6q-.7.2-1.2.6l-3 1.8-1 .4a39 39 0 0 1-3.3-8.2q15.9-9.3 31.4-19.1l1.9-.7q4.6-3 9.3-5.8.9-.3.7-1.3h1.6l12.7-7.7q.8-.5 1-1.4a7 7 0 0 0 5-3c1.4.3 6.4-2.7 7-4 .8.2 3.7-1 2.6-2q-2 .3-2.6 2c-1.5 0-6.2 2.5-7 4a8 8 0 0 0-5 3q-1.2 0-2 .5-6.1 3.5-12 7.3l-1.4.5-12.3 7.2q-15 8.8-30 17.3a7 7 0 0 0-2 1.5l-3.4-9.2a3 3 0 0 0 2.9-1.4q.8 0 1.5-.6l3-1.7a12 12 0 0 0 3.4-2.7q1 0 1.6-.5l8-4.8q1.9-1 3.5-2.7.8 0 1.5-.6l1.8-1 1.2-.7q2-1 3.6-2.6.8 0 1.5-.7l6.6-4 1.3-.7q2-1.1 3.6-2.6.8 0 1.4-.6l3-1.8 5-3A157 157 0 0 1 92 301l1.2-.8.8-.5q.8-.3 1.2-.7l1.8-1 1.2-.8a42 42 0 0 1 5-3q.8-.7 1.8-1.2l1.2-.8.7-.3 1.3-.9zm98 87.7-1.7 1q-.2-1.3-1.4-1l-3.7 2q-.8.2-1.3.7l-5 3q-.4 0-.7.3l-1.3.7q-1.7 1.4-3.8 2.2l-1.2.8-.8.5-1.2.7-3.8 2-1.2.8-.8.5q-.7.2-1.2.8l-5 2.8-.8.4a51 51 0 0 0-6.2 3.8 40 40 0 0 0-5 2.7l-.7.6q-.8 0-1.3.6l-7 4-8.8 5-1.2.8-.8.5-1.3.8a64 64 0 0 0-7 4l-3.7 2q-.6.2-1.2.7l-.7.6q-.8 0-1.4.6l-3.6 2-1.3.8-7 4.3a54 54 0 0 0-7 3.9l-5 2.8-.8.5q-.6.1-1.3.6l-.7 1q-4.2-3.3-8.1-6.7a4 4 0 0 0 2.3-.4l84-51.4q.6-.3.9-1.2c1.7-.1 4.3-1.6 5-3q3.1-.6 5-3a7 7 0 0 0 5-3.2c1.9.2 3.8-1.4 5-2.6-.8-1.2-4.9 1.8-5 2.6-1.8 0-4 1.5-5 3.1a7 7 0 0 0-5 3 6 6 0 0 0-5 3.1 3 3 0 0 0-2 .3l-16 9.2-1.5 1.2a7078 7078 0 0 0-68.1 39q-.9.4-1 1.2-1.2-.1-2-1A287 287 0 0 1 66 406.6a16 16 0 0 1-3.3-4.6q19.5-12 39-23.5l2.2-1.8q.9 0 1.8-.6 7-4.5 14.3-8.7.7-.4 1-1.3c1.4 0 4.6-1.5 5-3 1.5 0 4.3-1.6 5-3a16 16 0 0 0 6.9-3.7c-.6-1.1-6.6 2.4-6.9 3.7-1.9-.2-4 1.6-5 3a6 6 0 0 0-5 3 4 4 0 0 0-2 .3q-7.3 4.4-14.7 8.5-.8.5-1.4 1.4-.9 0-1.6.5Q81 388.3 61 400.3c-1.4-1.8-4.7-5.4-5-7.5l70.3-43q.5-.4.5-1c1.3.3 3-1.4 4.3-1.8 1.7-1.5 5.9-2.8 6.7-4.9l1.5-.2q.6 0 .7-.7l1-.2c1.6-1.3 6.3-3.2 7-5 1.7 0 4.2-1.5 5-3 1.7 0 4.4-1.5 5-3 .7 0 2.1 0 2-1q2-.2 3-2 1.2.2 1.8-.7c-.5-.9-1.6 0-1.8.7q-2.4-.3-3 2-1.4-.3-2 1c-1.8.2-4.3 1.3-5 3-1.7 0-4.5 1.4-5 3-2-.2-5.6 2.3-7 3.7l-1.2.4a1 1 0 0 0-.8.7l-1 .2q-4.2 2.4-8.1 5l-3.9 2-70.7 40.8a2 2 0 0 0-1 1c-1.9 0-5.3-6.4-5.6-8q1.2 0 2.3-.5l38.4-23.5a575 575 0 0 0 25-15q1-.7 1.6-1.8c1.8 0 4.3-1.4 5-3 1.9.1 4.1-1.4 5-3q1.4.3 2-1c1.4-.2 4.5-1.7 5-3 1.5.4 2-1 3-1.9.7.1 2.8-.4 1.5-1.2q-1.2 0-1.4 1.2-2.2 0-3.2 1.8c-1.3-.1-4.4 1.8-4.9 3.1q-1.4-.2-2 1-3 .5-5 3a7 7 0 0 0-5 3c-2.1-.3-8.1 4.2-10.4 5.2q-.9.7-1.6 1.5l-2 .7-13.7 8q-20.7 11.7-41 24-5-8-9.1-16.3 2.8-.3 4.6-2.4.8 0 1.5-.7l3-1.7 4-2.4 1-1a9 9 0 0 0 3.4-2.2q1 0 1.7-.6l1.7-1 1.2-.8q2-1 3.4-2.7 1 0 1.7-.6l6.6-4 1.3-.7q1.9-1 3.5-2.6.8 0 1.4-.7a14 14 0 0 0 3-1.7q2-1.1 3.6-2.5l1.6-.7L93 331l1.2-.8 3.1-1.9.7-.5 1.3-.7 3-1.8q2-1.4 4-2.4l1-.8 1.8-1 1.2-.8.7-.7q.8 0 1.4-.6l1.6-1 1.2-.8 3.1-1.9.7-.6q.8-.2 1.3-.6l3-1.8 5-3.2 1.8-1 1.2-.8.9-.6 1.2-.6 1.7-1 1.2-.8 3.6-2.5q.8-.2 1.4-.7l3-1.8 3.9-2.6c6.4-1.6 33.1-3 41.2-2.7 30.7.4 22 19 19 40.8q-.3 21.6-1.6 43.2Zm13.8-33.1.1-1.9q7.2-4 14.3-8.5 1-.5 1.8.1c.2 1.4-2.2.8-3 1.7l-9.9 7q-1.5 1-3.3 1.6Zm-.7 15.3V356q4.8-2.1 9-4.7c1.1-.6 4.4-3.8 5.7-2.8L222 359.2q-1 .7-2 1ZM277 352c-1 0-2.7.4-3 1.5 1 1.4 2.4-.8 3-1.5.6.1 2.8-.4 1.5-1.2q-1.2 0-1.5 1.2Zm115.8 4q.8-.1 1.1-.7-.9-.3-1.1.6Zm-134.4 33.6q.8 2.3.8 4.5a86 86 0 0 0-9.1 5.3q-1 .5-1.7 0 4.8-5 10-9.8ZM92.9 395q-1.3-.2-1.9 1c-1.6.2-4.4 1.4-5 3.1a6 6 0 0 0-5 2.9c-1.6 0-12.5 5.6-11.6 7 1.2.2 11.5-5.7 11.5-7 1.9.1 4-1.5 5.1-2.9a8 8 0 0 0 5-3.1c.7 0 2.1.1 2-1a10 10 0 0 0 5-2.6c-1.3-1.6-4.8 1.6-5 2.6Zm131.9 16.2c-1.2-.4-1.7-4.3-1.8-5.4q6-3.2 11.7-6.5.8-.4 1.3.1-5.4 6-11.2 11.8ZM97.1 404q-1.5-.4-2.2 1-2 .2-2.9 2c-.7-.1-2.2-.1-1.9 1q-2.3 0-3 2.1-1.5-.4-2.1.9c-1.4 0-4.4 1.5-5 2.7.8 1.4 4.6-1.5 5-2.7a2 2 0 0 0 2-.9q2.2-.3 3.1-2.1 1.3.2 1.9-1 2.2 0 3-2 1.5.3 2-1c2.1-.2 5.3-2.4 6.9-3.7-.5-1-6.8 2.4-6.8 3.6Zm163.7 4q.3 2 0 4.1l-5.5 3.5c-1.3.8-1.5-.6-.5-1.3zm126 1.2c.3-.1 1.8-.5.7-1q-.7.2-.7 1Zm-153 17.7a14 14 0 0 1-5-5.7q7.8-4 15.1-8.8.9-.7 1.8-.1c-3.8 4.4-8.9 9.7-11.9 14.6Zm37.4-7c1 2 3.9-.6 4.7-1.6-.8-1.2-3.6 1.6-4.7 1.7Zm-57.5 0c7 11 11.2 15.3 24 19.3q.5.3.2.8l-1.9.7-64.6 37.3q-.8.6-1.3 1.3c-3.5-.4-6.9-2.6-10.3-3.6l-9.5-4.4q-1-.4-1.1-1.5 1.2.6 1.7-.7 2-.4 3.1-2.2c.5.3 2.8-.2 1.6-1a2 2 0 0 0-1.6 1q-2.2 0-3 2.2-1.2-.3-1.8.7c-2.4.8-7.2-3-9.6-4a1 1 0 0 1-.4-1q.8 0 1.5-.5l53.2-33q-.2-.7-.9-1.2 6-3.3 11.7-7.1.5 1 1.5 1c2.8-1.1 4.4-3.4 7.5-4Zm16 84.4h7.6q.4.1.4.6-.3.7-1.2 1-4 1.5-6.8-1.6Zm33.3 1.3c-3 1.7-5.4 2.7-8.5.5 1.3-1.5 6.6-.8 8.5-.5Z"/><path fill="#272626" stroke="#272626" stroke-width=".5" d="M235 6q.3 1 1.5.7c1.3-.2 3.6.6 4.5-.7q6.4.3 12.8 0 3.2.6 6.5 0c3.6.4 19.5 2.3 21.7 1 .4 1.5 5 1.3 6.3 1 3.9 1.2 9 1.5 13.1 2.1-.2 1 5.1.8 6 .9 4 .9 9.4 2.3 13.4 2.3.4 1 2.4.7 3.3 1 113.3 26.6 185.6 129.6 183 244.3l.1 3.8c-.3 11-1.2 21.2-3 32.1q-.7 3-.5 6.2a2 2 0 0 0-.7 1.3l-2.2 9.9q-1 2-.8 4.4l-6.2 22.5q-.6.4-.8 1.2a242 242 0 0 1-187.6 162.7q-5 .2-10 1.3c-1.4.1-4-.7-4.7.8-3.4-1.5-22.7.6-27.7.8-1.9-.3-7.2-1-8.5.5-1.4-1.6-14-1.2-16.8-1.2q0-.5-.4-.6h-7.6q-8.7-1.4-17.4-2a14 14 0 0 0-6.6-1c-5.9-1.1-13.6-3.5-19.4-3.5q-.7-.8-1.6-.8c-52.3-14-93.5-38-127.6-80.5C27 377.6 12 335 6.3 286.5Q6 278 5.1 269.3q.3-1.2.1-2.4L5 254.3q.4-1.8 0-3.6 1-7.8 1.2-15.6.1-1.7-.2-3.4l.1-.6q.9-.5.6-1.4 1-5.8 1.3-11.7c1.2-.7.9-3.9 1.2-5.1.3-4 3.4-14.6 3-17.8 1.2-.2 1-2.5 1-3.4 1.8-4 2.9-9.4 4.2-13.8q.8-1.5.8-3l-.3-.7q1-.3 1.1-1.4C46 90.3 110.6 28.3 196.7 11.4q9-1.4 17.9-3.3 1.4.1 2.7-.2c3.4-.4 15.7-.6 17.8-2Zm-49.9 17.7a84 84 0 0 0-19.9 6.5q-1.4-.5-2 1c-5.9 1-28.4 12.8-34.7 16.8A230 230 0 0 0 47 135q-2.4 3.6-3.7 7.8c-2.2 4.6-5 10.5-6.2 15.4l-.3 1q-1 1-1.5 2.6-2.7 7-5 14L30 177q-1 2-1 4c-2 3.8-3.5 9.1-4 13.4a52 52 0 0 0-2.7 9.5c-.7 3.6-2.5 9-2.2 12.5a9 9 0 0 0-1 5.4 52 52 0 0 0-2.1 12.5q-.8 3.8-.8 7.5a147 147 0 0 0-.9 17q-.6 6 0 11.7a103 103 0 0 0 1 16.3q.2.6.8.7c-1.9 1.5 0 5.2 0 7.3q1 9 3.1 18 .4.6 1 .6a3 3 0 0 0-.2 3.7c1.3 4.6 3.1 13 5.1 17l.2 1.4q.6 2.4 1.6 4.7 1.5 4.6 3.4 9.1l1 1.7q1.3 4.3 3.4 8.2l2.5 5q4 8.4 9 16.2.3 1.2 1.5 1.4c.3 1.8 3.7 8.2 5.5 8.1q-.2 2.1 1.7 3c.4 2.1 3.7 5.8 5 7.5q.8 1.1 1.8 1.6 1.3 2.7 3.3 4.7 10 11.8 21.4 22.5.8.8 2 .9.1 1.5 1.4 2 4 3.6 8 6.8c1.2.9 2.7 2.8 4.2 3 .2 1.3 6.9 5.3 8.1 6.5l5.7 4q9 5.8 18.3 11.2 1.8 1.3 4 1.4 0 .6.5 1c2.4.9 7.2 4.7 9.6 3.9q0 1 1.1 1.5l9.5 4.4c3.4 1 6.8 3.2 10.3 3.6 1.1 1.3 3.3 1.7 5 1.8 2 1.9 9 3.5 12 4.3q1.5.8 3 .5 0 .6.6.8 5.5 1.6 11.4 2.7 4.6 1.8 9.5 2.3h1.5c3.5 1.7 9 2 12.9 2.6q1.4 1 3 .7 3.4.1 6.8.8a167 167 0 0 0 23.8 1.2q10 .3 19.7-.1 6.3 0 12.5-1.2 12.8-1.2 25.5-4 .6.2.5-.3l1.5-.5c5-.1 21.2-5.3 26.7-7.6l1-.6a203 203 0 0 0 65.2-38q2-.4 1.6-2.4l1.4-.4q.6-.3.8-.8c4.7-3.6 29.4-29.3 28.8-33.2q1 0 1.5-1a36 36 0 0 0 4.9-6.8c2.3-3.4 10.8-15.7 10.7-19.2q.9 0 1.2-.9c.5-1 2-2.5 1.5-3.7 3.4-4.6 5.9-11 8.1-16.3l.3-1a191 191 0 0 0 8.2-22q1.9-4 2.6-8.6a77 77 0 0 0 4-16 43 43 0 0 0 3.2-12.8 12 12 0 0 0 1-5.3q3.5-17.4 5-35.3l.1-3c-.3-6 0-15.3-1-21v-1c-.1-1.3.3-6.1-.8-6.8q.2-5.3-1.3-10.5.3-2.4-.7-4.7-.3-4.2-1.4-8.5 0-1-.8-1.2.3-1.5-.5-3c-2-11.6-7-26.7-11.8-37.6a2 2 0 0 0-1-1.4c-.5-2.2-2-7.5-4-8.5q.2-1.6-.9-3c-1-2.2-3.2-7.4-5-8.8q0-1-.6-2-4.4-7.8-9.5-15.3c-1-1.1-2.2-4.5-3.8-4.3-.1-2.1-3.5-6.6-5.2-7.7q-.3-1.5-1.8-1.7c0-2.2-3.8-5.4-5-7.4q-1.6-2-3.7-3.5c-3.3-4.7-9.2-10-13.5-14a3 3 0 0 0-2.8-2c0-1.6-12.6-12.3-14-12.8a28 28 0 0 0-6-4.4 27 27 0 0 0-8.1-5.7c-1.1-1.3-4.8-4.4-6.6-3.9-.7-2.2-6.1-4.5-8.2-5.7a11 11 0 0 0-5.3-2.5c.2-1.5-8.5-5.2-10.2-5.2q.2-.5-.2-.9l-5.3-2.8h-1.8c-.3-1.4-8.6-4.3-10.3-4.6a9 9 0 0 0-4.8-1.9 35 35 0 0 0-11.3-4 164 164 0 0 0-28.6-7.7q-6.4-2-13.2-2.4a10 10 0 0 0-5.8-.4q-.6-1-1.8-1L267 15q-5.6-.4-11.2-.1-.5-.7-1.4-.5-33.8-.5-66.5 8.1-1.6.4-2.8 1.2Zm-5 90.5q1.2.6 2.6.5 27.1.8 54.3-1l1 .4 2.6-.1 26.4.7c6.8 1 12.6 1.5 19 4l1 .5q.2.7.8 1a160 160 0 0 1 13 8.5q.9 1 2.2 1.1c3.4 4.4 23.3 14.2 29.9 8.2q1.4 0 2.1-1c.6 0 1.9.1 1.8-.7 13.5-4.7 28.5-2.6 42.5-2.6q3.6.6 7.3.3l21.7.2q2.6 1.3 4.7 3.3 1.5 1.5 2.3 3.8.2.4.7.4a11 11 0 0 0 .1 5 467 467 0 0 0 0 23 312 312 0 0 0-.2 27.3l.1 47.7-.2 14.4.1 2-.1 15 .2 3.7c.8 11.1-3.2 19-14.6 21l-26.2.6c-15.5.3-33.4 3.4-47.2-5.5-5.4-1.2-28.3 6.7-33.4 11.3-45.9 31.1-1.2 103-35.6 127.3a35 35 0 0 1-18.3 5.4c.2-1.4-2.3-.3-2.8.1q.2-.5-.3-.8c-12.7-4-17-8.3-24-19.3a180 180 0 0 1-5.8-27.7c0-3.6-.2-11-1-14.2q1.3-21.6 1.6-43.2c3-21.8 11.7-40.4-19-40.8-8-.4-34.8 1.1-41.2 2.7q-1.5-.8-3-.4c-12.5 0-23.8.2-35.2-5.9h-1.2q.1-.9-.5-1.2l-1.2-.4A39 39 0 0 1 95.9 272a27 27 0 0 1 6-17.8q2.7-3 5.8-5.8a1 1 0 0 0-.4-1.2 86 86 0 0 1-6.4-5.4l-1-2q-3-5.2-3.4-11.2 0-.5-.5-.8l.2-.8q.6-1.8.5-3.6 2.6-14.4 15.9-20.3a1 1 0 0 0 0-1.2q-1.5-1.6-3.4-2.7c-1.7-4-4.2-7.8-4.1-12.4q0-1.3-.4-2.5 1.5-11.5 9.5-19.9l3-2.3 1-.6q4.3-2.2 9-3 .6-.3.6-1l-4-7.6q-1.6-4-2.8-8.1l.1-.8q0-1-.3-1.8c7-25.8 37.3-26.4 59.3-25ZM152 125h-3c-10.8-.7-17.5 10.2-13.4 19.9.6 1.8 1.3 4 3 5.1a14 14 0 0 0 9.2 6.4c2.4 1.2 4.7.5 7.1 2.4 2.5 9.4-9.7 8.1-15 8.1a6 6 0 0 0-4 .3q-1.4-.8-2.6 0c-11.7-1.7-19.6 11.4-14 21.9a14 14 0 0 0 4.5 6.1q4.5 4.7 11 4.7l1.4.3q.7.8 1.7.6c1.7 9.7-7.2 8.7-13.7 9.1-18.8.3-20 25-6 30.2q.6.9 1.8 1.2c3 2 9.5.4 10 4.7q-.8 3-3.2 5l-1.4.6c-7.5 1.4-13.6 3-15.5 11.3q-.7 1.5-.7 3.1a18 18 0 0 0 2.3 10.2c1.5 2.7 3.7 5.7 6.6 6.9q.6.6 1.4 1 1 1 2.3.7c3.2 1.4 11.6.6 15.1 1l2.1.2q9 .1 18-1 4 0 8-.3a270 270 0 0 1 25-.7q7.5.6 14.9 1.7l8.2 3c2.6 2.2 5.1 3.7 7.2 6.4q1 2.4 2.6 4.2 1.2 5.3 1.2 10.7l-1 8q-1.5 6-1 12l-.1 1c-1.5 3.8-1 8-1.3 12q-.2.9-.1 1.9-.7 5.5-.6 11.2v4a170 170 0 0 0 3 45.7c.1 1.1.6 5 1.8 5.4 0 3.3 2 7.4 4 10 1.1 2.2 2.9 4.5 5 5.7 10.5 7.4 27.8-.8 27-14.8q.3-2.1 0-4.2c-.1-3.6-.5-10.7-1.7-13.7q0-2.3-.7-4.5c-2.2-18.1-1-33.2 3.7-50.8q1-1.3 1.1-2.9.4-.3.4-.8a72 72 0 0 1 62.5-49.6q.5-.6.4-1.3l.2-30.2v-87.4q.1-1.5-.4-2.9c.8-2.8.3-8.7.3-11.8v-.9q0-1-1-1.1a96 96 0 0 1-12.5-1.2c-.2-.8-6.8-2.6-7.8-3.5a207 207 0 0 1-11.3-6.7c-4.7-3.1-10.7-9.4-16-11a3 3 0 0 0-2-1q-1.2-.4-2.6-.6c-2.5-1.2-5.7-1.2-8.3-1.7a158 158 0 0 0-17.2 0h-33.8q-5.6-.3-11-.2-8.6-.2-17.1 0h-14q-10-.2-20 .9Zm220 13.9-.9.2c-4.5-.8-15.5.6-20.6 1q-5.4-.2-10.8-.8-1 .8-.9 2.2l.3 16.6.1.8q-.2 1-.1 2.3-.3 7.5.1 14.9-.3 2 0 4-.3 7 0 13.9v1a1243 1243 0 0 0-.1 40.1v5.8q-.3 6 0 12-.2 2.7-.1 5.2v28q-.8 4.8 2.9 8c4.2 2.5 9.3 2.8 14 1.8q3.4 1 7-.1a413 413 0 0 0 27 0q2 .4 4 .3l7.6-.1q1.2 0 2-.6-.6-.7-.5-1.9.4-17.9.5-35.7.3-2-.4-4 .6-.9.1-1.9.7-7 .4-14.1v-1.6l.1-30.3v-6a292 292 0 0 0-.2-16.8l-.7-35.1c0-4.3.2-5.2-3.8-6.8a48 48 0 0 0-21-2.5 8 8 0 0 0-6 .2Z"/><path fill="#dc4752" fill-opacity=".7" d="M295.4 504c-.4 1.5-3.6.9-4.7.8.8-1.5 3.3-.7 4.7-.8"/><path fill="#e07f86" d="M263.6 335.2q0 .5-.4.8 0-.5.4-.8m-.4.8q-.2 1.5-1.1 2.9c-1.4.5-4.4 3.5-5.8 2.5q0-.6.6-1z"/><path fill="#dd676d" fill-opacity=".6" d="M276 126.6a3 3 0 0 1 2 1l-3 1.2q-.4-1.5 1-2.2"/><path fill="#dd4753" fill-opacity=".3" d="m327.3 29.3-1.3.7q.3-1.1 1.3-.7M341 48q-.1 1-1.2.8zm28 2q-.3 1-1.2.8zm-61 2q-.2 1.1-1.3.7zm-41 6q-.1 1-1.2.8zm18.3 11.3-1.3.8q.1-1.1 1.3-.8m-29 1-1.3.7q.3-1 1.3-.7M241.9 74q0 1.1-1.2.7zm116.4 6.3q-.6.5-1.3.7.3-1.1 1.3-.7m-75 9-1.3.8q.3-1 1.3-.8m91 0-1.3.7q.2-1.1 1.3-.7M362 90q-.1 1.1-1.2.7zm-32 1q-.3 1-1.2.8zm-92.2 22 .2 1.1-1-.3zm-127.6 35.3-1.2.7q.3-1 1.2-.7m-73.1 9.9.9-.2q-.1 1-1.2 1.2 0-.6.3-1M58 175q-.3 1-1.3.7zm43.3 14.3-1.3.7q.1-1.1 1.3-.7M74 201q-.3 1-1.3.7zM6 231.7q.3 1.7.2 3.4c-1.6.2-1.8-2.7-.2-3.4m40 4.3q-.2 1.1-1.3.7zm49 6q-.3 1.1-1.3.7zm-10.7 11.3-1.3.7q.3-1 1.3-.7m365 8-1.3.7q.3-1.1 1.3-.7M24 283q-.3 1-1.3.7zm24 39q-.3 1.1-1.3.7zm52 0q-.2 1.1-1.3.7zm-51.7 6.3-1.3.7q.3-1.1 1.3-.7m25 15-1.3.7q.3-.9 1.3-.7m335 36-1.3.8q.2-1.1 1.3-.8M193 384q0 1.2-1.3.7zm-1.7 22.3-1.3.7q.1-1 1.3-.8m-56 16-1.3.7q.3-1 1.3-.7M150 425q-.3 1.1-1.3.7zm142 31q-.3 1-1.3.7zm-53 12q-.3 1.1-1.3.7zm-14.8 16.2-1.2.8q.2-1 1.2-.8"/><path fill="#dc4853" fill-opacity=".5" stroke="#dc4853" stroke-opacity=".5" stroke-width=".5" d="M251 448c.1-.7 1.3-1.6 1.9-.7a2 2 0 0 1-1.9.7Z"/><path fill="#df4853" fill-opacity=".3" stroke="#df4853" stroke-opacity=".3" stroke-width=".5" d="M160 329c.1 1-1.3 1-2 1q.6-1.3 2-1Z"/><path fill="#dd4752" fill-opacity=".5" stroke="#dd4752" stroke-opacity=".5" stroke-width=".5" d="M335 327c.1 1-1.4 1.7-2 .7a2 2 0 0 1 2-.7Zm84 78c-.3 1.2-1.9 2.7-3 1.6.3-1.1 2-1.4 3-1.7Zm-6-98c-.2 1.1-1.9 2.8-2.9 1.6q1-1.5 2.8-1.6Zm22 38c.1 1-1.4 1.6-2 .7q.8-1 2-.7ZM97 404c0-1.3 6.4-4.8 6.9-3.7-1.6 1.3-4.8 3.5-6.8 3.6Zm233 11.9a3 3 0 0 1 2.6-2c1.4 1-1.9 2.2-2.6 2Z"/><path fill="#dd4752" fill-opacity=".6" stroke="#dd4752" stroke-opacity=".6" stroke-width=".5" d="M484 252c-.6 1-4 4-5 2.6 1.2-1.1 3.2-2.8 5-2.6Z"/><path fill="#dd4752" fill-opacity=".5" stroke="#dd4752" stroke-opacity=".5" stroke-width=".5" d="M464 193c-.7 1-4.1 4.1-5 2.6 1.1-1 3.2-2.8 5-2.5ZM193 370c.1-1 4.2-3.9 5-2.7-1.2 1.2-3.1 2.8-5 2.6Z"/><path fill="#dc4951" fill-opacity=".3" stroke="#dc4951" stroke-opacity=".3" stroke-width=".5" d="M174 69q-.9 2-3 2 .7-2 3-2Z"/><path fill="#fffefe" stroke="#fffefe" stroke-width=".5" d="M172 124q-6.4 7.8-13.3 15-.7.7-.5 1.7c4.2-2.5 26.1-14.2 27.8-16.7l17 .1q-.5.8-1.2 1.1l-54 31.2q-6-1.2-9.2-6.4l1.1-2q4.4-4.5 8.1-9.5c-.6-.8-1.2 0-1.8.2q-5.3 3-10.4 6.2c-4-9.7 2.5-20.5 13.5-20q-.8 1-.4 2.3c.9-.3 3.2-1.2 3.3-2.2q9.8-1 20-1Zm42.1.4q8.6-.3 17 0l-1 1.1c-14.9 11-30 23.4-45.2 33.9q-1.8 1.5.5 1.2l62.5-36.3a158 158 0 0 1 17.2 0l-94.2 55q-1.2 0-2.3.6l-4.5 3-2 .7q-1.7.9-3 2.4-1.3 0-1.9 1.2-2.2-.1-3.3 1.8-1.3 0-1.8 1-2 .3-3.2 2-1 0-2 .5-5 3-10.2 5.8-1.2.5-1.9 1.6-6.5 0-11-4.7l13.5-10.2.8-.6c9.3-7 21.6-18.1 31.5-23.3q.3-1-1-1-24.5 14.7-49.4 29c-5.5-10.4 2.4-23.6 14-22q-.7.6-1 1.6l-2.9 3.8q.4.4 1 .1l9-4.8q.5-.3.5-.9c5.4 0 17.6 1.3 15.1-8q29.5-17.5 59.2-34.5Zm63.9 3.2c5.3 1.6 11.3 7.9 16 11a887 887 0 0 1-36.1 22.8q-1.5 1.4.5 1.2 1.3-1.8 3.6-2 2.2-2.1 5-3l28-16.4 1.1-1q4.5 2.7 9.2 5.1a10042 10042 0 0 1-76.5 51 44 44 0 0 1-5.7 3.4q-1.4.7-2 2 .5.6 1.2.2 2.7-2 5.8-3.4.9-.5.9-1.4a7 7 0 0 0 2.7-1q40.8-23.4 81.4-47.3 6 1 12.4 1.2 1 0 1.1 1.1c-.7.2-4.6 2.1-3.2 3a6 6 0 0 0 3.2-2.1c0 3.1.5 9-.3 11.8l-31 19.6q.4.5 1 .4 2-1.1 3.5-2.5a5 5 0 0 1 2.2-.7q11.2-7 22.7-13.6 1-.5 2-.3V189l-27.4 17.5q.3.5.8.3 2-1 3.8-2.4c2.2-.7 2.8-.4 4.5-2.4l17.2-9.8 1.1-.2v12q-1 0-1.7.5a88 88 0 0 1-8 5q-.9.4-1 1.2 1 .6 2.1-.2 4.5-2.6 8.6-5.5v13a675 675 0 0 1-23.2 17c-2.2 1.8-8 4.4-9.3 6.5q.9.6 1.9 0c1.4-2 3.7-1.4 5.4-3.5 3.5-2 23-14 25.2-14v13q-12.7 9-25.8 17.5-1.5 1.2.4 1.1l1.6-1.4c8-3.7 15.7-9.3 23.9-13.2l-.1 13a802 802 0 0 1-29.9 21.4q-1.8 1.5.5 1.3 14.6-8.7 29.4-16.8l-.2 24.4q.1.8-.4 1.3l-9.6 1.6a72 72 0 0 0-53.3 48.8l-6.3 4.4q-.5.4-.6 1c1.4 1 4.4-2 5.8-2.5-4.7 17.6-6 32.7-3.7 50.8q-5.2 4.8-10 9.7.7.6 1.7.1 4.4-3 9-5.3c1.2 3 1.6 10.1 1.7 13.7l-6 6.4c-1 .7-.8 2 .5 1.3l5.5-3.5c.8 14-16.5 22.2-27 14.8 3-5 8.1-10.2 12-14.6q-1-.6-1.9 0-7.3 4.9-15 9c-2.1-2.7-4-6.8-4.1-10.1q5.8-5.8 11.1-11.8-.4-.5-1.2-.1l-11.7 6.5a176 176 0 0 1-3-45.7q1-.1 2-.9l12.6-10.7c-1.3-.9-4.6 2.3-5.7 2.9a72 72 0 0 1-9 4.7q0-5.7.7-11.2 1.8-.6 3.3-1.7l10-7c.7-.8 3-.2 3-1.6q-1-.6-1.9 0-7 4.3-14.3 8.4c.4-4-.2-8.2 1.3-12q1 .2 2-.5 4.6-3 8.8-6.2c-.4-1.2-1.5 0-2 .2L222 330q-.3-6 1-12l46.5-33c1.5-.7.7-2-.5-1.4Q246.8 297 224.1 310q0-5.4-1.2-10.7a23 23 0 0 0 4.4-2.6l41.3-29.2c-.8-.5-3.7 1.7-4.6 2L220.3 295c-2-2.7-4.6-4.2-7.2-6.3q27-19.2 53.8-38.6c.6-.7 2.9-.4 2.8-1.5q-.7-.7-1.7-.3-31.5 18.8-63.1 37.3-7.5-1.2-14.8-1.7a385 385 0 0 1 31-20.4q2-1.6-.5-1.3l-36.5 21.5q-9.6.1-19.1 1l40-26.5 3-1.7a39 39 0 0 1 5.8-4.4l1.8-.7q-1.3-.6-2.5.2c-17.8 11.4-37 21.9-55.5 32.4q-.5.4-.6 1-9 1-18 .9l2.9-2.8c-1.3-1.3-4.4 1.3-5 2.6-3.5-.4-11.9.4-15.1-1q.3-.9 1.2-1.4l16.4-10.5q.6-.6.4-1.3c1.4.6 3.5 0 2.8-2 1.1.5 2.6.7 2-1q1.2.2 2.2-.2l5.6-3.6q.5-.4.3-1 .9.2 1.3-.7 1 0 2-.5l4-3.2 1.2-.4 7.7-4.6 4-3q-.6-.6-1.2-.2c-1.5 1.2-10.3 5.4-10.4 6.8q-1.3 0-1.3 1.4-.7-.3-1.4-.1l-3.8 1.7-1 .9a5 5 0 0 0-2.4 1.9 3 3 0 0 0-2.4 1.1q-.7 0-.7.8l-1.5.2a2 2 0 0 0-1.1 1.1q-3 .5-4.6 2.9-2.8-.2-3.3 2.3-.8.9-2 1c-1.2-.8-4 1.6-5.2 2l-11.3 6.5a2 2 0 0 0-1.2 1.4c-2.9-1.2-5-4.2-6.6-6.9q2.4-1.2 4.5-2.9-.5-.6-1.3-.3a10 10 0 0 1-3.8 2 18 18 0 0 1-1.7-9l17.8-11.8q.7-.3.7-1.2a4 4 0 0 0 2-.5l51.2-34.3c3.1-.7 3-3.6 6.3-3.6q1.5-1.4-.6-1.1-1 .2-1.8.7c-17.6 11-36.6 21.7-54.7 31.8-.6-4.3-7.2-2.7-10.1-4.7q9.8-6.6 20-12.7a16 16 0 0 1 4.9-3.3q.9-1.6 2.8-1.8-1-.3-2-.2Q132 232 118 240.1c-14-5.3-12.7-29.9 6-30.2q-2.4 4.3-5 8.4.3.4.9.1A22734 22734 0 0 0 244 146.8q.7 0 1-.7 1.2 0 1.8-1 .9 0 .8-.9l1.5-.4 1-.5q1.3-.1 1.6-1.3 1.3 0 2-1 .9-.2 1.4-1 1.4.3 1.7-1 1 0 1.2-1l.5-.1q1 0 1.6-1h.8q.8 0 1-.9c1.7-.3 4.8-1.4 5-3.4l.8.1c1.7-.6 6.1-1.8 6.1-4h1zm66.2 17.2c.9-2.6 2.5-5.2 5.5-3.1 0 1.1-4.3 3.8-5.5 3Zm-5 35.3q-.3-2 0-4l12.8-7.4c2-1.3 2 .5.8 1.7q-6.3 5.6-13.6 9.7Zm11.8 30.7q1 .9 2 1.5-6.7 5.6-13.8 10.8-.3-3-.1-6 5.8-3.3 11.8-6.3Zm.9 18 1.3 1-14.2 11.1v-5.8c4.3-1.8 8.5-5.1 12.9-6.4Zm-2 18.1q1.5 0 2 1.2c-3.4 2.7-9.3 8.1-13 10l.2-5.2a114 114 0 0 1 10.8-6ZM339 274.2v-4q7-3.6 13.7-7.8.6-.2 1 .2c-4.5 4.3-9.7 7.9-14.7 11.5Zm13.2 6q-.4 1.8-.1 3.8c-2.7 2-7.2 6.8-10 8.2-1.8-2.5.5-5-.1-7.7q4.2-3 8.7-5.3 1.2-.3 1.5 1Z"/><path fill="#e5656f" fill-opacity=".3" d="M161.3 258v1l-1.3.4q0-1.3 1.3-1.4"/><path fill="#f0aaaf" fill-opacity=".7" d="M161.2 259v-1c.3-1.3 9-5.6 10.5-6.8q.6-.3 1.2.2l-4 3z"/><path fill="#dd4752" stroke="#dd4752" stroke-width=".5" d="M330 27.7c3 .5 8.8 2.3 11.2 4l-1.2.2q-.7.3-1.3.9a134 134 0 0 1-9.8 6.1l-1.2.8-.7.5q-.7.2-1.2.7l-3 1.9-2 1.1-1.1.8-.7.6-1.4.6L316 47l-1.2.7-3.1 2-.6.6q-.8 0-1.3.6l-1.8 1-1.3.8q-.8.7-1.8 1.2l-1.2.8-.8.5q-.8.1-1.3.7-.7.6-1.6 1l-1.3.8-3 2-.7.6-1.3.6-1.8 1-1.2.8-3 2-.8.6q-.7.2-1.3.7l-1.7 1q-.6.2-1.2.7l-3 2-.8.5q-.6.2-1.2.7-.7.6-1.8 1l-1.2.8q-.8.8-1.8 1.2-.7.3-1.2.8l-1 .5-1 .6q-.7.8-1.8 1.2l-1.2.7q-1.7 1.5-3.6 2.6-.7 0-1.5.6-1 .8-2 1.1l-13 8.2q-1.2.6-1.6 1.8-1.5-.3-2 1-2.1 0-3 2-1.5-.2-2 1c-1 .1-2.8.3-3 1.6 1 1.3 2.3-.9 3-1.5q1.4.2 2-1 2.1-.2 3-2.1 1.5.3 2-1c2.7-.5 12.8-7.1 16-8.7l3.8-2.6q.9 0 1.4-.7l5.1-2.7.8-.7q.6 0 1.2-.4Q275 75 277 74q.8-.2 1.3-.7l.7-.5q.8-.3 1.3-.7l1.8-1 1.2-.8.7-.2 1.3-.8 5-3 .8-.6 1.1-.6 5.1-2.8.7-.6q.8-.2 1.4-.7l8.7-5q.6-.2 1.2-.7l.7-.5q.9 0 1.3-.8l5-2.7.7-.7a2 2 0 0 0 1.3-.5l3.7-2 1.3-.8.7-.5q.8-.2 1.3-.8l5-2.7q3-1.7 5.6-3.5.9 0 1.4-.8 3-1.4 5.5-3.3.8-.1 1.4-.7 1.2-.3 1.8-1.4c1.7.3 10 3.1 10.3 4.6l-.4.4a17 17 0 0 0-3.7 2.6 3 3 0 0 0-1.5.8l-1.8 1q-.6.2-1.2.7-2 1.1-3.6 2.6l-1.5.6L341 48l-1.3.8a53 53 0 0 0-6.5 4.5 3 3 0 0 0-1.6.6l-1.7 1-1.2.8q-1.9 1-3.5 2.6-.9 0-1.6.7l-2.9 1.7a55 55 0 0 1-7 4.2l-1 1.1-3 1.7q-2 1-3.5 2.6-.9.2-1.6.7l-1.6 1-1.3.7q-3.4 2.3-7 4.4-.6.3-1 .9a36 36 0 0 0-6.6 4.2q-.8.1-1.4.8l-3 1.8-3 2-.9.5-1 .7-2 1-1 1a13 13 0 0 0-3.1 1.7q-2 1-3.5 2.6a3 3 0 0 0-1.5.6q-.8.7-1.8 1l-1.2.8L262 98l-1.2.8-.8.6q-.6 0-1.2.7l-2 1-1 1-3 1.7q-1.9 1-3.5 2.6l-1.6.7-1.7 1-1.2.7-1.8 1.2-1.2.8-1 .6-1 .7-2 1-.7.8q-27 1.5-54.3 1-1.5 0-2.6-.6c3.2-2.5 11.4-8.3 16-10.7 1.1-1 1.6.3 2.9 0l5-3.2 1-.5q.8 0 1.2-.6.8-.7 1.9-1.2.7-.2 1.2-.7l1-.4 1-.8q1.8-1.2 3.8-2l1.2-.8.8-.5q.8-.2 1.1-.8a32 32 0 0 0 5.1-2.7l.8-.7q.8 0 1.2-.6a131 131 0 0 0 12-7l5-2.7.7-.5 1.3-.8 5.8-3.2 1.2-.7 5-2.8q2.8-1.6 5.5-3.5l6.5-3.5.7-.6q.8 0 1.3-.7l5-2.7.7-.6q.8-.2 1.2-.7l4.1-2q.6-.4 1-1 3-1.3 5.5-3.3.9 0 1.5-.7l5-2.7.8-.6a54 54 0 0 0 11.8-7l1.5-.6a49 49 0 0 0 7-4l5-2.8.7-.5 1.2-.8zm48.3 22.6.8-.7c2 1.2 7.5 3.5 8.2 5.7l-1.4.6-1.2.8q-1.9 1-3.5 2.6l-1.5.6-1.8 1-1.2.8q-2 1-3.4 2.6-1 .1-1.7.6L370 66l-1.2.8q-2 1-3.7 2.4-.8.2-1.4.7l-3 1.9q-2 1-3.4 2.6-1 0-1.6.6l-1.7 1-1.3.7q-2 1.2-3.6 2.6-.8 0-1.4.7l-3 1.7-3.5 2.5q-.9.3-1.6.8l-2.8 1.8L330 91l-1.2.8q-3.5 2.3-7 4.2-.6.4-1 1l-3.1 1.7-4 2.4-1 .8-3 1.8-4 2.4-1 .8-3 1.8-3.9 2.4-1.1 1-3 1.6q-2 1.4-4 2.3l-1.1 1-2.6 1.7c-6.4-2.5-12.3-3-19-4l.4-.8a34 34 0 0 0 10-5.9l2.3-.8q4-2.7 8.4-4.8 1.8-1.5 4-2.4l1.2-.7.8-.7q.6 0 1.1-.5l5.1-2.8.7-.5 1.4-.8 4.9-2.7 6-3.4q.7-.3 1-.8l5-2.8.7-.6q.9 0 1.4-.6l5-2.8.7-.6 1.2-.6 5-2.8 5-3 .9-.6q.7 0 1.1-.7a36 36 0 0 0 5-2.7l.8-.6 1.2-.6 3.7-2 1.3-.8.7-.7q.8 0 1.4-.6l4.9-2.7q2.8-1.5 5.5-3.5l1.5-.7 5-2.8.7-.5 1.4-.7zM424.9 84c4.3 4 10 9.3 13.4 14q-1.2-.1-2.4.3-28.5 17.6-56.6 35.4c-14 0-29-2.1-42.5 2.6q-1-.3-1.8.6-.9.2-1.8 0c.2-1.7 7-4.6 8.6-5.9q.3 1 1.2 1 6.4-3.8 12.8-7.3v-.1q33.9-19.7 68-39.2.8-.5 1-1.4Zm23.9 26.7c1.7 1.1 5 5.6 5.2 7.7-4.8 2.2-31.5 19-38 23.3l-.7-.4a10 10 0 0 0-2.3-3.9 26 26 0 0 0-4.7-3.2c1-.4 2.6-.7 2.4-2.1q1.8 0 3.3-1 1.7-.7 3-1.8zm25 41c2 1.1 3.5 6.4 4 8.6q-.7-.2-1.5.3l-30.4 18.8q-5.5 3-11 6.3-.6.4-.8 1.2l-1.4.2c-6.7 2.9-9.2 8.5-16.7 9.9q-.3-6.1 0-12.3 2-.5 3.7-1.4 27-15.6 54-31.6Zm-359.6 12.8a34 34 0 0 0-9.5 19.8q-1.5-.5-2.8.6l-1.3.7-.6.4-1.3.7-5 3-.8.5-1.3.7-5 2.8-.7.6-1.3.6-5 2.8-.7.6-1.3.6-3 1.8-.6.3-1.3.7q-2.9 1.5-5.4 3.5l-1.7.8-5 2.7-.7.5q-.8.3-1.3.7L55 212l-1.3.7q-3 1.6-5.5 3.6a28 28 0 0 0-7 4q-1 0-1.5.7l-5 2.7a79 79 0 0 1-7 4.2q-3 1.4-5.5 3.3-.9 0-1.5.8-2 .9-3.7 2.2c.3-3.8.8-9 2-12.5q1 .2 1.7-.3l83.3-52q.9-.5.7-1.5c1.3-2.4 7.5-3.9 9.5-3.4Zm-5 34.7q1.8 1.2 3.3 2.7.4.6 0 1.2a26 26 0 0 0-15.8 20.3l-1-.4-1 1-5 2.7-.8.6q-.8.2-1.2.7l-5 2.7-.7.5q-.7.2-1.3.7l-3.7 2-1.3.8a53 53 0 0 0-5.6 3.6q-.8 0-1.5.6l-4.9 2.8-.7.5q-.8 0-1.3.7l-5 2.8q-3 1.8-5.9 3.3-.6.4-1 1-3 1.3-5.6 3.3l-1.6.7-5 2.7-.8.6-1.2.7-4.9 2.8a49 49 0 0 0-5.5 3.4q-.9.2-1.5.8-3 1.3-5.4 3.3-.9.2-1.6.7l-1.4 1.4q-.6-5.9 0-11.6l.7.3 1.2-.9 6.9-4.1 1.2-.8q1.9-1.1 3.5-2.5l1.5-.7 7-4.1 1-1a18 18 0 0 0 3.8-2.3q.8-.2 1.3-.7l1.7-1q.6-.2 1.2-.7 2-1.2 3.5-2.6l1.5-.6 3-1.8 3.6-2.5 1.5-.7 1.7-1 1.2-.8 5-3q.8-.7 1.8-1.2l1.2-.8.7-.6q.8-.2 1.4-.6l1.7-1 1.2-.8q1.9-1 3.5-2.6.8 0 1.5-.6l3-1.8 3.8-2.6a2 2 0 0 0 1.1-.7l1.9-1q.6-.2 1.2-.7a38 38 0 0 0 5-3.2l3.6-2.4 1.4-.6c.8-.4 3-2.1.4-2.1q3.8-2.2 7.5-4.8Zm381.9 3q.8.3.8 1.3 1 4.2 1.4 8.5-1.2 0-2.4.6L415.8 259l.2-14.3q.8.4 1.4.2 3.5-2.6 7.4-4.3c21.7-13.1 44.2-25.5 66.3-38.3ZM95.9 272c2 7 6.3 11.6 11.2 16.8q-1-.1-1.9.4-.9.2-1.6.8l-4 2-.8 1-.8.4a2 2 0 0 0-1.4.5l-1.7 1-1.3.8-1 .4-.9 1a26 26 0 0 0-5 2.6l-.8.7q-.7 0-1.2.5l-5 2.8-.7.5-1.3.8-4 2-1 1q-3 1.3-5.5 3.3-.8 0-1.5.7-3 1.4-5.6 3.2l-1.4.7-5 2.8-7 4q-2.9 1.6-5.5 3.6l-1.6.6-5 2.8-.6.6q-.8 0-1.4.6l-4.9 2.8-.8.6-.8-.3c-2-4-3.8-12.4-5.1-17q1 0 2-.6l61.3-37.6q.4-.3.4-.8 2.3-.8 4.3-2 3.2-2.3 6.9-4Zm111 106c.7 3.1.9 10.6.9 14.2h-1l-1.1.7-1.8 1-1.3.8-.6.3-1.3.7-5 3-.9.5-1.1.8a36 36 0 0 0-5.7 3.3q-.8 0-1.4.6l-5 2.8-.6.6q-.8 0-1.4.6l-4.9 2.8q-3 1.5-5.4 3.6a87 87 0 0 0-13.6 7.4l-.7.5-1.3.7-5 2.8a80 80 0 0 0-7 4.2l-5 2.8-.8.7q-.7 0-1.3.6l-4.9 2.7a37 37 0 0 0-5.5 3.6 2 2 0 0 0-1.5.6q-3 1.4-5.5 3.4-.8 0-1.4.7c-2.4.8-3.1 1.7-4.7 3.3-1.2-1.2-7.9-5.2-8-6.6q1.1 0 1.6-1 .8-.2 1.5-.6l1.9-1 1.2-.8q1.9-1.4 4-2.3.7-.4 1-1a15 15 0 0 0 3.5-2.2q.8-.2 1.5-.8a31 31 0 0 0 6.5-4.3q.8 0 1.5-.6l13-8 1.8-1 1.2-.8q1.8-1.1 3.5-2.5.9-.1 1.5-.8l3-1.7 3.7-2.3 1.3-.7q1.8-1 3.5-2.6.9 0 1.6-.6l1.7-1 1.2-.8q1.8-1.5 4-2.2l1-1 3-1.8.7-.6q.8 0 1.3-.7l3-1.7q2-1.2 3.6-2.5a3 3 0 0 0 1.5-.7l3-1.8 4.9-3 1.8-1.2q.8-.3 1.2-.8l1-.6 1-.5q.7-.8 1.8-1.2l1.2-.7a12 12 0 0 1 4-2.3l.9-.8q.8-.8 2-1.3zm.5 18 .8-.2c1.2 8.5 3.2 16 5.5 24.1-3.1.7-4.7 3-7.5 4.1q-.3-1-1.5-1a185 185 0 0 1-11.7 7l-57.9 33.5q-9.3-5.4-18.3-11.3l1.5-.2 1-.7q1.9-1 3.5-2.6.8 0 1.5-.7l1.8-1 1.2-.7a17 17 0 0 0 3.6-2.7q.8 0 1.3-.5l3-1.8q2-1.1 3.7-2.6l1.5-.6q.7-.7 1.7-1l1.2-.8 3.5-2.5a3 3 0 0 0 1.5-.8l3-1.7 3.5-2.6q.8-.2 1.4-.6l3-1.8q2-1.2 3.7-2.6.8 0 1.3-.7l3-1.7q2-1.2 3.7-2.6.8 0 1.5-.7l1.6-1 1.3-.8q1.8-1 3.5-2.4l1.5-.7 1.7-1 1.3-.8 3.5-2.5q.9-.2 1.6-.8l1.6-1 1.3-.8q3.3-2.3 7-4.3l1-.8 3-1.8q1.8-1.3 3.9-2.3zM138 451a7 7 0 0 0-5 3c-1.7 0-4 1.3-5 2.6 1 1.2 4.4-1.4 5-2.6 1.7-.3 4.3-1.3 5-3 2 .2 5.3-2.5 6.9-3.6-.6-1.2-6.7 2.5-7 3.6Z"/><path fill="#de4752" fill-opacity=".2" d="M288.9 63.9q0 1.2-1.2.8zm-8 5q-.1 1-1.2.8zm-8 5q0 1.2-1.2.8.5-.5 1.2-.7m8.4 16.4-1.2.8q0-1.1 1.2-.8m-26 15-1.2.8q.2-1 1.2-.8M327 112q0 1-1.2.8.5-.5 1.2-.8m-210.6 32.4-1.2.8q.1-1 1.2-.8m-25 16q-.4.5-1.2.8 0-1.2 1.2-.8M76 199.9q-.1 1.2-1.3.7zm3 33q-.1 1.1-1.3.7zm-31 2q-.1 1.1-1.3.7zm-27.6 21.4-1.2.8q0-1 1.2-.8m98 59q-.4.5-1.2.8 0-1.1 1.2-.8m-16.4 5.6q-.1 1.1-1.3.8zm304.4 59.5-1.2.7q0-1.2 1.2-.7M195 383q0 1.1-1.2.6zm99 72q-.2 1-1.2.7z"/><path fill="#dd4652" fill-opacity=".2" stroke="#dd4652" stroke-opacity=".2" stroke-width=".5" d="M289 44q-.3 1-1.3.7zm-16 47q-.1 1.1-1.3.7zm13.9 27 .1 1.2-1-.5zM88.3 162.3l-1.2.8q0-1.2 1.2-.8Zm-16.4 4.6q-.2 1-1.2.8zm-12 61q0 1.2-1.2.8.6-.5 1.2-.7Zm431 1q0 1.1-1.2.8zm-55.6 40.4-1.2.8q0-1.1 1.2-.8ZM38 274.9q-.2 1-1.2.8zm83.1 63c-.7 1.8-3.2 3.1-5 3.1q1.8-2.6 5-3Zm-71 13q-.3 1-1.3.8zm379.2 48q-1.9 2.7-5.1 3.2c.2-1.6 3.6-3.2 5.1-3.3ZM87.1 410a2 2 0 0 1-2.1.9q.6-1.4 2-.9Zm213.2 44.2-1.2.8q0-1 1.2-.8Zm-45 10-1.2.8q0-1 1.2-.8Z"/><path fill="#dc4752" fill-opacity=".3" stroke="#dc4752" stroke-opacity=".3" stroke-width=".5" d="M320.3 33.3q-.6.5-1.3.7.3-1 1.3-.7ZM278 50.9q0 1-1.2.8zm108 5q-.2 1-1.2.8zM268 77q0 1.3-1.2.8zm35 14q-.2 1-1.2.8zM99.3 155.4l-1.2.8q.1-1 1.2-.8ZM65 171q-.3 1.1-1.3.7zm410 4c-.7 1.7-3.2 3-5 3 .7-1.7 3.3-3 5-3ZM62 208q-.3 1-1.3.7zm-13.7 49.3-1.2.7q.2-1 1.2-.7Zm394 8-1.3.7q.3-1.1 1.3-.7Zm-15.4 3.6q0 1-1.2.8zM31 279q0 1-1.2.8.6-.5 1.2-.7Zm322.3 36.8h.9c-.7 1.7-7.4 4.6-9 6q-1.1.3-2.2.2c.6-1.4 8.6-6 10.3-6.2ZM107 318q-.3 1.1-1.3.7.6-.5 1.2-.7Zm-22 93c-.4 1.2-4.2 4.1-5 2.7.6-1.2 3.6-2.7 5-2.7Zm209.3 28.3-1.2.8q.2-1 1.2-.8Zm-167 7-1.2.7q0-1 1.2-.7Z"/><path fill="#ff8271" stroke="#ff8271" stroke-width=".5" d="m371.1 139-.2.9q-1.5 1.4-2.5 3.2 0 .7.6 1a48 48 0 0 0-11.8 10.6q-.3 1 .9.9 14.3-8.9 29-17 6 .5 11.9 2.5c-2 3.7-19.7 17.8-24.1 21.3-1.6 1.2-.4 2.2 1.2 1q13-8.2 26.7-15.4l.7 35.1c-1.8 0-19 14-21.7 16.2-1.7 1.3-.3 2.3 1.3 1.2l20.5-12.7.2 12.2a580 580 0 0 1-20 15.5c-1.3.9-.3 2.4 1.3 1.3 6-3.8 12.1-7.9 18.6-10.9v30.2c-2.9-.5-9.8 7-12.8 8.3-1 .7-1 2.2.4 1.5 3.6-2.6 9.5-4.8 12.3-8.1q.3 7-.4 14.1a3 3 0 0 0-2 1.8c-4 1.8-12.6 11-17.3 13.7-1.5 1.1-.3 2.4 1.2 1.4q9-5.7 18.4-11 0 18-.5 35.7-.2 1.1.6 2-1 .5-2 .5h-7.8c.2-.8.5-2.4-.9-2.3 1.8-1.6 3.8-1.7 3.2-5a5 5 0 0 0 2.7-4q-.3-.6-.8-.3a300 300 0 0 1-18.4 10.7q-.4.3-.6.9l-16.2-.2q3-3.2 5.4-6.8.6 0 .7-.5-.7-.3-.7.5c-1.6-.2-12 5.5-12.3 7a20 20 0 0 1-14-1.9q-.3-1 .1-2c3-1.4 7.3-6.1 10.1-8.2q7.8-6.9 16-13.3c1.5-1.1.2-2.3-1.1-1.3-3.6 3.4-13.2 6.4-14.8 10.8q-.3-1.3-1.5-1-4.6 2.4-8.7 5.3a10 10 0 0 0-3 1.6v-12c5-3.6 10.2-7.2 14.7-11.5q-.4-.5-1-.2-6.7 4.1-13.7 7.8v-12c3.6-1.9 9.5-7.3 13-10q2.8-2.5 6-4.5c1.6-1 .5-2.5-1-1.4q-3 2.3-6.5 3.8-.5.3-.5 1a114 114 0 0 0-11 6v-12l14.2-11.2q3.3-3 7-5.2 1-.7.2-1.5c-2.8.4-4.7 3.4-7.5 4.3q-.6.6-1 1.3c-4.4 1.3-8.6 4.6-12.8 6.4q-.2-6 0-12 7.1-5.2 14-10.8 3-3.3 7.1-5.6c1.6-1.2.3-2.3-1.3-1.2l-8 5.3q-6 3-11.8 6.2v-22q1.7-.6 0-1-.1-7 .1-14 7.3-4 13.6-9.6c1.2-1.2 1.1-3-.8-1.8l-12.8 7.5q-.4-7.5-.1-15a5 5 0 0 0 2.8-3.1c.6-.1 1.7-.4.7-1q-1.2-.2-1.3 1l-1.5.3-.7-.2q-.3-8.2-.3-16.6 0-1.5.9-2.2 5.4.6 10.9.8c5-.4 16-1.8 20.5-1Zm-26.9 5.8c1.2.7 5.5-2 5.5-3.1-3-2.1-4.6.5-5.5 3ZM384 234c1.8.1 15.8-9 18.6-10.3 1.4-.8.9-3.8.6-5.1q-.9-.2-1.6.4c-2.9 2.4-16.8 12.7-17.6 15Zm-12.6 52.7q-.9 0-1.3.7c.7.7 1.1-.2 1.3-.7q.5.3 1.1 0 .9-.5 0-.9-1-.1-1.1.9Z"/><path fill="#f36c65" fill-opacity=".5" d="M371.3 286.8q0-1 1.2-.9.8.5 0 .9-.7.3-1.2 0"/><path fill="#de4953" fill-opacity=".9" d="M392.9 293.7c1.4 0 1.1 1.5 1 2.4q-2 0-4-.3l.4-.7q1.4-.6 2.6-1.4"/><path fill="#de4853" fill-opacity=".9" d="M368.2 289a67 67 0 0 1-5.4 6.8q-3.5 1-6.9.1c.3-1.4 10.7-7 12.3-6.9"/><path fill="#e04c56" fill-opacity=".3" stroke="#e04c56" stroke-opacity=".3" stroke-width=".5" d="M368.2 289q0-.8.7-.5-.1.5-.7.5Z"/><path fill="#e34e55" fill-opacity=".1" stroke="#e34e55" stroke-opacity=".1" stroke-width=".5" d="M371.3 286.8c-.2.5-.6 1.4-1.3.7q.4-.6 1.3-.7Z"/><path fill="#a03238" fill-opacity=".1" stroke="#a03238" stroke-opacity=".1" stroke-width=".5" d="M104 347.7v1.3q-7.2 4.6-14.7 8.8 0-1-1-1.4l13.7-8z"/><path fill="#ab3542" fill-opacity=".1" stroke="#ab3542" stroke-opacity=".1" stroke-width=".5" d="M303.9 467q.7.3 1 1l-4.6 2.7q-.1-1-1-1.2 2.1-1.5 4.6-2.5Z"/><path fill="none" d="M89 276q-2 1.2-4.2 2l-.8-1 3.7-2q1.3-.5 1.3 1"/><path fill="#7b2532" fill-opacity=".1" stroke="#7b2532" stroke-opacity=".1" stroke-width=".5" d="M129.9 346q1 0 1.2 1c-1.3.5-3 2.1-4.3 1.8l-.8-.7z"/><path fill="#852b32" fill-opacity=".1" stroke="#852b32" stroke-opacity=".1" stroke-width=".5" d="M414 131q-1.5 1.2-3.3 1.1c-1.3-1 3.6-3.7 3.3-1Z"/><path fill="#81373b" fill-opacity=".4" stroke="#81373b" stroke-opacity=".4" stroke-width=".5" d="M413.8 442.3q.3 2-1.6 2.4-.6-2 1.6-2.4Z"/><path fill="#552f32" fill-opacity=".3" stroke="#552f32" stroke-opacity=".3" stroke-width=".5" d="M227.6 493.3q.8.7 1.4 1.7-1.6.3-3-.7.7-.6 1.6-1Z"/><path fill="#673135" fill-opacity=".6" d="M500.8 311.9c-.2 1.3.8 3.7-.8 4.4q-.4-2.4.8-4.4"/><path fill="#87383e" fill-opacity=".4" d="M507.2 258.6q1.7 1.9 0 3.8-.3-1.9 0-3.8"/><path fill="#963940" fill-opacity=".3" stroke="#963940" stroke-opacity=".3" stroke-width=".5" d="M18.2 174.9q0 1.5-.8 3c-.5-1-.8-3 .8-3Z"/><path fill="#633236" fill-opacity=".4" stroke="#633236" stroke-opacity=".4" stroke-width=".5" d="m22.6 202.1 1.4 1.4q-.7.6-1.7.3-.1-1 .3-1.7Z"/><path fill="#81363b" fill-opacity=".2" stroke="#81363b" stroke-opacity=".2" stroke-width=".5" d="M356.3 38.2h1.8q-1 .6-2.2.4z"/><path fill="#973b41" fill-opacity=".6" d="M6.8 229.7q.3 1-.6 1.4-.2-.8.6-1.4"/><path fill="#7a333a" fill-opacity=".3" d="M493.8 338.8q.2.9-.8 1.2.2-.8.8-1.2"/><path fill="#973944" fill-opacity=".4" d="M19 172.8q-.1 1-1.1 1.4 0-1 1.1-1.4"/><path fill="#693437" fill-opacity=".4" stroke="#693437" stroke-opacity=".4" stroke-width=".5" d="M317.8 491.4q.1.6-.5.4 0-.6.5-.4Z"/><path fill="#472c30" fill-opacity=".3" stroke="#472c30" stroke-opacity=".3" stroke-width=".5" d="M416 441q-.2.6-.8.9 0-.8.8-.8Z"/></svg>