<svg xmlns="http://www.w3.org/2000/svg" style="shape-rendering:geometricPrecision;text-rendering:geometricPrecision;image-rendering:optimizeQuality;fill-rule:evenodd;clip-rule:evenodd" viewBox="0 0 512 512"><path fill="#ce4545" stroke="#ce4545" stroke-width=".5" d="M478.6 203.8c-.7 4.4-1.6 11.3-3.8 15.1q-1.2.6-2.6.9-1-1.2-1 .5c-7.2 5.5-17.6 10.4-25.3 15.5-4.5.8-15.8.1-21 .2l.4-1 51.6-29.7z"/><path fill="#ce4545" fill-opacity=".3" stroke="#ce4545" stroke-opacity=".3" stroke-width=".5" d="m161 57.2-3-.2c0-1.7 3-1.5 3 .2Zm233.3 40-1.2.8q.2-1.1 1.2-.7Zm-80 1q-.6.6-1.2.8 0-1.1 1.2-.7Zm98 4-1.2.9q0-1.1 1.2-.8Zm-8.4.7q0 1.1-1.2.8zm-72.6 15.4-1.2.8q0-1 1.2-.8Zm-52.7 28.9.2 1q0 .4-.4.7-2.9 2-6.4 3.1c.3-1.6 5.2-3.8 6.6-4.8Zm64.7 14-1.2.9q0-1.2 1.2-.8ZM390 167q0 1-1.2.8zm5.4.4-1.2.7q0-1.1 1.2-.7ZM310 198.2l.2 1q-.9.8-2.1.8.5-1.4 1.9-1.8Zm95.1 1.7q-.5 1.4-2 1.2.6-1.4 2-1.2Zm3 13q-.3 1-1.3.8zm-7.7 9.4-1.2.8q.2-1 1.2-.8Zm-11.4 2.6q0 1-1.2.8zM161 227c-.8 2-5.1 3.5-6.8 5l-.2-1c.4-1.3 5.6-4.2 7-4Zm262.7 85 .4 1.3c-.6 1-5.6 4-7 3.8.4-1.8 5.2-3.5 6.6-5Zm-33 6.2.3 1.1a2 2 0 0 1-2 .7 3 3 0 0 1 1.8-1.8ZM236 340l-1 1.2-7.7 4.6-.3-1.1q.2-.5.6-.8c2-.8 6.3-4.4 8.4-4Zm-14 59c-.2 1.7-5.5 3.8-6.7 5l-.2-1.2c.4-1 5.6-4 6.9-3.8Z"/><path fill="#ce4545" fill-opacity=".3" stroke="#ce4545" stroke-opacity=".3" stroke-width=".5" d="M362.7 64q0 1-1 1zm-8.4 11-1 1q-.2-1.1 1-1Zm32.4 4q0 1-1 .9zm25 3q0 1-1 .9zm-229.6.8c-1.2 1.7-2.7 3.4-5 3 .3-1.3 3.6-3 5-3ZM59.8 87.7l.3 1q-.5 0-1 .4 0-.8.6-1.4Zm260 3.3q-.1 1-1.2 1zm51.5 4a2 2 0 0 1-1.6.7q.7-.6 1.6-.6Zm11.5 5q0 1-1 .9zm16 6q0 1-1 1zm-35.5 9.1q-.4.5-1.2.6.3-.7 1.2-.6Zm14.5 3.9q0 1-1 1zm83.6 10q-.7.6-1.6.8a2 2 0 0 1 1.6-.8ZM189 130q-.6 1.3-2 1 .7-1.2 2-1Zm166.4 5a2 2 0 0 1-1.6.7q.6-.8 1.6-.6Zm-55 1-1.3.8q.3-.8 1.2-.7Zm137.4 1q0 1-1.1 1zm-54.6 1q-.5.8-1.4.8.5-.8 1.4-.8Zm20.6 1q0 1-1.1 1zm31.6 5-1 1q-.1-1.1 1-1Zm-91.6 13q0 1-1.1 1zm25 4q-.2 1-1.1.9zM43 162a7 7 0 0 1-5.2 3q2-2.5 5.2-3Zm321.2 6q-.5.7-1.4.7.6-.6 1.4-.7Zm-47.5 6q0 1.2-1 .8zm60 1q0 1-1.2 1zm-64.4 4a2 2 0 0 1-1.5.7c-.1-1 1-.5 1.5-.6ZM147 189a4 4 0 0 1-3 2 3 3 0 0 1 3-2Zm282.8 10q0 1-1 1 .4-.6 1-1Zm10.6.1-1 1q0-1.1 1-1Zm-37.3 2a4 4 0 0 1-3.2 2 3 3 0 0 1 3.2-2Zm-100 2a4 4 0 0 1-3.2 1.9q.9-2 3.2-2Zm145.9 2.8c-.6 1.7-3.2 3-5 3 .7-1.5 3.4-2.8 5-3Zm-38.3 5q0 1.2-1 1.1zm-19 12.1q0 1-1 1zm22.2 96c.2 1.1-1.2 1-2 1q.7-1.2 2-1ZM229 395c-.7 1.3-5.4 4.3-7 4 .5-1.4 5.6-4.3 7-4Zm28 12q-.9 2-3 2 .8-2 3-2Z"/><path fill="#cd4545" fill-opacity=".3" stroke="#cd4545" stroke-opacity=".3" stroke-width=".5" d="m366.3 68.3-1.2.7q0-1.1 1.2-.7ZM154.1 70q.1-1.2 1.4-1.1c1.3.8-.8 1.3-1.4 1.1Zm189.8 6q0 1-1.2.7zm5.4 47.3-1.3.7q.2-1.1 1.3-.7Zm18 5-1.2.7q0-1.1 1.2-.7Zm-5.4.7q0 1.2-1.2.7zm33.4 2.3-1.3.7q.3-1.1 1.3-.7Zm52 6-1.3.7q.3-1 1.3-.7ZM340.7 142l.5 1.2c-2.2 1.4-6.7 4.8-9.1 4.9q0-.8.9-1.4 3.7-2.4 7.7-4.7Zm35.6 19.3-1.3.7q.3-1.1 1.3-.7Zm21.6.6q0 1-1.2.8zm-40 6q-.2 1-1.2.8zm-.6 4.4-1.3.7q.3-1.1 1.3-.7Zm95 20-1.2.7q0-1.1 1.2-.7ZM410 197a7 7 0 0 1-5 2.9 7 7 0 0 1 5-3ZM228 371q-.5 1.2-1.6 1.8l-10.2 6.1-.2-1.2q4.8-3.3 10-6 1-.6 2-.7Zm-48 16c-.7 1.9-5.2 3.6-6.7 5l-.4-1.3c1.6-1.3 5-3.6 7.1-3.6Zm74 22c-.6 1.5-7 4.9-8.8 6v-1q-.1-.6.4-.9l7-4q.6-.3 1.4-.1Z"/><path fill="#ce4545" fill-opacity=".4" stroke="#ce4545" stroke-opacity=".4" stroke-width=".5" d="M379.1 84.3q-.5.7-1.4.7.6-.6 1.4-.7Zm36.3.7q-.7.6-1.6.7.6-.8 1.6-.7Zm-80 1-1.2.9q0-1 1.2-.9Zm92.8 2.3q-.6.8-1.5.6zm5.2 1.7-1.7.8q.6-.8 1.7-.8Zm-42.2 5.2q-.6.8-1.5.8.6-.6 1.5-.8Zm-79 1q-.6.7-1.5.7.8-.6 1.5-.7Zm40.1 9.8q-.7.6-1.5.7.6-.7 1.5-.7Zm72.5 0q0 1-1.1.9zm10.6 2q-.6.7-1.6.8.6-.8 1.6-.8ZM160 110.8c-.5 1.2-4 4.2-5 2.9a8 8 0 0 1 5-3Zm173.3 6.3q-.6.4-1.4.6.4-.7 1.4-.6Zm105.3 0q0 1-1 .8zm-114 1q0 1-1 .9zm29.1 0q-.2 1-1.2.7zm51.9 0q0 1-1 .8zm-160.8 4q.6-2.2 2.8-2.2c1.8 1-2.3 2-2.8 2.1Zm185.9 0q0 1-1 .9.4-.6 1-1Zm-113.6 1q-.5.9-1.4.9.6-.5 1.4-.8Zm125 0q-.7.5-1.5.5.7-.5 1.6-.6Zm12 4.1q-.6.7-1.6.7.8-.5 1.5-.7Zm-12 12.8q-.6.6-1.4.8a2 2 0 0 1 1.5-.8Zm-46 4.3q-.5.7-1.4.7.6-.6 1.5-.7Zm-31.9 4.8-1.5.7q.6-.7 1.5-.7ZM267 155q-.5 1.3-2 1c-.1-1.1 1.3-1 2-1Zm149.4 0q-.7.7-1.6.7.6-.6 1.6-.6Zm-23.2 10.3q-.7.6-1.5.6zm-32 .9q-.6.7-1.6.8.7-.5 1.6-.8Zm-52 13q-.5.9-1.4.7.6-.4 1.4-.6Zm-227.2 9q.4-1 1.5-1.2c1.2.8-1 1.3-1.6 1.2Zm67-.1q-.6 1.3-2 1 .5-1.5 2-1Zm43 3a7 7 0 0 1-5 3q2-2.5 5-3Zm255.4 4q-.8.6-1.5.8.5-.9 1.5-.7Zm-147.5 10c.3 1.1-1.3 1-2 1a2 2 0 0 1 2-1Zm121.3 5q-.5.7-1.4.8.5-.8 1.4-.8ZM169 222a3 3 0 0 1-3 1.9 4 4 0 0 1 3-1.9ZM50 234c-.3.8-1.4 1.5-2 .6a2 2 0 0 1 2-.6Zm183 134a4 4 0 0 1-3 2q.7-2 3-2Zm54 6a2 2 0 0 1-2 1q.7-1.2 2-1Zm75.8 8q0-.6.8-.8c1 .5-.5.8-.8.9Z"/><path fill="#ce4545" fill-opacity=".4" d="M368.3 67q-.6.5-1.3.7.4-.7 1.3-.6M331 84.4q-.3.8-1.3.7.6-.5 1.3-.7m54.3 2.8q-.6.5-1.3.7.3-.9 1.3-.7m-22 7q-.6 1-1.6.8.7-.5 1.5-.7m51.7 2.1q-.3 1-1.3.8.5-.6 1.3-.8m-37 7.1q-.3.8-1.2.7.4-.6 1.2-.7m-81.8 3a2 2 0 0 1-1.5.7q.7-.7 1.5-.7m81.1.7-1.2.9q.1-1 1.2-.9m-80 1-1.2.9q.2-1 1.3-.9m96.7 1.2q-.4.8-1.4.8.5-.6 1.4-.8m56.1 1q-.3.8-1.4.8zm-54.7 1.8-1.4.8q.3-.8 1.4-.8m28 3q-.6.6-1.4.7.5-.7 1.3-.6m-14.2 1.3q-.5.7-1.5.7.7-.6 1.5-.7m-50.8 1.8-1.4.7q.5-.8 1.4-.7m-9.3 3.2q-.4.9-1.4.6.6-.5 1.4-.6m2.2.9-1.2.6q0-1 1.2-.6m18 4.8q-.6.5-1.3.7.4-.8 1.3-.7M262 128c-.4 1.2-4 4-5 2.7 1.1-1.3 3.3-2.7 5-2.7m52.4.1q-.6.4-1.4.6.6-.7 1.4-.6m83 1.9q-.5.6-1.2.7.3-.7 1.2-.7m18 2.2q-.6.8-1.5.8a3 3 0 0 1 1.5-.8m-114.3 1q-.3.8-1.3.8zm81.1 0q-.5 1-1.4.8a3 3 0 0 1 1.4-.7m22.2 11.8q-.6.6-1.3.7.4-.7 1.3-.7m-49.5 5.1q-.2 1-1.1.9zm62.3.2q-.5.7-1.4.7zm-93 2.7c-.4.6-1.4 1.7-2 .7a2 2 0 0 1 2-.7m55.8 1.3q-.3.7-1.2.7.4-.6 1.2-.7m-1.7 5.7-1.1.8q.1-.9 1.1-.8m26.1 2q-.6.6-1.3.7.4-.7 1.3-.6m-76.1 5.2q-.6.8-1.5.7zm25 4a2 2 0 0 1-1.5.7zm6 0-1 .5q.2-.7 1-.6m121.2 4.8q-.6.5-1.3.8.3-.9 1.3-.8m-102 1-1.3.8q.3-.9 1.2-.7m65.7 32c-1 1.4-3.2 3.1-5 3 .1-1.5 3.5-3 5-3M180 231c-1 .7-1.5 2.3-3 1.8q.8-1.9 3-1.8m248 51q-1.8.9 0 0m-3.4 2q.3-.7 1-.9c1 .5-.8.9-1 1M244 335q.4-1.2 1.6-1c1.3.8-1 1.3-1.6 1m-52 45q-.5 1.3-1.8 1.2.5-1.4 1.9-1.1m-2.8 27.2q-.8 1-2 1 .5-1.5 2-1"/><path fill="#ce4545" fill-opacity=".4" d="M103.7 63a4 4 0 0 1 1.7.7l-1.2.1zm50.4 7c0 1.5-2 2.8-3 1.7.2-1.2 2-1.5 3-1.7m250.2 6-1.5.8q.5-.8 1.4-.7m-65.1 3.2q-.6.7-1.5.7.7-.5 1.5-.7M354 87a2 2 0 0 1-2 1q.6-1.2 2-1m17.1 2.3q-.5.7-1.4.7.6-.6 1.4-.7m25.3 6.8-1.3.7q.3-.8 1.3-.7m-80 1q-.6.4-1.4.6.5-.7 1.4-.7m97.9 4-1.2.7q.2-.9 1.2-.7m28 3-1.2.7q.2-.8 1.2-.8m-72 4.2q-.6.8-1.6.6.7-.5 1.5-.6m46.9 3a2 2 0 0 1-1.5.7q.7-.6 1.5-.7m-.9 7.8-1.5.7q.6-.8 1.5-.8M365 127q-.5.7-1.4.7.6-.6 1.4-.7m58 0q-.5.7-1.5.6.7-.4 1.6-.6m-114 1q-.4.6-1.5.6.7-.6 1.6-.7m114.2 5.8q-.7.5-1.5.6a2 2 0 0 1 1.5-.6m-35 15.2q-.7.6-1.7.7.7-.7 1.7-.7m35 1.7q-.6.6-1.4.7.5-.7 1.4-.7m-14 4.3q-.7.8-1.6.6zm-64 4.8-1.3.6q.4-.7 1.3-.6m52 6-1.2.7q.3-.9 1.3-.8m82 2.2a2 2 0 0 1-1.6.7q.8-.6 1.5-.7m-153 2.8-1.3.7q.3-.9 1.3-.7m133.8 9q-.4 1-1.3.8zm-266.1 10q-.5 1.2-2 1 .6-1.5 2-1m247.2 2.2q-.5.7-1.5.6a3 3 0 0 1 1.5-.6m-19 12a2 2 0 0 1-1.6.6q.7-.6 1.7-.7m6.1 1.8-1.1.6q.3-.7 1.1-.6m-25 10.2q-.7.7-1.5.7.6-.6 1.4-.7M171 221a2 2 0 0 1-2 1q.5-1.5 2-1m231.3.2-1.3.6q.4-.7 1.3-.6m23 13.8-.3 1h-1.2q.3-1 1.5-1M244 335a3 3 0 0 1-2.9 2q.8-2 3-2m125.3 26.8c-.6 1.2-4.2 4.2-5.2 2.9a9 9 0 0 1 5.2-3M190 381a4 4 0 0 1-3.2 1.8q1-1.9 3.2-1.8m-3 27a5 5 0 0 1-3 2c0-1.6 1.7-2 3-2"/><path fill="#ce4646" fill-opacity=".3" stroke="#ce4646" stroke-opacity=".3" stroke-width=".5" d="m373.3 64.3-1.3.7q.3-1.1 1.3-.7Zm21.6 9.7q-.2 1-1.2.7zm-47.6 5.3-1.3.7q.3-1.1 1.3-.7ZM359 84c0 1-1.3 1-2 .8q.8-1 2-.8Zm5.4 15.2-1.3.7q.3-1.1 1.3-.7ZM293 108q0 1.1-1.2.7zm154 4q-.2 1-1.2.7zm-114 1q0 1-1.2.7zm121.4 3.3-1.3.8q.3-1 1.3-.8Zm-73 4-1.3.7q.2-1.1 1.3-.7ZM370 124q0 1-1.2.7zm-102.8 1a8 8 0 0 1-5.2 3c1-1.6 3.2-3.1 5.2-3Zm187.2 8.3-1.3.7q.3-.9 1.3-.7Zm-161 7-1.3.7q.3-1 1.3-.8Zm83 2-1.3.7q.3-1 1.3-.7Zm-44.2 5.8a4 4 0 0 1-3 2q.6-2.2 3-2Zm25.2 5.2-1.3.8q.3-1 1.3-.8Zm33 0-1.3.7q.3-1.1 1.3-.7ZM324.9 169q0 1-1.2.7zm151 1q0 1-1.2.7zM457 182q-.1 1-1.2.8zm9.3 2.3-1.3.7q.3-1 1.3-.7Zm-102 1q-.6.5-1.3.7 0-1.2 1.3-.7Zm95 3-1.3.7q.3-1 1.3-.7ZM438 194q-.3 1-1.2.8zm-19 12q-.2 1-1.2.8zm-19 12q-.1 1.1-1.3.7zm-225 16q-.7 1.9-3 2a3 3 0 0 1 3-2Zm242 83a4 4 0 0 1-3 2q.7-2 3-2Zm-28 3c-1 1.7-2.7 3.4-5 3 .5-1.5 3.6-3 5-3Z"/><path fill="#cb4545" fill-opacity=".8" stroke="#cb4545" stroke-opacity=".8" stroke-width=".5" d="M346.7 252.7c-.5 2.4-3.8 2.7-5.6 4q-1.4.4-2-.7 1.2-4.6 3.5-9c1.7-.6 3.2 4.6 4 5.7Z"/><path fill="#ce4545" fill-opacity=".3" stroke="#ce4545" stroke-opacity=".3" stroke-width=".5" d="M364 80.9c-.5 1.7-3.4 3-5 3.2.6-1.7 3.2-3 5-3.2ZM328 86q-.3 1-1.2.8zm32 10q-.2 1-1.2.8zm22.3 8.3-1.3.7q.3-1 1.3-.7Zm-80 1-1.3.7q.3-1 1.3-.7Zm98 4-1.3.7q.3-1 1.3-.7Zm-81 16-1.3.7q.3-1 1.3-.7ZM298 135q0 1.2-1.2.8zm81 0q-.2 1-1.2.8zm30.3 7.3-1.3.7q.3-1 1.3-.7Zm-80.2 7.8q-.8 1-2.2.9.7-1.3 2.2-.9Zm80.2 9.2-1.3.7q.3-1 1.3-.7ZM82 188q-.9 1.8-3 2 .8-2 3-2Zm-13 22c-.4 1.4-3.6 2.9-5.1 3q2-2.7 5-3Zm150.2 107 .8-.1q-.1 1-1.2 1zm65.8 58a3 3 0 0 1-3 2q.9-2 3-2Zm84.1 2.8a3 3 0 0 1-3.1 2.3q.9-2 3.1-2.3ZM187 383q-.5 1.4-1.9 1 .6-1 2-1Zm-2.8 27.2c-.4.6-1.4 1.5-2 .6q.8-.9 2-.6Z"/><path fill="#ce4444" fill-opacity=".3" stroke="#ce4444" stroke-opacity=".3" stroke-width=".5" d="M336 81q-.3 1.1-1.3.7zm65.3 12.3-1.3.7q.3-1.1 1.3-.7Zm-80 1-1.3.7q.3-1.1 1.3-.7ZM441 96q0 1-1.2.7zm6.4 5.3-1.3.7q.3-1 1.3-.8ZM61 107.2q.7-2 2.6-2.2c1.1 1-1.8 2.2-2.6 2.2Zm314-2.2q0 1.1-1.2.7zm16 6q0 1.1-1.2.7zm30.4 5.3-1.2.8q0-1 1.2-.8ZM346 123q0 1.2-1.2.7zm-268 2c.2 1-1.2 1.1-2 1.2q.5-1.5 2-1.2Zm342 4q0 1-1.2.7zm-33 1q0 1-1.2.7zm41.4 18.3-1.3.7q.3-1.1 1.3-.7Zm-14.4 3.6q0 1-1.2.8zm-11.6 11.3-1.3.8q.3-1 1.3-.8ZM350 173q0 1.1-1.2.7zm-205.8 18c-.6 1.5-3.7 3-5.2 3 1-1.5 3.2-3.1 5.2-3Zm163.9 9a7 7 0 0 1-5 3c.4-1.4 3.6-3 5-3Zm125.3 3.3-1.3.7q.3-1.1 1.3-.7Zm-26 15-1.3.7q.3-1.1 1.3-.7ZM239 338q-.8 1.8-3 2 .9-2 3-2Zm-8.9 32q-.7 1-2 .9.6-1.3 2-1Z"/><path fill="#ce4545" fill-opacity=".4" stroke="#ce4545" stroke-opacity=".4" stroke-width=".5" d="M354.8 69q0 1-1 1zm34.5 31q-.6.5-1.4.8.4-.9 1.4-.7Zm-80 1-1.5.8q.6-.9 1.6-.8Zm98 4q-.6.6-1.3.7.3-.7 1.2-.7Zm-45.5 8q0 1-1 1zm-35.5 8q-.6.5-1.4.7.5-.7 1.4-.7Zm71.4 2q0 1-1 1zM218 126c-1 1.6-3 3-5 3 .4-1.5 3.5-3 5-3Zm138.7 6q.5 1.3-1 1zm89 0q0 1.1-1 1zm-29.4 6.2-1.5.6q.6-.7 1.4-.7Zm-95.3.7q-.4.8-1 1.4a5 5 0 0 1-4 1.6c.5-1.3 3.6-2.9 5-3ZM272 152c-1 1.6-3 3-5 3a7 7 0 0 1 5-3Zm-194 2c-.6 1.4-3.5 3-5 3 .8-1.5 3.2-3.2 5-3Zm260.3 10-1.1.8q.1-1 1.1-.8Zm46.4 6q.1 1-1 1zm10.5 55-1 .9q0-.9 1-.9Z"/><path fill="#bf4242" fill-opacity=".2" stroke="#bf4242" stroke-opacity=".2" stroke-width=".5" d="M470.3 192.7q.8.4.6 1.2-10 5.7-19.8 11.9-1 .3-2.1 0 .3-.7 1-1l18-11.1q1-.7 2.3-1Z"/><path fill="#bd3e3e" fill-opacity=".2" stroke="#bd3e3e" stroke-opacity=".2" stroke-width=".5" d="M341 126.3q.4.8 1 1.3-9.6 5.4-19 11.2-1 .3-2 0c1.1-1.7 3.8-2.4 5.4-3.8q7.2-4.6 14.7-8.7Z"/><path fill="#ce4545" fill-opacity=".4" d="M419.3 77.1h1q-.7.7-1.6 1zM357 85q-.6 2-2.9 2.1.8-2 3-2m21.4 6.2q-.7.4-1.6.6.7-.6 1.6-.6m-74.5 10q-.5.6-1.4.6.6-.6 1.4-.6m103-.1q-.4.8-1.4.8.6-.6 1.4-.8m-36.8 9.9-1.1.7q.2-.8 1.1-.7m-80 1-1 .7q0-.9 1-.6m96 2.1q-.7.8-1.7.7.7-.6 1.6-.7m2 1.9-1.2.8q.1-1 1.2-.8m74 6.1q-.6.8-1.7.7.7-.5 1.7-.7m5.4 2.4.2 1.3-1.2-.1zm-77.4 3.7q-.7.6-1.6.6.7-.5 1.6-.6m-83 3.8-1.1.6q.2-.8 1.1-.6m55.9 13a2 2 0 0 1-1.5.9q.7-.6 1.5-.8m34.2 4q-.7.5-1.6.7.6-.7 1.6-.7m3.7 11.1q-.4.8-1.5.8.7-.6 1.5-.8m-64.8 2q-.6.8-1.6.7zm-17 13-1.1.6q.2-.9 1.1-.7m154 4.9-1.5.7a2 2 0 0 1 1.5-.7m-102 1-1.2.7q.3-.8 1.3-.7m-80.3 10a8 8 0 0 1-5 2.9c1-1.6 3.2-3.1 5-3M384 323q-.7 1.8-3 2 .8-2 3-2"/><path fill="#ce4545" fill-opacity=".3" stroke="#ce4545" stroke-opacity=".3" stroke-width=".5" d="M175.1 68h.9q-.1 1-1.2.8zm234.2 5.3-1.3.7q.3-1 1.3-.7Zm-26 15-1.2.7q0-1.1 1.2-.7Zm12.6 3.6q-.2 1-1.2.8zm-95 11q0 1.2-1.2.8zm154 4q0 1-1.2.8zm-114 1q-.2 1-1.2.8zm34.4.4-1.3.7q.3-1 1.3-.7Zm-80 1-1.3.7q.3-1.1 1.3-.7Zm98 4-1.3.7q.3-1 1.3-.7ZM192 128a3 3 0 0 1-3 2 3 3 0 0 1 3-2Zm120.3 1.3-1.3.7q.3-1.1 1.3-.7Zm90 17-1.3.7q.3-1 1.3-.7Zm-42.4.6q0 1-1.2.8zm46 10q-.2 1-1.2.8zm-73 7q-.2 1-1.2.8zm145.4 13.4-1.3.7q.3-1 1.3-.7Zm-102 1-1.3.7q.3-1.1 1.3-.7Zm-78.6 7.9.4 1c-1.8 1.4-4.8 3.7-7.1 3.9.8-2 4.9-3.8 6.7-5Zm-131.8 37.7q-.5 1.4-1.9 1 .5-1.2 2-1Z"/><path fill="#ae3c3c" fill-opacity=".2" stroke="#ae3c3c" stroke-opacity=".2" stroke-width=".5" d="M388 66q1-.2 1.8.3-1.2 1-2.8 2L372.3 77l-.1-1.1q0-.4.3-.7l9.9-6.1q2.6-1.8 5.6-3Z"/><path fill="#c74444" fill-opacity=".9" d="m218.4 279.2-1 2c-3.5.3-10.1 6.5-12.7 5.8q0-1.2.7-2c2.9-.7 10.3-7.3 13-5.8"/><path fill="#c84545" fill-opacity=".2" stroke="#c84545" stroke-opacity=".2" stroke-width=".5" d="M177.7 360.9q0 .9-.7 1.4a383 383 0 0 0-15.7 9.7 2 2 0 0 0-1.4-1.3l16-9.3z"/><path fill="#ba3a3a" fill-opacity=".2" stroke="#ba3a3a" stroke-opacity=".2" stroke-width=".5" d="M281.6 115.1q.4.9 1.5 1.3l-14.1 8.1a4 4 0 0 1-2 .5q.6-1.2 1.6-1.8z"/><path fill="#ce4545" fill-opacity=".5" stroke="#ce4545" stroke-opacity=".5" stroke-width=".5" d="M322.9 89.2q-.1.8-1.2.8.4-.6 1.2-.8Zm32.3 10q-.6.9-1.5.8.6-.6 1.5-.8Zm-232 5.7c-.5.8-2.1 2.9-3.2 1.8.3-1.3 2.2-1.5 3.2-1.8Zm233.6 11.3q-.1.9-1.1.7zm19.6 7q-.6.4-1.4.6.4-.8 1.4-.7ZM213 129c-.4 1-2 2.3-2.9 1.5q.8-2 2.9-1.5Zm80 9.1q-.3.9-1.3.6zm81.3 0a2 2 0 0 1-1.6.7q.7-.5 1.6-.7Zm-79.2 1q-.4.5-1 .5c-.4-.8.6-.5 1-.6Zm52 16q-.4.9-1.3.7zm24.9 4q-.3 1-1.3.8zm23 46.8c.2 1-1.4 1.7-1.9.7q.7-.9 1.9-.7Zm33 76c0-1.2 3.6-3 4.6-3 1.2 1-3.6 3.2-4.6 3Z"/><path fill="#b84040" fill-opacity=".2" stroke="#b84040" stroke-opacity=".2" stroke-width=".5" d="M403.9 175.2q-.1 1 .9 1.4l-13.8 8q-.7.5-1.8.3 0-.9.8-1.3z"/><path fill="#ce4545" stroke="#ce4545" stroke-width=".5" d="M466.7 125.8h1.2c1.7.8 3.4 6.4 4.2 8.2q-1.1-.2-2.1.4l-80 49.2q-.7.4-.7 1.3c-2.9 3.4-10 6-14.1 7.8q-2.4 2.3-5 4.4-4-5.7-8.5-11h1.3l1.3-.8q1.7-1.4 3.8-2.3l1.2-.7.8-.5 1.3-.7 5-2.8.7-.5q.7-.3 1.2-.8l5-2.7 5-3 .5-.6 1.5-.6 5-2.8.8-.5 1.2-.8 5-2.8.7-.5q.8 0 1.3-.6l5-2.8 5-3 .5-.6q.9 0 1.6-.6 2.8-1.5 5.5-3.4.8 0 1.4-.7l5-2.7.8-.5q.7-.2 1.2-.8l4-2 1.1-1q2.8-1.4 5.4-3.2.8-.2 1.5-.8l5-2.7.7-.6q.8 0 1.3-.7a88 88 0 0 0 12-7q3-1.4 5.4-3.2ZM174.8 349.3q3.6 1 6.9 2.5 3.3.4 6.8 0l4.5-1v1q-8.1 4-15.3 9l-1.7.6-33 19.2q-.9.4-.7 1.5c-2.2-.6-6.3-5.5-8.5-7 2.5-.4 39.7-24 41-25.8Z"/><path fill="#b73d3d" fill-opacity=".2" stroke="#b73d3d" stroke-opacity=".2" stroke-width=".5" d="M138.9 194q0 .9-.9 1.3l-13.7 8.5q0-1-1-1.4l13.7-8q.9-.4 1.9-.4Z"/><path fill="#b53e3e" fill-opacity=".2" stroke="#b53e3e" stroke-opacity=".2" stroke-width=".5" d="M424.8 187.2q0 1.2 1.3 1.2l-14 8.1q-1 .6-2 .5.5-1.2 1.5-1.8z"/><path fill="#b43e3e" fill-opacity=".2" stroke="#b43e3e" stroke-opacity=".2" stroke-width=".5" d="M282 377q-.3.8-1 1.2-6.8 4.5-13.7 8.5 0-1-1-1.3 6.9-4 13.6-8.2 1-.3 2-.2Z"/><path fill="#ce4545" fill-opacity=".4" stroke="#ce4545" stroke-opacity=".4" stroke-width=".5" d="M398.2 72.2q-.6.8-1.5.8a3 3 0 0 1 1.5-.8Zm24 8.8q-.4.6-1.2.8.3-.8 1.3-.8Zm-80 1.1-1 .7q0-.8 1-.7Zm57 8q-.6.8-1.5.8.7-.5 1.5-.7Zm-39.9 12-1.3.7q.4-.8 1.3-.7Zm-23.1 9.1q-.5.8-1.4.8.6-.6 1.4-.8Zm113 8-1.1.6q.2-.9 1.2-.7ZM245 122c.2 1-1.3 1.6-1.9.7q.7-1 2-.7Zm204.4 14a2 2 0 0 1-1.3.7q.3-.9 1.3-.7ZM316 142a4 4 0 0 1-2.9 2q.5-2.3 3-2Zm55.5 3-1.4.7q.4-.8 1.4-.7Zm-44.5 6a3 3 0 0 1-2.8 2q.6-2.1 2.8-2Zm25.5 24-1.3.8q.3-1 1.3-.8Zm102 16q-.6.6-1.3.8.3-.9 1.3-.7ZM235 367c.2 1.2-1.3 1-2 1q.6-1.2 2-1Zm71 42q.5-1 1.5-1.1c1 .8-1 1.3-1.5 1Z"/><path fill="#a33b3b" fill-opacity=".2" stroke="#a33b3b" stroke-opacity=".2" stroke-width=".5" d="m194.3 74.1 2.5.5a4 4 0 0 1-1.3 1.3L184 82.5q-.9.5-1.9.4.6-1 1.5-1.7 5.6-3 10.7-7.1Z"/><path fill="#c04545" fill-opacity=".2" stroke="#c04545" stroke-opacity=".2" stroke-width=".5" d="M172 236q-.3.8-1 1.2l-12 7.5q-.7.6-1.8.1-.7 0-1-.8l3-1.2q5.5-3.6 11.4-6.7z"/><path fill="#ce4545" fill-opacity=".5" stroke="#ce4545" stroke-opacity=".5" stroke-width=".5" d="M390.2 77.2q-.5.8-1.5.8zm-41 .8q-.4.6-1.2.7.4-.7 1.3-.7Zm57.9 7.3q-.6.8-1.4.6.6-.5 1.4-.6ZM177 86q-.6 1.2-1.8 1.7-2.4.4-.4-1.1zm272 14.2-1 .5q.2-.8 1-.5Zm-6.9 15q-.5.7-1.4.7zm-114.2 1q-.3 1-1.4.8.5-.6 1.4-.8Zm45 6q-.3 1-1.4.8zm57.3 24.8q-.4.5-1.2.8.2-.9 1.2-.8ZM43.1 162q.5-1.8 2.5-1.8c1.4.8-1.6 2.2-2.5 1.8Zm392.2 40a2 2 0 0 1-1.2.7q.3-.8 1.2-.7ZM412 320a4 4 0 0 1-3 2q.6-2.2 3-2Zm-31 5c0 .8-1.3 1.7-1.9.7q.8-.9 2-.7Z"/><path fill="#af3737" fill-opacity=".1" stroke="#af3737" stroke-opacity=".1" stroke-width=".5" d="m436.9 303.8.1 1.2-1.3 2q-5.2 2.8-10.3 5.8l-.2-.8q0-.9.8-1.3z"/><path fill="#c73e3e" fill-opacity=".3" stroke="#c73e3e" stroke-opacity=".3" stroke-width=".5" d="m298 397.8-1.1-1.3q6.2-3.3 12-7.2c.8-.3 1.5-.9 2 0q-2.3 1.5-4.5 3.4z"/><path fill="#bd4242" fill-opacity=".8" d="M203 345a2 2 0 0 1 1.7.4l-9.7 6.2q-1 .5-2 .2v-1q5.2-2.7 10-5.8"/><path fill="#b73d3d" fill-opacity=".2" stroke="#b73d3d" stroke-opacity=".2" stroke-width=".5" d="m171.7 391.1.2 1q0 .6-.4.8-4.5 2.6-8.8 5.9c-.7.5-1.4-.7-1.8-1.2z"/><path fill="#c43e3e" fill-opacity=".2" stroke="#c43e3e" stroke-opacity=".2" stroke-width=".5" d="M306 409q0 .9-1 1.5l-9.7 6.4q0-1-1-1.5l9.7-5.8a4 4 0 0 1 2-.7Z"/><path fill="#c44646" fill-opacity=".2" stroke="#c44646" stroke-opacity=".2" stroke-width=".5" d="M201.8 121q.3 1 1.3 1.4l-9 5.2q-1 .5-2.1.4.2-.9 1-1.3 4.3-3 8.8-5.6Z"/><path fill="#ce4545" fill-opacity=".2" stroke="#ce4545" stroke-opacity=".2" stroke-width=".5" d="M416.9 94.9q-.2 1-1.2.8zm-37 7q0 1.2-1.2.8zm-90 8q0 1.2-1.2.8zm40 5q0 1-1.2.8zm31.5 1.4-1.3.8q.1-1 1.3-.8Zm18 5-1.3.8q.2-1 1.2-.8Zm-81 16-1.3.7q0-1.1 1.3-.7Zm128.5 6.6q-.2 1-1.2.8zm-45 9q-.1 1-1.2.8zM73 157.1c-1 1.7-3.3 2.8-5 3.9v-1.2q2-2.4 5-2.7Zm324 62.8q-.2 1-1.2.8z"/><path fill="#ce4646" fill-opacity=".4" stroke="#ce4646" stroke-opacity=".4" stroke-width=".5" d="M403.3 92q-.4.6-1.2.7.3-.8 1.2-.7Zm-80 1q-.6.5-1.3.8.4-.8 1.4-.7Zm98 4-1.4.7q.6-.7 1.4-.7Zm-133.5 14.2q0 .9-1 .6zm52.6 2-1.3.5q.3-.7 1.3-.6Zm90 17-1.3.6q.3-.9 1.2-.7ZM313 144c0 1-1.4 1.7-2 .7q.8-1 2-.7Zm85 60a3 3 0 0 1-3 2q.8-1.9 3-2Zm-218 27q0-1.4 1.5-1.2c1.2.8-.9 1.2-1.5 1.2Zm52 162a4 4 0 0 1-3 1.8q.8-2 3-1.8Z"/><path fill="#c24040" fill-opacity=".2" stroke="#c24040" stroke-opacity=".2" stroke-width=".5" d="M227.7 119.1q.4.9 1.3 1.2l-9 5.2q-1 .5-2 .4c1.1-2 7.6-5.1 9.7-6.8Z"/><path fill="#bf4141" fill-opacity=".2" stroke="#bf4141" stroke-opacity=".2" stroke-width=".5" d="M79 190c-.5 1.5-8 5.5-9.7 6.9q-.5-.9-1.4-1.2l9-5.3q1-.4 2.1-.3Z"/><path fill="#bc4343" fill-opacity=".2" stroke="#bc4343" stroke-opacity=".2" stroke-width=".5" d="M181.9 197c-.8 2.2-7.6 5.2-9.6 6.8a2 2 0 0 0-1.4-1l9-5.4q1-.4 2-.4Z"/><path fill="#c13f3f" fill-opacity=".2" stroke="#c13f3f" stroke-opacity=".2" stroke-width=".5" d="M63.9 213c-1 2.3-7.5 5.2-9.6 6.9q-.4-.9-1.4-1.2 4.6-2.5 9-5.2 1-.6 2-.5Z"/><path fill="#cd4646" fill-opacity=".3" stroke="#cd4646" stroke-opacity=".3" stroke-width=".5" d="m420.3 82.3-1.2.7q.2-1 1.2-.7Zm-80 1-1.2.7q.2-1 1.2-.7Zm17 20-1.2.8q0-1 1.2-.8Zm9.6 6.6q-.2 1-1.2.8zm92 14q0 1-1.2.8zm-66 22q0 1.2-1.2.8zm-68.6 26.4-1.3.7q.3-1 1.3-.7Zm57.6-.4q0 1.1-1.2.8zm-31.6 4.4-.7.8h-.6q.2-1 1.3-.8ZM186.9 194c-.9 1.7-3 3.1-5 3q2-2.5 5-3Z"/><path fill="#cf4444" fill-opacity=".3" stroke="#cf4444" stroke-opacity=".3" stroke-width=".5" d="m390.3 84.3-1.3.7q.3-1.1 1.3-.7ZM404 87q-.3 1-1.3.7zm-47.7 32.3-1.3.7q.3-1.1 1.3-.7Zm18 5-1.3.7q.2-1.1 1.3-.7Zm28 3-1.3.7q.3-1 1.3-.7Zm9.7 6.7q-.2 1-1.2.8zm10 13q-.3 1-1.2.8zm-38.7 10.3-1.3.7q.3-1.1 1.3-.7Zm0 17-1.3.7q.3-1.1 1.3-.7ZM241 336.9q-.6 1.3-2 1.2a2 2 0 0 1 2-1.2Zm-56 47q-.9 2-3 2.2.8-2.1 3-2.1Z"/><path fill="#be4343" fill-opacity=".2" stroke="#be4343" stroke-opacity=".2" stroke-width=".5" d="M305.6 181.2q.5.8 1.5 1.1a84 84 0 0 1-7.8 4.5l-.2-.8c.6-2 5-3.6 6.5-4.8Z"/><path fill="#ce4545" fill-opacity=".3" d="m408.3 89.3-1.3.7q.3-1.1 1.3-.7m-80 1-1.3.7q.3-1 1.3-.7M420 93q-.1 1-1.2.8zm6.3 1.3-1.3.7q.3-1.1 1.3-.7m6.7 6.7q-.2 1-1.2.8zm-87.7 9.3-1.3.7q.3-1.1 1.3-.7m83 2-1.3.7q.3-.9 1.3-.7M285 113q0 1.1-1.2.8zm150.3 14.3-1.3.7q.3-1.1 1.3-.7M430 142q-.3 1-1.3.7zm-61 38q-.3 1.1-1.3.7zm45.3 34.3-1.3.7q.3-1 1.3-.7M177 232.9q-.5 1.3-2 1 .7-1.2 2-1m189 147.2q-1.2.9 0 0"/><path fill="#c23c3c" fill-opacity=".2" stroke="#c23c3c" stroke-opacity=".2" stroke-width=".5" d="M286.8 142.1q.3.9 1.3 1.2l-8 4.6v-1.1c1.4-2 4.6-3.4 6.6-4.7Z"/><path fill="#c14646" fill-opacity=".2" stroke="#c14646" stroke-opacity=".2" stroke-width=".5" d="M348.8 137q.3 1 1.3 1.3l-9 5q-.1-.7-.4-1.3z"/><path fill="#cd4747" fill-opacity=".2" stroke="#cd4747" stroke-opacity=".2" stroke-width=".5" d="M369 78a6 6 0 0 1-5 2.9q1.8-2.5 5-3Zm56 12q-.3 1.1-1.3.7zm-37 7q-.3 1.1-1.3.7zm-19.7 15.3-1.2.8q0-1.1 1.2-.8Zm-80 1-1.2.7q0-1.2 1.2-.7Zm17 20-1.2.8q.1-1.2 1.3-.8Zm35.6 25.6q0 1-1.2.8z"/><path fill="#c14444" fill-opacity=".2" stroke="#c14444" stroke-opacity=".2" stroke-width=".5" d="m213.7 403 .2 1.2-1 1.1-5.6 3.6a2 2 0 0 0-1.4-1.2z"/><path fill="#a63b3b" fill-opacity=".2" stroke="#a63b3b" stroke-opacity=".2" stroke-width=".5" d="m151 232-.2 1.2c-.6 1.5-4.6 4-6.2 3.8q-.4-.7.4-1.5 3-1.5 6-3.5Z"/><path fill="#d04747" fill-opacity=".3" d="M376 86q-.3 1-1.3.7zm-67 12q-.3 1.1-1.3.7zm131.3 7.3-1.2.8q0-1 1.2-.8m-18.4 2.6q-.2 1-1.2.8zm-39 8q-.2 1-1.2.8zm-61 4q-.2 1-1.2.8zm125.4.4-1.2.8q.2-1 1.2-.8m-19.4 3.6q-.2 1-1.2.8zm-114 1q-.2 1-1.2.8zm55.4 21.4-1.2.7q0-1.1 1.2-.7m57 61-1.2.7q0-1.1 1.2-.7"/><path fill="#d04747" fill-opacity=".2" stroke="#d04747" stroke-opacity=".2" stroke-width=".5" d="m370.7 76 .2 1.3q-.6 1-2 .7.7-1.2 1.8-2Zm-45.8 12q0 1-1.2.7zm62.4 13.3-1.2.8q0-1.1 1.2-.8Zm-80 1-1.2.8q0-1.1 1.2-.8Zm98 4-1.2.8q.2-1 1.2-.8Zm-19 11-1.2.8q0-1.1 1.3-.8Zm-62 5-1.2.8q0-1.1 1.2-.8Zm24.6 31.6q0 1.2-1.2.8zm25 4q-.2 1-1.2.8z"/><path fill="#ce4646" fill-opacity=".3" d="M368 91q-.3 1.1-1.3.7zm44 7q-.3 1.1-1.3.7zm7.3.3-1.3.7q.3-1.1 1.3-.7M414 113q0 1-1.2.7zm-75.6 1.3-1.3.7q.3-1 1.3-.7M306 129.9q0 1-1.2.8zm122.4 1.4-1.3.7q.3-1 1.3-.7M385 150.9q0 1-1.2.8zm-34.6 6.4-1.3.7q.3-1 1.3-.7M74 276l1-.2q-.2 1-1.4 1z"/><path fill="#b34040" fill-opacity=".7" d="M91.3 68.1q0 .4-.3.8a5 5 0 0 1-4.4 1.9l2.2-1.9q1.3-.2 2.5-.8m-4.6 2.7q-.3 1.5-1.8 1 .5-1 1.7-1"/><path fill="#cf4444" fill-opacity=".5" d="M366.3 98a2 2 0 0 1-1.3.7q.4-.7 1.3-.7M352 135.2q-.2 1-1.4.7zm55.1 2.1q-.6.6-1.5.7.7-.6 1.5-.7m-28.8 3.8q-.6.5-1.3.7.3-.9 1.3-.7m92.8 32.2q-.6.8-1.5.7.6-.6 1.5-.7m-38 24q-.6.8-1.5.6a3 3 0 0 1 1.6-.6m-19 11.9q-.5.8-1.4.7.5-.5 1.4-.7m-19.2 12q-.3.9-1.2.7.4-.4 1.2-.7"/><path fill="#cf4444" fill-opacity=".2" stroke="#cf4444" stroke-opacity=".2" stroke-width=".5" d="M37.9 165c-.5 1.8-3.2 2.9-4.6 3.9l-.4-1.2q2-2.1 5-2.8Z"/><path fill="#cf4444" fill-opacity=".4" d="M397.2 80a3 3 0 0 1-1.4.7q.5-.7 1.4-.7m-45.5 21q.1 1-1 1zm57.7 22q-.7.6-1.5.7.4-.7 1.5-.7m-119.6 17q0 1.2-1 1zm81 0q0 1-1.1 1zm19.5 30.1-1.5.6q.6-.6 1.5-.6m77.4 4.8q0 1.2-1 1.1zm-19 12.2q0 1-1 .8z"/><path fill="#aa3f3f" fill-opacity=".5" stroke="#aa3f3f" stroke-opacity=".5" stroke-width=".5" d="M195 293.2c-1.3 1.2-3.3 3-5.3 3a2 2 0 0 1 1.7-1.8q1.6-1.3 3.7-1.3Z"/><path fill="#cd4444" fill-opacity=".4" d="m361.4 71-1.7.8a2 2 0 0 1 1.7-.8m-14.1 3.3q-.7.6-1.7.6a4 4 0 0 1 1.7-.6m-3 32q-.7.6-1.6.7.7-.5 1.6-.7m0 19.7a3 3 0 0 1-1.5.8q.3-1 1.5-.8m18 5.2-1.1.5q0-.8 1-.5m28 3q-.6.4-1.5.6.6-.9 1.6-.7m-19 30-1.2.7q.3-1 1.3-.8"/><path fill="#ce4646" fill-opacity=".2" stroke="#ce4646" stroke-opacity=".2" stroke-width=".5" d="m360.3 132.3-1.2.7q0-1.2 1.2-.7ZM152.7 231l.2 1q0 .7-.7.8l-.3-1.2q.3-.5.8-.6Zm-78.4 4.2-.3.7-1.2.1q.3-1 1.5-.8ZM182 386q-.8 1-2 1 .5-1.5 2-1Z"/><path fill="#cc4646" fill-opacity=".2" d="M409 84q-.3 1.1-1.3.7zm-34 37q-.3 1.1-1.3.7zm-80 16q-.3 1.1-1.3.7zm119.3 19.3-1.2.8q0-1 1.2-.8m-92.4 14.6q0 1.2-1.2.8z"/><path fill="#cf4343" fill-opacity=".2" d="M395.9 108q0 1-1.2.7zm-45 12q0 1.2-1.2.7zm-14.5 45.3-1.3.8q0-1.2 1.3-.8m29.5 16.7q0 1.2-1.2.7zm27.5 44.3-1.3.8q0-1.2 1.3-.8"/><path fill="#ba4141" fill-opacity=".6" d="M74 78.2q-.5.7-1.4.3.8 0 1.4-.3m-1.4.3q0 2-1.8 1.2.7-.9 1.8-1.2m-1.8 1.2q0 1.2-1.1 1.3l-.4-.1q0-1.5 1.5-1.2"/><path fill="#d04646" fill-opacity=".2" stroke="#d04646" stroke-opacity=".2" stroke-width=".5" d="M244 414v1.1a3 3 0 0 1-1.6 1.8l-.4-1.2q1-1 2-1.7Z"/><path fill="#a64040" fill-opacity=".5" stroke="#a64040" stroke-opacity=".5" stroke-width=".5" d="m186.3 296.9 1.5.1a3 3 0 0 1-2.8 2q.2-1.2 1.3-2.1Z"/><path fill="#ad4040" fill-opacity=".5" stroke="#ad4040" stroke-opacity=".5" stroke-width=".5" d="M197 292a3 3 0 0 1-2 1.1q.5-1.3 2-1Zm-15.5 8.1h1.6q-.8 1.2-2.3 1.2z"/><path fill="#b04242" fill-opacity=".5" stroke="#b04242" stroke-opacity=".5" stroke-width=".5" d="m198.3 290.3 1.7-.3a3 3 0 0 1-3 2q.1-1.2 1.3-1.7Z"/><path fill="#b94242" fill-opacity=".5" stroke="#b94242" stroke-opacity=".5" stroke-width=".5" d="M203.2 286.8q.8 0 1.5.2-.4 2.1-2.7 2 .3-1.3 1.2-2.2Z"/><path fill="#b94141" fill-opacity=".8" d="M385 57.2c.7-.2 4.5-.6 4 .6-1.1.1-3.3.7-4-.6"/><path fill="#cf4545" fill-opacity=".2" d="M317 93q-.3 1-1.3.7zm52.3 72.3-1.2.8q.2-1 1.2-.8m-52 11-1.2.7q0-1.2 1.2-.7m52 6-1.3.7q.2-1.2 1.3-.7"/><path fill="#c44" fill-opacity=".2" stroke="#c44" stroke-opacity=".2" stroke-width=".5" d="M82.3 72.8q-.3 1-1.3 1.4 0-1.2 1.3-1.4Zm283.6 90.1q0 1.2-1.2.8zm-52 13q0 1.3-1.2.8z"/><path fill="#b34040" fill-opacity=".7" d="M318.1 64.7q-1 2-3.2 1.2c0-1.3 2.4-.9 3.2-1.2"/><path fill="#cc4747" fill-opacity=".2" stroke="#cc4747" stroke-opacity=".2" stroke-width=".5" d="m75.3 77-.2 1-1.1.2q.2-1.1 1.3-1.3Zm287 92.3-1.2.8q.2-1 1.2-.8Zm26 2-1.2.8q0-1 1.2-.8Z"/><path fill="#d04444" fill-opacity=".2" d="M332.9 82.9q-.1 1-1.2.8zm-30 49q-.1 1-1.2.8zm116 17q0 1-1.2.8z"/><path fill="#ce4343" fill-opacity=".2" d="m333.4 87.3-1.3.8q.2-1 1.3-.8m25.5 27.6q0 1-1.2.8zm15 62q0 1.2-1.2.8z"/><path fill="#cc4545" fill-opacity=".6" d="M386.2 368.7q-.2 1.2-1.4 1.5l-.5-.2c-.6-1 1.3-1.2 1.9-1.3"/><path fill="#ce4747" fill-opacity=".2" d="M356.9 148.9q-.1 1-1.3.8zm-1.5 5.5-1.3.7q.1-1.2 1.3-.7"/><path fill="#a84040" fill-opacity=".5" stroke="#a84040" stroke-opacity=".5" stroke-width=".5" d="M185 299q-.7 1-2 1 .5-1.2 2-1Z"/><path fill="#c94444" fill-opacity=".9" d="M183 297.2q1.6-.4 3.3-.3-1.1.9-1.3 2.2-1.4-.3-2 1h-1.5c-1.1-1.5.5-2 1.4-2.9"/><path fill="#b34242" fill-opacity=".5" stroke="#b34242" stroke-opacity=".5" stroke-width=".5" d="M202 289a2 2 0 0 1-2 1q.5-1.2 2-1Z"/><path fill="#c54444" d="M203.2 286.8q-.9 1-1.2 2.2-1.4-.2-2 1-1 0-1.7.3c-.5-2 3.6-3.1 5-3.5m-5 3.5q-1 .5-1.1 1.7-1.5-.2-2 1.2-2-.2-3.7 1.2-.3-1 .6-1.7c2-.7 4.1-3.3 6.3-2.4"/><path fill="#b24141" fill-opacity=".6" d="M278.2 97.3q-.6.6-1.6.7.6-.8 1.6-.7"/><path fill="#c74343" fill-opacity=".3" stroke="#c74343" stroke-opacity=".3" stroke-width=".5" d="m416.4 334.9-.7 1.1h-.4q0-1 1-1.1Z"/><path fill="#ca4444" fill-opacity=".4" stroke="#ca4444" stroke-opacity=".4" stroke-width=".5" d="m253.4 445-.4.9-1.3-.2q.7-.6 1.7-.7Z"/><path fill="#c44242" fill-opacity=".4" d="M84.3 72q-.3.9-1.3 1.2.1-1.1 1.3-1.2"/><path fill="#a83e3e" fill-opacity=".6" d="M79.3 74.9q-.5.8-1.4 1.1.4-1 1.4-1.1"/><path fill="#ac3e3e" fill-opacity=".2" stroke="#ac3e3e" stroke-opacity=".2" stroke-width=".5" d="m276.3 88.3-1 .8q-.2-1 1-.8Z"/><path fill="#ca4646" fill-opacity=".2" stroke="#ca4646" stroke-opacity=".2" stroke-width=".5" d="M272.2 91.1q-.3 1-1.3 1.3 0-1.2 1.3-1.3Z"/><path fill="#ce4545" stroke="#ce4545" stroke-width=".5" d="m103.7 63 .5.8-11 4.7a6 6 0 0 1-2.2.4l.3-.8 8.4-4.8q2-.7 4-.3Zm260.6 0a2 2 0 0 1-1.6 1l-1 1-6.9 4-1 1c-2 1-5.2 2.8-6.5 4.3a4 4 0 0 0-1.7.6l-1.7 1-1.2.8-3.5 2.5q-.8.2-1.5.7l-1.8 1-1.2.8L333 83l-1.2.8-.7.6q-.8.2-1.3.7l-1.7 1-1.2.8-3.1 2q-.5 0-.8.4-.7.2-1.2.8l-2 1-1 1a14 14 0 0 0-3 1.7q-1.9 1.1-3.5 2.5-.8.1-1.5.7l-1.8 1-1.2.8q-2 1.2-3.6 2.6-.8 0-1.4.6l-1.8 1-1.2.8a18 18 0 0 0-3.5 2.6q-.8 0-1.5.7l-1.8 1-1.2.7q-.7.8-1.8 1.3l-1.2.7-1 .5-.9.6-1.8 1.2-1.2.8q-1 .8-2.2 1.3l-13 8.1q-1 .6-1.5 1.8c-2-.1-4.2 1.4-5.2 3-1.7 0-3.9 1.4-5 2.7 1 1.3 4.6-1.5 5-2.7a8 8 0 0 0 5.2-3 4 4 0 0 0 1.9-.5l19.3-11.2 1-.5 1-.6q1.8-1.3 3.7-2.2.8-.3 1.3-.7l.8-.4 1.3-.9 4.9-2.7 5-3 .5-.5 1.6-.8 5-2.7.6-.6q.8 0 1.4-.7l5-2.7.6-.5 1.4-.7 5-2.8 5-3 .8-.4 1.2-.9 5-2.7.7-.5 1.1-.7 5.1-2.8.7-.6q.8 0 1.3-.7l4-2 1-.9q3-1.3 5.4-3.3l1.7-.8 5-2.7.6-.6q.7-.2 1.3-.6l3.7-2 1.3-.8q.5-.5.6-1 6.8.5 13.5 2 .6 0 .6.7-3 1.2-5.6 3l-9.9 6-.3.8-1.5.2q-1 .8-1.7 2-3.2.3-5 2.9c-1.8.1-4.4 1.5-5 3.2q-1.4-.4-2 .8-2.2.1-3 2.1-1.4-.2-2 1-2.3-.2-3 2-1.2-.3-2 .7c.6 1 2.2.2 2-.7q2-.3 3-2a2 2 0 0 0 2-1q2.3 0 3-2c.6 0 2 0 2-1 1.6-.2 4.5-1.4 5-3.1a6 6 0 0 0 5-3q1.2.4 2-.7l1.3-.3 14.7-8.5 2.8-2.1c3.4-.5 8.5 1.5 11.7 2.7q.6.3.4 1a9 9 0 0 0-3.7 2.2 3 3 0 0 0-1.6.7q-.7.7-1.7 1l-1.2.8-3.5 2.5q-.8.3-1.5.8l-2 1-1 1a50 50 0 0 0-6.6 4.2q-.8.3-1.4.8a33 33 0 0 0-6.6 4.3q-.8 0-1.4.7l-3 1.7-3.5 2.5q-.8.2-1.5.7l-3 1.9-3.6 2.4q-.8.2-1.4.8l-2 1-1 1a32 32 0 0 0-6.4 4.3q-.9.1-1.6.7a44 44 0 0 0-8 5l-1.8 1-1.2.7-1.8 1.2-1.2.8-.7.5q-.9.2-1.4.8-.9.7-1.9 1l-1 1-3 1.7q-1.9 1-3.5 2.5l-1.5.8-3 1.7-3.5 2.5q-.9 0-1.6.7l-1.7 1-1.2.8-1.8 1.2-1.2.8-.7.5-1.3.8-1.7 1-1.2.8-1.9 1.2-1.2.7-.8.5-1.2.6q-.8.9-1.9 1.3l-1 1-2 1c-2.1 1.3-5.3 2.7-6.8 4.7l-1.4.4c-1.4 1-6.4 3.2-6.6 4.8a7 7 0 0 0-5 3c-.7 0-2.1-.1-2 1-.9.3-2.7.5-3 1.6 1 1.5 2.3-1 3-1.6q1.5.3 2-1c2 0 4-1.4 5-3q3.5-1 6.4-3.1.4-.3.4-.7l1.4-.3 13.1-7.7.7-.5q.7 0 1.1-.6 1-.7 2-1l1.3-.8.7-.5 1.2-.7 3.8-2 1.2-.8.9-.6 1.1-.6 3.7-2a6 6 0 0 0 2-1.4q.6 0 1.3-.6l5-2.8 5-3 .6-.6q.8-.2 1.4-.7a64 64 0 0 0 7-4l5-2.7.8-.6 1.3-.6a32 32 0 0 1 4.9-2.8q3-1.6 5.5-3.6.8 0 1.5-.7l5-2.7.7-.5 1.3-.7 5-2.8.7-.6a2 2 0 0 0 1.2-.7 9 9 0 0 0 3.5-2.3 2 2 0 0 0 1.6-.6q3-1.3 5.4-3.4.9-.2 1.6-.6l5-2.8.7-.5q.8-.2 1.3-.7l5-2.8q3-1.5 5.5-3.5a3 3 0 0 0 1.4-.7q3-1.4 5.6-3.3l1.4-.7 5.1-2.8 1-1.1c2 1 8 3 9 5l-.6.8-7 4-1 1-1.8 1-1.9 1.3q-.6.1-1.3.6l-3 1.8-3.5 2.5-1.5.7q-.7.6-1.8 1l-1.2.8q-1.9 1.2-3.5 2.5-.8.2-1.5.8l-1.8 1-1.2.7-4 2.4-1 .8-3 1.8-.7.6q-.7 0-1.2.7l-3.1 1.7q-1.9 1-3.5 2.6-.8 0-1.5.6l-1.8 1-1.2.8-3.9 2.4-1 1a13 13 0 0 0-3.1 1.6l-.9.5-1.1.8-1.9 1-1.2.8q-.7.8-1.7 1.2l-1.2.7-.6.6q-.8 0-1.4.6-.7.6-1.8 1.1l-1.2.7q-1.8 1.4-3.7 2.6a282 282 0 0 0-14.6 8.7c-1.6 1.4-4.3 2-5.4 3.9-1.4.1-4.5 1.7-5 3q-2.5 0-3 2-1.2 0-2 .8c.6 1 2 .2 2-.7q2-.3 3-2 2.2 0 4-1.7.6-.6 1-1.4 1 .1 2-.1 9.4-5.9 19-11.2l.8-.8a3 3 0 0 0 1.5-.8l3.7-2q.8-.3 1.3-.7l.8-.5 1.2-.6q1.8-1.3 3.7-2.2.8-.3 1.3-.7l.7-.5 1.4-.7 1.7-1 1.3-.8.7-.6q.7 0 1.2-.6l5-2.8.9-.5q.6-.2 1.1-.7l3.7-2 1.3-.8.8-.4 1.2-.9 10-5.7.6-.5 1.4-.7 5-2.8.8-.5 1.3-.7 5-2.8.7-.6q.8 0 1.2-.7l5-2.7q3-1.6 5.5-3.6.9 0 1.6-.7l5-2.7.6-.5q.8-.2 1.2-.8 1.2-.4 2-1.3c3.1.8 6.6 3.8 9.2 5.5-1.9 1.2-3.6 1-5.2 3l-1.5.7-3 1.8-5 3.1L417 95l-2 1.3q-.7.3-1.2.8l-3 1.7-3.6 2.5q-.8.2-1.4.8l-3 1.7a25 25 0 0 1-3.9 2.3l-1 1-3.1 1.7-.7.5q-.9.2-1.4.8l-1.7 1-1.2.7a21 21 0 0 0-3.5 2.5q-.9 0-1.6.8l-3 1.7a19 19 0 0 1-3.8 2.3l-1 1-3.1 1.7-.7.5-1.4.8-1.7 1-1.2.7q-2 1.1-3.6 2.6-.8 0-1.4.7l-3 1.7q-1.7 1.6-4 2.3l-1 1q-1.8.9-3.6 2.2l-1.4.7q-.9.7-2 1.1l-8 5q-4 2.2-7.7 4.7-.7.6-1 1.4-2.3-.2-2.9 2-1.5-.4-2.2.9-2.2-.1-2.9 2a2 2 0 0 0-2 .7c.7 1 1.7-.1 2-.7a3 3 0 0 0 3-2q1.2 0 2.1-.9a4 4 0 0 0 3-2c2.4 0 6.9-3.5 9-4.9l9-4.9 3.7-2.6a2 2 0 0 0 1.6-.6 19 19 0 0 1 3.7-2.1l1.2-.7.9-.6 1-.5q1.8-1.2 3.9-2.2l1.2-.7.7-.6q.8-.2 1.3-.7a133 133 0 0 0 10-5.7l.7-.2 1.3-.8a40 40 0 0 1 5-3l.8-.4 1.2-.8 3.7-2 1.3-.8.7-.5q.8-.2 1.4-.8l3.6-2q.8-.3 1.3-.7l5-3 .7-.6q.8 0 1.2-.6a42 42 0 0 0 5.1-2.8l.8-.5 1.2-.7 5-2.8.6-.5 1.4-.8 5-2.7q2.9-1.5 5.4-3.5l1.7-.8q1.6-.5 2.5-1.8c2.3-.6 6.6 4.6 8.5 5.8q-1.5 1.2-3.5 2l-1.2.7-8 5.1-8 5q-.9.7-1.8 1.1l-1.2.8q-2 1-3.5 2.6-.8.1-1.5.7l-1.8 1-1.2.7q-1.9 1.1-3.5 2.6-.8 0-1.5.7l-2 1-1 .9-7 4-1 1c-1.8 1.2-5.2 2.8-6.4 4.4q-.9.2-1.6.6l-1.8 1-1.2.8q-1.9 1.1-3.6 2.6a22 22 0 0 0-7.9 5q-.7 0-1.5.6t-2 1l-1 1a58 58 0 0 0-6.5 4.3q-.8.2-1.5.8l-3 1.7-1.8 1.2-1.3.8-.8.4-1.1.9-4.8 3-1.9 1.2-1.2.7-2 1.2-1.1 1-3 1.6q-2 1-3.4 2.5l-1.6.7-1.8 1-1.2.8-3.5 2.5q-.9.2-1.6.7-.7.7-1.7 1l-1.2.8-1.8 1.2-1.2.8q-1.8 1.5-4 2.4l-1 .7q-.7.8-1.8 1.2l-1.2.7-3.5 2.6q-.8 0-1.4.6l-2.2 1.3c-1.6 1.2-5.9 2.8-6.5 4.8l-1.4.2c-1.8 1.1-6 3-6.7 4.9-1.8-.2-4 1.3-5 2.9-1.8 0-3.9 1.4-5 2.7.8 1.4 4.5-1.6 5-2.7q3-.6 5-3c2.3 0 5.3-2.4 7-3.8l1.3-.4a84 84 0 0 0 11.5-7.1 2 2 0 0 0 1.6-.6l5-2.8.8-.5 1.1-.7q1.8-1.2 3.7-2l1.3-.8.7-.5 1.3-.7 5-2.8 5-3 .9-.5 1.1-.8 5-2.7.7-.6 1.3-.6 3.7-2 1.3-.8.8-.5q.7-.2 1.2-.7l1.8-1 1.2-.7.7-.3 1.3-.8a81 81 0 0 0 7-4.2l5-2.8.7-.6 1.4-.7 5-2.7.7-.5q.8-.3 1.3-.7 1.8-1 3.4-2.3.9 0 1.4-.8 3-1.2 5.6-3.2.9 0 1.6-.7l5-2.8.7-.6q.7-.1 1.2-.7l5-2.7q3-1.6 5.6-3.6.8 0 1.5-.7 2.9-1.4 5.4-3.2.8-.3 1.5-.8a134 134 0 0 0 12-6.7q2.8-1.5 5.5-3.5.9 0 1.6-.8l5-2.7.7-.5 1.2-.8 6.9-3.8.7-.5q3.3 3.4 6.4 7.2H455l-1.3.8-3.6 2.5q-.8.3-1.4.8l-3 1.8q-1.8 1-3.5 2.4l-1.4.7q-1 .7-2.2 1.2l-1 .8-6.8 4.2-1 .9-3.1 1.7a21 21 0 0 0-3.5 2.6q-.9 0-1.6.6l-1.7 1-1.2.8q-1.9 1.1-3.4 2.5a25 25 0 0 0-4.5 2.6q-2 1-3.6 2.5-.8 0-1.5.7l-2 1-1 1a38 38 0 0 0-6.4 4.3q-.9 0-1.6.7a26 26 0 0 0-6.4 4.3q-1 0-1.7.7l-2.9 1.7-1.8 1.2-1.3.8-.7.6q-.7.1-1.2.7l-3 1.7-3 2-.7.5-1.3.8-2 1-2.8 2-1.2.7q-1.9 1.1-3.5 2.5l-1.6.8-3 1.7-3.4 2.5-1.5.7-3 1.8-2 1.5-2.7 1.3c-31.8 1.8-37.1 49.5-50.5 71.4a9 9 0 0 1-2 2.7q-3-6.2-5.9-12.8c-4.2-10.3-23-59.7-29.4-64.3-25.1-17-39.5 8-47.5 28.6a522 522 0 0 0-11.9 35.2c-2-.6-28.6 15.8-32.5 18-1.6-2.8-6.1-7.8-7-10.5q1 .5 1.7-.2l12-7.4q.7-.5 1-1.1 2.2-.3 3-2.2 1.4.3 2-1c1.6.5 2.1-1 3.1-1.8.6 0 2.7-.4 1.4-1.2q-1.3 0-1.4 1.2-2.2 0-3 1.8-1.5-.2-2 1a3 3 0 0 0-3 2.2h-1.5q-5.8 3.1-11.4 6.7l-3 1.2c-6.9-8.2-23.7-6.6-33.4-9q0-.5.6-.7 24.6-15 49-30.5c2-1.6 8.7-4.6 9.5-6.8 2 .1 4.1-1.3 5-3a7 7 0 0 0 5.2-3q1.3.3 1.9-1c.5-.2 4-1.2 2.6-2q-2.3-.3-2.6 2-1.4-.2-2 1-3 .5-5 3-3.2.5-5.1 3-1 0-2 .4l-9 5.3-53 30.7q-1 .6-.8 1.7l-43 1 .2-.8 63.7-40q.8-.4.9-1.3c1.5 0 4.6-1.5 5.2-3q2-.1 2.9-2 1.4.3 2-1c.8.3 4.2-.8 2.7-1.9q-2.1 0-2.7 1.9-1.5-.5-2 1a3 3 0 0 0-3 2c-1.9-.1-4.1 1.5-5.1 3q-1 0-2 .4l-13.7 8q-29.3 16.8-58.4 34c-6.7 0-14.6 1-21-.6-1-.7-2.2-6.5-2.5-7.9l13-8c2.1-1.7 8.6-4.7 9.6-6.9 1.5 0 4.7-1.5 5-3a9 9 0 0 0 5-2.7c-.7-1.3-4.6 1.7-5 2.8a8 8 0 0 0-5 3q-1-.1-2 .4-4.4 2.7-9 5.2-5.7 4-12 7-1 0-1-1.2l-2.1-8.6q1.1.5 2.3-.1l29.2-19c1.6-1.3 9.2-5.3 9.7-6.8q2.1 0 3-2c.4.2 2.7-.3 1.5-1q-1 0-1.6 1-2.1 0-2.9 2-1-.1-2 .4a2112 2112 0 0 0-39.3 23c-2.7-3-5-24.6-5.5-29.6 2.1.5 29.9-19.5 34.3-21.7q.7-.7 1.5-1.1c1.7-1 4-2.2 5-4 1.5 0 4.4-1.6 5-3 .8.1 4-.9 2.6-2q-2 .2-2.6 2c-1.8-.2-4.2 1.5-5 3q-3 .4-5 2.8-1.6.3-3 1.3l-33 19-.1-11.1 1.3-.1c1.5-1 4.2-2.1 4.7-4a7 7 0 0 0 5.2-2.9c1 .4 3.9-1 2.5-1.8q-2 0-2.5 1.8a8 8 0 0 0-5.2 3q-3 .4-5 2.7l-1 .4q0-6.1 1.2-12.3c2.8-.8 34.1-23.3 39.4-26.8 1-.9 3.6-1.2 3.5-2.8.7 0 2-.1 2-1.2.4-.4 4-1 2.5-2.1q-2.2 0-2.5 2-1.5-.2-2 1.3c-1.5-.1-3.5 1.7-5 2.2Q52.4 139 34 150c1.9-10.5 5-20.9 10-30.3 4-2 13.7-9.4 16.9-12.5.8 0 3.7-1.2 2.6-2.2q-1.9.3-2.6 2.2-1.3 0-2.5.7l-11.2 6.4c10-20.6 36.8-39.1 58.7-45q.4.7 1.3.4 1.6-.3 2.6-1.4 12-3.4 24.5-4c-11.4 7.5-22 16.6-33.4 24.1q-.8.5-.7 1.4-1.2 0-2 .9c.6 1 2 .1 2-.9q.9-.1 1.8-.5l41-23.9q.8-.4.8-1.3a111 111 0 0 1 31.3 3.8l-.3.9a4130 4130 0 0 0-48.6 33.9c-1 .7-3.1.6-3 2.2-1 .3-3 .5-3.2 1.8 1 1.1 2.7-1 3.2-1.8 2 0 2.1-.5 3.6-1.8q27.7-15.6 55.3-31.7.8-.4.7-1.5c2.2.4 10.5 2.4 11.5 4.2q-5.1 4-10.8 7-.8.8-1.4 1.8c-1.4 0-4.7 1.7-5 3l-2.2.7q-2 1.4.4 1.1 1.2-.6 1.8-1.7c2.3.3 3.8-1.4 5-3q1 0 1.9-.5l11.5-6.6a4 4 0 0 0 1.3-1.3q5.4 2 10.5 4.8c-13.9 8.2-28.8 19-42.7 27.8-1.5 1.3-1.5 1.8-3.7 2.3q-.8.4-.8 1.3a8 8 0 0 0-5 2.9c1 1.3 4.5-1.7 5-3l2-.2 46.8-27.2q1.3-.7 2.2-1.7 13.4 7 24.3 17.7L193 126.7q-.8.4-1 1.3a3 3 0 0 0-3 2q-1.4-.2-2 1-1.9.2-3 1.6c1 1.1 2.6-.7 3-1.7q1.5.5 2-1a3 3 0 0 0 3-2q1 .2 2-.3l9-5.2c6.7-4.5 30.6-17 35-20.8l7 7-2.6 1.2-14.7 9.3c-2 1.7-8.6 4.8-9.7 6.8-1.5 0-4.6 1.6-5 3.2q-2.1-.5-2.9 1.5c1 .8 2.5-.6 2.9-1.5 2 0 4-1.5 5-3.2q1 .1 2-.4l9-5.2q8.3-5 16.8-9.7l4.4 4.6c4.1 3.6 10.8-1.2 13.7-4.4q1 0 1-1 1 .2 2.1-.3l75-43.2q.5-.6.7-1.3 1.3.2 2.1-.8 9.7-1.5 19.5-1.2Zm-210.2 7c-1 .2-2.8.5-3 1.7 1 1 3-.2 3-1.7.6.2 2.7-.3 1.4-1.1q-1.2 0-1.4 1.1Zm168.1.2a6 6 0 0 1-3.2 3.4l-38 22q-1 1.5-2.8 1.7 0-1.2.7-1.9a138 138 0 0 1 43.3-25.2ZM69.3 80.9l.4.1q0 .5-.3.9-4.8 3.2-9.3 6.7l-.4-1c1.2-3 7-5 9.6-6.7Zm390.5 31.9c2.2.8 4.2 5.4 5.5 7.3a13 13 0 0 0-3 2.1q-1 .2-1.7.7l-1.7 1-1.2.8q-2 1.2-3.6 2.5-.7.2-1.5.7l-8 5.1-8 5-11 6.7-.7.6q-.7.2-1.2.6l-6 3.8-.6.6-1.4.7-3 1.7q-1.9 1.2-3.5 2.6-.8 0-1.5.6l-1.8 1-1.2.8-3.6 2.5-1.5.8-3 1.7q-1.8 1-3.4 2.6-.8 0-1.5.6l-1.8 1-1.2.8q-1.8 1.4-4 2.3l-1 1a61 61 0 0 0-8 5l-3 1.7a13 13 0 0 1-3.7 2.3l-3 2q-.8.3-1.3.7l-3.7 2.7q-5.1-4.9-11.4-8.3l.7-.8.8-.5 1.3-.8 5-2.7.7-.6 1.2-.6 1.8-1 1.2-.8.6-.6q.9 0 1.3-.7a33 33 0 0 0 5.9-3.1l1.3-.8 5-2.8.6-.5q.8-.2 1.2-.8l5.1-2.7 7-4 5.4-3.5q1-.2 1.7-.7l5-2.8.6-.6q.8 0 1.3-.7l5-2.7q2.9-1.6 5.5-3.5.8-.1 1.4-.7 3-1.4 5.6-3.4.8 0 1.5-.6l3.7-2 1.3-.8.8-.5 1.2-.7a37 37 0 0 1 5-2.8q3-1.5 5.4-3.7.9 0 1.6-.6l5-2.7.8-.5 1.1-.7 5.1-2.8q2.9-1.5 5.5-3.5ZM244.9 122q-1.2-.3-1.9.7c.6 1 2.1.3 2-.7.4-.1 4.4-1.2 2.7-2q-2.2-.1-2.8 2Zm228.5 15c2 5.7 4.3 12.1 4.9 18.1a5 5 0 0 0-2.3.6l-64.4 39.6q-1 .6-1.6 1.8a7 7 0 0 0-5 2.9q-1.4-.1-2 1.2a3 3 0 0 0-3 2q-1.4-.3-2 .8-2.2.3-3 2.1-1.2-.2-1.9.7c.5 1 2 .3 1.9-.7a3 3 0 0 0 3-2q1.4.3 2-1 2.1 0 3-2 1.5.3 2-1.1a7 7 0 0 0 5-3q1 .2 2-.4l14.1-8 52.9-30.8q1.4 5.2 1.4 10.5l-1.2.1q-.7.1-1.5.7l-3 1.7-3.5 2.6q-.9 0-1.5.7l-2 1-1 1a63 63 0 0 0-8 5l-1.7 1-1.2.8q-3.5 2.3-7.1 4.3l-1 .8a56 56 0 0 0-6.5 4.4 32 32 0 0 0-4.4 2.5q-2 1-3.6 2.5a3 3 0 0 0-1.5.6 6 6 0 0 1-2 1l-1 1a39 39 0 0 0-6.4 4.3q-1 .1-1.7.7l-2.8 1.9q-2 1-3.6 2.4-.8.2-1.5.7-1 .7-2 1l-1 1.1a29 29 0 0 0-6.5 4.3q-.9 0-1.4.7-1 .4-1.8 1l-4.3 2.7-.7.5-1.2.7-2 1.1q-.7.4-1 1l-3.1 1.7-2.4 1.6c-5.7-9.1-10.6-20.5-15.2-30.3q2.7-2 5-4.3c4.1-1.8 11.3-4.4 14.1-7.8q1 .1 1.8-.3l13.8-8zm-214.7 23c.2-.1 1.9-.4.9-1q-.7.3-.9 1Zm221.7 16 .6-.3q.2 5.3-.3 10.5-5.5 2.9-10.4 6.4-1.2.3-2.3 1l-18 11q-.7.5-1 1.2c-1.6.2-4.3 1.4-5 3-1.4.1-4.8 1.6-4.9 3.2-1.1-.4-6.4 2.3-4.7 3 1.8-.3 3.5-1.8 4.7-3 1.8 0 4-1.7 5-3.1 1.7 0 4.3-1.4 4.9-3.1q1 .1 2-.1 9.9-6.1 20-11.9c2.7-2.1 7.6-3.6 9.6-6.3 0 3.2-.1 10-1.8 12.7q-.8-.2-1.5.3l-54.4 33.8q-1 .6-.8 1.7c-4.3 0-30.3.7-32-.8a33 33 0 0 1-3.3-5.2l1.5-.8 5-3 .8-.4 1.1-.9a31 31 0 0 0 5.1-2.7l.7-.5q.8-.3 1.3-.7l5-2.8.8-.6 1.1-.6 5.1-2.8q2.9-1.6 5.5-3.5.9 0 1.4-.8a35 35 0 0 0 6-3.3l1.1-.6 5-2.9.8-.5a29 29 0 0 1 5.2-2.6l1.1-1q2.9-1.4 5.5-3.3l1.5-.7 5-2.8.7-.5q.7-.2 1.3-.7l5-2.8 6.9-4 5.5-3.5 1.5-.7 5-2.8.8-.5q.7-.2 1.3-.8Zm-137.7 7.8a8 8 0 0 1 4.3 3.2c-1.5 1-9.3 6.1-10.5 6q-.5-.6 0-1.1 3.2-4 6.2-8.1Zm-88.7 9.8q.8 1.2 1.2 2.5l-8 4.6q-.6.3-1.1-.3a27 27 0 0 1 8-6.8Zm54 6.3c-1.4 0-4.6 1.6-5 3q-2.2 0-3 2a2 2 0 0 0-2 1c-1.1.1-2.8.3-3 1.6 1 1 2.7-.6 3-1.7.6.2 2.2.2 2-1q2 0 3-1.9a7 7 0 0 0 5-3q1.2 0 2-.9 2-1-.1-1-1.5.6-1.9 1.8Zm-48.2 5.8c.6 2.1 2.1 4.2 2 6.5-1.7-.6-21.4 11.9-24.5 13.4-1.4.7-1.5-.6-.5-1.4 4-2 20.2-19 23-18.5Zm99-.1q2.4 2.3 3.6 5.4l-24.3 14.7c-1.3 1-2.6-.3-1.2-1.3q11.3-9 22-18.8ZM171 221q-1.5-.5-2 1-2.1.1-3 1.9-1.5-.2-2 1a3 3 0 0 0-3 2c-1.4-.2-6.6 2.7-7 4l-1.3.2q-.5 0-.8.6l-1 .3-5.9 3.5q-.8.7-.4 1.5c1.6.3 5.6-2.3 6.2-3.8l1.4-.3q.6 0 .7-.8l1.3-.1c1.7-1.6 6-3.2 6.8-5q2.3 0 3-2 1.4.3 2-1.1 2 0 3-1.9a2 2 0 0 0 2-1c1 .1 4.2-.7 2.6-2a3 3 0 0 0-2.6 2Zm303.8-2c0 3.3-2.3 9-4 12q-3 1.7-5.9 3.6-.7.3-.6 1.1c-6.2 1.2-12.4 0-18.4.1 7.7-5.2 18.1-10 25.2-15.5l1.1-.5q1.4-.3 2.6-.9Zm-265.1 17.3q.6-2.8 1.7-5.5 5.4-2.5 10.3-5.6c1.4-.7 1.5.7.4 1.4q-5.7 4.6-11 9.6-.8.3-1.4.1Zm100 0q.6-3 2.5-5.5c2 0 5.6-3 7.5-3.8q1.3-.2.8 1-5 3.9-9.5 8.2-.6.5-1.3.2ZM371 228c1.3 0 1.8 2.3 2.2 3.3l-6 3.3v-.9q2.2-2.7 3.8-5.7Zm-316.3 3c.1 0 2-.3 1-.8q-.9.1-1 .8Zm-4.7 3a2 2 0 0 0-2 .6c.6.9 1.7.2 2-.6.6-.2 4.1-1.2 2.6-2q-2.2-.2-2.6 2Zm303 4-1.3-2.1q2.4-2.6 5.7-3.8l.3.4q-1.4 2.4-3 4.6-.7.8-1.8 1Zm-157 2q-2.6 10.2-6.1 20.3c-2.5 0-14 7.4-16.8 9.2l-7.1-11.1q1.4-.4 2.6-1.1zm237.8 1.3q2.6-.5 5.3 0-5 2.8-9.8 5.8-1.3.2-1-1 3-2.2 5.5-4.8Zm-397.2 1 1.5-.4h5.4q1.8.4.3 1.5l-8 4.7zm47.1-.2 1.3-.4c1.2.2 3 0 3.7 1l-10.3 5.5c-.8-.7 0-1.1.4-1.7zm59 4.8q.8.6 1.3 1.3a25 25 0 0 1-7.5 4.8c-1.3-1.1 4.5-4.6 5-5.7zm58.8 11.4q.7-1.8 1.7-3.3c2 0 8.2-5 10.4-6q1.2-.1.9 1-5.7 4.3-11.2 8.8-1 .2-1.8-.5Zm56.9 36.9Q239.2 305.9 220 317h-.8q6.8-23 13.3-46c1.8-6 4.1-13.4 7.4-18.6q1-.3 1.4.9 7.3 21.3 17.2 41.8Zm88.2-42.4c5.8 10.5 11.2 22.3 25 23.1 26.3 1.4 52.5-.3 78.9-.1 4.5-.3.4 3.6-.4 5.3q-1.2 0-2.2.7L392.7 317l-.5.8-1.4.2a3 3 0 0 0-1.7 1.8c-1.5 0-4.6 1.6-5 3q-2.4 0-3 2.1-1.2-.2-2 .7c.6 1 1.8 0 2-.7q2-.2 3-2c2.2.4 3.8-1.3 5-3a2 2 0 0 0 1.9-.8l1.2-.6q27.7-15.6 55.3-31.6c-1.6 2.4-7.8 15.8-9.8 16.3l-.8.4-11 7q-.6.4-.7 1.3h-1.5c-1.4 1.5-6.2 3.2-6.7 5q-2.2 0-3 2-1.5-.2-2 1-2.4-.2-3 2-1.2-.3-2 .7c.6 1 2.1.3 2-.7q2-.3 3-2c.7 0 2.1.1 2-1a4 4 0 0 0 3-2 14 14 0 0 0 7-3.8l1.4-.4 10.3-5.8q-6 10.5-13.6 20l-1.4.4-47 30.8q-1.5 1.9-3.8 2.3-.8.4-.7 1.3-3.2.5-5.2 2.9c1 1.3 4.6-1.7 5.2-3q.9.1 1.8-.1 22-13.2 44.3-25.6h.4a203 203 0 0 1-22.6 26.3 3 3 0 0 0-2 .3q-10 6.7-19.7 13.6-1.7 0-2.3 1.6-2.2.3-3.1 2.3-1.2.9 0 0 2.3-.2 3.1-2.3h2a111 111 0 0 1 13.3-7.8l.4.2c-.2 2.7-26.2 24-30.1 27.1q-2.1-.5-2.7 1.8c-.6-.2-2.1-.1-1.8 1q-1 0-1.2 1.2-.7.9-1.7 1.4-1-1.2-2.3-.3L281.6 439q-.5.4-.5 1-1.4-.4-1.8.9-1 0-1 1l-5.2 2c-7 2.5-12.9 6.2-20.1 1.9l.4-.9 51.7-34.5q.7-.6 1-1.6c.5.3 2.5-.3 1.4-1q-1 0-1.5 1a4 4 0 0 0-2 .7l-9.7 5.8c-6 3.4-46.7 25.7-48.2 28.3q-5.8-1.6-11.4-4 31.7-20.7 63.3-42l8.4-5q2.3-2 4.5-3.4c-.5-.9-1.2-.3-2 0q-5.8 3.9-12 7.2-.7.8-1.5 1.3-33.1 18.7-66.1 37.9a2 2 0 0 0-1.1 1c-2.6-.2-6.3-2.5-9-3.4q-1-.3-1-1.4l24.2-15a3 3 0 0 0 1.5-1.8l1.3-.2c1.7-1 8.2-4.4 8.8-6q2.1 0 3-2c1.8 0 3.8-1.2 5-2.5-.8-1.2-4.8 1.7-5 2.6q-2.2 0-3 2h-1.5l-7 4.1q-.3.3-.4.8l-1 .1q-1.2.7-2.1 1.7l-25 14q-.7.5-.6 1.4c-2 0-9.9-3.2-10.4-5.2q30.8-19.5 61.3-39.2 7-4 13.7-8.5.7-.4 1-1.2a3 3 0 0 0 3-2 2 2 0 0 0 2-1c.7 0 4-1 2.6-2q-2.2 0-2.6 2-1.3-.2-2 1-2.1 0-3 2-1-.1-2.1.2-6.7 4.4-13.7 8.1-31.7 18.6-63.6 36.9-1 .4-1.5 1.6c-2.3-.5-8-4.3-10.4-5.6l2.4-.6q7-4.5 14.2-8.7l5.7-3.6.9-1 1.4-.3c1.3-1.2 6.5-3.3 6.7-5 1.6.3 6.3-2.7 7-4q2.1-.2 3-2c.6.2 2.6-.4 1.6-1.1q-1.2.1-1.5 1.1-2.2 0-3 2c-1.5-.3-6.6 2.6-7.1 4a16 16 0 0 0-7 3.8l-1.3.3-7.8 4.6-15.9 9.6a72 72 0 0 1-17.3-11.5l41.3-25.5q.6-.5.8-1.2l1.4-.2 10.2-6q1.1-.7 1.6-2 1.3.4 2-.8 2-.3 3-2c.7 0 2.2 0 2-1 .9 0 4.2-1 2.7-2q-2.1 0-2.7 2-1.4-.3-2 1-2.3-.1-3 2-1.5-.5-2 .9-1 0-2 .6-5.2 3-10 6l-1.2.7q-22.5 12.8-44.8 26a21 21 0 0 1-7.3-5.5q4.3-3.2 8.8-5.9.4-.3.4-.7l1.4-.2c1.5-1.4 6-3.1 6.7-5q1.4 0 2-.9 2.1-.3 3-2.1 1.5.2 2-1 2-.2 3-2 1.4.2 2-1c.9.2 4.3-.8 2.6-2a3 3 0 0 0-2.6 2q-1.4-.2-2 1-2.1 0-3 2-1.5-.2-2 1-2.2 0-3 2.1-1.4-.5-2 1c-2 0-5.5 2.3-7 3.6l-1.3.4-10.8 6.5a31 31 0 0 1-8-6.3 7 7 0 0 0 3-1l69-43q.8-.4.9-1.3h1.5l7.7-4.7 1-1.2q2.1-.2 3-2 1.4 0 2-1.2a3 3 0 0 0 3-2c.6.3 2.8-.2 1.5-1q-1.2-.2-1.6 1-2 .2-2.9 2a2 2 0 0 0-2 1.2q-2.3 0-3 2c-2-.5-6.4 3.1-8.4 4q-.5.2-.6.7l-1.3.6q-36.8 21-73.4 42.2-1.2.7-2.2 1.7c-1.3-1.3-7-5-7.2-6.6l18.4-10.7a383 383 0 0 1 15.7-9.8q.7-.3.7-1.3 7.3-5.1 15.2-9.1 1 .3 2-.2 5-3 9.8-6.2a2 2 0 0 0-1.7-.5c5.9-6.9 9.9-14 14-22q1-.2 1.7-.6l40.2-25.6c6.6 11.8 19.6 38.4 37 29.5C316 313.6 328.4 277 339 256q.9 1.2 2 .6c1.9-1.2 5.2-1.5 5.7-4ZM108 270c-1.7-.5-6.7.3-7.8-.7l15-8.3q.6.4.2 1c-1.5 1.6-7 6-7.4 8Zm323 .7h-4.2l-1.6-1.3q6-3.3 11.7-7.2c.7-.6 2.1-.2 1.5.8l-6.8 6q-.7.7-.6 1.7Zm-242-6.6a67 67 0 0 1-7 17.2q-.5.4-.9 0-3.2-4.5-6-9.1c3-.7 10.6-6.6 13.9-8.2Zm201.2 5.8q-1.2 0-2.3.4-1-.3-1.7-1 4-2.1 7.7-4.8.6-.4 1.4-.3c1.7 1.2-5 4-5.1 5.7Zm-265 0c-.1-.8 5.4-4 6.2-3.9 1 2.2-4.1 4.9-6.3 3.9Zm194 3.9-1.5 3.3q-1-.1-1.7.4c-.6.4-5.1 4.3-4.5 1.4q3.5-2.2 6.4-5.1.7-.5 1.3 0ZM74 276l-.4.9c-1.6.8-9.1 4.5-9.5 5.9-1.4-.5-2.7-5-3.7-6.4l.2-.4zm7.8-.1h19.6q-.2.6-.8.8a809 809 0 0 0-30.5 17.6c-1.4-2.6-4-5.8-4.2-8.7 1.6.7 12.5-7.4 14.8-8.4q1-.4 1-1.3Zm25 0h14.6q2 .9 2.8 2.7-1.2.3-2.2 1l-43.1 24.8-1.7 1.8-5-8.5q1.2-.2 2.2-.9l31.6-19.5q.6-.6.8-1.4Zm321.2 6q-1.5 1 0 0c1 .2 5.8-2 4.6-3-1 0-4.6 1.9-4.6 3Zm-300.2.6c1.4 1.9 5.9 7.5 6 9.6q-23 13-46 26.3-.8.6-1.2 1.6c-1.6-2.2-4.6-5.7-5.2-8.2q23.4-14.3 46.3-29.3Zm297 1.5c.1 0 2-.4.8-.9q-.6.1-.9 1ZM275 299.2a9 9 0 0 1-2-4.3l16.6-9.8c1.5-.6 1.4.8.5 1.6zm-138.2-2.6c1.6 3.1 4.7 7.2 5.4 10.5q-1.2-.1-2.3.3-22.2 12.7-44.1 25.8l-5.3-7.2zM283 313.3a11 11 0 0 1-3.3-4.3c1-2.3 10.8-6.5 13.2-8.6.6-.2 1.3-1 1.8 0-2.3 3.6-8.8 9-11.7 12.9Zm-138.9-3.5q2.8 4.4 5.2 9.2l-42.5 24.5q-1 .7-1 1.9c-1.3-2-6.2-6-5.9-8.5 2.4 0 39.1-23.9 44.3-27.1ZM167 323a4 4 0 0 1-1.9-3q.8 0 1.2-.3l7.2-3.8.4.5c-.9 2.3-6.1 4.6-7 6.6Zm-17-1.9q.9 0 1.4 1c1.2 3 9.3 12.7 9.5 15-4.8 2.7-40 22.3-40.9 24.2-3.5-4-9.6-10-12.3-14.4 2.8.2 36.1-21.4 41.3-24.6q.7-.5 1-1.2Zm12.8 16.5a43 43 0 0 0 8.5 8.3 5 5 0 0 0-2.3.6l-38.7 22.3a2 2 0 0 0-1.1 1.4 67 67 0 0 1-7.5-7.1 380 380 0 0 0 41-25.5Zm34.4 3.2c-1.8 3-4.5 5.8-8.4 4.9.3-2.4 5.5-3.7 7.1-5.2q.8-.1 1.4.3ZM362.9 382c.3-.1 1.7-.4.8-1a1 1 0 0 0-.8 1Zm-173.7 25q-1.5-.5-2 1c-1.3 0-3 .4-3 2q-1.2-.3-2 .6c.6 1 1.6 0 2-.6q2-.5 3-2 1.2 0 2-1c.8 0 4.1-.8 2.5-2q-2 0-2.5 2Z"/><path fill="#cd4646" fill-opacity=".3" stroke="#cd4646" stroke-opacity=".3" stroke-width=".5" d="M164 225q-.7 2-3 2a3 3 0 0 1 3-2Z"/><path fill="#cf4646" fill-opacity=".3" stroke="#cf4646" stroke-opacity=".3" stroke-width=".5" d="M400 203q-.6 1.3-2 1 .5-1.2 2-1Z"/><path fill="#ce4545" fill-opacity=".5" stroke="#ce4545" stroke-opacity=".5" stroke-width=".5" d="M286 194c-.5 1-4.2 4-5 2.7a8 8 0 0 1 5-2.7Zm153.1 18c-1.2 1.3-2.9 2.8-4.7 3.1-1.7-.7 3.6-3.4 4.7-3ZM349 90c.2 1-1.4 1.7-2 .7q.8-1 2-.7ZM194 190q.2-2.3 2.6-2c1.5.8-2 1.8-2.6 2Zm215 132c.1 1-1.4 1.7-2 .7q.8-.9 2-.7Zm-174 45q.6-1.8 2.7-2c1.5 1.1-1.8 2.2-2.7 2Zm-43 13a3 3 0 0 1 2.6-2c1.7 1.2-1.7 2.2-2.6 2Zm-3 27.1q.6-2 2.6-2c1.6 1.2-1.7 2-2.5 2ZM100.2 89.8c0 1-1.4 1.9-2 .9q.8-1 2-.9ZM78 154q.6-1.8 2.6-2c1.4 1.1-1.8 2.1-2.6 2Zm71 34a3 3 0 0 1 2.7-1.9c1.6 1.1-1.9 2.2-2.7 1.9Zm22 33a3 3 0 0 1 2.6-2c1.6 1.3-1.6 2.1-2.6 2Zm116 153q.4-2 2.6-2c1.3 1-1.9 2-2.6 2Zm-30 33c.2-1 4.2-3.8 5-2.6-1.2 1.3-3.2 2.6-5 2.6Zm95-319q-1 1.7-3 2 .7-2.2 3-2ZM78 125q.3-2.2 2.5-2.1c1.6 1-2 1.7-2.5 2Zm109 6c-.4 1-2 2.7-3 1.6q1.1-1.4 3-1.7Zm78 25c-.7.6-2 3-3 1.6.3-1 2.1-1.3 3-1.6Zm-6.3 4q.1-.6.9-.9c1 .6-.7.9-.9 1Zm39.2 46c-.2 1-2 2.6-3 1.6.3-1.3 2-1.5 3-1.7Zm-229 4c.4-1 4.3-4 5-2.7a9 9 0 0 1-5 2.8Zm-14.2 21.1q.1-.6 1-.8c1 .5-.9.8-1 .8ZM50 234q.4-2.2 2.6-2c1.5.8-2 1.8-2.6 2Zm182 159q.4-1 1.6-1.1c1 .7-1 1.3-1.5 1.2Z"/><path fill="#cf4646" fill-opacity=".3" d="M352 152q-.3 1-1.2.8zm25 4q-.1 1.1-1.2.7zm-45.7 12.3-1.3.7q.3-1.1 1.3-.7m57 61-1.5.8q.3-1 1.5-.8"/><path fill="#cd4444" fill-opacity=".4" d="M436 99.2q-.3.8-1.3.7zm-11 46.1q-.3.8-1.2.6.5-.5 1.2-.6m-72.6 10.8q-.5.5-1.2.7.3-.8 1.2-.7m57 61-1.2.6q.3-.7 1.1-.6"/><path fill="#262626" stroke="#262626" stroke-width=".5" d="M363 56.2c3 .7 17.7.8 22 1 .7 1.3 2.9.7 4 .6 3.5 1.3 8.4 2.1 12 2.3 0 1.2 3.2 1.7 4.2 1.3q7.8 3 15.8 5.6.7 1.2 2.3.8l.6.3q.3.8 1 1 6 2.8 11.7 5.8.5.9 1.4 1.2a114 114 0 0 1 52.7 73.6c6.2 29.1 1.2 58.3-9.3 85.7.8 1.1 6.8.5 8.3.6h2.7c9.5 3.1 16.2 6.5 17.2 17.6.8 13.9-9 17.6-20.4 21q-.9-.3-1.7-.3-3 .8-6.1.8l-1.5.6h-13.4q-1.4 0-2.3 1c-43.3 85.4-117 151.6-209.8 178.2q-1.8.3-3.8 0A345 345 0 0 1 47 277.6c-.8-1.2-2.4-.1-3.6-1q-.7-.5-1.6-.6a137 137 0 0 0-16.4.1l-4.7-.2c-23.8-6.5-24.5-28.8-2-38q1.1 0 1.6-1h.7q1.2.5 2.6.3c1-.6 4.4-.1 4.7-1.3q2 1.5 1.4-.9c-17-44.3-16.3-83.5 9.5-124q1-.4.5-1.3 1.5 0 1.8-1.4l1-1.3c2.8-3.7 15-15.7 16.7-17.9l1-.5q4.5-3.5 9.3-6.7l.3-.9q1.3 0 1-1.3 1.9.7 2-1.2.8.4 1.3-.3.6 0 1.1-.3l1.1-.5q.8-.6 1.1-1.3l.7-.1q.8-.3 1.3-1.1l.6-.3q.7.2 1.1-.4 1-.4 1.3-1.4l.7.4q1-.3 1.3-1.2l.6-.3q1.5.5 1.7-1A5 5 0 0 0 91 69l2.1-.4q5.7-2.2 11-4.7h1.3a197 197 0 0 1 20.2-5q1 0 1.6-.8l.7-.2c1.3.5 5.9.4 6.5-.9 3.3.6 18.7-.4 23.6 0l3 .3c32.7 3 61.2 15.9 85.5 37.8l10.1 10q.8.1 1.5-.3L272.3 91q1.5.2 1.4-1.3a2 2 0 0 0 1.6-.7l1-.8a236 236 0 0 1 38.6-22.4q2.3.7 3.3-1.2 1.1.2 2.2 0a160 160 0 0 1 37.4-8c.8.2 5.4.9 5.3-.5Zm-18.2 8q-1.4-.4-2 .8c-5.4 0-15.4 3-20.6 5.2-17 5.6-29.6 14.4-43.3 25.2q-.8.7-.7 1.9-1 0-1.6.7a90 90 0 0 0-12.7 12.8c-2.9 3.2-9.6 8-13.7 4.4l-4.4-4.6-.9-2a178 178 0 0 0-9.5-9.3Q224.6 88.7 211 81.6a65 65 0 0 0-14.3-7l-2.5-.5c-1-1.8-9.3-3.8-11.5-4.2-1-1-5.3-1.8-6.8-2h-.9a111 111 0 0 0-31.3-3.8q-4.7-.4-9.5.1-12.5.7-24.5 4-1.5-.2-3 .6l-1 .4c-21.8 6-48.7 24.5-58.6 45a13 13 0 0 0-3.1 5.5 102 102 0 0 0-11 36.1q-1.3 6-1.2 12.3V180l.3 3.9c.5 5 2.8 26.5 5.5 29.5q-.6 1.3 0 2.5l2.2 8.6q0 1 1 1.3 0 1 .4 2.1c.3 1.4 1.4 7.2 2.4 7.9 6.5 1.6 14.4.6 21.1.6q4 .9 8-.3H74l43-1q3 .6 5.8 0c9.7 2.3 26.5.7 33.4 9q.3.6 1 .7c1 2.7 5.5 7.7 7 10.6l1.9 2.9 15 23q.4.4.9 0a67 67 0 0 0 8-21.1 240 240 0 0 0 6.8-23 522 522 0 0 1 12-35c8-20.6 22.3-45.8 47.4-28.7 6.5 4.6 25.2 54 29.4 64.3q2.7 6.6 6 12.8a9 9 0 0 0 1.9-2.7c13.4-22 18.7-69.6 50.5-71.4l5 .7.6-.1q6.3 3.3 11.4 8.3l.7.7q4.5 5.3 8.4 11c4.6 9.8 9.5 21.1 15.2 30.2a4 4 0 0 0 1.5 2.8q1.4 2.8 3.3 5.2c1.7 1.5 27.7.8 32 .8h1.7l1.2-.1c5 0 16.4.6 20.9-.2 6 0 12.2 1.1 18.4 0q1.3.1 2.7-.1c.9.5 2.7.8 2.7-.8a7 7 0 0 0 1.2-3.8c1.6-3 4-8.8 4-12.2 2-3.8 3-10.7 3.7-15.1q.8-1.7.2-3.5c1.7-2.6 1.8-9.5 1.8-12.7v-1.2q.7-5.2.4-10.6c-.1-1.6.2-6.4-.6-7.6q0-5.3-1.4-10.5.2-1.6-.7-2.7c-.6-6-3-12.4-5-18.1l-1.2-3c-.8-1.7-2.5-7.3-4.2-8l-.2-1.3-2.4-4.5c-1.3-2-3.3-6.5-5.5-7.3.4-1.8-2.6-4.4-3.4-6a134 134 0 0 0-12-12.8c-2-1.2-6.2-6.4-8.5-5.8a4 4 0 0 0-2.5-3c-2.6-1.7-6-4.7-9.1-5.5q-1.6-1.8-4-2.5h-1c-1-2-7-4-9-5-2.3-.7-6.1-3.1-8.4-2.2q.1-.7-.4-1c-3.2-1.2-8.3-3.2-11.7-2.7q-.8-.6-1.8-.3 0-.5-.5-.8a88 88 0 0 0-23.2-2.2q-9.8-.3-19.5 1.2ZM211.4 230.8q-1.2 2.7-1.7 5.5-.4-.1-.7.2l-5.7 18.4q-1 1.5-1.7 3.3c-3.3 7.2-9.8 33.8-15.2 37.7a1 1 0 0 0-.1 1q-1.7 0-3.4.3c-12-.5-21.4-25.2-27.7-33.9l-11-15.2q-.6-.8-1.4-1.3c-.6-2.2-8.5-5.2-10.8-5.3a352 352 0 0 1-26-.4q-10.5.5-20.9.5l-1.3.4-44.2-.7q-.8-.2-1.4.5l-1.5.4c-1.5-1.2-5.9-.6-7.7-.3-19-3.8-20.5 29 6.1 28.7q2.8.3 5.6 0 8.6-.3 17.2-.3c.8 1 3.8.1 5-.4q.4 1 1.5.8c7.6-.8 39.2.3 43.7-.6l20.4.8c8 .1 11.8 12.4 16.9 15.3q-.6 1.2.6 1.8c2 4.6 17 30.3 19.1 32a4 4 0 0 0 1.9 3 69 69 0 0 0 16.4 20.2c1.3.6 3.9 3.1 5.4 2.5 4 1 6.6-1.8 8.4-5q1.5-2.1 2.3-4.7a1032 1032 0 0 0 18-54.8l.8-2c4.1-13 8.3-26.5 15-38.5 2-4.2 10.9-13.6 14.1-5.6 8.7 19.6 16.5 40.6 25.7 59.8a9 9 0 0 0 2 4.3q2 5 4.7 9.8a11 11 0 0 0 3.3 4.3c.3 2 4.6 5.7 7 5.9 11 .9 23.1-33.6 27.6-42l1.5-3.4q.6-.3.8-1.1 7-16.5 14.5-32.7c2.2-6.4 5.7-9.6 13-9 1.9.4 3 3.5 4.2 4.9q.5 1.2 1.2 2.2 4.1 8.4 8.9 16.6c3.4 8 17.4 19 26.1 15.6l2.3-.4a683 683 0 0 1 40.9 1c3.4-.2 13.4 1.7 15.8-.8q0 1 .8 1.5l5.3.1q8.3.2 16.3-.7 5.4.3 10.7-1c17.2-3 23.8-10.5 10.7-25.3-1.2-1-10.7-2-13-2.3q-1.8-.4-3.6-.3c-10.2-1.6-24.4-1-35-1q-2.6-.3-5.2.1c-17 .3-34 1.2-51 .3a6 6 0 0 1-3-1.7l-6.7-8.5c-.4-1-1-3.2-2.2-3.3-1-2.2-7.3-16.3-8.6-17q-1.2-3-3.5-5.3-4.5-10.2-11.9-18.6a8 8 0 0 0-4.3-3.2c.1-1-4.9-1.1-5.7-.5-7.8 5.2-20.2 37.7-24.9 47.4q-1.8 2.6-2.4 5.6-.4-.3-.7 0c-3.7 9.1-10.8 35.2-23.9 31-7.2-10-19.5-50.3-23.4-55.1.2-2.3-1.3-4.4-1.9-6.5a164 164 0 0 0-5.8-12.1c-3.5-6.5-11.5-23.2-21-16.1-10.1 10.6-15.3 39-21.6 53.2ZM339 256c-10.6 20.9-22.9 57.6-43.1 70.2-17.4 8.9-30.4-17.7-37-29.5l-.4-1.6a391 391 0 0 1-17.2-41.8q-.3-1.1-1.4-1a86 86 0 0 0-7.4 18.7l-13.3 46-.4 1a9 9 0 0 0-1.7 4.9c-4.2 8-8.2 15.1-14 22q-5 3.2-10.1 6-2.2.3-4.5 1a24 24 0 0 1-6.8 0q-3.3-1.7-6.9-2.6-1.5-2-3.5-3.4a43 43 0 0 1-8.5-8.3q-.9-.4-1.9-.6c-.2-2.2-8.2-12-9.5-15q-.5-.8-1.4-.9 0-1.2-.6-2.1a128 128 0 0 0-7-12c-.8-3.2-3.9-7.3-5.5-10.4-1-1.3-1.6-3.7-3.1-4.4-.1-2.1-4.6-7.7-6-9.6q-1.5-2.2-3.6-3.9a6 6 0 0 0-2.8-2.7h-14.6q-2.7-.3-5.4 0H81.8q-3.4-.4-6.7 0l-1.1.1H60.7l-.3.4c1 1.3 2.3 6 3.8 6.4 0 1 .4 2.8 1.7 2.8.3 3 2.8 6 4.2 8.7a17 17 0 0 0 2.2 3.4q2.3 4.4 5 8.5c1.2 1.6 2.3 4.4 4 5.6.7 2.5 3.7 6 5.3 8.2a117 117 0 0 0 9.3 13.1c1.2.8 2.5 4 4.1 3.7-.3 2.4 4.6 6.4 5.9 8.5q.6 1 1.8 1.5c2.7 4.4 8.8 10.3 12.3 14.4l1.7 1.8q3.5 3.9 7.5 7 2.1 2.7 4.6 5c2.2 1.5 6.3 6.4 8.5 7q0 .6.6.6c.2 1.5 5.9 5.3 7.2 6.6q1.2 1.3 2.8 2a31 31 0 0 0 8 6.3c.4.5 1 1.7 1.8 1.2 1.1 2 5.2 4.4 7.3 5.5q.9 1.6 2.7 1.5c4 4.2 12 8.8 17.3 11.5l.7.9c2.3 1.3 8 5 10.4 5.6q2 2.1 4.9 2.1c.5 2 8.4 5.2 10.4 5.2-.4 1.1 1.1.9 1.7.9q.2.9 1.2 1.3c2.6 1 6.3 3.2 8.9 3.5 1.4 1.4 4.6 2.2 6.5 3q5.5 2.3 11.4 4 2.7 1.3 5.6 1.9l1.3.2c7.2 4.3 13 .6 20.1-2q1.2.3 1.9-.8l3.3-1.1a2 2 0 0 0 1-1q1.3.3 1.8-.9 1.6 0 2.8-.8a350 350 0 0 0 65-38 3 3 0 0 0 1.3-1.3 2 2 0 0 0 1.8-1q1.7-.1 2.7-1.7c3.9-3 29.9-24.4 30.1-27.1q1.1-.3 1.4-1.5 1.5-.9 2.9-2.1l4.9-5.4a203 203 0 0 0 21.7-25.2l.7-1.1c1.9-1.7 4.2-4.6 4.9-7q.7-.1.8-.9a136 136 0 0 0 15-22q1-.6.6-1.7c2-.5 8.2-13.9 9.8-16.3q1.9-2.8 2.7-6c.8-1.7 5-5.6.4-5.3-26.4-.2-52.6 1.5-79 .1-13.7-.8-19-12.6-25-23.1-.7-1.1-2.3-6.3-4-5.7a43 43 0 0 0-3.6 9Z"/><path fill="#c44444" fill-opacity=".8" d="M457.3 265c-.4 2.2-5.3 4.7-4.3 6.7h-5.3q-.9-.6-.8-1.6c2.5-1 7.8-5.4 10.4-5.1"/><path fill="#be4343" fill-opacity=".4" d="m42.4 107-1 1.4q-.3-1.3 1-1.4m-1 1.3q-.3 1.4-1.8 1.4.3-1.5 1.8-1.4m-1.8 1.4q.3.8-.5 1.4 0-.8.5-1.4"/><path fill="#b34141" fill-opacity=".6" d="M275.2 89.2a2 2 0 0 1-1.6.6q.7-.6 1.6-.6m-1.6.6q.1 1.5-1.4 1.3a2 2 0 0 1 1.4-1.3"/><path fill="#ab3f3f" fill-opacity=".6" d="M77.3 76q-.3.8-1 1.4-.2-1.2 1-1.3m-2 1q.4 0 1 .4L75 78z"/><path fill="#c64444" fill-opacity=".7" d="M134.4 57c-.6 1.2-5.2 1.3-6.5.8 0-1.4 5.8-2.7 6.5-.9"/><path fill="#8a3c3c" stroke="#8a3c3c" stroke-width=".5" d="M254 193.7a27 27 0 0 0-7.9 6.9q.4.5 1.2.2 3.9-2.5 7.9-4.6l4.6 9.6c-2.8-.4-19 16.5-23 18.5-1 .7-.9 2.1.5 1.4 3.1-1.5 22.8-14 24.4-13.4 3.9 4.7 16.2 45.1 23.4 55 13 4.3 20.2-21.8 24-30.8q.2-.4.6-.1.6.1 1.3-.2 4.5-4.3 9.5-8.1.4-1.3-.8-1.1c-1.9.9-5.6 3.8-7.5 3.8 4.6-9.7 17-42.2 24.8-47.4.8-.6 5.9-.4 5.7.5q-3 4.2-6.2 8-.4.6 0 1.2c1.3.1 9-5 10.5-6a77 77 0 0 1 11.9 18.6 397 397 0 0 1-22 18.8c-1.4 1-.1 2.2 1.2 1.3q12-7.4 24.3-14.7c1.3.6 7.6 14.7 8.6 16.9q-1.6 3-3.7 5.7-.3.5 0 1l5.9-3.4 6.6 8.5q1.3 1.2 3 1.7c17 .9 34 0 51-.3a47 47 0 0 1-5.3 4.7q-.4 1.3.9 1.1 4.7-3 9.8-5.8c10.5 0 24.7-.7 34.9 1 0 1.2-5 2.2-5.8 4.3 2.7 1.3 7.2-2.8 9.5-4.1 2.2.2 11.7 1.2 13 2.3 13 14.8 6.4 22.4-10.8 25.3l4.7-6.7c.7-1.6-.8-1.5-1.7-.8l-13.3 7.7q-.4.3-.4.8-8 1-16.3.7c-1-2 4-4.5 4.3-6.7q.3-.2.3-.6-.6 0-.3.6c-2.5-.3-7.9 4-10.4 5.1-2.4 2.5-12.3.6-15.8.7q0-1 .6-1.6 3.2-3.3 6.8-6c.6-1.1-.8-1.5-1.5-.9q-5.7 3.9-11.7 7.2l1.6 1.3q-18.3-1-36.7-1c0-1.6 6.8-4.4 5-5.6q-.6-.2-1.3.2-3.7 2.7-7.7 5 .7.6 1.7.9c-8.7 3.4-22.6-7.6-26.1-15.7q-4.8-8.1-8.9-16.5 1-.2 1.7-1 1.8-2.2 3.1-4.6l-.3-.4q-3.3 1.2-5.7 3.8c-1.1-1.4-2.3-4.5-4.3-4.8-7.2-.7-10.6 2.5-13 8.9a1338 1338 0 0 0-14.3 32.7q-.3.8-1 1-.4-.3-1.2 0-2.9 3-6.4 5.2c-.6 3 4-1 4.5-1.4q.7-.4 1.7-.4c-4.5 8.4-16.6 43-27.7 42.1-2.3-.2-6.6-3.8-6.9-6 2.9-3.9 9.4-9.2 11.7-12.9-.5-.9-1.2-.1-1.8.1-2.4 2-12.1 6.3-13.2 8.6a67 67 0 0 1-4.7-9.8q7.5-6.1 15-12.5c1-.8 1.1-2.2-.4-1.6L273 295c-9.2-19.3-17-40.2-25.7-59.8-3.2-8-12.1 1.4-14 5.6-6.8 12-11 25.4-15 38.5-2.7-1.5-10.1 5-13 5.8a3 3 0 0 0-.7 2l-1.5-.2c-1.3.4-5.4 1.6-5 3.5-2-.9-4.2 1.7-6.2 2.4q-.9.6-.6 1.7a2 2 0 0 0-1.7 1.8q-1.5-.9-1.9.8l-1.5-.1a1 1 0 0 1 .1-1c5.4-4 11.9-30.5 15.2-37.7q.7.7 1.8.5 5.4-4.5 11.2-8.7.4-1.2-1-1.1c-2.1 1-8.2 6-10.3 6l5.7-18.4q.3-.4.7-.2.8.3 1.3-.1 5.4-5 11.1-9.6c1-.7 1-2-.4-1.4q-5 3.1-10.3 5.6c6.3-14.2 11.5-42.6 21.7-53.2 9.4-7.1 17.4 9.6 21 16ZM83.8 242l-5 4.4c-.3.6-1 1-.3 1.7l10.3-5.5c-.8-1-2.5-.8-3.7-1q10.5 0 21-.5l.3 1q-2 1.2-3.6 2.7c-.8.9-2.6 1.3-2.5 2.7 1.3.7 2.3-.8 3-1.7 1.8 0 5.2-2.3 6.5-3.6q1.2 0 2.2-1 10 .5 20 .3c2.3 0 10.2 3.1 10.8 5.3q-.6 0-1.2.4c-.5 1.1-6.3 4.6-5 5.7 2.3-.6 5.6-3.2 7.5-4.8q5.7 7.5 11.1 15.2c6.3 8.7 15.7 33.4 27.7 34-1 .7-2.5 1.3-1.4 2.8l-.7 1.2q-.9-.1-1.9.2-1.6 1.4.5 1.3.8-.6 1.4-1.5 1.5 0 2.3-1.2 1.2 0 1.9-1 2-.3 2.8-2 1.3 0 2-1c2 0 3.9-1.7 5.3-3a3 3 0 0 0 2-1 3 3 0 0 0 2.9-2.1 2 2 0 0 0 2-1q2.3.1 2.7-2c2.6.7 9.2-5.5 12.8-5.8-5.3 18.6-11.6 36.5-18 54.8q-.8 2.6-2.2 4.8-.6-.4-1.4-.3c-1.6 1.5-6.8 2.8-7.1 5.2-1.5.6-4-1.9-5.4-2.5A69 69 0 0 1 167 323c.8-2 6-4.3 6.9-6.7l-.4-.4-7.2 3.8-1.2.3a285 285 0 0 1-19.1-32c.7-.7 3-2.4 2.8-3.4-.5-1.1-2.6 1.4-3.4 1.6-5-2.9-8.8-15.2-16.9-15.3l-20.4-.8c.4-2 5.9-6.4 7.4-8q.4-.6-.2-1l-15 8.3c1 1 6.1.2 7.8.7-4.5.9-36.1-.2-43.7.6q-1 0-1.6-.8 3-2.5 5.8-5.3-1.1-.4-2.2.2-4.2 2.9-8.5 5.5-8.6 0-17.2.4 3.3-2.9 5.8-6.3l-.2-.3q-5.3 2.6-10.3 5.6-.6.3-.9 1c-26.6.2-25-32.6-6.1-28.8q-3 5.5-5.5 11.1-.6 1 0 1.7a280 280 0 0 0 20.4-11.4q1.6-1.1-.3-1.5h-5.4q.6-.7 1.4-.5zm375 22c.2 0 1.9-.3.8-.8a1 1 0 0 0-.9.8ZM125 270c2.2 1 7.4-1.7 6.3-3.9-.8-.2-6.3 3.1-6.3 3.9Z"/><path fill="#a43f3f" fill-opacity=".5" stroke="#a43f3f" stroke-opacity=".5" stroke-width=".5" d="M180.8 301.3q-.5.9-1.4 1.5-2.1 0-.5-1.3 1-.3 2-.2Z"/><path fill="#ac4141" fill-opacity=".4" stroke="#ac4141" stroke-opacity=".4" stroke-width=".5" d="M189.7 296.2q-.6 1-1.9.8.5-1.7 2-.8Z"/><path fill="#7a3939" fill-opacity=".9" d="M489.2 274.5a16 16 0 0 1-5.9 2.7 9 9 0 0 1-3.4-1.5l1.5-.5q3-.2 6-.8z"/><path fill="#682323" fill-opacity=".1" stroke="#682323" stroke-opacity=".1" stroke-width=".5" d="M470.9 231a7 7 0 0 1-1.2 4c-.6 0-2.8-.1-2.7.7q-1.4.3-2.7 0 0-.8.6-1.1z"/><path fill="#4f1a1a" fill-opacity=".1" stroke="#4f1a1a" stroke-opacity=".1" stroke-width=".5" d="M106.4 242q1.6-.3 3.4.2c-1.3 1.3-4.7 3.6-6.5 3.6l-.5-1z"/><path fill="#8a3c3c" fill-opacity=".3" stroke="#8a3c3c" stroke-opacity=".3" stroke-width=".5" d="m102.8 244.8.5 1c-.7.9-1.7 2.4-3 1.7 0-1.4 1.7-1.8 2.5-2.7Z"/><path fill="#9a3c3c" fill-opacity=".8" d="M401 60.1q2.4-.5 4.2 1.3c-1 .4-4.1 0-4.2-1.3"/><path fill="#5b3030" fill-opacity=".3" stroke="#5b3030" stroke-opacity=".3" stroke-width=".5" d="m346.6 175.2 1.5 1.8-4-.5q1.2-.8 2.5-1.3Z"/><path fill="#9b3c3c" fill-opacity=".8" d="M363 56.2c.1 1.4-4.5.7-5.3.5 1-1.1 3.8-.8 5.3-.5"/><path fill="#5f3030" fill-opacity=".5" stroke="#5f3030" stroke-opacity=".5" stroke-width=".5" d="M354.7 397.3q-.9 1.5-2.7 1.8.6-2.2 2.7-1.8Z"/><path fill="#672222" fill-opacity=".1" stroke="#672222" stroke-opacity=".1" stroke-width=".5" d="M68 159.8v1.2l-1.5 1q-.9-.1-1.5-1 1.4-.9 3-1.2Z"/><path fill="#893c3c" fill-opacity=".6" d="M20.6 276q2.4-.2 4.7.1c-1 1.4-4 1.4-4.7-.2"/><path fill="#6d3333" fill-opacity=".6" stroke="#6d3333" stroke-opacity=".6" stroke-width=".5" d="M109.8 68.3q-1 1-2.6 1.4l-.3-1q1.4-.7 2.9-.4Z"/><path fill="#7b3939" fill-opacity=".9" d="M469.7 235c0 1.5-1.8 1.2-2.7.7-.1-.8 2.1-.6 2.7-.8"/><path fill="#452c2c" fill-opacity=".4" stroke="#452c2c" stroke-opacity=".4" stroke-width=".5" d="M344.8 64.2q-.8 1-2 .8.5-1.3 2-.8Z"/><path fill="#893d3d" fill-opacity=".3" d="M492.4 236h-2.7c.4-1.3 2.2-1.2 2.7 0"/><path fill="#7a3636" fill-opacity=".1" stroke="#7a3636" stroke-opacity=".1" stroke-width=".5" d="M281.1 440.1q-.5 1.2-1.8.9.4-1.3 1.8-.9Z"/><path fill="#773434" fill-opacity=".5" stroke="#773434" stroke-opacity=".5" stroke-width=".5" d="M437.7 303.3q.4 1.2-.7 1.7l-.1-1.2z"/><path fill="#943a3a" fill-opacity=".8" d="M421 67a3 3 0 0 1 2.3.8q-1.5.4-2.3-.8"/><path fill="#7a3535" fill-opacity=".3" stroke="#7a3535" stroke-opacity=".3" stroke-width=".5" d="M352 399q-.6 1-1.8 1c-.3-1 1.2-1.1 1.8-1Z"/><path fill="#773636" fill-opacity=".6" stroke="#773636" stroke-opacity=".6" stroke-width=".5" d="M275 443q-.6 1.1-1.9 1 .6-1.1 1.9-1Z"/><path fill="#3b2727" fill-opacity=".1" stroke="#3b2727" stroke-opacity=".1" stroke-width=".5" d="m105.9 69.3 1-.5.3.9q-.9.3-1.3-.4Z"/><path fill="#863737" fill-opacity=".4" d="M424 68q1 0 1 1.1-1-.2-1-1"/><path fill="#7d3838" fill-opacity=".4" d="M20.2 237q-.5 1-1.6 1 .6-1 1.6-1"/><path fill="#783939" fill-opacity=".1" stroke="#783939" stroke-opacity=".1" stroke-width=".5" d="M394 361.2a2 2 0 0 1-1 1q.3-.7 1-1Z"/><path fill="#9b3c3c" fill-opacity=".7" d="M81 74.2q-.4.6-1.1.4.3-.6 1.1-.4"/><path fill="#6f3333" fill-opacity=".5" d="M127.2 58q-.7.8-1.6.8.7-.8 1.6-.8"/><path fill="#783535" fill-opacity=".5" d="M436.6 75q1.2 0 1.4 1.1-.9-.3-1.4-1.2"/><path fill="#522b2b" fill-opacity=".2" stroke="#522b2b" stroke-opacity=".2" stroke-width=".5" d="M264.9 109.8q0 1-1 1 .4-.6 1-1Z"/><path fill="none" d="M350.2 400a3 3 0 0 1-1.2 1.3q0-1.2 1.2-1.3"/><path fill="#2f2828" fill-opacity=".1" stroke="#2f2828" stroke-opacity=".1" stroke-width=".5" d="M279.3 441a2 2 0 0 1-1 1q0-1 1-1Z"/><path fill="#8a3d3d" fill-opacity=".4" d="m41.7 276 1.6.6q-1.1.3-1.6-.6"/><path fill="#823a3a" fill-opacity=".9" d="M28.2 236c-.3 1.1-3.8.6-4.7 1.2q-1.5.2-2.6-.4 3.4-3 7.3-.9"/><path fill="#883e3e" fill-opacity=".2" stroke="#883e3e" stroke-opacity=".2" stroke-width=".5" d="M457.3 265q-.2-.7.3-.6 0 .4-.3.6Z"/><path fill="#8d3c3c" fill-opacity=".2" stroke="#8d3c3c" stroke-opacity=".2" stroke-width=".5" d="M458.8 264q0-.8.8-.8c1 .5-.6.8-.9.8Z"/><path fill="#312929" fill-opacity=".5" d="M106 241q3-.2 6 .3-1 .7-2.2 1a7 7 0 0 0-3.4-.3z"/></svg>