<svg xmlns="http://www.w3.org/2000/svg" style="shape-rendering:geometricPrecision;text-rendering:geometricPrecision;image-rendering:optimizeQuality;fill-rule:evenodd;clip-rule:evenodd" viewBox="0 0 512 512"><path fill="#fefeff" stroke="#fefeff" stroke-width=".5" d="M232 187q.6 2.8-.3 5.4-5.1 5.2-10.4 10 .8.6 1.7.1 6.5-4 13.1-7.8v1.1c-5.6 8.8 16.2 23.3-3.1 41.7-14 14.9-31.5-9-39.8 1.7-1.8.4-2.1-1.4-3.2-2.2q-.3-2.2.6-4 2.4-2.6 5.2-4.4c-1.6-1.2-3.3 1.4-4.7 2q-3.9 1-5.5-2.7c.9-1.2-.9-2.4-1.6-3q2.7-1.6 4.9-3.7l7-6.7c-1.7-1.3-8.5 6.8-11.5-.2q-.5-1.3 0-2.6 1.5-2.6 3.6-4.7 1.6 0 1.8-1.6-.6-.8-1.4-.2-.2-.7.3-1 1.6-.4 2.2-1.7-.5-1.9-.6-3.8c.7-4 17.9-11.8 21.7-14.2q4.2-.9 5.3 3.2c.5 1-.7 2.5.3 3.2l9.2-4.6q2.7-.4 5.3.8Zm-43.7 18.2-1.2.8q.3-1 1.3-.8Z"/><path fill="#e0e0fa" fill-opacity=".3" d="M89 207c-1 2-7.8 5.4-9.8 7l-.1-1.4a30 30 0 0 1 9.8-5.6m394 62c.3-1.5 7.2-6 8-4.6-.2 1.4-6.5 4.1-8 4.7m-70 2a7 7 0 0 1-5 3q1-1.7 3-2.6 1-.5 2-.4M77 294c-1 1.5-3.2 3-5 2.8.7-1.5 3.3-2.9 5-2.8m56 61a8 8 0 0 1-5 3c.6-1.8 3.3-3 5-3"/><path fill="#e3e3fa" fill-opacity=".2" d="M365.6 140.3q-.1 1-1.2 1.5-6.9 3.7-13.3 8a5 5 0 0 1-2.2.2q.4-.9 1-1.3l14-8.6q1-.3 1.7.2m68.5 40.6-.1 1.4c-2 1.4-6.7 4.7-9 4.8q.2-.8 1-1.4zM90.3 224.3l-1.2.8q0-1.3 1.2-.8m18 18-1.2.8q0-1.3 1.2-.8m-11 7-1.2.8q.1-1 1.2-.8M33 254.9q-.2 1-1.2.8zm4 26q-.1 1-1.3.8zm160.9 124.2h1.5q-.5.9-1.4.6z"/><path fill="#e1e1fb" fill-opacity=".2" d="m237.2 99.5-1.2.9q0-1.2 1.2-1M90 222q-.2 1.2-1.4.7zm-19 11q-.3 1-1.3.7zm-8.7 9.3-1.2.8q0-1 1.2-.8M82 254.9q-.2 1-1.2.8zm17 7q0 1.1-1.2.8zm-43 8q-.1 1-1.2.8zm32.4 4.4-1.2.8q.1-1 1.2-.8M73 276.9q0 1.1-1.2.8zm-30.6 7.4-1.2.8q0-1 1.2-.8m11.6 3.6q0 1.1-1.2.8zm151.2 37.2a7 7 0 0 1-5 2.9q1.5-3 5-3m-80.4 34.1.2 1q-1.5 1.6-3.7 2.7l-.2-1.2c.3-1 2.9-1.8 3.7-2.5m138.2 11 1.3.2-1.2.8zm5 22-1 1.2-10.7 6.7-.3-1.4q0-.4.4-.6l9.5-5.6q1-.6 2-.3"/><path fill="#e1e1f9" fill-opacity=".4" d="M213 113c.3-1 2-2.8 3-1.7q-1.1 1.7-3 1.7m124 44q-.3.7-.9.4.3-.4.9-.4m83 33c-.1 1.3-2.1 1.6-3 2.6q-1 .6-2 .3 2-2.4 5-3m-18 38a4 4 0 0 1-3 2q.9-2 3-2m-289 9.2q-.1.9-1.2.6zm-7.2 4q-.2.9-1.1.7zm313.3.8a3 3 0 0 1-3.2 1.9 4 4 0 0 1 3.2-2m-369 3.3q-.4.8-1.5.7zm6.2.7q-.7.5-1.5.8.4-.8 1.5-.8m66.8 2.3q-.6.7-1.5.6.7-.5 1.4-.6m-92.3 8q-.2.7-1.1.6zm8.2 12.6q-.5 1.3-2 1.1.6-1.2 2-1m45.8 1q0 1-1 1.1.3-.6 1-1m323.4 4a7 7 0 0 1-5 2.9c1-1.4 3.1-3 5-2.9m-325.6 4q-.7.6-1.6.7.7-.7 1.6-.6m6.5 21c-.5 1.6-3.4 2.7-4.9 3.1.8-1.8 3-3 5-3.2m204.3 101.2v1.1l-1.5-.6z"/><path fill="#bac2ef" d="m361.7 219.8.5 2.2a53 53 0 0 0-8.2 4.5q-1 .6-2.3.8.4-1 1.2-1.7 4.5-2.7 8.8-5.8m-177.6 103q-.2 1-1.1 1.5l-10 6.3q-.8.7-1.3 1.5a3 3 0 0 1-1.7-2.1l1.4-.4 10.5-6.2z"/><path fill="#d7d7ec" fill-opacity=".2" d="M110 211q-.7 1.1-1.6 1.8l-8 5q-.5-.8-1.5-1 4.6-2.6 9-5.4 1-.4 2-.3m310.7 70.1q.3.9 1.4 1.2-4.6 2.5-9 5.2-1 .6-2 .4.3-.7 1-1.3z"/><path fill="#a4a4b5" fill-opacity=".1" d="M196.7 329.3v.9q0 .7-.7 1-7.5 4.5-14.9 9.4-.9.5-1.8.2v-.7q-.1-.5.2-.8z"/><path fill="#dedef8" d="m224 311.5 3.9 2.3-45 31.2c-1.2-.9-3.5-2.8-3.6-4.2q.9.3 1.8-.2 7.4-4.9 14.9-9.4.7-.3.8-1l1.4-.3a3 3 0 0 0 1.8-2q3.2-.3 5-2.8c1.3-.3 5-1.7 5-3q1.4 0 2-1c.6-.3 4-1.3 2.6-2.2-1.2 0-3 .6-2.6 2.1q-1.4-.5-2 1c-1.9-.4-4.3 1.3-5 3q-3.3 0-5 3-1.3-.3-2.2.9l-1 .4-17.3 10q-.4.3-.2.8-1.5-.3-2.4-1.3 0-.5.6-.8z"/><path fill="#e1e1f8" fill-opacity=".3" d="M226 117q-.9 1.9-3 2 .8-2 3-2M73.3 235.2l-1.2.7q0-1 1.2-.7M64 237q-.2 1-1.2.8zm52.3.3-1.2.7q0-1.2 1.2-.7m309.7.6c-.9 2.1-3.9 2.6-5.5 4H419c.4-1 5.5-4.1 6.9-4m-366.7 6.3-1.2.9q.2-1 1.2-.8m46 0-1.2.9q0-1 1.2-.8M94 248q-.3 1-1.3.8zm.3 3.3-1.2.7q0-1 1.2-.7M111 255q-.2 1.1-1.3.7zm-27.7 3.3-1.2.7q0-1 1.2-.7m-11 7-1.3.7q.2-1 1.2-.8m13 11-1.3.7q.2-1 1.2-.8M411 287.8a6 6 0 0 1-5.1 3q2-2.6 5-3"/><path fill="#c6c6d9" fill-opacity=".2" d="m68.7 298.2.1 1q0 .5-.3.8-6.4 3.8-12.7 7.8a3 3 0 0 1-1.8-1.4q7.5-3.9 14.7-8.2"/><path fill="#e1e1f8" fill-opacity=".4" d="m218.2 138-.2 1-1.2.1q.3-1 1.4-1m175 14.2 1.2-.2q-.7.8-1.8 1zM415 193a4 4 0 0 1-3 2q.9-1.9 3-2m44 13.1a4 4 0 0 1-3 2q.8-2.2 3-2M81.2 230l-1.3.8q.4-.8 1.3-.8m-13.9 9-1.5.8q.5-.8 1.5-.7M43 249.4q-.4.8-1.4.7.7-.5 1.3-.7m-3.7 7.8-1.6.6q.6-.7 1.6-.6m33.6 3q-.3 1-1.3 1a3 3 0 0 1 1.3-1m17 7.1q-.1.9-1.2.7zm-42.9 8q-.3.9-1.4.8zM65.4 289q-.6.5-1.3.8.4-.8 1.3-.8m26.7 8q-.9 2-3 2 1-1.7 3-2m51 52q-.9 2-3 2 .8-2 3-2"/><path fill="#e1e1fa" fill-opacity=".4" d="M298 120a4 4 0 0 1-3 2q.9-2 3-2M87.8 223.1q0 1-1 .8zm-18.9 11q-.3.9-1.2.7zm44.3 5-1.2.6q.3-.8 1.2-.5m-11 6.8q-.6.6-1.5.7.8-.6 1.5-.7m-11 7q-.5.6-1.3.8.4-.9 1.4-.8m-48.9 2q-.7.6-1.5.8.6-.8 1.5-.8m37.8 1.3q-.5.7-1.4.7.6-.6 1.4-.7m.2 3.8a3 3 0 0 1-1.5.7q.5-.7 1.5-.7m16.7 3q-.4.9-1.4.8zm386 6c-1 1.4-3.3 3-5 3 1-1.6 3.1-3.3 5-3m-429 2.2q-.5.6-1.3.6.6-.4 1.3-.6m17 7q-.3.8-1.4.7.6-.6 1.4-.8M157 380a3 3 0 0 1-2.8 2 3 3 0 0 1 2.8-2"/><path fill="#e1e1f9" fill-opacity=".5" d="M339 156q-.5 1.3-2 1 .5-1.3 2-1m-221 50c.3-.7 1.3-1.6 2-.8q-.9 1-2 .7m-76 61a3 3 0 0 1-3 2q.8-2.2 3-2m45 21q.4-1 1.5-1.1c1.1.7-1 1.3-1.4 1.1m7 8q-.5 1.3-2 1 .5-1.3 2-1m118 25c-.4-1.5 1.4-2 2.6-2 1.5.8-2 1.8-2.6 2m64 66c.2-.7 1.3-1.6 1.9-.8q-.7 1-1.8.8m2 11a8 8 0 0 1-5 3c1-1.4 3.2-3.2 5-3"/><path fill="#e3e3fb" fill-opacity=".2" d="m116.3 256.3-1.2.8q0-1 1.2-.8M63 265.9q-.1 1.1-1.3.8zm-39.6 1.4-1.5.9q.3-1.1 1.5-.9m56.6 5.6q-.2 1-1.2.8zm-16.6 17.4-1.2.8q.2-1 1.2-.8M79.1 305q-.3.9-1 1.3L67 313l-.2-1.4a163 163 0 0 1 10-6.2q1-.4 2.1-.4"/><path fill="#e1e1f9" fill-opacity=".3" d="M460.7 205.3c.3.8-1.2.7-1.7.7q.5-1.2 1.7-.7m-365.5 14q-.4.8-1.5.5zM84.3 228l-1 1q0-1 1-1m2.7 24.2q-.3 1-1.3.8zm17 7q-.4.9-1.4.7zm6.2.8-.9 1q-.1-1 1-1m-52.9 34-1 1q0-1 1-1m152.8 28c-.1 1.4-3.8 2.8-5 3 .6-1.7 3-3.4 5-3M384 348q.6-1 1.6-1.1c1.2.8-1 1.3-1.6 1m-246 4c-.4 1.7-3.3 2.8-4.9 3 .4-1.6 3.4-2.7 4.9-3"/><path fill="#c4c4d8" fill-opacity=".8" d="M106.6 149q.2 1-.7 1.5-6 3.8-11.7 7.8 0-2.4 2.2-3.7a40 40 0 0 1 5.7-3.2 6 6 0 0 1 4.5-2.3"/><path fill="#e2e2f9" fill-opacity=".4" d="M261.9 98.7q-1.5.3-3 0c0-1 3.2-1.1 3 0M295 122q-.5 1.2-2 1 .5-1.2 2-1m-177 84c.3 1.8-1.9 1.8-3 2-.2-1.4 2-1.8 3-2m-22.8 15q-.6.6-1.4.8.4-.9 1.4-.7M416 244q-.5 1.5-2 1.1.6-1.2 2-1.1m-317 1.3q-.5.7-1.4.7.6-.5 1.4-.7m17 6.9q-.4.8-1.4.8.6-.6 1.3-.8m-92.1 8q-.3.9-1.3.7zm4.3 3.8q-.7.6-1.5.8.5-.8 1.5-.8m374.8 13q-.4 1.4-1.9 1 .7-1 2-1m-355.7 4a3 3 0 0 1-1.5.7q.4-.9 1.5-.7M45 293q-.3.9-1.3.9zm114 86q-.6 1.1-2 1 .5-1.3 2-1"/><path fill="#e1e1f9" fill-opacity=".4" d="M213 113c0 .9-1.3 1.6-2 .7q.7-1 2-.7m8 7a5 5 0 0 1-3 2q.7-2.1 3-2m123 33c-.4 1.3-3.6 3.3-5 3 .5-1.5 3.4-3 5-3m68 42q-.5 1.3-2 1 .5-1.2 2-1m-318 9a4 4 0 0 1-3 2q.8-2 3-2m362 4c-.2.7-1.4 1.7-2 .7q.8-1 2-.7m-338 26.2c.3 1-.7.6-1.2.6zm246 2.8c.1 1.3-2.2 1.5-3 2 .9-1 1.4-2.3 3-2M87 288q-1 1.7-3 2 .9-2 3-2m319 2.9c-.3 1.2-4.3 4.3-5 2.8a9 9 0 0 1 5-2.8m-263 58c.2-.6 1.3-1.5 1.9-.6q-.8.9-2 .6M276 387a4 4 0 0 1-3 2q1-2 3-2"/><path fill="#e0e0f9" fill-opacity=".3" d="M298 120a9 9 0 0 1 4.6-3c1.4.7-3.5 3.4-4.6 3m-75-1a2 2 0 0 1-2 1q.6-1.2 2-1M98.3 219l-1 1q-.3-1.3 1-1m-22.5 11q0 1-1.1.9zm-5.6 6.9-1 1q0-1 1-1m-38.8 25-1.2 1q0-1 1.2-1m65 7-1.1 1q0-1 1-1m43.5 82q-.6 1.2-2 1 .8-1.2 2-1M273 389a2 2 0 0 1-2 1 2 2 0 0 1 2-1m0 12c-.8.9-1.1 2.2-2.5 2.1-1.5-1.5 1.4-2.1 2.5-2.1"/><path fill="#e0e1f9" stroke="#e0e1f9" stroke-width=".5" d="M297 109.3c3.5.5 25.1 4.2 26 6.6q-15.4 10-31 19.8-.6.5-.7 1.4h-3.4q-5.5-.2-10.8-2-.4-1.1-1.6-1.2-1.7-.2-2.6 1-7.9-.7-15.8-1v-1.1l36.3-21q2-1 3.7-2.5Zm1 10.6q-2.1.2-3 2-1.5 0-2 1.1-1.2 0-2.2.4-2.1 1.6.6 1.1 1.1-.3 1.6-1.5 1.5.2 2-1a4 4 0 0 0 3-2c1 .4 6-2.3 4.6-3a9 9 0 0 0-4.6 3Zm51.1 6.7q5.7 2.5 11 5.7l-1.9 1.5q-1.4.2-2.6-.4-4.2 2.8-8.7 5.4-.9.5-.7 1.4c-5.7 4.2-13.6 8.8-20 11.8a188 188 0 0 1-11.3-6q1.3-.3 2.5-1zm15.6 104.3 1.4 8.2-39.7 22.9q-2.1 1.4-4.6 2.1-.1-2.1.2-4.2zm-.8 6c-1.5-.2-2 1.1-3 2q-1.2-.2-2 .8c.7.9 2 .2 2-.8.9-.4 3.3-.6 3-2q.6 0 .8-.5-.7-.3-.8.6Zm-162.4 55.9q1.6 1.5 2.8 3.3c-5.6 4-16 10.8-21.5 13.9v-.5a148 148 0 0 0-11 6c-2.5 1.5-6.1 4-8.9 4.8q-.6-2.2-1.8-4 20.4-11.4 40.4-23.5Zm-3.5 75.5 1-.3.9-.2c8.3 2.4 16.5 5.4 25 7l.1 1.2c-5.1 1-28.6 16-35 19.3-7.8-1.2-16-4.3-23.3-7.3l24.7-15.2q1.2-1-.4-1.8 1.7-1.3 3.7-2.2c2.4-.5 1 2.3 3.3-.5Z"/><path fill="#e1e1f9" fill-opacity=".5" d="M293 123q-.5 1.2-1.6 1.6-2.7.5-.6-1.2 1-.4 2.2-.4m-160 25c-.5.7-2 3-2.9 1.6.2-1 2.1-1 3-1.6m277 48c0 .9-1.3 1.6-1.9.7q.7-.9 1.8-.7m-13 35q-.6 1.2-1.6 1.6-2.6.5-.5-1.2 1-.4 2.1-.3m17 14q-.7 1-1.6 1.8-2.6.2-.5-1.3 1-.4 2.2-.5M42 267q.4-1 1.5-1c1.2.7-1 1.2-1.5 1m434 6c-.7.7-2 3-3 1.6.2-1.3 2-1.4 3-1.5m-76.2 6c.3 1-1.3 1.6-1.9.7q.7-1 2-.7M159 379a3 3 0 0 1 2.6-2c1.7 1.2-1.7 2.3-2.7 2"/><path fill="#c1c1d4" fill-opacity=".2" d="M388.6 221.3q.2 1 1.1 1.3-4.5 2.8-9.2 5.4l-2.3.8-.9.2v-.7q5.6-3.7 11.3-7"/><path fill="#e0e0f9" fill-opacity=".4" d="M349 150a7 7 0 0 1-5 3c.7-1.5 3.3-2.8 5-3M61 267.3q-.5.7-1.4.7zm17 7q-.4.8-1.3.6zm4 16.8c-1 1.7-3.2 2.6-5 3 .6-1.7 3.2-2.9 5-3"/><path fill="#e0e0f8" fill-opacity=".3" d="M115 208a7 7 0 0 1-5 3c.7-1.7 3.1-3 5-3m-58 33q-.3 1-1.3.8zm73 3q-.3 1-1.3.7zm-5.7 7.3-1.3.7q.2-1.1 1.3-.7M38 252q-.3.9-1.3.7zm7.2 1.2-1.2.8q.2-1 1.2-.8M42 278q-.2 1-1.2.8zm17 7q-.2 1.1-1.3.7zm12.2.2-1.2.8q.3-1 1.2-.8m-32 1-1.2.8q.2-1 1.2-.8"/><path fill="#e1e1f9" stroke="#e1e1f9" stroke-width=".5" d="M135.9 225.1c.3 1.1-.3 3.5.8 4.2l-2.2 11.5q-.3.7-.2 1.6a4 4 0 0 0-2.4.5l-1.2.8q-.4 0-.7.3l-1.3.7-5 3-.7.6q-.8.1-1.4.6l-4.8 2.9-.8.4q-.8.2-1.3.8l-5 2.7a69 69 0 0 1-7 4.2l-5 2.8-.7.5q-.8.2-1.4.7L92 266l-1.3.7-.8.5-1.2.7-4 2-1 1.1a25 25 0 0 0-5 2.7l-.8.5-1.2.7-5 2.8-.7.5q-.8.3-1.4.8a32 32 0 0 0-4.9 2.8l-.8.4-1.3.7-1.7 1-1.3.7-.6.4-1.3.7-5 3-.7.5q-.8.2-1.3.8-2 .9-3.7 2l-1.3.7-.7.4-1.3.9-1.8 1.2c-1.3-1.7-5.8-5.4-6-7.3q1.2-.1 2.1-1l3-1.8 1.3-.8 3.5-2.5 4.4-2.6 1.9-1.1 1.2-.8q1.8-1.1 3.5-2.5.7-.2 1.6-.8l2.8-1.8 3.1-2a19 19 0 0 0 3.4-2.4l1.5-.7L71 266l1.2-.8 3.1-2q1.8-1 3.5-2.4a3 3 0 0 0 1.5-.7l1.8-1 1.2-.9 1.8-1.1 1.2-.8 3.6-2.5q.8-.2 1.4-.8l1.8-1q.6-.2 1.2-.8l1.8-1.1 1.2-.8a13 13 0 0 0 3.4-2.7q.9 0 1.5-.6l1.9-1 1.2-.8 1.8-1.1 1.2-.8a19 19 0 0 1 4.9-3 6 6 0 0 1 1.9-1.3l1.2-.7q1.6-1.4 3.4-2.3c1.8-1 4.4-2 5.3-3.9q1-.3.8-1.3c3.2-2.7 7.1-3.6 10-4.7Zm33.3 122.6 6.9 5.7q.7.6.6 1.6a52 52 0 0 1-5.6 3.4l-8.6 5.5q-2.1.7-4.1 2a491 491 0 0 0-17.6 10.4c-1.6-.7-8.5-3.7-8.8-5.2q18.8-11.5 37.2-23.4Z"/><path fill="#e5e5fa" fill-opacity=".2" d="m415.7 219.2.3.8c-.1 1.2-5.9 3.7-7 4.7q-1 .4-2 .4.3-.8 1-1.4z"/><path fill="#6273b3" fill-opacity=".1" stroke="#6273b3" stroke-opacity=".1" stroke-width=".5" d="m166.7 301.4-.2.6-7.4 5q.1-1.3-1.3-1.5 3.8-1.7 7.2-4.1.8-.4 1.7 0Z"/><path fill="#5b6cc1" fill-opacity=".1" stroke="#5b6cc1" stroke-opacity=".1" stroke-width=".5" d="M271 364.9q0 1-.9 1.7-3 1.7-5.8 3.7l-1.3-.2-1.2-.2q4.4-3 9.1-5Z"/><path fill="#71717c" fill-opacity=".1" d="M420.7 216q.8.3 1.3 1-1.4 1-3.2 1.2.3-1.6 1.9-2.2M66.9 311.5l.1 1.4q-1.4 1.1-3.3 1l.2-1q1.5-.9 3-1.4m189.1 87 .3 1.3q-1.5 1.2-3.4 1.1a4 4 0 0 1 3.1-2.4"/><path fill="#e0e0fb" fill-opacity=".2" d="m76.3 233.3-1.2.8q0-1 1.2-.8M108 240q-.2 1.2-1.3.7.5-.4 1.3-.7m-56 4q-.3 1.1-1.3.7zm73 3q-.3 1.1-1.3.7zm-38.7 9.3-1.2.8q0-1 1.2-.8m19.6 1.6q0 1.1-1.2.8zm-30.6 5.4-1.2.8q.1-1 1.2-.8m27 2-1.2.8q0-1 1.2-.8m-38 5-1.2.8q0-1 1.2-.8m-11 7-1.2.8q.1-1 1.2-.8"/><path fill="#e3e3f8" fill-opacity=".1" d="M262.8 99.2q1.3 0 1.3 1.2l-1.1-.5zm-77.6 19.3-1 .6q0-1.2 1-.5m66.6 12.4q0 1.1-1 .6zm147.3 25a2 2 0 0 1-1 1.2q.3-.9 1-1.2m-50.9 12.7-1.2.5q.2-1 1.2-.5M133 244.9l-.2 1.1-.4.3q0-.8.6-1.4m-112 1q-.2 1.1-1.3.7zm436 63q-.3.8-1.2.8zm-362 33q0 1.1-1.3.8zm131.2 67 1 .2v.8q-1-.2-1-1"/><path fill="#a3abc9" d="M212.2 269.7c-.7 1.7-4.3 3.9-6 4.6l-.2-2z"/><path fill="#e1e1f8" fill-opacity=".3" d="M407 225a4 4 0 0 1-3 2q.8-2 3-2M18.2 247h.8a2 2 0 0 1-1.3 1.1zm26.8 1q-.3 1-1.3.8zm30 11q-.2 1-1.3.8zm17 7q-.3 1.1-1.3.7zm-31.7 26.3-1.2.8q0-1.1 1.2-.8m3.6 20.7-.2 1-.5-.3q.1-.6.7-.7"/><path fill="#dfdffb" fill-opacity=".2" d="M78 229q-.2 1-1.4.7zm54 14q-.2 1.1-1.4.6zm-1.7 4.3-1.2.8q0-1 1.2-.8M414.9 269q0 .7.3 1.3-.9.9-2.2.7.6-1.3 1.9-2M77.3 281.3l-1.2.8q0-1 1.2-.8M200 328a3 3 0 0 1-1.8 1.9l-.4-1q.9-1.1 2.2-1"/><path fill="#c6c6de" fill-opacity=".2" d="M381 350a14 14 0 0 1-4.6 3.8q-.6-.7-1.4-1c1.8-.7 4-3.2 6-2.8"/><path fill="#b7bfee" d="M163.2 194.7c-.7 1.8-4.4 4.2-6.4 4.5a5 5 0 0 1 1-2.1q2.7-1.4 5.4-2.4"/><path fill="#768fdf" fill-opacity=".4" stroke="#768fdf" stroke-opacity=".4" stroke-width=".5" d="M320.2 183.6h1.1q0 .9-.8 1.3-2.9 1.2-5.3 2.9v-.8c.6-1.8 3.2-3 5-3.4Z"/><path fill="#e1e1fa" fill-opacity=".4" d="M399 230a2 2 0 0 1-2 1q.6-1.2 2-1m-277.6 23q-.7.6-1.6.8.6-.8 1.6-.8m-52.1 14q-.7.6-1.6.8a2 2 0 0 1 1.5-.7m408.7 5q-.6 1.3-2 1 .5-1 2-1m-419.6 2q-.7.6-1.6.8.6-.8 1.6-.7m9.9 13.1-1.5.7q.4-.7 1.5-.7M52 289.2q-.3 1-1.3.8.5-.6 1.3-.8"/><path fill="#e0e0fa" fill-opacity=".2" d="M431.1 234.9a7 7 0 0 1-5.1 3q1.9-2.7 5.1-3M89 250.9q0 1.2-1.2.8zm-39.6 48.4-1.2.9q0-1.1 1.2-.9"/><path fill="#e1e1f9" fill-opacity=".5" d="M34 226.1c.8-.5 2-2 3-.8-.5 1-2.3 2-3 .8m102.3 61-.3.8-1.2-.2q.5-.6 1.4-.7M94 296q.5-1 1.4-1c1.1.7-1 1.1-1.4 1m184 102q.4-1 1.5-1.1c1 .8-1 1.3-1.4 1.2"/><path fill="#cfcfe5" fill-opacity=".8" d="M192.6 403.8q2.8 0 5.2 1.3v.6q-3.2 1-5.2-1.9"/><path fill="#e0e0f7" fill-opacity=".3" d="M364 237q0-.9.7-.6-.2.5-.8.6m-263 7q-.4 1-1.3.7zm26.3 5.3-1.2.8q0-1 1.2-.8M118 251q-.3 1-1.2.8zm-92 8q-.1 1-1.2.8zm8.3 1.3-1.2.8q0-1 1.2-.8m40 23-1.2.8q.2-1 1.2-.8M47 292q-.3 1-1.3.8z"/><path fill="#e2e2f9" fill-opacity=".3" d="M68 263q-.3 1-1.3.7zm-6.8 9.2-1.2.8q.3-1 1.2-.8M401 278q-.2 1-1.2 1zm-350.7 1.4-1.3.7q.2-1 1.3-.8M270.9 390q-.8 2-3 2.1.9-2 3-2.1"/><path fill="#d2d2e9" fill-opacity=".7" d="m146.3 126-.2 1c-.3 1.1-3.1 2-4.2 2.4l-.6-.3c-.8-1.1 4-2.7 5-3"/><path fill="#7b7b86" fill-opacity=".9" d="M282 101h.7q2.3.6 4.4-.2 1.5 0 2 1.2l-6.4-.4a1 1 0 0 1-.8-.6"/><path fill="#787885" fill-opacity=".1" d="m369.4 137.2.5.7c-.1 1.4-3.2 2.3-4.3 2.4.6-3.3 3.5-1.3 3.7-3"/><path fill="#a8a8b8" fill-opacity=".9" d="M504.8 248q1 0 1 1-.2 2.2.3 4.4l-.4.8q-1-3-1-6.2"/><path fill="#e2e2f9" fill-opacity=".4" d="M505.7 249c2.2 0 1.5 4.2.4 4.4q-.6-2.2-.4-4.5M35 282.1q-.3.9-1.2.7zm49 7.9q-.8 1.1-2 1 .5-1.3 2-1m128 31q-.6 1.2-2 1 .6-1.5 2-1"/><path fill="#e1e1f9" fill-opacity=".9" d="M237.2 99.5q3.2-1.3 5.1 1.5l-4.3.4c-.7 0-2.1 0-2-1zm21.7-.8q1.5.3 3 0l.9.5.2.7q-3.1.7-6.3.2.7-1.3 2.2-1.4"/><path fill="#4b67c2" d="m137.8 224-1.1 5.2c-1-.6-.5-3-.8-4q.8-.8 2-1.3"/><path fill="#c0c0d0" fill-opacity=".2" d="M140.7 142.3q0 1 1.1 1.2-1.5 1.5-3.6 1.4c-.4-1.2 1.7-2.1 2.5-2.6"/><path fill="#adadbe" fill-opacity=".7" stroke="#adadbe" stroke-opacity=".7" stroke-width=".5" d="M139.7 130c.3 1.3-1.5 1-2.1.7q1-.7 2-.6Zm-2.1.7c.8 1.4-1.5 2.2-2.5 2.1v-.7z"/><path fill="#5461c1" fill-opacity=".1" stroke="#5461c1" stroke-opacity=".1" stroke-width=".5" d="m327.9 178.7 1 .1q.2.9-.6 1.2-.9 0-1.5.8h-.6q-1.2.2-2.4.1a9 9 0 0 1 4-2.2Z"/><path fill="#95a1d6" d="m360.1 301.9-1 2.1q-1.2 1-2.7 1.2c-1-1.2 2.9-2.9 3.7-3.3"/><path fill="#c1c1d0" fill-opacity=".2" d="m79 212.6.2 1.4a6 6 0 0 1-3.3 1.7q-.1-.9-1-1a15 15 0 0 1 4.2-2.1"/><path fill="#e1e1f9" fill-opacity=".6" d="M287 100.8q-2 .8-4.3.2c.6-1.7 4.8-1.1 4.4-.2m-133 229v1l-1.2-.2z"/><path fill="#e0e0fa" fill-opacity=".4" d="M37 270a3 3 0 0 1-3 2 3 3 0 0 1 3-2m180.3 130-.5 1-.9.2q.2-1 1.4-1.2"/><path fill="#bcbcd0" fill-opacity=".7" d="M305.8 104.4c1-.5 4.5-1 4.5.8q-2.2 0-4.5-.8"/><path fill="#9fafe9" fill-opacity=".2" stroke="#9fafe9" stroke-opacity=".2" stroke-width=".5" d="M323.8 181q1.2 0 2.3-.3c-.3 1.3-2 1.7-3.2 2.6l.2-1.6z"/><path fill="#4a5da3" fill-opacity=".1" stroke="#4a5da3" stroke-opacity=".1" stroke-width=".5" d="m323.1 181.7-.2 1.6q-.7 0-1.6.4h-1.1a4 4 0 0 1 2.9-2Z"/><path fill="#787881" fill-opacity=".7" d="M120 141q-.1 1-1 .7.1-.6 1-.7m-1 .7q-.5 1.5-2 1.1.5-1.2 2-1m-2.7 1.4.6-.3q0 .8-.7 1z"/><path fill="#5270d7" d="m277 135.1-4-.1q.8-1.5 2.5-1 1.3 0 1.6 1.1"/><path fill="#878795" fill-opacity=".8" d="M134 133.4q-.5.5-1.3.2.7-.3 1.4-.2m-1.3.2q0 1.4-1.5 1.7 0-1.5 1.5-1.7m-2.4 1.4 1 .3q-.4.5-1 .5z"/><path fill="#e1e1fa" fill-opacity=".5" d="M218 122c-.4.7-1.4 1.6-2 .6q.8-1 2-.5m143 117c0 .9-1.4 1.6-2 .7q.6-1 2-.8"/><path fill="#9aa9e8" d="M240.2 321.8q-.6 2.4-3 2.2c-.1-1.5 1.9-1.8 3-2.2"/><path fill="#a8a8bc" fill-opacity=".1" d="m433.9 233.4.4.2q-1.4 1.3-3.2 1.3.7-2.2 2.8-1.5"/><path fill="#5a6cab" d="M151.7 191.1q0 .6-.6.7 0-.7.6-.7m-.6.7q-.3.9-1 1.6 0-1.2 1-1.6m-1 1.6q0 1.1-1 1.6c0-.5 0-1.9 1-1.6"/><path fill="#e2e2f8" fill-opacity=".3" d="M83 226q-.1 1-1.3.8zm4.3.3-1.2.8q0-1 1.2-.8M49 274q-.3 1-1.3.8zm17 7q-.2 1-1.2.8z"/><path fill="#9b9baa" fill-opacity=".7" d="m315 396-.3 1c.3 1-2.2 1-2.8 1.1 0-1.3 2.1-1.6 3.1-2.2"/><path fill="#b3b3c6" fill-opacity=".8" d="M329.4 397.9c-.3 1-2.5 1.9-3.4 2.1l.2-1c-.2-1.2 2.5-1 3.2-1.1"/><path fill="#e9e9fc" fill-opacity=".2" d="M252.9 401q-.2 1.7-1.8 2-.2-.9-1.3-1.2 1.5-1.1 3-.8"/><path fill="#9da6d0" d="M276.2 142.2h2.2a5 5 0 0 1-3.5 2q.4-1.2 1.3-2"/><path fill="#8c9ee5" d="M266.8 319.6q1.1 0 2 .7-.6.7-1.5.7zm-24.7 1q-.3 1.7-2 1.2c-.3-1 1.4-1 2-1.1"/><path fill="none" d="M249.8 401.8q1.1.3 1.3 1.3-1 0-1.4.9l-1.3-.3c-.7-.9 1-1.4 1.4-1.9"/><path fill="#92a3e6" d="M188.4 205.2q.8-.6 1.4.2-.3 1.5-1.8 1.6h-.8v-1z"/><path fill="#5976da" fill-opacity=".4" stroke="#5976da" stroke-opacity=".4" stroke-width=".5" d="m313.7 187.2.1.9q-.3 1-1.5.8 0-1.4 1.4-1.7Z"/><path fill="#e1e1f8" fill-opacity=".5" d="M94 204q.4-1 1.5-1.1c1 .8-1 1.3-1.5 1.2m214.6 199 1.4.1-.4 1.2z"/><path fill="#9da3b7" d="M238.3 194a3 3 0 0 1-2.2 1.8v-1.1q1-.7 2.2-.8"/><path fill="#b8b8ca" fill-opacity=".3" stroke="#b8b8ca" stroke-opacity=".3" stroke-width=".5" d="M319.9 107.2c.9-.3 3.5-.7 3 1.1h-.7q-1.4-.2-2.3-1Z"/><path fill="#6f6f78" fill-opacity=".8" d="M207.7 106.1c.3 1.1-2.3 1-3 1 .1-1.5 2.1-1.3 3-1"/><path fill="#686870" fill-opacity=".9" d="M48.8 196.8q0 1-1.1 1zm-1.1 1q0 1-.9 1 .3-.7.9-1m-.9 1q0 .8-.7 1.4 0-1 .7-1.4"/><path fill="#66666d" fill-opacity=".2" stroke="#66666d" stroke-opacity=".2" stroke-width=".5" d="M135 284q1 .8 1 2-1-.6-1.8-1.7z"/><path fill="#e2e2fc" fill-opacity=".2" d="M72 297q-.6 1.1-1.8 2 0-.6-.3-1.1.8-1.1 2.1-1"/><path fill="#64646d" fill-opacity=".2" stroke="#64646d" stroke-opacity=".2" stroke-width=".5" d="m462.7 304.7 1.3.5-1.4 1.8-.3-1q-.1-.8.4-1.3Z"/><path fill="#e1e1f8" fill-opacity=".4" d="M81 227.3q-.4.7-1.3.6.6-.5 1.3-.6M93.2 271q-.6.5-1.5.6.7-.5 1.5-.6M64 282q-.3 1-1.3.8z"/><path fill="#dfdffd" fill-opacity=".2" d="M418.8 218.2q-.6 1-1.6 1.7l-.2-1q.5-1.4 1.8-.7"/><path fill="#dfdff8" fill-opacity=".2" d="M128 358q-.6 1.2-1.8 1.8l-.2-.9q.6-1.1 2-.8"/><path fill="#8692c8" fill-opacity=".3" stroke="#8692c8" stroke-opacity=".3" stroke-width=".5" d="m235.2 141.3.8-.2-.2 1.2c.2.8-1.3.4-1.7.5z"/><path fill="#dfdff9" fill-opacity=".2" d="m135.2 132.1-.1.7-1 .6q0-1.2 1-1.3M172.9 315q-.1 1.1-1.1.6zm219 47q-.2 1-1.1.6z"/><path fill="none" d="M219.3 108.3q.6-.3 1.4 0c.5.8-1.8 1.6-1.4 0"/><path fill="#9494a3" fill-opacity=".8" d="M178 400.2q1.3-.2 2.3.4-1 .3-2.1.2z"/><path fill="#6a6a71" fill-opacity=".3" stroke="#6a6a71" stroke-opacity=".3" stroke-width=".5" d="M354.8 384.2q-.7 1-1.8 1 .3-1.6 1.8-1Z"/><path fill="#86868f" fill-opacity=".2" stroke="#86868f" stroke-opacity=".2" stroke-width=".5" d="M210 141q-.3 1.2-1.6 1c-.6-1 1-1.2 1.6-1Z"/><path fill="#ccccdf" fill-opacity=".5" stroke="#ccccdf" stroke-opacity=".5" stroke-width=".5" d="M110.2 147.1q-.5.8-1.2 1l-.6-.1c-.7-1.3 1-1 1.8-.9Z"/><path fill="#828293" fill-opacity=".2" stroke="#828293" stroke-opacity=".2" stroke-width=".5" d="m421.1 346.1-.9 1.2-1-.6c-.3-1 1.4-.7 2-.6Z"/><path fill="#8691c3" d="m154 300 .8.4q0 .8-.2 1.4-.7-.7-.7-1.8"/><path fill="#a5a5b5" d="M218.2 138h.8l1 .3q-.8.7-2 .6z"/><path fill="#e1e1f8" fill-opacity=".1" d="M364.8 188.8q0 1.1-1.2.9zm8 184.1q0 1-1 .5z"/><path fill="#e3e3f9" fill-opacity=".2" d="M87 269q-.2 1-1.4.7zm-26 15q-.3 1-1.3.7z"/><path fill="#82828d" fill-opacity=".2" stroke="#82828d" stroke-opacity=".2" stroke-width=".5" d="m444.3 188.9.7 1.3q-.1.6-.7.9z"/><path fill="#e0e0f8" fill-opacity=".3" d="m99.2 267.3-1.2.7q.2-1 1.2-.8M464 303.9v1.3l-1.2-.5z"/><path fill="#606068" fill-opacity=".5" d="M504.8 263.7c.2.8.4 2.5-1 2.2q.2-1.2 1-2.2"/><path fill="#838390" fill-opacity=".2" stroke="#838390" stroke-opacity=".2" stroke-width=".5" d="M488.7 242q.3.8.1 1.7l-.7.3z"/><path fill="#e0e0f8" fill-opacity=".4" d="M107.4 262q-.7.6-1.7.7.6-.6 1.7-.6m-53 34q-.7.6-1.5.8.5-.8 1.4-.8"/><path fill="#767680" fill-opacity=".9" d="M322.2 108.3h1.6l.3.5q-1.2.3-2-.5"/><path fill="#e3e3fb" fill-opacity=".2" d="m48.3 251.3-1.2.8q0-1 1.2-.8m65 7-1.2.8q0-1.1 1.2-.8"/><path fill="#696971" fill-opacity=".7" d="M28.3 220a4 4 0 0 1-1.5 1.2q.3-1.1 1.5-1.2"/><path fill="#81818e" fill-opacity=".5" d="m125.4 138-1.4 1.4q0-1.5 1.4-1.4"/><path fill="#727278" fill-opacity=".2" stroke="#727278" stroke-opacity=".2" stroke-width=".5" d="M323.8 108.3q.9-.3 1.2.7l-1-.2z"/><path fill="#67676e" fill-opacity=".7" d="m134.5 240.8-.2 1.6q0-.9.2-1.6"/><path fill="#5a5a62" fill-opacity=".4" d="M503.8 266.8q0 1.2-1 1.2.3-.7 1-1.2"/><path fill="#7d7d89" fill-opacity=".7" d="M126.9 137.2q-.3.6-1 .4.4-.4 1-.4"/><path fill="#73737e" fill-opacity=".8" d="m128.2 136.1.8.2q-.3.5-1 .6z"/><path fill="#6f6f78" fill-opacity=".5" d="m166.2 123.2-1 .7a1 1 0 0 1 1-.7"/><path fill="#b2b2c4" fill-opacity=".2" stroke="#b2b2c4" stroke-opacity=".2" stroke-width=".5" d="m128.2 136.1-.1.8-1.2.3q.2-1.2 1.3-1Z"/><path fill="#b7bfef" fill-opacity=".1" stroke="#b7bfef" stroke-opacity=".1" stroke-width=".5" d="m313.7 187.2 1.5-.2v.7l-1.4.4z"/><path fill="#9a9aaa" fill-opacity=".3" stroke="#9a9aaa" stroke-opacity=".3" stroke-width=".5" d="m123.4 139-1.4 1.4q0-1.2 1.4-1.4Z"/><path fill="#7b8ac4" fill-opacity=".6" stroke="#7b8ac4" stroke-opacity=".6" stroke-width=".5" d="m358.6 210.8.3 1h-.6q-.2-.6.3-1Z"/><path fill="#8c9de6" fill-opacity=".7" d="M328.3 180q-.4.9-1.5.7.6-.6 1.5-.7"/><path fill="#acb7ec" fill-opacity=".4" stroke="#acb7ec" stroke-opacity=".4" stroke-width=".5" d="M331.3 177.9q-.5.9-1.4 1.3.2-1.2 1.4-1.3Z"/><path fill="#9aa8e7" fill-opacity=".6" d="M333.3 177q-.3.8-1.4 1 .4-1 1.4-1"/><path fill="#b9c1f2" fill-opacity=".2" stroke="#b9c1f2" stroke-opacity=".2" stroke-width=".5" d="M336 174.8q-.3 1-1.2 1.5.4-.9 1.3-1.5Z"/><path fill="#7582b8" d="M368.8 306q0 .6-.6 1 0-.6.6-1"/><path fill="#6b76a1" d="M367.8 308q0 .7-.8 1 .2-.7.8-1"/><path fill="#7a7a87" fill-opacity=".6" d="m377.3 229 .9-.2q-.2.8-.8 1.2z"/><path fill="#acb4e1" d="M177 170q-.4.9-1.4 1.2.5-.9 1.3-1.3"/><path fill="#6e6e77" fill-opacity=".8" d="m122 140.4-.9.9q0-1 1-.9"/><path fill="#65656e" fill-opacity=".4" stroke="#65656e" stroke-opacity=".4" stroke-width=".5" d="M31.8 228q-.1.7-.7 1z"/><path fill="#5c77da" fill-opacity=".5" stroke="#5c77da" stroke-opacity=".5" stroke-width=".5" d="M164.6 322h1.7l-1 1.2z"/><path fill="#83838e" d="m108.4 148 .6.2q-.3.6-1 .7z"/><path fill="#84848d" fill-opacity=".2" stroke="#84848d" stroke-opacity=".2" stroke-width=".5" d="M371.6 127.3q1.1-.3 1.3.7z"/><path fill="#d6d6ec" fill-opacity=".6" stroke="#d6d6ec" stroke-opacity=".6" stroke-width=".5" d="m108.4 148-.4.9q-.8 0-1.4.2.6-1 1.8-1.1Z"/><path fill="#b2b2c2" fill-opacity=".3" stroke="#b2b2c2" stroke-opacity=".3" stroke-width=".5" d="M130.3 135v.8l-1.3.5q0-1.2 1.3-1.3Z"/><path fill="#8e8e9b" fill-opacity=".9" d="m111.2 146 1 .4-1 .5z"/><path fill="#97a3e0" fill-opacity=".6" stroke="#97a3e0" stroke-opacity=".6" stroke-width=".5" d="m207.7 361.4.2.7-1-.5q.3-.5.8-.2Z"/><path fill="#dcdcf1" fill-opacity=".3" stroke="#dcdcf1" stroke-opacity=".3" stroke-width=".5" d="M111.2 146v1l-1 .1q0-1 1-1Z"/><path fill="#82828e" fill-opacity=".4" stroke="#82828e" stroke-opacity=".4" stroke-width=".5" d="M199.2 366.9q.6.1.7.9l-.9.2z"/><path fill="#71717b" fill-opacity=".8" d="M381.7 133q1 .3 1.7 1.1-1.1 0-1.7-1"/><path fill="#b7b7c9" fill-opacity=".5" stroke="#b7b7c9" stroke-opacity=".5" stroke-width=".5" d="m113.3 145-1.1 1.4q0-1.2 1.1-1.5Z"/><path fill="#707eb6" d="M285 374.2q-.2.6-.9.7.1-.8 1-.7"/><path fill="#696971" fill-opacity=".8" d="M397 142q.9 0 1.2.9-1 0-1.1-1"/><path fill="#a5b3ec" fill-opacity=".2" stroke="#a5b3ec" stroke-opacity=".2" stroke-width=".5" d="m227.2 375.8.9.1q-.2.8-.9 1z"/><path fill="#9292a0" fill-opacity=".7" d="M115 144.3q-.3.6-.9 1-.2-1.2 1-1"/><path fill="#7d7d88" fill-opacity=".5" stroke="#7d7d88" stroke-opacity=".5" stroke-width=".5" d="m153.1 382.3 1-.4-.3 1q-.6 0-.7-.6Z"/><path fill="#e1e1f8" fill-opacity=".6" stroke="#e1e1f8" stroke-opacity=".6" stroke-width=".5" d="m141.3 129.1-.3.8-1.3.2a2 2 0 0 1 1.6-1Z"/><path fill="#aeaec0" d="m141.3 129.1.6.3q-.3.5-1 .5z"/><path fill="#626269" fill-opacity=".6" d="M331.4 397q-.6.9-1.5.7.5-.7 1.5-.7"/><path fill="#adadbe" fill-opacity=".2" stroke="#adadbe" stroke-opacity=".2" stroke-width=".5" d="m116.3 143.1-.1.7-1.2.5q0-1.3 1.3-1.2Z"/><path fill="#5d5d64" fill-opacity=".9" d="M175.8 399.6q.8-.4 1.2 0z"/><path fill="#e0e0f6" fill-opacity=".3" stroke="#e0e0f6" stroke-opacity=".3" stroke-width=".5" d="m177 399.7 1 .5.2.6q-1.1 0-1.2-1.1Z"/><path fill="#e1e1f9" fill-opacity=".2" d="M21 262q-.3.7-1.2 1 .4-.9 1.1-1"/><path fill="#e1e1f9" stroke="#e1e1f9" stroke-width=".5" d="m218.2 104.1-10.5 2q.5-.8 1.3-1.4c3-1.7 6.7-4.6 9.2-.6Zm25 1.7q2 1 3.7-.5 8.6-.5 17.2 0l-51.8 33.3q-.9.5-1.2 1.5-1 0-1.1.9c-.7-.2-2.2 0-1.6 1q-1-.1-1.1 1l-1.3.1q-.8 0-.8.7-2.2.6-4.2 1.7a115 115 0 0 0-49.3 45.6q-.7 0-.6.7-1 .4-1 1.6c-1-.3-1 1-1 1.6l-7.2 15.8c-1.9.6-1.6 2.9-1.6 4.4a36 36 0 0 1-1.8 6.6q-.3.5-.3 1.1l-.4 1-2 1.2c-2.9 1.1-6.8 2-10 4.7q-.7.5-.8 1.3c-1 1.9-3.5 3-5.3 3.9q-.2-1.5-1.7-.8l-1.2.6a84 84 0 0 1-11 6.5q-.6 0-1.1.6l-5 2.8-.6.6q-.8.2-1.4.7a36 36 0 0 0-5 2.8l-.8.4-1.2.7-1.8 1-1.3.8-.6.5-1.3.8a40 40 0 0 0-5 2.7l-.6.6q-.8 0-1.4.7a27 27 0 0 0-5 2.8l-.8.3a129 129 0 0 0-11.3 6.6l-.6.6-1.4.7-5 2.7-.6.6q-.8.2-1.3.6l-5 2.9-.7.4-1.4.8-4.9 2.8-5 3-.9.4-1.1.7-2 1.3-5-7.2.5-1.2a2 2 0 0 0 1.8-.2c1.1-1.1 4.6-2.2 5-3.7q2.1 0 3-1.9 1.5.2 2-1 2.1-.1 3-2c.4.2 2.7-.3 1.5-1a2 2 0 0 0-1.5 1q-2.3-.2-3 2-1.4-.2-2 1a3 3 0 0 0-3 2c-1.5-.3-6 2.4-6.8 3.8l-1.2.4a36 36 0 0 1-4.2-8l1.5-.9 3.5-2.4q.8-.3 1.4-.9l2-1 1.2-1 1.7-1 1.2-.7q1.9-1 3.4-2.6l1.6-.6 1.5-1.3q.8-.2 1.5-.8l3-1.8 3-2q1.8-1 3.4-2.4l1.6-.7 1.5-1.3q.7-.2 1.5-.8l3-1.7L61 243l1.2-.8 3.5-2.5 1.5-.7q1-.7 2-1l1-1.1 3-1.7L75 234l1.2-.8 3.5-2.5a3 3 0 0 0 1.4-.8l2.1-1 1-1 1.8-1 1.2-.7L89 225l1.2-.8a23 23 0 0 1 5-3.2q.8-.7 2-1.2l1-1 2-1 8-5.1q1.1-.7 1.7-1.7 3-.6 5-3c1.1-.3 3.3-.3 3-2.2q1.1.3 2-.7c-.7-.8-1.7.1-2 .7-1 .3-3.2.7-3 2.1-1.9 0-4.3 1.3-5 3q-1 0-2 .5l-9 5.2-3.8 2.5-1.5.6A11 11 0 0 1 90 222l-1.3.7-.8.5-1 .8a32 32 0 0 0-5 2.8l-.8.5q-.7 0-1.3.6l-3 1.8-.9.4-1.1.9-5 2.7-.8.5-1.2.7-5 2.9-12 7-.6.4-1.5.8-4.9 2.8-.8.5q-.6.2-1.3.7l-4.9 2.7-5 3-.9.5-1.1.7a51 51 0 0 0-5.7 3.3l-1.3.7-1.8 1q-.8.3-1.1 1c-1.3-.5-2.5-8.5-2-10q29.4-18.2 58.1-37.2a6 6 0 0 0 3.3-1.7c2-1.6 8.9-5 9.7-7a2 2 0 0 0 2-1 4 4 0 0 0 3.1-2c.5.2 2.5-.4 1.5-1.1q-1 .1-1.5 1.2-2.2-.2-3 2-1.5-.3-2 1-2.5.6-4.6 2-2.9 1.4-5.3 3.5a15 15 0 0 0-4.2 2q-.6.8-1.4 1.3a2957 2957 0 0 0-53.9 30.7l-.6.3h-.8c0-2.4 10.7-15.4 13-18q.5-.1.6-.9.5-1.6 2.3-1.9c.6 1.3 2.4.1 2.8-.8-.8-1.2-2 .2-2.8.8q0-1 .7-2 34-41.7 78.3-72.4c13.7-9.3 37-22.7 52.1-27.8-3.7 4.4-19.1 14.1-24.5 18.4-.9.5-3 1.4-2.5 2.6-2 0-4.2 1.4-5.2 3.1-.8.5-2.7.5-2.9 1.6 1 1.4 2.4-.9 3-1.6 1.6 0 4.7-1.4 5.1-3.1q2.1 0 3.6-1.4l47-27.2q-.2-.6-.8-.9l2.2-.7q1.2.7 1.6-.5c9-2.4 18.2-5.1 27.5-5.9-.4 1.6 1.9.8 1.4 0 7.2-2 15-2.7 22.5-2.5Zm28.8 0q6.7.5 13.5 1.4 1.2 0 1.8 1l-36.5 23.3q-1.8.8-2.5 2.6-14.4.8-28.3 4.2-.6 0-1-.3 0-.6.5-.8 26-14.7 51.7-29.6 1-.6.8-1.8Zm-59 7.2q-1.3-.3-2 .7c.7 1 2 .2 2-.7q1.9 0 3-1.7c-1-1-2.7.8-3 1.7Zm13 4q-2.2 0-3 2-1.4-.2-2 1-2.3-.1-3 2-1.2-.3-2 .6c.6 1 1.7.1 2-.5a5 5 0 0 0 3-2 2 2 0 0 0 2-1q2.1-.3 3-2.2c1.5.2 11.1-4.8 9.6-6a30 30 0 0 0-9.6 6Zm-62 2q-.4.9-1.3 1.2-7.5 3-14.6 6.3-1 .5-2 .4l.1-.8 13.5-7.7q2.3-.7 4.3.6Zm165.9-.9c2.3 1 9.6 3 10.5 5.2l-1.9.7q-15 9.9-30.6 19.4-6-2.5-12-4.2 0-.7.5-1.1l32.6-18.7q.8-.4.9-1.3Zm30.3 14.2q4.7 2.2 9.2 5c-.3 1.7-3.2-.3-3.8 3q-.8-.6-1.7-.2-6.9 4.5-14 8.6-.7.4-1 1.3c-1.6.2-4.2 1.5-5 3-1.5 0-4.4 1.5-5 3q-1.5-.3-2 1a1 1 0 0 0-.8.4q.6.3.9-.4 1.4.3 2-1c1.4.3 4.6-1.7 5-3a7 7 0 0 0 5-3 5 5 0 0 0 2-.2q6.6-4.3 13.4-8 1-.5 1.2-1.5c1.1-.1 4.2-1 4.3-2.4 3.4 1 7.3 3.7 10.3 5.7-3.4.5-34.7 21-36.3 22.5-5.4-5.5-11.8-9.4-17.8-14.1 6.4-3 14.3-7.6 20-11.8q.8-.5.8-1.4 4.5-2.5 8.7-5.4 1.2.6 2.6.4zm-99 8.4q-.5 1-1.5 1.6l-20.8 11.9c-1.2.6-2.3 2.6-3.8 1.3q.3-.6.8-1 10.5-6.5 20.2-13.9 2.5-.7 5.2 0Zm-26 .6-1 1.5c-2.4.3-2.2 1.8-3.9 2.9-3.3.9-2.9.5-5 3-6.6 3-16.7 9.6-23.3 13.6q-.9.6-1.8.2 0-.8.7-1c3.5-2.7 19.5-14 20-17.4a104 104 0 0 1 14.3-2.9Zm55 4.3q4.5 1 8.8 3-31.8 18-63.4 36.5-1.2.7-2.5 1a2 2 0 0 1 1-1.6 4152 4152 0 0 0 56-38.9Zm94.9 1c2 1 7.3 3.7 8.1 5.6l-.6.8-38.7 24.3c-1.4-2.9-4.9-5.7-6.9-8.2l1.2-.5Q366 158 383.6 148q.8-.5 1.5-1.4Zm-77.2 6.3c1.6.7 5.3 2.4 6.2 4l-56.8 33a3 3 0 0 0-1.2 1l-2.4.3-.8-.2q.4-.9 1.3-1.3l52.6-35.5q.8-.3 1-1.3Zm91.2 3c1.7.2 8.7 4.5 8.9 6l-2 .8-42.4 27-.6.6a155 155 0 0 0-6.4-10.1q1.3 0 2.5-.5l39-22.6a2 2 0 0 0 1-1.2Zm-76.9 6q3.3 2.4 6 5.2-24 14.4-48.3 28.3a8 8 0 0 1-3.3-1.3q1.6-1.8 3.7-3.2c12.8-9 30-19.7 42-29Zm91.8 3.7q4.3 2.8 8.4 6-1.2.3-2.4 1l-50.1 31.6q-2.2-5.3-4.7-10.4a3389 3389 0 0 0 46.5-26.5q1.2-.6 2.3-1.7Zm12 9.3c1.4.2 7.7 5 8.1 6l-8.1 4.8q-.8.5-1 1.4c-1.8-.1-4 1.4-5 2.9q-3 .5-5 2.9-2.2.1-3 2-1.4 0-2 1.1-1.2-.2-1.9.7c.6 1 1.9.2 1.8-.7q1.6.3 2.2-1 2-.4 2.8-2.1 1.2.2 2.2-.3c.8-1 2.7-1.3 2.9-2.6a7 7 0 0 0 5-3c2.3 0 7-3.3 9-4.7l1.2-.7c1.5 1.4 6.6 4.4 6.8 6.4a5117 5117 0 0 0-64.7 40.3q-2.7-10.8-6.1-21.4 26.8-15 53.5-30.5 1-.6 1.3-1.5Zm-78 15q2.1 3.3 4 7l-42 23.5-2.3-3.4c12.7-9.1 27-19 40.2-27.2Zm97 .3c1.2 0 6 5 7.4 5.8q-15.6 10.4-31.7 20-1.5.6-2 2.2-1.2-.6-1.7.6l-1.3.3-7.7 4.6q-.7.5-1 1.4-2.2-.2-3 2-1.5-.4-2 .9-2.1 0-3 2-1.5-.2-2 1-1.1 0-2.1.4-2 1.7.5 1.2 1-.5 1.6-1.5a2 2 0 0 0 2-1.1q2.1-.2 3-2 1.5.2 2-1 2.1 0 3-2 1 0 2-.3c1.1-1 6.9-3.5 7-4.7h1.2q1-.7 1.6-1.8 1.7-.2 3.2-1.2l30.1-17.4 2-2c1 1.7 7 5.9 6.6 7.7q-1.2-.6-1.7.7-2.3-.2-3 2-1.2-.3-2 .7c.6 1 1.8 0 2-.7a4 4 0 0 0 3-2c.5 0 2 .1 1.7-.7 1.8.1 6 4.7 6.3 6.6a970 970 0 0 1-32 19.8q-.8.6-1.1 1.7-2-.7-2.8 1.5a7 7 0 0 0-5.1 3c-1.4-.1-6.5 3-7 4q-2 .3-3 2-1.4 0-2 1.1-1 0-2 .5-2.2 1.5.3 1.3l1.7-1.8q1.5.3 2-1.1a3 3 0 0 0 3-2h1.5c1.6-1.4 4.6-1.9 5.5-4a7 7 0 0 0 5.1-3q1.9 0 3.2-1.3 17.4-9.8 34.5-20c4.2 4 9 9.3 11.4 14.6-21.2 12.8-42.8 27-63.6 39.9l-.3.7-1.4.2q-1.3.7-2 2-1-.1-2 .4a6 6 0 0 0-2.9 2.6c-1.9-.1-4 1.5-5 2.9q-1.3 0-2 1l-1.2 1q-1.2-.2-1.9.8c.6 1 2.2.3 2-.7q.9-.2 1.1-1.1 1.5.4 2-1a7 7 0 0 0 5-2.9 7 7 0 0 0 5-3q1.3.2 2.2-.7l1.2-.7 64.6-37.2a2 2 0 0 0 1-1.4c1.7.8 4.8 6.8 5.2 8.8q-1.1 0-2.3.5L412 286.6l-1 1.3q-3 .5-5 3a9 9 0 0 0-5 2.8c.7 1.5 4.6-1.6 5-2.8a6 6 0 0 0 5-3q1 .2 2-.4l9-5.2 66.1-38.3q.4 0 .7-.3c8.1 16.6 3.6 30.3-9.5 42-1.4 2.3-14.4 18-14.3 18.6q-.5 0-1.1-.4l-1.2.8q-.5.6-.4 1.3c-2.1 0-3.7 1.9-5.5 2.8l-1.1.9q-19.3 13-38.2 26.5a32 32 0 0 1-5.2 3.2q.7.6 1.7.3c9.8-6.7 20.8-12.2 31-18.3a7 7 0 0 1 4.2-.5 206 206 0 0 1-27.2 24.3q-1 0-.9 1c-.5-.2-2.2-.5-1.9.5-5.7 2.1-20.9 11.8-27.3 15.2l-1.1.6a1030 1030 0 0 1-32.2 18.6q-1 .9.2 1.5l-4 1.6q-1.5-.6-1.8 1-1.2-.3-1.9.5c-9.8 4.2-26.4 9.6-36.4 11.2l.3-1c20.5-13.8 41-28.2 61.4-42q2.7-1.5 4.6-3.9a3 3 0 0 0 3-2c.5.2 2.7-.4 1.5-1.1q-1.1 0-1.6 1a3 3 0 0 0-2.9 2.1c-2-.4-4.2 2-6 2.7l-81.8 47.5-1.5.5q-.6.5-.6 1.1a265 265 0 0 1-41.4 2.2q.4-.9 1.4-1 1.5-.3 1.7-2 1.9 0 3.5-1l10.6-6.7q.7-.6 1-1.2 2.3 0 3-2.1a2 2 0 0 0 2.1-1q2.1-.1 3-2 1.2.1 1.9-.8c-.6-.8-1.7.1-1.8.8q-2.2 0-3 2a2 2 0 0 0-2.2 1q-2.1.2-3 2.1-1-.2-2 .3l-9.5 5.6-.4.6q-2.3.3-3.2 2.4-1.5-.3-3 .8c-.5.4-2.1 1-1.5 2-10 .3-21.7-.6-31.5-2.8l.5-1q17-10.6 33.8-21.4.9-.5 1-1.4 12-.2 24-1.4 0 .6.5 1 3.9 1.2 6.4-2l1.1.1q.6 0 1-.7a114 114 0 0 0 82-65.3q.6-.1.7-.8l.4-1.1q.6-.4.5-1 15-36.8 8.7-76 .6-.4.8-1.2l2.3-.8 9.3-5.4q27.1-15.8 54.5-31.5.6-.3.7-.9ZM356 205q1.5 3 2.5 5.8-.4.4-.3 1L317.9 235q-1.2-2-1.8-4 17.8-11.5 35.2-23.4 2.2-1.6 4.9-2.7Zm-169 1v1c-8.3 5.2-33.3 23.9-40.2 27q0-3.4 1.2-7c7.7-2.8 34.4-20.4 39-21Zm-3.1 18.8c.7.7 2.5 1.9 1.6 3q-1-1.2-2.5-.2a1507 1507 0 0 1-37.2 25.2q-.6-3.3 0-6.7c11-5.2 26.6-15.2 38-21.3Zm6 12.2c1 .8 1.4 2.6 3.2 2.2q-.7.8-1.2 1.7l-45 30q-1-3.5-1-6.9l42.8-24.7q1.5-.8 1.2-2.3Zm-57.7 9.3.4-.3q0 1.8 1 3.1c-1.1 12 .4 23 1.3 35q-.5 0-.8.2l-64 37c-1.6-1.4-7.4-5.4-7-7.6l.5.2q1.8.3 3.3-1 5.6-3.2 11-6.6.8-.4 1-1.3 3-.5 5-2.9c1.5-.4 4.4-1.5 5-3.2q2.1.3 3-1.9 1.4.3 2-1c.4.1 2.5-.3 1.4-1q-1 0-1.4 1-1.5-.3-2 1-2 .4-3 2c-2 0-4.2 1.3-5 3.1-1.7-.2-4.4 1.2-5 3q-1-.2-2 .3-5.2 3-10 6.2-1.6.6-3 1.4-.7 0-.8.7c-2.7.2-5.9-4-7.4-5.9q6.3-4 12.7-7.8.3-.3.3-.8.8 0 1.4-.3 1.2-.7 1.8-2c1.8.3 4-1.3 5-2.8 1.8-.3 4-1.3 5-3q1.2 0 2-1 2-.5 3-2c.6 0 2.6-.5 1.5-1.2q-1 .2-1.4 1.1-2.2 0-3 2-1.5-.3-2.2 1c-1.7.2-4.3 1.4-5 3.1-1.6-.1-4.2 1.3-4.9 2.9q-1.4-.3-2 .9l-1.3.3q-7.2 4.3-14.7 8.2c-1.4-1.2-6-4.4-6-6.2l1.3-.9 3.6-2.5q.8-.2 1.4-.8l2-1 1-1 1.8-1 1.2-.7 1.8-1.2 1.2-.8.7-.5q.8-.2 1.3-.8.8-.5 1.4-1.2l1.6-.7 1.7-1 1.2-.9 1.9-1.1 1.2-.8 3-2 .7-.5 1.3-.7 1.5-1.4q.9-.2 1.6-.6l6-3.8a19 19 0 0 0 3.3-2.5q.8-.1 1.5-.7 1-.7 2.1-1.1l1-1a61 61 0 0 0 6-3.7 15 15 0 0 0 3.4-2.5q1-.2 1.7-.7.8-.7 2-1.2l.8-.9 3-1.7 2-1.2 1.1-.8q1.8-1.1 3.5-2.5l1.6-.8 2.8-1.8 1.9-1.1 1.2-.8 1.8-1.2 1.2-.8.5-.5q.8 0 1.5-.5ZM367 249l.3 3.9-29.8 17c-1.8 1.2-2.2 2.3-4.6 2q0-.5.5-1zm.2 15q0 3-.3 5.9c-15.1 8.5-31.2 17.5-46 26.6l-2.1.4q.3-.9 1-1.5zm115.8 5c-2-.3-4.1 1.4-5.1 3q-1.5-.2-2 1c-1 0-2.8.2-3 1.5 1 1.3 2.3-.9 3-1.5q1.5 0 2-1c1.7 0 4-1.6 5-3 1.5-.6 7.8-3.3 8-4.7-.8-1.3-7.7 3.1-8 4.7Zm-316.1 2q-.4 1.2-1.6 1.8l-16.4 10-.2-1.8q8.3-4.6 16.2-9.7zm26.8 7.7q1 2 1.5 4c-7.4 4.4-19.4 13.6-26.5 16.7q-.6 1.5-2 2-1-.4-1.7 0-3.4 2.4-7.2 4.1l-1 .8a8 8 0 0 1-2.2-4.5q.3-.8.2-1.4c11.3-6 28-17 39-21.7Zm171.4 3.4q0 3.6-1.3 6.8c-5.8 3.3-36.2 22-39.7 22.2q0-1 .9-1.5zm-230.3 5.6 1.2.2 3.5 12q-1.5-.1-2.6.3l-54 31.2q-1 .7-1.1 2-3.8-3.6-7.1-7.4 30-19 60-38.3Zm5 15c1.6 1.3 3.5 8.1 4.7 10.4a4209 4209 0 0 1-50.9 29.6l-.9.7a33 33 0 0 1-7-6.5q27.3-16.8 54.1-34.3Zm6.3 14.4c.8.5 5.5 9.1 6.2 10.7a4 4 0 0 0-2.6.5l-42.4 24.4q-.9.6-1.2 1.5-4.2-2.9-8.3-6c.1-1.4 1.6-.8 2.6-1.5l44.6-28.4q.8-.3 1-1.2Zm118 5.8q-.6 1.3-1.8 1.9a5239 5239 0 0 1-54.6 36.6q-.5-.2-.8.3-2.7-1.2-5-2.8 2.9-2.4 6.2-4.3l53.2-30.8q1.4-.7 2.7-.9Zm-27 1c-.3 1.2-39.6 26.4-44 29.4a8 8 0 0 1-3-2.3q.4-.9 1.2-1.3c6-3.3 42.8-25.8 45.8-25.7Zm112 0a20 20 0 0 1-5.1 6.8 76 76 0 0 0-10.7 5.8q-2 .3-.4-1.1 7.3-5.1 14.1-10.8 1-.6 2.1-.8Zm-196.3 6.7 1.2.2a253 253 0 0 0 14.3 15.9c-3.6.1-36.6 20.2-40.4 22.6l-18.2-12 3-1.1zm126.3.3q-.1.6-.7 1.1-26.5 18-52.7 36.7c-2-.6-6.4-1.4-8-2.6q29.3-17.3 58.6-34.3 1.3-.7 2.8-1Zm30 12c-1.3 2.8-29.3 22.6-34 28-4.6.5-8.8 1.7-13.5 1q.4-.8 1.5-.8l1.2-.8q2.8-2 5.8-3.7 1-.7.8-1.7c12.5-6.1 25.8-16.2 38.2-22ZM143 349q-2.1.1-3 2.2-1.2-.3-2 .8c-1.5.4-4.5 1.5-4.9 3.2-1.7 0-4.4 1.2-5 3q-1.4-.4-2 .8l-1.3.3c-.8.7-3.4 1.5-3.7 2.5q-1.8 1 .3 1.2 2-1.2 3.6-2.8.8 0 1.3-.3 1.2-.6 1.9-1.7 3-.6 5-3c1.5-.3 4.4-1.4 4.8-3.2q1.4.4 2-.9 2.3-.1 3-2 1.2.1 2-.7c-.6-.9-1.7 0-2 .6Zm33.8 6.1q.4.8 1.2 1.2l1-.5q9.3 6.2 19.3 11l-.2 1.6c-2.3 2.8-1 0-3.3.5q-2 1-3.7 2.2L166 385.5q-1 .7-1 1.9a80 80 0 0 1-11.1-4.4l.4-1q1.8-.1 2.8-1.9 1.4.3 2-1c.9.3 4.3-.8 2.6-2q-1.8.3-2.7 2-1.2-.1-2 1-1.9.2-2.7 2-.6 0-1 .3-5.5-2-10.5-5l3-1 25.4-15.8q1.5-1 0-2 3-1.5 5.6-3.5Zm81.4 5c0 1.8-2.6 2-3.7 3q-6.3 4.2-12.5 8.7-1.5 0-3.2-.4a5 5 0 0 1 1.6-1.6 224 224 0 0 0 15.6-9.2zm-94.4 16.2c2 0 3.8-1.7 5.3-2.8-.8-1.4-5 1.7-5.3 2.8Zm64.4-.3q6.8 0 13.7 1.1.7 1.3 1.6 2.3L210 398.6q-.7.5-.7 1.4-6.9-1-13.6-2.9 0-.6.7-1 15.6-9.3 30.8-19.1.8-.3.9-1Zm50 22.2c-2-.3-4 1.5-5.1 2.9-1 0-4 .6-2.5 2.1 1.4 0 1.7-1.2 2.5-2.1q3-.5 5-3c.6.1 2.5-.4 1.5-1.1q-1 .2-1.4 1.2Zm48.1.9-.2 1c-4.5 1.6-12.3 10-16.4 4.3l.4-1.2a158 158 0 0 1 16.2-4.1Zm-114.5 8q4.7.9 9.4 1c0 1-2.9 1.2-3.6 1.9q-3.9.6-5.8-2.8Zm66.3 1.3-.3.6c-3.2 1.5-7.2 5.6-10.9 3.8l-3-3.6zm-51 .8q5.2-.1 10.2.1c-2.9 2-7.5 5-10.1.7zm31 .2c-4 2.4-10.5 7.4-13.1.3q6.6 0 13.2-.3Z"/><path fill="#e1e1f9" fill-opacity=".7" d="M163.7 376.2c.3-1 4.5-4.2 5.3-2.8-1.5 1-3.3 2.9-5.3 2.8"/><path fill="#e2e2fa" fill-opacity=".3" d="M384 348a3 3 0 0 1-3 2 3 3 0 0 1 3-2"/><path fill="#e2e2f9" fill-opacity=".3" d="M91 206a2 2 0 0 1-2 1q.5-1.2 2-1"/><path fill="#e2e2fa" fill-opacity=".3" d="M425 187a7 7 0 0 1-5 3c1-1.5 3.2-3 5-3m-21 40q-.5 1.2-2 1 .6-1.3 2-1M84 302.1a8 8 0 0 1-5 3c.6-1.8 3.3-3.2 5-3"/><path fill="#e1e1fa" fill-opacity=".3" d="M138.2 144.9c-.4 1.7-3.5 3.1-5.2 3.1 1-1.7 3.1-3.1 5.2-3.1M34 271.9c-.4 1.5-3.9 2.6-5 3.7a2 2 0 0 1-1.8.2c.7-1.4 5.3-4.1 6.8-3.9"/><path fill="#e2e2fa" fill-opacity=".2" d="M226 117a30 30 0 0 1 9.6-6.1c1.5 1.2-8 6.2-9.6 6"/><path fill="#e0e0f8" fill-opacity=".5" d="M132.3 246.3q-.7.6-1.5.5.5-.8 1.5-.5m-79 1.8-1.6.7q.6-.8 1.6-.7m38.6 1q-.2 1-1.2.8zm-12.6 31-1.3.7q.3-.8 1.3-.7M278 408.3l1.2-.4q-.5 1-1.5 1z"/><path fill="#3859c5" fill-opacity=".9" d="m134.3 243.9-.6 5.2q-1-1.5-1-3l.2-1.2q.5-.8 1.4-1"/><path fill="#262627" stroke="#262627" stroke-width=".5" d="M256 100.2c1.6 1.5 6 1 8.1.2q9 .2 17.8.6.3.5.8.6 3.3 0 6.5.4a227 227 0 0 1 30.7 5.2q1 1 2.3 1 .6.9 1.9.6l1 .2q6 1.8 12.2 3.3c12.2 3.7 23 9.4 34.3 15l1.3.7 8.8 5q.6 1 1.7 1.1L397 142q0 1 1.1.8c34.7 22 94.4 64.8 106.6 105.2q0 3.2 1 6.2.4 4.8-1 9.5-.8 1-1 2.2v1q-.7.3-1 1.2a315 315 0 0 1-171.4 129q-1-.2-1.5.6l-.5.2c-.7.2-3.4-.1-3.2 1a158 158 0 0 0-16.2 4.2l-1.4-.1q-14.6 3.3-29.4 5l-1.2.3-14.2.8-5.7.2a231 231 0 0 1-31-.2l-1-.2q-2.5-.6-5-.9-4.7-.1-9.4-1l-12.4-2-1.5.1q-2.4-1.2-5.2-1.3l-16.8-4.2A264 264 0 0 1 65 334.4c-15.3-16.4-31.7-32.8-46.7-49.3-15.6-18-18.3-36.3-1.3-54.5l8.9-9.1q.3-.4.8-.3a4 4 0 0 0 1.5-1.2c5.3-7 11.5-13.7 17.8-19.8q.8-.5.7-1.4 1 0 .9-1 1 0 1-1a411 411 0 0 1 45.6-38.5l11.6-7.9q.9-.4.7-1.3l1.4-.2q.7-.1 1-.7.8-.3 1.2-1l1-.3 1-.5 1.1-1.5.8.4 1-1 1.1-.5q.7-.2.7-1 1.5.5 2-1 1 .2 1-.8l1.2.3 1-.9 1.3-1.4.6.4 1.4-1.4.5-.4q.7.2 1-.4l1.2-.3q.6 0 1-.6l1.2-.5q.6 0 1-.5 1.4-.3 1.4-1.7.8.3 1.4-.2l1-.6c1 0 3.3-.7 2.5-2.1.6.2 2.4.6 2-.6l1.4-.2q.7 0 1-.5c1-.4 3.8-1.3 4-2.5q1.2 0 2.1-.4 7.2-3.3 14.6-6.3.9-.3 1.3-1.2 1.2 0 2.3-.2c12.6-4.8 25.4-9 38.5-11.7.6 0 3.2.1 3-1l10.4-2 14.4-2.1q2.7 0 5.4-.6 2.1 0 4.3-.4 6.8-.1 13.6-.8Zm-35.3 8q-.8-.1-1.4.1c-9.3.8-18.5 3.5-27.5 5.9q-1-.3-1.6.5l-2.2.7a155 155 0 0 0-22.8 8.5 265 265 0 0 0-52 27.8 375 375 0 0 0-78.4 72.4q-.7 1-.7 2-1.8.3-2.3 2-.4.3-.7.9c-2.1 2.5-13 15.5-12.9 18l-.5 1.1c0 .8-1 4.6.2 4.8-.6 1.5.6 9.5 1.9 10q.3 3 2 5.3a36 36 0 0 0 4.3 8l.6.8 5 7.2c1.4.7 2.8 3.6 4.2 3.7.2 2 4.7 5.6 6 7.3 2.1 1.8 3.5 4 6.2 5 0 1.8 4.5 5 6 6.2a3 3 0 0 0 1.7 1.4c1.6 2 4.7 6.1 7.5 5.9-.5 2.2 5.3 6.2 6.8 7.6q2.2 2.6 4.6 4.7a133 133 0 0 0 11 11 33 33 0 0 0 7 6.4l5 4.8 8.4 6q1.6 1.6 3.6 3l18.2 12.1q1.8 1.4 4 1.8c.4 1.5 7.3 4.5 9 5.2q.8.6 1.8 1 5 3 10.4 5 .1.5.7.6a80 80 0 0 0 13 5 104 104 0 0 0 23.1 7.5q2.8 1.5 5.8 1.7 6.7 2 13.6 3 3.3.9 6.6 1.1l.9-.1c9.8 2.1 21.5 3 31.6 2.6l1.3.3a265 265 0 0 0 62.2-5.9c.6-.2 3 0 2.8-1.1a206 206 0 0 0 36.4-11.2q1.2.3 1.9-.7a2 2 0 0 0 1.8-1l4-1.5c22.5-9 42-21.2 61.4-35.3l1-1.2q.5-.3.8-.9l3-2q13-10.2 24.2-22.3c3.4-2 10.1-10.7 13.4-13.9q.8-.7 1.4-1.8l1-.8c0-.6 13-16.4 14.3-18.7 13.1-11.7 17.6-25.4 9.5-42V242a7 7 0 0 0-1.6-2.1c-.4-2-3.4-8-5.1-8.7q-.1-2-1.9-3a54 54 0 0 0-11.4-14.5q-.3-1.5-1.8-1.7c-.3-1.8-4.5-6.5-6.3-6.6.3-1.8-5.7-6-6.6-7.7q-1-.7-1.7-1.6c-1.5-.8-6.2-5.8-7.4-5.7l-.7-1.4q-1-.7-2.3-.9c-.2-2-5.3-5-6.8-6.4l-1-.7c-.5-1-6.8-5.8-8.2-6-.4-1.5-2.6-2.3-3.6-3.4l-8.4-6c-1.6-1.1-4-3.4-6-3.5-.2-1.6-7.2-6-8.9-6.1-.7-1.7-3.4-2.6-4.7-3.9l-1.2.2c-.8-2-6.2-4.6-8.1-5.6a20 20 0 0 0-5-3c-2.9-2-6.8-4.6-10.2-5.7l-.5-.7q-4.4-2.7-9.2-4.9-5.4-3.2-11-5.7l-7-3.3q-.9-.5-1.8 0c-1-2.2-8.2-4.3-10.5-5.2q-3.1-2-6.9-2.2c-.9-2.4-22.5-6-26-6.6-2.3 0-7.6-2.2-9.7-1.1q-.6-1-1.8-1a198 198 0 0 0-21.4-2q-8.6-.4-17.2 0c-1.1-.2-3.1-.7-3.7.6a81 81 0 0 0-22.5 2.5Zm27.6 26q1.2 0 2.3-.2l6.5-.1q8 .3 15.8 1l4.2.2q5.3 1.8 10.8 2c.3 1.1 2.5.8 3.3.8q2.2 1 4.6 1.3 6.2 1.7 12.1 4.2l7 2.6a188 188 0 0 0 11.2 6c6 4.6 12.4 8.6 17.8 14l3.1 3c2 2.6 5.5 5.4 7 8.3q1.4 1.3 2.6 2.9a155 155 0 0 1 13.3 24l1.3 2.7a288 288 0 0 1 6.1 22.1v1a139 139 0 0 1-9.1 77l-.4 1a1 1 0 0 0-.8 1q-25 52.5-82 65.2-.7 0-.9.7h-1q-3.6-.1-7 1a301 301 0 0 1-34.3 1.1q-6.8-1-13.7-1l-.9-.2-.7-.2-1.5-.8c-8.6-1.6-16.8-4.6-25.1-7q0-.7-.7-1l-1-.1a155 155 0 0 1-20-11.5l-1.5-.2q.2-1-.6-1.6l-7-5.7-.8-1a253 253 0 0 1-14.3-16v-1q-.7-1-1.7-1.9a79 79 0 0 0-6.2-10.7q-.4-2.1-1.6-4c-1.1-2.3-3.1-9.1-4.7-10.5q.5-1.5-.3-2.7l-3.5-12 .3-.9-.2-1a2 2 0 0 0-1.1-2c-1-11.8-2.4-22.9-1.3-34.9q.5-2.6.6-5.2v-1.5q.3-.7.2-1.6l2.2-11.6 1.1-5.3.4-1q.5-.5.3-1.2a36 36 0 0 0 1.8-6.5q1.3-2 1.6-4.4 3.7-7.8 7.2-15.8 1-.5 1-1.6.7-.7 1-1.6.5 0 .6-.7a115 115 0 0 1 49.3-45.7q2-1 4.2-1.6.5-.2.8-.7l1.3-.2q.7-.2 1-.8 1.4 0 1.7-1.2h2q1-.7 2-1 .8 0 1.4-.7l1.4-.1 1.2-.2q1.2.2 2-.6 14-3.4 28.3-4.2Zm-10.4 7h-2.7a104 104 0 0 0-14.3 3 93 93 0 0 0-45.3 27c-2.8.7-16.6 21.5-17.7 25.9a5 5 0 0 0-1 2.1c-2.4 1.2-8.1 24.2-8.8 27.9q-1.2 3.3-1.2 7-1.2 6-1 12-.6 3.4 0 6.7c-1 1.1.3 9.3.1 11.2q0 3.5 1 6.9c0 3.3.6 7 1.7 10.1l.2 1.9a139 139 0 0 0 5.7 18.9q.4 2.6 2.2 4.5l.5 1.6q1.4 4.4 3.8 8.3 1.2 2 1.8 4l1.7 1.9.7 1.1a25 25 0 0 0 4.7 6.8 3 3 0 0 0 1.7 2.1c1 2.5 3.4 4.7 5.2 6.7q.9 1 2.4 1.3v.7c0 1.4 2.4 3.3 3.6 4.2a53 53 0 0 0 7.1 6q1.2 1.5 3 2.2 4.1 3.4 8.9 5.7 2.3 1.6 5 2.8l1 .4a35 35 0 0 0 9.9 4c1.5 1.2 6 2 8 2.6a83 83 0 0 0 16.1 3c5 .4 12.4 1.4 17.3 0q1.2.3 2.4.2c4.7.7 9-.5 13.5-1q15.8-2 30.3-8.3a102 102 0 0 0 38.6-32 20 20 0 0 0 5.1-6.8 100 100 0 0 0 11-22q2.4-6.2 3.7-12.9 1.5-3.2 1.3-6.8a50 50 0 0 0 2-12.1l.2-6c.8-1.1.3-9.1.1-11l-.3-3.9a176 176 0 0 0-2.3-18.2q-1-4.5-2.6-8.9l-.5-2.2q-1-4-2.8-8l-.3-1q-1-3-2.4-5.8a96 96 0 0 0-4.2-8.1 102 102 0 0 0-16-22.1 1 1 0 0 0-1-.6c0-1.7-5.2-6-6.7-7q-2.8-3-6-5.3c-2-1.4-5.9-4.6-8.2-5-.9-1.6-4.6-3.3-6.2-4a54 54 0 0 0-8.9-4.3 47 47 0 0 0-8.8-3c-2.9-1.7-8.6-2.2-11.8-3.3h-2.2c-4.2-.7-11-1.9-15-1.6a10 10 0 0 0-5.1-.1c-1.4-1.2-15.6.3-18.2.6Zm15.8 50 2.4-.2q10.4.5 20.5 3 1.4 1.1 3.3 1.4a74 74 0 0 1 30 25 86 86 0 0 1 8 14.7 82 82 0 0 1 3.9 29 67 67 0 0 1-55 55.5 96 96 0 0 1-23.7-1 142 142 0 0 1-15.2-4.8l-3.9-2.3a82 82 0 0 1-22.5-18.7q-3.3-5-6.3-10-.5-2.2-1.5-4a64 64 0 0 1-1.7-38l1.2-1.6c8.3-10.7 25.9 13.2 39.8-1.7 19.3-18.4-2.5-32.8 3.1-41.7a3 3 0 0 0 2.1-1.9l11-2.2c.7-.1 4.9.9 4.5-.5Zm-1.5 16.1c3.7 11.7 0 19.4-5 29.7-1 1.3-5 3.7-5.2 5q-4.3 3.6-9.3 6.2-4.7 1.9-9.5 3.2v.3q-5.6.7-11.3.5l-7.5-2.2q-.8 0-1.3.6a53 53 0 0 0 2.9 21.7l.2 2q2.2 5 4.6 9.8c1.3 1.6 4.5 6.9 6 7.8q.6.9 1.4 1.4c.2 1.3 6.2 6.3 7.5 7.4q2.8 1.6 5.4 3.6a62 62 0 0 0 31 6.4c27-2.4 42.9-22.6 45-48.5 1.8-5.3-.2-12.6-1.3-18v-2.5l-3.6-10.8-5-9q-3.4-4.2-7-8a98 98 0 0 0-9-6.8 40 40 0 0 1-5.3-2.5q-6.7-2.2-13.7-3.4l-7.7-.1c-4.5-.8-2.5 3.8-2.3 6.2Z"/><path fill="#3a5ccc" d="M283 374.8a6 6 0 0 1-6.4 2 1 1 0 0 1-.6-1q3.4-1 7-1"/><path fill="#576fc3" d="M141.9 210.8q-.3 2.3-1.6 4.4c0-1.5-.2-3.8 1.6-4.4"/><path fill="#63636b" d="m256 100.2.6-.1q3.3.5 6.4-.2l1.1.5c-2.1.7-6.5 1.3-8.2-.2"/><path fill="#b0b0c2" fill-opacity=".9" d="M236 100.4c-.1 1 1.3 1 2 1q-2.7.8-5.4.6c.3-1 2.4-1.7 3.4-1.6"/><path fill="#2d53ce" stroke="#2d53ce" stroke-width=".5" d="M256 140.6q-9.7 7.4-20 14-.7.3-.9 1c1.5 1.2 2.6-.8 3.8-1.4l20.8-11.9q1-.6 1.6-1.6c4-.3 10.7 1 15 1.5q-1 .8-1.5 2c-1.6-.3-3.7 1.5-4.8 2.5 1.1 1.4 5.1-1.7 4.8-2.6a5 5 0 0 0 3.6-1.8c3.2 1 9 1.6 11.8 3.3a4152 4152 0 0 1-56.2 38.9q-1 .6-1 1.7 0 .9-1 .9a8 8 0 0 0-5.2-.8l-9.2 4.6c-1-.7.1-2.2-.3-3.2q-1.2-4-5.3-3.2c-3.8 2.4-21 10.2-21.7 14.2l.6 3.8q-.7 1.3-2.2 1.7-.4.4-.4 1-1-.2-1.2.8c-4.7.6-31.4 18.2-39 21 .7-3.6 6.4-26.6 8.7-27.8 2-.3 5.7-2.7 6.4-4.5 1 .3 3.9-.6 2.3-1.6q-1.7 0-2.3 1.6l-5.4 2.4c1.2-4.4 15-25.2 17.8-26q1-.2 1.3-1.2a93 93 0 0 1 44-25.8c-.5 3.4-16.5 14.7-20 17.3q-.6.4-.7 1 .9.5 1.8 0c6.6-4.1 16.7-10.7 23.3-13.7 2.1-2.5 1.7-2.1 5-3 1.7-1.1 1.5-2.6 3.8-2.9.4 0 2 .3 1.7-.5a3 3 0 0 0 2-1c2.7-.4 17-2 18.3-.7Zm58.1 16.2c2.3.5 6.1 3.7 8.1 5.2-12 9.2-29 19.9-41.9 29q-2 1.3-3.7 3-10.2-2.5-20.5-3a3 3 0 0 1 1.2-1.1zm14.2 10.3c1.5 1.1 6.6 5.5 6.8 7.1q-1.8.4-3.1 1.4l-4.2 3.1a9 9 0 0 0-4.7 3 4 4 0 0 0-3 2c-1.7.3-4.3 1.5-5 3.3l-1.4.2q-1.5.3-1.4 1.7-2.6 0-3.5 2.3-1-.4-1.8.5c.5.9 2.3.4 1.8-.5a6 6 0 0 0 3.5-2.3q1.2.3 1.5-.8l1.3-.3q2.5-1.7 5.4-2.9.7-.5.8-1.2.7-.3 1.6-.4c1.1-.9 2.9-1.3 3.2-2.6h.7q1 .2 1.5-.7.8-.3.5-1.2l1 .4q1-.3 1.5-1.3h.6q1 0 1.4-1a3 3 0 0 1 1.5-.6q.9-.5 1.3-1.5 6.6 6.9 11.8 15c-13.2 8.2-27.5 18-40.2 27.2a74 74 0 0 0-27.8-21.6q24.3-14 48.4-28.3Zm-24.5 27q.7 0 1.1-.7-1-.3-1.1.7ZM352 197q2.3 3.9 4.1 8.1-2.5 1-4.8 2.7-17.4 12-35.2 23.4a86 86 0 0 0-6.1-10.7q21-11.9 42-23.5Zm-89.8 4.3c-2.7 2.7-6.6 4.3-10 6.1-.2-2.4-2.2-7 2.3-6.2zm13.7 3.4a40 40 0 0 0 5.4 2.5c-.3 2.5-12.1 7.4-14.3 9.5-.8.7-2.5.7-1.5-.6q5-6 10.4-11.4Zm-88.7 2.4h.8q-2.1 2.1-3.6 4.7-.5 1.3 0 2.6c3 7 9.8-1.1 11.5.2l-7 6.7a29 29 0 0 1-5 3.6c-11.4 6-27 16.1-38 21.3q-.2-6 1-12c6.9-3.2 31.9-21.9 40.3-27.1Zm171 4.8h.7q1.6 4 2.8 8-4.2 3.1-8.8 5.8-.8.6-1.2 1.7-1-.3-1.7.1a7 7 0 0 0-3.2 2.9q-2-.6-2.9 1.3c.8.7 3.3-.4 3-1.3.8 0 5.6-2.2 4.8-3q1.2-.2 2.3-.8 3.9-2.5 8.2-4.5 1.5 4.4 2.5 9-21.4 14.3-42.7 29a82 82 0 0 0-4.1-24.9zm-172.6 16q1.6 3.8 5.5 2.7c1.4-.5 3-3 4.7-1.9a29 29 0 0 0-5.2 4.4 6 6 0 0 0-.6 4q.2 1.5-1.2 2.3L146 264c.2-2-1-10-.1-11.2a1507 1507 0 0 0 37.2-25.2q1.5-1 2.5.3Zm116.6 3.1c1.8 2.2-12.1 9.2-11.2 7.6.2-1 9.7-7 11.2-7.6Zm63.9 8.2a44 44 0 0 1 1 10l-33.6 22q-.4.3-.5 1-2.3 0-3.3 2-2-.4-2.6 1.5c.7.6 3.4-.6 2.6-1.4 1-.2 3.6-.7 3.3-2.2 2.4.3 2.8-.8 4.6-2l29.8-17c.2 1.9.7 9.9-.1 11l-47.4 31.5q-.7.6-1 1.5-2-.3-2.8 1.6c1 .8 2.8-.4 2.8-1.6l2.1-.4c14.8-9.1 30.9-18.1 46-26.6a50 50 0 0 1-1.9 12.1L325 309.7q-.7.4-1 1.4-1.9 0-3 1.6c1 1.2 3-.2 3-1.6 3.6-.2 34-19 39.8-22.2q-1.3 6.7-3.7 13c-.8.4-4.8 2.1-3.7 3.3q1.5-.2 2.8-1.2c-2.7 6.6-6 14-10 19.8q-1.2.2-2.2.8-6.7 5.7-14.1 10.8-1.7 1.4.4 1.1 5.1-3.3 10.7-5.8a102 102 0 0 1-38.6 32q-14.6 6.1-30.3 8.2c4.7-5.4 32.7-25.2 34-28 1 .5 4-1 2.4-1.7q-1.9 0-2.4 1.8c-12.4 5.7-25.7 15.8-38.2 21.9a50 50 0 0 0-11.7 6.8c-4.8 1.4-12.2.4-17.3 0q6.2-4.6 12.5-8.8c1-1 3.7-1 3.7-2.8q.4-.2.6-.5-.6-.2-.6.5-1 0-2.2.4a224 224 0 0 1-15.6 9.2 5 5 0 0 0-1.6 1.6q-6.6-.8-13-2.6 26.2-18.6 52.8-36.7.4-.5.6-1.1c.8.3 3.7-1 2.5-1.9q-2 0-2.5 1.9-1.5 0-2.8.9l-58.5 34.3a35 35 0 0 1-9.9-4l-.2-.7q27.5-18.2 54.6-36.6 1.2-.6 1.7-1.9 2.3 0 3.3-2 .9.2 1.5-.6-.8-.7-2-.7a67 67 0 0 0 55-55.5q2.4-.7 4.6-2.1zM192 241a64 64 0 0 0 1.7 37.8c-11 4.7-27.6 15.7-39 21.7l-.8-.4q-3-8.4-5-17.1l16.4-10.1q1.3-.6 1.6-1.8 2.3-.1 3.4-2c.7.2 2.4-.5 1.2-1.1q-1.2-.2-1.2 1-2.3 0-3.4 2-1 0-2 .4-8 5-16.2 9.7-1.6-5-1.8-10.1zm19.9 11.3q5.7.3 11.4-.5.8.4.3 1.2-7 4.2-14 7.8-.7-.3-.5-1 1.8-3.6 2.8-7.4Zm95.2 10q-.9 0-1.8.5-10.8 6.5-21.9 12.4c-.8-.7.1-1.1.6-1.7l22-17.8q1.1-.6 1.3.8zM210.8 284c-.3-2.7 9.8-7.6 10.2-6.7-.2 1-8.7 6.8-10.2 6.7Zm20.3 20.2a44 44 0 0 0-5.4-3.6 7 7 0 0 1 3.4-3q17.1-10 34.4-19.7c1 .6.2 1.1-.4 1.6a1233 1233 0 0 0-27.2 21.7q-2.2 1.8-4.8 3Zm-36-21.6q3 5.2 6.4 10-20 12.3-40.4 23.5a44 44 0 0 1-3.9-8.3l1.9-.8 7.4-5.1q.3-.3.2-.6 1.4-.5 2-2c7-3.1 19-12.3 26.5-16.7Zm23.1 10.6q-.9-.5-1.3-1.4 4.6-2.6 9-5.6c1.7-1.1 2.8.3 1.3 1.3zm-14 2.8c6.2 6 12 11.4 19.8 15.4L177.5 338q-.5.3-.6.8c-1.8-2-4.1-4.2-5.2-6.7l1.3-1.5 10-6.3q1-.5 1-1.5 2.4.3 3.2-1.8 1.8.3 2-1.3 1.8.3 2.8-1.3c-.7-.9-2.8.1-2.8 1.3-.7 0-2.5.2-2 1.3q-2.2-.1-3.1 1.8l-2.1.6-10.6 6.2-1.4.4a23 23 0 0 1-4.7-6.8l1-1.3q8-5 15.7-10.4.8-.6.8-1.5c5.5-3.1 16-10 21.5-13.9Zm39 22.6a96 96 0 0 0 23.6 1l.5 1.3c-1.3.1-3.2.3-3.3 2q-1.4 0-2.7.8l-53.2 30.8a33 33 0 0 0-6.2 4.3q-4.8-2.3-8.8-5.6c4.4-3 43.7-28.2 44-29.3q2.5.2 3-2.2 1.7.5 2-1.1.2-1.2 1-2Zm16.6 40.4c.4 0 1.8-.4.8-1q-.7.3-.8 1Z"/><path fill="#adb8ed" d="M187.2 321q-.8 2.1-3.1 1.8 1-2 3.1-1.8"/><path fill="#a6b2eb" d="M189.2 319.7q-.3 1.5-2 1.3c-.5-1.1 1.3-1.3 2-1.3m70.6 39.4q0-.8.8-1c1 .6-.4 1-.8 1"/><path fill="#a9b5ec" d="M170.3 269q-1.1 1.9-3.4 2 1.1-2 3.4-2m162.7 3c.3 1.5-2.4 2-3.3 2.2a3.4 3.4 0 0 1 3.3-2.2m-74.9 88q0-.6.6-.4z"/><path fill="#a0aeea" d="M351.7 227.3c.8.8-4 3-4.9 3a7 7 0 0 1 3.2-2.9q.8-.5 1.7 0M170.3 269q0-1.2 1.2-1c1.2.7-.5 1.3-1.2 1m97 52q-1 2-3.3 2c.1-1.6 2-1.8 3.3-2"/><path fill="#94a5e7" d="M163.2 194.7q.6-1.5 2.4-1.6c1.5 1-1.3 1.9-2.4 1.6M324 311.1c0 1.4-2 2.8-3 1.6q.9-1.6 3-1.6"/><path fill="#6680dc" fill-opacity=".6" stroke="#6680dc" stroke-opacity=".6" stroke-width=".5" d="M308.8 191.2c.5.9-1.3 1.4-1.8.5q.7-1 1.8-.5Z"/><path fill="#768cdf" fill-opacity=".5" stroke="#768cdf" stroke-opacity=".5" stroke-width=".5" d="M312.3 189q-1.4 1.6-3.5 2.2a3.4 3.4 0 0 1 3.5-2.3Z"/><path fill="#90a1e6" d="M274.9 144.1c.2.9-3.8 4-5 2.5 1.2-1 3.3-2.8 5-2.5m72 86.2c.3.8-2.2 2-3 1.3q.9-2 3-1.3m-17.2 43.9c.8.8-1.9 2-2.6 1.4q.6-2 2.6-1.4M318.9 297c0 1.2-1.9 2.4-2.8 1.6q.7-1.9 2.8-1.6m-129.7 22.7c0-1.2 2-2.2 2.8-1.3q-1 1.6-2.8 1.3m89.9 11.2q.5-1.8 2.5-1.9c1.2.9-1.7 2.2-2.5 1.9m30 12q.5-1.6 2.4-1.7c1.5.8-1.4 2.2-2.4 1.8"/><path fill="#6a82dc" fill-opacity=".5" stroke="#6a82dc" stroke-opacity=".5" stroke-width=".5" d="M303.8 194.1q.2-1 1.1-.7-.4.6-1.1.7Z"/><path fill="#1b3864" stroke="#1b3864" stroke-width=".5" d="M262.2 201.2q7 1.3 13.7 3.4-5.4 5.6-10.4 11.3c-1 1.4.7 1.4 1.5.7 2.2-2 14-7 14.3-9.5q4.5 3 8.9 6.7-1.3-.1-2.6.5l-38 22q-1 .7-2.4.7c5-10.3 8.7-18 5-29.7 3.4-1.8 7.3-3.4 10-6Zm28 12.6 7 8c-1.8-.4-7.7 3.5-8.2 4.9 1 1 7.8-3.3 8.2-4.8l5 9c-1.5.5-11 6.6-11.2 7.6-1 1.6 13-5.4 11.2-7.6l3.6 10.8c-1.5-.2-7 5-9 5.7q-1.6 1.4.5 1.4l6.9-4.2q.7-.4 1.6-.4c1 5.4 3.1 12.7 1.3 18l.2-5.8q-.2-1.4-1.4-.8l-22 17.8c-.4.6-1.3 1-.5 1.7q11-5.9 22-12.4.7-.5 1.7-.5c-2.1 26-18 46.1-45 48.5 1-.9 4.6-3 4.9-4.3-.6-.8-1.3 0-2 .3-1.3 1-5.7 2.8-6.2 4.2q-14.7 0-27.7-6.6 2.6-1.2 4.8-3 13.4-11 27.2-21.7c.6-.5 1.3-1 .4-1.6q-17.3 9.6-34.4 19.7a7 7 0 0 0-3.4 3c-1.3-1-7.3-6.1-7.5-7.4q4.5-3 9-5.7c1.5-1 .4-2.4-1.3-1.3q-4.4 3-9 5.6c-1.6-1-4.8-6.2-6-7.8 1.4 0 10-5.7 10.1-6.7-.4-.9-10.4 4-10.2 6.7l-4.6-9.8c1.7-.7 5.3-2.9 6-4.6.8.4 3.7-.7 2.4-1.6q-1.8 0-2.4 1.6l-6.2 2.6a53 53 0 0 1-2.9-21.7q.5-.7 1.3-.6l7.5 2.2q-1 3.8-2.8 7.5-.2.7.5 1 7-3.6 14-7.8.4-.8-.3-1.2l-.1-.3q4.8-1.3 9.5-3.2 5-2.6 9.3-6.2 1 0 2-.4 22.3-13.5 45-26.2a3 3 0 0 0 1.2-1.6Z"/><path fill="#7e8daf" d="M212.2 269.7q.6-1.6 2.4-1.6c1.3.9-1.6 2-2.4 1.6"/><path fill="#2d53ce" stroke="#2d53ce" stroke-width=".5" d="M299 148.6q4.6 1.8 8.8 4.3-.2.9-1 1.3l-52.6 35.4a3 3 0 0 0-1.3 1.4q-2 0-3.8.7l-10.9 2.2q-1 0-2 .8-6.7 3.7-13.2 7.8-1 .5-1.7 0l10.4-10.1q.9-2.6.4-5.3.9 0 1-1 1.3-.2 2.5-1 31.6-18.4 63.4-36.5Zm-71 165.2q7.5 2.8 15.2 4.9-.8.8-1 2c-.6.1-2.3 0-2 1.1-1 .4-3 .7-3 2.2-3-.1-39.9 22.4-45.8 25.7q-.8.4-1.3 1.3a53 53 0 0 1-7.1-6q22.5-15.8 45-31.2Z"/><path fill="#284cb4" d="M290.2 213.8a3 3 0 0 1-1.2 1.6 2041 2041 0 0 0-45 26.2l-2 .4c.2-1.3 4.3-3.7 5.2-5q1.3 0 2.5-.8l38-22q1.2-.5 2.5-.4m7 8c-.4 1.6-7.3 5.9-8.2 4.9.5-1.4 6.4-5.3 8.2-4.8m-35 89q-1.8.2-3.4.1c.5-1.4 5-3.2 6.2-4.2.7-.2 1.4-1.1 2-.3-.3 1.4-3.9 3.4-4.9 4.3"/><path fill="#3857ac" d="M305.8 241.7v2.5q-.9-.1-1.6.4l-6.9 4.2q-2.1 0-.5-1.5c2-.5 7.5-5.8 9-5.6"/><path fill="#354474" fill-opacity=".1" stroke="#354474" stroke-opacity=".1" stroke-width=".5" d="M335 174.2q.7 0 1 .6-.8.6-1.2 1.5a3 3 0 0 0-1.5.6q-1 0-1.4 1h-.6q-1.2 0-1.4 1.3l-1-.4h-1q1.9-1.8 4-3.2 1.4-1 3.2-1.4Z"/><path fill="#3456c5" fill-opacity=".9" d="M241.8 377q3.8-.1 7.5.3a20 20 0 0 1-5.9 2z"/><path fill="#2e53cf" fill-opacity=".7" d="M257.1 132.8v1l-6.5.2c1.7-2.4 4.1-1.4 6.5-1.2"/><path fill="#283e7c" fill-opacity=".3" stroke="#283e7c" stroke-opacity=".3" stroke-width=".5" d="m236 141.1 1.9.1a3 3 0 0 1-2.1 1z"/><path fill="#58585f" fill-opacity=".5" stroke="#58585f" stroke-opacity=".5" stroke-width=".5" d="M353 385.1q-.7 1.1-1.9.6.7-.8 1.9-.6Z"/><path fill="#454549" fill-opacity=".5" d="M191.8 114.2q-.4 1.2-1.6.5.6-.8 1.6-.5"/><path fill="#2e2e31" fill-opacity=".4" d="m291.7 400.7 1.5.6q-.9.9-2.1.5 0-.6.6-1"/><path fill="#4b4b50" fill-opacity=".7" d="M138.5 221.8q.2.6-.3 1.1z"/><path fill="#47474a" fill-opacity=".3" stroke="#47474a" stroke-opacity=".3" stroke-width=".5" d="m26 276.2 1.2-.4-.5 1.2z"/><path fill="#2d4dbe" fill-opacity=".2" stroke="#2d4dbe" stroke-opacity=".2" stroke-width=".5" d="M215.4 139.2a2 2 0 0 1-1.4.8q.3-1 1.4-.8Z"/><path fill="#373737" fill-opacity=".1" stroke="#373737" stroke-opacity=".1" stroke-width=".5" d="m434.1 181 1.1.6-1.2.7z"/><path fill="#262626" fill-opacity=".4" d="M463.9 304q.5 0 1.1.3l-1 1z"/><path fill="#262626" fill-opacity=".5" d="M208.4 142q-.5.6-1.1 1 0-1.1 1-1"/><path fill="#434348" fill-opacity=".4" d="M425 343.1q-.2.4-.7.7 0-.7.7-.7"/><path fill="#353535" fill-opacity=".1" stroke="#353535" stroke-opacity=".1" stroke-width=".5" d="M422 345.2q-.3.6-.9 1 0-1 .9-1Z"/><path fill="#575760" fill-opacity=".3" stroke="#575760" stroke-opacity=".3" stroke-width=".5" d="m178.3 355.3.6.4-1 .6z"/><path fill="#2b50cf" fill-opacity=".2" stroke="#2b50cf" stroke-opacity=".2" stroke-width=".5" d="m225 374.8 1.5.8-1.5.4z"/><path fill="#2e2e30" fill-opacity=".6" d="m206 143.1-.8.7q0-.7.8-.7"/><path fill="#3a3a3d" fill-opacity=".3" stroke="#3a3a3d" stroke-opacity=".3" stroke-width=".5" d="M246.9 105.3q-1.6 1.5-3.7.5c.6-1.3 2.6-.8 3.7-.5Z"/><path fill="none" d="m261.8 369.9 1.2.2v1q-.9 0-1.4.8l-2.4-.2q1-1.2 2.6-1.8"/><path fill="#495682" d="m252.9 191 .8.2c.4 1.4-3.8.4-4.6.5q1.8-.7 3.8-.7"/><path fill="#3350ae" fill-opacity=".8" d="M288 137.1h3.3l-.1.8c-.8 0-3 .3-3.3-.8"/></svg>