<svg xmlns="http://www.w3.org/2000/svg" style="shape-rendering:geometricPrecision;text-rendering:geometricPrecision;image-rendering:optimizeQuality;fill-rule:evenodd;clip-rule:evenodd" viewBox="0 0 512 512"><path fill="#5e9cea" fill-opacity=".4" d="M191 62q.3-1.2 1.5-1.1c1.3.8-1 1.3-1.5 1M228 85q.5-2 2.6-2.1c1.4.8-2 1.9-2.6 2.1m40 165q-.5 1.1-1.7 1.6-2.4.3-.4-1.1 1-.4 2.2-.6m-25.8 1.8q-.6 1.2-1.9 1.8-2.4.5-.4-1.2 1-.4 2.3-.6m103 59.3-1.3.7q.3-.9 1.3-.7M155 313q-1 1.6-3 2 .9-2 3-2m213.2 10.3q-.6.6-1.5.6zm-67 11q-.6.8-1.5.7.7-.6 1.5-.7m40 26q-.6.7-1.6.6zM211 364q-1 2-3.1 2 .8-2 3-2m94.2 3-1.3.8q.3-.9 1.3-.7m-6 1.3q-.6.7-1.6.7a3 3 0 0 1 1.6-.7m-1 2.8q-.5.4-1.1.6.2-.7 1.1-.6m24 6q-.5.5-1.2.8.3-1 1.3-.8m-10 2q-.7.8-1.5.8zm-16 13-1.3.7q.3-.8 1.2-.7m-58.3 5c.2-.7 1.3-1.7 1.8-.8q-.6.8-1.8.8m-55.7 4-1.5.7a2 2 0 0 1 1.5-.7m-9.3 1.2q-.4.6-1.3.5.6-.4 1.3-.5m100 2.7a3 3 0 0 1-1.7 1.9q-2.5.2-.4-1.3zm-67 10.2q-.3.9-1.3.8.6-.6 1.3-.8m-46.7.8q-.6.6-1.4.8.3-1 1.4-.8m-12.3 1.2q-.3 1-1.4.8.6-.6 1.4-.8m68.4 14.8-1.6.8q.7-.7 1.6-.8m-3 2-1.5.7q.5-.7 1.4-.7m-26.1 17q-.7.6-1.5.7.6-.7 1.5-.6m194.5 1.1q0-.7.9-1c1 .6-.7 1-1 1m-229.5 2q-.7.5-1.5.7.5-.8 1.4-.8m18.7 1.2q-.4.7-1.3.7zm-35.1.9q-.2.8-1.1.7zm66 17.8q-.8 2-3 2 .9-1.9 3-2m40.1 2q-.8 2-3 2a4 4 0 0 1 3-2"/><path fill="#5e9cea" fill-opacity=".4" stroke="#5e9cea" stroke-opacity=".4" stroke-width=".5" d="M203 85a4 4 0 0 1-2.9 2q.7-2 2.9-2Zm41 8q-1 2-3 2.2.7-2 3-2.2Zm52 11.8c.2 1.3-2.1 2.9-2.8 1.9q1-1.5 2.9-2ZM141.3 289.2l1 .2q-.7.4-1.6.6zm146.8 3.6a3 3 0 0 1-3 2.2q.9-2 3-2.2Zm69.3 11.2q-.7.6-1.6.7.7-.6 1.6-.7Zm-162.2 38.1a8 8 0 0 1-5.2 3 7 7 0 0 1 5.2-3Zm83.8 6.8q-.5 1.5-2 1 .5-1.3 2-1Zm57.4.1q-.6.6-1.4.8.5-.8 1.4-.8ZM198 356c-.2 1.5-3.4 3-4.9 3 1-1.5 3-3.2 5-3Zm136.8 8.1q0 1-1 .9zm-38.9 6q0 1-1 .8zm38.5 0q-.7.6-1.5.7.6-.7 1.5-.7ZM277 382.9q-.5 1.5-2 1 .5-1 2-1Zm28.8 0q0 1.1-1 1zm-97.5 1.3-1 .8q-.2-1 1-.8ZM238 397q-.9 1.8-3 2a3 3 0 0 1 3-2Zm-17.8 10.2q-.6.8-1.4.5.6-.5 1.4-.5Zm3-.2-.9.9q-.3-1.2 1-.9Zm-62 2.1q-.5.9-1.5.7.8-.5 1.5-.7ZM178 418q-.8 2.3-3 2a4 4 0 0 1 3-2Zm16 4.3q-.3 1-1.4.7zm-58.7 2.1q-.7.6-1.5.7.7-.6 1.5-.7Zm22.8 38q-.3.7-1.3.7.5-.6 1.3-.7Z"/><path fill="#5e9cea" fill-opacity=".3" stroke="#5e9cea" stroke-opacity=".3" stroke-width=".5" d="M208 66q.4-1 1.5-1c1.2.7-1 1.2-1.6 1Zm67.2 16.3v.6c-.7.9-4.2 4-5 2.8 1-1 2-2 3.2-2.8q.8-.5 1.8-.6ZM337.8 310q0 1-1 1 .4-.6 1-1Zm-6.5 9q-.7.6-1.6.7.7-.6 1.6-.6Zm-39.3 4q-.5 1.3-2 1 .5-1.3 2-1Zm69.7 4q0 1.1-1 1zm-24.7 2q-1 1.7-3 2 .8-2.2 3-2Zm-24.7 1q-.5.7-1.3.7.3-.7 1.3-.7ZM145 332c-.5 1.4-3.3 2.9-4.7 3.1-1.2-1 3.7-3.3 4.7-3Zm149.8 6q.1 1.3-1.1 1zm60.6 0-1.1 1q0-1 1-1Zm24 6q-.7.6-1.6.8.5-.8 1.5-.8Zm-18.7 3q0 1-1 1zm-.3 8q-.5.7-1.4.8.4-.9 1.4-.7Zm-7 4q-.5.6-1.1 1 0-1 1-1Zm-166.5 35q-.3 1-1.2.9zm1.4 3-1 1q0-1 1-1Zm55.6 16c.2 1-1.2 1-2 1a2 2 0 0 1 2-1Zm-69 20q-.1 1-1.2 1zm2.3 4q-.3.5-1 .9 0-1 1-.8Zm7 10.3a2 2 0 0 1-1.6.6q.7-.4 1.6-.6Zm-26.8 2.8-1.1.8q0-1 1-.8Zm9 13.9-1.2 1q0-1 1.2-1Zm-27.6 9q0 1-1.1 1zm59.1 3c-.4 1.5-3.6 3-5 3.1 1-1.5 3.2-3.4 5-3Zm85.2-434.1c-.6 1.5-3.6 3.2-5 3.2q1.8-2.7 5-3.2ZM286 94q.2-1 1-.7-.4.6-1 .6Zm-12.7 152.8c-1.3 1.7-2.8 3.4-5.1 3.1.4-1.4 3.6-3.1 5-3Zm81.8 52q-.3 1.2-1.2.8zm-203 16.2a8 8 0 0 1-5.1 3c1-1.6 3.2-3.4 5.2-3ZM359 329q-.3 1-1.2.8.4-.5 1.2-.8Zm-77 18q-.8 2-3.1 1.9a4 4 0 0 1 3.1-2Zm47 21q-.1 1-1.2.8zm-36 4q-.1 1-1.2.8zm-81.8 10.2-1.2.8q0-1.2 1.2-.8Zm90.1 7q-.6.6-1.3.9.3-1.2 1.3-.8Zm71.7-.2q-.9 2-3 2 .8-2 3-2Zm-66 13a4 4 0 0 1-3.2 2 3 3 0 0 1 3.2-2Zm-139 3q-.4 1-1.4.8zm192 5a8 8 0 0 1-5 3.1q1.7-3 5-3.2Zm-128 85q-.7 1.2-2.1 1a2 2 0 0 1 2-1Z"/><path fill="#5f9ceb" fill-opacity=".2" stroke="#5f9ceb" stroke-opacity=".2" stroke-width=".5" d="M256.3 172q0 .5-.3.8l-1.1.4q.3-1 1.4-1.1ZM154 300q-.9 2-3 2.2.6-2.4 3-2.2Zm198 1q-.3 1-1.3.7zm-20 13q-.3 1.1-1.3.7zm-30.1 3.2a25 25 0 0 1-10 5.7c1.5-2.2 6-4 8-5.7q1-.4 2 0Zm7 11.7q0 1-1.2.8zm47 2q0 1.1-1.2.8zm-23 15q0 1-1.2.8zm8.4.4-1.2.7q0-1.1 1.2-.7Zm10.6 6.6q0 1-1.2.8zm-36.6 8.4-1.2.8q0-1.2 1.2-.8Zm24 6-1.2.8q0-1.1 1.2-.8ZM297 388.9q0 1.1-1.2.8zm-102.6 4.4-1.2.8q0-1.1 1.2-.8Zm83.8 8.6a3 3 0 0 1-3.2 2.1 3 3 0 0 1 3.2-2.1Zm-63.2 8q0 1.1-1.2.8zm-59 2q0 1.1-1.2.8zm68 12q0 1.2-1.2.8zm-35 1q0 1.1-1.2.8zm-16.6 35.4-1.2.8q.1-1 1.2-.8Zm-26 17-1.2.8q0-1.1 1.2-.8Zm51.8 11.7q-.9 2-3 2.1.6-2.1 3-2.1Z"/><path fill="#5a93e0" fill-opacity=".2" stroke="#5a93e0" stroke-opacity=".2" stroke-width=".5" d="M351.7 319.1q.4 1 1.4 1.3l-9 5.2q-1 .4-2 .4c.7-2 7.7-5.3 9.6-6.9Zm-148.8 50q0 .8-.9 1.2l-8.6 5.6q-.5-.9-1.5-1.3l9-5.2q1-.4 2-.3Z"/><path fill="#5f9ce9" fill-opacity=".4" d="M253.8 15.2q.7-2 2.8-2.2c1.4 1-2 2.2-2.9 2.2M323.9 241c.3-.6 1.4-1.5 2-.6a2 2 0 0 1-2 .6m37 54.1q-.2 1-1.2 1zm3.4 5.1-1.3.7q.3-.8 1.3-.7m-26 15-1.6.7a2 2 0 0 1 1.6-.7m-20.5 8q0 1-1 .9zm47.4 2q-.5 1-1.5.8.7-.6 1.5-.7m4.2 5-1.3.7q.2-1 1.3-.8m-35.4.9q-.5 1.3-2 1 .5-1.2 2-1m28.2 3.1q-.5.4-1.2.6.3-.7 1.2-.6m-20.4 6q0 1-1 1 .4-.7 1-1m22 5q0 1-1.2.8zm-32 21q0 1-1.1.8.5-.5 1.2-.8m9.5 0-1.3.7q.3-1 1.3-.8m-26 15q-.5.4-1.3.7.4-.9 1.4-.8M206 383.1q-.3.9-1.3.7zm98 20.7c.1 1.2-1.2 1.2-2 1.2q.5-1.4 2-1.2M165.3 412l-1 1q0-1.1 1-1m35.5 6q-.1 1-1.1.9zm-.5 4-1 .8q0-1 1-.8m2.8 14.2q-.5.8-1.4.6.6-.5 1.4-.6M192.4 447l-1.1 1q0-1 1-1m-43.2 1q-.5 1-1.5.8zm14 18-1 1q0-1.2 1-1m136.5 32q.7-2 2.8-2.1c1 1.2-2 2-2.8 2"/><path fill="#5993dc" fill-opacity=".2" stroke="#5993dc" stroke-opacity=".2" stroke-width=".5" d="M316.7 395q.3 1 1.4 1.3l-9 5.2q-1 .6-2 .5 0-.9.9-1.3zm-123.8 84.1q-.1.9-.9 1.2l-7.4 4.7q-.8.6-1.8.7 0-.9-.9-1 4.6-2.5 9-5.3a3 3 0 0 1 2-.3Z"/><path fill="#5d9aed" fill-opacity=".3" stroke="#5d9aed" stroke-opacity=".3" stroke-width=".5" d="M226 372a6 6 0 0 1-1.6 1.8l-6.4 4q-.5-.6-1.1-.8c1.9-1.3 7-5 9.1-5Zm-51 48a2 2 0 0 1-1 1.3c-2.5 1-6.6 4.7-9 5l-1-.2q4.5-3.4 9.6-6zm164.2 31.9q-1 2-3.2 2 1-2 3.2-2Z"/><path fill="#5e9ceb" fill-opacity=".3" d="m369.3 297.3-1.3.7q.3-1 1.3-.7m-21 45-1.3.7q.3-1 1.3-.7M336 344q-.1 1-1.2.8zm10.3 19.3-1.3.7q.3-1.1 1.3-.7M300 387q-.1 1-1.2.8zm-108.7 8.3-1.2.7q0-1 1.2-.7M149 416q-.1 1-1.2.8zm78.3 8.3-1.3.7q0-1.2 1.2-.7M217 428q-.2 1-1.2.8zm-35 1q-.3 1-1.2.8zm1.2 4.2q-.4.5-1.2.8.3-1 1.2-.8M378 442a3 3 0 0 1 2.5-2c1.4 1.3-1.8 1.8-2.5 2m-179.7 1.4-1.2.7q0-1.1 1.2-.7m-38 5-1.3.7q.3-1 1.2-.8M146 469q-.3 1-1.3.7zm92 9c-.4 1.6-6.6 5-8.2 5.3l-.8-.2c1.6-1.6 7-5 9-5m-97.7 3.3-1.2.7q0-1.1 1.2-.7m59.6 6.6q-.4 1.5-1.8 1 .5-1.1 1.8-1"/><path fill="#5e9cea" fill-opacity=".5" d="M267.2 68.9q-.6 1.2-1.9 1.8-2.3.3-.4-1.3 1-.5 2.3-.5M167 275q.5-1 1.5-1.2c1 .8-1 1.3-1.5 1.2m157.2 44q-.5 1-1.4 1 .6-.6 1.4-1m2.1 3-1.3.7q.3-1 1.3-.8m50 4-1.2.7q.2-1 1.2-.8m-228.2 4a4 4 0 0 1-3 2 3 3 0 0 1 3-2m226.2 17-1.2.6q.3-.9 1.2-.6m-49 4.2q-.7.6-1.6.6.7-.6 1.6-.6m-127.4 5q.6-1 1.7-1.5 2.7-.5.6 1.3-1 .3-2.3.2m30 15.2q.8-1.8 2.7-2.2c1.6 1-2.2 2-2.7 2.2M202.3 388l-1.3.7q.3-.8 1.3-.7m-10.3 3.3q-.4.8-1.3.6zM133 408l1.2.2-1.4.8zm61.3 18q-.7.5-1.4.6.5-.7 1.4-.6m-5.4 18.2q-.3.6-1.2.6zm-35 .9q-.3 1-1.3.8.6-.6 1.2-.8M203 486q.3-1 1.4-1.1c1.1.7-1 1.3-1.4 1.1"/><path fill="#5e9cea" fill-opacity=".4" d="M260.1 24.8q-.6 1.2-1.8 2-2.3.3-.4-1.2zm-38.4 134.4a3 3 0 0 1 2.9-2.2c1.4 1-2.2 2-2.9 2.2M319.3 326l-1.2.8q.3-.9 1.2-.8m47.9 17.2q-.6.8-1.5.8.7-.6 1.5-.8m-24 1.9q-.3.5-1.1.7.2-.8 1.2-.8m-24 10.1q-.6.9-1.5.8.6-.6 1.4-.8m19 7q-.6.8-1.6.8.8-.6 1.5-.8m-29 19q-.6.7-1.4.7.6-.4 1.4-.6m-87.2 44q-.3 1-1.4.8zm-35 1q-.4.8-1.2.7zm-44.7 1q-.7.4-1.5.6.6-.8 1.5-.7m25.7 10q-.4 1-1.3.8zm28 3q-.4.9-1.3.7zm30 2.7q-.9 2-3 2.1.7-2 3-2.1m-36.7 6q-.6.7-1.4 1 .5-.9 1.4-1M151 466.4q-.3.8-1.3.6zm9.4 1.7q-.7.6-1.5.8.5-.8 1.5-.8m42.8 18a4 4 0 0 1-3.2 1.9 3 3 0 0 1 3.2-1.9"/><path fill="#5e9cea" fill-opacity=".4" stroke="#5e9cea" stroke-opacity=".4" stroke-width=".5" d="M257.2 42.9c-.7 1-1.7 2.4-3 1.7a3 3 0 0 1 3-1.7Zm35.8 263c0 .9-1.3 1.8-1.9.8a2 2 0 0 1 1.9-.8Zm48.2 2.4a2 2 0 0 1-1.5.6q.6-.5 1.5-.6ZM192 327.9q-.7 2-3 2.2.8-2 3-2.2Zm106 8.3q-.2.9-1.2.6zm56 51.7q-.3.9-1 1.4a5 5 0 0 1-4 1.6c1-1.6 3.2-2.8 5-3Zm-174 10.4q-.6.6-1.4.5zm5.3.8q-.7.6-1.6.7a2 2 0 0 1 1.6-.7ZM180 417q-.5 1.3-2 1 .6-1.3 2-1Zm38.3 13q-.7.6-1.5.7.6-.8 1.5-.7ZM177 451.2q-.3 1-1.2.8zm-35 1q-.3.9-1.3.8zm12.3-.2q-.7.6-1.5.8.5-.9 1.5-.8Z"/><path fill="#4c91d2" fill-opacity=".2" stroke="#4c91d2" stroke-opacity=".2" stroke-width=".5" d="M195 491.1q-.3.8-1 1.2-5.8 3.4-11.1 7.4-2 .4-3.9 0l14-8.3a3 3 0 0 1 2-.3Z"/><path fill="#518fd3" fill-opacity=".2" stroke="#518fd3" stroke-opacity=".2" stroke-width=".5" d="M302.6 283.2q.2 1 1.1 1.4-7 3.9-13.6 8.2-1 .3-2 0l1.5-1.4q6.4-4.3 13-8.2Z"/><path fill="#5e9cea" fill-opacity=".3" stroke="#5e9cea" stroke-opacity=".3" stroke-width=".5" d="M301 243c-.9 1.6-3 3.1-5 3 .4-1.4 3.6-3 5-3Zm-20.9 39a5 5 0 0 1-3 2q.9-2 3-2Zm77.9 15q-.1 1-1.2.8zm-52.7 37.3-1.3.7q.3-1.1 1.3-.7ZM339 342q-.3 1-1.2.8zm-131 24c-.5 1.5-3.7 3-5.1 3 1.1-1.6 2.8-3.3 5-3Zm20 5c0 1.1-1.3 1-2 1q.5-1.2 2-1Zm-59.8 39.2-1.2.8q.3-1 1.2-.8Zm35 10-1.2.8q.2-1 1.2-.8ZM210 432q-.3 1-1.3.7zm-14.8 13.2-1.2.8q.1-1 1.2-.8Z"/><path fill="#3f77ad" fill-opacity=".1" stroke="#3f77ad" stroke-opacity=".1" stroke-width=".5" d="m290.6 393.2 1.5 1.5c-2.1-.1-2.3 1-3.7 2q-4.4 2-8.4 4.9-1 .5-2 .2.3-.7 1-1.2z"/><path fill="#5d9dec" fill-opacity=".3" d="M191 62c-1.1 2-4 3.7-6 5q-.4-.5-1-.8 3-3 7-4.2m133.3 261.3-1.3.8q.3-1 1.3-.8m50 4-1.3.7q.3-1 1.3-.7m-2 21-1.3.7q.3-1 1.3-.8m-14.3.7q-.3 1.1-1.3.7zm-28.7 4.3-1.3.7q.3-1 1.3-.7m-26 15-1.3.7q.3-1.1 1.3-.7M194 390q-.2 1-1.2.8zm81 14q-.6 1.3-2 1 .5-1.3 2-1m-126.8 19.2-1.2.8q.3-1 1.2-.8m32 12-1.2.8q.2-1 1.2-.8M191 443q-.3 1-1.3.8zm-35 1q-.3 1.1-1.3.7zm13.2 18.2-1.2.8q.1-1 1.2-.8m-32 1-1.2.8q.3-1 1.2-.8"/><path fill="#5b94e1" fill-opacity=".2" stroke="#5b94e1" stroke-opacity=".2" stroke-width=".5" d="M289.7 374q.5 1 1.4 1.4l-12.1 7q-1 .5-2 .5.6-1 1.6-1.8z"/><path fill="#5798e0" fill-opacity=".2" stroke="#5798e0" stroke-opacity=".2" stroke-width=".5" d="M242 414a7 7 0 0 1-2.3 2.3l-10.4 6.6q-.5-.9-1.4-1.3 6.8-4.2 14-7.7Z"/><path fill="#5192d8" fill-opacity=".2" stroke="#5192d8" stroke-opacity=".2" stroke-width=".5" d="M292.8 273.2q0 1 1 1.4l-11.8 6.8q-.9.6-1.9.6.4-1.2 1.5-1.8z"/><path fill="#5e9cea" fill-opacity=".4" d="M296 246q-1 1.7-3 2 .9-2 3-2m68.3 47.3q-.6.6-1.6.6.7-.6 1.6-.6M285 295c-.2.8-1.4 1.7-2 .7q.7-1 2-.7m-131 5c.2-1 1.9-2.5 2.8-1.6q-.8 2-2.9 1.6m167.2 21.3q-.6.8-1.6.6zm23.9 17q-.7.6-1.5.6.7-.6 1.5-.6m22.1 12.8-1.4.7q.5-.9 1.4-.7M199 387.2q-.3.9-1.2.7.4-.5 1.2-.7m156 26a5 5 0 0 1-3 1.8q.7-2.3 3-1.9m-192.6.8q-.7.6-1.6.8.6-.8 1.6-.8m35 10q-.7.6-1.6.8.5-.8 1.5-.8m-23.2 15-1.4.7q.5-.6 1.4-.7m-13.1 2.2q-.5.7-1.4.7z"/><path fill="#55a5ec" fill-opacity=".3" stroke="#55a5ec" stroke-opacity=".3" stroke-width=".5" d="m306 297.2 1 1.2-12 7q-1 .7-2 .5.6-1 1.6-1.6 5.1-3 9.8-6.4.7-.5 1.7-.7Z"/><path fill="#5086cd" fill-opacity=".2" stroke="#5086cd" stroke-opacity=".2" stroke-width=".5" d="M313.3 235q.9-.5 1.6.4-5.8 3.8-11.9 7.1-.9.6-2 .4.3-.8 1-1.3l8.6-5.4z"/><path fill="#5f9de9" fill-opacity=".2" stroke="#5f9de9" stroke-opacity=".2" stroke-width=".5" d="M200.1 87a19 19 0 0 1-5 4l-.1-1.2q2-2.5 5.1-2.7Zm92.1 2.8A3 3 0 0 1 289 92a3 3 0 0 1 3.2-2.2ZM135.2 272l-.2 1-.9.1q.2-1 1.1-1Zm187.7 100q0 1-1.2.8zm-141 25q-.2 1-1.2.8zm-7.6 9.4-1.2.8q0-1.1 1.2-.8Zm35 10-1.2.8q0-1 1.2-.8Zm-4.4 18.6q0 1.1-1.2.8zm-.6 4.4-1.2.8q0-1.1 1.2-.8Zm-41 7-1.2.8q0-1.1 1.2-.8Zm15.6 3.6q-.2 1-1.2.8zm-35 1q-.2 1.1-1.2.8z"/><path fill="#5895de" fill-opacity=".2" stroke="#5895de" stroke-opacity=".2" stroke-width=".5" d="M193 359a5 5 0 0 1-1.6 1.8l-8.1 5.1q-.3-.9-1.4-1.2 4.6-2.5 9-5.2a4 4 0 0 1 2.1-.5Z"/><path fill="#5c92dd" fill-opacity=".2" stroke="#5c92dd" stroke-opacity=".2" stroke-width=".5" d="M291.6 340.2q.6.8 1.5 1.2l-9 5.2q-1 .4-2 .3 0-.8.9-1.2z"/><path fill="#5992db" fill-opacity=".2" stroke="#5992db" stroke-opacity=".2" stroke-width=".5" d="M235 399c-.5 1.6-8 5.7-9.8 6.9q-.3-1-1.3-1.2l9-5.2q1-.6 2.1-.5Z"/><path fill="#57a3ed" fill-opacity=".3" stroke="#57a3ed" stroke-opacity=".3" stroke-width=".5" d="M189 330.1c-.7 1-8.7 6.4-10.3 6.6q0-.7-.8-1 4.8-3 9.7-5.6z"/><path fill="#609bed" fill-opacity=".3" stroke="#609bed" stroke-opacity=".3" stroke-width=".5" d="M223 445q-.3.8-1 1.2l-9 5.7-1-.8 3.9-2.8q2.9-1.4 5.6-3.2.8-.2 1.4 0Z"/><path fill="#5e9deb" fill-opacity=".4" d="M371.3 296q-.6.6-1.3.8.3-1 1.3-.8m-27 10.2q-.7.7-1.5.7zm-44 30.9q-.6.6-1.3.6.3-.9 1.3-.6m50 4q-.6.5-1.3.7.3-.9 1.3-.7m19.8.2q-.5.6-1.4.6zm-45.8 14.8-1.2.6q.3-.7 1.2-.6m24 6-1.3.7q.4-.9 1.3-.8m-133.4 67q-.2 1-1.2.9zm-35 1.2q-.3.8-1.3.6zm-36 39.8q-.3 1-1.3.8zm13.4 0q-.7.5-1.4.6.5-.7 1.4-.6m74.7 25a3 3 0 0 1 2.6-2c1.4 1-1.8 2-2.6 2"/><path fill="#51abed" fill-opacity=".2" stroke="#51abed" stroke-opacity=".2" stroke-width=".5" d="M190 345c-1.3 2.3-5.9 4.4-8 6q-.4-.7-1-1 .4-.8 1.3-1.2c2-.8 5.6-4 7.6-3.7Z"/><path fill="#5c9ceb" fill-opacity=".2" stroke="#5c9ceb" stroke-opacity=".2" stroke-width=".5" d="m362.3 301.3-1.2.7q0-1.1 1.2-.7Zm13.6 16.6q0 1.1-1.2.8zm-66 43q0 1.1-1.2.8zm3.4 21.4-1.2.8q.2-1 1.2-.8ZM373 389c.2-1.2 3.5-3 4.6-3 1.7.8-3.6 3.3-4.6 3Zm-186.7 42.3-1.2.8q0-1 1.2-.8Zm-11 27-1.2.8q0-1 1.2-.8Zm-22.4 6.6q0 1.1-1.2.8z"/><path fill="#4e9ada" fill-opacity=".2" stroke="#4e9ada" stroke-opacity=".2" stroke-width=".5" d="M339.1 499.7h-2c.7-1.6 4.5-2.8 5.9-4q.9-.6 1.8-.2l-4.2 3.7q-.7.6-1.5.5Z"/><path fill="#5d9aea" fill-opacity=".3" stroke="#5d9aea" stroke-opacity=".3" stroke-width=".5" d="M289 92q-.1.7-.8.4.3-.5.8-.5Zm53 234a7 7 0 0 1-5 3c.9-1.7 3.1-3 5-3Zm-29 33q-.3 1-1.3.7zm7.3 19.3-1.3.7q.3-1 1.3-.7Zm-149 30-1.2.8q0-1 1.2-.8Zm35 10-1.2.7q0-1.1 1.2-.7Z"/><path fill="#4d80c6" fill-opacity=".1" stroke="#4d80c6" stroke-opacity=".1" stroke-width=".5" d="m367.6 405.2.6.5c-1.7 1.2-6.2 4.3-8 4.3q.3-1.2 1.4-1.9c1.4-.5 4.5-3.7 6-2.9Z"/><path fill="#5e9de9" fill-opacity=".2" d="M208 66q-.9 2.1-3 2a3 3 0 0 1 3-2m152.3 269.3-1.2.8q0-1.2 1.2-.8m-2 21-1.2.8q.2-1 1.2-.8M208 382q0 1.1-1.2.7zm86 9q0 1.1-1.2.7zm-139.6 28.3-1.2.8q.1-1 1.2-.8m41.6 1.6q0 1.1-1.2.8zm-26 15q0 1.1-1.2.8zm-26.6 23.4-1.2.8q0-1 1.2-.8"/><path fill="#5f9dea" fill-opacity=".3" d="M167 275q-1 2.1-3.2 2.1 1-2 3.2-2m176.3 37.3-1.3.7q.3-1.1 1.3-.7M312 326.9q0 1-1.2.8zm-13.6 11.4-1.3.7q.1-1.2 1.3-.7m24 19-1.3.7q.3-1.1 1.3-.7m-26 15-1.3.7q.2-1.2 1.3-.7M208 414q-.3 1-1.3.7zm-36 40q-.2 1-1.3.8zm-28.7 25.3-1.2.8q0-1 1.2-.8"/><path fill="#468ac3" fill-opacity=".1" stroke="#468ac3" stroke-opacity=".1" stroke-width=".5" d="M280.6 78q0 1.2 1.1 1.6c-1.3.9-4.8 3.4-6.4 3.3l-.1-.6q2.6-2.3 5.4-4.3Z"/><path fill="#3c7cae" fill-opacity=".1" stroke="#3c7cae" stroke-opacity=".1" stroke-width=".5" d="M184 66.2q.5.2 1 .8l-5.8 3.8q-.2-1.5.9-2.5 1.6-1.6 3.8-2.1Z"/><path fill="#5485c4" fill-opacity=".8" d="M232.3 4.2c-1 1.8-5.6 2.6-7.5 2.8q0-.6.6-.8c3-1 2.9-3 6.9-2"/><path fill="#4e7cb4" fill-opacity=".8" d="m134.2 273.2.8-.1-2.7 7c0-1.8-1-4.5.7-5.8q.9-.3 1.2-1.2"/><path fill="#5486c6" fill-opacity=".8" d="M130.2 286c-.3.8-1.1 6-2.2 5.8q-1.7-4 2.2-5.8"/><path fill="#4b78b4" fill-opacity=".1" stroke="#4b78b4" stroke-opacity=".1" stroke-width=".5" d="M216.9 377q.6.2 1.1.7l-4.8 3q0-1.1-1.3-1 2.4-1.6 5-2.7Z"/><path fill="#4979b6" fill-opacity=".2" stroke="#4979b6" stroke-opacity=".2" stroke-width=".5" d="m164 426.1 1 .2a14 14 0 0 1-5.2 3.4q.4-1-.5-.3c-.2-1.9 3.4-2.6 4.7-3.3Z"/><path fill="#53a8ed" fill-opacity=".2" stroke="#53a8ed" stroke-opacity=".2" stroke-width=".5" d="M146.9 318c-.6 1.7-3.2 2.9-4.7 3.8q-.3-.9-1.3-1c1.8-.7 4-3 6-2.7Z"/><path fill="#5d9ce9" fill-opacity=".3" d="M134.2 273.2q-.4.8-1.1 1.1 0-1 1-1.2m216.1 35-1.3.8q.3-1 1.3-.7M315 325q-.1 1.1-1.2.7zm1 32q-.1 1-1.2.8zm11.3 17.3-1.3.7q.3-1 1.3-.7M303 385q-.1 1-1.2.8zm-161 35q-.3 1-1.3.7zm82.2 6.2q-.4.5-1.2.8 0-1.2 1.2-.8M165 458q-.3 1.1-1.3.7z"/><path fill="#487bb8" fill-opacity=".1" stroke="#487bb8" stroke-opacity=".1" stroke-width=".5" d="M212 451.1q.7.3 1 .8l-4.6 2.9q-.3-1.2-1.5-1.2 2.4-1.6 5.1-2.5Z"/><path fill="#4978b7" fill-opacity=".2" stroke="#4978b7" stroke-opacity=".2" stroke-width=".5" d="m229 483.1.8.2a12 12 0 0 1-4.4 3.4q-.3-1.2-1.5-1c1.5-.7 3.5-2.7 5.1-2.6Z"/><path fill="#4576b7" fill-opacity=".1" stroke="#4576b7" stroke-opacity=".1" stroke-width=".5" d="M181 350q.6.3 1 1-2.4 1.3-4.6 2.8 0-1.2-1.1-1.3 2.1-1.5 4.7-2.5Z"/><path fill="#5f9ce8" fill-opacity=".3" d="m367.3 331.3-1.2.7q0-1.1 1.2-.7m-2 21-1.2.8q0-1.2 1.2-.8m14.8 7.6-.2 1-.9.1q.4-.8 1-1m-54.2 10q0 1.1-1.2.8zm-125 16q-.2 1-1.2.8zm-49.6 35.4-1.2.8q0-1.1 1.2-.8m11.6 18.6q0 1.1-1.2.8zm38.4 1.4-1.2.8q0-1.1 1.2-.8"/><path fill="#4b74a7" fill-opacity=".7" d="M258 0h6l.3.7q-3.3.6-6.6 0z"/><path fill="#5f9deb" fill-opacity=".4" d="M310.3 364q-.7.6-1.5.8.5-.7 1.5-.7m-2 21q-.4.6-1.1.8.2-.8 1.1-.8m61.7 6q-.6 1.2-2 1 .6-1.3 2-1m-224.7 34-1 1q-.1-1 1-1m76 3-1 1q-.2-1 1-1"/><path fill="#5081c0" fill-opacity=".2" stroke="#5081c0" stroke-opacity=".2" stroke-width=".5" d="M205 68a4 4 0 0 1-3 2.6q0-1-1-1 1.7-1.5 4-1.7Z"/><path fill="#5e9be9" fill-opacity=".9" d="M255.8 179.2q2.7-.6 5.6-.2c-.3 1.6-5.5 1.7-5.6.2"/><path fill="#466794" fill-opacity=".6" d="M214.8 169.3q1 0 1 1zm1 1c.7-.3 2.5-.3 2 1q-1.2 0-2-1m2 1q1.3-.2 2.3.4c-.3 0-2.4.2-2.2-.4"/><path fill="#4f7cb4" fill-opacity=".8" d="M124.9 307c0 1.1.4 3.3-.8 4 0-.7-.5-4.3.8-4"/><path fill="#486c9b" fill-opacity=".5" d="M278.8 2.3q1-.1 1.6.7-1 0-1.6-.7m-80.5 19.6a2 2 0 0 1-1.1 1.3q0-1.2 1-1.3m-1.1 1.3q-.3 1-1.1 1.1 0-1.2 1.1-1m-1.1 1.1-1 1q0-1 1-1"/><path fill="#5d9eeb" fill-opacity=".2" d="M305.9 331q0 1.1-1.2.7zm1 31.9q0 1-1.2.8zm-.5 23.4-1.3.8q.2-1 1.3-.8m-117.5 6.6q-.2 1-1.3.8z"/><path fill="#568acc" fill-opacity=".9" d="M236 177.1c1.1 0 3.5-.7 4 .8q-2 .6-3.8-.2z"/><path fill="#5e9dea" fill-opacity=".4" d="M205.3 386q-.7.6-1.5.7.6-.6 1.5-.6m15 23.2q-.8.5-1.4.5.3-.8 1.4-.5M378 441.9c0 1-1.3 1.7-1.9.7q.7-.9 1.9-.7"/><path fill="#5e9cea" stroke="#5e9cea" stroke-width=".5" d="M279.2 11.3q-7.4 4.8-14.7 9.8l-1.3 1.6c-1 .7-3 .4-3 2.1l-2.3.8q-1.9 1.5.4 1.1 1.2-.6 1.8-1.9l2-.2 8.4-5.4q5.4-2.7 10.5-5.8.7-.4 1-1.1c1.7.2 10.8 3.2 10.9 4.7l-31.4 22.1a5 5 0 0 1-3.6 2.3q-.8.6-.7 1.5-2.1 0-3 1.7c1.3.7 2.3-.7 3-1.7 5-2 34-19 40.8-23.3 2.1 1.2 7.5 4.4 8.2 6.7-2-.5-15.3 9.8-17.7 11.6-1.5.7-4.9 2.3-5.4 4a8 8 0 0 0-5 3.2 4 4 0 0 0-3 1.6c1 1.3 2.5-.7 3-1.7 1.4.1 4.4-1.6 5-3.1 4-1.2 20.5-11 25.1-14 2.5 1.4 6 4.6 7 7.3q-1 0-1.8.6-19.2 13.4-37.9 27-3.1 1.4-5.3 3.9c-1 .7-3.2.4-3 2.2q-1.2 0-2.3.5-1.9 1.5.4 1.3 1.3-.6 2-1.8l1.7-.3q24-14.2 48.1-28l1.8-2a70 70 0 0 1 5.5 8.3l-43.8 31q-2.8 2.1-5.4 4.4-1 .1-1.8.6-1.8 1.3-3.2 2.8c.8 1.3 4.3-2 5-2.8 1.7 0 5.2-2.4 6.5-3.3l44-25.3q1.2-.6 2.1-1.6 2.4 4.5 4 9.5c-2.5.6-39.3 26.4-39.6 27.6q-2.3 0-3.2 2.1-.5 0-.8.5.6.3.8-.5 2.3 0 3.2-2 3-.6 5.3-2.7 18-10 35.9-20.4 1.6 5 2.5 10c-5 .9-32.3 22.5-39 26.8q-.6.5-.8 1.2-1.9.3-2.9 1.9c.7 1 3-.6 2.9-2h2q18.2-10.8 36.6-21.4l2-1.6c.3 8 .7 16.7-.9 24.5q-1 .4-1.9 1-14.8 11.4-30 22.3a2 2 0 0 0-.8 1.3q-2 .4-3 1.9c.9 1.2 2.6-1 3-1.9 2.3.2 26.9-14.8 30.9-17.2-8.4 33.6-43.1 61.1-78 59.2l.3-.8 15.4-11.3a1 1 0 0 0-1-.4 15 15 0 0 1-4.4 2.3l-14 8.2a2 2 0 0 0-1 1.4c-4.6.2-9.4-1.4-13.7-2.5l-.5-.6q22-16.1 43.5-32.5-1.6-.5-2.3 1c-3.4 1.7-7.4 4.5-11 6.1L230.5 165q-.8.6-1.5 1.4-10.5-4.4-19.1-11.5 21.6-15 42.9-30.6 1.5-.7 2.9-1.6a1 1 0 0 0-1-.4c-1.2 1.2-2.6.8-3.5 2.4-15.8 8-31 17.4-46.2 26.5a40 40 0 0 1-6.7-7.3 5 5 0 0 0 2.1-1c14.2-9.7 28.9-20.7 43.1-29.9q.4-.3.3-.9c.4-.4 4.4-1.2 2.8-2a3 3 0 0 0-2.8 2 35 35 0 0 0-10.3 5.8q-18.7 10.2-37.1 21l-1.6 1.4c-1.5-2.4-4.7-5.7-5-8.6q1.2-.4 2.2-1.2l47-33.4 2-1.9q2.1-.4 3-2.2c.5.2 2.8-.3 1.6-1q-1 0-1.6 1-2.2.2-3 2.2c-1.6-.3-2.3 1.4-3.9 1.6l-51 29.5q-2.2-4.5-3.9-9.1 1.4-.3 2.5-1.1 21.8-15.3 43.4-31c.5-.2 4-1.3 2.6-2.2q-2 .3-2.6 2.2c-1.8 0-3.5 1.9-5.3 2.3q-21 12-41.9 24.5c-1.8-2.7-1.8-6.8-2.6-10q1 0 1.7-.6L195 91q3-1.5 5.1-4 1.9-.2 2.9-2c.5.2 2.6-.4 1.5-1q-1 0-1.5 1-2.2 0-2.9 2-3 .3-5.2 2.8-1.5.3-2.9 1.3l-14 8.2q-1.2-5.7-.7-11.6 1 .2 1.7-.4 11.6-8.1 23-16.7a4 4 0 0 0 3-2.7q2.1.3 3-1.8c.4.1 2.7-.4 1.5-1.2q-1.1.1-1.6 1.2-2 0-3 1.8-2.2.3-4 1.6c-3 2.4-18.8 10.5-23.3 13.8a39 39 0 0 1 1.6-12.5L185 67c2-1.3 4.9-3 6-5 .6.2 2.8-.3 1.5-1.1q-1.2 0-1.5 1-4 1.5-7 4.3-2.3.5-4 2 0-1.5.5-3.2A66 66 0 0 1 225 17.6c17.8-5 35.3-10.1 54.2-6.3Zm-25.4 4c.7-.1 4.2-1.2 2.8-2.3q-2.1.2-2.9 2.2Zm32 78.8q.8 0 1.2-.7-1-.3-1.1.6Zm-64 65c.6-.2 4.2-1 2.8-2a3 3 0 0 0-2.9 2Zm72.5 11q-.8 1-2 1.3.5-1.5 2-1.3Zm-2 1.3-7 3.9c-1.2.2-3.2.8-4-.4q0-.3.4-.5a56 56 0 0 0 9-3.1zM272 230.8q0 .7-.7 1.1-11.3 7.3-22.3 14.8a5 5 0 0 1-3 2.1c-1.3 1.7-2 1.3-3.7 2.1q-.2.4-.2 1-1.2 0-2.3.6-2 1.6.4 1.2 1.2-.6 2-1.8c2.2 0 2.3-.8 4-2 3.7-2.4 30.9-16.9 31.5-18.8 1.9 0 17-.8 17 .9q-10.3 7-20.9 13.6-.7.4-.7 1.3c-1.5 0-4.7 1.7-5.1 3.1q-1.2.2-2.2.6-2 1.5.4 1.1 1.2-.5 1.8-1.7c2.3.3 3.8-1.4 5-3l2-.3q11.1-6.9 22.6-13.3 1-.4 1-1.4c2.2.2 14 1 14.6 3q-1.4.4-2.7 1.2l-8.6 5.4a2 2 0 0 0-1 1.3c-1.4 0-4.6 1.7-5 3.1q-2.1 0-3 2-1.2-.2-1.9.7c.6 1 1.6 0 2-.7q1.8-.3 3-2c2 .1 4-1.4 5-3q1 0 2-.5 6-3.3 11.7-7.1c5.8-1 19 5.5 24.2 8.3l-2.7 1-43.5 28.5-11.2 7q-1 .6-1.5 1.7-2.2 0-3 2.1-1.4-.3-2.1.7c.6 1 2 .3 2-.7q2-.4 3.1-2 1 0 2-.6l11.6-6.8q23.7-13.5 47.3-27.3.8-.5.6-1.5c2.4.1 8.2 4.6 9.5 6.3a4 4 0 0 0-1.7.7l-44.5 28.8a3 3 0 0 1-2.3 1.6q-6.6 3.9-13 8.2l-1.6 1.4q-2.1.4-3 2.2-1.1-.3-2 .7c.7 1 2 .1 2-.7a3 3 0 0 0 3-2.2q1 .3 2 0 6.8-4.4 13.8-8.1 24.3-14.4 48.9-28.4 1-.3 1-1.4c2.4.6 5.8 5.2 7.1 7.2a3665 3665 0 0 0-54.7 35.1q-1 .2-1.7.7-4.7 3.4-9.8 6.4-1 .6-1.6 1.6a2 2 0 0 0-1.9.8c.6 1 2 0 1.9-.8q1 .2 2-.4l12-7 55-32q1-.6 1.3-1.7c1.2 2.7 4.8 6.5 5 9.5q-1.3-.2-2.3.4L303.5 315q-1.5.6-1.7 2.2-1-.4-2 0c-2 1.7-6.5 3.5-8 5.7q-1.5-.3-1.8 1.1-2 .3-3.1 1.6c1 1.5 2.4-1 3-1.6q1.5.3 2-1c2.3-.4 8.7-4 9.9-5.8a7 7 0 0 0 3-1.3l65.2-37.7c1.4.5 3.3 7.3 3.7 9-1.6.1-8 4.7-9.5 6q-.9.1-1.6.7l-1.9 1.1-1.1 1-3 1.8-4.8 3.1-1.2.8a70 70 0 0 0-6.4 4.5l-1.5.7q-.9.6-1.6 1.4-.9 0-1.5.6l-2 1-1 1-3 1.8q-.7.8-1.8 1.2l-1.2.8a160 160 0 0 0-9.4 6.6l-1.6.6-2 1.2-1 .9-3 1.7q-.7.7-1.8 1.2l-1.2.8-1.8 1.2-1.2.8-1.8 1.2-1.2.8a19 19 0 0 0-3.5 2.6q-.8.1-1.5.7l-2.9 1.8q-1 .8-2 1.2l-1.1 1-2 1.1-8.7 5.6q-.7.5-1 1.2-2 .2-3.1 2-1.4-.2-2 1c-.9.4-2.6.6-2.8 1.7.9 1.4 2.5-.8 2.8-1.6q1.5.4 2-1.1 2.3.1 3.1-2 1 .2 2-.3a197 197 0 0 0 14.3-8.4l.7-.5q.8 0 1.3-.6l3.7-2 1.3-.8a42 42 0 0 1 5-3l.7-.6q.8 0 1.3-.7l5-2.7.8-.5 1.2-.8 3-1.6.7-.3 1.3-.8.7-.5q.8-.2 1.3-.8a11 11 0 0 0 3.4-2.3q1 0 1.6-.6 3-1.4 5.4-3.3l1.6-.7 5-2.8.7-.5 1.3-.7 5-2.8q2.9-1.6 5.5-3.6.8 0 1.5-.7l5-2.7.7-.5 1.3-.7 5-2.8.7-.5q.8-.2 1.3-.8a9 9 0 0 0 4.3-3.2q1.4 5 1.8 10.1c-8.6 5.5-17 11.2-25.7 16.2-1.9 1.6-9 4.8-9.6 6.9-2 0-4.3 1.2-5 3q-2.4-.3-3.1 2-1.5-.2-2 1-1.1 0-2.1.4-2 1.7.5 1.3 1.1-.6 1.6-1.7 1.5.3 2-1 2-.3 3-2a7 7 0 0 0 5-3q1.1.1 2-.4 4.5-2.7 9.1-5.2 12.4-7.5 25-14.6 1 5.6 1 11.2-1.7-.4-3.2 1l-1.2.7a66 66 0 0 0-6.5 4.5l-1.5.7-1.5 1.3q-.8 0-1.5.7l-2 1.2q-.6.3-1 .9l-1.7 1-1.2.8-1.9 1.1-1.2.8a133 133 0 0 0-9.5 6.6q-.8 0-1.5.6l-1.9 1.2q-.6.3-1 1-1 .3-1.8.9l-1.2.8-1.8 1.2-1.2.8-1.9 1.1-1.2.8q-3.4 2.1-6.4 4.6-.9 0-1.6.6l-4.6 3.3q-.8.1-1.4.8l-3 1.8q-.7.6-1.8 1.1l-1.2.8-1.8 1.2-1.2.8-3 2-3 2q-2 1-3.4 2.6a3 3 0 0 0-1.6.7l-1.9 1.1-1 .8-1.8 1-1.2.8-2 1.4-11.2 7q-1 .7-1.6 1.8-1.5 0-2 1c-1 .4-2.7.6-3 1.8 1.1 1.4 2.6-.8 3-1.8q1.5.5 2-1 1 0 2-.6l17.3-10 .9-.6q.6-.1 1.1-.6l5-2.8.7-.5 1.3-.7 3-1.8.5-.5q.8-.2 1.5-.8l5-2.7.7-.5q.8-.2 1.3-.8l5-2.7.8-.6 1.2-.6 5-2.8 7-4.3a67 67 0 0 0 7-4l5-2.7.7-.5q.7-.2 1.3-.7 2-1.2 4-2.1.6-.4 1-1l5-2.7.7-.6q.7-.2 1.2-.6l5.1-2.8.8-.5 1.3-.8 4.9-2.7.8-.5q.6-.2 1.2-.8a14 14 0 0 0 3.5-2.2q.3 5.7.2 11.5-1.1 0-2.1.6l-1.2.8q-3.4 2.1-6.5 4.6a3 3 0 0 0-1.5.6l-1.5 1.3-1.5.8-2 1-1 .9q-1 .7-2 1.1l-1 1a47 47 0 0 0-6 3.7L352 353l-1.2.8-9.6 6.5-1.5.7-1.4 1.3q-.9.2-1.5.8l-2 1.1-1 .9-1.8 1-1.2 1-3 1.8-1.8 1.1-1.2.8-1.8 1.2-1.2.8-9.4 6.4-1.5.8-1.6 1.4q-.8 0-1.4.6l-2 1-1 1a51 51 0 0 0-6 3.9l-3 2-1.9 1.1-1.2.8-2 1.5q-6 3.6-11.7 7.4-.7.5-1 1.2-2.2.1-3 2.2-1.4-.3-2 1l-2 .6q-2.2 1.5.3 1.3a3 3 0 0 0 1.7-2q1.5.5 2-.9 2.2 0 3-2.1 1.1.2 2-.3 4-3 8.4-4.8c1.4-1 1.6-2.2 3.7-2l1-.7 1.2-.9.8-.4 1.1-.7 3.2-1.8.6-.2 1.3-.8 5-3 .9-.4q.8-.3 1.1-.9a49 49 0 0 0 7-4l5-2.7.8-.4 1.3-.8 4.9-2.8q2.8-1.5 5.5-3.5.8-.1 1.5-.7l5-2.8.7-.5 1.3-.8 5-2.7.7-.5 1.3-.8 4-2q.6-.3 1-1a35 35 0 0 0 5-2.7l.7-.5q.9-.1 1.4-.7l5-2.8.5-.5 1.4-.7 5-2.8.8-.6 1.2-.6q1.9-1 3.5-2.3.7-.2 1.5-.7l1-.2-.1 11.2q-1.2 0-2.2.5c-20.4 13.1-40.9 26.7-61.3 39.5l-8.7 5.6q-.7.4-.9 1.3a3 3 0 0 0-3.2 2q-1.5-.2-1.9 1-2.1 0-3 1.6c1 .9 2.5-.6 3-1.5.8 0 2.1 0 2-1.2a4 4 0 0 0 3.1-2q1 .2 2-.4l9-5.2 61-35.3h.8c.3 3 1.6 8.8-1 11-4.7 2.2-9.3 5.9-14 8.5q-.6.4-.7 1.3a6 6 0 0 0-5 3.1 7 7 0 0 0-5.1 3c-2 .2-4.1 1.4-5.1 3q-1 .1-2.1.5-2 1.7.5 1.2 1.1-.6 1.6-1.7 2.3 0 4-1.6.7-.5 1-1.4a7 7 0 0 0 5.2-3 6 6 0 0 0 5-3.1q1.7 0 3.1-1l12.8-7.5q.7.5.6 1.4 0 10.8 1 21.6-1-.6-1.7 0a127 127 0 0 0-9.5 6.5q-2.1.5-3 2.4c-1.4-.8-4.5 2.4-6 3q-.9.6-1.4 1.8-3.3.2-5 3.1-2.5-.4-3.1 2-1.2-.4-2 .6c.6 1 2.1.2 2-.7a5 5 0 0 0 3-1.9q3.1-.6 5.1-3.1c1.9 0 6.4-3.1 8.1-4.3l11.5-6.4q1-.7 2-1.7 1.2 11.3 1.2 22.6-.8 0-1.6.5l-40.7 29.5q-1 .6-1.4 1.7-2.2 0-3.2 2-2 0-3 1.7c1.1.9 2.6-.7 3-1.6q2.3 0 3.2-2.1 1.3 0 2.5-.7l41.4-24q.8.5.6 1.5c.2 13.4 1.1 57.7-11.8 65.1q-.4-1.4.6-2.4h-.8q-6 3.7-11.8 7-.9.6-.6 1.5c-6.4 1.2-12.4.8-18.8.8q-1 .1-1.4-1 .8.1 1.5-.5 2.3-1.8 4.2-3.7-.9-.3-1.8.2c-1.4 1.2-5.2 2.4-5.9 4-7.1 1-16.3-.8-23.8 0q-16.3-.6-32.6 0-1.8 0-3-1.3c-4.3 2.4-15.8.8-21 1.3 17.8-11.4 35.2-25 52-37.5 1-.7 2.7-.6 3.2-1.9-1-1.5-2.4 1.3-3.1 1.9-2.6-.2-8 4.1-10.4 5.7a3741 3741 0 0 0-52.1 29.7q-1.3.8-2.4 1.8-19.5-.2-39 .3c7-3.9 13.6-8.7 20.5-13q2.6-1.2 4.4-3.4c1.6-.4 7.8-3.7 8.2-5.3q2.2 0 3-2a2 2 0 0 0 2-.7c-.6-.9-2-.2-2 .7q-2 .2-3 2a24 24 0 0 0-9 5.1c-1.6 0-3.6 2-5 2.6-5.9 3.8-18.2 9.7-23 13.7q-9.1.6-18.1.3 5.3-4 11-7.4 1-.5 1.1-1.2 2.3-.1 3-2.1 1.5.3 2-1.1 2 0 3-1.9c.6.2 2.6-.4 1.5-1.1q-1 .1-1.4 1.1-2.1 0-3.2 1.9-1.3-.1-1.8 1-2.4 0-3 2.2a3 3 0 0 0-2.1.3l-14 8.2c-5.2 1.6-11 .8-16.4 1q-1.2.3-1.7-.7l19.8-12.5q1.2-.7 2-1.7 1-.1 2-.7l7.3-4.7q.8-.3.9-1.2c1.4-.2 4.6-1.6 5-3q2.3 0 3-2 1.3 0 2-.8c-.6-.9-1.6.1-2 .7q-2.1.1-3 2c-1.8-.3-4 1.6-5 3.1a3 3 0 0 0-2 .3q-4.4 2.8-9 5.3l-6.4 4.1q-9 4.5-17.5 9.8-.7.4-.8 1.2-7-.3-12.5-4.4l2.3-1 61.4-39.6 4.6-2.9 9-5.7q.7-.5 1-1.2 2.1 0 3-2.1 1 .3 1.8-.6c-.5-.9-1.6 0-1.9.6q-2.1 0-3 2.1h-1.4l-5.6 3.3-3.8 2.8q-2.7 1-5.2 2.5-.6.8-1.4 1.2a4581 4581 0 0 0-63 36.1q-.8.4-1.4 1.2a19 19 0 0 1-5.1-9 5 5 0 0 0 3-1l1.3-.8q.8-.7 1.8-1.2l1.2-.8 1.8-1.2 1.2-.8q4.9-3.2 9.6-6.6.8-.1 1.4-.6l1.5-1.3q.8-.2 1.5-.8l2-1 1-1 1.9-1 1.2-1 1.6-1 1.2-.8 1.9-1.1 1.2-.8 1.8-1.2 1.2-.8q5-3.1 9.6-6.6.8-.2 1.4-.6l1.6-1.3q.8-.2 1.4-.8l2-1 1-.9 3-1.9 1.8-1.1 1.2-.8 1.8-1.2 1.2-.8 1.8-1.2 1.2-.8 3-2 1.8-1.2q.8-.3 1.2-.8l.7-.6 1.4-.7 1.4-1.2 1.6-.8q.8-.5 1.4-1.3.8-.1 1.5-.7l2-1 1-1 3-1.8q.7-.7 1.7-1.2l1.3-.7q.8-.9 2-1.4l10.4-6.6a7 7 0 0 0 2.2-2.4c.8.2 2.3.2 2-1 .7-.3 4-.7 2.7-2q-2.1 0-2.7 2a2 2 0 0 0-2 1q-7 3.5-14 7.7-1.7 1.6-4 2.4l-1.2.7-.7.5-1.4.8a33 33 0 0 0-4.8 2.8l-.8.4-1.3.8-1.8 1-1.2.6-.7.4-1.3.7-5 3-.6.6q-.8.1-1.4.7a91 91 0 0 0-10.7 6l-1.3.8-.8.5q-.6 0-1.1.6-2 .9-3.6 2.4l-1.6.6-3.7 2-1.2.8-.7.5-1.2.8a23 23 0 0 0-5 2.8 52 52 0 0 1-7 3.9l-7 4.3a33 33 0 0 0-5.1 2.7l-.8.6-1.2.6-5 2.8-.8.5-1.3.7-3.8 2.2-1.1.9a7 7 0 0 0-3.5 2.3L133 465q1.7.2 3-1l1.2-.8 3-2 3.1-2 8-5.2 1.5-1.2q.8-.2 1.5-.8l2-1 1-1 1.7-1 1.2-.8 3.1-2q4.9-3 9.5-6.5l1.5-.7 2-1.1 1-.8 1.7-1.1 1.2-.8 1.8-1.2 3-2q.8-.3 1.3-.7l6.6-4.6q.8-.1 1.4-.6l1.5-1.3q.8-.2 1.6-.8l2-1 1-.9a38 38 0 0 1 4.7-3l1.2-.8 1.8-1.2 1.2-.8 1.8-1.2 1.2-.8 1.8-1.2 1.3-.8.7-.6q.8-.1 1.2-.6l1.6-1.4q.8 0 1.4-.5.8-.9 2-1.2l1-.9q.8-.8 2-1.2c1.7-1.2 9.2-5.3 9.7-6.9q2.1 0 3-2 1.2.2 1.8-.7c-.5-.9-1.6 0-1.8.7a3 3 0 0 0-3 2q-1 0-2 .4l-9 5.3q-2 1.2-3.8 2.6-.8 0-1.4.5-1.8 1.4-3.9 2.1l-1.2.8-.8.4-1.2.8-3.7 2-1.3.8-5 3-1 .4-1 .9a40 40 0 0 0-7 4l-5 2.7-.7.5-1.2.7a32 32 0 0 0-5.8 3.4l-1.4.6q-1.7 1.2-3.8 2l-1 1-5.1 2.8-.7.5-1.3.8a132 132 0 0 0-12 6.7l-.8.5q-.8.2-1.3.7-1.8 1-3.4 2.3-.7.2-1.5.7l-3.8 2-1.2.8-.8.5-1.2.8-5 2.7-.8.5-1.1.7-1.2 1a77 77 0 0 1-.5-11.2c2.3.4 24.2-14.6 27.7-17q3-1.1 5.2-3.4c2.4-.3 6.5-4 9-5a2 2 0 0 0 1-1.4q2.2.2 3-2 1.4.4 2-1 2 0 3-1.5c-1-1.1-2.7.5-3 1.6q-1.4-.3-2 1a4 4 0 0 0-3 2q-.8-.2-1.4 0a79 79 0 0 0-9.6 6.1c-1.3.7-4.9 1.4-4.7 3.2-2-.4-23.7 13-27.2 15l-.2-11.4 1 .2q.8-.3 1.4-.8 1.9-1.2 3.5-2.5.8-.3 1.5-.8l1.6-1.2q.8-.2 1.4-.7 1-.7 2-1l1-1 3-1.9 1.8-1.1 1.2-.8 1.8-1.2 1.2-.8 3.6-2.5q.8-.1 1.4-.8l1.5-1.2 1.6-.8 1.8-1 1.1-1 9-5.7 6.5-4.5 1.5-.7 1.4-1.3q.9-.1 1.6-.7l2-1.1 1-1 3-1.7 1.8-1.2 1.2-.8 3-2 3-2 .7-.6q.8-.3 1.3-.7.8-.5 1.5-1.2l1.5-.7q1-.7 2-1.1l1-.8q.7-.8 1.7-1.2l1.2-.8 2-1.4 4.8-3 6.4-4a6 6 0 0 0 1.6-1.7c.7 0 2 0 2-1 .4-.2 4.2-1.3 2.6-2.2q-2 .4-2.7 2.2-1.4-.5-1.9 1c-2.1 0-7.2 3.6-9.1 4.9a53 53 0 0 0-9 5l-1.2.7-.7.5-1.3.7-5 2.8-.7.5q-.7.2-1.2.7a55 55 0 0 0-7.1 4l-1.8 1-1.3.8-.7.4-1.2.8-3.8 2-1.2.8-.8.6q-.6.1-1.3.6l-5 2.8-.6.6q-.7 0-1.3.6l-10.5 6.3q-.8.2-1.5.7l-5 2.8-.7.6q-.8.2-1.4.6l-4.8 2.9-.8.4q-.8.2-1.4.8l-3.6 2-1.3.7q-3 1.5-5.4 3.6-.8 0-1.5.7l-1.7 1.2q-.1-5.6.3-11.3a8079 8079 0 0 0 69.6-44.6q.8-.4.9-1.2c1.5-.2 4.6-1.6 5-3q2.2-.2 3.2-2.1c.4.2 2.5-.4 1.5-1q-1 0-1.5 1-2.3 0-3.1 2c-2.3-.3-4 1.4-5.1 3q-1 0-2 .4l-9 5.2q-.6.8-1.4 1.2a2557 2557 0 0 0-56.3 32.5l-1.2-.2c-.7-2.9 0-7.4 0-10.5 2.1.1 44.8-28.1 50.3-31.7l8-5.1a5 5 0 0 0 1.7-1.8c1.5 0 4.7-1.6 5-3q1.1.1 2.2-.4 2-1.6-.6-1.2-1 .4-1.7 1.5c-1.8 0-4 1.6-4.9 3.1a4 4 0 0 0-2 .5l-9 5.2q-24.5 14.1-48.8 28.6c.2-3.2-1-10 1.8-12.2a1946 1946 0 0 0 47-30.2c2.1-1.5 6.7-3.6 8-5.9a8 8 0 0 0 5-2.9c.9.2 4.5-1 2.6-2q-2 .2-2.5 2a7 7 0 0 0-5.2 3c-2-.2-5.5 3-7.6 3.7q-.9.3-1.3 1.2-2.6 1-4.7 2.5-21.4 12-42.5 24.6l.2-11.4q.9 0 1.6-.6l41.8-27.2 1.3-1.2c1.6-.2 9.6-5.5 10.3-6.6q2.2-.2 3-2.2 1.2.3 1.8-.6c-.5-.8-1.5 0-1.8.6q-2.3 0-3 2.2h-1.4l-9.7 5.5c-14.1 9-29.3 17-43.8 25.6 0-11.8 0-23.7.9-35.4 1.9.3 5.4-3.3 7.3-4 1.4-1 4-2.1 4.6-3.7a8 8 0 0 0 5.2-3q1.8-.5 3-2.1c.4.2 2.5-.4 1.4-1q-1 0-1.5 1-2.1 0-3 2c-1.9-.3-4 1.5-5.1 3-2-.3-4.2 2-6 2.8l-6 3.5q.4-6.3 1.2-12.6 1 .1 1.9-.3 6.6-4.4 13-9.2 2.1-.3 3-2.2 2.1.3 2.9-1.6c-1-1-2.6.6-2.9 1.6q-2.4-.1-3 2.2h-2.1q-5.2 3.4-10.6 6.6l-1.3.4c-.6-4.3 1.4-10.3 2.2-14.6q.9.7 1.8.1c5.8-4.7 18.4-12.7 22.8-17.6q2.2 0 3.2-2c.5 0 2.6-.4 1.5-1.2a2 2 0 0 0-1.5 1.2q-2.2 0-3.2 2c-2.2.5-20.3 10.6-21.5 12.3l-1.1-.2c3-21.2 24.6-46.3 46-51v.9a41 41 0 0 0-6.7 6.1c-.8.6-3 1-3.2 2.2q.8.5 1.7 0 8.4-5.2 17-10c.6-.8 3-1.4 2.7-2.4 13.4-2.7 27.7-2 41.3-2.7l-.3.6a1680 1680 0 0 0-32.2 24q-3 1.4-5.2 3.9l-3 1.6q.3.5.9.2c17-9.3 34.4-19.7 51.5-29.4q.8-.4 1.1-1.2c5.1-1.4 13.7-.8 19.3-1.2Zm51.8 10.1-2 .5q-2 1.6.4 1.2 1.2-.5 1.6-1.7a2 2 0 0 0 2-.6c-.6-1-1.7 0-2 .6ZM148.1 330q-2.2.2-3 2c-1-.2-6 2-4.8 3.1 1.4-.2 4.2-1.7 4.7-3q2.1-.3 3-2c.6 0 2.8-.3 1.6-1.2q-1.3 0-1.5 1.1ZM373 389q-2.3 0-3 2-1.4-.3-2 1c-1 .2-2.8.4-3 1.6 1 1.1 2.7-.6 3-1.7q1.5.3 2-.8 2.1-.2 3-2c1 .2 6.3-2.3 4.6-3.2-1 0-4.4 1.9-4.6 3.1Zm3.8 23.1c.7-.2 4.4-1 2.9-2.2q-2.3 0-2.9 2.2ZM378 442q-1.2-.2-1.9.7c.6 1 1.9.2 1.9-.7.7-.2 3.9-.7 2.5-2q-1.9.2-2.5 2Zm2.8 10.2c.2 0 1.9-.4.9-1q-.7.3-1 1ZM279.6 497c2 2.4 7.7-3.6 9.3-4.7-.8-1.3-8 4.1-9.3 4.7Zm-47.6-2a2 2 0 0 0-2 1 4 4 0 0 0-3 1.6c.8 1.2 2.8-.5 3-1.7q1.4.3 2-1c.8.1 4-.9 2.6-2a3 3 0 0 0-2.6 2Zm67.7 3c.7 0 3.9-.8 2.8-2q-2 .1-2.8 2Zm20 .1c1 .2 4-1 2.8-2.1q-2.1.2-2.7 2.1Z"/><path fill="#5d9be9" fill-opacity=".3" stroke="#5d9be9" stroke-opacity=".3" stroke-width=".5" d="M319.8 498.2q.6-2 2.7-2.2c1.1 1-1.9 2.3-2.7 2.1Z"/><path fill="#609ceb" fill-opacity=".3" stroke="#609ceb" stroke-opacity=".3" stroke-width=".5" d="M230 496c-.1 1-2.2 2.8-3 1.6a4 4 0 0 1 3-1.7Z"/><path fill="#5d9eed" fill-opacity=".3" stroke="#5d9eed" stroke-opacity=".3" stroke-width=".5" d="M279.6 497c1.4-.6 8.5-6 9.3-4.7-1.6 1.1-7.4 7-9.3 4.7Z"/><path fill="#5c9aea" fill-opacity=".3" stroke="#5c9aea" stroke-opacity=".3" stroke-width=".5" d="M359.2 385a7 7 0 0 1-5.1 3q1.8-2.7 5-3Z"/><path fill="#5088c8" fill-opacity=".1" stroke="#5088c8" stroke-opacity=".1" stroke-width=".5" d="M364.2 381.8q-1.7 2.9-5 3.1 1.6-2.9 5-3.1Z"/><path fill="#5e9cea" fill-opacity=".5" stroke="#5e9cea" stroke-opacity=".5" stroke-width=".5" d="M324 241q-.5 1.1-1.7 1.6-2.5.4-.4-1.2zm-31 7c-.3.7-1.3 1.6-1.9.7q.7-.9 2-.7Zm39 84q-.5 1-1.6 1.7-2.6.4-.5-1.3 1-.4 2.1-.4Zm17 59q-.5 1.1-1.6 1.6-2.5.5-.5-1.2zm-105 22q.3-2.3 2.6-2c1.3 1.2-2 1.6-2.7 2Zm-43 61c.3-.6 1.3-1.6 2-.7q-1 .9-2 .7Zm43-381q.5-1 1.5-1c1.2.7-1.1 1.2-1.6 1Zm-89 220q.5-1 1.5-1c1 .6-1 1.2-1.5 1Zm-7 17q.3-1.2 1.6-1.1c1.2.9-1 1.2-1.5 1.1Zm160.8 132.2c.6-.6 2-3.4 3.1-1.9-.5 1.3-2.2 1.2-3.1 1.9ZM203 85q.5-1 1.5-1c1.1.6-1 1.2-1.5 1Zm100 45.8c-.3 1-2 3.1-3 1.9q1.2-1.5 3-1.9Zm-13 193.3c-.7.6-2 3-3 1.5q1.2-1.4 3-1.6Zm-98 3.8c.3-.6 1.3-1.4 1.8-.6q-.6.8-1.8.6Zm3 14.2a3 3 0 0 1 2.6-2c1.9 1-1.7 2.2-2.5 2Zm173 49.8c-.3 1-2 2.8-3 1.8.2-1.3 2-1.5 3-1.8Zm8.8 20.2q.6-2.1 2.9-2.2c1.5 1.2-2.2 2-2.9 2.2ZM225.9 443c.3-.6 1.3-1.5 1.9-.6q-.7.9-1.9.6ZM278 45c-.4 1-1.9 3-3 1.7a4 4 0 0 1 3-1.7Zm-34.2 67.1a3 3 0 0 1 2.8-2c1.6.9-2.4 1.6-2.8 2ZM277 350c-.3.8-1.9 3-2.8 1.7.2-1.1 2-1.4 2.8-1.7Zm-65.8 14q.5-1 1.5-1c1 .7-1 1.2-1.5 1Zm63.9 20c-.4 1-1.9 3.1-3 1.7.3-1.2 2-1.4 3-1.8Zm27 21c-.5 1-2 2.5-3 1.6q.9-1.8 3-1.5Zm-122 12c.3-1.1 2-2.7 3-1.6q-1 1.5-3 1.6Zm172-2c.1 1-1.4 1.7-2 .7q.8-1 2-.7Zm-16 39c-.4 1-1.9 2.5-3 1.6q1-1.7 3-1.7Zm-95 22c0-1 1.4-1.6 2-.7a2 2 0 0 1-2 .7Z"/><path fill="#5c9de9" fill-opacity=".2" d="m303.3 335.3-1.2.8q0-1.1 1.2-.8M212 431q0 1.1-1.3.7zm-4.6 6.4-1.2.8q0-1 1.2-.8"/><path fill="#609aec" fill-opacity=".2" d="m308.3 365.3-1.2.8q0-1 1.2-.8m-96 49-1.2.8q.1-1 1.2-.8m-78 18-1.3.8q.3-1 1.3-.8"/><path fill="#5d9deb" fill-opacity=".4" d="M317.3 360q-.5.6-1.3.8.3-1 1.3-.8M213 411q-.2 1-1.2.8zm-59 2.2q-.3.8-1.3.6.6-.4 1.4-.6"/><path fill="#568cce" fill-opacity=".5" d="M319 154.8q0 .8-.7 1.4-.1-.8.7-1.4m-.7 1.4-.8 1.3q-.4-1.2.8-1.3m-.8 1.3-1.7.6q.5-1.2 1.7-.6"/><path fill="#486d9d" fill-opacity=".9" d="M189.2 237.5q-.8 1-2 1.6v-.9q.6-1.2 2-.7"/><path fill="#262626" stroke="#262626" stroke-width=".5" d="M257.7.7q3.3.6 6.6 0 7.2.6 14.4 1.6.7.7 1.7.7c70 16.8 94.1 104 38.6 151.8q-.9.5-.7 1.4-1.1 0-.8 1.3-1.2-.6-1.7.7l-.8-.5q-.9.3-1.3 1.1-.6.3-1 1a135 135 0 0 1-18.4 10.3q-1.5-.1-2 1.3l-1.5-.1a56 56 0 0 1-9.1 3l-.4.6q-10 2.2-20 4-2.7-.3-5.5.2-8-.3-15.9-1.2c-.4-1.5-2.8-.9-4-.8l-1-.4q-7.5-2.3-14.8-5-1-.7-2.2-.4c.4-1.3-1.4-1.3-2.2-1q0-1-1-1c-34.4-17.9-53.8-49.4-49.6-88.8a86 86 0 0 1 32.1-57.3 2 2 0 0 0 1-1.3c7.4-4.8 14.4-9.4 22.4-13a2 2 0 0 0 1.6-.7q.3 0 .5-.3 1 0 1.5-.8l.6-.1c1.9-.2 6.4-1 7.5-2.8A130 130 0 0 0 248.6 1q4.5.2 9.1-.3Zm-77.6 67.6q-1 1-.8 2.5a39 39 0 0 0-1.7 12.5 10 10 0 0 0-.3 4.4q-.4 5.9.7 11.6l.2 2.6c.8 3.2.8 7.3 2.6 10q0 2.8 1.3 5.3 1.6 4.7 4 9.1c.7 1.1 2.3 5.4 3.7 5.4.3 3 3.5 6.2 5 8.6q1.5 2 3.5 3.6a40 40 0 0 0 11.6 11 77 77 0 0 0 27.2 14.2q0 .4.5.6c4.3 1.1 9.1 2.7 13.6 2.5.2.9 3 .7 3.7 1l1.1-.4c34.9 2 69.6-25.5 78-59.2q1.2-3.6 1.8-7.4a102 102 0 0 0 .1-29.4 68 68 0 0 0-4.1-14.6 69 69 0 0 0-7.4-15.2 70 70 0 0 0-5.5-8.3c-1-1-2.2-3.5-3.7-3.5-1-2.7-4.5-6-7-7.4q-.5-1.4-2-1.5c-.7-2.3-6-5.5-8.2-6.7a11 11 0 0 0-5.1-2.6c0-1.5-9.2-4.5-11-4.7l-2.7-1c-19-3.8-36.4 1.3-54.2 6.3A66 66 0 0 0 180.5 65q-.4 1.6-.4 3.3ZM361 512h-25q-.5-.9-1.4-.7c-53.3-4-108.5-1.2-162.1-2-18 0-41.7 4.6-49.8-16.4-8.2-24.2-2.7-56-1.7-81.4 0-33.7-.4-66.9 3-100.5 1.3-.7 1-2.9.9-4 1-4.6 2.6-10.8 3-15.2 1.2.3 2-5 2.3-5.8q.7-3 2.1-5.9l2.7-7 .2-1q.6-.5.8-1c15.7-32.3 43-44.8 77.5-47.8 33.6 0 68.8-5 102 .9 50 8 77 49.7 77.5 98.3q.5 61.5 0 123 0 8.6.9 17c.9 26.9-1.2 45.8-32.2 49q-.5 0-.7.5ZM252.8 232q-5.9-.3-11.7-.1l-1 .4c-13.7.6-28 0-41.4 2.7q-4.8.7-9.5 2.5-1.5-.5-2 .7c-21.4 4.7-43 29.8-46 51l-.6.8a22 22 0 0 0-1.5 4.6c-.7 4.3-2.7 10.3-2.1 14.6l-1 2.5a149 149 0 0 0-1 14 492 492 0 0 0-1 40l-.3 15q.4.8 1.3.4c-2.8 2.2-1.6 9-1.8 12.2q-.2 2.1-.2 4.4c0 3-.7 7.5 0 10.4l-.2 1q-.7 2.8-.4 5.8a110 110 0 0 0-.3 11.3 299 299 0 0 0 0 18.1v2.4a77 77 0 0 0 .5 11.3l.4 7 1.2 11.3q.7 3.5 1.8 6.8c1 3 2.6 7 5.1 9q1.4 2.1 3.6 3.3 5.6 4 12.5 4.4 1.8.6 3.7 0 .6 1 1.7.9c5.3-.3 11.2.5 16.4-1q2 .4 3.9 0 9 .2 18-.3 2 .6 4 .3a1056 1056 0 0 1 51.8 0c5.2-.5 16.7 1.1 21-1.3q1.2 1.2 3 1.2 16.3-.5 32.6 0c7.5-.7 16.7 1.1 23.8.2h2q.3 1 1.4 1c6.4-.1 12.4.3 18.7-.9 5-1 7.8-1.5 11.4-5q1 0 1.3-1c13-7.5 12-51.8 11.8-65.2q.2-1-.6-1.5a16 16 0 0 0-.2-7 224 224 0 0 0-1.2-24q-1-10.7-1-21.5 0-.9-.6-1.4.5-1.6-1.1-1.2c2.5-2.3 1.2-8.2.9-11.2l.2-1v-4.8l.1-11.2q0-4.4-.2-8.6a163 163 0 0 0-2.6-32.4 56 56 0 0 0-3.6-15.7c-.4-1.7-2.3-8.5-3.7-9-.1-1.2-.5-3.7-1.9-4 0-3-3.7-6.6-4.9-9.4l-2.5-2.7c-1.3-2-4.7-6.6-7-7.2a4 4 0 0 0-2.7-2.8c-1.3-1.7-7.1-6.2-9.5-6.3.2-1.3-1.7-1.6-2.6-2-5.2-3-18.4-9.4-24.2-8.4q-.6-.9-1.5-.4c-.7-2-12.4-2.8-14.7-3q-1.8-.3-3.8 0c0-1.7-15.2-1-17-.9q-2.8-.3-5.8-.3c-5.5.4-14.1-.2-19.2 1.2Z"/><path fill="#5c9be9" fill-opacity=".3" d="M355 351q-.3 1-1.3.7zm-180 50q-.3 1.1-1.3.7zm-38 54q-.3 1.1-1.3.7z"/><path fill="#5d9bec" fill-opacity=".3" d="m317.3 327.3-1.2.7q0-1.1 1.2-.7M198 438.9q-.2 1-1.2.8zm-57.6 22.4-1.2.8q.2-1 1.2-.8"/><path fill="#5d9ce8" fill-opacity=".2" d="m215.4 412.3-1.3.8q0-1 1.3-.8m-5 23-1.3.8q0-1.1 1.2-.8"/><path fill="#5f9ae7" fill-opacity=".2" d="M303.9 364.9q0 1.1-1.2.8zm-4.5 25.5-1.3.7q.1-1.1 1.3-.7"/><path fill="#5f9beb" fill-opacity=".4" stroke="#5f9beb" stroke-opacity=".4" stroke-width=".5" d="M277 284c0 1-1.4 1.7-2 .7q.8-1 2-.7Z"/><path fill="#5b9eed" fill-opacity=".2" d="m322.4 324.4-1.3.7q.1-1.1 1.3-.7m-126.5 64.5q-.1 1.2-1.3.7z"/><path fill="#609be8" fill-opacity=".2" d="m310.3 331.3-1.2.8q0-1.1 1.2-.8m67.6 4.6q0 1-1.2.8z"/><path fill="#5d9beb" fill-opacity=".5" d="M217.3 411.1q-.4.5-1.2.6.3-.7 1.2-.6m-78 17.9q-.7.6-1.5.8.6-.8 1.5-.8"/><path fill="#5e9ee9" fill-opacity=".3" d="m294.3 393.3-1.3.8q.1-1.1 1.3-.9"/><path fill="#5e9be9" fill-opacity=".2" d="M203 417q-.3 1-1.4.7z"/><path fill="#5e9aeb" fill-opacity=".3" d="M335 312q-.3 1.1-1.3.7z"/><path fill="#4871a1" fill-opacity=".5" d="M224.2 7q-.5 1-1.5 1 .5-1 1.5-1"/><path fill="#5e9cec" fill-opacity=".2" d="m197.3 391.3-1.2.8q.1-1 1.2-.8"/><path fill="#568fd6" fill-opacity=".3" stroke="#568fd6" stroke-opacity=".3" stroke-width=".5" d="m240 232.3 1-.4q-.2 1-1.3 1z"/><path fill="#5d9bec" fill-opacity=".2" stroke="#5d9bec" stroke-opacity=".2" stroke-width=".5" d="m235 176.7 1 .4.1.6q-.9 0-1.2-1Z"/><path fill="#5383c1" d="M371.9 493.8q-.2 1-1.3 1.1.4-.7 1.3-1"/><path fill="#609fe8" fill-opacity=".2" d="m200.3 389.3-1.2.8q0-1.1 1.2-.8"/><path fill="#4b6e9a" fill-opacity=".2" stroke="#4b6e9a" stroke-opacity=".2" stroke-width=".5" d="M313.7 158.8q.2 1-1 1 .4-.7 1-1Z"/><path fill="#476d9b" fill-opacity=".7" d="M315 157.7q-.3 1-1.3 1.1.4-.8 1.3-1"/><path fill="#2f4c75" fill-opacity=".1" stroke="#2f4c75" stroke-opacity=".1" stroke-width=".5" d="M195 89.8V91l-1.5 1q-.8-.2-1.5-1 1.3-.9 3-1.2Z"/><path fill="#2e4e76" fill-opacity=".1" stroke="#2e4e76" stroke-opacity=".1" stroke-width=".5" d="M303.6 315q.8.2 1.4 1a7 7 0 0 1-3.1 1.2q.2-1.5 1.7-2.3Z"/><path fill="#334558" fill-opacity=".5" d="M222.2 8.3a2 2 0 0 1-1.6.6q.7-.7 1.6-.7"/><path fill="#3a5372" fill-opacity=".3" stroke="#3a5372" stroke-opacity=".3" stroke-width=".5" d="M136 271a2 2 0 0 1-.8 1q0-.7.8-1Z"/></svg>