<svg xmlns="http://www.w3.org/2000/svg" style="shape-rendering:geometricPrecision;text-rendering:geometricPrecision;image-rendering:optimizeQuality;fill-rule:evenodd;clip-rule:evenodd" viewBox="0 0 512 512"><path fill="#5dc1ba" fill-opacity=".2" stroke="#5dc1ba" stroke-opacity=".2" stroke-width=".5" d="m322 117 .4 1-.5 1-1 .8q-5.3 2.5-10.3 5.5-36.4 21-72.7 42.4-.8 0-.8-1 .8-1.2 2.2-2a9388 9388 0 0 0 82.7-47.6Zm-130.2 75.1q.2.9 0 1.8-38.1 22.3-76.6 44-.5-1.4.8-2 .7-.2 1-.8 37.6-21 74.8-43Z"/><path fill="#68cec5" fill-opacity=".4" d="m261.8 86.2 1.6-.1a2 2 0 0 1-1.4.7zm169 11.8q0 1-1.2 1zm-19 12q0 1-1.1 1zM189 115q.3-1 1.4-1c1 1-.9 1.3-1.4 1m214.4 6q-.7.5-1.5.7.5-.7 1.5-.6m-172 10-1.3.7q.3-.7 1.3-.6m146 5q-.6.7-1.4.7.4-.8 1.4-.7m-172.2 10q-.4.5-1.2.7.4-.8 1.2-.7m153 1q-.6.6-1.4.8.5-.8 1.5-.7m-167 4.2q-.7.7-1.6.7.8-.6 1.5-.7m-12 9.8-1 .8q0-1 1-.8m-14.2 5.3q-.4.8-1.3.6zm126 1.7c-1 1.6-3 3-5 3 .4-1.4 3.5-3 5-3m-137.7 8.1-1.2.6q.3-.7 1.2-.6m-7.7 1q.3 1-.8.9zm9.1 48q0 1-1 .8zm274.6 22-1.5.7a2 2 0 0 1 1.5-.8m-326 8.2q-.7.6-1.7.6.7-.6 1.6-.6m297.4 2.8q0 1-1 1zm9.6 0-1.3.6q.4-.7 1.3-.7m-304 2-1.1 1q0-1.2 1.1-1m225.6 0c-.8 1.5-3 3-4.8 3 .7-1.7 3-3 4.8-3m52.4 12.9q-.5.6-1.3.8.3-1 1.3-.8m-20.5 9q0 1-1.1 1zM142 306.3q-.5.9-1.5.8.8-.6 1.5-.8m-5.8 7.9-1 .9q0-1 1-1m-13.2 3.1q-.5.7-1.4.7.6-.5 1.4-.7m64 21.8q-.7 1.2-2.1 1a2 2 0 0 1 2-1m14 21a3 3 0 0 1-3.1 2q.9-1.9 3-2m-60.4 5.2q0 .9-1 .7zM137 370l-1.5.8q.5-.8 1.5-.8m3.7 11a4 4 0 0 1-3 2 3 3 0 0 1 3-2m-32.8 7-1.3.8q.4-.9 1.3-.8m-21 13.1q-.6.5-1.4.7.6-.7 1.4-.7m180.9 65.8q-.4.9-1.3 1z"/><path fill="#67cfc6" fill-opacity=".4" d="M417.3 113q-.6.6-1.4.8.5-.7 1.4-.7m-13.1 2.3a2 2 0 0 1-1.5.7q.7-.6 1.5-.7m-156.2 3q-.4.6-1.3.6zm-9.7 8.8q-.6.5-1.3.6.4-.7 1.3-.6m147 .2a2 2 0 0 1-1.6.6q.7-.4 1.5-.6m6 .8-1.2.7q.3-.9 1.3-.7m-172 10-1.2.6q.3-.7 1.2-.7m146.7 1q-.3 1-1.3 1 .5-.7 1.3-1m6.3 0q-.6.5-1.4.6.6-.6 1.4-.6M347 151.2q-.3 1-1.3.8.6-.6 1.3-.8m-153.6 2-1.3.6q.3-.7 1.2-.7m153 1q-.5.4-1.2.6.3-.8 1.3-.7M184 155q-.1.9-1.2.7zm-26 15q-.3 1-1.3.8zm158 .8q-.6 2.1-2.9 2a4 4 0 0 1 3-2m1.1 23.9c.1 1-1.4 1.8-2 .8a2 2 0 0 1 2-.8m-150 23.3q-.2 1-1.2.7.5-.6 1.1-.7M134 237q-.3.8-1.2.8.4-.5 1.2-.8m-87 9.8-1.1 1.6q-2.2 1.3-1-.8l2-.8m79.2.2q-.7.6-1.6.7a2 2 0 0 1 1.6-.7m291.1 7q-.6.5-1.3.8.4-.8 1.3-.7M96 259.4q-.4.8-1.3.7.6-.6 1.3-.7m295.4 9.7q-.6.6-1.3.7.4-.8 1.3-.7M197 275q.5-2.1 2.6-2c1.3 1-1.8 2-2.6 2m170.2 5.3q-.6.6-1.5.6zm5.2-.2-1.4.6q.4-.7 1.4-.6m-7.1 4-1.2.7q.2-.8 1.1-.8m-204.4 11.2q-.4.8-1.2.6.5-.4 1.2-.6m-45 26q-.4.9-1.3.6zm230.3 11.5c-.6.8-2 3-3.2 1.8.2-1.5 2-1.6 3.2-1.8m-6 22c-.5 1-2 2.7-3 1.8a3 3 0 0 1 3-1.8M150.2 362q-.5.5-1.1.5.2-.8 1.1-.5m-23.4 11.2q-.3.8-1.2.6a2 2 0 0 1 1.2-.6m2.4 1.7-1.1.8q.2-1 1.1-.8m-9.3 2.2q-.4.9-1.4.7zM100.3 393l-1.2.8q0-1 1.2-.8m-8 5q-.5.6-1.3.7.4-.7 1.4-.6"/><path fill="#69cec5" fill-opacity=".4" d="M263.8 82.8q0 .8-.9 1zm159.3 20.4q-.5.7-1.4.7zM255 114.3q-.3.8-1.2.6zM212.3 142l-1.3.8q.3-1 1.3-.8m153 1q-.5.6-1.3.7.5-.8 1.4-.7m-10.5 3.1q0 1-1.2.9zm-168.4 11q-.6.4-1.3.6.3-.7 1.3-.7m152.9.9-1.4.8q.3-1 1.4-.8m-164.5 16.2c.5-.8 2-3 3-1.8-.1 1.3-2 1.4-3 1.8M148 229.2q-.4.8-1.2.6.5-.4 1.2-.6m-6.9 4q-.4.7-1.3.7zm-8.7 9.8q-.7.6-1.5.6.5-.7 1.5-.6m304 0q-.6.4-1.4.6.5-.6 1.4-.6M122 244.3q-.5.7-1.4.6zm7.3.7a3 3 0 0 1-1.6.7q.7-.6 1.6-.7m291.5.2q0 1-1.2.8zm75 3.5.1 1.2q-.6 0-1-.3.3-.6 1-.9m-91.5 7.6q-.7.8-1.7.7.7-.5 1.7-.7m-20.5 12.8q-.2.9-1.2.9zm-250.5 47q-.7.6-1.5.7.5-.8 1.5-.7M97 332.2q-.2.9-1.2.8zm-7 4q-.1 1-1.1.8.5-.5 1.2-.8m63.2 22q-.5.9-1.4.6.6-.5 1.4-.5m-19.2 11q-.3.9-1.2.8.5-.6 1.2-.8m9.1 10.9a2 2 0 0 1-2 1q.6-1.3 2-1"/><path fill="#5cc8c1" fill-opacity=".2" stroke="#5cc8c1" stroke-opacity=".2" stroke-width=".5" d="M133 386q-.3.9-1 1.2l-15.7 9.8q-.3-1.1-1.4-1.3l16.6-9.6q.7-.3 1.6 0Z"/><path fill="#65cac1" fill-opacity=".2" stroke="#65cac1" stroke-opacity=".2" stroke-width=".5" d="M364.7 213q.3.9 1.4 1.3l-14.1 8.1q-1 .6-2 .4a5 5 0 0 1 1.6-1.6q6.8-3.8 13-8.2Z"/><path fill="#68cec6" fill-opacity=".3" d="m269.3 109.2-1.2.5q.3-.8 1.2-.5m-7.4 1q-.3 1-1.3.8.6-.5 1.3-.7M392.7 122q0 1-1 1zm-19 12q0 1-1 1zm-201.3 31q-.7.6-1.3.8.3-1 1.3-.7M325 190c-1 1.6-2.9 3.2-5 3 .4-1.4 3.6-3 5-3m-140 18a3 3 0 0 1-3 2 4 4 0 0 1 3-2m-24 32a3 3 0 0 1-3 2q.9-2 3-2m24 100q-.9 1.9-3 2 .7-2 3-2m-25 14.2q-.3 1-1.4.8a2 2 0 0 1 1.4-.8M266.8 468q-.2.8-1.1.8zm-1.1.8.4 1.3-1.3-.2z"/><path fill="#65d0c6" fill-opacity=".3" stroke="#65d0c6" stroke-opacity=".3" stroke-width=".5" d="M211 299q-.7 1-1.6 1.8l-13.1 8.2q-.5-1-1.6-1l11.7-7a20 20 0 0 1 4.7-2Z"/><path fill="#69cec5" fill-opacity=".3" stroke="#69cec5" stroke-opacity=".3" stroke-width=".5" d="M250 117q-.3 1-1.3.7zm113.3 168.3-1.3.7q.3-1.1 1.3-.7Zm-156.2.6c0 1.2-1.5 1.2-2.4 1.2q.8-1.5 2.4-1.2Zm-44.2 8q0 1.1-1.2.8.6-.5 1.2-.7Zm201.1 6.4 1 1c-2.4 1-8.7 5.8-11 5.6.9-1.4 8.3-6.2 10-6.6ZM111 324q-.4 1-1.3.7zm71 18a2 2 0 0 1-2 1q.6-1.3 2-1Z"/><path fill="#65c6bf" fill-opacity=".2" stroke="#65c6bf" stroke-opacity=".2" stroke-width=".5" d="M150.9 287a6 6 0 0 1-2.2 2.3l-12.4 7.6a2 2 0 0 0-1.6-1l14.3-8.3a4 4 0 0 1 1.9-.6Z"/><path fill="#68cfc6" fill-opacity=".2" d="M390 124q-.3 1-1.3.7zm-19 12q-.3 1-1.3.7zm-167.7 11.3-1.2.8q.1-1 1.2-.8M160 169q0 1.1-1.2.7zm-17 63q0 1.1-1.2.7zm1.4 3.3-1.2.8q0-1.2 1.2-.8m11.6 7.6-.9 1.5c-2.3 1.4-4.6 3.5-7.2 4.3q-.3-.5-.8-.6.4-.8 1.3-1.3 3.7-2.2 7.6-4m-40.6 11.4-1.2.8q0-1 1.2-.8m241 35-1.2.7q0-1.2 1.2-.7M92 334.9q-.2 1-1.2.8zm11.5-.1-.4 1.2h-1q.3-.9 1.4-1.2M129 372q0 1.1-1.2.7z"/><path fill="#65c6bc" fill-opacity=".2" stroke="#65c6bc" stroke-opacity=".2" stroke-width=".5" d="M180 343q-1 1.4-2.3 2.3l-11 6.7q-1 .6-2 .8.2-1-.8-1.1l14.1-8q1-.6 2-.7Z"/><path fill="#68cfc5" fill-opacity=".3" d="M420 105q-.2 1.1-1.3.7zm-196 27q-.3.9-1.3.7zm-6 23.8q-.9 2-3 2.2.8-2 3-2.2M153 173q-.2 1.1-1.3.7zm14.2 47.2q-.4.5-1.2.8.2-1 1.2-.8m-5.2.8q-.3 1-1.3.8zm-26 15q-.3 1.1-1.3.7zm345-.1h1q0 1-1.2 1zM340 269c-.7 1.6-3.4 2.7-5 3 .9-1.6 3-3.3 5-3m21 14.9q-.3 1.1-1.3.7zm-196.7 12.3-1.2.8q0-1.1 1.2-.8m-25 16-1.2.8q0-1 1.2-.8M148 361q-.2 1.1-1.3.7zm-15.7 12.3-1.2.7q0-1.1 1.2-.7"/><path fill="#68cec5" fill-opacity=".3" d="M343.8 153.1q0 1-1.1.7zm-197.5 27-1 .8q0-1 1-.8m-17.6 60q0 1-1 .9zm252 31q0 1-1 .8zM342 296.9c-1 1.7-3 3.2-5 3.2a7 7 0 0 1 5-3.2m-251.7 2.9h-2.6c.5-1.1 2-1 2.6 0m58.5 2.2q0 1-1.2 1zm-24.4 76-1.2 1q.1-1 1.2-1m-9.6 2.2q-.2.9-1.1.7zm23.2 2.7c-.4 1.6-3.6 2.7-5 3.2a6 6 0 0 1 3.6-3z"/><path fill="#67cdc3" fill-opacity=".3" d="m422.3 110.3-1.3.7q.2-1.1 1.3-.7m-179 14q-.6.5-1.3.7.3-.9 1.3-.7m153 1-1.3.7q.3-1.1 1.3-.7m-179 14-1.3.7q.3-1 1.3-.7m153 1-1.2.7q0-1.1 1.2-.7m-19 11-1.3.7q.3-1 1.3-.7m-160 3-1.3.7q.3-1.1 1.3-.7m153 1-1.3.7q.3-1 1.3-.8m-180 67-1.3.7q.3-1 1.3-.7m118.8 8.6a4 4 0 0 1-3.1 2.1 3 3 0 0 1 3-2m139.2 20.4-1.3.7q.3-1.1 1.3-.7m-310.1 4.9-1.2.8q.1-1 1.2-.8m284 10q-.4.5-1.2.8.3-1 1.3-.7m-26 15-1.2.8q.3-1 1.3-.7m-220 24-1.2.8q.2-1 1.2-.8m-25 16-1.1.8q0-1.1 1.2-.7m28 39q-.5.5-1.2.8.2-1.1 1.3-.7m-8 5-1.2.8q.1-1 1.2-.8m-42 26-1.2.8q.2-1 1.2-.8m-8 5-1.2.8q.2-1 1.2-.7"/><path fill="#64d2cb" fill-opacity=".2" stroke="#64d2cb" stroke-opacity=".2" stroke-width=".5" d="M331.3 161.9q0 .6-.3 1.1l-11.7 6.8q-.6.2-1.3.1.6-1 1.6-1.7 4.8-2.7 9.3-5.8 1.2-.6 2.4-.5Z"/><path fill="#68cec5" fill-opacity=".5" d="M425 191c-.2.8-1.4 1.7-2 .7q.8-1 2-.6m-97 85q-.6 1.2-1.7 1.9-2.6 0-.3-1.2zm-118 8q.4-1 1.6-1.7 2.7-.4.6 1.4-1 .4-2.3.4M190 337q.6-.8 1.6-1c1.1.8-1.2 1.3-1.7 1M143 380q.5-2 2.6-2.1c1.5 1.3-1.6 2-2.6 2m113 108.2v-1.5c.4-.4 1.1-1.8 1.8-1.1q-.3 1.7-1.8 2.6"/><path fill="#67cec5" fill-opacity=".4" d="m321 76 1-.3q-.2.8-.7 1.5zm108.3 30q-.6.7-1.4.7.5-.7 1.4-.6m-1.2 83.1q.3-1 1.4-1.2c1.2.8-.9 1.3-1.4 1.2m-243 19q.1-1.2 1.4-1.2c1.3.8-.9 1.3-1.5 1.2M335 272c-.5 1.4-5.7 4-7 4 .8-1.3 5.4-4.3 7-4m23.3 16.1q-.4.4-1.2.6c-.3-1 .7-.6 1.2-.6m-155.3 71q-.5 1.2-1.9.8.5-1.2 2-.8"/><path fill="#68cfc5" fill-opacity=".3" d="M264.9 81.7q0 1-1.1 1zm-2.6 31.6-1.3.8q.3-1 1.3-.8M401 117q-.2 1.1-1.2.7zm-3 143q-.1 1-1.2.8zm-201 15c0 1-1.4 1.7-2 .7q.8-1.1 2-.7m16 23q-.6 1.3-2 1 .5-1.3 2-1m-15 64c-.4 1.4-3.5 3-5 3a7 7 0 0 1 5-3m52.1 78.3v-1.5c0-.7 1.2-1.3 1.5-.3q-.4 1-1.5 1.8"/><path fill="#54b9b1" fill-opacity=".2" stroke="#54b9b1" stroke-opacity=".2" stroke-width=".5" d="M354.7 259.4q.5.8 1.4 1l-9 5.2q-1 .5-2 .2c1.5-2.3 7-4.9 9.6-6.4Z"/><path fill="#5cc7c0" fill-opacity=".2" stroke="#5cc7c0" stroke-opacity=".2" stroke-width=".5" d="M189.7 366q0 .6.3 1.1a44 44 0 0 1-7.8 5.2l-2.4-.5q5-2.7 9.8-5.8Z"/><path fill="#64c3bd" fill-opacity=".2" stroke="#64c3bd" stroke-opacity=".2" stroke-width=".5" d="m347 250.4 1 .4q-.4 1-1.3 1.4c-2.2 1-7.6 5-9.6 4.8q.4-1 1.5-1.8l6.8-4.2q.7-.5 1.7-.6Z"/><path fill="#69cfc6" fill-opacity=".3" d="M269 106q-.3 1-1.4 1zm-44.7 29q-.6.6-1.4.7.5-.7 1.4-.7m-7.5 1q0 1-1.2 1zm-19 11q0 1-1 1zm.6 3q-.7.7-1.6.7a2 2 0 0 1 1.6-.7M318 170q-.5 1.3-2 1c0-1.1 1.3-1.1 2-1m-156.7 54q-.4.6-1.2 1 .2-1 1.2-1m-51.7 27q.3 1-.7.9zm-.3 7-1 1q0-1 1-1m294 4q-.7.7-1.5.7.5-.7 1.4-.7m-319.5 4q0 1-1.2 1zm293.5 11q-.4.5-1.2.8.2-1 1.2-.8m-221.7 21q.2 1-1 1zm5.7 0-1.1 1q0-1 1-1m-45 85-1 .9q0-1 1-.9M266 470l1.1.2-1 .8z"/><path fill="#68cfc5" fill-opacity=".4" d="M250.3 120q-.6.5-1.2.7.1-.9 1.2-.7m48.9-.2a3 3 0 0 1-3.2 2.1q1-1.9 3.2-2M73 235.3q-2-.5-4.3-.2c.2-1.4 4.6-1.8 4.3.2m137 48.9a3 3 0 0 1-3 1.8c0-1.5 1.7-1.9 3-1.8m53 171.6-1.1 1.7q-2.4 1.4-1-.9 1-.6 2.1-.8"/><path fill="#61d1c8" fill-opacity=".2" stroke="#61d1c8" stroke-opacity=".2" stroke-width=".5" d="M293 224v1.4a29 29 0 0 1-5.4 3.6c-1.3.6-3 2.2-4.6 2 .8-2 8-5.5 10-7Z"/><path fill="#67cdc5" fill-opacity=".3" d="M428 100q-.2 1.1-1.3.7zm-19 12q-.3 1-1.3.7zm-.7 6.3-1.2.7q0-1.1 1.2-.7M205 142.9q0 1.2-1.2.8zm158.4 1.4-1.2.8q0-1 1.2-.8m-179 14-1.2.7q.2-1 1.2-.7m250 86-1.2.7q0-1 1.2-.7M337.1 257a8 8 0 0 1-5.2 3c1-1.6 3.2-3 5.2-3M137 309q0 1-1.2.7zm-56.3 94.8 1.5.7-1 .6z"/><path fill="#3fa19b" fill-opacity=".1" stroke="#3fa19b" stroke-opacity=".1" stroke-width=".5" d="M300.7 219.3q.3 1.2 0 2.4l-7.6 3.7-.2-1.4q3.9-2.6 7.8-4.7Z"/><path fill="#68cec5" fill-opacity=".5" d="M415.3 108.2q-.6.8-1.6.8.7-.6 1.6-.8m-19 12a2 2 0 0 1-1.7.7zM377 132.3q-.4.7-1.3.6.6-.4 1.3-.6m-181 15.9q-.4 1-1.4.8zm-54.7 34.9-1.3.7q.3-.9 1.3-.7M108 252.3q-.4.8-1.3.6.6-.4 1.3-.6m-7.6 11.8-1.5.6q.5-.7 1.5-.6m18.8 13q.5 0 1 .3l-1 1zm360.5 7.8h3.6q-.6 1.2-1.9 1.1-1.3.1-1.7-1m-321.3 15.2q-.6.4-1.3.6.4-.9 1.3-.6m178.6 0q-1 1.5-2.9 2 .4-2.5 3-2"/><path fill="#61bbb3" fill-opacity=".9" d="M185.8 68.9h2.4l1 .2c-.9 1.2-6 1.8-7.6 2 .3-1 3.2-2 4.2-2.3m144.6 372q-1.2 1.2-3 2-.5.3-1.1.3-1.3-.4-2.6 0l-1-.5q3.7-1.5 7.8-1.7"/><path fill="#68cec5" fill-opacity=".5" d="M317.3 83.9v1q-.3 1-1.1.4 0-1 1-1.4m-4.3 89c0 .9-1.3 1.8-1.9.8a2 2 0 0 1 2-.8m115 16.2q-1 1.5-3 2 .6-2.4 3-2m-101 74c-1 1.4-3.1 3-5.1 3a7 7 0 0 1 5.2-3"/><path fill="#67ccc5" fill-opacity=".2" d="m427.3 107.3-1.2.8q.2-1 1.2-.8M212 138.9q0 1-1.2.8zm84.3 26a7 7 0 0 1-5.2 3.1c1-1.8 3.2-3 5.2-3.1m-177.9 87.4-1.2.8q0-1 1.2-.8M98 257.9q0 1.1-1.2.8zm46 47q0 1.1-1.2.8zm-15.6 14.4-1.2.8q.1-1 1.2-.8M80 327.2l1-.2q-.3.8-1 1.4zm39.3 54.1-1.2.8q.1-1 1.2-.8"/><path fill="#69cfc4" fill-opacity=".2" d="M231 128q-.3 1-1.3.7zm-1.7 4.3-1.2.8q0-1.2 1.2-.8m153 1-1.2.8q.2-1 1.2-.8M158 241.9c.2 1.2-1.3 1.2-2.1 1q.8-1 2.1-1m250.3 17.4-1.2.8q0-1.1 1.2-.8m-13.4 2.6q-.2 1-1.2.8zm-12.6 12.4-1.2.8q0-1.1 1.2-.8m-229 29-1.2.8q0-1 1.2-.8m-13 65-1.2.8q0-1 1.2-.8m-29 18-1.2.8q0-1.2 1.2-.8M390.8 403q.2-.9 1-.6a1 1 0 0 1-1 .6m-195.9 40 1.3-.3q-.1 1-1.3 1zm128.8.2q1.3-.6 2.6 0-1.3 1-2.6 0"/><path fill="#6ad1c9" fill-opacity=".2" stroke="#6ad1c9" stroke-opacity=".2" stroke-width=".5" d="m335.2 184-.2 1c-2.3.9-7.8 5.4-10 5q.3-.9 1-1.3 3.6-2 7-4.3 1-.6 2.2-.5Z"/><path fill="#59c2bc" fill-opacity=".2" stroke="#59c2bc" stroke-opacity=".2" stroke-width=".5" d="M350 291.4q.3.8 1.1 1c-2.1.9-7 4.8-9 4.6.7-1.7 6.1-5.1 8-5.6Z"/><path fill="#68cfc5" fill-opacity=".2" d="M335.8 86.3c0 .9-1.1-.5 0 0M263.9 109q-.2 1-1.2.8zm3.5 1.4-1.3.8q0-1.1 1.3-.8m-19 11-1.3.8q.2-1 1.2-.8m-10.5 2.6q0 1.1-1.2.8zm141 7q0 1.2-1.2.8zm-156.6 5.4-1.2.8q0-1 1.2-.8m-45 26-1.2.8q0-1.2 1.2-.8M150 227.9q0 1-1.2.8zm325.2 1.2-.2.8-1.1.2q.3-1 1.3-1m-49.8 4.8h-2.7c.4-1 2.6-1.1 2.7 0m-50 44.4-1.2.8q.2-1 1.3-.8M136 367.9q-.2 1.1-1.2.8z"/><path fill="#58b1ab" fill-opacity=".1" stroke="#58b1ab" stroke-opacity=".1" stroke-width=".5" d="M225.7 150.3q0 1 1 1.3c-1.8.8-6.7 4.7-8.6 4.3q.5-1 1.5-1.7z"/><path fill="#64cfc9" fill-opacity=".2" stroke="#64cfc9" stroke-opacity=".2" stroke-width=".5" d="M182 210q-.3.8-1 1.4l-5.4 3.7-1.5.5-1.2-.5a26 26 0 0 1 9-5.1Z"/><path fill="#69cec7" fill-opacity=".3" d="M317.1 68.2v.6l-1.2.4q.2-1 1.2-1m98.2 46-1.2.8q0-1.1 1.2-.7m-160 3-1.2.8q0-1.1 1.2-.7m-19 11q-.6.6-1.3.8.3-1.1 1.3-.7m153 1q-.6.5-1.3.8.3-1.1 1.3-.7m-179 14-1.2.9q.2-1 1.2-.8M352 148q0 1-1.2.8zm-193.6 25.4-1.2.7q0-1 1.2-.7m-19 11-1.3.8q.3-1 1.3-.8M415 248.9q0 1.1-1.2.8zm.4 6.4-1.3.7q.3-1 1.3-.7M91 262q0 1.1-1.2.7.6-.5 1.2-.7m298.4 8.3-1.3.7q.3-1.1 1.3-.7m-11.4 2.6q0 1-1.2.8z"/><path fill="#60b9b1" fill-opacity=".9" d="M479.7 226.9q1.8.6 3.6 0l1 .2c-.8 1.2-7.7 2.7-9.4 2.8l.2-.9h.9q.8-.3 1.3-1 1-.7 2.4-1.1"/><path fill="#68cec5" fill-opacity=".4" d="m410.4 117.1-1.3.7q.3-.9 1.3-.7m-181.5 12.1q-.3 1-1.3.8zm155.4 2.8q-.5.6-1.2.7.3-.8 1.2-.7m-181.5 12q-.2 1-1 .8zm12.2 14c0 .8-1.4 1.6-2 .7q.8-1 2-.7m105 35a4 4 0 0 1-3 1.9q.8-2 3-2m-161.7 33q-.6.6-1.4.8.5-.8 1.4-.7m325 .8q-1.8.8-3.6 0c.6-1.3 2.9-1.1 3.6 0M161 240c.3-.6 1.3-1.4 1.8-.6q-.6.8-1.8.6m-46 8.4q-.4.9-1.4.7.6-.5 1.4-.7m270 6.6q-.8 2.2-3.1 2a5 5 0 0 1 3.2-2m-281.7 7.2q-.7.5-1.5.7.6-.7 1.5-.7M216 296a4 4 0 0 1-3 1.8q.7-2.1 3-1.8m-68.7 11q-.4.5-1.2.8.3-.9 1.2-.8m206.6 0c-.7 1.6-3 3-4.8 3a6 6 0 0 1 4.8-3M97.3 339q-.7.6-1.5.7.6-.6 1.5-.7m61 18a3 3 0 0 1-1.6.7q.4-.9 1.6-.6m106.5 112.8.3 1.5c-.6.5-2 2.1-2.7 1.2q.9-1.6 2.4-2.7"/><path fill="#69cec5" fill-opacity=".4" d="M296 122c0 .7-1.3 1.7-1.9.7a2 2 0 0 1 2-.8M31.3 227h-3.6q.6-1.1 1.8-1 1.3-.2 1.8 1m246.7 7q-.5 1-1.6 1.7-2.6.5-.5-1.3 1-.3 2.1-.4m104 22.9c.1.8-1.2 1.8-1.8.9q.6-1 1.8-1M216 296q.5-1 1.5-1.2c1.1.8-1 1.3-1.5 1.2"/><path fill="#62c0b8" fill-opacity=".9" d="m87.7 299.7 2.6.1q1.4 0 2 1.1-4.7.9-9.2 2l.1-1q2.3-1.3 4.5-2.2"/><path fill="#52a59d" fill-opacity=".2" d="M340.1 180.4q-.3 1 .7.3.1.7-.4 1L335 185l.2-1c.3-1.8 3.4-3.2 4.9-3.7"/><path fill="#68cec5" fill-opacity=".4" d="M257.4 116.1q-.6.5-1.3.6.3-.7 1.3-.6M318.7 268q.3-.9 1.2-.6-.5.6-1.2.6M109 325.2q-.3.9-1.3.8zm196.9 42q.6-1.2 1.9-2 2.4-.2.3 1.2zm18.4 36.6c.3-.7 1-2.1 2-1.3q-.5 1.5-2 1.3"/><path fill="#51a39c" fill-opacity=".2" d="M335.6 158.4q.3 1 1.5 1-3.2 1.7-6 3.6l.2-1.1c0-1.6 3.2-2.7 4.3-3.6"/><path fill="#3c716d" fill-opacity=".1" stroke="#3c716d" stroke-opacity=".1" stroke-width=".5" d="M134.7 152a3 3 0 0 1-1.5-2.6q1.8-1.8 4.2-2.4.5.5 0 1-1.6 1.8-2.7 4Z"/><path fill="#53a099" fill-opacity=".1" stroke="#53a099" stroke-opacity=".1" stroke-width=".5" d="M147 248.1q.5 0 .8.6a21 21 0 0 1-4.5 3q-.2-1.2-1.4-1.1 2.4-1.5 5-2.5Z"/><path fill="#68cec5" fill-opacity=".5" d="m243 107 1.2.3-1.5.8zm43 64c-.5 1-2 2.6-3 1.6.2-1.4 1.9-1.6 3-1.5M190 337q-.9 1.9-3 2.1.8-2 3-2.1"/><path fill="#5cafa8" fill-opacity=".6" d="m126.1 331.6-1.8.7c-.7-1.4 1.2-1.2 1.8-.7m-1.8.7c-1 .5-1.7 2.3-3 2a2 2 0 0 1 3-2m-3 2q-.8 1-2 1 .1-1.9 2-1m-2 1q-.6.6-1.3.5.4-.7 1.3-.5"/><path fill="#519e98" fill-opacity=".1" stroke="#519e98" stroke-opacity=".1" stroke-width=".5" d="m172.9 215 1.1.6q-2.1 1.8-4.7 3-.2-1-1.4-1 2.4-1.5 5-2.5Z"/><path fill="#44a19e" fill-opacity=".1" stroke="#44a19e" stroke-opacity=".1" stroke-width=".5" d="M266.8 452.3q.3 1.2 0 2.4-1.6 1-3.7 1.1c-.1-1 2.6-3.9 3.7-3.5Z"/><path fill="#68cec5" fill-opacity=".5" d="m202.8 111.9.2 1.3q0 .5-.4.5-.9-1 .2-1.8M334.1 302c-.3.7-1.5 1.6-2 .7a2 2 0 0 1 2-.7m-131.2 57c.4-1 2.2-2.7 3.2-1.6-.2 1.5-2 1.6-3.2 1.7"/><path fill="#69cdc4" fill-opacity=".2" d="M265.8 80.8v1.4l-1-.5zM257 113q0 1.1-1.2.7zm-71 41q0 1.1-1.2.7zm172 132q0 1.2-1.2.7zM83.3 302l-.2.9q-.6 0-1.1.4 0-1.3 1.2-1.3m34.7 18q-.3 1-1.3.7zm37 37q0 1.2-1.3.7zm-64.7 42.3-1.2.8q0-1 1.2-.8"/><path fill="#5cb3ac" fill-opacity=".1" stroke="#5cb3ac" stroke-opacity=".1" stroke-width=".5" d="M266.4 36q0 1.4 1.2 1.8-1.8 1.2-4 2c-.9-.8 2.3-3 2.8-3.8Z"/><path fill="#5cafa7" fill-opacity=".6" d="M99.2 348.2q-.6.5-1.3.5.6-.4 1.3-.5m-1.3.4c.1 2.5-5.6 3.2-6.3 1.6q3.3-.3 6.3-1.6"/><path fill="#66ccc3" fill-opacity=".2" d="m375.3 137.3-1.2.8q0-1.2 1.2-.8m-15.4 5.6q0 1.2-1.2.8zm-3.6 5.4-1.2.8q.2-1 1.2-.8M341 155q0 1.2-1.2.7zm-200 25q-.2 1-1.2.7zm234 95q0 1-1.2.7zm-224 26q-.1 1-1.3.7zm-8.6 9.3-1.2.8q.1-1 1.2-.8"/><path fill="#3e7573" fill-opacity=".1" stroke="#3e7573" stroke-opacity=".1" stroke-width=".5" d="M121.8 105.3q.9 0 .9.9c0 1.1-2 1.7-3 1.8q-.7-1 .2-1.7.6-1.2 1.8-1Z"/><path fill="#5fb5ae" fill-opacity=".6" d="m420.2 161.8-6.3 1.5c0-1.8 5.8-3.4 6.3-1.5"/><path fill="#57a39b" fill-opacity=".8" d="m422.7 234 2.6-.1q1.4-.1 2 1l-6.5-.2a2 2 0 0 1 1.8-.7"/><path fill="#497f79" fill-opacity=".9" d="M27.7 227H32c-1 1.4-4.8.8-6.3 1q.7-1 2-1"/><path fill="#4a827d" d="m67.8 235.3 1-.3q2.1-.3 4.2.2h1c-1.4 1.3-4.7 1.2-6.2.1"/><path fill="#69cdc4" fill-opacity=".2" d="M193 150q-.3 1-1.3.7zm-45.7 83.3-1.2.8q0-1 1.2-.8m-23.4 9.6q-.2 1-1.2.8zm282.4 36q-.4.9-1.5.9.5-1 1.5-1m-281.4 37q-.2 1-1.2.8zm80.3 91-.3 1-.8.2q.2-.9 1.1-1.2"/><path fill="#5db4ac" fill-opacity=".9" d="M251 5h2l1.1.4q-2.5.9-5.4.7.7-1.5 2.3-1.1"/><path fill="#6acec5" fill-opacity=".2" d="m151.3 177.3-1.2.8q.2-1 1.2-.8M99 330.9q0 1.1-1.2.8zm94.1 34q-.6 1.3-1.7 2l-.3-1q.7-1.2 2-1"/><path fill="#69cdc8" fill-opacity=".2" d="M148 176q-.3 1-1.4.7zm9 48q-.3.9-1.4.7zm-14 140q-.2 1-1.4.7zm-26 15q-.3 1-1.4.7zm-10.7 10.3q-.4.5-1.2.8.1-1 1.2-.8"/><path fill="#4c8983" fill-opacity=".8" d="M95.9 69.3H99l-5.1 1q.3-2 2-1"/><path fill="#69cdc6" fill-opacity=".4" d="M160.3 172q-.6.6-1.2.7.3-.7 1.2-.6m-67.2 1.2h1.2a2 2 0 0 1-1.3.6zm-4 90q-.5.9-1.4.8.6-.5 1.4-.7m232.8 2.8q-1 1.2 0 0m-186.9 44q-.3 1-1.2.8.4-.5 1.2-.8"/><path fill="#68cec5" fill-opacity=".6" d="M428.6 277.2a12 12 0 0 1 5.8-.3c-.2 1.5-5.1 1.5-5.8.3"/><path fill="#497f7b" fill-opacity=".9" d="M66 276.8a17 17 0 0 1-4.4.3l-.6-.2c.1-1.4 5.3-1.4 5-.1"/><path fill="#66ccc7" fill-opacity=".2" d="m349.3 152.3-1.2.8q0-1.2 1.2-.8m-179 14-1.2.8q0-1 1.2-.8m-22 197-1.2.8q0-1.3 1.2-.8m-50 31-1.2.8q0-1 1.2-.8M216.2 410l.7-.1a2 2 0 0 1-1.1 1.3q0-.6.4-1.2"/><path fill="#68cec5" stroke="#68cec5" stroke-width=".5" d="M427.3 174.9q-1.3-.2-2.4.4c-19.8 12.3-40.4 25.8-60.3 37.7q-6.2 4.5-13 8.2a5 5 0 0 0-1.6 1.6q-1.6.1-2.8 1.2c.4-4.5.7-9-2-13.1l2.2-1 35.4-20.6c11.7-2.2 19.1-8.6 28-16 6.4-4.8 11.3-4.6 16.5 1.6Z"/><path fill="#60b7b0" fill-opacity=".7" d="M189.7 443.2q2.6-.3 5.2-.1v.7q-2.7 1-5.2-.6"/><path fill="#5eb6ae" fill-opacity=".7" d="M317.1 68.2c1.3-.3 4.1-.7 5 .5q-2.4.7-5 .1z"/><path fill="#467975" fill-opacity=".3" stroke="#467975" stroke-opacity=".3" stroke-width=".5" d="m106 433 .2 1.3q-1.5.6-3 .5 1-1.3 2.8-1.8Z"/><path fill="#3eb1ad" fill-opacity=".2" stroke="#3eb1ad" stroke-opacity=".2" stroke-width=".5" d="m161.7 253.3.2 1a4 4 0 0 1-3 .6 5 5 0 0 1 2.8-1.6Z"/><path fill="#66c9c1" fill-opacity=".5" stroke="#66c9c1" stroke-opacity=".5" stroke-width=".5" d="m82.7 212.9 4.5.2c0 1.3-4.1 1.5-4.5-.2Z"/><path fill="#67cdc5" fill-opacity=".2" d="M188.2 68.8h-2.4c.3-1.1 2.2-1 2.4 0M61.6 277.1h2.5c-.1 1.2-2 1-2.5 0"/><path fill="#51928b" fill-opacity=".6" d="M401.8 139.7q.1 1-1 1zm-1 1q.8 2.6-1.8 2.6.5-1.5 1.8-2.6"/><path fill="#457671" fill-opacity=".8" d="M248 506.3q2.2-.9 4 .5-2 .4-3.9 0z"/><path fill="#66c9c0" fill-opacity=".8" d="M405.3 214q-.4 1-1.5 1l-1 .8-.9.5c-.5-2.8 1.5-2.3 3.4-2.3"/><path fill="#37a09d" fill-opacity=".3" stroke="#37a09d" stroke-opacity=".3" stroke-width=".5" d="M389.7 405.8q-1-.6-1.7-1.7c2-2 2.3 0 1.7 1.7Z"/><path fill="#68d0c6" fill-opacity=".2" d="m241.3 125.3-1.2.8q.1-1 1.2-.8m-97 56-1.2.8q0-1.2 1.3-.8M372 277q0 1-1.2.8zm-204.6 17.4-1.2.8q.2-1 1.2-.8"/><path fill="#4d8782" fill-opacity=".7" d="M101 233.2c-.6 1.4-3 .7-4.2.7 0-1.5 3.2-.9 4.2-.7"/><path fill="#64c3ba" fill-opacity=".7" d="M428.4 299.2q-2.4 0-4.7-.3c.4-1.4 4.5-1.4 4.7.2"/><path fill="#6bd0c4" fill-opacity=".2" d="m260.4 114.4-1.3.7q.1-1.1 1.3-.7m88.5 35.5q0 1-1.2.8.5-.5 1.2-.8m-185.5 20.4-1.3.8q0-1.1 1.3-.7m-8.5 1.6q-.2 1.1-1.3.7z"/><path fill="#65c7bf" fill-opacity=".6" d="M108.3 374q-.6 1.1-1.7.7.7-.6 1.7-.7m-1.7.7q.3 1-.8.9.2-.6.8-1m-.8.9q.3 1-.6 1.6 0-1 .6-1.6"/><path fill="#60b9b1" fill-opacity=".6" d="M303.3 115q.3 0 .5.2-.2 1.2-1.5 1 0-1 1-1.3m-1 1.3q-.7.4-1.6.6.6-.7 1.6-.7"/><path fill="#67cdc6" fill-opacity=".3" d="m141.3 237.3-1.2.8q0-1 1.2-.8M117 247q-.3 1-1.3.8zm5 129q-.1 1-1.2.8z"/><path fill="#68d1c5" fill-opacity=".2" d="m275 33-.3 1h-.6q.1-.7 1-1M174 161q-.3 1-1.4.6zm-16 136q-.2 1.1-1.4.7z"/><path fill="#67d0c3" fill-opacity=".1" stroke="#67d0c3" stroke-opacity=".1" stroke-width=".5" d="M99 69.4h-3c0-2 3.2-2.1 3.1 0Z"/><path fill="#529b95" fill-opacity=".4" d="M90.6 278q2 0 3.7.2c-.7 1.2-3.1 1.1-3.7-.2"/><path fill="#508f89" fill-opacity=".8" d="M23.2 284q1.6-.3 2.8 1l-2.9-.1z"/><path fill="#67cec2" fill-opacity=".2" d="M367.9 137.9q-.2 1-1.2.8.5-.5 1.2-.8m-168 8q-.1 1-1.3.8zm-36 74q0 1.3-1.3.7z"/><path fill="#50918c" fill-opacity=".7" d="M130.5 175.8q.2 1-.7 1 .1-.7.7-1m-.7 1q0 .9-.7 1.5 0-1 .7-1.5"/><path fill="#6acfc5" fill-opacity=".2" d="M219 135q-.2 1.1-1.4.7zm-68.7 96.3-1.2.9q0-1.1 1.2-.9"/><path fill="#447572" fill-opacity=".3" stroke="#447572" stroke-opacity=".3" stroke-width=".5" d="M336.9 96.1q.2 1.2-.6 2l-.4-1q.3-.6 1-1Z"/><path fill="#68cfc4" fill-opacity=".4" d="M477.3 228q-.6.7-1.3 1 .3-1 1.3-1m-342 13-1 1q0-1 1-1"/><path fill="#67cbc2" fill-opacity=".6" d="M335.1 99.7q-.2 1-1.1 1.6l-.7-.2q0-1.7 1.8-1.4"/><path fill="#477775" fill-opacity=".5" d="M402 170.4q-.1.6-.8.9-.1-1.1.9-.9m-.8.8-1 .8q0-.9 1-.8"/><path fill="#59a9a1" fill-opacity=".6" d="M129.1 351q-.5.9-1.5.6zm-1.5.6q.3 1-.7 1.7z"/><path fill="#69cec4" fill-opacity=".3" d="m165.3 169.3-1.3.8q.3-1 1.3-.8M130 313q-.3 1-1.3.7z"/><path fill="#66ccc6" fill-opacity=".2" d="M245 119.9q-.2 1.1-1.4.7zm-88.7 181.4-1.2.8q.1-1 1.2-.8"/><path fill="#497d7a" fill-opacity=".5" d="M112 340q-.4.7-1.2.7zm-1.2.6q.2 1.3-1 1z"/><path fill="#4b8581" fill-opacity=".5" d="M116 336.7q0 1.2-1.3 1 .6-.7 1.3-1m-1.3 1q.3 1.2-1 1.4z"/><path fill="#67cec6" fill-opacity=".1" d="M253 5h-2c0-1.6 2.2-1.2 2 0"/><path fill="#5eb2aa" fill-opacity=".6" d="M150.9 264.7q0 1-.9 1.1l-.7-.1c-.4-1 1-1 1.6-1"/><path fill="#69cdc3" fill-opacity=".2" d="m196.3 151.3-1.2.8q0-1.2 1.2-.8m-69 225-1.2.8q0-1.1 1.2-.8"/><path fill="#60b9b3" fill-opacity=".7" d="M105.4 334.1q-.4 1-1.3.8.3-.9 1.3-.8m-2 .7.7.1q-.2 1-1.1 1z"/><path fill="#58a29b" fill-opacity=".7" d="M119.7 325c.3 1-1.2 1-1.8.8q.6-1.1 1.8-.8"/><path fill="#477a75" fill-opacity=".4" stroke="#477a75" stroke-opacity=".4" stroke-width=".5" d="m356 124.3-.8 1q0-1 .9-1Zm-.9 1-1 1q0-1.1 1-1Z"/><path fill="#68cdc4" fill-opacity=".4" d="M222 133.2q-.3.9-1.3.7zM155.2 228a2 2 0 0 1-1.4.7q.4-.9 1.4-.8"/><path fill="#62c2bb" fill-opacity=".3" stroke="#62c2bb" stroke-opacity=".3" stroke-width=".5" d="M118 335.8q0 1.2-1.3 1.4.2-1 1.3-1.4Z"/><path fill="#69cfc4" fill-opacity=".4" d="M210 140.2q-.3.8-1.4.8.7-.6 1.5-.8"/><path fill="#61c2b6" fill-opacity=".2" stroke="#61c2b6" stroke-opacity=".2" stroke-width=".5" d="M189.7 130.9q.1 1-1 1 .3-.7 1-1Z"/><path fill="#66c9c1" fill-opacity=".6" stroke="#66c9c1" stroke-opacity=".6" stroke-width=".5" d="M191.2 130q-.6.8-1.5.9.5-1 1.5-.8Z"/><path fill="#69cdc5" fill-opacity=".4" d="M236 125.2q-.4 1-1.4.8.6-.6 1.3-.8"/><path fill="#487d78" fill-opacity=".2" stroke="#487d78" stroke-opacity=".2" stroke-width=".5" d="M81.2 303.2q-.3.8-1.2.8.2-1 1.2-.8Z"/><path fill="#66ccc6" fill-opacity=".2" d="m145.4 308.3-1.3.8q0-1.1 1.3-.8"/><path fill="#59a29b" fill-opacity=".3" stroke="#59a29b" stroke-opacity=".3" stroke-width=".5" d="m171.1 142.3.9-.3q-.3 1-1.2 1z"/><path fill="#59aaa2" fill-opacity=".3" stroke="#59aaa2" stroke-opacity=".3" stroke-width=".5" d="M117.4 326a2 2 0 0 1-1.4 1q.2-1 1.4-1Z"/><path fill="#559691" fill-opacity=".2" stroke="#559691" stroke-opacity=".2" stroke-width=".5" d="m357.4 123-1.3 1.2q0-1.2 1.3-1.2Z"/><path fill="#4c8985" fill-opacity=".3" stroke="#4c8985" stroke-opacity=".3" stroke-width=".5" d="m106.3 333.1-1 1q0-1 1-1Z"/><path fill="#67cfc4" fill-opacity=".3" d="M179 158q-.3 1-1.3.7z"/><path fill="#4e8c89" fill-opacity=".4" d="M91.2 163.1q-.3.8-1.2 1 0-1 1.2-1"/><path fill="#67c6ba" fill-opacity=".3" stroke="#67c6ba" stroke-opacity=".3" stroke-width=".5" d="M109.9 341.7q0 1.3-1.3 1.4.4-1 1.3-1.4Z"/><path fill="#4d8a86" fill-opacity=".5" d="M108 342.7q-.2 1.2-1.3 1.3.3-1 1.3-1.3"/><path fill="#68c1bb" fill-opacity=".2" stroke="#68c1bb" stroke-opacity=".2" stroke-width=".5" d="M82.9 121.8q.8.3 1.4 1-1.2 0-1.4-1Z"/><path fill="#406863" fill-opacity=".3" stroke="#406863" stroke-opacity=".3" stroke-width=".5" d="M105.1 344.7q0 1.1-1.3 1.2.4-.9 1.3-1.2Z"/><path fill="#4a837e" fill-opacity=".6" d="M405.4 168q-.4.9-1.4 1.2.3-1.2 1.4-1.2"/><path fill="#5db2aa" fill-opacity=".9" d="M321.9 119q0 .8-1 .8z"/><path fill="#5fbeb7" fill-opacity=".3" stroke="#5fbeb7" stroke-opacity=".3" stroke-width=".5" d="M403.3 168.9q-.3 1-1.2 1.5 0-1.3 1.2-1.5Z"/><path fill="#68cec5" fill-opacity=".6" d="m246 362 1.2-.2q-.3 1.3-1.6 1.1z"/><path fill="#416b65" fill-opacity=".5" stroke="#416b65" stroke-opacity=".5" stroke-width=".5" d="M324 116.1q-.3.6-1 .9.3-.6 1-.9Z"/><path fill="#4d8c87" fill-opacity=".2" stroke="#4d8c87" stroke-opacity=".2" stroke-width=".5" d="m109.2 373.2-1 .8q0-1 1-.8Z"/><path fill="#539993" fill-opacity=".9" d="M117 235.1q-.3.6-1 .8.3-.8 1-.8"/><path fill="#44726d" fill-opacity=".2" stroke="#44726d" stroke-opacity=".2" stroke-width=".5" d="M163.8 380.8q-.2 1-1.2 1.2z"/><path fill="#4d8c84" fill-opacity=".2" stroke="#4d8c84" stroke-opacity=".2" stroke-width=".5" d="m74.4 173-1.3 1.4q.2-1 1.3-1.5Z"/><path fill="#67cfc8" fill-opacity=".1" stroke="#67cfc8" stroke-opacity=".1" stroke-width=".5" d="m291.2 400 1-.3q-.3 1.1-1.4 1.3 0-.4.4-1Z"/><path fill="#65c3bc" fill-opacity=".4" stroke="#65c3bc" stroke-opacity=".4" stroke-width=".5" d="m138.2 181 .9.4q-.4.8-1.3.5z"/><path fill="#69d1c4" fill-opacity=".2" d="M403.8 215q0 1-1 .8z"/><path fill="#426c68" fill-opacity=".6" d="M248.2 6.1q-.6.9-1.6.9.6-.9 1.6-.9"/><path fill="#467c74" fill-opacity=".3" stroke="#467c74" stroke-opacity=".3" stroke-width=".5" d="m247 506 1 .3.1.4q-1 .3-1.1-.6Z"/><path fill="#64c8be" fill-opacity=".2" stroke="#64c8be" stroke-opacity=".2" stroke-width=".5" d="M22 284h1.2v.9q-1 0-1.2-1Z"/><path fill="#68cec5" stroke="#68cec5" stroke-width=".5" d="M275.2 28c-2.3-.4-6.7 6.6-8.8 8-.4.8-3.7 3-2.8 3.9q2.2-.9 4-2.1l6.5-3.7h.6a116 116 0 0 0-8.3 45.7l-.6 1-1 .9-1 1-.9 1.1q-.2 1.4-1 2.4-.4-.1-.6.2.3.4.7.4.9 0 1.4-.7 1.2-.8 2.7-1.4l.8-.7q0 5 .3 10-.5.3-1 .2l-22 13-1.1-.1c-1-3 .2-12.5.7-16q1.2 0 2-.8l2.9-3.7c-.8-1.4-3.9 1.1-4.7 1.7a180 180 0 0 0-.2-41.5q1 0 1.7-.8l8.1-8.5-.8-.2-10.7 6-4.6-10.1c-5.2-26.2 33.3-26 37.7-5.2Zm45.9 48 .2 1.2q-2.4 3-4 6.7-1 .3-1.1 1.4.8.6 1.1-.3l.7-.1 11-6.4c2 1.7 7.8 4.7 6.8 7.8-1.1-.5 0 .9 0 0 2.8-1.1 3 8 1 9.8q-.6.3-.9 1l-3 1.2-29.1 16.9-.5-.3v-1c9.4-10-.5-40.6 17.7-38Zm-220.8 1c-3.8 3.8-6.4 8.5-9.9 12.6q-.3.6.2 1l17.3-10q5 4.2 6.1 10.6c-1.9-.3-7 7.5-8.5 9q.8.6 1.5.1a66 66 0 0 0 7.9-4.7c.6 3.3 6.5 6.5 6.8 9.6q-1.2-.2-1.8 1-.9.7-.3 1.7c1 0 3-.7 3-1.8 1.8.2 19.8 21.2 22.5 24q-2 .3-2.2 2.3c1.1 1 3-.1 2.9-1.7 3.2 1.3 7.1 5.5 10.5 7.3-1 1.3-3.1 3-1.8 4.7q2.6-1.2 4.6-3.2 5.5 3.2 12 2.7l-.3.7a400 400 0 0 1-16.1 18q-.7.8-.1 1.4l1-1.1q37.5-21 74.5-42.7 1-.6.8-1.7c3.6 0 10.1-2.8 12.2-6q12-6.6 23.7-13.8l.9-.4q1 4.5 1.4 9.2l-1.5 1-7 4.1a46 46 0 0 0-6.9 4l-5 2.7-.7.5-1.3.7-1.8 1-1.2.7-.7.4-1.3.7-5 3a33 33 0 0 1-7 4l-.8.5-1.2.8a56 56 0 0 0-7 4q-.9.3-1.8 1-.7.2-1.3.7l-.8.4-1.2.8-5 2.8-.5.5q-.8.2-1.5.8l-5 2.7-.8.4-1 .8-3.2 1.7-.8.4-1 1-.8.2-1.4.8-1.7 1q-.6.2-1.2.7l-.6.5q-.8 0-1.5.7l-5 2.8-.7.5-1.2.7-10 5.7-.7.4-1.3.7-5 3-.7.6-1.3.6-5 2.8-.8.5-1.3.8-3 1.6-.6.4-6.4 3.7-1 .3-.8 1a36 36 0 0 0-5.1 2.7l-.6.6-.9-.3a93 93 0 0 1 7.4-11.9q.4-.7.2-1.4c-2.9-6.7-6.5-10.3-11.1-15.8q1.1-2.1 2.8-3.9.3-.5 0-1-2.4.6-4.3 2.4c-2.6-1.3-6.5-6-8.6-8.4q2-2 4-4.4-.8-.4-1.6.1-2.2 1.2-4 2.7c-7.8-6.7-14.7-16.9-24.3-20.8a11 11 0 0 0 3.7-3.6q.8-.9.2-1.8-2.4 1-4.6 2.4-1 .6-.8 1.6c-2.3-.3-11.7-4-12.2-6.3 2.4-1.8 8.4-9.5 10.4-12.4l-.1-.4q-6.8 3.5-13.4 7.4-.9.6-1.3 1.9c-7-12 5.1-32.4 19.8-30.3Zm103 33.8-.5 1q-1 .7-.2 1.8.5 0 .4-.5l.9-.4c1.2 3 3.6 4.8 5.1 7.2l-17.8 10c2-11.4-4.3-15-10.4-23.2 2-.5 4.6-5.5 6.4-7q.9-.7.4-1.5l-9.7 6c-15.3-17 4.7-36 19.9-23.5 6.8 6 1.8 21.4 5.4 30.1Zm220-28.7-10 8.1q.4.6 1 .3l9.4-5.3q.9-.4 1.2-1.3c3.5.8 7.4 10 8 13.3l-2 .6-1.3 1.1-1.7 1-1.2.7-3.6 2.5-1.4.7-1.8 1-1.2.8-3.4 2.5q-1 .2-1.6.8l-2 1-1 1-1.8 1q-.6.2-1.2.7a18 18 0 0 0-3.5 2.6q-.8.1-1.5.7l-1.7 1-1.3.7q-1.8 1.1-3.4 2.5-1 .2-1.7.7-.9.7-1.9 1.1l-1 1-1.8 1q-.6.2-1.2.7-1.9 1-3.5 2.6-.8 0-1.6.6-.7.6-1.6 1l-1.3.8-1.8 1.2-1.2.8-.7.6q-.8.2-1.3.6-1 .7-2 1l-1 1.1-3 1.7-3 2-.7.5q-.8.2-1.3.8a57 57 0 0 0-6 3.7l-4 2.4-1 .9-3 1.7-1.8 1.2q-.7.3-1.2.8l-.8.5-1.3.7-1.8 1.2-1.1.7q-.8.8-1.8 1.2-.6.2-1.2.7c-.9 1.4-2.8 1.6-4 2.6s-4.5 2-4.4 3.6q-1.2-.1-2.4.4l-9.3 6q-1 .5-1.6 1.6c-.7 0-2 0-2 1q-2.1.3-3 2a2 2 0 0 0-1.9.8c.6 1 1.9 0 2-.8q2.1.3 2.9-2 1.5.5 2-1h1.3l17.8-10.4.7-.7q.8-.3 1.5-.8l5-2.8.8-.4q.7-.1 1.3-.7l1.7-1 1.2-.8q.4 0 .7-.3l1.3-.7 5-3 .5-.5 1.5-.7 5-2.8.7-.6q.8-.1 1.4-.7l4.9-2.8.6-.5q.9 0 1.4-.6l1.8-1 1.2-.8.7-.6q.8 0 1.4-.7l5-2.7.7-.6q.7-.1 1.2-.7l5-2.7.8-.5 1.3-.7 4.9-2.8 5-3 .6-.6 1.4-.6 5-2.8.8-.5 1.3-.7 4.9-2.8.6-.5 1.4-.7 5-2.8 5-3 .6-.6q.9 0 1.4-.6l4-2.2c-2.5 10.2-20.4 15.6-28.1 21.9a2829 2829 0 0 1-34.5 35.5 688 688 0 0 0-30.6 19c-1.5.5-4.6 2-4.9 3.6q-1.2 0-2.3.5-3.3 2.4-7 4.3-.6.5-.9 1.2c-1.4.1-4.6 1.6-5 3q-2.2 0-3 2a2 2 0 0 0-2 .8c.6 1 2.1.2 2-.8q2.1-.2 3-2c2.1.2 4-1.3 5-3 2.2.5 7.7-4 10-5l5.4-3.1q.5-.5.4-1 1 .1 2-.4l26.5-15.5c-.6 4.2-1.5 6.8-.3 11-6 2.8-32.7 20.4-40.1 25.4-13.8.1-22.2 6-28.2 18q-3.9 2.1-7.8 4.7c-1.8 1.5-9 5-9.9 7a3 3 0 0 0-3 2q-1.4-.3-2 1-1 0-2.1.4-2 1.7.5 1.3 1.1-.6 1.6-1.7 1.5.4 2-1 2-.3 3-2c1.6.2 3.3-1.5 4.6-2q3-1.5 5.4-3.6 3.9-1.7 7.6-3.8c1.7 28.9 36.2 25.3 46.6 2.4q1.2-1 2.8-1.2 1 .2 2-.4l14-8q31.6-18.2 63-36.8 3.5 5.8 4.4 12.4c2.5 24.8-50.3 5.5-43.4 34.2q-1 0-2 .5-20.6 12.7-41 25.7l-1.6.6-6.8 4.2q-1 .7-1.5 1.8c-2 0-4.2 1.4-5.2 3-1.7 0-4.1 1.4-4.8 3a7 7 0 0 0-5.2 3q-1 1.2 0 0c2 .2 4-1.5 5.2-3 1.7 0 4-1.4 4.8-3a8 8 0 0 0 5.2-3c2 .2 7.4-3.9 9.6-4.8q.9-.5 1.2-1.4 1 .1 1.8-.4c6.2-3.6 39-21 41.1-24.8.8 3.1 2.9 7.5 2.3 10.6-3 .2-33.2 20.4-38.4 23.1-2.5 1.6-8.1 4.2-9.7 6.5-2 .3-4.2 1.4-5 3.3-2-.3-4.1 1.4-5 3-1.6-.3-6.2 2.7-7 4q-1 .1-2 .5-2.2 1.5.3 1.3 1.1-.7 1.7-1.9c1.3.1 6.5-2.5 7-4 1.6-.2 4.3-1.3 5-3 1.9-.1 4.3-1.3 5-3.2q1 .3 2-.2 4.6-2.5 9-5.2l1.5-1.2a1616 1616 0 0 0 34.6-19.7q.9-.6 1.2-1.8l15.1 3.5q8.5 0 17 .8a25 25 0 0 1-4.6 3.1l-1.2.9-1.6 1-1.2.8-1.9 1.1-1.2.8c-2.3 1.9-7.8 4.6-9.4 6.6q-1 .2-1.7.7l-2 1-1 1-1.6 1-1.2.8-1.9 1.1-1.2.8-13 8.4-1 .8a64 64 0 0 0-9 5.8q-2 1-3.5 2.6l-1.5.6-2 1.2-1 1q-1 .3-1.7.9l-4.3 2.7-6.6 4.7c-1.9.5-7.3 3.9-8 5.6a7 7 0 0 0-5 3q-2.6-.4-3 2a2 2 0 0 0-2 .7c.5 1 1.7 0 2-.7q1.8-.4 3-2c1.8 0 4-1.4 5-3 2 .2 6.9-3.7 9-4.5q1.6-1.8 4-2.5l1.2-.7.8-.5q.7 0 1.2-.6a17 17 0 0 1 3.7-2.2q.8-.3 1.3-.7l.8-.5 1.1-.8 3.8-2 1.3-.8.6-.5q.8 0 1.5-.6l1.7-1 1.2-.8.8-.5q.8-.2 1.2-.8a37 37 0 0 0 7-4 40 40 0 0 0 5-2.7l.7-.6q.8-.1 1.3-.7a110 110 0 0 0 12-7 39 39 0 0 0 7-4l5-2.7.8-.5 1.3-.7a38 38 0 0 1 4.9-2.8q2.8-1.6 5.5-3.5l1.5-.8 5-2.7.6-.6q.8-.2 1.4-.6.6-.5.6-1.1l23.4-.3c6.7-2.7 13.1-7 20.7-5.8l-.2 1q-4.2 3.8-8.6 7.4.5.4 1 .2l10.8-6.1q1-.7.8-1.6c4.3.6 8.4 4 9.4 8.3q-.9.4-1.6 1.2-3.8 4.6-8 8.7-.4.4 0 .9 5.3-3 10.2-6.3l1.1.3c2.7 2.2 2.1 31.6-15.9 26.3q0-.8.5-1.3 3.6-4.3 6.2-9.4-.9-.6-1.7 0-6.8 3.6-13.1 8c-4.8-2.7-6.4-3.8-12-3.7q.8-.9 1.8-1.6 5.7-6.2 11-12.6-.9-.4-1.7.2l-20.2 11.6q-1.1.6-.7 1.8l-1 .2q-.9-.4-1 .3l-18 .3v-.8l9.6-8.5q-.8-.5-1.7 0-7.4 4.4-15.2 8.7-1 .7-.8 1.8c-13 2.3-27.1-4-30.8 13q-1.2-.8-2.5 0L364 300.4c-1.7.4-9.1 5.1-10 6.6-1.8.1-4 1.5-5 3-1.8.2-3.6 1.6-5 2.7 1 1.3 4.5-1.5 5-2.6 1.9 0 4.2-1.4 5-3 2.3.1 8.6-4.7 11-5.8l26-15.2q-1.3 5.7-.9 11.5c0 1.9 1.4 2.3 2.2 3.7l-41.7 28c-1.5 1.4-1.4 1.9-3.7 2.3q-.8.4-.7 1.3c-1.1.2-3 .3-3.3 1.8 1.2 1.2 2.7-1 3.3-1.8l1.8-.2q24-14.2 48.1-28 1-.6.9-1.7c4 2 28.4 3.5 29.4 6.4-1.1 1.4-7.4 8.9-7.3 10q.4.4 1 0l9.9-6q.7-.4 1-1.3c7.9 9.3-2.4 35.6-14.4 26l7.1-10q.3-.5-.4-.8-6.3 3.3-12.3 7.1a31 31 0 0 1-9-7.3c1.6-.4 6.4-7.7 7.7-9.5q-.9-.3-1.7.2-5.7 3-11 6.6c-14.8-6.9-17-1.5-25.4 9-1-.1-27.2 17.6-28.4 19.4-1 .8-3.2.4-3 2.1q-2.1 0-3 1.8c1 1 2.5-.8 3-1.8 3.3-.1 24.1-13.5 28.7-16.1q-1.2 2.5-2.7 4.9c0 2.3 7.3 12.4 9.4 14.3 3.3 4.6 15.3 15.6 17.4 19.3-1.9-.3-2.8 3.3-3.8 4.4 1.4.6 4.8-2.1 6-2.9 4.7 4.5 9.4 10.3 15.3 13.4q.5.3.5.9a3 3 0 0 0-2 2.5c1.1 1.2 3.4-.9 4.1-2 7.8 3.8 19.4 7 20.4 17.3.2 13-10.2 27.7-24.7 23.3q2-2.1 3.8-4.5c-1.5-.8-4.9 2.1-6.3 2.8-6.3-2.3-8.5-11.8-9.8-17.6a109 109 0 0 0-6.8-9c.6-1.6.3-3.7-1.7-1.7q-7.5-7.6-15.4-15a31 31 0 0 0 4-5.5c-.8-1-3.8 1.7-4.7 1.9a3 3 0 0 0-1.2 2.3c-5.1-3.8-19.2-18.6-24.5-19.3-8-.4-17 9.7-24 13.3-9 14.8 20.6 25.7 17.5 41.4q-4 12.3-17 11.9 3-4.2 5.8-8.5-1-.2-2 .4c-2 1.7-9.1 3.8-8.9 6.8q-6.3-3.7-7.3-10.8 1-.6 0-.7c.6-8 .3-32.4-12.7-30.1-5.5 2.2-26 2.6-27.9 8.9-1.2 10.8-1.1 23.6-2.8 34.1-1.5 0-3.5 3-4.4 4.2 1 1 3.5-1.1 4.6-1.6q0 7.3-.3 14.5c-1-.3-3.8 2.5-3.7 3.5q-1 .2-2 .8-1.5 2.3.9.9.6-.7 1.1-1.7 2 0 3.8-1 1 6 1.1 12.1l-1.2 1-1.1.8-1 1.1q-1.4 1.2-2.3 2.7c.8 1 2-.7 2.7-1.2l1.1-.3 1-.8 1.8-1 1-.4c2 3 4.8 7.9 4 11.5-1 .1-3.8 4.2-4.6 5 1.4 1 2.9-1.5 4.4-1.7q.6.3.6.8c-1.5 12.6-12.8 18.2-24.3 14q-1.2-.3-1.9-1.2 4-4.3 7.8-8.9 1.5-1 1.7-2.6c-.6-.7-1.3.7-1.8 1l-1 .4q-6 3.4-12 7.3a12 12 0 0 1-4.9-10.7q.9 0 1.6-.6l4-4.4q-.7-.4-1.6 0-2 1.5-4.3 2.4c1.7-13.1 8.6-21.8 7.3-36.4 1.8.3 3.6-3.5 5.1-4.4q1-.8 1.5-1.8c-.3-1-1.5-.4-1.5.3l-1.1.3-4 2.2-1.5-31.1.4-.4q27-18 53.7-36.7 3.6-2.5 7.5-4.6.7-.5.7-1.2l2.2-.9q2.1-1.4-.3-1.2-1.3.8-2 2c-1.3-.2-3.5 1.8-4.6 2.5a19 19 0 0 0-4.1 2L242.8 403c-.3-2 .6-4.8-1.8-5.6-12.2-5.3-29.7-11.3-35 5.8-6.1 2.7-24.8 14.1-32 18-.4-5 3.4-10.3 6-14.3q.8 0 .9-.7 1-.5 1.4-1.5.8.4 1.7-.1l64.7-41.5q.5-.4.5-1c27.3 1.6 46-13.3 46.3-41.4-3-50-84.2-45.8-78 11.5q1.8 14 12.8 22.9-19.8 11-39.4 22.4-.9.6-1.2 1.7a26 26 0 0 0-7.3-6.1l-.3-.8q1.5-.4 2.5-1.2 3-1.8 5.4-4l1.3-.1q1-.9 1.7-2c1.5 0 4.6-1.6 5-3a3 3 0 0 0 3-2q1.4.3 2-1c1 0 2.9-.1 3-1.6-1-1-2.7.6-3 1.7q-1.5-.4-2 .8-2.1.3-3 2.1-3.2.4-5 3-1.4-.4-2 .8l-1.4.2q-4.7 3-9.8 5.8c-14.5-5.2-24.2 4.4-34 13.5-7.3 8.7-24.2 21.8-29 30.8q-2.8 7-5.9 14-.5.1-.8.9-1 .1-1 1.1-1-.1-.8 1l-1.4.1-1-.2q-1.6.5-2.8 1.8c-4 1-10.5-1-13.2-4a2 2 0 0 0 1.8-.4q12.8-11 26-21.7-.4-.5-1-.4l-29.9 17.1q-.9.7-1.2 1.9-3.7-3.4-5-8.3a4554 4554 0 0 1 51.4-31.7q.7-.4 1-1.2c1.4-.5 4.6-1.6 5-3.2a4 4 0 0 0 3-1.8 2 2 0 0 0 2-1c1 0 4.1-.8 2.6-2.1q-2.1 0-2.6 2-1.4-.2-2 1a3 3 0 0 0-3 2q-.8-.1-1.4.1a6 6 0 0 0-3.5 3q-.8-.2-1.6 0l-16.6 9.6c-11.5 7.2-23.8 13.3-35.3 20.7-1.9-4.5-1.7-7.2.3-11.5l1.2.2 1-.6q2-1.2 3.7-2.7.8-.2 1.4-.7l1.9-1 1.2-.8.7-.6q.8-.2 1.4-.6.7-.7 1.6-1l1.2-.8 1.9-1.2 1.2-.8.7-.5q.8-.2 1.2-.8l1.8-1 1.2-.8 3.1-1.9.6-.5 1.3-.8a15 15 0 0 0 3.1-1.7l4-2.4 1-.9 3-1.7q2-1.3 4-2.3l1.1-1 3-1.7.7-.5q.8-.3 1.2-.8l3-1.7q1.8-1 3.5-2.5l1.5-.8 3-1.7 5-3 3-2 .9-.6q.6 0 1.1-.6.8-.7 1.7-1l1.3-.8 3.4-2.5q.9-.2 1.6-.7 3.3-2 6.4-4.3 1-.2 2-.8l11-6.7q1.5-.9 2.2-2.3a2 2 0 0 0 2.2-1q2-.1 2.9-2 1.4.2 2-1 2.1-.3 3-2.1c.4.3 2.7-.2 1.6-1q-1 .2-1.7 1-2.1.1-2.9 2.1a2 2 0 0 0-2 1q-2.2 0-3 2-1.4-.3-2 1-1.2 0-2 .6l-14 8a27 27 0 0 0-3.9 2.6 2 2 0 0 0-1.4.8q-1.7 1.1-3.8 2l-1.2.7-.6.6q-.8 0-1.4.5a20 20 0 0 1-3.7 2.2l-1.3.8q-1.7 1.2-3.8 2.1l-1.3.8-1 .5-.8.7-5.2 2.8-.7.6q-.7 0-1.2.7l-5 2.7-.8.6-6.1 3.5-.8.4-1.4.7-1.7 1-1.3.8-.8.5-1.1.7q-1 1.2-2.6 1.3c10.3-14.2 28.5-22 32.7-41.3q1.2 0 2.2-.5a6109 6109 0 0 1 63.4-39.6q1-.7 1.7-1.9 1.4.5 1.9-1a4 4 0 0 0 3-1.8c.5.1 2.6-.4 1.5-1.2q-1 0-1.5 1.2-2.2-.3-3 1.9-1.4-.3-2 1a20 20 0 0 0-4.6 2l-11.7 7c-16.6 9.8-33.6 19.2-50.3 29l-.5.7q-.4 0-.5-.3-1.5-4.5-3.5-8.6 1 0 1.7-.6 29-18.4 58-37.2l5-2.9a1 1 0 0 0 .2-1c.8 0 2.3 0 2.3-1.2a3 3 0 0 0 2.8-1.8q1.2 0 2.3-.4 2.1-1.8-.6-1.3-1.2.5-1.7 1.7c-1.2 0-3 .3-2.8 1.8q-1.7-.3-2.3 1.2c-1.7 0-4.7 3-6.8 3.4l-59.6 34.4q-.8.4-1.2 1c-5.7-4.5-11.2-2.2-17.5-.9.7-1.9 3-1.9 4.4-3l1.2-.7 1.8-1.2 1.2-.8q1.8-1.1 3.5-2.5.8 0 1.5-.7.8-.7 2-1.1l1-1 1.8-1q.6-.2 1.2-.7l1.8-1.2 1.2-.8 3.8-2.5q.8-.3 1.2-.8l3-1.8 3-2 1.8-1q.8-.4 1.2-1l.8-.5q.8-.1 1.3-.6l1.8-1 1-1a45 45 0 0 0 6.1-3.8q.6-.6.7-1.4c32.2 0 35.7-42.4-.2-40.1 10.6-3.6 25.7-15.6 36.2-21.5q.8-.6.9-1.5a48 48 0 0 0 28.3 3.8 34.8 34.8 0 0 0 19.4-57.4q1.3-.1 2.4-.7l67.7-39q1-.6 1.1-1.6 4.5 3.3 9 6L308 156.6q-.6.8-1.4 1.3-4.5 2.4-9 5.3-1 .5-1.3 1.7c-2 0-4.3 1.3-5.2 3.1-1.5 0-4.6 1.6-5 3-1.1 0-2.8.2-3 1.6 1 1 2.5-.6 3-1.5 2 0 4-1.5 5-3a7 7 0 0 0 5.2-3.2q1.3 0 2.4-.7l36.1-20.8a2 2 0 0 0 1.1-1.6c21.4 2.6 41.8-29.3 56.9-41.6 3.7-4.8 5-11.7 7.8-17.2 5-8.9 16.4-6.8 22.9-.8Zm-90 18.9q.4 0 .7.2c-1.6 4.3-7.4 10.6-10 14.8q-.7.3-1 .9h-1q-41.2 24.1-82.7 47.8-1.5.6-2.2 2c-7.6.2-14.2-1.5-21.8 1.1a35 35 0 0 0-22.4 23.5q-.4.6-1 .7a4700 4700 0 0 1-74.8 43c4.2-4.7 6.8-18.2 3.5-23.2q23-15.7 46-31.7a78 78 0 0 1 7.5-4.7q.8-.4.7-1.3c1-.4 2.9-.5 3-1.8-1-1.2-2.5 1-3 1.8l-1.2.1-57.7 33.3q-.7.4-.6 1.3c-9.6-3.2-35.4-1-37-14.6-1.1-7.5 3.2-23.6 13.2-22.2q1.2 0 1.6 1l-.1.7-1.8 2.8c-.7 2.8 5.3-1.5 5.8-2 10 6.2 18.5 17.1 31.3 16 1.6-.5 6.5-2.9 6.7-4.7q1 0 .8-1.2 1 .8 2.2.4l1.3-.8 2-1.2 3-1.8 1-.4 1-.8 5-2.8.8-.7 1.2-.5 5-2.8.8-.6q.7-.1 1.2-.6l5-2.8 5-3 .8-.5q.7-.2 1.3-.8l5-2.7.7-.5 1.1-.8a40 40 0 0 0 5.1-2.7l.8-.6q.8 0 1.3-.7l4.9-2.7.7-.5 1.3-.7 1.8-1 1.2-.8.5-.6q1 0 1.6-.7l5-2.7.6-.6q.8-.2 1.2-.7a33 33 0 0 0 5.1-2.7l.7-.5 1.3-.8 5-2.8.8-.5 1.2-.7 3-1.7.7-.6q.7-.1 1.3-.7a34 34 0 0 0 5-2.7l.8-.6 1.3-.6 5-2.8.6-.6q.8 0 1.3-.6l3-1.8q.4 0 .7-.3.8-.2 1.3-.7l5-3 .8-.6q.6-.2 1.2-.7a40 40 0 0 0 5-2.7l.8-.6q.7 0 1.3-.6l1.7-1 1.3-.8.6-.2 1.3-.8 5-3 .8-.6 1.2-.5.8-.3 1.6 5.8 2.2 2.3-46 31.4c-.9.9-.7 2-2.2 1.9l-6.1 3.9q-1 .7-1.5 1.6-2.3.1-3.1 2.2-1.2-.3-2 .7c.6 1 2 .1 2-.7q2.1-.1 3-2.2c2 .4 6.9-3.4 8.8-4.3l54.4-31.4q1-.4 1.8-1.5c5.8.2 11.4 1.2 17-1.5.8 1-.5 1.9-.8 2.7q-2.1.3-3.2 2.1a2 2 0 0 0-1.9.8c.6 1 1.9 0 2-.8a3 3 0 0 0 3-2q1 0 2-.5c10.8-6.1 21.2-12.7 32.2-18.3ZM189 115c.5.2 2.4-.1 1.4-1q-1 0-1.4 1Zm132 4.7-2.6 8.1q.4 1.9 1.6 3.2-1 0-2 .6l-64 42-2.1 1.7a47 47 0 0 0-14-7.7q36.3-21.3 72.7-42.4 5-3 10.4-5.5ZM151.8 144c.2-.1 2-.5.9-1q-.9 0-1 1Zm71.2 32q5.7-.9 11 .7a94 94 0 0 1-19.4 12q-.4-.3 0-1c1.7-2.6 7.5-9.3 8.4-11.8Zm148 4.5q2.7 3.9 6 7.5c-2.4 0-27.5 17-31.6 19.6q-.9.5-1.2 1.4c-3.1-2.2-6-4.8-9.6-6.2q-.6-.4-.4-1 18.5-10.4 36.8-21.3ZM244 184l.6.8c-.2 2.8-4.4 3.6-6.3 5.1-1.5.5-1.4-.9-.5-1.6 1.9-1.3 3.7-4.3 6.2-4.3Zm184 5.1q-2.4-.4-3 2-1.2-.4-2 .6c.6 1 1.8 0 2-.6q2-.5 3-2c.6.1 2.7-.4 1.5-1.2q-1 0-1.4 1.2ZM191.9 194c-1.5 15.5.7 24.6 12.2 35.2-3.4 0-36.7 20.9-42.3 24.2a5 5 0 0 0-2.9 1.6q-.5.5-.6 1a5 5 0 0 0-2.2.5q-18 10.2-35.8 21l-1-.4-1-2.8q-2.6-1.3-5.6-1.5-.6-.2-1-.8a1334 1334 0 0 0 36.2-23.2c2.6-.8 5-3 7.2-4.3q.6-.7.9-1.5c.8.2 2.3.3 2.1-1a3 3 0 0 0 3-2q1.1.3 1.8-.6c-.5-.8-1.5 0-1.8.6q-2.1 0-3 2-1.3 0-2.1 1a60 60 0 0 0-7.6 3.9q-.9.5-1.4 1.3-2.6.9-5 2.5-.6.8-1.4 1.2a428 428 0 0 0-33.5 19.5l-15.4-.7q-.4 0-.5-.4l1.2-.9q3.4-2.1 6.7-4.6.8-.2 1.4-.6l1.4-1.3q.8-.1 1.5-.7.9-.6 1.9-1l1.1-1q1-.7 2-1.1l1-1 1.7-1 1.2-.8 3-2 3.1-2q3.4-2 6.4-4.5 1-.1 1.6-.7.8-.5 1.4-1.3a3 3 0 0 0 1.6-.7q.8-.4 1.5-1.3.8 0 1.5-.6l2-1 1-1 3-1.9 1.8-1.1 1.2-.8q.8-.7 1.8-1.2l1.2-.8 1.8-1.2 1.2-.8 3-2q2-1.2 3.6-2.5.8-.1 1.4-.7l1.6-1.3q.8-.2 1.4-.7l3-2 1.7-1 1.3-.8q.7-.9 1.7-1.3l1.2-.8 2.1-1.6q2.6-1.2 4.7-3l1.6-.5 5.4-3.7q.7-.6 1-1.4 2 0 3-2c.6.2 2.8-.3 1.5-1.1q-1.2 0-1.5 1.2-2.1 0-3 1.9a26 26 0 0 0-9.1 5l-5 2.5-1 .7q-.7 0-1 .7l-3.3 1.7-.6.4-1.3.8-5 2.9-1 .5-1 .7-5 2.8-.8.6q-.7 0-1.2.6l-5 2.8-.7.6q-.8.3-1.3.7l-3.7 2-1.3.7-.8.5q-.7.3-1.2.8l-4 2-1 1a36 36 0 0 0-5 2.7l-.7.6q-.8.2-1.4.6l-4.9 2.9-.7.5q-.8.2-1.4.7l-4 2-.7.9-1 .4q-.6.2-1.1.6-2 .9-3.6 2.4-.8 0-1.5.6l-3.8 2-1.2.8-.8.6q-.8.1-1.3.7l-3.7 2-1.2.7-.6.6q-.8.2-1.4.7l-3.9 2-1.2 1c-1.1.6-4.1 1.4-3.5 3.2q-9.2.2-18.4-.3 5-5.3 10-10.3c-1.4-1-2 .8-3.2 1.3q-6.9 3.6-13.6 7.6-.7.6-.7 1.5c-9.5 1.3-19.5 10.3-29.4 4.4 3.8-1.3 7.6-6.2 10.9-8.8q-.7-.5-1.6 0l-12 6.8c-8-9.6-8.6-25.3.5-34.3 1.7-1.9 7.5-3.5 9.5-2.4q-3.8 6-7.8 11.8.4.4 1 0c2.1-1 14-7 14.4-8.7q6.2 2 12.6 3.3c-1 1.2-4 3.3-4.2 4.7l-2 .8q-1.3 2.1.9.8.7-.7 1-1.6h1.3c1.1-.8 6.8-3 6.6-4.5q9.3-1.2 18.5-1 .6.2.5.6-6.4 5.6-12.4 11.5.3.3.8.2A304 304 0 0 0 80.7 243q.3-.7.2-1.4 10.7.1 21.3-.4l-2.6 1.8-7.2 7.3q.4.3.9.1 1.7-1.2 3.8-1.9l15.2-8.8q.5-.5 0-1a5 5 0 0 1 3-.9q38.3-21.7 76.5-44Zm57.2 2q0 1 .4 2-.3 1.6-1.2 2.7a47 47 0 0 1-6.5 3.4q-.6-.9.3-1.6 3.4-3.4 7-6.4Zm-37.2 24.4-3-3.2q.5-1 1.5-1.5 6-3.5 12.1-6.5.5.4 0 1c-3.4 3.4-6.8 7.1-10.6 10.2Zm115.4-10.7 2 1.2c-.6 1.9-4 3.3-5.7 4-.8-1 2-5.2 3.7-5.3ZM223.9 225c.6-2 7.4-5.1 9.4-6 .5 2-5.7 8-9.4 6Zm98 9.4a13 13 0 0 1-6.2-4.3c.9-1.3 12-9.4 10.2-4.9-1.2 2.8-3.6 6.3-4 9.2Zm65 19.4c-.7 0-2 0-1.8 1q-2.1.3-3.2 2-1.2 0-1.8.9c.6 1 2 0 1.8-1q2.3.3 3.2-1.9 1.5.5 1.8-1c2 .3 9.8-5.4 12.2-6.3q1-.3 1-1.2-1-.9-2.2 0-4.5 3-9.3 5.8-1 .7-1.7 1.7Zm-237.6 11.8.7.1c-2.5 9.2-1.8 12.3.9 21.2a4 4 0 0 0-1.9.6l-14.3 8.3-53.7 31-1 .3c-3.8-8.7 1.5-18.8 11.3-19.3-.4.6-.5 3.3.8 2.8 1-1 4.7-2 4.6-3.6q7.8-.5 15.5-2.6c12-4.5 11.8-9.2 8.4-20.4zm169.4 2.3q.8 0 1.2-.6-.9-.3-1.2.6ZM197 275q-1.2-.3-2 .7c.6 1 2 .2 2-.7.8 0 4-1 2.6-2q-2.1-.1-2.6 2Zm-46 12c.8-.5 10 6.3 13.3 5.9q-.5.6-1.3 1l-1.2.8-.8.6q-.8.2-1.2.6l-1.8 1-1.3.8-1 .3-1 1a24 24 0 0 0-5 2.7l-.8.3-1.2 1-5 2.7-.5.5q-.8.2-1.5.8l-5 2.7-.6.5q-.7.3-1.3.8l-5 2.7-5 3-.6.5q-.8.2-1.4.7l-5 2.8-.8.6-1.3.6-5 2.8-.7.5-1.3.8-3.6 2-1.3.7-5 3-.8.5-1.2.7-5 2.8-.7.5q-.7.3-1.2.8l-2.8 1.3q-3.5-3-5-7.4c18.6-11.2 36.7-23.2 55.3-34l12.4-7.6a6 6 0 0 0 2.2-2.3Zm118.3 11.4q3.5 2.1 6.2 5.2a605 605 0 0 1-21.4 12.8q-.9.6-1.8 0zM89 312.2c.3-.2 1.5-.5.7-1q-.7.2-.7 1Zm192.1.7q.8 2 1.2 4-6.5 2.8-12.2 7-1.6.8-1.6-1 5.5-4.4 10.5-9.2 1-.6 2.1-.8Zm-51.3 9.1q0-1.5 1.2-2.4l9.7-5.5c1.3-.5 1.2 1 .4 1.5q-5.2 5.3-10.6 10.2c-1-.7-.5-2.7-.7-3.8Zm5 20.2-2.2-4 14.8-8.2q.5.9-.4 1.6-6 5.5-12.2 10.6Zm-132.7-6.1.9-.1c-.2 3.6-7.8 9.3-10.4 5.8a7 7 0 0 0 3.2-2.1q.8 0 1.5-.7l1.7-1 1.2-.8zm129.7 20.8q6.9 3 14.1 5 0 .6-.3 1l-4.2 2.9q-26.8 15-53.3 30.4 3.3-5.8 5.5-12 .3-1.3-1-2c5.9-2.1 30.7-19.5 38.1-23.8a2 2 0 0 0 1.1-1.5Zm-3.7 46.1c-2.4.8-8.5 5.4-11.2 6.9h-.7q.1-5 2.7-9.5c2-1.4 7.5 1 9.2 2.6Zm63-3q0 .6-.4 1c-1.9.3-6.6 4.4-8.8 5.4-.2-1.3-.7-4.4.9-5q4.2-.9 8.4-1.3Zm33.1 3.8q1.5.2 2-1.3c-1-.8-1.7.6-2 1.3Zm66.6-.7a1 1 0 0 0 1-.6q-.8-.3-1 .6Zm-186.7 5 .8-.2c-1 10.3.1 28.8-15 28 2.2-2.6 3.9-6 5.5-9q.4-.7.1-1.5c-4.6 2.7-9 4.2-12.6 8q-4.6-2.8-7.7-7.2c4.7-1.7 23-14.7 28.9-18.1Z"/><path fill="#262626" stroke="#262626" stroke-width=".5" d="M254.1 5.4c15.1-1 32 5 33.6 22.1 0 3.9-6.4 17.6-7.4 22.5-3 10-.8 16.8.2 26.6-.5 10.6-5.1 34.8 11 35.4q.9 0 1.6-.5 3.5-6 3.2-13c-1.8-16.5 2.8-25.7 19.6-29.3l1.1-.4q2.7.5 5.2-.1c17.4.9 35.6 12.7 26.4 32.3-6 6.4-22.1 19.5-12.5 28.4 1.6 1.5 6.2 5 8.4 4.6a202 202 0 0 0 11.5-9.7l1.4-1.3q12.7-10.3 22.9-23c11.4-13.2 7.6-27.4 28.3-30.9l3.5.1c14.2-1 32 11.4 33.4 26.5 1.3 22.6-14.5 22.4-29 30.2a81 81 0 0 0-15.7 14.8q-1.4 1-1.8 2.6l-8.9 10.3c-9.7 8-14.4 15.7-4.4 26.3q1.4 1.6 3 .4l13.4-9.9q.9-.5 1.2-1.5l.7.3q1-.3 1.4-1.2.7-.7 1.5-.7.9-.3 1.3-1.1c1.5-.6 4.3-3 5.7-3l6.3-1.4c20-1.3 35.5 30.3 18.1 43-9.5 6.2-22.2 6.3-33 9.2-1.9 0-4-.5-3.4 2.3q2.1 7.9 3.6 15.8c4 2.7 10.6 1.6 15.3 2.6l6.6.3c15 .2 31.8-1 46.4-5l1.1-.1c1.7 0 8.6-1.6 9.3-2.8 33.9 3 33.4 52.7-1 57.9h-3.5c-13-2.3-19.7-10.7-34.2-9q-5.5-.2-11.1.9a12 12 0 0 0-5.8.3q-11 .7-22.3 1.7-1 0-1.5.9c-7.7 17.5 5.8 18.7 19 19l4.5.4c20.3 2.7 22.5 22.9 11.7 37.3-10 11.7-27.3 18-39 5-3.9-4.9-8-10.2-14.5-11.4-2.4.2-5.4 5.8-6.2 7.8-2.7 9.3 6.8 15.3 12.4 21 8.3 9 19.2 25.5 31.1 29.3q.6.7 1.5.8c10.8 3.4 19 6.8 20.3 19.6 1 18.8-16.9 32.8-34.4 34.4h-2.5q-12-.3-19-10c-6.5-24.6-29.4-38-46.7-54.5q-.7-.6-1.5-.7a76 76 0 0 0-7.7 4.4 2 2 0 0 0-.7 2.2c3.4 13.8 27.5 28.6 17.4 42.7a39 39 0 0 1-20 13.9 24 24 0 0 0-7.7 1.7c-25 2-22.2-11.6-26-31q-1.2-5.6-3-11a2 2 0 0 0-1.6-1l-1 .4q-4.2.3-8.4 1.3c-1.6.6-1.1 3.7-1 5-1 5.8-1.8 23.1-2.5 30.1a73 73 0 0 0 8.3 42c1.4 19.8-18.9 28.3-35.6 28.3q-1.8-1.3-4-.5l-1-.2c-11.9-2.2-20.7-8.3-22.6-20.8-.9-3.8 6.4-18.4 7.2-23.3 3.3-10.4.7-17.5-.2-27.5-.2-8.8 3.7-24.8-3.3-31.5-1.7-1.5-7.2-4-9.2-2.5q-2.6 4.4-2.7 9.5l-.4 1.2c1.6 16.5-1.4 28-19.6 31.6l-1.3.3h-5.2c-17.3.2-37.4-15.2-25.3-33.4 8.3-8.4 24.3-22.1 6.2-30.8-3.1-2.3-4.5 0-6.8 2l-1.2 1.1c-.6.6-2.7 3.1-3.4 2.6a3 3 0 0 0-1.5 1.1 3 3 0 0 0-1 1.3c-15.9 13.6-29.5 26.4-36.7 46.6-7.1 9.3-19.1 10.4-29.8 8.3q-.4-.8-1.5-.8c-22.4-6.8-32.8-37.8-8.6-48.4 8-2.3 20.7-8.1 25-15.5q1-.6.7-1.6 1 .2.8-1 1.1.4 1.7-.6l.9-.8c5.9-6.6 11.3-13.8 17.7-20q.9-.6.7-1.6 1 .3 1.5-.6c5.5-7.2 1.8-13.3-3-19.4-.6-.5-2.5-.7-1.8.7a2 2 0 0 0-3 2q-1.9-.9-2 1-.9-.2-1.3.5-1 .3-1.3 1.4l-.7-.5q-.8.3-1.3 1l-1 1.4-2.9 1.6-1 1q-.8.5-1.2 1.4l-.6-.4a2 2 0 0 0-1.3 1.3q-.7.7-1.6.7-.9.3-1.3 1.2h-.8q-1 .3-1.3 1.2l-3.8 1.6q-3 1.2-6.3 1.5c-22.2 1.7-38.1-38-11.6-46.2q.9 0 1.2-.8h.8l1-.3 9.3-2 17-3q.8-.5.8-1.4-2-8.2-3.4-16.8l-.4-.5-12-1-3.7-.2c-5.1-.3-20.6-2.2-24.7-1.2.4-1.3-4.8-1.2-5 .1q-8-.3-16 2.6-8.5 5.7-18.9 5.4-1.1-1.1-2.8-.8L22 284c-29-9.8-24.8-49.2 3.7-56 1.5-.2 5.4.4 6.3-1 13 1 22.4 11.1 35.8 8.3 1.5 1 4.8 1.2 6.2 0q11.4-.3 22.8-1.4c1.2 0 3.6.7 4.2-.7 1.8.6 5.5 1 6.4-1.2 7.2-18.3-6.8-18.3-20.2-19l-4.5-.1c-20.1-4.2-21.6-24.5-9.6-38.5l1.3-1.5c3.1-3.2 11.2-8.7 15.6-8.7q.9-.3 1.2-1.1c21.4-1.1 19.5 15.5 34.3 18.8 1.7-.2 2.9-2.2 3.6-3.6q.8-.5.7-1.5.9 0 .7-1c6-8.3-5-17.2-10.7-22-8.3-9-22.6-30.3-35.5-31q-.6-.7-1.4-1-.4-.6-1-.3-6.4-2.1-11.2-6.9c-13.2-18 4.8-40 23.2-44.3l5.1-1a24 24 0 0 1 23.4 9.7c6.4 24.7 29.2 38 46.6 54.5q.7.7 1.5.8 4-2.2 7.7-4.6a2 2 0 0 0 .6-2c-3.4-10-11.8-17.8-17.2-26.7-9-14 8-26.7 20-29.9 1.6-.1 6.7-.8 7.5-2q5.4-.2 11 .4c16.5 1.8 12 31 18.5 42.5q.6.7 1.4.5l9.8-2.2q.4-.8.5-1.7c.8-26.3 8-49.9-5.8-74.3-1.8-14.3 9.2-24.1 22.1-27.3q1 0 1.6-.9zm-12 37.9c.5.8.6 3.6 1.7 3.5a178 178 0 0 1 0 44.2c-.5 3.6-1.7 13-.7 16l-.4 1.1q-.3 1.5.4 2.7c-2 3.3-8.6 6.1-12.2 6.1-7.5 0-14.5 3.6-21.9 3.1-1.5-2.4-3.9-4.2-5.1-7.2q.1-1.1-.7-1.9c-3.6-8.7 1.4-24-5.4-30.1-15.2-12.4-35.2 6.5-20 23.5q1.4 1.5 3 2.5c6.1 8.2 12.5 11.8 10.4 23.3q-1 0-1.5.8-.7.3-1 1h-.8q-.8.3-1.3 1-7.5 4.3-14.6 9.1l-.9.3q-6.5.6-12-2.7l-2.8-1.5c-3.4-1.8-7.3-6-10.5-7.3q0-.6-.7-.5c-2.7-3-20.8-24-22.4-24.1q0-1-1-.9c-.3-3-6.2-6.3-6.8-9.6q0-2.3-.9-4.4A17 17 0 0 0 100.3 77c-14.6-2-26.6 18.3-19.7 30.3 1 1.1 2.7 3.7 4.4 3.5.5 2.2 9.9 6 12.2 6.3q.4 1 1.5 1.4c9.5 4 16.5 14.1 24.2 20.8q.6 1 1.7 1.6c2.1 2.3 6 7.1 8.6 8.4q0 1.6 1.5 2.5c4.6 5.5 8.2 9.1 11 15.8q.3.8-.1 1.4a93 93 0 0 0-7.4 11.9l-.4 1-2.8 3.9c-.2 1.8-5 4.1-6.7 4.7-12.8 1.1-21.4-9.8-31.3-16a7 7 0 0 0-2.7-1.4H93q-.4-1-1.6-1c-10-1.5-14.3 14.6-13.2 22.1 1.6 13.5 27.3 11.4 37 14.6l5.3 3c3.3 5 .7 18.5-3.5 23.2q-1 0-1.1.7-1.4.7-.8 2.1-1.5 0-2.9.8-5 1.5-10 2.6-10.8.5-21.4.4c-2-.2-5.3-.9-7 .2q0-.5-.5-.5-9.2-.4-18.5 1-1.8-.4-3.6-.3-6.4-1.4-12.6-3.3c-.3-1.4-6-2.9-7.6-3.1-2-1-7.8.5-9.5 2.4-9.1 9-8.4 24.7-.4 34.3q1 1.2 2.6 2c9.9 5.9 19.9-3 29.4-4.4q3.8-.5 7.5 0 9.2.3 18.4.2 6 .4 12 0 0 .4.5.4l15.4.7q2.2 1.2 4.7.6.3.5 1 .8 2.8.2 5.5 1.5l1 2.8v1.4q.2 3 1.4 5.7c3.4 11.2 3.6 16-8.4 20.4q-7.7 2-15.5 2.6-2.7 0-5.4.8c-9.8.5-15 10.6-11.3 19.3v1.2q.3 1.3 1 2.5 1.5 4.4 5 7.4c1.2 1.2 5 4.4 6.6 3.5 2.6 3.5 10.2-2.2 10.4-5.8q1-.2 1-1.1 1 0 1.4-.8l.9-1c1.6-1.1 4.9-3.6 6.7-4a2 2 0 0 0 1.4-1.1l1.6-1a2 2 0 0 0 1.4-1l.5-.2c.6.1 2 .2 1.8-.8 6.3-1.3 11.8-3.6 17.5 1a5 5 0 0 0 2.7 2.8q2 4.2 3.5 8.6 0 .4.5.3a7 7 0 0 0 0 3.2c-4.3 19.3-22.5 27-32.8 41.3-8.1 10.3-23.4 12.1-30.5 21.6l-.7 1c-2 4.4-2.2 7-.3 11.6q.3 1.5 1 2.6 1.3 4.8 5 8.3 1.7 2.4 4.3 3.6c2.7 3 9.2 5 13.2 3.9q1.5.2 3-.5.7-.4.8-1.1l1.4-.1.8-1q.7-.5 1-1.1.6-.4.8-1 3.1-6.9 5.8-14c5-8.9 21.8-22 29-30.7 9.9-9 19.6-18.6 34.1-13.5l2.3.5q0 .5.3.8a26 26 0 0 1 7.3 6.1q2 1 3 3 1.1.7.9 2a71 71 0 0 1-5.5 12c-1 1.4-6 7-5.8 8.5q-.3 1-1.4 1.5-.8 0-.9.7c-2.6 4-6.4 9.4-6 14.4q0 2.6 1.2 5 3 4.4 7.7 7.1a16 16 0 0 0 7 2.4c15.1 1 14-17.6 15-27.9l.3-1q.8-1.8.8-3.7c5.3-17 22.8-11 35-5.8 2.4.8 1.5 3.7 1.8 5.6.5 1.4-.2 6.2 1 6.8l-.3.4 1.5 34.5c1.3 14.6-5.6 23.3-7.3 36.4q0 1.4.3 2.6-.3 6.6 5 10.7 2.2 2.1 5.2 2.8.7 1 1.9 1.1c11.5 4.3 22.8-1.3 24.3-13.9a1 1 0 0 0-.6-.8c1-.6 1.4-3 .2-3.3.8-3.6-2-8.5-4-11.5l-.9-.8q-.4-.7-1-1-.3-6.2-1.2-12.3v-2.4a319 319 0 0 0 0-17.1c1.7-10.5 1.6-23.3 2.8-34.1 1.8-6.3 22.4-6.7 28-9 12.9-2.2 13.2 22.2 12.6 30.2v.7q1 7 7.3 10.8 2.4 1.2 5.2 1.3 12.9.4 17-11.9c3-15.7-26.7-26.6-17.5-41.4 6.8-3.6 16-13.7 24-13.3 5.2.7 19.3 15.5 24.4 19.3l1.9 1.3a663 663 0 0 1 17.1 16.7 109 109 0 0 1 6.8 9c1.3 5.8 3.5 15.3 9.8 17.6-.2.9 2 1.4 2.5 1.7 14.5 4.4 24.9-10.3 24.7-23.3-1-10.2-12.6-13.5-20.4-17.2a3 3 0 0 0-2.1-.6q0-.6-.5-1c-5.9-3-10.6-8.8-15.3-13.3a3 3 0 0 0-2.2-1.5c-2.1-3.7-14-14.7-17.4-19.3-2.1-1.9-9.4-12-9.4-14.3q1.5-2.4 2.7-5c1-1 3.6-3.7 2.7-5.3 8.4-10.5 10.6-15.9 25.4-9 1.3.9 3.4 2.6 5 2.7a31 31 0 0 0 9 7.3c1.2 1.4 3.6 3.5 5.6 3.6 12 9.7 22.3-16.6 14.5-25.9-1-1.2-3-3.2-4.7-2.7-1-3-25.3-4.4-29.4-6.4q-2.2-1.2-4.7-1.7c-.8-1.4-2.2-1.8-2.2-3.7a42 42 0 0 1 1.1-13.4c3.7-16.9 17.7-10.6 30.8-13a34 34 0 0 0 6.8-.8l1.2-.2q9 0 18-.4.7.2 1-.3l1-.2q4.9.6 9.8.6c5.7-.1 7.3 1 12 3.6q4 2 8.2 2.8c18 5.3 18.6-24.1 16-26.3l-.2-1.2a4 4 0 0 0-1.6-3.6c-1-4.3-5-7.7-9.4-8.3 0-1-2.1-.8-2.8-1h-1c-7.6-1.2-14 3.2-20.7 5.9a701 701 0 0 1-51.9-.5l-15.1-3.5q0-.8-.2-1.5c.6-3-1.5-7.5-2.3-10.6q-.2-.8-.8-1.4c-6.9-28.7 45.9-9.4 43.4-34.2a31 31 0 0 0-6.1-15.1c-5.2-6.2-10-6.4-16.6-1.6-8.8 7.4-16.2 13.8-27.9 16a18 18 0 0 0-3.9 0l-1.9-1.2a68 68 0 0 1-6-7.5q-1.2-2.2-2-4.7c-1.2-4.2-.3-6.8.3-11q1.8-1.5 1.4-3.6c.4-.2 31.4-32.2 34.5-35.5 7.7-6.3 25.6-11.7 28-21.9q1-3.4-.3-6.6c-.7-3.4-4.5-12.5-8-13.3q0-1.5-1.5-1.8c-6.5-6-18-8.1-22.9.8-2.7 5.5-4 12.4-7.8 17.2-15 12.3-35.5 44.2-56.9 41.6-.1-1-2.3-.8-3-1a85 85 0 0 1-9-6 27 27 0 0 0-3.8-3.7q-1.2-1.4-1.6-3.2 1.5-4 2.6-8.1.8 0 .9-.9l.5-1q.4-.3.7-.9.6-.3.8-.9c2.7-4.2 8.5-10.5 10-14.8q1-.6 1.2-1.6l1.2-1.7q.8-.7.6-1.9c2-1.8 1.7-10.9-1.1-9.8 1-3.1-4.9-6-6.8-7.8a26 26 0 0 0-7-2.8l-1 .3c-18.2-2.7-8.3 28-17.6 37.9q-.3.5 0 1-1.2.3-1.1 1.3-1 0-1.6.7l-.8.2c-5.5 2.7-11 1.7-17 1.5q-.9-.5-2-.6c-2.3-.2-4.6-1.6-7-1l-2.2-2.3-1.6-5.8q0-1.7-1-3-.3-4.5-1.4-9.2.6-1.6-.5-2.7l-.3-10q.4-2.2-.5-4.2c-.3-17 2.4-30.1 8.3-45.8l.3-1q.3-2.6.2-5c-4.4-20.7-43-21-37.7 5.1zm-5 123.4q0 1 .8 1a47 47 0 0 1 14.7 8.5 34.8 34.8 0 0 1-19.4 57.4c-10.2 1.5-19 .4-28.3-3.8a1 1 0 0 0-.9-.7c-11.5-10.5-13.7-19.7-12.2-35.2q.2-.9 0-1.8.7 0 1.1-.7a35 35 0 0 1 22.4-23.5c7.6-2.6 14.2-1 21.8-1.2ZM209 217.1l2.9 3.2c17.2 14.2 41-1 37.6-22.4l-.4-2q-1.2-6-4.4-11.1l-.6-.8q-4-5-10-7.1-5.3-1.6-11-.9c-21 4.3-26.4 24.5-14.1 41.1Zm120-15.8q2.6 1 5.3.7-.1.5.3.9c3.7 1.4 6.6 4 9.7 6.2q.2 1 1 1.8c2.7 4 2.4 8.6 2 13.1-10.4 23-44.9 26.5-46.6-2.3q.4-1.2.1-2.4c6-12 14.4-17.8 28.2-18Zm-13.2 29a13 13 0 0 0 6.1 4.2c12.9 5.5 17.6-15.4 7.4-23.7l-2-1.3c-11.3-5.8-18.1 12-11.5 20.7Zm-148 22.5c36-2.3 32.5 40.1.3 40.1h-3.8c-3.3.4-12.5-6.3-13.3-5.9-2.7-8.9-3.4-12-.9-21.2q.9-.2.9-1.1c2.1-3.7 4.3-5.7 7.7-8.3q0-.3-.4-.4.2-.7.6-1a4 4 0 0 0 3.1-.7zM157.5 274c.4 17 21.8 14 23.4 4.3 3.3-20.2-21.7-27.5-23.5-4.3Zm91.8 88.1q-1 0-2-.3l-1.3.2q-7.2-2.1-14-5.1-.6-1.2-1.6-1.8a35 35 0 0 1-12.8-23c-6.2-57.3 75-61.4 78-11.4-.2 28.1-19 43-46.3 41.4Zm-16.6-23.9 2.2 4c19.1 26.4 55.3 6.7 47.5-25.3q-.4-2-1.2-4a33 33 0 0 0-5.7-9.3q-2.7-3-6.2-5.2c-28.2-14.8-48.4 13.3-36.6 39.8Z"/><path fill="#68cdc5" fill-opacity=".3" d="m412.1 69.3-3.5-.2c.5-1.5 3.4-1.8 3.5.2M243 121q-.3 1-1.3.7zm139 8q-.1 1.1-1.3.7zm-19 12q-.3 1-1.2.7zm-191 21q-.1 1.1-1.3.7zm-33.8 77.2-1.2.8q.3-1 1.2-.8M418 247q-.3 1-1.2.8zm-31 6.9q-.5 1.5-2 1c-.1-1 1.2-1 2-1m43.2 15.3-.2.9-1.2.2q.2-1.2 1.4-1.1M104 328q-.3.9-1.3.7zm-3.8 9.2-1.2.8q.3-1 1.2-.8M408.7 443h2.5c-.1 1.3-2 1.1-2.6 0"/><path fill="#66ccc2" fill-opacity=".1" stroke="#66ccc2" stroke-opacity=".1" stroke-width=".5" d="M89 312.2q0-.8.7-1c.8.5-.4.8-.7 1Z"/><path fill="#68cec5" fill-opacity=".6" d="M349 310c-.5 1.1-4 4-5 2.6 1.4-1.1 3.2-2.5 5-2.6"/><path fill="#6bd1c8" fill-opacity=".2" stroke="#6bd1c8" stroke-opacity=".2" stroke-width=".5" d="M345 265.8c-.7 2-3.1 3-5 3.3.8-1.9 3-3 5-3.3Z"/><path fill="#64d4cb" fill-opacity=".2" stroke="#64d4cb" stroke-opacity=".2" stroke-width=".5" d="M387 253.9q.6-1 1.6-1.7 4.8-2.8 9.3-5.9 1.3-.7 2.2 0 0 .9-1 1.3c-2.4 1-10.1 6.6-12.2 6.3Z"/><path fill="#6acfc6" fill-opacity=".3" stroke="#6acfc6" stroke-opacity=".3" stroke-width=".5" d="M280 233q-.5 1.4-2 1 .5-1.3 2-1Z"/><path fill="#66ccc5" fill-opacity=".1" stroke="#66ccc5" stroke-opacity=".1" stroke-width=".5" d="M151.8 144q0-.7.9-1c1 .6-.7 1-1 1Z"/><path fill="#67cec5" fill-opacity=".2" d="m401.3 122.3-1.2.8q.2-1 1.2-.8M167 164.9q-.2 1-1.2.8zM92.3 269.3l-1.2.9q0-1.1 1.2-.9"/><path fill="#58afa4" stroke="#58afa4" stroke-width=".5" d="M223 176c-.9 2.5-6.7 9.2-8.5 11.9q-.3.6.1 1a94 94 0 0 0 19.5-12q6 2.1 9.9 7.1c-2.5 0-4.3 3-6.2 4.3-1 .7-1 2.1.5 1.6 2-1.5 6-2.3 6.3-5.1q3.2 5.1 4.4 11.2-3.6 3-7 6.4-.9.7-.3 1.6 3.3-1.4 6.5-3.4.9-1.2 1.2-2.7c3.3 21.3-20.4 36.6-37.6 22.4 3.8-3 7.2-6.8 10.6-10.3q.5-.4 0-1-6 3-12.1 6.6-1 .5-1.4 1.5c-12.3-16.6-6.9-36.8 14.1-41Zm104.2 33.6c-1.6 0-4.5 4.2-3.7 5.2 1.7-.7 5.1-2.1 5.7-4 10.2 8.3 5.5 29.2-7.4 23.7.5-3 3-6.3 4.1-9.2 1.7-4.5-9.3 3.6-10.2 5-6.6-8.8.2-26.6 11.5-20.7ZM223.9 225c3.7 2 10-4 9.4-6-2 .9-8.8 4-9.4 6Zm-66.6 49c1.8-23.2 26.8-15.9 23.5 4.3-1.6 9.7-23 12.7-23.5-4.3Zm112 24.4-17.1 18q.9.6 1.8 0a605 605 0 0 0 21.4-12.8q3.6 4.2 5.7 9.3-1 .2-2 .8a178 178 0 0 1-10.6 9.3q0 1.6 1.6.8 5.7-4 12.2-7c7.8 32.1-28.4 51.8-47.5 25.4q6.2-5.1 12.2-10.6.9-.7.4-1.6-7.5 4-14.8 8.2c-11.8-26.5 8.4-54.6 36.6-39.8ZM229.7 322c.2 1.1-.3 3 .7 3.8q5.4-5 10.6-10.2c.8-.6 1-2-.4-1.5l-9.7 5.5q-1 .9-1.2 2.4Zm19.4 24c-1.1-.4-6.4 2-5 3.2a9 9 0 0 0 5-3.2c.4-.3 4-1 2.4-2q-2 0-2.4 2Z"/><path fill="#62bfb6" fill-opacity=".3" stroke="#62bfb6" stroke-opacity=".3" stroke-width=".5" d="M249.2 346a9 9 0 0 1-5 3.2c-1.4-1.2 3.9-3.6 5-3.2Z"/><path fill="#5fb9b1" fill-opacity=".4" stroke="#5fb9b1" stroke-opacity=".4" stroke-width=".5" d="M249.2 346q.5-2 2.4-2c1.5 1-2 1.7-2.4 2Z"/><path fill="none" d="M268 467q.7.3 1.1 1v1.2l-1.9 1-1.1-.2-.4-1.3q1 0 1-.8 1-.1 1.4-1"/><path fill="#3b5b57" fill-opacity=".4" stroke="#3b5b57" stroke-opacity=".4" stroke-width=".5" d="M379 189.3a18 18 0 0 1 3.8 0q-1 1-2.4 1.4z"/><path fill="#292c2b" fill-opacity=".5" d="M266.4 79.8q1 2 .5 4.2l-.8.7-.2-2.5v-1.4z"/><path fill="#3a5755" fill-opacity=".3" stroke="#3a5755" stroke-opacity=".3" stroke-width=".5" d="M267.2 94q1.2 1.2.5 2.7l-.9.4q.4-1.5-.6-2.9z"/><path fill="#3c5e5b" fill-opacity=".2" stroke="#3c5e5b" stroke-opacity=".2" stroke-width=".5" d="M281 118q1 0 2 .6-.7 1-1.8 1.5z"/><path fill="#3f6562" fill-opacity=".4" d="M159.2 384.6q-.3 1.2-1.5 1.1a3 3 0 0 1 1.5-1m-1.5 1.1q.3 1.3-1 1.3.3-.8 1-1.3"/><path fill="#364d4b" fill-opacity=".4" stroke="#364d4b" stroke-opacity=".4" stroke-width=".5" d="M203.2 111q.9.6.7 1.8l-.9.4-.2-1.3z"/><path fill="#334946" fill-opacity=".4" stroke="#334946" stroke-opacity=".4" stroke-width=".5" d="m269.1 468 1 .8-1 .4z"/><path fill="#3a5a57" fill-opacity=".4" d="M188 132q-.2 1-1.4 1 .5-.9 1.3-1"/><path fill="#3e6461" fill-opacity=".5" d="M114.4 328a2 2 0 0 1-1.4 1.2q.2-1.2 1.4-1.2"/><path fill="#252525" fill-opacity=".4" d="M449 269.4q-.2.6-1 .4.3-.9 1-.4"/><path fill="#3b5c5c" fill-opacity=".4" stroke="#3b5c5c" stroke-opacity=".4" stroke-width=".5" d="M408.2 166.2q-.4.8-1.3 1 0-1.1 1.3-1Z"/><path fill="#3b5d59" fill-opacity=".9" d="M81.8 121.5q.7-.3 1 .3-.5 0-1-.3"/><path fill="#3d605d" fill-opacity=".6" d="M103 346q-.2 1-1.3 1.1.3-.9 1.3-1.2"/><path fill="#3a5151" fill-opacity=".1" stroke="#3a5151" stroke-opacity=".1" stroke-width=".5" d="M322 117h1q0 .6-.6 1z"/><path fill="#3c5f5d" fill-opacity=".5" d="M423.8 388.2q1 0 1.5.8a2 2 0 0 1-1.5-.8"/><path fill="#232323" fill-opacity=".1" stroke="#232323" stroke-opacity=".1" stroke-width=".5" d="m80.6 403.8.5 1.3-1.2-.2z"/><path fill="#3c6260" fill-opacity=".5" stroke="#3c6260" stroke-opacity=".5" stroke-width=".5" d="M180.9 406.2q-.1.6-.9.7.2-.7.9-.7Z"/><path fill="#3e6663" fill-opacity=".6" stroke="#3e6663" stroke-opacity=".6" stroke-width=".5" d="M111 430q-.3.6-.9 1 .3-.7.9-1Z"/><path fill="#324440" fill-opacity=".2" stroke="#324440" stroke-opacity=".2" stroke-width=".5" d="M110.1 431q-.3.6-1 1.1 0-1 1-1.1Z"/><path fill="#262626" fill-opacity=".3" stroke="#262626" stroke-opacity=".3" stroke-width=".5" d="m109.1 432.1-.8 1q-.3-1.1.8-1Zm26.7-247.3q.3 1-.8 1z"/><path fill="#242424" fill-opacity=".1" stroke="#242424" stroke-opacity=".1" stroke-width=".5" d="m106 433 1 .2q-.2.7-.8 1z"/><path fill="#3d5e5e" fill-opacity=".4" d="M88.7 441q1 0 1.5.9-1 0-1.5-.8"/><path fill="#344a4a" fill-opacity=".3" stroke="#344a4a" stroke-opacity=".3" stroke-width=".5" d="M310.3 422.3q1 0 0 .6z"/></svg>