<svg xmlns="http://www.w3.org/2000/svg" style="shape-rendering:geometricPrecision;text-rendering:geometricPrecision;image-rendering:optimizeQuality;fill-rule:evenodd;clip-rule:evenodd" viewBox="0 0 512 512"><path fill="#b8c2ce" d="M320.9 274.2c0 1.3-2 2-3 1.7q.8-2 3-1.7m-117 2.8c.1 1.5-2 2-3.1 2q.8-2.1 3.2-2m127 37.1c0 1.5-4 2.9-5.2 3.2a6 6 0 0 1 5.2-3.2M170.3 340a3 3 0 0 1-3.3 2c.1-1.6 2-1.9 3.2-2m22 3.8q-.4.9-1.3 1.5-6.8 4.4-13.9 8.4-.4-.9-1.3-1l14.2-8.2q1-.6 2.3-.7m65.8 59q-.3 1-1 1.7-5.3 3-10.4 6.6-1-.3-1.7-1l11-6.7z"/><path fill="#bdc7d2" d="m353.3 269.2 1.8.3-13.4 7.9q-2.8 1.6-5.9 2.6a3 3 0 0 1 1.1-1.5q7.4-4.3 14.4-8.8a3 3 0 0 1 2-.5m-99 116.7q-.6 1.4-1.8 2-5.8 3.3-11.3 7-.1-1.2-1.3-1.3l12.1-7q1-.7 2.2-.7"/><path fill="#8b8f93" fill-opacity=".1" d="M308.8 28.2q1-.1.8.8.3.6-.2.8a30 30 0 0 0-4.3 2.7c-1.7.7-4.5 2.7-6.3 2.8q.2-1.1 1-1.8 3.9-2.2 7.5-4.8a2 2 0 0 1 1.4-.5M89.6 234.8q2.2.4.5 1.7-6.4 3.5-12.4 7.8a17 17 0 0 1-3.5 1.5q-.4-.7 0-1.5l.8-1q7.4-4 14.6-8.5"/><path fill="#c3ccd7" d="M335.8 264.3q0 .9 1 1.3-6.6 3.7-13 7.7-1.4.8-2.9.9.3-1 1.1-1.5zM247 300q-.1 1 .8 1.5l-11.8 7.1q-1 .5-2 .5 0-1 1-1.5z"/><path fill="#d1def2" d="m342 121.9.3 2.2q-8 4.3-15.7 8.9c-.9.3-1.6 1.2-2.5.5q0-.7.7-1 7.5-4.6 14.6-9.6a6 6 0 0 1 2.6-1"/><path fill="#86898d" fill-opacity=".1" d="M363 78.3q1 0 .8 1t-1 1.1q-8 4.2-15.8 9-.7.6-1.7.4l-.2-.6q1.2-.6 1.8-1.7 7.3-4.2 14.4-9 .8-.6 1.8-.2"/><path fill="#e5eef2" fill-opacity=".2" d="m402.8 174 .1 1.3a24 24 0 0 1-4.9 3.3 3 3 0 0 1-2 .3c.7-1.8 5.2-3.6 6.8-4.9m-279.9 8q0 1.1-1.2.7zm3.4 3.3-1.2.8q0-1.2 1.2-.8M88.8 393.9c.1 1.8-3.1 2.5-4.3 3.2l-7.5 5a2 2 0 0 0-1-1.5q5.7-2.9 11-6.2a4 4 0 0 1 1.8-.5"/><path fill="none" d="M91.8 341.3q0 .8-.7 1.2-6.7 3.6-13 8-1.5.8-3 1.2v-1.4l.9-1q6-3.3 12-7c1.2-.2 2.5-2 3.8-1"/><path fill="#b6c0cd" d="M204 366.7c-.3 1.9-6.4 4.5-8 6a3 3 0 0 1-2 .4l-.7-.3q0-.3.3-.6 4.3-2.3 8.3-5 1-.4 2.1-.5m89 5.4c-.2 1.4-2.1 2-3.3 2q.9-2.3 3.3-2m-100.7 17.6c-.7 1.7-3.5 3.4-5.3 3.2.2-1.5 4-3 5.3-3.2M362.9 413q.2-1 1-.6-.4.6-1 .6"/><path fill="none" d="M437.9 313q.2.9-.1 1.8l-.8 1q-6.5 3.4-12.6 7.2l-1.5.3q0-1.2 1-1.8 7-4 14-8.4"/><path fill="#dbe3e7" fill-opacity=".2" d="M379.4 175.8q.6.3.6 1.2l-13 7.5q-1 .5-2 .4.6-1 1.6-1.7 6.2-4 12.8-7.4"/><path fill="#b2bcc9" fill-opacity=".8" d="m322.2 335.2.5.2c.5.7-2 1.6-2.3 2.3l-1.7.5q-3.3 2.2-6.9 4.3a18 18 0 0 1-4 1.5q1-1.4 2.6-2.3c2-.9 10.1-7 11.8-6.5"/><path fill="#d1def2" fill-opacity=".9" d="m291.3 56.2.9-.6 1 .6c-.3 1-4.1 3-5.1 2.7l.2-.9 2-1zm-19 11 .7-.2h1c-.2 1.5-3.6 2.9-5 3l.3-1q.8-.9 1.8-1zM262 74q0 1-1 1.4c-1.8.4-3.9 3-5.8 2.6l.9-1.8 1-.3a1 1 0 0 0 .9-.5l1.2-.3q1.3-1 2.8-1"/><path fill="#d6e1ee" fill-opacity=".8" d="m256 76.1-.8 1.8c-.4 1.5-9.2 5.8-11 6.8q-.6.4-1-.1.7-1.4 2.2-1.6c1.8-1.5 8.7-7.2 10.7-6.9M152.2 444.8c.8-.1 2.2 0 1.5 1.1-3 1.5-8.4 6.2-11.5 6.3l-2.1-.2q.3-.9 1-1.4z"/><path fill="#d3dce3" fill-opacity=".9" d="m395 289-.3.7q-.7.4-1 1l-.7.4h-1q.8-2.2 3-2.1M134.9 455l-.9 1.8c-1.3-.2-4.7 1.6-5 3.1q-2.5.1-4 1.9l-1 .5-1.2-.6q5-3.5 10.2-6.3 1-.5 2-.4"/><path fill="#b9c3ce" fill-opacity=".9" d="m401.8 389.9-.8 2h-2l.3-1q1.2-.7 2.5-1m-4.5 2.2.6-.1h1.2q-.7 1.1-2.1 1zm-2 1h1.7q-.5 1-1.8 1zm-1.1 1.2 1-.2q-.5.8-1.3.9 0-.4.3-.7m-2 .8.7-.2h1q-.5 1.3-2 1.3zm-1.9 1h1.6q-.5 1-1.8 1zm-1.1 1.1 1-.1q-.6.6-1.3 1zm-2 .8h1.7q-.7 1-2 1zm-2 1 .7-.1h1q-.5 1.2-1.8 1.3zm-2.2 1.4 1-.4 1 .2q-.6 1-1.8 1zm-.7.7h.9q-.3.8-1.1.8z"/><path fill="#e6ecf1" fill-opacity=".2" d="m95.3 205.3-1.2.8q0-1 1.2-.8M157 473.9l2 .1q0 .9-.9 1.3-5.4 3.5-11 6.5-.2-1 .4-1.9l6.3-3.4q1.8-1 3.2-2.6"/><path fill="#c4ced8" fill-opacity=".8" d="m124 334.2-1.1 1.1a85 85 0 0 1-8 5q-1.2.6-2.6.4 0-.9.8-1.1l9-5q.8-.6 1.8-.4"/><path fill="#c9cdd3" fill-opacity=".2" stroke="#c9cdd3" stroke-opacity=".2" stroke-width=".5" d="M339 239.3q-1.5 1.4-3.2 1.8-.4.3-.6.7c-1.8.7-5.1 3.3-7 3q0-.8.8-1.2 3.6-1.9 6.9-4.4 1.5-.3 3 .1Z"/><path fill="#c7d0da" fill-opacity=".9" d="m383.9 296.1-.3 1q-.6.6-1.6.5a4 4 0 0 0-1.2 1.4h-.6l-1.2-.1c.3-1 3.7-3 4.8-2.8M379 299l-.2.9a2 2 0 0 0-1 1h-.7l-1.2.1a4 4 0 0 1 3.1-2m-30 19.2-.4 1q-.7.6-1.7.7h-1a3 3 0 0 1 3-1.7m-3 1.7-.3 1.2-.6.3-1-.4a2 2 0 0 1 1.9-1"/><path fill="#d8dee3" fill-opacity=".2" d="M153.6 130q0 .6-.2 1l-9.3 5.7q-.3-1-1.2-1l9.8-5.5q.4-.2 1-.2"/><path fill="#d5e1e4" fill-opacity=".2" d="M133 196q-.6 1.1-1.6 1.8l-8.2 5q-.4-1-1.3-1.1l9-5.3q1-.4 2-.4"/><path fill="#c2d4f3" d="m185.3 188.3-.4-1.2q2.2-1.2 4.7-2.2l.3.4c-.5 1.2-3.3 2.7-4.6 3m77.4 29c0-1.6 5.7-4.8 6.3-3.9-.4.8-5.3 5-6.3 3.9"/><path fill="#d4dbe0" fill-opacity=".9" d="m216.4 12.4-10.5 4-.8-.1q-.1-.8.5-1.2l6-3.1q2.4-.5 4.8.4"/><path fill="#cedcf2" fill-opacity=".9" d="m279.2 63 .4-.3 1.2.5c.2 1-3.8 3-4.8 2.7l.3-1q.8-.5 1.9-.8zm-12 7.1.7-.3 1.1.3c-.2 1.3-4 2.4-5 3.5q-1 .5-2 .3l.3-.9z"/><path fill="#d2dade" fill-opacity=".9" d="m245.3 5.3.7-.3 2.9.2h.8l1.2 1.1q-.5.8-1.4.6-3.3.3-6.8.1l1.5-.9z"/><path fill="#909dae" fill-opacity=".3" stroke="#909dae" stroke-opacity=".3" stroke-width=".5" d="M116.1 282.1c-.8.8-5 5-6 4.6l-2.1.3c1.2-1.8 6-4.9 8.1-4.9Z"/><path fill="#a7b2c1" fill-opacity=".7" d="M113.2 327.8q-.7 0-1.3.3c0-1.2 5-3.2 5.9-4q.8-.4 1.2.2a9 9 0 0 1-5.8 3.5"/><path fill="#a2a8ab" fill-opacity=".9" d="M274.3 505.2q-.6.5-1.3.5a2 2 0 0 0-1.3 1.3h-.6q0-.6-.7-1-2.2-.5-3.7 1-1-.3-1.5-1.3c.3-.9 7.9-.6 9-.5"/><path fill="#687284" fill-opacity=".2" stroke="#687284" stroke-opacity=".2" stroke-width=".5" d="M110.3 272q-.3-1.3-1.5-1.3l5.9-3.4q.7-.4 1.2 0-.2.9-.9 1.3z"/><path fill="#6c6e70" d="m309.2 504.7-.9.3q-4.7.2-9.5-.5a3 3 0 0 1 1.7-.4c2.4.2 6.8-.8 8.7.6"/><path fill="#b9bec1" fill-opacity=".1" d="m384.9 173.3 1.2.2q-3.2 1.5-6.1 3.5 0-.8-.6-1.2 1.5-1.5 3.4-2.5a2 2 0 0 1 2 0"/><path fill="#6898fc" fill-opacity=".3" stroke="#6898fc" stroke-opacity=".3" stroke-width=".5" d="m288 217-.3-1.3c1.4-1 4.4-4 6.1-3.2a43 43 0 0 1-5.7 4.6Z"/><path fill="#b1bbc7" fill-opacity=".6" stroke="#b1bbc7" stroke-opacity=".6" stroke-width=".5" d="m111.9 328-.1.9q-.5 1.1-2 1.4-.5.2-.4.8-.9 1-2.2 1v-2.3q2.2-1.2 4.7-1.7Z"/><path fill="#cbd4dd" d="M405.8 281.7v1.5q-.4 0-.8.3l-.7.6-1.4-.1q.8-1.8 3-2.3m-7.7 5.1-.3 1q-.7.3-1 1-.3 0-.5.4l-1.2-.2c0-1.5 1.9-1.8 3-2.2m-25 16-.5 1.1-.5.4-1-.4a2 2 0 0 1 2-1"/><path fill="#cad3dc" fill-opacity=".9" d="m402.9 284-.2 1q-.7.6-1.7.8-.8.4-1.3 1l-.6.5-1-.5c.1-1 3.7-3 4.8-2.8m-49 31-.2 1h-1.5q.3-1.3 1.7-1"/><path fill="#b4c9ee" d="m335.5 100.8.5 1.2c-1.4.9-4.6 3.3-6.2 3.1.5-2 4.2-3.2 5.7-4.3"/><path fill="#547dd7" d="M257.8 124.6c.7.2 2.1.3 2.1 1.4l-4.2 2c-.8-1 1.5-2.8 2-3.4"/><path fill="#c6cfd9" fill-opacity=".9" d="m371 303.9-.3 1-1 .9-.5.2-1.1-.2c.2-1.2 2-1.5 3-2m-2.9 2-.5.7q-.6.5-.9 1.1l-.5.2-1.2.2a3 3 0 0 1 3.1-2.3"/><path fill="#959a9d" d="M353.9 505a35 35 0 0 1 8.2.6l-.8.4q-3-.3-6.3-.1h-.9z"/><path fill="#d2dbe3" d="M140 452q-.7.8-1 1.9c-1.5-.6-2.6 1-4.2 1 .6-1.4 3.7-2.8 5.2-3"/><path fill="#ccd5de" fill-opacity=".9" d="m392 291-.3 1q-.9.6-1.8.8l-1.1 1q-.2 0-.5.3l-1.2-.3c.1-1 3.6-3 4.8-2.8"/><path fill="#cdd4d9" fill-opacity=".8" d="M86.2 488.7c.9 1.3 3.6 2.6 3.6 4.2l-.6.1q-3-1-3-4.3"/><path fill="#c9d2dc" fill-opacity=".9" d="M342.7 322c.2 2-3 3-4.5 3.2q0-1 .8-1.5c1.2-.3 2.5-2 3.7-1.7"/><path fill="#e3ecef" fill-opacity=".6" d="M272.2 64h1q-.4.6-1.3.8zm4 1-.2.9h-1q.3-1 1.3-1m110.9 228.9 1.2.2a2 2 0 0 1-1.6.6zm-8 5 1 .1q-.4.8-1.3.8zM73 305.2l1.2.1-1.3.8zm287.1 5.5 1.1.3q-.6.8-1.4.6zm-7.8 5.1 1 .2a2 2 0 0 1-1.3.8z"/><path fill="#cbd4dd" fill-opacity=".8" d="m332 329.3.1 1q-1.1-.3-1 1l-1.3-.5-1.1 1-1.4.4q-.1-.6.2-1.2c1.4-.6 2.8-2.7 4.5-1.7"/><path fill="#cbdaf2" fill-opacity=".9" d="m286.1 59.2.7-.3h1.3c-.5 1.6-3.6 2.9-5 3.2l.2-1 1-.8.8-.3z"/><path fill="#e2eaef" fill-opacity=".2" d="m291.3 56.2-1 .8q-.2-1 1-.8m-182 140-1.2.9q.1-1 1.2-.8m-12.4.7q0 1-1.2.8zm-4.6 10.4-1.2.8q.1-1 1.2-.8m339.8 7.4-.2 1.4h-.9q.3-1 1-1.4m-61.4 90.1q.2 1.2-1 1zm-97.7 201q-.1 1-1.3 1.2.4-.9 1.3-1.3"/><path fill="#828488" fill-opacity=".1" d="M112 471c-1.6.5-3 2.7-4.7 1.8a1 1 0 0 1 0-1c1.1-.3 4.6-3.5 4.7-.8"/><path fill="#d1d8dc" fill-opacity=".7" d="m69.7 202.7.6 1.1q-.7 2.3-1.9 4.5c-.6-1.9-.8-4.6 1.3-5.6"/><path fill="#cad3dc" fill-opacity=".7" d="m371.8 406 1.4-.1.7.2c.1 1.8-3.8 2.6-5 3.1l-.2-1q1.3-.3 2.3-1.4.8.2.8-.7"/><path fill="#a9c2f2" d="m206.4 188.2-.6-.8c.6-1 3-3.4 4-2q-1.6 1.5-3.4 2.8"/><path fill="#e0e6ea" fill-opacity=".3" d="m129 460-2.8 3h-1.4v-1.2a6 6 0 0 1 4.2-1.9"/><path fill="#c9d1da" d="M111 234.9h-.8q0-1 .7-2c.7 0 2.3-1.3 2.7-.4a4 4 0 0 1-2.6 2.3"/><path fill="#c3cdd7" fill-opacity=".9" d="m360 310.8-.3 1q-.7.3-1 1l-.7.2h-1a4 4 0 0 1 3-2.2m-3 2.2-.2 1-.7.4-1-.4q.6-1 1.8-1"/><path fill="#e4eaf1" fill-opacity=".1" d="m282.4 18.4-1.3.7q.1-1.1 1.3-.7m96.6 93.4q-.1 1-1.2.8zM118.6 388q.4 1-.8.6zm276.6 5.1v1l-1 .2q-.2-1.2 1-1.2m-259.9 82.2-1.2.8q0-1 1.2-.8"/><path fill="#575b5d" fill-opacity=".2" stroke="#575b5d" stroke-opacity=".2" stroke-width=".5" d="M346 234.3q-1.1 1.9-3.2 2.4 0-3 3.2-2.4Z"/><path fill="#9fbaf5" fill-opacity=".3" stroke="#9fbaf5" stroke-opacity=".3" stroke-width=".5" d="M310.7 157.4q.7.6 1.6.5l-.2.5q-1.7.6-3 1.6v-1.2q.5-1.2 1.6-1.4Z"/><path fill="#e5ecf0" fill-opacity=".3" d="M305.2 86.4q-.5.4-1.1.6 0-1.1 1-.6m-165 89.8-1.2.8q.3-1 1.2-.8M116 186q-.3 1-1.3.8zm281.3 206-.3 1h-1q.1-1 1.3-1M72 466.9h.8l.3 1.1q-1 0-1.1-1.1"/><path fill="#bec5c9" fill-opacity=".9" d="M102 500.8q2 .6 4 1.8l-2 .1q-1.7-.1-2-1.9"/><path fill="#d9f2f6" fill-opacity=".2" d="M144.1 483q-.3 1.4-1.9 2-.3-.9-1.3-1.3c1-.4 2.4-2 3.2-.8"/><path fill="#c6cdd1" fill-opacity=".7" d="M107.1 213.2q-.3.7-1 1 0-1 1-1M79.4 479.6q.9.9 1.2 2.1l-1 1.5c-1.1-.3-.4-2.7-.2-3.5"/><path fill="#c7d0d9" d="M370.2 466.8q-1.5.3-3.2.3c.1-1.2 2.4-2 3.5-2.2.7.7-.2 1.2-.3 1.9"/><path fill="#c3d5f3" d="M274.8 62v.7q-.7.4-1 1l-.6.2h-1q.7-1.5 2.6-2"/><path fill="#b3b9bd" fill-opacity=".9" d="m105.3 214 .8.2q-.4.6-1.1 1 0-.7.3-1.3m-1.6 1 1.3.1q-.6 1.2-1.8 1.8l-.3-1.3q.2-.5.8-.6"/><path fill="#bac4d0" fill-opacity=".9" d="m368 408.6.8.6c0 1.4-2 1.8-3.2 2q1-1.5 2.4-2.6"/><path fill="#9399ba" fill-opacity=".1" stroke="#9399ba" stroke-opacity=".1" stroke-width=".5" d="M377.7 402q.5 0 1 .3l-1 1.6-1.5-.2q0-1.4 1.5-1.8Z"/><path fill="#c9d3dc" fill-opacity=".8" d="M378.7 402.3a5 5 0 0 1 2-.3c.5 1.7-2 1.9-3 1.9z"/><path fill="#5e6d77" fill-opacity=".1" stroke="#5e6d77" stroke-opacity=".1" stroke-width=".5" d="M139 377.3a3 3 0 0 1-3 1.9q.5-2.5 3-2Z"/><path fill="#dae2e9" fill-opacity=".9" d="M175.8 352.8q.9 0 1.3 1c-8.5 5.9-18.6 10.6-26.7 16.8l-2.8.7c-1.7 2.3-2.1 2.5-5 3q-1 2.4-3.6 3-2.5-.6-3 1.9-.7.9-1.7 1.6-1-1.2-2.3-.4-3 1.6-5.6 3.6l-8.6 4.6q-3 2-6.1 3.5l-.6-.1q-.5-1.6 1-2.4 32-18 63.7-36.8"/><path fill="none" d="M94.7 339.2v.6c-1.1.4-1.5 2-3 1.5q.6-2.4 3-2"/><path fill="#e2eaef" fill-opacity=".9" stroke="#e2eaef" stroke-opacity=".9" stroke-width=".5" d="M94.7 339.8c.9 3 .9 7.9 1 11.2q-.8.3-.6 1.1a37 37 0 0 1-8.4 5.4c-1 .8-1.7 2.2-3.2 1a4 4 0 0 1-2.6 3q-1.3 1-2.5-.1-.3 2.1-2.4 2.5 0-.8-.8-.8v-11.4l3-1.2q6-4.5 13-8 .6-.4.6-1.2c1.4.6 1.8-1.1 2.9-1.5ZM358 459h-1.2q-.6-.4-1.2-.3l-3.6 1.6-10.3 6q-1 .6-1.5 1.7l-8.4-.2c1.5-1.9 11.2-6.7 13.9-8.6q14.2-8.4 28.7-16.3c.8.6 0 1-.4 1.5q-7.8 7.5-16 14.6Z"/><path fill="#777a81" fill-opacity=".3" stroke="#777a81" stroke-opacity=".3" stroke-width=".5" d="m275 473 3 .3-2.7 1.8q-1-1-.2-2Z"/><path fill="#a2a6ba" fill-opacity=".1" stroke="#a2a6ba" stroke-opacity=".1" stroke-width=".5" d="M382 333.6v1a4 4 0 0 1-3 1.5c0-1.8 1.7-2 3-2.5Z"/><path fill="#cdd6de" fill-opacity=".9" d="m327.3 332.2-.3 1q-1.2-.1-1.1 1h-2q.8-2.4 3.4-2"/><path fill="#d1d9e2" fill-opacity=".8" d="m335 326.7-.5 1.2-.8 1-1.7.4a4 4 0 0 1 3-2.6"/><path fill="#cad3dc" fill-opacity=".9" d="M338.2 325.2q-.8.8-1 2l-2.2-.5q1-2 3.2-1.6"/><path fill="#d1dae2" fill-opacity=".9" d="M365 308q0 .6-.3 1-.8.6-1.8.8h-.8q.6-2 3-1.7"/><path fill="#cfd8e1" fill-opacity=".9" d="m376 301-.4 1a3 3 0 0 1-1.6.8h-1q.8-1.8 3-1.9"/><path fill="#cdd6df" fill-opacity=".9" d="m387 293.9-.3.8-1 1-.7.4h-1a4 4 0 0 1 3.2-2.2"/><path fill="#ccd4d8" fill-opacity=".8" d="M79.7 483.2h1q1.8 0 2.4 1.8-2.3 0-3.4-1.8"/><path fill="#b0b6ba" d="m276.7 7.2 3.4-.2h.6l.3.9a6 6 0 0 1-4.3-.7"/><path fill="#878a8b" fill-opacity=".4" stroke="#878a8b" stroke-opacity=".4" stroke-width=".5" d="M326 246.4q-1.2 1.5-3 1.6.7-2.2 3-1.6Z"/><path fill="#e3ebf0" fill-opacity=".6" d="m435.3 232.9-.3.9-1.1-.1q.4-.8 1.4-.8m-64.2 71 1 .4q-.6.5-1.4.5zm-27 17 1 .4q-.4.9-1.4.8zM99.2 406l-.4 1.1-1-.2q.5-.9 1.4-.8"/><path fill="#7a7d7d" fill-opacity=".3" stroke="#7a7d7d" stroke-opacity=".3" stroke-width=".5" d="M352 230.2a3 3 0 0 1-3 1.8q.8-2.1 3-1.8Z"/><path fill="#d6e2f1" fill-opacity=".9" d="m282 220.4 1.2-.4.7-.1.1 1.4q-.8-.2-1 .5l-2.1.3q.5-1 1.2-1.7"/><path fill="#647ebb" fill-opacity=".2" stroke="#647ebb" stroke-opacity=".2" stroke-width=".5" d="M309.1 158.8v1.2c-1.3 0-1.6 1.5-2.9.8q.9-1.9 3-2Z"/><path fill="#606c7a" fill-opacity=".1" stroke="#606c7a" stroke-opacity=".1" stroke-width=".5" d="m287.7 215.7.3 1.4q-.7.5-1.7.7-1 .3-1.4-.7z"/><path fill="#838689" fill-opacity=".8" d="M72 465q1 .6 1 1.8h-1zm1 1.8q1 1 1 2.3-.7-.3-.8-1.2z"/><path fill="#e1ebf0" fill-opacity=".2" d="m245.3 5.3-1.1.8q0-1 1.1-.8m-85.2 158-1 .8q0-1 1-.8M104 193q-.1 1-1.2.8z"/><path fill="#e4ecef" fill-opacity=".4" d="m151.4 169-1.2 1q0-1.1 1.1-1M102 194.3q-.3.9-1.3.8zM76 412.1l1.2.2-1.4.8z"/><path fill="#e3e9ee" fill-opacity=".2" d="M359.7 311.7q.2 1.2-1 1 .3-.6 1-1M111.1 392l.6.1q-.2.9-1 1zm130 81.2 1-.5q0 1-1.1 1z"/><path fill="#75797c" fill-opacity=".8" d="M295.7 11.2c1-.2 3.6-.8 3.4 1q-1.9 0-3.4-1"/><path fill="#828a9f" fill-opacity=".2" stroke="#828a9f" stroke-opacity=".2" stroke-width=".5" d="m335 326.7 2.2.5q-.5 1.2-1.9 1.5l-.8-.8z"/><path fill="#dbeefa" fill-opacity=".1" d="m423 290.7.9.4q-.4 1.5-2 1.6a2 2 0 0 1 1-2"/><path fill="#afb5b8" fill-opacity=".7" stroke="#afb5b8" stroke-opacity=".7" stroke-width=".5" d="M436.7 473.6q.2 1.6-.4 2.8-.5-1.6.4-2.8Zm-.4 2.8q-.6.6-1.3.9.3-1.1 1.3-1Z"/><path fill="#969aa1" fill-opacity=".2" stroke="#969aa1" stroke-opacity=".2" stroke-width=".5" d="M106.3 287.3q.7-.4 1.7-.4-1 1-1.1 2.3l-.7-.4z"/><path fill="#cdd5de" fill-opacity=".8" d="m108 287 2.1-.3q-.6 2.5-3.2 2.5.3-1.2 1-2.2"/><path fill="#e3eaf0" fill-opacity=".5" d="m269.3 69-.3 1-1.1-.2q.2-1 1.4-.9M417 338l1.3.2-1.4 1zm-22.7 56.3-.3.7h-1q.4-.9 1.3-.7"/><path fill="#daf0f5" fill-opacity=".1" d="M406.2 172.8q-.6 1.3-2 2.1l-.1-1.1c0-1 1.4-1 2.1-1"/><path fill="#a9b1bc" fill-opacity=".9" d="M400.7 403q0 .6-.6.6l-1.1.4q.5-1 1.6-1m-1.7 1a1 1 0 0 1-.8.7q0-.7.8-.7"/><path fill="#d2dbe1" fill-opacity=".6" d="m399 404 1-.4c.1 2 1 2.6.1 4.4q-3 1-5.8 2.8l-17 10q-2-.2-.3-1.3 3.8-2.1 7.4-4.7 5.8-4.7 11.8-9.1l2-1q.6-.1.8-.7"/><path fill="#5d6472" fill-opacity=".4" stroke="#5d6472" stroke-opacity=".4" stroke-width=".5" d="m147.6 466.3.5 1-.2.5-1.7-.2a2 2 0 0 1 1.4-1.4Z"/><path fill="#535c70" fill-opacity=".4" stroke="#535c70" stroke-opacity=".4" stroke-width=".5" d="M342 152.9q0 1.2-.7 2.1l-.5-1.1z"/><path fill="#cdd7df" fill-opacity=".9" d="m362 309.9-.2.9-.7.3q-.6 0-1-.3.6-1 2-1"/><path fill="#d8e1e6" fill-opacity=".5" stroke="#d8e1e6" stroke-opacity=".5" stroke-width=".5" d="m112 209.8.2 1-1.4.4h-.8q.2-1.7 2-1.4Z"/><path fill="#96a2b4" fill-opacity=".4" stroke="#96a2b4" stroke-opacity=".4" stroke-width=".5" d="M155.9 462.2q-.6 1-1.6.5c-.2-1 1-.7 1.5-.5Z"/><path fill="#959a9c" fill-opacity=".8" d="M202.2 17.2h.8q-.3.7-1 .7zM335.8 241q0 .5-.6.7.2-.5.6-.7"/><path fill="#e1e9f0" fill-opacity=".1" d="M434.8 413.8q-.2.9-1.1.9zm-217.5 60.5-1.2.9q.3-1 1.2-.9"/><path fill="#d4dce4" fill-opacity=".8" d="m374.1 404.9 1.8-.2c.3 1.3-1.2 1.4-2 1.4z"/><path fill="#616566" fill-opacity=".6" d="M323 248q-.6 1.2-1.9.8.6-1 1.9-.8"/><path fill="#c7d1db" fill-opacity=".9" d="m376.3 403.7 1.4.2c.4 1.2-1 1.2-1.8.8z"/><path fill="#e0e9ec" fill-opacity=".3" stroke="#e0e9ec" stroke-opacity=".3" stroke-width=".5" d="m82.2 205 .5.1q0 .7-1 1zm26 6.9v1l-1.1.3q0-1.2 1.2-1.3Z"/><path fill="#98a1b4" fill-opacity=".2" stroke="#98a1b4" stroke-opacity=".2" stroke-width=".5" d="m376.3 403.7-.4 1-1.8.2q.7-1.2 2.2-1.2Z"/><path fill="#979c9f" fill-opacity=".9" d="m204.3 15.9.8.4h.8a2 2 0 0 1-1.8.6z"/><path fill="#5d6061" fill-opacity=".5" d="M160.8 473.3q-.7.9-1.9.7.5-1.3 1.9-.7"/><path fill="#737679" fill-opacity=".7" d="M173 34q0 1-1 .7.2-.7 1-.7m-1.7.9.6-.2q0 .9-.8 1.2z"/><path fill="#c2c8cd" fill-opacity=".9" d="M280.9 222.1c0 1-1.3.8-1.9.7q.8-.6 1.9-.7"/><path fill="#e5eaef" fill-opacity=".2" d="M130 178q-.2 1.1-1.4.7zm111.2 319q0 .4-.2.7l-1 .6q0-1.2 1.2-1.3"/><path fill="#777a7d" fill-opacity=".9" d="M70.9 201.7a2 2 0 0 1-.6 2.1l-.6-1z"/><path fill="#c1cee3" d="m322.2 79.8-2.5.5c.3-1.3 2-2 2.5-.5"/><path fill="#95a2b3" fill-opacity=".6" d="M366 344.1q-.8 1-2 .9.6-1 2-.9"/><path fill="#e4ecf1" fill-opacity=".6" d="m283.3 61.2-.3.9-1.2-.3q.4-.7 1.5-.6m114.8 225.6 1 .5q-.6.6-1.3.5z"/><path fill="#9aa3b4" fill-opacity=".3" stroke="#9aa3b4" stroke-opacity=".3" stroke-width=".5" d="M373.8 339.3q-.5 1-1.4.4c-.3-1 1-.6 1.4-.4Z"/><path fill="#98a5b4" fill-opacity=".1" stroke="#98a5b4" stroke-opacity=".1" stroke-width=".5" d="M379 336q-.4 1.4-1.6.8c-.2-.8 1.1-.9 1.6-.7Z"/><path fill="#c6d7f3" fill-opacity=".3" d="M258 74.2v1.1a1 1 0 0 1-1 .5l-.2-.9q.5-.5 1.1-.7"/><path fill="#8593a8" fill-opacity=".4" stroke="#8593a8" stroke-opacity=".4" stroke-width=".5" d="M323.9 334.2h2a2 2 0 0 1-1.8.7z"/><path fill="#4d5d79" fill-opacity=".3" d="M245 473h2c.3 1.2-2 1.2-2 0"/><path fill="#c5cfd9" fill-opacity=".9" d="m323.9 334.2.2.7-1.4.5-.5-.2q0-1.6 1.7-1"/><path fill="#d2dff1" d="m281.2 62 .6-.2 1.2.3c0 1-1.4 1-2.2 1z"/><path fill="#97a5b4" fill-opacity=".3" stroke="#97a5b4" stroke-opacity=".3" stroke-width=".5" d="m327.3 332.2 1.4-.3c.5 1-1 1.3-1.7 1.2z"/><path fill="#848a8e" fill-opacity=".2" stroke="#848a8e" stroke-opacity=".2" stroke-width=".5" d="M79.3 213.7q1.1 0 1.9.7a2 2 0 0 1-2 .3z"/><path fill="#97a2b4" fill-opacity=".2" stroke="#97a2b4" stroke-opacity=".2" stroke-width=".5" d="M332 329.3q1 0 1.7-.4 0 1.4-1.6 1.4z"/><path fill="#c3d5f3" fill-opacity=".9" d="M270.8 65v.8l-.7.3-1-.2q.5-1.1 1.7-1"/><path fill="#cfd4d9" fill-opacity=".3" stroke="#cfd4d9" stroke-opacity=".3" stroke-width=".5" d="M89.2 493h.6q.9 0 1.5.8c-.6.2-2.6.5-2.1-.8Z"/><path fill="#d4e1f1" d="m274.2 66 .7-.1h1.1q-.5 1.4-2 1.2z"/><path fill="#d0d9e1" fill-opacity=".9" d="m351 317-.2.8-.7.3h-1.2q.5-1.4 2-1.1"/><path fill="#e2e9f1" fill-opacity=".3" d="m123.3 187.3-1.3.7q.3-1.1 1.3-.7M362 309.9l.8-.1q0 1-1.1 1z"/><path fill="#ccdbf3" fill-opacity=".7" d="M266.8 68c.5 1.1-1 1.2-1.7 1q.5-1.2 1.7-1"/><path fill="#97a4b4" fill-opacity=".3" stroke="#97a4b4" stroke-opacity=".3" stroke-width=".5" d="M150.8 465.3c.1.8-1.2.7-1.7.7q.4-1.3 1.7-.7Z"/><path fill="#4c5c7b" fill-opacity=".4" d="m329.8 330.8 1.4.4-1 .8z"/><path fill="#797d80" d="m110 211.3.8-.1q0 .6-.7.7z"/><path fill="#cfddf3" fill-opacity=".7" d="M265.1 69q-.3.8-1.2.9.5-.7 1.2-1"/><path fill="#e6ecf2" fill-opacity=".2" d="M367.6 306.6q.4 1.2-.9 1.1.3-.6 1-1"/><path fill="#d3dbf3" fill-opacity=".3" d="M315.3 155.7q-.3 1-1.3 1.4 0-1.2 1.3-1.4"/><path fill="#676a6b" fill-opacity=".7" d="M438.4 311.8q0 .8-.5 1.3z"/><path fill="#d1dae1" d="m355.2 314-.2 1h-1.1q.3-1 1.3-1"/><path fill="#e3eaf0" fill-opacity=".7" d="m355.2 314 1 .4q-.6.4-1.2.5z"/><path fill="#d7e0e7" d="m352.2 316-.3.9h-1q.3-.8 1.3-1"/><path fill="#dee9f1" fill-opacity=".4" d="M263.9 69.9q.1 1.4-1.3 1.1.4-1 1.3-1.1"/><path fill="#e3ecf0" fill-opacity=".5" d="m376 301 1-.1q-.1 1-1.4 1z"/><path fill="#dbe6f1" fill-opacity=".8" d="M268.2 67q-.5.9-1.4 1 .3-1 1.4-1"/><path fill="#d3dce4" d="m344 321-.3 1.1h-1q.4-1 1.4-1.2"/><path fill="#d3dbe0" fill-opacity=".6" stroke="#d3dbe0" stroke-opacity=".6" stroke-width=".5" d="M155 67.1q-.4.9-1.4.7.6-.7 1.4-.7Z"/><path fill="#e3eaf0" fill-opacity=".5" stroke="#e3eaf0" stroke-opacity=".5" stroke-width=".5" d="M403.9 149.8v1h-1q.1-.9 1-1Z"/><path fill="#c0d2f5" fill-opacity=".5" d="M324.3 150.8q-.3 1-1.3 1.3 0-1.1 1.3-1.3"/><path fill="#e5e9f2" fill-opacity=".2" stroke="#e5e9f2" stroke-opacity=".2" stroke-width=".5" d="m94.2 295.9-.4 1-.7.2q.2-.9 1.1-1.2Z"/><path fill="#ccdaf1" fill-opacity=".4" d="M329.3 148a2 2 0 0 1-1.4 1.1q.3-1 1.4-1.1"/><path fill="#bcc0cf" fill-opacity=".2" stroke="#bcc0cf" stroke-opacity=".2" stroke-width=".5" d="m111.9 328 1.3-.2q-.5 1-1.4 1z"/><path fill="none" d="m334.5 328 .8.7-1.6.2z"/><path fill="#d5e1f2" d="m272.2 64-.3.8-1 .2q.3-1 1.3-1"/><path fill="#dfe8ec" fill-opacity=".5" stroke="#dfe8ec" stroke-opacity=".5" stroke-width=".5" d="m331.6 70.2 1.8-.2-.7.9q-.6 0-1-.7Z"/><path fill="#89a" fill-opacity=".1" stroke="#89a" stroke-opacity=".1" stroke-width=".5" d="M109.9 330.3q-.1.5-.6.8 0-.6.6-.8Z"/><path fill="#596f85" fill-opacity=".1" stroke="#596f85" stroke-opacity=".1" stroke-width=".5" d="M332.1 330.3q-.3.6-1 1-.1-1.3 1-1Z"/><path fill="#d6dede" fill-opacity=".1" stroke="#d6dede" stroke-opacity=".1" stroke-width=".5" d="m329.8 330.8.4 1.2-1.5-.1z"/><path fill="#e1edf3" fill-opacity=".2" d="M394.7 289.7q.2 1.3-1 1 .4-.6 1-1"/><path fill="#93979a" fill-opacity=".9" d="m108.3 211.9.8.3q-.4.6-1 .8z"/><path fill="#bbd0f3" fill-opacity=".7" d="M262.1 71.4q-.5.3-1.2.4.4-.6 1.2-.4"/><path fill="#6e7891" fill-opacity=".2" stroke="#6e7891" stroke-opacity=".2" stroke-width=".5" d="M327 333.1q-.3.9-1.1 1.1 0-1.1 1.1-1Z"/><path fill="#c4cbd0" d="m106.2 288.8.7.4q0 .7-.7 1z"/><path fill="#bdd1f6" fill-opacity=".5" d="M331.4 147q-.4.9-1.5 1 .4-1 1.5-1"/><path fill="#696c6e" fill-opacity=".6" d="m427.3 197.9.4 1.2-1-.2z"/><path fill="#9ca3a5" fill-opacity=".8" d="M93 180.2q-.4.7-1.2.8.3-.8 1.2-.8"/><path fill="#cddef2" fill-opacity=".3" d="M322.3 151.7a2 2 0 0 1-1.4 1.5q.3-1.2 1.4-1.5"/><path fill="#cad1d6" fill-opacity=".6" stroke="#cad1d6" stroke-opacity=".6" stroke-width=".5" d="m439 282.8-.3 1h-1q.6-.7 1.3-1Z"/><path fill="#646768" fill-opacity=".7" d="m345 179.2-.7 1q0-.7.6-1"/><path fill="#acb4b7" fill-opacity=".3" stroke="#acb4b7" stroke-opacity=".3" stroke-width=".5" d="m405.8 283.2.1 1-1-.7q.6 0 1-.4Z"/><path fill="none" d="m256.8 75 .3.8-1 .3q0-.8.7-1.2"/><path fill="#c6ccd2" fill-opacity=".3" stroke="#c6ccd2" stroke-opacity=".3" stroke-width=".5" d="M288.1 54h1q-.3 1-1.4.8z"/><path fill="#a4b1be" fill-opacity=".5" stroke="#a4b1be" stroke-opacity=".5" stroke-width=".5" d="M364 345q-.3.5-.8.9 0-.7.8-.9Z"/><path fill="#dceaf1" fill-opacity=".1" d="M320.2 153.2q-.5.7-1.1 1 0-1 1-1"/><path fill="#878e92" fill-opacity=".3" stroke="#878e92" stroke-opacity=".3" stroke-width=".5" d="M119.7 507a2 2 0 0 1 1.5.7q-1 0-1.5-.8Z"/><path fill="#a7adb0" fill-opacity=".9" d="M140 95.3a2 2 0 0 1-1 1q0-1 1-1"/><path fill="#a7adb0" fill-opacity=".3" stroke="#a7adb0" stroke-opacity=".3" stroke-width=".5" d="m170 36.4-.8.9q-.2-1 .8-1Z"/><path fill="#cfd4d9" fill-opacity=".2" stroke="#cfd4d9" stroke-opacity=".2" stroke-width=".5" d="m171.3 34.9-.2 1-1.1.5q0-1.4 1.3-1.5Z"/><path fill="#e1e7ed" fill-opacity=".3" stroke="#e1e7ed" stroke-opacity=".3" stroke-width=".5" d="m319.2 34.2 1.2-.1q-.6.8-1.7.8z"/><path fill="#6a7da4" d="M275.8 104q0 .6-.7.8.2-.6.7-.7"/><path fill="#6d7072" fill-opacity=".8" d="M82.8 175.8q0 .9-.8.9z"/><path fill="#ced7df" fill-opacity=".9" d="M108.3 273h.7q-.2.9-1.2 1.2z"/><path fill="#e3ecf0" fill-opacity=".7" d="m389.2 397.2-.3.8h-1.2q.4-1 1.5-.8"/><path fill="#e0e7ed" fill-opacity=".6" stroke="#e0e7ed" stroke-opacity=".6" stroke-width=".5" d="M294 21.1h1.3q-.6.7-1.7.9z"/><path fill="#e4ecef" fill-opacity=".5" d="m387.2 398-.2 1-1-.1q0-1 1.2-.9"/><path fill="#b3c9f2" fill-opacity=".6" d="M319 154.2q-.3.5-1.1.5.5-.7 1.2-.5"/><path fill="#6b6f70" fill-opacity=".7" d="M200.8 18.2q-.3.7-1 .7.3-.6 1-.7"/><path fill="#e2eaf1" fill-opacity=".6" d="m382.3 401.1-.2.8-1.4.1q.6-.9 1.6-.9"/><path fill="#d5dde6" fill-opacity=".6" stroke="#d5dde6" stroke-opacity=".6" stroke-width=".5" d="M110.3 272q-.4.7-1.3 1 .1-1.2 1.3-1Z"/><path fill="none" d="m340.8 153.9.5 1.1-1.4-.3z"/><path fill="#d5dff1" fill-opacity=".2" d="M334.2 145.2q-.5.6-1.1.8 0-1 1-.8"/><path fill="#bcc3c7" fill-opacity=".4" stroke="#bcc3c7" stroke-opacity=".4" stroke-width=".5" d="M129 116.3q-.4.7-1.3.6.4-.7 1.2-.6Z"/><path fill="#d0def2" d="m310.2 67.9 1 .4q-1 1.4-1-.4"/><path fill="#a7b9c1" fill-opacity=".1" stroke="#a7b9c1" stroke-opacity=".1" stroke-width=".5" d="m374.1 404.9-.2 1.2-.7-.2q0-1 1-1Z"/><path fill="#c5d5f4" fill-opacity=".4" d="M336.4 143.7q-.4 1-1.4 1.4.3-1.1 1.4-1.4"/><path fill="#54617e" fill-opacity=".3" d="M371.8 406q0 1-.8.7z"/><path fill="#cfd5db" fill-opacity=".4" stroke="#cfd5db" stroke-opacity=".4" stroke-width=".5" d="m217 17.3 1-.4q-.2.8-.8 1.4z"/><path fill="#68768f" fill-opacity=".5" d="m368.7 408.2.1 1-.8-.6z"/><path fill="#c2d4f4" fill-opacity=".4" d="M317.3 154.8q-.3 1-1.3 1.4.1-1.2 1.3-1.5"/><path fill="#76839b" fill-opacity=".5" d="M133.3 444q-.4.8-1.3 1.3 0-1.2 1.3-1.4"/><path fill="#6d7072" fill-opacity=".6" d="m79.2 448.3 1-.4-.4 1.2z"/><path fill="#7a859e" fill-opacity=".4" d="M125.3 449q-.4.8-1.3 1.2.1-1.1 1.3-1.2"/><path fill="#7b8081" fill-opacity=".7" d="M340.7 237.9q0 .6-.6 1 0-.7.6-1"/><path fill="#6a7181" fill-opacity=".4" stroke="#6a7181" stroke-opacity=".4" stroke-width=".5" d="m115.7 453.9 1.6.1q0 .6-.3 1-1-.1-1.3-1.1Z"/><path fill="#717376" fill-opacity=".4" stroke="#717376" stroke-opacity=".4" stroke-width=".5" d="m430.7 455.3-.4.8q-.1-.6.4-.8Z"/><path fill="#d7e0e7" d="M356.8 459.1h1.2q-.3.7-1 1z"/><path fill="#d5dce3" fill-opacity=".1" stroke="#d5dce3" stroke-opacity=".1" stroke-width=".5" d="m202.2 17.2-.2.7-1.2.3q.3-1 1.4-1Z"/><path fill="#dde5e9" fill-opacity=".6" stroke="#dde5e9" stroke-opacity=".6" stroke-width=".5" d="m110.2 235 .8-.2q-.2 1.3-1.3 1.3z"/><path fill="#e5ebee" fill-opacity=".3" d="m89.3 209.3-1.3.7q.3-1 1.3-.7"/><path fill="#b5ccf3" fill-opacity=".6" d="M338.4 142.9q-.4 1-1.4 1 .3-1 1.4-1"/><path fill="#778699" fill-opacity=".4" stroke="#778699" stroke-opacity=".4" stroke-width=".5" d="m289.7 465.2.2.7-1-.3z"/><path fill="#7c8082" d="m112 209.8 1 .4q-.2.6-.8.6z"/><path fill="#c5d1d1" fill-opacity=".1" stroke="#c5d1d1" stroke-opacity=".1" stroke-width=".5" d="m147.6 466.3 1.5-.3q-.3.9-1 1.3z"/><path fill="#6d6d6d" fill-opacity=".3" stroke="#6d6d6d" stroke-opacity=".3" stroke-width=".5" d="M353 229.1a2 2 0 0 1-1 1q0-.8 1-1Z"/><path fill="#d6e2f1" fill-opacity=".7" stroke="#d6e2f1" stroke-opacity=".7" stroke-width=".5" d="M275 223q-.3 1-1.3 1 .4-1 1.4-1Z"/><path fill="#577bcc" d="M284 221.3q-.4.6-1 .5.2-.6 1-.5"/><path fill="#c1c4ca" fill-opacity=".3" stroke="#c1c4ca" stroke-opacity=".3" stroke-width=".5" d="m363 473.2 1.3-.2q-.5 1-1.6 1z"/><path fill="#c8cfd2" fill-opacity=".6" stroke="#c8cfd2" stroke-opacity=".6" stroke-width=".5" d="m110 211.3.1.6-1 .3q-.1-1 .9-1Z"/><path fill="#e0e8ed" d="m80.6 481.7.1 1.5h-1z"/><path fill="#5c79ba" d="M339.9 162.2q0 .6-.7.6 0-.6.7-.6"/><path fill="#dae7f2" fill-opacity=".8" d="M285 219q-.2.9-1 .9.3-.7 1-.9"/><path fill="#707780" fill-opacity=".5" stroke="#707780" stroke-opacity=".5" stroke-width=".5" d="m339.7 141 1.3.2q-.3.6-1.1.7z"/><path fill="#ddeef4" fill-opacity=".2" d="M327 149.2q-.4.7-1 1 0-1 1-1"/><path fill="#e2eaef" stroke="#e2eaef" stroke-width=".5" d="M250.3 12.1q-.2.6-.6 1c-16 11.2-31.9 24-47.7 35.4q-.8.4-.8 1.4-2.1 0-3 1.7c.9 1 2.6-1 3-1.7l1.8-.5L262.6 15a6 6 0 0 0 2.3-1.8q6.8.6 13.3 2.5 0 .8-.6 1.2a944 944 0 0 0-24.7 16.4q-1.8 1.1.2 2c-2 1.5-3.2 1.2-5.3 1.8q-.6.5-.8 1.1c-38.1 3.6-64.5 23.2-80.2 57.9q-1.7-.3-3 1.1c-4 1.1-5.8 1.5-7.8 5.2l-7.2 4.5q0-1-1.1-1-9.2 5.3-18.8 10.3c.5-3.7 6.7-12.5 8-16.6a2 2 0 0 0 2.1 0c5.2-4 20.2-13 23.8-16.6 1.3-.6 2.8-.5 3.2-2.1q1 0 2.1-.4 2.2-1.6-.5-1.2-1 .4-1.6 1.6-2.4 0-3.2 2l-2 .3-10.2 6.6-10.6 5.4c1.1-4.6 6.3-12.5 8-17.5q.9 0 .6-.8 1.3 0 2.4-.7c9-7.2 21.8-15.7 29.9-23.1.7-.2 3.8-1 2.6-2.2q-1.9.3-2.6 2.2c-3.2.1-4.5 2.7-7 3.2Q164.6 62 155 67q.3-2.1 1.8-3.8a116 116 0 0 1 60.3-46l.1 1-9 7.5q-2.2.8-4 2.5c1 1 1.8-.6 2.5-1.1a387 387 0 0 0 20-11q.6-.4 1.1-1.2.9 0 1-.9 10.6-1.8 21.5-2ZM298 22.8c3.2.4 6.8 2.8 9.8 4q1 .3 1 1.4a2 2 0 0 0-1.4.5 84 84 0 0 1-7.4 4.8q-1 .6-1 1.8.1.4-.2.9c-4.6 1.8-7.9 2.2-11.8 5.7-4.3.4-10-1.6-14.5-2q-.9 0-1.3-.8c7.8-3.7 18-10.3 26-14.7q.8-.6.8-1.6Zm26 14a66 66 0 0 1 8.2 6.1c-2.5 2.3-17.1 10-17.3 12.5Q309.4 52 304 49c2.7-2.3 19-10.4 19.9-12.2ZM247.3 48c-10.5 7.1-25.6 15.2-37 21.7q-.5.3-1-.2l19-17.5q9.2-3.7 19-4Zm17.9 0q5 0 9.9 1.7L262 57q.3-3.4.3-7a5 5 0 0 0 2.7-2Zm72 0c2.3 0 6.2 5.3 8.2 6.7-2.2.7-17 9.7-17.3 11.5q-4.5-4-9.2-7.9c2.4-.2 17.5-8.5 18.3-10.3Zm-51 5.2q1 .3 2 .9l-.4.7-11.2 7.3-1.8.6v-.8zm-36.4 6.7a7 7 0 0 0 2.2 3q-10.8 6.5-21.6 12.7-2.2.3-.4-1.2 10-7.1 19.8-14.5ZM349 61l1-.3c2.1.9 4.8 5.3 6.4 7-3 0-15 8.6-18.2 10.6a23 23 0 0 1-5.5-7.4l.7-1zm7.7 9.8 1.3-.2c1.8 1.2 5 5.5 5 7.7q-.9-.4-1.8.2-7 4.8-14.3 9-.6 1.2-1.8 1.8c-2-.6-4.1-6.5-5.5-8.3q8.7-5 17.1-10.2Zm7.1 8.5q1 0 1.5 1 2.3 3.6 4 7.4c-3-.2-16.8 10.2-20.5 12q-.3.1-.5-.4c-.4-2.8-3.7-7-3-9.5q1 .1 1.7-.4 7.8-4.8 15.8-9 .8-.3 1-1ZM198.3 86l1.8.2q-.3 1-1 1.5l-25.2 18.1a20 20 0 0 1 2.4-6.8c2.7-1.4 21.7-11.6 22-13Zm106.9.5.6-.6q1.3.3 2.4 1c-.8 1.5-30.6 18.7-33.5 19.4l.4-1.4q.6-.2.7-.8 7.5-4.6 14.6-9.3c1.5-2 1.3-1.5 4-2 .8-2 1.8-1.6 3.5-2.3q.9-.4 1.3-1.5.5-1 1.8-1 1.6.1 3-.9.7-.2 1.2-.6Zm22.2.4c1.5 1.7 3.5 4 3.6 6.4q-27.3 15.6-54.4 31.7a4 4 0 0 1-1.7-1.8c14.1-9 31-21.5 45.2-31.3 2-1.7 6.8-2 7.3-5Zm44.6 7c1.6.2 4 6.7 4 8.3-5.9 2.7-17.8 9.8-22.8 13.9-1.4-2.9-1.7-7-2.5-10.2 1.5.2 20.2-10.4 21.3-12ZM169 127q0-3.6 1-7 17.2-9.6 34-19.7 1-.5 1.8.1l-2 2Q186.2 114.5 169 127Zm213-9.3q1.7 4.5 2.2 9.3l-1.9.8q-13.5 8.3-27 17l-1.4.5.4-12.5c2.8.5 23.8-12.8 27.8-15.1ZM158.9 128q-1 8-.5 16-1.4-.6-2.6.2a5125 5125 0 0 1-62.7 36c.9-4.2 6.3-12 8-16.4l1.2-.1 51.2-32.8q.3-.4.2-.9c1.2-2.4 3-1.7 5.2-2Zm14.5 36.2q-1.2-2.5-1.5-5.3c16.3-9.1 33.4-18.6 49.2-28.6q1-.7 1.8.3c-.1 1.2-2 1-2.8 1.9-15 10-31.6 22.3-46.7 31.7ZM394 137.6c2.4 1.5 4.3 5.2 6.4 7.2q-1.2.2-2.3.8l-53 33.6q3-8.7 6.2-17.2c1.6-3 1.7-1 3.8-1.5l7.4-4.4q15.7-9 31.5-18.5ZM233.7 140l.4 2.2-54 37.1q-2.4-2.8-3.3-6.3zm-75.5 5.6a255 255 0 0 0 2 15.6l-.9.2q-1 0-1.7.5-1.8 1.2-3.8 2l-1.1 1-5 2.8-.8.5q-.7.3-1.2.8l-5 2.7-.7.6-1.3.6-3.7 2.1-1.3.7-.7.5q-.7.3-1.2.8l-3.2 1.7-1 .4-.9.9-5 2.7-.7.6q-.8 0-1.3.6l-5 2.9-.8.4q-.6.2-1.2.8a86 86 0 0 0-8.8 5q-.6.2-1.2.7l-.7.5-1.3.8-5 2.7-.7.5q-.7.3-1.2.8a35 35 0 0 0-5 2.8l-.8.4q-.7.2-1.3.7l-4 2.2-.5-.2q2.5-7.7 5.8-15.2 1 .6 2 0 34-22.2 68.2-44.1Zm244.6 5.1h1.2c1.8 1.1 3.8 5.4 5.2 7.2q-1.2 0-2.3.6l-8 5c-1.1 1.6-3.3 2-5 3a55 55 0 0 0-6.3 4.4q-2.4.2-2.7 2.4a2 2 0 0 0-2.1 0q-2 1-3.5 2.5-6.5 3.4-12.7 7.4-1 .6-1.7 1.7c-1.5 0-4.5 1.4-4.9 3a2 2 0 0 0-2 1q-2.2.3-3 2.2-1.4-.3-2 .9-2.3-.1-3 2-1.2-.3-2 .7c.6.8 1.8.1 2-.7q2-.3 3-2 1.3.2 2-1 2-.1 3-2 1.5.3 2-1c1.6-.4 4.6-1.3 5-3.1q1 .1 2-.4l19-11c7-4.9 14.8-8.5 22.2-12.9a3 3 0 0 0 1.2-2q2.9 4 5 8.3-.1.7.5 1c1.1 2.7 4 6.2 4 9.3q-1.4-.4-1.9.8-2.1 0-3 2-1.4-.2-2 1-2.1 0-3 2-1.5-.3-2 1-1.2-.2-1.8.7c.6.9 1.8.1 1.8-.7q1.5.3 2-1 2-.4 3-2 1.4.1 2-1 2.1 0 3-2c.6 0 2 .1 1.8-.8q.9.3 1.2 1.2 1.7 3.7 3.2 7.5c-4.1 1-24.4 14.9-29.9 17.8q-1 .5-1.1 1.4c-16.2-.2-28.2 14-39.2 24q-1 .2-1 1-2.2-.1-3 1.8-1 1.9-3 2.4-3.2-.7-3.2 2.4a4 4 0 0 1-2 1.2q-.6.3-.7 1-.6 0-1.2.4-1.5-.4-3-.1a43 43 0 0 1-7 4.4q-.7.4-.7 1.2-.9 1.2-2.2 1.6-2.2-.6-3 1.6-1.3-.2-1.9.8a176 176 0 0 1-77.4 12.9c-28.7-3.3-50.4-9-75.1-25q-.4-.3-.7-1l6.2-4.2q1-.8.3-2l2.4-1.4q0 .6.7.7.6-.4.5-1.2 8.8-5.2 17.4-10.7C243 248 314.8 238 342 184.7q1.2.8 2.4 0zm-242.7 12.6 1-.6a98 98 0 0 0 16.2 36.7l-1 .6c.2-1.8-1.6-1.7-2.6-.9-4.3 3-26.7 14.8-28.7 17.2-10.1-7-20-11-32-6.1q0-1 1-1.7l17.4-10.7q1-.7 1.5-1.8a7 7 0 0 0 5-3 7 7 0 0 0 5.1-3c.7 0 2 .1 2-1q1.5-1.3 0 0-1.4-.3-2 1c-1.3-.2-4.7 1.7-5 3a7 7 0 0 0-5 3q-1 0-2 .4l-9 5.3c-15 9-30.7 17.5-45.9 26.6q1.2-6.9 3-13.6a2 2 0 0 0 2.1-.3l.6-.7q.8-.2 1.4-.6 1-.7 2-1l1.2-1q.7-.7 1.6-1l1.2-.8q.9-.7 1.9-1.2l1.2-.8L94 206l1.2-.8q2-1 3.4-2.6 1 0 1.7-.6.8-.7 1.8-1l1.1-1 3-1.9 3-2 6.5-4.4q.9-.2 1.5-.8l2-1 1-1 1.7-1 1.3-.7q.8-.7 1.8-1.2l1.2-.8q2-1 3.4-2.6 1-.1 1.7-.7l1.4-1.3q.9 0 1.6-.6t1.6-1l1.2-.9 1.8-1.2 1.2-.8 3.1-2q1.9-1 3.5-2.5.8 0 1.5-.7 1-.7 2-1l1-1 3-1.8 1.8-1.1 1.2-.8 1.8-1.2zm246.1 9.4c-.6.2-2.1.1-2.1 1.1l-1.4.2c-1.5 1.3-6 3.1-6.7 5a6 6 0 0 0-5 3q-1.3-.2-2 1-2.2 0-3 2-1.5-.2-2 1-2.4-.1-3 2-1.4-.2-2 1-1.2 0-2.1.4-2 1.6.4 1.2 1.3-.4 1.6-1.6 1.5.2 2.1-1 2-.2 3-2a2 2 0 0 0 2-1c1-.4 3-.5 3-2q1.5.3 2-1a7 7 0 0 0 5-3 3 3 0 0 0 2-.4q2.6-1.4 5-3.3l1.2-.4q1.5-.7 2-2.2c1.4.6 4.3-1 4.8-2.3-.7-1.4-5.1 1.4-4.8 2.3Zm-324.2 4q-1.2 3.5-3.1 6.7-.3.5-.8.6c-1-3.8.8-5.6 3.9-7.3Zm132.3 37.7q-2.7-1.5-5.2-3.4.4-.8 1.2-1.2c17.4-10.1 35.3-20 52.4-30.5q.7-.2 1.1.2-2 1.4-3.8 3.2zm20.5 8.3c-2.5-.8-8-2-9.8-3.7l57-33.7c1.5-1 2.6.4 1.2 1.3a838 838 0 0 0-48.4 36.1ZM201 204.9q-1.5-.3-2.1-1.8 8.6-4.6 17-9.6 2.3-1.7 5-3.2a2 2 0 0 1 1.8.2zm225.6-6 1 .2c.9 3.1 2.6 6.8 2.4 10.1q-9.9 5.7-19.5 12l-3.5-9 18.1-10.5q1.5-1 1.5-2.8ZM395 216.7q-73.8 42.3-147.3 84.8-1-.5-.8-1.5l59-39.5c22.7-9.5 42-23.3 62.4-36.8 8.3-2.3 18.3-13.5 26.6-7Zm-292.2-1 .3 1.2c-2.3 5-.3 9.8-4.4 14.3q-1.5-2.1-3 .1a25 25 0 0 0-6.2 3.5q-7.2 4.5-14.6 8.5l-.7 1c-1.2-3.1 1-8 .7-11.5q14-8.5 27.9-17.2Zm328.1.3 1 .1c1.2 2 1.6 6.7 2 9.2-1.4-.1-15.9 9.3-18.4 10.7h-.7a37 37 0 0 1-2-10c3.4-.8 14.2-8 18.1-10Zm-30.9 8q1.2 2 .9 4.4a77 77 0 0 0-13.6 7.6q-25.2 15-50.6 29.6-1-.4-1-1.3 32-20.4 64.3-40.3Zm-253 8.4c2-.8 4.6 2.3 6.2 3.3q-9 4.8-17.8 10c-1.6.7-1.6-.6-.5-1.4zm256.6 4.5q.8 2.6.3 5.1-1 0-1.9.3-23.4 13.4-46.8 27.2l-1.8-.3q.3-.9 1-1.3l48.2-30q.6-.3 1-1ZM161 241q2.2 1 4.3 2.4-9.3 5.5-18.8 10.7-.3-1 .5-1.6 6.8-6 14-11.5Zm14 8 2.2 1.3a553 553 0 0 1-18.9 11.3q-2.1.2-.4-1.2 7.3-5.1 14.1-10.8 1.4-.8 3-.6Zm-67.6 10q-.8-2.6.7-5l6.6-3.7q.6-.3 1.1.1-4 4.5-8.4 8.7ZM97 250.8q-1.4 12.8-2 25.4c-2.3-.3-18.6 10.4-22 11.9h-.8q-.5-5 0-10h.8q1.5-.6 2-2c2 .2 4-1.3 5-3a2 2 0 0 0 2-1q2 0 3-2 1.4 0 2-1 2.1-.2 3-2c.6.2 2.8-.3 1.6-1q-1.2 0-1.5 1-2.3 0-3 2-1.5-.2-2 1a3 3 0 0 0-3.2 2q-1.4-.2-2 1-3 .5-5 3-1.2-.1-2 .8l-.8.2v-11c2.1.4 21.6-13.4 25-15.3Zm308 .2c0 2 .7 4.3-.3 6l-85.2 49c-1.8 1.4-2 2.2-4.4 2.1q0-.9 1-1.5zm-219 4.7c2-1.1 8 3 10 3.7-6 3.5-40.3 24.7-44.1 24.9 8.8-9 24-20 34-28.6Zm33.8 11 1.3.6a17 17 0 0 1-4.4 3.1l-10.7 6.1-2 .6q.3-.8 1-1.4l11.3-7.9a9 9 0 0 1 3.5-1Zm186 .1v5.3q-1 0-1.8.5-35.5 20.4-71 41.1-1 .4-2.1.5.6-1.7 2.4-2.4l70-43.9q1.2-.6 2.5-1Zm-172 4c2.4-1.6 7.6-.2 10.4 0l-1.3 1.6-51.3 29.8q-1.2.7-2.7 1c.5-1.8 40.2-28.4 45-32.4Zm39.4-.8-4.1 2.8c-15.8 9.3-32.7 18.3-48 28q-1 .3-2.2.3.3-.9 1-1.4 21.3-13.8 42.2-28c3-2 7.6-1.6 11-1.7Zm165.1 1c1 1 .5 8.5.6 10.3q-7.8 4.8-16 9.5a2 2 0 0 0-1 2l-3.6 2q-.4-6.5-.3-12.8c2.3.5 17.4-9.3 20.3-11ZM94.1 282.6q.3 5.7 0 11.6c-2.5 0-16.9 9.2-20 11.1H73c-1-2.1-.7-7.2-.8-9.6 6.2-2.8 16.5-10.8 22-13.1Zm12.2 26.4a48 48 0 0 1 0-7.3l27-16c.6-.2 2-1.4 2.4-.4q-13.4 11.3-27.3 22.5-1 .8-2.1 1.2Zm-13.2-12 .7-.2q.5 5.7.3 11.4c-2.3-.3-18.1 9.8-20.8 11.8a103 103 0 0 1-.3-11.4c2.3.2 16.8-10.1 20-11.6Zm1 12.6v11.6c-2-.1-17.1 9.4-20 11l-.3-10.4q10-6.2 20.3-12.2Zm343.7 5c1.2 2.7 0 8.5.2 11.5-2-.2-17.1 10.3-19.8 12l-1.3-.1a72 72 0 0 1 .4-11.3l.6.1c1.8-.7 4.4-1.7 5-3.6l1.5-.3q6.1-3.8 12.6-7.2zm-32.8 7q0 2.1-.3 4.3-1 0-1.6.6c-27 15.7-54.5 30.8-81 47q-1.1.4-2.2.4.8-1.6 2.4-2.4l40.9-25.7q.5-.4.8-.9 1.2 0 2-.9c2.1-1.7 5-2 6.4-4.4q1 .6 1.4-.4a6 6 0 0 0 3.6-2.5q1.2.6 1.6-.7a4 4 0 0 0 3-1.5q11.6-6.2 23-13ZM94.3 327c1 3.3.8 8.6.4 12.1q-2.4-.3-3 2c-1.2-.8-2.5.9-3.8 1.2a205 205 0 0 1-12 6.8l-.7 1q-.6-5.5-.3-11.4c2.2.3 16.6-10 19.4-11.7Zm343.5 3.7V342L416 356.2q0-6.2.3-12.5c4.7-2.4 18.6-9.7 21.5-13Zm-33.9 5.5a4 4 0 0 1-.3 3.7 818 818 0 0 0-30.5 17.7l-2 .4q0-1 .9-1.5 16-10 32-20.3ZM144 340c-1.8 3-28.5 19.5-33.3 23.3l-2 .8q-.4-2.7 1-4.9l32.3-18.7q1-.4 2-.5Zm23 2a2 2 0 0 1-1 1.5q-27.6 18-55 36.3c-1 .6-1.3-1-1.3-1.8q-.5-1.6 0-3.1 27.2-16.2 54.6-32 1.4-.7 2.7-.8Zm270.9 7.9q0 5.6.4 11.2c-3.3.5-20 12.7-24.2 15.2q.7-6.7 1-13.5c4.4-1.8 17.7-10 22.8-13Zm-34.6 1.2q.8 3.6-.6 7L343 392.5q-1 .5-2 .6a2 2 0 0 1 1-1.6q30.6-20.4 61.3-40.5Zm34.8 17.7V380a121 121 0 0 0-24.9 16.2l.5-14.2c3.5-.4 20-11.1 24.4-13.3ZM174 369.9c0 1.2-2.2 2-3 2.7L111.8 409c0-1.2-.5-3.9 1.1-4.5l57.2-32.8q1.5-1.8 3.9-1.8Zm19.3 3q.4 0 .7.2-.3.8-1 1.2l-78 49.3-1.9.7-.1-1.2c0-1.4-.7-4 .9-4.7q39.6-23 79.4-45.5Zm245 11.1-.3 11.2c-2 .2-22.4 14.6-25.6 17l.7-14.4c2.5 0 21.6-11.8 25.2-13.8Zm-340.4 4q.7 6 1 12a173 173 0 0 0-21.6 12.3l-1.2-.2c-.4-2.5-.9-6.7-.2-9l.3-.9 1-.2q3.8-2.3 7.4-4.9c1.2-.7 4.4-1.4 4.3-3.2.9-1.6 7.1-4.4 9-5.8Zm89.2 5c.2 1.3-6.3 4.2-7.3 5.4L114 439.2q-.6-2.7.4-5.1l60.6-34.7c3-1.7 9-6.3 12-6.5Zm53 .6q1 0 1.2 1.2-51.8 33.8-103.7 67.2-3 2.4-6.5 3-2.7-.5-4.8-2l2.8-3c1.4-.3 4.6-1.5 5-3.2 1.4 0 4.5-1.5 5-3 1.6.6 2.1-.7 3-1.6 3.2-.1 8.7-4.8 11.6-6.3.7-1.1-.7-1.2-1.5-1.1q.4-.6 1.2-1zm197.8 7.3q-.6 6-.5 12-1.4.1-2.5.9l-1.1.9-21.5 15.4v-15.2c3 0 21.7-11.8 25.6-14Zm-340 5.9 1 .2q1 5 1 10.2-11.5 6.3-22.9 13.1-.9-5.2-.9-10.6c1.6.6 19-11.4 21.7-13ZM245 410q.7.7 1.7 1-40.5 26-81 52.3-2.9 1.5-4.7 4.2c-2.7 1.1-10 .3-13.1.2l.2-.5q.7-.4 1-1.3c.5 0 1.8 0 1.7-.7l3.5-2.6q1 .4 1.6-.5c29.2-18 59.5-34.7 89.1-52.1Zm-27 54.5a84 84 0 0 1-15.1 1.2l86-50.3a2 2 0 0 1 2 0c0 1.2-3.9 2.2-4.6 3.2zm218.2-43q-.2 6.4-1.2 12.6c-1.7 0-22 15.8-25.1 18 .8-5.8 2.2-11.4 2.3-17.4 3-.5 19.5-11.4 24-13.1ZM294.1 431c-.2 1.9-2.9 2.3-4.2 3.2l-46 31c-2.2 1.9-6.4.1-9-.4l57-33.4zm25.1.9q0 .7-.6 1l-44.7 31.4c-2.2 1.4-7.5.7-10.1.3a841 841 0 0 1 55.4-32.7Zm79.6 1q.4 3.2-1 6-5.1 3-10.1 6.3l-1.3.5q-2 0-.5-1.3 6.6-5.7 12.9-11.5ZM228.2 438q-.3 1-1 1.5c-14 7.9-27 17.2-40.7 25.6l-1.5 1.4a22 22 0 0 1-9 1.1l50-29.2zm70.8 28c-2.5.8-6.5 0-9.1-.1l-.2-.7 2.1-.8q20-12.1 40.2-23.9 1-.6 2 0c-.1 1.3-2.7 1.6-3.5 2.5zm134.9-24.2q-1.4 6.8-3.2 13.5-.5.2-.4.8c-6.4 28-24.4 44.5-53.5 46.7 1.5-3.7 5.8-5 8-8.3l6.8-4.9q-.2-.5-.8-.2-1.4 1.1-3.3 1.7l-18.2 10.5q-1 .5-1 1.5-5.9.7-11.8.7a3 3 0 0 1-2.6-1l-.2-1c1.7-2.7 6.6-5.6 9.2-7.6l1.9-2.1c.7-.2 4-1 2.8-2.1q-2 .3-2.8 2c-2.8.6-14.3 8-17.7 9.7q-.6.7-1 1.5c-4-.4-10.5.1-14.4-1 3.7-5.8 32.1-24 36-29.2 15.4 0 34.6 1.1 40.2-17.1q1.1 0 .8-1 1.4.6 2.6-.2 11.2-6.6 22.6-12.9Zm-7.2 16.6c1-.2 2.4-.5 2.4-1.7-1.1-.7-2 1-2.4 1.7ZM357 460c.1 1-4.9 4.9-5.6 6q-.7.8-1.2 1.9a13 13 0 0 1-4.2 0l.3-.9 8.7-6.4q.9-.6 2-.6Zm-242.8 9.2q6 3 12.9 4-12 6.5-23.8 13.4-.9.4-1.3 1.5c-2.5-.3-5.9-4.3-7.3-6.3l4.3-3.2q3.7-1.8 7-4 1-.8 1.3-1.8c1.8 1 3-1.3 4.7-1.8q1.3-.6 2.2-1.8Zm68 3-.5.8-45.8 26.4q-1.1.7-.9 2-7.2-1-14.1-3 .4-1.5 2.2-1.7 6-3.6 11.6-7.5 3.8-2 7.5-4.3 1.5-.5 1.9-2 1.6.1 2.8-1.1 5.7-3 11.1-6.5.7-.4 1-1.3 1 .2 1.8-.7 10.6-1.2 21.3-1.2Zm27 .7q0 .6-.6.9l-48 27.4q-1 .5-1.5 1.6c-3.5 0-11.5.6-14.4-.9q.8-1.6 2.3-2.6l39-24.7q.9-.6.9-1.6c7.8-2 14.5-.4 22.3-.1Zm8.7.1a292 292 0 0 1 23.1.2v.5q-22.3 12.4-44.3 25.5a1 1 0 0 0-.4.8q-10.2.5-20.3 1.9a17 17 0 0 1 3.4-3l38-24.6q.5-.5.5-1.3Zm32-.3q12 .4 24.1.4-.2.5-.7.8l-39.4 22.6q-1 .6-.8 1.8-10.5 0-21.2.5 1.8-1.7 4.2-2.3l33.6-22.4q.5-.7.2-1.4Zm28 .6h20.5q.9-.1 1.5.5L260 496.6a2 2 0 0 0-.7 1.5c-4.6 0-14.3.4-18.3-.4l.2-.7c2.6-.2 29.7-19 34-22q1.5-.6 2.7-1.7Zm51.2 0c-4 3-34.3 20-41.3 24q-1 .8-.7 2l-19.1-.5q18.6-12.4 37.1-25.1zm34 0-.4.6q-22.5 12.7-44.7 25.7-.7.5-.8 1.4-8.1.4-16.2-1l.3-.7 32.9-23.6q.9-.9.7-2 14-.6 28.1-.5ZM271 507h-4.4q1.5-1.6 3.7-1 .6.4.7 1Z"/><path fill="#a0a9ae" fill-opacity=".1" d="M406.2 172.8c-.3-1 4.1-3.8 4.8-2.5-.5 1.4-3.4 3-4.8 2.4"/><path fill="#e4eaf1" fill-opacity=".3" d="M82 272a2 2 0 0 1-2 1q.5-1.2 2-1"/><path fill="#e2ecf0" fill-opacity=".3" d="M360 188q-.5 1.3-2 1a2 2 0 0 1 2-1"/><path fill="#e2eaf0" fill-opacity=".3" d="M145 189q1.5-1.2 0 0"/><path fill="#e4ecf1" fill-opacity=".2" d="M391 182q-.5 1.3-2 1 .7-1.2 2-1"/><path fill="#e2ecef" fill-opacity=".3" d="M396 179a7 7 0 0 1-5 3 6 6 0 0 1 5-3"/><path fill="#e3ebf0" fill-opacity=".4" d="M133 176.2q-.3.8-1.2.8.4-.6 1.2-.8m279 4.9q-1 1.6-3 1.8.9-2 3-1.8M90 267a4 4 0 0 1-3 2q.8-2.3 3-2m259 51h1q-.2 1-1.4 1zM140 452l2 .2c-.9.9-1.4 2.2-3 1.7q.3-1 1-2m42 20.1 1.3-.1q-.6 1-1.7 1zm84.6 35q2.3-.2 4.4-.1c0 1.5-4.1 1.4-4.4 0"/><path fill="#e4eaf0" fill-opacity=".3" d="M153.8 164q0 1-1.1 1zm-26.2 15q.1 1-.9 1zM415 236h.7q0 .9-.7 1zm-33 61.6q0 1.2-1 1.4.4-.8 1-1.4"/><path fill="#e3ebf1" fill-opacity=".3" d="m105.3 157 1 .2q-.6.9-1.7.8zm-2 43-1 1q0-1 1-1M85 270a4 4 0 0 1-3 2 3 3 0 0 1 3-2m316 15.8q0 1.2-1.3 1 .6-.6 1.3-1m-28 17h1q-.2 1.1-1.4 1.1zm-27 17h1q0 1.2-1.3 1.2z"/><path fill="#e3eaf0" stroke="#e3eaf0" stroke-width=".5" d="M376 102c1.5.7 3.6 8.3 4.2 10l-1.2-.2-1.2.8c-6.8 4.8-17.8 10.6-23.7 15.7l-.9-12.3c5-4.1 17-11.2 22.7-14Zm48.3 87.7c1.2 1 2.6 6.5 3 8.2l-.6 1q0 1.8-1.5 2.8l-18 10.4c-1.5 0-4-3.8-5.6-4.4q-2.4-1-5-1.7.3-.6 1-.9 13.6-7.2 26.7-15.4Zm-286.4 35 1.4.5q-.3 1.4-1.6 2c-4.7 2.8-10 5.3-14.4 8.5q-.7.4-1-.2l4.7-4.8a3 3 0 0 0 2-.4q4.3-3 8.9-5.6Z"/><path fill="#e3eaf0" fill-opacity=".4" d="m267.2 70.1-1.4.8q.3-1 1.4-.8m-132.8 110q-.7.6-1.6.6.6-.7 1.6-.6M95 198.2q-.3.9-1.2.8.5-.6 1.2-.8m270 109.9 1.2-.2q-.4 1-1.5 1.1z"/><path fill="#e3ebef" fill-opacity=".3" d="m279.2 63-1 1.1q0-1 1-1.1m-142 115.2-1.2.8q.3-1 1.2-.8m248.8 6.9a2 2 0 0 1-2 1q.5-1.5 2-1M134 456.8c-.4 1.7-3.6 3-5 3.1.2-1.5 3.6-3.3 5-3"/><path fill="#e3eaf1" fill-opacity=".3" d="M350 59.6v1.1l-1 .3q.3-.9 1-1.4m-75.3 3q.3 1.4-1 1.2zM135 175q-.3 1.1-1.3.7zm283.8 2.2c.2 1-1.2.9-1.7.8q.5-1.2 1.7-.8m-312.6 21-1.2.8q.2-1 1.2-.8M390 292.8q0 1.2-1.1 1zm-25.1 199.3a4 4 0 0 1 2.8-2.1c1.1 1.2-2.1 2-2.8 2"/><path fill="#e3ebf0" fill-opacity=".5" d="m288.3 58-.2 1-1.3-.1q.5-.9 1.5-.9M166 81q.6-1.2 1.6-1.6 2.7-.5.5 1.2-1 .4-2.1.4m241 103c0 .8-1.2 1.6-1.8.7q.6-.9 1.8-.7m-28 5q-.5 1.2-1.7 1.6-2.5.5-.4-1.2zm-29 5c-.2.8-1.4 1.5-2 .7q.8-1 2-.7"/><path fill="#678de2" d="M265 48q-.9 1.5-2.7 2.2-.5-3.4 2.8-2.2"/><path fill="#e4eaef" fill-opacity=".2" d="m204.3 15.9-.2 1q-.6 0-1.1.3.1-1.2 1.3-1.3m66.5 49h1q.3 1.2-1 .9zM125 134.2c-.4 1.6-5.3 3.7-6.7 4.9l-.3-1.4c1.7-.8 5.1-3.9 7-3.5m32.4 31.2-1.2.8q.2-1 1.2-.8M142 171q0 1.1-1.2.8zM75 276q-.5 1.5-1.9 2l-.2-1.1q.9-1 2.1-.9m322.9 12q0 1-1 .8.3-.6 1-.9M390.3 396l-.2 1-1 .1q0-1.2 1.2-1.1m-58.1 109.7 1 1q-1 0-1-1"/><path fill="#e2ebf0" fill-opacity=".3" d="M280.7 7q1 0 1.4 1.2l-1.1-.3zM154.2 167.1l-1.2.8q.3-1 1.2-.8M389.1 183c-.2 1.5-2 1.6-3.1 2q.8-2 3-2m-24.2 1.9c-.3 1.8-3.3 2.7-4.9 3 .4-1.6 3.4-3 5-3M109 190q0 1.1-1.2.7zm-36.7 98h.8q-.3.8-1 1.3zM354 315h1q0 1-1.2 1z"/><path fill="#e3ebf0" fill-opacity=".3" d="m280.1 7-3.4.2c.3-1.6 3.2-1.9 3.4-.2M166 81c-.4 1.6-2 1.5-3.2 2q.8-2 3.2-2m-45.6 108-1.1 1q0-1 1-1"/><path fill="#e3ecf1" fill-opacity=".2" d="M248.9 5.2 246 5c0-1.6 3.2-1.6 2.9.2m.8 0q1.2 0 1.2 1.1zm34.6 55-1 1q0-1.1 1-1M149 167q-.2 1-1.2.8zm-5.6 7.4-1.2.8q0-1 1.2-.8m243.4 120.4q.2 1.2-1 1zm-8 5.1q.2 1-1 1a2 2 0 0 1 1-1M351 317l.9-.1q0 1-1.1.9zm30.7 83.2 1.3.2.2.8h-.9zm-80.4 99-.3.9h-1.1q.3-1 1.4-.9m5.4 6.7q0 1-1 .8zm47.4 0h.9l.2 1q-1-.3-1-1"/><path fill="#e3ebf0" fill-opacity=".9" d="M298.8 504.6q4.8.6 9.5.4-.5.9-1.6.9l-1 .8-.8.6q-2-.2-4 0-1.5-1.2-2-2.7m33.1.1q4.8.3 9.5.2-1.6 1.3-3.7 2.2l-3.7.2-.7-.5-1.1-1zm23 1.2q3.3-.1 6.4.2l-1.7 1a9 9 0 0 0-3.5.2l-.9-.5z"/><path fill="#262627" stroke="#262627" stroke-width=".5" d="M251 6.3q12.7 0 25.7.9a6 6 0 0 0 4.3.7q.5 0 1.1.3a93 93 0 0 1 17 4q2.8.6 5.6 1.6 40.2 13.8 63.6 49.5c18.5 40.3 38.3 78.2 65.9 113C458 226.4 451 286.7 449 340.5c-1.5 42 4.4 94-12.4 133.1q-.9 1.3-.4 2.8-1-.1-1.3.9c-10.7 20.3-28.2 29-50.8 29.4-1.4-1.2-4.6-.6-6.4-.7-3.6.4-11.7-.1-15.7-.4a35 35 0 0 0-8.2-.7q-6.2.3-12.5 0l-9.5-.2h-22.7c-2-1.4-6.4-.4-8.7-.6a3 3 0 0 0-1.7.5l-24.6.6c-1.2-.1-8.7-.4-9 .5q-11.1.1-22.2 1c-.8-1.3-4.3-.6-5.4.2-38.9 1.5-77.6 6.4-116.4.9a2 2 0 0 0-1.5-.9q-6.3-1.3-12.3-3.9l-1.4-.4q-2-1.2-4-1.8a87 87 0 0 1-12.2-7.9c0-1.6-2.7-3-3.6-4.2A26 26 0 0 1 83 485q-.6-1.6-2.4-1.8l-.1-1.5q-.3-1.2-1.2-2-3.2-5.1-5.4-10.6 0-1.4-1-2.3 0-1.2-1-1.8c-15.6-49.5-11-106.2-10-157.5-3.5-34.2-4.2-66 6.4-99.2q1.1-2.2 1.9-4.5.9-.7.6-2.1c1.5-4.4 6.4-14 7.2-17.7q.5 0 .8-.6 2-3.1 3-6.7 1 0 .9-1c15.3-27.7 32.6-54.3 46.9-82.6A123 123 0 0 1 170 36.4l1-.5q.9-.3 1-1.2 1 .3 1-.7a164 164 0 0 1 27.8-15.8l1.2-.3q.7 0 1-.7l1.1-.3 12.3-4.5A559 559 0 0 1 242.7 7q3.4.2 6.8-.1 1 0 1.4-.6Zm-22.3 7.9q-1-.3-1.6.5-4.5.6-9 2.2-.6 0-1 .4a115 115 0 0 0-60.3 46 7 7 0 0 0-1.8 3.8q-.8 0-1.4.7a87 87 0 0 0-5.6 10c-1.7 5-6.9 13-8 17.5q-1 0-1 1l-2 3.4c-1.4 4-7.6 12.9-8 16.6q-.9-.2-1.3.6a33 33 0 0 1-2.7 4.9c-1.1 3.7-8.5 13.1-8.7 16.5q-1 .5-1 1.4a179 179 0 0 0-10.7 18.3l-3.7 5.8c-1.6 4.4-7 12.2-8 16.4q-.8 0-1 .8l-4 8.7q-3 7.5-5.7 15.2l-.4 1.2a146 146 0 0 0-5.7 22.2q-.2 2.2-1.1 4.5c.3 3.4-1.9 8.4-.7 11.5q-.5.8 0 1.5c-2 3.5-1.2 7.7-1.5 11.6q-.7 4.2-.7 8.6a171 171 0 0 0 0 12q-.3 5 0 10l-.1 1.3.1 6.5c.1 2.4-.2 7.5.8 9.5l-.1.9q0 1.3.2 2.5-.1 5.7.3 11.4-.3 1 .5 1.8 0 5.3.2 10.4.3 3.3.9 6.5a80 80 0 0 0 .3 13V386q-.2 2.1.5 4.1c-1 3.4-.1 7.4-.4 11q-.1 1 .5 1.8c-.7 2.4-.2 6.6.2 9.1l-.2 1 .2 6.6q0 5.3 1 10.6-.1 4 .7 7.7.4 5.2 1.5 10.3l.6.8a99 99 0 0 0 4.8 17.1l3 6q2.5 4.2 5.3 8.2.7.8 1.8 1.4c1.4 2 4.8 6 7.3 6.3.2 1.7 4.1 3.6 5.6 4.3 3.3 2.1 7.5 4.4 11.4 4.9q.7.8 1.9 1.1 6.9 2 14.1 3c2.4.5 7.5 1.2 9.7.5 2.9 1.5 11 .8 14.4.9q8.5-.3 16.9-1 10-1.3 20.3-1.8 7.8-1 15.7-1.2a677 677 0 0 1 28-.5l1-.6c4 .8 13.7.4 18.3.4l8.7.7 19 .5a89 89 0 0 0 14 .8q8.1 1.2 16.2.9c3.2 1.3 10.9 1 14.5 1.1 3.9 1.2 10.3.7 14.5 1q3.4.3 6.8.1l1-.4a3 3 0 0 0 2.5 1q6 0 11.8-.7 4.3.1 8.6-.3c29-2.2 47-18.6 53.4-46.7l.4-.8a161 161 0 0 0 5.5-33.6l1.1-8.7q0-6 .5-12.1l.1-5.7.3-15.2-.1-11.3q0-3.9.2-7.7a301 301 0 0 1-.5-19 236 236 0 0 1 .2-15.8c-.2-3 1-8.8-.2-11.4q.3-.9 0-1.7.8-.6.6-1.4.6-4.9.5-10V294q.2-5-.2-10.3l.3-1q.1-.8-.1-1.6c-.1-1.8.4-9.3-.6-10.4q.6-3.7-.2-7.5-.2-10.2-1.4-20.5l-.1-.8c-.6-1.8-.2-7.3-1.6-8.2l.2-1a36 36 0 0 0-1.2-7.5c-.4-2.5-.8-7.1-2-9.2v-1.4c-.4-1-.8-5.3-1.9-5.5.2-3.3-1.5-7-2.4-10.1l-.4-1.2a25 25 0 0 0-3-8.2q-.3-2-1.1-3.8-1.4-3.8-3.2-7.5-.3-.9-1.2-1.2c0-3-2.8-6.6-4-9.3q0-.6-.4-1a66 66 0 0 0-5-8.2l-.2-.8c-1.4-1.8-3.4-6-5.2-7.2l-.1-1a40 40 0 0 1-3.6-5c-2.1-1.9-4-5.6-6.4-7a2 2 0 0 0-1.8-1.7c-.5-2.5-4.1-5.6-6-7.3a4 4 0 0 0-1.9-1.7q-.4-4.8-2.2-9.3-.7-3-1.8-5.6c-.6-1.8-2.7-9.4-4.3-10 .1-1.6-2.3-8.1-4-8.2.4-1.9-1.5-4.7-2.6-6.2q-1.7-3.8-4-7.4-.4-1-1.5-1 .2-1-.7-1c-.1-2.3-3.3-6.5-5-7.7v-1q-1-.8-1.7-1.8c-1.6-1.8-4.3-6.2-6.4-7v-1.2q-2.6-2.2-4.7-5c-2-1.3-6-6.5-8.2-6.6-.3-1.8-3.7-3.9-5-5a66 66 0 0 0-8.1-6.1l-3.6-2.8-1.2.1c-1-1.9-7.2-5.7-9.6-5.2q.2-1-.9-.8 0-1-1-1.4c-3-1.2-6.6-3.7-9.8-4a8 8 0 0 0-2.6-1.8l-1.3.1c-1.6-1.8-8.4-3-10.8-4.2l-5-1a64 64 0 0 0-13.3-2.6 94 94 0 0 0-14.6-1.2q-10.8.2-21.6 2ZM247 38.3a288 288 0 0 1 24 .8q.5.8 1.4.8c4.4.4 10.2 2.4 14.5 2q0 .7.7 1.1a118 118 0 0 1 16.5 6.1q5.4 3 10.7 6.3l4 3q4.7 3.7 9.2 7.8a33 33 0 0 0 3.6 4q.5.6 1.1.7a23 23 0 0 0 5.5 7.4q.3 1.6 1.4 2.7c1.4 1.8 3.4 7.7 5.5 8.2l.2.6c-.7 2.5 2.7 6.7 3 9.5q0 .5.6.5a24 24 0 0 0 1.8 6c.8 3.2 1.1 7.3 2.5 10.2l1.1 16.9-.6 14q-1.5 7.5-2.5 15.1-3.3 8.5-6.3 17.2-.6.3-.6 1l-2.4 4.5c-27.1 53.1-99 63.3-146.5 32.2q-10.2-7.6-18.1-17.5a98 98 0 0 1-16.3-36.7l-.7-1.5a255 255 0 0 1-2.1-15.6l.1-1.6q-.4-8 .5-16 2-16.4 8-31.8c15.6-34.7 42-54.3 80.2-57.9ZM228.2 52a82 82 0 0 0-29.8 17q-.5.6 0 1.3c3.2 3 11.9 10.6 6.2 15q-2.2 1-4.5 1l-1.8-.3q-4.8-3-8.4-7.2-.6-.4-1 0a78 78 0 0 0-15 27c-1.3 1.2-3.8 12-3.8 14.3q-1 3.4-1 7c.2 1.4-1.1 6.2.6 6.7q6.8-.7 13.4.8c6.6 4.2-12.8 4.8-13.4 4.8q-1 .8-.8 2.1.5 9 2.9 17.5.3 2.8 1.5 5.3 1.2 4.5 3.5 8.9 1 3.5 3.2 6.2c.8 2.6 2.8 6.2 5 7.9l.3 1q2 3 4.3 5.7 1 1 2 .2c3.6-3.5 8.7-8.7 14.2-6.7l.6.8c1.4 4.6-4.6 10.2-7.8 12.8q-1 1.3.4 2.1.6 1.5 2.1 1.8c1 2 6 5 8 6.1q2.5 2 5.2 3.4 4.2 2.2 8.7 4.2 1 .4 2 .4c1.7 1.8 7.3 3 9.8 3.7q5 1.2 10 2.1 2.3.6 4.5.3l.4-.7c0-7.7.1-16.5 10.7-14 1.7.6 1.5 3.6 1.7 5.1q0 5 .2 9.7.9.7 2 .4c2.8-.5 6.8-.4 9.4-1.6q1 0 1.4-1l.9.2q1.5.2 3-.4c.6.1 2 .3 1.9-.7l2-.2q.8 0 1.1-.6a81 81 0 0 0 30.3-17.5c.9-2.2-11.3-9.1-9-13 6.5-4.5 11.8-1.4 16.7 3.4q.5.3 1 0 11.6-13.8 16.2-31.3.7 0 .7-.7 1-3.5 1.4-7.2.6-.9.6-2.1 1.2-5.2 1.3-10.5-.4-1.8-2.2-1.2l-1.3-.1q-3 .3-6.3.2-3-.7-5.5-2.7c-6-6 13-6.7 14.5-6.7 1.5-.8 0-6.3-.1-7.8l-.3-2.2a171 171 0 0 0-6.5-21.1q-1.5-3.3-3.2-6.5-.3-1-1.3-1.1c0-2.3-2.1-4.7-3.6-6.4a24 24 0 0 0-5.2-7c-.6-1.4-2.2-.8-2.5.5-3.8 2.5-6.5 5.8-11.5 6.5q-1-.7-2.4-1-.2-.6-.9-.4 0-3.8 2.1-6.8 3-3.9 6.7-7.2c.3-1.3-1.4-2.6-2.4-3l-1-.5c-1-2-5.5-4.8-7.5-5.9-.3-1-8.1-5-9.6-5.8l-1-.6a7 7 0 0 1-3-1.6h-1l-2-.8a52 52 0 0 0-11.2-3.5q-4.9-1.5-10-1.7-3.2-1.1-2.7 2.2 0 3.4-.3 6.9-2.7 7-10 5.8a7 7 0 0 1-2.3-3q0-5.7.2-11.3-1-1.6-2.7-.6-9.8.3-19 4Zm47.6 52q-.5.3-.7.8l-.4 1.4q-2.6 5.5-4.7 11.5 0 .8.5 1.3a49 49 0 0 1 6.1 6c12.2 33.8-35.7 45.8-42.6 17.2q0-1.2-.3-2.2c-.2-11.7 5.1-21.7 17.1-24.5 1.7-.7 8.3 0 9-1.1 4.8-8.3 7.7-26 16.3-30.8 2-.6 6.4-1.2 7.6 1zm-28 39.8q1.4 2 3.4 3.3 0 .5.5.6c18.2 4.7 18.2-17.9 8.2-21.7 0-1-1.4-1.2-2.1-1.4.2-1-3.6-.3-4.2-.5-8.3.5-9.7 11.5-7 17.7q.3 1.2 1.2 2Zm144.4 61.3 4.5 1 5 1.6c1.6.6 4 4.4 5.4 4.4q1.8 4.4 3.5 9.2c.8.8 1.2 4.5 2.3 4.6q.3 5.3 2 10.1v1q.3 3 1 5.9a428 428 0 0 1 2.4 51.8c-.4 3.2-.7 8.3 0 11.3l-.5 1.1-.1 6q-.6 6.5-.4 13v.7a72 72 0 0 0-.4 11.3l-.1 1q-.7 2.2-.6 4.6-.4 6.3-.3 12.5-1 3.2-.9 6.5 0 6.7-.9 13.5.1 3-.4 5.8l-.5 14.2-.2 1.6-.8 17v20c-.1 6-1.5 11.6-2.3 17.5q-.7 1.2-1.2 2.5l-.8 1c-5.6 18.3-24.8 17.2-40.2 17.2a14 14 0 0 0-4.7.2q-14 0-28.1.5l-5.8-.4q-12 0-24 .4c-.5-.9-4.2.5-5.2.1q-.6-.6-1.5-.5h-20.5l-3.9-.2q-12 0-24-.4l-3 .3h-2q-1.5 0-3-.3l-1 .5a292 292 0 0 0-23-.2q-4.5-.8-8.7-.1c-7.9-.3-14.6-1.8-22.4.1q-1.5-1.2-3.5-1l-1.3.1q-10.6 0-21.3 1.2-1.4-.6-1.9.7h-2l-21 .1q-4.6 0-8.8-1-6.7-.7-12.9-3.9-5-2.7-8.1-7.4a23 23 0 0 1-3.1-5.6c-3-10.2-1.8-21-3-31.5a146 146 0 0 0-1.2-17.7l.4-1-.4-6q-.3-6-1-12 .3-5.1-.7-10.3l.2-3.6a575 575 0 0 1-1.6-22.4v-.7c-.1-3.3-.1-8.1-1-11.2v-.6c.4-3.5.6-8.8-.4-12.2q.6-2.9-.2-5.7a143 143 0 0 0 0-13q.1-5.7-.3-11.4l.4-1v-13.2q1 0 .2-.9.5-2.7.6-5.7.6-12.8 2-25.4l1-6.4c.5-4.6 1.7-8.3.8-13.1 4-4.5 2-9.4 4.4-14.3q1.2-.6 1.8-1.8.7-.3 1-1 .9-.1 1.1-.9.6 0 1-.3.7 0 1-.7l1-.3q.6 0 .7-.7l1.4-.4q.5 0 .8-.6c12-5 21.9-1 32 6l1.8 2c6.7 7 12.6 13 21.1 17.6l.7 1c24.7 16 46.4 21.6 75.1 24.9 26.6.8 52.9-2 77.4-12.9q1.3.4 1.9-.8 1.8-.3 3-1.6 1.4-.4 2.2-1.6c1.9.3 5.2-2.3 7-3q.5-.2.6-.7 1.9-.5 3.1-1.8l1.2-.5q.6-.3.6-1a4 4 0 0 0 2-1 5 5 0 0 0 3.3-2.5 5 5 0 0 0 3-2.4 3 3 0 0 0 3-1.8 2 2 0 0 0 1-1c11-10 23-24.2 39.2-24Zm-89 57.4c-1.5-.5-26.2 7-30 7.4-3.5 0-8-.2-11.1 1.6l-16.8-1.2q-.8-.2-1.1.4c-2.8-.2-8-1.6-10.3 0q0-.7-.6-1.2l-12.2-2.3-1.3-.5q-12-3-23.7-7.4c-2.1-.8-8.2-4.8-10.2-3.7-.4-1.8-7-4.4-8.7-5.3l-12-6.9-4.2-2.4q-3.8-2.9-8-5.3c-1.5-1-4-4-6-3.3.2-2-6.6-5.2-7.7-7.2l-1.4-.5q-1.5-1.7-3.5-2.7c-13.3-13.9-21-4.4-23.5 10.8a5 5 0 0 0-.7 2.1l-.6 1.2q-1.5 8.9-1.5 18a6 6 0 0 0-.7 5q-.4 6-1.2 11.8 0 1 .8 1.1v.6q-.9.5-1 1.4l.3 13.3-.1 1.5v1.4q-.1 5.8.1 11.6a48 48 0 0 0 0 7.3l1 23c-.1 2.8-.3 7.5.7 10q-.5 3.5 0 7 .3 6.2 0 12.4c.2.6-.2 2.3.8 2.5.4 3 0 8 1 10.8q-.6 1.5-.1 3.1-.5.7-.3 1.6 1 6 .8 12 0 .9.5 1.6l.3 1.6c.5 2.2-.5 13.4.8 14.3.9 2.5-.3 12.9 1.2 14l.1 1.3c.1 2.5-.3 7.7 1.3 9.8a9 9 0 0 0-.4 5q0 4.6.4 9.3.2.6.9.7-1 2.5.4 4.8.3 1 1.3 1.1c0 2.5 4 5.2 5.7 6.7l1.3.6.8.6h1.4q2.1 1.6 4.8 2.2a79 79 0 0 0 16.9 2.7c3.1 0 10.4 1 13-.2a61 61 0 0 0 15 0c2.5 0 6.9.1 9-1q9 .4 18-.8c4 .1 11.4-.4 15-1.2q8.6.5 17 .2c2.6.5 6.8 2.3 9 .3q9.9 0 19.9-.5c2.6.4 7.9 1.1 10.1-.3 2 1.5 12.7 2 15 1.3l1 .3c2.6.1 6.6.9 9 .2q.4 1 1.6.8l16.7.5q7.2.6 14.6.5a133 133 0 0 0 12.9.1h1.3q2.1.2 4.2-.1l15.6-.2q.8 0 1.2-.6l3.2-.3c19.8-3.3 29.6-5.4 27.7-27.8q1.2-3 .9-6 1-12.6 1.3-25c1-1.8 0-2.5 0-4.4q.6 0 .6-.7.5-5.4.3-11l.8-2c-.4-.7.6-3.7-.6-3.6a35 35 0 0 0 .8-12.3q1-2 .9-4.1v-.7c-.2-3.6.6-7.8-.2-11.2q1.5-3.4.6-7 1.2-5.5.3-11a4 4 0 0 0 .4-3.7l.3-.1q.6-5.1.4-10.2.3-2.1.3-4.4l.1-2.5q.1-5.5-.1-11.1a11 11 0 0 0 .2-7l.6-2.1.1-14.6v-2.6l-.1-9.7v-5.2c0-2.4.3-7.9-1.1-9.8 1-1.8.3-4.1.3-6q0-4.6-1.2-9 .4-2.6-.3-5-.5-3.8-1.6-7.5 0-1-1-1.1.4-2.3-.8-4.4-1.5-4.5-5-7.3c-8.4-6.4-18.4 4.7-26.7 7-20.4 13.6-39.7 27.3-62.4 36.8q-1.6.8-2.8 2Z"/><path fill="#727577" fill-opacity=".9" d="M377.8 506c1.8 0 5-.5 6.4.7l-.8.3h-3.7q-1.5.3-2-1"/><path fill="#888c8e" d="M94.4 281.9q.9.8-.3.8z"/><path fill="#5a8cfc" stroke="#5a8cfc" stroke-width=".5" d="M247.2 48q1.7-1 2.7.6l-.2 11.3q-9.7 7.5-19.8 14.5-1.7 1.5.4 1.2L251.9 63q7.5 1.2 10-5.8 6.7-3.6 13-7.4 6 1 11.3 3.5L274.8 62q-1.9.5-2.6 2-1 .2-1.4 1-1.2-.1-1.7 1l-.3 1.1h-.6q-1 0-1.4 1-1.2-.2-1.7 1-.8 0-1.2.9-.9.2-1.3 1.1l-.5.4q-.7-.2-1.2.4-1.5.7-2 2.2l-1 .2q-.6.2-1.1.7t-.7 1.2c-2-.3-8.9 5.4-10.7 7q-1.6 0-2.2 1.5.4.5 1 .1c1.8-1 10.6-5.3 11-6.9 2 .6 4-2 5.8-2.5q1-.4 1-1.4 1 .2 2-.3c1-1 4.8-2.2 5-3.6 1.4-.1 4.8-1.5 5-3q1.5.3 2-1.1c1 .3 5-1.7 4.8-2.8.8 0 2.2 0 2.2-1 1.5-.3 4.6-1.6 5-3.2 1 .3 5-1.8 5.2-2.7 1.5.8 9.3 4.7 9.6 5.8-2.2-.5-3.5 1-4.8 2.6 1.2.8 4.5-1 4.8-2.6 2 1.1 6.5 3.8 7.4 5.9q0 1.8 1 .4c1 .5 2.8 1.8 2.5 3a59 59 0 0 0-6.7 7.3q-2.1 3-2 6.8c-1.6-.6-3.8 1-4 2.6q-1.4-.1-1.8 1-1.1.2-1.4 1.4c-1.6.7-2.6.3-3.4 2.3-2.7.5-2.5 0-4 2l-14.6 9.3 7.9-19.4c-1.2-2.2-5.6-1.6-7.6-1-8.6 4.8-11.5 22.5-16.2 30.8-.8 1.2-7.4.4-9 1.1-12 2.8-17.4 12.8-17.2 24.5q-28.4 16.6-56.9 33a37 37 0 0 1-3.5-8.8c15.1-9.4 31.6-21.7 46.7-31.7.7-.9 2.7-.7 2.8-2q-.7-1-1.8-.2c-15.8 10-32.9 19.5-49.2 28.6a80 80 0 0 1-2.9-17.5q-.3-1.3.8-2.1c.6 0 20-.6 13.4-4.8a44 44 0 0 0-13.4-.8c-1.7-.5-.4-5.3-.7-6.7q17.3-12.4 34.7-24.6 1.2-1 2.1-2-.8-.6-1.8 0-16.8 10-34 19.6c0-2.3 2.6-13 3.9-14.3L199 87.6q.7-.5 1-1.5 2.3 0 4.5-.9c5.7-4.4-3-12-6.3-15q-.3-.8 0-1.3a82 82 0 0 1 30-16.9l-19 17.5q.3.5 1 .2c11.3-6.5 26.4-14.6 37-21.7Zm-48.8 38c-.4 1.3-19.4 11.5-22 13a78 78 0 0 1 12.5-20.3q.4-.4 1 0 3.6 4.2 8.5 7.2Zm121.3-5.7 2.5-.5a24 24 0 0 1 5.2 7c-.5 3-5.2 3.3-7.3 5-14.1 9.8-31 22.3-45.2 31.3l-4.3-4q-.6-.7-.6-1.4 2.1-6 4.7-11.5c2.9-.7 32.7-17.9 33.6-19.4 4.9-.7 7.6-4 11.4-6.5ZM331 93.2q.9.2 1.3 1.1l3.2 6.5c-1.5 1.1-5.2 2.4-5.7 4.3-1-.4-6 2.2-4.4 3 .8-.1 5-1.9 4.4-3 1.6.2 4.8-2.2 6.2-3.1q3.6 9.8 6 19.8a6 6 0 0 0-2.6 1.1q-7.1 5-14.5 9.5-.7.4-.8 1.1c.9.7 1.6-.2 2.5-.5l15.7-9c.1 1.6 1.6 7.1.1 7.9-1.6 0-20.5.7-14.5 6.7q2.5 2 5.5 2.7a478 478 0 0 0-24.3 17.4q-2 .3-2.9 2l-1.4.6a3 3 0 0 0-1.6 1.5q-.8 0-1 .8c.6.7 1-.2 1-.8.5.1 1.8.3 1.8-.5q.8-.6 1.2-1.5c1.3.7 1.6-.8 2.8-.8q1.5-1 3.1-1.6l.2-.5 1.7-.9q1-.3 1.3-1.3l.7.5q1-.4 1.3-1.5h.6q.7 0 1.2-.5l1-1h.8a2 2 0 0 0 1.4-1.5l.7.4q1-.3 1.3-1.3l1.6-.6q.8-.3 1.2-1h.8a2 2 0 0 0 1.4-1.2h.6q1-.1 1.5-1 .7-.7 1.7-1 .6-.2 1-.8l1-.2q.9-.3 1.3-1.3l.6.3q1-.2 1.4-1.1l1.5-1q.8 0 1-.7 1.9-.6 2.3 1.2 0 5.3-1.3 10.5l-1.1 1-.9.8c-2.5 1.5-4.6 2.6-6.7 4.8l-31.3 22.9q-1.8 1.5.4 1.2c11.3-5 23.8-13.7 34.8-20l2.1-.8a83 83 0 0 1-16.2 31.4q-.5.3-1 0c-5-4.8-10.2-8-16.6-3.3-2.4 3.8 9.8 10.6 8.9 12.9a81 81 0 0 1-30.3 17.5V220q.8 0 1-.9 1 0 1.4-1.2.9-.2 1.7-.7 3-2 5.7-4.6c-1.7-.8-4.7 2.3-6 3.2l-2.9 1.4q-1.2.6-2 1.7l-1 .2c-1.1.6-5.9 3-6 4.2l-.8-.2q-1 0-1.4 1c-2.6 1.2-6.5 1.1-9.4 1.6q-1 .3-2-.4-.3-4.8-.2-9.7c-.2-1.5 0-4.5-1.7-5.2-10.6-2.4-10.7 6.4-10.7 14.1l-.4.7q-2.2.3-4.5-.3-5-.9-10-2.1c15.5-12.6 32-24.6 48.4-36.1 1.4-1 .3-2.4-1.2-1.3L225 219q-1 0-2-.4-4.5-2-8.7-4.3l45.7-31.6 3.8-3.2q-.4-.5-1.1-.2c-17 10.4-35 20.4-52.4 30.5q-.8.4-1.2 1.2c-2-1-7-4.2-8-6l21.7-14.5a2 2 0 0 0-1.9-.2q-2.5 1.5-4.9 3.2-8.4 5-17 9.6-1.5-.8-.4-2c3.2-2.7 9.2-8.3 7.8-13l3.5-2.7c-1.1-1.4-3.5 1-4 2-5.6-2-10.7 3.2-14.3 6.7q-1 .8-2-.2-2.3-2.7-4.3-5.6c1.3-.4 4.1-1.9 4.6-3l-.3-.4q-2.4 1-4.7 2.3a18 18 0 0 1-4.9-7.9l54-37.1c7 28.6 54.9 16.6 42.6-17.3q27-16 54.4-31.7Zm-4 25.8a3 3 0 0 0-3 2q-1.3-.2-2 .7c.6 1 2 0 2-.7a4 4 0 0 0 3-2c1 .2 6.2-2.1 4.6-3-1-.1-4.5 1.7-4.5 3Zm-75.8 28.1q-2-1.4-3.4-3.3c.2-2.6 6.4-4.3 8.1-6.3q.6-.3 1 .1l-4.6 8.4zm48.7 18c.3 0 1.7-.5.7-1q-.7.4-.7 1Zm-37.2 52.2c1 1.2 5.9-3.1 6.3-3.9-.6-1-6.3 2.3-6.3 3.9Z"/><path fill="#7ea6f9" fill-opacity=".4" stroke="#7ea6f9" stroke-opacity=".4" stroke-width=".5" d="m304.8 161.3.2 1c0 .8-1.3.6-1.8.5a3 3 0 0 1 1.6-1.5Z"/><path fill="#598cfd" fill-opacity=".4" stroke="#598cfd" stroke-opacity=".4" stroke-width=".5" d="M324 121c0 .8-1.4 1.6-2 .7q.7-.9 2-.7Z"/><path fill="#5a8dfb" fill-opacity=".4" stroke="#5a8dfb" stroke-opacity=".4" stroke-width=".5" d="M327 119a4 4 0 0 1-3 2 3 3 0 0 1 3-2Z"/><path fill="#5a8cfc" fill-opacity=".2" stroke="#5a8cfc" stroke-opacity=".2" stroke-width=".5" d="M327 119c.1-1.3 3.5-3.1 4.6-3 1.6.9-3.6 3.2-4.5 3Z"/><path fill="#9ebcf6" d="M329.8 105.1c.6 1.1-3.6 2.9-4.4 3-1.6-.8 3.4-3.4 4.4-3"/><path fill="#95b6f7" fill-opacity=".8" d="M302.8 62c-.3 1.6-3.6 3.4-4.8 2.6 1.3-1.5 2.6-3.1 4.8-2.6"/><path fill="#e0e7f2" fill-opacity=".2" stroke="#e0e7f2" stroke-opacity=".2" stroke-width=".5" d="M282 219v1.4l-1 1.6q-1.1 0-1.9.7-1.5.6-3 .4c0-1.3 4.8-3.6 6-4.2Z"/><path fill="#d7e8f3" fill-opacity=".2" stroke="#d7e8f3" stroke-opacity=".2" stroke-width=".5" d="M285 217.1q.3 1 1.4.7-.3 1-1.4 1.2-.7.2-1 .9l-.8.1-.3-1.2q.8-1.2 2-1.7Z"/><path fill="#80a8fa" fill-opacity=".4" stroke="#80a8fa" stroke-opacity=".4" stroke-width=".5" d="M299.9 165.2q0-.7.7-1c1 .4-.4.9-.7 1Z"/><path fill="#c2d5f7" fill-opacity=".4" stroke="#c2d5f7" stroke-opacity=".4" stroke-width=".5" d="M303.2 162.8c0 .6-.4 1.5-1 .8q.2-.7 1-.8Z"/><path fill="#dfdff4" fill-opacity=".1" stroke="#dfdff4" stroke-opacity=".1" stroke-width=".5" d="m304.8 161.3 1.4-.5q-.4.8-1.2 1.5z"/><path fill="#4e5d7a" stroke="#4e5d7a" stroke-width=".5" d="M257.8 124.6c-.6.6-2.9 2.4-2.1 3.3l4.2-1.9c10 3.8 10 26.4-8.2 21.7q-.4-.2-.5-.6.7-.5 1.1-1.1l4.5-8.4q-.3-.4-.9-.1c-1.7 2-7.9 3.7-8.1 6.3q-1-.8-1.1-2c-2.8-6.2-1.4-17.2 6.9-17.7.6.2 4.4-.4 4.2.5ZM134.4 222c-2.3 2.2-6 5.9-7.4 8.7l-4.7 4.8q.3.6 1 .3c4.5-3.3 9.7-5.8 14.4-8.6q1.3-.6 1.6-2c1.1 2 7.9 5.2 7.6 7.2l-12.1 11.9c-1.1.8-1.1 2.1.5 1.4q8.8-5.2 17.8-10 4 2.4 7.9 5.3-7.2 5.6-14 11.5-.9.7-.4 1.6 9.4-5.2 18.7-10.7 4.8 3 9.7 5.6-1.6-.3-3 .6-6.7 5.8-14.1 10.8-1.7 1.4.4 1.2 1.2-.9 2.4-1.2l16.5-10.1c1.7.9 8.3 3.5 8.7 5.3-10 8.7-25.2 19.7-34 28.6q-1.8-.1-2.7 1.4c.4.9 3-.3 2.7-1.4 3.8-.1 38-21.4 44.2-24.9q11.7 4.3 23.7 7.4a9 9 0 0 0-3.5 1q-5.6 4.1-11.3 7.9-.7.6-1 1.4-2.4-.1-3.2 2-.6 0-.8.5.7.3.8-.4c1.1 0 3.2-.6 3.2-2l2-.7 10.7-6q2.5-1.4 4.5-3.2l12.1 2.3q.6.5.6 1.2c-4.8 4-44.5 30.7-45 32.4a3 3 0 0 0-2.9 1.5c.7 1.2 2.8-.4 3-1.5q1.4-.3 2.6-1l51.3-29.8q.8-.7 1.3-1.6.4-.7 1.2-.4l16.7 1.2Q241 286 220 299.6a2 2 0 0 0-1 1.4q-2.1 0-3 1.6c1 .9 2.7-.4 3-1.6q1 0 2-.3c15.4-9.7 32.3-18.7 48-28a31 31 0 0 0 4.2-2.8c3.8-.4 28.5-7.9 30-7.4L247 300l-12 7.6q-1 .6-1 1.5-2.1-.4-3 1.4c1 .6 2.9-.2 3-1.4q1 0 2-.4l11.8-7.2q73.5-42.5 147.3-84.8 3.5 2.8 5 7.3-32.3 19.8-64.3 40.3l-13.8 8.4q-1 .5-1.1 1.5-2.2-.3-3 1.7-1.8-.3-2.1 1.3-2.3-.2-3 1.8-1.1-.2-1.7.7c.5 1 2.1.2 1.7-.7 1 0 3.3-.5 3-1.8.7 0 2.4 0 2-1.3 1.2.3 3-.4 3.1-1.7q1.5-.1 2.9-.8 6.4-4 13-7.8 25.4-14.7 50.6-29.6c4.1-2.8 9.1-5.9 13.6-7.6q.9.2 1 1.1 1 3.8 1.5 7.4-.4.7-1 1l-48.1 30q-1 .4-1 1.3a3 3 0 0 0-2.1.5q-7 4.6-14.4 8.8a3 3 0 0 0-1 1.5q-1.8-.5-1.9 1.2-2.4-.5-3.3 1.9-1.1-.3-1.6.6c.5 1 2.1.2 1.6-.6 1-.3 3.2-.6 3.3-2 .7 0 2.2 0 1.8-1.1q3-1 6-2.6l13.3-7.9 46.8-27.2q1-.5 2-.3 1.1 4.4 1 9L316 306.4q-.9.6-1 1.5c-1.6 0-4.5 1.6-5.1 3.2q-2-.4-2.9 1.4c.8.8 3-.3 2.9-1.4 1.7.2 4.8-1.6 5.2-3.2 2.4.1 2.6-.7 4.4-2l85.2-49c1.4 1.9 1 7.4 1 9.8q-1.2.4-2.3 1l-70.1 43.9q-1.8.8-2.4 2.4a6 6 0 0 0-5.2 3.2q-1-.4-1.7.1a7 7 0 0 0-3.3 2.9c-1-.6-5.8 2.2-4.3 2.8.7 0 4.9-2 4.3-2.8 1-.3 5.3-1.9 5-3 1.2-.3 5.2-1.7 5.2-3.2q1 0 2.2-.5 35.4-20.7 70.9-41.1.8-.5 1.8-.5.2 4.8 0 9.7-2 .4-3 2.3c-1-.2-4.6 1.8-4.7 2.8-1.1.4-3 .7-3 2.2q-2.3 0-3.2 2c-1.2-.2-4.7 1.8-4.8 2.8q-2.3.3-3.2 2.3c-1.2-.3-4.6 1.8-4.9 2.8q-2.1.3-3 2-2.2 0-3 2a2 2 0 0 0-2 1c-1 .4-2.7.7-2.9 2q-2.2 0-3 2.2-2.4-.3-3 1.8-1.4-.2-2 1-2.2.3-3.2 2-1.2 0-1.7 1-1 .3-1.3 1-1.5-.2-1.7 1-.9.2-1.2 1-1.5-.3-2 1.2a3 3 0 0 0-3 1.7 2 2 0 0 0-2 1.1 2 2 0 0 0-1.3 1.1c-1.2-.3-2.5 1.4-3.7 1.6q-.9.6-.8 1.5-2.1-.3-3.2 1.6a4 4 0 0 0-3 2.6c-1.7-1-3.1 1.1-4.5 1.7q-.4.6-.2 1.2-2.6-.5-3.4 2-1.6-.6-1.7 1c-1.7-.4-9.8 5.6-11.8 6.5q-1.5 1-2.6 2.3-1.5-.3-1.8 1.2a3 3 0 0 0-3 1.5c.6 1.3 2.8-.6 3-1.5.6 0 2.2-.1 1.8-1.2a18 18 0 0 0 4-1.5l7-4.3 1.6-.5c.3-.7 2.8-1.6 2.3-2.3l1.4-.5a2 2 0 0 0 1.8-.6q.8-.4 1.1-1.2c.7 0 2.2-.2 1.7-1.2l1.5.1 1-.8q.6-.3 1-1 1.5 0 1.5-1.3l1.6-.2q1.4-.3 2-1.5 1.9-.7 3.7-1.7 32.5-18.7 64.9-37.7l-.1 11a19 19 0 0 0-4.9 2.7l-106.9 69a2 2 0 0 0-1 1.6q-2.4-.3-3.3 2-1-.3-1.7.6c.5 1 2.2.3 1.7-.6 1.2 0 3.1-.6 3.3-2q1.4 0 2.7-.9L405 308q.3 5.6.1 11a4 4 0 0 0-2.1.6 597 597 0 0 0-21 14c-1.3.5-3 .7-3 2.5-.5-.2-1.8-.1-1.6.7q-1.3 2-3.6 2.5c-.4-.2-1.8-.5-1.4.4-1.5 2.4-4.3 2.7-6.4 4.4q-1.4-.2-2 .9-.8 0-.8.9l-41 25.7q-1.6.8-2.3 2.4c-1.7 0-3.8 1.5-4.9 2.7 1 1.5 5.2-1.8 4.9-2.7q1.1 0 2.2-.4c26.5-16.2 54-31.3 81-47q.6-.5 1.6-.6.1 5.1-.4 10.2l-.4.1q-15.8 10.4-32 20.3-.7.5-.9 1.5c-1.5-.3-4.8 1.7-5.1 3.1q-2.1-.4-3 1.4c.7 1.1 3-.3 3-1.4 1.5.2 5-1.7 5.1-3.1q1 0 2.1-.4 15-9 30.5-17.7.9 5.4-.3 11-30.8 20.1-61.3 40.5-1 .6-1 1.6c-1.8-.3-3.9 1.4-5 2.6.9 1.6 5.1-1.8 5-2.6q1 0 2-.6l59.7-34.5c.8 3.4 0 7.6.2 11.2q-1 0-1 .8-1 0-1.7.5c-2 2.4-1.3 2.4-4.6 2.8l-1.2 1.4a1438 1438 0 0 0-36.1 23.7q.7.6 1.7.3 3.4-2.5 7-4.5l35-20.2c.3 4 .3 8.4-.8 12.3-1.8-.5-16.7 11.4-19.5 12.9l-4 2.7q-1.4.4-1.4 1.8-1.5 0-2.2 1.1-.9.2-.9 1l-1.4.3-.8.6q-1 1.1-2.3 1.5-.4 0-.7.4-1.4 1.1-2.4 2.5-.5.1-.2.6.4-.1.2-.6c1.1 0 3.1-.5 3.2-1.9 1.3-.5 5.2-1.3 5.1-3.1.9 0 2.3-.1 2-1.4.7.4 2.2.4 1.8-.8 1 0 3.5-.2 3-1.9h1.4q.8-.2 1.1-.8 1.2 0 1.9-1 1.3 0 1.9-1.2 1.2 0 1.9-1 .8-.2 1.2-1 1.3.1 1.9-.8 1.3 0 1.9-1.2.8 0 1.3-.9 1.3 0 1.8-1 1.5 0 2-1.2h2q.2 5.6-.3 11a2 2 0 0 0-1.7 1.1q-.7 0-.8.7l-2 1-11.8 9a85 85 0 0 1-7.4 4.8q-1.6 1.1.2 1.2l17.1-10q2.8-1.6 5.8-2.7-.3 12.4-1.3 25l-12.9 11.4q-1.5 1.4.5 1.3l1.3-.5q5-3.3 10.2-6.2c1.9 22.4-8 24.5-27.7 27.8.1-.7 1-1.2.3-1.9-1 .2-3.4 1-3.5 2.2q-.4.8-1.2.6l-15.6.2q.4-1 1.2-2c.8-1 5.7-5 5.6-5.9q.7-.1 1-1 8.2-7 16-14.5c.4-.5 1.2-1 .4-1.5q-14.4 8-28.7 16.3c-2.7 1.9-12.4 6.7-14 8.6q-7.2 0-14.5-.5c-.4-1 1.4-1.8.3-2.3q-1.7 0-2.4 1.5a2 2 0 0 0 2 .8l-16.6-.5q-1.2.2-1.5-.8l31.5-23c.8-1 3.4-1.3 3.4-2.6q-.9-.6-2 0-20.1 11.7-40 24l-2.2.7-.8.4c-2.3.6-13 .1-15-1.3q22.3-15.8 44.7-31.3.5-.5.6-1.1 1 .3 1.7-.6c-.5-1-2-.3-1.7.6-4.5 1.5-55 31.6-55.4 32.7q-10 .6-20 .5 23.2-15.3 46.1-31c1.3-.8 4-1.2 4.2-3.1q2 .4 3-1.5c-1.2-.6-2.8.1-3 1.5l-2.2.4-57 33.4q-8.4.3-17-.2l68.4-45.9c.7-1 4.7-2 4.6-3.1a2 2 0 0 0-2-.1l-86 50.3q-9 1.1-18 .7l1.6-1.4c13.7-8.4 26.7-17.7 40.7-25.6q.7-.5 1-1.5c1.6 0 3.8-1.5 4.8-2.7-.9-1-5 1.5-4.8 2.7q-1.2 0-2.3.4-25 14.8-50 29.2a61 61 0 0 1-15 0q2-2.7 4.8-4.2l91.4-59q.7-.6 1-1.6c1.2.5 4.4-1.4 5-2.4-.8-1.3-5 1.7-5 2.4l-2.1.6-11 6.7c-29.6 17.4-60 34-89.2 52-.5 0-1.7-.3-1.5.6q-1.7 1.4-3.5 2.6-1.3-.6-1.7.7l-1.5.2a2 2 0 0 0-1.4 1.4 79 79 0 0 1-15.2-2.5q3.6-.7 6.5-3l103.7-67.3q5.5-3.6 11.3-6.9 1.2-.6 1.7-2c1.6.4 3.7-1.6 4.8-2.5-1-1.2-4.9 1.6-4.8 2.5q-1.2 0-2.2.6l-12 7q-43.4 25.3-86.7 50.2-.7.4-1.2 1l-11 5.9q-1 .5-1.1 1.4c-1.5 0-4.6 1.5-5.2 3q-1-.1-1.8.4-5.4 2.9-10.3 6.3c-1.7-1.5-5.8-4.2-5.6-6.7l.3-1c1.1-.5 5.7-4.2 6.6-3.8q.9-.5 1.3-1.2c1.5-.7 5.2-3.8 6.7-3.7q.9-.6 1.3-1.4l70.7-44.5q.8-.4.8-1.2c1.4 0 4.7-1.9 5.2-3.1q2.1-.2 3-2 1.4 0 2-1.2c1.1-.2 4-1.1 4.2-2.4-1.2-.7-3.9 1-4.1 2.4a2 2 0 0 0-2.2 1.2q-2.1 0-2.9 2c-1.8-.5-4.4 1.6-5.2 3q-.9-.1-1.8.3-4.6 2.4-8.7 5l-79 45.7q-.6 0-1-.7l-.3-9.2q33-20.2 65.7-40.8c1-1.2 7.5-4.2 7.3-5.5 1.8.2 4.6-1.6 5.3-3.2 1.2.7 4-1.6 4.7-2.4-.7-1.3-5 1.8-4.7 2.4-1.3.3-5 1.7-5.3 3.2-3 .2-9 4.8-12 6.5L114.5 434c-1.7-2-1.3-7.3-1.4-9.8l2-.7 77.9-49.3q.7-.4 1-1.2a3 3 0 0 0 2-.5c1.6-1.4 7.7-4 8-6q2.5.9 3.3-1.7 1 .3 1.6-.6c-.5-1-2.1-.3-1.6.6-1.1.2-3 .5-3.3 1.8q-1 0-2.1.5-4 2.7-8.3 5-.3.3-.2.6-39.9 22.5-79.5 45.6c-1.6.6-1 3.3-1 4.7-1.4-1.2-.2-11.6-1-14l59.1-36.5c.8-.8 3-1.5 3-2.8 1.7.3 4.4-1.4 5.2-3q2.2 0 3.1-2 1 .4 1.7-.5c-.5-.9-2.2-.4-1.7.6-1 .2-3.1.5-3.1 1.9-1.7.3-4.7 1.3-5.2 3q-2.4 0-4 1.9l-57 32.8c-1.7.6-1.1 3.2-1.1 4.5-1.4-.9-.4-12.1-1-14.3q1.2 0 2-.5l21.4-13.4 1.8-1.6q2-.2 2.9-2 2.6-.4 3.6-3c2.9-.4 3.3-.6 5-3q1.5 0 2.8-.6c8.1-6.2 18.2-11 26.7-16.9q7-4 14-8.4.8-.6 1.2-1.6c1.4.6 3.8-1.4 4.7-2.4-.7-1.2-5 1.8-4.7 2.4q-1.2.2-2.3.8l-14.2 8.3Q144 371.5 112 389.6q-1.5.8-1 2.4l-.4 1.1q-.6-.7-.5-1.6.2-6-.8-12 0-.9.3-1.6c0 .7.2 2.4 1.4 1.8q27.3-18.3 54.9-36.3a2 2 0 0 0 1-1.4 3 3 0 0 0 3.3-2c.6.2 2.4-.4 1.2-1.2q-1.4 0-1.2 1.2c-1.3.1-3.2.4-3.3 2q-1.4 0-2.7.8a4558 4558 0 0 0-54.6 32c-1-2.7-.5-7.8-1-10.8l2-.8c4.8-3.8 31.5-20.4 33.3-23.3 1.7.4 4.4-1.7 5.2-3.1 1 .3 3.7-.9 2.4-1.8-.9.1-2.6.6-2.4 1.8-1.5-.1-4.9 1.5-5.2 3l-2 .6-32.3 18.7a7 7 0 0 0-1 4.9c-.9-.2-.5-1.9-.7-2.5q.3-6.2 0-12.4c5.1-3.5 41.3-27.9 42.2-30.3 1.2.7 3.5-.7 2.4-1.8a3 3 0 0 0-2.4 1.8l-2.2.8c-4.2 3-21.7 12-24 14.6q-1 0-2 .3a95 95 0 0 1-8.9 5q-.7.5-.8 1.2-2 1-4.3 1.4c-1-2.5-.8-7.2-.7-10q1.2 0 2-1 .5-.3.6-.8 1.3-.3 1.9-1.4 1-.1 1.4-1a9 9 0 0 0 5.8-3.6q-.5-.5-1.2-.2c-1 .8-5.9 2.8-6 4q-2.3.6-4.6 1.7l-.9-20.7q1.2-.4 2.2-1.2l27.2-22.5c-.4-1-1.7.2-2.3.4l-27 16a150 150 0 0 1-.2-11.6q.6-.3.7-1 2.7 0 3.2-2.5c1 .4 5.2-3.8 6-4.6.5 0 2.3-.4 1.4-1.2q-1 .3-1.4 1.2c-2.1 0-6.9 3-8.1 4.8q-1 0-1.7.4L106 274l.8.3 1-.1q1-.3 1-1.3 1-.1 1.4-1l4.8-3.3q.6-.4.8-1.2-.5-.5-1.2-.1l-6 3.4-1.7 1.3q-.8-.3-.8-1l1.2-12q4.4-4 8.4-8.6-.5-.4-1.1-.1L108 254q0-9 1.6-17.9 1.1 0 1.3-1.3a4 4 0 0 0 2.6-2.3c-.4-1-2 .3-2.7.3 2.6-15.2 10.2-24.7 23.5-10.8Zm63.5 59.1c.3 0 1.7-.5.7-1q-.7.3-.7 1Zm22 108a1 1 0 0 0 1-.6q-.8-.4-1 .6ZM363 413q.6 0 1-.6-.8-.4-1 .6Z"/><path fill="#939eb1" fill-opacity=".6" stroke="#939eb1" stroke-opacity=".6" stroke-width=".5" d="M317.2 467.4a2 2 0 0 1-2.1-.8q.7-1.5 2.4-1.5c1.1.5-.7 1.2-.3 2.3Z"/><path fill="#8c98ac" d="M258.1 402.8c0-.7 4.2-3.7 5-2.4-.6 1-3.8 2.9-5 2.4"/><path fill="#53627f" fill-opacity=".5" stroke="#53627f" stroke-opacity=".5" stroke-width=".5" d="M215 391.9c.3-1.3 3-3 4.2-2.3-.2 1.2-3 2.1-4.1 2.3Z"/><path fill="#98a3b5" d="M254.2 386c-.1-1 3.9-3.7 4.8-2.6-1.1 1-3.2 3-4.8 2.5"/><path fill="#9ba7b8" d="M306 345.2c-.2.9-2.4 2.8-3 1.5a3 3 0 0 1 3-1.5"/><path fill="#aeb8c6" fill-opacity=".9" d="M307.8 344c.4 1-1.2 1.2-1.8 1.2q.3-1.5 1.8-1.2"/><path fill="#8f9bae" d="M320.7 320.3c.6.8-3.6 2.7-4.3 2.8-1.5-.6 3.2-3.4 4.3-2.8"/><path fill="#a4afbf" d="M325.7 317.3c.3 1.1-4 2.7-5 3a7 7 0 0 1 3.3-2.9q.8-.5 1.7-.1m-143.4 47.6q-1 2-3.2 1.9c0-1.4 2.3-1.7 3.2-2M320 374c.3 1-3.8 4.2-4.9 2.7 1-1.2 3.2-2.7 4.9-2.7m-.7 57.9c-.3-.9 1.2-1.5 1.7-.6q-.6.9-1.7.6"/><path fill="#abb6c4" d="M315 308c-.3 1.6-3.4 3.4-5.1 3.1.6-1.5 3.5-3.1 5.2-3m-144.7 32q0-1.2 1.2-1.2c1.2.8-.6 1.4-1.2 1.2m37 24.9q-.7 2.5-3.3 1.8c.3-1.3 2.2-1.6 3.3-1.8M341 393c.1.8-4.1 4.2-5 2.6 1.1-1.1 3.2-2.9 5-2.6"/><path fill="#9da9b9" d="M189 303.1c-.2 1.1-2.3 2.7-3 1.5a3 3 0 0 1 3-1.5"/><path fill="#a8b2c1" d="M151.9 284.2c.3 1-2.3 2.3-2.7 1.4q.9-1.5 2.7-1.4M228.2 438c-.2-1.2 4-3.8 4.8-2.7-1 1.2-3.2 2.7-4.8 2.7"/><path fill="#a0abbb" d="M334 281.2c-.1 1.3-2.2 1.6-3.3 1.9q.9-2.4 3.3-2m-24.1 30c0 1.1-2.1 2.2-2.9 1.4q.8-1.8 2.9-1.5m56 50c0 1.1-2.3 2.5-3 1.4q.9-1.8 3-1.4"/><path fill="#596784" fill-opacity=".5" stroke="#596784" stroke-opacity=".5" stroke-width=".5" d="M116.1 282.1q.4-.9 1.4-1.2c1 .8-.9 1.3-1.4 1.2Z"/><path fill="#aeb8c6" d="M197.9 281.1q0-.7.7-1c1 .5-.4 1-.7 1m138-1.1c.3 1-1.2 1.2-1.9 1.2q.1-1.7 1.8-1.2m35.1 78c-.1 1.5-3.6 3.4-5.1 3.2.3-1.4 3.6-3.4 5.1-3.1m-191.8 8.8c-.8 1.6-3.5 3.3-5.2 3 .5-1.7 3.5-2.7 5.1-3m110.5 7.3c.5.9-1.2 1.6-1.7.6q.7-.9 1.7-.6"/><path fill="#9ba7b8" d="M312.8 279c.4 1-1.2 1.7-1.7.7q.6-.9 1.7-.7m18 4c.4 1-1.2 1.7-1.8.7q.6-.9 1.7-.6m-111.9 18c-.2 1.2-1.8 2.5-3 1.6q1-1.6 3-1.6M150.2 319a3 3 0 0 1 2.4-1.9c1.1 1.1-1.2 2.5-2.4 1.9m-1 17.9c-.2-1.2 1.5-1.7 2.4-1.8 1.3.9-1.5 2.1-2.4 1.8m43 7c-.2-.7 4-3.7 4.8-2.5-.9 1-3.3 3-4.7 2.4m-9.9 21c-.5-.9 1.2-1.4 1.7-.5q-.6.9-1.7.6M294.1 431c.2-1.4 1.8-2 3-1.5q-1 1.9-3 1.5"/><path fill="#a3adbd" d="M315.8 277.2c.3 1.3-2 1.9-3 1.8q.8-2 3-1.8m-81.9 32c0 1.1-2 1.9-3 1.3q1-1.8 3-1.4m-26.6 55.7c-.5-.9 1-1.5 1.6-.6q-.7.9-1.6.6m-15 24.8c-.4-.6 4-3.7 4.7-2.4-.7.9-3.5 3.1-4.7 2.4M365.6 411q.1.4-.2.6-.3-.3.2-.6"/><path fill="#b3bdca" d="M317.8 276c.4 1.1-1.3 1.2-2 1.2q.3-1.6 2-1.3m-168.6 60.8c-.8 1.4-3.5 3.5-5.2 3 .3-1.5 3.7-3.1 5.2-3"/><path fill="#535d7c" fill-opacity=".2" stroke="#535d7c" stroke-opacity=".2" stroke-width=".5" d="M210 395c-.5 1.3-3.8 3.1-5.2 3.2.8-1.5 3.4-3.5 5.2-3.1Z"/><path fill="#50607c" fill-opacity=".3" stroke="#50607c" stroke-opacity=".3" stroke-width=".5" d="M213 393q-1 2-3 2 .8-2 3-2Z"/><path fill="#52607e" fill-opacity=".3" stroke="#52607e" stroke-opacity=".3" stroke-width=".5" d="M215 391.9q-.5 1.4-2 1.2a2 2 0 0 1 2-1.2Z"/><path fill="#4e5c79" fill-opacity=".4" stroke="#4e5c79" stroke-opacity=".4" stroke-width=".5" d="M220 389q0-1 1-.5a1 1 0 0 1-1 .6Z"/><path fill="#b0bac8" d="M200.8 279q0 .9-.8.5.3-.5.8-.4"/><path fill="#e1e7ee" fill-opacity=".3" d="M261 71.8q0 1.2 1.3 1.2l-.3 1q-1.6 0-2.8 1l-.4-1q.8-1.5 2.1-2.2"/><path fill="#e3eaef" stroke="#e3eaef" stroke-width=".5" d="M283.2 17c2.4 1.1 9.2 2.4 10.8 4.1l-.4.9c-3 2.8-24 14.9-24.4 17.1a288 288 0 0 0-22.2-.8q.2-.6.7-1c2.2-.7 3.5-.4 5.4-2l29.3-17q.6-.5.8-1.4Zm26.4 12c2.4-.5 8.5 3.3 9.6 5.2l-.5.7q-9.6 6-18.8 12.4-6-2.5-12.3-4.3-.6-.4-.7-1.1c3.9-3.5 7.2-3.9 11.8-5.7q.4-.4.1-.9c1.8 0 4.6-2 6.3-2.8a30 30 0 0 1 4.3-2.7q.5-.2.2-.8ZM166.8 96.2q-6 15.4-8 31.8c-2.2.3-4-.4-5.2 2l-1 .2q-4.8 2.8-9.7 5.4l-36.7 21.6-1-.2q4.6-9 10-17.3 1.6.4 3-.7c1.4-1.2 6.3-3.3 6.7-5 1.3 0 4.7-1.6 5-3a6 6 0 0 0 2.3-.4q1.9-1.7-.6-1.2-1.2.5-1.6 1.7c-1.8-.3-4.3 1.4-5 3-2-.4-5.4 2.7-7.1 3.5l-1.6.7c.2-3.4 7.6-12.8 8.7-16.5q1 0 .6-1 1.3.5 2.5-.1c7-4.5 13.7-9.5 20.7-13.7l7.2-4.5c2-3.7 3.9-4 7.9-5.2q1.1-1.4 2.9-1.1ZM386 128.8c1.9 1.6 5.5 4.7 6 7.2q-15.2 9-30.2 18.4-1.7 1.4.5 1.7l-7.4 4.4c-2.1.6-2.2-1.5-3.8 1.5q1.1-7.5 2.5-15 1.2.1 2.3-.4c5.4-3.4 26.8-15 30-17.8ZM176.3 200l1-.6a100 100 0 0 0 18.1 17.5q-8.5 5.5-17.4 10.7l-1.2.5-2.4 1.4q.8 1.2-.3 2l-6.2 4.3a85 85 0 0 1-21.1-17.6c6.8-2.7 22.2-14 29.5-18.2Zm261.4 83.7 1 .1q.4 5.3.3 10.3c-2.7.1-16.8 10.1-19.9 12.3l-.9-.4c-.6-3-.3-8 0-11.3l3.8-2q1.5 0 1.9-1.6 1.1 0 2.1-.5 5.7-3.7 11.7-6.9Zm-340.6 94q1.1 5.2.7 10.4c-1.9 1.4-8.1 4.2-9 5.8a4 4 0 0 0-1.9.5 147 147 0 0 1-11.6 6.7c.3-3.5-.5-7.5.4-10.9 5.2-2 15.5-9.8 21.4-12.5Zm9 84q3 4.9 8.1 7.5-.9 1.2-2.2 1.8c0-2.7-3.6.6-4.6.9q-.4.5-.2.9-2.2.6-4.2 1.6-5 3.3-10.1 6-2.8-4-5.2-8.2c3.5-.4 14-9 18.4-10.4Zm29.8 12.4 21-.2q-1.4 1.5-3.2 2.6-3.1 1.5-6.3 3.4a3 3 0 0 0-.5 1.9q-1.1 1.2-2.8 1.1c-.8-1.2-2.3.4-3.2.8l-6.4 4.2q-7 4-14.2 7.7-1 .6-1.3 1.7a29 29 0 0 1-11.4-5c6.4-2.8 19.6-12.2 26.5-16.2q.8-.3 1.2-.8.7-.4.6-1.2Z"/><path fill="#e3ebf0" fill-opacity=".4" d="M358 69.6v1l-1.3.2q.5-.9 1.4-1.2m-228 61.5c-.4 1.3-3.8 2.8-5 3 .7-1.6 3.2-3.4 5-3m284 48.8q-.6 1.2-2 1.2.6-1.4 2-1.2m-293 3.4q-.4.7-1.3.6.5-.5 1.3-.6m237 5.7q-1 2-3 2 .8-1.8 3-2"/><path fill="#e2eaef" stroke="#e2eaef" stroke-width=".5" d="m340 154.7 1.3.3q-.3 3.7-1.4 7.2-.7 0-.7.7-1.1.2-2.1.8c-11 6.2-23.5 14.9-34.8 19.9q-2.2.3-.4-1.2 15.6-11.5 31.3-22.8c2-2.2 4.2-3.4 6.7-4.9ZM98.7 231.2c.9 4.9-.3 8.5-.7 13.2q-1.1-1.2-2.4-.2l-23 13.2c.4-4-.4-8 1.5-11.6a17 17 0 0 0 3.5-1.5q5.9-4.3 12.4-7.8 1.7-1.3-.5-1.7a25 25 0 0 1 6.2-3.5q1.5-2.2 3-.1Zm335 2.5h1.2c1.4 1 1 6.5 1.6 8.3q-.6.6.1.8 1.1 10.3 1.4 20.5c-2.1 0-16.8 10.5-20.1 12q-.4-16.3-2.2-32.4 1.3.7 2.5-.1zm-28 65.2q0 1-.6 2l-.3 1.2q-2 0-3 1.8c-1.5 0-6.2 2.6-7 4q-2.1.2-3 2-1 0-1.8.7c.6 1 1.8.1 1.8-.7q2.6.5 3-2c1.4.4 6.8-2.4 7-4q1.7 0 3-1h.7a11 11 0 0 1-.6 5.1l-109.3 63.2q-1.3.7-2.7 1a2 2 0 0 1 1-1.6l107-69.1a19 19 0 0 1 4.8-2.6Zm33 2.9q.3 5-.4 10l-.5 1.3-14 8.4q-1 .6-1 1.8c-.6 1.9-3.3 2.9-5 3.6q0-.6-.6-.7-.2-6.6.4-13.2 1.4.6 2.6-.2 9.5-5.4 18.6-11Zm-288.6 17c-.9 2.5-37 26.8-42.1 30.3q-.6-3.5 0-7 2.2-.3 4.2-1.4a6 6 0 0 0 2.7-.3q4-2.3 7.9-5l1-1.2c2.4-2.7 20-11.6 24-14.6zM95 352.2l.6-.4q.7 11.3 1.6 22.4-1.4-.6-2.6.2c-6.4 4-13.5 7.2-19.4 11.8V364h.6q2.2-.3 2.5-2.5 1.2 1.1 2.5.1a4 4 0 0 0 2.6-3c1.5 1.2 2.1-.2 3.2-1 2.2-1 6.9-3.8 8.4-5.4Zm-13.1 19q-1.5-.4-2 .9-2 0-3.1 1.6c1.2.9 3.3 0 3.1-1.6q1.4.2 2-1c.8.1 4.4-.7 2.6-2-1 .3-2.7.7-2.6 2Zm319.9-1.1 1-.1q0 2.1-1 4.1l-35 20.2a76 76 0 0 0-6.9 4.5q-1 .3-1.7-.3 17.9-12 36.1-23.7l1.2-1.4c3.3-.4 2.6-.4 4.5-2.8q.9-.4 1.8-.5ZM100 424.7c1.1 10.5 0 21.3 2.9 31.6-2-.2-15.7 8.3-18.4 9.9a99 99 0 0 1-4.8-17.1l.4-1.2q1 .3 1.7-.6c-.5-.8-1.6 0-1.7.6l-1 .4q-1-5-1.5-10.3c3.2-.1 18.6-11 22.4-13.3Z"/><path fill="#6c6f6f" fill-opacity=".6" d="M405.2 301q.4.9.5 2h-.8v-1z"/><path fill="#727579" fill-opacity=".6" d="m436.6 242 .1.8q-.6-.2-.1-.8"/><path fill="#e3ebf0" fill-opacity=".5" d="M353 192a4 4 0 0 1-3 2q.7-2.1 3-2M90 267q.4-1 1.6-1c1.2.7-1 1.2-1.5 1m-9.8 181c0-.8 1.2-1.5 1.7-.7q-.6.9-1.7.6m346.5 10.4c.4-.8 1.3-2.4 2.4-1.7 0 1.2-1.4 1.5-2.4 1.7m-80.4 8.6-.3 1h-1.3q.4-1 1.6-1"/><path fill="#e3ebf0" fill-opacity=".4" d="M114 187.2q-.4.9-1.3.8.6-.6 1.2-.8m267 .9q-.6 1-2 .9.6-1.2 2-1m-280.6 14q-.7.6-1.7.6a2 2 0 0 1 1.7-.6m-17.2 11q-.6.4-1.4.6.5-.7 1.4-.6M357 313h1.1q-.2 1-1.2 1zM82 371q-.5 1.2-1.9 1 .5-1.2 2-1m274.2 136.3q1.8-.5 3.5-.2c.8 1.5-3.2 1-3.5.2M274.2 66l-.2 1h-1q.2-1 1.1-1m-114.9 95.4q-.7.5-1.7.5.8-.5 1.7-.5m-11 9.6q-.7.6-1.5.7.5-.7 1.5-.7m-17 11q-.7.6-1.6.7a3 3 0 0 1 1.7-.7m13.7 7c0 1.1-1.3 1-2 1q.6-1.2 2-1m-57 13.2q-.3.9-1.3.7.7-.5 1.3-.7m17.3 11.7-.3 1.2h-1.3q.5-1 1.6-1.2M391.9 291l1 .1q-.2 1-1.2 1zm3 17q-.5 2.4-3 1.9a3 3 0 0 1 3-2m-41.2 193.8.2 1-1 .4q0-.9.8-1.4M237.6 507l4.5-.2c.2 2-4.2 1.6-4.5.2m63.2.4q2.1-.3 4.1 0c.2 1-2 .6-2.5.7q-1 0-1.6-.7"/><path fill="#e3ebf0" fill-opacity=".5" d="m269.1 65.9 1 .2q-.4 1-1.3 1 0-.7.3-1.2m126 223 1.2.3a2 2 0 0 1-1.6.5zm-27 17 1 .1q-.5.8-1.5.6zM82 371c-.1-1.3 1.7-1.7 2.6-2 1.8 1.3-1.8 2.1-2.6 2M281.2 62l-.4 1.1-1.2-.4q.7-.6 1.6-.6M130 131q.4-1 1.6-1.7 2.5-.4.6 1.3a6 6 0 0 1-2.2.5m279 52q-.5 1.3-2 1 .5-1.3 2-1M403 284h1.4a2 2 0 0 1-1.6 1zm-19 12.1h1.1q-.3 1-1.4 1zm8 13.8c0 .8-1.2 1.7-1.8.7q.7-.8 1.8-.7M379.7 507q1.8-.3 3.7 0c-.2 1.3-3 1.3-3.7 0"/><path fill="#e3ebf0" fill-opacity=".4" d="m286.1 59.2-1 .8q0-1 1-.8M147 168.2q-.1 1-1.2.8.4-.6 1.2-.8m270 9.8a3 3 0 0 1-3.2 2q1-2 3.2-2M86.4 211l-1.1 1q0-1.1 1.1-1m.7 58q-.8 1-2 1 .5-1.2 2-1M402 304c-.3 1.5-5.7 4.3-7 4 .7-1.5 5.4-4 7-4m-16.8 95-.1 1.2-1.2-.2q.1-1 1.3-1"/><path fill="#e2ecf0" fill-opacity=".3" d="M180.9 53.2q.7-2 2.6-2.2c1.2 1.2-2 2-2.6 2.2m91.3 14-1 .9q-.2-1.1 1-.9M138 193a7 7 0 0 1-5 3q1.8-2.5 5-3m-48 8q-.3 1-1.3.8zm-10 72c-1 1.7-3 3.2-5 3q1.9-2.5 5-3m27-.4 1.3.4-.4 1.2-1 .1zm297.9 29.5v.8a5 5 0 0 1-3 1 3 3 0 0 1 3-1.8m-301 200.6h2l1.5.3c-.8 1.3-3.4 1.8-3.4-.3"/><path fill="#e3ebf0" fill-opacity=".4" d="M201.2 49.9c-.4.8-2.1 2.7-3 1.7a3 3 0 0 1 3-1.7M140 172.3q-.4.8-1.3.6.7-.5 1.3-.6M384 186a4 4 0 0 1-3 2q.6-2.3 3-2m-241 3.8a7 7 0 0 1-5 3.1c.3-1.2 3.7-3.2 5-3m-25.7 1.1q-.6.6-1.5.8.6-.9 1.5-.8m237.7 0q-.7 1.2-2 1 .6-1.2 2-1m63.2 115 1 .4-1.4.7zM80 372c.2 1.6-2 2.5-3.1 1.6q1.2-1.5 3.1-1.6m319.3 18.9-.2 1h-1.2q.3-1 1.4-1m-7 4.2-.3 1h-1q.3-1 1.3-1M139 453.9c-.5 1.4-3.6 3-5 3l.8-2c1.6 0 2.7-1.6 4.2-1m195 53.4 3.7-.2q0 1.1-1.2 1c-.4-.3-2.7.2-2.5-.8"/><path fill="#424e66" fill-opacity=".2" stroke="#424e66" stroke-opacity=".2" stroke-width=".5" d="M204.8 398.2q0 .8-.8 1.2l-8.6 5.3q-.2-1-1.1-1.3l8.6-5q1-.5 2-.2Z"/><path fill="#425173" fill-opacity=".1" stroke="#425173" stroke-opacity=".1" stroke-width=".5" d="M305 85.4q.6-.2.8.4l-.6.6q-1-.4-1.1.6-1.4 1-3.2 1c.3-1.6 2.5-3.2 4-2.6Z"/><path fill="#4d5566" fill-opacity=".1" stroke="#4d5566" stroke-opacity=".1" stroke-width=".5" d="M381.7 399.2v1l.6 1q-1 0-1.6.8a5 5 0 0 0-2 .3l-1-.4z"/><path fill="#565859" d="M243 506.7h-1l-4.4.2c1.1-.8 4.6-1.5 5.5-.2"/><path fill="none" d="m116.3 138.3 1.6-.7.3 1.4q-1.4 1.1-3 .7.2-.8 1.1-1.4"/><path fill="#424343" fill-opacity=".5" d="m75.3 401.1.8-.5v1.6q0 .5-.3.8-.6-.8-.5-1.9"/><path fill="#373737" fill-opacity=".3" stroke="#373737" stroke-opacity=".3" stroke-width=".5" d="M228.7 14.2q0 .8-.9.8l-.7-.3q.7-.8 1.6-.5Z"/><path fill="#47474e" fill-opacity=".1" stroke="#47474e" stroke-opacity=".1" stroke-width=".5" d="M417.3 326.2q.8 0 .6.7l-.6-.1z"/><path fill="#2c2f2f" fill-opacity=".4" d="M148.6 77q.3.8-.6.8z"/><path fill="#535659" fill-opacity=".4" d="M95.7 351v.7l-.6.4q-.2-.8.6-1.1"/><path fill="#313636" fill-opacity=".2" stroke="#313636" stroke-opacity=".2" stroke-width=".5" d="M75.2 363q.8.1.7 1l-.7-.1z"/><path fill="#292929" fill-opacity=".2" stroke="#292929" stroke-opacity=".2" stroke-width=".5" d="M402.9 369.2v.7h-1q0-.8 1-.7Z"/><path fill="#262626" fill-opacity=".4" d="m107 272.6-.1 1.7q-.4 0-.8-.3 0-.9.9-1.4"/><path fill="#282828" fill-opacity=".3" stroke="#282828" stroke-opacity=".3" stroke-width=".5" d="M125.6 120.8q.4 1-.6 1 .1-.6.6-1Z"/><path fill="#252525" fill-opacity=".4" d="M408.7 454.8q.3 1-.8 1z"/><path fill="#2f2f2f" fill-opacity=".5" d="m124 462.3.9-.5v1.1z"/><path fill="#404343" fill-opacity=".3" stroke="#404343" stroke-opacity=".3" stroke-width=".5" d="m414.5 166.9.4 1q-.6-.3-.4-1Z"/><path fill="#2a2a2a" fill-opacity=".3" d="m101.6 163 .6.7H101z"/></svg>