<svg xmlns="http://www.w3.org/2000/svg" style="shape-rendering:geometricPrecision;text-rendering:geometricPrecision;image-rendering:optimizeQuality;fill-rule:evenodd;clip-rule:evenodd" viewBox="0 0 512 512"><path fill="none" d="M0 0h512v430c-1.5-.7-.2-5-.8-6.4-1.6-23.5-5.1-46.7-1.5-70v-320c-1-14.9-7.3-21-20.7-26.3q-.2-1.3-1.4-1c-2.4-.9-20.5-.5-23.3-1-2-1-5.2-1.3-6.6.7l-10.6-.2c-.4-2.3-7-1.3-7.4 0q-6.2.3-12.5.1c-1-2.3-6.3-2-7.5 0-4.8 0-15.4.5-19.5-.3-1.8-1.9-3.5-1.2-5.7-.5q-.6.3-.8.9h-15.3c-1-1.9-5.1-1.9-6.6-.4q-10.3.6-20.5.4c-1.5-2.5-6-2.2-7.6 0l-20.3-.1c-.8-1.8-6-1.8-6.8 0H298a2 2 0 0 0-1.5-1.3 7 7 0 0 0-6 1.3h-18.2c-1.4-2-4.8-2-6.6-.5-3.3 1.1-17.1.2-21.5.6-.3-1.3-2-1.3-3-1.5q-2 0-3.5 1.2-12.8.5-25.5.2c-.8-1.9-6.5-1.6-6.4-.3q-8.2.6-16.6.4c-.5-1.9-5.6-1.9-6.4-.4-5.3.8-15.7.2-21.6.4-.4-2-6.2-1.8-6.6 0-3-.2-9 .5-11.5-.5-1.6-1.5-5-1.4-6.5.4h-24.3a6 6 0 0 0-6-1.2q-1.1.3-1.6 1.3l-13.5-.1c-1.7-2.4-4.4-1.3-6.7-.9q-.7.3-.8 1c-6.3-.2-19.2.4-24.6-.4-1.5-2.6-3.4-1-5.7-.6q-.6.3-.8 1L34 5.8c.3-1.2-3.8-.9-4.6-.7-.7.4-4.7 2-4.6 2.7a76 76 0 0 0-9.6 5.2q-1.2 0-1.5 1.3-.7.1-1.5.7a4 4 0 0 0-2.6 2.9q-.6.4-.5 1.1c-18 34-1.5 72.1-6.9 108.5 2 58.8.5 119.1-1 178C.3 362.2.7 418 4.9 474.6c-1.5.8-1.3 3.9.4 3.4 2.2 12-1.5 18.6 12.2 25l5.2 2c.7 1.8 3.8.9 5.3.8q11.4.3 22.7.3c.4 1.8 6.1 1.7 6.4.2q7.8-.5 15.5-.2c1.5 2.1 6.6 2 7.7 0h25.4c1.1 2 6.5 2 7.7 0h14.3a4 4 0 0 0 3.8 1.5c1 0 3.5-.3 3.9-1.5h15.3q1.2 1.5 3 1.6c1-.2 4-.2 4.5-1.5q8.8-.3 17.5 0c1 2.2 6.9 1.7 7.6 0 3.9 0 16.7-.7 19.4.4q3.6 2.1 6.6-.5h25.3c1 2.2 6.9 1.9 7.8 0h18.3c.8 1.8 6.4 2.3 7.4.1q12.8-.4 25.5 0c1 1.7 6.9 2.3 7.7-.2h13.4c.8 2.2 6.9 2 7.6 0 4.9.1 14.2-.3 18.5.3q1.6 1.4 3.7 1.4c1-.4 3.3-.3 3.8-1.6 6.1 0 21.5-.5 26.5.3q3.2 2.6 6.4 0c3-.8 10-.3 13.4-.3q3.3 2.7 7 .7.6-.2.8-.8l12.3.1q3 2.6 6.7.9.6-.3 1-.9c2.8 0 7.8-.5 10.4.3q.3.7 1.2 1 2.8 1.2 5.2-1a116 116 0 0 1 18.7-.2 5 5 0 0 0 6 .9c1.8-1.4 11.2-1 14-1-.2.9 1.6.8 2 1 .3 1.4 2.4 1 2.1-.1l2.6-1q1.2 0 1.2-1c1.8-1 4-1.3 5.3-2.9l.7-.1c.5-.7 2.4-1 2.3-2q2.4-1 4.6-2.3 1 .4 1.2-.8 3-1.5 2.4-5l-.1-1.2q.8 0 .7-1a64 64 0 0 0 8.5-29q0-.6.6-.7v52H0zm35.2 11.2q3.8-.4 7.5-.3.1.6-.4 1L31 18.4q-1 .4-1.7 0 2.7-3.9 5.9-7.2m25 0q6.7-.3 13.7-.1C72.4 13.9 45 27.8 40 31.7q-.9 0-.9-.9 1-.5 1.8-1.2 9.3-9.5 19.1-18.5m31.1 0h3.6c-1 1.9-8.5 5.3-10.6 6.6-1.3.7-2.4 3-4 1.5a10 10 0 0 1 2.9-1.6zm21-.1h14.4q-1 1.4-2.7 2.2L80 39c-1-.2-4 2-3.7 0q18-13.7 36-27.8m48.9.4c2.5-.9 7.8-.4 10.6-.3q-.5 1.5-2.1 2L121 41.5q-1.2 0-1.3-1.2 20.8-14.2 41.5-28.7m28 0q2.7-.7 5.6-.3c-1.2 2.7-21 12.2-24.7 15.3q-1.2-.2-1.5-1.5a498 498 0 0 0 20.6-13.5m23 0c3-1 11-.2 14.6-.4 0 1.5-2.4 2.3-3.5 3q-.8-.2-1.4.6l-.6.6q-1-.3-1.2.7l-5.3 2.8a23 23 0 0 1-5.5 3.1q-1 0-1 1-3 1.5-6 3.4-1-.3-1.3.7l-5 2.8-.7.5q-1-.3-1.2.7l-5.2 2.8a33 33 0 0 1-5.6 3.2q-1 0-1 1-3 1.4-6 3.3-1-.3-1.3.7l-3.7 2.1q-1-.2-1.3.7l-.7.5q-1-.3-1.2.7l-3.8 2q-1-.1-1.2.7l-.8.6q-1.1-.4-1.2.8l-3.8 2.2q-1-.3-1.3.7-3 1.5-5.7 3.3-1-.3-1.2.7l-3.9 2q-1 0-1 .9l-.9.4q-1.2-.4-1.2.7-2.2 1-4.1 2.4l-1-1 1.8-1.6q.9.4 1.3-.5.7-.8 1.7-1.4 1 .3 1.2-.7l1.7-1.3q1 .3 1-.8l2-1q1 0 1-1l2-1.1q1 0 1-1l2-1q1 0 1.1-1l1.8-1q1.1 0 1-1l2-1q1.2 0 1-1 1.2-.4 2-1 1 0 1.1-1l2-1q1 0 1-1l2-1.2q1 .1 1.3-.8l1.8-1.2q1 .1 1.2-.8l1.8-1.2q.9 0 1.2-.8l1.7-1.3q1.2.4 1.2-.8 1-.4 1.8-1.2 1 .3 1.2-.8 1-.5 1.8-1.2 1 .2 1.2-.8 1-.5 1.8-1.2 1 .3 1.2-.8l1.8-1.2q1 .3 1.2-.8 10.8-7 21.3-14.4m32 0c2.5-1 7.8-.3 10.6-.4q-.5 1.5-2.1 2.1l-70 40.5q-1-.4-1-1.6 31.4-20 62.5-40.5m28 0c2.3-.8 6-.3 8.6-.4q-.6 1.5-2.1 2.1l-61 35q-1 .6-1.6 1.3-1.2-.2-1.3-1.4l2.5-1.3zm26-.4h7.6q-.4 1.6-2.1 2.2l-60.7 35q-1.3-.1-1.4-1.5l2.7-1.2q25.4-16.5 51.3-32.5 1.4-.9 2.6-2.2m26 0h9.7q0 .7-.8 1-1 0-.9.9l-.9.3q-1-.2-1.2.8l-3.8 2.2q-1-.3-1.2.7l-5.2 2.7-.6.6q-1-.3-1.2.7l-5.3 2.8a38 38 0 0 1-5.5 3.3q-1-.2-1.1.8l-5.9 3.4q-1-.3-1.2.7l-3.8 2q-1 0-1.3.7l-.7.6q-1-.2-1.2.7l-3.8 2.1q-.9 0-1.4.6l-.6.6q-1-.4-1.2.8l-3.8 2.2q-1-.3-1.3.7l-3.7 2q-.9-.1-1.3.7l-.7.6q-1-.4-1.3.7l-3.7 2.1q-.9-.2-1.3.5l-.7.7q-1-.3-1.2.7a37 37 0 0 1-5 2.6l-.8.7q-1-.4-1.2.8l-3.8 2.2q-1-.3-1.3.7l-3.7 2.1c-.4.1-1.5-.2-1.2.6l-.8.6q-1.2-.4-1.2.7-2.2 1-4 2.4-.9-.5-1.5-1.2 1.2-.7 2.1-1.5 1.2.4 1.2-.7a64 64 0 0 0 6.8-4.3q1 .3 1.2-.8 1-.4 1.8-1 1 0 1.1-.9 2.1-1 3.9-2.3 1 .3 1.2-.8l1.8-.8q1 0 1-1l4-2.4q1 .2 1.2-.8l1.8-1q1 .2 1-.9l4-2.3q1 .3 1.2-.8l1.8-1.2q1 .3 1.2-.7l3.2-1.7q1.7-1.4 3.6-2.6 1 .3 1.2-.8l1.8-1q1 .2 1-.8a26 26 0 0 0 4-2.4q1 .4 1.2-.8l1.7-1q1 .1 1.2-.8 3.5-2 7-4.4.9.3 1.2-.7l6.7-4.3q1 .3 1.2-.7l1.7-1q1 0 1.6-.7 3-2.3 6-4.2m27 0h9.6c0 1.7-4.3 3.2-5.5 4.2q-1-.3-1.3.7l-3.8 2.1q-.8 0-1.1.6l-.8.6q-1-.3-1.2.7l-3.7 2q-1 0-1.5.8a28 28 0 0 1-5.6 3.2q-1.2 0-1 1l-4 2q-.9 0-1.3.8l-.7.5q-1-.3-1.3.7l-3.6 2q-.9 0-1.4.7l-.7.6q-1-.4-1.2.8l-3.9 1.9q-1 0-1 .7l-.9.6q-1-.4-1.2.8l-3.8 2.2q-1.1-.3-1.3.7l-5 2.7-.7.6q-1-.3-1.3.7l-3.7 2q-.9 0-1.2.7l-.8.6q-1-.4-1.2.8l-3.8 2q-.9-.1-1.2.7l-.8.5q-1-.4-1.2.8l-3.8 2.2q-1-.3-1.3.7l-3.6 2q-1 0-1.3.7l-.8.6q-1.2-.4-1.2.7l-3.8 2q-1-.1-1.2.7l-1 .8q-1.2 0-1.4-1.2l2-1.6q1.2.4 1.3-.7l3.7-2.3q1.1.4 1.2-.8 1-.5 1.8-1.2 1.2.3 1.3-.7l3.7-2.3q1 .4 1.2-.8l1.7-1q1.2.3 1.2-.8l3.9-2.4q1 .3 1.2-.8l1.8-1q1 0 1-.8 2-1 4-2.4 1 .3 1.2-.8l1.9-1q1 0 1-.9 2-1 3.9-2.3 1 .4 1.2-.8l1.8-1q1 .2 1-.8 2-1 4-2.4 1 .3 1.2-.8l1.8-.9q1 0 1.1-1a23 23 0 0 0 4-2.3q1 .4 1.1-.8l1.8-1q.9 0 1.5-.6 1.5-1.5 3.5-2.6 1 .3 1.2-.8l1.7-1q1 0 1.6-.6 1.5-1.5 3.5-2.6 1 .3 1.2-.7l1.8-1.1q.8 0 1.5-.6 1.5-1.5 3.5-2.6 1 .3 1.2-.7 1.4-.7 2.3-2m27 .4a18 18 0 0 1 5.6-.4q-1.3 1.3-2.9 2.2l-32.8 19.1a2 2 0 0 1-1.3-1.4q15.8-9.4 31.4-19.5m23-.4q4.3-.1 8.7.2l-2.6 2q-1-.3-1.3.7l-3.7 2q-.9 0-1.3.7l-.7.6q-1-.3-1.2.7l-3.8 2.1q-.9-.2-1.5.6a25 25 0 0 1-5.5 3.3q-1 0-1 1-3 1.4-6 3.3-1-.3-1.2.7l-3.7 2q-.9 0-1.4.8l-.7.5q-1-.3-1.2.7l-3.8 2q-.9 0-1.4.6a33 33 0 0 1-5.5 3.5q-1.2-.2-1 .9-3.2 1.4-6 3.3-1.2-.4-1.3.7l-3.7 2q-1 0-1.5.7a42 42 0 0 1-5.6 3.4q-1 0-1.5.7a51 51 0 0 1-5.5 3.5q-1-.3-1.3.7l-3.6 2q-1 0-1.4.7l-.7.6q-1.2-.4-1.2.7-2 .9-3.8 2.1-1-.2-1.5.7l-5.4 3.2q-1.2-.2-1.6.8l-3.7 2.6q-1-.4-1.5-1.4l2-1q1.2.2 1.5-.8l3.6-2.5q1.3.5 1.2-.7 2.1-1 3.8-2.3 1.2.3 1.2-.7l1.9-1q1 0 1.1-.8l3.8-2.5q1 .3 1.2-.7l6.7-4.1q1.2.1 1.2-1 2.1-.8 3.9-2.2 1 .3 1.2-.7l6.8-4q1 0 1-1 2.2-1 4-2.3 1 .4 1.2-.8l1.7-1q1 .2 1.5-.6 1.6-1.5 3.6-2.4 1 0 1-.9 6.2-3.4 12-7.3 1 .3 1.3-.7l3.7-2.3q1 .3 1.2-.8l1.8-1q1 .2 1.4-.7l3.7-2.5q1 .4 1.2-.7l6.7-4q1 0 1-1 1 0 1.5-.9m64 0q4 .2 7.7 1.2-23.4 14.1-47 27.6a21 21 0 0 1-7.7 1q1.4-1.6 3.4-2.7L462 13.5q1.8-1 3.3-2.4M15 42q-.7-2.4.3-4.7a83 83 0 0 0 9.7-6q.9-.2 1.6.4-5.2 4.4-10 9.3zm481-10.6c1.2-.3 1 1.6.7 2.2L475 46q-.9-.4-.6-1.5zm-81 12.3q1.1.6 1 2-30.2 17.2-60.3 34.7a2 2 0 0 1-1.8.2q-.6.2-.8-.3 30-18.8 60.3-36.8zm83.3.3c-.5 2.3.3 6-1.5 7.8-5 2.7-17.1 10.5-21.5 12q-.4-3.2-.2-6.5l1.4-1.2c3.3-2 19.4-12.8 21.8-12.1M36 56q.6 1.5-.3 2.9C29 63.8 21.1 70.6 14.3 74.8v-6.6Q25 62 36 56m427.8 8.2q.2 3.3 0 6.7l-.7.3q-1-.1-1 .8-3 1.5-5.8 3.3-1-.3-1.3.7l-5.2 2.7a24 24 0 0 1-5.5 3.3 2 2 0 0 0-1.5.7 41 41 0 0 1-5.5 3.6q-1-.3-1.3.7l-3.7 2q-.9 0-1.2.8l-.8.5q-1-.3-1.3.7l-5.1 2.7a22 22 0 0 1-5.7 3.3q-1 0-1.4.8-1.5 1.3-3.4 2.2-1 0-1.5.7l-.6.6q-1-.3-1.3.7l-5 2.7-.7.6q-1-.3-1.2.7l-5 2.7-.8.6q-1-.3-1.2.8l-3.8 2q-1-.1-1 .8l-1 .4q-1-.4-1.2.8l-3.8 2.2q-1-.3-1.2.7-2 1.2-3.9 2-.8 0-1.2.8l-.7.5q-1-.3-1.2.7l-3.8 2.1q-.9 0-1.3.6l-.7.6q-1-.3-1.2.8l-3.8 2.2q-1-.3-1.3.7l-5 2.8-.7.5q-1-.3-1.2.7l-5 2.7-.8.6q-1-.4-1.2.7-1.8 1.2-3.8 2-1-.1-1.1.8l-.9.5q-1-.3-1.2.8-2 .9-3.8 2.2-1.2-.4-1.3.7-2 .9-3.7 2.2-.9-.3-1.2.5l-1 .8q-1.3-.1-1.3-1.5l2-1q.9.1 1.3-.7 1.8-1.5 3.6-2.6 1.2.4 1.3-.7 2-1 3.7-2.3 1.2.4 1.2-.8l1.8-1q1 .3 1.1-.6l.9-.6q1 .3 1.2-.8l1.7-1q1 .2 1.1-.9 2.1-1 4-2.3 1 .3 1.2-.8l1.8-.9q1 0 1.3-.8l.7-.5q1 .3 1.2-.8l1.9-1q1 .1.9-1 2-.8 4-2.2 1 .3 1.2-.7l3.8-2.3q1 .3 1.2-.8l1.9-1q1 .2 1-1 2-.8 3.9-2.2 1 .3 1.2-.7l1.7-1q1 .1 1.4-.7l.7-.6q1 .4 1.2-.8l3-2 3.8-2q1 .1 1-.9 2-1 4-2.3 1 .4 1.2-.8l1.7-1q1 0 1.6-.6 1.6-1.5 3.6-2.5.9.2 1.2-.8l6.7-4.1q.8 0 1.5-.6 1.5-1.5 3.5-2.6 1 .3 1.3-.7l6.7-4.1q1 0 1.5-.7 1.7-1.4 3.5-2.4 1.1.3 1.3-.8l6.7-4a2 2 0 0 0 1.5-.6q1.5-1.6 3.5-2.5 1 .2 1-1 2.2-.8 4-2.2 1 .3 1.2-.7l1.9-1q.9 0 1.4-.8 1.5-1.4 3.5-2.3 1 0 1-.9zm33.5 9.8q0 1.5-.5 2.8c-3.6 2-18.1 11.5-21.1 11.2l.2-2c3.2-2 18.7-12.3 21.4-12m-461 11-.1 1.8q-.9.3-1 1.1l-21 14v-4.7C17 95 33.6 84.4 36.2 85m460.6 2.1q.4 2.4.3 4.8-.8.7-2 1.2a2 2 0 0 0-1.5.5 26 26 0 0 1-5.4 3.5q-.8 0-1.5.6a52 52 0 0 1-5.5 3.6q-1-.3-1.3.7l-3.6 2.1q-1-.3-1.3.7l-.8.5q-1-.3-1.2.7a38 38 0 0 1-5 2.7l-.8.6q-1-.3-1.2.7a38 38 0 0 1-5.3 2.7 43 43 0 0 1-5.5 3.6q-1-.3-1.3.7l-5.7 3.3q-1-.3-1.3.7l-5.2 2.8a36 36 0 0 1-5.5 3.3q-1 0-1.5.7a43 43 0 0 1-5.5 3.5q-1-.3-1.3.7l-3.7 2q-.9 0-1.2.7l-.8.6q-1-.3-1.2.7l-5.3 2.7a27 27 0 0 1-5.5 3.3q-1 0-1 .9-3 1.5-6 3.4-1.1-.4-1.2.7l-4 2.2c-.3 0-1.3-.3-1 .5l-.8.6q-1.2-.4-1.2.7l-3.8 2q-1.2-.3-1.3.8l-1 .9-1-1.4q1.8-1.3 3.7-2.4 1.3.3 1-1 2.2-.7 4-2.1 1.2.3 1.3-.8 2-1 3.7-2.3 1.2.4 1.2-.7l6.9-4.1q.9 0 1.3-.7 1.6-1.4 3.6-2.3 1 .2 1-.8l4-2q1.1 0 1-1 2.2-1 4-2.4 1.2.3 1.3-.7l6.7-4q1 0 1.4-.8l3.6-2.3q1 .2 1-.9l4-2q1.1 0 1-1 2.2-1 4-2.3 1 .3 1.2-.8l3.8-2.2q1 .4 1.2-.8l3.2-1.6q1.6-1.5 3.6-2.3 1 .1 1.1-1 2-.9 3.8-2.1 1.1.1 1.2-1a22 22 0 0 0 4-2.2q.9.3 1.2-.7l3.7-2.3q1 .4 1.2-.8l1.8-.9q1 0 1.4-.7 1.6-1.4 3.6-2.4 1 .2 1-.9a21 21 0 0 0 4-2.3q1 .3 1.3-.7l3.7-2.3q1 .4 1.2-.8zM74 92.2c.9 0 0 1.4-.1 1.8a3424 3424 0 0 1-59.8 39.8 57 57 0 0 1-.2-7.4 5143 5143 0 0 1 59-34q.5-.3 1.1-.2m388.7 2q.3.8.2 1.7-.6.8-1.4 1.2l-20.6 12-.7-1.5q11.2-6.8 22.5-13.4m33.1 8.5q1.3.5 1.3 1.7.2 3.8-.3 7.4l-.6.3q-.9-.2-1.3.6a28 28 0 0 1-5.7 3.3q-1 0-1 1l-5.3 2.8-.7.5q-1-.3-1.3.7l-3.7 2.1q-.9 0-1.5.7a42 42 0 0 1-7 4 49 49 0 0 1-5.5 3.5q-1-.3-1.3.7l-3.6 2q-1 0-1.6.8a49 49 0 0 1-6.9 4 41 41 0 0 1-5.5 3.3q-1 0-1.7.6a33 33 0 0 1-5.4 3.6q-1-.3-1.3.7l-4.9 2.8-.8.5q-1-.3-1.2.7l-3.7 2q-1 0-1.6.7a28 28 0 0 1-5.5 3.4q-1-.1-1 .8-3 1.5-6 3.4-1-.3-1.3.7l-3.7 2q-.9 0-1.4.7l-.6.6q-1-.3-1.2.8l-5.2 2.6a23 23 0 0 1-5.6 3.3q-1 0-1.2 1-3 1.5-5.8 3.3-1-.3-1.3.7l-5 2.8-.7.5q-1-.3-1.2.8l-3.7 2q-1 0-1.1.9l-1 .3q-1-.4-1.2.8l-3.8 2.2q-1-.3-1.3.7l-3.6 2.1q-1-.2-1.3.7l-.8.5q-1-.3-1.3.7l-5 2.7-.7.6q-1-.3-1.2.8l-5 2.6-.8.6q-1-.3-1.2.8l-3.8 2.2q-1-.3-1.3.7l-3.7 2.1q-.9 0-1.3.7l-.7.5q-1-.3-1.2.7a41 41 0 0 1-5.1 2.8l-.7.5q-1-.3-1.2.8-2 .8-3.8 2-1-.2-1 .9l-1 .3q-1-.4-1.2.7a13 13 0 0 0-3.8 2.3q-1.2-.6-1.2.7-2.2.9-4 2.4-1-.5-1.5-1.4 1.2-.4 2.1-1.1 1.3.4 1-.8 2.2-1 4-2.4 1.2.4 1.2-.7 1-.4 1.9-1.2c.3 0 1.3.3 1-.5l.9-.6q1.2.4 1.2-.8.9-.6 1.9-.9 1 0 .9-.9 2-1 4-2.4 1.2.3 1.2-.8l1.8-1q1 .2 1.2-.7l.8-.5q1 .3 1.2-.8l1.8-1.2q1.2.3 1.3-.7l3.7-2.3q1.1.3 1.2-.8l1.7-.9q.9 0 1.3-.7l.8-.6q1 .3 1.2-.8l1.8-1.2q1 .3 1.3-.7l3.7-2.3q1 .3 1.2-.8l1.8-.9q1 0 1-1 2-1 4-2.3 1 .3 1.2-.7l3.8-2.3q1 .3 1.2-.8l1.9-1q1 0 1-1 2.1-.9 3.9-2.2 1 .3 1.2-.8l1.8-1q1 .2 1.1-.6l.9-.6q1 .3 1.2-.8l1.8-1.2q1 .3 1.3-.7l6.8-4.1q.7 0 1.5-.6 1.5-1.5 3.4-2.6 1 .3 1.3-.7l6.7-4q1 0 1-1 2.1-1 4-2.3 1.2.4 1.2-.7l1.8-1q1 0 1.4-.8 1.6-1.3 3.6-2.2 1 0 1-1 2-1 4-2.3 1 .3 1.2-.8l1.8-1q1 .2 1.5-.7 1.7-1.4 3.5-2.5 1 .3 1.3-.7l6.7-4.1q1 0 1.4-.7 1.5-1.5 3.6-2.2 1 0 1-1l7-4q.9 0 1.5-.8 1.5-1.5 3.5-2.5 1 .3 1.2-.7l1.9-1q.9 0 1.4-.7 1.5-1.5 3.4-2.4 1.2.3 1-.8 2.2-1 4-2.4 1.2.3 1.3-.7l6.8-4.3q1 .3 1.3-.7l6.7-4.1q.9 0 1.5-.6 1.5-1.5 3.4-2.4 1.2.1 1-.9 2.2-1 4.1-2.3 1.2.3 1.3-1m-470.7 3.7q1.1.3 1 1.4c-2.2 1-10.2 7.9-12.1 7V113zM69 115l-53.2 34.4a2 2 0 0 1-1.6.3v-4.4q1-.7 1.9-1.7 25.8-15 51.7-29.7 1.4-.3 1.2 1M63 133q1 0 1.1.6L16 164.3a3 3 0 0 1-1.9.4v-3.5c15.2-9.8 31.5-18.3 47.2-27.6q.8-.6 1.8-.5m433 .6c2 .8 1.1 4.5.9 6.2l-.6.2q-1 0-1.5.7a34 34 0 0 1-5.6 3.5q-.9-.1-1.2.8-3 1.6-5.7 3.3-1-.3-1.3.7l-3.6 2q-1 0-1.6.7a26 26 0 0 1-5.5 3.3 2 2 0 0 0-1.6.7 34 34 0 0 1-5.4 3.6q-1-.3-1.3.7l-3.6 2q-.9 0-1.4.7l-.7.6q-1-.3-1.3.7l-3.7 2.1q-.9-.2-1.3.6l-.7.6q-1-.3-1.2.8l-3.8 2q-.9-.3-1.2.6l-.8.6q-1-.3-1.2.8l-3.8 2.2q-1-.3-1.3.7l-5 2.7-.7.6q-1-.3-1.3.7l-3.7 2q-.8 0-1.2.7l-.8.6q-1-.3-1.2.8l-3.9 2q-1-.2-.9.9l-1 .3q-1-.3-1.2.8l-3.8 2.2q-1-.3-1.2.7l-3.9 2q-1 0-1 .8l-.9.5q-1-.3-1.2.7-1.9 1.2-3.7 2-1.1 0-1.3.8l-.8.5q-1-.3-1.2.8l-4.9 2.9q-3 1.4-5.9 3.3-1-.3-1.2.7l-3.7 2q-1 0-1.2.8l-.9.5q-1.1-.4-1.2.7l-3.9 2.2q-.9-.3-1.2.5l-.7.6q-1.2-.5-1.2.7-2.1 1-3.9 2.2-1.1-.4-1.2.8a18 18 0 0 0-4 2.4 2 2 0 0 1-1.2-1.4l7-4q1 0 1.4-.8 1.7-1.4 3.6-2.2 1 .2 1-1 2-1 4-2.3 1 .4 1.1-.7a14 14 0 0 0 3.8-2.3q1 .3 1.2-.8l3.2-1.7q1.7-1.4 3.5-2.3 1.2.2 1-.9l4-2q1.2 0 1.1-1a26 26 0 0 0 4-2.3q1 .4 1.2-.8l1.8-1q.9.1 1.5-.6 1.4-1.5 3.4-2.3 1.1 0 1.2-1l4-2.3q1 .3 1.1-.7l3.8-2.3q1 .3 1.2-.8l1.7-1q1 0 1.4-.7l.7-.5q1 .3 1.2-.8l1.7-1q1.2.2 1-1 2.3-.7 4.1-2.2 1.1.3 1.2-.7l3.8-2.3q1 .4 1.2-.8l1.8-1q.9.3 1.3-.6l.7-.6q1 .3 1.2-.8l1.7-1q1 .1 1.2-.8l4-2.4q.9.3 1.2-.7l6.7-4.1q.9 0 1.4-.6 1.6-1.4 3.6-2.4 1 .2 1-.9 2.2-1 4-2.3 1.2.3 1.3-.7l6.6-4q1 0 1.5-.8 1.6-1.3 3.6-2.3 1.2.2 1-1 2.1-.8 4-2.2 1 .3 1.3-.7l8.7-5.3q1.3.1 1.3-1.1m-435 15q.9.3 1.3 1.3L18 177.7q-1.8 1.2-3.9 2v-3.4c14.8-10 31.3-18.6 46.8-27.7m16.2 6.4-.4 1.7a6533 6533 0 0 1-62.6 39l-.1-5.4q30.7-17.8 61.6-35.4zm419.9 6.3.2 2.6-37.6 21.8q-1-.4-1-1.6l36.2-21.9q1-.6 2.2-.9M78.3 170l-.4 2-61.2 38.3a3 3 0 0 1-2.5.6v-4.6L76 170.5a5 5 0 0 1 2.3-.5m417.8 5c1.5-.3 1 2 .5 2.6l-39.9 23q-1-.3-1.1-1.5 20.1-12.2 40.5-24M79.8 197.2v1.4l-1 1q-1 1.1-2 1.8-30.2 18.4-60 37-1.2.8-2.5.6v-4q32.4-19.2 65.5-37.8m-45.5 13.1q1 .5 1 1.7L15 224q-1-.6-.8-1.9zM496 221c1.6 0 1.2 2.1.8 3q-25.4 15-51.2 29.3l-1.5 1.3q-1.4 0-1.5-1.5zM79 235q.4 1.5-.4 2.9L16.1 276c-2.3.6-1.6-3.7-.8-4.7L77 235.7q1-.5 2-.7m418.2 0q.2 3.9-.4 7.8l-2.5 1.5q-1-.4-1.2.7l-3.8 2q-.9 0-1.3.8l-.7.5q-1-.3-1.2.7l-3.8 2q-1 0-1.4.8a41 41 0 0 1-5.5 3.3q-1.1-.3-1.1.9-3 1.4-6 3.3-1-.3-1.2.7l-5.4 2.7a27 27 0 0 1-5.4 3.4q-1 0-1.4.6l-5.6 3.6q-1-.3-1.3.7-3 1.6-5.7 3.3-1-.3-1.2.7l-3.8 2.1q-.9 0-1.5.7a31 31 0 0 1-5.5 3.3q-1 0-1.5.6a39 39 0 0 1-5.5 3.6q-1-.3-1.3.7l-5.7 3.3q-1-.3-1.2.7l-3.8 2q-.8 0-1.5.7a24 24 0 0 1-5.5 3.3q-1 0-1 1l-1 .3q-1-.3-1.2.8l-3.8 2.2q-1-.4-1.2.7l-3.8 2.1q-1-.1-1.3.7l-.7.5q-1-.4-1.2.7l-5 2.6-.8.7q-1-.3-1.2.8l-3.8 2q-1-.2-1 .8l-1 .4q-1-.3-1.2.8l-3.8 2.2q-1-.3-1.2.7l-3.7 2q-1-.1-1.4.8l-.7.5q-1-.3-1.2.7l-5.2 2.6-.6.7q-1-.3-1.2.8l-3.8 2.2q-1-.2-1.3.7l-.7.3q-1-.4-1.2.7-.7.3-1.2.8c-.8 0-3 .7-2.3-.8q1.5-1.2 3.1-2.1 1 0 1.1-.9 2-1 3.9-2.3 1 .4 1.2-.8l1.8-1q1.1.2 1-.8 2-1 4-2.4 1 .3 1.2-.8l1.7-.9q1 0 1.5-.8l3.6-2.5q1.2.4 1.2-.7l3.8-2.3q1 .3 1.2-.8l1.9-1q1 0 1-1 2.1-.8 3.9-2.2 1 .3 1.2-.8l1.8-1q1 0 1.5-.7 1.7-1.5 3.5-2.5 1 .3 1.2-.7l1.7-1q1 0 1.3-.7l.8-.6q1 .4 1.2-.8l1.8-.9q1 0 1-1 2-1 4-2.3 1 .3 1.2-.8l1.8-1q.9 0 1.5-.7 1.6-1.5 3.5-2.5 1 .3 1.2-.7l3.3-1.8q1.5-1.5 3.5-2.2 1.1 0 1-1a78 78 0 0 0 7-4 2 2 0 0 0 1.6-.7q1.5-1.5 3.4-2.6 1 .3 1.2-.7l1.7-1q1 0 1.6-.6 1.5-1.6 3.6-2.6 1 .2 1.2-.8l6.7-4q1 0 1.1-1 2.1-1 3.9-2.3 1 .3 1.2-.8l1.9-.9q.9 0 1.3-.8l3.6-2.5q1 .3 1.3-.7l6.6-4q1.2 0 1-1 2.3-1 4.1-2.3 1 .3 1.2-.7l1.9-1q.9 0 1.3-.7 1.8-1.5 3.6-2.6 1 .3 1.3-.7l6.6-4q1 0 1.1-1c1.9-.4 3.6-3 5.5-2m-.3 18.1q.5 1.5-.3 2.8L459 277.5q-1 .6-2.3.6l-.6-.4q20.1-12.6 40.8-24.6m.4 14q0 3.7-.4 7.6l-2.6 1.4q-1-.2-1.4.7l-5.6 3.5q-1.1-.4-1.3.7l-5.7 3.3q-1-.3-1.2.7l-3.7 2.1q-1-.1-1.6.7a33 33 0 0 1-5.4 3.2q-1.2 0-1 1-3.2 1.4-6 3.3-1.2-.3-1.3.7l-3.8 2q-1 0-1.3.8l-.7.5q-1-.3-1.2.7l-3.8 2q-1 0-1.4.7a30 30 0 0 1-5.6 3.4q-1-.1-1.1 1-3 1.4-5.9 3.2-1-.3-1.2.7l-3.7 2q-1 0-1.5.8a45 45 0 0 1-5.6 3.3q-.9-.2-1.3.5l-.7.7q-1-.4-1.2.8l-3.8 2.1q-1-.2-1.3.8l-.7.3q-1-.4-1.2.8l-3.8 2.2q-1-.3-1.2.7l-3.7 2q-.9 0-1.4.7l-.7.6q-.9-.2-1.2.7l-5 2.8-.8.5q-1-.4-1.2.8l-3.8 2.2q-1-.3-1.3.7-.8.4-1.3 1-2.4.7-3-1.6.9-.9 2-1.4 1 0 1-1a24 24 0 0 0 4-2.3q1 .4 1.2-.8l1.7-1q1 0 1.1-.8 2-1 4-2.4 1 .4 1.2-.8l1.7-1q1.2.1 1-1 2.2-.8 4-2.2 1.2.4 1.3-.8l1.8-.9q1 0 1-1 2-1 4-2.3 1 .4 1.2-.8l1.9-1q1 0 1-.9l7-4.1q1 .1.9-1l7-3.9q1 0 1-1l7-4q1.2 0 1-1 3.6-2 7-4.2 1 .1 1.3-.8l6.7-4.3q1 .3 1.3-.7l6.8-4.2q.9 0 1.2-.8l6.7-4.3q1 .3 1.3-.7l6.7-4.3q1 .3 1.3-.7l6.8-4.3q.9.3 1.2-.7c1.6-.7 3.4-3 5.3-2M94.9 278.5q1.2 0 1.1 1.2A643 643 0 0 1 71 295q-.3-1.8 1-3zm401.4 7.6-.4 1.7-24 14.2q0-.9-.7-1.3l22.8-14.2q1-.5 2.3-.4m-453.4 6.6a2 2 0 0 1 1.5 1.2A948 948 0 0 0 17 310.3q-1 .5-2 .6l-.3-1.8Q29 301 42.9 292.7m14 5.5c-1.2 1.5-2.1 7-3.7 7.8q-1 0-1 1L16 329c-2 .2-1-6.6-.7-7.7L55 298.4q1-.4 2-.2m439 1v1.6l-28 16.5a2 2 0 0 1-1.3-1.2q13.7-8.2 27.2-16.7.9-.5 1.9-.2m.3 12.8q0 1.9-.4 3.8L443 346.2q-2-.6-.1-1.8l51-31.9q1-.5 2.3-.5m-.2 14.2c1.3 0 .8 3.9-.2 4.6l-42.1 24.5q-.8.4-1.7.6-1-.7-.5-1.9a2735 2735 0 0 1 44.5-27.8m-450 8q0 .9-.2 1.7c-5.2 3.1-27 17.3-31 18.2q0-1.5.5-3L44 334.4a3 3 0 0 1 2-.1m451 7q.5 3.9 0 7.8-18.8 11.3-38 21.9c-1.3-.8-1-3.6-1-4.9 4.5-2.9 37-24.9 39-24.8m-125.6 3c.8-.1 3.7-.7 3.5.8q-13 7.5-25.6 15.1-1.8-.4-.4-1.6 11.4-6.9 22.5-14.4m-327.3 4c1 .2.5 2.9.6 3.6l-27.4 17q-1.2.8-2.4.1l-.1-3.9c7.4-4.3 22.3-13.4 29.3-16.7m26.5-.3c2.9.2.3 1.8-.6 2.4q-6 4-12 7.5-.7-1.3.2-2.5 6.4-3.5 12.4-7.4m427.3 11.4v4.5L459 386c-1.7.5-1.5-.8-.9-1.9zM45 363c1.2.2 1.2 5.2 2 6.5-4.4 2.8-29 19.4-32.1 19.3q0-4.5.3-8.8Q30 371.4 45 363m452 11.8q1.3 0 1.5 1.3l.3 5.7-1.8 1.4-71 41.1-1-1q3.9-3 7.9-5.5l11.4-7.6q26.3-17.9 52.8-35.4M54 389a4 4 0 0 1 1.8 3.8Q36 405 16 417c-2 0-1-4.8-.7-5.9Q34.5 399.8 54 389m160.8 8.4q-.6 1.2-1.9 2a193 193 0 0 1-11 7.4c-1.2.5-5.6 2.7-5.8.6l16.9-9.8q.9-.5 1.8-.2m284.1 7.8q.7 2 0 3.8a482 482 0 0 1-22.8 13q-.3-.9 0-1.8c4.8-3.3 18.7-13.1 22.8-15m-430.8 3.2q.4-.1.6.4 0 .6-.3 1.2L51 420.4l-2 .6q-.1-1 .4-1.9 9.2-5.4 18.6-10.4zM243 412l2.2.1q1 .6 0 1.2-1-.3-.9.7-2 1-4 2.4-1-.2-1.2.8l-1.9.9q-1 0-1 1l-3.9 2.3q-1-.3-1.2.8l-1.9 1q-1 0-1 .9l-3.9 2.3q-1-.2-1.2.8l-1.9 1q-1-.1-.8.8-2.2 1-4 2.4-1.2-.3-1.3.8l-1.8 1q-1-.1-1 1-2 .9-4 2.2-1-.3-1.2.8-1 .4-1.8 1.2-1-.3-1.3.7l-3.7 2.3q-1-.4-1.2.8l-1.8 1.1q-1-.2-1.3.8l-6.7 4.2q-1 0-1.3.8l-6.7 4.3q-1-.3-1.3.7l-6.7 4.3q-1-.3-1.2.7l-1.7 1q-1 0-1.5.7-1.7 1.5-3.6 2.6-1-.3-1.3.7l-1.7 1q-.8 0-1.4.8l-3.6 2.5q-1-.3-1.2.7l-1.7 1q-1 0-1.6.8-1.6 1.4-3.5 2.5-1-.3-1.3.7l-1.6 1q-1 0-1.5.8l-3.6 2.5q-1-.3-1.2.7l-1.7 1q-.9 0-1.5.7-1.7 1.5-3.6 2.6-1-.2-1.2.7l-1.8 1q-1 0-1.5.8-1.6 1.3-3.5 2.5-1-.3-1.2.7l-1.7 1a2 2 0 0 0-1.6.7q-1.5 1.5-3.5 2.6-1.1-.4-1.2.7l-1.8 1.1q-.8 0-1.4.6-1.6 1.4-3.6 2.6-1-.3-1.2.7a6 6 0 0 0-2.4 1.9H90.2c-.4-1 2-1.4 2.5-2.2q1 .3 1.3-.7l3.7-2.1q.9 0 1.5-.6a24 24 0 0 1 5.5-3.3 2 2 0 0 0 1.6-.7 31 31 0 0 1 5.4-3.6q1 .3 1.3-.7l3.6-2q1 0 1.3-.7l.8-.6q1 .3 1.3-.7l5-2.8q2.7-1.8 5.7-3.2 1 0 1-1 3-1.4 6-3.3 1 .3 1.3-.7 3-1.6 5.7-3.3 1 .3 1.2-.8l5.3-2.7 5.5-3.5q1 .3 1.3-.7 3-1.5 5.7-3.3 1 .2 1.3-.7a41 41 0 0 1 5.2-2.7q2.6-2 5.5-3.4.8 0 1.4-.6 2.7-2 5.6-3.6 1 .3 1.3-.7l5.7-3.3q1 .3 1.3-.7l3.7-2q.9 0 1.2-.7l.8-.6q1 .4 1.2-.8l5.1-2.6.7-.6q1 .4 1.2-.8l3.8-2.2q1 .3 1.3-.7l3.6-2q1 0 1.5-.6l.6-.7q1.1.4 1.2-.7l5-2.8.8-.5q1 .3 1.2-.8l3.7-2q1 .3 1.3-.6l.8-.6q1 .3 1.2-.8l3.8-2q1 .2 1.1-1 2-.9 3.9-2 .9.1 1.3-.7l.7-.5q1 .3 1.3-.8m-164.8 4.3.7.3q-14.2 8.8-28.7 17.3l-.5-1.7L75 417.5q1.5-.8 3.2-1.3m98.7 4.4a2 2 0 0 1-.8 2l-74 45.9q-1.2.8-2.7.5a6 6 0 0 0-2.7-3.1 1 1 0 0 1-.3-.9q35.7-21 71.7-41.5v-.2q4.3-1.7 8.9-2.7m322.4.3q.6 4-.6 7.8Q488 435 477 441a1 1 0 0 1-1-.5q-.9-2.2.3-4.1l20.6-15.1a3 3 0 0 1 2.4-.4m-464.1 7q0 1-.3 2-9.7 6.1-19.7 11.9a4 4 0 0 1-.1-2.8c4.9-2.8 15.4-9.5 20-11.2m298.7 6.4 1-.3q.7-.2 1 .4-.5 1-1.6 1.7-1-.3-1.4.6l-3.6 2.6q-1.2-.4-1.2.8l-1.8 1.2q-1-.3-1.2.8l-1.8 1.2q-1-.3-1.2.7l-4.7 3q-1 0-1.7.7a48 48 0 0 1-6.4 4.6q-1-.3-1.2.8l-1.8 1.2q-1-.3-1.2.8-1 .5-1.8 1.2-1-.3-1.3.7l-1.6 1q-1.1 0-1.2 1l-2 1q-.8 0-1.3.7-4.7 3.4-9.6 6.6-1.1-.4-1.2.7l-1.8 1.3q-1-.3-1.3.7l-1.7 1q-1 0-1 1-5.1 3-10 6.3-1-.3-1.2.8l-1.9 1.1q-1-.2-1.2.8l-1.6 1q-1.1-.2-1.1 1-1 .3-1.9 1-1 0-1.5.8l-9.6 6.5q-1.2-.3-1.2.7l-1.8 1q-1 0-1 .9l-2 1.2q-.9 0-1.5.6c-.7 1.4-7 4.3-7 5.3q-7.8 0-15.5-.2c-.3-.8 3.6-2.3 4.3-2.8q1 0 1.2-1 3-1.4 6-3.3.9.3 1.2-.7l3.6-2q1 0 1.3-.8l.8-.5q1 .4 1.2-.7l3.7-2q1 0 1.5-.8 2.7-2 5.6-3.3 1 0 1-.9 3-1.4 6-3.3 1 .3 1.3-.7l3.7-2.1q.9 0 1.4-.6 2.6-2 5.5-3.3 1 0 1.6-.7 2.7-2 5.5-3.6 1 .3 1.3-.7l5.7-3.3q1 .3 1.3-.7 1.8-1.1 3.8-2 1 0 1-.8l.9-.5q1.1.3 1.2-.7l3.8-2q.9 0 1.2-.8l.8-.5q1 .3 1.2-.8l3.8-2.2q1 .3 1.3-.7l3.6-2q1 0 1.3-.7l.8-.6q1 .3 1.3-.7l3.6-2.1q.9 0 1.2-.6l.9-.6q1 .4 1.2-.8l3.7-2q1 .3 1.1-.8l1-.4q1 .3 1.2-.8a22 22 0 0 0 3.8-2.2q1.2.4 1.3-.7l3.8-2c.5 0 1.5.1 1.1-.7m-297.8 6-.3 2.4Q25.4 449 15 454.9c-1.8.6-1.3-1.8-.7-2.6Q25 446 36 440.3m336.8 5.3q.9.3 1.3 1.3-1 .5-2 1.4-1-.4-1.1.7-1 .4-1.8 1.3-1.2-.4-1.2.8l-1.8 1.2q-1-.3-1.2.8l-1.8 1.2q-1-.3-1.2.8l-1.8 1.2q-1-.3-1.2.8l-1.8 1.2q-1-.3-1.2.8l-1.8 1.2q-1-.3-1.2.8l-1.8 1.2q-1.2-.3-1.2.8l-1.8 1.2q-1-.3-1.2.8l-1.8 1.2q-1-.2-1.2.8l-20.8 14q-.9-.1-1.4.6l-1.5 1.3a2 2 0 0 0-1.6.7l-1.4 1.3a2 2 0 0 0-1.6.8q-.7.8-1.5 1.3-1 0-1 .8l-2 1q-1 0-1.1 1l-1.8 1q-1 0-1.2 1.1-1 .4-1.8 1-1.1 0-1.2 1l-1.9 1q-1 0-1 1l-1.9 1q-1.1-.1-1 1l-2.1 1q-1 0-1 1-1 0-1.6.9-7.7.1-15.4-.2c-.3-.7 3.7-2.2 4.3-2.8q1 .2 1-.8 3.2-1.6 6.1-3.3 1 .2 1.3-.8l3.6-2.1a2 2 0 0 0 1.5-.5l.6-.7q1 .3 1.2-.7l5.3-2.8 5.5-3.5q1 .3 1.3-.7l5.7-3.3q1 .3 1.3-.7l5.2-2.7q2.6-2 5.4-3.4 1 0 1.6-.7l5.5-3.5q1 .3 1.3-.7l3.8-2.1q1 .2 1.1-.6l.8-.6q1 .3 1.3-.7l3.7-2.1q1 .1 1.1-.7l.9-.5q1 .3 1.2-.7l5-2.8.8-.5q1 .3 1.2-.8l3.8-2.2q1.1.4 1.3-.7l3.7-2q1 0 1.2-.8l.8-.5q1 .3 1.3-.7 2-1 4-2.4m89 1.4c1.4-.6 1.8 1 1.2 2q-6 3.5-12 7.4-1 .4-1.9 0c0-1.3 3.2-2 3.9-2.7q4.3-3.4 8.8-6.7m-190.2 8q1.2 0 1.6.9L202.5 500q-.6.3-.7.8h-8.5q-.2-.5.3-.9zm147 13c-1.3 1-3.8.7-4 2.7q-.6 1-1.7 1.6-19.5 14.5-39.2 28.5-8 .3-15.7 0 .8-1.4 2.2-2a6572 6572 0 0 0 69.7-40.5q1-.2 1.7.4zm-178.8-9.4q1 .3 1.3 1.2l-65.5 41q-3.8.3-7.5 0 .7-1.4 2.2-2 34.8-20 69.5-40.2m74 5.9q1.3.1 1.3 1.4l-54.4 34.9q-4.2.3-8.5 0-.1-.5.2-.8l59.8-34.2zm-191 4.1.5 1.4-5.8 3.1-40.3 24.6q-2.5 1.3-4.5 3.3-2.8.6-5.5 0 0-.5.5-.8c18.3-10.5 36.5-21.4 55.1-31.6m-64.8 4.6c1 .1 3.3-.3 4 .5L28 494.3q-1 .6-2 .6-2 0-1.8-1.9zm35-.4a2 2 0 0 1-1 1.8q-20.7 12.7-41.3 25.9c-2.3 1.8-10.7 0-13.6-.7q.2-1.2 1.4-1.7L80.9 474c2.6-1.3 9-.7 12.1-1m92.8 3.8q.8.4 1.5 1.3-8 4.6-15.7 9.3l-20.9 13.3q-2.7.8-5.6.2.6-.8 1.5-1.3zm187 0q.9.5 1.4 1.4-16.8 11.1-33.5 22.6-4.3.6-8.6.3-.1-.5.4-.9 20.3-11.5 40.3-23.4m-211 1q.8.5 1.4 1.3-17.6 10.5-34.8 21.1-.6.4-.8 1l-4.5-.2q.7-1.3 2.2-2 18.3-10.4 36.5-21.2m295.7 23.3q-3.7.1-7.5-.1c0-1.7 17.5-10.3 19.6-12.5q.6-.2.9.3zm-62.8 0h-2.6q0-.9.8-1.3l9.4-5.4c1.8-1.2 1.7-2.4 4.3-1.7l-1.8.8q-5 4-10.1 7.6"/><path fill="#4e5c7a" fill-opacity=".4" stroke="#4e5c7a" stroke-opacity=".4" stroke-width=".5" d="M399.8 12q0 1-1 1zm-96 29q0 1-1 .9zm49 0q0 1-1.1 1zm-192.1 5q0 1-1 1zm103 3q0 1.1-1 1zm76 0q0 1-1 .9zm-48.3 3q-.4.5-1.2.6.3-.8 1.2-.6Zm-29 1-1.3.5q.4-.6 1.3-.6Zm55.1 12q-.6.6-1.6.7.4-1 1.6-.8Zm144.3-.1q0 1-1 .9zm-17.4 17q-.6.7-1.5.7a2 2 0 0 1 1.5-.7Zm-26 15q-.7.6-1.5.8.5-.8 1.4-.8Zm-39.6 19q.1 1-1 1zm60 6q0 1-1 .9zm-2.4 5.1q-.7.6-1.5.7.5-.7 1.5-.7Zm-20.6 9q0 1-1 .8zm-68.4 1.9-1.1.8q0-1 1.1-.8Zm97 4q-.6.7-1.6.7.7-.6 1.7-.6Zm-51.6 8q.3 1.1-1 .9zm70 4q0 1-1 .9zm-18 11.1q0 1-1 .8zm-.4 5-1.2.6q.2-.8 1.2-.7Zm-17.6 5.9q0 1-1 1zm-69 12q0 1-1 1zm-10.4 10-1.3.7q.5-.7 1.3-.6Zm-36.6 19q.3 1.3-1 .9zm181 20q0 1-1.1 1zm2.6 39q-.6.6-1.4.8.4-.9 1.4-.7Zm-38.2 1.7.6.4q-.4 1-1.4 1.8-11 6.6-22.2 12.6l-8 5.3q-1.1.5-2-.2l9.1-6zm-25.9 3.4q-.6.4-1.4.6.5-.7 1.4-.6Zm38.2 10-1 1q-.2-1.2 1-1Zm-64.1 4.9-1 1q0-1 1-1Zm-351 10-.3.9-.8.1q0-1 1-1Zm358.4 13q0 1-1 1zm-54 1q.1 1.1-1 1zm46 4q0 1-1 1zm-8 5q0 1-1 .9zm1.7 3-1.3.8q.3-.9 1.3-.7Zm-9.7 2q0 1-1 1zm-142.5 79.2-.9.7q-.2-1 .9-.7Zm-42.2 22q-.4.9-1.4.8zm117.4 9.8-1.2 1q.1-1 1.2-1Zm-197 25-.5-1.3q1.6-1.7 3.6-2.7l24.6-14.1c1.7-.8 3.8-4 5.7-2.5q-1.8.4-2.7 2.1a19 19 0 0 0-4 1.9zm53.7-19.7q-.5.6-1.4.6.6-.6 1.4-.6Zm118.8 6q-.2.8-1.2.6zm59-.1q0 1-1.2.8zm-248.6 35a2 2 0 0 1-1.6.8q.7-.6 1.5-.7Zm140 1.9-1 .8q0-1 1-.8Zm56 2-1 1q0-1 1-1Zm-2.9 1.9-1 1q-.2-1.1 1-1Zm186.4 8q0 1-1.2 1z"/><path fill="#4d5c7a" fill-opacity=".4" d="M343.4 22q-.7.6-1.5.8.4-.8 1.5-.7m-29 1q-.7.5-1.6.8.6-.8 1.5-.8m-117.1 6q-.6.6-1.3.7.3-.8 1.3-.7m122.5 2q0 1-1.1 1zm-29.1 1q0 1.1-1 1zm-100.4 1q-.6.6-1.4.8.5-.8 1.4-.8m179 2a2 2 0 0 1-1.4.6q.5-.6 1.4-.5m-57.6 1.1q0 1-1 .8zm5.5.9q-.4.6-1 .7 0-.9 1-.7m-28.8.8-1.4.6q.5-.8 1.4-.6m-124.5 6q-.1 1-1.2 1zm7.5.1-1.3.7q.3-.9 1.3-.7m-13.6 4q0 1-1 .9zm6.6-.1q-.5.6-1.2.7.3-.9 1.2-.7m-9.5 2q0 1-1.2 1zm188.5 0q-.7.6-1.6.8.6-.8 1.6-.7m-87.5 4q0 1-1 .9zm228.9 40q0 1.1-1 .9zm3.6 3.1q-.7.5-1.5.6.7-.6 1.5-.6M392 108q-.3 1-1.3 1zm7.4 0q-.5.5-1.1.7.2-.8 1.1-.7m62.5 0q0 1.1-1.1 1zm.4 4a3 3 0 0 1-1.4.7q.6-.7 1.4-.7m34.1 0q-.6.7-1.3.7.4-.7 1.3-.6m-116 7q-.6.6-1.3.8.4-.8 1.2-.8m116.5 3.1q.3.9 0 1.9-.9 0-1.8.4l-19 11.4a111 111 0 0 0-8.6 4.3l-.3-.4q11-7 22.3-13.8zm-123.5 1-1.3.6q.3-.6 1.3-.6m97 4a3 3 0 0 1-1.6.7q.6-.7 1.6-.7m-116 7a2 2 0 0 1-1.3.6q.3-.7 1.2-.7m142 5.8q-.7.8-1.5.8.5-.7 1.5-.7m-15.6 3q.2 1.2-1 1zm-89.3 10-1.3.8q.1-1 1.3-.8m79 2q-.7.6-1.6.7a2 2 0 0 1 1.6-.7m-65.5 4q0 1-1.1 1zm-5.6 9q-.5.5-1.3.7.5-.7 1.3-.7m-71 41q-.4.6-1.2.8.3-.9 1.2-.8m45 2.2-1.2.5q.3-.8 1.2-.5m97.5 38.8q0 1-1 1zm11.6 1q-.6.6-1.4.8.4-1 1.4-.8m-32.5 12q0 1-1 1zm6.5 3.1-1.4.6q.4-.7 1.4-.6m-27 10.2a2 2 0 0 1-1.7.6q.7-.4 1.7-.6m20 25.7q-.6.6-1.4.7.4-.7 1.4-.7m-64 5a2 2 0 0 1-1.2.6q.3-.6 1.2-.6m38 10q-.6.7-1.3.6.4-.6 1.3-.5m-64 5q-.6.6-1.4.6.5-.6 1.4-.6M229 420.3q-.3.9-1.3.7zm-7 3.9q-.3.9-1.3.8zm93 21q-.4.9-1.3.7zm-163.7 20q-.6.7-1.5.7.6-.6 1.5-.7m129 5.8q-.4.6-1 1 0-1 1-1m-155.1 9.2q-.4.9-1.4.8zm138.3 1.8-1.1 1q0-1.2 1-1m-19.3 4.2q-.4.9-1.5.7zm59 0q-.5.7-1.4.8.8-.6 1.5-.8m2.3 6.9-1.2.9q0-1 1.2-1"/><path fill="#4d5c7b" fill-opacity=".4" stroke="#4d5c7b" stroke-opacity=".4" stroke-width=".5" d="M318.2 15.3q-.6.8-1.6.6.7-.6 1.6-.6Zm26 1q-.7.8-1.5.6.6-.6 1.4-.6Zm43 4q-.5.7-1.5.7.6-.5 1.4-.8Zm-51 1q-.6.6-1.6.6.7-.6 1.6-.6Zm-53.1 16q-.5.7-1.4.7.6-.6 1.4-.7Zm67.3 8.7-1.5.7q.5-.7 1.5-.7Zm-52.1 2q-.6.7-1.2.7.3-.8 1.2-.6Zm-29 1.1-1.3.6q.4-.8 1.3-.6Zm-120.6 5q0 1-1 1zm-3 2q0 1-1 .9zm178.6 5q-.7.6-1.5.7.4-.9 1.5-.7Zm127 17-1.5.6q.6-.6 1.5-.6Zm-20.1 6q-.4.8-1.5.8.7-.5 1.5-.7Zm-395 2.7-.2 1-.8.1q.1-.8 1-1ZM425.3 93l-1.4.7q.5-.7 1.4-.7Zm44 15q-.4.6-1.2.7.3-.9 1.2-.7Zm-26 15-1.5.8a2 2 0 0 1 1.5-.8Zm-9.2 2.2q-.4.9-1.4.7.6-.6 1.4-.7Zm17.3 12.8q-.7.6-1.4.7.4-.7 1.4-.7Zm-40.3 1.2q-.5.7-1.4.7zm66.3 11.8q-.7.6-1.6.7.6-.7 1.6-.7Zm-26 15.1-1.4.6q.4-.7 1.3-.6ZM380.2 179q-.6.6-1.3.8.3-1 1.3-.8Zm41.7.2q-.4.8-1.4.7.6-.5 1.4-.7Zm-17.8 11.1q-.6.8-1.5.6.7-.6 1.5-.6Zm-49.9 3.7q-.4.5-1.2.7.4-.7 1.2-.7Zm31.8 7.2q-.5.8-1.4.8zm-54.2 3q-.1.9-1.2.7zm48.5 2.9-1.2.7q0-1 1.2-.7Zm56.9 70-1.5.7q.6-.7 1.5-.7Zm-50 25q-.6.9-1.6.8.7-.5 1.5-.7ZM366 315.3q-.4.9-1.5.8zM15.3 341.1q-.3-1-.2-2.1 1 0 1.8-.4L41 324.3c1.2-.2 2.7-2 3.8-1.1q-.5.8-1.1 1.1zm389-13q-.5.4-1.3.6.5-.7 1.4-.6Zm-234 126.2q-.7.6-1.6.7.7-.6 1.5-.7Zm118.6 5.9q-.2 1-1.1.8.4-.6 1-.8Zm59 0q-.4.9-1.3.7zM263 475.3q-.6.8-1.4.6.6-.5 1.4-.6Zm59 0q-.5.7-1.4.7a3 3 0 0 1 1.5-.8Zm-7.9 11.8q-.4.5-1 .8 0-1 1-.8Zm-2.9 1.9-1.1 1q.1-1 1.1-1Zm-212.1 6.3q-.6.6-1.5.6.8-.6 1.5-.6Zm15.1-.2a2 2 0 0 1-1.4.6q.5-.7 1.4-.6Zm129 0q-.7.5-1.5.6.6-.7 1.6-.6Z"/><path fill="#4d5c7a" fill-opacity=".4" stroke="#4d5c7a" stroke-opacity=".4" stroke-width=".5" d="M216.3 18q-.7.5-1.5.8.6-.8 1.5-.8Zm179 2.1q-.7.4-1.5.6.6-.7 1.5-.6Zm-67.1 6.1q-.6.7-1.5.7.7-.6 1.5-.6ZM151.8 52q0 1-1 1zm120.5 11a2 2 0 0 1-1.2.6q.2-.8 1.2-.5Zm41.8 2.2q-.3 1-1.4.8zm104.1 27.1q-.7.6-1.5.6.7-.5 1.5-.6Zm68 17q-.6.8-1.5.6zm-69 28.8q-.5.6-1.4.6.6-.6 1.5-.6Zm22 .1q-.5.8-1.5.7.7-.6 1.4-.7Zm-104 5.2q-.5.8-1.5.5zm90.2 9.6q-.7.6-1.6.7.6-.7 1.6-.7Zm-33.1 14.3q-.7.6-1.5.6.6-.6 1.5-.6Zm33 13.8q-.4.6-1.2.6.4-.7 1.2-.6Zm-57 31.1q-.6 1-1.6.7.7-.6 1.5-.7Zm107 75-1.5.6q.6-.9 1.6-.7Zm-67 2q-.7.8-1.6.7.7-.5 1.5-.7Zm3 2.9q-.7.4-1.5.6.7-.7 1.5-.6ZM45 383.3l-9 5.2a11 11 0 0 1-5 3q-7.7 5.1-15.8 9.6-.3-1 0-2.1.9 0 1.8-.4l24-14.3q2-1 4-1Zm151 56q-.4.8-1.3.6.5-.4 1.2-.6ZM308.3 491l-1.2 1q0-1 1.2-1Z"/><path fill="#4c5c7a" fill-opacity=".4" stroke="#4c5c7a" stroke-opacity=".4" stroke-width=".5" d="M333.1 12.2q-.3.5-.9.8 0-1 1-.8ZM209.3 22l-1 .9q0-1 1-1Zm179 2-1 1q0-1 1-1Zm-89.5 3q-.1 1-1.2 1zm-27.1 17q0 1-1 1zm24 2.1q0 1-1 .8zm-150.5 13-1 .8q0-1 1-.9ZM496.7 62q.3 1 .2 2-1 0-2 .5-9.2 5.4-18.6 10.5v-1q10-6 20.4-12Zm-100 43q0 1-1 .9zm70 0q0 1-1 .9zm24 1q0 1-1 .9zm-47 13q.1 1-1 1zm21 3.1q0 1-1 .8zm-112 10q0 1-1 .8zm68 1q.1 1-1 1zm23 1.9q0 1-1 1zm-33.4 7-1 .9q0-1 1-.9Zm7.4 9q0 1-1 1zm.6 6-1 1q0-1 1-1Zm-44.9 26.1-1.1.9q0-1 1.1-.9Zm35.4 4q0 1-1.2 1zm-13 7.8q0 1.2-1.1 1zm3.6 1.1-1.3.8q.2-1 1.3-.8Zm-20.6 111q0 1-1 1zm41 7q0 1-1 .9zm-70 11q-.1 1-1.1.9zm-114 91q0 1-1.1 1zm1.4 2-1 1q0-1 1-1Zm63.2 40-1.2 1q0-1 1.2-1Zm-75.6 39q0 1-1.2 1z"/><path fill="#4d5c7a" fill-opacity=".4" d="m350.2 18.1-1.1.6q.3-.7 1.1-.6m-29 1q-.5.4-1.3.6.5-.7 1.3-.6m10.1 10-1.3.7q.3-.8 1.3-.8m45 2q-.5.4-1.3.7.5-.8 1.4-.7m-15.2 5.3q-.4.6-1.5.5a3 3 0 0 1 1.5-.5m-56 7.7a2 2 0 0 1-1.1.6q.3-.7 1.1-.6m-29 1-1.2.6q.3-.8 1.3-.7M327 57q-.2 1-1.1.8zm4.5 0q-.6.4-1.4.6.4-.7 1.4-.7M143 58.1q-.2.9-1.2.7a2 2 0 0 1 1.2-.7m136.4.8-1.3.7q.3-.8 1.3-.7M140 60.5q-.4.8-1.3.4zm304.1 16a2 2 0 0 1-1.5.6q.7-.6 1.5-.7m51 16.7a2 2 0 0 1-1.5.6 2 2 0 0 1 1.6-.6m-15.1 4.2q-.5.8-1.4.7a2 2 0 0 1 1.4-.7m-75 3q-.5.8-1.5.6.7-.5 1.6-.6m8.3-.3q-.7.5-1.5.7.5-.7 1.5-.7m-7.1 4q-.6.6-1.3.7.4-.7 1.2-.7m70 .1-1.2.7q.3-.9 1.3-.7m-26 15a2 2 0 0 1-1.3.6q.4-.7 1.4-.7m34-.1q-.6.6-1.3.8.3-.8 1.3-.8m-7 4.1q-.7.6-1.5.7.6-.7 1.5-.7m-116.3 4q-.3 1-1.3 1 .5-.6 1.3-1m.4 2.9q-.7.5-1.5.8.5-.8 1.5-.8m90.8.2q-.6.8-1.6.8.6-.6 1.6-.8m-28 3.9q-.5.5-1.1.6.3-.7 1.2-.6m34.2 0q-.7.6-1.6.7.6-.9 1.6-.8m-110.6 1.2q0 .9-1 .6.4-.4 1-.6m128.3 11q-.5.7-1.5.7.7-.6 1.5-.8m-78 3-1 .4c-.3-.8.7-.4 1-.5m60 8q-.5.8-1.4.6zm-51.8 6.8q-.6.4-1.4.6.5-.7 1.4-.6m33.7 4.3q-.3.8-1.3.5.6-.4 1.3-.6m-7.7 8.6q-.4.5-1.2.7.3-.8 1.2-.7m-26 15-1.2.8q.2-.9 1.1-.8m-61.4 4.3q-.4.7-1.3.7zm-9.6 8.8q-.6.6-1.3.7.4-.7 1.3-.7m-16.4 7.3c.2.7-.8.3-1.1.4zM479 245.3q-.4.7-1.3.7.5-.6 1.3-.7m10.2 1.8-1.3.7q.4-.9 1.3-.7M458 258.2q-.4.8-1.4.8zm5.1 3.8q-.7.6-1.5.7.7-.6 1.6-.7m-26 9.4q-.6.6-1.6.5.7-.5 1.6-.5m19 26.6q-.4.6-1.2.8.3-1 1.3-.8m-64 5.1-1.2.7q.3-.9 1.2-.7M366.5 318l-1.4.8q.3-1 1.4-.8M241 413.2q-.3.9-1.3.7zm-26 15.2q-.4.8-1.4.6.6-.6 1.5-.6m119 5.9c.2.8-.7.6-1.2.6q.5-.4 1.1-.6m-26.1 15q-.3.7-1.3.7.6-.5 1.3-.7m59-.1q0 1-1.2.8.6-.6 1.2-.8M154.4 470l-1.6.7q.6-.8 1.6-.7m115.8 1.2q-.6.7-1.5.7zm59-.1q-.6.7-1.6.7zM146.3 475q-.7.5-1.5.7.5-.9 1.5-.7m-8 5-1.5.6q.5-.7 1.5-.7m182 2.9q-.7.6-1.6.7a2 2 0 0 1 1.6-.7m-202.5 1.3q-.4.8-1.3.6.6-.5 1.3-.6m12.3.8q-.5.5-1.4.7.6-.7 1.4-.7m187.2-.1-1.6.8a2 2 0 0 1 1.6-.8m-80.5 5.2q-.3.8-1.3.8.7-.6 1.3-.8m59.2.2a2 2 0 0 1-1.5.5q.8-.5 1.5-.5"/><path fill="#4f5d7a" fill-opacity=".3" stroke="#4f5d7a" stroke-opacity=".3" stroke-width=".5" d="m310.3 41.3-1.3.7q.2-1.1 1.3-.7Zm26 13-1.3.7q.3-1 1.3-.7Zm119 62-1.3.7q.3-1 1.3-.7Zm8 43-1.3.7q.3-1 1.3-.7ZM384 172q-.3 1.1-1.3.7zm-17.7 15.3-1.3.7q.3-1 1.3-.7ZM337 201q-.3 1.1-1.3.7zm29.3 14.2-1.3.8q0-1.2 1.2-.8ZM463 255q-.3 1-1.3.7zm13 24q-.3 1-1.3.8zm-9.2 37.1q.3.9 1.3 1.2-12 7.1-24.3 14l-1.8 1.4a14 14 0 0 0-3.5 1.2c-.8-.6.2-1 .6-1.3q14-8.1 27.7-16.5ZM277 467q-.3 1-1.3.7z"/><path fill="#55617b" d="m93 335.8.2-3.8q5.7-3.9 11.8-7.2 1-.7 2-.3L94.4 335a4 4 0 0 1-1.6.8"/><path fill="#4d5c7a" fill-opacity=".5" stroke="#4d5c7a" stroke-opacity=".5" stroke-width=".5" d="M15.4 429q-.5-1-.2-2 9.7-4.7 18.7-10.7c1.3 0 2.9-2 4-1q-11.2 7-22.5 13.7Z"/><path fill="#4f5e7a" fill-opacity=".4" stroke="#4f5e7a" stroke-opacity=".4" stroke-width=".5" d="M273.3 455.9q-.5-1-1.6-1 9.8-5.7 19.3-11.5c1.1-.3 2.8-1.8 3.8-1.1-1.6 1.3-4 3.4-6 3.9q-7.7 5-15.5 9.7Z"/><path fill="#4d5c79" fill-opacity=".3" d="M349 13q-.3 1-1.3.7zm-127.7 2.3q-.6.5-1.2.7 0-1.1 1.2-.7m93.6 1.6q0 1-1.2.8zm85.4.4q-.6.5-1.2.7 0-1.1 1.2-.7m-59.4.6q0 1.1-1.2.8zM188 28q0 1-1.2.9zm-3 2q-.2 1-1.2.8zm-3 2q0 1-1.2.9zm98 7q0 1-1.2.8zm-5.6 7.4q-.6.5-1.3.7.3-1.1 1.3-.7M332 54q0 1.1-1.2.7zm-181.6 2.3q-.6.5-1.2.7 0-1.1 1.2-.7m306 19-1.3.7q.3-1 1.3-.7M495 88q-.2 1-1.2.7zm-38 39q0 1.1-1.2.7zm25.4 21.3-1.2.7q0-1 1.2-.7m-52 2q-.6.5-1.2.7 0-1 1.2-.7M414 184q0 1.1-1.2.7zm-54.6 7.3-1.3.7q.3-1 1.3-.7m26 13-1.2.7q0-1 1.2-.7m69.6 55.6q0 1-1.2.8zm-21 13q-.2 1-1.2.8zm46.4 11.4q-.6.5-1.2.7.2-1 1.2-.7M165 457q-.3.9-1.3.7zm119 6q-.3 1-1.3.7zm33 15q-.3 1-1.3.7zm-183.7 5.3-1.2.7q.2-1 1.2-.7m-16 10-1.2.7q0-1.1 1.2-.7"/><path fill="#4d5c7a" fill-opacity=".5" stroke="#4d5c7a" stroke-opacity=".5" stroke-width=".5" d="M16.8 286.3c.6-1.4 6.3-5.1 7.2-4-1.5 1.4-5.3 4-7.2 4ZM15.2 478l-.1-1q5-2.7 9.7-5.8c.7-.1 1.6-.8 2.1 0q-4.8 3.4-9.9 6.2z"/><path fill="#4c5d7b" fill-opacity=".3" d="M381.3 28.3q-.6.5-1.2.7 0-1 1.2-.7m-26 15q-.6.5-1.2.7 0-1.1 1.2-.7M345 46q0 1.1-1.2.7zm-89.6 11.3-1.3.7q.3-1.1 1.3-.7m74 1q-.6.5-1.2.7 0-1.1 1.2-.7m133.8 12.9a2 2 0 0 1-1 .8q0-1 1-.8m-32.8 19q-.6.5-1.3.8.3-1.1 1.3-.7m-19 11q-.6.5-1.3.8.3-1.1 1.3-.7m63 4q-.6.6-1.3.8.3-1 1.3-.7M384 113q-.2 1-1.2.7zm65 3q0 1-1.2.7zm-.6 4.3-1.3.7q.3-1 1.3-.7m-89 11-1.2.7q0-1.1 1.2-.7m70 0-1.3.7q.3-1.1 1.3-.7m34 0-1.3.7q.3-1.1 1.3-.7M410 155.9q0 1.2-1.2.8zm46.4 7.4-1.3.7q.3-1.1 1.3-.7M363 185q0 1-1.2.7zm15 21q0 1.2-1.2.7zm-62 8q0 1.1-1.2.7zm171.4 66.3-1.3.7q.2-1.1 1.3-.7m-71 9-1.3.7q.3-1 1.3-.7m-64 37q-.6.5-1.3.7.3-1 1.3-.7M190.9 442q-.2.9-1.2.7zm-17.6 16.3-1.2.7q0-1 1.2-.7m169.6 4.7q-.2 1-1.2.7zM94 498q0 1.1-1.2.7zm15.4.3-1.2.7q0-1 1.2-.7"/><path fill="#959eac" d="M150.2 149q.4-1.7 2.3-2c1.5 1-1.4 2.4-2.3 2M135 241q.7-1.8 2.5-1.8c1.8.8-1.6 2.2-2.5 1.8m-6.3 35q.1-2.5 2.6-2.8c.2 1.4-1.3 2.5-2.6 2.9m27.2 20c-.4 1.2-2.5 3.2-3.7 3q.4-2 2.4-2.7.7-.3 1.3-.2M141 371.9q.7-1.8 2.5-1.8c1.3 1-1.7 2-2.5 1.8m-17 23q-1.1 2-2.8.6c.6-1 1.9-.4 2.8-.6"/><path fill="#4d5b7a" fill-opacity=".3" d="m348.3 19.3-1.3.7q.3-1 1.3-.7m-29 1-1.2.7q0-1.1 1.2-.7M191 25.9q0 1-1.2.8zm4.4 4.4-1.2.7q.2-1 1.2-.7m179 2q-.6.5-1.2.7.2-1 1.2-.7M288 33.9q-.2 1-1.2.8zm-10.6 26.4-1.2.7q0-1.2 1.2-.7m-29 1-1.3.7q.1-1.2 1.3-.7M454 70q0 1-1.2.7zm16 49q-.2 1-1.2.7.6-.5 1.2-.7m-112 10q0 1-1.2.7zm45 15q0 1.2-1.2.7zm1.4 21.3q-.6.5-1.2.7 0-1 1.2-.7m26 13-1.3.7q.3-1 1.3-.7m-97 28-1.2.7q0-1 1.2-.7M476 246.9q0 1.1-1.2.8zm-21.6 52.4-1.2.7q0-1 1.2-.7M310 448q-.2 1-1.2.7.6-.5 1.3-.7m59 0q0 1.1-1.2.7zm-62.6 6.3-1.2.8q0-1.1 1.2-.8m-15.4 4.7q0 1.1-1.2.7.6-.5 1.2-.7m59 0q0 1-1.2.7zm-80.6 19.3-1.2.8q0-1.1 1.2-.8M238.9 489q0 1.1-1.2.7.6-.5 1.2-.7"/><path fill="#4e5d7a" fill-opacity=".3" d="m355.3 15.3-1.3.7q.3-1.1 1.3-.7M179 34q0 1-1.2.8zm206.4 82.3q-.6.5-1.2.7 0-1 1.2-.7m97 4-1.2.7q0-1.1 1.2-.7m-79 26-1.2.7q0-1.1 1.2-.7M450 162q0 1-1.2.7zm-53 2q0 1-1.2.7zm14.4 25.3-1.3.7q.3-1.1 1.3-.7M350 193q-.3 1-1.3.7zm-35.7 24.3-1.2.7q0-1.2 1.2-.7m154 42-1.3.7q.3-1.1 1.3-.7m-33 51-1.3.7q.3-1 1.3-.7M371 312q0 1.1-1.2.7zm.4 3.3-1.2.7q0-1 1.2-.7M329 437q-.1 1.2-1.3.7zm-5.7 6.3-1.2.7q0-1 1.2-.7m-37 24-1.2.7q0-1.1 1.2-.7m-129 1-1.2.7q0-1 1.2-.7M139 472q-.3 1.1-1.3.7zm10.3 1.3-1.3.7q.3-1 1.3-.7M291 493q-.3 1.1-1.3.7zm189 14h2c.3 1-1.8 1.5-2 0"/><path fill="#505d78" fill-opacity=".3" stroke="#505d78" stroke-opacity=".3" stroke-width=".5" d="m137 62.3 1 1.1q-6.2 3.1-11.7 7.3-1 .6-2.2.3c.1-1.3 3.8-3 5-3.4q3.6-3 7.8-5.3Z"/><path fill="#4f5d77" fill-opacity=".3" stroke="#4f5d77" stroke-opacity=".3" stroke-width=".5" d="m425 423.3 1 1.1q-.6 0-1.3.5l-8.6 5.5a2 2 0 0 1-2.1.2q.1-.9 1-1.2 4.4-2.4 8.3-5.6z"/><path fill="#c1c7cd" d="M343.3 361q-3 0-5.5-1.3c1.8-1.3 4.7-1 5.5 1.4M189 380.9c-.3 1.6-6.9 5-7.2 2.1q3.5-1.3 7.2-2"/><path fill="#dfe5e9" d="M368 394a9 9 0 0 1-8 3.2l-2-1-.1-1.1q5.1-.5 10.1-1.2"/><path fill="#4f5e7c" fill-opacity=".3" d="M384 22q-.3 1.1-1.3.7zm-83 21q-.3 1-1.3.7zm2.3 2.3q-.6.5-1.3.7.3-1.1 1.3-.7m-7 4-1.2.8q0-1.1 1.2-.8m-29 1-1.2.8q0-1.1 1.2-.8M324 59q0 1.1-1.2.7.6-.5 1.2-.7m-180.6 1.3q-.6.5-1.2.7 0-1.2 1.2-.7M402 101.9q-.2 1-1.2.8zm94 .8q0 1.3-1.2 1zm-91.6 2.6-1.2.8q0-1.2 1.2-.8m18 30-1.2.7q0-1.1 1.2-.7m-77.4 1.6q0 1.2-1.2.8zm92 33q-.2 1-1.2.8zm-32 121q0 1-1.2.8zm4.4 34.4q-.6.5-1.2.7 0-1.1 1.2-.7m-7 4-1.2.7q.2-1 1.2-.7"/><path fill="#505b74" d="M206.7 99.1v6.3q0 .6-.5.8a579 579 0 0 1-26.4 15c.7-1.7 25.7-22.2 27-22m-2.7 115c1 0 .5 1.8.8 2.4q1 2.2 1.5 4.5a171 171 0 0 1-18.7 11q-.6-.9.4-1.6c2.8-3.2 15-13.4 16-16.4m30.3 93.2 1.8 2.1q1 .5 1.8 1.4a61 61 0 0 0-7.6 4c-1.7.6-1.4-1-.6-1.7 1.3-1.7 4.1-3.8 4.7-5.8m-124.2 31.6a4 4 0 0 1-1 1.5Q100.8 346 93 352c-1.4.2-.6-2.3-.8-3l15.8-9.7a5 5 0 0 1 2-.4"/><path fill="#4d5b78" fill-opacity=".3" stroke="#4d5b78" stroke-opacity=".3" stroke-width=".5" d="M461.8 52q.3.8.3 1.7-12.6 7.5-25.3 14.5l-3.7 2.6-4.5 2-5.6 3.8q-1.5.1-2.9 1.2-.6.2-1-.3zM436 81q-.3 1-1.3.8zm-69.7 46.3-1.3.7q.2-1.1 1.3-.7Zm123 17-1.3.7q.3-1 1.2-.8ZM15 251.1a5 5 0 0 1-.1-2 832 832 0 0 0 29-16.9c1.1-.2 2.8-1.9 3.8-1q-2.4 1.5-4.8 3.4A763 763 0 0 0 15 251.1ZM442 268q-.2 1-1.2.8zm10 26q-.3 1-1.2.8zM205.3 438.3l-1.3.7q.3-1.1 1.3-.7ZM158 461q-.3 1.1-1.3.7zm152 21q-.3 1-1.3.7z"/><path fill="#4d5c7b" fill-opacity=".3" d="m407.3 13.3-1.3.7q.3-1 1.3-.7M392 17q-.1 1-1.2.8zm-85 5q-.3 1.1-1.3.7zm72 3q-.3 1-1.3.7zM173 38q-.1 1-1.2.8zm-3 2q-.3 1-1.2.8zm111.3 2.3-1.3.7q.3-1 1.3-.7m-124 10-1.3.7q.3-1 1.3-.7M280 56q-.3 1.1-1.3.7zm4.3.3q-.6.5-1.3.7.3-1 1.3-.7M272 61q0 1.2-1.2.7zm165.3 25.3-1.3.7q.3-1 1.3-.7M423 89q-.3 1-1.3.7zm67 2q-.3 1-1.3.7zm-12 23q-.3 1-1.3.7zm-138 26q-.1 1.1-1.3.7zm146 0q-.3 1-1.3.7zm-145.7 2.3-1.3.7q0-1.2 1.3-.7m90.7.7q-.3 1-1.3.7zm6.3 3.3-1.3.7q.3-1.1 1.3-.7m-39.3.7q-.1 1-1.2.8zm86 95q-.3 1-1.3.7zm8 27q-.3 1-1.2.8zm-42.7 1.3-1.3.7q.3-1.1 1.3-.7M484 274q-.3 1-1.3.7zm-16 10q-.3 1-1.2.8zm-44.7 1.3-1.3.7q.3-1 1.3-.7M460 289q-.3 1-1.3.7zm-43.7 32.3-1.3.7q.3-1 1.3-.8m-26 15-1.3.7q.3-1 1.3-.7m-193 107-1.3.7q.3-1 1.3-.8M184 446q-.3 1.1-1.3.7zm5.3 2.2-1.3.8q.3-1 1.3-.8m-8 5-1.3.8q.3-1 1.3-.7m122 3q-.6.6-1.3.8.3-1 1.3-.7M336 467q-.3 1.1-1.3.7zM5 474.6q0 1.8.3 3.4c-1.7.5-2-2.6-.4-3.4m261.2 5.6-1.2.8q.2-1 1.2-.8"/><path fill="#4d5d7c" fill-opacity=".3" d="M261 51q-.3.9-1.3.7zm216 48q-.3 1-1.3.7zm-79.7 10.3-1.2.8q0-1.1 1.2-.8m56.6 3.6q0 1.1-1.2.8zm-101.6 22.4-1.2.7q0-1.1 1.2-.7m66.6 45.6q0 1.1-1.2.8zm-77 17q0 1.1-1.2.8zm41 5q0 1-1.2.8zm-56.6 7.4-1.2.7q0-1.1 1.2-.7m57 98-1.2.8q.2-1.2 1.2-.8m25.6 12.6q-.2 1-1.2.8zm-16 10q0 1.1-1.2.8zm-169 92q0 1.1-1.2.8zm-26 15q-.2 1-1.2.8zm119 6q0 1.1-1.2.8z"/><path fill="#4e5c7a" fill-opacity=".5" d="m223.3 14-1.4.7q.5-.7 1.4-.7m179 2q-.6.5-1.3.7.3-.7 1.3-.7m-152 44.1-1.2.6c-.3-.8.8-.5 1.2-.6m206.9 8.1q-.5.8-1.4.7.5-.5 1.4-.7m3 57q-.5.8-1.4.8.6-.6 1.4-.7M432.3 149q-.4.5-1.2.8.2-1 1.2-.8m-19.2 5.2q-.3 1-1.4.8.6-.5 1.4-.8M272.8 241q.3-.9 1.2-.6-.4.6-1.2.6m143.4 43.2q-.5.8-1.5.8.6-.6 1.5-.8M170.4 460l-1.5.7q.5-.7 1.5-.7m126.9 0a2 2 0 0 1-1.4.7q.5-.6 1.4-.6m-135 5q-.6.6-1.4.8.5-.8 1.4-.8m161 16q-.6.6-1.4.7.6-.7 1.4-.7m-62.9 3a3 3 0 0 1-1.5.8q.4-.9 1.5-.7"/><path fill="#aab0b5" d="M216.2 74.7q-3.8-.2-7.4 0c.5-3 7.4-3 7.4 0"/><path fill="#4e5c78" fill-opacity=".3" d="M325 28q-.3 1.1-1.3.7zm-2.7 6.3-1.2.8q.2-1.1 1.2-.8m-29 1-1.2.8q.2-1 1.2-.8M423 147.9q0 1-1.2.8zm-26.6 2.4-1.2.7q0-1.1 1.2-.7M376 176.9q-.2 1-1.2.8zm2.4 3.4q-.6.5-1.2.7 0-1.1 1.2-.7m26 13-1.2.7q.2-1 1.2-.7M329 205.9q0 1.1-1.2.8zm49.4 2.4-1.2.7q0-1.1 1.2-.7m5.6 95.6q0 1-1.2.8zm-21 13q0 1-1.2.8zm6.4 133.4-1.2.8q0-1.1 1.2-.8M500 496.9q0 1-1.2.8z"/><path fill="#4e5b7a" fill-opacity=".4" d="m307.3 27.2-1.1.7q0-1 1.1-.8m58.4 5.8q0 1-1 .9zm-199 9q0 1-1 1zm121.1 9q0 1.1-1.2.9zm201.5 65-1 1q0-1 1-1m-123.6 8q.1 1-1 1zm109.7 131-1.1 1q0-1.1 1.1-1m-39.7 49q0 1.1-1 1zm6.6 2-1.1 1q0-1 1.1-1m-64 5.1-1 .8q0-1 1-.8m-157 117-1 .8q0-1 1-.9m62.4 69q0 1-1 .8zm12.6 2-1 .8q0-1 1-.8"/><path fill="#4c5b7b" fill-opacity=".3" d="m329.3 30.3-1.2.7q0-1.1 1.2-.7m-29 1-1.2.7q0-1.1 1.2-.7m-124 10-1.3.7q.3-1.1 1.3-.7M245 61q0 1.1-1.2.7zm187 112q0 1.1-1.2.7zm-46.6 3.3-1.2.7q.2-1 1.2-.7m57 98q-.6.5-1.2.7 0-1.1 1.2-.7M413 286q-.2 1-1.2.7zm-21 13q0 1.1-1.2.7zM141.3 478.3l-1.2.7q.2-1 1.2-.7M258 478q-.3.9-1.3.7zm-132.7 10.3-1.2.7q0-1.1 1.2-.7m124 3-1.2.7q0-1.1 1.2-.7"/><path fill="#767f90" d="M166 308.8q1.3.5.9 1.9a48 48 0 0 1-7.2 3.5c.4-1.7 5.1-3.7 6.3-5.4"/><path fill="#4d5e7b" fill-opacity=".2" d="m315.3 38.3-1.2.8q.2-1.1 1.2-.8M269 45.9q-.2 1-1.2.8zm-106.6 3.4-1.2.8q0-1.1 1.2-.8M285 52.9q0 1-1.2.8zm104 57q0 1.1-1.2.8zm-17.6 74.4-1.2.8q.2-1 1.2-.8m0 28q-.5.5-1.2.7 0-1.2 1.2-.7m4.6 96.6q-.2 1-1.2.8zM232.3 421.3l-1.2.8q.1-1 1.2-.8m-16 10-1.2.8q0-1 1.2-.8m138 29-1.2.8q0-1 1.2-.8"/><path fill="#4c5c7b" fill-opacity=".4" d="m336.3 26-1 1q-.2-1 1-1m-153 11-1 1q0-1 1-1m179.1 2.1-1 .9q-.2-1 1-.9m30 132.9-1.3 1q.1-1 1.2-1m0 28-1.2 1q.2-1 1.2-1m-19.6 9q0 1.2-1 1zm48 72q0 1-1 1 .4-.6 1-1m22.9 18q.2 1-1 1zM213.3 433l-1 1q0-1 1-1m37.4 49q0 1-1 1z"/><path fill="#4e5d7b" fill-opacity=".3" d="M176 36q-.3 1-1.2.8.5-.5 1.2-.8m305.3 65.3q-.6.5-1.3.7.3-1 1.3-.7m-9.3.7q-.3 1.1-1.3.7zm-34.7 72.3-1.3.7q.3-1 1.3-.7m-97 28-1.3.7q.3-1.1 1.3-.7M210 431q-.3 1-1.3.7zm93 21q-.3 1-1.3.7zm59 0q-.2 1.1-1.3.7zm-78.7 17.3-1.3.7q.2-1 1.2-.8M113 487q-.3 1.1-1.3.7z"/><path fill="#4f5c7b" fill-opacity=".2" d="M487.6 6.2q1.2-.2 1.4 1-.9-.3-1.4-1M289.3 53.3l-1.2.8q0-1.1 1.2-.8m-29 1-1.2.8q.2-1 1.2-.8m16.6 3.6q0 1.1-1.2.8zm99 60q-.2 1-1.2.8zm21 178q0 1.1-1.2.8zM231 419q-.1 1-1.2.8zm126.4 39.4-1.2.8q0-1 1.2-.8m-6 4-1.2.8q0-1.1 1.2-.8"/><path fill="#4c5d79" fill-opacity=".3" d="M333 23q-.3 1-1.3.7zm25 15q-.3 1.1-1.3.7zM253 56q-.3.9-1.3.7zm118 65q-.3 1-1.3.7zm116.3 127.3-1.2.7q0-1.1 1.2-.7m-97 56-1.2.7q0-1.1 1.2-.7M217 427q0 1.1-1.2.7.6-.5 1.2-.7m155.4 21.3-1.2.7q0-1.2 1.2-.7M120 483q-.3 1-1.3.7.6-.5 1.2-.7"/><path fill="#4d5c7a" stroke="#4d5c7a" stroke-width=".5" d="M465.3 11.1q-1.5 1.4-3.3 2.4l-40.4 24.7q-2 1-3.4 2.7c-1.4.2-4 1-3.1 2.8l-1.7-.2q-30.3 18-60.3 36.8-11.3 6.3-22.3 13l-9.7 6.3q.5.6 1.1.2 1.2-1.1 2.9-1.3 13-8 26.4-15.5c.7-.7 2.6-1.1 2.4-2.4a2 2 0 0 0 1.8-.2L416 45.6c7.6-.8 31.8.7 41.4 0 2.4.9 4.2 4 4.5 6.4l-42.6 25.5q.3.5 1 .3a5 5 0 0 1 2.8-1.2q3-1.8 5.6-3.7l4.5-2.1q1.8-1.5 3.7-2.6 12.8-7 25.3-14.5c2 1 1.9 8.6 1.7 10.5l-2 .8-1.1.9q-1.9 1-3.5 2.3-.9.2-1.4.7l-1.9 1-1.2.8q-1.8 1.5-4 2.3l-1 .9a11 11 0 0 0-3.5 2.5q-.8 0-1.5.6a661 661 0 0 0-26 15.9l-8 4.9q-2 1-3.5 2.5-.9 0-1.6.6l-1.7 1-1.2.8q-2 1.3-4 2.3l-1 .9-3.8 2-1.3 1-3 1.8-.6.6q-.8.1-1.4.7l-1.7 1q-.6.2-1.2.7-1.9 1.5-4 2.3l-1 1a14 14 0 0 0-3 1.7l-5 3q-2 1.5-4 2.3l-1 1-3 1.7-.7.5q-.8.3-1.3.8l-1.8 1-1.2.7q-2 1.4-4 2.3l-1 1-3 1.7-2 1.2-1.8 1-1.2.8q-1.7 1.3-3.8 2.3l-1.2.7-3.6 2.6q-.8.2-1.4.6l-2 1.1-30 18.4-7.5 4.1c-.3.5-3 1.5-1.9 2.2q2.2-1.5 4.7-2 4.4-2.7 8.7-5.6 13.8-7.6 27.4-15.6l1-.8 1.2-.5q1.7-1.3 3.7-2.2.8-.3 1.3-.7 1.7-1.4 3.8-2.2l1.2-.8.9-.5 1.1-.8a36 36 0 0 0 7-4l5-2.7.6-.5q.8-.2 1.5-.8l3.6-2 1.3-.7 5-3 .7-.6 1.3-.6 5-2.8.7-.5q.8-.2 1.2-.8a34 34 0 0 0 5.1-2.7l5-3 1-.4 1-.9a36 36 0 0 0 7-4l5-2.7.7-.6q.8 0 1.2-.7l5.1-2.7.6-.6q.8-.2 1.5-.7 1.8-.9 3.4-2.2.8-.2 1.4-.8 3-1.3 5.7-3.3l1.4-.7a54 54 0 0 0 7-4l3.7-2q.8-.3 1.3-.7 3-1.6 5.5-3.6.8 0 1.5-.7 3-1.4 5.5-3.3l1.4-.6a156 156 0 0 0 12.6-7.2q-1 11.6-1 23.3-11.3 6.5-22.5 13.4l-40.2 23.8-3 2.2q.4.5 1 .2 1.4-1 3-1.3l1.4-1.4a1566 1566 0 0 0 38.5-22l20.6-12q.9-.4 1.4-1.2c7.8.2 10.4.1 12.7-7.9 3 .3 17.5-9.2 21.1-11.2.7 2.7.5 7.5 0 10.3a10 10 0 0 0-3.1 1.6l-5 3a21 21 0 0 1-4 2.3l-1 .9q-2 1-3.6 2.4a2 2 0 0 0-1.4.7 14 14 0 0 0-3 1.7l-5 3a22 22 0 0 1-4 2.3l-1 .9-3.9 2.2-1.1.9q-2 .8-3.6 2.3-.8.1-1.4.7a53 53 0 0 0-8 4.7q-2 1.5-4 2.3l-1 1-4 2-1 .9-3.6 2.3q-.9.1-1.4.7a502 502 0 0 0-21.6 13.3l-1.4.7-8 4.8a36 36 0 0 1-5 3q-1.8 1.4-4 2.3l-1 .9q-2 1-3.7 2.4L350 175.6l-4 2.9a2 2 0 0 0 2 .2l13.7-8.5 27.3-15.5 1-1q.6-.2 1.2-.7l5-2.7.8-.6 1-.5 4-2.2 1.2-.7q3-1.9 6-3.4l1-.9q3-1.4 5.5-3.3.8 0 1.5-.6l5-2.8.8-.6q.6 0 1.2-.6l3.7-2 1.3-.8q2.9-1.5 5.5-3.5.8 0 1.5-.7 2.9-1.4 5.5-3.3l1.5-.8a67 67 0 0 0 7-4l3.7-2 1.3-.7q3-1.6 5.5-3.6a38 38 0 0 0 6.5-3.4l.8-.6q.8-.1 1.2-.7a38 38 0 0 0 5-2.7l.8-.5 1.3-.7a37 37 0 0 1 4.9-2.8q3-1.6 5.5-3.6.8 0 1.5-.6 3-1.4 5.4-3.4a2 2 0 0 0 1.5-.6q1-.4 2-1.2c-.5 2.4 1 9.6-1.3 10.8l-1.2 1q-2 1.5-4 2.3l-1 .9q-2 .9-3.5 2.4-.8 0-1.5.6l-8 4.8a154 154 0 0 1-12 7.4l-1 .8q-2 .9-3.5 2.4-.8 0-1.4.7a35 35 0 0 0-6.6 4.2q-1 .2-1.6.8l-6.9 4-1 1q-2 .8-3.6 2.2-.8.1-1.4.7l-8 4.8-3.5 2.5q-.8.2-1.5.7l-1.8 1-1.2.8-4 2.4-1 .9q-2 .9-3.6 2.2l-1.4.8-3 1.7q-1.9 1.4-4 2.3l-1 1-8 4.7q-2 1-3.4 2.7-.9 0-1.6.5l-11 6.8-.9.6q-.6.2-1.1.6l-1.8 1-1.2.8q-1.8 1.3-4 2.2l-1 1a13 13 0 0 0-3 1.8l-5 3q-2 1.4-4 2.4l-1 1-3 1.6a79 79 0 0 1-6.8 4.2l-1.2.8-.8.6-1.3.7-1.7 1q-.6.2-1.2.7l-5 3-3 2-.8.5-1.2.7-3 1.8q-2 1.4-4 2.4l-1 1a11 11 0 0 0-3 1.6l-.9.7q-.5 0-1 .4-.9.8-1.9 1.2l-1.2.7q-1.8 1.5-4 2.4l-1 .8q-1 .7-2.1 1-14.1 9-28.6 17.4-1.5 1-2.8 2.2.8.7 1.9.2l5.5-3.8 30.7-17.6a13 13 0 0 1 3.8-2.3q.7-.2 1.2-.7.6 0 1-.3l1-1 5-2.7.7-.5q.8-.2 1.2-.8a41 41 0 0 0 5.1-2.7l.7-.5q.8-.1 1.3-.7l5-2.8 5-3 .7-.6 1.3-.6 5-2.8.8-.6q.8-.2 1.2-.7l5-2.7.8-.5 1.3-.7 4.9-2.8 6-3.3 1.1-.9 5-2.8.6-.5q.8-.2 1.3-.8l5-2.7 7-4.3q3.1-1.3 5.6-3.3.8-.2 1.3-.7a48 48 0 0 0 7-4l11.2-6 1-1q3-1.3 5.4-3.3.9 0 1.6-.7l5-2.7.7-.5q.8-.2 1.2-.8l5-2.7q3-1.6 5.4-3.6 1 0 1.7-.6 3-1.5 5.5-3.4.9 0 1.4-.7 3-1.4 5.5-3.2.9 0 1.6-.8l3.6-2q.8-.3 1.3-.7a49 49 0 0 0 5.4-3.5 42 42 0 0 0 7.1-4q.8-.1 1.5-.7l5-2.8.7-.5q.8-.2 1.3-.8l4-2 1-1q3-1.4 5.7-3.3.8 0 1.3-.6l.6-.3c.6 3.2.5 7.1-.1 10.3a233 233 0 0 0-29.7 17.6q0 .3.3.4 4.2-2.3 8.7-4.3l19-11.4q.8-.4 1.8-.4.4 3.7.3 7.6 0 1.4-1.2 2l-1.3 1.1-14 8.3-1 1q-2 .9-3.6 2.2-.8.3-1.5.8l-6.6 4-1.3.7q-1.9 1.4-4 2.3l-1 .9q-2 1-3.6 2.4l-1.4.6a213 213 0 0 1-12 7.2l-1 .8-1.8 1-1.2.8-.7.7q-.8 0-1.3.5l-1.8 1-1.2.8-5 3q-1.9 1.4-4 2.3l-1 1-3 1.7-.7.5q-.8.2-1.4.7l-1.7 1-1.2.8-5 3-4 2.3-1.1 1a10 10 0 0 0-3.4 2.3q-.8 0-1.5.6l-3 1.8a26 26 0 0 1-4 2.3l-1 1-4 2-1 .9q-2 1-3.6 2.3l-1.4.8a59 59 0 0 0-8 4.7q-1.8 1.4-3.9 2.4-.6.3-1 .9-2 .8-3.6 2.2-.8 0-1.5.7l-7 4.1-33.6 20.6.3.3q1.8-.8 3.6-1.3 4.4-2.6 8.7-5.5a859 859 0 0 0 32.6-18.8l.7-.6 1.2-.5q1.9-1.2 3.9-2.1l1.2-.8.8-.5 1.3-.7 4.9-2.8 6-3.3 1.1-1 5-2.7.7-.5 1.3-.8a59 59 0 0 0 6.8-4l5.1-2.7 5-3 1-.3 1-1a31 31 0 0 0 5-2.7l.8-.6q.8 0 1.2-.6l5-2.8.8-.6q.8-.2 1.2-.7a109 109 0 0 0 10-5.7l.8-.6 1.2-.7a54 54 0 0 0 7-3.9l5-2.8.7-.6q.9 0 1.4-.6l4.9-2.8q2.8-1.5 5.4-3.6.9 0 1.6-.7 3-1.3 5.5-3.3.9-.1 1.6-.7l4.9-2.7 7-4q2.8-1.5 5.5-3.6.9 0 1.5-.7l.6-.2c.5 3 .6 7.3-.2 10.1q-1.6.5-3 1.4L477 161.7l.2.4q2-.7 3.7-1.6l15.8-9.4c.8 2.3.2 7.6.3 10.2q-1.2.3-2.2 1l-80.1 48.2-7.7 4a6 6 0 0 0-2 2 2 2 0 0 0 2 0c1-1.7 3.2-2.4 5-2.9l5.5-3.7 4.5-2.2 37.6-22 37.6-21.8c-.5 2.9.8 9-1.2 11.1l-40.5 24.1-43.8 26.4-2.6 1.1-4 3q.7.6 1.9.2c2.5-1.5 3.7-3.6 7-4.1q4.5-2.6 8.6-5.5a1219 1219 0 0 0 34-19.5l40-23.1c.7 2.5 1 7.9-.4 10l-44.5 26.9a95 95 0 0 0-11.7 7 2 2 0 0 0 2 .1q6.6-3.9 13-8.1l39.4-22.6a6 6 0 0 1 2.4-.9c.3 5 1.3 28.6-1 31l-53.3 32-36.9 22.5q-3.5 1.7-7 3.7l-4.6 3.2q.9.8 2 .2l10-5.9 3-2.2q17.6-9.8 35-20 .7-.8 1.5-1.3 25.7-14.4 51.1-29.3c1 2.2.2 8.4.5 11.1-1.9-1-3.6 1.6-5.5 2l-1.1 1-7.9 4.7q-2 1.1-3.6 2.6-.8 0-1.3.7l-3.1 1.7q-1.9 1.4-4 2.3l-1 1-8 4.7-3.6 2.5-1.4.8-3 1.7q-1.8 1.4-3.9 2.3l-1 1a107 107 0 0 0-11.6 7.4q-.9 0-1.6.5t-1.7 1l-1.2.8q-2 1-3.4 2.6-1 0-1.7.6a78 78 0 0 1-6.9 4l-1 1.1a13 13 0 0 0-3.5 2.2q-.8.2-1.5.8l-3 1.7q-1.9 1.1-3.5 2.5-.8.1-1.5.7l-1.8 1-1.2.8-4 2.4-1 1-1.8.8-1.2.8-.8.6q-.7.2-1.3.6l-1.7 1-1.2.8q-1.8 1.1-3.5 2.5-.7.2-1.5.7l-1.8 1-1.2.8q-1.8 1.3-4 2.3l-1 1-3 1.7-5 3-3.6 2.5-1.5.8-1.7 1-1.2.7-4 2.4-1 .8a65 65 0 0 0-11.1 7.1c-13.3-2.4-43-18.4-53.9-28.2-37.3-29.5-36.8-63.2-31.4-107 4.3-34.8 16.4-81 5-114.8-2-3.2-7.4-3.2-10.5-4.8l15.3-8.7 1-.9a51 51 0 0 1 6.3-3.4l.7-.5 1.3-.7 4.9-2.7 5-3 .8-.6q.7 0 1.2-.6l5-2.8.8-.6q.6 0 1.2-.6l5-2.8.8-.7 1.1-.5a77 77 0 0 0 8.9-5l1.2-.8.8-.6q.7-.1 1.1-.7a25 25 0 0 0 5.1-2.7l.7-.6q.9-.2 1.4-.7l4.9-2.7.7-.5 1.3-.8 4-2 1-1q3-1.4 5.6-3.2.8-.2 1.4-.7l5-2.8.8-.6 1.1-.6 5.1-2.8c1.2-1 5.4-2.5 5.5-4.2 4.2.1 13.8-.5 17.4.4q-15.6 10-31.4 19.5l-32 19.5-2 .8q-1.6.9-2.8 2.2a2 2 0 0 0 2.1 0c1-1.6 3.2-2.3 5-2.9q15.4-9.3 31-18.2l32.8-19.1q1.5-.9 2.9-2.2h17.4q-.5.9-1.5.9l-1 1-13 8-1.8 1-1.2.7-5 3q-5.8 3.9-12 7.3l-1 .9q-2 .9-3.6 2.4a3 3 0 0 0-1.5.6l-1.7 1-1.2.8q-1.9 1.5-4 2.3l-1 1-6.8 4-1.2.7q-1.9 1.5-4 2.3l-1 .9-8 4.8L324 59q-.6.2-1.2.7-1.7 1.5-3.8 2.3l-1.2.7-3.6 2.5-1.4.8-2.1 1L285 82.8l-2 .8-4 2.9a2 2 0 0 0 2 .1l8.6-5.5L312 68.4q1.8-1.5 3.7-2.6 1-.2 1.6-.8l5.4-3.2q.8 0 1.5-.7 1.8-1.2 3.8-2l1.2-.8.7-.6q.8-.2 1.4-.7l4.9-2.7q2.9-1.5 5.4-3.5l1.6-.7q3-1.5 5.6-3.4l1.5-.7a189 189 0 0 0 17.5-10.4q.8 0 1.4-.5l5-2.8.7-.5 1.4-.7 4.9-2.8q3-2 6-3.3l1-1q3-1.3 5.5-3.3.8 0 1.5-.6l5-2.8.7-.6q.8-.2 1.3-.7l5-2.7 2.6-2c4.7 0 13.3-.8 17.5.1q-20.1 12.2-40.4 24-1.5.9-2.9 2.1 1 .6 2 .2l5.5-3.7 1.5-.5 37.1-21.7c4.8-2.3 28.9-1.5 35-.7Zm-430.1 0q-3.3 3.4-5.9 7.3.7.5 1.7 0 5.7-3.1 11.3-6.5.5-.4.4-1l17.4.3q-9.8 8.9-19 18.4-1 .8-1.9 1.2 0 1 .9 1c4.9-4 32.3-18 33.8-20.7h17.4l-8.1 6.6q-1.5.6-2.9 1.6c1.6 1.5 2.7-.8 4-1.5 2.1-1.3 9.5-4.7 10.6-6.6q8.7-.2 17.3-.1-17.8 14.1-36 27.9c-10.6 4-27-4-35.8 7A56 56 0 0 0 36 56q-11 5.9-21.8 12.2L15 42l1.6-1q4.8-5 10-9.3-.7-.8-1.6-.3a83 83 0 0 1-9.7 6C13.7 22 19.9 13.1 35.2 11.1Zm191.6 0c3.8.3 14.5-.6 17.4.5a5219 5219 0 0 1-79.2 51q-.7.3-.9 1c1.4 1.3 2.6-.7 3.8-1.4l14.8-8.5 70-40.5q1.5-.6 2.1-2c4.5 0 13.4-.6 17.4.3l-54.9 35.3-2.5 1.3q-10 6-19.7 12.5.4.5 1 .2 10-5.4 20-11.3.7-.8 1.5-1.3 30.6-17.3 61-35 1.6-.6 2.2-2.1h17.5q-1.2 1.4-2.6 2.2a4620 4620 0 0 0-51.4 32.5l-2.6 1.2A671 671 0 0 1 220 60.4q-1.6.9-2.8 2.1.8.8 1.9.2 11.8-7.5 24-14.2l60.6-35.2a3 3 0 0 0 2.1-2.2h18.5a51 51 0 0 0-6.1 4.2q-.9 0-1.6.6l-1.7 1-1.2.8-8 5a104 104 0 0 1-8.1 5.2l-1.7 1-1.2.8a26 26 0 0 1-4 2.4l-1 .8-3 1.8q-2 1.1-3.6 2.6-.9 0-1.4.7a49 49 0 0 0-6 3.7l-4 2.3-1 1-1.8 1-1.2.7-4 2.4-1 1-1.8.8-1.2.8q-1.8 1.4-3.9 2.3l-1 .9-1.9 1-1.2.8a64 64 0 0 1-8 5l-2 1.5q-7 4-13.7 8.4-.9.6-.4 1.4a399 399 0 0 0 20.7-11.7l.8-.6 1.2-.6 3.7-2 1.3-.8 5-3 .7-.7q.8 0 1.3-.6a37 37 0 0 0 5-2.7l.7-.7 1.3-.5 3.7-2 1.3-.8.7-.6 1.3-.7 3.7-2 1.3-.7 5-3 .6-.6 1.4-.6 5-2.8.7-.6q.7 0 1.3-.6l3.7-2 1.3-.8 5.9-3.4 1.1-.8q3-1.4 5.5-3.3.8-.2 1.5-.8l5-2.7.6-.6q.8-.1 1.3-.7a127 127 0 0 0 10.1-5.7l1-.3.8-.8q.7-.4.8-1.1h17.3q-.9 1.2-2.3 1.9l-1.2.7q-2 1.2-3.6 2.6-.8 0-1.4.6l-1.8 1-1.2.8q-1.9 1-3.5 2.6-.9 0-1.6.6l-1.7 1-1.2.8a19 19 0 0 0-3.5 2.5q-.8 0-1.5.7l-1.8 1-1.2.8a23 23 0 0 1-3.9 2.3l-1.1 1-3 1.7q-2 1.4-4 2.4l-1 .8-1.8 1-1.2.8q-2 1.4-4 2.3l-1 .9-3 1.8q-2 1.4-4 2.4l-1 .8-3 1.8-5 3.2-1.8 1-1.2.8-5 3q-.7.8-1.8 1.2l-1.2.8a29 29 0 0 1-5 3l-2 1.6q-7.6 4.2-14.8 9c-6.3 1.5-29.4 1.2-37.7 2.4 0-3-6.9-3-7.5 0a500 500 0 0 0-20.4-.8q-.2-.6-.8-.8a5 5 0 0 0-4.7.6c-19-.5-41.1-2.2-59.9-1l1.2-1.7q1.2.3 2.2-.4 5.6-4 11.7-7.2 2-1.4 4-2.4.8-.3 1.3-.7l.8-.4 1.1-.9 5.1-2.7 7-4 5-3 .8-.6q.8 0 1.2-.7a35 35 0 0 0 5.7-3.2l1.3-.7 5-2.8 6-3.3 1-1q3-1.4 5.6-3.2.8-.2 1.4-.8a56 56 0 0 0 7-4l5-2.7 6-3.4 1-1a23 23 0 0 0 5.5-3.1q.8-.2 1.5-.8l5-2.7.6-.6 1.4-.7c1.1-.6 3.5-1.4 3.5-3Zm269.9 22.5c2.1 1.5 1.2 8 1.6 10.4-2.4-.7-18.5 10.1-21.7 12l-1.5 1.3c-.2-4 1.1-7.1-.1-11.4zm.1 18.2a25 25 0 0 1-.1 10.2l-20.4 12-1-10.2c4.4-1.5 16.6-9.3 21.5-12Zm-461 7c.8 4.7.3 20.4.5 26.2-2.7-.6-19.2 10-22.1 12.2V74.8c6.9-4.3 14.9-11 21.5-16Zm461 5.2q.5 5 .5 10c-2.8-.3-18.2 10-21.4 12q.4-5.4.4-11 9.3-5.1 18.7-10.5.9-.5 1.9-.5ZM35.3 88l.8-.1c.7 3.1.6 7.7 4 9.2q-1.4 1.4-3 2.4l-22.9 13.6v-11.3A710 710 0 0 0 35.3 88ZM74 94c.2 5 1.2 12 .7 17l-5.8 4q.1-1.5-1.2-1-26 14.6-51.7 29.6l-2 1.7.2-11.5q30-19.6 59.8-39.9Zm13.3 39-.4-6q14.1-8.2 28-16.6c1.2-.6 2.5 0 1.1 1l-21 16.8a102 102 0 0 1-7.7 4.8ZM75 127q.9.5.7 1.5c-.2 3 .8 8.7 0 11.4l-14.8 8.7c-15.5 9-32 17.7-46.8 27.7v-11.6a3 3 0 0 0 1.9-.4l48-30.7q5.4-3.4 11-6.6Zm31.8 10q-.9 0-1.8.4-7.8 5-15.9 9.6l-.5-1.9 30.4-17.8q.9-.5 1.6.1-1.3 1.5-3.1 2.6c-2.5 1.7-6 2.8-7.5 5.5a12 12 0 0 0-3.2 1.5Zm149.6-4.8-.2 1.8q-21.4 11.7-42.4 24l.2-3 41.5-27.6q.2 2.4.9 4.8Zm-180.5 9.7q.9 6.6 1.3 13.1-.7-.3-1.5 0-30.9 17.5-61.6 35.3v-10.6q2-.8 4-2L74 142.6zm45 3.2c1.4-.5 2.6.5 1 1.4-4.5 3.3-27.5 21-31 21.5a15 15 0 0 1 .1-4q14.3-9 29-17.8zm-44.1 11.6a107 107 0 0 1 1.5 13.3 5 5 0 0 0-2.3.5l-61.8 35.8v-10.5zm1 15.3c1.4 7.8 1.6 17.2 2 25.2q-33 18.5-65.6 37.9c.4-2.8-.7-8.9.8-11q10-6.2 20.3-12.1l24.9-15.4 1.9-.8a23 23 0 0 1 7-4.3 6 6 0 0 1 2.8-2.2c-2-1.2-4.1 1.8-5.8 2.5q-15.9 9.3-31.9 18.4v.1l-20 11.8V211a3 3 0 0 0 2.5-.6zm1 27.7 1 .2c0 10.7.8 24.8-.8 35.1q-1 .2-2 .7-30.8 18-61.7 35.6a72 72 0 0 1-.2-20.2q13.8-8.4 28-16.4 2.2-1.9 4.7-3.5c-1-.8-2.7 1-3.8 1.1a832 832 0 0 1-29 17c-1.2-1.6-.4-8.1-.7-10.3q1.3.2 2.4-.6l60-37q1.2-.7 2-1.7Zm49.7 3.5v.9c-2.4-.1-27.2 16.8-31.5 19.5q-1 .9-1.7 2.1-.6.2-1-.3 0-1.9-.7-3.6l.2-2.8q1.5-.3 2.7-1 15.4-9 31-17.7.3 1.5 1 3Zm354.2 5.1c2.6 0 3.5-1.4 5.4-2.8 1.3-.6 6.6-3 7-4.2-1-1.5-10 5.2-11.7 5.8q-.5.5-.7 1.2ZM78.7 238c3.5 7-10.2 37.6-15 43q-10.5 5.7-20.8 11.8L14.7 309q0-5 .3-10a174 174 0 0 0 16-9.8c-.6-1-1.5-.3-2.3 0l-10 6L15 297c0-4.1-1.4-18 1-21l62.6-38.1Zm194 3.1q.9 0 1.3-.6-.9-.3-1.2.6Zm224.1 1.8q.8 5.1 0 10.3-20.6 12-40.7 24.6l-23.9 14-9 5.9q.7.7 1.9.1l8-5.2q11.3-6 22.2-12.6 1-.7 1.4-1.8 1.2 0 2.3-.6 18.7-10.9 37.6-21.6c1.2 2.7.3 8 .7 11.2-1.9-1.1-3.7 1.2-5.3 1.9l-1.2.8-8 5-8 5a333 333 0 0 1-16 10 264 264 0 0 1-15.1 9.1l-1 1-7 4.1-1 1-7 4q-.6.3-1 .9l-7 4.1-1 .9-1.8 1-1.2.8q-2 1.4-4 2.3l-1 1-1.8 1q-.6.2-1.2.7-2 1.4-4 2.3l-1 1-1.8 1q-.6.2-1.2.7l-4 2.4-1 .8-1.8 1-1.2.8a24 24 0 0 1-4 2.3l-1 1q-1.2.6-2 1.4-2 1-4 1-15.9-2.5-31.3-7.3a2 2 0 0 1-1.5-1.3q.4-.5 1.2-.8l1.2-.7q.4 0 .7-.3.8-.2 1.3-.7l5-3 .6-.7q.8 0 1.4-.6l5-2.7.6-.5q.8-.3 1.5-.8a129 129 0 0 0 10-5.7l.8-.4 1.1-.8 5-2.8.8-.7a61 61 0 0 0 6.2-3.4l.7-.4 1.2-.7 5.1-2.8 6-3.3 1-1q3-1.3 5.5-3.3.8-.2 1.5-.6l3.7-2 1.3-.8 7-4q3-1.5 5.4-3.6.9 0 1.5-.6 3-1.4 5.6-3.3.8-.2 1.5-.7l5-2.8 7-4q3-1.7 5.6-3.6.8-.2 1.4-.6 3-1.4 5.4-3.4.8-.1 1.5-.7l5.1-2.7 6-3.3 1.1-1q3-1.4 5.5-3.2.8-.2 1.4-.8a32 32 0 0 0 5-2.7l.7-.5 1.3-.7 5-2.8zm.1 31.9q-.9 5.6-.6 11.4-1.2-.1-2.3.4l-22.8 14.2Q455 310 439 319.6c-.4.4-1.3.7-.6 1.3q1.6-.8 3.5-1.3l5.6-3.7q12.3-6.8 24.4-14l24-14.1-.1 11.4q-1-.3-2 .2a2041 2041 0 0 1-54.8 33.2c-.4.4-1.4.7-.6 1.3a14 14 0 0 1 3.6-1.2l1.7-1.5q12.2-6.7 24.3-13.9l27.8-16.5q0 5.6.3 11.2-1.2 0-2.3.5l-51 31.9q-1.8 1.1.1 1.8-.7.7-1.8 1c-18-6.6-34.5-8-53.5-9.3l1.3-.9 1.3-.7 5-3 .8-.5 1.3-.8 5-2.7.6-.6q.8-.1 1.4-.6l5-2.8 5-3 .6-.3 1.3-.8 5-3 .7-.6q.8 0 1.3-.5 3-1.4 5.6-3.3l1.4-.7 5-2.8q3-1.8 5.9-3.3l1.1-1q3-1.3 5.6-3.3.8 0 1.4-.7a32 32 0 0 0 5-2.7l.7-.5q.8-.2 1.3-.8l5-2.7q3-2 6-3.2l1-1q3-1.4 5.5-3.3l1.6-.7 5-2.8 6.9-4 7-4.2zM16.8 286.3c2 0 5.7-2.6 7.2-4-.9-1.1-6.6 2.6-7.2 4Zm45.9-3.4c.3 2.5-5 12.1-5.7 15.3q-1-.1-2 .2l-39.7 22.9q-.8-5.1-.2-10.4 1 0 1.9-.6 13.5-8.4 27.4-16.4 9-5.6 18.3-11ZM52.2 307l.8-.1c-2.3 9.1-5.7 18-7 27.4a3 3 0 0 0-2 .1l-28.7 16.7a38 38 0 0 1 0-10l28.4-16.8q.6-.3 1-1.1c-1-.9-2.5 1-3.7 1.1l-24 14.3q-.9.4-1.9.4c0-2.7-1-8 .9-10zm269 21.5 8.8 3.7c-4.9 5-18.3 10-23.2 15.2l-6-3.1zm174.6 2.3q1 .5 1 1.7.3 4.4.2 8.7c-2 0-34.5 22-39 24.8-.4.2-4.3-9-6-10.1q1-.1 1.7-.6zm-450 5c-1.1 3.6-.3 9.5-1.7 12.5-7 3.3-21.9 12.4-29.3 16.7q.3-5.4 0-11c4-.8 25.8-15 31-18.1Zm329 9.2q2.1-.5 4.2-.1-.2.6-.7.9c-9.8 5.2-19.5 11.7-29.4 16.5l-2-.5q.9-1 2.4-1.7 12.6-7.7 25.6-15.1Zm20.2 1.3q5.5.5 11 .6c-2 2.5-29 17.7-33.2 19.3a9 9 0 0 0-2.8-1.4l21.8-16.5c.7-1 3.7-.6 3.2-2Zm102 2.7c1 2.4.7 7.5.9 10.3q-20 12.3-39.7 25 .6-6.8.8-13.4 19.2-10.6 38-22Zm-452.2 2.8.2 11.3q-15 8.3-29.8 17-.4-5.5-.3-11.2 1.2.7 2.4-.1zm389.4 1.6q2.2 1.5 4 3.5c-4.2 2.5-29.9 18.8-32.5 18.8q-.6-.8.3-1.3 14.3-10.3 28.2-21Zm63.6 10.4c.1 2.9 1.4 9-.7 11.2l-52.8 35.3c-.9-1.8 1-2.4.7-4.3q6-6.5 10.4-14c1.5-2.2 1-5 3.7-5.9zm-283 33.5q-.9-.3-1.8.2l-19.7 11.3q-10.2 2.7-20.1 6.7-1-.5-.6-1.4l60.3-34.6c1.4-1 7.6-3.9 8.7-2a323 323 0 0 1-13.4 10.1c-2.7 1.5-6.6 5-9.2 6-1.7 1.6-1.4 3.1-4.2 3.7ZM50 380.7c1 1.2 3.5 6.4 4 8.3q-19.5 10.8-38.7 22-.7-5-.1-10 8.1-4.5 15.9-9.5a11 11 0 0 0 5-3 156 156 0 0 1 13.9-8Zm448.8 1.2c-.1 3.4.6 8.2-.2 11.4q-.9-.3-1.6.2l-13.9 9q.9.8 2 .2c3.4-3 8-4.7 11.8-7.3q.9-.3 1.9-.4.6 5 .1 10c-4.1 2-18 11.8-22.8 15-1.8 0-1.1-4.2-4.7-4.5q-4.6.8-7.8 4.5c-1.7 4.3 1 25.5-1.7 27q-4.6 3.3-8.8 6.7c-.8.8-3.9 1.4-3.9 2.6q.9.6 1.8 0 6-3.8 12-7.3.9.4.6 1.3-.5 7.7-1.7 15.2 0 .8-.7 1.2-21.2-.7-42.5 1.2l13-9.2q-.7-.7-1.7-.4a6572 6572 0 0 1-69.7 40.5q-1.5.6-2.2 2c-5 0-12.7.5-17.3-.2a2226 2226 0 0 1 48-32.2q-1.2-.4-2.2.2l-13.7 8q-20 12-40.3 23.4-.6.4-.4 1-8.8 0-17.6-.3 9.7-6.4 19.5-12.1 1-1.6 2.8-2.2c-.6-1-1.5 0-2.2.1l-23.6 14.1q-8.7.4-17.4.3.7-.7 1.5-1l1-.8 2.1-1.1 1.1-1 2-1 1-1q.8-.6 1.8-1l1.1-1 2-1 1-1 1.9-1 1.1-1 2-1 1-.9 1.5-1.3 1.6-.8 1.4-1.3q.9 0 1.6-.7l1.5-1.3q.9-.1 1.4-.7a3579 3579 0 0 1 46-30.7q.8-.9 1.8-1.3l1.2-.7q.8-.9 2-1.4 4.6-3.4 9.9-6.3 1.5-1 2.7-2.3-.4-.6-1.3-.3a297 297 0 0 1-16.7 10l-1.2.7-.8.5q-.7.3-1.2.8l-5 2.7-5 3-.7.5-1.3.8-5 2.7-.9.5-1.2.7-5 2.8-.7.6-1.2.6-5 2.8-5.6 3.5-1.5.7q-2.8 1.4-5.4 3.3a57 57 0 0 0-19 11l-1.5.7a51 51 0 0 0-7.1 4L291 493l-1.3.7-7 4.2c-.7.6-4.7 2.1-4.5 2.8q-8.7.4-17.4.1 27-17.5 54.4-34.9c6.6-4 13.2-9 20-12.3q.8-.4.8-1a2 2 0 0 0-2 0q-9.9 6.1-20.1 11.9-.7.8-1.6 1.3-30 17-59.8 34.2-.3.3-.2.8-8.8.2-17.5.1c0-.9 6.3-3.9 7-5.2q.8 0 1.5-.6l2-1.2 1-.8 1.8-1 1.2-.9 11.1-7.2q.9-.6 1.9-1l1-1 3-1.8 3-2a150 150 0 0 1 10-6.2l1-1 3-1.8 1.8-1.2q.6-.2 1.2-.8 5-3 9.6-6.5.8 0 1.4-.6l2-1.1 1-1 1.7-1 1.3-.7 1.8-1.2 1.2-.8 1.8-1.2 1.2-.8a48 48 0 0 0 6.4-4.6q1-.2 1.7-.6.8-.7 1.8-1.1l1.2-1 2.9-1.7 1.8-1.2 1.2-.8 1.8-1.2 1.2-.8 3.6-2.6q.8 0 1.4-.6 1.1-.6 1.6-1.7-.3-.7-1-.4c.6-1 7-4.1 8.2-5.3l1.4 1q1.3-.8 2.9-.5c29.7 2.8 59.1 4.7 85.2-12.6l.3 1.3q-4 2.6-7.8 5.4l-1.8.5q-3.9 3.2-8.4 5.6-.8.3-.9 1.1a2 2 0 0 0 2.1-.1l8.6-5.5q.6-.4 1.4-.5l70.9-41zm-373 40.7q-4.5-.6-8.8-1.7.3-.7 1-1.2 26.7-15.2 53.4-30.8 3.3-2.7 7.3-4.1l.3.3-3 2.7-48.5 32.2a4 4 0 0 0-1.7 2.6Zm169.4-36 1.8.4c-3.2 2.7-25.7 19.7-26 21.3l-10-1.4-.5-1.4c9.4-5.5 24.7-16.2 34.7-18.9Zm-239.4 6.1A172 172 0 0 1 68 408.3v.4q-9.5 5-18.6 10.4c-2.6-.6-3.2-4.4-6.5-4.3-5.6 2-6.6 8-7.7 13-4.7 1.7-15.2 8.4-20.1 11.2a26 26 0 0 1 .2-10q11.5-6.6 22.6-13.8c-1.2-1-2.7 1-4 1.1q-9 6-18.7 10.7c-.3-2.4-1.1-8.3.8-10q20-12 39.8-24.3Zm79.2 2.2q1.4 0 2.6.6L107.9 415q-1.5.9-2 2.2l-4.1-1.7c1-4 31.9-17.3 33.2-20.7Zm223 1.4 2 .9c-6.9 6-21 17-29.2 21.2l-6-1c2.2-4 28-15.6 33.2-21.1Zm-3.2 25.2-5.8-.5-1.7-1.4 27.7-16c1.4-1 2.5 0 1 1-3.8 2.7-20.2 13.7-21.2 17ZM396 408q1 .8-.1 1.4c-3.7 3-14.1 13-18.3 12.7q-3.8.1-7.4-.5 3.9-2.6 8.1-4.8c1-.7 1.1 0 2 .1l2.4-1.5c1.3-3.5 4.5-1.5 5.4-3.3q1.8-1 3.8-1.6a14 14 0 0 1 4-2.5Zm-327.3.8c2 1 8.5 6.2 9.5 7.5l-3.2 1.3q-12.6 7.4-25.3 14.6.8-5.7-.8-11 1.2-.2 2.1-.8L68.4 410q.5-.6.3-1.2Zm430.2.2c.9 3 .5 8.7.4 12a3 3 0 0 0-2.4.4l-20.5 15c-1.5-2.5-.5-11.2-.3-14.4a482 482 0 0 0 22.8-13ZM245 411.1l.1 1-2.2-.2-1.3.8-.7.5-1.3.7q-1.9 1.2-3.9 2l-1.1 1a26 26 0 0 0-5 2.8l-.8.6-1.3.7-5 2.7-.7.5-1.3.8-5 2.7-.5.7q-.8 0-1.5.6a108 108 0 0 0-10 5.7l-.6.6q-.8.2-1.4.7l-5 2.7-.7.6q-.7 0-1.2.6l-3.7 2-1.3.8-5.7 3.3-1.3.7q-3 1.6-5.6 3.6-.8 0-1.4.6-3 1.4-5.5 3.4-.8 0-1.5.7l-5 2.7-7 4q-2.8 1.6-5.5 3.5-.9 0-1.5.7a168 168 0 0 0-10.7 6l-1.3.8-6 3.3-1 1a38 38 0 0 0-7 4l-5 2.7-.8.6q-.8 0-1.3.6l-11.9 7q-3 1.4-5.5 3.4-.8 0-1.5.6l-3.8 2-1.2.8c-.5.8-2.9 1.1-2.6 2.2l-17.3.1q2-2 4.5-3.3l40.3-24.6q2.8-1.7 5.8-3l26.6-16.7a19 19 0 0 1 4.1-1.9 4 4 0 0 1 2.7-2.1c-2-1.4-4 1.7-5.7 2.5l-24.5 14q-2 1.2-3.7 2.7-27.8 15.5-55.1 31.6a1 1 0 0 0-.5.8c-5 1-10.6.9-15.6.4q-.6-.3-.9-1 20.6-13 41.3-25.8 1-.6 1-1.8c2.5-.4 5.6-.2 6.3-3.8q1.5.3 2.7-.5l74-46a2 2 0 0 0 .9-1.9c24.4-6 42-13.4 68-9.5Zm-166.2 5.4c22 12.8 44.6 13 69.2 10 4-.3 17.2-3.7 20-3.2v.2q-36 20.4-71.6 41.5c-2.7 0-19.8.9-20.8.3l2-.9 37.4-22.9 2-.8 5.4-3.7c2-.3 1.7-1 3-2a9 9 0 0 1 3.7-1.4q1.8-1.5-.6-1.2a183 183 0 0 0-12.5 7.4l-44.2 25.5c-6.5 2-22.4 1.6-23.4-8.1q-.5-5 .4-10.1 7.5-4.3 14.8-9c2.3-.4 4.2-2.6 6.2-3.8-.7-.9-1.6.1-2.3.3q-7.4 4.6-14.9 8.8L49 445q-.5-5.7 1.1-11.2 14.4-8.5 28.7-17.3Zm419.8 12.2c1.3 13.1-.9 52.6-8.7 64.9-5.2 11.4-22.3 5.8-32.4 7.3q6.6-6 13-12.3-.3-.4-.9-.4c-2 2.3-19.6 11-19.6 12.6q-17.7.3-35.3-.1l1.6-.7q3.4-3 7.3-5.7-1-.5-2 .1-4.4 3-9.2 5.7-.4.2-.4.6-8.6.3-17.3.2 5.1-3.6 10-7.6l1.9-.8c-2.6-.7-2.5.5-4.3 1.6l-9.4 5.4q-.7.6-.8 1.4l-18.4-.1q19.7-14.1 39.2-28.5 1-.6 1.7-1.7c15 1.9 30.5 1.3 45.7 1 19.8-2.7 13.3-24 16.6-30.6q11-6 21.7-12.3ZM35 429.9c1.2 2.7 1 7.5 1.2 10.4q-11 5.9-21.7 12.1c-.9-3 0-7.6.8-10.6q10-5.7 19.7-11.9Zm.9 12.8c1.7 2.1 1.2 7.9 1 10.5q-.9 0-1.8.5l-21.6 12.5c.3-3.5-1.3-8.6 1.6-11.2q10.6-6 20.8-12.3Zm1 12c-2.2 17 6.8 18.5 21.3 18.5l-34 19.8c-4.7-1-8.3-10.8-9-15q.9 0 1.8-.6 5-2.9 10-6.1c-.6-1-1.5-.2-2.2-.1Q20 474.3 15 477c-1.4-2.2-1.3-6.5-1.1-9l21-12.6zM81 474q-21.2 12-42.3 24.3-1.2.4-1.4 1.6c-3.8-1-8.7-2-11.3-4.9q1 0 2-.6l34.2-20.7c4.3-1 12.6-.2 17.3-.4q1 0 1.5.6Zm421.4 18q.8 3.5-2.4 5l-1.2.8q-2.2 1.4-4.6 2.4 0-1 .8-1.7 3.8-2.3 6.3-5.8zm-11.2 10.2c-1.3 1.6-3.5 2-5.3 3l-1.2 1-2.6.9h-2c-.6 0-2.3 0-2.1-.9q6-1.5 11.7-4z"/><path fill="#4d5c7a" fill-opacity=".6" stroke="#4d5c7a" stroke-opacity=".6" stroke-width=".5" d="M482.7 208.3q.2-.8.8-1.2c1.7-.6 10.5-7.3 11.5-5.8-.3 1.2-5.6 3.6-6.9 4.2-2 1.4-2.8 2.9-5.4 2.8Z"/><path fill="#4d5c7a" fill-opacity=".5" stroke="#4d5c7a" stroke-opacity=".5" stroke-width=".5" d="M491.9 23.2a3 3 0 0 1-1.5 1.7L479 31.5l-3.6 1.6-.3-.4q5.7-3.9 11.7-7.4c1.7-.5 3.3-2.5 5-2.1ZM432.3 89q-.4.5-1.2.8.3-.8 1.2-.8ZM387 111.3q-.5.9-1.4.7.6-.6 1.4-.7Zm-51.7 33.9-1.2.5q.3-.8 1.2-.5Zm161.4 4.7.1 1.2-15.8 9.4-3.7 1.6-.2-.5 16.5-10.3q1.5-.8 3.1-1.4Zm-38.3 12.2q-.5.4-1.4.6.5-.7 1.4-.6Zm-97 28-1.3.7q.3-.9 1.3-.7Zm33.5 107.2q-.3.8-1.3.6.6-.4 1.3-.6ZM91.3 409q-.8-.2-1.3-.8l5.2-2.5 8.6-5.5c.7-.2 1.6-1 2.2 0l-13.6 8.6q-.6.3-1.1.2Zm243 27q-.6.5-1.4.6.5-.9 1.4-.6Zm6.6 28.2q-.2.8-1.1.6.5-.4 1.1-.6Z"/><path fill="#4d5d79" fill-opacity=".4" d="M448.7 73q0 1-1 .9zm-56.4 39-1 .9q0-1 1-.9m-21.5 68q0 1-1 1zm47.4 5-.9 1q-.2-1 1-1m-27.6 13q.2 1-1 .9zm-67 11.1q.3 1-.8 1zm-2.3 4-1 .9q0-1 1-1m78.5 81q0 1-1 1zm27.9 14.9q.2 1-1 .9zM229.2 423l-1 1q0-1 1-1m92.5 18q0 1.1-1 1zm-190 35q0 1-1 1z"/><path fill="#a2a7ae" d="M337.8 394.2q3.2-.5 6.4 0-3.1 3-6.4 0"/><path fill="#abb1b9" d="M141.8 393.3q2.3 0 4.4-.7c1.7.3.2 2-1 2q-2 0-3.4-1.3"/><path fill="#4c5e79" fill-opacity=".2" d="m442.3 171.3-1.2.8q0-1 1.2-.8M368 181.9q0 1.2-1.2.8zm-22.6 17.4-1.2.8q.2-1 1.2-.8M321 210.9q0 1.2-1.2.8zm-116 223q0 1-1.2.8zm124.4 5.4-1.2.8q0-1.1 1.2-.8M298 454.9q-.2 1-1.2.8zm59 0q-.2 1-1.2.8z"/><path fill="#4d5d7b" fill-opacity=".4" d="M324.4 33q-.5.6-1.4.7.5-.9 1.4-.7m-29.1 1q-.6.5-1.3.8.3-.9 1.3-.7M457 111.4q-.5.7-1.3.7.5-.5 1.3-.7m-31 34.9q-.4.9-1.4.7.7-.6 1.5-.7m-47.3 29q-.2.9-1.1.7.6-.5 1.1-.6m51.6 137.9-1.5.7q.4-.8 1.5-.7m-113 134q-.7.5-1.7.6.7-.6 1.7-.6m-195 42.9q-.7.6-1.6.7a2 2 0 0 1 1.6-.7"/><path fill="#b1b9c0" d="M234.9 296.8q3.2-.3 4 2.8 0 .6-.6.7-2-1.5-3.4-3.5"/><path fill="#4e5c7a" fill-opacity=".3" d="M296 29q-.3 1.1-1.3.7zm21 4q-.3.9-1.3.7zm150.3 76.3-1.2.8q.2-1 1.2-.8M401 325.9q0 1-1.2.8zm-74.6 115.4-1.2.8q0-1.1 1.2-.8m40 11-1.2.8q0-1 1.2-.8"/><path fill="#4b5c79" fill-opacity=".2" d="m286.3 39.3-1.2.8q0-1.1 1.2-.8m135 279-1.2.8q0-1.1 1.2-.8m-66.4 3.6q-.2 1.1-1.2.8zm2.4 1.4-1.2.8q0-1.2 1.2-.8m-117 93-1.2.8q.2-1 1.2-.8m-16 10-1.2.8q.1-1 1.2-.8"/><path fill="#818891" d="M249.7 377.4q2.3-.7 4.5.6c-.5 2.3-3.6.3-4.5-.6"/><path fill="#4b556d" stroke="#4b556d" stroke-width=".5" d="M84.5 372a43 43 0 0 0 38.7 22.3l.8.5c-1 .2-2.2-.4-2.8.6q1.6 1.5 2.8-.6 5.5.2 11 .1c-1.3 3.4-32.1 16.6-33.2 20.7a96 96 0 0 1-9.5-5.3q-1-.3-1-1.2l1-.2q7-4.2 13.6-8.7c-.5-1-1.4-.1-2.2 0l-8.5 5.6-5.2 2.5a66 66 0 0 1-22.9-25.4q5-3 10-6.4a13 13 0 0 0 5-3.2q1.4-.2 2.4-1.2Z"/><path fill="#4d5c7a" stroke="#4d5c7a" stroke-width=".5" d="M473 12.3c2.9.8 7.8 1.7 10.1 3.8q-.6.8-1.3 1.3l-7 3.8-4.8 3.5q.5.6 1.3.3l13.4-8c2.2.3 6.8 4 7.2 6.2-1.8-.4-3.4 1.6-5.1 2q-6 3.7-11.7 7.5l.3.4 3.6-1.6q5.6-3.5 11.4-6.6a3 3 0 0 0 1.5-1.7c1.7.2 5 6.3 4.1 8.2l-21.6 13c-12-8.6-34.2-2.9-48.5-4.5q23.6-13.5 47-27.6ZM117.1 251q-.4.8-1.3 1.3-14.4 9.7-29.1 19l-6.8 5q-.8.3-1.4-.4l2.6-6q2.7-1.2 5.8-1.5.7-1.6 2.2-2.7c1.2-.3 3.2-2.4 4.2-1.1.6-1.6 3.2-4.2 5.1-3q.3-.9 1.1-1.5 2.8-.3 4.6-2.5c3.8-.9 9.6-7.1 13-6.6Z"/><path fill="#4b566e" stroke="#4b566e" stroke-width=".5" d="M79 343a57 57 0 0 0 5.5 29q-1 1.2-2.5 1.3c-2-.7-2.4.4-4 1.5l-10 5.9a4 4 0 0 1-1.8.5c-2.7-1.5-8.5-19.4-8.3-23.4q6.3-3.5 12-7.5c1-.6 3.6-2.2.7-2.4 2.8-1.6 5.5-4 8.5-5Z"/><path fill="#262626" stroke="#262626" stroke-width=".5" d="M487.6 6.2q.5.7 1.4 1c13.4 5.3 19.6 11.5 20.6 26.3q.2 160 .1 320c-3.6 23.4-.1 46.6 1.5 70 .6 1.5-.7 5.8.8 6.5v30a1 1 0 0 0-.6.7 64 64 0 0 1-9.2 30l.1 1.2q-.6.2-1.1.7a21 21 0 0 1-6.3 5.8 2 2 0 0 0-.8 1.6q-2.1 0-2.4 2l-.6.1h-1.5q-5.7 2.5-11.7 4c-2.8 0-12.2-.4-14 1 .3-1.6-5.2-1-6-.9-4.4-.2-15-.6-18.7.3q-3.1-.6-6.4 0c-2.6-.9-7.6-.4-10.5-.4h-7.7a278 278 0 0 0-20 0c-3.4 0-10.5-.5-13.4.3-1.6-.2-4.9-.5-6.4 0-5-.8-20.4-.3-26.5-.2l-7.5.2c-4.3-.7-13.6-.3-18.5-.3q-3.7.2-7.6 0h-21q-12.8-.3-25.6.2-3.7 0-7.4-.3h-26l-25.4.1q-3.3-.3-6.6.5c-2.8-1.1-15.5-.4-19.4-.5q-3.7.3-7.6 0h-17.5q-3.7.2-7.5 0h-15.3q-3.8.5-7.7 0h-22a1194 1194 0 0 0-48.6.2q-3.2-.5-6.4-.2-11.4 0-22.7-.3c-.2-1.3-4.4-.6-5.3-.9l-5.2-2c-13.7-6.3-10-13-12.2-24.9l-.4-3.4C.7 418.1.3 362.2 1.2 305.5c1.6-58.9 3-119.2 1.1-178 5.4-36.4-11-74.6 6.9-108.4q.8-.4.5-1.2 2.3-.6 2.6-3 .7-.5 1.5-.5.9-.6 1.5-1.4Q20 10 25 7.8q4.1-.5 8.3-1.3l.9-.6a576 576 0 0 0 25-.3c5.5.8 18.4.2 24.7.3h7.5a378 378 0 0 0 21.1 0h24.3q3.3 0 6.5-.4c2.5 1 8.6.3 11.5.4h6.6c5.9-.1 16.3.5 21.5-.2q3.3.5 6.5.3 8.2 0 16.6-.3 3 .6 6.3.2 12.9.3 25.6-.2 3.3.6 6.5.3c4.4-.3 18.2.5 21.5-.6 1.4.8 4.9.4 6.6.6a531 531 0 0 0 25.7-.2 356 356 0 0 0 25.3 0q10.1.3 20.3.2 3.7-.5 7.6 0 10.2 0 20.5-.3 3.3.5 6.6.3h15.3q3.2 0 6.5-.4c4.1.8 14.7.3 19.5.3h7.5a275 275 0 0 0 20 0h10.5c1.7 0 5.1.2 6.6-.6 2.8.5 20.9.2 23.3 1Zm-57.4 5.6c-.3-1-2.1-.8-2.8-.4-4.2-.8-12.8-.1-17.5-.1q-4.4-.4-8.7-.2h-17.4a18 18 0 0 0-5.6.4c-3.6-1-13.2-.2-17.4-.3l-9.6-.2a3341 3341 0 0 1-53 .1h-17.4c-2.5.1-6.3-.4-8.6.4-4-.9-12.9-.2-17.4-.4-2.8.1-8.1-.5-10.6.5-3-1.1-13.6-.2-17.4-.5-3.7.2-11.5-.6-14.6.4-3.5-1-13.2-.2-17.4-.3q-2.9-.4-5.6.3c-4.3-.9-12.7-.3-17.4-.3-2.8 0-8-.6-10.6.3q-17.2-.6-34.5-.4H91.3a596 596 0 0 0-31.2 0h-25c-15.2 2-21.4 11-19.8 26.2q-1 2.2-.3 4.7l-.7 32.8a880 880 0 0 0-.1 27l-.1 13v11.6q-.2 3.8.1 7.4a194 194 0 0 0-.1 16v29.9a621 621 0 0 0 0 26.6v4.6l.1 11.2q-.2 1.2.8 2c-1.5 2.1-.4 8.2-.8 11v4c.4 2-.4 8.6.8 10.1q-.1 1 .1 2c-1 2.2-.7 17.8.2 20.1-.8 1-1.5 5.3.8 4.7-2.5 3-1 16.9-1.1 21 0 .5-.8 1.7 0 2l-.3 10 .4 2q-.6 5.1.2 10.3c-.4 1.1-1.3 8 .7 7.6-1.9 2.2-1 7.4-.9 10q0 1.2.2 2.2a38 38 0 0 0 0 10l-.6 3q.5 5.4 0 11 .2 1.8.2 3.8 0 5.7.3 11.2-.4 4.5-.3 8.8l.3 12.2q-.6 5 0 10c-.2 1.1-1.1 6 .8 6-2 1.6-1 7.5-.8 9.9q-.2 1 .1 2a26 26 0 0 0-.2 10 4 4 0 0 0 .1 2.8c-.8 3-1.7 7.6-.8 10.6-.6.8-1 3.2.6 2.5-2.9 2.7-1.3 7.8-1.6 11.3q-.3 1 .5 1.8c-.1 2.5-.2 6.8 1.2 9v1c.8 4.2 4.4 14 9.1 15q0 1.8 1.7 2c2.6 2.9 7.5 3.8 11.3 4.8 2.9.8 11.3 2.5 13.6.7q.3.6.9.9c5 .5 10.7.6 15.6-.4q2.7.6 5.5 0l32.9-.1a465 465 0 0 0 22 0q8.8 0 17.5-.2 2.9.6 5.6-.2c4.3.8 12.7.4 17.3.3q3.8.3 7.6 0a791 791 0 0 0 26 .1h17.6a620 620 0 0 0 33 0q4.3.1 8.5-.1 8.7.3 17.4 0 7.8.3 15.5 0a223 223 0 0 0 21-.2q8.7.4 17.5.3 4.3.3 8.6-.4c4.6.8 12.4.4 17.3.3q7.8.3 15.7 0a473 473 0 0 0 21 .1 382 382 0 0 0 20-.2 1128 1128 0 0 0 42.8.2c10-1.5 27.1 4.1 32.4-7.3 7.8-12.3 10-51.8 8.7-65q1.2-3.7.6-7.7c0-3.3.5-9-.4-12q.6-1.8 0-3.8a41 41 0 0 0-.3-11.8c.8-3.2 0-8 .2-11.4q.1-3-.4-5.7 0-1.3-1.3-1.3c2.1-2.1.8-8.2.7-11.1q.3-2.3.1-4.5c-.2-2.8.2-7.9-1-10.3q.6-3.9 0-7.8v-8.7q0-1.2-1-1.7c.9-.7 1.4-4.7.1-4.6q.6-5.3-.2-10.4.4-1.9.4-3.8-.3-5.6-.3-11.2v-13l.4-1.7q-.4-5.8.6-11.4.4-3.8.4-7.6c-.4-3.1.5-8.6-.7-11.3q.8-1.2.3-2.7.6-5.2 0-10.3.5-3.9.3-7.8c-.3-2.7.5-8.9-.5-11 .5-1 .9-3.2-.7-3 2.2-2.4 1.2-26 .9-31 .1-.7.5-2.1-.6-2.3 1.5-2.2 1-7.6.3-10.1.5-.7 1-3-.5-2.6 2-2.1.7-8.2 1.2-11.1l-.2-2.6c0-2.6.5-8-.3-10.2l-.1-1.2c.8-2.8.7-7.2.2-10 .2-1.8 1.2-5.5-1-6.3q1.3-.6 1.3-2 .2-3.9-.3-7.6.1-1-.1-1.9c.6-3.2.7-7 0-10.3q.6-3.6.4-7.4 0-1.2-1.3-1.7c2.4-1.2.9-8.4 1.3-10.8q.1-2.4-.3-4.8c.4-2.8.6-7.6 0-10.3l.4-2.8a109 109 0 0 0-.6-12c.7-1.8.8-8.6.1-10.2 1.8-1.8 1-5.5 1.5-7.8-.4-2.4.5-8.9-1.6-10.4.3-.6.5-2.5-.7-2.2.8-2-2.4-8-4.1-8.2-.4-2.2-5-5.9-7.2-6.2q-.4-1-1.6-1c-2.3-2-7.2-3-10.2-3.7q-3.7-1-7.6-1.2c-6.2-.8-30.3-1.6-35 .7ZM76.2 39c-.2 1.9 2.8-.3 3.8-.1 1.7 0 21.8 1.7 17.1 4.6-14.3 4-30.6 1-45.5 1.8q-.7 0-1.2.6c-3.5 14.3-.8 30.7-1.7 45.4-.1 1.7-3.9 3.6-4.7 4.9l-4 1c-3.4-1.6-3.3-6.2-4-9.3l.2-1V85c-.1-5.8.4-21.5-.5-26.1q.9-1.5.3-3 1.8-5.1 4.5-9.9c8.7-11 25.1-3 35.8-7Zm349.8.9c14.2 1.6 36.4-4.1 48.4 4.5q-.3 1 .6 1.5c1.2 4.3-.1 7.3.1 11.4q-.1 3.3.2 6.5l1 10.3v1a103 103 0 0 1-.6 13c-2.2 8-4.9 8-12.7 7.8q0-1-.2-1.7 0-11.7 1-23.3.3-3.4 0-6.7c.2-1.9.3-9.5-1.7-10.5q0-1-.3-1.7c-.3-2.5-2.1-5.5-4.5-6.4-9.6.7-33.8-.8-41.4 0q.3-1.2-.8-1.9c-1-1.9 1.7-2.6 3-2.8a21 21 0 0 0 7.9-1ZM182.8 73.7q2.7.6 5.5.2 10.2.2 20.4.8 3.7-.2 7.5 0c8.3-1.2 31.4-.9 37.7-2.4q0 .9 1 .9c3 1.6 8.3 1.6 10.4 4.8 11.4 33.7-.7 80-5 114.8-5.4 43.8-5.9 77.5 31.4 107 11 9.8 40.6 25.8 53.9 28.2-.6 1.5 1.5.9 2.3.8a2 2 0 0 0 1.5 1.3q15.4 4.8 31.3 7.3 2 0 4-1 .6 2.3 3 1.5c19 1.3 35.5 2.8 53.5 9.3q0 .5.3.8c2.4.6 8.2 6.3 10 6q-.4 1.2.5 1.9c1.7 1 5.6 10.2 6 10.1 0 1.3-.3 4.1 1 4.9q-.2 6.6-.8 13.3c-.6 1-.8 2.4.9 1.9-2.7 1-2.2 3.7-3.6 5.8a74 74 0 0 1-23 24.7c-26 17.3-55.4 15.4-85.1 12.6q-1.5-.2-3 .4l-1.3-1c-32.4-5.5-65.4-14.2-98-17.5-26-3.9-43.7 3.4-68.1 9.5q-4.5.9-8.9 2.7c-2.8-.5-16 2.9-20 3.2-24.6 3-47.1 2.8-69.2-10l-.7-.3a60 60 0 0 0-10.1-7.9 172 172 0 0 0-12.3-15.6A4 4 0 0 0 54 389c-.5-1.9-3-7.2-4-8.3l-3-11c-.8-1.4-.8-6.4-2-6.6q0-5.7-.2-11.3c-.2-.7.4-3.4-.7-3.5 1.4-3 .6-8.9 1.7-12.4l.3-1.6c1.2-9.5 4.6-18.3 6.9-27.4l.2-1c1.6-.7 2.5-6.2 3.8-7.7.7-3.2 6-12.8 5.7-15.3q1-.7 1-2c4.8-5.4 18.5-36 15-43q.8-1.5.3-2.9c1.6-10.3.8-24.4.7-35.1l.2-1.3v-1.4c-.5-8-.7-17.4-2-25.3l.4-2a107 107 0 0 0-1.5-13.2l.4-1.7a239 239 0 0 0-1.5-15c.8-2.8-.2-8.4 0-11.5q.2-1-.7-1.5v-1a42 42 0 0 0-.3-15c.5-5-.5-12-.7-17 0-.4 1-1.7.1-1.8q1.4-4.4 3.4-8.4c4.8-9.2 35.8-10.2 45.4-11.1 18.8-1.2 40.9.5 59.9 1ZM218.6 96l-4.8 62q-1.6 24.2-.2 48.3c3.3 12.4 20.6 27.8 11.2 41.2l-5.2 6.1c0 1.1 3.2 6 4.4 6.2l.3 1.4q4.5 9.1 3.4 19.3l-1.7 9c1.4 1.5 7.2 7.1 8.9 7.4q1.5 1.9 3.4 3.5c20.4 15.6 39.9 31.6 62.5 44l6 3.1c10.3 5 19.8 9.6 31 12.3q2.6 1 5.5 1.4-.2.3 0 .5 1.9-.4 3.6.2l2 .5q4.9 1.1 10 1.6 3 .8 6.3.9h4.8q1.6.5 2.8 1.4c1.2.5 2 3.8 3 3.6l.4 1.4c9.1 13.4 5.7 18.8-8.2 22.7q-5 .7-10.1 1.2c-4.2-.4-9.7.4-13.7-.9q-3.2-.5-6.4 0a553 553 0 0 1-42.6-7.6c-13.9-3.6-26.8-7-41-8.7q-2.2-1.2-4.5-.6a99 99 0 0 0-43.9 1c-5.5-.2-10 1-15.5 1.8q-.9 0-1.2.7-3.7.8-7.3 2.1c-11.7 3.3-23.6 7.7-35.7 9.7q-2 .6-4.3.7L135 395h-11q-.3-.4-.8-.6a43 43 0 0 1-38.7-22.2 57 57 0 0 1-5.4-29.2c2-20.8 16.4-43.5 37.5-48.9q0-.3.3-.5a43 43 0 0 1-3-24.5q1-.8 1-2 3-5.8 6.3-11.5c.1-.9-3.4-3.7-4-4.5-12.2-15.5 10.5-31.1 11.3-46.9v-.9c.6-41-5-81.7-6.6-122.6q-.5-.7-1.4-.6c-7.4.2-19.9-.6-26.7.3-7.6 6.2-8 37-6.9 46.7q0 3 .4 6l1.3 12.1.5 1.9.2 2c-.5 3 1.1 9.7 1 13.2q-.3 1.2.7 1.8a15 15 0 0 0 0 4c.8 16.8 1.4 34.3 2.8 51l-.2 2.8a154 154 0 0 1-15 54L72 292q-1.1 1.5-.9 3.1c-8.8 14-16.4 41.5-13.9 58.5q0 1.2 1 1.8-.8 1.2-.2 2.5c-.2 4 5.6 22 8.3 23.4q-.6 1.4 1 1.7a66 66 0 0 0 24 26.2q.2.9 1.1 1.2a96 96 0 0 0 13.5 7 91 91 0 0 0 20 5.3 95 95 0 0 0 47.4-7.1q9.9-4 20.1-6.7l2.8-1.6c.2 2.2 4.6 0 5.7-.5l1.4.3a222 222 0 0 1 67.8 1.2 2095 2095 0 0 1 59.8 10.2l24 3.1c20.9 2 44.3 2.3 64.7-3.6 23.3-9.3 35.7-40.5 18.6-61a24 24 0 0 0-3.9-3.5c-8.3-5.7-18.4-6.1-28.2-6.5q-5.5 0-11-.6-8-.3-16-1.4a10 10 0 0 0-4.2 0c.3-1.4-2.6-.8-3.4-.8-14-3.5-28-6.5-41.4-12q-4.5-1.6-8.8-3.6c-52.5-24.8-79.8-51.2-75.9-112.8 1.7-27.4 7.9-54.4 10.9-81.7l.2-1.8c-1.5-11.5 7.7-40-2.1-47.8q-4.2-3.1-9.3-4.6a89 89 0 0 0-25.3.4q-.6.5-.6 1.3-.1 7.2-.5 14.4Zm-83.1 14c-.8 1.2.5 2.8.7 4.1a330 330 0 0 0 2 20.4q.5 1 1.7.8c-1.7 1-1.3 7 .2 6.8l-.6.3c.2 3.3.3 8.7 1.5 11.7q0 1 .4 2c-1 2.4 0 7.2.1 9.9q.3 1.2 1.5 1.4c-2.5.1-.9 4.3-.6 5.7-1 2.6-.2 7.1-.5 10-2 .5-.3 4 .3 5.1-1.3 2.8-1.2 7.4-2 10.5q-.5 3.5 1.8 1l2.2-.6a53 53 0 0 0-4.7 4.8 87 87 0 0 1-12.1 26.1q-1 2.1 1.2 2 .1.7-.2 1-1.9.7-2.3 2.6c-.2 1.9 0 9.5 3.3 8.5 2.1-1.4 2.9-2.8 5.6-3 0 2.4-6 3-5.5 5.5 1.4 2.4 5.4 6.2 8.4 4.8q6 1 12 1.5c11.9 1.3 16.6 2.5 26.7-4.4q.6 0 1.1.2a46 46 0 0 0-4.6 4.9q.6.6 1.4.6c4.5-.5 12.6.6 16.4-1.7 2 1.4 7.5.2 10 0v-.3c23-3.4 14.6-18.3 5.4-31q-.5-2.5-1.5-4.6c-.3-.6.2-2.4-.8-2.5l-2.1-8.4q-.7-.9-1.9-.6c2.2-3.2.6-7 0-10.5l-.5-.4-3.6.9c.2-1.4 2.6-2.1 3.6-3 1-2 .2-17 .3-20.4q0-1.6-1.6-1.8a4 4 0 0 0 1.7-2.3q.2-5.4.9-10.8c-1.6-1.5-6.2 4.4-7.5 2.7l7.2-5.3c1.3-3.5 1.4-7.4 1.7-11 1-1 .6-6.6.5-8.1 1.6-3.4 1.4-9.3 2-13.2V119q1.7-6.3 1.5-12.8.5-.2.5-.8v-6.3q.4-9.2.2-18.5-.5-.7-1.4-.6-3.8 0-7.4.3c-2.3-.7-7.3-.2-10-.3-3.8.3-15.1-.8-18 .8-2-1.4-9.3-.8-11.8-.6q-8.2-.2-16.5 0a26 26 0 0 0-5.2 2.6l-.6-2.2q-1.5-1-1.6 1l-.1 11.7 1.3 1.2c-2 4.3-.1 10.7-.1 15.4ZM196 259.7c-1.7-.6-11.7-.9-12.7.3-5.9-.3-13.5-.4-19.2.3-1.9-.4-6.5-1.6-8-.3-4.7-1.3-16.2-.2-21.6-.8q-1.6 0-2.8 1a25 25 0 0 0-5.6 15.2q.9.7 1.9 1.2-.7 1.5-1.8 3 .6 5 3 9.7.8.6 1.8.1c2.3 1 8-.4 10.7-.6 23.3-1.6 46.4-.6 69.7-1 4.1-.8 3.5-7 4.1-10.3q0-1.2-1.1-1.5c1.7-3.3-.7-8-2.6-10.9q-.5-1.8-1.8-3c-.9-1-2.4-3.4-3.7-3.5q-5.2 0-10.3 1.1Zm-39 35.1q0-.5-.7-.6-10.7 0-21.4 1c-4.6-.8-6 1-9.7 2.6-17.8.4-28.6 18.5-32 34.2l-.3 3.8c-1.6 2.8-1 10-.7 13.2.2.7-.6 3.2.8 3a40 40 0 0 0 5.2 17.8c0 1.2 1.8 3.2 2.7 4 2.3 3.2 12.2 13.8 16.3 11.5-.4 1.6 1.5 1.9 2.7 2q7 2.2 14.5 1.4c4-.8 7.5-4.9 11.7-5.8 0 2.3-6.4 3.4-4.5 5.1q.9.3 1.9 0c7.6-1.4 17.6-2.8 24.4-6.6 2 1.2 9.5-1.9 11.8-2.8l19.5-5q1.1-.2 1.6-1.2l13.7-75.2c1-3-17.2-3.6-19.3-3.7q-4.1-.4-8.2-.4l-16 .2c-3.2.5-11.5 0-14 1.5Zm59.3 61.3-.2 1.9a97 97 0 0 0-2.7 12.4c1.3 1.3 5 .4 6.6-.3v.4q2.3 0 4.5-.2c.8-.3 3 .9 3.5-.1l15 .1c1.5 1 5.2.5 7.1.7 3.2.3 12.5 2.3 14.9 1.2q2.2 1.2 4.7 1.6c1.8 0 8.2 1.9 9.4.8q5-11.6 9.6-23.3.2-1.8-1.7-2l-2.7-2-10-5.2a120 120 0 0 0-10.4-7 13 13 0 0 0-4-3l-22-21.3q-.7-.9-1.8-1.4l-1.7-2.1-7-5q-1.5-.5-1.7 1-5 26.3-9.4 52.8Zm87.5 21c0 .8-1.4 2.1-.1 2.7q6 1.7 12.3 3 3 1.3 6 2 5.7 1.6 11.5 2.8c2.3 0 4.3-3 6.4-2.6l-1.5 3.4a31 31 0 0 0 14.5 1c1.2.8 5 1.3 5.9-.1q0 .4.6.4c4.5-.9 11.3-7.7 8.7-12.3-.9-1-2.7-4.9-4.4-4-.7.6-2.4 2-3.3 1q1-.9 1.8-1.9 0-.9-.6-1.5a41 41 0 0 0-8.6-3q-.2-.4-.7-.6-4.5 0-8.9-1-.5 0-.6.5a46 46 0 0 0-15.7-1.2q-1 .9-2.4 1.3c-1.8-1.4 2.6-1.7 0-3.2-3.6-1.2-8.2-3.2-12-3-2.6-2.6-9.6-4.5-13.1-5.6q-.6.4-.9 1-4.2 10.1-7.9 20.3 0 .9 1 1.2c5.6.7 6.7 1 12-.7ZM49.4 419q-.5.9-.5 2 1.5 5.3.8 11l.5 1.7q-1.5 5.5-1.1 11.2-.7 1-.3 2.1-.7 5-.3 10.1c1 9.7 17 10.2 23.4 8 .2.7 3.3 1.1 3.8 0 1 .7 18-.2 20.7-.2q0 .5.3.9 2 1 2.7 3c-.7 3.7-3.8 3.5-6.4 4-3 .3-9.5-.3-12 1q-.7-.7-1.6-.6c-4.7.2-13-.7-17.3.4-.7-.8-3-.4-4-.5-14.5 0-23.5-1.5-21.3-18.5v-1.5c.1-2.6.6-8.4-1-10.5l.3-2.4c-.3-3 0-7.7-1.2-10.4q.4-1 .3-2c1-5.2 2-11.2 7.7-13 3.3-.2 3.9 3.6 6.5 4.2Zm426.8 1q-.4.9 0 1.8c-.3 3.2-1.3 11.9.2 14.5q-1.3 2-.4 4 .4.8 1 .6c-3.3 6.6 3.2 28-16.6 30.7-15.2.2-30.6.8-45.7-1 .2-2 2.7-1.7 4-2.8q21.3-2 42.5-1.2.6-.5.7-1.2 1.2-7.4 1.7-15.2.3-.9-.5-1.3c.6-1 .2-2.6-1.2-2 2.8-1.5 0-22.7 1.7-27q3-3.6 7.8-4.5c3.6.3 2.9 4.5 4.8 4.6Z"/><path fill="#4b5d7a" fill-opacity=".3" d="M378.3 120.3q-.6.5-1.2.7.2-1 1.2-.7m-14 199-1.2.7q0-1.1 1.2-.7M243 411.9q-.3 1-1.3.8zm-97 56q-.3 1-1.3.8.6-.5 1.2-.7m152 21q-.3 1-1.3.8z"/><path fill="#cdd3d7" d="M188.3 73.9a17 17 0 0 1-5.5-.2q2.1-1.5 4.7-.6.6.2.8.8"/><path fill="#4f5d79" fill-opacity=".2" stroke="#4f5d79" stroke-opacity=".2" stroke-width=".5" d="M350 134q-.3 1.1-1.3.7zm73.9 43.9q-.2 1-1.2.8zm-7.5 8.4-1.3.8q.1-1.1 1.3-.8Zm-97 28q-.6.5-1.3.7 0-1.1 1.3-.7Zm4.5 225.6q-.1 1-1.3.8z"/><path fill="#4e5a7a" fill-opacity=".3" d="m423.3 182.3-1.2.8q0-1 1.2-.8m-22.4 9.6q0 1.1-1.2.8zm-48.6 3.4-1.2.8q0-1 1.2-.8m8 261-1.2.8q0-1 1.2-.8"/><path fill="#4e5a7b" fill-opacity=".2" d="M293 48q-.3 1-1.3.7zm78.3 76.3-1.2.8q.2-1 1.2-.8M355 189.9q0 1.2-1.2.8zm42.4 7.4-1.2.8q.2-1 1.2-.8"/><path fill="#4c5b7a" fill-opacity=".3" d="M309 38q-.3 1-1.3.7zm-139.7 7.3-1.2.8q0-1 1.2-.8m280 122-1.2.8q0-1 1.2-.8m-86 287-1.2.8q.1-1 1.2-.8"/><path fill="#4e5d7b" fill-opacity=".2" stroke="#4e5d7b" stroke-opacity=".2" stroke-width=".5" d="M333.9 203q-.1 1-1.2.7zm80.4 119.4-1.2.7q0-1.1 1.2-.7Zm-64 5-1.2.7q0-1.1 1.2-.8Z"/><path fill="#4d5b78" fill-opacity=".2" stroke="#4d5b78" stroke-opacity=".2" stroke-width=".5" d="M380.9 173.9q0 1.2-1.2.8zm-34 21q-.1 1-1.2.8z"/><path fill="#4d5d79" fill-opacity=".2" d="M417 316q-.3 1-1.3.7zM309.2 452.2l-1.2.8q0-1.1 1.2-.8"/><path fill="#737d8f" d="M157 294.8q-.2.9-1.1 1.3.1-1 1.1-1.3"/><path fill="#a2a8b1" d="M375.7 369.8c.7 0 1.8 1.2.5 1.4z"/><path fill="#687184" d="M152.2 299q-.3 1-1.2 1 .3-1 1.2-1"/><path fill="#4b556d" stroke="#4b556d" stroke-width=".5" d="m128.5 203.2-1-3-31 17.8q-1.3.7-2.7 1c-1.4-16.7-2-34.2-2.8-51 3.4-.4 26.4-18.2 31-21.5 1.5-1 .3-2-1-1.4q-4 .8-7 3.5l-23.8 13.6c.2-3.5-1.4-10.2-.9-13.1l2.3-2q2.8-1 4.9-3 4.8-3 9.6-5.6 1-.5.7-1.5 1.5-.9 3.2-1.5c1.5-2.7 5-3.8 7.5-5.5q1.8-1 3.1-2.6-.7-.6-1.7-.1-15 9-30.3 17.8l-1.3-12q4-2.2 7.6-4.9l21.1-16.7c1.4-1.2.1-1.7-1-1.1L87 127c-1.2-9.6-.8-40.5 6.8-46.7 6.8-.9 19.3 0 26.7-.3q.8 0 1.4.6c1.7 40.9 7.2 81.6 6.6 122.6Zm29.8-123c2.5-.2 9.9-.8 11.7.6l-21.5 12.7q-.5-.8.2-1.4 5-5.9 9.6-12Zm86.8-.4q5 1.5 9.2 4.6c9.8 7.7.6 36.3 2.1 47.8q-.7-2.4-1-4.8L214 155l4.6-59c6.6-4 21.7-11.3 26.4-16.2Zm11 54.2c-3 27.3-9 54.3-10.8 81.7-3.9 61.6 23.4 88 75.9 112.8l-20.4 15.8c-22.6-12.4-42-28.4-62.5-44q.7 0 .7-.7-1-3-4.1-2.8c-1.7-.3-7.5-6-9-7.5l1.8-9q1-10-3.4-19.2c2.2-2 4.2-3 6.8-4.4l4.9-3.4c-.6-1-1.5-.3-2.3-.1q-5 3-9.7 6.5c-1.2-.2-4.4-5-4.4-6.2l5.2-6c9.4-13.5-8-29-11.3-41.3q-1.3-24.1.3-48.2 21-12.3 42.4-24Zm-127.5 70c-.8 15.8-23.5 31.4-11.3 46.9-3.4-.5-9.2 5.7-13 6.6a7 7 0 0 1-4.6 2.4q-.8.7-1.1 1.7c-1.9-1.3-4.5 1.3-5 2.9-1-1.3-3.1.8-4.3 1q-1.5 1.2-2.2 2.8-3 .3-5.8 1.5a154 154 0 0 0 12.4-48q.6 1.6.8 3.5.3.6 1 .3.7-1.2 1.6-2.1c4.3-2.7 29-19.6 31.5-19.5Zm-14.7 65a43 43 0 0 0 3 24.5l-.3.5c-21.1 5.5-35.4 28.1-37.5 49-3 1-5.7 3.3-8.5 4.9q-6 3.9-12.4 7.4-1.2-.6-1-1.8c-2.6-17 5-44.4 13.8-58.5q12.7-7.3 25-15.3 9-5.2 18-10.7Zm216 63.2c13.5 5.4 27.6 8.4 41.5 12q-11.1 7.4-22.5 14.3-1.4 1.2.4 1.6-1.5.6-2.4 1.7a7 7 0 0 0-3.5-.2q-.3-.2-.1-.5c-.8-2.4-3.7-2.7-5.5-1.4a151 151 0 0 1-31-12.3c4.9-5.2 18.3-10.1 23.2-15.2Zm76.1 14.7c9.8.4 19.9.8 28.2 6.5q-14 10.7-28.2 21-.9.6-.3 1.3c2.6 0 28.3-16.3 32.4-18.8 17.1 20.5 4.7 51.7-18.6 61-20.4 6-43.8 5.6-64.7 3.6 1-3.2 17.4-14.2 21.2-17 1.5-1 .4-2-1-1l-27.7 16.1 1.7 1.4-18.2-2.6a210 210 0 0 0 29.3-21.2 9 9 0 0 0 8-3.3c13.8-3.9 17.2-9.3 8.1-22.7 1.3-.2.2-1.3-.5-1.4-.9.2-1.7-3.1-2.9-3.6 4.3-1.6 31.2-16.8 33.2-19.3Zm-109 40.2q20.3 4.2 40.8 7.1 3.3 3 6.4 0c4 1.3 9.5.5 13.7.9l.1 1.2c-5.3 5.5-31 17-33.2 21.1q-26.9-5-53.8-9.1c.2-1.6 22.8-18.6 26-21.3Zm91 24.9c-.8 1.8-4-.2-5.3 3.3l-2.3 1.5c-1-.1-1.1-.8-2.1-.1q-4.2 2.3-8.1 4.8 3.6.6 7.4.5c4.1.3 14.6-9.7 18.3-12.7q1-.8 0-1.4l7.2-4.3c.4-.4 1.6-1 .5-1.5-4.7 1.8-9.3 5.6-14 8a4 4 0 0 0-1.5 1.9Z"/><path fill="#f2f8fb" stroke="#f2f8fb" stroke-width=".5" d="M158.3 80.2q-4.6 6-9.6 11.9-.7.7-.2 1.4L170 80.8c3-1.6 14.3-.5 18.2-.8-2 2.3-15.5 13.1-16 14.5q.9.4 1.8-.2 12-6.8 24-14l7.5-.3q.9 0 1.4.6.1 9.3-.2 18.5c-1.2-.1-26.2 20.4-27 22q-.9-.3-1.5.5c.4.9 1.8.4 1.6-.5q13.3-7 26.4-14.9 0 6.5-1.5 12.8l-10.8 7.4q-1.6 1.3.4 1.2l7.4-4.5q1.5-.8 3-1.2c-.6 3.8-.4 9.7-2 13-7 5.3-13.7 11.8-20.8 16.5q-1.5 1.3.4 1.1l18.7-10.9c1-.7 1.2.9 1.2 1.5-.3 3.6-.4 7.5-1.7 11l-7.2 5.3c1.3 1.7 5.9-4.2 7.5-2.7a99 99 0 0 0-.9 10.8 4 4 0 0 1-1.7 2.3 2 2 0 0 0-1.3 1.3q-2-.3-2.9 1.4c.8.6 3.1-.2 2.9-1.4q.9-.3 1.3-1.3 1.5.1 1.6 1.8c0 3.4.6 18.3-.4 20.4-.9.9-3.3 1.6-3.5 3q-2.1-.3-2.7 1.5c1 .8 2.4-.5 2.7-1.5q1.8-.3 3.6-1l.5.5c.5 3.5 2.2 7.3 0 10.5q-2.4 0-3.3 2.2-1.9-.5-2.6 1.3c.7.6 3.2-.2 2.6-1.3 1.2-.3 3.1-.6 3.3-2.2q1.2-.3 1.9.6l2.1 8.4c-1 3-13.2 13.2-16 16.4q-1 .7-.5 1.7a171 171 0 0 0 18.8-11c9.2 12.7 17.6 27.6-5.4 31q1.5-3 3.8-6 .3-1.3-1-1.1l-12.8 7.4c-3.8 2.3-12 1.2-16.5 1.7q-.8 0-1.3-.6a46 46 0 0 1 4.6-5q-.5-.2-1 0c-10.2 6.8-15 5.6-26.8 4.3 10.4-5.6 17.8-15.5 26.7-23.2q-1.2-.3-2.1.3a1432 1432 0 0 1-36.6 21.4c-3 1.4-7-2.4-8.4-4.8-.4-2.4 5.5-3 5.5-5.5 1 .3 4.3-1 2.5-1.9q-1.9.1-2.5 1.9c-2.7.2-3.5 1.6-5.6 3-3.2 1-3.5-6.6-3.3-8.5q.4-2 2.3-2.5.4-.4.2-1l1.6-.3q1.5-.5 2-2c.7 0 3.4-.6 2.3-1.7q-2-.2-2.4 1.7c-.7 0-2.2.2-2 1.3q-1 0-1.5 1-2.3 0-1.2-2c5.9-9 9-15.8 12-26.2q2.3-2.6 4.8-4.8c.7.2 2.4-.5 1.2-1.2q-1.2 0-1.2 1.2l-2.2.7q-2.3 2.3-1.8-1c.8-3.2.7-7.8 2-10.6q4.5-3.3 8.6-6.8 1.5-.6 2.9-1.7-.7-.7-1.7-.4-4.3 3-8.7 5.6-1.7 0-1.4-1.8c.3-2.9-.4-7.4.5-10q10.7-8.6 21.3-17.4-1-.5-1.7 0l-19 11.7q-1.2-.2-1.5-1.5c0-2.6-1-7.4 0-9.7q3.7-3 7.5-5.6.8-.7 1.2-1.6c1 .4 3.8-.8 2.3-1.8q-1.9 0-2.3 1.8-1.2 0-2.2.5l-7 4.6c-1.2-3-1.3-8.4-1.5-11.7l.6-.3c3.8-3.3 23.5-18.6 25-21.1.8.3 3.6-.9 2.3-1.7q-1.8 0-2.3 1.7c-7.3 3.3-18 10-25.2 14.3q-1.2.3-1.7-.8a330 330 0 0 1-2-20.4l9.6-8.5c-2.7-1-6.8 4.7-10.3 4.4 0-4.7-1.9-11 0-15.4l-1.2-1.2V81.6q0-2 1.7-1l.6 2.2a26 26 0 0 1 5.1-2.6q8.3-.2 16.6 0Zm12.8 213.1 15.9-.2c-3.3 4.5-16 12.3-21 15.7-1.2 1.7-6 3.7-6.3 5.4q-1.8-.4-2.7 1.4c.8.7 3.2-.3 2.7-1.4q3.8-1.5 7.2-3.5 5-3 10-6.3c2.5-1.4 17.6-9.5 18.3-11 2 .2 20.2.8 19.3 3.8l-13.7 75.2q-.5 1-1.6 1.2l-19.5 5q1.7-3.3 4.8-5.5.2-1-.9-.8l-15.7 9.1c-6.8 3.8-16.8 5.2-24.4 6.7q-1 .1-2-.1c-1.8-1.7 4.6-2.9 4.6-5 1 .4 4-1 2.3-1.8q-1.8 0-2.3 1.7c-4.2 1-7.6 5-11.7 5.8q-7.5.7-14.5-1.4c2.3-.6 20.2-13.6 21.1-15.5.8.3 3.8-.9 2.5-1.8q-1.8 0-2.5 1.8-1 0-2 .5l-21.8 13c-4.1 2.3-14-8.3-16.3-11.5 3.7-2.4 28.3-19 29-20.9q2.4.1 3.2-2 .5 0 .8-.4-.6-.2-.8.4-2.2 0-3.1 2c-4 1.3-24.5 13.8-30 16.8q-.9.4-1.8.1A40 40 0 0 1 93 352q7.8-6 16-11.6.8-.6 1-1.5c.8.1 4-.9 2.5-1.8q-2 0-2.4 1.8a5 5 0 0 0-2.1.4L92.2 349c-.3-3.3-1-10.4.7-13.2a4 4 0 0 0 1.6-.8l12.4-10.5q-1-.4-1.9.3-6 3.3-11.8 7.2c3.4-15.7 14.2-33.8 32-34.2q.7.5.2 1a201 201 0 0 1-10 9.6q.3.5.8.2l17.7-10.4a3 3 0 0 0 1-3q10.8-1 21.4-1 .7 0 .7.6-1 .3-1.1 1.3-.7 0-1.3.2a3 3 0 0 0-2.4 2.7q-.9 0-1.2 1a114 114 0 0 0-18.3 15q-1-.2-1.6.7c.5.9 2 .2 1.6-.6 6-2.6 12.8-7 18.5-10.5zm37.7 3.7c.3 0 1.6-.4.8-.9a1 1 0 0 0-.8.9Zm-2 1.1c.3 0 1.7-.4.7-.9a1 1 0 0 0-.7 1Zm-19.1 26c-1.3-.4-4.1 1.5-4.6 2.5.7 1.2 5-1.6 4.6-2.5 5.4-2.2 14.8-8.4 20.5-11.4a9 9 0 0 0 2.7-4.3c-.6-1-1.2-.2-2 .1-3 2.3-20.5 13.6-21.2 15.6Zm7.3 20c-.5.8 13-6.4 9.3-6-1.7-.9-9 4.9-9.3 6Zm-60.2 6a1 1 0 0 0 1-.7q-.7-.4-1 .6Zm208 16.8-4.4 7q-.3.6.2 1 5.9-3 11.4-6.4 1.5-.6 3-.5 4.5 1 8.6 3 .8.6.6 1.5-.8 1-1.8 1.8c1 1.2 2.6-.3 3.3-1 1.7-.8 3.5 3.2 4.4 4.1 2.6 4.6-4.2 11.4-8.7 12.3q-.5.1-.6-.4c.4-.9 2-2.6.8-3.4q-3.4 1.5-6.7 3.5c-2 1.2-13 .2-14.5-1q.9-1.6 1.5-3.4c.4 0 1.4-.3.7-.8q-.6.2-.7.8c-2.1-.5-4 2.6-6.4 2.6a141 141 0 0 1-11.5-2.9l3.9-7.3c-.6-.8-1.2-.1-1.9 0-1.4 1.2-7.7 4-8 5.3a137 137 0 0 1-12.3-3c-1.3-.5 0-1.8.1-2.7.3 0 1.4-.3.7-.8a1 1 0 0 0-.7.8c-5.3 1.6-6.4 1.4-12 .7q-1-.3-1-1.2 3.7-10.2 8-20.3.1-.6.8-1c3.5 1.1 10.5 3 13 5.5 4-.1 8.5 1.9 12.1 3.1 2.6 1.5-1.8 1.8 0 3.2q1.4-.4 2.4-1.3c3.4-1 12 .4 15.7 1.2Z"/><path fill="#808899" d="M133.1 350.9q-.8 2.2-3.1 2 .9-2 3.1-2"/><path fill="#a7afbb" d="M196.7 207.2c.6 1.1-1.9 1.9-2.6 1.3q.7-1.8 2.6-1.3"/><path fill="#798193" d="M200 205c-.2 1.6-2 2-3.3 2.2q.9-2.3 3.3-2.2m-5 139.2c.3-1.2 7.6-7 9.3-6 3.7-.5-9.8 6.7-9.3 6"/><path fill="#989fad" d="M195.9 195c-.3 1-1.7 2.3-2.7 1.5q.6-1.8 2.7-1.5m-61 155q0-1 1-.6a1 1 0 0 1-1 .6"/><path fill="#a1a9b6" d="M196.9 171.1c.2 1.2-2.1 2-2.9 1.4q.8-1.7 2.9-1.4M132 229.7q.4-1.9 2.4-1.7c1.1 1-1.6 1.8-2.4 1.7m-22 109.2q.4-1.8 2.4-1.8c1.4 1-1.7 1.9-2.4 1.8m36 44q.6-1.5 2.3-1.7c1.7.8-1.2 2.3-2.3 1.8"/><path fill="#a5acb8" d="M165.1 120.9q.4-1.7 2.3-1.7c1.3.8-1.5 2-2.3 1.7m-5.4 193.3c.5 1.2-2 2.1-2.7 1.4q.9-1.8 2.7-1.4m28 10c.3.9-4 3.6-4.6 2.4.5-1 3.3-2.9 4.6-2.5"/><path fill="#525a71" d="m130 231 .2.7-1.6.3q.5-1 1.4-1m210 154q0-.6.6-.8c.7.5-.3.8-.7.8"/><path fill="#939aa9" d="M144.2 199q0-1.2 1.2-1.2c1.2.7-.5 1.4-1.2 1.2m64.6 98q.2-.6.8-.9c.8.5-.5.8-.8.9"/><path fill="#656d82" d="M198.2 169.8q-.3 1-1.3 1.3a2 2 0 0 1 1.3-1.3"/><path fill="#9ea6b3" d="M179.8 121.1c.2.9-1.2 1.4-1.6.5q.6-.8 1.6-.5m27 177q0-.7.7-.9c1 .5-.4.9-.7 1"/><path fill="#4d5c7a" stroke="#4d5c7a" stroke-width=".5" d="M126.7 11.1q17.2-.2 34.5.4a3556 3556 0 0 1-53.9 37c.5 1 2.8-1 3.6-1.1q5.2-2.8 10-6l48.8-28.1q1.5-.6 2-2.1c4.8 0 13.2-.6 17.5.3A498 498 0 0 1 168.6 25l-17.5 11.5c1.6 1.2 2.6-.6 3.8-1.3l15.2-8.7c3.8-3.1 23.5-12.6 24.7-15.3 4.2 0 13.8-.6 17.4.3A728 728 0 0 1 181.9 32l-1.2.9L179 34l-1.2.8L176 36l-1.2.8-3 2L170 40l-1.2.8q-1 .8-2.2 1.3l-.9.9-2 1-1 1-2 1-1 1-2 1-1 1-1.8 1-1.3 1q-.8.6-1.8 1l-1 1-2.1 1.1-1 1-2 1-1 .9-1.7 1.2a2 2 0 0 0-1.2.7l-1.7 1.5-1.3.4-1.9 1.5a57 57 0 0 0-7.9 5.3c-1.1.4-4.8 2.1-4.9 3.4q-.5 1-1.2 1.7c-9.6 1-40.6 1.9-45.4 11a61 61 0 0 0-3.4 8.5l-1.1.1a5143 5143 0 0 0-59 34v-11.6c2 1 10-6 12.2-6.9q8.2-5.3 16.7-10.5.8-.3 1.1-1.2c.8-1.2 4.6-3.1 4.7-4.8 1-14.7-1.8-31.1 1.7-45.4q.5-.6 1.2-.6c14.9-.8 31.2 2.2 45.5-1.8 4.7-3-15.4-4.5-17.1-4.7l44-25.5q1.6-.9 2.7-2.2Zm-52 99.8c1 3.2 1 11.9.3 15.1-4 1-7.5 4.4-11.4 6.2q-.4.3-.6.9-.9 0-1.8.5c-15.6 9.3-32 17.8-47.1 27.7v-11.6a2 2 0 0 0 1.6-.3zm421.1 204.9q.9 5.3.2 10.4a2735 2735 0 0 0-44.5 27.8c-1.8.3-7.6-5.4-10-6l-.3-.8q1-.3 1.8-1zM47 369.6q1.3 5.6 3 11l-5 2.7q-2 0-4 1l-24 14.3q-.9.4-1.9.4l-.2-10c3 0 27.7-16.6 32-19.4Zm198 41.5c32.7 3.3 65.7 12 98 17.6-1.1 1.2-7.5 4.3-8 5.3q-.6 0-1 .3-.8 0-1.2.6l-5 2.8a22 22 0 0 1-3.9 2.2l-1.3.8-.9.4-1 .9-5 2.7-.9.6-1.2.6-5 2.8-.7.6q-.7.2-1.3.7l-3.6 2-1.3.7-5 3-.8.5-1.2.7-5 2.8-.8.5q-.8.2-1.1.8a35 35 0 0 0-5.1 2.7l-7 4q-2.8 1.6-5.5 3.6l-1.6.7q-3 1.4-5.6 3.3l-1.3.6-11 6.1-1 1q-3 1.3-5.6 3.2l-1.5.7-7 4-10.8 6-1.2 1c-.7.6-4.6 2-4.3 3h-17.5q0-.5.7-.8l86.2-54c2.1-.4 4.5-2.5 6-3.8-1-.8-2.6.8-3.7 1q-9.6 6-19.3 11.6L193.6 500q-.5.4-.4.9h-17.5a8586 8586 0 0 1 95.2-59.3q-1-.6-2-.2l-6.8 4.4-22.2 12.7q-34.7 20.3-69.6 40.3-1.3.6-2.2 2c-4.6 0-13 .5-17.3-.3l20.9-13.3 15.7-9.3q12.4-7.5 24.7-15.4l4-2q1.5-1 2.7-2.2c-2.2-1.2-3.2 1.5-5 2.2l-27.9 16-39.2 22.9q-.9.5-1.5 1.3-8.7.3-17.5.2.3-.6.8-.8 17.3-10.7 34.8-21.2 11.3-6.8 22.3-13.8a51 51 0 0 1 6.4-3.4l4.9-3.4q-1.6-.2-2.8.4-16 9.6-32.2 18.9l-36.5 21.3q-1.5.6-2.2 2h-17.5a6 6 0 0 1 2.4-1.8l1.2-.8q2-1.2 3.6-2.6.8 0 1.4-.6l1.8-1 1.2-.8q1.9-1 3.5-2.6.9 0 1.6-.7l2.9-1.7 3.5-2.5q.9-.2 1.4-.7l1.9-1 1.2-.8q2-1.1 3.6-2.6l1.5-.7 1.7-1 1.2-.7 3.6-2.5q.7-.2 1.5-.7l1.6-1a37 37 0 0 0 4.8-3.3l1.6-.7 1.7-1 1.2-.8 3.6-2.5q.8-.2 1.4-.8l1.7-1 1.3-.7q1.8-1.1 3.6-2.6.8-.2 1.5-.7l1.7-1 1.2-.7 8-5 8-5 16-10q.8-.7 1.8-1.2l1.2-.8q1.8-1.3 4-2.3l1-1 3-1.7 4-2.4 1-.9 1.8-1 1.2-.7 4-2.3 1-1 3-1.7 4-2.3 1-1 1.8-1q.6-.2 1.2-.7 2-1.4 4-2.4l.9-.7q1-.6 0-1.2z"/><path fill="#4e5b79" fill-opacity=".2" d="M496 133.6q0 1.2-1.3 1.1zm-150.7 5.7-1.2.8q0-1.2 1.2-.8m50 194-1.2.8q.2-1 1.2-.8m-187 103-1.2.8q0-1.1 1.2-.8m-8 5-1.2.8q0-1.1 1.2-.8"/><path fill="#4c556c" stroke="#4c556c" stroke-width=".5" d="M188.2 80c2.6.1 7.6-.4 9.9.4L174 94.3q-.9.6-1.9.2c.6-1.4 14-12.2 16-14.5Zm-52 34c-.2-1.3-1.5-2.9-.7-4.1 3.5.3 7.6-5.4 10.3-4.4zm68.5 5v2.9l-3 1.2-7.4 4.5q-2 .1-.4-1.2zm-39.6 1.9c-1.5 2.5-21.2 17.8-25 21-1.5.3-2-5.7-.2-6.7 7.3-4.3 18-11 25.2-14.3Zm37.6 14c.1 1.6.5 7.3-.5 8.2 0-.6-.2-2.2-1.2-1.5l-18.7 11q-2 0-.4-1.2c7.1-4.7 13.8-11.2 20.8-16.4Zm-52.5 14q-.5 1-1.2 1.6-3.9 2.7-7.6 5.6-.4-1-.4-2.1l7-4.6q1-.5 2.2-.5Zm-7.8 24.2c-.3-1.5-1.9-5.7.6-5.8l19-11.6q.8-.5 1.7-.1-10.5 8.8-21.3 17.5Zm-.2 15c-.6-1.1-2.3-4.6-.3-5.1q-.3 1.8 1.5 1.8l8.6-5.6q1-.2 1.7.4-1.3 1-2.9 1.7zm7.7 64.7q-6-.5-12-1.5 18.4-10.4 36.6-21.3 1-.7 2-.4c-8.8 7.7-16.2 17.6-26.6 23.2Zm51-.7v.3c-2.5.2-8 1.4-10 0l12.8-7.4q1.3-.2 1 1-2.1 3-3.8 6.1Zm-83.7-1.1c.6.8 4.1 3.6 4 4.5l-6.4 11.5L95 278.5 72 292q3.3-8.2 6.8-16.2.5.9 1.3.4l6.8-5q14.7-9 29.2-18.9.8-.5 1.2-1.3Zm46.9 9.3q-7.7 4.6-15.6 8.8-.5-.5 0-1.1l7.6-8c1.5-1.3 6.1-.1 8 .3Zm31.9-.6c-8.4 4.7-17.5 10.7-26.2 14.6.6-2.3 11.1-11.9 13.5-14.3 1-1.2 11-.9 12.7-.3Zm14 2.4q1.3 1.2 1.8 3-5 2.4-10 5.2l-1.4 1.3q-1.9 0-.4-1.1 3.6-2.4 7-5.2 1.8-1.4 3-3.2Zm-57.7 15.7c-1.5 2.8-8.1 8.4-10.6 11-2.7.2-8.4 1.6-10.8.6 4.5-2.3 17.5-10.8 21.4-11.6Zm-17.4 17.4a3 3 0 0 1-1 3l-17.7 10.4q-.4.3-.9-.2 5.2-4.5 10-9.5.6-.6 0-1c3.6-1.8 5-3.5 9.6-2.7Zm16.1 4.9.2 4.5c-5.7 3.5-12.5 8-18.5 10.5a114 114 0 0 1 18.3-15Zm36.7 24c.7-2 18.1-13.3 21.3-15.6.7-.3 1.3-1.1 1.9-.1a9 9 0 0 1-2.7 4.3c-5.7 3-15.1 9.2-20.5 11.4Zm72.2 8a13 13 0 0 1 4 3q-8.6 4.5-16.8 9.8c-.9 0-2.2 1.6-3 .6q.3-.6.8-1c4.4-3 11-10.3 15-12.5Zm11.9 8q1.5.7 2.5 2l-.7 1q-2.6 1.3-4.9 3.1l-1.3.6q-2 0-.4-1.4c1.3-1.2 5.1-3.1 4.8-5.2ZM379 345q8 1 16 1.4c.5 1.4-2.5 1-3.2 2q-10.8 8.3-21.8 16.5h-4.8q-2.1-3-5.6-1.9-.6.4-.8 1-5-.5-10-1.6c10-4.8 19.7-11.3 29.5-16.5q.5-.4.7-1Zm-94.7 2.4 2.7 2a34 34 0 0 1-5.7 3.6q-.8.3-1.2-.3zM130 352.9c-.8 1.9-25.4 18.5-29 20.9-1-.8-2.7-2.8-2.8-4q.9.3 1.8-.1c5.5-3 26-15.5 30-16.8Zm86 5.1.2-1.9c.6-1.3 3.9-2.5 5.2-3l.3.3c-1.1 1.5-3.8 4.4-5.7 4.6Zm12 12.2c-.5 1-2.8-.2-3.6 0q-2.2.3-4.4.3v-.4q8.4-4.7 16.6-9.8.8-.3 1.2.3l-8.8 8q-.7.6-1 1.6Zm22 .9c-2-.3-5.6.2-7.2-.8q6.6-3.2 12.8-7 .8-.5 1.2.1a58 58 0 0 1-6.3 6.7q-.5.4-.5 1Zm103-3.1q-1.7-.2-3.1.5-5.6 3.4-11.4 6.3-.5-.3-.2-.8l4.4-7q0-.6.6-.5 4.5.7 9 1 .5 0 .6.5Zm-83.4 5.8q-2.4-.4-4.7-1.6l8-4.7c.6 0 1.4-1 1.7 0zm-128.7-2a126 126 0 0 1-21.1 15.5c-1.2-.1-3.1-.4-2.7-2l21.7-13q1-.5 2.1-.5Zm38.7 6.8c-2.3.9-9.8 4-11.8 2.8l15.7-9.1q1.1-.3.9.8-3.1 2.1-4.8 5.5Zm70-1.2c1 1 4 2.9 4.5.6 14.2 1.6 27.1 5 41 8.6-10 2.7-25.3 13.4-34.7 18.9l.5 1.4a222 222 0 0 0-57.8.1q-.8 0-1.4-.3a193 193 0 0 0 11.1-7.5q1.2-.6 2-1.9c2.8-.6 2.4-2 4.1-3.8 2.6-.9 6.5-4.3 9.3-5.8q6.8-5 13.3-10.2c-1.1-1.9-7.3 1-8.7 2l-60.3 34.6q-.4.9.6 1.4a95 95 0 0 1-47.4 7q.3-1.5 1.7-2.5l48.6-32.2 3-2.7-.4-.4q-4 1.4-7.3 4.2L118 419.7q-.6.5-1 1.2-5.7-1.5-11.2-3.6.8-1.4 2-2.2 15-9.7 29.8-19.6-1.2-.6-2.6-.6l6.8-1.6q1.4 1.3 3.4 1.4c1.2 0 2.7-1.8 1-2.1 12-2 23.9-6.4 35.7-9.7.3 3 6.9-.5 7.2-2q.4-1 1.3-.8c5.3-.7 10-2 15.4-1.8a99 99 0 0 1 44-1Zm-20.6-.5c1 0 2.9.6 3.6-.4-.7-.9-3.4-1.2-3.6.4Zm93 7.8q-3.3-.6-6.1-2c.3-1.3 6.6-4.1 8-5.2.7-.2 1.3-1 1.9 0q-2 3.5-3.8 7.2Zm36.7 4.6c-.9 1.4-4.7.9-5.9.1q3.3-2 6.7-3.5c1.3.8-.4 2.5-.8 3.4ZM445 406c.4 1.9-1.6 2.5-.7 4.3l-11.4 7.6-.3-1.3q6.7-4.7 12.4-10.6Z"/><path fill="#b6bec9" d="M229.1 376.9c.2-1.6 2.9-1.3 3.6-.4-.7 1-2.5.4-3.6.4"/><path fill="#bcc1c4" d="M365.2 364.8q-3.2 0-6.3-.9 0-.7.7-1 3.5-1 5.6 1.9"/><path fill="#e2eaef" stroke="#e2eaef" stroke-width=".5" d="M210 262q-1.2 2-3 3.3a76 76 0 0 1-7 5.2q-1.5 1 .4 1.1l1.4-1.3q5-2.8 10-5.2c2 2.8 4.3 7.6 2.6 10.9q-1 0-1.5 1a2 2 0 0 0-2 .9c.6 1 2.1 0 2-.8q.9-.3 1.5-1.1 1 .3 1.1 1.5c-.6 3.2 0 9.5-4.1 10.4-23.3.3-46.4-.7-69.7 1 2.5-2.7 9-8.3 10.6-11 .9 0 2.4-.7 2-1.8q-2-.1-2 1.7c-3.9.8-17 9.3-21.4 11.6q-1 .5-1.7 0-2.4-4.7-3-9.9 1-1.3 1.8-2.9l-2-1.2q.4-8.5 5.7-15.2 1.1-1.1 2.8-1c5.4.6 17-.5 21.6.8l-7.6 8q-.5.6 0 1.1 8-4.1 15.6-8.8c5.7-.7 13.3-.6 19.2-.3-2.4 2.4-13 12-13.5 14.3-1-.6-2.4.5-2.2 1.6.7.1 3-.7 2.2-1.6 8.7-3.9 17.8-9.9 26.2-14.6q5-1 10.3-1.1c1.3.1 2.8 2.6 3.7 3.5Zm-81.3 14c1.3-.3 2.8-1.4 2.6-2.8q-2.6.3-2.6 2.9Zm42.4 17.3-19.9 11.3-.2-4.5q.9-.3 1.2-1c1.2 0 3.4-1.9 3.7-3q1-.3 1.1-1.3c2.5-1.5 10.8-1 14-1.5Zm15.9-.2q4.1 0 8.2.3c-.6 1.5-15.8 9.6-18.4 11q-4.8 3.3-9.9 6.3.4-1.5-.9-1.9c5-3.4 17.7-11.2 21-15.7Zm47.3 14.2c-.5 2-3.3 4-4.6 5.8-.8.8-1 2.3.6 1.6a61 61 0 0 1 7.6-4l22 21.3c-4 2.2-10.6 9.6-15 12.4q-.7.5-.7 1.1c.7 1 2-.6 3-.6q8.1-5.1 16.7-9.9l7.9 5.2c.3 2-3.5 4-4.9 5.2q-1.6 1.4.4 1.4l1.4-.5q2.3-2 5-3.3l.6-.9 10 5.2-4.2 5.3q.5.6 1.1.3 3-1.5 5.8-3.6 2 .2 1.6 2-4.5 11.7-9.5 23.3c-1.2 1-7.6-.9-9.4-.8q2.6-3 5-6.4c-.3-.8-1.1 0-1.6.1q-4.2 2.3-8.1 4.7c-2.4 1.1-11.7-.9-14.9-1.1q0-.6.5-1a58 58 0 0 0 6.3-6.7q-.5-.5-1.2-.2-6.2 4-12.8 7.1l-14.9-.1q.4-1 1-1.6 4.6-4 8.9-8-.5-.6-1.2-.3-8.2 5.1-16.7 9.8c-1.6.7-5.3 1.6-6.6.3a97 97 0 0 1 2.7-12.4c2-.2 4.6-3.1 5.7-4.6l-.3-.3c-1.3.5-4.6 1.7-5.2 3q4.3-26.5 9.3-52.8.4-1.5 1.7-1z"/><path fill="#8f97a6" d="M212.9 277c.1.9-1.4 1.9-2 .9a2 2 0 0 1 2-.8m-80.2 38c.4.9-1 1.6-1.6.7q.6-.9 1.6-.6"/><path fill="#576076" d="M214.4 276q-.6.8-1.5 1 .5-1 1.5-1m89.4 101q.1-.6.7-.8c.7.5-.4.8-.7.8"/><path fill="#8a93a2" d="M152.3 277.8q0-1.8 2-1.7c.4 1.1-1.1 1.7-2 1.7"/><path fill="#8991a1" d="M132.1 229.7q-.3 1.5-2 2v-.7c-.2-1.1 1.3-1.2 2-1.3m37.7 44.6c.8 1-1.5 1.7-2.2 1.6-.2-1 1.1-2.2 2.2-1.6M133.1 351q.2-.6.8-.4a1 1 0 0 1-.8.4"/><path fill="#4c5a77" stroke="#4c5a77" stroke-width=".5" d="M245 79.8c-4.7 4.9-19.8 12.1-26.4 16.1l.6-14.4q-.1-.8.5-1.3c7.5-1.3 18-1.5 25.4-.4Z"/><path fill="#485671" fill-opacity=".3" stroke="#485671" stroke-opacity=".3" stroke-width=".5" d="M241.7 47q0 1.3 1.4 1.5-12.2 6.8-24 14.2-1 .6-2-.2a16 16 0 0 1 3-2.1A671 671 0 0 0 241.6 47ZM388 153.3q.3.8 1 1.4l-27.2 15.5-13.7 8.5a2 2 0 0 1-2-.2l4-2.9zm108.3 34.4c1.1.2.7 1.6.6 2.3a6 6 0 0 0-2.4.9L455 213.5q-6.4 4.2-13 8.1a2 2 0 0 1-2-.1l4-2.9q3.7-2.3 7.7-4.1z"/><path fill="#495773" fill-opacity=".3" stroke="#495773" stroke-opacity=".3" stroke-width=".5" d="M353 80.3q.3.6 1 .3c0 1.3-1.8 1.7-2.5 2.4q-13.3 7.5-26.4 15.5-1.6.2-2.9 1.3-.6.3-1-.2l9.6-6.3q11-6.7 22.3-13ZM331.9 145q0 1.4 1.3 1.5-13.5 8-27.4 15.6l-8.7 5.6q-2.4.6-4.7 2c-1.2-.7 1.6-1.7 2-2.2q3.6-2.2 7.4-4zm110.8 108q0 1.4 1.5 1.5-17.4 10.2-35 20l-3 2.2-10 6q-1.2.5-2-.3a54 54 0 0 1 11.6-7z"/><path fill="#47546f" fill-opacity=".3" stroke="#47546f" stroke-opacity=".3" stroke-width=".5" d="M458.7 184.1q0 1.2 1 1.6l-37.6 22-4.5 2.2-5.6 3.7c-1.7.5-3.9 1.2-4.9 2.8a2 2 0 0 1-2 .1 6 6 0 0 1 2-2l7.7-4q21.8-13.3 44-26.4Zm-3.1 15q0 1.2 1.1 1.5v.1a1219 1219 0 0 1-34 19.5q-4.2 3-8.7 5.4c-3.2.6-4.4 2.7-7 4.2q-1 .4-1.9-.3l4-2.9 2.7-1q21.8-13.5 43.8-26.5Z"/><path fill="#4b5974" fill-opacity=".3" stroke="#4b5974" stroke-opacity=".3" stroke-width=".5" d="M310.6 67q.4 1 1.5 1.4L289.7 81q-4.3 2.9-8.6 5.5a2 2 0 0 1-2-.1l4-2.9 2-.8zm-69.4 392.9q-.3-1-1.3-1.3 11.1-6.6 22.2-12.8l6.9-4.4q1-.4 2 .2-15 9-29.7 18.3Zm133 18.1a3 3 0 0 0-1.3-1.4l13.7-8q1-.6 2.1-.2-7.1 5-14.4 9.6Z"/><path fill="#495772" fill-opacity=".3" stroke="#495772" stroke-opacity=".3" stroke-width=".5" d="M214.8 48q0 1.4 1.3 1.5-9.8 5.9-20 11.3-.6.3-1-.2 9.7-6.4 19.7-12.5Zm225.5 59.6.7 1.5a1566 1566 0 0 1-38.5 22l-1.4 1.4q-1.6.3-3 1.3-.6.3-1-.2l3-2.2zm-66 339.3q-.5-.9-1.4-1.3 6.5-3.6 12.8-7.6.7-.3 1.2.3-1.2 1.4-2.7 2.3-5.2 3-10 6.3Z"/><path fill="#4d5b76" fill-opacity=".3" stroke="#4d5b76" stroke-opacity=".3" stroke-width=".5" d="M471.2 300.7q.8.4.8 1.3l-24.4 14q-2.8 1.7-5.6 3.7-1.8.4-3.5 1.2c-.7-.6.2-.9.6-1.3q16-9.6 32-18.9ZM163.2 479q-.4-.8-1.3-1.3 16.2-9.3 32.2-18.9 1.3-.7 2.8-.4-2.5 1.6-4.9 3.4a51 51 0 0 0-6.3 3.4z"/><path fill="#45516a" fill-opacity=".3" stroke="#45516a" stroke-opacity=".3" stroke-width=".5" d="M75.7 465.3c-.5 1-3.6.6-3.8 0l44.2-25.5q6-4 12.5-7.4 2.4-.3.6 1.2-2 .3-3.7 1.4c-1.3 1-1 1.7-3 2l-5.4 3.7-2 .8-37.4 23z"/><path fill="#4b5772" fill-opacity=".3" stroke="#4b5772" stroke-opacity=".3" stroke-width=".5" d="M168.6 25q.2 1.3 1.5 1.5l-15.2 8.7c-1.2.7-2.3 2.5-3.8 1.3zM35.3 212q0-1.2-1-1.7L66 191.8c1.7-.7 3.8-3.7 5.8-2.5a6 6 0 0 0-2.8 2.2 23 23 0 0 0-7 4.3l-2 .8z"/><path fill="#48546e" fill-opacity=".3" stroke="#48546e" stroke-opacity=".3" stroke-width=".5" d="M44 96.2q-.4.8-1 1.2-8.6 5-16.8 10.4.1-1-1-1.4l11.9-6.9q1.5-1 2.9-2.4zm77 49-1 1q-14.6 8.7-29 17.8-1-.6-.8-1.8l23.8-13.6q3-2.7 7-3.5Z"/><path fill="#4b5975" fill-opacity=".7" d="M91.3 5.9h-7.5q0-.6.8-.9c2.3-.4 5-1.5 6.7.9m21.1 0q-3.7-.3-7.6 0 .5-.9 1.6-1.2 3.5-1.2 6 1.2m185.7 0h-7.4a7 7 0 0 1 6-1.3 2 2 0 0 1 1.4 1.2m53.2 0a31 31 0 0 0-7.6 0c1.6-2 6-2.4 7.6 0m75.9 0h-7.5c1.2-2 6.6-2.3 7.5 0m20 0q-3.8-.3-7.5 0c.5-1.4 7-2.4 7.4 0M105.6 506q3.8.2 7.7 0c-1.2 2-6.6 2-7.7 0m22 0q3.8.4 7.7 0c-.4 1.2-2.8 1.5-3.9 1.5a4 4 0 0 1-3.8-1.6"/><path fill="#49556f" fill-opacity=".3" stroke="#49556f" stroke-opacity=".3" stroke-width=".5" d="M427.4 11.4c.7-.4 2.5-.5 2.8.4l-37.1 21.7-1.5.5-5.5 3.7q-1 .4-2-.2 1.4-1.2 3-2.1 20.2-11.9 40.3-24Z"/><path fill="#4a5774" fill-opacity=".3" stroke="#4a5774" stroke-opacity=".3" stroke-width=".5" d="M346.8 31a2 2 0 0 0 1.3 1.4q-15.6 9-31 18.2c-1.8.6-4 1.3-5 2.9a2 2 0 0 1-2.1 0q1.2-1.3 2.8-2.2l2-.8z"/><path fill="#4b5975" fill-opacity=".7" d="M143.2 5.5q-3.2.4-6.5.4c1.4-1.8 4.9-1.9 6.5-.4m129.2.5c-1.7-.2-5.2.2-6.6-.6 1.7-1.5 5.2-1.5 6.6.6m127.8-.4q-3.3.4-6.5.4.2-.6.8-1c2.2-.6 3.9-1.3 5.7.6M175.7 506.1q3.8.2 7.6 0c-.7 1.8-6.6 2.3-7.6 0m59 0h7.7c-1 1.9-6.9 2.2-7.8 0m26 0 7.4.1c-1 2.2-6.7 1.7-7.4-.2"/><path fill="#4b5976" fill-opacity=".3" stroke="#4b5976" stroke-opacity=".3" stroke-width=".5" d="M359.8 217a2 2 0 0 0 1.3 1.4q-11.1 6.5-22.4 12.7-4.3 3-8.7 5.5-1.8.5-3.6 1.3l-.3-.3q16.8-10.4 33.7-20.6Z"/><path fill="#4c5a75" fill-opacity=".3" stroke="#4c5a75" stroke-opacity=".3" stroke-width=".5" d="m187.4 477.9-1.5-1.3 27.9-16.1c1.8-.7 2.8-3.4 5-2.2q-1.2 1.3-2.7 2.2l-4 2q-12.3 7.8-24.7 15.4Z"/><path fill="#4d5b75" fill-opacity=".3" stroke="#4d5b75" stroke-opacity=".3" stroke-width=".5" d="M307.6 219q.4.8 1.5 1.4-12.7 7.4-25.5 14.5l-5.5 3.8q-1 .5-2-.2l3-2.2q14.3-8.3 28.5-17.3Z"/><path fill="#4b5a77" fill-opacity=".5" stroke="#4b5a77" stroke-opacity=".5" stroke-width=".5" d="M483.1 16q1.2 0 1.6 1l-13.4 8q-.8.3-1.3-.3l4.8-3.5 7-3.8q.8-.6 1.3-1.3ZM15 299c-.8-.3 0-1.5 0-2l3.8-1.6 10-6.2c.7-.2 1.6-1 2.1 0a174 174 0 0 1-16 9.8Z"/><path fill="#434e65" fill-opacity=".2" stroke="#434e65" stroke-opacity=".2" stroke-width=".5" d="M314.6 500.7h-3.5l23.6-14.2c.7-.2 1.7-1 2.2-.1q-1.6.6-2.8 2.2-9.8 5.7-19.5 12Z"/><path fill="#3f4a5f" fill-opacity=".2" stroke="#3f4a5f" stroke-opacity=".2" stroke-width=".5" d="M36.9 453.2v1.5l-2 .7L14 468q-.8-.7-.5-1.8L35 453.7q.9-.6 1.9-.5Z"/><path fill="#4b5976" fill-opacity=".7" d="m59.2 5.6-6.5.4q.2-.7.8-1c2.3-.4 4.2-2 5.7.6m405.1-.3c-1.5.8-4.9.5-6.6.7 1.4-2 4.6-1.8 6.6-.7M150.7 506.2h7.5c-.4 1.3-3.4 1.3-4.6 1.5a4 4 0 0 1-2.9-1.6m190.1.2 7.5-.2c-.5 1.2-2.7 1.1-3.8 1.5q-2 0-3.7-1.3"/><path fill="#485574" fill-opacity=".3" stroke="#485574" stroke-opacity=".3" stroke-width=".5" d="M315.2 466q0-1.4-1.3-1.5 10.2-5.7 20.1-11.8a2 2 0 0 1 2-.2q0 .9-.8 1.1c-6.8 3.2-13.4 8.3-20 12.3Z"/><path fill="#4c5a78" fill-opacity=".5" stroke="#4c5a78" stroke-opacity=".5" stroke-width=".5" d="M48.9 447.1q-.6-1 .2-2l3.6-1.7 15-8.8c.6-.2 1.5-1.1 2.2-.3-2 1.2-4 3.4-6.2 3.9z"/><path fill="#464f66" fill-opacity=".2" stroke="#464f66" stroke-opacity=".2" stroke-width=".5" d="M114.8 267q.3 1.3-.9 2L96 279.7q.1-1-1.1-1.2z"/><path fill="#4b5976" fill-opacity=".8" d="M161.3 6h-6.6c.4-1.8 6.2-2 6.6 0m28 0q-3.2.1-6.5-.4c.9-1.5 6-1.4 6.5.4m23-.1q-3.3.5-6.4-.3c-.1-1.3 5.6-1.6 6.3.3m-9.6 500.7q3.3-.8 6.6-.5-3 2.7-6.6.5"/><path fill="#4b5975" fill-opacity=".7" d="M314.7 506q3.8.4 7.6 0c-.7 2-6.8 2.2-7.6 0m80 .1h7.7q-.2.5-.8.7a6 6 0 0 1-7-.7m20 0h7.6q-.3.6-1 .9a6 6 0 0 1-6.7-.9"/><path fill="#3b4661" fill-opacity=".2" stroke="#3b4661" stroke-opacity=".2" stroke-width=".5" d="M268.7 63.3q.2 1.2 1.4 1.2l-15.3 8.7q-.7 0-.9-.9 7.2-4.7 14.8-9Z"/><path fill="#47536a" fill-opacity=".3" stroke="#47536a" stroke-opacity=".3" stroke-width=".5" d="M82 373.3a13 13 0 0 1-5 3.2q-4.8 3.4-9.9 6.4-1.5-.2-1-1.7a4 4 0 0 0 1.9-.5l10-5.9c1.6-1.1 2-2.2 4-1.5Z"/><path fill="#44506b" fill-opacity=".2" stroke="#44506b" stroke-opacity=".2" stroke-width=".5" d="M241.6 63.2q.6.8 1.5 1.2-7.7 4.5-15.5 8.6-.5-.8.4-1.4 6.7-4.4 13.6-8.4Z"/><path fill="#4a5874" fill-opacity=".3" stroke="#4a5874" stroke-opacity=".3" stroke-width=".5" d="M498.6 393.3q.4.8.2 1.7-1 0-1.8.4c-3.8 2.6-8.5 4.4-12 7.3q-1 .6-1.9-.2l13.9-9q.7-.5 1.6-.2Z"/><path fill="#4c5873" fill-opacity=".5" stroke="#4c5873" stroke-opacity=".5" stroke-width=".5" d="M396 408a14 14 0 0 0-4.1 2.4l-3.8 1.6a4 4 0 0 1 1.5-2c4.7-2.3 9.3-6 14-8 1 .6 0 1.2-.5 1.6z"/><path fill="#49546d" fill-opacity=".2" stroke="#49546d" stroke-opacity=".2" stroke-width=".5" d="M75.7 140q.3 1 .2 2-1 0-1.9.6l-11.7 7.3q-.3-.9-1.4-1.3 7.5-4.2 14.7-8.7Z"/><path fill="#46546f" fill-opacity=".3" stroke="#46546f" stroke-opacity=".3" stroke-width=".5" d="M119.7 40.2q0 1.1 1.3 1.2l-10 6c-.9 0-3.2 2.1-3.7 1.1z"/><path fill="#4b5976" fill-opacity=".7" d="M293.6 506.2q3.9 0 7.7-.2c-.8 2.5-6.6 1.9-7.7.1m139.2.2q3.2-.5 6.4 0a5 5 0 0 1-5.2 1q-.9-.3-1.2-1"/><path fill="#46516b" fill-opacity=".2" stroke="#46516b" stroke-opacity=".2" stroke-width=".5" d="M75 126v1l-10.9 6.6q-.3-.7-1-.5 0-.6.5-1c3.9-1.7 7.3-5 11.4-6Z"/><path fill="#49566f" fill-opacity=".3" stroke="#49566f" stroke-opacity=".3" stroke-width=".5" d="M414.8 500.7H412q0-.5.4-.6l9.3-5.7q.9-.6 1.9-.1-3.9 2.6-7.3 5.7z"/><path fill="#495772" fill-opacity=".8" d="M244.3 6q-3.2.1-6.5-.3 1.5-1.3 3.5-1.2c1 .3 2.7.2 3 1.5m213.6 500.2c.8 0 6.3-.7 6 .9q-3.3 1.5-6-.9"/><path fill="#4b5976" fill-opacity=".8" d="M323.4 5.9h-6.8c.8-1.8 6-1.8 6.8 0m55 0q-3.3.2-6.6-.3c1.5-1.5 5.5-1.5 6.6.4"/><path fill="#47536c" fill-opacity=".9" d="m34 5.9-.8.6q-4.2.8-8.3 1.3c0-.6 3.9-2.3 4.6-2.7.8-.2 5-.5 4.6.8"/><path fill="#4a566e" fill-opacity=".2" stroke="#4a566e" stroke-opacity=".2" stroke-width=".5" d="M63.8 281q0 1.2-1.1 1.9-9.3 5.4-18.3 11a2 2 0 0 0-1.5-1.2q10.4-6 20.9-11.8Z"/><path fill="#4c5b79" fill-opacity=".3" d="M326.3 16.3q-.6.5-1.2.7 0-1 1.2-.7m-124 10q-.6.5-1.2.7 0-1.1 1.2-.7M318.9 62q0 1.2-1.2.7zm91 35q-.1 1-1.1.8zm16 33q0 1.1-1.2.7zm42 21q0 1.1-1.2.7zm-56.6 10.3-1.2.7q0-1.1 1.2-.7m83 83-1.2.7q0-1.1 1.2-.7m-33 51-1.3.7q.3-1.1 1.3-.7m-64 5-1.2.7q0-1.1 1.2-.7m-232 163-1.3.7q.3-1 1.3-.7M232 493q-.3 1.1-1.3.7z"/><path fill="#4c5a77" fill-opacity=".7" d="M374.8 506.4c1.5-.5 4.8-.2 6.4 0q-3.2 2.6-6.4 0"/><path fill="#4b5974" fill-opacity=".7" d="M72.6 506.1q4 .3 7.7 0c-1.1 2-6.2 2.1-7.7 0"/><path fill="#4c5a7b" fill-opacity=".2" stroke="#4c5a7b" stroke-opacity=".2" stroke-width=".5" d="m331.3 13.3-1.2.8q.2-1 1.2-.8ZM277 40.9q-.1 1-1.2.8zm113.5 72.4-1.3.8q.1-1 1.3-.8ZM362.9 126q0 1-1.2.8zm79 41q0 1.2-1.2.8zm-39.5 130.4-1.3.8q0-1.1 1.3-.8Zm-26 15-1.3.8q.1-1 1.3-.8Zm-28.1 152-1.2.8q0-1 1.2-.8Zm-3 2-1.2.8q.2-1 1.2-.8Z"/><path fill="#4b5975" fill-opacity=".8" d="M50.7 506.1q3.2-.3 6.4.2c-.3 1.5-6 1.6-6.4-.2"/><path fill="#39414f" fill-opacity=".6" d="M22.7 505c1 .2 5.2-.5 5.3.8-1.5 0-4.6 1-5.3-.9"/><path fill="#495772" fill-opacity=".7" d="M12.3 15q-.2 2.3-2.6 2.9a4 4 0 0 1 2.6-3m-2.6 2.9q.3.9-.5 1.2 0-.9.5-1.2"/><path fill="#47536d" fill-opacity=".7" d="M494.1 500c0 1-1.8 1.3-2.4 2q.3-2 2.4-2"/><path fill="#3d4557" fill-opacity=".4" d="M15.3 13q-.6.9-1.5 1.3.3-1.2 1.5-1.3"/><path fill="#262626" fill-opacity=".6" d="M503 489.8q0 .8-.8 1l.7-1"/><path fill="#495770" fill-opacity=".4" d="m79.9 198.6-.2 1.3-1-.2z"/><path fill="#4c5a76" fill-opacity=".5" stroke="#4c5a76" stroke-opacity=".5" stroke-width=".5" d="M224.3 261.1q0-.8-.3-1.4 4.8-3.5 9.7-6.5c.8-.2 1.7-.9 2.3 0l-4.9 3.5c-2.6 1.4-4.6 2.4-6.8 4.4Z"/><path fill="#495771" fill-opacity=".3" stroke="#495771" stroke-opacity=".3" stroke-width=".5" d="M181.7 52.1q0 1.2 1 1.6L168 62.2c-1.1.7-2.4 2.8-3.8 1.4q.2-.7.9-1 8.4-5 16.7-10.5ZM106.8 137q.3 1-.7 1.5l-9.6 5.5q-2 2.1-5 3l-2.2 2q-.3-1-.2-2 8.1-4.6 15.9-9.6z"/></svg>